<svg width="72" height="32" viewBox="0 0 72 32" fill="none" xmlns="http://www.w3.org/2000/svg">
<g clip-path="url(#clip0_27_6445)">
<path d="M21.9997 27C21.9997 27.2652 21.8944 27.5196 21.7068 27.7071C21.5193 27.8946 21.265 28 20.9997 28H2.99974C2.73452 28 2.48017 27.8946 2.29263 27.7071C2.1051 27.5196 1.99974 27.2652 1.99974 27C1.99974 26.7348 2.1051 26.4804 2.29263 26.2929C2.48017 26.1054 2.73452 26 2.99974 26H20.9997C21.265 26 21.5193 26.1054 21.7068 26.2929C21.8944 26.4804 21.9997 26.7348 21.9997 27ZM30.7885 10.845L28.4585 7.85874L28.4435 7.83999C27.69 6.9119 26.6277 6.28599 25.4507 6.07667C24.2737 5.86735 23.0608 6.0886 22.0335 6.69999L15.5872 10.5475L8.84474 8.06749C8.6194 7.98347 8.37133 7.98347 8.14599 8.06749L7.24974 8.40874L7.20974 8.42499C6.90312 8.55661 6.63431 8.76285 6.42778 9.02492C6.22126 9.28699 6.08358 9.59657 6.02729 9.92546C5.97101 10.2544 5.9979 10.5921 6.10553 10.9079C6.21315 11.2238 6.39809 11.5077 6.64349 11.7337L9.37474 14.3825L6.85349 15.9075L3.32099 14.715C3.07098 14.6308 2.79781 14.6487 2.56099 14.765L2.18599 14.9487C1.88597 15.0828 1.62361 15.2887 1.4221 15.5483C1.2206 15.8079 1.08616 16.1131 1.03067 16.437C0.975184 16.7609 1.00036 17.0935 1.10398 17.4053C1.20759 17.7172 1.38645 17.9987 1.62474 18.225L6.12474 22.6337L6.13974 22.6487C7.06151 23.52 8.28138 24.0061 9.54974 24.0075C10.4401 24.006 11.3142 23.7679 12.0822 23.3175L30.5085 12.3175C30.6301 12.2448 30.7348 12.1472 30.8158 12.031C30.8969 11.9148 30.9522 11.7827 30.9784 11.6435C31.0045 11.5043 31.0007 11.3611 30.9673 11.2234C30.934 11.0858 30.8717 10.9568 30.7847 10.845H30.7885Z" fill="white"/>
<path d="M62.5006 27C62.5006 27.3978 62.3425 27.7794 62.0612 28.0607C61.7799 28.342 61.3984 28.5 61.0006 28.5H43.0006C42.6027 28.5 42.2212 28.342 41.9399 28.0607C41.6586 27.7794 41.5006 27.3978 41.5006 27C41.5006 26.6022 41.6586 26.2207 41.9399 25.9393C42.2212 25.658 42.6027 25.5 43.0006 25.5H61.0006C61.3984 25.5 61.7799 25.658 62.0612 25.9393C62.3425 26.2207 62.5006 26.6022 62.5006 27ZM71.4743 11.235C71.4353 11.4441 71.3523 11.6425 71.2307 11.8171C71.1092 11.9917 70.9519 12.1384 70.7693 12.2475L52.3443 23.25L52.3281 23.2588C51.3068 23.8584 50.1184 24.1102 48.9417 23.9763C47.765 23.8424 46.6635 23.33 45.8031 22.5163L45.7793 22.4938L41.2793 18.0875C40.9829 17.8051 40.7604 17.4542 40.6314 17.0657C40.5023 16.6772 40.4706 16.2629 40.5392 15.8593C40.6077 15.4556 40.7742 15.075 41.0243 14.7508C41.2743 14.4266 41.6001 14.1688 41.9731 14L42.3406 13.82C42.696 13.646 43.1057 13.6195 43.4806 13.7463L46.7931 14.8638L48.5618 13.7938L46.3031 11.5975C45.9975 11.3145 45.7675 10.9596 45.634 10.5651C45.5004 10.1706 45.4675 9.74898 45.5383 9.33855C45.6091 8.92811 45.7813 8.54187 46.0393 8.21489C46.2973 7.88792 46.6329 7.63058 47.0156 7.46626L47.0756 7.44126L47.9693 7.10376C48.3079 6.97725 48.6808 6.97725 49.0193 7.10376L55.5368 9.50001L61.7781 5.77501C62.9079 5.10122 64.2425 4.85673 65.5378 5.08627C66.833 5.3158 68.0024 6.00402 68.8318 7.02501C68.8396 7.03362 68.8467 7.04282 68.8531 7.05251L71.1831 10.0375C71.3141 10.2049 71.4078 10.3983 71.4581 10.6048C71.5083 10.8113 71.5138 11.0262 71.4743 11.235ZM67.7731 10.5425L66.5006 8.91126C66.1233 8.45154 65.5938 8.14226 65.0081 8.03952C64.4224 7.93677 63.8192 8.04737 63.3081 8.35125L56.4618 12.4388C56.2701 12.5543 56.055 12.6255 55.8322 12.6472C55.6095 12.6688 55.3847 12.6403 55.1743 12.5638L49.4243 10.4463L52.0493 12.9963C52.2137 13.156 52.3393 13.3514 52.4164 13.5673C52.4935 13.7832 52.5201 14.0138 52.4941 14.2416C52.4682 14.4694 52.3904 14.6882 52.2667 14.8812C52.143 15.0742 51.9767 15.2363 51.7806 15.355L47.7506 17.7863C47.5646 17.8983 47.3565 17.9686 47.1407 17.9923C46.9249 18.0161 46.7065 17.9927 46.5006 17.9238L44.8318 17.3613L47.8706 20.3363C48.2613 20.7014 48.7593 20.9308 49.2907 20.9905C49.8221 21.0501 50.3586 20.9369 50.8206 20.6675L67.7731 10.5425Z" fill="white"/>
</g>
<defs>
<clipPath id="clip0_27_6445">
<rect width="72" height="32" rx="5" fill="white"/>
</clipPath>
</defs>
</svg>
