<svg width="72" height="32" viewBox="0 0 72 32" fill="none" xmlns="http://www.w3.org/2000/svg">
<g clip-path="url(#clip0_27_6450)">
<path d="M31.0001 17V20C31.0001 20.2652 30.8948 20.5196 30.7073 20.7071C30.5197 20.8946 30.2654 21 30.0001 21H7.63389C6.55736 21.0049 5.50835 20.6601 4.64471 20.0174C3.78108 19.3747 3.14954 18.4689 2.84514 17.4363L1.08639 11.575C0.99679 11.2765 0.978188 10.9612 1.03207 10.6542C1.08595 10.3473 1.21083 10.0571 1.39673 9.80699C1.58264 9.55685 1.82443 9.35362 2.10282 9.21351C2.3812 9.0734 2.68848 9.00028 3.00014 9H4.00014C4.26501 9.00012 4.519 9.10532 4.70639 9.2925L7.41514 12H10.2264L9.10139 8.6325C9.00113 8.33175 8.97381 8.01147 9.02167 7.69807C9.06952 7.38468 9.1912 7.08715 9.37665 6.83003C9.56211 6.57291 9.80603 6.36356 10.0883 6.21924C10.3706 6.07492 10.6831 5.99978 11.0001 6H12.0001C12.1315 5.9999 12.2616 6.02568 12.383 6.07586C12.5044 6.12605 12.6147 6.19967 12.7076 6.2925L18.4151 12H26.0001C27.3262 12 28.598 12.5268 29.5357 13.4645C30.4734 14.4021 31.0001 15.6739 31.0001 17ZM26.0001 23C25.6046 23 25.2179 23.1173 24.889 23.3371C24.5601 23.5568 24.3038 23.8692 24.1524 24.2346C24.001 24.6001 23.9614 25.0022 24.0386 25.3902C24.1157 25.7781 24.3062 26.1345 24.5859 26.4142C24.8656 26.6939 25.222 26.8844 25.61 26.9616C25.9979 27.0387 26.4001 26.9991 26.7655 26.8478C27.131 26.6964 27.4433 26.44 27.6631 26.1111C27.8828 25.7822 28.0001 25.3956 28.0001 25C28.0001 24.4696 27.7894 23.9609 27.4144 23.5858C27.0393 23.2107 26.5306 23 26.0001 23ZM14.0001 23C13.6046 23 13.2179 23.1173 12.889 23.3371C12.5601 23.5568 12.3038 23.8692 12.1524 24.2346C12.001 24.6001 11.9614 25.0022 12.0386 25.3902C12.1157 25.7781 12.3062 26.1345 12.5859 26.4142C12.8656 26.6939 13.222 26.8844 13.61 26.9616C13.9979 27.0387 14.4001 26.9991 14.7655 26.8478C15.131 26.6964 15.4433 26.44 15.6631 26.1111C15.8828 25.7822 16.0001 25.3956 16.0001 25C16.0001 24.4696 15.7894 23.9609 15.4144 23.5858C15.0393 23.2107 14.5306 23 14.0001 23Z" fill="white"/>
<path d="M66 11H58.625L53.0613 5.43875C52.9218 5.2995 52.7564 5.18908 52.5743 5.1138C52.3922 5.03852 52.197 4.99985 52 5H51C50.6035 4.99944 50.2126 5.0932 49.8595 5.27352C49.5064 5.45385 49.2012 5.71557 48.9692 6.03709C48.7372 6.35861 48.585 6.7307 48.5251 7.12264C48.4653 7.51459 48.4995 7.91515 48.625 8.29125L49.5338 11H47.625L45.0613 8.43875C44.9218 8.2995 44.7564 8.18908 44.5743 8.1138C44.3922 8.03852 44.197 7.99985 44 8H43C42.6104 8.00031 42.2263 8.09166 41.8782 8.26678C41.5302 8.4419 41.2279 8.69594 40.9955 9.00862C40.7631 9.3213 40.607 9.68397 40.5396 10.0677C40.4722 10.4514 40.4955 10.8456 40.6075 11.2188L42.3663 17.08C42.701 18.2159 43.3957 19.2123 44.3457 19.9193C45.2957 20.6262 46.4496 21.0055 47.6338 21H70C70.3978 21 70.7794 20.842 71.0607 20.5607C71.342 20.2794 71.5 19.8978 71.5 19.5V16.5C71.4983 15.0418 70.9184 13.6438 69.8873 12.6127C68.8562 11.5817 67.4582 11.0017 66 11ZM68.5 18H47.6338C47.0955 18.0023 46.5711 17.83 46.1392 17.5088C45.7073 17.1876 45.3914 16.7349 45.2388 16.2188L43.8 11.42L45.94 13.5613C46.2212 13.8422 46.6025 14 47 14H51.6125C51.8503 14.0003 52.0847 13.944 52.2965 13.8359C52.5082 13.7278 52.6913 13.5708 52.8304 13.378C52.9696 13.1853 53.061 12.9622 53.097 12.7271C53.133 12.4921 53.1126 12.2519 53.0375 12.0263L51.8538 8.47375L56.94 13.5613C57.2212 13.8422 57.6025 14 58 14H66C66.663 14 67.2989 14.2634 67.7678 14.7322C68.2366 15.2011 68.5 15.837 68.5 16.5V18ZM68.5 25.5C68.5 25.9945 68.3534 26.4778 68.0787 26.8889C67.804 27.3001 67.4135 27.6205 66.9567 27.8097C66.4999 27.9989 65.9972 28.0484 65.5123 27.952C65.0273 27.8555 64.5819 27.6174 64.2322 27.2678C63.8826 26.9181 63.6445 26.4727 63.548 25.9877C63.4516 25.5028 63.5011 25.0001 63.6903 24.5433C63.8795 24.0865 64.2 23.696 64.6111 23.4213C65.0222 23.1466 65.5055 23 66 23C66.663 23 67.2989 23.2634 67.7678 23.7322C68.2366 24.2011 68.5 24.837 68.5 25.5ZM56.5 25.5C56.5 25.9945 56.3534 26.4778 56.0787 26.8889C55.804 27.3001 55.4135 27.6205 54.9567 27.8097C54.4999 27.9989 53.9972 28.0484 53.5123 27.952C53.0273 27.8555 52.5819 27.6174 52.2322 27.2678C51.8826 26.9181 51.6445 26.4727 51.548 25.9877C51.4516 25.5028 51.5011 25.0001 51.6903 24.5433C51.8795 24.0865 52.2 23.696 52.6111 23.4213C53.0222 23.1466 53.5055 23 54 23C54.663 23 55.2989 23.2634 55.7678 23.7322C56.2366 24.2011 56.5 24.837 56.5 25.5Z" fill="white"/>
</g>
<defs>
<clipPath id="clip0_27_6450">
<rect width="72" height="32" rx="5" fill="white"/>
</clipPath>
</defs>
</svg>
