<svg width="72" height="32" viewBox="0 0 72 32" fill="none" xmlns="http://www.w3.org/2000/svg">
<g clip-path="url(#clip0_27_6455)">
<path d="M26.9397 24.6575C27.0047 24.8363 27.0174 25.03 26.9762 25.2157C26.935 25.4015 26.8417 25.5717 26.7072 25.7062L23.7072 28.7062C23.6143 28.7993 23.5041 28.8731 23.3827 28.9236C23.2613 28.974 23.1311 28.9999 22.9997 29C22.9668 29.0018 22.9338 29.0018 22.9009 29C22.7537 28.9855 22.6115 28.9385 22.4846 28.8624C22.3577 28.7863 22.2493 28.683 22.1672 28.56L16.6584 20.295L13.9997 22.9487V26C13.9995 26.2649 13.8944 26.5189 13.7072 26.7062C13.7072 26.7062 11.9572 28.4637 11.7222 28.6912C11.6245 28.7935 11.506 28.8737 11.3747 28.9262C11.1299 29.0259 10.8557 29.0247 10.6119 28.9228C10.368 28.8209 10.1745 28.6267 10.0734 28.3825L10.0659 28.3637L8.22842 23.7687L3.62467 21.9275C3.47109 21.8661 3.33515 21.7675 3.22903 21.6406C3.1229 21.5137 3.04991 21.3625 3.01659 21.2005C2.98327 21.0385 2.99066 20.8707 3.0381 20.7122C3.08554 20.5538 3.17155 20.4096 3.28842 20.2925L5.28842 18.2925C5.3818 18.1992 5.49273 18.1253 5.6148 18.0751C5.73687 18.0249 5.86768 17.9994 5.99967 18H9.04967L11.7084 15.3412L3.44467 9.83124C3.32141 9.7492 3.21792 9.6408 3.14166 9.51389C3.06539 9.38697 3.01826 9.24471 3.00367 9.09736C2.98908 8.95002 3.00739 8.80127 3.05728 8.66187C3.10718 8.52246 3.1874 8.39587 3.29217 8.29124L6.29217 5.29124C6.42675 5.15673 6.59691 5.0634 6.78267 5.02222C6.96844 4.98104 7.1621 4.99371 7.34092 5.05874L18.0834 8.96499L22.0247 5.02374C22.6811 4.36733 23.5714 3.99857 24.4997 3.99857C24.9593 3.99857 25.4145 4.0891 25.8391 4.265C26.2638 4.4409 26.6496 4.69872 26.9747 5.02374C27.2997 5.34877 27.5575 5.73462 27.7334 6.15928C27.9093 6.58395 27.9998 7.03909 27.9998 7.49874C27.9998 7.95839 27.9093 8.41354 27.7334 8.8382C27.5575 9.26287 27.2997 9.64872 26.9747 9.97374L23.0334 13.915L26.9397 24.6575Z" fill="white"/>
<path d="M63.7501 14.4137L67.1513 11.2125L67.1838 11.18C68.0164 10.3338 68.4809 9.19283 68.476 8.00571C68.4712 6.81859 67.9975 5.68148 67.158 4.84205C66.3186 4.00263 65.1815 3.5289 63.9944 3.52407C62.8073 3.51924 61.6663 3.98368 60.8201 4.81624C60.8088 4.82624 60.7988 4.83749 60.7876 4.84874L57.5863 8.24999L47.5126 4.58874C47.2445 4.49132 46.9541 4.47238 46.6756 4.53415C46.397 4.59592 46.1419 4.73584 45.9401 4.93749L42.9401 7.93749C42.7824 8.09436 42.6616 8.28433 42.5864 8.49364C42.5112 8.70295 42.4835 8.92637 42.5053 9.14771C42.527 9.36906 42.5978 9.58279 42.7123 9.77343C42.8269 9.96408 42.9824 10.1269 43.1676 10.25L50.6463 15.235L49.3751 16.5H47.0001C46.6026 16.5 46.2213 16.6578 45.9401 16.9387L42.9401 19.9387C42.7647 20.114 42.6355 20.3301 42.564 20.5675C42.4925 20.805 42.4811 21.0565 42.5306 21.2994C42.5801 21.5424 42.6891 21.7693 42.8479 21.9599C43.0066 22.1504 43.2101 22.2986 43.4401 22.3912L47.8438 24.1537L49.6013 28.5462L49.6126 28.5737C49.7081 28.8043 49.8596 29.0073 50.0534 29.1645C50.2471 29.3217 50.4771 29.4281 50.7223 29.474C50.9676 29.52 51.2204 29.504 51.4579 29.4275C51.6955 29.3511 51.9102 29.2166 52.0826 29.0362L55.0588 26.06C55.1984 25.9209 55.3092 25.7558 55.3849 25.5739C55.4606 25.392 55.4998 25.197 55.5001 25V22.625L56.7663 21.3587L61.7501 28.8312C61.8732 29.0159 62.0357 29.171 62.226 29.2852C62.4162 29.3995 62.6295 29.4701 62.8503 29.492C63.0712 29.5139 63.2941 29.4865 63.5031 29.4118C63.7121 29.3371 63.9019 29.2169 64.0588 29.06L67.0588 26.06C67.2607 25.8581 67.4008 25.6027 67.4626 25.3239C67.5244 25.0452 67.5053 24.7546 67.4076 24.4862L63.7501 14.4137ZM63.2363 25.645L58.2501 18.1662C58.127 17.9817 57.9644 17.8268 57.7742 17.7127C57.584 17.5986 57.3708 17.5281 57.1501 17.5062C57.1002 17.5016 57.0502 17.4995 57.0001 17.5C56.803 17.5 56.6078 17.5389 56.4257 17.6144C56.2436 17.6899 56.0781 17.8005 55.9388 17.94L52.9388 20.94C52.6579 21.2212 52.5001 21.6025 52.5001 22V24.375L51.5476 25.3275L50.3926 22.44C50.3172 22.2512 50.2041 22.0797 50.0604 21.936C49.9166 21.7922 49.7451 21.6792 49.5563 21.6037L46.6688 20.4487L47.6251 19.5H50.0001C50.3976 19.5 50.7789 19.3422 51.0601 19.0612L54.0601 16.0612C54.2175 15.9044 54.3382 15.7145 54.4132 15.5053C54.4883 15.2961 54.5159 15.0729 54.4942 14.8517C54.4724 14.6305 54.4018 14.4169 54.2873 14.2264C54.1729 14.0359 54.0176 13.8731 53.8326 13.75L46.3551 8.765L47.3851 7.73374L57.4888 11.4075C57.7644 11.5078 58.0632 11.5251 58.3485 11.4573C58.6337 11.3896 58.8929 11.2397 59.0938 11.0262L62.9551 6.92374C63.2369 6.64195 63.6191 6.48364 64.0176 6.48364C64.4161 6.48364 64.7983 6.64195 65.0801 6.92374C65.3619 7.20554 65.5202 7.58773 65.5202 7.98624C65.5202 8.38476 65.3619 8.76695 65.0801 9.04874L60.9776 12.91C60.7639 13.1108 60.6138 13.3699 60.5458 13.6552C60.4779 13.9404 60.495 14.2394 60.5951 14.515L64.2701 24.6175L63.2363 25.645Z" fill="white"/>
</g>
<defs>
<clipPath id="clip0_27_6455">
<rect width="72" height="32" rx="5" fill="white"/>
</clipPath>
</defs>
</svg>
