<svg width="72" height="32" viewBox="0 0 72 32" fill="none" xmlns="http://www.w3.org/2000/svg">
<g clip-path="url(#clip0_27_3624)">
<path d="M21.7687 26.36C21.8904 26.5061 21.9679 26.6837 21.9922 26.8723C22.0165 27.0608 21.9865 27.2523 21.9058 27.4244C21.8252 27.5965 21.6971 27.7421 21.5367 27.844C21.3762 27.946 21.1901 28.0001 21 28H11C10.8099 28.0001 10.6238 27.946 10.4633 27.844C10.3029 27.7421 10.1748 27.5965 10.0942 27.4244C10.0135 27.2523 9.98354 27.0608 10.0078 26.8723C10.0321 26.6837 10.1096 26.5061 10.2312 26.36L15.2312 20.36C15.3251 20.2474 15.4426 20.1568 15.5753 20.0947C15.708 20.0325 15.8528 20.0003 15.9994 20.0003C16.1459 20.0003 16.2907 20.0325 16.4235 20.0947C16.5562 20.1568 16.6737 20.2474 16.7675 20.36L21.7687 26.36ZM26 5H6C5.20435 5 4.44129 5.31607 3.87868 5.87868C3.31607 6.44129 3 7.20435 3 8V22C3 22.7956 3.31607 23.5587 3.87868 24.1213C4.44129 24.6839 5.20435 25 6 25H8.5275C8.60074 24.9999 8.67308 24.9838 8.73939 24.9527C8.8057 24.9216 8.86437 24.8763 8.91125 24.82L13.6962 19.08C14.0124 18.7002 14.4174 18.4044 14.8753 18.2188C15.3333 18.0333 15.8299 17.9637 16.3213 18.0163C17.1179 18.1105 17.8465 18.5113 18.3525 19.1338L23.0912 24.82C23.1381 24.8763 23.1968 24.9216 23.2631 24.9527C23.3294 24.9838 23.4018 24.9999 23.475 25H26C26.7956 25 27.5587 24.6839 28.1213 24.1213C28.6839 23.5587 29 22.7956 29 22V8C29 7.20435 28.6839 6.44129 28.1213 5.87868C27.5587 5.31607 26.7956 5 26 5Z" fill="white"/>
<path d="M57.1388 19.0238C56.9979 18.8595 56.8233 18.7277 56.6267 18.6373C56.4301 18.5469 56.2163 18.5001 56 18.5001C55.7837 18.5001 55.5699 18.5469 55.3733 18.6373C55.1768 18.7277 55.0021 18.8595 54.8612 19.0238L48.8612 26.0238C48.6745 26.2415 48.5542 26.5083 48.5145 26.7924C48.4748 27.0765 48.5174 27.3661 48.6373 27.6267C48.7571 27.8873 48.9492 28.1081 49.1907 28.2629C49.4323 28.4177 49.7131 28.5 50 28.5H62C62.2869 28.5 62.5677 28.4177 62.8093 28.2629C63.0508 28.1081 63.2429 27.8873 63.3627 27.6267C63.4826 27.3661 63.5252 27.0765 63.4855 26.7924C63.4458 26.5083 63.3255 26.2415 63.1388 26.0238L57.1388 19.0238ZM53.2638 25.5L56 22.305L58.7388 25.5H53.2638ZM69.5 8V22C69.5 22.4596 69.4095 22.9148 69.2336 23.3394C69.0577 23.764 68.7999 24.1499 68.4749 24.4749C68.1499 24.7999 67.764 25.0577 67.3394 25.2336C66.9148 25.4095 66.4596 25.5 66 25.5H65.5C65.1022 25.5 64.7206 25.342 64.4393 25.0607C64.158 24.7794 64 24.3978 64 24C64 23.6022 64.158 23.2206 64.4393 22.9393C64.7206 22.658 65.1022 22.5 65.5 22.5H66C66.1326 22.5 66.2598 22.4473 66.3536 22.3536C66.4473 22.2598 66.5 22.1326 66.5 22V8C66.5 7.86739 66.4473 7.74021 66.3536 7.64645C66.2598 7.55268 66.1326 7.5 66 7.5H46C45.8674 7.5 45.7402 7.55268 45.6464 7.64645C45.5527 7.74021 45.5 7.86739 45.5 8V22C45.5 22.1326 45.5527 22.2598 45.6464 22.3536C45.7402 22.4473 45.8674 22.5 46 22.5H46.5C46.8978 22.5 47.2794 22.658 47.5607 22.9393C47.842 23.2206 48 23.6022 48 24C48 24.3978 47.842 24.7794 47.5607 25.0607C47.2794 25.342 46.8978 25.5 46.5 25.5H46C45.0717 25.5 44.1815 25.1313 43.5251 24.4749C42.8687 23.8185 42.5 22.9283 42.5 22V8C42.5 7.07174 42.8687 6.1815 43.5251 5.52513C44.1815 4.86875 45.0717 4.5 46 4.5H66C66.4596 4.5 66.9148 4.59053 67.3394 4.76642C67.764 4.94231 68.1499 5.20012 68.4749 5.52513C68.7999 5.85013 69.0577 6.23597 69.2336 6.66061C69.4095 7.08525 69.5 7.54037 69.5 8Z" fill="white"/>
</g>
<defs>
<clipPath id="clip0_27_3624">
<rect width="72" height="32" rx="5" fill="white"/>
</clipPath>
</defs>
</svg>
