<svg width="72" height="32" viewBox="0 0 72 32" fill="none" xmlns="http://www.w3.org/2000/svg">
<g clip-path="url(#clip0_27_4183)">
<path d="M7.70708 4.70751L3.70708 8.70751C3.51944 8.89515 3.26494 9.00056 2.99958 9.00056C2.73422 9.00056 2.47972 8.89515 2.29208 8.70751C2.10444 8.51987 1.99902 8.26537 1.99902 8.00001C1.99902 7.73464 2.10444 7.48015 2.29208 7.29251L6.29208 3.29251C6.47972 3.10487 6.73422 2.99945 6.99958 2.99945C7.26494 2.99945 7.51944 3.10487 7.70708 3.29251C7.89472 3.48015 8.00014 3.73464 8.00014 4.00001C8.00014 4.26537 7.89472 4.51987 7.70708 4.70751ZM29.7071 7.29251L25.7071 3.29251C25.5194 3.10487 25.2649 2.99945 24.9996 2.99945C24.7342 2.99945 24.4797 3.10487 24.2921 3.29251C24.1044 3.48015 23.999 3.73464 23.999 4.00001C23.999 4.26537 24.1044 4.51987 24.2921 4.70751L28.2921 8.70751C28.385 8.80042 28.4953 8.87412 28.6167 8.9244C28.7381 8.97468 28.8682 9.00056 28.9996 9.00056C29.131 9.00056 29.2611 8.97468 29.3825 8.9244C29.5039 8.87412 29.6142 8.80042 29.7071 8.70751C29.8 8.6146 29.8737 8.5043 29.924 8.3829C29.9743 8.26151 30.0001 8.1314 30.0001 8.00001C30.0001 7.86861 29.9743 7.7385 29.924 7.61711C29.8737 7.49572 29.8 7.38542 29.7071 7.29251ZM27.9996 17C27.9996 19.3734 27.2958 21.6935 25.9772 23.6669C24.6586 25.6402 22.7845 27.1783 20.5918 28.0866C18.3991 28.9948 15.9863 29.2325 13.6585 28.7694C11.3307 28.3064 9.19253 27.1635 7.5143 25.4853C5.83607 23.8071 4.69318 21.6689 4.23016 19.3411C3.76713 17.0133 4.00477 14.6005 4.91302 12.4078C5.82128 10.2151 7.35935 8.34095 9.33274 7.02237C11.3061 5.70379 13.6262 5.00001 15.9996 5.00001C19.1811 5.00365 22.2312 6.2691 24.4808 8.51874C26.7305 10.7684 27.9959 13.8185 27.9996 17ZM23.9996 17C23.9996 16.7348 23.8942 16.4804 23.7067 16.2929C23.5192 16.1054 23.2648 16 22.9996 16H16.9996V10C16.9996 9.73479 16.8942 9.48044 16.7067 9.2929C16.5192 9.10536 16.2648 9.00001 15.9996 9.00001C15.7344 9.00001 15.48 9.10536 15.2925 9.2929C15.1049 9.48044 14.9996 9.73479 14.9996 10V17C14.9996 17.2652 15.1049 17.5196 15.2925 17.7071C15.48 17.8947 15.7344 18 15.9996 18H22.9996C23.2648 18 23.5192 17.8947 23.7067 17.7071C23.8942 17.5196 23.9996 17.2652 23.9996 17Z" fill="white"/>
<path d="M55.9999 4.50001C53.5277 4.50001 51.1109 5.23312 49.0553 6.60664C46.9997 7.98015 45.3975 9.93239 44.4515 12.2165C43.5054 14.5005 43.2578 17.0139 43.7401 19.4386C44.2224 21.8634 45.413 24.0907 47.1611 25.8388C48.9093 27.587 51.1366 28.7775 53.5613 29.2598C55.9861 29.7421 58.4994 29.4946 60.7835 28.5485C63.0676 27.6024 65.0198 26.0002 66.3933 23.9446C67.7668 21.889 68.4999 19.4723 68.4999 17C68.4963 13.6859 67.1782 10.5086 64.8348 8.16519C62.4913 5.82178 59.314 4.50365 55.9999 4.50001ZM55.9999 26.5C54.121 26.5 52.2843 25.9428 50.722 24.899C49.1598 23.8551 47.9421 22.3714 47.2231 20.6355C46.5041 18.8996 46.3159 16.9895 46.6825 15.1466C47.049 13.3038 47.9538 11.6111 49.2824 10.2825C50.611 8.95389 52.3038 8.04911 54.1466 7.68255C55.9894 7.31599 57.8995 7.50412 59.6354 8.22315C61.3713 8.94218 62.855 10.1598 63.8989 11.7221C64.9428 13.2844 65.4999 15.1211 65.4999 17C65.4973 19.5188 64.4956 21.9336 62.7145 23.7146C60.9335 25.4956 58.5187 26.4974 55.9999 26.5ZM44.0612 9.06126C43.9217 9.20079 43.756 9.31147 43.5737 9.38698C43.3914 9.46249 43.196 9.50136 42.9987 9.50136C42.8014 9.50136 42.606 9.46249 42.4237 9.38698C42.2414 9.31147 42.0757 9.20079 41.9362 9.06126C41.7967 8.92173 41.686 8.75608 41.6105 8.57378C41.535 8.39147 41.4961 8.19608 41.4961 7.99876C41.4961 7.80143 41.535 7.60604 41.6105 7.42374C41.686 7.24143 41.7967 7.07579 41.9362 6.93626L45.9362 2.93626C46.218 2.65446 46.6002 2.49615 46.9987 2.49615C47.3972 2.49615 47.7794 2.65446 48.0612 2.93626C48.343 3.21805 48.5013 3.60024 48.5013 3.99876C48.5013 4.39727 48.343 4.77946 48.0612 5.06126L44.0612 9.06126ZM70.0612 9.06126C69.9218 9.2011 69.7563 9.31205 69.5739 9.38776C69.3916 9.46347 69.1961 9.50244 68.9987 9.50244C68.8013 9.50244 68.6058 9.46347 68.4235 9.38776C68.2411 9.31205 68.0756 9.2011 67.9362 9.06126L63.9362 5.06126C63.7967 4.92173 63.686 4.75608 63.6105 4.57378C63.535 4.39147 63.4961 4.19608 63.4961 3.99876C63.4961 3.80143 63.535 3.60604 63.6105 3.42374C63.686 3.24143 63.7967 3.07579 63.9362 2.93626C64.0757 2.79673 64.2414 2.68605 64.4237 2.61053C64.606 2.53502 64.8014 2.49615 64.9987 2.49615C65.196 2.49615 65.3914 2.53502 65.5737 2.61053C65.756 2.68605 65.9217 2.79673 66.0612 2.93626L70.0612 6.93626C70.201 7.07561 70.312 7.2412 70.3877 7.42353C70.4634 7.60586 70.5024 7.80134 70.5024 7.99876C70.5024 8.19618 70.4634 8.39166 70.3877 8.57398C70.312 8.75631 70.201 8.9219 70.0612 9.06126ZM61.9999 15.5C62.3978 15.5 62.7793 15.658 63.0606 15.9393C63.3419 16.2207 63.4999 16.6022 63.4999 17C63.4999 17.3978 63.3419 17.7794 63.0606 18.0607C62.7793 18.342 62.3978 18.5 61.9999 18.5H55.9999C55.6021 18.5 55.2206 18.342 54.9393 18.0607C54.658 17.7794 54.4999 17.3978 54.4999 17V11C54.4999 10.6022 54.658 10.2207 54.9393 9.93935C55.2206 9.65804 55.6021 9.50001 55.9999 9.50001C56.3978 9.50001 56.7793 9.65804 57.0606 9.93935C57.3419 10.2207 57.4999 10.6022 57.4999 11V15.5H61.9999Z" fill="white"/>
</g>
<defs>
<clipPath id="clip0_27_4183">
<rect width="72" height="32" rx="5" fill="white"/>
</clipPath>
</defs>
</svg>
