<svg width="72" height="32" viewBox="0 0 72 32" fill="none" xmlns="http://www.w3.org/2000/svg">
<g clip-path="url(#clip0_27_5067)">
<path d="M28 12V20C28 20.5304 27.7893 21.0391 27.4142 21.4142C27.0391 21.7893 26.5304 22 26 22H17V26C17 26.2652 16.8946 26.5196 16.7071 26.7071C16.5196 26.8946 16.2652 27 16 27C15.7348 27 15.4804 26.8946 15.2929 26.7071C15.1054 26.5196 15 26.2652 15 26V22H6C5.46957 22 4.96086 21.7893 4.58579 21.4142C4.21071 21.0391 4 20.5304 4 20V12C4 11.4696 4.21071 10.9609 4.58579 10.5858C4.96086 10.2107 5.46957 10 6 10H15V6C15 5.73478 15.1054 5.48043 15.2929 5.29289C15.4804 5.10536 15.7348 5 16 5C16.2652 5 16.5196 5.10536 16.7071 5.29289C16.8946 5.48043 17 5.73478 17 6V10H26C26.5304 10 27.0391 10.2107 27.4142 10.5858C27.7893 10.9609 28 11.4696 28 12Z" fill="white"/>
<path d="M66 9.5H57.5V6C57.5 5.60218 57.342 5.22064 57.0607 4.93934C56.7794 4.65804 56.3978 4.5 56 4.5C55.6022 4.5 55.2206 4.65804 54.9393 4.93934C54.658 5.22064 54.5 5.60218 54.5 6V9.5H46C45.337 9.5 44.7011 9.76339 44.2322 10.2322C43.7634 10.7011 43.5 11.337 43.5 12V20C43.5 20.663 43.7634 21.2989 44.2322 21.7678C44.7011 22.2366 45.337 22.5 46 22.5H54.5V26C54.5 26.3978 54.658 26.7794 54.9393 27.0607C55.2206 27.342 55.6022 27.5 56 27.5C56.3978 27.5 56.7794 27.342 57.0607 27.0607C57.342 26.7794 57.5 26.3978 57.5 26V22.5H66C66.663 22.5 67.2989 22.2366 67.7678 21.7678C68.2366 21.2989 68.5 20.663 68.5 20V12C68.5 11.337 68.2366 10.7011 67.7678 10.2322C67.2989 9.76339 66.663 9.5 66 9.5ZM65.5 19.5H46.5V12.5H65.5V19.5Z" fill="white"/>
</g>
<defs>
<clipPath id="clip0_27_5067">
<rect width="72" height="32" rx="5" fill="white"/>
</clipPath>
</defs>
</svg>
