<svg width="72" height="32" viewBox="0 0 72 32" fill="none" xmlns="http://www.w3.org/2000/svg">
<g clip-path="url(#clip0_27_5097)">
<path d="M29 7V25C29 25.2652 28.8946 25.5196 28.7071 25.7071C28.5196 25.8946 28.2652 26 28 26C27.7348 26 27.4804 25.8946 27.2929 25.7071C27.1054 25.5196 27 25.2652 27 25V7C27 6.73478 27.1054 6.48043 27.2929 6.29289C27.4804 6.10536 27.7348 6 28 6C28.2652 6 28.5196 6.10536 28.7071 6.29289C28.8946 6.48043 29 6.73478 29 7ZM23 10H4C3.46957 10 2.96086 10.2107 2.58579 10.5858C2.21071 10.9609 2 11.4696 2 12V20C2 20.5304 2.21071 21.0391 2.58579 21.4142C2.96086 21.7893 3.46957 22 4 22H23C23.5304 22 24.0391 21.7893 24.4142 21.4142C24.7893 21.0391 25 20.5304 25 20V12C25 11.4696 24.7893 10.9609 24.4142 10.5858C24.0391 10.2107 23.5304 10 23 10Z" fill="white"/>
<path d="M69.5 7V25C69.5 25.3978 69.342 25.7794 69.0607 26.0607C68.7794 26.342 68.3978 26.5 68 26.5C67.6022 26.5 67.2206 26.342 66.9393 26.0607C66.658 25.7794 66.5 25.3978 66.5 25V7C66.5 6.60218 66.658 6.22064 66.9393 5.93934C67.2206 5.65804 67.6022 5.5 68 5.5C68.3978 5.5 68.7794 5.65804 69.0607 5.93934C69.342 6.22064 69.5 6.60218 69.5 7ZM64.5 12V20C64.5 20.663 64.2366 21.2989 63.7678 21.7678C63.2989 22.2366 62.663 22.5 62 22.5H44C43.337 22.5 42.7011 22.2366 42.2322 21.7678C41.7634 21.2989 41.5 20.663 41.5 20V12C41.5 11.337 41.7634 10.7011 42.2322 10.2322C42.7011 9.76339 43.337 9.5 44 9.5H62C62.663 9.5 63.2989 9.76339 63.7678 10.2322C64.2366 10.7011 64.5 11.337 64.5 12ZM61.5 12.5H44.5V19.5H61.5V12.5Z" fill="white"/>
</g>
<defs>
<clipPath id="clip0_27_5097">
<rect width="72" height="32" rx="5" fill="white"/>
</clipPath>
</defs>
</svg>
