<svg width="72" height="32" viewBox="0 0 72 32" fill="none" xmlns="http://www.w3.org/2000/svg">
<g clip-path="url(#clip0_27_5092)">
<path d="M28 5V27C28 27.2652 27.8946 27.5196 27.7071 27.7071C27.5196 27.8946 27.2652 28 27 28C26.7348 28 26.4804 27.8946 26.2929 27.7071C26.1054 27.5196 26 27.2652 26 27V5C26 4.73478 26.1054 4.48043 26.2929 4.29289C26.4804 4.10536 26.7348 4 27 4C27.2652 4 27.5196 4.10536 27.7071 4.29289C27.8946 4.48043 28 4.73478 28 5ZM22 6H10C9.46957 6 8.96086 6.21071 8.58579 6.58579C8.21071 6.96086 8 7.46957 8 8V13C8 13.5304 8.21071 14.0391 8.58579 14.4142C8.96086 14.7893 9.46957 15 10 15H22C22.5304 15 23.0391 14.7893 23.4142 14.4142C23.7893 14.0391 24 13.5304 24 13V8C24 7.46957 23.7893 6.96086 23.4142 6.58579C23.0391 6.21071 22.5304 6 22 6ZM22 17H5C4.46957 17 3.96086 17.2107 3.58579 17.5858C3.21071 17.9609 3 18.4696 3 19V24C3 24.5304 3.21071 25.0391 3.58579 25.4142C3.96086 25.7893 4.46957 26 5 26H22C22.5304 26 23.0391 25.7893 23.4142 25.4142C23.7893 25.0391 24 24.5304 24 24V19C24 18.4696 23.7893 17.9609 23.4142 17.5858C23.0391 17.2107 22.5304 17 22 17Z" fill="white"/>
<path d="M68.5 5V27C68.5 27.3978 68.342 27.7794 68.0607 28.0607C67.7794 28.342 67.3978 28.5 67 28.5C66.6022 28.5 66.2206 28.342 65.9393 28.0607C65.658 27.7794 65.5 27.3978 65.5 27V5C65.5 4.60218 65.658 4.22064 65.9393 3.93934C66.2206 3.65804 66.6022 3.5 67 3.5C67.3978 3.5 67.7794 3.65804 68.0607 3.93934C68.342 4.22064 68.5 4.60218 68.5 5ZM63.5 8V12.5C63.5 13.163 63.2366 13.7989 62.7678 14.2678C62.2989 14.7366 61.663 15 61 15H50C49.337 15 48.7011 14.7366 48.2322 14.2678C47.7634 13.7989 47.5 13.163 47.5 12.5V8C47.5 7.33696 47.7634 6.70107 48.2322 6.23223C48.7011 5.76339 49.337 5.5 50 5.5H61C61.663 5.5 62.2989 5.76339 62.7678 6.23223C63.2366 6.70107 63.5 7.33696 63.5 8ZM60.5 8.5H50.5V12H60.5V8.5ZM63.5 19.5V24C63.5 24.663 63.2366 25.2989 62.7678 25.7678C62.2989 26.2366 61.663 26.5 61 26.5H45C44.337 26.5 43.7011 26.2366 43.2322 25.7678C42.7634 25.2989 42.5 24.663 42.5 24V19.5C42.5 18.837 42.7634 18.2011 43.2322 17.7322C43.7011 17.2634 44.337 17 45 17H61C61.663 17 62.2989 17.2634 62.7678 17.7322C63.2366 18.2011 63.5 18.837 63.5 19.5ZM60.5 20H45.5V23.5H60.5V20Z" fill="white"/>
</g>
<defs>
<clipPath id="clip0_27_5092">
<rect width="72" height="32" rx="5" fill="white"/>
</clipPath>
</defs>
</svg>
