<svg width="72" height="32" viewBox="0 0 72 32" fill="none" xmlns="http://www.w3.org/2000/svg">
<g clip-path="url(#clip0_27_5077)">
<path d="M27 16C27 16.2652 26.8946 16.5196 26.7071 16.7071C26.5196 16.8946 26.2652 17 26 17H22V26C22 26.5304 21.7893 27.0391 21.4142 27.4142C21.0391 27.7893 20.5304 28 20 28H12C11.4696 28 10.9609 27.7893 10.5858 27.4142C10.2107 27.0391 10 26.5304 10 26V17H6C5.73478 17 5.48043 16.8946 5.29289 16.7071C5.10536 16.5196 5 16.2652 5 16C5 15.7348 5.10536 15.4804 5.29289 15.2929C5.48043 15.1054 5.73478 15 6 15H10V6C10 5.46957 10.2107 4.96086 10.5858 4.58579C10.9609 4.21071 11.4696 4 12 4H20C20.5304 4 21.0391 4.21071 21.4142 4.58579C21.7893 4.96086 22 5.46957 22 6V15H26C26.2652 15 26.5196 15.1054 26.7071 15.2929C26.8946 15.4804 27 15.7348 27 16Z" fill="white"/>
<path d="M66 14.5H62.5V6C62.5 5.33696 62.2366 4.70107 61.7678 4.23223C61.2989 3.76339 60.663 3.5 60 3.5H52C51.337 3.5 50.7011 3.76339 50.2322 4.23223C49.7634 4.70107 49.5 5.33696 49.5 6V14.5H46C45.6022 14.5 45.2206 14.658 44.9393 14.9393C44.658 15.2206 44.5 15.6022 44.5 16C44.5 16.3978 44.658 16.7794 44.9393 17.0607C45.2206 17.342 45.6022 17.5 46 17.5H49.5V26C49.5 26.663 49.7634 27.2989 50.2322 27.7678C50.7011 28.2366 51.337 28.5 52 28.5H60C60.663 28.5 61.2989 28.2366 61.7678 27.7678C62.2366 27.2989 62.5 26.663 62.5 26V17.5H66C66.3978 17.5 66.7794 17.342 67.0607 17.0607C67.342 16.7794 67.5 16.3978 67.5 16C67.5 15.6022 67.342 15.2206 67.0607 14.9393C66.7794 14.658 66.3978 14.5 66 14.5ZM59.5 25.5H52.5V6.5H59.5V25.5Z" fill="white"/>
</g>
<defs>
<clipPath id="clip0_27_5077">
<rect width="72" height="32" rx="5" fill="white"/>
</clipPath>
</defs>
</svg>
