<svg width="72" height="32" viewBox="0 0 72 32" fill="none" xmlns="http://www.w3.org/2000/svg">
<g clip-path="url(#clip0_27_5087)">
<path d="M5 7V25C5 25.2652 4.89464 25.5196 4.70711 25.7071C4.51957 25.8946 4.26522 26 4 26C3.73478 26 3.48043 25.8946 3.29289 25.7071C3.10536 25.5196 3 25.2652 3 25V7C3 6.73478 3.10536 6.48043 3.29289 6.29289C3.48043 6.10536 3.73478 6 4 6C4.26522 6 4.51957 6.10536 4.70711 6.29289C4.89464 6.48043 5 6.73478 5 7ZM28 10H9C8.46957 10 7.96086 10.2107 7.58579 10.5858C7.21071 10.9609 7 11.4696 7 12V20C7 20.5304 7.21071 21.0391 7.58579 21.4142C7.96086 21.7893 8.46957 22 9 22H28C28.5304 22 29.0391 21.7893 29.4142 21.4142C29.7893 21.0391 30 20.5304 30 20V12C30 11.4696 29.7893 10.9609 29.4142 10.5858C29.0391 10.2107 28.5304 10 28 10Z" fill="white"/>
<path d="M45.5 7V25C45.5 25.3978 45.342 25.7794 45.0607 26.0607C44.7794 26.342 44.3978 26.5 44 26.5C43.6022 26.5 43.2206 26.342 42.9393 26.0607C42.658 25.7794 42.5 25.3978 42.5 25V7C42.5 6.60218 42.658 6.22064 42.9393 5.93934C43.2206 5.65804 43.6022 5.5 44 5.5C44.3978 5.5 44.7794 5.65804 45.0607 5.93934C45.342 6.22064 45.5 6.60218 45.5 7ZM70.5 12V20C70.5 20.663 70.2366 21.2989 69.7678 21.7678C69.2989 22.2366 68.663 22.5 68 22.5H50C49.337 22.5 48.7011 22.2366 48.2322 21.7678C47.7634 21.2989 47.5 20.663 47.5 20V12C47.5 11.337 47.7634 10.7011 48.2322 10.2322C48.7011 9.76339 49.337 9.5 50 9.5H68C68.663 9.5 69.2989 9.76339 69.7678 10.2322C70.2366 10.7011 70.5 11.337 70.5 12ZM67.5 12.5H50.5V19.5H67.5V12.5Z" fill="white"/>
</g>
<defs>
<clipPath id="clip0_27_5087">
<rect width="72" height="32" rx="5" fill="white"/>
</clipPath>
</defs>
</svg>
