<svg width="72" height="32" viewBox="0 0 72 32" fill="none" xmlns="http://www.w3.org/2000/svg">
<g clip-path="url(#clip0_27_5102)">
<path d="M28 5C28 5.26522 27.8946 5.51957 27.7071 5.70711C27.5196 5.89464 27.2652 6 27 6H5C4.73478 6 4.48043 5.89464 4.29289 5.70711C4.10536 5.51957 4 5.26522 4 5C4 4.73478 4.10536 4.48043 4.29289 4.29289C4.48043 4.10536 4.73478 4 5 4H27C27.2652 4 27.5196 4.10536 27.7071 4.29289C27.8946 4.48043 28 4.73478 28 5ZM24 8H19C18.4696 8 17.9609 8.21071 17.5858 8.58579C17.2107 8.96086 17 9.46957 17 10V22C17 22.5304 17.2107 23.0391 17.5858 23.4142C17.9609 23.7893 18.4696 24 19 24H24C24.5304 24 25.0391 23.7893 25.4142 23.4142C25.7893 23.0391 26 22.5304 26 22V10C26 9.46957 25.7893 8.96086 25.4142 8.58579C25.0391 8.21071 24.5304 8 24 8ZM13 8H8C7.46957 8 6.96086 8.21071 6.58579 8.58579C6.21071 8.96086 6 9.46957 6 10V27C6 27.5304 6.21071 28.0391 6.58579 28.4142C6.96086 28.7893 7.46957 29 8 29H13C13.5304 29 14.0391 28.7893 14.4142 28.4142C14.7893 28.0391 15 27.5304 15 27V10C15 9.46957 14.7893 8.96086 14.4142 8.58579C14.0391 8.21071 13.5304 8 13 8Z" fill="white"/>
<path d="M68.5 5C68.5 5.39782 68.342 5.77936 68.0607 6.06066C67.7794 6.34196 67.3978 6.5 67 6.5H45C44.6022 6.5 44.2206 6.34196 43.9393 6.06066C43.658 5.77936 43.5 5.39782 43.5 5C43.5 4.60218 43.658 4.22064 43.9393 3.93934C44.2206 3.65804 44.6022 3.5 45 3.5H67C67.3978 3.5 67.7794 3.65804 68.0607 3.93934C68.342 4.22064 68.5 4.60218 68.5 5ZM66.5 11V22C66.5 22.663 66.2366 23.2989 65.7678 23.7678C65.2989 24.2366 64.663 24.5 64 24.5H59.5C58.837 24.5 58.2011 24.2366 57.7322 23.7678C57.2634 23.2989 57 22.663 57 22V11C57 10.337 57.2634 9.70107 57.7322 9.23223C58.2011 8.76339 58.837 8.5 59.5 8.5H64C64.663 8.5 65.2989 8.76339 65.7678 9.23223C66.2366 9.70107 66.5 10.337 66.5 11ZM63.5 11.5H60V21.5H63.5V11.5ZM55 11V27C55 27.663 54.7366 28.2989 54.2678 28.7678C53.7989 29.2366 53.163 29.5 52.5 29.5H48C47.337 29.5 46.7011 29.2366 46.2322 28.7678C45.7634 28.2989 45.5 27.663 45.5 27V11C45.5 10.337 45.7634 9.70107 46.2322 9.23223C46.7011 8.76339 47.337 8.5 48 8.5H52.5C53.163 8.5 53.7989 8.76339 54.2678 9.23223C54.7366 9.70107 55 10.337 55 11ZM52 11.5H48.5V26.5H52V11.5Z" fill="white"/>
</g>
<defs>
<clipPath id="clip0_27_5102">
<rect width="72" height="32" rx="5" fill="white"/>
</clipPath>
</defs>
</svg>
