<svg width="72" height="32" viewBox="0 0 72 32" fill="none" xmlns="http://www.w3.org/2000/svg">
<g clip-path="url(#clip0_27_34)">
<path d="M19 17C19 17.5933 18.8241 18.1734 18.4944 18.6667C18.1648 19.1601 17.6962 19.5446 17.148 19.7716C16.5999 19.9987 15.9967 20.0581 15.4147 19.9424C14.8328 19.8266 14.2982 19.5409 13.8787 19.1213C13.4591 18.7018 13.1734 18.1672 13.0576 17.5853C12.9419 17.0033 13.0013 16.4001 13.2284 15.8519C13.4554 15.3038 13.8399 14.8352 14.3333 14.5056C14.8266 14.1759 15.4067 14 16 14C16.7956 14 17.5587 14.3161 18.1213 14.8787C18.6839 15.4413 19 16.2044 19 17ZM29 16C29 18.5712 28.2376 21.0846 26.8091 23.2224C25.3806 25.3603 23.3503 27.0265 20.9749 28.0104C18.5994 28.9944 15.9856 29.2518 13.4638 28.7502C10.9421 28.2486 8.62569 27.0105 6.80761 25.1924C4.98953 23.3743 3.7514 21.0579 3.24979 18.5362C2.74818 16.0144 3.00563 13.4006 3.98956 11.0251C4.9735 8.64968 6.63975 6.61935 8.77759 5.1909C10.9154 3.76244 13.4288 3 16 3C19.4467 3.00364 22.7512 4.37445 25.1884 6.81163C27.6255 9.24882 28.9964 12.5533 29 16ZM19 13C18.2572 12.4429 17.3738 12.1036 16.449 12.0202C15.5242 11.9368 14.5945 12.1126 13.7639 12.5279C12.9334 12.9431 12.2349 13.5815 11.7467 14.3713C11.2586 15.1612 11 16.0714 11 17C11 17.9286 11.2586 18.8388 11.7467 19.6287C12.2349 20.4185 12.9334 21.0569 13.7639 21.4721C14.5945 21.8874 15.5242 22.0632 16.449 21.9798C17.3738 21.8964 18.2572 21.5571 19 21C19 21.2652 19.1054 21.5196 19.2929 21.7071C19.4804 21.8946 19.7348 22 20 22C20.2652 22 20.5196 21.8946 20.7071 21.7071C20.8946 21.5196 21 21.2652 21 21V13C21.0003 11.9152 20.6477 10.8597 19.9956 9.99285C19.3434 9.12596 18.4271 8.49468 17.3847 8.19426C16.3423 7.89384 15.2305 7.94058 14.217 8.32741C13.2035 8.71424 12.3434 9.42019 11.7662 10.3387C11.6305 10.5631 11.5883 10.8317 11.6487 11.0869C11.7091 11.342 11.8673 11.5632 12.0892 11.7029C12.3111 11.8425 12.579 11.8894 12.8352 11.8334C13.0913 11.7775 13.3153 11.6232 13.4587 11.4038C13.8048 10.8522 14.3209 10.4282 14.9292 10.1958C15.5374 9.96334 16.2047 9.93511 16.8304 10.1154C17.4561 10.2956 18.0062 10.6745 18.3976 11.1949C18.789 11.7153 19.0004 12.3489 19 13ZM24.6012 21.2013C24.3894 21.0419 24.1229 20.9731 23.8604 21.0102C23.5978 21.0472 23.3608 21.187 23.2012 21.3988C22.363 22.517 21.2758 23.4246 20.0259 24.0498C18.7759 24.6749 17.3976 25.0004 16 25.0004C14.6024 25.0004 13.2241 24.6749 11.9741 24.0498C10.7242 23.4246 9.63702 22.517 8.79875 21.3988C8.72104 21.2906 8.62249 21.199 8.50891 21.1294C8.39532 21.0599 8.26899 21.0137 8.13731 20.9936C8.00563 20.9735 7.87127 20.98 7.74212 21.0125C7.61296 21.0451 7.49161 21.1031 7.38519 21.1832C7.27877 21.2633 7.18943 21.3639 7.12241 21.479C7.05539 21.5941 7.01204 21.7215 6.9949 21.8535C6.97777 21.9856 6.98719 22.1198 7.02263 22.2482C7.05806 22.3766 7.11879 22.4966 7.20125 22.6012C8.22591 23.9669 9.55441 25.0753 11.0816 25.8387C12.6087 26.6022 14.2927 26.9996 16 26.9996C17.7073 26.9996 19.3913 26.6022 20.9184 25.8387C22.4456 25.0753 23.7741 23.9669 24.7987 22.6012C24.9581 22.3894 25.0269 22.1229 24.9898 21.8604C24.9528 21.5978 24.813 21.3608 24.6012 21.2013Z" fill="white"/>
<path d="M71.5 21V25C71.5 25.3978 71.342 25.7794 71.0607 26.0607C70.7793 26.342 70.3978 26.5 70 26.5C69.6022 26.5 69.2206 26.342 68.9393 26.0607C68.658 25.7794 68.5 25.3978 68.5 25V24.6138C66.945 26.0513 62.5312 29.5 56 29.5C47.925 29.5 43.0875 24.2275 42.885 24C42.7407 23.8559 42.6273 23.6839 42.5518 23.4945C42.4762 23.3051 42.4401 23.1023 42.4456 22.8984C42.4511 22.6946 42.498 22.494 42.5837 22.3089C42.6693 22.1239 42.7917 21.9582 42.9435 21.822C43.0953 21.6859 43.2733 21.5821 43.4666 21.5171C43.6598 21.452 43.8643 21.4271 44.0676 21.4437C44.2708 21.4604 44.4685 21.5183 44.6486 21.614C44.8287 21.7096 44.9874 21.841 45.115 22C45.1525 22.0413 49.3 26.5 56 26.5C61.3312 26.5 65.0425 23.6775 66.3587 22.5H66C65.6022 22.5 65.2206 22.342 64.9393 22.0607C64.658 21.7794 64.5 21.3978 64.5 21C64.5 20.6022 64.658 20.2207 64.9393 19.9393C65.2206 19.658 65.6022 19.5 66 19.5H70C70.3978 19.5 70.7793 19.658 71.0607 19.9393C71.342 20.2207 71.5 20.6022 71.5 21ZM59.5 10.76V10.5C59.5003 9.63743 59.2217 8.79787 58.7058 8.10655C58.19 7.41523 57.4644 6.90918 56.6375 6.66389C55.8105 6.4186 54.9264 6.4472 54.117 6.74543C53.3076 7.04366 52.6163 7.59554 52.1462 8.31876C51.9291 8.6521 51.5884 8.88553 51.1992 8.96769C50.8099 9.04986 50.404 8.97403 50.0706 8.75688C49.7373 8.53973 49.5038 8.19906 49.4217 7.80981C49.3395 7.42055 49.4153 7.0146 49.6325 6.68126C50.4555 5.41623 51.6654 4.45107 53.0816 3.92967C54.4979 3.40827 56.0447 3.35855 57.4916 3.78793C58.9384 4.21731 60.2077 5.10279 61.1103 6.31236C62.0128 7.52193 62.5003 8.99081 62.5 10.5V22C62.4975 22.3765 62.3535 22.7382 62.0967 23.0134C61.8399 23.2887 61.4889 23.4572 61.1135 23.4857C60.7382 23.5142 60.3658 23.4005 60.0704 23.1672C59.7749 22.9339 59.578 22.598 59.5187 22.2263C58.471 22.9628 57.2413 23.3978 55.9635 23.4839C54.6856 23.5699 53.4087 23.3038 52.2716 22.7144C51.1346 22.125 50.181 21.235 49.5148 20.1412C48.8485 19.0475 48.4951 17.7919 48.493 16.5111C48.4909 15.2304 48.8402 13.9737 49.5029 12.8777C50.1656 11.7818 51.1162 10.8886 52.2513 10.2955C53.3865 9.70244 54.6625 9.43213 55.9406 9.51402C57.2187 9.59592 58.4499 10.0269 59.5 10.76ZM59.5 16.5C59.5 15.7089 59.2654 14.9355 58.8259 14.2777C58.3863 13.6199 57.7616 13.1072 57.0307 12.8045C56.2998 12.5017 55.4956 12.4225 54.7196 12.5769C53.9437 12.7312 53.231 13.1122 52.6716 13.6716C52.1122 14.231 51.7312 14.9437 51.5769 15.7196C51.4225 16.4956 51.5017 17.2998 51.8045 18.0307C52.1072 18.7616 52.6199 19.3864 53.2777 19.8259C53.9355 20.2654 54.7089 20.5 55.5 20.5C56.5609 20.5 57.5783 20.0786 58.3284 19.3284C59.0786 18.5783 59.5 17.5609 59.5 16.5Z" fill="white"/>
</g>
<defs>
<clipPath id="clip0_27_34">
<rect width="72" height="32" rx="5" fill="white"/>
</clipPath>
</defs>
</svg>
