<svg width="72" height="32" viewBox="0 0 72 32" fill="none" xmlns="http://www.w3.org/2000/svg">
<g clip-path="url(#clip0_27_4916)">
<path d="M31.9287 14.625L30.1787 10.25C30.0302 9.87964 29.7738 9.56245 29.4428 9.33956C29.1119 9.11668 28.7215 8.99838 28.3225 9H24V8C24 7.73478 23.8946 7.48043 23.7071 7.29289C23.5196 7.10536 23.2652 7 23 7H4C3.46957 7 2.96086 7.21071 2.58579 7.58579C2.21071 7.96086 2 8.46957 2 9V23C2 23.5304 2.21071 24.0391 2.58579 24.4142C2.96086 24.7893 3.46957 25 4 25H6.125C6.3453 25.8604 6.8457 26.623 7.54731 27.1676C8.24892 27.7122 9.11183 28.0078 10 28.0078C10.8882 28.0078 11.7511 27.7122 12.4527 27.1676C13.1543 26.623 13.6547 25.8604 13.875 25H20.125C20.3453 25.8604 20.8457 26.623 21.5473 27.1676C22.2489 27.7122 23.1118 28.0078 24 28.0078C24.8882 28.0078 25.7511 27.7122 26.4527 27.1676C27.1543 26.623 27.6547 25.8604 27.875 25H30C30.5304 25 31.0391 24.7893 31.4142 24.4142C31.7893 24.0391 32 23.5304 32 23V15C32.0008 14.8716 31.9766 14.7442 31.9287 14.625ZM10 26C9.60444 26 9.21776 25.8827 8.88886 25.6629C8.55996 25.4432 8.30362 25.1308 8.15224 24.7654C8.00087 24.3999 7.96126 23.9978 8.03843 23.6098C8.1156 23.2219 8.30608 22.8655 8.58579 22.5858C8.86549 22.3061 9.22186 22.1156 9.60982 22.0384C9.99778 21.9613 10.3999 22.0009 10.7654 22.1522C11.1308 22.3036 11.4432 22.56 11.6629 22.8889C11.8827 23.2178 12 23.6044 12 24C12 24.5304 11.7893 25.0391 11.4142 25.4142C11.0391 25.7893 10.5304 26 10 26ZM17 16H15V18C15 18.2652 14.8946 18.5196 14.7071 18.7071C14.5196 18.8946 14.2652 19 14 19C13.7348 19 13.4804 18.8946 13.2929 18.7071C13.1054 18.5196 13 18.2652 13 18V16H11C10.7348 16 10.4804 15.8946 10.2929 15.7071C10.1054 15.5196 10 15.2652 10 15C10 14.7348 10.1054 14.4804 10.2929 14.2929C10.4804 14.1054 10.7348 14 11 14H13V12C13 11.7348 13.1054 11.4804 13.2929 11.2929C13.4804 11.1054 13.7348 11 14 11C14.2652 11 14.5196 11.1054 14.7071 11.2929C14.8946 11.4804 15 11.7348 15 12V14H17C17.2652 14 17.5196 14.1054 17.7071 14.2929C17.8946 14.4804 18 14.7348 18 15C18 15.2652 17.8946 15.5196 17.7071 15.7071C17.5196 15.8946 17.2652 16 17 16ZM24 26C23.6044 26 23.2178 25.8827 22.8889 25.6629C22.56 25.4432 22.3036 25.1308 22.1522 24.7654C22.0009 24.3999 21.9613 23.9978 22.0384 23.6098C22.1156 23.2219 22.3061 22.8655 22.5858 22.5858C22.8655 22.3061 23.2219 22.1156 23.6098 22.0384C23.9978 21.9613 24.3999 22.0009 24.7654 22.1522C25.1308 22.3036 25.4432 22.56 25.6629 22.8889C25.8827 23.2178 26 23.6044 26 24C26 24.5304 25.7893 25.0391 25.4142 25.4142C25.0391 25.7893 24.5304 26 24 26ZM24 14V11H28.3225L29.5225 14H24Z" fill="white"/>
<path d="M50 15C50 14.6022 50.158 14.2206 50.4393 13.9393C50.7206 13.658 51.1022 13.5 51.5 13.5H52.5V12.5C52.5 12.1022 52.658 11.7206 52.9393 11.4393C53.2206 11.158 53.6022 11 54 11C54.3978 11 54.7794 11.158 55.0607 11.4393C55.342 11.7206 55.5 12.1022 55.5 12.5V13.5H56.5C56.8978 13.5 57.2794 13.658 57.5607 13.9393C57.842 14.2206 58 14.6022 58 15C58 15.3978 57.842 15.7794 57.5607 16.0607C57.2794 16.342 56.8978 16.5 56.5 16.5H55.5V17.5C55.5 17.8978 55.342 18.2794 55.0607 18.5607C54.7794 18.842 54.3978 19 54 19C53.6022 19 53.2206 18.842 52.9393 18.5607C52.658 18.2794 52.5 17.8978 52.5 17.5V16.5H51.5C51.1022 16.5 50.7206 16.342 50.4393 16.0607C50.158 15.7794 50 15.3978 50 15ZM72 15V23C72 23.663 71.7366 24.2989 71.2678 24.7678C70.7989 25.2366 70.163 25.5 69.5 25.5H68.2425C67.9323 26.3773 67.3577 27.1368 66.5979 27.674C65.8381 28.2111 64.9305 28.4996 64 28.4996C63.0695 28.4996 62.1619 28.2111 61.4021 27.674C60.6423 27.1368 60.0677 26.3773 59.7575 25.5H54.2425C53.9323 26.3773 53.3577 27.1368 52.5979 27.674C51.8381 28.2111 50.9305 28.4996 50 28.4996C49.0695 28.4996 48.1619 28.2111 47.4021 27.674C46.6423 27.1368 46.0677 26.3773 45.7575 25.5H44C43.337 25.5 42.7011 25.2366 42.2322 24.7678C41.7634 24.2989 41.5 23.663 41.5 23V9C41.5 8.33696 41.7634 7.70107 42.2322 7.23223C42.7011 6.76339 43.337 6.5 44 6.5H63C63.3978 6.5 63.7794 6.65804 64.0607 6.93934C64.342 7.22064 64.5 7.60218 64.5 8V8.5H67.8225C68.3225 8.49826 68.8114 8.64725 69.2255 8.92754C69.6396 9.20782 69.9596 9.60639 70.1437 10.0712L71.8937 14.4462C71.9639 14.6225 71.9999 14.8104 72 15ZM64.5 11.5V13.5H68.285L67.485 11.5H64.5ZM44.5 22.5H45.7575C46.0677 21.6227 46.6423 20.8632 47.4021 20.326C48.1619 19.7889 49.0695 19.5004 50 19.5004C50.9305 19.5004 51.8381 19.7889 52.5979 20.326C53.3577 20.8632 53.9323 21.6227 54.2425 22.5H59.7575C60.084 21.5863 60.6947 20.8013 61.5 20.26V9.5H44.5V22.5ZM51.5 24C51.5 23.7033 51.412 23.4133 51.2472 23.1666C51.0824 22.92 50.8481 22.7277 50.574 22.6142C50.2999 22.5007 49.9983 22.4709 49.7074 22.5288C49.4164 22.5867 49.1491 22.7296 48.9393 22.9393C48.7296 23.1491 48.5867 23.4164 48.5288 23.7074C48.4709 23.9983 48.5006 24.2999 48.6142 24.574C48.7277 24.8481 48.92 25.0824 49.1666 25.2472C49.4133 25.412 49.7033 25.5 50 25.5C50.3978 25.5 50.7794 25.342 51.0607 25.0607C51.342 24.7794 51.5 24.3978 51.5 24ZM65.5 24C65.5 23.7033 65.412 23.4133 65.2472 23.1666C65.0824 22.92 64.8481 22.7277 64.574 22.6142C64.2999 22.5007 63.9983 22.4709 63.7074 22.5288C63.4164 22.5867 63.1491 22.7296 62.9393 22.9393C62.7296 23.1491 62.5867 23.4164 62.5288 23.7074C62.4709 23.9983 62.5007 24.2999 62.6142 24.574C62.7277 24.8481 62.92 25.0824 63.1666 25.2472C63.4133 25.412 63.7033 25.5 64 25.5C64.3978 25.5 64.7794 25.342 65.0607 25.0607C65.342 24.7794 65.5 24.3978 65.5 24ZM69 22.5V16.5H64.5V19.5287C65.3394 19.6239 66.1353 19.9528 66.797 20.4782C67.4586 21.0035 67.9595 21.704 68.2425 22.5H69Z" fill="white"/>
</g>
<defs>
<clipPath id="clip0_27_4916">
<rect width="72" height="32" rx="5" fill="white"/>
</clipPath>
</defs>
</svg>
