<svg width="72" height="32" viewBox="0 0 72 32" fill="none" xmlns="http://www.w3.org/2000/svg">
<g clip-path="url(#clip0_27_6465)">
<path d="M29 15C29 18.4478 27.6304 21.7544 25.1924 24.1924C22.7544 26.6304 19.4478 28 16 28C12.5522 28 9.24558 26.6304 6.80761 24.1924C4.36964 21.7544 3 18.4478 3 15C3 14.7348 3.10536 14.4804 3.29289 14.2929C3.48043 14.1054 3.73478 14 4 14H7C7.26522 14 7.51957 14.1054 7.70711 14.2929C7.89464 14.4804 8 14.7348 8 15C8 15.2652 7.89464 15.5196 7.70711 15.7071C7.51957 15.8946 7.26522 16 7 16H5.045C5.28252 18.5599 6.40768 20.9561 8.22568 22.7739C10.0437 24.5917 12.4401 25.7166 15 25.9538V11.3538C14.1943 11.1135 13.5021 10.5914 13.0497 9.88271C12.5974 9.17405 12.4153 8.32626 12.5367 7.49436C12.658 6.66245 13.0748 5.90203 13.7107 5.35215C14.3467 4.80226 15.1593 4.49965 16 4.49965C16.8407 4.49965 17.6533 4.80226 18.2893 5.35215C18.9252 5.90203 19.342 6.66245 19.4633 7.49436C19.5847 8.32626 19.4026 9.17405 18.9503 9.88271C18.4979 10.5914 17.8057 11.1135 17 11.3538V25.9538C19.5599 25.7166 21.9563 24.5917 23.7743 22.7739C25.5923 20.9561 26.7175 18.5599 26.955 16H25C24.7348 16 24.4804 15.8946 24.2929 15.7071C24.1054 15.5196 24 15.2652 24 15C24 14.7348 24.1054 14.4804 24.2929 14.2929C24.4804 14.1054 24.7348 14 25 14H28C28.2652 14 28.5196 14.1054 28.7071 14.2929C28.8946 14.4804 29 14.7348 29 15Z" fill="white"/>
<path d="M68 13.5H65C64.6022 13.5 64.2206 13.658 63.9393 13.9393C63.658 14.2206 63.5 14.6022 63.5 15C63.5 15.3978 63.658 15.7794 63.9393 16.0607C64.2206 16.342 64.6022 16.5 65 16.5H66.3937C66.0659 18.742 65.0233 20.8184 63.4209 22.4205C61.8186 24.0226 59.7421 25.0649 57.5 25.3925V12.2425C58.5008 11.8887 59.3443 11.1924 59.8814 10.2768C60.4186 9.36117 60.6147 8.28515 60.4352 7.2389C60.2557 6.19266 59.7121 5.24356 58.9005 4.55935C58.0889 3.87513 57.0615 3.49986 56 3.49986C54.9385 3.49986 53.9111 3.87513 53.0995 4.55935C52.2879 5.24356 51.7443 6.19266 51.5648 7.2389C51.3853 8.28515 51.5814 9.36117 52.1186 10.2768C52.6557 11.1924 53.4992 11.8887 54.5 12.2425V25.3925C52.2579 25.0649 50.1814 24.0226 48.5791 22.4205C46.9767 20.8184 45.9341 18.742 45.6062 16.5H47C47.3978 16.5 47.7794 16.342 48.0607 16.0607C48.342 15.7794 48.5 15.3978 48.5 15C48.5 14.6022 48.342 14.2206 48.0607 13.9393C47.7794 13.658 47.3978 13.5 47 13.5H44C43.6022 13.5 43.2206 13.658 42.9393 13.9393C42.658 14.2206 42.5 14.6022 42.5 15C42.5 18.5804 43.9223 22.0142 46.4541 24.5459C48.9858 27.0777 52.4196 28.5 56 28.5C59.5804 28.5 63.0142 27.0777 65.5459 24.5459C68.0777 22.0142 69.5 18.5804 69.5 15C69.5 14.6022 69.342 14.2206 69.0607 13.9393C68.7794 13.658 68.3978 13.5 68 13.5ZM56 6.5C56.2967 6.5 56.5867 6.58798 56.8334 6.7528C57.08 6.91762 57.2723 7.15189 57.3858 7.42598C57.4993 7.70007 57.5291 8.00167 57.4712 8.29264C57.4133 8.58361 57.2704 8.85088 57.0607 9.06066C56.8509 9.27044 56.5836 9.4133 56.2926 9.47118C56.0017 9.52906 55.7001 9.49935 55.426 9.38582C55.1519 9.27229 54.9176 9.08003 54.7528 8.83336C54.588 8.58668 54.5 8.29668 54.5 8C54.5 7.60218 54.658 7.22065 54.9393 6.93934C55.2206 6.65804 55.6022 6.5 56 6.5Z" fill="white"/>
</g>
<defs>
<clipPath id="clip0_27_6465">
<rect width="72" height="32" rx="5" fill="white"/>
</clipPath>
</defs>
</svg>
