<svg width="72" height="32" viewBox="0 0 72 32" fill="none" xmlns="http://www.w3.org/2000/svg">
<g clip-path="url(#clip0_27_39)">
<path d="M25.8825 10.0838C25.79 9.99126 25.6963 9.90126 25.6025 9.81251L28.7075 6.70751C28.8004 6.6146 28.8741 6.5043 28.9244 6.3829C28.9747 6.26151 29.0006 6.1314 29.0006 6.00001C29.0006 5.86861 28.9747 5.7385 28.9244 5.61711C28.8741 5.49572 28.8004 5.38542 28.7075 5.29251C28.6146 5.1996 28.5043 5.1259 28.3829 5.07561C28.2615 5.02533 28.1314 4.99945 28 4.99945C27.8686 4.99945 27.7385 5.02533 27.6171 5.07561C27.4957 5.1259 27.3854 5.1996 27.2925 5.29251L24.0425 8.54251C21.6897 6.8863 18.8817 5.99938 16.0044 6.00363C13.1271 6.00788 10.3217 6.9031 7.97376 8.56626L4.70751 5.29251C4.51987 5.10487 4.26537 4.99945 4.00001 4.99945C3.73464 4.99945 3.48015 5.10487 3.29251 5.29251C3.10487 5.48015 2.99945 5.73464 2.99945 6.00001C2.99945 6.26537 3.10487 6.51987 3.29251 6.70751L6.42501 9.84001C5.02562 11.1659 3.91143 12.7632 3.15058 14.5345C2.38973 16.3057 1.99822 18.2135 2.00001 20.1413V23C2.00001 23.5304 2.21072 24.0391 2.58579 24.4142C2.96087 24.7893 3.46957 25 4.00001 25H28C28.5304 25 29.0391 24.7893 29.4142 24.4142C29.7893 24.0391 30 23.5304 30 23V20C30.0051 18.1567 29.6438 16.3308 28.9369 14.6285C28.23 12.9261 27.1918 11.3813 25.8825 10.0838ZM11.5 20C11.2033 20 10.9133 19.912 10.6667 19.7472C10.42 19.5824 10.2277 19.3481 10.1142 19.074C10.0007 18.7999 9.97095 18.4983 10.0288 18.2074C10.0867 17.9164 10.2296 17.6491 10.4393 17.4393C10.6491 17.2296 10.9164 17.0867 11.2074 17.0288C11.4983 16.971 11.7999 17.0007 12.074 17.1142C12.3481 17.2277 12.5824 17.42 12.7472 17.6667C12.912 17.9133 13 18.2033 13 18.5C13 18.8978 12.842 19.2794 12.5607 19.5607C12.2794 19.842 11.8978 20 11.5 20ZM20.5 20C20.2033 20 19.9133 19.912 19.6667 19.7472C19.42 19.5824 19.2277 19.3481 19.1142 19.074C19.0007 18.7999 18.9709 18.4983 19.0288 18.2074C19.0867 17.9164 19.2296 17.6491 19.4393 17.4393C19.6491 17.2296 19.9164 17.0867 20.2074 17.0288C20.4983 16.971 20.7999 17.0007 21.074 17.1142C21.3481 17.2277 21.5824 17.42 21.7472 17.6667C21.912 17.9133 22 18.2033 22 18.5C22 18.8978 21.842 19.2794 21.5607 19.5607C21.2794 19.842 20.8978 20 20.5 20Z" fill="white"/>
<path d="M62.5 18.5C62.5 18.8956 62.3827 19.2822 62.1629 19.6111C61.9432 19.94 61.6308 20.1964 61.2654 20.3478C60.8999 20.4991 60.4978 20.5387 60.1098 20.4616C59.7219 20.3844 59.3655 20.1939 59.0858 19.9142C58.8061 19.6345 58.6156 19.2781 58.5384 18.8902C58.4613 18.5022 58.5009 18.1001 58.6522 17.7346C58.8036 17.3692 59.06 17.0568 59.3889 16.8371C59.7178 16.6173 60.1044 16.5 60.5 16.5C61.0304 16.5 61.5391 16.7107 61.9142 17.0858C62.2893 17.4609 62.5 17.9696 62.5 18.5ZM51.5 16.5C51.1044 16.5 50.7178 16.6173 50.3889 16.8371C50.06 17.0568 49.8036 17.3692 49.6522 17.7346C49.5009 18.1001 49.4613 18.5022 49.5384 18.8902C49.6156 19.2781 49.8061 19.6345 50.0858 19.9142C50.3655 20.1939 50.7219 20.3844 51.1098 20.4616C51.4978 20.5387 51.8999 20.4991 52.2654 20.3478C52.6308 20.1964 52.9432 19.94 53.1629 19.6111C53.3827 19.2822 53.5 18.8956 53.5 18.5C53.5 17.9696 53.2893 17.4609 52.9142 17.0858C52.5391 16.7107 52.0304 16.5 51.5 16.5ZM70.5 20V23C70.5 23.663 70.2366 24.2989 69.7678 24.7678C69.2989 25.2366 68.663 25.5 68 25.5H44C43.337 25.5 42.7011 25.2366 42.2322 24.7678C41.7634 24.2989 41.5 23.663 41.5 23V20.1413C41.4962 16.2858 43.0104 12.5839 45.715 9.83626L42.9388 7.06126C42.657 6.77946 42.4987 6.39727 42.4987 5.99876C42.4987 5.80143 42.5375 5.60604 42.613 5.42374C42.6885 5.24143 42.7992 5.07579 42.9388 4.93626C43.0783 4.79673 43.2439 4.68605 43.4262 4.61053C43.6085 4.53502 43.8039 4.49615 44.0013 4.49615C44.3998 4.49615 44.782 4.65446 45.0638 4.93626L48.0375 7.91626C50.3788 6.34871 53.1312 5.50808 55.9488 5.50001H56C58.8398 5.49222 61.6185 6.32464 63.9863 7.89251L66.9388 4.93876C67.0783 4.79923 67.2439 4.68855 67.4262 4.61303C67.6085 4.53752 67.8039 4.49865 68.0013 4.49865C68.1986 4.49865 68.394 4.53752 68.5763 4.61303C68.7586 4.68855 68.9242 4.79923 69.0638 4.93876C69.2033 5.07829 69.314 5.24393 69.3895 5.42624C69.465 5.60854 69.5039 5.80393 69.5039 6.00126C69.5039 6.19858 69.465 6.39397 69.3895 6.57628C69.314 6.75858 69.2033 6.92423 69.0638 7.06376L66.3138 9.81376C69.004 12.5202 70.5097 16.184 70.5 20ZM67.5 20C67.5 18.4863 67.2012 16.9875 66.6207 15.5896C66.0402 14.1917 65.1894 12.9221 64.1172 11.8537C63.0449 10.7852 61.7723 9.93902 60.3723 9.36352C58.9723 8.78803 57.4724 8.49458 55.9588 8.50001C49.64 8.52251 44.5 13.75 44.5 20.1413V22.5H67.5V20Z" fill="white"/>
</g>
<defs>
<clipPath id="clip0_27_39">
<rect width="72" height="32" rx="5" fill="white"/>
</clipPath>
</defs>
</svg>
