<svg width="72" height="32" viewBox="0 0 72 32" fill="none" xmlns="http://www.w3.org/2000/svg">
<g clip-path="url(#clip0_27_44)">
<path d="M16 13.0588L17.6338 16H14.3663L16 13.0588ZM28.9913 9.1325L26.9913 24.1325C26.9697 24.2943 26.9089 24.4484 26.8142 24.5813C26.7194 24.7143 26.5935 24.8219 26.4475 24.895L16.4475 29.895C16.3086 29.9645 16.1554 30.0007 16 30.0007C15.8447 30.0007 15.6914 29.9645 15.5525 29.895L5.55251 24.895C5.40652 24.8219 5.28064 24.7143 5.18586 24.5813C5.09108 24.4484 5.03027 24.2943 5.00876 24.1325L3.00876 9.1325C2.97971 8.91445 3.02336 8.69291 3.13296 8.50218C3.24256 8.31146 3.41199 8.16219 3.61501 8.0775L15.615 3.0775C15.7369 3.02614 15.8678 2.99968 16 2.99968C16.1323 2.99968 16.2632 3.02614 16.385 3.0775L28.385 8.0775C28.588 8.16219 28.7575 8.31146 28.8671 8.50218C28.9767 8.69291 29.0203 8.91445 28.9913 9.1325ZM21.875 19.515L16.875 10.515C16.7885 10.3587 16.6618 10.2284 16.5079 10.1377C16.354 10.047 16.1786 9.99912 16 9.99912C15.8214 9.99912 15.646 10.047 15.4921 10.1377C15.3383 10.2284 15.2115 10.3587 15.125 10.515L10.125 19.515C10.0613 19.6299 10.0209 19.7562 10.006 19.8868C9.99115 20.0173 10.0021 20.1495 10.0383 20.2758C10.0746 20.4021 10.1353 20.52 10.2171 20.6228C10.2989 20.7256 10.4001 20.8113 10.515 20.875C10.6299 20.9387 10.7562 20.9791 10.8868 20.994C11.0173 21.0089 11.1495 20.9979 11.2758 20.9617C11.4021 20.9255 11.52 20.8647 11.6228 20.7829C11.7256 20.7011 11.8113 20.5999 11.875 20.485L13.25 18H18.75L20.125 20.485C20.1887 20.5999 20.2744 20.7011 20.3772 20.7829C20.48 20.8647 20.598 20.9255 20.7242 20.9617C20.8505 20.9979 20.9827 21.0089 21.1132 20.994C21.2438 20.9791 21.3701 20.9387 21.485 20.875C21.5999 20.8113 21.7012 20.7256 21.7829 20.6228C21.8647 20.52 21.9255 20.4021 21.9617 20.2758C21.9979 20.1495 22.0089 20.0173 21.994 19.8868C21.9791 19.7562 21.9387 19.6299 21.875 19.515Z" fill="white"/>
<path d="M68.5763 7.615L56.5763 2.615C56.3933 2.53867 56.197 2.49937 55.9988 2.49937C55.8005 2.49937 55.6042 2.53867 55.4213 2.615L43.4213 7.615C43.1164 7.74198 42.8619 7.96603 42.6974 8.25239C42.5329 8.53875 42.4674 8.87141 42.5113 9.19875L44.5113 24.1987C44.5436 24.4412 44.6348 24.6721 44.7769 24.8712C44.919 25.0703 45.1075 25.2317 45.3263 25.3412L55.3263 30.3412C55.5346 30.4455 55.7645 30.4998 55.9975 30.4998C56.2305 30.4998 56.4604 30.4455 56.6688 30.3412L66.6688 25.3412C66.8875 25.2317 67.0761 25.0703 67.2181 24.8712C67.3602 24.6721 67.4514 24.4412 67.4838 24.1987L69.4838 9.19875C69.5278 8.8717 69.4627 8.53927 69.2986 8.25295C69.1346 7.96663 68.8807 7.7424 68.5763 7.615ZM64.625 23.0138L56 27.3225L47.3813 23.0138L45.6388 9.9425L56 5.625L66.3613 9.9425L64.625 23.0138ZM54.6888 10.2712L49.6888 19.2712C49.5931 19.4436 49.5322 19.6331 49.5098 19.829C49.4873 20.0249 49.5037 20.2232 49.5579 20.4128C49.6121 20.6023 49.7031 20.7793 49.8257 20.9337C49.9483 21.0881 50.1001 21.2168 50.2725 21.3125C50.4449 21.4082 50.6344 21.469 50.8302 21.4915C51.0261 21.5139 51.2245 21.4976 51.414 21.4434C51.6036 21.3892 51.7806 21.2982 51.935 21.1755C52.0893 21.0529 52.2181 20.9011 52.3138 20.7288L53.2713 19H58.7288L59.6888 20.7288C59.882 21.0768 60.2057 21.3339 60.5885 21.4434C60.9713 21.5529 61.3819 21.5058 61.73 21.3125C62.0781 21.1192 62.3352 20.7956 62.4446 20.4128C62.5541 20.03 62.507 19.6193 62.3138 19.2712L57.3138 10.2712C57.184 10.0368 56.9939 9.84137 56.7631 9.70529C56.5323 9.56921 56.2692 9.49743 56.0013 9.49743C55.7333 9.49743 55.4703 9.56921 55.2394 9.70529C55.0086 9.84137 54.8185 10.0368 54.6888 10.2712ZM54.9388 16L56 14.0887L57.0613 16H54.9388Z" fill="white"/>
</g>
<defs>
<clipPath id="clip0_27_44">
<rect width="72" height="32" rx="5" fill="white"/>
</clipPath>
</defs>
</svg>
