<svg width="72" height="32" viewBox="0 0 72 32" fill="none" xmlns="http://www.w3.org/2000/svg">
<g clip-path="url(#clip0_27_3629)">
<path d="M29.0002 16C29.0003 13.4288 28.2379 10.9153 26.8094 8.77747C25.3809 6.63959 23.3506 4.97331 20.9751 3.98936C18.5997 3.0054 15.9858 2.74795 13.464 3.24958C10.9422 3.75121 8.62581 4.98937 6.80773 6.8075C4.9896 8.62558 3.75144 10.942 3.24981 13.4638C2.74818 15.9855 3.00563 18.5994 3.98958 20.9749C4.97354 23.3504 6.63982 25.3807 8.7777 26.8092C10.9156 28.2376 13.429 29 16.0002 29H16.0115C19.4573 28.997 22.7611 27.6261 25.1966 25.1884C27.6321 22.7508 29.0002 19.4459 29.0002 16ZM6.14773 11.115L12.549 12.2838L5.83148 20.1912C5.23809 18.7424 4.95943 17.1839 5.01395 15.6191C5.06847 14.0544 5.45494 12.5191 6.14773 11.115ZM26.169 11.8075C26.7624 13.2566 27.0411 14.8153 26.9865 16.3802C26.932 17.9452 26.5456 19.4807 25.8527 20.885L19.4515 19.7162L26.169 11.8075ZM25.159 9.9075L20.944 14.875L17.454 5.0975C19.8499 5.41086 22.0744 6.50988 23.779 8.2225C24.2931 8.73754 24.7554 9.30192 25.159 9.9075ZM15.304 5.02375L17.4927 11.1488L7.28773 9.29C7.57599 8.9143 7.88787 8.55733 8.22148 8.22125C10.1105 6.32315 12.631 5.18523 15.304 5.02375ZM6.84148 22.0925L11.0565 17.125L14.5465 26.8975C12.9937 26.6906 11.5031 26.1544 10.1743 25.3249C8.84554 24.4954 7.70924 23.3916 6.84148 22.0875V22.0925ZM16.6965 26.975L14.5077 20.85L17.3927 21.375L24.7077 22.7113C23.7549 23.9548 22.5461 24.9791 21.1631 25.7149C19.7801 26.4508 18.2552 26.8809 16.6915 26.9762L16.6965 26.975Z" fill="white"/>
<path d="M65.5515 6.45376C63.6634 4.56583 61.258 3.28017 58.6393 2.75934C56.0205 2.23851 53.3062 2.50591 50.8394 3.52772C48.3727 4.54952 46.2643 6.27985 44.781 8.4999C43.2976 10.7199 42.5059 13.33 42.5059 16C42.5059 18.67 43.2976 21.2801 44.781 23.5001C46.2643 25.7202 48.3727 27.4505 50.8394 28.4723C53.3062 29.4941 56.0205 29.7615 58.6393 29.2407C61.258 28.7198 63.6634 27.4342 65.5515 25.5463C66.8145 24.2979 67.8172 22.8113 68.5015 21.1727C69.1859 19.534 69.5383 17.7758 69.5383 16C69.5383 14.2242 69.1859 12.466 68.5015 10.8274C67.8172 9.18869 66.8145 7.70212 65.5515 6.45376ZM63.4265 8.57876C63.8298 8.9801 64.1998 9.41361 64.5327 9.87501L61.1252 13.8863L58.2127 5.73501C60.1898 6.15669 62.0019 7.14329 63.429 8.57501L63.4265 8.57876ZM48.5702 8.57876C50.2828 6.85752 52.5422 5.78771 54.959 5.55376L56.729 10.51L48.214 8.95126C48.3302 8.82376 48.449 8.69876 48.5727 8.57501L48.5702 8.57876ZM46.0002 19.2125C45.2083 16.7335 45.3596 14.0493 46.4252 11.675L51.6052 12.625L46.0002 19.2125ZM48.569 23.425C48.1673 23.0222 47.799 22.5875 47.4677 22.125L50.8752 18.1138L53.7877 26.265C51.8112 25.843 49.9996 24.8565 48.5727 23.425H48.569ZM53.114 15.4738L55.0115 13.2425L57.894 13.7688L58.879 16.5263L56.9827 18.7575L54.1002 18.2313L53.114 15.4738ZM63.4252 23.425C61.7124 25.1458 59.4531 26.2155 57.0365 26.45L55.269 21.5L63.7865 23.055C63.6702 23.1763 63.5515 23.3013 63.429 23.425H63.4252ZM60.3952 19.375L66.0002 12.7875C66.7924 15.2666 66.6406 17.951 65.574 20.325L60.3952 19.375Z" fill="white"/>
</g>
<defs>
<clipPath id="clip0_27_3629">
<rect width="72" height="32" rx="5" fill="white"/>
</clipPath>
</defs>
</svg>
