<svg width="72" height="32" viewBox="0 0 72 32" fill="none" xmlns="http://www.w3.org/2000/svg">
<g clip-path="url(#clip0_27_54)">
<path d="M16.0288 3.75C16.3061 2.67589 16.9328 1.72451 17.8101 1.04562C18.6875 0.366728 19.7657 -0.00111129 20.875 2.52202e-06H21C21.2652 2.52202e-06 21.5196 0.105359 21.7071 0.292896C21.8946 0.480432 22 0.734786 22 1C22 1.26522 21.8946 1.51957 21.7071 1.70711C21.5196 1.89465 21.2652 2 21 2H20.875C20.2099 1.99994 19.5636 2.22093 19.0377 2.62821C18.5119 3.0355 18.1363 3.60599 17.97 4.25C17.9037 4.50693 17.738 4.727 17.5095 4.86179C17.2809 4.99658 17.0082 5.03506 16.7513 4.96875C16.4943 4.90245 16.2743 4.7368 16.1395 4.50824C16.0047 4.27968 15.9662 4.00693 16.0325 3.75H16.0288ZM27.9125 21.1988C27.8375 21.0274 27.7163 20.8802 27.5625 20.7738C25.4413 19.3163 25 16.83 25 15C25 12.7913 26.6838 10.8675 27.6875 9.91625C27.7862 9.8228 27.8649 9.7102 27.9186 9.58533C27.9724 9.46046 28.0001 9.32595 28.0001 9.19C28.0001 9.05406 27.9724 8.91954 27.9186 8.79467C27.8649 8.6698 27.7862 8.5572 27.6875 8.46375C26.1025 6.9675 23.4775 6 21 6C19.2203 6.00159 17.4808 6.5291 16 7.51625C14.2727 6.35795 12.1957 5.83776 10.1263 6.04513C8.05688 6.2525 6.12442 7.17448 4.66125 8.6525C3.78655 9.54549 3.10023 10.6052 2.64307 11.7686C2.18591 12.932 1.96722 14.1754 2 15.425C2.04908 17.5342 2.51807 19.6124 3.37958 21.5383C4.24108 23.4641 5.47782 25.1989 7.0175 26.6413C7.94475 27.5173 9.1731 28.0037 10.4488 28H21.4088C22.0907 28.0013 22.7657 27.8625 23.3919 27.5922C24.018 27.3219 24.5819 26.9259 25.0488 26.4288C25.9135 25.4981 26.6615 24.4655 27.2763 23.3538C28.1538 21.75 28.0413 21.5 27.9125 21.1988Z" fill="white"/>
<path d="M68.375 21C68.2626 20.7429 68.0802 20.5224 67.8488 20.3638C65.9063 19.0275 65.5 16.71 65.5 15C65.5 12.9788 67.085 11.175 68.0313 10.28C68.1794 10.1398 68.2973 9.97092 68.3779 9.78362C68.4585 9.59632 68.5001 9.39454 68.5001 9.19063C68.5001 8.98671 68.4585 8.78494 68.3779 8.59763C68.2973 8.41033 68.1794 8.24143 68.0313 8.10125C66.3613 6.52125 63.6013 5.5 61 5.5C59.2339 5.50161 57.5029 5.99364 56 6.92125C54.1826 5.79219 52.0358 5.31337 49.9108 5.56315C47.7859 5.81293 45.8086 6.77652 44.3025 8.29625C43.3804 9.23808 42.6571 10.3558 42.1756 11.5828C41.6942 12.8098 41.4644 14.1211 41.5 15.4388C41.5521 17.6132 42.0369 19.7554 42.9261 21.7405C43.8153 23.7255 45.091 25.5134 46.6788 27C47.6973 27.9646 49.0472 28.5015 50.45 28.5H61.4113C62.162 28.501 62.9049 28.3479 63.594 28.0501C64.2832 27.7523 64.9038 27.3162 65.4175 26.7687C66.3117 25.8094 67.0842 24.7434 67.7175 23.595C67.9138 23.235 68.0925 22.8813 68.235 22.5438C68.4338 22.0838 68.64 21.6087 68.375 21ZM63.2213 24.7275C62.9885 24.9733 62.7078 25.1687 62.3964 25.3016C62.0851 25.4345 61.7498 25.502 61.4113 25.5H50.45C49.8134 25.5022 49.2003 25.2597 48.7375 24.8225C47.438 23.6059 46.3939 22.1425 45.6663 20.5178C44.9387 18.8931 44.5423 17.1397 44.5 15.36C44.4747 14.4472 44.6331 13.5386 44.9659 12.6882C45.2988 11.8378 45.7992 11.0631 46.4375 10.41C47.0318 9.80295 47.7418 9.32116 48.5254 8.9931C49.309 8.66505 50.1505 8.49738 51 8.5H51.09C52.5358 8.51568 53.9343 9.01764 55.06 9.925C55.3261 10.138 55.6567 10.2541 55.9975 10.2541C56.3383 10.2541 56.669 10.138 56.935 9.925C58.0857 8.99649 59.5214 8.4932 61 8.5C62.2998 8.51537 63.5783 8.832 64.735 9.425C63.2825 11.2075 62.5 13.1413 62.5 15C62.5 17.9163 63.4338 20.3612 65.1563 22.0238C64.63 23.0043 63.9792 23.9126 63.22 24.7262L63.2213 24.7275ZM56.0938 1.625C56.5496 1.03735 57.1204 0.548677 57.7713 0.188751C58.1194 -0.00419424 58.5298 -0.0509559 58.9124 0.0587529C59.295 0.168462 59.6183 0.425654 59.8113 0.773751C60.0042 1.12185 60.051 1.53233 59.9413 1.91491C59.8316 2.29748 59.5744 2.62081 59.2263 2.81375C58.9296 2.97761 58.6697 3.20053 58.4625 3.46875C58.3415 3.62428 58.1909 3.75445 58.0196 3.85182C57.8482 3.94918 57.6593 4.01184 57.4638 4.03622C57.0688 4.08545 56.6704 3.97575 56.3563 3.73125C56.0422 3.48675 55.838 3.12749 55.7888 2.73249C55.7396 2.33749 55.8493 1.93912 56.0938 1.625Z" fill="white"/>
</g>
<defs>
<clipPath id="clip0_27_54">
<rect width="72" height="32" rx="5" fill="white"/>
</clipPath>
</defs>
</svg>
