<svg width="72" height="32" viewBox="0 0 72 32" fill="none" xmlns="http://www.w3.org/2000/svg">
<g clip-path="url(#clip0_27_59)">
<path d="M19.975 18.9775C20.2083 19.2745 20.37 19.6213 20.4476 19.9909C20.5252 20.3605 20.5166 20.743 20.4225 21.1087L18.9 27.1087C18.7597 27.6523 18.4421 28.1335 17.9974 28.4761C17.5527 28.8187 17.0064 29.0031 16.445 29H15.555C14.9936 29.0031 14.4473 28.8187 14.0026 28.4761C13.5579 28.1335 13.2403 27.6523 13.1 27.1087L11.5775 21.1087C11.4834 20.743 11.4748 20.3605 11.5524 19.9909C11.63 19.6213 11.7917 19.2745 12.025 18.9775C12.2613 18.6724 12.5645 18.4255 12.9113 18.2561C13.258 18.0866 13.6391 17.999 14.025 18H17.9625C18.3506 17.9971 18.734 18.0837 19.0831 18.2533C19.4322 18.4228 19.7374 18.6707 19.975 18.9775ZM19.5 14.5C19.5 13.8078 19.2947 13.1311 18.9101 12.5555C18.5256 11.9799 17.9789 11.5313 17.3394 11.2664C16.6999 11.0015 15.9961 10.9322 15.3172 11.0673C14.6383 11.2023 14.0146 11.5356 13.5251 12.0251C13.0356 12.5146 12.7023 13.1383 12.5673 13.8172C12.4322 14.4961 12.5015 15.1999 12.7664 15.8394C13.0313 16.4789 13.4799 17.0256 14.0555 17.4101C14.6311 17.7947 15.3078 18 16 18C16.9283 18 17.8185 17.6313 18.4749 16.9749C19.1313 16.3185 19.5 15.4283 19.5 14.5ZM22.75 17.875C22.7114 18.0025 22.6987 18.1364 22.7126 18.2689C22.7265 18.4014 22.7667 18.5297 22.8309 18.6465C22.895 18.7632 22.9819 18.8659 23.0863 18.9486C23.1907 19.0313 23.3106 19.0923 23.4389 19.128C23.5673 19.1637 23.7014 19.1735 23.8336 19.1566C23.9657 19.1398 24.0931 19.0967 24.2084 19.0299C24.3237 18.9632 24.4244 18.8741 24.5048 18.7678C24.5851 18.6616 24.6434 18.5403 24.6763 18.4112C25.0479 17.0744 25.1053 15.6697 24.8441 14.3069C24.5829 12.9441 24.0102 11.6602 23.1706 10.5554C22.3311 9.45069 21.2474 8.55502 20.0044 7.93842C18.7614 7.32181 17.3926 7.00098 16.005 7.00098C14.6174 7.00098 13.2487 7.32181 12.0056 7.93842C10.7626 8.55502 9.67893 9.45069 8.83937 10.5554C7.99981 11.6602 7.42706 12.9441 7.16588 14.3069C6.90469 15.6697 6.96215 17.0744 7.33375 18.4112C7.42419 18.642 7.59707 18.8309 7.81888 18.9414C8.04069 19.0519 8.29563 19.0761 8.53428 19.0093C8.77292 18.9425 8.97827 18.7895 9.11051 18.5799C9.24274 18.3704 9.29246 18.1191 9.25 17.875C8.96463 16.8361 8.92294 15.7453 9.12816 14.6876C9.33339 13.6299 9.78 12.6339 10.4332 11.777C11.0864 10.9202 11.9286 10.2257 12.8942 9.7477C13.8597 9.26966 14.9226 9.02095 16 9.02095C17.0774 9.02095 18.1403 9.26966 19.1059 9.7477C20.0714 10.2257 20.9136 10.9202 21.5668 11.777C22.22 12.6339 22.6666 13.6299 22.8718 14.6876C23.0771 15.7453 23.0354 16.8361 22.75 17.875ZM16 3C13.2111 2.99942 10.4959 3.89577 8.25542 5.55667C6.01498 7.21757 4.36806 9.55496 3.5579 12.2236C2.74774 14.8923 2.81729 17.7508 3.75629 20.3769C4.69528 23.003 6.45393 25.2575 8.7725 26.8075C8.88166 26.8805 9.00414 26.9314 9.13295 26.9571C9.26175 26.9828 9.39436 26.9829 9.52321 26.9574C9.65205 26.9318 9.7746 26.8812 9.88386 26.8083C9.99312 26.7354 10.087 26.6417 10.16 26.5325C10.233 26.4233 10.2839 26.3009 10.3096 26.1721C10.3353 26.0432 10.3354 25.9106 10.3099 25.7818C10.2843 25.653 10.2337 25.5304 10.1608 25.4211C10.0879 25.3119 9.99416 25.218 9.885 25.145C7.92368 23.8333 6.4361 21.9258 5.64188 19.7039C4.84767 17.4821 4.78892 15.0638 5.47431 12.806C6.1597 10.5483 7.55289 8.57074 9.44821 7.16538C11.3435 5.76001 13.6405 5.00133 16 5.00133C18.3595 5.00133 20.6565 5.76001 22.5518 7.16538C24.4471 8.57074 25.8403 10.5483 26.5257 12.806C27.2111 15.0638 27.1523 17.4821 26.3581 19.7039C25.5639 21.9258 24.0763 23.8333 22.115 25.145C21.8945 25.2925 21.7417 25.5216 21.6901 25.7818C21.6386 26.042 21.6925 26.312 21.84 26.5325C21.9875 26.753 22.2166 26.9058 22.4768 26.9574C22.737 27.0089 23.007 26.955 23.2275 26.8075C25.5461 25.2575 27.3047 23.003 28.2437 20.3769C29.1827 17.7508 29.2523 14.8923 28.4421 12.2236C27.6319 9.55496 25.985 7.21757 23.7446 5.55667C21.5041 3.89577 18.7889 2.99942 16 3Z" fill="white"/>
<path d="M60.17 16.25C60.6685 15.4965 60.9536 14.622 60.9948 13.7194C61.036 12.8168 60.8319 11.92 60.4042 11.1241C59.9765 10.3283 59.3411 9.66321 58.5656 9.1996C57.7901 8.73599 56.9035 8.49118 56 8.49118C55.0965 8.49118 54.2099 8.73599 53.4344 9.1996C52.6589 9.66321 52.0235 10.3283 51.5958 11.1241C51.1681 11.92 50.964 12.8168 51.0052 13.7194C51.0465 14.622 51.3315 15.4965 51.83 16.25C51.621 16.416 51.4315 16.6052 51.265 16.8137C50.9361 17.2238 50.7043 17.703 50.5869 18.2154C50.4696 18.7278 50.4698 19.2602 50.5875 19.7725L52.1813 26.7725C52.3538 27.5486 52.7866 28.2422 53.4078 28.7384C54.029 29.2345 54.8012 29.5033 55.5963 29.5H56.4038C57.1982 29.5035 57.97 29.2352 58.5912 28.7398C59.2123 28.2444 59.6454 27.5516 59.8188 26.7762L61.4125 19.7762C61.5302 19.2639 61.5304 18.7316 61.4131 18.2192C61.2957 17.7068 61.0639 17.2276 60.735 16.8175C60.5687 16.6076 60.3792 16.4172 60.17 16.25ZM56 11.5C56.3956 11.5 56.7822 11.6173 57.1111 11.8371C57.44 12.0568 57.6964 12.3692 57.8478 12.7346C57.9991 13.1001 58.0387 13.5022 57.9616 13.8902C57.8844 14.2781 57.6939 14.6345 57.4142 14.9142C57.1345 15.1939 56.7781 15.3844 56.3902 15.4616C56.0022 15.5387 55.6001 15.4991 55.2346 15.3478C54.8692 15.1964 54.5568 14.94 54.3371 14.6111C54.1173 14.2822 54 13.8956 54 13.5C54 12.9696 54.2107 12.4609 54.5858 12.0858C54.9609 11.7107 55.4696 11.5 56 11.5ZM58.4863 19.11L56.8938 26.11C56.8687 26.2211 56.8065 26.3203 56.7174 26.3912C56.6283 26.4621 56.5176 26.5005 56.4038 26.5H55.5963C55.4824 26.5005 55.3717 26.4621 55.2826 26.3912C55.1935 26.3203 55.1313 26.2211 55.1063 26.11L53.5138 19.11C53.4965 19.0371 53.4963 18.9612 53.5129 18.8882C53.5296 18.8152 53.5628 18.7469 53.61 18.6887C53.6567 18.6301 53.716 18.5826 53.7835 18.5499C53.851 18.5173 53.925 18.5002 54 18.5H58C58.0756 18.4996 58.1504 18.5164 58.2186 18.5491C58.2868 18.5818 58.3467 18.6296 58.3938 18.6887C58.4403 18.7473 58.4728 18.8156 58.4888 18.8886C58.5049 18.9617 58.504 19.0374 58.4863 19.11ZM69.5 16C69.5004 17.9548 69.0758 19.8863 68.2556 21.6607C67.4354 23.4351 66.2393 25.01 64.75 26.2762C64.4445 26.4996 64.0659 26.5993 63.6901 26.5552C63.3142 26.5112 62.9689 26.3267 62.7233 26.0387C62.4778 25.7508 62.3501 25.3807 62.366 25.0026C62.3818 24.6245 62.54 24.2664 62.8088 24C64.4441 22.607 65.6128 20.746 66.1572 18.6679C66.7016 16.5899 66.5956 14.3949 65.8534 12.379C65.1112 10.3632 63.7685 8.62344 62.0066 7.39457C60.2446 6.1657 58.1482 5.50682 56 5.50682C53.8518 5.50682 51.7554 6.1657 49.9934 7.39457C48.2315 8.62344 46.8888 10.3632 46.1466 12.379C45.4044 14.3949 45.2984 16.5899 45.8428 18.6679C46.3873 20.746 47.556 22.607 49.1913 24C49.46 24.2664 49.6182 24.6245 49.634 25.0026C49.6499 25.3807 49.5222 25.7508 49.2767 26.0387C49.0311 26.3267 48.6858 26.5112 48.3099 26.5552C47.9341 26.5993 47.5555 26.4996 47.25 26.2762C45.5243 24.8075 44.1962 22.9279 43.3879 20.8109C42.5796 18.6938 42.3173 16.4073 42.6251 14.1622C42.9329 11.9171 43.8009 9.78562 45.1491 7.96418C46.4972 6.14275 48.2822 4.68999 50.3395 3.73983C52.3968 2.78966 54.6602 2.37266 56.921 2.52726C59.1818 2.68186 61.3674 3.40309 63.2762 4.62446C65.185 5.84584 66.7556 7.52806 67.8433 9.51606C68.931 11.5041 69.5007 13.7339 69.5 16Z" fill="white"/>
</g>
<defs>
<clipPath id="clip0_27_59">
<rect width="72" height="32" rx="5" fill="white"/>
</clipPath>
</defs>
</svg>
