<svg width="72" height="32" viewBox="0 0 72 32" fill="none" xmlns="http://www.w3.org/2000/svg">
<g clip-path="url(#clip0_27_1643)">
<path d="M26 4H6C5.46957 4 4.96086 4.21071 4.58579 4.58579C4.21071 4.96086 4 5.46957 4 6V26C4 26.5304 4.21071 27.0391 4.58579 27.4142C4.96086 27.7893 5.46957 28 6 28H26C26.5304 28 27.0391 27.7893 27.4142 27.4142C27.7893 27.0391 28 26.5304 28 26V6C28 5.46957 27.7893 4.96086 27.4142 4.58579C27.0391 4.21071 26.5304 4 26 4ZM24.65 20.1087C23.0163 21.5062 21.5375 21.9963 20.195 21.9963C18.4125 21.9963 16.8675 21.1313 15.5112 20.3713C13.21 19.0825 11.3925 18.065 8.65 20.41C8.5502 20.4954 8.43456 20.5602 8.30968 20.6009C8.18481 20.6416 8.05315 20.6572 7.92222 20.647C7.79129 20.6368 7.66365 20.6009 7.5466 20.5414C7.42954 20.4818 7.32536 20.3998 7.24 20.3C7.15464 20.2002 7.08978 20.0846 7.04911 19.9597C7.00844 19.8348 6.99276 19.7031 7.00298 19.5722C7.01319 19.4413 7.0491 19.3137 7.10864 19.1966C7.16818 19.0795 7.2502 18.9754 7.35 18.89C11.1525 15.64 14.1112 17.295 16.4888 18.6262C18.79 19.915 20.6138 20.9325 23.35 18.5875C23.5516 18.4151 23.8134 18.3299 24.0778 18.3505C24.3422 18.3711 24.5876 18.4959 24.76 18.6975C24.9324 18.8991 25.0177 19.1609 24.997 19.4253C24.9764 19.6897 24.8516 19.9351 24.65 20.1075V20.1087ZM24.65 13.1088C23.0163 14.5063 21.5375 14.9963 20.195 14.9963C18.4125 14.9963 16.8675 14.1313 15.5112 13.3713C13.21 12.0825 11.3925 11.065 8.65 13.41C8.4475 13.5733 8.18932 13.6513 7.93025 13.6274C7.67118 13.6035 7.43163 13.4796 7.26245 13.2819C7.09326 13.0843 7.00777 12.8285 7.02412 12.5688C7.04047 12.3092 7.15737 12.0661 7.35 11.8912C11.1525 8.64125 14.1112 10.2962 16.4888 11.6275C18.79 12.9162 20.6138 13.9338 23.35 11.5887C23.4498 11.5034 23.5654 11.4385 23.6903 11.3979C23.8152 11.3572 23.9469 11.3415 24.0778 11.3517C24.2087 11.3619 24.3363 11.3978 24.4534 11.4574C24.5705 11.5169 24.6746 11.5989 24.76 11.6987C24.8454 11.7986 24.9102 11.9142 24.9509 12.0391C24.9916 12.1639 25.0072 12.2956 24.997 12.4265C24.9868 12.5575 24.9509 12.6851 24.8914 12.8022C24.8318 12.9192 24.7498 13.0234 24.65 13.1088Z" fill="white"/>
<path d="M68.1548 18.8413C68.2806 18.9929 68.3752 19.1679 68.4334 19.3561C68.4915 19.5444 68.512 19.7422 68.4937 19.9384C68.4753 20.1346 68.4185 20.3252 68.3265 20.4994C68.2345 20.6737 68.109 20.828 67.9573 20.9538C65.686 22.8375 63.6323 23.5 61.7685 23.5C59.2985 23.5 57.161 22.3388 55.2835 21.32C52.151 19.6175 49.676 18.2738 45.9573 21.3575C45.8056 21.4832 45.6307 21.5779 45.4424 21.636C45.2542 21.6941 45.0563 21.7146 44.8601 21.6963C44.664 21.6779 44.4733 21.6211 44.2991 21.5291C44.1249 21.4371 43.9705 21.3117 43.8448 21.16C43.7191 21.0083 43.6244 20.8334 43.5663 20.6451C43.5082 20.4569 43.4877 20.259 43.506 20.0628C43.5431 19.6667 43.736 19.3014 44.0423 19.0475C49.3235 14.6725 53.4173 16.8938 56.716 18.6825C59.8485 20.3838 62.3235 21.7288 66.0423 18.6438C66.194 18.518 66.3689 18.4233 66.5572 18.3652C66.7454 18.307 66.9433 18.2865 67.1395 18.3049C67.3356 18.3232 67.5263 18.38 67.7005 18.4721C67.8747 18.5641 68.0291 18.6895 68.1548 18.8413ZM45.9573 13.3563C49.676 10.2713 52.151 11.6163 55.2835 13.3175C57.1585 14.3375 59.2985 15.4988 61.7685 15.4988C63.6323 15.4988 65.686 14.8363 67.9573 12.9525C68.2636 12.6986 68.4565 12.3333 68.4936 11.9372C68.5306 11.541 68.4087 11.1463 68.1548 10.84C67.9008 10.5337 67.5356 10.3408 67.1394 10.3037C66.7433 10.2667 66.3486 10.3886 66.0423 10.6425C62.3235 13.7263 59.8485 12.3825 56.716 10.68C53.4223 8.8925 49.3235 6.66625 44.0423 11.0463C43.736 11.3002 43.5431 11.6654 43.506 12.0616C43.469 12.4578 43.5908 12.8524 43.8448 13.1588C44.0987 13.4651 44.464 13.658 44.8601 13.695C45.2563 13.7321 45.651 13.6102 45.9573 13.3563Z" fill="white"/>
</g>
<defs>
<clipPath id="clip0_27_1643">
<rect width="72" height="32" rx="5" fill="white"/>
</clipPath>
</defs>
</svg>
