<svg width="72" height="32" viewBox="0 0 72 32" fill="none" xmlns="http://www.w3.org/2000/svg">
<g clip-path="url(#clip0_27_49)">
<path d="M16 3C13.4288 3 10.9154 3.76244 8.77759 5.1909C6.63975 6.61935 4.97351 8.64968 3.98957 11.0251C3.00563 13.4006 2.74819 16.0144 3.2498 18.5362C3.75141 21.0579 4.98953 23.3743 6.80762 25.1924C8.6257 27.0105 10.9421 28.2486 13.4638 28.7502C15.9856 29.2518 18.5995 28.9944 20.9749 28.0104C23.3503 27.0265 25.3807 25.3603 26.8091 23.2224C28.2376 21.0846 29 18.5712 29 16C28.9964 12.5533 27.6256 9.24882 25.1884 6.81163C22.7512 4.37445 19.4467 3.00364 16 3ZM10.4575 22.515L9.85751 23.515C9.78988 23.6276 9.70073 23.7258 9.59515 23.8039C9.48957 23.8821 9.36964 23.9387 9.24219 23.9705C9.11474 24.0023 8.98228 24.0087 8.85236 23.9893C8.72244 23.9699 8.59761 23.9251 8.48501 23.8575C8.3724 23.7899 8.27421 23.7007 8.19606 23.5951C8.1179 23.4896 8.06131 23.3696 8.0295 23.2422C7.9977 23.1147 7.99131 22.9823 8.0107 22.8524C8.03009 22.7224 8.07487 22.5976 8.14251 22.485L8.74251 21.485C8.87909 21.2576 9.10043 21.0937 9.35782 21.0295C9.61522 20.9653 9.88758 21.0059 10.115 21.1425C10.3424 21.2791 10.5063 21.5004 10.5705 21.7578C10.6347 22.0152 10.5941 22.2876 10.4575 22.515ZM16 19H7.00001C6.73479 19 6.48044 18.8946 6.2929 18.7071C6.10536 18.5196 6.00001 18.2652 6.00001 18C6.00001 17.7348 6.10536 17.4804 6.2929 17.2929C6.48044 17.1054 6.73479 17 7.00001 17H11.4338L14.8338 11.3337L13.1425 8.515C13.0749 8.40239 13.0301 8.27757 13.0107 8.14765C12.9913 8.01773 12.9977 7.88526 13.0295 7.75782C13.0613 7.63037 13.1179 7.51043 13.1961 7.40486C13.2742 7.29928 13.3724 7.21013 13.485 7.1425C13.7124 7.00591 13.9848 6.96526 14.2422 7.0295C14.3696 7.0613 14.4896 7.1179 14.5951 7.19605C14.7007 7.27421 14.7899 7.37239 14.8575 7.485L16 9.39L17.1425 7.485C17.2101 7.37239 17.2993 7.27421 17.4049 7.19605C17.5104 7.1179 17.6304 7.0613 17.7578 7.0295C17.8853 6.99769 18.0177 6.9913 18.1477 7.01069C18.2776 7.03008 18.4024 7.07487 18.515 7.1425C18.6276 7.21013 18.7258 7.29928 18.804 7.40486C18.8821 7.51043 18.9387 7.63037 18.9705 7.75782C19.0023 7.88526 19.0087 8.01773 18.9893 8.14765C18.9699 8.27757 18.9251 8.40239 18.8575 8.515L13.7663 17H16C16.2652 17 16.5196 17.1054 16.7071 17.2929C16.8946 17.4804 17 17.7348 17 18C17 18.2652 16.8946 18.5196 16.7071 18.7071C16.5196 18.8946 16.2652 19 16 19ZM25 19H21.7663L23.8575 22.485C23.9941 22.7124 24.0347 22.9848 23.9705 23.2422C23.9063 23.4996 23.7424 23.7209 23.515 23.8575C23.2876 23.9941 23.0152 24.0347 22.7578 23.9705C22.5004 23.9063 22.2791 23.7424 22.1425 23.515L17.3425 15.515C17.2059 15.2876 17.1653 15.0152 17.2295 14.7578C17.2937 14.5004 17.4576 14.2791 17.685 14.1425C17.9124 14.0059 18.1848 13.9653 18.4422 14.0295C18.6996 14.0937 18.9209 14.2576 19.0575 14.485L20.5663 17H25C25.2652 17 25.5196 17.1054 25.7071 17.2929C25.8946 17.4804 26 17.7348 26 18C26 18.2652 25.8946 18.5196 25.7071 18.7071C25.5196 18.8946 25.2652 19 25 19Z" fill="white"/>
<path d="M70.5 20C70.5 20.3978 70.342 20.7794 70.0607 21.0607C69.7794 21.342 69.3978 21.5 69 21.5H65.0837L67.2913 25.2363C67.3942 25.4059 67.4625 25.5943 67.4922 25.7906C67.5218 25.9868 67.5122 26.187 67.464 26.3795C67.4157 26.572 67.3297 26.753 67.2109 26.9121C67.0922 27.0711 66.9431 27.205 66.7722 27.306C66.6013 27.4069 66.4121 27.473 66.2155 27.5003C66.019 27.5277 65.8189 27.5157 65.627 27.4652C65.435 27.4146 65.2551 27.3265 65.0974 27.2059C64.9398 27.0852 64.8077 26.9345 64.7087 26.7625L57.6125 14.75C57.4214 14.4081 57.3716 14.0051 57.4738 13.627C57.5759 13.2488 57.8219 12.9257 58.1591 12.7265C58.4964 12.5274 58.8982 12.468 59.2786 12.5612C59.659 12.6543 59.9879 12.8926 60.195 13.225L63.31 18.5H69C69.3978 18.5 69.7794 18.658 70.0607 18.9393C70.342 19.2206 70.5 19.6022 70.5 20ZM56.6437 18.5H52.1737L60.2913 4.76375C60.3942 4.59409 60.4625 4.40568 60.4922 4.20944C60.5218 4.01319 60.5122 3.81301 60.464 3.6205C60.4157 3.42799 60.3297 3.24697 60.2109 3.08794C60.0922 2.92891 59.9431 2.79502 59.7722 2.69404C59.6013 2.59306 59.4121 2.52699 59.2155 2.49967C59.019 2.47234 58.8189 2.4843 58.627 2.53485C58.435 2.5854 58.2551 2.67353 58.0974 2.79415C57.9398 2.91476 57.8077 3.06546 57.7087 3.2375L56 6.125L54.2913 3.2375C54.1923 3.06546 54.0602 2.91476 53.9026 2.79415C53.7449 2.67353 53.565 2.5854 53.373 2.53485C53.1811 2.4843 52.981 2.47234 52.7845 2.49967C52.5879 2.52699 52.3987 2.59306 52.2278 2.69404C52.0569 2.79502 51.9078 2.92891 51.7891 3.08794C51.6703 3.24697 51.5843 3.42799 51.536 3.6205C51.4878 3.81301 51.4782 4.01319 51.5078 4.20944C51.5375 4.40568 51.6058 4.59409 51.7087 4.76375L54.2575 9.0775L48.69 18.5H43C42.6022 18.5 42.2206 18.658 41.9393 18.9393C41.658 19.2206 41.5 19.6022 41.5 20C41.5 20.3978 41.658 20.7794 41.9393 21.0607C42.2206 21.342 42.6022 21.5 43 21.5H56.6437C57.0416 21.5 57.4231 21.342 57.7044 21.0607C57.9857 20.7794 58.1437 20.3978 58.1437 20C58.1437 19.6022 57.9857 19.2206 57.7044 18.9393C57.4231 18.658 57.0416 18.5 56.6437 18.5ZM47.3538 23.7088C47.0114 23.5065 46.6028 23.4485 46.2177 23.5474C45.8326 23.6463 45.5025 23.8941 45.3 24.2363L44.7087 25.2363C44.6058 25.4059 44.5375 25.5943 44.5078 25.7906C44.4782 25.9868 44.4878 26.187 44.536 26.3795C44.5843 26.572 44.6703 26.753 44.7891 26.9121C44.9078 27.0711 45.0569 27.205 45.2278 27.306C45.3987 27.4069 45.5879 27.473 45.7845 27.5003C45.981 27.5277 46.1811 27.5157 46.373 27.4652C46.565 27.4146 46.7449 27.3265 46.9026 27.2059C47.0602 27.0852 47.1923 26.9345 47.2913 26.7625L47.8825 25.7625C48.0846 25.42 48.1425 25.0113 48.0433 24.6262C47.9442 24.241 47.6961 23.9111 47.3538 23.7088Z" fill="white"/>
</g>
<defs>
<clipPath id="clip0_27_49">
<rect width="72" height="32" rx="5" fill="white"/>
</clipPath>
</defs>
</svg>
