<svg width="72" height="32" viewBox="0 0 72 32" fill="none" xmlns="http://www.w3.org/2000/svg">
<g clip-path="url(#clip0_27_2350)">
<path d="M27 5H5C4.46957 5 3.96086 5.21071 3.58579 5.58579C3.21071 5.96086 3 6.46957 3 7V25C3 25.5304 3.21071 26.0391 3.58579 26.4142C3.96086 26.7893 4.46957 27 5 27H27C27.5304 27 28.0391 26.7893 28.4142 26.4142C28.7893 26.0391 29 25.5304 29 25V7C29 6.46957 28.7893 5.96086 28.4142 5.58579C28.0391 5.21071 27.5304 5 27 5ZM8.5 12C8.20333 12 7.91332 11.912 7.66664 11.7472C7.41997 11.5824 7.22771 11.3481 7.11418 11.074C7.00065 10.7999 6.97094 10.4983 7.02882 10.2074C7.0867 9.91639 7.22956 9.64912 7.43934 9.43934C7.64912 9.22956 7.91639 9.0867 8.20736 9.02882C8.49834 8.97094 8.79994 9.00065 9.07403 9.11418C9.34811 9.22771 9.58238 9.41997 9.7472 9.66665C9.91203 9.91332 10 10.2033 10 10.5C10 10.8978 9.84196 11.2794 9.56066 11.5607C9.27936 11.842 8.89782 12 8.5 12ZM13.5 12C13.2033 12 12.9133 11.912 12.6666 11.7472C12.42 11.5824 12.2277 11.3481 12.1142 11.074C12.0006 10.7999 11.9709 10.4983 12.0288 10.2074C12.0867 9.91639 12.2296 9.64912 12.4393 9.43934C12.6491 9.22956 12.9164 9.0867 13.2074 9.02882C13.4983 8.97094 13.7999 9.00065 14.074 9.11418C14.3481 9.22771 14.5824 9.41997 14.7472 9.66665C14.912 9.91332 15 10.2033 15 10.5C15 10.8978 14.842 11.2794 14.5607 11.5607C14.2794 11.842 13.8978 12 13.5 12Z" fill="white"/>
<path d="M67 4.5H45C44.337 4.5 43.7011 4.76339 43.2322 5.23223C42.7634 5.70107 42.5 6.33696 42.5 7V25C42.5 25.663 42.7634 26.2989 43.2322 26.7678C43.7011 27.2366 44.337 27.5 45 27.5H67C67.663 27.5 68.2989 27.2366 68.7678 26.7678C69.2366 26.2989 69.5 25.663 69.5 25V7C69.5 6.33696 69.2366 5.70107 68.7678 5.23223C68.2989 4.76339 67.663 4.5 67 4.5ZM66.5 24.5H45.5V7.5H66.5V24.5ZM47.5 11.5C47.5 11.1044 47.6173 10.7178 47.8371 10.3889C48.0568 10.06 48.3692 9.80362 48.7346 9.65224C49.1001 9.50087 49.5022 9.46126 49.8902 9.53843C50.2781 9.6156 50.6345 9.80608 50.9142 10.0858C51.1939 10.3655 51.3844 10.7219 51.4616 11.1098C51.5387 11.4978 51.4991 11.8999 51.3478 12.2654C51.1964 12.6308 50.94 12.9432 50.6111 13.1629C50.2822 13.3827 49.8956 13.5 49.5 13.5C48.9696 13.5 48.4609 13.2893 48.0858 12.9142C47.7107 12.5391 47.5 12.0304 47.5 11.5ZM53.5 11.5C53.5 11.1044 53.6173 10.7178 53.8371 10.3889C54.0568 10.06 54.3692 9.80362 54.7346 9.65224C55.1001 9.50087 55.5022 9.46126 55.8902 9.53843C56.2781 9.6156 56.6345 9.80608 56.9142 10.0858C57.1939 10.3655 57.3844 10.7219 57.4616 11.1098C57.5387 11.4978 57.4991 11.8999 57.3478 12.2654C57.1964 12.6308 56.94 12.9432 56.6111 13.1629C56.2822 13.3827 55.8956 13.5 55.5 13.5C54.9696 13.5 54.4609 13.2893 54.0858 12.9142C53.7107 12.5391 53.5 12.0304 53.5 11.5Z" fill="white"/>
</g>
<defs>
<clipPath id="clip0_27_2350">
<rect width="72" height="32" rx="5" fill="white"/>
</clipPath>
</defs>
</svg>
