<svg width="72" height="32" viewBox="0 0 72 32" fill="none" xmlns="http://www.w3.org/2000/svg">
<g clip-path="url(#clip0_27_6921)">
<path d="M28 6H4C3.46957 6 2.96086 6.21071 2.58579 6.58579C2.21071 6.96086 2 7.46957 2 8V11C2 11.5304 2.21071 12.0391 2.58579 12.4142C2.96086 12.7893 3.46957 13 4 13V24C4 24.5304 4.21071 25.0391 4.58579 25.4142C4.96086 25.7893 5.46957 26 6 26H26C26.5304 26 27.0391 25.7893 27.4142 25.4142C27.7893 25.0391 28 24.5304 28 24V13C28.5304 13 29.0391 12.7893 29.4142 12.4142C29.7893 12.0391 30 11.5304 30 11V8C30 7.46957 29.7893 6.96086 29.4142 6.58579C29.0391 6.21071 28.5304 6 28 6ZM19 18H13C12.7348 18 12.4804 17.8946 12.2929 17.7071C12.1054 17.5196 12 17.2652 12 17C12 16.7348 12.1054 16.4804 12.2929 16.2929C12.4804 16.1054 12.7348 16 13 16H19C19.2652 16 19.5196 16.1054 19.7071 16.2929C19.8946 16.4804 20 16.7348 20 17C20 17.2652 19.8946 17.5196 19.7071 17.7071C19.5196 17.8946 19.2652 18 19 18ZM28 11H4V8H28V11Z" fill="white"/>
<path d="M68 5.5H44C43.337 5.5 42.7011 5.76339 42.2322 6.23223C41.7634 6.70107 41.5 7.33696 41.5 8V11C41.4999 11.5763 41.6989 12.135 42.0633 12.5815C42.4278 13.0279 42.9353 13.3347 43.5 13.45V24C43.5 24.663 43.7634 25.2989 44.2322 25.7678C44.7011 26.2366 45.337 26.5 46 26.5H66C66.663 26.5 67.2989 26.2366 67.7678 25.7678C68.2366 25.2989 68.5 24.663 68.5 24V13.45C69.0647 13.3347 69.5722 13.0279 69.9367 12.5815C70.3011 12.135 70.5001 11.5763 70.5 11V8C70.5 7.33696 70.2366 6.70107 69.7678 6.23223C69.2989 5.76339 68.663 5.5 68 5.5ZM44.5 8.5H67.5V10.5H44.5V8.5ZM46.5 23.5V13.5H65.5V23.5H46.5ZM60.5 17C60.5 17.3978 60.342 17.7794 60.0607 18.0607C59.7794 18.342 59.3978 18.5 59 18.5H53C52.6022 18.5 52.2206 18.342 51.9393 18.0607C51.658 17.7794 51.5 17.3978 51.5 17C51.5 16.6022 51.658 16.2206 51.9393 15.9393C52.2206 15.658 52.6022 15.5 53 15.5H59C59.3978 15.5 59.7794 15.658 60.0607 15.9393C60.342 16.2206 60.5 16.6022 60.5 17Z" fill="white"/>
</g>
<defs>
<clipPath id="clip0_27_6921">
<rect width="72" height="32" rx="5" fill="white"/>
</clipPath>
</defs>
</svg>
