<svg width="72" height="32" viewBox="0 0 72 32" fill="none" xmlns="http://www.w3.org/2000/svg">
<g clip-path="url(#clip0_27_5879)">
<path d="M16 3C13.4288 3 10.9154 3.76244 8.77759 5.1909C6.63975 6.61935 4.97351 8.64968 3.98957 11.0251C3.00563 13.4006 2.74819 16.0144 3.2498 18.5362C3.75141 21.0579 4.98953 23.3743 6.80762 25.1924C8.6257 27.0105 10.9421 28.2486 13.4638 28.7502C15.9856 29.2518 18.5995 28.9944 20.9749 28.0104C23.3503 27.0265 25.3807 25.3603 26.8091 23.2224C28.2376 21.0846 29 18.5712 29 16C28.9964 12.5533 27.6256 9.24882 25.1884 6.81163C22.7512 4.37445 19.4467 3.00364 16 3ZM20.7075 17.7075L16.7075 21.7075C16.6146 21.8005 16.5043 21.8742 16.3829 21.9246C16.2615 21.9749 16.1314 22.0008 16 22.0008C15.8686 22.0008 15.7385 21.9749 15.6171 21.9246C15.4957 21.8742 15.3854 21.8005 15.2925 21.7075L11.2925 17.7075C11.1049 17.5199 10.9994 17.2654 10.9994 17C10.9994 16.7346 11.1049 16.4801 11.2925 16.2925C11.4801 16.1049 11.7346 15.9994 12 15.9994C12.2654 15.9994 12.5199 16.1049 12.7075 16.2925L15 18.5863V11C15 10.7348 15.1054 10.4804 15.2929 10.2929C15.4804 10.1054 15.7348 10 16 10C16.2652 10 16.5196 10.1054 16.7071 10.2929C16.8946 10.4804 17 10.7348 17 11V18.5863L19.2925 16.2925C19.4801 16.1049 19.7346 15.9994 20 15.9994C20.2654 15.9994 20.5199 16.1049 20.7075 16.2925C20.8951 16.4801 21.0006 16.7346 21.0006 17C21.0006 17.2654 20.8951 17.5199 20.7075 17.7075Z" fill="white"/>
<path d="M56 2.5C53.33 2.5 50.7199 3.29176 48.4998 4.77516C46.2797 6.25856 44.5494 8.36697 43.5276 10.8338C42.5058 13.3006 42.2385 16.015 42.7594 18.6337C43.2803 21.2525 44.5661 23.6579 46.4541 25.5459C48.3421 27.434 50.7475 28.7197 53.3663 29.2406C55.985 29.7615 58.6994 29.4942 61.1662 28.4724C63.633 27.4506 65.7414 25.7203 67.2248 23.5002C68.7082 21.2801 69.5 18.67 69.5 16C69.496 12.4208 68.0724 8.98932 65.5416 6.45844C63.0107 3.92756 59.5792 2.50397 56 2.5ZM56 26.5C53.9233 26.5 51.8932 25.8842 50.1665 24.7304C48.4398 23.5767 47.094 21.9368 46.2993 20.0182C45.5046 18.0996 45.2966 15.9884 45.7018 13.9516C46.1069 11.9148 47.1069 10.0438 48.5754 8.57538C50.0438 7.10693 51.9148 6.1069 53.9516 5.70175C55.9884 5.29661 58.0996 5.50454 60.0182 6.29926C61.9368 7.09399 63.5767 8.4398 64.7304 10.1665C65.8842 11.8932 66.5 13.9233 66.5 16C66.497 18.7839 65.3898 21.4528 63.4213 23.4213C61.4529 25.3898 58.7839 26.497 56 26.5ZM61.0613 15.9388C61.2011 16.0781 61.312 16.2437 61.3878 16.426C61.4635 16.6083 61.5024 16.8038 61.5024 17.0012C61.5024 17.1987 61.4635 17.3941 61.3878 17.5765C61.312 17.7588 61.2011 17.9244 61.0613 18.0637L57.0613 22.0637C56.9219 22.2036 56.7563 22.3145 56.574 22.3903C56.3917 22.466 56.1962 22.5049 55.9988 22.5049C55.8013 22.5049 55.6059 22.466 55.4235 22.3903C55.2412 22.3145 55.0756 22.2036 54.9363 22.0637L50.9363 18.0637C50.7967 17.9242 50.686 17.7586 50.6105 17.5763C50.535 17.394 50.4962 17.1986 50.4962 17.0012C50.4962 16.8039 50.535 16.6085 50.6105 16.4262C50.686 16.2439 50.7967 16.0783 50.9363 15.9388C51.0758 15.7992 51.2414 15.6885 51.4237 15.613C51.606 15.5375 51.8014 15.4986 51.9988 15.4986C52.1961 15.4986 52.3915 15.5375 52.5738 15.613C52.7561 15.6885 52.9217 15.7992 53.0613 15.9388L54.5 17.375V11C54.5 10.6022 54.658 10.2206 54.9393 9.93934C55.2206 9.65804 55.6022 9.5 56 9.5C56.3978 9.5 56.7794 9.65804 57.0607 9.93934C57.342 10.2206 57.5 10.6022 57.5 11V17.375L58.9388 15.935C59.0783 15.7958 59.2439 15.6854 59.4262 15.6103C59.6084 15.5351 59.8037 15.4966 60.0008 15.4969C60.1979 15.4973 60.393 15.5365 60.575 15.6123C60.757 15.6881 60.9222 15.799 61.0613 15.9388Z" fill="white"/>
</g>
<defs>
<clipPath id="clip0_27_5879">
<rect width="72" height="32" rx="5" fill="white"/>
</clipPath>
</defs>
</svg>
