<svg width="72" height="32" viewBox="0 0 72 32" fill="none" xmlns="http://www.w3.org/2000/svg">
<g clip-path="url(#clip0_27_5889)">
<path d="M16 3C13.4288 3 10.9154 3.76244 8.77759 5.1909C6.63975 6.61935 4.97351 8.64968 3.98957 11.0251C3.00563 13.4006 2.74819 16.0144 3.2498 18.5362C3.75141 21.0579 4.98953 23.3743 6.80762 25.1924C8.6257 27.0105 10.9421 28.2486 13.4638 28.7502C15.9856 29.2518 18.5995 28.9944 20.9749 28.0104C23.3503 27.0265 25.3807 25.3603 26.8091 23.2224C28.2376 21.0846 29 18.5712 29 16C28.9964 12.5533 27.6256 9.24882 25.1884 6.81163C22.7512 4.37445 19.4467 3.00364 16 3ZM21 20C21 20.2652 20.8946 20.5196 20.7071 20.7071C20.5196 20.8946 20.2652 21 20 21H14C13.7348 21 13.4804 20.8946 13.2929 20.7071C13.1054 20.5196 13 20.2652 13 20C13 19.7348 13.1054 19.4804 13.2929 19.2929C13.4804 19.1054 13.7348 19 14 19H17.5863L11.2925 12.7075C11.1049 12.5199 10.9994 12.2654 10.9994 12C10.9994 11.7346 11.1049 11.4801 11.2925 11.2925C11.4801 11.1049 11.7346 10.9994 12 10.9994C12.2654 10.9994 12.5199 11.1049 12.7075 11.2925L19 17.5863V14C19 13.7348 19.1054 13.4804 19.2929 13.2929C19.4804 13.1054 19.7348 13 20 13C20.2652 13 20.5196 13.1054 20.7071 13.2929C20.8946 13.4804 21 13.7348 21 14V20Z" fill="white"/>
<path d="M56 2.5C53.33 2.5 50.7199 3.29176 48.4998 4.77516C46.2797 6.25856 44.5494 8.36697 43.5276 10.8338C42.5058 13.3006 42.2385 16.015 42.7594 18.6337C43.2803 21.2525 44.5661 23.6579 46.4541 25.5459C48.3421 27.434 50.7475 28.7197 53.3663 29.2406C55.985 29.7615 58.6994 29.4942 61.1662 28.4724C63.633 27.4506 65.7414 25.7203 67.2248 23.5002C68.7082 21.2801 69.5 18.67 69.5 16C69.496 12.4208 68.0724 8.98932 65.5416 6.45844C63.0107 3.92756 59.5792 2.50397 56 2.5ZM56 26.5C53.9233 26.5 51.8932 25.8842 50.1665 24.7304C48.4398 23.5767 47.094 21.9368 46.2993 20.0182C45.5046 18.0996 45.2966 15.9884 45.7018 13.9516C46.1069 11.9148 47.1069 10.0438 48.5754 8.57538C50.0438 7.10693 51.9148 6.1069 53.9516 5.70175C55.9884 5.29661 58.0996 5.50454 60.0182 6.29926C61.9368 7.09399 63.5767 8.4398 64.7304 10.1665C65.8842 11.8932 66.5 13.9233 66.5 16C66.497 18.7839 65.3898 21.4528 63.4213 23.4213C61.4529 25.3898 58.7839 26.497 56 26.5ZM61.5 14V20C61.5 20.3978 61.342 20.7794 61.0607 21.0607C60.7794 21.342 60.3978 21.5 60 21.5H54C53.6022 21.5 53.2206 21.342 52.9393 21.0607C52.658 20.7794 52.5 20.3978 52.5 20C52.5 19.6022 52.658 19.2206 52.9393 18.9393C53.2206 18.658 53.6022 18.5 54 18.5H56.375L50.9388 13.0612C50.7992 12.9217 50.6885 12.7561 50.613 12.5738C50.5375 12.3915 50.4987 12.1961 50.4987 11.9987C50.4987 11.6002 50.657 11.218 50.9388 10.9362C51.2205 10.6545 51.6027 10.4961 52.0013 10.4961C52.3998 10.4961 52.782 10.6545 53.0638 10.9362L58.5 16.375V14C58.5 13.6022 58.658 13.2206 58.9393 12.9393C59.2207 12.658 59.6022 12.5 60 12.5C60.3978 12.5 60.7794 12.658 61.0607 12.9393C61.342 13.2206 61.5 13.6022 61.5 14Z" fill="white"/>
</g>
<defs>
<clipPath id="clip0_27_5889">
<rect width="72" height="32" rx="5" fill="white"/>
</clipPath>
</defs>
</svg>
