<svg width="72" height="32" viewBox="0 0 72 32" fill="none" xmlns="http://www.w3.org/2000/svg">
<g clip-path="url(#clip0_27_6274)">
<path d="M13.0008 16C13.0008 16.2652 12.8954 16.5196 12.7079 16.7071C12.5204 16.8946 12.266 17 12.0008 17H7.00079V20C7.00094 20.1979 6.94238 20.3914 6.83251 20.556C6.72264 20.7206 6.5664 20.8489 6.38358 20.9246C6.20075 21.0004 5.99956 21.0202 5.80548 20.9815C5.6114 20.9429 5.43314 20.8475 5.29329 20.7075L1.29329 16.7075C1.20031 16.6146 1.12655 16.5043 1.07623 16.3829C1.0259 16.2615 1 16.1314 1 16C1 15.8686 1.0259 15.7385 1.07623 15.6171C1.12655 15.4957 1.20031 15.3854 1.29329 15.2925L5.29329 11.2925C5.43314 11.1525 5.6114 11.0571 5.80548 11.0185C5.99956 10.9798 6.20075 10.9996 6.38358 11.0754C6.5664 11.1511 6.72264 11.2794 6.83251 11.444C6.94238 11.6086 7.00094 11.8021 7.00079 12V15H12.0008C12.266 15 12.5204 15.1054 12.7079 15.2929C12.8954 15.4804 13.0008 15.7348 13.0008 16ZM30.7083 15.2925L26.7083 11.2925C26.5684 11.1525 26.3902 11.0571 26.1961 11.0185C26.002 10.9798 25.8008 10.9996 25.618 11.0754C25.4352 11.1511 25.2789 11.2794 25.1691 11.444C25.0592 11.6086 25.0006 11.8021 25.0008 12V15H20.0008C19.7356 15 19.4812 15.1054 19.2937 15.2929C19.1061 15.4804 19.0008 15.7348 19.0008 16C19.0008 16.2652 19.1061 16.5196 19.2937 16.7071C19.4812 16.8946 19.7356 17 20.0008 17H25.0008V20C25.0006 20.1979 25.0592 20.3914 25.1691 20.556C25.2789 20.7206 25.4352 20.8489 25.618 20.9246C25.8008 21.0004 26.002 21.0202 26.1961 20.9815C26.3902 20.9429 26.5684 20.8475 26.7083 20.7075L30.7083 16.7075C30.8013 16.6146 30.875 16.5043 30.9253 16.3829C30.9757 16.2615 31.0016 16.1314 31.0016 16C31.0016 15.8686 30.9757 15.7385 30.9253 15.6171C30.875 15.4957 30.8013 15.3854 30.7083 15.2925ZM16.0008 4C15.7356 4 15.4812 4.10536 15.2937 4.29289C15.1061 4.48043 15.0008 4.73478 15.0008 5V27C15.0008 27.2652 15.1061 27.5196 15.2937 27.7071C15.4812 27.8946 15.7356 28 16.0008 28C16.266 28 16.5204 27.8946 16.7079 27.7071C16.8954 27.5196 17.0008 27.2652 17.0008 27V5C17.0008 4.73478 16.8954 4.48043 16.7079 4.29289C16.5204 4.10536 16.266 4 16.0008 4Z" fill="white"/>
<path d="M57.4992 5V27C57.4992 27.3978 57.3412 27.7794 57.0599 28.0607C56.7786 28.342 56.3971 28.5 55.9992 28.5C55.6014 28.5 55.2199 28.342 54.9386 28.0607C54.6573 27.7794 54.4992 27.3978 54.4992 27V5C54.4992 4.60218 54.6573 4.22064 54.9386 3.93934C55.2199 3.65804 55.6014 3.5 55.9992 3.5C56.3971 3.5 56.7786 3.65804 57.0599 3.93934C57.3412 4.22064 57.4992 4.60218 57.4992 5ZM50.9992 14.5H45.6242L47.0642 13.0612C47.346 12.7795 47.5043 12.3973 47.5043 11.9987C47.5043 11.6002 47.346 11.218 47.0642 10.9362C46.7824 10.6545 46.4002 10.4961 46.0017 10.4961C45.6032 10.4961 45.221 10.6545 44.9392 10.9362L40.9392 14.9362C40.7994 15.0756 40.6884 15.2412 40.6127 15.4235C40.537 15.6058 40.498 15.8013 40.498 15.9987C40.498 16.1962 40.537 16.3917 40.6127 16.574C40.6884 16.7563 40.7994 16.9219 40.9392 17.0613L44.9392 21.0613C45.221 21.343 45.6032 21.5014 46.0017 21.5014C46.4002 21.5014 46.7824 21.343 47.0642 21.0613C47.346 20.7795 47.5043 20.3973 47.5043 19.9988C47.5043 19.6002 47.346 19.218 47.0642 18.9363L45.6242 17.5H50.9992C51.3971 17.5 51.7786 17.342 52.0599 17.0607C52.3412 16.7794 52.4992 16.3978 52.4992 16C52.4992 15.6022 52.3412 15.2206 52.0599 14.9393C51.7786 14.658 51.3971 14.5 50.9992 14.5ZM71.0605 14.9388L67.0605 10.9388C66.7787 10.657 66.3965 10.4986 65.998 10.4986C65.5995 10.4986 65.2173 10.657 64.9355 10.9388C64.6537 11.2205 64.4954 11.6027 64.4954 12.0013C64.4954 12.3998 64.6537 12.782 64.9355 13.0638L66.3742 14.5H60.9992C60.6014 14.5 60.2199 14.658 59.9386 14.9393C59.6573 15.2206 59.4992 15.6022 59.4992 16C59.4992 16.3978 59.6573 16.7794 59.9386 17.0607C60.2199 17.342 60.6014 17.5 60.9992 17.5H66.3742L64.9342 18.9387C64.6524 19.2205 64.4941 19.6027 64.4941 20.0012C64.4941 20.3998 64.6524 20.782 64.9342 21.0637C65.216 21.3455 65.5982 21.5039 65.9967 21.5039C66.3952 21.5039 66.7774 21.3455 67.0592 21.0637L71.0592 17.0637C71.1992 16.9245 71.3102 16.759 71.386 16.5767C71.4618 16.3944 71.5009 16.1989 71.501 16.0015C71.5012 15.8041 71.4623 15.6086 71.3867 15.4262C71.3111 15.2438 71.2002 15.0782 71.0605 14.9388Z" fill="white"/>
</g>
<defs>
<clipPath id="clip0_27_6274">
<rect width="72" height="32" rx="5" fill="white"/>
</clipPath>
</defs>
</svg>
