<svg width="72" height="32" viewBox="0 0 72 32" fill="none" xmlns="http://www.w3.org/2000/svg">
<g clip-path="url(#clip0_27_6084)">
<path d="M25.7075 17.2925C25.8475 17.4324 25.9429 17.6106 25.9815 17.8047C26.0202 17.9988 26.0004 18.2 25.9246 18.3828C25.8489 18.5656 25.7206 18.7218 25.556 18.8317C25.3914 18.9416 25.1979 19.0002 25 19H17V28C17 28.2652 16.8946 28.5196 16.7071 28.7071C16.5196 28.8946 16.2652 29 16 29C15.7348 29 15.4804 28.8946 15.2929 28.7071C15.1054 28.5196 15 28.2652 15 28V19H7C6.8021 19.0002 6.60861 18.9416 6.44402 18.8317C6.27942 18.7218 6.15113 18.5656 6.07538 18.3828C5.99962 18.2 5.97982 17.9988 6.01847 17.8047C6.05712 17.6106 6.15249 17.4324 6.2925 17.2925L15.2925 8.2925C15.3854 8.19952 15.4957 8.12576 15.6171 8.07544C15.7385 8.02512 15.8686 7.99921 16 7.99921C16.1314 7.99921 16.2615 8.02512 16.3829 8.07544C16.5043 8.12576 16.6146 8.19952 16.7075 8.2925L25.7075 17.2925ZM27 4H5C4.73478 4 4.48043 4.10536 4.29289 4.29289C4.10536 4.48043 4 4.73478 4 5C4 5.26522 4.10536 5.51957 4.29289 5.70711C4.48043 5.89464 4.73478 6 5 6H27C27.2652 6 27.5196 5.89464 27.7071 5.70711C27.8946 5.51957 28 5.26522 28 5C28 4.73478 27.8946 4.48043 27.7071 4.29289C27.5196 4.10536 27.2652 4 27 4Z" fill="white"/>
<path d="M66.0613 17.9387C66.343 18.2205 66.5014 18.6027 66.5014 19.0012C66.5014 19.3998 66.343 19.782 66.0613 20.0637C65.7795 20.3455 65.3973 20.5039 64.9988 20.5039C64.6002 20.5039 64.218 20.3455 63.9363 20.0637L57.5 13.625V28C57.5 28.3978 57.342 28.7794 57.0607 29.0607C56.7794 29.342 56.3978 29.5 56 29.5C55.6022 29.5 55.2206 29.342 54.9393 29.0607C54.658 28.7794 54.5 28.3978 54.5 28V13.625L48.0612 20.0613C47.7795 20.343 47.3973 20.5014 46.9988 20.5014C46.6002 20.5014 46.218 20.343 45.9363 20.0613C45.6545 19.7795 45.4961 19.3973 45.4961 18.9988C45.4961 18.6002 45.6545 18.218 45.9363 17.9363L54.9362 8.93625C55.0756 8.79641 55.2412 8.68545 55.4235 8.60975C55.6058 8.53404 55.8013 8.49507 55.9987 8.49507C56.1962 8.49507 56.3917 8.53404 56.574 8.60975C56.7563 8.68545 56.9219 8.79641 57.0613 8.93625L66.0613 17.9387ZM67 3.5H45C44.6022 3.5 44.2206 3.65804 43.9393 3.93934C43.658 4.22064 43.5 4.60218 43.5 5C43.5 5.39782 43.658 5.77936 43.9393 6.06066C44.2206 6.34196 44.6022 6.5 45 6.5H67C67.3978 6.5 67.7794 6.34196 68.0607 6.06066C68.342 5.77936 68.5 5.39782 68.5 5C68.5 4.60218 68.342 4.22064 68.0607 3.93934C67.7794 3.65804 67.3978 3.5 67 3.5Z" fill="white"/>
</g>
<defs>
<clipPath id="clip0_27_6084">
<rect width="72" height="32" rx="5" fill="white"/>
</clipPath>
</defs>
</svg>
