<svg width="72" height="32" viewBox="0 0 72 32" fill="none" xmlns="http://www.w3.org/2000/svg">
<g clip-path="url(#clip0_27_5909)">
<path d="M16 3C13.4288 3 10.9154 3.76244 8.77759 5.1909C6.63975 6.61935 4.97351 8.64968 3.98957 11.0251C3.00563 13.4006 2.74819 16.0144 3.2498 18.5362C3.75141 21.0579 4.98953 23.3743 6.80762 25.1924C8.6257 27.0105 10.9421 28.2486 13.4638 28.7502C15.9856 29.2518 18.5995 28.9944 20.9749 28.0104C23.3503 27.0265 25.3807 25.3603 26.8091 23.2224C28.2376 21.0846 29 18.5712 29 16C28.9964 12.5533 27.6256 9.24882 25.1884 6.81163C22.7512 4.37445 19.4467 3.00364 16 3ZM20.7075 20.7075C20.6146 20.8005 20.5043 20.8742 20.3829 20.9246C20.2615 20.9749 20.1314 21.0008 20 21.0008C19.8686 21.0008 19.7385 20.9749 19.6171 20.9246C19.4957 20.8742 19.3854 20.8005 19.2925 20.7075L13 14.4137V18C13 18.2652 12.8946 18.5196 12.7071 18.7071C12.5196 18.8946 12.2652 19 12 19C11.7348 19 11.4804 18.8946 11.2929 18.7071C11.1054 18.5196 11 18.2652 11 18V12C11 11.7348 11.1054 11.4804 11.2929 11.2929C11.4804 11.1054 11.7348 11 12 11H18C18.2652 11 18.5196 11.1054 18.7071 11.2929C18.8946 11.4804 19 11.7348 19 12C19 12.2652 18.8946 12.5196 18.7071 12.7071C18.5196 12.8946 18.2652 13 18 13H14.4138L20.7075 19.2925C20.8005 19.3854 20.8742 19.4957 20.9246 19.6171C20.9749 19.7385 21.0008 19.8686 21.0008 20C21.0008 20.1314 20.9749 20.2615 20.9246 20.3829C20.8742 20.5043 20.8005 20.6146 20.7075 20.7075Z" fill="white"/>
<path d="M56 2.5C53.33 2.5 50.7199 3.29176 48.4998 4.77516C46.2797 6.25856 44.5494 8.36697 43.5276 10.8338C42.5058 13.3006 42.2385 16.015 42.7594 18.6337C43.2803 21.2525 44.5661 23.6579 46.4541 25.5459C48.3421 27.434 50.7475 28.7197 53.3663 29.2406C55.985 29.7615 58.6994 29.4942 61.1662 28.4724C63.633 27.4506 65.7414 25.7203 67.2248 23.5002C68.7082 21.2801 69.5 18.67 69.5 16C69.496 12.4208 68.0724 8.98932 65.5416 6.45844C63.0107 3.92756 59.5792 2.50397 56 2.5ZM56 26.5C53.9233 26.5 51.8932 25.8842 50.1665 24.7304C48.4398 23.5767 47.094 21.9368 46.2993 20.0182C45.5046 18.0996 45.2966 15.9884 45.7018 13.9516C46.1069 11.9148 47.1069 10.0438 48.5754 8.57538C50.0438 7.10693 51.9148 6.1069 53.9516 5.70175C55.9884 5.29661 58.0996 5.50454 60.0182 6.29926C61.9368 7.09399 63.5767 8.4398 64.7304 10.1665C65.8842 11.8932 66.5 13.9233 66.5 16C66.497 18.7839 65.3898 21.4528 63.4213 23.4213C61.4529 25.3898 58.7839 26.497 56 26.5ZM61.0613 18.9387C61.343 19.2205 61.5014 19.6027 61.5014 20.0012C61.5014 20.3998 61.343 20.782 61.0613 21.0637C60.7795 21.3455 60.3973 21.5039 59.9988 21.5039C59.6002 21.5039 59.218 21.3455 58.9363 21.0637L53.5 15.625V18C53.5 18.3978 53.342 18.7794 53.0607 19.0607C52.7794 19.342 52.3978 19.5 52 19.5C51.6022 19.5 51.2206 19.342 50.9393 19.0607C50.658 18.7794 50.5 18.3978 50.5 18V12C50.5 11.6022 50.658 11.2206 50.9393 10.9393C51.2206 10.658 51.6022 10.5 52 10.5H58C58.3978 10.5 58.7794 10.658 59.0607 10.9393C59.342 11.2206 59.5 11.6022 59.5 12C59.5 12.3978 59.342 12.7794 59.0607 13.0607C58.7794 13.342 58.3978 13.5 58 13.5H55.625L61.0613 18.9387Z" fill="white"/>
</g>
<defs>
<clipPath id="clip0_27_5909">
<rect width="72" height="32" rx="5" fill="white"/>
</clipPath>
</defs>
</svg>
