<svg width="72" height="32" viewBox="0 0 72 32" fill="none" xmlns="http://www.w3.org/2000/svg">
<g clip-path="url(#clip0_27_6014)">
<path d="M6 9.99999V22C6 22.2652 5.89464 22.5196 5.70711 22.7071C5.51957 22.8946 5.26522 23 5 23C4.73478 23 4.48043 22.8946 4.29289 22.7071C4.10536 22.5196 4 22.2652 4 22V9.99999C4 9.73478 4.10536 9.48042 4.29289 9.29289C4.48043 9.10535 4.73478 8.99999 5 8.99999C5.26522 8.99999 5.51957 9.10535 5.70711 9.29289C5.89464 9.48042 6 9.73478 6 9.99999ZM29.7075 15.2925L17.7075 3.29249C17.5676 3.15248 17.3894 3.05712 17.1953 3.01846C17.0012 2.97981 16.8 2.99962 16.6172 3.07537C16.4344 3.15112 16.2782 3.27942 16.1683 3.44401C16.0584 3.60861 15.9998 3.8021 16 3.99999V8.99999H9C8.73478 8.99999 8.48043 9.10535 8.29289 9.29289C8.10536 9.48042 8 9.73478 8 9.99999V22C8 22.2652 8.10536 22.5196 8.29289 22.7071C8.48043 22.8946 8.73478 23 9 23H16V28C15.9998 28.1979 16.0584 28.3914 16.1683 28.556C16.2782 28.7206 16.4344 28.8489 16.6172 28.9246C16.8 29.0004 17.0012 29.0202 17.1953 28.9815C17.3894 28.9429 17.5676 28.8475 17.7075 28.7075L29.7075 16.7075C29.8005 16.6146 29.8742 16.5043 29.9246 16.3829C29.9749 16.2615 30.0008 16.1314 30.0008 16C30.0008 15.8686 29.9749 15.7385 29.9246 15.6171C29.8742 15.4957 29.8005 15.3854 29.7075 15.2925Z" fill="white"/>
<path d="M70.0613 14.9387L58.0613 2.93874C57.8515 2.72872 57.5841 2.58567 57.293 2.5277C57.0018 2.46972 56.7001 2.49943 56.4258 2.61306C56.1516 2.72669 55.9172 2.91913 55.7524 3.16602C55.5876 3.41291 55.4998 3.70315 55.5 3.99999V8.49999H50C49.6022 8.49999 49.2206 8.65803 48.9393 8.93933C48.658 9.22063 48.5 9.60217 48.5 9.99999V22C48.5 22.3978 48.658 22.7793 48.9393 23.0606C49.2206 23.342 49.6022 23.5 50 23.5H55.5V28C55.4998 28.2968 55.5876 28.5871 55.7524 28.834C55.9172 29.0809 56.1516 29.2733 56.4258 29.3869C56.7001 29.5006 57.0018 29.5303 57.293 29.4723C57.5841 29.4143 57.8515 29.2713 58.0613 29.0612L70.0613 17.0612C70.2007 16.9219 70.3114 16.7565 70.3868 16.5744C70.4623 16.3923 70.5012 16.1971 70.5012 16C70.5012 15.8029 70.4623 15.6077 70.3868 15.4256C70.3114 15.2435 70.2007 15.0781 70.0613 14.9387ZM58.5 24.375V22C58.5 21.6022 58.342 21.2206 58.0607 20.9393C57.7794 20.658 57.3978 20.5 57 20.5H51.5V11.5H57C57.3978 11.5 57.7794 11.342 58.0607 11.0607C58.342 10.7793 58.5 10.3978 58.5 9.99999V7.62499L66.875 16L58.5 24.375ZM46.5 9.99999V22C46.5 22.3978 46.342 22.7793 46.0607 23.0606C45.7794 23.342 45.3978 23.5 45 23.5C44.6022 23.5 44.2206 23.342 43.9393 23.0606C43.658 22.7793 43.5 22.3978 43.5 22V9.99999C43.5 9.60217 43.658 9.22063 43.9393 8.93933C44.2206 8.65803 44.6022 8.49999 45 8.49999C45.3978 8.49999 45.7794 8.65803 46.0607 8.93933C46.342 9.22063 46.5 9.60217 46.5 9.99999Z" fill="white"/>
</g>
<defs>
<clipPath id="clip0_27_6014">
<rect width="72" height="32" rx="5" fill="white"/>
</clipPath>
</defs>
</svg>
