<svg width="72" height="32" viewBox="0 0 72 32" fill="none" xmlns="http://www.w3.org/2000/svg">
<g clip-path="url(#clip0_27_6114)">
<path d="M26 4H6C5.46957 4 4.96086 4.21071 4.58579 4.58579C4.21071 4.96086 4 5.46957 4 6V26C4 26.5304 4.21071 27.0391 4.58579 27.4142C4.96086 27.7893 5.46957 28 6 28H26C26.5304 28 27.0391 27.7893 27.4142 27.4142C27.7893 27.0391 28 26.5304 28 26V6C28 5.46957 27.7893 4.96086 27.4142 4.58579C27.0391 4.21071 26.5304 4 26 4ZM21 20C21 20.2652 20.8946 20.5196 20.7071 20.7071C20.5196 20.8946 20.2652 21 20 21H14C13.7348 21 13.4804 20.8946 13.2929 20.7071C13.1054 20.5196 13 20.2652 13 20C13 19.7348 13.1054 19.4804 13.2929 19.2929C13.4804 19.1054 13.7348 19 14 19H17.5863L11.2925 12.7075C11.1049 12.5199 10.9994 12.2654 10.9994 12C10.9994 11.7346 11.1049 11.4801 11.2925 11.2925C11.4801 11.1049 11.7346 10.9994 12 10.9994C12.2654 10.9994 12.5199 11.1049 12.7075 11.2925L19 17.5863V14C19 13.7348 19.1054 13.4804 19.2929 13.2929C19.4804 13.1054 19.7348 13 20 13C20.2652 13 20.5196 13.1054 20.7071 13.2929C20.8946 13.4804 21 13.7348 21 14V20Z" fill="white"/>
<path d="M66 3.5H46C45.337 3.5 44.7011 3.76339 44.2322 4.23223C43.7634 4.70107 43.5 5.33696 43.5 6V26C43.5 26.663 43.7634 27.2989 44.2322 27.7678C44.7011 28.2366 45.337 28.5 46 28.5H66C66.663 28.5 67.2989 28.2366 67.7678 27.7678C68.2366 27.2989 68.5 26.663 68.5 26V6C68.5 5.33696 68.2366 4.70107 67.7678 4.23223C67.2989 3.76339 66.663 3.5 66 3.5ZM65.5 25.5H46.5V6.5H65.5V25.5ZM50.9388 13.0612C50.7992 12.9217 50.6885 12.7561 50.613 12.5738C50.5375 12.3915 50.4986 12.1961 50.4986 11.9987C50.4986 11.6002 50.657 11.218 50.9388 10.9362C51.2205 10.6545 51.6027 10.4961 52.0013 10.4961C52.3998 10.4961 52.782 10.6545 53.0638 10.9362L58.5 16.375V14C58.5 13.6022 58.658 13.2206 58.9393 12.9393C59.2206 12.658 59.6022 12.5 60 12.5C60.3978 12.5 60.7794 12.658 61.0607 12.9393C61.342 13.2206 61.5 13.6022 61.5 14V20C61.5 20.3978 61.342 20.7794 61.0607 21.0607C60.7794 21.342 60.3978 21.5 60 21.5H54C53.6022 21.5 53.2206 21.342 52.9393 21.0607C52.658 20.7794 52.5 20.3978 52.5 20C52.5 19.6022 52.658 19.2206 52.9393 18.9393C53.2206 18.658 53.6022 18.5 54 18.5H56.375L50.9388 13.0612Z" fill="white"/>
</g>
<defs>
<clipPath id="clip0_27_6114">
<rect width="72" height="32" rx="5" fill="white"/>
</clipPath>
</defs>
</svg>
