<svg width="72" height="32" viewBox="0 0 72 32" fill="none" xmlns="http://www.w3.org/2000/svg">
<g clip-path="url(#clip0_27_6179)">
<path d="M27.9237 10.3825C27.8481 10.5652 27.72 10.7214 27.5555 10.8314C27.3911 10.9413 27.1978 11 27 11H22V21C22 23.1217 21.1571 25.1566 19.6569 26.6568C18.1566 28.1571 16.1217 29 14 29C11.8783 29 9.84344 28.1571 8.34315 26.6568C6.84285 25.1566 6 23.1217 6 21V9.99999C6 9.73478 6.10536 9.48042 6.29289 9.29289C6.48043 9.10535 6.73478 8.99999 7 8.99999C7.26522 8.99999 7.51957 9.10535 7.70711 9.29289C7.89464 9.48042 8 9.73478 8 9.99999V21C8 22.5913 8.63214 24.1174 9.75736 25.2426C10.8826 26.3679 12.4087 27 14 27C15.5913 27 17.1174 26.3679 18.2426 25.2426C19.3679 24.1174 20 22.5913 20 21V11H15C14.8021 11.0001 14.6086 10.9416 14.444 10.8317C14.2794 10.7218 14.1511 10.5656 14.0754 10.3828C13.9996 10.2 13.9798 9.99877 14.0185 9.80469C14.0571 9.6106 14.1525 9.43235 14.2925 9.29249L20.2925 3.29249C20.3854 3.19952 20.4957 3.12576 20.6171 3.07543C20.7385 3.02511 20.8686 2.99921 21 2.99921C21.1314 2.99921 21.2615 3.02511 21.3829 3.07543C21.5043 3.12576 21.6146 3.19952 21.7075 3.29249L27.7075 9.29249C27.8473 9.43242 27.9425 9.61067 27.981 9.80469C28.0195 9.99871 27.9995 10.1998 27.9237 10.3825Z" fill="white"/>
<path d="M68.0613 11.0612C67.9219 11.2011 67.7563 11.312 67.574 11.3877C67.3917 11.4635 67.1962 11.5024 66.9988 11.5024C66.8013 11.5024 66.6059 11.4635 66.4235 11.3877C66.2412 11.312 66.0756 11.2011 65.9363 11.0612L62.5 7.62499V21C62.5 23.2543 61.6045 25.4163 60.0104 27.0104C58.4163 28.6045 56.2543 29.5 54 29.5C51.7457 29.5 49.5837 28.6045 47.9896 27.0104C46.3955 25.4163 45.5 23.2543 45.5 21V9.99999C45.5 9.60216 45.658 9.22063 45.9393 8.93933C46.2206 8.65802 46.6022 8.49999 47 8.49999C47.3978 8.49999 47.7794 8.65802 48.0607 8.93933C48.342 9.22063 48.5 9.60216 48.5 9.99999V21C48.5 22.4587 49.0795 23.8576 50.1109 24.8891C51.1424 25.9205 52.5413 26.5 54 26.5C55.4587 26.5 56.8576 25.9205 57.8891 24.8891C58.9205 23.8576 59.5 22.4587 59.5 21V7.62499L56.0613 11.0612C55.9217 11.2008 55.7561 11.3115 55.5738 11.387C55.3915 11.4625 55.1961 11.5013 54.9987 11.5013C54.8014 11.5013 54.606 11.4625 54.4237 11.387C54.2414 11.3115 54.0758 11.2008 53.9362 11.0612C53.7967 10.9217 53.686 10.7561 53.6105 10.5738C53.535 10.3915 53.4961 10.1961 53.4961 9.99874C53.4961 9.80141 53.535 9.60602 53.6105 9.42372C53.686 9.24141 53.7967 9.07577 53.9362 8.93624L59.9363 2.93624C60.0756 2.7964 60.2412 2.68544 60.4235 2.60974C60.6059 2.53403 60.8013 2.49506 60.9988 2.49506C61.1962 2.49506 61.3917 2.53403 61.574 2.60974C61.7563 2.68544 61.9219 2.7964 62.0613 2.93624L68.0613 8.93624C68.2011 9.07559 68.312 9.24118 68.3878 9.42351C68.4635 9.60584 68.5024 9.80132 68.5024 9.99874C68.5024 10.1962 68.4635 10.3916 68.3878 10.574C68.312 10.7563 68.2011 10.9219 68.0613 11.0612Z" fill="white"/>
</g>
<defs>
<clipPath id="clip0_27_6179">
<rect width="72" height="32" rx="5" fill="white"/>
</clipPath>
</defs>
</svg>
