<svg width="72" height="32" viewBox="0 0 72 32" fill="none" xmlns="http://www.w3.org/2000/svg">
<g clip-path="url(#clip0_27_5919)">
<path d="M30.0007 7V13C30.0007 13.2652 29.8953 13.5196 29.7078 13.7071C29.5202 13.8946 29.2659 14 29.0007 14H23.0007C22.8028 14.0002 22.6093 13.9416 22.4447 13.8317C22.2801 13.7219 22.1518 13.5656 22.076 13.3828C22.0003 13.2 21.9805 12.9988 22.0191 12.8047C22.0578 12.6106 22.1531 12.4324 22.2932 12.2925L24.4182 10.1675L23.0994 8.96125L23.0682 8.93125C21.6782 7.54187 19.9098 6.59283 17.9836 6.20269C16.0575 5.81255 14.059 5.99861 12.238 6.73763C10.417 7.47665 8.85411 8.73586 7.74458 10.358C6.63505 11.9801 6.02808 13.8931 5.99949 15.8582C5.9709 17.8232 6.52196 19.7532 7.58383 21.4068C8.64569 23.0605 10.1713 24.3647 11.97 25.1564C13.7688 25.9481 15.7609 26.1922 17.6976 25.8582C19.6343 25.5243 21.4297 24.6271 22.8594 23.2788C22.9549 23.1885 23.0672 23.1179 23.1899 23.071C23.3126 23.0241 23.4434 23.0019 23.5748 23.0055C23.7061 23.0092 23.8354 23.0387 23.9554 23.0923C24.0753 23.1459 24.1835 23.2227 24.2738 23.3181C24.3641 23.4136 24.4347 23.5259 24.4816 23.6486C24.5284 23.7714 24.5507 23.9021 24.547 24.0335C24.5434 24.1648 24.5139 24.2941 24.4602 24.4141C24.4066 24.534 24.3299 24.6422 24.2344 24.7325C22.0109 26.838 19.0629 28.0079 16.0007 28H15.8357C13.8703 27.9731 11.9417 27.4638 10.2193 26.517C8.49686 25.5702 7.03339 24.2147 5.95748 22.5698C4.88158 20.9249 4.22619 19.0409 4.04891 17.0834C3.87164 15.1259 4.1779 13.1549 4.9408 11.3435C5.70369 9.53203 6.89985 7.93574 8.42415 6.69487C9.94844 5.454 11.7542 4.60655 13.6827 4.227C15.6112 3.84744 17.6035 3.94741 19.4843 4.51811C21.3651 5.08881 23.077 6.11278 24.4694 7.5L25.8357 8.75L28.2932 6.2875C28.4333 6.14719 28.612 6.05171 28.8066 6.01322C29.0011 5.97472 29.2027 5.99495 29.3858 6.07132C29.5688 6.1477 29.725 6.27677 29.8345 6.44213C29.944 6.6075 30.0018 6.80168 30.0007 7Z" fill="white"/>
<path d="M70.5009 7V13C70.5009 13.3978 70.3429 13.7794 70.0616 14.0607C69.7803 14.342 69.3988 14.5 69.0009 14.5H63.0009C62.6031 14.5 62.2216 14.342 61.9403 14.0607C61.659 13.7794 61.5009 13.3978 61.5009 13C61.5009 12.6022 61.659 12.2206 61.9403 11.9393C62.2216 11.658 62.6031 11.5 63.0009 11.5H65.1384L62.7634 9.3275C62.7472 9.3125 62.7309 9.2975 62.7159 9.28125C61.6147 8.18069 60.2599 7.36765 58.7706 6.91367C57.2814 6.45968 55.7034 6.37867 54.1755 6.67775C52.6476 6.97682 51.2167 7.64683 50.0085 8.62882C48.8004 9.6108 47.8521 10.8747 47.2471 12.3092C46.6421 13.7437 46.3989 15.305 46.539 16.8556C46.6791 18.4061 47.1981 19.8985 48.0504 21.2014C48.9027 22.5043 50.0621 23.5778 51.4267 24.3273C52.7913 25.0769 54.3192 25.4796 55.8759 25.5H56.0009C58.4258 25.5058 60.76 24.5784 62.5197 22.91C62.8089 22.6367 63.1949 22.4894 63.5927 22.5007C63.9906 22.5119 64.3676 22.6807 64.6409 22.97C64.9143 23.2592 65.0615 23.6452 65.0503 24.043C65.039 24.4409 64.8702 24.8179 64.5809 25.0912C62.2645 27.2868 59.1925 28.5073 56.0009 28.5H55.8297C53.7835 28.4712 51.7757 27.9404 49.9825 26.9543C48.1894 25.9682 46.6658 24.557 45.5455 22.8445C44.4251 21.132 43.7424 19.1706 43.5572 17.1326C43.3719 15.0947 43.6899 13.0424 44.4831 11.1559C45.2764 9.26955 46.5206 7.60674 48.1066 6.31354C49.6926 5.02034 51.5718 4.13629 53.5793 3.73903C55.5867 3.34177 57.661 3.44344 59.62 4.03512C61.579 4.6268 63.3628 5.69039 64.8147 7.1325L67.5009 9.59V7C67.5009 6.60217 67.659 6.22064 67.9403 5.93933C68.2216 5.65803 68.6031 5.5 69.0009 5.5C69.3988 5.5 69.7803 5.65803 70.0616 5.93933C70.3429 6.22064 70.5009 6.60217 70.5009 7Z" fill="white"/>
</g>
<defs>
<clipPath id="clip0_27_5919">
<rect width="72" height="32" rx="5" fill="white"/>
</clipPath>
</defs>
</svg>
