<svg width="72" height="32" viewBox="0 0 72 32" fill="none" xmlns="http://www.w3.org/2000/svg">
<g clip-path="url(#clip0_27_6089)">
<path d="M8 18V6C8 5.73478 8.10536 5.48043 8.29289 5.29289C8.48043 5.10536 8.73478 5 9 5H21C21.1979 4.99984 21.3914 5.05841 21.556 5.16828C21.7206 5.27815 21.8489 5.43439 21.9246 5.61721C22.0004 5.80003 22.0202 6.00122 21.9815 6.19531C21.9429 6.38939 21.8475 6.56764 21.7075 6.7075L16.4137 12L23.7075 19.2925C23.8004 19.3854 23.8741 19.4957 23.9244 19.6171C23.9747 19.7385 24.0006 19.8686 24.0006 20C24.0006 20.1314 23.9747 20.2615 23.9244 20.3829C23.8741 20.5043 23.8004 20.6146 23.7075 20.7075C23.6146 20.8004 23.5043 20.8741 23.3829 20.9244C23.2615 20.9747 23.1314 21.0006 23 21.0006C22.8686 21.0006 22.7385 20.9747 22.6171 20.9244C22.4957 20.8741 22.3854 20.8004 22.2925 20.7075L15 13.4137L9.7075 18.7075C9.56765 18.8475 9.38939 18.9429 9.19531 18.9815C9.00122 19.0202 8.80003 19.0004 8.61721 18.9246C8.43439 18.8489 8.27815 18.7206 8.16828 18.556C8.05841 18.3914 7.99984 18.1979 8 18ZM28 25H6C5.73478 25 5.48043 25.1054 5.29289 25.2929C5.10536 25.4804 5 25.7348 5 26C5 26.2652 5.10536 26.5196 5.29289 26.7071C5.48043 26.8946 5.73478 27 6 27H28C28.2652 27 28.5196 26.8946 28.7071 26.7071C28.8946 26.5196 29 26.2652 29 26C29 25.7348 28.8946 25.4804 28.7071 25.2929C28.5196 25.1054 28.2652 25 28 25Z" fill="white"/>
<path d="M69.5 26C69.5 26.3978 69.342 26.7794 69.0607 27.0607C68.7794 27.342 68.3978 27.5 68 27.5H46C45.6022 27.5 45.2206 27.342 44.9393 27.0607C44.658 26.7794 44.5 26.3978 44.5 26C44.5 25.6022 44.658 25.2206 44.9393 24.9393C45.2206 24.658 45.6022 24.5 46 24.5H68C68.3978 24.5 68.7794 24.658 69.0607 24.9393C69.342 25.2206 69.5 25.6022 69.5 26ZM49 19.5C49.3978 19.5 49.7794 19.342 50.0607 19.0607C50.342 18.7794 50.5 18.3978 50.5 18V9.625L61.9387 21.065C62.2205 21.3468 62.6027 21.5051 63.0012 21.5051C63.3998 21.5051 63.782 21.3468 64.0637 21.065C64.3455 20.7832 64.5039 20.401 64.5039 20.0025C64.5039 19.604 64.3455 19.2218 64.0637 18.94L52.625 7.5H61C61.3978 7.5 61.7794 7.34196 62.0607 7.06066C62.342 6.77936 62.5 6.39782 62.5 6C62.5 5.60218 62.342 5.22064 62.0607 4.93934C61.7794 4.65804 61.3978 4.5 61 4.5H49C48.6022 4.5 48.2206 4.65804 47.9393 4.93934C47.658 5.22064 47.5 5.60218 47.5 6V18C47.5 18.3978 47.658 18.7794 47.9393 19.0607C48.2206 19.342 48.6022 19.5 49 19.5Z" fill="white"/>
</g>
<defs>
<clipPath id="clip0_27_6089">
<rect width="72" height="32" rx="5" fill="white"/>
</clipPath>
</defs>
</svg>
