<svg width="72" height="32" viewBox="0 0 72 32" fill="none" xmlns="http://www.w3.org/2000/svg">
<g clip-path="url(#clip0_27_6289)">
<path d="M28.7083 23.7075L24.7083 27.7075C24.6154 27.8005 24.5051 27.8742 24.3837 27.9246C24.2623 27.9749 24.1322 28.0008 24.0008 28.0008C23.8694 28.0008 23.7392 27.9749 23.6178 27.9246C23.4964 27.8742 23.3862 27.8005 23.2933 27.7075L19.2933 23.7075C19.1533 23.5676 19.0579 23.3894 19.0193 23.1953C18.9806 23.0012 19.0004 22.8 19.0762 22.6172C19.1519 22.4344 19.2802 22.2782 19.4448 22.1683C19.6094 22.0584 19.8029 21.9998 20.0008 22H23.0008V17.4137L16.0008 10.4137L9.00079 17.4137V22H12.0008C12.1987 21.9998 12.3922 22.0584 12.5568 22.1683C12.7214 22.2782 12.8497 22.4344 12.9254 22.6172C13.0012 22.8 13.021 23.0012 12.9823 23.1953C12.9437 23.3894 12.8483 23.5676 12.7083 23.7075L8.70829 27.7075C8.61542 27.8005 8.50513 27.8742 8.38373 27.9246C8.26233 27.9749 8.1322 28.0008 8.00079 28.0008C7.86937 28.0008 7.73925 27.9749 7.61785 27.9246C7.49645 27.8742 7.38616 27.8005 7.29329 27.7075L3.29329 23.7075C3.15328 23.5676 3.05791 23.3894 3.01926 23.1953C2.98061 23.0012 3.00041 22.8 3.07616 22.6172C3.15192 22.4344 3.28021 22.2782 3.44481 22.1683C3.6094 22.0584 3.80289 21.9998 4.00079 22H7.00079V17C7.00068 16.8686 7.02646 16.7385 7.07665 16.6171C7.12684 16.4958 7.20045 16.3854 7.29329 16.2925L15.0008 8.58625V3C15.0008 2.73478 15.1061 2.48043 15.2937 2.29289C15.4812 2.10536 15.7356 2 16.0008 2C16.266 2 16.5204 2.10536 16.7079 2.29289C16.8954 2.48043 17.0008 2.73478 17.0008 3V8.58625L24.7083 16.2925C24.8011 16.3854 24.8747 16.4958 24.9249 16.6171C24.9751 16.7385 25.0009 16.8686 25.0008 17V22H28.0008C28.1987 21.9998 28.3922 22.0584 28.5568 22.1683C28.7214 22.2782 28.8497 22.4344 28.9254 22.6172C29.0012 22.8 29.021 23.0012 28.9823 23.1953C28.9437 23.3894 28.8483 23.5676 28.7083 23.7075Z" fill="white"/>
<path d="M69.0606 24.0613L65.0606 28.0613C64.9213 28.2011 64.7557 28.312 64.5734 28.3878C64.3911 28.4635 64.1956 28.5024 63.9981 28.5024C63.8007 28.5024 63.6052 28.4635 63.4229 28.3878C63.2406 28.312 63.075 28.2011 62.9356 28.0613L58.9356 24.0613C58.6539 23.7795 58.4955 23.3973 58.4955 22.9988C58.4955 22.6002 58.6539 22.218 58.9356 21.9363C59.2174 21.6545 59.5996 21.4961 59.9981 21.4961C60.3967 21.4961 60.7789 21.6545 61.0606 21.9363L62.4994 23.375V17.625L55.9994 11.125L49.4994 17.625V23.375L50.9381 21.935C51.2199 21.6532 51.6021 21.4949 52.0006 21.4949C52.3992 21.4949 52.7814 21.6532 53.0631 21.935C53.3449 22.2168 53.5033 22.599 53.5033 22.9975C53.5033 23.396 53.3449 23.7782 53.0631 24.06L49.0631 28.06C48.9238 28.1998 48.7582 28.3108 48.5759 28.3865C48.3935 28.4622 48.1981 28.5012 48.0006 28.5012C47.8032 28.5012 47.6077 28.4622 47.4254 28.3865C47.2431 28.3108 47.0775 28.1998 46.9381 28.06L42.9381 24.06C42.6564 23.7782 42.498 23.396 42.498 22.9975C42.498 22.599 42.6564 22.2168 42.9381 21.935C43.2199 21.6532 43.6021 21.4949 44.0006 21.4949C44.3992 21.4949 44.7814 21.6532 45.0631 21.935L46.4994 23.375V17C46.4992 16.803 46.5379 16.6078 46.6132 16.4257C46.6885 16.2436 46.7989 16.0782 46.9381 15.9388L54.4994 8.375V3C54.4994 2.60218 54.6574 2.22064 54.9387 1.93934C55.22 1.65804 55.6016 1.5 55.9994 1.5C56.3972 1.5 56.7788 1.65804 57.0601 1.93934C57.3414 2.22064 57.4994 2.60218 57.4994 3V8.375L65.0606 15.935C65.2003 16.0749 65.311 16.2409 65.3863 16.4237C65.4616 16.6065 65.5 16.8023 65.4994 17V23.375L66.9381 21.935C67.0777 21.7955 67.2433 21.6848 67.4256 21.6093C67.6079 21.5338 67.8033 21.4949 68.0006 21.4949C68.198 21.4949 68.3934 21.5338 68.5757 21.6093C68.758 21.6848 68.9236 21.7955 69.0631 21.935C69.2027 22.0745 69.3134 22.2402 69.3889 22.4225C69.4644 22.6048 69.5033 22.8002 69.5033 22.9975C69.5033 23.1948 69.4644 23.3902 69.3889 23.5725C69.3134 23.7548 69.2027 23.9205 69.0631 24.06L69.0606 24.0613Z" fill="white"/>
</g>
<defs>
<clipPath id="clip0_27_6289">
<rect width="72" height="32" rx="5" fill="white"/>
</clipPath>
</defs>
</svg>
