<svg width="72" height="32" viewBox="0 0 72 32" fill="none" xmlns="http://www.w3.org/2000/svg">
<g clip-path="url(#clip0_27_6109)">
<path d="M26 4H6C5.46957 4 4.96086 4.21071 4.58579 4.58579C4.21071 4.96086 4 5.46957 4 6V26C4 26.5304 4.21071 27.0391 4.58579 27.4142C4.96086 27.7893 5.46957 28 6 28H26C26.5304 28 27.0391 27.7893 27.4142 27.4142C27.7893 27.0391 28 26.5304 28 26V6C28 5.46957 27.7893 4.96086 27.4142 4.58579C27.0391 4.21071 26.5304 4 26 4ZM20.7075 12.7075L14.4137 19H18C18.2652 19 18.5196 19.1054 18.7071 19.2929C18.8946 19.4804 19 19.7348 19 20C19 20.2652 18.8946 20.5196 18.7071 20.7071C18.5196 20.8946 18.2652 21 18 21H12C11.7348 21 11.4804 20.8946 11.2929 20.7071C11.1054 20.5196 11 20.2652 11 20V14C11 13.7348 11.1054 13.4804 11.2929 13.2929C11.4804 13.1054 11.7348 13 12 13C12.2652 13 12.5196 13.1054 12.7071 13.2929C12.8946 13.4804 13 13.7348 13 14V17.5863L19.2925 11.2925C19.3854 11.1996 19.4957 11.1259 19.6171 11.0756C19.7385 11.0253 19.8686 10.9994 20 10.9994C20.1314 10.9994 20.2615 11.0253 20.3829 11.0756C20.5043 11.1259 20.6146 11.1996 20.7075 11.2925C20.8004 11.3854 20.8741 11.4957 20.9244 11.6171C20.9747 11.7385 21.0006 11.8686 21.0006 12C21.0006 12.1314 20.9747 12.2615 20.9244 12.3829C20.8741 12.5043 20.8004 12.6146 20.7075 12.7075Z" fill="white"/>
<path d="M66 3.5H46C45.337 3.5 44.7011 3.76339 44.2322 4.23223C43.7634 4.70107 43.5 5.33696 43.5 6V26C43.5 26.663 43.7634 27.2989 44.2322 27.7678C44.7011 28.2366 45.337 28.5 46 28.5H66C66.663 28.5 67.2989 28.2366 67.7678 27.7678C68.2366 27.2989 68.5 26.663 68.5 26V6C68.5 5.33696 68.2366 4.70107 67.7678 4.23223C67.2989 3.76339 66.663 3.5 66 3.5ZM65.5 25.5H46.5V6.5H65.5V25.5ZM50.5 20V14C50.5 13.6022 50.658 13.2206 50.9393 12.9393C51.2206 12.658 51.6022 12.5 52 12.5C52.3978 12.5 52.7794 12.658 53.0607 12.9393C53.342 13.2206 53.5 13.6022 53.5 14V16.375L58.9387 10.935C59.2205 10.6532 59.6027 10.4949 60.0012 10.4949C60.3998 10.4949 60.782 10.6532 61.0637 10.935C61.3455 11.2168 61.5039 11.599 61.5039 11.9975C61.5039 12.396 61.3455 12.7782 61.0637 13.06L55.625 18.5H58C58.3978 18.5 58.7794 18.658 59.0607 18.9393C59.342 19.2206 59.5 19.6022 59.5 20C59.5 20.3978 59.342 20.7794 59.0607 21.0607C58.7794 21.342 58.3978 21.5 58 21.5H52C51.6022 21.5 51.2206 21.342 50.9393 21.0607C50.658 20.7794 50.5 20.3978 50.5 20Z" fill="white"/>
</g>
<defs>
<clipPath id="clip0_27_6109">
<rect width="72" height="32" rx="5" fill="white"/>
</clipPath>
</defs>
</svg>
