<svg width="72" height="32" viewBox="0 0 72 32" fill="none" xmlns="http://www.w3.org/2000/svg">
<g clip-path="url(#clip0_27_5974)">
<path d="M28.7075 20.7075L22.7075 26.7075C22.6146 26.8005 22.5043 26.8742 22.3829 26.9246C22.2615 26.9749 22.1314 27.0008 22 27.0008C21.8686 27.0008 21.7385 26.9749 21.6171 26.9246C21.4957 26.8742 21.3854 26.8005 21.2925 26.7075L15.2925 20.7075C15.1525 20.5676 15.0571 20.3894 15.0185 20.1953C14.9798 20.0012 14.9996 19.8 15.0754 19.6172C15.1511 19.4344 15.2794 19.2782 15.444 19.1683C15.6086 19.0584 15.8021 18.9998 16 19H21V9H4C3.73478 9 3.48043 8.89464 3.29289 8.70711C3.10536 8.51957 3 8.26522 3 8C3 7.73478 3.10536 7.48043 3.29289 7.29289C3.48043 7.10536 3.73478 7 4 7H22C22.2652 7 22.5196 7.10536 22.7071 7.29289C22.8946 7.48043 23 7.73478 23 8V19H28C28.1979 18.9998 28.3914 19.0584 28.556 19.1683C28.7206 19.2782 28.8489 19.4344 28.9246 19.6172C29.0004 19.8 29.0202 20.0012 28.9815 20.1953C28.9429 20.3894 28.8475 20.5676 28.7075 20.7075Z" fill="white"/>
<path d="M69.0613 21.0613L63.0613 27.0613C62.9219 27.2011 62.7563 27.312 62.574 27.3878C62.3917 27.4635 62.1962 27.5024 61.9988 27.5024C61.8013 27.5024 61.6059 27.4635 61.4235 27.3878C61.2412 27.312 61.0756 27.2011 60.9363 27.0613L54.9362 21.0613C54.7967 20.9217 54.686 20.7561 54.6105 20.5738C54.535 20.3915 54.4961 20.1961 54.4961 19.9988C54.4961 19.8014 54.535 19.606 54.6105 19.4237C54.686 19.2414 54.7967 19.0758 54.9362 18.9363C55.0758 18.7967 55.2414 18.686 55.4237 18.6105C55.606 18.535 55.8014 18.4961 55.9987 18.4961C56.1961 18.4961 56.3915 18.535 56.5738 18.6105C56.7561 18.686 56.9217 18.7967 57.0613 18.9363L60.5 22.375V9.5H44C43.6022 9.5 43.2206 9.34196 42.9393 9.06066C42.658 8.77936 42.5 8.39782 42.5 8C42.5 7.60218 42.658 7.22064 42.9393 6.93934C43.2206 6.65804 43.6022 6.5 44 6.5H62C62.3978 6.5 62.7794 6.65804 63.0607 6.93934C63.342 7.22064 63.5 7.60218 63.5 8V22.375L66.9387 18.935C67.0783 18.7955 67.2439 18.6848 67.4262 18.6093C67.6085 18.5338 67.8039 18.4949 68.0012 18.4949C68.1986 18.4949 68.394 18.5338 68.5763 18.6093C68.7586 18.6848 68.9242 18.7955 69.0637 18.935C69.2033 19.0745 69.314 19.2402 69.3895 19.4225C69.465 19.6048 69.5039 19.8002 69.5039 19.9975C69.5039 20.1948 69.465 20.3902 69.3895 20.5725C69.314 20.7548 69.2033 20.9205 69.0637 21.06L69.0613 21.0613Z" fill="white"/>
</g>
<defs>
<clipPath id="clip0_27_5974">
<rect width="72" height="32" rx="5" fill="white"/>
</clipPath>
</defs>
</svg>
