<svg width="72" height="32" viewBox="0 0 72 32" fill="none" xmlns="http://www.w3.org/2000/svg">
<g clip-path="url(#clip0_27_6139)">
<path d="M26 4H6C5.46957 4 4.96086 4.21071 4.58579 4.58579C4.21071 4.96086 4 5.46957 4 6V26C4 26.5304 4.21071 27.0391 4.58579 27.4142C4.96086 27.7893 5.46957 28 6 28H26C26.5304 28 27.0391 27.7893 27.4142 27.4142C27.7893 27.0391 28 26.5304 28 26V6C28 5.46957 27.7893 4.96086 27.4142 4.58579C27.0391 4.21071 26.5304 4 26 4ZM20.7075 15.7075C20.6146 15.8005 20.5043 15.8742 20.3829 15.9246C20.2615 15.9749 20.1314 16.0008 20 16.0008C19.8686 16.0008 19.7385 15.9749 19.6171 15.9246C19.4957 15.8742 19.3854 15.8005 19.2925 15.7075L17 13.4137V21C17 21.2652 16.8946 21.5196 16.7071 21.7071C16.5196 21.8946 16.2652 22 16 22C15.7348 22 15.4804 21.8946 15.2929 21.7071C15.1054 21.5196 15 21.2652 15 21V13.4137L12.7075 15.7075C12.5199 15.8951 12.2654 16.0006 12 16.0006C11.7346 16.0006 11.4801 15.8951 11.2925 15.7075C11.1049 15.5199 10.9994 15.2654 10.9994 15C10.9994 14.7346 11.1049 14.4801 11.2925 14.2925L15.2925 10.2925C15.3854 10.1995 15.4957 10.1258 15.6171 10.0754C15.7385 10.0251 15.8686 9.99921 16 9.99921C16.1314 9.99921 16.2615 10.0251 16.3829 10.0754C16.5043 10.1258 16.6146 10.1995 16.7075 10.2925L20.7075 14.2925C20.8005 14.3854 20.8742 14.4957 20.9246 14.6171C20.9749 14.7385 21.0008 14.8686 21.0008 15C21.0008 15.1314 20.9749 15.2615 20.9246 15.3829C20.8742 15.5043 20.8005 15.6146 20.7075 15.7075Z" fill="white"/>
<path d="M66 3.5H46C45.337 3.5 44.7011 3.76339 44.2322 4.23223C43.7634 4.70107 43.5 5.33696 43.5 6V26C43.5 26.663 43.7634 27.2989 44.2322 27.7678C44.7011 28.2366 45.337 28.5 46 28.5H66C66.663 28.5 67.2989 28.2366 67.7678 27.7678C68.2366 27.2989 68.5 26.663 68.5 26V6C68.5 5.33696 68.2366 4.70107 67.7678 4.23223C67.2989 3.76339 66.663 3.5 66 3.5ZM65.5 25.5H46.5V6.5H65.5V25.5ZM50.9388 16.0613C50.7989 15.9219 50.688 15.7563 50.6122 15.574C50.5365 15.3917 50.4976 15.1962 50.4976 14.9987C50.4976 14.8013 50.5365 14.6058 50.6122 14.4235C50.688 14.2412 50.7989 14.0756 50.9388 13.9362L54.9388 9.93625C55.0781 9.79641 55.2437 9.68545 55.426 9.60975C55.6083 9.53404 55.8038 9.49507 56.0012 9.49507C56.1987 9.49507 56.3941 9.53404 56.5765 9.60975C56.7588 9.68545 56.9244 9.79641 57.0637 9.93625L61.0637 13.9362C61.3455 14.218 61.5039 14.6002 61.5039 14.9987C61.5039 15.3973 61.3455 15.7795 61.0637 16.0613C60.782 16.343 60.3998 16.5014 60.0012 16.5014C59.6027 16.5014 59.2205 16.343 58.9387 16.0613L57.5 14.625V21C57.5 21.3978 57.342 21.7794 57.0607 22.0607C56.7794 22.342 56.3978 22.5 56 22.5C55.6022 22.5 55.2206 22.342 54.9393 22.0607C54.658 21.7794 54.5 21.3978 54.5 21V14.625L53.0612 16.065C52.9217 16.2042 52.7561 16.3146 52.5738 16.3897C52.3916 16.4649 52.1963 16.5034 51.9992 16.5031C51.8021 16.5027 51.607 16.4635 51.425 16.3877C51.243 16.3119 51.0778 16.201 50.9388 16.0613Z" fill="white"/>
</g>
<defs>
<clipPath id="clip0_27_6139">
<rect width="72" height="32" rx="5" fill="white"/>
</clipPath>
</defs>
</svg>
