<svg width="72" height="32" viewBox="0 0 72 32" fill="none" xmlns="http://www.w3.org/2000/svg">
<g clip-path="url(#clip0_27_5819)">
<path d="M29 23C29 23.2652 28.8946 23.5196 28.7071 23.7071C28.5196 23.8946 28.2652 24 28 24C27.7348 24 27.4804 23.8946 27.2929 23.7071C27.1054 23.5196 27 23.2652 27 23C26.9991 20.85 26.3682 18.7473 25.1852 16.952C24.0022 15.1567 22.319 13.7474 20.3437 12.8984C18.3684 12.0494 16.1876 11.7979 14.0709 12.1749C11.9542 12.552 9.99437 13.5411 8.43375 15.02L11.7075 18.2925C11.8475 18.4323 11.9429 18.6106 11.9815 18.8047C12.0202 18.9988 12.0004 19.2 11.9246 19.3828C11.8489 19.5656 11.7206 19.7218 11.556 19.8317C11.3914 19.9416 11.1979 20.0001 11 20H3C2.73478 20 2.48043 19.8946 2.29289 19.7071C2.10536 19.5196 2 19.2652 2 19V11C1.99984 10.8021 2.05841 10.6086 2.16828 10.444C2.27815 10.2794 2.43439 10.1511 2.61721 10.0754C2.80003 9.99962 3.00122 9.97981 3.19531 10.0185C3.38939 10.0571 3.56764 10.1525 3.7075 10.2925L7.0175 13.6025C8.85809 11.8432 11.1748 10.6631 13.6801 10.2088C16.1854 9.75439 18.7689 10.0457 21.1101 11.0466C23.4513 12.0474 25.4471 13.7138 26.8497 15.8387C28.2523 17.9637 29 20.4538 29 23Z" fill="white"/>
<path d="M69.5 23C69.5 23.3978 69.342 23.7794 69.0607 24.0607C68.7794 24.342 68.3978 24.5 68 24.5C67.6022 24.5 67.2206 24.342 66.9393 24.0607C66.658 23.7794 66.5 23.3978 66.5 23C66.5002 20.9232 65.8844 18.893 64.7307 17.1661C63.5769 15.4393 61.937 14.0933 60.0183 13.2985C58.0996 12.5038 55.9882 12.2958 53.9513 12.701C51.9144 13.1062 50.0435 14.1064 48.575 15.575L46.6388 17.5H51C51.3978 17.5 51.7794 17.658 52.0607 17.9393C52.342 18.2206 52.5 18.6022 52.5 19C52.5 19.3978 52.342 19.7794 52.0607 20.0607C51.7794 20.342 51.3978 20.5 51 20.5H43C42.6022 20.5 42.2206 20.342 41.9393 20.0607C41.658 19.7794 41.5 19.3978 41.5 19V11C41.5 10.6022 41.658 10.2206 41.9393 9.93934C42.2206 9.65804 42.6022 9.5 43 9.5C43.3978 9.5 43.7794 9.65804 44.0607 9.93934C44.342 10.2206 44.5 10.6022 44.5 11V15.395L46.4575 13.4513C48.3459 11.5643 50.7513 10.2795 53.3697 9.75935C55.9881 9.23922 58.702 9.50708 61.1682 10.5291C63.6344 11.5511 65.7422 13.2813 67.2253 15.5011C68.7083 17.7208 69.4999 20.3304 69.5 23Z" fill="white"/>
</g>
<defs>
<clipPath id="clip0_27_5819">
<rect width="72" height="32" rx="5" fill="white"/>
</clipPath>
</defs>
</svg>
