<svg width="72" height="32" viewBox="0 0 72 32" fill="none" xmlns="http://www.w3.org/2000/svg">
<g clip-path="url(#clip0_27_6259)">
<path d="M24 5V13C24.0001 13.1314 23.9743 13.2615 23.9241 13.3828C23.8739 13.5042 23.8003 13.6146 23.7075 13.7075L17 20.4137V24H20C20.1979 23.9998 20.3914 24.0584 20.556 24.1683C20.7206 24.2782 20.8489 24.4344 20.9246 24.6172C21.0004 24.8 21.0202 25.0012 20.9815 25.1953C20.9429 25.3894 20.8475 25.5676 20.7075 25.7075L16.7075 29.7075C16.6146 29.8005 16.5043 29.8742 16.3829 29.9246C16.2615 29.9749 16.1314 30.0008 16 30.0008C15.8686 30.0008 15.7385 29.9749 15.6171 29.9246C15.4957 29.8742 15.3854 29.8005 15.2925 29.7075L11.2925 25.7075C11.1525 25.5676 11.0571 25.3894 11.0185 25.1953C10.9798 25.0012 10.9996 24.8 11.0754 24.6172C11.1511 24.4344 11.2794 24.2782 11.444 24.1683C11.6086 24.0584 11.8021 23.9998 12 24H15V20.4137L8.2925 13.7075C8.19967 13.6146 8.12605 13.5042 8.07586 13.3828C8.02568 13.2615 7.9999 13.1314 8 13V5C8 4.73478 8.10536 4.48043 8.29289 4.29289C8.48043 4.10536 8.73478 4 9 4C9.26522 4 9.51957 4.10536 9.70711 4.29289C9.89464 4.48043 10 4.73478 10 5V12.5863L16 18.5863L22 12.5863V5C22 4.73478 22.1054 4.48043 22.2929 4.29289C22.4804 4.10536 22.7348 4 23 4C23.2652 4 23.5196 4.10536 23.7071 4.29289C23.8946 4.48043 24 4.73478 24 5Z" fill="white"/>
<path d="M64.5 5V13C64.5002 13.197 64.4615 13.3922 64.3862 13.5743C64.3109 13.7564 64.2005 13.9218 64.0613 14.0612L57.5 20.625V25.375L58.9387 23.935C59.2205 23.6532 59.6027 23.4949 60.0012 23.4949C60.3998 23.4949 60.782 23.6532 61.0637 23.935C61.3455 24.2168 61.5039 24.599 61.5039 24.9975C61.5039 25.396 61.3455 25.7782 61.0637 26.06L57.0637 30.06C56.9244 30.1998 56.7588 30.3108 56.5765 30.3865C56.3941 30.4622 56.1987 30.5012 56.0012 30.5012C55.8038 30.5012 55.6084 30.4622 55.426 30.3865C55.2437 30.3108 55.0781 30.1998 54.9388 30.06L50.9388 26.06C50.7992 25.9205 50.6885 25.7548 50.613 25.5725C50.5375 25.3902 50.4986 25.1948 50.4986 24.9975C50.4986 24.8002 50.5375 24.6048 50.613 24.4225C50.6885 24.2402 50.7992 24.0745 50.9388 23.935C51.0783 23.7955 51.2439 23.6848 51.4262 23.6093C51.6085 23.5338 51.8039 23.4949 52.0013 23.4949C52.1986 23.4949 52.394 23.5338 52.5763 23.6093C52.7586 23.6848 52.9242 23.7955 53.0638 23.935L54.5 25.375V20.625L47.9388 14.0612C47.7995 13.9218 47.6891 13.7564 47.6138 13.5743C47.5385 13.3922 47.4998 13.197 47.5 13V5C47.5 4.60218 47.658 4.22064 47.9393 3.93934C48.2206 3.65804 48.6022 3.5 49 3.5C49.3978 3.5 49.7794 3.65804 50.0607 3.93934C50.342 4.22064 50.5 4.60218 50.5 5V12.375L56 17.875L61.5 12.375V5C61.5 4.60218 61.658 4.22064 61.9393 3.93934C62.2206 3.65804 62.6022 3.5 63 3.5C63.3978 3.5 63.7794 3.65804 64.0607 3.93934C64.342 4.22064 64.5 4.60218 64.5 5Z" fill="white"/>
</g>
<defs>
<clipPath id="clip0_27_6259">
<rect width="72" height="32" rx="5" fill="white"/>
</clipPath>
</defs>
</svg>
