<svg width="72" height="32" viewBox="0 0 72 32" fill="none" xmlns="http://www.w3.org/2000/svg">
<g clip-path="url(#clip0_27_6224)">
<path d="M29.7083 16.7075L25.7083 20.7075C25.5684 20.8475 25.3902 20.9429 25.1961 20.9815C25.002 21.0202 24.8008 21.0004 24.618 20.9246C24.4352 20.8489 24.2789 20.7206 24.1691 20.556C24.0592 20.3914 24.0006 20.1979 24.0008 20V17H8.00079V20C8.00094 20.1979 7.94238 20.3914 7.83251 20.556C7.72264 20.7206 7.5664 20.8489 7.38358 20.9246C7.20075 21.0004 6.99956 21.0202 6.80548 20.9815C6.6114 20.9429 6.43314 20.8475 6.29329 20.7075L2.29329 16.7075C2.20031 16.6146 2.12655 16.5043 2.07623 16.3829C2.0259 16.2615 2 16.1314 2 16C2 15.8686 2.0259 15.7385 2.07623 15.6171C2.12655 15.4957 2.20031 15.3854 2.29329 15.2925L6.29329 11.2925C6.43314 11.1525 6.6114 11.0571 6.80548 11.0185C6.99956 10.9798 7.20075 10.9996 7.38358 11.0754C7.5664 11.1511 7.72264 11.2794 7.83251 11.444C7.94238 11.6086 8.00094 11.8021 8.00079 12V15H24.0008V12C24.0006 11.8021 24.0592 11.6086 24.1691 11.444C24.2789 11.2794 24.4352 11.1511 24.618 11.0754C24.8008 10.9996 25.002 10.9798 25.1961 11.0185C25.3902 11.0571 25.5684 11.1525 25.7083 11.2925L29.7083 15.2925C29.8013 15.3854 29.875 15.4957 29.9253 15.6171C29.9757 15.7385 30.0016 15.8686 30.0016 16C30.0016 16.1314 29.9757 16.2615 29.9253 16.3829C29.875 16.5043 29.8013 16.6146 29.7083 16.7075Z" fill="white"/>
<path d="M70.0605 17.0613L66.0605 21.0613C65.7787 21.3431 65.3965 21.5014 64.998 21.5014C64.5995 21.5014 64.2173 21.3431 63.9355 21.0613C63.6537 20.7795 63.4954 20.3973 63.4954 19.9988C63.4954 19.6002 63.6537 19.2181 63.9355 18.9363L65.3742 17.5H46.6242L48.0642 18.9388C48.346 19.2205 48.5043 19.6027 48.5043 20.0013C48.5043 20.3998 48.346 20.782 48.0642 21.0638C47.7824 21.3455 47.4002 21.5039 47.0017 21.5039C46.6032 21.5039 46.221 21.3455 45.9392 21.0638L41.9392 17.0638C41.7994 16.9244 41.6884 16.7588 41.6127 16.5765C41.537 16.3942 41.498 16.1987 41.498 16.0013C41.498 15.8038 41.537 15.6084 41.6127 15.426C41.6884 15.2437 41.7994 15.0781 41.9392 14.9388L45.9392 10.9388C46.221 10.657 46.6032 10.4987 47.0017 10.4987C47.1991 10.4987 47.3944 10.5375 47.5768 10.613C47.7591 10.6885 47.9247 10.7992 48.0642 10.9388C48.2038 11.0783 48.3144 11.2439 48.39 11.4262C48.4655 11.6085 48.5043 11.8039 48.5043 12.0013C48.5043 12.1986 48.4655 12.394 48.39 12.5763C48.3144 12.7586 48.2038 12.9242 48.0642 13.0638L46.6242 14.5H65.3742L63.9342 13.0613C63.7947 12.9217 63.684 12.7561 63.6085 12.5738C63.533 12.3915 63.4941 12.1961 63.4941 11.9988C63.4941 11.8014 63.533 11.606 63.6085 11.4237C63.684 11.2414 63.7947 11.0758 63.9342 10.9363C64.216 10.6545 64.5982 10.4962 64.9967 10.4962C65.1941 10.4962 65.3894 10.535 65.5718 10.6105C65.7541 10.686 65.9197 10.7967 66.0592 10.9363L70.0592 14.9363C70.1992 15.0755 70.3102 15.2411 70.386 15.4233C70.4618 15.6056 70.5009 15.8011 70.501 15.9985C70.5012 16.1959 70.4623 16.3914 70.3867 16.5738C70.3111 16.7562 70.2002 16.9218 70.0605 17.0613Z" fill="white"/>
</g>
<defs>
<clipPath id="clip0_27_6224">
<rect width="72" height="32" rx="5" fill="white"/>
</clipPath>
</defs>
</svg>
