<svg width="72" height="32" viewBox="0 0 72 32" fill="none" xmlns="http://www.w3.org/2000/svg">
<g clip-path="url(#clip0_27_5859)">
<path d="M25.7075 22.7075L19.7075 28.7075C19.6146 28.8005 19.5043 28.8742 19.3829 28.9246C19.2615 28.9749 19.1314 29.0008 19 29.0008C18.8686 29.0008 18.7385 28.9749 18.6171 28.9246C18.4957 28.8742 18.3854 28.8005 18.2925 28.7075L12.2925 22.7075C12.1525 22.5676 12.0571 22.3894 12.0185 22.1953C11.9798 22.0012 11.9996 21.8 12.0754 21.6172C12.1511 21.4344 12.2794 21.2782 12.444 21.1683C12.6086 21.0584 12.8021 20.9998 13 21H18V16C17.9967 13.0836 16.8367 10.2877 14.7745 8.22548C12.7123 6.1633 9.91637 5.00331 7 5C6.73478 5 6.48043 4.89464 6.29289 4.70711C6.10536 4.51957 6 4.26522 6 4C6 3.73478 6.10536 3.48043 6.29289 3.29289C6.48043 3.10536 6.73478 3 7 3C10.4467 3.00364 13.7512 4.37445 16.1884 6.81163C18.6256 9.24882 19.9964 12.5533 20 16V21H25C25.1979 20.9998 25.3914 21.0584 25.556 21.1683C25.7206 21.2782 25.8489 21.4344 25.9246 21.6172C26.0004 21.8 26.0202 22.0012 25.9815 22.1953C25.9429 22.3894 25.8475 22.5676 25.7075 22.7075Z" fill="white"/>
<path d="M66.0613 23.0613L60.0613 29.0613C59.9219 29.2011 59.7563 29.312 59.574 29.3878C59.3917 29.4635 59.1962 29.5024 58.9988 29.5024C58.8013 29.5024 58.6059 29.4635 58.4235 29.3878C58.2412 29.312 58.0756 29.2011 57.9363 29.0613L51.9362 23.0613C51.6545 22.7795 51.4961 22.3973 51.4961 21.9988C51.4961 21.6002 51.6545 21.218 51.9362 20.9363C52.218 20.6545 52.6002 20.4961 52.9987 20.4961C53.3973 20.4961 53.7795 20.6545 54.0612 20.9363L57.5 24.375V16C57.497 13.2161 56.3898 10.5472 54.4213 8.57867C52.4528 6.61018 49.7839 5.50298 47 5.5C46.6022 5.5 46.2206 5.34196 45.9393 5.06066C45.658 4.77936 45.5 4.39782 45.5 4C45.5 3.60218 45.658 3.22064 45.9393 2.93934C46.2206 2.65804 46.6022 2.5 47 2.5C50.5792 2.50397 54.0107 3.92756 56.5416 6.45844C59.0724 8.98932 60.496 12.4208 60.5 16V24.375L63.9387 20.935C64.2205 20.6532 64.6027 20.4949 65.0012 20.4949C65.3998 20.4949 65.782 20.6532 66.0637 20.935C66.3455 21.2168 66.5039 21.599 66.5039 21.9975C66.5039 22.396 66.3455 22.7782 66.0637 23.06L66.0613 23.0613Z" fill="white"/>
</g>
<defs>
<clipPath id="clip0_27_5859">
<rect width="72" height="32" rx="5" fill="white"/>
</clipPath>
</defs>
</svg>
