<svg width="72" height="32" viewBox="0 0 72 32" fill="none" xmlns="http://www.w3.org/2000/svg">
<g clip-path="url(#clip0_27_5839)">
<path d="M29.0008 7C28.9971 10.4467 27.6263 13.7512 25.1892 16.1884C22.752 18.6256 19.4475 19.9964 16.0008 20H11.0008V25C11.0009 25.1979 10.9424 25.3914 10.8325 25.556C10.7226 25.7206 10.5664 25.8489 10.3836 25.9246C10.2008 26.0004 9.99956 26.0202 9.80548 25.9815C9.6114 25.9429 9.43314 25.8475 9.29329 25.7075L3.29329 19.7075C3.20031 19.6146 3.12655 19.5043 3.07623 19.3829C3.0259 19.2615 3 19.1314 3 19C3 18.8686 3.0259 18.7385 3.07623 18.6171C3.12655 18.4957 3.20031 18.3854 3.29329 18.2925L9.29329 12.2925C9.43314 12.1525 9.6114 12.0571 9.80548 12.0185C9.99956 11.9798 10.2008 11.9996 10.3836 12.0754C10.5664 12.1511 10.7226 12.2794 10.8325 12.444C10.9424 12.6086 11.0009 12.8021 11.0008 13V18H16.0008C18.9172 17.9967 21.7131 16.8367 23.7753 14.7745C25.8375 12.7123 26.9975 9.91637 27.0008 7C27.0008 6.73478 27.1061 6.48043 27.2937 6.29289C27.4812 6.10536 27.7356 6 28.0008 6C28.266 6 28.5204 6.10536 28.7079 6.29289C28.8954 6.48043 29.0008 6.73478 29.0008 7Z" fill="white"/>
<path d="M69.4992 7C69.4953 10.5792 68.0717 14.0107 65.5408 16.5416C63.0099 19.0724 59.5784 20.496 55.9992 20.5H47.6242L51.0642 23.9387C51.346 24.2205 51.5043 24.6027 51.5043 25.0012C51.5043 25.3998 51.346 25.782 51.0642 26.0637C50.7824 26.3455 50.4002 26.5039 50.0017 26.5039C49.6032 26.5039 49.221 26.3455 48.9392 26.0637L42.9392 20.0637C42.7994 19.9244 42.6884 19.7588 42.6127 19.5765C42.537 19.3941 42.498 19.1987 42.498 19.0012C42.498 18.8038 42.537 18.6083 42.6127 18.426C42.6884 18.2437 42.7994 18.0781 42.9392 17.9387L48.9392 11.9388C49.0788 11.7992 49.2444 11.6885 49.4267 11.613C49.609 11.5375 49.8044 11.4986 50.0017 11.4986C50.1991 11.4986 50.3944 11.5375 50.5768 11.613C50.7591 11.6885 50.9247 11.7992 51.0642 11.9388C51.2038 12.0783 51.3144 12.2439 51.39 12.4262C51.4655 12.6085 51.5043 12.8039 51.5043 13.0013C51.5043 13.1986 51.4655 13.394 51.39 13.5763C51.3144 13.7586 51.2038 13.9242 51.0642 14.0638L47.6242 17.5H55.9992C58.7831 17.497 61.4521 16.3898 63.4206 14.4213C65.389 12.4528 66.4963 9.78386 66.4992 7C66.4992 6.60218 66.6573 6.22064 66.9386 5.93934C67.2199 5.65804 67.6014 5.5 67.9992 5.5C68.3971 5.5 68.7786 5.65804 69.0599 5.93934C69.3412 6.22064 69.4992 6.60218 69.4992 7Z" fill="white"/>
</g>
<defs>
<clipPath id="clip0_27_5839">
<rect width="72" height="32" rx="5" fill="white"/>
</clipPath>
</defs>
</svg>
