<svg width="72" height="32" viewBox="0 0 72 32" fill="none" xmlns="http://www.w3.org/2000/svg">
<g clip-path="url(#clip0_27_5969)">
<path d="M30.0006 10V19C30.0007 19.1979 29.9421 19.3914 29.8323 19.556C29.7224 19.7206 29.5662 19.8489 29.3833 19.9246C29.2005 20.0004 28.9993 20.0202 28.8053 19.9815C28.6112 19.9429 28.4329 19.8475 28.2931 19.7075L24.5006 15.9138L15.7081 24.7075C15.6152 24.8005 15.5049 24.8742 15.3835 24.9246C15.2621 24.9749 15.132 25.0008 15.0006 25.0008C14.8691 25.0008 14.739 24.9749 14.6176 24.9246C14.4962 24.8742 14.3859 24.8005 14.2931 24.7075L2.29306 12.7075C2.10542 12.5199 2 12.2654 2 12C2 11.7346 2.10542 11.4801 2.29306 11.2925C2.4807 11.1049 2.73519 10.9994 3.00056 10.9994C3.26592 10.9994 3.52042 11.1049 3.70806 11.2925L15.0006 22.5863L23.0868 14.5L19.2931 10.7075C19.153 10.5676 19.0577 10.3894 19.019 10.1953C18.9804 10.0012 19.0002 9.80003 19.0759 9.61721C19.1517 9.43439 19.28 9.27815 19.4446 9.16828C19.6092 9.05841 19.8027 8.99984 20.0006 9H29.0006C29.2658 9 29.5201 9.10536 29.7077 9.29289C29.8952 9.48043 30.0006 9.73478 30.0006 10Z" fill="white"/>
<path d="M70.4999 10V19C70.4999 19.3978 70.3419 19.7794 70.0606 20.0607C69.7793 20.342 69.3978 20.5 68.9999 20.5C68.6021 20.5 68.2206 20.342 67.9393 20.0607C67.658 19.7794 67.4999 19.3978 67.4999 19V13.625L56.0612 25.065C55.9218 25.2048 55.7563 25.3158 55.5739 25.3915C55.3916 25.4672 55.1961 25.5062 54.9987 25.5062C54.8013 25.5062 54.6058 25.4672 54.4235 25.3915C54.2411 25.3158 54.0756 25.2048 53.9362 25.065L41.9362 13.065C41.6544 12.7832 41.4961 12.401 41.4961 12.0025C41.4961 11.604 41.6544 11.2218 41.9362 10.94C42.218 10.6582 42.6002 10.4999 42.9987 10.4999C43.3972 10.4999 43.7794 10.6582 44.0612 10.94L54.9999 21.875L65.3749 11.5H59.9999C59.6021 11.5 59.2206 11.342 58.9393 11.0607C58.658 10.7794 58.4999 10.3978 58.4999 10C58.4999 9.60218 58.658 9.22064 58.9393 8.93934C59.2206 8.65804 59.6021 8.5 59.9999 8.5H68.9999C69.3978 8.5 69.7793 8.65804 70.0606 8.93934C70.3419 9.22064 70.4999 9.60218 70.4999 10Z" fill="white"/>
</g>
<defs>
<clipPath id="clip0_27_5969">
<rect width="72" height="32" rx="5" fill="white"/>
</clipPath>
</defs>
</svg>
