<svg width="72" height="32" viewBox="0 0 72 32" fill="none" xmlns="http://www.w3.org/2000/svg">
<g clip-path="url(#clip0_27_5944)">
<path d="M25.0008 4V22C25.0008 22.2652 24.8954 22.5196 24.7079 22.7071C24.5204 22.8946 24.266 23 24.0008 23H13.0008V28C13.0009 28.1979 12.9424 28.3914 12.8325 28.556C12.7226 28.7206 12.5664 28.8489 12.3836 28.9246C12.2008 29.0004 11.9996 29.0202 11.8055 28.9815C11.6114 28.9429 11.4331 28.8475 11.2933 28.7075L5.29329 22.7075C5.20031 22.6146 5.12655 22.5043 5.07623 22.3829C5.0259 22.2615 5 22.1314 5 22C5 21.8686 5.0259 21.7385 5.07623 21.6171C5.12655 21.4957 5.20031 21.3854 5.29329 21.2925L11.2933 15.2925C11.4331 15.1525 11.6114 15.0571 11.8055 15.0185C11.9996 14.9798 12.2008 14.9996 12.3836 15.0754C12.5664 15.1511 12.7226 15.2794 12.8325 15.444C12.9424 15.6086 13.0009 15.8021 13.0008 16V21H23.0008V4C23.0008 3.73478 23.1061 3.48043 23.2937 3.29289C23.4812 3.10536 23.7356 3 24.0008 3C24.266 3 24.5204 3.10536 24.7079 3.29289C24.8954 3.48043 25.0008 3.73478 25.0008 4Z" fill="white"/>
<path d="M65.4992 4V22C65.4992 22.3978 65.3412 22.7794 65.0599 23.0607C64.7786 23.342 64.3971 23.5 63.9992 23.5H49.6242L53.0642 26.9387C53.2038 27.0783 53.3144 27.2439 53.39 27.4262C53.4655 27.6085 53.5043 27.8039 53.5043 28.0012C53.5043 28.1986 53.4655 28.394 53.39 28.5763C53.3144 28.7586 53.2038 28.9242 53.0642 29.0637C52.9247 29.2033 52.7591 29.314 52.5768 29.3895C52.3944 29.465 52.1991 29.5039 52.0017 29.5039C51.8044 29.5039 51.609 29.465 51.4267 29.3895C51.2444 29.314 51.0788 29.2033 50.9392 29.0637L44.9392 23.0637C44.7994 22.9244 44.6884 22.7588 44.6127 22.5765C44.537 22.3941 44.498 22.1987 44.498 22.0012C44.498 21.8038 44.537 21.6083 44.6127 21.426C44.6884 21.2437 44.7994 21.0781 44.9392 20.9387L50.9392 14.9388C51.0788 14.7992 51.2444 14.6885 51.4267 14.613C51.609 14.5375 51.8044 14.4986 52.0017 14.4986C52.1991 14.4986 52.3944 14.5375 52.5768 14.613C52.7591 14.6885 52.9247 14.7992 53.0642 14.9388C53.2038 15.0783 53.3144 15.2439 53.39 15.4262C53.4655 15.6085 53.5043 15.8039 53.5043 16.0012C53.5043 16.1986 53.4655 16.394 53.39 16.5763C53.3144 16.7586 53.2038 16.9242 53.0642 17.0637L49.6242 20.5H62.4992V4C62.4992 3.60218 62.6573 3.22064 62.9386 2.93934C63.2199 2.65804 63.6014 2.5 63.9992 2.5C64.3971 2.5 64.7786 2.65804 65.0599 2.93934C65.3412 3.22064 65.4992 3.60218 65.4992 4Z" fill="white"/>
</g>
<defs>
<clipPath id="clip0_27_5944">
<rect width="72" height="32" rx="5" fill="white"/>
</clipPath>
</defs>
</svg>
