<svg width="72" height="32" viewBox="0 0 72 32" fill="none" xmlns="http://www.w3.org/2000/svg">
<g clip-path="url(#clip0_27_5994)">
<path d="M28.7083 17.7075L16.7083 29.7075C16.6154 29.8005 16.5051 29.8742 16.3837 29.9246C16.2623 29.9749 16.1322 30.0008 16.0008 30.0008C15.8694 30.0008 15.7392 29.9749 15.6178 29.9246C15.4964 29.8742 15.3862 29.8005 15.2933 29.7075L3.29329 17.7075C3.15328 17.5676 3.05791 17.3894 3.01926 17.1953C2.98061 17.0012 3.00041 16.8 3.07616 16.6172C3.15192 16.4344 3.28021 16.2782 3.44481 16.1683C3.6094 16.0584 3.80289 15.9998 4.00079 16H9.00079V6C9.00079 5.46957 9.2115 4.96086 9.58657 4.58579C9.96165 4.21071 10.4704 4 11.0008 4H21.0008C21.5312 4 22.0399 4.21071 22.415 4.58579C22.7901 4.96086 23.0008 5.46957 23.0008 6V16H28.0008C28.1987 15.9998 28.3922 16.0584 28.5568 16.1683C28.7214 16.2782 28.8497 16.4344 28.9254 16.6172C29.0012 16.8 29.021 17.0012 28.9823 17.1953C28.9437 17.3894 28.8483 17.5676 28.7083 17.7075Z" fill="white"/>
<path d="M69.3862 16.4263C69.2727 16.152 69.0804 15.9177 68.8336 15.7528C68.5868 15.5879 68.2967 15.4999 67.9999 15.5H63.4999V6C63.4999 5.33696 63.2365 4.70107 62.7677 4.23223C62.2989 3.76339 61.663 3.5 60.9999 3.5H50.9999C50.3369 3.5 49.701 3.76339 49.2322 4.23223C48.7633 4.70107 48.4999 5.33696 48.4999 6V15.5H43.9999C43.7032 15.5 43.4131 15.588 43.1664 15.7529C42.9197 15.9178 42.7275 16.1522 42.614 16.4264C42.5005 16.7006 42.4709 17.0023 42.5289 17.2933C42.587 17.5843 42.73 17.8515 42.9399 18.0613L54.9399 30.0613C55.0793 30.2011 55.2449 30.312 55.4272 30.3878C55.6095 30.4635 55.805 30.5024 56.0024 30.5024C56.1999 30.5024 56.3953 30.4635 56.5777 30.3878C56.76 30.312 56.9256 30.2011 57.0649 30.0613L69.0649 18.0613C69.2741 17.851 69.4163 17.5835 69.4735 17.2925C69.5306 17.0014 69.5003 16.7 69.3862 16.4263ZM55.9999 26.875L47.6249 18.5H49.9999C50.3978 18.5 50.7793 18.342 51.0606 18.0607C51.3419 17.7794 51.4999 17.3978 51.4999 17V6.5H60.4999V17C60.4999 17.3978 60.658 17.7794 60.9393 18.0607C61.2206 18.342 61.6021 18.5 61.9999 18.5H64.3749L55.9999 26.875Z" fill="white"/>
</g>
<defs>
<clipPath id="clip0_27_5994">
<rect width="72" height="32" rx="5" fill="white"/>
</clipPath>
</defs>
</svg>
