<svg width="72" height="32" viewBox="0 0 72 32" fill="none" xmlns="http://www.w3.org/2000/svg">
<g clip-path="url(#clip0_27_6249)">
<path d="M15.0006 18V24C15.0007 24.1979 14.9421 24.3914 14.8323 24.556C14.7224 24.7206 14.5662 24.8489 14.3833 24.9246C14.2005 25.0004 13.9993 25.0202 13.8052 24.9815C13.6112 24.9429 13.4329 24.8475 13.2931 24.7075L11.0006 22.4137L6.70806 26.7075C6.52042 26.8951 6.26592 27.0005 6.00056 27.0005C5.73519 27.0005 5.4807 26.8951 5.29306 26.7075C5.10542 26.5199 5 26.2654 5 26C5 25.7346 5.10542 25.4801 5.29306 25.2925L9.58681 21L7.29306 18.7075C7.15304 18.5676 7.05768 18.3894 7.01903 18.1953C6.98038 18.0012 7.00018 17.8 7.07593 17.6172C7.15169 17.4344 7.27998 17.2781 7.44457 17.1683C7.60917 17.0584 7.80266 16.9998 8.00056 17H14.0006C14.2658 17 14.5201 17.1053 14.7077 17.2929C14.8952 17.4804 15.0006 17.7348 15.0006 18ZM26.7081 5.29249C26.6152 5.19952 26.5049 5.12576 26.3835 5.07543C26.2621 5.02511 26.132 4.99921 26.0006 4.99921C25.8691 4.99921 25.739 5.02511 25.6176 5.07543C25.4962 5.12576 25.3859 5.19952 25.2931 5.29249L21.0006 9.58624L18.7081 7.29249C18.5682 7.15248 18.3899 7.05711 18.1959 7.01846C18.0018 6.97981 17.8006 6.99962 17.6178 7.07537C17.4349 7.15112 17.2787 7.27942 17.1688 7.44401C17.059 7.60861 17.0004 7.8021 17.0006 7.99999V14C17.0006 14.2652 17.1059 14.5196 17.2934 14.7071C17.481 14.8946 17.7353 15 18.0006 15H24.0006C24.1985 15.0001 24.3919 14.9416 24.5565 14.8317C24.7211 14.7218 24.8494 14.5656 24.9252 14.3828C25.0009 14.2 25.0207 13.9988 24.9821 13.8047C24.9434 13.6106 24.8481 13.4323 24.7081 13.2925L22.4143 11L26.7081 6.70749C26.801 6.61462 26.8748 6.50433 26.9251 6.38293C26.9754 6.26154 27.0013 6.13141 27.0013 5.99999C27.0013 5.86858 26.9754 5.73845 26.9251 5.61705C26.8748 5.49565 26.801 5.38537 26.7081 5.29249Z" fill="white"/>
<path d="M67.0606 7.05997L62.1244 12H64.4994C64.8972 12 65.2788 12.158 65.5601 12.4393C65.8414 12.7206 65.9994 13.1022 65.9994 13.5C65.9994 13.8978 65.8414 14.2793 65.5601 14.5606C65.2788 14.8419 64.8972 15 64.4994 15H58.4994C58.1016 15 57.72 14.8419 57.4387 14.5606C57.1574 14.2793 56.9994 13.8978 56.9994 13.5V7.49997C56.9994 7.10215 57.1574 6.72062 57.4387 6.43931C57.72 6.15801 58.1016 5.99997 58.4994 5.99997C58.8972 5.99997 59.2788 6.15801 59.5601 6.43931C59.8414 6.72062 59.9994 7.10215 59.9994 7.49997V9.87497L64.9381 4.93497C65.2199 4.65318 65.6021 4.49487 66.0006 4.49487C66.3992 4.49487 66.7814 4.65318 67.0631 4.93497C67.3449 5.21677 67.5033 5.59896 67.5033 5.99747C67.5033 6.39599 67.3449 6.77818 67.0631 7.05997H67.0606ZM53.4994 17H47.4994C47.1016 17 46.72 17.158 46.4387 17.4393C46.1574 17.7206 45.9994 18.1022 45.9994 18.5C45.9994 18.8978 46.1574 19.2793 46.4387 19.5606C46.72 19.8419 47.1016 20 47.4994 20H49.8744L44.9381 24.9387C44.6564 25.2205 44.498 25.6027 44.498 26.0012C44.498 26.3997 44.6564 26.7819 44.9381 27.0637C45.2199 27.3455 45.6021 27.5038 46.0006 27.5038C46.3992 27.5038 46.7814 27.3455 47.0631 27.0637L51.9994 22.125V24.5C51.9994 24.8978 52.1574 25.2793 52.4387 25.5606C52.72 25.8419 53.1016 26 53.4994 26C53.8972 26 54.2788 25.8419 54.5601 25.5606C54.8414 25.2793 54.9994 24.8978 54.9994 24.5V18.5C54.9994 18.1022 54.8414 17.7206 54.5601 17.4393C54.2788 17.158 53.8972 17 53.4994 17Z" fill="white"/>
</g>
<defs>
<clipPath id="clip0_27_6249">
<rect width="72" height="32" rx="5" fill="white"/>
</clipPath>
</defs>
</svg>
