<svg width="72" height="32" viewBox="0 0 72 32" fill="none" xmlns="http://www.w3.org/2000/svg">
<g clip-path="url(#clip0_27_5949)">
<path d="M27.7075 22.7075L21.7075 28.7075C21.5676 28.8475 21.3894 28.9429 21.1953 28.9815C21.0012 29.0202 20.8 29.0004 20.6172 28.9246C20.4344 28.8489 20.2782 28.7206 20.1683 28.556C20.0584 28.3914 19.9998 28.1979 20 28V23H9C8.73478 23 8.48043 22.8946 8.29289 22.7071C8.10536 22.5196 8 22.2652 8 22V4C8 3.73478 8.10536 3.48043 8.29289 3.29289C8.48043 3.10536 8.73478 3 9 3C9.26522 3 9.51957 3.10536 9.70711 3.29289C9.89464 3.48043 10 3.73478 10 4V21H20V16C19.9998 15.8021 20.0584 15.6086 20.1683 15.444C20.2782 15.2794 20.4344 15.1511 20.6172 15.0754C20.8 14.9996 21.0012 14.9798 21.1953 15.0185C21.3894 15.0571 21.5676 15.1525 21.7075 15.2925L27.7075 21.2925C27.8005 21.3854 27.8742 21.4957 27.9246 21.6171C27.9749 21.7385 28.0008 21.8686 28.0008 22C28.0008 22.1314 27.9749 22.2615 27.9246 22.3829C27.8742 22.5043 27.8005 22.6146 27.7075 22.7075Z" fill="white"/>
<path d="M68.0613 23.0613L62.0613 29.0613C61.7795 29.343 61.3973 29.5014 60.9988 29.5014C60.6002 29.5014 60.218 29.343 59.9363 29.0613C59.6545 28.7795 59.4961 28.3973 59.4961 27.9988C59.4961 27.6002 59.6545 27.218 59.9363 26.9363L63.375 23.5H49C48.6022 23.5 48.2206 23.342 47.9393 23.0607C47.658 22.7794 47.5 22.3978 47.5 22V4C47.5 3.60218 47.658 3.22064 47.9393 2.93934C48.2206 2.65804 48.6022 2.5 49 2.5C49.3978 2.5 49.7794 2.65804 50.0607 2.93934C50.342 3.22064 50.5 3.60218 50.5 4V20.5H63.375L59.935 17.0613C59.7955 16.9217 59.6848 16.7561 59.6093 16.5738C59.5338 16.3915 59.4949 16.1961 59.4949 15.9987C59.4949 15.8014 59.5338 15.606 59.6093 15.4237C59.6848 15.2414 59.7955 15.0758 59.935 14.9362C60.0745 14.7967 60.2402 14.686 60.4225 14.6105C60.6048 14.535 60.8002 14.4961 60.9975 14.4961C61.1948 14.4961 61.3902 14.535 61.5725 14.6105C61.7548 14.686 61.9205 14.7967 62.06 14.9362L68.06 20.9363C68.1999 21.0755 68.311 21.241 68.3868 21.4233C68.4626 21.6056 68.5017 21.8011 68.5018 21.9985C68.5019 22.1959 68.4631 22.3914 68.3875 22.5738C68.3119 22.7562 68.201 22.9218 68.0613 23.0613Z" fill="white"/>
</g>
<defs>
<clipPath id="clip0_27_5949">
<rect width="72" height="32" rx="5" fill="white"/>
</clipPath>
</defs>
</svg>
