<svg width="72" height="32" viewBox="0 0 72 32" fill="none" xmlns="http://www.w3.org/2000/svg">
<g clip-path="url(#clip0_27_6184)">
<path d="M29.0008 18C28.9985 20.121 28.1549 22.1545 26.6551 23.6543C25.1553 25.1541 23.1218 25.9977 21.0008 26H10.0008C9.73557 26 9.48122 25.8946 9.29368 25.7071C9.10614 25.5196 9.00079 25.2652 9.00079 25C9.00079 24.7348 9.10614 24.4804 9.29368 24.2929C9.48122 24.1054 9.73557 24 10.0008 24H21.0008C22.5921 24 24.1182 23.3679 25.2434 22.2426C26.3686 21.1174 27.0008 19.5913 27.0008 18C27.0008 16.4087 26.3686 14.8826 25.2434 13.7574C24.1182 12.6321 22.5921 12 21.0008 12H11.0008V17C11.0009 17.1979 10.9424 17.3914 10.8325 17.556C10.7226 17.7206 10.5664 17.8489 10.3836 17.9246C10.2008 18.0004 9.99956 18.0202 9.80548 17.9815C9.6114 17.9429 9.43314 17.8475 9.29329 17.7075L3.29329 11.7075C3.20031 11.6146 3.12655 11.5043 3.07623 11.3829C3.0259 11.2615 3 11.1314 3 11C3 10.8686 3.0259 10.7385 3.07623 10.6171C3.12655 10.4957 3.20031 10.3854 3.29329 10.2925L9.29329 4.29249C9.43314 4.15248 9.6114 4.05712 9.80548 4.01846C9.99956 3.97981 10.2008 3.99962 10.3836 4.07537C10.5664 4.15112 10.7226 4.27942 10.8325 4.44401C10.9424 4.60861 11.0009 4.8021 11.0008 4.99999V9.99999H21.0008C23.1218 10.0023 25.1553 10.8459 26.6551 12.3457C28.1549 13.8455 28.9985 15.879 29.0008 18Z" fill="white"/>
<path d="M69.4992 18C69.4969 20.2536 68.6006 22.4143 67.0071 24.0079C65.4135 25.6014 63.2529 26.4977 60.9992 26.5H49.9992C49.6014 26.5 49.2199 26.342 48.9386 26.0607C48.6573 25.7794 48.4992 25.3978 48.4992 25C48.4992 24.6022 48.6573 24.2207 48.9386 23.9394C49.2199 23.658 49.6014 23.5 49.9992 23.5H60.9992C62.4579 23.5 63.8569 22.9205 64.8883 21.8891C65.9198 20.8576 66.4992 19.4587 66.4992 18C66.4992 16.5413 65.9198 15.1424 64.8883 14.1109C63.8569 13.0795 62.4579 12.5 60.9992 12.5H47.6242L51.0642 15.9388C51.346 16.2206 51.5043 16.6027 51.5043 17.0013C51.5043 17.3998 51.346 17.782 51.0642 18.0638C50.7824 18.3456 50.4002 18.5039 50.0017 18.5039C49.6032 18.5039 49.221 18.3456 48.9392 18.0638L42.9392 12.0638C42.7994 11.9244 42.6884 11.7588 42.6127 11.5765C42.537 11.3942 42.498 11.1987 42.498 11.0013C42.498 10.8038 42.537 10.6084 42.6127 10.426C42.6884 10.2437 42.7994 10.0781 42.9392 9.93876L48.9392 3.93876C49.221 3.65697 49.6032 3.49866 50.0017 3.49866C50.4002 3.49866 50.7824 3.65697 51.0642 3.93876C51.346 4.22055 51.5043 4.60274 51.5043 5.00126C51.5043 5.39977 51.346 5.78197 51.0642 6.06376L47.6242 9.50001H60.9992C63.2528 9.50266 65.4132 10.399 67.0067 11.9925C68.6002 13.586 69.4966 15.7465 69.4992 18Z" fill="white"/>
</g>
<defs>
<clipPath id="clip0_27_6184">
<rect width="72" height="32" rx="5" fill="white"/>
</clipPath>
</defs>
</svg>
