<svg width="72" height="32" viewBox="0 0 72 32" fill="none" xmlns="http://www.w3.org/2000/svg">
<g clip-path="url(#clip0_27_5834)">
<path d="M28.7075 13.7075L22.7075 19.7075C22.5199 19.8951 22.2654 20.0006 22 20.0006C21.7346 20.0006 21.4801 19.8951 21.2925 19.7075C21.1049 19.5199 20.9994 19.2654 20.9994 19C20.9994 18.7346 21.1049 18.4801 21.2925 18.2925L26.5863 13L21.2925 7.70749C21.1996 7.61458 21.1259 7.50428 21.0756 7.38289C21.0253 7.2615 20.9994 7.13139 20.9994 6.99999C20.9994 6.8686 21.0253 6.73849 21.0756 6.6171C21.1259 6.4957 21.1996 6.3854 21.2925 6.29249C21.4801 6.10485 21.7346 5.99944 22 5.99944C22.1314 5.99944 22.2615 6.02532 22.3829 6.0756C22.5043 6.12588 22.6146 6.19958 22.7075 6.29249L28.7075 12.2925C28.8005 12.3854 28.8742 12.4957 28.9246 12.6171C28.9749 12.7385 29.0008 12.8686 29.0008 13C29.0008 13.1314 28.9749 13.2615 28.9246 13.3829C28.8742 13.5043 28.8005 13.6146 28.7075 13.7075ZM22.7075 12.2925L16.7075 6.29249C16.5676 6.15248 16.3894 6.05712 16.1953 6.01846C16.0012 5.97981 15.8 5.99962 15.6172 6.07537C15.4344 6.15112 15.2782 6.27942 15.1683 6.44401C15.0584 6.60861 14.9998 6.8021 15 6.99999V12.0375C11.7364 12.2937 8.68913 13.7699 6.46524 16.1722C4.24135 18.5745 3.00411 21.7264 3 25C3 25.2652 3.10536 25.5196 3.29289 25.7071C3.48043 25.8946 3.73478 26 4 26C4.26522 26 4.51957 25.8946 4.70711 25.7071C4.89464 25.5196 5 25.2652 5 25C5.0033 22.2568 6.03022 19.6135 7.87979 17.5875C9.72935 15.5616 12.2684 14.2987 15 14.0462V19C14.9998 19.1979 15.0584 19.3914 15.1683 19.556C15.2782 19.7206 15.4344 19.8489 15.6172 19.9246C15.8 20.0004 16.0012 20.0202 16.1953 19.9815C16.3894 19.9429 16.5676 19.8475 16.7075 19.7075L22.7075 13.7075C22.8005 13.6146 22.8742 13.5043 22.9246 13.3829C22.9749 13.2615 23.0008 13.1314 23.0008 13C23.0008 12.8686 22.9749 12.7385 22.9246 12.6171C22.8742 12.4957 22.8005 12.3854 22.7075 12.2925Z" fill="white"/>
<path d="M69.0613 14.0613L63.0613 20.0613C62.7795 20.343 62.3973 20.5014 61.9988 20.5014C61.6002 20.5014 61.218 20.343 60.9363 20.0613C60.6545 19.7795 60.4961 19.3973 60.4961 18.9988C60.4961 18.6002 60.6545 18.218 60.9363 17.9363L65.875 13L60.9387 8.06001C60.657 7.77821 60.4986 7.39602 60.4986 6.99751C60.4986 6.59899 60.657 6.2168 60.9387 5.93501C61.2205 5.65321 61.6027 5.4949 62.0012 5.4949C62.3998 5.4949 62.782 5.65321 63.0637 5.93501L69.0637 11.935C69.2036 12.0745 69.3145 12.2403 69.3901 12.4229C69.4657 12.6054 69.5045 12.8011 69.5043 12.9987C69.5041 13.1962 69.4648 13.3918 69.3888 13.5742C69.3127 13.7565 69.2014 13.922 69.0613 14.0613ZM62.0613 11.9363L56.0613 5.93626C55.9217 5.79673 55.7561 5.68605 55.5738 5.61053C55.3915 5.53502 55.1961 5.49615 54.9987 5.49615C54.8014 5.49615 54.606 5.53502 54.4237 5.61053C54.2414 5.68605 54.0758 5.79673 53.9362 5.93625C53.7967 6.07578 53.686 6.24143 53.6105 6.42373C53.535 6.60604 53.4961 6.80143 53.4961 6.99876C53.4961 7.19608 53.535 7.39147 53.6105 7.57378C53.686 7.75608 53.7967 7.92173 53.9362 8.06125L57.375 11.5H56C52.4208 11.504 48.9893 12.9276 46.4584 15.4584C43.9276 17.9893 42.504 21.4208 42.5 25C42.5 25.3978 42.658 25.7794 42.9393 26.0607C43.2206 26.342 43.6022 26.5 44 26.5C44.3978 26.5 44.7794 26.342 45.0607 26.0607C45.342 25.7794 45.5 25.3978 45.5 25C45.503 22.2161 46.6102 19.5472 48.5787 17.5787C50.5472 15.6102 53.2161 14.503 56 14.5H57.375L53.935 17.9388C53.6532 18.2205 53.4949 18.6027 53.4949 19.0013C53.4949 19.3998 53.6532 19.782 53.935 20.0638C54.2168 20.3455 54.599 20.5039 54.9975 20.5039C55.396 20.5039 55.7782 20.3455 56.06 20.0638L62.06 14.0638C62.1999 13.9245 62.311 13.759 62.3868 13.5767C62.4626 13.3944 62.5017 13.1989 62.5018 13.0015C62.5019 12.8041 62.4631 12.6086 62.3875 12.4262C62.3119 12.2438 62.201 12.0782 62.0613 11.9388V11.9363Z" fill="white"/>
</g>
<defs>
<clipPath id="clip0_27_5834">
<rect width="72" height="32" rx="5" fill="white"/>
</clipPath>
</defs>
</svg>
