<svg width="72" height="32" viewBox="0 0 72 32" fill="none" xmlns="http://www.w3.org/2000/svg">
<g clip-path="url(#clip0_27_6029)">
<path d="M20.0008 9.99999V22C20.0008 22.2652 19.8954 22.5196 19.7079 22.7071C19.5204 22.8946 19.266 23 19.0008 23H16.0008V28C16.0009 28.1979 15.9424 28.3914 15.8325 28.556C15.7226 28.7206 15.5664 28.8489 15.3836 28.9246C15.2008 29.0004 14.9996 29.0202 14.8055 28.9815C14.6114 28.9429 14.4331 28.8475 14.2933 28.7075L2.29329 16.7075C2.20031 16.6146 2.12655 16.5043 2.07623 16.3829C2.0259 16.2615 2 16.1314 2 16C2 15.8686 2.0259 15.7385 2.07623 15.6171C2.12655 15.4957 2.20031 15.3854 2.29329 15.2925L14.2933 3.29249C14.4331 3.15248 14.6114 3.05712 14.8055 3.01846C14.9996 2.97981 15.2008 2.99962 15.3836 3.07537C15.5664 3.15112 15.7226 3.27942 15.8325 3.44401C15.9424 3.60861 16.0009 3.8021 16.0008 3.99999V8.99999H19.0008C19.266 8.99999 19.5204 9.10535 19.7079 9.29289C19.8954 9.48042 20.0008 9.73478 20.0008 9.99999ZM23.0008 8.99999C22.7356 8.99999 22.4812 9.10535 22.2937 9.29289C22.1061 9.48042 22.0008 9.73478 22.0008 9.99999V22C22.0008 22.2652 22.1061 22.5196 22.2937 22.7071C22.4812 22.8946 22.7356 23 23.0008 23C23.266 23 23.5204 22.8946 23.7079 22.7071C23.8954 22.5196 24.0008 22.2652 24.0008 22V9.99999C24.0008 9.73478 23.8954 9.48042 23.7079 9.29289C23.5204 9.10535 23.266 8.99999 23.0008 8.99999ZM27.0008 8.99999C26.7356 8.99999 26.4812 9.10535 26.2937 9.29289C26.1061 9.48042 26.0008 9.73478 26.0008 9.99999V22C26.0008 22.2652 26.1061 22.5196 26.2937 22.7071C26.4812 22.8946 26.7356 23 27.0008 23C27.266 23 27.5204 22.8946 27.7079 22.7071C27.8954 22.5196 28.0008 22.2652 28.0008 22V9.99999C28.0008 9.73478 27.8954 9.48042 27.7079 9.29289C27.5204 9.10535 27.266 8.99999 27.0008 8.99999Z" fill="white"/>
<path d="M57.0005 8.49999H56.5005V3.99999C56.5007 3.70315 56.4129 3.41291 56.2481 3.16602C56.0833 2.91913 55.8489 2.72669 55.5747 2.61306C55.3004 2.49943 54.9986 2.46972 54.7075 2.5277C54.4164 2.58567 54.149 2.72872 53.9392 2.93874L41.9392 14.9387C41.7994 15.0781 41.6884 15.2437 41.6127 15.426C41.537 15.6083 41.498 15.8038 41.498 16.0012C41.498 16.1987 41.537 16.3941 41.6127 16.5765C41.6884 16.7588 41.7994 16.9244 41.9392 17.0637L53.9392 29.0637C54.1492 29.2739 54.4168 29.417 54.7081 29.4749C54.9995 29.5328 55.3015 29.5029 55.5758 29.389C55.8502 29.275 56.0845 29.0822 56.2491 28.8349C56.4137 28.5876 56.5012 28.297 56.5005 28V23.5H57.0005C57.3983 23.5 57.7798 23.342 58.0611 23.0606C58.3424 22.7793 58.5005 22.3978 58.5005 22V9.99999C58.5005 9.60217 58.3424 9.22063 58.0611 8.93933C57.7798 8.65803 57.3983 8.49999 57.0005 8.49999ZM55.5005 20.5H55.0005C54.6027 20.5 54.2211 20.658 53.9398 20.9393C53.6585 21.2206 53.5005 21.6022 53.5005 22V24.375L45.1255 16L53.5005 7.62499V9.99999C53.5005 10.3978 53.6585 10.7793 53.9398 11.0607C54.2211 11.342 54.6027 11.5 55.0005 11.5H55.5005V20.5ZM68.5005 9.99999V22C68.5005 22.3978 68.3424 22.7793 68.0611 23.0606C67.7798 23.342 67.3983 23.5 67.0005 23.5C66.6027 23.5 66.2211 23.342 65.9398 23.0606C65.6585 22.7793 65.5005 22.3978 65.5005 22V9.99999C65.5005 9.60217 65.6585 9.22063 65.9398 8.93933C66.2211 8.65803 66.6027 8.49999 67.0005 8.49999C67.3983 8.49999 67.7798 8.65803 68.0611 8.93933C68.3424 9.22063 68.5005 9.60217 68.5005 9.99999ZM63.5005 9.99999V22C63.5005 22.3978 63.3424 22.7793 63.0611 23.0606C62.7798 23.342 62.3983 23.5 62.0005 23.5C61.6027 23.5 61.2211 23.342 60.9398 23.0606C60.6585 22.7793 60.5005 22.3978 60.5005 22V9.99999C60.5005 9.60217 60.6585 9.22063 60.9398 8.93933C61.2211 8.65803 61.6027 8.49999 62.0005 8.49999C62.3983 8.49999 62.7798 8.65803 63.0611 8.93933C63.3424 9.22063 63.5005 9.60217 63.5005 9.99999Z" fill="white"/>
</g>
<defs>
<clipPath id="clip0_27_6029">
<rect width="72" height="32" rx="5" fill="white"/>
</clipPath>
</defs>
</svg>
