<svg width="72" height="32" viewBox="0 0 72 32" fill="none" xmlns="http://www.w3.org/2000/svg">
<g clip-path="url(#clip0_27_6194)">
<path d="M25.9245 14.3825C25.8489 14.5652 25.7207 14.7214 25.5563 14.8314C25.3919 14.9413 25.1986 15 25.0008 15H17.0008V27C17.0008 27.2652 16.8954 27.5196 16.7079 27.7071C16.5204 27.8946 16.266 28 16.0008 28C15.7356 28 15.4812 27.8946 15.2937 27.7071C15.1061 27.5196 15.0008 27.2652 15.0008 27V15H7.00079C6.80289 15.0001 6.6094 14.9416 6.44481 14.8317C6.28021 14.7218 6.15192 14.5656 6.07616 14.3828C6.00041 14.2 5.98061 13.9988 6.01926 13.8047C6.05791 13.6106 6.15328 13.4323 6.29329 13.2925L15.2933 4.29249C15.3862 4.19952 15.4964 4.12576 15.6178 4.07543C15.7392 4.02511 15.8694 3.99921 16.0008 3.99921C16.1322 3.99921 16.2623 4.02511 16.3837 4.07543C16.5051 4.12576 16.6154 4.19952 16.7083 4.29249L25.7083 13.2925C25.8481 13.4324 25.9433 13.6107 25.9818 13.8047C26.0202 13.9987 26.0003 14.1998 25.9245 14.3825Z" fill="white"/>
<path d="M66.0612 15.0612C65.9218 15.2011 65.7563 15.312 65.5739 15.3877C65.3916 15.4635 65.1961 15.5024 64.9987 15.5024C64.8013 15.5024 64.6058 15.4635 64.4235 15.3877C64.2411 15.312 64.0756 15.2011 63.9362 15.0612L57.4999 8.62499V27C57.4999 27.3978 57.3419 27.7793 57.0606 28.0606C56.7793 28.342 56.3978 28.5 55.9999 28.5C55.6021 28.5 55.2206 28.342 54.9393 28.0606C54.658 27.7793 54.4999 27.3978 54.4999 27V8.62499L48.0612 15.0612C47.7794 15.343 47.3972 15.5013 46.9987 15.5013C46.6002 15.5013 46.218 15.343 45.9362 15.0612C45.6544 14.7794 45.4961 14.3973 45.4961 13.9987C45.4961 13.6002 45.6544 13.218 45.9362 12.9362L54.9362 3.93624C55.0756 3.7964 55.2411 3.68544 55.4235 3.60974C55.6058 3.53403 55.8013 3.49506 55.9987 3.49506C56.1961 3.49506 56.3916 3.53403 56.5739 3.60974C56.7563 3.68544 56.9218 3.7964 57.0612 3.93624L66.0612 12.9362C66.201 13.0756 66.312 13.2412 66.3877 13.4235C66.4634 13.6058 66.5024 13.8013 66.5024 13.9987C66.5024 14.1962 66.4634 14.3916 66.3877 14.574C66.312 14.7563 66.201 14.9219 66.0612 15.0612Z" fill="white"/>
</g>
<defs>
<clipPath id="clip0_27_6194">
<rect width="72" height="32" rx="5" fill="white"/>
</clipPath>
</defs>
</svg>
