<svg width="72" height="32" viewBox="0 0 72 32" fill="none" xmlns="http://www.w3.org/2000/svg">
<g clip-path="url(#clip0_27_6134)">
<path d="M26 4H6C5.46957 4 4.96086 4.21071 4.58579 4.58579C4.21071 4.96086 4 5.46957 4 6V26C4 26.5304 4.21071 27.0391 4.58579 27.4142C4.96086 27.7893 5.46957 28 6 28H26C26.5304 28 27.0391 27.7893 27.4142 27.4142C27.7893 27.0391 28 26.5304 28 26V6C28 5.46957 27.7893 4.96086 27.4142 4.58579C27.0391 4.21071 26.5304 4 26 4ZM21.7075 16.7075L17.7075 20.7075C17.5199 20.8951 17.2654 21.0006 17 21.0006C16.7346 21.0006 16.4801 20.8951 16.2925 20.7075C16.1049 20.5199 15.9994 20.2654 15.9994 20C15.9994 19.7346 16.1049 19.4801 16.2925 19.2925L18.5863 17H11C10.7348 17 10.4804 16.8946 10.2929 16.7071C10.1054 16.5196 10 16.2652 10 16C10 15.7348 10.1054 15.4804 10.2929 15.2929C10.4804 15.1054 10.7348 15 11 15H18.5863L16.2925 12.7075C16.1049 12.5199 15.9994 12.2654 15.9994 12C15.9994 11.7346 16.1049 11.4801 16.2925 11.2925C16.4801 11.1049 16.7346 10.9994 17 10.9994C17.2654 10.9994 17.5199 11.1049 17.7075 11.2925L21.7075 15.2925C21.8005 15.3854 21.8742 15.4957 21.9246 15.6171C21.9749 15.7385 22.0008 15.8686 22.0008 16C22.0008 16.1314 21.9749 16.2615 21.9246 16.3829C21.8742 16.5043 21.8005 16.6146 21.7075 16.7075Z" fill="white"/>
<path d="M66 3.5H46C45.337 3.5 44.7011 3.76339 44.2322 4.23223C43.7634 4.70107 43.5 5.33696 43.5 6V26C43.5 26.663 43.7634 27.2989 44.2322 27.7678C44.7011 28.2366 45.337 28.5 46 28.5H66C66.663 28.5 67.2989 28.2366 67.7678 27.7678C68.2366 27.2989 68.5 26.663 68.5 26V6C68.5 5.33696 68.2366 4.70107 67.7678 4.23223C67.2989 3.76339 66.663 3.5 66 3.5ZM65.5 25.5H46.5V6.5H65.5V25.5ZM49.5 16C49.5 15.6022 49.658 15.2206 49.9393 14.9393C50.2206 14.658 50.6022 14.5 51 14.5H57.375L55.935 13.0612C55.7955 12.9217 55.6848 12.7561 55.6093 12.5738C55.5338 12.3915 55.4949 12.1961 55.4949 11.9987C55.4949 11.8014 55.5338 11.606 55.6093 11.4237C55.6848 11.2414 55.7955 11.0758 55.935 10.9362C56.0745 10.7967 56.2402 10.686 56.4225 10.6105C56.6048 10.535 56.8002 10.4961 56.9975 10.4961C57.1948 10.4961 57.3902 10.535 57.5725 10.6105C57.7548 10.686 57.9205 10.7967 58.06 10.9362L62.06 14.9362C62.1998 15.0756 62.3108 15.2412 62.3865 15.4235C62.4622 15.6058 62.5012 15.8013 62.5012 15.9987C62.5012 16.1962 62.4622 16.3917 62.3865 16.574C62.3108 16.7563 62.1998 16.9219 62.06 17.0613L58.06 21.0613C57.9205 21.2008 57.7548 21.3115 57.5725 21.387C57.3902 21.4625 57.1948 21.5014 56.9975 21.5014C56.8002 21.5014 56.6048 21.4625 56.4225 21.387C56.2402 21.3115 56.0745 21.2008 55.935 21.0613C55.7955 20.9217 55.6848 20.7561 55.6093 20.5738C55.5338 20.3915 55.4949 20.1961 55.4949 19.9988C55.4949 19.8014 55.5338 19.606 55.6093 19.4237C55.6848 19.2414 55.7955 19.0758 55.935 18.9363L57.375 17.5H51C50.6022 17.5 50.2206 17.342 49.9393 17.0607C49.658 16.7794 49.5 16.3978 49.5 16Z" fill="white"/>
</g>
<defs>
<clipPath id="clip0_27_6134">
<rect width="72" height="32" rx="5" fill="white"/>
</clipPath>
</defs>
</svg>
