<svg width="72" height="32" viewBox="0 0 72 32" fill="none" xmlns="http://www.w3.org/2000/svg">
<g clip-path="url(#clip0_27_6004)">
<path d="M9.00079 5C9.00079 4.73478 9.10614 4.48043 9.29368 4.29289C9.48122 4.10536 9.73557 4 10.0008 4H22.0008C22.266 4 22.5204 4.10536 22.7079 4.29289C22.8954 4.48043 23.0008 4.73478 23.0008 5C23.0008 5.26522 22.8954 5.51957 22.7079 5.70711C22.5204 5.89464 22.266 6 22.0008 6H10.0008C9.73557 6 9.48122 5.89464 9.29368 5.70711C9.10614 5.51957 9.00079 5.26522 9.00079 5ZM28.9245 16.6175C28.8489 16.4348 28.7207 16.2786 28.5563 16.1686C28.3919 16.0587 28.1986 16 28.0008 16H23.0008V9C23.0008 8.73478 22.8954 8.48043 22.7079 8.29289C22.5204 8.10536 22.266 8 22.0008 8H10.0008C9.73557 8 9.48122 8.10536 9.29368 8.29289C9.10614 8.48043 9.00079 8.73478 9.00079 9V16H4.00079C3.80289 15.9998 3.6094 16.0584 3.44481 16.1683C3.28021 16.2782 3.15192 16.4344 3.07616 16.6172C3.00041 16.8 2.98061 17.0012 3.01926 17.1953C3.05791 17.3894 3.15328 17.5676 3.29329 17.7075L15.2933 29.7075C15.3862 29.8005 15.4964 29.8742 15.6178 29.9246C15.7392 29.9749 15.8694 30.0008 16.0008 30.0008C16.1322 30.0008 16.2623 29.9749 16.3837 29.9246C16.5051 29.8742 16.6154 29.8005 16.7083 29.7075L28.7083 17.7075C28.8481 17.5676 28.9433 17.3893 28.9818 17.1953C29.0202 17.0013 29.0003 16.8002 28.9245 16.6175Z" fill="white"/>
<path d="M69.3862 16.4263C69.2727 16.152 69.0804 15.9177 68.8336 15.7528C68.5868 15.5879 68.2967 15.4999 67.9999 15.5H63.4999V10C63.4999 9.60218 63.3419 9.22064 63.0606 8.93934C62.7793 8.65804 62.3978 8.5 61.9999 8.5H49.9999C49.6021 8.5 49.2206 8.65804 48.9393 8.93934C48.658 9.22064 48.4999 9.60218 48.4999 10V15.5H43.9999C43.7032 15.5 43.4131 15.588 43.1664 15.7529C42.9197 15.9178 42.7275 16.1522 42.614 16.4264C42.5005 16.7006 42.4709 17.0023 42.5289 17.2933C42.587 17.5843 42.73 17.8515 42.9399 18.0613L54.9399 30.0613C55.0793 30.2011 55.2449 30.312 55.4272 30.3878C55.6095 30.4635 55.805 30.5024 56.0024 30.5024C56.1999 30.5024 56.3953 30.4635 56.5777 30.3878C56.76 30.312 56.9256 30.2011 57.0649 30.0613L69.0649 18.0613C69.2741 17.851 69.4163 17.5835 69.4735 17.2925C69.5306 17.0014 69.5003 16.7 69.3862 16.4263ZM55.9999 26.875L47.6249 18.5H49.9999C50.3978 18.5 50.7793 18.342 51.0606 18.0607C51.3419 17.7794 51.4999 17.3978 51.4999 17V11.5H60.4999V17C60.4999 17.3978 60.658 17.7794 60.9393 18.0607C61.2206 18.342 61.6021 18.5 61.9999 18.5H64.3749L55.9999 26.875ZM48.4999 5C48.4999 4.60218 48.658 4.22064 48.9393 3.93934C49.2206 3.65804 49.6021 3.5 49.9999 3.5H61.9999C62.3978 3.5 62.7793 3.65804 63.0606 3.93934C63.3419 4.22064 63.4999 4.60218 63.4999 5C63.4999 5.39782 63.3419 5.77936 63.0606 6.06066C62.7793 6.34196 62.3978 6.5 61.9999 6.5H49.9999C49.6021 6.5 49.2206 6.34196 48.9393 6.06066C48.658 5.77936 48.4999 5.39782 48.4999 5Z" fill="white"/>
</g>
<defs>
<clipPath id="clip0_27_6004">
<rect width="72" height="32" rx="5" fill="white"/>
</clipPath>
</defs>
</svg>
