<svg width="72" height="32" viewBox="0 0 72 32" fill="none" xmlns="http://www.w3.org/2000/svg">
<g clip-path="url(#clip0_27_6154)">
<path d="M29.0008 14C28.9985 16.121 28.1549 18.1545 26.6551 19.6543C25.1553 21.1541 23.1218 21.9977 21.0008 22H11.0008V27C11.0009 27.1979 10.9424 27.3914 10.8325 27.556C10.7226 27.7206 10.5664 27.8489 10.3836 27.9246C10.2008 28.0004 9.99956 28.0202 9.80548 27.9815C9.6114 27.9429 9.43314 27.8475 9.29329 27.7075L3.29329 21.7075C3.20031 21.6146 3.12655 21.5043 3.07623 21.3829C3.0259 21.2615 3 21.1314 3 21C3 20.8686 3.0259 20.7385 3.07623 20.6171C3.12655 20.4957 3.20031 20.3854 3.29329 20.2925L9.29329 14.2925C9.43314 14.1525 9.6114 14.0571 9.80548 14.0185C9.99956 13.9798 10.2008 13.9996 10.3836 14.0754C10.5664 14.1511 10.7226 14.2794 10.8325 14.444C10.9424 14.6086 11.0009 14.8021 11.0008 15V20H21.0008C22.5921 20 24.1182 19.3679 25.2434 18.2426C26.3686 17.1174 27.0008 15.5913 27.0008 14C27.0008 12.4087 26.3686 10.8826 25.2434 9.75736C24.1182 8.63214 22.5921 8 21.0008 8H10.0008C9.73557 8 9.48122 7.89464 9.29368 7.70711C9.10614 7.51957 9.00079 7.26522 9.00079 7C9.00079 6.73478 9.10614 6.48043 9.29368 6.29289C9.48122 6.10536 9.73557 6 10.0008 6H21.0008C23.1218 6.00232 25.1553 6.84591 26.6551 8.3457C28.1549 9.84549 28.9985 11.879 29.0008 14Z" fill="white"/>
<path d="M69.4992 14C69.4969 16.2536 68.6006 18.4143 67.0071 20.0078C65.4135 21.6014 63.2529 22.4977 60.9992 22.5H47.6242L51.0642 25.9387C51.2038 26.0783 51.3144 26.2439 51.39 26.4262C51.4655 26.6085 51.5043 26.8039 51.5043 27.0012C51.5043 27.1986 51.4655 27.394 51.39 27.5763C51.3144 27.7586 51.2038 27.9242 51.0642 28.0637C50.9247 28.2033 50.7591 28.314 50.5768 28.3895C50.3944 28.465 50.1991 28.5039 50.0017 28.5039C49.8044 28.5039 49.609 28.465 49.4267 28.3895C49.2444 28.314 49.0788 28.2033 48.9392 28.0637L42.9392 22.0637C42.7994 21.9244 42.6884 21.7588 42.6127 21.5765C42.537 21.3941 42.498 21.1987 42.498 21.0012C42.498 20.8038 42.537 20.6083 42.6127 20.426C42.6884 20.2437 42.7994 20.0781 42.9392 19.9387L48.9392 13.9388C49.0788 13.7992 49.2444 13.6885 49.4267 13.613C49.609 13.5375 49.8044 13.4986 50.0017 13.4986C50.1991 13.4986 50.3944 13.5375 50.5768 13.613C50.7591 13.6885 50.9247 13.7992 51.0642 13.9388C51.2038 14.0783 51.3144 14.2439 51.39 14.4262C51.4655 14.6085 51.5043 14.8039 51.5043 15.0013C51.5043 15.1986 51.4655 15.394 51.39 15.5763C51.3144 15.7586 51.2038 15.9242 51.0642 16.0637L47.6242 19.5H60.9992C62.4579 19.5 63.8569 18.9205 64.8883 17.8891C65.9198 16.8576 66.4992 15.4587 66.4992 14C66.4992 12.5413 65.9198 11.1424 64.8883 10.1109C63.8569 9.07946 62.4579 8.5 60.9992 8.5H49.9992C49.6014 8.5 49.2199 8.34196 48.9386 8.06066C48.6573 7.77936 48.4992 7.39782 48.4992 7C48.4992 6.60218 48.6573 6.22064 48.9386 5.93934C49.2199 5.65804 49.6014 5.5 49.9992 5.5H60.9992C63.2529 5.50232 65.4135 6.39859 67.0071 7.99215C68.6006 9.58571 69.4969 11.7464 69.4992 14Z" fill="white"/>
</g>
<defs>
<clipPath id="clip0_27_6154">
<rect width="72" height="32" rx="5" fill="white"/>
</clipPath>
</defs>
</svg>
