<svg width="72" height="32" viewBox="0 0 72 32" fill="none" xmlns="http://www.w3.org/2000/svg">
<g clip-path="url(#clip0_27_6219)">
<path d="M14.9245 21.6175C15.0003 21.8002 15.0202 22.0013 14.9818 22.1953C14.9433 22.3893 14.8481 22.5676 14.7083 22.7075L10.7083 26.7075C10.6154 26.8005 10.5051 26.8742 10.3837 26.9246C10.2623 26.9749 10.1322 27.0008 10.0008 27.0008C9.86937 27.0008 9.73925 26.9749 9.61785 26.9246C9.49645 26.8742 9.38616 26.8005 9.29329 26.7075L5.29329 22.7075C5.15328 22.5676 5.05791 22.3894 5.01926 22.1953C4.98061 22.0012 5.00041 21.8 5.07616 21.6172C5.15192 21.4344 5.28021 21.2781 5.44481 21.1683C5.6094 21.0584 5.80289 20.9998 6.00079 21H9.00079V5.99999C9.00079 5.73478 9.10614 5.48042 9.29368 5.29289C9.48122 5.10535 9.73557 4.99999 10.0008 4.99999C10.266 4.99999 10.5204 5.10535 10.7079 5.29289C10.8954 5.48042 11.0008 5.73478 11.0008 5.99999V21H14.0008C14.1986 21 14.3919 21.0587 14.5563 21.1686C14.7207 21.2786 14.8489 21.4348 14.9245 21.6175ZM26.7083 9.29249L22.7083 5.29249C22.6154 5.19952 22.5051 5.12576 22.3837 5.07543C22.2623 5.02511 22.1322 4.99921 22.0008 4.99921C21.8694 4.99921 21.7392 5.02511 21.6178 5.07543C21.4964 5.12576 21.3862 5.19952 21.2933 5.29249L17.2933 9.29249C17.1533 9.43235 17.0579 9.6106 17.0193 9.80469C16.9806 9.99877 17.0004 10.2 17.0762 10.3828C17.1519 10.5656 17.2802 10.7218 17.4448 10.8317C17.6094 10.9416 17.8029 11.0001 18.0008 11H21.0008V26C21.0008 26.2652 21.1061 26.5196 21.2937 26.7071C21.4812 26.8946 21.7356 27 22.0008 27C22.266 27 22.5204 26.8946 22.7079 26.7071C22.8954 26.5196 23.0008 26.2652 23.0008 26V11H26.0008C26.1987 11.0001 26.3922 10.9416 26.5568 10.8317C26.7214 10.7218 26.8497 10.5656 26.9254 10.3828C27.0012 10.2 27.021 9.99877 26.9823 9.80469C26.9437 9.6106 26.8483 9.43235 26.7083 9.29249Z" fill="white"/>
<path d="M55.0612 20.9387C55.201 21.0781 55.312 21.2437 55.3877 21.426C55.4634 21.6083 55.5024 21.8038 55.5024 22.0012C55.5024 22.1987 55.4634 22.3941 55.3877 22.5765C55.312 22.7588 55.201 22.9244 55.0612 23.0637L51.0612 27.0637C50.9218 27.2036 50.7563 27.3145 50.5739 27.3902C50.3916 27.466 50.1961 27.5049 49.9987 27.5049C49.8013 27.5049 49.6058 27.466 49.4235 27.3902C49.2411 27.3145 49.0756 27.2036 48.9362 27.0637L44.9362 23.0637C44.7967 22.9242 44.686 22.7586 44.6105 22.5763C44.535 22.394 44.4961 22.1986 44.4961 22.0012C44.4961 21.8039 44.535 21.6085 44.6105 21.4262C44.686 21.2439 44.7967 21.0783 44.9362 20.9387C45.0757 20.7992 45.2414 20.6885 45.4237 20.613C45.606 20.5375 45.8014 20.4986 45.9987 20.4986C46.196 20.4986 46.3914 20.5375 46.5737 20.613C46.756 20.6885 46.9217 20.7992 47.0612 20.9387L48.4999 22.375V5.99999C48.4999 5.60217 48.658 5.22064 48.9393 4.93933C49.2206 4.65803 49.6021 4.49999 49.9999 4.49999C50.3978 4.49999 50.7793 4.65803 51.0606 4.93933C51.3419 5.22064 51.4999 5.60217 51.4999 5.99999V22.375L52.9387 20.935C53.0783 20.7958 53.2439 20.6854 53.4261 20.6103C53.6083 20.5351 53.8036 20.4966 54.0007 20.4969C54.1978 20.4973 54.393 20.5365 54.5749 20.6123C54.7569 20.6881 54.9221 20.799 55.0612 20.9387ZM67.0612 8.93874L63.0612 4.93874C62.9218 4.7989 62.7563 4.68795 62.5739 4.61224C62.3916 4.53653 62.1961 4.49756 61.9987 4.49756C61.8013 4.49756 61.6058 4.53653 61.4235 4.61224C61.2411 4.68795 61.0756 4.7989 60.9362 4.93874L56.9362 8.93874C56.6544 9.22053 56.4961 9.60273 56.4961 10.0012C56.4961 10.3998 56.6544 10.7819 56.9362 11.0637C57.218 11.3455 57.6002 11.5038 57.9987 11.5038C58.3972 11.5038 58.7794 11.3455 59.0612 11.0637L60.4999 9.62499V26C60.4999 26.3978 60.658 26.7793 60.9393 27.0606C61.2206 27.342 61.6021 27.5 61.9999 27.5C62.3978 27.5 62.7793 27.342 63.0606 27.0606C63.3419 26.7793 63.4999 26.3978 63.4999 26V9.62499L64.9387 11.065C65.2205 11.3468 65.6027 11.5051 66.0012 11.5051C66.3997 11.5051 66.7819 11.3468 67.0637 11.065C67.3455 10.7832 67.5038 10.401 67.5038 10.0025C67.5038 9.60398 67.3455 9.22178 67.0637 8.93999L67.0612 8.93874Z" fill="white"/>
</g>
<defs>
<clipPath id="clip0_27_6219">
<rect width="72" height="32" rx="5" fill="white"/>
</clipPath>
</defs>
</svg>
