<svg width="72" height="32" viewBox="0 0 72 32" fill="none" xmlns="http://www.w3.org/2000/svg">
<g clip-path="url(#clip0_27_6019)">
<path d="M23.0008 27C23.0008 27.2652 22.8954 27.5196 22.7079 27.7071C22.5204 27.8946 22.266 28 22.0008 28H10.0008C9.73557 28 9.48122 27.8946 9.29368 27.7071C9.10614 27.5196 9.00079 27.2652 9.00079 27C9.00079 26.7348 9.10614 26.4804 9.29368 26.2929C9.48122 26.1053 9.73557 26 10.0008 26H22.0008C22.266 26 22.5204 26.1053 22.7079 26.2929C22.8954 26.4804 23.0008 26.7348 23.0008 27ZM28.7083 14.2925L16.7083 2.29249C16.6154 2.19952 16.5051 2.12576 16.3837 2.07543C16.2623 2.02511 16.1322 1.99921 16.0008 1.99921C15.8694 1.99921 15.7392 2.02511 15.6178 2.07543C15.4964 2.12576 15.3862 2.19952 15.2933 2.29249L3.29329 14.2925C3.15328 14.4323 3.05791 14.6106 3.01926 14.8047C2.98061 14.9988 3.00041 15.2 3.07616 15.3828C3.15192 15.5656 3.28021 15.7218 3.44481 15.8317C3.6094 15.9416 3.80289 16.0001 4.00079 16H9.00079V23C9.00079 23.2652 9.10614 23.5196 9.29368 23.7071C9.48122 23.8946 9.73557 24 10.0008 24H22.0008C22.266 24 22.5204 23.8946 22.7079 23.7071C22.8954 23.5196 23.0008 23.2652 23.0008 23V16H28.0008C28.1987 16.0001 28.3922 15.9416 28.5568 15.8317C28.7214 15.7218 28.8497 15.5656 28.9254 15.3828C29.0012 15.2 29.021 14.9988 28.9823 14.8047C28.9437 14.6106 28.8483 14.4323 28.7083 14.2925Z" fill="white"/>
<path d="M69.0591 13.9387L57.0591 1.93874C56.9197 1.7989 56.7541 1.68795 56.5718 1.61224C56.3895 1.53653 56.194 1.49756 55.9966 1.49756C55.7992 1.49756 55.6037 1.53653 55.4214 1.61224C55.239 1.68795 55.0734 1.7989 54.9341 1.93874L42.9341 13.9387C42.7238 14.1488 42.5807 14.4165 42.5228 14.708C42.465 14.9994 42.495 15.3015 42.6091 15.5759C42.7232 15.8503 42.9162 16.0846 43.1637 16.2491C43.4112 16.4137 43.7019 16.501 43.9991 16.5H48.4991V22C48.4991 22.3978 48.6571 22.7793 48.9384 23.0606C49.2197 23.342 49.6013 23.5 49.9991 23.5H61.9991C62.3969 23.5 62.7784 23.342 63.0597 23.0606C63.341 22.7793 63.4991 22.3978 63.4991 22V16.5H67.9991C68.2958 16.5 68.5859 16.412 68.8326 16.2471C69.0793 16.0821 69.2715 15.8478 69.385 15.5736C69.4985 15.2994 69.5281 14.9977 69.4701 14.7067C69.412 14.4157 69.269 14.1484 69.0591 13.9387ZM61.9991 13.5C61.6013 13.5 61.2197 13.658 60.9384 13.9393C60.6571 14.2206 60.4991 14.6022 60.4991 15V20.5H51.4991V15C51.4991 14.6022 51.341 14.2206 51.0597 13.9393C50.7784 13.658 50.3969 13.5 49.9991 13.5H47.6241L55.9991 5.12499L64.3741 13.5H61.9991ZM63.4991 27C63.4991 27.3978 63.341 27.7793 63.0597 28.0606C62.7784 28.342 62.3969 28.5 61.9991 28.5H49.9991C49.6013 28.5 49.2197 28.342 48.9384 28.0606C48.6571 27.7793 48.4991 27.3978 48.4991 27C48.4991 26.6022 48.6571 26.2206 48.9384 25.9393C49.2197 25.658 49.6013 25.5 49.9991 25.5H61.9991C62.3969 25.5 62.7784 25.658 63.0597 25.9393C63.341 26.2206 63.4991 26.6022 63.4991 27Z" fill="white"/>
</g>
<defs>
<clipPath id="clip0_27_6019">
<rect width="72" height="32" rx="5" fill="white"/>
</clipPath>
</defs>
</svg>
