<svg width="72" height="32" viewBox="0 0 72 32" fill="none" xmlns="http://www.w3.org/2000/svg">
<g clip-path="url(#clip0_27_6174)">
<path d="M27.7075 22.7075L21.7075 28.7075C21.6146 28.8005 21.5043 28.8742 21.3829 28.9246C21.2615 28.9749 21.1314 29.0008 21 29.0008C20.8686 29.0008 20.7385 28.9749 20.6171 28.9246C20.4957 28.8742 20.3854 28.8005 20.2925 28.7075L14.2925 22.7075C14.1525 22.5676 14.0571 22.3894 14.0185 22.1953C13.9798 22.0012 13.9996 21.8 14.0754 21.6172C14.1511 21.4344 14.2794 21.2782 14.444 21.1683C14.6086 21.0584 14.8021 20.9998 15 21H20V11C20 9.4087 19.3679 7.88258 18.2426 6.75736C17.1174 5.63214 15.5913 5 14 5C12.4087 5 10.8826 5.63214 9.75736 6.75736C8.63214 7.88258 8 9.4087 8 11V22C8 22.2652 7.89464 22.5196 7.70711 22.7071C7.51957 22.8946 7.26522 23 7 23C6.73478 23 6.48043 22.8946 6.29289 22.7071C6.10536 22.5196 6 22.2652 6 22V11C6 8.87827 6.84285 6.84344 8.34315 5.34315C9.84344 3.84285 11.8783 3 14 3C16.1217 3 18.1566 3.84285 19.6569 5.34315C21.1571 6.84344 22 8.87827 22 11V21H27C27.1979 20.9998 27.3914 21.0584 27.556 21.1683C27.7206 21.2782 27.8489 21.4344 27.9246 21.6172C28.0004 21.8 28.0202 22.0012 27.9815 22.1953C27.9429 22.3894 27.8475 22.5676 27.7075 22.7075Z" fill="white"/>
<path d="M68.0613 23.0613L62.0613 29.0613C61.9219 29.2011 61.7563 29.312 61.574 29.3878C61.3917 29.4635 61.1962 29.5024 60.9988 29.5024C60.8013 29.5024 60.6059 29.4635 60.4235 29.3878C60.2412 29.312 60.0756 29.2011 59.9363 29.0613L53.9362 23.0613C53.7967 22.9217 53.686 22.7561 53.6105 22.5738C53.535 22.3915 53.4961 22.1961 53.4961 21.9988C53.4961 21.8014 53.535 21.606 53.6105 21.4237C53.686 21.2414 53.7967 21.0758 53.9362 20.9363C54.0758 20.7967 54.2414 20.686 54.4237 20.6105C54.606 20.535 54.8014 20.4961 54.9987 20.4961C55.1961 20.4961 55.3915 20.535 55.5738 20.6105C55.7561 20.686 55.9217 20.7967 56.0613 20.9363L59.5 24.375V11C59.5 9.54131 58.9205 8.14236 57.8891 7.11091C56.8576 6.07946 55.4587 5.5 54 5.5C52.5413 5.5 51.1424 6.07946 50.1109 7.11091C49.0795 8.14236 48.5 9.54131 48.5 11V22C48.5 22.3978 48.342 22.7794 48.0607 23.0607C47.7794 23.342 47.3978 23.5 47 23.5C46.6022 23.5 46.2206 23.342 45.9393 23.0607C45.658 22.7794 45.5 22.3978 45.5 22V11C45.5 8.74566 46.3955 6.58365 47.9896 4.98959C49.5837 3.39553 51.7457 2.5 54 2.5C56.2543 2.5 58.4163 3.39553 60.0104 4.98959C61.6045 6.58365 62.5 8.74566 62.5 11V24.375L65.9387 20.935C66.0783 20.7955 66.2439 20.6848 66.4262 20.6093C66.6085 20.5338 66.8039 20.4949 67.0012 20.4949C67.1986 20.4949 67.394 20.5338 67.5763 20.6093C67.7586 20.6848 67.9242 20.7955 68.0637 20.935C68.2033 21.0745 68.314 21.2402 68.3895 21.4225C68.465 21.6048 68.5039 21.8002 68.5039 21.9975C68.5039 22.1948 68.465 22.3902 68.3895 22.5725C68.314 22.7548 68.2033 22.9205 68.0637 23.06L68.0613 23.0613Z" fill="white"/>
</g>
<defs>
<clipPath id="clip0_27_6174">
<rect width="72" height="32" rx="5" fill="white"/>
</clipPath>
</defs>
</svg>
