<svg width="72" height="32" viewBox="0 0 72 32" fill="none" xmlns="http://www.w3.org/2000/svg">
<g clip-path="url(#clip0_27_5979)">
<path d="M27.9237 12.3825C27.8481 12.5652 27.72 12.7214 27.5555 12.8314C27.3911 12.9413 27.1978 13 27 13H22V24C22 24.2652 21.8946 24.5196 21.7071 24.7071C21.5196 24.8946 21.2652 25 21 25H3C2.73478 25 2.48043 24.8946 2.29289 24.7071C2.10536 24.5196 2 24.2652 2 24C2 23.7348 2.10536 23.4804 2.29289 23.2929C2.48043 23.1053 2.73478 23 3 23H20V13H15C14.8021 13.0001 14.6086 12.9416 14.444 12.8317C14.2794 12.7218 14.1511 12.5656 14.0754 12.3828C13.9996 12.2 13.9798 11.9988 14.0185 11.8047C14.0571 11.6106 14.1525 11.4323 14.2925 11.2925L20.2925 5.29249C20.3854 5.19952 20.4957 5.12576 20.6171 5.07543C20.7385 5.02511 20.8686 4.99921 21 4.99921C21.1314 4.99921 21.2615 5.02511 21.3829 5.07543C21.5043 5.12576 21.6146 5.19952 21.7075 5.29249L27.7075 11.2925C27.8473 11.4324 27.9425 11.6107 27.981 11.8047C28.0195 11.9987 27.9995 12.1998 27.9237 12.3825Z" fill="white"/>
<path d="M68.0613 13.0612C67.9219 13.2011 67.7563 13.312 67.574 13.3877C67.3917 13.4635 67.1962 13.5024 66.9988 13.5024C66.8013 13.5024 66.6059 13.4635 66.4235 13.3877C66.2412 13.312 66.0756 13.2011 65.9363 13.0612L62.5 9.62499V24C62.5 24.3978 62.342 24.7793 62.0607 25.0607C61.7794 25.342 61.3978 25.5 61 25.5H43C42.6022 25.5 42.2206 25.342 41.9393 25.0607C41.658 24.7793 41.5 24.3978 41.5 24C41.5 23.6022 41.658 23.2206 41.9393 22.9393C42.2206 22.658 42.6022 22.5 43 22.5H59.5V9.62499L56.0613 13.065C55.9217 13.2045 55.7561 13.3152 55.5738 13.3907C55.3915 13.4662 55.1961 13.5051 54.9987 13.5051C54.8014 13.5051 54.606 13.4662 54.4237 13.3907C54.2414 13.3152 54.0758 13.2045 53.9362 13.065C53.7967 12.9255 53.686 12.7598 53.6105 12.5775C53.535 12.3952 53.4961 12.1998 53.4961 12.0025C53.4961 11.8052 53.535 11.6098 53.6105 11.4275C53.686 11.2452 53.7967 11.0795 53.9362 10.94L59.9363 4.93999C60.0756 4.80015 60.2412 4.6892 60.4235 4.61349C60.6059 4.53778 60.8013 4.49881 60.9988 4.49881C61.1962 4.49881 61.3917 4.53778 61.574 4.61349C61.7563 4.6892 61.9219 4.80015 62.0613 4.93999L68.0613 10.94C68.3425 11.2213 68.5006 11.6028 68.5006 12.0006C68.5006 12.3984 68.3425 12.7799 68.0613 13.0612Z" fill="white"/>
</g>
<defs>
<clipPath id="clip0_27_5979">
<rect width="72" height="32" rx="5" fill="white"/>
</clipPath>
</defs>
</svg>
