<svg width="72" height="32" viewBox="0 0 72 32" fill="none" xmlns="http://www.w3.org/2000/svg">
<g clip-path="url(#clip0_27_6149)">
<path d="M26 4H6C5.46957 4 4.96086 4.21071 4.58579 4.58579C4.21071 4.96086 4 5.46957 4 6V26C4 26.5304 4.21071 27.0391 4.58579 27.4142C4.96086 27.7893 5.46957 28 6 28H26C26.5304 28 27.0391 27.7893 27.4142 27.4142C27.7893 27.0391 28 26.5304 28 26V6C28 5.46957 27.7893 4.96086 27.4142 4.58579C27.0391 4.21071 26.5304 4 26 4ZM21 18C21 18.2652 20.8946 18.5196 20.7071 18.7071C20.5196 18.8946 20.2652 19 20 19C19.7348 19 19.4804 18.8946 19.2929 18.7071C19.1054 18.5196 19 18.2652 19 18V14.4137L12.7075 20.7075C12.6146 20.8004 12.5043 20.8741 12.3829 20.9244C12.2615 20.9747 12.1314 21.0006 12 21.0006C11.8686 21.0006 11.7385 20.9747 11.6171 20.9244C11.4957 20.8741 11.3854 20.8004 11.2925 20.7075C11.1996 20.6146 11.1259 20.5043 11.0756 20.3829C11.0253 20.2615 10.9994 20.1314 10.9994 20C10.9994 19.8686 11.0253 19.7385 11.0756 19.6171C11.1259 19.4957 11.1996 19.3854 11.2925 19.2925L17.5863 13H14C13.7348 13 13.4804 12.8946 13.2929 12.7071C13.1054 12.5196 13 12.2652 13 12C13 11.7348 13.1054 11.4804 13.2929 11.2929C13.4804 11.1054 13.7348 11 14 11H20C20.2652 11 20.5196 11.1054 20.7071 11.2929C20.8946 11.4804 21 11.7348 21 12V18Z" fill="white"/>
<path d="M66 3.5H46C45.337 3.5 44.7011 3.76339 44.2322 4.23223C43.7634 4.70107 43.5 5.33696 43.5 6V26C43.5 26.663 43.7634 27.2989 44.2322 27.7678C44.7011 28.2366 45.337 28.5 46 28.5H66C66.663 28.5 67.2989 28.2366 67.7678 27.7678C68.2366 27.2989 68.5 26.663 68.5 26V6C68.5 5.33696 68.2366 4.70107 67.7678 4.23223C67.2989 3.76339 66.663 3.5 66 3.5ZM65.5 25.5H46.5V6.5H65.5V25.5ZM50.9388 21.0613C50.7989 20.9219 50.688 20.7563 50.6122 20.574C50.5365 20.3917 50.4976 20.1962 50.4976 19.9988C50.4976 19.8013 50.5365 19.6059 50.6122 19.4235C50.688 19.2412 50.7989 19.0756 50.9388 18.9363L56.375 13.5H54C53.6022 13.5 53.2206 13.342 52.9393 13.0607C52.658 12.7794 52.5 12.3978 52.5 12C52.5 11.6022 52.658 11.2206 52.9393 10.9393C53.2206 10.658 53.6022 10.5 54 10.5H60C60.3978 10.5 60.7794 10.658 61.0607 10.9393C61.342 11.2206 61.5 11.6022 61.5 12V18C61.5 18.3978 61.342 18.7794 61.0607 19.0607C60.7794 19.342 60.3978 19.5 60 19.5C59.6022 19.5 59.2206 19.342 58.9393 19.0607C58.658 18.7794 58.5 18.3978 58.5 18V15.625L53.0612 21.065C52.9219 21.2048 52.7563 21.3158 52.574 21.3915C52.3917 21.4672 52.1962 21.5062 51.9987 21.5062C51.8013 21.5062 51.6058 21.4672 51.4235 21.3915C51.2412 21.3158 51.0756 21.2048 50.9362 21.065L50.9388 21.0613Z" fill="white"/>
</g>
<defs>
<clipPath id="clip0_27_6149">
<rect width="72" height="32" rx="5" fill="white"/>
</clipPath>
</defs>
</svg>
