<svg width="72" height="32" viewBox="0 0 72 32" fill="none" xmlns="http://www.w3.org/2000/svg">
<g clip-path="url(#clip0_27_5954)">
<path d="M29.7075 12.7075L17.7075 24.7075C17.6146 24.8005 17.5043 24.8742 17.3829 24.9246C17.2615 24.9749 17.1314 25.0008 17 25.0008C16.8686 25.0008 16.7385 24.9749 16.6171 24.9246C16.4957 24.8742 16.3854 24.8005 16.2925 24.7075L7.5 15.9138L3.7075 19.7075C3.56764 19.8475 3.38939 19.9429 3.19531 19.9815C3.00122 20.0202 2.80003 20.0004 2.61721 19.9246C2.43439 19.8489 2.27815 19.7206 2.16828 19.556C2.05841 19.3914 1.99984 19.1979 2 19V10C2 9.73478 2.10536 9.48043 2.29289 9.29289C2.48043 9.10536 2.73478 9 3 9H12C12.1979 8.99984 12.3914 9.05841 12.556 9.16828C12.7206 9.27815 12.8489 9.43439 12.9246 9.61721C13.0004 9.80003 13.0202 10.0012 12.9815 10.1953C12.9429 10.3894 12.8475 10.5676 12.7075 10.7075L8.91375 14.5L17 22.5863L28.2925 11.2925C28.3854 11.1996 28.4957 11.1259 28.6171 11.0756C28.7385 11.0253 28.8686 10.9994 29 10.9994C29.1314 10.9994 29.2615 11.0253 29.3829 11.0756C29.5043 11.1259 29.6146 11.1996 29.7075 11.2925C29.8004 11.3854 29.8741 11.4957 29.9244 11.6171C29.9747 11.7385 30.0006 11.8686 30.0006 12C30.0006 12.1314 29.9747 12.2615 29.9244 12.3829C29.8741 12.5043 29.8004 12.6146 29.7075 12.7075Z" fill="white"/>
<path d="M70.0613 13.0612L58.0613 25.0613C57.9219 25.2011 57.7563 25.312 57.574 25.3878C57.3917 25.4635 57.1962 25.5024 56.9988 25.5024C56.8013 25.5024 56.6059 25.4635 56.4235 25.3878C56.2412 25.312 56.0756 25.2011 55.9362 25.0613L44.5 13.625V19C44.5 19.3978 44.342 19.7794 44.0607 20.0607C43.7794 20.342 43.3978 20.5 43 20.5C42.6022 20.5 42.2206 20.342 41.9393 20.0607C41.658 19.7794 41.5 19.3978 41.5 19V10C41.5 9.60218 41.658 9.22064 41.9393 8.93934C42.2206 8.65804 42.6022 8.5 43 8.5H52C52.3978 8.5 52.7794 8.65804 53.0607 8.93934C53.342 9.22064 53.5 9.60218 53.5 10C53.5 10.3978 53.342 10.7794 53.0607 11.0607C52.7794 11.342 52.3978 11.5 52 11.5H46.625L57 21.875L67.9387 10.935C68.2205 10.6532 68.6027 10.4949 69.0012 10.4949C69.3998 10.4949 69.782 10.6532 70.0637 10.935C70.3455 11.2168 70.5039 11.599 70.5039 11.9975C70.5039 12.396 70.3455 12.7782 70.0637 13.06L70.0613 13.0612Z" fill="white"/>
</g>
<defs>
<clipPath id="clip0_27_5954">
<rect width="72" height="32" rx="5" fill="white"/>
</clipPath>
</defs>
</svg>
