<svg width="72" height="32" viewBox="0 0 72 32" fill="none" xmlns="http://www.w3.org/2000/svg">
<g clip-path="url(#clip0_27_5849)">
<path d="M26.0008 4C26.0008 4.26522 25.8954 4.51957 25.7079 4.70711C25.5204 4.89464 25.266 5 25.0008 5C22.0844 5.00331 19.2885 6.1633 17.2263 8.22548C15.1641 10.2877 14.0041 13.0836 14.0008 16V21H19.0008C19.1987 20.9998 19.3922 21.0584 19.5568 21.1683C19.7214 21.2782 19.8497 21.4344 19.9254 21.6172C20.0012 21.8 20.021 22.0012 19.9823 22.1953C19.9437 22.3894 19.8483 22.5676 19.7083 22.7075L13.7083 28.7075C13.6154 28.8005 13.5051 28.8742 13.3837 28.9246C13.2623 28.9749 13.1322 29.0008 13.0008 29.0008C12.8694 29.0008 12.7392 28.9749 12.6178 28.9246C12.4964 28.8742 12.3862 28.8005 12.2933 28.7075L6.29329 22.7075C6.15328 22.5676 6.05791 22.3894 6.01926 22.1953C5.98061 22.0012 6.00041 21.8 6.07616 21.6172C6.15192 21.4344 6.28021 21.2782 6.44481 21.1683C6.6094 21.0584 6.80289 20.9998 7.00079 21H12.0008V16C12.0044 12.5533 13.3752 9.24882 15.8124 6.81163C18.2496 4.37445 21.5541 3.00364 25.0008 3C25.266 3 25.5204 3.10536 25.7079 3.29289C25.8954 3.48043 26.0008 3.73478 26.0008 4Z" fill="white"/>
<path d="M66.4994 4C66.4994 4.39782 66.3414 4.77936 66.0601 5.06066C65.7788 5.34196 65.3972 5.5 64.9994 5.5C62.2155 5.50298 59.5466 6.61018 57.5781 8.57867C55.6096 10.5472 54.5024 13.2161 54.4994 16V24.375L57.9381 20.935C58.2199 20.6532 58.6021 20.4949 59.0006 20.4949C59.3992 20.4949 59.7814 20.6532 60.0631 20.935C60.3449 21.2168 60.5033 21.599 60.5033 21.9975C60.5033 22.396 60.3449 22.7782 60.0631 23.06L54.0631 29.06C53.9238 29.1998 53.7582 29.3108 53.5759 29.3865C53.3935 29.4622 53.1981 29.5012 53.0006 29.5012C52.8032 29.5012 52.6077 29.4622 52.4254 29.3865C52.2431 29.3108 52.0775 29.1998 51.9381 29.06L45.9381 23.06C45.7986 22.9205 45.6879 22.7548 45.6124 22.5725C45.5369 22.3902 45.498 22.1948 45.498 21.9975C45.498 21.599 45.6564 21.2168 45.9381 20.935C46.2199 20.6532 46.6021 20.4949 47.0006 20.4949C47.3992 20.4949 47.7814 20.6532 48.0631 20.935L51.4994 24.375V16C51.5034 12.4208 52.927 8.98932 55.4578 6.45844C57.9887 3.92756 61.4202 2.50397 64.9994 2.5C65.3972 2.5 65.7788 2.65804 66.0601 2.93934C66.3414 3.22064 66.4994 3.60218 66.4994 4Z" fill="white"/>
</g>
<defs>
<clipPath id="clip0_27_5849">
<rect width="72" height="32" rx="5" fill="white"/>
</clipPath>
</defs>
</svg>
