<svg width="72" height="32" viewBox="0 0 72 32" fill="none" xmlns="http://www.w3.org/2000/svg">
<g clip-path="url(#clip0_27_6229)">
<path d="M18.0006 13V8.00001C18.0004 7.80211 18.059 7.60862 18.1688 7.44402C18.2787 7.27943 18.4349 7.15114 18.6178 7.07538C18.8006 6.99963 19.0018 6.97983 19.1959 7.01848C19.3899 7.05713 19.5682 7.1525 19.7081 7.29251L21.5006 9.08626L25.2931 5.29251C25.4807 5.10487 25.7352 4.99945 26.0006 4.99945C26.2659 4.99945 26.5204 5.10487 26.7081 5.29251C26.8957 5.48015 27.0011 5.73464 27.0011 6.00001C27.0011 6.26537 26.8957 6.51987 26.7081 6.70751L22.9143 10.5L24.7081 12.2925C24.8481 12.4324 24.9434 12.6106 24.9821 12.8047C25.0207 12.9988 25.0009 13.2 24.9252 13.3828C24.8494 13.5656 24.7211 13.7219 24.5565 13.8317C24.3919 13.9416 24.1985 14.0002 24.0006 14H19.0006C18.7353 14 18.481 13.8946 18.2934 13.7071C18.1059 13.5196 18.0006 13.2652 18.0006 13ZM13.0006 18H8.00056C7.80266 17.9999 7.60917 18.0584 7.44457 18.1683C7.27998 18.2782 7.15169 18.4344 7.07593 18.6172C7.00018 18.8 6.98038 19.0012 7.01903 19.1953C7.05768 19.3894 7.15304 19.5677 7.29306 19.7075L9.08681 21.5L5.29306 25.2925C5.10542 25.4801 5 25.7346 5 26C5 26.2654 5.10542 26.5199 5.29306 26.7075C5.4807 26.8951 5.73519 27.0006 6.00056 27.0006C6.26592 27.0006 6.52042 26.8951 6.70806 26.7075L10.5006 22.9138L12.2931 24.7075C12.4329 24.8475 12.6112 24.9429 12.8052 24.9815C12.9993 25.0202 13.2005 25.0004 13.3833 24.9246C13.5662 24.8489 13.7224 24.7206 13.8323 24.556C13.9421 24.3914 14.0007 24.1979 14.0006 24V19C14.0006 18.7348 13.8952 18.4804 13.7077 18.2929C13.5201 18.1054 13.2658 18 13.0006 18ZM13.3831 7.07626C13.2004 7.00046 12.9993 6.98055 12.8053 7.01904C12.6112 7.05753 12.433 7.1527 12.2931 7.29251L10.5006 9.08626L6.70806 5.29251C6.52042 5.10487 6.26592 4.99945 6.00056 4.99945C5.73519 4.99945 5.4807 5.10487 5.29306 5.29251C5.10542 5.48015 5 5.73464 5 6.00001C5 6.26537 5.10542 6.51987 5.29306 6.70751L9.08681 10.5L7.29306 12.2925C7.15304 12.4324 7.05768 12.6106 7.01903 12.8047C6.98038 12.9988 7.00018 13.2 7.07593 13.3828C7.15169 13.5656 7.27998 13.7219 7.44457 13.8317C7.60917 13.9416 7.80266 14.0002 8.00056 14H13.0006C13.2658 14 13.5201 13.8946 13.7077 13.7071C13.8952 13.5196 14.0006 13.2652 14.0006 13V8.00001C14.0005 7.80223 13.9418 7.6089 13.8319 7.44447C13.722 7.28005 13.5658 7.15191 13.3831 7.07626ZM22.9143 21.5L24.7081 19.7075C24.8481 19.5677 24.9434 19.3894 24.9821 19.1953C25.0207 19.0012 25.0009 18.8 24.9252 18.6172C24.8494 18.4344 24.7211 18.2782 24.5565 18.1683C24.3919 18.0584 24.1985 17.9999 24.0006 18H19.0006C18.7353 18 18.481 18.1054 18.2934 18.2929C18.1059 18.4804 18.0006 18.7348 18.0006 19V24C18.0004 24.1979 18.059 24.3914 18.1688 24.556C18.2787 24.7206 18.4349 24.8489 18.6178 24.9246C18.8006 25.0004 19.0018 25.0202 19.1959 24.9815C19.3899 24.9429 19.5682 24.8475 19.7081 24.7075L21.5006 22.9138L25.2931 26.7075C25.386 26.8004 25.4963 26.8741 25.6177 26.9244C25.7391 26.9747 25.8692 27.0006 26.0006 27.0006C26.132 27.0006 26.2621 26.9747 26.3835 26.9244C26.5048 26.8741 26.6151 26.8004 26.7081 26.7075C26.801 26.6146 26.8747 26.5043 26.9249 26.3829C26.9752 26.2615 27.0011 26.1314 27.0011 26C27.0011 25.8686 26.9752 25.7385 26.9249 25.6171C26.8747 25.4957 26.801 25.3854 26.7081 25.2925L22.9143 21.5Z" fill="white"/>
<path d="M57.4999 13V7.99997C57.4999 7.60215 57.658 7.22062 57.9393 6.93931C58.2206 6.65801 58.6021 6.49997 58.9999 6.49997C59.3978 6.49997 59.7793 6.65801 60.0606 6.93931C60.3419 7.22062 60.4999 7.60215 60.4999 7.99997V9.37497L64.9387 4.93497C65.2205 4.65318 65.6027 4.49487 66.0012 4.49487C66.3997 4.49487 66.7819 4.65318 67.0637 4.93497C67.3455 5.21677 67.5038 5.59896 67.5038 5.99747C67.5038 6.39599 67.3455 6.77818 67.0637 7.05997L62.6249 11.5H63.9999C64.3978 11.5 64.7793 11.658 65.0606 11.9393C65.3419 12.2206 65.4999 12.6022 65.4999 13C65.4999 13.3978 65.3419 13.7793 65.0606 14.0606C64.7793 14.3419 64.3978 14.5 63.9999 14.5H58.9999C58.6021 14.5 58.2206 14.3419 57.9393 14.0606C57.658 13.7793 57.4999 13.3978 57.4999 13ZM52.9999 17.5H47.9999C47.6021 17.5 47.2206 17.658 46.9393 17.9393C46.658 18.2206 46.4999 18.6022 46.4999 19C46.4999 19.3978 46.658 19.7793 46.9393 20.0606C47.2206 20.3419 47.6021 20.5 47.9999 20.5H49.3749L44.9387 24.9387C44.6569 25.2205 44.4986 25.6027 44.4986 26.0012C44.4986 26.3997 44.6569 26.7819 44.9387 27.0637C45.2205 27.3455 45.6027 27.5038 46.0012 27.5038C46.3997 27.5038 46.7819 27.3455 47.0637 27.0637L51.4999 22.625V24C51.4999 24.3978 51.658 24.7793 51.9393 25.0606C52.2206 25.3419 52.6021 25.5 52.9999 25.5C53.3978 25.5 53.7793 25.3419 54.0606 25.0606C54.3419 24.7793 54.4999 24.3978 54.4999 24V19C54.4999 18.6022 54.3419 18.2206 54.0606 17.9393C53.7793 17.658 53.3978 17.5 52.9999 17.5ZM62.6249 20.5H63.9999C64.3978 20.5 64.7793 20.3419 65.0606 20.0606C65.3419 19.7793 65.4999 19.3978 65.4999 19C65.4999 18.6022 65.3419 18.2206 65.0606 17.9393C64.7793 17.658 64.3978 17.5 63.9999 17.5H58.9999C58.6021 17.5 58.2206 17.658 57.9393 17.9393C57.658 18.2206 57.4999 18.6022 57.4999 19V24C57.4999 24.3978 57.658 24.7793 57.9393 25.0606C58.2206 25.3419 58.6021 25.5 58.9999 25.5C59.3978 25.5 59.7793 25.3419 60.0606 25.0606C60.3419 24.7793 60.4999 24.3978 60.4999 24V22.625L64.9387 27.065C65.2205 27.3468 65.6027 27.5051 66.0012 27.5051C66.3997 27.5051 66.7819 27.3468 67.0637 27.065C67.3455 26.7832 67.5038 26.401 67.5038 26.0025C67.5038 25.604 67.3455 25.2218 67.0637 24.94L62.6249 20.5ZM52.9999 6.49997C52.6021 6.49997 52.2206 6.65801 51.9393 6.93931C51.658 7.22062 51.4999 7.60215 51.4999 7.99997V9.37497L47.0612 4.93872C46.7794 4.65693 46.3972 4.49862 45.9987 4.49862C45.6002 4.49862 45.218 4.65693 44.9362 4.93872C44.6544 5.22052 44.4961 5.60271 44.4961 6.00122C44.4961 6.39974 44.6544 6.78193 44.9362 7.06372L49.3749 11.5H47.9999C47.6021 11.5 47.2206 11.658 46.9393 11.9393C46.658 12.2206 46.4999 12.6022 46.4999 13C46.4999 13.3978 46.658 13.7793 46.9393 14.0606C47.2206 14.3419 47.6021 14.5 47.9999 14.5H52.9999C53.3978 14.5 53.7793 14.3419 54.0606 14.0606C54.3419 13.7793 54.4999 13.3978 54.4999 13V7.99997C54.4999 7.60215 54.3419 7.22062 54.0606 6.93931C53.7793 6.65801 53.3978 6.49997 52.9999 6.49997Z" fill="white"/>
</g>
<defs>
<clipPath id="clip0_27_6229">
<rect width="72" height="32" rx="5" fill="white"/>
</clipPath>
</defs>
</svg>
