<svg width="72" height="32" viewBox="0 0 72 32" fill="none" xmlns="http://www.w3.org/2000/svg">
<g clip-path="url(#clip0_27_6099)">
<path d="M27.7075 16.7075L18.7075 25.7075C18.5676 25.8475 18.3894 25.9429 18.1953 25.9815C18.0012 26.0202 17.8 26.0004 17.6172 25.9246C17.4344 25.8489 17.2782 25.7206 17.1683 25.556C17.0584 25.3914 16.9998 25.1979 17 25V17H5C4.73478 17 4.48043 16.8946 4.29289 16.7071C4.10536 16.5196 4 16.2652 4 16C4 15.7348 4.10536 15.4804 4.29289 15.2929C4.48043 15.1054 4.73478 15 5 15H17V6.99999C16.9998 6.8021 17.0584 6.60861 17.1683 6.44401C17.2782 6.27942 17.4344 6.15112 17.6172 6.07537C17.8 5.99962 18.0012 5.97981 18.1953 6.01846C18.3894 6.05712 18.5676 6.15248 18.7075 6.29249L27.7075 15.2925C27.8005 15.3854 27.8742 15.4957 27.9246 15.6171C27.9749 15.7385 28.0008 15.8686 28.0008 16C28.0008 16.1314 27.9749 16.2615 27.9246 16.3829C27.8742 16.5043 27.8005 16.6146 27.7075 16.7075Z" fill="white"/>
<path d="M68.0613 17.0613L59.0613 26.0613C58.7795 26.343 58.3973 26.5014 57.9988 26.5014C57.6002 26.5014 57.218 26.343 56.9363 26.0613C56.6545 25.7795 56.4961 25.3973 56.4961 24.9988C56.4961 24.6002 56.6545 24.218 56.9363 23.9363L63.375 17.5H45C44.6022 17.5 44.2206 17.342 43.9393 17.0607C43.658 16.7794 43.5 16.3978 43.5 16C43.5 15.6022 43.658 15.2206 43.9393 14.9393C44.2206 14.658 44.6022 14.5 45 14.5H63.375L56.9387 8.06001C56.657 7.77821 56.4986 7.39602 56.4986 6.99751C56.4986 6.59899 56.657 6.2168 56.9387 5.93501C57.2205 5.65321 57.6027 5.4949 58.0012 5.4949C58.3998 5.4949 58.782 5.65321 59.0637 5.93501L68.0637 14.935C68.2036 15.0745 68.3145 15.2403 68.3901 15.4229C68.4657 15.6054 68.5045 15.8011 68.5043 15.9986C68.5041 16.1962 68.4648 16.3918 68.3888 16.5742C68.3127 16.7565 68.2014 16.922 68.0613 17.0613Z" fill="white"/>
</g>
<defs>
<clipPath id="clip0_27_6099">
<rect width="72" height="32" rx="5" fill="white"/>
</clipPath>
</defs>
</svg>
