<svg width="72" height="32" viewBox="0 0 72 32" fill="none" xmlns="http://www.w3.org/2000/svg">
<g clip-path="url(#clip0_27_6064)">
<path d="M23.7075 11.2925C23.8005 11.3854 23.8742 11.4957 23.9246 11.6171C23.9749 11.7385 24.0008 11.8686 24.0008 12C24.0008 12.1314 23.9749 12.2615 23.9246 12.3829C23.8742 12.5043 23.8005 12.6146 23.7075 12.7075L16.4137 20L21.7075 25.2925C21.8475 25.4324 21.9429 25.6106 21.9815 25.8047C22.0202 25.9988 22.0004 26.2 21.9246 26.3828C21.8489 26.5656 21.7206 26.7218 21.556 26.8317C21.3914 26.9416 21.1979 27.0002 21 27H9C8.73478 27 8.48043 26.8946 8.29289 26.7071C8.10536 26.5196 8 26.2652 8 26V14C7.99984 13.8021 8.05841 13.6086 8.16828 13.444C8.27815 13.2794 8.43439 13.1511 8.61721 13.0754C8.80003 12.9996 9.00122 12.9798 9.19531 13.0185C9.38939 13.0571 9.56765 13.1525 9.7075 13.2925L15 18.5863L22.2925 11.2925C22.3854 11.1995 22.4957 11.1258 22.6171 11.0754C22.7385 11.0251 22.8686 10.9992 23 10.9992C23.1314 10.9992 23.2615 11.0251 23.3829 11.0754C23.5043 11.1258 23.6146 11.1995 23.7075 11.2925ZM28 5H6C5.73478 5 5.48043 5.10536 5.29289 5.29289C5.10536 5.48043 5 5.73478 5 6C5 6.26522 5.10536 6.51957 5.29289 6.70711C5.48043 6.89464 5.73478 7 6 7H28C28.2652 7 28.5196 6.89464 28.7071 6.70711C28.8946 6.51957 29 6.26522 29 6C29 5.73478 28.8946 5.48043 28.7071 5.29289C28.5196 5.10536 28.2652 5 28 5Z" fill="white"/>
<path d="M69.5 6C69.5 6.39782 69.342 6.77936 69.0607 7.06066C68.7794 7.34196 68.3978 7.5 68 7.5H46C45.6022 7.5 45.2206 7.34196 44.9393 7.06066C44.658 6.77936 44.5 6.39782 44.5 6C44.5 5.60218 44.658 5.22064 44.9393 4.93934C45.2206 4.65804 45.6022 4.5 46 4.5H68C68.3978 4.5 68.7794 4.65804 69.0607 4.93934C69.342 5.22064 69.5 5.60218 69.5 6ZM61.9387 10.9388L50.5 22.375V14C50.5 13.6022 50.342 13.2206 50.0607 12.9393C49.7794 12.658 49.3978 12.5 49 12.5C48.6022 12.5 48.2206 12.658 47.9393 12.9393C47.658 13.2206 47.5 13.6022 47.5 14V26C47.5 26.3978 47.658 26.7794 47.9393 27.0607C48.2206 27.342 48.6022 27.5 49 27.5H61C61.3978 27.5 61.7794 27.342 62.0607 27.0607C62.342 26.7794 62.5 26.3978 62.5 26C62.5 25.6022 62.342 25.2206 62.0607 24.9393C61.7794 24.658 61.3978 24.5 61 24.5H52.625L64.065 13.0612C64.3468 12.7795 64.5051 12.3973 64.5051 11.9987C64.5051 11.6002 64.3468 11.218 64.065 10.9362C63.7832 10.6545 63.401 10.4961 63.0025 10.4961C62.604 10.4961 62.2218 10.6545 61.94 10.9362L61.9387 10.9388Z" fill="white"/>
</g>
<defs>
<clipPath id="clip0_27_6064">
<rect width="72" height="32" rx="5" fill="white"/>
</clipPath>
</defs>
</svg>
