<svg width="72" height="32" viewBox="0 0 72 32" fill="none" xmlns="http://www.w3.org/2000/svg">
<g clip-path="url(#clip0_27_6159)">
<path d="M28.7075 21.7075L22.7075 27.7075C22.5676 27.8475 22.3894 27.9429 22.1953 27.9815C22.0012 28.0202 21.8 28.0004 21.6172 27.9246C21.4344 27.8489 21.2782 27.7206 21.1683 27.556C21.0584 27.3914 20.9998 27.1979 21 27V22H11C8.87827 22 6.84344 21.1571 5.34315 19.6569C3.84285 18.1566 3 16.1217 3 14C3 11.8783 3.84285 9.84344 5.34315 8.34315C6.84344 6.84285 8.87827 6 11 6H22C22.2652 6 22.5196 6.10536 22.7071 6.29289C22.8946 6.48043 23 6.73478 23 7C23 7.26522 22.8946 7.51957 22.7071 7.70711C22.5196 7.89464 22.2652 8 22 8H11C9.4087 8 7.88258 8.63214 6.75736 9.75736C5.63214 10.8826 5 12.4087 5 14C5 15.5913 5.63214 17.1174 6.75736 18.2426C7.88258 19.3679 9.4087 20 11 20H21V15C20.9998 14.8021 21.0584 14.6086 21.1683 14.444C21.2782 14.2794 21.4344 14.1511 21.6172 14.0754C21.8 13.9996 22.0012 13.9798 22.1953 14.0185C22.3894 14.0571 22.5676 14.1525 22.7075 14.2925L28.7075 20.2925C28.8005 20.3854 28.8742 20.4957 28.9246 20.6171C28.9749 20.7385 29.0008 20.8686 29.0008 21C29.0008 21.1314 28.9749 21.2615 28.9246 21.3829C28.8742 21.5043 28.8005 21.6146 28.7075 21.7075Z" fill="white"/>
<path d="M69.0613 22.0613L63.0613 28.0613C62.7795 28.343 62.3973 28.5014 61.9988 28.5014C61.6002 28.5014 61.218 28.343 60.9363 28.0613C60.6545 27.7795 60.4961 27.3973 60.4961 26.9988C60.4961 26.6002 60.6545 26.218 60.9363 25.9363L64.375 22.5H51C48.7457 22.5 46.5837 21.6045 44.9896 20.0104C43.3955 18.4163 42.5 16.2543 42.5 14C42.5 11.7457 43.3955 9.58365 44.9896 7.98959C46.5837 6.39553 48.7457 5.5 51 5.5H62C62.3978 5.5 62.7794 5.65804 63.0607 5.93934C63.342 6.22064 63.5 6.60218 63.5 7C63.5 7.39782 63.342 7.77936 63.0607 8.06066C62.7794 8.34196 62.3978 8.5 62 8.5H51C49.5413 8.5 48.1424 9.07946 47.1109 10.1109C46.0795 11.1424 45.5 12.5413 45.5 14C45.5 15.4587 46.0795 16.8576 47.1109 17.8891C48.1424 18.9205 49.5413 19.5 51 19.5H64.375L60.935 16.0613C60.7955 15.9217 60.6848 15.7561 60.6093 15.5738C60.5338 15.3915 60.4949 15.1961 60.4949 14.9987C60.4949 14.8014 60.5338 14.606 60.6093 14.4237C60.6848 14.2414 60.7955 14.0758 60.935 13.9362C61.0745 13.7967 61.2402 13.686 61.4225 13.6105C61.6048 13.535 61.8002 13.4961 61.9975 13.4961C62.1948 13.4961 62.3902 13.535 62.5725 13.6105C62.7548 13.686 62.9205 13.7967 63.06 13.9362L69.06 19.9363C69.1999 20.0755 69.311 20.241 69.3868 20.4233C69.4626 20.6056 69.5017 20.8011 69.5018 20.9985C69.5019 21.1959 69.4631 21.3914 69.3875 21.5738C69.3119 21.7562 69.201 21.9218 69.0613 22.0613Z" fill="white"/>
</g>
<defs>
<clipPath id="clip0_27_6159">
<rect width="72" height="32" rx="5" fill="white"/>
</clipPath>
</defs>
</svg>
