<svg width="72" height="32" viewBox="0 0 72 32" fill="none" xmlns="http://www.w3.org/2000/svg">
<g clip-path="url(#clip0_27_6254)">
<path d="M5.29329 10.7075C5.20031 10.6146 5.12655 10.5043 5.07623 10.3829C5.0259 10.2615 5 10.1314 5 9.99999C5 9.86858 5.0259 9.73845 5.07623 9.61705C5.12655 9.49566 5.20031 9.38537 5.29329 9.29249L9.29329 5.29249C9.43314 5.15248 9.6114 5.05712 9.80548 5.01846C9.99956 4.97981 10.2008 4.99962 10.3836 5.07537C10.5664 5.15112 10.7226 5.27942 10.8325 5.44401C10.9424 5.60861 11.0009 5.8021 11.0008 5.99999V8.99999H26.0008C26.266 8.99999 26.5204 9.10535 26.7079 9.29289C26.8954 9.48042 27.0008 9.73478 27.0008 9.99999C27.0008 10.2652 26.8954 10.5196 26.7079 10.7071C26.5204 10.8946 26.266 11 26.0008 11H11.0008V14C11.0009 14.1979 10.9424 14.3914 10.8325 14.556C10.7226 14.7206 10.5664 14.8489 10.3836 14.9246C10.2008 15.0004 9.99956 15.0202 9.80548 14.9815C9.6114 14.9429 9.43314 14.8475 9.29329 14.7075L5.29329 10.7075ZM26.7083 21.2925L22.7083 17.2925C22.5684 17.1525 22.3902 17.0571 22.1961 17.0185C22.002 16.9798 21.8008 16.9996 21.618 17.0754C21.4352 17.1511 21.2789 17.2794 21.1691 17.444C21.0592 17.6086 21.0006 17.8021 21.0008 18V21H6.00079C5.73557 21 5.48122 21.1054 5.29368 21.2929C5.10614 21.4804 5.00079 21.7348 5.00079 22C5.00079 22.2652 5.10614 22.5196 5.29368 22.7071C5.48122 22.8946 5.73557 23 6.00079 23H21.0008V26C21.0006 26.1979 21.0592 26.3914 21.1691 26.556C21.2789 26.7206 21.4352 26.8489 21.618 26.9246C21.8008 27.0004 22.002 27.0202 22.1961 26.9815C22.3902 26.9429 22.5684 26.8475 22.7083 26.7075L26.7083 22.7075C26.8013 22.6146 26.875 22.5043 26.9253 22.3829C26.9757 22.2615 27.0016 22.1314 27.0016 22C27.0016 21.8686 26.9757 21.7385 26.9253 21.6171C26.875 21.4957 26.8013 21.3854 26.7083 21.2925Z" fill="white"/>
<path d="M67.0603 23.0613L63.0603 27.0613C62.7785 27.343 62.3963 27.5014 61.9978 27.5014C61.5993 27.5014 61.2171 27.343 60.9353 27.0613C60.6535 26.7795 60.4952 26.3973 60.4952 25.9988C60.4952 25.6002 60.6535 25.218 60.9353 24.9363L62.3741 23.5H45.9991C45.6012 23.5 45.2197 23.342 44.9384 23.0607C44.6571 22.7794 44.4991 22.3978 44.4991 22C44.4991 21.6022 44.6571 21.2207 44.9384 20.9393C45.2197 20.658 45.6012 20.5 45.9991 20.5H62.3741L60.9341 19.0613C60.6523 18.7795 60.494 18.3973 60.494 17.9988C60.494 17.6002 60.6523 17.2181 60.9341 16.9363C61.2159 16.6545 61.5981 16.4962 61.9966 16.4962C62.3951 16.4962 62.7773 16.6545 63.0591 16.9363L67.0591 20.9363C67.199 21.0755 67.31 21.2411 67.3859 21.4233C67.4617 21.6056 67.5008 21.8011 67.5009 21.9985C67.501 22.1959 67.4621 22.3914 67.3865 22.5738C67.3109 22.7562 67.2001 22.9218 67.0603 23.0613ZM48.9353 15.0613C49.2171 15.343 49.5993 15.5014 49.9978 15.5014C50.3963 15.5014 50.7785 15.343 51.0603 15.0613C51.3421 14.7795 51.5004 14.3973 51.5004 13.9988C51.5004 13.6002 51.3421 13.218 51.0603 12.9363L49.6241 11.5H65.9991C66.3969 11.5 66.7784 11.342 67.0597 11.0607C67.341 10.7794 67.4991 10.3978 67.4991 10C67.4991 9.60218 67.341 9.22065 67.0597 8.93935C66.7784 8.65804 66.3969 8.50001 65.9991 8.50001H49.6241L51.0603 7.06126C51.3421 6.77946 51.5004 6.39727 51.5004 5.99876C51.5004 5.60024 51.3421 5.21805 51.0603 4.93626C50.7785 4.65446 50.3963 4.49615 49.9978 4.49615C49.5993 4.49615 49.2171 4.65446 48.9353 4.93626L44.9353 8.93626C44.7955 9.07561 44.6845 9.2412 44.6088 9.42353C44.5331 9.60586 44.4941 9.80134 44.4941 9.99876C44.4941 10.1962 44.5331 10.3917 44.6088 10.574C44.6845 10.7563 44.7955 10.9219 44.9353 11.0613L48.9353 15.0613Z" fill="white"/>
</g>
<defs>
<clipPath id="clip0_27_6254">
<rect width="72" height="32" rx="5" fill="white"/>
</clipPath>
</defs>
</svg>
