<svg width="72" height="32" viewBox="0 0 72 32" fill="none" xmlns="http://www.w3.org/2000/svg">
<g clip-path="url(#clip0_27_5924)">
<path d="M28 16C28.0003 19.1549 26.7582 22.1829 24.5425 24.4288C22.3268 26.6746 19.3158 27.9576 16.1613 28H16C12.9353 28.0076 9.98537 26.8348 7.76252 24.725C7.66706 24.6347 7.59032 24.5265 7.53669 24.4066C7.48305 24.2866 7.45356 24.1573 7.4499 24.026C7.44625 23.8946 7.46849 23.7639 7.51538 23.6411C7.56226 23.5184 7.63286 23.4061 7.72314 23.3106C7.81343 23.2152 7.92163 23.1384 8.04157 23.0848C8.16151 23.0312 8.29084 23.0017 8.42217 22.998C8.55351 22.9943 8.68428 23.0166 8.80702 23.0635C8.92976 23.1104 9.04206 23.181 9.13752 23.2712C10.5673 24.6196 12.3626 25.5168 14.2993 25.8507C16.236 26.1847 18.2281 25.9405 20.0269 25.1489C21.8256 24.3572 23.3512 23.053 24.4131 21.3993C25.475 19.7456 26.026 17.8157 25.9974 15.8507C25.9688 13.8856 25.3619 11.9725 24.2523 10.3504C23.1428 8.72835 21.5799 7.46914 19.7589 6.73012C17.9379 5.9911 15.9395 5.80504 14.0133 6.19518C12.0872 6.58532 10.3187 7.53436 8.92877 8.92375C8.91856 8.93479 8.9077 8.94522 8.89627 8.955L7.57877 10.1612L9.70377 12.2862C9.84571 12.4255 9.9429 12.604 9.98292 12.7988C10.0229 12.9936 10.004 13.1959 9.92841 13.3799C9.85287 13.5638 9.72419 13.7211 9.55881 13.8316C9.39344 13.942 9.19889 14.0007 9.00002 14H3.00002C2.7348 14 2.48045 13.8946 2.29291 13.7071C2.10537 13.5196 2.00002 13.2652 2.00002 13V7C1.99887 6.80167 2.05671 6.60749 2.1662 6.44212C2.27569 6.27676 2.43188 6.14769 2.61491 6.07131C2.79793 5.99494 2.99954 5.97472 3.19409 6.01321C3.38865 6.0517 3.56736 6.14718 3.70752 6.2875L6.16377 8.75L7.53127 7.5C9.21124 5.82655 11.3494 4.68833 13.6757 4.22903C16.002 3.76974 18.4123 4.00995 20.6022 4.91935C22.7921 5.82876 24.6635 7.36657 25.9802 9.33868C27.2968 11.3108 27.9997 13.6288 28 16Z" fill="white"/>
<path d="M68.5 16C68.5003 19.2864 67.2064 22.4407 64.8983 24.7801C62.5902 27.1196 59.4536 28.456 56.1675 28.5H56C52.8088 28.5067 49.7374 27.2852 47.4225 25.0888C47.1332 24.8156 46.9644 24.4387 46.953 24.041C46.9416 23.6433 47.0887 23.2574 47.3619 22.9681C47.635 22.6789 48.0119 22.51 48.4096 22.4986C48.8073 22.4873 49.1932 22.6343 49.4825 22.9075C50.8403 24.1894 52.5458 25.0427 54.3858 25.3608C56.2258 25.6789 58.1188 25.4477 59.8281 24.696C61.5375 23.9444 62.9874 22.7057 63.9968 21.1346C65.0061 19.5636 65.53 17.73 65.5031 15.8628C65.4762 13.9957 64.8997 12.1779 63.8455 10.6366C62.7914 9.09531 61.3064 7.89885 59.5761 7.19675C57.8458 6.49465 55.947 6.31804 54.1169 6.689C52.2868 7.05997 50.6066 7.96204 49.2863 9.2825C49.27 9.29875 49.255 9.31375 49.2375 9.32875L46.8612 11.5H49C49.3978 11.5 49.7794 11.658 50.0607 11.9393C50.342 12.2206 50.5 12.6022 50.5 13C50.5 13.3978 50.342 13.7794 50.0607 14.0607C49.7794 14.342 49.3978 14.5 49 14.5H43C42.6022 14.5 42.2206 14.342 41.9393 14.0607C41.658 13.7794 41.5 13.3978 41.5 13V7C41.5 6.60218 41.658 6.22065 41.9393 5.93934C42.2206 5.65804 42.6022 5.5 43 5.5C43.3978 5.5 43.7794 5.65804 44.0607 5.93934C44.342 6.22065 44.5 6.60218 44.5 7V9.59L47.185 7.1325C48.9361 5.39079 51.164 4.20686 53.5873 3.73016C56.0107 3.25345 58.521 3.50533 60.8013 4.454C63.0817 5.40268 65.0299 7.00563 66.4001 9.06053C67.7703 11.1154 68.501 13.5302 68.5 16Z" fill="white"/>
</g>
<defs>
<clipPath id="clip0_27_5924">
<rect width="72" height="32" rx="5" fill="white"/>
</clipPath>
</defs>
</svg>
