<svg width="72" height="32" viewBox="0 0 72 32" fill="none" xmlns="http://www.w3.org/2000/svg">
<g clip-path="url(#clip0_27_6269)">
<path d="M12.0008 17H8.00079V20C8.00094 20.1979 7.94238 20.3914 7.83251 20.556C7.72264 20.7206 7.5664 20.8489 7.38358 20.9246C7.20075 21.0004 6.99956 21.0202 6.80548 20.9815C6.6114 20.9429 6.43314 20.8475 6.29329 20.7075L2.29329 16.7075C2.20031 16.6146 2.12655 16.5043 2.07623 16.3829C2.0259 16.2615 2 16.1314 2 16C2 15.8686 2.0259 15.7385 2.07623 15.6171C2.12655 15.4957 2.20031 15.3854 2.29329 15.2925L6.29329 11.2925C6.43314 11.1525 6.6114 11.0571 6.80548 11.0185C6.99956 10.9798 7.20075 10.9996 7.38358 11.0754C7.5664 11.1511 7.72264 11.2794 7.83251 11.444C7.94238 11.6086 8.00094 11.8021 8.00079 12V15H12.0008C12.266 15 12.5204 15.1054 12.7079 15.2929C12.8954 15.4804 13.0008 15.7348 13.0008 16C13.0008 16.2652 12.8954 16.5196 12.7079 16.7071C12.5204 16.8946 12.266 17 12.0008 17ZM12.0008 7.99999H15.0008V12C15.0008 12.2652 15.1061 12.5196 15.2937 12.7071C15.4812 12.8946 15.7356 13 16.0008 13C16.266 13 16.5204 12.8946 16.7079 12.7071C16.8954 12.5196 17.0008 12.2652 17.0008 12V7.99999H20.0008C20.1987 8.00015 20.3922 7.94158 20.5568 7.83171C20.7214 7.72184 20.8497 7.56561 20.9254 7.38278C21.0012 7.19996 21.021 6.99877 20.9823 6.80469C20.9437 6.6106 20.8483 6.43235 20.7083 6.29249L16.7083 2.29249C16.6154 2.19952 16.5051 2.12576 16.3837 2.07543C16.2623 2.02511 16.1322 1.99921 16.0008 1.99921C15.8694 1.99921 15.7392 2.02511 15.6178 2.07543C15.4964 2.12576 15.3862 2.19952 15.2933 2.29249L11.2933 6.29249C11.1533 6.43235 11.0579 6.6106 11.0193 6.80469C10.9806 6.99877 11.0004 7.19996 11.0762 7.38278C11.1519 7.56561 11.2802 7.72184 11.4448 7.83171C11.6094 7.94158 11.8029 8.00015 12.0008 7.99999ZM29.7083 15.2925L25.7083 11.2925C25.5684 11.1525 25.3902 11.0571 25.1961 11.0185C25.002 10.9798 24.8008 10.9996 24.618 11.0754C24.4352 11.1511 24.2789 11.2794 24.1691 11.444C24.0592 11.6086 24.0006 11.8021 24.0008 12V15H20.0008C19.7356 15 19.4812 15.1054 19.2937 15.2929C19.1061 15.4804 19.0008 15.7348 19.0008 16C19.0008 16.2652 19.1061 16.5196 19.2937 16.7071C19.4812 16.8946 19.7356 17 20.0008 17H24.0008V20C24.0006 20.1979 24.0592 20.3914 24.1691 20.556C24.2789 20.7206 24.4352 20.8489 24.618 20.9246C24.8008 21.0004 25.002 21.0202 25.1961 20.9815C25.3902 20.9429 25.5684 20.8475 25.7083 20.7075L29.7083 16.7075C29.8013 16.6146 29.875 16.5043 29.9253 16.3829C29.9757 16.2615 30.0016 16.1314 30.0016 16C30.0016 15.8686 29.9757 15.7385 29.9253 15.6171C29.875 15.4957 29.8013 15.3854 29.7083 15.2925ZM20.0008 24H17.0008V20C17.0008 19.7348 16.8954 19.4804 16.7079 19.2929C16.5204 19.1053 16.266 19 16.0008 19C15.7356 19 15.4812 19.1053 15.2937 19.2929C15.1061 19.4804 15.0008 19.7348 15.0008 20V24H12.0008C11.8029 23.9998 11.6094 24.0584 11.4448 24.1683C11.2802 24.2781 11.1519 24.4344 11.0762 24.6172C11.0004 24.8 10.9806 25.0012 11.0193 25.1953C11.0579 25.3894 11.1533 25.5676 11.2933 25.7075L15.2933 29.7075C15.3862 29.8005 15.4964 29.8742 15.6178 29.9246C15.7392 29.9749 15.8694 30.0008 16.0008 30.0008C16.1322 30.0008 16.2623 29.9749 16.3837 29.9246C16.5051 29.8742 16.6154 29.8005 16.7083 29.7075L20.7083 25.7075C20.8483 25.5676 20.9437 25.3894 20.9823 25.1953C21.021 25.0012 21.0012 24.8 20.9254 24.6172C20.8497 24.4344 20.7214 24.2781 20.5568 24.1683C20.3922 24.0584 20.1987 23.9998 20.0008 24Z" fill="white"/>
<path d="M50.938 8.06124C50.7981 7.92188 50.6872 7.75629 50.6115 7.57397C50.5358 7.39164 50.4968 7.19616 50.4968 6.99874C50.4968 6.80132 50.5358 6.60584 50.6115 6.42351C50.6872 6.24118 50.7981 6.07559 50.938 5.93624L54.938 1.93624C55.0773 1.7964 55.2429 1.68544 55.4253 1.60974C55.6076 1.53403 55.8031 1.49506 56.0005 1.49506C56.1979 1.49506 56.3934 1.53403 56.5757 1.60974C56.758 1.68544 56.9236 1.7964 57.063 1.93624L61.063 5.93624C61.3448 6.21803 61.5031 6.60022 61.5031 6.99874C61.5031 7.39725 61.3448 7.77945 61.063 8.06124C60.7812 8.34303 60.399 8.50134 60.0005 8.50134C59.602 8.50134 59.2198 8.34303 58.938 8.06124L57.4992 6.62499V12C57.4992 12.3978 57.3412 12.7793 57.0599 13.0606C56.7786 13.342 56.3971 13.5 55.9992 13.5C55.6014 13.5 55.2199 13.342 54.9386 13.0606C54.6573 12.7793 54.4992 12.3978 54.4992 12V6.62499L53.0605 8.06124C52.9212 8.2007 52.7557 8.31134 52.5736 8.38683C52.3915 8.46232 52.1964 8.50117 51.9992 8.50117C51.8021 8.50117 51.6069 8.46232 51.4248 8.38683C51.2427 8.31134 51.0773 8.2007 50.938 8.06124ZM58.938 23.9362L57.4992 25.375V20C57.4992 19.6022 57.3412 19.2206 57.0599 18.9393C56.7786 18.658 56.3971 18.5 55.9992 18.5C55.6014 18.5 55.2199 18.658 54.9386 18.9393C54.6573 19.2206 54.4992 19.6022 54.4992 20V25.375L53.0605 23.935C52.9209 23.7955 52.7553 23.6848 52.573 23.6093C52.3907 23.5338 52.1953 23.4949 51.998 23.4949C51.8007 23.4949 51.6053 23.5338 51.423 23.6093C51.2407 23.6848 51.075 23.7955 50.9355 23.935C50.7959 24.0745 50.6853 24.2402 50.6098 24.4225C50.5342 24.6048 50.4954 24.8002 50.4954 24.9975C50.4954 25.1948 50.5342 25.3902 50.6098 25.5725C50.6853 25.7548 50.7959 25.9205 50.9355 26.06L54.9355 30.06C55.0748 30.1998 55.2404 30.3108 55.4228 30.3865C55.6051 30.4622 55.8006 30.5012 55.998 30.5012C56.1954 30.5012 56.3909 30.4622 56.5732 30.3865C56.7555 30.3108 56.9211 30.1998 57.0605 30.06L61.0605 26.06C61.3423 25.7782 61.5006 25.396 61.5006 24.9975C61.5006 24.599 61.3423 24.2168 61.0605 23.935C60.7787 23.6532 60.3965 23.4949 59.998 23.4949C59.5995 23.4949 59.2173 23.6532 58.9355 23.935L58.938 23.9362ZM70.063 14.9362L66.063 10.9362C65.7812 10.6544 65.399 10.4961 65.0005 10.4961C64.602 10.4961 64.2198 10.6544 63.938 10.9362C63.6562 11.218 63.4979 11.6002 63.4979 11.9987C63.4979 12.3973 63.6562 12.7794 63.938 13.0612L65.3742 14.5H59.9992C59.6014 14.5 59.2199 14.658 58.9386 14.9393C58.6573 15.2206 58.4992 15.6022 58.4992 16C58.4992 16.3978 58.6573 16.7793 58.9386 17.0606C59.2199 17.342 59.6014 17.5 59.9992 17.5H65.3742L63.9342 18.9387C63.6524 19.2205 63.4941 19.6027 63.4941 20.0012C63.4941 20.3998 63.6524 20.7819 63.9342 21.0637C64.216 21.3455 64.5982 21.5038 64.9967 21.5038C65.3952 21.5038 65.7774 21.3455 66.0592 21.0637L70.0592 17.0637C70.1992 16.9245 70.3102 16.7589 70.386 16.5767C70.4618 16.3944 70.5009 16.1989 70.501 16.0015C70.5012 15.8041 70.4623 15.6086 70.3867 15.4262C70.3111 15.2438 70.2002 15.0782 70.0605 14.9387L70.063 14.9362ZM46.6242 17.5H51.9992C52.3971 17.5 52.7786 17.342 53.0599 17.0606C53.3412 16.7793 53.4992 16.3978 53.4992 16C53.4992 15.6022 53.3412 15.2206 53.0599 14.9393C52.7786 14.658 52.3971 14.5 51.9992 14.5H46.6242L48.0642 13.0612C48.346 12.7794 48.5043 12.3973 48.5043 11.9987C48.5043 11.6002 48.346 11.218 48.0642 10.9362C47.7824 10.6544 47.4002 10.4961 47.0017 10.4961C46.6032 10.4961 46.221 10.6544 45.9392 10.9362L41.9392 14.9362C41.7994 15.0756 41.6884 15.2412 41.6127 15.4235C41.537 15.6058 41.498 15.8013 41.498 15.9987C41.498 16.1962 41.537 16.3916 41.6127 16.574C41.6884 16.7563 41.7994 16.9219 41.9392 17.0612L45.9392 21.0612C46.0788 21.2008 46.2444 21.3114 46.4267 21.387C46.609 21.4625 46.8044 21.5013 47.0017 21.5013C47.1991 21.5013 47.3944 21.4625 47.5768 21.387C47.7591 21.3114 47.9247 21.2008 48.0642 21.0612C48.2038 20.9217 48.3144 20.7561 48.39 20.5738C48.4655 20.3915 48.5043 20.1961 48.5043 19.9987C48.5043 19.8014 48.4655 19.606 48.39 19.4237C48.3144 19.2414 48.2038 19.0758 48.0642 18.9362L46.6242 17.5Z" fill="white"/>
</g>
<defs>
<clipPath id="clip0_27_6269">
<rect width="72" height="32" rx="5" fill="white"/>
</clipPath>
</defs>
</svg>
