<svg width="72" height="32" viewBox="0 0 72 32" fill="none" xmlns="http://www.w3.org/2000/svg">
<g clip-path="url(#clip0_27_6199)">
<path d="M24.7075 24.7075C24.6146 24.8005 24.5043 24.8742 24.3829 24.9246C24.2615 24.9749 24.1314 25.0008 24 25.0008C23.8686 25.0008 23.7385 24.9749 23.6171 24.9246C23.4957 24.8742 23.3854 24.8005 23.2925 24.7075L14.5 15.9137L8.7075 21.7075C8.56765 21.8475 8.38939 21.9429 8.19531 21.9815C8.00122 22.0202 7.80003 22.0004 7.61721 21.9246C7.43439 21.8489 7.27815 21.7206 7.16828 21.556C7.05841 21.3914 6.99984 21.1979 7 21V8C7 7.73478 7.10536 7.48043 7.29289 7.29289C7.48043 7.10536 7.73478 7 8 7H21C21.1979 6.99984 21.3914 7.05841 21.556 7.16828C21.7206 7.27815 21.8489 7.43439 21.9246 7.61721C22.0004 7.80003 22.0202 8.00122 21.9815 8.19531C21.9429 8.38939 21.8475 8.56765 21.7075 8.7075L15.9137 14.5L24.7075 23.2925C24.8005 23.3854 24.8742 23.4957 24.9246 23.6171C24.9749 23.7385 25.0008 23.8686 25.0008 24C25.0008 24.1314 24.9749 24.2615 24.9246 24.3829C24.8742 24.5043 24.8005 24.6146 24.7075 24.7075Z" fill="white"/>
<path d="M65.0613 25.0613C64.9219 25.2011 64.7563 25.312 64.574 25.3878C64.3917 25.4635 64.1962 25.5024 63.9988 25.5024C63.8013 25.5024 63.6059 25.4635 63.4235 25.3878C63.2412 25.312 63.0756 25.2011 62.9363 25.0613L49.5 11.625V21C49.5 21.3978 49.342 21.7794 49.0607 22.0607C48.7794 22.342 48.3978 22.5 48 22.5C47.6022 22.5 47.2206 22.342 46.9393 22.0607C46.658 21.7794 46.5 21.3978 46.5 21V8C46.5 7.60218 46.658 7.22064 46.9393 6.93934C47.2206 6.65804 47.6022 6.5 48 6.5H61C61.3978 6.5 61.7794 6.65804 62.0607 6.93934C62.342 7.22064 62.5 7.60218 62.5 8C62.5 8.39782 62.342 8.77936 62.0607 9.06066C61.7794 9.34196 61.3978 9.5 61 9.5H51.625L65.0613 22.9387C65.2007 23.0781 65.3114 23.2435 65.3868 23.4256C65.4623 23.6077 65.5012 23.8029 65.5012 24C65.5012 24.1971 65.4623 24.3923 65.3868 24.5744C65.3114 24.7565 65.2007 24.9219 65.0613 25.0613Z" fill="white"/>
</g>
<defs>
<clipPath id="clip0_27_6199">
<rect width="72" height="32" rx="5" fill="white"/>
</clipPath>
</defs>
</svg>
