<svg width="72" height="32" viewBox="0 0 72 32" fill="none" xmlns="http://www.w3.org/2000/svg">
<g clip-path="url(#clip0_27_6239)">
<path d="M12.7075 15.2925C12.8005 15.3854 12.8742 15.4957 12.9246 15.6171C12.9749 15.7385 13.0008 15.8686 13.0008 16C13.0008 16.1314 12.9749 16.2615 12.9246 16.3829C12.8742 16.5043 12.8005 16.6146 12.7075 16.7075L8.7075 20.7075C8.56765 20.8475 8.38939 20.9429 8.19531 20.9815C8.00122 21.0202 7.80003 21.0004 7.61721 20.9246C7.43439 20.8489 7.27815 20.7206 7.16828 20.556C7.05841 20.3914 6.99984 20.1979 7 20V17H2C1.73478 17 1.48043 16.8946 1.29289 16.7071C1.10536 16.5196 1 16.2652 1 16C1 15.7348 1.10536 15.4804 1.29289 15.2929C1.48043 15.1054 1.73478 15 2 15H7V12C6.99984 11.8021 7.05841 11.6086 7.16828 11.444C7.27815 11.2794 7.43439 11.1511 7.61721 11.0754C7.80003 10.9996 8.00122 10.9798 8.19531 11.0185C8.38939 11.0571 8.56765 11.1525 8.7075 11.2925L12.7075 15.2925ZM30 15H25V12C25.0002 11.8021 24.9416 11.6086 24.8317 11.444C24.7218 11.2794 24.5656 11.1511 24.3828 11.0754C24.2 10.9996 23.9988 10.9798 23.8047 11.0185C23.6106 11.0571 23.4324 11.1525 23.2925 11.2925L19.2925 15.2925C19.1995 15.3854 19.1258 15.4957 19.0754 15.6171C19.0251 15.7385 18.9992 15.8686 18.9992 16C18.9992 16.1314 19.0251 16.2615 19.0754 16.3829C19.1258 16.5043 19.1995 16.6146 19.2925 16.7075L23.2925 20.7075C23.4324 20.8475 23.6106 20.9429 23.8047 20.9815C23.9988 21.0202 24.2 21.0004 24.3828 20.9246C24.5656 20.8489 24.7218 20.7206 24.8317 20.556C24.9416 20.3914 25.0002 20.1979 25 20V17H30C30.2652 17 30.5196 16.8946 30.7071 16.7071C30.8946 16.5196 31 16.2652 31 16C31 15.7348 30.8946 15.4804 30.7071 15.2929C30.5196 15.1054 30.2652 15 30 15ZM16 4C15.7348 4 15.4804 4.10536 15.2929 4.29289C15.1054 4.48043 15 4.73478 15 5V27C15 27.2652 15.1054 27.5196 15.2929 27.7071C15.4804 27.8946 15.7348 28 16 28C16.2652 28 16.5196 27.8946 16.7071 27.7071C16.8946 27.5196 17 27.2652 17 27V5C17 4.73478 16.8946 4.48043 16.7071 4.29289C16.5196 4.10536 16.2652 4 16 4Z" fill="white"/>
<path d="M57.5 5V27C57.5 27.3978 57.342 27.7794 57.0607 28.0607C56.7794 28.342 56.3978 28.5 56 28.5C55.6022 28.5 55.2206 28.342 54.9393 28.0607C54.658 27.7794 54.5 27.3978 54.5 27V5C54.5 4.60218 54.658 4.22064 54.9393 3.93934C55.2206 3.65804 55.6022 3.5 56 3.5C56.3978 3.5 56.7794 3.65804 57.0607 3.93934C57.342 4.22064 57.5 4.60218 57.5 5ZM48.0612 10.9388C47.7795 10.657 47.3973 10.4986 46.9988 10.4986C46.6002 10.4986 46.218 10.657 45.9363 10.9388C45.6545 11.2205 45.4961 11.6027 45.4961 12.0013C45.4961 12.3998 45.6545 12.782 45.9363 13.0638L47.375 14.5H42C41.6022 14.5 41.2206 14.658 40.9393 14.9393C40.658 15.2206 40.5 15.6022 40.5 16C40.5 16.3978 40.658 16.7794 40.9393 17.0607C41.2206 17.342 41.6022 17.5 42 17.5H47.375L45.9387 18.9387C45.657 19.2205 45.4986 19.6027 45.4986 20.0012C45.4986 20.3998 45.657 20.782 45.9387 21.0637C46.2205 21.3455 46.6027 21.5039 47.0012 21.5039C47.3998 21.5039 47.782 21.3455 48.0638 21.0637L52.0638 17.0637C52.2036 16.9244 52.3145 16.7588 52.3903 16.5765C52.466 16.3941 52.5049 16.1987 52.5049 16.0012C52.5049 15.8038 52.466 15.6083 52.3903 15.426C52.3145 15.2437 52.2036 15.0781 52.0638 14.9388L48.0612 10.9388ZM70 14.5H64.625L66.065 13.0612C66.3468 12.7795 66.5051 12.3973 66.5051 11.9987C66.5051 11.6002 66.3468 11.218 66.065 10.9362C65.7832 10.6545 65.401 10.4961 65.0025 10.4961C64.604 10.4961 64.2218 10.6545 63.94 10.9362L59.94 14.9362C59.8002 15.0756 59.6892 15.2412 59.6135 15.4235C59.5378 15.6058 59.4988 15.8013 59.4988 15.9987C59.4988 16.1962 59.5378 16.3917 59.6135 16.574C59.6892 16.7563 59.8002 16.9219 59.94 17.0613L63.94 21.0613C64.2218 21.343 64.604 21.5014 65.0025 21.5014C65.401 21.5014 65.7832 21.343 66.065 21.0613C66.3468 20.7795 66.5051 20.3973 66.5051 19.9988C66.5051 19.6002 66.3468 19.218 66.065 18.9363L64.625 17.5H70C70.3978 17.5 70.7794 17.342 71.0607 17.0607C71.342 16.7794 71.5 16.3978 71.5 16C71.5 15.6022 71.342 15.2206 71.0607 14.9393C70.7794 14.658 70.3978 14.5 70 14.5Z" fill="white"/>
</g>
<defs>
<clipPath id="clip0_27_6239">
<rect width="72" height="32" rx="5" fill="white"/>
</clipPath>
</defs>
</svg>
