<svg width="72" height="32" viewBox="0 0 72 32" fill="none" xmlns="http://www.w3.org/2000/svg">
<g clip-path="url(#clip0_27_6039)">
<path d="M23.0008 27C23.0008 27.2652 22.8954 27.5196 22.7079 27.7071C22.5204 27.8946 22.266 28 22.0008 28H10.0008C9.73557 28 9.48122 27.8946 9.29368 27.7071C9.10614 27.5196 9.00079 27.2652 9.00079 27C9.00079 26.7348 9.10614 26.4804 9.29368 26.2929C9.48122 26.1053 9.73557 26 10.0008 26H22.0008C22.266 26 22.5204 26.1053 22.7079 26.2929C22.8954 26.4804 23.0008 26.7348 23.0008 27ZM28.7083 14.2925L16.7083 2.29249C16.6154 2.19952 16.5051 2.12576 16.3837 2.07543C16.2623 2.02511 16.1322 1.99921 16.0008 1.99921C15.8694 1.99921 15.7392 2.02511 15.6178 2.07543C15.4964 2.12576 15.3862 2.19952 15.2933 2.29249L3.29329 14.2925C3.15328 14.4323 3.05791 14.6106 3.01926 14.8047C2.98061 14.9988 3.00041 15.2 3.07616 15.3828C3.15192 15.5656 3.28021 15.7218 3.44481 15.8317C3.6094 15.9416 3.80289 16.0001 4.00079 16H9.00079V19C9.00079 19.2652 9.10614 19.5196 9.29368 19.7071C9.48122 19.8946 9.73557 20 10.0008 20H22.0008C22.266 20 22.5204 19.8946 22.7079 19.7071C22.8954 19.5196 23.0008 19.2652 23.0008 19V16H28.0008C28.1987 16.0001 28.3922 15.9416 28.5568 15.8317C28.7214 15.7218 28.8497 15.5656 28.9254 15.3828C29.0012 15.2 29.021 14.9988 28.9823 14.8047C28.9437 14.6106 28.8483 14.4323 28.7083 14.2925ZM22.0008 22H10.0008C9.73557 22 9.48122 22.1053 9.29368 22.2929C9.10614 22.4804 9.00079 22.7348 9.00079 23C9.00079 23.2652 9.10614 23.5196 9.29368 23.7071C9.48122 23.8946 9.73557 24 10.0008 24H22.0008C22.266 24 22.5204 23.8946 22.7079 23.7071C22.8954 23.5196 23.0008 23.2652 23.0008 23C23.0008 22.7348 22.8954 22.4804 22.7079 22.2929C22.5204 22.1053 22.266 22 22.0008 22Z" fill="white"/>
<path d="M69.061 13.9387L57.061 1.93874C56.9217 1.7989 56.7561 1.68795 56.5738 1.61224C56.3914 1.53653 56.1959 1.49756 55.9985 1.49756C55.8011 1.49756 55.6056 1.53653 55.4233 1.61224C55.241 1.68795 55.0754 1.7989 54.936 1.93874L42.936 13.9387C42.7259 14.1487 42.5828 14.4163 42.5249 14.7076C42.467 14.999 42.4969 15.301 42.6108 15.5753C42.7248 15.8497 42.9176 16.084 43.1649 16.2486C43.4121 16.4132 43.7027 16.5007 43.9998 16.5H48.4998V17C48.4998 17.3978 48.6578 17.7793 48.9391 18.0606C49.2204 18.342 49.602 18.5 49.9998 18.5H61.9998C62.3976 18.5 62.7791 18.342 63.0604 18.0606C63.3417 17.7793 63.4998 17.3978 63.4998 17V16.5H67.9998C68.2966 16.5002 68.5869 16.4124 68.8338 16.2476C69.0806 16.0828 69.2731 15.8484 69.3867 15.5742C69.5003 15.2999 69.53 14.9982 69.4721 14.707C69.4141 14.4159 69.271 14.1485 69.061 13.9387ZM61.9998 13.5C61.602 13.5 61.2204 13.658 60.9391 13.9393C60.6578 14.2206 60.4998 14.6022 60.4998 15V15.5H51.4998V15C51.4998 14.6022 51.3417 14.2206 51.0604 13.9393C50.7791 13.658 50.3976 13.5 49.9998 13.5H47.6248L55.9998 5.12499L64.3748 13.5H61.9998ZM63.4998 27C63.4998 27.3978 63.3417 27.7793 63.0604 28.0606C62.7791 28.342 62.3976 28.5 61.9998 28.5H49.9998C49.602 28.5 49.2204 28.342 48.9391 28.0606C48.6578 27.7793 48.4998 27.3978 48.4998 27C48.4998 26.6022 48.6578 26.2206 48.9391 25.9393C49.2204 25.658 49.602 25.5 49.9998 25.5H61.9998C62.3976 25.5 62.7791 25.658 63.0604 25.9393C63.3417 26.2206 63.4998 26.6022 63.4998 27ZM63.4998 22C63.4998 22.3978 63.3417 22.7793 63.0604 23.0606C62.7791 23.342 62.3976 23.5 61.9998 23.5H49.9998C49.602 23.5 49.2204 23.342 48.9391 23.0606C48.6578 22.7793 48.4998 22.3978 48.4998 22C48.4998 21.6022 48.6578 21.2206 48.9391 20.9393C49.2204 20.658 49.602 20.5 49.9998 20.5H61.9998C62.3976 20.5 62.7791 20.658 63.0604 20.9393C63.3417 21.2206 63.4998 21.6022 63.4998 22Z" fill="white"/>
</g>
<defs>
<clipPath id="clip0_27_6039">
<rect width="72" height="32" rx="5" fill="white"/>
</clipPath>
</defs>
</svg>
