<svg width="72" height="32" viewBox="0 0 72 32" fill="none" xmlns="http://www.w3.org/2000/svg">
<g clip-path="url(#clip0_27_6054)">
<path d="M28.0008 16C28.0008 16.2652 27.8954 16.5196 27.7079 16.7071C27.5204 16.8946 27.266 17 27.0008 17H15.0008V25C15.0009 25.1979 14.9424 25.3914 14.8325 25.556C14.7226 25.7206 14.5664 25.8489 14.3836 25.9246C14.2008 26.0004 13.9996 26.0202 13.8055 25.9815C13.6114 25.9429 13.4331 25.8475 13.2933 25.7075L4.29329 16.7075C4.20031 16.6146 4.12655 16.5043 4.07623 16.3829C4.0259 16.2615 4 16.1314 4 16C4 15.8686 4.0259 15.7385 4.07623 15.6171C4.12655 15.4957 4.20031 15.3854 4.29329 15.2925L13.2933 6.29249C13.4331 6.15248 13.6114 6.05712 13.8055 6.01846C13.9996 5.97981 14.2008 5.99962 14.3836 6.07537C14.5664 6.15112 14.7226 6.27942 14.8325 6.44401C14.9424 6.60861 15.0009 6.8021 15.0008 6.99999V15H27.0008C27.266 15 27.5204 15.1054 27.7079 15.2929C27.8954 15.4804 28.0008 15.7348 28.0008 16Z" fill="white"/>
<path d="M68.4992 16C68.4992 16.3978 68.3412 16.7794 68.0599 17.0607C67.7786 17.342 67.3971 17.5 66.9992 17.5H48.6242L55.0642 23.9388C55.346 24.2206 55.5043 24.6027 55.5043 25.0013C55.5043 25.3998 55.346 25.782 55.0642 26.0638C54.7824 26.3456 54.4002 26.5039 54.0017 26.5039C53.6032 26.5039 53.221 26.3456 52.9392 26.0638L43.9392 17.0638C43.7994 16.9244 43.6884 16.7588 43.6127 16.5765C43.537 16.3942 43.498 16.1987 43.498 16.0013C43.498 15.8038 43.537 15.6084 43.6127 15.426C43.6884 15.2437 43.7994 15.0781 43.9392 14.9388L52.9392 5.93876C53.0788 5.79923 53.2444 5.68855 53.4267 5.61304C53.609 5.53752 53.8044 5.49866 54.0017 5.49866C54.1991 5.49866 54.3944 5.53752 54.5768 5.61304C54.7591 5.68855 54.9247 5.79923 55.0642 5.93876C55.2038 6.07829 55.3144 6.24393 55.39 6.42624C55.4655 6.60854 55.5043 6.80393 55.5043 7.00126C55.5043 7.19858 55.4655 7.39398 55.39 7.57628C55.3144 7.75858 55.2038 7.92423 55.0642 8.06376L48.6242 14.5H66.9992C67.3971 14.5 67.7786 14.658 68.0599 14.9393C68.3412 15.2207 68.4992 15.6022 68.4992 16Z" fill="white"/>
</g>
<defs>
<clipPath id="clip0_27_6054">
<rect width="72" height="32" rx="5" fill="white"/>
</clipPath>
</defs>
</svg>
