<svg width="72" height="32" viewBox="0 0 72 32" fill="none" xmlns="http://www.w3.org/2000/svg">
<g clip-path="url(#clip0_27_6164)">
<path d="M26.0008 11V22C26.0008 22.2652 25.8954 22.5196 25.7079 22.7071C25.5204 22.8946 25.266 23 25.0008 23C24.7356 23 24.4812 22.8946 24.2937 22.7071C24.1061 22.5196 24.0008 22.2652 24.0008 22V11C24.0008 9.4087 23.3686 7.88258 22.2434 6.75736C21.1182 5.63214 19.5921 5 18.0008 5C16.4095 5 14.8834 5.63214 13.7581 6.75736C12.6329 7.88258 12.0008 9.4087 12.0008 11V21H17.0008C17.1987 20.9998 17.3922 21.0584 17.5568 21.1683C17.7214 21.2782 17.8497 21.4344 17.9254 21.6172C18.0012 21.8 18.021 22.0012 17.9823 22.1953C17.9437 22.3894 17.8483 22.5676 17.7083 22.7075L11.7083 28.7075C11.6154 28.8005 11.5051 28.8742 11.3837 28.9246C11.2623 28.9749 11.1322 29.0008 11.0008 29.0008C10.8694 29.0008 10.7392 28.9749 10.6178 28.9246C10.4964 28.8742 10.3862 28.8005 10.2933 28.7075L4.29329 22.7075C4.15328 22.5676 4.05791 22.3894 4.01926 22.1953C3.98061 22.0012 4.00041 21.8 4.07616 21.6172C4.15192 21.4344 4.28021 21.2782 4.44481 21.1683C4.6094 21.0584 4.80289 20.9998 5.00079 21H10.0008V11C10.0008 8.87827 10.8436 6.84344 12.3439 5.34315C13.8442 3.84285 15.8791 3 18.0008 3C20.1225 3 22.1574 3.84285 23.6576 5.34315C25.1579 6.84344 26.0008 8.87827 26.0008 11Z" fill="white"/>
<path d="M66.4994 11V22C66.4994 22.3978 66.3414 22.7794 66.0601 23.0607C65.7788 23.342 65.3972 23.5 64.9994 23.5C64.6016 23.5 64.22 23.342 63.9387 23.0607C63.6574 22.7794 63.4994 22.3978 63.4994 22V11C63.4994 9.54131 62.9199 8.14236 61.8885 7.11091C60.857 6.07946 59.4581 5.5 57.9994 5.5C56.5407 5.5 55.1418 6.07946 54.1103 7.11091C53.0789 8.14236 52.4994 9.54131 52.4994 11V24.375L55.9381 20.935C56.2199 20.6532 56.6021 20.4949 57.0006 20.4949C57.3992 20.4949 57.7814 20.6532 58.0631 20.935C58.3449 21.2168 58.5033 21.599 58.5033 21.9975C58.5033 22.396 58.3449 22.7782 58.0631 23.06L52.0631 29.06C51.9238 29.1998 51.7582 29.3108 51.5759 29.3865C51.3935 29.4622 51.1981 29.5012 51.0006 29.5012C50.8032 29.5012 50.6077 29.4622 50.4254 29.3865C50.2431 29.3108 50.0775 29.1998 49.9381 29.06L43.9381 23.06C43.6564 22.7782 43.498 22.396 43.498 21.9975C43.498 21.599 43.6564 21.2168 43.9381 20.935C44.2199 20.6532 44.6021 20.4949 45.0006 20.4949C45.3992 20.4949 45.7814 20.6532 46.0631 20.935L49.4994 24.375V11C49.4994 8.74566 50.3949 6.58365 51.989 4.98959C53.583 3.39553 55.7451 2.5 57.9994 2.5C60.2537 2.5 62.4157 3.39553 64.0098 4.98959C65.6039 6.58365 66.4994 8.74566 66.4994 11Z" fill="white"/>
</g>
<defs>
<clipPath id="clip0_27_6164">
<rect width="72" height="32" rx="5" fill="white"/>
</clipPath>
</defs>
</svg>
