<svg width="72" height="32" viewBox="0 0 72 32" fill="none" xmlns="http://www.w3.org/2000/svg">
<g clip-path="url(#clip0_27_5844)">
<path d="M28.7075 19.7075L22.7075 25.7075C22.5676 25.8475 22.3894 25.9429 22.1953 25.9815C22.0012 26.0202 21.8 26.0004 21.6172 25.9246C21.4344 25.8489 21.2782 25.7206 21.1683 25.556C21.0584 25.3914 20.9998 25.1979 21 25V20H16C12.5533 19.9964 9.24882 18.6256 6.81163 16.1884C4.37445 13.7512 3.00364 10.4467 3 7C3 6.73478 3.10536 6.48043 3.29289 6.29289C3.48043 6.10536 3.73478 6 4 6C4.26522 6 4.51957 6.10536 4.70711 6.29289C4.89464 6.48043 5 6.73478 5 7C5.00331 9.91637 6.1633 12.7123 8.22548 14.7745C10.2877 16.8367 13.0836 17.9967 16 18H21V13C20.9998 12.8021 21.0584 12.6086 21.1683 12.444C21.2782 12.2794 21.4344 12.1511 21.6172 12.0754C21.8 11.9996 22.0012 11.9798 22.1953 12.0185C22.3894 12.0571 22.5676 12.1525 22.7075 12.2925L28.7075 18.2925C28.8005 18.3854 28.8742 18.4957 28.9246 18.6171C28.9749 18.7385 29.0008 18.8686 29.0008 19C29.0008 19.1314 28.9749 19.2615 28.9246 19.3829C28.8742 19.5043 28.8005 19.6146 28.7075 19.7075Z" fill="white"/>
<path d="M69.0613 20.0613L63.0613 26.0613C62.7795 26.343 62.3973 26.5014 61.9988 26.5014C61.6002 26.5014 61.218 26.343 60.9363 26.0613C60.6545 25.7795 60.4961 25.3973 60.4961 24.9988C60.4961 24.6002 60.6545 24.218 60.9363 23.9363L64.375 20.5H56C52.4208 20.496 48.9893 19.0724 46.4584 16.5416C43.9276 14.0107 42.504 10.5792 42.5 7C42.5 6.60218 42.658 6.22064 42.9393 5.93934C43.2206 5.65804 43.6022 5.5 44 5.5C44.3978 5.5 44.7794 5.65804 45.0607 5.93934C45.342 6.22064 45.5 6.60218 45.5 7C45.503 9.78386 46.6102 12.4528 48.5787 14.4213C50.5472 16.3898 53.2161 17.497 56 17.5H64.375L60.935 14.0612C60.6532 13.7795 60.4949 13.3973 60.4949 12.9987C60.4949 12.6002 60.6532 12.218 60.935 11.9362C61.2168 11.6545 61.599 11.4961 61.9975 11.4961C62.396 11.4961 62.7782 11.6545 63.06 11.9362L69.06 17.9363C69.1999 18.0755 69.311 18.241 69.3868 18.4233C69.4626 18.6056 69.5017 18.8011 69.5018 18.9985C69.5019 19.1959 69.4631 19.3914 69.3875 19.5738C69.3119 19.7562 69.201 19.9218 69.0613 20.0613Z" fill="white"/>
</g>
<defs>
<clipPath id="clip0_27_5844">
<rect width="72" height="32" rx="5" fill="white"/>
</clipPath>
</defs>
</svg>
