<svg width="72" height="32" viewBox="0 0 72 32" fill="none" xmlns="http://www.w3.org/2000/svg">
<g clip-path="url(#clip0_27_5904)">
<path d="M16 3C13.4288 3 10.9154 3.76244 8.77759 5.1909C6.63975 6.61935 4.97351 8.64968 3.98957 11.0251C3.00563 13.4006 2.74819 16.0144 3.2498 18.5362C3.75141 21.0579 4.98953 23.3743 6.80762 25.1924C8.6257 27.0105 10.9421 28.2486 13.4638 28.7502C15.9856 29.2518 18.5995 28.9944 20.9749 28.0104C23.3503 27.0265 25.3807 25.3603 26.8091 23.2224C28.2376 21.0846 29 18.5712 29 16C28.9964 12.5533 27.6256 9.24882 25.1884 6.81163C22.7512 4.37445 19.4467 3.00364 16 3ZM20.7075 15.7075C20.6146 15.8005 20.5043 15.8742 20.3829 15.9246C20.2615 15.9749 20.1314 16.0008 20 16.0008C19.8686 16.0008 19.7385 15.9749 19.6171 15.9246C19.4957 15.8742 19.3854 15.8005 19.2925 15.7075L17 13.4137V21C17 21.2652 16.8946 21.5196 16.7071 21.7071C16.5196 21.8946 16.2652 22 16 22C15.7348 22 15.4804 21.8946 15.2929 21.7071C15.1054 21.5196 15 21.2652 15 21V13.4137L12.7075 15.7075C12.5199 15.8951 12.2654 16.0006 12 16.0006C11.7346 16.0006 11.4801 15.8951 11.2925 15.7075C11.1049 15.5199 10.9994 15.2654 10.9994 15C10.9994 14.7346 11.1049 14.4801 11.2925 14.2925L15.2925 10.2925C15.3854 10.1995 15.4957 10.1258 15.6171 10.0754C15.7385 10.0251 15.8686 9.99921 16 9.99921C16.1314 9.99921 16.2615 10.0251 16.3829 10.0754C16.5043 10.1258 16.6146 10.1995 16.7075 10.2925L20.7075 14.2925C20.8005 14.3854 20.8742 14.4957 20.9246 14.6171C20.9749 14.7385 21.0008 14.8686 21.0008 15C21.0008 15.1314 20.9749 15.2615 20.9246 15.3829C20.8742 15.5043 20.8005 15.6146 20.7075 15.7075Z" fill="white"/>
<path d="M56 2.5C53.33 2.5 50.7199 3.29176 48.4998 4.77516C46.2797 6.25856 44.5494 8.36697 43.5276 10.8338C42.5058 13.3006 42.2385 16.015 42.7594 18.6337C43.2803 21.2525 44.5661 23.6579 46.4541 25.5459C48.3421 27.434 50.7475 28.7197 53.3663 29.2406C55.985 29.7615 58.6994 29.4942 61.1662 28.4724C63.633 27.4506 65.7414 25.7203 67.2248 23.5002C68.7082 21.2801 69.5 18.67 69.5 16C69.496 12.4208 68.0724 8.98932 65.5416 6.45844C63.0107 3.92756 59.5792 2.50397 56 2.5ZM56 26.5C53.9233 26.5 51.8932 25.8842 50.1665 24.7304C48.4398 23.5767 47.094 21.9368 46.2993 20.0182C45.5046 18.0996 45.2966 15.9884 45.7018 13.9516C46.1069 11.9148 47.1069 10.0438 48.5754 8.57538C50.0438 7.10693 51.9148 6.1069 53.9516 5.70175C55.9884 5.29661 58.0996 5.50454 60.0182 6.29926C61.9368 7.09399 63.5767 8.4398 64.7304 10.1665C65.8842 11.8932 66.5 13.9233 66.5 16C66.497 18.7839 65.3898 21.4528 63.4213 23.4213C61.4529 25.3898 58.7839 26.497 56 26.5ZM61.0613 13.9388C61.343 14.2205 61.5014 14.6027 61.5014 15.0013C61.5014 15.3998 61.343 15.782 61.0613 16.0637C60.7795 16.3455 60.3973 16.5039 59.9988 16.5039C59.6002 16.5039 59.218 16.3455 58.9363 16.0637L57.5 14.625V21C57.5 21.3978 57.342 21.7794 57.0607 22.0607C56.7794 22.342 56.3978 22.5 56 22.5C55.6022 22.5 55.2206 22.342 54.9393 22.0607C54.658 21.7794 54.5 21.3978 54.5 21V14.625L53.0613 16.065C52.7795 16.3468 52.3973 16.5051 51.9988 16.5051C51.6002 16.5051 51.218 16.3468 50.9363 16.065C50.6545 15.7832 50.4962 15.401 50.4962 15.0025C50.4962 14.604 50.6545 14.2218 50.9363 13.94L54.9363 9.94C55.0756 9.80016 55.2412 9.6892 55.4235 9.6135C55.6059 9.53779 55.8013 9.49882 55.9988 9.49882C56.1962 9.49882 56.3917 9.53779 56.574 9.6135C56.7563 9.6892 56.9219 9.80016 57.0613 9.94L61.0613 13.9388Z" fill="white"/>
</g>
<defs>
<clipPath id="clip0_27_5904">
<rect width="72" height="32" rx="5" fill="white"/>
</clipPath>
</defs>
</svg>
