<svg width="72" height="32" viewBox="0 0 72 32" fill="none" xmlns="http://www.w3.org/2000/svg">
<g clip-path="url(#clip0_27_6294)">
<path d="M20.9245 24.6175C21.0003 24.8002 21.0202 25.0013 20.9818 25.1953C20.9433 25.3893 20.8481 25.5676 20.7083 25.7075L16.7083 29.7075C16.6154 29.8005 16.5051 29.8742 16.3837 29.9246C16.2623 29.9749 16.1322 30.0008 16.0008 30.0008C15.8694 30.0008 15.7392 29.9749 15.6178 29.9246C15.4964 29.8742 15.3862 29.8005 15.2933 29.7075L11.2933 25.7075C11.1533 25.5676 11.0579 25.3894 11.0193 25.1953C10.9806 25.0012 11.0004 24.8 11.0762 24.6172C11.1519 24.4344 11.2802 24.2781 11.4448 24.1683C11.6094 24.0584 11.8029 23.9998 12.0008 24H15.0008V7.99999H12.0008C11.8029 8.00015 11.6094 7.94158 11.4448 7.83171C11.2802 7.72184 11.1519 7.56561 11.0762 7.38278C11.0004 7.19996 10.9806 6.99877 11.0193 6.80469C11.0579 6.6106 11.1533 6.43235 11.2933 6.29249L15.2933 2.29249C15.3862 2.19952 15.4964 2.12576 15.6178 2.07543C15.7392 2.02511 15.8694 1.99921 16.0008 1.99921C16.1322 1.99921 16.2623 2.02511 16.3837 2.07543C16.5051 2.12576 16.6154 2.19952 16.7083 2.29249L20.7083 6.29249C20.8483 6.43235 20.9437 6.6106 20.9823 6.80469C21.021 6.99877 21.0012 7.19996 20.9254 7.38278C20.8497 7.56561 20.7214 7.72184 20.5568 7.83171C20.3922 7.94158 20.1987 8.00015 20.0008 7.99999H17.0008V24H20.0008C20.1986 24 20.3919 24.0587 20.5563 24.1686C20.7207 24.2785 20.8489 24.4348 20.9245 24.6175Z" fill="white"/>
<path d="M61.0612 23.9387C61.201 24.0781 61.312 24.2437 61.3877 24.426C61.4634 24.6083 61.5024 24.8038 61.5024 25.0012C61.5024 25.1987 61.4634 25.3941 61.3877 25.5765C61.312 25.7588 61.201 25.9244 61.0612 26.0637L57.0612 30.0637C56.9218 30.2036 56.7563 30.3145 56.5739 30.3902C56.3916 30.466 56.1961 30.5049 55.9987 30.5049C55.8013 30.5049 55.6058 30.466 55.4235 30.3902C55.2411 30.3145 55.0756 30.2036 54.9362 30.0637L50.9362 26.0637C50.6544 25.7819 50.4961 25.3998 50.4961 25.0012C50.4961 24.6027 50.6544 24.2205 50.9362 23.9387C51.218 23.6569 51.6002 23.4986 51.9987 23.4986C52.3972 23.4986 52.7794 23.6569 53.0612 23.9387L54.4999 25.375V6.62499L53.0612 8.06124C52.9217 8.20077 52.756 8.31145 52.5737 8.38696C52.3914 8.46248 52.196 8.50134 51.9987 8.50134C51.6002 8.50134 51.218 8.34303 50.9362 8.06124C50.7967 7.92171 50.686 7.75606 50.6105 7.57376C50.535 7.39146 50.4961 7.19606 50.4961 6.99874C50.4961 6.60022 50.6544 6.21803 50.9362 5.93624L54.9362 1.93624C55.0756 1.7964 55.2411 1.68544 55.4235 1.60974C55.6058 1.53403 55.8013 1.49506 55.9987 1.49506C56.1961 1.49506 56.3916 1.53403 56.5739 1.60974C56.7563 1.68544 56.9218 1.7964 57.0612 1.93624L61.0612 5.93624C61.343 6.21803 61.5013 6.60022 61.5013 6.99874C61.5013 7.39725 61.343 7.77945 61.0612 8.06124C60.7794 8.34303 60.3972 8.50134 59.9987 8.50134C59.6002 8.50134 59.218 8.34303 58.9362 8.06124L57.4999 6.62499V25.375L58.9387 23.935C59.0783 23.7958 59.2439 23.6854 59.4261 23.6103C59.6083 23.5351 59.8036 23.4966 60.0007 23.4969C60.1978 23.4973 60.393 23.5365 60.5749 23.6123C60.7569 23.6881 60.9221 23.799 61.0612 23.9387Z" fill="white"/>
</g>
<defs>
<clipPath id="clip0_27_6294">
<rect width="72" height="32" rx="5" fill="white"/>
</clipPath>
</defs>
</svg>
