<svg width="72" height="32" viewBox="0 0 72 32" fill="none" xmlns="http://www.w3.org/2000/svg">
<g clip-path="url(#clip0_27_6244)">
<path d="M11.2925 8.7075C11.1525 8.56765 11.0571 8.38939 11.0185 8.19531C10.9798 8.00122 10.9996 7.80003 11.0754 7.61721C11.1511 7.43439 11.2794 7.27815 11.444 7.16828C11.6086 7.05841 11.8021 6.99984 12 7H15V2C15 1.73478 15.1054 1.48043 15.2929 1.29289C15.4804 1.10536 15.7348 1 16 1C16.2652 1 16.5196 1.10536 16.7071 1.29289C16.8946 1.48043 17 1.73478 17 2V7H20C20.1979 6.99984 20.3914 7.05841 20.556 7.16828C20.7206 7.27815 20.8489 7.43439 20.9246 7.61721C21.0004 7.80003 21.0202 8.00122 20.9815 8.19531C20.9429 8.38939 20.8475 8.56765 20.7075 8.7075L16.7075 12.7075C16.6146 12.8005 16.5043 12.8742 16.3829 12.9246C16.2615 12.9749 16.1314 13.0008 16 13.0008C15.8686 13.0008 15.7385 12.9749 15.6171 12.9246C15.4957 12.8742 15.3854 12.8005 15.2925 12.7075L11.2925 8.7075ZM16.7075 19.2925C16.6146 19.1995 16.5043 19.1258 16.3829 19.0754C16.2615 19.0251 16.1314 18.9992 16 18.9992C15.8686 18.9992 15.7385 19.0251 15.6171 19.0754C15.4957 19.1258 15.3854 19.1995 15.2925 19.2925L11.2925 23.2925C11.1525 23.4324 11.0571 23.6106 11.0185 23.8047C10.9798 23.9988 10.9996 24.2 11.0754 24.3828C11.1511 24.5656 11.2794 24.7218 11.444 24.8317C11.6086 24.9416 11.8021 25.0002 12 25H15V30C15 30.2652 15.1054 30.5196 15.2929 30.7071C15.4804 30.8946 15.7348 31 16 31C16.2652 31 16.5196 30.8946 16.7071 30.7071C16.8946 30.5196 17 30.2652 17 30V25H20C20.1979 25.0002 20.3914 24.9416 20.556 24.8317C20.7206 24.7218 20.8489 24.5656 20.9246 24.3828C21.0004 24.2 21.0202 23.9988 20.9815 23.8047C20.9429 23.6106 20.8475 23.4324 20.7075 23.2925L16.7075 19.2925ZM27 15H5C4.73478 15 4.48043 15.1054 4.29289 15.2929C4.10536 15.4804 4 15.7348 4 16C4 16.2652 4.10536 16.5196 4.29289 16.7071C4.48043 16.8946 4.73478 17 5 17H27C27.2652 17 27.5196 16.8946 27.7071 16.7071C27.8946 16.5196 28 16.2652 28 16C28 15.7348 27.8946 15.4804 27.7071 15.2929C27.5196 15.1054 27.2652 15 27 15Z" fill="white"/>
<path d="M68.5 16C68.5 16.3978 68.342 16.7794 68.0607 17.0607C67.7794 17.342 67.3978 17.5 67 17.5H45C44.6022 17.5 44.2206 17.342 43.9393 17.0607C43.658 16.7794 43.5 16.3978 43.5 16C43.5 15.6022 43.658 15.2206 43.9393 14.9393C44.2206 14.658 44.6022 14.5 45 14.5H67C67.3978 14.5 67.7794 14.658 68.0607 14.9393C68.342 15.2206 68.5 15.6022 68.5 16ZM54.9388 12.0612C55.0781 12.2011 55.2437 12.312 55.426 12.3878C55.6083 12.4635 55.8038 12.5024 56.0012 12.5024C56.1987 12.5024 56.3941 12.4635 56.5765 12.3878C56.7588 12.312 56.9244 12.2011 57.0637 12.0612L61.0637 8.06125C61.3455 7.77946 61.5039 7.39726 61.5039 6.99875C61.5039 6.60024 61.3455 6.21804 61.0637 5.93625C60.782 5.65446 60.3998 5.49615 60.0012 5.49615C59.6027 5.49615 59.2205 5.65446 58.9387 5.93625L57.5 7.375V2C57.5 1.60218 57.342 1.22064 57.0607 0.93934C56.7794 0.658035 56.3978 0.5 56 0.5C55.6022 0.5 55.2206 0.658035 54.9393 0.93934C54.658 1.22064 54.5 1.60218 54.5 2V7.375L53.0612 5.93875C52.7795 5.65696 52.3973 5.49865 51.9987 5.49865C51.6002 5.49865 51.218 5.65696 50.9362 5.93875C50.6545 6.22054 50.4961 6.60274 50.4961 7.00125C50.4961 7.39976 50.6545 7.78196 50.9362 8.06375L54.9388 12.0612ZM57.0637 19.9363C56.9244 19.7964 56.7588 19.6855 56.5765 19.6097C56.3941 19.534 56.1987 19.4951 56.0012 19.4951C55.8038 19.4951 55.6083 19.534 55.426 19.6097C55.2437 19.6855 55.0781 19.7964 54.9388 19.9363L50.9388 23.9363C50.657 24.218 50.4986 24.6002 50.4986 24.9988C50.4986 25.3973 50.657 25.7795 50.9388 26.0613C51.2205 26.343 51.6027 26.5014 52.0013 26.5014C52.3998 26.5014 52.782 26.343 53.0638 26.0613L54.5 24.625V30C54.5 30.3978 54.658 30.7794 54.9393 31.0607C55.2206 31.342 55.6022 31.5 56 31.5C56.3978 31.5 56.7794 31.342 57.0607 31.0607C57.342 30.7794 57.5 30.3978 57.5 30V24.625L58.9387 26.065C59.2205 26.3468 59.6027 26.5051 60.0012 26.5051C60.3998 26.5051 60.782 26.3468 61.0637 26.065C61.3455 25.7832 61.5039 25.401 61.5039 25.0025C61.5039 24.604 61.3455 24.2218 61.0637 23.94L57.0637 19.9363Z" fill="white"/>
</g>
<defs>
<clipPath id="clip0_27_6244">
<rect width="72" height="32" rx="5" fill="white"/>
</clipPath>
</defs>
</svg>
