<svg width="72" height="32" viewBox="0 0 72 32" fill="none" xmlns="http://www.w3.org/2000/svg">
<g clip-path="url(#clip0_27_6279)">
<path d="M11.0763 6.38249C11.0005 6.19979 10.9805 5.99871 11.019 5.80469C11.0575 5.61067 11.1527 5.43242 11.2925 5.29249L15.2925 1.29249C15.3854 1.19952 15.4957 1.12576 15.6171 1.07543C15.7385 1.02511 15.8686 0.999207 16 0.999207C16.1314 0.999207 16.2615 1.02511 16.3829 1.07543C16.5043 1.12576 16.6146 1.19952 16.7075 1.29249L20.7075 5.29249C20.8475 5.43235 20.9429 5.6106 20.9815 5.80469C21.0202 5.99877 21.0004 6.19996 20.9246 6.38278C20.8489 6.56561 20.7206 6.72184 20.556 6.83171C20.3914 6.94158 20.1979 7.00015 20 6.99999H17V12C17 12.2652 16.8946 12.5196 16.7071 12.7071C16.5196 12.8946 16.2652 13 16 13C15.7348 13 15.4804 12.8946 15.2929 12.7071C15.1054 12.5196 15 12.2652 15 12V6.99999H12C11.8022 6.99995 11.6089 6.94126 11.4445 6.83135C11.28 6.72144 11.1519 6.56523 11.0763 6.38249ZM27 15H5C4.73478 15 4.48043 15.1054 4.29289 15.2929C4.10536 15.4804 4 15.7348 4 16C4 16.2652 4.10536 16.5196 4.29289 16.7071C4.48043 16.8946 4.73478 17 5 17H27C27.2652 17 27.5196 16.8946 27.7071 16.7071C27.8946 16.5196 28 16.2652 28 16C28 15.7348 27.8946 15.4804 27.7071 15.2929C27.5196 15.1054 27.2652 15 27 15ZM20 25H17V20C17 19.7348 16.8946 19.4804 16.7071 19.2929C16.5196 19.1053 16.2652 19 16 19C15.7348 19 15.4804 19.1053 15.2929 19.2929C15.1054 19.4804 15 19.7348 15 20V25H12C11.8021 24.9998 11.6086 25.0584 11.444 25.1683C11.2794 25.2781 11.1511 25.4344 11.0754 25.6172C10.9996 25.8 10.9798 26.0012 11.0185 26.1953C11.0571 26.3894 11.1525 26.5676 11.2925 26.7075L15.2925 30.7075C15.3854 30.8005 15.4957 30.8742 15.6171 30.9246C15.7385 30.9749 15.8686 31.0008 16 31.0008C16.1314 31.0008 16.2615 30.9749 16.3829 30.9246C16.5043 30.8742 16.6146 30.8005 16.7075 30.7075L20.7075 26.7075C20.8475 26.5676 20.9429 26.3894 20.9815 26.1953C21.0202 26.0012 21.0004 25.8 20.9246 25.6172C20.8489 25.4344 20.7206 25.2781 20.556 25.1683C20.3914 25.0584 20.1979 24.9998 20 25Z" fill="white"/>
<path d="M68.5 16C68.5 16.3978 68.342 16.7793 68.0607 17.0607C67.7794 17.342 67.3978 17.5 67 17.5H45C44.6022 17.5 44.2206 17.342 43.9393 17.0607C43.658 16.7793 43.5 16.3978 43.5 16C43.5 15.6022 43.658 15.2206 43.9393 14.9393C44.2206 14.658 44.6022 14.5 45 14.5H67C67.3978 14.5 67.7794 14.658 68.0607 14.9393C68.342 15.2206 68.5 15.6022 68.5 16ZM53.0612 7.05999L54.5 5.62499V11C54.5 11.3978 54.658 11.7793 54.9393 12.0607C55.2206 12.342 55.6022 12.5 56 12.5C56.3978 12.5 56.7794 12.342 57.0607 12.0607C57.342 11.7793 57.5 11.3978 57.5 11V5.62499L58.9387 7.06374C59.2205 7.34553 59.6027 7.50384 60.0012 7.50384C60.3998 7.50384 60.782 7.34553 61.0637 7.06374C61.3455 6.78195 61.5039 6.39976 61.5039 6.00124C61.5039 5.60273 61.3455 5.22053 61.0637 4.93874L57.0637 0.938741C56.9244 0.798902 56.7588 0.687946 56.5765 0.612238C56.3941 0.53653 56.1987 0.497559 56.0012 0.497559C55.8038 0.497559 55.6083 0.53653 55.426 0.612238C55.2437 0.687946 55.0781 0.798902 54.9388 0.938741L50.9388 4.93874C50.657 5.22053 50.4986 5.60273 50.4986 6.00124C50.4986 6.39976 50.657 6.78195 50.9388 7.06374C51.2205 7.34553 51.6027 7.50384 52.0013 7.50384C52.3998 7.50384 52.782 7.34553 53.0638 7.06374L53.0612 7.05999ZM58.9363 24.935L57.5 26.375V21C57.5 20.6022 57.342 20.2206 57.0607 19.9393C56.7794 19.658 56.3978 19.5 56 19.5C55.6022 19.5 55.2206 19.658 54.9393 19.9393C54.658 20.2206 54.5 20.6022 54.5 21V26.375L53.0612 24.935C52.7795 24.6532 52.3973 24.4949 51.9987 24.4949C51.6002 24.4949 51.218 24.6532 50.9362 24.935C50.6545 25.2168 50.4961 25.599 50.4961 25.9975C50.4961 26.396 50.6545 26.7782 50.9362 27.06L54.9362 31.06C55.0756 31.1998 55.2412 31.3108 55.4235 31.3865C55.6058 31.4622 55.8013 31.5012 55.9987 31.5012C56.1962 31.5012 56.3917 31.4622 56.574 31.3865C56.7563 31.3108 56.9219 31.1998 57.0613 31.06L61.0613 27.06C61.343 26.7782 61.5014 26.396 61.5014 25.9975C61.5014 25.599 61.343 25.2168 61.0613 24.935C60.7795 24.6532 60.3973 24.4949 59.9988 24.4949C59.6002 24.4949 59.218 24.6532 58.9363 24.935Z" fill="white"/>
</g>
<defs>
<clipPath id="clip0_27_6279">
<rect width="72" height="32" rx="5" fill="white"/>
</clipPath>
</defs>
</svg>
