<svg width="72" height="32" viewBox="0 0 72 32" fill="none" xmlns="http://www.w3.org/2000/svg">
<g clip-path="url(#clip0_27_5929)">
<path d="M25.7083 18.7075L16.7083 27.7075C16.6154 27.8005 16.5051 27.8742 16.3837 27.9246C16.2623 27.9749 16.1322 28.0008 16.0008 28.0008C15.8694 28.0008 15.7392 27.9749 15.6178 27.9246C15.4964 27.8742 15.3862 27.8005 15.2933 27.7075L6.29329 18.7075C6.15328 18.5676 6.05791 18.3894 6.01926 18.1953C5.98061 18.0012 6.00041 17.8 6.07616 17.6172C6.15192 17.4344 6.28021 17.2782 6.44481 17.1683C6.6094 17.0584 6.80289 16.9998 7.00079 17H15.0008V5C15.0008 4.73478 15.1061 4.48043 15.2937 4.29289C15.4812 4.10536 15.7356 4 16.0008 4C16.266 4 16.5204 4.10536 16.7079 4.29289C16.8954 4.48043 17.0008 4.73478 17.0008 5V17H25.0008C25.1987 16.9998 25.3922 17.0584 25.5568 17.1683C25.7214 17.2782 25.8497 17.4344 25.9254 17.6172C26.0012 17.8 26.021 18.0012 25.9823 18.1953C25.9437 18.3894 25.8483 18.5676 25.7083 18.7075Z" fill="white"/>
<path d="M66.0612 19.0613L57.0612 28.0613C56.9218 28.2011 56.7563 28.312 56.5739 28.3878C56.3916 28.4635 56.1961 28.5024 55.9987 28.5024C55.8013 28.5024 55.6058 28.4635 55.4235 28.3878C55.2411 28.312 55.0756 28.2011 54.9362 28.0613L45.9362 19.0613C45.6544 18.7795 45.4961 18.3973 45.4961 17.9988C45.4961 17.6002 45.6544 17.218 45.9362 16.9363C46.218 16.6545 46.6002 16.4961 46.9987 16.4961C47.3972 16.4961 47.7794 16.6545 48.0612 16.9363L54.4999 23.375V5C54.4999 4.60218 54.658 4.22064 54.9393 3.93934C55.2206 3.65804 55.6021 3.5 55.9999 3.5C56.3978 3.5 56.7793 3.65804 57.0606 3.93934C57.3419 4.22064 57.4999 4.60218 57.4999 5V23.375L63.9387 16.935C64.2205 16.6532 64.6027 16.4949 65.0012 16.4949C65.3997 16.4949 65.7819 16.6532 66.0637 16.935C66.3455 17.2168 66.5038 17.599 66.5038 17.9975C66.5038 18.396 66.3455 18.7782 66.0637 19.06L66.0612 19.0613Z" fill="white"/>
</g>
<defs>
<clipPath id="clip0_27_5929">
<rect width="72" height="32" rx="5" fill="white"/>
</clipPath>
</defs>
</svg>
