<svg width="72" height="32" viewBox="0 0 72 32" fill="none" xmlns="http://www.w3.org/2000/svg">
<g clip-path="url(#clip0_27_5964)">
<path d="M30.0008 24C30.0008 24.2652 29.8954 24.5196 29.7079 24.7071C29.5204 24.8946 29.266 25 29.0008 25H11.0008C10.7356 25 10.4812 24.8946 10.2937 24.7071C10.1061 24.5196 10.0008 24.2652 10.0008 24V13H5.00079C4.80289 13.0001 4.6094 12.9416 4.44481 12.8317C4.28021 12.7218 4.15192 12.5656 4.07616 12.3828C4.00041 12.2 3.98061 11.9988 4.01926 11.8047C4.05791 11.6106 4.15328 11.4323 4.29329 11.2925L10.2933 5.29249C10.3862 5.19952 10.4964 5.12576 10.6178 5.07543C10.7392 5.02511 10.8694 4.99921 11.0008 4.99921C11.1322 4.99921 11.2623 5.02511 11.3837 5.07543C11.5051 5.12576 11.6154 5.19952 11.7083 5.29249L17.7083 11.2925C17.8483 11.4323 17.9437 11.6106 17.9823 11.8047C18.021 11.9988 18.0012 12.2 17.9254 12.3828C17.8497 12.5656 17.7214 12.7218 17.5568 12.8317C17.3922 12.9416 17.1987 13.0001 17.0008 13H12.0008V23H29.0008C29.266 23 29.5204 23.1053 29.7079 23.2929C29.8954 23.4804 30.0008 23.7348 30.0008 24Z" fill="white"/>
<path d="M70.4999 24C70.4999 24.3978 70.3419 24.7794 70.0606 25.0607C69.7793 25.342 69.3978 25.5 68.9999 25.5H50.9999C50.6021 25.5 50.2206 25.342 49.9393 25.0607C49.658 24.7794 49.4999 24.3978 49.4999 24V9.625L46.0612 13.0613C45.7794 13.343 45.3972 13.5014 44.9987 13.5014C44.6002 13.5014 44.218 13.343 43.9362 13.0613C43.6544 12.7795 43.4961 12.3973 43.4961 11.9988C43.4961 11.6002 43.6544 11.218 43.9362 10.9363L49.9362 4.93625C50.0756 4.79641 50.2411 4.68546 50.4235 4.60975C50.6058 4.53404 50.8013 4.49507 50.9987 4.49507C51.1961 4.49507 51.3916 4.53404 51.5739 4.60975C51.7563 4.68546 51.9218 4.79641 52.0612 4.93625L58.0612 10.9363C58.343 11.218 58.5013 11.6002 58.5013 11.9988C58.5013 12.3973 58.343 12.7795 58.0612 13.0613C57.7794 13.343 57.3972 13.5014 56.9987 13.5014C56.6002 13.5014 56.218 13.343 55.9362 13.0613L52.4999 9.625V22.5H68.9999C69.3978 22.5 69.7793 22.658 70.0606 22.9393C70.3419 23.2206 70.4999 23.6022 70.4999 24Z" fill="white"/>
</g>
<defs>
<clipPath id="clip0_27_5964">
<rect width="72" height="32" rx="5" fill="white"/>
</clipPath>
</defs>
</svg>
