<svg width="72" height="32" viewBox="0 0 72 32" fill="none" xmlns="http://www.w3.org/2000/svg">
<g clip-path="url(#clip0_27_5829)">
<path d="M10.7083 18.2925C10.8959 18.4801 11.0013 18.7346 11.0013 19C11.0013 19.2654 10.8959 19.5199 10.7083 19.7075C10.5206 19.8951 10.2662 20.0006 10.0008 20.0006C9.73542 20.0006 9.48093 19.8951 9.29329 19.7075L3.29329 13.7075C3.20031 13.6146 3.12655 13.5043 3.07623 13.3829C3.0259 13.2615 3 13.1314 3 13C3 12.8686 3.0259 12.7385 3.07623 12.6171C3.12655 12.4957 3.20031 12.3854 3.29329 12.2925L9.29329 6.29249C9.48093 6.10485 9.73542 5.99944 10.0008 5.99944C10.2662 5.99944 10.5206 6.10485 10.7083 6.29249C10.8959 6.48013 11.0013 6.73463 11.0013 6.99999C11.0013 7.26536 10.8959 7.51985 10.7083 7.70749L5.41454 13L10.7083 18.2925ZM17.0008 12.0375V6.99999C17.0009 6.8021 16.9424 6.60861 16.8325 6.44401C16.7226 6.27942 16.5664 6.15112 16.3836 6.07537C16.2008 5.99962 15.9996 5.97981 15.8055 6.01846C15.6114 6.05712 15.4331 6.15248 15.2933 6.29249L9.29329 12.2925C9.20031 12.3854 9.12655 12.4957 9.07623 12.6171C9.0259 12.7385 9 12.8686 9 13C9 13.1314 9.0259 13.2615 9.07623 13.3829C9.12655 13.5043 9.20031 13.6146 9.29329 13.7075L15.2933 19.7075C15.4331 19.8475 15.6114 19.9429 15.8055 19.9815C15.9996 20.0202 16.2008 20.0004 16.3836 19.9246C16.5664 19.8489 16.7226 19.7206 16.8325 19.556C16.9424 19.3914 17.0009 19.1979 17.0008 19V14.0462C19.7324 14.2987 22.2714 15.5616 24.121 17.5875C25.9706 19.6135 26.9975 22.2568 27.0008 25C27.0008 25.2652 27.1061 25.5196 27.2937 25.7071C27.4812 25.8946 27.7356 26 28.0008 26C28.266 26 28.5204 25.8946 28.7079 25.7071C28.8954 25.5196 29.0008 25.2652 29.0008 25C28.9967 21.7264 27.7594 18.5745 25.5355 16.1722C23.3117 13.7699 20.2644 12.2937 17.0008 12.0375Z" fill="white"/>
<path d="M51.0603 17.9388C51.3421 18.2205 51.5004 18.6027 51.5004 19.0013C51.5004 19.3998 51.3421 19.782 51.0603 20.0638C50.7785 20.3455 50.3963 20.5039 49.9978 20.5039C49.5993 20.5039 49.2171 20.3455 48.9353 20.0638L42.9353 14.0638C42.7955 13.9244 42.6845 13.7588 42.6088 13.5765C42.5331 13.3942 42.4941 13.1987 42.4941 13.0013C42.4941 12.8038 42.5331 12.6084 42.6088 12.426C42.6845 12.2437 42.7955 12.0781 42.9353 11.9388L48.9353 5.93876C49.2171 5.65696 49.5993 5.49865 49.9978 5.49865C50.3963 5.49865 50.7785 5.65696 51.0603 5.93876C51.3421 6.22055 51.5004 6.60274 51.5004 7.00126C51.5004 7.39977 51.3421 7.78196 51.0603 8.06376L46.1241 13L51.0603 17.9388ZM55.9991 11.5H54.6241L58.0641 8.06001C58.2036 7.92048 58.3143 7.75483 58.3898 7.57253C58.4653 7.39022 58.5042 7.19483 58.5042 6.99751C58.5042 6.80018 58.4653 6.60479 58.3898 6.42248C58.3143 6.24018 58.2036 6.07453 58.0641 5.93501C57.9245 5.79548 57.7589 5.68479 57.5766 5.60928C57.3943 5.53377 57.1989 5.4949 57.0016 5.4949C56.6031 5.4949 56.2209 5.65321 55.9391 5.93501L49.9391 11.935C49.7992 12.0744 49.6883 12.2399 49.6126 12.4223C49.5369 12.6046 49.4979 12.8001 49.4979 12.9975C49.4979 13.1949 49.5369 13.3904 49.6126 13.5727C49.6883 13.7551 49.7992 13.9206 49.9391 14.06L55.9391 20.06C56.2209 20.3418 56.6031 20.5001 57.0016 20.5001C57.4001 20.5001 57.7823 20.3418 58.0641 20.06C58.3459 19.7782 58.5042 19.396 58.5042 18.9975C58.5042 18.599 58.3459 18.2168 58.0641 17.935L54.6241 14.5H55.9991C58.7829 14.503 61.4519 15.6102 63.4204 17.5787C65.3889 19.5472 66.4961 22.2161 66.4991 25C66.4991 25.3978 66.6571 25.7794 66.9384 26.0607C67.2197 26.342 67.6012 26.5 67.9991 26.5C68.3969 26.5 68.7784 26.342 69.0597 26.0607C69.341 25.7794 69.4991 25.3978 69.4991 25C69.4951 21.4208 68.0715 17.9893 65.5406 15.4584C63.0098 12.9276 59.5783 11.504 55.9991 11.5Z" fill="white"/>
</g>
<defs>
<clipPath id="clip0_27_5829">
<rect width="72" height="32" rx="5" fill="white"/>
</clipPath>
</defs>
</svg>
