<svg width="72" height="32" viewBox="0 0 72 32" fill="none" xmlns="http://www.w3.org/2000/svg">
<g clip-path="url(#clip0_27_5959)">
<path d="M30.0008 9C30.0008 9.26522 29.8954 9.51957 29.7079 9.70711C29.5204 9.89464 29.266 10 29.0008 10H12.0008V20H17.0008C17.1987 19.9998 17.3922 20.0584 17.5568 20.1683C17.7214 20.2782 17.8497 20.4344 17.9254 20.6172C18.0012 20.8 18.021 21.0012 17.9823 21.1953C17.9437 21.3894 17.8483 21.5676 17.7083 21.7075L11.7083 27.7075C11.6154 27.8005 11.5051 27.8742 11.3837 27.9246C11.2623 27.9749 11.1322 28.0008 11.0008 28.0008C10.8694 28.0008 10.7392 27.9749 10.6178 27.9246C10.4964 27.8742 10.3862 27.8005 10.2933 27.7075L4.29329 21.7075C4.15328 21.5676 4.05791 21.3894 4.01926 21.1953C3.98061 21.0012 4.00041 20.8 4.07616 20.6172C4.15192 20.4344 4.28021 20.2782 4.44481 20.1683C4.6094 20.0584 4.80289 19.9998 5.00079 20H10.0008V9C10.0008 8.73478 10.1061 8.48043 10.2937 8.29289C10.4812 8.10536 10.7356 8 11.0008 8H29.0008C29.266 8 29.5204 8.10536 29.7079 8.29289C29.8954 8.48043 30.0008 8.73478 30.0008 9Z" fill="white"/>
<path d="M70.4994 9C70.4994 9.39782 70.3414 9.77936 70.0601 10.0607C69.7788 10.342 69.3972 10.5 68.9994 10.5H52.4994V23.375L55.9381 19.935C56.2199 19.6532 56.6021 19.4949 57.0006 19.4949C57.3992 19.4949 57.7814 19.6532 58.0631 19.935C58.3449 20.2168 58.5033 20.599 58.5033 20.9975C58.5033 21.396 58.3449 21.7782 58.0631 22.06L52.0631 28.06C51.9238 28.1998 51.7582 28.3108 51.5759 28.3865C51.3935 28.4622 51.1981 28.5012 51.0006 28.5012C50.8032 28.5012 50.6077 28.4622 50.4254 28.3865C50.2431 28.3108 50.0775 28.1998 49.9381 28.06L43.9381 22.06C43.6564 21.7782 43.498 21.396 43.498 20.9975C43.498 20.599 43.6564 20.2168 43.9381 19.935C44.2199 19.6532 44.6021 19.4949 45.0006 19.4949C45.3992 19.4949 45.7814 19.6532 46.0631 19.935L49.4994 23.375V9C49.4994 8.60218 49.6574 8.22064 49.9387 7.93934C50.22 7.65804 50.6016 7.5 50.9994 7.5H68.9994C69.3972 7.5 69.7788 7.65804 70.0601 7.93934C70.3414 8.22064 70.4994 8.60218 70.4994 9Z" fill="white"/>
</g>
<defs>
<clipPath id="clip0_27_5959">
<rect width="72" height="32" rx="5" fill="white"/>
</clipPath>
</defs>
</svg>
