<svg width="72" height="32" viewBox="0 0 72 32" fill="none" xmlns="http://www.w3.org/2000/svg">
<g clip-path="url(#clip0_27_6059)">
<path d="M6.2925 14.7075C6.15249 14.5676 6.05712 14.3894 6.01847 14.1953C5.97982 14.0012 5.99962 13.8 6.07538 13.6172C6.15113 13.4344 6.27942 13.2782 6.44402 13.1683C6.60861 13.0584 6.8021 12.9998 7 13H15V4C15 3.73478 15.1054 3.48043 15.2929 3.29289C15.4804 3.10536 15.7348 3 16 3C16.2652 3 16.5196 3.10536 16.7071 3.29289C16.8946 3.48043 17 3.73478 17 4V13H25C25.1979 12.9998 25.3914 13.0584 25.556 13.1683C25.7206 13.2782 25.8489 13.4344 25.9246 13.6172C26.0004 13.8 26.0202 14.0012 25.9815 14.1953C25.9429 14.3894 25.8475 14.5676 25.7075 14.7075L16.7075 23.7075C16.6146 23.8005 16.5043 23.8742 16.3829 23.9246C16.2615 23.9749 16.1314 24.0008 16 24.0008C15.8686 24.0008 15.7385 23.9749 15.6171 23.9246C15.4957 23.8742 15.3854 23.8005 15.2925 23.7075L6.2925 14.7075ZM27 26H5C4.73478 26 4.48043 26.1054 4.29289 26.2929C4.10536 26.4804 4 26.7348 4 27C4 27.2652 4.10536 27.5196 4.29289 27.7071C4.48043 27.8946 4.73478 28 5 28H27C27.2652 28 27.5196 27.8946 27.7071 27.7071C27.8946 27.5196 28 27.2652 28 27C28 26.7348 27.8946 26.4804 27.7071 26.2929C27.5196 26.1054 27.2652 26 27 26Z" fill="white"/>
<path d="M45.9387 14.0612C45.657 13.7795 45.4986 13.3973 45.4986 12.9987C45.4986 12.6002 45.657 12.218 45.9387 11.9362C46.2205 11.6545 46.6027 11.4961 47.0012 11.4961C47.3998 11.4961 47.782 11.6545 48.0638 11.9362L54.5 18.375V4C54.5 3.60218 54.658 3.22064 54.9393 2.93934C55.2206 2.65804 55.6022 2.5 56 2.5C56.3978 2.5 56.7794 2.65804 57.0607 2.93934C57.342 3.22064 57.5 3.60218 57.5 4V18.375L63.9387 11.935C64.2205 11.6532 64.6027 11.4949 65.0012 11.4949C65.3998 11.4949 65.782 11.6532 66.0637 11.935C66.3455 12.2168 66.5039 12.599 66.5039 12.9975C66.5039 13.396 66.3455 13.7782 66.0637 14.06L57.0637 23.06C56.9244 23.1998 56.7588 23.3108 56.5765 23.3865C56.3941 23.4622 56.1987 23.5012 56.0012 23.5012C55.8038 23.5012 55.6083 23.4622 55.426 23.3865C55.2437 23.3108 55.0781 23.1998 54.9388 23.06L45.9387 14.0612ZM67 25.5H45C44.6022 25.5 44.2206 25.658 43.9393 25.9393C43.658 26.2206 43.5 26.6022 43.5 27C43.5 27.3978 43.658 27.7794 43.9393 28.0607C44.2206 28.342 44.6022 28.5 45 28.5H67C67.3978 28.5 67.7794 28.342 68.0607 28.0607C68.342 27.7794 68.5 27.3978 68.5 27C68.5 26.6022 68.342 26.2206 68.0607 25.9393C67.7794 25.658 67.3978 25.5 67 25.5Z" fill="white"/>
</g>
<defs>
<clipPath id="clip0_27_6059">
<rect width="72" height="32" rx="5" fill="white"/>
</clipPath>
</defs>
</svg>
