<svg width="72" height="32" viewBox="0 0 72 32" fill="none" xmlns="http://www.w3.org/2000/svg">
<g clip-path="url(#clip0_27_5874)">
<path d="M28.7075 13.7075L22.7075 19.7075C22.5676 19.8475 22.3894 19.9429 22.1953 19.9815C22.0012 20.0202 21.8 20.0004 21.6172 19.9246C21.4344 19.8489 21.2782 19.7206 21.1683 19.556C21.0584 19.3914 20.9998 19.1979 21 19V14H16C13.0836 14.0033 10.2877 15.1633 8.22548 17.2255C6.1633 19.2877 5.00331 22.0836 5 25C5 25.2652 4.89464 25.5196 4.70711 25.7071C4.51957 25.8946 4.26522 26 4 26C3.73478 26 3.48043 25.8946 3.29289 25.7071C3.10536 25.5196 3 25.2652 3 25C3.00364 21.5533 4.37445 18.2488 6.81163 15.8116C9.24882 13.3744 12.5533 12.0036 16 12H21V6.99999C20.9998 6.8021 21.0584 6.60861 21.1683 6.44401C21.2782 6.27942 21.4344 6.15112 21.6172 6.07537C21.8 5.99962 22.0012 5.97981 22.1953 6.01846C22.3894 6.05712 22.5676 6.15248 22.7075 6.29249L28.7075 12.2925C28.8005 12.3854 28.8742 12.4957 28.9246 12.6171C28.9749 12.7385 29.0008 12.8686 29.0008 13C29.0008 13.1314 28.9749 13.2615 28.9246 13.3829C28.8742 13.5043 28.8005 13.6146 28.7075 13.7075Z" fill="white"/>
<path d="M69.0613 14.0613L63.0613 20.0613C62.7795 20.343 62.3973 20.5014 61.9988 20.5014C61.6002 20.5014 61.218 20.343 60.9363 20.0613C60.6545 19.7795 60.4961 19.3973 60.4961 18.9988C60.4961 18.6002 60.6545 18.218 60.9363 17.9363L64.375 14.5H56C53.2161 14.503 50.5472 15.6102 48.5787 17.5787C46.6102 19.5472 45.503 22.2161 45.5 25C45.5 25.3978 45.342 25.7794 45.0607 26.0607C44.7794 26.342 44.3978 26.5 44 26.5C43.6022 26.5 43.2206 26.342 42.9393 26.0607C42.658 25.7794 42.5 25.3978 42.5 25C42.504 21.4208 43.9276 17.9893 46.4584 15.4584C48.9893 12.9276 52.4208 11.504 56 11.5H64.375L60.9387 8.06001C60.657 7.77821 60.4986 7.39602 60.4986 6.99751C60.4986 6.59899 60.657 6.2168 60.9387 5.93501C61.2205 5.65321 61.6027 5.4949 62.0012 5.4949C62.3998 5.4949 62.782 5.65321 63.0637 5.93501L69.0637 11.935C69.2036 12.0745 69.3145 12.2403 69.3901 12.4229C69.4657 12.6054 69.5045 12.8011 69.5043 12.9987C69.5041 13.1962 69.4648 13.3918 69.3888 13.5742C69.3127 13.7565 69.2014 13.922 69.0613 14.0613Z" fill="white"/>
</g>
<defs>
<clipPath id="clip0_27_5874">
<rect width="72" height="32" rx="5" fill="white"/>
</clipPath>
</defs>
</svg>
