<svg width="72" height="32" viewBox="0 0 72 32" fill="none" xmlns="http://www.w3.org/2000/svg">
<g clip-path="url(#clip0_27_5989)">
<path d="M27.7075 10.7075L21.7075 16.7075C21.5676 16.8475 21.3894 16.9429 21.1953 16.9815C21.0012 17.0202 20.8 17.0004 20.6172 16.9246C20.4344 16.8489 20.2782 16.7206 20.1683 16.556C20.0584 16.3914 19.9998 16.1979 20 16V11H10V28C10 28.2652 9.89464 28.5196 9.70711 28.7071C9.51957 28.8946 9.26522 29 9 29C8.73478 29 8.48043 28.8946 8.29289 28.7071C8.10536 28.5196 8 28.2652 8 28V9.99999C8 9.73478 8.10536 9.48042 8.29289 9.29289C8.48043 9.10535 8.73478 8.99999 9 8.99999H20V3.99999C19.9998 3.8021 20.0584 3.60861 20.1683 3.44401C20.2782 3.27942 20.4344 3.15112 20.6172 3.07537C20.8 2.99962 21.0012 2.97981 21.1953 3.01846C21.3894 3.05712 21.5676 3.15248 21.7075 3.29249L27.7075 9.29249C27.8005 9.38537 27.8742 9.49566 27.9246 9.61705C27.9749 9.73845 28.0008 9.86858 28.0008 9.99999C28.0008 10.1314 27.9749 10.2615 27.9246 10.3829C27.8742 10.5043 27.8005 10.6146 27.7075 10.7075Z" fill="white"/>
<path d="M68.0613 11.0613L62.0613 17.0613C61.7795 17.3431 61.3973 17.5014 60.9988 17.5014C60.6002 17.5014 60.218 17.3431 59.9363 17.0613C59.6545 16.7795 59.4961 16.3973 59.4961 15.9988C59.4961 15.6002 59.6545 15.218 59.9363 14.9363L63.375 11.5H50.5V28C50.5 28.3978 50.342 28.7794 50.0607 29.0607C49.7794 29.342 49.3978 29.5 49 29.5C48.6022 29.5 48.2206 29.342 47.9393 29.0607C47.658 28.7794 47.5 28.3978 47.5 28V10C47.5 9.60218 47.658 9.22065 47.9393 8.93935C48.2206 8.65804 48.6022 8.50001 49 8.50001H63.375L59.9387 5.06126C59.7992 4.92173 59.6885 4.75608 59.613 4.57378C59.5375 4.39147 59.4986 4.19608 59.4986 3.99876C59.4986 3.80143 59.5375 3.60604 59.613 3.42374C59.6885 3.24143 59.7992 3.07579 59.9387 2.93626C60.0783 2.79673 60.2439 2.68605 60.4262 2.61053C60.6085 2.53502 60.8039 2.49615 61.0012 2.49615C61.1986 2.49615 61.394 2.53502 61.5763 2.61053C61.7586 2.68605 61.9242 2.79673 62.0637 2.93626L68.0637 8.93626C68.2034 9.07578 68.3142 9.2415 68.3897 9.42391C68.4652 9.60633 68.5039 9.80186 68.5037 9.99928C68.5035 10.1967 68.4642 10.3921 68.3883 10.5744C68.3124 10.7566 68.2013 10.9221 68.0613 11.0613Z" fill="white"/>
</g>
<defs>
<clipPath id="clip0_27_5989">
<rect width="72" height="32" rx="5" fill="white"/>
</clipPath>
</defs>
</svg>
