<svg width="72" height="32" viewBox="0 0 72 32" fill="none" xmlns="http://www.w3.org/2000/svg">
<g clip-path="url(#clip0_27_3639)">
<path d="M27 5H5C4.46957 5 3.96086 5.21071 3.58579 5.58579C3.21071 5.96086 3 6.46957 3 7V25C3 25.5304 3.21071 26.0391 3.58579 26.4142C3.96086 26.7893 4.46957 27 5 27H27C27.5304 27 28.0391 26.7893 28.4142 26.4142C28.7893 26.0391 29 25.5304 29 25V7C29 6.46957 28.7893 5.96086 28.4142 5.58579C28.0391 5.21071 27.5304 5 27 5ZM9 18C8.99998 18.1966 8.94199 18.3889 8.83327 18.5528C8.72455 18.7166 8.56993 18.8448 8.38875 18.9212C8.26587 18.9737 8.13359 19.0005 8 19H6.5C6.23478 19 5.98043 18.8946 5.79289 18.7071C5.60536 18.5196 5.5 18.2652 5.5 18C5.5 17.7348 5.60536 17.4804 5.79289 17.2929C5.98043 17.1054 6.23478 17 6.5 17H7V11H6.5C6.23478 11 5.98043 10.8946 5.79289 10.7071C5.60536 10.5196 5.5 10.2652 5.5 10C5.5 9.73478 5.60536 9.48043 5.79289 9.29289C5.98043 9.10536 6.23478 9 6.5 9H8C8.17515 9.0004 8.34712 9.04679 8.49871 9.13454C8.6503 9.22229 8.77618 9.34831 8.86375 9.5L11.5 14.015L14.1362 9.5C14.2238 9.34831 14.3497 9.22229 14.5013 9.13454C14.6529 9.04679 14.8248 9.0004 15 9H16.5C16.7652 9 17.0196 9.10536 17.2071 9.29289C17.3946 9.48043 17.5 9.73478 17.5 10C17.5 10.2652 17.3946 10.5196 17.2071 10.7071C17.0196 10.8946 16.7652 11 16.5 11H16V17H16.5C16.7652 17 17.0196 17.1054 17.2071 17.2929C17.3946 17.4804 17.5 17.7348 17.5 18C17.5 18.2652 17.3946 18.5196 17.2071 18.7071C17.0196 18.8946 16.7652 19 16.5 19H15C14.8664 19.0005 14.7341 18.9737 14.6112 18.9212C14.4301 18.8448 14.2755 18.7166 14.1667 18.5528C14.058 18.3889 14 18.1966 14 18V13.6987L12.3638 16.5C12.2757 16.651 12.1496 16.7762 11.998 16.8632C11.8465 16.9503 11.6748 16.9961 11.5 16.9961C11.3252 16.9961 11.1535 16.9503 11.002 16.8632C10.8504 16.7762 10.7243 16.651 10.6362 16.5L9 13.6987V18ZM25 23H11C10.7348 23 10.4804 22.8946 10.2929 22.7071C10.1054 22.5196 10 22.2652 10 22C10 21.7348 10.1054 21.4804 10.2929 21.2929C10.4804 21.1054 10.7348 21 11 21H25C25.2652 21 25.5196 21.1054 25.7071 21.2929C25.8946 21.4804 26 21.7348 26 22C26 22.2652 25.8946 22.5196 25.7071 22.7071C25.5196 22.8946 25.2652 23 25 23ZM25 19H20C19.7348 19 19.4804 18.8946 19.2929 18.7071C19.1054 18.5196 19 18.2652 19 18C19 17.7348 19.1054 17.4804 19.2929 17.2929C19.4804 17.1054 19.7348 17 20 17H25C25.2652 17 25.5196 17.1054 25.7071 17.2929C25.8946 17.4804 26 17.7348 26 18C26 18.2652 25.8946 18.5196 25.7071 18.7071C25.5196 18.8946 25.2652 19 25 19ZM25 15H20C19.7348 15 19.4804 14.8946 19.2929 14.7071C19.1054 14.5196 19 14.2652 19 14C19 13.7348 19.1054 13.4804 19.2929 13.2929C19.4804 13.1054 19.7348 13 20 13H25C25.2652 13 25.5196 13.1054 25.7071 13.2929C25.8946 13.4804 26 13.7348 26 14C26 14.2652 25.8946 14.5196 25.7071 14.7071C25.5196 14.8946 25.2652 15 25 15Z" fill="white"/>
<path d="M47 16.5C47 16.8978 46.842 17.2794 46.5607 17.5607C46.2794 17.842 45.8978 18 45.5 18H43C42.6022 18 42.2206 17.842 41.9393 17.5607C41.658 17.2794 41.5 16.8978 41.5 16.5C41.5 16.1022 41.658 15.7206 41.9393 15.4393C42.2206 15.158 42.6022 15 43 15H43.5V8.5H43C42.6022 8.5 42.2206 8.34197 41.9393 8.06066C41.658 7.77936 41.5 7.39783 41.5 7C41.5 6.60218 41.658 6.22065 41.9393 5.93934C42.2206 5.65804 42.6022 5.5 43 5.5H45C45.2471 5.4995 45.4905 5.56006 45.7086 5.67629C45.9267 5.79252 46.1126 5.96083 46.25 6.16625L50 11.7913L53.75 6.16625C53.8874 5.96083 54.0733 5.79252 54.2914 5.67629C54.5095 5.56006 54.7529 5.4995 55 5.5H57C57.3978 5.5 57.7794 5.65804 58.0607 5.93934C58.342 6.22065 58.5 6.60218 58.5 7C58.5 7.39783 58.342 7.77936 58.0607 8.06066C57.7794 8.34197 57.3978 8.5 57 8.5H56.5V15H57C57.3978 15 57.7794 15.158 58.0607 15.4393C58.342 15.7206 58.5 16.1022 58.5 16.5C58.5 16.8978 58.342 17.2794 58.0607 17.5607C57.7794 17.842 57.3978 18 57 18H54.5C54.1966 17.9996 53.9005 17.9072 53.6507 17.735C53.4009 17.5628 53.2092 17.3189 53.1009 17.0356C52.9925 16.7522 52.9727 16.4426 53.044 16.1477C53.1152 15.8528 53.2742 15.5864 53.5 15.3838V11.9538L51.25 15.3288C51.1132 15.535 50.9274 15.7042 50.7093 15.8213C50.4912 15.9383 50.2475 15.9996 50 15.9996C49.7525 15.9996 49.5088 15.9383 49.2907 15.8213C49.0726 15.7042 48.8868 15.535 48.75 15.3288L46.5 11.9538V15.3838C46.6571 15.5242 46.7828 15.6963 46.8689 15.8886C46.9551 16.0809 46.9997 16.2893 47 16.5ZM62 13H69C69.3978 13 69.7794 12.842 70.0607 12.5607C70.342 12.2794 70.5 11.8978 70.5 11.5C70.5 11.1022 70.342 10.7206 70.0607 10.4393C69.7794 10.158 69.3978 10 69 10H62C61.6022 10 61.2206 10.158 60.9393 10.4393C60.658 10.7206 60.5 11.1022 60.5 11.5C60.5 11.8978 60.658 12.2794 60.9393 12.5607C61.2206 12.842 61.6022 13 62 13ZM69 15H62C61.6022 15 61.2206 15.158 60.9393 15.4393C60.658 15.7206 60.5 16.1022 60.5 16.5C60.5 16.8978 60.658 17.2794 60.9393 17.5607C61.2206 17.842 61.6022 18 62 18H69C69.3978 18 69.7794 17.842 70.0607 17.5607C70.342 17.2794 70.5 16.8978 70.5 16.5C70.5 16.1022 70.342 15.7206 70.0607 15.4393C69.7794 15.158 69.3978 15 69 15ZM69 20H50C49.6022 20 49.2206 20.158 48.9393 20.4393C48.658 20.7206 48.5 21.1022 48.5 21.5C48.5 21.8978 48.658 22.2794 48.9393 22.5607C49.2206 22.842 49.6022 23 50 23H69C69.3978 23 69.7794 22.842 70.0607 22.5607C70.342 22.2794 70.5 21.8978 70.5 21.5C70.5 21.1022 70.342 20.7206 70.0607 20.4393C69.7794 20.158 69.3978 20 69 20ZM69 25H50C49.6022 25 49.2206 25.158 48.9393 25.4393C48.658 25.7206 48.5 26.1022 48.5 26.5C48.5 26.8978 48.658 27.2794 48.9393 27.5607C49.2206 27.842 49.6022 28 50 28H69C69.3978 28 69.7794 27.842 70.0607 27.5607C70.342 27.2794 70.5 26.8978 70.5 26.5C70.5 26.1022 70.342 25.7206 70.0607 25.4393C69.7794 25.158 69.3978 25 69 25Z" fill="white"/>
</g>
<defs>
<clipPath id="clip0_27_3639">
<rect width="72" height="32" rx="5" fill="white"/>
</clipPath>
</defs>
</svg>
