<svg width="72" height="32" viewBox="0 0 72 32" fill="none" xmlns="http://www.w3.org/2000/svg">
<g clip-path="url(#clip0_27_3644)">
<path d="M27 5H5C4.46957 5 3.96086 5.21071 3.58579 5.58579C3.21071 5.96086 3 6.46957 3 7V25C3 25.5304 3.21071 26.0391 3.58579 26.4142C3.96086 26.7893 4.46957 27 5 27H27C27.5304 27 28.0391 26.7893 28.4142 26.4142C28.7893 26.0391 29 25.5304 29 25V7C29 6.46957 28.7893 5.96086 28.4142 5.58579C28.0391 5.21071 27.5304 5 27 5ZM8 11.5C8 11.7652 7.89464 12.0196 7.70711 12.2071C7.51957 12.3946 7.26522 12.5 7 12.5C6.73478 12.5 6.48043 12.3946 6.29289 12.2071C6.10536 12.0196 6 11.7652 6 11.5V10C6 9.73478 6.10536 9.48043 6.29289 9.29289C6.48043 9.10536 6.73478 9 7 9H16C16.2652 9 16.5196 9.10536 16.7071 9.29289C16.8946 9.48043 17 9.73478 17 10V11.5C17 11.7652 16.8946 12.0196 16.7071 12.2071C16.5196 12.3946 16.2652 12.5 16 12.5C15.7348 12.5 15.4804 12.3946 15.2929 12.2071C15.1054 12.0196 15 11.7652 15 11.5V11H12.5V17H13C13.2652 17 13.5196 17.1054 13.7071 17.2929C13.8946 17.4804 14 17.7348 14 18C14 18.2652 13.8946 18.5196 13.7071 18.7071C13.5196 18.8946 13.2652 19 13 19H10C9.73478 19 9.48043 18.8946 9.29289 18.7071C9.10536 18.5196 9 18.2652 9 18C9 17.7348 9.10536 17.4804 9.29289 17.2929C9.48043 17.1054 9.73478 17 10 17H10.5V11H8V11.5ZM25 23H10C9.73478 23 9.48043 22.8946 9.29289 22.7071C9.10536 22.5196 9 22.2652 9 22C9 21.7348 9.10536 21.4804 9.29289 21.2929C9.48043 21.1054 9.73478 21 10 21H25C25.2652 21 25.5196 21.1054 25.7071 21.2929C25.8946 21.4804 26 21.7348 26 22C26 22.2652 25.8946 22.5196 25.7071 22.7071C25.5196 22.8946 25.2652 23 25 23ZM25 19H17C16.7348 19 16.4804 18.8946 16.2929 18.7071C16.1054 18.5196 16 18.2652 16 18C16 17.7348 16.1054 17.4804 16.2929 17.2929C16.4804 17.1054 16.7348 17 17 17H25C25.2652 17 25.5196 17.1054 25.7071 17.2929C25.8946 17.4804 26 17.7348 26 18C26 18.2652 25.8946 18.5196 25.7071 18.7071C25.5196 18.8946 25.2652 19 25 19ZM25 15H19C18.7348 15 18.4804 14.8946 18.2929 14.7071C18.1054 14.5196 18 14.2652 18 14C18 13.7348 18.1054 13.4804 18.2929 13.2929C18.4804 13.1054 18.7348 13 19 13H25C25.2652 13 25.5196 13.1054 25.7071 13.2929C25.8946 13.4804 26 13.7348 26 14C26 14.2652 25.8946 14.5196 25.7071 14.7071C25.5196 14.8946 25.2652 15 25 15Z" fill="white"/>
<path d="M59.5 11.5C59.5 11.1022 59.658 10.7206 59.9393 10.4393C60.2206 10.158 60.6022 10 61 10H69C69.3978 10 69.7794 10.158 70.0607 10.4393C70.342 10.7206 70.5 11.1022 70.5 11.5C70.5 11.8978 70.342 12.2794 70.0607 12.5607C69.7794 12.842 69.3978 13 69 13H61C60.6022 13 60.2206 12.842 59.9393 12.5607C59.658 12.2794 59.5 11.8978 59.5 11.5ZM69 15H61C60.6022 15 60.2206 15.158 59.9393 15.4393C59.658 15.7206 59.5 16.1022 59.5 16.5C59.5 16.8978 59.658 17.2794 59.9393 17.5607C60.2206 17.842 60.6022 18 61 18H69C69.3978 18 69.7794 17.842 70.0607 17.5607C70.342 17.2794 70.5 16.8978 70.5 16.5C70.5 16.1022 70.342 15.7206 70.0607 15.4393C69.7794 15.158 69.3978 15 69 15ZM69 20H50C49.6022 20 49.2206 20.158 48.9393 20.4393C48.658 20.7206 48.5 21.1022 48.5 21.5C48.5 21.8978 48.658 22.2794 48.9393 22.5607C49.2206 22.842 49.6022 23 50 23H69C69.3978 23 69.7794 22.842 70.0607 22.5607C70.342 22.2794 70.5 21.8978 70.5 21.5C70.5 21.1022 70.342 20.7206 70.0607 20.4393C69.7794 20.158 69.3978 20 69 20ZM69 25H50C49.6022 25 49.2206 25.158 48.9393 25.4393C48.658 25.7206 48.5 26.1022 48.5 26.5C48.5 26.8978 48.658 27.2794 48.9393 27.5607C49.2206 27.842 49.6022 28 50 28H69C69.3978 28 69.7794 27.842 70.0607 27.5607C70.342 27.2794 70.5 26.8978 70.5 26.5C70.5 26.1022 70.342 25.7206 70.0607 25.4393C69.7794 25.158 69.3978 25 69 25ZM52 18C52.3978 18 52.7794 17.842 53.0607 17.5607C53.342 17.2794 53.5 16.8978 53.5 16.5C53.5 16.1022 53.342 15.7206 53.0607 15.4393C52.7794 15.158 52.3978 15 52 15H51.5V8.5H54.5V9C54.5 9.39782 54.658 9.77936 54.9393 10.0607C55.2206 10.342 55.6022 10.5 56 10.5C56.3978 10.5 56.7794 10.342 57.0607 10.0607C57.342 9.77936 57.5 9.39782 57.5 9V7C57.5 6.60218 57.342 6.22064 57.0607 5.93934C56.7794 5.65804 56.3978 5.5 56 5.5H44C43.6022 5.5 43.2206 5.65804 42.9393 5.93934C42.658 6.22064 42.5 6.60218 42.5 7V9C42.5 9.39782 42.658 9.77936 42.9393 10.0607C43.2206 10.342 43.6022 10.5 44 10.5C44.3978 10.5 44.7794 10.342 45.0607 10.0607C45.342 9.77936 45.5 9.39782 45.5 9V8.5H48.5V15H48C47.6022 15 47.2206 15.158 46.9393 15.4393C46.658 15.7206 46.5 16.1022 46.5 16.5C46.5 16.8978 46.658 17.2794 46.9393 17.5607C47.2206 17.842 47.6022 18 48 18H52Z" fill="white"/>
</g>
<defs>
<clipPath id="clip0_27_3644">
<rect width="72" height="32" rx="5" fill="white"/>
</clipPath>
</defs>
</svg>
