<svg width="72" height="32" viewBox="0 0 72 32" fill="none" xmlns="http://www.w3.org/2000/svg">
<g clip-path="url(#clip0_27_4921)">
<path d="M17 16V25H18.4525C18.8451 25.005 19.2245 24.8589 19.5125 24.5921C19.8005 24.3253 19.975 23.9581 20 23.5662C20.0116 23.2938 19.9488 23.0233 19.8182 22.7839C19.6876 22.5445 19.4942 22.3452 19.2588 22.2075C19.1815 22.1635 19.1172 22.1001 19.072 22.0236C19.0268 21.9471 19.0024 21.8601 19.0012 21.7712V20.6725C19.001 20.5933 19.0196 20.5152 19.0555 20.4447C19.0914 20.3741 19.1435 20.313 19.2076 20.2665C19.2717 20.22 19.3458 20.1894 19.4241 20.1772C19.5023 20.165 19.5823 20.1715 19.6575 20.1963C20.3358 20.4351 20.9244 20.8766 21.3434 21.4611C21.7624 22.0455 21.9916 22.7447 22 23.4638C22.02 25.4088 20.375 27 18.4263 27H17V29C17 29.2652 16.8946 29.5196 16.7071 29.7071C16.5196 29.8946 16.2652 30 16 30C15.7348 30 15.4804 29.8946 15.2929 29.7071C15.1054 29.5196 15 29.2652 15 29V27H12C11.8629 27.0003 11.7272 26.9724 11.6014 26.9181C11.4755 26.8637 11.3622 26.7841 11.2684 26.6841C11.1746 26.5841 11.1024 26.4659 11.0562 26.3368C11.0101 26.2077 10.9909 26.0705 11 25.9338C11.0221 25.6762 11.1411 25.4366 11.333 25.2633C11.5248 25.09 11.7753 24.9959 12.0337 25H15V16H13.0575C11.9825 16 11.0575 16.825 11.0025 17.8988C10.978 18.3786 11.1271 18.8513 11.4225 19.2302C11.7179 19.6092 12.1399 19.8691 12.6112 19.9625C12.7221 19.9864 12.8214 20.0478 12.8922 20.1364C12.963 20.225 13.0011 20.3353 13 20.4487V21.5C13 21.6326 12.9473 21.7598 12.8536 21.8536C12.7598 21.9473 12.6326 22 12.5 22C11.8998 22.0002 11.3056 21.8803 10.7524 21.6474C10.1993 21.4144 9.69826 21.0732 9.27894 20.6438C8.85963 20.2143 8.53046 19.7053 8.31082 19.1467C8.09117 18.5882 7.9855 17.9913 8 17.3913C8.05875 14.935 10.125 13 12.585 13H15V3C15 2.73478 15.1054 2.48043 15.2929 2.29289C15.4804 2.10536 15.7348 2 16 2C16.2652 2 16.5196 2.10536 16.7071 2.29289C16.8946 2.48043 17 2.73478 17 3V13H21C21.2714 13.0003 21.54 12.9455 21.7895 12.8387C22.039 12.7319 22.2641 12.5755 22.4513 12.3789C22.6384 12.1823 22.7835 11.9497 22.8778 11.6952C22.9722 11.4408 23.0137 11.1698 23 10.8988C22.945 9.825 22.0175 9 20.9425 9H19.5C19.3674 9 19.2402 8.94732 19.1464 8.85355C19.0527 8.75979 19 8.63261 19 8.5V5.5C19 5.36739 19.0527 5.24021 19.1464 5.14645C19.2402 5.05268 19.3674 5 19.5 5H21.4025C24.48 5 27.0525 7.51875 26.9988 10.595C26.9738 12.0369 26.3836 13.4114 25.3551 14.4224C24.3266 15.4333 22.9422 15.9999 21.5 16H17ZM11.5825 9H12.5C12.6326 9 12.7598 8.94732 12.8536 8.85355C12.9473 8.75979 13 8.63261 13 8.5V5.5C13 5.36739 12.9473 5.24021 12.8536 5.14645C12.7598 5.05268 12.6326 5 12.5 5H8C6.67392 5 5.40215 5.52678 4.46447 6.46447C3.52678 7.40215 3 8.67392 3 10V11C3 11.2652 3.10536 11.5196 3.29289 11.7071C3.48043 11.8946 3.73478 12 4 12H7C7.97287 12 8.92461 11.7161 9.73857 11.1833C10.5525 10.6504 11.1934 9.89165 11.5825 9Z" fill="white"/>
<path d="M51.4775 7.5H51.5C51.8978 7.5 52.2794 7.34196 52.5607 7.06066C52.842 6.77936 53 6.39782 53 6C53 5.60218 52.842 5.22064 52.5607 4.93934C52.2794 4.65804 51.8978 4.5 51.5 4.5H47.5C46.0418 4.50165 44.6438 5.08165 43.6127 6.11274C42.5816 7.14383 42.0017 8.54182 42 10V11C42 11.3978 42.158 11.7794 42.4393 12.0607C42.7206 12.342 43.1022 12.5 43.5 12.5H46C47.3717 12.4984 48.6934 11.9849 49.7065 11.0602C50.7196 10.1354 51.3511 8.86585 51.4775 7.5ZM46 9.5H45.05C45.1653 8.93532 45.4721 8.4278 45.9185 8.06335C46.365 7.69889 46.9237 7.49988 47.5 7.5H48.45C48.3347 8.06468 48.0279 8.5722 47.5815 8.93665C47.135 9.30111 46.5763 9.50012 46 9.5ZM68 9.875V10C67.9983 11.4582 67.4184 12.8562 66.3873 13.8873C65.3562 14.9184 63.9582 15.4983 62.5 15.5H57.5V24.5H58.5C58.8978 24.5 59.2794 24.342 59.5607 24.0607C59.842 23.7794 60 23.3978 60 23C60.0011 22.7887 59.9571 22.5795 59.8709 22.3866C59.7847 22.1937 59.6582 22.0214 59.5 21.8813C59.348 21.7514 59.2235 21.5925 59.1338 21.4139C59.0441 21.2353 58.991 21.0405 58.9776 20.8411C58.9642 20.6416 58.9909 20.4415 59.0559 20.2525C59.121 20.0635 59.2232 19.8894 59.3565 19.7404C59.4898 19.5915 59.6515 19.4707 59.8321 19.3851C60.0128 19.2995 60.2087 19.2509 60.4084 19.2422C60.6081 19.2334 60.8075 19.2646 60.995 19.334C61.1825 19.4034 61.3542 19.5096 61.5 19.6462C62.1792 20.2539 62.6578 21.0533 62.8727 21.9389C63.0876 22.8245 63.0285 23.7545 62.7034 24.6058C62.3782 25.4571 61.8022 26.1896 61.0516 26.7064C60.3011 27.2232 59.4113 27.4999 58.5 27.5H57.5V29C57.5 29.3978 57.342 29.7794 57.0607 30.0607C56.7794 30.342 56.3978 30.5 56 30.5C55.6022 30.5 55.2206 30.342 54.9393 30.0607C54.658 29.7794 54.5 29.3978 54.5 29V27.5H51.5C51.1022 27.5 50.7206 27.342 50.4393 27.0607C50.158 26.7794 50 26.3978 50 26C50 25.6022 50.158 25.2206 50.4393 24.9393C50.7206 24.658 51.1022 24.5 51.5 24.5H54.5V15.5H52.5C52.1458 15.4995 51.8028 15.6243 51.5318 15.8525C51.2608 16.0806 51.0792 16.3973 51.0194 16.7464C50.9595 17.0956 51.0251 17.4546 51.2046 17.76C51.3841 18.0654 51.6658 18.2974 52 18.415C52.3759 18.5476 52.6838 18.8241 52.8559 19.1837C53.0279 19.5433 53.0501 19.9566 52.9175 20.3325C52.7849 20.7084 52.5084 21.0163 52.1488 21.1884C51.7892 21.3604 51.3759 21.3826 51 21.25C49.9939 20.8999 49.1446 20.2043 48.6033 19.2868C48.0619 18.3693 47.8636 17.2896 48.0436 16.2396C48.2236 15.1897 48.7702 14.2376 49.5862 13.5528C50.4023 12.8681 51.4347 12.495 52.5 12.5H54.5V3C54.5 2.60218 54.658 2.22064 54.9393 1.93934C55.2206 1.65804 55.6022 1.5 56 1.5C56.3978 1.5 56.7794 1.65804 57.0607 1.93934C57.342 2.22064 57.5 2.60218 57.5 3V12.5H62.5C63.163 12.5 63.7989 12.2366 64.2678 11.7678C64.7366 11.2989 65 10.663 65 10V9.875C64.9984 9.24562 64.7476 8.64249 64.3026 8.19744C63.8575 7.7524 63.2544 7.50165 62.625 7.5H60.5C60.1022 7.5 59.7206 7.34196 59.4393 7.06066C59.158 6.77936 59 6.39782 59 6C59 5.60218 59.158 5.22064 59.4393 4.93934C59.7206 4.65804 60.1022 4.5 60.5 4.5H62.625C64.05 4.50165 65.4162 5.06848 66.4239 6.07613C67.4315 7.08378 67.9983 8.44997 68 9.875Z" fill="white"/>
</g>
<defs>
<clipPath id="clip0_27_4921">
<rect width="72" height="32" rx="5" fill="white"/>
</clipPath>
</defs>
</svg>
