<svg width="72" height="32" viewBox="0 0 72 32" fill="none" xmlns="http://www.w3.org/2000/svg">
<g clip-path="url(#clip0_27_415)">
<path d="M16 3C13.4288 3 10.9154 3.76244 8.77759 5.1909C6.63975 6.61935 4.97351 8.64968 3.98957 11.0251C3.00563 13.4006 2.74819 16.0144 3.2498 18.5362C3.75141 21.0579 4.98953 23.3743 6.80762 25.1924C8.6257 27.0105 10.9421 28.2486 13.4638 28.7502C15.9856 29.2518 18.5995 28.9944 20.9749 28.0104C23.3503 27.0265 25.3807 25.3603 26.8091 23.2224C28.2376 21.0846 29 18.5712 29 16C28.9964 12.5533 27.6256 9.24882 25.1884 6.81163C22.7512 4.37445 19.4467 3.00364 16 3ZM23.9175 14.4788L17.6175 16.5263L21.5113 21.885C21.5928 21.9909 21.6522 22.1121 21.6861 22.2414C21.72 22.3707 21.7276 22.5054 21.7085 22.6377C21.6894 22.77 21.644 22.8971 21.575 23.0116C21.5059 23.126 21.4146 23.2254 21.3065 23.304C21.1984 23.3825 21.0756 23.4386 20.9454 23.4689C20.8152 23.4992 20.6803 23.5031 20.5486 23.4803C20.4169 23.4576 20.2911 23.4087 20.1786 23.3365C20.0661 23.2643 19.9693 23.1703 19.8938 23.06L16 17.7013L12.1063 23.06C11.9474 23.2664 11.7143 23.4026 11.4566 23.4398C11.1988 23.477 10.9368 23.4122 10.7261 23.2592C10.5154 23.1061 10.3727 22.8769 10.3284 22.6203C10.2841 22.3636 10.3416 22.0999 10.4888 21.885L14.3825 16.5263L8.08251 14.4788C7.83022 14.3969 7.62079 14.2181 7.5003 13.9818C7.37981 13.7455 7.35812 13.471 7.44001 13.2188C7.52189 12.9665 7.70064 12.757 7.93694 12.6365C8.17324 12.5161 8.44772 12.4944 8.70001 12.5763L15 14.625V8C15 7.73478 15.1054 7.48043 15.2929 7.29289C15.4804 7.10536 15.7348 7 16 7C16.2652 7 16.5196 7.10536 16.7071 7.29289C16.8946 7.48043 17 7.73478 17 8V14.625L23.3 12.5775C23.4249 12.537 23.5566 12.5214 23.6875 12.5318C23.8185 12.5421 23.9461 12.5781 24.0631 12.6378C24.1801 12.6975 24.2842 12.7796 24.3694 12.8795C24.4547 12.9794 24.5195 13.0951 24.56 13.22C24.6006 13.3449 24.6161 13.4766 24.6057 13.6075C24.5954 13.7385 24.5594 13.8661 24.4997 13.9831C24.44 14.1001 24.3579 14.2042 24.258 14.2894C24.1581 14.3747 24.0424 14.4395 23.9175 14.48V14.4788Z" fill="white"/>
<path d="M66.5562 13.3925L58.4074 16.6525L64.1837 24.0788C64.3056 24.2341 64.3956 24.412 64.4486 24.6023C64.5015 24.7925 64.5164 24.9913 64.4924 25.1873C64.4683 25.3833 64.4058 25.5727 64.3084 25.7445C64.211 25.9162 64.0806 26.0671 63.9248 26.1884C63.769 26.3097 63.5907 26.399 63.4003 26.4512C63.2098 26.5034 63.0109 26.5176 62.815 26.4927C62.6191 26.4679 62.43 26.4047 62.2586 26.3066C62.0872 26.2085 61.9369 26.0776 61.8162 25.9212L55.9999 18.4438L50.1837 25.9212C49.9388 26.2334 49.5801 26.4359 49.1863 26.4842C48.7924 26.5325 48.3954 26.4228 48.0823 26.1791C47.7691 25.9354 47.5653 25.5776 47.5154 25.1839C47.4656 24.7902 47.5737 24.3929 47.8162 24.0788L53.5924 16.6525L45.4437 13.3925C45.2571 13.322 45.0865 13.2151 44.9418 13.0779C44.7971 12.9407 44.6812 12.776 44.6008 12.5935C44.5205 12.411 44.4774 12.2143 44.474 12.0149C44.4706 11.8155 44.507 11.6175 44.581 11.4323C44.655 11.2471 44.7653 11.0786 44.9052 10.9366C45.0452 10.7945 45.212 10.6818 45.3961 10.605C45.5801 10.5282 45.7776 10.4888 45.977 10.4893C46.1764 10.4897 46.3737 10.5299 46.5574 10.6075L54.4999 13.785V5C54.4999 4.60218 54.658 4.22064 54.9393 3.93934C55.2206 3.65804 55.6021 3.5 55.9999 3.5C56.3978 3.5 56.7793 3.65804 57.0606 3.93934C57.3419 4.22064 57.4999 4.60218 57.4999 5V13.785L65.4424 10.6075C65.6261 10.5299 65.8235 10.4897 66.0229 10.4893C66.2223 10.4888 66.4198 10.5282 66.6038 10.605C66.7879 10.6818 66.9547 10.7945 67.0947 10.9366C67.2346 11.0786 67.3448 11.2471 67.4189 11.4323C67.4929 11.6175 67.5293 11.8155 67.5259 12.0149C67.5225 12.2143 67.4794 12.411 67.3991 12.5935C67.3187 12.776 67.2028 12.9407 67.0581 13.0779C66.9134 13.2151 66.7427 13.322 66.5562 13.3925Z" fill="white"/>
</g>
<defs>
<clipPath id="clip0_27_415">
<rect width="72" height="32" rx="5" fill="white"/>
</clipPath>
</defs>
</svg>
