<svg width="72" height="32" viewBox="0 0 72 32" fill="none" xmlns="http://www.w3.org/2000/svg">
<g clip-path="url(#clip0_27_410)">
<path d="M16 3C13.4288 3 10.9154 3.76244 8.77759 5.1909C6.63975 6.61935 4.97351 8.64968 3.98957 11.0251C3.00563 13.4006 2.74819 16.0144 3.2498 18.5362C3.75141 21.0579 4.98953 23.3743 6.80762 25.1924C8.6257 27.0105 10.9421 28.2486 13.4638 28.7502C15.9856 29.2518 18.5995 28.9944 20.9749 28.0104C23.3503 27.0265 25.3807 25.3603 26.8091 23.2224C28.2376 21.0846 29 18.5712 29 16C28.9964 12.5533 27.6256 9.24882 25.1884 6.81163C22.7512 4.37445 19.4467 3.00364 16 3ZM23.4288 19.1338C23.6195 19.2438 23.7686 19.4137 23.8529 19.6171C23.9373 19.8205 23.9521 20.0461 23.8951 20.2588C23.8381 20.4715 23.7125 20.6594 23.5378 20.7935C23.363 20.9275 23.149 21.0001 22.9288 21C22.7532 21.0005 22.5806 20.9544 22.4288 20.8662L17 17.7325V24C17 24.2652 16.8946 24.5196 16.7071 24.7071C16.5196 24.8946 16.2652 25 16 25C15.7348 25 15.4804 24.8946 15.2929 24.7071C15.1054 24.5196 15 24.2652 15 24V17.7325L9.57126 20.8662C9.34164 20.9985 9.06891 21.0342 8.81297 20.9656C8.55704 20.8969 8.33882 20.7294 8.20626 20.5C8.07349 20.2704 8.03736 19.9975 8.10581 19.7413C8.17426 19.4851 8.34168 19.2665 8.57126 19.1338L14 16L8.57126 12.8663C8.34151 12.7336 8.17386 12.5152 8.10517 12.259C8.07116 12.1321 8.06247 11.9998 8.0796 11.8696C8.09673 11.7393 8.13934 11.6138 8.20501 11.5C8.27067 11.3862 8.35809 11.2865 8.46229 11.2066C8.56648 11.1266 8.68541 11.0679 8.81228 11.0339C9.0685 10.9652 9.34151 11.0011 9.57126 11.1337L15 14.2675V8C15 7.73478 15.1054 7.48043 15.2929 7.29289C15.4804 7.10536 15.7348 7 16 7C16.2652 7 16.5196 7.10536 16.7071 7.29289C16.8946 7.48043 17 7.73478 17 8V14.2675L22.4288 11.1337C22.6585 11.0011 22.9315 10.9652 23.1877 11.0339C23.444 11.1026 23.6624 11.2703 23.795 11.5C23.9276 11.7297 23.9635 12.0028 23.8948 12.259C23.8262 12.5152 23.6585 12.7336 23.4288 12.8663L18 16L23.4288 19.1338Z" fill="white"/>
<path d="M67.2862 22.7712C67.1849 22.9403 67.0513 23.0877 66.8929 23.2051C66.7346 23.3225 66.5547 23.4076 66.3635 23.4554C66.1723 23.5032 65.9736 23.5129 65.7787 23.4839C65.5837 23.4548 65.3964 23.3877 65.2274 23.2862L57.4999 18.6488V27C57.4999 27.3978 57.3419 27.7794 57.0606 28.0607C56.7793 28.342 56.3978 28.5 55.9999 28.5C55.6021 28.5 55.2206 28.342 54.9393 28.0607C54.658 27.7794 54.4999 27.3978 54.4999 27V18.6488L46.7724 23.2862C46.6035 23.3876 46.4163 23.4547 46.2215 23.4837C46.0266 23.5127 45.828 23.5031 45.6369 23.4553C45.4457 23.4076 45.2659 23.3226 45.1076 23.2053C44.9493 23.0881 44.8157 22.9408 44.7143 22.7719C44.5096 22.4307 44.4488 22.0223 44.5453 21.6363C44.6417 21.2503 44.8876 20.9185 45.2287 20.7138L53.0849 16L45.2287 11.2863C44.8876 11.0815 44.6417 10.7497 44.5453 10.3637C44.4488 9.97774 44.5096 9.56926 44.7143 9.22812C44.919 8.88699 45.2509 8.64115 45.6369 8.54469C46.0228 8.44822 46.4313 8.50904 46.7724 8.71375L54.4999 13.3512V5C54.4999 4.60218 54.658 4.22064 54.9393 3.93934C55.2206 3.65804 55.6021 3.5 55.9999 3.5C56.3978 3.5 56.7793 3.65804 57.0606 3.93934C57.3419 4.22064 57.4999 4.60218 57.4999 5V13.3512L65.2274 8.71375C65.3964 8.61239 65.5836 8.54528 65.7784 8.51628C65.9733 8.48727 66.1719 8.49692 66.363 8.54469C66.5542 8.59245 66.734 8.67739 66.8923 8.79465C67.0506 8.91192 67.1842 9.05921 67.2856 9.22812C67.3869 9.39704 67.454 9.58426 67.483 9.77911C67.5121 9.97395 67.5024 10.1726 67.4546 10.3637C67.4069 10.5548 67.3219 10.7347 67.2047 10.893C67.0874 11.0512 66.9401 11.1849 66.7712 11.2863L58.9149 16L66.7712 20.7138C67.1123 20.9183 67.3581 21.25 67.4547 21.6359C67.5513 22.0217 67.4907 22.4301 67.2862 22.7712Z" fill="white"/>
</g>
<defs>
<clipPath id="clip0_27_410">
<rect width="72" height="32" rx="5" fill="white"/>
</clipPath>
</defs>
</svg>
