<svg width="72" height="32" viewBox="0 0 72 32" fill="none" xmlns="http://www.w3.org/2000/svg">
<g clip-path="url(#clip0_27_2049)">
<path d="M24.5148 16C27.5961 11.6737 29.1673 7.2025 26.9823 5.0175C24.7973 2.8325 20.3261 4.40375 15.9998 7.485C11.6736 4.40375 7.20231 2.8325 5.01732 5.0175C2.83232 7.2025 4.40357 11.6737 7.48482 16C4.40357 20.3262 2.83232 24.7975 5.01732 26.9825C5.72107 27.6862 6.66106 28 7.75606 28C10.0648 28 13.0661 26.6037 16.0061 24.515C18.9336 26.6037 21.9336 28 24.2498 28C25.3448 28 26.2861 27.685 26.9886 26.9825C29.1673 24.7975 27.5961 20.3262 24.5148 16ZM25.5686 6.43125C26.5236 7.38625 25.8786 10.4812 23.2536 14.3412C22.4231 13.3132 21.539 12.3298 20.6048 11.395C19.6696 10.4625 18.6862 9.5796 17.6586 8.75C21.5186 6.125 24.6136 5.47625 25.5686 6.43125ZM6.43107 6.43125C6.70607 6.155 7.15981 6.0125 7.75856 6.0125C9.23606 6.0125 11.5948 6.875 14.3398 8.75C13.3129 9.5799 12.3299 10.4628 11.3948 11.395C10.4619 12.3299 9.57904 13.3133 8.74981 14.3412C6.12481 10.4812 5.47607 7.38625 6.43107 6.43125ZM6.43107 25.5687C5.47607 24.6137 6.12481 21.5187 8.74981 17.6587C9.58026 18.6868 10.4644 19.6702 11.3986 20.605C12.3328 21.5371 13.315 22.42 14.3411 23.25C10.4811 25.875 7.38607 26.5237 6.43107 25.5687ZM15.9998 17.5C15.7031 17.5 15.4131 17.412 15.1665 17.2472C14.9198 17.0824 14.7275 16.8481 14.614 16.574C14.5005 16.2999 14.4708 15.9983 14.5286 15.7074C14.5865 15.4164 14.7294 15.1491 14.9392 14.9393C15.1489 14.7296 15.4162 14.5867 15.7072 14.5288C15.9982 14.4709 16.2998 14.5006 16.5738 14.6142C16.8479 14.7277 17.0822 14.92 17.247 15.1666C17.4118 15.4133 17.4998 15.7033 17.4998 16C17.4998 16.3978 17.3418 16.7794 17.0605 17.0607C16.7792 17.342 16.3976 17.5 15.9998 17.5ZM25.5686 25.57C24.6136 26.5262 21.5186 25.88 17.6586 23.255C18.686 22.4239 19.6694 21.5398 20.6048 20.6062C21.5377 19.671 22.4206 18.6871 23.2498 17.6587C25.8748 21.5187 26.5236 24.6137 25.5686 25.5687V25.57Z" fill="white"/>
<path d="M67.4039 19.9C66.7748 18.5339 66.0216 17.2284 65.1539 16C66.0216 14.7716 66.7748 13.4661 67.4039 12.1C68.8839 8.81125 68.8652 6.165 67.3502 4.65C65.8352 3.135 63.1889 3.11625 59.9002 4.59625C58.5341 5.22536 57.2286 5.97852 56.0002 6.84625C54.7717 5.97852 53.4663 5.22536 52.1002 4.59625C48.8114 3.11625 46.1652 3.135 44.6502 4.65C43.1352 6.165 43.1164 8.81125 44.5964 12.1C45.2255 13.4661 45.9787 14.7716 46.8464 16C45.9787 17.2284 45.2255 18.5339 44.5964 19.9C43.1164 23.1887 43.1352 25.835 44.6502 27.35C45.4164 28.1162 46.4727 28.5 47.7502 28.5C49.0002 28.5 50.4714 28.135 52.0952 27.4037C53.4613 26.7746 54.7667 26.0215 55.9952 25.1537C57.2236 26.0215 58.5291 26.7746 59.8952 27.4037C61.5202 28.135 62.9877 28.5 64.2402 28.5C65.5227 28.5 66.5789 28.1162 67.3452 27.35C68.8652 25.835 68.8839 23.1887 67.4039 19.9ZM65.2277 6.775C65.8839 7.4325 65.4514 10.025 63.2277 13.4975C62.5264 12.665 61.7714 11.8412 60.9689 11.0387C60.1664 10.2362 59.3377 9.47875 58.5002 8.7775C61.9777 6.54875 64.5702 6.11625 65.2277 6.7725V6.775ZM61.4052 16C60.6015 16.9918 59.7457 17.9402 58.8414 18.8412C57.9404 19.7455 56.9919 20.6013 56.0002 21.405C55.0084 20.6013 54.06 19.7455 53.1589 18.8412C52.2547 17.9402 51.3989 16.9918 50.5952 16C52.2071 14.0181 54.0182 12.2069 56.0002 10.595C56.9922 11.3984 57.9406 12.2542 58.8414 13.1587C59.746 14.0595 60.6018 15.0079 61.4052 16ZM46.7727 6.7725C46.9552 6.59125 47.2852 6.4925 47.7414 6.4925C48.9327 6.4925 50.9839 7.16625 53.4914 8.7775C52.6589 9.47875 51.8352 10.2337 51.0327 11.0362C50.2302 11.8387 49.4789 12.6625 48.7777 13.5C46.5489 10.0225 46.1164 7.43 46.7727 6.7725ZM46.7727 25.2275C46.1164 24.57 46.5489 21.9775 48.7727 18.505C49.4739 19.3375 50.2289 20.1612 51.0314 20.9637C51.8339 21.7662 52.6564 22.5212 53.4902 23.2225C50.0227 25.4512 47.4302 25.8837 46.7727 25.2275ZM65.2277 25.2275C64.5702 25.8837 61.9777 25.4512 58.5052 23.2275C59.3377 22.5262 60.1614 21.7712 60.9639 20.9687C61.7664 20.1662 62.5214 19.3437 63.2227 18.51C65.4514 21.9775 65.8839 24.57 65.2277 25.2275ZM58.0002 16C58.0002 16.3956 57.8829 16.7822 57.6631 17.1111C57.4433 17.44 57.131 17.6964 56.7655 17.8478C56.4001 17.9991 55.9979 18.0387 55.61 17.9616C55.222 17.8844 54.8657 17.6939 54.586 17.4142C54.3062 17.1345 54.1158 16.7781 54.0386 16.3902C53.9614 16.0022 54.001 15.6001 54.1524 15.2346C54.3038 14.8692 54.5601 14.5568 54.889 14.3371C55.2179 14.1173 55.6046 14 56.0002 14C56.5306 14 57.0393 14.2107 57.4144 14.5858C57.7894 14.9609 58.0002 15.4696 58.0002 16Z" fill="white"/>
</g>
<defs>
<clipPath id="clip0_27_2049">
<rect width="72" height="32" rx="5" fill="white"/>
</clipPath>
</defs>
</svg>
