<svg width="72" height="32" viewBox="0 0 72 32" fill="none" xmlns="http://www.w3.org/2000/svg">
<g clip-path="url(#clip0_27_776)">
<path d="M26.3751 16.3325L22.6501 5.80875C22.1935 4.421 21.3141 3.2109 20.1352 2.34802C18.9563 1.48515 17.537 1.01276 16.0761 0.997048C14.6152 0.981337 13.1861 1.42309 11.9889 2.26041C10.7917 3.09773 9.88648 4.28864 9.40011 5.66625L5.71136 16.1038C5.08602 17.7589 4.8692 19.5406 5.07928 21.2974C5.28936 23.0543 5.92015 24.7346 6.91812 26.1957C7.91609 27.6567 9.2518 28.8555 10.8119 29.6903C12.372 30.525 14.1104 30.9711 15.8797 30.9907C17.649 31.0103 19.3969 30.6028 20.9751 29.8028C22.5533 29.0028 23.9152 27.8338 24.9452 26.3952C25.9753 24.9566 26.6431 23.2907 26.8921 21.5389C27.141 19.7871 26.9637 18.0011 26.3751 16.3325ZM16.0001 25C15.0112 25 14.0445 24.7068 13.2223 24.1574C12.4 23.6079 11.7592 22.8271 11.3807 21.9134C11.0023 20.9998 10.9033 19.9945 11.0962 19.0246C11.2891 18.0546 11.7653 17.1637 12.4646 16.4645C13.1638 15.7652 14.0548 15.289 15.0247 15.0961C15.9946 14.9032 16.9999 15.0022 17.9135 15.3806C18.8272 15.759 19.6081 16.3999 20.1575 17.2222C20.7069 18.0444 21.0001 19.0111 21.0001 20C21.0001 21.3261 20.4733 22.5979 19.5356 23.5355C18.598 24.4732 17.3262 25 16.0001 25Z" fill="white"/>
<path d="M55.9999 13.5C54.7143 13.5 53.4576 13.8812 52.3887 14.5954C51.3198 15.3097 50.4867 16.3248 49.9947 17.5126C49.5027 18.7003 49.374 20.0072 49.6248 21.2681C49.8756 22.529 50.4947 23.6872 51.4037 24.5962C52.3128 25.5052 53.471 26.1243 54.7318 26.3751C55.9927 26.6259 57.2996 26.4972 58.4874 26.0052C59.6751 25.5132 60.6902 24.6801 61.4045 23.6112C62.1187 22.5423 62.4999 21.2856 62.4999 20C62.4979 18.2767 61.8125 16.6246 60.5939 15.406C59.3754 14.1874 57.7232 13.502 55.9999 13.5ZM55.9999 23.5C55.3077 23.5 54.631 23.2947 54.0554 22.9101C53.4799 22.5256 53.0313 21.9789 52.7663 21.3394C52.5014 20.6999 52.4321 19.9961 52.5672 19.3172C52.7022 18.6383 53.0356 18.0146 53.5251 17.5251C54.0145 17.0356 54.6382 16.7023 55.3171 16.5673C55.996 16.4322 56.6998 16.5015 57.3393 16.7664C57.9789 17.0313 58.5255 17.4799 58.9101 18.0555C59.2947 18.6311 59.4999 19.3078 59.4999 20C59.4999 20.9283 59.1312 21.8185 58.4748 22.4749C57.8184 23.1313 56.9282 23.5 55.9999 23.5ZM66.8449 16.165L63.1249 5.64625C62.6352 4.15924 61.6925 2.86275 60.4288 1.93853C59.1652 1.01431 57.644 0.508697 56.0785 0.49257C54.513 0.476444 52.9817 0.950614 51.6993 1.84861C50.4169 2.7466 49.4476 4.0234 48.9274 5.5L45.2399 15.9325C44.5872 17.6631 44.3615 19.5255 44.582 21.3619C44.8025 23.1983 45.4627 24.9544 46.5066 26.4813C47.5504 28.0081 48.9472 29.2607 50.5783 30.1327C52.2094 31.0047 54.0268 31.4704 55.8763 31.4903C57.7257 31.5102 59.5527 31.0837 61.2022 30.247C62.8517 29.4103 64.2751 28.1881 65.3516 26.6841C66.428 25.18 67.1259 23.4385 67.3858 21.6073C67.6458 19.7761 67.4603 17.9092 66.8449 16.165ZM55.9999 28.5C54.6237 28.499 53.2682 28.1641 52.0499 27.524C50.8315 26.8839 49.7867 25.9577 49.005 24.825C48.2234 23.6923 47.7282 22.3868 47.5621 21.0206C47.3959 19.6544 47.5638 18.2683 48.0512 16.9813C48.0512 16.97 48.0599 16.9588 48.0637 16.9488L51.7562 6.5C52.0687 5.61337 52.6511 4.84689 53.4215 4.30815C54.1919 3.76942 55.1117 3.4855 56.0517 3.49626C56.9918 3.50701 57.9048 3.81191 58.6627 4.36812C59.4206 4.92434 59.9853 5.70395 60.2774 6.5975L60.2887 6.63125L64.0162 17.1663C64.4696 18.4485 64.6087 19.8209 64.4218 21.1681C64.2349 22.5153 63.7274 23.7979 62.9421 24.9083C62.1567 26.0187 61.1163 26.9245 59.9083 27.5494C58.7003 28.1744 57.36 28.5004 55.9999 28.5Z" fill="white"/>
</g>
<defs>
<clipPath id="clip0_27_776">
<rect width="72" height="32" rx="5" fill="white"/>
</clipPath>
</defs>
</svg>
