<svg width="72" height="32" viewBox="0 0 72 32" fill="none" xmlns="http://www.w3.org/2000/svg">
<g clip-path="url(#clip0_27_786)">
<path d="M26.9475 6.81875C26.8992 6.75932 26.8438 6.70601 26.7825 6.66C24.9387 4.94861 22.5156 3.99831 20 4H19C18.4696 4 17.9609 4.21072 17.5858 4.58579C17.2107 4.96086 17 5.46957 17 6V13H6.9C6.66795 11.8714 6.05387 10.8573 5.1613 10.1287C4.26872 9.40003 3.15222 9.00141 2 9C1.73478 9 1.48043 9.10536 1.29289 9.2929C1.10536 9.48043 1 9.73479 1 10C1 10.2652 1.10536 10.5196 1.29289 10.7071C1.48043 10.8946 1.73478 11 2 11C2.79565 11 3.55871 11.3161 4.12132 11.8787C4.68393 12.4413 5 13.2044 5 14C5.00298 16.6513 6.0575 19.1931 7.93222 21.0678C9.80694 22.9425 12.3487 23.997 15 24H20C21.9919 24.0014 23.9387 23.4074 25.5906 22.2944C27.2424 21.1814 28.524 19.6001 29.2707 17.7535C30.0174 15.9069 30.1952 13.8792 29.7812 11.9308C29.3673 9.98247 28.3805 8.20226 26.9475 6.81875ZM26.0837 8.81875C27.0962 10.0016 27.7398 11.4553 27.935 13H20.8512L26.0837 8.81875ZM20 6C21.6419 5.99846 23.2441 6.50543 24.5863 7.45125L19 11.9188V6H20ZM13 28C13 28.3956 12.8827 28.7822 12.6629 29.1111C12.4432 29.44 12.1308 29.6964 11.7654 29.8478C11.3999 29.9991 10.9978 30.0387 10.6098 29.9616C10.2219 29.8844 9.86549 29.6939 9.58579 29.4142C9.30608 29.1345 9.1156 28.7781 9.03843 28.3902C8.96126 28.0022 9.00087 27.6001 9.15224 27.2346C9.30362 26.8692 9.55996 26.5568 9.88886 26.3371C10.2178 26.1173 10.6044 26 11 26C11.5304 26 12.0391 26.2107 12.4142 26.5858C12.7893 26.9609 13 27.4696 13 28ZM26 28C26 28.3956 25.8827 28.7822 25.6629 29.1111C25.4432 29.44 25.1308 29.6964 24.7654 29.8478C24.3999 29.9991 23.9978 30.0387 23.6098 29.9616C23.2219 29.8844 22.8655 29.6939 22.5858 29.4142C22.3061 29.1345 22.1156 28.7781 22.0384 28.3902C21.9613 28.0022 22.0009 27.6001 22.1522 27.2346C22.3036 26.8692 22.56 26.5568 22.8889 26.3371C23.2178 26.1173 23.6044 26 24 26C24.5304 26 25.0391 26.2107 25.4142 26.5858C25.7893 26.9609 26 27.4696 26 28Z" fill="white"/>
<path d="M60 3.5H59C58.337 3.5 57.7011 3.76339 57.2322 4.23223C56.7634 4.70107 56.5 5.33696 56.5 6V12.5H47.27C46.9496 11.4857 46.3146 10.5997 45.457 9.97047C44.5994 9.3412 43.5637 9.0013 42.5 9C42.1022 9 41.7206 9.15804 41.4393 9.43934C41.158 9.72064 41 10.1022 41 10.5C41 10.8978 41.158 11.2794 41.4393 11.5607C41.7206 11.842 42.1022 12 42.5 12C43.0304 12 43.5391 12.2107 43.9142 12.5858C44.2893 12.9609 44.5 13.4696 44.5 14C44.503 16.7839 45.6102 19.4528 47.5787 21.4213C49.5472 23.3898 52.2161 24.497 55 24.5H60C62.7848 24.5 65.4555 23.3938 67.4246 21.4246C69.3938 19.4555 70.5 16.7848 70.5 14C70.5 11.2152 69.3938 8.54451 67.4246 6.57538C65.4555 4.60625 62.7848 3.5 60 3.5ZM66.0075 9.515C66.6704 10.3983 67.1285 11.4179 67.3487 12.5H62.2763L66.0075 9.515ZM60 6.5C61.3091 6.50027 62.5952 6.84516 63.7288 7.5L59.5 10.875V6.5H60ZM60 21.5H55C53.2719 21.4977 51.5973 20.8997 50.2587 19.8068C48.9201 18.7138 47.9992 17.1928 47.6512 15.5H67.3487C67.0008 17.1928 66.0799 18.7138 64.7413 19.8068C63.4027 20.8997 61.7281 21.4977 60 21.5ZM53.5 28C53.5 28.4945 53.3534 28.9778 53.0787 29.3889C52.804 29.8 52.4135 30.1205 51.9567 30.3097C51.4999 30.4989 50.9972 30.5484 50.5123 30.452C50.0273 30.3555 49.5819 30.1174 49.2322 29.7678C48.8826 29.4181 48.6445 28.9727 48.548 28.4877C48.4516 28.0028 48.5011 27.5001 48.6903 27.0433C48.8795 26.5865 49.2 26.196 49.6111 25.9213C50.0222 25.6466 50.5055 25.5 51 25.5C51.663 25.5 52.2989 25.7634 52.7678 26.2322C53.2366 26.7011 53.5 27.337 53.5 28ZM66.5 28C66.5 28.4945 66.3534 28.9778 66.0787 29.3889C65.804 29.8 65.4135 30.1205 64.9567 30.3097C64.4999 30.4989 63.9972 30.5484 63.5123 30.452C63.0273 30.3555 62.5819 30.1174 62.2322 29.7678C61.8826 29.4181 61.6445 28.9727 61.548 28.4877C61.4516 28.0028 61.5011 27.5001 61.6903 27.0433C61.8795 26.5865 62.2 26.196 62.6111 25.9213C63.0222 25.6466 63.5055 25.5 64 25.5C64.663 25.5 65.2989 25.7634 65.7678 26.2322C66.2366 26.7011 66.5 27.337 66.5 28Z" fill="white"/>
</g>
<defs>
<clipPath id="clip0_27_786">
<rect width="72" height="32" rx="5" fill="white"/>
</clipPath>
</defs>
</svg>
