<svg width="72" height="32" viewBox="0 0 72 32" fill="none" xmlns="http://www.w3.org/2000/svg">
<g clip-path="url(#clip0_27_3132)">
<path d="M16.7699 3.01249C16.6824 3.00791 16.5952 3.0264 16.5171 3.06611C16.439 3.10582 16.3727 3.16535 16.3249 3.23874C15.0374 5.18499 14.9999 6.97374 14.9999 6.99999C15.0005 7.14881 15.0343 7.29562 15.0988 7.42971C15.1634 7.56381 15.257 7.6818 15.3729 7.7751C15.4889 7.8684 15.6242 7.93465 15.769 7.96902C15.9138 8.00338 16.0644 8.005 16.2099 7.97374C16.437 7.91935 16.6389 7.7894 16.7824 7.6052C16.9259 7.42101 17.0026 7.1935 16.9999 6.95999C17.0047 6.82321 17.0375 6.68887 17.0963 6.56528C17.1551 6.44169 17.2386 6.33149 17.3418 6.2415C17.4449 6.1515 17.5654 6.08363 17.6958 6.04209C17.8262 6.00055 17.9637 5.98622 18.0999 5.99999C18.3509 6.02913 18.582 6.15059 18.7484 6.34074C18.9147 6.5309 19.0044 6.77614 18.9999 7.02874C18.9954 7.82439 18.6751 8.58568 18.1093 9.14512C17.5435 9.70457 16.7787 10.0163 15.983 10.0119C15.1874 10.0074 14.4261 9.68703 13.8666 9.12126C13.3072 8.55548 12.9954 7.79064 12.9999 6.99499C12.9999 6.91624 13.0111 5.64749 13.6799 3.99499C13.7138 3.91043 13.7239 3.81823 13.7092 3.72833C13.6945 3.63843 13.6555 3.55427 13.5964 3.48491C13.5374 3.41556 13.4605 3.36366 13.3741 3.33481C13.2877 3.30597 13.195 3.30128 13.1061 3.32124C10.1597 3.99805 7.54065 5.67908 5.69824 8.07595C3.85583 10.4728 2.90492 13.4361 3.00865 16.4575C3.2499 23.34 8.90365 28.875 15.7899 28.9875C19.1869 29.0395 22.4693 27.7597 24.9345 25.4219C27.3996 23.0841 28.8517 19.8741 28.9798 16.4791C29.1078 13.0842 27.9018 9.77392 25.6198 7.25703C23.3378 4.74013 20.1612 3.21657 16.7699 3.01249ZM9.9999 15.9887C9.9999 15.6921 10.0879 15.4021 10.2527 15.1554C10.4175 14.9087 10.6518 14.7165 10.9259 14.6029C11.2 14.4894 11.5016 14.4597 11.7925 14.5176C12.0835 14.5754 12.3508 14.7183 12.5606 14.9281C12.7703 15.1379 12.9132 15.4051 12.9711 15.6961C13.029 15.9871 12.9992 16.2887 12.8857 16.5628C12.7722 16.8369 12.5799 17.0711 12.3333 17.2359C12.0866 17.4008 11.7966 17.4887 11.4999 17.4887C11.1021 17.4887 10.7205 17.3307 10.4392 17.0494C10.1579 16.7681 9.9999 16.3866 9.9999 15.9887ZM20.0336 22.835C18.8235 23.5894 17.426 23.9893 15.9999 23.9893C14.5738 23.9893 13.1763 23.5894 11.9661 22.835C11.7417 22.6934 11.5827 22.4685 11.5241 22.2097C11.4655 21.9509 11.5121 21.6794 11.6536 21.455C11.7952 21.2306 12.0201 21.0715 12.2789 21.0129C12.5377 20.9543 12.8092 21.0009 13.0336 21.1425C13.9243 21.6953 14.9517 21.9882 15.9999 21.9882C17.0481 21.9882 18.0755 21.6953 18.9661 21.1425C19.0773 21.0724 19.2011 21.0249 19.3306 21.0027C19.4601 20.9804 19.5927 20.9839 19.7209 21.0129C19.849 21.042 19.9702 21.0959 20.0775 21.1718C20.1848 21.2476 20.2761 21.3439 20.3461 21.455C20.4162 21.5661 20.4638 21.69 20.486 21.8195C20.5082 21.949 20.5047 22.0816 20.4757 22.2097C20.4467 22.3379 20.3927 22.459 20.3169 22.5663C20.241 22.6736 20.1448 22.7649 20.0336 22.835ZM20.4999 17.4887C20.2032 17.4887 19.9132 17.4008 19.6665 17.2359C19.4199 17.0711 19.2276 16.8369 19.1141 16.5628C19.0005 16.2887 18.9708 15.9871 19.0287 15.6961C19.0866 15.4051 19.2295 15.1379 19.4392 14.9281C19.649 14.7183 19.9163 14.5754 20.2073 14.5176C20.4982 14.4597 20.7998 14.4894 21.0739 14.6029C21.348 14.7165 21.5823 14.9087 21.7471 15.1554C21.9119 15.4021 21.9999 15.6921 21.9999 15.9887C21.9999 16.3866 21.8419 16.7681 21.5606 17.0494C21.2793 17.3307 20.8977 17.4887 20.4999 17.4887Z" fill="white"/>
<path d="M51.5 18C51.1044 18 50.7178 17.8827 50.3889 17.6629C50.06 17.4432 49.8036 17.1308 49.6522 16.7654C49.5009 16.3999 49.4613 15.9978 49.5384 15.6098C49.6156 15.2219 49.8061 14.8655 50.0858 14.5858C50.3655 14.3061 50.7219 14.1156 51.1098 14.0384C51.4978 13.9613 51.8999 14.0009 52.2654 14.1522C52.6308 14.3036 52.9432 14.56 53.1629 14.8889C53.3827 15.2178 53.5 15.6044 53.5 16C53.5 16.5304 53.2893 17.0391 52.9142 17.4142C52.5391 17.7893 52.0304 18 51.5 18ZM60.5 14C60.1044 14 59.7178 14.1173 59.3889 14.3371C59.06 14.5568 58.8036 14.8692 58.6522 15.2346C58.5009 15.6001 58.4613 16.0022 58.5384 16.3902C58.6156 16.7781 58.8061 17.1345 59.0858 17.4142C59.3655 17.6939 59.7219 17.8844 60.1098 17.9616C60.4978 18.0387 60.8999 17.9991 61.2654 17.8478C61.6308 17.6964 61.9432 17.44 62.1629 17.1111C62.3827 16.7822 62.5 16.3956 62.5 16C62.5 15.4696 62.2893 14.9609 61.9142 14.5858C61.5391 14.2107 61.0304 14 60.5 14ZM58.7 20.2313C57.8891 20.7339 56.954 21.0001 56 21.0001C55.046 21.0001 54.1109 20.7339 53.3 20.2313C53.1334 20.1236 52.9471 20.0501 52.7518 20.0149C52.5566 19.9798 52.3563 19.9837 52.1626 20.0265C51.9689 20.0692 51.7856 20.15 51.6233 20.2641C51.461 20.3782 51.323 20.5233 51.2172 20.6911C51.1114 20.8589 51.0399 21.0461 51.0069 21.2417C50.9739 21.4373 50.98 21.6375 51.025 21.8307C51.0699 22.0239 51.1526 22.2063 51.2685 22.3674C51.3844 22.5284 51.531 22.6648 51.7 22.7687C52.9899 23.5733 54.4797 23.9999 56 23.9999C57.5203 23.9999 59.0101 23.5733 60.3 22.7687C60.469 22.6648 60.6156 22.5284 60.7315 22.3674C60.8474 22.2063 60.9302 22.0239 60.9751 21.8307C61.02 21.6375 61.0261 21.4373 60.9931 21.2417C60.9601 21.0461 60.8886 20.8589 60.7828 20.6911C60.677 20.5233 60.539 20.3782 60.3767 20.2641C60.2144 20.15 60.0311 20.0692 59.8374 20.0265C59.6437 19.9837 59.4434 19.9798 59.2482 20.0149C59.053 20.0501 58.8666 20.1236 58.7 20.2313ZM69.5 16C69.5 18.67 68.7082 21.2801 67.2248 23.5002C65.7414 25.7203 63.633 27.4506 61.1662 28.4724C58.6994 29.4942 55.985 29.7615 53.3663 29.2406C50.7475 28.7197 48.3421 27.434 46.4541 25.5459C44.5661 23.6579 43.2803 21.2525 42.7594 18.6337C42.2385 16.015 42.5058 13.3006 43.5276 10.8338C44.5494 8.36697 46.2797 6.25856 48.4998 4.77516C50.7199 3.29176 53.33 2.5 56 2.5C59.5792 2.50397 63.0107 3.92756 65.5416 6.45844C68.0724 8.98932 69.496 12.4208 69.5 16ZM66.5 16C66.4966 13.2599 65.4232 10.6294 63.5085 8.66918C61.5938 6.70897 58.9893 5.57403 56.25 5.50625C55.0675 7.28125 55 8.91625 55 9.00625C55.0008 9.27147 55.107 9.52549 55.2951 9.71244C55.3883 9.80501 55.4987 9.87832 55.6202 9.9282C55.7417 9.97808 55.8718 10.0035 56.0031 10.0031C56.1345 10.0027 56.2644 9.97644 56.3856 9.92581C56.5067 9.87517 56.6168 9.80117 56.7093 9.70802C56.8019 9.61487 56.8752 9.5044 56.9251 9.38292C56.975 9.26144 57.0004 9.13132 57 9C57 8.60218 57.158 8.22064 57.4393 7.93934C57.7207 7.65804 58.1022 7.5 58.5 7.5C58.8978 7.5 59.2794 7.65804 59.5607 7.93934C59.842 8.22064 60 8.60218 60 9C60 10.0609 59.5786 11.0783 58.8284 11.8284C58.0783 12.5786 57.0609 13 56 13C54.9391 13 53.9217 12.5786 53.1716 11.8284C52.4214 11.0783 52 10.0609 52 9C52 8.92125 52.0125 7.69 52.625 6.06C50.7967 6.68059 49.175 7.79326 47.938 9.27568C46.701 10.7581 45.8967 12.5529 45.6136 14.4627C45.3304 16.3726 45.5793 18.3235 46.3329 20.1011C47.0864 21.8787 48.3156 23.4141 49.8851 24.5385C51.4546 25.6629 53.3038 26.3328 55.2293 26.4745C57.1548 26.6162 59.0821 26.2243 60.7993 25.3418C62.5166 24.4593 63.9572 23.1204 64.963 21.4723C65.9687 19.8242 66.5005 17.9307 66.5 16Z" fill="white"/>
</g>
<defs>
<clipPath id="clip0_27_3132">
<rect width="72" height="32" rx="5" fill="white"/>
</clipPath>
</defs>
</svg>
