<svg width="72" height="32" viewBox="0 0 72 32" fill="none" xmlns="http://www.w3.org/2000/svg">
<g clip-path="url(#clip0_27_2355)">
<path d="M26.9998 5H8.56607C8.22096 5.00148 7.88202 5.09156 7.58172 5.26163C7.28142 5.4317 7.02983 5.67604 6.85107 5.97125L1.14232 15.485C1.04888 15.6405 0.999512 15.8186 0.999512 16C0.999512 16.1814 1.04888 16.3595 1.14232 16.515L6.85107 26.0287C7.02974 26.324 7.28131 26.5685 7.58163 26.7385C7.88195 26.9086 8.22094 26.9986 8.56607 27H26.9998C27.5303 27 28.039 26.7893 28.414 26.4142C28.7891 26.0391 28.9998 25.5304 28.9998 25V7C28.9998 6.46957 28.7891 5.96086 28.414 5.58579C28.039 5.21071 27.5303 5 26.9998 5ZM20.7073 18.2925C20.8002 18.3854 20.8739 18.4957 20.9242 18.6171C20.9745 18.7385 21.0004 18.8686 21.0004 19C21.0004 19.1314 20.9745 19.2615 20.9242 19.3829C20.8739 19.5043 20.8002 19.6146 20.7073 19.7075C20.6144 19.8004 20.5041 19.8741 20.3827 19.9244C20.2613 19.9747 20.1312 20.0006 19.9998 20.0006C19.8684 20.0006 19.7383 19.9747 19.6169 19.9244C19.4955 19.8741 19.3852 19.8004 19.2923 19.7075L16.9998 17.4137L14.7061 19.7075C14.5184 19.895 14.264 20.0002 13.9988 20.0001C13.7335 20 13.4792 19.8945 13.2917 19.7069C13.1042 19.5192 12.999 19.2648 12.9991 18.9996C12.9992 18.7343 13.1047 18.48 13.2923 18.2925L15.5861 16L13.2923 13.7075C13.1047 13.52 12.9992 13.2657 12.9991 13.0004C12.999 12.8691 13.0248 12.739 13.075 12.6177C13.1252 12.4963 13.1989 12.386 13.2917 12.2931C13.3845 12.2002 13.4947 12.1265 13.6161 12.0762C13.7374 12.0259 13.8674 11.9999 13.9988 11.9999C14.264 11.9998 14.5184 12.105 14.7061 12.2925L16.9998 14.5863L19.2923 12.2925C19.3852 12.1996 19.4955 12.1259 19.6169 12.0756C19.7383 12.0253 19.8684 11.9994 19.9998 11.9994C20.1312 11.9994 20.2613 12.0253 20.3827 12.0756C20.5041 12.1259 20.6144 12.1996 20.7073 12.2925C20.8002 12.3854 20.8739 12.4957 20.9242 12.6171C20.9745 12.7385 21.0004 12.8686 21.0004 13C21.0004 13.1314 20.9745 13.2615 20.9242 13.3829C20.8739 13.5043 20.8002 13.6146 20.7073 13.7075L18.4136 16L20.7073 18.2925Z" fill="white"/>
<path d="M67.0002 4.5H48.5665C48.135 4.50109 47.711 4.61335 47.3355 4.82594C46.96 5.03854 46.6456 5.34431 46.4227 5.71375L40.714 15.2288C40.5743 15.4618 40.5005 15.7283 40.5005 16C40.5005 16.2717 40.5743 16.5382 40.714 16.7712L46.4227 26.2862C46.6456 26.6557 46.96 26.9615 47.3355 27.1741C47.711 27.3867 48.135 27.4989 48.5665 27.5H67.0002C67.6632 27.5 68.2991 27.2366 68.768 26.7678C69.2368 26.2989 69.5002 25.663 69.5002 25V7C69.5002 6.33696 69.2368 5.70107 68.768 5.23223C68.2991 4.76339 67.6632 4.5 67.0002 4.5ZM66.5002 24.5H48.8502L43.7502 16L48.8502 7.5H66.5002V24.5ZM52.939 17.9387L54.8752 16L52.9352 14.0612C52.6534 13.7795 52.4951 13.3973 52.4951 12.9987C52.4951 12.6002 52.6534 12.218 52.9352 11.9362C53.217 11.6545 53.5992 11.4961 53.9977 11.4961C54.3962 11.4961 54.7784 11.6545 55.0602 11.9362L57.0002 13.875L58.939 11.935C59.2207 11.6532 59.6029 11.4949 60.0015 11.4949C60.4 11.4949 60.7822 11.6532 61.064 11.935C61.3457 12.2168 61.5041 12.599 61.5041 12.9975C61.5041 13.396 61.3457 13.7782 61.064 14.06L59.1252 16L61.0652 17.9387C61.347 18.2205 61.5053 18.6027 61.5053 19.0012C61.5053 19.3998 61.347 19.782 61.0652 20.0637C60.7834 20.3455 60.4012 20.5039 60.0027 20.5039C59.6042 20.5039 59.222 20.3455 58.9402 20.0637L57.0002 18.125L55.0615 20.065C54.7797 20.3468 54.3975 20.5051 53.999 20.5051C53.6004 20.5051 53.2182 20.3468 52.9365 20.065C52.6547 19.7832 52.4964 19.401 52.4964 19.0025C52.4964 18.604 52.6547 18.2218 52.9365 17.94L52.939 17.9387Z" fill="white"/>
</g>
<defs>
<clipPath id="clip0_27_2355">
<rect width="72" height="32" rx="5" fill="white"/>
</clipPath>
</defs>
</svg>
