<svg width="72" height="32" viewBox="0 0 72 32" fill="none" xmlns="http://www.w3.org/2000/svg">
<g clip-path="url(#clip0_27_791)">
<path d="M21 5.0725V4C21 3.20435 20.6839 2.44129 20.1213 1.87868C19.5587 1.31607 18.7956 1 18 1H14C13.2044 1 12.4413 1.31607 11.8787 1.87868C11.3161 2.44129 11 3.20435 11 4V5.0725C9.3351 5.31517 7.81298 6.14844 6.71147 7.42023C5.60995 8.69202 5.00251 10.3175 5 12V27C5 27.5304 5.21071 28.0391 5.58579 28.4142C5.96086 28.7893 6.46957 29 7 29H25C25.5304 29 26.0391 28.7893 26.4142 28.4142C26.7893 28.0391 27 27.5304 27 27V12C26.9975 10.3175 26.39 8.69202 25.2885 7.42023C24.187 6.14844 22.6649 5.31517 21 5.0725ZM13 4C13 3.73478 13.1054 3.48043 13.2929 3.29289C13.4804 3.10536 13.7348 3 14 3H18C18.2652 3 18.5196 3.10536 18.7071 3.29289C18.8946 3.48043 19 3.73478 19 4V5H13V4ZM14 9H18C18.2652 9 18.5196 9.10536 18.7071 9.29289C18.8946 9.48043 19 9.73478 19 10C19 10.2652 18.8946 10.5196 18.7071 10.7071C18.5196 10.8946 18.2652 11 18 11H14C13.7348 11 13.4804 10.8946 13.2929 10.7071C13.1054 10.5196 13 10.2652 13 10C13 9.73478 13.1054 9.48043 13.2929 9.29289C13.4804 9.10536 13.7348 9 14 9ZM22 27H10V22H17V23C17 23.2652 17.1054 23.5196 17.2929 23.7071C17.4804 23.8946 17.7348 24 18 24C18.2652 24 18.5196 23.8946 18.7071 23.7071C18.8946 23.5196 19 23.2652 19 23V22H22V27ZM22 20H10V19C10 18.4696 10.2107 17.9609 10.5858 17.5858C10.9609 17.2107 11.4696 17 12 17H20C20.5304 17 21.0391 17.2107 21.4142 17.5858C21.7893 17.9609 22 18.4696 22 19V20Z" fill="white"/>
<path d="M61.5 6.06875V4.5C61.5 3.57174 61.1313 2.6815 60.4749 2.02513C59.8185 1.36875 58.9283 1 58 1H54C53.0717 1 52.1815 1.36875 51.5251 2.02513C50.8687 2.6815 50.5 3.57174 50.5 4.5V6.06875C48.7015 6.31284 47.0522 7.20002 45.8573 8.56616C44.6623 9.93231 44.0025 11.685 44 13.5V27.5C44 28.163 44.2634 28.7989 44.7322 29.2678C45.2011 29.7366 45.837 30 46.5 30H65.5C66.163 30 66.7989 29.7366 67.2678 29.2678C67.7366 28.7989 68 28.163 68 27.5V13.5C67.9975 11.685 67.3377 9.93231 66.1427 8.56616C64.9478 7.20002 63.2985 6.31284 61.5 6.06875ZM54 4H58C58.1326 4 58.2598 4.05268 58.3536 4.14645C58.4473 4.24021 58.5 4.36739 58.5 4.5V6H53.5V4.5C53.5 4.36739 53.5527 4.24021 53.6464 4.14645C53.7402 4.05268 53.8674 4 54 4ZM60 20H52V19C52 18.8674 52.0527 18.7402 52.1464 18.6464C52.2402 18.5527 52.3674 18.5 52.5 18.5H59.5C59.6326 18.5 59.7598 18.5527 59.8536 18.6464C59.9473 18.7402 60 18.8674 60 19V20ZM52 23H60V27H52V23ZM65 27H63V19C63 18.0717 62.6313 17.1815 61.9749 16.5251C61.3185 15.8687 60.4283 15.5 59.5 15.5H52.5C51.5717 15.5 50.6815 15.8687 50.0251 16.5251C49.3687 17.1815 49 18.0717 49 19V27H47V13.5C47 12.3065 47.4741 11.1619 48.318 10.318C49.1619 9.47411 50.3065 9 51.5 9H60.5C61.6935 9 62.8381 9.47411 63.682 10.318C64.5259 11.1619 65 12.3065 65 13.5V27ZM60 12.5C60 12.8978 59.842 13.2794 59.5607 13.5607C59.2794 13.842 58.8978 14 58.5 14H53.5C53.1022 14 52.7206 13.842 52.4393 13.5607C52.158 13.2794 52 12.8978 52 12.5C52 12.1022 52.158 11.7206 52.4393 11.4393C52.7206 11.158 53.1022 11 53.5 11H58.5C58.8978 11 59.2794 11.158 59.5607 11.4393C59.842 11.7206 60 12.1022 60 12.5Z" fill="white"/>
</g>
<defs>
<clipPath id="clip0_27_791">
<rect width="72" height="32" rx="5" fill="white"/>
</clipPath>
</defs>
</svg>
