<svg width="72" height="32" viewBox="0 0 72 32" fill="none" xmlns="http://www.w3.org/2000/svg">
<g clip-path="url(#clip0_27_796)">
<path d="M27 8H22C22 6.4087 21.3679 4.88258 20.2426 3.75736C19.1174 2.63214 17.5913 2 16 2C14.4087 2 12.8826 2.63214 11.7574 3.75736C10.6321 4.88258 10 6.4087 10 8H5C4.46957 8 3.96086 8.21071 3.58579 8.58579C3.21071 8.96086 3 9.46957 3 10V25C3 25.5304 3.21071 26.0391 3.58579 26.4142C3.96086 26.7893 4.46957 27 5 27H27C27.5304 27 28.0391 26.7893 28.4142 26.4142C28.7893 26.0391 29 25.5304 29 25V10C29 9.46957 28.7893 8.96086 28.4142 8.58579C28.0391 8.21071 27.5304 8 27 8ZM12 13C12 13.2652 11.8946 13.5196 11.7071 13.7071C11.5196 13.8946 11.2652 14 11 14C10.7348 14 10.4804 13.8946 10.2929 13.7071C10.1054 13.5196 10 13.2652 10 13V11C10 10.7348 10.1054 10.4804 10.2929 10.2929C10.4804 10.1054 10.7348 10 11 10C11.2652 10 11.5196 10.1054 11.7071 10.2929C11.8946 10.4804 12 10.7348 12 11V13ZM16 4C17.0609 4 18.0783 4.42143 18.8284 5.17157C19.5786 5.92172 20 6.93913 20 8H12C12 6.93913 12.4214 5.92172 13.1716 5.17157C13.9217 4.42143 14.9391 4 16 4ZM22 13C22 13.2652 21.8946 13.5196 21.7071 13.7071C21.5196 13.8946 21.2652 14 21 14C20.7348 14 20.4804 13.8946 20.2929 13.7071C20.1054 13.5196 20 13.2652 20 13V11C20 10.7348 20.1054 10.4804 20.2929 10.2929C20.4804 10.1054 20.7348 10 21 10C21.2652 10 21.5196 10.1054 21.7071 10.2929C21.8946 10.4804 22 10.7348 22 11V13Z" fill="white"/>
<path d="M67 7.5H62.4788C62.3468 5.87234 61.6071 4.35397 60.4066 3.2469C59.2062 2.13983 57.633 1.52516 56 1.52516C54.367 1.52516 52.7938 2.13983 51.5934 3.2469C50.3929 4.35397 49.6532 5.87234 49.5212 7.5H45C44.337 7.5 43.7011 7.76339 43.2322 8.23223C42.7634 8.70107 42.5 9.33696 42.5 10V25C42.5 25.663 42.7634 26.2989 43.2322 26.7678C43.7011 27.2366 44.337 27.5 45 27.5H67C67.663 27.5 68.2989 27.2366 68.7678 26.7678C69.2366 26.2989 69.5 25.663 69.5 25V10C69.5 9.33696 69.2366 8.70107 68.7678 8.23223C68.2989 7.76339 67.663 7.5 67 7.5ZM56 4.5C56.8416 4.50008 57.6549 4.80339 58.2911 5.35436C58.9272 5.90533 59.3435 6.66706 59.4638 7.5H52.5363C52.6565 6.66706 53.0728 5.90533 53.7089 5.35436C54.3451 4.80339 55.1584 4.50008 56 4.5ZM66.5 24.5H45.5V10.5H49.5V12C49.5 12.3978 49.658 12.7794 49.9393 13.0607C50.2206 13.342 50.6022 13.5 51 13.5C51.3978 13.5 51.7794 13.342 52.0607 13.0607C52.342 12.7794 52.5 12.3978 52.5 12V10.5H59.5V12C59.5 12.3978 59.658 12.7794 59.9393 13.0607C60.2206 13.342 60.6022 13.5 61 13.5C61.3978 13.5 61.7794 13.342 62.0607 13.0607C62.342 12.7794 62.5 12.3978 62.5 12V10.5H66.5V24.5Z" fill="white"/>
</g>
<defs>
<clipPath id="clip0_27_796">
<rect width="72" height="32" rx="5" fill="white"/>
</clipPath>
</defs>
</svg>
