<svg width="72" height="32" viewBox="0 0 72 32" fill="none" xmlns="http://www.w3.org/2000/svg">
<g clip-path="url(#clip0_27_801)">
<path d="M27 8H22C22 6.4087 21.3679 4.88258 20.2426 3.75736C19.1174 2.63214 17.5913 2 16 2C14.4087 2 12.8826 2.63214 11.7574 3.75736C10.6321 4.88258 10 6.4087 10 8H5C4.46957 8 3.96086 8.21071 3.58579 8.58579C3.21071 8.96086 3 9.46957 3 10V25C3 25.5304 3.21071 26.0391 3.58579 26.4142C3.96086 26.7893 4.46957 27 5 27H27C27.5304 27 28.0391 26.7893 28.4142 26.4142C28.7893 26.0391 29 25.5304 29 25V10C29 9.46957 28.7893 8.96086 28.4142 8.58579C28.0391 8.21071 27.5304 8 27 8ZM16 4C17.0609 4 18.0783 4.42143 18.8284 5.17157C19.5786 5.92172 20 6.93913 20 8H12C12 6.93913 12.4214 5.92172 13.1716 5.17157C13.9217 4.42143 14.9391 4 16 4Z" fill="white"/>
<path d="M67 7.5H62.4788C62.3468 5.87234 61.6071 4.35397 60.4066 3.2469C59.2062 2.13983 57.633 1.52516 56 1.52516C54.367 1.52516 52.7938 2.13983 51.5934 3.2469C50.3929 4.35397 49.6532 5.87234 49.5212 7.5H45C44.337 7.5 43.7011 7.76339 43.2322 8.23223C42.7634 8.70107 42.5 9.33696 42.5 10V25C42.5 25.663 42.7634 26.2989 43.2322 26.7678C43.7011 27.2366 44.337 27.5 45 27.5H67C67.663 27.5 68.2989 27.2366 68.7678 26.7678C69.2366 26.2989 69.5 25.663 69.5 25V10C69.5 9.33696 69.2366 8.70107 68.7678 8.23223C68.2989 7.76339 67.663 7.5 67 7.5ZM56 4.5C56.8416 4.50008 57.6549 4.80339 58.2911 5.35436C58.9272 5.90533 59.3435 6.66706 59.4638 7.5H52.5363C52.6565 6.66706 53.0728 5.90533 53.7089 5.35436C54.3451 4.80339 55.1584 4.50008 56 4.5ZM66.5 24.5H45.5V10.5H66.5V24.5Z" fill="white"/>
</g>
<defs>
<clipPath id="clip0_27_801">
<rect width="72" height="32" rx="5" fill="white"/>
</clipPath>
</defs>
</svg>
