<svg width="72" height="32" viewBox="0 0 72 32" fill="none" xmlns="http://www.w3.org/2000/svg">
<g clip-path="url(#clip0_27_806)">
<path d="M16 2C13.0836 2.00331 10.2877 3.1633 8.22548 5.22548C6.1633 7.28766 5.00331 10.0836 5 13C5 15.9288 6.175 19.1775 8.14125 21.6875C9.65125 23.6138 11.4538 24.9375 13.38 25.5737L12.0813 28.6063C12.0161 28.7583 11.9897 28.9242 12.0044 29.0889C12.0191 29.2537 12.0745 29.4123 12.1655 29.5504C12.2566 29.6885 12.3805 29.8019 12.5261 29.8803C12.6717 29.9588 12.8346 29.9999 13 30H19C19.1654 29.9999 19.3283 29.9588 19.4739 29.8803C19.6195 29.8019 19.7434 29.6885 19.8345 29.5504C19.9255 29.4123 19.9809 29.2537 19.9956 29.0889C20.0103 28.9242 19.9839 28.7583 19.9188 28.6063L18.625 25.5737C20.55 24.94 22.3538 23.6138 23.8638 21.6875C25.825 19.1775 27 15.9288 27 13C26.9967 10.0836 25.8367 7.28766 23.7745 5.22548C21.7123 3.1633 18.9164 2.00331 16 2ZM22.165 12.9862C22.1104 12.9951 22.0553 12.9997 22 13C21.7636 12.9997 21.535 12.9157 21.3547 12.7628C21.1743 12.6099 21.054 12.3981 21.015 12.165C20.8301 11.1244 20.3302 10.1657 19.5829 9.41835C18.8356 8.67103 17.8768 8.17114 16.8363 7.98625C16.7058 7.96566 16.5806 7.91942 16.4681 7.8502C16.3556 7.78099 16.2579 7.69016 16.1807 7.58297C16.1035 7.47579 16.0483 7.35436 16.0183 7.22572C15.9883 7.09707 15.984 6.96375 16.0058 6.83346C16.0276 6.70317 16.075 6.57849 16.1453 6.46662C16.2155 6.35475 16.3073 6.25791 16.4151 6.1817C16.523 6.10548 16.645 6.05139 16.7739 6.02257C16.9028 5.99374 17.0362 5.99075 17.1663 6.01375C18.616 6.27099 19.9517 6.96725 20.9929 8.00838C22.034 9.04951 22.7303 10.3853 22.9875 11.835C23.0091 11.9646 23.005 12.0972 22.9754 12.2252C22.9458 12.3532 22.8912 12.4742 22.8148 12.5811C22.7385 12.688 22.6417 12.7788 22.5302 12.8483C22.4187 12.9179 22.2946 12.9647 22.165 12.9862Z" fill="white"/>
<path d="M56 1.5C52.951 1.50331 50.0279 2.71597 47.8719 4.87193C45.716 7.02788 44.5033 9.95103 44.5 13C44.5 16.0662 45.6937 19.2663 47.7737 21.7775C49.0237 23.2775 50.4688 24.4112 52.03 25.1225L50.625 28.4088C50.5273 28.6366 50.4875 28.8852 50.5094 29.1322C50.5312 29.3792 50.614 29.6169 50.7502 29.8241C50.8864 30.0313 51.0719 30.2015 51.29 30.3194C51.5081 30.4374 51.752 30.4994 52 30.5H60C60.248 30.4994 60.4919 30.4374 60.71 30.3194C60.9281 30.2015 61.1136 30.0313 61.2498 29.8241C61.386 29.6169 61.4688 29.3792 61.4906 29.1322C61.5125 28.8852 61.4727 28.6366 61.375 28.4088L59.97 25.125C61.5312 24.4137 62.98 23.2838 64.2262 21.78C66.3062 19.2663 67.5 16.0662 67.5 13C67.4967 9.95103 66.284 7.02788 64.1281 4.87193C61.9721 2.71597 59.049 1.50331 56 1.5ZM57.725 27.5H54.275L54.9438 25.9387C55.6455 26.0204 56.3545 26.0204 57.0562 25.9387L57.725 27.5ZM61.9163 19.8638C60.2413 21.8862 58.14 23 56 23C53.86 23 51.7587 21.8862 50.0837 19.8638C48.4662 17.9113 47.5 15.345 47.5 13C47.5 10.7457 48.3955 8.58365 49.9896 6.98959C51.5837 5.39553 53.7457 4.5 56 4.5C58.2543 4.5 60.4163 5.39553 62.0104 6.98959C63.6045 8.58365 64.5 10.7457 64.5 13C64.5 15.345 63.5338 17.9113 61.9163 19.8638ZM61.1238 13.9888C61.0738 13.9938 61.0237 13.9963 60.9737 13.9963C60.6019 13.9959 60.2435 13.8575 59.9679 13.6078C59.6924 13.3581 59.5194 13.015 59.4825 12.645C59.4139 11.9633 59.1467 11.3167 58.7141 10.7854C58.2815 10.2542 57.7024 9.86153 57.0487 9.65625C56.8609 9.59699 56.6865 9.50131 56.5356 9.37466C56.3847 9.24802 56.2603 9.0929 56.1693 8.91815C56.0784 8.7434 56.0227 8.55245 56.0056 8.3562C55.9884 8.15995 56.0101 7.96225 56.0694 7.77437C56.1286 7.5865 56.2243 7.41214 56.351 7.26125C56.4776 7.11035 56.6327 6.98588 56.8075 6.89494C56.9822 6.804 57.1732 6.74836 57.3694 6.73121C57.5657 6.71407 57.7634 6.73574 57.9513 6.795C59.1653 7.17609 60.2407 7.90555 61.0436 8.89272C61.8465 9.87989 62.3417 11.0813 62.4675 12.3475C62.4876 12.5437 62.4687 12.7419 62.4121 12.9308C62.3554 13.1197 62.2621 13.2956 62.1374 13.4484C62.0127 13.6012 61.8591 13.7279 61.6854 13.8213C61.5117 13.9146 61.3212 13.9728 61.125 13.9925L61.1238 13.9888Z" fill="white"/>
</g>
<defs>
<clipPath id="clip0_27_806">
<rect width="72" height="32" rx="5" fill="white"/>
</clipPath>
</defs>
</svg>
