<svg width="72" height="32" viewBox="0 0 72 32" fill="none" xmlns="http://www.w3.org/2000/svg">
<g clip-path="url(#clip0_27_4926)">
<path d="M15.9999 14.5C16.2966 14.5 16.5866 14.588 16.8333 14.7528C17.0799 14.9176 17.2722 15.1519 17.3857 15.426C17.4993 15.7001 17.529 16.0017 17.4711 16.2926C17.4132 16.5836 17.2704 16.8509 17.0606 17.0607C16.8508 17.2704 16.5835 17.4133 16.2926 17.4712C16.0016 17.529 15.7 17.4993 15.4259 17.3858C15.1518 17.2723 14.9175 17.08 14.7527 16.8333C14.5879 16.5867 14.4999 16.2967 14.4999 16C14.4999 15.6022 14.658 15.2206 14.9393 14.9393C15.2206 14.658 15.6021 14.5 15.9999 14.5ZM26.5349 19.465C27.0125 19.9262 27.3934 20.478 27.6554 21.088C27.9175 21.698 28.0554 22.3541 28.0612 23.018C28.0669 23.6819 27.9404 24.3403 27.689 24.9548C27.4376 25.5692 27.0664 26.1275 26.5969 26.597C26.1274 27.0664 25.5692 27.4377 24.9547 27.6891C24.3402 27.9405 23.6818 28.067 23.0179 28.0612C22.354 28.0555 21.6979 27.9175 21.0879 27.6555C20.4779 27.3935 19.9262 27.0125 19.4649 26.535L15.9999 23.0712L12.5349 26.535C12.0737 27.0125 11.522 27.3935 10.9119 27.6555C10.3019 27.9175 9.64582 28.0555 8.98192 28.0612C8.31803 28.067 7.65963 27.9405 7.04515 27.6891C6.43067 27.4377 5.87241 27.0664 5.40294 26.597C4.93348 26.1275 4.56221 25.5692 4.31081 24.9548C4.0594 24.3403 3.9329 23.6819 3.93867 23.018C3.94443 22.3541 4.08237 21.698 4.34441 21.088C4.60646 20.478 4.98737 19.9262 5.46492 19.465L8.92867 16L5.46492 12.535C4.98737 12.0738 4.60646 11.522 4.34441 10.912C4.08237 10.302 3.94443 9.6459 3.93867 8.982C3.9329 8.3181 4.0594 7.65971 4.31081 7.04522C4.56221 6.43074 4.93348 5.87248 5.40294 5.40302C5.87241 4.93356 6.43067 4.56229 7.04515 4.31089C7.65963 4.05948 8.31803 3.93297 8.98192 3.93874C9.64582 3.94451 10.3019 4.08244 10.9119 4.34449C11.522 4.60653 12.0737 4.98744 12.5349 5.46499L15.9999 8.92874L19.4649 5.46499C19.9262 4.98744 20.4779 4.60653 21.0879 4.34449C21.6979 4.08244 22.354 3.94451 23.0179 3.93874C23.6818 3.93297 24.3402 4.05948 24.9547 4.31089C25.5692 4.56229 26.1274 4.93356 26.5969 5.40302C27.0664 5.87248 27.4376 6.43074 27.689 7.04522C27.9404 7.65971 28.0669 8.3181 28.0612 8.982C28.0554 9.6459 27.9175 10.302 27.6554 10.912C27.3934 11.522 27.0125 12.0738 26.5349 12.535L23.0712 16L26.5349 19.465ZM14.5862 21.6562L10.3437 17.4137L6.87492 20.875C6.59586 21.1541 6.3745 21.4853 6.22347 21.85C6.07245 22.2146 5.99471 22.6053 5.99471 23C5.99471 23.3946 6.07245 23.7854 6.22347 24.15C6.3745 24.5146 6.59586 24.8459 6.87492 25.125C7.15398 25.4041 7.48527 25.6254 7.84988 25.7764C8.21448 25.9275 8.60527 26.0052 8.99992 26.0052C9.39457 26.0052 9.78535 25.9275 10.15 25.7764C10.5146 25.6254 10.8459 25.4041 11.1249 25.125L14.5862 21.6562ZM20.2424 16L15.9999 11.7575L11.7574 16L15.9999 20.2425L20.2424 16ZM25.1174 11.125C25.3965 10.8464 25.6179 10.5156 25.7691 10.1515C25.9204 9.78732 25.9984 9.39695 25.9987 9.00265C25.9991 8.60834 25.9217 8.21784 25.7712 7.85342C25.6206 7.489 25.3997 7.1578 25.1212 6.87874C24.8426 6.59968 24.5118 6.37823 24.1476 6.22701C23.7835 6.0758 23.3931 5.99779 22.9988 5.99744C22.6045 5.99709 22.214 6.07441 21.8496 6.22498C21.4852 6.37555 21.154 6.59643 20.8749 6.87499L17.4137 10.3437L21.6562 14.5862L25.1174 11.125Z" fill="white"/>
<path d="M63.7792 16L66.8892 12.8887C67.411 12.3805 67.8266 11.7738 68.112 11.1036C68.3973 10.4335 68.5467 9.71334 68.5515 8.98499C68.5563 8.25664 68.4164 7.5346 68.1399 6.86076C67.8634 6.18692 67.4558 5.57472 66.9407 5.05969C66.4257 4.54466 65.8135 4.13705 65.1397 3.86054C64.4658 3.58402 63.7438 3.4441 63.0154 3.4489C62.2871 3.45369 61.5669 3.60311 60.8968 3.88848C60.2267 4.17384 59.6199 4.58947 59.1117 5.11125L56.0004 8.22125L52.8892 5.11125C52.381 4.58947 51.7742 4.17384 51.1041 3.88848C50.4339 3.60311 49.7138 3.45369 48.9854 3.4489C48.2571 3.4441 47.535 3.58402 46.8612 3.86054C46.1874 4.13705 45.5752 4.54466 45.0601 5.05969C44.5451 5.57472 44.1375 6.18692 43.861 6.86076C43.5845 7.5346 43.4445 8.25664 43.4493 8.98499C43.4541 9.71334 43.6036 10.4335 43.8889 11.1036C44.1743 11.7738 44.5899 12.3805 45.1117 12.8887L48.2217 16L45.1117 19.1112C44.5899 19.6195 44.1743 20.2262 43.8889 20.8964C43.6036 21.5665 43.4541 22.2866 43.4493 23.015C43.4445 23.7433 43.5845 24.4654 43.861 25.1392C44.1375 25.8131 44.5451 26.4253 45.0601 26.9403C45.5752 27.4553 46.1874 27.8629 46.8612 28.1395C47.535 28.416 48.2571 28.5559 48.9854 28.5511C49.7138 28.5463 50.4339 28.3969 51.1041 28.1115C51.7742 27.8261 52.381 27.4105 52.8892 26.8887L56.0004 23.7787L59.1117 26.8887C59.6199 27.4105 60.2267 27.8261 60.8968 28.1115C61.5669 28.3969 62.2871 28.5463 63.0154 28.5511C63.7438 28.5559 64.4658 28.416 65.1397 28.1395C65.8135 27.8629 66.4257 27.4553 66.9407 26.9403C67.4558 26.4253 67.8634 25.8131 68.1399 25.1392C68.4164 24.4654 68.5563 23.7433 68.5515 23.015C68.5467 22.2866 68.3973 21.5665 68.112 20.8964C67.8266 20.2262 67.411 19.6195 66.8892 19.1112L63.7792 16ZM61.2329 7.2325C61.4636 6.99372 61.7394 6.80326 62.0444 6.67224C62.3494 6.54122 62.6775 6.47225 63.0094 6.46937C63.3414 6.46648 63.6706 6.52974 63.9778 6.65544C64.2851 6.78114 64.5642 6.96678 64.7989 7.20151C65.0337 7.43624 65.2193 7.71537 65.345 8.02261C65.4707 8.32985 65.5339 8.65905 65.5311 8.991C65.5282 9.32295 65.4592 9.651 65.3282 9.95601C65.1972 10.261 65.0067 10.5369 64.7679 10.7675L61.6567 13.875L58.1254 10.3437L61.2329 7.2325ZM59.5354 16L56.0004 19.535L52.4654 16L56.0004 12.465L59.5354 16ZM47.2329 10.7675C46.9942 10.5369 46.8037 10.261 46.6727 9.95601C46.5417 9.651 46.4727 9.32295 46.4698 8.991C46.4669 8.65905 46.5302 8.32985 46.6559 8.02261C46.7816 7.71537 46.9672 7.43624 47.202 7.20151C47.4367 6.96678 47.7158 6.78114 48.0231 6.65544C48.3303 6.52974 48.6595 6.46648 48.9914 6.46937C49.3234 6.47225 49.6514 6.54122 49.9564 6.67224C50.2615 6.80326 50.5373 6.99372 50.7679 7.2325L53.8754 10.3437L50.3442 13.875L47.2329 10.7675ZM50.7679 24.7675C50.5373 25.0063 50.2615 25.1967 49.9564 25.3277C49.6514 25.4588 49.3234 25.5277 48.9914 25.5306C48.6595 25.5335 48.3303 25.4703 48.0231 25.3446C47.7158 25.2188 47.4367 25.0332 47.202 24.7985C46.9672 24.5638 46.7816 24.2846 46.6559 23.9774C46.5302 23.6701 46.4669 23.3409 46.4698 23.009C46.4727 22.677 46.5417 22.349 46.6727 22.044C46.8037 21.739 46.9942 21.4631 47.2329 21.2325L50.3442 18.125L53.8754 21.6562L50.7679 24.7675ZM64.7679 24.7675C64.2991 25.2362 63.6633 25.4995 63.0004 25.4995C62.3375 25.4995 61.7018 25.2362 61.2329 24.7675L58.1254 21.6562L61.6567 18.125L64.7679 21.2362C65.2366 21.7051 65.4999 22.3408 65.4999 23.0037C65.4999 23.6667 65.2366 24.3024 64.7679 24.7712V24.7675Z" fill="white"/>
</g>
<defs>
<clipPath id="clip0_27_4926">
<rect width="72" height="32" rx="5" fill="white"/>
</clipPath>
</defs>
</svg>
