<svg width="72" height="32" viewBox="0 0 72 32" fill="none" xmlns="http://www.w3.org/2000/svg">
<g clip-path="url(#clip0_27_1648)">
<path d="M31 26C31 26.2652 30.8946 26.5196 30.7071 26.7071C30.5196 26.8946 30.2652 27 30 27H2C1.73478 27 1.48043 26.8946 1.29289 26.7071C1.10536 26.5196 1 26.2652 1 26C1 25.7348 1.10536 25.4804 1.29289 25.2929C1.48043 25.1054 1.73478 25 2 25H30C30.2652 25 30.5196 25.1054 30.7071 25.2929C30.8946 25.4804 31 25.7348 31 26ZM2.0375 12.2725C1.97802 12.0628 1.9887 11.8394 2.0679 11.6363C2.1471 11.4332 2.2905 11.2616 2.47625 11.1475L15.4762 3.1475C15.6338 3.05065 15.8151 2.99937 16 2.99937C16.1849 2.99937 16.3662 3.05065 16.5238 3.1475L29.5238 11.1475C29.7096 11.2614 29.8531 11.433 29.9324 11.636C30.0118 11.839 30.0226 12.0623 29.9633 12.2721C29.904 12.4818 29.7778 12.6664 29.6039 12.7978C29.43 12.9292 29.218 13.0002 29 13H26V21H28C28.2652 21 28.5196 21.1054 28.7071 21.2929C28.8946 21.4804 29 21.7348 29 22C29 22.2652 28.8946 22.5196 28.7071 22.7071C28.5196 22.8946 28.2652 23 28 23H4C3.73478 23 3.48043 22.8946 3.29289 22.7071C3.10536 22.5196 3 22.2652 3 22C3 21.7348 3.10536 21.4804 3.29289 21.2929C3.48043 21.1054 3.73478 21 4 21H6V13H3C2.78224 13.0001 2.5704 12.9291 2.39668 12.7978C2.22295 12.6665 2.09684 12.482 2.0375 12.2725ZM18 20C18 20.2652 18.1054 20.5196 18.2929 20.7071C18.4804 20.8946 18.7348 21 19 21C19.2652 21 19.5196 20.8946 19.7071 20.7071C19.8946 20.5196 20 20.2652 20 20V14C20 13.7348 19.8946 13.4804 19.7071 13.2929C19.5196 13.1054 19.2652 13 19 13C18.7348 13 18.4804 13.1054 18.2929 13.2929C18.1054 13.4804 18 13.7348 18 14V20ZM12 20C12 20.2652 12.1054 20.5196 12.2929 20.7071C12.4804 20.8946 12.7348 21 13 21C13.2652 21 13.5196 20.8946 13.7071 20.7071C13.8946 20.5196 14 20.2652 14 20V14C14 13.7348 13.8946 13.4804 13.7071 13.2929C13.5196 13.1054 13.2652 13 13 13C12.7348 13 12.4804 13.1054 12.2929 13.2929C12.1054 13.4804 12 13.7348 12 14V20Z" fill="white"/>
<path d="M43 13.5H45.5V19.5H44C43.6022 19.5 43.2206 19.658 42.9393 19.9393C42.658 20.2206 42.5 20.6022 42.5 21C42.5 21.3978 42.658 21.7794 42.9393 22.0607C43.2206 22.342 43.6022 22.5 44 22.5H68C68.3978 22.5 68.7794 22.342 69.0607 22.0607C69.342 21.7794 69.5 21.3978 69.5 21C69.5 20.6022 69.342 20.2206 69.0607 19.9393C68.7794 19.658 68.3978 19.5 68 19.5H66.5V13.5H69C69.3266 13.5 69.6443 13.3934 69.9048 13.1965C70.1653 12.9995 70.3545 12.7228 70.4434 12.4086C70.5324 12.0943 70.5163 11.7596 70.3977 11.4553C70.2791 11.151 70.0644 10.8937 69.7862 10.7225L56.7862 2.7225C56.5498 2.57698 56.2776 2.49992 56 2.49992C55.7224 2.49992 55.4502 2.57698 55.2137 2.7225L42.2137 10.7225C41.9356 10.8937 41.7209 11.151 41.6023 11.4553C41.4837 11.7596 41.4676 12.0943 41.5566 12.4086C41.6456 12.7228 41.8347 12.9995 42.0952 13.1965C42.3557 13.3934 42.6734 13.5 43 13.5ZM48.5 13.5H51.5V19.5H48.5V13.5ZM57.5 13.5V19.5H54.5V13.5H57.5ZM63.5 19.5H60.5V13.5H63.5V19.5ZM56 5.76125L63.7 10.5H48.3L56 5.76125ZM71.5 26C71.5 26.3978 71.342 26.7794 71.0607 27.0607C70.7794 27.342 70.3978 27.5 70 27.5H42C41.6022 27.5 41.2206 27.342 40.9393 27.0607C40.658 26.7794 40.5 26.3978 40.5 26C40.5 25.6022 40.658 25.2206 40.9393 24.9393C41.2206 24.658 41.6022 24.5 42 24.5H70C70.3978 24.5 70.7794 24.658 71.0607 24.9393C71.342 25.2206 71.5 25.6022 71.5 26Z" fill="white"/>
</g>
<defs>
<clipPath id="clip0_27_1648">
<rect width="72" height="32" rx="5" fill="white"/>
</clipPath>
</defs>
</svg>
