<svg width="72" height="32" viewBox="0 0 72 32" fill="none" xmlns="http://www.w3.org/2000/svg">
<g clip-path="url(#clip0_27_811)">
<path d="M28 5H4C3.73478 5 3.48043 5.10536 3.29289 5.29289C3.10536 5.48043 3 5.73478 3 6V26C3 26.2652 3.10536 26.5196 3.29289 26.7071C3.48043 26.8946 3.73478 27 4 27H28C28.2652 27 28.5196 26.8946 28.7071 26.7071C28.8946 26.5196 29 26.2652 29 26V6C29 5.73478 28.8946 5.48043 28.7071 5.29289C28.5196 5.10536 28.2652 5 28 5ZM5 8C5 7.73478 5.10536 7.48043 5.29289 7.29289C5.48043 7.10536 5.73478 7 6 7H10C10.2652 7 10.5196 7.10536 10.7071 7.29289C10.8946 7.48043 11 7.73478 11 8C11 8.26522 10.8946 8.51957 10.7071 8.70711C10.5196 8.89464 10.2652 9 10 9H7V12C7 12.2652 6.89464 12.5196 6.70711 12.7071C6.51957 12.8946 6.26522 13 6 13C5.73478 13 5.48043 12.8946 5.29289 12.7071C5.10536 12.5196 5 12.2652 5 12V8ZM10 25H6C5.73478 25 5.48043 24.8946 5.29289 24.7071C5.10536 24.5196 5 24.2652 5 24V20C5 19.7348 5.10536 19.4804 5.29289 19.2929C5.48043 19.1054 5.73478 19 6 19C6.26522 19 6.51957 19.1054 6.70711 19.2929C6.89464 19.4804 7 19.7348 7 20V23H10C10.2652 23 10.5196 23.1054 10.7071 23.2929C10.8946 23.4804 11 23.7348 11 24C11 24.2652 10.8946 24.5196 10.7071 24.7071C10.5196 24.8946 10.2652 25 10 25ZM13 19C13 19.2652 12.8946 19.5196 12.7071 19.7071C12.5196 19.8946 12.2652 20 12 20C11.7348 20 11.4804 19.8946 11.2929 19.7071C11.1054 19.5196 11 19.2652 11 19V13C11 12.7348 11.1054 12.4804 11.2929 12.2929C11.4804 12.1054 11.7348 12 12 12C12.2652 12 12.5196 12.1054 12.7071 12.2929C12.8946 12.4804 13 12.7348 13 13V19ZM17 19C17 19.2652 16.8946 19.5196 16.7071 19.7071C16.5196 19.8946 16.2652 20 16 20C15.7348 20 15.4804 19.8946 15.2929 19.7071C15.1054 19.5196 15 19.2652 15 19V13C15 12.7348 15.1054 12.4804 15.2929 12.2929C15.4804 12.1054 15.7348 12 16 12C16.2652 12 16.5196 12.1054 16.7071 12.2929C16.8946 12.4804 17 12.7348 17 13V19ZM20 20C19.7348 20 19.4804 19.8946 19.2929 19.7071C19.1054 19.5196 19 19.2652 19 19V13C19 12.7348 19.1054 12.4804 19.2929 12.2929C19.4804 12.1054 19.7348 12 20 12C20.2652 12 20.5196 12.1054 20.7071 12.2929C20.8946 12.4804 21 12.7348 21 13V19C21 19.2652 20.8946 19.5196 20.7071 19.7071C20.5196 19.8946 20.2652 20 20 20ZM27 24C27 24.2652 26.8946 24.5196 26.7071 24.7071C26.5196 24.8946 26.2652 25 26 25H22C21.7348 25 21.4804 24.8946 21.2929 24.7071C21.1054 24.5196 21 24.2652 21 24C21 23.7348 21.1054 23.4804 21.2929 23.2929C21.4804 23.1054 21.7348 23 22 23H25V20C25 19.7348 25.1054 19.4804 25.2929 19.2929C25.4804 19.1054 25.7348 19 26 19C26.2652 19 26.5196 19.1054 26.7071 19.2929C26.8946 19.4804 27 19.7348 27 20V24ZM27 12C27 12.2652 26.8946 12.5196 26.7071 12.7071C26.5196 12.8946 26.2652 13 26 13C25.7348 13 25.4804 12.8946 25.2929 12.7071C25.1054 12.5196 25 12.2652 25 12V9H22C21.7348 9 21.4804 8.89464 21.2929 8.70711C21.1054 8.51957 21 8.26522 21 8C21 7.73478 21.1054 7.48043 21.2929 7.29289C21.4804 7.10536 21.7348 7 22 7H26C26.2652 7 26.5196 7.10536 26.7071 7.29289C26.8946 7.48043 27 7.73478 27 8V12Z" fill="white"/>
<path d="M69 6.5V11.5C69 11.8978 68.842 12.2794 68.5607 12.5607C68.2794 12.842 67.8978 13 67.5 13C67.1022 13 66.7206 12.842 66.4393 12.5607C66.158 12.2794 66 11.8978 66 11.5V8H62.5C62.1022 8 61.7206 7.84196 61.4393 7.56066C61.158 7.27936 61 6.89782 61 6.5C61 6.10218 61.158 5.72064 61.4393 5.43934C61.7206 5.15804 62.1022 5 62.5 5H67.5C67.8978 5 68.2794 5.15804 68.5607 5.43934C68.842 5.72064 69 6.10218 69 6.5ZM49.5 24H46V20.5C46 20.1022 45.842 19.7206 45.5607 19.4393C45.2794 19.158 44.8978 19 44.5 19C44.1022 19 43.7206 19.158 43.4393 19.4393C43.158 19.7206 43 20.1022 43 20.5V25.5C43 25.8978 43.158 26.2794 43.4393 26.5607C43.7206 26.842 44.1022 27 44.5 27H49.5C49.8978 27 50.2794 26.842 50.5607 26.5607C50.842 26.2794 51 25.8978 51 25.5C51 25.1022 50.842 24.7206 50.5607 24.4393C50.2794 24.158 49.8978 24 49.5 24ZM67.5 19C67.1022 19 66.7206 19.158 66.4393 19.4393C66.158 19.7206 66 20.1022 66 20.5V24H62.5C62.1022 24 61.7206 24.158 61.4393 24.4393C61.158 24.7206 61 25.1022 61 25.5C61 25.8978 61.158 26.2794 61.4393 26.5607C61.7206 26.842 62.1022 27 62.5 27H67.5C67.8978 27 68.2794 26.842 68.5607 26.5607C68.842 26.2794 69 25.8978 69 25.5V20.5C69 20.1022 68.842 19.7206 68.5607 19.4393C68.2794 19.158 67.8978 19 67.5 19ZM44.5 13C44.8978 13 45.2794 12.842 45.5607 12.5607C45.842 12.2794 46 11.8978 46 11.5V8H49.5C49.8978 8 50.2794 7.84196 50.5607 7.56066C50.842 7.27936 51 6.89782 51 6.5C51 6.10218 50.842 5.72064 50.5607 5.43934C50.2794 5.15804 49.8978 5 49.5 5H44.5C44.1022 5 43.7206 5.15804 43.4393 5.43934C43.158 5.72064 43 6.10218 43 6.5V11.5C43 11.8978 43.158 12.2794 43.4393 12.5607C43.7206 12.842 44.1022 13 44.5 13ZM51 10C50.6022 10 50.2206 10.158 49.9393 10.4393C49.658 10.7206 49.5 11.1022 49.5 11.5V20.5C49.5 20.8978 49.658 21.2794 49.9393 21.5607C50.2206 21.842 50.6022 22 51 22C51.3978 22 51.7794 21.842 52.0607 21.5607C52.342 21.2794 52.5 20.8978 52.5 20.5V11.5C52.5 11.1022 52.342 10.7206 52.0607 10.4393C51.7794 10.158 51.3978 10 51 10ZM62.5 20.5V11.5C62.5 11.1022 62.342 10.7206 62.0607 10.4393C61.7794 10.158 61.3978 10 61 10C60.6022 10 60.2206 10.158 59.9393 10.4393C59.658 10.7206 59.5 11.1022 59.5 11.5V20.5C59.5 20.8978 59.658 21.2794 59.9393 21.5607C60.2206 21.842 60.6022 22 61 22C61.3978 22 61.7794 21.842 62.0607 21.5607C62.342 21.2794 62.5 20.8978 62.5 20.5ZM56 10C55.6022 10 55.2206 10.158 54.9393 10.4393C54.658 10.7206 54.5 11.1022 54.5 11.5V20.5C54.5 20.8978 54.658 21.2794 54.9393 21.5607C55.2206 21.842 55.6022 22 56 22C56.3978 22 56.7794 21.842 57.0607 21.5607C57.342 21.2794 57.5 20.8978 57.5 20.5V11.5C57.5 11.1022 57.342 10.7206 57.0607 10.4393C56.7794 10.158 56.3978 10 56 10Z" fill="white"/>
</g>
<defs>
<clipPath id="clip0_27_811">
<rect width="72" height="32" rx="5" fill="white"/>
</clipPath>
</defs>
</svg>
