<svg width="72" height="32" viewBox="0 0 72 32" fill="none" xmlns="http://www.w3.org/2000/svg">
<g clip-path="url(#clip0_27_816)">
<path d="M30 24H29V16.3213L29.1862 16.5813C29.2599 16.6945 29.3556 16.7917 29.4678 16.8669C29.58 16.9421 29.7063 16.9938 29.8391 17.0189C29.9718 17.044 30.1082 17.0419 30.2401 17.0128C30.372 16.9837 30.4967 16.9282 30.6065 16.8496C30.7164 16.771 30.8092 16.671 30.8793 16.5555C30.9495 16.4401 30.9955 16.3116 31.0146 16.1779C31.0338 16.0442 31.0256 15.908 30.9906 15.7775C30.9557 15.647 30.8947 15.525 30.8112 15.4188L25.8112 8.41875C25.7427 8.32392 25.6581 8.24184 25.5612 8.17626L17.125 2.34625L17.1125 2.3375C16.7838 2.11823 16.3976 2.00121 16.0025 2.00121C15.6074 2.00121 15.2212 2.11823 14.8925 2.3375L14.88 2.34625L6.43124 8.1775C6.33437 8.24309 6.24975 8.32517 6.18124 8.42L1.18124 15.42C1.09782 15.5262 1.0368 15.6483 1.00184 15.7788C0.966882 15.9092 0.958722 16.0455 0.977852 16.1792C0.996982 16.3129 1.04301 16.4414 1.11314 16.5568C1.18328 16.6722 1.27608 16.7723 1.38594 16.8509C1.49581 16.9295 1.62045 16.985 1.75236 17.0141C1.88427 17.0432 2.0207 17.0452 2.15344 17.0202C2.28617 16.9951 2.41244 16.9434 2.52464 16.8682C2.63684 16.7929 2.73263 16.6958 2.80624 16.5825L2.99999 16.3213V24H1.99999C1.73478 24 1.48042 24.1054 1.29289 24.2929C1.10535 24.4804 0.999993 24.7348 0.999993 25C0.999993 25.2652 1.10535 25.5196 1.29289 25.7071C1.48042 25.8946 1.73478 26 1.99999 26H30C30.2652 26 30.5196 25.8946 30.7071 25.7071C30.8946 25.5196 31 25.2652 31 25C31 24.7348 30.8946 24.4804 30.7071 24.2929C30.5196 24.1054 30.2652 24 30 24ZM14 10H18C18.2652 10 18.5196 10.1054 18.7071 10.2929C18.8946 10.4804 19 10.7348 19 11C19 11.2652 18.8946 11.5196 18.7071 11.7071C18.5196 11.8946 18.2652 12 18 12H14C13.7348 12 13.4804 11.8946 13.2929 11.7071C13.1053 11.5196 13 11.2652 13 11C13 10.7348 13.1053 10.4804 13.2929 10.2929C13.4804 10.1054 13.7348 10 14 10ZM20.58 15L16 18.2713L11.42 15H20.58ZM8.99999 15.7288L14.28 19.5L8.99999 23.2713V15.7288ZM11.42 24L16 20.7288L20.58 24H11.42ZM23 23.2713L17.72 19.5L23 15.7288V23.2713Z" fill="white"/>
<path d="M52.5001 10.5C52.5001 10.1022 52.6581 9.72065 52.9394 9.43934C53.2207 9.15804 53.6022 9 54.0001 9H58.0001C58.3979 9 58.7794 9.15804 59.0607 9.43934C59.342 9.72065 59.5001 10.1022 59.5001 10.5C59.5001 10.8978 59.342 11.2794 59.0607 11.5607C58.7794 11.842 58.3979 12 58.0001 12H54.0001C53.6022 12 53.2207 11.842 52.9394 11.5607C52.6581 11.2794 52.5001 10.8978 52.5001 10.5ZM71.5001 25C71.5001 25.3978 71.342 25.7794 71.0607 26.0607C70.7794 26.342 70.3979 26.5 70.0001 26.5H42.0001C41.6022 26.5 41.2207 26.342 40.9394 26.0607C40.6581 25.7794 40.5001 25.3978 40.5001 25C40.5001 24.6022 40.6581 24.2206 40.9394 23.9393C41.2207 23.658 41.6022 23.5 42.0001 23.5H42.5001V17.4138C42.1989 17.5206 41.8715 17.5286 41.5656 17.4364C41.2596 17.3442 40.9911 17.1568 40.7992 16.9013C40.6072 16.6459 40.5018 16.3358 40.4984 16.0163C40.4949 15.6968 40.5936 15.3845 40.7801 15.125L45.7801 8.125C45.8805 7.98369 46.0049 7.86102 46.1476 7.7625L54.5926 1.93125L54.6138 1.9175C55.024 1.64299 55.5065 1.49644 56.0001 1.49644C56.4936 1.49644 56.9761 1.64299 57.3863 1.9175L57.4076 1.93125L65.8526 7.7625C65.9952 7.86102 66.1196 7.98369 66.2201 8.125L71.2201 15.125C71.4065 15.3845 71.5052 15.6968 71.5017 16.0163C71.4983 16.3358 71.3929 16.6459 71.201 16.9013C71.009 17.1568 70.7405 17.3442 70.4345 17.4364C70.1286 17.5286 69.8012 17.5206 69.5001 17.4138V23.5H70.0001C70.3979 23.5 70.7794 23.658 71.0607 23.9393C71.342 24.2206 71.5001 24.6022 71.5001 25ZM45.5001 23.5H48.0001V15.5C48.0001 15.1022 48.1581 14.7206 48.4394 14.4393C48.7207 14.158 49.1022 14 49.5001 14H62.5001C62.8979 14 63.2794 14.158 63.5607 14.4393C63.842 14.7206 64.0001 15.1022 64.0001 15.5V23.5H66.5001V13.6813L63.9313 10.0863L56.0001 4.60875L48.0688 10.0863L45.5001 13.6813V23.5ZM61.0001 17H54.2376L61.0001 21.7588V17ZM51.0001 23.5H58.2626L51.0001 18.39V23.5Z" fill="white"/>
</g>
<defs>
<clipPath id="clip0_27_816">
<rect width="72" height="32" rx="5" fill="white"/>
</clipPath>
</defs>
</svg>
