<svg width="72" height="32" viewBox="0 0 72 32" fill="none" xmlns="http://www.w3.org/2000/svg">
<g clip-path="url(#clip0_27_4555)">
<path d="M26.1686 7.91C26.126 7.85684 26.073 7.81295 26.0129 7.78101C25.9527 7.74907 25.8867 7.72976 25.8188 7.72425C25.7509 7.71875 25.6826 7.72718 25.6181 7.74902C25.5536 7.77086 25.4942 7.80564 25.4436 7.85125C25.0203 8.23703 24.6275 8.65494 24.2686 9.10125C24.1101 9.30532 23.8804 9.44202 23.6255 9.48397C23.3705 9.52592 23.1091 9.47003 22.8936 9.3275C22.7803 9.24911 22.6844 9.14817 22.612 9.031C22.5396 8.91382 22.4921 8.78294 22.4726 8.64656C22.4531 8.51019 22.4621 8.37126 22.4988 8.23849C22.5355 8.10572 22.5993 7.98196 22.6861 7.875C23.0821 7.38002 23.5136 6.91462 23.9774 6.4825C24.0308 6.4336 24.073 6.37366 24.101 6.30684C24.129 6.24003 24.1422 6.16792 24.1396 6.09552C24.1369 6.02311 24.1186 5.95214 24.0859 5.88752C24.0531 5.8229 24.0067 5.76616 23.9499 5.72125C21.6751 3.95738 18.8783 3.00009 15.9999 3.00009C13.1214 3.00009 10.3246 3.95738 8.04985 5.72125C7.99301 5.76616 7.9466 5.8229 7.91385 5.88752C7.88109 5.95214 7.86277 6.02311 7.86016 6.09552C7.85754 6.16792 7.87069 6.24003 7.8987 6.30684C7.9267 6.37366 7.9689 6.4336 8.02235 6.4825C8.47809 6.90707 8.90293 7.36364 9.2936 7.84875C9.45133 8.04054 9.53387 8.28318 9.52582 8.53136C9.51777 8.77955 9.41968 9.01633 9.24985 9.1975C9.15096 9.29954 9.03146 9.37934 8.89931 9.43157C8.76716 9.4838 8.62539 9.50727 8.48346 9.50041C8.34153 9.49355 8.20269 9.45652 8.07619 9.39178C7.94969 9.32705 7.83844 9.2361 7.74985 9.125C7.3846 8.66898 6.98376 8.24264 6.5511 7.85C6.50046 7.80467 6.44111 7.77013 6.37667 7.74851C6.31223 7.72689 6.24406 7.71864 6.17632 7.72426C6.10858 7.72987 6.0427 7.74924 5.9827 7.78117C5.9227 7.81311 5.86984 7.85694 5.82735 7.91C3.99435 10.208 2.99609 13.0605 2.99609 16C2.99609 18.9395 3.99435 21.792 5.82735 24.09C5.86994 24.1432 5.92294 24.187 5.98309 24.219C6.04325 24.2509 6.1093 24.2702 6.17718 24.2757C6.24507 24.2812 6.31337 24.2728 6.37788 24.251C6.44239 24.2291 6.50177 24.1944 6.55235 24.1487C6.97563 23.763 7.36847 23.3451 7.72735 22.8987C7.88583 22.6947 8.11554 22.558 8.37049 22.516C8.62545 22.4741 8.88684 22.53 9.10235 22.6725C9.21593 22.7506 9.31213 22.8513 9.38492 22.9683C9.45772 23.0854 9.50554 23.2162 9.52537 23.3526C9.54521 23.489 9.53664 23.628 9.5002 23.7609C9.46375 23.8938 9.40023 24.0178 9.3136 24.125C8.91765 24.62 8.48609 25.0854 8.02235 25.5175C7.9689 25.5664 7.9267 25.6263 7.8987 25.6932C7.87069 25.76 7.85754 25.8321 7.86016 25.9045C7.86277 25.9769 7.88109 26.0479 7.91385 26.1125C7.9466 26.1771 7.99301 26.2338 8.04985 26.2787C10.3246 28.0426 13.1214 28.9999 15.9999 28.9999C18.8783 28.9999 21.6751 28.0426 23.9499 26.2787C24.0067 26.2338 24.0531 26.1771 24.0859 26.1125C24.1186 26.0479 24.1369 25.9769 24.1396 25.9045C24.1422 25.8321 24.129 25.76 24.101 25.6932C24.073 25.6263 24.0308 25.5664 23.9774 25.5175C23.5136 25.0854 23.0821 24.62 22.6861 24.125C22.6002 24.0178 22.5372 23.8941 22.5012 23.7615C22.4652 23.6289 22.457 23.4903 22.4769 23.3544C22.4968 23.2184 22.5446 23.088 22.6171 22.9714C22.6897 22.8547 22.7855 22.7542 22.8986 22.6762C23.1141 22.5337 23.3755 22.4778 23.6305 22.5198C23.8854 22.5617 24.1151 22.6984 24.2736 22.9025C24.6325 23.3488 25.0253 23.7667 25.4486 24.1525C25.4992 24.1981 25.5586 24.2329 25.6231 24.2547C25.6876 24.2766 25.7559 24.285 25.8238 24.2795C25.8917 24.274 25.9577 24.2547 26.0179 24.2227C26.078 24.1908 26.131 24.1469 26.1736 24.0937C28.0066 21.7957 29.0049 18.9433 29.0049 16.0037C29.0049 13.0642 28.0066 10.2118 26.1736 7.91375L26.1686 7.91ZM10.2136 11.0375C10.4634 10.973 10.7283 11.0053 10.9552 11.128C11.1822 11.2506 11.3544 11.4545 11.4374 11.6987C11.6756 12.3814 11.857 13.0825 11.9799 13.795C12.0104 13.9407 12.008 14.0913 11.9729 14.2359C11.9378 14.3805 11.8708 14.5155 11.7769 14.631C11.683 14.7464 11.5645 14.8395 11.4301 14.9033C11.2957 14.9671 11.1487 15.0002 10.9999 15C10.7481 15.0008 10.5054 14.9067 10.32 14.7364C10.1346 14.5661 10.0203 14.3321 9.99985 14.0812C9.95235 13.5262 9.8611 12.9675 9.59985 12.4762C9.52848 12.344 9.48784 12.1973 9.48096 12.0472C9.47408 11.897 9.50113 11.7473 9.56011 11.609C9.61908 11.4708 9.70846 11.3476 9.8216 11.2486C9.93474 11.1497 10.0687 11.0775 10.2136 11.0375ZM11.9799 18.1987C11.8564 18.9249 11.6711 19.6391 11.4261 20.3337C11.3786 20.4679 11.303 20.5904 11.2044 20.693C11.1058 20.7956 10.9864 20.876 10.8542 20.9287C10.7221 20.9815 10.5802 21.0055 10.438 20.999C10.2958 20.9925 10.1567 20.9558 10.0299 20.8912C9.81126 20.7746 9.6424 20.5826 9.55459 20.3509C9.46678 20.1192 9.46599 19.8635 9.55235 19.6312C9.75648 19.0466 9.91078 18.4457 10.0136 17.835C10.0369 17.6951 10.0898 17.5617 10.1686 17.4438C10.2474 17.3259 10.3504 17.226 10.4707 17.151C10.5911 17.0759 10.726 17.0273 10.8666 17.0084C11.0072 16.9895 11.1502 17.0007 11.2861 17.0412C11.5227 17.1168 11.7237 17.276 11.8514 17.4891C11.9791 17.7021 12.0248 17.9544 11.9799 18.1987ZM21.9699 20.8912C21.843 20.9558 21.7039 20.9925 21.5617 20.999C21.4195 21.0055 21.2776 20.9815 21.1455 20.9287C21.0133 20.876 20.8939 20.7956 20.7953 20.693C20.6967 20.5904 20.6211 20.4679 20.5736 20.3337C20.3286 19.6391 20.1434 18.9249 20.0199 18.1987C19.9752 17.9545 20.021 17.7023 20.1487 17.4893C20.2763 17.2763 20.4771 17.117 20.7136 17.0412C20.8495 17.0007 20.9925 16.9895 21.1331 17.0084C21.2737 17.0273 21.4086 17.0759 21.529 17.151C21.6493 17.226 21.7523 17.3259 21.8311 17.4438C21.91 17.5617 21.9628 17.6951 21.9861 17.835C22.0889 18.4457 22.2432 19.0466 22.4474 19.6312C22.5337 19.8635 22.5329 20.1192 22.4451 20.3509C22.3573 20.5826 22.1884 20.7746 21.9699 20.8912ZM22.3961 12.4762C22.1349 12.9675 22.0436 13.5262 21.9961 14.0812C21.9834 14.2282 21.9383 14.3705 21.864 14.498C21.7898 14.6254 21.6883 14.7349 21.5668 14.8185C21.4453 14.9022 21.3068 14.9579 21.1613 14.9817C21.0157 15.0055 20.8667 14.9968 20.7249 14.9562C20.486 14.8834 20.2822 14.7254 20.152 14.5123C20.0219 14.2992 19.9744 14.0458 20.0186 13.8C20.1408 13.086 20.3227 12.3836 20.5624 11.7C20.6448 11.4553 20.8169 11.251 21.0439 11.1281C21.271 11.0051 21.5362 10.9728 21.7861 11.0375C21.9307 11.078 22.0642 11.1504 22.1769 11.2496C22.2897 11.3487 22.3786 11.4719 22.4372 11.6101C22.4958 11.7483 22.5225 11.8979 22.5154 12.0479C22.5083 12.1978 22.4675 12.3442 22.3961 12.4762Z" fill="white"/>
<path d="M56 2.5C53.33 2.5 50.7199 3.29176 48.4998 4.77516C46.2797 6.25856 44.5494 8.36697 43.5276 10.8338C42.5058 13.3006 42.2385 16.015 42.7594 18.6337C43.2803 21.2525 44.5661 23.6579 46.4541 25.5459C48.3421 27.434 50.7475 28.7197 53.3663 29.2406C55.985 29.7615 58.6994 29.4942 61.1662 28.4724C63.633 27.4506 65.7414 25.7203 67.2248 23.5002C68.7082 21.2801 69.5 18.67 69.5 16C69.496 12.4208 68.0724 8.98932 65.5416 6.45844C63.0107 3.92756 59.5792 2.50397 56 2.5ZM49.625 24.3325C50.0174 23.8306 50.3741 23.3018 50.6925 22.75C50.7987 22.5792 50.8695 22.3889 50.9006 22.1902C50.9318 21.9916 50.9227 21.7887 50.8739 21.5936C50.825 21.3986 50.7375 21.2153 50.6164 21.0547C50.4954 20.8942 50.3432 20.7596 50.1691 20.659C49.995 20.5584 49.8025 20.4939 49.6029 20.4692C49.4033 20.4445 49.2009 20.4602 49.0075 20.5153C48.8141 20.5704 48.6338 20.6639 48.4772 20.7901C48.3207 20.9163 48.1911 21.0727 48.0963 21.25C47.9135 21.5631 47.7144 21.8664 47.5 22.1588C46.1977 20.3693 45.4962 18.2131 45.4962 16C45.4962 13.7869 46.1977 11.6307 47.5 9.84125C47.7144 10.1336 47.9135 10.4369 48.0963 10.75C48.1911 10.9273 48.3207 11.0837 48.4772 11.2099C48.6338 11.3361 48.8141 11.4296 49.0075 11.4847C49.2009 11.5398 49.4033 11.5555 49.6029 11.5308C49.8025 11.5061 49.995 11.4416 50.1691 11.341C50.3432 11.2404 50.4954 11.1058 50.6164 10.9453C50.7375 10.7847 50.825 10.6014 50.8739 10.4064C50.9227 10.2113 50.9318 10.0084 50.9006 9.80977C50.8695 9.61112 50.7987 9.42075 50.6925 9.25C50.3741 8.69817 50.0174 8.16937 49.625 7.6675C51.4544 6.262 53.6968 5.50006 56.0038 5.50006C58.3107 5.50006 60.5531 6.262 62.3825 7.6675C61.9875 8.16914 61.6283 8.69794 61.3075 9.25C61.2013 9.42075 61.1305 9.61112 61.0994 9.80977C61.0682 10.0084 61.0773 10.2113 61.1262 10.4064C61.175 10.6014 61.2625 10.7847 61.3836 10.9453C61.5047 11.1058 61.6568 11.2404 61.8309 11.341C62.005 11.4416 62.1975 11.5061 62.3971 11.5308C62.5967 11.5555 62.7992 11.5398 62.9925 11.4847C63.1859 11.4296 63.3662 11.3361 63.5228 11.2099C63.6793 11.0837 63.8089 10.9273 63.9038 10.75C64.0865 10.4369 64.2856 10.1336 64.5 9.84125C65.8023 11.6307 66.5039 13.7869 66.5039 16C66.5039 18.2131 65.8023 20.3693 64.5 22.1588C64.2868 21.8659 64.089 21.5622 63.9075 21.2488C63.8126 21.0715 63.6831 20.9151 63.5265 20.7889C63.37 20.6626 63.1897 20.5692 62.9963 20.5141C62.8029 20.4589 62.6004 20.4432 62.4009 20.4679C62.2013 20.4926 62.0087 20.5572 61.8346 20.6578C61.6605 20.7584 61.5084 20.8929 61.3873 21.0535C61.2663 21.2141 61.1787 21.3973 61.1299 21.5924C61.0811 21.7874 61.072 21.9903 61.1031 22.189C61.1343 22.3876 61.2051 22.578 61.3113 22.7488C61.6284 23.3009 61.9838 23.8301 62.375 24.3325C60.5456 25.738 58.3032 26.4999 55.9963 26.4999C53.6893 26.4999 51.4469 25.738 49.6175 24.3325H49.625ZM52.4 14.315C52.4678 14.8741 52.5012 15.4368 52.5 16C52.5 16.5633 52.4653 17.126 52.3963 17.685C52.3512 18.0478 52.1751 18.3817 51.9012 18.6238C51.6273 18.866 51.2744 18.9997 50.9088 19C50.8461 18.9999 50.7835 18.9962 50.7213 18.9888C50.3266 18.9394 49.9677 18.7354 49.7235 18.4215C49.4792 18.1077 49.3696 17.7097 49.4188 17.315C49.4728 16.8787 49.4999 16.4396 49.5 16C49.4999 15.5604 49.4728 15.1213 49.4188 14.685C49.3941 14.4895 49.4083 14.2911 49.4603 14.101C49.5124 13.911 49.6014 13.733 49.7222 13.5774C49.8431 13.4217 49.9934 13.2914 50.1646 13.1938C50.3358 13.0963 50.5245 13.0334 50.72 13.0087C50.9155 12.9841 51.114 12.9983 51.304 13.0503C51.494 13.1024 51.672 13.1914 51.8276 13.3122C51.9833 13.433 52.1136 13.5834 52.2112 13.7546C52.3087 13.9258 52.3716 14.1145 52.3963 14.31L52.4 14.315ZM61.2825 18.9888C61.2203 18.9962 61.1577 18.9999 61.095 19C60.7294 18.9997 60.3765 18.866 60.1026 18.6238C59.8286 18.3817 59.6526 18.0478 59.6075 17.685C59.4688 16.5643 59.4688 15.4307 59.6075 14.31C59.6321 14.1145 59.695 13.9258 59.7926 13.7546C59.8901 13.5834 60.0205 13.433 60.1761 13.3122C60.3318 13.1914 60.5097 13.1024 60.6998 13.0503C60.8898 12.9983 61.0883 12.9841 61.2838 13.0087C61.4793 13.0334 61.668 13.0963 61.8392 13.1938C62.0104 13.2914 62.1607 13.4217 62.2815 13.5774C62.4024 13.733 62.4914 13.911 62.5434 14.101C62.5955 14.2911 62.6096 14.4895 62.585 14.685C62.4771 15.5567 62.4771 16.4383 62.585 17.31C62.61 17.5061 62.596 17.7052 62.5438 17.8958C62.4916 18.0865 62.4023 18.2649 62.2809 18.4209C62.1595 18.577 62.0085 18.7074 61.8365 18.8049C61.6645 18.9023 61.475 18.9648 61.2788 18.9888H61.2825Z" fill="white"/>
</g>
<defs>
<clipPath id="clip0_27_4555">
<rect width="72" height="32" rx="5" fill="white"/>
</clipPath>
</defs>
</svg>
