<svg width="72" height="32" viewBox="0 0 72 32" fill="none" xmlns="http://www.w3.org/2000/svg">
<g clip-path="url(#clip0_27_821)">
<path d="M16 3C12.5534 3.00397 9.24911 4.37488 6.812 6.812C4.37488 9.24911 3.00397 12.5534 3 16V23C3 23.7956 3.31607 24.5587 3.87868 25.1213C4.44129 25.6839 5.20435 26 6 26C6.6373 25.9989 7.25785 25.7959 7.7725 25.42C9.29125 24.3162 11.95 23 16 23C20.05 23 22.7087 24.315 24.2262 25.4188C24.6733 25.7465 25.2024 25.944 25.7548 25.9893C26.3073 26.0345 26.8615 25.9259 27.3559 25.6754C27.8504 25.4249 28.2657 25.0422 28.556 24.57C28.8462 24.0977 28.9999 23.5543 29 23V16C28.996 12.5534 27.6251 9.24911 25.188 6.812C22.7509 4.37488 19.4466 3.00397 16 3ZM5 16C5.00346 13.4784 5.87171 11.0342 7.45982 9.07555C9.04793 7.11686 11.2598 5.76213 13.7262 5.2375C11.7445 8.08616 10.5042 11.3839 10.1175 14.8325C8.31657 15.3569 6.59505 16.123 5 17.11V16ZM27 23C27.003 23.1841 26.9536 23.3654 26.8576 23.5225C26.7615 23.6796 26.6228 23.8062 26.4575 23.8875C26.2912 23.9733 26.1042 24.0107 25.9177 23.9954C25.7312 23.9802 25.5527 23.9129 25.4025 23.8013C23.645 22.525 20.5875 21 16 21C11.4125 21 8.355 22.525 6.5975 23.8025C6.44733 23.9141 6.26885 23.9814 6.08235 23.9967C5.89585 24.0119 5.70881 23.9745 5.5425 23.8888C5.37704 23.8074 5.23816 23.6806 5.14209 23.5232C5.04602 23.3658 4.99674 23.1844 5 23V19.5088C6.88382 18.1633 8.99962 17.1768 11.2413 16.5987C11.2837 16.591 11.3254 16.5801 11.3663 16.5662C14.4106 15.8112 17.5932 15.8112 20.6375 16.5662C20.6785 16.58 20.7202 16.5913 20.7625 16.6C23.0029 17.1777 25.1174 18.1638 27 19.5088V23ZM27 17.1087C25.4049 16.1218 23.6834 15.3556 21.8825 14.8313C21.4956 11.3831 20.2553 8.0858 18.2738 5.2375C20.7402 5.76213 22.9521 7.11686 24.5402 9.07555C26.1283 11.0342 26.9965 13.4784 27 16V17.1087Z" fill="white"/>
<path d="M56 2.5C52.4208 2.50397 48.9893 3.92756 46.4585 6.45844C43.9276 8.98932 42.504 12.4208 42.5 16V23C42.4981 23.6451 42.6755 24.2781 43.0123 24.8284C43.3491 25.3786 43.8321 25.8245 44.4075 26.1162C44.9848 26.4112 45.6327 26.5401 46.2789 26.4885C46.9252 26.4368 47.5444 26.2067 48.0675 25.8237C49.525 24.7638 52.085 23.5 56 23.5C59.915 23.5 62.475 24.7625 63.9325 25.8225C64.4541 26.2044 65.0712 26.4343 65.7155 26.4868C66.3598 26.5394 67.0061 26.4125 67.5826 26.1202C68.1592 25.8279 68.6435 25.3816 68.982 24.8309C69.3204 24.2801 69.4997 23.6464 69.5 23V16C69.496 12.4208 68.0725 8.98932 65.5416 6.45844C63.0107 3.92756 59.5792 2.50397 56 2.5ZM66.5 16V16.2337C65.1806 15.4914 63.7856 14.8921 62.3388 14.4462C61.9589 11.4801 60.9603 8.62685 59.4075 6.07125C61.4752 6.78342 63.2696 8.12244 64.5408 9.90198C65.8119 11.6815 66.4968 13.8131 66.5 16ZM59.1925 13.735C57.0757 13.4217 54.9243 13.4217 52.8075 13.735C53.3272 11.0774 54.4163 8.56399 56 6.3675C57.5835 8.56413 58.6726 11.0775 59.1925 13.735ZM52.5925 6.07125C51.0397 8.62685 50.0411 11.4801 49.6613 14.4462C48.2145 14.8921 46.8195 15.4914 45.5 16.2337V16C45.5032 13.8131 46.1881 11.6815 47.4593 9.90198C48.7305 8.12244 50.5248 6.78342 52.5925 6.07125ZM66.2313 23.4463C66.147 23.4904 66.052 23.5096 65.9572 23.5016C65.8625 23.4937 65.7719 23.4589 65.6963 23.4013C63.875 22.0763 60.7213 20.5 56 20.5C51.2788 20.5 48.125 22.0762 46.3038 23.3975C46.2281 23.4551 46.1376 23.4899 46.0428 23.4979C45.9481 23.5059 45.853 23.4867 45.7688 23.4425C45.6856 23.4032 45.6157 23.3403 45.568 23.2616C45.5202 23.1829 45.4966 23.092 45.5 23V19.7675C48.5878 17.6389 52.2496 16.499 56 16.499C59.7504 16.499 63.4122 17.6389 66.5 19.7675V23C66.5035 23.092 66.4798 23.1829 66.4321 23.2616C66.3843 23.3403 66.3145 23.4032 66.2313 23.4425V23.4463Z" fill="white"/>
</g>
<defs>
<clipPath id="clip0_27_821">
<rect width="72" height="32" rx="5" fill="white"/>
</clipPath>
</defs>
</svg>
