<svg width="72" height="32" viewBox="0 0 72 32" fill="none" xmlns="http://www.w3.org/2000/svg">
<g clip-path="url(#clip0_27_826)">
<path d="M29.7501 10.3412C29.6565 10.2344 29.5412 10.1486 29.4118 10.0898C29.2825 10.0309 29.1421 10.0003 29.0001 10H23.4538L16.7501 2.34125C16.6562 2.23484 16.5408 2.14962 16.4115 2.09125C16.2822 2.03287 16.1419 2.00269 16.0001 2.00269C15.8582 2.00269 15.7179 2.03287 15.5886 2.09125C15.4593 2.14962 15.3439 2.23484 15.2501 2.34125L8.54632 10H3.00007C2.85755 9.99999 2.71667 10.0304 2.58689 10.0893C2.4571 10.1482 2.34139 10.2341 2.24753 10.3414C2.15366 10.4486 2.0838 10.5747 2.04263 10.7111C2.00146 10.8476 1.98993 10.9912 2.00882 11.1325L3.89257 25.265C3.95828 25.7446 4.1951 26.1844 4.5594 26.5032C4.92371 26.822 5.39096 26.9984 5.87507 27H26.1251C26.6092 26.9984 27.0764 26.822 27.4407 26.5032C27.805 26.1844 28.0419 25.7446 28.1076 25.265L29.9913 11.1325C30.0099 10.991 29.998 10.8472 29.9563 10.7108C29.9147 10.5743 29.8444 10.4483 29.7501 10.3412ZM10.2001 23C10.1663 23.0019 10.1325 23.0019 10.0988 23C9.85005 23.0012 9.60975 22.9097 9.42484 22.7433C9.23993 22.5769 9.12369 22.3475 9.09882 22.1L8.39882 15.1C8.3723 14.8361 8.45169 14.5725 8.61953 14.3671C8.78738 14.1618 9.02993 14.0315 9.29382 14.005C9.55771 13.9785 9.82132 14.0579 10.0267 14.2257C10.232 14.3936 10.3623 14.6361 10.3888 14.9L11.0888 21.9C11.1168 22.1637 11.0389 22.4278 10.8722 22.6341C10.7056 22.8403 10.4638 22.972 10.2001 23ZM17.0001 22C17.0001 22.2652 16.8947 22.5196 16.7072 22.7071C16.5196 22.8946 16.2653 23 16.0001 23C15.7348 23 15.4805 22.8946 15.293 22.7071C15.1054 22.5196 15.0001 22.2652 15.0001 22V15C15.0001 14.7348 15.1054 14.4804 15.293 14.2929C15.4805 14.1054 15.7348 14 16.0001 14C16.2653 14 16.5196 14.1054 16.7072 14.2929C16.8947 14.4804 17.0001 14.7348 17.0001 15V22ZM11.2038 10L16.0001 4.51875L20.7963 10H11.2038ZM23.5951 15.1L22.8951 22.1C22.8703 22.3464 22.7549 22.5749 22.5714 22.7412C22.3878 22.9075 22.149 22.9997 21.9013 23C21.8676 23.0019 21.8338 23.0019 21.8001 23C21.6694 22.9869 21.5426 22.9481 21.4269 22.886C21.3112 22.8239 21.2089 22.7395 21.1258 22.6379C21.0427 22.5362 20.9804 22.4191 20.9425 22.2934C20.9047 22.1676 20.8919 22.0357 20.9051 21.905L21.6051 14.905C21.6316 14.6411 21.7619 14.3986 21.9672 14.2307C22.1726 14.0629 22.4362 13.9835 22.7001 14.01C22.964 14.0365 23.2065 14.1668 23.3743 14.3721C23.5422 14.5775 23.6216 14.8411 23.5951 15.105V15.1Z" fill="white"/>
<path d="M57.5001 16V21C57.5001 21.3978 57.342 21.7793 57.0607 22.0607C56.7794 22.342 56.3979 22.5 56.0001 22.5C55.6023 22.5 55.2207 22.342 54.9394 22.0607C54.6581 21.7793 54.5001 21.3978 54.5001 21V16C54.5001 15.6022 54.6581 15.2206 54.9394 14.9393C55.2207 14.658 55.6023 14.5 56.0001 14.5C56.3979 14.5 56.7794 14.658 57.0607 14.9393C57.342 15.2206 57.5001 15.6022 57.5001 16ZM61.0076 15.8512L60.5076 20.8512C60.4682 21.2471 60.5876 21.6424 60.8396 21.9501C61.0916 22.2579 61.4555 22.453 61.8513 22.4925C61.9013 22.4925 61.9526 22.5 62.0013 22.5C62.3732 22.4997 62.7316 22.3612 63.0072 22.1115C63.2827 21.8619 63.4557 21.5187 63.4926 21.1487L63.9926 16.1487C64.0271 15.7555 63.9051 15.3645 63.6533 15.0606C63.4014 14.7567 63.0399 14.5643 62.6471 14.5251C62.2543 14.486 61.8619 14.6032 61.555 14.8515C61.2481 15.0997 61.0514 15.4589 61.0076 15.8512ZM50.9926 15.8512C50.9488 15.4589 50.7521 15.0997 50.4452 14.8515C50.1383 14.6032 49.7459 14.486 49.3531 14.5251C48.9603 14.5643 48.5988 14.7567 48.3469 15.0606C48.095 15.3645 47.9731 15.7555 48.0076 16.1487L48.5076 21.1487C48.5445 21.519 48.7176 21.8623 48.9935 22.112C49.2693 22.3617 49.628 22.5 50.0001 22.5C50.0488 22.5 50.1001 22.5 50.1501 22.4925C50.5459 22.453 50.9098 22.2579 51.1618 21.9501C51.4138 21.6424 51.5333 21.2471 51.4938 20.8512L50.9926 15.8512ZM70.4926 11.1987L68.6088 25.3237C68.5286 25.9258 68.2326 26.4782 67.7758 26.8785C67.319 27.2787 66.7324 27.4996 66.1251 27.5H45.8751C45.2698 27.4983 44.6855 27.2776 44.2301 26.8788C43.7748 26.4799 43.4791 25.9298 43.3976 25.33L41.5138 11.205C41.4845 10.9927 41.5011 10.7765 41.5624 10.5712C41.6236 10.3658 41.7282 10.1759 41.869 10.0144C42.0099 9.85279 42.1837 9.72328 42.3788 9.63456C42.5739 9.54583 42.7858 9.49995 43.0001 9.49999H48.3188L54.8751 2.01249C55.0159 1.85163 55.1894 1.72272 55.3841 1.6344C55.5788 1.54607 55.7901 1.50038 56.0038 1.50038C56.2176 1.50038 56.4289 1.54607 56.6236 1.6344C56.8182 1.72272 56.9918 1.85163 57.1326 2.01249L63.6813 9.49999H69.0001C69.2138 9.50007 69.425 9.54581 69.6197 9.63417C69.8143 9.72252 69.9877 9.85144 70.1285 10.0123C70.2692 10.1731 70.3739 10.3622 70.4357 10.5668C70.4974 10.7715 70.5146 10.9869 70.4863 11.1987H70.4926ZM52.3063 9.49999H59.6938L56.0001 5.27749L52.3063 9.49999ZM67.2863 12.5H44.7138L46.3138 24.5H65.6888L67.2863 12.5Z" fill="white"/>
</g>
<defs>
<clipPath id="clip0_27_826">
<rect width="72" height="32" rx="5" fill="white"/>
</clipPath>
</defs>
</svg>
