<svg width="72" height="32" viewBox="0 0 72 32" fill="none" xmlns="http://www.w3.org/2000/svg">
<g clip-path="url(#clip0_27_4565)">
<path d="M7.94968 5.79875C9.82442 4.31299 12.0745 3.3762 14.4497 3.0925C14.5199 3.08455 14.591 3.09157 14.6583 3.11312C14.7256 3.13466 14.7876 3.17022 14.8402 3.21747C14.8927 3.26472 14.9347 3.32257 14.9633 3.38721C14.9918 3.45186 15.0064 3.52183 15.0059 3.5925V15H11.9622C11.7137 11.7802 10.2731 8.76896 7.92218 6.555C7.86958 6.50612 7.82813 6.44648 7.80065 6.38015C7.77316 6.31381 7.76028 6.24234 7.76289 6.17058C7.7655 6.09883 7.78354 6.02848 7.81577 5.96431C7.848 5.90015 7.89367 5.84368 7.94968 5.79875ZM5.74968 8.00875C4.29162 9.86954 3.37122 12.0942 3.08843 14.4412C3.08009 14.5117 3.08683 14.5831 3.1082 14.6507C3.12957 14.7183 3.16507 14.7806 3.21236 14.8334C3.25965 14.8863 3.31764 14.9285 3.38247 14.9572C3.44731 14.9859 3.51752 15.0005 3.58843 15H9.95343C9.70675 12.3024 8.47181 9.7911 6.48593 7.94875C6.43506 7.90138 6.37487 7.86513 6.30921 7.84233C6.24354 7.81953 6.17384 7.81067 6.10456 7.81631C6.03528 7.82196 5.96794 7.84199 5.90683 7.87512C5.84573 7.90826 5.7922 7.95377 5.74968 8.00875ZM24.0497 5.79875C22.1749 4.31299 19.9249 3.3762 17.5497 3.0925C17.4794 3.08455 17.4083 3.09157 17.341 3.11312C17.2737 3.13466 17.2117 3.17022 17.1592 3.21747C17.1066 3.26472 17.0647 3.32257 17.0361 3.38721C17.0075 3.45186 16.993 3.52183 16.9934 3.5925V15H20.0309C20.2794 11.7802 21.72 8.76896 24.0709 6.555C24.1239 6.50656 24.1658 6.44728 24.1938 6.38119C24.2218 6.31511 24.2353 6.24376 24.2333 6.17201C24.2312 6.10027 24.2138 6.02979 24.1821 5.96538C24.1504 5.90098 24.1053 5.84414 24.0497 5.79875ZM28.9072 14.4412C28.6255 12.0946 27.7064 9.86995 26.2497 8.00875C26.2072 7.95435 26.1538 7.90935 26.0931 7.87658C26.0323 7.84381 25.9654 7.82398 25.8966 7.81835C25.8277 7.81271 25.7585 7.82139 25.6932 7.84383C25.6279 7.86627 25.568 7.902 25.5172 7.94875C23.5299 9.7905 22.2936 12.3019 22.0459 15H28.4097C28.4804 15.0001 28.5503 14.9853 28.6148 14.9564C28.6794 14.9275 28.7371 14.8853 28.7841 14.8325C28.8311 14.7797 28.8664 14.7175 28.8876 14.6501C28.9088 14.5826 28.9155 14.5115 28.9072 14.4412ZM3.09218 17.5588C3.37388 19.9054 4.29296 22.13 5.74968 23.9912C5.7922 24.0456 5.84553 24.0906 5.9063 24.1234C5.96707 24.1562 6.03397 24.176 6.10279 24.1817C6.1716 24.1873 6.24084 24.1786 6.30613 24.1562C6.37143 24.1337 6.43137 24.098 6.48218 24.0513C8.46945 22.2095 9.70576 19.6981 9.95343 17H3.58968C3.51898 16.9999 3.44905 17.0147 3.38451 17.0436C3.31998 17.0725 3.2623 17.1147 3.21528 17.1675C3.16827 17.2203 3.13299 17.2825 3.11177 17.3499C3.09055 17.4174 3.08387 17.4885 3.09218 17.5588ZM26.2497 23.9912C27.7077 22.1305 28.6281 19.9058 28.9109 17.5588C28.9193 17.4883 28.9125 17.4169 28.8912 17.3493C28.8698 17.2817 28.8343 17.2194 28.787 17.1666C28.7397 17.1137 28.6817 17.0715 28.6169 17.0428C28.552 17.0141 28.4818 16.9995 28.4109 17H22.0459C22.2926 19.6976 23.5275 22.2089 25.5134 24.0513C25.5643 24.0986 25.6245 24.1349 25.6901 24.1577C25.7558 24.1805 25.8255 24.1893 25.8948 24.1837C25.9641 24.178 26.0314 24.158 26.0925 24.1249C26.1536 24.0917 26.2071 24.0462 26.2497 23.9912ZM7.94968 26.2013C9.82442 27.687 12.0745 28.6238 14.4497 28.9075C14.5199 28.9155 14.591 28.9084 14.6583 28.8869C14.7256 28.8653 14.7876 28.8298 14.8402 28.7825C14.8927 28.7353 14.9347 28.6774 14.9633 28.6128C14.9918 28.5481 15.0064 28.4782 15.0059 28.4075V17H11.9622C11.7137 20.2198 10.2731 23.231 7.92218 25.445C7.86958 25.4939 7.82813 25.5535 7.80065 25.6199C7.77316 25.6862 7.76028 25.7577 7.76289 25.8294C7.7655 25.9012 7.78354 25.9715 7.81577 26.0357C7.848 26.0998 7.89367 26.1563 7.94968 26.2013ZM20.0372 17H16.9997V28.41C16.9992 28.4807 17.0138 28.5506 17.0423 28.6153C17.0709 28.6799 17.1129 28.7378 17.1654 28.785C17.218 28.8323 17.28 28.8678 17.3473 28.8894C17.4146 28.9109 17.4857 28.918 17.5559 28.91C19.9311 28.6263 22.1812 27.6895 24.0559 26.2038C24.1119 26.1588 24.1576 26.1024 24.1898 26.0382C24.2221 25.974 24.2401 25.9037 24.2427 25.8319C24.2453 25.7602 24.2324 25.6887 24.205 25.6224C24.1775 25.556 24.136 25.4964 24.0834 25.4475C21.7296 23.2339 20.2867 20.2215 20.0372 17Z" fill="white"/>
<path d="M56 2.5C53.33 2.5 50.7199 3.29176 48.4998 4.77516C46.2797 6.25856 44.5494 8.36697 43.5276 10.8338C42.5058 13.3006 42.2385 16.015 42.7594 18.6337C43.2803 21.2525 44.5661 23.6579 46.4541 25.5459C48.3421 27.434 50.7475 28.7197 53.3663 29.2406C55.985 29.7615 58.6994 29.4942 61.1662 28.4724C63.633 27.4506 65.7414 25.7203 67.2248 23.5002C68.7082 21.2801 69.5 18.67 69.5 16C69.496 12.4208 68.0724 8.98932 65.5416 6.45844C63.0107 3.92756 59.5792 2.50397 56 2.5ZM47.5 22.16C46.4996 20.7838 45.8504 19.1841 45.6088 17.5H49.3925C49.1529 19.1849 48.5031 20.7852 47.5 22.16ZM45.6088 14.5C45.8504 12.8159 46.4996 11.2162 47.5 9.84C48.5031 11.2148 49.1529 12.8151 49.3925 14.5H45.6088ZM54.5 26.3913C52.7254 26.1348 51.0467 25.4263 49.625 24.3337C51.1789 22.3631 52.1466 19.9949 52.4175 17.5H54.5V26.3913ZM54.5 14.5H52.4175C52.1466 12.0051 51.1789 9.63688 49.625 7.66625C51.0467 6.5737 52.7254 5.86516 54.5 5.60875V14.5ZM64.5 9.84C65.5004 11.2162 66.1496 12.8159 66.3913 14.5H62.6075C62.8471 12.8151 63.497 11.2148 64.5 9.84ZM57.5 26.3913V17.5H59.5825C59.8534 19.9949 60.8212 22.3631 62.375 24.3337C60.9533 25.4263 59.2746 26.1348 57.5 26.3913ZM59.5825 14.5H57.5V5.60875C59.2746 5.86516 60.9533 6.5737 62.375 7.66625C60.8212 9.63688 59.8534 12.0051 59.5825 14.5ZM64.5 22.16C63.497 20.7852 62.8471 19.1849 62.6075 17.5H66.3913C66.1496 19.1841 65.5004 20.7838 64.5 22.16Z" fill="white"/>
</g>
<defs>
<clipPath id="clip0_27_4565">
<rect width="72" height="32" rx="5" fill="white"/>
</clipPath>
</defs>
</svg>
