<svg width="72" height="32" viewBox="0 0 72 32" fill="none" xmlns="http://www.w3.org/2000/svg">
<g clip-path="url(#clip0_27_2390)">
<path d="M14 12V20C14 20.2652 13.8946 20.5196 13.7071 20.7071C13.5196 20.8946 13.2652 21 13 21H6C5.73478 21 5.48043 20.8946 5.29289 20.7071C5.10536 20.5196 5 20.2652 5 20V12C5 11.7348 5.10536 11.4804 5.29289 11.2929C5.48043 11.1054 5.73478 11 6 11H13C13.2652 11 13.5196 11.1054 13.7071 11.2929C13.8946 11.4804 14 11.7348 14 12ZM28 10V22C28 22.7956 27.6839 23.5587 27.1213 24.1213C26.5587 24.6839 25.7956 25 25 25H4C3.20435 25 2.44129 24.6839 1.87868 24.1213C1.31607 23.5587 1 22.7956 1 22V10C1 9.20435 1.31607 8.44129 1.87868 7.87868C2.44129 7.31607 3.20435 7 4 7H25C25.7956 7 26.5587 7.31607 27.1213 7.87868C27.6839 8.44129 28 9.20435 28 10ZM26 10C26 9.73478 25.8946 9.48043 25.7071 9.29289C25.5196 9.10536 25.2652 9 25 9H4C3.73478 9 3.48043 9.10536 3.29289 9.29289C3.10536 9.48043 3 9.73478 3 10V22C3 22.2652 3.10536 22.5196 3.29289 22.7071C3.48043 22.8946 3.73478 23 4 23H25C25.2652 23 25.5196 22.8946 25.7071 22.7071C25.8946 22.5196 26 22.2652 26 22V10ZM31 11C30.7348 11 30.4804 11.1054 30.2929 11.2929C30.1054 11.4804 30 11.7348 30 12V20C30 20.2652 30.1054 20.5196 30.2929 20.7071C30.4804 20.8946 30.7348 21 31 21C31.2652 21 31.5196 20.8946 31.7071 20.7071C31.8946 20.5196 32 20.2652 32 20V12C32 11.7348 31.8946 11.4804 31.7071 11.2929C31.5196 11.1054 31.2652 11 31 11Z" fill="white"/>
<path d="M64.5 6.5H43.5C42.5717 6.5 41.6815 6.86875 41.0251 7.52513C40.3687 8.1815 40 9.07174 40 10V22C40 22.9283 40.3687 23.8185 41.0251 24.4749C41.6815 25.1313 42.5717 25.5 43.5 25.5H64.5C65.4283 25.5 66.3185 25.1313 66.9749 24.4749C67.6313 23.8185 68 22.9283 68 22V10C68 9.07174 67.6313 8.1815 66.9749 7.52513C66.3185 6.86875 65.4283 6.5 64.5 6.5ZM65 22C65 22.1326 64.9473 22.2598 64.8536 22.3536C64.7598 22.4473 64.6326 22.5 64.5 22.5H43.5C43.3674 22.5 43.2402 22.4473 43.1464 22.3536C43.0527 22.2598 43 22.1326 43 22V10C43 9.86739 43.0527 9.74021 43.1464 9.64645C43.2402 9.55268 43.3674 9.5 43.5 9.5H64.5C64.6326 9.5 64.7598 9.55268 64.8536 9.64645C64.9473 9.74021 65 9.86739 65 10V22ZM53 13V19C53 19.3978 52.842 19.7794 52.5607 20.0607C52.2794 20.342 51.8978 20.5 51.5 20.5C51.1022 20.5 50.7206 20.342 50.4393 20.0607C50.158 19.7794 50 19.3978 50 19V13C50 12.6022 50.158 12.2206 50.4393 11.9393C50.7206 11.658 51.1022 11.5 51.5 11.5C51.8978 11.5 52.2794 11.658 52.5607 11.9393C52.842 12.2206 53 12.6022 53 13ZM48 13V19C48 19.3978 47.842 19.7794 47.5607 20.0607C47.2794 20.342 46.8978 20.5 46.5 20.5C46.1022 20.5 45.7206 20.342 45.4393 20.0607C45.158 19.7794 45 19.3978 45 19V13C45 12.6022 45.158 12.2206 45.4393 11.9393C45.7206 11.658 46.1022 11.5 46.5 11.5C46.8978 11.5 47.2794 11.658 47.5607 11.9393C47.842 12.2206 48 12.6022 48 13ZM72 13V19C72 19.3978 71.842 19.7794 71.5607 20.0607C71.2794 20.342 70.8978 20.5 70.5 20.5C70.1022 20.5 69.7206 20.342 69.4393 20.0607C69.158 19.7794 69 19.3978 69 19V13C69 12.6022 69.158 12.2206 69.4393 11.9393C69.7206 11.658 70.1022 11.5 70.5 11.5C70.8978 11.5 71.2794 11.658 71.5607 11.9393C71.842 12.2206 72 12.6022 72 13Z" fill="white"/>
</g>
<defs>
<clipPath id="clip0_27_2390">
<rect width="72" height="32" rx="5" fill="white"/>
</clipPath>
</defs>
</svg>
