<svg width="72" height="32" viewBox="0 0 72 32" fill="none" xmlns="http://www.w3.org/2000/svg">
<g clip-path="url(#clip0_27_2360)">
<path d="M32 12V20C32 20.2652 31.8946 20.5196 31.7071 20.7071C31.5196 20.8946 31.2652 21 31 21C30.7348 21 30.4804 20.8946 30.2929 20.7071C30.1054 20.5196 30 20.2652 30 20V12C30 11.7348 30.1054 11.4804 30.2929 11.2929C30.4804 11.1054 30.7348 11 31 11C31.2652 11 31.5196 11.1054 31.7071 11.2929C31.8946 11.4804 32 11.7348 32 12ZM28 10V22C28 22.7956 27.6839 23.5587 27.1213 24.1213C26.5587 24.6839 25.7956 25 25 25H4C3.20435 25 2.44129 24.6839 1.87868 24.1213C1.31607 23.5587 1 22.7956 1 22V10C1 9.20435 1.31607 8.44129 1.87868 7.87868C2.44129 7.31607 3.20435 7 4 7H25C25.7956 7 26.5587 7.31607 27.1213 7.87868C27.6839 8.44129 28 9.20435 28 10ZM17.3512 15.4738C17.2615 15.3288 17.1362 15.2091 16.9872 15.1262C16.8382 15.0433 16.6705 14.9998 16.5 15H14.1175L15.395 12.4475C15.4538 12.33 15.4888 12.202 15.4981 12.0709C15.5074 11.9399 15.4908 11.8082 15.4493 11.6836C15.4077 11.5589 15.342 11.4436 15.2559 11.3444C15.1698 11.2451 15.065 11.1638 14.9475 11.105C14.83 11.0462 14.702 11.0112 14.5709 11.0019C14.4399 10.9926 14.3082 11.0092 14.1836 11.0507C14.0589 11.0923 13.9436 11.158 13.8444 11.2441C13.7451 11.3302 13.6638 11.435 13.605 11.5525L11.605 15.5525C11.5287 15.705 11.4926 15.8745 11.5003 16.0449C11.5079 16.2153 11.559 16.3808 11.6487 16.5259C11.7384 16.671 11.8637 16.7907 12.0127 16.8736C12.1617 16.9566 12.3295 17.0001 12.5 17H14.8825L13.605 19.5525C13.5462 19.67 13.5112 19.798 13.5019 19.9291C13.4926 20.0601 13.5092 20.1918 13.5507 20.3164C13.5923 20.4411 13.658 20.5563 13.7441 20.6556C13.8302 20.7549 13.935 20.8362 14.0525 20.895C14.2899 21.0137 14.5647 21.0332 14.8164 20.9493C14.9411 20.9077 15.0564 20.842 15.1556 20.7559C15.2549 20.6698 15.3362 20.565 15.395 20.4475L17.395 16.4475C17.4714 16.2949 17.5075 16.1254 17.4998 15.9549C17.4921 15.7845 17.441 15.6188 17.3512 15.4738Z" fill="white"/>
<path d="M64.5 6.5H43.5C42.5717 6.5 41.6815 6.86875 41.0251 7.52513C40.3687 8.1815 40 9.07174 40 10V22C40 22.9283 40.3687 23.8185 41.0251 24.4749C41.6815 25.1313 42.5717 25.5 43.5 25.5H64.5C65.4283 25.5 66.3185 25.1313 66.9749 24.4749C67.6313 23.8185 68 22.9283 68 22V10C68 9.07174 67.6313 8.1815 66.9749 7.52513C66.3185 6.86875 65.4283 6.5 64.5 6.5ZM65 22C65 22.1326 64.9473 22.2598 64.8536 22.3536C64.7598 22.4473 64.6326 22.5 64.5 22.5H43.5C43.3674 22.5 43.2402 22.4473 43.1464 22.3536C43.0527 22.2598 43 22.1326 43 22V10C43 9.86739 43.0527 9.74021 43.1464 9.64645C43.2402 9.55268 43.3674 9.5 43.5 9.5H64.5C64.6326 9.5 64.7598 9.55268 64.8536 9.64645C64.9473 9.74021 65 9.86739 65 10V22ZM72 13V19C72 19.3978 71.842 19.7794 71.5607 20.0607C71.2794 20.342 70.8978 20.5 70.5 20.5C70.1022 20.5 69.7206 20.342 69.4393 20.0607C69.158 19.7794 69 19.3978 69 19V13C69 12.6022 69.158 12.2206 69.4393 11.9393C69.7206 11.658 70.1022 11.5 70.5 11.5C70.8978 11.5 71.2794 11.658 71.5607 11.9393C71.842 12.2206 72 12.6022 72 13ZM57.7975 15.25C57.9292 15.478 57.9985 15.7367 57.9985 16C57.9985 16.2633 57.9292 16.522 57.7975 16.75L55.7975 20.25C55.7012 20.4236 55.5713 20.5763 55.4155 20.6993C55.2597 20.8223 55.0811 20.9132 54.8899 20.9666C54.6987 21.0201 54.4988 21.035 54.3018 21.0107C54.1048 20.9863 53.9146 20.923 53.7422 20.8246C53.5698 20.7262 53.4187 20.5945 53.2976 20.4372C53.1764 20.2799 53.0877 20.1002 53.0366 19.9084C52.9855 19.7166 52.9729 19.5165 52.9997 19.3198C53.0264 19.1231 53.092 18.9337 53.1925 18.7625L53.915 17.5H52.5C52.2364 17.5006 51.9773 17.4317 51.7488 17.3003C51.5203 17.1689 51.3304 16.9796 51.1984 16.7515C51.0663 16.5234 50.9967 16.2645 50.9965 16.0009C50.9964 15.7373 51.0657 15.4783 51.1975 15.25L53.1975 11.75C53.296 11.579 53.4272 11.429 53.5837 11.3086C53.7401 11.1883 53.9187 11.1 54.1093 11.0487C54.2999 10.9974 54.4987 10.9841 54.6945 11.0096C54.8902 11.0352 55.079 11.099 55.25 11.1975C55.421 11.296 55.571 11.4272 55.6914 11.5837C55.8117 11.7401 55.9 11.9187 55.9513 12.1093C56.0026 12.2999 56.0159 12.4987 55.9904 12.6945C55.9648 12.8902 55.901 13.079 55.8025 13.25L55.085 14.5H56.5C56.763 14.5003 57.0214 14.5697 57.2491 14.7013C57.4769 14.833 57.666 15.0222 57.7975 15.25Z" fill="white"/>
</g>
<defs>
<clipPath id="clip0_27_2360">
<rect width="72" height="32" rx="5" fill="white"/>
</clipPath>
</defs>
</svg>
