<svg width="72" height="32" viewBox="0 0 72 32" fill="none" xmlns="http://www.w3.org/2000/svg">
<g clip-path="url(#clip0_27_2410)">
<path d="M11 1C11 0.734784 11.1054 0.48043 11.2929 0.292893C11.4804 0.105357 11.7348 0 12 0L20 0C20.2652 0 20.5196 0.105357 20.7071 0.292893C20.8946 0.48043 21 0.734784 21 1C21 1.26522 20.8946 1.51957 20.7071 1.70711C20.5196 1.89464 20.2652 2 20 2H12C11.7348 2 11.4804 1.89464 11.2929 1.70711C11.1054 1.51957 11 1.26522 11 1ZM25 7V28C25 28.7956 24.6839 29.5587 24.1213 30.1213C23.5587 30.6839 22.7956 31 22 31H10C9.20435 31 8.44129 30.6839 7.87868 30.1213C7.31607 29.5587 7 28.7956 7 28V7C7 6.20435 7.31607 5.44129 7.87868 4.87868C8.44129 4.31607 9.20435 4 10 4H22C22.7956 4 23.5587 4.31607 24.1213 4.87868C24.6839 5.44129 25 6.20435 25 7ZM23 7C23 6.73478 22.8946 6.48043 22.7071 6.29289C22.5196 6.10536 22.2652 6 22 6H10C9.73478 6 9.48043 6.10536 9.29289 6.29289C9.10536 6.48043 9 6.73478 9 7V28C9 28.2652 9.10536 28.5196 9.29289 28.7071C9.48043 28.8946 9.73478 29 10 29H22C22.2652 29 22.5196 28.8946 22.7071 28.7071C22.8946 28.5196 23 28.2652 23 28V7ZM20 8H12C11.7348 8 11.4804 8.10536 11.2929 8.29289C11.1054 8.48043 11 8.73478 11 9V26C11 26.2652 11.1054 26.5196 11.2929 26.7071C11.4804 26.8946 11.7348 27 12 27H20C20.2652 27 20.5196 26.8946 20.7071 26.7071C20.8946 26.5196 21 26.2652 21 26V9C21 8.73478 20.8946 8.48043 20.7071 8.29289C20.5196 8.10536 20.2652 8 20 8Z" fill="white"/>
<path d="M51.5 1.5C51.5 1.10218 51.658 0.720644 51.9393 0.43934C52.2206 0.158035 52.6022 0 53 0L59 0C59.3978 0 59.7794 0.158035 60.0607 0.43934C60.342 0.720644 60.5 1.10218 60.5 1.5C60.5 1.89782 60.342 2.27936 60.0607 2.56066C59.7794 2.84196 59.3978 3 59 3H53C52.6022 3 52.2206 2.84196 51.9393 2.56066C51.658 2.27936 51.5 1.89782 51.5 1.5ZM65.5 7.5V28.5C65.5 29.4283 65.1313 30.3185 64.4749 30.9749C63.8185 31.6313 62.9283 32 62 32H50C49.0717 32 48.1815 31.6313 47.5251 30.9749C46.8687 30.3185 46.5 29.4283 46.5 28.5V7.5C46.5 6.57174 46.8687 5.6815 47.5251 5.02513C48.1815 4.36875 49.0717 4 50 4H62C62.9283 4 63.8185 4.36875 64.4749 5.02513C65.1313 5.6815 65.5 6.57174 65.5 7.5ZM62.5 7.5C62.5 7.36739 62.4473 7.24021 62.3536 7.14645C62.2598 7.05268 62.1326 7 62 7H50C49.8674 7 49.7402 7.05268 49.6464 7.14645C49.5527 7.24021 49.5 7.36739 49.5 7.5V28.5C49.5 28.6326 49.5527 28.7598 49.6464 28.8536C49.7402 28.9473 49.8674 29 50 29H62C62.1326 29 62.2598 28.9473 62.3536 28.8536C62.4473 28.7598 62.5 28.6326 62.5 28.5V7.5ZM59.5 9H52.5C52.1022 9 51.7206 9.15804 51.4393 9.43934C51.158 9.72064 51 10.1022 51 10.5C51 10.8978 51.158 11.2794 51.4393 11.5607C51.7206 11.842 52.1022 12 52.5 12H59.5C59.8978 12 60.2794 11.842 60.5607 11.5607C60.842 11.2794 61 10.8978 61 10.5C61 10.1022 60.842 9.72064 60.5607 9.43934C60.2794 9.15804 59.8978 9 59.5 9ZM59.5 14H52.5C52.1022 14 51.7206 14.158 51.4393 14.4393C51.158 14.7206 51 15.1022 51 15.5C51 15.8978 51.158 16.2794 51.4393 16.5607C51.7206 16.842 52.1022 17 52.5 17H59.5C59.8978 17 60.2794 16.842 60.5607 16.5607C60.842 16.2794 61 15.8978 61 15.5C61 15.1022 60.842 14.7206 60.5607 14.4393C60.2794 14.158 59.8978 14 59.5 14ZM59.5 19H52.5C52.1022 19 51.7206 19.158 51.4393 19.4393C51.158 19.7206 51 20.1022 51 20.5C51 20.8978 51.158 21.2794 51.4393 21.5607C51.7206 21.842 52.1022 22 52.5 22H59.5C59.8978 22 60.2794 21.842 60.5607 21.5607C60.842 21.2794 61 20.8978 61 20.5C61 20.1022 60.842 19.7206 60.5607 19.4393C60.2794 19.158 59.8978 19 59.5 19ZM59.5 24H52.5C52.1022 24 51.7206 24.158 51.4393 24.4393C51.158 24.7206 51 25.1022 51 25.5C51 25.8978 51.158 26.2794 51.4393 26.5607C51.7206 26.842 52.1022 27 52.5 27H59.5C59.8978 27 60.2794 26.842 60.5607 26.5607C60.842 26.2794 61 25.8978 61 25.5C61 25.1022 60.842 24.7206 60.5607 24.4393C60.2794 24.158 59.8978 24 59.5 24Z" fill="white"/>
</g>
<defs>
<clipPath id="clip0_27_2410">
<rect width="72" height="32" rx="5" fill="white"/>
</clipPath>
</defs>
</svg>
