<svg width="72" height="32" viewBox="0 0 72 32" fill="none" xmlns="http://www.w3.org/2000/svg">
<g clip-path="url(#clip0_27_2395)">
<path d="M25 7H4C3.20435 7 2.44129 7.31607 1.87868 7.87868C1.31607 8.44129 1 9.20435 1 10V22C1 22.7956 1.31607 23.5587 1.87868 24.1213C2.44129 24.6839 3.20435 25 4 25H25C25.7956 25 26.5587 24.6839 27.1213 24.1213C27.6839 23.5587 28 22.7956 28 22V10C28 9.20435 27.6839 8.44129 27.1213 7.87868C26.5587 7.31607 25.7956 7 25 7ZM18 17H15.5V19.5C15.5 19.7652 15.3946 20.0196 15.2071 20.2071C15.0196 20.3946 14.7652 20.5 14.5 20.5C14.2348 20.5 13.9804 20.3946 13.7929 20.2071C13.6054 20.0196 13.5 19.7652 13.5 19.5V17H11C10.7348 17 10.4804 16.8946 10.2929 16.7071C10.1054 16.5196 10 16.2652 10 16C10 15.7348 10.1054 15.4804 10.2929 15.2929C10.4804 15.1054 10.7348 15 11 15H13.5V12.5C13.5 12.2348 13.6054 11.9804 13.7929 11.7929C13.9804 11.6054 14.2348 11.5 14.5 11.5C14.7652 11.5 15.0196 11.6054 15.2071 11.7929C15.3946 11.9804 15.5 12.2348 15.5 12.5V15H18C18.2652 15 18.5196 15.1054 18.7071 15.2929C18.8946 15.4804 19 15.7348 19 16C19 16.2652 18.8946 16.5196 18.7071 16.7071C18.5196 16.8946 18.2652 17 18 17ZM32 12V20C32 20.2652 31.8946 20.5196 31.7071 20.7071C31.5196 20.8946 31.2652 21 31 21C30.7348 21 30.4804 20.8946 30.2929 20.7071C30.1054 20.5196 30 20.2652 30 20V12C30 11.7348 30.1054 11.4804 30.2929 11.2929C30.4804 11.1054 30.7348 11 31 11C31.2652 11 31.5196 11.1054 31.7071 11.2929C31.8946 11.4804 32 11.7348 32 12Z" fill="white"/>
<path d="M59 16C59 16.3978 58.842 16.7794 58.5607 17.0607C58.2794 17.342 57.8978 17.5 57.5 17.5H56V19C56 19.3978 55.842 19.7794 55.5607 20.0607C55.2794 20.342 54.8978 20.5 54.5 20.5C54.1022 20.5 53.7206 20.342 53.4393 20.0607C53.158 19.7794 53 19.3978 53 19V17.5H51.5C51.1022 17.5 50.7206 17.342 50.4393 17.0607C50.158 16.7794 50 16.3978 50 16C50 15.6022 50.158 15.2206 50.4393 14.9393C50.7206 14.658 51.1022 14.5 51.5 14.5H53V13C53 12.6022 53.158 12.2206 53.4393 11.9393C53.7206 11.658 54.1022 11.5 54.5 11.5C54.8978 11.5 55.2794 11.658 55.5607 11.9393C55.842 12.2206 56 12.6022 56 13V14.5H57.5C57.8978 14.5 58.2794 14.658 58.5607 14.9393C58.842 15.2206 59 15.6022 59 16ZM68 10V22C68 22.9283 67.6313 23.8185 66.9749 24.4749C66.3185 25.1313 65.4283 25.5 64.5 25.5H43.5C42.5717 25.5 41.6815 25.1313 41.0251 24.4749C40.3687 23.8185 40 22.9283 40 22V10C40 9.07174 40.3687 8.1815 41.0251 7.52513C41.6815 6.86875 42.5717 6.5 43.5 6.5H64.5C65.4283 6.5 66.3185 6.86875 66.9749 7.52513C67.6313 8.1815 68 9.07174 68 10ZM65 10C65 9.86739 64.9473 9.74021 64.8536 9.64645C64.7598 9.55268 64.6326 9.5 64.5 9.5H43.5C43.3674 9.5 43.2402 9.55268 43.1464 9.64645C43.0527 9.74021 43 9.86739 43 10V22C43 22.1326 43.0527 22.2598 43.1464 22.3536C43.2402 22.4473 43.3674 22.5 43.5 22.5H64.5C64.6326 22.5 64.7598 22.4473 64.8536 22.3536C64.9473 22.2598 65 22.1326 65 22V10ZM70.5 11.5C70.1022 11.5 69.7206 11.658 69.4393 11.9393C69.158 12.2206 69 12.6022 69 13V19C69 19.3978 69.158 19.7794 69.4393 20.0607C69.7206 20.342 70.1022 20.5 70.5 20.5C70.8978 20.5 71.2794 20.342 71.5607 20.0607C71.842 19.7794 72 19.3978 72 19V13C72 12.6022 71.842 12.2206 71.5607 11.9393C71.2794 11.658 70.8978 11.5 70.5 11.5Z" fill="white"/>
</g>
<defs>
<clipPath id="clip0_27_2395">
<rect width="72" height="32" rx="5" fill="white"/>
</clipPath>
</defs>
</svg>
