<svg width="72" height="32" viewBox="0 0 72 32" fill="none" xmlns="http://www.w3.org/2000/svg">
<g clip-path="url(#clip0_27_2405)">
<path d="M11 1C11 0.734784 11.1054 0.48043 11.2929 0.292893C11.4804 0.105357 11.7348 0 12 0L20 0C20.2652 0 20.5196 0.105357 20.7071 0.292893C20.8946 0.48043 21 0.734784 21 1C21 1.26522 20.8946 1.51957 20.7071 1.70711C20.5196 1.89464 20.2652 2 20 2H12C11.7348 2 11.4804 1.89464 11.2929 1.70711C11.1054 1.51957 11 1.26522 11 1ZM25 7V28C25 28.7956 24.6839 29.5587 24.1213 30.1213C23.5587 30.6839 22.7956 31 22 31H10C9.20435 31 8.44129 30.6839 7.87868 30.1213C7.31607 29.5587 7 28.7956 7 28V7C7 6.20435 7.31607 5.44129 7.87868 4.87868C8.44129 4.31607 9.20435 4 10 4H22C22.7956 4 23.5587 4.31607 24.1213 4.87868C24.6839 5.44129 25 6.20435 25 7ZM23 7C23 6.73478 22.8946 6.48043 22.7071 6.29289C22.5196 6.10536 22.2652 6 22 6H10C9.73478 6 9.48043 6.10536 9.29289 6.29289C9.10536 6.48043 9 6.73478 9 7V28C9 28.2652 9.10536 28.5196 9.29289 28.7071C9.48043 28.8946 9.73478 29 10 29H22C22.2652 29 22.5196 28.8946 22.7071 28.7071C22.8946 28.5196 23 28.2652 23 28V7Z" fill="white"/>
<path d="M51.5 1.5C51.5 1.10218 51.658 0.720644 51.9393 0.43934C52.2206 0.158035 52.6022 0 53 0L59 0C59.3978 0 59.7794 0.158035 60.0607 0.43934C60.342 0.720644 60.5 1.10218 60.5 1.5C60.5 1.89782 60.342 2.27936 60.0607 2.56066C59.7794 2.84196 59.3978 3 59 3H53C52.6022 3 52.2206 2.84196 51.9393 2.56066C51.658 2.27936 51.5 1.89782 51.5 1.5ZM65.5 7.5V28.5C65.5 29.4283 65.1313 30.3185 64.4749 30.9749C63.8185 31.6313 62.9283 32 62 32H50C49.0717 32 48.1815 31.6313 47.5251 30.9749C46.8687 30.3185 46.5 29.4283 46.5 28.5V7.5C46.5 6.57174 46.8687 5.6815 47.5251 5.02513C48.1815 4.36875 49.0717 4 50 4H62C62.9283 4 63.8185 4.36875 64.4749 5.02513C65.1313 5.6815 65.5 6.57174 65.5 7.5ZM62.5 7.5C62.5 7.36739 62.4473 7.24021 62.3536 7.14645C62.2598 7.05268 62.1326 7 62 7H50C49.8674 7 49.7402 7.05268 49.6464 7.14645C49.5527 7.24021 49.5 7.36739 49.5 7.5V28.5C49.5 28.6326 49.5527 28.7598 49.6464 28.8536C49.7402 28.9473 49.8674 29 50 29H62C62.1326 29 62.2598 28.9473 62.3536 28.8536C62.4473 28.7598 62.5 28.6326 62.5 28.5V7.5Z" fill="white"/>
</g>
<defs>
<clipPath id="clip0_27_2405">
<rect width="72" height="32" rx="5" fill="white"/>
</clipPath>
</defs>
</svg>
