<svg width="72" height="32" viewBox="0 0 72 32" fill="none" xmlns="http://www.w3.org/2000/svg">
<g clip-path="url(#clip0_27_2400)">
<path d="M11 1C11 0.734784 11.1054 0.48043 11.2929 0.292893C11.4804 0.105357 11.7348 0 12 0L20 0C20.2652 0 20.5196 0.105357 20.7071 0.292893C20.8946 0.48043 21 0.734784 21 1C21 1.26522 20.8946 1.51957 20.7071 1.70711C20.5196 1.89464 20.2652 2 20 2H12C11.7348 2 11.4804 1.89464 11.2929 1.70711C11.1054 1.51957 11 1.26522 11 1ZM25 7V28C25 28.7956 24.6839 29.5587 24.1213 30.1213C23.5587 30.6839 22.7956 31 22 31H10C9.20435 31 8.44129 30.6839 7.87868 30.1213C7.31607 29.5587 7 28.7956 7 28V7C7 6.20435 7.31607 5.44129 7.87868 4.87868C8.44129 4.31607 9.20435 4 10 4H22C22.7956 4 23.5587 4.31607 24.1213 4.87868C24.6839 5.44129 25 6.20435 25 7ZM20.5 17.5C20.5 17.2348 20.3946 16.9804 20.2071 16.7929C20.0196 16.6054 19.7652 16.5 19.5 16.5H17V14C17 13.7348 16.8946 13.4804 16.7071 13.2929C16.5196 13.1054 16.2652 13 16 13C15.7348 13 15.4804 13.1054 15.2929 13.2929C15.1054 13.4804 15 13.7348 15 14V16.5H12.5C12.2348 16.5 11.9804 16.6054 11.7929 16.7929C11.6054 16.9804 11.5 17.2348 11.5 17.5C11.5 17.7652 11.6054 18.0196 11.7929 18.2071C11.9804 18.3946 12.2348 18.5 12.5 18.5H15V21C15 21.2652 15.1054 21.5196 15.2929 21.7071C15.4804 21.8946 15.7348 22 16 22C16.2652 22 16.5196 21.8946 16.7071 21.7071C16.8946 21.5196 17 21.2652 17 21V18.5H19.5C19.7652 18.5 20.0196 18.3946 20.2071 18.2071C20.3946 18.0196 20.5 17.7652 20.5 17.5Z" fill="white"/>
<path d="M51.5 1.5C51.5 1.10218 51.658 0.720644 51.9393 0.43934C52.2206 0.158035 52.6022 0 53 0L59 0C59.3978 0 59.7794 0.158035 60.0607 0.43934C60.342 0.720644 60.5 1.10218 60.5 1.5C60.5 1.89782 60.342 2.27936 60.0607 2.56066C59.7794 2.84196 59.3978 3 59 3H53C52.6022 3 52.2206 2.84196 51.9393 2.56066C51.658 2.27936 51.5 1.89782 51.5 1.5ZM65.5 7.5V28.5C65.5 29.4283 65.1313 30.3185 64.4749 30.9749C63.8185 31.6313 62.9283 32 62 32H50C49.0717 32 48.1815 31.6313 47.5251 30.9749C46.8687 30.3185 46.5 29.4283 46.5 28.5V7.5C46.5 6.57174 46.8687 5.6815 47.5251 5.02513C48.1815 4.36875 49.0717 4 50 4H62C62.9283 4 63.8185 4.36875 64.4749 5.02513C65.1313 5.6815 65.5 6.57174 65.5 7.5ZM62.5 7.5C62.5 7.36739 62.4473 7.24021 62.3536 7.14645C62.2598 7.05268 62.1326 7 62 7H50C49.8674 7 49.7402 7.05268 49.6464 7.14645C49.5527 7.24021 49.5 7.36739 49.5 7.5V28.5C49.5 28.6326 49.5527 28.7598 49.6464 28.8536C49.7402 28.9473 49.8674 29 50 29H62C62.1326 29 62.2598 28.9473 62.3536 28.8536C62.4473 28.7598 62.5 28.6326 62.5 28.5V7.5ZM59 16H57.5V14.5C57.5 14.1022 57.342 13.7206 57.0607 13.4393C56.7794 13.158 56.3978 13 56 13C55.6022 13 55.2206 13.158 54.9393 13.4393C54.658 13.7206 54.5 14.1022 54.5 14.5V16H53C52.6022 16 52.2206 16.158 51.9393 16.4393C51.658 16.7206 51.5 17.1022 51.5 17.5C51.5 17.8978 51.658 18.2794 51.9393 18.5607C52.2206 18.842 52.6022 19 53 19H54.5V20.5C54.5 20.8978 54.658 21.2794 54.9393 21.5607C55.2206 21.842 55.6022 22 56 22C56.3978 22 56.7794 21.842 57.0607 21.5607C57.342 21.2794 57.5 20.8978 57.5 20.5V19H59C59.3978 19 59.7794 18.842 60.0607 18.5607C60.342 18.2794 60.5 17.8978 60.5 17.5C60.5 17.1022 60.342 16.7206 60.0607 16.4393C59.7794 16.158 59.3978 16 59 16Z" fill="white"/>
</g>
<defs>
<clipPath id="clip0_27_2400">
<rect width="72" height="32" rx="5" fill="white"/>
</clipPath>
</defs>
</svg>
