<svg width="72" height="32" viewBox="0 0 72 32" fill="none" xmlns="http://www.w3.org/2000/svg">
<g clip-path="url(#clip0_27_4570)">
<path d="M16 3C13.4288 3 10.9154 3.76244 8.77759 5.1909C6.63975 6.61935 4.97351 8.64968 3.98957 11.0251C3.00563 13.4006 2.74819 16.0144 3.2498 18.5362C3.75141 21.0579 4.98953 23.3743 6.80762 25.1924C8.6257 27.0105 10.9421 28.2486 13.4638 28.7502C15.9856 29.2518 18.5995 28.9944 20.9749 28.0104C23.3503 27.0265 25.3807 25.3603 26.8091 23.2224C28.2376 21.0846 29 18.5712 29 16C28.9964 12.5533 27.6256 9.24882 25.1884 6.81163C22.7512 4.37445 19.4467 3.00364 16 3ZM26.43 12.5C24.5476 11.8919 22.5983 11.5141 20.625 11.375C20.4859 9.40166 20.1081 7.45245 19.5 5.57C21.1102 6.11454 22.5731 7.02308 23.775 8.22499C24.9769 9.42691 25.8855 10.8898 26.43 12.5ZM10.625 6.405C13.7402 7.43449 16.6056 9.10396 19.0375 11.3062C14.0371 11.2628 9.14274 12.7483 5.01001 15.5638C5.08571 13.6846 5.64153 11.8563 6.62448 10.253C7.60742 8.64966 8.98471 7.32489 10.625 6.405ZM16.435 26.99C19.2507 22.8569 20.7362 17.9621 20.6925 12.9613C22.8954 15.3934 24.5653 18.2593 25.595 21.375C24.6751 23.0153 23.3504 24.3926 21.747 25.3755C20.1437 26.3585 18.3154 26.9143 16.4363 26.99H16.435Z" fill="white"/>
<path d="M56 2.5C53.33 2.5 50.7199 3.29176 48.4998 4.77516C46.2797 6.25856 44.5494 8.36697 43.5276 10.8338C42.5058 13.3006 42.2385 16.015 42.7594 18.6337C43.2803 21.2525 44.5661 23.6579 46.4541 25.5459C48.3421 27.434 50.7475 28.7197 53.3663 29.2406C55.985 29.7615 58.6994 29.4942 61.1662 28.4724C63.633 27.4506 65.7414 25.7203 67.2248 23.5002C68.7082 21.2801 69.5 18.67 69.5 16C69.496 12.4208 68.0724 8.98932 65.5416 6.45844C63.0107 3.92756 59.5792 2.50397 56 2.5ZM66.5 16C66.4992 16.6178 66.4439 17.2344 66.335 17.8425C65.6821 16.4641 64.9074 15.1467 64.02 13.9062C64.8276 14.0955 65.6238 14.33 66.405 14.6088C66.4671 15.0699 66.4988 15.5347 66.5 16ZM65.2988 11.1325C64.0675 10.8115 62.814 10.5829 61.5488 10.4487C61.4146 9.18346 61.186 7.92997 60.865 6.69875C62.7575 7.69401 64.3035 9.24001 65.2988 11.1325ZM57.3913 5.595C57.67 6.37619 57.9045 7.17245 58.0938 7.98C56.8533 7.09261 55.5359 6.31786 54.1575 5.665C55.225 5.47169 56.3164 5.44807 57.3913 5.595ZM50.1338 7.295C52.359 8.00924 54.4592 9.0661 56.3588 10.4275C52.5915 10.7919 48.9524 11.9895 45.705 13.9338C46.2529 11.2254 47.8436 8.84103 50.1338 7.295ZM45.625 17.5812C49.4313 14.8263 54.0039 13.3306 58.7025 13.3038C58.6756 18.0024 57.18 22.575 54.425 26.3813C52.2133 26.0402 50.1678 25.0032 48.5854 23.4208C47.0031 21.8384 45.9661 19.7929 45.625 17.5812ZM58.0725 26.295C60.0167 23.0476 61.2144 19.4085 61.5788 15.6412C62.9402 17.5408 63.997 19.641 64.7113 21.8662C63.1637 24.1578 60.7769 25.7486 58.0663 26.295H58.0725Z" fill="white"/>
</g>
<defs>
<clipPath id="clip0_27_4570">
<rect width="72" height="32" rx="5" fill="white"/>
</clipPath>
</defs>
</svg>
