<svg width="72" height="32" viewBox="0 0 72 32" fill="none" xmlns="http://www.w3.org/2000/svg">
<g clip-path="url(#clip0_27_4936)">
<path d="M27 9H4V6C4 5.73478 3.89464 5.48043 3.70711 5.29289C3.51957 5.10536 3.26522 5 3 5C2.73478 5 2.48043 5.10536 2.29289 5.29289C2.10536 5.48043 2 5.73478 2 6V26C2 26.2652 2.10536 26.5196 2.29289 26.7071C2.48043 26.8946 2.73478 27 3 27C3.26522 27 3.51957 26.8946 3.70711 26.7071C3.89464 26.5196 4 26.2652 4 26V22H30V26C30 26.2652 30.1054 26.5196 30.2929 26.7071C30.4804 26.8946 30.7348 27 31 27C31.2652 27 31.5196 26.8946 31.7071 26.7071C31.8946 26.5196 32 26.2652 32 26V14C32 12.6739 31.4732 11.4021 30.5355 10.4645C29.5979 9.52678 28.3261 9 27 9ZM4 11H13V20H4V11Z" fill="white"/>
<path d="M66.5 8.5H44.5V6C44.5 5.60218 44.342 5.22064 44.0607 4.93934C43.7794 4.65804 43.3978 4.5 43 4.5C42.6022 4.5 42.2206 4.65804 41.9393 4.93934C41.658 5.22064 41.5 5.60218 41.5 6V26C41.5 26.3978 41.658 26.7794 41.9393 27.0607C42.2206 27.342 42.6022 27.5 43 27.5C43.3978 27.5 43.7794 27.342 44.0607 27.0607C44.342 26.7794 44.5 26.3978 44.5 26V22.5H69V26C69 26.3978 69.158 26.7794 69.4393 27.0607C69.7206 27.342 70.1022 27.5 70.5 27.5C70.8978 27.5 71.2794 27.342 71.5607 27.0607C71.842 26.7794 72 26.3978 72 26V14C71.9983 12.5418 71.4184 11.1438 70.3873 10.1127C69.3562 9.08165 67.9582 8.50165 66.5 8.5ZM52.5 19.5H44.5V11.5H52.5V19.5ZM69 19.5H55.5V11.5H66.5C67.163 11.5 67.7989 11.7634 68.2678 12.2322C68.7366 12.7011 69 13.337 69 14V19.5Z" fill="white"/>
</g>
<defs>
<clipPath id="clip0_27_4936">
<rect width="72" height="32" rx="5" fill="white"/>
</clipPath>
</defs>
</svg>
