<svg width="72" height="32" viewBox="0 0 72 32" fill="none" xmlns="http://www.w3.org/2000/svg">
<g clip-path="url(#clip0_27_846)">
<path d="M27 11H25V9C25 7.67392 24.4732 6.40215 23.5355 5.46447C22.5979 4.52678 21.3261 4 20 4H18.6025C17.1138 2.725 15.1025 2 13 2C8.58875 2 5 5.14 5 9V26C5 26.5304 5.21071 27.0391 5.58579 27.4142C5.96086 27.7893 6.46957 28 7 28H23C23.5304 28 24.0391 27.7893 24.4142 27.4142C24.7893 27.0391 25 26.5304 25 26V25H27C27.7956 25 28.5587 24.6839 29.1213 24.1213C29.6839 23.5587 30 22.7956 30 22V14C30 13.2044 29.6839 12.4413 29.1213 11.8787C28.5587 11.3161 27.7956 11 27 11ZM13 23C13 23.2652 12.8946 23.5196 12.7071 23.7071C12.5196 23.8946 12.2652 24 12 24C11.7348 24 11.4804 23.8946 11.2929 23.7071C11.1054 23.5196 11 23.2652 11 23V13C11 12.7348 11.1054 12.4804 11.2929 12.2929C11.4804 12.1054 11.7348 12 12 12C12.2652 12 12.5196 12.1054 12.7071 12.2929C12.8946 12.4804 13 12.7348 13 13V23ZM19 23C19 23.2652 18.8946 23.5196 18.7071 23.7071C18.5196 23.8946 18.2652 24 18 24C17.7348 24 17.4804 23.8946 17.2929 23.7071C17.1054 23.5196 17 23.2652 17 23V13C17 12.7348 17.1054 12.4804 17.2929 12.2929C17.4804 12.1054 17.7348 12 18 12C18.2652 12 18.5196 12.1054 18.7071 12.2929C18.8946 12.4804 19 12.7348 19 13V23ZM7.125 8C7.6825 5.72 10.1062 4 13 4C14.7338 4 16.3825 4.625 17.5263 5.7225C17.7123 5.90057 17.9599 5.99997 18.2175 6H20C20.6202 6.00019 21.2251 6.19261 21.7315 6.55078C22.2379 6.90894 22.6208 7.41525 22.8275 8H7.125ZM28 22C28 22.2652 27.8946 22.5196 27.7071 22.7071C27.5196 22.8946 27.2652 23 27 23H25V13H27C27.2652 13 27.5196 13.1054 27.7071 13.2929C27.8946 13.4804 28 13.7348 28 14V22Z" fill="white"/>
<path d="M67 10.5H65.5V9C65.4983 7.54182 64.9184 6.14383 63.8873 5.11274C62.8562 4.08165 61.4582 3.50165 60 3.5H58.7838C57.2213 2.2225 55.1475 1.5 53 1.5C48.3125 1.5 44.5 4.865 44.5 9V26C44.5 26.663 44.7634 27.2989 45.2322 27.7678C45.7011 28.2366 46.337 28.5 47 28.5H63C63.663 28.5 64.2989 28.2366 64.7678 27.7678C65.2366 27.2989 65.5 26.663 65.5 26V25.5H67C67.9283 25.5 68.8185 25.1313 69.4749 24.4749C70.1313 23.8185 70.5 22.9283 70.5 22V14C70.5 13.0717 70.1313 12.1815 69.4749 11.5251C68.8185 10.8687 67.9283 10.5 67 10.5ZM53 4.5C54.6062 4.5 56.125 5.0775 57.18 6.08375C57.4593 6.351 57.831 6.50011 58.2175 6.5H60C60.5763 6.49988 61.135 6.69889 61.5815 7.06335C62.0279 7.4278 62.3347 7.93532 62.45 8.5H47.535C47.84 6.25 50.1737 4.5 53 4.5ZM62.5 25.5H47.5V11.5H62.5V25.5ZM67.5 22C67.5 22.1326 67.4473 22.2598 67.3536 22.3536C67.2598 22.4473 67.1326 22.5 67 22.5H65.5V13.5H67C67.1326 13.5 67.2598 13.5527 67.3536 13.6464C67.4473 13.7402 67.5 13.8674 67.5 14V22ZM53.5 15V22C53.5 22.3978 53.342 22.7794 53.0607 23.0607C52.7794 23.342 52.3978 23.5 52 23.5C51.6022 23.5 51.2206 23.342 50.9393 23.0607C50.658 22.7794 50.5 22.3978 50.5 22V15C50.5 14.6022 50.658 14.2206 50.9393 13.9393C51.2206 13.658 51.6022 13.5 52 13.5C52.3978 13.5 52.7794 13.658 53.0607 13.9393C53.342 14.2206 53.5 14.6022 53.5 15ZM59.5 15V22C59.5 22.3978 59.342 22.7794 59.0607 23.0607C58.7794 23.342 58.3978 23.5 58 23.5C57.6022 23.5 57.2206 23.342 56.9393 23.0607C56.658 22.7794 56.5 22.3978 56.5 22V15C56.5 14.6022 56.658 14.2206 56.9393 13.9393C57.2206 13.658 57.6022 13.5 58 13.5C58.3978 13.5 58.7794 13.658 59.0607 13.9393C59.342 14.2206 59.5 14.6022 59.5 15Z" fill="white"/>
</g>
<defs>
<clipPath id="clip0_27_846">
<rect width="72" height="32" rx="5" fill="white"/>
</clipPath>
</defs>
</svg>
