<svg width="72" height="32" viewBox="0 0 72 32" fill="none" xmlns="http://www.w3.org/2000/svg">
<g clip-path="url(#clip0_27_2470)">
<path d="M27.7301 24C27.7116 24.0319 27.6858 24.0589 27.6547 24.0787C27.6237 24.0986 27.5883 24.1107 27.5516 24.1141C27.515 24.1175 27.478 24.1121 27.4438 24.0984C27.4096 24.0846 27.3792 24.0629 27.3551 24.035L10.4089 5.39875C10.3612 5.34505 10.3257 5.28171 10.3047 5.21306C10.2838 5.1444 10.2778 5.07204 10.2873 5.00088C10.2968 4.92972 10.3215 4.86144 10.3597 4.80068C10.398 4.73992 10.4488 4.6881 10.5089 4.64875C12.1792 3.54405 14.1441 2.96939 16.1464 3C21.6251 3.0825 25.9751 7.6375 26.0001 13.115C26.0176 17.475 27.0389 20.8075 27.7276 21.99C27.9068 22.2945 28.0015 22.6413 28.0019 22.9947C28.0023 23.348 27.9085 23.695 27.7301 24ZM26.7401 26.3275C26.9185 26.5239 27.0115 26.7832 26.9987 27.0482C26.986 27.3132 26.8684 27.5623 26.672 27.7406C26.4756 27.919 26.2163 28.012 25.9513 27.9992C25.6863 27.9865 25.4372 27.8689 25.2589 27.6725L22.8276 25H20.8951C20.6662 26.131 20.0532 27.1479 19.16 27.8785C18.2668 28.609 17.1484 29.0081 15.9945 29.0081C14.8406 29.0081 13.7222 28.609 12.829 27.8785C11.9358 27.1479 11.3228 26.131 11.0939 25H5.98887C5.64786 25.0022 5.31211 24.9159 5.01438 24.7497C4.71664 24.5834 4.46711 24.3428 4.29012 24.0513C4.10218 23.7364 4.00201 23.377 4.00003 23.0103C3.99805 22.6436 4.09434 22.2831 4.27887 21.9663C4.97262 20.75 5.99137 17.3863 5.99137 13C5.99 11.2362 6.45857 9.50387 7.34887 7.98125L5.25012 5.6725C5.15996 5.57565 5.08991 5.46185 5.04405 5.33773C4.99818 5.2136 4.97741 5.0816 4.98293 4.94939C4.98846 4.81717 5.02017 4.68737 5.07623 4.5675C5.13229 4.44763 5.21158 4.34008 5.30951 4.25108C5.40744 4.16208 5.52207 4.0934 5.64674 4.04903C5.7714 4.00465 5.90364 3.98547 6.03578 3.99257C6.16792 3.99968 6.29733 4.03295 6.41652 4.09044C6.53571 4.14793 6.64231 4.22851 6.73012 4.3275L26.7401 26.3275ZM18.8239 25H13.1651C13.3715 25.5856 13.7545 26.0927 14.2613 26.4514C14.7681 26.8101 15.3736 27.0027 15.9945 27.0027C16.6154 27.0027 17.2209 26.8101 17.7277 26.4514C18.2345 26.0927 18.6175 25.5856 18.8239 25Z" fill="white"/>
<path d="M67.1102 25.9913L47.1102 3.99125C46.9785 3.84277 46.8186 3.7219 46.6398 3.63566C46.4611 3.54942 46.2669 3.49952 46.0687 3.48886C45.8705 3.4782 45.6722 3.50698 45.4852 3.57354C45.2982 3.6401 45.1262 3.74312 44.9793 3.87662C44.8324 4.01011 44.7135 4.17144 44.6294 4.35124C44.5453 4.53105 44.4977 4.72576 44.4895 4.92408C44.4812 5.1224 44.5123 5.3204 44.5811 5.50659C44.6499 5.69278 44.755 5.86347 44.8902 6.00875L46.7402 8.045C45.9233 9.56863 45.4972 11.2712 45.5002 13C45.5002 16.1975 44.9265 18.875 43.8415 20.7413C43.6205 21.1221 43.5035 21.5544 43.5024 21.9948C43.5014 22.4351 43.6161 22.868 43.8352 23.25C44.0522 23.6322 44.3672 23.9496 44.7478 24.1693C45.1284 24.389 45.5608 24.5032 46.0002 24.5H50.524C50.6512 25.8644 51.2831 27.1321 52.2961 28.055C53.309 28.9779 54.6299 29.4894 56.0002 29.4894C57.3705 29.4894 58.6915 28.9779 59.7044 28.055C60.7173 27.1321 61.3493 25.8644 61.4765 24.5H61.7002L64.8902 28.0088C65.1592 28.2977 65.5312 28.4689 65.9255 28.4854C66.3199 28.5019 66.7049 28.3622 66.997 28.0968C67.2891 27.8313 67.4648 27.4614 67.486 27.0673C67.5072 26.6731 67.3722 26.2865 67.1102 25.9913ZM48.5002 13C48.4992 12.1355 48.6481 11.2774 48.9402 10.4638L58.9727 21.5H46.8352C47.9402 19.25 48.5002 16.3925 48.5002 13ZM56.0002 26.5C55.4239 26.5001 54.8652 26.3011 54.4188 25.9367C53.9723 25.5722 53.6655 25.0647 53.5502 24.5H58.4502C58.335 25.0647 58.0282 25.5722 57.5817 25.9367C57.1352 26.3011 56.5766 26.5001 56.0002 26.5ZM51.1115 5.29375C51.0347 5.11237 50.9943 4.91762 50.9928 4.72064C50.9912 4.52366 51.0284 4.3283 51.1024 4.14572C51.1763 3.96313 51.2855 3.7969 51.4237 3.65651C51.5619 3.51612 51.7264 3.40433 51.9077 3.3275C53.5044 2.65174 55.2436 2.38187 56.97 2.542C58.6964 2.70212 60.3562 3.28726 61.8014 4.24517C63.2465 5.20307 64.432 6.50393 65.2519 8.0316C66.0718 9.55927 66.5007 11.2662 66.5002 13C66.5002 15.335 66.7977 17.3663 67.384 19.035C67.4497 19.2208 67.4781 19.4178 67.4676 19.6146C67.4572 19.8114 67.4081 20.0042 67.3231 20.182C67.2381 20.3598 67.119 20.5192 66.9724 20.651C66.8259 20.7827 66.6548 20.8843 66.469 20.95C66.2832 21.0157 66.0862 21.0441 65.8894 21.0336C65.6926 21.0232 65.4998 20.9741 65.322 20.8891C65.1442 20.8041 64.9848 20.685 64.853 20.5384C64.7213 20.3919 64.6196 20.2208 64.554 20.035C63.854 18.04 63.5002 15.675 63.5002 13C63.5007 11.7616 63.1945 10.5423 62.609 9.45106C62.0234 8.3598 61.1767 7.43053 60.1446 6.74621C59.1124 6.06188 57.9268 5.6438 56.6937 5.5293C55.4606 5.4148 54.2183 5.60743 53.0777 6.09C52.8964 6.16683 52.7016 6.20718 52.5046 6.20874C52.3076 6.2103 52.1123 6.17305 51.9297 6.09911C51.7471 6.02517 51.5809 5.916 51.4405 5.77781C51.3001 5.63963 51.1883 5.47514 51.1115 5.29375Z" fill="white"/>
</g>
<defs>
<clipPath id="clip0_27_2470">
<rect width="72" height="32" rx="5" fill="white"/>
</clipPath>
</defs>
</svg>
