<svg width="72" height="32" viewBox="0 0 72 32" fill="none" xmlns="http://www.w3.org/2000/svg">
<g clip-path="url(#clip0_27_2450)">
<path d="M21 28C21 28.2652 20.8947 28.5196 20.7071 28.7071C20.5196 28.8946 20.2652 29 20 29H12C11.7348 29 11.4804 28.8946 11.2929 28.7071C11.1054 28.5196 11 28.2652 11 28C11 27.7348 11.1054 27.4804 11.2929 27.2929C11.4804 27.1054 11.7348 27 12 27H20C20.2652 27 20.5196 27.1054 20.7071 27.2929C20.8947 27.4804 21 27.7348 21 28ZM27.7263 21.9925C27.0313 20.7975 26 17.4163 26 13C26 10.3478 24.9464 7.8043 23.0711 5.92893C21.1957 4.05357 18.6522 3 16 3C13.3479 3 10.8043 4.05357 8.92895 5.92893C7.05358 7.8043 6.00002 10.3478 6.00002 13C6.00002 17.4175 4.96752 20.7975 4.27377 21.9925C4.0966 22.2963 4.00268 22.6415 4.00148 22.9931C4.00027 23.3448 4.09182 23.6906 4.26689 23.9956C4.44196 24.3006 4.69437 24.5541 4.99865 24.7304C5.30293 24.9068 5.64833 24.9997 6.00002 25H26C26.3516 24.9995 26.6968 24.9064 27.0009 24.73C27.3051 24.5535 27.5573 24.3 27.7322 23.9951C27.9071 23.6901 27.9986 23.3444 27.9973 22.9928C27.996 22.6412 27.9021 22.2962 27.725 21.9925H27.7263Z" fill="white"/>
<path d="M68.1613 20.7412C67.0763 18.875 66.5 16.1962 66.5 13C66.5 10.2152 65.3938 7.54451 63.4247 5.57538C61.4555 3.60625 58.7848 2.5 56 2.5C53.2153 2.5 50.5445 3.60625 48.5754 5.57538C46.6063 7.54451 45.5 10.2152 45.5 13C45.5 16.1975 44.9263 18.875 43.8413 20.7412C43.6199 21.1219 43.5025 21.5541 43.501 21.9945C43.4995 22.4348 43.6138 22.8678 43.8325 23.25C44.0499 23.6324 44.3654 23.9499 44.7464 24.1696C45.1274 24.3893 45.5602 24.5034 46 24.5H66C66.4392 24.5027 66.8712 24.3883 67.2515 24.1686C67.6319 23.9489 67.9467 23.6318 68.1638 23.25C68.3835 22.8684 68.4989 22.4356 68.4984 21.9953C68.498 21.5549 68.3817 21.1224 68.1613 20.7412ZM46.8325 21.5C47.9388 19.25 48.5 16.3925 48.5 13C48.5 11.0109 49.2902 9.10322 50.6967 7.6967C52.1033 6.29018 54.0109 5.5 56 5.5C57.9892 5.5 59.8968 6.29018 61.3033 7.6967C62.7099 9.10322 63.5 11.0109 63.5 13C63.5 16.3912 64.06 19.25 65.1663 21.5H46.8325ZM61.5 28C61.5 28.3978 61.342 28.7794 61.0607 29.0607C60.7794 29.342 60.3979 29.5 60 29.5H52C51.6022 29.5 51.2207 29.342 50.9394 29.0607C50.6581 28.7794 50.5 28.3978 50.5 28C50.5 27.6022 50.6581 27.2206 50.9394 26.9393C51.2207 26.658 51.6022 26.5 52 26.5H60C60.3979 26.5 60.7794 26.658 61.0607 26.9393C61.342 27.2206 61.5 27.6022 61.5 28Z" fill="white"/>
</g>
<defs>
<clipPath id="clip0_27_2450">
<rect width="72" height="32" rx="5" fill="white"/>
</clipPath>
</defs>
</svg>
