<svg width="72" height="32" viewBox="0 0 72 32" fill="none" xmlns="http://www.w3.org/2000/svg">
<g clip-path="url(#clip0_27_2455)">
<path d="M21.0002 28C21.0002 28.2652 20.8948 28.5196 20.7073 28.7071C20.5198 28.8946 20.2654 29 20.0002 29H12.0002C11.735 29 11.4806 28.8946 11.2931 28.7071C11.1055 28.5196 11.0002 28.2652 11.0002 28C11.0002 27.7348 11.1055 27.4804 11.2931 27.2929C11.4806 27.1054 11.735 27 12.0002 27H20.0002C20.2654 27 20.5198 27.1054 20.7073 27.2929C20.8948 27.4804 21.0002 27.7348 21.0002 28ZM28.4239 7.54001C27.3 5.34332 25.6124 3.48487 23.5339 2.15501C23.4229 2.08407 23.2989 2.03578 23.1691 2.01291C23.0393 1.99005 22.9063 1.99306 22.7777 2.02177C22.6491 2.05048 22.5274 2.10433 22.4197 2.18022C22.312 2.25611 22.2203 2.35255 22.15 2.46398C22.0796 2.57542 22.032 2.69966 22.0099 2.82956C21.9877 2.95946 21.9914 3.09246 22.0208 3.22091C22.0502 3.34937 22.1047 3.47074 22.1812 3.57806C22.2577 3.68538 22.3546 3.77652 22.4664 3.84626C24.2497 4.98063 25.6944 6.57437 26.6489 8.46001C26.7751 8.68792 26.9852 8.85763 27.2345 8.93301C27.4839 9.00839 27.7528 8.9835 27.9841 8.86362C28.2153 8.74375 28.3907 8.53836 28.4729 8.29116C28.555 8.04396 28.5375 7.77446 28.4239 7.54001ZM4.46394 9.00001C4.64714 8.99993 4.8268 8.94953 4.98331 8.8543C5.13982 8.75907 5.26716 8.62268 5.35144 8.46001C6.30594 6.57437 7.75071 4.98063 9.53394 3.84626C9.64575 3.77652 9.74268 3.68538 9.81915 3.57806C9.89563 3.47074 9.95013 3.34937 9.97954 3.22091C10.009 3.09246 10.0127 2.95946 9.99052 2.82956C9.96836 2.69966 9.92074 2.57542 9.8504 2.46398C9.78006 2.35255 9.6884 2.25611 9.58067 2.18022C9.47294 2.10433 9.35127 2.05048 9.22266 2.02177C9.09404 1.99306 8.96103 1.99005 8.83125 2.01291C8.70147 2.03578 8.57749 2.08407 8.46644 2.15501C6.38797 3.48487 4.70035 5.34332 3.57644 7.54001C3.49748 7.6924 3.45909 7.86256 3.46494 8.0341C3.47079 8.20563 3.52069 8.37278 3.60985 8.51944C3.699 8.66611 3.8244 8.78736 3.97399 8.87152C4.12357 8.95569 4.2923 8.99993 4.46394 9.00001ZM26.0002 14C26.0002 11.3478 24.9466 8.8043 23.0713 6.92894C21.1959 5.05357 18.6524 4.00001 16.0002 4.00001C13.348 4.00001 10.8045 5.05357 8.92912 6.92894C7.05376 8.8043 6.00019 11.3478 6.00019 14C6.00019 17.285 5.40269 20.0488 4.27394 21.9925C4.09677 22.2963 4.00285 22.6415 4.00165 22.9931C4.00044 23.3448 4.09199 23.6906 4.26706 23.9956C4.44213 24.3006 4.69454 24.5541 4.99882 24.7304C5.3031 24.9068 5.6485 24.9998 6.00019 25H26.0002C26.3517 24.9993 26.6967 24.906 27.0007 24.7295C27.3046 24.553 27.5567 24.2995 27.7314 23.9945C27.9062 23.6896 27.9975 23.344 27.9962 22.9925C27.9949 22.641 27.901 22.2961 27.7239 21.9925C26.5977 20.0475 26.0002 17.2838 26.0002 14Z" fill="white"/>
<path d="M61.4999 28.5C61.4999 28.8978 61.3418 29.2794 61.0605 29.5607C60.7792 29.842 60.3977 30 59.9999 30H51.9999C51.602 30 51.2205 29.842 50.9392 29.5607C50.6579 29.2794 50.4999 28.8978 50.4999 28.5C50.4999 28.1022 50.6579 27.7207 50.9392 27.4393C51.2205 27.158 51.602 27 51.9999 27H59.9999C60.3977 27 60.7792 27.158 61.0605 27.4393C61.3418 27.7207 61.4999 28.1022 61.4999 28.5ZM68.8674 7.31001C67.703 5.03415 65.954 3.10912 63.7999 1.73251C63.6333 1.62064 63.4461 1.54331 63.2491 1.50509C63.0522 1.46688 62.8496 1.46856 62.6533 1.51003C62.457 1.5515 62.2711 1.63192 62.1064 1.74654C61.9418 1.86115 61.8018 2.00763 61.6947 2.1773C61.5877 2.34697 61.5158 2.53639 61.4832 2.73434C61.4507 2.9323 61.4582 3.13477 61.5053 3.32977C61.5524 3.52478 61.6381 3.70835 61.7574 3.86964C61.8767 4.03093 62.0272 4.16664 62.1999 4.26876C63.9063 5.35676 65.2881 6.88448 66.1999 8.69126C66.3269 8.93597 66.519 9.14093 66.7549 9.28361C66.9909 9.42628 67.2616 9.50116 67.5374 9.50001C67.7772 9.5003 68.0136 9.4424 68.2261 9.33126C68.5791 9.14815 68.8449 8.83238 68.9651 8.45337C69.0854 8.07436 69.0502 7.66311 68.8674 7.31001ZM45.7961 8.69126C46.7079 6.88448 48.0896 5.35676 49.7961 4.26876C49.9726 4.1688 50.127 4.03408 50.25 3.87274C50.3729 3.71141 50.4619 3.52681 50.5115 3.33011C50.561 3.13341 50.5702 2.9287 50.5384 2.72836C50.5066 2.52802 50.4345 2.33621 50.3264 2.16453C50.2184 1.99285 50.0767 1.84487 49.9098 1.72954C49.7429 1.61421 49.5544 1.53393 49.3556 1.49354C49.1568 1.45316 48.9519 1.45351 48.7532 1.49459C48.5546 1.53566 48.3663 1.6166 48.1999 1.73251C46.0457 3.10912 44.2967 5.03415 43.1324 7.31001C42.9495 7.66311 42.9143 8.07436 43.0346 8.45337C43.1548 8.83238 43.4206 9.14815 43.7736 9.33126C43.9862 9.4424 44.2225 9.5003 44.4624 9.50001C44.7375 9.50047 45.0074 9.42527 45.2426 9.28263C45.4779 9.13999 45.6693 8.93541 45.7961 8.69126ZM67.4849 20.985C67.767 21.3554 67.9401 21.7971 67.9847 22.2605C68.0293 22.724 67.9436 23.1906 67.7373 23.608C67.5309 24.0253 67.2122 24.3768 66.8169 24.6227C66.4215 24.8687 65.9654 24.9993 65.4999 25H46.4999C46.034 25 45.5773 24.8699 45.1815 24.6242C44.7856 24.3785 44.4663 24.0271 44.2595 23.6097C44.0527 23.1922 43.9667 22.7252 44.0112 22.2615C44.0556 21.7977 44.2288 21.3556 44.5111 20.985C45.4074 19.8188 46.4774 17.6575 46.4961 13.9925C46.4971 11.4725 47.4991 9.05601 49.2818 7.27477C51.0644 5.49352 53.4817 4.49339 56.0017 4.49438C58.5218 4.49538 60.9382 5.49742 62.7195 7.28007C64.5007 9.06272 65.5008 11.48 65.4999 14C65.5186 17.6575 66.5886 19.8188 67.4849 20.985ZM64.5424 22C63.5224 20.375 62.5186 17.8038 62.4999 14.0075C62.5003 13.1539 62.3327 12.3086 62.0065 11.5198C61.6803 10.731 61.2019 10.0141 60.5987 9.41022C59.9955 8.80629 59.2792 8.32709 58.4908 7.99998C57.7023 7.67286 56.8572 7.50425 56.0036 7.50376C55.15 7.50326 54.3047 7.67091 53.5159 7.99711C52.7271 8.32331 52.0102 8.80168 51.4063 9.40491C50.8024 10.0081 50.3232 10.7244 49.9961 11.5129C49.669 12.3013 49.5003 13.1464 49.4999 14C49.4811 17.8025 48.4774 20.375 47.4574 22H64.5424Z" fill="white"/>
</g>
<defs>
<clipPath id="clip0_27_2455">
<rect width="72" height="32" rx="5" fill="white"/>
</clipPath>
</defs>
</svg>
