<svg width="72" height="32" viewBox="0 0 72 32" fill="none" xmlns="http://www.w3.org/2000/svg">
<g clip-path="url(#clip0_27_2445)">
<path d="M28.0002 8.8875C27.7648 9.0094 27.4906 9.03284 27.2379 8.95268C26.9853 8.87252 26.7748 8.69531 26.6527 8.46C25.6982 6.57436 24.2534 4.98062 22.4702 3.84625C22.3591 3.77616 22.2628 3.68486 22.187 3.57757C22.1111 3.47029 22.0571 3.34911 22.0281 3.22097C21.9991 3.09282 21.9956 2.96022 22.0178 2.83072C22.0401 2.70123 22.0876 2.57738 22.1577 2.46625C22.2278 2.35512 22.3191 2.25888 22.4264 2.18303C22.5336 2.10718 22.6548 2.05321 22.783 2.02419C22.9111 1.99517 23.0437 1.99168 23.1732 2.01391C23.3027 2.03614 23.4266 2.08366 23.5377 2.15375C25.6159 3.48442 27.3035 5.3432 28.4277 7.54C28.5496 7.7754 28.573 8.04956 28.4929 8.30224C28.4127 8.55492 28.2355 8.76543 28.0002 8.8875ZM4.46394 9C4.64714 8.99992 4.8268 8.94952 4.98331 8.85429C5.13982 8.75906 5.26716 8.62267 5.35144 8.46C6.30594 6.57436 7.75071 4.98062 9.53394 3.84625C9.75838 3.70469 9.91739 3.47977 9.97599 3.22097C10.0346 2.96217 9.988 2.69069 9.84644 2.46625C9.70488 2.24181 9.47996 2.0828 9.22116 2.02419C8.96236 1.96559 8.69088 2.01219 8.46644 2.15375C6.38819 3.48442 4.70066 5.3432 3.57644 7.54C3.49748 7.6924 3.45909 7.86255 3.46494 8.03409C3.47079 8.20563 3.52069 8.37277 3.60985 8.51943C3.699 8.6661 3.8244 8.78735 3.97399 8.87151C4.12357 8.95568 4.2923 8.99993 4.46394 9ZM27.7264 21.9925C27.9036 22.2963 27.9975 22.6414 27.9987 22.9931C27.9999 23.3448 27.9084 23.6906 27.7333 23.9956C27.5582 24.3006 27.3058 24.5541 27.0016 24.7304C26.6973 24.9068 26.3519 24.9997 26.0002 25H20.9002C20.6707 26.1303 20.0575 27.1465 19.1644 27.8764C18.2714 28.6063 17.1535 29.005 16.0002 29.005C14.8468 29.005 13.7289 28.6063 12.8359 27.8764C11.9429 27.1465 11.3297 26.1303 11.1002 25H6.00019C5.64871 24.9993 5.30363 24.906 4.9997 24.7295C4.69576 24.553 4.44371 24.2995 4.26894 23.9945C4.09416 23.6896 4.00283 23.344 4.00415 22.9925C4.00546 22.641 4.09938 22.2961 4.27644 21.9925C5.40269 20.0487 6.00019 17.285 6.00019 14C6.00019 11.3478 7.05376 8.80429 8.92912 6.92893C10.8045 5.05357 13.348 4 16.0002 4C18.6524 4 21.1959 5.05357 23.0713 6.92893C24.9466 8.80429 26.0002 11.3478 26.0002 14C26.0002 17.2837 26.5977 20.0475 27.7264 21.9925ZM18.8277 25H13.1727C13.3799 25.5843 13.7629 26.09 14.2693 26.4477C14.7756 26.8053 15.3803 26.9974 16.0002 26.9974C16.6201 26.9974 17.2248 26.8053 17.7311 26.4477C18.2374 26.09 18.6205 25.5843 18.8277 25Z" fill="white"/>
<path d="M68.2261 9.33126C68.0136 9.4424 67.7772 9.5003 67.5374 9.50001C67.2623 9.50047 66.9923 9.42527 66.7571 9.28263C66.5219 9.13999 66.3304 8.93541 66.2036 8.69126C65.2918 6.88448 63.9101 5.35676 62.2036 4.26876C62.0309 4.16664 61.8805 4.03093 61.7612 3.86964C61.6419 3.70835 61.5562 3.52478 61.5091 3.32977C61.462 3.13477 61.4545 2.9323 61.487 2.73434C61.5195 2.53639 61.5915 2.34697 61.6985 2.1773C61.8055 2.00763 61.9455 1.86115 62.1102 1.74654C62.2748 1.63192 62.4608 1.5515 62.6571 1.51003C62.8533 1.46856 63.0559 1.46688 63.2529 1.50509C63.4498 1.54331 63.6371 1.62064 63.8036 1.73251C65.9577 3.10912 67.7067 5.03415 68.8711 7.31001C68.9615 7.48507 69.0165 7.67623 69.033 7.87256C69.0495 8.06889 69.0272 8.26655 68.9673 8.45425C68.9074 8.64195 68.8111 8.81601 68.684 8.96649C68.5568 9.11697 68.4012 9.24092 68.2261 9.33126ZM45.7961 8.69126C46.7079 6.88448 48.0896 5.35676 49.7961 4.26876C49.9726 4.1688 50.127 4.03408 50.25 3.87274C50.3729 3.71141 50.4619 3.52681 50.5115 3.33011C50.561 3.13341 50.5702 2.9287 50.5384 2.72836C50.5066 2.52802 50.4345 2.33621 50.3264 2.16453C50.2184 1.99285 50.0767 1.84487 49.9098 1.72954C49.7429 1.61421 49.5544 1.53393 49.3556 1.49354C49.1568 1.45316 48.9519 1.45351 48.7532 1.49459C48.5546 1.53566 48.3663 1.6166 48.1999 1.73251C46.0457 3.10912 44.2967 5.03415 43.1324 7.31001C42.9495 7.66311 42.9143 8.07436 43.0346 8.45337C43.1548 8.83238 43.4206 9.14815 43.7736 9.33126C43.9862 9.4424 44.2225 9.5003 44.4624 9.50001C44.7375 9.50047 45.0074 9.42527 45.2426 9.28263C45.4779 9.13999 45.6693 8.93541 45.7961 8.69126ZM67.4849 20.985C67.767 21.3554 67.9401 21.7971 67.9847 22.2605C68.0293 22.724 67.9436 23.1906 67.7373 23.608C67.5309 24.0253 67.2122 24.3768 66.8169 24.6227C66.4215 24.8687 65.9654 24.9993 65.4999 25H61.4761C61.3489 26.3644 60.717 27.6322 59.704 28.555C58.6911 29.4779 57.3702 29.9894 55.9999 29.9894C54.6296 29.9894 53.3086 29.4779 52.2957 28.555C51.2828 27.6322 50.6508 26.3644 50.5236 25H46.4999C46.034 25 45.5773 24.8699 45.1815 24.6242C44.7856 24.3785 44.4663 24.0271 44.2595 23.6097C44.0527 23.1922 43.9667 22.7252 44.0112 22.2615C44.0556 21.7977 44.2288 21.3556 44.5111 20.985C45.4074 19.8188 46.4774 17.6575 46.4961 13.9925C46.4971 11.4725 47.4991 9.05601 49.2818 7.27477C51.0644 5.49352 53.4817 4.49339 56.0017 4.49438C58.5218 4.49538 60.9382 5.49742 62.7195 7.28007C64.5007 9.06272 65.5008 11.48 65.4999 14C65.5186 17.6575 66.5886 19.8188 67.4849 20.985ZM58.4499 25H53.5499C53.6646 25.5652 53.9712 26.0732 54.4177 26.4382C54.8642 26.8031 55.4232 27.0025 55.9999 27.0025C56.5765 27.0025 57.1355 26.8031 57.582 26.4382C58.0285 26.0732 58.3351 25.5652 58.4499 25ZM64.5424 22C63.5224 20.375 62.5186 17.8038 62.4999 14.0075C62.5003 13.1539 62.3327 12.3086 62.0065 11.5198C61.6803 10.731 61.2019 10.0141 60.5987 9.41022C59.9955 8.80629 59.2792 8.32709 58.4908 7.99998C57.7023 7.67286 56.8572 7.50425 56.0036 7.50376C55.15 7.50326 54.3047 7.67091 53.5159 7.99711C52.7271 8.32331 52.0102 8.80168 51.4063 9.40491C50.8024 10.0081 50.3232 10.7244 49.9961 11.5129C49.669 12.3013 49.5003 13.1464 49.4999 14C49.4811 17.8025 48.4774 20.375 47.4574 22H64.5424Z" fill="white"/>
</g>
<defs>
<clipPath id="clip0_27_2445">
<rect width="72" height="32" rx="5" fill="white"/>
</clipPath>
</defs>
</svg>
