<svg width="72" height="32" viewBox="0 0 72 32" fill="none" xmlns="http://www.w3.org/2000/svg">
<g clip-path="url(#clip0_27_2465)">
<path d="M21.0002 28C21.0002 28.2652 20.8949 28.5196 20.7073 28.7071C20.5198 28.8946 20.2654 29 20.0002 29H12.0002C11.735 29 11.4807 28.8946 11.2931 28.7071C11.1056 28.5196 11.0002 28.2652 11.0002 28C11.0002 27.7348 11.1056 27.4804 11.2931 27.2929C11.4807 27.1054 11.735 27 12.0002 27H20.0002C20.2654 27 20.5198 27.1054 20.7073 27.2929C20.8949 27.4804 21.0002 27.7348 21.0002 28ZM27.7315 24C27.558 24.3056 27.3061 24.5595 27.0017 24.7353C26.6974 24.911 26.3517 25.0024 26.0002 25H6.00023C5.64865 24.9995 5.30341 24.9064 4.9993 24.73C4.69519 24.5535 4.44297 24.3 4.26804 23.9951C4.09312 23.6901 4.00168 23.3444 4.00294 22.9928C4.0042 22.6412 4.09812 22.2962 4.27523 21.9925C4.96898 20.7975 6.00023 17.4175 6.00023 13C6.00023 10.3478 7.0538 7.8043 8.92916 5.92893C10.8045 4.05357 13.3481 3 16.0002 3C18.6524 3 21.1959 4.05357 23.0713 5.92893C24.9467 7.8043 26.0002 10.3478 26.0002 13C26.0002 17.4163 27.0327 20.7975 27.7265 21.9925C27.9054 22.2966 28 22.6429 28.0006 22.9957C28.0013 23.3486 27.908 23.6952 27.7302 24H27.7315ZM19.0002 18C19.0002 17.7348 18.8949 17.4804 18.7073 17.2929C18.5198 17.1054 18.2654 17 18.0002 17H15.8752L18.8377 12.555C18.9385 12.404 18.9962 12.2284 19.0048 12.0471C19.0133 11.8658 18.9724 11.6856 18.8863 11.5258C18.8002 11.366 18.6723 11.2326 18.5162 11.14C18.3601 11.0474 18.1817 10.999 18.0002 11H14.0002C13.735 11 13.4807 11.1054 13.2931 11.2929C13.1056 11.4804 13.0002 11.7348 13.0002 12C13.0002 12.2652 13.1056 12.5196 13.2931 12.7071C13.4807 12.8946 13.735 13 14.0002 13H16.1315L13.169 17.445C13.0685 17.5955 13.0108 17.7705 13.002 17.9513C12.9932 18.1321 13.0336 18.3118 13.1189 18.4714C13.2043 18.631 13.3313 18.7645 13.4865 18.8576C13.6417 18.9507 13.8193 18.9999 14.0002 19H18.0002C18.2654 19 18.5198 18.8946 18.7073 18.7071C18.8949 18.5196 19.0002 18.2652 19.0002 18Z" fill="white"/>
<path d="M59.5001 17.5C59.5001 17.8978 59.3421 18.2794 59.0608 18.5607C58.7795 18.842 58.3979 19 58.0001 19H54.0001C53.7284 19.0004 53.4616 18.927 53.2284 18.7876C52.9951 18.6482 52.8041 18.448 52.6758 18.2085C52.5474 17.969 52.4865 17.6991 52.4996 17.4277C52.5127 17.1563 52.5993 16.8935 52.7501 16.6675L55.1976 13H54.0001C53.6023 13 53.2207 12.842 52.9394 12.5607C52.6581 12.2794 52.5001 11.8978 52.5001 11.5C52.5001 11.1022 52.6581 10.7206 52.9394 10.4393C53.2207 10.158 53.6023 10 54.0001 10H58.0001C58.2718 9.9996 58.5386 10.073 58.7718 10.2124C59.0051 10.3518 59.1961 10.552 59.3244 10.7915C59.4528 11.031 59.5137 11.3009 59.5006 11.5723C59.4875 11.8437 59.4009 12.1065 59.2501 12.3325L56.8026 16H58.0001C58.3979 16 58.7795 16.158 59.0608 16.4393C59.3421 16.7206 59.5001 17.1022 59.5001 17.5ZM68.1663 23.25C67.9491 23.6322 67.6338 23.9495 67.253 24.1693C66.8722 24.389 66.4397 24.5032 66.0001 24.5H46.0001C45.5609 24.5027 45.1289 24.3883 44.7486 24.1686C44.3683 23.9489 44.0534 23.6318 43.8363 23.25C43.6175 22.8682 43.5028 22.4355 43.5039 21.9954C43.505 21.5553 43.6218 21.1232 43.8426 20.7425C44.9238 18.875 45.5001 16.1975 45.5001 13C45.5001 10.2152 46.6063 7.54451 48.5755 5.57538C50.5446 3.60625 53.2153 2.5 56.0001 2.5C58.7849 2.5 61.4556 3.60625 63.4247 5.57538C65.3938 7.54451 66.5001 10.2152 66.5001 13C66.5001 16.1962 67.0738 18.875 68.1588 20.7412C68.3802 21.1219 68.4976 21.5541 68.4991 21.9945C68.5007 22.4348 68.3863 22.8678 68.1676 23.25H68.1663ZM65.1663 21.5C64.0613 19.25 63.5001 16.3912 63.5001 13C63.5001 11.0109 62.7099 9.10322 61.3034 7.6967C59.8969 6.29018 57.9892 5.5 56.0001 5.5C54.011 5.5 52.1033 6.29018 50.6968 7.6967C49.2903 9.10322 48.5001 11.0109 48.5001 13C48.5001 16.3925 47.9401 19.25 46.8338 21.5H65.1663ZM60.0001 26.5H52.0001C51.6023 26.5 51.2207 26.658 50.9394 26.9393C50.6581 27.2206 50.5001 27.6022 50.5001 28C50.5001 28.3978 50.6581 28.7794 50.9394 29.0607C51.2207 29.342 51.6023 29.5 52.0001 29.5H60.0001C60.3979 29.5 60.7794 29.342 61.0608 29.0607C61.3421 28.7794 61.5001 28.3978 61.5001 28C61.5001 27.6022 61.3421 27.2206 61.0608 26.9393C60.7794 26.658 60.3979 26.5 60.0001 26.5Z" fill="white"/>
</g>
<defs>
<clipPath id="clip0_27_2465">
<rect width="72" height="32" rx="5" fill="white"/>
</clipPath>
</defs>
</svg>
