<svg width="72" height="32" viewBox="0 0 72 32" fill="none" xmlns="http://www.w3.org/2000/svg">
<g clip-path="url(#clip0_27_851)">
<path d="M8 10V22C8 22.2652 7.89464 22.5196 7.70711 22.7071C7.51957 22.8946 7.26522 23 7 23C6.73478 23 6.48043 22.8946 6.29289 22.7071C6.10536 22.5196 6 22.2652 6 22H1C0.734784 22 0.48043 21.8946 0.292893 21.7071C0.105357 21.5196 0 21.2652 0 21V11C0 10.7348 0.105357 10.4804 0.292893 10.2929C0.48043 10.1054 0.734784 10 1 10H6C6 9.73478 6.10536 9.48043 6.29289 9.29289C6.48043 9.10536 6.73478 9 7 9C7.26522 9 7.51957 9.10536 7.70711 9.29289C7.89464 9.48043 8 9.73478 8 10ZM32 11V21C32 21.2652 31.8946 21.5196 31.7071 21.7071C31.5196 21.8946 31.2652 22 31 22H23.7288C23.5535 22.3036 23.3015 22.5557 22.9981 22.7312C22.6947 22.9067 22.3505 22.9994 22 23H14C13.6495 22.9994 13.3053 22.9067 13.0019 22.7312C12.6985 22.5557 12.4465 22.3036 12.2712 22H10.5C10.3674 22 10.2402 21.9473 10.1464 21.8536C10.0527 21.7598 10 21.6326 10 21.5V10.5C10 10.3674 10.0527 10.2402 10.1464 10.1464C10.2402 10.0527 10.3674 10 10.5 10H12.2712C12.4465 9.69645 12.6985 9.44428 13.0019 9.26877C13.3053 9.09327 13.6495 9.00058 14 9H22C22.3505 9.00058 22.6947 9.09327 22.9981 9.26877C23.3015 9.44428 23.5535 9.69645 23.7288 10H31C31.2652 10 31.5196 10.1054 31.7071 10.2929C31.8946 10.4804 32 10.7348 32 11ZM22 20.975V17H18C17.7348 17 17.4804 16.8946 17.2929 16.7071C17.1054 16.5196 17 16.2652 17 16C17 15.7348 17.1054 15.4804 17.2929 15.2929C17.4804 15.1054 17.7348 15 18 15H22V11H14V21H22C22 20.9913 22 20.9838 22 20.975Z" fill="white"/>
<path d="M70.5 19.5H64.5V12.5H70.5C70.8978 12.5 71.2794 12.342 71.5607 12.0607C71.842 11.7794 72 11.3978 72 11C72 10.6022 71.842 10.2206 71.5607 9.93934C71.2794 9.65804 70.8978 9.5 70.5 9.5H64C63.7671 9.18951 63.4652 8.9375 63.118 8.76393C62.7709 8.59036 62.3881 8.5 62 8.5H54C53.6119 8.5 53.2291 8.59036 52.882 8.76393C52.5348 8.9375 52.2329 9.18951 52 9.5H48.4125C48.3084 9.20872 48.1168 8.95675 47.8639 8.7786C47.6111 8.60045 47.3093 8.50482 47 8.50482C46.6907 8.50482 46.3889 8.60045 46.1361 8.7786C45.8832 8.95675 45.6916 9.20872 45.5875 9.5H41.5C41.1022 9.5 40.7206 9.65804 40.4393 9.93934C40.158 10.2206 40 10.6022 40 11C40 11.3978 40.158 11.7794 40.4393 12.0607C40.7206 12.342 41.1022 12.5 41.5 12.5H45.5V19.5H41.5C41.1022 19.5 40.7206 19.658 40.4393 19.9393C40.158 20.2206 40 20.6022 40 21C40 21.3978 40.158 21.7794 40.4393 22.0607C40.7206 22.342 41.1022 22.5 41.5 22.5H45.5875C45.6916 22.7913 45.8832 23.0432 46.1361 23.2214C46.3889 23.3996 46.6907 23.4952 47 23.4952C47.3093 23.4952 47.6111 23.3996 47.8639 23.2214C48.1168 23.0432 48.3084 22.7913 48.4125 22.5H52C52.2329 22.8105 52.5348 23.0625 52.882 23.2361C53.2291 23.4096 53.6119 23.5 54 23.5H62C62.3881 23.5 62.7709 23.4096 63.118 23.2361C63.4652 23.0625 63.7671 22.8105 64 22.5H70.5C70.8978 22.5 71.2794 22.342 71.5607 22.0607C71.842 21.7794 72 21.3978 72 21C72 20.6022 71.842 20.2206 71.5607 19.9393C71.2794 19.658 70.8978 19.5 70.5 19.5ZM48.5 12.5H51.5V19.5H48.5V12.5ZM54.5 11.5H61.5V14.5H58C57.6022 14.5 57.2206 14.658 56.9393 14.9393C56.658 15.2206 56.5 15.6022 56.5 16C56.5 16.3978 56.658 16.7794 56.9393 17.0607C57.2206 17.342 57.6022 17.5 58 17.5H61.5V20.5H54.5V11.5Z" fill="white"/>
</g>
<defs>
<clipPath id="clip0_27_851">
<rect width="72" height="32" rx="5" fill="white"/>
</clipPath>
</defs>
</svg>
