<svg width="72" height="32" viewBox="0 0 72 32" fill="none" xmlns="http://www.w3.org/2000/svg">
<g clip-path="url(#clip0_27_5117)">
<path d="M27.625 18.05C26.889 15.1619 25.1073 12.6496 22.625 11H30C30.2652 11 30.5196 10.8946 30.7071 10.7071C30.8946 10.5196 31 10.2652 31 10C31 9.73478 30.8946 9.48043 30.7071 9.29289C30.5196 9.10536 30.2652 9 30 9H19.875C19.6547 8.13959 19.1543 7.37696 18.4527 6.83236C17.7511 6.28776 16.8882 5.99216 16 5.99216C15.1118 5.99216 14.2489 6.28776 13.5473 6.83236C12.8457 7.37696 12.3453 8.13959 12.125 9H2C1.73478 9 1.48043 9.10536 1.29289 9.29289C1.10536 9.48043 1 9.73478 1 10C1 10.2652 1.10536 10.5196 1.29289 10.7071C1.48043 10.8946 1.73478 11 2 11H9.375C6.89271 12.6496 5.111 15.1619 4.375 18.05C3.66248 18.1631 2.9938 18.4667 2.43978 18.9288C1.88576 19.3909 1.46703 19.9942 1.22793 20.6749C0.988837 21.3556 0.938276 22.0882 1.08161 22.7953C1.22493 23.5023 1.55682 24.1574 2.04211 24.6913C2.5274 25.2251 3.14802 25.6177 3.83826 25.8276C4.52849 26.0375 5.26264 26.0567 5.96294 25.8834C6.66324 25.7101 7.30363 25.3506 7.81627 24.843C8.32892 24.3354 8.69475 23.6986 8.875 23H23.125C23.3053 23.6986 23.6711 24.3354 24.1837 24.843C24.6964 25.3506 25.3368 25.7101 26.0371 25.8834C26.7374 26.0567 27.4715 26.0375 28.1617 25.8276C28.852 25.6177 29.4726 25.2251 29.9579 24.6913C30.4432 24.1574 30.7751 23.5023 30.9184 22.7953C31.0617 22.0882 31.0112 21.3556 30.7721 20.6749C30.533 19.9942 30.1142 19.3909 29.5602 18.9288C29.0062 18.4667 28.3375 18.1631 27.625 18.05ZM5 24C4.60444 24 4.21776 23.8827 3.88886 23.6629C3.55996 23.4432 3.30362 23.1308 3.15224 22.7654C3.00087 22.3999 2.96126 21.9978 3.03843 21.6098C3.1156 21.2219 3.30608 20.8655 3.58579 20.5858C3.86549 20.3061 4.22186 20.1156 4.60982 20.0384C4.99778 19.9613 5.39991 20.0009 5.76537 20.1522C6.13082 20.3036 6.44318 20.56 6.66294 20.8889C6.8827 21.2178 7 21.6044 7 22C7 22.5304 6.78929 23.0391 6.41421 23.4142C6.03914 23.7893 5.53043 24 5 24ZM16 8C16.3956 8 16.7822 8.1173 17.1111 8.33706C17.44 8.55682 17.6964 8.86918 17.8478 9.23463C17.9991 9.60009 18.0387 10.0022 17.9616 10.3902C17.8844 10.7781 17.6939 11.1345 17.4142 11.4142C17.1345 11.6939 16.7781 11.8844 16.3902 11.9616C16.0022 12.0387 15.6001 11.9991 15.2346 11.8478C14.8692 11.6964 14.5568 11.44 14.3371 11.1111C14.1173 10.7822 14 10.3956 14 10C14 9.46957 14.2107 8.96086 14.5858 8.58579C14.9609 8.21071 15.4696 8 16 8ZM27 24C26.6044 24 26.2178 23.8827 25.8889 23.6629C25.56 23.4432 25.3036 23.1308 25.1522 22.7654C25.0009 22.3999 24.9613 21.9978 25.0384 21.6098C25.1156 21.2219 25.3061 20.8655 25.5858 20.5858C25.8655 20.3061 26.2219 20.1156 26.6098 20.0384C26.9978 19.9613 27.3999 20.0009 27.7654 20.1522C28.1308 20.3036 28.4432 20.56 28.6629 20.8889C28.8827 21.2178 29 21.6044 29 22C29 22.5304 28.7893 23.0391 28.4142 23.4142C28.0391 23.7893 27.5304 24 27 24Z" fill="white"/>
<path d="M68.035 17.625C67.3586 15.2413 65.9932 13.1104 64.11 11.5H70C70.3978 11.5 70.7794 11.342 71.0607 11.0607C71.342 10.7794 71.5 10.3978 71.5 10C71.5 9.60217 71.342 9.22064 71.0607 8.93934C70.7794 8.65803 70.3978 8.5 70 8.5H60.2425C59.9323 7.62274 59.3577 6.86323 58.5979 6.32604C57.8381 5.78885 56.9305 5.5004 56 5.5004C55.0695 5.5004 54.1619 5.78885 53.4021 6.32604C52.6423 6.86323 52.0677 7.62274 51.7575 8.5H42C41.6022 8.5 41.2206 8.65803 40.9393 8.93934C40.658 9.22064 40.5 9.60217 40.5 10C40.5 10.3978 40.658 10.7794 40.9393 11.0607C41.2206 11.342 41.6022 11.5 42 11.5H47.89C46.0068 13.1104 44.6414 15.2413 43.965 17.625C42.9348 17.8704 42.0241 18.4713 41.3933 19.322C40.7624 20.1727 40.4518 21.2186 40.5161 22.2757C40.5804 23.3328 41.0155 24.3333 41.7448 25.1013C42.4741 25.8692 43.4508 26.3554 44.5032 26.4741C45.5556 26.5929 46.6161 26.3367 47.4982 25.7506C48.3803 25.1645 49.0274 24.286 49.3257 23.2698C49.6239 22.2537 49.5542 21.1648 49.1288 20.195C48.7035 19.2251 47.9496 18.4363 47 17.9675C47.4239 16.7231 48.0993 15.5792 48.9842 14.607C49.8691 13.6347 50.9446 12.855 52.1438 12.3162C52.5438 12.9815 53.1092 13.5319 53.7849 13.914C54.4607 14.2961 55.2237 14.4969 56 14.4969C56.7763 14.4969 57.5393 14.2961 58.2151 13.914C58.8908 13.5319 59.4562 12.9815 59.8563 12.3162C61.0554 12.855 62.1309 13.6347 63.0158 14.607C63.9007 15.5792 64.5761 16.7231 65 17.9675C64.0504 18.4363 63.2965 19.2251 62.8712 20.195C62.4458 21.1648 62.3761 22.2537 62.6743 23.2698C62.9726 24.286 63.6197 25.1645 64.5018 25.7506C65.3839 26.3367 66.4444 26.5929 67.4968 26.4741C68.5492 26.3554 69.5259 25.8692 70.2552 25.1013C70.9845 24.3333 71.4196 23.3328 71.4839 22.2757C71.5482 21.2186 71.2376 20.1727 70.6067 19.322C69.9759 18.4713 69.0652 17.8704 68.035 17.625ZM45 23.5C44.7033 23.5 44.4133 23.412 44.1666 23.2472C43.92 23.0824 43.7277 22.8481 43.6142 22.574C43.5006 22.2999 43.4709 21.9983 43.5288 21.7074C43.5867 21.4164 43.7296 21.1491 43.9393 20.9393C44.1491 20.7296 44.4164 20.5867 44.7074 20.5288C44.9983 20.4709 45.2999 20.5006 45.574 20.6142C45.8481 20.7277 46.0824 20.92 46.2472 21.1666C46.412 21.4133 46.5 21.7033 46.5 22C46.5 22.3978 46.342 22.7794 46.0607 23.0607C45.7794 23.342 45.3978 23.5 45 23.5ZM56 11.5C55.7033 11.5 55.4133 11.412 55.1666 11.2472C54.92 11.0824 54.7277 10.8481 54.6142 10.574C54.5006 10.2999 54.4709 9.99833 54.5288 9.70736C54.5867 9.41639 54.7296 9.14912 54.9393 8.93934C55.1491 8.72956 55.4164 8.5867 55.7074 8.52882C55.9983 8.47094 56.2999 8.50065 56.574 8.61418C56.8481 8.72771 57.0824 8.91997 57.2472 9.16664C57.412 9.41332 57.5 9.70333 57.5 10C57.5 10.3978 57.342 10.7794 57.0607 11.0607C56.7794 11.342 56.3978 11.5 56 11.5ZM67 23.5C66.7033 23.5 66.4133 23.412 66.1666 23.2472C65.92 23.0824 65.7277 22.8481 65.6142 22.574C65.5007 22.2999 65.4709 21.9983 65.5288 21.7074C65.5867 21.4164 65.7296 21.1491 65.9393 20.9393C66.1491 20.7296 66.4164 20.5867 66.7074 20.5288C66.9983 20.4709 67.2999 20.5006 67.574 20.6142C67.8481 20.7277 68.0824 20.92 68.2472 21.1666C68.412 21.4133 68.5 21.7033 68.5 22C68.5 22.3978 68.342 22.7794 68.0607 23.0607C67.7794 23.342 67.3978 23.5 67 23.5Z" fill="white"/>
</g>
<defs>
<clipPath id="clip0_27_5117">
<rect width="72" height="32" rx="5" fill="white"/>
</clipPath>
</defs>
</svg>
