<svg width="72" height="32" viewBox="0 0 72 32" fill="none" xmlns="http://www.w3.org/2000/svg">
<g clip-path="url(#clip0_27_6475)">
<path d="M6.80811 20.5888L10.2919 15.8125C11.3417 16.8901 11.9483 18.3228 11.9917 19.8266C12.035 21.3304 11.5118 22.7956 10.5258 23.9318C9.53974 25.0681 8.16284 25.7925 6.66792 25.9614C5.173 26.1303 3.66917 25.7315 2.45443 24.844C1.2397 23.9564 0.402714 22.6449 0.109343 21.1694C-0.184028 19.6938 0.0876261 18.1619 0.870471 16.8772C1.65332 15.5925 2.89022 14.6488 4.33607 14.233C5.78191 13.8173 7.33119 13.9598 8.67686 14.6325L5.19311 19.4112C5.11006 19.5169 5.04915 19.6382 5.01401 19.7679C4.97888 19.8976 4.97025 20.033 4.98864 20.1662C5.00702 20.2993 5.05205 20.4273 5.12103 20.5426C5.19 20.658 5.28151 20.7582 5.39009 20.8374C5.49868 20.9165 5.6221 20.973 5.75299 21.0034C5.88388 21.0338 6.01956 21.0375 6.15192 21.0143C6.28428 20.9911 6.4106 20.9415 6.52335 20.8683C6.63609 20.7952 6.73294 20.7001 6.80811 20.5888ZM26.0006 14C25.2776 13.9997 24.5606 14.1306 23.8844 14.3862L26.8644 19.5C26.9401 19.6137 26.9917 19.7417 27.016 19.8761C27.0404 20.0105 27.0369 20.1485 27.0059 20.2816C26.9748 20.4146 26.9169 20.5399 26.8355 20.6496C26.7542 20.7594 26.6513 20.8513 26.533 20.9198C26.4148 20.9882 26.2838 21.0317 26.1481 21.0475C26.0124 21.0634 25.875 21.0513 25.7441 21.012C25.6133 20.9726 25.4919 20.9069 25.3875 20.8189C25.283 20.7308 25.1978 20.6223 25.1369 20.5L22.1581 15.3925C21.0743 16.2966 20.3438 17.5538 20.0952 18.9431C19.8466 20.3325 20.0957 21.765 20.7988 22.9888C21.5019 24.2126 22.6139 25.1494 23.9393 25.6345C25.2647 26.1196 26.7187 26.1219 28.0457 25.641C29.3726 25.1601 30.4876 24.2268 31.1945 23.0053C31.9015 21.7837 32.1551 20.3519 31.9109 18.9618C31.6667 17.5717 30.9403 16.3122 29.8593 15.4047C28.7783 14.4972 27.412 13.9998 26.0006 14ZM20.7419 9H24.0006C24.2658 9 24.5202 9.10536 24.7077 9.29289C24.8953 9.48043 25.0006 9.73478 25.0006 10C25.0006 10.2652 25.106 10.5196 25.2935 10.7071C25.481 10.8946 25.7354 11 26.0006 11C26.2658 11 26.5202 10.8946 26.7077 10.7071C26.8953 10.5196 27.0006 10.2652 27.0006 10C27.0006 9.20435 26.6845 8.44129 26.1219 7.87868C25.5593 7.31607 24.7963 7 24.0006 7H19.0006C18.8253 7.0004 18.6531 7.0469 18.5014 7.13483C18.3497 7.22276 18.2238 7.34903 18.1363 7.50098C18.0488 7.65294 18.0028 7.82522 18.0029 8.00057C18.003 8.17591 18.0492 8.34815 18.1369 8.5L19.5931 11H12.4081L10.3644 7.5C10.2768 7.34831 10.1509 7.22229 9.99932 7.13454C9.84774 7.04679 9.67577 7.0004 9.50061 7H6.00061C5.7354 7 5.48104 7.10536 5.29351 7.29289C5.10597 7.48043 5.00061 7.73478 5.00061 8C5.00061 8.26522 5.10597 8.51957 5.29351 8.70711C5.48104 8.89464 5.7354 9 6.00061 9H8.92686L10.6406 11.9388L8.67686 14.6325C9.27759 14.9324 9.82355 15.3313 10.2919 15.8125L11.7406 13.825L15.6369 20.5C15.6978 20.6223 15.783 20.7308 15.8875 20.8189C15.9919 20.9069 16.1133 20.9726 16.2441 21.012C16.375 21.0513 16.5124 21.0634 16.6481 21.0475C16.7838 21.0317 16.9148 20.9882 17.033 20.9198C17.1513 20.8513 17.2542 20.7594 17.3355 20.6496C17.4169 20.5399 17.4748 20.4146 17.5059 20.2816C17.5369 20.1485 17.5404 20.0105 17.516 19.8761C17.4917 19.7417 17.4401 19.6137 17.3644 19.5L13.5744 13H20.7594L22.1581 15.3962C22.6731 14.9656 23.2566 14.6242 23.8844 14.3862L20.7419 9Z" fill="white"/>
<path d="M65.5004 13.5C64.8596 13.4997 64.2222 13.5945 63.6092 13.7812L61.1117 9.5H64.0004C64.133 9.5 64.2602 9.55268 64.354 9.64645C64.4477 9.74021 64.5004 9.86739 64.5004 10C64.5004 10.3978 64.6585 10.7794 64.9398 11.0607C65.2211 11.342 65.6026 11.5 66.0004 11.5C66.3983 11.5 66.7798 11.342 67.0611 11.0607C67.3424 10.7794 67.5004 10.3978 67.5004 10C67.5004 9.07174 67.1317 8.1815 66.4753 7.52513C65.8189 6.86875 64.9287 6.5 64.0004 6.5H58.5004C58.2374 6.50049 57.979 6.57015 57.7514 6.70201C57.5238 6.83386 57.3348 7.02326 57.2035 7.25121C57.0722 7.47915 57.0031 7.73763 57.0032 8.0007C57.0033 8.26377 57.0726 8.52218 57.2042 8.75L58.2217 10.5H53.6954L51.7967 7.25C51.6653 7.02238 51.4763 6.83329 51.2488 6.70166C51.0213 6.57003 50.7633 6.50049 50.5004 6.5H46.5004C46.1026 6.5 45.7211 6.65804 45.4398 6.93934C45.1585 7.22064 45.0004 7.60218 45.0004 8C45.0004 8.39782 45.1585 8.77936 45.4398 9.06066C45.7211 9.34196 46.1026 9.5 46.5004 9.5H49.6392L51.0229 11.875L49.2504 14.1112C47.8031 13.4321 46.1566 13.3083 44.624 13.7634C43.0913 14.2185 41.7793 15.2208 40.9371 16.5797C40.0949 17.9387 39.7813 19.5598 40.0559 21.1348C40.3304 22.7098 41.174 24.1291 42.4264 25.123C43.6787 26.1169 45.2525 26.6161 46.8487 26.5257C48.445 26.4354 49.9524 25.7618 51.0846 24.633C52.2168 23.5041 52.8949 21.9987 52.99 20.4028C53.0851 18.8068 52.5906 17.2315 51.6004 15.9762L52.6467 14.655L54.7504 18.2563C54.8421 18.4396 54.9704 18.6022 55.1274 18.734C55.2844 18.8658 55.4667 18.964 55.6632 19.0226C55.8596 19.0812 56.0659 19.0989 56.2695 19.0746C56.473 19.0504 56.6694 18.9846 56.8466 18.8815C57.0237 18.7784 57.1779 18.6401 57.2995 18.4751C57.4211 18.31 57.5076 18.1219 57.5536 17.9221C57.5997 17.7224 57.6043 17.5153 57.5672 17.3137C57.5301 17.1121 57.4521 16.9203 57.3379 16.75L55.4454 13.5H59.9717L61.0204 15.2975C59.9275 16.3404 59.232 17.7314 59.0534 19.2315C58.8748 20.7315 59.2242 22.247 60.0417 23.5173C60.8592 24.7877 62.0936 25.7337 63.5328 26.1927C64.972 26.6517 66.5262 26.5951 67.9282 26.0325C69.3302 25.47 70.4925 24.4367 71.2154 23.1102C71.9382 21.7837 72.1765 20.2469 71.8892 18.7638C71.6019 17.2807 70.807 15.944 69.6411 14.9834C68.4752 14.0228 67.0111 13.4983 65.5004 13.5ZM50.0004 20C50.0005 20.7261 49.7748 21.4342 49.3546 22.0263C48.9344 22.6184 48.3404 23.0651 47.655 23.3046C46.9696 23.5441 46.2266 23.5646 45.5291 23.3631C44.8315 23.1616 44.2139 22.7481 43.7618 22.18C43.3097 21.6119 43.0454 20.9172 43.0057 20.1922C42.9659 19.4673 43.1526 18.7479 43.5399 18.1337C43.9271 17.5196 44.4958 17.041 45.1671 16.7644C45.8384 16.4879 46.5792 16.4269 47.2867 16.59L45.3242 19.0688C45.0772 19.3807 44.9643 19.778 45.0102 20.1732C45.0561 20.5685 45.2572 20.9293 45.5692 21.1763C45.8811 21.4232 46.2784 21.5362 46.6737 21.4902C47.0689 21.4443 47.4297 21.2432 47.6767 20.9312L49.6392 18.4525C49.8773 18.9336 50.001 19.4632 50.0004 20ZM65.5004 23.5C64.8638 23.4997 64.2392 23.3258 63.6941 22.9969C63.1489 22.668 62.7038 22.1966 62.4067 21.6336C62.1095 21.0705 61.9716 20.4371 62.0077 19.8014C62.0438 19.1658 62.2526 18.552 62.6117 18.0263L64.2042 20.7563C64.4108 21.0859 64.7375 21.3224 65.1153 21.4158C65.493 21.5091 65.8922 21.452 66.2287 21.2565C66.5651 21.0611 66.8124 20.7425 66.9184 20.3681C67.0244 19.9937 66.9807 19.5928 66.7967 19.25L65.2029 16.52C65.3017 16.5113 65.4004 16.5063 65.5004 16.5063C66.4287 16.5063 67.3189 16.875 67.9753 17.5314C68.6317 18.1878 69.0004 19.078 69.0004 20.0063C69.0004 20.9345 68.6317 21.8247 67.9753 22.4811C67.3189 23.1375 66.4287 23.5063 65.5004 23.5063V23.5Z" fill="white"/>
</g>
<defs>
<clipPath id="clip0_27_6475">
<rect width="72" height="32" rx="5" fill="white"/>
</clipPath>
</defs>
</svg>
