<svg width="72" height="32" viewBox="0 0 72 32" fill="none" xmlns="http://www.w3.org/2000/svg">
<g clip-path="url(#clip0_27_3478)">
<path d="M21 21C21 21.5938 20.8612 22.145 20.6187 22.5138C20.5313 22.6656 20.4044 22.791 20.2514 22.8767C20.0985 22.9623 19.9252 23.0049 19.75 23C18.535 23 18.5 21.205 18.5 21C18.5 20.4075 18.6388 19.855 18.8813 19.4862C18.9687 19.3344 19.0956 19.209 19.2486 19.1233C19.4015 19.0377 19.5748 18.9951 19.75 19C20.965 19 21 20.795 21 21ZM28 6V26C28 26.5304 27.7893 27.0391 27.4142 27.4142C27.0391 27.7893 26.5304 28 26 28H6C5.46957 28 4.96086 27.7893 4.58579 27.4142C4.21071 27.0391 4 26.5304 4 26V6C4 5.46957 4.21071 4.96086 4.58579 4.58579C4.96086 4.21071 5.46957 4 6 4H26C26.5304 4 27.0391 4.21071 27.4142 4.58579C27.7893 4.96086 28 5.46957 28 6ZM17.605 9.4475C17.6637 9.56509 17.745 9.66996 17.8443 9.7561C17.9435 9.84225 18.0588 9.90798 18.1835 9.94954C18.3082 9.9911 18.4398 10.0077 18.5709 9.99832C18.702 9.98896 18.83 9.95385 18.9475 9.895L19.5 9.6175V14C19.5 14.2652 19.6054 14.5196 19.7929 14.7071C19.9804 14.8946 20.2348 15 20.5 15C20.7652 15 21.0196 14.8946 21.2071 14.7071C21.3946 14.5196 21.5 14.2652 21.5 14V8C21.5001 7.82946 21.4566 7.66171 21.3736 7.51272C21.2907 7.36372 21.171 7.23843 21.0259 7.14874C20.8808 7.05905 20.7153 7.00795 20.5449 7.00029C20.3745 6.99264 20.205 7.02868 20.0525 7.105L18.0525 8.105C17.9349 8.1637 17.83 8.24501 17.7439 8.34427C17.6578 8.44353 17.592 8.5588 17.5505 8.68349C17.5089 8.80817 17.4923 8.93983 17.5017 9.07092C17.511 9.20202 17.5461 9.32998 17.605 9.4475ZM14 18C14.0001 17.8295 13.9566 17.6617 13.8736 17.5127C13.7907 17.3637 13.671 17.2384 13.5259 17.1487C13.3808 17.059 13.2153 17.0079 13.0449 17.0003C12.8745 16.9926 12.705 17.0287 12.5525 17.105L10.5525 18.105C10.3151 18.2237 10.1346 18.4318 10.0507 18.6836C9.96679 18.9353 9.98632 19.2101 10.105 19.4475C10.2237 19.6849 10.4318 19.8654 10.6836 19.9493C10.9353 20.0332 11.2101 20.0137 11.4475 19.895L12 19.6175V24C12 24.2652 12.1054 24.5196 12.2929 24.7071C12.4804 24.8946 12.7348 25 13 25C13.2652 25 13.5196 24.8946 13.7071 24.7071C13.8946 24.5196 14 24.2652 14 24V18ZM16 11C16 8.645 14.6637 7 12.75 7C10.8362 7 9.5 8.645 9.5 11C9.5 13.355 10.8362 15 12.75 15C14.6637 15 16 13.355 16 11ZM23 21C23 18.645 21.6637 17 19.75 17C17.8363 17 16.5 18.645 16.5 21C16.5 23.355 17.8363 25 19.75 25C21.6637 25 23 23.355 23 21ZM12.75 9C12.5737 8.99397 12.3992 9.03605 12.245 9.12171C12.0909 9.20738 11.963 9.3334 11.875 9.48625C11.6325 9.86125 11.5 10.4075 11.5 11C11.5 11.205 11.535 13 12.75 13C12.9263 13.006 13.1008 12.9639 13.255 12.8783C13.4091 12.7926 13.537 12.6666 13.625 12.5138C13.8675 12.1388 14 11.5938 14 11C14 10.795 13.965 9 12.75 9Z" fill="white"/>
<path d="M51.5 3C48.5563 3 46.5 5.4675 46.5 9C46.5 12.5325 48.5563 15 51.5 15C54.4437 15 56.5 12.5325 56.5 9C56.5 5.4675 54.4437 3 51.5 3ZM51.5 12C49.5563 12 49.5 9.3075 49.5 9C49.5 8.6925 49.5563 6 51.5 6C53.4437 6 53.5 8.6925 53.5 9C53.5 9.3075 53.4437 12 51.5 12ZM58.1588 6.67125C57.9808 6.31552 57.9514 5.90366 58.077 5.52626C58.2027 5.14885 58.4731 4.83681 58.8288 4.65875L61.8288 3.15875C62.0574 3.04432 62.3116 2.99025 62.567 3.00167C62.8225 3.0131 63.0708 3.08964 63.2883 3.22403C63.5059 3.35841 63.6854 3.54619 63.81 3.76951C63.9346 3.99283 64 4.24429 64 4.5V13.5C64 13.8978 63.842 14.2794 63.5607 14.5607C63.2794 14.842 62.8978 15 62.5 15C62.1022 15 61.7206 14.842 61.4393 14.5607C61.158 14.2794 61 13.8978 61 13.5V6.9275L60.1712 7.34125C59.8155 7.51923 59.4037 7.54864 59.0263 7.42299C58.6489 7.29735 58.3368 7.02694 58.1588 6.67125ZM60.5 17C57.5562 17 55.5 19.4675 55.5 23C55.5 26.5325 57.5562 29 60.5 29C63.4438 29 65.5 26.5325 65.5 23C65.5 19.4675 63.4438 17 60.5 17ZM60.5 26C58.5562 26 58.5 23.3075 58.5 23C58.5 22.6925 58.5562 20 60.5 20C62.4438 20 62.5 22.6925 62.5 23C62.5 23.3075 62.4438 26 60.5 26ZM53 18.5V27.5C53 27.8978 52.842 28.2794 52.5607 28.5607C52.2794 28.842 51.8978 29 51.5 29C51.1022 29 50.7206 28.842 50.4393 28.5607C50.158 28.2794 50 27.8978 50 27.5V20.9275L49.1713 21.3412C48.9948 21.4328 48.8019 21.4883 48.6037 21.5047C48.4056 21.521 48.2062 21.4977 48.0171 21.4363C47.828 21.3749 47.653 21.2765 47.5023 21.1468C47.3516 21.0172 47.2282 20.8588 47.1392 20.681C47.0502 20.5033 46.9975 20.3095 46.984 20.1112C46.9706 19.9128 46.9967 19.7138 47.0608 19.5256C47.125 19.3374 47.2259 19.1639 47.3578 19.0151C47.4896 18.8663 47.6497 18.7451 47.8288 18.6588L50.8287 17.1588C51.0574 17.0443 51.3116 16.9902 51.567 17.0017C51.8225 17.0131 52.0708 17.0896 52.2883 17.224C52.5059 17.3584 52.6855 17.5462 52.81 17.7695C52.9346 17.9928 53 18.2443 53 18.5Z" fill="white"/>
</g>
<defs>
<clipPath id="clip0_27_3478">
<rect width="72" height="32" rx="5" fill="white"/>
</clipPath>
</defs>
</svg>
