<svg width="72" height="32" viewBox="0 0 72 32" fill="none" xmlns="http://www.w3.org/2000/svg">
<g clip-path="url(#clip0_27_856)">
<path d="M29.6524 18.9875V18.975C29.6503 18.9656 29.6473 18.9564 29.6437 18.9475C29.5607 18.7211 29.4643 18.4999 29.3549 18.285L24.1587 6.475C24.1087 6.36125 24.0379 6.25781 23.9499 6.17C23.5785 5.79847 23.1375 5.50375 22.6521 5.30267C22.1668 5.1016 21.6466 4.99811 21.1212 4.99811C20.5958 4.99811 20.0756 5.1016 19.5902 5.30267C19.1049 5.50375 18.6639 5.79847 18.2924 6.17C18.1056 6.35709 18.0004 6.61057 17.9999 6.875V10H13.9999V6.875C14 6.74364 13.9743 6.61355 13.9241 6.49215C13.8739 6.37076 13.8003 6.26044 13.7074 6.1675C13.336 5.79597 12.895 5.50125 12.4096 5.30017C11.9243 5.0991 11.4041 4.99561 10.8787 4.99561C10.3533 4.99561 9.83311 5.0991 9.34775 5.30017C8.86238 5.50125 8.42139 5.79597 8.04994 6.1675C7.96201 6.25531 7.89122 6.35875 7.84119 6.4725L2.64994 18.285C2.54059 18.4999 2.44417 18.7211 2.36119 18.9475C2.35771 18.9561 2.35479 18.9648 2.35244 18.9738C2.35244 18.9738 2.35244 18.9838 2.35244 18.9875C1.83618 20.4792 1.92854 22.1142 2.60952 23.5383C3.29049 24.9624 4.50522 26.0607 5.99044 26.5953C7.47565 27.1299 9.11171 27.0577 10.544 26.3943C11.9764 25.7309 13.0896 24.5298 13.6424 23.0513C13.8859 22.3871 14.0086 21.6848 14.0049 20.9775V12H18.0049V20.9788C18.0013 21.6861 18.124 22.3884 18.3674 23.0525C18.9203 24.531 20.0335 25.7321 21.4658 26.3955C22.8982 27.0589 24.5342 27.1311 26.0194 26.5965C27.5047 26.0619 28.7194 24.9636 29.4004 23.5395C30.0813 22.1155 30.1737 20.4804 29.6574 18.9888L29.6524 18.9875ZM11.7587 22.3625C11.3894 23.3478 10.6468 24.1479 9.69168 24.5895C8.73658 25.0311 7.64595 25.0785 6.65612 24.7215C5.66629 24.3646 4.85697 23.632 4.40354 22.6824C3.95011 21.7329 3.88909 20.643 4.23369 19.6488L4.45994 19.1325C4.87578 18.3421 5.54421 17.7135 6.35872 17.3471C7.17324 16.9806 8.08697 16.8973 8.95433 17.1104C9.82169 17.3235 10.5928 17.8207 11.1447 18.5229C11.6967 19.2251 11.9977 20.0918 11.9999 20.985V21C11.9999 21.4664 11.9182 21.9292 11.7587 22.3675V22.3625ZM25.3749 24.7588C24.7703 24.9801 24.1212 25.0522 23.4827 24.9689C22.8442 24.8857 22.2353 24.6495 21.7076 24.2805C21.18 23.9115 20.7492 23.4206 20.4519 22.8495C20.1546 22.2783 19.9995 21.6439 19.9999 21V20.9863C20.0032 20.0935 20.3051 19.2276 20.8574 18.5262C21.4098 17.8249 22.1809 17.3284 23.048 17.116C23.9151 16.9035 24.8283 16.9872 25.6423 17.3538C26.4563 17.7203 27.1243 18.3487 27.5399 19.1388L27.7662 19.655C28.1219 20.6491 28.0701 21.7435 27.6221 22.6996C27.1742 23.6556 26.3664 24.3958 25.3749 24.7588Z" fill="white"/>
<path d="M70.125 18.8312C70.125 18.8312 70.125 18.8313 70.125 18.825C70.0351 18.5728 69.9294 18.3265 69.8087 18.0875L64.6162 6.2725C64.5413 6.10236 64.4353 5.94765 64.3037 5.81625C63.8859 5.39823 63.3897 5.06663 62.8437 4.84039C62.2976 4.61415 61.7123 4.49771 61.1212 4.49771C60.5302 4.49771 59.9449 4.61415 59.3988 4.84039C58.8528 5.06663 58.3566 5.39823 57.9387 5.81625C57.6581 6.09718 57.5003 6.47792 57.5 6.875V9.5H54.5V6.875C54.5 6.47749 54.3422 6.09624 54.0612 5.815C53.6434 5.39698 53.1472 5.06538 52.6012 4.83914C52.0551 4.6129 51.4698 4.49646 50.8787 4.49646C50.2877 4.49646 49.7024 4.6129 49.1563 4.83914C48.6103 5.06538 48.1141 5.39698 47.6962 5.815C47.5647 5.9464 47.4587 6.10111 47.3837 6.27125L42.1912 18.0875C42.0705 18.3265 41.9649 18.5728 41.875 18.825C41.875 18.825 41.875 18.825 41.875 18.8312C41.5579 19.7239 41.4397 20.6751 41.5288 21.6183C41.6179 22.5614 41.912 23.4737 42.3907 24.2912C42.8693 25.1087 43.5209 25.8118 44.2997 26.3511C45.0786 26.8904 45.9659 27.2529 46.8995 27.4133C47.8332 27.5737 48.7906 27.528 49.7048 27.2796C50.619 27.0311 51.4678 26.5858 52.1918 25.9749C52.9158 25.3639 53.4976 24.6021 53.8963 23.7428C54.295 22.8834 54.501 21.9473 54.5 21V12.5H57.5V21C57.499 21.9473 57.705 22.8834 58.1037 23.7428C58.5024 24.6021 59.0842 25.3639 59.8082 25.9749C60.5322 26.5858 61.381 27.0311 62.2952 27.2796C63.2094 27.528 64.1668 27.5737 65.1005 27.4133C66.0341 27.2529 66.9214 26.8904 67.7003 26.3511C68.4791 25.8118 69.1307 25.1087 69.6093 24.2912C70.088 23.4737 70.3821 22.5614 70.4712 21.6183C70.5603 20.6751 70.4421 19.7239 70.125 18.8312ZM50 7.785C50.2143 7.62943 50.466 7.53337 50.7294 7.50659C50.9929 7.4798 51.2588 7.52325 51.5 7.6325V15.5262C50.1701 14.6728 48.5744 14.3341 47.0125 14.5737L50 7.785ZM48 24.5C47.3078 24.5 46.6311 24.2947 46.0555 23.9101C45.4799 23.5256 45.0313 22.9789 44.7664 22.3394C44.5015 21.6998 44.4322 20.9961 44.5672 20.3172C44.7023 19.6383 45.0356 19.0146 45.5251 18.5251C46.0146 18.0356 46.6382 17.7023 47.3172 17.5673C47.9961 17.4322 48.6998 17.5015 49.3394 17.7664C49.9789 18.0313 50.5256 18.4799 50.9101 19.0555C51.2947 19.6311 51.5 20.3078 51.5 21C51.5 21.9283 51.1312 22.8185 50.4749 23.4749C49.8185 24.1313 48.9283 24.5 48 24.5ZM60.5 7.6325C60.7414 7.52401 61.0071 7.48098 61.2704 7.50775C61.5337 7.53452 61.7854 7.63014 62 7.785L64.9837 14.5737C63.4218 14.3341 61.8262 14.6728 60.4962 15.5262L60.5 7.6325ZM64 24.5C63.3078 24.5 62.6311 24.2947 62.0555 23.9101C61.4799 23.5256 61.0313 22.9789 60.7664 22.3394C60.5015 21.6998 60.4322 20.9961 60.5672 20.3172C60.7023 19.6383 61.0356 19.0146 61.5251 18.5251C62.0146 18.0356 62.6382 17.7023 63.3172 17.5673C63.9961 17.4322 64.6998 17.5015 65.3394 17.7664C65.9789 18.0313 66.5256 18.4799 66.9101 19.0555C67.2947 19.6311 67.5 20.3078 67.5 21C67.5 21.9283 67.1312 22.8185 66.4749 23.4749C65.8185 24.1313 64.9283 24.5 64 24.5Z" fill="white"/>
</g>
<defs>
<clipPath id="clip0_27_856">
<rect width="72" height="32" rx="5" fill="white"/>
</clipPath>
</defs>
</svg>
