<svg width="72" height="32" viewBox="0 0 72 32" fill="none" xmlns="http://www.w3.org/2000/svg">
<g clip-path="url(#clip0_27_4324)">
<path d="M29.9785 19.9475C29.8457 18.1819 29.0935 16.5198 27.8546 15.2549C26.6157 13.9899 24.9697 13.2032 23.2072 13.0337C23.0943 12.7945 22.9691 12.5613 22.8322 12.335C23.625 10.5905 23.7193 8.60864 23.0958 6.79678C22.4722 4.98492 21.1782 3.48082 19.4797 2.59375L19.4622 2.58375C19.4163 2.56015 19.3687 2.54009 19.3197 2.52375C19.0811 2.44472 18.8215 2.45845 18.5925 2.56221C18.3636 2.66597 18.1821 2.85214 18.0842 3.08366C17.9863 3.31519 17.9792 3.57508 18.0643 3.8116C18.1495 4.04812 18.3205 4.24391 18.5435 4.36H18.5522C18.6997 4.44625 20.9997 5.71625 20.9997 8.5C21.0002 9.03206 20.9158 9.56079 20.7497 10.0662C19.3754 9.04795 17.7102 8.49827 15.9997 8.49827C14.2892 8.49827 12.624 9.04795 11.2497 10.0662C11.0836 9.56079 10.9992 9.03206 10.9997 8.5C10.9997 5.70625 13.316 4.43625 13.456 4.3625C13.6874 4.23859 13.8608 4.02865 13.9388 3.77799C14.0168 3.52734 13.9931 3.25607 13.8728 3.02274C13.7525 2.78941 13.5453 2.61273 13.2959 2.53083C13.0465 2.44893 12.7749 2.46839 12.5397 2.585L12.521 2.595C10.821 3.48289 9.52573 4.98829 8.90148 6.80173C8.27724 8.61518 8.37143 10.5989 9.1647 12.345C9.0272 12.57 8.8997 12.8025 8.7897 13.0413C7.02763 13.2118 5.38236 13.999 4.14402 15.2641C2.90567 16.5292 2.15379 18.1909 2.02095 19.9562C2.00132 20.1585 1.99548 20.3619 2.00345 20.565C2.02506 20.8203 2.14386 21.0576 2.33533 21.2279C2.5268 21.3982 2.77633 21.4885 3.03243 21.4801C3.28853 21.4718 3.53166 21.3655 3.71165 21.1831C3.89164 21.0007 3.99475 20.7562 3.9997 20.5C3.9997 20.33 4.00845 20.1612 4.02345 20C4.1147 19.2188 4.53095 17.615 6.35345 16.5637C6.86808 16.2655 7.43199 16.0618 8.01845 15.9625C8.00595 16.1412 7.99845 16.3225 7.99845 16.505C8.00004 18.0751 8.46295 19.6101 9.32966 20.9193C10.1964 22.2285 11.4287 23.2541 12.8735 23.8687C12.466 24.4202 11.9489 24.8815 11.3547 25.2237C8.97095 26.5987 6.7447 25.2688 6.55595 25.1513L6.54095 25.1413C6.31853 25.0008 6.04971 24.9536 5.79275 25.01C5.5358 25.0663 5.3114 25.2217 5.16818 25.4423C5.02496 25.663 4.97447 25.9312 5.02763 26.1889C5.08079 26.4465 5.23333 26.6728 5.4522 26.8188L5.4822 26.8375C6.3153 27.3664 7.24466 27.7255 8.21691 27.8942C9.18917 28.063 10.1852 28.0381 11.1478 27.8209C12.1104 27.6037 13.0206 27.1985 13.8262 26.6286C14.6318 26.0587 15.3169 25.3354 15.8422 24.5C15.8947 24.5 15.946 24.5 15.9985 24.5C16.051 24.5 16.1035 24.5 16.1572 24.5C16.6832 25.3348 17.3687 26.0576 18.1745 26.627C18.9803 27.1964 19.8905 27.6012 20.853 27.8182C21.8155 28.0353 22.8114 28.0602 23.7836 27.8917C24.7558 27.7232 25.6851 27.3645 26.5184 26.8363L26.5472 26.8175C26.7661 26.6716 26.9186 26.4452 26.9718 26.1876C27.0249 25.93 26.9744 25.6618 26.8312 25.4411C26.688 25.2204 26.4636 25.0651 26.2066 25.0087C25.9497 24.9524 25.6809 24.9995 25.4585 25.14L25.4435 25.15C25.2547 25.2675 23.0285 26.5987 20.6447 25.2225C20.0496 24.8789 19.5321 24.4158 19.1247 23.8625C20.5693 23.2479 21.8014 22.2225 22.6681 20.9135C23.5348 19.6046 23.9979 18.0699 23.9997 16.5C23.9997 16.3175 23.9909 16.1375 23.9797 15.9587C24.5665 16.0576 25.1308 16.2608 25.646 16.5588C27.4547 17.6025 27.8785 19.1912 27.9747 19.9737C27.991 20.1475 27.9997 20.3225 27.9997 20.5C27.9959 20.6313 28.0181 20.7621 28.0648 20.8849C28.1116 21.0076 28.1821 21.12 28.2723 21.2155C28.3625 21.3111 28.4706 21.3879 28.5905 21.4416C28.7103 21.4954 28.8396 21.525 28.971 21.5287C29.1023 21.5325 29.2331 21.5104 29.3558 21.4636C29.4786 21.4169 29.591 21.3464 29.6865 21.2562C29.782 21.166 29.8588 21.0579 29.9126 20.938C29.9663 20.8181 29.9959 20.6888 29.9997 20.5575C30.0064 20.3539 29.9993 20.1501 29.9785 19.9475ZM13.716 22.0475C12.6174 21.5939 11.678 20.8248 11.0165 19.8373C10.3551 18.8499 10.0012 17.6885 9.9997 16.5C9.9997 16.3413 10.0085 16.1838 10.021 16.0275L10.146 16.0588C11.4032 16.3962 12.4792 17.2106 13.1454 18.3289C13.8116 19.4473 14.0154 20.7813 13.7135 22.0475H13.716ZM15.9997 16.7638L15.986 16.74H16.0135L15.9997 16.7638ZM15.9997 13.5C15.2922 13.5003 14.5927 13.3501 13.9477 13.0594C13.3026 12.7686 12.7268 12.344 12.2585 11.8138C13.3195 10.9633 14.6387 10.4999 15.9985 10.4999C17.3582 10.4999 18.6774 10.9633 19.7385 11.8138C19.2705 12.3439 18.6951 12.7685 18.0505 13.0592C17.4059 13.3499 16.7068 13.5002 15.9997 13.5ZM18.2859 22.0462C18.1328 21.4087 18.107 20.7471 18.2098 20.0995C18.3126 19.4519 18.5422 18.831 18.8852 18.2722C19.2283 17.7134 19.6782 17.2277 20.2092 16.843C20.7402 16.4582 21.3418 16.182 21.9797 16.03C21.9922 16.185 21.9997 16.3413 21.9997 16.5C21.9982 17.6882 21.6445 18.8493 20.9833 19.8365C20.322 20.8237 19.3829 21.5927 18.2847 22.0462H18.2859Z" fill="white"/>
<path d="M63.5325 12.5687C63.4862 12.48 63.4375 12.3912 63.3875 12.305C64.1546 10.4562 64.2008 8.38709 63.517 6.50595C62.8331 4.6248 61.469 3.06834 59.6938 2.14375C59.5191 2.05264 59.3282 1.99683 59.132 1.9795C58.9357 1.96217 58.738 1.98366 58.5501 2.04274C58.3622 2.10182 58.1877 2.19734 58.0367 2.32384C57.8857 2.45033 57.7611 2.60534 57.67 2.78C57.5789 2.95465 57.5231 3.14555 57.5058 3.34177C57.4884 3.538 57.5099 3.73572 57.569 3.92364C57.6281 4.11157 57.7236 4.28601 57.8501 4.43702C57.9766 4.58803 58.1316 4.71264 58.3062 4.80375C59.1191 5.22487 59.8003 5.86152 60.2754 6.64399C60.7506 7.42646 61.0012 8.32457 61 9.24C61 9.365 60.9937 9.49 60.9837 9.615C59.5355 8.56178 57.7907 7.99447 56 7.99447C54.2093 7.99447 52.4645 8.56178 51.0162 9.615C51.0062 9.49 51 9.365 51 9.24C50.9987 8.32439 51.2493 7.42607 51.7244 6.64339C52.1995 5.8607 52.8808 5.22383 53.6938 4.8025C53.8719 4.71353 54.0306 4.58996 54.1606 4.439C54.2905 4.28805 54.3891 4.11273 54.4505 3.92327C54.512 3.73381 54.5351 3.53402 54.5185 3.33553C54.5019 3.13705 54.446 2.94386 54.3539 2.76724C54.2619 2.59061 54.1356 2.43408 53.9824 2.30679C53.8292 2.17949 53.6522 2.08398 53.4617 2.02583C53.2712 1.96767 53.071 1.94804 52.8729 1.96807C52.6747 1.9881 52.4825 2.0474 52.3075 2.1425C50.5312 3.0667 49.1661 4.62342 48.4818 6.50517C47.7974 8.38693 47.8436 10.4569 48.6112 12.3062C48.5612 12.3937 48.5137 12.48 48.4675 12.5687C46.542 12.8215 44.774 13.7651 43.4923 15.2241C42.2106 16.6831 41.5026 18.558 41.5 20.5C41.5 20.8978 41.658 21.2794 41.9393 21.5607C42.2206 21.842 42.6022 22 43 22C43.3978 22 43.7794 21.842 44.0607 21.5607C44.342 21.2794 44.5 20.8978 44.5 20.5C44.5002 19.5231 44.7866 18.5677 45.3237 17.7518C45.8609 16.9358 46.6253 16.2951 47.5225 15.9087C47.5087 16.1037 47.5 16.3012 47.5 16.5C47.5019 18.1727 47.9965 19.8078 48.9219 21.2012C49.8474 22.5946 51.1627 23.6845 52.7037 24.335C51.8883 25.0155 50.8774 25.4186 49.8175 25.4861C48.7576 25.5535 47.7038 25.2817 46.8088 24.71C46.6429 24.6005 46.4569 24.5251 46.2616 24.4881C46.0664 24.4511 45.8657 24.4532 45.6713 24.4944C45.4769 24.5357 45.2926 24.6151 45.1291 24.7282C44.9656 24.8412 44.8263 24.9856 44.7191 25.153C44.6119 25.3204 44.5391 25.5074 44.5048 25.7031C44.4706 25.8989 44.4755 26.0995 44.5195 26.2934C44.5634 26.4872 44.6454 26.6704 44.7607 26.8322C44.8761 26.9941 45.0224 27.1314 45.1912 27.2362C46.9165 28.3401 48.9997 28.7396 51.0109 28.3524C53.0221 27.9651 54.808 26.8206 56 25.155C57.1913 26.8214 58.9768 27.9669 60.988 28.3551C62.9993 28.7433 65.0829 28.3446 66.8088 27.2412C66.9776 27.1364 67.1239 26.9991 67.2393 26.8372C67.3546 26.6754 67.4366 26.4922 67.4805 26.2984C67.5245 26.1045 67.5294 25.9039 67.4952 25.7081C67.4609 25.5124 67.3881 25.3254 67.2809 25.158C67.1737 24.9906 67.0344 24.8462 66.8709 24.7332C66.7074 24.6201 66.5231 24.5407 66.3287 24.4994C66.1343 24.4582 65.9336 24.4561 65.7384 24.4931C65.5431 24.5301 65.3571 24.6055 65.1912 24.715C64.2962 25.2867 63.2424 25.5585 62.1825 25.4911C61.1226 25.4236 60.1117 25.0205 59.2962 24.34C60.8381 23.6892 62.154 22.5985 63.0795 21.2041C64.005 19.8097 64.4991 18.1736 64.5 16.5C64.5 16.3012 64.4913 16.1037 64.4775 15.9087C65.3747 16.2951 66.1391 16.9358 66.6763 17.7518C67.2134 18.5677 67.4998 19.5231 67.5 20.5C67.5 20.8978 67.658 21.2794 67.9393 21.5607C68.2206 21.842 68.6022 22 69 22C69.3978 22 69.7794 21.842 70.0607 21.5607C70.342 21.2794 70.5 20.8978 70.5 20.5C70.4974 18.558 69.7894 16.6831 68.5077 15.2241C67.226 13.7651 65.458 12.8215 63.5325 12.5687ZM56 11C57.4065 10.9995 58.7594 11.5396 59.7787 12.5087C59.3102 13.0517 58.7301 13.4873 58.078 13.7859C57.426 14.0845 56.7172 14.2391 56 14.2391C55.2828 14.2391 54.574 14.0845 53.922 13.7859C53.2699 13.4873 52.6898 13.0517 52.2212 12.5087C53.2403 11.5392 54.5934 10.999 56 11ZM50.5 16.5C50.5002 16.2044 50.524 15.9093 50.5712 15.6175C51.227 15.7613 51.847 16.0357 52.3945 16.4243C52.9419 16.8129 53.4054 17.3077 53.7575 17.8793C54.1096 18.4509 54.3429 19.0875 54.4436 19.7513C54.5443 20.415 54.5104 21.0922 54.3438 21.7425C53.2299 21.3891 52.2573 20.6908 51.5664 19.7485C50.8755 18.8061 50.502 17.6685 50.5 16.5ZM57.6562 21.75C57.4896 21.0997 57.4557 20.4225 57.5564 19.7588C57.6571 19.095 57.8904 18.4584 58.2425 17.8868C58.5946 17.3152 59.0581 16.8204 59.6055 16.4318C60.153 16.0432 60.773 15.7688 61.4287 15.625C61.6402 16.9288 61.3754 18.2651 60.6827 19.3898C59.99 20.5144 58.9157 21.3522 57.6562 21.75Z" fill="white"/>
</g>
<defs>
<clipPath id="clip0_27_4324">
<rect width="72" height="32" rx="5" fill="white"/>
</clipPath>
</defs>
</svg>
