<svg width="72" height="32" viewBox="0 0 72 32" fill="none" xmlns="http://www.w3.org/2000/svg">
<g clip-path="url(#clip0_27_2054)">
<path d="M29.5549 9.1675L26.6512 7.2325C26.1695 5.71384 25.2167 4.38802 23.9309 3.44722C22.6451 2.50642 21.0932 1.99953 19.4999 2H19.4637C15.3487 2.02 11.9999 5.43375 11.9999 9.61125V12.0787L1.45369 24.735L1.44119 24.75C1.20583 25.044 1.05824 25.3984 1.01542 25.7726C0.972592 26.1467 1.03627 26.5253 1.19913 26.8649C1.36198 27.2045 1.61739 27.4911 1.93597 27.6919C2.25455 27.8927 2.62336 27.9995 2.99994 28H13.9999C17.4466 27.9964 20.7511 26.6256 23.1883 24.1884C25.6255 21.7512 26.9963 18.4467 26.9999 15V12.535L29.5549 10.8325C29.6921 10.7412 29.8046 10.6175 29.8824 10.4722C29.9602 10.327 30.0009 10.1648 30.0009 10C30.0009 9.83523 29.9602 9.67302 29.8824 9.52778C29.8046 9.38255 29.6921 9.25878 29.5549 9.1675ZM15.7687 16.64L8.26869 25.64C8.1856 25.7438 8.08263 25.83 7.96582 25.8935C7.849 25.9571 7.72069 25.9967 7.58839 26.01C7.4561 26.0233 7.32246 26.0102 7.19532 25.9713C7.06817 25.9323 6.95006 25.8684 6.8479 25.7833C6.74574 25.6982 6.66159 25.5936 6.60036 25.4755C6.53913 25.3575 6.50205 25.2284 6.4913 25.0959C6.48055 24.9634 6.49634 24.83 6.53774 24.7037C6.57915 24.5773 6.64534 24.4605 6.73244 24.36L14.2324 15.36C14.3155 15.2562 14.4185 15.17 14.5353 15.1065C14.6521 15.0429 14.7804 15.0033 14.9127 14.99C15.045 14.9766 15.1787 14.9898 15.3058 15.0287C15.433 15.0677 15.5511 15.1316 15.6532 15.2167C15.7554 15.3018 15.8396 15.4064 15.9008 15.5245C15.962 15.6425 15.9991 15.7716 16.0098 15.9041C16.0206 16.0366 16.0048 16.17 15.9634 16.2963C15.922 16.4227 15.8558 16.5395 15.7687 16.64ZM20.4999 10C20.2033 10 19.9133 9.91203 19.6666 9.74721C19.4199 9.58238 19.2277 9.34811 19.1141 9.07403C19.0006 8.79994 18.9709 8.49834 19.0288 8.20736C19.0866 7.91639 19.2295 7.64912 19.4393 7.43934C19.6491 7.22956 19.9163 7.0867 20.2073 7.02882C20.4983 6.97094 20.7999 7.00065 21.074 7.11418C21.3481 7.22771 21.5823 7.41997 21.7471 7.66665C21.912 7.91332 21.9999 8.20333 21.9999 8.5C21.9999 8.89783 21.8419 9.27936 21.5606 9.56066C21.2793 9.84197 20.8978 10 20.4999 10Z" fill="white"/>
<path d="M62.0001 9C62.0001 9.39557 61.8828 9.78225 61.6631 10.1111C61.4433 10.44 61.1309 10.6964 60.7655 10.8478C60.4 10.9991 59.9979 11.0387 59.6099 10.9616C59.222 10.8844 58.8656 10.6939 58.5859 10.4142C58.3062 10.1345 58.1157 9.77815 58.0385 9.39018C57.9614 9.00222 58.001 8.60009 58.1524 8.23464C58.3037 7.86919 58.5601 7.55683 58.889 7.33707C59.2179 7.1173 59.6046 7 60.0001 7C60.5306 7 61.0393 7.21072 61.4143 7.58579C61.7894 7.96086 62.0001 8.46957 62.0001 9ZM70.5001 10C70.5005 10.2472 70.4397 10.4907 70.3233 10.7088C70.2068 10.9269 70.0383 11.1128 69.8326 11.25L67.5001 12.8025V15C67.4961 18.5792 66.0726 22.0107 63.5417 24.5416C61.0108 27.0724 57.5793 28.496 54.0001 28.5H43.0001C42.5294 28.4995 42.0683 28.366 41.67 28.115C41.2718 27.8641 40.9525 27.5057 40.7489 27.0813C40.5452 26.6568 40.4656 26.1835 40.5191 25.7158C40.5727 25.2481 40.7571 24.805 41.0514 24.4375L41.0701 24.415L51.5001 11.8975V9.61125C51.5001 5.16 55.0714 1.52125 59.4614 1.5H59.5001C61.1693 1.49827 62.7972 2.0192 64.1553 2.98968C65.5134 3.96016 66.5335 5.3315 67.0726 6.91125L69.8326 8.75C70.0383 8.88722 70.2068 9.07313 70.3233 9.29121C70.4397 9.50929 70.5005 9.75278 70.5001 10ZM66.2964 10L64.9601 9.10875C64.6508 8.90435 64.4282 8.59264 64.3351 8.23375C64.0552 7.16453 63.4289 6.21817 62.5541 5.54263C61.6793 4.8671 60.6054 4.50045 59.5001 4.5H59.4764C56.7326 4.51375 54.5014 6.80625 54.5014 9.61125V12.44C54.5013 12.7914 54.3779 13.1316 54.1526 13.4013L44.0714 25.5H46.6314L55.3489 15.04C55.473 14.8828 55.6274 14.752 55.8029 14.6554C55.9784 14.5588 56.1714 14.4983 56.3707 14.4775C56.5699 14.4567 56.7713 14.4761 56.963 14.5344C57.1546 14.5928 57.3327 14.6889 57.4866 14.8172C57.6405 14.9454 57.7671 15.1032 57.859 15.2812C57.9509 15.4592 58.0063 15.6538 58.0217 15.8535C58.0372 16.0533 58.0125 16.2541 57.9491 16.4441C57.8857 16.6342 57.7849 16.8096 57.6526 16.96L50.5364 25.5H54.0001C56.784 25.497 59.453 24.3898 61.4215 22.4213C63.3899 20.4528 64.4971 17.7839 64.5001 15V12C64.4999 11.7527 64.5608 11.5091 64.6775 11.291C64.7942 11.0729 64.963 10.8871 65.1689 10.75L66.2964 10Z" fill="white"/>
</g>
<defs>
<clipPath id="clip0_27_2054">
<rect width="72" height="32" rx="5" fill="white"/>
</clipPath>
</defs>
</svg>
