<svg width="72" height="32" viewBox="0 0 72 32" fill="none" xmlns="http://www.w3.org/2000/svg">
<g clip-path="url(#clip0_27_2490)">
<path d="M27.6727 27.74C27.4765 27.9183 27.2174 28.0114 26.9525 27.9988C26.6876 27.9861 26.4386 27.8687 26.2602 27.6725L22.954 24.035L16.6002 28.8C16.4417 28.9188 16.2514 28.9878 16.0535 28.9982C15.8557 29.0087 15.6592 28.9601 15.489 28.8588C15.3369 28.7641 15.2119 28.6317 15.1263 28.4744C15.0406 28.3171 14.9972 28.1403 15.0002 27.9613V18L8.60024 22.8C8.38917 22.9582 8.12413 23.0267 7.86284 22.9904C7.60156 22.9541 7.3652 22.816 7.20524 22.6063C7.04827 22.3859 6.98403 22.1128 7.02634 21.8456C7.06865 21.5784 7.21413 21.3385 7.43149 21.1775L15.1152 15.4138L6.26024 5.6725C6.08561 5.47566 5.99561 5.21792 6.00975 4.95516C6.02388 4.6924 6.14102 4.4458 6.33575 4.26882C6.53049 4.09185 6.78714 3.99876 7.05005 4.00975C7.31296 4.02073 7.56094 4.1349 7.74024 4.3275L27.7402 26.3275C27.9186 26.5238 28.0117 26.7828 27.999 27.0477C27.9863 27.3126 27.869 27.5616 27.6727 27.74ZM19.3752 14.1525C19.4589 14.2446 19.574 14.3022 19.6979 14.314C19.8218 14.3258 19.9457 14.2909 20.0452 14.2163L24.6002 10.8C24.7244 10.7069 24.8252 10.5861 24.8947 10.4472C24.9641 10.3084 25.0002 10.1552 25.0002 10C25.0002 9.84476 24.9641 9.69165 24.8947 9.55279C24.8252 9.41394 24.7244 9.29315 24.6002 9.2L16.6002 3.2C16.4188 3.06307 16.1961 2.99205 15.9689 2.99864C15.7416 3.00522 15.5234 3.08904 15.3502 3.23625C15.2377 3.33519 15.1482 3.45746 15.0877 3.59454C15.0273 3.73161 14.9974 3.88022 15.0002 4.03V9.1475C14.9989 9.27119 15.0434 9.39099 15.1252 9.48375L19.3752 14.1525Z" fill="white"/>
<path d="M68.1101 25.9912L48.1101 3.99125C47.8412 3.70235 47.4692 3.53109 47.0748 3.51462C46.6805 3.49814 46.2955 3.63777 46.0034 3.90323C45.7113 4.16869 45.5356 4.53859 45.5144 4.93273C45.4932 5.32687 45.6282 5.71348 45.8901 6.00875L54.3751 15.3438L47.1001 20.8C46.9425 20.9182 46.8098 21.0663 46.7094 21.2358C46.609 21.4053 46.543 21.5929 46.5152 21.7879C46.4873 21.9829 46.4982 22.1814 46.547 22.3723C46.5959 22.5631 46.6819 22.7424 46.8001 22.9C46.9183 23.0576 47.0664 23.1904 47.2359 23.2907C47.4054 23.3911 47.593 23.4571 47.788 23.4849C47.983 23.5128 48.1816 23.502 48.3724 23.4531C48.5632 23.4042 48.7425 23.3182 48.9001 23.2L54.5001 19V28C54.5001 28.2786 54.5777 28.5516 54.7241 28.7886C54.8706 29.0256 55.0801 29.2171 55.3293 29.3416C55.5785 29.4662 55.8574 29.519 56.1348 29.4939C56.4123 29.4689 56.6773 29.3671 56.9001 29.2L62.8889 24.7075L65.8889 28.0088C66.1578 28.2977 66.5298 28.4689 66.9242 28.4854C67.3185 28.5019 67.7035 28.3622 67.9956 28.0968C68.2877 27.8313 68.4634 27.4614 68.4846 27.0673C68.5058 26.6731 68.3708 26.2865 68.1089 25.9912H68.1101ZM57.5001 25V19L58.1251 19.4713L60.8589 22.4788L57.5001 25ZM54.5001 7.4675V4C54.5001 3.72143 54.5777 3.44837 54.7241 3.2114C54.8706 2.97444 55.0801 2.78294 55.3293 2.65836C55.5785 2.53378 55.8574 2.48104 56.1348 2.50606C56.4123 2.53108 56.6773 2.63286 56.9001 2.8L64.9001 8.8C65.0864 8.93972 65.2376 9.1209 65.3418 9.32918C65.4459 9.53746 65.5001 9.76713 65.5001 10C65.5001 10.2329 65.4459 10.4625 65.3418 10.6708C65.2376 10.8791 65.0864 11.0603 64.9001 11.2L61.5126 13.7413C61.1944 13.9799 60.7943 14.0824 60.4005 14.0262C60.0067 13.9699 59.6513 13.7595 59.4126 13.4413C59.1739 13.123 59.0714 12.7229 59.1277 12.3291C59.1839 11.9353 59.3944 11.5799 59.7126 11.3413L61.5001 10L57.5001 7V7.4675C57.5001 7.86533 57.3421 8.24686 57.0608 8.52816C56.7795 8.80946 56.3979 8.9675 56.0001 8.9675C55.6023 8.9675 55.2208 8.80946 54.9395 8.52816C54.6581 8.24686 54.5001 7.86533 54.5001 7.4675Z" fill="white"/>
</g>
<defs>
<clipPath id="clip0_27_2490">
<rect width="72" height="32" rx="5" fill="white"/>
</clipPath>
</defs>
</svg>
