<svg width="72" height="32" viewBox="0 0 72 32" fill="none" xmlns="http://www.w3.org/2000/svg">
<g clip-path="url(#clip0_27_2480)">
<path d="M25 22C25 22.1552 24.9639 22.3084 24.8944 22.4472C24.825 22.5861 24.7242 22.7069 24.6 22.8L16.6 28.8C16.4269 28.9298 16.2164 29 16 29C15.7348 29 15.4804 28.8946 15.2929 28.7071C15.1054 28.5196 15 28.2652 15 28V18L8.6 22.8C8.38783 22.9591 8.12113 23.0275 7.85858 22.99C7.59603 22.9524 7.35913 22.8122 7.2 22.6C7.04087 22.3878 6.97255 22.1211 7.01005 21.8586C7.04756 21.596 7.18783 21.3591 7.4 21.2L14.3338 16L7.4 10.8C7.18783 10.6409 7.04756 10.404 7.01005 10.1414C6.97255 9.87887 7.04087 9.61217 7.2 9.4C7.35913 9.18783 7.59603 9.04756 7.85858 9.01005C8.12113 8.97254 8.38783 9.04087 8.6 9.2L15 14V4C15 3.81429 15.0517 3.63225 15.1494 3.47427C15.247 3.31629 15.3867 3.18863 15.5528 3.10557C15.7189 3.02252 15.9048 2.98736 16.0898 3.00404C16.2748 3.02072 16.4514 3.08857 16.6 3.2L24.6 9.2C24.7242 9.29315 24.825 9.41393 24.8944 9.55279C24.9639 9.69164 25 9.84476 25 10C25 10.1552 24.9639 10.3084 24.8944 10.4472C24.825 10.5861 24.7242 10.7069 24.6 10.8L17.6663 16L24.6 21.2C24.7242 21.2931 24.825 21.4139 24.8944 21.5528C24.9639 21.6916 25 21.8448 25 22Z" fill="white"/>
<path d="M64.9 20.8L58.5 16L64.9 11.2C65.0863 11.0603 65.2375 10.8791 65.3416 10.6708C65.4458 10.4625 65.5 10.2329 65.5 10C65.5 9.76713 65.4458 9.53746 65.3416 9.32918C65.2375 9.1209 65.0863 8.93972 64.9 8.8L56.9 2.8C56.6772 2.63286 56.4122 2.53108 56.1347 2.50606C55.8573 2.48104 55.5783 2.53378 55.3292 2.65836C55.08 2.78294 54.8705 2.97444 54.724 3.2114C54.5776 3.44837 54.5 3.72143 54.5 4V13L48.9 8.8C48.5817 8.56131 48.1817 8.45882 47.7879 8.51508C47.394 8.57134 47.0387 8.78174 46.8 9.1C46.5613 9.41826 46.4588 9.81831 46.5151 10.2121C46.5713 10.606 46.7817 10.9613 47.1 11.2L53.5 16L47.1 20.8C46.9424 20.9182 46.8097 21.0663 46.7093 21.2358C46.6089 21.4053 46.5429 21.5929 46.5151 21.7879C46.4872 21.9829 46.498 22.1814 46.5469 22.3723C46.5958 22.5631 46.6818 22.7424 46.8 22.9C46.9182 23.0576 47.0663 23.1904 47.2358 23.2907C47.4053 23.3911 47.5929 23.4571 47.7879 23.4849C47.9829 23.5128 48.1815 23.502 48.3723 23.4531C48.5631 23.4042 48.7424 23.3182 48.9 23.2L54.5 19V28C54.5 28.2786 54.5776 28.5516 54.724 28.7886C54.8705 29.0256 55.08 29.2171 55.3292 29.3416C55.5783 29.4662 55.8573 29.519 56.1347 29.4939C56.4122 29.4689 56.6772 29.3671 56.9 29.2L64.9 23.2C65.0863 23.0603 65.2375 22.8791 65.3416 22.6708C65.4458 22.4625 65.5 22.2329 65.5 22C65.5 21.7671 65.4458 21.5375 65.3416 21.3292C65.2375 21.1209 65.0863 20.9397 64.9 20.8ZM57.5 7L61.5 10L57.5 13V7ZM57.5 25V19L61.5 22L57.5 25Z" fill="white"/>
</g>
<defs>
<clipPath id="clip0_27_2480">
<rect width="72" height="32" rx="5" fill="white"/>
</clipPath>
</defs>
</svg>
