<svg width="72" height="32" viewBox="0 0 72 32" fill="none" xmlns="http://www.w3.org/2000/svg">
<g clip-path="url(#clip0_27_5122)">
<path d="M17 15H20V17H17V15ZM30 8V25C30 25.2652 29.8946 25.5196 29.7071 25.7071C29.5196 25.8946 29.2652 26 29 26H6C4.93913 26 3.92172 25.5786 3.17157 24.8284C2.42143 24.0783 2 23.0609 2 22V8C2 6.93913 2.42143 5.92172 3.17157 5.17157C3.92172 4.42143 4.93913 4 6 4H8C8.26522 4 8.51957 4.10536 8.70711 4.29289C8.89464 4.48043 9 4.73478 9 5V7H29C29.2652 7 29.5196 7.10536 29.7071 7.29289C29.8946 7.48043 30 7.73478 30 8ZM7 6H6C5.46957 6 4.96086 6.21071 4.58579 6.58579C4.21071 6.96086 4 7.46957 4 8V18.5362C4.60763 18.1841 5.29768 17.999 6 18H7V6ZM22 17V15H24C24.2652 15 24.5196 14.8946 24.7071 14.7071C24.8946 14.5196 25 14.2652 25 14C25 13.7348 24.8946 13.4804 24.7071 13.2929C24.5196 13.1054 24.2652 13 24 13H22V12C22 11.7348 21.8946 11.4804 21.7071 11.2929C21.5196 11.1054 21.2652 11 21 11C20.7348 11 20.4804 11.1054 20.2929 11.2929C20.1054 11.4804 20 11.7348 20 12V13H17V12C17 11.7348 16.8946 11.4804 16.7071 11.2929C16.5196 11.1054 16.2652 11 16 11C15.7348 11 15.4804 11.1054 15.2929 11.2929C15.1054 11.4804 15 11.7348 15 12V13H13C12.7348 13 12.4804 13.1054 12.2929 13.2929C12.1054 13.4804 12 13.7348 12 14C12 14.2652 12.1054 14.5196 12.2929 14.7071C12.4804 14.8946 12.7348 15 13 15H15V17H13C12.7348 17 12.4804 17.1054 12.2929 17.2929C12.1054 17.4804 12 17.7348 12 18C12 18.2652 12.1054 18.5196 12.2929 18.7071C12.4804 18.8946 12.7348 19 13 19H15V20C15 20.2652 15.1054 20.5196 15.2929 20.7071C15.4804 20.8946 15.7348 21 16 21C16.2652 21 16.5196 20.8946 16.7071 20.7071C16.8946 20.5196 17 20.2652 17 20V19H20V20C20 20.2652 20.1054 20.5196 20.2929 20.7071C20.4804 20.8946 20.7348 21 21 21C21.2652 21 21.5196 20.8946 21.7071 20.7071C21.8946 20.5196 22 20.2652 22 20V19H24C24.2652 19 24.5196 18.8946 24.7071 18.7071C24.8946 18.5196 25 18.2652 25 18C25 17.7348 24.8946 17.4804 24.7071 17.2929C24.5196 17.1054 24.2652 17 24 17H22Z" fill="white"/>
<path d="M69 6H49.5V5C49.5 4.60218 49.342 4.22064 49.0607 3.93934C48.7794 3.65804 48.3978 3.5 48 3.5H46C44.8065 3.5 43.6619 3.97411 42.818 4.81802C41.9741 5.66193 41.5 6.80653 41.5 8V22C41.5 23.1935 41.9741 24.3381 42.818 25.182C43.6619 26.0259 44.8065 26.5 46 26.5H69C69.3978 26.5 69.7794 26.342 70.0607 26.0607C70.342 25.7794 70.5 25.3978 70.5 25V7.5C70.5 7.10218 70.342 6.72064 70.0607 6.43934C69.7794 6.15804 69.3978 6 69 6ZM44.5 8C44.5 7.60218 44.658 7.22064 44.9393 6.93934C45.2206 6.65804 45.6022 6.5 46 6.5H46.5V17.5H46C45.4889 17.499 44.9815 17.5861 44.5 17.7575V8ZM67.5 23.5H46C45.6022 23.5 45.2206 23.342 44.9393 23.0607C44.658 22.7794 44.5 22.3978 44.5 22C44.5 21.6022 44.658 21.2206 44.9393 20.9393C45.2206 20.658 45.6022 20.5 46 20.5H48C48.3978 20.5 48.7794 20.342 49.0607 20.0607C49.342 19.7794 49.5 19.3978 49.5 19V9H67.5V23.5ZM53 17C52.6022 17 52.2206 17.158 51.9393 17.4393C51.658 17.7206 51.5 18.1022 51.5 18.5C51.5 18.8978 51.658 19.2794 51.9393 19.5607C52.2206 19.842 52.6022 20 53 20H54.5V20.5C54.5 20.8978 54.658 21.2794 54.9393 21.5607C55.2206 21.842 55.6022 22 56 22C56.3978 22 56.7794 21.842 57.0607 21.5607C57.342 21.2794 57.5 20.8978 57.5 20.5V20H59.5V20.5C59.5 20.8978 59.658 21.2794 59.9393 21.5607C60.2206 21.842 60.6022 22 61 22C61.3978 22 61.7794 21.842 62.0607 21.5607C62.342 21.2794 62.5 20.8978 62.5 20.5V20H64C64.3978 20 64.7794 19.842 65.0607 19.5607C65.342 19.2794 65.5 18.8978 65.5 18.5C65.5 18.1022 65.342 17.7206 65.0607 17.4393C64.7794 17.158 64.3978 17 64 17H62.5V15.5H64C64.3978 15.5 64.7794 15.342 65.0607 15.0607C65.342 14.7794 65.5 14.3978 65.5 14C65.5 13.6022 65.342 13.2206 65.0607 12.9393C64.7794 12.658 64.3978 12.5 64 12.5H62.5V12C62.5 11.6022 62.342 11.2206 62.0607 10.9393C61.7794 10.658 61.3978 10.5 61 10.5C60.6022 10.5 60.2206 10.658 59.9393 10.9393C59.658 11.2206 59.5 11.6022 59.5 12V12.5H57.5V12C57.5 11.6022 57.342 11.2206 57.0607 10.9393C56.7794 10.658 56.3978 10.5 56 10.5C55.6022 10.5 55.2206 10.658 54.9393 10.9393C54.658 11.2206 54.5 11.6022 54.5 12V12.5H53C52.6022 12.5 52.2206 12.658 51.9393 12.9393C51.658 13.2206 51.5 13.6022 51.5 14C51.5 14.3978 51.658 14.7794 51.9393 15.0607C52.2206 15.342 52.6022 15.5 53 15.5H54.5V17H53ZM57.5 15.5H59.5V17H57.5V15.5Z" fill="white"/>
</g>
<defs>
<clipPath id="clip0_27_5122">
<rect width="72" height="32" rx="5" fill="white"/>
</clipPath>
</defs>
</svg>
