<svg width="72" height="32" viewBox="0 0 72 32" fill="none" xmlns="http://www.w3.org/2000/svg">
<g clip-path="url(#clip0_27_6480)">
<path d="M27.6325 13.8237L26 13.2788V7C26 6.46957 25.7893 5.96086 25.4142 5.58579C25.0391 5.21071 24.5304 5 24 5H17V3C17 2.73478 16.8946 2.48043 16.7071 2.29289C16.5196 2.10536 16.2652 2 16 2C15.7348 2 15.4804 2.10536 15.2929 2.29289C15.1054 2.48043 15 2.73478 15 3V5H8C7.46957 5 6.96086 5.21071 6.58579 5.58579C6.21071 5.96086 6 6.46957 6 7V13.2788L4.3675 13.8237C3.96926 13.9565 3.62289 14.2112 3.37746 14.5518C3.13202 14.8923 2.99997 15.3015 3 15.7212V19C3 26.6925 15.2362 29.84 15.7575 29.97C15.9167 30.0098 16.0833 30.0098 16.2425 29.97C16.7638 29.84 29 26.6925 29 19V15.7212C29 15.3015 28.868 14.8923 28.6225 14.5518C28.3771 14.2112 28.0307 13.9565 27.6325 13.8237ZM17 21C17 21.2652 16.8946 21.5196 16.7071 21.7071C16.5196 21.8946 16.2652 22 16 22C15.7348 22 15.4804 21.8946 15.2929 21.7071C15.1054 21.5196 15 21.2652 15 21V13.1088C15 12.8435 15.1054 12.5892 15.2929 12.4016C15.4804 12.2141 15.7348 12.1088 16 12.1088C16.2652 12.1088 16.5196 12.2141 16.7071 12.4016C16.8946 12.5892 17 12.8435 17 13.1088V21ZM24 12.6125L16.3162 10.0513C16.111 9.98282 15.889 9.98282 15.6838 10.0513L8 12.6125V7H24V12.6125Z" fill="white"/>
<path d="M67.7913 13.3488L66.5 12.9187V7C66.5 6.33696 66.2366 5.70107 65.7678 5.23223C65.2989 4.76339 64.663 4.5 64 4.5H57.5V3C57.5 2.60218 57.342 2.22064 57.0607 1.93934C56.7794 1.65804 56.3978 1.5 56 1.5C55.6022 1.5 55.2206 1.65804 54.9393 1.93934C54.658 2.22064 54.5 2.60218 54.5 3V4.5H48C47.337 4.5 46.7011 4.76339 46.2322 5.23223C45.7634 5.70107 45.5 6.33696 45.5 7V12.9187L44.2088 13.3488C43.7106 13.515 43.2774 13.8339 42.9707 14.2602C42.6639 14.6865 42.4993 15.1986 42.5 15.7238V19C42.5 27.0788 55.1 30.3212 55.6363 30.455C55.875 30.515 56.125 30.515 56.3638 30.455C56.9 30.3212 69.5 27.0788 69.5 19V15.7212C69.5002 15.1965 69.3353 14.685 69.0286 14.2592C68.7219 13.8333 68.289 13.5148 67.7913 13.3488ZM48.5 7.5H63.5V11.9187L56.4738 9.5775C56.1664 9.47376 55.8336 9.47376 55.5263 9.5775L48.5 11.9187V7.5ZM66.5 19C66.5 23.5863 59.24 26.5537 56 27.4487C52.7575 26.5525 45.5 23.5863 45.5 19V16.0812L54.5 13.0813V21C54.5 21.3978 54.658 21.7794 54.9393 22.0607C55.2206 22.342 55.6022 22.5 56 22.5C56.3978 22.5 56.7794 22.342 57.0607 22.0607C57.342 21.7794 57.5 21.3978 57.5 21V13.0813L66.5 16.0812V19Z" fill="white"/>
</g>
<defs>
<clipPath id="clip0_27_6480">
<rect width="72" height="32" rx="5" fill="white"/>
</clipPath>
</defs>
</svg>
