<svg width="72" height="32" viewBox="0 0 72 32" fill="none" xmlns="http://www.w3.org/2000/svg">
<g clip-path="url(#clip0_27_4575)">
<path d="M30.9996 4C30.7344 4 30.4801 4.10536 30.2925 4.29289C30.105 4.48043 29.9996 4.73478 29.9996 5C29.975 5.74462 29.8241 6.47964 29.5534 7.17375C29.0471 8.4025 28.2121 9 26.9996 9C25.6171 9 24.6434 7.78 23.3134 5.91875C21.9996 4.0825 20.5146 2 17.9996 2C15.9509 2 14.3746 3.11125 13.5709 5.125C13.3354 5.72871 13.1718 6.35804 13.0834 7H10.9996C10.4692 7 9.96049 7.21071 9.58542 7.58579C9.21034 7.96086 8.99963 8.46957 8.99963 9V10.1987C6.79756 11.3207 5.03745 13.1514 4.00305 15.3959C2.96864 17.6404 2.72021 20.1679 3.29781 22.5708C3.87541 24.9738 5.24538 27.1122 7.18687 28.6414C9.12835 30.1706 11.5282 31.0015 13.9996 31H14.1984C16.653 30.9578 19.0229 30.0957 20.9309 28.551C22.8389 27.0062 24.1753 24.8676 24.7275 22.4755C25.2796 20.0835 25.0157 17.5755 23.9777 15.3508C22.9397 13.1261 21.1874 11.3125 18.9996 10.1987V9C18.9996 8.46957 18.7889 7.96086 18.4138 7.58579C18.0388 7.21071 17.5301 7 16.9996 7H15.1096C15.1806 6.59893 15.2933 6.20639 15.4459 5.82875C15.9521 4.5975 16.7871 4 17.9996 4C19.3821 4 20.3559 5.22 21.6859 7.08125C22.9996 8.9175 24.4846 11 26.9996 11C29.0484 11 30.6246 9.88875 31.4284 7.875C31.7822 6.95649 31.9754 5.98399 31.9996 5C31.9996 4.73478 31.8943 4.48043 31.7067 4.29289C31.5192 4.10536 31.2648 4 30.9996 4ZM13.9859 26.165C13.9468 26.3984 13.8263 26.6103 13.6457 26.7632C13.4652 26.9161 13.2362 27 12.9996 27C12.9439 26.9998 12.8884 26.9952 12.8334 26.9862C11.3836 26.729 10.0479 26.0327 9.00676 24.9916C7.96563 23.9505 7.26937 22.6147 7.01213 21.165C6.98913 21.0349 6.99212 20.9016 7.02095 20.7726C7.04978 20.6437 7.10386 20.5218 7.18008 20.4139C7.25629 20.306 7.35313 20.2143 7.465 20.144C7.57687 20.0738 7.70155 20.0264 7.83184 20.0046C7.96214 19.9828 8.09545 19.987 8.2241 20.017C8.35275 20.047 8.47417 20.1023 8.58136 20.1795C8.68854 20.2567 8.77937 20.3544 8.84859 20.4669C8.9178 20.5794 8.96404 20.7045 8.98463 20.835C9.16952 21.8756 9.66941 22.8343 10.4167 23.5816C11.1641 24.329 12.1228 24.8289 13.1634 25.0138C13.293 25.0353 13.4171 25.0821 13.5286 25.1517C13.6401 25.2212 13.7368 25.312 13.8132 25.4189C13.8896 25.5258 13.9442 25.6468 13.9738 25.7748C14.0034 25.9028 14.0075 26.0354 13.9859 26.165Z" fill="white"/>
<path d="M70.4997 3.5C70.1018 3.5 69.7203 3.65804 69.439 3.93934C69.1577 4.22064 68.9997 4.60218 68.9997 5C68.9745 5.68535 68.8338 6.36153 68.5834 7C68.0284 8.33 67.1784 8.5 66.4997 8.5C65.3984 8.5 64.6359 7.4375 63.5109 5.68875C62.3122 3.8225 60.8184 1.5 57.9997 1.5C55.7322 1.5 53.9997 2.7225 53.1072 4.9425C52.9085 5.44625 52.7582 5.96777 52.6584 6.5H50.9997C50.3366 6.5 49.7007 6.76339 49.2319 7.23223C48.763 7.70107 48.4997 8.33696 48.4997 9V9.8975C46.2533 11.1192 44.4782 13.0548 43.455 15.3983C42.4318 17.7417 42.2188 20.3593 42.8497 22.8374C43.4806 25.3154 44.9194 27.5125 46.9387 29.0813C48.958 30.6502 51.4426 31.5012 53.9997 31.5H54.2072C56.7467 31.4561 59.2002 30.5727 61.1849 28.9877C63.1695 27.4026 64.5736 25.2052 65.178 22.7382C65.7824 20.2713 65.5531 17.6736 64.5258 15.3507C63.4986 13.0278 61.7313 11.1103 59.4997 9.8975V9C59.4997 8.33696 59.2363 7.70107 58.7674 7.23223C58.2986 6.76339 57.6627 6.5 56.9997 6.5H55.7409C55.7906 6.33042 55.849 6.16353 55.9159 6C56.4709 4.6725 57.3209 4.5 57.9997 4.5C59.1009 4.5 59.8634 5.5625 60.9884 7.31125C62.1872 9.1775 63.6809 11.5 66.4997 11.5C68.7672 11.5 70.4997 10.2775 71.3922 8.0575C71.7712 7.08149 71.9768 6.04677 71.9997 5C71.9997 4.60218 71.8416 4.22064 71.5603 3.93934C71.279 3.65804 70.8975 3.5 70.4997 3.5ZM57.3997 12.2063C59.1894 12.9874 60.6556 14.3609 61.5518 16.0959C62.4479 17.831 62.7193 19.8217 62.3204 21.7333C61.9214 23.6449 60.8764 25.3608 59.361 26.5925C57.8457 27.8242 55.9524 28.4966 53.9997 28.4966C52.0469 28.4966 50.1536 27.8242 48.6383 26.5925C47.1229 25.3608 46.0779 23.6449 45.6789 21.7333C45.28 19.8217 45.5514 17.831 46.4475 16.0959C47.3437 14.3609 48.8099 12.9874 50.5997 12.2063C50.8672 12.0895 51.0948 11.8972 51.2547 11.653C51.4146 11.4087 51.4997 11.1232 51.4997 10.8313V9.5H53.9372C53.9584 9.5 53.9784 9.5 53.9997 9.5C54.0209 9.5 54.0422 9.5 54.0634 9.5H56.4997V10.8325C56.4999 11.1242 56.5851 11.4095 56.7449 11.6535C56.9048 11.8975 57.1323 12.0896 57.3997 12.2063ZM53.9309 25.22C53.8353 25.5248 53.645 25.7911 53.3876 25.9802C53.1301 26.1693 52.8191 26.2712 52.4997 26.2712C52.3471 26.271 52.1954 26.2478 52.0497 26.2025C50.7277 25.7911 49.5724 24.9667 48.7535 23.8503C47.9346 22.734 47.4951 21.3845 47.4997 20C47.4997 19.6022 47.6577 19.2206 47.939 18.9393C48.2203 18.658 48.6018 18.5 48.9997 18.5C49.3975 18.5 49.779 18.658 50.0603 18.9393C50.3416 19.2206 50.4997 19.6022 50.4997 20C50.4972 20.7455 50.7339 21.4722 51.1748 22.0733C51.6158 22.6745 52.2378 23.1184 52.9497 23.34C53.329 23.4593 53.6455 23.7243 53.8295 24.0769C54.0135 24.4294 54.05 24.8406 53.9309 25.22Z" fill="white"/>
</g>
<defs>
<clipPath id="clip0_27_4575">
<rect width="72" height="32" rx="5" fill="white"/>
</clipPath>
</defs>
</svg>
