<svg width="72" height="32" viewBox="0 0 72 32" fill="none" xmlns="http://www.w3.org/2000/svg">
<g clip-path="url(#clip0_27_5732)">
<path d="M30 7V25C30 25.2652 29.8946 25.5196 29.7071 25.7071C29.5196 25.8946 29.2652 26 29 26H20C19.2056 26 18.4437 26.315 17.8813 26.876C17.3189 27.437 17.002 28.1982 17 28.9925C17.004 29.1967 16.9446 29.3971 16.83 29.5661C16.7154 29.7351 16.5512 29.8644 16.36 29.9363C16.2082 29.9948 16.0445 30.0155 15.8829 29.9964C15.7214 29.9774 15.5669 29.9192 15.433 29.827C15.299 29.7348 15.1895 29.6112 15.1141 29.4671C15.0386 29.323 14.9995 29.1627 15 29C15 28.2044 14.6839 27.4413 14.1213 26.8787C13.5587 26.3161 12.7956 26 12 26H3C2.73478 26 2.48043 25.8946 2.29289 25.7071C2.10536 25.5196 2 25.2652 2 25V7C2 6.73478 2.10536 6.48043 2.29289 6.29289C2.48043 6.10536 2.73478 6 3 6H11C12.0609 6 13.0783 6.42143 13.8284 7.17157C14.5786 7.92172 15 8.93913 15 10V20.9662C14.9965 21.2243 15.0909 21.4741 15.2641 21.6655C15.4374 21.8568 15.6766 21.9754 15.9338 21.9975C16.0705 22.0066 16.2077 21.9874 16.3368 21.9413C16.4659 21.8951 16.5841 21.8229 16.6841 21.7291C16.7841 21.6353 16.8637 21.522 16.9181 21.3961C16.9724 21.2703 17.0003 21.1346 17 20.9975V10C17 8.93913 17.4214 7.92172 18.1716 7.17157C18.9217 6.42143 19.9391 6 21 6H29C29.2652 6 29.5196 6.10536 29.7071 6.29289C29.8946 6.48043 30 6.73478 30 7Z" fill="white"/>
<path d="M69 5.5H60C59.2503 5.49976 58.5086 5.65327 57.8206 5.95105C57.1326 6.24882 56.5129 6.68453 56 7.23125C55.4871 6.68453 54.8674 6.24882 54.1794 5.95105C53.4914 5.65327 52.7497 5.49976 52 5.5H43C42.6022 5.5 42.2206 5.65804 41.9393 5.93934C41.658 6.22064 41.5 6.60218 41.5 7V25C41.5 25.3978 41.658 25.7794 41.9393 26.0607C42.2206 26.342 42.6022 26.5 43 26.5H52C52.663 26.5 53.2989 26.7634 53.7678 27.2322C54.2366 27.7011 54.5 28.337 54.5 29C54.5 29.3978 54.658 29.7794 54.9393 30.0607C55.2206 30.342 55.6022 30.5 56 30.5C56.3978 30.5 56.7794 30.342 57.0607 30.0607C57.342 29.7794 57.5 29.3978 57.5 29C57.5 28.337 57.7634 27.7011 58.2322 27.2322C58.7011 26.7634 59.337 26.5 60 26.5H69C69.3978 26.5 69.7794 26.342 70.0607 26.0607C70.342 25.7794 70.5 25.3978 70.5 25V7C70.5 6.60218 70.342 6.22064 70.0607 5.93934C69.7794 5.65804 69.3978 5.5 69 5.5ZM52 23.5H44.5V8.5H52C52.663 8.5 53.2989 8.76339 53.7678 9.23223C54.2366 9.70107 54.5 10.337 54.5 11V24.1012C53.7262 23.7052 52.8693 23.4991 52 23.5ZM67.5 23.5H60C59.1305 23.4995 58.2734 23.7064 57.5 24.1038V11C57.5 10.337 57.7634 9.70107 58.2322 9.23223C58.7011 8.76339 59.337 8.5 60 8.5H67.5V23.5Z" fill="white"/>
</g>
<defs>
<clipPath id="clip0_27_5732">
<rect width="72" height="32" rx="5" fill="white"/>
</clipPath>
</defs>
</svg>
