<svg width="72" height="32" viewBox="0 0 72 32" fill="none" xmlns="http://www.w3.org/2000/svg">
<g clip-path="url(#clip0_27_5727)">
<path d="M26 3H9C7.93913 3 6.92172 3.42143 6.17157 4.17157C5.42143 4.92172 5 5.93913 5 7V28C5 28.2652 5.10536 28.5196 5.29289 28.7071C5.48043 28.8946 5.73478 29 6 29H24C24.2652 29 24.5196 28.8946 24.7071 28.7071C24.8946 28.5196 25 28.2652 25 28C25 27.7348 24.8946 27.4804 24.7071 27.2929C24.5196 27.1054 24.2652 27 24 27H7C7 26.4696 7.21071 25.9609 7.58579 25.5858C7.96086 25.2107 8.46957 25 9 25H26C26.2652 25 26.5196 24.8946 26.7071 24.7071C26.8946 24.5196 27 24.2652 27 24V4C27 3.73478 26.8946 3.48043 26.7071 3.29289C26.5196 3.10536 26.2652 3 26 3ZM23 15L19.7987 12.6C19.7122 12.5351 19.6069 12.5 19.4988 12.5C19.3906 12.5 19.2853 12.5351 19.1987 12.6L16 15V5H23V15Z" fill="white"/>
<path d="M66 2.5H49C47.8065 2.5 46.6619 2.97411 45.818 3.81802C44.9741 4.66193 44.5 5.80653 44.5 7V28C44.5 28.3978 44.658 28.7794 44.9393 29.0607C45.2206 29.342 45.6022 29.5 46 29.5H64C64.3978 29.5 64.7794 29.342 65.0607 29.0607C65.342 28.7794 65.5 28.3978 65.5 28C65.5 27.6022 65.342 27.2206 65.0607 26.9393C64.7794 26.658 64.3978 26.5 64 26.5H47.5V26C47.5 25.6022 47.658 25.2206 47.9393 24.9393C48.2206 24.658 48.6022 24.5 49 24.5H66C66.3978 24.5 66.7794 24.342 67.0607 24.0607C67.342 23.7794 67.5 23.3978 67.5 23V4C67.5 3.60218 67.342 3.22064 67.0607 2.93934C66.7794 2.65804 66.3978 2.5 66 2.5ZM55 5.5H59.5V12.875L58.1863 11.8237C57.9202 11.6107 57.5896 11.4947 57.2488 11.4947C56.9079 11.4947 56.5773 11.6107 56.3113 11.8237L55 12.875V5.5ZM64.5 21.5H49C48.4889 21.499 47.9815 21.5861 47.5 21.7575V7C47.5 6.60218 47.658 6.22064 47.9393 5.93934C48.2206 5.65804 48.6022 5.5 49 5.5H52V16C51.9999 16.2826 52.0797 16.5595 52.2302 16.7988C52.3806 17.038 52.5956 17.2299 52.8503 17.3523C53.1051 17.4747 53.3892 17.5227 53.67 17.4906C53.9508 17.4586 54.2169 17.3479 54.4375 17.1712L57.2488 14.9213L60.0625 17.1712C60.2831 17.3479 60.5492 17.4586 60.83 17.4906C61.1108 17.5227 61.3949 17.4747 61.6497 17.3523C61.9044 17.2299 62.1194 17.038 62.2698 16.7988C62.4203 16.5595 62.5001 16.2826 62.5 16V5.5H64.5V21.5Z" fill="white"/>
</g>
<defs>
<clipPath id="clip0_27_5727">
<rect width="72" height="32" rx="5" fill="white"/>
</clipPath>
</defs>
</svg>
