<svg width="72" height="32" viewBox="0 0 72 32" fill="none" xmlns="http://www.w3.org/2000/svg">
<g clip-path="url(#clip0_27_5737)">
<path d="M29 6H21C19.9391 6 18.9217 6.42143 18.1716 7.17157C17.4214 7.92172 17 8.93913 17 10V20.9662C17.0035 21.2243 16.9091 21.4741 16.7359 21.6655C16.5626 21.8568 16.3234 21.9754 16.0662 21.9975C15.9295 22.0066 15.7923 21.9874 15.6632 21.9413C15.5341 21.8951 15.4159 21.8229 15.3159 21.7291C15.2159 21.6353 15.1363 21.522 15.0819 21.3961C15.0276 21.2703 14.9997 21.1346 15 20.9975V10C15 8.93913 14.5786 7.92172 13.8284 7.17157C13.0783 6.42143 12.0609 6 11 6H3C2.73478 6 2.48043 6.10536 2.29289 6.29289C2.10536 6.48043 2 6.73478 2 7V25C2 25.2652 2.10536 25.5196 2.29289 25.7071C2.48043 25.8946 2.73478 26 3 26H12C12.7944 26 13.5563 26.315 14.1187 26.876C14.6811 27.437 14.998 28.1982 15 28.9925C14.996 29.1967 15.0554 29.3971 15.17 29.5661C15.2846 29.7351 15.4488 29.8644 15.64 29.9363C15.7918 29.9948 15.9555 30.0155 16.1171 29.9964C16.2786 29.9774 16.4331 29.9192 16.567 29.827C16.701 29.7348 16.8105 29.6112 16.8859 29.4671C16.9614 29.323 17.0005 29.1627 17 29C17 28.2044 17.3161 27.4413 17.8787 26.8787C18.4413 26.3161 19.2044 26 20 26H29C29.2652 26 29.5196 25.8946 29.7071 25.7071C29.8946 25.5196 30 25.2652 30 25V7C30 6.73478 29.8946 6.48043 29.7071 6.29289C29.5196 6.10536 29.2652 6 29 6ZM26 21H21.0338C20.7757 21.0035 20.5259 20.9091 20.3345 20.7359C20.1432 20.5626 20.0246 20.3234 20.0025 20.0662C19.9934 19.9295 20.0126 19.7923 20.0587 19.6632C20.1049 19.5341 20.1771 19.4159 20.2709 19.3159C20.3647 19.2159 20.478 19.1363 20.6039 19.0819C20.7297 19.0276 20.8654 18.9997 21.0025 19H25.9688C26.2268 18.9965 26.4766 19.0909 26.668 19.2641C26.8593 19.4374 26.9779 19.6766 27 19.9338C27.0091 20.0705 26.9899 20.2077 26.9438 20.3368C26.8976 20.4659 26.8254 20.5841 26.7316 20.6841C26.6378 20.7841 26.5245 20.8637 26.3986 20.9181C26.2728 20.9724 26.1371 21.0003 26 21ZM26 17H21.0338C20.7757 17.0035 20.5259 16.9091 20.3345 16.7359C20.1432 16.5626 20.0246 16.3234 20.0025 16.0662C19.9934 15.9295 20.0126 15.7923 20.0587 15.6632C20.1049 15.5341 20.1771 15.4159 20.2709 15.3159C20.3647 15.2159 20.478 15.1363 20.6039 15.0819C20.7297 15.0276 20.8654 14.9997 21.0025 15H25.9688C26.2268 14.9965 26.4766 15.0909 26.668 15.2641C26.8593 15.4374 26.9779 15.6766 27 15.9338C27.0091 16.0705 26.9899 16.2077 26.9438 16.3368C26.8976 16.4659 26.8254 16.5841 26.7316 16.6841C26.6378 16.7841 26.5245 16.8637 26.3986 16.9181C26.2728 16.9724 26.1371 17.0003 26 17ZM26 13H21.0338C20.7753 13.0041 20.5248 12.91 20.333 12.7367C20.1411 12.5634 20.0221 12.3238 20 12.0662C19.9909 11.9295 20.0101 11.7923 20.0562 11.6632C20.1024 11.5341 20.1746 11.4159 20.2684 11.3159C20.3622 11.2159 20.4755 11.1363 20.6014 11.0819C20.7272 11.0276 20.8629 10.9997 21 11H25.9662C26.2247 10.9959 26.4752 11.09 26.667 11.2633C26.8589 11.4366 26.9779 11.6762 27 11.9338C27.0091 12.0705 26.9899 12.2077 26.9438 12.3368C26.8976 12.4659 26.8254 12.5841 26.7316 12.6841C26.6378 12.7841 26.5245 12.8637 26.3986 12.9181C26.2728 12.9724 26.1371 13.0003 26 13Z" fill="white"/>
<path d="M69 5.5H60C59.2503 5.49976 58.5086 5.65327 57.8206 5.95105C57.1326 6.24882 56.5129 6.68453 56 7.23125C55.4871 6.68453 54.8674 6.24882 54.1794 5.95105C53.4914 5.65327 52.7497 5.49976 52 5.5H43C42.6022 5.5 42.2206 5.65804 41.9393 5.93934C41.658 6.22064 41.5 6.60218 41.5 7V25C41.5 25.3978 41.658 25.7794 41.9393 26.0607C42.2206 26.342 42.6022 26.5 43 26.5H52C52.663 26.5 53.2989 26.7634 53.7678 27.2322C54.2366 27.7011 54.5 28.337 54.5 29C54.5 29.3978 54.658 29.7794 54.9393 30.0607C55.2206 30.342 55.6022 30.5 56 30.5C56.3978 30.5 56.7794 30.342 57.0607 30.0607C57.342 29.7794 57.5 29.3978 57.5 29C57.5 28.337 57.7634 27.7011 58.2322 27.2322C58.7011 26.7634 59.337 26.5 60 26.5H69C69.3978 26.5 69.7794 26.342 70.0607 26.0607C70.342 25.7794 70.5 25.3978 70.5 25V7C70.5 6.60218 70.342 6.22064 70.0607 5.93934C69.7794 5.65804 69.3978 5.5 69 5.5ZM52 23.5H44.5V8.5H52C52.663 8.5 53.2989 8.76339 53.7678 9.23223C54.2366 9.70107 54.5 10.337 54.5 11V24.1012C53.7262 23.7052 52.8693 23.4991 52 23.5ZM67.5 23.5H60C59.1305 23.4995 58.2734 23.7064 57.5 24.1038V11C57.5 10.337 57.7634 9.70107 58.2322 9.23223C58.7011 8.76339 59.337 8.5 60 8.5H67.5V23.5ZM60.5 12H64.5C64.8978 12 65.2794 12.158 65.5607 12.4393C65.842 12.7206 66 13.1022 66 13.5C66 13.8978 65.842 14.2794 65.5607 14.5607C65.2794 14.842 64.8978 15 64.5 15H60.5C60.1022 15 59.7206 14.842 59.4393 14.5607C59.158 14.2794 59 13.8978 59 13.5C59 13.1022 59.158 12.7206 59.4393 12.4393C59.7206 12.158 60.1022 12 60.5 12ZM66 18.5C66 18.8978 65.842 19.2794 65.5607 19.5607C65.2794 19.842 64.8978 20 64.5 20H60.5C60.1022 20 59.7206 19.842 59.4393 19.5607C59.158 19.2794 59 18.8978 59 18.5C59 18.1022 59.158 17.7206 59.4393 17.4393C59.7206 17.158 60.1022 17 60.5 17H64.5C64.8978 17 65.2794 17.158 65.5607 17.4393C65.842 17.7206 66 18.1022 66 18.5Z" fill="white"/>
</g>
<defs>
<clipPath id="clip0_27_5737">
<rect width="72" height="32" rx="5" fill="white"/>
</clipPath>
</defs>
</svg>
