<svg width="72" height="32" viewBox="0 0 72 32" fill="none" xmlns="http://www.w3.org/2000/svg">
<g clip-path="url(#clip0_27_5742)">
<path d="M30 10V25C30 25.2652 29.8946 25.5196 29.7071 25.7071C29.5196 25.8946 29.2652 26 29 26H20C19.2056 26 18.4437 26.315 17.8813 26.876C17.3189 27.437 17.002 28.1982 17 28.9925C17.004 29.1967 16.9446 29.3971 16.83 29.5661C16.7154 29.7351 16.5512 29.8644 16.36 29.9363C16.2082 29.9948 16.0445 30.0155 15.8829 29.9964C15.7214 29.9774 15.5669 29.9192 15.433 29.827C15.299 29.7348 15.1895 29.6112 15.1141 29.4671C15.0386 29.323 14.9995 29.1627 15 29C15 28.2044 14.6839 27.4413 14.1213 26.8787C13.5587 26.3161 12.7956 26 12 26H3C2.73478 26 2.48043 25.8946 2.29289 25.7071C2.10536 25.5196 2 25.2652 2 25V10C2 9.73479 2.10536 9.48043 2.29289 9.2929C2.48043 9.10536 2.73478 9 3 9H11C12.0609 9 13.0783 9.42143 13.8284 10.1716C14.5786 10.9217 15 11.9391 15 13V20.9663C14.9965 21.2243 15.0909 21.4741 15.2641 21.6655C15.4374 21.8568 15.6766 21.9754 15.9338 21.9975C16.0705 22.0066 16.2077 21.9874 16.3368 21.9413C16.4659 21.8951 16.5841 21.8229 16.6841 21.7291C16.7841 21.6353 16.8637 21.522 16.9181 21.3961C16.9724 21.2703 17.0003 21.1346 17 20.9975V13C17 11.9391 17.4214 10.9217 18.1716 10.1716C18.9217 9.42143 19.9391 9 21 9H29C29.2652 9 29.5196 9.10536 29.7071 9.2929C29.8946 9.48043 30 9.73479 30 10ZM11.1012 7H11.125C11.9875 7.01714 12.836 7.22035 13.6127 7.59573C14.3894 7.97112 15.0758 8.50983 15.625 9.175C15.6719 9.22989 15.7302 9.27396 15.7958 9.30418C15.8614 9.3344 15.9328 9.35004 16.005 9.35004C16.0772 9.35004 16.1486 9.3344 16.2142 9.30418C16.2798 9.27396 16.3381 9.22989 16.385 9.175C16.9331 8.51109 17.6179 7.97313 18.3928 7.5978C19.1676 7.22246 20.0142 7.01857 20.875 7H20.8988C20.9845 6.99975 21.0687 6.97747 21.1433 6.9353C21.2179 6.89313 21.2804 6.83249 21.3249 6.75919C21.3693 6.68589 21.3941 6.6024 21.397 6.51674C21.3999 6.43107 21.3807 6.34611 21.3412 6.27C20.838 5.28655 20.073 4.46114 19.1305 3.88474C18.188 3.30834 17.1047 3.00333 16 3.00333C14.8953 3.00333 13.812 3.30834 12.8695 3.88474C11.927 4.46114 11.162 5.28655 10.6587 6.27C10.6193 6.34611 10.6001 6.43107 10.603 6.51674C10.6059 6.6024 10.6307 6.68589 10.6751 6.75919C10.7196 6.83249 10.7821 6.89313 10.8567 6.9353C10.9313 6.97747 11.0155 6.99975 11.1012 7Z" fill="white"/>
<path d="M69 9H60C59.2503 8.99976 58.5086 9.15327 57.8206 9.45104C57.1326 9.74882 56.5129 10.1845 56 10.7312C55.4871 10.1845 54.8674 9.74882 54.1794 9.45104C53.4914 9.15327 52.7497 8.99976 52 9H43C42.6022 9 42.2206 9.15803 41.9393 9.43934C41.658 9.72064 41.5 10.1022 41.5 10.5V25C41.5 25.3978 41.658 25.7794 41.9393 26.0607C42.2206 26.342 42.6022 26.5 43 26.5H52C52.663 26.5 53.2989 26.7634 53.7678 27.2322C54.2366 27.7011 54.5 28.337 54.5 29C54.5 29.3978 54.658 29.7794 54.9393 30.0607C55.2206 30.342 55.6022 30.5 56 30.5C56.3978 30.5 56.7794 30.342 57.0607 30.0607C57.342 29.7794 57.5 29.3978 57.5 29C57.5 28.337 57.7634 27.7011 58.2322 27.2322C58.7011 26.7634 59.337 26.5 60 26.5H69C69.3978 26.5 69.7794 26.342 70.0607 26.0607C70.342 25.7794 70.5 25.3978 70.5 25V10.5C70.5 10.1022 70.342 9.72064 70.0607 9.43934C69.7794 9.15803 69.3978 9 69 9ZM52 23.5H44.5V12H52C52.663 12 53.2989 12.2634 53.7678 12.7322C54.2366 13.2011 54.5 13.837 54.5 14.5V24.1012C53.7262 23.7052 52.8693 23.4991 52 23.5ZM67.5 23.5H60C59.1305 23.4995 58.2734 23.7064 57.5 24.1037V14.5C57.5 13.837 57.7634 13.2011 58.2322 12.7322C58.7011 12.2634 59.337 12 60 12H67.5V23.5ZM50.8 5.09875C51.4055 4.29147 52.1906 3.63625 53.0931 3.18497C53.9957 2.73369 54.9909 2.49875 56 2.49875C57.0091 2.49875 58.0043 2.73369 58.9069 3.18497C59.8095 3.63625 60.5945 4.29147 61.2 5.09875C61.439 5.41684 61.5419 5.81686 61.486 6.21081C61.4301 6.60475 61.22 6.96035 60.9019 7.19937C60.5838 7.4384 60.1838 7.54127 59.7898 7.48536C59.3959 7.42946 59.0403 7.21934 58.8013 6.90125C58.4753 6.46609 58.0524 6.11285 57.5662 5.86955C57.0799 5.62625 56.5437 5.49958 56 5.49958C55.4563 5.49958 54.9201 5.62625 54.4338 5.86955C53.9476 6.11285 53.5247 6.46609 53.1987 6.90125C52.9597 7.21934 52.6041 7.42946 52.2102 7.48536C51.8162 7.54127 51.4162 7.4384 51.0981 7.19937C50.78 6.96035 50.5699 6.60475 50.514 6.21081C50.4581 5.81686 50.561 5.41684 50.8 5.09875Z" fill="white"/>
</g>
<defs>
<clipPath id="clip0_27_5742">
<rect width="72" height="32" rx="5" fill="white"/>
</clipPath>
</defs>
</svg>
