<svg width="72" height="32" viewBox="0 0 72 32" fill="none" xmlns="http://www.w3.org/2000/svg">
<g clip-path="url(#clip0_27_5768)">
<path d="M28.9562 24.3188L24.8075 4.59376C24.7538 4.33581 24.6497 4.091 24.5012 3.87341C24.3526 3.65581 24.1626 3.46971 23.9419 3.32579C23.7212 3.18188 23.4742 3.08299 23.2152 3.0348C22.9562 2.98662 22.6902 2.99008 22.4325 3.04501L16.5812 4.30251C16.0637 4.41583 15.6118 4.72892 15.3239 5.17369C15.036 5.61845 14.9353 6.1589 15.0437 6.67751L19.1925 26.4025C19.285 26.8525 19.5295 27.257 19.8851 27.5479C20.2407 27.8389 20.6856 27.9985 21.145 28C21.287 27.9998 21.4286 27.9847 21.5675 27.955L27.4188 26.6975C27.9369 26.5839 28.3893 26.2702 28.6772 25.8247C28.9652 25.3791 29.0655 24.8379 28.9562 24.3188ZM17 6.26876C17 6.26126 17 6.25751 17 6.25751L22.85 5.00751L23.2663 6.99126L17.4163 8.25001L17 6.26876ZM18.25 12.1913L17.8312 10.2038L23.6838 8.94626L24.1012 10.9338L18.25 12.1913ZM27 24.7425L21.15 25.9925L20.7337 24.0088L26.5837 22.75L27 24.7313C27 24.7388 27 24.7425 27 24.7425ZM13 4.00001H7C6.46957 4.00001 5.96086 4.21072 5.58579 4.58579C5.21071 4.96086 5 5.46957 5 6.00001V26C5 26.5304 5.21071 27.0391 5.58579 27.4142C5.96086 27.7893 6.46957 28 7 28H13C13.5304 28 14.0391 27.7893 14.4142 27.4142C14.7893 27.0391 15 26.5304 15 26V6.00001C15 5.46957 14.7893 4.96086 14.4142 4.58579C14.0391 4.21072 13.5304 4.00001 13 4.00001ZM7 6.00001H13V8.00001H7V6.00001ZM13 26H7V24H13V26Z" fill="white"/>
<path d="M69.4463 24.2163L65.2975 4.49125C65.2303 4.16877 65.1001 3.86275 64.9143 3.59076C64.7285 3.31878 64.4907 3.08619 64.2147 2.90638C63.9387 2.72657 63.6299 2.60307 63.3061 2.54298C62.9822 2.4829 62.6496 2.48741 62.3275 2.55625L56.4762 3.81375C55.9383 3.9304 55.4545 4.22287 55.1012 4.645C54.8747 4.29369 54.5636 4.0048 54.1965 3.80477C53.8294 3.60474 53.418 3.49995 53 3.5H47C46.337 3.5 45.7011 3.7634 45.2322 4.23224C44.7634 4.70108 44.5 5.33696 44.5 6V26C44.5 26.663 44.7634 27.2989 45.2322 27.7678C45.7011 28.2366 46.337 28.5 47 28.5H53C53.663 28.5 54.2989 28.2366 54.7678 27.7678C55.2366 27.2989 55.5 26.663 55.5 26V11.2813L58.7025 26.5088C58.8192 27.0704 59.1255 27.5747 59.57 27.9373C60.0145 28.2998 60.5701 28.4985 61.1437 28.5C61.3215 28.4999 61.4987 28.481 61.6725 28.4438L67.5238 27.1863C68.1711 27.0447 68.7363 26.6533 69.0964 26.097C69.4564 25.5407 69.5822 24.8648 69.4463 24.2163ZM58.5238 11.0813L63.3988 10.0338L63.715 11.5338L58.84 12.5813L58.5238 11.0813ZM59.4562 15.5188L64.3312 14.4713L65.4762 19.9188L60.6012 20.9663L59.4562 15.5188ZM62.4638 5.595L62.78 7.095L57.905 8.1425L57.5888 6.6425L62.4638 5.595ZM47.5 11H52.5V21H47.5V11ZM52.5 6.5V8H47.5V6.5H52.5ZM47.5 25.5V24H52.5V25.5H47.5ZM61.5362 25.405L61.22 23.905L66.095 22.8575L66.4112 24.3575L61.5362 25.405Z" fill="white"/>
</g>
<defs>
<clipPath id="clip0_27_5768">
<rect width="72" height="32" rx="5" fill="white"/>
</clipPath>
</defs>
</svg>
