<svg width="72" height="32" viewBox="0 0 72 32" fill="none" xmlns="http://www.w3.org/2000/svg">
<g clip-path="url(#clip0_27_5757)">
<path d="M24 3H12C11.4696 3 10.9609 3.21071 10.5858 3.58579C10.2107 3.96086 10 4.46957 10 5V7H8C7.46957 7 6.96086 7.21071 6.58579 7.58579C6.21071 7.96086 6 8.46957 6 9V28C6 28.1837 6.05061 28.3639 6.1463 28.5208C6.24199 28.6776 6.37904 28.8051 6.54241 28.8892C6.70579 28.9733 6.88917 29.0107 7.07243 28.9974C7.25569 28.9841 7.43174 28.9205 7.58125 28.8137L14 24.2288L20.42 28.8137C20.5695 28.9202 20.7454 28.9835 20.9285 28.9966C21.1116 29.0097 21.2947 28.9722 21.4579 28.8882C21.621 28.8041 21.7579 28.6768 21.8536 28.5201C21.9492 28.3635 21.9998 28.1835 22 28V23.0863L24.4188 24.8137C24.5683 24.9205 24.7443 24.9841 24.9276 24.9974C25.1108 25.0107 25.2942 24.9733 25.4576 24.8892C25.621 24.8051 25.758 24.6776 25.8537 24.5208C25.9494 24.3639 26 24.1837 26 24V5C26 4.46957 25.7893 3.96086 25.4142 3.58579C25.0391 3.21071 24.5304 3 24 3ZM24 22.0575L22 20.625V9C22 8.46957 21.7893 7.96086 21.4142 7.58579C21.0391 7.21071 20.5304 7 20 7H12V5H24V22.0575Z" fill="white"/>
<path d="M64 2.5H52C51.337 2.5 50.7011 2.76339 50.2322 3.23223C49.7634 3.70107 49.5 4.33696 49.5 5V7.5H48C47.337 7.5 46.7011 7.76339 46.2322 8.23223C45.7634 8.70107 45.5 9.33696 45.5 10V28C45.5 28.2802 45.5784 28.5548 45.7264 28.7927C45.8745 29.0305 46.0862 29.2222 46.3376 29.3459C46.5889 29.4697 46.8699 29.5205 47.1487 29.4928C47.4275 29.465 47.693 29.3597 47.915 29.1887L53.5 24.8925L59.0863 29.1887C59.3083 29.3593 59.5736 29.4643 59.8522 29.4919C60.1308 29.5195 60.4116 29.4685 60.6627 29.3448C60.9139 29.2212 61.1254 29.0296 61.2734 28.792C61.4213 28.5543 61.4998 28.28 61.5 28V22.2L64.085 24.1887C64.307 24.3597 64.5725 24.465 64.8513 24.4928C65.1301 24.5205 65.4111 24.4697 65.6624 24.3459C65.9138 24.2222 66.1255 24.0305 66.2736 23.7927C66.4216 23.5548 66.5 23.2802 66.5 23V5C66.5 4.33696 66.2366 3.70107 65.7678 3.23223C65.2989 2.76339 64.663 2.5 64 2.5ZM58.5 24.9538L54.4137 21.8113C54.1516 21.6096 53.8301 21.5003 53.4994 21.5003C53.1686 21.5003 52.8472 21.6096 52.585 21.8113L48.5 24.9538V10.5H58.5V24.9538ZM63.5 19.9538L61.5 18.4163V10C61.5 9.33696 61.2366 8.70107 60.7678 8.23223C60.2989 7.76339 59.663 7.5 59 7.5H52.5V5.5H63.5V19.9538Z" fill="white"/>
</g>
<defs>
<clipPath id="clip0_27_5757">
<rect width="72" height="32" rx="5" fill="white"/>
</clipPath>
</defs>
</svg>
