<svg width="72" height="32" viewBox="0 0 72 32" fill="none" xmlns="http://www.w3.org/2000/svg">
<g clip-path="url(#clip0_27_861)">
<path d="M24.0001 14H14.0338C13.7758 14.0035 13.5259 13.9091 13.3346 13.7359C13.1433 13.5626 13.0247 13.3234 13.0026 13.0662C12.9935 12.9297 13.0126 12.7927 13.0586 12.6638C13.1046 12.5349 13.1766 12.4168 13.2701 12.3168C13.3636 12.2169 13.4767 12.1372 13.6022 12.0827C13.7278 12.0282 13.8632 12 14.0001 12H19.5001C19.6327 12 19.7599 11.9473 19.8536 11.8536C19.9474 11.7598 20.0001 11.6326 20.0001 11.5V10.5C20.0001 10.3674 19.9474 10.2402 19.8536 10.1464C19.7599 10.0527 19.6327 10 19.5001 10H14.0338C13.7753 10.0041 13.5249 9.91003 13.333 9.73674C13.1412 9.56344 13.0222 9.32383 13.0001 9.06625C12.991 8.92946 13.0101 8.79227 13.0563 8.66319C13.1025 8.53411 13.1747 8.41591 13.2685 8.31591C13.3623 8.21592 13.4756 8.13628 13.6014 8.08193C13.7273 8.02759 13.863 7.9997 14.0001 8H19.5001C19.6327 8 19.7599 7.94732 19.8536 7.85355C19.9474 7.75978 20.0001 7.63261 20.0001 7.5V7C20.0001 6.46957 19.7894 5.96086 19.4143 5.58579C19.0392 5.21071 18.5305 5 18.0001 5H4.02758C3.79901 4.99588 3.57559 5.06801 3.39258 5.205C3.22107 5.33614 3.09662 5.51926 3.03781 5.727C2.979 5.93473 2.98901 6.15592 3.06633 6.3575C4.44883 9.9625 4.16133 16.8212 3.03883 20.7237C3.01307 20.8136 3.00002 20.9066 3.00008 21V25C3.00008 25.5304 3.21079 26.0391 3.58586 26.4142C3.96093 26.7893 4.46964 27 5.00008 27H8.26383C8.57452 27.0001 8.88095 26.9277 9.15882 26.7887L10.7363 26H12.7638L14.3413 26.7887C14.6192 26.9277 14.9256 27.0001 15.2363 27H18.7638C19.0745 27.0001 19.381 26.9277 19.6588 26.7887L21.2363 26H23.2638L24.8413 26.7887C25.1192 26.9277 25.4256 27.0001 25.7363 27H29.0001C29.5305 27 30.0392 26.7893 30.4143 26.4142C30.7894 26.0391 31.0001 25.5304 31.0001 25V21C31.0001 19.1435 30.2626 17.363 28.9498 16.0503C27.6371 14.7375 25.8566 14 24.0001 14ZM29.0001 25H25.7363L24.1588 24.2113C23.881 24.0723 23.5745 23.9999 23.2638 24H21.2363C20.9256 23.9999 20.6192 24.0723 20.3413 24.2113L18.7638 25H15.2363L13.6588 24.2113C13.3809 24.0723 13.0745 23.9999 12.7638 24H10.7363C10.4256 23.9999 10.1192 24.0723 9.84133 24.2113L8.26383 25H5.00008V22H29.0001V25Z" fill="white"/>
<path d="M64 13H60.5V7C60.5 6.6717 60.4353 6.34661 60.3097 6.04329C60.1841 5.73998 59.9999 5.46438 59.7678 5.23223C59.5356 5.00009 59.26 4.81594 58.9567 4.6903C58.6534 4.56466 58.3283 4.5 58 4.5H44C43.7567 4.50006 43.517 4.55932 43.3017 4.67265C43.0864 4.78598 42.9019 4.94999 42.7641 5.15053C42.6263 5.35107 42.5394 5.58212 42.5108 5.82375C42.4822 6.06538 42.5128 6.31034 42.6 6.5375C43.96 10.0862 43.6375 16.3325 42.5587 20.085C42.5198 20.2199 42.5001 20.3596 42.5 20.5V25C42.5 25.663 42.7634 26.2989 43.2322 26.7678C43.7011 27.2366 44.337 27.5 45 27.5H48.2638C48.6541 27.5004 49.0392 27.4101 49.3888 27.2362L50.8538 26.5H52.6462L54.1175 27.2362C54.467 27.4101 54.8521 27.5004 55.2425 27.5H58.77C59.1583 27.4994 59.5411 27.4092 59.8888 27.2362L61.3538 26.5H63.1462L64.6175 27.2362C64.9651 27.4092 65.348 27.4994 65.7362 27.5H69C69.663 27.5 70.2989 27.2366 70.7678 26.7678C71.2366 26.2989 71.5 25.663 71.5 25V20.5C71.4977 18.5116 70.7068 16.6053 69.3007 15.1993C67.8947 13.7932 65.9884 13.0023 64 13ZM46 7.5H57.5V13H54.5C54.1022 13 53.7206 13.158 53.4393 13.4393C53.158 13.7206 53 14.1022 53 14.5C53 14.8978 53.158 15.2794 53.4393 15.5607C53.7206 15.842 54.1022 16 54.5 16H64C64.9302 16.0013 65.8373 16.2903 66.5969 16.8274C67.3564 17.3645 67.9312 18.1234 68.2425 19H45.9012C46.5938 15.51 46.7787 11.0512 46 7.5ZM68.5 24.5H65.8538L64.3825 23.7638C64.0349 23.5908 63.652 23.5006 63.2638 23.5H61.2362C60.848 23.5006 60.4651 23.5908 60.1175 23.7638L58.6462 24.5H55.3538L53.8825 23.7638C53.533 23.5899 53.1479 23.4996 52.7575 23.5H50.7362C50.3459 23.4996 49.9608 23.5899 49.6112 23.7638L48.1462 24.5H45.5V22H68.5V24.5Z" fill="white"/>
</g>
<defs>
<clipPath id="clip0_27_861">
<rect width="72" height="32" rx="5" fill="white"/>
</clipPath>
</defs>
</svg>
