<svg width="72" height="32" viewBox="0 0 72 32" fill="none" xmlns="http://www.w3.org/2000/svg">
<g clip-path="url(#clip0_27_5127)">
<path d="M26 12C26.5304 12 27.0391 11.7893 27.4142 11.4142C27.7893 11.0391 28 10.5304 28 10V6C28 5.46957 27.7893 4.96086 27.4142 4.58579C27.0391 4.21071 26.5304 4 26 4H22C21.4696 4 20.9609 4.21071 20.5858 4.58579C20.2107 4.96086 20 5.46957 20 6V7H12V6C12 5.46957 11.7893 4.96086 11.4142 4.58579C11.0391 4.21071 10.5304 4 10 4H6C5.46957 4 4.96086 4.21071 4.58579 4.58579C4.21071 4.96086 4 5.46957 4 6V10C4 10.5304 4.21071 11.0391 4.58579 11.4142C4.96086 11.7893 5.46957 12 6 12H7V20H6C5.46957 20 4.96086 20.2107 4.58579 20.5858C4.21071 20.9609 4 21.4696 4 22V26C4 26.5304 4.21071 27.0391 4.58579 27.4142C4.96086 27.7893 5.46957 28 6 28H10C10.5304 28 11.0391 27.7893 11.4142 27.4142C11.7893 27.0391 12 26.5304 12 26V25H20V26C20 26.5304 20.2107 27.0391 20.5858 27.4142C20.9609 27.7893 21.4696 28 22 28H26C26.5304 28 27.0391 27.7893 27.4142 27.4142C27.7893 27.0391 28 26.5304 28 26V22C28 21.4696 27.7893 20.9609 27.4142 20.5858C27.0391 20.2107 26.5304 20 26 20H25V12H26ZM23 20H22C21.4696 20 20.9609 20.2107 20.5858 20.5858C20.2107 20.9609 20 21.4696 20 22V23H12V22C12 21.4696 11.7893 20.9609 11.4142 20.5858C11.0391 20.2107 10.5304 20 10 20H9V12H10C10.5304 12 11.0391 11.7893 11.4142 11.4142C11.7893 11.0391 12 10.5304 12 10V9H20V10C20 10.5304 20.2107 11.0391 20.5858 11.4142C20.9609 11.7893 21.4696 12 22 12H23V20Z" fill="white"/>
<path d="M66 12.5C66.663 12.5 67.2989 12.2366 67.7678 11.7678C68.2366 11.2989 68.5 10.663 68.5 10V6C68.5 5.33696 68.2366 4.70107 67.7678 4.23223C67.2989 3.76339 66.663 3.5 66 3.5H62C61.337 3.5 60.7011 3.76339 60.2322 4.23223C59.7634 4.70107 59.5 5.33696 59.5 6V6.5H52.5V6C52.5 5.33696 52.2366 4.70107 51.7678 4.23223C51.2989 3.76339 50.663 3.5 50 3.5H46C45.337 3.5 44.7011 3.76339 44.2322 4.23223C43.7634 4.70107 43.5 5.33696 43.5 6V10C43.5 10.663 43.7634 11.2989 44.2322 11.7678C44.7011 12.2366 45.337 12.5 46 12.5H46.5V19.5H46C45.337 19.5 44.7011 19.7634 44.2322 20.2322C43.7634 20.7011 43.5 21.337 43.5 22V26C43.5 26.663 43.7634 27.2989 44.2322 27.7678C44.7011 28.2366 45.337 28.5 46 28.5H50C50.663 28.5 51.2989 28.2366 51.7678 27.7678C52.2366 27.2989 52.5 26.663 52.5 26V25.5H59.5V26C59.5 26.663 59.7634 27.2989 60.2322 27.7678C60.7011 28.2366 61.337 28.5 62 28.5H66C66.663 28.5 67.2989 28.2366 67.7678 27.7678C68.2366 27.2989 68.5 26.663 68.5 26V22C68.5 21.337 68.2366 20.7011 67.7678 20.2322C67.2989 19.7634 66.663 19.5 66 19.5H65.5V12.5H66ZM62.5 6.5H65.5V9.5H62.5V6.5ZM46.5 6.5H49.5V9.5H46.5V6.5ZM49.5 25.5H46.5V22.5H49.5V25.5ZM65.5 25.5H62.5V22.5H65.5V25.5ZM62.5 19.5H62C61.337 19.5 60.7011 19.7634 60.2322 20.2322C59.7634 20.7011 59.5 21.337 59.5 22V22.5H52.5V22C52.5 21.337 52.2366 20.7011 51.7678 20.2322C51.2989 19.7634 50.663 19.5 50 19.5H49.5V12.5H50C50.663 12.5 51.2989 12.2366 51.7678 11.7678C52.2366 11.2989 52.5 10.663 52.5 10V9.5H59.5V10C59.5 10.663 59.7634 11.2989 60.2322 11.7678C60.7011 12.2366 61.337 12.5 62 12.5H62.5V19.5Z" fill="white"/>
</g>
<defs>
<clipPath id="clip0_27_5127">
<rect width="72" height="32" rx="5" fill="white"/>
</clipPath>
</defs>
</svg>
