<svg width="72" height="32" viewBox="0 0 72 32" fill="none" xmlns="http://www.w3.org/2000/svg">
<g clip-path="url(#clip0_27_866)">
<path d="M28 13H26.9538C26.7025 10.2686 25.4398 7.7296 23.4134 5.88102C21.3869 4.03243 18.7429 3.00764 16 3.00764C13.2571 3.00764 10.6131 4.03243 8.58664 5.88102C6.5602 7.7296 5.29752 10.2686 5.04625 13H4C3.73478 13 3.48043 13.1054 3.29289 13.2929C3.10536 13.4804 3 13.7348 3 14C3.00439 16.3781 3.65887 18.7098 4.89264 20.7429C6.12641 22.776 7.89253 24.4331 10 25.535V26C10 26.5304 10.2107 27.0391 10.5858 27.4142C10.9609 27.7893 11.4696 28 12 28H20C20.5304 28 21.0391 27.7893 21.4142 27.4142C21.7893 27.0391 22 26.5304 22 26V25.535C24.1075 24.4331 25.8736 22.776 27.1074 20.7429C28.3411 18.7098 28.9956 16.3781 29 14C29 13.7348 28.8946 13.4804 28.7071 13.2929C28.5196 13.1054 28.2652 13 28 13ZM21.685 7.02874C21.9142 7.21624 22.1338 7.41416 22.3438 7.62249C19.6817 8.55893 17.4819 10.4835 16.2 12.9975H12.5125C13.1375 11.2455 14.2882 9.72925 15.8073 8.6558C17.3264 7.58235 19.1399 7.00408 21 6.99999C21.2288 6.99999 21.4575 7.01124 21.685 7.02874ZM18.515 13C19.7274 11.1811 21.5616 9.86689 23.6737 9.30374C24.3643 10.4271 24.7976 11.6894 24.9425 13H18.515ZM16 4.99999C16.8025 5.00052 17.6012 5.10857 18.375 5.32124C16.4905 5.78871 14.7626 6.74467 13.3653 8.09277C11.9681 9.44087 10.9509 11.1335 10.4163 13H7.0575C7.30556 10.8011 8.35415 8.77033 10.0034 7.29492C11.6526 5.81951 13.7871 5.00262 16 4.99999Z" fill="white"/>
<path d="M68 12.5H67.4025C67.0398 9.7325 65.683 7.19137 63.585 5.3504C61.4871 3.50944 58.7912 2.49432 56 2.49432C53.2088 2.49432 50.5129 3.50944 48.415 5.3504C46.317 7.19137 44.9602 9.7325 44.5975 12.5H44C43.6022 12.5 43.2206 12.658 42.9393 12.9393C42.658 13.2206 42.5 13.6022 42.5 14C42.5045 16.4179 43.156 18.7905 44.3869 20.8716C45.6178 22.9527 47.3833 24.6665 49.5 25.835V26C49.5 26.663 49.7634 27.2989 50.2322 27.7678C50.7011 28.2366 51.337 28.5 52 28.5H60C60.663 28.5 61.2989 28.2366 61.7678 27.7678C62.2366 27.2989 62.5 26.663 62.5 26V25.835C64.6167 24.6665 66.3822 22.9527 67.6131 20.8716C68.844 18.7905 69.4955 16.4179 69.5 14C69.5 13.6022 69.342 13.2206 69.0607 12.9393C68.7794 12.658 68.3978 12.5 68 12.5ZM61.2862 7.5075C58.993 8.53801 57.1006 10.2917 55.8988 12.5H53.25C53.9271 11.0117 55.0174 9.74926 56.3914 8.86285C57.7653 7.97645 59.3649 7.5034 61 7.5C61.095 7.5 61.19 7.5 61.2862 7.5075ZM63.4387 9.8925C63.8886 10.7049 64.2015 11.5859 64.365 12.5H59.5163C60.5516 11.2782 61.9115 10.3743 63.4387 9.8925ZM56 5.5C56.1038 5.5 56.2062 5.5 56.31 5.5075C54.8342 6.16893 53.5139 7.13324 52.4348 8.33787C51.3557 9.54251 50.5419 10.9606 50.0463 12.5H47.635C47.9892 10.5385 49.0204 8.76341 50.5491 7.48422C52.0777 6.20503 54.0068 5.50283 56 5.5ZM60.375 23.5488C60.1139 23.6684 59.8926 23.8606 59.7375 24.1023C59.5824 24.3441 59.5 24.6253 59.5 24.9125V25.5H52.5V24.9125C52.5 24.6253 52.4176 24.3441 52.2625 24.1023C52.1074 23.8606 51.8861 23.6684 51.625 23.5488C50.0314 22.814 48.6465 21.693 47.5959 20.2875C46.5453 18.882 45.8623 17.2364 45.6087 15.5H66.3913C66.1377 17.2364 65.4547 18.882 64.4041 20.2875C63.3535 21.693 61.9686 22.814 60.375 23.5488Z" fill="white"/>
</g>
<defs>
<clipPath id="clip0_27_866">
<rect width="72" height="32" rx="5" fill="white"/>
</clipPath>
</defs>
</svg>
