<svg width="72" height="32" viewBox="0 0 72 32" fill="none" xmlns="http://www.w3.org/2000/svg">
<g clip-path="url(#clip0_27_871)">
<path d="M10.2212 6.875C10.89 6.0425 11.055 5.48 10.9862 5.2325C10.9338 5.04625 10.685 4.95 10.6825 4.95C10.4561 4.87561 10.2638 4.72284 10.1401 4.5192C10.0164 4.31557 9.96941 4.07445 10.0077 3.83928C10.046 3.60411 10.167 3.39034 10.3489 3.23646C10.5308 3.08259 10.7617 2.99874 11 3C11.1009 3.00012 11.2011 3.01528 11.2975 3.045C11.4225 3.08375 12.5363 3.46125 12.8962 4.64C13.2037 5.64875 12.8275 6.82125 11.7788 8.12625C11.11 8.95875 10.945 9.52125 11.0138 9.76875C11.0662 9.955 11.31 10.0487 11.3125 10.05C11.5384 10.1243 11.7305 10.2766 11.8543 10.4797C11.978 10.6828 12.0253 10.9234 11.9877 11.1582C11.95 11.3931 11.8299 11.6068 11.6489 11.7611C11.4679 11.9154 11.2378 12.0001 11 12C10.8991 11.9999 10.7989 11.9847 10.7025 11.955C10.5775 11.9162 9.46375 11.5387 9.10375 10.36C8.79625 9.35125 9.1725 8.17875 10.2212 6.875ZM14.1038 10.3612C14.4637 11.54 15.5775 11.9175 15.7025 11.9562C15.7989 11.9855 15.8992 12.0003 16 12C16.2378 12.0001 16.4679 11.9154 16.6489 11.7611C16.8299 11.6068 16.95 11.3931 16.9877 11.1582C17.0253 10.9234 16.978 10.6828 16.8543 10.4797C16.7305 10.2766 16.5384 10.1243 16.3125 10.05C16.3125 10.05 16.0625 9.955 16.0138 9.76875C15.945 9.51875 16.11 8.95875 16.7787 8.12625C17.8275 6.82125 18.2037 5.64875 17.8962 4.64C17.5363 3.46125 16.4238 3.08375 16.2975 3.045C16.2011 3.01528 16.1009 3.00012 16 3C15.7624 2.99965 15.5324 3.08391 15.3513 3.23768C15.1702 3.39145 15.0497 3.60469 15.0115 3.83919C14.9733 4.0737 15.0199 4.31414 15.1428 4.51746C15.2658 4.72077 15.4571 4.87366 15.6825 4.94875C15.6825 4.94875 15.9325 5.045 15.9862 5.23125C16.055 5.48125 15.89 6.04125 15.2212 6.87375C14.1725 8.17875 13.7963 9.35125 14.1038 10.36V10.3612ZM19.1038 10.3612C19.4638 11.54 20.5775 11.9175 20.7025 11.9562C20.7989 11.9855 20.8992 12.0003 21 12C21.2378 12.0001 21.4679 11.9154 21.6489 11.7611C21.8299 11.6068 21.95 11.3931 21.9877 11.1582C22.0253 10.9234 21.978 10.6828 21.8543 10.4797C21.7305 10.2766 21.5384 10.1243 21.3125 10.05C21.3125 10.05 21.0625 9.955 21.0138 9.76875C20.945 9.51875 21.11 8.95875 21.7787 8.12625C22.8275 6.82125 23.2038 5.64875 22.8962 4.64C22.5362 3.46125 21.4237 3.08375 21.2975 3.045C21.2011 3.01528 21.1009 3.00012 21 3C20.7624 2.99965 20.5324 3.08391 20.3513 3.23768C20.1702 3.39145 20.0497 3.60469 20.0115 3.83919C19.9733 4.0737 20.0199 4.31414 20.1428 4.51746C20.2658 4.72077 20.4571 4.87366 20.6825 4.94875C20.6825 4.94875 20.9325 5.045 20.9862 5.23125C21.055 5.48125 20.89 6.04125 20.2213 6.87375C19.1725 8.17875 18.7963 9.35125 19.1038 10.36V10.3612ZM28 14H4C3.73478 14 3.48043 14.1054 3.29289 14.2929C3.10536 14.4804 3 14.7348 3 15C3.00439 17.3781 3.65887 19.7098 4.89264 21.7429C6.12641 23.776 7.89253 25.4331 10 26.535V27C10 27.5304 10.2107 28.0391 10.5858 28.4142C10.9609 28.7893 11.4696 29 12 29H20C20.5304 29 21.0391 28.7893 21.4142 28.4142C21.7893 28.0391 22 27.5304 22 27V26.535C24.1075 25.4331 25.8736 23.776 27.1074 21.7429C28.3411 19.7098 28.9956 17.3781 29 15C29 14.7348 28.8946 14.4804 28.7071 14.2929C28.5196 14.1054 28.2652 14 28 14Z" fill="white"/>
<path d="M68 13.5H44C43.6022 13.5 43.2206 13.658 42.9393 13.9393C42.658 14.2206 42.5 14.6022 42.5 15C42.5045 17.4179 43.156 19.7905 44.3869 21.8716C45.6178 23.9527 47.3833 25.6664 49.5 26.835V27C49.5 27.663 49.7634 28.2989 50.2322 28.7678C50.7011 29.2366 51.337 29.5 52 29.5H60C60.663 29.5 61.2989 29.2366 61.7678 28.7678C62.2366 28.2989 62.5 27.663 62.5 27V26.835C64.6167 25.6664 66.3822 23.9527 67.6131 21.8716C68.844 19.7905 69.4955 17.4179 69.5 15C69.5 14.6022 69.342 14.2206 69.0607 13.9393C68.7794 13.658 68.3978 13.5 68 13.5ZM60.375 24.5487C60.1141 24.6683 59.893 24.8603 59.7379 25.1018C59.5828 25.3433 59.5002 25.6242 59.5 25.9112V26.5H52.5V25.9112C52.4998 25.6242 52.4172 25.3433 52.2621 25.1018C52.107 24.8603 51.8859 24.6683 51.625 24.5487C50.0314 23.814 48.6465 22.693 47.5959 21.2875C46.5453 19.882 45.8623 18.2364 45.6087 16.5H66.3913C66.1377 18.2364 65.4547 19.882 64.4041 21.2875C63.3535 22.693 61.9686 23.814 60.375 24.5487ZM49.3663 6.26874C49.6083 6.01063 49.8071 5.71517 49.955 5.39374C49.5971 5.25215 49.3073 4.97836 49.1456 4.62904C48.9838 4.27972 48.9626 3.8816 49.0863 3.51707C49.2099 3.15254 49.469 2.8495 49.8098 2.67065C50.1507 2.49181 50.5473 2.45085 50.9175 2.55624C51.6262 2.76124 52.5675 3.38499 52.8888 4.46874C53.2275 5.61124 52.805 6.87625 51.6388 8.22874C51.3967 8.48685 51.1979 8.78232 51.05 9.10374C51.3754 9.2315 51.646 9.4689 51.815 9.77493C51.9839 10.081 52.0407 10.4364 51.9755 10.7798C51.9103 11.1233 51.7271 11.4332 51.4577 11.656C51.1883 11.8787 50.8496 12.0004 50.5 12C50.3592 12.0004 50.219 11.9806 50.0837 11.9412C49.375 11.7362 48.4325 11.1125 48.1112 10.0287C47.7725 8.88625 48.195 7.62499 49.3663 6.26874ZM54.8663 6.26874C55.1083 6.01063 55.3071 5.71517 55.455 5.39374C55.0971 5.25215 54.8073 4.97836 54.6456 4.62904C54.4838 4.27972 54.4626 3.8816 54.5863 3.51707C54.7099 3.15254 54.969 2.8495 55.3098 2.67065C55.6507 2.49181 56.0473 2.45085 56.4175 2.55624C57.1262 2.76124 58.0675 3.38499 58.3888 4.46874C58.7275 5.61124 58.305 6.87625 57.1388 8.22874C56.8967 8.48685 56.6979 8.78232 56.55 9.10374C56.8754 9.2315 57.146 9.4689 57.315 9.77493C57.4839 10.081 57.5407 10.4364 57.4755 10.7798C57.4103 11.1233 57.2271 11.4332 56.9577 11.656C56.6883 11.8787 56.3496 12.0004 56 12C55.8592 12.0004 55.719 11.9806 55.5837 11.9412C54.875 11.7362 53.9325 11.1125 53.6112 10.0287C53.2725 8.88625 53.695 7.62499 54.8663 6.26874ZM60.3662 6.26874C60.6083 6.01063 60.8071 5.71517 60.955 5.39374C60.5971 5.25215 60.3073 4.97836 60.1455 4.62904C59.9838 4.27972 59.9626 3.8816 60.0863 3.51707C60.2099 3.15254 60.469 2.8495 60.8098 2.67065C61.1507 2.49181 61.5473 2.45085 61.9175 2.55624C62.6262 2.76124 63.5675 3.38499 63.8888 4.46874C64.2275 5.61124 63.805 6.87625 62.6388 8.22874C62.3967 8.48685 62.1979 8.78232 62.05 9.10374C62.3754 9.2315 62.646 9.4689 62.815 9.77493C62.9839 10.081 63.0407 10.4364 62.9755 10.7798C62.9103 11.1233 62.7271 11.4332 62.4577 11.656C62.1883 11.8787 61.8496 12.0004 61.5 12C61.3592 12.0004 61.219 11.9806 61.0837 11.9412C60.375 11.7362 59.4325 11.1125 59.1112 10.0287C58.7725 8.88625 59.195 7.62499 60.3662 6.26874Z" fill="white"/>
</g>
<defs>
<clipPath id="clip0_27_871">
<rect width="72" height="32" rx="5" fill="white"/>
</clipPath>
</defs>
</svg>
