<svg width="72" height="32" viewBox="0 0 72 32" fill="none" xmlns="http://www.w3.org/2000/svg">
<g clip-path="url(#clip0_27_6931)">
<path d="M27.895 8.5525L25.895 4.5525C25.8119 4.38636 25.6841 4.24667 25.526 4.14908C25.3679 4.05149 25.1858 3.99987 25 4H7C6.81422 3.99987 6.63208 4.05149 6.47399 4.14908C6.31591 4.24667 6.18814 4.38636 6.105 4.5525L4.105 8.5525C4.03607 8.69161 4.00014 8.84475 4 9V26C4 26.5304 4.21071 27.0391 4.58579 27.4142C4.96086 27.7893 5.46957 28 6 28H26C26.5304 28 27.0391 27.7893 27.4142 27.4142C27.7893 27.0391 28 26.5304 28 26V9C27.9999 8.84475 27.9639 8.69161 27.895 8.5525ZM20.7075 17.7075C20.6146 17.8005 20.5043 17.8742 20.3829 17.9246C20.2615 17.9749 20.1314 18.0008 20 18.0008C19.8686 18.0008 19.7385 17.9749 19.6171 17.9246C19.4957 17.8742 19.3854 17.8005 19.2925 17.7075L17 15.4137V23C17 23.2652 16.8946 23.5196 16.7071 23.7071C16.5196 23.8946 16.2652 24 16 24C15.7348 24 15.4804 23.8946 15.2929 23.7071C15.1054 23.5196 15 23.2652 15 23V15.4137L12.7075 17.7075C12.6146 17.8004 12.5043 17.8741 12.3829 17.9244C12.2615 17.9747 12.1314 18.0006 12 18.0006C11.8686 18.0006 11.7385 17.9747 11.6171 17.9244C11.4957 17.8741 11.3854 17.8004 11.2925 17.7075C11.1996 17.6146 11.1259 17.5043 11.0756 17.3829C11.0253 17.2615 10.9994 17.1314 10.9994 17C10.9994 16.8686 11.0253 16.7385 11.0756 16.6171C11.1259 16.4957 11.1996 16.3854 11.2925 16.2925L15.2925 12.2925C15.3854 12.1995 15.4957 12.1258 15.6171 12.0754C15.7385 12.0251 15.8686 11.9992 16 11.9992C16.1314 11.9992 16.2615 12.0251 16.3829 12.0754C16.5043 12.1258 16.6146 12.1995 16.7075 12.2925L20.7075 16.2925C20.8005 16.3854 20.8742 16.4957 20.9246 16.6171C20.9749 16.7385 21.0008 16.8686 21.0008 17C21.0008 17.1314 20.9749 17.2615 20.9246 17.3829C20.8742 17.5043 20.8005 17.6146 20.7075 17.7075ZM6.6175 8L7.6175 6H24.3825L25.3825 8H6.6175Z" fill="white"/>
<path d="M68.3412 8.32875L66.3412 4.32875C66.2166 4.07973 66.0252 3.87031 65.7883 3.72394C65.5514 3.57757 65.2785 3.50003 65 3.5H47C46.7215 3.50003 46.4486 3.57757 46.2117 3.72394C45.9748 3.87031 45.7834 4.07973 45.6588 4.32875L43.6588 8.32875C43.5544 8.53713 43.5001 8.76696 43.5 9V26C43.5 26.663 43.7634 27.2989 44.2322 27.7678C44.7011 28.2366 45.337 28.5 46 28.5H66C66.663 28.5 67.2989 28.2366 67.7678 27.7678C68.2366 27.2989 68.5 26.663 68.5 26V9C68.4999 8.76696 68.4456 8.53713 68.3412 8.32875ZM64.0725 6.5L64.8225 8H47.1775L47.9275 6.5H64.0725ZM46.5 25.5V11H65.5V25.5H46.5ZM61.0613 16.9387C61.343 17.2205 61.5014 17.6027 61.5014 18.0012C61.5014 18.3998 61.343 18.782 61.0613 19.0637C60.7795 19.3455 60.3973 19.5039 59.9988 19.5039C59.6002 19.5039 59.218 19.3455 58.9363 19.0637L57.5 17.625V22.5C57.5 22.8978 57.342 23.2794 57.0607 23.5607C56.7794 23.842 56.3978 24 56 24C55.6022 24 55.2206 23.842 54.9393 23.5607C54.658 23.2794 54.5 22.8978 54.5 22.5V17.625L53.0612 19.065C52.7795 19.3468 52.3973 19.5051 51.9987 19.5051C51.6002 19.5051 51.218 19.3468 50.9362 19.065C50.6545 18.7832 50.4961 18.401 50.4961 18.0025C50.4961 17.604 50.6545 17.2218 50.9362 16.94L54.9362 12.94C55.0756 12.8002 55.2412 12.6892 55.4235 12.6135C55.6058 12.5378 55.8013 12.4988 55.9987 12.4988C56.1962 12.4988 56.3917 12.5378 56.574 12.6135C56.7563 12.6892 56.9219 12.8002 57.0613 12.94L61.0613 16.9387Z" fill="white"/>
</g>
<defs>
<clipPath id="clip0_27_6931">
<rect width="72" height="32" rx="5" fill="white"/>
</clipPath>
</defs>
</svg>
