<svg width="72" height="32" viewBox="0 0 72 32" fill="none" xmlns="http://www.w3.org/2000/svg">
<g clip-path="url(#clip0_27_6926)">
<path d="M27.895 8.5525L25.895 4.5525C25.8119 4.38636 25.6841 4.24667 25.526 4.14908C25.3679 4.05149 25.1858 3.99987 25 4H7C6.81422 3.99987 6.63208 4.05149 6.47399 4.14908C6.31591 4.24667 6.18814 4.38636 6.105 4.5525L4.105 8.5525C4.03607 8.69161 4.00014 8.84475 4 9V26C4 26.5304 4.21071 27.0391 4.58579 27.4142C4.96086 27.7893 5.46957 28 6 28H26C26.5304 28 27.0391 27.7893 27.4142 27.4142C27.7893 27.0391 28 26.5304 28 26V9C27.9999 8.84475 27.9639 8.69161 27.895 8.5525ZM20.7075 19.7075L16.7075 23.7075C16.6146 23.8005 16.5043 23.8742 16.3829 23.9246C16.2615 23.9749 16.1314 24.0008 16 24.0008C15.8686 24.0008 15.7385 23.9749 15.6171 23.9246C15.4957 23.8742 15.3854 23.8005 15.2925 23.7075L11.2925 19.7075C11.1049 19.5199 10.9994 19.2654 10.9994 19C10.9994 18.7346 11.1049 18.4801 11.2925 18.2925C11.4801 18.1049 11.7346 17.9994 12 17.9994C12.2654 17.9994 12.5199 18.1049 12.7075 18.2925L15 20.5863V13C15 12.7348 15.1054 12.4804 15.2929 12.2929C15.4804 12.1054 15.7348 12 16 12C16.2652 12 16.5196 12.1054 16.7071 12.2929C16.8946 12.4804 17 12.7348 17 13V20.5863L19.2925 18.2925C19.4801 18.1049 19.7346 17.9994 20 17.9994C20.2654 17.9994 20.5199 18.1049 20.7075 18.2925C20.8951 18.4801 21.0006 18.7346 21.0006 19C21.0006 19.2654 20.8951 19.5199 20.7075 19.7075ZM6.6175 8L7.6175 6H24.3825L25.3825 8H6.6175Z" fill="white"/>
<path d="M68.3412 8.32875L66.3412 4.32875C66.2166 4.07973 66.0252 3.87031 65.7883 3.72394C65.5514 3.57757 65.2785 3.50003 65 3.5H47C46.7215 3.50003 46.4486 3.57757 46.2117 3.72394C45.9748 3.87031 45.7834 4.07973 45.6588 4.32875L43.6588 8.32875C43.5544 8.53713 43.5001 8.76696 43.5 9V26C43.5 26.663 43.7634 27.2989 44.2322 27.7678C44.7011 28.2366 45.337 28.5 46 28.5H66C66.663 28.5 67.2989 28.2366 67.7678 27.7678C68.2366 27.2989 68.5 26.663 68.5 26V9C68.4999 8.76696 68.4456 8.53713 68.3412 8.32875ZM64.0725 6.5L64.8225 8H47.1775L47.9275 6.5H64.0725ZM46.5 25.5V11H65.5V25.5H46.5ZM61.0613 17.4387C61.2011 17.5781 61.312 17.7437 61.3878 17.926C61.4635 18.1083 61.5024 18.3038 61.5024 18.5012C61.5024 18.6987 61.4635 18.8941 61.3878 19.0765C61.312 19.2588 61.2011 19.4244 61.0613 19.5637L57.0613 23.5637C56.9219 23.7036 56.7563 23.8145 56.574 23.8903C56.3917 23.966 56.1962 24.0049 55.9987 24.0049C55.8013 24.0049 55.6058 23.966 55.4235 23.8903C55.2412 23.8145 55.0756 23.7036 54.9362 23.5637L50.9362 19.5637C50.6545 19.282 50.4961 18.8998 50.4961 18.5012C50.4961 18.1027 50.6545 17.7205 50.9362 17.4387C51.218 17.157 51.6002 16.9986 51.9987 16.9986C52.3973 16.9986 52.7795 17.157 53.0612 17.4387L54.5 18.875V14C54.5 13.6022 54.658 13.2206 54.9393 12.9393C55.2206 12.658 55.6022 12.5 56 12.5C56.3978 12.5 56.7794 12.658 57.0607 12.9393C57.342 13.2206 57.5 13.6022 57.5 14V18.875L58.9387 17.435C59.0783 17.2958 59.2439 17.1854 59.4262 17.1103C59.6084 17.0351 59.8037 16.9966 60.0008 16.9969C60.1979 16.9973 60.393 17.0365 60.575 17.1123C60.7569 17.1881 60.9222 17.299 61.0613 17.4387Z" fill="white"/>
</g>
<defs>
<clipPath id="clip0_27_6926">
<rect width="72" height="32" rx="5" fill="white"/>
</clipPath>
</defs>
</svg>
