<svg width="72" height="32" viewBox="0 0 72 32" fill="none" xmlns="http://www.w3.org/2000/svg">
<g clip-path="url(#clip0_27_4590)">
<path d="M21 2H15C13.1435 2 11.363 2.7375 10.0503 4.05025C8.7375 5.36301 8 7.14348 8 9V12.9663C8.00411 13.2247 7.91003 13.4752 7.73674 13.667C7.56344 13.8589 7.32383 13.9779 7.06625 14C6.92946 14.0091 6.79227 13.9899 6.66319 13.9438C6.53411 13.8976 6.41591 13.8254 6.31591 13.7316C6.21592 13.6378 6.13628 13.5245 6.08193 13.3986C6.02759 13.2728 5.9997 13.1371 6 13V9.8375C5.99994 9.75416 5.97905 9.67216 5.93923 9.59895C5.89941 9.52574 5.84193 9.46364 5.772 9.41831C5.70207 9.37297 5.62192 9.34583 5.53883 9.33936C5.45574 9.33289 5.37236 9.34729 5.29625 9.38125C4.60965 9.70449 4.02917 10.2164 3.62257 10.8571C3.21598 11.4979 3.00005 12.2411 3 13V16.6488C3.00103 17.1028 3.15517 17.5432 3.4375 17.8988C3.4625 17.9288 3.48875 17.9575 3.51625 17.985L8 22.4175V27C8 27.5304 8.21071 28.0391 8.58579 28.4142C8.96086 28.7893 9.46957 29 10 29H24C24.5304 29 25.0391 28.7893 25.4142 28.4142C25.7893 28.0391 26 27.5304 26 27V22.14L27.9225 15.41C27.9738 15.2312 27.9999 15.046 28 14.86V9C28 7.14348 27.2625 5.36301 25.9497 4.05025C24.637 2.7375 22.8565 2 21 2ZM21.4475 23.105C21.565 23.1638 21.6698 23.2451 21.7559 23.3444C21.842 23.4437 21.9077 23.5589 21.9493 23.6836C21.9908 23.8082 22.0074 23.9399 21.9981 24.0709C21.9888 24.202 21.9538 24.33 21.895 24.4475C21.8362 24.565 21.7549 24.6698 21.6556 24.7559C21.5563 24.842 21.4411 24.9077 21.3164 24.9493C21.1918 24.9908 21.0601 25.0074 20.9291 24.9981C20.798 24.9888 20.67 24.9538 20.5525 24.895L17 23.1175L13.4475 24.895C13.33 24.9538 13.202 24.9888 13.0709 24.9981C12.9399 25.0074 12.8082 24.9908 12.6836 24.9493C12.5589 24.9077 12.4436 24.842 12.3444 24.7559C12.2451 24.6698 12.1638 24.565 12.105 24.4475C12.0462 24.33 12.0112 24.202 12.0019 24.0709C11.9926 23.9399 12.0092 23.8082 12.0507 23.6836C12.0923 23.5589 12.158 23.4437 12.2441 23.3444C12.3302 23.2451 12.435 23.1638 12.5525 23.105L14.7638 22L12.5525 20.895C12.435 20.8362 12.3302 20.7549 12.2441 20.6556C12.158 20.5563 12.0923 20.4411 12.0507 20.3164C12.0092 20.1918 11.9926 20.0601 12.0019 19.9291C12.0112 19.798 12.0462 19.67 12.105 19.5525C12.1638 19.435 12.2451 19.3302 12.3444 19.2441C12.4436 19.158 12.5589 19.0923 12.6836 19.0507C12.9353 18.9668 13.2101 18.9863 13.4475 19.105L17 20.8825L20.5525 19.105C20.67 19.0462 20.798 19.0112 20.9291 19.0019C21.0601 18.9926 21.1918 19.0092 21.3164 19.0507C21.4411 19.0923 21.5563 19.158 21.6556 19.2441C21.7549 19.3302 21.8362 19.435 21.895 19.5525C21.9538 19.67 21.9888 19.798 21.9981 19.9291C22.0074 20.0601 21.9908 20.1918 21.9493 20.3164C21.9077 20.4411 21.842 20.5563 21.7559 20.6556C21.6698 20.7549 21.565 20.8362 21.4475 20.895L19.2362 22L21.4475 23.105Z" fill="white"/>
<path d="M61 1.5H55C53.098 1.50226 51.2678 2.22608 49.8788 3.52532C48.4897 4.82456 47.6454 6.60244 47.5163 8.5H47C45.8065 8.5 44.6619 8.97411 43.818 9.81802C42.9741 10.6619 42.5 11.8065 42.5 13V16.6488C42.501 17.2164 42.694 17.7671 43.0475 18.2113C43.0841 18.2552 43.1234 18.297 43.165 18.3363L47.5 22.625V27C47.5 27.663 47.7634 28.2989 48.2322 28.7678C48.7011 29.2366 49.337 29.5 50 29.5H64C64.663 29.5 65.2989 29.2366 65.7678 28.7678C66.2366 28.2989 66.5 27.663 66.5 27V22.21L68.4037 15.5475C68.4675 15.3239 68.4999 15.0925 68.5 14.86V9C68.4977 7.01159 67.7068 5.10528 66.3007 3.69926C64.8947 2.29324 62.9884 1.50232 61 1.5ZM65.5 14.79L63.5575 21.5875C63.5197 21.7217 63.5003 21.8605 63.5 22V26.5H50.5V22C50.5 21.8017 50.4607 21.6053 50.3843 21.4223C50.3079 21.2393 50.196 21.0732 50.055 20.9338L45.5 16.4312V13C45.5 12.6022 45.658 12.2206 45.9393 11.9393C46.2206 11.658 46.6022 11.5 47 11.5H47.5V13C47.5 13.3978 47.658 13.7794 47.9393 14.0607C48.2206 14.342 48.6022 14.5 49 14.5C49.3978 14.5 49.7794 14.342 50.0607 14.0607C50.342 13.7794 50.5 13.3978 50.5 13V9C50.5 7.80653 50.9741 6.66193 51.818 5.81802C52.6619 4.97411 53.8065 4.5 55 4.5H61C62.1935 4.5 63.3381 4.97411 64.182 5.81802C65.0259 6.66193 65.5 7.80653 65.5 9V14.79ZM60.8325 20.25L59.7075 21L60.8325 21.75C60.9967 21.8593 61.1377 21.9999 61.2475 22.1637C61.3573 22.3276 61.4338 22.5114 61.4725 22.7048C61.5113 22.8982 61.5116 23.0973 61.4734 23.2908C61.4352 23.4843 61.3593 23.6683 61.25 23.8325C61.1407 23.9967 61.0001 24.1377 60.8363 24.2475C60.6724 24.3573 60.4886 24.4338 60.2952 24.4725C60.1018 24.5113 59.9027 24.5116 59.7092 24.4734C59.5157 24.4352 59.3317 24.3593 59.1675 24.25L57 22.8025L54.8325 24.25C54.501 24.4708 54.0953 24.5508 53.7048 24.4725C53.3142 24.3943 52.9708 24.164 52.75 23.8325C52.5292 23.501 52.4492 23.0953 52.5275 22.7048C52.6057 22.3142 52.836 21.9708 53.1675 21.75L54.2925 21L53.1675 20.25C53.0033 20.1407 52.8623 20.0001 52.7525 19.8363C52.6427 19.6724 52.5662 19.4886 52.5275 19.2952C52.4492 18.9047 52.5292 18.499 52.75 18.1675C52.8593 18.0033 52.9999 17.8623 53.1637 17.7525C53.3276 17.6427 53.5114 17.5662 53.7048 17.5275C54.0953 17.4492 54.501 17.5292 54.8325 17.75L57 19.1975L59.1675 17.75C59.499 17.5292 59.9047 17.4492 60.2952 17.5275C60.6858 17.6057 61.0292 17.836 61.25 18.1675C61.4708 18.499 61.5508 18.9047 61.4725 19.2952C61.3943 19.6858 61.164 20.0292 60.8325 20.25Z" fill="white"/>
</g>
<defs>
<clipPath id="clip0_27_4590">
<rect width="72" height="32" rx="5" fill="white"/>
</clipPath>
</defs>
</svg>
