<svg width="72" height="32" viewBox="0 0 72 32" fill="none" xmlns="http://www.w3.org/2000/svg">
<g clip-path="url(#clip0_27_3483)">
<path d="M27 5H5C4.46957 5 3.96086 5.21071 3.58579 5.58579C3.21071 5.96086 3 6.46957 3 7V25C3 25.5304 3.21071 26.0391 3.58579 26.4142C3.96086 26.7893 4.46957 27 5 27H27C27.5304 27 28.0391 26.7893 28.4142 26.4142C28.7893 26.0391 29 25.5304 29 25V7C29 6.46957 28.7893 5.96086 28.4142 5.58579C28.0391 5.21071 27.5304 5 27 5ZM12.875 22.5C13.0076 22.7312 13.0429 23.0057 12.9732 23.263C12.9034 23.5202 12.7344 23.7393 12.5031 23.8719C12.2719 24.0045 11.9974 24.0398 11.7402 23.9701C11.4829 23.9003 11.2639 23.7312 11.1313 23.5L7.13125 16.5C7.04487 16.3489 6.99943 16.1778 6.99943 16.0037C6.99943 15.8297 7.04487 15.6586 7.13125 15.5075L11.1313 8.5075C11.2629 8.27626 11.4809 8.10678 11.7375 8.03634C11.9941 7.9659 12.2681 8.00026 12.4994 8.13188C12.7306 8.26349 12.9001 8.48157 12.9705 8.73814C13.041 8.99472 13.0066 9.26876 12.875 9.5L9.15125 16L12.875 22.5ZM24.875 16.5L20.875 23.5C20.7434 23.7304 20.5256 23.8991 20.2696 23.969C20.0137 24.0388 19.7404 24.0041 19.51 23.8725C19.2796 23.7409 19.1109 23.5231 19.041 23.2671C18.9712 23.0112 19.0059 22.7379 19.1375 22.5075L22.855 16.0075L19.1313 9.5C19.0656 9.3855 19.0231 9.2592 19.0063 9.12829C18.9894 8.99738 18.9985 8.86443 19.0331 8.73704C19.0676 8.60965 19.1269 8.49031 19.2075 8.38583C19.2882 8.28136 19.3886 8.19379 19.5031 8.12813C19.6176 8.06246 19.7439 8.02 19.8748 8.00315C20.0057 7.9863 20.1387 7.99541 20.2661 8.02994C20.3935 8.06447 20.5128 8.12375 20.6173 8.20441C20.7218 8.28506 20.8093 8.3855 20.875 8.5L24.875 15.5C24.9628 15.652 25.009 15.8245 25.009 16C25.009 16.1755 24.9628 16.348 24.875 16.5Z" fill="white"/>
<path d="M51.2653 5.805L44.7778 16L51.2653 26.195C51.3776 26.3611 51.4555 26.548 51.4943 26.7447C51.5332 26.9414 51.5322 27.1439 51.4914 27.3402C51.4507 27.5366 51.371 27.7227 51.257 27.8877C51.1431 28.0527 50.9972 28.1931 50.8281 28.3008C50.6589 28.4084 50.4699 28.4811 50.2722 28.5144C50.0745 28.5478 49.8721 28.5411 49.677 28.4949C49.4819 28.4487 49.298 28.3638 49.1363 28.2453C48.9745 28.1268 48.8382 27.9771 48.7353 27.805L41.7353 16.805C41.5823 16.5644 41.501 16.2851 41.501 16C41.501 15.7148 41.5823 15.4356 41.7353 15.195L48.7353 4.195C48.9541 3.87146 49.2905 3.64602 49.6729 3.56662C50.0553 3.48721 50.4536 3.56011 50.7831 3.7698C51.1127 3.97949 51.3474 4.30945 51.4374 4.68951C51.5275 5.06957 51.4657 5.46976 51.2653 5.805ZM70.2653 15.195L63.2653 4.195C63.1624 4.02291 63.0261 3.87319 62.8643 3.75469C62.7026 3.63619 62.5187 3.55133 62.3236 3.50511C62.1285 3.45889 61.9261 3.45225 61.7284 3.48559C61.5307 3.51893 61.3417 3.59157 61.1725 3.69921C61.0034 3.80686 60.8575 3.94733 60.7436 4.11231C60.6296 4.27729 60.5499 4.46345 60.5091 4.65976C60.4684 4.85608 60.4674 5.05858 60.5062 5.25528C60.5451 5.45199 60.623 5.63891 60.7353 5.805L67.2228 16L60.7353 26.195C60.623 26.3611 60.5451 26.548 60.5062 26.7447C60.4674 26.9414 60.4684 27.1439 60.5091 27.3402C60.5499 27.5366 60.6296 27.7227 60.7436 27.8877C60.8575 28.0527 61.0034 28.1931 61.1725 28.3008C61.3417 28.4084 61.5307 28.4811 61.7284 28.5144C61.9261 28.5478 62.1285 28.5411 62.3236 28.4949C62.5187 28.4487 62.7026 28.3638 62.8643 28.2453C63.0261 28.1268 63.1624 27.9771 63.2653 27.805L70.2653 16.805C70.4183 16.5644 70.4996 16.2851 70.4996 16C70.4996 15.7148 70.4183 15.4356 70.2653 15.195Z" fill="white"/>
</g>
<defs>
<clipPath id="clip0_27_3483">
<rect width="72" height="32" rx="5" fill="white"/>
</clipPath>
</defs>
</svg>
