<svg width="72" height="32" viewBox="0 0 72 32" fill="none" xmlns="http://www.w3.org/2000/svg">
<g clip-path="url(#clip0_27_3493)">
<path d="M27 5H5C4.46957 5 3.96086 5.21071 3.58579 5.58579C3.21071 5.96086 3 6.46957 3 7V25C3 25.5304 3.21071 26.0391 3.58579 26.4142C3.96086 26.7893 4.46957 27 5 27H27C27.5304 27 28.0391 26.7893 28.4142 26.4142C28.7893 26.0391 29 25.5304 29 25V7C29 6.46957 28.7893 5.96086 28.4142 5.58579C28.0391 5.21071 27.5304 5 27 5ZM12.4513 22.1075C12.6883 22.2267 12.8683 22.4351 12.9516 22.687C13.0349 22.9389 13.0148 23.2136 12.8956 23.4506C12.7764 23.6877 12.568 23.8676 12.3161 23.951C12.0642 24.0343 11.7895 24.0142 11.5525 23.895C10.1528 23.1112 8.99092 21.9638 8.18958 20.5741C7.38823 19.1844 6.97723 17.604 7 16C6.97723 14.396 7.38823 12.8156 8.18958 11.4259C8.99092 10.0362 10.1528 8.8888 11.5525 8.105C11.6699 8.04607 11.7977 8.01083 11.9287 8.0013C12.0597 7.99177 12.1912 8.00814 12.3159 8.04946C12.4406 8.09078 12.5559 8.15625 12.6552 8.24214C12.7546 8.32802 12.8361 8.43263 12.895 8.55C12.9539 8.66737 12.9892 8.7952 12.9987 8.92618C13.0082 9.05717 12.9919 9.18875 12.9505 9.31341C12.9092 9.43808 12.8437 9.55338 12.7579 9.65274C12.672 9.7521 12.5674 9.83357 12.45 9.8925C12.2962 9.9725 9 11.72 9 16C9 20.28 12.31 22.035 12.4513 22.1075ZM20.4513 23.895C20.2139 24.0137 19.9391 24.0332 19.6873 23.9493C19.4356 23.8654 19.2274 23.6849 19.1087 23.4475C18.9901 23.2101 18.9705 22.9353 19.0545 22.6836C19.1384 22.4318 19.3189 22.2237 19.5562 22.105C19.6938 22.035 23.0037 20.29 23.0037 16C23.0037 11.71 19.6938 9.965 19.5525 9.8925C19.3155 9.77332 19.1355 9.56486 19.0521 9.31297C18.9688 9.06109 18.9889 8.78641 19.1081 8.54937C19.2273 8.31234 19.4358 8.13235 19.6877 8.04902C19.9395 7.96568 20.2142 7.98582 20.4513 8.105C21.8502 8.88929 23.0114 10.0369 23.812 11.4266C24.6127 12.8162 25.0231 14.3963 25 16C25.0228 17.604 24.6118 19.1844 23.8104 20.5741C23.0091 21.9638 21.8472 23.1112 20.4475 23.895H20.4513Z" fill="white"/>
<path d="M50.2913 27.7737C50.1896 27.943 50.0556 28.0905 49.8969 28.2079C49.7381 28.3252 49.5578 28.4101 49.3661 28.4576C49.1745 28.505 48.9754 28.5143 48.7802 28.4846C48.5851 28.455 48.3977 28.3872 48.2288 28.285C48 28.145 42.5 24.75 42.5 16C42.5 7.24999 48 3.85499 48.2288 3.71499C48.5684 3.52323 48.9695 3.47134 49.3468 3.57034C49.7241 3.66933 50.048 3.91142 50.2498 4.24526C50.4516 4.5791 50.5154 4.97842 50.4277 5.35851C50.34 5.73861 50.1077 6.06959 49.78 6.28124C49.5887 6.40124 45.5 9.03874 45.5 16C45.5 22.9612 49.6062 25.61 49.7812 25.7187C50.1208 25.9241 50.3651 26.2557 50.4607 26.6409C50.5563 27.0261 50.4954 27.4334 50.2913 27.7737ZM63.7712 3.71499C63.6026 3.60801 63.4144 3.53577 63.2175 3.5025C63.0206 3.46923 62.8191 3.47561 62.6247 3.52126C62.4303 3.56691 62.247 3.65091 62.0855 3.76834C61.924 3.88577 61.7875 4.03426 61.6842 4.20511C61.5808 4.37596 61.5126 4.56572 61.4836 4.76328C61.4545 4.96083 61.4652 5.16219 61.515 5.35557C61.5648 5.54894 61.6527 5.73042 61.7735 5.88938C61.8944 6.04833 62.0457 6.18156 62.2188 6.28124C62.3937 6.38999 66.5 9.02374 66.5 16C66.5 22.9762 62.3938 25.61 62.2288 25.7125C62.056 25.8119 61.9048 25.9446 61.784 26.1031C61.6632 26.2615 61.5751 26.4425 61.525 26.6353C61.4749 26.8282 61.4637 27.0291 61.4921 27.2263C61.5204 27.4236 61.5878 27.6132 61.6903 27.7841C61.7928 27.955 61.9283 28.1037 62.0889 28.2217C62.2495 28.3396 62.432 28.4244 62.6257 28.471C62.8194 28.5177 63.0205 28.5252 63.2172 28.4933C63.4139 28.4613 63.6022 28.3905 63.7712 28.285C64 28.145 69.5 24.75 69.5 16C69.5 7.24999 64 3.85499 63.7712 3.71499Z" fill="white"/>
</g>
<defs>
<clipPath id="clip0_27_3493">
<rect width="72" height="32" rx="5" fill="white"/>
</clipPath>
</defs>
</svg>
