<svg width="72" height="32" viewBox="0 0 72 32" fill="none" xmlns="http://www.w3.org/2000/svg">
<g clip-path="url(#clip0_27_3488)">
<path d="M27 5H5C4.46957 5 3.96086 5.21071 3.58579 5.58579C3.21071 5.96086 3 6.46957 3 7V25C3 25.5304 3.21071 26.0391 3.58579 26.4142C3.96086 26.7893 4.46957 27 5 27H27C27.5304 27 28.0391 26.7893 28.4142 26.4142C28.7893 26.0391 29 25.5304 29 25V7C29 6.46957 28.7893 5.96086 28.4142 5.58579C28.0391 5.21071 27.5304 5 27 5ZM11 19.48C11.0363 21.2625 11.0513 22 13 22C13.2652 22 13.5196 22.1054 13.7071 22.2929C13.8946 22.4804 14 22.7348 14 23C14 23.2652 13.8946 23.5196 13.7071 23.7071C13.5196 23.8946 13.2652 24 13 24C9.09125 24 9.035 21.1963 9 19.52C8.96375 17.7375 8.94875 17 7 17C6.73478 17 6.48043 16.8946 6.29289 16.7071C6.10536 16.5196 6 16.2652 6 16C6 15.7348 6.10536 15.4804 6.29289 15.2929C6.48043 15.1054 6.73478 15 7 15C8.94875 15 8.96375 14.2625 9 12.48C9.035 10.8037 9.09125 8 13 8C13.2652 8 13.5196 8.10536 13.7071 8.29289C13.8946 8.48043 14 8.73478 14 9C14 9.26522 13.8946 9.51957 13.7071 9.70711C13.5196 9.89464 13.2652 10 13 10C11.0513 10 11.0363 10.7375 11 12.52C10.9788 13.5588 10.9488 15.0312 10 16C10.9488 16.9688 10.9788 18.4412 11 19.48ZM25 17C23.0513 17 23.0362 17.7375 23 19.52C22.965 21.1963 22.9088 24 19 24C18.7348 24 18.4804 23.8946 18.2929 23.7071C18.1054 23.5196 18 23.2652 18 23C18 22.7348 18.1054 22.4804 18.2929 22.2929C18.4804 22.1054 18.7348 22 19 22C20.9487 22 20.9638 21.2625 21 19.48C21.0212 18.4412 21.0513 16.9688 22 16C21.05 15.0312 21.02 13.5588 21 12.52C20.9638 10.7375 20.9487 10 19 10C18.7348 10 18.4804 9.89464 18.2929 9.70711C18.1054 9.51957 18 9.26522 18 9C18 8.73478 18.1054 8.48043 18.2929 8.29289C18.4804 8.10536 18.7348 8 19 8C22.9088 8 22.965 10.8037 23 12.48C23.0362 14.2625 23.0513 15 25 15C25.2652 15 25.5196 15.1054 25.7071 15.2929C25.8946 15.4804 26 15.7348 26 16C26 16.2652 25.8946 16.5196 25.7071 16.7071C25.5196 16.8946 25.2652 17 25 17Z" fill="white"/>
<path d="M46.85 14.9362C46.6639 15.3242 46.4218 15.6826 46.1312 16C46.4218 16.3174 46.6639 16.6758 46.85 17.0637C47.5 18.405 47.5 19.9788 47.5 21.5C47.5 24.7425 47.73 25.5 50 25.5C50.3978 25.5 50.7794 25.658 51.0607 25.9393C51.342 26.2206 51.5 26.6022 51.5 27C51.5 27.3978 51.342 27.7794 51.0607 28.0607C50.7794 28.342 50.3978 28.5 50 28.5C47.6075 28.5 45.975 27.6375 45.15 25.9363C44.5 24.595 44.5 23.0212 44.5 21.5C44.5 18.2575 44.27 17.5 42 17.5C41.6022 17.5 41.2206 17.342 40.9393 17.0607C40.658 16.7794 40.5 16.3978 40.5 16C40.5 15.6022 40.658 15.2206 40.9393 14.9393C41.2206 14.658 41.6022 14.5 42 14.5C44.27 14.5 44.5 13.7425 44.5 10.5C44.5 8.97875 44.5 7.405 45.15 6.06375C45.975 4.3625 47.6075 3.5 50 3.5C50.3978 3.5 50.7794 3.65804 51.0607 3.93934C51.342 4.22064 51.5 4.60218 51.5 5C51.5 5.39782 51.342 5.77936 51.0607 6.06066C50.7794 6.34196 50.3978 6.5 50 6.5C47.73 6.5 47.5 7.2575 47.5 10.5C47.5 12.0212 47.5 13.595 46.85 14.9362ZM70 14.5C67.73 14.5 67.5 13.7425 67.5 10.5C67.5 8.97875 67.5 7.405 66.85 6.06375C66.025 4.3625 64.3925 3.5 62 3.5C61.6022 3.5 61.2206 3.65804 60.9393 3.93934C60.658 4.22064 60.5 4.60218 60.5 5C60.5 5.39782 60.658 5.77936 60.9393 6.06066C61.2206 6.34196 61.6022 6.5 62 6.5C64.27 6.5 64.5 7.2575 64.5 10.5C64.5 12.0212 64.5 13.595 65.15 14.9362C65.338 15.3246 65.5823 15.683 65.875 16C65.5845 16.3174 65.3423 16.6758 65.1562 17.0637C64.5 18.405 64.5 19.9788 64.5 21.5C64.5 24.7425 64.27 25.5 62 25.5C61.6022 25.5 61.2206 25.658 60.9393 25.9393C60.658 26.2206 60.5 26.6022 60.5 27C60.5 27.3978 60.658 27.7794 60.9393 28.0607C61.2206 28.342 61.6022 28.5 62 28.5C64.3925 28.5 66.025 27.6375 66.85 25.9363C67.5 24.595 67.5 23.0212 67.5 21.5C67.5 18.2575 67.73 17.5 70 17.5C70.3978 17.5 70.7794 17.342 71.0607 17.0607C71.342 16.7794 71.5 16.3978 71.5 16C71.5 15.6022 71.342 15.2206 71.0607 14.9393C70.7794 14.658 70.3978 14.5 70 14.5Z" fill="white"/>
</g>
<defs>
<clipPath id="clip0_27_3488">
<rect width="72" height="32" rx="5" fill="white"/>
</clipPath>
</defs>
</svg>
