<svg width="72" height="32" viewBox="0 0 72 32" fill="none" xmlns="http://www.w3.org/2000/svg">
<g clip-path="url(#clip0_27_4941)">
<path d="M26.5006 9.5V9C26.4993 7.91656 26.178 6.85764 25.5771 5.95612C24.9761 5.0546 24.1223 4.35065 23.1228 3.9326C22.1233 3.51454 21.0225 3.40101 19.9587 3.60625C18.8949 3.81149 17.9154 4.32636 17.1431 5.08625C17.0974 5.13229 17.0613 5.18693 17.0368 5.247C17.0124 5.30707 17.0001 5.37139 17.0006 5.43625V16.5263C17.0008 16.6164 17.0254 16.7048 17.0718 16.7821C17.1182 16.8594 17.1846 16.9227 17.264 16.9654C17.3434 17.0081 17.4329 17.0285 17.5229 17.0244C17.613 17.0204 17.7003 16.9921 17.7756 16.9425C18.7265 16.3328 19.831 16.0059 20.9606 16C21.2221 15.9951 21.4754 16.0907 21.6687 16.2669C21.8619 16.4431 21.9802 16.6867 21.9993 16.9475C22.0065 17.0832 21.9859 17.2189 21.9388 17.3463C21.8918 17.4738 21.8193 17.5903 21.7257 17.6888C21.6321 17.7873 21.5194 17.8657 21.3945 17.9192C21.2697 17.9727 21.1352 18.0002 20.9993 18C19.9385 18 18.9211 18.4214 18.1709 19.1716C17.4208 19.9217 16.9993 20.9391 16.9993 22V26.235C16.9992 26.3098 17.0159 26.3837 17.0481 26.4512C17.0804 26.5187 17.1273 26.5781 17.1856 26.625C17.8952 27.2123 18.7307 27.628 19.6271 27.8398C20.5235 28.0516 21.4567 28.0539 22.3541 27.8464C23.2516 27.6388 24.089 27.2272 24.8015 26.6433C25.5139 26.0595 26.0821 25.3192 26.4618 24.48C26.5001 24.3956 26.5141 24.3023 26.5024 24.2104C26.4906 24.1185 26.4536 24.0316 26.3954 23.9595C26.3372 23.8875 26.2601 23.833 26.1727 23.8022C26.0854 23.7713 25.9911 23.7654 25.9006 23.785C25.2773 23.9278 24.64 24 24.0006 24H23.0343C22.7763 24.0032 22.5267 23.9087 22.3354 23.7355C22.1442 23.5624 22.0255 23.3233 22.0031 23.0662C21.994 22.9295 22.0131 22.7923 22.0593 22.6632C22.1055 22.5341 22.1777 22.4159 22.2715 22.3159C22.3653 22.2159 22.4786 22.1363 22.6045 22.0819C22.7303 22.0276 22.866 21.9997 23.0031 22H24.0031C25.0479 22.0016 26.0774 21.7494 27.0031 21.265C28.0994 20.694 29.0101 19.8223 29.6285 18.7521C30.247 17.6819 30.5474 16.4576 30.4947 15.2226C30.4419 13.9877 30.0382 12.7934 29.3308 11.7798C28.6233 10.7663 27.6416 9.9754 26.5006 9.5ZM25.0006 14H24.5006C23.3071 14 22.1625 13.5259 21.3186 12.682C20.4747 11.8381 20.0006 10.6935 20.0006 9.5V9C20.0006 8.73478 20.1059 8.48043 20.2935 8.29289C20.481 8.10536 20.7354 8 21.0006 8C21.2658 8 21.5202 8.10536 21.7077 8.29289C21.8952 8.48043 22.0006 8.73478 22.0006 9V9.5C22.0006 9.82831 22.0653 10.1534 22.1909 10.4567C22.3165 10.76 22.5007 11.0356 22.7328 11.2678C23.2017 11.7366 23.8375 12 24.5006 12H25.0006C25.2658 12 25.5202 12.1054 25.7077 12.2929C25.8952 12.4804 26.0006 12.7348 26.0006 13C26.0006 13.2652 25.8952 13.5196 25.7077 13.7071C25.5202 13.8946 25.2658 14 25.0006 14ZM11.0006 3.5C9.5424 3.50165 8.14442 4.08165 7.11333 5.11274C6.08224 6.14383 5.50224 7.54182 5.50059 9V9.5C4.35975 9.97565 3.37818 10.7667 2.67099 11.7805C1.9638 12.7942 1.5603 13.9885 1.50782 15.2234C1.45533 16.4583 1.75604 17.6826 2.37467 18.7527C2.99331 19.8228 3.90422 20.6943 5.00059 21.265C5.9263 21.7494 6.95582 22.0016 8.00059 22H8.96684C9.22526 21.9962 9.47553 22.0904 9.66732 22.2636C9.85911 22.4368 9.97818 22.6763 10.0006 22.9338C10.0097 23.0705 9.99053 23.2077 9.94436 23.3368C9.89819 23.4659 9.82597 23.5841 9.73219 23.6841C9.63841 23.7841 9.52507 23.8637 9.39922 23.9181C9.27336 23.9724 9.13767 24.0003 9.00059 24H8.00059C7.36069 24.0003 6.72283 23.9277 6.09934 23.7838C6.00885 23.764 5.91467 23.7698 5.82727 23.8004C5.73988 23.8311 5.66272 23.8854 5.6044 23.9574C5.54607 24.0293 5.50887 24.116 5.49694 24.2079C5.48501 24.2997 5.49882 24.3931 5.53684 24.4775C5.9165 25.3169 6.48463 26.0574 7.19706 26.6415C7.90949 27.2256 8.74703 27.6376 9.64456 27.8453C10.5421 28.0531 11.4755 28.0511 12.3721 27.8394C13.2687 27.6278 14.1045 27.2122 14.8143 26.625C14.8726 26.5781 14.9195 26.5187 14.9518 26.4512C14.984 26.3837 15.0007 26.3098 15.0006 26.235V22C15.0006 20.9391 14.5792 19.9217 13.829 19.1716C13.0789 18.4214 12.0615 18 11.0006 18C10.8647 18.0002 10.7303 17.9727 10.6054 17.9192C10.4805 17.8657 10.3678 17.7873 10.2743 17.6888C10.1807 17.5903 10.1081 17.4738 10.0611 17.3463C10.014 17.2189 9.99345 17.0832 10.0006 16.9475C10.0197 16.6865 10.1382 16.4427 10.3317 16.2665C10.5252 16.0902 10.7789 15.9948 11.0406 16C12.1701 16.0059 13.2747 16.3328 14.2256 16.9425C14.3009 16.9921 14.3882 17.0204 14.4782 17.0244C14.5683 17.0285 14.6578 17.0081 14.7372 16.9654C14.8166 16.9227 14.883 16.8594 14.9294 16.7821C14.9757 16.7048 15.0003 16.6164 15.0006 16.5263V5.43625C15.001 5.305 14.9498 5.17884 14.8581 5.085C13.8313 4.06903 12.445 3.49942 11.0006 3.5ZM12.0006 9.5C12.0006 10.6935 11.5265 11.8381 10.6826 12.682C9.83865 13.5259 8.69406 14 7.50059 14H7.00059C6.73537 14 6.48102 13.8946 6.29348 13.7071C6.10594 13.5196 6.00059 13.2652 6.00059 13C6.00059 12.7348 6.10594 12.4804 6.29348 12.2929C6.48102 12.1054 6.73537 12 7.00059 12H7.50059C7.82889 12 8.15398 11.9353 8.4573 11.8097C8.76061 11.6841 9.03621 11.4999 9.26835 11.2678C9.5005 11.0356 9.68465 10.76 9.81029 10.4567C9.93592 10.1534 10.0006 9.82831 10.0006 9.5V9C10.0006 8.73478 10.1059 8.48043 10.2935 8.29289C10.481 8.10536 10.7354 8 11.0006 8C11.2658 8 11.5202 8.10536 11.7077 8.29289C11.8952 8.48043 12.0006 8.73478 12.0006 9V9.5Z" fill="white"/>
<path d="M71.5009 15.5C71.4994 14.1351 71.1262 12.7964 70.4215 11.6275C69.7168 10.4586 68.7072 9.50364 67.5009 8.86501C67.4729 7.54018 67.0405 6.25559 66.2619 5.18337C65.4832 4.11115 64.3954 3.30252 63.1443 2.86586C61.8932 2.42919 60.5385 2.38535 59.2618 2.7402C57.9851 3.09504 56.8473 3.83163 56.0009 4.85126C55.1546 3.83163 54.0168 3.09504 52.7401 2.7402C51.4634 2.38535 50.1087 2.42919 48.8576 2.86586C47.6064 3.30252 46.5187 4.11115 45.74 5.18337C44.9614 6.25559 44.529 7.54018 44.5009 8.86501C43.2935 9.50191 42.2827 10.4563 41.5777 11.6253C40.8726 12.7943 40.5 14.1336 40.5 15.4988C40.5 16.8639 40.8726 18.2032 41.5777 19.3722C42.2827 20.5412 43.2935 21.4956 44.5009 22.1325C44.5285 23.4575 44.9605 24.7425 45.739 25.8151C46.5175 26.8877 47.6052 27.6967 48.8564 28.1337C50.1076 28.5706 51.4625 28.6147 52.7395 28.2599C54.0165 27.9052 55.1545 27.1685 56.0009 26.1488C56.8474 27.1685 57.9854 27.9052 59.2624 28.2599C60.5394 28.6147 61.8943 28.5706 63.1455 28.1337C64.3967 27.6967 65.4844 26.8877 66.2629 25.8151C67.0414 24.7425 67.4733 23.4575 67.5009 22.1325C68.7076 21.495 69.7177 20.5407 70.4225 19.372C71.1273 18.2034 71.5001 16.8647 71.5009 15.5ZM51.0009 25.5C50.2457 25.4999 49.5108 25.2555 48.9059 24.8034C48.301 24.3512 47.8586 23.7155 47.6447 22.9913C47.7697 22.9913 47.8809 23 48.0009 23H49.0009C49.3988 23 49.7803 22.842 50.0616 22.5607C50.3429 22.2794 50.5009 21.8978 50.5009 21.5C50.5009 21.1022 50.3429 20.7207 50.0616 20.4393C49.7803 20.158 49.3988 20 49.0009 20H48.0009C46.9389 20.0007 45.9107 19.6258 45.0985 18.9415C44.2862 18.2572 43.7422 17.3077 43.5626 16.2609C43.383 15.2141 43.5795 14.1375 44.1172 13.2216C44.655 12.3057 45.4993 11.6095 46.5009 11.2563C46.7935 11.1528 47.0468 10.9612 47.2259 10.7077C47.405 10.4543 47.5011 10.1516 47.5009 9.84126V9.00001C47.5009 8.07175 47.8697 7.18151 48.5261 6.52513C49.1825 5.86875 50.0727 5.50001 51.0009 5.50001C51.9292 5.50001 52.8194 5.86875 53.4758 6.52513C54.1322 7.18151 54.5009 8.07175 54.5009 9.00001V16.5225C54.2141 16.3386 53.9132 16.1777 53.6009 16.0413C53.2363 15.8821 52.8233 15.8744 52.4529 16.0197C52.0826 16.1651 51.7851 16.4516 51.6259 16.8163C51.4668 17.1809 51.4591 17.5939 51.6044 17.9643C51.7498 18.3346 52.0363 18.6321 52.4009 18.7913C53.1385 19.1125 53.7428 19.6781 54.1123 20.3927C54.4817 21.1074 54.5937 21.9275 54.4293 22.715C54.265 23.5025 53.8344 24.2094 53.2099 24.7166C52.5855 25.2239 51.8054 25.5005 51.0009 25.5ZM64.0009 20H63.0009C62.6031 20 62.2216 20.158 61.9403 20.4393C61.659 20.7207 61.5009 21.1022 61.5009 21.5C61.5009 21.8978 61.659 22.2794 61.9403 22.5607C62.2216 22.842 62.6031 23 63.0009 23H64.0009C64.1259 23 64.2384 23 64.3572 22.9913C64.1906 23.556 63.8842 24.0695 63.4664 24.4844C63.0486 24.8993 62.5329 25.202 61.967 25.3647C61.4012 25.5273 60.8034 25.5445 60.2291 25.4148C59.6548 25.2851 59.1225 25.0126 58.6815 24.6225C58.2404 24.2324 57.9049 23.7374 57.706 23.1832C57.5071 22.6291 57.4512 22.0337 57.5435 21.4522C57.6358 20.8707 57.8733 20.3218 58.2341 19.8565C58.5948 19.3912 59.0671 19.0244 59.6072 18.79C59.9719 18.6309 60.2584 18.3334 60.4037 17.963C60.5491 17.5926 60.5413 17.1797 60.3822 16.815C60.2231 16.4503 59.9256 16.1638 59.5552 16.0185C59.1848 15.8731 58.7719 15.8809 58.4072 16.04C58.095 16.1764 57.794 16.3373 57.5072 16.5213V9.00001C57.5072 8.07175 57.8759 7.18151 58.5323 6.52513C59.1887 5.86875 60.0789 5.50001 61.0072 5.50001C61.9355 5.50001 62.8257 5.86875 63.4821 6.52513C64.1384 7.18151 64.5072 8.07175 64.5072 9.00001V9.84126C64.507 10.1516 64.6031 10.4543 64.7822 10.7077C64.9613 10.9612 65.2146 11.1528 65.5072 11.2563C66.5133 11.6063 67.3626 12.302 67.9039 13.2195C68.4453 14.1369 68.6436 15.2167 68.4636 16.2666C68.2836 17.3166 67.737 18.2687 66.921 18.9534C66.1049 19.6382 65.0725 20.0113 64.0072 20.0063L64.0009 20ZM66.0009 14.5C66.0009 14.8978 65.8429 15.2794 65.5616 15.5607C65.2803 15.842 64.8988 16 64.5009 16C63.1749 16 61.9031 15.4732 60.9654 14.5355C60.0277 13.5979 59.5009 12.3261 59.5009 11V10.5C59.5009 10.1022 59.659 9.72065 59.9403 9.43934C60.2216 9.15804 60.6031 9.00001 61.0009 9.00001C61.3988 9.00001 61.7803 9.15804 62.0616 9.43934C62.3429 9.72065 62.5009 10.1022 62.5009 10.5V11C62.5009 11.5304 62.7117 12.0391 63.0867 12.4142C63.4618 12.7893 63.9705 13 64.5009 13C64.8988 13 65.2803 13.158 65.5616 13.4393C65.8429 13.7206 66.0009 14.1022 66.0009 14.5ZM52.5009 11C52.5009 12.3261 51.9742 13.5979 51.0365 14.5355C50.0988 15.4732 48.827 16 47.5009 16C47.1031 16 46.7216 15.842 46.4403 15.5607C46.159 15.2794 46.0009 14.8978 46.0009 14.5C46.0009 14.1022 46.159 13.7206 46.4403 13.4393C46.7216 13.158 47.1031 13 47.5009 13C48.0314 13 48.5401 12.7893 48.9152 12.4142C49.2902 12.0391 49.5009 11.5304 49.5009 11V10.5C49.5009 10.1022 49.659 9.72065 49.9403 9.43934C50.2216 9.15804 50.6031 9.00001 51.0009 9.00001C51.3988 9.00001 51.7803 9.15804 52.0616 9.43934C52.3429 9.72065 52.5009 10.1022 52.5009 10.5V11Z" fill="white"/>
</g>
<defs>
<clipPath id="clip0_27_4941">
<rect width="72" height="32" rx="5" fill="white"/>
</clipPath>
</defs>
</svg>
