<svg width="72" height="32" viewBox="0 0 72 32" fill="none" xmlns="http://www.w3.org/2000/svg">
<g clip-path="url(#clip0_27_876)">
<path d="M28 11C28.0032 8.67559 27.3285 6.40068 26.0588 4.45375C25.9679 4.31444 25.8437 4.19998 25.6975 4.12075C25.5513 4.04152 25.3876 4.00002 25.2213 4H6.77876C6.61244 4.00002 6.44875 4.04152 6.30252 4.12075C6.15628 4.19998 6.03211 4.31444 5.94126 4.45375C4.67148 6.40068 3.99687 8.67559 4.00001 11C4.00365 14.0084 5.13572 16.9059 7.17246 19.1199C9.2092 21.334 12.0024 22.7034 15 22.9575V27H11C10.7348 27 10.4804 27.1054 10.2929 27.2929C10.1054 27.4804 10 27.7348 10 28C10 28.2652 10.1054 28.5196 10.2929 28.7071C10.4804 28.8946 10.7348 29 11 29H21C21.2652 29 21.5196 28.8946 21.7071 28.7071C21.8947 28.5196 22 28.2652 22 28C22 27.7348 21.8947 27.4804 21.7071 27.2929C21.5196 27.1054 21.2652 27 21 27H17V22.9575C19.9976 22.7034 22.7908 21.334 24.8276 19.1199C26.8643 16.9059 27.9964 14.0084 28 11ZM7.33751 6H24.6625C25.3718 7.22635 25.8108 8.59015 25.95 10H6.05001C6.18922 8.59015 6.6282 7.22635 7.33751 6Z" fill="white"/>
<path d="M68.5 11C68.503 8.57881 67.8002 6.20924 66.4775 4.18125C66.3419 3.97305 66.1566 3.8018 65.9385 3.68289C65.7203 3.56398 65.476 3.50113 65.2275 3.5H46.7788C46.5303 3.50113 46.286 3.56398 46.0678 3.68289C45.8496 3.8018 45.6644 3.97305 45.5288 4.18125C44.2039 6.20856 43.4989 8.57817 43.5 11C43.504 14.0544 44.6245 17.0019 46.6505 19.2876C48.6765 21.5733 51.4682 23.0395 54.5 23.41V26.5H51C50.6022 26.5 50.2206 26.658 49.9393 26.9393C49.658 27.2206 49.5 27.6022 49.5 28C49.5 28.3978 49.658 28.7794 49.9393 29.0607C50.2206 29.342 50.6022 29.5 51 29.5H61C61.3978 29.5 61.7794 29.342 62.0607 29.0607C62.342 28.7794 62.5 28.3978 62.5 28C62.5 27.6022 62.342 27.2206 62.0607 26.9393C61.7794 26.658 61.3978 26.5 61 26.5H57.5V23.41C60.5318 23.0395 63.3235 21.5733 65.3495 19.2876C67.3756 17.0019 68.496 14.0544 68.5 11ZM47.6313 6.5H64.375C64.8792 7.43578 65.2215 8.45008 65.3875 9.5H46.625C46.789 8.45046 47.1292 7.43618 47.6313 6.5ZM56.0063 20.5C53.7485 20.4956 51.5659 19.6885 49.8485 18.223C48.1311 16.7574 46.9907 14.7289 46.6313 12.5H65.375C65.0155 14.7289 63.8752 16.7574 62.1578 18.223C60.4403 19.6885 58.2577 20.4956 56 20.5H56.0063Z" fill="white"/>
</g>
<defs>
<clipPath id="clip0_27_876">
<rect width="72" height="32" rx="5" fill="white"/>
</clipPath>
</defs>
</svg>
