<svg width="72" height="32" viewBox="0 0 72 32" fill="none" xmlns="http://www.w3.org/2000/svg">
<g clip-path="url(#clip0_27_886)">
<path d="M29 20H28V15.0625C28.2038 15.1637 28.4112 15.2587 28.625 15.345C28.8698 15.4393 29.1418 15.4337 29.3825 15.3293C29.6232 15.2249 29.8132 15.0301 29.9116 14.7869C30.0099 14.5437 30.0088 14.2716 29.9085 14.0293C29.8081 13.7869 29.6165 13.5937 29.375 13.4913C28.0799 12.9714 26.9706 12.0748 26.1906 10.9175C25.4106 9.76026 24.9959 8.39556 25 7C25 6.73478 24.8946 6.48043 24.7071 6.29289C24.5196 6.10536 24.2652 6 24 6C23.7348 6 23.4804 6.10536 23.2929 6.29289C23.1054 6.48043 23 6.73478 23 7C23 8.85652 22.2625 10.637 20.9497 11.9497C19.637 13.2625 17.8565 14 16 14C14.1435 14 12.363 13.2625 11.0503 11.9497C9.7375 10.637 9 8.85652 9 7C9 6.73478 8.89464 6.48043 8.70711 6.29289C8.51957 6.10536 8.26522 6 8 6C7.73478 6 7.48043 6.10536 7.29289 6.29289C7.10536 6.48043 7 6.73478 7 7C7.00413 8.39556 6.58938 9.76026 5.8094 10.9175C5.02942 12.0748 3.92012 12.9714 2.625 13.4913C2.38349 13.5937 2.1919 13.7869 2.09154 14.0293C1.99117 14.2716 1.99006 14.5437 2.08845 14.7869C2.18683 15.0301 2.37684 15.2249 2.6175 15.3293C2.85817 15.4337 3.13021 15.4393 3.375 15.345C3.58875 15.2587 3.79625 15.1637 4 15.0625V20H3.075C2.28625 20 2 20.5975 2 21C2 21.2652 2.10536 21.5196 2.29289 21.7071C2.48043 21.8946 2.73478 22 3 22H7V25C7 25.2652 7.10536 25.5196 7.29289 25.7071C7.48043 25.8946 7.73478 26 8 26C8.26522 26 8.51957 25.8946 8.70711 25.7071C8.89464 25.5196 9 25.2652 9 25V22H23V25C23 25.2652 23.1054 25.5196 23.2929 25.7071C23.4804 25.8946 23.7348 26 24 26C24.2652 26 24.5196 25.8946 24.7071 25.7071C24.8946 25.5196 25 25.2652 25 25V22H29C29.2652 22 29.5196 21.8946 29.7071 21.7071C29.8946 21.5196 30 21.2652 30 21C30 20.7348 29.8946 20.4804 29.7071 20.2929C29.5196 20.1054 29.2652 20 29 20ZM9 19C9 19.2652 8.89464 19.5196 8.70711 19.7071C8.51957 19.8946 8.26522 20 8 20C7.73478 20 7.48043 19.8946 7.29289 19.7071C7.10536 19.5196 7 19.2652 7 19V13.015C7 12.7498 7.10536 12.4954 7.29289 12.3079C7.48043 12.1204 7.73478 12.015 8 12.015C8.26522 12.015 8.51957 12.1204 8.70711 12.3079C8.89464 12.4954 9 12.7498 9 13.015V19ZM14 19C14 19.2652 13.8946 19.5196 13.7071 19.7071C13.5196 19.8946 13.2652 20 13 20C12.7348 20 12.4804 19.8946 12.2929 19.7071C12.1054 19.5196 12 19.2652 12 19V16.54C12 16.2748 12.1054 16.0204 12.2929 15.8329C12.4804 15.6454 12.7348 15.54 13 15.54C13.2652 15.54 13.5196 15.6454 13.7071 15.8329C13.8946 16.0204 14 16.2748 14 16.54V19ZM20 19C20 19.2652 19.8946 19.5196 19.7071 19.7071C19.5196 19.8946 19.2652 20 19 20C18.7348 20 18.4804 19.8946 18.2929 19.7071C18.1054 19.5196 18 19.2652 18 19V16.54C18 16.2748 18.1054 16.0204 18.2929 15.8329C18.4804 15.6454 18.7348 15.54 19 15.54C19.2652 15.54 19.5196 15.6454 19.7071 15.8329C19.8946 16.0204 20 16.2748 20 16.54V19ZM25 19C25 19.2652 24.8946 19.5196 24.7071 19.7071C24.5196 19.8946 24.2652 20 24 20C23.7348 20 23.4804 19.8946 23.2929 19.7071C23.1054 19.5196 23 19.2652 23 19V13.015C23 12.7498 23.1054 12.4954 23.2929 12.3079C23.4804 12.1204 23.7348 12.015 24 12.015C24.2652 12.015 24.5196 12.1204 24.7071 12.3079C24.8946 12.4954 25 12.7498 25 13.015V19Z" fill="white"/>
<path d="M69.0001 19.5H65.5001V13.9362C66.3556 14.736 67.3509 15.3716 68.4363 15.8112C68.619 15.8851 68.8143 15.9223 69.0113 15.9207C69.2083 15.919 69.403 15.8786 69.5844 15.8017C69.7658 15.7248 69.9302 15.6129 70.0683 15.4725C70.2065 15.332 70.3156 15.1657 70.3895 14.9831C70.4633 14.8005 70.5005 14.6051 70.4989 14.4081C70.4972 14.2112 70.4568 14.0164 70.3799 13.8351C70.303 13.6537 70.1911 13.4892 70.0507 13.3511C69.9102 13.213 69.744 13.1039 69.5613 13.03C68.3587 12.5467 67.3288 11.7137 66.6048 10.6386C65.8807 9.56362 65.4959 8.29609 65.5001 7C65.5001 6.60218 65.342 6.22064 65.0607 5.93934C64.7794 5.65804 64.3979 5.5 64.0001 5.5C63.6023 5.5 63.2207 5.65804 62.9394 5.93934C62.6581 6.22064 62.5001 6.60218 62.5001 7C62.5001 8.72391 61.8153 10.3772 60.5963 11.5962C59.3773 12.8152 57.724 13.5 56.0001 13.5C54.2762 13.5 52.6229 12.8152 51.4039 11.5962C50.1849 10.3772 49.5001 8.72391 49.5001 7C49.5001 6.60218 49.342 6.22064 49.0607 5.93934C48.7794 5.65804 48.3979 5.5 48.0001 5.5C47.6023 5.5 47.2207 5.65804 46.9394 5.93934C46.6581 6.22064 46.5001 6.60218 46.5001 7C46.5037 8.29581 46.1184 9.5629 45.3942 10.6374C44.67 11.712 43.64 12.5445 42.4376 13.0275C42.0688 13.1767 41.7743 13.4663 41.619 13.8326C41.4637 14.1988 41.4603 14.6118 41.6095 14.9806C41.7586 15.3494 42.0482 15.6439 42.4145 15.7992C42.7808 15.9545 43.1938 15.9579 43.5626 15.8088C44.648 15.3691 45.6433 14.7335 46.4988 13.9338V19.5H43.0001C42.6023 19.5 42.2207 19.658 41.9394 19.9393C41.6581 20.2206 41.5001 20.6022 41.5001 21C41.5001 21.3978 41.6581 21.7794 41.9394 22.0607C42.2207 22.342 42.6023 22.5 43.0001 22.5H46.5001V25C46.5001 25.3978 46.6581 25.7794 46.9394 26.0607C47.2207 26.342 47.6023 26.5 48.0001 26.5C48.3979 26.5 48.7794 26.342 49.0607 26.0607C49.342 25.7794 49.5001 25.3978 49.5001 25V22.5H62.5001V25C62.5001 25.3978 62.6581 25.7794 62.9394 26.0607C63.2207 26.342 63.6023 26.5 64.0001 26.5C64.3979 26.5 64.7794 26.342 65.0607 26.0607C65.342 25.7794 65.5001 25.3978 65.5001 25V22.5H69.0001C69.3979 22.5 69.7794 22.342 70.0607 22.0607C70.342 21.7794 70.5001 21.3978 70.5001 21C70.5001 20.6022 70.342 20.2206 70.0607 19.9393C69.7794 19.658 69.3979 19.5 69.0001 19.5ZM57.5001 16.3813V19.5H54.5001V16.3813C55.4938 16.5396 56.5064 16.5396 57.5001 16.3813ZM49.5001 13.9225C50.1017 14.4873 50.774 14.9717 51.5001 15.3638V19.5H49.5001V13.9225ZM60.5001 19.5V15.3638C61.2262 14.9717 61.8984 14.4873 62.5001 13.9225V19.5H60.5001Z" fill="white"/>
</g>
<defs>
<clipPath id="clip0_27_886">
<rect width="72" height="32" rx="5" fill="white"/>
</clipPath>
</defs>
</svg>
