<svg width="72" height="32" viewBox="0 0 72 32" fill="none" xmlns="http://www.w3.org/2000/svg">
<g clip-path="url(#clip0_27_6941)">
<path d="M3.5 14H28.5C28.6326 14 28.7598 14.0527 28.8536 14.1464C28.9473 14.2402 29 14.3674 29 14.5V19.5C29 19.6326 28.9473 19.7598 28.8536 19.8536C28.7598 19.9473 28.6326 20 28.5 20H3.5C3.36739 20 3.24021 19.9473 3.14645 19.8536C3.05268 19.7598 3 19.6326 3 19.5V14.5C3 14.3674 3.05268 14.2402 3.14645 14.1464C3.24021 14.0527 3.36739 14 3.5 14ZM3 25C3 25.5304 3.21071 26.0391 3.58579 26.4142C3.96086 26.7893 4.46957 27 5 27H27C27.5304 27 28.0391 26.7893 28.4142 26.4142C28.7893 26.0391 29 25.5304 29 25V22.5C29 22.3674 28.9473 22.2402 28.8536 22.1464C28.7598 22.0527 28.6326 22 28.5 22H3.5C3.36739 22 3.24021 22.0527 3.14645 22.1464C3.05268 22.2402 3 22.3674 3 22.5V25ZM29 9V11.5C29 11.6326 28.9473 11.7598 28.8536 11.8536C28.7598 11.9473 28.6326 12 28.5 12H3.5C3.36739 12 3.24021 11.9473 3.14645 11.8536C3.05268 11.7598 3 11.6326 3 11.5V9C3 8.46957 3.21071 7.96086 3.58579 7.58579C3.96086 7.21071 4.46957 7 5 7H10V6C10 5.20435 10.3161 4.44129 10.8787 3.87868C11.4413 3.31607 12.2044 3 13 3H19C19.7956 3 20.5587 3.31607 21.1213 3.87868C21.6839 4.44129 22 5.20435 22 6V7H27C27.5304 7 28.0391 7.21071 28.4142 7.58579C28.7893 7.96086 29 8.46957 29 9ZM20 6C20 5.73478 19.8946 5.48043 19.7071 5.29289C19.5196 5.10536 19.2652 5 19 5H13C12.7348 5 12.4804 5.10536 12.2929 5.29289C12.1054 5.48043 12 5.73478 12 6V7H20V6Z" fill="white"/>
<path d="M67 6.5H62.5V5C62.5 4.07174 62.1313 3.1815 61.4749 2.52513C60.8185 1.86875 59.9283 1.5 59 1.5H53C52.0717 1.5 51.1815 1.86875 50.5251 2.52513C49.8687 3.1815 49.5 4.07174 49.5 5V6.5H45C44.337 6.5 43.7011 6.76339 43.2322 7.23223C42.7634 7.70107 42.5 8.33696 42.5 9V25C42.5 25.663 42.7634 26.2989 43.2322 26.7678C43.7011 27.2366 44.337 27.5 45 27.5H67C67.663 27.5 68.2989 27.2366 68.7678 26.7678C69.2366 26.2989 69.5 25.663 69.5 25V9C69.5 8.33696 69.2366 7.70107 68.7678 7.23223C68.2989 6.76339 67.663 6.5 67 6.5ZM45.5 15H66.5V19H45.5V15ZM52.5 5C52.5 4.86739 52.5527 4.74021 52.6464 4.64645C52.7402 4.55268 52.8674 4.5 53 4.5H59C59.1326 4.5 59.2598 4.55268 59.3536 4.64645C59.4473 4.74021 59.5 4.86739 59.5 5V6.5H52.5V5ZM66.5 9.5V12H45.5V9.5H66.5ZM45.5 24.5V22H66.5V24.5H45.5Z" fill="white"/>
</g>
<defs>
<clipPath id="clip0_27_6941">
<rect width="72" height="32" rx="5" fill="white"/>
</clipPath>
</defs>
</svg>
