<svg width="72" height="32" viewBox="0 0 72 32" fill="none" xmlns="http://www.w3.org/2000/svg">
<g clip-path="url(#clip0_27_425)">
<path d="M20.9999 16C20.9999 16.9889 20.7067 17.9556 20.1573 18.7779C19.6079 19.6001 18.827 20.241 17.9134 20.6194C16.9997 20.9978 15.9944 21.0969 15.0245 20.9039C14.0546 20.711 13.1637 20.2348 12.4644 19.5355C11.7651 18.8363 11.2889 17.9454 11.096 16.9755C10.9031 16.0055 11.0021 15.0002 11.3805 14.0866C11.759 13.173 12.3998 12.3921 13.2221 11.8427C14.0443 11.2932 15.011 11 15.9999 11C17.326 11 18.5978 11.5268 19.5355 12.4645C20.4732 13.4021 20.9999 14.6739 20.9999 16ZM25.9999 16C26.003 13.5398 25.096 11.1655 23.4537 9.33375C23.3668 9.23351 23.2608 9.15156 23.142 9.09268C23.0231 9.0338 22.8937 8.99916 22.7613 8.99078C22.6289 8.9824 22.4961 9.00044 22.3708 9.04386C22.2454 9.08728 22.13 9.15521 22.0311 9.24369C21.9323 9.33216 21.852 9.43942 21.7951 9.55922C21.7381 9.67902 21.7055 9.80896 21.6992 9.94147C21.6929 10.074 21.7131 10.2064 21.7585 10.3311C21.8039 10.4557 21.8737 10.5701 21.9637 10.6675C23.2755 12.1342 24.0007 14.0329 24.0007 16.0006C24.0007 17.9683 23.2755 19.867 21.9637 21.3337C21.7918 21.5321 21.7047 21.79 21.7213 22.052C21.7379 22.3139 21.8568 22.5588 22.0523 22.7339C22.2479 22.9089 22.5044 23.0001 22.7666 22.9877C23.0288 22.9752 23.2756 22.8603 23.4537 22.6675C25.0958 20.8352 26.0027 18.4605 25.9999 16ZM10.0362 10.6675C10.1262 10.5701 10.196 10.4557 10.2414 10.3311C10.2868 10.2064 10.307 10.074 10.3007 9.94147C10.2944 9.80896 10.2618 9.67902 10.2048 9.55922C10.1479 9.43942 10.0676 9.33216 9.96876 9.24369C9.86991 9.15521 9.75445 9.08728 9.6291 9.04386C9.50375 9.00044 9.37101 8.9824 9.23861 8.99078C9.10622 8.99916 8.97682 9.0338 8.85794 9.09268C8.73906 9.15156 8.63309 9.23351 8.5462 9.33375C6.90469 11.1664 5.997 13.5403 5.997 16.0006C5.997 18.461 6.90469 20.8348 8.5462 22.6675C8.72433 22.8603 8.97111 22.9752 9.23328 22.9877C9.49545 23.0001 9.75199 22.9089 9.94755 22.7339C10.1431 22.5588 10.262 22.3139 10.2786 22.052C10.2952 21.79 10.2081 21.5321 10.0362 21.3337C8.72314 19.8677 7.99709 17.9687 7.99709 16.0006C7.99709 14.0325 8.72314 12.1336 10.0362 10.6675ZM29.8212 10.1675C29.0893 8.42942 28.0349 6.84568 26.7137 5.5C26.6226 5.40263 26.513 5.32446 26.3913 5.27008C26.2696 5.21569 26.1382 5.1862 26.0049 5.18332C25.8716 5.18045 25.7391 5.20425 25.6152 5.25334C25.4912 5.30242 25.3783 5.37579 25.2832 5.46914C25.188 5.56249 25.1124 5.67392 25.0609 5.79689C25.0095 5.91987 24.9831 6.05189 24.9834 6.18521C24.9836 6.31852 25.0106 6.45044 25.0626 6.57319C25.1146 6.69594 25.1906 6.80706 25.2862 6.9C27.6696 9.3283 29.0049 12.595 29.0049 15.9975C29.0049 19.4 27.6696 22.6667 25.2862 25.095C25.1939 25.1887 25.1211 25.2997 25.0717 25.4216C25.0223 25.5435 24.9975 25.6739 24.9985 25.8055C24.9995 25.937 25.0265 26.067 25.0778 26.1881C25.1291 26.3092 25.2037 26.419 25.2974 26.5112C25.3912 26.6035 25.5022 26.6764 25.6241 26.7258C25.746 26.7751 25.8764 26.8 26.0079 26.7989C26.1394 26.7979 26.2694 26.771 26.3905 26.7197C26.5116 26.6684 26.6214 26.5937 26.7137 26.5C28.784 24.3858 30.1834 21.7071 30.7363 18.8002C31.2892 15.8933 30.9708 12.8878 29.8212 10.1612V10.1675ZM4.02119 21.06C3.022 18.698 2.74449 16.093 3.22365 13.5735C3.70281 11.054 4.9172 8.73281 6.7137 6.9025C6.89968 6.7132 7.00285 6.45777 7.0005 6.19241C6.99816 5.92705 6.89049 5.67348 6.7012 5.4875C6.5119 5.30152 6.25647 5.19835 5.99111 5.20069C5.72574 5.20304 5.47218 5.3107 5.2862 5.5C2.53393 8.30191 0.991821 12.0724 0.991821 16C0.991821 19.9276 2.53393 23.6981 5.2862 26.5C5.37726 26.5974 5.48688 26.6755 5.6086 26.7299C5.73031 26.7843 5.86168 26.8138 5.99496 26.8167C6.12825 26.8196 6.26076 26.7957 6.38471 26.7467C6.50866 26.6976 6.62154 26.6242 6.71672 26.5309C6.81191 26.4375 6.88746 26.3261 6.93895 26.2031C6.99043 26.0801 7.01681 25.9481 7.01653 25.8148C7.01624 25.6815 6.98931 25.5496 6.9373 25.4268C6.8853 25.3041 6.80927 25.1929 6.7137 25.1C5.56955 23.9351 4.656 22.5644 4.02119 21.06Z" fill="white"/>
<path d="M56 10.5C54.9122 10.5 53.8488 10.8226 52.9443 11.4269C52.0399 12.0313 51.3349 12.8903 50.9186 13.8952C50.5023 14.9002 50.3934 16.0061 50.6056 17.073C50.8179 18.1399 51.3417 19.1199 52.1109 19.8891C52.8801 20.6583 53.8601 21.1821 54.927 21.3943C55.9939 21.6065 57.0997 21.4976 58.1047 21.0813C59.1097 20.6651 59.9687 19.9601 60.573 19.0556C61.1774 18.1512 61.5 17.0878 61.5 16C61.4983 14.5418 60.9183 13.1438 59.8872 12.1127C58.8561 11.0817 57.4581 10.5017 56 10.5ZM56 18.5C55.5055 18.5 55.0222 18.3534 54.611 18.0787C54.1999 17.804 53.8795 17.4135 53.6903 16.9567C53.501 16.4999 53.4515 15.9972 53.548 15.5123C53.6445 15.0273 53.8826 14.5819 54.2322 14.2322C54.5818 13.8826 55.0273 13.6445 55.5122 13.548C55.9972 13.4516 56.4999 13.5011 56.9567 13.6903C57.4135 13.8795 57.8039 14.2 58.0786 14.6111C58.3533 15.0222 58.5 15.5056 58.5 16C58.5 16.663 58.2366 17.2989 57.7677 17.7678C57.2989 18.2366 56.663 18.5 56 18.5ZM65.6737 20.0875C65.2228 21.1536 64.5985 22.1377 63.8262 23C63.561 23.2966 63.1888 23.4756 62.7916 23.4977C62.3944 23.5199 62.0046 23.3834 61.7081 23.1181C61.4115 22.8529 61.2325 22.4808 61.2104 22.0835C61.1882 21.6863 61.3248 21.2966 61.59 21C62.8219 19.626 63.5032 17.8455 63.5032 16C63.5032 14.1546 62.8219 12.3741 61.59 11C61.3248 10.7035 61.1882 10.3137 61.2104 9.91648C61.2325 9.51926 61.4115 9.1471 61.7081 8.88188C62.0046 8.61667 62.3944 8.48011 62.7916 8.50227C63.1888 8.52442 63.561 8.70346 63.8262 9.00001C65.1523 10.4836 66.0299 12.3132 66.357 14.276C66.684 16.2388 66.4471 18.2541 65.6737 20.0875ZM50.41 21C50.6752 21.2966 50.8117 21.6863 50.7896 22.0835C50.7674 22.4808 50.5884 22.8529 50.2918 23.1181C49.9953 23.3834 49.6055 23.5199 49.2083 23.4977C48.8111 23.4756 48.4389 23.2966 48.1737 23C46.4503 21.0757 45.4974 18.5832 45.4974 16C45.4974 13.4168 46.4503 10.9243 48.1737 9.00001C48.4389 8.70346 48.8111 8.52442 49.2083 8.50227C49.6055 8.48011 49.9953 8.61667 50.2918 8.88188C50.5884 9.1471 50.7674 9.51926 50.7896 9.91648C50.8117 10.3137 50.6752 10.7035 50.41 11C49.178 12.3741 48.4967 14.1546 48.4967 16C48.4967 17.8455 49.178 19.626 50.41 21ZM71.5 16C71.5048 20.057 69.9141 23.9532 67.0712 26.8475C66.9354 26.996 66.771 27.1156 66.588 27.1992C66.405 27.2828 66.207 27.3287 66.0058 27.3343C65.8047 27.3398 65.6045 27.3048 65.4171 27.2313C65.2298 27.1579 65.0591 27.0475 64.9153 26.9067C64.7715 26.7659 64.6575 26.5976 64.5801 26.4119C64.5027 26.2261 64.4634 26.0267 64.4647 25.8255C64.4659 25.6243 64.5077 25.4254 64.5874 25.2406C64.6671 25.0558 64.7832 24.889 64.9287 24.75C67.2226 22.4153 68.5079 19.2731 68.5079 16C68.5079 12.7269 67.2226 9.58475 64.9287 7.25001C64.6502 6.96589 64.496 6.58279 64.5 6.18498C64.504 5.78717 64.6659 5.40723 64.95 5.12876C65.2341 4.85028 65.6172 4.69607 66.015 4.70006C66.4128 4.70404 66.7927 4.86589 67.0712 5.15001C69.9147 8.04495 71.5055 11.9422 71.5 16ZM47.0712 24.75C47.3497 25.0341 47.5039 25.4172 47.4999 25.815C47.4959 26.2128 47.3341 26.5928 47.05 26.8713C46.7659 27.1497 46.3828 27.3039 45.9849 27.3C45.5871 27.296 45.2072 27.1341 44.9287 26.85C42.0869 23.9545 40.4949 20.0595 40.4949 16.0025C40.4949 11.9455 42.0869 8.05047 44.9287 5.15501C45.211 4.89269 45.5835 4.74911 45.9689 4.75403C46.3542 4.75894 46.7229 4.91199 46.9984 5.18142C47.274 5.45085 47.4352 5.816 47.4488 6.20114C47.4623 6.58629 47.3271 6.96187 47.0712 7.25001C44.7773 9.58475 43.492 12.7269 43.492 16C43.492 19.2731 44.7773 22.4153 47.0712 24.75Z" fill="white"/>
</g>
<defs>
<clipPath id="clip0_27_425">
<rect width="72" height="32" rx="5" fill="white"/>
</clipPath>
</defs>
</svg>
