<svg width="72" height="32" viewBox="0 0 72 32" fill="none" xmlns="http://www.w3.org/2000/svg">
<g clip-path="url(#clip0_27_891)">
<path d="M29.4113 27.0875C26.6075 25.7113 25 22.765 25 19V16.8363C25.0011 16.4355 24.8813 16.0438 24.6563 15.7122C24.4313 15.3806 24.1115 15.1246 23.7388 14.9775L20.1575 13.545C19.9122 13.4468 19.7157 13.2554 19.611 13.0128C19.5063 12.7701 19.5019 12.4959 19.5988 12.25L22.3888 5.16626C23 3.59876 22.25 1.77626 20.6675 1.18876C19.9309 0.914809 19.1162 0.940875 18.3985 1.26135C17.6809 1.58183 17.1177 2.17112 16.83 2.90251L14.0313 10.01C13.983 10.1326 13.911 10.2444 13.8195 10.3391C13.7279 10.4338 13.6185 10.5094 13.4975 10.5617C13.3766 10.6139 13.2466 10.6418 13.1149 10.6437C12.9832 10.6455 12.8524 10.6213 12.73 10.5725L9.13878 9.13501C8.77221 8.98662 8.36972 8.95089 7.98274 9.03238C7.59577 9.11388 7.24187 9.30889 6.96628 9.59251C4.33503 12.3 3.00003 15.4638 3.00003 19C2.99315 22.6129 4.38913 26.0874 6.89378 28.6913C6.9884 28.7896 7.10201 28.8676 7.22771 28.9207C7.35341 28.9738 7.48858 29.0007 7.62503 29H29C29.255 29.0005 29.5005 28.9036 29.6863 28.7291C29.8722 28.5546 29.9844 28.3157 30 28.0613C30.0089 27.859 29.9577 27.6586 29.853 27.4853C29.7482 27.312 29.5945 27.1736 29.4113 27.0875ZM14.3888 27C12.9094 25.5806 11.8586 23.774 11.3563 21.7863C11.2957 21.5359 11.1431 21.3174 10.9289 21.1743C10.7147 21.0312 10.4545 20.9739 10.2 21.0138C10.0645 21.0382 9.93544 21.0904 9.82101 21.1671C9.70659 21.2438 9.60924 21.3433 9.53507 21.4594C9.4609 21.5754 9.4115 21.7056 9.38999 21.8416C9.36847 21.9777 9.37529 22.1167 9.41003 22.25C9.84674 23.972 10.6274 25.5877 11.705 27H8.05503C6.08358 24.8022 4.99534 21.9525 5.00003 19C4.98769 17.4352 5.31747 15.8866 5.96628 14.4625L23.1913 21.3538C23.5663 23.6113 24.51 25.5413 25.9275 27.0025L14.3888 27Z" fill="white"/>
<path d="M69.655 26.6512C67.015 25.375 65.5 22.58 65.5 19V16.8412C65.5011 16.3402 65.3511 15.8505 65.0697 15.436C64.7883 15.0215 64.3886 14.7014 63.9225 14.5175L60.815 13.2912C60.693 13.2427 60.595 13.1481 60.5421 13.0279C60.4892 12.9077 60.4858 12.7715 60.5325 12.6487L63.1988 6.02374C63.4035 5.52729 63.5062 4.9947 63.5007 4.45772C63.4952 3.92074 63.3816 3.39037 63.1667 2.89822C62.9519 2.40607 62.6401 1.96223 62.25 1.59315C61.8599 1.22408 61.3995 0.937325 60.8963 0.749993C59.9153 0.388993 58.8322 0.424684 57.8771 0.849483C56.922 1.27428 56.1702 2.05472 55.7813 3.02499L55.7725 3.04749L53.1475 9.68374C53.1236 9.74515 53.0876 9.80112 53.0417 9.84836C52.9957 9.8956 52.9407 9.93313 52.88 9.95874C52.8211 9.98476 52.7577 9.99882 52.6933 10.0001C52.6289 10.0014 52.5649 9.98988 52.505 9.96624L49.325 8.67874C48.8668 8.49309 48.3636 8.44828 47.8798 8.55003C47.3959 8.65179 46.9534 8.89549 46.6088 9.24999C43.8825 12.0537 42.5 15.335 42.5 19C42.4931 22.7426 43.9403 26.3416 46.5363 29.0375C46.6769 29.1844 46.846 29.3011 47.0331 29.3806C47.2203 29.4601 47.4217 29.5007 47.625 29.5H69C69.3392 29.4997 69.6682 29.3844 69.9335 29.173C70.1987 28.9617 70.3845 28.6666 70.4605 28.3361C70.5365 28.0056 70.4982 27.659 70.3519 27.353C70.2057 27.0471 69.96 26.7997 69.655 26.6512ZM48.5238 11.5912L51.3825 12.75C51.8103 12.9212 52.2677 13.0063 52.7284 13.0003C53.1891 12.9944 53.6441 12.8975 54.0673 12.7153C54.4905 12.5331 54.8736 12.2691 55.1945 11.9385C55.5155 11.6079 55.768 11.2172 55.9375 10.7887L58.5563 4.16374C58.6546 3.91805 58.8429 3.71908 59.0828 3.60737C59.3227 3.49566 59.5962 3.47961 59.8475 3.56249C59.9737 3.60924 60.0892 3.68098 60.1871 3.77342C60.2849 3.86587 60.363 3.97711 60.4168 4.10048C60.4707 4.22385 60.499 4.35681 60.5002 4.4914C60.5014 4.62599 60.4754 4.75944 60.4238 4.88374C60.4236 4.88832 60.4236 4.89291 60.4238 4.89749L57.75 11.5362C57.4101 12.3986 57.4255 13.3604 57.7928 14.2114C58.1601 15.0624 58.8494 15.7333 59.71 16.0775L62.5 17.1812V19C62.5 19.125 62.5 19.2587 62.5063 19.3875L47.2013 13.2625C47.5947 12.6694 48.037 12.1104 48.5238 11.5912ZM54.5925 26.5C53.2462 25.1561 52.2916 23.4707 51.8313 21.625C51.7318 21.2396 51.4833 20.9095 51.1405 20.7073C50.7977 20.5051 50.3885 20.4474 50.0031 20.5469C49.6178 20.6463 49.2877 20.8948 49.0855 21.2376C48.8833 21.5805 48.8256 21.9896 48.925 22.375C49.2985 23.84 49.9104 25.2336 50.7363 26.5H48.2813C46.482 24.4161 45.4945 21.7532 45.5 19C45.495 17.98 45.6386 16.9648 45.9263 15.9862L63.01 22.8187C63.3769 24.1509 63.9956 25.4005 64.8325 26.5H54.5925Z" fill="white"/>
</g>
<defs>
<clipPath id="clip0_27_891">
<rect width="72" height="32" rx="5" fill="white"/>
</clipPath>
</defs>
</svg>
