<svg width="72" height="32" viewBox="0 0 72 32" fill="none" xmlns="http://www.w3.org/2000/svg">
<g clip-path="url(#clip0_27_2505)">
<path d="M27 5H9C8.46957 5 7.96086 5.21071 7.58579 5.58579C7.21071 5.96086 7 6.46957 7 7V9H5C4.46957 9 3.96086 9.21071 3.58579 9.58579C3.21071 9.96086 3 10.4696 3 11V25C3 25.5304 3.21071 26.0391 3.58579 26.4142C3.96086 26.7893 4.46957 27 5 27H23C23.5304 27 24.0391 26.7893 24.4142 26.4142C24.7893 26.0391 25 25.5304 25 25V23H27C27.5304 23 28.0391 22.7893 28.4142 22.4142C28.7893 22.0391 29 21.5304 29 21V7C29 6.46957 28.7893 5.96086 28.4142 5.58579C28.0391 5.21071 27.5304 5 27 5ZM23 11V13H5V11H23ZM27 21H25V11C25 10.4696 24.7893 9.96086 24.4142 9.58579C24.0391 9.21071 23.5304 9 23 9H9V7H27V21Z" fill="white"/>
<path d="M67.5 4H49.5C48.837 4 48.2011 4.26339 47.7322 4.73223C47.2634 5.20107 47 5.83696 47 6.5V9H44.5C43.837 9 43.2011 9.26339 42.7322 9.73223C42.2634 10.2011 42 10.837 42 11.5V25.5C42 26.163 42.2634 26.7989 42.7322 27.2678C43.2011 27.7366 43.837 28 44.5 28H62.5C63.163 28 63.7989 27.7366 64.2678 27.2678C64.7366 26.7989 65 26.163 65 25.5V23H67.5C68.163 23 68.7989 22.7366 69.2678 22.2678C69.7366 21.7989 70 21.163 70 20.5V6.5C70 5.83696 69.7366 5.20107 69.2678 4.73223C68.7989 4.26339 68.163 4 67.5 4ZM62 12V14H45V12H62ZM62 25H45V17H62V25ZM67 20H65V11.5C65 10.837 64.7366 10.2011 64.2678 9.73223C63.7989 9.26339 63.163 9 62.5 9H50V7H67V20Z" fill="white"/>
</g>
<defs>
<clipPath id="clip0_27_2505">
<rect width="72" height="32" rx="5" fill="white"/>
</clipPath>
</defs>
</svg>
