<svg width="72" height="32" viewBox="0 0 72 32" fill="none" xmlns="http://www.w3.org/2000/svg">
<g clip-path="url(#clip0_27_3503)">
<path d="M21 11.5C21 11.7967 20.912 12.0867 20.7472 12.3334C20.5824 12.58 20.3481 12.7723 20.074 12.8858C19.7999 12.9993 19.4983 13.0291 19.2074 12.9712C18.9164 12.9133 18.6491 12.7704 18.4393 12.5607C18.2296 12.3509 18.0867 12.0836 18.0288 11.7926C17.9709 11.5017 18.0007 11.2001 18.1142 10.926C18.2277 10.6519 18.42 10.4176 18.6666 10.2528C18.9133 10.088 19.2033 10 19.5 10C19.8978 10 20.2794 10.158 20.5607 10.4393C20.842 10.7206 21 11.1022 21 11.5ZM12.5 10C12.2033 10 11.9133 10.088 11.6666 10.2528C11.42 10.4176 11.2277 10.6519 11.1142 10.926C11.0006 11.2001 10.9709 11.5017 11.0288 11.7926C11.0867 12.0836 11.2296 12.3509 11.4393 12.5607C11.6491 12.7704 11.9164 12.9133 12.2074 12.9712C12.4983 13.0291 12.7999 12.9993 13.074 12.8858C13.3481 12.7723 13.5824 12.58 13.7472 12.3334C13.912 12.0867 14 11.7967 14 11.5C14 11.1022 13.842 10.7206 13.5607 10.4393C13.2794 10.158 12.8978 10 12.5 10ZM27 18C27.0028 18.9707 26.8766 19.9375 26.625 20.875L29.405 22.09C29.6121 22.1843 29.7808 22.3465 29.8833 22.5496C29.9858 22.7528 30.0159 22.9849 29.9687 23.2075C29.9215 23.4301 29.7998 23.6299 29.6237 23.774C29.4476 23.9181 29.2276 23.9978 29 24C28.8623 24.0003 28.726 23.9718 28.6 23.9162L25.9225 22.75C25.0267 24.622 23.6197 26.2023 21.8639 27.3086C20.1082 28.4149 18.0752 29.0019 16 29.0019C13.9248 29.0019 11.8918 28.4149 10.1361 27.3086C8.38028 26.2023 6.97326 24.622 6.0775 22.75L3.4 23.9162C3.27398 23.9718 3.13772 24.0003 3 24C2.77037 23.9999 2.54778 23.9207 2.36963 23.7758C2.19148 23.6309 2.06863 23.4291 2.02171 23.2043C1.97478 22.9795 2.00665 22.7455 2.11196 22.5414C2.21727 22.3373 2.3896 22.1757 2.6 22.0837L5.375 20.875C5.12335 19.9375 4.99725 18.9707 5 18V17H2C1.73478 17 1.48043 16.8946 1.29289 16.7071C1.10536 16.5196 1 16.2652 1 16C1 15.7348 1.10536 15.4804 1.29289 15.2929C1.48043 15.1054 1.73478 15 2 15H5V14C4.99725 13.0293 5.12335 12.0625 5.375 11.125L2.6 9.91625C2.4768 9.86566 2.36495 9.79099 2.271 9.69659C2.17706 9.6022 2.10291 9.48999 2.05292 9.36655C2.00293 9.24311 1.9781 9.11093 1.97989 8.97776C1.98167 8.8446 2.01004 8.71313 2.06332 8.59108C2.11661 8.46902 2.19374 8.35884 2.29018 8.267C2.38662 8.17516 2.50044 8.10351 2.62495 8.05625C2.74946 8.00899 2.88215 7.98708 3.01525 7.9918C3.14834 7.99653 3.27915 8.02778 3.4 8.08375L6.0775 9.25C6.97326 7.37803 8.38028 5.79765 10.1361 4.69137C11.8918 3.58509 13.9248 2.99805 16 2.99805C18.0752 2.99805 20.1082 3.58509 21.8639 4.69137C23.6197 5.79765 25.0267 7.37803 25.9225 9.25L28.6 8.08C28.8418 7.98072 29.1129 7.98007 29.3552 8.07819C29.5975 8.17631 29.7917 8.3654 29.8963 8.60497C30.0009 8.84453 30.0075 9.11553 29.9147 9.35991C29.822 9.6043 29.6372 9.80266 29.4 9.9125L26.625 11.1312C26.8766 12.0688 27.0028 13.0355 27 14.0062V15.0062H30C30.2652 15.0062 30.5196 15.1116 30.7071 15.2991C30.8946 15.4867 31 15.741 31 16.0062C31 16.2715 30.8946 16.5258 30.7071 16.7134C30.5196 16.9009 30.2652 17.0062 30 17.0062H27V18ZM17 18C17 17.7348 16.8946 17.4804 16.7071 17.2929C16.5196 17.1054 16.2652 17 16 17C15.7348 17 15.4804 17.1054 15.2929 17.2929C15.1054 17.4804 15 17.7348 15 18V26C15 26.2652 15.1054 26.5196 15.2929 26.7071C15.4804 26.8946 15.7348 27 16 27C16.2652 27 16.5196 26.8946 16.7071 26.7071C16.8946 26.5196 17 26.2652 17 26V18ZM25 14C25 11.613 24.0518 9.32386 22.364 7.63603C20.6761 5.94821 18.3869 5 16 5C13.6131 5 11.3239 5.94821 9.63604 7.63603C7.94821 9.32386 7 11.613 7 14V15H25V14Z" fill="white"/>
<path d="M57.5 11C57.5 10.6044 57.6173 10.2178 57.8371 9.88886C58.0568 9.55996 58.3692 9.30361 58.7346 9.15224C59.1001 9.00086 59.5022 8.96126 59.8902 9.03843C60.2781 9.1156 60.6345 9.30608 60.9142 9.58578C61.1939 9.86549 61.3844 10.2219 61.4616 10.6098C61.5387 10.9978 61.4991 11.3999 61.3478 11.7654C61.1964 12.1308 60.94 12.4432 60.6111 12.6629C60.2822 12.8827 59.8956 13 59.5 13C58.9696 13 58.4609 12.7893 58.0858 12.4142C57.7107 12.0391 57.5 11.5304 57.5 11ZM52.5 9C52.1044 9 51.7178 9.1173 51.3889 9.33706C51.06 9.55682 50.8036 9.86918 50.6522 10.2346C50.5009 10.6001 50.4613 11.0022 50.5384 11.3902C50.6156 11.7781 50.8061 12.1345 51.0858 12.4142C51.3655 12.6939 51.7219 12.8844 52.1098 12.9616C52.4978 13.0387 52.8999 12.9991 53.2654 12.8478C53.6308 12.6964 53.9432 12.44 54.1629 12.1111C54.3827 11.7822 54.5 11.3956 54.5 11C54.5 10.4696 54.2893 9.96086 53.9142 9.58578C53.5391 9.21071 53.0304 9 52.5 9ZM67.5 18C67.5004 18.8683 67.4023 19.7338 67.2075 20.58L69.6012 21.625C69.7818 21.704 69.9451 21.8177 70.0817 21.9598C70.2183 22.1018 70.3256 22.2694 70.3974 22.4529C70.4693 22.6364 70.5043 22.8323 70.5004 23.0293C70.4966 23.2263 70.454 23.4207 70.375 23.6012C70.296 23.7818 70.1823 23.9451 70.0402 24.0817C69.8982 24.2183 69.7306 24.3256 69.5471 24.3974C69.3636 24.4693 69.1677 24.5043 68.9707 24.5004C68.7737 24.4966 68.5793 24.454 68.3988 24.375L66.1488 23.3937C65.169 25.2362 63.7065 26.7773 61.9178 27.8521C60.1291 28.9268 58.0817 29.4945 55.995 29.4945C53.9083 29.4945 51.8609 28.9268 50.0722 27.8521C48.2835 26.7773 46.821 25.2362 45.8412 23.3937L43.5912 24.375C43.4107 24.454 43.2163 24.4966 43.0193 24.5004C42.8223 24.5043 42.6264 24.4693 42.4429 24.3974C42.2594 24.3256 42.0918 24.2183 41.9498 24.0817C41.8077 23.9451 41.694 23.7818 41.615 23.6012C41.536 23.4207 41.4934 23.2263 41.4896 23.0293C41.4857 22.8323 41.5207 22.6364 41.5926 22.4529C41.6644 22.2694 41.7717 22.1018 41.9083 21.9598C42.0449 21.8177 42.2082 21.704 42.3888 21.625L44.7825 20.58C44.5911 19.7334 44.4963 18.8679 44.5 18V17.5H42C41.6022 17.5 41.2206 17.342 40.9393 17.0607C40.658 16.7794 40.5 16.3978 40.5 16C40.5 15.6022 40.658 15.2206 40.9393 14.9393C41.2206 14.658 41.6022 14.5 42 14.5H44.5V14C44.4996 13.1317 44.5977 12.2662 44.7925 11.42L42.3988 10.375C42.0341 10.2155 41.7477 9.91774 41.6026 9.54712C41.4575 9.1765 41.4655 8.76342 41.625 8.39875C41.7845 8.03407 42.0823 7.74768 42.4529 7.60258C42.8235 7.45747 43.2366 7.46554 43.6012 7.625L45.8513 8.60625C46.831 6.76381 48.2935 5.22266 50.0822 4.14794C51.8709 3.07323 53.9183 2.50545 56.005 2.50545C58.0917 2.50545 60.1391 3.07323 61.9278 4.14794C63.7165 5.22266 65.179 6.76381 66.1588 8.60625L68.4088 7.625C68.5893 7.54604 68.7837 7.50342 68.9807 7.49957C69.1777 7.49573 69.3736 7.53073 69.5571 7.60258C69.7406 7.67443 69.9082 7.78172 70.0502 7.91833C70.1923 8.05493 70.306 8.21818 70.385 8.39875C70.464 8.57932 70.5066 8.77367 70.5104 8.9707C70.5143 9.16774 70.4793 9.36361 70.4074 9.54712C70.3356 9.73063 70.2283 9.8982 70.0917 10.0402C69.9551 10.1823 69.7918 10.296 69.6112 10.375L67.2175 11.42C67.4089 12.2666 67.5037 13.1321 67.5 14V14.5H70C70.3978 14.5 70.7794 14.658 71.0607 14.9393C71.342 15.2206 71.5 15.6022 71.5 16C71.5 16.3978 71.342 16.7794 71.0607 17.0607C70.7794 17.342 70.3978 17.5 70 17.5H67.5V18ZM47.5 14.5H64.5V14C64.5 11.7457 63.6045 9.58365 62.0104 7.98959C60.4163 6.39553 58.2543 5.5 56 5.5C53.7457 5.5 51.5837 6.39553 49.9896 7.98959C48.3955 9.58365 47.5 11.7457 47.5 14V14.5ZM54.5 26.365V17.5H47.5V18C47.5028 19.9932 48.205 21.9223 49.4842 23.4509C50.7634 24.9796 52.5385 26.0108 54.5 26.365ZM64.5 18V17.5H57.5V26.365C59.4615 26.0108 61.2366 24.9796 62.5158 23.4509C63.795 21.9223 64.4972 19.9932 64.5 18Z" fill="white"/>
</g>
<defs>
<clipPath id="clip0_27_3503">
<rect width="72" height="32" rx="5" fill="white"/>
</clipPath>
</defs>
</svg>
