<svg width="72" height="32" viewBox="0 0 72 32" fill="none" xmlns="http://www.w3.org/2000/svg">
<g clip-path="url(#clip0_27_3508)">
<path d="M28 15H26V13H28C28.2652 13 28.5196 13.1054 28.7071 13.2929C28.8946 13.4804 29 13.7348 29 14C29 14.2652 28.8946 14.5196 28.7071 14.7071C28.5196 14.8946 28.2652 15 28 15ZM4 13C3.73478 13 3.48043 13.1054 3.29289 13.2929C3.10536 13.4804 3 13.7348 3 14C3 14.2652 3.10536 14.5196 3.29289 14.7071C3.48043 14.8946 3.73478 15 4 15H6V13H4ZM26 20C26 20.3375 25.9825 20.6713 25.95 21H28C28.2652 21 28.5196 21.1054 28.7071 21.2929C28.8946 21.4804 29 21.7348 29 22C29 22.2652 28.8946 22.5196 28.7071 22.7071C28.5196 22.8947 28.2652 23 28 23H25.54C24.9019 25.0304 23.6327 26.8043 21.9169 28.0636C20.2011 29.3229 18.1283 30.0019 16 30.0019C13.8717 30.0019 11.7989 29.3229 10.0831 28.0636C8.36733 26.8043 7.09808 25.0304 6.46 23H4C3.73478 23 3.48043 22.8947 3.29289 22.7071C3.10536 22.5196 3 22.2652 3 22C3 21.7348 3.10536 21.4804 3.29289 21.2929C3.48043 21.1054 3.73478 21 4 21H6.05C6.0175 20.6713 6 20.3375 6 20V19H4C3.73478 19 3.48043 18.8947 3.29289 18.7071C3.10536 18.5196 3 18.2652 3 18C3 17.7348 3.10536 17.4804 3.29289 17.2929C3.48043 17.1054 3.73478 17 4 17H6V15H26V17H28C28.2652 17 28.5196 17.1054 28.7071 17.2929C28.8946 17.4804 29 17.7348 29 18C29 18.2652 28.8946 18.5196 28.7071 18.7071C28.5196 18.8947 28.2652 19 28 19H26V20ZM17 18C17 17.7348 16.8946 17.4804 16.7071 17.2929C16.5196 17.1054 16.2652 17 16 17C15.7348 17 15.4804 17.1054 15.2929 17.2929C15.1054 17.4804 15 17.7348 15 18V26C15 26.2652 15.1054 26.5196 15.2929 26.7071C15.4804 26.8947 15.7348 27 16 27C16.2652 27 16.5196 26.8947 16.7071 26.7071C16.8946 26.5196 17 26.2652 17 26V18ZM8.73 7.14376C7.21341 8.74561 6.27088 10.8052 6.05 13H25.95C25.7291 10.8052 24.7866 8.74561 23.27 7.14376L25.7075 4.70751C25.8951 4.51987 26.0006 4.26537 26.0006 4.00001C26.0006 3.73464 25.8951 3.48015 25.7075 3.29251C25.5199 3.10487 25.2654 2.99945 25 2.99945C24.7346 2.99945 24.4801 3.10487 24.2925 3.29251L21.7563 5.83001C20.073 4.63928 18.0619 3.99987 16 3.99987C13.9381 3.99987 11.927 4.63928 10.2437 5.83001L7.7075 3.29251C7.51986 3.10487 7.26536 2.99945 7 2.99945C6.73464 2.99945 6.48014 3.10487 6.2925 3.29251C6.10486 3.48015 5.99944 3.73464 5.99944 4.00001C5.99944 4.26537 6.10486 4.51987 6.2925 4.70751L8.73 7.14376Z" fill="white"/>
<path d="M68 20C68.3978 20 68.7794 19.842 69.0607 19.5607C69.342 19.2794 69.5 18.8978 69.5 18.5C69.5 18.1022 69.342 17.7207 69.0607 17.4393C68.7794 17.158 68.3978 17 68 17H66.5V15H68C68.3978 15 68.7794 14.842 69.0607 14.5607C69.342 14.2794 69.5 13.8978 69.5 13.5C69.5 13.1022 69.342 12.7207 69.0607 12.4393C68.7794 12.158 68.3978 12 68 12H66.3062C65.9585 10.2105 65.1493 8.54296 63.9587 7.16251L66.0613 5.06126C66.343 4.77946 66.5014 4.39727 66.5014 3.99876C66.5014 3.60024 66.343 3.21805 66.0613 2.93626C65.7795 2.65446 65.3973 2.49615 64.9988 2.49615C64.6002 2.49615 64.218 2.65446 63.9363 2.93626L61.6863 5.18626C59.9909 4.08652 58.0133 3.50129 55.9925 3.50129C53.9717 3.50129 51.9941 4.08652 50.2987 5.18626L48.0487 2.93626C47.9092 2.79673 47.7436 2.68605 47.5613 2.61053C47.379 2.53502 47.1836 2.49615 46.9862 2.49615C46.5877 2.49615 46.2055 2.65446 45.9237 2.93626C45.642 3.21805 45.4836 3.60024 45.4836 3.99876C45.4836 4.39727 45.642 4.77946 45.9237 5.06126L48.0413 7.16251C46.8507 8.54296 46.0415 10.2105 45.6937 12H44C43.6022 12 43.2206 12.158 42.9393 12.4393C42.658 12.7207 42.5 13.1022 42.5 13.5C42.5 13.8978 42.658 14.2794 42.9393 14.5607C43.2206 14.842 43.6022 15 44 15H45.5V17H44C43.6022 17 43.2206 17.158 42.9393 17.4393C42.658 17.7207 42.5 18.1022 42.5 18.5C42.5 18.8978 42.658 19.2794 42.9393 19.5607C43.2206 19.842 43.6022 20 44 20H45.5C45.5002 20.6714 45.565 21.3411 45.6937 22H44C43.6022 22 43.2206 22.158 42.9393 22.4393C42.658 22.7207 42.5 23.1022 42.5 23.5C42.5 23.8978 42.658 24.2794 42.9393 24.5607C43.2206 24.842 43.6022 25 44 25H46.7688C47.6699 26.6626 49.0033 28.0509 50.6281 29.0184C52.253 29.9859 54.1089 30.4966 56 30.4966C57.8911 30.4966 59.747 29.9859 61.3719 29.0184C62.9967 28.0509 64.3301 26.6626 65.2313 25H68C68.3978 25 68.7794 24.842 69.0607 24.5607C69.342 24.2794 69.5 23.8978 69.5 23.5C69.5 23.1022 69.342 22.7207 69.0607 22.4393C68.7794 22.158 68.3978 22 68 22H66.3062C66.435 21.3411 66.4998 20.6714 66.5 20H68ZM56 6.50001C57.6399 6.50228 59.234 7.04108 60.539 8.03416C61.844 9.02724 62.7882 10.4201 63.2275 12H48.7725C49.2118 10.4201 50.156 9.02724 51.461 8.03416C52.766 7.04108 54.3601 6.50228 56 6.50001ZM57.5 27.3488V18.5C57.5 18.1022 57.342 17.7207 57.0607 17.4393C56.7794 17.158 56.3978 17 56 17C55.6022 17 55.2206 17.158 54.9393 17.4393C54.658 17.7207 54.5 18.1022 54.5 18.5V27.3488C52.8071 27.001 51.286 26.0802 50.193 24.7415C49.1 23.4028 48.502 21.7282 48.5 20V15H63.5V20C63.498 21.7282 62.9 23.4028 61.807 24.7415C60.714 26.0802 59.1929 27.001 57.5 27.3488Z" fill="white"/>
</g>
<defs>
<clipPath id="clip0_27_3508">
<rect width="72" height="32" rx="5" fill="white"/>
</clipPath>
</defs>
</svg>
