<svg width="72" height="32" viewBox="0 0 72 32" fill="none" xmlns="http://www.w3.org/2000/svg">
<g clip-path="url(#clip0_27_3513)">
<path d="M23.9788 6.43501L25.7075 4.70751C25.8951 4.51987 26.0006 4.26537 26.0006 4.00001C26.0006 3.73464 25.8951 3.48015 25.7075 3.29251C25.5199 3.10487 25.2654 2.99945 25 2.99945C24.7346 2.99945 24.4801 3.10487 24.2925 3.29251L22.4738 5.11251C20.5943 3.73988 18.3273 3.00015 16 3.00015C13.6727 3.00015 11.4057 3.73988 9.52625 5.11251L7.7075 3.29251C7.51986 3.10487 7.26537 2.99945 7 2.99945C6.73464 2.99945 6.48014 3.10487 6.2925 3.29251C6.10486 3.48015 5.99945 3.73464 5.99945 4.00001C5.99945 4.26537 6.10486 4.51987 6.2925 4.70751L8.02125 6.43501C6.0801 8.47515 4.99828 11.1839 5 14V19C5 21.9174 6.15893 24.7153 8.22183 26.7782C10.2847 28.8411 13.0826 30 16 30C18.9174 30 21.7153 28.8411 23.7782 26.7782C25.8411 24.7153 27 21.9174 27 19V14C27.0017 11.1839 25.9199 8.47515 23.9788 6.43501ZM16 5.00001C18.3861 5.00265 20.6738 5.95171 22.361 7.63897C24.0483 9.32622 24.9974 11.6139 25 14V15H7V14C7.00265 11.6139 7.95171 9.32622 9.63896 7.63897C11.3262 5.95171 13.6139 5.00265 16 5.00001ZM18 11.5C18 11.2033 18.088 10.9133 18.2528 10.6667C18.4176 10.42 18.6519 10.2277 18.926 10.1142C19.2001 10.0007 19.5017 9.97095 19.7926 10.0288C20.0836 10.0867 20.3509 10.2296 20.5607 10.4393C20.7704 10.6491 20.9133 10.9164 20.9712 11.2074C21.0291 11.4983 20.9994 11.7999 20.8858 12.074C20.7723 12.3481 20.58 12.5824 20.3334 12.7472C20.0867 12.912 19.7967 13 19.5 13C19.1022 13 18.7206 12.842 18.4393 12.5607C18.158 12.2794 18 11.8978 18 11.5ZM11 11.5C11 11.2033 11.088 10.9133 11.2528 10.6667C11.4176 10.42 11.6519 10.2277 11.926 10.1142C12.2001 10.0007 12.5017 9.97095 12.7926 10.0288C13.0836 10.0867 13.3509 10.2296 13.5607 10.4393C13.7704 10.6491 13.9133 10.9164 13.9712 11.2074C14.0291 11.4983 13.9994 11.7999 13.8858 12.074C13.7723 12.3481 13.58 12.5824 13.3334 12.7472C13.0867 12.912 12.7967 13 12.5 13C12.1022 13 11.7206 12.842 11.4393 12.5607C11.158 12.2794 11 11.8978 11 11.5Z" fill="white"/>
<path d="M64.6688 6.45251L66.0613 5.06126C66.2008 4.92173 66.3115 4.75608 66.387 4.57378C66.4625 4.39147 66.5014 4.19608 66.5014 3.99876C66.5014 3.80143 66.4625 3.60604 66.387 3.42374C66.3115 3.24143 66.2008 3.07579 66.0613 2.93626C65.9217 2.79673 65.7561 2.68605 65.5738 2.61053C65.3915 2.53502 65.1961 2.49615 64.9988 2.49615C64.8014 2.49615 64.606 2.53502 64.4237 2.61053C64.2414 2.68605 64.0758 2.79673 63.9363 2.93626L62.4175 4.46126C60.5214 3.18292 58.2868 2.49998 56 2.49998C53.7132 2.49998 51.4786 3.18292 49.5825 4.46126L48.0613 2.93876C47.7795 2.65696 47.3973 2.49865 46.9988 2.49865C46.6002 2.49865 46.218 2.65696 45.9363 2.93876C45.6545 3.22055 45.4962 3.60274 45.4962 4.00126C45.4962 4.39977 45.6545 4.78196 45.9363 5.06376L47.3313 6.45251C45.5036 8.54185 44.4974 11.2241 44.5 14V19C44.5 22.05 45.7116 24.9751 47.8683 27.1317C50.0249 29.2884 52.95 30.5 56 30.5C59.05 30.5 61.9751 29.2884 64.1317 27.1317C66.2884 24.9751 67.5 22.05 67.5 19V14C67.5026 11.2241 66.4964 8.54185 64.6688 6.45251ZM64.5 14V14.5H47.5V14C47.5 11.7457 48.3955 9.58366 49.9896 7.9896C51.5837 6.39554 53.7457 5.50001 56 5.50001C58.2543 5.50001 60.4164 6.39554 62.0104 7.9896C63.6045 9.58366 64.5 11.7457 64.5 14ZM56 27.5C53.7464 27.4977 51.5857 26.6014 49.9922 25.0079C48.3986 23.4143 47.5023 21.2536 47.5 19V17.5H64.5V19C64.4977 21.2536 63.6014 23.4143 62.0079 25.0079C60.4143 26.6014 58.2536 27.4977 56 27.5ZM57.5 11C57.5 10.6044 57.6173 10.2178 57.8371 9.88887C58.0568 9.55997 58.3692 9.30362 58.7346 9.15225C59.1001 9.00087 59.5022 8.96127 59.8902 9.03844C60.2781 9.11561 60.6345 9.30609 60.9142 9.58579C61.1939 9.8655 61.3844 10.2219 61.4616 10.6098C61.5387 10.9978 61.4991 11.3999 61.3478 11.7654C61.1964 12.1308 60.94 12.4432 60.6111 12.6629C60.2822 12.8827 59.8956 13 59.5 13C58.9696 13 58.4609 12.7893 58.0858 12.4142C57.7107 12.0391 57.5 11.5304 57.5 11ZM50.5 11C50.5 10.6044 50.6173 10.2178 50.8371 9.88887C51.0568 9.55997 51.3692 9.30362 51.7346 9.15225C52.1001 9.00087 52.5022 8.96127 52.8902 9.03844C53.2781 9.11561 53.6345 9.30609 53.9142 9.58579C54.1939 9.8655 54.3844 10.2219 54.4616 10.6098C54.5387 10.9978 54.4991 11.3999 54.3478 11.7654C54.1964 12.1308 53.94 12.4432 53.6111 12.6629C53.2822 12.8827 52.8956 13 52.5 13C51.9696 13 51.4609 12.7893 51.0858 12.4142C50.7107 12.0391 50.5 11.5304 50.5 11Z" fill="white"/>
</g>
<defs>
<clipPath id="clip0_27_3513">
<rect width="72" height="32" rx="5" fill="white"/>
</clipPath>
</defs>
</svg>
