<svg width="72" height="32" viewBox="0 0 72 32" fill="none" xmlns="http://www.w3.org/2000/svg">
<g clip-path="url(#clip0_27_901)">
<path d="M30 26H29V9C29 8.73478 28.8946 8.48043 28.7071 8.29289C28.5196 8.10536 28.2652 8 28 8H23V5C23 4.73478 22.8946 4.48043 22.7071 4.29289C22.5196 4.10536 22.2652 4 22 4H10C9.73478 4 9.48043 4.10536 9.29289 4.29289C9.10536 4.48043 9 4.73478 9 5V12H4C3.73478 12 3.48043 12.1054 3.29289 12.2929C3.10536 12.4804 3 12.7348 3 13V26H2C1.73478 26 1.48043 26.1054 1.29289 26.2929C1.10536 26.4804 1 26.7348 1 27C1 27.2652 1.10536 27.5196 1.29289 27.7071C1.48043 27.8946 1.73478 28 2 28H30C30.2652 28 30.5196 27.8946 30.7071 27.7071C30.8946 27.5196 31 27.2652 31 27C31 26.7348 30.8946 26.4804 30.7071 26.2929C30.5196 26.1054 30.2652 26 30 26ZM10 22H8C7.73478 22 7.48043 21.8946 7.29289 21.7071C7.10536 21.5196 7 21.2652 7 21C7 20.7348 7.10536 20.4804 7.29289 20.2929C7.48043 20.1054 7.73478 20 8 20H10C10.2652 20 10.5196 20.1054 10.7071 20.2929C10.8946 20.4804 11 20.7348 11 21C11 21.2652 10.8946 21.5196 10.7071 21.7071C10.5196 21.8946 10.2652 22 10 22ZM10 18H8C7.73478 18 7.48043 17.8946 7.29289 17.7071C7.10536 17.5196 7 17.2652 7 17C7 16.7348 7.10536 16.4804 7.29289 16.2929C7.48043 16.1054 7.73478 16 8 16H10C10.2652 16 10.5196 16.1054 10.7071 16.2929C10.8946 16.4804 11 16.7348 11 17C11 17.2652 10.8946 17.5196 10.7071 17.7071C10.5196 17.8946 10.2652 18 10 18ZM18 26H14V21H18V26ZM17 18H15C14.7348 18 14.4804 17.8946 14.2929 17.7071C14.1054 17.5196 14 17.2652 14 17C14 16.7348 14.1054 16.4804 14.2929 16.2929C14.4804 16.1054 14.7348 16 15 16H17C17.2652 16 17.5196 16.1054 17.7071 16.2929C17.8946 16.4804 18 16.7348 18 17C18 17.2652 17.8946 17.5196 17.7071 17.7071C17.5196 17.8946 17.2652 18 17 18ZM17 14H15C14.7348 14 14.4804 13.8946 14.2929 13.7071C14.1054 13.5196 14 13.2652 14 13C14 12.7348 14.1054 12.4804 14.2929 12.2929C14.4804 12.1054 14.7348 12 15 12H17C17.2652 12 17.5196 12.1054 17.7071 12.2929C17.8946 12.4804 18 12.7348 18 13C18 13.2652 17.8946 13.5196 17.7071 13.7071C17.5196 13.8946 17.2652 14 17 14ZM17 10H15C14.7348 10 14.4804 9.89464 14.2929 9.70711C14.1054 9.51957 14 9.26522 14 9C14 8.73478 14.1054 8.48043 14.2929 8.29289C14.4804 8.10536 14.7348 8 15 8H17C17.2652 8 17.5196 8.10536 17.7071 8.29289C17.8946 8.48043 18 8.73478 18 9C18 9.26522 17.8946 9.51957 17.7071 9.70711C17.5196 9.89464 17.2652 10 17 10ZM24 22H22C21.7348 22 21.4804 21.8946 21.2929 21.7071C21.1054 21.5196 21 21.2652 21 21C21 20.7348 21.1054 20.4804 21.2929 20.2929C21.4804 20.1054 21.7348 20 22 20H24C24.2652 20 24.5196 20.1054 24.7071 20.2929C24.8946 20.4804 25 20.7348 25 21C25 21.2652 24.8946 21.5196 24.7071 21.7071C24.5196 21.8946 24.2652 22 24 22ZM24 18H22C21.7348 18 21.4804 17.8946 21.2929 17.7071C21.1054 17.5196 21 17.2652 21 17C21 16.7348 21.1054 16.4804 21.2929 16.2929C21.4804 16.1054 21.7348 16 22 16H24C24.2652 16 24.5196 16.1054 24.7071 16.2929C24.8946 16.4804 25 16.7348 25 17C25 17.2652 24.8946 17.5196 24.7071 17.7071C24.5196 17.8946 24.2652 18 24 18ZM24 14H22C21.7348 14 21.4804 13.8946 21.2929 13.7071C21.1054 13.5196 21 13.2652 21 13C21 12.7348 21.1054 12.4804 21.2929 12.2929C21.4804 12.1054 21.7348 12 22 12H24C24.2652 12 24.5196 12.1054 24.7071 12.2929C24.8946 12.4804 25 12.7348 25 13C25 13.2652 24.8946 13.5196 24.7071 13.7071C24.5196 13.8946 24.2652 14 24 14Z" fill="white"/>
<path d="M70 25.5H69.5V9.5C69.5 9.10218 69.342 8.72064 69.0607 8.43934C68.7794 8.15804 68.3978 8 68 8H63.5V5C63.5 4.60218 63.342 4.22064 63.0607 3.93934C62.7794 3.65804 62.3978 3.5 62 3.5H50C49.6022 3.5 49.2206 3.65804 48.9393 3.93934C48.658 4.22064 48.5 4.60218 48.5 5V12.5H44C43.6022 12.5 43.2206 12.658 42.9393 12.9393C42.658 13.2206 42.5 13.6022 42.5 14V25.5H42C41.6022 25.5 41.2206 25.658 40.9393 25.9393C40.658 26.2206 40.5 26.6022 40.5 27C40.5 27.3978 40.658 27.7794 40.9393 28.0607C41.2206 28.342 41.6022 28.5 42 28.5H70C70.3978 28.5 70.7794 28.342 71.0607 28.0607C71.342 27.7794 71.5 27.3978 71.5 27C71.5 26.6022 71.342 26.2206 71.0607 25.9393C70.7794 25.658 70.3978 25.5 70 25.5ZM45.5 15.5H50C50.3978 15.5 50.7794 15.342 51.0607 15.0607C51.342 14.7794 51.5 14.3978 51.5 14V6.5H60.5V9.5C60.5 9.89782 60.658 10.2794 60.9393 10.5607C61.2206 10.842 61.6022 11 62 11H66.5V25.5H58.5V22C58.5 21.8674 58.4473 21.7402 58.3536 21.6464C58.2598 21.5527 58.1326 21.5 58 21.5H54C53.8674 21.5 53.7402 21.5527 53.6464 21.6464C53.5527 21.7402 53.5 21.8674 53.5 22V25.5H45.5V15.5ZM53.5 9.5C53.5 9.10218 53.658 8.72064 53.9393 8.43934C54.2206 8.15804 54.6022 8 55 8H57C57.3978 8 57.7794 8.15804 58.0607 8.43934C58.342 8.72064 58.5 9.10218 58.5 9.5C58.5 9.89782 58.342 10.2794 58.0607 10.5607C57.7794 10.842 57.3978 11 57 11H55C54.6022 11 54.2206 10.842 53.9393 10.5607C53.658 10.2794 53.5 9.89782 53.5 9.5ZM53.5 14C53.5 13.6022 53.658 13.2206 53.9393 12.9393C54.2206 12.658 54.6022 12.5 55 12.5H57C57.3978 12.5 57.7794 12.658 58.0607 12.9393C58.342 13.2206 58.5 13.6022 58.5 14C58.5 14.3978 58.342 14.7794 58.0607 15.0607C57.7794 15.342 57.3978 15.5 57 15.5H55C54.6022 15.5 54.2206 15.342 53.9393 15.0607C53.658 14.7794 53.5 14.3978 53.5 14ZM60 14C60 13.6022 60.158 13.2206 60.4393 12.9393C60.7206 12.658 61.1022 12.5 61.5 12.5H63.5C63.8978 12.5 64.2794 12.658 64.5607 12.9393C64.842 13.2206 65 13.6022 65 14C65 14.3978 64.842 14.7794 64.5607 15.0607C64.2794 15.342 63.8978 15.5 63.5 15.5H61.5C61.1022 15.5 60.7206 15.342 60.4393 15.0607C60.158 14.7794 60 14.3978 60 14ZM52 18.5C52 18.8978 51.842 19.2794 51.5607 19.5607C51.2794 19.842 50.8978 20 50.5 20H48.5C48.1022 20 47.7206 19.842 47.4393 19.5607C47.158 19.2794 47 18.8978 47 18.5C47 18.1022 47.158 17.7206 47.4393 17.4393C47.7206 17.158 48.1022 17 48.5 17H50.5C50.8978 17 51.2794 17.158 51.5607 17.4393C51.842 17.7206 52 18.1022 52 18.5ZM53.5 18.5C53.5 18.1022 53.658 17.7206 53.9393 17.4393C54.2206 17.158 54.6022 17 55 17H57C57.3978 17 57.7794 17.158 58.0607 17.4393C58.342 17.7206 58.5 18.1022 58.5 18.5C58.5 18.8978 58.342 19.2794 58.0607 19.5607C57.7794 19.842 57.3978 20 57 20H55C54.6022 20 54.2206 19.842 53.9393 19.5607C53.658 19.2794 53.5 18.8978 53.5 18.5ZM60 18.5C60 18.1022 60.158 17.7206 60.4393 17.4393C60.7206 17.158 61.1022 17 61.5 17H63.5C63.8978 17 64.2794 17.158 64.5607 17.4393C64.842 17.7206 65 18.1022 65 18.5C65 18.8978 64.842 19.2794 64.5607 19.5607C64.2794 19.842 63.8978 20 63.5 20H61.5C61.1022 20 60.7206 19.842 60.4393 19.5607C60.158 19.2794 60 18.8978 60 18.5Z" fill="white"/>
</g>
<defs>
<clipPath id="clip0_27_901">
<rect width="72" height="32" rx="5" fill="white"/>
</clipPath>
</defs>
</svg>
