<svg width="72" height="32" viewBox="0 0 72 32" fill="none" xmlns="http://www.w3.org/2000/svg">
<g clip-path="url(#clip0_27_906)">
<path d="M31 26H29V12C29.2652 12 29.5196 11.8946 29.7071 11.7071C29.8946 11.5196 30 11.2652 30 11C30 10.7348 29.8946 10.4804 29.7071 10.2929C29.5196 10.1054 29.2652 10 29 10H23V6C23.2652 6 23.5196 5.89464 23.7071 5.70711C23.8946 5.51957 24 5.26522 24 5C24 4.73478 23.8946 4.48043 23.7071 4.29289C23.5196 4.10536 23.2652 4 23 4H5C4.73478 4 4.48043 4.10536 4.29289 4.29289C4.10536 4.48043 4 4.73478 4 5C4 5.26522 4.10536 5.51957 4.29289 5.70711C4.48043 5.89464 4.73478 6 5 6V26H3C2.73478 26 2.48043 26.1054 2.29289 26.2929C2.10536 26.4804 2 26.7348 2 27C2 27.2652 2.10536 27.5196 2.29289 27.7071C2.48043 27.8946 2.73478 28 3 28H31C31.2652 28 31.5196 27.8946 31.7071 27.7071C31.8946 27.5196 32 27.2652 32 27C32 26.7348 31.8946 26.4804 31.7071 26.2929C31.5196 26.1054 31.2652 26 31 26ZM10 9H12C12.2652 9 12.5196 9.10536 12.7071 9.29289C12.8946 9.48043 13 9.73478 13 10C13 10.2652 12.8946 10.5196 12.7071 10.7071C12.5196 10.8946 12.2652 11 12 11H10C9.73478 11 9.48043 10.8946 9.29289 10.7071C9.10536 10.5196 9 10.2652 9 10C9 9.73478 9.10536 9.48043 9.29289 9.29289C9.48043 9.10536 9.73478 9 10 9ZM9 15C9 14.7348 9.10536 14.4804 9.29289 14.2929C9.48043 14.1054 9.73478 14 10 14H12C12.2652 14 12.5196 14.1054 12.7071 14.2929C12.8946 14.4804 13 14.7348 13 15C13 15.2652 12.8946 15.5196 12.7071 15.7071C12.5196 15.8946 12.2652 16 12 16H10C9.73478 16 9.48043 15.8946 9.29289 15.7071C9.10536 15.5196 9 15.2652 9 15ZM17 26H11V20H17V26ZM18 16H16C15.7348 16 15.4804 15.8946 15.2929 15.7071C15.1054 15.5196 15 15.2652 15 15C15 14.7348 15.1054 14.4804 15.2929 14.2929C15.4804 14.1054 15.7348 14 16 14H18C18.2652 14 18.5196 14.1054 18.7071 14.2929C18.8946 14.4804 19 14.7348 19 15C19 15.2652 18.8946 15.5196 18.7071 15.7071C18.5196 15.8946 18.2652 16 18 16ZM18 11H16C15.7348 11 15.4804 10.8946 15.2929 10.7071C15.1054 10.5196 15 10.2652 15 10C15 9.73478 15.1054 9.48043 15.2929 9.29289C15.4804 9.10536 15.7348 9 16 9H18C18.2652 9 18.5196 9.10536 18.7071 9.29289C18.8946 9.48043 19 9.73478 19 10C19 10.2652 18.8946 10.5196 18.7071 10.7071C18.5196 10.8946 18.2652 11 18 11ZM27 26H23V12H27V26Z" fill="white"/>
<path d="M70.5 25.5H69V12.4125C69.3324 12.2937 69.6123 12.0615 69.7903 11.7567C69.9684 11.4519 70.0333 11.0941 69.9736 10.7462C69.9138 10.3983 69.7333 10.0826 69.4638 9.85465C69.1943 9.62671 68.853 9.50113 68.5 9.5H63.5V6.4125C63.8324 6.29371 64.1123 6.06149 64.2903 5.7567C64.4684 5.45192 64.5333 5.0941 64.4736 4.74619C64.4138 4.39829 64.2333 4.0826 63.9638 3.85465C63.6943 3.62671 63.353 3.50113 63 3.5H45C44.647 3.50113 44.3057 3.62671 44.0362 3.85465C43.7667 4.0826 43.5862 4.39829 43.5264 4.74619C43.4667 5.0941 43.5316 5.45192 43.7097 5.7567C43.8877 6.06149 44.1676 6.29371 44.5 6.4125V25.5H43C42.6022 25.5 42.2206 25.658 41.9393 25.9393C41.658 26.2206 41.5 26.6022 41.5 27C41.5 27.3978 41.658 27.7794 41.9393 28.0607C42.2206 28.342 42.6022 28.5 43 28.5H70.5C70.8978 28.5 71.2794 28.342 71.5607 28.0607C71.842 27.7794 72 27.3978 72 27C72 26.6022 71.842 26.2206 71.5607 25.9393C71.2794 25.658 70.8978 25.5 70.5 25.5ZM66 12.5V25.5H63.5V12.5H66ZM47.5 6.5H60.5V25.5H58.5V20C58.5 19.6022 58.342 19.2206 58.0607 18.9393C57.7794 18.658 57.3978 18.5 57 18.5H51C50.6022 18.5 50.2206 18.658 49.9393 18.9393C49.658 19.2206 49.5 19.6022 49.5 20V25.5H47.5V6.5ZM55.5 25.5H52.5V21.5H55.5V25.5ZM49 10C49 9.60218 49.158 9.22064 49.4393 8.93934C49.7206 8.65804 50.1022 8.5 50.5 8.5H51.5C51.8978 8.5 52.2794 8.65804 52.5607 8.93934C52.842 9.22064 53 9.60218 53 10C53 10.3978 52.842 10.7794 52.5607 11.0607C52.2794 11.342 51.8978 11.5 51.5 11.5H50.5C50.1022 11.5 49.7206 11.342 49.4393 11.0607C49.158 10.7794 49 10.3978 49 10ZM55 10C55 9.60218 55.158 9.22064 55.4393 8.93934C55.7206 8.65804 56.1022 8.5 56.5 8.5H57.5C57.8978 8.5 58.2794 8.65804 58.5607 8.93934C58.842 9.22064 59 9.60218 59 10C59 10.3978 58.842 10.7794 58.5607 11.0607C58.2794 11.342 57.8978 11.5 57.5 11.5H56.5C56.1022 11.5 55.7206 11.342 55.4393 11.0607C55.158 10.7794 55 10.3978 55 10ZM49 15C49 14.6022 49.158 14.2206 49.4393 13.9393C49.7206 13.658 50.1022 13.5 50.5 13.5H51.5C51.8978 13.5 52.2794 13.658 52.5607 13.9393C52.842 14.2206 53 14.6022 53 15C53 15.3978 52.842 15.7794 52.5607 16.0607C52.2794 16.342 51.8978 16.5 51.5 16.5H50.5C50.1022 16.5 49.7206 16.342 49.4393 16.0607C49.158 15.7794 49 15.3978 49 15ZM55 15C55 14.6022 55.158 14.2206 55.4393 13.9393C55.7206 13.658 56.1022 13.5 56.5 13.5H57.5C57.8978 13.5 58.2794 13.658 58.5607 13.9393C58.842 14.2206 59 14.6022 59 15C59 15.3978 58.842 15.7794 58.5607 16.0607C58.2794 16.342 57.8978 16.5 57.5 16.5H56.5C56.1022 16.5 55.7206 16.342 55.4393 16.0607C55.158 15.7794 55 15.3978 55 15Z" fill="white"/>
</g>
<defs>
<clipPath id="clip0_27_906">
<rect width="72" height="32" rx="5" fill="white"/>
</clipPath>
</defs>
</svg>
