<svg width="72" height="32" viewBox="0 0 72 32" fill="none" xmlns="http://www.w3.org/2000/svg">
<g clip-path="url(#clip0_27_896)">
<path d="M29 28H26V4H27C27.2652 4 27.5196 3.89464 27.7071 3.70711C27.8946 3.51957 28 3.26522 28 3C28 2.73478 27.8946 2.48043 27.7071 2.29289C27.5196 2.10536 27.2652 2 27 2H5C4.73478 2 4.48043 2.10536 4.29289 2.29289C4.10536 2.48043 4 2.73478 4 3C4 3.26522 4.10536 3.51957 4.29289 3.70711C4.48043 3.89464 4.73478 4 5 4H6V28H3C2.73478 28 2.48043 28.1054 2.29289 28.2929C2.10536 28.4804 2 28.7348 2 29C2 29.2652 2.10536 29.5196 2.29289 29.7071C2.48043 29.8946 2.73478 30 3 30H29C29.2652 30 29.5196 29.8946 29.7071 29.7071C29.8946 29.5196 30 29.2652 30 29C30 28.7348 29.8946 28.4804 29.7071 28.2929C29.5196 28.1054 29.2652 28 29 28ZM11 7H14C14.2652 7 14.5196 7.10536 14.7071 7.29289C14.8946 7.48043 15 7.73478 15 8C15 8.26522 14.8946 8.51957 14.7071 8.70711C14.5196 8.89464 14.2652 9 14 9H11C10.7348 9 10.4804 8.89464 10.2929 8.70711C10.1054 8.51957 10 8.26522 10 8C10 7.73478 10.1054 7.48043 10.2929 7.29289C10.4804 7.10536 10.7348 7 11 7ZM11 12H14C14.2652 12 14.5196 12.1054 14.7071 12.2929C14.8946 12.4804 15 12.7348 15 13C15 13.2652 14.8946 13.5196 14.7071 13.7071C14.5196 13.8946 14.2652 14 14 14H11C10.7348 14 10.4804 13.8946 10.2929 13.7071C10.1054 13.5196 10 13.2652 10 13C10 12.7348 10.1054 12.4804 10.2929 12.2929C10.4804 12.1054 10.7348 12 11 12ZM10 18C10 17.7348 10.1054 17.4804 10.2929 17.2929C10.4804 17.1054 10.7348 17 11 17H14C14.2652 17 14.5196 17.1054 14.7071 17.2929C14.8946 17.4804 15 17.7348 15 18C15 18.2652 14.8946 18.5196 14.7071 18.7071C14.5196 18.8946 14.2652 19 14 19H11C10.7348 19 10.4804 18.8946 10.2929 18.7071C10.1054 18.5196 10 18.2652 10 18ZM19 28H13V23H19V28ZM21 19H18C17.7348 19 17.4804 18.8946 17.2929 18.7071C17.1054 18.5196 17 18.2652 17 18C17 17.7348 17.1054 17.4804 17.2929 17.2929C17.4804 17.1054 17.7348 17 18 17H21C21.2652 17 21.5196 17.1054 21.7071 17.2929C21.8946 17.4804 22 17.7348 22 18C22 18.2652 21.8946 18.5196 21.7071 18.7071C21.5196 18.8946 21.2652 19 21 19ZM21 14H18C17.7348 14 17.4804 13.8946 17.2929 13.7071C17.1054 13.5196 17 13.2652 17 13C17 12.7348 17.1054 12.4804 17.2929 12.2929C17.4804 12.1054 17.7348 12 18 12H21C21.2652 12 21.5196 12.1054 21.7071 12.2929C21.8946 12.4804 22 12.7348 22 13C22 13.2652 21.8946 13.5196 21.7071 13.7071C21.5196 13.8946 21.2652 14 21 14ZM21 9H18C17.7348 9 17.4804 8.89464 17.2929 8.70711C17.1054 8.51957 17 8.26522 17 8C17 7.73478 17.1054 7.48043 17.2929 7.29289C17.4804 7.10536 17.7348 7 18 7H21C21.2652 7 21.5196 7.10536 21.7071 7.29289C21.8946 7.48043 22 7.73478 22 8C22 8.26522 21.8946 8.51957 21.7071 8.70711C21.5196 8.89464 21.2652 9 21 9Z" fill="white"/>
<path d="M69 27.5H66.5V4.5H67C67.3978 4.5 67.7794 4.34196 68.0607 4.06066C68.342 3.77936 68.5 3.39782 68.5 3C68.5 2.60218 68.342 2.22064 68.0607 1.93934C67.7794 1.65804 67.3978 1.5 67 1.5H45C44.6022 1.5 44.2206 1.65804 43.9393 1.93934C43.658 2.22064 43.5 2.60218 43.5 3C43.5 3.39782 43.658 3.77936 43.9393 4.06066C44.2206 4.34196 44.6022 4.5 45 4.5H45.5V27.5H43C42.6022 27.5 42.2206 27.658 41.9393 27.9393C41.658 28.2206 41.5 28.6022 41.5 29C41.5 29.3978 41.658 29.7794 41.9393 30.0607C42.2206 30.342 42.6022 30.5 43 30.5H69C69.3978 30.5 69.7794 30.342 70.0607 30.0607C70.342 29.7794 70.5 29.3978 70.5 29C70.5 28.6022 70.342 28.2206 70.0607 27.9393C69.7794 27.658 69.3978 27.5 69 27.5ZM48.5 4.5H63.5V27.5H60.5V23C60.5 22.6022 60.342 22.2206 60.0607 21.9393C59.7794 21.658 59.3978 21.5 59 21.5H53C52.6022 21.5 52.2206 21.658 51.9393 21.9393C51.658 22.2206 51.5 22.6022 51.5 23V27.5H48.5V4.5ZM57.5 27.5H54.5V24.5H57.5V27.5ZM50.5 8C50.5 7.60218 50.658 7.22064 50.9393 6.93934C51.2206 6.65804 51.6022 6.5 52 6.5H53.5C53.8978 6.5 54.2794 6.65804 54.5607 6.93934C54.842 7.22064 55 7.60218 55 8C55 8.39782 54.842 8.77936 54.5607 9.06066C54.2794 9.34196 53.8978 9.5 53.5 9.5H52C51.6022 9.5 51.2206 9.34196 50.9393 9.06066C50.658 8.77936 50.5 8.39782 50.5 8ZM57 8C57 7.60218 57.158 7.22064 57.4393 6.93934C57.7206 6.65804 58.1022 6.5 58.5 6.5H60C60.3978 6.5 60.7794 6.65804 61.0607 6.93934C61.342 7.22064 61.5 7.60218 61.5 8C61.5 8.39782 61.342 8.77936 61.0607 9.06066C60.7794 9.34196 60.3978 9.5 60 9.5H58.5C58.1022 9.5 57.7206 9.34196 57.4393 9.06066C57.158 8.77936 57 8.39782 57 8ZM50.5 13C50.5 12.6022 50.658 12.2206 50.9393 11.9393C51.2206 11.658 51.6022 11.5 52 11.5H53.5C53.8978 11.5 54.2794 11.658 54.5607 11.9393C54.842 12.2206 55 12.6022 55 13C55 13.3978 54.842 13.7794 54.5607 14.0607C54.2794 14.342 53.8978 14.5 53.5 14.5H52C51.6022 14.5 51.2206 14.342 50.9393 14.0607C50.658 13.7794 50.5 13.3978 50.5 13ZM57 13C57 12.6022 57.158 12.2206 57.4393 11.9393C57.7206 11.658 58.1022 11.5 58.5 11.5H60C60.3978 11.5 60.7794 11.658 61.0607 11.9393C61.342 12.2206 61.5 12.6022 61.5 13C61.5 13.3978 61.342 13.7794 61.0607 14.0607C60.7794 14.342 60.3978 14.5 60 14.5H58.5C58.1022 14.5 57.7206 14.342 57.4393 14.0607C57.158 13.7794 57 13.3978 57 13ZM50.5 18C50.5 17.6022 50.658 17.2206 50.9393 16.9393C51.2206 16.658 51.6022 16.5 52 16.5H53.5C53.8978 16.5 54.2794 16.658 54.5607 16.9393C54.842 17.2206 55 17.6022 55 18C55 18.3978 54.842 18.7794 54.5607 19.0607C54.2794 19.342 53.8978 19.5 53.5 19.5H52C51.6022 19.5 51.2206 19.342 50.9393 19.0607C50.658 18.7794 50.5 18.3978 50.5 18ZM57 18C57 17.6022 57.158 17.2206 57.4393 16.9393C57.7206 16.658 58.1022 16.5 58.5 16.5H60C60.3978 16.5 60.7794 16.658 61.0607 16.9393C61.342 17.2206 61.5 17.6022 61.5 18C61.5 18.3978 61.342 18.7794 61.0607 19.0607C60.7794 19.342 60.3978 19.5 60 19.5H58.5C58.1022 19.5 57.7206 19.342 57.4393 19.0607C57.158 18.7794 57 18.3978 57 18Z" fill="white"/>
</g>
<defs>
<clipPath id="clip0_27_896">
<rect width="72" height="32" rx="5" fill="white"/>
</clipPath>
</defs>
</svg>
