<svg width="72" height="32" viewBox="0 0 72 32" fill="none" xmlns="http://www.w3.org/2000/svg">
<g clip-path="url(#clip0_27_6485)">
<path d="M31 10V13C31 13.2652 30.8946 13.5196 30.7071 13.7071C30.5196 13.8946 30.2652 14 30 14C29.7348 14 29.4804 13.8946 29.2929 13.7071C29.1054 13.5196 29 13.2652 29 13V10C29 9.73478 29.1054 9.48043 29.2929 9.29289C29.4804 9.10536 29.7348 9 30 9C30.2652 9 30.5196 9.10536 30.7071 9.29289C30.8946 9.48043 31 9.73478 31 10ZM2 9C1.73478 9 1.48043 9.10536 1.29289 9.29289C1.10536 9.48043 1 9.73478 1 10V13C1 13.2652 1.10536 13.5196 1.29289 13.7071C1.48043 13.8946 1.73478 14 2 14C2.26522 14 2.51957 13.8946 2.70711 13.7071C2.89464 13.5196 3 13.2652 3 13V10C3 9.73478 2.89464 9.48043 2.70711 9.29289C2.51957 9.10536 2.26522 9 2 9ZM27 8V26C27 26.5304 26.7893 27.0391 26.4142 27.4142C26.0391 27.7893 25.5304 28 25 28H23C22.4696 28 21.9609 27.7893 21.5858 27.4142C21.2107 27.0391 21 26.5304 21 26V25H11V26C11 26.5304 10.7893 27.0391 10.4142 27.4142C10.0391 27.7893 9.53043 28 9 28H7C6.46957 28 5.96086 27.7893 5.58579 27.4142C5.21071 27.0391 5 26.5304 5 26V8C5 6.93913 5.42143 5.92172 6.17157 5.17157C6.92172 4.42143 7.93913 4 9 4H23C24.0609 4 25.0783 4.42143 25.8284 5.17157C26.5786 5.92172 27 6.93913 27 8ZM13 18.5C13 18.2033 12.912 17.9133 12.7472 17.6666C12.5824 17.42 12.3481 17.2277 12.074 17.1142C11.7999 17.0007 11.4983 16.9709 11.2074 17.0288C10.9164 17.0867 10.6491 17.2296 10.4393 17.4393C10.2296 17.6491 10.0867 17.9164 10.0288 18.2074C9.97094 18.4983 10.0006 18.7999 10.1142 19.074C10.2277 19.3481 10.42 19.5824 10.6666 19.7472C10.9133 19.912 11.2033 20 11.5 20C11.8978 20 12.2794 19.842 12.5607 19.5607C12.842 19.2794 13 18.8978 13 18.5ZM22 18.5C22 18.2033 21.912 17.9133 21.7472 17.6666C21.5824 17.42 21.3481 17.2277 21.074 17.1142C20.7999 17.0007 20.4983 16.9709 20.2074 17.0288C19.9164 17.0867 19.6491 17.2296 19.4393 17.4393C19.2296 17.6491 19.0867 17.9164 19.0288 18.2074C18.9709 18.4983 19.0007 18.7999 19.1142 19.074C19.2277 19.3481 19.42 19.5824 19.6666 19.7472C19.9133 19.912 20.2033 20 20.5 20C20.8978 20 21.2794 19.842 21.5607 19.5607C21.842 19.2794 22 18.8978 22 18.5ZM25 9H7V14H25V9Z" fill="white"/>
<path d="M63 3.5H49C47.8065 3.5 46.6619 3.97411 45.818 4.81802C44.9741 5.66193 44.5 6.80653 44.5 8V26C44.5 26.663 44.7634 27.2989 45.2322 27.7678C45.7011 28.2366 46.337 28.5 47 28.5H50.5C51.163 28.5 51.7989 28.2366 52.2678 27.7678C52.7366 27.2989 53 26.663 53 26V24H59V26C59 26.663 59.2634 27.2989 59.7322 27.7678C60.2011 28.2366 60.837 28.5 61.5 28.5H65C65.663 28.5 66.2989 28.2366 66.7678 27.7678C67.2366 27.2989 67.5 26.663 67.5 26V8C67.5 6.80653 67.0259 5.66193 66.182 4.81802C65.3381 3.97411 64.1935 3.5 63 3.5ZM47.5 21V14H64.5V21H47.5ZM49 6.5H63C63.3978 6.5 63.7794 6.65804 64.0607 6.93934C64.342 7.22064 64.5 7.60218 64.5 8V11H47.5V8C47.5 7.60218 47.658 7.22064 47.9393 6.93934C48.2206 6.65804 48.6022 6.5 49 6.5ZM50 25.5H47.5V24H50V25.5ZM62 25.5V24H64.5V25.5H62ZM53.5 17.5C53.5 17.8956 53.3827 18.2822 53.1629 18.6111C52.9432 18.94 52.6308 19.1964 52.2654 19.3478C51.8999 19.4991 51.4978 19.5387 51.1098 19.4616C50.7219 19.3844 50.3655 19.1939 50.0858 18.9142C49.8061 18.6345 49.6156 18.2781 49.5384 17.8902C49.4613 17.5022 49.5009 17.1001 49.6522 16.7346C49.8036 16.3692 50.06 16.0568 50.3889 15.8371C50.7178 15.6173 51.1044 15.5 51.5 15.5C52.0304 15.5 52.5391 15.7107 52.9142 16.0858C53.2893 16.4609 53.5 16.9696 53.5 17.5ZM62.5 17.5C62.5 17.8956 62.3827 18.2822 62.1629 18.6111C61.9432 18.94 61.6308 19.1964 61.2654 19.3478C60.8999 19.4991 60.4978 19.5387 60.1098 19.4616C59.7219 19.3844 59.3655 19.1939 59.0858 18.9142C58.8061 18.6345 58.6156 18.2781 58.5384 17.8902C58.4613 17.5022 58.5009 17.1001 58.6522 16.7346C58.8036 16.3692 59.06 16.0568 59.3889 15.8371C59.7178 15.6173 60.1044 15.5 60.5 15.5C61.0304 15.5 61.5391 15.7107 61.9142 16.0858C62.2893 16.4609 62.5 16.9696 62.5 17.5ZM72 10V13C72 13.3978 71.842 13.7794 71.5607 14.0607C71.2794 14.342 70.8978 14.5 70.5 14.5C70.1022 14.5 69.7206 14.342 69.4393 14.0607C69.158 13.7794 69 13.3978 69 13V10C69 9.60218 69.158 9.22064 69.4393 8.93934C69.7206 8.65804 70.1022 8.5 70.5 8.5C70.8978 8.5 71.2794 8.65804 71.5607 8.93934C71.842 9.22064 72 9.60218 72 10ZM43 10V13C43 13.3978 42.842 13.7794 42.5607 14.0607C42.2794 14.342 41.8978 14.5 41.5 14.5C41.1022 14.5 40.7206 14.342 40.4393 14.0607C40.158 13.7794 40 13.3978 40 13V10C40 9.60218 40.158 9.22064 40.4393 8.93934C40.7206 8.65804 41.1022 8.5 41.5 8.5C41.8978 8.5 42.2794 8.65804 42.5607 8.93934C42.842 9.22064 43 9.60218 43 10Z" fill="white"/>
</g>
<defs>
<clipPath id="clip0_27_6485">
<rect width="72" height="32" rx="5" fill="white"/>
</clipPath>
</defs>
</svg>
