<svg width="72" height="32" viewBox="0 0 72 32" fill="none" xmlns="http://www.w3.org/2000/svg">
<g clip-path="url(#clip0_27_2064)">
<path d="M16 12.5212C15.7035 11.9722 15.3693 11.4443 15 10.9412V7C15 6.73478 15.1054 6.48043 15.2929 6.29289C15.4804 6.10536 15.7348 6 16 6C16.2652 6 16.5196 6.10536 16.7071 6.29289C16.8947 6.48043 17 6.73478 17 7V10.9412C16.6307 11.4443 16.2966 11.9722 16 12.5212ZM29.0875 6.31C28.625 5.7125 27.73 5 26.125 5C24.0188 5 21.3175 6.41 18.8988 8.77C18.2072 9.4403 17.5721 10.1665 17 10.9412V22.5C17 22.7652 16.8947 23.0196 16.7071 23.2071C16.5196 23.3946 16.2652 23.5 16 23.5C15.7348 23.5 15.4804 23.3946 15.2929 23.2071C15.1054 23.0196 15 22.7652 15 22.5V10.9412C14.4295 10.1667 13.7961 9.4405 13.1063 8.77C10.6863 6.41 7.98502 5 5.87502 5C4.27002 5 3.37502 5.7125 2.91252 6.31C2.06002 7.40625 1.39002 9.32 2.88627 15.21C3.64252 18.1888 5.32502 19.335 6.71502 19.7625C5.95699 20.9934 5.71403 22.4732 6.03867 23.8818C6.36332 25.2904 7.22948 26.5146 8.44977 27.2895C9.67006 28.0645 11.1464 28.3278 12.5594 28.0226C13.9723 27.7174 15.2083 26.8682 16 25.6588C16.7917 26.8682 18.0277 27.7174 19.4407 28.0226C20.8536 28.3278 22.33 28.0645 23.5503 27.2895C24.7706 26.5146 25.6367 25.2904 25.9614 23.8818C26.286 22.4732 26.043 20.9934 25.285 19.7625C26.675 19.3375 28.3563 18.1888 29.1138 15.21C29.9538 11.905 30.6063 8.2625 29.0875 6.31Z" fill="white"/>
<path d="M69.4739 6C68.9401 5.315 67.9239 4.5 66.1139 4.5C63.8814 4.5 61.0514 5.9625 58.5426 8.4125C58.1676 8.77375 57.8251 9.14375 57.5001 9.5175V7C57.5001 6.60218 57.3421 6.22064 57.0608 5.93934C56.7795 5.65804 56.3979 5.5 56.0001 5.5C55.6023 5.5 55.2208 5.65804 54.9395 5.93934C54.6582 6.22064 54.5001 6.60218 54.5001 7V9.5175C54.1751 9.1425 53.8276 8.7675 53.4576 8.4125C50.9489 5.9625 48.1251 4.5 45.8864 4.5C44.0764 4.5 43.0601 5.3175 42.5264 6C40.8751 8.125 41.5001 11.7388 42.4101 15.3325C43.1289 18.1625 44.6351 19.4575 46.0201 20.0438C45.614 20.9582 45.4425 21.9595 45.521 22.9569C45.5995 23.9544 45.9255 24.9165 46.4697 25.7562C47.0138 26.5958 47.7588 27.2865 48.6372 27.7656C49.5156 28.2447 50.4996 28.4971 51.5001 28.5C52.3518 28.5006 53.1938 28.3194 53.9699 27.9684C54.7459 27.6175 55.4381 27.1049 56.0001 26.465C56.806 27.3788 57.871 28.0256 59.0535 28.3194C60.236 28.6131 61.4799 28.5399 62.6197 28.1095C63.7596 27.6791 64.7414 26.9118 65.4346 25.9098C66.1277 24.9077 66.4994 23.7184 66.5001 22.5C66.5008 21.6541 66.3246 20.8174 65.9826 20.0438C67.3676 19.46 68.8739 18.1688 69.5926 15.3325C70.5001 11.7388 71.1251 8.125 69.4739 6ZM51.5001 25.5C50.7045 25.5 49.9414 25.1839 49.3788 24.6213C48.8162 24.0587 48.5001 23.2956 48.5001 22.5C48.5031 21.7606 48.7751 21.0475 49.2652 20.4938C49.7554 19.9402 50.4302 19.5838 51.1639 19.4912C51.5594 19.4475 51.9213 19.2484 52.17 18.9378C52.4187 18.6272 52.5339 18.2305 52.4901 17.835C52.4464 17.4395 52.2473 17.0776 51.9367 16.8289C51.6261 16.5801 51.2294 16.465 50.8339 16.5088C49.8707 16.6155 48.9482 16.9558 48.1464 17.5C47.1226 17.4637 45.8964 16.885 45.3176 14.595C44.3914 10.9475 44.2489 8.67625 44.8939 7.845C44.9676 7.75 45.1626 7.5 45.8864 7.5C47.2876 7.5 49.4889 8.72875 51.3626 10.5588C53.2689 12.4213 54.5001 14.5413 54.5001 15.9587V22.5C54.5001 23.2956 54.1841 24.0587 53.6214 24.6213C53.0588 25.1839 52.2958 25.5 51.5001 25.5ZM66.6814 14.5938C66.1014 16.8837 64.8751 17.4625 63.8526 17.5C63.0505 16.9556 62.1275 16.6158 61.1639 16.51C60.968 16.4883 60.7699 16.5054 60.5806 16.5604C60.3914 16.6153 60.2149 16.707 60.0611 16.8301C59.9073 16.9533 59.7792 17.1055 59.6843 17.2781C59.5893 17.4508 59.5293 17.6404 59.5076 17.8363C59.486 18.0321 59.5031 18.2303 59.558 18.4195C59.6129 18.6087 59.7046 18.7853 59.8277 18.9391C59.9509 19.0928 60.1031 19.2209 60.2758 19.3158C60.4484 19.4108 60.638 19.4708 60.8339 19.4925C61.5677 19.5845 62.243 19.9404 62.7337 20.4939C63.2243 21.0473 63.4968 21.7604 63.5001 22.5C63.5001 23.2956 63.1841 24.0587 62.6214 24.6213C62.0588 25.1839 61.2958 25.5 60.5001 25.5C59.7045 25.5 58.9414 25.1839 58.3788 24.6213C57.8162 24.0587 57.5001 23.2956 57.5001 22.5V15.9587C57.5001 14.5413 58.7314 12.4213 60.6376 10.5588C62.5114 8.72875 64.7126 7.5 66.1139 7.5C66.8376 7.5 67.0326 7.75 67.1064 7.845C67.7501 8.675 67.6089 10.9462 66.6826 14.5938H66.6814Z" fill="white"/>
</g>
<defs>
<clipPath id="clip0_27_2064">
<rect width="72" height="32" rx="5" fill="white"/>
</clipPath>
</defs>
</svg>
