<svg width="72" height="32" viewBox="0 0 72 32" fill="none" xmlns="http://www.w3.org/2000/svg">
<g clip-path="url(#clip0_27_6490)">
<path d="M30.9844 3.82375C30.9375 3.56291 30.789 3.33136 30.5715 3.17995C30.354 3.02854 30.0853 2.96966 29.8244 3.01625L1.82439 8.01625C1.57911 8.061 1.3594 8.19578 1.20834 8.39414C1.05728 8.5925 0.985766 8.84014 1.00783 9.0885C1.0299 9.33685 1.14395 9.56801 1.32761 9.73663C1.51128 9.90525 1.75131 9.99918 2.00064 10C2.06012 9.99991 2.11949 9.9949 2.17814 9.985L15.0006 7.695V12H8.00064C6.93978 12 5.92236 12.4214 5.17222 13.1716C4.42207 13.9217 4.00064 14.9391 4.00064 16V24C4.00064 25.0609 4.42207 26.0783 5.17222 26.8284C5.92236 27.5786 6.93978 28 8.00064 28H24.0006C25.0615 28 26.0789 27.5786 26.8291 26.8284C27.5792 26.0783 28.0006 25.0609 28.0006 24V16C28.0006 14.9391 27.5792 13.9217 26.8291 13.1716C26.0789 12.4214 25.0615 12 24.0006 12H17.0006V7.3375L30.1756 4.985C30.305 4.96193 30.4286 4.91358 30.5393 4.84272C30.65 4.77186 30.7456 4.67987 30.8207 4.57202C30.8959 4.46417 30.949 4.34257 30.9771 4.21417C31.0051 4.08578 31.0076 3.95311 30.9844 3.82375ZM13.0006 20V14H19.0006V20H13.0006ZM8.00064 14H11.0006V20H6.00064V16C6.00064 15.4696 6.21136 14.9609 6.58643 14.5858C6.9615 14.2107 7.47021 14 8.00064 14ZM26.0006 16V20H21.0006V14H24.0006C24.5311 14 25.0398 14.2107 25.4149 14.5858C25.7899 14.9609 26.0006 15.4696 26.0006 16Z" fill="white"/>
<path d="M71.4761 3.73625C71.4061 3.34477 71.1834 2.99713 70.8571 2.76976C70.5308 2.54239 70.1276 2.4539 69.7361 2.52375L41.7361 7.52375C41.3675 7.59013 41.037 7.79201 40.8098 8.0897C40.5825 8.38738 40.4748 8.75933 40.5078 9.13241C40.5409 9.50549 40.7123 9.8527 40.9884 10.1058C41.2645 10.3588 41.6253 10.4995 41.9998 10.5C42.0887 10.5001 42.1774 10.4922 42.2648 10.4762L54.4998 8.29125V11.5H47.9998C46.8064 11.5 45.6618 11.9741 44.8179 12.818C43.974 13.6619 43.4998 14.8065 43.4998 16V24C43.4998 25.1935 43.974 26.3381 44.8179 27.182C45.6618 28.0259 46.8064 28.5 47.9998 28.5H63.9998C65.1933 28.5 66.3379 28.0259 67.1818 27.182C68.0257 26.3381 68.4998 25.1935 68.4998 24V16C68.4998 14.8065 68.0257 13.6619 67.1818 12.818C66.3379 11.9741 65.1933 11.5 63.9998 11.5H57.4998V7.75625L70.2636 5.47625C70.6551 5.40621 71.0027 5.18357 71.2301 4.85728C71.4575 4.53099 71.5459 4.12776 71.4761 3.73625ZM53.4998 19.5V14.5H58.4998V19.5H53.4998ZM47.9998 14.5H50.4998V19.5H46.4998V16C46.4998 15.6022 46.6579 15.2206 46.9392 14.9393C47.2205 14.658 47.602 14.5 47.9998 14.5ZM63.9998 25.5H47.9998C47.602 25.5 47.2205 25.342 46.9392 25.0607C46.6579 24.7794 46.4998 24.3978 46.4998 24V22.5H65.4998V24C65.4998 24.3978 65.3418 24.7794 65.0605 25.0607C64.7792 25.342 64.3977 25.5 63.9998 25.5ZM65.4998 16V19.5H61.4998V14.5H63.9998C64.3977 14.5 64.7792 14.658 65.0605 14.9393C65.3418 15.2206 65.4998 15.6022 65.4998 16Z" fill="white"/>
</g>
<defs>
<clipPath id="clip0_27_6490">
<rect width="72" height="32" rx="5" fill="white"/>
</clipPath>
</defs>
</svg>
