<svg width="72" height="32" viewBox="0 0 72 32" fill="none" xmlns="http://www.w3.org/2000/svg">
<g clip-path="url(#clip0_27_2069)">
<path d="M28 27C28 27.2652 27.8946 27.5196 27.7071 27.7071C27.5196 27.8946 27.2652 28 27 28H5C4.73478 28 4.48043 27.8946 4.29289 27.7071C4.10536 27.5196 4 27.2652 4 27C4 26.7348 4.10536 26.4804 4.29289 26.2929C4.48043 26.1054 4.73478 26 5 26H11V17H10C7.87898 16.9977 5.84549 16.1541 4.3457 14.6543C2.84591 13.1545 2.00232 11.121 2 9C2.00232 8.20333 2.3205 7.4401 2.88477 6.87771C3.44904 6.31531 4.21333 5.99967 5.01 6H5.06C5.83943 6.00099 6.58666 6.31106 7.1378 6.8622C7.68894 7.41334 7.99901 8.16057 8 8.94V9C8 9.53043 8.21071 10.0391 8.58579 10.4142C8.96086 10.7893 9.46957 11 10 11H11V7C11 5.67392 11.5268 4.40215 12.4645 3.46447C13.4021 2.52678 14.6739 2 16 2C17.3261 2 18.5979 2.52678 19.5355 3.46447C20.4732 4.40215 21 5.67392 21 7V16H22C22.5304 16 23.0391 15.7893 23.4142 15.4142C23.7893 15.0391 24 14.5304 24 14V13.94C24.001 13.1606 24.3111 12.4133 24.8622 11.8622C25.4133 11.3111 26.1606 11.001 26.94 11H26.99C27.7867 10.9997 28.551 11.3153 29.1152 11.8777C29.6795 12.4401 29.9977 13.2033 30 14C29.9977 16.121 29.1541 18.1545 27.6543 19.6543C26.1545 21.1541 24.121 21.9977 22 22H21V26H27C27.2652 26 27.5196 26.1054 27.7071 26.2929C27.8946 26.4804 28 26.7348 28 27Z" fill="white"/>
<path d="M67 25.5H61.5V23.5C63.8861 23.4974 66.1738 22.5483 67.861 20.861C69.5483 19.1738 70.4974 16.8861 70.5 14.5C70.5 13.4391 70.0786 12.4217 69.3284 11.6716C68.5783 10.9214 67.5609 10.5 66.5 10.5C65.4391 10.5 64.4217 10.9214 63.6716 11.6716C62.9214 12.4217 62.5 13.4391 62.5 14.5C62.5 14.7652 62.3946 15.0196 62.2071 15.2071C62.0196 15.3946 61.7652 15.5 61.5 15.5V7C61.5 5.54131 60.9205 4.14236 59.8891 3.11091C58.8576 2.07946 57.4587 1.5 56 1.5C54.5413 1.5 53.1424 2.07946 52.1109 3.11091C51.0795 4.14236 50.5 5.54131 50.5 7V10.5C50.2348 10.5 49.9804 10.3946 49.7929 10.2071C49.6054 10.0196 49.5 9.76522 49.5 9.5C49.5 8.43913 49.0786 7.42172 48.3284 6.67157C47.5783 5.92143 46.5609 5.5 45.5 5.5C44.4391 5.5 43.4217 5.92143 42.6716 6.67157C41.9214 7.42172 41.5 8.43913 41.5 9.5C41.5026 11.8861 42.4517 14.1738 44.139 15.861C45.8262 17.5483 48.1139 18.4974 50.5 18.5V25.5H45C44.6022 25.5 44.2206 25.658 43.9393 25.9393C43.658 26.2206 43.5 26.6022 43.5 27C43.5 27.3978 43.658 27.7794 43.9393 28.0607C44.2206 28.342 44.6022 28.5 45 28.5H67C67.3978 28.5 67.7794 28.342 68.0607 28.0607C68.342 27.7794 68.5 27.3978 68.5 27C68.5 26.6022 68.342 26.2206 68.0607 25.9393C67.7794 25.658 67.3978 25.5 67 25.5ZM52 15.5H50.5C48.9092 15.4983 47.384 14.8657 46.2592 13.7408C45.1343 12.616 44.5017 11.0908 44.5 9.5C44.5 9.23478 44.6054 8.98043 44.7929 8.79289C44.9804 8.60536 45.2348 8.5 45.5 8.5C45.7652 8.5 46.0196 8.60536 46.2071 8.79289C46.3946 8.98043 46.5 9.23478 46.5 9.5C46.5 10.5609 46.9214 11.5783 47.6716 12.3284C48.4217 13.0786 49.4391 13.5 50.5 13.5H52C52.3978 13.5 52.7794 13.342 53.0607 13.0607C53.342 12.7794 53.5 12.3978 53.5 12V7C53.5 6.33696 53.7634 5.70107 54.2322 5.23223C54.7011 4.76339 55.337 4.5 56 4.5C56.663 4.5 57.2989 4.76339 57.7678 5.23223C58.2366 5.70107 58.5 6.33696 58.5 7V17C58.5 17.3978 58.658 17.7794 58.9393 18.0607C59.2206 18.342 59.6022 18.5 60 18.5H61.5C62.5609 18.5 63.5783 18.0786 64.3284 17.3284C65.0786 16.5783 65.5 15.5609 65.5 14.5C65.5 14.2348 65.6054 13.9804 65.7929 13.7929C65.9804 13.6054 66.2348 13.5 66.5 13.5C66.7652 13.5 67.0196 13.6054 67.2071 13.7929C67.3946 13.9804 67.5 14.2348 67.5 14.5C67.4983 16.0908 66.8657 17.616 65.7408 18.7408C64.616 19.8657 63.0908 20.4983 61.5 20.5H60C59.6022 20.5 59.2206 20.658 58.9393 20.9393C58.658 21.2206 58.5 21.6022 58.5 22V25.5H53.5V17C53.5 16.6022 53.342 16.2206 53.0607 15.9393C52.7794 15.658 52.3978 15.5 52 15.5Z" fill="white"/>
</g>
<defs>
<clipPath id="clip0_27_2069">
<rect width="72" height="32" rx="5" fill="white"/>
</clipPath>
</defs>
</svg>
