<svg width="72" height="32" viewBox="0 0 72 32" fill="none" xmlns="http://www.w3.org/2000/svg">
<g clip-path="url(#clip0_27_921)">
<path d="M26 11H17V9.87501C17.8583 9.65206 18.6185 9.15072 19.1613 8.4495C19.7042 7.74829 19.9992 6.88681 20 6.00001C20 2.50001 16.695 0.261259 16.555 0.167509C16.3907 0.0578698 16.1975 -0.000640869 16 -0.000640869C15.8025 -0.000640869 15.6093 0.0578698 15.445 0.167509C15.305 0.261259 12 2.50001 12 6.00001C12.0008 6.88681 12.2958 7.74829 12.8387 8.4495C13.3815 9.15072 14.1417 9.65206 15 9.87501V11H6C5.20435 11 4.44129 11.3161 3.87868 11.8787C3.31607 12.4413 3 13.2044 3 14V16.9163C3.00103 18.0072 3.35148 19.069 4 19.9463V25C4 25.7957 4.31607 26.5587 4.87868 27.1213C5.44129 27.6839 6.20435 28 7 28H25C25.7956 28 26.5587 27.6839 27.1213 27.1213C27.6839 26.5587 28 25.7957 28 25V19.9463C28.6485 19.069 28.999 18.0072 29 16.9163V14C29 13.2044 28.6839 12.4413 28.1213 11.8787C27.5587 11.3161 26.7956 11 26 11ZM14 6.00001C14 4.30376 15.25 2.94251 16 2.27626C16.75 2.94251 18 4.30376 18 6.00001C18 6.53044 17.7893 7.03915 17.4142 7.41422C17.0391 7.7893 16.5304 8.00001 16 8.00001C15.4696 8.00001 14.9609 7.7893 14.5858 7.41422C14.2107 7.03915 14 6.53044 14 6.00001ZM27 16.9163C27 18.5725 25.6925 19.955 24.085 19.9988C23.684 20.0101 23.2849 19.941 22.9111 19.7954C22.5374 19.6498 22.1966 19.4307 21.909 19.1511C21.6213 18.8716 21.3927 18.5371 21.2366 18.1677C21.0805 17.7982 21 17.4011 21 17C21 16.7348 20.8946 16.4804 20.7071 16.2929C20.5196 16.1054 20.2652 16 20 16C19.7348 16 19.4804 16.1054 19.2929 16.2929C19.1054 16.4804 19 16.7348 19 17C19 17.7957 18.6839 18.5587 18.1213 19.1213C17.5587 19.6839 16.7956 20 16 20C15.2044 20 14.4413 19.6839 13.8787 19.1213C13.3161 18.5587 13 17.7957 13 17C13 16.7348 12.8946 16.4804 12.7071 16.2929C12.5196 16.1054 12.2652 16 12 16C11.7348 16 11.4804 16.1054 11.2929 16.2929C11.1054 16.4804 11 16.7348 11 17C11.0002 17.4012 10.9198 17.7984 10.7638 18.168C10.6077 18.5377 10.3791 18.8722 10.0915 19.152C9.80384 19.4317 9.46302 19.6508 9.08917 19.7965C8.71533 19.9422 8.31606 20.0114 7.915 20C6.3075 19.955 5 18.5725 5 16.9163V14C5 13.7348 5.10536 13.4804 5.29289 13.2929C5.48043 13.1054 5.73478 13 6 13H26C26.2652 13 26.5196 13.1054 26.7071 13.2929C26.8946 13.4804 27 13.7348 27 14V16.9163Z" fill="white"/>
<path d="M69.5 14C69.5 13.5404 69.4095 13.0853 69.2336 12.6606C69.0577 12.236 68.7999 11.8501 68.4749 11.5251C68.1499 11.2001 67.764 10.9423 67.3394 10.7664C66.9148 10.5905 66.4596 10.5 66 10.5H57.5V10.2425C58.3766 9.93122 59.1355 9.35641 59.6726 8.59687C60.2097 7.83733 60.4987 6.93026 60.5 6.00001C60.5 2.11751 56.8275 0.236257 56.6712 0.158757C56.4629 0.0544763 56.233 0.000183105 56 0.000183105C55.767 0.000183105 55.5371 0.0544763 55.3287 0.158757C55.1725 0.236257 51.5 2.11751 51.5 6.00001C51.5013 6.93026 51.7903 7.83733 52.3274 8.59687C52.8645 9.35641 53.6234 9.93122 54.5 10.2425V10.5H46C45.0717 10.5 44.1815 10.8688 43.5251 11.5251C42.8687 12.1815 42.5 13.0717 42.5 14V16.9163C42.5007 18.0554 42.8497 19.1672 43.5 20.1025V25C43.5 25.9283 43.8687 26.8185 44.5251 27.4749C45.1815 28.1313 46.0717 28.5 47 28.5H65C65.9283 28.5 66.8185 28.1313 67.4749 27.4749C68.1313 26.8185 68.5 25.9283 68.5 25V20.1025C69.1503 19.1672 69.4993 18.0554 69.5 16.9163V14ZM55.5 3.74126C55.6571 3.58213 55.8241 3.43308 56 3.29501C56.1762 3.43276 56.3432 3.58182 56.5 3.74126C57.1663 4.43126 57.5 5.19126 57.5 6.00001C57.5 6.39783 57.342 6.77936 57.0607 7.06067C56.7794 7.34197 56.3978 7.50001 56 7.50001C55.6022 7.50001 55.2206 7.34197 54.9393 7.06067C54.658 6.77936 54.5 6.39783 54.5 6.00001C54.5 5.19126 54.8387 4.43126 55.5 3.74126ZM45.5 14C45.5 13.8674 45.5527 13.7402 45.6464 13.6465C45.7402 13.5527 45.8674 13.5 46 13.5H66C66.1326 13.5 66.2598 13.5527 66.3536 13.6465C66.4473 13.7402 66.5 13.8674 66.5 14V16.9163C66.5 18.3038 65.41 19.4625 64.0713 19.4988C63.7371 19.5083 63.4044 19.4507 63.0929 19.3294C62.7814 19.2081 62.4974 19.0256 62.2577 18.7926C62.018 18.5597 61.8274 18.281 61.6972 17.9731C61.5671 17.6652 61.5 17.3343 61.5 17C61.5 16.6022 61.342 16.2207 61.0607 15.9393C60.7794 15.658 60.3978 15.5 60 15.5C59.6022 15.5 59.2206 15.658 58.9393 15.9393C58.658 16.2207 58.5 16.6022 58.5 17C58.5 17.663 58.2366 18.2989 57.7678 18.7678C57.2989 19.2366 56.663 19.5 56 19.5C55.337 19.5 54.7011 19.2366 54.2322 18.7678C53.7634 18.2989 53.5 17.663 53.5 17C53.5 16.6022 53.342 16.2207 53.0607 15.9393C52.7794 15.658 52.3978 15.5 52 15.5C51.6022 15.5 51.2206 15.658 50.9393 15.9393C50.658 16.2207 50.5 16.6022 50.5 17C50.5001 17.3344 50.4332 17.6654 50.3031 17.9735C50.1731 18.2815 49.9825 18.5603 49.7428 18.7934C49.503 19.0266 49.2189 19.2092 48.9074 19.3306C48.5958 19.4519 48.263 19.5095 47.9288 19.5C46.59 19.4625 45.5 18.3038 45.5 16.9163V14ZM65 25.5H47C46.8674 25.5 46.7402 25.4473 46.6464 25.3536C46.5527 25.2598 46.5 25.1326 46.5 25V22.2863C46.9378 22.4148 47.3902 22.4867 47.8463 22.5C48.5816 22.5229 49.3139 22.397 49.9994 22.1298C50.6848 21.8625 51.3092 21.4596 51.835 20.945C51.8925 20.89 51.9475 20.8325 52.0013 20.7763C52.5154 21.321 53.1354 21.755 53.8232 22.0517C54.511 22.3483 55.2522 22.5013 56.0012 22.5013C56.7503 22.5013 57.4915 22.3483 58.1793 22.0517C58.8671 21.755 59.4871 21.321 60.0012 20.7763C60.055 20.8325 60.11 20.89 60.1675 20.945C61.1915 21.9461 62.568 22.5046 64 22.5H64.1562C64.6115 22.4864 65.0631 22.4146 65.5 22.2863V25C65.5 25.1326 65.4473 25.2598 65.3536 25.3536C65.2598 25.4473 65.1326 25.5 65 25.5Z" fill="white"/>
</g>
<defs>
<clipPath id="clip0_27_921">
<rect width="72" height="32" rx="5" fill="white"/>
</clipPath>
</defs>
</svg>
