<svg width="72" height="32" viewBox="0 0 72 32" fill="none" xmlns="http://www.w3.org/2000/svg">
<g clip-path="url(#clip0_27_4203)">
<path d="M26 4H23V3C23 2.73478 22.8946 2.48043 22.7071 2.29289C22.5196 2.10536 22.2652 2 22 2C21.7348 2 21.4804 2.10536 21.2929 2.29289C21.1054 2.48043 21 2.73478 21 3V4H11V3C11 2.73478 10.8946 2.48043 10.7071 2.29289C10.5196 2.10536 10.2652 2 10 2C9.73478 2 9.48043 2.10536 9.29289 2.29289C9.10536 2.48043 9 2.73478 9 3V4H6C5.46957 4 4.96086 4.21071 4.58579 4.58579C4.21071 4.96086 4 5.46957 4 6V26C4 26.5304 4.21071 27.0391 4.58579 27.4142C4.96086 27.7893 5.46957 28 6 28H26C26.5304 28 27.0391 27.7893 27.4142 27.4142C27.7893 27.0391 28 26.5304 28 26V6C28 5.46957 27.7893 4.96086 27.4142 4.58579C27.0391 4.21071 26.5304 4 26 4ZM16 21C15.6044 21 15.2178 20.8827 14.8889 20.6629C14.56 20.4432 14.3036 20.1308 14.1522 19.7654C14.0009 19.3999 13.9613 18.9978 14.0384 18.6098C14.1156 18.2219 14.3061 17.8655 14.5858 17.5858C14.8655 17.3061 15.2219 17.1156 15.6098 17.0384C15.9978 16.9613 16.3999 17.0009 16.7654 17.1522C17.1308 17.3036 17.4432 17.56 17.6629 17.8889C17.8827 18.2178 18 18.6044 18 19C18 19.5304 17.7893 20.0391 17.4142 20.4142C17.0391 20.7893 16.5304 21 16 21ZM26 10H6V6H9V7C9 7.26522 9.10536 7.51957 9.29289 7.70711C9.48043 7.89464 9.73478 8 10 8C10.2652 8 10.5196 7.89464 10.7071 7.70711C10.8946 7.51957 11 7.26522 11 7V6H21V7C21 7.26522 21.1054 7.51957 21.2929 7.70711C21.4804 7.89464 21.7348 8 22 8C22.2652 8 22.5196 7.89464 22.7071 7.70711C22.8946 7.51957 23 7.26522 23 7V6H26V10Z" fill="white"/>
<path d="M58.5 19C58.5 19.4945 58.3534 19.9778 58.0787 20.3889C57.804 20.8 57.4135 21.1205 56.9567 21.3097C56.4999 21.4989 55.9972 21.5484 55.5123 21.452C55.0273 21.3555 54.5819 21.1174 54.2322 20.7678C53.8826 20.4181 53.6445 19.9727 53.548 19.4877C53.4516 19.0028 53.5011 18.5001 53.6903 18.0433C53.8795 17.5865 54.2 17.196 54.6111 16.9213C55.0222 16.6466 55.5055 16.5 56 16.5C56.663 16.5 57.2989 16.7634 57.7678 17.2322C58.2366 17.7011 58.5 18.337 58.5 19ZM68.5 6V26C68.5 26.663 68.2366 27.2989 67.7678 27.7678C67.2989 28.2366 66.663 28.5 66 28.5H46C45.337 28.5 44.7011 28.2366 44.2322 27.7678C43.7634 27.2989 43.5 26.663 43.5 26V6C43.5 5.33696 43.7634 4.70107 44.2322 4.23223C44.7011 3.76339 45.337 3.5 46 3.5H48.5V3C48.5 2.60218 48.658 2.22064 48.9393 1.93934C49.2206 1.65804 49.6022 1.5 50 1.5C50.3978 1.5 50.7794 1.65804 51.0607 1.93934C51.342 2.22064 51.5 2.60218 51.5 3V3.5H60.5V3C60.5 2.60218 60.658 2.22064 60.9393 1.93934C61.2206 1.65804 61.6022 1.5 62 1.5C62.3978 1.5 62.7794 1.65804 63.0607 1.93934C63.342 2.22064 63.5 2.60218 63.5 3V3.5H66C66.663 3.5 67.2989 3.76339 67.7678 4.23223C68.2366 4.70107 68.5 5.33696 68.5 6ZM46.5 6.5V9.5H65.5V6.5H63.5C63.5 6.89782 63.342 7.27936 63.0607 7.56066C62.7794 7.84196 62.3978 8 62 8C61.6022 8 61.2206 7.84196 60.9393 7.56066C60.658 7.27936 60.5 6.89782 60.5 6.5H51.5C51.5 6.89782 51.342 7.27936 51.0607 7.56066C50.7794 7.84196 50.3978 8 50 8C49.6022 8 49.2206 7.84196 48.9393 7.56066C48.658 7.27936 48.5 6.89782 48.5 6.5H46.5ZM65.5 25.5V12.5H46.5V25.5H65.5Z" fill="white"/>
</g>
<defs>
<clipPath id="clip0_27_4203">
<rect width="72" height="32" rx="5" fill="white"/>
</clipPath>
</defs>
</svg>
