<svg width="72" height="32" viewBox="0 0 72 32" fill="none" xmlns="http://www.w3.org/2000/svg">
<g clip-path="url(#clip0_27_4228)">
<path d="M28 5.99999V23.4462C28.0014 23.5484 27.9715 23.6485 27.9143 23.7331C27.857 23.8177 27.7753 23.8828 27.68 23.9196C27.5847 23.9563 27.4804 23.963 27.3812 23.9387C27.282 23.9145 27.1926 23.8604 27.125 23.7837L14.6 9.99999H26V5.99999H23V6.99999C23.0003 7.13697 22.9724 7.27254 22.9182 7.39831C22.8639 7.52408 22.7844 7.63735 22.6845 7.73111C22.5847 7.82487 22.4666 7.89712 22.3377 7.94337C22.2087 7.98963 22.0717 8.0089 21.935 7.99999C21.6773 7.97789 21.4376 7.85894 21.2641 7.66712C21.0906 7.4753 20.9962 7.22486 21 6.96624V5.99999H10.9637L9.90625 4.83624C9.84082 4.76425 9.79782 4.67474 9.78251 4.57867C9.7672 4.4826 9.78024 4.38415 9.82005 4.29538C9.85985 4.20662 9.92469 4.13139 10.0066 4.07892C10.0885 4.02646 10.184 3.99903 10.2812 3.99999H21V2.99999C20.9997 2.86302 21.0276 2.72744 21.0818 2.60168C21.1361 2.47591 21.2156 2.36264 21.3155 2.26888C21.4153 2.17511 21.5334 2.10287 21.6623 2.05662C21.7913 2.01036 21.9283 1.99109 22.065 1.99999C22.3227 2.0221 22.5624 2.14104 22.7359 2.33286C22.9094 2.52468 23.0038 2.77513 23 3.03374V3.99999H26C26.5304 3.99999 27.0391 4.21071 27.4142 4.58578C27.7893 4.96085 28 5.46956 28 5.99999ZM26.74 26.3275C26.8703 26.4709 26.9561 26.649 26.987 26.8402C27.018 27.0314 26.9928 27.2275 26.9144 27.4046C26.836 27.5817 26.7079 27.7323 26.5456 27.838C26.3832 27.9437 26.1937 28 26 28H6C5.46957 28 4.96086 27.7893 4.58579 27.4142C4.21071 27.0391 4 26.5304 4 26V5.99999C4 5.46956 4.21071 4.96085 4.58579 4.58578C4.96086 4.21071 5.46957 3.99999 6 3.99999C6.13957 3.99983 6.27762 4.02889 6.40529 4.08529C6.53295 4.1417 6.64739 4.2242 6.74125 4.32749L26.74 26.3275ZM9.19375 9.99999L6 6.48624V9.99999H9.19375Z" fill="white"/>
<path d="M47.11 3.99125C46.9694 3.83654 46.7981 3.71293 46.6069 3.62833C46.4158 3.54373 46.209 3.50002 46 3.5C45.337 3.5 44.7011 3.76339 44.2322 4.23223C43.7634 4.70107 43.5 5.33696 43.5 6V26C43.5 26.663 43.7634 27.2989 44.2322 27.7678C44.7011 28.2366 45.337 28.5 46 28.5H66C66.2906 28.5 66.5748 28.4156 66.8183 28.257C67.0618 28.0985 67.254 27.8726 67.3716 27.6069C67.4891 27.3412 67.527 27.0471 67.4806 26.7603C67.4341 26.4734 67.3054 26.2063 67.11 25.9912L47.11 3.99125ZM46.5 25.5V7.78L62.6087 25.5H46.5ZM68.5 6V20.6675C68.5 21.0653 68.342 21.4469 68.0607 21.7282C67.7794 22.0095 67.3978 22.1675 67 22.1675C66.6022 22.1675 66.2206 22.0095 65.9393 21.7282C65.658 21.4469 65.5 21.0653 65.5 20.6675V12.5H58.2113C57.8134 12.5 57.4319 12.342 57.1506 12.0607C56.8693 11.7794 56.7113 11.3978 56.7113 11C56.7113 10.6022 56.8693 10.2206 57.1506 9.93934C57.4319 9.65804 57.8134 9.5 58.2113 9.5H65.5V6.5H63.5C63.5 6.89782 63.342 7.27936 63.0607 7.56066C62.7794 7.84196 62.3978 8 62 8C61.6022 8 61.2206 7.84196 60.9393 7.56066C60.658 7.27936 60.5 6.89782 60.5 6.5H52.7575C52.3597 6.5 51.9781 6.34196 51.6968 6.06066C51.4155 5.77936 51.2575 5.39782 51.2575 5C51.2575 4.60218 51.4155 4.22064 51.6968 3.93934C51.9781 3.65804 52.3597 3.5 52.7575 3.5H60.5V3C60.5 2.60218 60.658 2.22064 60.9393 1.93934C61.2206 1.65804 61.6022 1.5 62 1.5C62.3978 1.5 62.7794 1.65804 63.0607 1.93934C63.342 2.22064 63.5 2.60218 63.5 3V3.5H66C66.663 3.5 67.2989 3.76339 67.7678 4.23223C68.2366 4.70107 68.5 5.33696 68.5 6Z" fill="white"/>
</g>
<defs>
<clipPath id="clip0_27_4228">
<rect width="72" height="32" rx="5" fill="white"/>
</clipPath>
</defs>
</svg>
