<svg width="72" height="32" viewBox="0 0 72 32" fill="none" xmlns="http://www.w3.org/2000/svg">
<g clip-path="url(#clip0_27_4213)">
<path d="M26 4H23V3C23 2.73478 22.8946 2.48043 22.7071 2.29289C22.5196 2.10536 22.2652 2 22 2C21.7348 2 21.4804 2.10536 21.2929 2.29289C21.1054 2.48043 21 2.73478 21 3V4H11V3C11 2.73478 10.8946 2.48043 10.7071 2.29289C10.5196 2.10536 10.2652 2 10 2C9.73478 2 9.48043 2.10536 9.29289 2.29289C9.10536 2.48043 9 2.73478 9 3V4H6C5.46957 4 4.96086 4.21071 4.58579 4.58579C4.21071 4.96086 4 5.46957 4 6V26C4 26.5304 4.21071 27.0391 4.58579 27.4142C4.96086 27.7893 5.46957 28 6 28H26C26.5304 28 27.0391 27.7893 27.4142 27.4142C27.7893 27.0391 28 26.5304 28 26V6C28 5.46957 27.7893 4.96086 27.4142 4.58579C27.0391 4.21071 26.5304 4 26 4ZM9 8V7C9 6.73478 9.10536 6.48043 9.29289 6.29289C9.48043 6.10536 9.73478 6 10 6C10.2652 6 10.5196 6.10536 10.7071 6.29289C10.8946 6.48043 11 6.73478 11 7V8C11 8.26522 10.8946 8.51957 10.7071 8.70711C10.5196 8.89464 10.2652 9 10 9C9.73478 9 9.48043 8.89464 9.29289 8.70711C9.10536 8.51957 9 8.26522 9 8ZM19.32 20.8838C18.3622 21.6771 17.3246 22.3688 16.2237 22.9475C16.1543 22.9823 16.0777 23.0004 16 23.0004C15.9223 23.0004 15.8457 22.9823 15.7762 22.9475C14.6754 22.3688 13.6378 21.6771 12.68 20.8838C10.57 19.125 9.5 17.3138 9.5 15.5C9.50033 14.7349 9.75136 13.991 10.2147 13.3821C10.678 12.7732 11.328 12.333 12.0653 12.1286C12.8026 11.9243 13.5866 11.9672 14.2972 12.2508C15.0078 12.5344 15.6059 13.043 16 13.6987C16.3941 13.043 16.9922 12.5344 17.7028 12.2508C18.4134 11.9672 19.1974 11.9243 19.9347 12.1286C20.672 12.333 21.322 12.7732 21.7853 13.3821C22.2486 13.991 22.4997 14.7349 22.5 15.5C22.5 17.3138 21.43 19.125 19.32 20.8838ZM23 8C23 8.26522 22.8946 8.51957 22.7071 8.70711C22.5196 8.89464 22.2652 9 22 9C21.7348 9 21.4804 8.89464 21.2929 8.70711C21.1054 8.51957 21 8.26522 21 8V7C21 6.73478 21.1054 6.48043 21.2929 6.29289C21.4804 6.10536 21.7348 6 22 6C22.2652 6 22.5196 6.10536 22.7071 6.29289C22.8946 6.48043 23 6.73478 23 7V8Z" fill="white"/>
<path d="M66 3.5H63.5V3C63.5 2.60218 63.342 2.22064 63.0607 1.93934C62.7794 1.65804 62.3978 1.5 62 1.5C61.6022 1.5 61.2206 1.65804 60.9393 1.93934C60.658 2.22064 60.5 2.60218 60.5 3V3.5H51.5V3C51.5 2.60218 51.342 2.22064 51.0607 1.93934C50.7794 1.65804 50.3978 1.5 50 1.5C49.6022 1.5 49.2206 1.65804 48.9393 1.93934C48.658 2.22064 48.5 2.60218 48.5 3V3.5H46C45.337 3.5 44.7011 3.76339 44.2322 4.23223C43.7634 4.70107 43.5 5.33696 43.5 6V26C43.5 26.663 43.7634 27.2989 44.2322 27.7678C44.7011 28.2366 45.337 28.5 46 28.5H66C66.663 28.5 67.2989 28.2366 67.7678 27.7678C68.2366 27.2989 68.5 26.663 68.5 26V6C68.5 5.33696 68.2366 4.70107 67.7678 4.23223C67.2989 3.76339 66.663 3.5 66 3.5ZM65.5 25.5H46.5V6.5H48.5C48.5 6.89782 48.658 7.27936 48.9393 7.56066C49.2206 7.84196 49.6022 8 50 8C50.3978 8 50.7794 7.84196 51.0607 7.56066C51.342 7.27936 51.5 6.89782 51.5 6.5H60.5C60.5 6.89782 60.658 7.27936 60.9393 7.56066C61.2206 7.84196 61.6022 8 62 8C62.3978 8 62.7794 7.84196 63.0607 7.56066C63.342 7.27936 63.5 6.89782 63.5 6.5H65.5V25.5ZM59 10.5C57.8924 10.4991 56.8237 10.9083 56 11.6488C55.3527 11.0698 54.5517 10.6905 53.6936 10.5566C52.8356 10.4228 51.9571 10.5401 51.1642 10.8944C50.3713 11.2486 49.6979 11.8248 49.2251 12.5533C48.7524 13.2818 48.5006 14.1316 48.5 15C48.5 17.125 49.6912 19.195 52.04 21.1525C53.0569 21.9948 54.1592 22.7283 55.3287 23.3412C55.5371 23.4455 55.767 23.4998 56 23.4998C56.233 23.4998 56.4629 23.4455 56.6712 23.3412C57.8408 22.7283 58.9431 21.9948 59.96 21.1525C62.3088 19.195 63.5 17.125 63.5 15C63.5 13.8065 63.0259 12.6619 62.182 11.818C61.3381 10.9741 60.1935 10.5 59 10.5ZM56 20.2862C54.3562 19.3037 51.5 17.1537 51.5 15C51.5 14.6022 51.658 14.2206 51.9393 13.9393C52.2206 13.658 52.6022 13.5 53 13.5C53.3978 13.5 53.7794 13.658 54.0607 13.9393C54.342 14.2206 54.5 14.6022 54.5 15C54.5 15.3978 54.658 15.7794 54.9393 16.0607C55.2206 16.342 55.6022 16.5 56 16.5C56.3978 16.5 56.7794 16.342 57.0607 16.0607C57.342 15.7794 57.5 15.3978 57.5 15C57.5 14.6022 57.658 14.2206 57.9393 13.9393C58.2206 13.658 58.6022 13.5 59 13.5C59.3978 13.5 59.7794 13.658 60.0607 13.9393C60.342 14.2206 60.5 14.6022 60.5 15C60.5 17.1537 57.6425 19.305 56 20.2862Z" fill="white"/>
</g>
<defs>
<clipPath id="clip0_27_4213">
<rect width="72" height="32" rx="5" fill="white"/>
</clipPath>
</defs>
</svg>
