<svg width="72" height="32" viewBox="0 0 72 32" fill="none" xmlns="http://www.w3.org/2000/svg">
<g clip-path="url(#clip0_27_4208)">
<path d="M26 4H23V3C23 2.73478 22.8946 2.48043 22.7071 2.29289C22.5196 2.10536 22.2652 2 22 2C21.7348 2 21.4804 2.10536 21.2929 2.29289C21.1054 2.48043 21 2.73478 21 3V4H11V3C11 2.73478 10.8946 2.48043 10.7071 2.29289C10.5196 2.10536 10.2652 2 10 2C9.73478 2 9.48043 2.10536 9.29289 2.29289C9.10536 2.48043 9 2.73478 9 3V4H6C5.46957 4 4.96086 4.21071 4.58579 4.58579C4.21071 4.96086 4 5.46957 4 6V26C4 26.5304 4.21071 27.0391 4.58579 27.4142C4.96086 27.7893 5.46957 28 6 28H26C26.5304 28 27.0391 27.7893 27.4142 27.4142C27.7893 27.0391 28 26.5304 28 26V6C28 5.46957 27.7893 4.96086 27.4142 4.58579C27.0391 4.21071 26.5304 4 26 4ZM10.5 23C10.2033 23 9.91332 22.912 9.66665 22.7472C9.41997 22.5824 9.22771 22.3481 9.11418 22.074C9.00065 21.7999 8.97094 21.4983 9.02882 21.2074C9.0867 20.9164 9.22956 20.6491 9.43934 20.4393C9.64912 20.2296 9.91639 20.0867 10.2074 20.0288C10.4983 19.9709 10.7999 20.0007 11.074 20.1142C11.3481 20.2277 11.5824 20.42 11.7472 20.6666C11.912 20.9133 12 21.2033 12 21.5C12 21.8978 11.842 22.2794 11.5607 22.5607C11.2794 22.842 10.8978 23 10.5 23ZM16 23C15.7033 23 15.4133 22.912 15.1666 22.7472C14.92 22.5824 14.7277 22.3481 14.6142 22.074C14.5006 21.7999 14.4709 21.4983 14.5288 21.2074C14.5867 20.9164 14.7296 20.6491 14.9393 20.4393C15.1491 20.2296 15.4164 20.0867 15.7074 20.0288C15.9983 19.9709 16.2999 20.0007 16.574 20.1142C16.8481 20.2277 17.0824 20.42 17.2472 20.6666C17.412 20.9133 17.5 21.2033 17.5 21.5C17.5 21.8978 17.342 22.2794 17.0607 22.5607C16.7794 22.842 16.3978 23 16 23ZM16 18C15.7033 18 15.4133 17.912 15.1666 17.7472C14.92 17.5824 14.7277 17.3481 14.6142 17.074C14.5006 16.7999 14.4709 16.4983 14.5288 16.2074C14.5867 15.9164 14.7296 15.6491 14.9393 15.4393C15.1491 15.2296 15.4164 15.0867 15.7074 15.0288C15.9983 14.9709 16.2999 15.0006 16.574 15.1142C16.8481 15.2277 17.0824 15.42 17.2472 15.6666C17.412 15.9133 17.5 16.2033 17.5 16.5C17.5 16.8978 17.342 17.2794 17.0607 17.5607C16.7794 17.842 16.3978 18 16 18ZM21.5 23C21.2033 23 20.9133 22.912 20.6666 22.7472C20.42 22.5824 20.2277 22.3481 20.1142 22.074C20.0007 21.7999 19.9709 21.4983 20.0288 21.2074C20.0867 20.9164 20.2296 20.6491 20.4393 20.4393C20.6491 20.2296 20.9164 20.0867 21.2074 20.0288C21.4983 19.9709 21.7999 20.0007 22.074 20.1142C22.3481 20.2277 22.5824 20.42 22.7472 20.6666C22.912 20.9133 23 21.2033 23 21.5C23 21.8978 22.842 22.2794 22.5607 22.5607C22.2794 22.842 21.8978 23 21.5 23ZM21.5 18C21.2033 18 20.9133 17.912 20.6666 17.7472C20.42 17.5824 20.2277 17.3481 20.1142 17.074C20.0007 16.7999 19.9709 16.4983 20.0288 16.2074C20.0867 15.9164 20.2296 15.6491 20.4393 15.4393C20.6491 15.2296 20.9164 15.0867 21.2074 15.0288C21.4983 14.9709 21.7999 15.0006 22.074 15.1142C22.3481 15.2277 22.5824 15.42 22.7472 15.6666C22.912 15.9133 23 16.2033 23 16.5C23 16.8978 22.842 17.2794 22.5607 17.5607C22.2794 17.842 21.8978 18 21.5 18ZM26 10H6V6H9V7C9 7.26522 9.10536 7.51957 9.29289 7.70711C9.48043 7.89464 9.73478 8 10 8C10.2652 8 10.5196 7.89464 10.7071 7.70711C10.8946 7.51957 11 7.26522 11 7V6H21V7C21 7.26522 21.1054 7.51957 21.2929 7.70711C21.4804 7.89464 21.7348 8 22 8C22.2652 8 22.5196 7.89464 22.7071 7.70711C22.8946 7.51957 23 7.26522 23 7V6H26V10Z" fill="white"/>
<path d="M66 3.5H63.5V3C63.5 2.60218 63.342 2.22064 63.0607 1.93934C62.7794 1.65804 62.3978 1.5 62 1.5C61.6022 1.5 61.2206 1.65804 60.9393 1.93934C60.658 2.22064 60.5 2.60218 60.5 3V3.5H51.5V3C51.5 2.60218 51.342 2.22064 51.0607 1.93934C50.7794 1.65804 50.3978 1.5 50 1.5C49.6022 1.5 49.2206 1.65804 48.9393 1.93934C48.658 2.22064 48.5 2.60218 48.5 3V3.5H46C45.337 3.5 44.7011 3.76339 44.2322 4.23223C43.7634 4.70107 43.5 5.33696 43.5 6V26C43.5 26.663 43.7634 27.2989 44.2322 27.7678C44.7011 28.2366 45.337 28.5 46 28.5H66C66.663 28.5 67.2989 28.2366 67.7678 27.7678C68.2366 27.2989 68.5 26.663 68.5 26V6C68.5 5.33696 68.2366 4.70107 67.7678 4.23223C67.2989 3.76339 66.663 3.5 66 3.5ZM48.5 6.5C48.5 6.89782 48.658 7.27936 48.9393 7.56066C49.2206 7.84196 49.6022 8 50 8C50.3978 8 50.7794 7.84196 51.0607 7.56066C51.342 7.27936 51.5 6.89782 51.5 6.5H60.5C60.5 6.89782 60.658 7.27936 60.9393 7.56066C61.2206 7.84196 61.6022 8 62 8C62.3978 8 62.7794 7.84196 63.0607 7.56066C63.342 7.27936 63.5 6.89782 63.5 6.5H65.5V9.5H46.5V6.5H48.5ZM46.5 25.5V12.5H65.5V25.5H46.5ZM58 16C58 16.3956 57.8827 16.7822 57.6629 17.1111C57.4432 17.44 57.1308 17.6964 56.7654 17.8478C56.3999 17.9991 55.9978 18.0387 55.6098 17.9616C55.2219 17.8844 54.8655 17.6939 54.5858 17.4142C54.3061 17.1345 54.1156 16.7781 54.0384 16.3902C53.9613 16.0022 54.0009 15.6001 54.1522 15.2346C54.3036 14.8692 54.56 14.5568 54.8889 14.3371C55.2178 14.1173 55.6044 14 56 14C56.5304 14 57.0391 14.2107 57.4142 14.5858C57.7893 14.9609 58 15.4696 58 16ZM64 16C64 16.3956 63.8827 16.7822 63.6629 17.1111C63.4432 17.44 63.1308 17.6964 62.7654 17.8478C62.3999 17.9991 61.9978 18.0387 61.6098 17.9616C61.2219 17.8844 60.8655 17.6939 60.5858 17.4142C60.3061 17.1345 60.1156 16.7781 60.0384 16.3902C59.9613 16.0022 60.0009 15.6001 60.1522 15.2346C60.3036 14.8692 60.56 14.5568 60.8889 14.3371C61.2178 14.1173 61.6044 14 62 14C62.5304 14 63.0391 14.2107 63.4142 14.5858C63.7893 14.9609 64 15.4696 64 16ZM52 22C52 22.3956 51.8827 22.7822 51.6629 23.1111C51.4432 23.44 51.1308 23.6964 50.7654 23.8478C50.3999 23.9991 49.9978 24.0387 49.6098 23.9616C49.2219 23.8844 48.8655 23.6939 48.5858 23.4142C48.3061 23.1345 48.1156 22.7781 48.0384 22.3902C47.9613 22.0022 48.0009 21.6001 48.1522 21.2346C48.3036 20.8692 48.56 20.5568 48.8889 20.3371C49.2178 20.1173 49.6044 20 50 20C50.5304 20 51.0391 20.2107 51.4142 20.5858C51.7893 20.9609 52 21.4696 52 22ZM58 22C58 22.3956 57.8827 22.7822 57.6629 23.1111C57.4432 23.44 57.1308 23.6964 56.7654 23.8478C56.3999 23.9991 55.9978 24.0387 55.6098 23.9616C55.2219 23.8844 54.8655 23.6939 54.5858 23.4142C54.3061 23.1345 54.1156 22.7781 54.0384 22.3902C53.9613 22.0022 54.0009 21.6001 54.1522 21.2346C54.3036 20.8692 54.56 20.5568 54.8889 20.3371C55.2178 20.1173 55.6044 20 56 20C56.5304 20 57.0391 20.2107 57.4142 20.5858C57.7893 20.9609 58 21.4696 58 22ZM64 22C64 22.3956 63.8827 22.7822 63.6629 23.1111C63.4432 23.44 63.1308 23.6964 62.7654 23.8478C62.3999 23.9991 61.9978 24.0387 61.6098 23.9616C61.2219 23.8844 60.8655 23.6939 60.5858 23.4142C60.3061 23.1345 60.1156 22.7781 60.0384 22.3902C59.9613 22.0022 60.0009 21.6001 60.1522 21.2346C60.3036 20.8692 60.56 20.5568 60.8889 20.3371C61.2178 20.1173 61.6044 20 62 20C62.5304 20 63.0391 20.2107 63.4142 20.5858C63.7893 20.9609 64 21.4696 64 22Z" fill="white"/>
</g>
<defs>
<clipPath id="clip0_27_4208">
<rect width="72" height="32" rx="5" fill="white"/>
</clipPath>
</defs>
</svg>
