<svg width="72" height="32" viewBox="0 0 72 32" fill="none" xmlns="http://www.w3.org/2000/svg">
<g clip-path="url(#clip0_27_4188)">
<path d="M26 4H23V3C23 2.73478 22.8946 2.48043 22.7071 2.29289C22.5196 2.10536 22.2652 2 22 2C21.7348 2 21.4804 2.10536 21.2929 2.29289C21.1054 2.48043 21 2.73478 21 3V4H11V3C11 2.73478 10.8946 2.48043 10.7071 2.29289C10.5196 2.10536 10.2652 2 10 2C9.73478 2 9.48043 2.10536 9.29289 2.29289C9.10536 2.48043 9 2.73478 9 3V4H6C5.46957 4 4.96086 4.21071 4.58579 4.58579C4.21071 4.96086 4 5.46957 4 6V26C4 26.5304 4.21071 27.0391 4.58579 27.4142C4.96086 27.7893 5.46957 28 6 28H26C26.5304 28 27.0391 27.7893 27.4142 27.4142C27.7893 27.0391 28 26.5304 28 26V6C28 5.46957 27.7893 4.96086 27.4142 4.58579C27.0391 4.21071 26.5304 4 26 4ZM14 23C14 23.2652 13.8946 23.5196 13.7071 23.7071C13.5196 23.8946 13.2652 24 13 24C12.7348 24 12.4804 23.8946 12.2929 23.7071C12.1054 23.5196 12 23.2652 12 23V16.6175L11.4475 16.895C11.2101 17.0137 10.9353 17.0332 10.6836 16.9493C10.4318 16.8654 10.2237 16.6849 10.105 16.4475C9.98632 16.2101 9.96679 15.9353 10.0507 15.6836C10.1346 15.4318 10.3151 15.2237 10.5525 15.105L12.5525 14.105C12.705 14.0287 12.8745 13.9926 13.0449 14.0003C13.2153 14.0079 13.3808 14.059 13.5259 14.1487C13.671 14.2384 13.7907 14.3637 13.8736 14.5127C13.9566 14.6617 14.0001 14.8295 14 15V23ZM21 22C21.2652 22 21.5196 22.1054 21.7071 22.2929C21.8946 22.4804 22 22.7348 22 23C22 23.2652 21.8946 23.5196 21.7071 23.7071C21.5196 23.8946 21.2652 24 21 24H17C16.8143 24 16.6322 23.9483 16.4743 23.8507C16.3163 23.753 16.1886 23.6133 16.1056 23.4472C16.0225 23.2811 15.9874 23.0952 16.004 22.9102C16.0207 22.7252 16.0886 22.5486 16.2 22.4L19.7975 17.6038C19.8793 17.4948 19.938 17.3703 19.97 17.2379C20.002 17.1054 20.0066 16.9678 19.9835 16.8336C19.9604 16.6993 19.9101 16.5712 19.8357 16.457C19.7612 16.3429 19.6643 16.2452 19.5508 16.1699C19.4372 16.0945 19.3095 16.0432 19.1754 16.019C19.0413 15.9949 18.9037 15.9983 18.771 16.0292C18.6383 16.0602 18.5134 16.1179 18.4038 16.1988C18.2942 16.2798 18.2023 16.3823 18.1338 16.5C18.07 16.6174 17.9834 16.7208 17.8791 16.8041C17.7748 16.8875 17.6548 16.9491 17.5263 16.9853C17.3977 17.0215 17.2633 17.0316 17.1308 17.0151C16.9983 16.9985 16.8704 16.9555 16.7548 16.8887C16.6391 16.8219 16.5381 16.7327 16.4575 16.6262C16.3769 16.5197 16.3185 16.3981 16.2857 16.2687C16.2528 16.1392 16.2462 16.0045 16.2663 15.8725C16.2864 15.7405 16.3327 15.6138 16.4025 15.5C16.7328 14.9284 17.2425 14.4817 17.8525 14.2291C18.4625 13.9766 19.1388 13.9323 19.7765 14.1032C20.4142 14.2741 20.9778 14.6506 21.3798 15.1743C21.7818 15.6981 21.9998 16.3398 22 17C22.0021 17.6522 21.7895 18.2869 21.395 18.8062L19 22H21ZM6 10V6H9V7C9 7.26522 9.10536 7.51957 9.29289 7.70711C9.48043 7.89464 9.73478 8 10 8C10.2652 8 10.5196 7.89464 10.7071 7.70711C10.8946 7.51957 11 7.26522 11 7V6H21V7C21 7.26522 21.1054 7.51957 21.2929 7.70711C21.4804 7.89464 21.7348 8 22 8C22.2652 8 22.5196 7.89464 22.7071 7.70711C22.8946 7.51957 23 7.26522 23 7V6H26V10H6Z" fill="white"/>
<path d="M66 3.5H63.5V3C63.5 2.60218 63.342 2.22064 63.0607 1.93934C62.7794 1.65804 62.3978 1.5 62 1.5C61.6022 1.5 61.2206 1.65804 60.9393 1.93934C60.658 2.22064 60.5 2.60218 60.5 3V3.5H51.5V3C51.5 2.60218 51.342 2.22064 51.0607 1.93934C50.7794 1.65804 50.3978 1.5 50 1.5C49.6022 1.5 49.2206 1.65804 48.9393 1.93934C48.658 2.22064 48.5 2.60218 48.5 3V3.5H46C45.337 3.5 44.7011 3.76339 44.2322 4.23223C43.7634 4.70107 43.5 5.33696 43.5 6V26C43.5 26.663 43.7634 27.2989 44.2322 27.7678C44.7011 28.2366 45.337 28.5 46 28.5H66C66.663 28.5 67.2989 28.2366 67.7678 27.7678C68.2366 27.2989 68.5 26.663 68.5 26V6C68.5 5.33696 68.2366 4.70107 67.7678 4.23223C67.2989 3.76339 66.663 3.5 66 3.5ZM48.5 6.5C48.5 6.89782 48.658 7.27936 48.9393 7.56066C49.2206 7.84196 49.6022 8 50 8C50.3978 8 50.7794 7.84196 51.0607 7.56066C51.342 7.27936 51.5 6.89782 51.5 6.5H60.5C60.5 6.89782 60.658 7.27936 60.9393 7.56066C61.2206 7.84196 61.6022 8 62 8C62.3978 8 62.7794 7.84196 63.0607 7.56066C63.342 7.27936 63.5 6.89782 63.5 6.5H65.5V9.5H46.5V6.5H48.5ZM46.5 25.5V12.5H65.5V25.5H46.5ZM54 15.5V22.5C54 22.8978 53.842 23.2794 53.5607 23.5607C53.2794 23.842 52.8978 24 52.5 24C52.1022 24 51.7206 23.842 51.4393 23.5607C51.158 23.2794 51 22.8978 51 22.5V17.915C50.6431 18.0321 50.2552 18.0111 49.9131 17.856C49.5709 17.701 49.2994 17.4232 49.1522 17.0776C49.005 16.732 48.9929 16.3437 49.1181 15.9896C49.2434 15.6354 49.497 15.3412 49.8287 15.165L51.8287 14.165C52.057 14.0508 52.3105 13.9967 52.5655 14.0078C52.8204 14.019 53.0683 14.095 53.2857 14.2286C53.503 14.3623 53.6827 14.5492 53.8077 14.7717C53.9327 14.9941 53.9989 15.2448 54 15.5ZM61.6863 19.735L60.4875 21H61C61.3978 21 61.7794 21.158 62.0607 21.4393C62.342 21.7206 62.5 22.1022 62.5 22.5C62.5 22.8978 62.342 23.2794 62.0607 23.5607C61.7794 23.842 61.3978 24 61 24H57C56.7069 23.9999 56.4202 23.9139 56.1754 23.7527C55.9306 23.5914 55.7384 23.362 55.6226 23.0927C55.5068 22.8234 55.4724 22.5261 55.5237 22.2375C55.575 21.9489 55.7097 21.6816 55.9113 21.4688L59.4312 17.75C59.4757 17.6742 59.4995 17.5879 59.5 17.5C59.5003 17.3897 59.4641 17.2824 59.397 17.1948C59.33 17.1072 59.2359 17.0443 59.1293 17.0157C59.0228 16.9872 58.9098 16.9947 58.8079 17.0371C58.7061 17.0795 58.6211 17.1543 58.5662 17.25C58.3635 17.5868 58.0367 17.8305 57.656 17.9287C57.2754 18.0269 56.8715 17.9718 56.5311 17.7753C56.1907 17.5787 55.941 17.2564 55.8359 16.8776C55.7307 16.4988 55.7784 16.0939 55.9688 15.75C56.3539 15.0827 56.9486 14.5611 57.6604 14.2662C58.3723 13.9713 59.1616 13.9196 59.9058 14.119C60.6501 14.3184 61.3078 14.7578 61.7768 15.3692C62.2459 15.9805 62.5001 16.7295 62.5 17.5C62.5023 18.2608 62.2546 19.0012 61.795 19.6075C61.7615 19.6522 61.7251 19.6948 61.6863 19.735Z" fill="white"/>
</g>
<defs>
<clipPath id="clip0_27_4188">
<rect width="72" height="32" rx="5" fill="white"/>
</clipPath>
</defs>
</svg>
