<svg width="72" height="32" viewBox="0 0 72 32" fill="none" xmlns="http://www.w3.org/2000/svg">
<g clip-path="url(#clip0_27_4193)">
<path d="M26 4H23V3C23 2.73478 22.8946 2.48043 22.7071 2.29289C22.5196 2.10536 22.2652 2 22 2C21.7348 2 21.4804 2.10536 21.2929 2.29289C21.1054 2.48043 21 2.73478 21 3V4H11V3C11 2.73478 10.8946 2.48043 10.7071 2.29289C10.5196 2.10536 10.2652 2 10 2C9.73478 2 9.48043 2.10536 9.29289 2.29289C9.10536 2.48043 9 2.73478 9 3V4H6C5.46957 4 4.96086 4.21071 4.58579 4.58579C4.21071 4.96086 4 5.46957 4 6V26C4 26.5304 4.21071 27.0391 4.58579 27.4142C4.96086 27.7893 5.46957 28 6 28H26C26.5304 28 27.0391 27.7893 27.4142 27.4142C27.7893 27.0391 28 26.5304 28 26V6C28 5.46957 27.7893 4.96086 27.4142 4.58579C27.0391 4.21071 26.5304 4 26 4ZM26 10H6V6H9V7C9 7.26522 9.10536 7.51957 9.29289 7.70711C9.48043 7.89464 9.73478 8 10 8C10.2652 8 10.5196 7.89464 10.7071 7.70711C10.8946 7.51957 11 7.26522 11 7V6H21V7C21 7.26522 21.1054 7.51957 21.2929 7.70711C21.4804 7.89464 21.7348 8 22 8C22.2652 8 22.5196 7.89464 22.7071 7.70711C22.8946 7.51957 23 7.26522 23 7V6H26V10Z" fill="white"/>
<path d="M66 3.5H63.5V3C63.5 2.60218 63.342 2.22064 63.0607 1.93934C62.7794 1.65804 62.3978 1.5 62 1.5C61.6022 1.5 61.2206 1.65804 60.9393 1.93934C60.658 2.22064 60.5 2.60218 60.5 3V3.5H51.5V3C51.5 2.60218 51.342 2.22064 51.0607 1.93934C50.7794 1.65804 50.3978 1.5 50 1.5C49.6022 1.5 49.2206 1.65804 48.9393 1.93934C48.658 2.22064 48.5 2.60218 48.5 3V3.5H46C45.337 3.5 44.7011 3.76339 44.2322 4.23223C43.7634 4.70107 43.5 5.33696 43.5 6V26C43.5 26.663 43.7634 27.2989 44.2322 27.7678C44.7011 28.2366 45.337 28.5 46 28.5H66C66.663 28.5 67.2989 28.2366 67.7678 27.7678C68.2366 27.2989 68.5 26.663 68.5 26V6C68.5 5.33696 68.2366 4.70107 67.7678 4.23223C67.2989 3.76339 66.663 3.5 66 3.5ZM48.5 6.5C48.5 6.89782 48.658 7.27936 48.9393 7.56066C49.2206 7.84196 49.6022 8 50 8C50.3978 8 50.7794 7.84196 51.0607 7.56066C51.342 7.27936 51.5 6.89782 51.5 6.5H60.5C60.5 6.89782 60.658 7.27936 60.9393 7.56066C61.2206 7.84196 61.6022 8 62 8C62.3978 8 62.7794 7.84196 63.0607 7.56066C63.342 7.27936 63.5 6.89782 63.5 6.5H65.5V9.5H46.5V6.5H48.5ZM46.5 25.5V12.5H65.5V25.5H46.5Z" fill="white"/>
</g>
<defs>
<clipPath id="clip0_27_4193">
<rect width="72" height="32" rx="5" fill="white"/>
</clipPath>
</defs>
</svg>
