<svg width="72" height="32" viewBox="0 0 72 32" fill="none" xmlns="http://www.w3.org/2000/svg">
<g clip-path="url(#clip0_27_926)">
<path d="M2 22C2 21.7348 2.10536 21.4804 2.29289 21.2929C2.48043 21.1054 2.73478 21 3 21H4V19C4.00364 15.9916 5.13571 13.0941 7.17245 10.8801C9.20919 8.66605 12.0024 7.29664 15 7.0425V5H13C12.7348 5 12.4804 4.89464 12.2929 4.70711C12.1054 4.51957 12 4.26522 12 4C12 3.73478 12.1054 3.48043 12.2929 3.29289C12.4804 3.10536 12.7348 3 13 3H19C19.2652 3 19.5196 3.10536 19.7071 3.29289C19.8946 3.48043 20 3.73478 20 4C20 4.26522 19.8946 4.51957 19.7071 4.70711C19.5196 4.89464 19.2652 5 19 5H17V7.0425C19.9976 7.29664 22.7908 8.66605 24.8276 10.8801C26.8643 13.0941 27.9964 15.9916 28 19V21H29C29.2652 21 29.5196 21.1054 29.7071 21.2929C29.8946 21.4804 30 21.7348 30 22C30 22.2652 29.8946 22.5196 29.7071 22.7071C29.5196 22.8946 29.2652 23 29 23H3C2.73478 23 2.48043 22.8946 2.29289 22.7071C2.10536 22.5196 2 22.2652 2 22ZM29 25H3C2.73478 25 2.48043 25.1054 2.29289 25.2929C2.10536 25.4804 2 25.7348 2 26C2 26.2652 2.10536 26.5196 2.29289 26.7071C2.48043 26.8946 2.73478 27 3 27H29C29.2652 27 29.5196 26.8946 29.7071 26.7071C29.8946 26.5196 30 26.2652 30 26C30 25.7348 29.8946 25.4804 29.7071 25.2929C29.5196 25.1054 29.2652 25 29 25Z" fill="white"/>
<path d="M43 22.5H69C69.3978 22.5 69.7794 22.342 70.0607 22.0607C70.342 21.7794 70.5 21.3978 70.5 21C70.5 20.6022 70.342 20.2206 70.0607 19.9393C69.7794 19.658 69.3978 19.5 69 19.5H68.4888C68.3661 16.5344 67.1939 13.7088 65.1811 11.5274C63.1684 9.34592 60.4462 7.95048 57.5 7.59V5.5H59C59.3978 5.5 59.7794 5.34196 60.0607 5.06066C60.342 4.77936 60.5 4.39782 60.5 4C60.5 3.60218 60.342 3.22064 60.0607 2.93934C59.7794 2.65804 59.3978 2.5 59 2.5H53C52.6022 2.5 52.2206 2.65804 51.9393 2.93934C51.658 3.22064 51.5 3.60218 51.5 4C51.5 4.39782 51.658 4.77936 51.9393 5.06066C52.2206 5.34196 52.6022 5.5 53 5.5H54.5V7.59C51.5538 7.95048 48.8316 9.34592 46.8189 11.5274C44.8061 13.7088 43.6339 16.5344 43.5113 19.5H43C42.6022 19.5 42.2206 19.658 41.9393 19.9393C41.658 20.2206 41.5 20.6022 41.5 21C41.5 21.3978 41.658 21.7794 41.9393 22.0607C42.2206 22.342 42.6022 22.5 43 22.5ZM56 10.5C58.4321 10.5029 60.7707 11.4373 62.5351 13.1113C64.2994 14.7852 65.3555 17.0714 65.4862 19.5H46.5138C46.6445 17.0714 47.7006 14.7852 49.4649 13.1113C51.2293 11.4373 53.5679 10.5029 56 10.5ZM70.5 26C70.5 26.3978 70.342 26.7794 70.0607 27.0607C69.7794 27.342 69.3978 27.5 69 27.5H43C42.6022 27.5 42.2206 27.342 41.9393 27.0607C41.658 26.7794 41.5 26.3978 41.5 26C41.5 25.6022 41.658 25.2206 41.9393 24.9393C42.2206 24.658 42.6022 24.5 43 24.5H69C69.3978 24.5 69.7794 24.658 70.0607 24.9393C70.342 25.2206 70.5 25.6022 70.5 26Z" fill="white"/>
</g>
<defs>
<clipPath id="clip0_27_926">
<rect width="72" height="32" rx="5" fill="white"/>
</clipPath>
</defs>
</svg>
