<svg width="72" height="32" viewBox="0 0 72 32" fill="none" xmlns="http://www.w3.org/2000/svg">
<g clip-path="url(#clip0_27_3664)">
<path d="M29 9.99999V24C28.9998 24.1951 28.981 24.3897 28.9438 24.5812C28.9276 24.6734 28.8859 24.7591 28.8235 24.8288C28.761 24.8984 28.6803 24.9491 28.5905 24.9752C28.5006 25.0012 28.4053 25.0015 28.3153 24.9761C28.2252 24.9506 28.1442 24.9005 28.0812 24.8312L10.75 5.75999C10.6749 5.6775 10.6296 5.57229 10.6212 5.46108C10.6129 5.34987 10.6419 5.23905 10.7037 5.14624L11.1713 4.44499C11.2623 4.30853 11.3855 4.19657 11.53 4.11896C11.6746 4.04136 11.836 4.0005 12 3.99999H20C20.1647 3.99989 20.3268 4.04045 20.4721 4.11808C20.6173 4.19571 20.7411 4.30801 20.8325 4.44499L22.535 6.99999H26C26.7956 6.99999 27.5587 7.31606 28.1213 7.87867C28.6839 8.44128 29 9.20434 29 9.99999ZM26.74 26.3275C26.8302 26.4243 26.9002 26.5381 26.9461 26.6623C26.9919 26.7864 27.0127 26.9184 27.0072 27.0506C27.0017 27.1828 26.97 27.3126 26.9139 27.4325C26.8578 27.5524 26.7785 27.6599 26.6806 27.7489C26.5827 27.8379 26.4681 27.9066 26.3434 27.951C26.2187 27.9953 26.0865 28.0145 25.9543 28.0074C25.8222 28.0003 25.6928 27.967 25.5736 27.9096C25.4544 27.8521 25.3478 27.7715 25.26 27.6725L24.6488 27H6C5.20435 27 4.44129 26.6839 3.87868 26.1213C3.31607 25.5587 3 24.7956 3 24V9.99999C3 9.20434 3.31607 8.44128 3.87868 7.87867C4.44129 7.31606 5.20435 6.99999 6 6.99999H6.46625L5.26 5.67249C5.16983 5.57563 5.09979 5.46184 5.05392 5.33772C5.00806 5.21359 4.98728 5.08159 4.99281 4.94938C4.99833 4.81716 5.03004 4.68736 5.0861 4.56749C5.14216 4.44762 5.22146 4.34007 5.31939 4.25107C5.41732 4.16207 5.53194 4.09339 5.65661 4.04902C5.78128 4.00464 5.91352 3.98545 6.04566 3.99256C6.1778 3.99967 6.30721 4.03294 6.4264 4.09043C6.54559 4.14792 6.65218 4.2285 6.74 4.32749L26.74 26.3275ZM18.5 20.24L12.515 13.655C11.8357 14.4903 11.4784 15.5415 11.508 16.6178C11.5376 17.694 11.9521 18.724 12.6763 19.5208C13.4004 20.3175 14.3862 20.8282 15.4548 20.9602C16.5233 21.0921 17.6038 20.8366 18.5 20.24Z" fill="white"/>
<path d="M47.11 3.99125C46.9783 3.84277 46.8184 3.7219 46.6396 3.63566C46.4608 3.54942 46.2667 3.49952 46.0685 3.48886C45.8703 3.4782 45.6719 3.50698 45.4849 3.57354C45.2979 3.6401 45.126 3.74312 44.9791 3.87661C44.8322 4.01011 44.7132 4.17144 44.6292 4.35124C44.5451 4.53105 44.4975 4.72575 44.4892 4.92408C44.4809 5.1224 44.5121 5.3204 44.5809 5.50659C44.6497 5.69278 44.7548 5.86347 44.89 6.00875L45.39 6.555C44.5804 6.69831 43.847 7.12208 43.3186 7.752C42.7901 8.38192 42.5003 9.17778 42.5 10V24C42.5 24.9283 42.8687 25.8185 43.5251 26.4749C44.1815 27.1313 45.0717 27.5 46 27.5H64.4275L64.89 28.0088C65.1589 28.2977 65.5309 28.4689 65.9253 28.4854C66.3197 28.5019 66.7046 28.3622 66.9967 28.0968C67.2888 27.8313 67.4645 27.4614 67.4857 27.0673C67.5069 26.6731 67.3719 26.2865 67.11 25.9913L47.11 3.99125ZM53.2788 15.2413L57 19.33C56.443 19.5272 55.8401 19.5556 55.267 19.4115C54.6939 19.2674 54.1762 18.9572 53.7787 18.52C53.3812 18.0827 53.1218 17.5378 53.0328 16.9536C52.9439 16.3694 53.0294 15.772 53.2788 15.2363V15.2413ZM46 24.5C45.8674 24.5 45.7402 24.4473 45.6464 24.3536C45.5527 24.2598 45.5 24.1326 45.5 24V10C45.5 9.8674 45.5527 9.74022 45.6464 9.64645C45.7402 9.55268 45.8674 9.5 46 9.5H48.0638L51.1788 12.9263C50.3532 14.0425 49.9404 15.4104 50.0105 16.797C50.0806 18.1835 50.6294 19.5028 51.5633 20.5301C52.4972 21.5573 53.7585 22.2289 55.1321 22.4304C56.5057 22.6319 57.9067 22.3508 59.0963 21.635L61.7 24.5H46ZM69.5 10V21.7675C69.5 22.1653 69.342 22.5469 69.0607 22.8282C68.7794 23.1095 68.3978 23.2675 68 23.2675C67.6022 23.2675 67.2206 23.1095 66.9393 22.8282C66.658 22.5469 66.5 22.1653 66.5 21.7675V10C66.5 9.8674 66.4473 9.74022 66.3536 9.64645C66.2598 9.55268 66.1326 9.5 66 9.5H62C61.7528 9.50037 61.5093 9.43962 61.2912 9.32317C61.0731 9.20671 60.8872 9.03816 60.75 8.8325L59.1963 6.5H52.7575C52.3597 6.5 51.9781 6.34197 51.6968 6.06066C51.4155 5.77936 51.2575 5.39783 51.2575 5C51.2575 4.60218 51.4155 4.22065 51.6968 3.93934C51.9781 3.65804 52.3597 3.5 52.7575 3.5H60C60.2472 3.49964 60.4907 3.56038 60.7088 3.67684C60.9269 3.79329 61.1128 3.96185 61.25 4.1675L62.8025 6.5H66C66.4596 6.5 66.9148 6.59053 67.3394 6.76643C67.764 6.94232 68.1499 7.20013 68.4749 7.52513C68.7999 7.85014 69.0577 8.23597 69.2336 8.66061C69.4095 9.08525 69.5 9.54038 69.5 10Z" fill="white"/>
</g>
<defs>
<clipPath id="clip0_27_3664">
<rect width="72" height="32" rx="5" fill="white"/>
</clipPath>
</defs>
</svg>
