<svg width="72" height="32" viewBox="0 0 72 32" fill="none" xmlns="http://www.w3.org/2000/svg">
<g clip-path="url(#clip0_27_3649)">
<path d="M26 7H22.535L20.8312 4.445C20.74 4.30819 20.6164 4.196 20.4714 4.11838C20.3264 4.04076 20.1645 4.0001 20 4H12C11.8355 4.0001 11.6736 4.04076 11.5286 4.11838C11.3836 4.196 11.26 4.30819 11.1687 4.445L9.46375 7H6C5.20435 7 4.44129 7.31607 3.87868 7.87868C3.31607 8.44129 3 9.20435 3 10V24C3 24.7956 3.31607 25.5587 3.87868 26.1213C4.44129 26.6839 5.20435 27 6 27H26C26.7956 27 27.5587 26.6839 28.1213 26.1213C28.6839 25.5587 29 24.7956 29 24V10C29 9.20435 28.6839 8.44129 28.1213 7.87868C27.5587 7.31607 26.7956 7 26 7ZM20.5 16.5C20.5 17.39 20.2361 18.26 19.7416 19.0001C19.2471 19.7401 18.5443 20.3169 17.7221 20.6575C16.8998 20.9981 15.995 21.0872 15.1221 20.9135C14.2492 20.7399 13.4474 20.3113 12.818 19.682C12.1887 19.0526 11.7601 18.2508 11.5865 17.3779C11.4128 16.505 11.5019 15.6002 11.8425 14.7779C12.1831 13.9557 12.7599 13.2529 13.4999 12.7584C14.24 12.2639 15.11 12 16 12C17.1935 12 18.3381 12.4741 19.182 13.318C20.0259 14.1619 20.5 15.3065 20.5 16.5Z" fill="white"/>
<path d="M66 6.5H62.8025L61.25 4.1675C61.1128 3.96185 60.9269 3.79329 60.7088 3.67684C60.4907 3.56038 60.2472 3.49964 60 3.5H52C51.7528 3.49964 51.5093 3.56038 51.2912 3.67684C51.0731 3.79329 50.8872 3.96185 50.75 4.1675L49.1962 6.5H46C45.0717 6.5 44.1815 6.86875 43.5251 7.52513C42.8687 8.18151 42.5 9.07174 42.5 10V24C42.5 24.9283 42.8687 25.8185 43.5251 26.4749C44.1815 27.1313 45.0717 27.5 46 27.5H66C66.4596 27.5 66.9148 27.4095 67.3394 27.2336C67.764 27.0577 68.1499 26.7999 68.4749 26.4749C68.7999 26.1499 69.0577 25.764 69.2336 25.3394C69.4095 24.9148 69.5 24.4596 69.5 24V10C69.5 9.54037 69.4095 9.08525 69.2336 8.66061C69.0577 8.23597 68.7999 7.85013 68.4749 7.52513C68.1499 7.20012 67.764 6.94231 67.3394 6.76642C66.9148 6.59053 66.4596 6.5 66 6.5ZM66.5 24C66.5 24.1326 66.4473 24.2598 66.3536 24.3536C66.2598 24.4473 66.1326 24.5 66 24.5H46C45.8674 24.5 45.7402 24.4473 45.6464 24.3536C45.5527 24.2598 45.5 24.1326 45.5 24V10C45.5 9.86739 45.5527 9.74022 45.6464 9.64645C45.7402 9.55268 45.8674 9.5 46 9.5H50C50.2472 9.50037 50.4907 9.43962 50.7088 9.32317C50.9269 9.20671 51.1128 9.03816 51.25 8.8325L52.8025 6.5H59.1963L60.75 8.8325C60.8872 9.03816 61.0731 9.20671 61.2912 9.32317C61.5093 9.43962 61.7528 9.50037 62 9.5H66C66.1326 9.5 66.2598 9.55268 66.3536 9.64645C66.4473 9.74022 66.5 9.86739 66.5 10V24ZM56 10.5C54.8133 10.5 53.6533 10.8519 52.6666 11.5112C51.6799 12.1705 50.9108 13.1075 50.4567 14.2039C50.0026 15.3003 49.8838 16.5067 50.1153 17.6705C50.3468 18.8344 50.9182 19.9035 51.7574 20.7426C52.5965 21.5818 53.6656 22.1532 54.8295 22.3847C55.9933 22.6162 57.1997 22.4974 58.2961 22.0433C59.3925 21.5892 60.3295 20.8201 60.9888 19.8334C61.6481 18.8467 62 17.6867 62 16.5C61.9983 14.9092 61.3657 13.384 60.2408 12.2592C59.116 11.1343 57.5908 10.5017 56 10.5ZM56 19.5C55.4067 19.5 54.8266 19.3241 54.3333 18.9944C53.8399 18.6648 53.4554 18.1962 53.2284 17.6481C53.0013 17.0999 52.9419 16.4967 53.0576 15.9147C53.1734 15.3328 53.4591 14.7982 53.8787 14.3787C54.2982 13.9591 54.8328 13.6734 55.4147 13.5576C55.9967 13.4419 56.5999 13.5013 57.1481 13.7284C57.6962 13.9554 58.1648 14.3399 58.4944 14.8333C58.8241 15.3266 59 15.9067 59 16.5C59 17.2957 58.6839 18.0587 58.1213 18.6213C57.5587 19.1839 56.7956 19.5 56 19.5Z" fill="white"/>
</g>
<defs>
<clipPath id="clip0_27_3649">
<rect width="72" height="32" rx="5" fill="white"/>
</clipPath>
</defs>
</svg>
