<svg width="72" height="32" viewBox="0 0 72 32" fill="none" xmlns="http://www.w3.org/2000/svg">
<g clip-path="url(#clip0_27_3654)">
<path d="M26 7H22.535L21.125 4.89C20.9427 4.61673 20.6959 4.39258 20.4063 4.23735C20.1168 4.08213 19.7935 4.00061 19.465 4H12.535C12.2065 4.00061 11.8832 4.08213 11.5937 4.23735C11.3041 4.39258 11.0573 4.61673 10.875 4.89L9.465 7H6C5.20435 7 4.44129 7.31607 3.87868 7.87868C3.31607 8.44129 3 9.20435 3 10V24C3 24.7956 3.31607 25.5587 3.87868 26.1213C4.44129 26.6839 5.20435 27 6 27H26C26.7956 27 27.5587 26.6839 28.1213 26.1213C28.6839 25.5587 29 24.7956 29 24V10C29 9.20435 28.6839 8.44129 28.1213 7.87868C27.5587 7.31607 26.7956 7 26 7ZM20 18H17V21C17 21.2652 16.8946 21.5196 16.7071 21.7071C16.5196 21.8946 16.2652 22 16 22C15.7348 22 15.4804 21.8946 15.2929 21.7071C15.1054 21.5196 15 21.2652 15 21V18H12C11.7348 18 11.4804 17.8946 11.2929 17.7071C11.1054 17.5196 11 17.2652 11 17C11 16.7348 11.1054 16.4804 11.2929 16.2929C11.4804 16.1054 11.7348 16 12 16H15V13C15 12.7348 15.1054 12.4804 15.2929 12.2929C15.4804 12.1054 15.7348 12 16 12C16.2652 12 16.5196 12.1054 16.7071 12.2929C16.8946 12.4804 17 12.7348 17 13V16H20C20.2652 16 20.5196 16.1054 20.7071 16.2929C20.8946 16.4804 21 16.7348 21 17C21 17.2652 20.8946 17.5196 20.7071 17.7071C20.5196 17.8946 20.2652 18 20 18Z" fill="white"/>
<path d="M61.5 17C61.5 17.3978 61.342 17.7794 61.0607 18.0607C60.7794 18.342 60.3978 18.5 60 18.5H57.5V21C57.5 21.3978 57.342 21.7794 57.0607 22.0607C56.7794 22.342 56.3978 22.5 56 22.5C55.6022 22.5 55.2206 22.342 54.9393 22.0607C54.658 21.7794 54.5 21.3978 54.5 21V18.5H52C51.6022 18.5 51.2206 18.342 50.9393 18.0607C50.658 17.7794 50.5 17.3978 50.5 17C50.5 16.6022 50.658 16.2206 50.9393 15.9393C51.2206 15.658 51.6022 15.5 52 15.5H54.5V13C54.5 12.6022 54.658 12.2206 54.9393 11.9393C55.2206 11.658 55.6022 11.5 56 11.5C56.3978 11.5 56.7794 11.658 57.0607 11.9393C57.342 12.2206 57.5 12.6022 57.5 13V15.5H60C60.3978 15.5 60.7794 15.658 61.0607 15.9393C61.342 16.2206 61.5 16.6022 61.5 17ZM69.5 10V24C69.5 24.4596 69.4095 24.9148 69.2336 25.3394C69.0577 25.764 68.7999 26.1499 68.4749 26.4749C68.1499 26.7999 67.764 27.0577 67.3394 27.2336C66.9148 27.4095 66.4596 27.5 66 27.5H46C45.0717 27.5 44.1815 27.1313 43.5251 26.4749C42.8687 25.8185 42.5 24.9283 42.5 24V10C42.5 9.07174 42.8687 8.1815 43.5251 7.52513C44.1815 6.86875 45.0717 6.5 46 6.5H49.1975L50.455 4.61375C50.6832 4.27123 50.9925 3.99035 51.3553 3.79606C51.7182 3.60177 52.1234 3.50008 52.535 3.5H59.465C59.8766 3.50008 60.2818 3.60177 60.6447 3.79606C61.0075 3.99035 61.3168 4.27123 61.545 4.61375L62.8025 6.5H66C66.4596 6.5 66.9148 6.59053 67.3394 6.76642C67.764 6.94231 68.1499 7.20012 68.4749 7.52513C68.7999 7.85013 69.0577 8.23597 69.2336 8.66061C69.4095 9.08525 69.5 9.54037 69.5 10ZM66.5 10C66.5 9.86739 66.4473 9.74021 66.3536 9.64645C66.2598 9.55268 66.1326 9.5 66 9.5H62C61.7528 9.50037 61.5093 9.43962 61.2912 9.32316C61.0731 9.20671 60.8872 9.03816 60.75 8.8325L59.1975 6.5H52.8025L51.25 8.8325C51.1128 9.03816 50.9269 9.20671 50.7088 9.32316C50.4907 9.43962 50.2472 9.50037 50 9.5H46C45.8674 9.5 45.7402 9.55268 45.6464 9.64645C45.5527 9.74021 45.5 9.86739 45.5 10V24C45.5 24.1326 45.5527 24.2598 45.6464 24.3536C45.7402 24.4473 45.8674 24.5 46 24.5H66C66.1326 24.5 66.2598 24.4473 66.3536 24.3536C66.4473 24.2598 66.5 24.1326 66.5 24V10Z" fill="white"/>
</g>
<defs>
<clipPath id="clip0_27_3654">
<rect width="72" height="32" rx="5" fill="white"/>
</clipPath>
</defs>
</svg>
