<svg width="72" height="32" viewBox="0 0 72 32" fill="none" xmlns="http://www.w3.org/2000/svg">
<g clip-path="url(#clip0_27_3659)">
<path d="M26 7H22.535L20.8312 4.445C20.74 4.30819 20.6164 4.196 20.4714 4.11838C20.3264 4.04076 20.1645 4.0001 20 4H12C11.8355 4.0001 11.6736 4.04076 11.5286 4.11838C11.3836 4.196 11.26 4.30819 11.1687 4.445L9.46375 7H6C5.20435 7 4.44129 7.31607 3.87868 7.87868C3.31607 8.44129 3 9.20435 3 10V24C3 24.7956 3.31607 25.5587 3.87868 26.1213C4.44129 26.6839 5.20435 27 6 27H26C26.7956 27 27.5587 26.6839 28.1213 26.1213C28.6839 25.5587 29 24.7956 29 24V10C29 9.20435 28.6839 8.44129 28.1213 7.87868C27.5587 7.31607 26.7956 7 26 7ZM19.6012 20.8C18.4896 21.6276 17.1267 22.0467 15.7422 21.9869C14.3576 21.927 13.036 21.3917 12 20.4713V21C12 21.2652 11.8946 21.5196 11.7071 21.7071C11.5196 21.8946 11.2652 22 11 22C10.7348 22 10.4804 21.8946 10.2929 21.7071C10.1054 21.5196 10 21.2652 10 21V18C10 17.7348 10.1054 17.4804 10.2929 17.2929C10.4804 17.1054 10.7348 17 11 17H14C14.2652 17 14.5196 17.1054 14.7071 17.2929C14.8946 17.4804 15 17.7348 15 18C15 18.2652 14.8946 18.5196 14.7071 18.7071C14.5196 18.8946 14.2652 19 14 19H13.3562C14.047 19.6052 14.9243 19.9552 15.8419 19.9919C16.7595 20.0285 17.662 19.7494 18.3988 19.2013C18.6108 19.0418 18.8774 18.9731 19.1401 19.0102C19.4028 19.0474 19.6399 19.1874 19.7994 19.3994C19.9588 19.6114 20.0275 19.8781 19.9904 20.1407C19.9532 20.4034 19.8133 20.6405 19.6012 20.8ZM22 15C22 15.2652 21.8946 15.5196 21.7071 15.7071C21.5196 15.8946 21.2652 16 21 16H18C17.7348 16 17.4804 15.8946 17.2929 15.7071C17.1054 15.5196 17 15.2652 17 15C17 14.7348 17.1054 14.4804 17.2929 14.2929C17.4804 14.1054 17.7348 14 18 14H18.6437C17.953 13.3948 17.0757 13.0448 16.1581 13.0081C15.2405 12.9715 14.338 13.2506 13.6012 13.7987C13.3892 13.9582 13.1226 14.0269 12.8599 13.9898C12.5972 13.9526 12.3601 13.8126 12.2006 13.6006C12.0412 13.3886 11.9725 13.1219 12.0096 12.8593C12.0468 12.5966 12.1867 12.3595 12.3988 12.2C13.5104 11.3724 14.8733 10.9533 16.2578 11.0131C17.6424 11.073 18.964 11.6083 20 12.5288V12C20 11.7348 20.1054 11.4804 20.2929 11.2929C20.4804 11.1054 20.7348 11 21 11C21.2652 11 21.5196 11.1054 21.7071 11.2929C21.8946 11.4804 22 11.7348 22 12V15Z" fill="white"/>
<path d="M66 6.5H62.8025L61.25 4.1675C61.1128 3.96185 60.9269 3.79329 60.7088 3.67684C60.4907 3.56038 60.2472 3.49964 60 3.5H52C51.7528 3.49964 51.5093 3.56038 51.2912 3.67684C51.0731 3.79329 50.8872 3.96185 50.75 4.1675L49.1962 6.5H46C45.0717 6.5 44.1815 6.86875 43.5251 7.52513C42.8687 8.18151 42.5 9.07174 42.5 10V24C42.5 24.9283 42.8687 25.8185 43.5251 26.4749C44.1815 27.1313 45.0717 27.5 46 27.5H66C66.4596 27.5 66.9148 27.4095 67.3394 27.2336C67.764 27.0577 68.1499 26.7999 68.4749 26.4749C68.7999 26.1499 69.0577 25.764 69.2336 25.3394C69.4095 24.9148 69.5 24.4596 69.5 24V10C69.5 9.54037 69.4095 9.08525 69.2336 8.66061C69.0577 8.23597 68.7999 7.85013 68.4749 7.52513C68.1499 7.20012 67.764 6.94231 67.3394 6.76642C66.9148 6.59053 66.4596 6.5 66 6.5ZM66.5 24C66.5 24.1326 66.4473 24.2598 66.3536 24.3536C66.2598 24.4473 66.1326 24.5 66 24.5H46C45.8674 24.5 45.7402 24.4473 45.6464 24.3536C45.5527 24.2598 45.5 24.1326 45.5 24V10C45.5 9.86739 45.5527 9.74022 45.6464 9.64645C45.7402 9.55268 45.8674 9.5 46 9.5H50C50.2472 9.50037 50.4907 9.43962 50.7088 9.32317C50.9269 9.20671 51.1128 9.03816 51.25 8.8325L52.8025 6.5H59.1963L60.75 8.8325C60.8872 9.03816 61.0731 9.20671 61.2912 9.32317C61.5093 9.43962 61.7528 9.50037 62 9.5H66C66.1326 9.5 66.2598 9.55268 66.3536 9.64645C66.4473 9.74022 66.5 9.86739 66.5 10V24ZM62.5 12.5V15C62.5 15.3978 62.342 15.7794 62.0607 16.0607C61.7794 16.342 61.3978 16.5 61 16.5H58.5C58.1932 16.4996 57.8939 16.4051 57.6425 16.2293C57.391 16.0536 57.1995 15.8049 57.0938 15.5169C56.9881 15.2289 56.9732 14.9154 57.0512 14.6187C57.1292 14.322 57.2963 14.0563 57.53 13.8575C56.9524 13.5773 56.3089 13.461 55.6698 13.5211C55.0306 13.5813 54.4202 13.8157 53.905 14.1988C53.5869 14.4383 53.1867 14.5416 52.7924 14.4861C52.3981 14.4305 52.042 14.2206 51.8025 13.9025C51.563 13.5844 51.4596 13.1842 51.5152 12.7899C51.5707 12.3956 51.7807 12.0395 52.0988 11.8C53.1995 10.9813 54.53 10.5297 55.9016 10.5093C57.2733 10.4889 58.6166 10.9007 59.7412 11.6863C59.9172 11.4148 60.1761 11.2076 60.4794 11.0953C60.7827 10.9831 61.1142 10.9718 61.4244 11.0633C61.7346 11.1548 62.0069 11.3442 62.2008 11.6031C62.3946 11.862 62.4996 12.1766 62.5 12.5ZM60.1987 19.1C60.4377 19.418 60.5406 19.8178 60.4848 20.2116C60.429 20.6054 60.2191 20.9609 59.9013 21.2C58.7788 22.0417 57.413 22.4954 56.01 22.4925C54.6685 22.4932 53.3593 22.0813 52.26 21.3125C52.0844 21.5844 51.8255 21.7922 51.5221 21.9048C51.2186 22.0175 50.8869 22.029 50.5764 21.9376C50.2659 21.8462 49.9933 21.6568 49.7993 21.3977C49.6053 21.1386 49.5003 20.8237 49.5 20.5V18C49.5 17.6022 49.658 17.2206 49.9393 16.9393C50.2206 16.658 50.6022 16.5 51 16.5H53.5C53.8068 16.5004 54.1061 16.5949 54.3575 16.7707C54.609 16.9464 54.8005 17.1951 54.9062 17.4831C55.0119 17.7711 55.0268 18.0846 54.9488 18.3813C54.8708 18.678 54.7037 18.9437 54.47 19.1425C55.0476 19.4227 55.6911 19.539 56.3302 19.4789C56.9694 19.4187 57.5798 19.1843 58.095 18.8013C58.2526 18.6824 58.4322 18.5959 58.6233 18.5465C58.8145 18.4972 59.0135 18.4861 59.2089 18.5139C59.4043 18.5417 59.5924 18.6077 59.7622 18.7083C59.9321 18.8089 60.0804 18.942 60.1987 19.1Z" fill="white"/>
</g>
<defs>
<clipPath id="clip0_27_3659">
<rect width="72" height="32" rx="5" fill="white"/>
</clipPath>
</defs>
</svg>
