<svg width="72" height="32" viewBox="0 0 72 32" fill="none" xmlns="http://www.w3.org/2000/svg">
<g clip-path="url(#clip0_27_2074)">
<path d="M16.5237 3.14875C16.3662 3.0519 16.1849 3.00063 16 3.00063C15.815 3.00063 15.6337 3.0519 15.4762 3.14875C14.2219 3.96384 13.0655 4.92055 12.03 6C9.72121 8.39125 8.49996 10.9875 8.49996 13.5C8.49996 15.4891 9.29014 17.3968 10.6967 18.8033C12.1032 20.2098 14.0108 21 16 21C17.9891 21 19.8967 20.2098 21.3033 18.8033C22.7098 17.3968 23.5 15.4891 23.5 13.5C23.5 7.51 16.8087 3.32375 16.5237 3.14875ZM16 19C15.2043 19 14.4412 18.6839 13.8786 18.1213C13.316 17.5587 13 16.7957 13 16C13 13 16 11 16 11C16 11 19 13 19 16C19 16.7957 18.6839 17.5587 18.1213 18.1213C17.5587 18.6839 16.7956 19 16 19ZM27.9525 28.3025C27.9127 28.4277 27.8486 28.5438 27.7639 28.6442C27.6793 28.7446 27.5756 28.8274 27.459 28.8877C27.3423 28.9481 27.2149 28.9849 27.084 28.996C26.9532 29.0071 26.8214 28.9923 26.6962 28.9525L16 25.5488L5.30371 28.9525C5.17854 28.9923 5.04676 29.0071 4.91589 28.996C4.78502 28.9848 4.65762 28.948 4.54097 28.8877C4.42431 28.8273 4.32069 28.7446 4.23601 28.6442C4.15134 28.5438 4.08727 28.4277 4.04746 28.3025C4.00765 28.1773 3.99289 28.0456 4.00401 27.9147C4.01513 27.7838 4.05192 27.6564 4.11228 27.5398C4.17264 27.4231 4.25538 27.3195 4.35579 27.2348C4.45619 27.1501 4.57229 27.0861 4.69746 27.0463L12.6975 24.5L4.69746 21.9525C4.56884 21.9157 4.44891 21.8534 4.34478 21.7694C4.24065 21.6854 4.15444 21.5814 4.09124 21.4635C4.02805 21.3455 3.98916 21.2161 3.97688 21.0829C3.9646 20.9497 3.97917 20.8153 4.01975 20.6879C4.06032 20.5604 4.12606 20.4423 4.21308 20.3407C4.3001 20.2391 4.40662 20.1559 4.52635 20.0962C4.64607 20.0365 4.77656 20.0014 4.91009 19.9931C5.04362 19.9847 5.17746 20.0032 5.30371 20.0475L16 23.45L26.6962 20.0475C26.8225 20.0032 26.9563 19.9847 27.0898 19.9931C27.2234 20.0014 27.3538 20.0365 27.4736 20.0962C27.5933 20.1559 27.6998 20.2391 27.7868 20.3407C27.8739 20.4423 27.9396 20.5604 27.9802 20.6879C28.0207 20.8153 28.0353 20.9497 28.023 21.0829C28.0108 21.2161 27.9719 21.3455 27.9087 21.4635C27.8455 21.5814 27.7593 21.6854 27.6551 21.7694C27.551 21.8534 27.4311 21.9157 27.3025 21.9525L19.3025 24.5L27.3025 27.0463C27.4276 27.086 27.5438 27.1501 27.6442 27.2348C27.7446 27.3194 27.8273 27.4231 27.8877 27.5397C27.9481 27.6564 27.9848 27.7838 27.996 27.9147C28.0071 28.0456 27.9923 28.1773 27.9525 28.3025Z" fill="white"/>
<path d="M68.4385 28.425C68.3468 28.7354 68.1571 29.0079 67.8978 29.2016C67.6385 29.3954 67.3235 29.5 66.9998 29.5C66.8559 29.4998 66.7128 29.4792 66.5748 29.4388L55.9998 26.3138L45.4248 29.4388C45.2867 29.4792 45.1436 29.4998 44.9998 29.5C44.639 29.5002 44.2903 29.3703 44.0175 29.1343C43.7447 28.8982 43.5661 28.5717 43.5145 28.2147C43.4628 27.8577 43.5416 27.494 43.7363 27.1903C43.9311 26.8866 44.2287 26.6633 44.5748 26.5613L50.706 24.75L44.5748 22.9388C44.2066 22.8152 43.9006 22.5536 43.7214 22.2091C43.5421 21.8645 43.5034 21.4639 43.6136 21.0914C43.7237 20.719 43.974 20.4037 44.3118 20.2121C44.6496 20.0204 45.0486 19.9672 45.4248 20.0638L55.9998 23.1888L66.5748 20.0638C66.7659 19.9996 66.9679 19.9747 67.1689 19.9904C67.3698 20.0061 67.5656 20.0621 67.7444 20.1552C67.9232 20.2482 68.0814 20.3763 68.2096 20.5319C68.3378 20.6874 68.4333 20.8672 68.4905 21.0605C68.5476 21.2538 68.5652 21.4567 68.5422 21.6569C68.5192 21.8572 68.4561 22.0507 68.3566 22.226C68.2572 22.4014 68.1234 22.5548 67.9633 22.6773C67.8032 22.7997 67.62 22.8887 67.4248 22.9388L61.2935 24.75L67.4248 26.5613C67.6137 26.617 67.7898 26.7095 67.943 26.8334C68.0963 26.9572 68.2236 27.1101 68.3177 27.2831C68.4118 27.4562 68.471 27.6461 68.4917 27.8421C68.5124 28.038 68.4944 28.2361 68.4385 28.425ZM47.9998 13C47.9998 6.67625 54.991 2.84 55.2885 2.67875C55.5071 2.56103 55.7515 2.4994 55.9998 2.4994C56.248 2.4994 56.4924 2.56103 56.711 2.67875C57.0085 2.84 63.9998 6.67625 63.9998 13C63.9998 15.1217 63.1569 17.1566 61.6566 18.6569C60.1563 20.1571 58.1215 21 55.9998 21C53.878 21 51.8432 20.1571 50.3429 18.6569C48.8426 17.1566 47.9998 15.1217 47.9998 13ZM55.9998 18C56.3976 18 56.7791 17.842 57.0604 17.5607C57.3417 17.2794 57.4998 16.8978 57.4998 16.5C57.4998 15.6913 57.161 14.9313 56.4998 14.2413C56.3429 14.0818 56.1759 13.9328 55.9998 13.795C55.8239 13.9331 55.6569 14.0821 55.4998 14.2413C54.8335 14.9313 54.4998 15.6913 54.4998 16.5C54.4998 16.8978 54.6578 17.2794 54.9391 17.5607C55.2204 17.842 55.6019 18 55.9998 18ZM50.9998 13C50.9988 13.8332 51.2073 14.6534 51.606 15.385C52.2073 12.26 55.1885 10.7288 55.3285 10.6588C55.5369 10.5545 55.7667 10.5002 55.9998 10.5002C56.2328 10.5002 56.4626 10.5545 56.671 10.6588C56.811 10.7288 59.796 12.2563 60.3935 15.385C60.7922 14.6534 61.0007 13.8332 60.9998 13C60.9998 9.4575 57.5323 6.77375 55.9998 5.76C54.4685 6.7725 50.9998 9.4575 50.9998 13Z" fill="white"/>
</g>
<defs>
<clipPath id="clip0_27_2074">
<rect width="72" height="32" rx="5" fill="white"/>
</clipPath>
</defs>
</svg>
