<svg width="72" height="32" viewBox="0 0 72 32" fill="none" xmlns="http://www.w3.org/2000/svg">
<g clip-path="url(#clip0_27_6495)">
<path d="M30 13H28.65L25.1775 5.1875C25.0204 4.83403 24.7641 4.53372 24.4397 4.32296C24.1153 4.11219 23.7368 4 23.35 4H8.65C8.26317 4 7.88465 4.11219 7.56029 4.32296C7.23593 4.53372 6.97965 4.83403 6.8225 5.1875L3.35 13H2C1.73478 13 1.48043 13.1054 1.29289 13.2929C1.10536 13.4804 1 13.7348 1 14C1 14.2652 1.10536 14.5196 1.29289 14.7071C1.48043 14.8946 1.73478 15 2 15H3V25C3 25.5304 3.21071 26.0391 3.58579 26.4142C3.96086 26.7893 4.46957 27 5 27H8C8.53043 27 9.03914 26.7893 9.41421 26.4142C9.78929 26.0391 10 25.5304 10 25V24H22V25C22 25.5304 22.2107 26.0391 22.5858 26.4142C22.9609 26.7893 23.4696 27 24 27H27C27.5304 27 28.0391 26.7893 28.4142 26.4142C28.7893 26.0391 29 25.5304 29 25V15H30C30.2652 15 30.5196 14.8946 30.7071 14.7071C30.8946 14.5196 31 14.2652 31 14C31 13.7348 30.8946 13.4804 30.7071 13.2929C30.5196 13.1054 30.2652 13 30 13ZM10 19H7C6.73478 19 6.48043 18.8946 6.29289 18.7071C6.10536 18.5196 6 18.2652 6 18C6 17.7348 6.10536 17.4804 6.29289 17.2929C6.48043 17.1054 6.73478 17 7 17H10C10.2652 17 10.5196 17.1054 10.7071 17.2929C10.8946 17.4804 11 17.7348 11 18C11 18.2652 10.8946 18.5196 10.7071 18.7071C10.5196 18.8946 10.2652 19 10 19ZM25 19H22C21.7348 19 21.4804 18.8946 21.2929 18.7071C21.1054 18.5196 21 18.2652 21 18C21 17.7348 21.1054 17.4804 21.2929 17.2929C21.4804 17.1054 21.7348 17 22 17H25C25.2652 17 25.5196 17.1054 25.7071 17.2929C25.8946 17.4804 26 17.7348 26 18C26 18.2652 25.8946 18.5196 25.7071 18.7071C25.5196 18.8946 25.2652 19 25 19ZM5.53875 13L8.65 6H23.35L26.4613 13H5.53875Z" fill="white"/>
<path d="M70 12.5H68.975L65.635 4.985C65.4386 4.54295 65.1182 4.16737 64.7126 3.90379C64.307 3.6402 63.8337 3.49994 63.35 3.5H48.65C48.1663 3.49994 47.693 3.6402 47.2874 3.90379C46.8818 4.16737 46.5614 4.54295 46.365 4.985L43.025 12.5H42C41.6022 12.5 41.2206 12.658 40.9393 12.9393C40.658 13.2206 40.5 13.6022 40.5 14C40.5 14.3978 40.658 14.7794 40.9393 15.0607C41.2206 15.342 41.6022 15.5 42 15.5H42.5V25C42.5 25.663 42.7634 26.2989 43.2322 26.7678C43.7011 27.2366 44.337 27.5 45 27.5H48.5C49.163 27.5 49.7989 27.2366 50.2678 26.7678C50.7366 26.2989 51 25.663 51 25V22.5H61V25C61 25.663 61.2634 26.2989 61.7322 26.7678C62.2011 27.2366 62.837 27.5 63.5 27.5H67C67.663 27.5 68.2989 27.2366 68.7678 26.7678C69.2366 26.2989 69.5 25.663 69.5 25V15.5H70C70.3978 15.5 70.7794 15.342 71.0607 15.0607C71.342 14.7794 71.5 14.3978 71.5 14C71.5 13.6022 71.342 13.2206 71.0607 12.9393C70.7794 12.658 70.3978 12.5 70 12.5ZM48.975 6.5H63.025L65.6912 12.5H46.3088L48.975 6.5ZM48 24.5H45.5V22.5H48V24.5ZM64 24.5V22.5H66.5V24.5H64ZM66.5 19.5H45.5V15.5H66.5V19.5Z" fill="white"/>
</g>
<defs>
<clipPath id="clip0_27_6495">
<rect width="72" height="32" rx="5" fill="white"/>
</clipPath>
</defs>
</svg>
