<svg width="72" height="32" viewBox="0 0 72 32" fill="none" xmlns="http://www.w3.org/2000/svg">
<g clip-path="url(#clip0_27_931)">
<path d="M28 9H26V7C26 6.46957 25.7893 5.96086 25.4142 5.58579C25.0391 5.21071 24.5304 5 24 5H20C19.4696 5 18.9609 5.21071 18.5858 5.58579C18.2107 5.96086 18 6.46957 18 7V9H14V7C14 6.46957 13.7893 5.96086 13.4142 5.58579C13.0391 5.21071 12.5304 5 12 5H8C7.46957 5 6.96086 5.21071 6.58579 5.58579C6.21071 5.96086 6 6.46957 6 7V9H4C3.46957 9 2.96086 9.21071 2.58579 9.58579C2.21071 9.96086 2 10.4696 2 11V23C2 23.5304 2.21071 24.0391 2.58579 24.4142C2.96086 24.7893 3.46957 25 4 25H28C28.5304 25 29.0391 24.7893 29.4142 24.4142C29.7893 24.0391 30 23.5304 30 23V11C30 10.4696 29.7893 9.96086 29.4142 9.58579C29.0391 9.21071 28.5304 9 28 9ZM8 7H12V9H8V7ZM13 18H9C8.73478 18 8.48043 17.8946 8.29289 17.7071C8.10536 17.5196 8 17.2652 8 17C8 16.7348 8.10536 16.4804 8.29289 16.2929C8.48043 16.1054 8.73478 16 9 16H13C13.2652 16 13.5196 16.1054 13.7071 16.2929C13.8946 16.4804 14 16.7348 14 17C14 17.2652 13.8946 17.5196 13.7071 17.7071C13.5196 17.8946 13.2652 18 13 18ZM23 18H22V19C22 19.2652 21.8946 19.5196 21.7071 19.7071C21.5196 19.8946 21.2652 20 21 20C20.7348 20 20.4804 19.8946 20.2929 19.7071C20.1054 19.5196 20 19.2652 20 19V18H19C18.7348 18 18.4804 17.8946 18.2929 17.7071C18.1054 17.5196 18 17.2652 18 17C18 16.7348 18.1054 16.4804 18.2929 16.2929C18.4804 16.1054 18.7348 16 19 16H20V15C20 14.7348 20.1054 14.4804 20.2929 14.2929C20.4804 14.1054 20.7348 14 21 14C21.2652 14 21.5196 14.1054 21.7071 14.2929C21.8946 14.4804 22 14.7348 22 15V16H23C23.2652 16 23.5196 16.1054 23.7071 16.2929C23.8946 16.4804 24 16.7348 24 17C24 17.2652 23.8946 17.5196 23.7071 17.7071C23.5196 17.8946 23.2652 18 23 18ZM24 9H20V7H24V9Z" fill="white"/>
<path d="M65 17.5C65 17.8978 64.842 18.2794 64.5607 18.5607C64.2794 18.842 63.8978 19 63.5 19H63V19.5C63 19.8978 62.842 20.2794 62.5607 20.5607C62.2794 20.842 61.8978 21 61.5 21C61.1022 21 60.7206 20.842 60.4393 20.5607C60.158 20.2794 60 19.8978 60 19.5V19H59.5C59.1022 19 58.7206 18.842 58.4393 18.5607C58.158 18.2794 58 17.8978 58 17.5C58 17.1022 58.158 16.7206 58.4393 16.4393C58.7206 16.158 59.1022 16 59.5 16H60V15.5C60 15.1022 60.158 14.7206 60.4393 14.4393C60.7206 14.158 61.1022 14 61.5 14C61.8978 14 62.2794 14.158 62.5607 14.4393C62.842 14.7206 63 15.1022 63 15.5V16H63.5C63.8978 16 64.2794 16.158 64.5607 16.4393C64.842 16.7206 65 17.1022 65 17.5ZM52.5 16H48.5C48.1022 16 47.7206 16.158 47.4393 16.4393C47.158 16.7206 47 17.1022 47 17.5C47 17.8978 47.158 18.2794 47.4393 18.5607C47.7206 18.842 48.1022 19 48.5 19H52.5C52.8978 19 53.2794 18.842 53.5607 18.5607C53.842 18.2794 54 17.8978 54 17.5C54 17.1022 53.842 16.7206 53.5607 16.4393C53.2794 16.158 52.8978 16 52.5 16ZM70.5 11.5V23C70.5 23.663 70.2366 24.2989 69.7678 24.7678C69.2989 25.2366 68.663 25.5 68 25.5H44C43.337 25.5 42.7011 25.2366 42.2322 24.7678C41.7634 24.2989 41.5 23.663 41.5 23V11.5C41.5 10.837 41.7634 10.2011 42.2322 9.73223C42.7011 9.26339 43.337 9 44 9H45.5V7C45.5 6.33696 45.7634 5.70107 46.2322 5.23223C46.7011 4.76339 47.337 4.5 48 4.5H52C52.663 4.5 53.2989 4.76339 53.7678 5.23223C54.2366 5.70107 54.5 6.33696 54.5 7V9H57.5V7C57.5 6.33696 57.7634 5.70107 58.2322 5.23223C58.7011 4.76339 59.337 4.5 60 4.5H64C64.663 4.5 65.2989 4.76339 65.7678 5.23223C66.2366 5.70107 66.5 6.33696 66.5 7V9H68C68.663 9 69.2989 9.26339 69.7678 9.73223C70.2366 10.2011 70.5 10.837 70.5 11.5ZM60.5 9H63.5V7.5H60.5V9ZM48.5 9H51.5V7.5H48.5V9ZM67.5 12H44.5V22.5H67.5V12Z" fill="white"/>
</g>
<defs>
<clipPath id="clip0_27_931">
<rect width="72" height="32" rx="5" fill="white"/>
</clipPath>
</defs>
</svg>
