<svg width="72" height="32" viewBox="0 0 72 32" fill="none" xmlns="http://www.w3.org/2000/svg">
<g clip-path="url(#clip0_27_6951)">
<path d="M28 13V25C28 25.5304 27.7893 26.0391 27.4142 26.4142C27.0391 26.7893 26.5304 27 26 27H6C5.46957 27 4.96086 26.7893 4.58579 26.4142C4.21071 26.0391 4 25.5304 4 25V13C4 12.4696 4.21071 11.9609 4.58579 11.5858C4.96086 11.2107 5.46957 11 6 11H26C26.5304 11 27.0391 11.2107 27.4142 11.5858C27.7893 11.9609 28 12.4696 28 13ZM7 9H25C25.2652 9 25.5196 8.89464 25.7071 8.70711C25.8946 8.51957 26 8.26522 26 8C26 7.73478 25.8946 7.48043 25.7071 7.29289C25.5196 7.10536 25.2652 7 25 7H7C6.73478 7 6.48043 7.10536 6.29289 7.29289C6.10536 7.48043 6 7.73478 6 8C6 8.26522 6.10536 8.51957 6.29289 8.70711C6.48043 8.89464 6.73478 9 7 9ZM9 5H23C23.2652 5 23.5196 4.89464 23.7071 4.70711C23.8946 4.51957 24 4.26522 24 4C24 3.73478 23.8946 3.48043 23.7071 3.29289C23.5196 3.10536 23.2652 3 23 3H9C8.73478 3 8.48043 3.10536 8.29289 3.29289C8.10536 3.48043 8 3.73478 8 4C8 4.26522 8.10536 4.51957 8.29289 4.70711C8.48043 4.89464 8.73478 5 9 5Z" fill="white"/>
<path d="M66 12H46C45.337 12 44.7011 12.2634 44.2322 12.7322C43.7634 13.2011 43.5 13.837 43.5 14.5V25C43.5 25.663 43.7634 26.2989 44.2322 26.7678C44.7011 27.2366 45.337 27.5 46 27.5H66C66.663 27.5 67.2989 27.2366 67.7678 26.7678C68.2366 26.2989 68.5 25.663 68.5 25V14.5C68.5 13.837 68.2366 13.2011 67.7678 12.7322C67.2989 12.2634 66.663 12 66 12ZM65.5 24.5H46.5V15H65.5V24.5ZM45.5 8.5C45.5 8.10218 45.658 7.72064 45.9393 7.43934C46.2206 7.15804 46.6022 7 47 7H65C65.3978 7 65.7794 7.15804 66.0607 7.43934C66.342 7.72064 66.5 8.10218 66.5 8.5C66.5 8.89782 66.342 9.27936 66.0607 9.56066C65.7794 9.84196 65.3978 10 65 10H47C46.6022 10 46.2206 9.84196 45.9393 9.56066C45.658 9.27936 45.5 8.89782 45.5 8.5ZM47.5 3.5C47.5 3.10218 47.658 2.72064 47.9393 2.43934C48.2206 2.15804 48.6022 2 49 2H63C63.3978 2 63.7794 2.15804 64.0607 2.43934C64.342 2.72064 64.5 3.10218 64.5 3.5C64.5 3.89782 64.342 4.27936 64.0607 4.56066C63.7794 4.84196 63.3978 5 63 5H49C48.6022 5 48.2206 4.84196 47.9393 4.56066C47.658 4.27936 47.5 3.89782 47.5 3.5Z" fill="white"/>
</g>
<defs>
<clipPath id="clip0_27_6951">
<rect width="72" height="32" rx="5" fill="white"/>
</clipPath>
</defs>
</svg>
