<svg width="72" height="32" viewBox="0 0 72 32" fill="none" xmlns="http://www.w3.org/2000/svg">
<g clip-path="url(#clip0_27_936)">
<path d="M26 6H6C5.20435 6 4.44129 6.31607 3.87868 6.87868C3.31607 7.44129 3 8.20435 3 9V23C3 23.7956 3.31607 24.5587 3.87868 25.1213C4.44129 25.6839 5.20435 26 6 26H26C26.7956 26 27.5587 25.6839 28.1213 25.1213C28.6839 24.5587 29 23.7956 29 23V9C29 8.20435 28.6839 7.44129 28.1213 6.87868C27.5587 6.31607 26.7956 6 26 6ZM19 15C19 15.7956 18.6839 16.5587 18.1213 17.1213C17.5587 17.6839 16.7956 18 16 18C15.2044 18 14.4413 17.6839 13.8787 17.1213C13.3161 16.5587 13 15.7956 13 15C13 14.7348 12.8946 14.4804 12.7071 14.2929C12.5196 14.1054 12.2652 14 12 14H5V12H27V14H20C19.7348 14 19.4804 14.1054 19.2929 14.2929C19.1054 14.4804 19 14.7348 19 15ZM6 8H26C26.2652 8 26.5196 8.10536 26.7071 8.29289C26.8946 8.48043 27 8.73478 27 9V10H5V9C5 8.73478 5.10536 8.48043 5.29289 8.29289C5.48043 8.10536 5.73478 8 6 8Z" fill="white"/>
<path d="M66 5.5H46C45.0717 5.5 44.1815 5.86875 43.5251 6.52513C42.8687 7.1815 42.5 8.07174 42.5 9V23C42.5 23.9283 42.8687 24.8185 43.5251 25.4749C44.1815 26.1313 45.0717 26.5 46 26.5H66C66.4596 26.5 66.9148 26.4095 67.3394 26.2336C67.764 26.0577 68.1499 25.7999 68.4749 25.4749C68.7999 25.1499 69.0577 24.764 69.2336 24.3394C69.4095 23.9148 69.5 23.4596 69.5 23V9C69.5 8.54037 69.4095 8.08525 69.2336 7.66061C69.0577 7.23597 68.7999 6.85013 68.4749 6.52513C68.1499 6.20012 67.764 5.94231 67.3394 5.76642C66.9148 5.59053 66.4596 5.5 66 5.5ZM46 8.5H66C66.1326 8.5 66.2598 8.55268 66.3536 8.64645C66.4473 8.74021 66.5 8.86739 66.5 9V11H60C59.6022 11 59.2206 11.158 58.9393 11.4393C58.658 11.7206 58.5 12.1022 58.5 12.5C58.5 13.163 58.2366 13.7989 57.7678 14.2678C57.2989 14.7366 56.663 15 56 15C55.337 15 54.7011 14.7366 54.2322 14.2678C53.7634 13.7989 53.5 13.163 53.5 12.5C53.5 12.1022 53.342 11.7206 53.0607 11.4393C52.7794 11.158 52.3978 11 52 11H45.5V9C45.5 8.86739 45.5527 8.74021 45.6464 8.64645C45.7402 8.55268 45.8674 8.5 46 8.5ZM66 23.5H46C45.8674 23.5 45.7402 23.4473 45.6464 23.3536C45.5527 23.2598 45.5 23.1326 45.5 23V14H50.7075C51.0334 15.1526 51.7267 16.1673 52.6819 16.8899C53.6372 17.6125 54.8022 18.0035 56 18.0035C57.1978 18.0035 58.3628 17.6125 59.3181 16.8899C60.2733 16.1673 60.9666 15.1526 61.2925 14H66.5V23C66.5 23.1326 66.4473 23.2598 66.3536 23.3536C66.2598 23.4473 66.1326 23.5 66 23.5Z" fill="white"/>
</g>
<defs>
<clipPath id="clip0_27_936">
<rect width="72" height="32" rx="5" fill="white"/>
</clipPath>
</defs>
</svg>
