<svg width="72" height="32" viewBox="0 0 72 32" fill="none" xmlns="http://www.w3.org/2000/svg">
<g clip-path="url(#clip0_27_6339)">
<path d="M16 3C13.4288 3 10.9154 3.76244 8.77759 5.1909C6.63975 6.61935 4.97351 8.64968 3.98957 11.0251C3.00563 13.4006 2.74819 16.0144 3.2498 18.5362C3.75141 21.0579 4.98953 23.3743 6.80762 25.1924C8.6257 27.0105 10.9421 28.2486 13.4638 28.7502C15.9856 29.2518 18.5995 28.9944 20.9749 28.0104C23.3503 27.0265 25.3807 25.3603 26.8091 23.2224C28.2376 21.0846 29 18.5712 29 16C28.9964 12.5533 27.6256 9.24882 25.1884 6.81163C22.7512 4.37445 19.4467 3.00364 16 3ZM20.7075 19.7075L16.7075 23.7075C16.6146 23.8005 16.5043 23.8742 16.3829 23.9246C16.2615 23.9749 16.1314 24.0008 16 24.0008C15.8686 24.0008 15.7385 23.9749 15.6171 23.9246C15.4957 23.8742 15.3854 23.8005 15.2925 23.7075L11.2925 19.7075C11.1049 19.5199 10.9994 19.2654 10.9994 19C10.9994 18.7346 11.1049 18.4801 11.2925 18.2925C11.4801 18.1049 11.7346 17.9994 12 17.9994C12.2654 17.9994 12.5199 18.1049 12.7075 18.2925L16 21.5863L19.2925 18.2925C19.4801 18.1049 19.7346 17.9994 20 17.9994C20.2654 17.9994 20.5199 18.1049 20.7075 18.2925C20.8951 18.4801 21.0006 18.7346 21.0006 19C21.0006 19.2654 20.8951 19.5199 20.7075 19.7075ZM20.7075 13.7075C20.6146 13.8005 20.5043 13.8742 20.3829 13.9246C20.2615 13.9749 20.1314 14.0008 20 14.0008C19.8686 14.0008 19.7385 13.9749 19.6171 13.9246C19.4957 13.8742 19.3854 13.8005 19.2925 13.7075L16 10.4137L12.7075 13.7075C12.5199 13.8951 12.2654 14.0006 12 14.0006C11.7346 14.0006 11.4801 13.8951 11.2925 13.7075C11.1049 13.5199 10.9994 13.2654 10.9994 13C10.9994 12.7346 11.1049 12.4801 11.2925 12.2925L15.2925 8.2925C15.3854 8.19952 15.4957 8.12576 15.6171 8.07544C15.7385 8.02512 15.8686 7.99921 16 7.99921C16.1314 7.99921 16.2615 8.02512 16.3829 8.07544C16.5043 8.12576 16.6146 8.19952 16.7075 8.2925L20.7075 12.2925C20.8005 12.3854 20.8742 12.4957 20.9246 12.6171C20.9749 12.7385 21.0008 12.8686 21.0008 13C21.0008 13.1314 20.9749 13.2615 20.9246 13.3829C20.8742 13.5043 20.8005 13.6146 20.7075 13.7075Z" fill="white"/>
<path d="M56 2.5C53.33 2.5 50.7199 3.29176 48.4998 4.77516C46.2797 6.25856 44.5494 8.36697 43.5276 10.8338C42.5058 13.3006 42.2385 16.015 42.7594 18.6337C43.2803 21.2525 44.5661 23.6579 46.4541 25.5459C48.3421 27.434 50.7475 28.7197 53.3663 29.2406C55.985 29.7615 58.6994 29.4942 61.1662 28.4724C63.633 27.4506 65.7414 25.7203 67.2248 23.5002C68.7082 21.2801 69.5 18.67 69.5 16C69.496 12.4208 68.0724 8.98932 65.5416 6.45844C63.0107 3.92756 59.5792 2.50397 56 2.5ZM56 26.5C53.9233 26.5 51.8932 25.8842 50.1665 24.7304C48.4398 23.5767 47.094 21.9368 46.2993 20.0182C45.5046 18.0996 45.2966 15.9884 45.7018 13.9516C46.1069 11.9148 47.1069 10.0438 48.5754 8.57538C50.0438 7.10693 51.9148 6.1069 53.9516 5.70175C55.9884 5.29661 58.0996 5.50454 60.0182 6.29926C61.9368 7.09399 63.5767 8.4398 64.7304 10.1665C65.8842 11.8932 66.5 13.9233 66.5 16C66.497 18.7839 65.3898 21.4528 63.4213 23.4213C61.4529 25.3898 58.7839 26.497 56 26.5ZM61.0613 11.9388C61.343 12.2205 61.5014 12.6027 61.5014 13.0013C61.5014 13.3998 61.343 13.782 61.0613 14.0638C60.7795 14.3455 60.3973 14.5039 59.9988 14.5039C59.6002 14.5039 59.218 14.3455 58.9363 14.0638L56 11.125L53.0613 14.065C52.7795 14.3468 52.3973 14.5051 51.9988 14.5051C51.6002 14.5051 51.218 14.3468 50.9363 14.065C50.6545 13.7832 50.4962 13.401 50.4962 13.0025C50.4962 12.604 50.6545 12.2218 50.9363 11.94L54.9363 7.94C55.0756 7.80016 55.2412 7.6892 55.4235 7.6135C55.6059 7.53779 55.8013 7.49882 55.9988 7.49882C56.1962 7.49882 56.3917 7.53779 56.574 7.6135C56.7563 7.6892 56.9219 7.80016 57.0613 7.94L61.0613 11.9388ZM61.0613 17.9387C61.2011 18.0781 61.312 18.2437 61.3878 18.426C61.4635 18.6083 61.5024 18.8038 61.5024 19.0012C61.5024 19.1987 61.4635 19.3941 61.3878 19.5765C61.312 19.7588 61.2011 19.9244 61.0613 20.0637L57.0613 24.0637C56.9219 24.2036 56.7563 24.3145 56.574 24.3903C56.3917 24.466 56.1962 24.5049 55.9988 24.5049C55.8013 24.5049 55.6059 24.466 55.4235 24.3903C55.2412 24.3145 55.0756 24.2036 54.9363 24.0637L50.9363 20.0637C50.6545 19.782 50.4962 19.3998 50.4962 19.0012C50.4962 18.6027 50.6545 18.2205 50.9363 17.9387C51.218 17.657 51.6002 17.4986 51.9988 17.4986C52.3973 17.4986 52.7795 17.657 53.0613 17.9387L56 20.875L58.9388 17.935C59.0783 17.7958 59.2439 17.6854 59.4262 17.6103C59.6084 17.5351 59.8037 17.4966 60.0008 17.4969C60.1979 17.4973 60.393 17.5365 60.575 17.6123C60.757 17.6881 60.9222 17.799 61.0613 17.9387Z" fill="white"/>
</g>
<defs>
<clipPath id="clip0_27_6339">
<rect width="72" height="32" rx="5" fill="white"/>
</clipPath>
</defs>
</svg>
