<svg width="72" height="32" viewBox="0 0 72 32" fill="none" xmlns="http://www.w3.org/2000/svg">
<g clip-path="url(#clip0_27_6304)">
<path d="M25.1957 6.80252C23.3771 4.98571 21.0607 3.74884 18.5393 3.24826C16.0179 2.74768 13.4047 3.00586 11.03 3.99018C8.6553 4.97449 6.62572 6.64074 5.19783 8.7783C3.76993 10.9159 3.00781 13.4288 3.00781 15.9994C3.00781 18.57 3.76993 21.0829 5.19783 23.2205C6.62572 25.3581 8.6553 27.0243 11.03 28.0086C13.4047 28.9929 16.0179 29.2511 18.5393 28.7505C21.0607 28.25 23.3771 27.0131 25.1957 25.1963C27.6312 22.7552 28.999 19.4477 28.999 15.9994C28.999 12.5511 27.6312 9.24362 25.1957 6.80252ZM14.7057 19.2938C14.7986 19.3867 14.8723 19.497 14.9226 19.6184C14.9729 19.7398 14.9988 19.8699 14.9988 20.0013C14.9988 20.1327 14.9729 20.2628 14.9226 20.3842C14.8723 20.5056 14.7986 20.6159 14.7057 20.7088C14.6128 20.8017 14.5025 20.8754 14.3811 20.9257C14.2597 20.9759 14.1296 21.0018 13.9982 21.0018C13.8668 21.0018 13.7367 20.9759 13.6153 20.9257C13.4939 20.8754 13.3836 20.8017 13.2907 20.7088L9.29071 16.7088C9.19774 16.6159 9.12398 16.5056 9.07365 16.3842C9.02333 16.2628 8.99742 16.1327 8.99742 16.0013C8.99742 15.8699 9.02333 15.7397 9.07365 15.6183C9.12398 15.4969 9.19774 15.3866 9.29071 15.2938L13.2907 11.2938C13.3836 11.2009 13.4939 11.1272 13.6153 11.0769C13.7367 11.0266 13.8668 11.0007 13.9982 11.0007C14.1296 11.0007 14.2597 11.0266 14.3811 11.0769C14.5025 11.1272 14.6128 11.2009 14.7057 11.2938C14.7986 11.3867 14.8723 11.497 14.9226 11.6184C14.9729 11.7398 14.9988 11.8699 14.9988 12.0013C14.9988 12.1327 14.9729 12.2628 14.9226 12.3842C14.8723 12.5056 14.7986 12.6159 14.7057 12.7088L11.4107 16L14.7057 19.2938ZM21.7057 19.2938C21.7986 19.3867 21.8723 19.497 21.9226 19.6184C21.9729 19.7398 21.9988 19.8699 21.9988 20.0013C21.9988 20.1327 21.9729 20.2628 21.9226 20.3842C21.8723 20.5056 21.7986 20.6159 21.7057 20.7088C21.6128 20.8017 21.5025 20.8754 21.3811 20.9257C21.2597 20.9759 21.1296 21.0018 20.9982 21.0018C20.8668 21.0018 20.7367 20.9759 20.6153 20.9257C20.4939 20.8754 20.3836 20.8017 20.2907 20.7088L16.2907 16.7088C16.1977 16.6159 16.124 16.5056 16.0737 16.3842C16.0233 16.2628 15.9974 16.1327 15.9974 16.0013C15.9974 15.8699 16.0233 15.7397 16.0737 15.6183C16.124 15.4969 16.1977 15.3866 16.2907 15.2938L20.2907 11.2938C20.3836 11.2009 20.4939 11.1272 20.6153 11.0769C20.7367 11.0266 20.8668 11.0007 20.9982 11.0007C21.1296 11.0007 21.2597 11.0266 21.3811 11.0769C21.5025 11.1272 21.6128 11.2009 21.7057 11.2938C21.7986 11.3867 21.8723 11.497 21.9226 11.6184C21.9729 11.7398 21.9988 11.8699 21.9988 12.0013C21.9988 12.1327 21.9729 12.2628 21.9226 12.3842C21.8723 12.5056 21.7986 12.6159 21.7057 12.7088L18.4145 16L21.7057 19.2938Z" fill="white"/>
<path d="M65.5497 6.45001C63.6612 4.56315 61.2557 3.27854 58.6373 2.75857C56.0189 2.2386 53.3051 2.50661 50.8389 3.52873C48.3728 4.55085 46.2651 6.28119 44.7822 8.501C43.2993 10.7208 42.5078 13.3304 42.5078 16C42.5078 18.6696 43.2993 21.2792 44.7822 23.499C46.2651 25.7188 48.3728 27.4492 50.8389 28.4713C53.3051 29.4934 56.0189 29.7614 58.6373 29.2414C61.2557 28.7215 63.6612 27.4369 65.5497 25.55C68.079 23.0153 69.4995 19.5808 69.4995 16C69.4995 12.4192 68.079 8.98467 65.5497 6.45001ZM63.4247 23.4275C61.9559 24.8951 60.085 25.8944 58.0484 26.2988C56.0118 26.7033 53.901 26.4949 51.9829 25.7C50.0647 24.905 48.4254 23.5592 47.272 21.8326C46.1186 20.1061 45.503 18.0764 45.503 16C45.503 13.9236 46.1186 11.8939 47.272 10.1674C48.4254 8.44083 50.0647 7.09501 51.9829 6.30005C53.901 5.50509 56.0118 5.29668 58.0484 5.70116C60.085 6.10565 61.9559 7.10487 63.4247 8.57251C65.3922 10.5435 66.4975 13.2145 66.498 15.9995C66.4985 18.7845 65.3941 21.4559 63.4272 23.4275H63.4247ZM62.0609 13.0588L59.1247 16L62.0659 18.9413C62.2055 19.0808 62.3162 19.2464 62.3917 19.4287C62.4672 19.611 62.506 19.8064 62.506 20.0038C62.506 20.2011 62.4672 20.3965 62.3917 20.5788C62.3162 20.7611 62.2055 20.9267 62.0659 21.0663C61.9264 21.2058 61.7608 21.3165 61.5785 21.392C61.3962 21.4675 61.2008 21.5064 61.0034 21.5064C60.8061 21.5064 60.6107 21.4675 60.4284 21.392C60.2461 21.3165 60.0805 21.2058 59.9409 21.0663L55.9409 17.0663C55.8011 16.9269 55.6901 16.7613 55.6144 16.579C55.5387 16.3967 55.4998 16.2012 55.4998 16.0038C55.4998 15.8063 55.5387 15.6109 55.6144 15.4285C55.6901 15.2462 55.8011 15.0806 55.9409 14.9413L59.9409 10.9413C60.2227 10.6595 60.6049 10.5012 61.0034 10.5012C61.402 10.5012 61.7842 10.6595 62.0659 10.9413C62.3477 11.223 62.506 11.6052 62.506 12.0038C62.506 12.4023 62.3477 12.7845 62.0659 13.0663L62.0609 13.0588ZM55.0609 13.0588L52.1247 16L55.0647 18.9413C55.2042 19.0808 55.3149 19.2464 55.3904 19.4287C55.4659 19.611 55.5048 19.8064 55.5048 20.0038C55.5048 20.2011 55.4659 20.3965 55.3904 20.5788C55.3149 20.7611 55.2042 20.9267 55.0647 21.0663C54.9252 21.2058 54.7595 21.3165 54.5772 21.392C54.3949 21.4675 54.1995 21.5064 54.0022 21.5064C53.8049 21.5064 53.6095 21.4675 53.4272 21.392C53.2449 21.3165 53.0792 21.2058 52.9397 21.0663L48.9397 17.0663C48.7999 16.9269 48.6889 16.7613 48.6132 16.579C48.5375 16.3967 48.4985 16.2012 48.4985 16.0038C48.4985 15.8063 48.5375 15.6109 48.6132 15.4285C48.6889 15.2462 48.7999 15.0806 48.9397 14.9413L52.9397 10.9413C53.0792 10.8017 53.2449 10.691 53.4272 10.6155C53.6095 10.54 53.8049 10.5012 54.0022 10.5012C54.1995 10.5012 54.3949 10.54 54.5772 10.6155C54.7595 10.691 54.9252 10.8017 55.0647 10.9413C55.2042 11.0808 55.3149 11.2464 55.3904 11.4287C55.4659 11.611 55.5048 11.8064 55.5048 12.0038C55.5048 12.2011 55.4659 12.3965 55.3904 12.5788C55.3149 12.7611 55.2042 12.9267 55.0647 13.0663L55.0609 13.0588Z" fill="white"/>
</g>
<defs>
<clipPath id="clip0_27_6304">
<rect width="72" height="32" rx="5" fill="white"/>
</clipPath>
</defs>
</svg>
