<svg width="72" height="32" viewBox="0 0 72 32" fill="none" xmlns="http://www.w3.org/2000/svg">
<g clip-path="url(#clip0_27_6389)">
<path d="M26.7083 23.2925C26.8483 23.4324 26.9437 23.6106 26.9823 23.8047C27.021 23.9988 27.0012 24.2 26.9254 24.3828C26.8497 24.5656 26.7214 24.7218 26.5568 24.8317C26.3922 24.9416 26.1987 25.0002 26.0008 25H6.00079C5.80289 25.0002 5.6094 24.9416 5.44481 24.8317C5.28021 24.7218 5.15192 24.5656 5.07616 24.3828C5.00041 24.2 4.98061 23.9988 5.01926 23.8047C5.05791 23.6106 5.15328 23.4324 5.29329 23.2925L15.2933 13.2925C15.3862 13.1995 15.4964 13.1258 15.6178 13.0754C15.7392 13.0251 15.8694 12.9992 16.0008 12.9992C16.1322 12.9992 16.2623 13.0251 16.3837 13.0754C16.5051 13.1258 16.6154 13.1995 16.7083 13.2925L26.7083 23.2925ZM6.00079 10H26.0008C26.266 10 26.5204 9.89464 26.7079 9.70711C26.8954 9.51957 27.0008 9.26522 27.0008 9C27.0008 8.73478 26.8954 8.48043 26.7079 8.29289C26.5204 8.10536 26.266 8 26.0008 8H6.00079C5.73557 8 5.48122 8.10536 5.29368 8.29289C5.10614 8.48043 5.00079 8.73478 5.00079 9C5.00079 9.26522 5.10614 9.51957 5.29368 9.70711C5.48122 9.89464 5.73557 10 6.00079 10Z" fill="white"/>
<path d="M67.0612 22.9387C67.343 23.2205 67.5013 23.6027 67.5013 24.0012C67.5013 24.3998 67.343 24.782 67.0612 25.0637C66.7794 25.3455 66.3972 25.5039 65.9987 25.5039C65.6002 25.5039 65.218 25.3455 64.9362 25.0637L55.9999 16.125L47.0612 25.0613C46.7794 25.343 46.3972 25.5014 45.9987 25.5014C45.6002 25.5014 45.218 25.343 44.9362 25.0613C44.6544 24.7795 44.4961 24.3973 44.4961 23.9988C44.4961 23.6002 44.6544 23.218 44.9362 22.9363L54.9362 12.9362C55.0756 12.7964 55.2411 12.6855 55.4235 12.6097C55.6058 12.534 55.8013 12.4951 55.9987 12.4951C56.1961 12.4951 56.3916 12.534 56.5739 12.6097C56.7563 12.6855 56.9218 12.7964 57.0612 12.9362L67.0612 22.9387ZM45.9999 10.5H65.9999C66.3978 10.5 66.7793 10.342 67.0606 10.0607C67.3419 9.77936 67.4999 9.39782 67.4999 9C67.4999 8.60218 67.3419 8.22064 67.0606 7.93934C66.7793 7.65804 66.3978 7.5 65.9999 7.5H45.9999C45.6021 7.5 45.2206 7.65804 44.9393 7.93934C44.658 8.22064 44.4999 8.60218 44.4999 9C44.4999 9.39782 44.658 9.77936 44.9393 10.0607C45.2206 10.342 45.6021 10.5 45.9999 10.5Z" fill="white"/>
</g>
<defs>
<clipPath id="clip0_27_6389">
<rect width="72" height="32" rx="5" fill="white"/>
</clipPath>
</defs>
</svg>
