<svg width="72" height="32" viewBox="0 0 72 32" fill="none" xmlns="http://www.w3.org/2000/svg">
<g clip-path="url(#clip0_27_6369)">
<path d="M21.0008 5.99999V26C21.0009 26.1979 20.9424 26.3914 20.8325 26.556C20.7226 26.7206 20.5664 26.8489 20.3836 26.9246C20.2008 27.0004 19.9996 27.0202 19.8055 26.9815C19.6114 26.9429 19.4331 26.8475 19.2933 26.7075L9.29329 16.7075C9.20031 16.6146 9.12655 16.5043 9.07623 16.3829C9.0259 16.2615 9 16.1314 9 16C9 15.8686 9.0259 15.7385 9.07623 15.6171C9.12655 15.4957 9.20031 15.3854 9.29329 15.2925L19.2933 5.29249C19.4331 5.15248 19.6114 5.05712 19.8055 5.01846C19.9996 4.97981 20.2008 4.99962 20.3836 5.07537C20.5664 5.15112 20.7226 5.27942 20.8325 5.44401C20.9424 5.60861 21.0009 5.8021 21.0008 5.99999Z" fill="white"/>
<path d="M61.0603 24.9388C61.3421 25.2206 61.5004 25.6027 61.5004 26.0013C61.5004 26.3998 61.3421 26.782 61.0603 27.0638C60.7785 27.3456 60.3963 27.5039 59.9978 27.5039C59.5993 27.5039 59.2171 27.3456 58.9353 27.0638L48.9353 17.0638C48.7955 16.9244 48.6845 16.7588 48.6088 16.5765C48.5331 16.3942 48.4941 16.1987 48.4941 16.0013C48.4941 15.8038 48.5331 15.6084 48.6088 15.426C48.6845 15.2437 48.7955 15.0781 48.9353 14.9388L58.9353 4.93876C59.2171 4.65697 59.5993 4.49866 59.9978 4.49866C60.3963 4.49866 60.7785 4.65697 61.0603 4.93876C61.3421 5.22055 61.5004 5.60274 61.5004 6.00126C61.5004 6.39977 61.3421 6.78197 61.0603 7.06376L52.1241 16L61.0603 24.9388Z" fill="white"/>
</g>
<defs>
<clipPath id="clip0_27_6369">
<rect width="72" height="32" rx="5" fill="white"/>
</clipPath>
</defs>
</svg>
