<svg width="72" height="32" viewBox="0 0 72 32" fill="none" xmlns="http://www.w3.org/2000/svg">
<g clip-path="url(#clip0_27_6319)">
<path d="M16 3C13.4288 3 10.9154 3.76244 8.77759 5.1909C6.63975 6.61935 4.97351 8.64968 3.98957 11.0251C3.00563 13.4006 2.74819 16.0144 3.2498 18.5362C3.75141 21.0579 4.98953 23.3743 6.80762 25.1924C8.6257 27.0105 10.9421 28.2486 13.4638 28.7502C15.9856 29.2518 18.5995 28.9944 20.9749 28.0104C23.3503 27.0265 25.3807 25.3603 26.8091 23.2224C28.2376 21.0846 29 18.5712 29 16C28.9964 12.5533 27.6256 9.24882 25.1884 6.81163C22.7512 4.37445 19.4467 3.00364 16 3ZM21.7075 14.7075L16.7075 19.7075C16.6146 19.8005 16.5043 19.8742 16.3829 19.9246C16.2615 19.9749 16.1314 20.0008 16 20.0008C15.8686 20.0008 15.7385 19.9749 15.6171 19.9246C15.4957 19.8742 15.3854 19.8005 15.2925 19.7075L10.2925 14.7075C10.1049 14.5199 9.99945 14.2654 9.99945 14C9.99945 13.7346 10.1049 13.4801 10.2925 13.2925C10.4801 13.1049 10.7346 12.9994 11 12.9994C11.2654 12.9994 11.5199 13.1049 11.7075 13.2925L16 17.5863L20.2925 13.2925C20.3854 13.1996 20.4957 13.1259 20.6171 13.0756C20.7385 13.0253 20.8686 12.9994 21 12.9994C21.1314 12.9994 21.2615 13.0253 21.3829 13.0756C21.5043 13.1259 21.6146 13.1996 21.7075 13.2925C21.8004 13.3854 21.8741 13.4957 21.9244 13.6171C21.9747 13.7385 22.0006 13.8686 22.0006 14C22.0006 14.1314 21.9747 14.2615 21.9244 14.3829C21.8741 14.5043 21.8004 14.6146 21.7075 14.7075Z" fill="white"/>
<path d="M56 2.5C53.33 2.5 50.7199 3.29176 48.4998 4.77516C46.2797 6.25856 44.5494 8.36697 43.5276 10.8338C42.5058 13.3006 42.2385 16.015 42.7594 18.6337C43.2803 21.2525 44.5661 23.6579 46.4541 25.5459C48.3421 27.434 50.7475 28.7197 53.3663 29.2406C55.985 29.7615 58.6994 29.4942 61.1662 28.4724C63.633 27.4506 65.7414 25.7203 67.2248 23.5002C68.7082 21.2801 69.5 18.67 69.5 16C69.496 12.4208 68.0724 8.98932 65.5416 6.45844C63.0107 3.92756 59.5792 2.50397 56 2.5ZM56 26.5C53.9233 26.5 51.8932 25.8842 50.1665 24.7304C48.4398 23.5767 47.094 21.9368 46.2993 20.0182C45.5046 18.0996 45.2966 15.9884 45.7018 13.9516C46.1069 11.9148 47.1069 10.0438 48.5754 8.57538C50.0438 7.10693 51.9148 6.1069 53.9516 5.70175C55.9884 5.29661 58.0996 5.50454 60.0182 6.29926C61.9368 7.09399 63.5767 8.4398 64.7304 10.1665C65.8842 11.8932 66.5 13.9233 66.5 16C66.497 18.7839 65.3898 21.4528 63.4213 23.4213C61.4529 25.3898 58.7839 26.497 56 26.5ZM62.0613 12.9388C62.2011 13.0781 62.312 13.2437 62.3878 13.426C62.4635 13.6083 62.5024 13.8038 62.5024 14.0013C62.5024 14.1987 62.4635 14.3942 62.3878 14.5765C62.312 14.7588 62.2011 14.9244 62.0613 15.0638L57.0613 20.0637C56.9219 20.2036 56.7563 20.3145 56.574 20.3903C56.3917 20.466 56.1962 20.5049 55.9988 20.5049C55.8013 20.5049 55.6059 20.466 55.4235 20.3903C55.2412 20.3145 55.0756 20.2036 54.9363 20.0637L49.9363 15.0638C49.6545 14.782 49.4962 14.3998 49.4962 14.0013C49.4962 13.6027 49.6545 13.2205 49.9363 12.9388C50.218 12.657 50.6002 12.4986 50.9988 12.4986C51.3973 12.4986 51.7795 12.657 52.0613 12.9388L56 16.875L59.9388 12.935C60.0783 12.7958 60.2439 12.6854 60.4262 12.6103C60.6084 12.5351 60.8037 12.4966 61.0008 12.4969C61.1979 12.4973 61.393 12.5365 61.575 12.6123C61.757 12.6881 61.9222 12.799 62.0613 12.9388Z" fill="white"/>
</g>
<defs>
<clipPath id="clip0_27_6319">
<rect width="72" height="32" rx="5" fill="white"/>
</clipPath>
</defs>
</svg>
