<svg width="72" height="32" viewBox="0 0 72 32" fill="none" xmlns="http://www.w3.org/2000/svg">
<g clip-path="url(#clip0_27_6324)">
<path d="M16 3C13.4288 3 10.9154 3.76244 8.77759 5.1909C6.63975 6.61935 4.97351 8.64968 3.98957 11.0251C3.00563 13.4006 2.74819 16.0144 3.2498 18.5362C3.75141 21.0579 4.98953 23.3743 6.80762 25.1924C8.6257 27.0105 10.9421 28.2486 13.4638 28.7502C15.9856 29.2518 18.5995 28.9944 20.9749 28.0104C23.3503 27.0265 25.3807 25.3603 26.8091 23.2224C28.2376 21.0846 29 18.5712 29 16C28.9964 12.5533 27.6256 9.24882 25.1884 6.81163C22.7512 4.37445 19.4467 3.00364 16 3ZM18.7075 20.2925C18.8004 20.3854 18.8741 20.4957 18.9244 20.6171C18.9747 20.7385 19.0006 20.8686 19.0006 21C19.0006 21.1314 18.9747 21.2615 18.9244 21.3829C18.8741 21.5043 18.8004 21.6146 18.7075 21.7075C18.6146 21.8004 18.5043 21.8741 18.3829 21.9244C18.2615 21.9747 18.1314 22.0006 18 22.0006C17.8686 22.0006 17.7385 21.9747 17.6171 21.9244C17.4957 21.8741 17.3854 21.8004 17.2925 21.7075L12.2925 16.7075C12.1995 16.6146 12.1258 16.5043 12.0754 16.3829C12.0251 16.2615 11.9992 16.1314 11.9992 16C11.9992 15.8686 12.0251 15.7385 12.0754 15.6171C12.1258 15.4957 12.1995 15.3854 12.2925 15.2925L17.2925 10.2925C17.3854 10.1996 17.4957 10.1259 17.6171 10.0756C17.7385 10.0253 17.8686 9.99944 18 9.99944C18.1314 9.99944 18.2615 10.0253 18.3829 10.0756C18.5043 10.1259 18.6146 10.1996 18.7075 10.2925C18.8004 10.3854 18.8741 10.4957 18.9244 10.6171C18.9747 10.7385 19.0006 10.8686 19.0006 11C19.0006 11.1314 18.9747 11.2615 18.9244 11.3829C18.8741 11.5043 18.8004 11.6146 18.7075 11.7075L14.4138 16L18.7075 20.2925Z" fill="white"/>
<path d="M56 2.5C53.33 2.5 50.7199 3.29176 48.4998 4.77516C46.2797 6.25856 44.5494 8.36697 43.5276 10.8338C42.5058 13.3006 42.2385 16.015 42.7594 18.6337C43.2803 21.2525 44.5661 23.6579 46.4541 25.5459C48.3421 27.434 50.7475 28.7197 53.3663 29.2406C55.985 29.7615 58.6994 29.4942 61.1662 28.4724C63.633 27.4506 65.7414 25.7203 67.2248 23.5002C68.7082 21.2801 69.5 18.67 69.5 16C69.496 12.4208 68.0724 8.98932 65.5416 6.45844C63.0107 3.92756 59.5792 2.50397 56 2.5ZM56 26.5C53.9233 26.5 51.8932 25.8842 50.1665 24.7304C48.4398 23.5767 47.094 21.9368 46.2993 20.0182C45.5046 18.0996 45.2966 15.9884 45.7018 13.9516C46.1069 11.9148 47.1069 10.0438 48.5754 8.57538C50.0438 7.10693 51.9148 6.1069 53.9516 5.70175C55.9884 5.29661 58.0996 5.50454 60.0182 6.29926C61.9368 7.09399 63.5767 8.4398 64.7304 10.1665C65.8842 11.8932 66.5 13.9233 66.5 16C66.497 18.7839 65.3898 21.4528 63.4213 23.4213C61.4529 25.3898 58.7839 26.497 56 26.5ZM59.0613 12.0612L55.125 16L59.065 19.9387C59.3468 20.2205 59.5051 20.6027 59.5051 21.0012C59.5051 21.3998 59.3468 21.782 59.065 22.0637C58.7832 22.3455 58.401 22.5039 58.0025 22.5039C57.604 22.5039 57.2218 22.3455 56.94 22.0637L51.94 17.0637C51.8002 16.9244 51.6892 16.7588 51.6135 16.5765C51.5378 16.3941 51.4988 16.1987 51.4988 16.0012C51.4988 15.8038 51.5378 15.6083 51.6135 15.426C51.6892 15.2437 51.8002 15.0781 51.94 14.9388L56.94 9.93875C57.0795 9.79922 57.2452 9.68854 57.4275 9.61303C57.6098 9.53751 57.8052 9.49865 58.0025 9.49865C58.1998 9.49865 58.3952 9.53751 58.5775 9.61303C58.7598 9.68854 58.9255 9.79922 59.065 9.93875C59.2045 10.0783 59.3152 10.2439 59.3907 10.4262C59.4662 10.6085 59.5051 10.8039 59.5051 11.0013C59.5051 11.1986 59.4662 11.394 59.3907 11.5763C59.3152 11.7586 59.2045 11.9242 59.065 12.0638L59.0613 12.0612Z" fill="white"/>
</g>
<defs>
<clipPath id="clip0_27_6324">
<rect width="72" height="32" rx="5" fill="white"/>
</clipPath>
</defs>
</svg>
