<svg width="72" height="32" viewBox="0 0 72 32" fill="none" xmlns="http://www.w3.org/2000/svg">
<g clip-path="url(#clip0_27_6404)">
<path d="M9.07704 10.3825C9.00124 10.1998 8.98133 9.99871 9.01982 9.80469C9.05831 9.61067 9.15348 9.43242 9.29329 9.29249L15.2933 3.29249C15.3862 3.19952 15.4964 3.12576 15.6178 3.07543C15.7392 3.02511 15.8694 2.99921 16.0008 2.99921C16.1322 2.99921 16.2623 3.02511 16.3837 3.07543C16.5051 3.12576 16.6154 3.19952 16.7083 3.29249L22.7083 9.29249C22.8483 9.43235 22.9437 9.6106 22.9823 9.80469C23.021 9.99877 23.0012 10.2 22.9254 10.3828C22.8497 10.5656 22.7214 10.7218 22.5568 10.8317C22.3922 10.9416 22.1987 11.0001 22.0008 11H10.0008C9.80301 11 9.60968 10.9413 9.44526 10.8314C9.28083 10.7214 9.15269 10.5652 9.07704 10.3825ZM22.0008 21H10.0008C9.80289 20.9998 9.6094 21.0584 9.44481 21.1683C9.28021 21.2781 9.15192 21.4344 9.07616 21.6172C9.00041 21.8 8.98061 22.0012 9.01926 22.1953C9.05791 22.3894 9.15328 22.5676 9.29329 22.7075L15.2933 28.7075C15.3862 28.8005 15.4964 28.8742 15.6178 28.9246C15.7392 28.9749 15.8694 29.0008 16.0008 29.0008C16.1322 29.0008 16.2623 28.9749 16.3837 28.9246C16.5051 28.8742 16.6154 28.8005 16.7083 28.7075L22.7083 22.7075C22.8483 22.5676 22.9437 22.3894 22.9823 22.1953C23.021 22.0012 23.0012 21.8 22.9254 21.6172C22.8497 21.4344 22.7214 21.2781 22.5568 21.1683C22.3922 21.0584 22.1987 20.9998 22.0008 21Z" fill="white"/>
<path d="M63.0612 20.9388C63.201 21.0781 63.312 21.2437 63.3877 21.426C63.4634 21.6084 63.5024 21.8039 63.5024 22.0013C63.5024 22.1987 63.4634 22.3942 63.3877 22.5765C63.312 22.7588 63.201 22.9244 63.0612 23.0638L57.0612 29.0638C56.9218 29.2036 56.7563 29.3146 56.5739 29.3903C56.3916 29.466 56.1961 29.505 55.9987 29.505C55.8013 29.505 55.6058 29.466 55.4235 29.3903C55.2411 29.3146 55.0756 29.2036 54.9362 29.0638L48.9362 23.0638C48.6544 22.782 48.4961 22.3998 48.4961 22.0013C48.4961 21.6028 48.6544 21.2206 48.9362 20.9388C49.218 20.657 49.6002 20.4987 49.9987 20.4987C50.3972 20.4987 50.7794 20.657 51.0612 20.9388L55.9999 25.875L60.9387 20.935C61.0783 20.7958 61.2439 20.6855 61.4261 20.6103C61.6083 20.5351 61.8036 20.4966 62.0007 20.497C62.1978 20.4973 62.393 20.5365 62.5749 20.6123C62.7569 20.6881 62.9221 20.7991 63.0612 20.9388ZM51.0612 11.0638L55.9999 6.12502L60.9387 11.065C61.2205 11.3468 61.6027 11.5051 62.0012 11.5051C62.3997 11.5051 62.7819 11.3468 63.0637 11.065C63.3455 10.7832 63.5038 10.401 63.5038 10.0025C63.5038 9.60401 63.3455 9.22182 63.0637 8.94002L57.0637 2.94002C56.9243 2.80018 56.7587 2.68923 56.5764 2.61352C56.3941 2.53781 56.1986 2.49884 56.0012 2.49884C55.8038 2.49884 55.6083 2.53781 55.426 2.61352C55.2436 2.68923 55.0781 2.80018 54.9387 2.94002L48.9387 8.94002C48.6569 9.22182 48.4986 9.60401 48.4986 10.0025C48.4986 10.401 48.6569 10.7832 48.9387 11.065C49.2205 11.3468 49.6027 11.5051 50.0012 11.5051C50.3997 11.5051 50.7819 11.3468 51.0637 11.065L51.0612 11.0638Z" fill="white"/>
</g>
<defs>
<clipPath id="clip0_27_6404">
<rect width="72" height="32" rx="5" fill="white"/>
</clipPath>
</defs>
</svg>
