<svg width="72" height="32" viewBox="0 0 72 32" fill="none" xmlns="http://www.w3.org/2000/svg">
<g clip-path="url(#clip0_27_6314)">
<path d="M25.1983 6.80376C23.3798 4.98677 21.0634 3.74972 18.5419 3.249C16.0205 2.74828 13.4072 3.00636 11.0324 3.99062C8.65756 4.97488 6.62788 6.64113 5.1999 8.77873C3.77193 10.9163 3.00977 13.4293 3.00977 16C3.00977 18.5707 3.77193 21.0837 5.1999 23.2213C6.62788 25.3589 8.65756 27.0251 11.0324 28.0094C13.4072 28.9937 16.0205 29.2517 18.5419 28.751C21.0634 28.2503 23.3798 27.0132 25.1983 25.1963C27.6334 22.7552 29.001 19.448 29.001 16C29.001 12.552 27.6334 9.2448 25.1983 6.80376ZM20.7108 21.71C20.6179 21.803 20.5076 21.8767 20.3862 21.9271C20.2648 21.9774 20.1347 22.0033 20.0033 22.0033C19.8719 22.0033 19.7417 21.9774 19.6203 21.9271C19.499 21.8767 19.3887 21.803 19.2958 21.71L16.0008 18.415L12.707 21.71C12.5194 21.8976 12.2649 22.0031 11.9995 22.0031C11.7342 22.0031 11.4797 21.8976 11.292 21.71C11.1044 21.5224 10.999 21.2679 10.999 21.0025C10.999 20.7371 11.1044 20.4826 11.292 20.295L15.292 16.295C15.3849 16.202 15.4952 16.1283 15.6166 16.0779C15.738 16.0276 15.8681 16.0017 15.9995 16.0017C16.131 16.0017 16.2611 16.0276 16.3825 16.0779C16.5039 16.1283 16.6142 16.202 16.707 16.295L20.707 20.295C20.8003 20.3876 20.8743 20.4977 20.925 20.619C20.9756 20.7403 21.0019 20.8703 21.0022 21.0017C21.0026 21.1331 20.977 21.2633 20.927 21.3849C20.877 21.5064 20.8035 21.6169 20.7108 21.71ZM20.7108 14.71C20.6179 14.803 20.5076 14.8767 20.3862 14.9271C20.2648 14.9774 20.1347 15.0033 20.0033 15.0033C19.8719 15.0033 19.7417 14.9774 19.6203 14.9271C19.499 14.8767 19.3887 14.803 19.2958 14.71L16.0008 11.4113L12.707 14.7063C12.5194 14.8939 12.2649 14.9993 11.9995 14.9993C11.7342 14.9993 11.4797 14.8939 11.292 14.7063C11.1044 14.5186 10.999 14.2641 10.999 13.9988C10.999 13.7334 11.1044 13.4789 11.292 13.2913L15.292 9.29126C15.3849 9.19828 15.4952 9.12452 15.6166 9.0742C15.738 9.02387 15.8681 8.99797 15.9995 8.99797C16.131 8.99797 16.2611 9.02387 16.3825 9.0742C16.5039 9.12452 16.6142 9.19828 16.707 9.29126L20.707 13.2913C20.8003 13.3839 20.8743 13.494 20.925 13.6152C20.9756 13.7365 21.0019 13.8666 21.0022 13.998C21.0026 14.1294 20.977 14.2596 20.927 14.3811C20.877 14.5027 20.8035 14.6131 20.7108 14.7063V14.71Z" fill="white"/>
<path d="M65.5497 6.45001C63.6612 4.56315 61.2557 3.27854 58.6373 2.75857C56.0189 2.2386 53.3051 2.50661 50.8389 3.52873C48.3728 4.55085 46.2651 6.28119 44.7822 8.501C43.2993 10.7208 42.5078 13.3304 42.5078 16C42.5078 18.6696 43.2993 21.2792 44.7822 23.499C46.2651 25.7188 48.3728 27.4492 50.8389 28.4713C53.3051 29.4934 56.0189 29.7614 58.6373 29.2414C61.2557 28.7215 63.6612 27.4369 65.5497 25.55C68.079 23.0153 69.4995 19.5808 69.4995 16C69.4995 12.4192 68.079 8.98467 65.5497 6.45001ZM63.4247 23.4275C61.9559 24.8951 60.085 25.8944 58.0484 26.2988C56.0118 26.7033 53.901 26.4949 51.9829 25.7C50.0647 24.905 48.4254 23.5592 47.272 21.8326C46.1186 20.1061 45.503 18.0764 45.503 16C45.503 13.9236 46.1186 11.8939 47.272 10.1674C48.4254 8.44083 50.0647 7.09501 51.9829 6.30005C53.901 5.50509 56.0118 5.29668 58.0484 5.70116C60.085 6.10565 61.9559 7.10487 63.4247 8.57251C65.3922 10.5435 66.4975 13.2145 66.498 15.9995C66.4985 18.7845 65.3941 21.4559 63.4272 23.4275H63.4247ZM61.0622 19.9413C61.344 20.223 61.5023 20.6052 61.5023 21.0038C61.5023 21.4023 61.344 21.7845 61.0622 22.0663C60.7804 22.348 60.3982 22.5064 59.9997 22.5064C59.6012 22.5064 59.219 22.348 58.9372 22.0663L55.9997 19.125L53.0584 22.0663C52.7767 22.348 52.3945 22.5064 51.9959 22.5064C51.5974 22.5064 51.2152 22.348 50.9334 22.0663C50.6517 21.7845 50.4933 21.4023 50.4933 21.0038C50.4933 20.6052 50.6517 20.223 50.9334 19.9413L54.9334 15.9413C55.0728 15.8014 55.2384 15.6905 55.4207 15.6148C55.603 15.539 55.7985 15.5001 55.9959 15.5001C56.1934 15.5001 56.3888 15.539 56.5712 15.6148C56.7535 15.6905 56.9191 15.8014 57.0584 15.9413L61.0622 19.9413ZM61.0622 12.9413C61.2017 13.0808 61.3124 13.2464 61.3879 13.4287C61.4634 13.611 61.5023 13.8064 61.5023 14.0038C61.5023 14.2011 61.4634 14.3965 61.3879 14.5788C61.3124 14.7611 61.2017 14.9267 61.0622 15.0663C60.9227 15.2058 60.757 15.3165 60.5747 15.392C60.3924 15.4675 60.197 15.5064 59.9997 15.5064C59.8024 15.5064 59.607 15.4675 59.4247 15.392C59.2424 15.3165 59.0767 15.2058 58.9372 15.0663L55.9997 12.125L53.0584 15.065C52.9189 15.2045 52.7533 15.3152 52.571 15.3907C52.3887 15.4662 52.1933 15.5051 51.9959 15.5051C51.7986 15.5051 51.6032 15.4662 51.4209 15.3907C51.2386 15.3152 51.073 15.2045 50.9334 15.065C50.7939 14.9255 50.6832 14.7598 50.6077 14.5775C50.5322 14.3952 50.4933 14.1998 50.4933 14.0025C50.4933 13.8052 50.5322 13.6098 50.6077 13.4275C50.6832 13.2452 50.7939 13.0795 50.9334 12.94L54.9334 8.94001C55.0728 8.80017 55.2384 8.68921 55.4207 8.6135C55.603 8.5378 55.7985 8.49882 55.9959 8.49882C56.1934 8.49882 56.3888 8.5378 56.5712 8.6135C56.7535 8.68921 56.9191 8.80017 57.0584 8.94001L61.0622 12.9413Z" fill="white"/>
</g>
<defs>
<clipPath id="clip0_27_6314">
<rect width="72" height="32" rx="5" fill="white"/>
</clipPath>
</defs>
</svg>
