<svg width="72" height="32" viewBox="0 0 72 32" fill="none" xmlns="http://www.w3.org/2000/svg">
<g clip-path="url(#clip0_27_6329)">
<path d="M16 3C13.4288 3 10.9154 3.76244 8.77759 5.1909C6.63975 6.61935 4.97351 8.64968 3.98957 11.0251C3.00563 13.4006 2.74819 16.0144 3.2498 18.5362C3.75141 21.0579 4.98953 23.3743 6.80762 25.1924C8.6257 27.0105 10.9421 28.2486 13.4638 28.7502C15.9856 29.2518 18.5995 28.9944 20.9749 28.0104C23.3503 27.0265 25.3807 25.3603 26.8091 23.2224C28.2376 21.0846 29 18.5712 29 16C28.9964 12.5533 27.6256 9.24882 25.1884 6.81163C22.7512 4.37445 19.4467 3.00364 16 3ZM19.7075 16.7075L14.7075 21.7075C14.6146 21.8004 14.5043 21.8741 14.3829 21.9244C14.2615 21.9747 14.1314 22.0006 14 22.0006C13.8686 22.0006 13.7385 21.9747 13.6171 21.9244C13.4957 21.8741 13.3854 21.8004 13.2925 21.7075C13.1996 21.6146 13.1259 21.5043 13.0756 21.3829C13.0253 21.2615 12.9994 21.1314 12.9994 21C12.9994 20.8686 13.0253 20.7385 13.0756 20.6171C13.1259 20.4957 13.1996 20.3854 13.2925 20.2925L17.5863 16L13.2925 11.7075C13.1049 11.5199 12.9994 11.2654 12.9994 11C12.9994 10.7346 13.1049 10.4801 13.2925 10.2925C13.4801 10.1049 13.7346 9.99944 14 9.99944C14.2654 9.99944 14.5199 10.1049 14.7075 10.2925L19.7075 15.2925C19.8005 15.3854 19.8742 15.4957 19.9246 15.6171C19.9749 15.7385 20.0008 15.8686 20.0008 16C20.0008 16.1314 19.9749 16.2615 19.9246 16.3829C19.8742 16.5043 19.8005 16.6146 19.7075 16.7075Z" fill="white"/>
<path d="M56 2.5C53.33 2.5 50.7199 3.29176 48.4998 4.77516C46.2797 6.25856 44.5494 8.36697 43.5276 10.8338C42.5058 13.3006 42.2385 16.015 42.7594 18.6337C43.2803 21.2525 44.5661 23.6579 46.4541 25.5459C48.3421 27.434 50.7475 28.7197 53.3663 29.2406C55.985 29.7615 58.6994 29.4942 61.1662 28.4724C63.633 27.4506 65.7414 25.7203 67.2248 23.5002C68.7082 21.2801 69.5 18.67 69.5 16C69.496 12.4208 68.0724 8.98932 65.5416 6.45844C63.0107 3.92756 59.5792 2.50397 56 2.5ZM56 26.5C53.9233 26.5 51.8932 25.8842 50.1665 24.7304C48.4398 23.5767 47.094 21.9368 46.2993 20.0182C45.5046 18.0996 45.2966 15.9884 45.7018 13.9516C46.1069 11.9148 47.1069 10.0438 48.5754 8.57538C50.0438 7.10693 51.9148 6.1069 53.9516 5.70175C55.9884 5.29661 58.0996 5.50454 60.0182 6.29926C61.9368 7.09399 63.5767 8.4398 64.7304 10.1665C65.8842 11.8932 66.5 13.9233 66.5 16C66.497 18.7839 65.3898 21.4528 63.4213 23.4213C61.4529 25.3898 58.7839 26.497 56 26.5ZM60.0613 14.9388C60.2011 15.0781 60.312 15.2437 60.3878 15.426C60.4635 15.6083 60.5024 15.8038 60.5024 16.0012C60.5024 16.1987 60.4635 16.3941 60.3878 16.5765C60.312 16.7588 60.2011 16.9244 60.0613 17.0637L55.0613 22.0637C54.7795 22.3455 54.3973 22.5039 53.9988 22.5039C53.6002 22.5039 53.218 22.3455 52.9363 22.0637C52.6545 21.782 52.4962 21.3998 52.4962 21.0012C52.4962 20.6027 52.6545 20.2205 52.9363 19.9387L56.875 16L52.9388 12.0612C52.657 11.7795 52.4987 11.3973 52.4987 10.9987C52.4987 10.6002 52.657 10.218 52.9388 9.93625C53.2205 9.65446 53.6027 9.49615 54.0013 9.49615C54.3998 9.49615 54.782 9.65446 55.0638 9.93625L60.0613 14.9388Z" fill="white"/>
</g>
<defs>
<clipPath id="clip0_27_6329">
<rect width="72" height="32" rx="5" fill="white"/>
</clipPath>
</defs>
</svg>
