<svg width="72" height="32" viewBox="0 0 72 32" fill="none" xmlns="http://www.w3.org/2000/svg">
<g clip-path="url(#clip0_27_6394)">
<path d="M22.7075 16.7075L12.7075 26.7075C12.5676 26.8475 12.3894 26.9429 12.1953 26.9815C12.0012 27.0202 11.8 27.0004 11.6172 26.9246C11.4344 26.8489 11.2782 26.7206 11.1683 26.556C11.0584 26.3914 10.9998 26.1979 11 26V5.99999C10.9998 5.8021 11.0584 5.60861 11.1683 5.44401C11.2782 5.27942 11.4344 5.15112 11.6172 5.07537C11.8 4.99962 12.0012 4.97981 12.1953 5.01846C12.3894 5.05712 12.5676 5.15248 12.7075 5.29249L22.7075 15.2925C22.8005 15.3854 22.8742 15.4957 22.9246 15.6171C22.9749 15.7385 23.0008 15.8686 23.0008 16C23.0008 16.1314 22.9749 16.2615 22.9246 16.3829C22.8742 16.5043 22.8005 16.6146 22.7075 16.7075Z" fill="white"/>
<path d="M63.0612 17.0613L53.0612 27.0613C52.7794 27.343 52.3972 27.5014 51.9987 27.5014C51.6002 27.5014 51.218 27.343 50.9362 27.0613C50.6544 26.7795 50.4961 26.3973 50.4961 25.9988C50.4961 25.6002 50.6544 25.218 50.9362 24.9363L59.8749 16L50.9387 7.06126C50.7992 6.92173 50.6885 6.75608 50.613 6.57378C50.5375 6.39147 50.4986 6.19608 50.4986 5.99876C50.4986 5.80143 50.5375 5.60604 50.613 5.42374C50.6885 5.24143 50.7992 5.07579 50.9387 4.93626C51.0782 4.79673 51.2439 4.68605 51.4262 4.61053C51.6085 4.53502 51.8039 4.49615 52.0012 4.49615C52.1985 4.49615 52.3939 4.53502 52.5762 4.61053C52.7585 4.68605 52.9242 4.79673 53.0637 4.93626L63.0637 14.9363C63.2034 15.0758 63.3141 15.2415 63.3896 15.4239C63.4651 15.6063 63.5039 15.8019 63.5036 15.9993C63.5034 16.1967 63.4642 16.3921 63.3883 16.5744C63.3123 16.7566 63.2012 16.9221 63.0612 17.0613Z" fill="white"/>
</g>
<defs>
<clipPath id="clip0_27_6394">
<rect width="72" height="32" rx="5" fill="white"/>
</clipPath>
</defs>
</svg>
