<svg width="72" height="32" viewBox="0 0 72 32" fill="none" xmlns="http://www.w3.org/2000/svg">
<g clip-path="url(#clip0_27_6334)">
<path d="M16 3C13.4288 3 10.9154 3.76244 8.77759 5.1909C6.63975 6.61935 4.97351 8.64968 3.98957 11.0251C3.00563 13.4006 2.74819 16.0144 3.2498 18.5362C3.75141 21.0579 4.98953 23.3743 6.80762 25.1924C8.6257 27.0105 10.9421 28.2486 13.4638 28.7502C15.9856 29.2518 18.5995 28.9944 20.9749 28.0104C23.3503 27.0265 25.3807 25.3603 26.8091 23.2224C28.2376 21.0846 29 18.5712 29 16C28.9964 12.5533 27.6256 9.24882 25.1884 6.81163C22.7512 4.37445 19.4467 3.00364 16 3ZM21.7075 18.7075C21.6146 18.8005 21.5043 18.8742 21.3829 18.9246C21.2615 18.9749 21.1314 19.0008 21 19.0008C20.8686 19.0008 20.7385 18.9749 20.6171 18.9246C20.4957 18.8742 20.3854 18.8005 20.2925 18.7075L16 14.4137L11.7075 18.7075C11.6146 18.8004 11.5043 18.8741 11.3829 18.9244C11.2615 18.9747 11.1314 19.0006 11 19.0006C10.8686 19.0006 10.7385 18.9747 10.6171 18.9244C10.4957 18.8741 10.3854 18.8004 10.2925 18.7075C10.1996 18.6146 10.1259 18.5043 10.0756 18.3829C10.0253 18.2615 9.99945 18.1314 9.99945 18C9.99945 17.8686 10.0253 17.7385 10.0756 17.6171C10.1259 17.4957 10.1996 17.3854 10.2925 17.2925L15.2925 12.2925C15.3854 12.1995 15.4957 12.1258 15.6171 12.0754C15.7385 12.0251 15.8686 11.9992 16 11.9992C16.1314 11.9992 16.2615 12.0251 16.3829 12.0754C16.5043 12.1258 16.6146 12.1995 16.7075 12.2925L21.7075 17.2925C21.8005 17.3854 21.8742 17.4957 21.9246 17.6171C21.9749 17.7385 22.0008 17.8686 22.0008 18C22.0008 18.1314 21.9749 18.2615 21.9246 18.3829C21.8742 18.5043 21.8005 18.6146 21.7075 18.7075Z" fill="white"/>
<path d="M56 2.5C53.33 2.5 50.7199 3.29176 48.4998 4.77516C46.2797 6.25856 44.5494 8.36697 43.5276 10.8338C42.5058 13.3006 42.2385 16.015 42.7594 18.6337C43.2803 21.2525 44.5661 23.6579 46.4541 25.5459C48.3421 27.434 50.7475 28.7197 53.3663 29.2406C55.985 29.7615 58.6994 29.4942 61.1662 28.4724C63.633 27.4506 65.7414 25.7203 67.2248 23.5002C68.7082 21.2801 69.5 18.67 69.5 16C69.496 12.4208 68.0724 8.98932 65.5416 6.45844C63.0107 3.92756 59.5792 2.50397 56 2.5ZM56 26.5C53.9233 26.5 51.8932 25.8842 50.1665 24.7304C48.4398 23.5767 47.094 21.9368 46.2993 20.0182C45.5046 18.0996 45.2966 15.9884 45.7018 13.9516C46.1069 11.9148 47.1069 10.0438 48.5754 8.57538C50.0438 7.10693 51.9148 6.1069 53.9516 5.70175C55.9884 5.29661 58.0996 5.50454 60.0182 6.29926C61.9368 7.09399 63.5767 8.4398 64.7304 10.1665C65.8842 11.8932 66.5 13.9233 66.5 16C66.497 18.7839 65.3898 21.4528 63.4213 23.4213C61.4529 25.3898 58.7839 26.497 56 26.5ZM62.0613 16.9387C62.343 17.2205 62.5014 17.6027 62.5014 18.0012C62.5014 18.3998 62.343 18.782 62.0613 19.0637C61.7795 19.3455 61.3973 19.5039 60.9988 19.5039C60.6002 19.5039 60.218 19.3455 59.9363 19.0637L56 15.125L52.0613 19.0613C51.7795 19.343 51.3973 19.5014 50.9988 19.5014C50.6002 19.5014 50.218 19.343 49.9363 19.0613C49.6545 18.7795 49.4962 18.3973 49.4962 17.9988C49.4962 17.6002 49.6545 17.218 49.9363 16.9363L54.9363 11.9362C55.0756 11.7964 55.2412 11.6855 55.4235 11.6097C55.6059 11.534 55.8013 11.4951 55.9988 11.4951C56.1962 11.4951 56.3917 11.534 56.574 11.6097C56.7563 11.6855 56.9219 11.7964 57.0613 11.9362L62.0613 16.9387Z" fill="white"/>
</g>
<defs>
<clipPath id="clip0_27_6334">
<rect width="72" height="32" rx="5" fill="white"/>
</clipPath>
</defs>
</svg>
