<svg width="72" height="32" viewBox="0 0 72 32" fill="none" xmlns="http://www.w3.org/2000/svg">
<g clip-path="url(#clip0_27_6399)">
<path d="M26.9245 20.3825C26.8489 20.5652 26.7207 20.7214 26.5563 20.8314C26.3919 20.9413 26.1986 21 26.0008 21H6.00079C5.80289 21.0001 5.6094 20.9416 5.44481 20.8317C5.28021 20.7218 5.15192 20.5656 5.07616 20.3828C5.00041 20.2 4.98061 19.9988 5.01926 19.8047C5.05791 19.6106 5.15328 19.4323 5.29329 19.2925L15.2933 9.29249C15.3862 9.19952 15.4964 9.12576 15.6178 9.07543C15.7392 9.02511 15.8694 8.99921 16.0008 8.99921C16.1322 8.99921 16.2623 9.02511 16.3837 9.07543C16.5051 9.12576 16.6154 9.19952 16.7083 9.29249L26.7083 19.2925C26.8481 19.4324 26.9433 19.6107 26.9818 19.8047C27.0202 19.9987 27.0003 20.1998 26.9245 20.3825Z" fill="white"/>
<path d="M67.0612 21.0612C66.9218 21.2011 66.7563 21.312 66.5739 21.3877C66.3916 21.4634 66.1961 21.5024 65.9987 21.5024C65.8013 21.5024 65.6058 21.4634 65.4235 21.3877C65.2411 21.312 65.0756 21.2011 64.9362 21.0612L55.9999 12.125L47.0612 21.0612C46.7794 21.343 46.3972 21.5013 45.9987 21.5013C45.6002 21.5013 45.218 21.343 44.9362 21.0612C44.6544 20.7794 44.4961 20.3973 44.4961 19.9987C44.4961 19.6002 44.6544 19.218 44.9362 18.9362L54.9362 8.93624C55.0756 8.7964 55.2411 8.68544 55.4235 8.60974C55.6058 8.53403 55.8013 8.49506 55.9987 8.49506C56.1961 8.49506 56.3916 8.53403 56.5739 8.60974C56.7563 8.68544 56.9218 8.7964 57.0612 8.93624L67.0612 18.9362C67.201 19.0756 67.312 19.2412 67.3877 19.4235C67.4634 19.6058 67.5024 19.8013 67.5024 19.9987C67.5024 20.1962 67.4634 20.3916 67.3877 20.574C67.312 20.7563 67.201 20.9219 67.0612 21.0612Z" fill="white"/>
</g>
<defs>
<clipPath id="clip0_27_6399">
<rect width="72" height="32" rx="5" fill="white"/>
</clipPath>
</defs>
</svg>
