<svg width="72" height="32" viewBox="0 0 72 32" fill="none" xmlns="http://www.w3.org/2000/svg">
<g clip-path="url(#clip0_27_6299)">
<path d="M25.1966 6.80375C23.0686 4.67141 20.267 3.34306 17.2692 3.04511C14.2715 2.74717 11.2632 3.49807 8.75706 5.16983C6.25096 6.84159 4.4022 9.33073 3.52588 12.213C2.64956 15.0952 2.79993 18.1922 3.95136 20.976C5.1028 23.7598 7.18402 26.0581 9.84029 27.4792C12.4966 28.9003 15.5635 29.3562 18.5183 28.7693C21.473 28.1823 24.1328 26.5888 26.0442 24.2603C27.9557 21.9318 29.0004 19.0125 29.0004 16C29.0001 12.5519 27.6322 9.24462 25.1966 6.80375ZM20.7091 18.7087L16.7091 22.7087C16.6163 22.8017 16.506 22.8755 16.3846 22.9258C16.2632 22.9761 16.1331 23.002 16.0016 23.002C15.8702 23.002 15.7401 22.9761 15.6187 22.9258C15.4973 22.8755 15.387 22.8017 15.2941 22.7087L11.2941 18.7087C11.2012 18.6158 11.1275 18.5055 11.0773 18.3841C11.027 18.2628 11.0011 18.1326 11.0011 18.0012C11.0011 17.8699 11.027 17.7397 11.0773 17.6184C11.1275 17.497 11.2012 17.3867 11.2941 17.2937C11.3871 17.2008 11.4974 17.1271 11.6187 17.0769C11.7401 17.0266 11.8702 17.0007 12.0016 17.0007C12.133 17.0007 12.2631 17.0266 12.3845 17.0769C12.5059 17.1271 12.6162 17.2008 12.7091 17.2937L16.0004 20.5888L19.2941 17.2937C19.4818 17.1061 19.7363 17.0007 20.0016 17.0007C20.267 17.0007 20.5215 17.1061 20.7091 17.2937C20.8968 17.4814 21.0022 17.7359 21.0022 18.0012C21.0022 18.2666 20.8968 18.5211 20.7091 18.7087ZM20.7091 11.7087L16.7091 15.7087C16.6163 15.8017 16.506 15.8755 16.3846 15.9258C16.2632 15.9761 16.1331 16.002 16.0016 16.002C15.8702 16.002 15.7401 15.9761 15.6187 15.9258C15.4973 15.8755 15.387 15.8017 15.2941 15.7087L11.2941 11.7087C11.2012 11.6158 11.1275 11.5055 11.0773 11.3841C11.027 11.2628 11.0011 11.1326 11.0011 11.0012C11.0011 10.8699 11.027 10.7397 11.0773 10.6184C11.1275 10.497 11.2012 10.3867 11.2941 10.2937C11.3871 10.2008 11.4974 10.1271 11.6187 10.0769C11.7401 10.0266 11.8702 10.0007 12.0016 10.0007C12.133 10.0007 12.2631 10.0266 12.3845 10.0769C12.5059 10.1271 12.6162 10.2008 12.7091 10.2937L16.0004 13.585L19.2941 10.29C19.4818 10.1024 19.7363 9.99694 20.0016 9.99694C20.267 9.99694 20.5215 10.1024 20.7091 10.29C20.8968 10.4776 21.0022 10.7321 21.0022 10.9975C21.0022 11.2629 20.8968 11.5174 20.7091 11.705V11.7087Z" fill="white"/>
<path d="M65.5497 6.45001C63.6612 4.56315 61.2557 3.27854 58.6373 2.75857C56.0189 2.2386 53.3051 2.50661 50.8389 3.52873C48.3728 4.55085 46.2651 6.28119 44.7822 8.501C43.2993 10.7208 42.5078 13.3304 42.5078 16C42.5078 18.6696 43.2993 21.2792 44.7822 23.499C46.2651 25.7188 48.3728 27.4492 50.8389 28.4713C53.3051 29.4934 56.0189 29.7614 58.6373 29.2414C61.2557 28.7215 63.6612 27.4369 65.5497 25.55C68.079 23.0153 69.4995 19.5808 69.4995 16C69.4995 12.4192 68.079 8.98467 65.5497 6.45001ZM63.4247 23.4275C61.9559 24.8951 60.085 25.8944 58.0484 26.2988C56.0118 26.7033 53.901 26.4949 51.9829 25.7C50.0647 24.905 48.4254 23.5592 47.272 21.8326C46.1186 20.1061 45.503 18.0764 45.503 16C45.503 13.9236 46.1186 11.8939 47.272 10.1674C48.4254 8.44083 50.0647 7.09501 51.9829 6.30005C53.901 5.50509 56.0118 5.29668 58.0484 5.70116C60.085 6.10565 61.9559 7.10487 63.4247 8.57251C65.3922 10.5435 66.4975 13.2145 66.498 15.9995C66.4985 18.7845 65.3941 21.4559 63.4272 23.4275H63.4247ZM61.0622 9.93626C61.202 10.0756 61.313 10.2412 61.3887 10.4235C61.4644 10.6059 61.5034 10.8013 61.5034 10.9988C61.5034 11.1962 61.4644 11.3917 61.3887 11.574C61.313 11.7563 61.202 11.9219 61.0622 12.0613L57.0622 16.0613C56.9228 16.2011 56.7572 16.312 56.5749 16.3878C56.3926 16.4635 56.1971 16.5024 55.9997 16.5024C55.8023 16.5024 55.6068 16.4635 55.4245 16.3878C55.2421 16.312 55.0765 16.2011 54.9372 16.0613L50.9372 12.0613C50.7977 11.9217 50.687 11.7561 50.6115 11.5738C50.536 11.3915 50.4971 11.1961 50.4971 10.9988C50.4971 10.8014 50.536 10.606 50.6115 10.4237C50.687 10.2414 50.7977 10.0758 50.9372 9.93626C51.0767 9.79673 51.2424 9.68605 51.4247 9.61053C51.607 9.53502 51.8024 9.49615 51.9997 9.49615C52.197 9.49615 52.3924 9.53502 52.5747 9.61053C52.757 9.68605 52.9227 9.79673 53.0622 9.93626L55.9997 12.875L58.9409 9.93376C59.2226 9.6528 59.6043 9.49523 60.0021 9.4957C60.3999 9.49617 60.7812 9.65464 61.0622 9.93626ZM61.0622 16.9363C61.202 17.0756 61.313 17.2412 61.3887 17.4235C61.4644 17.6059 61.5034 17.8013 61.5034 17.9988C61.5034 18.1962 61.4644 18.3917 61.3887 18.574C61.313 18.7563 61.202 18.9219 61.0622 19.0613L57.0622 23.0613C56.9228 23.2011 56.7572 23.312 56.5749 23.3878C56.3926 23.4635 56.1971 23.5024 55.9997 23.5024C55.8023 23.5024 55.6068 23.4635 55.4245 23.3878C55.2421 23.312 55.0765 23.2011 54.9372 23.0613L50.9372 19.0613C50.7977 18.9217 50.687 18.7561 50.6115 18.5738C50.536 18.3915 50.4971 18.1961 50.4971 17.9988C50.4971 17.8014 50.536 17.606 50.6115 17.4237C50.687 17.2414 50.7977 17.0758 50.9372 16.9363C51.0767 16.7967 51.2424 16.686 51.4247 16.6105C51.607 16.535 51.8024 16.4962 51.9997 16.4962C52.197 16.4962 52.3924 16.535 52.5747 16.6105C52.757 16.686 52.9227 16.7967 53.0622 16.9363L55.9997 19.875L58.9409 16.935C59.2229 16.6544 59.6048 16.4973 60.0026 16.4982C60.4004 16.4991 60.7816 16.6581 61.0622 16.94V16.9363Z" fill="white"/>
</g>
<defs>
<clipPath id="clip0_27_6299">
<rect width="72" height="32" rx="5" fill="white"/>
</clipPath>
</defs>
</svg>
