<svg width="72" height="32" viewBox="0 0 72 32" fill="none" xmlns="http://www.w3.org/2000/svg">
<g clip-path="url(#clip0_27_6379)">
<path d="M25 5.99999V26C25.0002 26.1979 24.9416 26.3914 24.8317 26.556C24.7218 26.7206 24.5656 26.8489 24.3828 26.9246C24.2 27.0004 23.9988 27.0202 23.8047 26.9815C23.6106 26.9429 23.4324 26.8475 23.2925 26.7075L13.2925 16.7075C13.1995 16.6146 13.1258 16.5043 13.0754 16.3829C13.0251 16.2615 12.9992 16.1314 12.9992 16C12.9992 15.8686 13.0251 15.7385 13.0754 15.6171C13.1258 15.4957 13.1995 15.3854 13.2925 15.2925L23.2925 5.29249C23.4324 5.15248 23.6106 5.05712 23.8047 5.01846C23.9988 4.97981 24.2 4.99962 24.3828 5.07537C24.5656 5.15112 24.7218 5.27942 24.8317 5.44401C24.9416 5.60861 25.0002 5.8021 25 5.99999ZM9 4.99999C8.73478 4.99999 8.48043 5.10535 8.29289 5.29289C8.10536 5.48042 8 5.73478 8 5.99999V26C8 26.2652 8.10536 26.5196 8.29289 26.7071C8.48043 26.8946 8.73478 27 9 27C9.26522 27 9.51957 26.8946 9.70711 26.7071C9.89464 26.5196 10 26.2652 10 26V5.99999C10 5.73478 9.89464 5.48042 9.70711 5.29289C9.51957 5.10535 9.26522 4.99999 9 4.99999Z" fill="white"/>
<path d="M65.0613 24.9388C65.343 25.2206 65.5014 25.6027 65.5014 26.0013C65.5014 26.3998 65.343 26.782 65.0613 27.0638C64.7795 27.3456 64.3973 27.5039 63.9988 27.5039C63.6002 27.5039 63.218 27.3456 62.9363 27.0638L52.9362 17.0638C52.7964 16.9244 52.6855 16.7588 52.6097 16.5765C52.534 16.3942 52.4951 16.1987 52.4951 16.0013C52.4951 15.8038 52.534 15.6084 52.6097 15.426C52.6855 15.2437 52.7964 15.0781 52.9362 14.9388L62.9363 4.93876C63.218 4.65697 63.6002 4.49866 63.9988 4.49866C64.3973 4.49866 64.7795 4.65697 65.0613 4.93876C65.343 5.22055 65.5014 5.60274 65.5014 6.00126C65.5014 6.39977 65.343 6.78197 65.0613 7.06376L56.125 16L65.0613 24.9388ZM49 4.50001C48.6022 4.50001 48.2206 4.65804 47.9393 4.93935C47.658 5.22065 47.5 5.60218 47.5 6.00001V26C47.5 26.3978 47.658 26.7794 47.9393 27.0607C48.2206 27.342 48.6022 27.5 49 27.5C49.3978 27.5 49.7794 27.342 50.0607 27.0607C50.342 26.7794 50.5 26.3978 50.5 26V6.00001C50.5 5.60218 50.342 5.22065 50.0607 4.93935C49.7794 4.65804 49.3978 4.50001 49 4.50001Z" fill="white"/>
</g>
<defs>
<clipPath id="clip0_27_6379">
<rect width="72" height="32" rx="5" fill="white"/>
</clipPath>
</defs>
</svg>
