<svg width="72" height="32" viewBox="0 0 72 32" fill="none" xmlns="http://www.w3.org/2000/svg">
<g clip-path="url(#clip0_27_6349)">
<path d="M26.0008 5.99999V26C26.0009 26.1979 25.9424 26.3914 25.8325 26.556C25.7226 26.7206 25.5664 26.8489 25.3836 26.9246C25.2008 27.0004 24.9996 27.0202 24.8055 26.9815C24.6114 26.9429 24.4331 26.8475 24.2933 26.7075L16.0008 18.4137V26C16.0009 26.1979 15.9424 26.3914 15.8325 26.556C15.7226 26.7206 15.5664 26.8489 15.3836 26.9246C15.2008 27.0004 14.9996 27.0202 14.8055 26.9815C14.6114 26.9429 14.4331 26.8475 14.2933 26.7075L4.29329 16.7075C4.20031 16.6146 4.12655 16.5043 4.07623 16.3829C4.0259 16.2615 4 16.1314 4 16C4 15.8686 4.0259 15.7385 4.07623 15.6171C4.12655 15.4957 4.20031 15.3854 4.29329 15.2925L14.2933 5.29249C14.4331 5.15248 14.6114 5.05712 14.8055 5.01846C14.9996 4.97981 15.2008 4.99962 15.3836 5.07537C15.5664 5.15112 15.7226 5.27942 15.8325 5.44401C15.9424 5.60861 16.0009 5.8021 16.0008 5.99999V13.5862L24.2933 5.29249C24.4331 5.15248 24.6114 5.05712 24.8055 5.01846C24.9996 4.97981 25.2008 4.99962 25.3836 5.07537C25.5664 5.15112 25.7226 5.27942 25.8325 5.44401C25.9424 5.60861 26.0009 5.8021 26.0008 5.99999Z" fill="white"/>
<path d="M66.0605 24.9388C66.3423 25.2205 66.5006 25.6027 66.5006 26.0013C66.5006 26.3998 66.3423 26.782 66.0605 27.0638C65.7787 27.3455 65.3965 27.5039 64.998 27.5039C64.5995 27.5039 64.2173 27.3455 63.9355 27.0638L53.9355 17.0638C53.7956 16.9244 53.6847 16.7588 53.609 16.5765C53.5333 16.3942 53.4943 16.1987 53.4943 16.0013C53.4943 15.8038 53.5333 15.6084 53.609 15.426C53.6847 15.2437 53.7956 15.0781 53.9355 14.9388L63.9355 4.93876C64.2173 4.65696 64.5995 4.49865 64.998 4.49865C65.3965 4.49865 65.7787 4.65696 66.0605 4.93876C66.3423 5.22055 66.5006 5.60274 66.5006 6.00126C66.5006 6.39977 66.3423 6.78196 66.0605 7.06376L57.1242 16L66.0605 24.9388ZM47.1242 16L56.0642 7.06126C56.346 6.77946 56.5043 6.39727 56.5043 5.99876C56.5043 5.60024 56.346 5.21805 56.0642 4.93626C55.7824 4.65446 55.4002 4.49615 55.0017 4.49615C54.6032 4.49615 54.221 4.65446 53.9392 4.93626L43.9392 14.9363C43.7994 15.0756 43.6884 15.2412 43.6127 15.4235C43.537 15.6059 43.498 15.8013 43.498 15.9988C43.498 16.1962 43.537 16.3917 43.6127 16.574C43.6884 16.7563 43.7994 16.9219 43.9392 17.0613L53.9392 27.0613C54.0788 27.2008 54.2444 27.3115 54.4267 27.387C54.609 27.4625 54.8044 27.5014 55.0017 27.5014C55.1991 27.5014 55.3944 27.4625 55.5768 27.387C55.7591 27.3115 55.9247 27.2008 56.0642 27.0613C56.2038 26.9217 56.3144 26.7561 56.39 26.5738C56.4655 26.3915 56.5043 26.1961 56.5043 25.9988C56.5043 25.8014 56.4655 25.606 56.39 25.4237C56.3144 25.2414 56.2038 25.0758 56.0642 24.9363L47.1242 16Z" fill="white"/>
</g>
<defs>
<clipPath id="clip0_27_6349">
<rect width="72" height="32" rx="5" fill="white"/>
</clipPath>
</defs>
</svg>
