<svg width="72" height="32" viewBox="0 0 72 32" fill="none" xmlns="http://www.w3.org/2000/svg">
<g clip-path="url(#clip0_27_941)">
<path d="M29 9.99999H24.93C25.8104 11.5254 26.1628 13.2988 25.9325 15.045C25.7022 16.7911 24.9021 18.4125 23.6563 19.6575C22.5913 20.7437 21.205 21.7725 19.675 22.7212C19.5792 22.7795 19.4667 22.804 19.3554 22.7906C19.2441 22.7772 19.1405 22.7268 19.0613 22.6475L14.7063 18.2925C14.6115 18.1977 14.4987 18.123 14.3745 18.0727C14.2504 18.0224 14.1173 17.9975 13.9834 17.9996C13.8494 18.0017 13.7172 18.0307 13.5947 18.0849C13.4721 18.1391 13.3617 18.2173 13.27 18.315C13.0935 18.513 13.0003 18.7715 13.0099 19.0365C13.0194 19.3016 13.131 19.5527 13.3213 19.7375L17.0563 23.4725C17.112 23.5282 17.1539 23.5963 17.1783 23.6712C17.2028 23.7461 17.2092 23.8258 17.197 23.9037C17.1848 23.9816 17.1544 24.0554 17.1082 24.1193C17.062 24.1832 17.0014 24.2353 16.9313 24.2712C11.9675 26.8487 6.62501 28.5675 5.84751 28.81C5.47557 28.9833 5.05935 29.0379 4.65528 28.9666C4.25121 28.8953 3.87885 28.7014 3.58872 28.4113C3.29858 28.1211 3.1047 27.7488 3.03338 27.3447C2.96205 26.9407 3.01674 26.5244 3.19001 26.1525C3.53126 25.0637 6.81501 14.8687 11.2975 9.48374C11.3421 9.43046 11.3972 9.38704 11.4595 9.35626C11.5217 9.32547 11.5897 9.30799 11.6591 9.30493C11.7285 9.30188 11.7977 9.31331 11.8625 9.3385C11.9272 9.36369 11.9859 9.40208 12.035 9.45124L17.2913 14.7087C17.3885 14.8059 17.5047 14.882 17.6326 14.9322C17.7606 14.9825 17.8975 15.0058 18.0348 15.0007C18.1722 14.9957 18.307 14.9624 18.431 14.9029C18.5549 14.8434 18.6652 14.759 18.755 14.655C18.9193 14.4567 19.0029 14.2037 18.989 13.9466C18.9751 13.6894 18.8647 13.4469 18.68 13.2675L13.51 8.09749C13.4573 8.045 13.417 7.9814 13.3919 7.91133C13.3669 7.84127 13.3578 7.7665 13.3654 7.69249C13.3729 7.61847 13.3969 7.54707 13.4355 7.4835C13.4742 7.41992 13.5265 7.36577 13.5888 7.32499C14.829 6.5063 16.2728 6.04926 17.7582 6.0051C19.2437 5.96095 20.7121 6.33142 21.9988 7.07499V2.99999C21.9984 2.86279 22.0264 2.727 22.0808 2.60105C22.1352 2.4751 22.215 2.36171 22.3151 2.26791C22.4152 2.17411 22.5336 2.10192 22.6628 2.05583C22.792 2.00974 22.9294 1.99073 23.0663 1.99999C23.3239 2.02241 23.5636 2.14166 23.7368 2.33372C23.9101 2.52577 24.0041 2.77636 24 3.03499V6.58624L27.2925 3.29249C27.3854 3.19958 27.4957 3.12588 27.6171 3.0756C27.7385 3.02532 27.8686 2.99944 28 2.99944C28.1314 2.99944 28.2615 3.02532 28.3829 3.0756C28.5043 3.12588 28.6146 3.19958 28.7075 3.29249C28.8004 3.3854 28.8741 3.4957 28.9244 3.6171C28.9747 3.73849 29.0006 3.8686 29.0006 3.99999C29.0006 4.13139 28.9747 4.2615 28.9244 4.38289C28.8741 4.50428 28.8004 4.61458 28.7075 4.70749L25.4138 7.99999H28.965C29.2236 7.99586 29.4742 8.0899 29.6663 8.26316C29.8583 8.43643 29.9776 8.67605 30 8.93374C30.0091 9.07053 29.99 9.20772 29.9438 9.3368C29.8976 9.46588 29.8254 9.58409 29.7316 9.68408C29.6378 9.78407 29.5245 9.86371 29.3986 9.91806C29.2728 9.97241 29.1371 10.0003 29 9.99999Z" fill="white"/>
<path d="M69 7.5H66.625L69.0637 5.06125C69.2032 4.92172 69.3139 4.75608 69.3894 4.57377C69.4649 4.39147 69.5038 4.19607 69.5038 3.99875C69.5038 3.80143 69.4649 3.60603 69.3894 3.42373C69.3139 3.24143 69.2032 3.07578 69.0637 2.93625C68.9242 2.79672 68.7585 2.68604 68.5762 2.61053C68.3939 2.53501 68.1985 2.49615 68.0012 2.49615C67.8039 2.49615 67.6085 2.53501 67.4262 2.61053C67.2439 2.68604 67.0782 2.79672 66.9387 2.93625L64.5 5.375V3C64.5 2.60218 64.3419 2.22064 64.0606 1.93934C63.7793 1.65804 63.3978 1.5 63 1.5C62.6021 1.5 62.2206 1.65804 61.9393 1.93934C61.658 2.22064 61.5 2.60218 61.5 3V6.25C59.9276 5.54096 58.1767 5.32708 56.4798 5.63675C54.783 5.94642 53.2205 6.765 52 7.98375C46.9312 12.96 43.1475 24.625 42.7225 25.9713C42.5506 26.3519 42.4768 26.7696 42.5079 27.1861C42.539 27.6027 42.674 28.0048 42.9005 28.3557C43.127 28.7066 43.4378 28.9952 43.8045 29.1951C44.1713 29.395 44.5823 29.4998 45 29.5C45.3551 29.4994 45.7062 29.4236 46.03 29.2775C46.985 28.975 53.1287 26.985 58.3937 24.05L58.4612 24.0125C60.5987 22.8162 62.5862 21.4638 64.0162 20.0125C65.2375 18.7909 66.0577 17.2262 66.3674 15.5268C66.6772 13.8274 66.4618 12.0739 65.75 10.5H69C69.3978 10.5 69.7793 10.342 70.0606 10.0607C70.3419 9.77936 70.5 9.39782 70.5 9C70.5 8.60218 70.3419 8.22064 70.0606 7.93934C69.7793 7.65804 69.3978 7.5 69 7.5ZM61.8887 17.89L61.8775 17.9013C60.8637 18.9363 59.4887 19.9262 57.9612 20.8412L55.06 17.94C54.7782 17.6582 54.396 17.4999 53.9975 17.4999C53.5989 17.4999 53.2167 17.6582 52.935 17.94C52.6532 18.2218 52.4949 18.604 52.4949 19.0025C52.4949 19.401 52.6532 19.7832 52.935 20.065L55.2125 22.3425C51.4262 24.2388 47.4462 25.645 45.805 26.195C46.6512 23.6675 49.5287 15.595 53.0975 11.2275L56.935 15.065C57.2167 15.3468 57.5989 15.5051 57.9975 15.5051C58.396 15.5051 58.7782 15.3468 59.06 15.065C59.3417 14.7832 59.5001 14.401 59.5001 14.0025C59.5001 13.604 59.3417 13.2218 59.06 12.94L55.3175 9.1975C56.4767 8.54868 57.8317 8.34139 59.1319 8.61394C60.4322 8.88649 61.5898 9.62045 62.391 10.6802C63.1921 11.74 63.5826 13.0539 63.4903 14.3792C63.398 15.7045 62.8291 16.9516 61.8887 17.89Z" fill="white"/>
</g>
<defs>
<clipPath id="clip0_27_941">
<rect width="72" height="32" rx="5" fill="white"/>
</clipPath>
</defs>
</svg>
