<svg width="72" height="32" viewBox="0 0 72 32" fill="none" xmlns="http://www.w3.org/2000/svg">
<g clip-path="url(#clip0_27_946)">
<path d="M29.97 19.7575L27.16 8.515C27.0518 8.08211 26.8019 7.69784 26.4502 7.42332C26.0984 7.1488 25.665 6.99979 25.2188 7H17V5C17 4.46957 16.7893 3.96086 16.4142 3.58579C16.0391 3.21071 15.5304 3 15 3H10C9.46957 3 8.96086 3.21071 8.58579 3.58579C8.21071 3.96086 8 4.46957 8 5V7H6.78125C6.33504 6.99979 5.90158 7.1488 5.54982 7.42332C5.19806 7.69784 4.9482 8.08211 4.84 8.515L2.03 19.7575C2.01004 19.8368 1.99996 19.9182 2 20V24C2 24.5304 2.21071 25.0391 2.58579 25.4142C2.96086 25.7893 3.46957 26 4 26H28C28.5304 26 29.0391 25.7893 29.4142 25.4142C29.7893 25.0391 30 24.5304 30 24V20C30 19.9182 29.99 19.8368 29.97 19.7575ZM21 11H23C23.2652 11 23.5196 11.1054 23.7071 11.2929C23.8946 11.4804 24 11.7348 24 12C24 12.2652 23.8946 12.5196 23.7071 12.7071C23.5196 12.8946 23.2652 13 23 13H21C20.7348 13 20.4804 12.8946 20.2929 12.7071C20.1054 12.5196 20 12.2652 20 12C20 11.7348 20.1054 11.4804 20.2929 11.2929C20.4804 11.1054 20.7348 11 21 11ZM21 15H23C23.2652 15 23.5196 15.1054 23.7071 15.2929C23.8946 15.4804 24 15.7348 24 16C24 16.2652 23.8946 16.5196 23.7071 16.7071C23.5196 16.8946 23.2652 17 23 17H21C20.7348 17 20.4804 16.8946 20.2929 16.7071C20.1054 16.5196 20 16.2652 20 16C20 15.7348 20.1054 15.4804 20.2929 15.2929C20.4804 15.1054 20.7348 15 21 15ZM17 11C17.2652 11 17.5196 11.1054 17.7071 11.2929C17.8946 11.4804 18 11.7348 18 12C18 12.2652 17.8946 12.5196 17.7071 12.7071C17.5196 12.8946 17.2652 13 17 13H15C14.7348 13 14.4804 12.8946 14.2929 12.7071C14.1054 12.5196 14 12.2652 14 12C14 11.7348 14.1054 11.4804 14.2929 11.2929C14.4804 11.1054 14.7348 11 15 11H17ZM18 16C18 16.2652 17.8946 16.5196 17.7071 16.7071C17.5196 16.8946 17.2652 17 17 17H15C14.7348 17 14.4804 16.8946 14.2929 16.7071C14.1054 16.5196 14 16.2652 14 16C14 15.7348 14.1054 15.4804 14.2929 15.2929C14.4804 15.1054 14.7348 15 15 15H17C17.2652 15 17.5196 15.1054 17.7071 15.2929C17.8946 15.4804 18 15.7348 18 16ZM10 5H15V7H10V5ZM9 11H11C11.2652 11 11.5196 11.1054 11.7071 11.2929C11.8946 11.4804 12 11.7348 12 12C12 12.2652 11.8946 12.5196 11.7071 12.7071C11.5196 12.8946 11.2652 13 11 13H9C8.73478 13 8.48043 12.8946 8.29289 12.7071C8.10536 12.5196 8 12.2652 8 12C8 11.7348 8.10536 11.4804 8.29289 11.2929C8.48043 11.1054 8.73478 11 9 11ZM9 15H11C11.2652 15 11.5196 15.1054 11.7071 15.2929C11.8946 15.4804 12 15.7348 12 16C12 16.2652 11.8946 16.5196 11.7071 16.7071C11.5196 16.8946 11.2652 17 11 17H9C8.73478 17 8.48043 16.8946 8.29289 16.7071C8.10536 16.5196 8 16.2652 8 16C8 15.7348 8.10536 15.4804 8.29289 15.2929C8.48043 15.1054 8.73478 15 9 15ZM28 24H4V21H28V24Z" fill="white"/>
<path d="M70.4513 19.625L67.6462 8.875C67.5078 8.33867 67.1951 7.86352 66.7573 7.52415C66.3195 7.18478 65.7814 7.00041 65.2275 7H57.5V5C57.5 4.33696 57.2366 3.70107 56.7678 3.23223C56.2989 2.76339 55.663 2.5 55 2.5H50C49.337 2.5 48.7011 2.76339 48.2322 3.23223C47.7634 3.70107 47.5 4.33696 47.5 5V7H46.7725C46.2186 7.00041 45.6805 7.18478 45.2427 7.52415C44.8049 7.86352 44.4922 8.33867 44.3538 8.875L41.5488 19.625C41.5167 19.7474 41.5003 19.8734 41.5 20V24C41.5 24.663 41.7634 25.2989 42.2322 25.7678C42.7011 26.2366 43.337 26.5 44 26.5H68C68.663 26.5 69.2989 26.2366 69.7678 25.7678C70.2366 25.2989 70.5 24.663 70.5 24V20C70.4997 19.8734 70.4833 19.7474 70.4513 19.625ZM50.5 5.5H54.5V7H50.5V5.5ZM47.1588 10H64.8412L67.0588 18.5H44.9412L47.1588 10ZM44.5 23.5V21.5H67.5V23.5H44.5ZM48 14.5C48 14.1022 48.158 13.7206 48.4393 13.4393C48.7206 13.158 49.1022 13 49.5 13H50.5C50.8978 13 51.2794 13.158 51.5607 13.4393C51.842 13.7206 52 14.1022 52 14.5C52 14.8978 51.842 15.2794 51.5607 15.5607C51.2794 15.842 50.8978 16 50.5 16H49.5C49.1022 16 48.7206 15.842 48.4393 15.5607C48.158 15.2794 48 14.8978 48 14.5ZM54 14.5C54 14.1022 54.158 13.7206 54.4393 13.4393C54.7206 13.158 55.1022 13 55.5 13H56.5C56.8978 13 57.2794 13.158 57.5607 13.4393C57.842 13.7206 58 14.1022 58 14.5C58 14.8978 57.842 15.2794 57.5607 15.5607C57.2794 15.842 56.8978 16 56.5 16H55.5C55.1022 16 54.7206 15.842 54.4393 15.5607C54.158 15.2794 54 14.8978 54 14.5ZM60 14.5C60 14.1022 60.158 13.7206 60.4393 13.4393C60.7206 13.158 61.1022 13 61.5 13H62.5C62.8978 13 63.2794 13.158 63.5607 13.4393C63.842 13.7206 64 14.1022 64 14.5C64 14.8978 63.842 15.2794 63.5607 15.5607C63.2794 15.842 62.8978 16 62.5 16H61.5C61.1022 16 60.7206 15.842 60.4393 15.5607C60.158 15.2794 60 14.8978 60 14.5Z" fill="white"/>
</g>
<defs>
<clipPath id="clip0_27_946">
<rect width="72" height="32" rx="5" fill="white"/>
</clipPath>
</defs>
</svg>
