<svg width="72" height="32" viewBox="0 0 72 32" fill="none" xmlns="http://www.w3.org/2000/svg">
<g clip-path="url(#clip0_27_3669)">
<path d="M19.5375 12C19.1854 12.6077 19 13.2976 19 14C19 14.7023 19.1854 15.3923 19.5375 16H12.4625C12.8146 15.3923 13 14.7023 13 14C13 13.2976 12.8146 12.6077 12.4625 12H19.5375ZM9 12C8.60444 12 8.21776 12.1173 7.88886 12.3371C7.55996 12.5568 7.30362 12.8692 7.15224 13.2346C7.00087 13.6001 6.96126 14.0022 7.03843 14.3902C7.1156 14.7781 7.30608 15.1345 7.58579 15.4142C7.86549 15.6939 8.22186 15.8844 8.60982 15.9616C8.99778 16.0387 9.39991 15.9991 9.76537 15.8478C10.1308 15.6964 10.4432 15.44 10.6629 15.1111C10.8827 14.7822 11 14.3956 11 14C11 13.4696 10.7893 12.9609 10.4142 12.5858C10.0391 12.2107 9.53043 12 9 12ZM30 8V24C30 24.5304 29.7893 25.0391 29.4142 25.4142C29.0391 25.7893 28.5304 26 28 26H4C3.46957 26 2.96086 25.7893 2.58579 25.4142C2.21071 25.0391 2 24.5304 2 24V8C2 7.46957 2.21071 6.96086 2.58579 6.58579C2.96086 6.21071 3.46957 6 4 6H28C28.5304 6 29.0391 6.21071 29.4142 6.58579C29.7893 6.96086 30 7.46957 30 8ZM23.25 24L21.3 21.4C21.2069 21.2758 21.0861 21.175 20.9472 21.1056C20.8084 21.0361 20.6552 21 20.5 21H11.5C11.3448 21 11.1916 21.0361 11.0528 21.1056C10.9139 21.175 10.7931 21.2758 10.7 21.4L8.75 24H23.25ZM27 14C27 12.9391 26.5786 11.9217 25.8284 11.1716C25.0783 10.4214 24.0609 10 23 10H9C7.93913 10 6.92172 10.4214 6.17157 11.1716C5.42143 11.9217 5 12.9391 5 14C5 15.0609 5.42143 16.0783 6.17157 16.8284C6.92172 17.5786 7.93913 18 9 18H23C24.0609 18 25.0783 17.5786 25.8284 16.8284C26.5786 16.0783 27 15.0609 27 14ZM23 12C22.6044 12 22.2178 12.1173 21.8889 12.3371C21.56 12.5568 21.3036 12.8692 21.1522 13.2346C21.0009 13.6001 20.9613 14.0022 21.0384 14.3902C21.1156 14.7781 21.3061 15.1345 21.5858 15.4142C21.8655 15.6939 22.2219 15.8844 22.6098 15.9616C22.9978 16.0387 23.3999 15.9991 23.7654 15.8478C24.1308 15.6964 24.4432 15.44 24.6629 15.1111C24.8827 14.7822 25 14.3956 25 14C25 13.4696 24.7893 12.9609 24.4142 12.5858C24.0391 12.2107 23.5304 12 23 12Z" fill="white"/>
<path d="M68 5.5H44C43.337 5.5 42.7011 5.76339 42.2322 6.23223C41.7634 6.70107 41.5 7.33696 41.5 8V24C41.5 24.663 41.7634 25.2989 42.2322 25.7678C42.7011 26.2366 43.337 26.5 44 26.5H68C68.663 26.5 69.2989 26.2366 69.7678 25.7678C70.2366 25.2989 70.5 24.663 70.5 24V8C70.5 7.33696 70.2366 6.70107 69.7678 6.23223C69.2989 5.76339 68.663 5.5 68 5.5ZM67.5 23.5H62.875L61.3 21.4C61.2069 21.2758 61.0861 21.175 60.9472 21.1056C60.8084 21.0361 60.6552 21 60.5 21H51.5C51.3448 21 51.1916 21.0361 51.0528 21.1056C50.9139 21.175 50.7931 21.2758 50.7 21.4L49.125 23.5H44.5V8.5H67.5V23.5ZM50.25 19H61.75C62.8772 19 63.9582 18.5522 64.7552 17.7552C65.5522 16.9582 66 15.8772 66 14.75C66 13.6228 65.5522 12.5418 64.7552 11.7448C63.9582 10.9478 62.8772 10.5 61.75 10.5H50.25C49.1228 10.5 48.0418 10.9478 47.2448 11.7448C46.4478 12.5418 46 13.6228 46 14.75C46 15.8772 46.4478 16.9582 47.2448 17.7552C48.0418 18.5522 49.1228 19 50.25 19ZM50.25 13.5C50.4972 13.5 50.7389 13.5733 50.9445 13.7107C51.15 13.848 51.3102 14.0432 51.4048 14.2716C51.4995 14.5001 51.5242 14.7514 51.476 14.9939C51.4278 15.2363 51.3087 15.4591 51.1339 15.6339C50.9591 15.8087 50.7363 15.9278 50.4939 15.976C50.2514 16.0242 50.0001 15.9995 49.7716 15.9048C49.5432 15.8102 49.348 15.65 49.2107 15.4445C49.0733 15.2389 49 14.9972 49 14.75C49 14.4185 49.1317 14.1005 49.3661 13.8661C49.6005 13.6317 49.9185 13.5 50.25 13.5ZM63 14.75C63 14.9972 62.9267 15.2389 62.7893 15.4445C62.652 15.65 62.4568 15.8102 62.2284 15.9048C61.9999 15.9995 61.7486 16.0242 61.5061 15.976C61.2637 15.9278 61.0409 15.8087 60.8661 15.6339C60.6913 15.4591 60.5723 15.2363 60.524 14.9939C60.4758 14.7514 60.5005 14.5001 60.5951 14.2716C60.6898 14.0432 60.85 13.848 61.0555 13.7107C61.2611 13.5733 61.5028 13.5 61.75 13.5C62.0815 13.5 62.3995 13.6317 62.6339 13.8661C62.8683 14.1005 63 14.4185 63 14.75ZM57.6875 16H54.3125C54.5625 15.1854 54.5625 14.3146 54.3125 13.5H57.6875C57.4375 14.3146 57.4375 15.1854 57.6875 16Z" fill="white"/>
</g>
<defs>
<clipPath id="clip0_27_3669">
<rect width="72" height="32" rx="5" fill="white"/>
</clipPath>
</defs>
</svg>
