<svg width="72" height="32" viewBox="0 0 72 32" fill="none" xmlns="http://www.w3.org/2000/svg">
<g clip-path="url(#clip0_27_4595)">
<path d="M27 27H25V14.4137L26.4137 13C26.6003 12.815 26.7482 12.5947 26.8488 12.352C26.9494 12.1093 27.0008 11.849 27 11.5863V6C27 5.46957 26.7893 4.96086 26.4142 4.58579C26.0391 4.21071 25.5304 4 25 4H22.5C22.2348 4 21.9804 4.10536 21.7929 4.29289C21.6054 4.48043 21.5 4.73478 21.5 5V8H18.5V5C18.5 4.73478 18.3946 4.48043 18.2071 4.29289C18.0196 4.10536 17.7652 4 17.5 4H14.5C14.2348 4 13.9804 4.10536 13.7929 4.29289C13.6054 4.48043 13.5 4.73478 13.5 5V8H10.5V5C10.5 4.73478 10.3946 4.48043 10.2071 4.29289C10.0196 4.10536 9.76522 4 9.5 4H7C6.46957 4 5.96086 4.21071 5.58579 4.58579C5.21071 4.96086 5 5.46957 5 6V11.5863C4.99916 11.849 5.05056 12.1093 5.1512 12.352C5.25184 12.5947 5.39972 12.815 5.58625 13L7 14.4137V27H5C4.73478 27 4.48043 27.1054 4.29289 27.2929C4.10536 27.4804 4 27.7348 4 28C4 28.2652 4.10536 28.5196 4.29289 28.7071C4.48043 28.8946 4.73478 29 5 29H27C27.2652 29 27.5196 28.8946 27.7071 28.7071C27.8946 28.5196 28 28.2652 28 28C28 27.7348 27.8946 27.4804 27.7071 27.2929C27.5196 27.1054 27.2652 27 27 27ZM14 21C14 20.4696 14.2107 19.9609 14.5858 19.5858C14.9609 19.2107 15.4696 19 16 19C16.5304 19 17.0391 19.2107 17.4142 19.5858C17.7893 19.9609 18 20.4696 18 21V27H14V21Z" fill="white"/>
<path d="M67 26.5H65.5V14.625L66.7675 13.3575C67.0009 13.1255 67.1858 12.8495 67.3116 12.5454C67.4373 12.2413 67.5014 11.9153 67.5 11.5863V6C67.5 5.33696 67.2366 4.70107 66.7678 4.23223C66.2989 3.76339 65.663 3.5 65 3.5H47C46.337 3.5 45.7011 3.76339 45.2322 4.23223C44.7634 4.70107 44.5 5.33696 44.5 6V11.5863C44.4991 11.9147 44.5634 12.24 44.6891 12.5434C44.8149 12.8468 44.9996 13.1222 45.2325 13.3538L46.5 14.625V26.5H45C44.6022 26.5 44.2206 26.658 43.9393 26.9393C43.658 27.2206 43.5 27.6022 43.5 28C43.5 28.3978 43.658 28.7794 43.9393 29.0607C44.2206 29.342 44.6022 29.5 45 29.5H67C67.3978 29.5 67.7794 29.342 68.0607 29.0607C68.342 28.7794 68.5 28.3978 68.5 28C68.5 27.6022 68.342 27.2206 68.0607 26.9393C67.7794 26.658 67.3978 26.5 67 26.5ZM49.0612 12.9388L47.5 11.375V6.5H51V9.5C51 9.89782 51.158 10.2794 51.4393 10.5607C51.7206 10.842 52.1022 11 52.5 11C52.8978 11 53.2794 10.842 53.5607 10.5607C53.842 10.2794 54 9.89782 54 9.5V6.5H58V9.5C58 9.89782 58.158 10.2794 58.4393 10.5607C58.7206 10.842 59.1022 11 59.5 11C59.8978 11 60.2794 10.842 60.5607 10.5607C60.842 10.2794 61 9.89782 61 9.5V6.5H64.5V11.375L62.9387 12.935C62.7991 13.0749 62.6884 13.2409 62.6131 13.4237C62.5378 13.6065 62.4994 13.8023 62.5 14V26.5H60.5V21C60.5 19.8065 60.0259 18.6619 59.182 17.818C58.3381 16.9741 57.1935 16.5 56 16.5C54.8065 16.5 53.6619 16.9741 52.818 17.818C51.9741 18.6619 51.5 19.8065 51.5 21V26.5H49.5V14C49.5002 13.803 49.4615 13.6078 49.3862 13.4257C49.3109 13.2436 49.2005 13.0782 49.0612 12.9388ZM57.5 26.5H54.5V21C54.5 20.6022 54.658 20.2206 54.9393 19.9393C55.2206 19.658 55.6022 19.5 56 19.5C56.3978 19.5 56.7794 19.658 57.0607 19.9393C57.342 20.2206 57.5 20.6022 57.5 21V26.5Z" fill="white"/>
</g>
<defs>
<clipPath id="clip0_27_4595">
<rect width="72" height="32" rx="5" fill="white"/>
</clipPath>
</defs>
</svg>
