<svg width="72" height="32" viewBox="0 0 72 32" fill="none" xmlns="http://www.w3.org/2000/svg">
<g clip-path="url(#clip0_27_2079)">
<path d="M27.8539 4.1925C27.4814 4.01663 27.0637 3.96007 26.6578 4.03054C26.252 4.10102 25.8778 4.29509 25.5864 4.58625C25.5689 4.60375 25.5539 4.62 25.5389 4.6375L23.3814 7.125C21.1694 5.74095 18.6126 5.007 16.0033 5.007C13.3939 5.007 10.8372 5.74095 8.62515 7.125L6.4614 4.6375C6.4464 4.62 6.4314 4.60375 6.4139 4.58625C6.1225 4.29509 5.74831 4.10102 5.34246 4.03054C4.93661 3.96007 4.5189 4.01663 4.1464 4.1925C3.79863 4.36327 3.50637 4.62911 3.3035 4.95919C3.10063 5.28927 2.99545 5.67008 3.00015 6.0575V17C3.00015 23.125 8.00765 28.2037 14.4452 28.915C14.5153 28.9228 14.5863 28.9156 14.6534 28.894C14.7206 28.8723 14.7824 28.8367 14.8348 28.7895C14.8872 28.7423 14.9291 28.6845 14.9576 28.6199C14.9861 28.5554 15.0006 28.4856 15.0002 28.415V24.415L13.3227 22.7362C13.1325 22.5517 13.021 22.3008 13.0114 22.0359C13.0019 21.7711 13.095 21.5128 13.2714 21.315C13.3631 21.2173 13.4735 21.1391 13.5961 21.0849C13.7186 21.0307 13.8508 21.0017 13.9848 20.9996C14.1187 20.9975 14.2518 21.0224 14.3759 21.0727C14.5001 21.123 14.6129 21.1977 14.7077 21.2925L16.0002 22.585L17.2927 21.2912C17.3874 21.1965 17.5002 21.1217 17.6244 21.0714C17.7485 21.0211 17.8816 20.9963 18.0155 20.9984C18.1495 21.0005 18.2817 21.0295 18.4042 21.0836C18.5268 21.1378 18.6372 21.2161 18.7289 21.3137C18.9053 21.5115 18.9984 21.7698 18.9889 22.0347C18.9793 22.2995 18.8678 22.5504 18.6777 22.735L17.0002 24.4137V28.4137C16.9997 28.4843 17.0142 28.5542 17.0427 28.6187C17.0712 28.6832 17.1131 28.741 17.1655 28.7883C17.2179 28.8355 17.2797 28.8711 17.3469 28.8927C17.414 28.9143 17.485 28.9215 17.5552 28.9137C23.9927 28.2025 29.0002 23.125 29.0002 17V6.0575C29.0049 5.67008 28.8997 5.28927 28.6968 4.95919C28.4939 4.62911 28.2017 4.36327 27.8539 4.1925ZM10.5002 19C10.2035 19 9.91347 18.912 9.6668 18.7472C9.42012 18.5824 9.22786 18.3481 9.11433 18.074C9.0008 17.7999 8.9711 17.4983 9.02897 17.2074C9.08685 16.9164 9.22971 16.6491 9.43949 16.4393C9.64927 16.2296 9.91654 16.0867 10.2075 16.0288C10.4985 15.9709 10.8001 16.0006 11.0742 16.1142C11.3483 16.2277 11.5825 16.42 11.7474 16.6666C11.9122 16.9133 12.0002 17.2033 12.0002 17.5C12.0002 17.8978 11.8421 18.2794 11.5608 18.5607C11.2795 18.842 10.898 19 10.5002 19ZM13.0002 11C13.0002 11.2652 12.8948 11.5196 12.7073 11.7071C12.5197 11.8946 12.2654 12 12.0002 12C11.7349 12 11.4806 11.8946 11.293 11.7071C11.1055 11.5196 11.0002 11.2652 11.0002 11V8.625C11.0002 8.35978 11.1055 8.10543 11.293 7.91789C11.4806 7.73035 11.7349 7.625 12.0002 7.625C12.2654 7.625 12.5197 7.73035 12.7073 7.91789C12.8948 8.10543 13.0002 8.35978 13.0002 8.625V11ZM17.0002 11C17.0002 11.2652 16.8948 11.5196 16.7073 11.7071C16.5197 11.8946 16.2654 12 16.0002 12C15.7349 12 15.4806 11.8946 15.293 11.7071C15.1055 11.5196 15.0002 11.2652 15.0002 11V8C15.0002 7.73478 15.1055 7.48043 15.293 7.29289C15.4806 7.10535 15.7349 7 16.0002 7C16.2654 7 16.5197 7.10535 16.7073 7.29289C16.8948 7.48043 17.0002 7.73478 17.0002 8V11ZM19.0002 11V8.625C19.0002 8.35978 19.1055 8.10543 19.293 7.91789C19.4806 7.73035 19.7349 7.625 20.0002 7.625C20.2654 7.625 20.5197 7.73035 20.7073 7.91789C20.8948 8.10543 21.0002 8.35978 21.0002 8.625V11C21.0002 11.2652 20.8948 11.5196 20.7073 11.7071C20.5197 11.8946 20.2654 12 20.0002 12C19.7349 12 19.4806 11.8946 19.293 11.7071C19.1055 11.5196 19.0002 11.2652 19.0002 11ZM21.5002 19C21.2035 19 20.9135 18.912 20.6668 18.7472C20.4201 18.5824 20.2279 18.3481 20.1143 18.074C20.0008 17.7999 19.9711 17.4983 20.029 17.2074C20.0869 16.9164 20.2297 16.6491 20.4395 16.4393C20.6493 16.2296 20.9165 16.0867 21.2075 16.0288C21.4985 15.9709 21.8001 16.0006 22.0742 16.1142C22.3483 16.2277 22.5825 16.42 22.7474 16.6666C22.9122 16.9133 23.0002 17.2033 23.0002 17.5C23.0002 17.8978 22.8421 18.2794 22.5608 18.5607C22.2795 18.842 21.898 19 21.5002 19Z" fill="white"/>
<path d="M67.9563 3.69125C67.4995 3.50226 66.9969 3.45293 66.5121 3.54949C66.0273 3.64605 65.582 3.88417 65.2325 4.23375C65.2075 4.25875 65.1838 4.28375 65.1613 4.31L63.2863 6.4725C61.0774 5.18001 58.5643 4.49878 56.005 4.49878C53.4458 4.49878 50.9327 5.18001 48.7238 6.4725L46.8488 4.31C46.8263 4.28375 46.8025 4.25875 46.7775 4.23375C46.4285 3.88085 45.9823 3.63983 45.4959 3.54138C45.0094 3.44294 44.5046 3.49153 44.0459 3.68096C43.5871 3.87039 43.1951 4.19209 42.9198 4.60508C42.6445 5.01808 42.4984 5.50367 42.5 6V17C42.5 23.8925 48.5563 29.5 56 29.5C63.4438 29.5 69.5 23.8925 69.5 17V6C69.4998 5.50566 69.353 5.02248 69.0782 4.61153C68.8035 4.20059 68.413 3.88034 67.9563 3.69125ZM66.5 17C66.5 21.7775 62.5813 25.7413 57.5 26.4013V24.625L59.0613 23.0637C59.3431 22.782 59.5014 22.3998 59.5014 22.0012C59.5014 21.6027 59.3431 21.2205 59.0613 20.9387C58.7795 20.657 58.3973 20.4986 57.9988 20.4986C57.6002 20.4986 57.2181 20.657 56.9363 20.9387L56 21.875L55.0613 20.935C54.7795 20.6532 54.3973 20.4949 53.9988 20.4949C53.6002 20.4949 53.2181 20.6532 52.9363 20.935C52.6545 21.2168 52.4962 21.599 52.4962 21.9975C52.4962 22.396 52.6545 22.7782 52.9363 23.06L54.5 24.625V26.405C49.4188 25.745 45.5 21.78 45.5 17.0037V7.3425L47.3175 9.43375C47.5655 9.71889 47.9119 9.89996 48.2875 9.94074C48.6632 9.98153 49.0404 9.87904 49.3438 9.65375C50.1572 9.05241 51.0514 8.56889 52 8.2175V11C52 11.3978 52.158 11.7794 52.4394 12.0607C52.7207 12.342 53.1022 12.5 53.5 12.5C53.8978 12.5 54.2794 12.342 54.5607 12.0607C54.842 11.7794 55 11.3978 55 11V7.54375C55.3333 7.51458 55.6667 7.5 56 7.5C56.3333 7.5 56.6667 7.51458 57 7.54375V11C57 11.3978 57.158 11.7794 57.4394 12.0607C57.7207 12.342 58.1022 12.5 58.5 12.5C58.8978 12.5 59.2794 12.342 59.5607 12.0607C59.842 11.7794 60 11.3978 60 11V8.2175C60.9485 8.56919 61.8427 9.05269 62.6563 9.65375C62.9596 9.87904 63.3368 9.98153 63.7125 9.94074C64.0882 9.89996 64.4346 9.71889 64.6825 9.43375L66.5 7.3425V17ZM52.5 17.5C52.5 17.8956 52.3827 18.2822 52.163 18.6111C51.9432 18.94 51.6308 19.1964 51.2654 19.3478C50.8999 19.4991 50.4978 19.5387 50.1098 19.4616C49.7219 19.3844 49.3655 19.1939 49.0858 18.9142C48.8061 18.6345 48.6156 18.2781 48.5384 17.8902C48.4613 17.5022 48.5009 17.1001 48.6523 16.7346C48.8036 16.3692 49.06 16.0568 49.3889 15.8371C49.7178 15.6173 50.1045 15.5 50.5 15.5C51.0304 15.5 51.5392 15.7107 51.9142 16.0858C52.2893 16.4609 52.5 16.9696 52.5 17.5ZM63.5 17.5C63.5 17.8956 63.3827 18.2822 63.163 18.6111C62.9432 18.94 62.6308 19.1964 62.2654 19.3478C61.8999 19.4991 61.4978 19.5387 61.1098 19.4616C60.7219 19.3844 60.3655 19.1939 60.0858 18.9142C59.8061 18.6345 59.6156 18.2781 59.5384 17.8902C59.4613 17.5022 59.5009 17.1001 59.6523 16.7346C59.8036 16.3692 60.06 16.0568 60.3889 15.8371C60.7178 15.6173 61.1045 15.5 61.5 15.5C62.0304 15.5 62.5392 15.7107 62.9142 16.0858C63.2893 16.4609 63.5 16.9696 63.5 17.5Z" fill="white"/>
</g>
<defs>
<clipPath id="clip0_27_2079">
<rect width="72" height="32" rx="5" fill="white"/>
</clipPath>
</defs>
</svg>
