<svg width="72" height="32" viewBox="0 0 72 32" fill="none" xmlns="http://www.w3.org/2000/svg">
<g clip-path="url(#clip0_27_2540)">
<path d="M26.7075 24.2925C26.8004 24.3854 26.8741 24.4957 26.9244 24.6171C26.9747 24.7385 27.0006 24.8686 27.0006 25C27.0006 25.1314 26.9747 25.2615 26.9244 25.3829C26.8741 25.5043 26.8004 25.6146 26.7075 25.7075C26.6146 25.8004 26.5043 25.8741 26.3829 25.9244C26.2615 25.9747 26.1314 26.0006 26 26.0006C25.8686 26.0006 25.7385 25.9747 25.6171 25.9244C25.4957 25.8741 25.3854 25.8004 25.2925 25.7075L23 23.4138L20.7075 25.7075C20.5199 25.8951 20.2654 26.0006 20 26.0006C19.7347 26.0006 19.4802 25.8951 19.2925 25.7075C19.1049 25.5199 18.9995 25.2654 18.9995 25C18.9995 24.7346 19.1049 24.4801 19.2925 24.2925L21.5863 22L19.2925 19.7075C19.1049 19.5199 18.9995 19.2654 18.9995 19C18.9995 18.7346 19.1049 18.4801 19.2925 18.2925C19.4802 18.1049 19.7347 17.9994 20 17.9994C20.2654 17.9994 20.5199 18.1049 20.7075 18.2925L23 20.5863L25.2925 18.2925C25.4802 18.1049 25.7347 17.9994 26 17.9994C26.2654 17.9994 26.5199 18.1049 26.7075 18.2925C26.8952 18.4801 27.0006 18.7346 27.0006 19C27.0006 19.2654 26.8952 19.5199 26.7075 19.7075L24.4138 22L26.7075 24.2925ZM19.6763 15.0125C20.2168 14.9688 20.7607 15.0354 21.2747 15.2084C21.7887 15.3814 22.2621 15.6571 22.6663 16.0188C22.758 16.101 22.8768 16.1465 23 16.1465C23.1232 16.1465 23.2421 16.101 23.3338 16.0188C23.9517 15.4617 24.7284 15.1121 25.555 15.0188C25.6779 15.0052 25.7914 14.9465 25.8735 14.8542C25.9557 14.7619 26.0008 14.6424 26 14.5188V5.05751C26.0047 4.66978 25.8994 4.28867 25.6963 3.95836C25.4932 3.62805 25.2006 3.36207 24.8525 3.19126C24.4799 3.01554 24.0621 2.95919 23.6563 3.02989C23.2504 3.10059 22.8763 3.2949 22.585 3.58626L2.58503 23.5863C2.29373 23.8773 2.09934 24.2511 2.02843 24.6567C1.95751 25.0623 2.01351 25.4799 2.18878 25.8525C2.35965 26.2011 2.62599 26.494 2.95682 26.6971C3.28764 26.9003 3.66935 27.0053 4.05753 27H15.7575C15.8371 26.9999 15.9155 26.9809 15.9863 26.9444C16.057 26.908 16.118 26.8551 16.1642 26.7903C16.2105 26.7255 16.2405 26.6506 16.252 26.5719C16.2634 26.4931 16.2559 26.4128 16.23 26.3375C15.9908 25.6613 15.9378 24.9332 16.0765 24.2295C16.2153 23.5257 16.5407 22.8723 17.0188 22.3375C17.101 22.2458 17.1465 22.1269 17.1465 22.0038C17.1465 21.8806 17.101 21.7617 17.0188 21.67C16.5223 21.115 16.1906 20.4325 16.061 19.6992C15.9315 18.9659 16.0091 18.211 16.2853 17.5195C16.5615 16.828 17.0253 16.2273 17.6244 15.785C18.2234 15.3428 18.9341 15.0765 19.6763 15.0163V15.0125Z" fill="white"/>
<path d="M67.0613 23.9387C67.343 24.2205 67.5014 24.6027 67.5014 25.0012C67.5014 25.3998 67.343 25.782 67.0613 26.0637C66.7795 26.3455 66.3973 26.5039 65.9988 26.5039C65.6002 26.5039 65.218 26.3455 64.9363 26.0637L63 24.125L61.0613 26.065C60.7795 26.3468 60.3973 26.5051 59.9988 26.5051C59.6002 26.5051 59.218 26.3468 58.9363 26.065C58.6545 25.7832 58.4961 25.401 58.4961 25.0025C58.4961 24.604 58.6545 24.2218 58.9363 23.94L60.875 22L58.935 20.0613C58.6532 19.7795 58.4949 19.3973 58.4949 18.9988C58.4949 18.6002 58.6532 18.218 58.935 17.9363C59.2168 17.6545 59.599 17.4961 59.9975 17.4961C60.396 17.4961 60.7782 17.6545 61.06 17.9363L63 19.875L64.9387 17.935C65.2205 17.6532 65.6027 17.4949 66.0012 17.4949C66.3998 17.4949 66.782 17.6532 67.0637 17.935C67.3455 18.2168 67.5039 18.599 67.5039 18.9975C67.5039 19.396 67.3455 19.7782 67.0637 20.06L65.125 22L67.0613 23.9387ZM60 15C60.3978 15 60.7794 14.842 61.0607 14.5607C61.342 14.2794 61.5 13.8978 61.5 13.5V9C61.5 8.60218 61.342 8.22064 61.0607 7.93934C60.7794 7.65804 60.3978 7.5 60 7.5C59.6022 7.5 59.2206 7.65804 58.9393 7.93934C58.658 8.22064 58.5 8.60218 58.5 9V13.5C58.5 13.8978 58.658 14.2794 58.9393 14.5607C59.2206 14.842 59.6022 15 60 15ZM65 15C65.3978 15 65.7794 14.842 66.0607 14.5607C66.342 14.2794 66.5 13.8978 66.5 13.5V4C66.5 3.60218 66.342 3.22064 66.0607 2.93934C65.7794 2.65804 65.3978 2.5 65 2.5C64.6022 2.5 64.2206 2.65804 63.9393 2.93934C63.658 3.22064 63.5 3.60218 63.5 4V13.5C63.5 13.8978 63.658 14.2794 63.9393 14.5607C64.2206 14.842 64.6022 15 65 15ZM55 12.5C54.6022 12.5 54.2206 12.658 53.9393 12.9393C53.658 13.2206 53.5 13.6022 53.5 14V25C53.5 25.3978 53.658 25.7794 53.9393 26.0607C54.2206 26.342 54.6022 26.5 55 26.5C55.3978 26.5 55.7794 26.342 56.0607 26.0607C56.342 25.7794 56.5 25.3978 56.5 25V14C56.5 13.6022 56.342 13.2206 56.0607 12.9393C55.7794 12.658 55.3978 12.5 55 12.5ZM50 17.5C49.6022 17.5 49.2206 17.658 48.9393 17.9393C48.658 18.2206 48.5 18.6022 48.5 19V25C48.5 25.3978 48.658 25.7794 48.9393 26.0607C49.2206 26.342 49.6022 26.5 50 26.5C50.3978 26.5 50.7794 26.342 51.0607 26.0607C51.342 25.7794 51.5 25.3978 51.5 25V19C51.5 18.6022 51.342 18.2206 51.0607 17.9393C50.7794 17.658 50.3978 17.5 50 17.5ZM45 22.5C44.6022 22.5 44.2206 22.658 43.9393 22.9393C43.658 23.2206 43.5 23.6022 43.5 24V25C43.5 25.3978 43.658 25.7794 43.9393 26.0607C44.2206 26.342 44.6022 26.5 45 26.5C45.3978 26.5 45.7794 26.342 46.0607 26.0607C46.342 25.7794 46.5 25.3978 46.5 25V24C46.5 23.6022 46.342 23.2206 46.0607 22.9393C45.7794 22.658 45.3978 22.5 45 22.5Z" fill="white"/>
</g>
<defs>
<clipPath id="clip0_27_2540">
<rect width="72" height="32" rx="5" fill="white"/>
</clipPath>
</defs>
</svg>
