<svg width="72" height="32" viewBox="0 0 72 32" fill="none" xmlns="http://www.w3.org/2000/svg">
<g clip-path="url(#clip0_27_430)">
<path d="M16.895 10.5525C16.812 10.3861 16.6843 10.2461 16.5263 10.1482C16.3682 10.0504 16.1859 9.99856 16 9.99856C15.814 9.99856 15.6318 10.0504 15.4737 10.1482C15.3156 10.2461 15.1879 10.3861 15.105 10.5525L6.10497 28.5525C5.98629 28.7897 5.9667 29.0643 6.0505 29.316C6.13431 29.5676 6.31465 29.7757 6.55185 29.8944C6.78905 30.0131 7.06369 30.0326 7.31534 29.9488C7.56699 29.865 7.77504 29.6847 7.89373 29.4475L9.62497 26H22.3875L24.1112 29.4475C24.1939 29.6127 24.3207 29.7518 24.4776 29.8493C24.6344 29.9468 24.8153 29.999 25 30C25.1704 29.9999 25.338 29.9563 25.4868 29.8732C25.6357 29.7901 25.7608 29.6704 25.8503 29.5254C25.9399 29.3803 25.9909 29.2148 25.9984 29.0446C26.006 28.8743 25.97 28.7049 25.8937 28.5525L16.895 10.5525ZM16 13.2362L19.3825 20H12.6175L16 13.2362ZM19.9362 11.7175C20.0392 11.1417 20.0147 10.5503 19.8643 9.98505C19.714 9.41978 19.4415 8.89435 19.0661 8.4458C18.6907 7.99725 18.2214 7.6365 17.6914 7.38897C17.1615 7.14144 16.5837 7.01316 15.9987 7.01316C15.4138 7.01316 14.836 7.14144 14.306 7.38897C13.776 7.6365 13.3068 7.99725 12.9314 8.4458C12.5559 8.89435 12.2834 9.41978 12.1331 9.98505C11.9828 10.5503 11.9582 11.1417 12.0612 11.7175C12.0879 11.848 12.0882 11.9825 12.0622 12.1132C12.0362 12.2438 11.9843 12.368 11.9096 12.4783C11.835 12.5886 11.739 12.6829 11.6274 12.7556C11.5158 12.8284 11.3907 12.8781 11.2597 12.9018C11.1286 12.9255 10.9941 12.9228 10.864 12.8939C10.734 12.8649 10.6111 12.8102 10.5025 12.7331C10.3938 12.656 10.3017 12.5579 10.2316 12.4447C10.1614 12.3314 10.1145 12.2053 10.0937 12.0737C9.93699 11.2093 9.97202 10.3209 10.1963 9.47143C10.4207 8.62196 10.8288 7.83213 11.3919 7.15773C11.955 6.48334 12.6594 5.94084 13.4552 5.56857C14.251 5.19631 15.1189 5.00336 15.9975 5.00336C16.8761 5.00336 17.7439 5.19631 18.5397 5.56857C19.3356 5.94084 20.0399 6.48334 20.603 7.15773C21.1662 7.83213 21.5743 8.62196 21.7986 9.47143C22.0229 10.3209 22.058 11.2093 21.9012 12.0737C21.8597 12.3042 21.7386 12.5127 21.559 12.663C21.3795 12.8133 21.1529 12.8959 20.9187 12.8962C20.8588 12.8957 20.799 12.8903 20.74 12.88C20.4793 12.8323 20.2483 12.683 20.0976 12.4651C19.9469 12.2471 19.8888 11.9782 19.9362 11.7175ZM8.01873 17.0262C6.89823 15.5419 6.21386 13.7745 6.04251 11.9227C5.87116 10.0708 6.21962 8.20787 7.04874 6.54314C7.87786 4.87842 9.15478 3.47789 10.736 2.49892C12.3173 1.51995 14.1402 1.00133 16 1.00133C17.8597 1.00133 19.6827 1.51995 21.2639 2.49892C22.8452 3.47789 24.1221 4.87842 24.9512 6.54314C25.7803 8.20787 26.1288 10.0708 25.9574 11.9227C25.7861 13.7745 25.1017 15.5419 23.9812 17.0262C23.8197 17.2332 23.5832 17.3683 23.3228 17.4025C23.0625 17.4366 22.7992 17.3669 22.5898 17.2085C22.3803 17.0501 22.2416 16.8157 22.2035 16.556C22.1654 16.2962 22.2311 16.0318 22.3862 15.82C23.2822 14.6324 23.8293 13.2186 23.9661 11.7372C24.1029 10.2559 23.8239 8.76578 23.1605 7.43424C22.4971 6.10271 21.4756 4.98252 20.2107 4.19952C18.9458 3.41652 17.4876 3.00172 16 3.00172C14.5123 3.00172 13.0542 3.41652 11.7893 4.19952C10.5244 4.98252 9.50284 6.10271 8.83945 7.43424C8.17606 8.76578 7.89708 10.2559 8.03386 11.7372C8.17063 13.2186 8.71774 14.6324 9.61373 15.82C9.76888 16.0318 9.83451 16.2962 9.79643 16.556C9.75834 16.8157 9.61962 17.0501 9.41019 17.2085C9.20077 17.3669 8.93746 17.4366 8.67712 17.4025C8.41677 17.3683 8.18029 17.2332 8.01873 17.0262Z" fill="white"/>
<path d="M57.3338 10.8138C57.2076 10.5687 57.0164 10.3631 56.7812 10.2196C56.5459 10.0761 56.2756 10.0001 56 10.0001C55.7244 10.0001 55.4541 10.0761 55.2188 10.2196C54.9836 10.3631 54.7924 10.5687 54.6663 10.8138L45.6663 28.3138C45.4839 28.6675 45.4496 29.0792 45.5708 29.4582C45.692 29.8373 45.9588 30.1527 46.3125 30.335C46.6662 30.5173 47.0779 30.5517 47.457 30.4305C47.836 30.3093 48.1514 30.0425 48.3338 29.6888L49.7088 27.0025H62.285L63.6663 29.6888C63.7565 29.8639 63.8804 30.0196 64.0309 30.1468C64.1813 30.2741 64.3553 30.3705 64.543 30.4305C64.7307 30.4905 64.9284 30.513 65.1248 30.4966C65.3211 30.4802 65.5124 30.4253 65.6875 30.335C65.8626 30.2447 66.0183 30.1208 66.1456 29.9704C66.2728 29.8199 66.3692 29.6459 66.4292 29.4582C66.4892 29.2705 66.5117 29.0729 66.4953 28.8765C66.4789 28.6801 66.424 28.4889 66.3337 28.3138L57.3338 10.8138ZM56 14.78L58.17 19H53.83L56 14.78ZM51.2588 24L52.2863 22H59.7138L60.7412 24H51.2588ZM61.8137 8.59125C61.9077 8.76787 61.9653 8.96148 61.9833 9.1607C62.0012 9.35992 61.9792 9.56072 61.9184 9.75128C61.8576 9.94185 61.7593 10.1183 61.6293 10.2704C61.4993 10.4224 61.3402 10.5469 61.1614 10.6365C60.9826 10.7261 60.7876 10.7791 60.588 10.7922C60.3884 10.8054 60.1882 10.7785 59.9992 10.7131C59.8101 10.6478 59.6361 10.5453 59.4872 10.4116C59.3384 10.278 59.2178 10.1159 59.1325 9.935C58.8394 9.34717 58.3869 8.85366 57.8266 8.5109C57.2663 8.16814 56.6208 7.98996 55.964 7.99674C55.3072 8.00352 54.6656 8.19499 54.1125 8.54924C53.5594 8.9035 53.1171 9.40624 52.8363 10C52.6655 10.3595 52.359 10.6365 51.984 10.77C51.609 10.9035 51.1964 10.8826 50.8369 10.7119C50.4773 10.5411 50.2004 10.2346 50.0669 9.85963C49.9334 9.48467 49.9543 9.07204 50.125 8.7125C50.6559 7.60375 51.4889 6.66724 52.5281 6.01054C53.5673 5.35385 54.7707 5.00359 56 5C57.2077 4.99608 58.3924 5.3304 59.4199 5.9651C60.4474 6.59981 61.2767 7.50953 61.8137 8.59125ZM46.2413 18.0913C45.1558 16.3502 44.5559 14.3504 44.5037 12.2994C44.4516 10.2483 44.9491 8.22065 45.9447 6.42668C46.9403 4.63271 48.3977 3.13777 50.1658 2.09689C51.9339 1.05601 53.9483 0.507111 56 0.507111C58.0517 0.507111 60.0661 1.05601 61.8342 2.09689C63.6023 3.13777 65.0597 4.63271 66.0553 6.42668C67.0509 8.22065 67.5484 10.2483 67.4963 12.2994C67.4441 14.3504 66.8442 16.3502 65.7588 18.0913C65.5477 18.4287 65.2113 18.6686 64.8235 18.758C64.4356 18.8474 64.0281 18.7791 63.6906 18.5681C63.3531 18.3571 63.1133 18.0207 63.0239 17.6328C62.9344 17.245 63.0027 16.8375 63.2138 16.5C64.0158 15.2131 64.4589 13.7351 64.4973 12.2192C64.5356 10.7033 64.1678 9.20476 63.4318 7.87896C62.6959 6.55315 61.6187 5.44835 60.3119 4.67912C59.0051 3.90989 57.5164 3.50425 56 3.50425C54.4836 3.50425 52.9949 3.90989 51.6881 4.67912C50.3813 5.44835 49.3041 6.55315 48.5682 7.87896C47.8322 9.20476 47.4644 10.7033 47.5027 12.2192C47.5411 13.7351 47.9842 15.2131 48.7863 16.5C48.9884 16.8373 49.0501 17.2404 48.9579 17.6227C48.8658 18.005 48.6272 18.3358 48.2936 18.5439C47.9599 18.752 47.5579 18.8208 47.1741 18.7355C46.7902 18.6501 46.4552 18.4174 46.2413 18.0875V18.0913Z" fill="white"/>
</g>
<defs>
<clipPath id="clip0_27_430">
<rect width="72" height="32" rx="5" fill="white"/>
</clipPath>
</defs>
</svg>
