<svg width="72" height="32" viewBox="0 0 72 32" fill="none" xmlns="http://www.w3.org/2000/svg">
<g clip-path="url(#clip0_27_2535)">
<path d="M26.6725 27.74C26.4762 27.9183 26.2171 28.0114 25.9522 27.9987C25.6874 27.9861 25.4383 27.8687 25.26 27.6725L24.5712 26.915C24.3859 26.9706 24.1935 26.9993 24 27H3.99997C3.58807 27 3.18619 26.8729 2.84925 26.636C2.51231 26.3991 2.25675 26.0639 2.11747 25.6762C1.99326 25.3101 1.97511 24.9163 2.06513 24.5403C2.15515 24.1643 2.34966 23.8214 2.62622 23.5512L12.5175 13.6612L5.28247 5.70249C5.10131 5.50892 5.00197 5.25282 5.00523 4.98772C5.00849 4.72262 5.1141 4.46904 5.29997 4.27999C5.39624 4.18691 5.51022 4.11412 5.63515 4.06593C5.76009 4.01774 5.89342 3.99513 6.02726 3.99944C6.16109 4.00376 6.2927 4.03491 6.41427 4.09104C6.53584 4.14718 6.6449 4.22716 6.73497 4.32624L26.735 26.3262C26.8238 26.4231 26.8926 26.5366 26.9375 26.6601C26.9825 26.7836 27.0026 26.9148 26.9968 27.0461C26.991 27.1774 26.9594 27.3062 26.9037 27.4253C26.8481 27.5444 26.7695 27.6513 26.6725 27.74ZM25.125 21.5825C25.1925 21.659 25.2817 21.7131 25.3808 21.7374C25.4799 21.7617 25.5841 21.7551 25.6794 21.7185C25.7746 21.6819 25.8564 21.6171 25.9137 21.5326C25.971 21.4482 26.0011 21.3483 26 21.2462V4.99999C26.0003 4.6042 25.8832 4.21721 25.6634 3.88802C25.4437 3.55884 25.1312 3.30225 24.7656 3.15074C24.3999 2.99924 23.9975 2.95963 23.6094 3.03693C23.2212 3.11423 22.8647 3.30497 22.585 3.58499L15.6837 10.485C15.5929 10.5759 15.5405 10.6983 15.5374 10.8267C15.5344 10.9552 15.581 11.0799 15.6675 11.175L25.125 21.5825Z" fill="white"/>
<path d="M51.5 19V25C51.5 25.3978 51.342 25.7794 51.0607 26.0607C50.7794 26.342 50.3978 26.5 50 26.5C49.6022 26.5 49.2206 26.342 48.9393 26.0607C48.658 25.7794 48.5 25.3978 48.5 25V19C48.5 18.6022 48.658 18.2206 48.9393 17.9393C49.2206 17.658 49.6022 17.5 50 17.5C50.3978 17.5 50.7794 17.658 51.0607 17.9393C51.342 18.2206 51.5 18.6022 51.5 19ZM45 22.5C44.6022 22.5 44.2206 22.658 43.9393 22.9393C43.658 23.2206 43.5 23.6022 43.5 24V25C43.5 25.3978 43.658 25.7794 43.9393 26.0607C44.2206 26.342 44.6022 26.5 45 26.5C45.3978 26.5 45.7794 26.342 46.0607 26.0607C46.342 25.7794 46.5 25.3978 46.5 25V24C46.5 23.6022 46.342 23.2206 46.0607 22.9393C45.7794 22.658 45.3978 22.5 45 22.5ZM67.11 25.9912L47.11 3.99125C46.9783 3.84276 46.8184 3.7219 46.6396 3.63566C46.4608 3.54942 46.2667 3.49952 46.0685 3.48886C45.8703 3.47819 45.6719 3.50698 45.4849 3.57354C45.2979 3.6401 45.126 3.74311 44.9791 3.87661C44.8322 4.01011 44.7132 4.17144 44.6292 4.35124C44.5451 4.53104 44.4975 4.72575 44.4892 4.92407C44.4809 5.1224 44.5121 5.32039 44.5809 5.50659C44.6497 5.69278 44.7547 5.86346 44.89 6.00875L53.5 15.48V25C53.5 25.3978 53.658 25.7794 53.9393 26.0607C54.2206 26.342 54.6022 26.5 55 26.5C55.3978 26.5 55.7794 26.342 56.0607 26.0607C56.342 25.7794 56.5 25.3978 56.5 25V18.78L58.5 20.98V25C58.5 25.3978 58.658 25.7794 58.9393 26.0607C59.2206 26.342 59.6022 26.5 60 26.5C60.3978 26.5 60.7794 26.342 61.0607 26.0607C61.342 25.7794 61.5 25.3978 61.5 25V24.28L64.89 28.0088C65.1589 28.2977 65.5309 28.4689 65.9253 28.4854C66.3197 28.5019 66.7046 28.3622 66.9967 28.0968C67.2888 27.8313 67.4645 27.4614 67.4857 27.0673C67.5069 26.6731 67.3719 26.2865 67.11 25.9912ZM60 14.4675C60.3978 14.4675 60.7794 14.3095 61.0607 14.0282C61.342 13.7469 61.5 13.3653 61.5 12.9675V9C61.5 8.60218 61.342 8.22064 61.0607 7.93934C60.7794 7.65804 60.3978 7.5 60 7.5C59.6022 7.5 59.2206 7.65804 58.9393 7.93934C58.658 8.22064 58.5 8.60218 58.5 9V12.9675C58.5 13.3653 58.658 13.7469 58.9393 14.0282C59.2206 14.3095 59.6022 14.4675 60 14.4675ZM65 19.9675C65.3978 19.9675 65.7794 19.8095 66.0607 19.5282C66.342 19.2469 66.5 18.8653 66.5 18.4675V4C66.5 3.60218 66.342 3.22064 66.0607 2.93934C65.7794 2.65804 65.3978 2.5 65 2.5C64.6022 2.5 64.2206 2.65804 63.9393 2.93934C63.658 3.22064 63.5 3.60218 63.5 4V18.4675C63.5 18.8653 63.658 19.2469 63.9393 19.5282C64.2206 19.8095 64.6022 19.9675 65 19.9675Z" fill="white"/>
</g>
<defs>
<clipPath id="clip0_27_2535">
<rect width="72" height="32" rx="5" fill="white"/>
</clipPath>
</defs>
</svg>
