<svg width="72" height="32" viewBox="0 0 72 32" fill="none" xmlns="http://www.w3.org/2000/svg">
<g clip-path="url(#clip0_27_2510)">
<path d="M26.0001 4.99999V25C26.0001 25.5304 25.7893 26.0391 25.4143 26.4142C25.0392 26.7893 24.5305 27 24.0001 27H4.00005C3.60447 26.9998 3.21783 26.8823 2.88903 26.6624C2.56022 26.4425 2.30402 26.13 2.15283 25.7644C2.00163 25.3989 1.96223 24.9967 2.03962 24.6088C2.117 24.2208 2.30768 23.8646 2.58755 23.585L22.5876 3.58499C22.8674 3.30583 23.2237 3.11584 23.6114 3.03904C23.9992 2.96223 24.401 3.00204 24.7661 3.15344C25.1312 3.30485 25.4433 3.56105 25.6629 3.8897C25.8826 4.21835 25.9999 4.60471 26.0001 4.99999Z" fill="white"/>
<path d="M61.5 9V25C61.5 25.3978 61.342 25.7794 61.0607 26.0607C60.7794 26.342 60.3978 26.5 60 26.5C59.6022 26.5 59.2206 26.342 58.9393 26.0607C58.658 25.7794 58.5 25.3978 58.5 25V9C58.5 8.60218 58.658 8.22064 58.9393 7.93934C59.2206 7.65804 59.6022 7.5 60 7.5C60.3978 7.5 60.7794 7.65804 61.0607 7.93934C61.342 8.22064 61.5 8.60218 61.5 9ZM65 2.5C64.6022 2.5 64.2206 2.65804 63.9393 2.93934C63.658 3.22064 63.5 3.60218 63.5 4V25C63.5 25.3978 63.658 25.7794 63.9393 26.0607C64.2206 26.342 64.6022 26.5 65 26.5C65.3978 26.5 65.7794 26.342 66.0607 26.0607C66.342 25.7794 66.5 25.3978 66.5 25V4C66.5 3.60218 66.342 3.22064 66.0607 2.93934C65.7794 2.65804 65.3978 2.5 65 2.5ZM55 12.5C54.6022 12.5 54.2206 12.658 53.9393 12.9393C53.658 13.2206 53.5 13.6022 53.5 14V25C53.5 25.3978 53.658 25.7794 53.9393 26.0607C54.2206 26.342 54.6022 26.5 55 26.5C55.3978 26.5 55.7794 26.342 56.0607 26.0607C56.342 25.7794 56.5 25.3978 56.5 25V14C56.5 13.6022 56.342 13.2206 56.0607 12.9393C55.7794 12.658 55.3978 12.5 55 12.5ZM50 17.5C49.6022 17.5 49.2206 17.658 48.9393 17.9393C48.658 18.2206 48.5 18.6022 48.5 19V25C48.5 25.3978 48.658 25.7794 48.9393 26.0607C49.2206 26.342 49.6022 26.5 50 26.5C50.3978 26.5 50.7794 26.342 51.0607 26.0607C51.342 25.7794 51.5 25.3978 51.5 25V19C51.5 18.6022 51.342 18.2206 51.0607 17.9393C50.7794 17.658 50.3978 17.5 50 17.5ZM45 22.5C44.6022 22.5 44.2206 22.658 43.9393 22.9393C43.658 23.2206 43.5 23.6022 43.5 24V25C43.5 25.3978 43.658 25.7794 43.9393 26.0607C44.2206 26.342 44.6022 26.5 45 26.5C45.3978 26.5 45.7794 26.342 46.0607 26.0607C46.342 25.7794 46.5 25.3978 46.5 25V24C46.5 23.6022 46.342 23.2206 46.0607 22.9393C45.7794 22.658 45.3978 22.5 45 22.5Z" fill="white"/>
</g>
<defs>
<clipPath id="clip0_27_2510">
<rect width="72" height="32" rx="5" fill="white"/>
</clipPath>
</defs>
</svg>
