<svg width="72" height="32" viewBox="0 0 72 32" fill="none" xmlns="http://www.w3.org/2000/svg">
<g clip-path="url(#clip0_27_2530)">
<path d="M24.7648 3.15374C24.3994 3.00214 23.9973 2.96232 23.6092 3.0393C23.2212 3.11629 22.8647 3.30663 22.5848 3.58624L2.58484 23.5862C2.30524 23.866 2.11488 24.2224 2.03783 24.6104C1.96078 24.9983 2.00049 25.4004 2.15194 25.7658C2.30339 26.1312 2.55979 26.4435 2.88871 26.6632C3.21763 26.8828 3.6043 27.0001 3.99984 27H23.9998C24.5303 27 25.039 26.7893 25.414 26.4142C25.7891 26.0391 25.9998 25.5304 25.9998 25V4.99999C26.0005 4.60442 25.8834 4.2176 25.6635 3.88881C25.4435 3.56001 25.1307 3.30413 24.7648 3.15374ZM23.9998 25H3.99984L23.9998 4.99999V25Z" fill="white"/>
<path d="M46.5 24V25C46.5 25.3978 46.342 25.7794 46.0607 26.0607C45.7794 26.342 45.3978 26.5 45 26.5C44.6022 26.5 44.2206 26.342 43.9393 26.0607C43.658 25.7794 43.5 25.3978 43.5 25V24C43.5 23.6022 43.658 23.2206 43.9393 22.9393C44.2206 22.658 44.6022 22.5 45 22.5C45.3978 22.5 45.7794 22.658 46.0607 22.9393C46.342 23.2206 46.5 23.6022 46.5 24Z" fill="white"/>
</g>
<defs>
<clipPath id="clip0_27_2530">
<rect width="72" height="32" rx="5" fill="white"/>
</clipPath>
</defs>
</svg>
