<svg width="72" height="32" viewBox="0 0 72 32" fill="none" xmlns="http://www.w3.org/2000/svg">
<g clip-path="url(#clip0_27_951)">
<path d="M26 17H22V13H24C24.5304 13 25.0391 12.7893 25.4142 12.4142C25.7893 12.0391 26 11.5304 26 11V5C26 4.46957 25.7893 3.96086 25.4142 3.58579C25.0391 3.21071 24.5304 3 24 3H8C7.46957 3 6.96086 3.21071 6.58579 3.58579C6.21071 3.96086 6 4.46957 6 5V11C6 11.5304 6.21071 12.0391 6.58579 12.4142C6.96086 12.7893 7.46957 13 8 13H10V17H6C5.46957 17 4.96086 17.2107 4.58579 17.5858C4.21071 17.9609 4 18.4696 4 19V21C4 21.5304 4.21071 22.0391 4.58579 22.4142C4.96086 22.7893 5.46957 23 6 23H7V28C7 28.2652 7.10536 28.5196 7.29289 28.7071C7.48043 28.8946 7.73478 29 8 29C8.26522 29 8.51957 28.8946 8.70711 28.7071C8.89464 28.5196 9 28.2652 9 28V23H23V28C23 28.2652 23.1054 28.5196 23.2929 28.7071C23.4804 28.8946 23.7348 29 24 29C24.2652 29 24.5196 28.8946 24.7071 28.7071C24.8946 28.5196 25 28.2652 25 28V23H26C26.5304 23 27.0391 22.7893 27.4142 22.4142C27.7893 22.0391 28 21.5304 28 21V19C28 18.4696 27.7893 17.9609 27.4142 17.5858C27.0391 17.2107 26.5304 17 26 17ZM20 17H12V13H20V17Z" fill="white"/>
<path d="M66 16H62.5V13.5H64C64.663 13.5 65.2989 13.2366 65.7678 12.7678C66.2366 12.2989 66.5 11.663 66.5 11V5C66.5 4.33696 66.2366 3.70107 65.7678 3.23223C65.2989 2.76339 64.663 2.5 64 2.5H48C47.337 2.5 46.7011 2.76339 46.2322 3.23223C45.7634 3.70107 45.5 4.33696 45.5 5V11C45.5 11.663 45.7634 12.2989 46.2322 12.7678C46.7011 13.2366 47.337 13.5 48 13.5H49.5V16H46C45.337 16 44.7011 16.2634 44.2322 16.7322C43.7634 17.2011 43.5 17.837 43.5 18.5V21.5C43.5 21.8283 43.5647 22.1534 43.6903 22.4567C43.8159 22.76 44.0001 23.0356 44.2322 23.2678C44.4644 23.4999 44.74 23.6841 45.0433 23.8097C45.3466 23.9353 45.6717 24 46 24H47V28C47 28.3978 47.158 28.7794 47.4393 29.0607C47.7206 29.342 48.1022 29.5 48.5 29.5C48.8978 29.5 49.2794 29.342 49.5607 29.0607C49.842 28.7794 50 28.3978 50 28V24H62V28C62 28.3978 62.158 28.7794 62.4393 29.0607C62.7206 29.342 63.1022 29.5 63.5 29.5C63.8978 29.5 64.2794 29.342 64.5607 29.0607C64.842 28.7794 65 28.3978 65 28V24H66C66.3283 24 66.6534 23.9353 66.9567 23.8097C67.26 23.6841 67.5356 23.4999 67.7678 23.2678C67.9999 23.0356 68.1841 22.76 68.3097 22.4567C68.4353 22.1534 68.5 21.8283 68.5 21.5V18.5C68.5 17.837 68.2366 17.2011 67.7678 16.7322C67.2989 16.2634 66.663 16 66 16ZM48.5 5.5H63.5V10.5H48.5V5.5ZM52.5 13.5H59.5V16H52.5V13.5ZM65.5 21H46.5V19H65.5V21Z" fill="white"/>
</g>
<defs>
<clipPath id="clip0_27_951">
<rect width="72" height="32" rx="5" fill="white"/>
</clipPath>
</defs>
</svg>
