<svg width="72" height="32" viewBox="0 0 72 32" fill="none" xmlns="http://www.w3.org/2000/svg">
<g clip-path="url(#clip0_27_5778)">
<path d="M30 24H29V7C29 6.46957 28.7893 5.96086 28.4142 5.58579C28.0391 5.21071 27.5304 5 27 5H5C4.46957 5 3.96086 5.21071 3.58579 5.58579C3.21071 5.96086 3 6.46957 3 7V24H2C1.73478 24 1.48043 24.1054 1.29289 24.2929C1.10536 24.4804 1 24.7348 1 25C1 25.2652 1.10536 25.5196 1.29289 25.7071C1.48043 25.8946 1.73478 26 2 26H30C30.2652 26 30.5196 25.8946 30.7071 25.7071C30.8946 25.5196 31 25.2652 31 25C31 24.7348 30.8946 24.4804 30.7071 24.2929C30.5196 24.1054 30.2652 24 30 24ZM27 24H18V22C18 21.7348 18.1054 21.4804 18.2929 21.2929C18.4804 21.1054 18.7348 21 19 21H26C26.2652 21 26.5196 21.1054 26.7071 21.2929C26.8946 21.4804 27 21.7348 27 22V24ZM27 18C27 18.2652 26.8946 18.5196 26.7071 18.7071C26.5196 18.8946 26.2652 19 26 19C25.7348 19 25.4804 18.8946 25.2929 18.7071C25.1054 18.5196 25 18.2652 25 18V9H7V23C7 23.2652 6.89464 23.5196 6.70711 23.7071C6.51957 23.8946 6.26522 24 6 24C5.73478 24 5.48043 23.8946 5.29289 23.7071C5.10536 23.5196 5 23.2652 5 23V8C5 7.73478 5.10536 7.48043 5.29289 7.29289C5.48043 7.10536 5.73478 7 6 7H26C26.2652 7 26.5196 7.10536 26.7071 7.29289C26.8946 7.48043 27 7.73478 27 8V18Z" fill="white"/>
<path d="M70 23.5H69.5V7C69.5 6.33696 69.2366 5.70107 68.7678 5.23223C68.2989 4.76339 67.663 4.5 67 4.5H45C44.337 4.5 43.7011 4.76339 43.2322 5.23223C42.7634 5.70107 42.5 6.33696 42.5 7V23.5H42C41.6022 23.5 41.2206 23.658 40.9393 23.9393C40.658 24.2206 40.5 24.6022 40.5 25C40.5 25.3978 40.658 25.7794 40.9393 26.0607C41.2206 26.342 41.6022 26.5 42 26.5H70C70.3978 26.5 70.7794 26.342 71.0607 26.0607C71.342 25.7794 71.5 25.3978 71.5 25C71.5 24.6022 71.342 24.2206 71.0607 23.9393C70.7794 23.658 70.3978 23.5 70 23.5ZM45.5 7.5H66.5V23.5H64.5V20C64.5 19.6022 64.342 19.2206 64.0607 18.9393C63.7794 18.658 63.3978 18.5 63 18.5H55C54.6022 18.5 54.2206 18.658 53.9393 18.9393C53.658 19.2206 53.5 19.6022 53.5 20V23.5H50.5V12.5H61.5V15C61.5 15.3978 61.658 15.7794 61.9393 16.0607C62.2206 16.342 62.6022 16.5 63 16.5C63.3978 16.5 63.7794 16.342 64.0607 16.0607C64.342 15.7794 64.5 15.3978 64.5 15V11C64.5 10.6022 64.342 10.2206 64.0607 9.93934C63.7794 9.65804 63.3978 9.5 63 9.5H49C48.6022 9.5 48.2206 9.65804 47.9393 9.93934C47.658 10.2206 47.5 10.6022 47.5 11V23.5H45.5V7.5ZM61.5 23.5H56.5V21.5H61.5V23.5Z" fill="white"/>
</g>
<defs>
<clipPath id="clip0_27_5778">
<rect width="72" height="32" rx="5" fill="white"/>
</clipPath>
</defs>
</svg>
