<svg width="72" height="32" viewBox="0 0 72 32" fill="none" xmlns="http://www.w3.org/2000/svg">
<g clip-path="url(#clip0_27_5788)">
<path d="M27 5H5C4.46957 5 3.96086 5.21071 3.58579 5.58579C3.21071 5.96086 3 6.46957 3 7V25C3 25.5304 3.21071 26.0391 3.58579 26.4142C3.96086 26.7893 4.46957 27 5 27H6.67375C6.86301 27.0001 7.0484 26.9464 7.20838 26.8453C7.36836 26.7442 7.49636 26.5997 7.5775 26.4287C8.06377 25.4021 8.83151 24.5346 9.79143 23.9271C10.7514 23.3196 11.864 22.9971 13 22.9971C14.136 22.9971 15.2486 23.3196 16.2086 23.9271C17.1685 24.5346 17.9362 25.4021 18.4225 26.4287C18.5036 26.5997 18.6316 26.7442 18.7916 26.8453C18.9516 26.9464 19.137 27.0001 19.3263 27H27C27.5304 27 28.0391 26.7893 28.4142 26.4142C28.7893 26.0391 29 25.5304 29 25V7C29 6.46957 28.7893 5.96086 28.4142 5.58579C28.0391 5.21071 27.5304 5 27 5ZM13 21C12.2089 21 11.4355 20.7654 10.7777 20.3259C10.1199 19.8864 9.60723 19.2616 9.30448 18.5307C9.00173 17.7998 8.92252 16.9956 9.07686 16.2196C9.2312 15.4437 9.61216 14.731 10.1716 14.1716C10.731 13.6122 11.4437 13.2312 12.2196 13.0769C12.9956 12.9225 13.7998 13.0017 14.5307 13.3045C15.2616 13.6072 15.8864 14.1199 16.3259 14.7777C16.7654 15.4355 17 16.2089 17 17C17 18.0609 16.5786 19.0783 15.8284 19.8284C15.0783 20.5786 14.0609 21 13 21ZM27 25H19.9287C19.4928 24.2483 18.9372 23.5728 18.2838 23H24C24.2652 23 24.5196 22.8946 24.7071 22.7071C24.8946 22.5196 25 22.2652 25 22V10C25 9.73478 24.8946 9.48043 24.7071 9.29289C24.5196 9.10536 24.2652 9 24 9H8C7.73478 9 7.48043 9.10536 7.29289 9.29289C7.10536 9.48043 7 9.73478 7 10V22C6.99989 22.2218 7.07351 22.4373 7.20928 22.6127C7.34505 22.788 7.53526 22.9133 7.75 22.9688C7.08152 23.5479 6.51417 24.2344 6.07125 25H5V7H27V25Z" fill="white"/>
<path d="M47 10.5C47 10.1022 47.158 9.72064 47.4393 9.43934C47.7206 9.15804 48.1022 9 48.5 9H63.5C63.8978 9 64.2794 9.15804 64.5607 9.43934C64.842 9.72064 65 10.1022 65 10.5V21.5C65 21.8978 64.842 22.2794 64.5607 22.5607C64.2794 22.842 63.8978 23 63.5 23C63.1022 23 62.7206 22.842 62.4393 22.5607C62.158 22.2794 62 21.8978 62 21.5V12H48.5C48.1022 12 47.7206 11.842 47.4393 11.5607C47.158 11.2794 47 10.8978 47 10.5ZM69.5 7V25C69.5 25.663 69.2366 26.2989 68.7678 26.7678C68.2989 27.2366 67.663 27.5 67 27.5H58.6575C58.3415 27.4999 58.0336 27.4001 57.7777 27.2147C57.5218 27.0293 57.331 26.7678 57.2325 26.4675C56.9187 25.5962 56.3437 24.843 55.586 24.3106C54.8283 23.7781 53.9248 23.4924 52.9987 23.4924C52.0727 23.4924 51.1692 23.7781 50.4115 24.3106C49.6538 24.843 49.0788 25.5962 48.765 26.4675C48.6666 26.7674 48.4762 27.0286 48.2208 27.2139C47.9654 27.3993 47.6581 27.4994 47.3425 27.5H45C44.337 27.5 43.7011 27.2366 43.2322 26.7678C42.7634 26.2989 42.5 25.663 42.5 25V7C42.5 6.33696 42.7634 5.70107 43.2322 5.23223C43.7011 4.76339 44.337 4.5 45 4.5H67C67.663 4.5 68.2989 4.76339 68.7678 5.23223C69.2366 5.70107 69.5 6.33696 69.5 7ZM53 20.5C53.3956 20.5 53.7822 20.3827 54.1111 20.1629C54.44 19.9432 54.6964 19.6308 54.8478 19.2654C54.9991 18.8999 55.0387 18.4978 54.9616 18.1098C54.8844 17.7219 54.6939 17.3655 54.4142 17.0858C54.1345 16.8061 53.7781 16.6156 53.3902 16.5384C53.0022 16.4613 52.6001 16.5009 52.2346 16.6522C51.8692 16.8036 51.5568 17.06 51.3371 17.3889C51.1173 17.7178 51 18.1044 51 18.5C51 19.0304 51.2107 19.5391 51.5858 19.9142C51.9609 20.2893 52.4696 20.5 53 20.5ZM66.5 7.5H45.5V24.5H46.365C46.9959 23.3087 47.9353 22.3089 49.085 21.605C48.5001 20.8687 48.1346 19.9823 48.0307 19.0477C47.9267 18.1131 48.0884 17.1681 48.4972 16.3212C48.906 15.4744 49.5453 14.76 50.3418 14.26C51.1383 13.7601 52.0596 13.4949 53 13.4949C53.9404 13.4949 54.8617 13.7601 55.6582 14.26C56.4547 14.76 57.094 15.4744 57.5028 16.3212C57.9116 17.1681 58.0733 18.1131 57.9693 19.0477C57.8654 19.9823 57.4999 20.8687 56.915 21.605C58.0647 22.3089 59.0041 23.3087 59.635 24.5H66.5V7.5Z" fill="white"/>
</g>
<defs>
<clipPath id="clip0_27_5788">
<rect width="72" height="32" rx="5" fill="white"/>
</clipPath>
</defs>
</svg>
