<svg width="72" height="32" viewBox="0 0 72 32" fill="none" xmlns="http://www.w3.org/2000/svg">
<g clip-path="url(#clip0_27_1668)">
<path d="M15 20.2425V28.41C15.0005 28.4808 14.9859 28.5509 14.9573 28.6156C14.9286 28.6804 14.8866 28.7383 14.8339 28.7855C14.7811 28.8328 14.719 28.8683 14.6515 28.8898C14.5841 28.9113 14.5128 28.9181 14.4425 28.91C12.1318 28.6262 9.9393 27.7288 8.0928 26.3109C6.24631 24.8931 4.81323 23.0066 3.94251 20.8475C3.91648 20.7819 3.90465 20.7115 3.90779 20.6409C3.91094 20.5704 3.92899 20.5013 3.96075 20.4382C3.99252 20.3752 4.03728 20.3196 4.09209 20.2751C4.1469 20.2305 4.21052 20.1982 4.27875 20.18L12.165 18.0625C12.266 18.036 12.3727 18.0418 12.4702 18.079C12.5677 18.1162 12.6511 18.183 12.7088 18.27C13.1863 18.9608 13.8675 19.4852 14.6575 19.77C14.7569 19.803 14.8434 19.8663 14.9048 19.9511C14.9663 20.0359 14.9996 20.1378 15 20.2425ZM16.0075 3C15.8756 2.99901 15.7447 3.02414 15.6225 3.07395C15.5003 3.12377 15.3892 3.19727 15.2955 3.29023C15.2019 3.38318 15.1276 3.49376 15.0768 3.61557C15.0261 3.73739 15 3.86804 15 4V11C14.998 11.263 15.1005 11.5161 15.2849 11.7036C15.4694 11.8911 15.7207 11.9977 15.9838 12C16.9282 11.9959 17.8436 12.3262 18.5679 12.9322C19.2922 13.5383 19.7787 14.3811 19.9413 15.3114C20.1039 16.2418 19.932 17.1996 19.4561 18.0154C18.9803 18.8312 18.2311 19.4523 17.3413 19.7687C17.2419 19.802 17.1555 19.8656 17.0943 19.9506C17.0331 20.0356 17.0001 20.1377 17 20.2425V28.41C16.9996 28.4807 17.0141 28.5506 17.0427 28.6153C17.0712 28.6799 17.1132 28.7378 17.1657 28.785C17.2183 28.8323 17.2803 28.8678 17.3476 28.8894C17.4149 28.9109 17.486 28.9179 17.5563 28.91C20.8506 28.5204 23.8714 26.8861 26 24.3418C28.1287 21.7975 29.2041 18.5357 29.0062 15.2243C28.8083 11.9129 27.3519 8.80244 24.9353 6.52983C22.5188 4.25723 19.3248 2.99442 16.0075 3ZM12.0075 15.6862C12.054 15.0956 12.2312 14.5226 12.5263 14.0087V14C12.6253 13.8289 12.6715 13.6322 12.6588 13.4348C12.6461 13.2375 12.5752 13.0483 12.455 12.8912C12.3709 12.7832 12.2665 12.6927 12.1475 12.625L6.10625 9.1325C5.99243 9.06686 5.86679 9.0243 5.7365 9.00725C5.60622 8.9902 5.47386 8.99899 5.34697 9.03312C5.22009 9.06725 5.10118 9.12605 4.99703 9.20616C4.89288 9.28627 4.80554 9.38612 4.74 9.5C3.28514 12.0197 2.71654 14.9542 3.125 17.835C3.13464 17.9053 3.15914 17.9728 3.19686 18.0329C3.23458 18.093 3.28467 18.1444 3.34379 18.1836C3.40291 18.2229 3.46971 18.2491 3.53975 18.2606C3.60979 18.272 3.68146 18.2684 3.75 18.25L11.6525 16.125C11.7504 16.0979 11.8376 16.0412 11.9021 15.9627C11.9665 15.8841 12.0051 15.7876 12.0125 15.6862H12.0075Z" fill="white"/>
<path d="M56.0002 2.5C55.6024 2.5 55.2208 2.65804 54.9395 2.93934C54.6582 3.22064 54.5002 3.60218 54.5002 4V11C54.5002 11.3978 54.6582 11.7794 54.9395 12.0607C55.2208 12.342 55.6024 12.5 56.0002 12.5C56.7706 12.5003 57.5194 12.7548 58.1304 13.224C58.7415 13.6932 59.1806 14.3509 59.3798 15.0952C59.579 15.8394 59.527 16.6285 59.232 17.3402C58.937 18.0519 58.4154 18.6464 57.7482 19.0314C57.0809 19.4165 56.3052 19.5707 55.5414 19.47C54.7776 19.3693 54.0684 19.0194 53.5237 18.4746C52.979 17.9298 52.6292 17.2205 52.5287 16.4567C52.4282 15.6928 52.5825 14.9172 52.9677 14.25C53.0664 14.0794 53.1304 13.891 53.1562 13.6956C53.182 13.5002 53.1691 13.3017 53.1181 13.1113C53.0672 12.9209 52.9792 12.7424 52.8592 12.5861C52.7393 12.4297 52.5896 12.2985 52.4189 12.2L46.3564 8.7C46.0118 8.50126 45.6024 8.44755 45.2182 8.5507C44.834 8.65384 44.5065 8.90539 44.3077 9.25C42.8218 11.8236 42.2267 14.8156 42.6145 17.762C43.0024 20.7083 44.3516 23.4443 46.4529 25.5457C48.5542 27.6471 51.2902 28.9965 54.2365 29.3844C57.1828 29.7724 60.1749 29.1774 62.7485 27.6916C65.3222 26.2059 67.3337 23.9124 68.4711 21.1669C69.6085 18.4214 69.8082 15.3773 69.0393 12.5068C68.2703 9.63623 66.5756 7.09962 64.2181 5.29035C61.8606 3.48107 58.972 2.50025 56.0002 2.5ZM46.2502 12.1012L49.7752 14.1362C49.5937 14.7409 49.501 15.3687 49.5002 16C49.5002 16.0625 49.5002 16.125 49.5002 16.1875L45.5714 17.24C45.523 16.8285 45.4992 16.4144 45.5002 16C45.5011 14.6646 45.7556 13.3416 46.2502 12.1012ZM46.3539 20.1388L50.2827 19.085C50.7189 19.8907 51.3199 20.5955 52.0466 21.1535C52.7732 21.7115 53.6092 22.1103 54.5002 22.3237V26.3913C52.7212 26.1312 51.0384 25.4201 49.612 24.3256C48.1856 23.2312 47.0631 21.7898 46.3514 20.1388H46.3539ZM57.5027 26.3888V22.3237C58.9261 21.9857 60.1938 21.1774 61.1007 20.0295C62.0077 18.8816 62.501 17.4613 62.5007 15.9984C62.5004 14.5354 62.0066 13.1154 61.0992 11.9678C60.1917 10.8203 58.9237 10.0125 57.5002 9.675V5.60625C59.9995 5.96666 62.2852 7.21566 63.9384 9.12437C65.5916 11.0331 66.5016 13.4736 66.5016 15.9987C66.5016 18.5239 65.5916 20.9644 63.9384 22.8731C62.2852 24.7818 59.9995 26.0308 57.5002 26.3913L57.5027 26.3888Z" fill="white"/>
</g>
<defs>
<clipPath id="clip0_27_1668">
<rect width="72" height="32" rx="5" fill="white"/>
</clipPath>
</defs>
</svg>
