<svg width="72" height="32" viewBox="0 0 72 32" fill="none" xmlns="http://www.w3.org/2000/svg">
<g clip-path="url(#clip0_27_1698)">
<path d="M15.0002 24.9425V28.41C15.0006 28.4808 14.9861 28.5509 14.9574 28.6156C14.9288 28.6804 14.8867 28.7383 14.834 28.7856C14.7813 28.8328 14.7192 28.8684 14.6517 28.8898C14.5842 28.9113 14.513 28.9181 14.4427 28.91C11.5552 28.5569 8.86898 27.2476 6.81203 25.1907C4.75507 23.1337 3.44574 20.4475 3.09267 17.56C3.08453 17.4897 3.09141 17.4184 3.11287 17.351C3.13432 17.2835 3.16986 17.2214 3.21713 17.1687C3.2644 17.116 3.32232 17.0739 3.38706 17.0452C3.4518 17.0166 3.52188 17.002 3.59267 17.0025H7.05767C7.28774 19.0294 8.19855 20.9184 9.64124 22.3606C11.0839 23.8029 12.9732 24.7131 15.0002 24.9425ZM22.9277 17H17.0002V22.9275C18.4947 22.7094 19.8789 22.0147 20.9469 20.9467C22.0149 19.8787 22.7096 18.4945 22.9277 17ZM17.0002 9.07251V15H22.9277C22.7096 13.5055 22.0149 12.1213 20.9469 11.0533C19.8789 9.9853 18.4947 9.29059 17.0002 9.07251ZM28.4102 17H24.9427C24.7131 19.0274 23.8026 20.9169 22.3598 22.3597C20.9171 23.8024 19.0276 24.713 17.0002 24.9425V28.41C16.9997 28.4808 17.0143 28.5509 17.0429 28.6156C17.0716 28.6804 17.1136 28.7383 17.1663 28.7856C17.219 28.8328 17.2812 28.8684 17.3486 28.8898C17.4161 28.9113 17.4874 28.9181 17.5577 28.91C20.4451 28.5569 23.1314 27.2476 25.1883 25.1907C27.2453 23.1337 28.5546 20.4475 28.9077 17.56C28.9162 17.4897 28.9096 17.4184 28.8885 17.3508C28.8674 17.2832 28.8321 17.2209 28.7851 17.1679C28.738 17.115 28.6803 17.0726 28.6157 17.0437C28.551 17.0147 28.481 16.9998 28.4102 17ZM24.9427 15H28.4102C28.481 15.0005 28.5511 14.9859 28.6158 14.9573C28.6805 14.9286 28.7385 14.8866 28.7857 14.8339C28.833 14.7812 28.8685 14.719 28.89 14.6515C28.9114 14.5841 28.9183 14.5128 28.9102 14.4425C28.5571 11.555 27.2478 8.86881 25.1908 6.81186C23.1339 4.7549 20.4476 3.44558 17.5602 3.09251C17.4899 3.08436 17.4186 3.09125 17.3511 3.1127C17.2837 3.13416 17.2215 3.16969 17.1688 3.21696C17.1161 3.26423 17.0741 3.32215 17.0454 3.38689C17.0168 3.45163 17.0022 3.52171 17.0027 3.59251V7.05751C19.0296 7.28757 20.9186 8.19838 22.3608 9.64107C23.803 11.0838 24.7132 12.973 24.9427 15ZM14.4427 3.09251C11.5552 3.44558 8.86898 4.7549 6.81203 6.81186C4.75507 8.86881 3.44574 11.555 3.09267 14.4425C3.08453 14.5128 3.09141 14.5841 3.11287 14.6515C3.13432 14.719 3.16986 14.7812 3.21713 14.8339C3.2644 14.8866 3.32232 14.9286 3.38706 14.9573C3.4518 14.9859 3.52188 15.0005 3.59267 15H7.05767C7.28721 12.9726 8.19778 11.0831 9.64052 9.64035C11.0833 8.19762 12.9728 7.28704 15.0002 7.05751V3.59001C15.0003 3.51942 14.9855 3.44962 14.9567 3.38518C14.9279 3.32074 14.8857 3.26313 14.8331 3.21613C14.7804 3.16914 14.7184 3.13382 14.6511 3.11252C14.5838 3.09121 14.5128 3.08439 14.4427 3.09251ZM9.07267 15H15.0002V9.07251C13.5056 9.29059 12.1214 9.9853 11.0535 11.0533C9.98547 12.1213 9.29076 13.5055 9.07267 15ZM15.0002 22.9275V17H9.07267C9.29076 18.4945 9.98547 19.8787 11.0535 20.9467C12.1214 22.0147 13.5056 22.7094 15.0002 22.9275Z" fill="white"/>
<path d="M56 2.5C53.33 2.5 50.7199 3.29176 48.4998 4.77516C46.2797 6.25856 44.5494 8.36697 43.5276 10.8338C42.5058 13.3006 42.2385 16.015 42.7594 18.6337C43.2803 21.2525 44.5661 23.6579 46.4541 25.5459C48.3421 27.434 50.7475 28.7197 53.3663 29.2406C55.985 29.7615 58.6994 29.4942 61.1662 28.4724C63.633 27.4506 65.7414 25.7203 67.2248 23.5002C68.7082 21.2801 69.5 18.67 69.5 16C69.496 12.4208 68.0724 8.98932 65.5416 6.45844C63.0107 3.92756 59.5792 2.50397 56 2.5ZM66.3913 14.5H64.365C64.0558 12.7929 63.2328 11.2208 62.006 9.99403C60.7792 8.76725 59.2071 7.94423 57.5 7.635V5.60875C59.7417 5.93617 61.8178 6.97832 63.4198 8.58024C65.0217 10.1822 66.0638 12.2583 66.3913 14.5ZM54.5 14.5H50.71C50.9675 13.5982 51.4506 12.7769 52.1138 12.1137C52.7769 11.4506 53.5982 10.9675 54.5 10.71V14.5ZM54.5 17.5V21.29C53.5982 21.0325 52.7769 20.5494 52.1138 19.8863C51.4506 19.2231 50.9675 18.4018 50.71 17.5H54.5ZM57.5 17.5H61.29C61.0325 18.4018 60.5494 19.2231 59.8863 19.8863C59.2231 20.5494 58.4018 21.0325 57.5 21.29V17.5ZM57.5 14.5V10.71C58.4018 10.9675 59.2231 11.4506 59.8863 12.1137C60.5494 12.7769 61.0325 13.5982 61.29 14.5H57.5ZM54.5 5.60875V7.635C52.7929 7.94423 51.2208 8.76725 49.994 9.99403C48.7673 11.2208 47.9442 12.7929 47.635 14.5H45.6088C45.9362 12.2583 46.9783 10.1822 48.5802 8.58024C50.1822 6.97832 52.2583 5.93617 54.5 5.60875ZM45.6088 17.5H47.635C47.9442 19.2071 48.7673 20.7792 49.994 22.006C51.2208 23.2327 52.7929 24.0558 54.5 24.365V26.3913C52.2583 26.0638 50.1822 25.0217 48.5802 23.4198C46.9783 21.8178 45.9362 19.7417 45.6088 17.5ZM57.5 26.3913V24.365C59.2071 24.0558 60.7792 23.2327 62.006 22.006C63.2328 20.7792 64.0558 19.2071 64.365 17.5H66.3913C66.0638 19.7417 65.0217 21.8178 63.4198 23.4198C61.8178 25.0217 59.7417 26.0638 57.5 26.3913Z" fill="white"/>
</g>
<defs>
<clipPath id="clip0_27_1698">
<rect width="72" height="32" rx="5" fill="white"/>
</clipPath>
</defs>
</svg>
