<svg width="72" height="32" viewBox="0 0 72 32" fill="none" xmlns="http://www.w3.org/2000/svg">
<g clip-path="url(#clip0_27_1683)">
<path d="M27 5H5C4.46957 5 3.96086 5.21071 3.58579 5.58579C3.21071 5.96086 3 6.46957 3 7V25C3 25.5304 3.21071 26.0391 3.58579 26.4142C3.96086 26.7893 4.46957 27 5 27H27C27.5304 27 28.0391 26.7893 28.4142 26.4142C28.7893 26.0391 29 25.5304 29 25V7C29 6.46957 28.7893 5.96086 28.4142 5.58579C28.0391 5.21071 27.5304 5 27 5ZM25 24H7C6.73478 24 6.48043 23.8946 6.29289 23.7071C6.10536 23.5196 6 23.2652 6 23V9C6 8.73478 6.10536 8.48043 6.29289 8.29289C6.48043 8.10536 6.73478 8 7 8C7.26522 8 7.51957 8.10536 7.70711 8.29289C7.89464 8.48043 8 8.73478 8 9V18.5863L12.2925 14.2925C12.3854 14.1995 12.4957 14.1258 12.6171 14.0754C12.7385 14.0251 12.8686 13.9992 13 13.9992C13.1314 13.9992 13.2615 14.0251 13.3829 14.0754C13.5043 14.1258 13.6146 14.1995 13.7075 14.2925L16 16.5863L21.5863 11H18C17.7348 11 17.4804 10.8946 17.2929 10.7071C17.1054 10.5196 17 10.2652 17 10C17 9.73478 17.1054 9.48043 17.2929 9.29289C17.4804 9.10536 17.7348 9 18 9H24C24.2652 9 24.5196 9.10536 24.7071 9.29289C24.8946 9.48043 25 9.73478 25 10V16C25 16.2652 24.8946 16.5196 24.7071 16.7071C24.5196 16.8946 24.2652 17 24 17C23.7348 17 23.4804 16.8946 23.2929 16.7071C23.1054 16.5196 23 16.2652 23 16V12.4137L16.7075 18.7075C16.6146 18.8005 16.5043 18.8742 16.3829 18.9246C16.2615 18.9749 16.1314 19.0008 16 19.0008C15.8686 19.0008 15.7385 18.9749 15.6171 18.9246C15.4957 18.8742 15.3854 18.8005 15.2925 18.7075L13 16.4137L8 21.4137V22H25C25.2652 22 25.5196 22.1054 25.7071 22.2929C25.8946 22.4804 26 22.7348 26 23C26 23.2652 25.8946 23.5196 25.7071 23.7071C25.5196 23.8946 25.2652 24 25 24Z" fill="white"/>
<path d="M69.5 26C69.5 26.3978 69.342 26.7794 69.0607 27.0607C68.7794 27.342 68.3978 27.5 68 27.5H44C43.6022 27.5 43.2206 27.342 42.9393 27.0607C42.658 26.7794 42.5 26.3978 42.5 26V6C42.5 5.60218 42.658 5.22064 42.9393 4.93934C43.2206 4.65804 43.6022 4.5 44 4.5C44.3978 4.5 44.7794 4.65804 45.0607 4.93934C45.342 5.22064 45.5 5.60218 45.5 6V18.375L50.9388 12.935C51.0781 12.7952 51.2437 12.6842 51.426 12.6085C51.6083 12.5328 51.8038 12.4938 52.0013 12.4938C52.1987 12.4938 52.3942 12.5328 52.5765 12.6085C52.7588 12.6842 52.9244 12.7952 53.0638 12.935L56 15.875L61.375 10.5H60C59.6022 10.5 59.2206 10.342 58.9393 10.0607C58.658 9.77936 58.5 9.39782 58.5 9C58.5 8.60218 58.658 8.22064 58.9393 7.93934C59.2206 7.65804 59.6022 7.5 60 7.5H65C65.3978 7.5 65.7794 7.65804 66.0607 7.93934C66.342 8.22064 66.5 8.60218 66.5 9V14C66.5 14.3978 66.342 14.7794 66.0607 15.0607C65.7794 15.342 65.3978 15.5 65 15.5C64.6022 15.5 64.2206 15.342 63.9393 15.0607C63.658 14.7794 63.5 14.3978 63.5 14V12.625L57.0613 19.065C56.9219 19.2048 56.7563 19.3158 56.574 19.3915C56.3917 19.4672 56.1962 19.5062 55.9987 19.5062C55.8013 19.5062 55.6058 19.4672 55.4235 19.3915C55.2412 19.3158 55.0756 19.2048 54.9362 19.065L52 16.125L45.5 22.625V24.5H68C68.3978 24.5 68.7794 24.658 69.0607 24.9393C69.342 25.2206 69.5 25.6022 69.5 26Z" fill="white"/>
</g>
<defs>
<clipPath id="clip0_27_1683">
<rect width="72" height="32" rx="5" fill="white"/>
</clipPath>
</defs>
</svg>
