<svg width="72" height="32" viewBox="0 0 72 32" fill="none" xmlns="http://www.w3.org/2000/svg">
<g clip-path="url(#clip0_27_1703)">
<path d="M27 5H5C4.46957 5 3.96086 5.21071 3.58579 5.58579C3.21071 5.96086 3 6.46957 3 7V25C3 25.5304 3.21071 26.0391 3.58579 26.4142C3.96086 26.7893 4.46957 27 5 27H27C27.5304 27 28.0391 26.7893 28.4142 26.4142C28.7893 26.0391 29 25.5304 29 25V7C29 6.46957 28.7893 5.96086 28.4142 5.58579C28.0391 5.21071 27.5304 5 27 5ZM23.5 9C23.7967 9 24.0867 9.08797 24.3334 9.2528C24.58 9.41762 24.7723 9.65189 24.8858 9.92597C24.9993 10.2001 25.0291 10.5017 24.9712 10.7926C24.9133 11.0836 24.7704 11.3509 24.5607 11.5607C24.3509 11.7704 24.0836 11.9133 23.7926 11.9712C23.5017 12.0291 23.2001 11.9994 22.926 11.8858C22.6519 11.7723 22.4176 11.58 22.2528 11.3334C22.088 11.0867 22 10.7967 22 10.5C22 10.1022 22.158 9.72064 22.4393 9.43934C22.7206 9.15804 23.1022 9 23.5 9ZM23.5 16C23.7967 16 24.0867 16.088 24.3334 16.2528C24.58 16.4176 24.7723 16.6519 24.8858 16.926C24.9993 17.2001 25.0291 17.5017 24.9712 17.7926C24.9133 18.0836 24.7704 18.3509 24.5607 18.5607C24.3509 18.7704 24.0836 18.9133 23.7926 18.9712C23.5017 19.0291 23.2001 18.9993 22.926 18.8858C22.6519 18.7723 22.4176 18.58 22.2528 18.3334C22.088 18.0867 22 17.7967 22 17.5C22 17.1022 22.158 16.7206 22.4393 16.4393C22.7206 16.158 23.1022 16 23.5 16ZM18.5 14C18.7967 14 19.0867 14.088 19.3334 14.2528C19.58 14.4176 19.7723 14.6519 19.8858 14.926C19.9993 15.2001 20.0291 15.5017 19.9712 15.7926C19.9133 16.0836 19.7704 16.3509 19.5607 16.5607C19.3509 16.7704 19.0836 16.9133 18.7926 16.9712C18.5017 17.0291 18.2001 16.9993 17.926 16.8858C17.6519 16.7723 17.4176 16.58 17.2528 16.3334C17.088 16.0867 17 15.7967 17 15.5C17 15.1022 17.158 14.7206 17.4393 14.4393C17.7206 14.158 18.1022 14 18.5 14ZM15.5 9C15.7967 9 16.0867 9.08797 16.3334 9.2528C16.58 9.41762 16.7723 9.65189 16.8858 9.92597C16.9993 10.2001 17.0291 10.5017 16.9712 10.7926C16.9133 11.0836 16.7704 11.3509 16.5607 11.5607C16.3509 11.7704 16.0836 11.9133 15.7926 11.9712C15.5017 12.0291 15.2001 11.9994 14.926 11.8858C14.6519 11.7723 14.4176 11.58 14.2528 11.3334C14.088 11.0867 14 10.7967 14 10.5C14 10.1022 14.158 9.72064 14.4393 9.43934C14.7206 9.15804 15.1022 9 15.5 9ZM12.5 16C12.7967 16 13.0867 16.088 13.3334 16.2528C13.58 16.4176 13.7723 16.6519 13.8858 16.926C13.9994 17.2001 14.0291 17.5017 13.9712 17.7926C13.9133 18.0836 13.7704 18.3509 13.5607 18.5607C13.3509 18.7704 13.0836 18.9133 12.7926 18.9712C12.5017 19.0291 12.2001 18.9993 11.926 18.8858C11.6519 18.7723 11.4176 18.58 11.2528 18.3334C11.088 18.0867 11 17.7967 11 17.5C11 17.1022 11.158 16.7206 11.4393 16.4393C11.7206 16.158 12.1022 16 12.5 16ZM25 24H7C6.73478 24 6.48043 23.8946 6.29289 23.7071C6.10536 23.5196 6 23.2652 6 23V9C6 8.73478 6.10536 8.48043 6.29289 8.29289C6.48043 8.10536 6.73478 8 7 8C7.26522 8 7.51957 8.10536 7.70711 8.29289C7.89464 8.48043 8 8.73478 8 9V22H25C25.2652 22 25.5196 22.1054 25.7071 22.2929C25.8946 22.4804 26 22.7348 26 23C26 23.2652 25.8946 23.5196 25.7071 23.7071C25.5196 23.8946 25.2652 24 25 24Z" fill="white"/>
<path d="M69.5 26C69.5 26.3978 69.342 26.7794 69.0607 27.0607C68.7794 27.342 68.3978 27.5 68 27.5H44C43.6022 27.5 43.2206 27.342 42.9393 27.0607C42.658 26.7794 42.5 26.3978 42.5 26V6C42.5 5.60218 42.658 5.22064 42.9393 4.93934C43.2206 4.65804 43.6022 4.5 44 4.5C44.3978 4.5 44.7794 4.65804 45.0607 4.93934C45.342 5.22064 45.5 5.60218 45.5 6V24.5H68C68.3978 24.5 68.7794 24.658 69.0607 24.9393C69.342 25.2206 69.5 25.6022 69.5 26ZM54.5 18.5C54.5 18.8956 54.6173 19.2822 54.8371 19.6111C55.0568 19.94 55.3692 20.1964 55.7346 20.3478C56.1001 20.4991 56.5022 20.5387 56.8902 20.4616C57.2781 20.3844 57.6345 20.1939 57.9142 19.9142C58.1939 19.6345 58.3844 19.2781 58.4616 18.8902C58.5387 18.5022 58.4991 18.1001 58.3478 17.7346C58.1964 17.3692 57.94 17.0568 57.6111 16.8371C57.2822 16.6173 56.8956 16.5 56.5 16.5C55.9696 16.5 55.4609 16.7107 55.0858 17.0858C54.7107 17.4609 54.5 17.9696 54.5 18.5ZM53.5 13.5C53.8956 13.5 54.2822 13.3827 54.6111 13.1629C54.94 12.9432 55.1964 12.6308 55.3478 12.2654C55.4991 11.8999 55.5387 11.4978 55.4616 11.1098C55.3844 10.7219 55.1939 10.3655 54.9142 10.0858C54.6345 9.80608 54.2781 9.6156 53.8902 9.53843C53.5022 9.46126 53.1001 9.50087 52.7346 9.65224C52.3692 9.80362 52.0568 10.06 51.8371 10.3889C51.6173 10.7178 51.5 11.1044 51.5 11.5C51.5 12.0304 51.7107 12.5391 52.0858 12.9142C52.4609 13.2893 52.9696 13.5 53.5 13.5ZM49.5 22.5C49.8956 22.5 50.2822 22.3827 50.6111 22.1629C50.94 21.9432 51.1964 21.6308 51.3478 21.2654C51.4991 20.8999 51.5387 20.4978 51.4616 20.1098C51.3844 19.7219 51.1939 19.3655 50.9142 19.0858C50.6345 18.8061 50.2781 18.6156 49.8902 18.5384C49.5022 18.4613 49.1001 18.5009 48.7346 18.6522C48.3692 18.8036 48.0568 19.06 47.8371 19.3889C47.6173 19.7178 47.5 20.1044 47.5 20.5C47.5 21.0304 47.7107 21.5391 48.0858 21.9142C48.4609 22.2893 48.9696 22.5 49.5 22.5ZM61.5 16.5C61.8956 16.5 62.2822 16.3827 62.6111 16.1629C62.94 15.9432 63.1964 15.6308 63.3478 15.2654C63.4991 14.8999 63.5387 14.4978 63.4616 14.1098C63.3844 13.7219 63.1939 13.3655 62.9142 13.0858C62.6345 12.8061 62.2781 12.6156 61.8902 12.5384C61.5022 12.4613 61.1001 12.5009 60.7346 12.6522C60.3692 12.8036 60.0568 13.06 59.8371 13.3889C59.6173 13.7178 59.5 14.1044 59.5 14.5C59.5 15.0304 59.7107 15.5391 60.0858 15.9142C60.4609 16.2893 60.9696 16.5 61.5 16.5ZM64.5 11.5C64.8956 11.5 65.2822 11.3827 65.6111 11.1629C65.94 10.9432 66.1964 10.6308 66.3478 10.2654C66.4991 9.89991 66.5387 9.49778 66.4616 9.10982C66.3844 8.72186 66.1939 8.36549 65.9142 8.08579C65.6345 7.80608 65.2781 7.6156 64.8902 7.53843C64.5022 7.46126 64.1001 7.50087 63.7346 7.65224C63.3692 7.80362 63.0568 8.05996 62.8371 8.38886C62.6173 8.71776 62.5 9.10444 62.5 9.5C62.5 10.0304 62.7107 10.5391 63.0858 10.9142C63.4609 11.2893 63.9696 11.5 64.5 11.5ZM61.5 20.5C61.5 20.8956 61.6173 21.2822 61.8371 21.6111C62.0568 21.94 62.3692 22.1964 62.7346 22.3478C63.1001 22.4991 63.5022 22.5387 63.8902 22.4616C64.2781 22.3844 64.6345 22.1939 64.9142 21.9142C65.1939 21.6345 65.3844 21.2781 65.4616 20.8902C65.5387 20.5022 65.4991 20.1001 65.3478 19.7346C65.1964 19.3692 64.94 19.0568 64.6111 18.8371C64.2822 18.6173 63.8956 18.5 63.5 18.5C62.9696 18.5 62.4609 18.7107 62.0858 19.0858C61.7107 19.4609 61.5 19.9696 61.5 20.5Z" fill="white"/>
</g>
<defs>
<clipPath id="clip0_27_1703">
<rect width="72" height="32" rx="5" fill="white"/>
</clipPath>
</defs>
</svg>
