<svg width="72" height="32" viewBox="0 0 72 32" fill="none" xmlns="http://www.w3.org/2000/svg">
<g clip-path="url(#clip0_27_1678)">
<path d="M27 5H5C4.46957 5 3.96086 5.21071 3.58579 5.58579C3.21071 5.96086 3 6.46957 3 7V25C3 25.5304 3.21071 26.0391 3.58579 26.4142C3.96086 26.7893 4.46957 27 5 27H27C27.5304 27 28.0391 26.7893 28.4142 26.4142C28.7893 26.0391 29 25.5304 29 25V7C29 6.46957 28.7893 5.96086 28.4142 5.58579C28.0391 5.21071 27.5304 5 27 5ZM25 24H7C6.73478 24 6.48043 23.8946 6.29289 23.7071C6.10536 23.5196 6 23.2652 6 23V9C6 8.73478 6.10536 8.48043 6.29289 8.29289C6.48043 8.10536 6.73478 8 7 8C7.26522 8 7.51957 8.10536 7.70711 8.29289C7.89464 8.48043 8 8.73478 8 9V11.5863L12 15.5863L16.2925 11.2925C16.3854 11.1995 16.4957 11.1258 16.6171 11.0754C16.7385 11.0251 16.8686 10.9992 17 10.9992C17.1314 10.9992 17.2615 11.0251 17.3829 11.0754C17.5043 11.1258 17.6146 11.1995 17.7075 11.2925L22 15.5863V13C22 12.7348 22.1054 12.4804 22.2929 12.2929C22.4804 12.1054 22.7348 12 23 12C23.2652 12 23.5196 12.1054 23.7071 12.2929C23.8946 12.4804 24 12.7348 24 13V18C24 18.2652 23.8946 18.5196 23.7071 18.7071C23.5196 18.8946 23.2652 19 23 19H18C17.7348 19 17.4804 18.8946 17.2929 18.7071C17.1054 18.5196 17 18.2652 17 18C17 17.7348 17.1054 17.4804 17.2929 17.2929C17.4804 17.1054 17.7348 17 18 17H20.5863L17 13.4137L12.7075 17.7075C12.6146 17.8005 12.5043 17.8742 12.3829 17.9246C12.2615 17.9749 12.1314 18.0008 12 18.0008C11.8686 18.0008 11.7385 17.9749 11.6171 17.9246C11.4957 17.8742 11.3854 17.8005 11.2925 17.7075L8 14.4137V22H25C25.2652 22 25.5196 22.1054 25.7071 22.2929C25.8946 22.4804 26 22.7348 26 23C26 23.2652 25.8946 23.5196 25.7071 23.7071C25.5196 23.8946 25.2652 24 25 24Z" fill="white"/>
<path d="M69.5 26C69.5 26.3978 69.342 26.7794 69.0607 27.0607C68.7794 27.342 68.3978 27.5 68 27.5H44C43.6022 27.5 43.2206 27.342 42.9393 27.0607C42.658 26.7794 42.5 26.3978 42.5 26V6C42.5 5.60218 42.658 5.22064 42.9393 4.93934C43.2206 4.65804 43.6022 4.5 44 4.5C44.3978 4.5 44.7794 4.65804 45.0607 4.93934C45.342 5.22064 45.5 5.60218 45.5 6V7.375L52 13.875L54.9388 10.935C55.0781 10.7952 55.2437 10.6842 55.426 10.6085C55.6083 10.5328 55.8038 10.4938 56.0012 10.4938C56.1987 10.4938 56.3941 10.5328 56.5765 10.6085C56.7588 10.6842 56.9244 10.7952 57.0637 10.935L63.5 17.375V16C63.5 15.6022 63.658 15.2206 63.9393 14.9393C64.2206 14.658 64.6022 14.5 65 14.5C65.3978 14.5 65.7794 14.658 66.0607 14.9393C66.342 15.2206 66.5 15.6022 66.5 16V21C66.5 21.05 66.4975 21.1 66.4925 21.15C66.4925 21.17 66.4862 21.1912 66.4837 21.2113C66.4812 21.2313 66.4762 21.2675 66.4713 21.295C66.4663 21.3225 66.46 21.3425 66.4538 21.365C66.4475 21.3875 66.4425 21.4137 66.435 21.4375L66.4112 21.505C66.4025 21.5287 66.395 21.5525 66.385 21.575C66.375 21.5975 66.3663 21.6175 66.3563 21.6375C66.3463 21.6575 66.335 21.685 66.3225 21.7087C66.31 21.7325 66.3 21.7463 66.2887 21.765C66.2775 21.7837 66.2625 21.8125 66.2475 21.835C66.2325 21.8575 66.2175 21.875 66.2025 21.8937C66.1875 21.9125 66.175 21.9338 66.16 21.9525C66.145 21.9712 66.1025 22.0187 66.0713 22.05L66.0613 22.0625L66.0487 22.0725C66.0175 22.1038 65.985 22.1325 65.9513 22.1612L65.8937 22.2038C65.8737 22.2188 65.8538 22.235 65.8337 22.2488C65.8137 22.2625 65.7875 22.2763 65.765 22.29C65.7425 22.3038 65.7275 22.3137 65.7075 22.3237C65.6875 22.3337 65.6613 22.3463 65.6375 22.3575C65.6138 22.3687 65.5962 22.3775 65.5737 22.3862L65.5063 22.4125L65.435 22.4363C65.4124 22.4434 65.3895 22.4492 65.3662 22.4538L65.2938 22.4725L65.2138 22.4837L65.1475 22.4937C65.0985 22.4984 65.0492 22.5004 65 22.5H60C59.6022 22.5 59.2206 22.342 58.9393 22.0607C58.658 21.7794 58.5 21.3978 58.5 21C58.5 20.6022 58.658 20.2206 58.9393 19.9393C59.2206 19.658 59.6022 19.5 60 19.5H61.375L56 14.125L53.0612 17.065C52.9219 17.2048 52.7563 17.3158 52.574 17.3915C52.3917 17.4672 52.1962 17.5062 51.9987 17.5062C51.8013 17.5062 51.6058 17.4672 51.4235 17.3915C51.2412 17.3158 51.0756 17.2048 50.9362 17.065L45.5 11.625V24.5H68C68.3978 24.5 68.7794 24.658 69.0607 24.9393C69.342 25.2206 69.5 25.6022 69.5 26Z" fill="white"/>
</g>
<defs>
<clipPath id="clip0_27_1678">
<rect width="72" height="32" rx="5" fill="white"/>
</clipPath>
</defs>
</svg>
