<svg width="72" height="32" viewBox="0 0 72 32" fill="none" xmlns="http://www.w3.org/2000/svg">
<g clip-path="url(#clip0_27_1673)">
<path d="M27 5H5C4.46957 5 3.96086 5.21071 3.58579 5.58579C3.21071 5.96086 3 6.46957 3 7V25C3 25.5304 3.21071 26.0391 3.58579 26.4142C3.96086 26.7893 4.46957 27 5 27H27C27.5304 27 28.0391 26.7893 28.4142 26.4142C28.7893 26.0391 29 25.5304 29 25V7C29 6.46957 28.7893 5.96086 28.4142 5.58579C28.0391 5.21071 27.5304 5 27 5ZM25 22C25.2652 22 25.5196 22.1054 25.7071 22.2929C25.8946 22.4804 26 22.7348 26 23C26 23.2652 25.8946 23.5196 25.7071 23.7071C25.5196 23.8946 25.2652 24 25 24H7C6.73478 24 6.48043 23.8946 6.29289 23.7071C6.10536 23.5196 6 23.2652 6 23V9C6 8.73478 6.10536 8.48043 6.29289 8.29289C6.48043 8.10536 6.73478 8 7 8C7.26522 8 7.51957 8.10536 7.70711 8.29289C7.89464 8.48043 8 8.73478 8 9V16.865L12.36 13.2312C12.5257 13.0932 12.7316 13.0124 12.9469 13.0009C13.1623 12.9894 13.3756 13.0478 13.555 13.1675L18.93 16.7537L24.3563 12.2312C24.5601 12.0615 24.8231 11.9797 25.0873 12.0039C25.3515 12.028 25.5953 12.1561 25.765 12.36C25.9347 12.5639 26.0165 12.8268 25.9924 13.091C25.9682 13.3552 25.8401 13.599 25.6362 13.7688L19.6362 18.7687C19.4706 18.9068 19.2647 18.9876 19.0493 18.9991C18.834 19.0106 18.6207 18.9522 18.4412 18.8325L13.0662 15.2463L8 19.4688V22H25Z" fill="white"/>
<path d="M69.5 26C69.5 26.3978 69.342 26.7794 69.0607 27.0607C68.7794 27.342 68.3978 27.5 68 27.5H44C43.6022 27.5 43.2206 27.342 42.9393 27.0607C42.658 26.7794 42.5 26.3978 42.5 26V6C42.5 5.60218 42.658 5.22064 42.9393 4.93934C43.2206 4.65804 43.6022 4.5 44 4.5C44.3978 4.5 44.7794 4.65804 45.0607 4.93934C45.342 5.22064 45.5 5.60218 45.5 6V16.6938L51.0125 11.875C51.2713 11.6486 51.6 11.5179 51.9436 11.505C52.2872 11.492 52.6249 11.5975 52.9 11.8038L59.9275 17.0737L67.0125 10.875C67.1576 10.7301 67.331 10.6166 67.5217 10.5413C67.7125 10.4661 67.9166 10.4307 68.1216 10.4375C68.3266 10.4442 68.528 10.493 68.7134 10.5806C68.8987 10.6683 69.0642 10.793 69.1995 10.9471C69.3348 11.1013 69.437 11.2815 69.4999 11.4767C69.5628 11.6719 69.585 11.8779 69.5651 12.082C69.5452 12.2861 69.4837 12.4839 69.3844 12.6633C69.285 12.8427 69.15 12.9999 68.9875 13.125L60.9875 20.125C60.7287 20.3514 60.4 20.4821 60.0564 20.495C59.7128 20.508 59.3751 20.4025 59.1 20.1963L52.0725 14.93L45.5 20.6812V24.5H68C68.3978 24.5 68.7794 24.658 69.0607 24.9393C69.342 25.2206 69.5 25.6022 69.5 26Z" fill="white"/>
</g>
<defs>
<clipPath id="clip0_27_1673">
<rect width="72" height="32" rx="5" fill="white"/>
</clipPath>
</defs>
</svg>
