<svg width="72" height="32" viewBox="0 0 72 32" fill="none" xmlns="http://www.w3.org/2000/svg">
<g clip-path="url(#clip0_27_1688)">
<path d="M16 3C13.4288 3 10.9154 3.76244 8.77759 5.1909C6.63975 6.61935 4.97351 8.64968 3.98957 11.0251C3.00563 13.4006 2.74819 16.0144 3.2498 18.5362C3.75141 21.0579 4.98953 23.3743 6.80762 25.1924C8.6257 27.0105 10.9421 28.2486 13.4638 28.7502C15.9856 29.2518 18.5995 28.9944 20.9749 28.0104C23.3503 27.0265 25.3807 25.3603 26.8091 23.2224C28.2376 21.0846 29 18.5712 29 16C28.9964 12.5533 27.6256 9.24882 25.1884 6.81163C22.7512 4.37445 19.4467 3.00364 16 3ZM16 5C17.761 5.00072 19.4961 5.42423 21.0594 6.23493C22.6227 7.04562 23.9686 8.2198 24.9838 9.65875L16 14.845V5ZM16 27C14.239 26.9993 12.5039 26.5758 10.9406 25.7651C9.37726 24.9544 8.03144 23.7802 7.01626 22.3412L25.9863 11.39C26.7598 13.0659 27.0992 14.9096 26.9732 16.7512C26.8471 18.5927 26.2597 20.3729 25.265 21.9278C24.2702 23.4827 22.9002 24.7623 21.2811 25.6487C19.662 26.5351 17.8459 26.9998 16 27Z" fill="white"/>
<path d="M56 2.5C53.33 2.5 50.7199 3.29176 48.4998 4.77516C46.2797 6.25856 44.5494 8.36697 43.5276 10.8338C42.5058 13.3006 42.2385 16.015 42.7594 18.6337C43.2803 21.2525 44.5661 23.6579 46.4541 25.5459C48.3421 27.434 50.7475 28.7197 53.3663 29.2406C55.985 29.7615 58.6994 29.4942 61.1662 28.4724C63.633 27.4506 65.7414 25.7203 67.2248 23.5002C68.7082 21.2801 69.5 18.67 69.5 16C69.496 12.4208 68.0724 8.98932 65.5416 6.45844C63.0107 3.92756 59.5792 2.50397 56 2.5ZM57.5 5.60875C60.1671 5.99438 62.5838 7.39072 64.25 9.50875L57.5 13.4025V5.60875ZM46.25 19.8962C45.6593 18.4214 45.4112 16.8317 45.5244 15.247C45.6377 13.6623 46.1093 12.124 46.9038 10.7481C47.6982 9.37225 48.7947 8.19478 50.1106 7.3045C51.4265 6.41423 52.9274 5.8344 54.5 5.60875V15.1337L46.25 19.8962ZM56 26.5C54.412 26.4997 52.8449 26.1387 51.4168 25.4443C49.9888 24.7498 48.7371 23.7401 47.7563 22.4912L65.75 12.1038C66.3866 13.6968 66.6232 15.4216 66.439 17.1273C66.2548 18.833 65.6555 20.4675 64.6935 21.888C63.7314 23.3084 62.436 24.4715 60.9205 25.2755C59.405 26.0795 57.7156 26.4999 56 26.5Z" fill="white"/>
</g>
<defs>
<clipPath id="clip0_27_1688">
<rect width="72" height="32" rx="5" fill="white"/>
</clipPath>
</defs>
</svg>
