<svg width="72" height="32" viewBox="0 0 72 32" fill="none" xmlns="http://www.w3.org/2000/svg">
<g clip-path="url(#clip0_27_440)">
<path d="M29 7V23C29 23.5304 28.7893 24.0391 28.4142 24.4142C28.0391 24.7893 27.5304 25 27 25H19.4463L17.7362 27.9925C17.5613 28.2985 17.3086 28.5529 17.0036 28.7297C16.6987 28.9066 16.3525 28.9998 16 28.9998C15.6475 28.9998 15.3013 28.9066 14.9964 28.7297C14.6914 28.5529 14.4387 28.2985 14.2638 27.9925L12.5538 25H5C4.46957 25 3.96086 24.7893 3.58579 24.4142C3.21071 24.0391 3 23.5304 3 23V7C3 6.46957 3.21071 5.96086 3.58579 5.58579C3.96086 5.21071 4.46957 5 5 5H27C27.5304 5 28.0391 5.21071 28.4142 5.58579C28.7893 5.96086 29 6.46957 29 7Z" fill="white"/>
<path d="M67 4.5H45C44.337 4.5 43.7011 4.76339 43.2322 5.23223C42.7634 5.70107 42.5 6.33696 42.5 7V23C42.5 23.663 42.7634 24.2989 43.2322 24.7678C43.7011 25.2366 44.337 25.5 45 25.5H52.2638L53.8287 28.24C54.0473 28.623 54.3633 28.9413 54.7446 29.1627C55.1259 29.3841 55.5591 29.5008 56 29.5008C56.4409 29.5008 56.8741 29.3841 57.2554 29.1627C57.6367 28.9413 57.9527 28.623 58.1712 28.24L59.7362 25.5H67C67.663 25.5 68.2989 25.2366 68.7678 24.7678C69.2366 24.2989 69.5 23.663 69.5 23V7C69.5 6.33696 69.2366 5.70107 68.7678 5.23223C68.2989 4.76339 67.663 4.5 67 4.5ZM66.5 22.5H58.8662C58.6017 22.5 58.3419 22.57 58.1132 22.7028C57.8845 22.8356 57.6949 23.0265 57.5637 23.2563L56 25.9925L54.4362 23.2563C54.3051 23.0265 54.1155 22.8356 53.8868 22.7028C53.6581 22.57 53.3983 22.5 53.1337 22.5H45.5V7.5H66.5V22.5Z" fill="white"/>
</g>
<defs>
<clipPath id="clip0_27_440">
<rect width="72" height="32" rx="5" fill="white"/>
</clipPath>
</defs>
</svg>
