<svg width="72" height="32" viewBox="0 0 72 32" fill="none" xmlns="http://www.w3.org/2000/svg">
<g clip-path="url(#clip0_27_490)">
<path d="M29 15.5C28.9964 18.8141 27.6782 21.9914 25.3348 24.3348C22.9914 26.6782 19.8141 27.9964 16.5 28H6C5.46957 28 4.96086 27.7893 4.58579 27.4142C4.21071 27.0391 4 26.5304 4 26V15.5C4 12.1848 5.31696 9.00537 7.66117 6.66116C10.0054 4.31696 13.1848 3 16.5 3C19.8152 3 22.9946 4.31696 25.3388 6.66116C27.683 9.00537 29 12.1848 29 15.5Z" fill="white"/>
<path d="M56.5 2.5C53.0533 2.50364 49.7488 3.87445 47.3116 6.31163C44.8744 8.74882 43.5036 12.0533 43.5 15.5V26C43.5 26.663 43.7634 27.2989 44.2322 27.7678C44.7011 28.2366 45.337 28.5 46 28.5H56.5C59.9478 28.5 63.2544 27.1304 65.6924 24.6924C68.1304 22.2544 69.5 18.9478 69.5 15.5C69.5 12.0522 68.1304 8.74558 65.6924 6.30761C63.2544 3.86964 59.9478 2.5 56.5 2.5ZM56.5 25.5H46.5V15.5C46.5 13.5222 47.0865 11.5888 48.1853 9.9443C49.2841 8.29981 50.8459 7.01808 52.6732 6.2612C54.5004 5.50433 56.5111 5.30629 58.4509 5.69215C60.3907 6.078 62.1725 7.03041 63.5711 8.42893C64.9696 9.82746 65.922 11.6093 66.3079 13.5491C66.6937 15.4889 66.4957 17.4996 65.7388 19.3268C64.9819 21.1541 63.7002 22.7159 62.0557 23.8147C60.4112 24.9135 58.4778 25.5 56.5 25.5Z" fill="white"/>
</g>
<defs>
<clipPath id="clip0_27_490">
<rect width="72" height="32" rx="5" fill="white"/>
</clipPath>
</defs>
</svg>
