<svg width="72" height="32" viewBox="0 0 72 32" fill="none" xmlns="http://www.w3.org/2000/svg">
<g clip-path="url(#clip0_27_525)">
<path d="M21.1963 9.07375C20.2913 6.95494 18.6824 5.21364 16.6416 4.14422C14.6009 3.0748 12.2534 2.74287 9.99616 3.20455C7.73891 3.66623 5.71031 4.8932 4.25334 6.67802C2.79637 8.46284 2.0004 10.696 2 13V21C2 21.5304 2.21071 22.0391 2.58579 22.4142C2.96086 22.7893 3.46957 23 4 23H10.8337C11.6141 24.7821 12.8964 26.2984 14.5241 27.3638C16.1519 28.4293 18.0546 28.9978 20 29H28C28.5304 29 29.0391 28.7893 29.4142 28.4142C29.7893 28.0391 30 27.5304 30 27V19C29.9995 16.5553 29.1036 14.1955 27.4814 12.3666C25.8593 10.5376 23.6234 9.36619 21.1963 9.07375ZM28 27H20C18.5854 26.9984 17.1964 26.6225 15.974 25.9106C14.7516 25.1986 13.7394 24.1759 13.04 22.9463C14.4096 22.8041 15.7351 22.3804 16.9333 21.7017C18.1314 21.023 19.1763 20.104 20.0024 19.0023C20.8284 17.9006 21.4179 16.6401 21.7337 15.2998C22.0495 13.9595 22.0848 12.5684 21.8375 11.2137C23.5916 11.6277 25.1545 12.6218 26.273 14.035C27.3915 15.4482 28 17.1977 28 19V27Z" fill="white"/>
<path d="M61.5362 8.6125C60.5346 6.43876 58.8204 4.67246 56.6775 3.60624C54.5347 2.54002 52.092 2.23787 49.7539 2.74984C47.4159 3.26182 45.323 4.55719 43.8219 6.42135C42.3207 8.28552 41.5016 10.6066 41.5 13V21C41.5 21.663 41.7634 22.2989 42.2322 22.7678C42.7011 23.2366 43.337 23.5 44 23.5H50.5125C51.3663 25.2937 52.7104 26.809 54.3893 27.8708C56.0683 28.9326 58.0135 29.4974 60 29.5H68C68.663 29.5 69.2989 29.2366 69.7678 28.7678C70.2366 28.2989 70.5 27.663 70.5 27V19C70.5001 16.4813 69.5949 14.0465 67.9494 12.1397C66.3039 10.2328 64.0278 8.98101 61.5362 8.6125ZM44.5 13C44.5 11.5166 44.9399 10.0666 45.764 8.83322C46.5881 7.59985 47.7594 6.63856 49.1299 6.0709C50.5003 5.50325 52.0083 5.35472 53.4632 5.64411C54.918 5.9335 56.2544 6.64781 57.3033 7.6967C58.3522 8.74559 59.0665 10.082 59.3559 11.5368C59.6453 12.9917 59.4968 14.4997 58.9291 15.8701C58.3614 17.2406 57.4001 18.4119 56.1668 19.236C54.9334 20.0601 53.4834 20.5 52 20.5H44.5V13ZM67.5 26.5H60C58.8001 26.4986 57.6179 26.21 56.5523 25.6583C55.4868 25.1066 54.5687 24.3078 53.875 23.3288C56.4811 22.858 58.8127 21.419 60.402 19.3007C61.9913 17.1823 62.7207 14.5413 62.4438 11.9075C63.92 12.4163 65.2006 13.3731 66.107 14.6445C67.0134 15.9159 67.5004 17.4386 67.5 19V26.5Z" fill="white"/>
</g>
<defs>
<clipPath id="clip0_27_525">
<rect width="72" height="32" rx="5" fill="white"/>
</clipPath>
</defs>
</svg>
