<svg width="72" height="32" viewBox="0 0 72 32" fill="none" xmlns="http://www.w3.org/2000/svg">
<g clip-path="url(#clip0_27_435)">
<path d="M29 8V24C29 24.5304 28.7893 25.0391 28.4142 25.4142C28.0392 25.7893 27.5305 26 27 26H10.375L6.30004 29.52L6.28879 29.5287C5.92883 29.8339 5.47196 30.001 5.00004 30C4.70663 29.9995 4.4169 29.9346 4.15128 29.81C3.80579 29.6508 3.51348 29.3954 3.30931 29.0744C3.10515 28.7534 2.99777 28.3804 3.00003 28V8C3.00003 7.46957 3.21075 6.96086 3.58582 6.58579C3.96089 6.21071 4.4696 6 5.00004 6H27C27.5305 6 28.0392 6.21071 28.4142 6.58579C28.7893 6.96086 29 7.46957 29 8Z" fill="white"/>
<path d="M67 5.5H45C44.337 5.5 43.7011 5.76339 43.2323 6.23223C42.7634 6.70107 42.5 7.33696 42.5 8V28C42.498 28.4761 42.6333 28.9427 42.8895 29.3439C43.1458 29.7452 43.5122 30.0641 43.945 30.2625C44.2772 30.418 44.6394 30.4991 45.0063 30.5C45.5933 30.4985 46.1609 30.2895 46.6088 29.91L46.6238 29.8962L50.5588 26.5H67C67.6631 26.5 68.2989 26.2366 68.7678 25.7678C69.2366 25.2989 69.5 24.663 69.5 24V8C69.5 7.33696 69.2366 6.70107 68.7678 6.23223C68.2989 5.76339 67.6631 5.5 67 5.5ZM66.5 23.5H50C49.64 23.4994 49.2919 23.629 49.02 23.865L45.5 26.9037V8.5H66.5V23.5Z" fill="white"/>
</g>
<defs>
<clipPath id="clip0_27_435">
<rect width="72" height="32" rx="5" fill="white"/>
</clipPath>
</defs>
</svg>
