<svg width="72" height="32" viewBox="0 0 72 32" fill="none" xmlns="http://www.w3.org/2000/svg">
<g clip-path="url(#clip0_27_460)">
<path d="M29 16C29.0005 18.2444 28.4199 20.4507 27.3147 22.4042C26.2095 24.3576 24.6174 25.9917 22.6934 27.1473C20.7693 28.3029 18.5788 28.9406 16.3352 28.9985C14.0915 29.0564 11.8711 28.5324 9.89 27.4775L5.63375 28.8962C5.28136 29.0138 4.9032 29.0308 4.54166 28.9455C4.18012 28.8602 3.84948 28.6758 3.58681 28.4132C3.32414 28.1505 3.13982 27.8199 3.0545 27.4583C2.96918 27.0968 2.98623 26.7186 3.10375 26.3662L4.5225 22.11C3.59519 20.3665 3.07725 18.4347 3.008 16.4612C2.93875 14.4877 3.32001 12.5243 4.12284 10.7202C4.92567 8.91599 6.12897 7.31843 7.6414 6.04873C9.15383 4.77904 10.9356 3.87059 12.8516 3.39234C14.7675 2.91408 16.7672 2.8786 18.699 3.28858C20.6307 3.69856 22.4436 4.54322 24.0001 5.75846C25.5566 6.97369 26.8158 8.52756 27.6822 10.3021C28.5485 12.0767 28.9992 14.0253 29 16Z" fill="white"/>
<path d="M56.0001 2.5C53.6876 2.49951 51.4138 3.09303 49.3966 4.22367C47.3794 5.3543 45.6864 6.98415 44.48 8.95696C43.2736 10.9298 42.5941 13.1794 42.5068 15.4902C42.4195 17.801 42.9272 20.0955 43.9813 22.1537L42.6251 26.2075C42.4763 26.6488 42.4538 27.1229 42.5601 27.5763C42.6663 28.0297 42.8971 28.4444 43.2264 28.7737C43.5557 29.103 43.9704 29.3338 44.4238 29.44C44.8772 29.5462 45.3513 29.5237 45.7926 29.375L49.8463 28.0238C51.6639 28.9516 53.6681 29.4554 55.7084 29.4972C57.7486 29.5389 59.7718 29.1176 61.6258 28.2649C63.4798 27.4121 65.1164 26.1502 66.4124 24.5739C67.7085 22.9976 68.6303 21.148 69.1086 19.1642C69.5869 17.1803 69.6092 15.1138 69.1739 13.1201C68.7386 11.1264 67.8569 9.25731 66.5952 7.65339C65.3335 6.04947 63.7246 4.75245 61.8895 3.85986C60.0544 2.96727 58.0408 2.50233 56.0001 2.5ZM56.0001 26.5C54.1542 26.5007 52.3408 26.0148 50.7426 25.0912C50.5147 24.9591 50.256 24.8892 49.9926 24.8888C49.8311 24.8891 49.6707 24.9152 49.5176 24.9662L45.7938 26.2075L47.0351 22.4837C47.1023 22.2822 47.1259 22.0686 47.1043 21.8572C47.0828 21.6458 47.0166 21.4414 46.9101 21.2575C45.7525 19.2564 45.2878 16.9293 45.5878 14.6371C45.8879 12.3449 46.936 10.2159 48.5696 8.58016C50.2032 6.94447 52.3309 5.8936 54.6227 5.59059C56.9145 5.28758 59.2422 5.74936 61.2448 6.9043C63.2473 8.05924 64.8128 9.84277 65.6982 11.9782C66.5837 14.1136 66.7397 16.4816 66.142 18.7147C65.5443 20.9479 64.2263 22.9213 62.3926 24.329C60.5588 25.7366 58.3118 26.4998 56.0001 26.5Z" fill="white"/>
</g>
<defs>
<clipPath id="clip0_27_460">
<rect width="72" height="32" rx="5" fill="white"/>
</clipPath>
</defs>
</svg>
