<svg width="72" height="32" viewBox="0 0 72 32" fill="none" xmlns="http://www.w3.org/2000/svg">
<g clip-path="url(#clip0_27_475)">
<path d="M16 3C13.7556 2.99951 11.5493 3.58011 9.59585 4.68529C7.64239 5.79046 6.00834 7.38256 4.85274 9.30662C3.69715 11.2307 3.05938 13.4212 3.00151 15.6648C2.94365 17.9085 3.46765 20.1289 4.52253 22.11L3.10378 26.3662C2.98626 26.7186 2.96921 27.0968 3.05453 27.4583C3.13985 27.8199 3.32417 28.1505 3.58684 28.4132C3.84951 28.6759 4.18015 28.8602 4.54169 28.9455C4.90323 29.0308 5.28139 29.0138 5.63378 28.8962L9.89003 27.4775C11.6335 28.4048 13.5653 28.9228 15.5388 28.992C17.5123 29.0613 19.4757 28.68 21.2799 27.8772C23.084 27.0743 24.6816 25.871 25.9513 24.3586C27.221 22.8462 28.1294 21.0644 28.6077 19.1484C29.0859 17.2325 29.1214 15.2328 28.7114 13.301C28.3015 11.3693 27.4568 9.55642 26.2416 7.9999C25.0263 6.44337 23.4725 5.18415 21.6979 4.31782C19.9234 3.45149 17.9748 3.00081 16 3ZM20 19H12C11.7348 19 11.4805 18.8946 11.2929 18.7071C11.1054 18.5196 11 18.2652 11 18C11 17.7348 11.1054 17.4804 11.2929 17.2929C11.4805 17.1054 11.7348 17 12 17H20C20.2652 17 20.5196 17.1054 20.7071 17.2929C20.8947 17.4804 21 17.7348 21 18C21 18.2652 20.8947 18.5196 20.7071 18.7071C20.5196 18.8946 20.2652 19 20 19ZM20 15H12C11.7348 15 11.4805 14.8946 11.2929 14.7071C11.1054 14.5196 11 14.2652 11 14C11 13.7348 11.1054 13.4804 11.2929 13.2929C11.4805 13.1054 11.7348 13 12 13H20C20.2652 13 20.5196 13.1054 20.7071 13.2929C20.8947 13.4804 21 13.7348 21 14C21 14.2652 20.8947 14.5196 20.7071 14.7071C20.5196 14.8946 20.2652 15 20 15Z" fill="white"/>
<path d="M61.4999 13.5C61.4999 13.8978 61.3419 14.2794 61.0606 14.5607C60.7793 14.842 60.3978 15 59.9999 15H51.9999C51.6021 15 51.2206 14.842 50.9393 14.5607C50.658 14.2794 50.4999 13.8978 50.4999 13.5C50.4999 13.1022 50.658 12.7206 50.9393 12.4393C51.2206 12.158 51.6021 12 51.9999 12H59.9999C60.3978 12 60.7793 12.158 61.0606 12.4393C61.3419 12.7206 61.4999 13.1022 61.4999 13.5ZM59.9999 17H51.9999C51.6021 17 51.2206 17.158 50.9393 17.4393C50.658 17.7206 50.4999 18.1022 50.4999 18.5C50.4999 18.8978 50.658 19.2794 50.9393 19.5607C51.2206 19.842 51.6021 20 51.9999 20H59.9999C60.3978 20 60.7793 19.842 61.0606 19.5607C61.3419 19.2794 61.4999 18.8978 61.4999 18.5C61.4999 18.1022 61.3419 17.7206 61.0606 17.4393C60.7793 17.158 60.3978 17 59.9999 17ZM69.4999 16C69.5004 18.3125 68.9069 20.5863 67.7763 22.6035C66.6456 24.6207 65.0158 26.3136 63.043 27.5201C61.0702 28.7265 58.8205 29.4059 56.5097 29.4932C54.1989 29.5806 51.9044 29.0728 49.8462 28.0188L45.7924 29.375C45.3511 29.5237 44.8771 29.5462 44.4237 29.44C43.9703 29.3338 43.5555 29.103 43.2263 28.7737C42.897 28.4444 42.6662 28.0297 42.5599 27.5763C42.4537 27.1229 42.4762 26.6488 42.6249 26.2075L43.9762 22.1538C43.0483 20.3362 42.5445 18.332 42.5028 16.2917C42.461 14.2514 42.8823 12.2282 43.7351 10.3742C44.5878 8.52026 45.8498 6.88371 47.426 5.58766C49.0023 4.2916 50.8519 3.36977 52.8358 2.89146C54.8196 2.41316 56.8861 2.39083 58.8798 2.82616C60.8735 3.26149 62.7426 4.14314 64.3466 5.40484C65.9505 6.66653 67.2475 8.27543 68.1401 10.1106C69.0327 11.9457 69.4976 13.9593 69.4999 16ZM66.4999 16C66.4993 14.3894 66.1282 12.8006 65.4153 11.3564C64.7024 9.91218 63.6669 8.65132 62.3888 7.67136C61.1106 6.69139 59.6242 6.01859 58.0445 5.70498C56.4647 5.39138 54.834 5.44539 53.2785 5.86283C51.7229 6.28027 50.2843 7.04996 49.0738 8.11235C47.8633 9.17473 46.9134 10.5013 46.2977 11.9896C45.6819 13.4778 45.4167 15.0877 45.5227 16.6948C45.6286 18.3018 46.1029 19.863 46.9087 21.2575C47.0152 21.4414 47.0814 21.6458 47.103 21.8572C47.1245 22.0686 47.1009 22.2822 47.0337 22.4838L45.7924 26.2075L49.5162 24.9663C49.6694 24.9152 49.8297 24.8891 49.9912 24.8888C50.2546 24.8892 50.5133 24.9591 50.7412 25.0913C52.3375 26.0149 54.1489 26.5018 55.9931 26.503C57.8374 26.5042 59.6494 26.0197 61.2469 25.0981C62.8444 24.1765 64.1709 22.8504 65.0931 21.2533C66.0152 19.6561 66.5005 17.8443 66.4999 16Z" fill="white"/>
</g>
<defs>
<clipPath id="clip0_27_475">
<rect width="72" height="32" rx="5" fill="white"/>
</clipPath>
</defs>
</svg>
