<svg width="72" height="32" viewBox="0 0 72 32" fill="none" xmlns="http://www.w3.org/2000/svg">
<g clip-path="url(#clip0_27_515)">
<path d="M29 12C29 11.4696 28.7893 10.9609 28.4142 10.5858C28.0391 10.2107 27.5304 10 27 10H23V6C23 5.46957 22.7893 4.96086 22.4142 4.58579C22.0391 4.21071 21.5304 4 21 4H5C4.46957 4 3.96086 4.21071 3.58579 4.58579C3.21071 4.96086 3 5.46957 3 6V22C3.00059 22.1881 3.05423 22.3723 3.15478 22.5313C3.25532 22.6903 3.39868 22.8177 3.56839 22.8989C3.7381 22.9801 3.92728 23.0118 4.11418 22.9903C4.30108 22.9689 4.47814 22.8951 4.625 22.7775L9 19.25V23C9 23.5304 9.21071 24.0391 9.58579 24.4142C9.96086 24.7893 10.4696 25 11 25H22.6987L27.375 28.7775C27.5519 28.9206 27.7724 28.9991 28 29C28.2652 29 28.5196 28.8946 28.7071 28.7071C28.8946 28.5196 29 28.2652 29 28V12ZM23.6812 23.2225C23.5043 23.0794 23.2838 23.0009 23.0562 23H11V19H21C21.5304 19 22.0391 18.7893 22.4142 18.4142C22.7893 18.0391 23 17.5304 23 17V12H27V25.9062L23.6812 23.2225Z" fill="white"/>
<path d="M67 9.5H63.5V6C63.5 5.33696 63.2366 4.70107 62.7678 4.23223C62.2989 3.76339 61.663 3.5 61 3.5H45C44.337 3.5 43.7011 3.76339 43.2322 4.23223C42.7634 4.70107 42.5 5.33696 42.5 6V22C42.5001 22.2831 42.5804 22.5604 42.7314 22.7998C42.8825 23.0392 43.0982 23.231 43.3537 23.3529C43.6091 23.4749 43.8939 23.5221 44.1751 23.4891C44.4562 23.456 44.7223 23.3441 44.9425 23.1663L48.5 20.2913V23C48.5 23.663 48.7634 24.2989 49.2322 24.7678C49.7011 25.2366 50.337 25.5 51 25.5H62.5212L67.0575 29.1663C67.2777 29.3441 67.5438 29.456 67.8249 29.4891C68.1061 29.5221 68.3909 29.4749 68.6463 29.3529C68.9018 29.231 69.1175 29.0392 69.2686 28.7998C69.4196 28.5604 69.4999 28.2831 69.5 28V12C69.5 11.337 69.2366 10.7011 68.7678 10.2322C68.2989 9.76339 67.663 9.5 67 9.5ZM45.5 18.8587V6.5H60.5V16.5H48.9475C48.6027 16.499 48.2681 16.6169 48 16.8337L45.5 18.8587ZM66.5 24.8587L64 22.8337C63.7332 22.618 63.4006 22.5002 63.0575 22.5H51.5V19.5H61C61.663 19.5 62.2989 19.2366 62.7678 18.7678C63.2366 18.2989 63.5 17.663 63.5 17V12.5H66.5V24.8587Z" fill="white"/>
</g>
<defs>
<clipPath id="clip0_27_515">
<rect width="72" height="32" rx="5" fill="white"/>
</clipPath>
</defs>
</svg>
