<svg width="72" height="32" viewBox="0 0 72 32" fill="none" xmlns="http://www.w3.org/2000/svg">
<g clip-path="url(#clip0_27_450)">
<path d="M29 7V23C29.0001 23.2661 28.9468 23.5296 28.8433 23.7748C28.7398 24.0199 28.5882 24.2419 28.3975 24.4275C28.349 24.4724 28.2921 24.5072 28.23 24.5299C28.1679 24.5527 28.102 24.5629 28.036 24.56C27.97 24.5571 27.9052 24.5411 27.8453 24.513C27.7855 24.4849 27.7319 24.4452 27.6875 24.3962L10.815 5.83625C10.7496 5.76426 10.7066 5.67474 10.6913 5.57867C10.6759 5.4826 10.689 5.38415 10.7288 5.29539C10.7686 5.20662 10.8334 5.1314 10.9154 5.07893C10.9973 5.02646 11.0927 4.99903 11.19 5H27C27.5304 5 28.0391 5.21071 28.4142 5.58579C28.7893 5.96086 29 6.46957 29 7ZM6.74 4.3275C6.60424 4.17814 6.42647 4.07336 6.23005 4.02693C6.03363 3.9805 5.82776 3.99459 5.63949 4.06735C5.45123 4.14011 5.28939 4.26814 5.17526 4.4346C5.06112 4.60106 5.00002 4.79817 5 5C4.46957 5 3.96086 5.21071 3.58579 5.58579C3.21071 5.96086 3 6.46957 3 7V23C3 23.5304 3.21071 24.0391 3.58579 24.4142C3.96086 24.7893 4.46957 25 5 25H12.5538L14.2638 27.9925C14.4387 28.2985 14.6914 28.5529 14.9964 28.7297C15.3013 28.9066 15.6475 28.9998 16 28.9998C16.3525 28.9998 16.6987 28.9066 17.0036 28.7297C17.3086 28.5529 17.5613 28.2985 17.7362 27.9925L19.4463 25H22.83L25.26 27.6725C25.3478 27.7715 25.4544 27.8521 25.5736 27.9096C25.6928 27.9671 25.8222 28.0003 25.9543 28.0074C26.0865 28.0145 26.2187 27.9953 26.3434 27.951C26.4681 27.9066 26.5827 27.8379 26.6806 27.7489C26.7785 27.6599 26.8578 27.5524 26.9139 27.4325C26.97 27.3126 27.0017 27.1828 27.0072 27.0506C27.0127 26.9184 26.9919 26.7864 26.9461 26.6623C26.9002 26.5381 26.8302 26.4244 26.74 26.3275L6.74 4.3275Z" fill="white"/>
<path d="M47.11 3.99125C46.9331 3.79697 46.7084 3.65254 46.4581 3.57243C46.2079 3.49231 45.9411 3.47933 45.6842 3.53477C45.4274 3.5902 45.1897 3.71212 44.9948 3.88832C44.7999 4.06452 44.6547 4.28881 44.5738 4.53875C43.9936 4.63914 43.4675 4.94105 43.0881 5.3913C42.7088 5.84155 42.5005 6.41124 42.5 7V23C42.5 23.663 42.7634 24.2989 43.2322 24.7678C43.7011 25.2366 44.337 25.5 45 25.5H52.2638L53.8287 28.24C54.0474 28.6227 54.3633 28.9407 54.7445 29.162C55.1257 29.3832 55.5586 29.4997 55.9994 29.4997C56.4401 29.4997 56.873 29.3832 57.2542 29.162C57.6354 28.9407 57.9513 28.6227 58.17 28.24L59.7362 25.5H62.6112L64.8925 28.0088C65.1614 28.2977 65.5334 28.4689 65.9278 28.4854C66.3222 28.5019 66.7071 28.3622 66.9992 28.0968C67.2913 27.8313 67.467 27.4614 67.4882 27.0673C67.5094 26.6731 67.3744 26.2865 67.1125 25.9913L47.11 3.99125ZM58.8662 22.5C58.6017 22.5 58.3419 22.57 58.1132 22.7028C57.8845 22.8356 57.6949 23.0266 57.5637 23.2563L56 25.9925L54.4362 23.2563C54.3051 23.0266 54.1155 22.8356 53.8868 22.7028C53.6581 22.57 53.3983 22.5 53.1337 22.5H45.5V7.5H46.25L59.8875 22.5H58.8662ZM69.5 7V21.7675C69.5 22.1653 69.342 22.5469 69.0607 22.8282C68.7794 23.1095 68.3978 23.2675 68 23.2675C67.6022 23.2675 67.2206 23.1095 66.9393 22.8282C66.658 22.5469 66.5 22.1653 66.5 21.7675V7.5H53.6663C53.2684 7.5 52.8869 7.34197 52.6056 7.06066C52.3243 6.77936 52.1663 6.39783 52.1663 6C52.1663 5.60218 52.3243 5.22065 52.6056 4.93934C52.8869 4.65804 53.2684 4.5 53.6663 4.5H67C67.663 4.5 68.2989 4.7634 68.7678 5.23224C69.2366 5.70108 69.5 6.33696 69.5 7Z" fill="white"/>
</g>
<defs>
<clipPath id="clip0_27_450">
<rect width="72" height="32" rx="5" fill="white"/>
</clipPath>
</defs>
</svg>
