<svg width="72" height="32" viewBox="0 0 72 32" fill="none" xmlns="http://www.w3.org/2000/svg">
<g clip-path="url(#clip0_27_495)">
<path d="M16.5 3C13.1859 3.00364 10.0086 4.32177 7.66518 6.66518C5.32177 9.0086 4.00364 12.1859 4 15.5V26C4 26.5304 4.21071 27.0391 4.58579 27.4142C4.96086 27.7893 5.46957 28 6 28H16.5C19.8152 28 22.9946 26.683 25.3388 24.3388C27.683 21.9946 29 18.8152 29 15.5C29 12.1848 27.683 9.00537 25.3388 6.66117C22.9946 4.31696 19.8152 3 16.5 3ZM11 17.5C10.7033 17.5 10.4133 17.412 10.1666 17.2472C9.91997 17.0824 9.72771 16.8481 9.61418 16.574C9.50065 16.2999 9.47094 15.9983 9.52882 15.7074C9.5867 15.4164 9.72956 15.1491 9.93934 14.9393C10.1491 14.7296 10.4164 14.5867 10.7074 14.5288C10.9983 14.4709 11.2999 14.5006 11.574 14.6142C11.8481 14.7277 12.0824 14.92 12.2472 15.1666C12.412 15.4133 12.5 15.7033 12.5 16C12.5 16.3978 12.342 16.7794 12.0607 17.0607C11.7794 17.342 11.3978 17.5 11 17.5ZM16.5 17.5C16.2033 17.5 15.9133 17.412 15.6666 17.2472C15.42 17.0824 15.2277 16.8481 15.1142 16.574C15.0006 16.2999 14.9709 15.9983 15.0288 15.7074C15.0867 15.4164 15.2296 15.1491 15.4393 14.9393C15.6491 14.7296 15.9164 14.5867 16.2074 14.5288C16.4983 14.4709 16.7999 14.5006 17.074 14.6142C17.3481 14.7277 17.5824 14.92 17.7472 15.1666C17.912 15.4133 18 15.7033 18 16C18 16.3978 17.842 16.7794 17.5607 17.0607C17.2794 17.342 16.8978 17.5 16.5 17.5ZM22 17.5C21.7033 17.5 21.4133 17.412 21.1666 17.2472C20.92 17.0824 20.7277 16.8481 20.6142 16.574C20.5007 16.2999 20.4709 15.9983 20.5288 15.7074C20.5867 15.4164 20.7296 15.1491 20.9393 14.9393C21.1491 14.7296 21.4164 14.5867 21.7074 14.5288C21.9983 14.4709 22.2999 14.5006 22.574 14.6142C22.8481 14.7277 23.0824 14.92 23.2472 15.1666C23.412 15.4133 23.5 15.7033 23.5 16C23.5 16.3978 23.342 16.7794 23.0607 17.0607C22.7794 17.342 22.3978 17.5 22 17.5Z" fill="white"/>
<path d="M56.5 2.5C53.0533 2.50364 49.7488 3.87445 47.3116 6.31163C44.8744 8.74882 43.5036 12.0533 43.5 15.5V26C43.5 26.663 43.7634 27.2989 44.2322 27.7678C44.7011 28.2366 45.337 28.5 46 28.5H56.5C59.9478 28.5 63.2544 27.1304 65.6924 24.6924C68.1304 22.2544 69.5 18.9478 69.5 15.5C69.5 12.0522 68.1304 8.74558 65.6924 6.30761C63.2544 3.86964 59.9478 2.5 56.5 2.5ZM56.5 25.5H46.5V15.5C46.5 13.5222 47.0865 11.5888 48.1853 9.9443C49.2841 8.29981 50.8459 7.01808 52.6732 6.2612C54.5004 5.50433 56.5111 5.30629 58.4509 5.69215C60.3907 6.078 62.1725 7.03041 63.5711 8.42893C64.9696 9.82746 65.922 11.6093 66.3079 13.5491C66.6937 15.4889 66.4957 17.4996 65.7388 19.3268C64.9819 21.1541 63.7002 22.7159 62.0557 23.8147C60.4112 24.9135 58.4778 25.5 56.5 25.5ZM55.5 16C55.5 16.3956 55.3827 16.7822 55.1629 17.1111C54.9432 17.44 54.6308 17.6964 54.2654 17.8478C53.8999 17.9991 53.4978 18.0387 53.1098 17.9616C52.7219 17.8844 52.3655 17.6939 52.0858 17.4142C51.8061 17.1345 51.6156 16.7781 51.5384 16.3902C51.4613 16.0022 51.5009 15.6001 51.6522 15.2346C51.8036 14.8692 52.06 14.5568 52.3889 14.3371C52.7178 14.1173 53.1044 14 53.5 14C54.0304 14 54.5391 14.2107 54.9142 14.5858C55.2893 14.9609 55.5 15.4696 55.5 16ZM61.5 16C61.5 16.3956 61.3827 16.7822 61.1629 17.1111C60.9432 17.44 60.6308 17.6964 60.2654 17.8478C59.8999 17.9991 59.4978 18.0387 59.1098 17.9616C58.7219 17.8844 58.3655 17.6939 58.0858 17.4142C57.8061 17.1345 57.6156 16.7781 57.5384 16.3902C57.4613 16.0022 57.5009 15.6001 57.6522 15.2346C57.8036 14.8692 58.06 14.5568 58.3889 14.3371C58.7178 14.1173 59.1044 14 59.5 14C60.0304 14 60.5391 14.2107 60.9142 14.5858C61.2893 14.9609 61.5 15.4696 61.5 16Z" fill="white"/>
</g>
<defs>
<clipPath id="clip0_27_495">
<rect width="72" height="32" rx="5" fill="white"/>
</clipPath>
</defs>
</svg>
