<svg width="72" height="32" viewBox="0 0 72 32" fill="none" xmlns="http://www.w3.org/2000/svg">
<g clip-path="url(#clip0_27_500)">
<path d="M26.74 26.3275C26.8302 26.4244 26.9002 26.5381 26.9461 26.6623C26.9919 26.7864 27.0127 26.9184 27.0072 27.0506C27.0017 27.1828 26.97 27.3126 26.9139 27.4325C26.8578 27.5524 26.7785 27.6599 26.6806 27.7489C26.5827 27.8379 26.4681 27.9066 26.3434 27.951C26.2187 27.9953 26.0865 28.0145 25.9543 28.0074C25.8222 28.0003 25.6928 27.9671 25.5736 27.9096C25.4544 27.8521 25.3478 27.7715 25.26 27.6725L23.5638 25.8075C21.4863 27.2384 19.0226 28.0032 16.5 28H6.00001C5.46957 28 4.96086 27.7893 4.58579 27.4142C4.21072 27.0391 4.00001 26.5304 4.00001 26V15.5C3.99723 12.5705 5.02816 9.73403 6.91126 7.49L5.26001 5.6725C5.16998 5.57344 5.10075 5.45732 5.05643 5.33102C5.01211 5.20472 4.9936 5.0708 5.00199 4.93721C5.01039 4.80362 5.04551 4.67307 5.10529 4.55331C5.16507 4.43355 5.24829 4.327 5.35001 4.24C5.55597 4.07312 5.81846 3.9923 6.08263 4.01443C6.34679 4.03656 6.59218 4.15992 6.76751 4.35875L26.74 26.3275ZM26.0438 22.5887C26.0942 22.6443 26.1566 22.6878 26.2262 22.716C26.2958 22.7441 26.3709 22.7563 26.4458 22.7515C26.5207 22.7467 26.5936 22.7251 26.659 22.6882C26.7245 22.6514 26.7808 22.6003 26.8238 22.5387C28.4021 20.2173 29.1531 17.4321 28.9558 14.6319C28.7584 11.8316 27.6243 9.17929 25.7359 7.10214C23.8476 5.02498 21.315 3.64392 18.5462 3.18141C15.7774 2.71889 12.9334 3.20185 10.4725 4.5525C10.4069 4.58932 10.3505 4.64047 10.3074 4.70212C10.2643 4.76378 10.2357 4.83436 10.2237 4.9086C10.2117 4.98285 10.2166 5.05885 10.238 5.13095C10.2595 5.20304 10.2969 5.26937 10.3475 5.325L26.0438 22.5887Z" fill="white"/>
<path d="M47.11 3.99125C46.9783 3.84277 46.8184 3.7219 46.6396 3.63566C46.4609 3.54942 46.2667 3.49952 46.0685 3.48886C45.8703 3.4782 45.672 3.50698 45.485 3.57354C45.298 3.6401 45.126 3.74312 44.9791 3.87661C44.8322 4.01011 44.7133 4.17144 44.6292 4.35124C44.5451 4.53105 44.4975 4.72575 44.4892 4.92408C44.481 5.1224 44.5121 5.3204 44.5809 5.50659C44.6497 5.69278 44.7548 5.86347 44.89 6.00875L46.25 7.5C44.4617 9.78256 43.4931 12.6003 43.5 15.5V26C43.5 26.663 43.7634 27.2989 44.2323 27.7678C44.7011 28.2366 45.337 28.5 46 28.5H56.5C58.9742 28.4967 61.3964 27.7896 63.4838 26.4613L64.89 28.0088C65.159 28.2977 65.531 28.4689 65.9253 28.4854C66.3197 28.5019 66.7047 28.3622 66.9968 28.0968C67.2889 27.8313 67.4646 27.4614 67.4858 27.0673C67.507 26.6731 67.372 26.2865 67.11 25.9913L47.11 3.99125ZM56.5 25.5H46.5V15.5C46.4964 13.4484 47.1278 11.446 48.3075 9.7675L61.4325 24.2038C59.9301 25.0598 58.2293 25.5068 56.5 25.5ZM69.5 15.5C69.5056 17.4611 69.0626 19.3976 68.205 21.1613C68.0317 21.52 67.7229 21.7951 67.3466 21.9261C66.9704 22.0572 66.5575 22.0334 66.1988 21.86C65.8401 21.6866 65.5649 21.3778 65.4339 21.0016C65.3029 20.6253 65.3267 20.2125 65.5 19.8538C66.1605 18.4976 66.5025 17.0085 66.5 15.5C66.498 13.8877 66.1065 12.2998 65.3589 10.8713C64.6113 9.44286 63.5296 8.21616 62.206 7.2956C60.8823 6.37504 59.3559 5.78787 57.7565 5.58406C56.1572 5.38025 54.5322 5.56583 53.02 6.125C52.6478 6.26022 52.2372 6.24275 51.8778 6.0764C51.5184 5.91005 51.2394 5.60832 51.1016 5.23704C50.9638 4.86575 50.9784 4.45504 51.1423 4.0945C51.3062 3.73396 51.606 3.45285 51.9763 3.3125C53.9421 2.58498 56.0547 2.34328 58.1341 2.60799C60.2134 2.8727 62.198 3.63596 63.9189 4.83281C65.6398 6.02965 67.046 7.62463 68.0177 9.48193C68.9895 11.3392 69.498 13.4039 69.5 15.5Z" fill="white"/>
</g>
<defs>
<clipPath id="clip0_27_500">
<rect width="72" height="32" rx="5" fill="white"/>
</clipPath>
</defs>
</svg>
