<svg width="72" height="32" viewBox="0 0 72 32" fill="none" xmlns="http://www.w3.org/2000/svg">
<g clip-path="url(#clip0_27_470)">
<path d="M26.74 26.3275C26.8301 26.4244 26.9002 26.5382 26.9461 26.6623C26.9919 26.7864 27.0127 26.9184 27.0072 27.0506C27.0017 27.1828 26.9699 27.3126 26.9139 27.4325C26.8578 27.5524 26.7785 27.6599 26.6806 27.7489C26.5827 27.8379 26.468 27.9066 26.3434 27.951C26.2187 27.9954 26.0865 28.0145 25.9543 28.0074C25.8222 28.0003 25.6928 27.9671 25.5736 27.9096C25.4544 27.8521 25.3478 27.7715 25.26 27.6725L23.9775 26.2613C21.9971 27.8018 19.6133 28.7364 17.1136 28.9522C14.6138 29.168 12.1051 28.6558 9.88998 27.4775L5.63373 28.8963C5.28134 29.0138 4.90318 29.0308 4.54164 28.9455C4.1801 28.8602 3.84947 28.6759 3.5868 28.4132C3.32413 28.1505 3.1398 27.8199 3.05448 27.4583C2.96916 27.0968 2.98621 26.7186 3.10373 26.3663L4.52248 22.11C3.24565 19.7086 2.7537 16.9673 3.11582 14.2717C3.47793 11.5761 4.6759 9.06185 6.54123 7.08251L5.25998 5.67251C5.16982 5.57565 5.09977 5.46186 5.0539 5.33773C5.00804 5.2136 4.98727 5.0816 4.99279 4.94939C4.99831 4.81717 5.03003 4.68737 5.08609 4.5675C5.14215 4.44763 5.22144 4.34008 5.31937 4.25108C5.4173 4.16208 5.53192 4.0934 5.65659 4.04903C5.78126 4.00466 5.9135 3.98547 6.04564 3.99258C6.17778 3.99969 6.30719 4.03295 6.42638 4.09044C6.54557 4.14794 6.65216 4.22851 6.73998 4.32751L26.74 26.3275ZM16 3.00001C14.2686 2.99683 12.5543 3.34157 10.9587 4.01376C10.8115 4.07591 10.6813 4.17246 10.579 4.29531C10.4768 4.41816 10.4055 4.56373 10.371 4.71982C10.3366 4.87591 10.3402 5.03797 10.3813 5.19242C10.4224 5.34687 10.5 5.48921 10.6075 5.60751L25.8325 22.3575C25.94 22.4768 26.0747 22.5684 26.2251 22.6246C26.3755 22.6809 26.5373 22.7 26.6966 22.6806C26.856 22.6611 27.0084 22.6035 27.1408 22.5126C27.2733 22.4218 27.3819 22.3004 27.4575 22.1588C28.5232 20.1776 29.0567 17.9538 29.0056 15.7048C28.9545 13.4557 28.3206 11.2584 27.166 9.32773C26.0114 7.39702 24.3755 5.79898 22.4183 4.68985C20.4611 3.58072 18.2496 2.99846 16 3.00001Z" fill="white"/>
<path d="M47.1101 3.99124C46.9783 3.84276 46.8184 3.72189 46.6397 3.63565C46.4609 3.54941 46.2668 3.49951 46.0686 3.48885C45.8703 3.47819 45.672 3.50697 45.485 3.57353C45.298 3.64009 45.126 3.74311 44.9791 3.87661C44.8322 4.0101 44.7133 4.17143 44.6292 4.35123C44.5451 4.53104 44.4976 4.72575 44.4893 4.92407C44.481 5.12239 44.5122 5.32039 44.5809 5.50658C44.6497 5.69277 44.7548 5.86346 44.8901 6.00874L45.8663 7.08249C44.0764 9.11557 42.9394 11.6401 42.6033 14.3279C42.2671 17.0157 42.7472 19.7424 43.9813 22.1537L42.6251 26.2075C42.4763 26.6488 42.4538 27.1229 42.5601 27.5763C42.6663 28.0297 42.8971 28.4444 43.2264 28.7737C43.5557 29.103 43.9704 29.3337 44.4238 29.44C44.8772 29.5462 45.3513 29.5237 45.7926 29.375L49.8463 28.0237C52.0633 29.1573 54.5505 29.6562 57.0332 29.4651C59.5159 29.2741 61.8975 28.4007 63.9151 26.9412L64.8901 28.0137C65.159 28.3026 65.531 28.4739 65.9254 28.4904C66.3197 28.5069 66.7047 28.3672 66.9968 28.1018C67.2889 27.8363 67.4646 27.4664 67.4858 27.0723C67.507 26.6781 67.372 26.2915 67.1101 25.9962L47.1101 3.99124ZM56.0001 26.5C54.1567 26.4999 52.3459 26.014 50.7501 25.0912C50.566 24.9846 50.3614 24.9182 50.1498 24.8967C49.9381 24.8751 49.7243 24.8988 49.5226 24.9662L45.7988 26.2075L47.0401 22.4837C47.1075 22.282 47.1312 22.0682 47.1096 21.8565C47.0881 21.6449 47.0218 21.4403 46.9151 21.2562C45.844 19.4027 45.3651 17.2661 45.5425 15.1327C45.7198 12.9994 46.5451 10.9712 47.9076 9.31999L61.8876 24.695C60.1501 25.8727 58.0991 26.5016 56.0001 26.5ZM69.5001 16C69.5036 17.8218 69.1357 19.6252 68.4188 21.3C68.255 21.6537 67.96 21.9297 67.5962 22.0696C67.2325 22.2096 66.8285 22.2024 66.4699 22.0497C66.1113 21.897 65.8263 21.6107 65.6751 21.2514C65.5239 20.8921 65.5185 20.4882 65.6601 20.125C66.4453 18.2754 66.6839 16.2394 66.3473 14.2583C66.0108 12.2773 65.1134 10.4342 63.7614 8.94765C62.4094 7.46108 60.6595 6.39329 58.7192 5.87085C56.7789 5.34842 54.7294 5.39323 52.8138 5.99999C52.4365 6.11422 52.0294 6.0753 51.6805 5.89167C51.3317 5.70804 51.0691 5.39446 50.9497 5.01875C50.8303 4.64305 50.8635 4.23543 51.0423 3.88407C51.2211 3.53271 51.531 3.26586 51.9051 3.14124C53.9282 2.49948 56.074 2.3434 58.1687 2.68567C60.2634 3.02794 62.2479 3.85891 63.9616 5.11125C65.6752 6.36359 67.0696 8.00206 68.0319 9.89385C68.9941 11.7856 69.4971 13.8775 69.5001 16Z" fill="white"/>
</g>
<defs>
<clipPath id="clip0_27_470">
<rect width="72" height="32" rx="5" fill="white"/>
</clipPath>
</defs>
</svg>
