<svg width="72" height="32" viewBox="0 0 72 32" fill="none" xmlns="http://www.w3.org/2000/svg">
<g clip-path="url(#clip0_27_4600)">
<path d="M26 4H6C5.46957 4 4.96086 4.21071 4.58579 4.58579C4.21071 4.96086 4 5.46957 4 6V26C4 26.5304 4.21071 27.0391 4.58579 27.4142C4.96086 27.7893 5.46957 28 6 28H26C26.5304 28 27.0391 27.7893 27.4142 27.4142C27.7893 27.0391 28 26.5304 28 26V6C28 5.46957 27.7893 4.96086 27.4142 4.58579C27.0391 4.21071 26.5304 4 26 4ZM26 26H16V16H6V6H16V16H26V26Z" fill="white"/>
<path d="M68.5 6C68.5 5.33696 68.2366 4.70107 67.7678 4.23223C67.2989 3.76339 66.663 3.5 66 3.5H46C45.337 3.5 44.7011 3.76339 44.2322 4.23223C43.7634 4.70107 43.5 5.33696 43.5 6V26C43.5 26.663 43.7634 27.2989 44.2322 27.7678C44.7011 28.2366 45.337 28.5 46 28.5H66C66.663 28.5 67.2989 28.2366 67.7678 27.7678C68.2366 27.2989 68.5 26.663 68.5 26V6ZM64.125 14.5L57.5 7.875V6.5H58.875L65.5 13.125V14.5H64.125ZM57.5 12.125L59.875 14.5H57.5V12.125ZM65.5 8.875L63.125 6.5H65.5V8.875ZM54.5 6.5V8.5V14.5H46.5V6.5H54.5ZM53.125 25.5L46.5 18.875V17.5H47.875L54.5 24.125V25.5H53.125ZM54.5 19.875L52.125 17.5H54.5V19.875ZM46.5 23.125L48.875 25.5H46.5V23.125ZM57.5 25.5V23.5V17.5H65.5V25.5H57.5Z" fill="white"/>
</g>
<defs>
<clipPath id="clip0_27_4600">
<rect width="72" height="32" rx="5" fill="white"/>
</clipPath>
</defs>
</svg>
