<svg width="72" height="32" viewBox="0 0 72 32" fill="none" xmlns="http://www.w3.org/2000/svg">
<g clip-path="url(#clip0_27_2560)">
<path d="M26 4H6C5.46957 4 4.96086 4.21071 4.58579 4.58579C4.21071 4.96086 4 5.46957 4 6V26C4 26.5304 4.21071 27.0391 4.58579 27.4142C4.96086 27.7893 5.46957 28 6 28H26C26.5304 28 27.0391 27.7893 27.4142 27.4142C27.7893 27.0391 28 26.5304 28 26V6C28 5.46957 27.7893 4.96086 27.4142 4.58579C27.0391 4.21071 26.5304 4 26 4ZM21.7075 13.7075L14.7075 20.7075C14.6146 20.8005 14.5043 20.8742 14.3829 20.9246C14.2615 20.9749 14.1314 21.0008 14 21.0008C13.8686 21.0008 13.7385 20.9749 13.6171 20.9246C13.4957 20.8742 13.3854 20.8005 13.2925 20.7075L10.2925 17.7075C10.1049 17.5199 9.99944 17.2654 9.99944 17C9.99944 16.7346 10.1049 16.4801 10.2925 16.2925C10.4801 16.1049 10.7346 15.9994 11 15.9994C11.2654 15.9994 11.5199 16.1049 11.7075 16.2925L14 18.5863L20.2925 12.2925C20.3854 12.1996 20.4957 12.1259 20.6171 12.0756C20.7385 12.0253 20.8686 11.9994 21 11.9994C21.1314 11.9994 21.2615 12.0253 21.3829 12.0756C21.5043 12.1259 21.6146 12.1996 21.7075 12.2925C21.8004 12.3854 21.8741 12.4957 21.9244 12.6171C21.9747 12.7385 22.0006 12.8686 22.0006 13C22.0006 13.1314 21.9747 13.2615 21.9244 13.3829C21.8741 13.5043 21.8004 13.6146 21.7075 13.7075Z" fill="white"/>
<path d="M49.9388 18.0613C49.7992 17.9217 49.6885 17.7561 49.613 17.5738C49.5375 17.3915 49.4986 17.1961 49.4986 16.9988C49.4986 16.8014 49.5375 16.606 49.613 16.4237C49.6885 16.2414 49.7992 16.0758 49.9388 15.9362C50.0783 15.7967 50.2439 15.686 50.4262 15.6105C50.6085 15.535 50.8039 15.4961 51.0013 15.4961C51.1986 15.4961 51.394 15.535 51.5763 15.6105C51.7586 15.686 51.9242 15.7967 52.0638 15.9362L54 17.875L59.9387 11.935C60.2205 11.6532 60.6027 11.4949 61.0012 11.4949C61.3998 11.4949 61.782 11.6532 62.0637 11.935C62.3455 12.2168 62.5039 12.599 62.5039 12.9975C62.5039 13.396 62.3455 13.7782 62.0637 14.06L55.0638 21.06C54.9244 21.1998 54.7588 21.3108 54.5765 21.3865C54.3942 21.4622 54.1987 21.5012 54.0013 21.5012C53.8038 21.5012 53.6083 21.4622 53.426 21.3865C53.2437 21.3108 53.0781 21.1998 52.9388 21.06L49.9388 18.0613ZM68.5 6V26C68.5 26.663 68.2366 27.2989 67.7678 27.7678C67.2989 28.2366 66.663 28.5 66 28.5H46C45.337 28.5 44.7011 28.2366 44.2322 27.7678C43.7634 27.2989 43.5 26.663 43.5 26V6C43.5 5.33696 43.7634 4.70107 44.2322 4.23223C44.7011 3.76339 45.337 3.5 46 3.5H66C66.663 3.5 67.2989 3.76339 67.7678 4.23223C68.2366 4.70107 68.5 5.33696 68.5 6ZM65.5 6.5H46.5V25.5H65.5V6.5Z" fill="white"/>
</g>
<defs>
<clipPath id="clip0_27_2560">
<rect width="72" height="32" rx="5" fill="white"/>
</clipPath>
</defs>
</svg>
