<svg width="72" height="32" viewBox="0 0 72 32" fill="none" xmlns="http://www.w3.org/2000/svg">
<g clip-path="url(#clip0_27_2545)">
<path d="M27 5H5C4.46957 5 3.96086 5.21071 3.58579 5.58579C3.21071 5.96086 3 6.46957 3 7V25C3 25.5304 3.21071 26.0391 3.58579 26.4142C3.96086 26.7893 4.46957 27 5 27H27C27.5304 27 28.0391 26.7893 28.4142 26.4142C28.7893 26.0391 29 25.5304 29 25V7C29 6.46957 28.7893 5.96086 28.4142 5.58579C28.0391 5.21071 27.5304 5 27 5ZM25.7075 10.7075L13.7075 22.7075C13.6146 22.8005 13.5043 22.8742 13.3829 22.9246C13.2615 22.9749 13.1314 23.0008 13 23.0008C12.8686 23.0008 12.7385 22.9749 12.6171 22.9246C12.4957 22.8742 12.3854 22.8005 12.2925 22.7075L7.2925 17.7075C7.10486 17.5199 6.99944 17.2654 6.99944 17C6.99944 16.7346 7.10486 16.4801 7.2925 16.2925C7.48014 16.1049 7.73464 15.9994 8 15.9994C8.26536 15.9994 8.51986 16.1049 8.7075 16.2925L13 20.5863L24.2925 9.2925C24.4801 9.10486 24.7346 8.99944 25 8.99944C25.2654 8.99944 25.5199 9.10486 25.7075 9.2925C25.8951 9.48014 26.0006 9.73464 26.0006 10C26.0006 10.2654 25.8951 10.5199 25.7075 10.7075Z" fill="white"/>
<path d="M69.0612 10.0613L53.0612 26.0613C52.9218 26.2011 52.7563 26.3121 52.5739 26.3878C52.3916 26.4635 52.1961 26.5024 51.9987 26.5024C51.8013 26.5024 51.6058 26.4635 51.4235 26.3878C51.2411 26.3121 51.0756 26.2011 50.9362 26.0613L43.9362 19.0613C43.7967 18.9217 43.686 18.7561 43.6105 18.5738C43.535 18.3915 43.4961 18.1961 43.4961 17.9988C43.4961 17.8014 43.535 17.606 43.6105 17.4237C43.686 17.2414 43.7967 17.0758 43.9362 16.9363C44.0757 16.7967 44.2414 16.686 44.4237 16.6105C44.606 16.535 44.8014 16.4962 44.9987 16.4962C45.196 16.4962 45.3914 16.535 45.5737 16.6105C45.756 16.686 45.9217 16.7967 46.0612 16.9363L51.9999 22.875L66.9387 7.93876C67.2205 7.65697 67.6027 7.49866 68.0012 7.49866C68.3997 7.49866 68.7819 7.65697 69.0637 7.93876C69.3455 8.22055 69.5038 8.60274 69.5038 9.00126C69.5038 9.39977 69.3455 9.78197 69.0637 10.0638L69.0612 10.0613Z" fill="white"/>
</g>
<defs>
<clipPath id="clip0_27_2545">
<rect width="72" height="32" rx="5" fill="white"/>
</clipPath>
</defs>
</svg>
