<svg width="72" height="32" viewBox="0 0 72 32" fill="none" xmlns="http://www.w3.org/2000/svg">
<g clip-path="url(#clip0_27_2570)">
<path d="M28 6H4C3.46957 6 2.96086 6.21071 2.58579 6.58579C2.21071 6.96086 2 7.46957 2 8V24C2 24.5304 2.21071 25.0391 2.58579 25.4142C2.96086 25.7893 3.46957 26 4 26H28C28.5304 26 29.0391 25.7893 29.4142 25.4142C29.7893 25.0391 30 24.5304 30 24V8C30 7.46957 29.7893 6.96086 29.4142 6.58579C29.0391 6.21071 28.5304 6 28 6ZM9 21C8.86864 21.0001 8.73855 20.9743 8.61715 20.9241C8.49576 20.8739 8.38544 20.8003 8.2925 20.7075L5.2925 17.7075C5.10486 17.5199 4.99944 17.2654 4.99944 17C4.99944 16.7346 5.10486 16.4801 5.2925 16.2925C5.48014 16.1049 5.73464 15.9994 6 15.9994C6.26536 15.9994 6.51986 16.1049 6.7075 16.2925L9 18.5863L16.2925 11.2925C16.3854 11.1996 16.4957 11.1259 16.6171 11.0756C16.7385 11.0253 16.8686 10.9994 17 10.9994C17.1314 10.9994 17.2615 11.0253 17.3829 11.0756C17.5043 11.1259 17.6146 11.1996 17.7075 11.2925C17.8004 11.3854 17.8741 11.4957 17.9244 11.6171C17.9747 11.7385 18.0006 11.8686 18.0006 12C18.0006 12.1314 17.9747 12.2615 17.9244 12.3829C17.8741 12.5043 17.8004 12.6146 17.7075 12.7075L9.7075 20.7075C9.61456 20.8003 9.50424 20.8739 9.38285 20.9241C9.26145 20.9743 9.13136 21.0001 9 21ZM26.7075 12.7075L18.7075 20.7075C18.6146 20.8005 18.5043 20.8742 18.3829 20.9246C18.2615 20.9749 18.1314 21.0008 18 21.0008C17.8686 21.0008 17.7385 20.9749 17.6171 20.9246C17.4957 20.8742 17.3854 20.8005 17.2925 20.7075L15.2925 18.7075C15.1049 18.5199 14.9994 18.2654 14.9994 18C14.9994 17.7346 15.1049 17.4801 15.2925 17.2925C15.4801 17.1049 15.7346 16.9994 16 16.9994C16.2654 16.9994 16.5199 17.1049 16.7075 17.2925L18 18.5863L25.2925 11.2925C25.3854 11.1996 25.4957 11.1259 25.6171 11.0756C25.7385 11.0253 25.8686 10.9994 26 10.9994C26.1314 10.9994 26.2615 11.0253 26.3829 11.0756C26.5043 11.1259 26.6146 11.1996 26.7075 11.2925C26.8004 11.3854 26.8741 11.4957 26.9244 11.6171C26.9747 11.7385 27.0006 11.8686 27.0006 12C27.0006 12.1314 26.9747 12.2615 26.9244 12.3829C26.8741 12.5043 26.8004 12.6146 26.7075 12.7075Z" fill="white"/>
<path d="M59.0512 11.07L47.8512 22.07C47.5707 22.3456 47.1932 22.5 46.8 22.5C46.4067 22.5 46.0292 22.3456 45.7487 22.07L40.9487 17.3562C40.8081 17.2182 40.6961 17.0538 40.619 16.8725C40.542 16.6911 40.5014 16.4964 40.4996 16.2993C40.4959 15.9014 40.6505 15.5183 40.9293 15.2344C41.0674 15.0938 41.2318 14.9817 41.4131 14.9047C41.5945 14.8276 41.7892 14.787 41.9863 14.7852C42.3842 14.7816 42.7673 14.9362 43.0512 15.215L46.8012 18.8975L56.95 8.92999C57.2337 8.65119 57.6167 8.49653 58.0145 8.50004C58.4123 8.50356 58.7924 8.66496 59.0712 8.94874C59.35 9.23253 59.5047 9.61544 59.5012 10.0133C59.4976 10.4111 59.3362 10.7912 59.0525 11.07H59.0512ZM71.07 8.94499C70.9318 8.80392 70.7672 8.6915 70.5856 8.61417C70.4039 8.53685 70.2088 8.49615 70.0114 8.49441C69.8139 8.49267 69.6181 8.52992 69.4351 8.60402C69.2521 8.67813 69.0856 8.78763 68.945 8.92624L58.8 18.8975L57.815 17.93C57.5312 17.6512 57.1483 17.4965 56.7505 17.5C56.3526 17.5036 55.9725 17.665 55.6937 17.9487C55.4149 18.2325 55.2603 18.6154 55.2638 19.0133C55.2673 19.4111 55.4287 19.7912 55.7125 20.07L57.7487 22.07C58.0292 22.3456 58.4067 22.5 58.8 22.5C59.1932 22.5 59.5707 22.3456 59.8512 22.07L71.0512 11.07C71.1917 10.9319 71.3037 10.7676 71.3807 10.5863C71.4577 10.4049 71.4982 10.2102 71.4999 10.0133C71.5017 9.81628 71.4646 9.62089 71.3908 9.43824C71.317 9.25559 71.208 9.08926 71.07 8.94874V8.94499Z" fill="white"/>
</g>
<defs>
<clipPath id="clip0_27_2570">
<rect width="72" height="32" rx="5" fill="white"/>
</clipPath>
</defs>
</svg>
