<svg width="72" height="32" viewBox="0 0 72 32" fill="none" xmlns="http://www.w3.org/2000/svg">
<g clip-path="url(#clip0_27_2550)">
<path d="M16 3C13.4288 3 10.9154 3.76244 8.77759 5.1909C6.63975 6.61935 4.97351 8.64968 3.98957 11.0251C3.00563 13.4006 2.74819 16.0144 3.2498 18.5362C3.75141 21.0579 4.98953 23.3743 6.80762 25.1924C8.6257 27.0105 10.9421 28.2486 13.4638 28.7502C15.9856 29.2518 18.5995 28.9944 20.9749 28.0104C23.3503 27.0265 25.3807 25.3603 26.8091 23.2224C28.2376 21.0846 29 18.5712 29 16C28.9964 12.5533 27.6256 9.24882 25.1884 6.81163C22.7512 4.37445 19.4467 3.00364 16 3ZM21.7075 13.7075L14.7075 20.7075C14.6146 20.8005 14.5043 20.8742 14.3829 20.9246C14.2615 20.9749 14.1314 21.0008 14 21.0008C13.8686 21.0008 13.7385 20.9749 13.6171 20.9246C13.4957 20.8742 13.3854 20.8005 13.2925 20.7075L10.2925 17.7075C10.1049 17.5199 9.99945 17.2654 9.99945 17C9.99945 16.7346 10.1049 16.4801 10.2925 16.2925C10.4801 16.1049 10.7346 15.9994 11 15.9994C11.2654 15.9994 11.5199 16.1049 11.7075 16.2925L14 18.5863L20.2925 12.2925C20.3854 12.1996 20.4957 12.1259 20.6171 12.0756C20.7385 12.0253 20.8686 11.9994 21 11.9994C21.1314 11.9994 21.2615 12.0253 21.3829 12.0756C21.5043 12.1259 21.6146 12.1996 21.7075 12.2925C21.8004 12.3854 21.8741 12.4957 21.9244 12.6171C21.9747 12.7385 22.0006 12.8686 22.0006 13C22.0006 13.1314 21.9747 13.2615 21.9244 13.3829C21.8741 13.5043 21.8004 13.6146 21.7075 13.7075Z" fill="white"/>
<path d="M62.0613 11.9388C62.2011 12.0781 62.312 12.2437 62.3878 12.426C62.4635 12.6083 62.5024 12.8038 62.5024 13.0013C62.5024 13.1987 62.4635 13.3942 62.3878 13.5765C62.312 13.7588 62.2011 13.9244 62.0613 14.0638L55.0613 21.0637C54.9219 21.2036 54.7563 21.3145 54.574 21.3903C54.3917 21.466 54.1962 21.5049 53.9988 21.5049C53.8013 21.5049 53.6059 21.466 53.4235 21.3903C53.2412 21.3145 53.0756 21.2036 52.9363 21.0637L49.9363 18.0637C49.7967 17.9242 49.686 17.7586 49.6105 17.5763C49.535 17.394 49.4962 17.1986 49.4962 17.0012C49.4962 16.8039 49.535 16.6085 49.6105 16.4262C49.686 16.2439 49.7967 16.0783 49.9363 15.9388C50.0758 15.7992 50.2414 15.6885 50.4237 15.613C50.606 15.5375 50.8014 15.4986 50.9988 15.4986C51.1961 15.4986 51.3915 15.5375 51.5738 15.613C51.7561 15.6885 51.9217 15.7992 52.0613 15.9388L54 17.875L59.9388 11.935C60.0783 11.7958 60.2439 11.6854 60.4262 11.6103C60.6084 11.5351 60.8037 11.4966 61.0008 11.4969C61.1979 11.4973 61.393 11.5365 61.575 11.6123C61.757 11.6881 61.9222 11.799 62.0613 11.9388ZM69.5 16C69.5 18.67 68.7082 21.2801 67.2248 23.5002C65.7414 25.7203 63.633 27.4506 61.1662 28.4724C58.6994 29.4942 55.985 29.7615 53.3663 29.2406C50.7475 28.7197 48.3421 27.434 46.4541 25.5459C44.5661 23.6579 43.2803 21.2525 42.7594 18.6337C42.2385 16.015 42.5058 13.3006 43.5276 10.8338C44.5494 8.36697 46.2797 6.25856 48.4998 4.77516C50.7199 3.29176 53.33 2.5 56 2.5C59.5792 2.50397 63.0107 3.92756 65.5416 6.45844C68.0724 8.98932 69.496 12.4208 69.5 16ZM66.5 16C66.5 13.9233 65.8842 11.8932 64.7304 10.1665C63.5767 8.4398 61.9368 7.09399 60.0182 6.29926C58.0996 5.50454 55.9884 5.29661 53.9516 5.70175C51.9148 6.1069 50.0438 7.10693 48.5754 8.57538C47.1069 10.0438 46.1069 11.9148 45.7018 13.9516C45.2966 15.9884 45.5046 18.0996 46.2993 20.0182C47.094 21.9368 48.4398 23.5767 50.1665 24.7304C51.8932 25.8842 53.9233 26.5 56 26.5C58.7839 26.497 61.4529 25.3898 63.4213 23.4213C65.3898 21.4528 66.497 18.7839 66.5 16Z" fill="white"/>
</g>
<defs>
<clipPath id="clip0_27_2550">
<rect width="72" height="32" rx="5" fill="white"/>
</clipPath>
</defs>
</svg>
