<svg width="72" height="32" viewBox="0 0 72 32" fill="none" xmlns="http://www.w3.org/2000/svg">
<g clip-path="url(#clip0_27_2555)">
<path d="M30.4137 11.3638L14.3637 27.4138C13.9887 27.7885 13.4802 27.9991 12.95 27.9991C12.4198 27.9991 11.9113 27.7885 11.5362 27.4138L2.58372 18.4138C2.20931 18.0388 1.99902 17.5305 1.99902 17.0006C1.99902 16.4707 2.20931 15.9625 2.58372 15.5875L5.08372 13.0875C5.45855 12.7142 5.96599 12.5047 6.49497 12.5047C7.02395 12.5047 7.53139 12.7142 7.90622 13.0875L13 18.0275L25.095 6.08125C25.4699 5.70761 25.9776 5.4978 26.5068 5.4978C27.0361 5.4978 27.5438 5.70761 27.9187 6.08125L30.4125 8.52375C30.6 8.7096 30.7489 8.93073 30.8505 9.17441C30.9522 9.41808 31.0046 9.67947 31.0047 9.94349C31.0048 10.2075 30.9526 10.469 30.8512 10.7127C30.7498 10.9565 30.6011 11.1777 30.4137 11.3638Z" fill="white"/>
<path d="M70.7687 8.1825L70.76 8.1725L67.7687 5.23125C67.301 4.76365 66.667 4.50044 66.0056 4.49927C65.3442 4.4981 64.7093 4.75906 64.24 5.225L52.99 16.3287L48.7575 12.2225C48.2877 11.7578 47.653 11.498 46.9923 11.4999C46.3315 11.5018 45.6983 11.7652 45.2312 12.2325L42.2312 15.2325C41.7633 15.7012 41.5005 16.3364 41.5005 16.9987C41.5005 17.661 41.7633 18.2963 42.2312 18.765L51.1837 27.765C51.4159 27.9972 51.6915 28.1815 51.9949 28.3072C52.2983 28.4329 52.6234 28.4976 52.9518 28.4976C53.2802 28.4976 53.6054 28.4329 53.9088 28.3072C54.2122 28.1815 54.4878 27.9972 54.72 27.765L70.7687 11.7175C71.2374 11.2487 71.5007 10.6129 71.5007 9.95C71.5007 9.28709 71.2374 8.65131 70.7687 8.1825ZM52.9512 25.2912L44.705 17L47 14.7012L51.9562 19.5C52.2378 19.7728 52.615 19.9244 53.007 19.9226C53.399 19.9207 53.7747 19.7654 54.0537 19.49L66 7.70125L68.29 9.95125L52.9512 25.2912Z" fill="white"/>
</g>
<defs>
<clipPath id="clip0_27_2555">
<rect width="72" height="32" rx="5" fill="white"/>
</clipPath>
</defs>
</svg>
