<svg width="72" height="32" viewBox="0 0 72 32" fill="none" xmlns="http://www.w3.org/2000/svg">
<g clip-path="url(#clip0_27_961)">
<path d="M26.7412 26.7425L24.535 27.3338L23.2325 22.4725C24.2627 21.9566 25.0835 21.1012 25.5565 20.0505C26.0294 18.9999 26.1256 17.8183 25.8288 16.705C24.2537 10.83 20.9813 5.67751 20.8425 5.46126C20.7296 5.28478 20.5641 5.14822 20.3695 5.07084C20.1748 4.99346 19.9607 4.97918 19.7575 5.03001L17.025 5.71376C17.025 4.68251 17.0025 4.03501 16.9988 3.95376C16.9888 3.73893 16.9098 3.53305 16.7736 3.36665C16.6374 3.20025 16.4511 3.08219 16.2425 3.03001L12.2425 2.03001C12.0393 1.97918 11.8252 1.99346 11.6305 2.07084C11.4359 2.14822 11.2704 2.28478 11.1575 2.46126C11.0188 2.67751 7.74625 7.82751 6.17125 13.7113C5.87442 14.8245 5.97059 16.0061 6.44353 17.0568C6.91648 18.1074 7.73728 18.9628 8.7675 19.4788L7.465 24.3338L5.25875 23.7425C5.00248 23.6739 4.72945 23.7099 4.49972 23.8426C4.26999 23.9752 4.10237 24.1937 4.03375 24.45C3.96513 24.7063 4.00111 24.9793 4.13379 25.209C4.26648 25.4388 4.48498 25.6064 4.74125 25.675L10.7413 27.2825C10.8257 27.3047 10.9127 27.316 11 27.3163C11.2428 27.3165 11.4774 27.2285 11.6601 27.0685C11.8427 26.9085 11.9609 26.6875 11.9926 26.4467C12.0243 26.206 11.9673 25.9619 11.8323 25.7601C11.6972 25.5583 11.4934 25.4126 11.2587 25.35L9.39625 24.85L10.6987 19.9888C10.8 19.995 10.9 19.9988 11 19.9988C11.9921 19.996 12.961 19.699 13.7843 19.1454C14.6076 18.5918 15.2482 17.8065 15.625 16.8888C15.7725 17.685 15.95 18.4913 16.1637 19.2913C16.4499 20.3552 17.0788 21.2951 17.9531 21.9656C18.8273 22.636 19.8982 22.9996 21 23C21.1 23 21.2 23 21.3013 22.99L22.6038 27.8513L20.7412 28.3513C20.5077 28.4147 20.3051 28.5607 20.171 28.7622C20.0369 28.9636 19.9804 29.2069 20.012 29.4468C20.0436 29.6867 20.1612 29.9071 20.3428 30.067C20.5245 30.2268 20.758 30.3154 21 30.3163C21.0873 30.316 21.1743 30.3047 21.2588 30.2825L27.2588 28.675C27.515 28.6064 27.7335 28.4388 27.8662 28.209C27.9989 27.9793 28.0349 27.7063 27.9662 27.45C27.8976 27.1937 27.73 26.9752 27.5003 26.8426C27.2705 26.7099 26.9975 26.6739 26.7412 26.7425ZM19.5275 7.14876C19.875 7.73626 20.4312 8.71626 21.0525 9.95626L17 10.9713C16.9475 9.72125 16.9525 8.69001 16.9688 7.99751C16.9688 7.92751 16.975 7.85751 16.9788 7.78751L19.5275 7.14876ZM12.4725 4.14876L15.0188 4.78501C15.0262 5.32001 15.0188 6.11876 14.9925 7.09376C14.985 7.24501 14.9725 7.49251 14.9637 7.82376C14.9637 7.94876 14.9513 8.07375 14.9438 8.19875L10.8363 7.17876C11.5 5.83376 12.105 4.77 12.4725 4.14876ZM23.105 5.44751C23.0461 5.32999 23.011 5.20202 23.0017 5.07093C22.9923 4.93983 23.0089 4.80818 23.0505 4.68349C23.092 4.55881 23.1578 4.44354 23.2439 4.34427C23.33 4.24501 23.4349 4.16371 23.5525 4.10501L25.5525 3.10501C25.67 3.04624 25.798 3.0112 25.9291 3.00188C26.0601 2.99257 26.1918 3.00916 26.3164 3.05071C26.4411 3.09227 26.5563 3.15797 26.6556 3.24407C26.7549 3.33016 26.8362 3.43497 26.895 3.55251C26.9538 3.67004 26.9888 3.798 26.9981 3.92907C27.0074 4.06015 26.9908 4.19177 26.9493 4.31644C26.9077 4.4411 26.842 4.55636 26.7559 4.65563C26.6698 4.7549 26.565 4.83624 26.4475 4.89501L24.4475 5.89501C24.33 5.95386 24.202 5.98897 24.0709 5.99833C23.9398 6.00769 23.8082 5.99111 23.6835 5.94955C23.5588 5.90799 23.4435 5.84225 23.3443 5.75611C23.245 5.66996 23.1637 5.5651 23.105 5.44751ZM29 9.00001C29 9.26522 28.8946 9.51958 28.7071 9.70711C28.5196 9.89465 28.2652 10 28 10H26C25.7348 10 25.4804 9.89465 25.2929 9.70711C25.1054 9.51958 25 9.26522 25 9.00001C25 8.73479 25.1054 8.48043 25.2929 8.2929C25.4804 8.10536 25.7348 8.00001 26 8.00001H28C28.2652 8.00001 28.5196 8.10536 28.7071 8.2929C28.8946 8.48043 29 8.73479 29 9.00001ZM4.105 2.55251C4.1637 2.43491 4.24501 2.33005 4.34427 2.2439C4.44353 2.15776 4.5588 2.09202 4.68349 2.05046C4.80817 2.0089 4.93983 1.99233 5.07092 2.00168C5.20202 2.01104 5.32998 2.04615 5.4475 2.10501L7.4475 3.10501C7.56503 3.16377 7.66984 3.24511 7.75594 3.34438C7.84203 3.44366 7.90774 3.55891 7.94929 3.68357C7.99085 3.80824 8.00744 3.93986 7.99812 4.07094C7.98881 4.20201 7.95377 4.32997 7.895 4.44751C7.83623 4.56504 7.75489 4.66985 7.65562 4.75594C7.55635 4.84204 7.44109 4.90774 7.31643 4.9493C7.06466 5.03322 6.78987 5.01369 6.5525 4.89501L4.5525 3.89501C4.43491 3.8363 4.33004 3.755 4.2439 3.65574C4.15775 3.55647 4.09202 3.4412 4.05046 3.31652C4.0089 3.19183 3.99232 3.06018 4.00168 2.92908C4.01104 2.79799 4.04615 2.67002 4.105 2.55251ZM5 9.00001H3C2.73478 9.00001 2.48043 8.89465 2.29289 8.70711C2.10536 8.51958 2 8.26522 2 8.00001C2 7.73479 2.10536 7.48043 2.29289 7.2929C2.48043 7.10536 2.73478 7.00001 3 7.00001H5C5.26522 7.00001 5.51957 7.10536 5.70711 7.2929C5.89464 7.48043 6 7.73479 6 8.00001C6 8.26522 5.89464 8.51958 5.70711 8.70711C5.51957 8.89465 5.26522 9.00001 5 9.00001Z" fill="white"/>
<path d="M66.6112 26.26L64.8888 26.7213L63.8175 22.7213C64.8455 22.1076 65.6456 21.1757 66.0967 20.0667C66.5478 18.9578 66.6253 17.732 66.3175 16.575C64.7162 10.625 61.4037 5.41 61.2638 5.19125C61.0945 4.92714 60.8467 4.72274 60.5552 4.60682C60.2637 4.49089 59.9432 4.46928 59.6388 4.54501L57.5263 5.07251C57.5263 4.40501 57.5037 3.99376 57.5012 3.93126C57.4864 3.60883 57.3679 3.2998 57.1635 3.05006C56.959 2.80032 56.6794 2.6232 56.3662 2.54501L52.3663 1.54501C52.0618 1.46928 51.7413 1.49089 51.4498 1.60682C51.1583 1.72275 50.9105 1.92714 50.7413 2.19126C50.5962 2.41001 47.2837 7.625 45.6887 13.575C45.3804 14.7313 45.457 15.9566 45.9069 17.0655C46.3568 18.1744 47.1556 19.1067 48.1825 19.7213L47.1112 23.7213L45.3888 23.26C45.0045 23.1569 44.5951 23.2107 44.2505 23.4094C43.9059 23.6082 43.6544 23.9358 43.5512 24.32C43.4481 24.7042 43.5019 25.1137 43.7007 25.4583C43.8995 25.8029 44.227 26.0544 44.6112 26.1575L50.6112 27.765C50.9955 27.8681 51.4049 27.8144 51.7495 27.6156C52.0941 27.4168 52.3456 27.0892 52.4487 26.705C52.5519 26.3208 52.4981 25.9113 52.2993 25.5667C52.1005 25.2221 51.773 24.9706 51.3888 24.8675L50.0138 24.4925L51.085 20.4925C51.9267 20.4787 52.7542 20.2727 53.5041 19.8903C54.2541 19.508 54.9069 18.9593 55.4125 18.2863C55.4958 18.6638 55.5887 19.0388 55.6912 19.4113C55.9996 20.5687 56.6769 21.594 57.6205 22.3318C58.564 23.0696 59.7224 23.4798 60.92 23.5L61.9912 27.5L60.6162 27.875C60.426 27.9261 60.2477 28.0141 60.0914 28.1341C59.9352 28.254 59.8041 28.4036 59.7057 28.5742C59.5069 28.9188 59.4531 29.3283 59.5562 29.7125C59.6073 29.9028 59.6953 30.0811 59.8153 30.2373C59.9353 30.3936 60.0848 30.5246 60.2555 30.6231C60.6001 30.8219 61.0095 30.8756 61.3937 30.7725L67.3937 29.165C67.584 29.114 67.7623 29.0259 67.9186 28.906C68.0748 28.786 68.2059 28.6364 68.3043 28.4658C68.4027 28.2952 68.4666 28.1068 68.4922 27.9115C68.5179 27.7162 68.5048 27.5178 68.4538 27.3275C68.4027 27.1373 68.3147 26.9589 68.1947 26.8027C68.0747 26.6465 67.9252 26.5154 67.7545 26.4169C67.5839 26.3185 67.3956 26.2547 67.2003 26.229C67.0049 26.2034 66.8065 26.2165 66.6162 26.2675L66.6112 26.26ZM60.3237 9.625L57.4713 10.3388C57.445 9.47375 57.4475 8.73501 57.4587 8.18376L59.2862 7.72751C59.5625 8.20126 59.9225 8.84875 60.3237 9.625ZM52.715 4.725L54.5225 5.17625C54.5225 5.67626 54.5225 6.33251 54.4925 7.09376C54.4925 7.20876 54.4787 7.36876 54.4712 7.57126L51.5638 6.84501C52.01 5.97251 52.4125 5.25 52.715 4.725ZM50.3538 17.4138C49.7135 17.2421 49.1676 16.8232 48.8362 16.2491C48.5047 15.675 48.4148 14.9928 48.5863 14.3525C49.0306 12.7341 49.5904 11.1496 50.2612 9.61125L54.2537 10.6113C54.0871 12.3116 53.8061 13.9987 53.4125 15.6613C53.2376 16.2982 52.8177 16.84 52.2446 17.1684C51.6715 17.4967 50.9917 17.585 50.3538 17.4138ZM58.5837 18.6463C58.1353 16.9169 57.8277 15.154 57.6637 13.375L61.6413 12.375C62.3548 13.984 62.9473 15.644 63.4137 17.3413C63.5853 17.9818 63.4954 18.6642 63.1638 19.2384C62.8322 19.8126 62.2861 20.2316 61.6456 20.4031C61.0051 20.5747 60.3227 20.4848 59.7485 20.1532C59.1743 19.8216 58.7553 19.2755 58.5837 18.635V18.6463ZM63.0837 4.97376C62.9583 4.59648 62.9878 4.18483 63.1657 3.82926C63.3436 3.4737 63.6553 3.20331 64.0325 3.07751L65.5325 2.57751C65.906 2.46552 66.3085 2.50341 66.6546 2.68316C67.0007 2.8629 67.2632 3.17037 67.3864 3.54036C67.5096 3.91036 67.4839 4.3138 67.3147 4.66515C67.1455 5.01651 66.8461 5.28816 66.48 5.42251L64.98 5.92251C64.6027 6.04796 64.1911 6.0185 63.8355 5.8406C63.4799 5.6627 63.2096 5.35092 63.0837 4.97376ZM69.5 9.00001C69.5 9.39783 69.342 9.77936 69.0607 10.0607C68.7794 10.342 68.3978 10.5 68 10.5H66.5C66.1022 10.5 65.7206 10.342 65.4393 10.0607C65.158 9.77936 65 9.39783 65 9.00001C65 8.60218 65.158 8.22065 65.4393 7.93934C65.7206 7.65804 66.1022 7.50001 66.5 7.50001H68C68.3978 7.50001 68.7794 7.65804 69.0607 7.93934C69.342 8.22065 69.5 8.60218 69.5 9.00001ZM43.5775 2.52625C43.7033 2.14909 43.9737 1.83731 44.3293 1.65941C44.6848 1.48151 45.0965 1.45205 45.4738 1.57751L46.9738 2.07751C47.1661 2.13517 47.3449 2.23086 47.4996 2.35891C47.6542 2.48696 47.7816 2.64476 47.8742 2.82296C47.9667 3.00116 48.0226 3.19612 48.0384 3.3963C48.0542 3.59647 48.0296 3.79778 47.9662 3.98829C47.9027 4.1788 47.8017 4.35464 47.669 4.50537C47.5363 4.6561 47.3747 4.77866 47.1938 4.86578C47.0129 4.9529 46.8164 5.00282 46.6158 5.01256C46.4152 5.0223 46.2148 4.99168 46.0262 4.92251L44.5262 4.42251C44.1491 4.2967 43.8373 4.02631 43.6594 3.67075C43.4815 3.31518 43.452 2.90353 43.5775 2.52625ZM44.5 9.50001H43C42.6022 9.50001 42.2206 9.34197 41.9393 9.06067C41.658 8.77936 41.5 8.39783 41.5 8.00001C41.5 7.60218 41.658 7.22065 41.9393 6.93934C42.2206 6.65804 42.6022 6.50001 43 6.50001H44.5C44.8978 6.50001 45.2794 6.65804 45.5607 6.93934C45.842 7.22065 46 7.60218 46 8.00001C46 8.39783 45.842 8.77936 45.5607 9.06067C45.2794 9.34197 44.8978 9.50001 44.5 9.50001Z" fill="white"/>
</g>
<defs>
<clipPath id="clip0_27_961">
<rect width="72" height="32" rx="5" fill="white"/>
</clipPath>
</defs>
</svg>
