<svg width="72" height="32" viewBox="0 0 72 32" fill="none" xmlns="http://www.w3.org/2000/svg">
<g clip-path="url(#clip0_27_966)">
<path d="M23 4C22.9026 3.99975 22.8057 4.01407 22.7125 4.0425L2.7125 10.0425C2.50659 10.1043 2.32608 10.2308 2.19774 10.4033C2.0694 10.5758 2.00006 10.785 2 11V13C2 13.2652 2.10536 13.5196 2.29289 13.7071C2.48043 13.8946 2.73478 14 3 14H3.9325C5.61375 14 7.03125 15.375 7 17.0575C6.98494 17.8431 6.66223 18.5915 6.10125 19.1418C5.54026 19.692 4.78579 20.0001 4 20H3C2.73478 20 2.48043 20.1054 2.29289 20.2929C2.10536 20.4804 2 20.7348 2 21V24C2 24.2652 2.10536 24.5196 2.29289 24.7071C2.48043 24.8946 2.73478 25 3 25H28C28.5304 25 29.0391 24.7893 29.4142 24.4142C29.7893 24.0391 30 23.5304 30 23V11C29.998 9.1441 29.2599 7.36477 27.9476 6.05245C26.6352 4.74012 24.8559 4.00199 23 4ZM10 23C10 21.9391 10.4214 20.9217 11.1716 20.1716C11.9217 19.4214 12.9391 19 14 19C15.0609 19 16.0783 19.4214 16.8284 20.1716C17.5786 20.9217 18 21.9391 18 23H10ZM21 17C20.3894 17.0003 19.7868 16.8608 19.2384 16.5922C18.69 16.3236 18.2104 15.933 17.8363 15.4503C17.4623 14.9676 17.2037 14.4057 17.0804 13.8077C16.9571 13.2096 16.9723 12.5913 17.125 12H24.875C25.0277 12.5913 25.0429 13.2096 24.9196 13.8077C24.7963 14.4057 24.5377 14.9676 24.1637 15.4503C23.7896 15.933 23.31 16.3236 22.7616 16.5922C22.2132 16.8608 21.6106 17.0003 21 17ZM9.81375 10L23.14 6C24.2679 6.03308 25.3515 6.44611 26.2152 7.17214C27.079 7.89816 27.6722 8.89463 27.8988 10H9.81375Z" fill="white"/>
<path d="M63 3.5C62.8539 3.49988 62.7086 3.52137 62.5688 3.56375L42.5687 9.56375C42.2599 9.65646 41.9891 9.84624 41.7966 10.105C41.6041 10.3637 41.5001 10.6775 41.5 11V14C41.5 14.3978 41.658 14.7794 41.9393 15.0607C42.2206 15.342 42.6022 15.5 43 15.5H44C44.392 15.5021 44.7678 15.6568 45.0478 15.9312C45.3277 16.2055 45.4899 16.5781 45.5 16.97C45.5024 17.1644 45.4657 17.3574 45.3921 17.5373C45.3184 17.7173 45.2093 17.8806 45.0712 18.0175C44.9226 18.169 44.7455 18.2896 44.5501 18.3725C44.3546 18.4553 44.1447 18.4986 43.9325 18.5H43C42.6022 18.5 42.2206 18.658 41.9393 18.9393C41.658 19.2206 41.5 19.6022 41.5 20V24C41.5 24.3978 41.658 24.7794 41.9393 25.0607C42.2206 25.342 42.6022 25.5 43 25.5H68C68.663 25.5 69.2989 25.2366 69.7678 24.7678C70.2366 24.2989 70.5 23.663 70.5 23V11C70.4977 9.01159 69.7068 7.10528 68.3007 5.69926C66.8947 4.29324 64.9884 3.50232 63 3.5ZM63.205 6.5C64.0999 6.54218 64.962 6.8501 65.6811 7.38444C66.4003 7.91879 66.9439 8.65531 67.2425 9.5H53.22L63.205 6.5ZM59 12.5H63V13C63 13.5304 62.7893 14.0391 62.4142 14.4142C62.0391 14.7893 61.5304 15 61 15C60.4696 15 59.9609 14.7893 59.5858 14.4142C59.2107 14.0391 59 13.5304 59 13V12.5ZM52 22.5C52 21.9696 52.2107 21.4609 52.5858 21.0858C52.9609 20.7107 53.4696 20.5 54 20.5C54.5304 20.5 55.0391 20.7107 55.4142 21.0858C55.7893 21.4609 56 21.9696 56 22.5H52ZM67.5 22.5H59C59 21.1739 58.4732 19.9021 57.5355 18.9645C56.5979 18.0268 55.3261 17.5 54 17.5C52.6739 17.5 51.4021 18.0268 50.4645 18.9645C49.5268 19.9021 49 21.1739 49 22.5H44.5V21.4638C45.5284 21.3333 46.4834 20.862 47.2125 20.125C47.6318 19.7037 47.962 19.2022 48.1832 18.6505C48.4044 18.0987 48.5122 17.5081 48.5 16.9137C48.4736 15.8234 48.0544 14.7792 47.3195 13.9733C46.5845 13.1674 45.5833 12.654 44.5 12.5275V12.5H56V13C56 14.3261 56.5268 15.5979 57.4645 16.5355C58.4021 17.4732 59.6739 18 61 18C62.3261 18 63.5979 17.4732 64.5355 16.5355C65.4732 15.5979 66 14.3261 66 13V12.5H67.5V22.5Z" fill="white"/>
</g>
<defs>
<clipPath id="clip0_27_966">
<rect width="72" height="32" rx="5" fill="white"/>
</clipPath>
</defs>
</svg>
