<svg width="72" height="32" viewBox="0 0 72 32" fill="none" xmlns="http://www.w3.org/2000/svg">
<g clip-path="url(#clip0_27_976)">
<path d="M22.3026 9C21.8766 8.98649 21.4502 9.00194 21.0264 9.04625C20.324 7.84611 19.4096 6.78346 18.3276 5.91C13.5976 2.09875 7.13136 2.97125 6.85886 3.01C6.6322 3.04175 6.42328 3.15028 6.26699 3.31749C6.1107 3.4847 6.0165 3.70046 6.00011 3.92875C5.98983 4.10835 6.02705 4.28748 6.10802 4.44812C6.189 4.60875 6.31087 4.74521 6.46136 4.84375C8.63636 6.30375 9.63262 8.7075 10.0489 11.05C7.75991 11.2899 5.64953 12.3966 4.15068 14.1432C2.65183 15.8897 1.87816 18.1436 1.98837 20.4424C2.09859 22.7413 3.08435 24.9108 4.74341 26.5059C6.40247 28.101 8.60905 29.0008 10.9105 29.0206C13.2119 29.0404 15.4336 28.1788 17.1199 26.6125C18.8062 25.0462 19.8291 22.8939 19.9789 20.5973C20.1287 18.3007 19.394 16.0338 17.9254 14.2618C16.4569 12.4897 14.3659 11.3468 12.0814 11.0675C11.6926 8.57375 10.8201 6.5 9.50011 4.92125C11.5839 5.01125 14.6551 5.51875 17.0801 7.48125C17.8037 8.06697 18.4356 8.75751 18.9551 9.53C18.7176 9.61625 18.4814 9.71 18.2489 9.81625C18.1219 9.87111 18.0069 9.95045 17.9106 10.0498C17.8143 10.1491 17.7385 10.2664 17.6876 10.395C17.614 10.5905 17.6035 10.8041 17.6576 11.0059C17.7116 11.2077 17.8274 11.3874 17.9889 11.52C18.6176 12.0392 19.1873 12.6261 19.6876 13.27C19.7112 13.3004 19.7385 13.3277 19.7689 13.3513C20.0001 13.5188 20.7289 14 22.0001 14C23.5189 14 24.2726 13.3113 24.3039 13.2813L24.2926 13.2925C24.3855 13.1996 24.4958 13.1259 24.6172 13.0756C24.7386 13.0253 24.8687 12.9994 25.0001 12.9994C25.1315 12.9994 25.2616 13.0253 25.383 13.0756C25.5044 13.1259 25.6147 13.1996 25.7076 13.2925C25.8005 13.3854 25.8742 13.4957 25.9245 13.6171C25.9748 13.7385 26.0007 13.8686 26.0007 14C26.0007 14.1314 25.9748 14.2615 25.9245 14.3829C25.8742 14.5043 25.8005 14.6146 25.7076 14.7075C25.5751 14.84 24.3464 16 22.0001 16H21.7989C21.7371 15.9964 21.6754 16.0082 21.6193 16.0343C21.5631 16.0603 21.5143 16.0999 21.4772 16.1494C21.4401 16.1989 21.4158 16.2568 21.4065 16.318C21.3972 16.3792 21.4031 16.4417 21.4239 16.5C21.9174 17.9692 22.0946 19.5261 21.9438 21.0686C21.793 22.6111 21.3176 24.1043 20.5489 25.45C20.4071 25.6838 20.3623 25.9636 20.4239 26.23C20.4757 26.433 20.5899 26.6146 20.7505 26.7492C20.9111 26.8838 21.1099 26.9645 21.3189 26.98C21.5414 26.9963 21.7676 27.005 21.9901 27.005C24.3771 27.0451 26.6822 26.1354 28.3984 24.4759C30.1146 22.8165 31.1013 20.5432 31.1414 18.1563C31.1815 15.7693 30.2717 13.4642 28.6123 11.748C26.9528 10.0318 24.6796 9.04512 22.2926 9.005L22.3026 9ZM13.3026 15.2763L13.2914 15.2875C13.479 15.0999 13.7335 14.9944 13.9989 14.9944C14.2642 14.9944 14.5187 15.0999 14.7064 15.2875C14.894 15.4751 14.9994 15.7296 14.9994 15.995C14.9994 16.2604 14.894 16.5149 14.7064 16.7025C14.5751 16.84 13.3464 18 11.0001 18C8.65387 18 7.42512 16.84 7.29261 16.7075C7.1997 16.6146 7.126 16.5043 7.07572 16.3829C7.02544 16.2615 6.99956 16.1314 6.99956 16C6.99956 15.7346 7.10497 15.4801 7.29261 15.2925C7.48026 15.1049 7.73475 14.9994 8.00011 14.9994C8.26548 14.9994 8.51997 15.1049 8.70762 15.2925L8.69636 15.2813C8.72761 15.3113 9.48137 16 11.0001 16C12.5189 16 13.2726 15.3113 13.3039 15.2813L13.3026 15.2763Z" fill="white"/>
<path d="M62 8.49999C61.765 8.49999 61.53 8.50999 61.2975 8.52749C60.5873 7.38539 59.6898 6.37118 58.6425 5.52749C53.75 1.57499 47.07 2.47499 46.7875 2.51499C46.4865 2.55725 46.2055 2.68993 45.9816 2.89547C45.7577 3.10101 45.6015 3.3697 45.5338 3.66597C45.466 3.96224 45.4898 4.2721 45.6021 4.55452C45.7144 4.83695 45.9098 5.0786 46.1625 5.24749C48.065 6.51249 49.0162 8.55624 49.4637 10.625C47.9758 10.8667 46.5668 11.459 45.353 12.3529C44.1393 13.2468 43.1557 14.4168 42.4835 15.766C41.8114 17.1153 41.47 18.6051 41.4875 20.1124C41.505 21.6197 41.8809 23.1012 42.5842 24.4345C43.2875 25.7678 44.298 26.9146 45.5322 27.7801C46.7664 28.6456 48.1888 29.205 49.6819 29.4121C51.175 29.6191 52.696 29.4679 54.1191 28.9709C55.5422 28.4739 56.8266 27.6453 57.8662 26.5537C59.1517 27.1749 60.5607 27.4983 61.9884 27.5C63.416 27.5016 64.8258 27.1815 66.1127 26.5633C67.3996 25.9452 68.5307 25.0449 69.4218 23.9294C70.3129 22.814 70.9411 21.512 71.2598 20.1203C71.5784 18.7286 71.5793 17.283 71.2623 15.891C70.9454 14.4989 70.3188 13.1962 69.429 12.0796C68.5393 10.9631 67.4093 10.0614 66.1231 9.44168C64.837 8.82195 63.4277 8.50008 62 8.49999ZM59.155 15.1325C58.7302 14.4248 58.216 13.7749 57.625 13.1987C58.2152 12.662 58.8991 12.2383 59.6425 11.9487C59.9277 12.715 60.1419 13.5058 60.2825 14.3112C60.0421 14.3466 59.8138 14.4398 59.6174 14.5828C59.421 14.7259 59.2623 14.9145 59.155 15.1325ZM56.7737 7.87499C57.2944 8.29775 57.7653 8.77834 58.1775 9.30749C57.0294 9.81201 55.9921 10.5379 55.125 11.4437C54.3022 11.0461 53.4259 10.7703 52.5237 10.625C52.215 8.88124 51.625 7.08124 50.5725 5.49999C52.4725 5.70999 54.8437 6.30999 56.7737 7.87499ZM51 26.5C49.3807 26.4985 47.8203 25.8926 46.6243 24.801C45.4282 23.7093 44.6827 22.2106 44.5337 20.5982C44.3847 18.9858 44.8429 17.3758 45.8185 16.0835C46.7942 14.7912 48.2171 13.9095 49.8087 13.6112C49.8336 14.5119 49.8023 15.4132 49.715 16.31C49.3408 16.2585 48.961 16.3501 48.6514 16.5664C48.3418 16.7827 48.1252 17.1079 48.0449 17.4769C47.9645 17.8459 48.0264 18.2317 48.218 18.5571C48.4097 18.8826 48.717 19.1238 49.0787 19.2325C50.3347 19.5891 51.6652 19.5891 52.9212 19.2325C53.2476 19.1363 53.5316 18.9319 53.7265 18.653C53.9215 18.3741 54.0158 18.0372 53.994 17.6976C53.9722 17.358 53.8355 17.0359 53.6065 16.7842C53.3775 16.5325 53.0697 16.3662 52.7337 16.3125C52.8074 15.4642 52.8361 14.6126 52.82 13.7612C54.321 14.2002 55.6135 15.1656 56.4603 16.4803C57.3071 17.7951 57.6515 19.3711 57.4303 20.9193C57.2091 22.4675 56.4372 23.884 55.2561 24.9091C54.0749 25.9341 52.5639 26.499 51 26.5ZM62 24.5C61.1764 24.5006 60.3602 24.3445 59.595 24.04C60.6003 21.9127 60.7785 19.4876 60.095 17.2362C61.3479 17.5904 62.6745 17.5904 63.9275 17.2362C64.2864 17.1288 64.5922 16.8909 64.7846 16.5693C64.9769 16.2477 65.042 15.8658 64.9669 15.4987C64.8918 15.1315 64.682 14.8058 64.3789 14.5856C64.0757 14.3654 63.7011 14.2666 63.3287 14.3087C63.1928 13.3696 62.9787 12.4435 62.6887 11.54C64.3374 11.7236 65.8535 12.5306 66.9265 13.7958C67.9996 15.0609 68.5482 16.6885 68.4602 18.345C68.3722 20.0016 67.6541 21.5618 66.453 22.7061C65.252 23.8504 63.6588 24.4922 62 24.5Z" fill="white"/>
</g>
<defs>
<clipPath id="clip0_27_976">
<rect width="72" height="32" rx="5" fill="white"/>
</clipPath>
</defs>
</svg>
