<svg width="72" height="32" viewBox="0 0 72 32" fill="none" xmlns="http://www.w3.org/2000/svg">
<g clip-path="url(#clip0_27_6515)">
<path d="M28.515 18.1425L24 15.4338V13C24.0016 12.8229 23.9561 12.6486 23.8683 12.4949C23.7804 12.3412 23.6533 12.2135 23.5 12.125L17 8.42V6H19C19.2652 6 19.5196 5.89464 19.7071 5.70711C19.8946 5.51957 20 5.26522 20 5C20 4.73478 19.8946 4.48043 19.7071 4.29289C19.5196 4.10536 19.2652 4 19 4H17V2C17 1.73478 16.8946 1.48043 16.7071 1.29289C16.5196 1.10536 16.2652 1 16 1C15.7348 1 15.4804 1.10536 15.2929 1.29289C15.1054 1.48043 15 1.73478 15 2V4H13C12.7348 4 12.4804 4.10536 12.2929 4.29289C12.1054 4.48043 12 4.73478 12 5C12 5.26522 12.1054 5.51957 12.2929 5.70711C12.4804 5.89464 12.7348 6 13 6H15V8.42L8.5 12.1313C8.34666 12.2198 8.21956 12.3474 8.13172 12.5012C8.04387 12.6549 7.99841 12.8292 8 13.0063V15.44L3.485 18.1425C3.33702 18.2314 3.21457 18.3571 3.12958 18.5074C3.04459 18.6576 2.99995 18.8274 3 19V27C3 27.2652 3.10536 27.5196 3.29289 27.7071C3.48043 27.8946 3.73478 28 4 28H13C13.2652 28 13.5196 27.8946 13.7071 27.7071C13.8946 27.5196 14 27.2652 14 27V21C14 20.4696 14.2107 19.9609 14.5858 19.5858C14.9609 19.2107 15.4696 19 16 19C16.5304 19 17.0391 19.2107 17.4142 19.5858C17.7893 19.9609 18 20.4696 18 21V27C18 27.2652 18.1054 27.5196 18.2929 27.7071C18.4804 27.8946 18.7348 28 19 28H28C28.2652 28 28.5196 27.8946 28.7071 27.7071C28.8946 27.5196 29 27.2652 29 27V19C29.0001 18.8274 28.9554 18.6576 28.8704 18.5074C28.7854 18.3571 28.663 18.2314 28.515 18.1425ZM8 26H5V19.5662L8 17.7663V26ZM27 26H24V17.7663L27 19.5662V26Z" fill="white"/>
<path d="M68.7712 17.7138L64.5 15.1512V13C64.5006 12.7361 64.4316 12.4767 64.2999 12.248C64.1682 12.0193 63.9785 11.8294 63.75 11.6975L57.5 8.125V6.5H59C59.3978 6.5 59.7794 6.34196 60.0607 6.06066C60.342 5.77936 60.5 5.39782 60.5 5C60.5 4.60218 60.342 4.22064 60.0607 3.93934C59.7794 3.65804 59.3978 3.5 59 3.5H57.5V2C57.5 1.60218 57.342 1.22064 57.0607 0.93934C56.7794 0.658035 56.3978 0.5 56 0.5C55.6022 0.5 55.2206 0.658035 54.9393 0.93934C54.658 1.22064 54.5 1.60218 54.5 2V3.5H53C52.6022 3.5 52.2206 3.65804 51.9393 3.93934C51.658 4.22064 51.5 4.60218 51.5 5C51.5 5.39782 51.658 5.77936 51.9393 6.06066C52.2206 6.34196 52.6022 6.5 53 6.5H54.5V8.125L48.2563 11.6975C48.0265 11.8287 47.8356 12.0182 47.7028 12.247C47.57 12.4757 47.5 12.7355 47.5 13V15.1512L43.2287 17.7138C43.0065 17.847 42.8226 18.0354 42.6949 18.2609C42.5672 18.4863 42.5 18.7409 42.5 19V27C42.5 27.3978 42.658 27.7794 42.9393 28.0607C43.2206 28.342 43.6022 28.5 44 28.5H53.5C53.8978 28.5 54.2794 28.342 54.5607 28.0607C54.842 27.7794 55 27.3978 55 27V21.5C55 21.2348 55.1054 20.9804 55.2929 20.7929C55.4804 20.6054 55.7348 20.5 56 20.5C56.2652 20.5 56.5196 20.6054 56.7071 20.7929C56.8946 20.9804 57 21.2348 57 21.5V27C57 27.3978 57.158 27.7794 57.4393 28.0607C57.7206 28.342 58.1022 28.5 58.5 28.5H68C68.3978 28.5 68.7794 28.342 69.0607 28.0607C69.342 27.7794 69.5 27.3978 69.5 27V19C69.5 18.7409 69.4328 18.4863 69.3051 18.2609C69.1774 18.0354 68.9935 17.847 68.7712 17.7138ZM45.5 19.8487L47.5 18.6488V25.5H45.5V19.8487ZM56 17.5C54.9391 17.5 53.9217 17.9214 53.1716 18.6716C52.4214 19.4217 52 20.4391 52 21.5V25.5H50.5V13.875L56 10.7325L61.5 13.875V25.5H60V21.5C60 20.4391 59.5786 19.4217 58.8284 18.6716C58.0783 17.9214 57.0609 17.5 56 17.5ZM66.5 25.5H64.5V18.6488L66.5 19.8487V25.5Z" fill="white"/>
</g>
<defs>
<clipPath id="clip0_27_6515">
<rect width="72" height="32" rx="5" fill="white"/>
</clipPath>
</defs>
</svg>
