<svg width="72" height="32" viewBox="0 0 72 32" fill="none" xmlns="http://www.w3.org/2000/svg">
<g clip-path="url(#clip0_27_981)">
<path d="M28 16H4C3.46957 16 2.96086 16.2107 2.58579 16.5858C2.21071 16.9609 2 17.4696 2 18V22C2 22.5304 2.21071 23.0391 2.58579 23.4142C2.96086 23.7893 3.46957 24 4 24H28C28.5304 24 29.0391 23.7893 29.4142 23.4142C29.7893 23.0391 30 22.5304 30 22V18C30 17.4696 29.7893 16.9609 29.4142 16.5858C29.0391 16.2107 28.5304 16 28 16ZM28 22H12V18H28V22ZM25.125 7.51001C26.125 5.73126 26.0525 4.79626 25.92 4.39626C25.862 4.20542 25.7468 4.037 25.59 3.91376C25.4694 3.86081 25.3604 3.78456 25.2694 3.68938C25.1783 3.59421 25.107 3.48198 25.0594 3.35915C25.0119 3.23632 24.989 3.1053 24.9923 2.97363C24.9955 2.84195 25.0247 2.71221 25.0782 2.59185C25.1317 2.4715 25.2085 2.3629 25.3041 2.27229C25.3997 2.18169 25.5122 2.11086 25.6353 2.06388C25.7584 2.0169 25.8895 1.99469 26.0211 1.99853C26.1528 2.00237 26.2824 2.03219 26.4025 2.08626C26.7387 2.25745 27.0372 2.49433 27.2802 2.7829C27.5233 3.07146 27.706 3.40584 27.8175 3.76626C28.2375 5.03376 27.9188 6.62251 26.8675 8.49001C25.8675 10.2688 25.94 11.205 26.0725 11.605C26.1307 11.7954 26.2459 11.9633 26.4025 12.0863C26.5231 12.1392 26.6321 12.2155 26.7231 12.3106C26.8142 12.4058 26.8855 12.518 26.9331 12.6409C26.9806 12.7637 27.0034 12.8947 27.0002 13.0264C26.997 13.1581 26.9678 13.2878 26.9143 13.4082C26.8608 13.5285 26.784 13.6371 26.6884 13.7277C26.5928 13.8183 26.4803 13.8892 26.3572 13.9361C26.2341 13.9831 26.103 14.0053 25.9714 14.0015C25.8397 13.9976 25.7101 13.9678 25.59 13.9138C25.2536 13.7428 24.955 13.506 24.712 13.2174C24.4689 12.9288 24.2863 12.5943 24.175 12.2338C23.7587 10.9663 24.0775 9.37501 25.125 7.51001ZM20.125 7.51001C21.125 5.73126 21.0525 4.79626 20.92 4.39626C20.862 4.20542 20.7468 4.037 20.59 3.91376C20.4694 3.86081 20.3604 3.78456 20.2694 3.68938C20.1783 3.59421 20.107 3.48198 20.0594 3.35915C20.0119 3.23632 19.989 3.1053 19.9923 2.97363C19.9955 2.84195 20.0247 2.71221 20.0782 2.59185C20.1317 2.4715 20.2085 2.3629 20.3041 2.27229C20.3997 2.18169 20.5122 2.11086 20.6353 2.06388C20.7584 2.0169 20.8895 1.99469 21.0211 1.99853C21.1528 2.00237 21.2824 2.03219 21.4025 2.08626C21.7387 2.25745 22.0372 2.49433 22.2802 2.7829C22.5233 3.07146 22.706 3.40584 22.8175 3.76626C23.2375 5.03376 22.9188 6.62251 21.8675 8.49001C20.8675 10.2688 20.94 11.205 21.0725 11.605C21.1307 11.7954 21.2459 11.9633 21.4025 12.0863C21.5231 12.1392 21.6321 12.2155 21.7231 12.3106C21.8142 12.4058 21.8855 12.518 21.9331 12.6409C21.9806 12.7637 22.0034 12.8947 22.0002 13.0264C21.997 13.1581 21.9678 13.2878 21.9143 13.4082C21.8608 13.5285 21.784 13.6371 21.6884 13.7277C21.5928 13.8183 21.4803 13.8892 21.3572 13.9361C21.2341 13.9831 21.103 14.0053 20.9714 14.0015C20.8397 13.9976 20.7101 13.9678 20.59 13.9138C20.2536 13.7428 19.955 13.506 19.712 13.2174C19.4689 12.9288 19.2863 12.5943 19.175 12.2338C18.7587 10.9663 19.0775 9.37501 20.125 7.51001Z" fill="white"/>
<path d="M68 15.5H44C43.337 15.5 42.7011 15.7634 42.2322 16.2322C41.7634 16.7011 41.5 17.337 41.5 18V22C41.5 22.663 41.7634 23.2989 42.2322 23.7678C42.7011 24.2366 43.337 24.5 44 24.5H68C68.663 24.5 69.2989 24.2366 69.7678 23.7678C70.2366 23.2989 70.5 22.663 70.5 22V18C70.5 17.337 70.2366 16.7011 69.7678 16.2322C69.2989 15.7634 68.663 15.5 68 15.5ZM44.5 18.5H49.5V21.5H44.5V18.5ZM67.5 21.5H52.5V18.5H67.5V21.5ZM65.2087 6.98625C66.15 5.3975 66.0988 4.5325 65.8425 4.34875C65.5077 4.16814 65.254 3.86707 65.1328 3.50648C65.0116 3.1459 65.032 2.75273 65.1897 2.40657C65.3475 2.06041 65.6309 1.78712 65.9825 1.64201C66.3341 1.4969 66.7278 1.49082 67.0837 1.625C67.493 1.81555 67.8579 2.08957 68.1549 2.42948C68.452 2.76939 68.6747 3.16768 68.8088 3.59875C69.2588 4.96375 68.9163 6.62 67.7913 8.52125C66.85 10.1088 66.9012 10.975 67.1575 11.1588C67.5089 11.33 67.7796 11.6316 67.9119 11.9994C68.0442 12.3673 68.0277 12.7722 67.866 13.128C67.7042 13.4839 67.4098 13.7625 67.0457 13.9046C66.6815 14.0467 66.2763 14.041 65.9163 13.8888C65.5074 13.6976 65.1429 13.4233 64.8459 13.0835C64.5489 12.7437 64.326 12.3457 64.1912 11.915C63.7412 10.5425 64.0837 8.88625 65.2087 6.98625ZM59.2087 6.98625C60.15 5.3975 60.0988 4.5325 59.8425 4.34875C59.5077 4.16814 59.254 3.86707 59.1328 3.50648C59.0116 3.1459 59.032 2.75273 59.1897 2.40657C59.3475 2.06041 59.6309 1.78712 59.9825 1.64201C60.3341 1.4969 60.7278 1.49082 61.0837 1.625C61.493 1.81555 61.8579 2.08957 62.1549 2.42948C62.452 2.76939 62.6747 3.16768 62.8088 3.59875C63.2588 4.96375 62.9163 6.62 61.7913 8.52125C60.85 10.1088 60.9012 10.975 61.1575 11.1588C61.5089 11.33 61.7796 11.6316 61.9119 11.9994C62.0442 12.3673 62.0277 12.7722 61.866 13.128C61.7042 13.4839 61.4098 13.7625 61.0457 13.9046C60.6815 14.0467 60.2763 14.041 59.9163 13.8888C59.5074 13.6976 59.1429 13.4233 58.8459 13.0835C58.5489 12.7437 58.326 12.3457 58.1912 11.915C57.7412 10.5425 58.0837 8.88625 59.2087 6.98625Z" fill="white"/>
</g>
<defs>
<clipPath id="clip0_27_981">
<rect width="72" height="32" rx="5" fill="white"/>
</clipPath>
</defs>
</svg>
