<svg width="72" height="32" viewBox="0 0 72 32" fill="none" xmlns="http://www.w3.org/2000/svg">
<g clip-path="url(#clip0_27_986)">
<path d="M25.125 7.51001C26.125 5.73126 26.0525 4.79626 25.92 4.39626C25.862 4.20542 25.7468 4.037 25.59 3.91376C25.4694 3.86081 25.3604 3.78456 25.2694 3.68938C25.1783 3.59421 25.107 3.48198 25.0594 3.35915C25.0119 3.23632 24.989 3.1053 24.9923 2.97363C24.9955 2.84195 25.0247 2.71221 25.0782 2.59185C25.1317 2.4715 25.2085 2.3629 25.3041 2.27229C25.3997 2.18169 25.5122 2.11086 25.6353 2.06388C25.7584 2.0169 25.8895 1.99469 26.0211 1.99853C26.1528 2.00237 26.2824 2.03219 26.4025 2.08626C26.7387 2.25745 27.0372 2.49433 27.2802 2.7829C27.5233 3.07146 27.706 3.40584 27.8175 3.76626C28.2375 5.03376 27.9188 6.62251 26.8675 8.49001C25.8675 10.2688 25.94 11.205 26.0725 11.605C26.1307 11.7954 26.2459 11.9633 26.4025 12.0863C26.5231 12.1392 26.6321 12.2155 26.7231 12.3106C26.8142 12.4058 26.8855 12.518 26.9331 12.6409C26.9806 12.7637 27.0034 12.8947 27.0002 13.0264C26.997 13.1581 26.9678 13.2878 26.9143 13.4082C26.8608 13.5285 26.784 13.6371 26.6884 13.7277C26.5928 13.8183 26.4803 13.8892 26.3572 13.9361C26.2341 13.9831 26.103 14.0053 25.9714 14.0015C25.8397 13.9976 25.7101 13.9678 25.59 13.9138C25.2536 13.7428 24.955 13.506 24.712 13.2174C24.4689 12.9288 24.2863 12.5943 24.175 12.2338C23.7587 10.9663 24.0775 9.37501 25.125 7.51001ZM19.175 12.2338C19.2863 12.5943 19.4689 12.9288 19.712 13.2174C19.955 13.506 20.2536 13.7428 20.59 13.9138C20.7101 13.9678 20.8397 13.9976 20.9714 14.0015C21.103 14.0053 21.2341 13.9831 21.3572 13.9361C21.4803 13.8892 21.5928 13.8183 21.6884 13.7277C21.784 13.6371 21.8608 13.5285 21.9143 13.4082C21.9678 13.2878 21.997 13.1581 22.0002 13.0264C22.0034 12.8947 21.9806 12.7637 21.9331 12.6409C21.8855 12.518 21.8142 12.4058 21.7231 12.3106C21.6321 12.2155 21.5231 12.1392 21.4025 12.0863C21.2459 11.9633 21.1307 11.7954 21.0725 11.605C20.94 11.205 20.8675 10.2688 21.8675 8.49001C22.9188 6.62251 23.2425 5.03376 22.8175 3.76626C22.706 3.40584 22.5233 3.07146 22.2802 2.7829C22.0372 2.49433 21.7387 2.25745 21.4025 2.08626C21.2824 2.03219 21.1528 2.00237 21.0211 1.99853C20.8895 1.99469 20.7584 2.0169 20.6353 2.06388C20.5122 2.11086 20.3997 2.18169 20.3041 2.27229C20.2085 2.3629 20.1317 2.4715 20.0782 2.59185C20.0247 2.71221 19.9955 2.84195 19.9923 2.97363C19.989 3.1053 20.0119 3.23632 20.0594 3.35915C20.107 3.48198 20.1783 3.59421 20.2694 3.68938C20.3604 3.78456 20.4694 3.86081 20.59 3.91376C20.7468 4.037 20.862 4.20542 20.92 4.39626C21.0525 4.79626 21.125 5.73126 20.125 7.51001C19.0775 9.37501 18.7587 10.9663 19.1787 12.2338H19.175ZM26.7362 26.3275C26.8264 26.4244 26.8965 26.5382 26.9423 26.6623C26.9882 26.7864 27.009 26.9184 27.0034 27.0506C26.9979 27.1828 26.9662 27.3126 26.9101 27.4325C26.8541 27.5524 26.7748 27.6599 26.6769 27.7489C26.5789 27.8379 26.4643 27.9066 26.3396 27.951C26.215 27.9954 26.0827 28.0145 25.9506 28.0074C25.8185 28.0003 25.689 27.9671 25.5698 27.9096C25.4507 27.8521 25.3441 27.7715 25.2563 27.6725L21.9212 24H4C3.46957 24 2.96086 23.7893 2.58579 23.4142C2.21071 23.0391 2 22.5304 2 22V18C2 17.4696 2.21071 16.9609 2.58579 16.5858C2.96086 16.2107 3.46957 16 4 16H14.6488L5.26 5.67251C5.16983 5.57565 5.09979 5.46186 5.05392 5.33773C5.00806 5.2136 4.98728 5.08161 4.99281 4.94939C4.99833 4.81718 5.03004 4.68737 5.0861 4.5675C5.14216 4.44763 5.22146 4.34008 5.31939 4.25108C5.41732 4.16208 5.53194 4.09341 5.65661 4.04903C5.78128 4.00466 5.91352 3.98547 6.04566 3.99258C6.1778 3.99969 6.30721 4.03295 6.4264 4.09045C6.54559 4.14794 6.65218 4.22852 6.74 4.32751L26.7362 26.3275ZM20.1025 22L16.4662 18H12V22H20.1025ZM28 16H22.315C22.0498 16 21.7954 16.1054 21.6079 16.2929C21.4204 16.4804 21.315 16.7348 21.315 17C21.315 17.2652 21.4204 17.5196 21.6079 17.7071C21.7954 17.8947 22.0498 18 22.315 18H28V22H27.77C27.5048 22 27.2504 22.1054 27.0629 22.2929C26.8754 22.4804 26.77 22.7348 26.77 23C26.77 23.2652 26.8754 23.5196 27.0629 23.7071C27.2504 23.8947 27.5048 24 27.77 24H28C28.5304 24 29.0391 23.7893 29.4142 23.4142C29.7893 23.0391 30 22.5304 30 22V18C30 17.4696 29.7893 16.9609 29.4142 16.5858C29.0391 16.2107 28.5304 16 28 16Z" fill="white"/>
<path d="M65.2087 6.98626C66.15 5.39751 66.0988 4.53251 65.8425 4.34876C65.5077 4.16815 65.254 3.86708 65.1328 3.50649C65.0116 3.1459 65.032 2.75274 65.1897 2.40658C65.3475 2.06042 65.6309 1.78712 65.9825 1.64202C66.3341 1.49691 66.7278 1.49083 67.0837 1.62501C67.493 1.81555 67.8579 2.08958 68.1549 2.42949C68.452 2.7694 68.6747 3.16768 68.8088 3.59876C69.2588 4.96376 68.9163 6.62001 67.7913 8.52126C66.85 10.1088 66.9012 10.975 67.1575 11.1588C67.5089 11.33 67.7796 11.6316 67.9119 11.9994C68.0442 12.3673 68.0277 12.7722 67.866 13.128C67.7042 13.4839 67.4098 13.7625 67.0457 13.9046C66.6815 14.0467 66.2763 14.041 65.9163 13.8888C65.5074 13.6976 65.1429 13.4233 64.8459 13.0835C64.5489 12.7437 64.326 12.3457 64.1912 11.915C63.7412 10.5425 64.0837 8.88626 65.2087 6.98626ZM58.1912 11.9088C58.326 12.3395 58.5489 12.7374 58.8459 13.0773C59.1429 13.4171 59.5074 13.6913 59.9163 13.8825C60.2763 14.0348 60.6815 14.0404 61.0457 13.8984C61.4098 13.7563 61.7042 13.4776 61.866 13.1218C62.0277 12.766 62.0442 12.361 61.9119 11.9932C61.7796 11.6254 61.5089 11.3237 61.1575 11.1525C60.9075 10.9688 60.85 10.1025 61.7913 8.51501C62.9163 6.61376 63.2588 4.95751 62.8088 3.59251C62.674 3.16258 62.4509 2.76551 62.1539 2.42672C61.8568 2.08793 61.4924 1.81487 61.0837 1.62501C60.7237 1.47276 60.3185 1.46707 59.9543 1.60916C59.5902 1.75124 59.2958 2.02987 59.134 2.38572C58.9723 2.74156 58.9558 3.14651 59.0881 3.51433C59.2204 3.88215 59.4911 4.18378 59.8425 4.35501C60.0925 4.53876 60.15 5.40376 59.2087 6.99251C58.0837 8.88626 57.7412 10.5425 58.1912 11.9088ZM67.11 25.9913C67.2453 26.1365 67.3503 26.3072 67.4191 26.4934C67.4879 26.6796 67.5191 26.8776 67.5108 27.0759C67.5025 27.2743 67.4549 27.469 67.3708 27.6488C67.2868 27.8286 67.1678 27.9899 67.0209 28.1234C66.874 28.2569 66.7021 28.3599 66.5151 28.4265C66.3281 28.493 66.1297 28.5218 65.9315 28.5112C65.7333 28.5005 65.5392 28.4506 65.3604 28.3644C65.1816 28.2781 65.0217 28.1572 64.89 28.0088L61.7 24.5H44C43.337 24.5 42.7011 24.2366 42.2322 23.7678C41.7634 23.2989 41.5 22.663 41.5 22V18C41.5 17.337 41.7634 16.7011 42.2322 16.2322C42.7011 15.7634 43.337 15.5 44 15.5H53.5188L44.8938 6.00876C44.7508 5.86516 44.6384 5.69409 44.5634 5.50587C44.4884 5.31765 44.4523 5.11618 44.4573 4.91362C44.4622 4.71107 44.5082 4.51162 44.5924 4.32731C44.6766 4.14301 44.7972 3.97767 44.947 3.84127C45.0969 3.70487 45.2728 3.60024 45.4642 3.5337C45.6556 3.46716 45.8584 3.44007 46.0606 3.45409C46.2627 3.46811 46.4599 3.52293 46.6403 3.61525C46.8206 3.70758 46.9804 3.83548 47.11 3.99126L67.11 25.9913ZM44.5 21.5H49.5V18.5H44.5V21.5ZM58.9725 21.5L56.25 18.5H52.5V21.5H58.9725ZM68 15.5H63.6663C63.2684 15.5 62.8869 15.658 62.6056 15.9393C62.3243 16.2207 62.1663 16.6022 62.1663 17C62.1663 17.3978 62.3243 17.7794 62.6056 18.0607C62.8869 18.342 63.2684 18.5 63.6663 18.5H67.5V22.8675C67.5 23.2653 67.658 23.6469 67.9393 23.9282C68.2206 24.2095 68.6022 24.3675 69 24.3675C69.3978 24.3675 69.7794 24.2095 70.0607 23.9282C70.342 23.6469 70.5 23.2653 70.5 22.8675V18C70.5 17.337 70.2366 16.7011 69.7678 16.2322C69.2989 15.7634 68.663 15.5 68 15.5Z" fill="white"/>
</g>
<defs>
<clipPath id="clip0_27_986">
<rect width="72" height="32" rx="5" fill="white"/>
</clipPath>
</defs>
</svg>
