<svg width="72" height="32" viewBox="0 0 72 32" fill="none" xmlns="http://www.w3.org/2000/svg">
<g clip-path="url(#clip0_27_5152)">
<path d="M16 3C13.4288 3 10.9154 3.76244 8.77759 5.1909C6.63975 6.61935 4.97351 8.64968 3.98957 11.0251C3.00563 13.4006 2.74819 16.0144 3.2498 18.5362C3.75141 21.0579 4.98953 23.3743 6.80762 25.1924C8.6257 27.0105 10.9421 28.2486 13.4638 28.7502C15.9856 29.2518 18.5995 28.9944 20.9749 28.0104C23.3503 27.0265 25.3807 25.3603 26.8091 23.2224C28.2376 21.0846 29 18.5712 29 16C28.9964 12.5533 27.6256 9.24882 25.1884 6.81163C22.7512 4.37445 19.4467 3.00364 16 3ZM16 25C14.0186 25.0003 12.0924 24.3467 10.5203 23.1406C8.94823 21.9344 7.81813 20.2432 7.30531 18.3293C6.79249 16.4153 6.92563 14.3856 7.68407 12.5551C8.44251 10.7245 9.78385 9.19543 11.5 8.205C11.7291 8.08062 11.9976 8.05058 12.2485 8.12131C12.4994 8.19203 12.7128 8.35791 12.8431 8.58362C12.9735 8.80933 13.0106 9.07703 12.9465 9.32968C12.8824 9.58233 12.7222 9.79998 12.5 9.93625C11.1655 10.7067 10.1225 11.896 9.53285 13.3196C8.94316 14.7433 8.8397 16.3217 9.23853 17.8102C9.63735 19.2986 10.5162 20.6138 11.7387 21.5519C12.9612 22.49 14.4591 22.9984 16 22.9984C17.5409 22.9984 19.0388 22.49 20.2613 21.5519C21.4838 20.6138 22.3627 19.2986 22.7615 17.8102C23.1603 16.3217 23.0569 14.7433 22.4672 13.3196C21.8775 11.896 20.8345 10.7067 19.5 9.93625C19.2778 9.79998 19.1176 9.58233 19.0535 9.32968C18.9894 9.07703 19.0265 8.80933 19.1569 8.58362C19.2873 8.35791 19.5006 8.19203 19.7515 8.12131C20.0024 8.05058 20.2709 8.08062 20.5 8.205C22.2162 9.19543 23.5575 10.7245 24.3159 12.5551C25.0744 14.3856 25.2075 16.4153 24.6947 18.3293C24.1819 20.2432 23.0518 21.9344 21.4797 23.1406C19.9076 24.3467 17.9815 25.0003 16 25Z" fill="white"/>
<path d="M69.5 16C69.5 19.5804 68.0777 23.0142 65.5459 25.5459C63.0142 28.0777 59.5804 29.5 56 29.5C52.4196 29.5 48.9858 28.0777 46.4541 25.5459C43.9223 23.0142 42.5 19.5804 42.5 16C42.5 10.685 45.5912 5.83249 50.375 3.63749C50.5548 3.54986 50.7502 3.49905 50.9499 3.48806C51.1496 3.47707 51.3494 3.50612 51.5377 3.57349C51.726 3.64086 51.8989 3.74521 52.0463 3.88038C52.1936 4.01556 52.3125 4.17884 52.3958 4.36062C52.4792 4.5424 52.5253 4.73901 52.5316 4.93889C52.5379 5.13877 52.5041 5.33788 52.4323 5.52451C52.3604 5.71115 52.252 5.88154 52.1134 6.02566C51.9748 6.16978 51.8087 6.28473 51.625 6.36374C47.905 8.07124 45.5 11.8537 45.5 16C45.5 18.7848 46.6062 21.4555 48.5754 23.4246C50.5445 25.3937 53.2152 26.5 56 26.5C58.7848 26.5 61.4555 25.3937 63.4246 23.4246C65.3938 21.4555 66.5 18.7848 66.5 16C66.5 11.8537 64.095 8.07124 60.375 6.36374C60.1913 6.28473 60.0252 6.16978 59.8866 6.02566C59.748 5.88154 59.6396 5.71115 59.5677 5.52451C59.4959 5.33788 59.4621 5.13877 59.4684 4.93889C59.4747 4.73901 59.5208 4.5424 59.6042 4.36062C59.6875 4.17884 59.8064 4.01556 59.9537 3.88038C60.1011 3.74521 60.274 3.64086 60.4623 3.57349C60.6506 3.50612 60.8504 3.47707 61.0501 3.48806C61.2498 3.49905 61.4452 3.54986 61.625 3.63749C66.4088 5.83249 69.5 10.685 69.5 16Z" fill="white"/>
</g>
<defs>
<clipPath id="clip0_27_5152">
<rect width="72" height="32" rx="5" fill="white"/>
</clipPath>
</defs>
</svg>
