<svg width="72" height="32" viewBox="0 0 72 32" fill="none" xmlns="http://www.w3.org/2000/svg">
<g clip-path="url(#clip0_27_5157)">
<path d="M15 10C15 10.9889 14.7068 11.9556 14.1573 12.7779C13.6079 13.6001 12.827 14.241 11.9134 14.6194C10.9998 14.9978 9.99446 15.0969 9.02455 14.9039C8.05465 14.711 7.16373 14.2348 6.46447 13.5355C5.76521 12.8363 5.289 11.9454 5.09608 10.9755C4.90315 10.0055 5.00217 9.00022 5.3806 8.08659C5.75904 7.17295 6.39991 6.39206 7.22215 5.84265C8.0444 5.29325 9.0111 5 10 5C11.3261 5 12.5979 5.52679 13.5355 6.46447C14.4732 7.40215 15 8.67392 15 10ZM22 15C22.9889 15 23.9556 14.7068 24.7779 14.1573C25.6001 13.6079 26.241 12.827 26.6194 11.9134C26.9978 10.9998 27.0969 9.99446 26.9039 9.02455C26.711 8.05465 26.2348 7.16373 25.5355 6.46447C24.8363 5.76521 23.9454 5.289 22.9755 5.09608C22.0055 4.90315 21.0002 5.00217 20.0866 5.3806C19.173 5.75904 18.3921 6.39991 17.8427 7.22215C17.2932 8.0444 17 9.0111 17 10C17 11.3261 17.5268 12.5979 18.4645 13.5355C19.4022 14.4732 20.6739 15 22 15ZM10 17C9.0111 17 8.0444 17.2932 7.22215 17.8427C6.39991 18.3921 5.75904 19.173 5.3806 20.0866C5.00217 21.0002 4.90315 22.0055 5.09608 22.9755C5.289 23.9454 5.76521 24.8363 6.46447 25.5355C7.16373 26.2348 8.05465 26.711 9.02455 26.9039C9.99446 27.0969 10.9998 26.9978 11.9134 26.6194C12.827 26.241 13.6079 25.6001 14.1573 24.7779C14.7068 23.9556 15 22.9889 15 22C15 20.6739 14.4732 19.4022 13.5355 18.4645C12.5979 17.5268 11.3261 17 10 17ZM22 17C21.0111 17 20.0444 17.2932 19.2222 17.8427C18.3999 18.3921 17.759 19.173 17.3806 20.0866C17.0022 21.0002 16.9031 22.0055 17.0961 22.9755C17.289 23.9454 17.7652 24.8363 18.4645 25.5355C19.1637 26.2348 20.0546 26.711 21.0245 26.9039C21.9945 27.0969 22.9998 26.9978 23.9134 26.6194C24.8271 26.241 25.6079 25.6001 26.1574 24.7779C26.7068 23.9556 27 22.9889 27 22C27 20.6739 26.4732 19.4022 25.5355 18.4645C24.5979 17.5268 23.3261 17 22 17Z" fill="white"/>
<path d="M49.75 4.5C48.7117 4.5 47.6966 4.80791 46.8333 5.38479C45.9699 5.96166 45.297 6.7816 44.8996 7.74091C44.5023 8.70023 44.3983 9.75583 44.6009 10.7742C44.8035 11.7926 45.3035 12.7281 46.0377 13.4623C46.7719 14.1965 47.7074 14.6966 48.7258 14.8991C49.7442 15.1017 50.7998 14.9977 51.7591 14.6004C52.7184 14.203 53.5383 13.5301 54.1152 12.6667C54.6921 11.8034 55 10.7884 55 9.75C55 8.35762 54.4469 7.02226 53.4623 6.03769C52.4777 5.05313 51.1424 4.5 49.75 4.5ZM49.75 12C49.305 12 48.87 11.868 48.5 11.6208C48.13 11.3736 47.8416 11.0222 47.6713 10.611C47.501 10.1999 47.4564 9.74751 47.5432 9.31105C47.6301 8.87459 47.8443 8.47368 48.159 8.15901C48.4737 7.84434 48.8746 7.63005 49.311 7.54324C49.7475 7.45642 50.1999 7.50098 50.611 7.67127C51.0222 7.84157 51.3736 8.12996 51.6208 8.49997C51.868 8.86998 52 9.30499 52 9.75C52 10.3467 51.7629 10.919 51.341 11.341C50.919 11.7629 50.3467 12 49.75 12ZM62.25 15C63.2884 15 64.3034 14.6921 65.1667 14.1152C66.0301 13.5383 66.703 12.7184 67.1004 11.7591C67.4977 10.7998 67.6017 9.74418 67.3991 8.72578C67.1966 7.70738 66.6965 6.77192 65.9623 6.03769C65.2281 5.30347 64.2926 4.80345 63.2742 4.60088C62.2558 4.39831 61.2002 4.50227 60.2409 4.89963C59.2816 5.29699 58.4617 5.9699 57.8848 6.83326C57.3079 7.69662 57 8.71165 57 9.75C57 11.1424 57.5531 12.4777 58.5377 13.4623C59.5223 14.4469 60.8576 15 62.25 15ZM62.25 7.5C62.695 7.5 63.13 7.63196 63.5 7.8792C63.87 8.12643 64.1584 8.47783 64.3287 8.88897C64.499 9.3001 64.5436 9.7525 64.4568 10.189C64.37 10.6254 64.1557 11.0263 63.841 11.341C63.5263 11.6557 63.1254 11.87 62.689 11.9568C62.2525 12.0436 61.8001 11.999 61.389 11.8287C60.9778 11.6584 60.6264 11.37 60.3792 11C60.132 10.63 60 10.195 60 9.75C60 9.15327 60.2371 8.58097 60.659 8.15901C61.081 7.73706 61.6533 7.5 62.25 7.5ZM49.75 17C48.7117 17 47.6966 17.3079 46.8333 17.8848C45.9699 18.4617 45.297 19.2816 44.8996 20.2409C44.5023 21.2002 44.3983 22.2558 44.6009 23.2742C44.8035 24.2926 45.3035 25.2281 46.0377 25.9623C46.7719 26.6965 47.7074 27.1966 48.7258 27.3991C49.7442 27.6017 50.7998 27.4977 51.7591 27.1004C52.7184 26.703 53.5383 26.0301 54.1152 25.1667C54.6921 24.3034 55 23.2884 55 22.25C55 20.8576 54.4469 19.5223 53.4623 18.5377C52.4777 17.5531 51.1424 17 49.75 17ZM49.75 24.5C49.305 24.5 48.87 24.368 48.5 24.1208C48.13 23.8736 47.8416 23.5222 47.6713 23.111C47.501 22.6999 47.4564 22.2475 47.5432 21.811C47.6301 21.3746 47.8443 20.9737 48.159 20.659C48.4737 20.3443 48.8746 20.1301 49.311 20.0432C49.7475 19.9564 50.1999 20.001 50.611 20.1713C51.0222 20.3416 51.3736 20.63 51.6208 21C51.868 21.37 52 21.805 52 22.25C52 22.8467 51.7629 23.419 51.341 23.841C50.919 24.2629 50.3467 24.5 49.75 24.5ZM62.25 17C61.2117 17 60.1966 17.3079 59.3333 17.8848C58.4699 18.4617 57.797 19.2816 57.3996 20.2409C57.0023 21.2002 56.8983 22.2558 57.1009 23.2742C57.3035 24.2926 57.8035 25.2281 58.5377 25.9623C59.2719 26.6965 60.2074 27.1966 61.2258 27.3991C62.2442 27.6017 63.2998 27.4977 64.2591 27.1004C65.2184 26.703 66.0383 26.0301 66.6152 25.1667C67.1921 24.3034 67.5 23.2884 67.5 22.25C67.5 20.8576 66.9469 19.5223 65.9623 18.5377C64.9777 17.5531 63.6424 17 62.25 17ZM62.25 24.5C61.805 24.5 61.37 24.368 61 24.1208C60.63 23.8736 60.3416 23.5222 60.1713 23.111C60.001 22.6999 59.9564 22.2475 60.0432 21.811C60.1301 21.3746 60.3443 20.9737 60.659 20.659C60.9737 20.3443 61.3746 20.1301 61.811 20.0432C62.2475 19.9564 62.6999 20.001 63.111 20.1713C63.5222 20.3416 63.8736 20.63 64.1208 21C64.368 21.37 64.5 21.805 64.5 22.25C64.5 22.8467 64.2629 23.419 63.841 23.841C63.419 24.2629 62.8467 24.5 62.25 24.5Z" fill="white"/>
</g>
<defs>
<clipPath id="clip0_27_5157">
<rect width="72" height="32" rx="5" fill="white"/>
</clipPath>
</defs>
</svg>
