<svg width="72" height="32" viewBox="0 0 72 32" fill="none" xmlns="http://www.w3.org/2000/svg">
<g clip-path="url(#clip0_27_5147)">
<path d="M16 3C13.4288 3 10.9154 3.76244 8.77759 5.1909C6.63975 6.61935 4.97351 8.64968 3.98957 11.0251C3.00563 13.4006 2.74819 16.0144 3.2498 18.5362C3.75141 21.0579 4.98953 23.3743 6.80762 25.1924C8.6257 27.0105 10.9421 28.2486 13.4638 28.7502C15.9856 29.2518 18.5995 28.9944 20.9749 28.0104C23.3503 27.0265 25.3807 25.3603 26.8091 23.2224C28.2376 21.0846 29 18.5712 29 16C28.9964 12.5533 27.6256 9.24882 25.1884 6.81163C22.7512 4.37445 19.4467 3.00364 16 3ZM5.00001 16C5.00126 13.8253 5.64708 11.6998 6.85586 9.89205C8.06464 8.08427 9.78214 6.67536 11.7913 5.84332C13.8006 5.01127 16.0113 4.79345 18.1443 5.21736C20.2772 5.64127 22.2367 6.6879 23.775 8.225L8.22501 23.775C7.20204 22.7552 6.39055 21.5434 5.83712 20.2091C5.28368 18.8749 4.9992 17.4445 5.00001 16Z" fill="white"/>
<path d="M65.5467 6.44999C63.3372 4.23897 60.4294 2.86253 57.3187 2.55522C54.208 2.24791 51.0871 3.02875 48.4876 4.76467C45.8882 6.5006 43.9711 9.0842 43.0631 12.0752C42.155 15.0662 42.3123 18.2795 43.5079 21.1676C44.7036 24.0557 46.8638 26.4398 49.6203 27.9136C52.3768 29.3875 55.5591 29.8599 58.6249 29.2504C61.6906 28.6409 64.4502 26.9872 66.4334 24.571C68.4165 22.1549 69.5004 19.1258 69.5005 16C69.5004 12.4185 68.0783 8.98348 65.5467 6.44999ZM62.0005 24.625C61.3758 25.0616 60.7051 25.4283 60.0005 25.7187V14.125L62.0005 12.125V24.625ZM48.5755 8.57249C50.3618 6.78891 52.7305 5.70787 55.2483 5.527C57.7662 5.34614 60.265 6.07755 62.288 7.58749L47.5905 22.2912C46.0788 20.2678 45.3464 17.7676 45.5273 15.2484C45.7082 12.7291 46.7902 10.3592 48.5755 8.57249ZM52.0005 22.125V25.7112C51.1863 25.3764 50.4177 24.94 49.713 24.4125L52.0005 22.125ZM55.0005 26.4525V19.125L57.0005 17.125V26.455C56.3352 26.5173 55.6656 26.5164 55.0005 26.4525ZM65.0005 21.4187V10.5812C65.9828 12.218 66.5017 14.0911 66.5017 16C66.5017 17.9089 65.9828 19.782 65.0005 21.4187Z" fill="white"/>
</g>
<defs>
<clipPath id="clip0_27_5147">
<rect width="72" height="32" rx="5" fill="white"/>
</clipPath>
</defs>
</svg>
