<svg width="72" height="32" viewBox="0 0 72 32" fill="none" xmlns="http://www.w3.org/2000/svg">
<g clip-path="url(#clip0_27_991)">
<path d="M30 26H29V11C29 10.7348 28.8946 10.4804 28.7071 10.2929C28.5196 10.1054 28.2652 10 28 10H20C19.7348 10 19.4804 10.1054 19.2929 10.2929C19.1054 10.4804 19 10.7348 19 11V16H13V5C13 4.73478 12.8946 4.48043 12.7071 4.29289C12.5196 4.10536 12.2652 4 12 4H4C3.73478 4 3.48043 4.10536 3.29289 4.29289C3.10536 4.48043 3 4.73478 3 5V26H2C1.73478 26 1.48043 26.1054 1.29289 26.2929C1.10536 26.4804 1 26.7348 1 27C1 27.2652 1.10536 27.5196 1.29289 27.7071C1.48043 27.8946 1.73478 28 2 28H30C30.2652 28 30.5196 27.8946 30.7071 27.7071C30.8946 27.5196 31 27.2652 31 27C31 26.7348 30.8946 26.4804 30.7071 26.2929C30.5196 26.1054 30.2652 26 30 26ZM9 23C9 23.2652 8.89464 23.5196 8.70711 23.7071C8.51957 23.8946 8.26522 24 8 24C7.73478 24 7.48043 23.8946 7.29289 23.7071C7.10536 23.5196 7 23.2652 7 23V21C7 20.7348 7.10536 20.4804 7.29289 20.2929C7.48043 20.1054 7.73478 20 8 20C8.26522 20 8.51957 20.1054 8.70711 20.2929C8.89464 20.4804 9 20.7348 9 21V23ZM9 17C9 17.2652 8.89464 17.5196 8.70711 17.7071C8.51957 17.8946 8.26522 18 8 18C7.73478 18 7.48043 17.8946 7.29289 17.7071C7.10536 17.5196 7 17.2652 7 17V15C7 14.7348 7.10536 14.4804 7.29289 14.2929C7.48043 14.1054 7.73478 14 8 14C8.26522 14 8.51957 14.1054 8.70711 14.2929C8.89464 14.4804 9 14.7348 9 15V17ZM9 11C9 11.2652 8.89464 11.5196 8.70711 11.7071C8.51957 11.8946 8.26522 12 8 12C7.73478 12 7.48043 11.8946 7.29289 11.7071C7.10536 11.5196 7 11.2652 7 11V9C7 8.73478 7.10536 8.48043 7.29289 8.29289C7.48043 8.10536 7.73478 8 8 8C8.26522 8 8.51957 8.10536 8.70711 8.29289C8.89464 8.48043 9 8.73478 9 9V11ZM17 23C17 23.2652 16.8946 23.5196 16.7071 23.7071C16.5196 23.8946 16.2652 24 16 24C15.7348 24 15.4804 23.8946 15.2929 23.7071C15.1054 23.5196 15 23.2652 15 23V21C15 20.7348 15.1054 20.4804 15.2929 20.2929C15.4804 20.1054 15.7348 20 16 20C16.2652 20 16.5196 20.1054 16.7071 20.2929C16.8946 20.4804 17 20.7348 17 21V23ZM25 23C25 23.2652 24.8946 23.5196 24.7071 23.7071C24.5196 23.8946 24.2652 24 24 24C23.7348 24 23.4804 23.8946 23.2929 23.7071C23.1054 23.5196 23 23.2652 23 23V21C23 20.7348 23.1054 20.4804 23.2929 20.2929C23.4804 20.1054 23.7348 20 24 20C24.2652 20 24.5196 20.1054 24.7071 20.2929C24.8946 20.4804 25 20.7348 25 21V23ZM25 17C25 17.2652 24.8946 17.5196 24.7071 17.7071C24.5196 17.8946 24.2652 18 24 18C23.7348 18 23.4804 17.8946 23.2929 17.7071C23.1054 17.5196 23 17.2652 23 17V15C23 14.7348 23.1054 14.4804 23.2929 14.2929C23.4804 14.1054 23.7348 14 24 14C24.2652 14 24.5196 14.1054 24.7071 14.2929C24.8946 14.4804 25 14.7348 25 15V17Z" fill="white"/>
<path d="M70 25.5H69.5V11C69.5 10.6022 69.342 10.2206 69.0607 9.93934C68.7794 9.65804 68.3978 9.5 68 9.5H59C58.6022 9.5 58.2206 9.65804 57.9393 9.93934C57.658 10.2206 57.5 10.6022 57.5 11V15.5H54.5V5C54.5 4.60218 54.342 4.22064 54.0607 3.93934C53.7794 3.65804 53.3978 3.5 53 3.5H44C43.6022 3.5 43.2206 3.65804 42.9393 3.93934C42.658 4.22064 42.5 4.60218 42.5 5V25.5H42C41.6022 25.5 41.2206 25.658 40.9393 25.9393C40.658 26.2206 40.5 26.6022 40.5 27C40.5 27.3978 40.658 27.7794 40.9393 28.0607C41.2206 28.342 41.6022 28.5 42 28.5H70C70.3978 28.5 70.7794 28.342 71.0607 28.0607C71.342 27.7794 71.5 27.3978 71.5 27C71.5 26.6022 71.342 26.2206 71.0607 25.9393C70.7794 25.658 70.3978 25.5 70 25.5ZM60.5 12.5H66.5V25.5H60.5V12.5ZM57.5 18.5V25.5H54.5V18.5H57.5ZM45.5 6.5H51.5V25.5H45.5V6.5ZM50 9.5V10.5C50 10.8978 49.842 11.2794 49.5607 11.5607C49.2794 11.842 48.8978 12 48.5 12C48.1022 12 47.7206 11.842 47.4393 11.5607C47.158 11.2794 47 10.8978 47 10.5V9.5C47 9.10218 47.158 8.72064 47.4393 8.43934C47.7206 8.15804 48.1022 8 48.5 8C48.8978 8 49.2794 8.15804 49.5607 8.43934C49.842 8.72064 50 9.10218 50 9.5ZM50 15.5V16.5C50 16.8978 49.842 17.2794 49.5607 17.5607C49.2794 17.842 48.8978 18 48.5 18C48.1022 18 47.7206 17.842 47.4393 17.5607C47.158 17.2794 47 16.8978 47 16.5V15.5C47 15.1022 47.158 14.7206 47.4393 14.4393C47.7206 14.158 48.1022 14 48.5 14C48.8978 14 49.2794 14.158 49.5607 14.4393C49.842 14.7206 50 15.1022 50 15.5ZM50 21.5V22.5C50 22.8978 49.842 23.2794 49.5607 23.5607C49.2794 23.842 48.8978 24 48.5 24C48.1022 24 47.7206 23.842 47.4393 23.5607C47.158 23.2794 47 22.8978 47 22.5V21.5C47 21.1022 47.158 20.7206 47.4393 20.4393C47.7206 20.158 48.1022 20 48.5 20C48.8978 20 49.2794 20.158 49.5607 20.4393C49.842 20.7206 50 21.1022 50 21.5ZM62 22.5V21.5C62 21.1022 62.158 20.7206 62.4393 20.4393C62.7206 20.158 63.1022 20 63.5 20C63.8978 20 64.2794 20.158 64.5607 20.4393C64.842 20.7206 65 21.1022 65 21.5V22.5C65 22.8978 64.842 23.2794 64.5607 23.5607C64.2794 23.842 63.8978 24 63.5 24C63.1022 24 62.7206 23.842 62.4393 23.5607C62.158 23.2794 62 22.8978 62 22.5ZM62 16.5V15.5C62 15.1022 62.158 14.7206 62.4393 14.4393C62.7206 14.158 63.1022 14 63.5 14C63.8978 14 64.2794 14.158 64.5607 14.4393C64.842 14.7206 65 15.1022 65 15.5V16.5C65 16.8978 64.842 17.2794 64.5607 17.5607C64.2794 17.842 63.8978 18 63.5 18C63.1022 18 62.7206 17.842 62.4393 17.5607C62.158 17.2794 62 16.8978 62 16.5Z" fill="white"/>
</g>
<defs>
<clipPath id="clip0_27_991">
<rect width="72" height="32" rx="5" fill="white"/>
</clipPath>
</defs>
</svg>
