<svg width="72" height="32" viewBox="0 0 72 32" fill="none" xmlns="http://www.w3.org/2000/svg">
<g clip-path="url(#clip0_27_6961)">
<path d="M25 4H20.4675C19.9056 3.37091 19.2172 2.86757 18.4473 2.52295C17.6775 2.17833 16.8435 2.00018 16 2.00018C15.1565 2.00018 14.3225 2.17833 13.5527 2.52295C12.7828 2.86757 12.0944 3.37091 11.5325 4H7C6.46957 4 5.96086 4.21072 5.58579 4.58579C5.21071 4.96086 5 5.46957 5 6V27C5 27.5304 5.21071 28.0391 5.58579 28.4142C5.96086 28.7893 6.46957 29 7 29H25C25.5304 29 26.0391 28.7893 26.4142 28.4142C26.7893 28.0391 27 27.5304 27 27V6C27 5.46957 26.7893 4.96086 26.4142 4.58579C26.0391 4.21072 25.5304 4 25 4ZM16 4C17.0609 4 18.0783 4.42143 18.8284 5.17157C19.5786 5.92172 20 6.93914 20 8H12C12 6.93914 12.4214 5.92172 13.1716 5.17157C13.9217 4.42143 14.9391 4 16 4ZM20 20H12C11.7348 20 11.4804 19.8946 11.2929 19.7071C11.1054 19.5196 11 19.2652 11 19C11 18.7348 11.1054 18.4804 11.2929 18.2929C11.4804 18.1054 11.7348 18 12 18H20C20.2652 18 20.5196 18.1054 20.7071 18.2929C20.8946 18.4804 21 18.7348 21 19C21 19.2652 20.8946 19.5196 20.7071 19.7071C20.5196 19.8946 20.2652 20 20 20ZM20 16H12C11.7348 16 11.4804 15.8946 11.2929 15.7071C11.1054 15.5196 11 15.2652 11 15C11 14.7348 11.1054 14.4804 11.2929 14.2929C11.4804 14.1054 11.7348 14 12 14H20C20.2652 14 20.5196 14.1054 20.7071 14.2929C20.8946 14.4804 21 14.7348 21 15C21 15.2652 20.8946 15.5196 20.7071 15.7071C20.5196 15.8946 20.2652 16 20 16Z" fill="white"/>
<path d="M61.5 20.5C61.5 20.8978 61.342 21.2794 61.0607 21.5607C60.7794 21.842 60.3978 22 60 22H52C51.6022 22 51.2206 21.842 50.9393 21.5607C50.658 21.2794 50.5 20.8978 50.5 20.5C50.5 20.1022 50.658 19.7206 50.9393 19.4393C51.2206 19.158 51.6022 19 52 19H60C60.3978 19 60.7794 19.158 61.0607 19.4393C61.342 19.7206 61.5 20.1022 61.5 20.5ZM60 14H52C51.6022 14 51.2206 14.158 50.9393 14.4393C50.658 14.7206 50.5 15.1022 50.5 15.5C50.5 15.8978 50.658 16.2794 50.9393 16.5607C51.2206 16.842 51.6022 17 52 17H60C60.3978 17 60.7794 16.842 61.0607 16.5607C61.342 16.2794 61.5 15.8978 61.5 15.5C61.5 15.1022 61.342 14.7206 61.0607 14.4393C60.7794 14.158 60.3978 14 60 14ZM67.5 6V27C67.5 27.663 67.2366 28.2989 66.7678 28.7678C66.2989 29.2366 65.663 29.5 65 29.5H47C46.337 29.5 45.7011 29.2366 45.2322 28.7678C44.7634 28.2989 44.5 27.663 44.5 27V6C44.5 5.33696 44.7634 4.70107 45.2322 4.23223C45.7011 3.76339 46.337 3.5 47 3.5H51.3162C51.9216 2.86786 52.6487 2.36479 53.4536 2.02112C54.2586 1.67745 55.1248 1.50027 56 1.50027C56.8752 1.50027 57.7414 1.67745 58.5464 2.02112C59.3513 2.36479 60.0784 2.86786 60.6838 3.5H65C65.663 3.5 66.2989 3.76339 66.7678 4.23223C67.2366 4.70107 67.5 5.33696 67.5 6ZM52.5363 7.5H59.4638C59.343 6.6675 58.9264 5.90635 58.2904 5.35587C57.6543 4.8054 56.8412 4.50243 56 4.50243C55.1588 4.50243 54.3457 4.8054 53.7096 5.35587C53.0736 5.90635 52.657 6.6675 52.5363 7.5ZM64.5 6.5H62.3237C62.4404 6.99148 62.4996 7.49486 62.5 8V9C62.5 9.39782 62.342 9.77935 62.0607 10.0607C61.7794 10.342 61.3978 10.5 61 10.5H51C50.6022 10.5 50.2206 10.342 49.9393 10.0607C49.658 9.77935 49.5 9.39782 49.5 9V8C49.5004 7.49486 49.5596 6.99148 49.6763 6.5H47.5V26.5H64.5V6.5Z" fill="white"/>
</g>
<defs>
<clipPath id="clip0_27_6961">
<rect width="72" height="32" rx="5" fill="white"/>
</clipPath>
</defs>
</svg>
