<svg width="72" height="32" viewBox="0 0 72 32" fill="none" xmlns="http://www.w3.org/2000/svg">
<g clip-path="url(#clip0_27_4268)">
<path d="M17 9.00001V14.3825L21.5525 12.105C21.67 12.0462 21.798 12.0112 21.9291 12.0019C22.0601 11.9926 22.1918 12.0092 22.3164 12.0507C22.4411 12.0923 22.5564 12.158 22.6556 12.2441C22.7549 12.3302 22.8362 12.435 22.895 12.5525C22.9538 12.67 22.9888 12.798 22.9981 12.9291C23.0074 13.0601 22.9909 13.1918 22.9493 13.3164C22.9077 13.4411 22.842 13.5564 22.7559 13.6556C22.6698 13.7549 22.565 13.8362 22.4475 13.895L16.4475 16.895C16.295 16.9713 16.1255 17.0074 15.9551 16.9997C15.7847 16.9921 15.6192 16.941 15.4741 16.8513C15.3291 16.7616 15.2093 16.6363 15.1264 16.4873C15.0434 16.3383 14.9999 16.1706 15 16V9.00001C15 8.73479 15.1054 8.48044 15.2929 8.2929C15.4804 8.10536 15.7348 8.00001 16 8.00001C16.2652 8.00001 16.5196 8.10536 16.7071 8.2929C16.8946 8.48044 17 8.73479 17 9.00001ZM16 27C13.8244 27 11.6977 26.3549 9.88873 25.1462C8.07979 23.9375 6.66989 22.2195 5.83733 20.2095C5.00477 18.1995 4.78693 15.9878 5.21137 13.854C5.63581 11.7202 6.68345 9.76021 8.22183 8.22183C9.76021 6.68345 11.7202 5.63581 13.854 5.21137C15.9878 4.78693 18.1995 5.00477 20.2095 5.83733C22.2195 6.66989 23.9375 8.07979 25.1462 9.88873C26.3549 11.6977 27 13.8244 27 16C27 16.2652 27.1054 16.5196 27.2929 16.7071C27.4804 16.8946 27.7348 17 28 17C28.2652 17 28.5196 16.8946 28.7071 16.7071C28.8946 16.5196 29 16.2652 29 16C29 13.4288 28.2376 10.9154 26.8091 8.77759C25.3807 6.63975 23.3503 4.97351 20.9749 3.98957C18.5995 3.00563 15.9856 2.74819 13.4638 3.2498C10.9421 3.75141 8.6257 4.98953 6.80762 6.80762C4.98953 8.6257 3.75141 10.9421 3.2498 13.4638C2.74819 15.9856 3.00563 18.5995 3.98957 20.9749C4.97351 23.3503 6.63975 25.3807 8.77759 26.8091C10.9154 28.2376 13.4288 29 16 29C16.2652 29 16.5196 28.8946 16.7071 28.7071C16.8946 28.5196 17 28.2652 17 28C17 27.7348 16.8946 27.4804 16.7071 27.2929C16.5196 27.1054 16.2652 27 16 27ZM26.8275 24.8275C27.3872 24.2682 27.7684 23.5555 27.923 22.7795C28.0775 22.0035 27.9984 21.1991 27.6958 20.468C27.3931 19.737 26.8804 19.1121 26.2226 18.6725C25.5647 18.2328 24.7912 17.9982 24 17.9982C23.2088 17.9982 22.4353 18.2328 21.7775 18.6725C21.1196 19.1121 20.6069 19.737 20.3042 20.468C20.0016 21.1991 19.9225 22.0035 20.0771 22.7795C20.2316 23.5555 20.6128 24.2682 21.1725 24.8275C20.1194 25.5002 19.3564 26.5428 19.0338 27.75C18.9956 27.8976 18.9918 28.052 19.0225 28.2013C19.0532 28.3506 19.1176 28.491 19.2108 28.6116C19.3041 28.7322 19.4236 28.8299 19.5604 28.8972C19.6972 28.9645 19.8476 28.9997 20 29H28C28.1533 29 28.3045 28.9648 28.442 28.897C28.5795 28.8293 28.6995 28.7308 28.7929 28.6093C28.8863 28.4878 28.9505 28.3464 28.9806 28.1961C29.0106 28.0458 29.0057 27.8906 28.9663 27.7425C28.6419 26.5381 27.8791 25.4984 26.8275 24.8275Z" fill="white"/>
<path d="M62.6697 14.3412L56.6697 17.3412C56.441 17.4554 56.187 17.5092 55.9318 17.4977C55.6765 17.4861 55.4284 17.4095 55.211 17.2751C54.9936 17.1408 54.8142 16.9531 54.6897 16.73C54.5652 16.5068 54.4998 16.2555 54.4997 16V8.99999C54.4997 8.60217 54.6577 8.22064 54.939 7.93933C55.2203 7.65803 55.6018 7.49999 55.9997 7.49999C56.3975 7.49999 56.779 7.65803 57.0603 7.93933C57.3416 8.22064 57.4997 8.60217 57.4997 8.99999V13.5725L61.3284 11.6587C61.5051 11.565 61.6988 11.5075 61.898 11.4897C62.0973 11.472 62.298 11.4942 62.4886 11.5552C62.6791 11.6161 62.8555 11.7146 63.0074 11.8447C63.1593 11.9749 63.2836 12.1341 63.3731 12.313C63.4625 12.4919 63.5153 12.6869 63.5283 12.8865C63.5412 13.0861 63.5142 13.2863 63.4486 13.4753C63.3831 13.6643 63.2804 13.8382 63.1466 13.987C63.0129 14.1357 62.8507 14.2561 62.6697 14.3412ZM68.3847 29.4487C68.0003 29.551 67.591 29.4963 67.2469 29.2968C66.9028 29.0974 66.652 28.7694 66.5497 28.385C66.2497 27.275 65.2059 26.5 63.9997 26.5C62.7934 26.5 61.7497 27.275 61.4497 28.385C61.3648 28.7047 61.1765 28.9874 60.9143 29.1891C60.652 29.3907 60.3305 29.5 59.9997 29.5C59.8692 29.5001 59.7393 29.4829 59.6134 29.4487C59.423 29.3982 59.2444 29.3107 59.0878 29.1911C58.9312 29.0715 58.7997 28.9223 58.7008 28.7519C58.6019 28.5815 58.5375 28.3932 58.5114 28.198C58.4852 28.0027 58.4978 27.8042 58.5484 27.6137C58.8514 26.4777 59.5124 25.4696 60.4334 24.7387C59.9196 24.073 59.6027 23.2766 59.5185 22.4398C59.4343 21.6031 59.5863 20.7595 59.9572 20.0047C60.3281 19.25 60.9031 18.6143 61.617 18.1697C62.3308 17.7251 63.155 17.4895 63.9959 17.4895C64.8369 17.4895 65.661 17.7251 66.3749 18.1697C67.0887 18.6143 67.6637 19.25 68.0346 20.0047C68.4055 20.7595 68.5575 21.6031 68.4733 22.4398C68.3892 23.2766 68.0722 24.073 67.5584 24.7387C68.4798 25.4692 69.1409 26.4775 69.4434 27.6137C69.5458 27.9975 69.4919 28.4061 69.2934 28.7501C69.0949 29.0941 68.7681 29.3453 68.3847 29.4487ZM62.4997 22C62.4997 22.2967 62.5876 22.5867 62.7525 22.8333C62.9173 23.08 63.1516 23.2723 63.4256 23.3858C63.6997 23.4993 64.0013 23.5291 64.2923 23.4712C64.5833 23.4133 64.8505 23.2704 65.0603 23.0607C65.2701 22.8509 65.413 22.5836 65.4708 22.2926C65.5287 22.0017 65.499 21.7001 65.3855 21.426C65.272 21.1519 65.0797 20.9176 64.833 20.7528C64.5863 20.588 64.2963 20.5 63.9997 20.5C63.6018 20.5 63.2203 20.658 62.939 20.9393C62.6577 21.2206 62.4997 21.6022 62.4997 22ZM54.6847 26.4187C52.7358 26.1724 50.8951 25.3843 49.3717 24.144C47.8484 22.9037 46.7035 21.261 46.0673 19.4025C45.431 17.5439 45.3289 15.5442 45.7725 13.6306C46.2161 11.7169 47.1876 9.96604 48.5767 8.577C49.9657 7.18795 51.7166 6.21643 53.6302 5.77283C55.5439 5.32924 57.5436 5.43137 59.4021 6.06762C61.2606 6.70387 62.9034 7.84872 64.1437 9.37205C65.384 10.8954 66.1721 12.7361 66.4184 14.685C66.4409 14.8822 66.5022 15.073 66.5989 15.2464C66.6957 15.4197 66.8258 15.5722 66.9819 15.6948C67.138 15.8175 67.3169 15.9079 67.5082 15.961C67.6995 16.014 67.8994 16.0285 68.0963 16.0037C68.2933 15.9789 68.4833 15.9152 68.6555 15.8164C68.8277 15.7176 68.9785 15.5856 69.0993 15.428C69.22 15.2705 69.3083 15.0905 69.359 14.8986C69.4097 14.7067 69.4219 14.5066 69.3947 14.31C69.0783 11.8039 68.0652 9.43687 66.4704 7.47795C64.8757 5.51902 62.7634 4.0468 60.3736 3.22864C57.9838 2.41049 55.4124 2.27922 52.9517 2.84977C50.491 3.42031 48.2398 4.66978 46.4539 6.45613C44.6679 8.24248 43.419 10.4941 42.8491 12.9549C42.2792 15.4157 42.4111 17.9871 43.2298 20.3767C44.0486 22.7663 45.5213 24.8782 47.4806 26.4725C49.44 28.0667 51.8073 29.0792 54.3134 29.395C54.3756 29.4034 54.4382 29.4076 54.5009 29.4075C54.8829 29.4076 55.2505 29.262 55.5288 29.0003C55.807 28.7387 55.975 28.3808 55.9985 27.9995C56.0219 27.6183 55.899 27.2425 55.6549 26.9487C55.4108 26.655 55.0638 26.4654 54.6847 26.4187Z" fill="white"/>
</g>
<defs>
<clipPath id="clip0_27_4268">
<rect width="72" height="32" rx="5" fill="white"/>
</clipPath>
</defs>
</svg>
