<svg width="72" height="32" viewBox="0 0 72 32" fill="none" xmlns="http://www.w3.org/2000/svg">
<g clip-path="url(#clip0_27_4263)">
<path d="M28 16C28.0001 18.3438 27.3137 20.6364 26.0257 22.5946C24.7377 24.5528 22.9044 26.091 20.7522 27.0192C18.6 27.9474 16.2231 28.225 13.9149 27.8177C11.6067 27.4105 9.46835 26.3362 7.76375 24.7275C7.66821 24.6372 7.5914 24.529 7.53768 24.409C7.48397 24.289 7.45441 24.1597 7.45069 24.0283C7.44698 23.8969 7.46918 23.766 7.51603 23.6432C7.56288 23.5204 7.63347 23.408 7.72375 23.3125C7.90609 23.1195 8.1576 23.0069 8.42297 22.9994C8.55436 22.9957 8.6852 23.0179 8.80802 23.0648C8.93083 23.1116 9.04321 23.1822 9.13875 23.2725C10.5684 24.6213 12.3639 25.5188 14.3007 25.853C16.2376 26.1872 18.23 25.9432 20.029 25.1515C21.828 24.3598 23.3538 23.0555 24.4158 21.4016C25.4777 19.7477 26.0287 17.8175 25.9999 15.8522C25.9712 13.8869 25.3639 11.9737 24.254 10.3516C23.1441 8.7295 21.5807 7.47043 19.7593 6.73174C17.9379 5.99304 15.9392 5.80748 14.013 6.19822C12.0867 6.58897 10.3183 7.5387 8.92875 8.92874C8.4875 9.37499 8.0725 9.81374 7.66875 10.25L9.7075 12.2925C9.84751 12.4324 9.94288 12.6106 9.98153 12.8047C10.0202 12.9988 10.0004 13.2 9.92462 13.3828C9.84887 13.5656 9.72058 13.7218 9.55598 13.8317C9.39139 13.9416 9.1979 14.0002 9 14H4C3.73478 14 3.48043 13.8946 3.29289 13.7071C3.10536 13.5196 3 13.2652 3 13V7.99999C2.99984 7.8021 3.05841 7.60861 3.16828 7.44401C3.27815 7.27942 3.43439 7.15112 3.61721 7.07537C3.80003 6.99962 4.00122 6.97982 4.19531 7.01847C4.38939 7.05712 4.56764 7.15248 4.7075 7.29249L6.25 8.83749C6.6525 8.40124 7.0675 7.96249 7.5075 7.51874C9.18511 5.83828 11.3236 4.6933 13.6522 4.22872C15.9808 3.76414 18.3949 4.00086 20.589 4.9089C22.783 5.81695 24.6583 7.3555 25.9775 9.32983C27.2968 11.3041 28.0006 13.6255 28 16ZM16 8.99999C15.7348 8.99999 15.4804 9.10535 15.2929 9.29289C15.1054 9.48042 15 9.73478 15 9.99999V16C14.9999 16.1726 15.0446 16.3423 15.1296 16.4926C15.2146 16.6429 15.337 16.7686 15.485 16.8575L20.485 19.8575C20.5976 19.9251 20.7224 19.9699 20.8524 19.9893C20.9823 20.0087 21.1147 20.0023 21.2422 19.9705C21.3696 19.9387 21.4896 19.8821 21.5951 19.8039C21.7007 19.7258 21.7899 19.6276 21.8575 19.515C21.9251 19.4024 21.9699 19.2776 21.9893 19.1476C22.0087 19.0177 22.0023 18.8853 21.9705 18.7578C21.9387 18.6304 21.8821 18.5104 21.8039 18.4049C21.7258 18.2993 21.6276 18.2101 21.515 18.1425L17 15.4337V9.99999C17 9.73478 16.8946 9.48042 16.7071 9.29289C16.5196 9.10535 16.2652 8.99999 16 8.99999Z" fill="white"/>
<path d="M57.5 10V15.1512L61.7712 17.7137C61.944 17.8131 62.0952 17.9459 62.216 18.1043C62.3368 18.2628 62.4249 18.4437 62.475 18.6366C62.5251 18.8294 62.5363 19.0303 62.5079 19.2276C62.4796 19.4248 62.4122 19.6144 62.3097 19.7853C62.2072 19.9562 62.0717 20.105 61.9111 20.2229C61.7505 20.3409 61.568 20.4256 61.3743 20.4723C61.1806 20.5189 60.9795 20.5265 60.7828 20.4945C60.5861 20.4626 60.3978 20.3918 60.2288 20.2862L55.2288 17.2862C55.0065 17.153 54.8226 16.9645 54.6949 16.7391C54.5672 16.5137 54.5 16.2591 54.5 16V10C54.5 9.60217 54.658 9.22064 54.9393 8.93933C55.2206 8.65803 55.6022 8.5 56 8.5C56.3978 8.5 56.7794 8.65803 57.0607 8.93933C57.342 9.22064 57.5 9.60217 57.5 10ZM56 3.5C54.3564 3.49576 52.7282 3.81775 51.2099 4.4473C49.6916 5.07684 48.3134 6.00143 47.155 7.1675C46.5688 7.76 46.03 8.33874 45.5 8.91749V8C45.5 7.60217 45.342 7.22064 45.0607 6.93934C44.7794 6.65803 44.3978 6.5 44 6.5C43.6022 6.5 43.2206 6.65803 42.9393 6.93934C42.658 7.22064 42.5 7.60217 42.5 8V13C42.5 13.3978 42.658 13.7794 42.9393 14.0607C43.2206 14.342 43.6022 14.5 44 14.5H49C49.3978 14.5 49.7794 14.342 50.0607 14.0607C50.342 13.7794 50.5 13.3978 50.5 13C50.5 12.6022 50.342 12.2206 50.0607 11.9393C49.7794 11.658 49.3978 11.5 49 11.5H47.2213C47.875 10.75 48.5463 10.0275 49.2825 9.2825C50.6027 7.96191 52.2828 7.05969 54.1129 6.68856C55.9429 6.31743 57.8418 6.49387 59.5721 7.19581C61.3025 7.89775 62.7876 9.09408 63.8419 10.6353C64.8962 12.1765 65.4729 13.9942 65.5 15.8613C65.5271 17.7285 65.0033 19.5622 63.9941 21.1333C62.9849 22.7044 61.5351 23.9433 59.8258 24.6951C58.1165 25.4469 56.2236 25.6783 54.3835 25.3603C52.5435 25.0424 50.8379 24.1893 49.48 22.9075C49.1906 22.6343 48.8045 22.4873 48.4067 22.4988C48.0089 22.5103 47.6319 22.6793 47.3587 22.9687C47.0856 23.2582 46.9386 23.6442 46.95 24.0421C46.9615 24.4399 47.1306 24.8168 47.42 25.09C48.9038 26.4906 50.7079 27.5067 52.6747 28.0495C54.6416 28.5923 56.7115 28.6455 58.7036 28.2042C60.6957 27.7629 62.5495 26.8407 64.1032 25.5181C65.6568 24.1954 66.8631 22.5126 67.6166 20.6164C68.3702 18.7202 68.6481 16.6684 68.4261 14.6401C68.2042 12.6118 67.489 10.6687 66.3432 8.98042C65.1974 7.29213 63.6557 5.90999 61.8528 4.95468C60.0498 3.99937 58.0404 3.49994 56 3.5Z" fill="white"/>
</g>
<defs>
<clipPath id="clip0_27_4263">
<rect width="72" height="32" rx="5" fill="white"/>
</clipPath>
</defs>
</svg>
