<svg width="72" height="32" viewBox="0 0 72 32" fill="none" xmlns="http://www.w3.org/2000/svg">
<g clip-path="url(#clip0_27_4258)">
<path d="M25.9997 12C25.9997 11.7033 26.0877 11.4133 26.2525 11.1666C26.4173 10.92 26.6516 10.7277 26.9257 10.6142C27.1998 10.5006 27.5014 10.4709 27.7923 10.5288C28.0833 10.5867 28.3506 10.7296 28.5604 10.9393C28.7701 11.1491 28.913 11.4164 28.9709 11.7074C29.0288 11.9983 28.999 12.2999 28.8855 12.574C28.772 12.8481 28.5797 13.0824 28.3331 13.2472C28.0864 13.412 27.7964 13.5 27.4997 13.5C27.1019 13.5 26.7203 13.342 26.439 13.0607C26.1577 12.7794 25.9997 12.3978 25.9997 12ZM24.4997 8.99999C24.7964 8.99999 25.0864 8.91202 25.3331 8.7472C25.5797 8.58238 25.772 8.34811 25.8855 8.07402C25.999 7.79993 26.0288 7.49833 25.9709 7.20736C25.913 6.91639 25.7701 6.64911 25.5604 6.43933C25.3506 6.22956 25.0833 6.08669 24.7923 6.02882C24.5014 5.97094 24.1998 6.00064 23.9257 6.11418C23.6516 6.22771 23.4173 6.41997 23.2525 6.66664C23.0877 6.91331 22.9997 7.20332 22.9997 7.49999C22.9997 7.89782 23.1577 8.27935 23.439 8.56066C23.7203 8.84196 24.1019 8.99999 24.4997 8.99999ZM28.0822 16C27.818 15.9782 27.556 16.0622 27.3537 16.2336C27.1514 16.4049 27.0254 16.6496 27.0034 16.9137C26.8245 19.0043 26.0521 21.0003 24.7773 22.6668C23.5025 24.3333 21.7781 25.6011 19.8073 26.3209C17.8364 27.0406 15.7009 27.1825 13.6521 26.7298C11.6033 26.2771 9.72639 25.2487 8.24226 23.7655C6.75812 22.2823 5.72849 20.4061 5.27451 18.3575C4.82052 16.309 4.96107 14.1735 5.67962 12.2021C6.39817 10.2308 7.66482 8.50565 9.33054 7.22976C10.9963 5.95387 12.9917 5.18027 15.0822 4.99999C15.2135 4.98916 15.3414 4.95257 15.4586 4.8923C15.5758 4.83204 15.6799 4.74928 15.7651 4.64877C15.8503 4.54825 15.9149 4.43193 15.9551 4.30646C15.9954 4.18099 16.0105 4.04882 15.9997 3.91749C15.9889 3.78617 15.9523 3.65827 15.892 3.54109C15.8317 3.42391 15.749 3.31975 15.6485 3.23455C15.5479 3.14935 15.4316 3.08479 15.3062 3.04454C15.1807 3.0043 15.0485 2.98916 14.9172 2.99999C12.4472 3.21245 10.0893 4.12592 8.12087 5.63294C6.15243 7.13996 4.65534 9.17782 3.80574 11.5068C2.95614 13.8357 2.78937 16.3589 3.32506 18.7794C3.86075 21.2 5.07661 23.4171 6.82959 25.1701C8.58257 26.9231 10.7997 28.1389 13.2203 28.6746C15.6408 29.2103 18.1639 29.0436 20.4929 28.194C22.8219 27.3444 24.8597 25.8473 26.3668 23.8788C27.8738 21.9104 28.7872 19.5525 28.9997 17.0825C29.011 16.9511 28.9962 16.8187 28.9561 16.6931C28.916 16.5674 28.8515 16.4509 28.7662 16.3503C28.6809 16.2497 28.5766 16.1669 28.4592 16.1068C28.3418 16.0467 28.2137 16.0104 28.0822 16ZM15.9997 6.99999C17.7797 6.99999 19.5198 7.52784 20.9998 8.51677C22.4799 9.5057 23.6334 10.9113 24.3146 12.5558C24.9958 14.2004 25.174 16.01 24.8268 17.7558C24.4795 19.5016 23.6223 21.1053 22.3637 22.364C21.105 23.6226 19.5013 24.4798 17.7555 24.8271C16.0097 25.1743 14.2001 24.9961 12.5555 24.3149C10.911 23.6337 9.5054 22.4802 8.51647 21.0001C7.52754 19.5201 6.9997 17.78 6.9997 16C7.00235 13.6139 7.95141 11.3262 9.63866 9.63896C11.3259 7.9517 13.6136 7.00264 15.9997 6.99999ZM14.9997 16C14.9997 16.2652 15.1051 16.5196 15.2926 16.7071C15.4801 16.8946 15.7345 17 15.9997 17H21.9997C22.2649 17 22.5193 16.8946 22.7068 16.7071C22.8943 16.5196 22.9997 16.2652 22.9997 16C22.9997 15.7348 22.8943 15.4804 22.7068 15.2929C22.5193 15.1054 22.2649 15 21.9997 15H16.9997V9.99999C16.9997 9.73478 16.8943 9.48042 16.7068 9.29289C16.5193 9.10535 16.2649 8.99999 15.9997 8.99999C15.7345 8.99999 15.4801 9.10535 15.2926 9.29289C15.1051 9.48042 14.9997 9.73478 14.9997 9.99999V16ZM19.9997 5.99999C20.2964 5.99999 20.5864 5.91202 20.8331 5.7472C21.0797 5.58238 21.272 5.34811 21.3855 5.07402C21.499 4.79993 21.5288 4.49833 21.4709 4.20736C21.413 3.91639 21.2701 3.64911 21.0604 3.43933C20.8506 3.22956 20.5833 3.08669 20.2923 3.02882C20.0014 2.97094 19.6998 3.00064 19.4257 3.11418C19.1516 3.22771 18.9173 3.41997 18.7525 3.66664C18.5877 3.91331 18.4997 4.20332 18.4997 4.49999C18.4997 4.89782 18.6577 5.27935 18.939 5.56066C19.2203 5.84196 19.6019 5.99999 19.9997 5.99999Z" fill="white"/>
<path d="M69.5003 17.125C69.2797 19.6901 68.331 22.1388 66.7659 24.183C65.2009 26.2272 63.0845 27.782 60.6659 28.6643C58.2472 29.5466 55.6269 29.7198 53.1132 29.1634C50.5994 28.6071 48.2969 27.3444 46.4764 25.5239C44.6559 23.7035 43.3932 21.4009 42.8369 18.8872C42.2806 16.3735 42.4538 13.7531 43.3361 11.3345C44.2184 8.91582 45.7731 6.79947 47.8173 5.2344C49.8616 3.66934 52.3103 2.72067 54.8753 2.5C55.2732 2.46685 55.6679 2.59309 55.9726 2.85095C56.2774 3.10881 56.4672 3.47718 56.5003 3.875C56.5335 4.27282 56.4073 4.66753 56.1494 4.97227C55.8915 5.27702 55.5232 5.46685 55.1253 5.5C53.1295 5.67116 51.2242 6.40882 49.6334 7.6262C48.0427 8.84357 46.8327 10.49 46.146 12.3717C45.4593 14.2534 45.3244 16.2922 45.7571 18.248C46.1898 20.2038 47.1721 21.9954 48.5886 23.4118C50.005 24.8282 51.7965 25.8106 53.7523 26.2433C55.7082 26.676 57.7469 26.541 59.6286 25.8543C61.5103 25.1676 63.1568 23.9577 64.3741 22.3669C65.5915 20.7762 66.3292 18.8708 66.5003 16.875C66.5168 16.678 66.5718 16.4862 66.6624 16.3105C66.7529 16.1348 66.8772 15.9786 67.0281 15.851C67.179 15.7233 67.3535 15.6266 67.5418 15.5663C67.7301 15.5061 67.9284 15.4836 68.1253 15.5C68.3223 15.5164 68.5141 15.5715 68.6899 15.662C68.8656 15.7526 69.0217 15.8768 69.1494 16.0277C69.2771 16.1786 69.3738 16.3532 69.434 16.5415C69.4942 16.7297 69.5168 16.928 69.5003 17.125ZM54.5003 9.5V16C54.5003 16.3978 54.6584 16.7794 54.9397 17.0607C55.221 17.342 55.6025 17.5 56.0003 17.5H62.5003C62.8982 17.5 63.2797 17.342 63.561 17.0607C63.8423 16.7794 64.0003 16.3978 64.0003 16C64.0003 15.6022 63.8423 15.2206 63.561 14.9393C63.2797 14.658 62.8982 14.5 62.5003 14.5H57.5003V9.5C57.5003 9.10218 57.3423 8.72064 57.061 8.43934C56.7797 8.15804 56.3982 8 56.0003 8C55.6025 8 55.221 8.15804 54.9397 8.43934C54.6584 8.72064 54.5003 9.10218 54.5003 9.5ZM66.0003 12C66.3959 12 66.7826 11.8827 67.1115 11.6629C67.4404 11.4432 67.6967 11.1308 67.8481 10.7654C67.9995 10.3999 68.0391 9.99778 67.9619 9.60982C67.8847 9.22186 67.6943 8.86549 67.4146 8.58579C67.1348 8.30608 66.7785 8.1156 66.3905 8.03843C66.0026 7.96126 65.6004 8.00087 65.235 8.15224C64.8695 8.30362 64.5572 8.55996 64.3374 8.88886C64.1176 9.21776 64.0003 9.60444 64.0003 10C64.0003 10.5304 64.2111 11.0391 64.5861 11.4142C64.9612 11.7893 65.4699 12 66.0003 12ZM62.0003 8C62.3959 8 62.7826 7.8827 63.1115 7.66294C63.4404 7.44318 63.6967 7.13082 63.8481 6.76537C63.9995 6.39991 64.0391 5.99778 63.9619 5.60982C63.8847 5.22186 63.6943 4.86549 63.4146 4.58579C63.1348 4.30608 62.7785 4.1156 62.3905 4.03843C62.0026 3.96126 61.6004 4.00087 61.235 4.15224C60.8695 4.30362 60.5572 4.55996 60.3374 4.88886C60.1176 5.21776 60.0003 5.60444 60.0003 6C60.0003 6.53043 60.2111 7.03914 60.5861 7.41421C60.9612 7.78929 61.4699 8 62.0003 8Z" fill="white"/>
</g>
<defs>
<clipPath id="clip0_27_4258">
<rect width="72" height="32" rx="5" fill="white"/>
</clipPath>
</defs>
</svg>
