<svg width="72" height="32" viewBox="0 0 72 32" fill="none" xmlns="http://www.w3.org/2000/svg">
<g clip-path="url(#clip0_27_4253)">
<path d="M17.0002 10V15.4338L21.5152 18.1425C21.7426 18.2791 21.9065 18.5004 21.9707 18.7578C22.0349 19.0152 21.9943 19.2876 21.8577 19.515C21.7211 19.7424 21.4998 19.9063 21.2424 19.9705C20.985 20.0347 20.7126 19.9941 20.4852 19.8575L15.4852 16.8575C15.3372 16.7686 15.2148 16.6429 15.1298 16.4926C15.0448 16.3424 15.0001 16.1726 15.0002 16V10C15.0002 9.73479 15.1056 9.48044 15.2931 9.2929C15.4806 9.10536 15.735 9.00001 16.0002 9.00001C16.2654 9.00001 16.5198 9.10536 16.7073 9.2929C16.8948 9.48044 17.0002 9.73479 17.0002 10ZM28.3827 7.07626C28.2 7.00046 27.9989 6.98055 27.8049 7.01904C27.6109 7.05753 27.4326 7.1527 27.2927 7.29251L25.7502 8.83876C25.3465 8.40001 24.9302 7.96376 24.4877 7.51501C22.82 5.84714 20.6978 4.7077 18.3862 4.23907C16.0747 3.77044 13.6763 3.9934 11.4907 4.88009C9.30511 5.76678 7.42929 7.27787 6.09762 9.22456C4.76595 11.1712 4.03747 13.4672 4.00322 15.8255C3.96897 18.1839 4.63045 20.5 5.90503 22.4846C7.1796 24.4691 9.01074 26.0341 11.1696 26.9838C13.3285 27.9336 15.7195 28.2262 18.0437 27.8249C20.3679 27.4236 22.5223 26.3462 24.2377 24.7275C24.3332 24.6372 24.4101 24.529 24.4638 24.409C24.5175 24.2891 24.547 24.1597 24.5508 24.0283C24.5545 23.8969 24.5323 23.7661 24.4854 23.6432C24.4386 23.5204 24.368 23.408 24.2777 23.3125C24.1874 23.217 24.0792 23.1402 23.9592 23.0864C23.8393 23.0327 23.7099 23.0032 23.5785 22.9994C23.4471 22.9957 23.3162 23.0179 23.1934 23.0648C23.0706 23.1116 22.9582 23.1822 22.8627 23.2725C21.4333 24.6212 19.6382 25.5189 17.7016 25.8534C15.765 26.1878 13.7728 25.9442 11.9738 25.153C10.1749 24.3618 8.64891 23.058 7.58661 21.4046C6.5243 19.7512 5.97274 17.8214 6.00081 15.8564C6.02889 13.8913 6.63537 11.9781 7.74447 10.3557C8.85358 8.73329 10.4162 7.47367 12.237 6.73418C14.0578 5.99468 16.0562 5.8081 17.9824 6.19775C19.9087 6.58739 21.6774 7.53597 23.0677 8.92501C23.5102 9.37251 23.9264 9.81251 24.3314 10.2538L22.2927 12.2925C22.1527 12.4324 22.0573 12.6106 22.0187 12.8047C21.98 12.9988 21.9998 13.2 22.0756 13.3828C22.1513 13.5656 22.2796 13.7219 22.4442 13.8317C22.6088 13.9416 22.8023 14.0002 23.0002 14H28.0002C28.2654 14 28.5198 13.8946 28.7073 13.7071C28.8948 13.5196 29.0002 13.2652 29.0002 13V8.00001C29.0002 7.80223 28.9415 7.6089 28.8316 7.44447C28.7216 7.28005 28.5654 7.15191 28.3827 7.07626Z" fill="white"/>
<path d="M57.4996 10V15.1512L61.7708 17.7138C61.9436 17.8131 62.0948 17.9459 62.2156 18.1043C62.3364 18.2628 62.4245 18.4437 62.4746 18.6366C62.5247 18.8294 62.5359 19.0304 62.5075 19.2276C62.4792 19.4248 62.4118 19.6144 62.3093 19.7853C62.2068 19.9562 62.0713 20.105 61.9107 20.2229C61.7501 20.3409 61.5676 20.4256 61.3739 20.4723C61.1802 20.5189 60.9791 20.5265 60.7824 20.4945C60.5857 20.4626 60.3974 20.3918 60.2283 20.2862L55.2284 17.2862C55.0061 17.153 54.8222 16.9646 54.6945 16.7391C54.5668 16.5137 54.4997 16.2591 54.4996 16V10C54.4996 9.60218 54.6576 9.22064 54.9389 8.93934C55.2202 8.65804 55.6018 8.5 55.9996 8.5C56.3974 8.5 56.779 8.65804 57.0603 8.93934C57.3416 9.22064 57.4996 9.60218 57.4996 10ZM67.9996 6.5C67.6018 6.5 67.2202 6.65804 66.9389 6.93934C66.6576 7.22064 66.4996 7.60218 66.4996 8V8.92125C65.9733 8.3375 65.4271 7.7575 64.8384 7.16125C63.101 5.42409 60.8903 4.23743 58.4823 3.74953C56.0744 3.26163 53.5761 3.49414 51.2996 4.41799C49.0231 5.34185 47.0693 6.91609 45.6823 8.94401C44.2953 10.9719 43.5368 13.3636 43.5013 15.8202C43.4659 18.2768 44.1551 20.6894 45.483 22.7565C46.8108 24.8236 48.7184 26.4535 50.9673 27.4427C53.2162 28.4319 55.7068 28.7364 58.1278 28.3181C60.5488 27.8999 62.7928 26.7776 64.5796 25.0912C64.869 24.8181 65.0381 24.4411 65.0495 24.0433C65.061 23.6455 64.914 23.2594 64.6409 22.97C64.3677 22.6806 63.9907 22.5115 63.5929 22.5C63.1951 22.4886 62.809 22.6356 62.5196 22.9088C61.1619 24.1901 59.4567 25.043 57.6172 25.3609C55.7776 25.6788 53.8851 25.4477 52.1761 24.6964C50.4671 23.9451 49.0173 22.7069 48.0078 21.1365C46.9984 19.5661 46.474 17.7331 46.5002 15.8664C46.5264 13.9997 47.102 12.1822 48.1551 10.6407C49.2082 9.09921 50.6921 7.90219 52.4215 7.19912C54.151 6.49606 56.0492 6.31812 57.8791 6.68754C59.7091 7.05695 61.3896 7.95734 62.7108 9.27625C63.4508 10.025 64.1246 10.75 64.7783 11.5H62.9996C62.6018 11.5 62.2202 11.658 61.9389 11.9393C61.6576 12.2206 61.4996 12.6022 61.4996 13C61.4996 13.3978 61.6576 13.7794 61.9389 14.0607C62.2202 14.342 62.6018 14.5 62.9996 14.5H67.9996C68.3974 14.5 68.779 14.342 69.0603 14.0607C69.3416 13.7794 69.4996 13.3978 69.4996 13V8C69.4996 7.60218 69.3416 7.22064 69.0603 6.93934C68.779 6.65804 68.3974 6.5 67.9996 6.5Z" fill="white"/>
</g>
<defs>
<clipPath id="clip0_27_4253">
<rect width="72" height="32" rx="5" fill="white"/>
</clipPath>
</defs>
</svg>
