<svg width="72" height="32" viewBox="0 0 72 32" fill="none" xmlns="http://www.w3.org/2000/svg">
<g clip-path="url(#clip0_27_3674)">
<path d="M28 6H4C3.46957 6 2.96086 6.21071 2.58579 6.58579C2.21071 6.96086 2 7.46957 2 8V24C2 24.5304 2.21071 25.0391 2.58579 25.4142C2.96086 25.7893 3.46957 26 4 26H28C28.5304 26 29.0391 25.7893 29.4142 25.4142C29.7893 25.0391 30 24.5304 30 24V8C30 7.46957 29.7893 6.96086 29.4142 6.58579C29.0391 6.21071 28.5304 6 28 6ZM14.5 20.33C13.7399 20.7689 12.8777 21 12 21C11.1223 21 10.26 20.769 9.49989 20.3302C8.73976 19.8914 8.10855 19.2602 7.66968 18.5001C7.23082 17.7399 6.99978 16.8777 6.99978 16C6.99978 15.1223 7.23082 14.2601 7.66968 13.4999C8.10855 12.7398 8.73976 12.1086 9.49989 11.6698C10.26 11.231 11.1223 11 12 11C12.8777 11 13.7399 11.2311 14.5 11.67C14.6174 11.7337 14.7208 11.8203 14.8041 11.9246C14.8875 12.029 14.9491 12.1489 14.9853 12.2775C15.0215 12.406 15.0316 12.5405 15.0151 12.673C14.9985 12.8055 14.9555 12.9333 14.8887 13.049C14.8219 13.1646 14.7327 13.2657 14.6262 13.3463C14.5197 13.4268 14.3981 13.4853 14.2687 13.5181C14.1392 13.5509 14.0045 13.5575 13.8725 13.5374C13.7405 13.5174 13.6138 13.4711 13.5 13.4012C13.0439 13.1382 12.5267 12.9998 12.0002 13C11.4737 13.0002 10.9565 13.1389 10.5006 13.4023C10.0447 13.6656 9.66612 14.0443 9.40292 14.5003C9.13973 14.9563 9.00117 15.4735 9.00117 16C9.00117 16.5265 9.13973 17.0437 9.40292 17.4997C9.66612 17.9557 10.0447 18.3344 10.5006 18.5977C10.9565 18.8611 11.4737 18.9998 12.0002 19C12.5267 19.0002 13.0439 18.8618 13.5 18.5987C13.7291 18.4744 13.9976 18.4443 14.2485 18.5151C14.4994 18.5858 14.7128 18.7517 14.8431 18.9774C14.9735 19.2031 15.0106 19.4708 14.9465 19.7234C14.8824 19.9761 14.7222 20.1937 14.5 20.33ZM24.5 20.33C23.7399 20.7689 22.8777 21 22 21C21.1223 21 20.26 20.769 19.4999 20.3302C18.7398 19.8914 18.1085 19.2602 17.6697 18.5001C17.2308 17.7399 16.9998 16.8777 16.9998 16C16.9998 15.1223 17.2308 14.2601 17.6697 13.4999C18.1085 12.7398 18.7398 12.1086 19.4999 11.6698C20.26 11.231 21.1223 11 22 11C22.8777 11 23.7399 11.2311 24.5 11.67C24.6174 11.7337 24.7208 11.8203 24.8041 11.9246C24.8875 12.029 24.9491 12.1489 24.9853 12.2775C25.0215 12.406 25.0316 12.5405 25.0151 12.673C24.9985 12.8055 24.9555 12.9333 24.8887 13.049C24.8219 13.1646 24.7327 13.2657 24.6262 13.3463C24.5197 13.4268 24.3981 13.4853 24.2687 13.5181C24.1392 13.5509 24.0045 13.5575 23.8725 13.5374C23.7405 13.5174 23.6138 13.4711 23.5 13.4012C23.0439 13.1382 22.5267 12.9998 22.0002 13C21.4737 13.0002 20.9565 13.1389 20.5006 13.4023C20.0447 13.6656 19.6661 14.0443 19.4029 14.5003C19.1397 14.9563 19.0012 15.4735 19.0012 16C19.0012 16.5265 19.1397 17.0437 19.4029 17.4997C19.6661 17.9557 20.0447 18.3344 20.5006 18.5977C20.9565 18.8611 21.4737 18.9998 22.0002 19C22.5267 19.0002 23.0439 18.8618 23.5 18.5987C23.7291 18.4744 23.9976 18.4443 24.2485 18.5151C24.4994 18.5858 24.7128 18.7517 24.8431 18.9774C24.9735 19.2031 25.0106 19.4708 24.9465 19.7234C24.8824 19.9761 24.7222 20.1937 24.5 20.33Z" fill="white"/>
<path d="M68 5.5H44C43.337 5.5 42.7011 5.76339 42.2322 6.23223C41.7634 6.70107 41.5 7.33696 41.5 8V24C41.5 24.663 41.7634 25.2989 42.2322 25.7678C42.7011 26.2366 43.337 26.5 44 26.5H68C68.663 26.5 69.2989 26.2366 69.7678 25.7678C70.2366 25.2989 70.5 24.663 70.5 24V8C70.5 7.33696 70.2366 6.70107 69.7678 6.23223C69.2989 5.76339 68.663 5.5 68 5.5ZM67.5 23.5H44.5V8.5H67.5V23.5ZM46.5 16C46.4999 15.0345 46.7539 14.086 47.2366 13.2498C47.7193 12.4136 48.4136 11.7192 49.2497 11.2364C50.0859 10.7536 51.0343 10.4994 51.9998 10.4994C52.9654 10.4994 53.9138 10.7535 54.75 11.2362C55.0868 11.439 55.3305 11.7658 55.4287 12.1465C55.5269 12.5271 55.4719 12.931 55.2753 13.2714C55.0787 13.6118 54.7564 13.8615 54.3776 13.9666C53.9988 14.0718 53.5939 14.0241 53.25 13.8337C52.8699 13.6148 52.4389 13.4997 52.0003 13.5C51.5616 13.5003 51.1308 13.616 50.751 13.8355C50.3713 14.055 50.0559 14.3706 49.8367 14.7505C49.6175 15.1304 49.5021 15.5614 49.5021 16C49.5021 16.4386 49.6175 16.8696 49.8367 17.2495C50.0559 17.6294 50.3713 17.945 50.751 18.1645C51.1308 18.384 51.5616 18.4997 52.0003 18.5C52.4389 18.5003 52.8699 18.3852 53.25 18.1663C53.4208 18.0601 53.6111 17.9893 53.8098 17.9581C54.0084 17.927 54.2113 17.9361 54.4064 17.9849C54.6014 18.0337 54.7847 18.1213 54.9453 18.2423C55.1058 18.3634 55.2404 18.5155 55.341 18.6896C55.4416 18.8637 55.5061 19.0563 55.5308 19.2558C55.5555 19.4554 55.5398 19.6579 55.4847 19.8513C55.4296 20.0447 55.3361 20.225 55.2099 20.3815C55.0837 20.538 54.9273 20.6676 54.75 20.7625C53.9139 21.2452 52.9656 21.4993 52.0002 21.4994C51.0348 21.4994 50.0864 21.2453 49.2503 20.7627C48.4142 20.28 47.7199 19.5858 47.2371 18.7498C46.7543 17.9138 46.5001 16.9654 46.5 16ZM56.5 16C56.4999 15.0345 56.7539 14.086 57.2366 13.2498C57.7193 12.4136 58.4136 11.7192 59.2497 11.2364C60.0859 10.7536 61.0343 10.4994 61.9998 10.4994C62.9654 10.4994 63.9138 10.7535 64.75 11.2362C65.0868 11.439 65.3305 11.7658 65.4287 12.1465C65.5269 12.5271 65.4718 12.931 65.2753 13.2714C65.0787 13.6118 64.7564 13.8615 64.3776 13.9666C63.9988 14.0718 63.5939 14.0241 63.25 13.8337C62.8699 13.6148 62.4389 13.4997 62.0003 13.5C61.5616 13.5003 61.1308 13.616 60.751 13.8355C60.3713 14.055 60.0559 14.3706 59.8367 14.7505C59.6175 15.1304 59.5021 15.5614 59.5021 16C59.5021 16.4386 59.6175 16.8696 59.8367 17.2495C60.0559 17.6294 60.3713 17.945 60.751 18.1645C61.1308 18.384 61.5616 18.4997 62.0003 18.5C62.4389 18.5003 62.8699 18.3852 63.25 18.1663C63.4208 18.0601 63.6111 17.9893 63.8098 17.9581C64.0084 17.927 64.2113 17.9361 64.4064 17.9849C64.6014 18.0337 64.7847 18.1213 64.9453 18.2423C65.1058 18.3634 65.2404 18.5155 65.341 18.6896C65.4416 18.8637 65.5061 19.0563 65.5308 19.2558C65.5555 19.4554 65.5398 19.6579 65.4847 19.8513C65.4296 20.0447 65.3361 20.225 65.2099 20.3815C65.0837 20.538 64.9273 20.6676 64.75 20.7625C63.9139 21.2452 62.9656 21.4993 62.0002 21.4994C61.0348 21.4994 60.0864 21.2453 59.2503 20.7627C58.4142 20.28 57.7199 19.5858 57.2371 18.7498C56.7543 17.9138 56.5001 16.9654 56.5 16Z" fill="white"/>
</g>
<defs>
<clipPath id="clip0_27_3674">
<rect width="72" height="32" rx="5" fill="white"/>
</clipPath>
</defs>
</svg>
