<svg width="72" height="32" viewBox="0 0 72 32" fill="none" xmlns="http://www.w3.org/2000/svg">
<g clip-path="url(#clip0_27_2109)">
<path d="M11.0001 24.5C11.0001 24.7967 10.9121 25.0867 10.7473 25.3334C10.5825 25.58 10.3482 25.7723 10.0741 25.8858C9.80005 25.9994 9.49845 26.0291 9.20748 25.9712C8.9165 25.9133 8.64923 25.7704 8.43945 25.5607C8.22967 25.3509 8.08681 25.0836 8.02893 24.7926C7.97106 24.5017 8.00076 24.2001 8.11429 23.926C8.22782 23.6519 8.42008 23.4176 8.66676 23.2528C8.91343 23.088 9.20344 23 9.50011 23C9.89794 23 10.2795 23.158 10.5608 23.4393C10.8421 23.7207 11.0001 24.1022 11.0001 24.5ZM14.5001 25C14.2034 25 13.9134 25.088 13.6668 25.2528C13.4201 25.4176 13.2278 25.6519 13.1143 25.926C13.0008 26.2001 12.9711 26.5017 13.0289 26.7926C13.0868 27.0836 13.2297 27.3509 13.4395 27.5607C13.6492 27.7704 13.9165 27.9133 14.2075 27.9712C14.4984 28.0291 14.8 27.9994 15.0741 27.8858C15.3482 27.7723 15.5825 27.58 15.7473 27.3334C15.9121 27.0867 16.0001 26.7967 16.0001 26.5C16.0001 26.1022 15.8421 25.7207 15.5608 25.4393C15.2795 25.158 14.8979 25 14.5001 25ZM20.5001 23C20.2034 23 19.9134 23.088 19.6668 23.2528C19.4201 23.4176 19.2278 23.6519 19.1143 23.926C19.0008 24.2001 18.9711 24.5017 19.0289 24.7926C19.0868 25.0836 19.2297 25.3509 19.4395 25.5607C19.6492 25.7704 19.9165 25.9133 20.2075 25.9712C20.4984 26.0291 20.8 25.9994 21.0741 25.8858C21.3482 25.7723 21.5825 25.58 21.7473 25.3334C21.9121 25.0867 22.0001 24.7967 22.0001 24.5C22.0001 24.1022 21.8421 23.7207 21.5608 23.4393C21.2795 23.158 20.8979 23 20.5001 23ZM8.50011 28C8.20344 28 7.91343 28.088 7.66676 28.2528C7.42008 28.4176 7.22782 28.6519 7.11429 28.926C7.00076 29.2001 6.97106 29.5017 7.02893 29.7926C7.08681 30.0836 7.22967 30.3509 7.43945 30.5607C7.64923 30.7704 7.9165 30.9133 8.20748 30.9712C8.49845 31.0291 8.80005 30.9994 9.07414 30.8858C9.34823 30.7723 9.58249 30.58 9.74732 30.3334C9.91214 30.0867 10.0001 29.7967 10.0001 29.5C10.0001 29.1022 9.84208 28.7207 9.56077 28.4393C9.27947 28.158 8.89794 28 8.50011 28ZM19.5001 28C19.2034 28 18.9134 28.088 18.6668 28.2528C18.4201 28.4176 18.2278 28.6519 18.1143 28.926C18.0008 29.2001 17.9711 29.5017 18.0289 29.7926C18.0868 30.0836 18.2297 30.3509 18.4395 30.5607C18.6492 30.7704 18.9165 30.9133 19.2075 30.9712C19.4984 31.0291 19.8 30.9994 20.0741 30.8858C20.3482 30.7723 20.5825 30.58 20.7473 30.3334C20.9121 30.0867 21.0001 29.7967 21.0001 29.5C21.0001 29.1022 20.8421 28.7207 20.5608 28.4393C20.2795 28.158 19.8979 28 19.5001 28ZM28.9839 10.9438C28.8419 8.51644 27.7747 6.23594 26.0019 4.57183C24.2292 2.90772 21.8858 1.98669 19.4544 1.99839C17.0229 2.01008 14.6885 2.95361 12.9319 4.6347C11.1752 6.31578 10.1299 8.60644 10.0114 11.035C9.99678 11.2942 9.88417 11.5381 9.69638 11.7173C9.50859 11.8965 9.25967 11.9976 9.00011 12H8.92511C8.66113 11.9764 8.41677 11.8508 8.24402 11.6498C8.07126 11.4488 7.98376 11.1883 8.00011 10.9238C8.03486 10.2285 8.13234 9.53775 8.29136 8.86001C8.31188 8.77491 8.30969 8.68591 8.28503 8.60192C8.26036 8.51794 8.21408 8.44189 8.1508 8.3814C8.08753 8.32091 8.00948 8.27809 7.92447 8.25723C7.83945 8.23636 7.75045 8.23818 7.66636 8.26251C6.31273 8.66243 5.1257 9.49139 4.28409 10.6245C3.44247 11.7576 2.99186 13.1336 3.00011 14.545C3.02511 18.1338 6.01511 21 9.60511 21H19.5001C20.7941 20.9986 22.0742 20.7331 23.262 20.2198C24.4498 19.7065 25.5204 18.9562 26.4082 18.0148C27.296 17.0734 27.9823 15.9607 28.4252 14.7449C28.8681 13.529 29.0582 12.2356 28.9839 10.9438Z" fill="white"/>
<path d="M63 26C63 26.3956 62.8827 26.7822 62.6629 27.1111C62.4432 27.44 62.1308 27.6964 61.7654 27.8478C61.3999 27.9991 60.9978 28.0387 60.6098 27.9616C60.2219 27.8844 59.8655 27.6939 59.5858 27.4142C59.3061 27.1345 59.1156 26.7781 59.0384 26.3902C58.9613 26.0022 59.0009 25.6001 59.1522 25.2346C59.3036 24.8692 59.56 24.5568 59.8889 24.3371C60.2178 24.1173 60.6044 24 61 24C61.5304 24 62.0391 24.2107 62.4142 24.5858C62.7893 24.9609 63 25.4696 63 26ZM55 24C54.6044 24 54.2178 24.1173 53.8889 24.3371C53.56 24.5568 53.3036 24.8692 53.1522 25.2346C53.0009 25.6001 52.9613 26.0022 53.0384 26.3902C53.1156 26.7781 53.3061 27.1345 53.5858 27.4142C53.8655 27.6939 54.2219 27.8844 54.6098 27.9616C54.9978 28.0387 55.3999 27.9991 55.7654 27.8478C56.1308 27.6964 56.4432 27.44 56.6629 27.1111C56.8827 26.7822 57 26.3956 57 26C57 25.4696 56.7893 24.9609 56.4142 24.5858C56.0391 24.2107 55.5304 24 55 24ZM49 24C48.6044 24 48.2178 24.1173 47.8889 24.3371C47.56 24.5568 47.3036 24.8692 47.1522 25.2346C47.0009 25.6001 46.9613 26.0022 47.0384 26.3902C47.1156 26.7781 47.3061 27.1345 47.5858 27.4142C47.8655 27.6939 48.2219 27.8844 48.6098 27.9616C48.9978 28.0387 49.3999 27.9991 49.7654 27.8478C50.1308 27.6964 50.4432 27.44 50.6629 27.1111C50.8827 26.7822 51 26.3956 51 26C51 25.4696 50.7893 24.9609 50.4142 24.5858C50.0391 24.2107 49.5304 24 49 24ZM69.5 11.5C69.497 14.1513 68.4425 16.6931 66.5678 18.5678C64.6931 20.4425 62.1513 21.497 59.5 21.5H49.5C47.6435 21.5 45.863 20.7625 44.5503 19.4498C43.2375 18.137 42.5 16.3565 42.5 14.5C42.5 12.6435 43.2375 10.863 44.5503 9.55026C45.863 8.2375 47.6435 7.50001 49.5 7.50001C49.7669 7.49997 50.0336 7.51499 50.2987 7.54501C51.2108 5.43084 52.8237 3.69571 54.8658 2.63206C56.9079 1.56841 59.2543 1.24128 61.5094 1.70579C63.7646 2.17029 65.7907 3.39805 67.2462 5.18212C68.7017 6.9662 69.4977 9.19751 69.5 11.5ZM66.5 11.5C66.489 9.68474 65.774 7.94458 64.5055 6.64599C63.237 5.3474 61.5141 4.59172 59.6996 4.5381C57.8851 4.48447 56.1206 5.13708 54.7777 6.3585C53.4347 7.57991 52.6182 9.27481 52.5 11.0863C52.4771 11.4841 52.2972 11.8565 51.9997 12.1217C51.7022 12.3868 51.3116 12.5229 50.9137 12.5C50.5159 12.4771 50.1435 12.2972 49.8784 11.9997C49.6132 11.7022 49.4771 11.3116 49.5 10.9138C49.5075 10.775 49.5188 10.6375 49.5325 10.5H49.5C48.4391 10.5 47.4217 10.9214 46.6716 11.6716C45.9214 12.4217 45.5 13.4391 45.5 14.5C45.5 15.5609 45.9214 16.5783 46.6716 17.3284C47.4217 18.0786 48.4391 18.5 49.5 18.5H59.5C61.3559 18.498 63.1352 17.7599 64.4476 16.4476C65.7599 15.1352 66.498 13.3559 66.5 11.5Z" fill="white"/>
</g>
<defs>
<clipPath id="clip0_27_2109">
<rect width="72" height="32" rx="5" fill="white"/>
</clipPath>
</defs>
</svg>
