<svg width="72" height="32" viewBox="0 0 72 32" fill="none" xmlns="http://www.w3.org/2000/svg">
<g clip-path="url(#clip0_27_2605)">
<path d="M30.9912 15.565C30.7637 9.6925 25.8837 5 20.0075 5C17.9634 5.00032 15.9597 5.56958 14.2207 6.64404C12.4817 7.71851 11.0761 9.25577 10.1613 11.0837C9.40087 12.5992 9.00332 14.2707 9 15.9663C9.00392 16.2239 8.91043 16.4735 8.73823 16.6652C8.56603 16.8568 8.32782 16.9764 8.07125 17C7.93406 17.0098 7.79632 16.9912 7.66665 16.9453C7.53698 16.8995 7.41816 16.8274 7.31762 16.7335C7.21708 16.6397 7.13698 16.5261 7.08233 16.3999C7.02768 16.2737 6.99965 16.1375 7 16C6.99894 14.6013 7.22436 13.2116 7.6675 11.885C7.6967 11.7999 7.70241 11.7086 7.68404 11.6205C7.66566 11.5325 7.62388 11.451 7.5631 11.3848C7.50232 11.3185 7.42478 11.2698 7.33866 11.2439C7.25254 11.218 7.16102 11.2158 7.07375 11.2375C5.34103 11.6694 3.80227 12.6678 2.70185 14.0742C1.60143 15.4805 1.00244 17.2143 1 19C1 23.3988 4.71875 27 9.125 27H20C21.4807 26.9984 22.9459 26.6982 24.3079 26.1173C25.6699 25.5364 26.9007 24.6868 27.9268 23.6193C28.9529 22.5518 29.7531 21.2883 30.2797 19.9044C30.8062 18.5205 31.0482 17.0446 30.9912 15.565ZM23.7075 19.2925C23.8004 19.3854 23.8741 19.4957 23.9244 19.6171C23.9747 19.7385 24.0006 19.8686 24.0006 20C24.0006 20.1314 23.9747 20.2615 23.9244 20.3829C23.8741 20.5043 23.8004 20.6146 23.7075 20.7075C23.6146 20.8004 23.5043 20.8741 23.3829 20.9244C23.2615 20.9747 23.1314 21.0006 23 21.0006C22.8686 21.0006 22.7385 20.9747 22.6171 20.9244C22.4957 20.8741 22.3854 20.8004 22.2925 20.7075L20 18.4137L17.7075 20.7075C17.5199 20.8951 17.2654 21.0006 17 21.0006C16.7346 21.0006 16.4801 20.8951 16.2925 20.7075C16.1049 20.5199 15.9994 20.2654 15.9994 20C15.9994 19.7346 16.1049 19.4801 16.2925 19.2925L18.5863 17L16.2925 14.7075C16.1049 14.5199 15.9994 14.2654 15.9994 14C15.9994 13.7346 16.1049 13.4801 16.2925 13.2925C16.4801 13.1049 16.7346 12.9994 17 12.9994C17.2654 12.9994 17.5199 13.1049 17.7075 13.2925L20 15.5863L22.2925 13.2925C22.3854 13.1996 22.4957 13.1259 22.6171 13.0756C22.7385 13.0253 22.8686 12.9994 23 12.9994C23.1314 12.9994 23.2615 13.0253 23.3829 13.0756C23.5043 13.1259 23.6146 13.1996 23.7075 13.2925C23.8004 13.3854 23.8741 13.4957 23.9244 13.6171C23.9747 13.7385 24.0006 13.8686 24.0006 14C24.0006 14.1314 23.9747 14.2615 23.9244 14.3829C23.8741 14.5043 23.8004 14.6146 23.7075 14.7075L21.4137 17L23.7075 19.2925Z" fill="white"/>
<path d="M59.9999 4.5C57.924 4.50101 55.887 5.06337 54.1046 6.12754C52.3222 7.1917 50.8607 8.71806 49.8749 10.545C48.7281 10.4265 47.569 10.5426 46.4684 10.8862C45.3678 11.2298 44.3486 11.7937 43.4728 12.5437C42.5971 13.2936 41.883 14.2139 41.3741 15.2485C40.8653 16.2831 40.5722 17.4105 40.5128 18.5619C40.4533 19.7134 40.6288 20.8649 41.0285 21.9464C41.4281 23.0279 42.0437 24.0168 42.8376 24.8529C43.6315 25.689 44.5873 26.3549 45.6467 26.8099C46.706 27.265 47.847 27.4998 48.9999 27.5H59.9999C63.0499 27.5 65.975 26.2884 68.1317 24.1317C70.2883 21.9751 71.4999 19.05 71.4999 16C71.4999 12.95 70.2883 10.0249 68.1317 7.86827C65.975 5.7116 63.0499 4.5 59.9999 4.5ZM59.9999 24.5H48.9999C47.5413 24.5302 46.1303 23.9796 45.0775 22.9695C44.0248 21.9594 43.4164 20.5724 43.3862 19.1138C43.356 17.6551 43.9066 16.2441 44.9167 15.1913C45.9268 14.1386 47.3138 13.5302 48.7724 13.5C48.5904 14.3208 48.499 15.1592 48.4999 16C48.4999 16.3978 48.658 16.7794 48.9393 17.0607C49.2206 17.342 49.6021 17.5 49.9999 17.5C50.3978 17.5 50.7793 17.342 51.0606 17.0607C51.3419 16.7794 51.4999 16.3978 51.4999 16C51.4999 14.3189 51.9985 12.6755 52.9325 11.2777C53.8664 9.87984 55.194 8.79037 56.7471 8.14702C58.3003 7.50368 60.0094 7.33535 61.6582 7.66333C63.3071 7.9913 64.8216 8.80085 66.0104 9.98959C67.1991 11.1783 68.0086 12.6929 68.3366 14.3417C68.6646 15.9906 68.4963 17.6996 67.8529 19.2528C67.2096 20.806 66.1201 22.1335 64.7223 23.0675C63.3245 24.0015 61.6811 24.5 59.9999 24.5ZM64.0612 14.5612L62.1249 16.5L64.0649 18.4387C64.3467 18.7205 64.5051 19.1027 64.5051 19.5012C64.5051 19.8998 64.3467 20.282 64.0649 20.5637C63.7832 20.8455 63.401 21.0039 63.0024 21.0039C62.6039 21.0039 62.2217 20.8455 61.9399 20.5637L59.9999 18.625L58.0612 20.565C57.9217 20.7045 57.756 20.8152 57.5737 20.8907C57.3914 20.9662 57.196 21.0051 56.9987 21.0051C56.8014 21.0051 56.606 20.9662 56.4237 20.8907C56.2414 20.8152 56.0757 20.7045 55.9362 20.565C55.7967 20.4255 55.686 20.2598 55.6105 20.0775C55.535 19.8952 55.4961 19.6998 55.4961 19.5025C55.4961 19.3052 55.535 19.1098 55.6105 18.9275C55.686 18.7452 55.7967 18.5795 55.9362 18.44L57.8749 16.5L55.9349 14.5612C55.6532 14.2795 55.4948 13.8973 55.4948 13.4987C55.4948 13.1002 55.6532 12.718 55.9349 12.4362C56.2167 12.1545 56.5989 11.9961 56.9974 11.9961C57.396 11.9961 57.7782 12.1545 58.0599 12.4362L59.9999 14.375L61.9387 12.435C62.2205 12.1532 62.6027 11.9949 63.0012 11.9949C63.3997 11.9949 63.7819 12.1532 64.0637 12.435C64.3455 12.7168 64.5038 13.099 64.5038 13.4975C64.5038 13.896 64.3455 14.2782 64.0637 14.56L64.0612 14.5612Z" fill="white"/>
</g>
<defs>
<clipPath id="clip0_27_2605">
<rect width="72" height="32" rx="5" fill="white"/>
</clipPath>
</defs>
</svg>
