<svg width="72" height="32" viewBox="0 0 72 32" fill="none" xmlns="http://www.w3.org/2000/svg">
<g clip-path="url(#clip0_27_2595)">
<path d="M31 16.09C30.9785 18.9638 29.8299 21.7144 27.8013 23.75C27.7533 23.7973 27.6962 23.8344 27.6335 23.8591C27.5708 23.8838 27.5037 23.8956 27.4364 23.8937C27.369 23.8919 27.3027 23.8764 27.2415 23.8483C27.1802 23.8201 27.1253 23.7799 27.08 23.73L12.9725 8.20874C12.9271 8.1589 12.8923 8.10039 12.8701 8.03674C12.8479 7.97309 12.8388 7.9056 12.8434 7.83835C12.8479 7.77109 12.866 7.70545 12.8966 7.64537C12.9272 7.58529 12.9696 7.53201 13.0213 7.48874C15.0176 5.85151 17.5271 4.9703 20.1088 4.99999C26.1438 5.05874 31.0475 10.0537 31 16.09ZM6.74001 4.32749C6.65219 4.2285 6.5456 4.14792 6.42641 4.09043C6.30722 4.03294 6.17781 3.99967 6.04567 3.99256C5.91353 3.98545 5.78129 4.00464 5.65662 4.04902C5.53195 4.09339 5.41733 4.16207 5.3194 4.25107C5.22147 4.34007 5.14217 4.44762 5.08611 4.56749C5.03006 4.68736 4.99834 4.81716 4.99282 4.94938C4.9873 5.08159 5.00807 5.21359 5.05393 5.33772C5.0998 5.46184 5.16985 5.57563 5.26001 5.67249L10.1663 11.07L10.1588 11.0837C9.01181 10.9157 7.84204 10.9989 6.73043 11.3276C5.61882 11.6564 4.59192 12.2227 3.72083 12.9875C2.84974 13.7523 2.15525 14.6973 1.68546 15.757C1.21567 16.8168 0.98179 17.9659 1.00001 19.125C1.06626 23.515 4.73001 27 9.12501 27H20C21.3588 27.0006 22.7059 26.7484 23.9725 26.2562L25.26 27.6725C25.3486 27.77 25.4555 27.8491 25.5747 27.9052C25.6939 27.9613 25.823 27.9933 25.9546 27.9993C26.0862 28.0054 26.2177 27.9854 26.3416 27.9404C26.4654 27.8955 26.5792 27.8265 26.6763 27.7375C26.867 27.5486 26.9773 27.2932 26.984 27.0248C26.9908 26.7564 26.8935 26.4958 26.7125 26.2975L6.74001 4.32749Z" fill="white"/>
<path d="M47.11 3.99125C46.9782 3.84277 46.8183 3.7219 46.6396 3.63566C46.4608 3.54942 46.2666 3.49952 46.0684 3.48886C45.8702 3.4782 45.6719 3.50698 45.4849 3.57354C45.2979 3.6401 45.1259 3.74312 44.979 3.87661C44.8321 4.01011 44.7132 4.17144 44.6291 4.35124C44.545 4.53105 44.4974 4.72575 44.4892 4.92408C44.4809 5.1224 44.512 5.3204 44.5808 5.50659C44.6496 5.69278 44.7547 5.86347 44.89 6.00875L48.9737 10.5C46.7194 10.5035 44.5587 11.4024 42.9671 12.9989C41.3755 14.5954 40.4833 16.7588 40.4868 19.0131C40.4903 21.2675 41.3892 23.4281 42.9857 25.0197C44.5822 26.6113 46.7456 27.5035 49 27.5H60C61.3055 27.5026 62.6018 27.281 63.8325 26.845L64.89 28.0088C65.1589 28.2977 65.5309 28.4689 65.9252 28.4854C66.3196 28.5019 66.7046 28.3622 66.9967 28.0968C67.2888 27.8313 67.4645 27.4614 67.4857 27.0673C67.5069 26.6731 67.3719 26.2865 67.11 25.9913L47.11 3.99125ZM60 24.5H49C47.5668 24.4909 46.1938 23.9228 45.1733 22.9166C44.1527 21.9104 43.5652 20.5455 43.5359 19.1127C43.5066 17.6798 44.0377 16.292 45.0162 15.2449C45.9948 14.1978 47.3434 13.574 48.775 13.5063C48.5925 14.325 48.5003 15.1612 48.5 16C48.5 16.3978 48.658 16.7794 48.9393 17.0607C49.2206 17.342 49.6021 17.5 50 17.5C50.3978 17.5 50.7793 17.342 51.0606 17.0607C51.3419 16.7794 51.5 16.3978 51.5 16C51.5002 15.2033 51.6122 14.4106 51.8325 13.645L61.5675 24.3538C61.0505 24.4504 60.5258 24.4994 60 24.5ZM71.5 16C71.5053 18.4257 70.7378 20.79 69.3087 22.75C69.1943 22.913 69.0487 23.0515 68.8802 23.1576C68.7118 23.2637 68.5239 23.3352 68.3275 23.3679C68.1311 23.4007 67.9302 23.394 67.7364 23.3482C67.5426 23.3025 67.3599 23.2187 67.1989 23.1016C67.0379 22.9846 66.9017 22.8366 66.7985 22.6664C66.6952 22.4962 66.6268 22.3071 66.5974 22.1103C66.5679 21.9134 66.578 21.7126 66.6269 21.5196C66.6759 21.3266 66.7627 21.1453 66.8825 20.9863C68.0309 19.4051 68.5994 17.4766 68.4924 15.5254C68.3853 13.5741 67.6092 11.7193 66.2947 10.2734C64.9802 8.82736 63.2076 7.87846 61.2754 7.58643C59.3432 7.29439 57.3693 7.67706 55.6862 8.67C55.3443 8.86109 54.9413 8.91089 54.5632 8.80874C54.185 8.7066 53.8619 8.46062 53.6627 8.12337C53.4636 7.78612 53.4042 7.38435 53.4974 7.00393C53.5905 6.62351 53.8288 6.2946 54.1612 6.0875C55.9082 5.05795 57.8964 4.50864 59.9241 4.49528C61.9519 4.48191 63.9471 5.00495 65.7076 6.01138C67.468 7.01781 68.931 8.47183 69.9483 10.226C70.9655 11.9802 71.5008 13.9722 71.5 16Z" fill="white"/>
</g>
<defs>
<clipPath id="clip0_27_2595">
<rect width="72" height="32" rx="5" fill="white"/>
</clipPath>
</defs>
</svg>
