<svg width="72" height="32" viewBox="0 0 72 32" fill="none" xmlns="http://www.w3.org/2000/svg">
<g clip-path="url(#clip0_27_2580)">
<path d="M30.9912 15.565C30.7637 9.6925 25.8837 5 20.0075 5C17.9634 5.00032 15.9597 5.56958 14.2207 6.64404C12.4817 7.71851 11.0761 9.25577 10.1613 11.0837C9.40087 12.5992 9.00332 14.2707 9 15.9663C9.00392 16.2239 8.91043 16.4735 8.73823 16.6652C8.56603 16.8568 8.32782 16.9764 8.07125 17C7.93406 17.0098 7.79632 16.9912 7.66665 16.9453C7.53698 16.8995 7.41816 16.8274 7.31762 16.7335C7.21708 16.6397 7.13698 16.5261 7.08233 16.3999C7.02768 16.2737 6.99965 16.1375 7 16C6.99894 14.6013 7.22436 13.2116 7.6675 11.885C7.6967 11.7999 7.70241 11.7086 7.68404 11.6205C7.66566 11.5325 7.62388 11.451 7.5631 11.3848C7.50232 11.3185 7.42478 11.2698 7.33866 11.2439C7.25254 11.218 7.16102 11.2158 7.07375 11.2375C5.34103 11.6694 3.80227 12.6678 2.70185 14.0742C1.60143 15.4805 1.00244 17.2143 1 19C1 23.3988 4.71875 27 9.125 27H20C21.4807 26.9984 22.9459 26.6982 24.3079 26.1173C25.6699 25.5364 26.9007 24.6868 27.9268 23.6193C28.9529 22.5518 29.7531 21.2883 30.2797 19.9044C30.8062 18.5205 31.0482 17.0446 30.9912 15.565ZM24.7075 18.7075L20.7075 22.7075C20.6146 22.8005 20.5043 22.8742 20.3829 22.9246C20.2615 22.9749 20.1314 23.0008 20 23.0008C19.8686 23.0008 19.7385 22.9749 19.6171 22.9246C19.4957 22.8742 19.3854 22.8005 19.2925 22.7075L15.2925 18.7075C15.1049 18.5199 14.9994 18.2654 14.9994 18C14.9994 17.7346 15.1049 17.4801 15.2925 17.2925C15.4801 17.1049 15.7346 16.9994 16 16.9994C16.2654 16.9994 16.5199 17.1049 16.7075 17.2925L19 19.5863V12C19 11.7348 19.1054 11.4804 19.2929 11.2929C19.4804 11.1054 19.7348 11 20 11C20.2652 11 20.5196 11.1054 20.7071 11.2929C20.8946 11.4804 21 11.7348 21 12V19.5863L23.2925 17.2925C23.4801 17.1049 23.7346 16.9994 24 16.9994C24.2654 16.9994 24.5199 17.1049 24.7075 17.2925C24.8951 17.4801 25.0006 17.7346 25.0006 18C25.0006 18.2654 24.8951 18.5199 24.7075 18.7075Z" fill="white"/>
<path d="M64.0614 20.9387C64.2013 21.0781 64.3122 21.2437 64.3879 21.426C64.4636 21.6083 64.5026 21.8038 64.5026 22.0012C64.5026 22.1987 64.4636 22.3941 64.3879 22.5765C64.3122 22.7588 64.2013 22.9244 64.0614 23.0637L60.0614 27.0637C59.9221 27.2036 59.7565 27.3145 59.5742 27.3903C59.3918 27.466 59.1964 27.5049 58.9989 27.5049C58.8015 27.5049 58.606 27.466 58.4237 27.3903C58.2414 27.3145 58.0758 27.2036 57.9364 27.0637L53.9364 23.0637C53.7969 22.9242 53.6862 22.7586 53.6107 22.5763C53.5352 22.394 53.4963 22.1986 53.4963 22.0012C53.4963 21.8039 53.5352 21.6085 53.6107 21.4262C53.6862 21.2439 53.7969 21.0783 53.9364 20.9387C54.076 20.7992 54.2416 20.6885 54.4239 20.613C54.6062 20.5375 54.8016 20.4986 54.9989 20.4986C55.1963 20.4986 55.3917 20.5375 55.574 20.613C55.7563 20.6885 55.9219 20.7992 56.0614 20.9387L57.5002 22.375V16C57.5002 15.6022 57.6582 15.2206 57.9395 14.9393C58.2208 14.658 58.6024 14.5 59.0002 14.5C59.398 14.5 59.7795 14.658 60.0608 14.9393C60.3421 15.2206 60.5002 15.6022 60.5002 16V22.375L61.9389 20.935C62.0785 20.7958 62.2441 20.6854 62.4263 20.6103C62.6086 20.5351 62.8038 20.4966 63.001 20.4969C63.1981 20.4973 63.3932 20.5365 63.5752 20.6123C63.7571 20.6881 63.9224 20.799 64.0614 20.9387ZM60.0002 4.5C57.9241 4.501 55.887 5.06349 54.1045 6.1279C52.3221 7.1923 50.8607 8.71899 49.8752 10.5463C48.7275 10.426 47.5673 10.5408 46.4653 10.8835C45.3634 11.2262 44.3428 11.7898 43.4657 12.5397C42.5886 13.2897 41.8734 14.2104 41.3638 15.2458C40.8541 16.2811 40.5605 17.4094 40.501 18.5619C40.4416 19.7144 40.6174 20.8669 41.0178 21.9492C41.4182 23.0315 42.0348 24.021 42.83 24.8573C43.6252 25.6935 44.5824 26.3591 45.6432 26.8135C46.704 27.2678 47.8462 27.5014 49.0002 27.5H50.5002C50.898 27.5 51.2795 27.342 51.5608 27.0607C51.8422 26.7794 52.0002 26.3978 52.0002 26C52.0002 25.6022 51.8422 25.2206 51.5608 24.9393C51.2795 24.658 50.898 24.5 50.5002 24.5H49.0002C47.567 24.4912 46.1938 23.9233 45.173 22.9172C44.1522 21.9111 43.5645 20.5462 43.5351 19.1133C43.5056 17.6803 44.0366 16.2924 45.0151 15.2452C45.9936 14.1979 47.3423 13.574 48.7739 13.5063C48.5917 14.325 48.4999 15.1612 48.5002 16C48.5002 16.3978 48.6582 16.7794 48.9395 17.0607C49.2208 17.342 49.6024 17.5 50.0002 17.5C50.398 17.5 50.7795 17.342 51.0608 17.0607C51.3422 16.7794 51.5002 16.3978 51.5002 16C51.5002 13.7457 52.3957 11.5837 53.9898 9.98959C55.5838 8.39553 57.7458 7.5 60.0002 7.5C62.2545 7.5 64.4165 8.39553 66.0106 9.98959C67.6047 11.5837 68.5002 13.7457 68.5002 16C68.5043 17.3283 68.1938 18.6386 67.5939 19.8237C67.5019 19.9999 67.4457 20.1925 67.4288 20.3906C67.4118 20.5886 67.4344 20.788 67.4951 20.9772C67.5559 21.1664 67.6536 21.3417 67.7827 21.4928C67.9118 21.6439 68.0696 21.7679 68.247 21.8575C68.4244 21.9471 68.6178 22.0006 68.816 22.0148C69.0142 22.029 69.2133 22.0037 69.4017 21.9403C69.59 21.8769 69.7639 21.7767 69.9132 21.6455C70.0625 21.5144 70.1843 21.3549 70.2714 21.1763C71.0841 19.5721 71.5051 17.7982 71.5002 16C71.4969 12.951 70.2842 10.0279 68.1283 7.87193C65.9723 5.71597 63.0492 4.50331 60.0002 4.5Z" fill="white"/>
</g>
<defs>
<clipPath id="clip0_27_2580">
<rect width="72" height="32" rx="5" fill="white"/>
</clipPath>
</defs>
</svg>
