<svg width="72" height="32" viewBox="0 0 72 32" fill="none" xmlns="http://www.w3.org/2000/svg">
<g clip-path="url(#clip0_27_2114)">
<path d="M20.4999 9C19.6443 8.99948 18.7924 9.11426 17.9674 9.34125C17.6418 8.80988 17.2461 8.3247 16.7912 7.89875L17.9799 6.2025C18.0553 6.0949 18.1087 5.97351 18.1371 5.84526C18.1656 5.71702 18.1684 5.58443 18.1456 5.45506C18.1228 5.3257 18.0748 5.2021 18.0042 5.09131C17.9336 4.98052 17.8419 4.88472 17.7343 4.80937C17.6267 4.73403 17.5053 4.68061 17.3771 4.65218C17.2488 4.62375 17.1162 4.62085 16.9869 4.64366C16.8575 4.66647 16.7339 4.71453 16.6231 4.78511C16.5123 4.85569 16.4165 4.9474 16.3412 5.055L15.1524 6.75C14.1749 6.25642 13.095 5.99951 11.9999 6C11.9262 6 11.8549 6 11.7824 6L11.4212 3.96375C11.4022 3.83107 11.3568 3.70355 11.2876 3.58878C11.2183 3.47401 11.1268 3.37432 11.0183 3.29564C10.9098 3.21696 10.7865 3.1609 10.6559 3.13078C10.5253 3.10067 10.39 3.09711 10.258 3.12033C10.126 3.14354 10 3.19305 9.88754 3.26592C9.77505 3.33879 9.67836 3.43353 9.60321 3.54451C9.52806 3.65549 9.47599 3.78044 9.45009 3.91194C9.42418 4.04344 9.42498 4.17881 9.45243 4.31L9.81243 6.3525C8.70337 6.71932 7.70352 7.35739 6.90368 8.20875L5.20118 7.0175C5.09366 6.9403 4.97189 6.88521 4.84292 6.85544C4.71396 6.82566 4.58036 6.82178 4.44988 6.84402C4.3194 6.86627 4.19464 6.91419 4.08282 6.98502C3.97101 7.05585 3.87437 7.14817 3.7985 7.25663C3.72264 7.36509 3.66906 7.48753 3.64087 7.61686C3.61269 7.74618 3.61046 7.87982 3.63431 8.01001C3.65816 8.1402 3.70763 8.26437 3.77983 8.3753C3.85203 8.48623 3.94554 8.58173 4.05493 8.65625L5.74993 9.84625C5.2546 10.8236 4.9976 11.9043 4.99993 13C4.99993 13.0712 4.99993 13.1437 4.99993 13.215L2.96368 13.575C2.71721 13.6182 2.49589 13.7522 2.34339 13.9506C2.1909 14.1489 2.11832 14.3973 2.13999 14.6466C2.16165 14.8959 2.27598 15.128 2.46041 15.2971C2.64484 15.4662 2.88596 15.56 3.13618 15.56C3.19441 15.5599 3.25254 15.5549 3.30993 15.545L5.34993 15.185C5.52917 15.7307 5.7752 16.2522 6.08243 16.7375C5.12592 17.626 4.4591 18.7818 4.1688 20.0546C3.87851 21.3274 3.9782 22.6581 4.45489 23.8735C4.93158 25.0888 5.76318 26.1324 6.84139 26.8684C7.9196 27.6045 9.19445 27.9988 10.4999 28H20.4999C23.0195 28 25.4358 26.9991 27.2174 25.2175C28.999 23.4359 29.9999 21.0196 29.9999 18.5C29.9999 15.9804 28.999 13.5641 27.2174 11.7825C25.4358 10.0009 23.0195 9 20.4999 9ZM11.6149 15.095C10.3004 14.8681 8.94781 15.05 7.73993 15.6162C7.07154 14.5123 6.85591 13.1926 7.13812 11.9333C7.42034 10.674 8.17855 9.57258 9.25415 8.85944C10.3298 8.1463 11.6395 7.87667 12.9093 8.10695C14.1791 8.33722 15.3107 9.04958 16.0674 10.095C14.0275 11.1685 12.4457 12.9448 11.6149 15.095Z" fill="white"/>
<path d="M60.5 8.5C59.723 8.50007 58.9486 8.59026 58.1925 8.76875C57.9675 8.44012 57.7167 8.12997 57.4425 7.84125L58.3887 6.48875C58.617 6.16287 58.7064 5.75965 58.6374 5.36782C58.5683 4.97599 58.3465 4.62763 58.0206 4.39937C57.6947 4.17112 57.2915 4.08168 56.8997 4.15071C56.5078 4.21975 56.1595 4.44162 55.9312 4.7675L54.9837 6.125C54.1049 5.74018 53.1602 5.52799 52.2012 5.5L51.9137 3.875C51.8377 3.48984 51.6137 3.14983 51.2899 2.92795C50.966 2.70607 50.568 2.62001 50.1814 2.68824C49.7948 2.75646 49.4503 2.97354 49.222 3.29287C48.9936 3.6122 48.8995 4.00834 48.96 4.39625L49.2475 6.02125C48.3561 6.37549 47.5409 6.89742 46.8462 7.55875L45.4887 6.6075C45.1628 6.37925 44.7596 6.2898 44.3678 6.35884C43.9759 6.42788 43.6276 6.64974 43.3993 6.97563C43.1711 7.30151 43.0816 7.70472 43.1507 8.09655C43.2197 8.48839 43.4416 8.83675 43.7675 9.065L45.125 10.0138C44.7391 10.8918 44.5269 11.8363 44.5 12.795L42.875 13.0825C42.5053 13.1473 42.1733 13.3483 41.9445 13.6459C41.7158 13.9434 41.6069 14.3159 41.6394 14.6899C41.6719 15.0638 41.8434 15.4119 42.1201 15.6656C42.3967 15.9193 42.7584 16.06 43.1337 16.06C43.2217 16.0598 43.3095 16.0523 43.3962 16.0375L45.0212 15.75C45.1439 16.0614 45.2876 16.3642 45.4512 16.6562C44.5022 17.6463 43.865 18.8934 43.6186 20.2425C43.3722 21.5916 43.5276 22.9834 44.0654 24.245C44.6032 25.5066 45.4997 26.5824 46.6436 27.3388C47.7876 28.0953 49.1285 28.4991 50.5 28.5H60.5C63.1521 28.5 65.6957 27.4464 67.571 25.5711C69.4464 23.6957 70.5 21.1522 70.5 18.5C70.5 15.8478 69.4464 13.3043 67.571 11.4289C65.6957 9.55357 63.1521 8.5 60.5 8.5ZM52 8.5C52.6214 8.5005 53.236 8.6297 53.805 8.87947C54.3741 9.12925 54.8852 9.49417 55.3062 9.95125C53.5268 11.0305 52.1265 12.6356 51.2987 14.545C51.0335 14.5149 50.7668 14.4999 50.5 14.5C49.6305 14.4999 48.7686 14.6623 47.9587 14.9788C47.6228 14.2927 47.4671 13.5325 47.5062 12.7696C47.5453 12.0068 47.778 11.2665 48.1822 10.6184C48.5865 9.97029 49.1491 9.43577 49.817 9.06516C50.4849 8.69455 51.2361 8.50006 52 8.5ZM60.5 25.5H50.5C49.4391 25.5 48.4217 25.0786 47.6715 24.3284C46.9214 23.5783 46.5 22.5609 46.5 21.5C46.5 20.4391 46.9214 19.4217 47.6715 18.6716C48.4217 17.9214 49.4391 17.5 50.5 17.5H50.535C50.5212 17.6375 50.51 17.775 50.5025 17.9125C50.4793 18.3103 50.615 18.7011 50.8799 18.9988C51.1448 19.2965 51.5171 19.4768 51.915 19.5C52.3128 19.5232 52.7035 19.3874 53.0012 19.1225C53.299 18.8576 53.4793 18.4853 53.5025 18.0875C53.5289 17.6231 53.6018 17.1624 53.72 16.7125L53.7387 16.6437C54.0833 15.3837 54.7733 14.2451 55.7307 13.3565C56.6882 12.4678 57.8749 11.8644 59.1571 11.6145C60.4392 11.3645 61.7657 11.4779 62.9869 11.9419C64.208 12.4059 65.2751 13.2019 66.0678 14.2402C66.8605 15.2785 67.3472 16.5177 67.4729 17.818C67.5986 19.1182 67.3584 20.4277 66.7794 21.5986C66.2004 22.7696 65.3056 23.7554 64.196 24.4447C63.0864 25.1341 61.8063 25.4996 60.5 25.5Z" fill="white"/>
</g>
<defs>
<clipPath id="clip0_27_2114">
<rect width="72" height="32" rx="5" fill="white"/>
</clipPath>
</defs>
</svg>
