<svg width="72" height="32" viewBox="0 0 72 32" fill="none" xmlns="http://www.w3.org/2000/svg">
<g clip-path="url(#clip0_27_2585)">
<path d="M30.9912 15.565C30.7637 9.6925 25.8837 5 20.0075 5C17.9634 5.00032 15.9597 5.56958 14.2207 6.64404C12.4817 7.71851 11.0761 9.25577 10.1613 11.0837C9.40087 12.5992 9.00332 14.2707 9 15.9663C9.00392 16.2239 8.91043 16.4735 8.73823 16.6652C8.56603 16.8568 8.32782 16.9764 8.07125 17C7.93406 17.0098 7.79632 16.9912 7.66665 16.9453C7.53698 16.8995 7.41816 16.8274 7.31762 16.7335C7.21708 16.6397 7.13698 16.5261 7.08233 16.3999C7.02768 16.2737 6.99965 16.1375 7 16C6.99894 14.6013 7.22436 13.2116 7.6675 11.885C7.6967 11.7999 7.70241 11.7086 7.68404 11.6205C7.66566 11.5325 7.62388 11.451 7.5631 11.3848C7.50232 11.3185 7.42478 11.2698 7.33866 11.2439C7.25254 11.218 7.16102 11.2158 7.07375 11.2375C5.34103 11.6694 3.80227 12.6678 2.70185 14.0742C1.60143 15.4805 1.00244 17.2143 1 19C1 23.3988 4.71875 27 9.125 27H20C21.4807 26.9984 22.9459 26.6982 24.3079 26.1173C25.6699 25.5364 26.9007 24.6868 27.9268 23.6193C28.9529 22.5518 29.7531 21.2883 30.2797 19.9044C30.8062 18.5205 31.0482 17.0446 30.9912 15.565ZM24.7075 16.7075C24.6146 16.8005 24.5043 16.8742 24.3829 16.9246C24.2615 16.9749 24.1314 17.0008 24 17.0008C23.8686 17.0008 23.7385 16.9749 23.6171 16.9246C23.4957 16.8742 23.3854 16.8005 23.2925 16.7075L21 14.4137V22C21 22.2652 20.8946 22.5196 20.7071 22.7071C20.5196 22.8946 20.2652 23 20 23C19.7348 23 19.4804 22.8946 19.2929 22.7071C19.1054 22.5196 19 22.2652 19 22V14.4137L16.7075 16.7075C16.5199 16.8951 16.2654 17.0006 16 17.0006C15.7346 17.0006 15.4801 16.8951 15.2925 16.7075C15.1049 16.5199 14.9994 16.2654 14.9994 16C14.9994 15.7346 15.1049 15.4801 15.2925 15.2925L19.2925 11.2925C19.3854 11.1995 19.4957 11.1258 19.6171 11.0754C19.7385 11.0251 19.8686 10.9992 20 10.9992C20.1314 10.9992 20.2615 11.0251 20.3829 11.0754C20.5043 11.1258 20.6146 11.1995 20.7075 11.2925L24.7075 15.2925C24.8005 15.3854 24.8742 15.4957 24.9246 15.6171C24.9749 15.7385 25.0008 15.8686 25.0008 16C25.0008 16.1314 24.9749 16.2615 24.9246 16.3829C24.8742 16.5043 24.8005 16.6146 24.7075 16.7075Z" fill="white"/>
<path d="M64.5614 18.9387C64.8432 19.2205 65.0015 19.6027 65.0015 20.0012C65.0015 20.3998 64.8432 20.782 64.5614 21.0637C64.2796 21.3455 63.8975 21.5039 63.4989 21.5039C63.1004 21.5039 62.7182 21.3455 62.4364 21.0637L61.0002 19.625V26C61.0002 26.3978 60.8421 26.7794 60.5608 27.0607C60.2795 27.342 59.898 27.5 59.5002 27.5C59.1024 27.5 58.7208 27.342 58.4395 27.0607C58.1582 26.7794 58.0002 26.3978 58.0002 26V19.625L56.5614 21.065C56.2796 21.3468 55.8975 21.5051 55.4989 21.5051C55.1004 21.5051 54.7182 21.3468 54.4364 21.065C54.1546 20.7832 53.9963 20.401 53.9963 20.0025C53.9963 19.604 54.1546 19.2218 54.4364 18.94L58.4364 14.94C58.5758 14.8002 58.7414 14.6892 58.9237 14.6135C59.106 14.5378 59.3015 14.4988 59.4989 14.4988C59.6964 14.4988 59.8918 14.5378 60.0742 14.6135C60.2565 14.6892 60.4221 14.8002 60.5614 14.94L64.5614 18.9387ZM60.0002 4.5C57.9241 4.501 55.887 5.06349 54.1045 6.1279C52.3221 7.1923 50.8607 8.71899 49.8752 10.5463C48.7275 10.426 47.5673 10.5408 46.4653 10.8835C45.3634 11.2262 44.3428 11.7898 43.4657 12.5397C42.5886 13.2897 41.8734 14.2104 41.3638 15.2458C40.8541 16.2811 40.5605 17.4094 40.501 18.5619C40.4416 19.7144 40.6174 20.8669 41.0178 21.9492C41.4182 23.0315 42.0348 24.021 42.83 24.8573C43.6252 25.6935 44.5824 26.3591 45.6432 26.8135C46.704 27.2678 47.8462 27.5014 49.0002 27.5H52.5002C52.898 27.5 53.2795 27.342 53.5608 27.0607C53.8422 26.7794 54.0002 26.3978 54.0002 26C54.0002 25.6022 53.8422 25.2206 53.5608 24.9393C53.2795 24.658 52.898 24.5 52.5002 24.5H49.0002C47.567 24.4912 46.1938 23.9233 45.173 22.9172C44.1522 21.9111 43.5645 20.5462 43.5351 19.1133C43.5056 17.6803 44.0366 16.2924 45.0151 15.2452C45.9936 14.1979 47.3423 13.574 48.7739 13.5063C48.5917 14.325 48.4999 15.1612 48.5002 16C48.5002 16.3978 48.6582 16.7794 48.9395 17.0607C49.2208 17.342 49.6024 17.5 50.0002 17.5C50.398 17.5 50.7795 17.342 51.0608 17.0607C51.3422 16.7794 51.5002 16.3978 51.5002 16C51.5012 14.7704 51.769 13.5556 52.2851 12.4396C52.8012 11.3235 53.5533 10.3327 54.4894 9.53552C55.4256 8.73834 56.5236 8.15376 57.7077 7.82213C58.8917 7.49049 60.1336 7.41969 61.3477 7.61462C62.5617 7.80955 63.719 8.26556 64.7398 8.95119C65.7605 9.63681 66.6203 10.5357 67.2599 11.5859C67.8994 12.6361 68.3035 13.8125 68.4443 15.0341C68.5851 16.2556 68.4591 17.4931 68.0752 18.6612C68.0135 18.8484 67.9894 19.0458 68.004 19.2423C68.0187 19.4388 68.0719 19.6304 68.1607 19.8064C68.2494 19.9823 68.3719 20.139 68.5212 20.2675C68.6705 20.3961 68.8437 20.494 69.0308 20.5556C69.2179 20.6173 69.4154 20.6414 69.6119 20.6268C69.8083 20.6121 70 20.5589 70.1759 20.4701C70.3518 20.3814 70.5085 20.2589 70.6371 20.1096C70.7657 19.9603 70.8635 19.7871 70.9252 19.6C71.4929 17.8723 71.6431 16.0346 71.3634 14.2376C71.0837 12.4406 70.382 10.7355 69.316 9.26208C68.25 7.78866 66.8499 6.58888 65.2306 5.76111C63.6113 4.93335 61.8188 4.50116 60.0002 4.5Z" fill="white"/>
</g>
<defs>
<clipPath id="clip0_27_2585">
<rect width="72" height="32" rx="5" fill="white"/>
</clipPath>
</defs>
</svg>
