<svg width="72" height="32" viewBox="0 0 72 32" fill="none" xmlns="http://www.w3.org/2000/svg">
<g clip-path="url(#clip0_27_2099)">
<path d="M21.5001 8.99999C20.9826 8.9997 20.4659 9.0415 19.9551 9.12499C19.7734 7.24794 19.0062 5.47552 17.7619 4.05848C16.5176 2.64144 14.8592 1.65151 13.0214 1.22874C12.8563 1.19082 12.6843 1.19544 12.5215 1.24217C12.3588 1.28889 12.2105 1.37619 12.0907 1.49588C11.9709 1.61557 11.8834 1.76372 11.8366 1.92645C11.7897 2.08918 11.7849 2.26115 11.8226 2.42624C12.0581 3.45232 12.0594 4.51829 11.8263 5.54493C11.5932 6.57157 11.1318 7.53249 10.4763 8.35627C9.82077 9.18005 8.98803 9.84552 8.03997 10.3032C7.0919 10.7609 6.05287 10.9991 5.00011 11C4.47053 11.0001 3.94262 10.9405 3.42636 10.8225C3.26118 10.7845 3.08905 10.7891 2.92615 10.8359C2.76324 10.8827 2.61489 10.9701 2.49504 11.0899C2.37519 11.2098 2.28777 11.3581 2.24099 11.521C2.19421 11.6839 2.18961 11.8561 2.22761 12.0212C2.49625 13.1797 2.99112 14.2736 3.68379 15.2402C4.37645 16.2068 5.25326 17.027 6.26386 17.6537C5.55311 18.622 5.12456 19.7683 5.02576 20.9654C4.92697 22.1624 5.1618 23.3635 5.70418 24.4352C6.24657 25.5069 7.07531 26.4073 8.09841 27.0366C9.12152 27.6658 10.299 27.9993 11.5001 28H21.5001C24.0197 28 26.436 26.9991 28.2176 25.2175C29.9992 23.4359 31.0001 21.0195 31.0001 18.5C31.0001 15.9804 29.9992 13.5641 28.2176 11.7825C26.436 10.0009 24.0197 8.99999 21.5001 8.99999ZM4.67136 13C4.78011 13 4.89011 13 5.00011 13C7.38624 12.9973 9.67389 12.0483 11.3611 10.361C13.0484 8.67378 13.9975 6.38613 14.0001 3.99999C14.0001 3.88874 14.0001 3.77749 14.0001 3.66624C15.1525 4.20572 16.1347 5.05098 16.84 6.11C17.5453 7.16903 17.9466 8.40124 18.0001 9.67249C16.7792 10.1583 15.6716 10.8909 14.7467 11.8243C13.8219 12.7578 13.0996 13.8721 12.6251 15.0975C12.2536 15.0327 11.8772 15 11.5001 15C10.1558 14.9998 8.84497 15.4188 7.75011 16.1987C6.40517 15.4932 5.32499 14.3709 4.67136 13Z" fill="white"/>
<path d="M61.5001 8.5C61.2926 8.5 61.0864 8.5075 60.8814 8.52C60.5876 6.64778 59.7401 4.90636 58.448 3.52001C57.1559 2.13366 55.4783 1.16586 53.6314 0.741252C53.3838 0.684673 53.1259 0.691878 52.8819 0.762192C52.6378 0.832505 52.4157 0.963624 52.2361 1.14326C52.0566 1.3229 51.9257 1.54517 51.8555 1.78925C51.7854 2.03333 51.7784 2.29122 51.8351 2.53875C52.0816 3.61303 52.0511 4.73233 51.7466 5.79161C51.442 6.85089 50.8733 7.81544 50.0939 8.59475C49.3145 9.37406 48.3498 9.94258 47.2905 10.247C46.2312 10.5514 45.1119 10.5817 44.0376 10.335C43.7899 10.2783 43.5319 10.2855 43.2877 10.3559C43.0436 10.4263 42.8213 10.5575 42.6417 10.7373C42.4622 10.9171 42.3312 11.1396 42.2612 11.3838C42.1912 11.6281 42.1844 11.8861 42.2414 12.1338C42.7454 14.2852 43.978 16.1961 45.7301 17.5425C45.0097 18.5936 44.5898 19.8214 44.5158 21.0936C44.4419 22.3658 44.7165 23.634 45.3103 24.7615C45.904 25.889 46.7943 26.8331 47.8851 27.4919C48.9759 28.1507 50.2258 28.4993 51.5001 28.5H61.5001C64.1523 28.5 66.6958 27.4464 68.5712 25.5711C70.4465 23.6957 71.5001 21.1522 71.5001 18.5C71.5001 15.8478 70.4465 13.3043 68.5712 11.4289C66.6958 9.55357 64.1523 8.5 61.5001 8.5ZM54.9864 4.5C55.792 5.00811 56.4752 5.6882 56.9869 6.4915C57.4987 7.29479 57.8263 8.20139 57.9464 9.14625C56.6927 9.62291 55.5471 10.3457 54.5772 11.2721C53.6073 12.1984 52.8326 13.3096 52.2989 14.54C52.0336 14.5116 51.7669 14.4982 51.5001 14.5C50.2596 14.499 49.0413 14.8296 47.9714 15.4575C47.1875 14.9467 46.5215 14.2747 46.0176 13.4863C48.3567 13.3555 50.5653 12.3662 52.2202 10.708C53.8752 9.04984 54.8601 6.83934 54.9864 4.5ZM61.5001 25.5H51.5001C50.4392 25.5 49.4218 25.0786 48.6717 24.3284C47.9215 23.5783 47.5001 22.5609 47.5001 21.5C47.5001 20.4391 47.9215 19.4217 48.6717 18.6716C49.4218 17.9214 50.4392 17.5 51.5001 17.5H51.5351C51.5214 17.6375 51.5101 17.775 51.5026 17.9125C51.4794 18.3103 51.6152 18.7011 51.8801 18.9988C52.145 19.2965 52.5173 19.4768 52.9151 19.5C53.3129 19.5232 53.7037 19.3874 54.0014 19.1225C54.2991 18.8576 54.4794 18.4853 54.5026 18.0875C54.5291 17.6231 54.6019 17.1624 54.7201 16.7125L54.7389 16.6438C55.0835 15.3837 55.7735 14.2451 56.7309 13.3565C57.6883 12.4678 58.8751 11.8644 60.1572 11.6145C61.4394 11.3645 62.7659 11.4779 63.987 11.9419C65.2081 12.4059 66.2753 13.2019 67.0679 14.2402C67.8606 15.2785 68.3473 16.5177 68.473 17.818C68.5988 19.1182 68.3586 20.4277 67.7796 21.5986C67.2006 22.7696 66.3057 23.7554 65.1962 24.4448C64.0866 25.1341 62.8064 25.4996 61.5001 25.5Z" fill="white"/>
</g>
<defs>
<clipPath id="clip0_27_2099">
<rect width="72" height="32" rx="5" fill="white"/>
</clipPath>
</defs>
</svg>
