<svg width="72" height="32" viewBox="0 0 72 32" fill="none" xmlns="http://www.w3.org/2000/svg">
<g clip-path="url(#clip0_27_2104)">
<path d="M19.8326 24.555L15.8326 30.555C15.7597 30.6643 15.666 30.7582 15.5569 30.8313C15.4477 30.9045 15.3252 30.9553 15.1963 30.9811C14.9361 31.0332 14.6659 30.9797 14.4451 30.8325C14.2243 30.6853 14.071 30.4564 14.019 30.1962C13.967 29.936 14.0204 29.6658 14.1676 29.445L18.1676 23.445C18.3148 23.2242 18.5437 23.0709 18.8039 23.0189C19.0641 22.9669 19.3343 23.0203 19.5551 23.1675C19.7759 23.3147 19.9292 23.5436 19.9812 23.8038C20.0333 24.064 19.9798 24.3342 19.8326 24.555ZM28.9839 10.9438C28.8419 8.51644 27.7747 6.23594 26.0019 4.57183C24.2292 2.90772 21.8858 1.98669 19.4544 1.99839C17.0229 2.01008 14.6885 2.95361 12.9319 4.6347C11.1752 6.31578 10.1299 8.60644 10.0114 11.035C9.99678 11.2942 9.88417 11.5381 9.69638 11.7173C9.50859 11.8965 9.25967 11.9976 9.00011 12H8.92511C8.66113 11.9764 8.41677 11.8508 8.24402 11.6498C8.07126 11.4488 7.98376 11.1883 8.00011 10.9238C8.03486 10.2285 8.13234 9.53775 8.29136 8.86001C8.31188 8.77491 8.30969 8.68591 8.28503 8.60192C8.26036 8.51794 8.21408 8.44189 8.1508 8.3814C8.08753 8.32091 8.00948 8.27809 7.92447 8.25723C7.83945 8.23636 7.75045 8.23818 7.66636 8.26251C6.31273 8.66243 5.1257 9.49139 4.28409 10.6245C3.44247 11.7576 2.99186 13.1336 3.00011 14.545C3.02511 18.1338 6.01511 21 9.60511 21H14.1314L11.1676 25.445C11.0204 25.6658 10.967 25.936 11.019 26.1962C11.071 26.4564 11.2243 26.6853 11.4451 26.8325C11.6659 26.9797 11.9361 27.0332 12.1963 26.9811C12.4565 26.9291 12.6854 26.7758 12.8326 26.555L16.5351 21H19.5001C20.7941 20.9986 22.0742 20.7331 23.262 20.2198C24.4498 19.7065 25.5204 18.9562 26.4082 18.0148C27.296 17.0734 27.9823 15.9607 28.4252 14.7449C28.8681 13.529 29.0582 12.2356 28.9839 10.9438Z" fill="white"/>
<path d="M59.5 1.5C57.5438 1.50029 55.6305 2.07273 53.9956 3.14682C52.3607 4.22091 51.0757 5.74974 50.2987 7.545C50.0336 7.51499 49.7669 7.49997 49.5 7.5C47.6435 7.5 45.863 8.2375 44.5503 9.55025C43.2375 10.863 42.5 12.6435 42.5 14.5C42.5 16.3565 43.2375 18.137 44.5503 19.4497C45.863 20.7625 47.6435 21.5 49.5 21.5H53.1975L50.75 25.1675C50.6407 25.3317 50.5648 25.5157 50.5266 25.7092C50.4884 25.9027 50.4887 26.1018 50.5275 26.2952C50.5662 26.4886 50.6427 26.6724 50.7525 26.8363C50.8623 27.0001 51.0033 27.1407 51.1675 27.25C51.3317 27.3593 51.5157 27.4352 51.7092 27.4734C51.9027 27.5116 52.1018 27.5113 52.2952 27.4725C52.4886 27.4338 52.6724 27.3573 52.8363 27.2475C53.0001 27.1377 53.1407 26.9967 53.25 26.8325L56.8025 21.5H59.5C62.1522 21.5 64.6957 20.4464 66.5711 18.5711C68.4464 16.6957 69.5 14.1522 69.5 11.5C69.5 8.84784 68.4464 6.3043 66.5711 4.42893C64.6957 2.55357 62.1522 1.5 59.5 1.5ZM59.5 18.5H49.5C48.4391 18.5 47.4217 18.0786 46.6716 17.3284C45.9214 16.5783 45.5 15.5609 45.5 14.5C45.5 13.4391 45.9214 12.4217 46.6716 11.6716C47.4217 10.9214 48.4391 10.5 49.5 10.5H49.535C49.5212 10.6375 49.51 10.775 49.5025 10.9125C49.4795 11.3103 49.6154 11.701 49.8804 11.9986C50.1454 12.2962 50.5178 12.4763 50.9156 12.4994C51.3134 12.5224 51.7041 12.3865 52.0017 12.1215C52.2993 11.8565 52.4795 11.4841 52.5025 11.0863C52.5818 9.71998 53.0595 8.40685 53.8766 7.30893C54.6936 6.21102 55.8143 5.37639 57.1002 4.90807C58.3862 4.43974 59.7811 4.35822 61.1129 4.67356C62.4446 4.9889 63.6549 5.68731 64.5943 6.68258C65.5336 7.67784 66.161 8.92639 66.399 10.2741C66.6369 11.6218 66.475 13.0098 65.9333 14.2665C65.3915 15.5233 64.4936 16.5939 63.3503 17.3462C62.2071 18.0986 60.8686 18.4997 59.5 18.5ZM59.5812 25.8325L56.2475 30.8325C56.1382 30.9967 55.9976 31.1377 55.8338 31.2475C55.6699 31.3573 55.4861 31.4338 55.2927 31.4725C55.0993 31.5113 54.9002 31.5116 54.7067 31.4734C54.5132 31.4352 54.3292 31.3593 54.165 31.25C54.0008 31.1407 53.8598 31.0001 53.75 30.8363C53.6402 30.6724 53.5637 30.4886 53.525 30.2952C53.4862 30.1018 53.4859 29.9027 53.5241 29.7092C53.5623 29.5157 53.6382 29.3317 53.7475 29.1675L57.08 24.1675C57.1893 24.0033 57.3299 23.8623 57.4937 23.7525C57.6576 23.6427 57.8414 23.5662 58.0348 23.5275C58.2282 23.4887 58.4273 23.4884 58.6208 23.5266C58.8143 23.5648 58.9983 23.6407 59.1625 23.75C59.3267 23.8593 59.4677 23.9999 59.5775 24.1637C59.6873 24.3276 59.7638 24.5114 59.8025 24.7048C59.8413 24.8982 59.8416 25.0973 59.8034 25.2908C59.7652 25.4843 59.6893 25.6683 59.58 25.8325H59.5812Z" fill="white"/>
</g>
<defs>
<clipPath id="clip0_27_2104">
<rect width="72" height="32" rx="5" fill="white"/>
</clipPath>
</defs>
</svg>
