<svg width="72" height="32" viewBox="0 0 72 32" fill="none" xmlns="http://www.w3.org/2000/svg">
<g clip-path="url(#clip0_27_2089)">
<path d="M21.0001 29C21.0001 29.2652 20.8948 29.5196 20.7072 29.7071C20.5197 29.8947 20.2653 30 20.0001 30H13.0001C12.7349 30 12.4805 29.8947 12.293 29.7071C12.1055 29.5196 12.0001 29.2652 12.0001 29C12.0001 28.7348 12.1055 28.4804 12.293 28.2929C12.4805 28.1054 12.7349 28 13.0001 28H20.0001C20.2653 28 20.5197 28.1054 20.7072 28.2929C20.8948 28.4804 21.0001 28.7348 21.0001 29ZM16.0001 25C16.0001 24.7348 15.8948 24.4804 15.7072 24.2929C15.5197 24.1054 15.2653 24 15.0001 24H9.00011C8.7349 24 8.48054 24.1054 8.293 24.2929C8.10547 24.4804 8.00011 24.7348 8.00011 25C8.00011 25.2652 8.10547 25.5196 8.293 25.7071C8.48054 25.8947 8.7349 26 9.00011 26H15.0001C15.2653 26 15.5197 25.8947 15.7072 25.7071C15.8948 25.5196 16.0001 25.2652 16.0001 25ZM23.0001 24H20.0001C19.7349 24 19.4805 24.1054 19.293 24.2929C19.1055 24.4804 19.0001 24.7348 19.0001 25C19.0001 25.2652 19.1055 25.5196 19.293 25.7071C19.4805 25.8947 19.7349 26 20.0001 26H23.0001C23.2653 26 23.5197 25.8947 23.7072 25.7071C23.8948 25.5196 24.0001 25.2652 24.0001 25C24.0001 24.7348 23.8948 24.4804 23.7072 24.2929C23.5197 24.1054 23.2653 24 23.0001 24ZM28.9839 11.9438C28.8419 9.51644 27.7747 7.23594 26.0019 5.57183C24.2292 3.90772 21.8858 2.98669 19.4544 2.99839C17.0229 3.01008 14.6885 3.95361 12.9319 5.6347C11.1752 7.31578 10.1299 9.60644 10.0114 12.035C9.99678 12.2942 9.88417 12.5381 9.69638 12.7173C9.50859 12.8965 9.25967 12.9976 9.00011 13H8.92511C8.66113 12.9764 8.41677 12.8508 8.24402 12.6498C8.07126 12.4488 7.98376 12.1883 8.00011 11.9238C8.03486 11.2285 8.13234 10.5378 8.29136 9.86001C8.31188 9.77491 8.30969 9.68591 8.28503 9.60192C8.26036 9.51794 8.21408 9.44189 8.1508 9.3814C8.08753 9.32091 8.00948 9.27809 7.92447 9.25723C7.83945 9.23636 7.75045 9.23818 7.66636 9.26251C6.31273 9.66243 5.1257 10.4914 4.28409 11.6245C3.44247 12.7576 2.99186 14.1336 3.00011 15.545C3.02511 19.1338 6.01511 22 9.60511 22H19.5001C20.7941 21.9986 22.0742 21.7331 23.262 21.2198C24.4498 20.7065 25.5204 19.9562 26.4082 19.0148C27.296 18.0734 27.9823 16.9607 28.4252 15.7449C28.8681 14.529 29.0582 13.2356 28.9839 11.9438Z" fill="white"/>
<path d="M55 26H49C48.6022 26 48.2207 25.842 47.9394 25.5607C47.6581 25.2794 47.5 24.8978 47.5 24.5C47.5 24.1022 47.6581 23.7206 47.9394 23.4393C48.2207 23.158 48.6022 23 49 23H55C55.3978 23 55.7794 23.158 56.0607 23.4393C56.342 23.7206 56.5 24.1022 56.5 24.5C56.5 24.8978 56.342 25.2794 56.0607 25.5607C55.7794 25.842 55.3978 26 55 26ZM63 23H60C59.6022 23 59.2207 23.158 58.9394 23.4393C58.6581 23.7206 58.5 24.1022 58.5 24.5C58.5 24.8978 58.6581 25.2794 58.9394 25.5607C59.2207 25.842 59.6022 26 60 26H63C63.3978 26 63.7794 25.842 64.0607 25.5607C64.342 25.2794 64.5 24.8978 64.5 24.5C64.5 24.1022 64.342 23.7206 64.0607 23.4393C63.7794 23.158 63.3978 23 63 23ZM60 27.5H53C52.6022 27.5 52.2207 27.658 51.9394 27.9393C51.6581 28.2206 51.5 28.6022 51.5 29C51.5 29.3978 51.6581 29.7794 51.9394 30.0607C52.2207 30.342 52.6022 30.5 53 30.5H60C60.3978 30.5 60.7794 30.342 61.0607 30.0607C61.342 29.7794 61.5 29.3978 61.5 29C61.5 28.6022 61.342 28.2206 61.0607 27.9393C60.7794 27.658 60.3978 27.5 60 27.5ZM69 12C68.9974 14.5187 67.9956 16.9336 66.2146 18.7146C64.4336 20.4956 62.0188 21.4973 59.5 21.5H49.5C48.5991 21.4995 47.7082 21.3118 46.8837 20.9487C46.0592 20.5856 45.3192 20.0551 44.7106 19.3908C44.1021 18.7265 43.6382 17.943 43.3486 17.0899C43.0589 16.2368 42.9497 15.3329 43.028 14.4354C43.1062 13.5379 43.3702 12.6665 43.8031 11.8764C44.2361 11.0864 44.8285 10.3949 45.5428 9.84598C46.2572 9.29705 47.0778 8.9026 47.9527 8.68768C48.8276 8.47275 49.7376 8.44204 50.625 8.5975C51.4176 6.52182 52.9126 4.78961 54.8501 3.7021C56.7876 2.61459 59.045 2.24058 61.2297 2.64513C63.4144 3.04967 65.3883 4.20717 66.8079 5.91632C68.2275 7.62547 69.0032 9.77815 69 12ZM66 12C66 10.2761 65.3152 8.62279 64.0962 7.4038C62.8772 6.18481 61.2239 5.5 59.5 5.5C57.7761 5.5 56.1228 6.18481 54.9038 7.4038C53.6848 8.62279 53 10.2761 53 12C53 12.3978 52.842 12.7794 52.5607 13.0607C52.2794 13.342 51.8978 13.5 51.5 13.5C51.1022 13.5 50.7207 13.342 50.4394 13.0607C50.1581 12.7794 50 12.3978 50 12C50 11.845 50 11.69 50.0113 11.5362C49.8419 11.5122 49.6711 11.5001 49.5 11.5C48.5718 11.5 47.6815 11.8687 47.0251 12.5251C46.3688 13.1815 46 14.0717 46 15C46 15.9283 46.3688 16.8185 47.0251 17.4749C47.6815 18.1312 48.5718 18.5 49.5 18.5H59.5C61.2233 18.498 62.8755 17.8126 64.094 16.594C65.3126 15.3754 65.998 13.7233 66 12Z" fill="white"/>
</g>
<defs>
<clipPath id="clip0_27_2089">
<rect width="72" height="32" rx="5" fill="white"/>
</clipPath>
</defs>
</svg>
