<svg width="72" height="32" viewBox="0 0 72 32" fill="none" xmlns="http://www.w3.org/2000/svg">
<g clip-path="url(#clip0_27_2119)">
<path d="M28.5 15C28.5 17.8287 27.75 19.59 26.2588 20.2337C25.8238 20.4166 25.3556 20.5073 24.8838 20.5C24.5307 20.4969 24.1789 20.4579 23.8337 20.3838C23.7063 20.3584 23.5936 20.285 23.5187 20.1787C21.7628 17.6843 19.7634 15.3704 17.55 13.2712C17.3574 13.0889 17.1002 12.9906 16.8351 12.9978C16.57 13.0051 16.3186 13.1174 16.1362 13.31C15.9539 13.5026 15.8556 13.7598 15.8628 14.0249C15.8701 14.29 15.9824 14.5414 16.175 14.7238C18.03 16.4625 24.1912 22.66 25.965 29.7575C26.0293 30.0148 25.9887 30.287 25.8523 30.5144C25.7159 30.7418 25.4947 30.9056 25.2375 30.97C25.1598 30.9893 25.0801 30.9994 25 31C24.7772 30.9997 24.5609 30.925 24.3854 30.7878C24.2099 30.6505 24.0853 30.4586 24.0312 30.2425C23.5163 28.1838 22.575 26.1825 21.4737 24.3563C21.4386 24.6666 21.3586 24.9701 21.2362 25.2575C20.59 26.75 18.8287 27.5 16 27.5C13.1713 27.5 11.41 26.75 10.765 25.2575C10.0838 23.685 10.7163 21.405 12.64 18.4813C12.725 18.3563 12.81 18.2313 12.89 18.1063L12.515 18.3563C10.355 19.7838 8.54375 20.5 7.11125 20.5C6.63944 20.5073 6.17125 20.4166 5.73625 20.2337C4.25 19.59 3.5 17.8287 3.5 15C3.5 12.1713 4.25 10.41 5.74125 9.765C7.315 9.08375 9.595 9.71625 12.5188 11.64L12.8938 11.89C12.8104 11.765 12.7271 11.64 12.6438 11.515C10.7175 8.59125 10.085 6.31125 10.7688 4.7375C11.41 3.25 13.1713 2.5 16 2.5C18.8287 2.5 20.59 3.25 21.235 4.74125C21.9163 6.315 21.2838 8.595 19.36 11.5188C19.2767 11.6462 19.1933 11.7712 19.11 11.8938L19.485 11.6438C22.4088 9.7175 24.6888 9.085 26.2625 9.76875C27.75 10.41 28.5 12.1713 28.5 15Z" fill="white"/>
<path d="M66.6562 21.1513C68.5425 20.3338 69.5 18.2638 69.5 15C69.5 11.7362 68.5425 9.665 66.6562 8.8475C65.3237 8.27125 63.7075 8.3975 61.76 9.24C62.6012 7.2925 62.7288 5.67625 62.1525 4.34375C61.3337 2.4575 59.265 1.5 56 1.5C52.735 1.5 50.6663 2.4575 49.8475 4.34375C49.2712 5.67625 49.3987 7.2925 50.24 9.24C48.2925 8.3975 46.6762 8.27125 45.3438 8.8475C43.4575 9.665 42.5 11.735 42.5 15C42.5 18.265 43.4575 20.3338 45.3438 21.1513C45.9065 21.3917 46.5131 21.5125 47.125 21.5063C48.0542 21.5063 49.0933 21.2563 50.2425 20.7563C49.4013 22.705 49.2738 24.3213 49.85 25.6525C50.6663 27.5425 52.735 28.5 56 28.5C59.265 28.5 61.3337 27.5425 62.1525 25.655C62.2283 25.4791 62.2922 25.2982 62.3438 25.1138C63.29 26.7612 64.0938 28.54 64.545 30.3638C64.6261 30.6883 64.8134 30.9763 65.077 31.1822C65.3406 31.3881 65.6655 31.4999 66 31.5C66.123 31.4997 66.2456 31.4846 66.365 31.455C66.7509 31.3585 67.0826 31.1126 67.2872 30.7716C67.4919 30.4305 67.5527 30.0221 67.4562 29.6362C66.7062 26.6225 65.1775 23.7725 63.5175 21.345C63.9628 21.448 64.418 21.5021 64.875 21.5063C65.4869 21.5125 66.0935 21.3917 66.6562 21.1513ZM52.6012 5.53625C52.8862 4.875 54.125 4.5 56 4.5C57.875 4.5 59.1138 4.875 59.3988 5.53625C59.5387 5.8575 59.8288 7.16125 57.7075 10.3875C57.1288 11.2625 56.5087 12.0763 56 12.7025C55.4913 12.0775 54.875 11.2675 54.2925 10.3875C52.1712 7.1575 52.4612 5.8575 52.6012 5.53625ZM46.5363 18.3988C45.875 18.1138 45.5 16.875 45.5 15C45.5 13.125 45.875 11.8862 46.5363 11.6012C46.7198 11.5283 46.9163 11.4938 47.1137 11.5C47.8088 11.5 49.125 11.8062 51.3875 13.2925C52.1874 13.8224 52.96 14.3923 53.7025 15C53.0775 15.5087 52.2675 16.125 51.3875 16.7075C48.1575 18.8288 46.8575 18.5387 46.5363 18.3988ZM59.3988 24.4638C59.1138 25.125 57.875 25.5 56 25.5C54.125 25.5 52.8862 25.125 52.6012 24.4638C52.4612 24.1413 52.1712 22.8387 54.2925 19.6125C54.8712 18.7375 55.4913 17.9237 56 17.2975C56.5087 17.9225 57.125 18.7325 57.7075 19.6125C59.8288 22.8425 59.5387 24.1413 59.3988 24.4638ZM60.6125 16.7075C59.7375 16.1288 58.9237 15.5087 58.2975 15C59.04 14.3923 59.8126 13.8224 60.6125 13.2925C63.8425 11.1675 65.1425 11.4612 65.4638 11.6012C66.125 11.8862 66.5 13.125 66.5 15C66.5 16.875 66.125 18.1138 65.4638 18.3988C65.1425 18.5387 63.8425 18.8288 60.6125 16.7075Z" fill="white"/>
</g>
<defs>
<clipPath id="clip0_27_2119">
<rect width="72" height="32" rx="5" fill="white"/>
</clipPath>
</defs>
</svg>
