<svg width="72" height="32" viewBox="0 0 72 32" fill="none" xmlns="http://www.w3.org/2000/svg">
<g clip-path="url(#clip0_27_996)">
<path d="M30.1962 21.4L17.6662 12L20.5987 9.8C20.7231 9.70698 20.8241 9.58626 20.8938 9.44739C20.9634 9.30853 20.9998 9.15535 20.9999 9C20.9999 7.67392 20.4731 6.40215 19.5354 5.46447C18.5978 4.52678 17.326 4 15.9999 4C14.6738 4 13.4021 4.52678 12.4644 5.46447C11.5267 6.40215 10.9999 7.67392 10.9999 9C10.9999 9.26522 11.1053 9.51957 11.2928 9.70711C11.4803 9.89464 11.7347 10 11.9999 10C12.2651 10 12.5195 9.89464 12.707 9.70711C12.8946 9.51957 12.9999 9.26522 12.9999 9C13.0019 8.24678 13.2872 7.52188 13.7991 6.96931C14.311 6.41674 15.012 6.07695 15.7629 6.01744C16.5137 5.95792 17.2595 6.18304 17.8521 6.64807C18.4446 7.11309 18.8405 7.784 18.9612 8.5275L1.80367 21.4C1.46811 21.6517 1.22017 22.0025 1.09492 22.4028C0.969662 22.8031 0.973436 23.2326 1.1057 23.6307C1.23797 24.0287 1.49204 24.3751 1.83196 24.6208C2.17189 24.8666 2.58047 24.9992 2.99992 25H28.9999C29.4197 25 29.8288 24.8679 30.1693 24.6225C30.5099 24.377 30.7645 24.0307 30.8973 23.6325C31.03 23.2342 31.0341 22.8043 30.9089 22.4037C30.7838 22.003 30.5357 21.6519 30.1999 21.4H30.1962ZM4.09117 23C6.69992 21.3237 11.1862 19 15.9999 19C20.8137 19 25.2999 21.3237 27.9087 23H4.09117Z" fill="white"/>
<path d="M70.5 21L58.5 12L60.9 10.2C61.0863 10.0603 61.2375 9.8791 61.3416 9.67082C61.4458 9.46254 61.5 9.23287 61.5 9C61.5007 7.60027 60.9676 6.25294 60.0095 5.23255C59.0513 4.21215 57.7402 3.59546 56.3432 3.50813C54.9462 3.4208 53.5684 3.86939 52.4906 4.76251C51.4129 5.65564 50.7162 6.92608 50.5425 8.315C50.5179 8.51051 50.532 8.70895 50.5841 8.89899C50.6361 9.08904 50.7251 9.26697 50.846 9.42262C50.9668 9.57828 51.1171 9.70861 51.2883 9.80617C51.4595 9.90374 51.6482 9.96663 51.8438 9.99125C52.0393 10.0159 52.2377 10.0017 52.4277 9.94968C52.6178 9.89761 52.7957 9.80862 52.9514 9.68779C53.107 9.56696 53.2374 9.41665 53.3349 9.24545C53.4325 9.07425 53.4954 8.88551 53.52 8.69C53.5924 8.11795 53.8603 7.58851 54.2784 7.19138C54.6965 6.79425 55.239 6.55385 55.814 6.51089C56.389 6.46794 56.9612 6.62508 57.4336 6.95569C57.906 7.2863 58.2497 7.77005 58.4062 8.325L55.125 10.78C55.1062 10.7925 55.0887 10.8063 55.0712 10.82L41.5 21C41.0802 21.3148 40.7702 21.7537 40.6137 22.2546C40.4573 22.7554 40.4624 23.2928 40.6283 23.7906C40.7942 24.2884 41.1126 24.7213 41.5382 25.0281C41.9639 25.3349 42.4753 25.5 43 25.5H69C69.5247 25.5 70.0361 25.3349 70.4618 25.0281C70.8874 24.7213 71.2058 24.2884 71.3717 23.7906C71.5376 23.2928 71.5427 22.7554 71.3863 22.2546C71.2298 21.7537 70.9198 21.3148 70.5 21ZM44.5 22.5L56 13.875L67.5 22.5H44.5Z" fill="white"/>
</g>
<defs>
<clipPath id="clip0_27_996">
<rect width="72" height="32" rx="5" fill="white"/>
</clipPath>
</defs>
</svg>
