<svg width="72" height="32" viewBox="0 0 72 32" fill="none" xmlns="http://www.w3.org/2000/svg">
<g clip-path="url(#clip0_27_69)">
<path d="M17 16C17 17.3261 17.5268 18.5979 18.4645 19.5355C19.4021 20.4732 20.6739 21 22 21H22.04C23.0188 21.0375 23.79 20.8175 24.695 20.2362C24.9216 20.0921 25.1828 20.0115 25.4513 20.0027C25.7197 19.994 25.9856 20.0575 26.2211 20.1867C26.4566 20.3158 26.6532 20.5058 26.7902 20.7368C26.9272 20.9678 26.9997 21.2314 27 21.5V26C27 26.5304 26.7893 27.0391 26.4142 27.4142C26.0391 27.7893 25.5304 28 25 28H7C6.46957 28 5.96086 27.7893 5.58579 27.4142C5.21071 27.0391 5 26.5304 5 26V6C5 5.46957 5.21071 4.96086 5.58579 4.58579C5.96086 4.21071 6.46957 4 7 4H25C25.5304 4 26.0391 4.21071 26.4142 4.58579C26.7893 4.96086 27 5.46957 27 6V10.5C26.9999 10.7691 26.9273 11.0331 26.7901 11.2646C26.6528 11.496 26.4558 11.6862 26.2197 11.8153C25.9836 11.9444 25.7171 12.0076 25.4482 11.9983C25.1793 11.989 24.9179 11.9076 24.6912 11.7625C23.932 11.2886 23.0601 11.026 22.1654 11.0016C21.2708 10.9773 20.3859 11.1922 19.602 11.624C18.8181 12.0559 18.1637 12.6891 17.7063 13.4584C17.2489 14.2277 17.0051 15.105 17 16Z" fill="white"/>
<path d="M62 11.5C62.8563 11.4914 63.6971 11.7287 64.4225 12.1838C64.7247 12.377 65.0732 12.4854 65.4317 12.4977C65.7901 12.5099 66.1453 12.4255 66.46 12.2534C66.7746 12.0812 67.0372 11.8276 67.2201 11.5192C67.4031 11.2107 67.4998 10.8587 67.5 10.5V6C67.5 5.33696 67.2366 4.70107 66.7678 4.23223C66.2989 3.76339 65.663 3.5 65 3.5H47C46.337 3.5 45.7011 3.76339 45.2322 4.23223C44.7634 4.70107 44.5 5.33696 44.5 6V26C44.5 26.663 44.7634 27.2989 45.2322 27.7678C45.7011 28.2366 46.337 28.5 47 28.5H65C65.663 28.5 66.2989 28.2366 66.7678 27.7678C67.2366 27.2989 67.5 26.663 67.5 26V21.5C67.4997 21.1416 67.4032 20.7899 67.2204 20.4816C67.0376 20.1733 66.7754 19.9198 66.4611 19.7476C66.1468 19.5754 65.792 19.4908 65.4338 19.5026C65.0756 19.5145 64.7272 19.6224 64.425 19.815C63.6025 20.3425 62.9387 20.535 62.06 20.5H62C60.8065 20.5 59.6619 20.0259 58.818 19.182C57.9741 18.3381 57.5 17.1935 57.5 16C57.5 14.8065 57.9741 13.6619 58.818 12.818C59.6619 11.9741 60.8065 11.5 62 11.5ZM61.97 23.5C62.8298 23.5425 63.6895 23.415 64.5 23.125V25.5H47.5V6.5H64.5V8.9125C63.6952 8.63778 62.8504 8.49839 62 8.5C60.0109 8.49602 58.1016 9.28238 56.6923 10.6861C55.283 12.0898 54.489 13.9959 54.485 15.985C54.481 17.9741 55.2674 19.8834 56.6711 21.2927C58.0748 22.702 59.9809 23.496 61.97 23.5Z" fill="white"/>
</g>
<defs>
<clipPath id="clip0_27_69">
<rect width="72" height="32" rx="5" fill="white"/>
</clipPath>
</defs>
</svg>
