<svg width="72" height="32" viewBox="0 0 72 32" fill="none" xmlns="http://www.w3.org/2000/svg">
<g clip-path="url(#clip0_27_3523)">
<path d="M25 5H21C21 4.46957 20.7893 3.96086 20.4142 3.58579C20.0391 3.21071 19.5304 3 19 3H4C3.46957 3 2.96086 3.21071 2.58579 3.58579C2.21071 3.96086 2 4.46957 2 5V15C2 15.5304 2.21071 16.0391 2.58579 16.4142C2.96086 16.7893 3.46957 17 4 17H5V25C5 25.5304 5.21071 26.0391 5.58579 26.4142C5.96086 26.7893 6.46957 27 7 27H25C25.5304 27 26.0391 26.7893 26.4142 26.4142C26.7893 26.0391 27 25.5304 27 25V7C27 6.46957 26.7893 5.96086 26.4142 5.58579C26.0391 5.21071 25.5304 5 25 5ZM13.2925 7.7075C13.1049 7.51986 12.9994 7.26536 12.9994 7C12.9994 6.73464 13.1049 6.48014 13.2925 6.2925C13.4801 6.10486 13.7346 5.99944 14 5.99944C14.2654 5.99944 14.5199 6.10486 14.7075 6.2925L17.7075 9.2925C17.8005 9.38537 17.8742 9.49566 17.9246 9.61706C17.9749 9.73846 18.0008 9.86858 18.0008 10C18.0008 10.1314 17.9749 10.2615 17.9246 10.3829C17.8742 10.5043 17.8005 10.6146 17.7075 10.7075L14.7075 13.7075C14.5199 13.8951 14.2654 14.0006 14 14.0006C13.7346 14.0006 13.4801 13.8951 13.2925 13.7075C13.1049 13.5199 12.9994 13.2654 12.9994 13C12.9994 12.7346 13.1049 12.4801 13.2925 12.2925L15.5863 10L13.2925 7.7075ZM5.2925 10.7075C5.19952 10.6146 5.12576 10.5043 5.07544 10.3829C5.02512 10.2615 4.99921 10.1314 4.99921 10C4.99921 9.86858 5.02512 9.73846 5.07544 9.61706C5.12576 9.49566 5.19952 9.38537 5.2925 9.2925L8.2925 6.2925C8.48014 6.10486 8.73464 5.99944 9 5.99944C9.26536 5.99944 9.51986 6.10486 9.7075 6.2925C9.89514 6.48014 10.0006 6.73464 10.0006 7C10.0006 7.26536 9.89514 7.51986 9.7075 7.7075L7.41375 10L9.7075 12.2925C9.89514 12.4801 10.0006 12.7346 10.0006 13C10.0006 13.2654 9.89514 13.5199 9.7075 13.7075C9.51986 13.8951 9.26536 14.0006 9 14.0006C8.73464 14.0006 8.48014 13.8951 8.2925 13.7075L5.2925 10.7075ZM25 25H7V17H19C19.5304 17 20.0391 16.7893 20.4142 16.4142C20.7893 16.0391 21 15.5304 21 15V7H25V25Z" fill="white"/>
<path d="M46.4392 13.0613L42.4392 9.06126C42.2994 8.9219 42.1884 8.75631 42.1127 8.57398C42.037 8.39166 41.998 8.19618 41.998 7.99876C41.998 7.80134 42.037 7.60586 42.1127 7.42353C42.1884 7.2412 42.2994 7.07561 42.4392 6.93626L46.4392 2.93626C46.5788 2.79673 46.7444 2.68605 46.9267 2.61053C47.109 2.53502 47.3044 2.49615 47.5017 2.49615C47.6991 2.49615 47.8944 2.53502 48.0768 2.61053C48.2591 2.68605 48.4247 2.79673 48.5642 2.93626C48.7038 3.07579 48.8144 3.24143 48.89 3.42374C48.9655 3.60604 49.0043 3.80143 49.0043 3.99876C49.0043 4.19608 48.9655 4.39147 48.89 4.57378C48.8144 4.75608 48.7038 4.92173 48.5642 5.06126L45.6255 8.00001L48.5617 10.9388C48.8435 11.2205 49.0018 11.6027 49.0018 12.0013C49.0018 12.3998 48.8435 12.782 48.5617 13.0638C48.2799 13.3455 47.8977 13.5039 47.4992 13.5039C47.1007 13.5039 46.7185 13.3455 46.4367 13.0638L46.4392 13.0613ZM52.4392 13.0613C52.5786 13.2011 52.7442 13.3121 52.9265 13.3878C53.1088 13.4635 53.3043 13.5024 53.5017 13.5024C53.6992 13.5024 53.8946 13.4635 54.077 13.3878C54.2593 13.3121 54.4249 13.2011 54.5642 13.0613L58.5642 9.06126C58.7041 8.9219 58.815 8.75631 58.8907 8.57398C58.9664 8.39166 59.0054 8.19618 59.0054 7.99876C59.0054 7.80134 58.9664 7.60586 58.8907 7.42353C58.815 7.2412 58.7041 7.07561 58.5642 6.93626L54.5642 2.93626C54.2824 2.65446 53.9002 2.49615 53.5017 2.49615C53.1032 2.49615 52.721 2.65446 52.4392 2.93626C52.1574 3.21805 51.9991 3.60024 51.9991 3.99876C51.9991 4.39727 52.1574 4.77946 52.4392 5.06126L55.3755 8.00001L52.4392 10.9388C52.2998 11.0781 52.1891 11.2435 52.1136 11.4256C52.0382 11.6077 51.9993 11.8029 51.9993 12C51.9993 12.1971 52.0382 12.3923 52.1136 12.5744C52.1891 12.7565 52.2998 12.9219 52.4392 13.0613ZM65.0005 4.50001H62.5005C62.1027 4.50001 61.7211 4.65804 61.4398 4.93935C61.1585 5.22065 61.0005 5.60218 61.0005 6.00001C61.0005 6.39783 61.1585 6.77936 61.4398 7.06067C61.7211 7.34197 62.1027 7.50001 62.5005 7.50001H64.5005V24.5H47.5005V17.5C47.5005 17.1022 47.3424 16.7207 47.0611 16.4393C46.7798 16.158 46.3983 16 46.0005 16C45.6027 16 45.2211 16.158 44.9398 16.4393C44.6585 16.7207 44.5005 17.1022 44.5005 17.5V25C44.5005 25.663 44.7639 26.2989 45.2327 26.7678C45.7016 27.2366 46.3374 27.5 47.0005 27.5H65.0005C65.6635 27.5 66.2994 27.2366 66.7682 26.7678C67.2371 26.2989 67.5005 25.663 67.5005 25V7.00001C67.5005 6.33697 67.2371 5.70108 66.7682 5.23224C66.2994 4.7634 65.6635 4.50001 65.0005 4.50001Z" fill="white"/>
</g>
<defs>
<clipPath id="clip0_27_3523">
<rect width="72" height="32" rx="5" fill="white"/>
</clipPath>
</defs>
</svg>
