<svg width="72" height="32" viewBox="0 0 72 32" fill="none" xmlns="http://www.w3.org/2000/svg">
<g clip-path="url(#clip0_27_3518)">
<path d="M27 5H5C4.46957 5 3.96086 5.21071 3.58579 5.58579C3.21071 5.96086 3 6.46957 3 7V25C3 25.5304 3.21071 26.0391 3.58579 26.4142C3.96086 26.7893 4.46957 27 5 27H27C27.5304 27 28.0391 26.7893 28.4142 26.4142C28.7893 26.0391 29 25.5304 29 25V7C29 6.46957 28.7893 5.96086 28.4142 5.58579C28.0391 5.21071 27.5304 5 27 5ZM11.6 18.2C11.8122 18.3591 11.9524 18.596 11.9899 18.8586C12.0275 19.1211 11.9591 19.3878 11.8 19.6C11.6409 19.8122 11.404 19.9524 11.1414 19.99C10.8789 20.0275 10.6122 19.9591 10.4 19.8L6.4 16.8C6.2758 16.7069 6.175 16.5861 6.10557 16.4472C6.03614 16.3084 6 16.1552 6 16C6 15.8448 6.03614 15.6916 6.10557 15.5528C6.175 15.4139 6.2758 15.2931 6.4 15.2L10.4 12.2C10.6122 12.0409 10.8789 11.9725 11.1414 12.0101C11.404 12.0476 11.6409 12.1878 11.8 12.4C11.9591 12.6122 12.0275 12.8789 11.9899 13.1414C11.9524 13.404 11.8122 13.6409 11.6 13.8L8.66625 16L11.6 18.2ZM18.9613 9.275L14.9613 23.275C14.9272 23.4035 14.8678 23.5239 14.7866 23.6292C14.7054 23.7345 14.6041 23.8225 14.4885 23.8882C14.3728 23.9538 14.2453 23.9958 14.1133 24.0115C13.9813 24.0273 13.8475 24.0166 13.7196 23.98C13.5918 23.9434 13.4726 23.8818 13.3689 23.7986C13.2652 23.7154 13.1791 23.6123 13.1157 23.4955C13.0523 23.3786 13.0129 23.2503 12.9996 23.118C12.9864 22.9857 12.9997 22.8521 13.0387 22.725L17.0387 8.725C17.1156 8.47467 17.2876 8.26448 17.5178 8.13961C17.748 8.01473 18.018 7.98512 18.2697 8.05715C18.5215 8.12918 18.735 8.29709 18.8643 8.52481C18.9936 8.75253 19.0284 9.02189 18.9613 9.275ZM25.6 16.8L21.6 19.8C21.3878 19.9591 21.1211 20.0275 20.8586 19.99C20.596 19.9524 20.3591 19.8122 20.2 19.6C20.0409 19.3878 19.9725 19.1211 20.01 18.8586C20.0476 18.596 20.1878 18.3591 20.4 18.2L23.3337 16L20.4 13.8C20.2949 13.7212 20.2064 13.6225 20.1395 13.5095C20.0726 13.3965 20.0286 13.2714 20.01 13.1414C19.9915 13.0114 19.9987 12.879 20.0313 12.7518C20.0639 12.6246 20.1212 12.5051 20.2 12.4C20.2788 12.2949 20.3775 12.2064 20.4905 12.1395C20.6035 12.0726 20.7286 12.0286 20.8586 12.0101C20.9886 11.9915 21.121 11.9987 21.2482 12.0313C21.3754 12.0639 21.4949 12.1212 21.6 12.2L25.6 15.2C25.7242 15.2931 25.825 15.4139 25.8944 15.5528C25.9639 15.6916 26 15.8448 26 16C26 16.1552 25.9639 16.3084 25.8944 16.4472C25.825 16.5861 25.7242 16.7069 25.6 16.8Z" fill="white"/>
<path d="M48.9599 12.1525L44.3424 16L48.9599 19.8475C49.1131 19.973 49.2398 20.1276 49.3329 20.3023C49.426 20.477 49.4836 20.6685 49.5024 20.8656C49.5211 21.0627 49.5007 21.2615 49.4422 21.4507C49.3837 21.6399 49.2884 21.8156 49.1617 21.9677C49.035 22.1198 48.8794 22.2454 48.7039 22.3371C48.5284 22.4288 48.3365 22.4848 48.1393 22.502C47.942 22.5192 47.7433 22.4972 47.5547 22.4372C47.366 22.3772 47.191 22.2804 47.0399 22.1525L41.0399 17.1525C40.8709 17.0117 40.735 16.8355 40.6417 16.6364C40.5484 16.4372 40.5 16.2199 40.5 16C40.5 15.7801 40.5484 15.5628 40.6417 15.3637C40.735 15.1645 40.8709 14.9883 41.0399 14.8475L47.0399 9.8475C47.346 9.59665 47.7388 9.47693 48.1328 9.51442C48.5268 9.55191 48.89 9.74357 49.1432 10.0476C49.3965 10.3517 49.5194 10.7436 49.4851 11.1378C49.4507 11.5321 49.262 11.8968 48.9599 12.1525ZM70.9599 14.8475L64.9599 9.8475C64.8088 9.71957 64.6339 9.62282 64.4452 9.56283C64.2565 9.50285 64.0578 9.48081 63.8606 9.49799C63.6633 9.51517 63.4714 9.57122 63.296 9.66293C63.1205 9.75463 62.9649 9.88017 62.8382 10.0323C62.7115 10.1844 62.6161 10.3601 62.5576 10.5493C62.4992 10.7385 62.4787 10.9373 62.4975 11.1344C62.5162 11.3315 62.5738 11.523 62.6669 11.6977C62.76 11.8724 62.8868 12.027 63.0399 12.1525L67.6574 16L63.0399 19.8475C62.8868 19.973 62.76 20.1276 62.6669 20.3023C62.5738 20.477 62.5162 20.6685 62.4975 20.8656C62.4787 21.0627 62.4992 21.2615 62.5576 21.4507C62.6161 21.6399 62.7115 21.8156 62.8382 21.9677C62.9649 22.1198 63.1205 22.2454 63.296 22.3371C63.4714 22.4288 63.6633 22.4848 63.8606 22.502C64.0578 22.5192 64.2565 22.4972 64.4452 22.4372C64.6339 22.3772 64.8088 22.2804 64.9599 22.1525L70.9599 17.1525C71.1289 17.0117 71.2649 16.8355 71.3582 16.6364C71.4515 16.4372 71.4999 16.2199 71.4999 16C71.4999 15.7801 71.4515 15.5628 71.3582 15.3637C71.2649 15.1645 71.1289 14.9883 70.9599 14.8475ZM60.5124 3.59C60.3273 3.52267 60.1307 3.49247 59.9338 3.50113C59.737 3.50979 59.5438 3.55715 59.3653 3.6405C59.1867 3.72384 59.0264 3.84154 58.8933 3.98687C58.7603 4.1322 58.6572 4.30232 58.5899 4.4875L50.5899 26.4875C50.4543 26.8613 50.4727 27.2736 50.641 27.6339C50.8093 27.9942 51.1137 28.2729 51.4874 28.4088C51.6515 28.4693 51.825 28.5002 51.9999 28.5C52.3079 28.5001 52.6084 28.4053 52.8607 28.2286C53.1129 28.052 53.3047 27.8019 53.4099 27.5125L61.4099 5.5125C61.4773 5.32734 61.5075 5.13073 61.4988 4.93389C61.4901 4.73706 61.4428 4.54386 61.3594 4.36533C61.2761 4.1868 61.1584 4.02644 61.0131 3.89341C60.8677 3.76038 60.6976 3.65728 60.5124 3.59Z" fill="white"/>
</g>
<defs>
<clipPath id="clip0_27_3518">
<rect width="72" height="32" rx="5" fill="white"/>
</clipPath>
</defs>
</svg>
