<svg width="72" height="32" viewBox="0 0 72 32" fill="none" xmlns="http://www.w3.org/2000/svg">
<g clip-path="url(#clip0_27_79)">
<path d="M28.7362 9.03125C28.5536 8.71229 28.2862 8.45011 27.9638 8.27375L16.96 2.25C16.6659 2.08827 16.3357 2.00348 16 2.00348C15.6643 2.00348 15.3341 2.08827 15.04 2.25L4.04 8.2725C3.71752 8.44886 3.45015 8.71104 3.2675 9.03C3.09339 9.33187 3.00117 9.67401 3 10.0225V21.9775C3.00081 22.3356 3.09775 22.6869 3.28069 22.9947C3.46363 23.3025 3.72586 23.5556 4.04 23.7275L15.04 29.7487C15.3339 29.9111 15.6642 29.9963 16 29.9963C16.3358 29.9963 16.6661 29.9111 16.96 29.7487L27.96 23.7275C28.2741 23.5556 28.5364 23.3025 28.7193 22.9947C28.9023 22.6869 28.9992 22.3356 29 21.9775V10.0225C28.9998 9.67477 28.9088 9.33312 28.7362 9.03125ZM15 27.4512L11 25.2612V19C10.9996 18.821 10.9511 18.6453 10.8597 18.4914C10.7682 18.3375 10.6371 18.2109 10.48 18.125L5 15.125V11.125L15 16.6V27.4512ZM16 14.86L6.0825 9.43L10.3925 7.07125L15.5175 9.8775C15.6647 9.95802 15.8297 10.0002 15.9975 10.0002C16.1653 10.0002 16.3303 9.95802 16.4775 9.8775L21.6025 7.07125L25.9125 9.43L16 14.86ZM27 15.1225L21.52 18.1225C21.3629 18.2084 21.2318 18.335 21.1403 18.4889C21.0489 18.6428 21.0004 18.8185 21 18.9975V25.2587L17 27.4487V16.5925L27 11.1175V15.1225Z" fill="white"/>
<path d="M68.2 7.83125L57.2 1.80875C56.8324 1.60643 56.4196 1.50034 56 1.50034C55.5804 1.50034 55.1676 1.60643 54.8 1.80875L43.8 7.83C43.4064 8.04536 43.078 8.36268 42.8493 8.74866C42.6205 9.13465 42.4999 9.57508 42.5 10.0237V21.9762C42.4999 22.4249 42.6205 22.8653 42.8493 23.2513C43.078 23.6373 43.4064 23.9546 43.8 24.17L54.8 30.1912C55.1675 30.3938 55.5804 30.5 56 30.5C56.4196 30.5 56.8325 30.3938 57.2 30.1912L68.2 24.1687C68.5934 23.9535 68.9217 23.6364 69.1504 23.2506C69.3791 22.8649 69.4999 22.4247 69.5 21.9762V10.0237C69.4999 9.57529 69.3791 9.13512 69.1504 8.74937C68.9217 8.36363 68.5934 8.04651 68.2 7.83125ZM60.5 19V24.965L57.5 26.6075V16.8887L66.5 11.9612V14.8262L61.28 17.6837C61.0438 17.813 60.8468 18.0034 60.7096 18.2349C60.5723 18.4665 60.4999 18.7308 60.5 19ZM50.72 17.6837L45.5 14.8262V11.9612L54.5 16.8887V26.6075L51.5 24.965V19C51.5001 18.7308 51.4277 18.4665 51.2904 18.2349C51.1532 18.0034 50.9562 17.813 50.72 17.6837ZM50.3925 7.64125L55.28 10.3162C55.5006 10.4376 55.7482 10.5012 56 10.5012C56.2518 10.5012 56.4994 10.4376 56.72 10.3162L61.6075 7.64125L64.875 9.43125L56 14.29L47.125 9.43125L50.3925 7.64125ZM56 4.57125L58.4837 5.93125L56 7.29125L53.5162 5.93125L56 4.57125ZM45.5 18.25L48.5 19.8925V23.3262L45.5 21.68V18.25ZM63.5 23.3262V19.8887L66.5 18.25V21.6837L63.5 23.3262Z" fill="white"/>
</g>
<defs>
<clipPath id="clip0_27_79">
<rect width="72" height="32" rx="5" fill="white"/>
</clipPath>
</defs>
</svg>
