<svg width="72" height="32" viewBox="0 0 72 32" fill="none" xmlns="http://www.w3.org/2000/svg">
<g clip-path="url(#clip0_27_1001)">
<path d="M26 10H4C3.73478 10 3.48043 10.1054 3.29289 10.2929C3.10536 10.4804 3 10.7348 3 11V17C3.00299 18.7025 3.36708 20.385 4.06822 21.9364C4.76937 23.4878 5.79163 24.8728 7.0675 26H4C3.73478 26 3.48043 26.1054 3.29289 26.2929C3.10536 26.4804 3 26.7348 3 27C3 27.2652 3.10536 27.5196 3.29289 27.7071C3.48043 27.8946 3.73478 28 4 28H26C26.2652 28 26.5196 27.8946 26.7071 27.7071C26.8946 27.5196 27 27.2652 27 27C27 26.7348 26.8946 26.4804 26.7071 26.2929C26.5196 26.1054 26.2652 26 26 26H22.9325C24.464 24.6426 25.6254 22.9182 26.3075 20.9888C27.5776 20.9105 28.7701 20.3509 29.642 19.424C30.5139 18.497 30.9995 17.2725 31 16V15C31 13.6739 30.4732 12.4021 29.5355 11.4645C28.5979 10.5268 27.3261 10 26 10ZM29 16C28.9996 16.647 28.79 17.2765 28.4025 17.7946C28.015 18.3127 27.4705 18.6917 26.85 18.875C26.9491 18.2549 26.9993 17.628 27 17V12.1725C27.5848 12.3792 28.0911 12.7621 28.4492 13.2685C28.8074 13.7749 28.9998 14.3798 29 15V16ZM14 7V3C14 2.73478 14.1054 2.48043 14.2929 2.29289C14.4804 2.10536 14.7348 2 15 2C15.2652 2 15.5196 2.10536 15.7071 2.29289C15.8946 2.48043 16 2.73478 16 3V7C16 7.26522 15.8946 7.51957 15.7071 7.70711C15.5196 7.89464 15.2652 8 15 8C14.7348 8 14.4804 7.89464 14.2929 7.70711C14.1054 7.51957 14 7.26522 14 7ZM18 7V3C18 2.73478 18.1054 2.48043 18.2929 2.29289C18.4804 2.10536 18.7348 2 19 2C19.2652 2 19.5196 2.10536 19.7071 2.29289C19.8946 2.48043 20 2.73478 20 3V7C20 7.26522 19.8946 7.51957 19.7071 7.70711C19.5196 7.89464 19.2652 8 19 8C18.7348 8 18.4804 7.89464 18.2929 7.70711C18.1054 7.51957 18 7.26522 18 7ZM10 7V3C10 2.73478 10.1054 2.48043 10.2929 2.29289C10.4804 2.10536 10.7348 2 11 2C11.2652 2 11.5196 2.10536 11.7071 2.29289C11.8946 2.48043 12 2.73478 12 3V7C12 7.26522 11.8946 7.51957 11.7071 7.70711C11.5196 7.89464 11.2652 8 11 8C10.7348 8 10.4804 7.89464 10.2929 7.70711C10.1054 7.51957 10 7.26522 10 7Z" fill="white"/>
<path d="M66.5 9.5H44C43.6022 9.5 43.2206 9.65804 42.9393 9.93934C42.658 10.2206 42.5 10.6022 42.5 11V17C42.5047 20.1528 43.6978 23.1879 45.8412 25.5H44C43.6022 25.5 43.2206 25.658 42.9393 25.9393C42.658 26.2206 42.5 26.6022 42.5 27C42.5 27.3978 42.658 27.7794 42.9393 28.0607C43.2206 28.342 43.6022 28.5 44 28.5H66C66.3978 28.5 66.7794 28.342 67.0607 28.0607C67.342 27.7794 67.5 27.3978 67.5 27C67.5 26.6022 67.342 26.2206 67.0607 25.9393C66.7794 25.658 66.3978 25.5 66 25.5H64.1588C65.2366 24.336 66.0848 22.9789 66.6588 21.5C68.0898 21.4587 69.4483 20.861 70.4456 19.834C71.443 18.807 72.0006 17.4316 72 16V15C71.9983 13.5418 71.4184 12.1438 70.3873 11.1127C69.3562 10.0816 67.9582 9.50165 66.5 9.5ZM64.5 17C64.4968 18.7638 64.0044 20.4921 63.0776 21.9928C62.1507 23.4934 60.8257 24.7075 59.25 25.5H50.75C49.1743 24.7075 47.8493 23.4934 46.9224 21.9928C45.9956 20.4921 45.5032 18.7638 45.5 17V12.5H64.5V17ZM69 16C68.9995 16.4992 68.8496 16.9868 68.5696 17.4001C68.2896 17.8133 67.8922 18.1333 67.4287 18.3188C67.4764 17.8808 67.5002 17.4405 67.5 17V12.71C67.9456 12.9045 68.3249 13.2247 68.5913 13.6314C68.8577 14.0382 68.9998 14.5138 69 15V16ZM48.5 6V3C48.5 2.60218 48.658 2.22064 48.9393 1.93934C49.2206 1.65804 49.6022 1.5 50 1.5C50.3978 1.5 50.7794 1.65804 51.0607 1.93934C51.342 2.22064 51.5 2.60218 51.5 3V6C51.5 6.39782 51.342 6.77936 51.0607 7.06066C50.7794 7.34196 50.3978 7.5 50 7.5C49.6022 7.5 49.2206 7.34196 48.9393 7.06066C48.658 6.77936 48.5 6.39782 48.5 6ZM53.5 6V3C53.5 2.60218 53.658 2.22064 53.9393 1.93934C54.2206 1.65804 54.6022 1.5 55 1.5C55.3978 1.5 55.7794 1.65804 56.0607 1.93934C56.342 2.22064 56.5 2.60218 56.5 3V6C56.5 6.39782 56.342 6.77936 56.0607 7.06066C55.7794 7.34196 55.3978 7.5 55 7.5C54.6022 7.5 54.2206 7.34196 53.9393 7.06066C53.658 6.77936 53.5 6.39782 53.5 6ZM58.5 6V3C58.5 2.60218 58.658 2.22064 58.9393 1.93934C59.2206 1.65804 59.6022 1.5 60 1.5C60.3978 1.5 60.7794 1.65804 61.0607 1.93934C61.342 2.22064 61.5 2.60218 61.5 3V6C61.5 6.39782 61.342 6.77936 61.0607 7.06066C60.7794 7.34196 60.3978 7.5 60 7.5C59.6022 7.5 59.2206 7.34196 58.9393 7.06066C58.658 6.77936 58.5 6.39782 58.5 6Z" fill="white"/>
</g>
<defs>
<clipPath id="clip0_27_1001">
<rect width="72" height="32" rx="5" fill="white"/>
</clipPath>
</defs>
</svg>
