<svg width="72" height="32" viewBox="0 0 72 32" fill="none" xmlns="http://www.w3.org/2000/svg">
<g clip-path="url(#clip0_27_1011)">
<path d="M25.9475 7.98C23.3563 6.685 19.9163 6 16 6C12.0837 6 8.64375 6.685 6.0525 7.98C3.46125 9.275 2 11.0975 2 13V19C2 20.9025 3.4775 22.7313 6.0525 24.02C8.6275 25.3088 12.0837 26 16 26C19.9163 26 23.3563 25.315 25.9475 24.02C28.5387 22.725 30 20.9025 30 19V13C30 11.0975 28.5225 9.26875 25.9475 7.98ZM15 19.98V23.98C12.625 23.9025 10.625 23.5525 9 23.0438V19.1313C10.9589 19.6532 12.9732 19.9389 15 19.9825V19.98ZM17 19.98C19.0268 19.9364 21.0411 19.6507 23 19.1287V23.0425C21.375 23.5513 19.375 23.9013 17 23.9788V19.98ZM4 19V16.6912C4.62932 17.2136 5.31828 17.6597 6.0525 18.02C6.35625 18.1713 6.6775 18.3137 7 18.4487V22.25C5.02125 21.27 4 20.0363 4 19ZM25 22.25V18.4487C25.3263 18.3137 25.6438 18.1713 25.9475 18.02C26.6817 17.6597 27.3707 17.2136 28 16.6912V19C28 20.0363 26.9788 21.27 25 22.25Z" fill="white"/>
<path d="M66.1712 7.53375C63.51 6.2025 60 5.5 56 5.5C52 5.5 48.49 6.2025 45.8288 7.53375C43.0775 8.90875 41.5 10.9012 41.5 13V19C41.5 21.0988 43.0775 23.0912 45.8288 24.4662C48.49 25.7975 52.0063 26.5 56 26.5C59.9937 26.5 63.51 25.7975 66.1712 24.4662C68.9212 23.0912 70.5 21.0988 70.5 19V13C70.5 10.9012 68.9225 8.90875 66.1712 7.53375ZM47.1712 10.2163C49.385 9.11 52.52 8.5 56 8.5C59.48 8.5 62.615 9.11 64.8288 10.2163C66.4762 11.04 67.5 12.1075 67.5 13C67.5 13.8925 66.4762 14.96 64.8288 15.7837C62.615 16.89 59.48 17.5 56 17.5C52.52 17.5 49.385 16.89 47.1712 15.7837C45.5237 14.96 44.5 13.8925 44.5 13C44.5 12.1075 45.5237 11.04 47.1712 10.2163ZM62.5 22.6725C60.8682 23.1218 59.1909 23.386 57.5 23.46V20.46C59.1849 20.3912 60.8593 20.1606 62.5 19.7712V22.6725ZM49.5 19.7775C51.1407 20.1669 52.8151 20.3975 54.5 20.4662V23.4662C52.8091 23.3922 51.1318 23.1281 49.5 22.6787V19.7775ZM44.5 19V17.6925C44.9257 17.979 45.3695 18.2375 45.8288 18.4662C46.0463 18.575 46.2712 18.6787 46.5 18.7787V21.4125C45.25 20.655 44.5 19.7638 44.5 19ZM65.5 21.4125V18.7787C65.7288 18.6787 65.9537 18.575 66.1712 18.4662C66.6305 18.2375 67.0744 17.979 67.5 17.6925V19C67.5 19.7638 66.75 20.655 65.5 21.4125Z" fill="white"/>
</g>
<defs>
<clipPath id="clip0_27_1011">
<rect width="72" height="32" rx="5" fill="white"/>
</clipPath>
</defs>
</svg>
