<svg width="72" height="32" viewBox="0 0 72 32" fill="none" xmlns="http://www.w3.org/2000/svg">
<g clip-path="url(#clip0_27_1016)">
<path d="M24.8137 7.01125C23.305 4.425 21.24 3 19 3H13C10.76 3 8.695 4.425 7.18625 7.01125C5.77625 9.4275 5 12.625 5 16C5 19.375 5.77625 22.5725 7.18625 24.9888C8.695 27.575 10.76 29 13 29H19C21.24 29 23.305 27.575 24.8137 24.9888C26.2237 22.5725 27 19.375 27 16C27 12.625 26.2237 9.4275 24.8137 7.01125ZM24.9737 15H20.9737C20.8956 12.948 20.487 10.9219 19.7638 9H23.5875C24.3525 10.6725 24.8575 12.75 24.9737 15ZM22.3988 7H18.8075C18.3898 6.2754 17.8862 5.60387 17.3075 5H19C20.25 5 21.425 5.75 22.3988 7ZM19 27H17.3113C17.8899 26.3961 18.3936 25.7246 18.8113 25H22.4025C21.425 26.25 20.25 27 19 27ZM23.5875 23H19.765C20.4883 21.0781 20.8969 19.052 20.975 17H24.975C24.8575 19.25 24.3525 21.3275 23.5875 23Z" fill="white"/>
<path d="M59 2.5H53C48.2337 2.5 44.5 8.43 44.5 16C44.5 23.57 48.2337 29.5 53 29.5H59C63.7663 29.5 67.5 23.57 67.5 16C67.5 8.43 63.7663 2.5 59 2.5ZM63.6513 21.5H60.7887C61.1419 20.192 61.3634 18.852 61.45 17.5H64.4412C64.3428 18.8607 64.0774 20.2041 63.6513 21.5ZM61.45 14.5C61.3634 13.148 61.1419 11.808 60.7887 10.5H63.6513C64.0774 11.7959 64.3428 13.1393 64.4412 14.5H61.45ZM62.1537 7.5H59.6537C59.3022 6.79478 58.8836 6.12503 58.4037 5.5H59C59.6713 5.5 60.9062 5.78125 62.1537 7.5ZM49.3462 23.73C48.155 21.6887 47.5 18.9438 47.5 16C47.5 13.0562 48.155 10.3113 49.3462 8.27C50.75 5.86 52.2387 5.5 53 5.5C53.7612 5.5 55.25 5.86 56.6537 8.27C57.845 10.3113 58.5 13.0562 58.5 16C58.5 18.9438 57.845 21.6887 56.6537 23.73C55.25 26.14 53.7612 26.5 53 26.5C52.2387 26.5 50.75 26.14 49.3462 23.73ZM59 26.5H58.4013C58.8811 25.875 59.2997 25.2052 59.6513 24.5H62.1513C60.9062 26.2188 59.6713 26.5 59 26.5Z" fill="white"/>
</g>
<defs>
<clipPath id="clip0_27_1016">
<rect width="72" height="32" rx="5" fill="white"/>
</clipPath>
</defs>
</svg>
