<svg width="72" height="32" viewBox="0 0 72 32" fill="none" xmlns="http://www.w3.org/2000/svg">
<g clip-path="url(#clip0_27_5177)">
<path d="M18 6V26C18 26.5304 17.7893 27.0391 17.4142 27.4142C17.0391 27.7893 16.5304 28 16 28H13C12.4696 28 11.9609 27.7893 11.5858 27.4142C11.2107 27.0391 11 26.5304 11 26V6C11 5.46957 11.2107 4.96086 11.5858 4.58579C11.9609 4.21071 12.4696 4 13 4H16C16.5304 4 17.0391 4.21071 17.4142 4.58579C17.7893 4.96086 18 5.46957 18 6ZM25 4H22C21.4696 4 20.9609 4.21071 20.5858 4.58579C20.2107 4.96086 20 5.46957 20 6V26C20 26.5304 20.2107 27.0391 20.5858 27.4142C20.9609 27.7893 21.4696 28 22 28H25C25.5304 28 26.0391 27.7893 26.4142 27.4142C26.7893 27.0391 27 26.5304 27 26V6C27 5.46957 26.7893 4.96086 26.4142 4.58579C26.0391 4.21071 25.5304 4 25 4ZM8 15H6V13C6 12.7348 5.89464 12.4804 5.70711 12.2929C5.51957 12.1054 5.26522 12 5 12C4.73478 12 4.48043 12.1054 4.29289 12.2929C4.10536 12.4804 4 12.7348 4 13V15H2C1.73478 15 1.48043 15.1054 1.29289 15.2929C1.10536 15.4804 1 15.7348 1 16C1 16.2652 1.10536 16.5196 1.29289 16.7071C1.48043 16.8946 1.73478 17 2 17H4V19C4 19.2652 4.10536 19.5196 4.29289 19.7071C4.48043 19.8946 4.73478 20 5 20C5.26522 20 5.51957 19.8946 5.70711 19.7071C5.89464 19.5196 6 19.2652 6 19V17H8C8.26522 17 8.51957 16.8946 8.70711 16.7071C8.89464 16.5196 9 16.2652 9 16C9 15.7348 8.89464 15.4804 8.70711 15.2929C8.51957 15.1054 8.26522 15 8 15Z" fill="white"/>
<path d="M55.5 3.5H52.5C51.837 3.5 51.2011 3.76339 50.7322 4.23223C50.2634 4.70107 50 5.33696 50 6V26C50 26.663 50.2634 27.2989 50.7322 27.7678C51.2011 28.2366 51.837 28.5 52.5 28.5H55.5C56.163 28.5 56.7989 28.2366 57.2678 27.7678C57.7366 27.2989 58 26.663 58 26V6C58 5.33696 57.7366 4.70107 57.2678 4.23223C56.7989 3.76339 56.163 3.5 55.5 3.5ZM55 25.5H53V6.5H55V25.5ZM65 3.5H62C61.337 3.5 60.7011 3.76339 60.2322 4.23223C59.7634 4.70107 59.5 5.33696 59.5 6V26C59.5 26.663 59.7634 27.2989 60.2322 27.7678C60.7011 28.2366 61.337 28.5 62 28.5H65C65.663 28.5 66.2989 28.2366 66.7678 27.7678C67.2366 27.2989 67.5 26.663 67.5 26V6C67.5 5.33696 67.2366 4.70107 66.7678 4.23223C66.2989 3.76339 65.663 3.5 65 3.5ZM64.5 25.5H62.5V6.5H64.5V25.5ZM48.5 16C48.5 16.3978 48.342 16.7794 48.0607 17.0607C47.7794 17.342 47.3978 17.5 47 17.5H46V18.5C46 18.8978 45.842 19.2794 45.5607 19.5607C45.2794 19.842 44.8978 20 44.5 20C44.1022 20 43.7206 19.842 43.4393 19.5607C43.158 19.2794 43 18.8978 43 18.5V17.5H42C41.6022 17.5 41.2206 17.342 40.9393 17.0607C40.658 16.7794 40.5 16.3978 40.5 16C40.5 15.6022 40.658 15.2206 40.9393 14.9393C41.2206 14.658 41.6022 14.5 42 14.5H43V13.5C43 13.1022 43.158 12.7206 43.4393 12.4393C43.7206 12.158 44.1022 12 44.5 12C44.8978 12 45.2794 12.158 45.5607 12.4393C45.842 12.7206 46 13.1022 46 13.5V14.5H47C47.3978 14.5 47.7794 14.658 48.0607 14.9393C48.342 15.2206 48.5 15.6022 48.5 16Z" fill="white"/>
</g>
<defs>
<clipPath id="clip0_27_5177">
<rect width="72" height="32" rx="5" fill="white"/>
</clipPath>
</defs>
</svg>
