<svg width="72" height="32" viewBox="0 0 72 32" fill="none" xmlns="http://www.w3.org/2000/svg">
<g clip-path="url(#clip0_27_5182)">
<path d="M12 6V26C12 26.5304 11.7893 27.0391 11.4142 27.4142C11.0391 27.7893 10.5304 28 10 28H7C6.46957 28 5.96086 27.7893 5.58579 27.4142C5.21071 27.0391 5 26.5304 5 26V6C5 5.46957 5.21071 4.96086 5.58579 4.58579C5.96086 4.21071 6.46957 4 7 4H10C10.5304 4 11.0391 4.21071 11.4142 4.58579C11.7893 4.96086 12 5.46957 12 6ZM19 4H16C15.4696 4 14.9609 4.21071 14.5858 4.58579C14.2107 4.96086 14 5.46957 14 6V26C14 26.5304 14.2107 27.0391 14.5858 27.4142C14.9609 27.7893 15.4696 28 16 28H19C19.5304 28 20.0391 27.7893 20.4142 27.4142C20.7893 27.0391 21 26.5304 21 26V6C21 5.46957 20.7893 4.96086 20.4142 4.58579C20.0391 4.21071 19.5304 4 19 4ZM30 15H28V13C28 12.7348 27.8946 12.4804 27.7071 12.2929C27.5196 12.1054 27.2652 12 27 12C26.7348 12 26.4804 12.1054 26.2929 12.2929C26.1054 12.4804 26 12.7348 26 13V15H24C23.7348 15 23.4804 15.1054 23.2929 15.2929C23.1054 15.4804 23 15.7348 23 16C23 16.2652 23.1054 16.5196 23.2929 16.7071C23.4804 16.8946 23.7348 17 24 17H26V19C26 19.2652 26.1054 19.5196 26.2929 19.7071C26.4804 19.8946 26.7348 20 27 20C27.2652 20 27.5196 19.8946 27.7071 19.7071C27.8946 19.5196 28 19.2652 28 19V17H30C30.2652 17 30.5196 16.8946 30.7071 16.7071C30.8946 16.5196 31 16.2652 31 16C31 15.7348 30.8946 15.4804 30.7071 15.2929C30.5196 15.1054 30.2652 15 30 15Z" fill="white"/>
<path d="M50 3.5H47C46.337 3.5 45.7011 3.76339 45.2322 4.23223C44.7634 4.70107 44.5 5.33696 44.5 6V26C44.5 26.663 44.7634 27.2989 45.2322 27.7678C45.7011 28.2366 46.337 28.5 47 28.5H50C50.663 28.5 51.2989 28.2366 51.7678 27.7678C52.2366 27.2989 52.5 26.663 52.5 26V6C52.5 5.33696 52.2366 4.70107 51.7678 4.23223C51.2989 3.76339 50.663 3.5 50 3.5ZM49.5 25.5H47.5V6.5H49.5V25.5ZM59.5 3.5H56.5C55.837 3.5 55.2011 3.76339 54.7322 4.23223C54.2634 4.70107 54 5.33696 54 6V26C54 26.663 54.2634 27.2989 54.7322 27.7678C55.2011 28.2366 55.837 28.5 56.5 28.5H59.5C60.163 28.5 60.7989 28.2366 61.2678 27.7678C61.7366 27.2989 62 26.663 62 26V6C62 5.33696 61.7366 4.70107 61.2678 4.23223C60.7989 3.76339 60.163 3.5 59.5 3.5ZM59 25.5H57V6.5H59V25.5ZM71.5 16C71.5 16.3978 71.342 16.7794 71.0607 17.0607C70.7794 17.342 70.3978 17.5 70 17.5H69V18.5C69 18.8978 68.842 19.2794 68.5607 19.5607C68.2794 19.842 67.8978 20 67.5 20C67.1022 20 66.7206 19.842 66.4393 19.5607C66.158 19.2794 66 18.8978 66 18.5V17.5H65C64.6022 17.5 64.2206 17.342 63.9393 17.0607C63.658 16.7794 63.5 16.3978 63.5 16C63.5 15.6022 63.658 15.2206 63.9393 14.9393C64.2206 14.658 64.6022 14.5 65 14.5H66V13.5C66 13.1022 66.158 12.7206 66.4393 12.4393C66.7206 12.158 67.1022 12 67.5 12C67.8978 12 68.2794 12.158 68.5607 12.4393C68.842 12.7206 69 13.1022 69 13.5V14.5H70C70.3978 14.5 70.7794 14.658 71.0607 14.9393C71.342 15.2206 71.5 15.6022 71.5 16Z" fill="white"/>
</g>
<defs>
<clipPath id="clip0_27_5182">
<rect width="72" height="32" rx="5" fill="white"/>
</clipPath>
</defs>
</svg>
