<svg width="72" height="32" viewBox="0 0 72 32" fill="none" xmlns="http://www.w3.org/2000/svg">
<g clip-path="url(#clip0_27_5172)">
<path d="M15 6V26C15 26.5304 14.7893 27.0391 14.4142 27.4142C14.0391 27.7893 13.5304 28 13 28H8C7.46957 28 6.96086 27.7893 6.58579 27.4142C6.21071 27.0391 6 26.5304 6 26V6C6 5.46957 6.21071 4.96086 6.58579 4.58579C6.96086 4.21071 7.46957 4 8 4H13C13.5304 4 14.0391 4.21071 14.4142 4.58579C14.7893 4.96086 15 5.46957 15 6ZM24 4H19C18.4696 4 17.9609 4.21071 17.5858 4.58579C17.2107 4.96086 17 5.46957 17 6V26C17 26.5304 17.2107 27.0391 17.5858 27.4142C17.9609 27.7893 18.4696 28 19 28H24C24.5304 28 25.0391 27.7893 25.4142 27.4142C25.7893 27.0391 26 26.5304 26 26V6C26 5.46957 25.7893 4.96086 25.4142 4.58579C25.0391 4.21071 24.5304 4 24 4Z" fill="white"/>
<path d="M52.5 3.5H48C47.337 3.5 46.7011 3.76339 46.2322 4.23223C45.7634 4.70107 45.5 5.33696 45.5 6V26C45.5 26.663 45.7634 27.2989 46.2322 27.7678C46.7011 28.2366 47.337 28.5 48 28.5H52.5C53.163 28.5 53.7989 28.2366 54.2678 27.7678C54.7366 27.2989 55 26.663 55 26V6C55 5.33696 54.7366 4.70107 54.2678 4.23223C53.7989 3.76339 53.163 3.5 52.5 3.5ZM52 25.5H48.5V6.5H52V25.5ZM64 3.5H59.5C58.837 3.5 58.2011 3.76339 57.7322 4.23223C57.2634 4.70107 57 5.33696 57 6V26C57 26.663 57.2634 27.2989 57.7322 27.7678C58.2011 28.2366 58.837 28.5 59.5 28.5H64C64.663 28.5 65.2989 28.2366 65.7678 27.7678C66.2366 27.2989 66.5 26.663 66.5 26V6C66.5 5.33696 66.2366 4.70107 65.7678 4.23223C65.2989 3.76339 64.663 3.5 64 3.5ZM63.5 25.5H60V6.5H63.5V25.5Z" fill="white"/>
</g>
<defs>
<clipPath id="clip0_27_5172">
<rect width="72" height="32" rx="5" fill="white"/>
</clipPath>
</defs>
</svg>
