<svg width="72" height="32" viewBox="0 0 72 32" fill="none" xmlns="http://www.w3.org/2000/svg">
<g clip-path="url(#clip0_27_2610)">
<path d="M14.5 14.5H17.5V17.5H14.5V14.5ZM10.75 9C10.2859 9 9.84075 9.18437 9.51256 9.51256C9.18437 9.84075 9 10.2859 9 10.75C9 11.2141 9.18437 11.6592 9.51256 11.9874C9.84075 12.3156 10.2859 12.5 10.75 12.5H12.5V10.75C12.5 10.2859 12.3156 9.84075 11.9874 9.51256C11.6592 9.18437 11.2141 9 10.75 9ZM23 10.75C23 10.2859 22.8156 9.84075 22.4874 9.51256C22.1592 9.18437 21.7141 9 21.25 9C20.7859 9 20.3408 9.18437 20.0126 9.51256C19.6844 9.84075 19.5 10.2859 19.5 10.75V12.5H21.25C21.7141 12.5 22.1592 12.3156 22.4874 11.9874C22.8156 11.6592 23 11.2141 23 10.75ZM9 21.25C9 21.7141 9.18437 22.1592 9.51256 22.4874C9.84075 22.8156 10.2859 23 10.75 23C11.2141 23 11.6592 22.8156 11.9874 22.4874C12.3156 22.1592 12.5 21.7141 12.5 21.25V19.5H10.75C10.2859 19.5 9.84075 19.6844 9.51256 20.0126C9.18437 20.3408 9 20.7859 9 21.25ZM28 6V26C28 26.5304 27.7893 27.0391 27.4142 27.4142C27.0391 27.7893 26.5304 28 26 28H6C5.46957 28 4.96086 27.7893 4.58579 27.4142C4.21071 27.0391 4 26.5304 4 26V6C4 5.46957 4.21071 4.96086 4.58579 4.58579C4.96086 4.21071 5.46957 4 6 4H26C26.5304 4 27.0391 4.21071 27.4142 4.58579C27.7893 4.96086 28 5.46957 28 6ZM19.5 17.5V14.5H21.25C21.9917 14.5 22.7167 14.2801 23.3334 13.868C23.9501 13.456 24.4307 12.8703 24.7145 12.1851C24.9984 11.4998 25.0726 10.7458 24.9279 10.0184C24.7832 9.29098 24.4261 8.6228 23.9017 8.09835C23.3772 7.5739 22.709 7.21675 21.9816 7.07206C21.2542 6.92736 20.5002 7.00162 19.8149 7.28545C19.1297 7.56928 18.544 8.04993 18.132 8.66661C17.7199 9.2833 17.5 10.0083 17.5 10.75V12.5H14.5V10.75C14.5 10.0083 14.2801 9.2833 13.868 8.66661C13.456 8.04993 12.8703 7.56928 12.1851 7.28545C11.4998 7.00162 10.7458 6.92736 10.0184 7.07206C9.29098 7.21675 8.6228 7.5739 8.09835 8.09835C7.5739 8.6228 7.21675 9.29098 7.07206 10.0184C6.92736 10.7458 7.00162 11.4998 7.28545 12.1851C7.56928 12.8703 8.04993 13.456 8.66661 13.868C9.2833 14.2801 10.0083 14.5 10.75 14.5H12.5V17.5H10.75C10.0083 17.5 9.2833 17.7199 8.66661 18.132C8.04993 18.544 7.56928 19.1297 7.28545 19.8149C7.00162 20.5002 6.92736 21.2542 7.07206 21.9816C7.21675 22.709 7.5739 23.3772 8.09835 23.9017C8.6228 24.4261 9.29098 24.7832 10.0184 24.9279C10.7458 25.0726 11.4998 24.9984 12.1851 24.7145C12.8703 24.4307 13.456 23.9501 13.868 23.3334C14.2801 22.7167 14.5 21.9917 14.5 21.25V19.5H17.5V21.25C17.5 21.9917 17.7199 22.7167 18.132 23.3334C18.544 23.9501 19.1297 24.4307 19.8149 24.7145C20.5002 24.9984 21.2542 25.0726 21.9816 24.9279C22.709 24.7832 23.3772 24.4261 23.9017 23.9017C24.4261 23.3772 24.7832 22.709 24.9279 21.9816C25.0726 21.2542 24.9984 20.5002 24.7145 19.8149C24.4307 19.1297 23.9501 18.544 23.3334 18.132C22.7167 17.7199 21.9917 17.5 21.25 17.5H19.5ZM19.5 21.25C19.5 21.5961 19.6026 21.9345 19.7949 22.2222C19.9872 22.51 20.2605 22.7343 20.5803 22.8668C20.9001 22.9992 21.2519 23.0339 21.5914 22.9664C21.9309 22.8988 22.2427 22.7322 22.4874 22.4874C22.7322 22.2427 22.8988 21.9309 22.9664 21.5914C23.0339 21.2519 22.9992 20.9001 22.8668 20.5803C22.7343 20.2605 22.51 19.9872 22.2222 19.7949C21.9345 19.6026 21.5961 19.5 21.25 19.5H19.5V21.25Z" fill="white"/>
<path d="M62.5 17.5H60.5V14.5H62.5C63.4889 14.5 64.4556 14.2068 65.2779 13.6573C66.1001 13.1079 66.741 12.327 67.1194 11.4134C67.4978 10.4998 67.5969 9.49446 67.4039 8.52455C67.211 7.55465 66.7348 6.66373 66.0355 5.96447C65.3363 5.26521 64.4454 4.789 63.4755 4.59608C62.5055 4.40315 61.5002 4.50217 60.5866 4.8806C59.673 5.25904 58.8921 5.89991 58.3427 6.72215C57.7932 7.5444 57.5 8.5111 57.5 9.5V11.5H54.5V9.5C54.5 8.5111 54.2068 7.5444 53.6573 6.72215C53.1079 5.89991 52.327 5.25904 51.4134 4.8806C50.4998 4.50217 49.4945 4.40315 48.5246 4.59608C47.5546 4.789 46.6637 5.26521 45.9645 5.96447C45.2652 6.66373 44.789 7.55465 44.5961 8.52455C44.4031 9.49446 44.5022 10.4998 44.8806 11.4134C45.259 12.327 45.8999 13.1079 46.7222 13.6573C47.5444 14.2068 48.5111 14.5 49.5 14.5H51.5V17.5H49.5C48.5111 17.5 47.5444 17.7932 46.7222 18.3427C45.8999 18.8921 45.259 19.673 44.8806 20.5866C44.5022 21.5002 44.4031 22.5055 44.5961 23.4755C44.789 24.4454 45.2652 25.3363 45.9645 26.0355C46.6637 26.7348 47.5546 27.211 48.5246 27.4039C49.4945 27.5969 50.4998 27.4978 51.4134 27.1194C52.327 26.741 53.1079 26.1001 53.6573 25.2779C54.2068 24.4556 54.5 23.4889 54.5 22.5V20.5H57.5V22.5C57.5 23.4889 57.7932 24.4556 58.3427 25.2779C58.8921 26.1001 59.673 26.741 60.5866 27.1194C61.5002 27.4978 62.5055 27.5969 63.4755 27.4039C64.4454 27.211 65.3363 26.7348 66.0355 26.0355C66.7348 25.3363 67.211 24.4454 67.4039 23.4755C67.5969 22.5055 67.4978 21.5002 67.1194 20.5866C66.741 19.673 66.1001 18.8921 65.2779 18.3427C64.4556 17.7932 63.4889 17.5 62.5 17.5ZM60.5 9.5C60.5 9.10444 60.6173 8.71776 60.8371 8.38886C61.0568 8.05996 61.3692 7.80362 61.7346 7.65224C62.1001 7.50087 62.5022 7.46126 62.8902 7.53843C63.2781 7.6156 63.6345 7.80608 63.9142 8.08579C64.1939 8.36549 64.3844 8.72186 64.4616 9.10982C64.5387 9.49778 64.4991 9.89992 64.3478 10.2654C64.1964 10.6308 63.94 10.9432 63.6111 11.1629C63.2822 11.3827 62.8956 11.5 62.5 11.5H60.5V9.5ZM47.5 9.5C47.5 8.96957 47.7107 8.46086 48.0858 8.08579C48.4609 7.71072 48.9696 7.5 49.5 7.5C50.0304 7.5 50.5391 7.71072 50.9142 8.08579C51.2893 8.46086 51.5 8.96957 51.5 9.5V11.5H49.5C48.9696 11.5 48.4609 11.2893 48.0858 10.9142C47.7107 10.5391 47.5 10.0304 47.5 9.5ZM51.5 22.5C51.5 22.8956 51.3827 23.2822 51.1629 23.6111C50.9432 23.94 50.6308 24.1964 50.2654 24.3478C49.8999 24.4991 49.4978 24.5387 49.1098 24.4616C48.7219 24.3844 48.3655 24.1939 48.0858 23.9142C47.8061 23.6345 47.6156 23.2781 47.5384 22.8902C47.4613 22.5022 47.5009 22.1001 47.6522 21.7346C47.8036 21.3692 48.06 21.0568 48.3889 20.8371C48.7178 20.6173 49.1044 20.5 49.5 20.5H51.5V22.5ZM54.5 14.5H57.5V17.5H54.5V14.5ZM62.5 24.5C61.9696 24.5 61.4609 24.2893 61.0858 23.9142C60.7107 23.5391 60.5 23.0304 60.5 22.5V20.5H62.5C63.0304 20.5 63.5391 20.7107 63.9142 21.0858C64.2893 21.4609 64.5 21.9696 64.5 22.5C64.5 23.0304 64.2893 23.5391 63.9142 23.9142C63.5391 24.2893 63.0304 24.5 62.5 24.5Z" fill="white"/>
</g>
<defs>
<clipPath id="clip0_27_2610">
<rect width="72" height="32" rx="5" fill="white"/>
</clipPath>
</defs>
</svg>
