<svg width="72" height="32" viewBox="0 0 72 32" fill="none" xmlns="http://www.w3.org/2000/svg">
<g clip-path="url(#clip0_27_5187)">
<path d="M26.8899 15.455C26.9544 15.3377 26.9946 15.2087 27.0082 15.0756C27.0218 14.9425 27.0086 14.808 26.9693 14.68C26.93 14.5521 26.8655 14.4334 26.7795 14.3309C26.6935 14.2284 26.5878 14.1442 26.4686 14.0833C26.3495 14.0224 26.2193 13.986 26.0858 13.9763C25.9524 13.9666 25.8183 13.9838 25.6916 14.0268C25.5649 14.0699 25.4482 14.1379 25.3483 14.2269C25.2483 14.316 25.1673 14.4241 25.1099 14.545C24.1855 16.3259 22.7441 17.7857 20.9749 18.7325L18.6949 13.6012C19.3818 13.0865 19.9071 12.386 20.2088 11.5825C20.5106 10.7789 20.5763 9.90587 20.3981 9.06623C20.2199 8.2266 19.8053 7.45543 19.2032 6.84371C18.6011 6.23199 17.8366 5.80522 16.9999 5.61375V3C16.9999 2.73478 16.8946 2.48043 16.7071 2.29289C16.5195 2.10536 16.2652 2 15.9999 2C15.7347 2 15.4804 2.10536 15.2928 2.29289C15.1053 2.48043 14.9999 2.73478 14.9999 3V5.61375C14.1632 5.80522 13.3988 6.23199 12.7967 6.84371C12.1946 7.45543 11.78 8.2266 11.6018 9.06623C11.4236 9.90587 11.4893 10.7789 11.7911 11.5825C12.0928 12.386 12.6181 13.0865 13.3049 13.6012L7.0862 27.5938C7.03212 27.7139 7.00231 27.8435 6.99847 27.9751C6.99463 28.1068 7.01684 28.2379 7.06382 28.361C7.1108 28.484 7.18163 28.5966 7.27223 28.6922C7.36284 28.7878 7.47144 28.8645 7.59179 28.918C7.71215 28.9715 7.84189 29.0007 7.97357 29.004C8.10524 29.0072 8.23626 28.9844 8.35909 28.9368C8.48192 28.8893 8.59415 28.8179 8.68932 28.7269C8.7845 28.6358 8.86075 28.5269 8.9137 28.4062L12.0562 21.3363C13.3241 21.7777 14.6574 22.0021 15.9999 22C17.3432 21.9984 18.6773 21.7785 19.9499 21.3487L23.0862 28.4062C23.1947 28.6473 23.3944 28.8356 23.6414 28.93C23.8884 29.0243 24.1627 29.0169 24.4043 28.9095C24.6459 28.8021 24.8351 28.6033 24.9306 28.3568C25.0261 28.1102 25.02 27.8359 24.9137 27.5938L21.7887 20.5625C23.9739 19.4252 25.7553 17.6416 26.8899 15.455ZM15.9999 20C14.9383 20.0013 13.8832 19.8325 12.8749 19.5L15.1349 14.415C15.7077 14.5283 16.2972 14.5283 16.8699 14.415L19.1374 19.515C18.1226 19.8363 17.0644 19.9998 15.9999 20Z" fill="white"/>
<path d="M67.3345 15.6825C67.4269 15.5068 67.4834 15.3146 67.5009 15.117C67.5184 14.9193 67.4966 14.7201 67.4366 14.531C67.3765 14.3418 67.2796 14.1665 67.1513 14.015C67.0231 13.8636 66.866 13.7392 66.6893 13.6489C66.5126 13.5586 66.3198 13.5042 66.1219 13.489C65.924 13.4738 65.7251 13.498 65.5367 13.5602C65.3483 13.6223 65.174 13.7213 65.0241 13.8513C64.8742 13.9813 64.7515 14.1398 64.6633 14.3175C63.872 15.8459 62.6759 17.1276 61.2058 18.0225L59.5183 14.2238C60.2865 13.5829 60.8654 12.7447 61.1926 11.7993C61.5199 10.854 61.5831 9.83724 61.3754 8.85863C61.1677 7.88001 60.6971 6.97656 60.0141 6.24555C59.3312 5.51453 58.4618 4.98363 57.4995 4.71V3C57.4995 2.60218 57.3415 2.22064 57.0602 1.93934C56.7789 1.65804 56.3974 1.5 55.9995 1.5C55.6017 1.5 55.2202 1.65804 54.9389 1.93934C54.6576 2.22064 54.4995 2.60218 54.4995 3V4.71C53.5373 4.98363 52.6679 5.51453 51.9849 6.24555C51.302 6.97656 50.8313 7.88001 50.6237 8.85863C50.416 9.83724 50.4792 10.854 50.8064 11.7993C51.1337 12.7447 51.7126 13.5829 52.4808 14.2238L46.6245 27.39C46.5439 27.5706 46.4997 27.7653 46.4946 27.963C46.4895 28.1607 46.5236 28.3574 46.5948 28.5419C46.666 28.7264 46.773 28.8949 46.9096 29.0379C47.0462 29.1809 47.2097 29.2955 47.3908 29.375C47.5826 29.4592 47.7901 29.5018 47.9995 29.5C48.2905 29.5008 48.5753 29.417 48.8195 29.2587C49.0636 29.1005 49.2565 28.8746 49.3745 28.6087L52.3333 21.9513C53.5211 22.3163 54.7569 22.5012 55.9995 22.5C57.2438 22.4988 58.4813 22.3169 59.6733 21.96L62.6245 28.6087C62.7426 28.8746 62.9354 29.1005 63.1796 29.2587C63.4237 29.417 63.7086 29.5008 63.9995 29.5C64.2086 29.5017 64.4156 29.4591 64.607 29.375C64.7882 29.2956 64.9518 29.1811 65.0886 29.0382C65.2253 28.8952 65.3324 28.7267 65.4038 28.5422C65.4751 28.3577 65.5093 28.1609 65.5042 27.9632C65.4992 27.7654 65.4551 27.5706 65.3745 27.39L62.4358 20.7775C64.5275 19.5893 66.2293 17.8193 67.3345 15.6825ZM55.9995 7.5C56.494 7.5 56.9773 7.64662 57.3885 7.92133C57.7996 8.19603 58.12 8.58648 58.3092 9.04329C58.4985 9.50011 58.548 10.0028 58.4515 10.4877C58.355 10.9727 58.1169 11.4181 57.7673 11.7678C57.4177 12.1174 56.9722 12.3555 56.4873 12.452C56.0023 12.5484 55.4996 12.4989 55.0428 12.3097C54.586 12.1205 54.1956 11.8 53.9209 11.3889C53.6462 10.9778 53.4995 10.4945 53.4995 10C53.4995 9.33696 53.7629 8.70107 54.2318 8.23223C54.7006 7.76339 55.3365 7.5 55.9995 7.5ZM55.9995 19.5C55.1759 19.5011 54.3557 19.3948 53.5595 19.1838L55.222 15.4438C55.7377 15.5188 56.2614 15.5188 56.777 15.4438L58.4433 19.1938C57.6446 19.3973 56.8237 19.5002 55.9995 19.5Z" fill="white"/>
</g>
<defs>
<clipPath id="clip0_27_5187">
<rect width="72" height="32" rx="5" fill="white"/>
</clipPath>
</defs>
</svg>
