<svg width="72" height="32" viewBox="0 0 72 32" fill="none" xmlns="http://www.w3.org/2000/svg">
<g clip-path="url(#clip0_27_6520)">
<path d="M16 3C13.4288 3 10.9154 3.76244 8.77759 5.1909C6.63975 6.61935 4.97351 8.64968 3.98957 11.0251C3.00563 13.4006 2.74819 16.0144 3.2498 18.5362C3.75141 21.0579 4.98953 23.3743 6.80762 25.1924C8.6257 27.0105 10.9421 28.2486 13.4638 28.7502C15.9856 29.2518 18.5995 28.9944 20.9749 28.0104C23.3503 27.0265 25.3807 25.3603 26.8091 23.2224C28.2376 21.0846 29 18.5712 29 16C28.9964 12.5533 27.6256 9.24882 25.1884 6.81163C22.7512 4.37445 19.4467 3.00364 16 3ZM22.4475 10.2238L18.4475 18.2237C18.3985 18.3202 18.3202 18.3985 18.2238 18.4475L10.2238 22.4475C10.1298 22.4947 10.0234 22.5111 9.91967 22.4943C9.81591 22.4776 9.72005 22.4286 9.64573 22.3543C9.57141 22.2799 9.5224 22.1841 9.50567 22.0803C9.48893 21.9766 9.50532 21.8702 9.55251 21.7763L13.5525 13.7762C13.6015 13.6798 13.6798 13.6015 13.7763 13.5525L21.7763 9.5525C21.8702 9.50531 21.9766 9.48892 22.0803 9.50566C22.1841 9.5224 22.28 9.57141 22.3543 9.64573C22.4286 9.72005 22.4776 9.8159 22.4943 9.91967C22.5111 10.0234 22.4947 10.1298 22.4475 10.2238Z" fill="white"/>
<path d="M56 2.5C53.33 2.5 50.7199 3.29176 48.4998 4.77516C46.2797 6.25856 44.5494 8.36697 43.5276 10.8338C42.5058 13.3006 42.2385 16.015 42.7594 18.6337C43.2803 21.2525 44.5661 23.6579 46.4541 25.5459C48.3421 27.434 50.7475 28.7197 53.3663 29.2406C55.985 29.7615 58.6994 29.4942 61.1662 28.4724C63.633 27.4506 65.7414 25.7203 67.2248 23.5002C68.7082 21.2801 69.5 18.67 69.5 16C69.496 12.4208 68.0724 8.98932 65.5416 6.45844C63.0107 3.92756 59.5792 2.50397 56 2.5ZM56 26.5C53.9233 26.5 51.8932 25.8842 50.1665 24.7304C48.4398 23.5767 47.094 21.9368 46.2993 20.0182C45.5046 18.0996 45.2966 15.9884 45.7018 13.9516C46.1069 11.9148 47.1069 10.0438 48.5754 8.57538C50.0438 7.10693 51.9148 6.1069 53.9516 5.70175C55.9884 5.29661 58.0996 5.50454 60.0182 6.29926C61.9368 7.09399 63.5767 8.4398 64.7304 10.1665C65.8842 11.8932 66.5 13.9233 66.5 16C66.497 18.7839 65.3898 21.4528 63.4213 23.4213C61.4529 25.3898 58.7839 26.497 56 26.5ZM60.4088 9.625L53.4088 12.625C53.0549 12.7767 52.773 13.0587 52.6213 13.4125L49.6213 20.4125C49.5053 20.6878 49.4741 20.9914 49.5318 21.2845C49.5895 21.5776 49.7333 21.8468 49.9449 22.0576C50.1566 22.2684 50.4263 22.4112 50.7196 22.4678C51.0129 22.5243 51.3164 22.492 51.5913 22.375L58.5913 19.375C58.9451 19.2233 59.227 18.9413 59.3788 18.5875L62.3788 11.5875C62.4947 11.3122 62.5259 11.0086 62.4682 10.7155C62.4106 10.4224 62.2667 10.1532 62.0551 9.9424C61.8435 9.73158 61.5737 9.58875 61.2804 9.5322C60.9871 9.47566 60.6836 9.50797 60.4088 9.625ZM56.8575 16.8612L53.8575 18.1475L55.1438 15.1475L58.1438 13.8612L56.8575 16.8612Z" fill="white"/>
</g>
<defs>
<clipPath id="clip0_27_6520">
<rect width="72" height="32" rx="5" fill="white"/>
</clipPath>
</defs>
</svg>
