<svg width="72" height="32" viewBox="0 0 72 32" fill="none" xmlns="http://www.w3.org/2000/svg">
<g clip-path="url(#clip0_27_2620)">
<path d="M25.9236 15.3825C25.8479 15.5652 25.7198 15.7214 25.5553 15.8314C25.3909 15.9413 25.1976 16 24.9998 16H6.99981C6.80192 16.0001 6.60842 15.9416 6.44383 15.8317C6.27923 15.7218 6.15094 15.5656 6.07519 15.3828C5.99944 15.2 5.97963 14.9988 6.01828 14.8047C6.05693 14.6106 6.1523 14.4323 6.29231 14.2925L15.2923 5.29249C15.3852 5.19952 15.4955 5.12576 15.6169 5.07543C15.7383 5.02511 15.8684 4.99921 15.9998 4.99921C16.1312 4.99921 16.2614 5.02511 16.3828 5.07543C16.5041 5.12576 16.6144 5.19952 16.7073 5.29249L25.7073 14.2925C25.8471 14.4324 25.9423 14.6107 25.9808 14.8047C26.0193 14.9987 25.9994 15.1998 25.9236 15.3825Z" fill="white"/>
<path d="M66.0612 16.0612C65.9218 16.2011 65.7563 16.312 65.5739 16.3877C65.3916 16.4634 65.1961 16.5024 64.9987 16.5024C64.8013 16.5024 64.6058 16.4634 64.4235 16.3877C64.2411 16.312 64.0756 16.2011 63.9362 16.0612L55.9999 8.12499L48.0612 16.0612C47.7794 16.343 47.3972 16.5013 46.9987 16.5013C46.6002 16.5013 46.218 16.343 45.9362 16.0612C45.6544 15.7794 45.4961 15.3973 45.4961 14.9987C45.4961 14.6002 45.6544 14.218 45.9362 13.9362L54.9362 4.93624C55.0756 4.7964 55.2411 4.68544 55.4235 4.60974C55.6058 4.53403 55.8013 4.49506 55.9987 4.49506C56.1961 4.49506 56.3916 4.53403 56.5739 4.60974C56.7563 4.68544 56.9218 4.7964 57.0612 4.93624L66.0612 13.9362C66.201 14.0756 66.312 14.2412 66.3877 14.4235C66.4634 14.6058 66.5024 14.8013 66.5024 14.9987C66.5024 15.1962 66.4634 15.3916 66.3877 15.574C66.312 15.7563 66.201 15.9219 66.0612 16.0612Z" fill="white"/>
</g>
<defs>
<clipPath id="clip0_27_2620">
<rect width="72" height="32" rx="5" fill="white"/>
</clipPath>
</defs>
</svg>
