<svg width="72" height="32" viewBox="0 0 72 32" fill="none" xmlns="http://www.w3.org/2000/svg">
<g clip-path="url(#clip0_27_1026)">
<path d="M16 3C13.4288 3 10.9154 3.76244 8.77759 5.1909C6.63975 6.61935 4.97351 8.64968 3.98957 11.0251C3.00563 13.4006 2.74819 16.0144 3.2498 18.5362C3.75141 21.0579 4.98953 23.3743 6.80762 25.1924C8.6257 27.0105 10.9421 28.2486 13.4638 28.7502C15.9856 29.2518 18.5995 28.9944 20.9749 28.0104C23.3503 27.0265 25.3807 25.3603 26.8091 23.2224C28.2376 21.0846 29 18.5712 29 16C28.9964 12.5533 27.6256 9.24882 25.1884 6.81163C22.7512 4.37445 19.4467 3.00364 16 3ZM12.1338 19.4675C12.074 19.5864 11.9911 19.6922 11.8899 19.7786C11.7888 19.865 11.6714 19.9304 11.5446 19.9709C11.4178 20.0114 11.2843 20.0262 11.1517 20.0144C11.0192 20.0026 10.8903 19.9645 10.7727 19.9023C10.6551 19.84 10.5511 19.755 10.4667 19.652C10.3824 19.5491 10.3195 19.4304 10.2816 19.3028C10.2438 19.1752 10.2318 19.0414 10.2463 18.9091C10.2608 18.7768 10.3016 18.6488 10.3663 18.5325C10.7847 17.754 11.0038 16.8839 11.0038 16C11.0038 15.1161 10.7847 14.246 10.3663 13.4675C10.2487 13.2338 10.2275 12.9633 10.3071 12.714C10.3867 12.4648 10.5608 12.2567 10.7921 12.1344C11.0234 12.012 11.2934 11.9852 11.5442 12.0596C11.795 12.1341 12.0067 12.3038 12.1338 12.5325C12.6989 13.6009 12.9943 14.7913 12.9943 16C12.9943 17.2087 12.6989 18.3991 12.1338 19.4675ZM15.6338 21.4675C15.5734 21.5857 15.49 21.6908 15.3886 21.7764C15.2872 21.8621 15.1698 21.9268 15.0431 21.9666C14.9165 22.0064 14.7831 22.0206 14.6509 22.0084C14.5187 21.9961 14.3903 21.9577 14.2731 21.8953C14.1559 21.8328 14.0524 21.7477 13.9684 21.6449C13.8845 21.542 13.8219 21.4235 13.7842 21.2961C13.7466 21.1688 13.7347 21.0353 13.7492 20.9033C13.7637 20.7714 13.8043 20.6436 13.8688 20.5275C14.6117 19.1331 15.0003 17.5774 15.0003 15.9975C15.0003 14.4176 14.6117 12.8619 13.8688 11.4675C13.8043 11.3514 13.7637 11.2236 13.7492 11.0917C13.7347 10.9597 13.7466 10.8262 13.7842 10.6989C13.8219 10.5715 13.8845 10.453 13.9684 10.3501C14.0524 10.2473 14.1559 10.1622 14.2731 10.0997C14.3903 10.0373 14.5187 9.99889 14.6509 9.98664C14.7831 9.97439 14.9165 9.98859 15.0431 10.0284C15.1698 10.0682 15.2872 10.1329 15.3886 10.2186C15.49 10.3042 15.5734 10.4093 15.6338 10.5275C16.5317 12.2114 17.0013 14.0905 17.0011 15.9989C17.0009 17.9073 16.5309 19.7863 15.6325 21.47L15.6338 21.4675ZM19.1338 23.4675C18.998 23.6791 18.7876 23.8318 18.5444 23.8953C18.3011 23.9587 18.0429 23.9282 17.8211 23.8098C17.5994 23.6914 17.4303 23.4939 17.3476 23.2565C17.265 23.0191 17.2747 22.7593 17.375 22.5287C18.4506 20.5207 19.0134 18.278 19.0134 16C19.0134 13.722 18.4506 11.4793 17.375 9.47125C17.25 9.2372 17.2231 8.96308 17.3003 8.7092C17.3774 8.45533 17.5522 8.24248 17.7863 8.1175C18.0203 7.99252 18.2944 7.96563 18.5483 8.04275C18.8022 8.11988 19.015 8.2947 19.14 8.52875C20.369 10.8275 21.0115 13.3941 21.0104 16.0008C21.0093 18.6075 20.3647 21.1735 19.1338 23.4713V23.4675Z" fill="white"/>
<path d="M59.0725 8.29375C60.3416 10.6641 61.0057 13.3113 61.0057 16C61.0057 18.6887 60.3416 21.3359 59.0725 23.7062C58.9816 23.8832 58.8563 24.0403 58.7041 24.1684C58.5519 24.2965 58.3757 24.3931 58.1858 24.4524C57.9959 24.5118 57.7961 24.5327 57.598 24.5141C57.3999 24.4955 57.2075 24.4377 57.032 24.344C56.8565 24.2503 56.7013 24.1226 56.5756 23.9684C56.4499 23.8142 56.3562 23.6365 56.2998 23.4457C56.2434 23.2549 56.2256 23.0548 56.2473 22.857C56.269 22.6593 56.3298 22.4678 56.4263 22.2938C57.4624 20.3577 58.0046 18.1959 58.0046 16C58.0046 13.8041 57.4624 11.6423 56.4263 9.70625C56.3261 9.53206 56.262 9.33951 56.2377 9.14005C56.2133 8.94059 56.2294 8.73829 56.2847 8.54513C56.3401 8.35198 56.4338 8.17193 56.5601 8.01566C56.6864 7.85939 56.8428 7.73009 57.02 7.63543C57.1973 7.54078 57.3917 7.4827 57.5919 7.46465C57.792 7.44659 57.9937 7.46893 58.185 7.53034C58.3763 7.59174 58.5534 7.69096 58.7056 7.8221C58.8579 7.95324 58.9822 8.11363 59.0713 8.29375H59.0725ZM52.545 9.67625C52.3707 9.76832 52.2162 9.89385 52.0904 10.0457C51.9646 10.1975 51.87 10.3726 51.8119 10.5611C51.7539 10.7495 51.7335 10.9475 51.7521 11.1438C51.7706 11.3401 51.8277 11.5308 51.92 11.705C52.6251 13.0268 52.994 14.5019 52.994 16C52.994 17.4981 52.6251 18.9732 51.92 20.295C51.8234 20.4691 51.7624 20.6608 51.7407 20.8587C51.7189 21.0567 51.7368 21.257 51.7932 21.448C51.8497 21.6389 51.9436 21.8168 52.0695 21.9711C52.1954 22.1253 52.3508 22.253 52.5266 22.3466C52.7023 22.4402 52.895 22.4979 53.0933 22.5163C53.2916 22.5347 53.4916 22.5134 53.6815 22.4536C53.8715 22.3939 54.0477 22.297 54.1998 22.1684C54.3519 22.0399 54.4769 21.8824 54.5675 21.705C55.5038 19.9492 55.9935 17.9899 55.9935 16C55.9935 14.0101 55.5038 12.0508 54.5675 10.295C54.3805 9.94562 54.0628 9.68444 53.6839 9.5685C53.3049 9.45257 52.8955 9.49131 52.545 9.67625ZM69.5 16C69.5 18.67 68.7082 21.2801 67.2248 23.5002C65.7414 25.7203 63.633 27.4506 61.1662 28.4724C58.6994 29.4942 55.985 29.7615 53.3663 29.2406C50.7475 28.7197 48.3421 27.434 46.4541 25.5459C44.5661 23.6579 43.2803 21.2525 42.7594 18.6337C42.2385 16.015 42.5058 13.3006 43.5276 10.8338C44.5494 8.36697 46.2797 6.25856 48.4998 4.77516C50.7199 3.29176 53.33 2.5 56 2.5C59.5792 2.50397 63.0107 3.92756 65.5416 6.45844C68.0724 8.98932 69.496 12.4208 69.5 16ZM66.5 16C66.5 13.9233 65.8842 11.8932 64.7304 10.1665C63.5767 8.4398 61.9368 7.09399 60.0182 6.29926C58.0996 5.50454 55.9884 5.29661 53.9516 5.70175C51.9148 6.1069 50.0438 7.10693 48.5754 8.57538C47.1069 10.0438 46.1069 11.9148 45.7018 13.9516C45.2966 15.9884 45.5046 18.0996 46.2993 20.0182C47.094 21.9368 48.4398 23.5767 50.1665 24.7304C51.8932 25.8842 53.9233 26.5 56 26.5C58.7839 26.497 61.4529 25.3898 63.4213 23.4213C65.3898 21.4528 66.497 18.7839 66.5 16Z" fill="white"/>
</g>
<defs>
<clipPath id="clip0_27_1026">
<rect width="72" height="32" rx="5" fill="white"/>
</clipPath>
</defs>
</svg>
