<svg width="72" height="32" viewBox="0 0 72 32" fill="none" xmlns="http://www.w3.org/2000/svg">
<g clip-path="url(#clip0_27_1031)">
<path d="M28 15C26.6739 15 25.4022 14.4732 24.4645 13.5355C23.5268 12.5979 23 11.3261 23 10C23 9.73478 22.8946 9.48043 22.7071 9.29289C22.5196 9.10536 22.2652 9 22 9C20.6739 9 19.4022 8.47322 18.4645 7.53553C17.5268 6.59785 17 5.32608 17 4C17 3.73478 16.8946 3.48043 16.7071 3.29289C16.5196 3.10536 16.2652 3 16 3C13.4288 3 10.9154 3.76244 8.77759 5.1909C6.63975 6.61935 4.97351 8.64968 3.98957 11.0251C3.00563 13.4006 2.74819 16.0144 3.2498 18.5362C3.75141 21.0579 4.98953 23.3743 6.80762 25.1924C8.6257 27.0105 10.9421 28.2486 13.4638 28.7502C15.9856 29.2518 18.5995 28.9944 20.9749 28.0104C23.3503 27.0265 25.3807 25.3603 26.8091 23.2224C28.2376 21.0846 29 18.5712 29 16C29 15.7348 28.8946 15.4804 28.7071 15.2929C28.5196 15.1054 28.2652 15 28 15ZM9.43876 12.4388C9.64874 12.2295 9.91602 12.0871 10.2069 12.0297C10.4977 11.9722 10.799 12.0022 11.0728 12.1159C11.3466 12.2296 11.5805 12.4219 11.7451 12.6684C11.9097 12.915 11.9976 13.2048 11.9976 13.5013C11.9976 13.7977 11.9097 14.0875 11.7451 14.3341C11.5805 14.5806 11.3466 14.7729 11.0728 14.8866C10.799 15.0003 10.4977 15.0303 10.2069 14.9728C9.91602 14.9154 9.64874 14.773 9.43876 14.5638C9.29892 14.4244 9.18796 14.2588 9.11225 14.0765C9.03654 13.8942 8.99757 13.6987 8.99757 13.5013C8.99757 13.3038 9.03654 13.1083 9.11225 12.926C9.18796 12.7437 9.29892 12.5781 9.43876 12.4388ZM12.5638 21.5637C12.3538 21.773 12.0865 21.9154 11.7957 21.9728C11.5048 22.0303 11.2035 22.0003 10.9297 21.8866C10.6559 21.7729 10.422 21.5806 10.2574 21.3341C10.0928 21.0875 10.0049 20.7977 10.0049 20.5012C10.0049 20.2048 10.0928 19.915 10.2574 19.6684C10.422 19.4219 10.6559 19.2296 10.9297 19.1159C11.2035 19.0022 11.5048 18.9722 11.7957 19.0297C12.0865 19.0871 12.3538 19.2295 12.5638 19.4387C12.7031 19.5782 12.8135 19.7438 12.8888 19.926C12.964 20.1082 13.0027 20.3034 13.0024 20.5005C13.0022 20.6976 12.9631 20.8928 12.8874 21.0748C12.8117 21.2568 12.7009 21.4221 12.5613 21.5613L12.5638 21.5637ZM15.4388 16.5637C15.2295 16.3538 15.0872 16.0865 15.0297 15.7957C14.9722 15.5048 15.0023 15.2035 15.1159 14.9297C15.2296 14.6559 15.4219 14.422 15.6684 14.2574C15.915 14.0928 16.2048 14.0049 16.5013 14.0049C16.7977 14.0049 17.0875 14.0928 17.3341 14.2574C17.5806 14.422 17.7729 14.6559 17.8866 14.9297C18.0003 15.2035 18.0303 15.5048 17.9728 15.7957C17.9154 16.0865 17.773 16.3538 17.5638 16.5637C17.4242 16.7034 17.2585 16.8142 17.0761 16.8897C16.8937 16.9652 16.6982 17.0039 16.5007 17.0037C16.3033 17.0035 16.1079 16.9642 15.9256 16.8883C15.7434 16.8124 15.5779 16.7013 15.4388 16.5613V16.5637ZM20.5638 22.5637C20.3538 22.773 20.0865 22.9154 19.7957 22.9728C19.5048 23.0303 19.2035 23.0003 18.9297 22.8866C18.6559 22.7729 18.422 22.5806 18.2574 22.3341C18.0928 22.0875 18.0049 21.7977 18.0049 21.5012C18.0049 21.2048 18.0928 20.915 18.2574 20.6684C18.422 20.4219 18.6559 20.2296 18.9297 20.1159C19.2035 20.0022 19.5048 19.9722 19.7957 20.0297C20.0865 20.0871 20.3538 20.2295 20.5638 20.4387C20.7031 20.5782 20.8135 20.7438 20.8888 20.926C20.964 21.1082 21.0027 21.3034 21.0024 21.5005C21.0022 21.6976 20.9631 21.8928 20.8874 22.0748C20.8117 22.2568 20.7009 22.4221 20.5613 22.5613L20.5638 22.5637Z" fill="white"/>
<path d="M60.9138 20.0863C61.1936 20.3659 61.3842 20.7223 61.4615 21.1103C61.5388 21.4983 61.4992 21.9005 61.3479 22.266C61.1966 22.6315 60.9402 22.944 60.6113 23.1638C60.2824 23.3836 59.8956 23.5009 59.5 23.5009C59.1044 23.5009 58.7177 23.3836 58.3887 23.1638C58.0598 22.944 57.8035 22.6315 57.6521 22.266C57.5008 21.9005 57.4613 21.4983 57.5385 21.1103C57.6158 20.7223 57.8064 20.3659 58.0863 20.0863C58.4613 19.7115 58.9698 19.5009 59.5 19.5009C60.0302 19.5009 60.5387 19.7115 60.9138 20.0863ZM50.0863 19.0863C49.8064 19.3659 49.6158 19.7223 49.5385 20.1103C49.4613 20.4983 49.5008 20.9005 49.6521 21.266C49.8035 21.6315 50.0598 21.944 50.3887 22.1638C50.7177 22.3836 51.1044 22.5009 51.5 22.5009C51.8956 22.5009 52.2824 22.3836 52.6113 22.1638C52.9402 21.944 53.1966 21.6315 53.3479 21.266C53.4992 20.9005 53.5388 20.4983 53.4615 20.1103C53.3842 19.7223 53.1936 19.3659 52.9138 19.0863C52.5387 18.7115 52.0302 18.5009 51.5 18.5009C50.9698 18.5009 50.4613 18.7115 50.0863 19.0863ZM51.9138 14.9137C52.1936 14.6341 52.3842 14.2777 52.4615 13.8897C52.5388 13.5017 52.4992 13.0995 52.3479 12.734C52.1966 12.3685 51.9402 12.056 51.6113 11.8362C51.2824 11.6164 50.8956 11.4991 50.5 11.4991C50.1044 11.4991 49.7177 11.6164 49.3887 11.8362C49.0598 12.056 48.8035 12.3685 48.6521 12.734C48.5008 13.0995 48.4613 13.5017 48.5385 13.8897C48.6158 14.2777 48.8064 14.6341 49.0863 14.9137C49.4613 15.2885 49.9698 15.4991 50.5 15.4991C51.0302 15.4991 51.5387 15.2885 51.9138 14.9137ZM57.9138 14.0863C57.6341 13.8064 57.2777 13.6158 56.8897 13.5385C56.5017 13.4612 56.0995 13.5008 55.734 13.6521C55.3685 13.8035 55.0561 14.0598 54.8362 14.3887C54.6164 14.7177 54.4991 15.1044 54.4991 15.5C54.4991 15.8956 54.6164 16.2823 54.8362 16.6113C55.0561 16.9402 55.3685 17.1965 55.734 17.3479C56.0995 17.4992 56.5017 17.5388 56.8897 17.4615C57.2777 17.3842 57.6341 17.1936 57.9138 16.9137C58.2885 16.5387 58.4991 16.0302 58.4991 15.5C58.4991 14.9698 58.2885 14.4613 57.9138 14.0863ZM69.5 16C69.5 18.67 68.7082 21.2801 67.2248 23.5002C65.7414 25.7203 63.633 27.4506 61.1662 28.4724C58.6994 29.4942 55.985 29.7615 53.3663 29.2406C50.7475 28.7197 48.3421 27.434 46.4541 25.5459C44.5661 23.6579 43.2803 21.2525 42.7594 18.6337C42.2385 16.015 42.5058 13.3006 43.5276 10.8338C44.5494 8.36697 46.2797 6.25856 48.4998 4.77516C50.7199 3.29176 53.33 2.5 56 2.5C56.3978 2.5 56.7794 2.65804 57.0607 2.93934C57.342 3.22064 57.5 3.60218 57.5 4C57.5 5.19347 57.9741 6.33807 58.818 7.18198C59.6619 8.02589 60.8065 8.5 62 8.5C62.3978 8.5 62.7794 8.65804 63.0607 8.93934C63.342 9.22064 63.5 9.60218 63.5 10C63.5 11.1935 63.9741 12.3381 64.818 13.182C65.6619 14.0259 66.8065 14.5 68 14.5C68.3978 14.5 68.7794 14.658 69.0607 14.9393C69.342 15.2206 69.5 15.6022 69.5 16ZM66.4163 17.3312C64.9727 17.017 63.6536 16.2845 62.6237 15.2252C61.5937 14.166 60.8986 12.8269 60.625 11.375C59.1731 11.1017 57.8338 10.4069 56.7743 9.37716C55.7148 8.34746 54.9821 7.02854 54.6675 5.585C52.7206 5.8346 50.8827 6.62491 49.3623 7.86624C47.8418 9.10758 46.6998 10.7502 46.0657 12.6078C45.4316 14.4654 45.3309 16.4635 45.775 18.3754C46.2191 20.2873 47.1902 22.0365 48.5781 23.4244C49.966 24.8123 51.7152 25.7834 53.6271 26.2275C55.539 26.6716 57.5371 26.5709 59.3947 25.9368C61.2523 25.3027 62.8949 24.1607 64.1363 22.6402C65.3776 21.1198 66.1679 19.2819 66.4175 17.335L66.4163 17.3312Z" fill="white"/>
</g>
<defs>
<clipPath id="clip0_27_1031">
<rect width="72" height="32" rx="5" fill="white"/>
</clipPath>
</defs>
</svg>
