<svg width="72" height="32" viewBox="0 0 72 32" fill="none" xmlns="http://www.w3.org/2000/svg">
<g clip-path="url(#clip0_27_6971)">
<path d="M24 9V27C24 27.2652 23.8946 27.5196 23.7071 27.7071C23.5196 27.8946 23.2652 28 23 28H5C4.73478 28 4.48043 27.8946 4.29289 27.7071C4.10536 27.5196 4 27.2652 4 27V9C4 8.73478 4.10536 8.48043 4.29289 8.29289C4.48043 8.10536 4.73478 8 5 8H23C23.2652 8 23.5196 8.10536 23.7071 8.29289C23.8946 8.48043 24 8.73478 24 9ZM27 4H9C8.73478 4 8.48043 4.10536 8.29289 4.29289C8.10536 4.48043 8 4.73478 8 5C8 5.26522 8.10536 5.51957 8.29289 5.70711C8.48043 5.89464 8.73478 6 9 6H26V23C26 23.2652 26.1054 23.5196 26.2929 23.7071C26.4804 23.8946 26.7348 24 27 24C27.2652 24 27.5196 23.8946 27.7071 23.7071C27.8946 23.5196 28 23.2652 28 23V5C28 4.73478 27.8946 4.48043 27.7071 4.29289C27.5196 4.10536 27.2652 4 27 4Z" fill="white"/>
<path d="M62.5 8H45C44.6022 8 44.2206 8.15804 43.9393 8.43934C43.658 8.72064 43.5 9.10218 43.5 9.5V27C43.5 27.3978 43.658 27.7794 43.9393 28.0607C44.2206 28.342 44.6022 28.5 45 28.5H62.5C62.8978 28.5 63.2794 28.342 63.5607 28.0607C63.842 27.7794 64 27.3978 64 27V9.5C64 9.10218 63.842 8.72064 63.5607 8.43934C63.2794 8.15804 62.8978 8 62.5 8ZM61 25.5H46.5V11H61V25.5ZM68.5 5V22.5C68.5 22.8978 68.342 23.2794 68.0607 23.5607C67.7794 23.842 67.3978 24 67 24C66.6022 24 66.2206 23.842 65.9393 23.5607C65.658 23.2794 65.5 22.8978 65.5 22.5V6.5H49.5C49.1022 6.5 48.7206 6.34196 48.4393 6.06066C48.158 5.77936 48 5.39782 48 5C48 4.60218 48.158 4.22064 48.4393 3.93934C48.7206 3.65804 49.1022 3.5 49.5 3.5H67C67.3978 3.5 67.7794 3.65804 68.0607 3.93934C68.342 4.22064 68.5 4.60218 68.5 5Z" fill="white"/>
</g>
<defs>
<clipPath id="clip0_27_6971">
<rect width="72" height="32" rx="5" fill="white"/>
</clipPath>
</defs>
</svg>
