<svg width="72" height="32" viewBox="0 0 72 32" fill="none" xmlns="http://www.w3.org/2000/svg">
<g clip-path="url(#clip0_27_3679)">
<path d="M16 7C14.22 7 12.4799 7.52784 10.9999 8.51677C9.51983 9.50571 8.36628 10.9113 7.68509 12.5558C7.0039 14.2004 6.82567 16.01 7.17294 17.7558C7.52021 19.5016 8.37737 21.1053 9.63604 22.364C10.8947 23.6226 12.4984 24.4798 14.2442 24.8271C15.99 25.1743 17.7996 24.9961 19.4442 24.3149C21.0887 23.6337 22.4943 22.4802 23.4832 21.0001C24.4722 19.5201 25 17.78 25 16C24.9974 13.6139 24.0483 11.3262 22.361 9.63896C20.6738 7.95171 18.3861 7.00265 16 7ZM16 22C15.0681 22.0035 14.1483 21.7883 13.3146 21.3716C12.481 20.955 11.7567 20.3487 11.2 19.6012C11.0407 19.3891 10.9722 19.1223 11.0096 18.8596C11.047 18.597 11.1872 18.3599 11.3994 18.2006C11.6116 18.0413 11.8783 17.9728 12.141 18.0102C12.4037 18.0476 12.6407 18.1878 12.8 18.4C13.3037 19.0716 14.006 19.5677 14.8073 19.8181C15.6087 20.0684 16.4685 20.0602 17.2649 19.7947C18.0614 19.5293 18.7541 19.0199 19.245 18.3388C19.7359 17.6578 20 16.8395 20 16C20 15.1605 19.7359 14.3422 19.245 13.6612C18.7541 12.9801 18.0614 12.4707 17.2649 12.2053C16.4685 11.9398 15.6087 11.9316 14.8073 12.1819C14.006 12.4323 13.3037 12.9284 12.8 13.6C12.6407 13.8122 12.4037 13.9524 12.141 13.9898C11.8783 14.0272 11.6116 13.9587 11.3994 13.7994C11.1872 13.6401 11.047 13.403 11.0096 13.1404C10.9722 12.8777 11.0407 12.6109 11.2 12.3988C11.8138 11.5808 12.6265 10.9333 13.5609 10.5177C14.4952 10.1022 15.5203 9.93233 16.5388 10.0243C17.5573 10.1163 18.5354 10.4671 19.3802 11.0434C20.225 11.6197 20.9085 12.4023 21.3658 13.317C21.8231 14.2317 22.039 15.2481 21.993 16.2697C21.947 17.2913 21.6407 18.2842 21.1031 19.1541C20.5656 20.0241 19.8145 20.7421 18.9214 21.2402C18.0283 21.7383 17.0226 21.9998 16 22ZM16 3C13.4288 3 10.9154 3.76244 8.77759 5.1909C6.63975 6.61935 4.97351 8.64968 3.98957 11.0251C3.00563 13.4006 2.74819 16.0144 3.2498 18.5362C3.75141 21.0579 4.98953 23.3743 6.80762 25.1924C8.6257 27.0105 10.9421 28.2486 13.4638 28.7502C15.9856 29.2518 18.5995 28.9944 20.9749 28.0104C23.3503 27.0265 25.3807 25.3603 26.8091 23.2224C28.2376 21.0846 29 18.5712 29 16C29 12.5522 27.6304 9.24558 25.1924 6.80761C22.7544 4.36964 19.4478 3 16 3ZM16 27C13.8244 27 11.6977 26.3549 9.88873 25.1462C8.07979 23.9375 6.66989 22.2195 5.83733 20.2095C5.00477 18.1995 4.78693 15.9878 5.21137 13.854C5.63581 11.7202 6.68345 9.7602 8.22183 8.22183C9.76021 6.68345 11.7202 5.6358 13.854 5.21136C15.9878 4.78692 18.1995 5.00476 20.2095 5.83733C22.2195 6.66989 23.9375 8.07979 25.1462 9.88873C26.3549 11.6977 27 13.8244 27 16C26.9967 18.9164 25.8367 21.7123 23.7745 23.7745C21.7123 25.8367 18.9164 26.9967 16 27Z" fill="white"/>
<path d="M56 2.5C53.33 2.5 50.7199 3.29176 48.4998 4.77516C46.2797 6.25856 44.5494 8.36697 43.5276 10.8338C42.5058 13.3006 42.2385 16.015 42.7594 18.6337C43.2803 21.2525 44.5661 23.6579 46.4541 25.5459C48.3421 27.434 50.7475 28.7197 53.3663 29.2406C55.985 29.7615 58.6994 29.4942 61.1662 28.4724C63.633 27.4506 65.7414 25.7203 67.2248 23.5002C68.7082 21.2801 69.5 18.67 69.5 16C69.496 12.4208 68.0724 8.98932 65.5416 6.45844C63.0107 3.92756 59.5792 2.50397 56 2.5ZM56 26.5C53.9233 26.5 51.8932 25.8842 50.1665 24.7304C48.4398 23.5767 47.094 21.9368 46.2993 20.0182C45.5046 18.0996 45.2966 15.9884 45.7018 13.9516C46.1069 11.9148 47.1069 10.0438 48.5754 8.57538C50.0438 7.10693 51.9148 6.1069 53.9516 5.70175C55.9884 5.29661 58.0996 5.50454 60.0182 6.29926C61.9368 7.09399 63.5767 8.4398 64.7304 10.1665C65.8842 11.8932 66.5 13.9233 66.5 16C66.497 18.7839 65.3898 21.4528 63.4213 23.4213C61.4529 25.3898 58.7839 26.497 56 26.5ZM62.5 16C62.4999 17.364 62.0707 18.6935 61.2732 19.8C60.4757 20.9066 59.3502 21.7343 58.0563 22.1658C56.7623 22.5973 55.3654 22.6108 54.0633 22.2044C52.7612 21.7979 51.62 20.9922 50.8013 19.9013C50.6762 19.7444 50.5838 19.564 50.5297 19.3709C50.4755 19.1777 50.4607 18.9756 50.486 18.7766C50.5114 18.5776 50.5764 18.3856 50.6772 18.2122C50.778 18.0387 50.9126 17.8873 51.073 17.7668C51.2334 17.6463 51.4164 17.5592 51.611 17.5106C51.8057 17.4621 52.0081 17.4531 52.2063 17.4841C52.4045 17.5152 52.5945 17.5857 52.7649 17.6915C52.9354 17.7973 53.0829 17.9362 53.1988 18.1C53.6395 18.6877 54.254 19.1218 54.9552 19.3408C55.6563 19.5598 56.4087 19.5527 57.1056 19.3204C57.8024 19.0881 58.4086 18.6424 58.8381 18.0465C59.2676 17.4506 59.4988 16.7346 59.4988 16C59.4988 15.2654 59.2676 14.5494 58.8381 13.9535C58.4086 13.3576 57.8024 12.9119 57.1056 12.6796C56.4087 12.4473 55.6563 12.4402 54.9552 12.6592C54.254 12.8782 53.6395 13.3123 53.1988 13.9C53.0829 14.0638 52.9354 14.2027 52.7649 14.3085C52.5945 14.4143 52.4045 14.4848 52.2063 14.5159C52.0081 14.5469 51.8057 14.5379 51.611 14.4894C51.4164 14.4408 51.2334 14.3537 51.073 14.2332C50.9126 14.1127 50.778 13.9613 50.6772 13.7878C50.5764 13.6144 50.5114 13.4224 50.486 13.2234C50.4607 13.0244 50.4755 12.8223 50.5297 12.6291C50.5838 12.436 50.6762 12.2556 50.8013 12.0988C51.62 11.0078 52.7612 10.2021 54.0633 9.79564C55.3654 9.38923 56.7623 9.40273 58.0563 9.83424C59.3502 10.2657 60.4757 11.0934 61.2732 12.2C62.0707 13.3065 62.4999 14.636 62.5 16Z" fill="white"/>
</g>
<defs>
<clipPath id="clip0_27_3679">
<rect width="72" height="32" rx="5" fill="white"/>
</clipPath>
</defs>
</svg>
