<svg width="72" height="32" viewBox="0 0 72 32" fill="none" xmlns="http://www.w3.org/2000/svg">
<g clip-path="url(#clip0_27_3694)">
<path d="M11.7075 25.2925C11.8475 25.4324 11.9429 25.6106 11.9815 25.8047C12.0202 25.9988 12.0004 26.2 11.9246 26.3828C11.8489 26.5656 11.7206 26.7218 11.556 26.8317C11.3914 26.9416 11.1979 27.0002 11 27H6C5.73478 27 5.48043 26.8946 5.29289 26.7071C5.10536 26.5196 5 26.2652 5 26V21C4.99984 20.8021 5.05841 20.6086 5.16828 20.444C5.27815 20.2794 5.43439 20.1511 5.61721 20.0754C5.80003 19.9996 6.00122 19.9798 6.19531 20.0185C6.38939 20.0571 6.56764 20.1525 6.7075 20.2925L11.7075 25.2925ZM11 5H6C5.73478 5 5.48043 5.10536 5.29289 5.29289C5.10536 5.48043 5 5.73478 5 6V11C4.99984 11.1979 5.05841 11.3914 5.16828 11.556C5.27815 11.7206 5.43439 11.8489 5.61721 11.9246C5.80003 12.0004 6.00122 12.0202 6.19531 11.9815C6.38939 11.9429 6.56764 11.8475 6.7075 11.7075L11.7075 6.7075C11.8475 6.56764 11.9429 6.38939 11.9815 6.19531C12.0202 6.00122 12.0004 5.80003 11.9246 5.61721C11.8489 5.43439 11.7206 5.27815 11.556 5.16828C11.3914 5.05841 11.1979 4.99984 11 5ZM26.3825 20.0763C26.1998 20.0005 25.9987 19.9805 25.8047 20.019C25.6107 20.0575 25.4324 20.1527 25.2925 20.2925L20.2925 25.2925C20.1525 25.4324 20.0571 25.6106 20.0185 25.8047C19.9798 25.9988 19.9996 26.2 20.0754 26.3828C20.1511 26.5656 20.2794 26.7218 20.444 26.8317C20.6086 26.9416 20.8021 27.0002 21 27H26C26.2652 27 26.5196 26.8946 26.7071 26.7071C26.8946 26.5196 27 26.2652 27 26V21C27 20.8022 26.9413 20.6089 26.8314 20.4445C26.7214 20.28 26.5652 20.1519 26.3825 20.0763ZM26 5H21C20.8021 4.99984 20.6086 5.05841 20.444 5.16828C20.2794 5.27815 20.1511 5.43439 20.0754 5.61721C19.9996 5.80003 19.9798 6.00122 20.0185 6.19531C20.0571 6.38939 20.1525 6.56764 20.2925 6.7075L25.2925 11.7075C25.4324 11.8475 25.6106 11.9429 25.8047 11.9815C25.9988 12.0202 26.2 12.0004 26.3828 11.9246C26.5656 11.8489 26.7218 11.7206 26.8317 11.556C26.9416 11.3914 27.0002 11.1979 27 11V6C27 5.73478 26.8946 5.48043 26.7071 5.29289C26.5196 5.10536 26.2652 5 26 5Z" fill="white"/>
<path d="M67.5 6V11C67.5 11.3978 67.342 11.7794 67.0607 12.0607C66.7794 12.342 66.3978 12.5 66 12.5C65.6022 12.5 65.2206 12.342 64.9393 12.0607C64.658 11.7794 64.5 11.3978 64.5 11V7.5H61C60.6022 7.5 60.2206 7.34196 59.9393 7.06066C59.658 6.77936 59.5 6.39782 59.5 6C59.5 5.60218 59.658 5.22064 59.9393 4.93934C60.2206 4.65804 60.6022 4.5 61 4.5H66C66.3978 4.5 66.7794 4.65804 67.0607 4.93934C67.342 5.22064 67.5 5.60218 67.5 6ZM51 24.5H47.5V21C47.5 20.6022 47.342 20.2206 47.0607 19.9393C46.7794 19.658 46.3978 19.5 46 19.5C45.6022 19.5 45.2206 19.658 44.9393 19.9393C44.658 20.2206 44.5 20.6022 44.5 21V26C44.5 26.3978 44.658 26.7794 44.9393 27.0607C45.2206 27.342 45.6022 27.5 46 27.5H51C51.3978 27.5 51.7794 27.342 52.0607 27.0607C52.342 26.7794 52.5 26.3978 52.5 26C52.5 25.6022 52.342 25.2206 52.0607 24.9393C51.7794 24.658 51.3978 24.5 51 24.5ZM66 19.5C65.6022 19.5 65.2206 19.658 64.9393 19.9393C64.658 20.2206 64.5 20.6022 64.5 21V24.5H61C60.6022 24.5 60.2206 24.658 59.9393 24.9393C59.658 25.2206 59.5 25.6022 59.5 26C59.5 26.3978 59.658 26.7794 59.9393 27.0607C60.2206 27.342 60.6022 27.5 61 27.5H66C66.3978 27.5 66.7794 27.342 67.0607 27.0607C67.342 26.7794 67.5 26.3978 67.5 26V21C67.5 20.6022 67.342 20.2206 67.0607 19.9393C66.7794 19.658 66.3978 19.5 66 19.5ZM51 4.5H46C45.6022 4.5 45.2206 4.65804 44.9393 4.93934C44.658 5.22064 44.5 5.60218 44.5 6V11C44.5 11.3978 44.658 11.7794 44.9393 12.0607C45.2206 12.342 45.6022 12.5 46 12.5C46.3978 12.5 46.7794 12.342 47.0607 12.0607C47.342 11.7794 47.5 11.3978 47.5 11V7.5H51C51.3978 7.5 51.7794 7.34196 52.0607 7.06066C52.342 6.77936 52.5 6.39782 52.5 6C52.5 5.60218 52.342 5.22064 52.0607 4.93934C51.7794 4.65804 51.3978 4.5 51 4.5Z" fill="white"/>
</g>
<defs>
<clipPath id="clip0_27_3694">
<rect width="72" height="32" rx="5" fill="white"/>
</clipPath>
</defs>
</svg>
