<svg width="72" height="32" viewBox="0 0 72 32" fill="none" xmlns="http://www.w3.org/2000/svg">
<g clip-path="url(#clip0_27_2124)">
<path d="M13.0001 24C13.0001 24.2652 12.8948 24.5196 12.7072 24.7071C12.5197 24.8946 12.2654 25 12.0001 25H10.0001C9.73492 25 9.48057 24.8946 9.29303 24.7071C9.1055 24.5196 9.00014 24.2652 9.00014 24C9.00014 23.7348 9.1055 23.4804 9.29303 23.2929C9.48057 23.1054 9.73492 23 10.0001 23H12.0001C12.2654 23 12.5197 23.1054 12.7072 23.2929C12.8948 23.4804 13.0001 23.7348 13.0001 24ZM22.0001 23H20.0001C19.7349 23 19.4806 23.1054 19.293 23.2929C19.1055 23.4804 19.0001 23.7348 19.0001 24C19.0001 24.2652 19.1055 24.5196 19.293 24.7071C19.4806 24.8946 19.7349 25 20.0001 25H22.0001C22.2654 25 22.5197 24.8946 22.7072 24.7071C22.8948 24.5196 23.0001 24.2652 23.0001 24C23.0001 23.7348 22.8948 23.4804 22.7072 23.2929C22.5197 23.1054 22.2654 23 22.0001 23ZM30.5489 15.265C30.3614 15.4947 30.1251 15.6797 29.8573 15.8069C29.5894 15.934 29.2966 15.9999 29.0001 16H25.0001V20C25.8397 20.6296 26.4598 21.5075 26.7727 22.5092C27.0856 23.5108 27.0754 24.5856 26.7436 25.5811C26.4117 26.5767 25.775 27.4426 24.9237 28.0562C24.0724 28.6698 23.0496 29 22.0001 29H10.0001C8.95073 29 7.92792 28.6698 7.07659 28.0562C6.22526 27.4426 5.58858 26.5767 5.25672 25.5811C4.92487 24.5856 4.91467 23.5108 5.22757 22.5092C5.54047 21.5075 6.16061 20.6296 7.00014 20V16H3.00014C2.70599 15.9995 2.41557 15.9342 2.14958 15.8086C1.88359 15.683 1.64857 15.5003 1.46127 15.2735C1.27397 15.0467 1.13901 14.7814 1.066 14.4964C0.992994 14.2115 0.983736 13.9139 1.03889 13.625C1.35953 12.0401 2.2178 10.6145 3.46851 9.58953C4.71922 8.56454 6.28559 8.00304 7.90264 8H8.10764C7.44031 7.34951 6.91002 6.57196 6.54806 5.71321C6.18609 4.85446 5.99979 3.93191 6.00014 3C6.00014 2.73478 6.1055 2.48043 6.29303 2.29289C6.48057 2.10536 6.73492 2 7.00014 2C7.26536 2 7.51971 2.10536 7.70725 2.29289C7.89478 2.48043 8.00014 2.73478 8.00014 3C8.00014 4.32608 8.52692 5.59785 9.46461 6.53553C10.4023 7.47322 11.6741 8 13.0001 8H19.0001C19.6567 8 20.3069 7.87067 20.9136 7.6194C21.5202 7.36812 22.0714 6.99983 22.5357 6.53553C23 6.07124 23.3683 5.52005 23.6195 4.91342C23.8708 4.30679 24.0001 3.65661 24.0001 3C24.0001 2.73478 24.1055 2.48043 24.293 2.29289C24.4806 2.10536 24.7349 2 25.0001 2C25.2654 2 25.5197 2.10536 25.7072 2.29289C25.8948 2.48043 26.0001 2.73478 26.0001 3C26.0005 3.93191 25.8142 4.85446 25.4522 5.71321C25.0903 6.57196 24.56 7.34951 23.8926 8H24.0976C25.7147 8.00304 27.2811 8.56454 28.5318 9.58953C29.7825 10.6145 30.6407 12.0401 30.9614 13.625C31.0182 13.9119 31.0106 14.2077 30.9393 14.4913C30.868 14.7749 30.7346 15.0391 30.5489 15.265ZM18.0001 15.5C18.0001 15.7967 18.0881 16.0867 18.2529 16.3334C18.4178 16.58 18.652 16.7723 18.9261 16.8858C19.2002 16.9993 19.5018 17.0291 19.7928 16.9712C20.0837 16.9133 20.351 16.7704 20.5608 16.5607C20.7706 16.3509 20.9134 16.0836 20.9713 15.7926C21.0292 15.5017 20.9995 15.2001 20.886 14.926C20.7724 14.6519 20.5802 14.4176 20.3335 14.2528C20.0868 14.088 19.7968 14 19.5001 14C19.1023 14 18.7208 14.158 18.4395 14.4393C18.1582 14.7206 18.0001 15.1022 18.0001 15.5ZM11.0001 15.5C11.0001 15.7967 11.0881 16.0867 11.2529 16.3334C11.4178 16.58 11.652 16.7723 11.9261 16.8858C12.2002 16.9993 12.5018 17.0291 12.7928 16.9712C13.0837 16.9133 13.351 16.7704 13.5608 16.5607C13.7706 16.3509 13.9134 16.0836 13.9713 15.7926C14.0292 15.5017 13.9995 15.2001 13.886 14.926C13.7724 14.6519 13.5802 14.4176 13.3335 14.2528C13.0868 14.088 12.7968 14 12.5001 14C12.1023 14 11.7208 14.158 11.4395 14.4393C11.1582 14.7206 11.0001 15.1022 11.0001 15.5ZM7.00014 14V13C6.99842 11.9179 7.34948 10.8647 8.00014 10H7.90014C6.74805 10.0019 5.63178 10.4007 4.7393 11.1292C3.84682 11.8578 3.23263 12.8716 3.00014 14H7.00014ZM25.0001 24C25.0001 23.2044 24.6841 22.4413 24.1215 21.8787C23.5589 21.3161 22.7958 21 22.0001 21H10.0001C9.20449 21 8.44143 21.3161 7.87882 21.8787C7.31621 22.4413 7.00014 23.2044 7.00014 24C7.00014 24.7956 7.31621 25.5587 7.87882 26.1213C8.44143 26.6839 9.20449 27 10.0001 27H22.0001C22.7958 27 23.5589 26.6839 24.1215 26.1213C24.6841 25.5587 25.0001 24.7956 25.0001 24ZM29.0001 14C28.7679 12.8715 28.1537 11.8575 27.2612 11.1289C26.3687 10.4003 25.2523 10.0016 24.1001 10H24.0001C24.6508 10.8647 25.0019 11.9179 25.0001 13V14H29.0001Z" fill="white"/>
<path d="M55 16C55 16.3956 54.8827 16.7822 54.6629 17.1111C54.4431 17.44 54.1308 17.6964 53.7653 17.8478C53.3999 17.9991 52.9977 18.0387 52.6098 17.9616C52.2218 17.8844 51.8655 17.6939 51.5857 17.4142C51.306 17.1345 51.1156 16.7781 51.0384 16.3902C50.9612 16.0022 51.0008 15.6001 51.1522 15.2346C51.3036 14.8692 51.5599 14.5568 51.8888 14.3371C52.2177 14.1173 52.6044 14 53 14C53.5304 14 54.0391 14.2107 54.4142 14.5858C54.7892 14.9609 55 15.4696 55 16ZM59 14C58.6044 14 58.2177 14.1173 57.8888 14.3371C57.5599 14.5568 57.3036 14.8692 57.1522 15.2346C57.0008 15.6001 56.9612 16.0022 57.0384 16.3902C57.1156 16.7781 57.306 17.1345 57.5857 17.4142C57.8655 17.6939 58.2218 17.8844 58.6098 17.9616C58.9977 18.0387 59.3999 17.9991 59.7653 17.8478C60.1308 17.6964 60.4431 17.44 60.6629 17.1111C60.8827 16.7822 61 16.3956 61 16C61 15.4696 60.7892 14.9609 60.4142 14.5858C60.0391 14.2107 59.5304 14 59 14ZM70.935 15.5825C70.7005 15.8692 70.4053 16.1003 70.0707 16.2589C69.736 16.4176 69.3703 16.4999 69 16.5H65.5V20.8813C66.3196 21.4652 66.9327 22.2943 67.2507 23.2491C67.5687 24.204 67.5752 25.2351 67.2692 26.1939C66.9633 27.1526 66.3608 27.9895 65.5486 28.5837C64.7363 29.1779 63.7563 29.4987 62.75 29.5H49.25C48.2436 29.4987 47.2636 29.1779 46.4514 28.5837C45.6391 27.9895 45.0366 27.1526 44.7307 26.1939C44.4248 25.2351 44.4313 24.204 44.7493 23.2491C45.0672 22.2943 45.6803 21.4652 46.5 20.8813V16.5H43C42.6313 16.4996 42.2672 16.4177 41.9339 16.2602C41.6006 16.1026 41.3063 15.8732 41.072 15.5886C40.8378 15.3039 40.6694 14.9709 40.5789 14.6135C40.4884 14.2561 40.4781 13.8831 40.5487 13.5212C40.8646 11.968 41.6633 10.5544 42.8306 9.48221C43.998 8.41005 45.4743 7.73421 47.0487 7.55125C46.0445 6.24655 45.5 4.64639 45.5 3C45.5 2.60218 45.658 2.22064 45.9393 1.93934C46.2206 1.65804 46.6021 1.5 47 1.5C47.3978 1.5 47.7793 1.65804 48.0606 1.93934C48.3419 2.22064 48.5 2.60218 48.5 3C48.5 4.19347 48.9741 5.33807 49.818 6.18198C50.6619 7.02589 51.8065 7.5 53 7.5H59C60.1934 7.5 61.338 7.02589 62.1819 6.18198C63.0259 5.33807 63.5 4.19347 63.5 3C63.5 2.60218 63.658 2.22064 63.9393 1.93934C64.2206 1.65804 64.6021 1.5 65 1.5C65.3978 1.5 65.7793 1.65804 66.0606 1.93934C66.3419 2.22064 66.5 2.60218 66.5 3C66.5013 4.64581 65.9586 6.24591 64.9562 7.55125C66.5306 7.73421 68.0069 8.41005 69.1743 9.48221C70.3417 10.5544 71.1403 11.968 71.4562 13.5212C71.5281 13.882 71.5186 14.2542 71.4285 14.6108C71.3383 14.9674 71.1697 15.2993 70.935 15.5825ZM49.5 20H62.5V13C62.5 12.337 62.2366 11.7011 61.7677 11.2322C61.2989 10.7634 60.663 10.5 60 10.5H52C51.3369 10.5 50.701 10.7634 50.2322 11.2322C49.7634 11.7011 49.5 12.337 49.5 13V20ZM47.0625 10.58C46.2898 10.7282 45.5693 11.0755 44.9721 11.5877C44.3749 12.0998 43.9217 12.759 43.6575 13.5H46.5V13C46.4991 12.1608 46.6916 11.3328 47.0625 10.58ZM64.5 24.75C64.5 24.2859 64.3156 23.8408 63.9874 23.5126C63.6592 23.1844 63.2141 23 62.75 23H49.25C48.7858 23 48.3407 23.1844 48.0125 23.5126C47.6843 23.8408 47.5 24.2859 47.5 24.75C47.5 25.2141 47.6843 25.6592 48.0125 25.9874C48.3407 26.3156 48.7858 26.5 49.25 26.5H62.75C63.2141 26.5 63.6592 26.3156 63.9874 25.9874C64.3156 25.6592 64.5 25.2141 64.5 24.75ZM68.3425 13.5C68.0782 12.759 67.6251 12.0998 67.0279 11.5877C66.4307 11.0755 65.7101 10.7282 64.9375 10.58C65.3083 11.3328 65.5008 12.1608 65.5 13V13.5H68.3425Z" fill="white"/>
</g>
<defs>
<clipPath id="clip0_27_2124">
<rect width="72" height="32" rx="5" fill="white"/>
</clipPath>
</defs>
</svg>
