<svg width="72" height="32" viewBox="0 0 72 32" fill="none" xmlns="http://www.w3.org/2000/svg">
<g clip-path="url(#clip0_27_3533)">
<path d="M13 13H19V19H13V13ZM30 19C30 19.2652 29.8946 19.5196 29.7071 19.7071C29.5196 19.8946 29.2652 20 29 20H27V25C27 25.5304 26.7893 26.0391 26.4142 26.4142C26.0391 26.7893 25.5304 27 25 27H20V29C20 29.2652 19.8946 29.5196 19.7071 29.7071C19.5196 29.8946 19.2652 30 19 30C18.7348 30 18.4804 29.8946 18.2929 29.7071C18.1054 29.5196 18 29.2652 18 29V27H14V29C14 29.2652 13.8946 29.5196 13.7071 29.7071C13.5196 29.8946 13.2652 30 13 30C12.7348 30 12.4804 29.8946 12.2929 29.7071C12.1054 29.5196 12 29.2652 12 29V27H7C6.46957 27 5.96086 26.7893 5.58579 26.4142C5.21071 26.0391 5 25.5304 5 25V20H3C2.73478 20 2.48043 19.8946 2.29289 19.7071C2.10536 19.5196 2 19.2652 2 19C2 18.7348 2.10536 18.4804 2.29289 18.2929C2.48043 18.1054 2.73478 18 3 18H5V14H3C2.73478 14 2.48043 13.8946 2.29289 13.7071C2.10536 13.5196 2 13.2652 2 13C2 12.7348 2.10536 12.4804 2.29289 12.2929C2.48043 12.1054 2.73478 12 3 12H5V7C5 6.46957 5.21071 5.96086 5.58579 5.58579C5.96086 5.21071 6.46957 5 7 5H12V3C12 2.73478 12.1054 2.48043 12.2929 2.29289C12.4804 2.10536 12.7348 2 13 2C13.2652 2 13.5196 2.10536 13.7071 2.29289C13.8946 2.48043 14 2.73478 14 3V5H18V3C18 2.73478 18.1054 2.48043 18.2929 2.29289C18.4804 2.10536 18.7348 2 19 2C19.2652 2 19.5196 2.10536 19.7071 2.29289C19.8946 2.48043 20 2.73478 20 3V5H25C25.5304 5 26.0391 5.21071 26.4142 5.58579C26.7893 5.96086 27 6.46957 27 7V12H29C29.2652 12 29.5196 12.1054 29.7071 12.2929C29.8946 12.4804 30 12.7348 30 13C30 13.2652 29.8946 13.5196 29.7071 13.7071C29.5196 13.8946 29.2652 14 29 14H27V18H29C29.2652 18 29.5196 18.1054 29.7071 18.2929C29.8946 18.4804 30 18.7348 30 19ZM21 12C21 11.7348 20.8946 11.4804 20.7071 11.2929C20.5196 11.1054 20.2652 11 20 11H12C11.7348 11 11.4804 11.1054 11.2929 11.2929C11.1054 11.4804 11 11.7348 11 12V20C11 20.2652 11.1054 20.5196 11.2929 20.7071C11.4804 20.8946 11.7348 21 12 21H20C20.2652 21 20.5196 20.8946 20.7071 20.7071C20.8946 20.5196 21 20.2652 21 20V12Z" fill="white"/>
<path d="M59.5 11H52.5C52.1022 11 51.7206 11.158 51.4393 11.4393C51.158 11.7206 51 12.1022 51 12.5V19.5C51 19.8978 51.158 20.2794 51.4393 20.5607C51.7206 20.842 52.1022 21 52.5 21H59.5C59.8978 21 60.2794 20.842 60.5607 20.5607C60.842 20.2794 61 19.8978 61 19.5V12.5C61 12.1022 60.842 11.7206 60.5607 11.4393C60.2794 11.158 59.8978 11 59.5 11ZM58 18H54V14H58V18ZM69 17.5H67.5V14.5H69C69.3978 14.5 69.7794 14.342 70.0607 14.0607C70.342 13.7794 70.5 13.3978 70.5 13C70.5 12.6022 70.342 12.2206 70.0607 11.9393C69.7794 11.658 69.3978 11.5 69 11.5H67.5V7C67.5 6.33696 67.2366 5.70107 66.7678 5.23223C66.2989 4.76339 65.663 4.5 65 4.5H60.5V3C60.5 2.60218 60.342 2.22064 60.0607 1.93934C59.7794 1.65804 59.3978 1.5 59 1.5C58.6022 1.5 58.2206 1.65804 57.9393 1.93934C57.658 2.22064 57.5 2.60218 57.5 3V4.5H54.5V3C54.5 2.60218 54.342 2.22064 54.0607 1.93934C53.7794 1.65804 53.3978 1.5 53 1.5C52.6022 1.5 52.2206 1.65804 51.9393 1.93934C51.658 2.22064 51.5 2.60218 51.5 3V4.5H47C46.337 4.5 45.7011 4.76339 45.2322 5.23223C44.7634 5.70107 44.5 6.33696 44.5 7V11.5H43C42.6022 11.5 42.2206 11.658 41.9393 11.9393C41.658 12.2206 41.5 12.6022 41.5 13C41.5 13.3978 41.658 13.7794 41.9393 14.0607C42.2206 14.342 42.6022 14.5 43 14.5H44.5V17.5H43C42.6022 17.5 42.2206 17.658 41.9393 17.9393C41.658 18.2206 41.5 18.6022 41.5 19C41.5 19.3978 41.658 19.7794 41.9393 20.0607C42.2206 20.342 42.6022 20.5 43 20.5H44.5V25C44.5 25.663 44.7634 26.2989 45.2322 26.7678C45.7011 27.2366 46.337 27.5 47 27.5H51.5V29C51.5 29.3978 51.658 29.7794 51.9393 30.0607C52.2206 30.342 52.6022 30.5 53 30.5C53.3978 30.5 53.7794 30.342 54.0607 30.0607C54.342 29.7794 54.5 29.3978 54.5 29V27.5H57.5V29C57.5 29.3978 57.658 29.7794 57.9393 30.0607C58.2206 30.342 58.6022 30.5 59 30.5C59.3978 30.5 59.7794 30.342 60.0607 30.0607C60.342 29.7794 60.5 29.3978 60.5 29V27.5H65C65.663 27.5 66.2989 27.2366 66.7678 26.7678C67.2366 26.2989 67.5 25.663 67.5 25V20.5H69C69.3978 20.5 69.7794 20.342 70.0607 20.0607C70.342 19.7794 70.5 19.3978 70.5 19C70.5 18.6022 70.342 18.2206 70.0607 17.9393C69.7794 17.658 69.3978 17.5 69 17.5ZM64.5 24.5H47.5V7.5H64.5V24.5Z" fill="white"/>
</g>
<defs>
<clipPath id="clip0_27_3533">
<rect width="72" height="32" rx="5" fill="white"/>
</clipPath>
</defs>
</svg>
