<svg width="72" height="32" viewBox="0 0 72 32" fill="none" xmlns="http://www.w3.org/2000/svg">
<g clip-path="url(#clip0_27_1057)">
<path d="M15.9663 26H14V20.5C14 20.3674 13.9473 20.2402 13.8536 20.1464C13.7598 20.0527 13.6326 20 13.5 20H5.5C5.36739 20 5.24021 20.0527 5.14645 20.1464C5.05268 20.2402 5 20.3674 5 20.5V26H3.03375C2.77525 25.9959 2.52481 26.09 2.33296 26.2633C2.14111 26.4366 2.02212 26.6762 2 26.9338C1.99092 27.0705 2.01006 27.2077 2.05623 27.3368C2.1024 27.4659 2.17462 27.5841 2.2684 27.6841C2.36218 27.7841 2.47552 27.8637 2.60137 27.9181C2.72723 27.9724 2.86291 28.0003 3 28H16C16.1371 28.0003 16.2728 27.9724 16.3986 27.9181C16.5245 27.8637 16.6378 27.7841 16.7316 27.6841C16.8254 27.5841 16.8976 27.4659 16.9438 27.3368C16.9899 27.2077 17.0091 27.0705 17 26.9338C16.9779 26.6762 16.8589 26.4366 16.667 26.2633C16.4752 26.09 16.2247 25.9959 15.9663 26Z" fill="white"/>
<path d="M29.9662 10H13.6175L10.895 4.5525C10.8119 4.38636 10.6841 4.24667 10.526 4.14908C10.3679 4.05149 10.1858 3.99987 10 4H6C5.73478 4 5.48043 4.10536 5.29289 4.29289C5.10536 4.48043 5 4.73478 5 5V10H3.03375C2.77525 9.99589 2.52481 10.09 2.33296 10.2633C2.14111 10.4366 2.02212 10.6762 2 10.9338C1.99092 11.0705 2.01006 11.2077 2.05623 11.3368C2.1024 11.4659 2.17462 11.5841 2.2684 11.6841C2.36218 11.7841 2.47552 11.8637 2.60137 11.9181C2.72723 11.9724 2.86291 12.0003 3 12H5V17.5C5 17.6326 5.05268 17.7598 5.14645 17.8536C5.24021 17.9473 5.36739 18 5.5 18H13.5C13.6326 18 13.7598 17.9473 13.8536 17.8536C13.9473 17.7598 14 17.6326 14 17.5V12H26V23H24V22.0338C24.0032 21.7758 23.9087 21.5261 23.7355 21.3349C23.5624 21.1436 23.3233 21.0249 23.0662 21.0025C22.9295 20.9934 22.7923 21.0126 22.6632 21.0587C22.5341 21.1049 22.4159 21.1771 22.3159 21.2709C22.2159 21.3647 22.1363 21.478 22.0819 21.6039C22.0276 21.7297 21.9997 21.8654 22 22.0025V23.0025C22 23.5329 22.2107 24.0416 22.5858 24.4167C22.9609 24.7918 23.4696 25.0025 24 25.0025H26C26.5304 25.0025 27.0391 24.7918 27.4142 24.4167C27.7893 24.0416 28 23.5329 28 23.0025V12H30C30.1371 12.0003 30.2728 11.9724 30.3986 11.9181C30.5245 11.8637 30.6378 11.7841 30.7316 11.6841C30.8254 11.5841 30.8976 11.4659 30.9438 11.3368C30.9899 11.2077 31.0091 11.0705 31 10.9338C30.9779 10.6762 30.8589 10.4366 30.667 10.2633C30.4752 10.09 30.2247 9.99589 29.9662 10ZM7 10V6H9.3825L11.3825 10H7Z" fill="white"/>
<path d="M70 9.5H53.9275L51.3413 4.32875C51.2166 4.07973 51.0252 3.87031 50.7883 3.72394C50.5514 3.57757 50.2785 3.50003 50 3.5H46C45.6022 3.5 45.2206 3.65804 44.9393 3.93934C44.658 4.22064 44.5 4.60218 44.5 5V9.5H43C42.6022 9.5 42.2206 9.65804 41.9393 9.93934C41.658 10.2206 41.5 10.6022 41.5 11C41.5 11.3978 41.658 11.7794 41.9393 12.0607C42.2206 12.342 42.6022 12.5 43 12.5H44.5V25.5H43C42.6022 25.5 42.2206 25.658 41.9393 25.9393C41.658 26.2206 41.5 26.6022 41.5 27C41.5 27.3978 41.658 27.7794 41.9393 28.0607C42.2206 28.342 42.6022 28.5 43 28.5H56C56.3978 28.5 56.7794 28.342 57.0607 28.0607C57.342 27.7794 57.5 27.3978 57.5 27C57.5 26.6022 57.342 26.2206 57.0607 25.9393C56.7794 25.658 56.3978 25.5 56 25.5H54.5V12.5H65.5V22.5H64V22C64 21.6022 63.842 21.2206 63.5607 20.9393C63.2794 20.658 62.8978 20.5 62.5 20.5C62.1022 20.5 61.7206 20.658 61.4393 20.9393C61.158 21.2206 61 21.6022 61 22V23C61 23.663 61.2634 24.2989 61.7322 24.7678C62.2011 25.2366 62.837 25.5 63.5 25.5H66C66.663 25.5 67.2989 25.2366 67.7678 24.7678C68.2366 24.2989 68.5 23.663 68.5 23V12.5H70C70.3978 12.5 70.7794 12.342 71.0607 12.0607C71.342 11.7794 71.5 11.3978 71.5 11C71.5 10.6022 71.342 10.2206 71.0607 9.93934C70.7794 9.65804 70.3978 9.5 70 9.5ZM47.5 6.5H49.0725L50.5725 9.5H47.5V6.5ZM47.5 25.5V20.5H51.5V25.5H47.5ZM51.5 17.5H47.5V12.5H51.5V17.5Z" fill="white"/>
</g>
<defs>
<clipPath id="clip0_27_1057">
<rect width="72" height="32" rx="5" fill="white"/>
</clipPath>
</defs>
</svg>
