<svg width="72" height="32" viewBox="0 0 72 32" fill="none" xmlns="http://www.w3.org/2000/svg">
<g clip-path="url(#clip0_27_1062)">
<path d="M28 6H4C3.46957 6 2.96086 6.21071 2.58579 6.58579C2.21071 6.96086 2 7.46957 2 8V24C2 24.5304 2.21071 25.0391 2.58579 25.4142C2.96086 25.7893 3.46957 26 4 26H28C28.5304 26 29.0391 25.7893 29.4142 25.4142C29.7893 25.0391 30 24.5304 30 24V8C30 7.46957 29.7893 6.96086 29.4142 6.58579C29.0391 6.21071 28.5304 6 28 6ZM17 22H15C14.7348 22 14.4804 21.8946 14.2929 21.7071C14.1054 21.5196 14 21.2652 14 21C14 20.7348 14.1054 20.4804 14.2929 20.2929C14.4804 20.1054 14.7348 20 15 20H17C17.2652 20 17.5196 20.1054 17.7071 20.2929C17.8946 20.4804 18 20.7348 18 21C18 21.2652 17.8946 21.5196 17.7071 21.7071C17.5196 21.8946 17.2652 22 17 22ZM25 22H21C20.7348 22 20.4804 21.8946 20.2929 21.7071C20.1054 21.5196 20 21.2652 20 21C20 20.7348 20.1054 20.4804 20.2929 20.2929C20.4804 20.1054 20.7348 20 21 20H25C25.2652 20 25.5196 20.1054 25.7071 20.2929C25.8946 20.4804 26 20.7348 26 21C26 21.2652 25.8946 21.5196 25.7071 21.7071C25.5196 21.8946 25.2652 22 25 22ZM4 11V8H28V11H4Z" fill="white"/>
<path d="M68 5.5H44C43.337 5.5 42.7011 5.76339 42.2322 6.23223C41.7634 6.70107 41.5 7.33696 41.5 8V24C41.5 24.663 41.7634 25.2989 42.2322 25.7678C42.7011 26.2366 43.337 26.5 44 26.5H68C68.663 26.5 69.2989 26.2366 69.7678 25.7678C70.2366 25.2989 70.5 24.663 70.5 24V8C70.5 7.33696 70.2366 6.70107 69.7678 6.23223C69.2989 5.76339 68.663 5.5 68 5.5ZM67.5 8.5V11H44.5V8.5H67.5ZM44.5 23.5V14H67.5V23.5H44.5ZM66 20.5C66 20.8978 65.842 21.2794 65.5607 21.5607C65.2794 21.842 64.8978 22 64.5 22H60.5C60.1022 22 59.7206 21.842 59.4393 21.5607C59.158 21.2794 59 20.8978 59 20.5C59 20.1022 59.158 19.7206 59.4393 19.4393C59.7206 19.158 60.1022 19 60.5 19H64.5C64.8978 19 65.2794 19.158 65.5607 19.4393C65.842 19.7206 66 20.1022 66 20.5ZM57.5 20.5C57.5 20.8978 57.342 21.2794 57.0607 21.5607C56.7794 21.842 56.3978 22 56 22H54.5C54.1022 22 53.7206 21.842 53.4393 21.5607C53.158 21.2794 53 20.8978 53 20.5C53 20.1022 53.158 19.7206 53.4393 19.4393C53.7206 19.158 54.1022 19 54.5 19H56C56.3978 19 56.7794 19.158 57.0607 19.4393C57.342 19.7206 57.5 20.1022 57.5 20.5Z" fill="white"/>
</g>
<defs>
<clipPath id="clip0_27_1062">
<rect width="72" height="32" rx="5" fill="white"/>
</clipPath>
</defs>
</svg>
