<svg width="72" height="32" viewBox="0 0 72 32" fill="none" xmlns="http://www.w3.org/2000/svg">
<g clip-path="url(#clip0_27_4620)">
<path d="M30.4137 10.1713L23.8288 3.58625C23.643 3.40049 23.4225 3.25313 23.1798 3.15259C22.9372 3.05205 22.6771 3.00031 22.4144 3.00031C22.1517 3.00031 21.8916 3.05205 21.6489 3.15259C21.4062 3.25313 21.1857 3.40049 21 3.58625L7.58625 17C7.40048 17.1857 7.25312 17.4062 7.15259 17.6489C7.05205 17.8916 7.0003 18.1517 7.0003 18.4144C7.0003 18.6771 7.05205 18.9372 7.15259 19.1799C7.25312 19.4225 7.40048 19.643 7.58625 19.8288L10.1713 22.4138L4.29625 28.2888C4.10861 28.4764 4.00319 28.7309 4.00319 28.9963C4.00319 29.2616 4.10861 29.5161 4.29625 29.7038C4.48389 29.8914 4.73839 29.9968 5.00375 29.9968C5.26911 29.9968 5.52361 29.8914 5.71125 29.7038L11.5863 23.8288L14.1713 26.4138C14.357 26.5995 14.5775 26.7469 14.8202 26.8474C15.0628 26.948 15.3229 26.9997 15.5856 26.9997C15.8483 26.9997 16.1084 26.948 16.3511 26.8474C16.5938 26.7469 16.8143 26.5995 17 26.4138L30.4137 13C30.5995 12.8143 30.7469 12.5938 30.8474 12.3511C30.948 12.1084 30.9997 11.8483 30.9997 11.5856C30.9997 11.3229 30.948 11.0628 30.8474 10.8202C30.7469 10.5775 30.5995 10.357 30.4137 10.1713ZM15.5863 25L13 22.4138L16.7075 18.7075C16.8951 18.5199 17.0006 18.2654 17.0006 18C17.0006 17.7346 16.8951 17.4801 16.7075 17.2925C16.5199 17.1049 16.2654 16.9994 16 16.9994C15.7346 16.9994 15.4801 17.1049 15.2925 17.2925L11.5863 21L9 18.4138L13.4137 14H20V20.5863L15.5863 25ZM4 7.5C4 6.80777 4.20527 6.13108 4.58986 5.55551C4.97444 4.97994 5.52107 4.53133 6.16061 4.26642C6.80015 4.00152 7.50388 3.93221 8.18282 4.06725C8.86175 4.2023 9.48539 4.53565 9.97487 5.02513C10.4644 5.51461 10.7977 6.13825 10.9327 6.81719C11.0678 7.49612 10.9985 8.19985 10.7336 8.83939C10.4687 9.47894 10.0201 10.0256 9.4445 10.4101C8.86892 10.7947 8.19223 11 7.5 11C6.57174 11 5.6815 10.6313 5.02513 9.97488C4.36875 9.3185 4 8.42826 4 7.5Z" fill="white"/>
<path d="M70.7689 9.8175L64.1826 3.23125C63.7138 2.76257 63.078 2.49928 62.4151 2.49928C61.7522 2.49928 61.1164 2.76257 60.6476 3.23125L47.2326 16.6462C46.7639 17.1151 46.5006 17.7508 46.5006 18.4137C46.5006 19.0767 46.7639 19.7124 47.2326 20.1812L49.4651 22.4137L43.9401 27.9387C43.6583 28.2205 43.5 28.6027 43.5 29.0012C43.5 29.3998 43.6583 29.782 43.9401 30.0637C44.2219 30.3455 44.6041 30.5039 45.0026 30.5039C45.4011 30.5039 45.7833 30.3455 46.0651 30.0637L51.5901 24.5375L53.8226 26.77C54.2914 27.2387 54.9272 27.502 55.5901 27.502C56.253 27.502 56.8888 27.2387 57.3576 26.77L70.7689 13.3525C71.2375 12.8837 71.5008 12.2479 71.5008 11.585C71.5008 10.9221 71.2375 10.2863 70.7689 9.8175ZM55.5864 24.2925L53.7114 22.4175L57.0651 19.0637C57.3469 18.782 57.5052 18.3998 57.5052 18.0012C57.5052 17.6027 57.3469 17.2205 57.0651 16.9387C56.7833 16.657 56.4011 16.4986 56.0026 16.4986C55.6041 16.4986 55.2219 16.657 54.9401 16.9387L51.5864 20.2925L49.7114 18.4175L53.6251 14.5H59.5001V20.375L55.5864 24.2925ZM62.5001 17.375V13C62.5001 12.6022 62.3421 12.2206 62.0608 11.9393C61.7795 11.658 61.3979 11.5 61.0001 11.5H56.6251L62.4176 5.7075L68.2926 11.5825L62.5001 17.375ZM47.5001 11.5C48.2912 11.5 49.0646 11.2654 49.7224 10.8259C50.3802 10.3864 50.8929 9.76164 51.1956 9.03073C51.4984 8.29983 51.5776 7.49556 51.4232 6.71964C51.2689 5.94371 50.8879 5.23098 50.3285 4.67157C49.7691 4.11216 49.0564 3.7312 48.2805 3.57686C47.5045 3.42252 46.7003 3.50173 45.9694 3.80448C45.2385 4.10723 44.6137 4.61992 44.1742 5.27772C43.7347 5.93551 43.5001 6.70887 43.5001 7.5C43.5001 8.56086 43.9215 9.57828 44.6717 10.3284C45.4218 11.0786 46.4392 11.5 47.5001 11.5ZM47.5001 6.5C47.6979 6.5 47.8912 6.55865 48.0557 6.66853C48.2201 6.77841 48.3483 6.93459 48.424 7.11732C48.4997 7.30004 48.5195 7.50111 48.4809 7.69509C48.4423 7.88907 48.3471 8.06725 48.2072 8.20711C48.0674 8.34696 47.8892 8.4422 47.6952 8.48078C47.5012 8.51937 47.3001 8.49957 47.1174 8.42388C46.9347 8.34819 46.7785 8.22002 46.6686 8.05557C46.5588 7.89112 46.5001 7.69778 46.5001 7.5C46.5001 7.23478 46.6055 6.98043 46.793 6.79289C46.9805 6.60536 47.2349 6.5 47.5001 6.5Z" fill="white"/>
</g>
<defs>
<clipPath id="clip0_27_4620">
<rect width="72" height="32" rx="5" fill="white"/>
</clipPath>
</defs>
</svg>
