<svg width="72" height="32" viewBox="0 0 72 32" fill="none" xmlns="http://www.w3.org/2000/svg">
<g clip-path="url(#clip0_27_5192)">
<path d="M26 4H6C5.46957 4 4.96086 4.21071 4.58579 4.58579C4.21071 4.96086 4 5.46957 4 6V26C4 26.5304 4.21071 27.0391 4.58579 27.4142C4.96086 27.7893 5.46957 28 6 28H26C26.5304 28 27.0391 27.7893 27.4142 27.4142C27.7893 27.0391 28 26.5304 28 26V6C28 5.46957 27.7893 4.96086 27.4142 4.58579C27.0391 4.21071 26.5304 4 26 4ZM15 10H21C21.2652 10 21.5196 10.1054 21.7071 10.2929C21.8946 10.4804 22 10.7348 22 11V17C22 17.2652 21.8946 17.5196 21.7071 17.7071C21.5196 17.8946 21.2652 18 21 18C20.7348 18 20.4804 17.8946 20.2929 17.7071C20.1054 17.5196 20 17.2652 20 17V12H15C14.7348 12 14.4804 11.8946 14.2929 11.7071C14.1054 11.5196 14 11.2652 14 11C14 10.7348 14.1054 10.4804 14.2929 10.2929C14.4804 10.1054 14.7348 10 15 10ZM24 22H22V24C22 24.2652 21.8946 24.5196 21.7071 24.7071C21.5196 24.8946 21.2652 25 21 25C20.7348 25 20.4804 24.8946 20.2929 24.7071C20.1054 24.5196 20 24.2652 20 24V22H11C10.7348 22 10.4804 21.8946 10.2929 21.7071C10.1054 21.5196 10 21.2652 10 21V12H8C7.73478 12 7.48043 11.8946 7.29289 11.7071C7.10536 11.5196 7 11.2652 7 11C7 10.7348 7.10536 10.4804 7.29289 10.2929C7.48043 10.1054 7.73478 10 8 10H10V8C10 7.73478 10.1054 7.48043 10.2929 7.29289C10.4804 7.10536 10.7348 7 11 7C11.2652 7 11.5196 7.10536 11.7071 7.29289C11.8946 7.48043 12 7.73478 12 8V20H24C24.2652 20 24.5196 20.1054 24.7071 20.2929C24.8946 20.4804 25 20.7348 25 21C25 21.2652 24.8946 21.5196 24.7071 21.7071C24.5196 21.8946 24.2652 22 24 22Z" fill="white"/>
<path d="M70.5 24C70.5 24.3978 70.342 24.7794 70.0607 25.0607C69.7794 25.342 69.3978 25.5 69 25.5H65.5V29C65.5 29.3978 65.342 29.7794 65.0607 30.0607C64.7794 30.342 64.3978 30.5 64 30.5C63.6022 30.5 63.2206 30.342 62.9393 30.0607C62.658 29.7794 62.5 29.3978 62.5 29V25.5H48C47.6022 25.5 47.2206 25.342 46.9393 25.0607C46.658 24.7794 46.5 24.3978 46.5 24V9.5H43C42.6022 9.5 42.2206 9.34196 41.9393 9.06066C41.658 8.77936 41.5 8.39782 41.5 8C41.5 7.60218 41.658 7.22064 41.9393 6.93934C42.2206 6.65804 42.6022 6.5 43 6.5H46.5V3C46.5 2.60218 46.658 2.22064 46.9393 1.93934C47.2206 1.65804 47.6022 1.5 48 1.5C48.3978 1.5 48.7794 1.65804 49.0607 1.93934C49.342 2.22064 49.5 2.60218 49.5 3V22.5H69C69.3978 22.5 69.7794 22.658 70.0607 22.9393C70.342 23.2206 70.5 23.6022 70.5 24ZM53 9.5H62.5V19C62.5 19.3978 62.658 19.7794 62.9393 20.0607C63.2206 20.342 63.6022 20.5 64 20.5C64.3978 20.5 64.7794 20.342 65.0607 20.0607C65.342 19.7794 65.5 19.3978 65.5 19V8C65.5 7.60218 65.342 7.22064 65.0607 6.93934C64.7794 6.65804 64.3978 6.5 64 6.5H53C52.6022 6.5 52.2206 6.65804 51.9393 6.93934C51.658 7.22064 51.5 7.60218 51.5 8C51.5 8.39782 51.658 8.77936 51.9393 9.06066C52.2206 9.34196 52.6022 9.5 53 9.5Z" fill="white"/>
</g>
<defs>
<clipPath id="clip0_27_5192">
<rect width="72" height="32" rx="5" fill="white"/>
</clipPath>
</defs>
</svg>
