<svg width="72" height="32" viewBox="0 0 72 32" fill="none" xmlns="http://www.w3.org/2000/svg">
<g clip-path="url(#clip0_27_530)">
<path d="M27 11.5V14.5C27 15.0304 26.7893 15.5391 26.4142 15.9142C26.0391 16.2893 25.5304 16.5 25 16.5H19.5V28C19.5 28.5304 19.2893 29.0391 18.9142 29.4142C18.5391 29.7893 18.0304 30 17.5 30H14.5C13.9696 30 13.4609 29.7893 13.0858 29.4142C12.7107 29.0391 12.5 28.5304 12.5 28V16.5H7C6.46957 16.5 5.96086 16.2893 5.58579 15.9142C5.21071 15.5391 5 15.0304 5 14.5V11.5C5 10.9696 5.21071 10.4609 5.58579 10.0858C5.96086 9.71071 6.46957 9.5 7 9.5H12.5V4C12.5 3.46957 12.7107 2.96086 13.0858 2.58579C13.4609 2.21071 13.9696 2 14.5 2H17.5C18.0304 2 18.5391 2.21071 18.9142 2.58579C19.2893 2.96086 19.5 3.46957 19.5 4V9.5H25C25.5304 9.5 26.0391 9.71071 26.4142 10.0858C26.7893 10.4609 27 10.9696 27 11.5Z" fill="white"/>
<path d="M65 8.5H60.5V4C60.5 3.6717 60.4353 3.34661 60.3097 3.04329C60.1841 2.73998 59.9999 2.46438 59.7678 2.23223C59.5356 2.00009 59.26 1.81594 58.9567 1.6903C58.6534 1.56466 58.3283 1.5 58 1.5H54C53.337 1.5 52.7011 1.76339 52.2322 2.23223C51.7634 2.70107 51.5 3.33696 51.5 4V8.5H47C46.337 8.5 45.7011 8.76339 45.2322 9.23223C44.7634 9.70107 44.5 10.337 44.5 11V15C44.5 15.663 44.7634 16.2989 45.2322 16.7678C45.7011 17.2366 46.337 17.5 47 17.5H51.5V28C51.5 28.663 51.7634 29.2989 52.2322 29.7678C52.7011 30.2366 53.337 30.5 54 30.5H58C58.3283 30.5 58.6534 30.4353 58.9567 30.3097C59.26 30.1841 59.5356 29.9999 59.7678 29.7678C59.9999 29.5356 60.1841 29.26 60.3097 28.9567C60.4353 28.6534 60.5 28.3283 60.5 28V17.5H65C65.663 17.5 66.2989 17.2366 66.7678 16.7678C67.2366 16.2989 67.5 15.663 67.5 15V11C67.5 10.337 67.2366 9.70107 66.7678 9.23223C66.2989 8.76339 65.663 8.5 65 8.5ZM64.5 14.5H59C58.6022 14.5 58.2206 14.658 57.9393 14.9393C57.658 15.2206 57.5 15.6022 57.5 16V27.5H54.5V16C54.5 15.6022 54.342 15.2206 54.0607 14.9393C53.7794 14.658 53.3978 14.5 53 14.5H47.5V11.5H53C53.3978 11.5 53.7794 11.342 54.0607 11.0607C54.342 10.7794 54.5 10.3978 54.5 10V4.5H57.5V10C57.5 10.3978 57.658 10.7794 57.9393 11.0607C58.2206 11.342 58.6022 11.5 59 11.5H64.5V14.5Z" fill="white"/>
</g>
<defs>
<clipPath id="clip0_27_530">
<rect width="72" height="32" rx="5" fill="white"/>
</clipPath>
</defs>
</svg>
