<svg width="72" height="32" viewBox="0 0 72 32" fill="none" xmlns="http://www.w3.org/2000/svg">
<g clip-path="url(#clip0_27_6535)">
<path d="M22 17H24.9425C24.713 19.0274 23.8024 20.9169 22.3597 22.3597C20.9169 23.8024 19.0274 24.713 17 24.9425V22C17 21.7348 16.8946 21.4804 16.7071 21.2929C16.5196 21.1054 16.2652 21 16 21C15.7348 21 15.4804 21.1054 15.2929 21.2929C15.1054 21.4804 15 21.7348 15 22V24.9425C12.9726 24.713 11.0831 23.8024 9.64035 22.3597C8.19762 20.9169 7.28704 19.0274 7.05751 17H10C10.2652 17 10.5196 16.8946 10.7071 16.7071C10.8946 16.5196 11 16.2652 11 16C11 15.7348 10.8946 15.4804 10.7071 15.2929C10.5196 15.1054 10.2652 15 10 15H7.05751C7.28704 12.9726 8.19762 11.0831 9.64035 9.64035C11.0831 8.19761 12.9726 7.28703 15 7.0575V10C15 10.2652 15.1054 10.5196 15.2929 10.7071C15.4804 10.8946 15.7348 11 16 11C16.2652 11 16.5196 10.8946 16.7071 10.7071C16.8946 10.5196 17 10.2652 17 10V7.0575C19.0274 7.28703 20.9169 8.19761 22.3597 9.64035C23.8024 11.0831 24.713 12.9726 24.9425 15H22C21.7348 15 21.4804 15.1054 21.2929 15.2929C21.1054 15.4804 21 15.7348 21 16C21 16.2652 21.1054 16.5196 21.2929 16.7071C21.4804 16.8946 21.7348 17 22 17ZM29 16C29 18.5712 28.2376 21.0846 26.8091 23.2224C25.3807 25.3603 23.3503 27.0265 20.9749 28.0104C18.5995 28.9944 15.9856 29.2518 13.4638 28.7502C10.9421 28.2486 8.6257 27.0105 6.80762 25.1924C4.98953 23.3743 3.75141 21.0579 3.2498 18.5362C2.74819 16.0144 3.00563 13.4006 3.98957 11.0251C4.97351 8.64968 6.63975 6.61935 8.77759 5.1909C10.9154 3.76244 13.4288 3 16 3C19.4467 3.00364 22.7512 4.37445 25.1884 6.81163C27.6256 9.24882 28.9964 12.5533 29 16ZM27 16C27 13.8244 26.3549 11.6977 25.1462 9.88873C23.9375 8.07979 22.2195 6.66989 20.2095 5.83733C18.1995 5.00476 15.9878 4.78692 13.854 5.21136C11.7202 5.6358 9.76021 6.68345 8.22183 8.22183C6.68345 9.7602 5.63581 11.7202 5.21137 13.854C4.78693 15.9878 5.00477 18.1995 5.83733 20.2095C6.66989 22.2195 8.07979 23.9375 9.88873 25.1462C11.6977 26.3549 13.8244 27 16 27C18.9164 26.9967 21.7123 25.8367 23.7745 23.7745C25.8367 21.7123 26.9967 18.9164 27 16Z" fill="white"/>
<path d="M56 2.5C53.33 2.5 50.7199 3.29176 48.4998 4.77516C46.2797 6.25856 44.5494 8.36697 43.5276 10.8338C42.5058 13.3006 42.2385 16.015 42.7594 18.6337C43.2803 21.2525 44.5661 23.6579 46.4541 25.5459C48.3421 27.434 50.7475 28.7197 53.3663 29.2406C55.985 29.7615 58.6994 29.4942 61.1662 28.4724C63.633 27.4506 65.7414 25.7203 67.2248 23.5002C68.7082 21.2801 69.5 18.67 69.5 16C69.496 12.4208 68.0724 8.98932 65.5416 6.45844C63.0107 3.92756 59.5792 2.50397 56 2.5ZM57.5 26.3913V23C57.5 22.6022 57.342 22.2206 57.0607 21.9393C56.7794 21.658 56.3978 21.5 56 21.5C55.6022 21.5 55.2206 21.658 54.9393 21.9393C54.658 22.2206 54.5 22.6022 54.5 23V26.3913C52.2583 26.0638 50.1822 25.0217 48.5802 23.4198C46.9783 21.8178 45.9362 19.7417 45.6088 17.5H49C49.3978 17.5 49.7794 17.342 50.0607 17.0607C50.342 16.7794 50.5 16.3978 50.5 16C50.5 15.6022 50.342 15.2206 50.0607 14.9393C49.7794 14.658 49.3978 14.5 49 14.5H45.6088C45.9362 12.2583 46.9783 10.1822 48.5802 8.58024C50.1822 6.97832 52.2583 5.93617 54.5 5.60875V9C54.5 9.39782 54.658 9.77936 54.9393 10.0607C55.2206 10.342 55.6022 10.5 56 10.5C56.3978 10.5 56.7794 10.342 57.0607 10.0607C57.342 9.77936 57.5 9.39782 57.5 9V5.60875C59.7417 5.93617 61.8178 6.97832 63.4198 8.58024C65.0217 10.1822 66.0638 12.2583 66.3913 14.5H63C62.6022 14.5 62.2207 14.658 61.9393 14.9393C61.658 15.2206 61.5 15.6022 61.5 16C61.5 16.3978 61.658 16.7794 61.9393 17.0607C62.2207 17.342 62.6022 17.5 63 17.5H66.3913C66.0638 19.7417 65.0217 21.8178 63.4198 23.4198C61.8178 25.0217 59.7417 26.0638 57.5 26.3913Z" fill="white"/>
</g>
<defs>
<clipPath id="clip0_27_6535">
<rect width="72" height="32" rx="5" fill="white"/>
</clipPath>
</defs>
</svg>
