<svg width="72" height="32" viewBox="0 0 72 32" fill="none" xmlns="http://www.w3.org/2000/svg">
<g clip-path="url(#clip0_27_4635)">
<path d="M29.9683 11.3512C29.9683 11.365 29.9683 11.3775 29.9596 11.3912L27.1246 24.375C27.0373 24.8322 26.7933 25.2446 26.4346 25.5412C26.0759 25.8379 25.625 26.0001 25.1596 26H6.83833C6.3731 25.9998 5.92248 25.8374 5.56405 25.5408C5.20563 25.2443 4.96181 24.832 4.87458 24.375L2.03958 11.3912C2.03958 11.3775 2.03333 11.365 2.03083 11.3512C1.95324 10.9214 2.01852 10.4779 2.21669 10.0886C2.41487 9.69935 2.73504 9.38566 3.12829 9.19548C3.52154 9.00531 3.96624 8.94911 4.39444 9.03547C4.82264 9.12183 5.21079 9.34601 5.49958 9.67374L9.70833 14.21L14.1833 4.17374C14.1835 4.16958 14.1835 4.16541 14.1833 4.16124C14.3433 3.81418 14.5995 3.52022 14.9213 3.31418C15.2432 3.10814 15.6174 2.99864 15.9996 2.99864C16.3818 2.99864 16.7559 3.10814 17.0778 3.31418C17.3997 3.52022 17.6558 3.81418 17.8158 4.16124C17.8156 4.16541 17.8156 4.16958 17.8158 4.17374L22.2908 14.21L26.4996 9.67374C26.789 9.34844 27.1766 9.12646 27.6036 9.0415C28.0307 8.95655 28.4738 9.01327 28.8656 9.20305C29.2575 9.39283 29.5767 9.7053 29.7748 10.093C29.9729 10.4807 30.0391 10.9225 29.9633 11.3512H29.9683Z" fill="white"/>
<path d="M69.0787 8.75C68.5912 8.51244 68.0392 8.44138 67.5075 8.54773C66.9757 8.65408 66.4936 8.93197 66.1349 9.33875L62.4449 13.3162L58.2774 3.97L58.2699 3.9525C58.0698 3.51884 57.7497 3.15157 57.3474 2.89415C56.9451 2.63673 56.4775 2.49992 55.9999 2.49992C55.5223 2.49992 55.0547 2.63673 54.6525 2.89415C54.2502 3.15157 53.93 3.51884 53.7299 3.9525L53.7224 3.97L49.5549 13.315L45.8649 9.3375C45.5025 8.93247 45.0179 8.65659 44.4846 8.55166C43.9513 8.44672 43.3984 8.51844 42.9095 8.75596C42.4206 8.99348 42.0224 9.38385 41.7753 9.86794C41.5282 10.352 41.4456 10.9035 41.5399 11.4387C41.5399 11.4587 41.5474 11.4775 41.5512 11.4975L44.3837 24.47C44.493 25.041 44.7979 25.5561 45.246 25.9266C45.6941 26.2972 46.2573 26.4999 46.8387 26.5H65.1612C65.7426 26.4999 66.3058 26.2972 66.7539 25.9266C67.202 25.5561 67.5069 25.041 67.6162 24.47L70.4487 11.5C70.4487 11.48 70.4574 11.4612 70.4599 11.4412C70.5593 10.9031 70.4776 10.3472 70.2277 9.86034C69.9779 9.37348 69.5738 8.98305 69.0787 8.75ZM64.7574 23.5H47.2424L44.8824 12.6887L48.8999 17.02C49.0685 17.2031 49.28 17.3413 49.5152 17.4223C49.7505 17.5033 50.0023 17.5244 50.2478 17.4839C50.4933 17.4433 50.7249 17.3423 50.9216 17.19C51.1184 17.0377 51.2742 16.8388 51.3749 16.6112L55.9999 6.2275L60.6249 16.6112C60.726 16.8378 60.8816 17.0358 61.078 17.1874C61.2743 17.3391 61.5052 17.4396 61.75 17.4801C61.9947 17.5206 62.2457 17.4998 62.4804 17.4195C62.7151 17.3392 62.9263 17.2019 63.0949 17.02L67.1124 12.6887L64.7574 23.5Z" fill="white"/>
</g>
<defs>
<clipPath id="clip0_27_4635">
<rect width="72" height="32" rx="5" fill="white"/>
</clipPath>
</defs>
</svg>
