<svg width="72" height="32" viewBox="0 0 72 32" fill="none" xmlns="http://www.w3.org/2000/svg">
<g clip-path="url(#clip0_27_4625)">
<path d="M30.9999 10C31.0004 9.45183 30.8721 8.9112 30.6254 8.42168C30.3787 7.93216 30.0204 7.50744 29.5795 7.18174C29.1386 6.85603 28.6273 6.63845 28.0869 6.54652C27.5465 6.45459 26.992 6.49088 26.4682 6.65247C25.9444 6.81407 25.4658 7.09644 25.0711 7.47685C24.6764 7.85725 24.3766 8.32505 24.1958 8.84256C24.015 9.36006 23.9583 9.9128 24.0302 10.4562C24.1021 10.9997 24.3007 11.5186 24.6099 11.9713L21.2612 16.0963L18.2499 9.17501C18.7991 8.71278 19.1929 8.09287 19.3779 7.39929C19.563 6.70572 19.5302 5.97204 19.2842 5.29769C19.0382 4.62334 18.5908 4.04094 18.0026 3.62943C17.4145 3.21792 16.714 2.99721 15.9962 2.99721C15.2784 2.99721 14.5779 3.21792 13.9897 3.62943C13.4016 4.04094 12.9542 4.62334 12.7082 5.29769C12.4621 5.97204 12.4294 6.70572 12.6144 7.39929C12.7994 8.09287 13.1932 8.71278 13.7424 9.17501L10.7387 16.0925L7.38994 11.9675C7.82011 11.3372 8.0325 10.5836 7.99474 9.82137C7.95699 9.05918 7.67116 8.33022 7.18079 7.7455C6.69043 7.16079 6.0224 6.75236 5.27844 6.58242C4.53448 6.41248 3.75537 6.49034 3.05976 6.80415C2.36415 7.11796 1.79016 7.65052 1.42521 8.32072C1.06026 8.99091 0.924354 9.76202 1.03818 10.5166C1.15201 11.2712 1.50935 11.9679 2.05576 12.5006C2.60217 13.0333 3.30771 13.3729 4.06494 13.4675L5.87494 24.3288C5.95275 24.7957 6.19367 25.2199 6.55485 25.5259C6.91603 25.832 7.37405 25.9999 7.84744 26H24.1524C24.6258 25.9999 25.0838 25.832 25.445 25.5259C25.8062 25.2199 26.0471 24.7957 26.1249 24.3288L27.9337 13.4725C28.7802 13.3668 29.5589 12.9556 30.1235 12.3161C30.6881 11.6767 30.9998 10.8531 30.9999 10ZM15.9999 5.00001C16.2966 5.00001 16.5866 5.08798 16.8333 5.2528C17.08 5.41763 17.2722 5.65189 17.3858 5.92598C17.4993 6.20007 17.529 6.50167 17.4711 6.79264C17.4132 7.08361 17.2704 7.35089 17.0606 7.56067C16.8508 7.77045 16.5835 7.91331 16.2926 7.97119C16.0016 8.02906 15.7 7.99936 15.4259 7.88583C15.1518 7.7723 14.9176 7.58004 14.7527 7.33336C14.5879 7.08669 14.4999 6.79668 14.4999 6.50001C14.4999 6.10218 14.658 5.72065 14.9393 5.43935C15.2206 5.15804 15.6021 5.00001 15.9999 5.00001ZM2.99994 10C2.99994 9.70334 3.08791 9.41333 3.25273 9.16665C3.41756 8.91998 3.65182 8.72772 3.92591 8.61419C4.2 8.50066 4.5016 8.47095 4.79257 8.52883C5.08355 8.58671 5.35082 8.72957 5.5606 8.93935C5.77038 9.14913 5.91324 9.4164 5.97112 9.70737C6.02899 9.99834 5.99929 10.2999 5.88576 10.574C5.77223 10.8481 5.57997 11.0824 5.33329 11.2472C5.08662 11.412 4.79661 11.5 4.49994 11.5C4.10211 11.5 3.72058 11.342 3.43928 11.0607C3.15797 10.7794 2.99994 10.3978 2.99994 10ZM27.4999 11.5C27.2033 11.5 26.9133 11.412 26.6666 11.2472C26.4199 11.0824 26.2277 10.8481 26.1141 10.574C26.0006 10.2999 25.9709 9.99834 26.0288 9.70737C26.0866 9.4164 26.2295 9.14913 26.4393 8.93935C26.6491 8.72957 26.9163 8.58671 27.2073 8.52883C27.4983 8.47095 27.7999 8.50066 28.074 8.61419C28.3481 8.72772 28.5823 8.91998 28.7471 9.16665C28.912 9.41333 28.9999 9.70334 28.9999 10C28.9999 10.3978 28.8419 10.7794 28.5606 11.0607C28.2793 11.342 27.8978 11.5 27.4999 11.5Z" fill="white"/>
<path d="M71.5 10C71.5008 9.38931 71.3617 8.78654 71.0935 8.23791C70.8253 7.68927 70.435 7.20934 69.9526 6.83489C69.4701 6.46045 68.9084 6.20143 68.3103 6.07771C67.7123 5.95399 67.0939 5.96884 66.5025 6.12112C65.9111 6.27341 65.3624 6.55909 64.8985 6.95625C64.4346 7.35342 64.0678 7.85154 63.8262 8.41242C63.5847 8.97329 63.4747 9.58204 63.5048 10.192C63.5349 10.8019 63.7043 11.3969 64 11.9312L61.3925 15.1387L58.8525 9.3C59.405 8.7379 59.7792 8.02508 59.928 7.25104C60.0768 6.47701 59.9936 5.67625 59.6889 4.94934C59.3842 4.22242 58.8714 3.60174 58.2151 3.16523C57.5588 2.72872 56.7882 2.49585 56 2.49585C55.2117 2.49585 54.4411 2.72872 53.7848 3.16523C53.1285 3.60174 52.6158 4.22242 52.311 4.94934C52.0063 5.67625 51.9231 6.47701 52.0719 7.25104C52.2207 8.02508 52.5949 8.7379 53.1475 9.3L50.6087 15.1387L48 11.9312C48.4053 11.196 48.5691 10.3519 48.468 9.51839C48.3669 8.68492 48.0061 7.90439 47.4368 7.28736C46.8674 6.67034 46.1183 6.24812 45.2956 6.0805C44.473 5.91289 43.6184 6.00838 42.853 6.35346C42.0876 6.69854 41.4502 7.27571 41.0311 8.00319C40.612 8.73067 40.4324 9.57159 40.5178 10.4068C40.6032 11.242 40.9492 12.0292 41.5069 12.6568C42.0646 13.2845 42.8056 13.7207 43.625 13.9037L45.375 24.4112C45.4711 24.9967 45.7728 25.5287 46.226 25.9115C46.6793 26.2944 47.2542 26.5031 47.8475 26.5H64.1525C64.7457 26.5031 65.3207 26.2944 65.7739 25.9115C66.2271 25.5287 66.5289 24.9967 66.625 24.4112L68.375 13.9037C69.2613 13.7039 70.0534 13.2086 70.6213 12.4993C71.1891 11.7899 71.499 10.9086 71.5 10ZM67.5 9C67.6977 9 67.8911 9.05865 68.0555 9.16853C68.22 9.27841 68.3482 9.43459 68.4238 9.61731C68.4995 9.80004 68.5193 10.0011 68.4807 10.1951C68.4422 10.3891 68.3469 10.5673 68.2071 10.7071C68.0672 10.847 67.889 10.9422 67.695 10.9808C67.5011 11.0194 67.3 10.9996 67.1173 10.9239C66.9345 10.8482 66.7784 10.72 66.6685 10.5556C66.5586 10.3911 66.5 10.1978 66.5 10C66.5 9.73478 66.6053 9.48043 66.7929 9.29289C66.9804 9.10535 67.2347 9 67.5 9ZM56 5.5C56.1977 5.5 56.3911 5.55865 56.5555 5.66853C56.72 5.77841 56.8482 5.93459 56.9238 6.11731C56.9995 6.30004 57.0193 6.50111 56.9807 6.69509C56.9422 6.88907 56.8469 7.06725 56.7071 7.2071C56.5672 7.34696 56.389 7.4422 56.1951 7.48078C56.0011 7.51937 55.8 7.49956 55.6173 7.42388C55.4345 7.34819 55.2784 7.22002 55.1685 7.05557C55.0586 6.89112 55 6.69778 55 6.5C55 6.23478 55.1053 5.98043 55.2929 5.79289C55.4804 5.60535 55.7347 5.5 56 5.5ZM44.5 9C44.6977 9 44.8911 9.05865 45.0555 9.16853C45.22 9.27841 45.3482 9.43459 45.4238 9.61731C45.4995 9.80004 45.5193 10.0011 45.4807 10.1951C45.4422 10.3891 45.3469 10.5673 45.2071 10.7071C45.0672 10.847 44.889 10.9422 44.695 10.9808C44.5011 11.0194 44.3 10.9996 44.1173 10.9239C43.9345 10.8482 43.7784 10.72 43.6685 10.5556C43.5586 10.3911 43.5 10.1978 43.5 10C43.5 9.73478 43.6053 9.48043 43.7929 9.29289C43.9804 9.10535 44.2347 9 44.5 9ZM63.7287 23.5H48.2712L46.9112 15.3475L49.8362 18.9462C49.9768 19.1192 50.1543 19.2587 50.3556 19.3545C50.5569 19.4503 50.777 19.5 51 19.5C51.0681 19.4997 51.1362 19.4951 51.2037 19.4862C51.4587 19.4512 51.7003 19.3512 51.9055 19.1958C52.1106 19.0403 52.2723 18.8347 52.375 18.5987L55.8975 10.5H56H56.1025L59.625 18.5987C59.7277 18.8347 59.8893 19.0403 60.0945 19.1958C60.2996 19.3512 60.5412 19.4512 60.7962 19.4862C60.8638 19.4951 60.9318 19.4997 61 19.5C61.2229 19.5 61.443 19.4503 61.6443 19.3545C61.8456 19.2587 62.0231 19.1192 62.1637 18.9462L65.0887 15.3475L63.7287 23.5Z" fill="white"/>
</g>
<defs>
<clipPath id="clip0_27_4625">
<rect width="72" height="32" rx="5" fill="white"/>
</clipPath>
</defs>
</svg>
