<svg width="72" height="32" viewBox="0 0 72 32" fill="none" xmlns="http://www.w3.org/2000/svg">
<g clip-path="url(#clip0_27_4630)">
<path d="M16 10.4025C15.7181 9.94492 15.3823 9.52275 15 9.145V5H13C12.7348 5 12.4804 4.89464 12.2929 4.70711C12.1054 4.51957 12 4.26522 12 4C12 3.73478 12.1054 3.48043 12.2929 3.29289C12.4804 3.10536 12.7348 3 13 3H15V1C15 0.734784 15.1054 0.48043 15.2929 0.292893C15.4804 0.105357 15.7348 0 16 0C16.2652 0 16.5196 0.105357 16.7071 0.292893C16.8946 0.48043 17 0.734784 17 1V3H19C19.2652 3 19.5196 3.10536 19.7071 3.29289C19.8946 3.48043 20 3.73478 20 4C20 4.26522 19.8946 4.51957 19.7071 4.70711C19.5196 4.89464 19.2652 5 19 5H17V9.145C16.6177 9.52275 16.2819 9.94492 16 10.4025ZM22.5 7C20.2825 7 18.3487 7.81 17 9.145V22C17 22.2652 16.8946 22.5196 16.7071 22.7071C16.5196 22.8946 16.2652 23 16 23C15.7348 23 15.4804 22.8946 15.2929 22.7071C15.1054 22.5196 15 22.2652 15 22V9.145C13.6512 7.81 11.7175 7 9.5 7C7.51159 7.00232 5.60528 7.79324 4.19926 9.19926C2.79324 10.6053 2.00232 12.5116 2 14.5C2 18.2325 3.8175 20.6063 5.34125 21.94C6.14199 22.6378 7.03703 23.2194 8 23.6675V26C8 26.5304 8.21071 27.0391 8.58579 27.4142C8.96086 27.7893 9.46957 28 10 28H22C22.5304 28 23.0391 27.7893 23.4142 27.4142C23.7893 27.0391 24 26.5304 24 26V23.6675C24.963 23.2194 25.858 22.6378 26.6588 21.94C28.1825 20.6063 30 18.2325 30 14.5C29.9977 12.5116 29.2068 10.6053 27.8007 9.19926C26.3947 7.79324 24.4884 7.00232 22.5 7Z" fill="white"/>
<path d="M62.5 7C60.575 7 58.8512 7.57625 57.5 8.5625V5.5H59C59.3978 5.5 59.7794 5.34196 60.0607 5.06066C60.342 4.77936 60.5 4.39782 60.5 4C60.5 3.60218 60.342 3.22064 60.0607 2.93934C59.7794 2.65804 59.3978 2.5 59 2.5H57.5V1.5C57.5 1.10218 57.342 0.720644 57.0607 0.43934C56.7794 0.158035 56.3978 0 56 0C55.6022 0 55.2206 0.158035 54.9393 0.43934C54.658 0.720644 54.5 1.10218 54.5 1.5V2.5H53C52.6022 2.5 52.2206 2.65804 51.9393 2.93934C51.658 3.22064 51.5 3.60218 51.5 4C51.5 4.39782 51.658 4.77936 51.9393 5.06066C52.2206 5.34196 52.6022 5.5 53 5.5H54.5V8.5625C53.1488 7.57625 51.425 7 49.5 7C47.379 7.00232 45.3455 7.84591 43.8457 9.3457C42.3459 10.8455 41.5023 12.879 41.5 15C41.5 18.9575 43.4412 21.325 45.0687 22.6138C45.8119 23.1998 46.6295 23.6849 47.5 24.0562V26C47.5 26.663 47.7634 27.2989 48.2322 27.7678C48.7011 28.2366 49.337 28.5 50 28.5H62C62.663 28.5 63.2989 28.2366 63.7678 27.7678C64.2366 27.2989 64.5 26.663 64.5 26V24.0562C65.3705 23.6849 66.1881 23.1998 66.9312 22.6138C68.5588 21.325 70.5 18.9575 70.5 15C70.4977 12.879 69.6541 10.8455 68.1543 9.3457C66.6545 7.84591 64.621 7.00232 62.5 7ZM62.6362 21.545C62.3117 21.6261 62.0237 21.8134 61.8178 22.077C61.6119 22.3406 61.5001 22.6655 61.5 23V25.5H50.5V23C50.4999 22.6655 50.3881 22.3406 50.1822 22.077C49.9763 21.8134 49.6883 21.6261 49.3638 21.545C48.48 21.2723 47.6551 20.8369 46.9313 20.2612C45.3175 18.9837 44.5 17.2137 44.5 15C44.5 13.6739 45.0268 12.4021 45.9645 11.4645C46.9021 10.5268 48.1739 10 49.5 10C52.3975 10 54.5 11.8925 54.5 14.5V22C54.5 22.3978 54.658 22.7794 54.9393 23.0607C55.2206 23.342 55.6022 23.5 56 23.5C56.3978 23.5 56.7794 23.342 57.0607 23.0607C57.342 22.7794 57.5 22.3978 57.5 22V14.5C57.5 11.8925 59.6025 10 62.5 10C63.8261 10 65.0979 10.5268 66.0355 11.4645C66.9732 12.4021 67.5 13.6739 67.5 15C67.5 20.21 62.8275 21.5 62.6362 21.545Z" fill="white"/>
</g>
<defs>
<clipPath id="clip0_27_4630">
<rect width="72" height="32" rx="5" fill="white"/>
</clipPath>
</defs>
</svg>
