<svg width="72" height="32" viewBox="0 0 72 32" fill="none" xmlns="http://www.w3.org/2000/svg">
<g clip-path="url(#clip0_27_5197)">
<path d="M27.96 8.26876L16.96 2.25001C16.6661 2.08761 16.3358 2.00243 16 2.00243C15.6642 2.00243 15.3339 2.08761 15.04 2.25001L4.04 8.27126C3.72586 8.44314 3.46363 8.69621 3.28069 9.00404C3.09775 9.31187 3.00081 9.66317 3 10.0213V21.9763C3.00081 22.3343 3.09775 22.6856 3.28069 22.9935C3.46363 23.3013 3.72586 23.5544 4.04 23.7263L15.04 29.7475C15.3339 29.9099 15.6642 29.9951 16 29.9951C16.3358 29.9951 16.6661 29.9099 16.96 29.7475L27.96 23.7263C28.2741 23.5544 28.5364 23.3013 28.7193 22.9935C28.9023 22.6856 28.9992 22.3343 29 21.9763V10.0225C28.9999 9.66378 28.9032 9.3117 28.7203 9.00315C28.5373 8.6946 28.2747 8.44094 27.96 8.26876ZM16 15L5.95625 9.50001L16 4.00001L26.0438 9.50001L16 15ZM17 27.455V16.7288L27 11.2563V21.9763L17 27.455Z" fill="white"/>
<path d="M68.2 7.83L57.2 1.80875C56.8324 1.60643 56.4196 1.50034 56 1.50034C55.5804 1.50034 55.1676 1.60643 54.8 1.80875L43.8 7.83C43.4064 8.04536 43.078 8.36268 42.8493 8.74866C42.6205 9.13465 42.4999 9.57508 42.5 10.0237V21.9762C42.4999 22.4249 42.6205 22.8653 42.8493 23.2513C43.078 23.6373 43.4064 23.9546 43.8 24.17L54.8 30.1912C55.1675 30.3938 55.5804 30.5 56 30.5C56.4196 30.5 56.8325 30.3938 57.2 30.1912L68.2 24.17C68.5936 23.9546 68.922 23.6373 69.1507 23.2513C69.3795 22.8653 69.5001 22.4249 69.5 21.9762V10.0237C69.5001 9.57508 69.3795 9.13465 69.1507 8.74866C68.922 8.36268 68.5936 8.04536 68.2 7.83ZM56 4.57125L65 9.5L56 14.425L47 9.5L56 4.57125ZM45.5 12.0987L54.5 17.0237V26.6075L45.5 21.68V12.0987ZM57.5 26.6075V17.0237L66.5 12.0987V21.68L57.5 26.6075Z" fill="white"/>
</g>
<defs>
<clipPath id="clip0_27_5197">
<rect width="72" height="32" rx="5" fill="white"/>
</clipPath>
</defs>
</svg>
