<svg width="72" height="32" viewBox="0 0 72 32" fill="none" xmlns="http://www.w3.org/2000/svg">
<g clip-path="url(#clip0_27_4640)">
<path d="M29 6V11C29 11.2652 28.8946 11.5196 28.7071 11.7071C28.5196 11.8946 28.2652 12 28 12C27.7348 12 27.4804 11.8946 27.2929 11.7071C27.1054 11.5196 27 11.2652 27 11V7H23C22.7348 7 22.4804 6.89464 22.2929 6.70711C22.1054 6.51957 22 6.26522 22 6C22 5.73478 22.1054 5.48043 22.2929 5.29289C22.4804 5.10536 22.7348 5 23 5H28C28.2652 5 28.5196 5.10536 28.7071 5.29289C28.8946 5.48043 29 5.73478 29 6ZM9 25H5V21C5 20.7348 4.89464 20.4804 4.70711 20.2929C4.51957 20.1054 4.26522 20 4 20C3.73478 20 3.48043 20.1054 3.29289 20.2929C3.10536 20.4804 3 20.7348 3 21V26C3 26.2652 3.10536 26.5196 3.29289 26.7071C3.48043 26.8946 3.73478 27 4 27H9C9.26522 27 9.51957 26.8946 9.70711 26.7071C9.89464 26.5196 10 26.2652 10 26C10 25.7348 9.89464 25.4804 9.70711 25.2929C9.51957 25.1054 9.26522 25 9 25ZM28 20C27.7348 20 27.4804 20.1054 27.2929 20.2929C27.1054 20.4804 27 20.7348 27 21V25H23C22.7348 25 22.4804 25.1054 22.2929 25.2929C22.1054 25.4804 22 25.7348 22 26C22 26.2652 22.1054 26.5196 22.2929 26.7071C22.4804 26.8946 22.7348 27 23 27H28C28.2652 27 28.5196 26.8946 28.7071 26.7071C28.8946 26.5196 29 26.2652 29 26V21C29 20.7348 28.8946 20.4804 28.7071 20.2929C28.5196 20.1054 28.2652 20 28 20ZM4 12C4.26522 12 4.51957 11.8946 4.70711 11.7071C4.89464 11.5196 5 11.2652 5 11V7H9C9.26522 7 9.51957 6.89464 9.70711 6.70711C9.89464 6.51957 10 6.26522 10 6C10 5.73478 9.89464 5.48043 9.70711 5.29289C9.51957 5.10536 9.26522 5 9 5H4C3.73478 5 3.48043 5.10536 3.29289 5.29289C3.10536 5.48043 3 5.73478 3 6V11C3 11.2652 3.10536 11.5196 3.29289 11.7071C3.48043 11.8946 3.73478 12 4 12ZM22.24 10.4137L16.5 7.13125C16.3489 7.04487 16.1778 6.99943 16.0037 6.99943C15.8297 6.99943 15.6586 7.04487 15.5075 7.13125L9.76 10.4137C9.68185 10.457 9.61671 10.5204 9.57135 10.5973C9.52599 10.6743 9.50206 10.7619 9.50206 10.8512C9.50206 10.9406 9.52599 11.0282 9.57135 11.1052C9.61671 11.1821 9.68185 11.2455 9.76 11.2887L16 14.8488L22.24 11.2825C22.3167 11.2388 22.3804 11.1756 22.4247 11.0993C22.469 11.023 22.4924 10.9364 22.4924 10.8481C22.4924 10.7599 22.469 10.6732 22.4247 10.5969C22.3804 10.5207 22.3167 10.4574 22.24 10.4137ZM8 13.4412V20C7.99841 20.1771 8.04387 20.3514 8.13172 20.5051C8.21956 20.6588 8.34666 20.7865 8.5 20.875L14.25 24.1588C14.3261 24.2027 14.4124 24.2258 14.5002 24.2257C14.588 24.2257 14.6743 24.2025 14.7503 24.1586C14.8264 24.1146 14.8895 24.0514 14.9333 23.9753C14.9771 23.8991 15.0001 23.8128 15 23.725V16.58L8.75 13.0075C8.67394 12.9636 8.58765 12.9405 8.49982 12.9405C8.41198 12.9405 8.32571 12.9637 8.24968 13.0077C8.17365 13.0517 8.11054 13.1149 8.06671 13.191C8.02288 13.2671 7.99987 13.3534 8 13.4412ZM24 20V13.4412C24.0001 13.3534 23.9771 13.2671 23.9333 13.191C23.8895 13.1149 23.8264 13.0517 23.7503 13.0077C23.6743 12.9637 23.588 12.9405 23.5002 12.9405C23.4124 12.9405 23.3261 12.9636 23.25 13.0075L17 16.58V23.7188C16.9999 23.8066 17.0229 23.8929 17.0667 23.969C17.1105 24.0451 17.1736 24.1083 17.2497 24.1523C17.3257 24.1963 17.412 24.2195 17.4998 24.2195C17.5876 24.2195 17.6739 24.1964 17.75 24.1525L23.5 20.875C23.6533 20.7865 23.7804 20.6588 23.8683 20.5051C23.9561 20.3514 24.0016 20.1771 24 20Z" fill="white"/>
<path d="M69.5 6V11C69.5 11.3978 69.342 11.7794 69.0607 12.0607C68.7794 12.342 68.3978 12.5 68 12.5C67.6022 12.5 67.2206 12.342 66.9393 12.0607C66.658 11.7794 66.5 11.3978 66.5 11V7.5H63C62.6022 7.5 62.2206 7.34196 61.9393 7.06066C61.658 6.77936 61.5 6.39782 61.5 6C61.5 5.60218 61.658 5.22064 61.9393 4.93934C62.2206 4.65804 62.6022 4.5 63 4.5H68C68.3978 4.5 68.7794 4.65804 69.0607 4.93934C69.342 5.22064 69.5 5.60218 69.5 6ZM49 24.5H45.5V21C45.5 20.6022 45.342 20.2206 45.0607 19.9393C44.7794 19.658 44.3978 19.5 44 19.5C43.6022 19.5 43.2206 19.658 42.9393 19.9393C42.658 20.2206 42.5 20.6022 42.5 21V26C42.5 26.3978 42.658 26.7794 42.9393 27.0607C43.2206 27.342 43.6022 27.5 44 27.5H49C49.3978 27.5 49.7794 27.342 50.0607 27.0607C50.342 26.7794 50.5 26.3978 50.5 26C50.5 25.6022 50.342 25.2206 50.0607 24.9393C49.7794 24.658 49.3978 24.5 49 24.5ZM68 19.5C67.6022 19.5 67.2206 19.658 66.9393 19.9393C66.658 20.2206 66.5 20.6022 66.5 21V24.5H63C62.6022 24.5 62.2206 24.658 61.9393 24.9393C61.658 25.2206 61.5 25.6022 61.5 26C61.5 26.3978 61.658 26.7794 61.9393 27.0607C62.2206 27.342 62.6022 27.5 63 27.5H68C68.3978 27.5 68.7794 27.342 69.0607 27.0607C69.342 26.7794 69.5 26.3978 69.5 26V21C69.5 20.6022 69.342 20.2206 69.0607 19.9393C68.7794 19.658 68.3978 19.5 68 19.5ZM44 12.5C44.3978 12.5 44.7794 12.342 45.0607 12.0607C45.342 11.7794 45.5 11.3978 45.5 11V7.5H49C49.3978 7.5 49.7794 7.34196 50.0607 7.06066C50.342 6.77936 50.5 6.39782 50.5 6C50.5 5.60218 50.342 5.22064 50.0607 4.93934C49.7794 4.65804 49.3978 4.5 49 4.5H44C43.6022 4.5 43.2206 4.65804 42.9393 4.93934C42.658 5.22064 42.5 5.60218 42.5 6V11C42.5 11.3978 42.658 11.7794 42.9393 12.0607C43.2206 12.342 43.6022 12.5 44 12.5ZM63.75 21.3025L56.75 25.3025C56.5235 25.4318 56.2671 25.4999 56.0063 25.4999C55.7454 25.4999 55.489 25.4318 55.2625 25.3025L48.2625 21.3025C48.0316 21.1721 47.8394 20.9829 47.7055 20.7541C47.5716 20.5253 47.5006 20.2651 47.5 20V12C47.4994 11.7361 47.5684 11.4767 47.7001 11.248C47.8318 11.0193 48.0215 10.8294 48.25 10.6975L55.25 6.6975C55.4765 6.56816 55.7329 6.50013 55.9937 6.50013C56.2546 6.50013 56.511 6.56816 56.7375 6.6975L63.7375 10.6975C63.9684 10.8279 64.1606 11.0171 64.2945 11.2459C64.4284 11.4747 64.4993 11.7349 64.5 12V20C64.5006 20.2639 64.4316 20.5233 64.2999 20.752C64.1682 20.9807 63.9785 21.1706 63.75 21.3025ZM52.0238 12L56 14.2725L59.9762 12L56 9.7275L52.0238 12ZM50.5 19.125L54.5 21.41V16.875L50.5 14.585V19.125ZM61.5 19.125V14.585L57.5 16.875V21.42L61.5 19.125Z" fill="white"/>
</g>
<defs>
<clipPath id="clip0_27_4640">
<rect width="72" height="32" rx="5" fill="white"/>
</clipPath>
</defs>
</svg>
