<svg width="72" height="32" viewBox="0 0 72 32" fill="none" xmlns="http://www.w3.org/2000/svg">
<g clip-path="url(#clip0_27_1132)">
<path d="M21 13C21 13.7956 20.6839 14.5587 20.1213 15.1213C19.5587 15.6839 18.7957 16 18 16H14V10H18C18.7957 10 19.5587 10.3161 20.1213 10.8787C20.6839 11.4413 21 12.2044 21 13ZM29 16C29 18.5712 28.2376 21.0846 26.8091 23.2224C25.3807 25.3603 23.3503 27.0265 20.9749 28.0104C18.5995 28.9944 15.9856 29.2518 13.4638 28.7502C10.9421 28.2486 8.6257 27.0105 6.80762 25.1924C4.98953 23.3743 3.75141 21.0579 3.2498 18.5362C2.74819 16.0144 3.00563 13.4006 3.98957 11.0251C4.97351 8.64968 6.63975 6.61935 8.77759 5.1909C10.9154 3.76244 13.4288 3 16 3C19.4467 3.00364 22.7512 4.37445 25.1884 6.81163C27.6256 9.24882 28.9964 12.5533 29 16ZM23 13C23 12.3434 22.8707 11.6932 22.6194 11.0866C22.3681 10.48 21.9998 9.92876 21.5355 9.46447C21.0712 9.00017 20.5201 8.63188 19.9134 8.3806C19.3068 8.12933 18.6566 8 18 8H13C12.7348 8 12.4804 8.10536 12.2929 8.29289C12.1054 8.48043 12 8.73478 12 9V16H11C10.7348 16 10.4804 16.1054 10.2929 16.2929C10.1054 16.4804 10 16.7348 10 17C10 17.2652 10.1054 17.5196 10.2929 17.7071C10.4804 17.8946 10.7348 18 11 18H12V20H11C10.7348 20 10.4804 20.1054 10.2929 20.2929C10.1054 20.4804 10 20.7348 10 21C10 21.2652 10.1054 21.5196 10.2929 21.7071C10.4804 21.8946 10.7348 22 11 22H12V24C12 24.2652 12.1054 24.5196 12.2929 24.7071C12.4804 24.8946 12.7348 25 13 25C13.2652 25 13.5196 24.8946 13.7071 24.7071C13.8946 24.5196 14 24.2652 14 24V22H19C19.2652 22 19.5196 21.8946 19.7071 21.7071C19.8946 21.5196 20 21.2652 20 21C20 20.7348 19.8946 20.4804 19.7071 20.2929C19.5196 20.1054 19.2652 20 19 20H14V18H18C18.6566 18 19.3068 17.8707 19.9134 17.6194C20.5201 17.3681 21.0712 16.9998 21.5355 16.5355C21.9998 16.0712 22.3681 15.52 22.6194 14.9134C22.8707 14.3068 23 13.6566 23 13Z" fill="white"/>
<path d="M58.5 19.5C60.6217 19.5 62.6566 18.6571 64.1569 17.1569C65.6571 15.6566 66.5 13.6217 66.5 11.5C66.5 9.37827 65.6571 7.34344 64.1569 5.84315C62.6566 4.34285 60.6217 3.5 58.5 3.5H51C50.6022 3.5 50.2206 3.65804 49.9393 3.93934C49.658 4.22064 49.5 4.60218 49.5 5V16.5H47C46.6022 16.5 46.2206 16.658 45.9393 16.9393C45.658 17.2206 45.5 17.6022 45.5 18C45.5 18.3978 45.658 18.7794 45.9393 19.0607C46.2206 19.342 46.6022 19.5 47 19.5H49.5V21.5H47C46.6022 21.5 46.2206 21.658 45.9393 21.9393C45.658 22.2206 45.5 22.6022 45.5 23C45.5 23.3978 45.658 23.7794 45.9393 24.0607C46.2206 24.342 46.6022 24.5 47 24.5H49.5V27C49.5 27.3978 49.658 27.7794 49.9393 28.0607C50.2206 28.342 50.6022 28.5 51 28.5C51.3978 28.5 51.7794 28.342 52.0607 28.0607C52.342 27.7794 52.5 27.3978 52.5 27V24.5H58C58.3978 24.5 58.7794 24.342 59.0607 24.0607C59.342 23.7794 59.5 23.3978 59.5 23C59.5 22.6022 59.342 22.2206 59.0607 21.9393C58.7794 21.658 58.3978 21.5 58 21.5H52.5V19.5H58.5ZM52.5 6.5H58.5C59.8261 6.5 61.0979 7.02678 62.0355 7.96447C62.9732 8.90215 63.5 10.1739 63.5 11.5C63.5 12.8261 62.9732 14.0979 62.0355 15.0355C61.0979 15.9732 59.8261 16.5 58.5 16.5H52.5V6.5Z" fill="white"/>
</g>
<defs>
<clipPath id="clip0_27_1132">
<rect width="72" height="32" rx="5" fill="white"/>
</clipPath>
</defs>
</svg>
