<svg width="72" height="32" viewBox="0 0 72 32" fill="none" xmlns="http://www.w3.org/2000/svg">
<g clip-path="url(#clip0_27_1122)">
<path d="M16 3C13.4288 3 10.9154 3.76244 8.77759 5.1909C6.63975 6.61935 4.97351 8.64968 3.98957 11.0251C3.00563 13.4006 2.74819 16.0144 3.2498 18.5362C3.75141 21.0579 4.98953 23.3743 6.80762 25.1924C8.6257 27.0105 10.9421 28.2486 13.4638 28.7502C15.9856 29.2518 18.5995 28.9944 20.9749 28.0104C23.3503 27.0265 25.3807 25.3603 26.8091 23.2224C28.2376 21.0846 29 18.5712 29 16C28.9964 12.5533 27.6256 9.24882 25.1884 6.81163C22.7512 4.37445 19.4467 3.00364 16 3ZM22 15H17V24C17 24.2652 16.8946 24.5196 16.7071 24.7071C16.5196 24.8946 16.2652 25 16 25C15.7348 25 15.4804 24.8946 15.2929 24.7071C15.1054 24.5196 15 24.2652 15 24V15H10C9.73479 15 9.48044 14.8946 9.2929 14.7071C9.10536 14.5196 9.00001 14.2652 9.00001 14C9.00001 13.7348 9.10536 13.4804 9.2929 13.2929C9.48044 13.1054 9.73479 13 10 13H22C22.2652 13 22.5196 13.1054 22.7071 13.2929C22.8946 13.4804 23 13.7348 23 14C23 14.2652 22.8946 14.5196 22.7071 14.7071C22.5196 14.8946 22.2652 15 22 15ZM22 11H10C9.73479 11 9.48044 10.8946 9.2929 10.7071C9.10536 10.5196 9.00001 10.2652 9.00001 10C9.00001 9.73478 9.10536 9.48043 9.2929 9.29289C9.48044 9.10536 9.73479 9 10 9H22C22.2652 9 22.5196 9.10536 22.7071 9.29289C22.8946 9.48043 23 9.73478 23 10C23 10.2652 22.8946 10.5196 22.7071 10.7071C22.5196 10.8946 22.2652 11 22 11Z" fill="white"/>
<path d="M66.5 12.5C66.5 12.8978 66.342 13.2794 66.0607 13.5607C65.7794 13.842 65.3978 14 65 14H57.5V26.5C57.5 26.8978 57.342 27.2794 57.0607 27.5607C56.7794 27.842 56.3978 28 56 28C55.6022 28 55.2206 27.842 54.9393 27.5607C54.658 27.2794 54.5 26.8978 54.5 26.5V14H47C46.6022 14 46.2206 13.842 45.9393 13.5607C45.658 13.2794 45.5 12.8978 45.5 12.5C45.5 12.1022 45.658 11.7206 45.9393 11.4393C46.2206 11.158 46.6022 11 47 11H65C65.3978 11 65.7794 11.158 66.0607 11.4393C66.342 11.7206 66.5 12.1022 66.5 12.5ZM47 8H65C65.3978 8 65.7794 7.84196 66.0607 7.56066C66.342 7.27936 66.5 6.89782 66.5 6.5C66.5 6.10218 66.342 5.72064 66.0607 5.43934C65.7794 5.15804 65.3978 5 65 5H47C46.6022 5 46.2206 5.15804 45.9393 5.43934C45.658 5.72064 45.5 6.10218 45.5 6.5C45.5 6.89782 45.658 7.27936 45.9393 7.56066C46.2206 7.84196 46.6022 8 47 8Z" fill="white"/>
</g>
<defs>
<clipPath id="clip0_27_1122">
<rect width="72" height="32" rx="5" fill="white"/>
</clipPath>
</defs>
</svg>
