<svg width="72" height="32" viewBox="0 0 72 32" fill="none" xmlns="http://www.w3.org/2000/svg">
<g clip-path="url(#clip0_27_1097)">
<path d="M16 3C13.4288 3 10.9154 3.76244 8.77759 5.1909C6.63975 6.61935 4.97351 8.64968 3.98957 11.0251C3.00563 13.4006 2.74819 16.0144 3.2498 18.5362C3.75141 21.0579 4.98953 23.3743 6.80762 25.1924C8.6257 27.0105 10.9421 28.2486 13.4638 28.7502C15.9856 29.2518 18.5995 28.9944 20.9749 28.0104C23.3503 27.0265 25.3807 25.3603 26.8091 23.2224C28.2376 21.0846 29 18.5712 29 16C28.9964 12.5533 27.6256 9.24882 25.1884 6.81163C22.7512 4.37445 19.4467 3.00364 16 3ZM16 13C16.2652 13 16.5196 13.1054 16.7071 13.2929C16.8946 13.4804 17 13.7348 17 14C17 14.2652 16.8946 14.5196 16.7071 14.7071C16.5196 14.8946 16.2652 15 16 15H11V17H14C14.2652 17 14.5196 17.1054 14.7071 17.2929C14.8946 17.4804 15 17.7348 15 18C15 18.2652 14.8946 18.5196 14.7071 18.7071C14.5196 18.8946 14.2652 19 14 19H11.1013C11.2771 19.862 11.6772 20.6624 12.2613 21.3203C12.8454 21.9782 13.5928 22.4704 14.4279 22.747C15.263 23.0237 16.1564 23.0752 17.0178 22.8962C17.8791 22.7171 18.678 22.314 19.3338 21.7275C19.4307 21.6349 19.5453 21.5627 19.6707 21.5152C19.7961 21.4678 19.9298 21.446 20.0638 21.4513C20.1978 21.4566 20.3294 21.4887 20.4507 21.5459C20.572 21.603 20.6806 21.684 20.77 21.7839C20.8594 21.8839 20.9277 22.0008 20.971 22.1277C21.0143 22.2546 21.0316 22.3889 21.022 22.5227C21.0123 22.6564 20.9758 22.7869 20.9147 22.9062C20.8536 23.0256 20.7691 23.1315 20.6663 23.2175C19.7226 24.0612 18.5678 24.6333 17.3248 24.8727C16.0818 25.1122 14.7972 25.0101 13.6076 24.5774C12.418 24.1446 11.368 23.3974 10.5694 22.4153C9.77083 21.4332 9.2535 20.2528 9.07251 19H8.00001C7.73479 19 7.48044 18.8946 7.2929 18.7071C7.10536 18.5196 7.00001 18.2652 7.00001 18C7.00001 17.7348 7.10536 17.4804 7.2929 17.2929C7.48044 17.1054 7.73479 17 8.00001 17H9.00001V15H8.00001C7.73479 15 7.48044 14.8946 7.2929 14.7071C7.10536 14.5196 7.00001 14.2652 7.00001 14C7.00001 13.7348 7.10536 13.4804 7.2929 13.2929C7.48044 13.1054 7.73479 13 8.00001 13H9.07251C9.2535 11.7472 9.77083 10.5668 10.5694 9.58471C11.368 8.60256 12.418 7.85535 13.6076 7.42262C14.7972 6.98988 16.0818 6.88781 17.3248 7.12728C18.5678 7.36674 19.7226 7.93878 20.6663 8.7825C20.7691 8.86855 20.8536 8.9744 20.9147 9.09376C20.9758 9.21313 21.0123 9.34356 21.022 9.47731C21.0316 9.61105 21.0143 9.74538 20.971 9.87229C20.9277 9.99921 20.8594 10.1161 20.77 10.2161C20.6806 10.316 20.572 10.397 20.4507 10.4541C20.3294 10.5113 20.1978 10.5434 20.0638 10.5487C19.9298 10.554 19.7961 10.5322 19.6707 10.4848C19.5453 10.4373 19.4307 10.3651 19.3338 10.2725C18.678 9.68598 17.8791 9.28286 17.0178 9.10385C16.1564 8.92484 15.263 8.97627 14.4279 9.25296C13.5928 9.52965 12.8454 10.0218 12.2613 10.6797C11.6772 11.3376 11.2771 12.138 11.1013 13H16Z" fill="white"/>
<path d="M64.1175 23.7075C64.2499 23.8544 64.352 24.0261 64.4178 24.2127C64.4836 24.3992 64.5118 24.5969 64.5009 24.7944C64.49 24.9919 64.4401 25.1853 64.3541 25.3635C64.2682 25.5416 64.1478 25.701 64 25.8325C62.6162 27.0695 60.9291 27.9176 59.1108 28.2903C57.2925 28.663 55.4079 28.5471 53.649 27.9543C51.89 27.3615 50.3197 26.3131 49.0979 24.9158C47.8761 23.5185 47.0466 21.8223 46.6937 20H45C44.6022 20 44.2206 19.842 43.9393 19.5606C43.658 19.2793 43.5 18.8978 43.5 18.5C43.5 18.1022 43.658 17.7206 43.9393 17.4393C44.2206 17.158 44.6022 17 45 17H46.5V15H45C44.6022 15 44.2206 14.842 43.9393 14.5606C43.658 14.2793 43.5 13.8978 43.5 13.5C43.5 13.1022 43.658 12.7206 43.9393 12.4393C44.2206 12.158 44.6022 12 45 12H46.6937C47.0474 10.1782 47.8776 8.48274 49.0998 7.08621C50.3219 5.68969 51.8924 4.64203 53.6512 4.04992C55.4099 3.45781 57.2942 3.34242 59.1121 3.71549C60.93 4.08857 62.6166 4.93678 64 6.17374C64.2965 6.43895 64.4756 6.81111 64.4977 7.20833C64.5199 7.60556 64.3833 7.99532 64.1181 8.29186C63.8529 8.58841 63.4808 8.76745 63.0835 8.7896C62.6863 8.81176 62.2965 8.6752 62 8.40999C61.0489 7.55955 59.8967 6.96579 58.6522 6.68486C57.4076 6.40393 56.112 6.44512 54.8879 6.80453C53.6637 7.16395 52.5515 7.8297 51.6564 8.73883C50.7613 9.64795 50.1129 10.7704 49.7725 12H57C57.3978 12 57.7794 12.158 58.0607 12.4393C58.342 12.7206 58.5 13.1022 58.5 13.5C58.5 13.8978 58.342 14.2793 58.0607 14.5606C57.7794 14.842 57.3978 15 57 15H49.5V17H55C55.3978 17 55.7794 17.158 56.0607 17.4393C56.342 17.7206 56.5 18.1022 56.5 18.5C56.5 18.8978 56.342 19.2793 56.0607 19.5606C55.7794 19.842 55.3978 20 55 20H49.7725C50.1129 21.2296 50.7613 22.352 51.6564 23.2611C52.5515 24.1703 53.6637 24.836 54.8879 25.1954C56.112 25.5549 57.4076 25.596 58.6522 25.3151C59.8967 25.0342 61.0489 24.4404 62 23.59C62.2964 23.3249 62.686 23.1883 63.0831 23.2104C63.4802 23.2324 63.8522 23.4112 64.1175 23.7075Z" fill="white"/>
</g>
<defs>
<clipPath id="clip0_27_1097">
<rect width="72" height="32" rx="5" fill="white"/>
</clipPath>
</defs>
</svg>
