<svg width="72" height="32" viewBox="0 0 72 32" fill="none" xmlns="http://www.w3.org/2000/svg">
<g clip-path="url(#clip0_27_1092)">
<path d="M27.7862 15.3825L16.7862 1.38249C16.6926 1.26342 16.5732 1.16717 16.437 1.10098C16.3008 1.03479 16.1514 1.0004 15.9999 1.0004C15.8485 1.0004 15.699 1.03479 15.5628 1.10098C15.4266 1.16717 15.3072 1.26342 15.2137 1.38249L4.21367 15.3825C4.0754 15.5586 4.00024 15.7761 4.00024 16C4.00024 16.2239 4.0754 16.4414 4.21367 16.6175L15.2137 30.6175C15.3072 30.7366 15.4266 30.8328 15.5628 30.899C15.699 30.9652 15.8485 30.9996 15.9999 30.9996C16.1514 30.9996 16.3008 30.9652 16.437 30.899C16.5732 30.8328 16.6926 30.7366 16.7862 30.6175L27.7862 16.6175C27.9244 16.4414 27.9996 16.2239 27.9996 16C27.9996 15.7761 27.9244 15.5586 27.7862 15.3825ZM16.9999 19.4475V4.89124L25.4274 15.6162L16.9999 19.4475ZM14.9999 19.4475L6.57242 15.6162L14.9999 4.89124V19.4475ZM14.9999 21.6437V27.1087L8.32117 18.6087L14.9999 21.6437Z" fill="white"/>
<path d="M68.1799 15.0737L57.1799 1.07375C57.0396 0.894926 56.8604 0.750337 56.656 0.65091C56.4516 0.551482 56.2272 0.499817 55.9999 0.499817C55.7726 0.499817 55.5482 0.551482 55.3438 0.65091C55.1394 0.750337 54.9602 0.894926 54.8199 1.07375L43.8199 15.0737C43.6125 15.3379 43.4998 15.6641 43.4998 16C43.4998 16.3359 43.6125 16.6621 43.8199 16.9263L43.8949 17.0212C43.911 17.0463 43.9294 17.0697 43.9499 17.0912L54.8249 30.9263C54.9652 31.1051 55.1444 31.2497 55.3488 31.3491C55.5532 31.4485 55.7776 31.5002 56.0049 31.5002C56.2322 31.5002 56.4566 31.4485 56.661 31.3491C56.8654 31.2497 57.0446 31.1051 57.1849 30.9263L68.1849 16.9263C68.3916 16.6615 68.5035 16.335 68.5025 15.9991C68.5016 15.6632 68.388 15.3374 68.1799 15.0737ZM57.4999 6.3375L64.6399 15.425L57.4999 18.675V6.3375ZM54.4999 18.67L47.3599 15.42L54.4999 6.3375V18.67ZM54.4999 21.9662V25.6625L49.9811 19.9125L54.4999 21.9662ZM57.4999 21.9662L62.0186 19.9125L57.4999 25.6625V21.9662Z" fill="white"/>
</g>
<defs>
<clipPath id="clip0_27_1092">
<rect width="72" height="32" rx="5" fill="white"/>
</clipPath>
</defs>
</svg>
