<svg width="72" height="32" viewBox="0 0 72 32" fill="none" xmlns="http://www.w3.org/2000/svg">
<g clip-path="url(#clip0_27_1082)">
<path d="M20 19C20 19.5304 19.7893 20.0391 19.4142 20.4142C19.0391 20.7893 18.5304 21 18 21H17V17H18C18.5304 17 19.0391 17.2107 19.4142 17.5858C19.7893 17.9609 20 18.4696 20 19ZM29 16C29 18.5712 28.2376 21.0846 26.8091 23.2224C25.3807 25.3603 23.3503 27.0265 20.9749 28.0104C18.5995 28.9944 15.9856 29.2518 13.4638 28.7502C10.9421 28.2486 8.6257 27.0105 6.80762 25.1924C4.98953 23.3743 3.75141 21.0579 3.2498 18.5362C2.74819 16.0144 3.00563 13.4006 3.98957 11.0251C4.97351 8.64968 6.63975 6.61935 8.77759 5.1909C10.9154 3.76244 13.4288 3 16 3C19.4467 3.00364 22.7512 4.37445 25.1884 6.81163C27.6256 9.24882 28.9964 12.5533 29 16ZM22 19C22 17.9391 21.5786 16.9217 20.8284 16.1716C20.0783 15.4214 19.0609 15 18 15H17V11H17.5C18.0304 11 18.5391 11.2107 18.9142 11.5858C19.2893 11.9609 19.5 12.4696 19.5 13C19.5 13.2652 19.6054 13.5196 19.7929 13.7071C19.9804 13.8946 20.2348 14 20.5 14C20.7652 14 21.0196 13.8946 21.2071 13.7071C21.3946 13.5196 21.5 13.2652 21.5 13C21.5 11.9391 21.0786 10.9217 20.3284 10.1716C19.5783 9.42143 18.5609 9 17.5 9H17V8C17 7.73478 16.8946 7.48043 16.7071 7.29289C16.5196 7.10536 16.2652 7 16 7C15.7348 7 15.4804 7.10536 15.2929 7.29289C15.1054 7.48043 15 7.73478 15 8V9H14.5C13.4391 9 12.4217 9.42143 11.6716 10.1716C10.9214 10.9217 10.5 11.9391 10.5 13C10.5 14.0609 10.9214 15.0783 11.6716 15.8284C12.4217 16.5786 13.4391 17 14.5 17H15V21H14C13.4696 21 12.9609 20.7893 12.5858 20.4142C12.2107 20.0391 12 19.5304 12 19C12 18.7348 11.8946 18.4804 11.7071 18.2929C11.5196 18.1054 11.2652 18 11 18C10.7348 18 10.4804 18.1054 10.2929 18.2929C10.1054 18.4804 10 18.7348 10 19C10 20.0609 10.4214 21.0783 11.1716 21.8284C11.9217 22.5786 12.9391 23 14 23H15V24C15 24.2652 15.1054 24.5196 15.2929 24.7071C15.4804 24.8946 15.7348 25 16 25C16.2652 25 16.5196 24.8946 16.7071 24.7071C16.8946 24.5196 17 24.2652 17 24V23H18C19.0609 23 20.0783 22.5786 20.8284 21.8284C21.5786 21.0783 22 20.0609 22 19ZM12.5 13C12.5 13.5304 12.7107 14.0391 13.0858 14.4142C13.4609 14.7893 13.9696 15 14.5 15H15V11H14.5C13.9696 11 13.4609 11.2107 13.0858 11.5858C12.7107 11.9609 12.5 12.4696 12.5 13Z" fill="white"/>
<path d="M59 14.5H57.5V7.5H58C58.9283 7.5 59.8185 7.86875 60.4749 8.52513C61.1313 9.1815 61.5 10.0717 61.5 11C61.5 11.3978 61.658 11.7794 61.9393 12.0607C62.2206 12.342 62.6022 12.5 63 12.5C63.3978 12.5 63.7794 12.342 64.0607 12.0607C64.342 11.7794 64.5 11.3978 64.5 11C64.498 9.2767 63.8126 7.62455 62.594 6.406C61.3754 5.18744 59.7233 4.50199 58 4.5H57.5V3C57.5 2.60218 57.342 2.22064 57.0607 1.93934C56.7794 1.65804 56.3978 1.5 56 1.5C55.6022 1.5 55.2206 1.65804 54.9393 1.93934C54.658 2.22064 54.5 2.60218 54.5 3V4.5H54C52.2761 4.5 50.6228 5.18482 49.4038 6.40381C48.1848 7.62279 47.5 9.27609 47.5 11C47.5 12.7239 48.1848 14.3772 49.4038 15.5962C50.6228 16.8152 52.2761 17.5 54 17.5H54.5V24.5H53C52.0717 24.5 51.1815 24.1313 50.5251 23.4749C49.8687 22.8185 49.5 21.9283 49.5 21C49.5 20.6022 49.342 20.2206 49.0607 19.9393C48.7794 19.658 48.3978 19.5 48 19.5C47.6022 19.5 47.2206 19.658 46.9393 19.9393C46.658 20.2206 46.5 20.6022 46.5 21C46.502 22.7233 47.1874 24.3754 48.406 25.594C49.6246 26.8126 51.2767 27.498 53 27.5H54.5V29C54.5 29.3978 54.658 29.7794 54.9393 30.0607C55.2206 30.342 55.6022 30.5 56 30.5C56.3978 30.5 56.7794 30.342 57.0607 30.0607C57.342 29.7794 57.5 29.3978 57.5 29V27.5H59C60.7239 27.5 62.3772 26.8152 63.5962 25.5962C64.8152 24.3772 65.5 22.7239 65.5 21C65.5 19.2761 64.8152 17.6228 63.5962 16.4038C62.3772 15.1848 60.7239 14.5 59 14.5ZM54 14.5C53.0717 14.5 52.1815 14.1313 51.5251 13.4749C50.8687 12.8185 50.5 11.9283 50.5 11C50.5 10.0717 50.8687 9.1815 51.5251 8.52513C52.1815 7.86875 53.0717 7.5 54 7.5H54.5V14.5H54ZM59 24.5H57.5V17.5H59C59.9283 17.5 60.8185 17.8687 61.4749 18.5251C62.1313 19.1815 62.5 20.0717 62.5 21C62.5 21.9283 62.1313 22.8185 61.4749 23.4749C60.8185 24.1313 59.9283 24.5 59 24.5Z" fill="white"/>
</g>
<defs>
<clipPath id="clip0_27_1082">
<rect width="72" height="32" rx="5" fill="white"/>
</clipPath>
</defs>
</svg>
