<svg width="72" height="32" viewBox="0 0 72 32" fill="none" xmlns="http://www.w3.org/2000/svg">
<g clip-path="url(#clip0_27_1107)">
<path d="M16 3C13.4288 3 10.9154 3.76244 8.77759 5.1909C6.63975 6.61935 4.97351 8.64968 3.98957 11.0251C3.00563 13.4006 2.74819 16.0144 3.2498 18.5362C3.75141 21.0579 4.98953 23.3743 6.80762 25.1924C8.6257 27.0105 10.9421 28.2486 13.4638 28.7502C15.9856 29.2518 18.5995 28.9944 20.9749 28.0104C23.3503 27.0265 25.3807 25.3603 26.8091 23.2224C28.2376 21.0846 29 18.5712 29 16C28.9964 12.5533 27.6256 9.24882 25.1884 6.81163C22.7512 4.37445 19.4467 3.00364 16 3ZM20.79 12H22C22.2652 12 22.5196 12.1054 22.7071 12.2929C22.8946 12.4804 23 12.7348 23 13C23 13.2652 22.8946 13.5196 22.7071 13.7071C22.5196 13.8946 22.2652 14 22 14H20.9763C20.8499 15.3656 20.2185 16.635 19.2057 17.5597C18.1929 18.4845 16.8715 18.9981 15.5 19H13.915L20.6138 24.2113C20.7225 24.29 20.8142 24.3898 20.8835 24.5047C20.9528 24.6197 20.9983 24.7474 21.0172 24.8803C21.0361 25.0131 21.0281 25.1485 20.9936 25.2782C20.9591 25.4079 20.8988 25.5293 20.8164 25.6352C20.734 25.7412 20.6311 25.8294 20.5138 25.8947C20.3965 25.9601 20.2673 26.0011 20.1339 26.0154C20.0004 26.0297 19.8655 26.0171 19.737 25.9781C19.6086 25.9392 19.4893 25.8748 19.3863 25.7887L10.3863 18.7887C10.222 18.6608 10.1018 18.4847 10.0425 18.2851C9.98311 18.0855 9.98752 17.8724 10.0551 17.6755C10.1227 17.4785 10.25 17.3076 10.4194 17.1865C10.5888 17.0654 10.7918 17.0002 11 17H15.5C16.3416 16.9999 17.1549 16.6966 17.7911 16.1456C18.4272 15.5947 18.8435 14.8329 18.9638 14H11C10.7348 14 10.4804 13.8946 10.2929 13.7071C10.1054 13.5196 10 13.2652 10 13C10 12.7348 10.1054 12.4804 10.2929 12.2929C10.4804 12.1054 10.7348 12 11 12H18.6613C18.3775 11.4017 17.9298 10.8963 17.3702 10.5422C16.8107 10.1882 16.1622 10.0002 15.5 10H11C10.7348 10 10.4804 9.89464 10.2929 9.70711C10.1054 9.51957 10 9.26522 10 9C10 8.73478 10.1054 8.48043 10.2929 8.29289C10.4804 8.10536 10.7348 8 11 8H22C22.2652 8 22.5196 8.10536 22.7071 8.29289C22.8946 8.48043 23 8.73478 23 9C23 9.26522 22.8946 9.51957 22.7071 9.70711C22.5196 9.89464 22.2652 10 22 10H19.74C20.225 10.5866 20.5826 11.2677 20.79 12Z" fill="white"/>
<path d="M66.5001 10C66.5001 10.3978 66.342 10.7794 66.0607 11.0607C65.7794 11.342 65.3979 11.5 65.0001 11.5H61.5001C61.4978 13.621 60.6542 15.6545 59.1544 17.1543C57.6546 18.6541 55.6211 19.4977 53.5001 19.5H52.8751L61.0001 26.89C61.1486 27.0217 61.2694 27.1816 61.3557 27.3604C61.4419 27.5392 61.4918 27.7333 61.5025 27.9315C61.5131 28.1297 61.4843 28.3281 61.4178 28.5151C61.3512 28.7021 61.2482 28.874 61.1147 29.0209C60.9812 29.1678 60.8199 29.2868 60.6401 29.3708C60.4603 29.4549 60.2656 29.5025 60.0672 29.5108C59.8689 29.5191 59.6709 29.4879 59.4847 29.4191C59.2985 29.3503 59.1279 29.2453 58.9826 29.11L47.9826 19.11C47.758 18.9059 47.6006 18.6384 47.5312 18.3429C47.4618 18.0475 47.4837 17.7379 47.5939 17.4551C47.7041 17.1724 47.8976 16.9297 48.1486 16.7592C48.3997 16.5886 48.6966 16.4983 49.0001 16.5H53.5001C54.8262 16.5 56.0979 15.9732 57.0356 15.0355C57.9733 14.0979 58.5001 12.8261 58.5001 11.5H49.0001C48.6022 11.5 48.2207 11.342 47.9394 11.0607C47.6581 10.7794 47.5001 10.3978 47.5001 10C47.5001 9.60218 47.6581 9.22064 47.9394 8.93934C48.2207 8.65804 48.6022 8.5 49.0001 8.5H57.5001C57.0343 7.87902 56.4304 7.375 55.7361 7.02786C55.0419 6.68073 54.2763 6.5 53.5001 6.5H49.0001C48.6022 6.5 48.2207 6.34196 47.9394 6.06066C47.6581 5.77936 47.5001 5.39782 47.5001 5C47.5001 4.60218 47.6581 4.22064 47.9394 3.93934C48.2207 3.65804 48.6022 3.5 49.0001 3.5H65.0001C65.3979 3.5 65.7794 3.65804 66.0607 3.93934C66.342 4.22064 66.5001 4.60218 66.5001 5C66.5001 5.39782 66.342 5.77936 66.0607 6.06066C65.7794 6.34196 65.3979 6.5 65.0001 6.5H59.7388C60.2256 7.10604 60.6214 7.77979 60.9138 8.5H65.0001C65.3979 8.5 65.7794 8.65804 66.0607 8.93934C66.342 9.22064 66.5001 9.60218 66.5001 10Z" fill="white"/>
</g>
<defs>
<clipPath id="clip0_27_1107">
<rect width="72" height="32" rx="5" fill="white"/>
</clipPath>
</defs>
</svg>
