<svg width="72" height="32" viewBox="0 0 72 32" fill="none" xmlns="http://www.w3.org/2000/svg">
<g clip-path="url(#clip0_27_1102)">
<path d="M16 3C13.4288 3 10.9154 3.76244 8.77759 5.1909C6.63975 6.61935 4.97351 8.64968 3.98957 11.0251C3.00563 13.4006 2.74819 16.0144 3.2498 18.5362C3.75141 21.0579 4.98953 23.3743 6.80762 25.1924C8.6257 27.0105 10.9421 28.2486 13.4638 28.7502C15.9856 29.2518 18.5995 28.9944 20.9749 28.0104C23.3503 27.0265 25.3807 25.3603 26.8091 23.2224C28.2376 21.0846 29 18.5712 29 16C28.9964 12.5533 27.6256 9.24882 25.1884 6.81163C22.7512 4.37445 19.4467 3.00364 16 3ZM21 23H11C10.7348 23 10.4804 22.8946 10.2929 22.7071C10.1054 22.5196 10 22.2652 10 22C10 21.7348 10.1054 21.4804 10.2929 21.2929C10.4804 21.1054 10.7348 21 11 21C11.5304 21 12.0391 20.7893 12.4142 20.4142C12.7893 20.0391 13 19.5304 13 19V17H11C10.7348 17 10.4804 16.8946 10.2929 16.7071C10.1054 16.5196 10 16.2652 10 16C10 15.7348 10.1054 15.4804 10.2929 15.2929C10.4804 15.1054 10.7348 15 11 15H13V12C13 11.1223 13.2311 10.2601 13.6699 9.50004C14.1088 8.73997 14.74 8.10879 15.5001 7.66997C16.2602 7.23114 17.1224 7.00012 18 7.00013C18.8777 7.00013 19.7399 7.23116 20.5 7.67C20.7222 7.80627 20.8824 8.02392 20.9465 8.27657C21.0106 8.52922 20.9735 8.79692 20.8431 9.02263C20.7128 9.24834 20.4994 9.41422 20.2485 9.48494C19.9976 9.55567 19.7291 9.52563 19.5 9.40125C19.0439 9.13792 18.5265 8.9993 17.9998 8.99933C17.4732 8.99936 16.9558 9.13803 16.4997 9.40142C16.0436 9.6648 15.6649 10.0436 15.4017 10.4998C15.1384 10.9559 14.9999 11.4733 15 12V15H17C17.2652 15 17.5196 15.1054 17.7071 15.2929C17.8946 15.4804 18 15.7348 18 16C18 16.2652 17.8946 16.5196 17.7071 16.7071C17.5196 16.8946 17.2652 17 17 17H15V19C15.0009 19.7026 14.8149 20.3929 14.4613 21H21C21.2652 21 21.5196 21.1054 21.7071 21.2929C21.8946 21.4804 22 21.7348 22 22C22 22.2652 21.8946 22.5196 21.7071 22.7071C21.5196 22.8946 21.2652 23 21 23Z" fill="white"/>
<path d="M64.5 26C64.5 26.3978 64.342 26.7793 64.0607 27.0606C63.7794 27.342 63.3978 27.5 63 27.5H47C46.6022 27.5 46.2206 27.342 45.9393 27.0606C45.658 26.7793 45.5 26.3978 45.5 26C45.5 25.6022 45.658 25.2206 45.9393 24.9393C46.2206 24.658 46.6022 24.5 47 24.5H47.5C48.2956 24.5 49.0587 24.1839 49.6213 23.6213C50.1839 23.0587 50.5 22.2956 50.5 21.5V17.5H47C46.6022 17.5 46.2206 17.342 45.9393 17.0606C45.658 16.7793 45.5 16.3978 45.5 16C45.5 15.6022 45.658 15.2206 45.9393 14.9393C46.2206 14.658 46.6022 14.5 47 14.5H50.5V10.5C50.4998 9.17249 50.8772 7.87231 51.5879 6.75113C52.2987 5.62995 53.3136 4.734 54.5143 4.16779C55.715 3.60158 57.052 3.38846 58.3692 3.55329C59.6864 3.71813 60.9296 4.25412 61.9538 5.09874C62.2606 5.35202 62.4542 5.71681 62.4921 6.11287C62.5299 6.50892 62.4089 6.90379 62.1556 7.21061C61.9023 7.51744 61.5375 7.71108 61.1415 7.74893C60.7454 7.78679 60.3506 7.66577 60.0438 7.41249C59.3292 6.81927 58.4287 6.49625 57.5 6.49999C56.4391 6.49999 55.4217 6.92142 54.6716 7.67156C53.9214 8.42171 53.5 9.43912 53.5 10.5V14.5H57C57.3978 14.5 57.7794 14.658 58.0607 14.9393C58.342 15.2206 58.5 15.6022 58.5 16C58.5 16.3978 58.342 16.7793 58.0607 17.0606C57.7794 17.342 57.3978 17.5 57 17.5H53.5V21.5C53.5012 22.5535 53.2234 23.5886 52.695 24.5H63C63.3978 24.5 63.7794 24.658 64.0607 24.9393C64.342 25.2206 64.5 25.6022 64.5 26Z" fill="white"/>
</g>
<defs>
<clipPath id="clip0_27_1102">
<rect width="72" height="32" rx="5" fill="white"/>
</clipPath>
</defs>
</svg>
