<svg width="72" height="32" viewBox="0 0 72 32" fill="none" xmlns="http://www.w3.org/2000/svg">
<g clip-path="url(#clip0_27_1067)">
<path d="M22 19C22 19.5304 21.7893 20.0391 21.4142 20.4142C21.0391 20.7893 20.5304 21 20 21H14V17H20C20.5304 17 21.0391 17.2107 21.4142 17.5858C21.7893 17.9609 22 18.4696 22 19ZM30 16C30 18.5712 29.2376 21.0846 27.8091 23.2224C26.3807 25.3603 24.3503 27.0265 21.9749 28.0104C19.5995 28.9944 16.9856 29.2518 14.4638 28.7502C11.9421 28.2486 9.6257 27.0105 7.80762 25.1924C5.98954 23.3743 4.75141 21.0579 4.2498 18.5362C3.74819 16.0144 4.00563 13.4006 4.98957 11.0251C5.97351 8.64968 7.63975 6.61935 9.77759 5.1909C11.9154 3.76244 14.4288 3 17 3C20.4467 3.00364 23.7512 4.37445 26.1884 6.81163C28.6256 9.24882 29.9964 12.5533 30 16ZM24 19C23.9999 18.31 23.8213 17.6317 23.4816 17.0312C23.1419 16.4306 22.6526 15.9281 22.0613 15.5725C22.4964 15.0551 22.7933 14.4359 22.9242 13.7727C23.0551 13.1094 23.0158 12.4238 22.81 11.7799C22.6041 11.136 22.2384 10.5547 21.747 10.0905C21.2556 9.62618 20.6546 9.29402 20 9.125V8C20 7.73478 19.8946 7.48043 19.7071 7.29289C19.5196 7.10536 19.2652 7 19 7C18.7348 7 18.4804 7.10536 18.2929 7.29289C18.1054 7.48043 18 7.73478 18 8V9H16V8C16 7.73478 15.8946 7.48043 15.7071 7.29289C15.5196 7.10536 15.2652 7 15 7C14.7348 7 14.4804 7.10536 14.2929 7.29289C14.1054 7.48043 14 7.73478 14 8V9H12C11.7348 9 11.4804 9.10536 11.2929 9.29289C11.1054 9.48043 11 9.73478 11 10C11 10.2652 11.1054 10.5196 11.2929 10.7071C11.4804 10.8946 11.7348 11 12 11V21C11.7348 21 11.4804 21.1054 11.2929 21.2929C11.1054 21.4804 11 21.7348 11 22C11 22.2652 11.1054 22.5196 11.2929 22.7071C11.4804 22.8946 11.7348 23 12 23H14V24C14 24.2652 14.1054 24.5196 14.2929 24.7071C14.4804 24.8946 14.7348 25 15 25C15.2652 25 15.5196 24.8946 15.7071 24.7071C15.8946 24.5196 16 24.2652 16 24V23H18V24C18 24.2652 18.1054 24.5196 18.2929 24.7071C18.4804 24.8946 18.7348 25 19 25C19.2652 25 19.5196 24.8946 19.7071 24.7071C19.8946 24.5196 20 24.2652 20 24V23C21.0609 23 22.0783 22.5786 22.8284 21.8284C23.5786 21.0783 24 20.0609 24 19ZM21 13C21 12.4696 20.7893 11.9609 20.4142 11.5858C20.0391 11.2107 19.5304 11 19 11H14V15H19C19.5304 15 20.0391 14.7893 20.4142 14.4142C20.7893 14.0391 21 13.5304 21 13Z" fill="white"/>
<path d="M63.135 14.3075C63.7748 13.5285 64.2081 12.6009 64.3948 11.6103C64.5815 10.6197 64.5156 9.59802 64.2032 8.6396C63.8908 7.68118 63.3419 6.81692 62.6073 6.12663C61.8727 5.43633 60.976 4.94225 60 4.69V3C60 2.60218 59.842 2.22064 59.5607 1.93934C59.2794 1.65804 58.8978 1.5 58.5 1.5C58.1022 1.5 57.7206 1.65804 57.4393 1.93934C57.158 2.22064 57 2.60218 57 3V4.5H55V3C55 2.60218 54.842 2.22064 54.5607 1.93934C54.2794 1.65804 53.8978 1.5 53.5 1.5C53.1022 1.5 52.7206 1.65804 52.4393 1.93934C52.158 2.22064 52 2.60218 52 3V4.5H49C48.6022 4.5 48.2206 4.65804 47.9393 4.93934C47.658 5.22064 47.5 5.60218 47.5 6C47.5 6.39782 47.658 6.77936 47.9393 7.06066C48.2206 7.34196 48.6022 7.5 49 7.5H49.5V23.5H49C48.6022 23.5 48.2206 23.658 47.9393 23.9393C47.658 24.2206 47.5 24.6022 47.5 25C47.5 25.3978 47.658 25.7794 47.9393 26.0607C48.2206 26.342 48.6022 26.5 49 26.5H52V28C52 28.3978 52.158 28.7794 52.4393 29.0607C52.7206 29.342 53.1022 29.5 53.5 29.5C53.8978 29.5 54.2794 29.342 54.5607 29.0607C54.842 28.7794 55 28.3978 55 28V26.5H57V28C57 28.3978 57.158 28.7794 57.4393 29.0607C57.7206 29.342 58.1022 29.5 58.5 29.5C58.8978 29.5 59.2794 29.342 59.5607 29.0607C59.842 28.7794 60 28.3978 60 28V26.5C61.4417 26.4994 62.8422 26.0195 63.9813 25.1359C65.1205 24.2522 65.9335 23.0149 66.2925 21.6187C66.6515 20.2224 66.5361 18.7464 65.9645 17.4229C65.393 16.0994 64.3976 15.0034 63.135 14.3075ZM61.5 10.5C61.5 11.2956 61.1839 12.0587 60.6213 12.6213C60.0587 13.1839 59.2956 13.5 58.5 13.5H52.5V7.5H58.5C59.2956 7.5 60.0587 7.81607 60.6213 8.37868C61.1839 8.94129 61.5 9.70435 61.5 10.5ZM60 23.5H52.5V16.5H60C60.9283 16.5 61.8185 16.8687 62.4749 17.5251C63.1313 18.1815 63.5 19.0717 63.5 20C63.5 20.9283 63.1313 21.8185 62.4749 22.4749C61.8185 23.1313 60.9283 23.5 60 23.5Z" fill="white"/>
</g>
<defs>
<clipPath id="clip0_27_1067">
<rect width="72" height="32" rx="5" fill="white"/>
</clipPath>
</defs>
</svg>
