<svg width="72" height="32" viewBox="0 0 72 32" fill="none" xmlns="http://www.w3.org/2000/svg">
<g clip-path="url(#clip0_27_1072)">
<path d="M16 3C13.4288 3 10.9154 3.76244 8.77759 5.1909C6.63975 6.61935 4.97351 8.64968 3.98957 11.0251C3.00563 13.4006 2.74819 16.0144 3.2498 18.5362C3.75141 21.0579 4.98953 23.3743 6.80762 25.1924C8.6257 27.0105 10.9421 28.2486 13.4638 28.7502C15.9856 29.2518 18.5995 28.9944 20.9749 28.0104C23.3503 27.0265 25.3807 25.3603 26.8091 23.2224C28.2376 21.0846 29 18.5712 29 16C28.9964 12.5533 27.6256 9.24882 25.1884 6.81163C22.7512 4.37445 19.4467 3.00364 16 3ZM17.5 22H17V23C17 23.2652 16.8946 23.5196 16.7071 23.7071C16.5196 23.8946 16.2652 24 16 24C15.7348 24 15.4804 23.8946 15.2929 23.7071C15.1054 23.5196 15 23.2652 15 23V22H13C12.7348 22 12.4804 21.8946 12.2929 21.7071C12.1054 21.5196 12 21.2652 12 21C12 20.7348 12.1054 20.4804 12.2929 20.2929C12.4804 20.1054 12.7348 20 13 20H17.5C17.8978 20 18.2794 19.842 18.5607 19.5607C18.842 19.2794 19 18.8978 19 18.5C19 18.1022 18.842 17.7206 18.5607 17.4393C18.2794 17.158 17.8978 17 17.5 17H14.5C13.5717 17 12.6815 16.6313 12.0251 15.9749C11.3688 15.3185 11 14.4283 11 13.5C11 12.5717 11.3688 11.6815 12.0251 11.0251C12.6815 10.3687 13.5717 10 14.5 10H15V9C15 8.73478 15.1054 8.48043 15.2929 8.29289C15.4804 8.10536 15.7348 8 16 8C16.2652 8 16.5196 8.10536 16.7071 8.29289C16.8946 8.48043 17 8.73478 17 9V10H19C19.2652 10 19.5196 10.1054 19.7071 10.2929C19.8946 10.4804 20 10.7348 20 11C20 11.2652 19.8946 11.5196 19.7071 11.7071C19.5196 11.8946 19.2652 12 19 12H14.5C14.1022 12 13.7206 12.158 13.4393 12.4393C13.158 12.7206 13 13.1022 13 13.5C13 13.8978 13.158 14.2794 13.4393 14.5607C13.7206 14.842 14.1022 15 14.5 15H17.5C18.4283 15 19.3185 15.3687 19.9749 16.0251C20.6313 16.6815 21 17.5717 21 18.5C21 19.4283 20.6313 20.3185 19.9749 20.9749C19.3185 21.6313 18.4283 22 17.5 22Z" fill="white"/>
<path d="M56 2.5C53.33 2.5 50.7199 3.29176 48.4998 4.77516C46.2797 6.25856 44.5494 8.36697 43.5276 10.8338C42.5058 13.3006 42.2385 16.015 42.7594 18.6337C43.2803 21.2525 44.5661 23.6579 46.4541 25.5459C48.3421 27.434 50.7475 28.7197 53.3663 29.2406C55.985 29.7615 58.6994 29.4942 61.1662 28.4724C63.633 27.4506 65.7414 25.7203 67.2248 23.5002C68.7082 21.2801 69.5 18.67 69.5 16C69.496 12.4208 68.0724 8.98932 65.5416 6.45844C63.0107 3.92756 59.5792 2.50397 56 2.5ZM56 26.5C53.9233 26.5 51.8932 25.8842 50.1665 24.7304C48.4398 23.5767 47.094 21.9368 46.2993 20.0182C45.5046 18.0996 45.2966 15.9884 45.7018 13.9516C46.1069 11.9148 47.1069 10.0438 48.5754 8.57538C50.0438 7.10693 51.9148 6.1069 53.9516 5.70175C55.9884 5.29661 58.0996 5.50454 60.0182 6.29926C61.9368 7.09399 63.5767 8.4398 64.7304 10.1665C65.8842 11.8932 66.5 13.9233 66.5 16C66.497 18.7839 65.3898 21.4528 63.4213 23.4213C61.4529 25.3898 58.7839 26.497 56 26.5ZM61.5 18.5C61.5 19.5609 61.0786 20.5783 60.3284 21.3284C59.5783 22.0786 58.5609 22.5 57.5 22.5V23C57.5 23.3978 57.342 23.7794 57.0607 24.0607C56.7794 24.342 56.3978 24.5 56 24.5C55.6022 24.5 55.2206 24.342 54.9393 24.0607C54.658 23.7794 54.5 23.3978 54.5 23V22.5H53C52.6022 22.5 52.2206 22.342 51.9393 22.0607C51.658 21.7794 51.5 21.3978 51.5 21C51.5 20.6022 51.658 20.2206 51.9393 19.9393C52.2206 19.658 52.6022 19.5 53 19.5H57.5C57.7652 19.5 58.0196 19.3946 58.2071 19.2071C58.3946 19.0196 58.5 18.7652 58.5 18.5C58.5 18.2348 58.3946 17.9804 58.2071 17.7929C58.0196 17.6054 57.7652 17.5 57.5 17.5H54.5C53.4391 17.5 52.4217 17.0786 51.6716 16.3284C50.9214 15.5783 50.5 14.5609 50.5 13.5C50.5 12.4391 50.9214 11.4217 51.6716 10.6716C52.4217 9.92143 53.4391 9.5 54.5 9.5V9C54.5 8.60218 54.658 8.22064 54.9393 7.93934C55.2206 7.65804 55.6022 7.5 56 7.5C56.3978 7.5 56.7794 7.65804 57.0607 7.93934C57.342 8.22064 57.5 8.60218 57.5 9V9.5H59C59.3978 9.5 59.7794 9.65804 60.0607 9.93934C60.342 10.2206 60.5 10.6022 60.5 11C60.5 11.3978 60.342 11.7794 60.0607 12.0607C59.7794 12.342 59.3978 12.5 59 12.5H54.5C54.2348 12.5 53.9804 12.6054 53.7929 12.7929C53.6054 12.9804 53.5 13.2348 53.5 13.5C53.5 13.7652 53.6054 14.0196 53.7929 14.2071C53.9804 14.3946 54.2348 14.5 54.5 14.5H57.5C58.5609 14.5 59.5783 14.9214 60.3284 15.6716C61.0786 16.4217 61.5 17.4391 61.5 18.5Z" fill="white"/>
</g>
<defs>
<clipPath id="clip0_27_1072">
<rect width="72" height="32" rx="5" fill="white"/>
</clipPath>
</defs>
</svg>
