<svg width="72" height="32" viewBox="0 0 72 32" fill="none" xmlns="http://www.w3.org/2000/svg">
<g clip-path="url(#clip0_27_1117)">
<path d="M16 3C13.4288 3 10.9154 3.76244 8.77759 5.1909C6.63975 6.61935 4.97351 8.64968 3.98957 11.0251C3.00563 13.4006 2.74819 16.0144 3.2498 18.5362C3.75141 21.0579 4.98953 23.3743 6.80762 25.1924C8.6257 27.0105 10.9421 28.2486 13.4638 28.7502C15.9856 29.2518 18.5995 28.9944 20.9749 28.0104C23.3503 27.0265 25.3807 25.3603 26.8091 23.2224C28.2376 21.0846 29 18.5712 29 16C28.9964 12.5533 27.6256 9.24882 25.1884 6.81163C22.7512 4.37445 19.4467 3.00364 16 3ZM25 18H22.6775L20.9275 22.375C20.8534 22.5607 20.7252 22.72 20.5597 22.8322C20.3941 22.9443 20.1987 23.0043 19.9988 23.0043C19.7988 23.0043 19.6034 22.9443 19.4378 22.8322C19.2723 22.72 19.1441 22.5607 19.07 22.375L16 14.6925L12.9288 22.375C12.8546 22.5607 12.7265 22.72 12.5609 22.8322C12.3954 22.9443 12.2 23.0043 12 23.0043C11.8 23.0043 11.6046 22.9443 11.4391 22.8322C11.2735 22.72 11.1454 22.5607 11.0713 22.375L9.32126 18H7.00001C6.73479 18 6.48044 17.8946 6.2929 17.7071C6.10536 17.5196 6.00001 17.2652 6.00001 17C6.00001 16.7348 6.10536 16.4804 6.2929 16.2929C6.48044 16.1054 6.73479 16 7.00001 16H8.52251L7.07126 12.375C7.02201 12.253 6.99727 12.1226 6.99845 11.991C6.99962 11.8595 7.0267 11.7295 7.07812 11.6084C7.18196 11.3639 7.37869 11.1707 7.62501 11.0712C7.87133 10.9718 8.14707 10.9743 8.39157 11.0781C8.63607 11.182 8.8293 11.3787 8.92876 11.625L12 19.3075L15.0713 11.625C15.1454 11.4393 15.2735 11.28 15.4391 11.1678C15.6046 11.0557 15.8 10.9957 16 10.9957C16.2 10.9957 16.3954 11.0557 16.5609 11.1678C16.7265 11.28 16.8546 11.4393 16.9288 11.625L20 19.3075L23.0713 11.625C23.1707 11.3787 23.3639 11.182 23.6084 11.0781C23.8529 10.9743 24.1287 10.9718 24.375 11.0712C24.6213 11.1707 24.818 11.3639 24.9219 11.6084C25.0257 11.8529 25.0282 12.1287 24.9288 12.375L23.4775 16H25C25.2652 16 25.5196 16.1054 25.7071 16.2929C25.8946 16.4804 26 16.7348 26 17C26 17.2652 25.8946 17.5196 25.7071 17.7071C25.5196 17.8946 25.2652 18 25 18Z" fill="white"/>
<path d="M70 15.5H67.9788L70.39 9.56499C70.5273 9.19876 70.5162 8.79337 70.3589 8.43524C70.2017 8.07712 69.9108 7.79458 69.5482 7.64785C69.1856 7.50113 68.7801 7.50183 68.418 7.6498C68.056 7.79778 67.766 8.08132 67.61 8.43999L64.735 15.5037H60.26L57.385 8.43999C57.2728 8.16333 57.0806 7.92646 56.8329 7.75968C56.5853 7.5929 56.2935 7.50381 55.995 7.50381C55.6965 7.50381 55.4047 7.5929 55.1571 7.75968C54.9094 7.92646 54.7172 8.16333 54.605 8.43999L51.74 15.5H47.26L44.385 8.43624C44.229 8.07757 43.939 7.79403 43.577 7.64605C43.2149 7.49808 42.8094 7.49738 42.4468 7.6441C42.0842 7.79083 41.7933 8.07337 41.6361 8.43149C41.4788 8.78962 41.4677 9.19501 41.605 9.56124L44.0212 15.5H42C41.6022 15.5 41.2206 15.658 40.9393 15.9393C40.658 16.2206 40.5 16.6022 40.5 17C40.5 17.3978 40.658 17.7793 40.9393 18.0606C41.2206 18.342 41.6022 18.5 42 18.5H45.24L48.115 25.565C48.2272 25.8416 48.4194 26.0785 48.6671 26.2453C48.9147 26.4121 49.2065 26.5012 49.505 26.5012C49.8035 26.5012 50.0953 26.4121 50.3429 26.2453C50.5906 26.0785 50.7828 25.8416 50.895 25.565L53.77 18.5H58.25L61.125 25.565C61.2372 25.8416 61.4294 26.0785 61.6771 26.2453C61.9247 26.4121 62.2164 26.5012 62.515 26.5012C62.8135 26.5012 63.1053 26.4121 63.3529 26.2453C63.6006 26.0785 63.7928 25.8416 63.905 25.565L66.78 18.5H70C70.3978 18.5 70.7794 18.342 71.0607 18.0606C71.342 17.7793 71.5 17.3978 71.5 17C71.5 16.6022 71.342 16.2206 71.0607 15.9393C70.7794 15.658 70.3978 15.5 70 15.5ZM49.5 21.015L48.4788 18.5H50.5212L49.5 21.015ZM54.9788 15.5L56 12.9862L57.0212 15.5H54.9788ZM62.5 21.015L61.4788 18.5H63.5212L62.5 21.015Z" fill="white"/>
</g>
<defs>
<clipPath id="clip0_27_1117">
<rect width="72" height="32" rx="5" fill="white"/>
</clipPath>
</defs>
</svg>
