<svg width="72" height="32" viewBox="0 0 72 32" fill="none" xmlns="http://www.w3.org/2000/svg">
<g clip-path="url(#clip0_27_1127)">
<path d="M17.9438 17H20V19.875L17.9438 17ZM12 15H14.0563L12 12.125V15ZM29 16C29 18.5712 28.2376 21.0846 26.8091 23.2224C25.3807 25.3603 23.3503 27.0265 20.9749 28.0104C18.5995 28.9944 15.9856 29.2518 13.4638 28.7502C10.9421 28.2486 8.6257 27.0105 6.80762 25.1924C4.98953 23.3743 3.75141 21.0579 3.2498 18.5362C2.74819 16.0144 3.00563 13.4006 3.98957 11.0251C4.97351 8.64968 6.63975 6.61935 8.77759 5.1909C10.9154 3.76244 13.4288 3 16 3C19.4467 3.00364 22.7512 4.37445 25.1884 6.81163C27.6256 9.24882 28.9964 12.5533 29 16ZM25 16C25 15.7348 24.8946 15.4804 24.7071 15.2929C24.5196 15.1054 24.2652 15 24 15H22V9C22 8.73478 21.8946 8.48043 21.7071 8.29289C21.5196 8.10536 21.2652 8 21 8C20.7348 8 20.4804 8.10536 20.2929 8.29289C20.1054 8.48043 20 8.73478 20 9V15H16.515L11.8138 8.41875C11.6906 8.24634 11.5159 8.11749 11.3148 8.0508C11.1137 7.98411 10.8966 7.98301 10.6948 8.04767C10.4931 8.11233 10.317 8.2394 10.1922 8.41056C10.0673 8.58173 10 8.78813 10 9V15H8.00001C7.73479 15 7.48044 15.1054 7.2929 15.2929C7.10536 15.4804 7.00001 15.7348 7.00001 16C7.00001 16.2652 7.10536 16.5196 7.2929 16.7071C7.48044 16.8946 7.73479 17 8.00001 17H10V23C10 23.2652 10.1054 23.5196 10.2929 23.7071C10.4804 23.8946 10.7348 24 11 24C11.2652 24 11.5196 23.8946 11.7071 23.7071C11.8946 23.5196 12 23.2652 12 23V17H15.485L20.1863 23.5812C20.2788 23.7108 20.4009 23.8163 20.5424 23.8892C20.684 23.962 20.8408 24 21 24C21.1035 24.0002 21.2065 23.9842 21.305 23.9525C21.5068 23.8879 21.6829 23.7608 21.8078 23.5896C21.9327 23.4184 22 23.2119 22 23V17H24C24.2652 17 24.5196 16.8946 24.7071 16.7071C24.8946 16.5196 25 16.2652 25 16Z" fill="white"/>
<path d="M67 14.5H65.5V5.75C65.5 5.35218 65.342 4.97064 65.0607 4.68934C64.7794 4.40804 64.3978 4.25 64 4.25C63.6022 4.25 63.2206 4.40804 62.9393 4.68934C62.658 4.97064 62.5 5.35218 62.5 5.75V14.5H56.7325L49.1825 4.8275C48.9903 4.58128 48.7261 4.40118 48.4267 4.31234C48.1272 4.22349 47.8076 4.23033 47.5122 4.33191C47.2168 4.43348 46.9606 4.62471 46.7791 4.87893C46.5977 5.13315 46.5001 5.43767 46.5 5.75V14.5H45C44.6022 14.5 44.2206 14.658 43.9393 14.9393C43.658 15.2206 43.5 15.6022 43.5 16C43.5 16.3978 43.658 16.7794 43.9393 17.0607C44.2206 17.342 44.6022 17.5 45 17.5H46.5V26.25C46.5 26.6478 46.658 27.0294 46.9393 27.3107C47.2206 27.592 47.6022 27.75 48 27.75C48.3978 27.75 48.7794 27.592 49.0607 27.3107C49.342 27.0294 49.5 26.6478 49.5 26.25V17.5H55.2675L62.8175 27.1725C63.0097 27.4187 63.2739 27.5988 63.5733 27.6877C63.8728 27.7765 64.1924 27.7697 64.4878 27.6681C64.7832 27.5665 65.0394 27.3753 65.2209 27.1211C65.4024 26.8669 65.4999 26.5623 65.5 26.25V17.5H67C67.3978 17.5 67.7794 17.342 68.0607 17.0607C68.342 16.7794 68.5 16.3978 68.5 16C68.5 15.6022 68.342 15.2206 68.0607 14.9393C67.7794 14.658 67.3978 14.5 67 14.5ZM49.5 14.5V10.11L52.9263 14.5H49.5ZM62.5 21.89L59.0737 17.5H62.5V21.89Z" fill="white"/>
</g>
<defs>
<clipPath id="clip0_27_1127">
<rect width="72" height="32" rx="5" fill="white"/>
</clipPath>
</defs>
</svg>
