<svg width="72" height="32" viewBox="0 0 72 32" fill="none" xmlns="http://www.w3.org/2000/svg">
<g clip-path="url(#clip0_27_5207)">
<path d="M16 2C10.9538 2 7 4.41625 7 7.5V24.5C7 27.5837 10.9538 30 16 30C21.0462 30 25 27.5837 25 24.5V7.5C25 4.41625 21.0462 2 16 2ZM16 28C12.2712 28 9 26.365 9 24.5V9.67875C10.365 11.0625 12.9875 12 16 12C19.0125 12 21.635 11.0625 23 9.67875V24.5C23 26.365 19.7288 28 16 28Z" fill="white"/>
<path d="M62.3925 3.01C60.66 2.03625 58.39 1.5 56 1.5C53.61 1.5 51.34 2.03625 49.6075 3.01C47.6037 4.1375 46.5 5.7325 46.5 7.5V24.5C46.5 26.2675 47.6037 27.8625 49.6075 28.99C51.34 29.9637 53.61 30.5 56 30.5C58.39 30.5 60.66 29.9637 62.3925 28.99C64.3925 27.865 65.5 26.2675 65.5 24.5V7.5C65.5 5.7325 64.3962 4.1375 62.3925 3.01ZM51.0787 5.625C52.35 4.91 54.1438 4.5 56 4.5C57.8562 4.5 59.65 4.91 60.9212 5.625C61.9212 6.19 62.5 6.875 62.5 7.5C62.5 8.125 61.925 8.81 60.9212 9.375C59.65 10.09 57.8562 10.5 56 10.5C54.1438 10.5 52.35 10.09 51.0787 9.375C50.075 8.81 49.5 8.125 49.5 7.5C49.5 6.875 50.075 6.19 51.0787 5.625ZM60.9212 26.375C59.65 27.09 57.8562 27.5 56 27.5C54.1438 27.5 52.35 27.09 51.0787 26.375C50.075 25.81 49.5 25.125 49.5 24.5V11.925L49.6075 11.99C51.34 12.9637 53.61 13.5 56 13.5C58.39 13.5 60.66 12.9637 62.3925 11.99L62.5 11.925V24.5C62.5 25.125 61.925 25.81 60.9212 26.375Z" fill="white"/>
</g>
<defs>
<clipPath id="clip0_27_5207">
<rect width="72" height="32" rx="5" fill="white"/>
</clipPath>
</defs>
</svg>
