<svg width="72" height="32" viewBox="0 0 72 32" fill="none" xmlns="http://www.w3.org/2000/svg">
<g clip-path="url(#clip0_27_1137)">
<path d="M31 8H1C0.734784 8 0.48043 8.10536 0.292893 8.29289C0.105357 8.48043 0 8.73478 0 9C0 9.26522 0.105357 9.51957 0.292893 9.70711C0.48043 9.89464 0.734784 10 1 10H2V24C2 24.2652 2.10536 24.5196 2.29289 24.7071C2.48043 24.8946 2.73478 25 3 25C3.26522 25 3.51957 24.8946 3.70711 24.7071C3.89464 24.5196 4 24.2652 4 24V18H28V24C28 24.2652 28.1054 24.5196 28.2929 24.7071C28.4804 24.8946 28.7348 25 29 25C29.2652 25 29.5196 24.8946 29.7071 24.7071C29.8946 24.5196 30 24.2652 30 24V10H31C31.2652 10 31.5196 9.89464 31.7071 9.70711C31.8946 9.51957 32 9.26522 32 9C32 8.73478 31.8946 8.48043 31.7071 8.29289C31.5196 8.10536 31.2652 8 31 8ZM10 14H7C6.73478 14 6.48043 13.8946 6.29289 13.7071C6.10536 13.5196 6 13.2652 6 13C6 12.7348 6.10536 12.4804 6.29289 12.2929C6.48043 12.1054 6.73478 12 7 12H10C10.2652 12 10.5196 12.1054 10.7071 12.2929C10.8946 12.4804 11 12.7348 11 13C11 13.2652 10.8946 13.5196 10.7071 13.7071C10.5196 13.8946 10.2652 14 10 14ZM17 15C17 15.2652 16.8946 15.5196 16.7071 15.7071C16.5196 15.8946 16.2652 16 16 16C15.7348 16 15.4804 15.8946 15.2929 15.7071C15.1054 15.5196 15 15.2652 15 15V11C15 10.7348 15.1054 10.4804 15.2929 10.2929C15.4804 10.1054 15.7348 10 16 10C16.2652 10 16.5196 10.1054 16.7071 10.2929C16.8946 10.4804 17 10.7348 17 11V15ZM25 14H22C21.7348 14 21.4804 13.8946 21.2929 13.7071C21.1054 13.5196 21 13.2652 21 13C21 12.7348 21.1054 12.4804 21.2929 12.2929C21.4804 12.1054 21.7348 12 22 12H25C25.2652 12 25.5196 12.1054 25.7071 12.2929C25.8946 12.4804 26 12.7348 26 13C26 13.2652 25.8946 13.5196 25.7071 13.7071C25.5196 13.8946 25.2652 14 25 14Z" fill="white"/>
<path d="M70.5 7.5H41.5C41.1022 7.5 40.7206 7.65804 40.4393 7.93934C40.158 8.22064 40 8.60218 40 9C40 9.39782 40.158 9.77936 40.4393 10.0607C40.7206 10.342 41.1022 10.5 41.5 10.5H42V24C42 24.3978 42.158 24.7794 42.4393 25.0607C42.7206 25.342 43.1022 25.5 43.5 25.5C43.8978 25.5 44.2794 25.342 44.5607 25.0607C44.842 24.7794 45 24.3978 45 24V19.5H67V24C67 24.3978 67.158 24.7794 67.4393 25.0607C67.7206 25.342 68.1022 25.5 68.5 25.5C68.8978 25.5 69.2794 25.342 69.5607 25.0607C69.842 24.7794 70 24.3978 70 24V10.5H70.5C70.8978 10.5 71.2794 10.342 71.5607 10.0607C71.842 9.77936 72 9.39782 72 9C72 8.60218 71.842 8.22064 71.5607 7.93934C71.2794 7.65804 70.8978 7.5 70.5 7.5ZM45 10.5H54.5V16.5H45V10.5ZM67 16.5H57.5V10.5H67V16.5ZM52.5 13.5C52.5 13.8978 52.342 14.2794 52.0607 14.5607C51.7794 14.842 51.3978 15 51 15H48.5C48.1022 15 47.7206 14.842 47.4393 14.5607C47.158 14.2794 47 13.8978 47 13.5C47 13.1022 47.158 12.7206 47.4393 12.4393C47.7206 12.158 48.1022 12 48.5 12H51C51.3978 12 51.7794 12.158 52.0607 12.4393C52.342 12.7206 52.5 13.1022 52.5 13.5ZM59.5 13.5C59.5 13.1022 59.658 12.7206 59.9393 12.4393C60.2206 12.158 60.6022 12 61 12H63.5C63.8978 12 64.2794 12.158 64.5607 12.4393C64.842 12.7206 65 13.1022 65 13.5C65 13.8978 64.842 14.2794 64.5607 14.5607C64.2794 14.842 63.8978 15 63.5 15H61C60.6022 15 60.2206 14.842 59.9393 14.5607C59.658 14.2794 59.5 13.8978 59.5 13.5Z" fill="white"/>
</g>
<defs>
<clipPath id="clip0_27_1137">
<rect width="72" height="32" rx="5" fill="white"/>
</clipPath>
</defs>
</svg>
