<svg width="72" height="32" viewBox="0 0 72 32" fill="none" xmlns="http://www.w3.org/2000/svg">
<g clip-path="url(#clip0_27_2640)">
<path d="M15 9.5V23.5C15 23.6326 14.9473 23.7598 14.8536 23.8536C14.7598 23.9473 14.6326 24 14.5 24H12V26H13.9663C14.2242 25.9968 14.4739 26.0913 14.6651 26.2645C14.8564 26.4376 14.9751 26.6767 14.9975 26.9338C15.0066 27.0705 14.9874 27.2077 14.9413 27.3368C14.8951 27.4659 14.8229 27.5841 14.7291 27.6841C14.6353 27.7841 14.522 27.8637 14.3961 27.9181C14.2703 27.9724 14.1346 28.0003 13.9975 28H8.03375C7.77533 28.0038 7.52506 27.9096 7.33327 27.7364C7.14148 27.5632 7.0224 27.3237 7 27.0662C6.99092 26.9295 7.01006 26.7923 7.05623 26.6632C7.1024 26.5341 7.17462 26.4159 7.2684 26.3159C7.36218 26.2159 7.47552 26.1363 7.60137 26.0819C7.72723 26.0276 7.86291 25.9997 8 26H10V24H4C3.20435 24 2.44129 23.6839 1.87868 23.1213C1.31607 22.5587 1 21.7956 1 21V12C1 11.2044 1.31607 10.4413 1.87868 9.87868C2.44129 9.31607 3.20435 9 4 9H14.5C14.6326 9 14.7598 9.05268 14.8536 9.14645C14.9473 9.24021 15 9.36739 15 9.5ZM31 6V26C31 26.5304 30.7893 27.0391 30.4142 27.4142C30.0391 27.7893 29.5304 28 29 28H19C18.4696 28 17.9609 27.7893 17.5858 27.4142C17.2107 27.0391 17 26.5304 17 26V6C17 5.46957 17.2107 4.96086 17.5858 4.58579C17.9609 4.21071 18.4696 4 19 4H29C29.5304 4 30.0391 4.21071 30.4142 4.58579C30.7893 4.96086 31 5.46957 31 6ZM25.4875 22.6963C25.5285 22.3856 25.4711 22.0698 25.3234 21.7934C25.1758 21.517 24.9453 21.2938 24.6643 21.1551C24.3832 21.0164 24.0658 20.9692 23.7566 21.0201C23.4474 21.071 23.1619 21.2175 22.9402 21.439C22.7185 21.6605 22.5718 21.9458 22.5205 22.255C22.4693 22.5642 22.5162 22.8816 22.6546 23.1628C22.7931 23.4439 23.0161 23.6746 23.2923 23.8226C23.5686 23.9705 23.8843 24.0282 24.195 23.9875C24.5226 23.9446 24.8268 23.7948 25.0605 23.5614C25.2942 23.3279 25.4443 23.0238 25.4875 22.6963ZM28 12.9338C27.9776 12.6763 27.8585 12.4368 27.6667 12.2636C27.4749 12.0904 27.2247 11.9962 26.9662 12H21.0338C20.7758 11.9968 20.5261 12.0913 20.3349 12.2645C20.1436 12.4376 20.0249 12.6767 20.0025 12.9338C19.9934 13.0705 20.0126 13.2077 20.0587 13.3368C20.1049 13.4659 20.1771 13.5841 20.2709 13.6841C20.3647 13.7841 20.478 13.8637 20.6039 13.9181C20.7297 13.9724 20.8654 14.0003 21.0025 14H27.0025C27.1394 14 27.2748 13.9718 27.4003 13.9173C27.5259 13.8628 27.6389 13.7831 27.7325 13.6832C27.826 13.5832 27.898 13.4651 27.944 13.3362C27.99 13.2073 28.0091 13.0703 28 12.9338ZM28 8.93375C27.9776 8.67628 27.8585 8.43684 27.6667 8.2636C27.4749 8.09037 27.2247 7.99618 26.9662 8H21.0338C20.7753 7.99618 20.5251 8.09037 20.3333 8.2636C20.1415 8.43684 20.0224 8.67628 20 8.93375C19.9909 9.07054 20.0101 9.20773 20.0562 9.33681C20.1024 9.46589 20.1746 9.58409 20.2684 9.68409C20.3622 9.78408 20.4755 9.86372 20.6014 9.91807C20.7272 9.97241 20.8629 10.0003 21 10H27C27.1371 10.0003 27.2728 9.97241 27.3986 9.91807C27.5245 9.86372 27.6378 9.78408 27.7316 9.68409C27.8254 9.58409 27.8976 9.46589 27.9438 9.33681C27.9899 9.20773 28.0091 9.07054 28 8.93375Z" fill="white"/>
<path d="M61 9.5C61 9.10218 61.158 8.72064 61.4393 8.43934C61.7206 8.15804 62.1022 8 62.5 8H65.5C65.8978 8 66.2794 8.15804 66.5607 8.43934C66.842 8.72064 67 9.10218 67 9.5C67 9.89782 66.842 10.2794 66.5607 10.5607C66.2794 10.842 65.8978 11 65.5 11H62.5C62.1022 11 61.7206 10.842 61.4393 10.5607C61.158 10.2794 61 9.89782 61 9.5ZM62.5 15.5H65.5C65.8978 15.5 66.2794 15.342 66.5607 15.0607C66.842 14.7794 67 14.3978 67 14C67 13.6022 66.842 13.2206 66.5607 12.9393C66.2794 12.658 65.8978 12.5 65.5 12.5H62.5C62.1022 12.5 61.7206 12.658 61.4393 12.9393C61.158 13.2206 61 13.6022 61 14C61 14.3978 61.158 14.7794 61.4393 15.0607C61.7206 15.342 62.1022 15.5 62.5 15.5ZM71.5 6V26C71.5 26.663 71.2366 27.2989 70.7678 27.7678C70.2989 28.2366 69.663 28.5 69 28.5H59C58.337 28.5 57.7011 28.2366 57.2322 27.7678C56.7634 27.2989 56.5 26.663 56.5 26V24H52.5V25.5H53.5C53.8978 25.5 54.2794 25.658 54.5607 25.9393C54.842 26.2206 55 26.6022 55 27C55 27.3978 54.842 27.7794 54.5607 28.0607C54.2794 28.342 53.8978 28.5 53.5 28.5H48.5C48.1022 28.5 47.7206 28.342 47.4393 28.0607C47.158 27.7794 47 27.3978 47 27C47 26.6022 47.158 26.2206 47.4393 25.9393C47.7206 25.658 48.1022 25.5 48.5 25.5H49.5V24H44C43.0717 24 42.1815 23.6313 41.5251 22.9749C40.8687 22.3185 40.5 21.4283 40.5 20.5V12C40.5 11.0717 40.8687 10.1815 41.5251 9.52513C42.1815 8.86875 43.0717 8.5 44 8.5H56.5V6C56.5 5.33696 56.7634 4.70107 57.2322 4.23223C57.7011 3.76339 58.337 3.5 59 3.5H69C69.663 3.5 70.2989 3.76339 70.7678 4.23223C71.2366 4.70107 71.5 5.33696 71.5 6ZM56.5 21V11.5H44C43.8674 11.5 43.7402 11.5527 43.6464 11.6464C43.5527 11.7402 43.5 11.8674 43.5 12V20.5C43.5 20.6326 43.5527 20.7598 43.6464 20.8536C43.7402 20.9473 43.8674 21 44 21H56.5ZM68.5 6.5H59.5V25.5H68.5V6.5ZM64 20C63.6044 20 63.2178 20.1173 62.8889 20.3371C62.56 20.5568 62.3036 20.8692 62.1522 21.2346C62.0009 21.6001 61.9613 22.0022 62.0384 22.3902C62.1156 22.7781 62.3061 23.1345 62.5858 23.4142C62.8655 23.6939 63.2219 23.8844 63.6098 23.9616C63.9978 24.0387 64.3999 23.9991 64.7654 23.8478C65.1308 23.6964 65.4432 23.44 65.6629 23.1111C65.8827 22.7822 66 22.3956 66 22C66 21.4696 65.7893 20.9609 65.4142 20.5858C65.0391 20.2107 64.5304 20 64 20Z" fill="white"/>
</g>
<defs>
<clipPath id="clip0_27_2640">
<rect width="72" height="32" rx="5" fill="white"/>
</clipPath>
</defs>
</svg>
