<svg width="72" height="32" viewBox="0 0 72 32" fill="none" xmlns="http://www.w3.org/2000/svg">
<g clip-path="url(#clip0_27_2650)">
<path d="M22 2H10C9.20435 2 8.44129 2.31607 7.87868 2.87868C7.31607 3.44129 7 4.20435 7 5V27C7 27.7956 7.31607 28.5587 7.87868 29.1213C8.44129 29.6839 9.20435 30 10 30H22C22.7956 30 23.5587 29.6839 24.1213 29.1213C24.6839 28.5587 25 27.7956 25 27V5C25 4.20435 24.6839 3.44129 24.1213 2.87868C23.5587 2.31607 22.7956 2 22 2ZM16 9C15.7033 9 15.4133 8.91203 15.1666 8.7472C14.92 8.58238 14.7277 8.34811 14.6142 8.07403C14.5006 7.79994 14.4709 7.49834 14.5288 7.20736C14.5867 6.91639 14.7296 6.64912 14.9393 6.43934C15.1491 6.22956 15.4164 6.0867 15.7074 6.02882C15.9983 5.97094 16.2999 6.00065 16.574 6.11418C16.8481 6.22771 17.0824 6.41997 17.2472 6.66664C17.412 6.91332 17.5 7.20333 17.5 7.5C17.5 7.89782 17.342 8.27936 17.0607 8.56066C16.7794 8.84196 16.3978 9 16 9Z" fill="white"/>
<path d="M62 1.5H50C49.0717 1.5 48.1815 1.86875 47.5251 2.52513C46.8687 3.1815 46.5 4.07174 46.5 5V27C46.5 27.9283 46.8687 28.8185 47.5251 29.4749C48.1815 30.1313 49.0717 30.5 50 30.5H62C62.9283 30.5 63.8185 30.1313 64.4749 29.4749C65.1313 28.8185 65.5 27.9283 65.5 27V5C65.5 4.07174 65.1313 3.1815 64.4749 2.52513C63.8185 1.86875 62.9283 1.5 62 1.5ZM62.5 27C62.5 27.1326 62.4473 27.2598 62.3536 27.3536C62.2598 27.4473 62.1326 27.5 62 27.5H50C49.8674 27.5 49.7402 27.4473 49.6464 27.3536C49.5527 27.2598 49.5 27.1326 49.5 27V5C49.5 4.86739 49.5527 4.74021 49.6464 4.64645C49.7402 4.55268 49.8674 4.5 50 4.5H62C62.1326 4.5 62.2598 4.55268 62.3536 4.64645C62.4473 4.74021 62.5 4.86739 62.5 5V27ZM58 8.5C58 8.89556 57.8827 9.28224 57.6629 9.61114C57.4432 9.94004 57.1308 10.1964 56.7654 10.3478C56.3999 10.4991 55.9978 10.5387 55.6098 10.4616C55.2219 10.3844 54.8655 10.1939 54.5858 9.91421C54.3061 9.63451 54.1156 9.27814 54.0384 8.89018C53.9613 8.50222 54.0009 8.10009 54.1522 7.73463C54.3036 7.36918 54.56 7.05682 54.8889 6.83706C55.2178 6.6173 55.6044 6.5 56 6.5C56.5304 6.5 57.0391 6.71071 57.4142 7.08579C57.7893 7.46086 58 7.96957 58 8.5Z" fill="white"/>
</g>
<defs>
<clipPath id="clip0_27_2650">
<rect width="72" height="32" rx="5" fill="white"/>
</clipPath>
</defs>
</svg>
