<svg width="72" height="32" viewBox="0 0 72 32" fill="none" xmlns="http://www.w3.org/2000/svg">
<g clip-path="url(#clip0_27_2685)">
<path d="M28 9H26V8C26 7.20435 25.6839 6.44129 25.1213 5.87868C24.5587 5.31607 23.7956 5 23 5H5C4.20435 5 3.44129 5.31607 2.87868 5.87868C2.31607 6.44129 2 7.20435 2 8V20C2 20.7956 2.31607 21.5587 2.87868 22.1213C3.44129 22.6839 4.20435 23 5 23H19V24C19 24.7956 19.3161 25.5587 19.8787 26.1213C20.4413 26.6839 21.2044 27 22 27H28C28.7956 27 29.5587 26.6839 30.1213 26.1213C30.6839 25.5587 31 24.7956 31 24V12C31 11.2044 30.6839 10.4413 30.1213 9.87868C29.5587 9.31607 28.7956 9 28 9ZM29 24C29 24.2652 28.8946 24.5196 28.7071 24.7071C28.5196 24.8946 28.2652 25 28 25H22C21.7348 25 21.4804 24.8946 21.2929 24.7071C21.1054 24.5196 21 24.2652 21 24V12C21 11.7348 21.1054 11.4804 21.2929 11.2929C21.4804 11.1054 21.7348 11 22 11H28C28.2652 11 28.5196 11.1054 28.7071 11.2929C28.8946 11.4804 29 11.7348 29 12V24ZM17 26C17 26.2652 16.8946 26.5196 16.7071 26.7071C16.5196 26.8946 16.2652 27 16 27H11C10.7348 27 10.4804 26.8946 10.2929 26.7071C10.1054 26.5196 10 26.2652 10 26C10 25.7348 10.1054 25.4804 10.2929 25.2929C10.4804 25.1054 10.7348 25 11 25H16C16.2652 25 16.5196 25.1054 16.7071 25.2929C16.8946 25.4804 17 25.7348 17 26ZM27 14C27 14.2652 26.8946 14.5196 26.7071 14.7071C26.5196 14.8946 26.2652 15 26 15H24C23.7348 15 23.4804 14.8946 23.2929 14.7071C23.1054 14.5196 23 14.2652 23 14C23 13.7348 23.1054 13.4804 23.2929 13.2929C23.4804 13.1054 23.7348 13 24 13H26C26.2652 13 26.5196 13.1054 26.7071 13.2929C26.8946 13.4804 27 13.7348 27 14Z" fill="white"/>
<path d="M68 9H66.5V8C66.5 7.07174 66.1313 6.1815 65.4749 5.52513C64.8185 4.86875 63.9283 4.5 63 4.5H45C44.0717 4.5 43.1815 4.86875 42.5251 5.52513C41.8687 6.1815 41.5 7.07174 41.5 8V19C41.5 19.9283 41.8687 20.8185 42.5251 21.4749C43.1815 22.1313 44.0717 22.5 45 22.5H57V24C57 24.9283 57.3687 25.8185 58.0251 26.4749C58.6815 27.1313 59.5717 27.5 60.5 27.5H68C68.9283 27.5 69.8185 27.1313 70.4749 26.4749C71.1313 25.8185 71.5 24.9283 71.5 24V12.5C71.5 11.5717 71.1313 10.6815 70.4749 10.0251C69.8185 9.36875 68.9283 9 68 9ZM45 19.5C44.8674 19.5 44.7402 19.4473 44.6464 19.3536C44.5527 19.2598 44.5 19.1326 44.5 19V8C44.5 7.86739 44.5527 7.74021 44.6464 7.64645C44.7402 7.55268 44.8674 7.5 45 7.5H63C63.1326 7.5 63.2598 7.55268 63.3536 7.64645C63.4473 7.74021 63.5 7.86739 63.5 8V9H60.5C59.5717 9 58.6815 9.36875 58.0251 10.0251C57.3687 10.6815 57 11.5717 57 12.5V19.5H45ZM68.5 24C68.5 24.1326 68.4473 24.2598 68.3536 24.3536C68.2598 24.4473 68.1326 24.5 68 24.5H60.5C60.3674 24.5 60.2402 24.4473 60.1464 24.3536C60.0527 24.2598 60 24.1326 60 24V12.5C60 12.3674 60.0527 12.2402 60.1464 12.1464C60.2402 12.0527 60.3674 12 60.5 12H68C68.1326 12 68.2598 12.0527 68.3536 12.1464C68.4473 12.2402 68.5 12.3674 68.5 12.5V24ZM55.5 26C55.5 26.3978 55.342 26.7794 55.0607 27.0607C54.7794 27.342 54.3978 27.5 54 27.5H51C50.6022 27.5 50.2206 27.342 49.9393 27.0607C49.658 26.7794 49.5 26.3978 49.5 26C49.5 25.6022 49.658 25.2206 49.9393 24.9393C50.2206 24.658 50.6022 24.5 51 24.5H54C54.3978 24.5 54.7794 24.658 55.0607 24.9393C55.342 25.2206 55.5 25.6022 55.5 26ZM66.5 15.5C66.5 15.8978 66.342 16.2794 66.0607 16.5607C65.7794 16.842 65.3978 17 65 17H63.5C63.1022 17 62.7206 16.842 62.4393 16.5607C62.158 16.2794 62 15.8978 62 15.5C62 15.1022 62.158 14.7206 62.4393 14.4393C62.7206 14.158 63.1022 14 63.5 14H65C65.3978 14 65.7794 14.158 66.0607 14.4393C66.342 14.7206 66.5 15.1022 66.5 15.5Z" fill="white"/>
</g>
<defs>
<clipPath id="clip0_27_2685">
<rect width="72" height="32" rx="5" fill="white"/>
</clipPath>
</defs>
</svg>
