<svg width="72" height="32" viewBox="0 0 72 32" fill="none" xmlns="http://www.w3.org/2000/svg">
<g clip-path="url(#clip0_27_2665)">
<path d="M25.7073 27.7075L22.7073 30.7075C22.5675 30.8475 22.3892 30.9429 22.1951 30.9815C22.001 31.0202 21.7998 31.0004 21.617 30.9246C21.4342 30.8489 21.278 30.7206 21.1681 30.556C21.0582 30.3914 20.9997 30.1979 20.9998 30V28H9.99981C9.20416 28 8.4411 27.6839 7.87849 27.1213C7.31588 26.5587 6.99981 25.7956 6.99981 25V13C6.99981 12.7348 7.10517 12.4804 7.2927 12.2929C7.48024 12.1054 7.73459 12 7.99981 12C8.26503 12 8.51938 12.1054 8.70692 12.2929C8.89445 12.4804 8.99981 12.7348 8.99981 13V25C8.99981 25.2652 9.10517 25.5196 9.2927 25.7071C9.48024 25.8946 9.73459 26 9.99981 26H20.9998V24C20.9997 23.8021 21.0582 23.6086 21.1681 23.444C21.278 23.2794 21.4342 23.1511 21.617 23.0754C21.7998 22.9996 22.001 22.9798 22.1951 23.0185C22.3892 23.0571 22.5675 23.1525 22.7073 23.2925L25.7073 26.2925C25.8003 26.3854 25.874 26.4957 25.9244 26.6171C25.9747 26.7385 26.0006 26.8686 26.0006 27C26.0006 27.1314 25.9747 27.2615 25.9244 27.3829C25.874 27.5043 25.8003 27.6146 25.7073 27.7075ZM9.99981 8.99999C10.265 8.99999 10.5194 8.89464 10.7069 8.7071C10.8945 8.51956 10.9998 8.26521 10.9998 7.99999V5.99999H21.9998C22.265 5.99999 22.5194 6.10535 22.7069 6.29289C22.8945 6.48042 22.9998 6.73478 22.9998 6.99999V19C22.9998 19.2652 23.1052 19.5196 23.2927 19.7071C23.4802 19.8946 23.7346 20 23.9998 20C24.265 20 24.5194 19.8946 24.7069 19.7071C24.8945 19.5196 24.9998 19.2652 24.9998 19V6.99999C24.9998 6.20434 24.6837 5.44128 24.1211 4.87867C23.5585 4.31606 22.7955 3.99999 21.9998 3.99999H10.9998V1.99999C11 1.8021 10.9414 1.60861 10.8315 1.44401C10.7217 1.27942 10.5654 1.15112 10.3826 1.07537C10.1998 0.999619 9.99859 0.979814 9.8045 1.01846C9.61042 1.05712 9.43217 1.15248 9.29231 1.29249L6.29231 4.29249C6.19933 4.38537 6.12557 4.49566 6.07525 4.61705C6.02493 4.73845 5.99902 4.86858 5.99902 4.99999C5.99902 5.13141 6.02493 5.26154 6.07525 5.38293C6.12557 5.50433 6.19933 5.61462 6.29231 5.70749L9.29231 8.70749C9.38525 8.80033 9.49557 8.87394 9.61696 8.92413C9.73836 8.97432 9.86845 9.0001 9.99981 8.99999Z" fill="white"/>
<path d="M66.0615 28.0613L63.0615 31.0613C62.7797 31.343 62.3975 31.5014 61.999 31.5014C61.6004 31.5014 61.2182 31.343 60.9365 31.0613C60.6547 30.7795 60.4964 30.3973 60.4964 29.9988C60.4964 29.6002 60.6547 29.218 60.9365 28.9363L61.3752 28.5H50.0002C49.0719 28.5 48.1817 28.1313 47.5253 27.4749C46.869 26.8185 46.5002 25.9283 46.5002 25V13.5C46.5002 13.1022 46.6582 12.7206 46.9395 12.4393C47.2209 12.158 47.6024 12 48.0002 12C48.398 12 48.7796 12.158 49.0609 12.4393C49.3422 12.7206 49.5002 13.1022 49.5002 13.5V25C49.5002 25.1326 49.5529 25.2598 49.6467 25.3536C49.7404 25.4473 49.8676 25.5 50.0002 25.5H61.3752L60.9352 25.0613C60.6534 24.7795 60.4951 24.3973 60.4951 23.9988C60.4951 23.6002 60.6534 23.218 60.9352 22.9363C61.217 22.6545 61.5992 22.4962 61.9977 22.4962C62.3962 22.4962 62.7784 22.6545 63.0602 22.9363L66.0602 25.9363C66.2001 26.0755 66.3112 26.2411 66.387 26.4233C66.4628 26.6056 66.5019 26.8011 66.502 26.9985C66.5021 27.1959 66.4633 27.3914 66.3877 27.5738C66.3121 27.7562 66.2012 27.9218 66.0615 28.0613ZM50.0002 9.50001C50.297 9.50024 50.5873 9.41239 50.8342 9.24759C51.0811 9.08278 51.2735 8.84843 51.3871 8.57419C51.5008 8.29996 51.5305 7.99817 51.4725 7.70705C51.4145 7.41592 51.2715 7.14854 51.0615 6.93876L50.6252 6.50001H62.0002C62.1328 6.50001 62.26 6.55268 62.3538 6.64645C62.4475 6.74022 62.5002 6.8674 62.5002 7.00001V18.5C62.5002 18.8978 62.6582 19.2794 62.9395 19.5607C63.2209 19.842 63.6024 20 64.0002 20C64.398 20 64.7796 19.842 65.0609 19.5607C65.3422 19.2794 65.5002 18.8978 65.5002 18.5V7.00001C65.5002 6.07175 65.1315 5.18151 64.4751 4.52513C63.8187 3.86875 62.9285 3.50001 62.0002 3.50001H50.6252L51.0652 3.06001C51.347 2.77821 51.5053 2.39602 51.5053 1.99751C51.5053 1.59899 51.347 1.2168 51.0652 0.935005C50.9257 0.795476 50.76 0.684795 50.5777 0.609282C50.3954 0.53377 50.2 0.494904 50.0027 0.494904C49.6042 0.494904 49.222 0.653213 48.9402 0.935005L45.9402 3.93501C45.8004 4.07436 45.6894 4.23995 45.6137 4.42228C45.538 4.60461 45.499 4.80008 45.499 4.99751C45.499 5.19493 45.538 5.39041 45.6137 5.57273C45.6894 5.75506 45.8004 5.92065 45.9402 6.06001L48.9402 9.06001C49.2212 9.34139 49.6025 9.49966 50.0002 9.50001Z" fill="white"/>
</g>
<defs>
<clipPath id="clip0_27_2665">
<rect width="72" height="32" rx="5" fill="white"/>
</clipPath>
</defs>
</svg>
