<svg width="72" height="32" viewBox="0 0 72 32" fill="none" xmlns="http://www.w3.org/2000/svg">
<g clip-path="url(#clip0_27_2645)">
<path d="M22 2H10C9.20435 2 8.44129 2.31607 7.87868 2.87868C7.31607 3.44129 7 4.20435 7 5V27C7 27.7956 7.31607 28.5587 7.87868 29.1213C8.44129 29.6839 9.20435 30 10 30H22C22.7956 30 23.5587 29.6839 24.1213 29.1213C24.6839 28.5587 25 27.7956 25 27V5C25 4.20435 24.6839 3.44129 24.1213 2.87868C23.5587 2.31607 22.7956 2 22 2ZM10 4H22C22.2652 4 22.5196 4.10536 22.7071 4.29289C22.8946 4.48043 23 4.73478 23 5V6H9V5C9 4.73478 9.10536 4.48043 9.29289 4.29289C9.48043 4.10536 9.73478 4 10 4ZM22 28H10C9.73478 28 9.48043 27.8946 9.29289 27.7071C9.10536 27.5196 9 27.2652 9 27V26H23V27C23 27.2652 22.8946 27.5196 22.7071 27.7071C22.5196 27.8946 22.2652 28 22 28Z" fill="white"/>
<path d="M62 1.5H50C49.0717 1.5 48.1815 1.86875 47.5251 2.52513C46.8687 3.1815 46.5 4.07174 46.5 5V27C46.5 27.9283 46.8687 28.8185 47.5251 29.4749C48.1815 30.1313 49.0717 30.5 50 30.5H62C62.9283 30.5 63.8185 30.1313 64.4749 29.4749C65.1313 28.8185 65.5 27.9283 65.5 27V5C65.5 4.07174 65.1313 3.1815 64.4749 2.52513C63.8185 1.86875 62.9283 1.5 62 1.5ZM49.5 9.5H62.5V22.5H49.5V9.5ZM50 4.5H62C62.1326 4.5 62.2598 4.55268 62.3536 4.64645C62.4473 4.74021 62.5 4.86739 62.5 5V6.5H49.5V5C49.5 4.86739 49.5527 4.74021 49.6464 4.64645C49.7402 4.55268 49.8674 4.5 50 4.5ZM62 27.5H50C49.8674 27.5 49.7402 27.4473 49.6464 27.3536C49.5527 27.2598 49.5 27.1326 49.5 27V25.5H62.5V27C62.5 27.1326 62.4473 27.2598 62.3536 27.3536C62.2598 27.4473 62.1326 27.5 62 27.5Z" fill="white"/>
</g>
<defs>
<clipPath id="clip0_27_2645">
<rect width="72" height="32" rx="5" fill="white"/>
</clipPath>
</defs>
</svg>
