<svg width="72" height="32" viewBox="0 0 72 32" fill="none" xmlns="http://www.w3.org/2000/svg">
<g clip-path="url(#clip0_27_2655)">
<path d="M26.6723 27.74C26.476 27.9183 26.2169 28.0114 25.952 27.9988C25.6871 27.9861 25.4381 27.8687 25.2598 27.6725L24.9773 27.3625C24.8887 28.0899 24.537 28.7598 23.9885 29.2457C23.4399 29.7315 22.7325 29.9999 21.9998 30H9.99976C9.20411 30 8.44105 29.6839 7.87844 29.1213C7.31583 28.5587 6.99976 27.7956 6.99976 27V7.58625L5.25976 5.6725C5.1696 5.57564 5.09955 5.46185 5.05369 5.33772C5.00782 5.2136 4.98705 5.0816 4.99257 4.94938C4.99809 4.81717 5.02981 4.68736 5.08587 4.56749C5.14193 4.44762 5.22122 4.34007 5.31915 4.25107C5.41708 4.16208 5.53171 4.0934 5.65637 4.04902C5.78104 4.00465 5.91328 3.98546 6.04542 3.99257C6.17756 3.99968 6.30697 4.03294 6.42616 4.09044C6.54535 4.14793 6.65194 4.22851 6.73976 4.3275L26.7398 26.3275C26.9181 26.5238 27.0112 26.7828 26.9985 27.0477C26.9859 27.3126 26.8685 27.5616 26.6723 27.74ZM23.2598 19.5263C23.3955 19.6756 23.5733 19.7804 23.7697 19.8268C23.9661 19.8733 24.172 19.8592 24.3603 19.7864C24.5485 19.7136 24.7104 19.5856 24.8245 19.4191C24.9386 19.2527 24.9997 19.0556 24.9998 18.8538V5C24.9998 4.20435 24.6837 3.44129 24.1211 2.87868C23.5585 2.31607 22.7954 2 21.9998 2H9.58726C9.39356 2.00002 9.20403 2.05629 9.04171 2.16199C8.87938 2.26768 8.75125 2.41825 8.67287 2.59538C8.5945 2.77252 8.56926 2.96861 8.60021 3.15982C8.63117 3.35104 8.717 3.52914 8.84726 3.6725L23.2598 19.5263Z" fill="white"/>
<path d="M67.1099 25.9912L47.1099 3.99125C46.9782 3.84276 46.8183 3.7219 46.6395 3.63566C46.4607 3.54942 46.2666 3.49952 46.0684 3.48886C45.8702 3.47819 45.6718 3.50698 45.4848 3.57354C45.2978 3.6401 45.1259 3.74311 44.979 3.87661C44.8321 4.01011 44.7131 4.17144 44.629 4.35124C44.545 4.53104 44.4974 4.72575 44.4891 4.92407C44.4808 5.1224 44.512 5.32039 44.5808 5.50659C44.6496 5.69278 44.7546 5.86346 44.8899 6.00875L46.4999 7.78V27C46.4999 27.9283 46.8686 28.8185 47.525 29.4749C48.1814 30.1313 49.0716 30.5 49.9999 30.5H61.9999C62.6996 30.5 63.3832 30.2902 63.9625 29.8979C64.5418 29.5055 64.9903 28.9485 65.2499 28.2987C65.5597 28.4773 65.923 28.5394 66.2745 28.4737C66.626 28.408 66.9425 28.219 67.1669 27.9406C67.3913 27.6622 67.5088 27.3128 67.4984 26.9554C67.4879 26.598 67.3502 26.2561 67.1099 25.9912ZM61.9999 27.5H49.9999C49.8673 27.5 49.7401 27.4473 49.6463 27.3536C49.5526 27.2598 49.4999 27.1326 49.4999 27V11.08L62.4999 25.375V27C62.4999 27.1326 62.4472 27.2598 62.3534 27.3536C62.2597 27.4473 62.1325 27.5 61.9999 27.5ZM49.4386 3C49.4386 2.60218 49.5967 2.22064 49.878 1.93934C50.1593 1.65804 50.5408 1.5 50.9386 1.5H61.9999C62.9281 1.5 63.8184 1.86875 64.4748 2.52513C65.1311 3.1815 65.4999 4.07174 65.4999 5V17.3675C65.4999 17.7653 65.3419 18.1469 65.0605 18.4282C64.7792 18.7095 64.3977 18.8675 63.9999 18.8675C63.6021 18.8675 63.2205 18.7095 62.9392 18.4282C62.6579 18.1469 62.4999 17.7653 62.4999 17.3675V5C62.4999 4.86739 62.4472 4.74021 62.3534 4.64645C62.2597 4.55268 62.1325 4.5 61.9999 4.5H50.9386C50.5408 4.5 50.1593 4.34196 49.878 4.06066C49.5967 3.77936 49.4386 3.39782 49.4386 3Z" fill="white"/>
</g>
<defs>
<clipPath id="clip0_27_2655">
<rect width="72" height="32" rx="5" fill="white"/>
</clipPath>
</defs>
</svg>
