<svg width="72" height="32" viewBox="0 0 72 32" fill="none" xmlns="http://www.w3.org/2000/svg">
<g clip-path="url(#clip0_27_2670)">
<path d="M24 3H8C7.20435 3 6.44129 3.31607 5.87868 3.87868C5.31607 4.44129 5 5.20435 5 6V26C5 26.7956 5.31607 27.5587 5.87868 28.1213C6.44129 28.6839 7.20435 29 8 29H24C24.7956 29 25.5587 28.6839 26.1213 28.1213C26.6839 27.5587 27 26.7956 27 26V6C27 5.20435 26.6839 4.44129 26.1213 3.87868C25.5587 3.31607 24.7956 3 24 3ZM8 5H24C24.2652 5 24.5196 5.10536 24.7071 5.29289C24.8946 5.48043 25 5.73478 25 6V7H7V6C7 5.73478 7.10536 5.48043 7.29289 5.29289C7.48043 5.10536 7.73478 5 8 5ZM24 27H8C7.73478 27 7.48043 26.8946 7.29289 26.7071C7.10536 26.5196 7 26.2652 7 26V25H25V26C25 26.2652 24.8946 26.5196 24.7071 26.7071C24.5196 26.8946 24.2652 27 24 27Z" fill="white"/>
<path d="M64 2.5H48C47.0717 2.5 46.1815 2.86875 45.5251 3.52513C44.8687 4.1815 44.5 5.07174 44.5 6V26C44.5 26.4596 44.5905 26.9148 44.7664 27.3394C44.9423 27.764 45.2001 28.1499 45.5251 28.4749C45.8501 28.7999 46.236 29.0577 46.6606 29.2336C47.0852 29.4095 47.5404 29.5 48 29.5H64C64.4596 29.5 64.9148 29.4095 65.3394 29.2336C65.764 29.0577 66.1499 28.7999 66.4749 28.4749C66.7999 28.1499 67.0577 27.764 67.2336 27.3394C67.4095 26.9148 67.5 26.4596 67.5 26V6C67.5 5.07174 67.1313 4.1815 66.4749 3.52513C65.8185 2.86875 64.9283 2.5 64 2.5ZM47.5 10.5H64.5V21.5H47.5V10.5ZM48 5.5H64C64.1326 5.5 64.2598 5.55268 64.3536 5.64645C64.4473 5.74021 64.5 5.86739 64.5 6V7.5H47.5V6C47.5 5.86739 47.5527 5.74021 47.6464 5.64645C47.7402 5.55268 47.8674 5.5 48 5.5ZM64 26.5H48C47.8674 26.5 47.7402 26.4473 47.6464 26.3536C47.5527 26.2598 47.5 26.1326 47.5 26V24.5H64.5V26C64.5 26.1326 64.4473 26.2598 64.3536 26.3536C64.2598 26.4473 64.1326 26.5 64 26.5Z" fill="white"/>
</g>
<defs>
<clipPath id="clip0_27_2670">
<rect width="72" height="32" rx="5" fill="white"/>
</clipPath>
</defs>
</svg>
