<svg width="72" height="32" viewBox="0 0 72 32" fill="none" xmlns="http://www.w3.org/2000/svg">
<g clip-path="url(#clip0_27_84)">
<path d="M10 15V17C10 17.5304 9.78929 18.0391 9.41421 18.4142C9.03914 18.7893 8.53043 19 8 19V13C8.53043 13 9.03914 13.2107 9.41421 13.5858C9.78929 13.9609 10 14.4696 10 15ZM31 9V23C31 23.5304 30.7893 24.0391 30.4142 24.4142C30.0391 24.7893 29.5304 25 29 25H3C2.46957 25 1.96086 24.7893 1.58579 24.4142C1.21071 24.0391 1 23.5304 1 23V9C1 8.46957 1.21071 7.96086 1.58579 7.58579C1.96086 7.21071 2.46957 7 3 7H29C29.5304 7 30.0391 7.21071 30.4142 7.58579C30.7893 7.96086 31 8.46957 31 9ZM12 15C12 13.9391 11.5786 12.9217 10.8284 12.1716C10.0783 11.4214 9.06087 11 8 11H7C6.73478 11 6.48043 11.1054 6.29289 11.2929C6.10536 11.4804 6 11.7348 6 12V20C6 20.2652 6.10536 20.5196 6.29289 20.7071C6.48043 20.8946 6.73478 21 7 21H8C9.06087 21 10.0783 20.5786 10.8284 19.8284C11.5786 19.0783 12 18.0609 12 17V15ZM16 15V13H18C18.2652 13 18.5196 12.8946 18.7071 12.7071C18.8946 12.5196 19 12.2652 19 12C19 11.7348 18.8946 11.4804 18.7071 11.2929C18.5196 11.1054 18.2652 11 18 11H15C14.7348 11 14.4804 11.1054 14.2929 11.2929C14.1054 11.4804 14 11.7348 14 12V20C14 20.2652 14.1054 20.5196 14.2929 20.7071C14.4804 20.8946 14.7348 21 15 21H18C18.2652 21 18.5196 20.8946 18.7071 20.7071C18.8946 20.5196 19 20.2652 19 20C19 19.7348 18.8946 19.4804 18.7071 19.2929C18.5196 19.1054 18.2652 19 18 19H16V17H17C17.2652 17 17.5196 16.8946 17.7071 16.7071C17.8946 16.5196 18 16.2652 18 16C18 15.7348 17.8946 15.4804 17.7071 15.2929C17.5196 15.1054 17.2652 15 17 15H16ZM26.2712 11.0375C26.016 10.9656 25.7426 10.998 25.5112 11.1276C25.2798 11.2572 25.1094 11.4735 25.0375 11.7288L23.75 16.3062L22.4625 11.7288C22.3897 11.4745 22.2191 11.2594 21.9881 11.1306C21.7571 11.0018 21.4845 10.9697 21.2299 11.0415C20.9753 11.1132 20.7595 11.2829 20.6297 11.5134C20.5 11.7439 20.4668 12.0164 20.5375 12.2712L22.7875 20.2712C22.8466 20.481 22.9726 20.6657 23.1464 20.7972C23.3201 20.9288 23.5321 21 23.75 21C23.9679 21 24.1799 20.9288 24.3536 20.7972C24.5274 20.6657 24.6534 20.481 24.7125 20.2712L26.9625 12.2712C27.0344 12.016 27.002 11.7426 26.8724 11.5112C26.7428 11.2798 26.5265 11.1094 26.2712 11.0375Z" fill="white"/>
<path d="M69 6.5H43C42.6717 6.5 42.3466 6.56466 42.0433 6.6903C41.74 6.81594 41.4644 7.00009 41.2322 7.23223C40.7634 7.70107 40.5 8.33696 40.5 9V23C40.5 23.663 40.7634 24.2989 41.2322 24.7678C41.4644 24.9999 41.74 25.1841 42.0433 25.3097C42.3466 25.4353 42.6717 25.5 43 25.5H69C69.663 25.5 70.2989 25.2366 70.7678 24.7678C71.2366 24.2989 71.5 23.663 71.5 23V9C71.5 8.33696 71.2366 7.70107 70.7678 7.23223C70.2989 6.76339 69.663 6.5 69 6.5ZM68.5 22.5H43.5V9.5H68.5V22.5ZM53.5 19.5V12.5C53.5 12.1022 53.658 11.7206 53.9393 11.4393C54.2206 11.158 54.6022 11 55 11H57.5C57.8978 11 58.2794 11.158 58.5607 11.4393C58.842 11.7206 59 12.1022 59 12.5C59 12.8978 58.842 13.2794 58.5607 13.5607C58.2794 13.842 57.8978 14 57.5 14H56.5V14.5C56.8978 14.5 57.2794 14.658 57.5607 14.9393C57.842 15.2206 58 15.6022 58 16C58 16.3978 57.842 16.7794 57.5607 17.0607C57.2794 17.342 56.8978 17.5 56.5 17.5V18H57.5C57.8978 18 58.2794 18.158 58.5607 18.4393C58.842 18.7206 59 19.1022 59 19.5C59 19.8978 58.842 20.2794 58.5607 20.5607C58.2794 20.842 57.8978 21 57.5 21H55C54.6022 21 54.2206 20.842 53.9393 20.5607C53.658 20.2794 53.5 19.8978 53.5 19.5ZM60.0575 12.9125C60.0033 12.7231 59.987 12.5248 60.0094 12.3291C60.0319 12.1333 60.0927 11.9439 60.1883 11.7717C60.284 11.5994 60.4126 11.4477 60.5669 11.3252C60.7212 11.2026 60.8981 11.1117 61.0875 11.0575C61.2769 11.0033 61.4752 10.987 61.6709 11.0094C61.8667 11.0319 62.0561 11.0927 62.2283 11.1883C62.4006 11.284 62.5523 11.4126 62.6748 11.5669C62.7974 11.7212 62.8883 11.8981 62.9425 12.0875L63.5 14.04L64.0575 12.0875C64.1669 11.7049 64.4238 11.3815 64.7717 11.1883C65.1196 10.9952 65.5299 10.9481 65.9125 11.0575C66.2951 11.1669 66.6185 11.4238 66.8117 11.7717C67.0048 12.1196 67.0519 12.5299 66.9425 12.9125L64.9425 19.9125C64.8531 20.2261 64.6639 20.502 64.4036 20.6985C64.1433 20.8949 63.8261 21.0012 63.5 21.0012C63.1739 21.0012 62.8567 20.8949 62.5964 20.6985C62.3361 20.502 62.1469 20.2261 62.0575 19.9125L60.0575 12.9125ZM46.5 21H48C49.1935 21 50.3381 20.5259 51.182 19.682C52.0259 18.8381 52.5 17.6935 52.5 16.5V15.5C52.5 14.3065 52.0259 13.1619 51.182 12.318C50.3381 11.4741 49.1935 11 48 11H46.5C46.1022 11 45.7206 11.158 45.4393 11.4393C45.158 11.7206 45 12.1022 45 12.5V19.5C45 19.8978 45.158 20.2794 45.4393 20.5607C45.7206 20.842 46.1022 21 46.5 21ZM48 14C48.3978 14 48.7794 14.158 49.0607 14.4393C49.342 14.7206 49.5 15.1022 49.5 15.5V16.5C49.5 16.8978 49.342 17.2794 49.0607 17.5607C48.7794 17.842 48.3978 18 48 18V14Z" fill="white"/>
</g>
<defs>
<clipPath id="clip0_27_84">
<rect width="72" height="32" rx="5" fill="white"/>
</clipPath>
</defs>
</svg>
