<svg width="72" height="32" viewBox="0 0 72 32" fill="none" xmlns="http://www.w3.org/2000/svg">
<g clip-path="url(#clip0_27_4645)">
<path d="M30.0004 16C30.0011 16.2619 29.9499 16.5214 29.8497 16.7635C29.7495 17.0055 29.6023 17.2252 29.4166 17.41L17.4104 29.4175C17.0356 29.79 16.5287 29.9991 16.0004 29.9991C15.472 29.9991 14.9651 29.79 14.5904 29.4175L2.59037 17.41C2.21787 17.0353 2.00879 16.5284 2.00879 16C2.00879 15.4716 2.21787 14.9647 2.59037 14.59L14.5966 2.5825C14.9713 2.21 15.4783 2.00092 16.0066 2.00092C16.535 2.00092 17.0419 2.21 17.4166 2.5825L29.4229 14.59C29.6074 14.7753 29.7535 14.9953 29.8526 15.2373C29.9517 15.4793 30.0019 15.7385 30.0004 16Z" fill="white"/>
<path d="M69.7698 14.2362L57.7623 2.22875C57.2938 1.76274 56.6599 1.50114 55.9992 1.50114C55.3384 1.50114 54.7045 1.76274 54.236 2.22875L42.236 14.2362C41.7696 14.7048 41.5078 15.3389 41.5078 16C41.5078 16.6611 41.7696 17.2952 42.236 17.7637L54.2423 29.7712C54.7107 30.2373 55.3446 30.4989 56.0054 30.4989C56.6662 30.4989 57.3001 30.2373 57.7685 29.7712L69.7685 17.7637C70.2349 17.2952 70.4968 16.6611 70.4968 16C70.4968 15.3389 70.2349 14.7048 69.7685 14.2362H69.7698ZM55.9998 27.2912L44.7098 16L55.9998 4.70875L67.2898 16L55.9998 27.2912Z" fill="white"/>
</g>
<defs>
<clipPath id="clip0_27_4645">
<rect width="72" height="32" rx="5" fill="white"/>
</clipPath>
</defs>
</svg>
