<svg width="72" height="32" viewBox="0 0 72 32" fill="none" xmlns="http://www.w3.org/2000/svg">
<g clip-path="url(#clip0_27_5212)">
<path d="M10.2933 8.70749C10.2003 8.61462 10.1266 8.50433 10.0762 8.38293C10.0259 8.26154 10 8.13141 10 7.99999C10 7.86858 10.0259 7.73845 10.0762 7.61705C10.1266 7.49566 10.2003 7.38537 10.2933 7.29249L15.2933 2.29249C15.3862 2.19952 15.4964 2.12576 15.6178 2.07543C15.7392 2.02511 15.8694 1.99921 16.0008 1.99921C16.1322 1.99921 16.2623 2.02511 16.3837 2.07543C16.5051 2.12576 16.6154 2.19952 16.7083 2.29249L21.7083 7.29249C21.8013 7.38537 21.875 7.49566 21.9253 7.61705C21.9757 7.73845 22.0016 7.86858 22.0016 7.99999C22.0016 8.13141 21.9757 8.26154 21.9253 8.38293C21.875 8.50433 21.8013 8.61462 21.7083 8.70749L16.7083 13.7075C16.6154 13.8005 16.5051 13.8742 16.3837 13.9246C16.2623 13.9749 16.1322 14.0008 16.0008 14.0008C15.8694 14.0008 15.7392 13.9749 15.6178 13.9246C15.4964 13.8742 15.3862 13.8005 15.2933 13.7075L10.2933 8.70749ZM16.7083 18.2925C16.6154 18.1995 16.5051 18.1258 16.3837 18.0754C16.2623 18.0251 16.1322 17.9992 16.0008 17.9992C15.8694 17.9992 15.7392 18.0251 15.6178 18.0754C15.4964 18.1258 15.3862 18.1995 15.2933 18.2925L10.2933 23.2925C10.2003 23.3854 10.1266 23.4957 10.0762 23.6171C10.0259 23.7385 10 23.8686 10 24C10 24.1314 10.0259 24.2615 10.0762 24.3829C10.1266 24.5043 10.2003 24.6146 10.2933 24.7075L15.2933 29.7075C15.3862 29.8005 15.4964 29.8742 15.6178 29.9246C15.7392 29.9749 15.8694 30.0008 16.0008 30.0008C16.1322 30.0008 16.2623 29.9749 16.3837 29.9246C16.5051 29.8742 16.6154 29.8005 16.7083 29.7075L21.7083 24.7075C21.8013 24.6146 21.875 24.5043 21.9253 24.3829C21.9757 24.2615 22.0016 24.1314 22.0016 24C22.0016 23.8686 21.9757 23.7385 21.9253 23.6171C21.875 23.4957 21.8013 23.3854 21.7083 23.2925L16.7083 18.2925ZM29.7083 15.2925L24.7083 10.2925C24.6154 10.1995 24.5051 10.1258 24.3837 10.0754C24.2623 10.0251 24.1322 9.99921 24.0008 9.99921C23.8694 9.99921 23.7392 10.0251 23.6178 10.0754C23.4964 10.1258 23.3862 10.1995 23.2933 10.2925L18.2933 15.2925C18.2003 15.3854 18.1265 15.4957 18.0762 15.6171C18.0259 15.7385 18 15.8686 18 16C18 16.1314 18.0259 16.2615 18.0762 16.3829C18.1265 16.5043 18.2003 16.6146 18.2933 16.7075L23.2933 21.7075C23.3862 21.8005 23.4964 21.8742 23.6178 21.9246C23.7392 21.9749 23.8694 22.0008 24.0008 22.0008C24.1322 22.0008 24.2623 21.9749 24.3837 21.9246C24.5051 21.8742 24.6154 21.8005 24.7083 21.7075L29.7083 16.7075C29.8013 16.6146 29.875 16.5043 29.9253 16.3829C29.9757 16.2615 30.0016 16.1314 30.0016 16C30.0016 15.8686 29.9757 15.7385 29.9253 15.6171C29.875 15.4957 29.8013 15.3854 29.7083 15.2925ZM13.7083 15.2925L8.70829 10.2925C8.61541 10.1995 8.50513 10.1258 8.38373 10.0754C8.26233 10.0251 8.1322 9.99921 8.00079 9.99921C7.86937 9.99921 7.73924 10.0251 7.61785 10.0754C7.49645 10.1258 7.38616 10.1995 7.29329 10.2925L2.29329 15.2925C2.20031 15.3854 2.12655 15.4957 2.07623 15.6171C2.0259 15.7385 2 15.8686 2 16C2 16.1314 2.0259 16.2615 2.07623 16.3829C2.12655 16.5043 2.20031 16.6146 2.29329 16.7075L7.29329 21.7075C7.38616 21.8005 7.49645 21.8742 7.61785 21.9246C7.73924 21.9749 7.86937 22.0008 8.00079 22.0008C8.1322 22.0008 8.26233 21.9749 8.38373 21.9246C8.50513 21.8742 8.61541 21.8005 8.70829 21.7075L13.7083 16.7075C13.8013 16.6146 13.875 16.5043 13.9253 16.3829C13.9757 16.2615 14.0016 16.1314 14.0016 16C14.0016 15.8686 13.9757 15.7385 13.9253 15.6171C13.875 15.4957 13.8013 15.3854 13.7083 15.2925Z" fill="white"/>
<path d="M54.9378 13.5612C55.0772 13.7011 55.2428 13.812 55.4251 13.8877C55.6074 13.9635 55.8029 14.0024 56.0003 14.0024C56.1977 14.0024 56.3932 13.9635 56.5756 13.8877C56.7579 13.812 56.9235 13.7011 57.0628 13.5612L61.8128 8.81124C61.9527 8.67188 62.0636 8.50629 62.1393 8.32397C62.215 8.14164 62.254 7.94616 62.254 7.74874C62.254 7.55132 62.215 7.35584 62.1393 7.17351C62.0636 6.99118 61.9527 6.82559 61.8128 6.68624L57.0628 1.93624C56.9235 1.7964 56.7579 1.68544 56.5756 1.60974C56.3932 1.53403 56.1977 1.49506 56.0003 1.49506C55.8029 1.49506 55.6074 1.53403 55.4251 1.60974C55.2428 1.68544 55.0772 1.7964 54.9378 1.93624L50.1878 6.68624C50.048 6.82559 49.937 6.99118 49.8613 7.17351C49.7856 7.35584 49.7466 7.55132 49.7466 7.74874C49.7466 7.94616 49.7856 8.14164 49.8613 8.32397C49.937 8.50629 50.048 8.67188 50.1878 8.81124L54.9378 13.5612ZM55.9991 5.12499L58.6241 7.74999L55.9991 10.375L53.3741 7.74999L55.9991 5.12499ZM57.0603 18.4425C56.921 18.3026 56.7554 18.1917 56.5731 18.116C56.3907 18.0403 56.1952 18.0013 55.9978 18.0013C55.8004 18.0013 55.6049 18.0403 55.4226 18.116C55.2403 18.1917 55.0747 18.3026 54.9353 18.4425L50.1853 23.1925C50.0455 23.3318 49.9345 23.4974 49.8588 23.6798C49.7831 23.8621 49.7441 24.0576 49.7441 24.255C49.7441 24.4524 49.7831 24.6479 49.8588 24.8302C49.9345 25.0125 50.0455 25.1781 50.1853 25.3175L54.9353 30.0675C55.0747 30.2073 55.2403 30.3183 55.4226 30.394C55.6049 30.4697 55.8004 30.5087 55.9978 30.5087C56.1952 30.5087 56.3907 30.4697 56.5731 30.394C56.7554 30.3183 56.921 30.2073 57.0603 30.0675L61.8103 25.3175C61.9502 25.1781 62.0611 25.0125 62.1368 24.8302C62.2125 24.6479 62.2515 24.4524 62.2515 24.255C62.2515 24.0576 62.2125 23.8621 62.1368 23.6798C62.0611 23.4974 61.9502 23.3318 61.8103 23.1925L57.0603 18.4425ZM55.9991 26.875L53.3741 24.25L55.9991 21.625L58.6241 24.25L55.9991 26.875ZM53.5603 14.935L48.8103 10.185C48.671 10.0451 48.5054 9.93419 48.3231 9.85849C48.1407 9.78278 47.9452 9.74381 47.7478 9.74381C47.5504 9.74381 47.3549 9.78278 47.1726 9.85849C46.9903 9.93419 46.8247 10.0451 46.6853 10.185L41.9353 14.935C41.7955 15.0743 41.6845 15.2399 41.6088 15.4223C41.5331 15.6046 41.4941 15.8001 41.4941 15.9975C41.4941 16.1949 41.5331 16.3904 41.6088 16.5727C41.6845 16.755 41.7955 16.9206 41.9353 17.06L46.6853 21.81C46.8247 21.9498 46.9903 22.0608 47.1726 22.1365C47.3549 22.2122 47.5504 22.2512 47.7478 22.2512C47.9452 22.2512 48.1407 22.2122 48.3231 22.1365C48.5054 22.0608 48.671 21.9498 48.8103 21.81L53.5603 17.06C53.8416 16.7787 53.9996 16.3972 53.9996 15.9994C53.9996 15.6016 53.8416 15.22 53.5603 14.9387V14.935ZM47.7491 18.625L45.1241 16L47.7491 13.375L50.3741 16L47.7491 18.625ZM70.0603 14.935L65.3103 10.185C65.171 10.0451 65.0054 9.93419 64.8231 9.85849C64.6407 9.78278 64.4452 9.74381 64.2478 9.74381C64.0504 9.74381 63.8549 9.78278 63.6726 9.85849C63.4903 9.93419 63.3247 10.0451 63.1853 10.185L58.4353 14.935C58.2955 15.0743 58.1845 15.2399 58.1088 15.4223C58.0331 15.6046 57.9941 15.8001 57.9941 15.9975C57.9941 16.1949 58.0331 16.3904 58.1088 16.5727C58.1845 16.755 58.2955 16.9206 58.4353 17.06L63.1853 21.81C63.3247 21.9498 63.4903 22.0608 63.6726 22.1365C63.8549 22.2122 64.0504 22.2512 64.2478 22.2512C64.4452 22.2512 64.6407 22.2122 64.8231 22.1365C65.0054 22.0608 65.171 21.9498 65.3103 21.81L70.0603 17.06C70.3416 16.7787 70.4996 16.3972 70.4996 15.9994C70.4996 15.6016 70.3416 15.22 70.0603 14.9387V14.935ZM64.2491 18.625L61.6241 16L64.2491 13.375L66.8741 16L64.2491 18.625Z" fill="white"/>
</g>
<defs>
<clipPath id="clip0_27_5212">
<rect width="72" height="32" rx="5" fill="white"/>
</clipPath>
</defs>
</svg>
