<svg width="72" height="32" viewBox="0 0 72 32" fill="none" xmlns="http://www.w3.org/2000/svg">
<g clip-path="url(#clip0_27_4665)">
<path d="M24 4H8C6.93913 4 5.92172 4.42143 5.17157 5.17157C4.42143 5.92172 4 6.93913 4 8V24C4 25.0609 4.42143 26.0783 5.17157 26.8284C5.92172 27.5786 6.93913 28 8 28H24C25.0609 28 26.0783 27.5786 26.8284 26.8284C27.5786 26.0783 28 25.0609 28 24V8C28 6.93913 27.5786 5.92172 26.8284 5.17157C26.0783 4.42143 25.0609 4 24 4ZM11.5 23C11.2033 23 10.9133 22.912 10.6666 22.7472C10.42 22.5824 10.2277 22.3481 10.1142 22.074C10.0006 21.7999 9.97094 21.4983 10.0288 21.2074C10.0867 20.9164 10.2296 20.6491 10.4393 20.4393C10.6491 20.2296 10.9164 20.0867 11.2074 20.0288C11.4983 19.9709 11.7999 20.0007 12.074 20.1142C12.3481 20.2277 12.5824 20.42 12.7472 20.6666C12.912 20.9133 13 21.2033 13 21.5C13 21.8978 12.842 22.2794 12.5607 22.5607C12.2794 22.842 11.8978 23 11.5 23ZM11.5 17.5C11.2033 17.5 10.9133 17.412 10.6666 17.2472C10.42 17.0824 10.2277 16.8481 10.1142 16.574C10.0006 16.2999 9.97094 15.9983 10.0288 15.7074C10.0867 15.4164 10.2296 15.1491 10.4393 14.9393C10.6491 14.7296 10.9164 14.5867 11.2074 14.5288C11.4983 14.4709 11.7999 14.5006 12.074 14.6142C12.3481 14.7277 12.5824 14.92 12.7472 15.1666C12.912 15.4133 13 15.7033 13 16C13 16.3978 12.842 16.7794 12.5607 17.0607C12.2794 17.342 11.8978 17.5 11.5 17.5ZM11.5 12C11.2033 12 10.9133 11.912 10.6666 11.7472C10.42 11.5824 10.2277 11.3481 10.1142 11.074C10.0006 10.7999 9.97094 10.4983 10.0288 10.2074C10.0867 9.91639 10.2296 9.64912 10.4393 9.43934C10.6491 9.22956 10.9164 9.0867 11.2074 9.02882C11.4983 8.97094 11.7999 9.00065 12.074 9.11418C12.3481 9.22771 12.5824 9.41997 12.7472 9.66665C12.912 9.91332 13 10.2033 13 10.5C13 10.8978 12.842 11.2794 12.5607 11.5607C12.2794 11.842 11.8978 12 11.5 12ZM20.5 23C20.2033 23 19.9133 22.912 19.6666 22.7472C19.42 22.5824 19.2277 22.3481 19.1142 22.074C19.0007 21.7999 18.9709 21.4983 19.0288 21.2074C19.0867 20.9164 19.2296 20.6491 19.4393 20.4393C19.6491 20.2296 19.9164 20.0867 20.2074 20.0288C20.4983 19.9709 20.7999 20.0007 21.074 20.1142C21.3481 20.2277 21.5824 20.42 21.7472 20.6666C21.912 20.9133 22 21.2033 22 21.5C22 21.8978 21.842 22.2794 21.5607 22.5607C21.2794 22.842 20.8978 23 20.5 23ZM20.5 17.5C20.2033 17.5 19.9133 17.412 19.6666 17.2472C19.42 17.0824 19.2277 16.8481 19.1142 16.574C19.0007 16.2999 18.9709 15.9983 19.0288 15.7074C19.0867 15.4164 19.2296 15.1491 19.4393 14.9393C19.6491 14.7296 19.9164 14.5867 20.2074 14.5288C20.4983 14.4709 20.7999 14.5006 21.074 14.6142C21.3481 14.7277 21.5824 14.92 21.7472 15.1666C21.912 15.4133 22 15.7033 22 16C22 16.3978 21.842 16.7794 21.5607 17.0607C21.2794 17.342 20.8978 17.5 20.5 17.5ZM20.5 12C20.2033 12 19.9133 11.912 19.6666 11.7472C19.42 11.5824 19.2277 11.3481 19.1142 11.074C19.0007 10.7999 18.9709 10.4983 19.0288 10.2074C19.0867 9.91639 19.2296 9.64912 19.4393 9.43934C19.6491 9.22956 19.9164 9.0867 20.2074 9.02882C20.4983 8.97094 20.7999 9.00065 21.074 9.11418C21.3481 9.22771 21.5824 9.41997 21.7472 9.66665C21.912 9.91332 22 10.2033 22 10.5C22 10.8978 21.842 11.2794 21.5607 11.5607C21.2794 11.842 20.8978 12 20.5 12Z" fill="white"/>
<path d="M64 3.5H48C46.8065 3.5 45.6619 3.97411 44.818 4.81802C43.9741 5.66193 43.5 6.80653 43.5 8V24C43.5 25.1935 43.9741 26.3381 44.818 27.182C45.6619 28.0259 46.8065 28.5 48 28.5H64C65.1935 28.5 66.3381 28.0259 67.182 27.182C68.0259 26.3381 68.5 25.1935 68.5 24V8C68.5 6.80653 68.0259 5.66193 67.182 4.81802C66.3381 3.97411 65.1935 3.5 64 3.5ZM65.5 24C65.5 24.3978 65.342 24.7794 65.0607 25.0607C64.7794 25.342 64.3978 25.5 64 25.5H48C47.6022 25.5 47.2206 25.342 46.9393 25.0607C46.658 24.7794 46.5 24.3978 46.5 24V8C46.5 7.60218 46.658 7.22064 46.9393 6.93934C47.2206 6.65804 47.6022 6.5 48 6.5H64C64.3978 6.5 64.7794 6.65804 65.0607 6.93934C65.342 7.22064 65.5 7.60218 65.5 8V24ZM54 10.5C54 10.8956 53.8827 11.2822 53.6629 11.6111C53.4432 11.94 53.1308 12.1964 52.7654 12.3478C52.3999 12.4991 51.9978 12.5387 51.6098 12.4616C51.2219 12.3844 50.8655 12.1939 50.5858 11.9142C50.3061 11.6345 50.1156 11.2781 50.0384 10.8902C49.9613 10.5022 50.0009 10.1001 50.1522 9.73463C50.3036 9.36918 50.56 9.05682 50.8889 8.83706C51.2178 8.6173 51.6044 8.5 52 8.5C52.5304 8.5 53.0391 8.71071 53.4142 9.08579C53.7893 9.46086 54 9.96957 54 10.5ZM62 10.5C62 10.8956 61.8827 11.2822 61.6629 11.6111C61.4432 11.94 61.1308 12.1964 60.7654 12.3478C60.3999 12.4991 59.9978 12.5387 59.6098 12.4616C59.2219 12.3844 58.8655 12.1939 58.5858 11.9142C58.3061 11.6345 58.1156 11.2781 58.0384 10.8902C57.9613 10.5022 58.0009 10.1001 58.1522 9.73463C58.3036 9.36918 58.56 9.05682 58.8889 8.83706C59.2178 8.6173 59.6044 8.5 60 8.5C60.5304 8.5 61.0391 8.71071 61.4142 9.08579C61.7893 9.46086 62 9.96957 62 10.5ZM54 16C54 16.3956 53.8827 16.7822 53.6629 17.1111C53.4432 17.44 53.1308 17.6964 52.7654 17.8478C52.3999 17.9991 51.9978 18.0387 51.6098 17.9616C51.2219 17.8844 50.8655 17.6939 50.5858 17.4142C50.3061 17.1345 50.1156 16.7781 50.0384 16.3902C49.9613 16.0022 50.0009 15.6001 50.1522 15.2346C50.3036 14.8692 50.56 14.5568 50.8889 14.3371C51.2178 14.1173 51.6044 14 52 14C52.5304 14 53.0391 14.2107 53.4142 14.5858C53.7893 14.9609 54 15.4696 54 16ZM62 16C62 16.3956 61.8827 16.7822 61.6629 17.1111C61.4432 17.44 61.1308 17.6964 60.7654 17.8478C60.3999 17.9991 59.9978 18.0387 59.6098 17.9616C59.2219 17.8844 58.8655 17.6939 58.5858 17.4142C58.3061 17.1345 58.1156 16.7781 58.0384 16.3902C57.9613 16.0022 58.0009 15.6001 58.1522 15.2346C58.3036 14.8692 58.56 14.5568 58.8889 14.3371C59.2178 14.1173 59.6044 14 60 14C60.5304 14 61.0391 14.2107 61.4142 14.5858C61.7893 14.9609 62 15.4696 62 16ZM54 21.5C54 21.8956 53.8827 22.2822 53.6629 22.6111C53.4432 22.94 53.1308 23.1964 52.7654 23.3478C52.3999 23.4991 51.9978 23.5387 51.6098 23.4616C51.2219 23.3844 50.8655 23.1939 50.5858 22.9142C50.3061 22.6345 50.1156 22.2781 50.0384 21.8902C49.9613 21.5022 50.0009 21.1001 50.1522 20.7346C50.3036 20.3692 50.56 20.0568 50.8889 19.8371C51.2178 19.6173 51.6044 19.5 52 19.5C52.5304 19.5 53.0391 19.7107 53.4142 20.0858C53.7893 20.4609 54 20.9696 54 21.5ZM62 21.5C62 21.8956 61.8827 22.2822 61.6629 22.6111C61.4432 22.94 61.1308 23.1964 60.7654 23.3478C60.3999 23.4991 59.9978 23.5387 59.6098 23.4616C59.2219 23.3844 58.8655 23.1939 58.5858 22.9142C58.3061 22.6345 58.1156 22.2781 58.0384 21.8902C57.9613 21.5022 58.0009 21.1001 58.1522 20.7346C58.3036 20.3692 58.56 20.0568 58.8889 19.8371C59.2178 19.6173 59.6044 19.5 60 19.5C60.5304 19.5 61.0391 19.7107 61.4142 20.0858C61.7893 20.4609 62 20.9696 62 21.5Z" fill="white"/>
</g>
<defs>
<clipPath id="clip0_27_4665">
<rect width="72" height="32" rx="5" fill="white"/>
</clipPath>
</defs>
</svg>
