<svg width="72" height="32" viewBox="0 0 72 32" fill="none" xmlns="http://www.w3.org/2000/svg">
<g clip-path="url(#clip0_27_4655)">
<path d="M24 4H8C6.93913 4 5.92172 4.42143 5.17157 5.17157C4.42143 5.92172 4 6.93913 4 8V24C4 25.0609 4.42143 26.0783 5.17157 26.8284C5.92172 27.5786 6.93913 28 8 28H24C25.0609 28 26.0783 27.5786 26.8284 26.8284C27.5786 26.0783 28 25.0609 28 24V8C28 6.93913 27.5786 5.92172 26.8284 5.17157C26.0783 4.42143 25.0609 4 24 4ZM12.5 21C12.2033 21 11.9133 20.912 11.6666 20.7472C11.42 20.5824 11.2277 20.3481 11.1142 20.074C11.0006 19.7999 10.9709 19.4983 11.0288 19.2074C11.0867 18.9164 11.2296 18.6491 11.4393 18.4393C11.6491 18.2296 11.9164 18.0867 12.2074 18.0288C12.4983 17.9709 12.7999 18.0007 13.074 18.1142C13.3481 18.2277 13.5824 18.42 13.7472 18.6666C13.912 18.9133 14 19.2033 14 19.5C14 19.8978 13.842 20.2794 13.5607 20.5607C13.2794 20.842 12.8978 21 12.5 21ZM12.5 14C12.2033 14 11.9133 13.912 11.6666 13.7472C11.42 13.5824 11.2277 13.3481 11.1142 13.074C11.0006 12.7999 10.9709 12.4983 11.0288 12.2074C11.0867 11.9164 11.2296 11.6491 11.4393 11.4393C11.6491 11.2296 11.9164 11.0867 12.2074 11.0288C12.4983 10.9709 12.7999 11.0006 13.074 11.1142C13.3481 11.2277 13.5824 11.42 13.7472 11.6666C13.912 11.9133 14 12.2033 14 12.5C14 12.8978 13.842 13.2794 13.5607 13.5607C13.2794 13.842 12.8978 14 12.5 14ZM19.5 21C19.2033 21 18.9133 20.912 18.6666 20.7472C18.42 20.5824 18.2277 20.3481 18.1142 20.074C18.0007 19.7999 17.9709 19.4983 18.0288 19.2074C18.0867 18.9164 18.2296 18.6491 18.4393 18.4393C18.6491 18.2296 18.9164 18.0867 19.2074 18.0288C19.4983 17.9709 19.7999 18.0007 20.074 18.1142C20.3481 18.2277 20.5824 18.42 20.7472 18.6666C20.912 18.9133 21 19.2033 21 19.5C21 19.8978 20.842 20.2794 20.5607 20.5607C20.2794 20.842 19.8978 21 19.5 21ZM19.5 14C19.2033 14 18.9133 13.912 18.6666 13.7472C18.42 13.5824 18.2277 13.3481 18.1142 13.074C18.0007 12.7999 17.9709 12.4983 18.0288 12.2074C18.0867 11.9164 18.2296 11.6491 18.4393 11.4393C18.6491 11.2296 18.9164 11.0867 19.2074 11.0288C19.4983 10.9709 19.7999 11.0006 20.074 11.1142C20.3481 11.2277 20.5824 11.42 20.7472 11.6666C20.912 11.9133 21 12.2033 21 12.5C21 12.8978 20.842 13.2794 20.5607 13.5607C20.2794 13.842 19.8978 14 19.5 14Z" fill="white"/>
<path d="M64 3.5H48C46.8065 3.5 45.6619 3.97411 44.818 4.81802C43.9741 5.66193 43.5 6.80653 43.5 8V24C43.5 25.1935 43.9741 26.3381 44.818 27.182C45.6619 28.0259 46.8065 28.5 48 28.5H64C65.1935 28.5 66.3381 28.0259 67.182 27.182C68.0259 26.3381 68.5 25.1935 68.5 24V8C68.5 6.80653 68.0259 5.66193 67.182 4.81802C66.3381 3.97411 65.1935 3.5 64 3.5ZM65.5 24C65.5 24.3978 65.342 24.7794 65.0607 25.0607C64.7794 25.342 64.3978 25.5 64 25.5H48C47.6022 25.5 47.2206 25.342 46.9393 25.0607C46.658 24.7794 46.5 24.3978 46.5 24V8C46.5 7.60218 46.658 7.22064 46.9393 6.93934C47.2206 6.65804 47.6022 6.5 48 6.5H64C64.3978 6.5 64.7794 6.65804 65.0607 6.93934C65.342 7.22064 65.5 7.60218 65.5 8V24ZM54 12C54 12.3956 53.8827 12.7822 53.6629 13.1111C53.4432 13.44 53.1308 13.6964 52.7654 13.8478C52.3999 13.9991 51.9978 14.0387 51.6098 13.9616C51.2219 13.8844 50.8655 13.6939 50.5858 13.4142C50.3061 13.1345 50.1156 12.7781 50.0384 12.3902C49.9613 12.0022 50.0009 11.6001 50.1522 11.2346C50.3036 10.8692 50.56 10.5568 50.8889 10.3371C51.2178 10.1173 51.6044 10 52 10C52.5304 10 53.0391 10.2107 53.4142 10.5858C53.7893 10.9609 54 11.4696 54 12ZM62 12C62 12.3956 61.8827 12.7822 61.6629 13.1111C61.4432 13.44 61.1308 13.6964 60.7654 13.8478C60.3999 13.9991 59.9978 14.0387 59.6098 13.9616C59.2219 13.8844 58.8655 13.6939 58.5858 13.4142C58.3061 13.1345 58.1156 12.7781 58.0384 12.3902C57.9613 12.0022 58.0009 11.6001 58.1522 11.2346C58.3036 10.8692 58.56 10.5568 58.8889 10.3371C59.2178 10.1173 59.6044 10 60 10C60.5304 10 61.0391 10.2107 61.4142 10.5858C61.7893 10.9609 62 11.4696 62 12ZM54 20C54 20.3956 53.8827 20.7822 53.6629 21.1111C53.4432 21.44 53.1308 21.6964 52.7654 21.8478C52.3999 21.9991 51.9978 22.0387 51.6098 21.9616C51.2219 21.8844 50.8655 21.6939 50.5858 21.4142C50.3061 21.1345 50.1156 20.7781 50.0384 20.3902C49.9613 20.0022 50.0009 19.6001 50.1522 19.2346C50.3036 18.8692 50.56 18.5568 50.8889 18.3371C51.2178 18.1173 51.6044 18 52 18C52.5304 18 53.0391 18.2107 53.4142 18.5858C53.7893 18.9609 54 19.4696 54 20ZM62 20C62 20.3956 61.8827 20.7822 61.6629 21.1111C61.4432 21.44 61.1308 21.6964 60.7654 21.8478C60.3999 21.9991 59.9978 22.0387 59.6098 21.9616C59.2219 21.8844 58.8655 21.6939 58.5858 21.4142C58.3061 21.1345 58.1156 20.7781 58.0384 20.3902C57.9613 20.0022 58.0009 19.6001 58.1522 19.2346C58.3036 18.8692 58.56 18.5568 58.8889 18.3371C59.2178 18.1173 59.6044 18 60 18C60.5304 18 61.0391 18.2107 61.4142 18.5858C61.7893 18.9609 62 19.4696 62 20Z" fill="white"/>
</g>
<defs>
<clipPath id="clip0_27_4655">
<rect width="72" height="32" rx="5" fill="white"/>
</clipPath>
</defs>
</svg>
