<svg width="72" height="32" viewBox="0 0 72 32" fill="none" xmlns="http://www.w3.org/2000/svg">
<g clip-path="url(#clip0_27_4675)">
<path d="M24 4H8C6.93913 4 5.92172 4.42143 5.17157 5.17157C4.42143 5.92172 4 6.93913 4 8V24C4 25.0609 4.42143 26.0783 5.17157 26.8284C5.92172 27.5786 6.93913 28 8 28H24C25.0609 28 26.0783 27.5786 26.8284 26.8284C27.5786 26.0783 28 25.0609 28 24V8C28 6.93913 27.5786 5.92172 26.8284 5.17157C26.0783 4.42143 25.0609 4 24 4ZM13.5 15C13.2033 15 12.9133 14.912 12.6666 14.7472C12.42 14.5824 12.2277 14.3481 12.1142 14.074C12.0006 13.7999 11.9709 13.4983 12.0288 13.2074C12.0867 12.9164 12.2296 12.6491 12.4393 12.4393C12.6491 12.2296 12.9164 12.0867 13.2074 12.0288C13.4983 11.9709 13.7999 12.0006 14.074 12.1142C14.3481 12.2277 14.5824 12.42 14.7472 12.6666C14.912 12.9133 15 13.2033 15 13.5C15 13.8978 14.842 14.2794 14.5607 14.5607C14.2794 14.842 13.8978 15 13.5 15ZM18.5 20C18.2033 20 17.9133 19.912 17.6666 19.7472C17.42 19.5824 17.2277 19.3481 17.1142 19.074C17.0007 18.7999 16.9709 18.4983 17.0288 18.2074C17.0867 17.9164 17.2296 17.6491 17.4393 17.4393C17.6491 17.2296 17.9164 17.0867 18.2074 17.0288C18.4983 16.9709 18.7999 17.0007 19.074 17.1142C19.3481 17.2277 19.5824 17.42 19.7472 17.6666C19.912 17.9133 20 18.2033 20 18.5C20 18.8978 19.842 19.2794 19.5607 19.5607C19.2794 19.842 18.8978 20 18.5 20Z" fill="white"/>
<path d="M64 3.5H48C46.8065 3.5 45.6619 3.97411 44.818 4.81802C43.9741 5.66193 43.5 6.80653 43.5 8V24C43.5 25.1935 43.9741 26.3381 44.818 27.182C45.6619 28.0259 46.8065 28.5 48 28.5H64C65.1935 28.5 66.3381 28.0259 67.182 27.182C68.0259 26.3381 68.5 25.1935 68.5 24V8C68.5 6.80653 68.0259 5.66193 67.182 4.81802C66.3381 3.97411 65.1935 3.5 64 3.5ZM65.5 24C65.5 24.3978 65.342 24.7794 65.0607 25.0607C64.7794 25.342 64.3978 25.5 64 25.5H48C47.6022 25.5 47.2206 25.342 46.9393 25.0607C46.658 24.7794 46.5 24.3978 46.5 24V8C46.5 7.60218 46.658 7.22064 46.9393 6.93934C47.2206 6.65804 47.6022 6.5 48 6.5H64C64.3978 6.5 64.7794 6.65804 65.0607 6.93934C65.342 7.22064 65.5 7.60218 65.5 8V24ZM55 13C55 13.3956 54.8827 13.7822 54.6629 14.1111C54.4432 14.44 54.1308 14.6964 53.7654 14.8478C53.3999 14.9991 52.9978 15.0387 52.6098 14.9616C52.2219 14.8844 51.8655 14.6939 51.5858 14.4142C51.3061 14.1345 51.1156 13.7781 51.0384 13.3902C50.9613 13.0022 51.0009 12.6001 51.1522 12.2346C51.3036 11.8692 51.56 11.5568 51.8889 11.3371C52.2178 11.1173 52.6044 11 53 11C53.5304 11 54.0391 11.2107 54.4142 11.5858C54.7893 11.9609 55 12.4696 55 13ZM61 19C61 19.3956 60.8827 19.7822 60.6629 20.1111C60.4432 20.44 60.1308 20.6964 59.7654 20.8478C59.3999 20.9991 58.9978 21.0387 58.6098 20.9616C58.2219 20.8844 57.8655 20.6939 57.5858 20.4142C57.3061 20.1345 57.1156 19.7781 57.0384 19.3902C56.9613 19.0022 57.0009 18.6001 57.1522 18.2346C57.3036 17.8692 57.56 17.5568 57.8889 17.3371C58.2178 17.1173 58.6044 17 59 17C59.5304 17 60.0391 17.2107 60.4142 17.5858C60.7893 17.9609 61 18.4696 61 19Z" fill="white"/>
</g>
<defs>
<clipPath id="clip0_27_4675">
<rect width="72" height="32" rx="5" fill="white"/>
</clipPath>
</defs>
</svg>
