<svg width="72" height="32" viewBox="0 0 72 32" fill="none" xmlns="http://www.w3.org/2000/svg">
<g clip-path="url(#clip0_27_4680)">
<path d="M15 8.04625V2C15 1.73478 14.8947 1.48043 14.7071 1.29289C14.5196 1.10536 14.2652 1 14 1C13.7348 1 13.4804 1.10536 13.2929 1.29289C13.1054 1.48043 13 1.73478 13 2V8.04625C10.181 8.30359 7.56971 9.63778 5.70931 11.7713C3.8489 13.9048 2.8826 16.6734 3.0114 19.5012C3.14021 22.329 4.3542 24.9983 6.40086 26.9539C8.44752 28.9094 11.1693 30.0007 14 30.0007C16.8307 30.0007 19.5525 28.9094 21.5992 26.9539C23.6458 24.9983 24.8598 22.329 24.9886 19.5012C25.1174 16.6734 24.1511 13.9048 22.2907 11.7713C20.4303 9.63778 17.819 8.30359 15 8.04625ZM22.9425 18H18.9713C18.7825 14.455 17.6225 11.955 16.5413 10.3675C18.2398 10.8705 19.7527 11.8626 20.8911 13.2199C22.0294 14.5773 22.7429 16.2398 22.9425 18ZM16.97 20C16.72 24.19 14.9538 26.6187 14 27.635C13.045 26.6163 11.2788 24.1887 11.03 20H16.97ZM11.4588 10.3675C10.375 11.955 9.21751 14.455 9.02876 18H5.05751C5.25709 16.2398 5.97057 14.5773 7.10895 13.2199C8.24732 11.8626 9.76017 10.8705 11.4588 10.3675ZM5.05751 20H9.02876C9.21751 23.545 10.3775 26.045 11.4588 27.6325C9.76017 27.1295 8.24732 26.1374 7.10895 24.7801C5.97057 23.4227 5.25709 21.7602 5.05751 20ZM32 11C32 11.2652 31.8947 11.5196 31.7071 11.7071C31.5196 11.8946 31.2652 12 31 12H30V13C30 13.2652 29.8947 13.5196 29.7071 13.7071C29.5196 13.8946 29.2652 14 29 14C28.7348 14 28.4804 13.8946 28.2929 13.7071C28.1054 13.5196 28 13.2652 28 13V12H27C26.7348 12 26.4804 11.8946 26.2929 11.7071C26.1054 11.5196 26 11.2652 26 11C26 10.7348 26.1054 10.4804 26.2929 10.2929C26.4804 10.1054 26.7348 10 27 10H28V9C28 8.73478 28.1054 8.48043 28.2929 8.29289C28.4804 8.10536 28.7348 8 29 8C29.2652 8 29.5196 8.10536 29.7071 8.29289C29.8947 8.48043 30 8.73478 30 9V10H31C31.2652 10 31.5196 10.1054 31.7071 10.2929C31.8947 10.4804 32 10.7348 32 11ZM19 5C19 4.73478 19.1054 4.48043 19.2929 4.29289C19.4804 4.10536 19.7348 4 20 4H22V2C22 1.73478 22.1054 1.48043 22.2929 1.29289C22.4804 1.10536 22.7348 1 23 1C23.2652 1 23.5196 1.10536 23.7071 1.29289C23.8947 1.48043 24 1.73478 24 2V4H26C26.2652 4 26.5196 4.10536 26.7071 4.29289C26.8947 4.48043 27 4.73478 27 5C27 5.26522 26.8947 5.51957 26.7071 5.70711C26.5196 5.89464 26.2652 6 26 6H24V8C24 8.26522 23.8947 8.51957 23.7071 8.70711C23.5196 8.89464 23.2652 9 23 9C22.7348 9 22.4804 8.89464 22.2929 8.70711C22.1054 8.51957 22 8.26522 22 8V6H20C19.7348 6 19.4804 5.89464 19.2929 5.70711C19.1054 5.51957 19 5.26522 19 5Z" fill="white"/>
<path d="M55.5 7.5975V2C55.5 1.60218 55.342 1.22064 55.0607 0.93934C54.7794 0.658035 54.3978 0.5 54 0.5C53.6022 0.5 53.2207 0.658035 52.9394 0.93934C52.6581 1.22064 52.5 1.60218 52.5 2V7.5975C49.6051 7.97835 46.9634 9.44615 45.1109 11.7031C43.2584 13.9601 42.3338 16.8372 42.5246 19.7509C42.7154 22.6645 44.0074 25.3965 46.1385 27.3925C48.2696 29.3886 51.0801 30.4993 54 30.4993C56.9199 30.4993 59.7305 29.3886 61.8615 27.3925C63.9926 25.3965 65.2846 22.6645 65.4754 19.7509C65.6663 16.8372 64.7416 13.9601 62.8891 11.7031C61.0366 9.44615 58.395 7.97835 55.5 7.5975ZM62.365 17.5H59.44C59.235 14.9075 58.52 12.875 57.7138 11.3562C58.9168 11.9434 59.9648 12.8055 60.7728 13.8729C61.5809 14.9402 62.1263 16.1828 62.365 17.5ZM54 26.875C53.125 25.7975 51.875 23.7388 51.5688 20.5H56.4313C56.125 23.7375 54.875 25.7962 54 26.875ZM51.5688 17.5C51.875 14.2625 53.125 12.2037 54 11.125C54.875 12.2025 56.125 14.2612 56.4313 17.5H51.5688ZM50.2863 11.3562C49.48 12.875 48.765 14.9075 48.56 17.5H45.635C45.8737 16.1828 46.4192 14.9402 47.2272 13.8729C48.0353 12.8055 49.0832 11.9434 50.2863 11.3562ZM45.635 20.5H48.56C48.765 23.0925 49.48 25.125 50.2863 26.6437C49.0832 26.0566 48.0353 25.1945 47.2272 24.1271C46.4192 23.0598 45.8737 21.8172 45.635 20.5ZM57.7138 26.6437C58.52 25.125 59.235 23.0925 59.44 20.5H62.365C62.1263 21.8172 61.5809 23.0598 60.7728 24.1271C59.9648 25.1945 58.9168 26.0566 57.7138 26.6437ZM72 11C72 11.3978 71.842 11.7794 71.5607 12.0607C71.2794 12.342 70.8978 12.5 70.5 12.5H70V13C70 13.3978 69.842 13.7794 69.5607 14.0607C69.2794 14.342 68.8978 14.5 68.5 14.5C68.1022 14.5 67.7207 14.342 67.4394 14.0607C67.1581 13.7794 67 13.3978 67 13V12.5H66.5C66.1022 12.5 65.7207 12.342 65.4394 12.0607C65.1581 11.7794 65 11.3978 65 11C65 10.6022 65.1581 10.2206 65.4394 9.93934C65.7207 9.65804 66.1022 9.5 66.5 9.5H67V9C67 8.60218 67.1581 8.22064 67.4394 7.93934C67.7207 7.65804 68.1022 7.5 68.5 7.5C68.8978 7.5 69.2794 7.65804 69.5607 7.93934C69.842 8.22064 70 8.60218 70 9V9.5H70.5C70.8978 9.5 71.2794 9.65804 71.5607 9.93934C71.842 10.2206 72 10.6022 72 11ZM58.5 4.5C58.5 4.10218 58.6581 3.72064 58.9394 3.43934C59.2207 3.15804 59.6022 3 60 3H61V2C61 1.60218 61.1581 1.22064 61.4394 0.93934C61.7207 0.658035 62.1022 0.5 62.5 0.5C62.8978 0.5 63.2794 0.658035 63.5607 0.93934C63.842 1.22064 64 1.60218 64 2V3H65C65.3978 3 65.7794 3.15804 66.0607 3.43934C66.342 3.72064 66.5 4.10218 66.5 4.5C66.5 4.89782 66.342 5.27936 66.0607 5.56066C65.7794 5.84196 65.3978 6 65 6H64V7C64 7.39782 63.842 7.77936 63.5607 8.06066C63.2794 8.34196 62.8978 8.5 62.5 8.5C62.1022 8.5 61.7207 8.34196 61.4394 8.06066C61.1581 7.77936 61 7.39782 61 7V6H60C59.6022 6 59.2207 5.84196 58.9394 5.56066C58.6581 5.27936 58.5 4.89782 58.5 4.5Z" fill="white"/>
</g>
<defs>
<clipPath id="clip0_27_4680">
<rect width="72" height="32" rx="5" fill="white"/>
</clipPath>
</defs>
</svg>
