<svg width="72" height="32" viewBox="0 0 72 32" fill="none" xmlns="http://www.w3.org/2000/svg">
<g clip-path="url(#clip0_27_3699)">
<path d="M23.5373 5.41376C23.5113 5.39155 23.4842 5.37069 23.456 5.35126C23.4273 5.33126 23.3973 5.31251 23.3673 5.29501C20.5845 3.28346 17.118 2.45641 13.7268 2.99488C10.3356 3.53336 7.29587 5.3935 5.27303 8.16811C3.2502 10.9427 2.40906 14.4058 2.93375 17.7991C3.45844 21.1925 5.30622 24.2398 8.07259 26.2739C10.839 28.308 14.2985 29.1632 17.694 28.6523C21.0895 28.1414 24.1443 26.306 26.1896 23.5479C28.2349 20.7898 29.1041 17.3338 28.6071 13.9362C28.11 10.5387 26.287 7.47651 23.5373 5.42001V5.41376ZM15.9998 19C15.4064 19 14.8264 18.8241 14.3331 18.4944C13.8397 18.1648 13.4552 17.6962 13.2281 17.1481C13.0011 16.5999 12.9417 15.9967 13.0574 15.4147C13.1732 14.8328 13.4589 14.2982 13.8784 13.8787C14.298 13.4591 14.8326 13.1734 15.4145 13.0576C15.9964 12.9419 16.5996 13.0013 17.1478 13.2284C17.696 13.4554 18.1645 13.8399 18.4942 14.3333C18.8238 14.8266 18.9998 15.4067 18.9998 16C18.9998 16.7957 18.6837 17.5587 18.1211 18.1213C17.5585 18.6839 16.7954 19 15.9998 19ZM26.9998 16C26.9998 16.3088 26.986 16.615 26.961 16.9175L20.9998 15.865C20.9661 14.6323 20.4761 13.4559 19.6248 12.5638L23.0973 7.60501C24.3201 8.63551 25.3029 9.92079 25.977 11.3709C26.6511 12.821 27.0002 14.4009 26.9998 16Z" fill="white"/>
<path d="M56 2.5C53.33 2.5 50.7199 3.29176 48.4998 4.77516C46.2797 6.25856 44.5494 8.36697 43.5276 10.8338C42.5058 13.3006 42.2385 16.015 42.7594 18.6337C43.2803 21.2525 44.5661 23.6579 46.4541 25.5459C48.3421 27.434 50.7475 28.7197 53.3663 29.2406C55.985 29.7615 58.6994 29.4942 61.1662 28.4724C63.633 27.4506 65.7414 25.7203 67.2248 23.5002C68.7082 21.2801 69.5 18.67 69.5 16C69.496 12.4208 68.0724 8.98932 65.5416 6.45844C63.0107 3.92756 59.5792 2.50397 56 2.5ZM61.29 14.5C61.1735 14.089 61.0094 13.693 60.8013 13.32L64.4063 9.715C65.4593 11.118 66.142 12.7636 66.3913 14.5H61.29ZM58.5 16C58.5 16.4945 58.3534 16.9778 58.0787 17.3889C57.804 17.8 57.4135 18.1205 56.9567 18.3097C56.4999 18.4989 55.9972 18.5484 55.5123 18.452C55.0273 18.3555 54.5819 18.1174 54.2322 17.7678C53.8826 17.4181 53.6445 16.9727 53.548 16.4877C53.4516 16.0028 53.5011 15.5001 53.6903 15.0433C53.8795 14.5865 54.2 14.196 54.6111 13.9213C55.0222 13.6466 55.5056 13.5 56 13.5C56.663 13.5 57.2989 13.7634 57.7678 14.2322C58.2366 14.7011 58.5 15.337 58.5 16ZM56 26.5C54.3364 26.5011 52.6964 26.1068 51.215 25.3498C49.7337 24.5927 48.4534 23.4945 47.4798 22.1456C46.5061 20.7968 45.8668 19.2358 45.6147 17.5915C45.3625 15.9471 45.5047 14.2664 46.0295 12.6877C46.5543 11.1091 47.4466 9.67771 48.6331 8.51158C49.8195 7.34544 51.2661 6.4779 52.8535 5.98044C54.441 5.48298 56.124 5.36983 57.7637 5.65033C59.4035 5.93082 60.9531 6.59692 62.285 7.59375L58.6788 11.1987C57.6812 10.6419 56.535 10.4096 55.3993 10.534C54.2636 10.6584 53.1949 11.1333 52.3415 11.8929C51.4881 12.6524 50.8924 13.6589 50.6372 14.7724C50.3819 15.886 50.4798 17.0514 50.9171 18.1069C51.3545 19.1623 52.1097 20.0553 53.0778 20.6619C54.0459 21.2685 55.1789 21.5586 56.3194 21.4919C57.4599 21.4252 58.5513 21.0049 59.442 20.2896C60.3328 19.5742 60.9787 18.5992 61.29 17.5H66.3913C66.0276 19.9975 64.7778 22.2809 62.8701 23.9333C60.9623 25.5856 58.5238 26.4966 56 26.5Z" fill="white"/>
</g>
<defs>
<clipPath id="clip0_27_3699">
<rect width="72" height="32" rx="5" fill="white"/>
</clipPath>
</defs>
</svg>
