<svg width="72" height="32" viewBox="0 0 72 32" fill="none" xmlns="http://www.w3.org/2000/svg">
<g clip-path="url(#clip0_27_89)">
<path d="M30.9388 21.7987L27.25 7.25C27.1529 6.87125 26.9475 6.52903 26.6589 6.26527C26.3702 6.0015 26.0109 5.82765 25.625 5.765L21.1175 5.025C20.6206 4.94508 20.1117 5.05283 19.6899 5.3273C19.268 5.60177 18.9633 6.02333 18.835 6.51L18.8088 6.61625C18.7918 6.68375 18.789 6.75406 18.8008 6.82268C18.8125 6.89129 18.8385 6.95669 18.8769 7.0147C18.9154 7.07271 18.9656 7.12205 19.0242 7.15955C19.0829 7.19706 19.1487 7.2219 19.2175 7.2325C20.2518 7.3843 21.2722 7.61923 22.2688 7.935C22.5179 8.01017 22.7291 8.17729 22.8596 8.40245C22.99 8.62762 23.0299 8.89398 22.9713 9.1475C22.9375 9.27961 22.8771 9.40343 22.7938 9.51135C22.7104 9.61926 22.6059 9.70899 22.4866 9.77502C22.3673 9.84105 22.2358 9.88199 22.1001 9.89531C21.9644 9.90863 21.8274 9.89407 21.6975 9.8525C17.9998 8.71848 14.0477 8.71413 10.3475 9.84C10.0971 9.9242 9.82387 9.90871 9.58458 9.79674C9.34529 9.68478 9.15832 9.48495 9.0625 9.23875C9.01696 9.11242 8.99733 8.97821 9.00478 8.84412C9.01223 8.71004 9.04662 8.57883 9.10588 8.45832C9.16514 8.33781 9.24807 8.23047 9.34971 8.14271C9.45136 8.05495 9.56964 7.98856 9.6975 7.9475C10.7065 7.62611 11.7399 7.387 12.7875 7.2325C12.8563 7.2219 12.9221 7.19706 12.9808 7.15955C13.0394 7.12205 13.0896 7.07271 13.1281 7.0147C13.1665 6.95669 13.1925 6.89129 13.2042 6.82268C13.216 6.75406 13.2132 6.68375 13.1963 6.61625L13.17 6.51C13.0417 6.02291 12.7366 5.60108 12.3141 5.32676C11.8916 5.05244 11.3822 4.94531 10.885 5.02625L6.375 5.76625C5.98922 5.82881 5.63004 6.00248 5.34142 6.266C5.05281 6.52953 4.84729 6.87148 4.75 7.25L1.06125 21.7987C0.945592 22.2561 0.995929 22.7396 1.20331 23.1633C1.41068 23.5869 1.76165 23.9233 2.19375 24.1125L10.5688 27.8263C10.8206 27.9382 11.0926 27.9975 11.3682 28.0004C11.6438 28.0034 11.9171 27.9499 12.1712 27.8434C12.4254 27.7369 12.6551 27.5795 12.8462 27.3809C13.0373 27.1824 13.1858 26.9468 13.2825 26.6887L13.7188 25.5075C13.7447 25.4367 13.7544 25.361 13.747 25.286C13.7396 25.211 13.7154 25.1386 13.676 25.0743C13.6367 25.01 13.5834 24.9554 13.52 24.9146C13.4566 24.8738 13.3848 24.8479 13.31 24.8388C12.0957 24.6917 10.8976 24.4323 9.73125 24.0637C9.48314 23.9883 9.27284 23.8217 9.14271 23.5974C9.01258 23.3731 8.97231 23.1078 9.03 22.855C9.06344 22.7225 9.12367 22.5983 9.20698 22.49C9.29029 22.3817 9.39491 22.2916 9.51439 22.2253C9.63386 22.159 9.76566 22.1179 9.90164 22.1045C10.0376 22.0911 10.1749 22.1058 10.305 22.1475C14.0166 23.2842 17.9834 23.2842 21.695 22.1475C21.8249 22.106 21.962 22.0914 22.0978 22.1048C22.2336 22.1182 22.3651 22.1593 22.4845 22.2254C22.6038 22.2916 22.7083 22.3815 22.7916 22.4895C22.8749 22.5976 22.9352 22.7215 22.9688 22.8538C23.0271 23.1068 22.9871 23.3725 22.8569 23.5972C22.7267 23.8218 22.516 23.9886 22.2675 24.0637C21.1016 24.4324 19.9039 24.6918 18.69 24.8388C18.6152 24.8479 18.5434 24.8738 18.48 24.9146C18.4166 24.9554 18.3633 25.01 18.324 25.0743C18.2846 25.1386 18.2604 25.211 18.253 25.286C18.2456 25.361 18.2553 25.4367 18.2813 25.5075L18.7175 26.6887C18.8144 26.9467 18.9629 27.1821 19.1541 27.3806C19.3452 27.579 19.5749 27.7364 19.829 27.8429C20.0831 27.9494 20.3563 28.0029 20.6318 28C20.9074 27.9971 21.1794 27.938 21.4313 27.8263L29.8063 24.1125C30.2384 23.9233 30.5893 23.5869 30.7967 23.1633C31.0041 22.7396 31.0544 22.2561 30.9388 21.7987ZM11.5 19C11.2033 19 10.9133 18.912 10.6666 18.7472C10.42 18.5824 10.2277 18.3481 10.1142 18.074C10.0007 17.7999 9.97095 17.4983 10.0288 17.2074C10.0867 16.9164 10.2296 16.6491 10.4393 16.4393C10.6491 16.2296 10.9164 16.0867 11.2074 16.0288C11.4983 15.9709 11.7999 16.0007 12.074 16.1142C12.3481 16.2277 12.5824 16.42 12.7472 16.6666C12.912 16.9133 13 17.2033 13 17.5C13 17.8978 12.842 18.2794 12.5607 18.5607C12.2794 18.842 11.8978 19 11.5 19ZM20.5 19C20.2033 19 19.9133 18.912 19.6666 18.7472C19.42 18.5824 19.2277 18.3481 19.1142 18.074C19.0007 17.7999 18.9709 17.4983 19.0288 17.2074C19.0867 16.9164 19.2296 16.6491 19.4393 16.4393C19.6491 16.2296 19.9164 16.0867 20.2074 16.0288C20.4983 15.9709 20.7999 16.0007 21.074 16.1142C21.3481 16.2277 21.5824 16.42 21.7472 16.6666C21.912 16.9133 22 17.2033 22 17.5C22 17.8978 21.842 18.2794 21.5607 18.5607C21.2794 18.842 20.8978 19 20.5 19Z" fill="white"/>
<path d="M53.5 17C53.5 17.3956 53.3827 17.7822 53.1629 18.1111C52.9432 18.44 52.6308 18.6964 52.2654 18.8478C51.8999 18.9991 51.4978 19.0387 51.1098 18.9616C50.7219 18.8844 50.3655 18.6939 50.0858 18.4142C49.8061 18.1345 49.6156 17.7781 49.5384 17.3902C49.4613 17.0022 49.5009 16.6001 49.6522 16.2346C49.8036 15.8692 50.06 15.5568 50.3889 15.3371C50.7178 15.1173 51.1044 15 51.5 15C52.0304 15 52.5391 15.2107 52.9142 15.5858C53.2893 15.9609 53.5 16.4696 53.5 17ZM60.5 15C60.1044 15 59.7178 15.1173 59.3889 15.3371C59.06 15.5568 58.8036 15.8692 58.6522 16.2346C58.5009 16.6001 58.4613 17.0022 58.5384 17.3902C58.6156 17.7781 58.8061 18.1345 59.0858 18.4142C59.3655 18.6939 59.7219 18.8844 60.1098 18.9616C60.4978 19.0387 60.8999 18.9991 61.2654 18.8478C61.6308 18.6964 61.9432 18.44 62.1629 18.1111C62.3827 17.7822 62.5 17.3956 62.5 17C62.5 16.4696 62.2893 15.9609 61.9142 15.5858C61.5391 15.2107 61.0304 15 60.5 15ZM70.0088 24.57L61.6338 28.2838C61.3196 28.4235 60.9802 28.4975 60.6363 28.5011C60.2925 28.5047 59.9516 28.4378 59.6346 28.3047C59.3176 28.1715 59.0312 27.9749 58.7931 27.7268C58.555 27.4788 58.3701 27.1847 58.25 26.8625L57.1825 23.9713C56.7913 23.9888 56.3988 24.0013 56.0013 24.0013C55.6038 24.0013 55.2113 23.9888 54.82 23.9713L53.75 26.8625C53.6293 27.1844 53.4441 27.4782 53.2057 27.7259C52.9674 27.9736 52.681 28.1701 52.364 28.3032C52.0471 28.4362 51.7063 28.5032 51.3625 28.4998C51.0188 28.4965 50.6793 28.423 50.365 28.2838L41.99 24.57C41.4502 24.3328 41.012 23.9119 40.7534 23.382C40.4948 22.8521 40.4324 22.2477 40.5775 21.6763L44.2688 7.125C44.3892 6.65226 44.6454 6.22509 45.0056 5.89615C45.3659 5.5672 45.8145 5.35085 46.2963 5.27375L50.8038 4.5325C51.4241 4.43329 52.0592 4.56818 52.5856 4.91099C53.1121 5.2538 53.4923 5.78004 53.6525 6.3875L54.2038 8.56375C54.7963 8.5225 55.3938 8.5 56 8.5C56.6063 8.5 57.2038 8.5225 57.7963 8.56375L58.3475 6.3875C58.5074 5.77989 58.8876 5.25347 59.4141 4.91062C59.9407 4.56777 60.5759 4.433 61.1963 4.5325L65.7038 5.27375C66.1855 5.35085 66.6341 5.5672 66.9944 5.89615C67.3546 6.22509 67.6108 6.65226 67.7313 7.125L71.4225 21.6725C71.5685 22.2447 71.5065 22.8501 71.2475 23.3808C70.9886 23.9115 70.5496 24.3329 70.0088 24.57ZM68.41 22L64.9038 8.1825L61.145 7.565L60.79 8.96125C61.1525 9.03375 61.5125 9.11125 61.8663 9.20125C62.0602 9.24658 62.2431 9.33007 62.4044 9.44684C62.5657 9.56361 62.7021 9.71133 62.8058 9.88139C62.9094 10.0514 62.9781 10.2404 63.0079 10.4373C63.0377 10.6342 63.028 10.8351 62.9794 11.0282C62.9308 11.2213 62.8442 11.4028 62.7247 11.5621C62.6052 11.7214 62.4551 11.8553 62.2833 11.956C62.1115 12.0567 61.9214 12.1221 61.724 12.1486C61.5267 12.175 61.326 12.1619 61.1338 12.11C59.4541 11.6965 57.7298 11.4917 56 11.5C54.2702 11.4917 52.5459 11.6965 50.8663 12.11C50.4832 12.1995 50.0803 12.135 49.7443 11.9303C49.4084 11.7256 49.1663 11.3972 49.0702 11.0157C48.9742 10.6342 49.0318 10.2302 49.2307 9.89085C49.4297 9.55147 49.754 9.30381 50.1338 9.20125C50.4875 9.11125 50.8475 9.03375 51.21 8.96125L50.8563 7.565L47.0963 8.1825L43.59 22L51.1175 25.3375L51.7425 23.6413C51.1963 23.5463 50.6588 23.435 50.1325 23.3025C49.9414 23.2544 49.7617 23.1691 49.6036 23.0516C49.4455 22.934 49.312 22.7865 49.2109 22.6174C49.0068 22.2758 48.9466 21.8671 49.0438 21.4813C49.1409 21.0954 49.3873 20.7639 49.7289 20.5597C50.0704 20.3555 50.4791 20.2954 50.865 20.3925C52.5452 20.8052 54.2699 21.0093 56 21C57.7298 21.0083 59.4541 20.8035 61.1338 20.39C61.5196 20.2929 61.9283 20.353 62.2699 20.5572C62.6114 20.7614 62.8579 21.0929 62.955 21.4788C63.0521 21.8646 62.992 22.2733 62.7878 22.6149C62.5836 22.9564 62.2521 23.2029 61.8663 23.3C61.34 23.4325 60.8025 23.5438 60.2563 23.6388L60.8813 25.335L68.41 22Z" fill="white"/>
</g>
<defs>
<clipPath id="clip0_27_89">
<rect width="72" height="32" rx="5" fill="white"/>
</clipPath>
</defs>
</svg>
