<svg width="72" height="32" viewBox="0 0 72 32" fill="none" xmlns="http://www.w3.org/2000/svg">
<g clip-path="url(#clip0_27_2129)">
<path d="M29.9636 15.625L27.9111 4.625C27.8609 4.35688 27.7565 4.10184 27.6041 3.87558C27.4517 3.64932 27.2547 3.45662 27.0251 3.30933C26.7955 3.16204 26.5382 3.06328 26.269 3.01911C25.9998 2.97495 25.7245 2.98631 25.4598 3.0525L25.4211 3.06375L18.8561 5.00001H13.1436L6.57859 3.07L6.53984 3.05875C6.27521 2.99256 5.99984 2.9812 5.73066 3.02536C5.46148 3.06953 5.20418 3.16829 4.97458 3.31558C4.74499 3.46287 4.54795 3.65557 4.39558 3.88183C4.24321 4.10809 4.13874 4.36313 4.08859 4.63125L2.03609 15.625C1.94832 16.0653 2.01347 16.5224 2.22077 16.9206C2.42806 17.3188 2.76509 17.6344 3.17609 17.815C3.4393 17.9357 3.72527 17.9988 4.01484 18C4.36143 17.9998 4.70161 17.9066 4.99984 17.73V23C4.99984 24.3261 5.52662 25.5979 6.4643 26.5355C7.40199 27.4732 8.67376 28 9.99984 28H21.9998C23.3259 28 24.5977 27.4732 25.5354 26.5355C26.4731 25.5979 26.9998 24.3261 26.9998 23V17.7313C27.2977 17.9075 27.6374 18.0007 27.9836 18.0013C28.2735 18.0004 28.5598 17.9378 28.8236 17.8175C29.2351 17.6368 29.5725 17.3208 29.7798 16.9221C29.9871 16.5233 30.052 16.0657 29.9636 15.625ZM21.9998 26H16.9998V24.4138L18.7073 22.7075C18.895 22.5199 19.0004 22.2654 19.0004 22C19.0004 21.7346 18.895 21.4801 18.7073 21.2925C18.5197 21.1049 18.2652 20.9994 17.9998 20.9994C17.7345 20.9994 17.48 21.1049 17.2923 21.2925L15.9998 22.5863L14.7073 21.2925C14.5197 21.1049 14.2652 20.9994 13.9998 20.9994C13.7345 20.9994 13.48 21.1049 13.2923 21.2925C13.1047 21.4801 12.9993 21.7346 12.9993 22C12.9993 22.2654 13.1047 22.5199 13.2923 22.7075L14.9998 24.4138V26H9.99984C9.20419 26 8.44113 25.6839 7.87852 25.1213C7.31591 24.5587 6.99984 23.7957 6.99984 23V15.3888L13.4911 7H18.5086L24.9998 15.3888V23C24.9998 23.7957 24.6838 24.5587 24.1212 25.1213C23.5585 25.6839 22.7955 26 21.9998 26ZM12.9998 17.5C12.9998 17.7967 12.9119 18.0867 12.747 18.3334C12.5822 18.58 12.348 18.7723 12.0739 18.8858C11.7998 18.9994 11.4982 19.0291 11.2072 18.9712C10.9162 18.9133 10.649 18.7704 10.4392 18.5607C10.2294 18.3509 10.0865 18.0836 10.0287 17.7926C9.97078 17.5017 10.0005 17.2001 10.114 16.926C10.2275 16.6519 10.4198 16.4176 10.6665 16.2528C10.9132 16.088 11.2032 16 11.4998 16C11.8977 16 12.2792 16.158 12.5605 16.4393C12.8418 16.7206 12.9998 17.1022 12.9998 17.5ZM21.9998 17.5C21.9998 17.7967 21.9119 18.0867 21.747 18.3334C21.5822 18.58 21.348 18.7723 21.0739 18.8858C20.7998 18.9994 20.4982 19.0291 20.2072 18.9712C19.9162 18.9133 19.649 18.7704 19.4392 18.5607C19.2294 18.3509 19.0865 18.0836 19.0287 17.7926C18.9708 17.5017 19.0005 17.2001 19.114 16.926C19.2276 16.6519 19.4198 16.4176 19.6665 16.2528C19.9132 16.088 20.2032 16 20.4998 16C20.8977 16 21.2792 16.158 21.5605 16.4393C21.8418 16.7206 21.9998 17.1022 21.9998 17.5Z" fill="white"/>
<path d="M53.5002 17C53.5002 17.3956 53.3829 17.7822 53.1631 18.1111C52.9433 18.44 52.631 18.6964 52.2655 18.8478C51.9001 18.9991 51.4979 19.0387 51.11 18.9616C50.722 18.8844 50.3656 18.6939 50.0859 18.4142C49.8062 18.1345 49.6158 17.7781 49.5386 17.3902C49.4614 17.0022 49.501 16.6001 49.6524 16.2346C49.8038 15.8692 50.0601 15.5568 50.389 15.3371C50.7179 15.1173 51.1046 15 51.5002 15C52.0306 15 52.5393 15.2107 52.9144 15.5858C53.2894 15.9609 53.5002 16.4696 53.5002 17ZM60.5002 15C60.1046 15 59.7179 15.1173 59.389 15.3371C59.0601 15.5568 58.8038 15.8692 58.6524 16.2346C58.501 16.6001 58.4614 17.0022 58.5386 17.3902C58.6158 17.7781 58.8062 18.1345 59.0859 18.4142C59.3656 18.6939 59.722 18.8844 60.11 18.9616C60.4979 19.0387 60.9001 18.9991 61.2655 18.8478C61.631 18.6964 61.9433 18.44 62.1631 18.1111C62.3829 17.7822 62.5002 17.3956 62.5002 17C62.5002 16.4696 62.2894 15.9609 61.9144 15.5858C61.5393 15.2107 61.0306 15 60.5002 15ZM69.0302 18.2725C68.7002 18.4234 68.3418 18.5023 67.9789 18.5038C67.8181 18.5033 67.6577 18.4869 67.5002 18.455V23C67.4985 24.4582 66.9185 25.8562 65.8874 26.8873C64.8563 27.9184 63.4583 28.4983 62.0002 28.5H50.0002C48.542 28.4983 47.144 27.9184 46.1129 26.8873C45.0818 25.8562 44.5018 24.4582 44.5002 23V18.4538C44.3418 18.4863 44.1806 18.5027 44.0189 18.5025C43.6569 18.5015 43.2993 18.4231 42.9702 18.2725C42.4564 18.0467 42.0351 17.6523 41.7759 17.1545C41.5168 16.6567 41.4354 16.0854 41.5452 15.535L43.5977 4.535C43.6609 4.20027 43.7918 3.88198 43.9825 3.59968C44.1731 3.31738 44.4195 3.07702 44.7064 2.89336C44.9933 2.7097 45.3147 2.58662 45.6509 2.53165C45.9871 2.47669 46.331 2.49102 46.6614 2.57375L46.7202 2.59L53.2202 4.49875H58.7877L65.2877 2.59L65.3464 2.57375C65.6771 2.49105 66.0213 2.47686 66.3577 2.53205C66.6941 2.58725 67.0156 2.71066 67.3026 2.8947C67.5895 3.07875 67.8358 3.31953 68.0263 3.60226C68.2167 3.88499 68.3474 4.20368 68.4102 4.53875L70.4627 15.5388C70.571 16.0894 70.488 16.6606 70.2275 17.1577C69.967 17.6548 69.5446 18.0481 69.0302 18.2725ZM61.5302 6.81875L67.1252 14.0525L65.5552 5.63625L61.5302 6.81875ZM44.8752 14.0525L50.4702 6.81875L46.4452 5.63625L44.8752 14.0525ZM64.5002 23V15.56L58.2639 7.5H53.7364L47.5002 15.56V23C47.5002 23.663 47.7635 24.2989 48.2324 24.7678C48.7012 25.2366 49.3371 25.5 50.0002 25.5H54.5002V24.625L52.9402 23.0638C52.6584 22.782 52.5001 22.3998 52.5001 22.0013C52.5001 21.6027 52.6584 21.2205 52.9402 20.9388C53.2219 20.657 53.6041 20.4986 54.0027 20.4986C54.4012 20.4986 54.7834 20.657 55.0652 20.9388L56.0002 21.875L56.9389 20.935C57.2207 20.6532 57.6029 20.4949 58.0014 20.4949C58.3999 20.4949 58.7821 20.6532 59.0639 20.935C59.3457 21.2168 59.504 21.599 59.504 21.9975C59.504 22.396 59.3457 22.7782 59.0639 23.06L57.5002 24.625V25.5H62.0002C62.6632 25.5 63.2991 25.2366 63.7679 24.7678C64.2368 24.2989 64.5002 23.663 64.5002 23Z" fill="white"/>
</g>
<defs>
<clipPath id="clip0_27_2129">
<rect width="72" height="32" rx="5" fill="white"/>
</clipPath>
</defs>
</svg>
