<svg width="72" height="32" viewBox="0 0 72 32" fill="none" xmlns="http://www.w3.org/2000/svg">
<g clip-path="url(#clip0_27_1147)">
<path d="M29 27H26V5C26 4.46957 25.7893 3.96086 25.4142 3.58579C25.0391 3.21071 24.5304 3 24 3H8C7.46957 3 6.96086 3.21071 6.58579 3.58579C6.21071 3.96086 6 4.46957 6 5V27H3C2.73478 27 2.48043 27.1054 2.29289 27.2929C2.10536 27.4804 2 27.7348 2 28C2 28.2652 2.10536 28.5196 2.29289 28.7071C2.48043 28.8946 2.73478 29 3 29H29C29.2652 29 29.5196 28.8946 29.7071 28.7071C29.8946 28.5196 30 28.2652 30 28C30 27.7348 29.8946 27.4804 29.7071 27.2929C29.5196 27.1054 29.2652 27 29 27ZM21 27H8V5H21V27ZM16 16.5C16 16.2033 16.088 15.9133 16.2528 15.6666C16.4176 15.42 16.6519 15.2277 16.926 15.1142C17.2001 15.0006 17.5017 14.9709 17.7926 15.0288C18.0836 15.0867 18.3509 15.2296 18.5607 15.4393C18.7704 15.6491 18.9133 15.9164 18.9712 16.2074C19.0291 16.4983 18.9993 16.7999 18.8858 17.074C18.7723 17.3481 18.58 17.5824 18.3334 17.7472C18.0867 17.912 17.7967 18 17.5 18C17.1022 18 16.7206 17.842 16.4393 17.5607C16.158 17.2794 16 16.8978 16 16.5Z" fill="white"/>
<path d="M69 26.5H66.5V5C66.5 4.33696 66.2366 3.70107 65.7678 3.23223C65.2989 2.76339 64.663 2.5 64 2.5H48C47.337 2.5 46.7011 2.76339 46.2322 3.23223C45.7634 3.70107 45.5 4.33696 45.5 5V26.5H43C42.6022 26.5 42.2206 26.658 41.9393 26.9393C41.658 27.2206 41.5 27.6022 41.5 28C41.5 28.3978 41.658 28.7794 41.9393 29.0607C42.2206 29.342 42.6022 29.5 43 29.5H69C69.3978 29.5 69.7794 29.342 70.0607 29.0607C70.342 28.7794 70.5 28.3978 70.5 28C70.5 27.6022 70.342 27.2206 70.0607 26.9393C69.7794 26.658 69.3978 26.5 69 26.5ZM63.5 26.5H61.5V5.5H63.5V26.5ZM48.5 5.5H58.5V26.5H48.5V5.5ZM57 16C57 16.3956 56.8827 16.7822 56.6629 17.1111C56.4432 17.44 56.1308 17.6964 55.7654 17.8478C55.3999 17.9991 54.9978 18.0387 54.6098 17.9616C54.2219 17.8844 53.8655 17.6939 53.5858 17.4142C53.3061 17.1345 53.1156 16.7781 53.0384 16.3902C52.9613 16.0022 53.0009 15.6001 53.1522 15.2346C53.3036 14.8692 53.56 14.5568 53.8889 14.3371C54.2178 14.1173 54.6044 14 55 14C55.5304 14 56.0391 14.2107 56.4142 14.5858C56.7893 14.9609 57 15.4696 57 16Z" fill="white"/>
</g>
<defs>
<clipPath id="clip0_27_1147">
<rect width="72" height="32" rx="5" fill="white"/>
</clipPath>
</defs>
</svg>
