<svg width="72" height="32" viewBox="0 0 72 32" fill="none" xmlns="http://www.w3.org/2000/svg">
<g clip-path="url(#clip0_27_2690)">
<path d="M16 10C14.8133 10 13.6533 10.3519 12.6666 11.0112C11.6799 11.6705 10.9109 12.6075 10.4567 13.7039C10.0026 14.8003 9.88378 16.0067 10.1153 17.1705C10.3468 18.3344 10.9182 19.4035 11.7574 20.2426C12.5965 21.0818 13.6656 21.6532 14.8295 21.8847C15.9933 22.1162 17.1997 21.9974 18.2961 21.5433C19.3925 21.0892 20.3295 20.3201 20.9888 19.3334C21.6481 18.3467 22 17.1867 22 16C22 14.4087 21.3679 12.8826 20.2426 11.7574C19.1174 10.6321 17.5913 10 16 10ZM16 17.5C15.7033 17.5 15.4133 17.412 15.1666 17.2472C14.92 17.0824 14.7277 16.8481 14.6142 16.574C14.5007 16.2999 14.4709 15.9983 14.5288 15.7074C14.5867 15.4164 14.7296 15.1491 14.9393 14.9393C15.1491 14.7296 15.4164 14.5867 15.7074 14.5288C15.9983 14.4709 16.2999 14.5006 16.574 14.6142C16.8481 14.7277 17.0824 14.92 17.2472 15.1666C17.412 15.4133 17.5 15.7033 17.5 16C17.5 16.3978 17.342 16.7794 17.0607 17.0607C16.7794 17.342 16.3978 17.5 16 17.5Z" fill="white"/>
<path d="M58 16C58 16.3956 57.8827 16.7822 57.6629 17.1111C57.4432 17.44 57.1308 17.6964 56.7654 17.8478C56.3999 17.9991 55.9978 18.0387 55.6098 17.9616C55.2219 17.8844 54.8655 17.6939 54.5858 17.4142C54.3061 17.1345 54.1156 16.7781 54.0384 16.3902C53.9613 16.0022 54.0009 15.6001 54.1522 15.2346C54.3036 14.8692 54.56 14.5568 54.8889 14.3371C55.2178 14.1173 55.6044 14 56 14C56.5304 14 57.0391 14.2107 57.4142 14.5858C57.7893 14.9609 58 15.4696 58 16Z" fill="white"/>
</g>
<defs>
<clipPath id="clip0_27_2690">
<rect width="72" height="32" rx="5" fill="white"/>
</clipPath>
</defs>
</svg>
