<svg width="72" height="32" viewBox="0 0 72 32" fill="none" xmlns="http://www.w3.org/2000/svg">
<g clip-path="url(#clip0_27_2695)">
<path d="M19.5 16C19.5 16.6922 19.2947 17.3689 18.9101 17.9445C18.5256 18.5201 17.9789 18.9687 17.3394 19.2336C16.6999 19.4985 15.9961 19.5678 15.3172 19.4327C14.6383 19.2977 14.0146 18.9644 13.5251 18.4749C13.0356 17.9854 12.7023 17.3617 12.5673 16.6828C12.4322 16.0039 12.5015 15.3001 12.7664 14.6606C13.0313 14.0211 13.4799 13.4744 14.0555 13.0899C14.6311 12.7053 15.3078 12.5 16 12.5C16.9283 12.5 17.8185 12.8687 18.4749 13.5251C19.1313 14.1815 19.5 15.0717 19.5 16Z" fill="white"/>
<path d="M56 12C55.2089 12 54.4355 12.2346 53.7777 12.6741C53.1199 13.1136 52.6072 13.7384 52.3045 14.4693C52.0017 15.2002 51.9225 16.0044 52.0769 16.7804C52.2312 17.5563 52.6122 18.269 53.1716 18.8284C53.731 19.3878 54.4437 19.7688 55.2196 19.9231C55.9956 20.0775 56.7998 19.9983 57.5307 19.6955C58.2616 19.3928 58.8864 18.8801 59.3259 18.2223C59.7654 17.5645 60 16.7911 60 16C60 14.9391 59.5786 13.9217 58.8284 13.1716C58.0783 12.4214 57.0609 12 56 12ZM56 17C55.8022 17 55.6089 16.9414 55.4444 16.8315C55.28 16.7216 55.1518 16.5654 55.0761 16.3827C55.0004 16.2 54.9806 15.9989 55.0192 15.8049C55.0578 15.6109 55.153 15.4327 55.2929 15.2929C55.4327 15.153 55.6109 15.0578 55.8049 15.0192C55.9989 14.9806 56.2 15.0004 56.3827 15.0761C56.5654 15.1518 56.7216 15.28 56.8315 15.4444C56.9414 15.6089 57 15.8022 57 16C57 16.2652 56.8946 16.5196 56.7071 16.7071C56.5196 16.8946 56.2652 17 56 17Z" fill="white"/>
</g>
<defs>
<clipPath id="clip0_27_2695">
<rect width="72" height="32" rx="5" fill="white"/>
</clipPath>
</defs>
</svg>
