<svg width="72" height="32" viewBox="0 0 72 32" fill="none" xmlns="http://www.w3.org/2000/svg">
<g clip-path="url(#clip0_27_2700)">
<path d="M26 4H6C5.46957 4 4.96086 4.21071 4.58579 4.58579C4.21071 4.96086 4 5.46957 4 6V26C4 26.5304 4.21071 27.0391 4.58579 27.4142C4.96086 27.7893 5.46957 28 6 28H26C26.5304 28 27.0391 27.7893 27.4142 27.4142C27.7893 27.0391 28 26.5304 28 26V6C28 5.46957 27.7893 4.96086 27.4142 4.58579C27.0391 4.21071 26.5304 4 26 4ZM9.5 24C9.20333 24 8.91332 23.912 8.66665 23.7472C8.41997 23.5824 8.22771 23.3481 8.11418 23.074C8.00065 22.7999 7.97094 22.4983 8.02882 22.2074C8.0867 21.9164 8.22956 21.6491 8.43934 21.4393C8.64912 21.2296 8.91639 21.0867 9.20736 21.0288C9.49834 20.9709 9.79994 21.0007 10.074 21.1142C10.3481 21.2277 10.5824 21.42 10.7472 21.6666C10.912 21.9133 11 22.2033 11 22.5C11 22.8978 10.842 23.2794 10.5607 23.5607C10.2794 23.842 9.89782 24 9.5 24ZM9.5 17.5C9.20333 17.5 8.91332 17.412 8.66665 17.2472C8.41997 17.0824 8.22771 16.8481 8.11418 16.574C8.00065 16.2999 7.97094 15.9983 8.02882 15.7074C8.0867 15.4164 8.22956 15.1491 8.43934 14.9393C8.64912 14.7296 8.91639 14.5867 9.20736 14.5288C9.49834 14.4709 9.79994 14.5006 10.074 14.6142C10.3481 14.7277 10.5824 14.92 10.7472 15.1666C10.912 15.4133 11 15.7033 11 16C11 16.3978 10.842 16.7794 10.5607 17.0607C10.2794 17.342 9.89782 17.5 9.5 17.5ZM9.5 11C9.20333 11 8.91332 10.912 8.66665 10.7472C8.41997 10.5824 8.22771 10.3481 8.11418 10.074C8.00065 9.79994 7.97094 9.49834 8.02882 9.20736C8.0867 8.91639 8.22956 8.64912 8.43934 8.43934C8.64912 8.22956 8.91639 8.0867 9.20736 8.02882C9.49834 7.97094 9.79994 8.00065 10.074 8.11418C10.3481 8.22771 10.5824 8.41997 10.7472 8.66665C10.912 8.91332 11 9.20333 11 9.5C11 9.89782 10.842 10.2794 10.5607 10.5607C10.2794 10.842 9.89782 11 9.5 11ZM16 24C15.7033 24 15.4133 23.912 15.1666 23.7472C14.92 23.5824 14.7277 23.3481 14.6142 23.074C14.5006 22.7999 14.4709 22.4983 14.5288 22.2074C14.5867 21.9164 14.7296 21.6491 14.9393 21.4393C15.1491 21.2296 15.4164 21.0867 15.7074 21.0288C15.9983 20.9709 16.2999 21.0007 16.574 21.1142C16.8481 21.2277 17.0824 21.42 17.2472 21.6666C17.412 21.9133 17.5 22.2033 17.5 22.5C17.5 22.8978 17.342 23.2794 17.0607 23.5607C16.7794 23.842 16.3978 24 16 24ZM16 17.5C15.7033 17.5 15.4133 17.412 15.1666 17.2472C14.92 17.0824 14.7277 16.8481 14.6142 16.574C14.5006 16.2999 14.4709 15.9983 14.5288 15.7074C14.5867 15.4164 14.7296 15.1491 14.9393 14.9393C15.1491 14.7296 15.4164 14.5867 15.7074 14.5288C15.9983 14.4709 16.2999 14.5006 16.574 14.6142C16.8481 14.7277 17.0824 14.92 17.2472 15.1666C17.412 15.4133 17.5 15.7033 17.5 16C17.5 16.3978 17.342 16.7794 17.0607 17.0607C16.7794 17.342 16.3978 17.5 16 17.5ZM16 11C15.7033 11 15.4133 10.912 15.1666 10.7472C14.92 10.5824 14.7277 10.3481 14.6142 10.074C14.5006 9.79994 14.4709 9.49834 14.5288 9.20736C14.5867 8.91639 14.7296 8.64912 14.9393 8.43934C15.1491 8.22956 15.4164 8.0867 15.7074 8.02882C15.9983 7.97094 16.2999 8.00065 16.574 8.11418C16.8481 8.22771 17.0824 8.41997 17.2472 8.66665C17.412 8.91332 17.5 9.20333 17.5 9.5C17.5 9.89782 17.342 10.2794 17.0607 10.5607C16.7794 10.842 16.3978 11 16 11ZM22.5 24C22.2033 24 21.9133 23.912 21.6666 23.7472C21.42 23.5824 21.2277 23.3481 21.1142 23.074C21.0007 22.7999 20.9709 22.4983 21.0288 22.2074C21.0867 21.9164 21.2296 21.6491 21.4393 21.4393C21.6491 21.2296 21.9164 21.0867 22.2074 21.0288C22.4983 20.9709 22.7999 21.0007 23.074 21.1142C23.3481 21.2277 23.5824 21.42 23.7472 21.6666C23.912 21.9133 24 22.2033 24 22.5C24 22.8978 23.842 23.2794 23.5607 23.5607C23.2794 23.842 22.8978 24 22.5 24ZM22.5 17.5C22.2033 17.5 21.9133 17.412 21.6666 17.2472C21.42 17.0824 21.2277 16.8481 21.1142 16.574C21.0007 16.2999 20.9709 15.9983 21.0288 15.7074C21.0867 15.4164 21.2296 15.1491 21.4393 14.9393C21.6491 14.7296 21.9164 14.5867 22.2074 14.5288C22.4983 14.4709 22.7999 14.5006 23.074 14.6142C23.3481 14.7277 23.5824 14.92 23.7472 15.1666C23.912 15.4133 24 15.7033 24 16C24 16.3978 23.842 16.7794 23.5607 17.0607C23.2794 17.342 22.8978 17.5 22.5 17.5ZM22.5 11C22.2033 11 21.9133 10.912 21.6666 10.7472C21.42 10.5824 21.2277 10.3481 21.1142 10.074C21.0007 9.79994 20.9709 9.49834 21.0288 9.20736C21.0867 8.91639 21.2296 8.64912 21.4393 8.43934C21.6491 8.22956 21.9164 8.0867 22.2074 8.02882C22.4983 7.97094 22.7999 8.00065 23.074 8.11418C23.3481 8.22771 23.5824 8.41997 23.7472 8.66665C23.912 8.91332 24 9.20333 24 9.5C24 9.89782 23.842 10.2794 23.5607 10.5607C23.2794 10.842 22.8978 11 22.5 11Z" fill="white"/>
<path d="M49.5 7.5C49.5 7.89556 49.3827 8.28224 49.1629 8.61114C48.9432 8.94004 48.6308 9.19639 48.2654 9.34776C47.8999 9.49914 47.4978 9.53874 47.1098 9.46157C46.7219 9.3844 46.3655 9.19392 46.0858 8.91421C45.8061 8.63451 45.6156 8.27814 45.5384 7.89018C45.4613 7.50222 45.5009 7.10009 45.6522 6.73463C45.8036 6.36918 46.06 6.05682 46.3889 5.83706C46.7178 5.6173 47.1044 5.5 47.5 5.5C48.0304 5.5 48.5391 5.71071 48.9142 6.08579C49.2893 6.46086 49.5 6.96957 49.5 7.5ZM56 5.5C55.6044 5.5 55.2178 5.6173 54.8889 5.83706C54.56 6.05682 54.3036 6.36918 54.1522 6.73463C54.0009 7.10009 53.9613 7.50222 54.0384 7.89018C54.1156 8.27814 54.3061 8.63451 54.5858 8.91421C54.8655 9.19392 55.2219 9.3844 55.6098 9.46157C55.9978 9.53874 56.3999 9.49914 56.7654 9.34776C57.1308 9.19639 57.4432 8.94004 57.6629 8.61114C57.8827 8.28224 58 7.89556 58 7.5C58 6.96957 57.7893 6.46086 57.4142 6.08579C57.0391 5.71071 56.5304 5.5 56 5.5ZM64.5 9.5C64.8956 9.5 65.2822 9.3827 65.6111 9.16294C65.94 8.94318 66.1964 8.63082 66.3478 8.26537C66.4991 7.89992 66.5387 7.49778 66.4616 7.10982C66.3844 6.72186 66.1939 6.36549 65.9142 6.08579C65.6345 5.80608 65.2781 5.6156 64.8902 5.53843C64.5022 5.46126 64.1001 5.50087 63.7346 5.65224C63.3692 5.80362 63.0568 6.05996 62.8371 6.38886C62.6173 6.71776 62.5 7.10444 62.5 7.5C62.5 8.03043 62.7107 8.53914 63.0858 8.91421C63.4609 9.28929 63.9696 9.5 64.5 9.5ZM47.5 14C47.1044 14 46.7178 14.1173 46.3889 14.3371C46.06 14.5568 45.8036 14.8692 45.6522 15.2346C45.5009 15.6001 45.4613 16.0022 45.5384 16.3902C45.6156 16.7781 45.8061 17.1345 46.0858 17.4142C46.3655 17.6939 46.7219 17.8844 47.1098 17.9616C47.4978 18.0387 47.8999 17.9991 48.2654 17.8478C48.6308 17.6964 48.9432 17.44 49.1629 17.1111C49.3827 16.7822 49.5 16.3956 49.5 16C49.5 15.4696 49.2893 14.9609 48.9142 14.5858C48.5391 14.2107 48.0304 14 47.5 14ZM56 14C55.6044 14 55.2178 14.1173 54.8889 14.3371C54.56 14.5568 54.3036 14.8692 54.1522 15.2346C54.0009 15.6001 53.9613 16.0022 54.0384 16.3902C54.1156 16.7781 54.3061 17.1345 54.5858 17.4142C54.8655 17.6939 55.2219 17.8844 55.6098 17.9616C55.9978 18.0387 56.3999 17.9991 56.7654 17.8478C57.1308 17.6964 57.4432 17.44 57.6629 17.1111C57.8827 16.7822 58 16.3956 58 16C58 15.4696 57.7893 14.9609 57.4142 14.5858C57.0391 14.2107 56.5304 14 56 14ZM64.5 14C64.1044 14 63.7178 14.1173 63.3889 14.3371C63.06 14.5568 62.8036 14.8692 62.6522 15.2346C62.5009 15.6001 62.4613 16.0022 62.5384 16.3902C62.6156 16.7781 62.8061 17.1345 63.0858 17.4142C63.3655 17.6939 63.7219 17.8844 64.1098 17.9616C64.4978 18.0387 64.8999 17.9991 65.2654 17.8478C65.6308 17.6964 65.9432 17.44 66.1629 17.1111C66.3827 16.7822 66.5 16.3956 66.5 16C66.5 15.4696 66.2893 14.9609 65.9142 14.5858C65.5391 14.2107 65.0304 14 64.5 14ZM47.5 22.5C47.1044 22.5 46.7178 22.6173 46.3889 22.8371C46.06 23.0568 45.8036 23.3692 45.6522 23.7346C45.5009 24.1001 45.4613 24.5022 45.5384 24.8902C45.6156 25.2781 45.8061 25.6345 46.0858 25.9142C46.3655 26.1939 46.7219 26.3844 47.1098 26.4616C47.4978 26.5387 47.8999 26.4991 48.2654 26.3478C48.6308 26.1964 48.9432 25.94 49.1629 25.6111C49.3827 25.2822 49.5 24.8956 49.5 24.5C49.5 23.9696 49.2893 23.4609 48.9142 23.0858C48.5391 22.7107 48.0304 22.5 47.5 22.5ZM56 22.5C55.6044 22.5 55.2178 22.6173 54.8889 22.8371C54.56 23.0568 54.3036 23.3692 54.1522 23.7346C54.0009 24.1001 53.9613 24.5022 54.0384 24.8902C54.1156 25.2781 54.3061 25.6345 54.5858 25.9142C54.8655 26.1939 55.2219 26.3844 55.6098 26.4616C55.9978 26.5387 56.3999 26.4991 56.7654 26.3478C57.1308 26.1964 57.4432 25.94 57.6629 25.6111C57.8827 25.2822 58 24.8956 58 24.5C58 23.9696 57.7893 23.4609 57.4142 23.0858C57.0391 22.7107 56.5304 22.5 56 22.5ZM64.5 22.5C64.1044 22.5 63.7178 22.6173 63.3889 22.8371C63.06 23.0568 62.8036 23.3692 62.6522 23.7346C62.5009 24.1001 62.4613 24.5022 62.5384 24.8902C62.6156 25.2781 62.8061 25.6345 63.0858 25.9142C63.3655 26.1939 63.7219 26.3844 64.1098 26.4616C64.4978 26.5387 64.8999 26.4991 65.2654 26.3478C65.6308 26.1964 65.9432 25.94 66.1629 25.6111C66.3827 25.2822 66.5 24.8956 66.5 24.5C66.5 23.9696 66.2893 23.4609 65.9142 23.0858C65.5391 22.7107 65.0304 22.5 64.5 22.5Z" fill="white"/>
</g>
<defs>
<clipPath id="clip0_27_2700">
<rect width="72" height="32" rx="5" fill="white"/>
</clipPath>
</defs>
</svg>
