<svg width="72" height="32" viewBox="0 0 72 32" fill="none" xmlns="http://www.w3.org/2000/svg">
<g clip-path="url(#clip0_27_2740)">
<path d="M20 2H12C11.4696 2 10.9609 2.21071 10.5858 2.58579C10.2107 2.96086 10 3.46957 10 4V28C10 28.5304 10.2107 29.0391 10.5858 29.4142C10.9609 29.7893 11.4696 30 12 30H20C20.5304 30 21.0391 29.7893 21.4142 29.4142C21.7893 29.0391 22 28.5304 22 28V4C22 3.46957 21.7893 2.96086 21.4142 2.58579C21.0391 2.21071 20.5304 2 20 2ZM16 26C15.7033 26 15.4133 25.912 15.1666 25.7472C14.92 25.5824 14.7277 25.3481 14.6142 25.074C14.5006 24.7999 14.4709 24.4983 14.5288 24.2074C14.5867 23.9164 14.7296 23.6491 14.9393 23.4393C15.1491 23.2296 15.4164 23.0867 15.7074 23.0288C15.9983 22.9709 16.2999 23.0007 16.574 23.1142C16.8481 23.2277 17.0824 23.42 17.2472 23.6666C17.412 23.9133 17.5 24.2033 17.5 24.5C17.5 24.8978 17.342 25.2794 17.0607 25.5607C16.7794 25.842 16.3978 26 16 26ZM16 17.5C15.7033 17.5 15.4133 17.412 15.1666 17.2472C14.92 17.0824 14.7277 16.8481 14.6142 16.574C14.5006 16.2999 14.4709 15.9983 14.5288 15.7074C14.5867 15.4164 14.7296 15.1491 14.9393 14.9393C15.1491 14.7296 15.4164 14.5867 15.7074 14.5288C15.9983 14.4709 16.2999 14.5006 16.574 14.6142C16.8481 14.7277 17.0824 14.92 17.2472 15.1666C17.412 15.4133 17.5 15.7033 17.5 16C17.5 16.3978 17.342 16.7794 17.0607 17.0607C16.7794 17.342 16.3978 17.5 16 17.5ZM16 9C15.7033 9 15.4133 8.91203 15.1666 8.7472C14.92 8.58238 14.7277 8.34811 14.6142 8.07403C14.5006 7.79994 14.4709 7.49834 14.5288 7.20736C14.5867 6.91639 14.7296 6.64912 14.9393 6.43934C15.1491 6.22956 15.4164 6.0867 15.7074 6.02882C15.9983 5.97094 16.2999 6.00065 16.574 6.11418C16.8481 6.22771 17.0824 6.41997 17.2472 6.66664C17.412 6.91332 17.5 7.20333 17.5 7.5C17.5 7.89782 17.342 8.27936 17.0607 8.56066C16.7794 8.84196 16.3978 9 16 9Z" fill="white"/>
<path d="M54 7.5C54 7.10444 54.1173 6.71776 54.3371 6.38886C54.5568 6.05996 54.8692 5.80362 55.2346 5.65224C55.6001 5.50087 56.0022 5.46126 56.3902 5.53843C56.7781 5.6156 57.1345 5.80608 57.4142 6.08579C57.6939 6.36549 57.8844 6.72186 57.9616 7.10982C58.0387 7.49778 57.9991 7.89992 57.8478 8.26537C57.6964 8.63082 57.44 8.94318 57.1111 9.16294C56.7822 9.3827 56.3956 9.5 56 9.5C55.4696 9.5 54.9609 9.28929 54.5858 8.91421C54.2107 8.53914 54 8.03043 54 7.5ZM56 14C55.6044 14 55.2178 14.1173 54.8889 14.3371C54.56 14.5568 54.3036 14.8692 54.1522 15.2346C54.0009 15.6001 53.9613 16.0022 54.0384 16.3902C54.1156 16.7781 54.3061 17.1345 54.5858 17.4142C54.8655 17.6939 55.2219 17.8844 55.6098 17.9616C55.9978 18.0387 56.3999 17.9991 56.7654 17.8478C57.1308 17.6964 57.4432 17.44 57.6629 17.1111C57.8827 16.7822 58 16.3956 58 16C58 15.4696 57.7893 14.9609 57.4142 14.5858C57.0391 14.2107 56.5304 14 56 14ZM56 22.5C55.6044 22.5 55.2178 22.6173 54.8889 22.8371C54.56 23.0568 54.3036 23.3692 54.1522 23.7346C54.0009 24.1001 53.9613 24.5022 54.0384 24.8902C54.1156 25.2781 54.3061 25.6345 54.5858 25.9142C54.8655 26.1939 55.2219 26.3844 55.6098 26.4616C55.9978 26.5387 56.3999 26.4991 56.7654 26.3478C57.1308 26.1964 57.4432 25.94 57.6629 25.6111C57.8827 25.2822 58 24.8956 58 24.5C58 23.9696 57.7893 23.4609 57.4142 23.0858C57.0391 22.7107 56.5304 22.5 56 22.5Z" fill="white"/>
</g>
<defs>
<clipPath id="clip0_27_2740">
<rect width="72" height="32" rx="5" fill="white"/>
</clipPath>
</defs>
</svg>
