<svg width="72" height="32" viewBox="0 0 72 32" fill="none" xmlns="http://www.w3.org/2000/svg">
<g clip-path="url(#clip0_27_2710)">
<path d="M24 2H8C7.46957 2 6.96086 2.21071 6.58579 2.58579C6.21071 2.96086 6 3.46957 6 4V28C6 28.5304 6.21071 29.0391 6.58579 29.4142C6.96086 29.7893 7.46957 30 8 30H24C24.5304 30 25.0391 29.7893 25.4142 29.4142C25.7893 29.0391 26 28.5304 26 28V4C26 3.46957 25.7893 2.96086 25.4142 2.58579C25.0391 2.21071 24.5304 2 24 2ZM12.5 25C12.2033 25 11.9133 24.912 11.6666 24.7472C11.42 24.5824 11.2277 24.3481 11.1142 24.074C11.0006 23.7999 10.9709 23.4983 11.0288 23.2074C11.0867 22.9164 11.2296 22.6491 11.4393 22.4393C11.6491 22.2296 11.9164 22.0867 12.2074 22.0288C12.4983 21.9709 12.7999 22.0007 13.074 22.1142C13.3481 22.2277 13.5824 22.42 13.7472 22.6666C13.912 22.9133 14 23.2033 14 23.5C14 23.8978 13.842 24.2794 13.5607 24.5607C13.2794 24.842 12.8978 25 12.5 25ZM12.5 17.5C12.2033 17.5 11.9133 17.412 11.6666 17.2472C11.42 17.0824 11.2277 16.8481 11.1142 16.574C11.0006 16.2999 10.9709 15.9983 11.0288 15.7074C11.0867 15.4164 11.2296 15.1491 11.4393 14.9393C11.6491 14.7296 11.9164 14.5867 12.2074 14.5288C12.4983 14.4709 12.7999 14.5006 13.074 14.6142C13.3481 14.7277 13.5824 14.92 13.7472 15.1666C13.912 15.4133 14 15.7033 14 16C14 16.3978 13.842 16.7794 13.5607 17.0607C13.2794 17.342 12.8978 17.5 12.5 17.5ZM12.5 10C12.2033 10 11.9133 9.91203 11.6666 9.7472C11.42 9.58238 11.2277 9.34811 11.1142 9.07403C11.0006 8.79994 10.9709 8.49834 11.0288 8.20736C11.0867 7.91639 11.2296 7.64912 11.4393 7.43934C11.6491 7.22956 11.9164 7.0867 12.2074 7.02882C12.4983 6.97094 12.7999 7.00065 13.074 7.11418C13.3481 7.22771 13.5824 7.41997 13.7472 7.66664C13.912 7.91332 14 8.20333 14 8.5C14 8.89782 13.842 9.27936 13.5607 9.56066C13.2794 9.84196 12.8978 10 12.5 10ZM19.5 25C19.2033 25 18.9133 24.912 18.6666 24.7472C18.42 24.5824 18.2277 24.3481 18.1142 24.074C18.0007 23.7999 17.9709 23.4983 18.0288 23.2074C18.0867 22.9164 18.2296 22.6491 18.4393 22.4393C18.6491 22.2296 18.9164 22.0867 19.2074 22.0288C19.4983 21.9709 19.7999 22.0007 20.074 22.1142C20.3481 22.2277 20.5824 22.42 20.7472 22.6666C20.912 22.9133 21 23.2033 21 23.5C21 23.8978 20.842 24.2794 20.5607 24.5607C20.2794 24.842 19.8978 25 19.5 25ZM19.5 17.5C19.2033 17.5 18.9133 17.412 18.6666 17.2472C18.42 17.0824 18.2277 16.8481 18.1142 16.574C18.0007 16.2999 17.9709 15.9983 18.0288 15.7074C18.0867 15.4164 18.2296 15.1491 18.4393 14.9393C18.6491 14.7296 18.9164 14.5867 19.2074 14.5288C19.4983 14.4709 19.7999 14.5006 20.074 14.6142C20.3481 14.7277 20.5824 14.92 20.7472 15.1666C20.912 15.4133 21 15.7033 21 16C21 16.3978 20.842 16.7794 20.5607 17.0607C20.2794 17.342 19.8978 17.5 19.5 17.5ZM19.5 10C19.2033 10 18.9133 9.91203 18.6666 9.7472C18.42 9.58238 18.2277 9.34811 18.1142 9.07403C18.0007 8.79994 17.9709 8.49834 18.0288 8.20736C18.0867 7.91639 18.2296 7.64912 18.4393 7.43934C18.6491 7.22956 18.9164 7.0867 19.2074 7.02882C19.4983 6.97094 19.7999 7.00065 20.074 7.11418C20.3481 7.22771 20.5824 7.41997 20.7472 7.66664C20.912 7.91332 21 8.20333 21 8.5C21 8.89782 20.842 9.27936 20.5607 9.56066C20.2794 9.84196 19.8978 10 19.5 10Z" fill="white"/>
<path d="M53.5 7.5C53.5 7.89556 53.3827 8.28224 53.1629 8.61114C52.9432 8.94004 52.6308 9.19639 52.2654 9.34776C51.8999 9.49914 51.4978 9.53874 51.1098 9.46157C50.7219 9.3844 50.3655 9.19392 50.0858 8.91421C49.8061 8.63451 49.6156 8.27814 49.5384 7.89018C49.4613 7.50222 49.5009 7.10009 49.6522 6.73463C49.8036 6.36918 50.06 6.05682 50.3889 5.83706C50.7178 5.6173 51.1044 5.5 51.5 5.5C52.0304 5.5 52.5391 5.71071 52.9142 6.08579C53.2893 6.46086 53.5 6.96957 53.5 7.5ZM60.5 9.5C60.8956 9.5 61.2822 9.3827 61.6111 9.16294C61.94 8.94318 62.1964 8.63082 62.3478 8.26537C62.4991 7.89992 62.5387 7.49778 62.4616 7.10982C62.3844 6.72186 62.1939 6.36549 61.9142 6.08579C61.6345 5.80608 61.2781 5.6156 60.8902 5.53843C60.5022 5.46126 60.1001 5.50087 59.7346 5.65224C59.3692 5.80362 59.0568 6.05996 58.8371 6.38886C58.6173 6.71776 58.5 7.10444 58.5 7.5C58.5 8.03043 58.7107 8.53914 59.0858 8.91421C59.4609 9.28929 59.9696 9.5 60.5 9.5ZM51.5 14C51.1044 14 50.7178 14.1173 50.3889 14.3371C50.06 14.5568 49.8036 14.8692 49.6522 15.2346C49.5009 15.6001 49.4613 16.0022 49.5384 16.3902C49.6156 16.7781 49.8061 17.1345 50.0858 17.4142C50.3655 17.6939 50.7219 17.8844 51.1098 17.9616C51.4978 18.0387 51.8999 17.9991 52.2654 17.8478C52.6308 17.6964 52.9432 17.44 53.1629 17.1111C53.3827 16.7822 53.5 16.3956 53.5 16C53.5 15.4696 53.2893 14.9609 52.9142 14.5858C52.5391 14.2107 52.0304 14 51.5 14ZM60.5 14C60.1044 14 59.7178 14.1173 59.3889 14.3371C59.06 14.5568 58.8036 14.8692 58.6522 15.2346C58.5009 15.6001 58.4613 16.0022 58.5384 16.3902C58.6156 16.7781 58.8061 17.1345 59.0858 17.4142C59.3655 17.6939 59.7219 17.8844 60.1098 17.9616C60.4978 18.0387 60.8999 17.9991 61.2654 17.8478C61.6308 17.6964 61.9432 17.44 62.1629 17.1111C62.3827 16.7822 62.5 16.3956 62.5 16C62.5 15.4696 62.2893 14.9609 61.9142 14.5858C61.5391 14.2107 61.0304 14 60.5 14ZM51.5 22.5C51.1044 22.5 50.7178 22.6173 50.3889 22.8371C50.06 23.0568 49.8036 23.3692 49.6522 23.7346C49.5009 24.1001 49.4613 24.5022 49.5384 24.8902C49.6156 25.2781 49.8061 25.6345 50.0858 25.9142C50.3655 26.1939 50.7219 26.3844 51.1098 26.4616C51.4978 26.5387 51.8999 26.4991 52.2654 26.3478C52.6308 26.1964 52.9432 25.94 53.1629 25.6111C53.3827 25.2822 53.5 24.8956 53.5 24.5C53.5 23.9696 53.2893 23.4609 52.9142 23.0858C52.5391 22.7107 52.0304 22.5 51.5 22.5ZM60.5 22.5C60.1044 22.5 59.7178 22.6173 59.3889 22.8371C59.06 23.0568 58.8036 23.3692 58.6522 23.7346C58.5009 24.1001 58.4613 24.5022 58.5384 24.8902C58.6156 25.2781 58.8061 25.6345 59.0858 25.9142C59.3655 26.1939 59.7219 26.3844 60.1098 26.4616C60.4978 26.5387 60.8999 26.4991 61.2654 26.3478C61.6308 26.1964 61.9432 25.94 62.1629 25.6111C62.3827 25.2822 62.5 24.8956 62.5 24.5C62.5 23.9696 62.2893 23.4609 61.9142 23.0858C61.5391 22.7107 61.0304 22.5 60.5 22.5Z" fill="white"/>
</g>
<defs>
<clipPath id="clip0_27_2710">
<rect width="72" height="32" rx="5" fill="white"/>
</clipPath>
</defs>
</svg>
