<svg width="72" height="32" viewBox="0 0 72 32" fill="none" xmlns="http://www.w3.org/2000/svg">
<g clip-path="url(#clip0_27_2720)">
<path d="M16 3C13.4288 3 10.9154 3.76244 8.77759 5.1909C6.63975 6.61935 4.97351 8.64968 3.98957 11.0251C3.00563 13.4006 2.74819 16.0144 3.2498 18.5362C3.75141 21.0579 4.98953 23.3743 6.80762 25.1924C8.6257 27.0105 10.9421 28.2486 13.4638 28.7502C15.9856 29.2518 18.5995 28.9944 20.9749 28.0104C23.3503 27.0265 25.3807 25.3603 26.8091 23.2224C28.2376 21.0846 29 18.5712 29 16C28.9957 12.5535 27.6247 9.2494 25.1876 6.81236C22.7506 4.37532 19.4465 3.0043 16 3ZM10.5 17.5C10.2033 17.5 9.91332 17.412 9.66665 17.2472C9.41998 17.0824 9.22772 16.8481 9.11419 16.574C9.00065 16.2999 8.97095 15.9983 9.02883 15.7074C9.08671 15.4164 9.22957 15.1491 9.43935 14.9393C9.64912 14.7296 9.9164 14.5867 10.2074 14.5288C10.4983 14.4709 10.7999 14.5006 11.074 14.6142C11.3481 14.7277 11.5824 14.92 11.7472 15.1666C11.912 15.4133 12 15.7033 12 16C12 16.3978 11.842 16.7794 11.5607 17.0607C11.2794 17.342 10.8978 17.5 10.5 17.5ZM16 17.5C15.7033 17.5 15.4133 17.412 15.1667 17.2472C14.92 17.0824 14.7277 16.8481 14.6142 16.574C14.5007 16.2999 14.471 15.9983 14.5288 15.7074C14.5867 15.4164 14.7296 15.1491 14.9393 14.9393C15.1491 14.7296 15.4164 14.5867 15.7074 14.5288C15.9983 14.4709 16.2999 14.5006 16.574 14.6142C16.8481 14.7277 17.0824 14.92 17.2472 15.1666C17.412 15.4133 17.5 15.7033 17.5 16C17.5 16.3978 17.342 16.7794 17.0607 17.0607C16.7794 17.342 16.3978 17.5 16 17.5ZM21.5 17.5C21.2033 17.5 20.9133 17.412 20.6667 17.2472C20.42 17.0824 20.2277 16.8481 20.1142 16.574C20.0007 16.2999 19.9709 15.9983 20.0288 15.7074C20.0867 15.4164 20.2296 15.1491 20.4393 14.9393C20.6491 14.7296 20.9164 14.5867 21.2074 14.5288C21.4983 14.4709 21.7999 14.5006 22.074 14.6142C22.3481 14.7277 22.5824 14.92 22.7472 15.1666C22.912 15.4133 23 15.7033 23 16C23 16.3978 22.842 16.7794 22.5607 17.0607C22.2794 17.342 21.8978 17.5 21.5 17.5Z" fill="white"/>
<path d="M56 2.5C53.33 2.5 50.7199 3.29176 48.4998 4.77516C46.2797 6.25856 44.5494 8.36697 43.5276 10.8338C42.5058 13.3006 42.2385 16.015 42.7594 18.6337C43.2803 21.2525 44.5661 23.6579 46.4541 25.5459C48.3421 27.434 50.7475 28.7197 53.3663 29.2406C55.985 29.7615 58.6994 29.4942 61.1662 28.4724C63.633 27.4506 65.7414 25.7203 67.2248 23.5002C68.7082 21.2801 69.5 18.67 69.5 16C69.496 12.4208 68.0724 8.98932 65.5416 6.45844C63.0107 3.92756 59.5792 2.50397 56 2.5ZM56 26.5C53.9233 26.5 51.8932 25.8842 50.1665 24.7304C48.4398 23.5767 47.094 21.9368 46.2993 20.0182C45.5046 18.0996 45.2966 15.9884 45.7018 13.9516C46.1069 11.9148 47.1069 10.0438 48.5754 8.57538C50.0438 7.10693 51.9148 6.1069 53.9516 5.70175C55.9884 5.29661 58.0996 5.50454 60.0182 6.29926C61.9368 7.09399 63.5767 8.4398 64.7304 10.1665C65.8842 11.8932 66.5 13.9233 66.5 16C66.497 18.7839 65.3898 21.4528 63.4213 23.4213C61.4529 25.3898 58.7839 26.497 56 26.5ZM54 16C54 16.3956 53.8827 16.7822 53.6629 17.1111C53.4432 17.44 53.1308 17.6964 52.7654 17.8478C52.3999 17.9991 51.9978 18.0387 51.6098 17.9616C51.2219 17.8844 50.8655 17.6939 50.5858 17.4142C50.3061 17.1345 50.1156 16.7781 50.0384 16.3902C49.9613 16.0022 50.0009 15.6001 50.1522 15.2346C50.3036 14.8692 50.56 14.5568 50.8889 14.3371C51.2178 14.1173 51.6044 14 52 14C52.5304 14 53.0391 14.2107 53.4142 14.5858C53.7893 14.9609 54 15.4696 54 16ZM62 16C62 16.3956 61.8827 16.7822 61.6629 17.1111C61.4432 17.44 61.1308 17.6964 60.7654 17.8478C60.3999 17.9991 59.9978 18.0387 59.6098 17.9616C59.2219 17.8844 58.8655 17.6939 58.5858 17.4142C58.3061 17.1345 58.1156 16.7781 58.0384 16.3902C57.9613 16.0022 58.0009 15.6001 58.1522 15.2346C58.3036 14.8692 58.56 14.5568 58.8889 14.3371C59.2178 14.1173 59.6044 14 60 14C60.5304 14 61.0391 14.2107 61.4142 14.5858C61.7893 14.9609 62 15.4696 62 16Z" fill="white"/>
</g>
<defs>
<clipPath id="clip0_27_2720">
<rect width="72" height="32" rx="5" fill="white"/>
</clipPath>
</defs>
</svg>
