<svg width="72" height="32" viewBox="0 0 72 32" fill="none" xmlns="http://www.w3.org/2000/svg">
<g clip-path="url(#clip0_27_2715)">
<path d="M28 10H4C3.46957 10 2.96086 10.2107 2.58579 10.5858C2.21071 10.9609 2 11.4696 2 12V20C2 20.5304 2.21071 21.0391 2.58579 21.4142C2.96086 21.7893 3.46957 22 4 22H28C28.5304 22 29.0391 21.7893 29.4142 21.4142C29.7893 21.0391 30 20.5304 30 20V12C30 11.4696 29.7893 10.9609 29.4142 10.5858C29.0391 10.2107 28.5304 10 28 10ZM7.5 17.5C7.20333 17.5 6.91332 17.412 6.66664 17.2472C6.41997 17.0824 6.22771 16.8481 6.11418 16.574C6.00065 16.2999 5.97094 15.9983 6.02882 15.7074C6.0867 15.4164 6.22956 15.1491 6.43934 14.9393C6.64912 14.7296 6.91639 14.5867 7.20736 14.5288C7.49834 14.4709 7.79994 14.5006 8.07403 14.6142C8.34811 14.7277 8.58238 14.92 8.7472 15.1666C8.91203 15.4133 9 15.7033 9 16C9 16.3978 8.84196 16.7794 8.56066 17.0607C8.27936 17.342 7.89782 17.5 7.5 17.5ZM16 17.5C15.7033 17.5 15.4133 17.412 15.1666 17.2472C14.92 17.0824 14.7277 16.8481 14.6142 16.574C14.5006 16.2999 14.4709 15.9983 14.5288 15.7074C14.5867 15.4164 14.7296 15.1491 14.9393 14.9393C15.1491 14.7296 15.4164 14.5867 15.7074 14.5288C15.9983 14.4709 16.2999 14.5006 16.574 14.6142C16.8481 14.7277 17.0824 14.92 17.2472 15.1666C17.412 15.4133 17.5 15.7033 17.5 16C17.5 16.3978 17.342 16.7794 17.0607 17.0607C16.7794 17.342 16.3978 17.5 16 17.5ZM24.5 17.5C24.2033 17.5 23.9133 17.412 23.6666 17.2472C23.42 17.0824 23.2277 16.8481 23.1142 16.574C23.0007 16.2999 22.9709 15.9983 23.0288 15.7074C23.0867 15.4164 23.2296 15.1491 23.4393 14.9393C23.6491 14.7296 23.9164 14.5867 24.2074 14.5288C24.4983 14.4709 24.7999 14.5006 25.074 14.6142C25.3481 14.7277 25.5824 14.92 25.7472 15.1666C25.912 15.4133 26 15.7033 26 16C26 16.3978 25.842 16.7794 25.5607 17.0607C25.2794 17.342 24.8978 17.5 24.5 17.5Z" fill="white"/>
<path d="M58 16C58 16.3956 57.8827 16.7822 57.6629 17.1111C57.4432 17.44 57.1308 17.6964 56.7654 17.8478C56.3999 17.9991 55.9978 18.0387 55.6098 17.9616C55.2219 17.8844 54.8655 17.6939 54.5858 17.4142C54.3061 17.1345 54.1156 16.7781 54.0384 16.3902C53.9613 16.0022 54.0009 15.6001 54.1522 15.2346C54.3036 14.8692 54.56 14.5568 54.8889 14.3371C55.2178 14.1173 55.6044 14 56 14C56.5304 14 57.0391 14.2107 57.4142 14.5858C57.7893 14.9609 58 15.4696 58 16ZM47.5 14C47.1044 14 46.7178 14.1173 46.3889 14.3371C46.06 14.5568 45.8036 14.8692 45.6522 15.2346C45.5009 15.6001 45.4613 16.0022 45.5384 16.3902C45.6156 16.7781 45.8061 17.1345 46.0858 17.4142C46.3655 17.6939 46.7219 17.8844 47.1098 17.9616C47.4978 18.0387 47.8999 17.9991 48.2654 17.8478C48.6308 17.6964 48.9432 17.44 49.1629 17.1111C49.3827 16.7822 49.5 16.3956 49.5 16C49.5 15.4696 49.2893 14.9609 48.9142 14.5858C48.5391 14.2107 48.0304 14 47.5 14ZM64.5 14C64.1044 14 63.7178 14.1173 63.3889 14.3371C63.06 14.5568 62.8036 14.8692 62.6522 15.2346C62.5009 15.6001 62.4613 16.0022 62.5384 16.3902C62.6156 16.7781 62.8061 17.1345 63.0858 17.4142C63.3655 17.6939 63.7219 17.8844 64.1098 17.9616C64.4978 18.0387 64.8999 17.9991 65.2654 17.8478C65.6308 17.6964 65.9432 17.44 66.1629 17.1111C66.3827 16.7822 66.5 16.3956 66.5 16C66.5 15.4696 66.2893 14.9609 65.9142 14.5858C65.5391 14.2107 65.0304 14 64.5 14Z" fill="white"/>
</g>
<defs>
<clipPath id="clip0_27_2715">
<rect width="72" height="32" rx="5" fill="white"/>
</clipPath>
</defs>
</svg>
