<svg width="72" height="32" viewBox="0 0 72 32" fill="none" xmlns="http://www.w3.org/2000/svg">
<g clip-path="url(#clip0_27_2730)">
<path d="M19.5 16C19.5 16.6922 19.2947 17.3689 18.9101 17.9445C18.5256 18.5201 17.9789 18.9687 17.3394 19.2336C16.6999 19.4985 15.9961 19.5678 15.3172 19.4327C14.6383 19.2977 14.0146 18.9644 13.5251 18.4749C13.0356 17.9854 12.7023 17.3617 12.5673 16.6828C12.4322 16.0039 12.5015 15.3001 12.7664 14.6606C13.0313 14.0211 13.4799 13.4744 14.0555 13.0899C14.6311 12.7053 15.3078 12.5 16 12.5C16.9283 12.5 17.8185 12.8687 18.4749 13.5251C19.1313 14.1815 19.5 15.0717 19.5 16ZM6 12.5C5.30777 12.5 4.63108 12.7053 4.05551 13.0899C3.47993 13.4744 3.03133 14.0211 2.76642 14.6606C2.50152 15.3001 2.4322 16.0039 2.56725 16.6828C2.7023 17.3617 3.03564 17.9854 3.52513 18.4749C4.01461 18.9644 4.63825 19.2977 5.31719 19.4327C5.99612 19.5678 6.69985 19.4985 7.33939 19.2336C7.97894 18.9687 8.52556 18.5201 8.91015 17.9445C9.29473 17.3689 9.5 16.6922 9.5 16C9.5 15.0717 9.13125 14.1815 8.47487 13.5251C7.8185 12.8687 6.92826 12.5 6 12.5ZM26 12.5C25.3078 12.5 24.6311 12.7053 24.0555 13.0899C23.4799 13.4744 23.0313 14.0211 22.7664 14.6606C22.5015 15.3001 22.4322 16.0039 22.5673 16.6828C22.7023 17.3617 23.0356 17.9854 23.5251 18.4749C24.0146 18.9644 24.6383 19.2977 25.3172 19.4327C25.9961 19.5678 26.6999 19.4985 27.3394 19.2336C27.9789 18.9687 28.5256 18.5201 28.9101 17.9445C29.2947 17.3689 29.5 16.6922 29.5 16C29.5 15.5404 29.4095 15.0852 29.2336 14.6606C29.0577 14.236 28.7999 13.8501 28.4749 13.5251C28.1499 13.2001 27.764 12.9423 27.3394 12.7664C26.9148 12.5905 26.4596 12.5 26 12.5Z" fill="white"/>
<path d="M56 12C55.2089 12 54.4355 12.2346 53.7777 12.6741C53.1199 13.1136 52.6072 13.7384 52.3045 14.4693C52.0017 15.2002 51.9225 16.0044 52.0769 16.7804C52.2312 17.5563 52.6122 18.269 53.1716 18.8284C53.731 19.3878 54.4437 19.7688 55.2196 19.9231C55.9956 20.0775 56.7998 19.9983 57.5307 19.6955C58.2616 19.3928 58.8864 18.8801 59.3259 18.2223C59.7654 17.5645 60 16.7911 60 16C60 14.9391 59.5786 13.9217 58.8284 13.1716C58.0783 12.4214 57.0609 12 56 12ZM56 17C55.8022 17 55.6089 16.9414 55.4444 16.8315C55.28 16.7216 55.1518 16.5654 55.0761 16.3827C55.0004 16.2 54.9806 15.9989 55.0192 15.8049C55.0578 15.6109 55.153 15.4327 55.2929 15.2929C55.4327 15.153 55.6109 15.0578 55.8049 15.0192C55.9989 14.9806 56.2 15.0004 56.3827 15.0761C56.5654 15.1518 56.7216 15.28 56.8315 15.4444C56.9414 15.6089 57 15.8022 57 16C57 16.2652 56.8946 16.5196 56.7071 16.7071C56.5196 16.8946 56.2652 17 56 17ZM66 12C65.2089 12 64.4355 12.2346 63.7777 12.6741C63.1199 13.1136 62.6072 13.7384 62.3045 14.4693C62.0017 15.2002 61.9225 16.0044 62.0769 16.7804C62.2312 17.5563 62.6122 18.269 63.1716 18.8284C63.731 19.3878 64.4437 19.7688 65.2196 19.9231C65.9956 20.0775 66.7998 19.9983 67.5307 19.6955C68.2616 19.3928 68.8864 18.8801 69.3259 18.2223C69.7654 17.5645 70 16.7911 70 16C70 14.9391 69.5786 13.9217 68.8284 13.1716C68.0783 12.4214 67.0609 12 66 12ZM66 17C65.8022 17 65.6089 16.9414 65.4444 16.8315C65.28 16.7216 65.1518 16.5654 65.0761 16.3827C65.0004 16.2 64.9806 15.9989 65.0192 15.8049C65.0578 15.6109 65.153 15.4327 65.2929 15.2929C65.4327 15.153 65.6109 15.0578 65.8049 15.0192C65.9989 14.9806 66.2 15.0004 66.3827 15.0761C66.5654 15.1518 66.7216 15.28 66.8315 15.4444C66.9414 15.6089 67 15.8022 67 16C67 16.2652 66.8946 16.5196 66.7071 16.7071C66.5196 16.8946 66.2652 17 66 17ZM46 12C45.2089 12 44.4355 12.2346 43.7777 12.6741C43.1199 13.1136 42.6072 13.7384 42.3045 14.4693C42.0017 15.2002 41.9225 16.0044 42.0769 16.7804C42.2312 17.5563 42.6122 18.269 43.1716 18.8284C43.731 19.3878 44.4437 19.7688 45.2196 19.9231C45.9956 20.0775 46.7998 19.9983 47.5307 19.6955C48.2616 19.3928 48.8864 18.8801 49.3259 18.2223C49.7654 17.5645 50 16.7911 50 16C50 14.9391 49.5786 13.9217 48.8284 13.1716C48.0783 12.4214 47.0609 12 46 12ZM46 17C45.8022 17 45.6089 16.9414 45.4444 16.8315C45.28 16.7216 45.1518 16.5654 45.0761 16.3827C45.0004 16.2 44.9806 15.9989 45.0192 15.8049C45.0578 15.6109 45.153 15.4327 45.2929 15.2929C45.4327 15.153 45.6109 15.0578 45.8049 15.0192C45.9989 14.9806 46.2 15.0004 46.3827 15.0761C46.5654 15.1518 46.7216 15.28 46.8315 15.4444C46.9414 15.6089 47 15.8022 47 16C47 16.2652 46.8946 16.5196 46.7071 16.7071C46.5196 16.8946 46.2652 17 46 17Z" fill="white"/>
</g>
<defs>
<clipPath id="clip0_27_2730">
<rect width="72" height="32" rx="5" fill="white"/>
</clipPath>
</defs>
</svg>
