<svg width="72" height="32" viewBox="0 0 72 32" fill="none" xmlns="http://www.w3.org/2000/svg">
<g clip-path="url(#clip0_27_2750)">
<path d="M28 18V26C28 26.2652 27.8946 26.5196 27.7071 26.7071C27.5196 26.8946 27.2652 27 27 27H5C4.73478 27 4.48043 26.8946 4.29289 26.7071C4.10536 26.5196 4 26.2652 4 26V18C4 17.7348 4.10536 17.4804 4.29289 17.2929C4.48043 17.1054 4.73478 17 5 17C5.26522 17 5.51957 17.1054 5.70711 17.2929C5.89464 17.4804 6 17.7348 6 18V25H26V18C26 17.7348 26.1054 17.4804 26.2929 17.2929C26.4804 17.1054 26.7348 17 27 17C27.2652 17 27.5196 17.1054 27.7071 17.2929C27.8946 17.4804 28 17.7348 28 18ZM15.2925 18.7075C15.3854 18.8005 15.4957 18.8742 15.6171 18.9246C15.7385 18.9749 15.8686 19.0008 16 19.0008C16.1314 19.0008 16.2615 18.9749 16.3829 18.9246C16.5043 18.8742 16.6146 18.8005 16.7075 18.7075L21.7075 13.7075C21.8475 13.5676 21.9429 13.3894 21.9815 13.1953C22.0202 13.0012 22.0004 12.8 21.9246 12.6172C21.8489 12.4344 21.7206 12.2782 21.556 12.1683C21.3914 12.0584 21.1979 11.9998 21 12H17V4C17 3.73478 16.8946 3.48043 16.7071 3.29289C16.5196 3.10536 16.2652 3 16 3C15.7348 3 15.4804 3.10536 15.2929 3.29289C15.1054 3.48043 15 3.73478 15 4V12H11C10.8021 11.9998 10.6086 12.0584 10.444 12.1683C10.2794 12.2782 10.1511 12.4344 10.0754 12.6172C9.99963 12.8 9.97982 13.0012 10.0185 13.1953C10.0571 13.3894 10.1525 13.5676 10.2925 13.7075L15.2925 18.7075Z" fill="white"/>
<path d="M68.5 18V26C68.5 26.3978 68.342 26.7794 68.0607 27.0607C67.7794 27.342 67.3978 27.5 67 27.5H45C44.6022 27.5 44.2206 27.342 43.9393 27.0607C43.658 26.7794 43.5 26.3978 43.5 26V18C43.5 17.6022 43.658 17.2206 43.9393 16.9393C44.2206 16.658 44.6022 16.5 45 16.5C45.3978 16.5 45.7794 16.658 46.0607 16.9393C46.342 17.2206 46.5 17.6022 46.5 18V24.5H65.5V18C65.5 17.6022 65.658 17.2206 65.9393 16.9393C66.2206 16.658 66.6022 16.5 67 16.5C67.3978 16.5 67.7794 16.658 68.0607 16.9393C68.342 17.2206 68.5 17.6022 68.5 18ZM54.9388 19.0613C55.0781 19.2011 55.2437 19.312 55.426 19.3878C55.6083 19.4635 55.8038 19.5024 56.0012 19.5024C56.1987 19.5024 56.3941 19.4635 56.5765 19.3878C56.7588 19.312 56.9244 19.2011 57.0637 19.0613L62.0637 14.0612C62.3455 13.7795 62.5039 13.3973 62.5039 12.9987C62.5039 12.6002 62.3455 12.218 62.0637 11.9362C61.782 11.6545 61.3998 11.4961 61.0012 11.4961C60.6027 11.4961 60.2205 11.6545 59.9387 11.9362L57.5 14.375V4C57.5 3.60218 57.342 3.22064 57.0607 2.93934C56.7794 2.65804 56.3978 2.5 56 2.5C55.6022 2.5 55.2206 2.65804 54.9393 2.93934C54.658 3.22064 54.5 3.60218 54.5 4V14.375L52.0612 11.9388C51.9217 11.7992 51.7561 11.6885 51.5738 11.613C51.3915 11.5375 51.1961 11.4986 50.9987 11.4986C50.6002 11.4986 50.218 11.657 49.9362 11.9388C49.7967 12.0783 49.686 12.2439 49.6105 12.4262C49.535 12.6085 49.4961 12.8039 49.4961 13.0013C49.4961 13.3998 49.6545 13.782 49.9362 14.0638L54.9388 19.0613Z" fill="white"/>
</g>
<defs>
<clipPath id="clip0_27_2750">
<rect width="72" height="32" rx="5" fill="white"/>
</clipPath>
</defs>
</svg>
