<svg width="72" height="32" viewBox="0 0 72 32" fill="none" xmlns="http://www.w3.org/2000/svg">
<g clip-path="url(#clip0_27_2745)">
<path d="M9.2925 10.7075C9.10486 10.5199 8.99944 10.2654 8.99944 10C8.99944 9.73464 9.10486 9.48014 9.2925 9.2925C9.48014 9.10486 9.73464 8.99944 10 8.99944C10.2654 8.99944 10.5199 9.10486 10.7075 9.2925L15 13.5863V3C15 2.73478 15.1054 2.48043 15.2929 2.29289C15.4804 2.10536 15.7348 2 16 2C16.2652 2 16.5196 2.10536 16.7071 2.29289C16.8946 2.48043 17 2.73478 17 3V13.5863L21.2925 9.2925C21.4801 9.10486 21.7346 8.99944 22 8.99944C22.2654 8.99944 22.5199 9.10486 22.7075 9.2925C22.8951 9.48014 23.0006 9.73464 23.0006 10C23.0006 10.2654 22.8951 10.5199 22.7075 10.7075L16.7075 16.7075C16.6146 16.8005 16.5043 16.8742 16.3829 16.9246C16.2615 16.9749 16.1314 17.0008 16 17.0008C15.8686 17.0008 15.7385 16.9749 15.6171 16.9246C15.4957 16.8742 15.3854 16.8005 15.2925 16.7075L9.2925 10.7075ZM30 17V25C30 25.5304 29.7893 26.0391 29.4142 26.4142C29.0391 26.7893 28.5304 27 28 27H4C3.46957 27 2.96086 26.7893 2.58579 26.4142C2.21071 26.0391 2 25.5304 2 25V17C2 16.4696 2.21071 15.9609 2.58579 15.5858C2.96086 15.2107 3.46957 15 4 15H10.55C10.6157 14.9999 10.6807 15.0128 10.7414 15.0379C10.8021 15.063 10.8573 15.0998 10.9038 15.1462L13.875 18.125C14.1537 18.4047 14.4849 18.6266 14.8495 18.778C15.2142 18.9294 15.6052 19.0074 16 19.0074C16.3948 19.0074 16.7858 18.9294 17.1505 18.778C17.5151 18.6266 17.8463 18.4047 18.125 18.125L21.1 15.15C21.1923 15.0558 21.3181 15.0019 21.45 15H28C28.5304 15 29.0391 15.2107 29.4142 15.5858C29.7893 15.9609 30 16.4696 30 17ZM25 21C25 20.7033 24.912 20.4133 24.7472 20.1666C24.5824 19.92 24.3481 19.7277 24.074 19.6142C23.7999 19.5007 23.4983 19.4709 23.2074 19.5288C22.9164 19.5867 22.6491 19.7296 22.4393 19.9393C22.2296 20.1491 22.0867 20.4164 22.0288 20.7074C21.9709 20.9983 22.0007 21.2999 22.1142 21.574C22.2277 21.8481 22.42 22.0824 22.6666 22.2472C22.9133 22.412 23.2033 22.5 23.5 22.5C23.8978 22.5 24.2794 22.342 24.5607 22.0607C24.842 21.7794 25 21.3978 25 21Z" fill="white"/>
<path d="M48.9388 11.0612C48.657 10.7795 48.4986 10.3973 48.4986 9.99875C48.4986 9.60023 48.657 9.21804 48.9388 8.93625C49.2205 8.65446 49.6027 8.49615 50.0013 8.49615C50.3998 8.49615 50.782 8.65446 51.0638 8.93625L54.5 12.375V3C54.5 2.60218 54.658 2.22064 54.9393 1.93934C55.2206 1.65804 55.6022 1.5 56 1.5C56.3978 1.5 56.7794 1.65804 57.0607 1.93934C57.342 2.22064 57.5 2.60218 57.5 3V12.375L60.9387 8.935C61.2205 8.65321 61.6027 8.4949 62.0012 8.4949C62.3998 8.4949 62.782 8.65321 63.0637 8.935C63.3455 9.21679 63.5039 9.59899 63.5039 9.9975C63.5039 10.396 63.3455 10.7782 63.0637 11.06L57.0637 17.06C56.9244 17.1998 56.7588 17.3108 56.5765 17.3865C56.3941 17.4622 56.1987 17.5012 56.0012 17.5012C55.8038 17.5012 55.6083 17.4622 55.426 17.3865C55.2437 17.3108 55.0781 17.1998 54.9388 17.06L48.9388 11.0612ZM68 14.5H63.5C63.1022 14.5 62.7206 14.658 62.4393 14.9393C62.158 15.2206 62 15.6022 62 16C62 16.3978 62.158 16.7794 62.4393 17.0607C62.7206 17.342 63.1022 17.5 63.5 17.5H67.5V24.5H44.5V17.5H48.5C48.8978 17.5 49.2794 17.342 49.5607 17.0607C49.842 16.7794 50 16.3978 50 16C50 15.6022 49.842 15.2206 49.5607 14.9393C49.2794 14.658 48.8978 14.5 48.5 14.5H44C43.337 14.5 42.7011 14.7634 42.2322 15.2322C41.7634 15.7011 41.5 16.337 41.5 17V25C41.5 25.663 41.7634 26.2989 42.2322 26.7678C42.7011 27.2366 43.337 27.5 44 27.5H68C68.663 27.5 69.2989 27.2366 69.7678 26.7678C70.2366 26.2989 70.5 25.663 70.5 25V17C70.5 16.337 70.2366 15.7011 69.7678 15.2322C69.2989 14.7634 68.663 14.5 68 14.5ZM65.5 21C65.5 20.6044 65.3827 20.2178 65.1629 19.8889C64.9432 19.56 64.6308 19.3036 64.2654 19.1522C63.8999 19.0009 63.4978 18.9613 63.1098 19.0384C62.7219 19.1156 62.3655 19.3061 62.0858 19.5858C61.8061 19.8655 61.6156 20.2219 61.5384 20.6098C61.4613 20.9978 61.5009 21.3999 61.6522 21.7654C61.8036 22.1308 62.06 22.4432 62.3889 22.6629C62.7178 22.8827 63.1044 23 63.5 23C64.0304 23 64.5391 22.7893 64.9142 22.4142C65.2893 22.0391 65.5 21.5304 65.5 21Z" fill="white"/>
</g>
<defs>
<clipPath id="clip0_27_2745">
<rect width="72" height="32" rx="5" fill="white"/>
</clipPath>
</defs>
</svg>
