<svg width="72" height="32" viewBox="0 0 72 32" fill="none" xmlns="http://www.w3.org/2000/svg">
<g clip-path="url(#clip0_27_1157)">
<path d="M25 3H7C6.46957 3 5.96086 3.21071 5.58579 3.58579C5.21071 3.96086 5 4.46957 5 5V10C5 10.1326 5.05268 10.2598 5.14645 10.3536C5.24021 10.4473 5.36739 10.5 5.5 10.5H26.5C26.6326 10.5 26.7598 10.4473 26.8536 10.3536C26.9473 10.2598 27 10.1326 27 10V5C27 4.46957 26.7893 3.96086 26.4142 3.58579C26.0391 3.21071 25.5304 3 25 3ZM17 8H15C14.7348 8 14.4804 7.89464 14.2929 7.70711C14.1054 7.51957 14 7.26522 14 7C14 6.73478 14.1054 6.48043 14.2929 6.29289C14.4804 6.10536 14.7348 6 15 6H17C17.2652 6 17.5196 6.10536 17.7071 6.29289C17.8946 6.48043 18 6.73478 18 7C18 7.26522 17.8946 7.51957 17.7071 7.70711C17.5196 7.89464 17.2652 8 17 8ZM26.5 12.5H5.5C5.36739 12.5 5.24021 12.5527 5.14645 12.6464C5.05268 12.7402 5 12.8674 5 13V19C5 19.1326 5.05268 19.2598 5.14645 19.3536C5.24021 19.4473 5.36739 19.5 5.5 19.5H26.5C26.6326 19.5 26.7598 19.4473 26.8536 19.3536C26.9473 19.2598 27 19.1326 27 19V13C27 12.8674 26.9473 12.7402 26.8536 12.6464C26.7598 12.5527 26.6326 12.5 26.5 12.5ZM17 17H15.0337C14.7758 17.0032 14.5261 16.9087 14.3349 16.7355C14.1436 16.5624 14.0249 16.3233 14.0025 16.0662C13.9934 15.9295 14.0126 15.7923 14.0587 15.6632C14.1049 15.5341 14.1771 15.4159 14.2709 15.3159C14.3647 15.2159 14.478 15.1363 14.6039 15.0819C14.7297 15.0276 14.8654 14.9997 15.0025 15H16.9688C17.2267 14.9968 17.4764 15.0913 17.6677 15.2645C17.8589 15.4376 17.9776 15.6767 18 15.9338C18.0091 16.0705 17.9899 16.2077 17.9438 16.3368C17.8976 16.4659 17.8254 16.5841 17.7316 16.6841C17.6378 16.7841 17.5245 16.8637 17.3986 16.9181C17.2728 16.9724 17.1371 17.0003 17 17ZM26.5 21.5H5.5C5.36739 21.5 5.24021 21.5527 5.14645 21.6464C5.05268 21.7402 5 21.8674 5 22V27C5 27.5304 5.21071 28.0391 5.58579 28.4142C5.96086 28.7893 6.46957 29 7 29H25C25.5304 29 26.0391 28.7893 26.4142 28.4142C26.7893 28.0391 27 27.5304 27 27V22C27 21.8674 26.9473 21.7402 26.8536 21.6464C26.7598 21.5527 26.6326 21.5 26.5 21.5ZM17 26H15C14.7348 26 14.4804 25.8946 14.2929 25.7071C14.1054 25.5196 14 25.2652 14 25C14 24.7348 14.1054 24.4804 14.2929 24.2929C14.4804 24.1054 14.7348 24 15 24H17C17.2652 24 17.5196 24.1054 17.7071 24.2929C17.8946 24.4804 18 24.7348 18 25C18 25.2652 17.8946 25.5196 17.7071 25.7071C17.5196 25.8946 17.2652 26 17 26Z" fill="white"/>
<path d="M58.5 22C58.5 22.3978 58.342 22.7794 58.0607 23.0607C57.7794 23.342 57.3978 23.5 57 23.5H55C54.6022 23.5 54.2206 23.342 53.9393 23.0607C53.658 22.7794 53.5 22.3978 53.5 22C53.5 21.6022 53.658 21.2206 53.9393 20.9393C54.2206 20.658 54.6022 20.5 55 20.5H57C57.3978 20.5 57.7794 20.658 58.0607 20.9393C58.342 21.2206 58.5 21.6022 58.5 22ZM55 11.5H57C57.3978 11.5 57.7794 11.342 58.0607 11.0607C58.342 10.7794 58.5 10.3978 58.5 10C58.5 9.60218 58.342 9.22064 58.0607 8.93934C57.7794 8.65804 57.3978 8.5 57 8.5H55C54.6022 8.5 54.2206 8.65804 53.9393 8.93934C53.658 9.22064 53.5 9.60218 53.5 10C53.5 10.3978 53.658 10.7794 53.9393 11.0607C54.2206 11.342 54.6022 11.5 55 11.5ZM67.5 5V27C67.5 27.663 67.2366 28.2989 66.7678 28.7678C66.2989 29.2366 65.663 29.5 65 29.5H47C46.337 29.5 45.7011 29.2366 45.2322 28.7678C44.7634 28.2989 44.5 27.663 44.5 27V5C44.5 4.33696 44.7634 3.70107 45.2322 3.23223C45.7011 2.76339 46.337 2.5 47 2.5H65C65.663 2.5 66.2989 2.76339 66.7678 3.23223C67.2366 3.70107 67.5 4.33696 67.5 5ZM47.5 5.5V14.5H64.5V5.5H47.5ZM64.5 26.5V17.5H47.5V26.5H64.5Z" fill="white"/>
</g>
<defs>
<clipPath id="clip0_27_1157">
<rect width="72" height="32" rx="5" fill="white"/>
</clipPath>
</defs>
</svg>
