<svg width="72" height="32" viewBox="0 0 72 32" fill="none" xmlns="http://www.w3.org/2000/svg">
<g clip-path="url(#clip0_27_1152)">
<path d="M8.28238 10.0288C8.1445 9.8033 8.05497 9.55166 8.01947 9.28979C7.98396 9.02792 8.00326 8.76152 8.07613 8.5075C8.12571 8.29661 8.21021 8.09551 8.32613 7.9125L10.9999 4.0875V1C10.9996 0.862912 11.0275 0.727227 11.0818 0.601371C11.1362 0.475516 11.2158 0.362178 11.3158 0.268399C11.4158 0.174619 11.534 0.102401 11.6631 0.0562287C11.7922 0.0100567 11.9293 -0.00908249 12.0661 -8.33534e-08C12.3237 0.022118 12.5633 0.141106 12.7366 0.33296C12.9099 0.524813 13.004 0.775251 12.9999 1.03375V4.0525L13.6561 4.875C13.9418 5.23328 14.306 5.52108 14.7207 5.71615C15.1353 5.91122 15.5892 6.00834 16.0474 6C16.4998 5.9872 16.9439 5.87496 17.3481 5.67124C17.7523 5.46753 18.1067 5.17733 18.3861 4.82125L18.9999 4.0525V1C18.9996 0.862912 19.0275 0.727227 19.0818 0.601371C19.1362 0.475516 19.2158 0.362178 19.3158 0.268399C19.4158 0.174619 19.534 0.102401 19.6631 0.0562287C19.7922 0.0100567 19.9293 -0.00908249 20.0661 -8.33534e-08C20.3237 0.022118 20.5633 0.141106 20.7366 0.33296C20.9099 0.524813 21.004 0.775251 20.9999 1.03375V4.0875L23.6774 7.9125C23.7933 8.09551 23.8778 8.29661 23.9274 8.5075C24.0003 8.76152 24.0196 9.02792 23.9841 9.28979C23.9485 9.55166 23.859 9.8033 23.7211 10.0288C23.7161 10.036 23.7115 10.0435 23.7074 10.0513L21.9749 12.7688C21.9294 12.8401 21.8666 12.8988 21.7922 12.9392C21.7179 12.9797 21.6345 13.0006 21.5499 13H10.4499C10.3659 12.9999 10.2833 12.9787 10.2097 12.9383C10.136 12.8979 10.0738 12.8396 10.0286 12.7688L8.29613 10.0513C8.29201 10.0435 8.28742 10.036 8.28238 10.0288ZM26.8449 26.2237C26.8397 26.2091 26.8334 26.1949 26.8261 26.1812L21.7111 15.2875C21.6707 15.2014 21.6065 15.1286 21.5261 15.0776C21.4458 15.0267 21.3525 14.9998 21.2574 15H10.7424C10.6472 14.9998 10.554 15.0267 10.4736 15.0776C10.3932 15.1286 10.3291 15.2014 10.2886 15.2875L5.17363 26.1812C5.16635 26.1949 5.16008 26.2091 5.15488 26.2237C5.04584 26.4867 4.99349 26.7696 5.00124 27.0542C5.00899 27.3387 5.07668 27.6184 5.19988 27.875C5.36411 28.2125 5.62001 28.4971 5.93832 28.696C6.25664 28.8949 6.62451 29.0003 6.99988 29H24.9999C25.375 29.0001 25.7427 28.8946 26.0607 28.6957C26.3788 28.4967 26.6345 28.2123 26.7986 27.875C26.922 27.6185 26.9899 27.3388 26.9979 27.0543C27.0059 26.7698 26.9537 26.4868 26.8449 26.2237Z" fill="white"/>
<path d="M67.2975 26.015C67.29 26 67.2837 25.9837 67.2762 25.9688L61.7087 14.11L64.125 10.32C64.1325 10.3088 64.14 10.2975 64.1462 10.2863C64.3793 9.89771 64.5025 9.45311 64.5025 9C64.5025 8.54689 64.3793 8.10229 64.1462 7.71375C64.1287 7.68375 64.1087 7.65375 64.0887 7.625L61.5 3.93V1.5C61.5 1.10218 61.3419 0.720644 61.0606 0.43934C60.7793 0.158035 60.3978 0 60 0C59.6021 0 59.2206 0.158035 58.9393 0.43934C58.658 0.720644 58.5 1.10218 58.5 1.5V3.875L57.9525 4.55875C57.7183 4.85164 57.4212 5.08808 57.0832 5.25057C56.7452 5.41305 56.375 5.49742 56 5.49742C55.625 5.49742 55.2547 5.41305 54.9168 5.25057C54.5788 5.08808 54.2817 4.85164 54.0475 4.55875L53.5 3.875V1.5C53.5 1.10218 53.3419 0.720644 53.0606 0.43934C52.7793 0.158035 52.3978 0 52 0C51.6021 0 51.2206 0.158035 50.9393 0.43934C50.658 0.720644 50.5 1.10218 50.5 1.5V3.93L47.9137 7.625C47.8937 7.65375 47.8737 7.68375 47.8562 7.71375C47.6231 8.10229 47.4999 8.54689 47.4999 9C47.4999 9.45311 47.6231 9.89771 47.8562 10.2863C47.8562 10.2975 47.87 10.3088 47.8775 10.32L50.2912 14.11L44.7237 25.9688C44.7162 25.9837 44.71 26 44.7025 26.015C44.5395 26.3952 44.4734 26.81 44.5101 27.222C44.5469 27.6341 44.6853 28.0306 44.913 28.376C45.1407 28.7214 45.4506 29.0049 45.8148 29.2011C46.179 29.3972 46.5863 29.5 47 29.5H65C65.4138 29.5002 65.8212 29.3976 66.1856 29.2015C66.55 29.0054 66.86 28.722 67.0878 28.3765C67.3157 28.0311 67.4542 27.6345 67.491 27.2224C67.5278 26.8102 67.4618 26.3953 67.2987 26.015H67.2975ZM56 8.5C56.7255 8.50148 57.4441 8.35856 58.1139 8.07958C58.7837 7.80059 59.3913 7.39112 59.9012 6.875L61.4012 9.0125L59.1775 12.5H52.8225L50.6025 9.015L52.1025 6.8775C52.6122 7.39271 53.2192 7.80147 53.8883 8.08001C54.5574 8.35854 55.2752 8.50131 56 8.5ZM47.7887 26.5L52.9525 15.5H59.0475L64.2112 26.5H47.7887Z" fill="white"/>
</g>
<defs>
<clipPath id="clip0_27_1152">
<rect width="72" height="32" rx="5" fill="white"/>
</clipPath>
</defs>
</svg>
