<svg width="72" height="32" viewBox="0 0 72 32" fill="none" xmlns="http://www.w3.org/2000/svg">
<g clip-path="url(#clip0_27_94)">
<path d="M11.6588 4.6075C11.5781 4.55762 11.5133 4.48582 11.4719 4.4005C11.4306 4.31518 11.4143 4.21985 11.425 4.12563C11.4358 4.03141 11.4731 3.94218 11.5326 3.86837C11.5922 3.79456 11.6715 3.7392 11.7613 3.70875C13.585 3.08037 15.5258 2.86595 17.4428 3.08109C19.3597 3.29622 21.2047 3.93549 22.8438 4.9525C22.9032 4.98995 22.954 5.03949 22.993 5.0979C23.032 5.15631 23.0582 5.22227 23.07 5.29149C23.0818 5.36071 23.0789 5.43164 23.0614 5.49965C23.044 5.56767 23.0124 5.63125 22.9688 5.68625C21.5215 7.53572 19.7466 9.10343 17.7325 10.3113C16.1056 8.02658 14.0411 6.08782 11.6588 4.6075ZM15.9475 11.25C14.1219 8.75888 11.7201 6.74695 8.94753 5.38625C8.86814 5.3477 8.77984 5.33118 8.69188 5.33844C8.60392 5.3457 8.51953 5.37646 8.44753 5.4275C6.20301 7.03301 4.52516 9.30865 3.65503 11.9275C3.63317 11.9945 3.62571 12.0653 3.63313 12.1353C3.64055 12.2054 3.66269 12.2731 3.69809 12.334C3.7335 12.3949 3.78137 12.4476 3.83857 12.4887C3.89578 12.5298 3.96102 12.5584 4.03003 12.5725C5.33473 12.8537 6.66537 12.997 8.00003 13C10.7449 13.0015 13.4571 12.4043 15.9475 11.25ZM28.9225 14.5863C28.6047 11.6869 27.3193 8.9792 25.2738 6.9C25.2239 6.84934 25.1638 6.80989 25.0975 6.7843C25.0312 6.7587 24.9601 6.74754 24.8892 6.75156C24.8182 6.75558 24.7489 6.7747 24.6859 6.80762C24.6229 6.84055 24.5676 6.88653 24.5238 6.9425C22.9417 8.95798 21.0065 10.6691 18.8125 11.9925C19.498 13.18 20.0653 14.4318 20.5063 15.73C22.2971 15.2445 24.1445 14.999 26 15C26.7936 15 27.5865 15.0447 28.375 15.1338C28.4484 15.1411 28.5225 15.1321 28.592 15.1074C28.6615 15.0827 28.7247 15.043 28.777 14.991C28.8293 14.939 28.8695 14.8761 28.8947 14.8068C28.9198 14.7375 28.9293 14.6634 28.9225 14.59V14.5863ZM21.0588 17.6488C21.4293 19.2248 21.6159 20.8385 21.615 22.4575C21.6143 24.0072 21.442 25.552 21.1013 27.0638C21.0795 27.1563 21.0846 27.2532 21.1159 27.343C21.1473 27.4328 21.2036 27.5118 21.2783 27.5708C21.3529 27.6297 21.4429 27.6661 21.5375 27.6757C21.6321 27.6853 21.7275 27.6677 21.8125 27.625C23.7084 26.6739 25.3435 25.2745 26.5757 23.5482C27.808 21.8218 28.6003 19.8208 28.8838 17.7188C28.8923 17.6532 28.8878 17.5866 28.8705 17.5228C28.8532 17.459 28.8233 17.3993 28.7828 17.3471C28.7422 17.2949 28.6917 17.2513 28.6341 17.2187C28.5766 17.1862 28.5132 17.1654 28.4475 17.1575C25.9756 16.8394 23.4653 17.0092 21.0588 17.6575V17.6488ZM18.6038 16.3425C18.2007 15.1605 17.682 14.0213 17.055 12.9413C14.2296 14.2987 11.1347 15.0023 8.00003 15C6.53478 15.0001 5.07352 14.8472 3.64003 14.5438C3.57087 14.5292 3.4994 14.5294 3.43033 14.5445C3.36127 14.5595 3.29618 14.589 3.23937 14.6311C3.18255 14.6731 3.13529 14.7268 3.10072 14.7884C3.06614 14.8501 3.04503 14.9183 3.03878 14.9888C3.01295 15.3221 2.99961 15.6592 2.99878 16C2.99812 17.7801 3.36403 19.5412 4.07372 21.1737C4.7834 22.8062 5.82165 24.275 7.12378 25.4888C7.17871 25.5391 7.24419 25.5765 7.31544 25.5983C7.38669 25.6201 7.46191 25.6257 7.53559 25.6147C7.60928 25.6036 7.67957 25.5763 7.74132 25.5346C7.80308 25.4929 7.85474 25.438 7.89253 25.3738C10.3323 21.2339 14.1105 18.0496 18.6038 16.3463V16.3425ZM9.46128 26.6563C9.42842 26.7136 9.40727 26.7769 9.39904 26.8425C9.39081 26.9081 9.39567 26.9747 9.41334 27.0384C9.43101 27.1021 9.46114 27.1617 9.50198 27.2137C9.54282 27.2656 9.59357 27.309 9.65128 27.3413C12.2654 28.8069 15.3061 29.3232 18.2575 28.8025C18.3453 28.7872 18.4273 28.7483 18.4947 28.6899C18.5621 28.6316 18.6123 28.556 18.64 28.4713C19.2847 26.533 19.6139 24.5039 19.615 22.4613C19.6153 21.054 19.4585 19.6512 19.1475 18.2788C15.0517 19.8746 11.6309 22.8332 9.46128 26.6563Z" fill="white"/>
<path d="M56 2.5C53.33 2.5 50.7199 3.29176 48.4998 4.77516C46.2797 6.25856 44.5494 8.36697 43.5276 10.8338C42.5058 13.3006 42.2385 16.015 42.7594 18.6337C43.2803 21.2525 44.5661 23.6579 46.4541 25.5459C48.3421 27.434 50.7475 28.7197 53.3663 29.2406C55.985 29.7615 58.6994 29.4942 61.1662 28.4724C63.633 27.4506 65.7414 25.7203 67.2248 23.5002C68.7082 21.2801 69.5 18.67 69.5 16C69.496 12.4208 68.0724 8.98932 65.5416 6.45844C63.0107 3.92756 59.5792 2.50397 56 2.5ZM66.3913 14.5C66.2663 14.5 66.1313 14.5 66.0013 14.5C64.2575 14.501 62.5202 14.7134 60.8275 15.1325C60.4604 14.1141 60.0167 13.125 59.5 12.1737C61.0061 11.2172 62.3875 10.0772 63.6125 8.78C65.1097 10.3523 66.0808 12.3513 66.3913 14.5ZM61.25 6.9125C60.2359 7.95309 59.1032 8.87104 57.875 9.6475C56.7747 8.16901 55.4901 6.837 54.0525 5.68375C56.5214 5.21366 59.0769 5.64994 61.25 6.9125ZM50.6925 6.94625C52.4031 8.06101 53.9191 9.44905 55.18 11.055C52.9072 12.0112 50.4658 12.5025 48 12.5C47.375 12.5 46.75 12.4675 46.1325 12.4062C46.9751 10.1139 48.5861 8.1844 50.6913 6.94625H50.6925ZM45.5 16C45.5 15.7837 45.5088 15.57 45.5213 15.3575C46.3441 15.4518 47.1717 15.4994 48 15.5C51.0534 15.5026 54.0722 14.854 56.855 13.5975C57.2868 14.3876 57.6595 15.2086 57.97 16.0537C57.0439 16.4253 56.1451 16.8614 55.28 17.3587C52.6418 18.8819 50.3552 20.9453 48.57 23.4137C47.596 22.4405 46.8235 21.2848 46.2967 20.0126C45.7699 18.7405 45.4992 17.3769 45.5 16ZM50.9713 25.215C52.5125 23.0706 54.4921 21.2785 56.7788 19.9575C57.4247 19.5865 58.0926 19.255 58.7788 18.965C59.0005 20.1185 59.1122 21.2904 59.1125 22.465C59.1135 23.6965 58.9921 24.925 58.75 26.1325C56.1364 26.8436 53.3489 26.5148 50.9725 25.215H50.9713ZM62.0075 24.6038C62.0775 23.8938 62.115 23.1788 62.115 22.4613C62.1142 20.9683 61.9583 19.4795 61.65 18.0187C63.0745 17.6751 64.5346 17.501 66 17.5C66.125 17.5 66.2588 17.5 66.3888 17.5C66.1824 18.9205 65.6871 20.2837 64.9336 21.5055C64.1801 22.7272 63.1842 23.7817 62.0075 24.6038Z" fill="white"/>
</g>
<defs>
<clipPath id="clip0_27_94">
<rect width="72" height="32" rx="5" fill="white"/>
</clipPath>
</defs>
</svg>
