<svg width="72" height="32" viewBox="0 0 72 32" fill="none" xmlns="http://www.w3.org/2000/svg">
<g clip-path="url(#clip0_27_4685)">
<path d="M23.708 9.70751L20.0005 13.4138V18.5863L23.708 22.2925C23.8009 22.3854 23.8746 22.4957 23.9249 22.6171C23.9752 22.7385 24.001 22.8686 24.001 23C24.001 23.1314 23.9752 23.2615 23.9249 23.3829C23.8746 23.5043 23.8009 23.6146 23.708 23.7075C23.6151 23.8004 23.5048 23.8741 23.3834 23.9244C23.262 23.9747 23.1319 24.0006 23.0005 24.0006C22.8691 24.0006 22.739 23.9747 22.6176 23.9244C22.4962 23.8741 22.3859 23.8004 22.293 23.7075L18.5867 20H13.4142L9.70799 23.7075C9.52035 23.8951 9.26585 24.0006 9.00049 24.0006C8.73512 24.0006 8.48063 23.8951 8.29299 23.7075C8.10535 23.5199 7.99993 23.2654 7.99993 23C7.99993 22.7346 8.10535 22.4801 8.29299 22.2925L12.0005 18.5863V13.4138L8.29299 9.70751C8.10535 9.51986 7.99993 9.26537 7.99993 9C7.99993 8.73464 8.10535 8.48015 8.29299 8.29251C8.48063 8.10486 8.73512 7.99945 9.00049 7.99945C9.26585 7.99945 9.52035 8.10486 9.70799 8.2925L13.4142 12H18.5867L22.293 8.2925C22.4806 8.10486 22.7351 7.99945 23.0005 7.99945C23.2659 7.99945 23.5203 8.10486 23.708 8.2925C23.8956 8.48014 24.001 8.73464 24.001 9C24.001 9.26537 23.8956 9.51986 23.708 9.70751ZM17.923 8.9425C18.173 9.03098 18.4478 9.01655 18.6872 8.90239C18.9265 8.78823 19.1107 8.5837 19.1992 8.33375C19.3965 7.77655 19.7317 7.2784 20.1736 6.88575C20.6154 6.4931 21.1495 6.21875 21.726 6.08829C22.3025 5.95782 22.9027 5.9755 23.4706 6.13966C24.0384 6.30382 24.5554 6.60913 24.9734 7.0271C25.3914 7.44507 25.6967 7.96209 25.8608 8.52993C26.025 9.09777 26.0427 9.69795 25.9122 10.2745C25.7817 10.851 25.5074 11.3851 25.1147 11.8269C24.7221 12.2688 24.2239 12.604 23.6667 12.8013C23.4399 12.8767 23.2475 13.0309 23.1246 13.236C23.0017 13.441 22.9563 13.6833 22.9966 13.919C23.037 14.1546 23.1604 14.368 23.3446 14.5205C23.5288 14.6729 23.7614 14.7544 24.0005 14.75C24.1142 14.7503 24.2272 14.7308 24.3342 14.6925C25.2099 14.3825 25.9928 13.8558 26.6099 13.1615C27.227 12.4672 27.6582 11.6279 27.8633 10.7219C28.0684 9.81593 28.0407 8.87275 27.7827 7.98037C27.5247 7.08799 27.045 6.27548 26.3881 5.61863C25.7313 4.96179 24.9188 4.48201 24.0264 4.22405C23.134 3.96609 22.1908 3.93835 21.2848 4.14342C20.3788 4.3485 19.5395 4.7797 18.8452 5.39681C18.1509 6.01392 17.6242 6.79682 17.3142 7.6725C17.2277 7.92169 17.2431 8.19497 17.3571 8.43285C17.4711 8.67072 17.6745 8.8539 17.923 8.9425ZM24.3342 17.3175C24.0856 17.2343 23.8142 17.2521 23.5786 17.367C23.3429 17.482 23.1618 17.6849 23.0743 17.932C22.9868 18.1792 22.9998 18.4508 23.1106 18.6885C23.2214 18.9261 23.4211 19.1107 23.6667 19.2025C24.2239 19.3998 24.7221 19.735 25.1147 20.1768C25.5074 20.6187 25.7817 21.1528 25.9122 21.7293C26.0427 22.3058 26.025 22.906 25.8608 23.4738C25.6967 24.0417 25.3914 24.5587 24.9734 24.9767C24.5554 25.3946 24.0384 25.6999 23.4706 25.8641C22.9027 26.0283 22.3025 26.0459 21.726 25.9155C21.1495 25.785 20.6154 25.5107 20.1736 25.118C19.7317 24.7254 19.3965 24.2272 19.1992 23.67C19.1074 23.4244 18.9228 23.2247 18.6852 23.1139C18.4476 23.0031 18.1759 22.99 17.9288 23.0776C17.6816 23.1651 17.4787 23.3462 17.3638 23.5818C17.2488 23.8175 17.231 24.0889 17.3142 24.3375C17.6242 25.2132 18.1509 25.9961 18.8452 26.6132C19.5395 27.2303 20.3788 27.6615 21.2848 27.8666C22.1908 28.0717 23.134 28.0439 24.0264 27.786C24.9188 27.528 25.7313 27.0482 26.3881 26.3914C27.045 25.7345 27.5247 24.922 27.7827 24.0296C28.0407 23.1373 28.0684 22.1941 27.8633 21.2881C27.6582 20.3821 27.227 19.5428 26.6099 18.8485C25.9928 18.1542 25.2099 17.6275 24.3342 17.3175ZM14.0842 23.0675C13.8343 22.979 13.5594 22.9935 13.3201 23.1076C13.0807 23.2218 12.8965 23.4263 12.808 23.6763C12.6107 24.2335 12.2755 24.7316 11.8337 25.1243C11.3918 25.5169 10.8577 25.7913 10.2812 25.9217C9.70468 26.0522 9.10451 26.0345 8.53666 25.8703C7.96882 25.7062 7.4518 25.4009 7.03383 24.9829C6.61586 24.5649 6.31056 24.0479 6.14639 23.4801C5.98223 22.9122 5.96455 22.3121 6.09502 21.7355C6.22548 21.159 6.49983 20.6249 6.89248 20.1831C7.28513 19.7412 7.78329 19.406 8.34049 19.2088C8.58608 19.1169 8.78578 18.9323 8.89659 18.6947C9.0074 18.4571 9.02045 18.1854 8.93293 17.9383C8.84541 17.6911 8.66432 17.4882 8.42866 17.3733C8.193 17.2584 7.92163 17.2406 7.67299 17.3238C6.79731 17.6337 6.0144 18.1604 5.39729 18.8547C4.78018 19.549 4.34898 20.3883 4.14391 21.2943C3.93883 22.2003 3.96657 23.1435 4.22453 24.0359C4.48249 24.9283 4.96227 25.7408 5.61912 26.3976C6.27596 27.0545 7.08847 27.5342 7.98085 27.7922C8.87323 28.0502 9.81641 28.0779 10.7224 27.8728C11.6284 27.6678 12.4677 27.2366 13.162 26.6195C13.8563 26.0023 14.383 25.2194 14.693 24.3438C14.7382 24.219 14.7581 24.0865 14.7516 23.9539C14.745 23.8214 14.7122 23.6915 14.655 23.5718C14.5977 23.4521 14.5172 23.3449 14.4182 23.2566C14.3191 23.1684 14.2035 23.1007 14.078 23.0575L14.0842 23.0675ZM7.67299 14.6925C7.77809 14.7301 7.88885 14.7496 8.00049 14.75C8.23626 14.7499 8.46442 14.6665 8.64467 14.5145C8.82492 14.3625 8.94566 14.1517 8.98559 13.9193C9.02551 13.687 8.98205 13.448 8.86287 13.2445C8.74369 13.0411 8.55646 12.8863 8.33424 12.8075C7.77704 12.6102 7.27888 12.275 6.88623 11.8332C6.49358 11.3913 6.21923 10.8572 6.08877 10.2807C5.9583 9.7042 5.97598 9.10403 6.14014 8.53618C6.30431 7.96834 6.60961 7.45132 7.02758 7.03335C7.44555 6.61538 7.96257 6.31007 8.53041 6.14591C9.09826 5.98175 9.69843 5.96407 10.275 6.09454C10.8515 6.225 11.3856 6.49935 11.8274 6.892C12.2692 7.28465 12.6044 7.7828 12.8017 8.34C12.8439 8.46593 12.9107 8.58221 12.9982 8.68205C13.0858 8.78189 13.1923 8.86329 13.3117 8.9215C13.431 8.97971 13.5608 9.01357 13.6934 9.0211C13.8259 9.02863 13.9587 9.00968 14.0839 8.96535C14.209 8.92103 14.3241 8.85221 14.4224 8.76293C14.5207 8.67365 14.6002 8.56568 14.6564 8.44533C14.7125 8.32498 14.7441 8.19466 14.7493 8.06197C14.7545 7.92928 14.7332 7.79689 14.6867 7.6725C14.3768 6.79682 13.8501 6.01392 13.1558 5.39681C12.4615 4.7797 11.6222 4.3485 10.7162 4.14342C9.81016 3.93835 8.86698 3.96609 7.9746 4.22405C7.08222 4.48201 6.26971 4.96179 5.61287 5.61863C4.95602 6.27548 4.47624 7.08799 4.21828 7.98037C3.96032 8.87275 3.93258 9.81593 4.13765 10.7219C4.34273 11.6279 4.77393 12.4672 5.39104 13.1615C6.00815 13.8558 6.79106 14.3825 7.66674 14.6925H7.67299Z" fill="white"/>
<path d="M45.2576 13.7425C44.693 13.187 44.2439 12.5253 43.9364 11.7954C43.6288 11.0655 43.4688 10.2819 43.4656 9.48989C43.4623 8.69785 43.616 7.91301 43.9176 7.18064C44.2192 6.44828 44.6628 5.78287 45.2229 5.22281C45.7829 4.66275 46.4483 4.21912 47.1807 3.91751C47.9131 3.6159 48.6979 3.46228 49.4899 3.4655C50.282 3.46873 51.0655 3.62874 51.7954 3.9363C52.5253 4.24387 53.1871 4.6929 53.7426 5.2575C53.9961 5.54352 54.131 5.91556 54.1195 6.29764C54.108 6.67971 53.9511 7.043 53.6808 7.31329C53.4106 7.58358 53.0473 7.74048 52.6652 7.75195C52.2831 7.76342 51.9111 7.62859 51.6251 7.375C51.346 7.09595 51.0147 6.87458 50.6501 6.72356C50.2855 6.57253 49.8947 6.4948 49.5001 6.4948C49.1054 6.4948 48.7146 6.57253 48.35 6.72356C47.9854 6.87458 47.6541 7.09595 47.3751 7.375C47.096 7.65406 46.8746 7.98535 46.7236 8.34996C46.5726 8.71457 46.4949 9.10536 46.4949 9.5C46.4949 9.89465 46.5726 10.2854 46.7236 10.65C46.8746 11.0147 47.096 11.3459 47.3751 11.625C47.6569 11.9068 47.8152 12.289 47.8152 12.6875C47.8152 13.086 47.6569 13.4682 47.3751 13.75C47.0933 14.0318 46.7111 14.1901 46.3126 14.1901C45.914 14.1901 45.5319 14.0318 45.2501 13.75L45.2576 13.7425ZM60.3751 7.375C60.6541 7.09595 60.9854 6.87458 61.35 6.72356C61.7146 6.57253 62.1054 6.4948 62.5001 6.4948C62.8947 6.4948 63.2855 6.57253 63.6501 6.72356C64.0147 6.87458 64.346 7.09595 64.6251 7.375C64.9041 7.65406 65.1255 7.98535 65.2765 8.34996C65.4275 8.71457 65.5053 9.10536 65.5053 9.5C65.5053 9.89465 65.4275 10.2854 65.2765 10.65C65.1255 11.0147 64.9041 11.3459 64.6251 11.625C64.3433 11.9068 64.185 12.289 64.185 12.6875C64.185 13.086 64.3433 13.4682 64.6251 13.75C64.9069 14.0318 65.289 14.1901 65.6876 14.1901C66.0861 14.1901 66.4683 14.0318 66.7501 13.75C67.3147 13.1945 67.7637 12.5328 68.0713 11.8029C68.3788 11.073 68.5388 10.2894 68.5421 9.49739C68.5453 8.70535 68.3917 7.92051 68.09 7.18814C67.7884 6.45578 67.3448 5.79037 66.7847 5.23031C66.2247 4.67025 65.5593 4.22662 64.8269 3.92501C64.0946 3.6234 63.3097 3.46978 62.5177 3.473C61.7256 3.47623 60.9421 3.63624 60.2122 3.9438C59.4823 4.25137 58.8205 4.7004 58.2651 5.265C57.9833 5.5468 57.825 5.92899 57.825 6.3275C57.825 6.72602 57.9833 7.10821 58.2651 7.39C58.5469 7.6718 58.929 7.83011 59.3276 7.83011C59.7261 7.83011 60.1083 7.6718 60.3901 7.39L60.3751 7.375ZM64.6176 18.25C64.4777 18.3894 64.3668 18.5549 64.2911 18.7373C64.2153 18.9196 64.1764 19.1151 64.1764 19.3125C64.1764 19.5099 64.2153 19.7054 64.2911 19.8877C64.3668 20.0701 64.4777 20.2356 64.6176 20.375C65.1811 20.9376 65.4982 21.701 65.4989 22.4974C65.4996 23.2937 65.1839 24.0577 64.6213 24.6213C64.0587 25.1848 63.2953 25.5019 62.499 25.5026C61.7026 25.5033 60.9386 25.1876 60.3751 24.625C60.0933 24.3432 59.7111 24.1849 59.3126 24.1849C58.914 24.1849 58.5319 24.3432 58.2501 24.625C57.9683 24.9068 57.81 25.289 57.81 25.6875C57.81 26.086 57.9683 26.4682 58.2501 26.75C58.8055 27.3146 59.4673 27.7636 60.1972 28.0712C60.9271 28.3788 61.7106 28.5388 62.5027 28.542C63.2947 28.5452 64.0796 28.3916 64.8119 28.09C65.5443 27.7884 66.2097 27.3448 66.7698 26.7847C67.3298 26.2246 67.7734 25.5592 68.0751 24.8269C68.3767 24.0945 68.5303 23.3097 68.5271 22.5176C68.5238 21.7256 68.3638 20.942 68.0563 20.2121C67.7487 19.4823 67.2997 18.8205 66.7351 18.265C66.4552 17.9861 66.0767 17.8289 65.6816 17.8275C65.2865 17.8261 64.9069 17.9806 64.6251 18.2575L64.6176 18.25ZM51.6251 24.625C51.346 24.9041 51.0147 25.1254 50.6501 25.2764C50.2855 25.4275 49.8947 25.5052 49.5001 25.5052C49.1054 25.5052 48.7146 25.4275 48.35 25.2764C47.9854 25.1254 47.6541 24.9041 47.3751 24.625C47.096 24.3459 46.8746 24.0147 46.7236 23.65C46.5726 23.2854 46.4949 22.8947 46.4949 22.5C46.4949 22.1054 46.5726 21.7146 46.7236 21.35C46.8746 20.9854 47.096 20.6541 47.3751 20.375C47.6569 20.0932 47.8152 19.711 47.8152 19.3125C47.8152 18.914 47.6569 18.5318 47.3751 18.25C47.0933 17.9682 46.7111 17.8099 46.3126 17.8099C45.914 17.8099 45.5319 17.9682 45.2501 18.25C44.6855 18.8055 44.2364 19.4673 43.9289 20.1971C43.6213 20.927 43.4613 21.7106 43.4581 22.5026C43.4548 23.2947 43.6085 24.0795 43.9101 24.8119C44.2117 25.5442 44.6553 26.2096 45.2154 26.7697C45.7754 27.3298 46.4408 27.7734 47.1732 28.075C47.9056 28.3766 48.6904 28.5302 49.4824 28.527C50.2745 28.5238 51.058 28.3638 51.7879 28.0562C52.5178 27.7486 53.1796 27.2996 53.7351 26.735C53.8746 26.5955 53.9853 26.4298 54.0608 26.2475C54.1363 26.0652 54.1752 25.8698 54.1752 25.6725C54.1752 25.4752 54.1363 25.2798 54.0608 25.0975C53.9853 24.9152 53.8746 24.7495 53.7351 24.61C53.5955 24.4705 53.4299 24.3598 53.2476 24.2843C53.0653 24.2088 52.8699 24.1699 52.6726 24.1699C52.4752 24.1699 52.2798 24.2088 52.0975 24.2843C51.9152 24.3598 51.7496 24.4705 51.6101 24.61L51.6251 24.625ZM60.5001 13.625V18.375L63.5613 21.435C63.8431 21.7168 64.0014 22.099 64.0014 22.4975C64.0014 22.896 63.8431 23.2782 63.5613 23.56C63.2795 23.8418 62.8973 24.0001 62.4988 24.0001C62.1003 24.0001 61.7181 23.8418 61.4363 23.56L58.3751 20.5H53.6251L50.5613 23.5613C50.2795 23.843 49.8973 24.0014 49.4988 24.0014C49.1003 24.0014 48.7181 23.843 48.4363 23.5613C48.1545 23.2795 47.9962 22.8973 47.9962 22.4988C47.9962 22.3014 48.0351 22.106 48.1106 21.9237C48.1861 21.7414 48.2968 21.5758 48.4363 21.4363L51.5001 18.375V13.625L48.4388 10.5613C48.157 10.2795 47.9987 9.89727 47.9987 9.49875C47.9987 9.10024 48.157 8.71805 48.4388 8.43625C48.7206 8.15446 49.1028 7.99615 49.5013 7.99615C49.8998 7.99615 50.282 8.15446 50.5638 8.43625L53.6251 11.5H58.3751L61.4351 8.43876C61.7169 8.15696 62.099 7.99865 62.4976 7.99865C62.8961 7.99865 63.2783 8.15696 63.5601 8.43876C63.8419 8.72055 64.0002 9.10274 64.0002 9.50126C64.0002 9.89977 63.8419 10.282 63.5601 10.5638L60.5001 13.625ZM54.5001 17.5H57.5001V14.5H54.5001V17.5Z" fill="white"/>
</g>
<defs>
<clipPath id="clip0_27_4685">
<rect width="72" height="32" rx="5" fill="white"/>
</clipPath>
</defs>
</svg>
