<svg width="72" height="32" viewBox="0 0 72 32" fill="none" xmlns="http://www.w3.org/2000/svg">
<g clip-path="url(#clip0_27_5227)">
<path d="M26.7408 26.3275C26.8309 26.4244 26.901 26.5381 26.9469 26.6623C26.9927 26.7864 27.0135 26.9184 27.008 27.0506C27.0024 27.1828 26.9707 27.3126 26.9147 27.4325C26.8586 27.5524 26.7793 27.6599 26.6814 27.7489C26.5835 27.8379 26.4688 27.9066 26.3442 27.951C26.2195 27.9953 26.0873 28.0145 25.9551 28.0074C25.823 28.0003 25.6936 27.9671 25.5744 27.9096C25.4552 27.8521 25.3486 27.7715 25.2608 27.6725L23.6483 25.8987C21.6003 27.889 18.8566 29.0017 16.0008 29C10.0008 29 5.06453 24.1337 5.00078 18.14C4.96703 15.0975 6.02828 11.91 8.09203 8.78874L5.28828 5.70374C5.1074 5.51003 5.00826 5.25399 5.01152 4.98898C5.01478 4.72397 5.12019 4.47045 5.30578 4.28124C5.40205 4.18817 5.51603 4.11538 5.64096 4.06719C5.76589 4.019 5.89923 3.99639 6.03307 4.0007C6.1669 4.00501 6.29851 4.03616 6.42008 4.0923C6.54165 4.14844 6.6507 4.22841 6.74078 4.32749L26.7408 26.3275ZM25.482 21.97C25.5395 22.0333 25.6123 22.0808 25.6934 22.1079C25.7745 22.135 25.8612 22.1409 25.9452 22.125C26.0292 22.1091 26.1078 22.0719 26.1733 22.0169C26.2388 21.962 26.2892 21.8912 26.3195 21.8112C26.771 20.5913 27.0017 19.3008 27.0008 18C27.0008 14.075 25.187 9.91499 21.7508 5.96874C20.2068 4.18554 18.469 2.57981 16.5695 1.18124C16.4014 1.06346 16.2011 1.00027 15.9958 1.00027C15.7905 1.00027 15.5902 1.06346 15.422 1.18124C13.7856 2.38783 12.2701 3.75048 10.897 5.24999C10.8124 5.34224 10.7654 5.4629 10.7654 5.58812C10.7654 5.71334 10.8124 5.834 10.897 5.92624L25.482 21.97Z" fill="white"/>
<path d="M47.1104 3.99126C46.9786 3.84277 46.8188 3.7219 46.64 3.63566C46.4612 3.54942 46.2671 3.49953 46.0689 3.48886C45.8707 3.4782 45.6723 3.50698 45.4853 3.57354C45.2983 3.6401 45.1264 3.74312 44.9795 3.87662C44.8326 4.01012 44.7136 4.17144 44.6295 4.35125C44.5454 4.53105 44.4979 4.72576 44.4896 4.92408C44.4813 5.1224 44.5125 5.3204 44.5813 5.50659C44.6501 5.69278 44.7551 5.86347 44.8904 6.00876L47.4604 8.83626C45.5004 11.9025 44.5004 14.98 44.5004 18C44.4996 20.2156 45.1389 22.3842 46.3414 24.2451C47.5438 26.106 49.2582 27.5799 51.2783 28.4896C53.2985 29.3994 55.5385 29.7062 57.7289 29.3732C59.9193 29.0402 61.9668 28.0815 63.6254 26.6125L64.8954 28.0088C65.1643 28.2977 65.5363 28.4689 65.9307 28.4854C66.325 28.5019 66.71 28.3622 67.0021 28.0968C67.2942 27.8313 67.4699 27.4614 67.4911 27.0673C67.5123 26.6731 67.3773 26.2865 67.1154 25.9913L47.1104 3.99126ZM56.0004 26.5C53.7467 26.4977 51.5861 25.6014 49.9925 24.0079C48.399 22.4143 47.5027 20.2536 47.5004 18C47.5004 15.7825 48.1929 13.485 49.5616 11.1475L61.6016 24.3975C60.052 25.7556 58.0609 26.503 56.0004 26.5ZM51.5766 5.93001C51.4378 5.78967 51.328 5.6233 51.2536 5.44043C51.1791 5.25757 51.1415 5.06182 51.1429 4.86439C51.1443 4.66697 51.1847 4.47176 51.2617 4.28997C51.3387 4.10818 51.4508 3.94337 51.5916 3.80501C52.6951 2.70318 53.8815 1.68769 55.1404 0.767507C55.3925 0.591105 55.6927 0.49649 56.0004 0.49649C56.3081 0.49649 56.6083 0.591105 56.8604 0.767507C57.2954 1.07501 67.5004 8.33001 67.5004 18C67.4989 18.5581 67.4571 19.1154 67.3754 19.6675C67.3237 20.024 67.1455 20.35 66.8733 20.586C66.6011 20.8219 66.2531 20.952 65.8929 20.9525C65.8201 20.9521 65.7474 20.9466 65.6754 20.9363C65.2817 20.8791 64.9269 20.6678 64.6889 20.349C64.451 20.0302 64.3495 19.6299 64.4066 19.2363C64.4673 18.8269 64.4987 18.4138 64.5004 18C64.5004 11.3838 58.3141 5.76126 56.0004 3.89001C55.4204 4.35626 54.6004 5.05626 53.6991 5.94501C53.5588 6.08349 53.3926 6.19297 53.21 6.26717C53.0274 6.34137 52.8319 6.37885 52.6348 6.37745C52.4376 6.37606 52.2427 6.33582 52.0612 6.25905C51.8796 6.18227 51.7149 6.07046 51.5766 5.93001Z" fill="white"/>
</g>
<defs>
<clipPath id="clip0_27_5227">
<rect width="72" height="32" rx="5" fill="white"/>
</clipPath>
</defs>
</svg>
