<svg width="72" height="32" viewBox="0 0 72 32" fill="none" xmlns="http://www.w3.org/2000/svg">
<g clip-path="url(#clip0_27_5217)">
<path d="M21.75 5.96874C20.206 4.18554 18.4682 2.57981 16.5688 1.18124C16.4006 1.06346 16.2003 1.00027 15.995 1.00027C15.7897 1.00027 15.5894 1.06346 15.4213 1.18124C13.5253 2.58039 11.7909 4.1861 10.25 5.96874C6.81375 9.91499 5 14.075 5 18C5 20.9174 6.15893 23.7153 8.22183 25.7782C10.2847 27.8411 13.0826 29 16 29C18.9174 29 21.7153 27.8411 23.7782 25.7782C25.8411 23.7153 27 20.9174 27 18C27 14.075 25.1863 9.91499 21.75 5.96874ZM7 18C7 10.8462 13.9338 4.87499 16 3.24999V27C13.6139 26.9973 11.3262 26.0483 9.63896 24.361C7.95171 22.6738 7.00265 20.3861 7 18Z" fill="white"/>
<path d="M56.86 0.771261C56.6079 0.594859 56.3077 0.500244 56 0.500244C55.6923 0.500244 55.3921 0.594859 55.14 0.771261C53.2072 2.19572 51.4388 3.83078 49.8675 5.64626C46.3563 9.67876 44.5 13.9538 44.5 18C44.5 21.05 45.7116 23.9751 47.8683 26.1317C50.0249 28.2884 52.95 29.5 56 29.5C59.05 29.5 61.9751 28.2884 64.1317 26.1317C66.2884 23.9751 67.5 21.05 67.5 18C67.5 8.33001 57.295 1.07501 56.86 0.771261ZM64.26 20H57.5V18H64.5C64.4996 18.6738 64.419 19.3452 64.26 20ZM57.5 15V13H63.375C63.6606 13.6483 63.8979 14.3168 64.085 15H57.5ZM59.9125 7.66126C60.5578 8.40428 61.158 9.18526 61.71 10H57.5V5.18251C58.3505 5.96236 59.156 6.78995 59.9125 7.66126ZM47.5 18C47.5 13.8363 50 10.0788 52.0875 7.66126C52.844 6.78995 53.6495 5.96236 54.5 5.18251V26.365C52.5385 26.0109 50.7634 24.9796 49.4842 23.451C48.205 21.9223 47.5028 19.9933 47.5 18ZM57.5 26.365V23H62.8675C61.5788 24.7714 59.6559 25.9769 57.5 26.365Z" fill="white"/>
</g>
<defs>
<clipPath id="clip0_27_5217">
<rect width="72" height="32" rx="5" fill="white"/>
</clipPath>
</defs>
</svg>
