<svg width="72" height="32" viewBox="0 0 72 32" fill="none" xmlns="http://www.w3.org/2000/svg">
<g clip-path="url(#clip0_27_2139)">
<path d="M21.75 5.96874C20.206 4.18554 18.4682 2.57981 16.5688 1.18124C16.4006 1.06346 16.2003 1.00027 15.995 1.00027C15.7897 1.00027 15.5894 1.06346 15.4213 1.18124C13.5253 2.58039 11.7909 4.1861 10.25 5.96874C6.81375 9.91499 5 14.075 5 18C5 20.9174 6.15893 23.7153 8.22183 25.7782C10.2847 27.8411 13.0826 29 16 29C18.9174 29 21.7153 27.8411 23.7782 25.7782C25.8411 23.7153 27 20.9174 27 18C27 14.075 25.1863 9.91499 21.75 5.96874Z" fill="white"/>
<path d="M56.86 0.771246C56.6079 0.594844 56.3077 0.500229 56 0.500229C55.6923 0.500229 55.3921 0.594844 55.14 0.771246C53.2072 2.19571 51.4388 3.83076 49.8675 5.64625C46.3563 9.67875 44.5 13.9537 44.5 18C44.5 21.05 45.7116 23.9751 47.8683 26.1317C50.0249 28.2884 52.95 29.5 56 29.5C59.05 29.5 61.9751 28.2884 64.1317 26.1317C66.2884 23.9751 67.5 21.05 67.5 18C67.5 8.33 57.295 1.075 56.86 0.771246ZM56 26.5C53.7464 26.4977 51.5857 25.6014 49.9922 24.0078C48.3986 22.4143 47.5023 20.2536 47.5 18C47.5 13.8362 50 10.0787 52.0875 7.66125C53.2793 6.29222 54.5885 5.02992 56 3.88875C57.4115 5.02992 58.7207 6.29222 59.9125 7.66125C62 10.0787 64.5 13.8362 64.5 18C64.4977 20.2536 63.6014 22.4143 62.0078 24.0078C60.4143 25.6014 58.2536 26.4977 56 26.5Z" fill="white"/>
</g>
<defs>
<clipPath id="clip0_27_2139">
<rect width="72" height="32" rx="5" fill="white"/>
</clipPath>
</defs>
</svg>
