<svg width="72" height="32" viewBox="0 0 72 32" fill="none" xmlns="http://www.w3.org/2000/svg">
<g clip-path="url(#clip0_27_1162)">
<path d="M27 19C27 21.9174 25.8411 24.7153 23.7782 26.7782C21.7153 28.8411 18.9174 30 16 30C13.0826 30 10.2847 28.8411 8.22183 26.7782C6.15893 24.7153 5 21.9174 5 19C5 15.1537 6.3375 10.9425 8.6675 7.445C10.9412 4.03625 13.6825 2 16 2C18.3175 2 21.0588 4.03625 23.3325 7.445C25.6625 10.9425 27 15.1537 27 19Z" fill="white"/>
<path d="M63.75 7.1675C61.3825 3.625 58.485 1.5 56 1.5C53.515 1.5 50.6175 3.625 48.25 7.1675C45.8675 10.75 44.5 15.0575 44.5 19C44.5 22.05 45.7116 24.9751 47.8683 27.1317C50.0249 29.2884 52.95 30.5 56 30.5C59.05 30.5 61.9751 29.2884 64.1317 27.1317C66.2884 24.9751 67.5 22.05 67.5 19C67.5 15.0575 66.1325 10.75 63.75 7.1675ZM56 27.5C53.7464 27.4977 51.5857 26.6014 49.9922 25.0078C48.3986 23.4143 47.5023 21.2536 47.5 19C47.5 11.36 53.2738 4.5 56 4.5C58.7262 4.5 64.5 11.36 64.5 19C64.4977 21.2536 63.6014 23.4143 62.0078 25.0078C60.4143 26.6014 58.2536 27.4977 56 27.5Z" fill="white"/>
</g>
<defs>
<clipPath id="clip0_27_1162">
<rect width="72" height="32" rx="5" fill="white"/>
</clipPath>
</defs>
</svg>
