<svg width="72" height="32" viewBox="0 0 72 32" fill="none" xmlns="http://www.w3.org/2000/svg">
<g clip-path="url(#clip0_27_1167)">
<path d="M26.9999 19C26.9963 21.9119 25.8396 24.704 23.7829 26.7654C21.7262 28.8267 18.9368 29.9898 16.0249 30C9.69239 30.015 4.74865 24.625 5.0099 18.2975C5.16115 14.6463 6.47365 10.73 8.66365 7.445C10.9374 4.03625 13.6786 2 15.9999 2C17.6561 2 19.5286 3.04 21.2924 4.875C21.3797 4.96603 21.4294 5.08669 21.4314 5.21279C21.4335 5.3389 21.3879 5.46113 21.3036 5.555L15.2499 12.3337C15.1352 12.4619 15.0555 12.6176 15.0185 12.7856C14.9815 12.9536 14.9885 13.1283 15.0388 13.2928C15.0891 13.4573 15.1809 13.6061 15.3055 13.7247C15.4301 13.8433 15.5831 13.9278 15.7499 13.97L18.8261 14.7388L18.0124 18.8037C17.9605 19.0638 18.0141 19.3339 18.1613 19.5544C18.3085 19.775 18.5373 19.9281 18.7974 19.98C18.864 19.9938 18.9319 20.0005 18.9999 20C19.2307 19.9996 19.4543 19.9193 19.6327 19.7728C19.8111 19.6263 19.9333 19.4226 19.9786 19.1963L20.9786 14.1962C21.0291 13.9443 20.9806 13.6827 20.8433 13.4655C20.706 13.2484 20.4904 13.0924 20.2411 13.03L17.8461 12.4312L22.4574 7.265C22.508 7.20833 22.5708 7.16392 22.641 7.13515C22.7113 7.10637 22.7872 7.09398 22.863 7.09892C22.9388 7.10386 23.0125 7.126 23.0784 7.16366C23.1444 7.20131 23.2009 7.2535 23.2436 7.31625C23.2736 7.35875 23.3024 7.40125 23.3311 7.44125C25.6624 10.9425 26.9999 15.1537 26.9999 19Z" fill="white"/>
<path d="M63.75 7.1675C61.3825 3.625 58.485 1.5 56 1.5C53.515 1.5 50.6175 3.625 48.25 7.1675C45.8675 10.75 44.5 15.0575 44.5 19C44.5 22.05 45.7116 24.9751 47.8683 27.1317C50.0249 29.2884 52.95 30.5 56 30.5C59.05 30.5 61.9751 29.2884 64.1317 27.1317C66.2884 24.9751 67.5 22.05 67.5 19C67.5 15.0575 66.1325 10.75 63.75 7.1675ZM56 27.5C53.7464 27.4977 51.5857 26.6014 49.9922 25.0078C48.3986 23.4143 47.5023 21.2536 47.5 19C47.5 11.36 53.2738 4.5 56 4.5C56.9487 4.5 58.2662 5.33125 59.58 6.735L54.8813 12C54.7094 12.1923 54.5899 12.4257 54.5346 12.6776C54.4792 12.9295 54.4897 13.1915 54.5651 13.4381C54.6405 13.6848 54.7782 13.9079 54.965 14.0858C55.1517 14.2637 55.3812 14.3904 55.6313 14.4537L58.2437 15.1075L57.5238 18.705C57.4851 18.8982 57.485 19.0971 57.5232 19.2904C57.5615 19.4837 57.6375 19.6675 57.7469 19.8314C57.8562 19.9953 57.9968 20.1361 58.1605 20.2457C58.3243 20.3552 58.508 20.4315 58.7013 20.47C58.7996 20.4901 58.8997 20.5001 59 20.5C59.3467 20.4998 59.6826 20.3795 59.9506 20.1596C60.2186 19.9397 60.4021 19.6337 60.47 19.2938L61.47 14.2937C61.5458 13.9156 61.473 13.5228 61.2667 13.1969C61.0605 12.8711 60.7367 12.6371 60.3625 12.5437L58.77 12.145L61.445 9.145C63.15 11.7925 64.5 15.305 64.5 19C64.4977 21.2536 63.6014 23.4143 62.0078 25.0078C60.4143 26.6014 58.2536 27.4977 56 27.5Z" fill="white"/>
</g>
<defs>
<clipPath id="clip0_27_1167">
<rect width="72" height="32" rx="5" fill="white"/>
</clipPath>
</defs>
</svg>
