<svg width="72" height="32" viewBox="0 0 72 32" fill="none" xmlns="http://www.w3.org/2000/svg">
<g clip-path="url(#clip0_27_6545)">
<path d="M32 15V21C32 21.5304 31.7893 22.0391 31.4142 22.4142C31.0391 22.7893 30.5304 23 30 23H28.4137L24 27.4137C23.815 27.6003 23.5947 27.7482 23.352 27.8488C23.1093 27.9494 22.849 28.0008 22.5863 28H12.9137C12.651 28.0008 12.3907 27.9494 12.148 27.8488C11.9053 27.7482 11.685 27.6003 11.5 27.4137L6.58625 22.5C6.39972 22.315 6.25184 22.0947 6.1512 21.852C6.05056 21.6093 5.99916 21.349 6 21.0863V18.5H3V21.5C3 21.7652 2.89464 22.0196 2.70711 22.2071C2.51957 22.3946 2.26522 22.5 2 22.5C1.73478 22.5 1.48043 22.3946 1.29289 22.2071C1.10536 22.0196 1 21.7652 1 21.5V13.5C1 13.2348 1.10536 12.9804 1.29289 12.7929C1.48043 12.6054 1.73478 12.5 2 12.5C2.26522 12.5 2.51957 12.6054 2.70711 12.7929C2.89464 12.9804 3 13.2348 3 13.5V16.5H6V10C6 9.46957 6.21071 8.96086 6.58579 8.58579C6.96086 8.21071 7.46957 8 8 8H15.5V5H12.5C12.2348 5 11.9804 4.89464 11.7929 4.70711C11.6054 4.51957 11.5 4.26522 11.5 4C11.5 3.73478 11.6054 3.48043 11.7929 3.29289C11.9804 3.10536 12.2348 3 12.5 3H20.5C20.7652 3 21.0196 3.10536 21.2071 3.29289C21.3946 3.48043 21.5 3.73478 21.5 4C21.5 4.26522 21.3946 4.51957 21.2071 4.70711C21.0196 4.89464 20.7652 5 20.5 5H17.5V8H22.5863C22.849 7.99916 23.1093 8.05056 23.352 8.1512C23.5947 8.25184 23.815 8.39972 24 8.58625L28.4137 13H30C30.5304 13 31.0391 13.2107 31.4142 13.5858C31.7893 13.9609 32 14.4696 32 15Z" fill="white"/>
<path d="M69.5 12.5H68.125L63.8538 8.2325C63.6222 7.99956 63.3468 7.81487 63.0434 7.68913C62.74 7.5634 62.4147 7.49911 62.0863 7.5H58V5.5H60.5C60.8978 5.5 61.2794 5.34196 61.5607 5.06066C61.842 4.77936 62 4.39782 62 4C62 3.60218 61.842 3.22064 61.5607 2.93934C61.2794 2.65804 60.8978 2.5 60.5 2.5H52.5C52.1022 2.5 51.7206 2.65804 51.4393 2.93934C51.158 3.22064 51 3.60218 51 4C51 4.39782 51.158 4.77936 51.4393 5.06066C51.7206 5.34196 52.1022 5.5 52.5 5.5H55V7.5H48C47.337 7.5 46.7011 7.76339 46.2322 8.23223C45.7634 8.70107 45.5 9.33696 45.5 10V16H43.5V13.5C43.5 13.1022 43.342 12.7206 43.0607 12.4393C42.7794 12.158 42.3978 12 42 12C41.6022 12 41.2206 12.158 40.9393 12.4393C40.658 12.7206 40.5 13.1022 40.5 13.5V21.5C40.5 21.8978 40.658 22.2794 40.9393 22.5607C41.2206 22.842 41.6022 23 42 23C42.3978 23 42.7794 22.842 43.0607 22.5607C43.342 22.2794 43.5 21.8978 43.5 21.5V19H45.5V21.0863C45.4991 21.4147 45.5634 21.74 45.6891 22.0434C45.8149 22.3468 45.9996 22.6222 46.2325 22.8538L51.1462 27.7675C51.3778 28.0004 51.6532 28.1851 51.9566 28.3109C52.26 28.4366 52.5853 28.5009 52.9137 28.5H62.0863C62.4147 28.5009 62.74 28.4366 63.0434 28.3109C63.3468 28.1851 63.6222 28.0004 63.8538 27.7675L68.125 23.5H69.5C70.163 23.5 70.7989 23.2366 71.2678 22.7678C71.7366 22.2989 72 21.663 72 21V15C72 14.337 71.7366 13.7011 71.2678 13.2322C70.7989 12.7634 70.163 12.5 69.5 12.5ZM69 20.5H67.5C67.303 20.4998 67.1078 20.5385 66.9257 20.6138C66.7436 20.6891 66.5782 20.7995 66.4387 20.9387L61.875 25.5H53.125L48.5 20.875V10.5H61.875L66.435 15.0612C66.5749 15.2009 66.7409 15.3116 66.9237 15.3869C67.1065 15.4622 67.3023 15.5006 67.5 15.5H69V20.5Z" fill="white"/>
</g>
<defs>
<clipPath id="clip0_27_6545">
<rect width="72" height="32" rx="5" fill="white"/>
</clipPath>
</defs>
</svg>
