<svg width="72" height="32" viewBox="0 0 72 32" fill="none" xmlns="http://www.w3.org/2000/svg">
<g clip-path="url(#clip0_27_550)">
<path d="M28.555 11.1675L16.555 3.16751C16.3907 3.05787 16.1975 2.99936 16 2.99936C15.8025 2.99936 15.6093 3.05787 15.445 3.16751L3.445 11.1675C3.30801 11.2589 3.19572 11.3827 3.11809 11.5279C3.04046 11.6732 2.99989 11.8353 3 12V25C3 25.5304 3.21071 26.0392 3.58579 26.4142C3.96086 26.7893 4.46957 27 5 27H27C27.5304 27 28.0391 26.7893 28.4142 26.4142C28.7893 26.0392 29 25.5304 29 25V12C29.0001 11.8353 28.9595 11.6732 28.8819 11.5279C28.8043 11.3827 28.692 11.2589 28.555 11.1675ZM5 25V13.9413L13.2375 19.8163C13.4071 19.9374 13.6103 20.0025 13.8188 20.0025H18.1812C18.3897 20.0025 18.5929 19.9374 18.7625 19.8163L27 13.9413V25H5Z" fill="white"/>
<path d="M68.8325 10.75L56.8325 2.75C56.586 2.58554 56.2963 2.49777 56 2.49777C55.7037 2.49777 55.414 2.58554 55.1675 2.75L43.1675 10.75C42.9618 10.8872 42.7933 11.0731 42.6768 11.2912C42.5604 11.5093 42.4996 11.7528 42.5 12V25C42.5 25.663 42.7634 26.2989 43.2322 26.7678C43.7011 27.2366 44.337 27.5 45 27.5H67C67.663 27.5 68.2989 27.2366 68.7678 26.7678C69.2366 26.2989 69.5 25.663 69.5 25V12C69.5004 11.7528 69.4396 11.5093 69.3232 11.2912C69.2067 11.0731 69.0382 10.8872 68.8325 10.75ZM56 5.8025L65.3575 12.0412L57.7013 17.5H54.2988L46.6425 12.0412L56 5.8025ZM45.5 24.5V14.9112L52.9475 20.2212C53.2029 20.4034 53.5089 20.5008 53.8225 20.5H58.185C58.4986 20.5008 58.8046 20.4034 59.06 20.2212L66.5 14.9112V24.5H45.5Z" fill="white"/>
</g>
<defs>
<clipPath id="clip0_27_550">
<rect width="72" height="32" rx="5" fill="white"/>
</clipPath>
</defs>
</svg>
