<svg width="72" height="32" viewBox="0 0 72 32" fill="none" xmlns="http://www.w3.org/2000/svg">
<g clip-path="url(#clip0_27_535)">
<path d="M28 6H4C3.73478 6 3.48043 6.10536 3.29289 6.29289C3.10536 6.48043 3 6.73478 3 7V24C3 24.5304 3.21071 25.0391 3.58579 25.4142C3.96086 25.7893 4.46957 26 5 26H27C27.5304 26 28.0391 25.7893 28.4142 25.4142C28.7893 25.0391 29 24.5304 29 24V7C29 6.73478 28.8946 6.48043 28.7071 6.29289C28.5196 6.10536 28.2652 6 28 6ZM12.3387 16L5 22.7262V9.27375L12.3387 16ZM13.8188 17.3563L15.3188 18.7375C15.5032 18.9069 15.7446 19.0008 15.995 19.0008C16.2454 19.0008 16.4868 18.9069 16.6712 18.7375L18.1712 17.3563L25.4212 24H6.57125L13.8188 17.3563ZM19.6612 16L27 9.2725V22.7275L19.6612 16Z" fill="white"/>
<path d="M68 5.5H44C43.6022 5.5 43.2206 5.65804 42.9393 5.93934C42.658 6.22064 42.5 6.60218 42.5 7V24C42.5 24.663 42.7634 25.2989 43.2322 25.7678C43.7011 26.2366 44.337 26.5 45 26.5H67C67.663 26.5 68.2989 26.2366 68.7678 25.7678C69.2366 25.2989 69.5 24.663 69.5 24V7C69.5 6.60218 69.342 6.22064 69.0607 5.93934C68.7794 5.65804 68.3978 5.5 68 5.5ZM56 15.965L47.8562 8.5H64.1437L56 15.965ZM51.5988 16L45.5 21.59V10.41L51.5988 16ZM53.8188 18.035L54.9862 19.1063C55.2629 19.3599 55.6246 19.5007 56 19.5007C56.3754 19.5007 56.7371 19.3599 57.0138 19.1063L58.1812 18.035L64.1437 23.5H47.8562L53.8188 18.035ZM60.4013 16L66.5 10.41V21.59L60.4013 16Z" fill="white"/>
</g>
<defs>
<clipPath id="clip0_27_535">
<rect width="72" height="32" rx="5" fill="white"/>
</clipPath>
</defs>
</svg>
