<svg width="72" height="32" viewBox="0 0 72 32" fill="none" xmlns="http://www.w3.org/2000/svg">
<g clip-path="url(#clip0_27_3724)">
<path d="M10 12C10 12.2652 9.89464 12.5196 9.70711 12.7071C9.51957 12.8946 9.26522 13 9 13H3C2.73478 13 2.48043 12.8946 2.29289 12.7071C2.10536 12.5196 2 12.2652 2 12C2 11.7348 2.10536 11.4804 2.29289 11.2929C2.48043 11.1054 2.73478 11 3 11H9C9.26522 11 9.51957 11.1054 9.70711 11.2929C9.89464 11.4804 10 11.7348 10 12ZM19 15H13C12.7348 15 12.4804 15.1054 12.2929 15.2929C12.1054 15.4804 12 15.7348 12 16C12 16.2652 12.1054 16.5196 12.2929 16.7071C12.4804 16.8946 12.7348 17 13 17H19C19.2652 17 19.5196 16.8946 19.7071 16.7071C19.8946 16.5196 20 16.2652 20 16C20 15.7348 19.8946 15.4804 19.7071 15.2929C19.5196 15.1054 19.2652 15 19 15ZM23 9H29C29.2652 9 29.5196 8.89464 29.7071 8.70711C29.8946 8.51957 30 8.26522 30 8C30 7.73478 29.8946 7.48043 29.7071 7.29289C29.5196 7.10536 29.2652 7 29 7H23C22.7348 7 22.4804 7.10536 22.2929 7.29289C22.1054 7.48043 22 7.73478 22 8C22 8.26522 22.1054 8.51957 22.2929 8.70711C22.4804 8.89464 22.7348 9 23 9ZM9 15H3C2.73478 15 2.48043 15.1054 2.29289 15.2929C2.10536 15.4804 2 15.7348 2 16V24C2 24.2652 2.10536 24.5196 2.29289 24.7071C2.48043 24.8946 2.73478 25 3 25H9C9.26522 25 9.51957 24.8946 9.70711 24.7071C9.89464 24.5196 10 24.2652 10 24V16C10 15.7348 9.89464 15.4804 9.70711 15.2929C9.51957 15.1054 9.26522 15 9 15ZM29 11H23C22.7348 11 22.4804 11.1054 22.2929 11.2929C22.1054 11.4804 22 11.7348 22 12V24C22 24.2652 22.1054 24.5196 22.2929 24.7071C22.4804 24.8946 22.7348 25 23 25H29C29.2652 25 29.5196 24.8946 29.7071 24.7071C29.8946 24.5196 30 24.2652 30 24V12C30 11.7348 29.8946 11.4804 29.7071 11.2929C29.5196 11.1054 29.2652 11 29 11ZM19 19H13C12.7348 19 12.4804 19.1054 12.2929 19.2929C12.1054 19.4804 12 19.7348 12 20V24C12 24.2652 12.1054 24.5196 12.2929 24.7071C12.4804 24.8946 12.7348 25 13 25H19C19.2652 25 19.5196 24.8946 19.7071 24.7071C19.8946 24.5196 20 24.2652 20 24V20C20 19.7348 19.8946 19.4804 19.7071 19.2929C19.5196 19.1054 19.2652 19 19 19Z" fill="white"/>
<path d="M50 13.5C50 13.8978 49.842 14.2794 49.5607 14.5607C49.2794 14.842 48.8978 15 48.5 15H43.5C43.1022 15 42.7206 14.842 42.4393 14.5607C42.158 14.2794 42 13.8978 42 13.5C42 13.1022 42.158 12.7206 42.4393 12.4393C42.7206 12.158 43.1022 12 43.5 12H48.5C48.8978 12 49.2794 12.158 49.5607 12.4393C49.842 12.7206 50 13.1022 50 13.5ZM48.5 17H43.5C43.1022 17 42.7206 17.158 42.4393 17.4393C42.158 17.7206 42 18.1022 42 18.5C42 18.8978 42.158 19.2794 42.4393 19.5607C42.7206 19.842 43.1022 20 43.5 20H48.5C48.8978 20 49.2794 19.842 49.5607 19.5607C49.842 19.2794 50 18.8978 50 18.5C50 18.1022 49.842 17.7206 49.5607 17.4393C49.2794 17.158 48.8978 17 48.5 17ZM48.5 22H43.5C43.1022 22 42.7206 22.158 42.4393 22.4393C42.158 22.7206 42 23.1022 42 23.5C42 23.8978 42.158 24.2794 42.4393 24.5607C42.7206 24.842 43.1022 25 43.5 25H48.5C48.8978 25 49.2794 24.842 49.5607 24.5607C49.842 24.2794 50 23.8978 50 23.5C50 23.1022 49.842 22.7206 49.5607 22.4393C49.2794 22.158 48.8978 22 48.5 22ZM58.5 17H53.5C53.1022 17 52.7206 17.158 52.4393 17.4393C52.158 17.7206 52 18.1022 52 18.5C52 18.8978 52.158 19.2794 52.4393 19.5607C52.7206 19.842 53.1022 20 53.5 20H58.5C58.8978 20 59.2794 19.842 59.5607 19.5607C59.842 19.2794 60 18.8978 60 18.5C60 18.1022 59.842 17.7206 59.5607 17.4393C59.2794 17.158 58.8978 17 58.5 17ZM58.5 22H53.5C53.1022 22 52.7206 22.158 52.4393 22.4393C52.158 22.7206 52 23.1022 52 23.5C52 23.8978 52.158 24.2794 52.4393 24.5607C52.7206 24.842 53.1022 25 53.5 25H58.5C58.8978 25 59.2794 24.842 59.5607 24.5607C59.842 24.2794 60 23.8978 60 23.5C60 23.1022 59.842 22.7206 59.5607 22.4393C59.2794 22.158 58.8978 22 58.5 22ZM63.5 10H68.5C68.8978 10 69.2794 9.84196 69.5607 9.56066C69.842 9.27936 70 8.89782 70 8.5C70 8.10218 69.842 7.72064 69.5607 7.43934C69.2794 7.15804 68.8978 7 68.5 7H63.5C63.1022 7 62.7206 7.15804 62.4393 7.43934C62.158 7.72064 62 8.10218 62 8.5C62 8.89782 62.158 9.27936 62.4393 9.56066C62.7206 9.84196 63.1022 10 63.5 10ZM68.5 12H63.5C63.1022 12 62.7206 12.158 62.4393 12.4393C62.158 12.7206 62 13.1022 62 13.5C62 13.8978 62.158 14.2794 62.4393 14.5607C62.7206 14.842 63.1022 15 63.5 15H68.5C68.8978 15 69.2794 14.842 69.5607 14.5607C69.842 14.2794 70 13.8978 70 13.5C70 13.1022 69.842 12.7206 69.5607 12.4393C69.2794 12.158 68.8978 12 68.5 12ZM68.5 17H63.5C63.1022 17 62.7206 17.158 62.4393 17.4393C62.158 17.7206 62 18.1022 62 18.5C62 18.8978 62.158 19.2794 62.4393 19.5607C62.7206 19.842 63.1022 20 63.5 20H68.5C68.8978 20 69.2794 19.842 69.5607 19.5607C69.842 19.2794 70 18.8978 70 18.5C70 18.1022 69.842 17.7206 69.5607 17.4393C69.2794 17.158 68.8978 17 68.5 17ZM68.5 22H63.5C63.1022 22 62.7206 22.158 62.4393 22.4393C62.158 22.7206 62 23.1022 62 23.5C62 23.8978 62.158 24.2794 62.4393 24.5607C62.7206 24.842 63.1022 25 63.5 25H68.5C68.8978 25 69.2794 24.842 69.5607 24.5607C69.842 24.2794 70 23.8978 70 23.5C70 23.1022 69.842 22.7206 69.5607 22.4393C69.2794 22.158 68.8978 22 68.5 22Z" fill="white"/>
</g>
<defs>
<clipPath id="clip0_27_3724">
<rect width="72" height="32" rx="5" fill="white"/>
</clipPath>
</defs>
</svg>
