<svg width="72" height="32" viewBox="0 0 72 32" fill="none" xmlns="http://www.w3.org/2000/svg">
<g clip-path="url(#clip0_27_1718)">
<path d="M26 4H6C5.46957 4 4.96086 4.21071 4.58579 4.58579C4.21071 4.96086 4 5.46957 4 6V26C4 26.5304 4.21071 27.0391 4.58579 27.4142C4.96086 27.7893 5.46957 28 6 28H26C26.5304 28 27.0391 27.7893 27.4142 27.4142C27.7893 27.0391 28 26.5304 28 26V6C28 5.46957 27.7893 4.96086 27.4142 4.58579C27.0391 4.21071 26.5304 4 26 4ZM23 20H9C8.73478 20 8.48043 19.8946 8.29289 19.7071C8.10536 19.5196 8 19.2652 8 19C8 18.7348 8.10536 18.4804 8.29289 18.2929C8.48043 18.1054 8.73478 18 9 18H23C23.2652 18 23.5196 18.1054 23.7071 18.2929C23.8946 18.4804 24 18.7348 24 19C24 19.2652 23.8946 19.5196 23.7071 19.7071C23.5196 19.8946 23.2652 20 23 20ZM23 14H9C8.73478 14 8.48043 13.8946 8.29289 13.7071C8.10536 13.5196 8 13.2652 8 13C8 12.7348 8.10536 12.4804 8.29289 12.2929C8.48043 12.1054 8.73478 12 9 12H23C23.2652 12 23.5196 12.1054 23.7071 12.2929C23.8946 12.4804 24 12.7348 24 13C24 13.2652 23.8946 13.5196 23.7071 13.7071C23.5196 13.8946 23.2652 14 23 14Z" fill="white"/>
<path d="M68.5 20C68.5 20.3978 68.342 20.7794 68.0607 21.0607C67.7794 21.342 67.3978 21.5 67 21.5H45C44.6022 21.5 44.2206 21.342 43.9393 21.0607C43.658 20.7794 43.5 20.3978 43.5 20C43.5 19.6022 43.658 19.2206 43.9393 18.9393C44.2206 18.658 44.6022 18.5 45 18.5H67C67.3978 18.5 67.7794 18.658 68.0607 18.9393C68.342 19.2206 68.5 19.6022 68.5 20ZM45 13.5H67C67.3978 13.5 67.7794 13.342 68.0607 13.0607C68.342 12.7794 68.5 12.3978 68.5 12C68.5 11.6022 68.342 11.2206 68.0607 10.9393C67.7794 10.658 67.3978 10.5 67 10.5H45C44.6022 10.5 44.2206 10.658 43.9393 10.9393C43.658 11.2206 43.5 11.6022 43.5 12C43.5 12.3978 43.658 12.7794 43.9393 13.0607C44.2206 13.342 44.6022 13.5 45 13.5Z" fill="white"/>
</g>
<defs>
<clipPath id="clip0_27_1718">
<rect width="72" height="32" rx="5" fill="white"/>
</clipPath>
</defs>
</svg>
