<svg width="72" height="32" viewBox="0 0 72 32" fill="none" xmlns="http://www.w3.org/2000/svg">
<g clip-path="url(#clip0_27_5793)">
<path d="M12 14.2362L13.3825 17H10.6175L12 14.2362ZM29 7V27C29.0001 27.1705 28.9566 27.3383 28.8736 27.4873C28.7907 27.6363 28.671 27.7616 28.5259 27.8513C28.3808 27.941 28.2153 27.9921 28.0449 27.9997C27.8745 28.0074 27.705 27.9713 27.5525 27.895L24 26.1175L20.4475 27.895C20.3086 27.9645 20.1554 28.0007 20 28.0007C19.8446 28.0007 19.6914 27.9645 19.5525 27.895L16 26.1175L12.4475 27.895C12.3086 27.9645 12.1554 28.0007 12 28.0007C11.8446 28.0007 11.6914 27.9645 11.5525 27.895L8 26.1175L4.4475 27.895C4.29499 27.9713 4.12549 28.0074 3.95511 27.9997C3.78474 27.9921 3.61916 27.941 3.4741 27.8513C3.32904 27.7616 3.20934 27.6363 3.12636 27.4873C3.04337 27.3383 2.99988 27.1705 3 27V7C3 6.46957 3.21071 5.96086 3.58579 5.58579C3.96086 5.21071 4.46957 5 5 5H27C27.5304 5 28.0391 5.21071 28.4142 5.58579C28.7893 5.96086 29 6.46957 29 7ZM16.895 19.5525L12.895 11.5525C12.8121 11.3861 12.6844 11.2461 12.5263 11.1483C12.3682 11.0504 12.1859 10.9986 12 10.9986C11.8141 10.9986 11.6318 11.0504 11.4737 11.1483C11.3156 11.2461 11.1879 11.3861 11.105 11.5525L7.105 19.5525C6.98632 19.7899 6.96679 20.0647 7.05071 20.3164C7.13463 20.5682 7.31513 20.7763 7.5525 20.895C7.78987 21.0137 8.06466 21.0332 8.31643 20.9493C8.5682 20.8654 8.77632 20.6849 8.895 20.4475L9.6175 19H14.3825L15.105 20.4475C15.1638 20.565 15.2451 20.6698 15.3444 20.7559C15.4436 20.842 15.5589 20.9077 15.6836 20.9493C15.8082 20.9908 15.9399 21.0074 16.0709 20.9981C16.202 20.9888 16.33 20.9538 16.4475 20.895C16.565 20.8362 16.6698 20.7549 16.7559 20.6556C16.842 20.5563 16.9077 20.4411 16.9493 20.3164C16.9908 20.1918 17.0074 20.0601 16.9981 19.9291C16.9888 19.798 16.9538 19.67 16.895 19.5525ZM26 16C26 15.7348 25.8946 15.4804 25.7071 15.2929C25.5196 15.1054 25.2652 15 25 15H23V13C23 12.7348 22.8946 12.4804 22.7071 12.2929C22.5196 12.1054 22.2652 12 22 12C21.7348 12 21.4804 12.1054 21.2929 12.2929C21.1054 12.4804 21 12.7348 21 13V15H19C18.7348 15 18.4804 15.1054 18.2929 15.2929C18.1054 15.4804 18 15.7348 18 16C18 16.2652 18.1054 16.5196 18.2929 16.7071C18.4804 16.8946 18.7348 17 19 17H21V19C21 19.2652 21.1054 19.5196 21.2929 19.7071C21.4804 19.8946 21.7348 20 22 20C22.2652 20 22.5196 19.8946 22.7071 19.7071C22.8946 19.5196 23 19.2652 23 19V17H25C25.2652 17 25.5196 16.8946 25.7071 16.7071C25.8946 16.5196 26 16.2652 26 16Z" fill="white"/>
<path d="M67 4.5H45C44.337 4.5 43.7011 4.76339 43.2322 5.23223C42.7634 5.70107 42.5 6.33696 42.5 7V27C42.5 27.2557 42.5654 27.5072 42.69 27.7305C42.8145 27.9538 42.9941 28.1416 43.2117 28.276C43.4292 28.4104 43.6775 28.4869 43.933 28.4983C44.1884 28.5098 44.4426 28.4557 44.6712 28.3412L48 26.6775L51.3287 28.3412C51.5371 28.4455 51.767 28.4998 52 28.4998C52.233 28.4998 52.4629 28.4455 52.6713 28.3412L56 26.6775L59.3288 28.3412C59.5371 28.4455 59.767 28.4998 60 28.4998C60.233 28.4998 60.4629 28.4455 60.6712 28.3412L64 26.6775L67.3288 28.3412C67.5574 28.4557 67.8116 28.5098 68.067 28.4983C68.3225 28.4869 68.5708 28.4104 68.7883 28.276C69.0059 28.1416 69.1854 27.9538 69.31 27.7305C69.4346 27.5072 69.5 27.2557 69.5 27V7C69.5 6.33696 69.2366 5.70107 68.7678 5.23223C68.2989 4.76339 67.663 4.5 67 4.5ZM66.5 24.5725L64.6712 23.6588C64.4629 23.5545 64.233 23.5002 64 23.5002C63.767 23.5002 63.5371 23.5545 63.3288 23.6588L60 25.3225L56.6712 23.6588C56.4629 23.5545 56.233 23.5002 56 23.5002C55.767 23.5002 55.5371 23.5545 55.3287 23.6588L52 25.3225L48.6713 23.6588C48.4629 23.5545 48.233 23.5002 48 23.5002C47.767 23.5002 47.5371 23.5545 47.3288 23.6588L45.5 24.5725V7.5H66.5V24.5725ZM47.8288 21.3412C48.1845 21.5192 48.5963 21.5486 48.9737 21.423C49.3511 21.2973 49.6632 21.0269 49.8413 20.6712L50.1775 20H54.8225L55.1587 20.6712C55.2451 20.8503 55.3663 21.0104 55.5151 21.1422C55.6639 21.2741 55.8374 21.375 56.0256 21.4392C56.2138 21.5033 56.4128 21.5294 56.6112 21.516C56.8096 21.5025 57.0033 21.4498 57.181 21.3608C57.3588 21.2718 57.5172 21.1484 57.6468 20.9977C57.7765 20.847 57.8749 20.672 57.9363 20.4829C57.9977 20.2938 58.021 20.0944 58.0047 19.8963C57.9883 19.6981 57.9328 19.5052 57.8412 19.3288L53.8413 11.3287C53.7166 11.0798 53.5251 10.8705 53.2882 10.7241C53.0513 10.5778 52.7784 10.5004 52.5 10.5004C52.2216 10.5004 51.9487 10.5778 51.7118 10.7241C51.4749 10.8705 51.2834 11.0798 51.1587 11.3287L47.1588 19.3288C46.9808 19.6845 46.9514 20.0963 47.077 20.4737C47.2027 20.8511 47.4731 21.1632 47.8288 21.3412ZM53.3225 17H51.6775L52.5 15.3538L53.3225 17ZM58 16C58 15.6022 58.158 15.2206 58.4393 14.9393C58.7206 14.658 59.1022 14.5 59.5 14.5H60V14C60 13.6022 60.158 13.2206 60.4393 12.9393C60.7206 12.658 61.1022 12.5 61.5 12.5C61.8978 12.5 62.2794 12.658 62.5607 12.9393C62.842 13.2206 63 13.6022 63 14V14.5H63.5C63.8978 14.5 64.2794 14.658 64.5607 14.9393C64.842 15.2206 65 15.6022 65 16C65 16.3978 64.842 16.7794 64.5607 17.0607C64.2794 17.342 63.8978 17.5 63.5 17.5H63V18C63 18.3978 62.842 18.7794 62.5607 19.0607C62.2794 19.342 61.8978 19.5 61.5 19.5C61.1022 19.5 60.7206 19.342 60.4393 19.0607C60.158 18.7794 60 18.3978 60 18V17.5H59.5C59.1022 17.5 58.7206 17.342 58.4393 17.0607C58.158 16.7794 58 16.3978 58 16Z" fill="white"/>
</g>
<defs>
<clipPath id="clip0_27_5793">
<rect width="72" height="32" rx="5" fill="white"/>
</clipPath>
</defs>
</svg>
