<svg width="72" height="32" viewBox="0 0 72 32" fill="none" xmlns="http://www.w3.org/2000/svg">
<g clip-path="url(#clip0_27_4334)">
<path d="M25 3H7C6.46957 3 5.96086 3.21071 5.58579 3.58579C5.21071 3.96086 5 4.46957 5 5V27C5 27.5304 5.21071 28.0391 5.58579 28.4142C5.96086 28.7893 6.46957 29 7 29H25C25.5304 29 26.0391 28.7893 26.4142 28.4142C26.7893 28.0391 27 27.5304 27 27V5C27 4.46957 26.7893 3.96086 26.4142 3.58579C26.0391 3.21071 25.5304 3 25 3ZM16 20C16.2967 20 16.5867 20.088 16.8334 20.2528C17.08 20.4176 17.2723 20.6519 17.3858 20.926C17.4993 21.2001 17.5291 21.5017 17.4712 21.7926C17.4133 22.0836 17.2704 22.3509 17.0607 22.5607C16.8509 22.7704 16.5836 22.9133 16.2926 22.9712C16.0017 23.0291 15.7001 22.9993 15.426 22.8858C15.1519 22.7723 14.9176 22.58 14.7528 22.3334C14.588 22.0867 14.5 21.7967 14.5 21.5C14.5 21.1022 14.658 20.7206 14.9393 20.4393C15.2206 20.158 15.6022 20 16 20ZM15 17V10C15 9.73478 15.1054 9.48043 15.2929 9.29289C15.4804 9.10536 15.7348 9 16 9C16.2652 9 16.5196 9.10536 16.7071 9.29289C16.8946 9.48043 17 9.73478 17 10V17C17 17.2652 16.8946 17.5196 16.7071 17.7071C16.5196 17.8946 16.2652 18 16 18C15.7348 18 15.4804 17.8946 15.2929 17.7071C15.1054 17.5196 15 17.2652 15 17Z" fill="white"/>
<path d="M58.5 25C58.5 25.4945 58.3534 25.9778 58.0787 26.3889C57.804 26.8 57.4135 27.1205 56.9567 27.3097C56.4999 27.4989 55.9972 27.5484 55.5123 27.452C55.0273 27.3555 54.5819 27.1174 54.2322 26.7678C53.8826 26.4181 53.6445 25.9727 53.548 25.4877C53.4516 25.0028 53.5011 24.5001 53.6903 24.0433C53.8795 23.5865 54.2 23.196 54.6111 22.9213C55.0222 22.6466 55.5055 22.5 56 22.5C56.663 22.5 57.2989 22.7634 57.7678 23.2322C58.2366 23.7011 58.5 24.337 58.5 25ZM56 20C56.3978 20 56.7794 19.842 57.0607 19.5607C57.342 19.2794 57.5 18.8978 57.5 18.5V6C57.5 5.60218 57.342 5.22064 57.0607 4.93934C56.7794 4.65804 56.3978 4.5 56 4.5C55.6022 4.5 55.2206 4.65804 54.9393 4.93934C54.658 5.22064 54.5 5.60218 54.5 6V18.5C54.5 18.8978 54.658 19.2794 54.9393 19.5607C55.2206 19.842 55.6022 20 56 20Z" fill="white"/>
</g>
<defs>
<clipPath id="clip0_27_4334">
<rect width="72" height="32" rx="5" fill="white"/>
</clipPath>
</defs>
</svg>
