<svg width="72" height="32" viewBox="0 0 72 32" fill="none" xmlns="http://www.w3.org/2000/svg">
<g clip-path="url(#clip0_27_5237)">
<path d="M29.9994 20C29.9979 22.4921 29.066 24.8937 27.3862 26.7345C25.7064 28.5754 23.3999 29.7227 20.9184 29.9517C18.4369 30.1807 15.9593 29.4749 13.971 27.9726C11.9827 26.4703 10.627 24.2797 10.1694 21.83C11.7655 22.1269 13.4099 22.0307 14.9604 21.5498C16.511 21.0688 17.9212 20.2176 19.0691 19.0697C20.2171 17.9217 21.0683 16.5116 21.5492 14.961C22.0301 13.4104 22.1263 11.7661 21.8294 10.17C24.1245 10.5972 26.1978 11.8139 27.69 13.6093C29.1822 15.4047 29.9992 17.6655 29.9994 20ZM19.9994 10C20.6133 10.0006 21.2259 10.0575 21.8294 10.17C21.4964 8.37927 20.6805 6.71351 19.47 5.35254C18.2594 3.99156 16.7001 2.98707 14.9604 2.44748C13.2207 1.9079 11.3667 1.85372 9.59846 2.2908C7.83022 2.72787 6.21494 3.6396 4.92698 4.92756C3.63902 6.21552 2.72729 7.8308 2.29022 9.59904C1.85314 11.3673 1.90732 13.2213 2.4469 14.961C2.98649 16.7007 3.99098 18.26 5.35196 19.4705C6.71293 20.6811 8.37869 21.4969 10.1694 21.83C9.90076 20.3866 9.9532 18.9018 10.323 17.481C10.6929 16.0602 11.371 14.7382 12.3093 13.609C13.2476 12.4798 14.423 11.5711 15.7521 10.9474C17.0812 10.3236 18.5313 10.0002 19.9994 10Z" fill="white"/>
<path d="M62.25 9.74999C61.8475 7.90883 60.957 6.20993 59.6717 4.83154C58.3865 3.45315 56.7539 2.44609 54.9453 1.91603C53.1368 1.38598 51.2189 1.35246 49.3929 1.819C47.567 2.28553 45.9002 3.23493 44.5676 4.56757C43.2349 5.9002 42.2855 7.56695 41.819 9.39293C41.3525 11.2189 41.386 13.1368 41.916 14.9453C42.4461 16.7539 43.4531 18.3865 44.8315 19.6717C46.2099 20.957 47.9088 21.8475 49.75 22.25C50.1524 24.0912 51.043 25.7901 52.3283 27.1684C53.6135 28.5468 55.2461 29.5539 57.0546 30.084C58.8632 30.614 60.7811 30.6475 62.6071 30.181C64.433 29.7145 66.0998 28.7651 67.4324 27.4324C68.7651 26.0998 69.7145 24.433 70.181 22.6071C70.6475 20.7811 70.614 18.8632 70.084 17.0546C69.5539 15.2461 68.5468 13.6135 67.1684 12.3283C65.7901 11.043 64.0912 10.1524 62.25 9.74999ZM67.5 20C67.4994 20.2777 67.4835 20.5552 67.4525 20.8312L61.9525 15.3312C62.2144 14.5481 62.3823 13.7365 62.4525 12.9137C63.9252 13.4251 65.2022 14.3819 66.1067 15.6517C67.0111 16.9214 67.498 18.4411 67.5 20ZM52.52 19.48C52.6476 17.6763 53.4219 15.9792 54.7005 14.7005C55.9792 13.4219 57.6763 12.6476 59.48 12.52C59.3524 14.3237 58.5781 16.0208 57.2995 17.2995C56.0208 18.5781 54.3237 19.3524 52.52 19.48ZM59.0837 9.54249C58.2609 9.61272 57.4494 9.78056 56.6662 10.0425L51.1662 4.54249C51.4432 4.51305 51.7215 4.49886 52 4.49999C53.5579 4.50211 55.0765 4.98857 56.3457 5.89201C57.6149 6.79545 58.5717 8.07117 59.0837 9.54249ZM48.0237 5.64499L53.865 11.4862C52.9524 12.147 52.1507 12.9487 51.49 13.8612L45.645 8.02374C46.2491 7.06215 47.0622 6.24909 48.0237 5.64499ZM44.5 12C44.5006 11.7222 44.5165 11.4447 44.5475 11.1687L50.0475 16.6687C49.7856 17.4519 49.6177 18.2634 49.5475 19.0862C48.0748 18.5749 46.7977 17.618 45.8933 16.3483C44.9889 15.0786 44.502 13.5589 44.5 12ZM52.9162 22.4575C53.739 22.3873 54.5506 22.2194 55.3337 21.9575L60.8337 27.4575C60.5568 27.4869 60.2785 27.5011 60 27.5C58.4421 27.4979 56.9234 27.0114 55.6543 26.108C54.3851 25.2045 53.4283 23.9288 52.9162 22.4575ZM63.9762 26.355L58.135 20.5137C59.0476 19.853 59.8493 19.0513 60.51 18.1387L66.3512 23.98C65.7478 24.9398 64.9361 25.7515 63.9762 26.355Z" fill="white"/>
</g>
<defs>
<clipPath id="clip0_27_5237">
<rect width="72" height="32" rx="5" fill="white"/>
</clipPath>
</defs>
</svg>
