<svg width="72" height="32" viewBox="0 0 72 32" fill="none" xmlns="http://www.w3.org/2000/svg">
<g clip-path="url(#clip0_27_5247)">
<path d="M30.9137 15.595C30.87 15.4963 29.8112 13.1475 27.4575 10.7937C24.3212 7.6575 20.36 6 16 6C11.64 6 7.67874 7.6575 4.54249 10.7937C2.18874 13.1475 1.12499 15.5 1.08624 15.595C1.02938 15.7229 1 15.8613 1 16.0012C1 16.1412 1.02938 16.2796 1.08624 16.4075C1.12999 16.5062 2.18874 18.8538 4.54249 21.2075C7.67874 24.3425 11.64 26 16 26C20.36 26 24.3212 24.3425 27.4575 21.2075C29.8112 18.8538 30.87 16.5062 30.9137 16.4075C30.9706 16.2796 31 16.1412 31 16.0012C31 15.8613 30.9706 15.7229 30.9137 15.595ZM16 21C15.0111 21 14.0444 20.7068 13.2221 20.1573C12.3999 19.6079 11.759 18.827 11.3806 17.9134C11.0022 16.9998 10.9031 15.9945 11.0961 15.0245C11.289 14.0546 11.7652 13.1637 12.4645 12.4645C13.1637 11.7652 14.0546 11.289 15.0245 11.0961C15.9944 10.9031 16.9998 11.0022 17.9134 11.3806C18.827 11.759 19.6079 12.3999 20.1573 13.2221C20.7067 14.0444 21 15.0111 21 16C21 17.3261 20.4732 18.5979 19.5355 19.5355C18.5978 20.4732 17.3261 21 16 21Z" fill="white"/>
<path d="M71.3745 15.3912C71.3283 15.29 70.2333 12.8587 67.8145 10.44C64.5783 7.20875 60.4995 5.5 55.9995 5.5C51.4995 5.5 47.4208 7.20875 44.1883 10.44C41.7695 12.8587 40.6745 15.29 40.6245 15.3912C40.5398 15.5832 40.4961 15.7908 40.4961 16.0006C40.4961 16.2105 40.5398 16.418 40.6245 16.61C40.6708 16.7125 41.7658 19.1425 44.1858 21.5613C47.4208 24.7925 51.4995 26.5 55.9995 26.5C60.4995 26.5 64.5783 24.7925 67.8095 21.5613C70.2295 19.1425 71.3245 16.7125 71.3708 16.61C71.456 16.4183 71.5004 16.2109 71.5011 16.001C71.5017 15.7912 71.4586 15.5835 71.3745 15.3912ZM65.617 19.5163C62.9333 22.1588 59.6983 23.5 55.9995 23.5C52.3008 23.5 49.0658 22.1587 46.3858 19.515C45.3312 18.4715 44.4241 17.2889 43.6895 16C44.4243 14.7116 45.3314 13.5294 46.3858 12.4862C49.067 9.84125 52.3008 8.5 55.9995 8.5C59.6983 8.5 62.932 9.84125 65.6133 12.4862C66.6677 13.5293 67.5749 14.7115 68.3095 16C67.5748 17.2889 66.6677 18.4714 65.6133 19.515L65.617 19.5163ZM55.9995 10.5C54.9117 10.5 53.8483 10.8226 52.9439 11.4269C52.0394 12.0313 51.3345 12.8902 50.9182 13.8952C50.5019 14.9002 50.393 16.0061 50.6052 17.073C50.8174 18.1399 51.3412 19.1199 52.1104 19.8891C52.8796 20.6583 53.8596 21.1821 54.9265 21.3943C55.9934 21.6065 57.0993 21.4976 58.1043 21.0813C59.1093 20.6651 59.9682 19.9601 60.5726 19.0556C61.1769 18.1512 61.4995 17.0878 61.4995 16C61.4979 14.5418 60.9179 13.1438 59.8868 12.1127C58.8557 11.0816 57.4577 10.5017 55.9995 10.5ZM55.9995 18.5C55.5051 18.5 55.0217 18.3534 54.6106 18.0787C54.1995 17.804 53.879 17.4135 53.6898 16.9567C53.5006 16.4999 53.4511 15.9972 53.5476 15.5123C53.644 15.0273 53.8821 14.5819 54.2317 14.2322C54.5814 13.8826 55.0268 13.6445 55.5118 13.548C55.9967 13.4516 56.4994 13.5011 56.9562 13.6903C57.413 13.8795 57.8035 14.2 58.0782 14.6111C58.3529 15.0222 58.4995 15.5055 58.4995 16C58.4995 16.663 58.2361 17.2989 57.7673 17.7678C57.2984 18.2366 56.6626 18.5 55.9995 18.5Z" fill="white"/>
</g>
<defs>
<clipPath id="clip0_27_5247">
<rect width="72" height="32" rx="5" fill="white"/>
</clipPath>
</defs>
</svg>
