<svg width="72" height="32" viewBox="0 0 72 32" fill="none" xmlns="http://www.w3.org/2000/svg">
<g clip-path="url(#clip0_27_5252)">
<path d="M28.8679 20.5C29.0005 20.7302 29.0363 21.0037 28.9672 21.2603C28.8982 21.5169 28.7301 21.7355 28.4998 21.8681C28.3858 21.9338 28.26 21.9763 28.1295 21.9934C27.9991 22.0104 27.8666 22.0016 27.7395 21.9674C27.4829 21.8984 27.2643 21.7302 27.1317 21.5L24.7567 17.35C23.3771 18.2832 21.8552 18.9865 20.2504 19.4325L20.9842 23.835C21.0058 23.9646 21.0017 24.0972 20.9721 24.2252C20.9425 24.3532 20.8879 24.4742 20.8115 24.5811C20.7351 24.688 20.6384 24.7788 20.5269 24.8483C20.4154 24.9179 20.2913 24.9647 20.1617 24.9862C20.1084 24.995 20.0545 24.9996 20.0004 25C19.7639 24.9996 19.5351 24.9154 19.3547 24.7623C19.1744 24.6092 19.0542 24.3971 19.0154 24.1637L18.2942 19.8412C16.7732 20.0529 15.2302 20.0529 13.7092 19.8412L12.9879 24.1637C12.9491 24.3976 12.8285 24.61 12.6477 24.7631C12.4668 24.9163 12.2374 25.0002 12.0004 25C11.9452 24.9998 11.89 24.9952 11.8354 24.9862C11.7058 24.9647 11.5817 24.9179 11.4702 24.8483C11.3587 24.7788 11.262 24.688 11.1856 24.5811C11.1092 24.4742 11.0546 24.3532 11.025 24.2252C10.9954 24.0972 10.9913 23.9646 11.0129 23.835L11.7504 19.4325C10.145 18.9855 8.62269 18.2809 7.24294 17.3463L4.87544 21.5C4.74283 21.7311 4.52386 21.9 4.2667 21.9696C4.00954 22.0392 3.73526 22.0039 3.50419 21.8713C3.27312 21.7386 3.10419 21.5197 3.03457 21.2625C2.96495 21.0054 3.00033 20.7311 3.13294 20.5L5.63294 16.125C4.7545 15.3667 3.94699 14.5299 3.22044 13.625C3.07655 13.447 2.99805 13.2251 2.99805 12.9963C2.99805 12.7674 3.07655 12.5455 3.22044 12.3675C5.57044 9.465 9.69419 6 16.0004 6C22.3067 6 26.4304 9.465 28.7779 12.375C28.9218 12.553 29.0003 12.7749 29.0003 13.0037C29.0003 13.2326 28.9218 13.4545 28.7779 13.6325C28.0514 14.5374 27.2439 15.3742 26.3654 16.1325L28.8679 20.5Z" fill="white"/>
<path d="M69.3016 20.25C69.4001 20.421 69.4639 20.6098 69.4895 20.8055C69.515 21.0012 69.5017 21.2001 69.4504 21.3907C69.3991 21.5813 69.3108 21.7599 69.1905 21.9163C69.0701 22.0728 68.9201 22.204 68.7491 22.3025C68.578 22.401 68.3893 22.4648 68.1936 22.4904C67.9978 22.5159 67.799 22.5026 67.6084 22.4513C67.4178 22.4 67.2392 22.3117 67.0828 22.1913C66.9263 22.071 66.7951 21.921 66.6966 21.75L64.5891 18.0625C63.4131 18.8023 62.1452 19.3848 60.8178 19.795L61.4791 23.75C61.5441 24.1423 61.4507 24.5444 61.2194 24.8679C60.988 25.1914 60.6377 25.4098 60.2453 25.475C60.1628 25.4895 60.0791 25.4966 59.9953 25.4962C59.6411 25.4959 59.2985 25.3702 59.028 25.1414C58.7576 24.9126 58.5769 24.5955 58.5178 24.2462L57.8741 20.3962C56.6254 20.5346 55.3653 20.5346 54.1166 20.3962L53.4791 24.25C53.42 24.5997 53.2389 24.9171 52.9679 25.146C52.697 25.3748 52.3537 25.5002 51.9991 25.5C51.9153 25.5004 51.8316 25.4933 51.7491 25.4787C51.5548 25.446 51.3689 25.3753 51.2019 25.2708C51.0349 25.1662 50.8902 25.0297 50.776 24.8692C50.6618 24.7086 50.5803 24.5272 50.5362 24.3351C50.4921 24.1431 50.4863 23.9443 50.5191 23.75L51.1803 19.785C49.853 19.3748 48.5851 18.7923 47.4091 18.0525L45.3016 21.75C45.1027 22.0954 44.7747 22.3477 44.3898 22.4513C44.0049 22.5549 43.5945 22.5014 43.2491 22.3025C42.9037 22.1036 42.6514 21.7756 42.5478 21.3907C42.4441 21.0058 42.4977 20.5954 42.6966 20.25L44.9991 16.2312C44.2187 15.5265 43.4952 14.7612 42.8353 13.9425C42.6024 13.6318 42.499 13.2429 42.5469 12.8575C42.5949 12.4722 42.7904 12.1204 43.0923 11.8763C43.3943 11.6321 43.7792 11.5146 44.166 11.5484C44.5529 11.5822 44.9116 11.7647 45.1666 12.0575C47.1716 14.54 50.6791 17.5 55.9991 17.5C61.3191 17.5 64.8266 14.54 66.8316 12.0575C67.0825 11.751 67.4445 11.5561 67.8385 11.5155C68.2326 11.4749 68.6267 11.5918 68.9348 11.8407C69.243 12.0896 69.4402 12.4503 69.4834 12.8441C69.5265 13.2379 69.4122 13.6327 69.1653 13.9425C68.5047 14.7613 67.7804 15.5266 66.9991 16.2312L69.3016 20.25Z" fill="white"/>
</g>
<defs>
<clipPath id="clip0_27_5252">
<rect width="72" height="32" rx="5" fill="white"/>
</clipPath>
</defs>
</svg>
