<svg width="72" height="32" viewBox="0 0 72 32" fill="none" xmlns="http://www.w3.org/2000/svg">
<g clip-path="url(#clip0_27_1172)">
<path d="M29 9V20.5C28.9973 21.9135 28.4505 23.2718 27.473 24.2929C26.4955 25.314 25.1624 25.9195 23.7503 25.9838C22.3382 26.0482 20.9556 25.5663 19.8893 24.6383C18.823 23.7104 18.1549 22.4074 18.0238 21H13.9762C13.8451 22.4074 13.177 23.7104 12.1107 24.6383C11.0444 25.5663 9.66179 26.0482 8.24971 25.9838C6.83762 25.9195 5.50451 25.314 4.52702 24.2929C3.54952 23.2718 3.00269 21.9135 3 20.5V9C3 7.93913 3.42143 6.92172 4.17157 6.17157C4.92172 5.42143 5.93913 5 7 5C7.26522 5 7.51957 5.10536 7.70711 5.29289C7.89464 5.48043 8 5.73478 8 6C8 6.26522 7.89464 6.51957 7.70711 6.70711C7.51957 6.89464 7.26522 7 7 7C6.46957 7 5.96086 7.21071 5.58579 7.58579C5.21071 7.96086 5 8.46957 5 9V16.26C5.70501 15.6786 6.54379 15.282 7.44053 15.106C8.33727 14.9301 9.26372 14.9804 10.1362 15.2523C11.0086 15.5243 11.7995 16.0093 12.4375 16.6637C13.0754 17.318 13.5402 18.121 13.79 19H18.21C18.4598 18.121 18.9246 17.318 19.5625 16.6637C20.2005 16.0093 20.9914 15.5243 21.8638 15.2523C22.7363 14.9804 23.6627 14.9301 24.5595 15.106C25.4562 15.282 26.295 15.6786 27 16.26V9C27 8.46957 26.7893 7.96086 26.4142 7.58579C26.0391 7.21071 25.5304 7 25 7C24.7348 7 24.4804 6.89464 24.2929 6.70711C24.1054 6.51957 24 6.26522 24 6C24 5.73478 24.1054 5.48043 24.2929 5.29289C24.4804 5.10536 24.7348 5 25 5C26.0609 5 27.0783 5.42143 27.8284 6.17157C28.5786 6.92172 29 7.93913 29 9Z" fill="white"/>
<path d="M65 4.5C64.6022 4.5 64.2206 4.65804 63.9393 4.93934C63.658 5.22064 63.5 5.60218 63.5 6C63.5 6.39782 63.658 6.77936 63.9393 7.06066C64.2206 7.34196 64.6022 7.5 65 7.5C65.3978 7.5 65.7794 7.65804 66.0607 7.93934C66.342 8.22064 66.5 8.60218 66.5 9V15.3075C65.7378 14.8658 64.8875 14.5975 64.0097 14.5219C63.132 14.4463 62.2484 14.5651 61.4218 14.87C60.5952 15.1748 59.8461 15.6582 59.2276 16.2856C58.6092 16.913 58.1367 17.6691 57.8438 18.5H54.1562C53.8633 17.6691 53.3908 16.913 52.7724 16.2856C52.1539 15.6582 51.4048 15.1748 50.5782 14.87C49.7516 14.5651 48.868 14.4463 47.9903 14.5219C47.1125 14.5975 46.2622 14.8658 45.5 15.3075V9C45.5 8.60218 45.658 8.22064 45.9393 7.93934C46.2206 7.65804 46.6022 7.5 47 7.5C47.3978 7.5 47.7794 7.34196 48.0607 7.06066C48.342 6.77936 48.5 6.39782 48.5 6C48.5 5.60218 48.342 5.22064 48.0607 4.93934C47.7794 4.65804 47.3978 4.5 47 4.5C45.8065 4.5 44.6619 4.97411 43.818 5.81802C42.9741 6.66193 42.5 7.80653 42.5 9V20.5C42.5016 22.0033 43.0675 23.4513 44.0857 24.5573C45.1038 25.6634 46.5001 26.3469 47.9982 26.4726C49.4963 26.5984 50.9869 26.1571 52.1752 25.2363C53.3635 24.3154 54.1629 22.982 54.415 21.5H57.585C57.8371 22.982 58.6365 24.3154 59.8248 25.2363C61.0131 26.1571 62.5037 26.5984 64.0018 26.4726C65.4999 26.3469 66.8962 25.6634 67.9143 24.5573C68.9325 23.4513 69.4984 22.0033 69.5 20.5V9C69.5 7.80653 69.0259 6.66193 68.182 5.81802C67.3381 4.97411 66.1935 4.5 65 4.5ZM48.5 23.5C47.9067 23.5 47.3266 23.3241 46.8333 22.9944C46.3399 22.6648 45.9554 22.1962 45.7284 21.6481C45.5013 21.0999 45.4419 20.4967 45.5576 19.9147C45.6734 19.3328 45.9591 18.7982 46.3787 18.3787C46.7982 17.9591 47.3328 17.6734 47.9147 17.5576C48.4967 17.4419 49.0999 17.5013 49.6481 17.7284C50.1962 17.9554 50.6648 18.3399 50.9944 18.8333C51.3241 19.3266 51.5 19.9067 51.5 20.5C51.5 21.2956 51.1839 22.0587 50.6213 22.6213C50.0587 23.1839 49.2956 23.5 48.5 23.5ZM63.5 23.5C62.9067 23.5 62.3266 23.3241 61.8333 22.9944C61.3399 22.6648 60.9554 22.1962 60.7284 21.6481C60.5013 21.0999 60.4419 20.4967 60.5576 19.9147C60.6734 19.3328 60.9591 18.7982 61.3787 18.3787C61.7982 17.9591 62.3328 17.6734 62.9147 17.5576C63.4967 17.4419 64.0999 17.5013 64.6481 17.7284C65.1962 17.9554 65.6648 18.3399 65.9944 18.8333C66.3241 19.3266 66.5 19.9067 66.5 20.5C66.5 21.2956 66.1839 22.0587 65.6213 22.6213C65.0587 23.1839 64.2956 23.5 63.5 23.5Z" fill="white"/>
</g>
<defs>
<clipPath id="clip0_27_1172">
<rect width="72" height="32" rx="5" fill="white"/>
</clipPath>
</defs>
</svg>
