<svg width="72" height="32" viewBox="0 0 72 32" fill="none" xmlns="http://www.w3.org/2000/svg">
<g clip-path="url(#clip0_27_3137)">
<path d="M22 4C19.4237 4 17.215 6.27 16 9.73125C14.785 6.27 12.5763 4 10 4C6.075 4 3 9.27125 3 16C3 22.7288 6.075 28 10 28C12.5763 28 14.785 25.73 16 22.2687C17.215 25.73 19.4237 28 22 28C25.925 28 29 22.7288 29 16C29 9.27125 25.925 4 22 4ZM13.365 23.2987C12.4288 25.015 11.2025 26 10 26C8.7975 26 7.57125 25.015 6.635 23.2987C6.02975 22.1509 5.59837 20.9196 5.355 19.645C5.96423 19.9204 6.63276 20.0386 7.29948 19.989C7.96619 19.9393 8.60983 19.7233 9.17156 19.3608C9.73328 18.9982 10.1952 18.5007 10.515 17.9136C10.8348 17.3265 11.0024 16.6686 11.0024 16C11.0024 15.3314 10.8348 14.6735 10.515 14.0864C10.1952 13.4993 9.73328 13.0018 9.17156 12.6392C8.60983 12.2767 7.96619 12.0607 7.29948 12.011C6.63276 11.9614 5.96423 12.0796 5.355 12.355C5.59837 11.0804 6.02975 9.84906 6.635 8.70125C7.57125 6.985 8.7975 6 10 6C11.2025 6 12.4288 6.985 13.365 8.70125C14.4187 10.6337 15 13.2262 15 16C15 18.7738 14.4187 21.3662 13.365 23.2987ZM25.365 23.2987C24.4287 25.015 23.2025 26 22 26C20.7975 26 19.5713 25.015 18.635 23.2987C18.0297 22.1509 17.5984 20.9196 17.355 19.645C17.9642 19.9204 18.6328 20.0386 19.2995 19.989C19.9662 19.9393 20.6098 19.7233 21.1716 19.3608C21.7333 18.9982 22.1952 18.5007 22.515 17.9136C22.8348 17.3265 23.0024 16.6686 23.0024 16C23.0024 15.3314 22.8348 14.6735 22.515 14.0864C22.1952 13.4993 21.7333 13.0018 21.1716 12.6392C20.6098 12.2767 19.9662 12.0607 19.2995 12.011C18.6328 11.9614 17.9642 12.0796 17.355 12.355C17.5984 11.0804 18.0297 9.84906 18.635 8.70125C19.5713 6.985 20.7975 6 22 6C23.2025 6 24.4287 6.985 25.365 8.70125C26.4188 10.6337 27 13.2262 27 16C27 18.7738 26.4188 21.3662 25.365 23.2987Z" fill="white"/>
<path d="M67.56 7.5C66.1512 4.92125 64.1775 3.5 62 3.5C59.8225 3.5 57.8488 4.92125 56.44 7.5C56.285 7.785 56.1375 8.08125 56 8.38875C55.8625 8.08125 55.715 7.785 55.56 7.5C54.1513 4.92125 52.1775 3.5 50 3.5C47.8225 3.5 45.8488 4.92125 44.44 7.5C43.1888 9.7975 42.5 12.815 42.5 16C42.5 19.185 43.1888 22.2025 44.44 24.5C45.8488 27.0775 47.8225 28.5 50 28.5C52.1775 28.5 54.1513 27.0775 55.56 24.5C55.715 24.215 55.8625 23.9188 56 23.6112C56.1375 23.9188 56.285 24.215 56.44 24.5C57.8488 27.0812 59.8225 28.5 62 28.5C64.1775 28.5 66.1512 27.0775 67.56 24.5C68.81 22.2062 69.5 19.1888 69.5 16C69.5 12.8112 68.8112 9.7975 67.56 7.5ZM59 14.5C59.2967 14.5 59.5867 14.588 59.8334 14.7528C60.08 14.9176 60.2723 15.1519 60.3858 15.426C60.4993 15.7001 60.5291 16.0017 60.4712 16.2926C60.4133 16.5836 60.2704 16.8509 60.0607 17.0607C59.8509 17.2704 59.5836 17.4133 59.2926 17.4712C59.0017 17.5291 58.7001 17.4993 58.426 17.3858C58.1519 17.2723 57.9176 17.08 57.7528 16.8334C57.588 16.5867 57.5 16.2967 57.5 16C57.5 15.6022 57.658 15.2206 57.9393 14.9393C58.2206 14.658 58.6022 14.5 59 14.5ZM47 14.5C47.2967 14.5 47.5867 14.588 47.8334 14.7528C48.08 14.9176 48.2723 15.1519 48.3858 15.426C48.4994 15.7001 48.5291 16.0017 48.4712 16.2926C48.4133 16.5836 48.2704 16.8509 48.0607 17.0607C47.8509 17.2704 47.5836 17.4133 47.2926 17.4712C47.0017 17.5291 46.7001 17.4993 46.426 17.3858C46.1519 17.2723 45.9176 17.08 45.7528 16.8334C45.588 16.5867 45.5 16.2967 45.5 16C45.5 15.6022 45.658 15.2206 45.9393 14.9393C46.2206 14.658 46.6022 14.5 47 14.5ZM50 25.5C48.49 25.5 46.8587 23.535 46.0375 20.395C46.3536 20.465 46.6763 20.5002 47 20.5C48.1935 20.5 49.3381 20.0259 50.182 19.182C51.0259 18.3381 51.5 17.1935 51.5 16C51.5 14.8065 51.0259 13.6619 50.182 12.818C49.3381 11.9741 48.1935 11.5 47 11.5C46.6763 11.4998 46.3536 11.535 46.0375 11.605C46.8587 8.465 48.49 6.5 50 6.5C52.125 6.5 54.5 10.4012 54.5 16C54.5 21.5988 52.125 25.5 50 25.5ZM62 25.5C60.49 25.5 58.8588 23.535 58.0375 20.395C58.3536 20.465 58.6763 20.5002 59 20.5C60.1935 20.5 61.3381 20.0259 62.182 19.182C63.0259 18.3381 63.5 17.1935 63.5 16C63.5 14.8065 63.0259 13.6619 62.182 12.818C61.3381 11.9741 60.1935 11.5 59 11.5C58.6763 11.4998 58.3536 11.535 58.0375 11.605C58.8588 8.465 60.49 6.5 62 6.5C64.125 6.5 66.5 10.4012 66.5 16C66.5 21.5988 64.125 25.5 62 25.5Z" fill="white"/>
</g>
<defs>
<clipPath id="clip0_27_3137">
<rect width="72" height="32" rx="5" fill="white"/>
</clipPath>
</defs>
</svg>
