<svg width="72" height="32" viewBox="0 0 72 32" fill="none" xmlns="http://www.w3.org/2000/svg">
<g clip-path="url(#clip0_27_5257)">
<path d="M12.085 7.23374C12.0259 7.16905 11.9849 7.08997 11.966 7.00444C11.9471 6.9189 11.9511 6.82991 11.9774 6.74636C12.0037 6.66282 12.0515 6.58766 12.1161 6.52841C12.1806 6.46915 12.2595 6.42789 12.345 6.40874C13.544 6.13476 14.7701 5.99763 16 5.99999C20.36 5.99999 24.3212 7.65749 27.4575 10.7937C29.8112 13.1475 30.87 15.4962 30.9137 15.595C30.9706 15.7229 31 15.8613 31 16.0012C31 16.1412 30.9706 16.2796 30.9137 16.4075C30.87 16.5062 29.8112 18.8537 27.4575 21.2075C27.1008 21.5625 26.7346 21.8987 26.3587 22.2162C26.2599 22.3002 26.1322 22.3424 26.0028 22.334C25.8733 22.3256 25.7522 22.2673 25.665 22.1712L12.085 7.23374ZM26.74 26.3275C26.8302 26.4243 26.9002 26.5381 26.9461 26.6623C26.9919 26.7864 27.0127 26.9184 27.0072 27.0506C27.0017 27.1828 26.9699 27.3126 26.9139 27.4325C26.8578 27.5524 26.7785 27.6599 26.6806 27.7489C26.5827 27.8379 26.468 27.9066 26.3434 27.951C26.2187 27.9953 26.0865 28.0145 25.9543 28.0074C25.8222 28.0003 25.6928 27.967 25.5736 27.9096C25.4544 27.8521 25.3478 27.7715 25.26 27.6725L22.5 24.6412C20.4531 25.5466 18.2381 26.0096 16 26C11.64 26 7.67874 24.3425 4.54249 21.2075C2.18874 18.8537 1.12499 16.5062 1.08624 16.4075C1.02938 16.2796 1 16.1412 1 16.0012C1 15.8613 1.02938 15.7229 1.08624 15.595C1.12499 15.5 2.18874 13.1475 4.54249 10.7937C5.48285 9.84905 6.53183 9.0191 7.66749 8.32124L5.25999 5.67249C5.16982 5.57563 5.09978 5.46184 5.05391 5.33772C5.00804 5.21359 4.98727 5.08159 4.9928 4.94938C4.99832 4.81716 5.03003 4.68736 5.08609 4.56749C5.14215 4.44762 5.22144 4.34007 5.31938 4.25107C5.41731 4.16207 5.53193 4.09339 5.6566 4.04902C5.78127 4.00464 5.91351 3.98545 6.04564 3.99256C6.17778 3.99967 6.3072 4.03294 6.42639 4.09043C6.54558 4.14792 6.65217 4.2285 6.73999 4.32749L26.74 26.3275ZM18.5537 20.2962L11.9675 13.0462C11.2888 13.9761 10.9518 15.1117 11.0134 16.2612C11.0749 17.4108 11.5312 18.5039 12.3053 19.356C13.0794 20.2081 14.1238 20.7669 15.2622 20.9382C16.4006 21.1095 17.5632 20.8828 18.5537 20.2962Z" fill="white"/>
<path d="M47.1095 3.99125C46.9778 3.84277 46.8179 3.7219 46.6391 3.63566C46.4603 3.54942 46.2662 3.49952 46.068 3.48886C45.8698 3.4782 45.6714 3.50698 45.4844 3.57354C45.2974 3.6401 45.1255 3.74312 44.9786 3.87661C44.8317 4.01011 44.7128 4.17144 44.6287 4.35124C44.5446 4.53105 44.497 4.72575 44.4887 4.92408C44.4804 5.1224 44.5116 5.3204 44.5804 5.50659C44.6492 5.69278 44.7543 5.86347 44.8895 6.00875L46.8895 8.215C42.5833 11.0825 40.7145 15.1975 40.6245 15.3913C40.5398 15.5832 40.4961 15.7908 40.4961 16.0006C40.4961 16.2105 40.5398 16.418 40.6245 16.61C40.6708 16.7125 41.7658 19.1425 44.1858 21.5613C47.4208 24.7925 51.4995 26.5 55.9995 26.5C58.1866 26.5121 60.354 26.0871 62.3745 25.25L64.8858 28.0125C65.1547 28.3014 65.5267 28.4727 65.9211 28.4891C66.3154 28.5056 66.7004 28.366 66.9925 28.1005C67.2846 27.8351 67.4603 27.4652 67.4815 27.071C67.5027 26.6769 67.3677 26.2903 67.1058 25.995L47.1095 3.99125ZM55.9995 23.5C52.3008 23.5 49.0658 22.1588 46.3858 19.515C45.3316 18.4712 44.4245 17.2887 43.6895 16C44.3483 14.8363 46.0383 12.2625 48.9395 10.4638L60.2008 22.8525C58.8427 23.2861 57.4251 23.5046 55.9995 23.5ZM71.3745 16.61C71.3295 16.7113 70.2495 19.11 67.8745 21.505C67.7385 21.656 67.5733 21.7777 67.3888 21.8629C67.2043 21.9481 67.0044 21.9949 66.8013 22.0004C66.5982 22.006 66.3961 21.9703 66.2072 21.8954C66.0183 21.8205 65.8466 21.708 65.7025 21.5648C65.5584 21.4215 65.4449 21.2505 65.3689 21.0621C65.2929 20.8736 65.256 20.6717 65.2604 20.4686C65.2648 20.2654 65.3104 20.0653 65.3945 19.8803C65.4786 19.6954 65.5994 19.5294 65.7495 19.3925C66.7472 18.3782 67.6078 17.2377 68.3095 16C67.575 14.7111 66.6678 13.5285 65.6133 12.485C62.932 9.84125 59.6983 8.5 55.9995 8.5C55.5808 8.5 55.162 8.5175 54.7495 8.5525C54.5507 8.5738 54.3497 8.55514 54.1582 8.49763C53.9668 8.44012 53.7887 8.34492 53.6346 8.21761C53.4804 8.09031 53.3533 7.93347 53.2606 7.75633C53.1679 7.57918 53.1116 7.3853 53.095 7.18607C53.0783 6.98685 53.1016 6.7863 53.1636 6.59622C53.2255 6.40614 53.3248 6.23036 53.4557 6.07922C53.5866 5.92808 53.7463 5.80461 53.9256 5.71609C54.1048 5.62757 54.3 5.57578 54.4995 5.56375C54.9908 5.52125 55.4995 5.5 55.9995 5.5C60.4995 5.5 64.5783 7.20875 67.8108 10.44C70.2295 12.8588 71.3245 15.29 71.3708 15.3913C71.456 15.583 71.5004 15.7904 71.5011 16.0002C71.5017 16.2101 71.4586 16.4177 71.3745 16.61Z" fill="white"/>
</g>
<defs>
<clipPath id="clip0_27_5257">
<rect width="72" height="32" rx="5" fill="white"/>
</clipPath>
</defs>
</svg>
