<svg width="72" height="32" viewBox="0 0 72 32" fill="none" xmlns="http://www.w3.org/2000/svg">
<g clip-path="url(#clip0_27_104)">
<path d="M28.9999 16C28.9959 19.1773 27.8301 22.2434 25.7223 24.6208C23.6145 26.9982 20.7101 28.5228 17.5562 28.9075C17.486 28.9154 17.4149 28.9084 17.3475 28.8869C17.2802 28.8653 17.2182 28.8298 17.1657 28.7825C17.1131 28.7353 17.0712 28.6774 17.0426 28.6128C17.014 28.5481 16.9995 28.4782 16.9999 28.4075V19H19.9999C20.137 19.0003 20.2727 18.9724 20.3986 18.9181C20.5244 18.8637 20.6378 18.7841 20.7315 18.6841C20.8253 18.5841 20.8975 18.4659 20.9437 18.3368C20.9899 18.2077 21.009 18.0705 20.9999 17.9337C20.9779 17.6766 20.8592 17.4374 20.6679 17.2641C20.4766 17.0909 20.2268 16.9965 19.9687 17H16.9999V14C16.9999 13.4696 17.2107 12.9609 17.5857 12.5858C17.9608 12.2107 18.4695 12 18.9999 12H20.9999C21.137 12.0003 21.2727 11.9724 21.3986 11.9181C21.5244 11.8637 21.6378 11.7841 21.7315 11.6841C21.8253 11.5841 21.8975 11.4659 21.9437 11.3368C21.9899 11.2077 22.009 11.0705 21.9999 10.9337C21.9778 10.6762 21.8588 10.4366 21.667 10.2633C21.4751 10.09 21.2247 9.99589 20.9662 10H18.9999C17.9391 10 16.9217 10.4214 16.1715 11.1716C15.4214 11.9217 14.9999 12.9391 14.9999 14V17H11.9999C11.8629 16.9997 11.7272 17.0276 11.6013 17.0819C11.4755 17.1363 11.3621 17.2159 11.2683 17.3159C11.1746 17.4159 11.1023 17.5341 11.0562 17.6632C11.01 17.7923 10.9909 17.9295 10.9999 18.0662C11.0221 18.3238 11.141 18.5634 11.3329 18.7367C11.5248 18.91 11.7752 19.0041 12.0337 19H14.9999V28.41C15.0004 28.4806 14.9859 28.5504 14.9574 28.615C14.9289 28.6795 14.887 28.7373 14.8346 28.7845C14.7822 28.8317 14.7204 28.8673 14.6532 28.889C14.5861 28.9106 14.5151 28.9178 14.4449 28.91C11.2066 28.5156 8.2344 26.9199 6.11654 24.4386C3.99867 21.9573 2.88955 18.7713 3.00869 15.5112C3.25869 8.76125 8.72619 3.27375 15.4812 3.01125C17.2301 2.94351 18.9746 3.22919 20.6105 3.8512C22.2464 4.47322 23.7401 5.4188 25.0021 6.63137C26.2642 7.84394 27.2687 9.2986 27.9556 10.9083C28.6425 12.5181 28.9977 14.2498 28.9999 16Z" fill="white"/>
<path d="M56 2.5C53.33 2.5 50.7199 3.29176 48.4998 4.77516C46.2797 6.25856 44.5494 8.36697 43.5276 10.8338C42.5058 13.3006 42.2385 16.015 42.7594 18.6337C43.2803 21.2525 44.5661 23.6579 46.4541 25.5459C48.3421 27.434 50.7475 28.7197 53.3663 29.2406C55.985 29.7615 58.6994 29.4942 61.1662 28.4724C63.633 27.4506 65.7414 25.7203 67.2248 23.5002C68.7082 21.2801 69.5 18.67 69.5 16C69.496 12.4208 68.0724 8.98932 65.5416 6.45844C63.0107 3.92756 59.5792 2.50397 56 2.5ZM57.5 26.3913V19.5H60C60.3978 19.5 60.7794 19.342 61.0607 19.0607C61.342 18.7794 61.5 18.3978 61.5 18C61.5 17.6022 61.342 17.2206 61.0607 16.9393C60.7794 16.658 60.3978 16.5 60 16.5H57.5V14C57.5 13.6022 57.658 13.2206 57.9393 12.9393C58.2207 12.658 58.6022 12.5 59 12.5H61C61.3978 12.5 61.7794 12.342 62.0607 12.0607C62.342 11.7794 62.5 11.3978 62.5 11C62.5 10.6022 62.342 10.2206 62.0607 9.93934C61.7794 9.65804 61.3978 9.5 61 9.5H59C57.8065 9.5 56.6619 9.97411 55.818 10.818C54.9741 11.6619 54.5 12.8065 54.5 14V16.5H52C51.6022 16.5 51.2206 16.658 50.9393 16.9393C50.658 17.2206 50.5 17.6022 50.5 18C50.5 18.3978 50.658 18.7794 50.9393 19.0607C51.2206 19.342 51.6022 19.5 52 19.5H54.5V26.3913C51.8726 26.012 49.4864 24.6517 47.8216 22.584C46.1567 20.5163 45.3369 17.8948 45.527 15.247C45.7171 12.5992 46.903 10.1217 48.8462 8.31307C50.7893 6.50444 53.3454 5.49895 56 5.49895C58.6546 5.49895 61.2107 6.50444 63.1538 8.31307C65.097 10.1217 66.2829 12.5992 66.473 15.247C66.6632 17.8948 65.8433 20.5163 64.1784 22.584C62.5136 24.6517 60.1274 26.012 57.5 26.3913Z" fill="white"/>
</g>
<defs>
<clipPath id="clip0_27_104">
<rect width="72" height="32" rx="5" fill="white"/>
</clipPath>
</defs>
</svg>
