<svg width="72" height="32" viewBox="0 0 72 32" fill="none" xmlns="http://www.w3.org/2000/svg">
<g clip-path="url(#clip0_27_4951)">
<path d="M28 9H27.8937C27.7992 8.71398 27.6413 8.453 27.4318 8.23655C27.2223 8.0201 26.9666 7.85378 26.6838 7.75L16.6838 4.125C16.242 3.96496 15.758 3.96496 15.3162 4.125L5.31625 7.76125C5.03345 7.86503 4.77774 8.03135 4.56822 8.2478C4.3587 8.46424 4.20078 8.72523 4.10625 9.01125H4C2.94108 9.01125 1.92537 9.43113 1.17554 10.1788C0.42572 10.9266 0.00297821 11.9411 0 13L0 16C0 17.0609 0.421427 18.0783 1.17157 18.8284C1.92172 19.5786 2.93913 20 4 20H4.64875C5.5475 21.975 7.3725 23.6788 10.0525 25.02C11.8837 25.9181 13.8224 26.5781 15.8212 26.9838C15.9394 27.0054 16.0606 27.0054 16.1787 26.9838C18.1776 26.5781 20.1163 25.9181 21.9475 25.02C24.6275 23.6788 26.4475 21.975 27.3512 20H28C29.0609 20 30.0783 19.5786 30.8284 18.8284C31.5786 18.0783 32 17.0609 32 16V13C32 11.9391 31.5786 10.9217 30.8284 10.1716C30.0783 9.42143 29.0609 9 28 9ZM4 18C3.46957 18 2.96086 17.7893 2.58579 17.4142C2.21071 17.0391 2 16.5304 2 16V13C2 12.4696 2.21071 11.9609 2.58579 11.5858C2.96086 11.2107 3.46957 11 4 11V17C4.00011 17.3345 4.02308 17.6686 4.06875 18H4ZM21 18H11C10.7348 18 10.4804 17.8946 10.2929 17.7071C10.1054 17.5196 10 17.2652 10 17C10 16.7348 10.1054 16.4804 10.2929 16.2929C10.4804 16.1054 10.7348 16 11 16H21C21.2652 16 21.5196 16.1054 21.7071 16.2929C21.8946 16.4804 22 16.7348 22 17C22 17.2652 21.8946 17.5196 21.7071 17.7071C21.5196 17.8946 21.2652 18 21 18ZM21 14H11C10.7348 14 10.4804 13.8946 10.2929 13.7071C10.1054 13.5196 10 13.2652 10 13C10 12.7348 10.1054 12.4804 10.2929 12.2929C10.4804 12.1054 10.7348 12 11 12H21C21.2652 12 21.5196 12.1054 21.7071 12.2929C21.8946 12.4804 22 12.7348 22 13C22 13.2652 21.8946 13.5196 21.7071 13.7071C21.5196 13.8946 21.2652 14 21 14ZM30 16C30 16.5304 29.7893 17.0391 29.4142 17.4142C29.0391 17.7893 28.5304 18 28 18H27.9312C27.9769 17.6686 27.9999 17.3345 28 17V11C28.5304 11 29.0391 11.2107 29.4142 11.5858C29.7893 11.9609 30 12.4696 30 13V16Z" fill="white"/>
<path d="M51.5 11H60.5C60.8978 11 61.2794 11.158 61.5607 11.4393C61.842 11.7206 62 12.1022 62 12.5C62 12.8978 61.842 13.2794 61.5607 13.5607C61.2794 13.842 60.8978 14 60.5 14H51.5C51.1022 14 50.7206 13.842 50.4393 13.5607C50.158 13.2794 50 12.8978 50 12.5C50 12.1022 50.158 11.7206 50.4393 11.4393C50.7206 11.158 51.1022 11 51.5 11ZM60.5 16H51.5C51.1022 16 50.7206 16.158 50.4393 16.4393C50.158 16.7206 50 17.1022 50 17.5C50 17.8978 50.158 18.2794 50.4393 18.5607C50.7206 18.842 51.1022 19 51.5 19H60.5C60.8978 19 61.2794 18.842 61.5607 18.5607C61.842 18.2794 62 17.8978 62 17.5C62 17.1022 61.842 16.7206 61.5607 16.4393C61.2794 16.158 60.8978 16 60.5 16ZM72 13V16C72 17.1935 71.5259 18.3381 70.682 19.182C69.8381 20.0259 68.6935 20.5 67.5 20.5H66.7313C65.8288 22.435 64.1413 24.1087 61.7225 25.44C60.0148 26.3631 58.188 27.0467 56.2938 27.4712C56.0998 27.5096 55.9002 27.5096 55.7063 27.4712C53.812 27.0467 51.9852 26.3631 50.2775 25.44C47.8588 24.1087 46.1713 22.44 45.2688 20.5H44.5C43.3065 20.5 42.1619 20.0259 41.318 19.182C40.4741 18.3381 40 17.1935 40 16V13C40 11.8065 40.4741 10.6619 41.318 9.81802C42.1619 8.9741 43.3065 8.5 44.5 8.5H44.75C45.0223 7.943 45.4925 7.50755 46.0687 7.27875L55.0688 3.67875C55.6647 3.43877 56.3303 3.43877 56.9263 3.67875L65.9263 7.27875C66.5044 7.50651 66.9765 7.94208 67.25 8.5H67.5C68.6935 8.5 69.8381 8.9741 70.682 9.81802C71.5259 10.6619 72 11.8065 72 13ZM44.5163 17.5C44.5062 17.335 44.5 17.1687 44.5 17V11.5C44.1022 11.5 43.7206 11.658 43.4393 11.9393C43.158 12.2206 43 12.6022 43 13V16C43 16.3978 43.158 16.7794 43.4393 17.0607C43.7206 17.342 44.1022 17.5 44.5 17.5H44.5163ZM64.5 9.93875L56 6.53875L47.5 9.93875V17C47.5 22.0787 54.465 24.0812 56 24.4612C57.5312 24.0862 64.5 22.08 64.5 17V9.93875ZM69 13C69 12.6022 68.842 12.2206 68.5607 11.9393C68.2794 11.658 67.8978 11.5 67.5 11.5V17C67.5 17.1687 67.4937 17.335 67.4837 17.5H67.5C67.8978 17.5 68.2794 17.342 68.5607 17.0607C68.842 16.7794 69 16.3978 69 16V13Z" fill="white"/>
</g>
<defs>
<clipPath id="clip0_27_4951">
<rect width="72" height="32" rx="5" fill="white"/>
</clipPath>
</defs>
</svg>
