<svg width="72" height="32" viewBox="0 0 72 32" fill="none" xmlns="http://www.w3.org/2000/svg">
<g clip-path="url(#clip0_27_1177)">
<path d="M29 26H28V17C28 16.9938 28 16.9888 28 16.9825C28 16.9763 28 16.9463 28 16.9288C28 16.9113 28 16.8938 28 16.8775C28.0006 16.8713 28.0006 16.865 28 16.8588L26.125 3.7175C26.0547 3.23957 25.8146 2.80294 25.4487 2.48754C25.0828 2.17214 24.6156 1.99907 24.1325 2H21.8675C21.3866 2.00206 20.9223 2.17649 20.559 2.49162C20.1957 2.80675 19.9575 3.2417 19.8875 3.7175L18.4425 13.8313L13.6 10.2C13.4514 10.0886 13.2748 10.0207 13.0898 10.004C12.9048 9.98737 12.7189 10.0225 12.5528 10.1056C12.3867 10.1886 12.247 10.3163 12.1493 10.4743C12.0517 10.6322 12 10.8143 12 11V15L5.6 10.2C5.45143 10.0886 5.27477 10.0207 5.08981 10.004C4.90484 9.98737 4.71889 10.0225 4.55279 10.1056C4.38668 10.1886 4.24698 10.3163 4.14935 10.4743C4.05171 10.6322 4 10.8143 4 11V26H3C2.73478 26 2.48043 26.1054 2.29289 26.2929C2.10536 26.4804 2 26.7348 2 27C2 27.2652 2.10536 27.5196 2.29289 27.7071C2.48043 27.8946 2.73478 28 3 28H29C29.2652 28 29.5196 27.8946 29.7071 27.7071C29.8946 27.5196 30 27.2652 30 27C30 26.7348 29.8946 26.4804 29.7071 26.2929C29.5196 26.1054 29.2652 26 29 26ZM13.5 23H10C9.73478 23 9.48043 22.8946 9.29289 22.7071C9.10536 22.5196 9 22.2652 9 22C9 21.7348 9.10536 21.4804 9.29289 21.2929C9.48043 21.1054 9.73478 21 10 21H13.5C13.7652 21 14.0196 21.1054 14.2071 21.2929C14.3946 21.4804 14.5 21.7348 14.5 22C14.5 22.2652 14.3946 22.5196 14.2071 22.7071C14.0196 22.8946 13.7652 23 13.5 23ZM22 23H18.5C18.2348 23 17.9804 22.8946 17.7929 22.7071C17.6054 22.5196 17.5 22.2652 17.5 22C17.5 21.7348 17.6054 21.4804 17.7929 21.2929C17.9804 21.1054 18.2348 21 18.5 21H22C22.2652 21 22.5196 21.1054 22.7071 21.2929C22.8946 21.4804 23 21.7348 23 22C23 22.2652 22.8946 22.5196 22.7071 22.7071C22.5196 22.8946 22.2652 23 22 23ZM21.3337 16L20.2675 15.2L21.8675 4H24.1325L25.8475 16H21.3337Z" fill="white"/>
<path d="M55 22C55 22.3978 54.842 22.7794 54.5607 23.0607C54.2794 23.342 53.8978 23.5 53.5 23.5H50C49.6022 23.5 49.2206 23.342 48.9393 23.0607C48.658 22.7794 48.5 22.3978 48.5 22C48.5 21.6022 48.658 21.2206 48.9393 20.9393C49.2206 20.658 49.6022 20.5 50 20.5H53.5C53.8978 20.5 54.2794 20.658 54.5607 20.9393C54.842 21.2206 55 21.6022 55 22ZM62 20.5H58.5C58.1022 20.5 57.7206 20.658 57.4393 20.9393C57.158 21.2206 57 21.6022 57 22C57 22.3978 57.158 22.7794 57.4393 23.0607C57.7206 23.342 58.1022 23.5 58.5 23.5H62C62.3978 23.5 62.7794 23.342 63.0607 23.0607C63.342 22.7794 63.5 22.3978 63.5 22C63.5 21.6022 63.342 21.2206 63.0607 20.9393C62.7794 20.658 62.3978 20.5 62 20.5ZM70.5 27C70.5 27.3978 70.342 27.7794 70.0607 28.0607C69.7794 28.342 69.3978 28.5 69 28.5H43C42.6022 28.5 42.2206 28.342 41.9393 28.0607C41.658 27.7794 41.5 27.3978 41.5 27C41.5 26.6022 41.658 26.2206 41.9393 25.9393C42.2206 25.658 42.6022 25.5 43 25.5H43.5V11C43.5 10.7214 43.5776 10.4484 43.724 10.2114C43.8705 9.97444 44.08 9.78294 44.3292 9.65836C44.5783 9.53378 44.8573 9.48104 45.1347 9.50606C45.4122 9.53108 45.6771 9.63286 45.9 9.8L51.5 14V11C51.5 10.7214 51.5776 10.4484 51.724 10.2114C51.8705 9.97444 52.08 9.78294 52.3292 9.65836C52.5783 9.53378 52.8573 9.48104 53.1347 9.50606C53.4122 9.53108 53.6771 9.63286 53.9 9.8L58.0662 12.925L59.3925 3.64625C59.4801 3.0516 59.778 2.50807 60.2321 2.11428C60.6862 1.7205 61.2664 1.50255 61.8675 1.5H64.1325C64.7336 1.50255 65.3138 1.7205 65.7679 2.11428C66.222 2.50807 66.5199 3.0516 66.6075 3.64625L68.4825 16.7875C68.4825 16.8 68.4975 16.955 68.4975 17V25.5H68.9975C69.1947 25.4997 69.39 25.5382 69.5723 25.6135C69.7546 25.6887 69.9202 25.7991 70.0598 25.9385C70.1993 26.0778 70.31 26.2432 70.3856 26.4254C70.4611 26.6075 70.5 26.8028 70.5 27ZM60.8037 14.9788L61.5 15.5H65.27L63.6987 4.5H62.3013L60.8037 14.9788ZM46.5 25.5H65.5V18.5H61C60.6754 18.5 60.3596 18.3947 60.1 18.2L58.3025 16.8525H58.295L54.5 14V17C54.5 17.2786 54.4224 17.5516 54.276 17.7886C54.1295 18.0256 53.92 18.2171 53.6708 18.3416C53.4217 18.4662 53.1427 18.519 52.8653 18.4939C52.5878 18.4689 52.3229 18.3671 52.1 18.2L46.5 14V25.5Z" fill="white"/>
</g>
<defs>
<clipPath id="clip0_27_1177">
<rect width="72" height="32" rx="5" fill="white"/>
</clipPath>
</defs>
</svg>
