<svg width="72" height="32" viewBox="0 0 72 32" fill="none" xmlns="http://www.w3.org/2000/svg">
<g clip-path="url(#clip0_27_3734)">
<path d="M23 10C23 9.73478 23.1054 9.48043 23.2929 9.29289C23.4804 9.10536 23.7348 9 24 9H27C27.2652 9 27.5196 9.10536 27.7071 9.29289C27.8946 9.48043 28 9.73478 28 10C28 10.2652 27.8946 10.5196 27.7071 10.7071C27.5196 10.8946 27.2652 11 27 11H24C23.7348 11 23.4804 10.8946 23.2929 10.7071C23.1054 10.5196 23 10.2652 23 10ZM5 11H17V13C17 13.2652 17.1054 13.5196 17.2929 13.7071C17.4804 13.8946 17.7348 14 18 14H20C20.2652 14 20.5196 13.8946 20.7071 13.7071C20.8946 13.5196 21 13.2652 21 13V7C21 6.73478 20.8946 6.48043 20.7071 6.29289C20.5196 6.10536 20.2652 6 20 6H18C17.7348 6 17.4804 6.10536 17.2929 6.29289C17.1054 6.48043 17 6.73478 17 7V9H5C4.73478 9 4.48043 9.10536 4.29289 9.29289C4.10536 9.48043 4 9.73478 4 10C4 10.2652 4.10536 10.5196 4.29289 10.7071C4.48043 10.8946 4.73478 11 5 11ZM27 21H16C15.7348 21 15.4804 21.1054 15.2929 21.2929C15.1054 21.4804 15 21.7348 15 22C15 22.2652 15.1054 22.5196 15.2929 22.7071C15.4804 22.8946 15.7348 23 16 23H27C27.2652 23 27.5196 22.8946 27.7071 22.7071C27.8946 22.5196 28 22.2652 28 22C28 21.7348 27.8946 21.4804 27.7071 21.2929C27.5196 21.1054 27.2652 21 27 21ZM12 18H10C9.73478 18 9.48043 18.1054 9.29289 18.2929C9.10536 18.4804 9 18.7348 9 19V21H5C4.73478 21 4.48043 21.1054 4.29289 21.2929C4.10536 21.4804 4 21.7348 4 22C4 22.2652 4.10536 22.5196 4.29289 22.7071C4.48043 22.8946 4.73478 23 5 23H9V25C9 25.2652 9.10536 25.5196 9.29289 25.7071C9.48043 25.8946 9.73478 26 10 26H12C12.2652 26 12.5196 25.8946 12.7071 25.7071C12.8946 25.5196 13 25.2652 13 25V19C13 18.7348 12.8946 18.4804 12.7071 18.2929C12.5196 18.1054 12.2652 18 12 18Z" fill="white"/>
<path d="M62 10C62 9.60218 62.158 9.22064 62.4393 8.93934C62.7206 8.65804 63.1022 8.5 63.5 8.5H67C67.3978 8.5 67.7794 8.65804 68.0607 8.93934C68.342 9.22064 68.5 9.60218 68.5 10C68.5 10.3978 68.342 10.7794 68.0607 11.0607C67.7794 11.342 67.3978 11.5 67 11.5H63.5C63.1022 11.5 62.7206 11.342 62.4393 11.0607C62.158 10.7794 62 10.3978 62 10ZM45 11.5H57V13C57 13.3978 57.158 13.7794 57.4393 14.0607C57.7206 14.342 58.1022 14.5 58.5 14.5C58.8978 14.5 59.2794 14.342 59.5607 14.0607C59.842 13.7794 60 13.3978 60 13V7C60 6.60218 59.842 6.22064 59.5607 5.93934C59.2794 5.65804 58.8978 5.5 58.5 5.5C58.1022 5.5 57.7206 5.65804 57.4393 5.93934C57.158 6.22064 57 6.60218 57 7V8.5H45C44.6022 8.5 44.2206 8.65804 43.9393 8.93934C43.658 9.22064 43.5 9.60218 43.5 10C43.5 10.3978 43.658 10.7794 43.9393 11.0607C44.2206 11.342 44.6022 11.5 45 11.5ZM67 20.5H55.5C55.1022 20.5 54.7206 20.658 54.4393 20.9393C54.158 21.2206 54 21.6022 54 22C54 22.3978 54.158 22.7794 54.4393 23.0607C54.7206 23.342 55.1022 23.5 55.5 23.5H67C67.3978 23.5 67.7794 23.342 68.0607 23.0607C68.342 22.7794 68.5 22.3978 68.5 22C68.5 21.6022 68.342 21.2206 68.0607 20.9393C67.7794 20.658 67.3978 20.5 67 20.5ZM50.5 17.5C50.1022 17.5 49.7206 17.658 49.4393 17.9393C49.158 18.2206 49 18.6022 49 19V20.5H45C44.6022 20.5 44.2206 20.658 43.9393 20.9393C43.658 21.2206 43.5 21.6022 43.5 22C43.5 22.3978 43.658 22.7794 43.9393 23.0607C44.2206 23.342 44.6022 23.5 45 23.5H49V25C49 25.3978 49.158 25.7794 49.4393 26.0607C49.7206 26.342 50.1022 26.5 50.5 26.5C50.8978 26.5 51.2794 26.342 51.5607 26.0607C51.842 25.7794 52 25.3978 52 25V19C52 18.6022 51.842 18.2206 51.5607 17.9393C51.2794 17.658 50.8978 17.5 50.5 17.5Z" fill="white"/>
</g>
<defs>
<clipPath id="clip0_27_3734">
<rect width="72" height="32" rx="5" fill="white"/>
</clipPath>
</defs>
</svg>
