<svg width="72" height="32" viewBox="0 0 72 32" fill="none" xmlns="http://www.w3.org/2000/svg">
<g clip-path="url(#clip0_27_4339)">
<path d="M28.9927 15.5688C28.7715 8.7575 23.2427 3.22875 16.4315 3.0075C14.6532 2.95017 12.882 3.25818 11.2274 3.9125C9.5728 4.56682 8.07001 5.55353 6.81188 6.81166C5.55376 8.06978 4.56704 9.57257 3.91273 11.2272C3.25841 12.8817 2.9504 14.6529 3.00773 16.4313C3.22898 23.2425 8.75773 28.7713 15.569 28.9925C17.3473 29.0498 19.1185 28.7418 20.7731 28.0875C22.4277 27.4332 23.9305 26.4465 25.1886 25.1884C26.4467 23.9302 27.4334 22.4274 28.0877 20.7729C28.7421 19.1183 29.0501 17.3471 28.9927 15.5688ZM24.7977 17.6838L21.8665 21.7875C21.7679 21.9253 21.6379 22.0376 21.4873 22.1151C21.3366 22.1925 21.1696 22.233 21.0002 22.233C20.8308 22.233 20.6639 22.1925 20.5132 22.1151C20.3625 22.0376 20.2325 21.9253 20.134 21.7875L16.0002 16L11.8665 21.7875C11.7679 21.9253 11.6379 22.0376 11.4873 22.1151C11.3366 22.1925 11.1696 22.233 11.0002 22.233C10.8308 22.233 10.6639 22.1925 10.5132 22.1151C10.3625 22.0376 10.2325 21.9253 10.134 21.7875L7.20273 17.6838C7.08909 17.5246 7.02149 17.3371 7.00734 17.142C6.99319 16.9469 7.03305 16.7517 7.12253 16.5778C7.21202 16.4039 7.34768 16.2579 7.51463 16.156C7.68158 16.0541 7.87338 16.0001 8.06898 16H16.0002L12.2027 10.6838C12.0891 10.5246 12.0215 10.3371 12.0073 10.142C11.9932 9.94694 12.033 9.75172 12.1225 9.57779C12.212 9.40385 12.3477 9.25792 12.5146 9.156C12.6816 9.05408 12.8734 9.00011 13.069 9H18.9315C19.1271 9.00011 19.3189 9.05408 19.4858 9.156C19.6528 9.25792 19.7884 9.40385 19.8779 9.57779C19.9674 9.75172 20.0073 9.94694 19.9931 10.142C19.979 10.3371 19.9114 10.5246 19.7977 10.6838L16.0002 16H23.9315C24.1271 16.0001 24.3189 16.0541 24.4858 16.156C24.6528 16.2579 24.7884 16.4039 24.8779 16.5778C24.9674 16.7517 25.0073 16.9469 24.9931 17.142C24.979 17.3371 24.9114 17.5246 24.7977 17.6838Z" fill="white"/>
<path d="M56 2.5C53.33 2.5 50.7199 3.29176 48.4998 4.77516C46.2797 6.25856 44.5494 8.36697 43.5276 10.8338C42.5058 13.3006 42.2385 16.015 42.7594 18.6337C43.2803 21.2525 44.5661 23.6579 46.4541 25.5459C48.3421 27.434 50.7475 28.7197 53.3663 29.2406C55.985 29.7615 58.6994 29.4942 61.1662 28.4724C63.633 27.4506 65.7414 25.7203 67.2248 23.5002C68.7082 21.2801 69.5 18.67 69.5 16C69.496 12.4208 68.0724 8.98932 65.5416 6.45844C63.0107 3.92756 59.5792 2.50397 56 2.5ZM56 26.5C53.9233 26.5 51.8932 25.8842 50.1665 24.7304C48.4398 23.5767 47.094 21.9368 46.2993 20.0182C45.5046 18.0996 45.2966 15.9884 45.7018 13.9516C46.1069 11.9148 47.1069 10.0438 48.5754 8.57538C50.0438 7.10693 51.9148 6.1069 53.9516 5.70175C55.9884 5.29661 58.0996 5.50454 60.0182 6.29926C61.9368 7.09399 63.5767 8.4398 64.7304 10.1665C65.8842 11.8932 66.5 13.9233 66.5 16C66.497 18.7839 65.3898 21.4528 63.4213 23.4213C61.4529 25.3898 58.7839 26.497 56 26.5ZM64.25 17.3325L61.25 21.8325C61.1132 22.0388 60.9274 22.208 60.7093 22.325C60.4912 22.4421 60.2475 22.5033 60 22.5033C59.7525 22.5033 59.5088 22.4421 59.2907 22.325C59.0726 22.208 58.8868 22.0388 58.75 21.8325L56 17.7075L53.25 21.8325C53.1132 22.0388 52.9274 22.208 52.7093 22.325C52.4912 22.4421 52.2475 22.5033 52 22.5033C51.7525 22.5033 51.5088 22.4421 51.2907 22.325C51.0726 22.208 50.8868 22.0388 50.75 21.8325L47.75 17.3325C47.5992 17.1065 47.5126 16.8437 47.4995 16.5723C47.4864 16.3009 47.5473 16.031 47.6757 15.7915C47.804 15.552 47.995 15.3518 48.2283 15.2124C48.4615 15.073 48.7283 14.9996 49 15H54.1975L51.75 11.3325C51.5992 11.1065 51.5126 10.8437 51.4995 10.5723C51.4864 10.3009 51.5473 10.031 51.6757 9.79147C51.804 9.55196 51.995 9.35182 52.2283 9.21242C52.4615 9.07302 52.7283 8.9996 53 9H59C59.2717 8.9996 59.5385 9.07302 59.7717 9.21242C60.005 9.35182 60.196 9.55196 60.3243 9.79147C60.4527 10.031 60.5136 10.3009 60.5005 10.5723C60.4874 10.8437 60.4008 11.1065 60.25 11.3325L57.8025 15H63C63.2717 14.9996 63.5385 15.073 63.7717 15.2124C64.005 15.3518 64.196 15.552 64.3243 15.7915C64.4527 16.031 64.5136 16.3009 64.5005 16.5723C64.4874 16.8437 64.4008 17.1065 64.25 17.3325Z" fill="white"/>
</g>
<defs>
<clipPath id="clip0_27_4339">
<rect width="72" height="32" rx="5" fill="white"/>
</clipPath>
</defs>
</svg>
