<svg width="72" height="32" viewBox="0 0 72 32" fill="none" xmlns="http://www.w3.org/2000/svg">
<g clip-path="url(#clip0_27_1182)">
<path d="M29.125 16.875C28.8222 15.7438 28.2587 14.6993 27.4797 13.825C26.7006 12.9508 25.7277 12.271 24.6388 11.8403C23.5499 11.4096 22.3753 11.2398 21.209 11.3446C20.0427 11.4494 18.9172 11.8258 17.9225 12.4437L19.9712 4.26372C20.0221 4.06049 20.0078 3.84643 19.9304 3.65175C19.853 3.45707 19.7165 3.29161 19.54 3.17872C18.6895 2.64166 17.7396 2.28118 16.7469 2.11873C15.7542 1.95627 14.739 1.99516 13.7617 2.23308C12.7843 2.471 11.8648 2.90308 11.0579 3.50363C10.251 4.10418 9.57306 4.86091 9.06456 5.7288C8.55606 6.59669 8.22733 7.558 8.09794 8.55553C7.96855 9.55306 8.04114 10.5664 8.3114 11.5353C8.58166 12.5042 9.04405 13.4089 9.67107 14.1954C10.2981 14.982 11.0769 15.6343 11.9612 16.1137L3.85248 18.43C3.65104 18.4873 3.47269 18.6065 3.34261 18.7707C3.21252 18.9349 3.13728 19.1357 3.12748 19.345C3.05052 21.0524 3.55903 22.7348 4.5688 24.1138C5.57856 25.4927 7.02902 26.4854 8.67999 26.9275C9.31676 27.0984 9.97316 27.1854 10.6325 27.1862C11.6372 27.1836 12.6311 26.9793 13.5554 26.5855C14.4798 26.1918 15.3157 25.6165 16.0136 24.8938C16.7116 24.1712 17.2574 23.3158 17.6188 22.3783C17.9802 21.4408 18.1498 20.4404 18.1175 19.4362L24.1775 25.3012C24.3282 25.447 24.5209 25.5418 24.7284 25.572C24.9359 25.6023 25.1476 25.5666 25.3337 25.47C26.85 24.6833 28.0523 23.4025 28.7417 21.8396C29.4311 20.2766 29.5663 18.5252 29.125 16.875ZM16.305 18.4812C15.8142 18.5416 15.3166 18.455 14.875 18.2325C14.4334 18.01 14.0677 17.6616 13.8242 17.2313C13.5806 16.801 13.4702 16.3081 13.5067 15.815C13.5433 15.3219 13.7253 14.8507 14.0297 14.461C14.334 14.0713 14.7471 13.7807 15.2167 13.6258C15.6863 13.4709 16.1912 13.4587 16.6677 13.5907C17.1442 13.7228 17.5708 13.9932 17.8936 14.3678C18.2164 14.7423 18.4209 15.2042 18.4812 15.695C18.5621 16.353 18.3783 17.0163 17.9701 17.5388C17.562 18.0613 16.963 18.4003 16.305 18.4812Z" fill="white"/>
<path d="M69.6062 16.75C69.3085 15.6374 68.774 14.6023 68.0394 13.7153C67.3047 12.8282 66.3872 12.1103 65.3496 11.6105C64.3119 11.1108 63.1786 10.8409 62.0271 10.8195C60.8756 10.798 59.733 11.0255 58.6774 11.4863L60.4549 4.39002C60.5307 4.0856 60.509 3.7651 60.3931 3.4736C60.2772 3.18211 60.0728 2.93429 59.8087 2.76502C58.0604 1.65692 55.9506 1.2696 53.9227 1.68442C51.8948 2.09925 50.1066 3.28394 48.9339 4.98957C47.7611 6.6952 47.2951 8.78899 47.6338 10.831C47.9724 12.873 49.0894 14.7043 50.7499 15.94L43.7149 17.9488C43.4126 18.0352 43.1451 18.2144 42.9502 18.4612C42.7552 18.7079 42.6428 19.0096 42.6287 19.3238C42.5232 21.4046 43.2336 23.4446 44.609 25.0097C45.9843 26.5748 47.916 27.5416 49.9932 27.7045C52.0704 27.8673 54.1291 27.2133 55.7315 25.8817C57.334 24.55 58.3537 22.6457 58.5737 20.5738L63.8237 25.6613C64.0499 25.8791 64.3389 26.0203 64.6497 26.0652C64.9605 26.11 65.2776 26.0562 65.5562 25.9113C67.1733 25.0733 68.456 23.7087 69.1924 22.0429C69.9288 20.3772 70.0748 18.51 69.6062 16.75ZM54.4999 16C54.4999 15.7034 54.5879 15.4133 54.7527 15.1667C54.9176 14.92 55.1518 14.7277 55.4259 14.6142C55.7 14.5007 56.0016 14.471 56.2926 14.5288C56.5835 14.5867 56.8508 14.7296 57.0606 14.9394C57.2704 15.1491 57.4132 15.4164 57.4711 15.7074C57.529 15.9984 57.4993 16.3 57.3858 16.574C57.2722 16.8481 57.08 17.0824 56.8333 17.2472C56.5866 17.4121 56.2966 17.5 55.9999 17.5C55.6021 17.5 55.2206 17.342 54.9393 17.0607C54.658 16.7794 54.4999 16.3978 54.4999 16ZM55.4999 4.50002C56.0975 4.50002 56.6902 4.60713 57.2499 4.81627L55.5749 11.5213C54.9347 11.5824 54.315 11.78 53.7576 12.1009C53.2002 12.4217 52.7181 12.8583 52.3437 13.3813C51.5416 12.7299 50.961 11.846 50.6818 10.8511C50.4026 9.85625 50.4385 8.79933 50.7845 7.82569C51.1305 6.85206 51.7697 6.00954 52.6141 5.414C53.4585 4.81847 54.4666 4.49917 55.4999 4.50002ZM53.1249 24.0125C52.4249 24.4176 51.6371 24.6469 50.829 24.6806C50.0209 24.7143 49.2167 24.5515 48.4853 24.2061C47.754 23.8607 47.1174 23.3431 46.6301 22.6976C46.1427 22.0521 45.8193 21.298 45.6874 20.5L52.3349 18.6013C52.7072 19.1262 53.1877 19.5652 53.744 19.8887C54.3003 20.2121 54.9196 20.4125 55.5599 20.4763C55.4435 21.21 55.1644 21.9084 54.7431 22.5203C54.3218 23.1322 53.7689 23.642 53.1249 24.0125ZM66.2124 21.3175C65.9135 21.8367 65.5235 22.2978 65.0612 22.6788L60.0912 17.875C60.3595 17.2903 60.4989 16.6547 60.4999 16.0113C60.501 15.368 60.3637 14.7319 60.0974 14.1463C61.0626 13.7778 62.1183 13.7173 63.1192 13.9732C64.1202 14.2291 65.0173 14.7888 65.6872 15.5753C66.3571 16.3619 66.7669 17.3366 66.8603 18.3655C66.9537 19.3944 66.7261 20.427 66.2087 21.3213L66.2124 21.3175Z" fill="white"/>
</g>
<defs>
<clipPath id="clip0_27_1182">
<rect width="72" height="32" rx="5" fill="white"/>
</clipPath>
</defs>
</svg>
