<svg width="72" height="32" viewBox="0 0 72 32" fill="none" xmlns="http://www.w3.org/2000/svg">
<g clip-path="url(#clip0_27_1187)">
<path d="M17.1038 27.5537C16.9569 27.7745 16.7283 27.9279 16.4683 27.9802C16.2084 28.0324 15.9383 27.9793 15.7175 27.8325C11.9502 25.3263 7.52475 23.9927 3 24C2.73478 24 2.48043 23.8946 2.29289 23.7071C2.10536 23.5196 2 23.2652 2 23C2 22.7348 2.10536 22.4804 2.29289 22.2929C2.48043 22.1054 2.73478 22 3 22C7.91891 21.9925 12.7297 23.4427 16.825 26.1675C17.0458 26.3144 17.1991 26.5429 17.2514 26.8029C17.3037 27.0629 17.2506 27.3329 17.1038 27.5537ZM3 18C2.73478 18 2.48043 18.1054 2.29289 18.2929C2.10536 18.4804 2 18.7348 2 19C2 19.2652 2.10536 19.5196 2.29289 19.7071C2.48043 19.8946 2.73478 20 3 20C10.0685 19.9838 16.8583 22.7555 21.8962 27.7138C21.9892 27.8093 22.1003 27.8854 22.2231 27.9374C22.3458 27.9894 22.4777 28.0163 22.611 28.0166C22.7444 28.0169 22.8764 27.9905 22.9994 27.939C23.1223 27.8875 23.2338 27.812 23.3271 27.7168C23.4205 27.6216 23.4938 27.5087 23.5429 27.3848C23.592 27.2608 23.6158 27.1283 23.6129 26.995C23.6101 26.8617 23.5806 26.7304 23.5262 26.6087C23.4718 26.4869 23.3936 26.3773 23.2962 26.2862C17.8855 20.9599 10.5925 17.9824 3 18ZM29 20C26.956 19.9987 24.9184 20.2289 22.9263 20.6863C23.6129 21.2071 24.2796 21.7554 24.9263 22.3312C26.273 22.1107 27.6354 21.9999 29 22C29.2652 22 29.5196 22.1054 29.7071 22.2929C29.8946 22.4804 30 22.7348 30 23C30 23.2652 29.8946 23.5196 29.7071 23.7071C29.5196 23.8946 29.2652 24 29 24C28.25 24 27.5087 24.0362 26.7687 24.1075C27.4621 24.83 28.1262 25.5858 28.7612 26.375C28.8482 26.4769 28.9139 26.5952 28.9542 26.7229C28.9946 26.8506 29.0089 26.9851 28.9963 27.1185C28.9837 27.2518 28.9445 27.3813 28.8809 27.4992C28.8173 27.6171 28.7306 27.721 28.6261 27.8047C28.5215 27.8885 28.4013 27.9504 28.2723 27.9868C28.1434 28.0232 28.0085 28.0333 27.8756 28.0165C27.7427 27.9997 27.6145 27.9564 27.4987 27.8892C27.3829 27.8219 27.2817 27.7321 27.2013 27.625C24.3028 23.9903 20.6209 21.0571 16.4304 19.0442C12.2399 17.0313 7.64888 15.9907 3 16C2.73478 16 2.48043 15.8946 2.29289 15.7071C2.10536 15.5196 2 15.2652 2 15C2 14.7348 2.10536 14.4804 2.29289 14.2929C2.48043 14.1054 2.73478 14 3 14C5.01247 14.0002 7.02074 14.1834 9 14.5475V10C9 9.84475 9.03615 9.69164 9.10557 9.55279C9.175 9.41393 9.2758 9.29315 9.4 9.2L17.4 3.2C17.5731 3.07018 17.7836 3 18 3C18.2164 3 18.4269 3.07018 18.6 3.2L26.6 9.2C26.7242 9.29315 26.825 9.41393 26.8944 9.55279C26.9639 9.69164 27 9.84475 27 10V14.0625C27.6637 14.0225 28.33 14 29 14C29.2652 14 29.5196 14.1054 29.7071 14.2929C29.8946 14.4804 30 14.7348 30 15C30 15.2652 29.8946 15.5196 29.7071 15.7071C29.5196 15.8946 29.2652 16 29 16C25.4089 15.9931 21.8444 16.6146 18.4675 17.8363C19.2542 18.2529 20.0233 18.7021 20.775 19.1838C23.4457 18.3967 26.2157 17.998 29 18C29.2652 18 29.5196 18.1054 29.7071 18.2929C29.8946 18.4804 30 18.7348 30 19C30 19.2652 29.8946 19.5196 29.7071 19.7071C29.5196 19.8946 29.2652 20 29 20ZM16.0088 16.6588C17.6245 15.9646 19.2937 15.4019 21 14.9762V12H15V16.25C15.3387 16.375 15.675 16.5163 16.0088 16.6588Z" fill="white"/>
<path d="M62.1462 25.8888C62.2921 26.0215 62.4104 26.1816 62.4943 26.36C62.5783 26.5385 62.6263 26.7317 62.6356 26.9287C62.6449 27.1256 62.6153 27.3225 62.5485 27.5081C62.4817 27.6936 62.379 27.8642 62.2463 28.01C62.1135 28.1558 61.9534 28.2741 61.775 28.3581C61.5965 28.442 61.4033 28.49 61.2063 28.4993C61.0094 28.5086 60.8125 28.479 60.6269 28.4122C60.4414 28.3454 60.2708 28.2427 60.125 28.11C55.4381 23.8523 49.332 21.4955 43 21.5C42.6022 21.5 42.2206 21.342 41.9393 21.0607C41.658 20.7794 41.5 20.3978 41.5 20C41.5 19.6022 41.658 19.2206 41.9393 18.9393C42.2206 18.658 42.6022 18.5 43 18.5C50.0794 18.4933 56.9067 21.128 62.1462 25.8888ZM52.8038 25.6388C49.7299 24.2225 46.3844 23.4927 43 23.5C42.6022 23.5 42.2206 23.658 41.9393 23.9393C41.658 24.2206 41.5 24.6022 41.5 25C41.5 25.3978 41.658 25.7794 41.9393 26.0607C42.2206 26.342 42.6022 26.5 43 26.5C45.9518 26.4925 48.8699 27.1281 51.5513 28.3625C51.731 28.4501 51.9265 28.5009 52.1261 28.5119C52.3258 28.5229 52.5257 28.4939 52.714 28.4265C52.9022 28.3591 53.0752 28.2548 53.2225 28.1196C53.3699 27.9844 53.4887 27.8212 53.5721 27.6394C53.6554 27.4576 53.7016 27.261 53.7078 27.0611C53.7141 26.8612 53.6803 26.6621 53.6085 26.4755C53.5367 26.2888 53.4283 26.1185 53.2896 25.9743C53.151 25.8302 52.985 25.7153 52.8013 25.6362L52.8038 25.6388ZM70.5 20C70.5 20.3978 70.342 20.7794 70.0607 21.0607C69.7794 21.342 69.3978 21.5 69 21.5C67.6867 21.4994 66.3754 21.5997 65.0775 21.8C66.5571 23.0989 67.9202 24.5247 69.1513 26.0613C69.2817 26.214 69.3802 26.3915 69.4407 26.5831C69.5013 26.7747 69.5228 26.9764 69.5039 27.1765C69.485 27.3765 69.4261 27.5707 69.3307 27.7475C69.2353 27.9244 69.1053 28.0802 68.9485 28.2059C68.7917 28.3315 68.6113 28.4244 68.4179 28.4789C68.2245 28.5335 68.0221 28.5487 67.8228 28.5235C67.6234 28.4984 67.4312 28.4334 67.2574 28.3325C67.0837 28.2317 66.9319 28.0969 66.8113 27.9363C63.9594 24.3603 60.3369 21.4745 56.2139 19.4942C52.0909 17.514 47.5739 16.4905 43 16.5C42.6022 16.5 42.2206 16.342 41.9393 16.0607C41.658 15.7794 41.5 15.3978 41.5 15C41.5 14.6022 41.658 14.2206 41.9393 13.9393C42.2206 13.658 42.6022 13.5 43 13.5C44.8425 13.5002 46.682 13.6507 48.5 13.95V10C48.5 9.76713 48.5542 9.53746 48.6584 9.32918C48.7625 9.1209 48.9137 8.93972 49.1 8.8L57.1 2.8C57.3596 2.60527 57.6754 2.5 58 2.5C58.3246 2.5 58.6404 2.60527 58.9 2.8L66.9 8.8C67.0863 8.93972 67.2375 9.1209 67.3416 9.32918C67.4458 9.53746 67.5 9.76713 67.5 10V13.535C68 13.5138 68.5 13.5 69 13.5C69.3978 13.5 69.7794 13.658 70.0607 13.9393C70.342 14.2206 70.5 14.6022 70.5 15C70.5 15.3978 70.342 15.7794 70.0607 16.0607C69.7794 16.342 69.3978 16.5 69 16.5C65.843 16.4946 62.7044 16.9817 59.6975 17.9438C60.4708 18.3896 61.2271 18.8671 61.9662 19.3762C64.2654 18.7934 66.6281 18.499 69 18.5C69.3978 18.5 69.7794 18.658 70.0607 18.9393C70.342 19.2206 70.5 19.6022 70.5 20ZM59.5 13.5H56.5V15.9125C57.4858 15.515 58.4858 15.1654 59.5 14.8638V13.5ZM51.5 14.5863C52.1737 14.7613 52.84 14.9613 53.5 15.1763V12C53.5 11.6022 53.658 11.2206 53.9393 10.9393C54.2206 10.658 54.6022 10.5 55 10.5H61C61.3978 10.5 61.7794 10.658 62.0607 10.9393C62.342 11.2206 62.5 11.6022 62.5 12V14.125C63.1667 13.995 63.8333 13.8846 64.5 13.7937V10.75L58 5.875L51.5 10.75V14.5863Z" fill="white"/>
</g>
<defs>
<clipPath id="clip0_27_1187">
<rect width="72" height="32" rx="5" fill="white"/>
</clipPath>
</defs>
</svg>
