<svg width="72" height="32" viewBox="0 0 72 32" fill="none" xmlns="http://www.w3.org/2000/svg">
<g clip-path="url(#clip0_27_3739)">
<path d="M32 16C32.0005 16.3327 31.9167 16.6601 31.7565 16.9517C31.5963 17.2433 31.3649 17.4895 31.0837 17.6675L20.06 24.6875C19.76 24.8793 19.4141 24.987 19.0582 24.9995C18.7024 25.0119 18.3498 24.9286 18.0371 24.7582C17.7245 24.5879 17.4633 24.3367 17.2809 24.0309C17.0984 23.7252 17.0014 23.376 17 23.02V18.3575L7.06 24.6875C6.76002 24.8793 6.41406 24.987 6.05823 24.9995C5.7024 25.0119 5.34976 24.9286 5.03712 24.7582C4.72448 24.5879 4.46331 24.3367 4.28088 24.0309C4.09844 23.7252 4.00144 23.376 4 23.02V8.98C4.00144 8.62396 4.09844 8.27483 4.28088 7.96907C4.46331 7.66331 4.72448 7.41214 5.03712 7.24177C5.34976 7.0714 5.7024 6.98809 6.05823 7.00053C6.41406 7.01297 6.76002 7.12071 7.06 7.3125L17 13.6425V8.98C17.0014 8.62396 17.0984 8.27483 17.2809 7.96907C17.4633 7.66331 17.7245 7.41214 18.0371 7.24177C18.3498 7.0714 18.7024 6.98809 19.0582 7.00053C19.4141 7.01297 19.76 7.12071 20.06 7.3125L31.0837 14.3325C31.3649 14.5105 31.5963 14.7567 31.7565 15.0483C31.9167 15.3399 32.0005 15.6673 32 16Z" fill="white"/>
<path d="M70.8512 13.9112L59.8288 6.88999C59.4531 6.64999 59.0199 6.51527 58.5745 6.49992C58.129 6.48457 57.6875 6.58914 57.2963 6.80271C56.905 7.01629 56.5783 7.33102 56.3503 7.71402C56.1223 8.09703 56.0013 8.53425 56 8.97999V12.73L46.8288 6.88999C46.4531 6.64999 46.0199 6.51527 45.5745 6.49992C45.129 6.48457 44.6875 6.58914 44.2963 6.80271C43.905 7.01629 43.5783 7.33102 43.3503 7.71402C43.1223 8.09703 43.0013 8.53425 43 8.97999V23.02C43.0021 23.4654 43.1236 23.9021 43.3518 24.2846C43.58 24.6672 43.9066 24.9815 44.2976 25.1949C44.6886 25.4083 45.1296 25.513 45.5748 25.4981C46.0199 25.4832 46.453 25.3491 46.8288 25.11L56 19.2687V23.0187C56.0021 23.4642 56.1236 23.9009 56.3518 24.2834C56.58 24.6659 56.9066 24.9803 57.2976 25.1937C57.6886 25.4071 58.1296 25.5118 58.5748 25.4968C59.0199 25.4819 59.453 25.3479 59.8288 25.1087L70.8512 18.0875C71.2031 17.8642 71.4929 17.5557 71.6936 17.1906C71.8944 16.8254 71.9996 16.4154 71.9996 15.9987C71.9996 15.582 71.8944 15.1721 71.6936 14.8069C71.4929 14.4418 71.2031 14.1333 70.8512 13.91V13.9112ZM46 22.08V9.91999L55.5475 16L46 22.08ZM59 22.08V9.91999L68.5475 16L59 22.08Z" fill="white"/>
</g>
<defs>
<clipPath id="clip0_27_3739">
<rect width="72" height="32" rx="5" fill="white"/>
</clipPath>
</defs>
</svg>
