<svg width="72" height="32" viewBox="0 0 72 32" fill="none" xmlns="http://www.w3.org/2000/svg">
<g clip-path="url(#clip0_27_3744)">
<path d="M16 3C13.4288 3 10.9154 3.76244 8.77759 5.1909C6.63975 6.61935 4.97351 8.64968 3.98957 11.0251C3.00563 13.4006 2.74819 16.0144 3.2498 18.5362C3.75141 21.0579 4.98953 23.3743 6.80762 25.1924C8.6257 27.0105 10.9421 28.2486 13.4638 28.7502C15.9856 29.2518 18.5995 28.9944 20.9749 28.0104C23.3503 27.0265 25.3807 25.3603 26.8091 23.2224C28.2376 21.0846 29 18.5712 29 16C28.9964 12.5533 27.6256 9.24882 25.1884 6.81163C22.7512 4.37445 19.4467 3.00364 16 3ZM24.6 16.8L18.6 21.3C18.4269 21.4298 18.2164 21.5 18 21.5C17.7348 21.5 17.4804 21.3946 17.2929 21.2071C17.1054 21.0196 17 20.7652 17 20.5V16C17 16.1552 16.9639 16.3084 16.8944 16.4472C16.825 16.5861 16.7242 16.7069 16.6 16.8L10.6 21.3C10.4269 21.4298 10.2164 21.5 10 21.5C9.73479 21.5 9.48044 21.3946 9.2929 21.2071C9.10536 21.0196 9.00001 20.7652 9.00001 20.5V11.5C9.00001 11.3143 9.05172 11.1322 9.14935 10.9743C9.24699 10.8163 9.38669 10.6886 9.55279 10.6056C9.7189 10.5225 9.90485 10.4874 10.0898 10.504C10.2748 10.5207 10.4514 10.5886 10.6 10.7L16.6 15.2C16.7242 15.2931 16.825 15.4139 16.8944 15.5528C16.9639 15.6916 17 15.8448 17 16V11.5C17 11.3143 17.0517 11.1322 17.1494 10.9743C17.247 10.8163 17.3867 10.6886 17.5528 10.6056C17.7189 10.5225 17.9049 10.4874 18.0898 10.504C18.2748 10.5207 18.4514 10.5886 18.6 10.7L24.6 15.2C24.7242 15.2931 24.825 15.4139 24.8944 15.5528C24.9639 15.6916 25 15.8448 25 16C25 16.1552 24.9639 16.3084 24.8944 16.4472C24.825 16.5861 24.7242 16.7069 24.6 16.8Z" fill="white"/>
<path d="M64.5 16C64.5001 16.2249 64.4495 16.4469 64.3522 16.6497C64.2548 16.8524 64.1131 17.0307 63.9375 17.1712L58.9375 21.1712C58.7169 21.3479 58.4508 21.4586 58.17 21.4906C57.8892 21.5227 57.6051 21.4747 57.3503 21.3523C57.0956 21.2299 56.8806 21.038 56.7302 20.7988C56.5797 20.5595 56.4999 20.2826 56.5 20V17.5212L51.9375 21.1712C51.7169 21.3479 51.4508 21.4586 51.17 21.4906C50.8892 21.5227 50.6051 21.4747 50.3503 21.3523C50.0956 21.2299 49.8806 21.038 49.7302 20.7988C49.5797 20.5595 49.4999 20.2826 49.5 20V12C49.4999 11.7174 49.5797 11.4405 49.7302 11.2012C49.8806 10.962 50.0956 10.7701 50.3503 10.6477C50.6051 10.5253 50.8892 10.4773 51.17 10.5094C51.4508 10.5414 51.7169 10.6521 51.9375 10.8287L56.5 14.4788V12C56.4999 11.7174 56.5797 11.4405 56.7302 11.2012C56.8806 10.962 57.0956 10.7701 57.3503 10.6477C57.6051 10.5253 57.8892 10.4773 58.17 10.5094C58.4508 10.5414 58.7169 10.6521 58.9375 10.8287L63.9375 14.8287C64.1131 14.9693 64.2548 15.1476 64.3522 15.3503C64.4495 15.5531 64.5001 15.7751 64.5 16ZM69.5 16C69.5 18.67 68.7082 21.2801 67.2248 23.5002C65.7414 25.7203 63.633 27.4506 61.1662 28.4724C58.6994 29.4942 55.985 29.7615 53.3663 29.2406C50.7475 28.7197 48.3421 27.434 46.4541 25.5459C44.5661 23.6579 43.2803 21.2525 42.7594 18.6337C42.2385 16.015 42.5058 13.3006 43.5276 10.8338C44.5494 8.36697 46.2797 6.25856 48.4998 4.77516C50.7199 3.29176 53.33 2.5 56 2.5C59.5792 2.50397 63.0107 3.92756 65.5416 6.45844C68.0724 8.98932 69.496 12.4208 69.5 16ZM66.5 16C66.5 13.9233 65.8842 11.8932 64.7304 10.1665C63.5767 8.4398 61.9368 7.09399 60.0182 6.29926C58.0996 5.50454 55.9884 5.29661 53.9516 5.70175C51.9148 6.1069 50.0438 7.10693 48.5754 8.57538C47.1069 10.0438 46.1069 11.9148 45.7018 13.9516C45.2966 15.9884 45.5046 18.0996 46.2993 20.0182C47.094 21.9368 48.4398 23.5767 50.1665 24.7304C51.8932 25.8842 53.9233 26.5 56 26.5C58.7839 26.497 61.4529 25.3898 63.4213 23.4213C65.3898 21.4528 66.497 18.7839 66.5 16Z" fill="white"/>
</g>
<defs>
<clipPath id="clip0_27_3744">
<rect width="72" height="32" rx="5" fill="white"/>
</clipPath>
</defs>
</svg>
