<svg width="72" height="32" viewBox="0 0 72 32" fill="none" xmlns="http://www.w3.org/2000/svg">
<g clip-path="url(#clip0_27_2144)">
<path d="M26.4801 16.8513L19.0063 24.41C18.8233 24.5953 18.6053 24.7424 18.3649 24.8428C18.1246 24.9432 17.8668 24.9949 17.6063 24.995H9.41507L5.70757 28.7075C5.61466 28.8004 5.50436 28.8741 5.38296 28.9244C5.26157 28.9747 5.13146 29.0006 5.00007 29.0006C4.86867 29.0006 4.73856 28.9747 4.61717 28.9244C4.49578 28.8741 4.38548 28.8004 4.29257 28.7075C4.19966 28.6146 4.12596 28.5043 4.07567 28.3829C4.02539 28.2615 3.99951 28.1314 3.99951 28C3.99951 27.8686 4.02539 27.7385 4.07567 27.6171C4.12596 27.4957 4.19966 27.3854 4.29257 27.2925L7.11632 24.47L15.5876 16H26.1251C26.2236 16.0002 26.3199 16.0294 26.4019 16.0842C26.4838 16.1389 26.5478 16.2166 26.5857 16.3075C26.6236 16.3985 26.6338 16.4986 26.615 16.5954C26.5963 16.6921 26.5493 16.7811 26.4801 16.8513ZM27.0876 3.82125C25.5532 2.55854 23.6038 1.91208 21.6189 2.00774C19.6341 2.1034 17.7559 2.93434 16.3501 4.33875L15.1501 5.52375C15.0556 5.61637 15.0016 5.74268 15.0001 5.875V13.75L21.8751 6.875C22.0641 6.69538 22.3159 6.59672 22.5766 6.60006C22.8374 6.6034 23.0865 6.70847 23.2709 6.89287C23.4553 7.07728 23.5604 7.32642 23.5638 7.58718C23.5671 7.84794 23.4684 8.09969 23.2888 8.28875L17.5888 14H28.6363C28.7281 14.0002 28.8182 13.9751 28.8967 13.9275C28.9752 13.8798 29.0391 13.8115 29.0813 13.73C29.9382 12.1008 30.2077 10.2261 29.8446 8.42146C29.4815 6.61681 28.5079 4.99229 27.0876 3.82125ZM7.85382 20.9038L13.0001 15.7575V8.845C12.9999 8.74646 12.9706 8.65016 12.9159 8.56821C12.8612 8.48625 12.7835 8.4223 12.6925 8.38437C12.6016 8.34644 12.5014 8.33623 12.4047 8.35502C12.308 8.37382 12.2189 8.42078 12.1488 8.49L7.58632 13C7.40002 13.1852 7.25228 13.4055 7.15165 13.6482C7.05103 13.8908 6.9995 14.1511 7.00007 14.4138V20.55C6.99999 20.6489 7.02927 20.7457 7.08421 20.828C7.13914 20.9103 7.21726 20.9744 7.30867 21.0123C7.40008 21.0502 7.50068 21.0601 7.59772 21.0408C7.69476 21.0214 7.78389 20.9738 7.85382 20.9038Z" fill="white"/>
<path d="M68.0139 3.99C66.4209 2.39727 64.2609 1.50198 62.0083 1.50081C59.7557 1.49964 57.5947 2.39268 56.0001 3.98375L47.2351 12.6462C47.002 12.8778 46.817 13.1531 46.6909 13.4565C46.5647 13.7599 46.4999 14.0852 46.5001 14.4137V23.375L42.9401 26.9387C42.6583 27.2205 42.5 27.6027 42.5 28.0012C42.5 28.3998 42.6583 28.782 42.9401 29.0637C43.2219 29.3455 43.6041 29.5038 44.0026 29.5038C44.4011 29.5038 44.7833 29.3455 45.0651 29.0637L48.6251 25.5H57.5876C57.9162 25.501 58.2418 25.4367 58.5454 25.311C58.849 25.1853 59.1246 25.0005 59.3564 24.7675H59.3626L68.0139 16.0175C69.6081 14.4222 70.5037 12.2591 70.5037 10.0037C70.5037 7.74838 69.6081 5.5853 68.0139 3.99ZM58.1126 6.115C59.1103 5.11009 60.457 4.52869 61.8726 4.49183C63.2881 4.45497 64.6634 4.9655 65.712 5.91713C66.7606 6.86875 67.4017 8.18815 67.502 9.60063C67.6022 11.0131 67.1538 12.4098 66.2501 13.5H60.6251L64.0651 10.0612C64.3469 9.77945 64.5052 9.39726 64.5052 8.99875C64.5052 8.60023 64.3469 8.21804 64.0651 7.93625C63.7833 7.65445 63.4011 7.49615 63.0026 7.49615C62.6041 7.49615 62.2219 7.65445 61.9401 7.93625L55.5001 14.375V8.6925L58.1126 6.115ZM49.5001 14.625L52.5001 11.66V17.375L49.5001 20.375V14.625ZM57.3751 22.5H51.6251L57.6251 16.5H63.3126L57.3751 22.5Z" fill="white"/>
</g>
<defs>
<clipPath id="clip0_27_2144">
<rect width="72" height="32" rx="5" fill="white"/>
</clipPath>
</defs>
</svg>
