<svg width="72" height="32" viewBox="0 0 72 32" fill="none" xmlns="http://www.w3.org/2000/svg">
<g clip-path="url(#clip0_27_109)">
<path d="M26.5 12C26.05 11.9976 25.6039 12.0825 25.1862 12.25L21.375 7.4925C21.6883 7.04128 21.891 6.52264 21.9666 5.97856C22.0423 5.43448 21.9888 4.88023 21.8106 4.36064C21.6323 3.84105 21.3343 3.37071 20.9405 2.98767C20.5468 2.60463 20.0684 2.31965 19.5441 2.15578C19.0198 1.99191 18.4643 1.95375 17.9225 2.04439C17.3807 2.13502 16.8679 2.35192 16.4254 2.67751C15.983 3.00311 15.6234 3.42828 15.3758 3.91861C15.1282 4.40895 14.9994 4.95068 15 5.5C14.9999 5.62274 15.0062 5.7454 15.0187 5.8675L9.21 8.2875C8.86009 7.85832 8.41333 7.51829 7.90645 7.29534C7.39957 7.0724 6.84702 6.97291 6.2942 7.00504C5.74139 7.03718 5.20409 7.20002 4.72645 7.4802C4.24881 7.76037 3.84447 8.14988 3.54664 8.61671C3.24882 9.08355 3.06601 9.61439 3.01324 10.1656C2.96047 10.7168 3.03925 11.2727 3.2431 11.7876C3.44695 12.3024 3.77005 12.7616 4.18586 13.1273C4.60167 13.493 5.09832 13.7548 5.635 13.8913L5.86625 19.6888C5.33635 19.8697 4.85759 20.1751 4.47018 20.5794C4.08276 20.9837 3.798 21.475 3.6398 22.0121C3.48159 22.5492 3.45456 23.1165 3.56099 23.6662C3.66741 24.2159 3.90417 24.7321 4.25139 25.1714C4.59861 25.6107 5.04616 25.9602 5.55646 26.1907C6.06676 26.4212 6.62491 26.5259 7.18404 26.496C7.74318 26.4661 8.28699 26.3025 8.7698 26.0189C9.25261 25.7353 9.66034 25.34 9.95875 24.8663L16 26.5588C16.0085 27.1217 16.1526 27.6743 16.4202 28.1696C16.6879 28.665 17.071 29.0884 17.5372 29.4041C18.0034 29.7198 18.5388 29.9183 19.0981 29.9829C19.6574 30.0475 20.224 29.9762 20.7499 29.7751C21.2757 29.574 21.7453 29.249 22.1188 28.8277C22.4922 28.4063 22.7585 27.9011 22.8951 27.355C23.0316 26.8088 23.0344 26.2377 22.9032 25.6902C22.772 25.1427 22.5106 24.6349 22.1412 24.21L25.5425 18.8663C26.0239 19.0033 26.5291 19.0355 27.024 18.9607C27.5189 18.8859 27.992 18.7057 28.4114 18.4325C28.8308 18.1593 29.1867 17.7993 29.4551 17.3768C29.7235 16.9543 29.8981 16.4791 29.9673 15.9834C30.0364 15.4877 29.9984 14.9829 29.8558 14.5031C29.7132 14.0233 29.4694 13.5796 29.1408 13.2021C28.8122 12.8245 28.4064 12.5219 27.9508 12.3145C27.4953 12.1071 27.0005 11.9999 26.5 12ZM8.89875 13.045L14.215 16.125L9.0325 20.1525C8.68032 19.9006 8.28445 19.7162 7.865 19.6088L7.63375 13.8113C8.10518 13.6489 8.53648 13.3876 8.89875 13.045ZM18.6962 9C19.08 8.97904 19.4576 8.89456 19.8137 8.75L23.625 13.5075C23.3819 13.8565 23.2048 14.2472 23.1025 14.66L17.2812 14.9375L18.6962 9ZM10.2612 21.7313L15.5 17.6575L17.4925 23.6363C17.1131 23.9038 16.7902 24.2436 16.5425 24.6363L10.5 22.9413C10.4927 22.527 10.4118 22.1173 10.2612 21.7313ZM19.5 23H19.3887L17.3662 16.9338L23.1975 16.6563C23.3449 17.0694 23.5688 17.451 23.8575 17.7813L20.4562 23.125C20.1448 23.0394 19.823 22.9973 19.5 23ZM15.79 7.7125C16.0587 8.04003 16.3838 8.31688 16.75 8.53L15.3375 14.4613L9.90375 11.315C9.96768 11.048 9.99999 10.7745 10 10.5C10.0001 10.3773 9.99379 10.2546 9.98125 10.1325L15.79 7.7125Z" fill="white"/>
<path d="M66.5 11.5C66.1122 11.4998 65.7265 11.5562 65.355 11.6675L61.98 7.4575C62.2821 6.92434 62.4577 6.32889 62.4932 5.71711C62.5288 5.10532 62.4232 4.49356 62.1848 3.92903C61.9464 3.3645 61.5814 2.8623 61.1181 2.4612C60.6548 2.06009 60.1055 1.7708 59.5127 1.61565C58.9198 1.4605 58.2992 1.44365 57.6988 1.56638C57.0984 1.68912 56.5343 1.94817 56.0499 2.32353C55.5655 2.6989 55.1738 3.18054 54.9051 3.7313C54.6363 4.28205 54.4977 4.88718 54.5 5.5C54.5 5.51375 54.5 5.5275 54.5 5.54125L49.3437 7.69C48.9218 7.2619 48.4088 6.93441 47.8429 6.73185C47.277 6.52929 46.6727 6.45688 46.0749 6.51999C45.4772 6.5831 44.9013 6.78012 44.3902 7.0964C43.879 7.41268 43.4458 7.84008 43.1225 8.34685C42.7993 8.85362 42.5944 9.42672 42.5231 10.0236C42.4519 10.6204 42.516 11.2256 42.7108 11.7943C42.9056 12.3629 43.2261 12.8803 43.6484 13.3081C44.0707 13.7358 44.5839 14.0629 45.15 14.265L45.3525 19.3562C44.7979 19.6058 44.3075 19.9786 43.9186 20.4462C43.5297 20.9139 43.2525 21.464 43.1082 22.0548C42.9639 22.6457 42.9563 23.2616 43.0858 23.8559C43.2153 24.4501 43.4787 25.007 43.8558 25.4842C44.2329 25.9613 44.7139 26.3462 45.2622 26.6095C45.8104 26.8729 46.4115 27.0077 47.0197 27.0038C47.6278 26.9999 48.2271 26.8574 48.7719 26.5871C49.3168 26.3167 49.7928 25.9257 50.1637 25.4437L55.525 26.9437C55.5909 27.5523 55.7956 28.1377 56.1234 28.6547C56.4511 29.1717 56.8931 29.6066 57.4154 29.9258C57.9377 30.2451 58.5263 30.4403 59.1359 30.4962C59.7454 30.5522 60.3597 30.4676 60.9314 30.2488C61.5031 30.03 62.017 29.6829 62.4334 29.2343C62.8499 28.7856 63.1578 28.2474 63.3335 27.661C63.5091 27.0746 63.5479 26.4557 63.4467 25.852C63.3456 25.2483 63.1072 24.6758 62.75 24.1787L65.77 19.4287C66.0091 19.4735 66.2518 19.4961 66.495 19.4962C67.5559 19.4962 68.5733 19.0748 69.3234 18.3247C70.0736 17.5745 70.495 16.5571 70.495 15.4962C70.495 14.4354 70.0736 13.418 69.3234 12.6678C68.5733 11.9177 67.5559 11.4962 66.495 11.4962L66.5 11.5ZM48.955 13.655L53.3212 16.1825L49 19.5412C48.7915 19.4194 48.5722 19.3169 48.345 19.235L48.1425 14.1437C48.4316 14.0133 48.7043 13.8492 48.955 13.655ZM59.1 9.455C59.2843 9.42563 59.4663 9.38387 59.645 9.33L63.02 13.54C62.9059 13.7431 62.8093 13.9555 62.7312 14.175L57.9275 14.4037L59.1 9.455ZM50.85 21.9075L55.25 18.4862L56.9075 23.46C56.6982 23.639 56.5077 23.8388 56.3387 24.0562L50.9775 22.5562C50.9516 22.3369 50.9081 22.1199 50.8475 21.9075H50.85ZM59.75 22.5087L58.0475 17.4037L62.875 17.175C62.9794 17.4017 63.1049 17.6181 63.25 17.8212L60.23 22.5712C60.0714 22.5406 59.9111 22.5198 59.75 22.5087ZM58.5 4.5C58.6978 4.5 58.8911 4.55865 59.0556 4.66853C59.22 4.77841 59.3482 4.93459 59.4239 5.11731C59.4996 5.30004 59.5194 5.5011 59.4808 5.69509C59.4422 5.88907 59.347 6.06725 59.2071 6.2071C59.0672 6.34695 58.8891 6.4422 58.6951 6.48078C58.5011 6.51937 58.3 6.49956 58.1173 6.42388C57.9346 6.34819 57.7784 6.22002 57.6685 6.05557C57.5586 5.89112 57.5 5.69778 57.5 5.5C57.5 5.23478 57.6053 4.98043 57.7929 4.79289C57.9804 4.60535 58.2348 4.5 58.5 4.5ZM55.6562 8.31C55.819 8.47342 55.995 8.6231 56.1825 8.7575L55.0075 13.6925L50.46 11.06C50.4866 10.8745 50.5 10.6874 50.5 10.5C50.5 10.4862 50.5 10.4725 50.5 10.4587L55.6562 8.31ZM46.5 9.5C46.6978 9.5 46.8911 9.55865 47.0556 9.66853C47.22 9.77841 47.3482 9.93459 47.4239 10.1173C47.4996 10.3 47.5194 10.5011 47.4808 10.6951C47.4422 10.8891 47.347 11.0673 47.2071 11.2071C47.0672 11.347 46.8891 11.4422 46.6951 11.4808C46.5011 11.5194 46.3 11.4996 46.1173 11.4239C45.9346 11.3482 45.7784 11.22 45.6685 11.0556C45.5586 10.8911 45.5 10.6978 45.5 10.5C45.5 10.2348 45.6053 9.98043 45.7929 9.79289C45.9804 9.60535 46.2348 9.5 46.5 9.5ZM47 24C46.8022 24 46.6089 23.9413 46.4444 23.8315C46.28 23.7216 46.1518 23.5654 46.0761 23.3827C46.0004 23.2 45.9806 22.9989 46.0192 22.8049C46.0578 22.6109 46.153 22.4327 46.2929 22.2929C46.4327 22.153 46.6109 22.0578 46.8049 22.0192C46.9989 21.9806 47.1999 22.0004 47.3827 22.0761C47.5654 22.1518 47.7216 22.28 47.8315 22.4444C47.9413 22.6089 48 22.8022 48 23C48 23.2652 47.8946 23.5196 47.7071 23.7071C47.5196 23.8946 47.2652 24 47 24ZM59.5 27.5C59.3022 27.5 59.1089 27.4413 58.9444 27.3315C58.78 27.2216 58.6518 27.0654 58.5761 26.8827C58.5004 26.7 58.4806 26.4989 58.5192 26.3049C58.5578 26.1109 58.653 25.9327 58.7929 25.7929C58.9327 25.653 59.1109 25.5578 59.3049 25.5192C59.4989 25.4806 59.6999 25.5004 59.8827 25.5761C60.0654 25.6518 60.2216 25.78 60.3315 25.9444C60.4413 26.1089 60.5 26.3022 60.5 26.5C60.5 26.7652 60.3946 27.0196 60.2071 27.2071C60.0196 27.3946 59.7652 27.5 59.5 27.5ZM66.5 16.5C66.3022 16.5 66.1089 16.4413 65.9444 16.3315C65.78 16.2216 65.6518 16.0654 65.5761 15.8827C65.5004 15.7 65.4806 15.4989 65.5192 15.3049C65.5578 15.1109 65.653 14.9327 65.7929 14.7929C65.9327 14.653 66.1109 14.5578 66.3049 14.5192C66.4989 14.4806 66.6999 14.5004 66.8827 14.5761C67.0654 14.6518 67.2216 14.78 67.3315 14.9444C67.4413 15.1089 67.5 15.3022 67.5 15.5C67.5 15.7652 67.3946 16.0196 67.2071 16.2071C67.0196 16.3946 66.7652 16.5 66.5 16.5Z" fill="white"/>
</g>
<defs>
<clipPath id="clip0_27_109">
<rect width="72" height="32" rx="5" fill="white"/>
</clipPath>
</defs>
</svg>
