<svg width="72" height="32" viewBox="0 0 72 32" fill="none" xmlns="http://www.w3.org/2000/svg">
<g clip-path="url(#clip0_27_114)">
<path d="M24 12C24.8395 11.3704 25.4597 10.4925 25.7726 9.49084C26.0855 8.48916 26.0753 7.41442 25.7434 6.41886C25.4116 5.4233 24.7749 4.55739 23.9235 3.94379C23.0722 3.33019 22.0494 3 21 3H12C10.9506 3 9.92777 3.33019 9.07644 3.94379C8.22511 4.55739 7.58843 5.4233 7.25658 6.41886C6.92472 7.41442 6.91453 8.48916 7.22743 9.49084C7.54033 10.4925 8.16046 11.3704 8.99999 12C8.36434 12.4764 7.85134 13.0973 7.50348 13.8115C7.15561 14.5256 6.98289 15.3123 6.99963 16.1065C7.01637 16.9006 7.22208 17.6794 7.59973 18.3782C7.97737 19.077 8.51609 19.6758 9.17124 20.125C8.42604 20.6916 7.83778 21.439 7.46216 22.2964C7.08654 23.1539 6.936 24.093 7.02479 25.0249C7.11358 25.9569 7.43876 26.8507 7.96954 27.6218C8.50032 28.3929 9.21913 29.0157 10.0579 29.4314C10.8967 29.8471 11.8277 30.0417 12.7628 29.997C13.6978 29.9523 14.606 29.6696 15.4013 29.1758C16.1966 28.682 16.8526 27.9934 17.3074 27.1751C17.7622 26.3569 18.0006 25.4361 18 24.5V20C19.0609 20.7956 20.3943 21.1373 21.7071 20.9497C23.0199 20.7622 24.2043 20.0609 25 19C25.7956 17.9391 26.1373 16.6056 25.9497 15.2929C25.7622 13.9801 25.0609 12.7956 24 12ZM16 19H12C11.2043 19 10.4413 18.6839 9.87867 18.1213C9.31606 17.5587 8.99999 16.7956 8.99999 16C8.99999 15.2044 9.31606 14.4413 9.87867 13.8787C10.4413 13.3161 11.2043 13 12 13H16V19ZM21 11H18V5H21C21.7956 5 22.5587 5.31607 23.1213 5.87868C23.6839 6.44129 24 7.20435 24 8C24 8.79565 23.6839 9.55871 23.1213 10.1213C22.5587 10.6839 21.7956 11 21 11Z" fill="white"/>
<path d="M64.7687 12C65.5694 11.2444 66.1248 10.266 66.3633 9.19133C66.6017 8.11663 66.5122 6.99511 66.1062 5.97185C65.7003 4.9486 64.9966 4.0707 64.0863 3.45174C63.176 2.83278 62.1008 2.50123 61 2.5H52C50.8992 2.50123 49.824 2.83278 48.9137 3.45174C48.0034 4.0707 47.2997 4.9486 46.8938 5.97185C46.4878 6.99511 46.3983 8.11663 46.6367 9.19133C46.8752 10.266 47.4306 11.2444 48.2312 12C47.672 12.5251 47.229 13.1617 46.9309 13.8686C46.6329 14.5755 46.4864 15.3371 46.5009 16.1041C46.5154 16.8712 46.6905 17.6267 47.0151 18.3218C47.3396 19.017 47.8063 19.6364 48.385 20.14C47.6612 20.8221 47.1184 21.6733 46.8052 22.6173C46.4921 23.5612 46.4185 24.5681 46.591 25.5476C46.7636 26.527 47.1769 27.4482 47.7937 28.2282C48.4106 29.0083 49.2117 29.6228 50.125 30.0165C51.0383 30.4101 52.0351 30.5706 53.0258 30.4835C54.0164 30.3963 54.9699 30.0643 55.8005 29.5172C56.631 28.9702 57.3125 28.2253 57.7837 27.3495C58.2549 26.4737 58.5011 25.4945 58.5 24.5V20.8962C59.6782 21.4916 61.0313 21.6433 62.3121 21.3237C63.5929 21.0041 64.716 20.2345 65.4764 19.1554C66.2368 18.0763 66.5837 16.7597 66.4538 15.4461C66.3239 14.1324 65.7258 12.9092 64.7687 12ZM63.5 8C63.5 8.66304 63.2366 9.29893 62.7678 9.76777C62.2989 10.2366 61.663 10.5 61 10.5H58.5V5.5H61C61.663 5.5 62.2989 5.76339 62.7678 6.23223C63.2366 6.70107 63.5 7.33696 63.5 8ZM49.5 8C49.5 7.33696 49.7634 6.70107 50.2322 6.23223C50.7011 5.76339 51.337 5.5 52 5.5H55.5V10.5H52C51.337 10.5 50.7011 10.2366 50.2322 9.76777C49.7634 9.29893 49.5 8.66304 49.5 8ZM52 18.5C51.337 18.5 50.7011 18.2366 50.2322 17.7678C49.7634 17.2989 49.5 16.663 49.5 16C49.5 15.337 49.7634 14.7011 50.2322 14.2322C50.7011 13.7634 51.337 13.5 52 13.5H55.5V18.5H52ZM55.5 24.5C55.5 25.0933 55.3241 25.6734 54.9944 26.1667C54.6648 26.6601 54.1962 27.0446 53.648 27.2716C53.0999 27.4987 52.4967 27.5581 51.9147 27.4424C51.3328 27.3266 50.7982 27.0409 50.3787 26.6213C49.9591 26.2018 49.6734 25.6672 49.5576 25.0853C49.4419 24.5033 49.5013 23.9001 49.7284 23.3519C49.9554 22.8038 50.3399 22.3352 50.8333 22.0056C51.3266 21.6759 51.9067 21.5 52.5 21.5H55.5V24.5ZM61 18.5C60.5055 18.5 60.0222 18.3534 59.6111 18.0787C59.2 17.804 58.8795 17.4135 58.6903 16.9567C58.5011 16.4999 58.4516 15.9972 58.548 15.5123C58.6445 15.0273 58.8826 14.5819 59.2322 14.2322C59.5819 13.8826 60.0273 13.6445 60.5123 13.548C60.9972 13.4516 61.4999 13.5011 61.9567 13.6903C62.4135 13.8795 62.804 14.2 63.0787 14.6111C63.3534 15.0222 63.5 15.5055 63.5 16C63.5 16.663 63.2366 17.2989 62.7678 17.7678C62.2989 18.2366 61.663 18.5 61 18.5Z" fill="white"/>
</g>
<defs>
<clipPath id="clip0_27_114">
<rect width="72" height="32" rx="5" fill="white"/>
</clipPath>
</defs>
</svg>
