<svg width="72" height="32" viewBox="0 0 72 32" fill="none" xmlns="http://www.w3.org/2000/svg">
<g clip-path="url(#clip0_27_6986)">
<path d="M26.7075 10.2925L19.7075 3.2925C19.6146 3.19967 19.5042 3.12605 19.3829 3.07586C19.2615 3.02568 19.1314 2.9999 19 3H7C6.46957 3 5.96086 3.21071 5.58579 3.58579C5.21071 3.96086 5 4.46957 5 5V27C5 27.5304 5.21071 28.0391 5.58579 28.4142C5.96086 28.7893 6.46957 29 7 29H11.5C11.6326 29 11.7598 28.9473 11.8536 28.8536C11.9473 28.7598 12 28.6326 12 28.5V26H11.0337C10.7753 26.0041 10.5248 25.91 10.333 25.7367C10.1411 25.5634 10.0221 25.3238 10 25.0662C9.99092 24.9295 10.0101 24.7923 10.0562 24.6632C10.1024 24.5341 10.1746 24.4159 10.2684 24.3159C10.3622 24.2159 10.4755 24.1363 10.6014 24.0819C10.7272 24.0276 10.8629 23.9997 11 24H12V22H11.0337C10.7753 22.0041 10.5248 21.91 10.333 21.7367C10.1411 21.5634 10.0221 21.3238 10 21.0662C9.99092 20.9295 10.0101 20.7923 10.0562 20.6632C10.1024 20.5341 10.1746 20.4159 10.2684 20.3159C10.3622 20.2159 10.4755 20.1363 10.6014 20.0819C10.7272 20.0276 10.8629 19.9997 11 20H12V18H11.0337C10.7753 18.0041 10.5248 17.91 10.333 17.7367C10.1411 17.5634 10.0221 17.3238 10 17.0662C9.99092 16.9295 10.0101 16.7923 10.0562 16.6632C10.1024 16.5341 10.1746 16.4159 10.2684 16.3159C10.3622 16.2159 10.4755 16.1363 10.6014 16.0819C10.7272 16.0276 10.8629 15.9997 11 16H12V15.0337C11.9968 14.7758 12.0913 14.5261 12.2645 14.3349C12.4376 14.1436 12.6767 14.0249 12.9338 14.0025C13.0705 13.9934 13.2077 14.0126 13.3368 14.0587C13.4659 14.1049 13.5841 14.1771 13.6841 14.2709C13.7841 14.3647 13.8637 14.478 13.9181 14.6039C13.9724 14.7297 14.0003 14.8654 14 15.0025V16.0025H14.9663C15.2243 15.999 15.4741 16.0934 15.6655 16.2666C15.8568 16.4399 15.9754 16.6791 15.9975 16.9363C16.0066 17.073 15.9874 17.2102 15.9413 17.3393C15.8951 17.4684 15.8229 17.5866 15.7291 17.6866C15.6353 17.7866 15.522 17.8662 15.3961 17.9206C15.2703 17.9749 15.1346 18.0028 14.9975 18.0025H13.9975V20.0025H14.9637C15.2218 19.999 15.4716 20.0934 15.663 20.2666C15.8543 20.4399 15.9729 20.6791 15.995 20.9363C16.0041 21.073 15.9849 21.2102 15.9388 21.3393C15.8926 21.4684 15.8204 21.5866 15.7266 21.6866C15.6328 21.7866 15.5195 21.8662 15.3936 21.9206C15.2678 21.9749 15.1321 22.0028 14.995 22.0025H13.995V24.0025H14.9613C15.2193 23.999 15.4691 24.0934 15.6605 24.2666C15.8518 24.4399 15.9704 24.6791 15.9925 24.9363C16.0016 25.073 15.9824 25.2102 15.9363 25.3393C15.8901 25.4684 15.8179 25.5866 15.7241 25.6866C15.6303 25.7866 15.517 25.8662 15.3911 25.9206C15.2653 25.9749 15.1296 26.0028 14.9925 26.0025H13.9925V28.5025C13.9925 28.6351 14.0452 28.7623 14.1389 28.8561C14.2327 28.9498 14.3599 29.0025 14.4925 29.0025H24.9925C25.5229 29.0025 26.0316 28.7918 26.4067 28.4167C26.7818 28.0416 26.9925 27.5329 26.9925 27.0025V11C26.9947 10.7358 26.8922 10.4814 26.7075 10.2925ZM19 11V5.5L24.5 11H19Z" fill="white"/>
<path d="M67.0613 9.93875L60.0613 2.93875C59.9218 2.7995 59.7564 2.68908 59.5743 2.6138C59.3922 2.53851 59.197 2.49985 59 2.5H47C46.337 2.5 45.7011 2.76339 45.2322 3.23223C44.7634 3.70107 44.5 4.33696 44.5 5V27C44.5 27.663 44.7634 28.2989 45.2322 28.7678C45.7011 29.2366 46.337 29.5 47 29.5H65C65.663 29.5 66.2989 29.2366 66.7678 28.7678C67.2366 28.2989 67.5 27.663 67.5 27V11C67.5002 10.803 67.4615 10.6078 67.3862 10.4257C67.3109 10.2436 67.2005 10.0782 67.0613 9.93875ZM62.875 10H60V7.125L62.875 10ZM54.5 26.5V24H55.5C55.8978 24 56.2794 23.842 56.5607 23.5607C56.842 23.2794 57 22.8978 57 22.5C57 22.1022 56.842 21.7206 56.5607 21.4393C56.2794 21.158 55.8978 21 55.5 21H54.5V19H55.5C55.8978 19 56.2794 18.842 56.5607 18.5607C56.842 18.2794 57 17.8978 57 17.5C57 17.1022 56.842 16.7206 56.5607 16.4393C56.2794 16.158 55.8978 16 55.5 16H54.5V14.5C54.5 14.1022 54.342 13.7206 54.0607 13.4393C53.7794 13.158 53.3978 13 53 13C52.6022 13 52.2206 13.158 51.9393 13.4393C51.658 13.7206 51.5 14.1022 51.5 14.5V16H50.5C50.1022 16 49.7206 16.158 49.4393 16.4393C49.158 16.7206 49 17.1022 49 17.5C49 17.8978 49.158 18.2794 49.4393 18.5607C49.7206 18.842 50.1022 19 50.5 19H51.5V21H50.5C50.1022 21 49.7206 21.158 49.4393 21.4393C49.158 21.7206 49 22.1022 49 22.5C49 22.8978 49.158 23.2794 49.4393 23.5607C49.7206 23.842 50.1022 24 50.5 24H51.5V26.5H47.5V5.5H57V11.5C57 11.8978 57.158 12.2794 57.4393 12.5607C57.7206 12.842 58.1022 13 58.5 13H64.5V26.5H54.5Z" fill="white"/>
</g>
<defs>
<clipPath id="clip0_27_6986">
<rect width="72" height="32" rx="5" fill="white"/>
</clipPath>
</defs>
</svg>
