<svg width="72" height="32" viewBox="0 0 72 32" fill="none" xmlns="http://www.w3.org/2000/svg">
<g clip-path="url(#clip0_27_7176)">
<path d="M5.49933 15H26.4993C26.6319 15 26.7591 14.9473 26.8529 14.8536C26.9467 14.7598 26.9993 14.6326 26.9993 14.5V11C26.9994 10.8686 26.9737 10.7385 26.9235 10.6172C26.8733 10.4958 26.7997 10.3854 26.7068 10.2925L19.7068 3.2925C19.6139 3.19967 19.5036 3.12605 19.3822 3.07586C19.2608 3.02568 19.1307 2.9999 18.9993 3H6.99933C6.4689 3 5.96019 3.21071 5.58512 3.58579C5.21004 3.96086 4.99933 4.46957 4.99933 5V14.5C4.99933 14.6326 5.05201 14.7598 5.14578 14.8536C5.23954 14.9473 5.36672 15 5.49933 15ZM18.9993 5.5L24.4993 11H18.9993V5.5ZM19.4993 26.0662C19.477 26.3233 19.3582 26.5624 19.167 26.7355C18.9757 26.9087 18.7261 27.0032 18.4681 27H14.9993C14.7341 27 14.4798 26.8946 14.2922 26.7071C14.1047 26.5196 13.9993 26.2652 13.9993 26V19.0338C13.9961 18.7758 14.0906 18.5261 14.2638 18.3349C14.437 18.1436 14.676 18.0249 14.9331 18.0025C15.0699 17.9934 15.2071 18.0126 15.3361 18.0587C15.4652 18.1049 15.5834 18.1771 15.6834 18.2709C15.7834 18.3647 15.863 18.478 15.9174 18.6039C15.9717 18.7297 15.9996 18.8654 15.9993 19.0025V25.0025H18.4993C18.6362 25.0022 18.7717 25.03 18.8973 25.0842C19.023 25.1384 19.1362 25.2178 19.23 25.3176C19.3237 25.4173 19.396 25.5352 19.4423 25.664C19.4886 25.7927 19.5081 25.9297 19.4993 26.0662ZM11.8131 19.5812L9.72808 22.5L11.8131 25.4188C11.9534 25.6346 12.005 25.8963 11.9572 26.1494C11.9094 26.4024 11.7659 26.6272 11.5564 26.777C11.347 26.9268 11.0879 26.9901 10.833 26.9536C10.5781 26.9172 10.3471 26.7838 10.1881 26.5812L8.49933 24.22L6.81308 26.5812C6.73947 26.6945 6.64367 26.7917 6.53147 26.8669C6.41928 26.9421 6.293 26.9938 6.16027 27.0189C6.02754 27.044 5.8911 27.0419 5.7592 27.0128C5.62729 26.9837 5.50264 26.9282 5.39278 26.8496C5.28292 26.771 5.19012 26.671 5.11998 26.5555C5.04984 26.4401 5.00382 26.3116 4.98469 26.1779C4.96556 26.0442 4.97372 25.908 5.00867 25.7775C5.04363 25.647 5.10466 25.525 5.18808 25.4188L7.27058 22.5L5.18558 19.5812C5.10586 19.4698 5.04989 19.3432 5.02113 19.2093C4.99238 19.0753 4.99145 18.9369 5.01841 18.8026C5.04536 18.6683 5.09963 18.5409 5.17784 18.4285C5.25606 18.316 5.35655 18.2208 5.47308 18.1488C5.69551 18.0177 5.95924 17.9756 6.21143 18.0307C6.46362 18.0859 6.68566 18.2343 6.83308 18.4463L8.49933 20.78L10.1856 18.4188C10.3446 18.2162 10.5756 18.0828 10.8305 18.0464C11.0854 18.0099 11.3445 18.0732 11.5539 18.223C11.7634 18.3728 11.9069 18.5976 11.9547 18.8506C12.0025 19.1037 11.9509 19.3654 11.8106 19.5812H11.8131ZM26.9731 24.5387C26.9343 24.9211 26.8113 25.2902 26.6129 25.6194C26.4145 25.9485 26.1456 26.2297 25.8256 26.4425C25.1768 26.875 24.3668 27 23.6393 27C22.9984 26.9973 22.3604 26.9133 21.7406 26.75C21.4851 26.6786 21.2685 26.5086 21.1384 26.2774C21.0083 26.0463 20.9754 25.7729 21.0468 25.5175C21.1183 25.2621 21.2883 25.0455 21.5194 24.9154C21.7505 24.7853 22.0239 24.7523 22.2793 24.8237C22.8268 24.975 24.1468 25.1625 24.7218 24.78C24.8331 24.705 24.9518 24.59 24.9906 24.2887C25.0331 23.955 24.9006 23.7763 23.3931 23.34C22.2243 23.0025 20.2681 22.4363 20.5181 20.45C20.5567 20.0759 20.6769 19.7147 20.8702 19.3921C21.0635 19.0694 21.3252 18.7931 21.6368 18.5825C23.1168 17.5825 25.4768 18.1687 25.7406 18.2375C25.9972 18.305 26.2165 18.4716 26.3502 18.7007C26.4839 18.9299 26.5212 19.2028 26.4537 19.4594C26.3862 19.716 26.2196 19.9353 25.9905 20.069C25.7613 20.2027 25.4884 20.24 25.2318 20.1725C24.6718 20.0263 23.3293 19.8525 22.7543 20.2425C22.679 20.2933 22.6169 20.3616 22.5734 20.4414C22.5299 20.5212 22.5062 20.6103 22.5043 20.7013C22.4906 20.8137 22.4881 20.8362 22.6443 20.9387C22.9331 21.125 23.4506 21.2738 23.9506 21.4188C25.1843 21.7713 27.2493 22.375 26.9731 24.5387Z" fill="white"/>
<path d="M59.9993 26C59.9993 26.3978 59.8412 26.7794 59.5599 27.0607C59.2786 27.342 58.8971 27.5 58.4993 27.5H54.9993C54.6015 27.5 54.2199 27.342 53.9386 27.0607C53.6573 26.7794 53.4993 26.3978 53.4993 26V19C53.4993 18.6022 53.6573 18.2206 53.9386 17.9393C54.2199 17.658 54.6015 17.5 54.9993 17.5C55.3971 17.5 55.7786 17.658 56.0599 17.9393C56.3412 18.2206 56.4993 18.6022 56.4993 19V24.5H58.4993C58.8971 24.5 59.2786 24.658 59.5599 24.9393C59.8412 25.2206 59.9993 25.6022 59.9993 26ZM51.3743 17.7775C51.214 17.6625 51.0326 17.5803 50.8405 17.5356C50.6483 17.4908 50.4493 17.4844 50.2547 17.5167C50.0601 17.549 49.8738 17.6193 49.7064 17.7237C49.539 17.8281 49.3939 17.9644 49.2793 18.125L47.9993 19.9175L46.7205 18.125C46.4885 17.8013 46.1373 17.583 45.7443 17.5182C45.3513 17.4534 44.9486 17.5473 44.6249 17.7794C44.3012 18.0114 44.0829 18.3626 44.0181 18.7556C43.9533 19.1486 44.0472 19.5513 44.2793 19.875L46.1543 22.5L44.2793 25.125C44.1644 25.2853 44.0822 25.4667 44.0373 25.6587C43.9925 25.8508 43.986 26.0498 44.0181 26.2444C44.0502 26.439 44.1203 26.6254 44.2244 26.7929C44.3285 26.9604 44.4646 27.1057 44.6249 27.2206C44.7852 27.3355 44.9666 27.4177 45.1586 27.4626C45.3507 27.5074 45.5497 27.5139 45.7443 27.4818C45.9389 27.4497 46.1253 27.3796 46.2928 27.2755C46.4603 27.1714 46.6056 27.0353 46.7205 26.875L47.9993 25.0775L49.2793 26.875C49.5113 27.1987 49.8625 27.417 50.2555 27.4818C50.6485 27.5466 51.0512 27.4527 51.3749 27.2206C51.6986 26.9886 51.9169 26.6374 51.9817 26.2444C52.0465 25.8514 51.9526 25.4487 51.7205 25.125L49.8455 22.5L51.7205 19.875C51.8359 19.7147 51.9185 19.5332 51.9636 19.3409C52.0087 19.1485 52.0153 18.9492 51.9831 18.7543C51.951 18.5594 51.8806 18.3728 51.7761 18.2052C51.6716 18.0376 51.5351 17.8922 51.3743 17.7775ZM66.6905 21.7838C66.0505 21.3525 65.2755 21.1287 64.5918 20.9312C64.2564 20.8407 63.9259 20.7326 63.6018 20.6075C63.908 20.46 64.8155 20.445 65.6105 20.6488C65.9889 20.7327 66.3851 20.6669 66.7161 20.4651C67.0471 20.2634 67.2871 19.9413 67.3858 19.5665C67.4846 19.1917 67.4344 18.7932 67.2458 18.4546C67.0573 18.1159 66.7449 17.8634 66.3743 17.75C65.8821 17.6286 65.3801 17.5508 64.8743 17.5175C63.633 17.435 62.6243 17.6525 61.8618 18.1637C61.49 18.4133 61.1776 18.7415 60.9467 19.1251C60.7158 19.5088 60.572 19.9384 60.5255 20.3838C60.388 21.4763 60.8368 22.4175 61.7893 23.0325C62.3868 23.4187 63.0843 23.62 63.758 23.815C64.133 23.9263 64.7505 24.1025 64.993 24.2563C64.9888 24.287 64.9799 24.3169 64.9668 24.345C64.7955 24.5387 63.7693 24.5688 62.918 24.3375C62.7271 24.2803 62.5267 24.2617 62.3285 24.2829C62.1303 24.304 61.9383 24.3645 61.7637 24.4606C61.5892 24.5568 61.4355 24.6868 61.3118 24.8431C61.188 24.9993 61.0966 25.1786 61.043 25.3706C60.9893 25.5626 60.9745 25.7633 60.9993 25.961C61.0241 26.1588 61.088 26.3496 61.1874 26.5224C61.2868 26.6952 61.4196 26.8464 61.5781 26.9672C61.7366 27.0881 61.9176 27.1761 62.1105 27.2262C62.7714 27.4041 63.4524 27.4961 64.1368 27.5C64.9443 27.5 65.853 27.3538 66.603 26.8563C66.9828 26.6051 67.3024 26.2733 67.539 25.8843C67.7756 25.4954 67.9234 25.0589 67.9718 24.6063C68.1243 23.4412 67.6655 22.4412 66.688 21.7838H66.6905ZM44.4993 13.5V5C44.4993 4.33696 44.7627 3.70107 45.2315 3.23223C45.7004 2.76339 46.3362 2.5 46.9993 2.5H58.9993C59.1963 2.49985 59.3915 2.53851 59.5736 2.6138C59.7556 2.68908 59.9211 2.7995 60.0605 2.93875L67.0605 9.93875C67.1998 10.0782 67.3102 10.2436 67.3855 10.4257C67.4608 10.6078 67.4994 10.803 67.4993 11V13.5C67.4993 13.8978 67.3412 14.2794 67.0599 14.5607C66.7786 14.842 66.3971 15 65.9993 15C65.6015 15 65.2199 14.842 64.9386 14.5607C64.6573 14.2794 64.4993 13.8978 64.4993 13.5V13H58.4993C58.1015 13 57.7199 12.842 57.4386 12.5607C57.1573 12.2794 56.9993 11.8978 56.9993 11.5V5.5H47.4993V13.5C47.4993 13.8978 47.3412 14.2794 47.0599 14.5607C46.7786 14.842 46.3971 15 45.9993 15C45.6015 15 45.2199 14.842 44.9386 14.5607C44.6573 14.2794 44.4993 13.8978 44.4993 13.5ZM59.9993 10H62.8743L59.9993 7.125V10Z" fill="white"/>
</g>
<defs>
<clipPath id="clip0_27_7176">
<rect width="72" height="32" rx="5" fill="white"/>
</clipPath>
</defs>
</svg>
