<svg width="72" height="32" viewBox="0 0 72 32" fill="none" xmlns="http://www.w3.org/2000/svg">
<g clip-path="url(#clip0_27_7161)">
<path d="M26.7075 10.2925L19.7075 3.2925C19.6146 3.19967 19.5042 3.12605 19.3829 3.07586C19.2615 3.02568 19.1314 2.9999 19 3H7C6.46957 3 5.96086 3.21071 5.58579 3.58579C5.21071 3.96086 5 4.46957 5 5V14C5 14.2652 5.10536 14.5196 5.29289 14.7071C5.48043 14.8946 5.73478 15 6 15C6.26522 15 6.51957 14.8946 6.70711 14.7071C6.89464 14.5196 7 14.2652 7 14V5H18V11C18 11.2652 18.1054 11.5196 18.2929 11.7071C18.4804 11.8946 18.7348 12 19 12H25V27H24C23.7348 27 23.4804 27.1054 23.2929 27.2929C23.1054 27.4804 23 27.7348 23 28C23 28.2652 23.1054 28.5196 23.2929 28.7071C23.4804 28.8946 23.7348 29 24 29H25C25.5304 29 26.0391 28.7893 26.4142 28.4142C26.7893 28.0391 27 27.5304 27 27V11C27.0001 10.8686 26.9743 10.7385 26.9241 10.6172C26.8739 10.4958 26.8003 10.3854 26.7075 10.2925ZM20 6.41375L23.5863 10H20V6.41375ZM19.485 18.125C19.3288 18.0385 19.1522 17.9955 18.9737 18.0003C18.7953 18.0052 18.6213 18.0577 18.47 18.1525L15.9762 19.71C15.9067 19.2353 15.6688 18.8015 15.306 18.4876C14.9433 18.1737 14.4797 18.0006 14 18H6C5.46957 18 4.96086 18.2107 4.58579 18.5858C4.21071 18.9609 4 19.4696 4 20V26C4 26.5304 4.21071 27.0391 4.58579 27.4142C4.96086 27.7893 5.46957 28 6 28H14C14.4797 27.9994 14.9433 27.8263 15.306 27.5124C15.6688 27.1985 15.9067 26.7647 15.9762 26.29L18.47 27.8475C18.6213 27.9421 18.7952 27.9944 18.9736 27.9992C19.152 28.0039 19.3284 27.9607 19.4846 27.8743C19.6407 27.7878 19.7708 27.6611 19.8614 27.5074C19.9521 27.3537 19.9999 27.1785 20 27V19C20.0001 18.8215 19.9524 18.6461 19.8618 18.4923C19.7712 18.3384 19.6411 18.2116 19.485 18.125ZM18 25.1963L16 23.9463V22.0537L18 20.8037V25.1963Z" fill="white"/>
<path d="M67.0613 9.93875L60.0613 2.93875C59.9218 2.7995 59.7564 2.68908 59.5743 2.6138C59.3922 2.53851 59.197 2.49985 59 2.5H47C46.337 2.5 45.7011 2.76339 45.2322 3.23223C44.7634 3.70107 44.5 4.33696 44.5 5V13.5C44.5 13.8978 44.658 14.2794 44.9393 14.5607C45.2206 14.842 45.6022 15 46 15C46.3978 15 46.7794 14.842 47.0607 14.5607C47.342 14.2794 47.5 13.8978 47.5 13.5V5.5H57V11.5C57 11.8978 57.158 12.2794 57.4393 12.5607C57.7206 12.842 58.1022 13 58.5 13H64.5V26.5C64.1022 26.5 63.7206 26.658 63.4393 26.9393C63.158 27.2206 63 27.6022 63 28C63 28.3978 63.158 28.7794 63.4393 29.0607C63.7206 29.342 64.1022 29.5 64.5 29.5H65C65.663 29.5 66.2989 29.2366 66.7678 28.7678C67.2366 28.2989 67.5 27.663 67.5 27V11C67.5002 10.803 67.4615 10.6078 67.3862 10.4257C67.3109 10.2436 67.2005 10.0782 67.0613 9.93875ZM60 7.125L62.875 10H60V7.125ZM59.7612 17.7113C59.5361 17.5786 59.2801 17.5071 59.0187 17.5038C58.7574 17.5005 58.4997 17.5655 58.2712 17.6925L55.8125 19.055C55.6249 18.5956 55.3048 18.2023 54.893 17.9254C54.4812 17.6485 53.9963 17.5004 53.5 17.5H46C45.337 17.5 44.7011 17.7634 44.2322 18.2322C43.7634 18.7011 43.5 19.337 43.5 20V26C43.5 26.663 43.7634 27.2989 44.2322 27.7678C44.7011 28.2366 45.337 28.5 46 28.5H53.5C53.9963 28.4996 54.4812 28.3515 54.893 28.0746C55.3048 27.7977 55.6249 27.4044 55.8125 26.945L58.2712 28.3113C58.4996 28.4382 58.7571 28.5033 59.0184 28.5001C59.2796 28.4969 59.5355 28.4255 59.7606 28.293C59.9858 28.1605 60.1725 27.9716 60.3021 27.7448C60.4318 27.518 60.5 27.2612 60.5 27V19C60.5 18.7389 60.4319 18.4823 60.3023 18.2556C60.1727 18.0289 59.9862 17.84 59.7612 17.7075V17.7113ZM53 25.5H46.5V20.5H53V25.5ZM57.5 24.4513L56 23.6175V22.3825L57.5 21.5487V24.4513Z" fill="white"/>
</g>
<defs>
<clipPath id="clip0_27_7161">
<rect width="72" height="32" rx="5" fill="white"/>
</clipPath>
</defs>
</svg>
