<svg width="72" height="32" viewBox="0 0 72 32" fill="none" xmlns="http://www.w3.org/2000/svg">
<g clip-path="url(#clip0_27_7111)">
<path d="M5.50015 15H26.5002C26.6328 15 26.7599 14.9473 26.8537 14.8536C26.9475 14.7598 27.0002 14.6326 27.0002 14.5V11C27.0003 10.8686 26.9745 10.7385 26.9243 10.6172C26.8741 10.4958 26.8005 10.3854 26.7077 10.2925L19.7077 3.2925C19.6147 3.19967 19.5044 3.12605 19.383 3.07586C19.2616 3.02568 19.1315 2.9999 19.0001 3H7.00015C6.46972 3 5.96101 3.21071 5.58594 3.58579C5.21086 3.96086 5.00015 4.46957 5.00015 5V14.5C5.00015 14.6326 5.05283 14.7598 5.1466 14.8536C5.24036 14.9473 5.36754 15 5.50015 15ZM19.0001 5.5L24.5002 11H19.0001V5.5ZM7.50015 18H5.50015C5.23493 18 4.98058 18.1054 4.79304 18.2929C4.60551 18.4804 4.50015 18.7348 4.50015 19V25.965C4.49572 26.2237 4.58966 26.4745 4.76298 26.6666C4.93631 26.8587 5.1761 26.9779 5.4339 27C5.57069 27.0091 5.70788 26.9899 5.83696 26.9438C5.96604 26.8976 6.08424 26.8254 6.18424 26.7316C6.28423 26.6378 6.36387 26.5245 6.41822 26.3986C6.47256 26.2728 6.50045 26.1371 6.50015 26V25H7.42515C9.33015 25 10.9426 23.51 10.9989 21.6063C11.0131 21.1379 10.9332 20.6714 10.7637 20.2345C10.5943 19.7976 10.3388 19.3992 10.0125 19.0629C9.68625 18.7265 9.29573 18.4591 8.86416 18.2766C8.43259 18.094 7.96875 18 7.50015 18ZM7.4564 23H6.50015V20H7.50015C7.70995 19.999 7.91762 20.0421 8.10975 20.1263C8.30188 20.2106 8.4742 20.3343 8.61556 20.4893C8.75692 20.6443 8.86419 20.8273 8.93044 21.0264C8.99669 21.2254 9.02043 21.4362 9.00015 21.645C8.95651 22.022 8.77441 22.3694 8.48917 22.6197C8.20394 22.8701 7.83589 23.0056 7.4564 23ZM28.0002 25.1087C28.0001 25.3687 27.8987 25.6185 27.7177 25.805C27.3695 26.1783 26.9491 26.4767 26.4819 26.6821C26.0147 26.8876 25.5105 26.9957 25.0002 27C22.7952 27 21.0002 24.9813 21.0002 22.5C21.0002 20.0187 22.7952 18 25.0002 18C25.7154 18.0022 26.4145 18.2133 27.0114 18.6075C27.2283 18.7427 27.3869 18.9539 27.4563 19.1999C27.5257 19.4459 27.5007 19.7089 27.3864 19.9375C27.3207 20.0615 27.2296 20.1703 27.119 20.2568C27.0085 20.3432 26.881 20.4055 26.7448 20.4394C26.6086 20.4734 26.4668 20.4783 26.3286 20.4539C26.1904 20.4294 26.0589 20.3761 25.9426 20.2975C25.6662 20.1044 25.3373 20.0006 25.0002 20C23.8977 20 23.0002 21.125 23.0002 22.5C23.0002 23.875 23.8977 25 25.0002 25C25.3612 24.996 25.7115 24.8769 26.0002 24.66V24C25.8631 24.0003 25.7274 23.9724 25.6015 23.9181C25.4757 23.8637 25.3623 23.7841 25.2685 23.6841C25.1748 23.5841 25.1026 23.4659 25.0564 23.3368C25.0102 23.2077 24.9911 23.0705 25.0002 22.9338C25.0222 22.6766 25.1409 22.4374 25.3322 22.2641C25.5235 22.0909 25.7733 21.9965 26.0314 22H27.0002C27.2654 22 27.5197 22.1054 27.7073 22.2929C27.8948 22.4804 28.0002 22.7348 28.0002 23V25.1087ZM19.5001 19V25.97C19.5027 26.153 19.4563 26.3335 19.3658 26.4926C19.2752 26.6517 19.1438 26.7837 18.9852 26.875C18.7704 26.994 18.5193 27.0299 18.2798 26.9757C18.0403 26.9215 17.829 26.7811 17.6864 26.5812L14.5001 22.125V25.97C14.5039 26.2283 14.4097 26.4784 14.2365 26.67C14.0632 26.8616 13.8238 26.9804 13.5664 27.0025C13.4296 27.0116 13.2924 26.9924 13.1633 26.9463C13.0343 26.9001 12.9161 26.8279 12.8161 26.7341C12.7161 26.6403 12.6364 26.527 12.5821 26.4011C12.5277 26.2753 12.4998 26.1396 12.5001 26.0025V19.0387C12.4968 18.8447 12.5481 18.6536 12.6482 18.4874C12.7484 18.3212 12.8933 18.1865 13.0664 18.0987C13.279 17.9959 13.5211 17.9716 13.7499 18.0302C13.9787 18.0887 14.1794 18.2264 14.3164 18.4188L17.5001 22.875V19.0338C17.4967 18.7757 17.591 18.5259 17.7643 18.3345C17.9375 18.1432 18.1768 18.0246 18.4339 18.0025C18.5705 17.9934 18.7075 18.0125 18.8364 18.0585C18.9653 18.1045 19.0834 18.1765 19.1833 18.27C19.2833 18.3636 19.363 18.4766 19.4175 18.6022C19.472 18.7277 19.5001 18.8631 19.5001 19Z" fill="white"/>
<path d="M47 17.5H45C44.6022 17.5 44.2206 17.658 43.9393 17.9393C43.658 18.2206 43.5 18.6022 43.5 19V26C43.5 26.3978 43.658 26.7794 43.9393 27.0607C44.2206 27.342 44.6022 27.5 45 27.5C45.3978 27.5 45.7794 27.342 46.0607 27.0607C46.342 26.7794 46.5 26.3978 46.5 26V25.5H47C48.0609 25.5 49.0783 25.0786 49.8284 24.3284C50.5786 23.5783 51 22.5609 51 21.5C51 20.4391 50.5786 19.4217 49.8284 18.6716C49.0783 17.9214 48.0609 17.5 47 17.5ZM47 22.5H46.5V20.5H47C47.2652 20.5 47.5196 20.6054 47.7071 20.7929C47.8946 20.9804 48 21.2348 48 21.5C48 21.7652 47.8946 22.0196 47.7071 22.2071C47.5196 22.3946 47.2652 22.5 47 22.5ZM69 25.1087C69.0001 25.4953 68.851 25.867 68.5837 26.1462C68.1891 26.5701 67.712 26.9088 67.1817 27.1416C66.6514 27.3744 66.0791 27.4964 65.5 27.5C63.0187 27.5 61 25.2563 61 22.5C61 19.7437 63.0187 17.5 65.5 17.5C66.3345 17.5024 67.1492 17.755 67.8388 18.225C68.0069 18.333 68.1517 18.4735 68.2648 18.6383C68.3778 18.803 68.4568 18.9887 68.4971 19.1844C68.5374 19.3802 68.5382 19.582 68.4995 19.778C68.4607 19.974 68.3832 20.1603 68.2714 20.326C68.1596 20.4916 68.0159 20.6333 67.8487 20.7426C67.6814 20.8519 67.494 20.9267 67.2974 20.9626C67.1008 20.9985 66.8991 20.9947 66.704 20.9516C66.5089 20.9084 66.3243 20.8267 66.1612 20.7113C65.9672 20.5758 65.7367 20.5021 65.5 20.5C64.6875 20.5 64 21.4163 64 22.5C64 23.5837 64.6875 24.5 65.5 24.5C65.6145 24.4998 65.7283 24.4821 65.8375 24.4475C65.6583 24.2276 65.5452 23.9614 65.5112 23.6798C65.4772 23.3982 65.5237 23.1127 65.6454 22.8564C65.7671 22.6002 65.959 22.3837 66.1988 22.2322C66.4385 22.0806 66.7163 22.0001 67 22H67.5C67.8978 22 68.2794 22.158 68.5607 22.4393C68.842 22.7206 69 23.1022 69 23.5V25.1087ZM60 19V26C60 26.3179 59.8991 26.6276 59.7117 26.8844C59.5244 27.1412 59.2602 27.3318 58.9575 27.4287C58.8095 27.4757 58.6552 27.4998 58.5 27.5C58.2616 27.5003 58.0266 27.4437 57.8144 27.335C57.6023 27.2263 57.4191 27.0686 57.28 26.875L55 23.68V26C55 26.3978 54.842 26.7794 54.5607 27.0607C54.2794 27.342 53.8978 27.5 53.5 27.5C53.1022 27.5 52.7206 27.342 52.4393 27.0607C52.158 26.7794 52 26.3978 52 26V19C51.9995 18.6821 52.1 18.3722 52.2871 18.1152C52.4741 17.8581 52.738 17.6671 53.0406 17.5698C53.3433 17.4724 53.669 17.4737 53.9709 17.5735C54.2727 17.6733 54.535 17.8664 54.72 18.125L57 21.3188V19C57 18.6022 57.158 18.2206 57.4393 17.9393C57.7206 17.658 58.1022 17.5 58.5 17.5C58.8978 17.5 59.2794 17.658 59.5607 17.9393C59.842 18.2206 60 18.6022 60 19ZM46 15C46.3978 15 46.7794 14.842 47.0607 14.5607C47.342 14.2794 47.5 13.8978 47.5 13.5V5.5H57V11.5C57 11.8978 57.158 12.2794 57.4393 12.5607C57.7206 12.842 58.1022 13 58.5 13H64.5V13.5C64.5 13.8978 64.658 14.2794 64.9393 14.5607C65.2206 14.842 65.6022 15 66 15C66.3978 15 66.7794 14.842 67.0607 14.5607C67.342 14.2794 67.5 13.8978 67.5 13.5V11C67.5002 10.803 67.4615 10.6078 67.3862 10.4257C67.3109 10.2436 67.2005 10.0782 67.0613 9.93875L60.0613 2.93875C59.9218 2.7995 59.7564 2.68908 59.5743 2.6138C59.3922 2.53851 59.197 2.49985 59 2.5H47C46.337 2.5 45.7011 2.76339 45.2322 3.23223C44.7634 3.70107 44.5 4.33696 44.5 5V13.5C44.5 13.8978 44.658 14.2794 44.9393 14.5607C45.2206 14.842 45.6022 15 46 15ZM60 7.125L62.875 10H60V7.125Z" fill="white"/>
</g>
<defs>
<clipPath id="clip0_27_7111">
<rect width="72" height="32" rx="5" fill="white"/>
</clipPath>
</defs>
</svg>
