<svg width="72" height="32" viewBox="0 0 72 32" fill="none" xmlns="http://www.w3.org/2000/svg">
<g clip-path="url(#clip0_27_7026)">
<path d="M5.5 15H26.5C26.6326 15 26.7598 14.9473 26.8536 14.8536C26.9473 14.7598 27 14.6326 27 14.5V11C27.0001 10.8686 26.9743 10.7385 26.9241 10.6172C26.8739 10.4958 26.8003 10.3854 26.7075 10.2925L19.7075 3.2925C19.6146 3.19967 19.5042 3.12605 19.3829 3.07586C19.2615 3.02568 19.1314 2.9999 19 3H7C6.46957 3 5.96086 3.21071 5.58579 3.58579C5.21071 3.96086 5 4.46957 5 5V14.5C5 14.6326 5.05268 14.7598 5.14645 14.8536C5.24021 14.9473 5.36739 15 5.5 15ZM19 5.5L24.5 11H19V5.5ZM6 22.5C6 23.875 6.8975 25 8 25C8.23697 24.9957 8.47063 24.9435 8.68694 24.8467C8.90325 24.7498 9.09775 24.6102 9.25875 24.4363C9.43195 24.2536 9.66639 24.1411 9.91727 24.1204C10.1682 24.0996 10.4179 24.172 10.6187 24.3237C10.7282 24.41 10.8183 24.5182 10.8835 24.6414C10.9487 24.7645 10.9874 24.8999 10.9972 25.0389C11.0069 25.1779 10.9875 25.3174 10.9402 25.4485C10.8929 25.5795 10.8188 25.6993 10.7225 25.8C10.3743 26.1748 9.95323 26.4746 9.48508 26.6809C9.01694 26.8873 8.51159 26.9959 8 27C5.79375 27 4 24.9813 4 22.5C4 20.0187 5.79375 18 8 18C8.49982 18.0038 8.99383 18.1075 9.453 18.305C9.91216 18.5025 10.3272 18.7898 10.6737 19.15C10.8589 19.3279 10.9708 19.5686 10.9877 19.8248C11.0046 20.081 10.9252 20.3343 10.765 20.535C10.6746 20.6424 10.5626 20.7296 10.4363 20.7908C10.31 20.8521 10.1722 20.8861 10.0318 20.8905C9.89153 20.895 9.75184 20.8699 9.62187 20.8168C9.49191 20.7638 9.37457 20.6839 9.2775 20.5825C9.11546 20.4035 8.91856 20.2595 8.69888 20.1594C8.47921 20.0592 8.24138 20.005 8 20C6.8975 20 6 21.125 6 22.5ZM19.5 22.5662C19.4776 22.8233 19.3589 23.0624 19.1677 23.2355C18.9764 23.4087 18.7267 23.5032 18.4688 23.5H17V24.9662C17.0035 25.2243 16.9091 25.4741 16.7359 25.6655C16.5626 25.8568 16.3234 25.9754 16.0662 25.9975C15.9295 26.0066 15.7923 25.9874 15.6632 25.9413C15.5341 25.8951 15.4159 25.8229 15.3159 25.7291C15.2159 25.6353 15.1363 25.522 15.0819 25.3961C15.0276 25.2703 14.9997 25.1346 15 24.9975V23.5H13.5337C13.2758 23.5032 13.0261 23.4087 12.8349 23.2355C12.6436 23.0624 12.5249 22.8233 12.5025 22.5662C12.4934 22.4295 12.5126 22.2923 12.5587 22.1632C12.6049 22.0341 12.6771 21.9159 12.7709 21.8159C12.8647 21.7159 12.978 21.6363 13.1039 21.5819C13.2297 21.5276 13.3654 21.4997 13.5025 21.5H15.0025V20.0338C14.999 19.7757 15.0934 19.5259 15.2666 19.3345C15.4399 19.1432 15.6791 19.0246 15.9362 19.0025C16.073 18.9934 16.2102 19.0126 16.3393 19.0587C16.4684 19.1049 16.5866 19.1771 16.6866 19.2709C16.7866 19.3647 16.8662 19.478 16.9206 19.6039C16.9749 19.7297 17.0028 19.8654 17.0025 20.0025V21.5025H18.5025C18.6392 21.5026 18.7743 21.5306 18.8997 21.585C19.0251 21.6393 19.138 21.7188 19.2315 21.8185C19.325 21.9182 19.397 22.0359 19.4432 22.1646C19.4894 22.2932 19.5087 22.4299 19.5 22.5662ZM28 22.5662C27.9776 22.8233 27.8589 23.0624 27.6677 23.2355C27.4764 23.4087 27.2267 23.5032 26.9688 23.5H25.5V24.9662C25.5035 25.2243 25.4091 25.4741 25.2359 25.6655C25.0626 25.8568 24.8234 25.9754 24.5662 25.9975C24.4295 26.0066 24.2923 25.9874 24.1632 25.9413C24.0341 25.8951 23.9159 25.8229 23.8159 25.7291C23.7159 25.6353 23.6363 25.522 23.5819 25.3961C23.5276 25.2703 23.4997 25.1346 23.5 24.9975V23.5H22.0338C21.7758 23.5032 21.5261 23.4087 21.3349 23.2355C21.1436 23.0624 21.0249 22.8233 21.0025 22.5662C20.9934 22.4295 21.0126 22.2923 21.0587 22.1632C21.1049 22.0341 21.1771 21.9159 21.2709 21.8159C21.3647 21.7159 21.478 21.6363 21.6039 21.5819C21.7297 21.5276 21.8654 21.4997 22.0025 21.5H23.5025V20.0338C23.499 19.7757 23.5934 19.5259 23.7666 19.3345C23.9399 19.1432 24.1791 19.0246 24.4363 19.0025C24.573 18.9934 24.7102 19.0126 24.8393 19.0587C24.9684 19.1049 25.0866 19.1771 25.1866 19.2709C25.2866 19.3647 25.3662 19.478 25.4206 19.6039C25.4749 19.7297 25.5028 19.8654 25.5025 20.0025V21.5025H27.0025C27.1392 21.5026 27.2743 21.5306 27.3997 21.585C27.5251 21.6393 27.638 21.7188 27.7315 21.8185C27.825 21.9182 27.897 22.0359 27.9432 22.1646C27.9894 22.2932 28.0087 22.4299 28 22.5662Z" fill="white"/>
<path d="M46 22.5C46 23.5837 46.6875 24.5 47.5 24.5C47.6739 24.4946 47.8448 24.4538 48.0023 24.3801C48.1599 24.3064 48.3007 24.2013 48.4163 24.0713C48.6914 23.7838 49.0695 23.6175 49.4673 23.6088C49.8651 23.6001 50.2501 23.7498 50.5375 24.025C50.8249 24.3002 50.9913 24.6782 51 25.076C51.0086 25.4739 50.8589 25.8588 50.5837 26.1462C50.1891 26.5701 49.712 26.9088 49.1817 27.1416C48.6514 27.3744 48.0791 27.4964 47.5 27.5C45.0187 27.5 43 25.2575 43 22.5C43 19.7425 45.0187 17.5 47.5 17.5C48.0791 17.5036 48.6514 17.6256 49.1817 17.8584C49.712 18.0912 50.1891 18.4299 50.5837 18.8538C50.8589 19.1412 51.0086 19.5261 51 19.924C50.9913 20.3218 50.8249 20.6998 50.5375 20.975C50.2501 21.2502 49.8651 21.3999 49.4673 21.3912C49.0695 21.3825 48.6914 21.2162 48.4163 20.9287C48.3005 20.799 48.1596 20.694 48.0021 20.6203C47.8446 20.5466 47.6738 20.5057 47.5 20.5C46.6875 20.5 46 21.4163 46 22.5ZM44.5 13.5V5C44.5 4.33696 44.7634 3.70107 45.2322 3.23223C45.7011 2.76339 46.337 2.5 47 2.5H59C59.197 2.49985 59.3922 2.53851 59.5743 2.6138C59.7564 2.68908 59.9218 2.7995 60.0613 2.93875L67.0613 9.93875C67.2005 10.0782 67.3109 10.2436 67.3862 10.4257C67.4615 10.6078 67.5002 10.803 67.5 11V13.5C67.5 13.8978 67.342 14.2794 67.0607 14.5607C66.7794 14.842 66.3978 15 66 15C65.6022 15 65.2206 14.842 64.9393 14.5607C64.658 14.2794 64.5 13.8978 64.5 13.5V13H58.5C58.1022 13 57.7206 12.842 57.4393 12.5607C57.158 12.2794 57 11.8978 57 11.5V5.5H47.5V13.5C47.5 13.8978 47.342 14.2794 47.0607 14.5607C46.7794 14.842 46.3978 15 46 15C45.6022 15 45.2206 14.842 44.9393 14.5607C44.658 14.2794 44.5 13.8978 44.5 13.5ZM60 7.125V10H62.875L60 7.125ZM58.5 21H57.5V20C57.5 19.6022 57.342 19.2206 57.0607 18.9393C56.7794 18.658 56.3978 18.5 56 18.5C55.6022 18.5 55.2206 18.658 54.9393 18.9393C54.658 19.2206 54.5 19.6022 54.5 20V21H53.5C53.1022 21 52.7206 21.158 52.4393 21.4393C52.158 21.7206 52 22.1022 52 22.5C52 22.8978 52.158 23.2794 52.4393 23.5607C52.7206 23.842 53.1022 24 53.5 24H54.5V25C54.5 25.3978 54.658 25.7794 54.9393 26.0607C55.2206 26.342 55.6022 26.5 56 26.5C56.3978 26.5 56.7794 26.342 57.0607 26.0607C57.342 25.7794 57.5 25.3978 57.5 25V24H58.5C58.8978 24 59.2794 23.842 59.5607 23.5607C59.842 23.2794 60 22.8978 60 22.5C60 22.1022 59.842 21.7206 59.5607 21.4393C59.2794 21.158 58.8978 21 58.5 21ZM67.5 21H66.5V20C66.5 19.6022 66.342 19.2206 66.0607 18.9393C65.7794 18.658 65.3978 18.5 65 18.5C64.6022 18.5 64.2206 18.658 63.9393 18.9393C63.658 19.2206 63.5 19.6022 63.5 20V21H62.5C62.1022 21 61.7206 21.158 61.4393 21.4393C61.158 21.7206 61 22.1022 61 22.5C61 22.8978 61.158 23.2794 61.4393 23.5607C61.7206 23.842 62.1022 24 62.5 24H63.5V25C63.5 25.3978 63.658 25.7794 63.9393 26.0607C64.2206 26.342 64.6022 26.5 65 26.5C65.3978 26.5 65.7794 26.342 66.0607 26.0607C66.342 25.7794 66.5 25.3978 66.5 25V24H67.5C67.8978 24 68.2794 23.842 68.5607 23.5607C68.842 23.2794 69 22.8978 69 22.5C69 22.1022 68.842 21.7206 68.5607 21.4393C68.2794 21.158 67.8978 21 67.5 21Z" fill="white"/>
</g>
<defs>
<clipPath id="clip0_27_7026">
<rect width="72" height="32" rx="5" fill="white"/>
</clipPath>
</defs>
</svg>
