<svg width="72" height="32" viewBox="0 0 72 32" fill="none" xmlns="http://www.w3.org/2000/svg">
<g clip-path="url(#clip0_27_7006)">
<path d="M6 22.5C6 23.875 6.8975 25 8 25C8.23697 24.9957 8.47063 24.9435 8.68694 24.8467C8.90325 24.7498 9.09775 24.6102 9.25875 24.4363C9.43195 24.2536 9.66639 24.1411 9.91727 24.1204C10.1682 24.0996 10.4179 24.172 10.6187 24.3237C10.7282 24.41 10.8183 24.5182 10.8835 24.6414C10.9487 24.7645 10.9874 24.8999 10.9972 25.0389C11.0069 25.1779 10.9875 25.3174 10.9402 25.4485C10.8929 25.5795 10.8188 25.6993 10.7225 25.8C10.3743 26.1748 9.95323 26.4746 9.48508 26.6809C9.01694 26.8873 8.51159 26.9959 8 27C5.79375 27 4 24.9813 4 22.5C4 20.0187 5.79375 18 8 18C8.49973 18.0037 8.99369 18.1072 9.45285 18.3044C9.91201 18.5017 10.3271 18.7888 10.6737 19.1488C10.8587 19.3271 10.9705 19.5679 10.9874 19.8242C11.0043 20.0806 10.925 20.334 10.765 20.535C10.6746 20.6424 10.5626 20.7296 10.4363 20.7908C10.31 20.8521 10.1722 20.8861 10.0318 20.8905C9.89153 20.895 9.75184 20.8699 9.62187 20.8168C9.49191 20.7638 9.37457 20.6839 9.2775 20.5825C9.11518 20.4039 8.91822 20.2601 8.69861 20.16C8.47899 20.0598 8.24131 20.0054 8 20C6.8975 20 6 21.125 6 22.5ZM27 11V27C27 27.5304 26.7893 28.0391 26.4142 28.4142C26.0391 28.7893 25.5304 29 25 29H14.5C14.3674 29 14.2402 28.9473 14.1464 28.8536C14.0527 28.7598 14 28.6326 14 28.5V15.5C14 15.3674 13.9473 15.2402 13.8536 15.1464C13.7598 15.0527 13.6326 15 13.5 15H5.5C5.36739 15 5.24021 14.9473 5.14645 14.8536C5.05268 14.7598 5 14.6326 5 14.5V5C5 4.46957 5.21071 3.96086 5.58579 3.58579C5.96086 3.21071 6.46957 3 7 3H19C19.1314 2.9999 19.2615 3.02568 19.3829 3.07586C19.5042 3.12605 19.6146 3.19967 19.7075 3.2925L26.7075 10.2925C26.8003 10.3854 26.8739 10.4958 26.9241 10.6172C26.9743 10.7385 27.0001 10.8686 27 11ZM24.5 11L19 5.5V11H24.5Z" fill="white"/>
<path d="M67.0613 9.93875L60.0613 2.93875C59.9218 2.7995 59.7564 2.68908 59.5743 2.6138C59.3922 2.53851 59.197 2.49985 59 2.5H47C46.337 2.5 45.7011 2.76339 45.2322 3.23223C44.7634 3.70107 44.5 4.33696 44.5 5V13.5C44.5 13.8978 44.658 14.2794 44.9393 14.5607C45.2206 14.842 45.6022 15 46 15C46.3978 15 46.7794 14.842 47.0607 14.5607C47.342 14.2794 47.5 13.8978 47.5 13.5V5.5H57V11.5C57 11.8978 57.158 12.2794 57.4393 12.5607C57.7206 12.842 58.1022 13 58.5 13H64.5V26.5H55.5C55.1022 26.5 54.7206 26.658 54.4393 26.9393C54.158 27.2206 54 27.6022 54 28C54 28.3978 54.158 28.7794 54.4393 29.0607C54.7206 29.342 55.1022 29.5 55.5 29.5H65C65.663 29.5 66.2989 29.2366 66.7678 28.7678C67.2366 28.2989 67.5 27.663 67.5 27V11C67.5002 10.803 67.4615 10.6078 67.3862 10.4257C67.3109 10.2436 67.2005 10.0782 67.0613 9.93875ZM60 7.125L62.875 10H60V7.125ZM46 22.5C46 23.5837 46.6875 24.5 47.5 24.5C47.6738 24.4943 47.8446 24.4534 48.0021 24.3797C48.1596 24.306 48.3005 24.201 48.4163 24.0713C48.6914 23.7838 49.0695 23.6175 49.4673 23.6088C49.8651 23.6001 50.2501 23.7498 50.5375 24.025C50.8249 24.3002 50.9913 24.6782 51 25.076C51.0086 25.4739 50.8589 25.8588 50.5837 26.1462C50.1891 26.5701 49.712 26.9088 49.1817 27.1416C48.6514 27.3744 48.0791 27.4964 47.5 27.5C45.0187 27.5 43 25.2575 43 22.5C43 19.7425 45.0187 17.5 47.5 17.5C48.0791 17.5036 48.6514 17.6256 49.1817 17.8584C49.712 18.0912 50.1891 18.4299 50.5837 18.8538C50.8589 19.1412 51.0086 19.5261 51 19.924C50.9913 20.3218 50.8249 20.6998 50.5375 20.975C50.2501 21.2502 49.8651 21.3999 49.4673 21.3912C49.0695 21.3825 48.6914 21.2162 48.4163 20.9287C48.3005 20.799 48.1596 20.694 48.0021 20.6203C47.8446 20.5466 47.6738 20.5057 47.5 20.5C46.6875 20.5 46 21.4163 46 22.5Z" fill="white"/>
</g>
<defs>
<clipPath id="clip0_27_7006">
<rect width="72" height="32" rx="5" fill="white"/>
</clipPath>
</defs>
</svg>
