<svg width="72" height="32" viewBox="0 0 72 32" fill="none" xmlns="http://www.w3.org/2000/svg">
<g clip-path="url(#clip0_27_7046)">
<path d="M5.5 15H26.5088C26.6414 15 26.7685 14.9473 26.8623 14.8536C26.9561 14.7598 27.0088 14.6326 27.0088 14.5V11C27.0089 10.8686 26.9831 10.7386 26.9329 10.6172C26.8827 10.4958 26.8091 10.3854 26.7162 10.2925L19.7162 3.29251C19.623 3.19937 19.5123 3.12559 19.3904 3.07539C19.2686 3.02519 19.138 2.99957 19.0063 3.00001H7C6.46957 3.00001 5.96086 3.21072 5.58579 3.58579C5.21071 3.96086 5 4.46957 5 5.00001V14.5C5 14.6326 5.05268 14.7598 5.14645 14.8536C5.24021 14.9473 5.36739 15 5.5 15ZM19 5.50001L24.5 11H19V5.50001ZM6.5 18H4.5C4.23478 18 3.98043 18.1054 3.79289 18.2929C3.60536 18.4804 3.5 18.7348 3.5 19V26C3.5 26.2652 3.60536 26.5196 3.79289 26.7071C3.98043 26.8946 4.23478 27 4.5 27H6.41625C8.875 27 10.9437 25.065 11 22.6088C11.0145 22.0087 10.9088 21.4118 10.6892 20.8533C10.4695 20.2947 10.1404 19.7857 9.72106 19.3562C9.30174 18.9268 8.80075 18.5856 8.24757 18.3526C7.69439 18.1197 7.10021 17.9998 6.5 18ZM6.43875 25H5.5V20H6.5C6.83656 19.9998 7.16971 20.0675 7.47947 20.1991C7.78924 20.3307 8.06924 20.5235 8.30269 20.7659C8.53614 21.0084 8.71823 21.2955 8.83805 21.61C8.95787 21.9245 9.01296 22.2599 9 22.5963C8.94875 23.9488 7.79375 25 6.44 25H6.43875ZM27.7725 24.465C27.9325 24.666 28.0118 24.9194 27.9949 25.1758C27.978 25.4321 27.8662 25.673 27.6812 25.8513C27.3345 26.2114 26.9192 26.4985 26.4598 26.6958C26.0004 26.8931 25.5062 26.9965 25.0063 27C22.8 27 21.0063 24.9813 21.0063 22.5C21.0063 20.0188 22.8013 18 25.0063 18C25.5062 18.0035 26.0004 18.1069 26.4598 18.3042C26.9192 18.5015 27.3345 18.7886 27.6812 19.1488C27.8662 19.3271 27.978 19.5679 27.9949 19.8242C28.0118 20.0806 27.9325 20.334 27.7725 20.535C27.6821 20.6424 27.5701 20.7296 27.4438 20.7908C27.3175 20.8521 27.1797 20.8861 27.0393 20.8906C26.899 20.895 26.7593 20.8699 26.6294 20.8168C26.4994 20.7638 26.3821 20.6839 26.285 20.5825C26.1228 20.4037 25.9259 20.2598 25.7062 20.1597C25.4866 20.0595 25.2488 20.0052 25.0075 20C23.905 20 23.0075 21.125 23.0075 22.5C23.0075 23.875 23.905 25 25.0075 25C25.249 24.9947 25.4869 24.9403 25.7067 24.8402C25.9266 24.74 26.1237 24.5962 26.2862 24.4175C26.3833 24.3161 26.5007 24.2362 26.6306 24.1832C26.7606 24.1301 26.9003 24.105 27.0406 24.1095C27.1809 24.1139 27.3187 24.1479 27.445 24.2092C27.5713 24.2704 27.6833 24.3576 27.7738 24.465H27.7725ZM16 18C13.7937 18 12 20.0188 12 22.5C12 24.9813 13.7963 27 16 27C18.2037 27 20 24.9813 20 22.5C20 20.0188 18.2113 18 16 18ZM16 25C14.8962 25 14 23.875 14 22.5C14 21.125 14.8975 20 16 20C17.1025 20 18 21.125 18 22.5C18 23.875 17.1075 25 16 25Z" fill="white"/>
<path d="M46 17.5H44C43.6022 17.5 43.2206 17.658 42.9393 17.9393C42.658 18.2206 42.5 18.6022 42.5 19V26C42.5 26.3978 42.658 26.7794 42.9393 27.0607C43.2206 27.342 43.6022 27.5 44 27.5H46C47.3261 27.5 48.5979 26.9732 49.5355 26.0355C50.4732 25.0979 51 23.8261 51 22.5C51 21.1739 50.4732 19.9021 49.5355 18.9645C48.5979 18.0268 47.3261 17.5 46 17.5ZM46 24.5H45.5V20.5H46C46.5304 20.5 47.0391 20.7107 47.4142 21.0858C47.7893 21.4609 48 21.9696 48 22.5C48 23.0304 47.7893 23.5391 47.4142 23.9142C47.0391 24.2893 46.5304 24.5 46 24.5ZM68.5375 24.025C68.6804 24.1613 68.795 24.3245 68.8747 24.5051C68.9544 24.6858 68.9977 24.8805 69.002 25.0779C69.0063 25.2753 68.9715 25.4717 68.8998 25.6556C68.828 25.8396 68.7206 26.0076 68.5837 26.15C68.1888 26.5732 67.7115 26.9112 67.1812 27.1433C66.651 27.3755 66.0789 27.4968 65.5 27.5C63.0187 27.5 61 25.2575 61 22.5C61 19.7425 63.0187 17.5 65.5 17.5C66.0791 17.5036 66.6514 17.6256 67.1817 17.8584C67.712 18.0912 68.1891 18.4299 68.5837 18.8538C68.8589 19.1412 69.0086 19.5261 69 19.924C68.9913 20.3218 68.8249 20.6998 68.5375 20.975C68.2501 21.2502 67.8651 21.3999 67.4673 21.3912C67.0695 21.3825 66.6914 21.2162 66.4163 20.9287C66.3005 20.799 66.1596 20.694 66.0021 20.6203C65.8446 20.5466 65.6738 20.5057 65.5 20.5C64.6875 20.5 64 21.4163 64 22.5C64 23.5837 64.6875 24.5 65.5 24.5C65.6738 24.4943 65.8446 24.4534 66.0021 24.3797C66.1596 24.306 66.3005 24.201 66.4163 24.0713C66.5525 23.9289 66.7154 23.8148 66.8958 23.7354C67.0761 23.656 67.2703 23.613 67.4673 23.6087C67.6643 23.6044 67.8602 23.6389 68.0438 23.7104C68.2274 23.7818 68.3952 23.8887 68.5375 24.025ZM56 17.5C53.5188 17.5 51.5 19.7425 51.5 22.5C51.5 25.2575 53.5188 27.5 56 27.5C58.4812 27.5 60.5 25.2575 60.5 22.5C60.5 19.7425 58.4812 17.5 56 17.5ZM56 24.5C55.1875 24.5 54.5 23.5837 54.5 22.5C54.5 21.4163 55.1875 20.5 56 20.5C56.8125 20.5 57.5 21.4163 57.5 22.5C57.5 23.5837 56.8125 24.5 56 24.5ZM46 15C46.3978 15 46.7794 14.842 47.0607 14.5607C47.342 14.2794 47.5 13.8978 47.5 13.5V5.5H57V11.5C57 11.8978 57.158 12.2794 57.4393 12.5607C57.7206 12.842 58.1022 13 58.5 13H64.5V13.5C64.5 13.8978 64.658 14.2794 64.9393 14.5607C65.2206 14.842 65.6022 15 66 15C66.3978 15 66.7794 14.842 67.0607 14.5607C67.342 14.2794 67.5 13.8978 67.5 13.5V11C67.5 10.6025 67.3422 10.2212 67.0613 9.94L60.0613 2.94C59.9219 2.80052 59.7565 2.68987 59.5744 2.61437C59.3923 2.53887 59.1971 2.50001 59 2.5H47C46.337 2.5 45.7011 2.76339 45.2322 3.23223C44.7634 3.70107 44.5 4.33696 44.5 5V13.5C44.5 13.8978 44.658 14.2794 44.9393 14.5607C45.2206 14.842 45.6022 15 46 15ZM60 7.125L62.875 10H60V7.125Z" fill="white"/>
</g>
<defs>
<clipPath id="clip0_27_7046">
<rect width="72" height="32" rx="5" fill="white"/>
</clipPath>
</defs>
</svg>
