<svg width="72" height="32" viewBox="0 0 72 32" fill="none" xmlns="http://www.w3.org/2000/svg">
<g clip-path="url(#clip0_27_7126)">
<path d="M26.7076 10.2925L19.7076 3.2925C19.6147 3.19967 19.5044 3.12605 19.383 3.07586C19.2616 3.02568 19.1315 2.9999 19.0001 3H7.00013C6.4697 3 5.96099 3.21071 5.58592 3.58579C5.21084 3.96086 5.00013 4.46957 5.00013 5V14.5C5.00013 14.6326 5.05281 14.7598 5.14658 14.8536C5.24034 14.9473 5.36752 15 5.50013 15H21.5001C21.6327 15 21.7599 15.0527 21.8537 15.1464C21.9475 15.2402 22.0001 15.3674 22.0001 15.5V28.5C22.0001 28.6326 22.0528 28.7598 22.1466 28.8536C22.2403 28.9473 22.3675 29 22.5001 29H25.0001C25.5306 29 26.0393 28.7893 26.4143 28.4142C26.7894 28.0391 27.0001 27.5304 27.0001 27V11C27.0002 10.8686 26.9745 10.7385 26.9243 10.6172C26.8741 10.4958 26.8005 10.3854 26.7076 10.2925ZM19.0001 11V5.5L24.5001 11H19.0001ZM7.92763 18H6.00013C5.73491 18 5.48056 18.1054 5.29302 18.2929C5.10549 18.4804 5.00013 18.7348 5.00013 19V25.9662C4.99602 26.2247 5.0901 26.4752 5.26339 26.667C5.43669 26.8589 5.6763 26.9779 5.93388 27C6.07067 27.0091 6.20786 26.9899 6.33694 26.9438C6.46602 26.8976 6.58422 26.8254 6.68422 26.7316C6.78421 26.6378 6.86385 26.5245 6.9182 26.3986C6.97254 26.2728 7.00043 26.1371 7.00013 26V25H8.00013C8.24076 24.9997 8.48074 24.975 8.71638 24.9263L9.63638 26.5C9.70804 26.623 9.80514 26.7294 9.9212 26.8118C10.0373 26.8943 10.1696 26.9511 10.3094 26.9783C10.4491 27.0055 10.5931 27.0026 10.7316 26.9697C10.8701 26.9368 11 26.8747 11.1126 26.7875C11.3051 26.6339 11.4353 26.4158 11.4793 26.1736C11.5232 25.9313 11.4777 25.6813 11.3514 25.47L10.4764 23.97C10.8107 23.6364 11.0738 23.2383 11.2498 22.8C11.4258 22.3617 11.5109 21.8922 11.5001 21.42C11.4564 19.5063 9.84263 18 7.92763 18ZM7.95638 23H7.00013V20H8.00013C8.20993 19.999 8.4176 20.0421 8.60973 20.1263C8.80186 20.2106 8.97418 20.3343 9.11554 20.4893C9.2569 20.6443 9.36417 20.8273 9.43042 21.0264C9.49666 21.2254 9.52041 21.4362 9.50013 21.645C9.45649 22.022 9.27439 22.3694 8.98915 22.6197C8.70392 22.8701 8.33587 23.0056 7.95638 23ZM19.4764 24.5387C19.4374 24.9212 19.3142 25.2903 19.1155 25.6195C18.9169 25.9487 18.6478 26.2297 18.3276 26.4425C17.6789 26.875 16.8751 27 16.1414 27C15.503 26.996 14.8676 26.912 14.2501 26.75C14.1222 26.716 14.0022 26.657 13.8972 26.5763C13.7922 26.4957 13.7043 26.395 13.6386 26.28C13.5728 26.1651 13.5306 26.0383 13.5142 25.9069C13.4979 25.7755 13.5078 25.6422 13.5434 25.5147C13.5789 25.3871 13.6395 25.2679 13.7215 25.164C13.8035 25.0601 13.9054 24.9734 14.0211 24.9092C14.1369 24.8449 14.2642 24.8043 14.3958 24.7896C14.5274 24.7749 14.6606 24.7865 14.7876 24.8237C15.3351 24.9737 16.6564 25.1612 17.2314 24.7787C17.3414 24.705 17.4601 24.5888 17.4989 24.2875C17.5426 23.9538 17.4101 23.775 15.9014 23.3388C14.7326 23.0013 12.7764 22.435 13.0264 20.45C13.0654 20.0751 13.1864 19.7133 13.3808 19.3904C13.5752 19.0674 13.8383 18.7912 14.1514 18.5812C15.6314 17.5812 17.9901 18.1675 18.2551 18.2362C18.5117 18.3037 18.731 18.4703 18.8647 18.6995C18.9985 18.9286 19.0357 19.2015 18.9683 19.4581C18.9008 19.7147 18.7342 19.934 18.505 20.0677C18.2759 20.2015 18.003 20.2387 17.7464 20.1712C17.1851 20.025 15.8426 19.8512 15.2676 20.2412C15.1923 20.2921 15.1302 20.3603 15.0867 20.4401C15.0432 20.52 15.0195 20.6091 15.0176 20.7C15.0026 20.8125 15.0001 20.8363 15.1564 20.9375C15.4451 21.1238 15.9626 21.2725 16.4626 21.4175C17.6864 21.7712 19.7564 22.375 19.4764 24.5387Z" fill="white"/>
<path d="M67.0613 9.93875L60.0613 2.93875C59.9218 2.7995 59.7564 2.68908 59.5743 2.6138C59.3922 2.53851 59.197 2.49985 59 2.5H47C46.337 2.5 45.7011 2.76339 45.2322 3.23223C44.7634 3.70107 44.5 4.33696 44.5 5V13.5C44.5 13.8978 44.658 14.2794 44.9393 14.5607C45.2206 14.842 45.6022 15 46 15C46.3978 15 46.7794 14.842 47.0607 14.5607C47.342 14.2794 47.5 13.8978 47.5 13.5V5.5H57V11.5C57 11.8978 57.158 12.2794 57.4393 12.5607C57.7206 12.842 58.1022 13 58.5 13H64.5V26.5H63.5C63.1022 26.5 62.7206 26.658 62.4393 26.9393C62.158 27.2206 62 27.6022 62 28C62 28.3978 62.158 28.7794 62.4393 29.0607C62.7206 29.342 63.1022 29.5 63.5 29.5H65C65.663 29.5 66.2989 29.2366 66.7678 28.7678C67.2366 28.2989 67.5 27.663 67.5 27V11C67.5002 10.803 67.4615 10.6078 67.3862 10.4257C67.3109 10.2436 67.2005 10.0782 67.0613 9.93875ZM60 7.125L62.875 10H60V7.125ZM48 17.5H46C45.6022 17.5 45.2206 17.658 44.9393 17.9393C44.658 18.2206 44.5 18.6022 44.5 19V26C44.5 26.3978 44.658 26.7794 44.9393 27.0607C45.2206 27.342 45.6022 27.5 46 27.5C46.3978 27.5 46.7794 27.342 47.0607 27.0607C47.342 26.7794 47.5 26.3978 47.5 26V25.5H48C48.1524 25.4995 48.3047 25.4907 48.4563 25.4737L49.2063 26.7563C49.4162 27.0785 49.742 27.3079 50.1163 27.3968C50.4905 27.4857 50.8846 27.4275 51.2171 27.2341C51.5497 27.0407 51.7952 26.727 51.903 26.3577C52.0107 25.9884 51.9725 25.5919 51.7963 25.25L51.0913 24.0425C51.5734 23.4569 51.8791 22.7463 51.9727 21.9936C52.0663 21.2408 51.9439 20.477 51.6199 19.7912C51.2958 19.1054 50.7835 18.5258 50.1425 18.1201C49.5016 17.7145 48.7585 17.4994 48 17.5ZM47.5 20.5H48C48.2652 20.5 48.5196 20.6054 48.7071 20.7929C48.8946 20.9804 49 21.2348 49 21.5C49 21.7652 48.8946 22.0196 48.7071 22.2071C48.5196 22.3946 48.2652 22.5 48 22.5H47.5V20.5ZM60.4725 24.6025C60.425 25.0565 60.2777 25.4943 60.041 25.8846C59.8044 26.2749 59.4843 26.608 59.1038 26.86C58.3538 27.36 57.445 27.5037 56.6375 27.5037C55.9522 27.4993 55.2703 27.4064 54.6088 27.2275C54.2255 27.1204 53.9005 26.8655 53.7052 26.5188C53.51 26.1721 53.4604 25.762 53.5675 25.3787C53.6746 24.9955 53.9295 24.6705 54.2762 24.4752C54.6229 24.28 55.033 24.2304 55.4163 24.3375C56.2675 24.57 57.2913 24.5387 57.465 24.345C57.4781 24.3169 57.487 24.287 57.4912 24.2563C57.2487 24.1025 56.6375 23.9263 56.2563 23.8162C55.5825 23.6213 54.8813 23.4187 54.2875 23.0325C53.335 22.4175 52.8863 21.4762 53.0238 20.3825C53.0704 19.9374 53.2143 19.508 53.4452 19.1246C53.6761 18.7412 53.9884 18.4132 54.36 18.1637C55.1175 17.6525 56.1312 17.435 57.3725 17.5163C57.8793 17.5495 58.3821 17.6277 58.875 17.75C59.2554 17.855 59.5792 18.1056 59.7761 18.4477C59.9729 18.7897 60.0271 19.1956 59.9268 19.5772C59.8265 19.9589 59.5798 20.2857 59.2401 20.4868C58.9005 20.6878 58.4954 20.7469 58.1125 20.6513C57.3175 20.4475 56.41 20.4625 56.1038 20.61C56.4275 20.7351 56.7575 20.8432 57.0925 20.9338C57.7775 21.1313 58.5525 21.355 59.1925 21.7862C60.1662 22.4437 60.625 23.4438 60.4725 24.6025Z" fill="white"/>
</g>
<defs>
<clipPath id="clip0_27_7126">
<rect width="72" height="32" rx="5" fill="white"/>
</clipPath>
</defs>
</svg>
