<svg width="72" height="32" viewBox="0 0 72 32" fill="none" xmlns="http://www.w3.org/2000/svg">
<g clip-path="url(#clip0_27_7136)">
<path d="M26.707 10.2925L19.707 3.2925C19.614 3.19967 19.5037 3.12605 19.3823 3.07586C19.2609 3.02568 19.1308 2.9999 18.9995 3H6.99948C6.46905 3 5.96034 3.21071 5.58527 3.58579C5.21019 3.96086 4.99948 4.46957 4.99948 5V14.5C4.99948 14.6326 5.05216 14.7598 5.14593 14.8536C5.2397 14.9473 5.36687 15 5.49948 15H26.4995C26.6321 15 26.7593 14.9473 26.853 14.8536C26.9468 14.7598 26.9995 14.6326 26.9995 14.5V11C26.9996 10.8686 26.9738 10.7385 26.9236 10.6172C26.8734 10.4958 26.7998 10.3854 26.707 10.2925ZM18.9995 11V5.5L24.4995 11H18.9995ZM10.977 24.5387C10.938 24.9212 10.8148 25.2903 10.6162 25.6195C10.4175 25.9487 10.1484 26.2297 9.82823 26.4425C9.17948 26.875 8.37448 27 7.64198 27C7.00319 26.996 6.36741 26.912 5.74948 26.75C5.49708 26.6761 5.28397 26.5057 5.15629 26.2758C5.02862 26.0458 4.99666 25.7749 5.06735 25.5215C5.13804 25.2682 5.30568 25.0529 5.53395 24.9223C5.76223 24.7917 6.03277 24.7563 6.28698 24.8237C6.83448 24.9737 8.15573 25.1612 8.73073 24.7787C8.84073 24.705 8.95948 24.5888 8.99823 24.2875C9.04198 23.9538 8.90948 23.775 7.40073 23.3388C6.23198 23.0013 4.27573 22.435 4.52573 20.45C4.56464 20.075 4.6856 19.7132 4.88003 19.3903C5.07445 19.0673 5.33758 18.7911 5.65073 18.5812C7.13073 17.5812 9.49073 18.1675 9.75448 18.2362C10.0111 18.3037 10.2304 18.4703 10.3641 18.6995C10.4978 18.9286 10.5351 19.2015 10.4676 19.4581C10.4001 19.7147 10.2335 19.934 10.0044 20.0677C9.77522 20.2015 9.50233 20.2387 9.24573 20.1712C8.68573 20.025 7.34198 19.8512 6.76698 20.2412C6.69161 20.2921 6.62956 20.3603 6.58605 20.4401C6.54254 20.52 6.51886 20.6091 6.51698 20.7C6.50323 20.8125 6.49948 20.8363 6.65698 20.9375C6.94573 21.1238 7.46198 21.2725 7.96323 21.4175C9.18698 21.7712 11.257 22.375 10.977 24.5387ZM18.942 19.3363L16.4545 26.3013C16.3946 26.4791 16.2872 26.6373 16.144 26.7586C16.0009 26.88 15.8273 26.96 15.642 26.99C15.4137 27.0227 15.181 26.9755 14.9835 26.8564C14.786 26.7373 14.6358 26.5535 14.5582 26.3363L12.0732 19.375C11.9801 19.1268 11.9867 18.8521 12.0915 18.6086C12.1964 18.3651 12.3914 18.1717 12.6357 18.0688C12.7604 18.02 12.8936 17.9967 13.0274 18.0003C13.1612 18.004 13.2929 18.0344 13.4147 18.0899C13.5365 18.1454 13.646 18.2248 13.7365 18.3234C13.8271 18.4219 13.897 18.5377 13.942 18.6637L15.4995 23.0263L17.057 18.6637C17.1462 18.4139 17.3309 18.2098 17.5706 18.0962C17.8103 17.9827 18.0853 17.9689 18.3351 18.0581C18.5849 18.1473 18.7891 18.3321 18.9026 18.5718C19.0162 18.8115 19.0299 19.0864 18.9407 19.3363H18.942ZM26.9995 23V25.1087C26.9994 25.3687 26.8981 25.6185 26.717 25.805C26.3692 26.1787 25.9488 26.4774 25.4815 26.6829C25.0142 26.8883 24.5099 26.9963 23.9995 27C21.7945 27 19.9995 24.9813 19.9995 22.5C19.9995 20.0187 21.7945 18 23.9995 18C24.7148 18.0022 25.4138 18.2133 26.0107 18.6075C26.2274 18.7429 26.3859 18.9541 26.4552 19.2C26.5245 19.446 26.4998 19.7089 26.3857 19.9375C26.32 20.0613 26.2289 20.1699 26.1185 20.2563C26.008 20.3427 25.8807 20.4048 25.7447 20.4388C25.6086 20.4727 25.467 20.4777 25.3289 20.4533C25.1909 20.429 25.0595 20.3759 24.9432 20.2975C24.6662 20.1046 24.337 20.0008 23.9995 20C22.897 20 21.9995 21.125 21.9995 22.5C21.9995 23.875 22.897 25 23.9995 25C24.3606 24.998 24.7115 24.8792 24.9995 24.6612V24C24.8624 24.0003 24.7267 23.9724 24.6009 23.9181C24.475 23.8637 24.3617 23.7841 24.2679 23.6841C24.1741 23.5841 24.1019 23.4659 24.0557 23.3368C24.0095 23.2077 23.9904 23.0705 23.9995 22.9338C24.0219 22.6765 24.1408 22.4372 24.3323 22.264C24.5238 22.0908 24.7738 21.9965 25.032 22H25.9995C26.2647 22 26.5191 22.1054 26.7066 22.2929C26.8941 22.4804 26.9995 22.7348 26.9995 23Z" fill="white"/>
<path d="M45.9997 15C46.3975 15 46.7791 14.842 47.0604 14.5607C47.3417 14.2794 47.4997 13.8978 47.4997 13.5V5.5H56.9997V11.5C56.9997 11.8978 57.1578 12.2794 57.4391 12.5607C57.7204 12.842 58.1019 13 58.4997 13H64.4997V13.5C64.4997 13.8978 64.6578 14.2794 64.9391 14.5607C65.2204 14.842 65.6019 15 65.9997 15C66.3975 15 66.7791 14.842 67.0604 14.5607C67.3417 14.2794 67.4997 13.8978 67.4997 13.5V11C67.4997 10.6025 67.3419 10.2212 67.061 9.94L60.061 2.94C59.9217 2.80052 59.7562 2.68987 59.5741 2.61437C59.392 2.53887 59.1968 2.50001 58.9997 2.5H46.9997C46.3367 2.5 45.7008 2.76339 45.2319 3.23223C44.7631 3.70107 44.4997 4.33696 44.4997 5V13.5C44.4997 13.8978 44.6578 14.2794 44.9391 14.5607C45.2204 14.842 45.6019 15 45.9997 15ZM62.8747 10H59.9997V7.125L62.8747 10ZM50.9722 24.6C50.9241 25.0526 50.7765 25.489 50.5401 25.8779C50.3037 26.2669 49.9843 26.5988 49.6047 26.85C48.8547 27.35 47.946 27.4937 47.1372 27.4937C46.4519 27.4893 45.77 27.3964 45.1085 27.2175C44.9156 27.1674 44.7346 27.0793 44.5761 26.9585C44.4176 26.8377 44.2847 26.6864 44.1854 26.5137C44.086 26.3409 44.022 26.1501 43.9972 25.9523C43.9724 25.7545 43.9873 25.5538 44.0409 25.3619C44.0946 25.1699 44.186 24.9906 44.3097 24.8343C44.4335 24.6781 44.5871 24.5481 44.7617 24.4519C44.9363 24.3557 45.1282 24.2953 45.3264 24.2741C45.5246 24.253 45.725 24.2716 45.916 24.3288C46.7685 24.56 47.791 24.53 47.9647 24.3363C47.9779 24.3081 47.9867 24.2782 47.991 24.2475C47.7485 24.0938 47.1385 23.9175 46.756 23.8062C46.0822 23.6112 45.381 23.41 44.7872 23.0238C43.8347 22.4088 43.386 21.4675 43.5247 20.375C43.571 19.9298 43.7146 19.5001 43.9453 19.1165C44.176 18.7329 44.4881 18.4046 44.8597 18.155C45.6185 17.6438 46.631 17.4275 47.8722 17.5088C48.3792 17.5447 48.882 17.6255 49.3747 17.75C49.7552 17.855 50.0789 18.1056 50.2758 18.4477C50.4726 18.7897 50.5268 19.1956 50.4265 19.5772C50.3262 19.9589 50.0795 20.2857 49.7399 20.4868C49.4003 20.6878 48.9951 20.7469 48.6122 20.6513C47.8185 20.4475 46.911 20.4625 46.6035 20.61C46.9276 20.7351 47.258 20.8432 47.5935 20.9338C48.2772 21.1313 49.0522 21.355 49.6935 21.7862C50.666 22.4412 51.1247 23.4412 50.9722 24.6ZM59.4122 19.5L56.9122 26.5C56.8081 26.7913 56.6165 27.0432 56.3637 27.2214C56.1108 27.3996 55.809 27.4952 55.4997 27.4952C55.1904 27.4952 54.8886 27.3996 54.6358 27.2214C54.3829 27.0432 54.1913 26.7913 54.0872 26.5L51.5872 19.5C51.5107 19.3121 51.4731 19.1107 51.4767 18.9079C51.4803 18.7051 51.525 18.5051 51.6081 18.3201C51.6911 18.135 51.8109 17.9687 51.9601 17.8313C52.1092 17.6938 52.2847 17.5881 52.476 17.5204C52.6672 17.4527 52.8701 17.4245 53.0726 17.4375C53.275 17.4505 53.4727 17.5044 53.6537 17.5959C53.8347 17.6875 53.9952 17.8148 54.1256 17.9702C54.256 18.1256 54.3535 18.3058 54.4122 18.5L55.4997 21.5375L56.5872 18.5C56.646 18.3058 56.7435 18.1256 56.8738 17.9702C57.0042 17.8148 57.1648 17.6875 57.3458 17.5959C57.5268 17.5044 57.7245 17.4505 57.9269 17.4375C58.1293 17.4245 58.3323 17.4527 58.5235 17.5204C58.7147 17.5881 58.8902 17.6938 59.0394 17.8313C59.1885 17.9687 59.3083 18.135 59.3914 18.3201C59.4744 18.5051 59.5191 18.7051 59.5227 18.9079C59.5263 19.1107 59.4887 19.3121 59.4122 19.5ZM67.9997 23.5V25.1087C67.9998 25.4953 67.8507 25.867 67.5835 26.1462C67.1888 26.5701 66.7117 26.9088 66.1814 27.1416C65.6511 27.3744 65.0788 27.4964 64.4997 27.5C62.0185 27.5 59.9997 25.2575 59.9997 22.5C59.9997 19.7425 62.0185 17.5 64.4997 17.5C65.3342 17.5024 66.1489 17.755 66.8385 18.225C67.0066 18.333 67.1514 18.4735 67.2645 18.6383C67.3776 18.803 67.4566 18.9887 67.4969 19.1844C67.5372 19.3802 67.538 19.582 67.4992 19.778C67.4604 19.974 67.3829 20.1603 67.2711 20.326C67.1594 20.4916 67.0156 20.6333 66.8484 20.7426C66.6811 20.8519 66.4937 20.9267 66.2971 20.9626C66.1005 20.9985 65.8988 20.9947 65.7037 20.9516C65.5086 20.9084 65.3241 20.8267 65.161 20.7113C64.9669 20.5758 64.7364 20.5021 64.4997 20.5C63.6872 20.5 62.9997 21.4163 62.9997 22.5C62.9997 23.5837 63.6872 24.5 64.4997 24.5C64.6142 24.4998 64.728 24.4821 64.8372 24.4475C64.658 24.2276 64.5449 23.9614 64.5109 23.6798C64.4769 23.3982 64.5234 23.1127 64.6451 22.8564C64.7668 22.6002 64.9587 22.3837 65.1985 22.2322C65.4382 22.0806 65.7161 22.0001 65.9997 22H66.4997C66.8975 22 67.2791 22.158 67.5604 22.4393C67.8417 22.7206 67.9997 23.1022 67.9997 23.5Z" fill="white"/>
</g>
<defs>
<clipPath id="clip0_27_7136">
<rect width="72" height="32" rx="5" fill="white"/>
</clipPath>
</defs>
</svg>
