<svg width="72" height="32" viewBox="0 0 72 32" fill="none" xmlns="http://www.w3.org/2000/svg">
<g clip-path="url(#clip0_27_7001)">
<path d="M19 22.5C18.999 23.382 18.7678 24.2485 18.3294 25.0138C17.8909 25.7791 17.2604 26.4168 16.5 26.8638C16.2723 26.9771 16.01 26.9995 15.7664 26.9262C15.5228 26.853 15.3163 26.6897 15.1888 26.4696C15.0614 26.2494 15.0227 25.989 15.0805 25.7413C15.1383 25.4936 15.2883 25.2772 15.5 25.1362C15.9585 24.8656 16.3384 24.4802 16.6024 24.0178C16.8663 23.5555 17.0052 23.0324 17.0052 22.5C17.0052 21.9676 16.8663 21.4445 16.6024 20.9822C16.3384 20.5198 15.9585 20.1344 15.5 19.8638C15.2883 19.7228 15.1383 19.5064 15.0805 19.2587C15.0227 19.011 15.0614 18.7506 15.1888 18.5304C15.3163 18.3103 15.5228 18.147 15.7664 18.0738C16.01 18.0005 16.2723 18.0229 16.5 18.1362C17.2604 18.5832 17.8909 19.2209 18.3294 19.9862C18.7678 20.7515 18.999 21.618 19 22.5ZM12.3825 16.0763C12.1998 16.0005 11.9987 15.9805 11.8047 16.019C11.6107 16.0575 11.4324 16.1527 11.2925 16.2925L8.58625 19H6C5.73478 19 5.48043 19.1054 5.29289 19.2929C5.10536 19.4804 5 19.7348 5 20V25C5 25.2652 5.10536 25.5196 5.29289 25.7071C5.48043 25.8946 5.73478 26 6 26H8.58625L11.2925 28.7075C11.4324 28.8475 11.6106 28.9429 11.8047 28.9815C11.9988 29.0202 12.2 29.0004 12.3828 28.9246C12.5656 28.8489 12.7218 28.7206 12.8317 28.556C12.9416 28.3914 13.0002 28.1979 13 28V17C13 16.8022 12.9413 16.6089 12.8314 16.4445C12.7214 16.28 12.5652 16.1519 12.3825 16.0763ZM27 11V27C27 27.5304 26.7893 28.0391 26.4142 28.4142C26.0391 28.7893 25.5304 29 25 29H21C20.7348 29 20.4804 28.8946 20.2929 28.7071C20.1054 28.5196 20 28.2652 20 28C20 27.7348 20.1054 27.4804 20.2929 27.2929C20.4804 27.1054 20.7348 27 21 27H25V12H19C18.7348 12 18.4804 11.8946 18.2929 11.7071C18.1054 11.5196 18 11.2652 18 11V5H7V15C7 15.2652 6.89464 15.5196 6.70711 15.7071C6.51957 15.8946 6.26522 16 6 16C5.73478 16 5.48043 15.8946 5.29289 15.7071C5.10536 15.5196 5 15.2652 5 15V5C5 4.46957 5.21071 3.96086 5.58579 3.58579C5.96086 3.21071 6.46957 3 7 3H19C19.1314 2.9999 19.2615 3.02568 19.3829 3.07586C19.5042 3.12605 19.6146 3.19967 19.7075 3.2925L26.7075 10.2925C26.8003 10.3854 26.8739 10.4958 26.9241 10.6172C26.9743 10.7385 27.0001 10.8686 27 11ZM20 10H23.5863L20 6.41375V10Z" fill="white"/>
<path d="M52.0737 15.6138C51.7996 15.5001 51.498 15.4704 51.2069 15.5282C50.9159 15.5861 50.6486 15.7289 50.4388 15.9388L47.875 18.5H45.5C45.1022 18.5 44.7206 18.658 44.4393 18.9393C44.158 19.2206 44 19.6022 44 20V25C44 25.3978 44.158 25.7794 44.4393 26.0607C44.7206 26.342 45.1022 26.5 45.5 26.5H47.875L50.435 29.06C50.6445 29.2712 50.9121 29.4154 51.2037 29.4742C51.4954 29.5329 51.7979 29.5036 52.0729 29.39C52.3479 29.2764 52.5828 29.0835 52.7479 28.836C52.913 28.5885 53.0007 28.2975 53 28V17C53.0001 16.7032 52.9121 16.4131 52.7472 16.1663C52.5823 15.9196 52.348 15.7273 52.0737 15.6138ZM50 24.375L49.5612 23.935C49.2791 23.6551 48.8974 23.4987 48.5 23.5H47V21.5H48.5C48.697 21.5002 48.8922 21.4615 49.0743 21.3862C49.2564 21.3109 49.4218 21.2005 49.5612 21.0613L50 20.625V24.375ZM60 22.5C59.9993 23.4689 59.7458 24.4208 59.2647 25.2617C58.7835 26.1027 58.0912 26.8035 57.2563 27.295C57.0858 27.406 56.8946 27.4812 56.6943 27.5161C56.4939 27.5509 56.2885 27.5446 56.0906 27.4976C55.8928 27.4506 55.7065 27.3638 55.5432 27.2425C55.3799 27.1213 55.243 26.9681 55.1408 26.7923C55.0385 26.6165 54.9731 26.4217 54.9485 26.2198C54.9238 26.018 54.9405 25.8132 54.9975 25.6179C55.0545 25.4227 55.1506 25.2411 55.2799 25.0841C55.4093 24.9272 55.5692 24.7982 55.75 24.705C56.1326 24.478 56.4496 24.1554 56.6698 23.7688C56.89 23.3822 57.0058 22.9449 57.0058 22.5C57.0058 22.0551 56.89 21.6178 56.6698 21.2312C56.4496 20.8446 56.1326 20.522 55.75 20.295C55.5754 20.1981 55.4219 20.0672 55.2985 19.9101C55.1751 19.7531 55.0844 19.573 55.0316 19.3803C54.9787 19.1877 54.9649 18.9865 54.9909 18.7885C55.0168 18.5905 55.0821 18.3996 55.1828 18.2271C55.2835 18.0547 55.4177 17.9041 55.5774 17.7841C55.7371 17.6642 55.9191 17.5774 56.1129 17.5287C56.3066 17.4801 56.508 17.4706 56.7055 17.5009C56.9029 17.5312 57.0923 17.6006 57.2625 17.705C58.0963 18.1973 58.7873 18.8985 59.2674 19.7393C59.7474 20.5802 59.9999 21.5317 60 22.5ZM67.0613 9.93875L60.0613 2.93875C59.9218 2.7995 59.7564 2.68908 59.5743 2.6138C59.3922 2.53851 59.197 2.49985 59 2.5H47C46.337 2.5 45.7011 2.76339 45.2322 3.23223C44.7634 3.70107 44.5 4.33696 44.5 5V14C44.5 14.3978 44.658 14.7794 44.9393 15.0607C45.2206 15.342 45.6022 15.5 46 15.5C46.3978 15.5 46.7794 15.342 47.0607 15.0607C47.342 14.7794 47.5 14.3978 47.5 14V5.5H57V11.5C57 11.8978 57.158 12.2794 57.4393 12.5607C57.7206 12.842 58.1022 13 58.5 13H64.5V26.5H62.5C62.1022 26.5 61.7206 26.658 61.4393 26.9393C61.158 27.2206 61 27.6022 61 28C61 28.3978 61.158 28.7794 61.4393 29.0607C61.7206 29.342 62.1022 29.5 62.5 29.5H65C65.663 29.5 66.2989 29.2366 66.7678 28.7678C67.2366 28.2989 67.5 27.663 67.5 27V11C67.5002 10.803 67.4615 10.6078 67.3862 10.4257C67.3109 10.2436 67.2005 10.0782 67.0613 9.93875ZM60 7.125L62.875 10H60V7.125Z" fill="white"/>
</g>
<defs>
<clipPath id="clip0_27_7001">
<rect width="72" height="32" rx="5" fill="white"/>
</clipPath>
</defs>
</svg>
