<svg width="72" height="32" viewBox="0 0 72 32" fill="none" xmlns="http://www.w3.org/2000/svg">
<g clip-path="url(#clip0_27_7156)">
<path d="M19.289 19.615L17.229 22.5L19.2952 25.3925C19.4467 25.5991 19.5151 25.8551 19.4868 26.1097C19.4586 26.3643 19.3358 26.5991 19.1427 26.7675C19.0371 26.8561 18.9143 26.9218 18.7821 26.9607C18.6498 26.9996 18.5109 27.0106 18.3742 26.9933C18.2374 26.9759 18.1058 26.9304 17.9874 26.8597C17.8691 26.7891 17.7666 26.6947 17.6865 26.5825L16.0002 24.22L14.314 26.5812C14.234 26.6933 14.1316 26.7877 14.0135 26.8583C13.8953 26.929 13.7638 26.9745 13.6272 26.992C13.4906 27.0095 13.3518 26.9986 13.2196 26.96C13.0875 26.9213 12.9647 26.8558 12.859 26.7675C12.6655 26.5994 12.5423 26.3647 12.5138 26.11C12.4853 25.8553 12.5537 25.5992 12.7052 25.3925L14.7715 22.5L12.7115 19.615C12.5543 19.4018 12.4855 19.1361 12.5195 18.8733C12.5535 18.6106 12.6877 18.3712 12.894 18.205C13.0005 18.1238 13.1222 18.0648 13.252 18.0315C13.3817 17.9982 13.5168 17.9914 13.6492 18.0113C13.7817 18.0312 13.9088 18.0776 14.023 18.1476C14.1372 18.2176 14.2361 18.3098 14.314 18.4188L16.0002 20.78L17.6865 18.4188C17.7644 18.3098 17.8633 18.2176 17.9775 18.1476C18.0917 18.0776 18.2188 18.0312 18.3512 18.0113C18.4837 17.9914 18.6188 17.9982 18.7485 18.0315C18.8783 18.0648 19 18.1238 19.1065 18.205C19.3128 18.3712 19.447 18.6106 19.481 18.8733C19.515 19.1361 19.4462 19.4018 19.289 19.615ZM10.5002 18H5.53399C5.27558 17.9962 5.0253 18.0904 4.83351 18.2636C4.64172 18.4368 4.52265 18.6763 4.50024 18.9338C4.49116 19.0705 4.5103 19.2077 4.55647 19.3368C4.60264 19.4659 4.67486 19.5841 4.76864 19.6841C4.86242 19.7841 4.97576 19.8637 5.10162 19.9181C5.22747 19.9724 5.36316 20.0003 5.50024 20H7.00024V25.9662C6.99613 26.2247 7.09021 26.4752 7.26351 26.667C7.4368 26.8589 7.67641 26.9779 7.93399 27C8.07078 27.0091 8.20797 26.9899 8.33705 26.9438C8.46613 26.8976 8.58434 26.8254 8.68433 26.7316C8.78432 26.6378 8.86397 26.5245 8.91831 26.3986C8.97266 26.2728 9.00055 26.1371 9.00024 26V20H10.4665C10.7249 20.0038 10.9752 19.9096 11.167 19.7364C11.3588 19.5632 11.4778 19.3237 11.5002 19.0662C11.5093 18.9295 11.4902 18.7923 11.444 18.6632C11.3978 18.5341 11.3256 18.4159 11.2318 18.3159C11.1381 18.2159 11.0247 18.1363 10.8989 18.0819C10.773 18.0276 10.6373 17.9997 10.5002 18ZM26.5002 18H21.534C21.276 17.9968 21.0264 18.0913 20.8351 18.2645C20.6438 18.4376 20.5251 18.6767 20.5027 18.9338C20.4937 19.0705 20.5128 19.2077 20.559 19.3368C20.6051 19.4659 20.6774 19.5841 20.7711 19.6841C20.8649 19.7841 20.9783 19.8637 21.1041 19.9181C21.23 19.9724 21.3657 20.0003 21.5027 20H23.0027V25.9662C22.9993 26.2243 23.0936 26.4741 23.2669 26.6655C23.4401 26.8568 23.6793 26.9754 23.9365 26.9975C24.0733 27.0066 24.2105 26.9874 24.3396 26.9413C24.4686 26.8951 24.5868 26.8229 24.6868 26.7291C24.7868 26.6353 24.8665 26.522 24.9208 26.3961C24.9752 26.2703 25.003 26.1346 25.0027 25.9975V20H26.469C26.727 20.0032 26.9766 19.9087 27.1679 19.7355C27.3592 19.5624 27.4779 19.3233 27.5002 19.0662C27.5093 18.9295 27.4902 18.7923 27.444 18.6632C27.3978 18.5341 27.3256 18.4159 27.2318 18.3159C27.1381 18.2159 27.0247 18.1363 26.8989 18.0819C26.773 18.0276 26.6373 17.9997 26.5002 18ZM5.00024 14.5V5C5.00024 4.46957 5.21096 3.96086 5.58603 3.58579C5.9611 3.21071 6.46981 3 7.00024 3H19.0002C19.1316 2.9999 19.2617 3.02568 19.3831 3.07586C19.5045 3.12605 19.6148 3.19967 19.7077 3.2925L26.7077 10.2925C26.8006 10.3854 26.8742 10.4958 26.9244 10.6172C26.9746 10.7385 27.0003 10.8686 27.0002 11V14.5C27.0002 14.6326 26.9476 14.7598 26.8538 14.8536C26.76 14.9473 26.6329 15 26.5002 15H5.50024C5.36764 15 5.24046 14.9473 5.14669 14.8536C5.05292 14.7598 5.00024 14.6326 5.00024 14.5ZM19.0002 11H24.5002L19.0002 5.5V11Z" fill="white"/>
<path d="M46 15C46.3978 15 46.7794 14.842 47.0607 14.5607C47.342 14.2794 47.5 13.8978 47.5 13.5V5.5H57V11.5C57 11.8978 57.158 12.2794 57.4393 12.5607C57.7206 12.842 58.1022 13 58.5 13H64.5V13.5C64.5 13.8978 64.658 14.2794 64.9393 14.5607C65.2206 14.842 65.6022 15 66 15C66.3978 15 66.7794 14.842 67.0607 14.5607C67.342 14.2794 67.5 13.8978 67.5 13.5V11C67.5002 10.803 67.4615 10.6078 67.3862 10.4257C67.3109 10.2436 67.2005 10.0782 67.0613 9.93875L60.0613 2.93875C59.9218 2.7995 59.7564 2.68908 59.5743 2.6138C59.3922 2.53851 59.197 2.49985 59 2.5H47C46.337 2.5 45.7011 2.76339 45.2322 3.23223C44.7634 3.70107 44.5 4.33696 44.5 5V13.5C44.5 13.8978 44.658 14.2794 44.9393 14.5607C45.2206 14.842 45.6022 15 46 15ZM62.875 10H60V7.125L62.875 10ZM59.7162 19.875L57.8412 22.5L59.7162 25.125C59.8348 25.2848 59.9204 25.4665 59.9681 25.6597C60.0157 25.8528 60.0245 26.0535 59.9939 26.2501C59.9632 26.4467 59.8937 26.6352 59.7895 26.8047C59.6853 26.9741 59.5485 27.1212 59.3869 27.2373C59.2253 27.3533 59.0422 27.4361 58.8484 27.4807C58.6545 27.5254 58.4537 27.531 58.2576 27.4973C58.0615 27.4636 57.8741 27.3912 57.7063 27.2844C57.5384 27.1775 57.3935 27.0384 57.28 26.875L56 25.0812L54.72 26.875C54.6051 27.0352 54.4598 27.1712 54.2923 27.2753C54.1248 27.3793 53.9385 27.4494 53.744 27.4814C53.5494 27.5134 53.3505 27.5068 53.1585 27.462C52.9665 27.4171 52.7852 27.3349 52.625 27.22C52.4648 27.1051 52.3288 26.9598 52.2247 26.7923C52.1207 26.6248 52.0506 26.4385 52.0186 26.244C51.9866 26.0494 51.9932 25.8505 52.038 25.6585C52.0829 25.4665 52.1651 25.2852 52.28 25.125L54.155 22.5L52.28 19.875C52.1651 19.7148 52.0829 19.5335 52.038 19.3415C51.9932 19.1495 51.9866 18.9506 52.0186 18.756C52.0506 18.5615 52.1207 18.3752 52.2247 18.2077C52.3288 18.0402 52.4648 17.8949 52.625 17.78C52.7852 17.6651 52.9665 17.5829 53.1585 17.538C53.3505 17.4932 53.5494 17.4866 53.744 17.5186C53.9385 17.5506 54.1248 17.6207 54.2923 17.7247C54.4598 17.8288 54.6051 17.9648 54.72 18.125L56 19.9188L57.28 18.125C57.3949 17.9648 57.5402 17.8288 57.7077 17.7247C57.8752 17.6207 58.0615 17.5506 58.256 17.5186C58.4506 17.4866 58.6495 17.4932 58.8415 17.538C59.0335 17.5829 59.2148 17.6651 59.375 17.78C59.5352 17.8949 59.6712 18.0402 59.7753 18.2077C59.8793 18.3752 59.9494 18.5615 59.9814 18.756C60.0134 18.9506 60.0068 19.1495 59.962 19.3415C59.9171 19.5335 59.8349 19.7148 59.72 19.875H59.7162ZM51.5 19C51.5 19.3978 51.342 19.7794 51.0607 20.0607C50.7794 20.342 50.3978 20.5 50 20.5H49V26C49 26.3978 48.842 26.7794 48.5607 27.0607C48.2794 27.342 47.8978 27.5 47.5 27.5C47.1022 27.5 46.7206 27.342 46.4393 27.0607C46.158 26.7794 46 26.3978 46 26V20.5H45C44.6022 20.5 44.2206 20.342 43.9393 20.0607C43.658 19.7794 43.5 19.3978 43.5 19C43.5 18.6022 43.658 18.2206 43.9393 17.9393C44.2206 17.658 44.6022 17.5 45 17.5H50C50.3978 17.5 50.7794 17.658 51.0607 17.9393C51.342 18.2206 51.5 18.6022 51.5 19ZM68.5 19C68.5 19.3978 68.342 19.7794 68.0607 20.0607C67.7794 20.342 67.3978 20.5 67 20.5H66V26C66 26.3978 65.842 26.7794 65.5607 27.0607C65.2794 27.342 64.8978 27.5 64.5 27.5C64.1022 27.5 63.7206 27.342 63.4393 27.0607C63.158 26.7794 63 26.3978 63 26V20.5H62C61.6022 20.5 61.2206 20.342 60.9393 20.0607C60.658 19.7794 60.5 19.3978 60.5 19C60.5 18.6022 60.658 18.2206 60.9393 17.9393C61.2206 17.658 61.6022 17.5 62 17.5H67C67.3978 17.5 67.7794 17.658 68.0607 17.9393C68.342 18.2206 68.5 18.6022 68.5 19Z" fill="white"/>
</g>
<defs>
<clipPath id="clip0_27_7156">
<rect width="72" height="32" rx="5" fill="white"/>
</clipPath>
</defs>
</svg>
