<svg width="72" height="32" viewBox="0 0 72 32" fill="none" xmlns="http://www.w3.org/2000/svg">
<g clip-path="url(#clip0_27_7121)">
<path d="M26.7076 10.2925L19.7076 3.2925C19.6147 3.19967 19.5044 3.12605 19.383 3.07586C19.2616 3.02568 19.1315 2.9999 19.0001 3H7.00013C6.4697 3 5.96099 3.21071 5.58592 3.58579C5.21084 3.96086 5.00013 4.46957 5.00013 5V14.5C5.00013 14.6326 5.05281 14.7598 5.14658 14.8536C5.24034 14.9473 5.36752 15 5.50013 15H21.5001C21.6327 15 21.7599 15.0527 21.8537 15.1464C21.9475 15.2402 22.0001 15.3674 22.0001 15.5V28.5C22.0001 28.6326 22.0528 28.7598 22.1466 28.8536C22.2403 28.9473 22.3675 29 22.5001 29H25.0001C25.5306 29 26.0393 28.7893 26.4143 28.4142C26.7894 28.0391 27.0001 27.5304 27.0001 27V11C27.0002 10.8686 26.9745 10.7385 26.9243 10.6172C26.8741 10.4958 26.8005 10.3854 26.7076 10.2925ZM19.0001 11V5.5L24.5001 11H19.0001ZM8.00013 18H6.00013C5.73491 18 5.48056 18.1054 5.29302 18.2929C5.10549 18.4804 5.00013 18.7348 5.00013 19V25.9662C4.99602 26.2247 5.0901 26.4752 5.26339 26.667C5.43669 26.8589 5.6763 26.9779 5.93388 27C6.07067 27.0091 6.20786 26.9899 6.33694 26.9438C6.46602 26.8976 6.58422 26.8254 6.68422 26.7316C6.78421 26.6378 6.86385 26.5245 6.9182 26.3986C6.97254 26.2728 7.00043 26.1371 7.00013 26V25H7.92513C9.83013 25 11.4426 23.51 11.4989 21.6063C11.5131 21.1379 11.4331 20.6714 11.2637 20.2345C11.0943 19.7976 10.8388 19.3992 10.5125 19.0629C10.1862 18.7265 9.79571 18.4591 9.36414 18.2766C8.93257 18.094 8.46873 18 8.00013 18ZM7.95638 23H7.00013V20H8.00013C8.20993 19.999 8.4176 20.0421 8.60973 20.1263C8.80186 20.2106 8.97418 20.3343 9.11554 20.4893C9.2569 20.6443 9.36417 20.8273 9.43042 21.0264C9.49666 21.2254 9.52041 21.4362 9.50013 21.645C9.45649 22.022 9.27439 22.3694 8.98915 22.6197C8.70392 22.8701 8.33587 23.0056 7.95638 23ZM19.3314 19.565L17.0001 23.2862V25.9662C17.0036 26.2243 16.9092 26.4741 16.736 26.6655C16.5628 26.8568 16.3235 26.9754 16.0664 26.9975C15.9296 27.0066 15.7924 26.9874 15.6633 26.9413C15.5342 26.8951 15.416 26.8229 15.316 26.7291C15.2161 26.6353 15.1364 26.522 15.0821 26.3961C15.0277 26.2703 14.9998 26.1346 15.0001 25.9975V23.2862L12.6739 19.565C12.5301 19.3424 12.478 19.0728 12.5283 18.8126C12.5786 18.5524 12.7275 18.3218 12.9439 18.1688C13.0552 18.0943 13.1803 18.043 13.3118 18.0179C13.4434 17.9927 13.5786 17.9942 13.7095 18.0223C13.8404 18.0504 13.9644 18.1045 14.074 18.1814C14.1836 18.2583 14.2767 18.3565 14.3476 18.47L16.0001 21.1138L17.6526 18.47C17.7236 18.3565 17.8167 18.2583 17.9263 18.1814C18.0359 18.1045 18.1598 18.0504 18.2908 18.0223C18.4217 17.9942 18.5569 17.9927 18.6884 18.0179C18.8199 18.043 18.9451 18.0943 19.0564 18.1688C19.2728 18.3218 19.4216 18.5524 19.472 18.8126C19.5223 19.0728 19.4701 19.3424 19.3264 19.565H19.3314Z" fill="white"/>
<path d="M67.0613 9.94L60.0613 2.94C59.9219 2.80052 59.7565 2.68987 59.5744 2.61437C59.3923 2.53887 59.1971 2.50001 59 2.5H47C46.337 2.5 45.7011 2.76339 45.2322 3.23223C44.7634 3.70107 44.5 4.33696 44.5 5V13.5C44.5 13.8978 44.658 14.2794 44.9393 14.5607C45.2206 14.842 45.6022 15 46 15C46.3978 15 46.7794 14.842 47.0607 14.5607C47.342 14.2794 47.5 13.8978 47.5 13.5V5.5H57V11.5C57 11.8978 57.158 12.2794 57.4393 12.5607C57.7206 12.842 58.1022 13 58.5 13H64.5V26.5H61.5C61.1022 26.5 60.7206 26.658 60.4393 26.9393C60.158 27.2206 60 27.6022 60 28C60 28.3978 60.158 28.7794 60.4393 29.0607C60.7206 29.342 61.1022 29.5 61.5 29.5H65C65.663 29.5 66.2989 29.2366 66.7678 28.7678C67.2366 28.2989 67.5 27.663 67.5 27V11C67.5 10.6025 67.3422 10.2212 67.0613 9.94ZM60 7.125L62.875 10H60V7.125ZM48 17.5H46C45.6022 17.5 45.2206 17.658 44.9393 17.9393C44.658 18.2206 44.5 18.6022 44.5 19V26C44.5 26.3978 44.658 26.7794 44.9393 27.0607C45.2206 27.342 45.6022 27.5 46 27.5C46.3978 27.5 46.7794 27.342 47.0607 27.0607C47.342 26.7794 47.5 26.3978 47.5 26V25.5H48C49.0609 25.5 50.0783 25.0786 50.8284 24.3284C51.5786 23.5783 52 22.5609 52 21.5C52 20.4391 51.5786 19.4217 50.8284 18.6716C50.0783 17.9214 49.0609 17.5 48 17.5ZM48 22.5H47.5V20.5H48C48.2652 20.5 48.5196 20.6054 48.7071 20.7929C48.8946 20.9804 49 21.2348 49 21.5C49 21.7652 48.8946 22.0196 48.7071 22.2071C48.5196 22.3946 48.2652 22.5 48 22.5ZM58 23.43V26C58 26.3978 57.842 26.7794 57.5607 27.0607C57.2794 27.342 56.8978 27.5 56.5 27.5C56.1022 27.5 55.7206 27.342 55.4393 27.0607C55.158 26.7794 55 26.3978 55 26V23.43L52.7275 19.795C52.5167 19.4575 52.4485 19.0501 52.5381 18.6624C52.6276 18.2746 52.8675 17.9383 53.205 17.7275C53.5425 17.5167 53.9499 17.4485 54.3376 17.5381C54.7254 17.6276 55.0617 17.8675 55.2725 18.205L56.5 20.17L57.7275 18.205C57.9383 17.8675 58.2746 17.6276 58.6624 17.5381C59.0501 17.4485 59.4575 17.5167 59.795 17.7275C60.1325 17.9383 60.3724 18.2746 60.4619 18.6624C60.5515 19.0501 60.4833 19.4575 60.2725 19.795L58 23.43Z" fill="white"/>
</g>
<defs>
<clipPath id="clip0_27_7121">
<rect width="72" height="32" rx="5" fill="white"/>
</clipPath>
</defs>
</svg>
