<svg width="72" height="32" viewBox="0 0 72 32" fill="none" xmlns="http://www.w3.org/2000/svg">
<g clip-path="url(#clip0_27_7041)">
<path d="M10 28C10 28.2652 9.89464 28.5196 9.70711 28.7071C9.51957 28.8946 9.26522 29 9 29H7C6.46957 29 5.96086 28.7893 5.58579 28.4142C5.21071 28.0391 5 27.5304 5 27V23C5 22.7348 5.10536 22.4804 5.29289 22.2929C5.48043 22.1054 5.73478 22 6 22C6.26522 22 6.51957 22.1054 6.70711 22.2929C6.89464 22.4804 7 22.7348 7 23V27H9C9.26522 27 9.51957 27.1054 9.70711 27.2929C9.89464 27.4804 10 27.7348 10 28ZM26.7075 10.2925L19.7075 3.2925C19.6146 3.19967 19.5042 3.12605 19.3829 3.07586C19.2615 3.02568 19.1314 2.9999 19 3H15C14.7348 3 14.4804 3.10536 14.2929 3.29289C14.1054 3.48043 14 3.73478 14 4C14 4.26522 14.1054 4.51957 14.2929 4.70711C14.4804 4.89464 14.7348 5 15 5H18V11C18 11.2652 18.1054 11.5196 18.2929 11.7071C18.4804 11.8946 18.7348 12 19 12H25V17C25 17.2652 25.1054 17.5196 25.2929 17.7071C25.4804 17.8946 25.7348 18 26 18C26.2652 18 26.5196 17.8946 26.7071 17.7071C26.8946 17.5196 27 17.2652 27 17V11C27.0001 10.8686 26.9743 10.7385 26.9241 10.6172C26.8739 10.4958 26.8003 10.3854 26.7075 10.2925ZM10 3H7C6.46957 3 5.96086 3.21071 5.58579 3.58579C5.21071 3.96086 5 4.46957 5 5V8C5 8.26522 5.10536 8.51957 5.29289 8.70711C5.48043 8.89464 5.73478 9 6 9C6.26522 9 6.51957 8.89464 6.70711 8.70711C6.89464 8.51957 7 8.26522 7 8V5H10C10.2652 5 10.5196 4.89464 10.7071 4.70711C10.8946 4.51957 11 4.26522 11 4C11 3.73478 10.8946 3.48043 10.7071 3.29289C10.5196 3.10536 10.2652 3 10 3ZM26 21C25.7348 21 25.4804 21.1054 25.2929 21.2929C25.1054 21.4804 25 21.7348 25 22V27H24C23.7348 27 23.4804 27.1054 23.2929 27.2929C23.1054 27.4804 23 27.7348 23 28C23 28.2652 23.1054 28.5196 23.2929 28.7071C23.4804 28.8946 23.7348 29 24 29H25C25.5304 29 26.0391 28.7893 26.4142 28.4142C26.7893 28.0391 27 27.5304 27 27V22C27 21.7348 26.8946 21.4804 26.7071 21.2929C26.5196 21.1054 26.2652 21 26 21ZM6 19C6.26522 19 6.51957 18.8946 6.70711 18.7071C6.89464 18.5196 7 18.2652 7 18V13C7 12.7348 6.89464 12.4804 6.70711 12.2929C6.51957 12.1054 6.26522 12 6 12C5.73478 12 5.48043 12.1054 5.29289 12.2929C5.10536 12.4804 5 12.7348 5 13V18C5 18.2652 5.10536 18.5196 5.29289 18.7071C5.48043 18.8946 5.73478 19 6 19ZM19 27H14C13.7348 27 13.4804 27.1054 13.2929 27.2929C13.1054 27.4804 13 27.7348 13 28C13 28.2652 13.1054 28.5196 13.2929 28.7071C13.4804 28.8946 13.7348 29 14 29H19C19.2652 29 19.5196 28.8946 19.7071 28.7071C19.8946 28.5196 20 28.2652 20 28C20 27.7348 19.8946 27.4804 19.7071 27.2929C19.5196 27.1054 19.2652 27 19 27Z" fill="white"/>
<path d="M50.5 28C50.5 28.3978 50.342 28.7794 50.0607 29.0607C49.7794 29.342 49.3978 29.5 49 29.5H47C46.337 29.5 45.7011 29.2366 45.2322 28.7678C44.7634 28.2989 44.5 27.663 44.5 27V23C44.5 22.6022 44.658 22.2206 44.9393 21.9393C45.2206 21.658 45.6022 21.5 46 21.5C46.3978 21.5 46.7794 21.658 47.0607 21.9393C47.342 22.2206 47.5 22.6022 47.5 23V26.5H49C49.3978 26.5 49.7794 26.658 50.0607 26.9393C50.342 27.2206 50.5 27.6022 50.5 28ZM67.5 11V17C67.5 17.3978 67.342 17.7794 67.0607 18.0607C66.7794 18.342 66.3978 18.5 66 18.5C65.6022 18.5 65.2206 18.342 64.9393 18.0607C64.658 17.7794 64.5 17.3978 64.5 17V13H58.5C58.1022 13 57.7206 12.842 57.4393 12.5607C57.158 12.2794 57 11.8978 57 11.5V5.5H55C54.6022 5.5 54.2206 5.34197 53.9393 5.06066C53.658 4.77936 53.5 4.39783 53.5 4C53.5 3.60218 53.658 3.22064 53.9393 2.93934C54.2206 2.65804 54.6022 2.5 55 2.5H59C59.197 2.49985 59.3922 2.53851 59.5743 2.6138C59.7564 2.68908 59.9218 2.7995 60.0613 2.93875L67.0613 9.93875C67.2005 10.0782 67.3109 10.2436 67.3862 10.4257C67.4615 10.6078 67.5002 10.803 67.5 11ZM60 10H62.875L60 7.125V10ZM50 2.5H47C46.337 2.5 45.7011 2.76339 45.2322 3.23223C44.7634 3.70107 44.5 4.33696 44.5 5V8C44.5 8.39783 44.658 8.77936 44.9393 9.06066C45.2206 9.34197 45.6022 9.5 46 9.5C46.3978 9.5 46.7794 9.34197 47.0607 9.06066C47.342 8.77936 47.5 8.39783 47.5 8V5.5H50C50.3978 5.5 50.7794 5.34197 51.0607 5.06066C51.342 4.77936 51.5 4.39783 51.5 4C51.5 3.60218 51.342 3.22064 51.0607 2.93934C50.7794 2.65804 50.3978 2.5 50 2.5ZM66 20.5C65.6022 20.5 65.2206 20.658 64.9393 20.9393C64.658 21.2206 64.5 21.6022 64.5 22V26.5H64C63.6022 26.5 63.2206 26.658 62.9393 26.9393C62.658 27.2206 62.5 27.6022 62.5 28C62.5 28.3978 62.658 28.7794 62.9393 29.0607C63.2206 29.342 63.6022 29.5 64 29.5H65C65.663 29.5 66.2989 29.2366 66.7678 28.7678C67.2366 28.2989 67.5 27.663 67.5 27V22C67.5 21.6022 67.342 21.2206 67.0607 20.9393C66.7794 20.658 66.3978 20.5 66 20.5ZM46 19.5C46.3978 19.5 46.7794 19.342 47.0607 19.0607C47.342 18.7794 47.5 18.3978 47.5 18V13C47.5 12.6022 47.342 12.2206 47.0607 11.9393C46.7794 11.658 46.3978 11.5 46 11.5C45.6022 11.5 45.2206 11.658 44.9393 11.9393C44.658 12.2206 44.5 12.6022 44.5 13V18C44.5 18.3978 44.658 18.7794 44.9393 19.0607C45.2206 19.342 45.6022 19.5 46 19.5ZM59 26.5H54C53.6022 26.5 53.2206 26.658 52.9393 26.9393C52.658 27.2206 52.5 27.6022 52.5 28C52.5 28.3978 52.658 28.7794 52.9393 29.0607C53.2206 29.342 53.6022 29.5 54 29.5H59C59.3978 29.5 59.7794 29.342 60.0607 29.0607C60.342 28.7794 60.5 28.3978 60.5 28C60.5 27.6022 60.342 27.2206 60.0607 26.9393C59.7794 26.658 59.3978 26.5 59 26.5Z" fill="white"/>
</g>
<defs>
<clipPath id="clip0_27_7041">
<rect width="72" height="32" rx="5" fill="white"/>
</clipPath>
</defs>
</svg>
