<svg width="72" height="32" viewBox="0 0 72 32" fill="none" xmlns="http://www.w3.org/2000/svg">
<g clip-path="url(#clip0_27_7036)">
<path d="M26.7075 10.2925L19.7075 3.2925C19.6146 3.19967 19.5042 3.12605 19.3829 3.07586C19.2615 3.02568 19.1314 2.9999 19 3H7C6.46957 3 5.96086 3.21071 5.58579 3.58579C5.21071 3.96086 5 4.46957 5 5V14.5C5 14.6326 5.05268 14.7598 5.14645 14.8536C5.24021 14.9473 5.36739 15 5.5 15H26.5C26.6326 15 26.7598 14.9473 26.8536 14.8536C26.9473 14.7598 27 14.6326 27 14.5V11C27.0001 10.8686 26.9743 10.7385 26.9241 10.6172C26.8739 10.4958 26.8003 10.3854 26.7075 10.2925ZM19 11V5.5L24.5 11H19ZM6 22.5C6 23.875 6.8975 25 8 25C8.23654 24.9949 8.46966 24.9425 8.68563 24.8459C8.9016 24.7493 9.09604 24.6104 9.2575 24.4375C9.43096 24.2544 9.66574 24.1417 9.91705 24.1207C10.1684 24.0997 10.4186 24.172 10.62 24.3237C10.7293 24.4101 10.8194 24.5184 10.8845 24.6416C10.9495 24.7648 10.9881 24.9002 10.9977 25.0392C11.0074 25.1782 10.9879 25.3177 10.9405 25.4487C10.8931 25.5797 10.8188 25.6994 10.7225 25.8C10.3743 26.1748 9.95323 26.4746 9.48508 26.6809C9.01694 26.8873 8.51159 26.9959 8 27C5.795 27 4 24.9813 4 22.5C4 20.0187 5.795 18 8 18C8.49973 18.0037 8.99369 18.1072 9.45285 18.3044C9.91201 18.5017 10.3271 18.7888 10.6737 19.1488C10.8587 19.3271 10.9705 19.5679 10.9874 19.8242C11.0043 20.0806 10.925 20.334 10.765 20.535C10.6746 20.6424 10.5626 20.7296 10.4363 20.7908C10.31 20.8521 10.1722 20.8861 10.0318 20.8905C9.89153 20.895 9.75184 20.8699 9.62187 20.8168C9.49191 20.7638 9.37457 20.6839 9.2775 20.5825C9.11551 20.4035 8.91862 20.2594 8.69893 20.1593C8.47924 20.0591 8.2414 20.0049 8 20C6.8975 20 6 21.125 6 22.5ZM18.9762 24.5387C18.9373 24.9212 18.814 25.2903 18.6154 25.6195C18.4168 25.9487 18.1477 26.2297 17.8275 26.4425C17.1787 26.875 16.375 27 15.6412 27C15.0029 26.996 14.3675 26.912 13.75 26.75C13.622 26.716 13.5021 26.657 13.3971 26.5763C13.2921 26.4957 13.2042 26.395 13.1384 26.28C13.0727 26.1651 13.0304 26.0383 13.0141 25.9069C12.9977 25.7755 13.0076 25.6422 13.0432 25.5147C13.0788 25.3871 13.1394 25.2679 13.2214 25.164C13.3034 25.0601 13.4052 24.9734 13.521 24.9092C13.6367 24.8449 13.7641 24.8043 13.8957 24.7896C14.0273 24.7749 14.1604 24.7865 14.2875 24.8237C14.835 24.9737 16.1563 25.1612 16.7313 24.7787C16.8413 24.705 16.96 24.5888 16.9988 24.2875C17.0425 23.9538 16.91 23.775 15.4012 23.3388C14.2325 23.0013 12.2762 22.435 12.5262 20.45C12.5652 20.0751 12.6862 19.7133 12.8807 19.3904C13.0751 19.0674 13.3382 18.7912 13.6512 18.5812C15.1313 17.5812 17.49 18.1675 17.755 18.2362C18.0116 18.3037 18.2309 18.4703 18.3646 18.6995C18.4984 18.9286 18.5356 19.2015 18.4681 19.4581C18.4007 19.7147 18.234 19.934 18.0049 20.0677C17.7757 20.2015 17.5028 20.2387 17.2463 20.1712C16.685 20.025 15.3425 19.8512 14.7675 20.2412C14.6921 20.2921 14.6301 20.3603 14.5866 20.4401C14.5431 20.52 14.5194 20.6091 14.5175 20.7C14.5025 20.8125 14.5 20.8363 14.6562 20.9375C14.945 21.1238 15.4625 21.2725 15.9625 21.4175C17.1862 21.7712 19.2562 22.375 18.9762 24.5387ZM26.9275 19.375L24.4412 26.335C24.3717 26.5289 24.2439 26.6966 24.0755 26.8151C23.907 26.9337 23.706 26.9973 23.5 26.9973C23.294 26.9973 23.093 26.9337 22.9245 26.8151C22.7561 26.6966 22.6283 26.5289 22.5588 26.335L20.0725 19.375C19.9794 19.1268 19.9859 18.8521 20.0908 18.6086C20.1956 18.3651 20.3907 18.1717 20.635 18.0688C20.7597 18.02 20.8928 17.9967 21.0266 18.0003C21.1605 18.004 21.2922 18.0344 21.414 18.0899C21.5358 18.1454 21.6452 18.2248 21.7358 18.3234C21.8264 18.4219 21.8962 18.5377 21.9412 18.6637L23.5 23.0263L25.0588 18.6637C25.1038 18.5377 25.1736 18.4219 25.2642 18.3234C25.3548 18.2248 25.4642 18.1454 25.586 18.0899C25.7078 18.0344 25.8395 18.004 25.9734 18.0003C26.1072 17.9967 26.2403 18.02 26.365 18.0688C26.6089 18.1722 26.8035 18.3657 26.9083 18.609C27.0131 18.8524 27.02 19.1267 26.9275 19.375Z" fill="white"/>
<path d="M46 22.5C46 23.5837 46.6862 24.5 47.5 24.5C47.6738 24.4943 47.8446 24.4534 48.0021 24.3797C48.1596 24.306 48.3005 24.201 48.4163 24.0713C48.6914 23.7838 49.0695 23.6175 49.4673 23.6088C49.8651 23.6001 50.2501 23.7498 50.5375 24.025C50.8249 24.3002 50.9913 24.6782 51 25.076C51.0086 25.4739 50.8589 25.8588 50.5837 26.1462C50.1891 26.5701 49.712 26.9088 49.1817 27.1416C48.6514 27.3744 48.0791 27.4964 47.5 27.5C45.0187 27.5 43 25.25 43 22.5C43 19.75 45.0187 17.5 47.5 17.5C48.0791 17.5036 48.6514 17.6256 49.1817 17.8584C49.712 18.0912 50.1891 18.4299 50.5837 18.8538C50.8589 19.1412 51.0086 19.5261 51 19.924C50.9913 20.3218 50.8249 20.6998 50.5375 20.975C50.2501 21.2502 49.8651 21.3999 49.4673 21.3912C49.0695 21.3825 48.6914 21.2162 48.4163 20.9287C48.3005 20.799 48.1596 20.694 48.0021 20.6203C47.8446 20.5466 47.6738 20.5057 47.5 20.5C46.6862 20.5 46 21.4137 46 22.5ZM58.1887 21.7862C57.5475 21.355 56.7725 21.1313 56.0888 20.9338C55.7537 20.8432 55.4237 20.7351 55.1 20.61C55.4062 20.4625 56.3137 20.4475 57.1087 20.6513C57.4935 20.7529 57.9028 20.6975 58.2467 20.4973C58.5906 20.2971 58.8409 19.9685 58.9425 19.5837C59.0441 19.199 58.9887 18.7897 58.7885 18.4458C58.5883 18.1019 58.2597 17.8516 57.875 17.75C57.3828 17.6287 56.8808 17.5509 56.375 17.5175C55.1337 17.435 54.125 17.6525 53.3625 18.1637C52.9907 18.4133 52.6784 18.7415 52.4475 19.1251C52.2166 19.5088 52.0728 19.9384 52.0262 20.3838C51.8888 21.4763 52.3363 22.4175 53.29 23.0325C53.8875 23.4187 54.585 23.62 55.2587 23.815C55.6337 23.9263 56.2512 24.1025 56.4937 24.2563C56.4902 24.2873 56.4809 24.3174 56.4662 24.345C56.2962 24.5387 55.27 24.5688 54.4175 24.3375C54.0379 24.2412 53.6356 24.2972 53.2968 24.4936C52.9579 24.6899 52.7092 25.011 52.6039 25.3882C52.4986 25.7655 52.5451 26.1689 52.7333 26.5124C52.9215 26.8558 53.2366 27.112 53.6112 27.2262C54.2717 27.4041 54.9523 27.4961 55.6362 27.5C56.445 27.5 57.3538 27.3538 58.1038 26.8563C58.4835 26.6051 58.8031 26.2733 59.0397 25.8843C59.2763 25.4954 59.4241 25.0589 59.4725 24.6063C59.625 23.4412 59.165 22.4412 58.1887 21.7838V21.7862ZM67 17.585C66.625 17.453 66.213 17.4752 65.8544 17.6467C65.4958 17.8183 65.22 18.1252 65.0875 18.5L64 21.5375L62.9125 18.5C62.8538 18.3058 62.7562 18.1256 62.6259 17.9702C62.4955 17.8148 62.3349 17.6875 62.1539 17.5959C61.973 17.5044 61.7753 17.4505 61.5728 17.4375C61.3704 17.4245 61.1675 17.4527 60.9762 17.5204C60.785 17.5881 60.6095 17.6938 60.4603 17.8313C60.3112 17.9687 60.1914 18.135 60.1084 18.3201C60.0253 18.5051 59.9806 18.7051 59.977 18.9079C59.9734 19.1107 60.011 19.3121 60.0875 19.5L62.5875 26.5C62.6916 26.7913 62.8832 27.0432 63.1361 27.2214C63.3889 27.3996 63.6907 27.4952 64 27.4952C64.3093 27.4952 64.6111 27.3996 64.8639 27.2214C65.1168 27.0432 65.3084 26.7913 65.4125 26.5L67.9125 19.5C68.0454 19.125 68.024 18.7127 67.8529 18.3535C67.6817 17.9944 67.3749 17.7179 67 17.585ZM44.5 13.5V5C44.5 4.33696 44.7634 3.70107 45.2322 3.23223C45.7011 2.76339 46.337 2.5 47 2.5H59C59.197 2.49985 59.3922 2.53851 59.5743 2.6138C59.7564 2.68908 59.9218 2.7995 60.0613 2.93875L67.0613 9.93875C67.2005 10.0782 67.3109 10.2436 67.3862 10.4257C67.4615 10.6078 67.5002 10.803 67.5 11V13.5C67.5 13.8978 67.342 14.2794 67.0607 14.5607C66.7794 14.842 66.3978 15 66 15C65.6022 15 65.2206 14.842 64.9393 14.5607C64.658 14.2794 64.5 13.8978 64.5 13.5V13H58.5C58.1022 13 57.7206 12.842 57.4393 12.5607C57.158 12.2794 57 11.8978 57 11.5V5.5H47.5V13.5C47.5 13.8978 47.342 14.2794 47.0607 14.5607C46.7794 14.842 46.3978 15 46 15C45.6022 15 45.2206 14.842 44.9393 14.5607C44.658 14.2794 44.5 13.8978 44.5 13.5ZM60 10H62.875L60 7.125V10Z" fill="white"/>
</g>
<defs>
<clipPath id="clip0_27_7036">
<rect width="72" height="32" rx="5" fill="white"/>
</clipPath>
</defs>
</svg>
