<svg width="72" height="32" viewBox="0 0 72 32" fill="none" xmlns="http://www.w3.org/2000/svg">
<g clip-path="url(#clip0_27_6991)">
<path d="M26.7075 10.2925L19.7075 3.2925C19.6146 3.19967 19.5042 3.12605 19.3829 3.07586C19.2615 3.02568 19.1314 2.9999 19 3H7C6.46957 3 5.96086 3.21071 5.58579 3.58579C5.21071 3.96086 5 4.46957 5 5V27C5 27.5304 5.21071 28.0391 5.58579 28.4142C5.96086 28.7893 6.46957 29 7 29H25C25.5304 29 26.0391 28.7893 26.4142 28.4142C26.7893 28.0391 27 27.5304 27 27V11C27.0001 10.8686 26.9743 10.7385 26.9241 10.6172C26.8739 10.4958 26.8003 10.3854 26.7075 10.2925ZM19.7075 20.7075L16.7075 23.7075C16.6146 23.8005 16.5043 23.8742 16.3829 23.9246C16.2615 23.9749 16.1314 24.0008 16 24.0008C15.8686 24.0008 15.7385 23.9749 15.6171 23.9246C15.4957 23.8742 15.3854 23.8005 15.2925 23.7075L12.2925 20.7075C12.1049 20.5199 11.9994 20.2654 11.9994 20C11.9994 19.7346 12.1049 19.4801 12.2925 19.2925C12.4801 19.1049 12.7346 18.9994 13 18.9994C13.2654 18.9994 13.5199 19.1049 13.7075 19.2925L15 20.5863V15C15 14.7348 15.1054 14.4804 15.2929 14.2929C15.4804 14.1054 15.7348 14 16 14C16.2652 14 16.5196 14.1054 16.7071 14.2929C16.8946 14.4804 17 14.7348 17 15V20.5863L18.2925 19.2925C18.4801 19.1049 18.7346 18.9994 19 18.9994C19.2654 18.9994 19.5199 19.1049 19.7075 19.2925C19.8951 19.4801 20.0006 19.7346 20.0006 20C20.0006 20.2654 19.8951 20.5199 19.7075 20.7075ZM19 11V5.5L24.5 11H19Z" fill="white"/>
<path d="M67.0613 9.94L60.0613 2.94C59.9219 2.80052 59.7565 2.68987 59.5744 2.61437C59.3923 2.53887 59.1971 2.50001 59 2.5H47C46.337 2.5 45.7011 2.76339 45.2322 3.23223C44.7634 3.70107 44.5 4.33696 44.5 5V27C44.5 27.663 44.7634 28.2989 45.2322 28.7678C45.7011 29.2366 46.337 29.5 47 29.5H65C65.663 29.5 66.2989 29.2366 66.7678 28.7678C67.2366 28.2989 67.5 27.663 67.5 27V11C67.5 10.6025 67.3422 10.2212 67.0613 9.94ZM60 7.125L62.875 10H60V7.125ZM47.5 26.5V5.5H57V11.5C57 11.8978 57.158 12.2794 57.4393 12.5607C57.7206 12.842 58.1022 13 58.5 13H64.5V26.5H47.5ZM60.0613 18.9387C60.2011 19.0781 60.312 19.2437 60.3878 19.426C60.4635 19.6083 60.5024 19.8038 60.5024 20.0012C60.5024 20.1987 60.4635 20.3941 60.3878 20.5765C60.312 20.7588 60.2011 20.9244 60.0613 21.0637L57.0613 24.0637C56.9219 24.2036 56.7563 24.3145 56.574 24.3903C56.3917 24.466 56.1962 24.5049 55.9987 24.5049C55.8013 24.5049 55.6058 24.466 55.4235 24.3903C55.2412 24.3145 55.0756 24.2036 54.9362 24.0637L51.9362 21.0637C51.6545 20.782 51.4961 20.3998 51.4961 20.0012C51.4961 19.6027 51.6545 19.2205 51.9362 18.9387C52.218 18.657 52.6002 18.4986 52.9987 18.4986C53.3973 18.4986 53.7795 18.657 54.0612 18.9387L54.5 19.375V15.5C54.5 15.1022 54.658 14.7206 54.9393 14.4393C55.2206 14.158 55.6022 14 56 14C56.3978 14 56.7794 14.158 57.0607 14.4393C57.342 14.7206 57.5 15.1022 57.5 15.5V19.375L57.9387 18.935C58.0783 18.7958 58.2439 18.6854 58.4262 18.6103C58.6084 18.5351 58.8037 18.4966 59.0008 18.4969C59.1979 18.4973 59.393 18.5365 59.575 18.6123C59.7569 18.6881 59.9222 18.799 60.0613 18.9387Z" fill="white"/>
</g>
<defs>
<clipPath id="clip0_27_6991">
<rect width="72" height="32" rx="5" fill="white"/>
</clipPath>
</defs>
</svg>
