<svg width="72" height="32" viewBox="0 0 72 32" fill="none" xmlns="http://www.w3.org/2000/svg">
<g clip-path="url(#clip0_27_6996)">
<path d="M26.7075 10.2925L19.7075 3.2925C19.6146 3.19967 19.5042 3.12605 19.3829 3.07586C19.2615 3.02568 19.1314 2.9999 19 3H7C6.46957 3 5.96086 3.21071 5.58579 3.58579C5.21071 3.96086 5 4.46957 5 5V27C5 27.5304 5.21071 28.0391 5.58579 28.4142C5.96086 28.7893 6.46957 29 7 29H25C25.5304 29 26.0391 28.7893 26.4142 28.4142C26.7893 28.0391 27 27.5304 27 27V11C27.0001 10.8686 26.9743 10.7385 26.9241 10.6172C26.8739 10.4958 26.8003 10.3854 26.7075 10.2925ZM19.7075 18.7075C19.6146 18.8005 19.5043 18.8742 19.3829 18.9246C19.2615 18.9749 19.1314 19.0008 19 19.0008C18.8686 19.0008 18.7385 18.9749 18.6171 18.9246C18.4957 18.8742 18.3854 18.8005 18.2925 18.7075L17 17.4137V23C17 23.2652 16.8946 23.5196 16.7071 23.7071C16.5196 23.8946 16.2652 24 16 24C15.7348 24 15.4804 23.8946 15.2929 23.7071C15.1054 23.5196 15 23.2652 15 23V17.4137L13.7075 18.7075C13.6146 18.8004 13.5043 18.8741 13.3829 18.9244C13.2615 18.9747 13.1314 19.0006 13 19.0006C12.8686 19.0006 12.7385 18.9747 12.6171 18.9244C12.4957 18.8741 12.3854 18.8004 12.2925 18.7075C12.1996 18.6146 12.1259 18.5043 12.0756 18.3829C12.0253 18.2615 11.9994 18.1314 11.9994 18C11.9994 17.8686 12.0253 17.7385 12.0756 17.6171C12.1259 17.4957 12.1996 17.3854 12.2925 17.2925L15.2925 14.2925C15.3854 14.1995 15.4957 14.1258 15.6171 14.0754C15.7385 14.0251 15.8686 13.9992 16 13.9992C16.1314 13.9992 16.2615 14.0251 16.3829 14.0754C16.5043 14.1258 16.6146 14.1995 16.7075 14.2925L19.7075 17.2925C19.8005 17.3854 19.8742 17.4957 19.9246 17.6171C19.9749 17.7385 20.0008 17.8686 20.0008 18C20.0008 18.1314 19.9749 18.2615 19.9246 18.3829C19.8742 18.5043 19.8005 18.6146 19.7075 18.7075ZM19 11V5.5L24.5 11H19Z" fill="white"/>
<path d="M67.0613 9.94L60.0613 2.94C59.9219 2.80052 59.7565 2.68987 59.5744 2.61437C59.3923 2.53887 59.1971 2.50001 59 2.5H47C46.337 2.5 45.7011 2.76339 45.2322 3.23223C44.7634 3.70107 44.5 4.33696 44.5 5V27C44.5 27.663 44.7634 28.2989 45.2322 28.7678C45.7011 29.2366 46.337 29.5 47 29.5H65C65.663 29.5 66.2989 29.2366 66.7678 28.7678C67.2366 28.2989 67.5 27.663 67.5 27V11C67.5 10.6025 67.3422 10.2212 67.0613 9.94ZM62.875 10H60V7.125L62.875 10ZM47.5 26.5V5.5H57V11.5C57 11.8978 57.158 12.2794 57.4393 12.5607C57.7206 12.842 58.1022 13 58.5 13H64.5V26.5H47.5ZM60.0613 17.4387C60.343 17.7205 60.5014 18.1027 60.5014 18.5012C60.5014 18.8998 60.343 19.282 60.0613 19.5637C59.7795 19.8455 59.3973 20.0039 58.9988 20.0039C58.6002 20.0039 58.218 19.8455 57.9363 19.5637L57.5 19.125V23C57.5 23.3978 57.342 23.7794 57.0607 24.0607C56.7794 24.342 56.3978 24.5 56 24.5C55.6022 24.5 55.2206 24.342 54.9393 24.0607C54.658 23.7794 54.5 23.3978 54.5 23V19.125L54.0612 19.565C53.7795 19.8468 53.3973 20.0051 52.9987 20.0051C52.6002 20.0051 52.218 19.8468 51.9362 19.565C51.6545 19.2832 51.4961 18.901 51.4961 18.5025C51.4961 18.104 51.6545 17.7218 51.9362 17.44L54.9362 14.44C55.0756 14.3002 55.2412 14.1892 55.4235 14.1135C55.6058 14.0378 55.8013 13.9988 55.9987 13.9988C56.1962 13.9988 56.3917 14.0378 56.574 14.1135C56.7563 14.1892 56.9219 14.3002 57.0613 14.44L60.0613 17.4387Z" fill="white"/>
</g>
<defs>
<clipPath id="clip0_27_6996">
<rect width="72" height="32" rx="5" fill="white"/>
</clipPath>
</defs>
</svg>
