<svg width="72" height="32" viewBox="0 0 72 32" fill="none" xmlns="http://www.w3.org/2000/svg">
<g clip-path="url(#clip0_27_7186)">
<path d="M26.7075 8.2925L21.7075 3.2925C21.6146 3.19967 21.5042 3.12605 21.3829 3.07586C21.2615 3.02568 21.1314 2.9999 21 3H11C10.4696 3 9.96086 3.21071 9.58579 3.58579C9.21071 3.96086 9 4.46957 9 5V7H7C6.46957 7 5.96086 7.21071 5.58579 7.58579C5.21071 7.96086 5 8.46957 5 9V27C5 27.5304 5.21071 28.0391 5.58579 28.4142C5.96086 28.7893 6.46957 29 7 29H21C21.5304 29 22.0391 28.7893 22.4142 28.4142C22.7893 28.0391 23 27.5304 23 27V25H25C25.5304 25 26.0391 24.7893 26.4142 24.4142C26.7893 24.0391 27 23.5304 27 23V9C27.0001 8.86864 26.9743 8.73855 26.9241 8.61715C26.8739 8.49576 26.8003 8.38544 26.7075 8.2925ZM17 24H11C10.7348 24 10.4804 23.8946 10.2929 23.7071C10.1054 23.5196 10 23.2652 10 23C10 22.7348 10.1054 22.4804 10.2929 22.2929C10.4804 22.1054 10.7348 22 11 22H17C17.2652 22 17.5196 22.1054 17.7071 22.2929C17.8946 22.4804 18 22.7348 18 23C18 23.2652 17.8946 23.5196 17.7071 23.7071C17.5196 23.8946 17.2652 24 17 24ZM17 20H11C10.7348 20 10.4804 19.8946 10.2929 19.7071C10.1054 19.5196 10 19.2652 10 19C10 18.7348 10.1054 18.4804 10.2929 18.2929C10.4804 18.1054 10.7348 18 11 18H17C17.2652 18 17.5196 18.1054 17.7071 18.2929C17.8946 18.4804 18 18.7348 18 19C18 19.2652 17.8946 19.5196 17.7071 19.7071C17.5196 19.8946 17.2652 20 17 20ZM25 23H23V13C23.0001 12.8686 22.9743 12.7385 22.9241 12.6172C22.8739 12.4958 22.8003 12.3854 22.7075 12.2925L17.7075 7.2925C17.6146 7.19967 17.5042 7.12605 17.3829 7.07586C17.2615 7.02568 17.1314 6.9999 17 7H11V5H20.5863L25 9.41375V23Z" fill="white"/>
<path d="M67.5613 7.43875L62.5613 2.43875C62.4218 2.2995 62.2564 2.18908 62.0743 2.1138C61.8922 2.03851 61.697 1.99985 61.5 2H51.5C50.837 2 50.2011 2.26339 49.7322 2.73223C49.2634 3.20107 49 3.83696 49 4.5V7H47C46.337 7 45.7011 7.26339 45.2322 7.73223C44.7634 8.20107 44.5 8.83696 44.5 9.5V27C44.5 27.663 44.7634 28.2989 45.2322 28.7678C45.7011 29.2366 46.337 29.5 47 29.5H60.5C61.163 29.5 61.7989 29.2366 62.2678 28.7678C62.7366 28.2989 63 27.663 63 27V24.5H65.5C66.163 24.5 66.7989 24.2366 67.2678 23.7678C67.7366 23.2989 68 22.663 68 22V8.5C68.0002 8.30296 67.9615 8.10782 67.8862 7.92573C67.8109 7.74363 67.7005 7.57816 67.5613 7.43875ZM60 26.5H47.5V10H55.875L60 14.125V26.5ZM65 21.5H63V13.5C63.0002 13.303 62.9615 13.1078 62.8862 12.9257C62.8109 12.7436 62.7005 12.5782 62.5613 12.4388L57.5613 7.43875C57.4218 7.2995 57.2564 7.18908 57.0743 7.1138C56.8922 7.03851 56.697 6.99985 56.5 7H52V5H60.875L65 9.125V21.5ZM58 18C58 18.3978 57.842 18.7794 57.5607 19.0607C57.2794 19.342 56.8978 19.5 56.5 19.5H51C50.6022 19.5 50.2206 19.342 49.9393 19.0607C49.658 18.7794 49.5 18.3978 49.5 18C49.5 17.6022 49.658 17.2206 49.9393 16.9393C50.2206 16.658 50.6022 16.5 51 16.5H56.5C56.8978 16.5 57.2794 16.658 57.5607 16.9393C57.842 17.2206 58 17.6022 58 18ZM58 23C58 23.3978 57.842 23.7794 57.5607 24.0607C57.2794 24.342 56.8978 24.5 56.5 24.5H51C50.6022 24.5 50.2206 24.342 49.9393 24.0607C49.658 23.7794 49.5 23.3978 49.5 23C49.5 22.6022 49.658 22.2206 49.9393 21.9393C50.2206 21.658 50.6022 21.5 51 21.5H56.5C56.8978 21.5 57.2794 21.658 57.5607 21.9393C57.842 22.2206 58 22.6022 58 23Z" fill="white"/>
</g>
<defs>
<clipPath id="clip0_27_7186">
<rect width="72" height="32" rx="5" fill="white"/>
</clipPath>
</defs>
</svg>
