<svg width="72" height="32" viewBox="0 0 72 32" fill="none" xmlns="http://www.w3.org/2000/svg">
<g clip-path="url(#clip0_27_7141)">
<path d="M26.7075 10.2925L19.7075 3.2925C19.6146 3.19967 19.5042 3.12605 19.3829 3.07586C19.2615 3.02568 19.1314 2.9999 19 3H7C6.46957 3 5.96086 3.21071 5.58579 3.58579C5.21071 3.96086 5 4.46957 5 5V27C5 27.5304 5.21071 28.0391 5.58579 28.4142C5.96086 28.7893 6.46957 29 7 29H25C25.5304 29 26.0391 28.7893 26.4142 28.4142C26.7893 28.0391 27 27.5304 27 27V11C27.0001 10.8686 26.9743 10.7385 26.9241 10.6172C26.8739 10.4958 26.8003 10.3854 26.7075 10.2925ZM20 22H12C11.7348 22 11.4804 21.8946 11.2929 21.7071C11.1054 21.5196 11 21.2652 11 21C11 20.7348 11.1054 20.4804 11.2929 20.2929C11.4804 20.1054 11.7348 20 12 20H20C20.2652 20 20.5196 20.1054 20.7071 20.2929C20.8946 20.4804 21 20.7348 21 21C21 21.2652 20.8946 21.5196 20.7071 21.7071C20.5196 21.8946 20.2652 22 20 22ZM20 18H12C11.7348 18 11.4804 17.8946 11.2929 17.7071C11.1054 17.5196 11 17.2652 11 17C11 16.7348 11.1054 16.4804 11.2929 16.2929C11.4804 16.1054 11.7348 16 12 16H20C20.2652 16 20.5196 16.1054 20.7071 16.2929C20.8946 16.4804 21 16.7348 21 17C21 17.2652 20.8946 17.5196 20.7071 17.7071C20.5196 17.8946 20.2652 18 20 18ZM19 11V5.5L24.5 11H19Z" fill="white"/>
<path d="M67.0613 9.94L60.0613 2.94C59.9219 2.80052 59.7565 2.68987 59.5744 2.61437C59.3923 2.53887 59.1971 2.50001 59 2.5H47C46.337 2.5 45.7011 2.76339 45.2322 3.23223C44.7634 3.70107 44.5 4.33696 44.5 5V27C44.5 27.663 44.7634 28.2989 45.2322 28.7678C45.7011 29.2366 46.337 29.5 47 29.5H65C65.663 29.5 66.2989 29.2366 66.7678 28.7678C67.2366 28.2989 67.5 27.663 67.5 27V11C67.5 10.6025 67.3422 10.2212 67.0613 9.94ZM60 7.125L62.875 10H60V7.125ZM47.5 26.5V5.5H57V11.5C57 11.8978 57.158 12.2794 57.4393 12.5607C57.7206 12.842 58.1022 13 58.5 13H64.5V26.5H47.5ZM61.5 16.5C61.5 16.8978 61.342 17.2794 61.0607 17.5607C60.7794 17.842 60.3978 18 60 18H52C51.6022 18 51.2206 17.842 50.9393 17.5607C50.658 17.2794 50.5 16.8978 50.5 16.5C50.5 16.1022 50.658 15.7206 50.9393 15.4393C51.2206 15.158 51.6022 15 52 15H60C60.3978 15 60.7794 15.158 61.0607 15.4393C61.342 15.7206 61.5 16.1022 61.5 16.5ZM61.5 21.5C61.5 21.8978 61.342 22.2794 61.0607 22.5607C60.7794 22.842 60.3978 23 60 23H52C51.6022 23 51.2206 22.842 50.9393 22.5607C50.658 22.2794 50.5 21.8978 50.5 21.5C50.5 21.1022 50.658 20.7206 50.9393 20.4393C51.2206 20.158 51.6022 20 52 20H60C60.3978 20 60.7794 20.158 61.0607 20.4393C61.342 20.7206 61.5 21.1022 61.5 21.5Z" fill="white"/>
</g>
<defs>
<clipPath id="clip0_27_7141">
<rect width="72" height="32" rx="5" fill="white"/>
</clipPath>
</defs>
</svg>
