<svg width="72" height="32" viewBox="0 0 72 32" fill="none" xmlns="http://www.w3.org/2000/svg">
<g clip-path="url(#clip0_27_7151)">
<path d="M26.7077 10.2925L19.7077 3.2925C19.6148 3.19967 19.5045 3.12605 19.3831 3.07586C19.2617 3.02568 19.1316 2.9999 19.0002 3H7.00024C6.46981 3 5.9611 3.21071 5.58603 3.58579C5.21096 3.96086 5.00024 4.46957 5.00024 5V14.5C5.00024 14.6326 5.05292 14.7598 5.14669 14.8536C5.24046 14.9473 5.36764 15 5.50024 15H26.5002C26.6329 15 26.76 14.9473 26.8538 14.8536C26.9476 14.7598 27.0002 14.6326 27.0002 14.5V11C27.0003 10.8686 26.9746 10.7385 26.9244 10.6172C26.8742 10.4958 26.8006 10.3854 26.7077 10.2925ZM19.0002 11V5.5L24.5002 11H19.0002ZM26.814 19.5812L24.729 22.5L26.814 25.4188C26.9543 25.6346 27.0059 25.8963 26.9581 26.1494C26.9103 26.4024 26.7668 26.6272 26.5574 26.777C26.3479 26.9268 26.0888 26.9901 25.8339 26.9536C25.579 26.9172 25.348 26.7838 25.189 26.5812L23.5002 24.22L21.814 26.5812C21.7404 26.6945 21.6446 26.7917 21.5324 26.8669C21.4202 26.9421 21.2939 26.9938 21.1612 27.0189C21.0285 27.044 20.892 27.0419 20.7601 27.0128C20.6282 26.9837 20.5036 26.9282 20.3937 26.8496C20.2838 26.771 20.191 26.671 20.1209 26.5555C20.0508 26.4401 20.0047 26.3116 19.9856 26.1779C19.9665 26.0442 19.9746 25.908 20.0096 25.7775C20.0445 25.647 20.1056 25.525 20.189 25.4188L22.2715 22.5L20.1865 19.5812C20.1068 19.4698 20.0508 19.3432 20.0221 19.2093C19.9933 19.0753 19.9924 18.9369 20.0193 18.8026C20.0463 18.6683 20.1005 18.5409 20.1788 18.4285C20.257 18.316 20.3575 18.2208 20.474 18.1488C20.6964 18.0177 20.9602 17.9756 21.2123 18.0307C21.4645 18.0859 21.6866 18.2343 21.834 18.4463L23.5002 20.78L25.1865 18.4188C25.3455 18.2162 25.5765 18.0828 25.8314 18.0464C26.0863 18.0099 26.3454 18.0732 26.5549 18.223C26.7643 18.3728 26.9078 18.5976 26.9556 18.8506C27.0034 19.1037 26.9518 19.3654 26.8115 19.5812H26.814ZM18.4765 24.5387C18.4375 24.9212 18.3143 25.2903 18.1157 25.6195C17.917 25.9487 17.6479 26.2297 17.3277 26.4425C16.679 26.875 15.8752 27 15.1415 27C14.503 26.9969 13.8676 26.9129 13.2502 26.75C13.1223 26.716 13.0023 26.657 12.8973 26.5763C12.7924 26.4957 12.7044 26.395 12.6387 26.28C12.5729 26.1651 12.5307 26.0383 12.5143 25.9069C12.498 25.7755 12.5079 25.6422 12.5435 25.5147C12.5791 25.3871 12.6396 25.2679 12.7216 25.164C12.8036 25.0601 12.9055 24.9734 13.0212 24.9092C13.137 24.8449 13.2643 24.8043 13.3959 24.7896C13.5275 24.7749 13.6607 24.7865 13.7877 24.8237C14.3352 24.975 15.6627 25.1625 16.2315 24.78C16.3415 24.705 16.4602 24.59 16.499 24.2887C16.5415 23.955 16.409 23.7763 14.9015 23.34C13.7327 23.0025 11.7765 22.4363 12.0265 20.45C12.0658 20.0753 12.187 19.7139 12.3814 19.3912C12.5758 19.0685 12.8387 18.7924 13.1515 18.5825C14.6327 17.5825 16.9915 18.1687 17.2565 18.2375C17.5131 18.305 17.7324 18.4716 17.8661 18.7007C17.9999 18.9299 18.0371 19.2028 17.9696 19.4594C17.9022 19.716 17.7355 19.9353 17.5064 20.069C17.2772 20.2027 17.0043 20.24 16.7477 20.1725C16.1865 20.0263 14.844 19.8525 14.269 20.2425C14.1936 20.2933 14.1316 20.3616 14.0881 20.4414C14.0446 20.5212 14.0209 20.6103 14.019 20.7013C14.004 20.8137 14.0015 20.8362 14.1577 20.9387C14.4465 21.125 14.964 21.2738 15.464 21.4188C16.6865 21.7713 18.7502 22.375 18.4765 24.5387ZM11.0002 19.0662C10.9778 19.3237 10.8588 19.5632 10.667 19.7364C10.4752 19.9096 10.2249 20.0038 9.96649 20H8.50024V25.965C8.50438 26.2236 8.41034 26.4742 8.23707 26.6663C8.0638 26.8583 7.82419 26.9776 7.56649 27C7.42971 27.0091 7.29251 26.9899 7.16344 26.9438C7.03436 26.8976 6.91615 26.8254 6.81616 26.7316C6.71617 26.6378 6.63652 26.5245 6.58218 26.3986C6.52783 26.2728 6.49994 26.1371 6.50024 26V20H5.03399C4.77558 20.0038 4.5253 19.9096 4.33351 19.7364C4.14172 19.5632 4.02265 19.3237 4.00024 19.0662C3.99116 18.9295 4.0103 18.7923 4.05647 18.6632C4.10264 18.5341 4.17486 18.4159 4.26864 18.3159C4.36242 18.2159 4.47576 18.1363 4.60162 18.0819C4.72747 18.0276 4.86316 17.9997 5.00024 18H10.0002C10.1373 17.9997 10.273 18.0276 10.3989 18.0819C10.5247 18.1363 10.6381 18.2159 10.7318 18.3159C10.8256 18.4159 10.8978 18.5341 10.944 18.6632C10.9902 18.7923 11.0093 18.9295 11.0002 19.0662Z" fill="white"/>
<path d="M67.72 25.125C67.8349 25.2853 67.9171 25.4667 67.9619 25.6587C68.0068 25.8508 68.0133 26.0498 67.9812 26.2444C67.9491 26.439 67.879 26.6254 67.7749 26.7929C67.6708 26.9604 67.5347 27.1057 67.3744 27.2206C67.2141 27.3355 67.0327 27.4177 66.8407 27.4626C66.6486 27.5074 66.4496 27.5139 66.255 27.4818C66.0604 27.4497 65.874 27.3796 65.7065 27.2755C65.539 27.1714 65.3937 27.0353 65.2787 26.875L64 25.0775L62.72 26.875C62.6051 27.0353 62.4597 27.1714 62.2922 27.2755C62.1247 27.3796 61.9384 27.4497 61.7438 27.4818C61.5492 27.5139 61.3502 27.5074 61.1581 27.4626C60.966 27.4177 60.7847 27.3355 60.6244 27.2206C60.4641 27.1057 60.328 26.9604 60.2239 26.7929C60.1197 26.6254 60.0496 26.439 60.0175 26.2444C59.9854 26.0498 59.992 25.8508 60.0368 25.6587C60.0816 25.4667 60.1638 25.2853 60.2787 25.125L62.1537 22.5L60.2787 19.875C60.0467 19.5513 59.9527 19.1486 60.0175 18.7556C60.0824 18.3626 60.3006 18.0114 60.6244 17.7794C60.9481 17.5473 61.3508 17.4534 61.7438 17.5182C62.1368 17.583 62.4879 17.8013 62.72 18.125L64 19.9175L65.2787 18.125C65.5108 17.8013 65.862 17.583 66.255 17.5182C66.648 17.4534 67.0506 17.5473 67.3744 17.7794C67.6981 18.0114 67.9164 18.3626 67.9812 18.7556C68.046 19.1486 67.9521 19.5513 67.72 19.875L65.845 22.5L67.72 25.125ZM57.6887 21.7838C57.0487 21.3525 56.2725 21.1287 55.5887 20.9312C55.2537 20.8407 54.9237 20.7326 54.6 20.6075C54.9062 20.46 55.8137 20.445 56.6087 20.6488C56.9881 20.7355 57.3863 20.6715 57.7193 20.4702C58.0523 20.2689 58.294 19.9461 58.3935 19.5699C58.4929 19.1937 58.4423 18.7935 58.2522 18.454C58.0622 18.1144 57.7477 17.862 57.375 17.75C56.8828 17.6286 56.3809 17.5508 55.875 17.5175C54.6337 17.435 53.625 17.6525 52.8625 18.1637C52.4907 18.4133 52.1784 18.7415 51.9475 19.1251C51.7166 19.5088 51.5728 19.9384 51.5262 20.3838C51.3888 21.4763 51.8363 22.4175 52.79 23.0325C53.3875 23.4187 54.085 23.62 54.7587 23.815C55.1337 23.9263 55.7512 24.1025 55.9937 24.2563C55.9895 24.287 55.9806 24.3169 55.9675 24.345C55.7962 24.5387 54.77 24.5688 53.9187 24.3375C53.7278 24.2803 53.5274 24.2617 53.3292 24.2829C53.131 24.304 52.939 24.3645 52.7645 24.4606C52.5899 24.5568 52.4362 24.6868 52.3125 24.8431C52.1887 24.9993 52.0974 25.1786 52.0437 25.3706C51.9901 25.5626 51.9752 25.7633 52 25.961C52.0248 26.1588 52.0887 26.3496 52.1881 26.5224C52.2875 26.6952 52.4203 26.8464 52.5788 26.9672C52.7373 27.0881 52.9183 27.1761 53.1112 27.2262C53.7721 27.4041 54.4531 27.4961 55.1375 27.5C55.945 27.5 56.8538 27.3538 57.6038 26.8563C57.9835 26.6051 58.3031 26.2733 58.5397 25.8843C58.7763 25.4954 58.9241 25.0589 58.9725 24.6063C59.125 23.4412 58.6662 22.4412 57.6887 21.7838ZM49.5 17.5H44.5C44.1022 17.5 43.7206 17.658 43.4393 17.9393C43.158 18.2206 43 18.6022 43 19C43 19.3978 43.158 19.7794 43.4393 20.0607C43.7206 20.342 44.1022 20.5 44.5 20.5H45.5V26C45.5 26.3978 45.658 26.7794 45.9393 27.0607C46.2206 27.342 46.6022 27.5 47 27.5C47.3978 27.5 47.7794 27.342 48.0607 27.0607C48.342 26.7794 48.5 26.3978 48.5 26V20.5H49.5C49.8978 20.5 50.2794 20.342 50.5607 20.0607C50.842 19.7794 51 19.3978 51 19C51 18.6022 50.842 18.2206 50.5607 17.9393C50.2794 17.658 49.8978 17.5 49.5 17.5ZM44.5 13.5V5C44.5 4.33696 44.7634 3.70107 45.2322 3.23223C45.7011 2.76339 46.337 2.5 47 2.5H59C59.197 2.49985 59.3922 2.53851 59.5743 2.6138C59.7564 2.68908 59.9218 2.7995 60.0613 2.93875L67.0613 9.93875C67.2005 10.0782 67.3109 10.2436 67.3862 10.4257C67.4615 10.6078 67.5002 10.803 67.5 11V13.5C67.5 13.8978 67.342 14.2794 67.0607 14.5607C66.7794 14.842 66.3978 15 66 15C65.6022 15 65.2206 14.842 64.9393 14.5607C64.658 14.2794 64.5 13.8978 64.5 13.5V13H58.5C58.1022 13 57.7206 12.842 57.4393 12.5607C57.158 12.2794 57 11.8978 57 11.5V5.5H47.5V13.5C47.5 13.8978 47.342 14.2794 47.0607 14.5607C46.7794 14.842 46.3978 15 46 15C45.6022 15 45.2206 14.842 44.9393 14.5607C44.658 14.2794 44.5 13.8978 44.5 13.5ZM60 10H62.875L60 7.125V10Z" fill="white"/>
</g>
<defs>
<clipPath id="clip0_27_7151">
<rect width="72" height="32" rx="5" fill="white"/>
</clipPath>
</defs>
</svg>
