<svg width="72" height="32" viewBox="0 0 72 32" fill="none" xmlns="http://www.w3.org/2000/svg">
<g clip-path="url(#clip0_27_7101)">
<path d="M5.50013 15H26.5001C26.6327 15 26.7599 14.9473 26.8537 14.8536C26.9475 14.7598 27.0001 14.6326 27.0001 14.5V11C27.0002 10.8686 26.9745 10.7385 26.9243 10.6172C26.8741 10.4958 26.8005 10.3854 26.7076 10.2925L19.7076 3.2925C19.6147 3.19967 19.5044 3.12605 19.383 3.07586C19.2616 3.02568 19.1315 2.9999 19.0001 3H7.00013C6.4697 3 5.96099 3.21071 5.58592 3.58579C5.21084 3.96086 5.00013 4.46957 5.00013 5V14.5C5.00013 14.6326 5.05281 14.7598 5.14658 14.8536C5.24034 14.9473 5.36752 15 5.50013 15ZM19.0001 5.5L24.5001 11H19.0001V5.5ZM28.0001 19.0662C27.9778 19.3233 27.859 19.5624 27.6678 19.7355C27.4765 19.9087 27.2269 20.0032 26.9689 20H24.0001V22H25.9664C26.2244 21.9965 26.4743 22.0909 26.6656 22.2641C26.8569 22.4374 26.9755 22.6766 26.9976 22.9338C27.0067 23.0705 26.9876 23.2077 26.9414 23.3368C26.8952 23.4659 26.823 23.5841 26.7292 23.6841C26.6355 23.7841 26.5221 23.8637 26.3963 23.9181C26.2704 23.9724 26.1347 24.0003 25.9976 24H24.0001V25.9662C24.0036 26.2243 23.9092 26.4741 23.736 26.6655C23.5628 26.8568 23.3235 26.9754 23.0664 26.9975C22.9296 27.0066 22.7924 26.9874 22.6633 26.9413C22.5342 26.8951 22.416 26.8229 22.316 26.7291C22.2161 26.6353 22.1364 26.522 22.0821 26.3961C22.0277 26.2703 21.9998 26.1346 22.0001 25.9975V19C22.0001 18.7348 22.1055 18.4804 22.293 18.2929C22.4806 18.1054 22.7349 18 23.0001 18H27.0001C27.1372 17.9997 27.2729 18.0276 27.3988 18.0819C27.5246 18.1363 27.638 18.2159 27.7317 18.3159C27.8255 18.4159 27.8977 18.5341 27.9439 18.6632C27.9901 18.7923 28.0092 18.9295 28.0001 19.0662ZM8.00013 18H6.00013C5.73491 18 5.48056 18.1054 5.29302 18.2929C5.10549 18.4804 5.00013 18.7348 5.00013 19V25.9662C4.99602 26.2247 5.0901 26.4752 5.26339 26.667C5.43669 26.8589 5.6763 26.9779 5.93388 27C6.07067 27.0091 6.20786 26.9899 6.33694 26.9438C6.46602 26.8976 6.58422 26.8254 6.68422 26.7316C6.78421 26.6378 6.86385 26.5245 6.9182 26.3986C6.97254 26.2728 7.00043 26.1371 7.00013 26V25H7.92513C9.83013 25 11.4426 23.51 11.4989 21.6063C11.5131 21.1379 11.4331 20.6714 11.2637 20.2345C11.0943 19.7976 10.8388 19.3992 10.5125 19.0629C10.1862 18.7265 9.79571 18.4591 9.36414 18.2766C8.93257 18.094 8.46873 18 8.00013 18ZM7.95638 23H7.00013V20H8.00013C8.20993 19.999 8.4176 20.0421 8.60973 20.1263C8.80186 20.2106 8.97418 20.3343 9.11554 20.4893C9.2569 20.6443 9.36417 20.8273 9.43042 21.0264C9.49666 21.2254 9.52041 21.4362 9.50013 21.645C9.45649 22.022 9.27439 22.3694 8.98915 22.6197C8.70392 22.8701 8.33587 23.0056 7.95638 23ZM16.0001 18H14.0001C13.7349 18 13.4806 18.1054 13.293 18.2929C13.1055 18.4804 13.0001 18.7348 13.0001 19V26C13.0001 26.2652 13.1055 26.5196 13.293 26.7071C13.4806 26.8946 13.7349 27 14.0001 27H15.9151C18.3726 27 20.4414 25.065 20.4989 22.6087C20.5134 22.0088 20.4077 21.412 20.1882 20.8535C19.9686 20.2951 19.6396 19.7861 19.2204 19.3567C18.8012 18.9272 18.3003 18.586 17.7473 18.353C17.1943 18.12 16.6002 18 16.0001 18ZM15.9389 25H15.0001V20H16.0001C16.3367 19.9998 16.6698 20.0675 16.9796 20.1991C17.2894 20.3307 17.5694 20.5235 17.8028 20.7659C18.0363 21.0084 18.2184 21.2954 18.3382 21.61C18.458 21.9245 18.5131 22.2599 18.5001 22.5963C18.4476 23.9487 17.2926 25 15.9389 25Z" fill="white"/>
<path d="M65 20.5V21.5H66.5C66.8978 21.5 67.2794 21.658 67.5607 21.9393C67.842 22.2206 68 22.6022 68 23C68 23.3978 67.842 23.7794 67.5607 24.0607C67.2794 24.342 66.8978 24.5 66.5 24.5H65V26C65 26.3978 64.842 26.7794 64.5607 27.0607C64.2794 27.342 63.8978 27.5 63.5 27.5C63.1022 27.5 62.7206 27.342 62.4393 27.0607C62.158 26.7794 62 26.3978 62 26V19C62 18.6022 62.158 18.2206 62.4393 17.9393C62.7206 17.658 63.1022 17.5 63.5 17.5H67.5C67.8978 17.5 68.2794 17.658 68.5607 17.9393C68.842 18.2206 69 18.6022 69 19C69 19.3978 68.842 19.7794 68.5607 20.0607C68.2794 20.342 67.8978 20.5 67.5 20.5H65ZM51.5 21.5C51.5 22.5609 51.0786 23.5783 50.3284 24.3284C49.5783 25.0786 48.5609 25.5 47.5 25.5H47V26C47 26.3978 46.842 26.7794 46.5607 27.0607C46.2794 27.342 45.8978 27.5 45.5 27.5C45.1022 27.5 44.7206 27.342 44.4393 27.0607C44.158 26.7794 44 26.3978 44 26V19C44 18.6022 44.158 18.2206 44.4393 17.9393C44.7206 17.658 45.1022 17.5 45.5 17.5H47.5C48.5609 17.5 49.5783 17.9214 50.3284 18.6716C51.0786 19.4217 51.5 20.4391 51.5 21.5ZM48.5 21.5C48.5 21.2348 48.3946 20.9804 48.2071 20.7929C48.0196 20.6054 47.7652 20.5 47.5 20.5H47V22.5H47.5C47.7652 22.5 48.0196 22.3946 48.2071 22.2071C48.3946 22.0196 48.5 21.7652 48.5 21.5ZM61 22.5C61 23.8261 60.4732 25.0979 59.5355 26.0355C58.5979 26.9732 57.3261 27.5 56 27.5H54C53.6022 27.5 53.2206 27.342 52.9393 27.0607C52.658 26.7794 52.5 26.3978 52.5 26V19C52.5 18.6022 52.658 18.2206 52.9393 17.9393C53.2206 17.658 53.6022 17.5 54 17.5H56C57.3261 17.5 58.5979 18.0268 59.5355 18.9645C60.4732 19.9021 61 21.1739 61 22.5ZM58 22.5C58 21.9696 57.7893 21.4609 57.4142 21.0858C57.0391 20.7107 56.5304 20.5 56 20.5H55.5V24.5H56C56.5304 24.5 57.0391 24.2893 57.4142 23.9142C57.7893 23.5391 58 23.0304 58 22.5ZM44.5 13.5V5C44.5 4.33696 44.7634 3.70107 45.2322 3.23223C45.7011 2.76339 46.337 2.5 47 2.5H59C59.1971 2.50001 59.3923 2.53887 59.5744 2.61437C59.7565 2.68987 59.9219 2.80052 60.0613 2.94L67.0613 9.94C67.3422 10.2212 67.5 10.6025 67.5 11V13.5C67.5 13.8978 67.342 14.2794 67.0607 14.5607C66.7794 14.842 66.3978 15 66 15C65.6022 15 65.2206 14.842 64.9393 14.5607C64.658 14.2794 64.5 13.8978 64.5 13.5V13H58.5C58.1022 13 57.7206 12.842 57.4393 12.5607C57.158 12.2794 57 11.8978 57 11.5V5.5H47.5V13.5C47.5 13.8978 47.342 14.2794 47.0607 14.5607C46.7794 14.842 46.3978 15 46 15C45.6022 15 45.2206 14.842 44.9393 14.5607C44.658 14.2794 44.5 13.8978 44.5 13.5ZM60 7.125V10H62.875L60 7.125Z" fill="white"/>
</g>
<defs>
<clipPath id="clip0_27_7101">
<rect width="72" height="32" rx="5" fill="white"/>
</clipPath>
</defs>
</svg>
