<svg width="72" height="32" viewBox="0 0 72 32" fill="none" xmlns="http://www.w3.org/2000/svg">
<g clip-path="url(#clip0_27_7146)">
<path d="M26.7077 10.2925L19.7077 3.2925C19.6148 3.19967 19.5045 3.12605 19.3831 3.07586C19.2617 3.02568 19.1316 2.9999 19.0002 3H7.00024C6.46981 3 5.9611 3.21071 5.58603 3.58579C5.21096 3.96086 5.00024 4.46957 5.00024 5V14.5C5.00024 14.6326 5.05292 14.7598 5.14669 14.8536C5.24046 14.9473 5.36764 15 5.50024 15H20.5002C20.6329 15 20.76 15.0527 20.8538 15.1464C20.9476 15.2402 21.0002 15.3674 21.0002 15.5V28.5C21.0002 28.6326 21.0529 28.7598 21.1467 28.8536C21.2405 28.9473 21.3676 29 21.5002 29H25.0002C25.5307 29 26.0394 28.7893 26.4145 28.4142C26.7895 28.0391 27.0002 27.5304 27.0002 27V11C27.0003 10.8686 26.9746 10.7385 26.9244 10.6172C26.8742 10.4958 26.8006 10.3854 26.7077 10.2925ZM19.0002 11V5.5L24.5002 11H19.0002ZM18.4765 24.5387C18.4375 24.9212 18.3143 25.2903 18.1157 25.6195C17.917 25.9487 17.6479 26.2297 17.3277 26.4425C16.679 26.875 15.8752 27 15.1415 27C14.5031 26.996 13.8677 26.912 13.2502 26.75C13.1223 26.716 13.0023 26.657 12.8973 26.5763C12.7924 26.4957 12.7044 26.395 12.6387 26.28C12.5729 26.1651 12.5307 26.0383 12.5143 25.9069C12.498 25.7755 12.5079 25.6422 12.5435 25.5147C12.5791 25.3871 12.6396 25.2679 12.7216 25.164C12.8036 25.0601 12.9055 24.9734 13.0212 24.9092C13.137 24.8449 13.2643 24.8043 13.3959 24.7896C13.5275 24.7749 13.6607 24.7865 13.7877 24.8237C14.3352 24.9737 15.6627 25.1612 16.2315 24.7787C16.3415 24.705 16.4602 24.5888 16.499 24.2875C16.5427 23.9538 16.4102 23.775 14.9015 23.3388C13.7327 23.0013 11.7765 22.435 12.0265 20.45C12.0655 20.0751 12.1865 19.7133 12.3809 19.3904C12.5753 19.0674 12.8384 18.7912 13.1515 18.5812C14.6315 17.5812 16.9902 18.1675 17.2552 18.2362C17.5118 18.3037 17.7311 18.4703 17.8649 18.6995C17.9986 18.9286 18.0358 19.2015 17.9684 19.4581C17.9009 19.7147 17.7343 19.934 17.5051 20.0677C17.276 20.2015 17.0031 20.2387 16.7465 20.1712C16.1852 20.025 14.8427 19.8512 14.2677 20.2412C14.1924 20.2921 14.1303 20.3603 14.0868 20.4401C14.0433 20.52 14.0196 20.6091 14.0177 20.7C14.0027 20.8125 14.0002 20.8363 14.1565 20.9375C14.4452 21.1238 14.9627 21.2725 15.4627 21.4175C16.6865 21.7712 18.7565 22.375 18.4765 24.5387ZM11.0002 19.0662C10.9781 19.3238 10.8591 19.5634 10.6673 19.7367C10.4754 19.91 10.225 20.0041 9.96649 20H8.50024V25.9662C8.50436 26.2247 8.41028 26.4752 8.23698 26.667C8.06369 26.8589 7.82408 26.9779 7.56649 27C7.42971 27.0091 7.29251 26.9899 7.16344 26.9438C7.03436 26.8976 6.91615 26.8254 6.81616 26.7316C6.71617 26.6378 6.63652 26.5245 6.58218 26.3986C6.52783 26.2728 6.49994 26.1371 6.50024 26V20H5.03399C4.7755 20.0041 4.52506 19.91 4.3332 19.7367C4.14135 19.5634 4.02236 19.3238 4.00024 19.0662C3.99116 18.9295 4.0103 18.7923 4.05647 18.6632C4.10264 18.5341 4.17486 18.4159 4.26864 18.3159C4.36242 18.2159 4.47576 18.1363 4.60162 18.0819C4.72747 18.0276 4.86316 17.9997 5.00024 18H10.0002C10.1373 17.9997 10.273 18.0276 10.3989 18.0819C10.5247 18.1363 10.6381 18.2159 10.7318 18.3159C10.8256 18.4159 10.8978 18.5341 10.944 18.6632C10.9902 18.7923 11.0093 18.9295 11.0002 19.0662Z" fill="white"/>
<path d="M67.0613 9.93875L60.0613 2.93875C59.9218 2.7995 59.7564 2.68908 59.5743 2.6138C59.3922 2.53851 59.197 2.49985 59 2.5H47C46.337 2.5 45.7011 2.76339 45.2322 3.23223C44.7634 3.70107 44.5 4.33696 44.5 5V13.5C44.5 13.8978 44.658 14.2794 44.9393 14.5607C45.2206 14.842 45.6022 15 46 15C46.3978 15 46.7794 14.842 47.0607 14.5607C47.342 14.2794 47.5 13.8978 47.5 13.5V5.5H57V11.5C57 11.8978 57.158 12.2794 57.4393 12.5607C57.7206 12.842 58.1022 13 58.5 13H64.5V26.5H62.5C62.1022 26.5 61.7206 26.658 61.4393 26.9393C61.158 27.2206 61 27.6022 61 28C61 28.3978 61.158 28.7794 61.4393 29.0607C61.7206 29.342 62.1022 29.5 62.5 29.5H65C65.663 29.5 66.2989 29.2366 66.7678 28.7678C67.2366 28.2989 67.5 27.663 67.5 27V11C67.5002 10.803 67.4615 10.6078 67.3862 10.4257C67.3109 10.2436 67.2005 10.0782 67.0613 9.93875ZM60 7.125L62.875 10H60V7.125ZM59.4725 24.6063C59.425 25.0602 59.2777 25.498 59.041 25.8883C58.8044 26.2786 58.4843 26.6117 58.1038 26.8638C57.3538 27.3638 56.445 27.5075 55.6375 27.5075C54.9522 27.503 54.2703 27.4102 53.6088 27.2313C53.2255 27.1242 52.9005 26.8692 52.7052 26.5225C52.51 26.1758 52.4604 25.7657 52.5675 25.3825C52.6746 24.9993 52.9295 24.6743 53.2762 24.479C53.6229 24.2837 54.033 24.2342 54.4163 24.3412C55.2675 24.5737 56.2913 24.5425 56.465 24.3487C56.4781 24.3206 56.487 24.2907 56.4912 24.26C56.2487 24.1063 55.6375 23.93 55.2563 23.82C54.5825 23.625 53.8813 23.4225 53.2875 23.0362C52.335 22.4212 51.8863 21.48 52.0238 20.3862C52.0704 19.9411 52.2143 19.5117 52.4452 19.1283C52.6761 18.7449 52.9884 18.4169 53.36 18.1675C54.1175 17.6562 55.1312 17.4388 56.3725 17.52C56.8792 17.552 57.382 17.629 57.875 17.75C58.2554 17.855 58.5792 18.1056 58.7761 18.4477C58.9729 18.7897 59.0271 19.1956 58.9268 19.5772C58.8265 19.9589 58.5798 20.2857 58.2401 20.4868C57.9005 20.6878 57.4954 20.7469 57.1125 20.6513C56.3175 20.4475 55.41 20.4625 55.1038 20.61C55.4275 20.7351 55.7575 20.8432 56.0925 20.9338C56.7775 21.1313 57.5525 21.355 58.1925 21.7862C59.1662 22.4437 59.625 23.4438 59.4725 24.6025V24.6063ZM51.5 19C51.5 19.3978 51.342 19.7794 51.0607 20.0607C50.7794 20.342 50.3978 20.5 50 20.5H49V26C49 26.3978 48.842 26.7794 48.5607 27.0607C48.2794 27.342 47.8978 27.5 47.5 27.5C47.1022 27.5 46.7206 27.342 46.4393 27.0607C46.158 26.7794 46 26.3978 46 26V20.5H45C44.6022 20.5 44.2206 20.342 43.9393 20.0607C43.658 19.7794 43.5 19.3978 43.5 19C43.5 18.6022 43.658 18.2206 43.9393 17.9393C44.2206 17.658 44.6022 17.5 45 17.5H50C50.3978 17.5 50.7794 17.658 51.0607 17.9393C51.342 18.2206 51.5 18.6022 51.5 19Z" fill="white"/>
</g>
<defs>
<clipPath id="clip0_27_7146">
<rect width="72" height="32" rx="5" fill="white"/>
</clipPath>
</defs>
</svg>
