<svg width="72" height="32" viewBox="0 0 72 32" fill="none" xmlns="http://www.w3.org/2000/svg">
<g clip-path="url(#clip0_27_7056)">
<path d="M19.8329 27.445C19.9334 27.5956 19.9911 27.7707 19.9999 27.9516C20.0086 28.1325 19.9681 28.3123 19.8826 28.472C19.7972 28.6316 19.67 28.7651 19.5146 28.8581C19.3592 28.9511 19.1815 29.0001 19.0004 29H3.00039C2.82072 29.0001 2.64435 28.9517 2.48982 28.8601C2.3353 28.7684 2.20832 28.6368 2.12224 28.4791C2.03616 28.3214 1.99416 28.1434 2.00065 27.9639C2.00715 27.7843 2.06189 27.6098 2.15914 27.4587L6.65914 20.4587C6.74968 20.3179 6.87416 20.202 7.02114 20.1217C7.16813 20.0415 7.33292 19.9994 7.50039 19.9994C7.66786 19.9994 7.83265 20.0415 7.97963 20.1217C8.12662 20.202 8.2511 20.3179 8.34164 20.4587L9.56164 22.3563L12.1679 18.445C12.2592 18.3078 12.3829 18.1953 12.5282 18.1175C12.6734 18.0397 12.8356 17.999 13.0004 17.999C13.1652 17.999 13.3274 18.0397 13.4726 18.1175C13.6178 18.1953 13.7416 18.3078 13.8329 18.445L19.8329 27.445ZM27.0004 11V27C27.0004 27.5304 26.7897 28.0391 26.4146 28.4142C26.0395 28.7893 25.5308 29 25.0004 29H24.0004C23.7352 29 23.4808 28.8946 23.2933 28.7071C23.1057 28.5196 23.0004 28.2652 23.0004 28C23.0004 27.7348 23.1057 27.4804 23.2933 27.2929C23.4808 27.1054 23.7352 27 24.0004 27H25.0004V12H19.0004C18.7352 12 18.4808 11.8946 18.2933 11.7071C18.1057 11.5196 18.0004 11.2652 18.0004 11V5H7.00039V16C7.00039 16.2652 6.89503 16.5196 6.7075 16.7071C6.51996 16.8946 6.2656 17 6.00039 17C5.73517 17 5.48082 16.8946 5.29328 16.7071C5.10575 16.5196 5.00039 16.2652 5.00039 16V5C5.00039 4.46957 5.2111 3.96086 5.58617 3.58579C5.96125 3.21071 6.46996 3 7.00039 3H19.0004C19.1318 2.9999 19.2618 3.02568 19.3832 3.07586C19.5046 3.12605 19.615 3.19967 19.7079 3.2925L26.7079 10.2925C26.8007 10.3854 26.8743 10.4958 26.9245 10.6172C26.9747 10.7385 27.0005 10.8686 27.0004 11ZM20.0004 10H23.5866L20.0004 6.41375V10Z" fill="white"/>
<path d="M54.2496 18.1675C54.1127 17.9612 53.927 17.792 53.7089 17.675C53.4908 17.5579 53.2471 17.4967 52.9996 17.4967C52.752 17.4967 52.5083 17.5579 52.2902 17.675C52.0721 17.792 51.8864 17.9612 51.7496 18.1675L49.8746 20.9775L49.0371 19.7162C48.8988 19.5093 48.7113 19.3399 48.4913 19.2235C48.2713 19.1071 48.0258 19.0472 47.7769 19.0494C47.5281 19.0515 47.2836 19.1155 47.0656 19.2356C46.8477 19.3557 46.663 19.5282 46.5283 19.7375L41.7383 27.1887C41.5926 27.4153 41.5106 27.6769 41.501 27.9461C41.4913 28.2153 41.5543 28.4821 41.6833 28.7185C41.8123 28.955 42.0026 29.1523 42.2342 29.2898C42.4658 29.4273 42.7302 29.4999 42.9996 29.5H58.9996C59.2713 29.5004 59.538 29.427 59.7713 29.2876C60.0045 29.1482 60.1955 28.948 60.3239 28.7085C60.4523 28.469 60.5131 28.1991 60.5 27.9277C60.4869 27.6563 60.4004 27.3935 60.2496 27.1675L54.2496 18.1675ZM45.7496 26.5L47.8121 23.2875L48.6308 24.5138C48.7676 24.72 48.9534 24.8892 49.1715 25.0063C49.3896 25.1233 49.6333 25.1846 49.8808 25.1846C50.1283 25.1846 50.372 25.1233 50.5901 25.0063C50.8082 24.8892 50.994 24.72 51.1308 24.5138L53.0058 21.7038L56.1971 26.5H45.7496ZM67.0608 9.93875L60.0608 2.93875C59.9214 2.7995 59.7559 2.68908 59.5738 2.6138C59.3917 2.53851 59.1966 2.49985 58.9996 2.5H46.9996C46.3365 2.5 45.7006 2.76339 45.2318 3.23223C44.7629 3.70107 44.4996 4.33696 44.4996 5V15.5C44.4996 15.8978 44.6576 16.2794 44.9389 16.5607C45.2202 16.842 45.6017 17 45.9996 17C46.3974 17 46.7789 16.842 47.0602 16.5607C47.3415 16.2794 47.4996 15.8978 47.4996 15.5V5.5H56.9996V11.5C56.9996 11.8978 57.1576 12.2794 57.4389 12.5607C57.7202 12.842 58.1017 13 58.4996 13H64.4996V26.5C64.1017 26.5 63.7202 26.658 63.4389 26.9393C63.1576 27.2206 62.9996 27.6022 62.9996 28C62.9996 28.3978 63.1576 28.7794 63.4389 29.0607C63.7202 29.342 64.1017 29.5 64.4996 29.5H64.9996C65.6626 29.5 66.2985 29.2366 66.7673 28.7678C67.2362 28.2989 67.4996 27.663 67.4996 27V11C67.4997 10.803 67.461 10.6078 67.3858 10.4257C67.3105 10.2436 67.2001 10.0782 67.0608 9.93875ZM59.9996 7.125L62.8746 10H59.9996V7.125Z" fill="white"/>
</g>
<defs>
<clipPath id="clip0_27_7056">
<rect width="72" height="32" rx="5" fill="white"/>
</clipPath>
</defs>
</svg>
