<svg width="72" height="32" viewBox="0 0 72 32" fill="none" xmlns="http://www.w3.org/2000/svg">
<g clip-path="url(#clip0_27_7076)">
<path d="M26.708 10.2925L19.708 3.2925C19.615 3.19967 19.5047 3.12605 19.3833 3.07586C19.2619 3.02568 19.1318 2.9999 19.0005 3H7.00046C6.47003 3 5.96132 3.21071 5.58625 3.58579C5.21117 3.96086 5.00046 4.46957 5.00046 5V14.5C5.00046 14.6326 5.05314 14.7598 5.14691 14.8536C5.24067 14.9473 5.36785 15 5.50046 15H26.5005C26.6331 15 26.7602 14.9473 26.854 14.8536C26.9478 14.7598 27.0005 14.6326 27.0005 14.5V11C27.0006 10.8686 26.9748 10.7385 26.9246 10.6172C26.8744 10.4958 26.8008 10.3854 26.708 10.2925ZM19.0005 11V5.5L24.5005 11H19.0005ZM18.4767 24.5387C18.4377 24.9212 18.3145 25.2903 18.1159 25.6195C17.9173 25.9487 17.6482 26.2297 17.328 26.4425C16.6792 26.875 15.8755 27 15.1417 27C14.5008 26.9973 13.8628 26.9133 13.243 26.75C12.9875 26.6786 12.7709 26.5086 12.6408 26.2774C12.5107 26.0463 12.4778 25.7729 12.5492 25.5175C12.6207 25.2621 12.7906 25.0455 13.0218 24.9154C13.2529 24.7853 13.5263 24.7523 13.7817 24.8237C14.3292 24.975 15.6567 25.1625 16.2255 24.78C16.3355 24.705 16.4542 24.59 16.493 24.2887C16.5355 23.955 16.403 23.7763 14.8955 23.34C13.7267 23.0025 11.7705 22.4363 12.0205 20.45C12.0598 20.0753 12.1809 19.7139 12.3753 19.3912C12.5697 19.0685 12.8326 18.7924 13.1455 18.5825C14.6267 17.5825 16.9855 18.1687 17.2505 18.2375C17.5071 18.305 17.7263 18.4716 17.8601 18.7007C17.9938 18.9299 18.031 19.2028 17.9636 19.4594C17.8961 19.716 17.7295 19.9353 17.5003 20.069C17.2712 20.2027 16.9983 20.24 16.7417 20.1725C16.1805 20.0263 14.838 19.8525 14.263 20.2425C14.1878 20.2936 14.1259 20.3618 14.0824 20.4416C14.039 20.5214 14.0151 20.6104 14.013 20.7013C13.9992 20.8137 13.9967 20.8362 14.153 20.9387C14.4417 21.125 14.9592 21.2738 15.4592 21.4188C16.6867 21.7713 18.7505 22.375 18.4767 24.5387ZM10.0005 19V23.675C10.0005 25.4537 8.60296 26.9587 6.82421 26.9988C6.39522 27.0085 5.96853 26.9333 5.56878 26.7773C5.16903 26.6213 4.80412 26.3877 4.49511 26.09C4.18611 25.7922 3.93912 25.4363 3.7684 25.0426C3.59769 24.6489 3.50662 24.2253 3.50046 23.7962C3.49273 23.5388 3.5826 23.2879 3.75206 23.0938C3.92151 22.8998 4.15803 22.777 4.41421 22.75C4.55495 22.7377 4.69668 22.7555 4.83008 22.8019C4.96348 22.8484 5.08551 22.9227 5.18814 23.0198C5.29077 23.1168 5.37166 23.2345 5.42549 23.3652C5.47933 23.4958 5.50488 23.6363 5.50046 23.7775C5.488 23.9735 5.52771 24.1693 5.61554 24.345C5.70337 24.5206 5.83618 24.6699 6.00046 24.7775C6.98171 25.38 8.00046 24.6825 8.00046 23.7525V19.0338C7.99635 18.7753 8.09043 18.5248 8.26372 18.333C8.43702 18.1411 8.67663 18.0221 8.93421 18C9.071 17.9909 9.20819 18.0101 9.33727 18.0562C9.46635 18.1024 9.58455 18.1746 9.68455 18.2684C9.78454 18.3622 9.86418 18.4755 9.91853 18.6014C9.97287 18.7272 10.0008 18.8629 10.0005 19ZM26.8142 19.5812L24.7292 22.5L26.8142 25.4188C26.9545 25.6346 27.0062 25.8963 26.9584 26.1494C26.9105 26.4024 26.767 26.6272 26.5576 26.777C26.3482 26.9268 26.089 26.9901 25.8341 26.9536C25.5792 26.9172 25.3482 26.7838 25.1892 26.5812L23.5005 24.22L21.8142 26.5812C21.7406 26.6945 21.6448 26.7917 21.5326 26.8669C21.4204 26.9421 21.2941 26.9938 21.1614 27.0189C21.0287 27.044 20.8922 27.0419 20.7603 27.0128C20.6284 26.9837 20.5038 26.9282 20.3939 26.8496C20.284 26.771 20.1912 26.671 20.1211 26.5555C20.051 26.4401 20.0049 26.3116 19.9858 26.1779C19.9667 26.0442 19.9748 25.908 20.0098 25.7775C20.0448 25.647 20.1058 25.525 20.1892 25.4188L22.2717 22.5L20.1867 19.5812C20.0464 19.3654 19.9948 19.1037 20.0426 18.8506C20.0904 18.5976 20.2339 18.3728 20.4433 18.223C20.6528 18.0732 20.9119 18.0099 21.1668 18.0464C21.4217 18.0828 21.6527 18.2162 21.8117 18.4188L23.5005 20.78L25.1867 18.4188C25.3457 18.2162 25.5767 18.0828 25.8316 18.0464C26.0865 18.0099 26.3457 18.0732 26.5551 18.223C26.7645 18.3728 26.908 18.5976 26.9559 18.8506C27.0037 19.1037 26.952 19.3654 26.8117 19.5812H26.8142Z" fill="white"/>
<path d="M58.9725 24.6C58.9241 25.0527 58.7763 25.4891 58.5397 25.8781C58.3031 26.267 57.9835 26.5989 57.6038 26.85C56.8538 27.35 55.945 27.4937 55.1375 27.4937C54.4522 27.4893 53.7703 27.3964 53.1088 27.2175C52.9158 27.1674 52.7348 27.0793 52.5763 26.9585C52.4178 26.8377 52.285 26.6864 52.1856 26.5137C52.0862 26.3409 52.0223 26.1501 51.9975 25.9523C51.9727 25.7545 51.9876 25.5538 52.0412 25.3619C52.0949 25.1699 52.1862 24.9906 52.31 24.8343C52.4337 24.6781 52.5874 24.5481 52.762 24.4519C52.9365 24.3557 53.1285 24.2953 53.3267 24.2741C53.5249 24.253 53.7253 24.2716 53.9163 24.3288C54.7675 24.56 55.7913 24.53 55.965 24.3363C55.9781 24.3081 55.987 24.2782 55.9913 24.2475C55.7487 24.0938 55.1375 23.9175 54.7563 23.8062C54.0825 23.6112 53.3813 23.41 52.7875 23.0238C51.8338 22.4088 51.3863 21.4675 51.5238 20.375C51.5703 19.9297 51.7141 19.5 51.945 19.1164C52.1759 18.7328 52.4882 18.4046 52.86 18.155C53.6175 17.6438 54.6313 17.4263 55.8725 17.5088C56.3795 17.5447 56.8823 17.6255 57.375 17.75C57.7554 17.855 58.0792 18.1056 58.2761 18.4477C58.4729 18.7897 58.5271 19.1956 58.4268 19.5772C58.3265 19.9589 58.0798 20.2857 57.7401 20.4868C57.4005 20.6878 56.9954 20.7469 56.6125 20.6513C55.8175 20.4475 54.91 20.4625 54.6038 20.61C54.9275 20.7351 55.2575 20.8432 55.5925 20.9338C56.2762 21.1313 57.0525 21.355 57.6925 21.7862C58.6662 22.4412 59.125 23.4412 58.9725 24.6ZM48.5 17.5C48.1022 17.5 47.7206 17.658 47.4393 17.9393C47.158 18.2206 47 18.6022 47 19V23.75C47 23.9489 46.921 24.1397 46.7803 24.2803C46.6397 24.421 46.4489 24.5 46.25 24.5C46.0511 24.5 45.8603 24.421 45.7197 24.2803C45.579 24.1397 45.5 23.9489 45.5 23.75C45.5 23.3522 45.342 22.9706 45.0607 22.6893C44.7794 22.408 44.3978 22.25 44 22.25C43.6022 22.25 43.2206 22.408 42.9393 22.6893C42.658 22.9706 42.5 23.3522 42.5 23.75C42.5 24.7446 42.8951 25.6984 43.5983 26.4017C44.3016 27.1049 45.2554 27.5 46.25 27.5C47.2446 27.5 48.1984 27.1049 48.9017 26.4017C49.6049 25.6984 50 24.7446 50 23.75V19C50 18.6022 49.842 18.2206 49.5607 17.9393C49.2794 17.658 48.8978 17.5 48.5 17.5ZM65.8438 22.5L67.7188 19.875C67.9508 19.5513 68.0448 19.1486 67.98 18.7556C67.9151 18.3626 67.6969 18.0114 67.3731 17.7794C67.0494 17.5473 66.6467 17.4534 66.2537 17.5182C65.8607 17.583 65.5096 17.8013 65.2775 18.125L64 19.9175L62.72 18.125C62.4879 17.8013 62.1368 17.583 61.7438 17.5182C61.3508 17.4534 60.9481 17.5473 60.6244 17.7794C60.3006 18.0114 60.0824 18.3626 60.0175 18.7556C59.9527 19.1486 60.0467 19.5513 60.2787 19.875L62.1537 22.5L60.2787 25.125C60.1638 25.2853 60.0816 25.4667 60.0368 25.6587C59.992 25.8508 59.9854 26.0498 60.0175 26.2444C60.0496 26.439 60.1197 26.6254 60.2239 26.7929C60.328 26.9604 60.4641 27.1057 60.6244 27.2206C60.7847 27.3355 60.966 27.4177 61.1581 27.4626C61.3502 27.5074 61.5492 27.5139 61.7438 27.4818C61.9384 27.4497 62.1247 27.3796 62.2922 27.2755C62.4597 27.1714 62.6051 27.0353 62.72 26.875L64 25.0775L65.2787 26.875C65.5108 27.1987 65.862 27.417 66.255 27.4818C66.648 27.5466 67.0506 27.4527 67.3744 27.2206C67.6981 26.9886 67.9164 26.6374 67.9812 26.2444C68.046 25.8514 67.9521 25.4487 67.72 25.125L65.8438 22.5ZM44.5 13.5V5C44.5 4.33696 44.7634 3.70107 45.2322 3.23223C45.7011 2.76339 46.337 2.5 47 2.5H59C59.197 2.49985 59.3922 2.53851 59.5743 2.6138C59.7564 2.68908 59.9218 2.7995 60.0613 2.93875L67.0613 9.93875C67.2005 10.0782 67.3109 10.2436 67.3862 10.4257C67.4615 10.6078 67.5002 10.803 67.5 11V13.5C67.5 13.8978 67.342 14.2794 67.0607 14.5607C66.7794 14.842 66.3978 15 66 15C65.6022 15 65.2206 14.842 64.9393 14.5607C64.658 14.2794 64.5 13.8978 64.5 13.5V13H58.5C58.1022 13 57.7206 12.842 57.4393 12.5607C57.158 12.2794 57 11.8978 57 11.5V5.5H47.5V13.5C47.5 13.8978 47.342 14.2794 47.0607 14.5607C46.7794 14.842 46.3978 15 46 15C45.6022 15 45.2206 14.842 44.9393 14.5607C44.658 14.2794 44.5 13.8978 44.5 13.5ZM60 10H62.875L60 7.125V10Z" fill="white"/>
</g>
<defs>
<clipPath id="clip0_27_7076">
<rect width="72" height="32" rx="5" fill="white"/>
</clipPath>
</defs>
</svg>
