<svg width="72" height="32" viewBox="0 0 72 32" fill="none" xmlns="http://www.w3.org/2000/svg">
<g clip-path="url(#clip0_27_7181)">
<path d="M23 18H21C20.7348 18 20.4804 18.1054 20.2929 18.2929C20.1054 18.4804 20 18.7348 20 19V25.9662C19.9965 26.2243 20.0909 26.4741 20.2641 26.6655C20.4374 26.8568 20.6766 26.9754 20.9338 26.9975C21.0705 27.0066 21.2077 26.9874 21.3368 26.9413C21.4659 26.8951 21.5841 26.8229 21.6841 26.7291C21.7841 26.6353 21.8637 26.522 21.9181 26.3961C21.9724 26.2703 22.0003 26.1346 22 25.9975V24.9975H22.925C24.83 24.9975 26.4425 23.5075 26.4988 21.6038C26.5126 21.1356 26.4324 20.6694 26.2628 20.2328C26.0932 19.7962 25.8377 19.398 25.5115 19.062C25.1852 18.7259 24.7948 18.4588 24.3634 18.2764C23.932 18.0939 23.4684 18 23 18ZM22.9562 23H22V20H23C23.2098 19.999 23.4175 20.0421 23.6096 20.1263C23.8017 20.2106 23.974 20.3343 24.1154 20.4893C24.2568 20.6443 24.364 20.8273 24.4303 21.0264C24.4965 21.2254 24.5203 21.4362 24.5 21.645C24.4564 22.022 24.2743 22.3694 23.989 22.6197C23.7038 22.8701 23.3357 23.0056 22.9562 23ZM17 19V25.9662C17.0035 26.2243 16.9091 26.4741 16.7359 26.6655C16.5626 26.8568 16.3234 26.9754 16.0662 26.9975C15.9295 27.0066 15.7923 26.9874 15.6632 26.9413C15.5341 26.8951 15.4159 26.8229 15.3159 26.7291C15.2159 26.6353 15.1363 26.522 15.0819 26.3961C15.0276 26.2703 14.9997 26.1346 15 25.9975V19.0338C14.9965 18.7757 15.0909 18.5259 15.2641 18.3345C15.4374 18.1432 15.6766 18.0246 15.9338 18.0025C16.0703 17.9934 16.2073 18.0125 16.3362 18.0585C16.4651 18.1045 16.5832 18.1765 16.6832 18.27C16.7831 18.3636 16.8628 18.4766 16.9173 18.6022C16.9718 18.7277 17 18.8631 17 19ZM12 26.0662C11.9779 26.3238 11.8589 26.5634 11.667 26.7367C11.4752 26.91 11.2247 27.0041 10.9663 27H7.02875C6.88911 27.0013 6.75066 26.9742 6.62176 26.9205C6.49286 26.8668 6.37617 26.7875 6.27875 26.6875C6.12941 26.5319 6.03436 26.3323 6.00778 26.1182C5.9812 25.9042 6.02451 25.6874 6.13125 25.5L9.27625 20H7.03375C6.77525 20.0041 6.52481 19.91 6.33296 19.7367C6.14111 19.5634 6.02212 19.3238 6 19.0662C5.99092 18.9295 6.01006 18.7923 6.05623 18.6632C6.1024 18.5341 6.17462 18.4159 6.2684 18.3159C6.36218 18.2159 6.47552 18.1363 6.60137 18.0819C6.72723 18.0276 6.86291 17.9997 7 18H10.9712C11.1109 17.9987 11.2493 18.0258 11.3782 18.0795C11.5071 18.1332 11.6238 18.2125 11.7212 18.3125C11.8716 18.4673 11.9678 18.6667 11.9955 18.8807C12.0232 19.0947 11.9809 19.312 11.875 19.5L8.72375 25H11C11.1371 24.9997 11.2728 25.0276 11.3986 25.0819C11.5245 25.1363 11.6378 25.2159 11.7316 25.3159C11.8254 25.4159 11.8976 25.5341 11.9438 25.6632C11.9899 25.7923 12.0091 25.9295 12 26.0662ZM26.7075 10.2925L19.7075 3.2925C19.6146 3.19967 19.5042 3.12605 19.3829 3.07586C19.2615 3.02568 19.1314 2.9999 19 3H7C6.46957 3 5.96086 3.21071 5.58579 3.58579C5.21071 3.96086 5 4.46957 5 5V14.5C5 14.6326 5.05268 14.7598 5.14645 14.8536C5.24021 14.9473 5.36739 15 5.5 15H26.5C26.6326 15 26.7598 14.9473 26.8536 14.8536C26.9473 14.7598 27 14.6326 27 14.5V11C27.0001 10.8686 26.9743 10.7385 26.9241 10.6172C26.8739 10.4958 26.8003 10.3854 26.7075 10.2925ZM19 11V5.5L24.5 11H19Z" fill="white"/>
<path d="M63.5 17.5H61.5C61.1022 17.5 60.7206 17.658 60.4393 17.9393C60.158 18.2206 60 18.6022 60 19V26C60 26.3978 60.158 26.7794 60.4393 27.0607C60.7206 27.342 61.1022 27.5 61.5 27.5C61.8978 27.5 62.2794 27.342 62.5607 27.0607C62.842 26.7794 63 26.3978 63 26V25.5H63.5C64.5609 25.5 65.5783 25.0786 66.3284 24.3284C67.0786 23.5783 67.5 22.5609 67.5 21.5C67.5 20.4391 67.0786 19.4217 66.3284 18.6716C65.5783 17.9214 64.5609 17.5 63.5 17.5ZM63.5 22.5H63V20.5H63.5C63.7652 20.5 64.0196 20.6054 64.2071 20.7929C64.3946 20.9804 64.5 21.2348 64.5 21.5C64.5 21.7652 64.3946 22.0196 64.2071 22.2071C64.0196 22.3946 63.7652 22.5 63.5 22.5ZM57.5 19V26C57.5 26.3978 57.342 26.7794 57.0607 27.0607C56.7794 27.342 56.3978 27.5 56 27.5C55.6022 27.5 55.2206 27.342 54.9393 27.0607C54.658 26.7794 54.5 26.3978 54.5 26V19C54.5 18.6022 54.658 18.2206 54.9393 17.9393C55.2206 17.658 55.6022 17.5 56 17.5C56.3978 17.5 56.7794 17.658 57.0607 17.9393C57.342 18.2206 57.5 18.6022 57.5 19ZM52 26C52 26.3978 51.842 26.7794 51.5607 27.0607C51.2794 27.342 50.8978 27.5 50.5 27.5H46.5C46.2373 27.5 45.9792 27.431 45.7516 27.2999C45.524 27.1688 45.3347 26.9802 45.2029 26.7531C45.071 26.5259 45.0011 26.2681 45.0001 26.0054C44.9992 25.7427 45.0673 25.4844 45.1975 25.2563L47.915 20.5H46.5C46.1022 20.5 45.7206 20.342 45.4393 20.0607C45.158 19.7794 45 19.3978 45 19C45 18.6022 45.158 18.2206 45.4393 17.9393C45.7206 17.658 46.1022 17.5 46.5 17.5H50.5C50.7636 17.4994 51.0227 17.5683 51.2512 17.6997C51.4797 17.8311 51.6696 18.0204 51.8016 18.2485C51.9337 18.4766 52.0033 18.7355 52.0035 18.9991C52.0036 19.2627 51.9343 19.5217 51.8025 19.75L49.085 24.5H50.5C50.8978 24.5 51.2794 24.658 51.5607 24.9393C51.842 25.2206 52 25.6022 52 26ZM67.0613 9.94L60.0613 2.94C59.9219 2.80052 59.7565 2.68987 59.5744 2.61437C59.3923 2.53887 59.1971 2.50001 59 2.5H47C46.337 2.5 45.7011 2.76339 45.2322 3.23223C44.7634 3.70107 44.5 4.33696 44.5 5V13.5C44.5 13.8978 44.658 14.2794 44.9393 14.5607C45.2206 14.842 45.6022 15 46 15C46.3978 15 46.7794 14.842 47.0607 14.5607C47.342 14.2794 47.5 13.8978 47.5 13.5V5.5H57V11.5C57 11.8978 57.158 12.2794 57.4393 12.5607C57.7206 12.842 58.1022 13 58.5 13H64.5V13.5C64.5 13.8978 64.658 14.2794 64.9393 14.5607C65.2206 14.842 65.6022 15 66 15C66.3978 15 66.7794 14.842 67.0607 14.5607C67.342 14.2794 67.5 13.8978 67.5 13.5V11C67.5 10.6025 67.3422 10.2212 67.0613 9.94ZM60 10V7.125L62.875 10H60Z" fill="white"/>
</g>
<defs>
<clipPath id="clip0_27_7181">
<rect width="72" height="32" rx="5" fill="white"/>
</clipPath>
</defs>
</svg>
