<svg width="72" height="32" viewBox="0 0 72 32" fill="none" xmlns="http://www.w3.org/2000/svg">
<g clip-path="url(#clip0_27_7081)">
<path d="M15 22H14V21.5C14 20.5717 13.6313 19.6815 12.9749 19.0251C12.3185 18.3687 11.4283 18 10.5 18C9.57174 18 8.6815 18.3687 8.02513 19.0251C7.36875 19.6815 7 20.5717 7 21.5V22H6C5.73478 22 5.48043 22.1054 5.29289 22.2929C5.10536 22.4804 5 22.7348 5 23V28C5 28.2652 5.10536 28.5196 5.29289 28.7071C5.48043 28.8946 5.73478 29 6 29H15C15.2652 29 15.5196 28.8946 15.7071 28.7071C15.8946 28.5196 16 28.2652 16 28V23C16 22.7348 15.8946 22.4804 15.7071 22.2929C15.5196 22.1054 15.2652 22 15 22ZM12 22H9V21.5C9 21.1022 9.15804 20.7206 9.43934 20.4393C9.72064 20.158 10.1022 20 10.5 20C10.8978 20 11.2794 20.158 11.5607 20.4393C11.842 20.7206 12 21.1022 12 21.5V22ZM26.7075 10.2925L19.7075 3.2925C19.6146 3.19967 19.5042 3.12605 19.3829 3.07586C19.2615 3.02568 19.1314 2.9999 19 3H7C6.46957 3 5.96086 3.21071 5.58579 3.58579C5.21071 3.96086 5 4.46957 5 5V16C5 16.2652 5.10536 16.5196 5.29289 16.7071C5.48043 16.8946 5.73478 17 6 17C6.26522 17 6.51957 16.8946 6.70711 16.7071C6.89464 16.5196 7 16.2652 7 16V5H18V11C18 11.2652 18.1054 11.5196 18.2929 11.7071C18.4804 11.8946 18.7348 12 19 12H25V27H20C19.7348 27 19.4804 27.1054 19.2929 27.2929C19.1054 27.4804 19 27.7348 19 28C19 28.2652 19.1054 28.5196 19.2929 28.7071C19.4804 28.8946 19.7348 29 20 29H25C25.5304 29 26.0391 28.7893 26.4142 28.4142C26.7893 28.0391 27 27.5304 27 27V11C27.0001 10.8686 26.9743 10.7385 26.9241 10.6172C26.8739 10.4958 26.8003 10.3854 26.7075 10.2925ZM20 6.41375L23.5863 10H20V6.41375Z" fill="white"/>
<path d="M55 21H54.5V20.5C54.5 19.4391 54.0786 18.4217 53.3284 17.6716C52.5783 16.9214 51.5609 16.5 50.5 16.5C49.4391 16.5 48.4217 16.9214 47.6716 17.6716C46.9214 18.4217 46.5 19.4391 46.5 20.5V21H46C45.6022 21 45.2206 21.158 44.9393 21.4393C44.658 21.7206 44.5 22.1022 44.5 22.5V28C44.5 28.3978 44.658 28.7794 44.9393 29.0607C45.2206 29.342 45.6022 29.5 46 29.5H55C55.3978 29.5 55.7794 29.342 56.0607 29.0607C56.342 28.7794 56.5 28.3978 56.5 28V22.5C56.5 22.1022 56.342 21.7206 56.0607 21.4393C55.7794 21.158 55.3978 21 55 21ZM49.5 20.5C49.5 20.2348 49.6054 19.9804 49.7929 19.7929C49.9804 19.6054 50.2348 19.5 50.5 19.5C50.7652 19.5 51.0196 19.6054 51.2071 19.7929C51.3946 19.9804 51.5 20.2348 51.5 20.5V21H49.5V20.5ZM53.5 26.5H47.5V24H53.5V26.5ZM67.0613 9.94L60.0613 2.94C59.9219 2.80052 59.7565 2.68987 59.5744 2.61437C59.3923 2.53887 59.1971 2.50001 59 2.5H47C46.337 2.5 45.7011 2.76339 45.2322 3.23223C44.7634 3.70107 44.5 4.33696 44.5 5V13.5C44.5 13.8978 44.658 14.2794 44.9393 14.5607C45.2206 14.842 45.6022 15 46 15C46.3978 15 46.7794 14.842 47.0607 14.5607C47.342 14.2794 47.5 13.8978 47.5 13.5V5.5H57V11.5C57 11.8978 57.158 12.2794 57.4393 12.5607C57.7206 12.842 58.1022 13 58.5 13H64.5V26.5H60.5C60.1022 26.5 59.7206 26.658 59.4393 26.9393C59.158 27.2206 59 27.6022 59 28C59 28.3978 59.158 28.7794 59.4393 29.0607C59.7206 29.342 60.1022 29.5 60.5 29.5H65C65.663 29.5 66.2989 29.2366 66.7678 28.7678C67.2366 28.2989 67.5 27.663 67.5 27V11C67.5 10.6025 67.3422 10.2212 67.0613 9.94ZM60 7.125L62.875 10H60V7.125Z" fill="white"/>
</g>
<defs>
<clipPath id="clip0_27_7081">
<rect width="72" height="32" rx="5" fill="white"/>
</clipPath>
</defs>
</svg>
