<svg width="72" height="32" viewBox="0 0 72 32" fill="none" xmlns="http://www.w3.org/2000/svg">
<g clip-path="url(#clip0_27_7066)">
<path d="M5.50046 15H26.5005C26.6331 15 26.7602 14.9473 26.854 14.8536C26.9478 14.7598 27.0005 14.6326 27.0005 14.5V11C27.0006 10.8686 26.9748 10.7385 26.9246 10.6172C26.8744 10.4958 26.8008 10.3854 26.708 10.2925L19.708 3.2925C19.615 3.19967 19.5047 3.12605 19.3833 3.07586C19.2619 3.02568 19.1318 2.9999 19.0005 3H7.00046C6.47003 3 5.96132 3.21071 5.58625 3.58579C5.21117 3.96086 5.00046 4.46957 5.00046 5V14.5C5.00046 14.6326 5.05314 14.7598 5.14691 14.8536C5.24067 14.9473 5.36785 15 5.50046 15ZM19.0005 5.5L24.5005 11H19.0005V5.5ZM15.0005 18H13.0005C12.7352 18 12.4809 18.1054 12.2934 18.2929C12.1058 18.4804 12.0005 18.7348 12.0005 19V25.9662C11.997 26.2243 12.0914 26.4741 12.2646 26.6655C12.4378 26.8568 12.6771 26.9754 12.9342 26.9975C13.071 27.0066 13.2082 26.9874 13.3373 26.9413C13.4663 26.8951 13.5846 26.8229 13.6845 26.7291C13.7845 26.6353 13.8642 26.522 13.9185 26.3961C13.9729 26.2703 14.0008 26.1346 14.0005 25.9975V24.9975H14.9255C16.8305 24.9975 18.4417 23.5075 18.4992 21.6038C18.5131 21.1356 18.4329 20.6694 18.2633 20.2328C18.0937 19.7962 17.8382 19.398 17.5119 19.062C17.1857 18.7259 16.7953 18.4588 16.3639 18.2764C15.9325 18.0939 15.4688 18 15.0005 18ZM14.9567 23H14.0005V20H15.0005C15.2096 20.0001 15.4165 20.0439 15.6077 20.1286C15.7989 20.2134 15.9703 20.3372 16.1109 20.4921C16.2514 20.647 16.358 20.8296 16.4238 21.0281C16.4896 21.2267 16.5132 21.4368 16.493 21.645C16.45 22.0209 16.2691 22.3676 15.9853 22.6179C15.7016 22.8681 15.3351 23.0043 14.9567 23ZM27.0005 25.1087C27.0004 25.3687 26.8991 25.6185 26.718 25.805C26.3702 26.1787 25.9498 26.4774 25.4825 26.6829C25.0152 26.8883 24.5109 26.9963 24.0005 27C21.7955 27 20.0005 24.9813 20.0005 22.5C20.0005 20.0187 21.7955 18 24.0005 18C24.7158 18.0022 25.4148 18.2133 26.0117 18.6075C26.2286 18.7427 26.3872 18.9539 26.4566 19.1999C26.526 19.4459 26.501 19.7089 26.3867 19.9375C26.321 20.0615 26.2299 20.1703 26.1193 20.2568C26.0088 20.3432 25.8813 20.4055 25.7451 20.4394C25.6089 20.4734 25.4671 20.4783 25.3289 20.4539C25.1907 20.4294 25.0592 20.3761 24.943 20.2975C24.6665 20.1044 24.3376 20.0006 24.0005 20C22.898 20 22.0005 21.125 22.0005 22.5C22.0005 23.875 22.898 25 24.0005 25C24.3613 24.9958 24.7114 24.8772 25.0005 24.6612V24C24.8634 24.0003 24.7277 23.9724 24.6018 23.9181C24.476 23.8637 24.3626 23.7841 24.2689 23.6841C24.1751 23.5841 24.1029 23.4659 24.0567 23.3368C24.0105 23.2077 23.9914 23.0705 24.0005 22.9338C24.0225 22.6766 24.1412 22.4374 24.3325 22.2641C24.5238 22.0909 24.7736 21.9965 25.0317 22H26.0005C26.2657 22 26.52 22.1054 26.7076 22.2929C26.8951 22.4804 27.0005 22.7348 27.0005 23V25.1087ZM10.0005 19V23.6763C10.0005 25.4538 8.60296 26.9587 6.82421 26.9988C6.39522 27.0085 5.96853 26.9333 5.56878 26.7773C5.16903 26.6213 4.80412 26.3877 4.49511 26.09C4.18611 25.7922 3.93912 25.4363 3.7684 25.0426C3.59769 24.6489 3.50662 24.2253 3.50046 23.7962C3.49273 23.5388 3.5826 23.2879 3.75206 23.0938C3.92151 22.8998 4.15803 22.777 4.41421 22.75C4.55495 22.7377 4.69668 22.7555 4.83008 22.8019C4.96348 22.8484 5.08551 22.9227 5.18814 23.0198C5.29077 23.1168 5.37166 23.2345 5.42549 23.3652C5.47933 23.4958 5.50488 23.6363 5.50046 23.7775C5.488 23.9735 5.52771 24.1693 5.61554 24.345C5.70337 24.5206 5.83618 24.6699 6.00046 24.7775C6.98171 25.38 8.00046 24.6838 8.00046 23.7525V19.0338C7.99635 18.7753 8.09043 18.5248 8.26372 18.333C8.43702 18.1411 8.67663 18.0221 8.93421 18C9.071 17.9909 9.20819 18.0101 9.33727 18.0562C9.46635 18.1024 9.58455 18.1746 9.68455 18.2684C9.78454 18.3622 9.86418 18.4755 9.91853 18.6014C9.97287 18.7272 10.0008 18.8629 10.0005 19Z" fill="white"/>
<path d="M55 17.5H53C52.6022 17.5 52.2206 17.658 51.9393 17.9393C51.658 18.2206 51.5 18.6022 51.5 19V26C51.5 26.3978 51.658 26.7794 51.9393 27.0607C52.2206 27.342 52.6022 27.5 53 27.5C53.3978 27.5 53.7794 27.342 54.0607 27.0607C54.342 26.7794 54.5 26.3978 54.5 26V25.5H55C56.0609 25.5 57.0783 25.0786 57.8284 24.3284C58.5786 23.5783 59 22.5609 59 21.5C59 20.4391 58.5786 19.4217 57.8284 18.6716C57.0783 17.9214 56.0609 17.5 55 17.5ZM55 22.5H54.5V20.5H55C55.2652 20.5 55.5196 20.6054 55.7071 20.7929C55.8946 20.9804 56 21.2348 56 21.5C56 21.7652 55.8946 22.0196 55.7071 22.2071C55.5196 22.3946 55.2652 22.5 55 22.5ZM68 25.1087C68.0001 25.4953 67.851 25.867 67.5837 26.1462C67.1891 26.5701 66.712 26.9088 66.1817 27.1416C65.6514 27.3744 65.0791 27.4964 64.5 27.5C62.0187 27.5 60 25.2575 60 22.5C60 19.7425 62.0187 17.5 64.5 17.5C65.3345 17.5024 66.1492 17.755 66.8388 18.225C67.0069 18.333 67.1517 18.4735 67.2648 18.6383C67.3778 18.803 67.4568 18.9887 67.4971 19.1844C67.5374 19.3802 67.5382 19.582 67.4995 19.778C67.4607 19.974 67.3832 20.1603 67.2714 20.326C67.1596 20.4916 67.0159 20.6333 66.8487 20.7426C66.6814 20.8519 66.494 20.9267 66.2974 20.9626C66.1008 20.9985 65.8991 20.9947 65.704 20.9516C65.5089 20.9084 65.3243 20.8267 65.1612 20.7113C64.9672 20.5758 64.7367 20.5021 64.5 20.5C63.6875 20.5 63 21.4163 63 22.5C63 23.5837 63.6875 24.5 64.5 24.5C64.6145 24.4998 64.7283 24.4821 64.8375 24.4475C64.6583 24.2276 64.5452 23.9614 64.5112 23.6798C64.4772 23.3982 64.5237 23.1127 64.6454 22.8564C64.7671 22.6002 64.959 22.3837 65.1988 22.2322C65.4385 22.0806 65.7163 22.0001 66 22H66.5C66.8978 22 67.2794 22.158 67.5607 22.4393C67.842 22.7206 68 23.1022 68 23.5V25.1087ZM50 19V23.75C50 24.7446 49.6049 25.6984 48.9017 26.4017C48.1984 27.1049 47.2446 27.5 46.25 27.5C45.2554 27.5 44.3016 27.1049 43.5983 26.4017C42.8951 25.6984 42.5 24.7446 42.5 23.75C42.5 23.3522 42.658 22.9706 42.9393 22.6893C43.2206 22.408 43.6022 22.25 44 22.25C44.3978 22.25 44.7794 22.408 45.0607 22.6893C45.342 22.9706 45.5 23.3522 45.5 23.75C45.5 23.9489 45.579 24.1397 45.7197 24.2803C45.8603 24.421 46.0511 24.5 46.25 24.5C46.4489 24.5 46.6397 24.421 46.7803 24.2803C46.921 24.1397 47 23.9489 47 23.75V19C47 18.6022 47.158 18.2206 47.4393 17.9393C47.7206 17.658 48.1022 17.5 48.5 17.5C48.8978 17.5 49.2794 17.658 49.5607 17.9393C49.842 18.2206 50 18.6022 50 19ZM46 15C46.3978 15 46.7794 14.842 47.0607 14.5607C47.342 14.2794 47.5 13.8978 47.5 13.5V5.5H57V11.5C57 11.8978 57.158 12.2794 57.4393 12.5607C57.7206 12.842 58.1022 13 58.5 13H64.5V13.5C64.5 13.8978 64.658 14.2794 64.9393 14.5607C65.2206 14.842 65.6022 15 66 15C66.3978 15 66.7794 14.842 67.0607 14.5607C67.342 14.2794 67.5 13.8978 67.5 13.5V11C67.5 10.6025 67.3422 10.2212 67.0613 9.94L60.0613 2.94C59.9219 2.80052 59.7565 2.68987 59.5744 2.61437C59.3923 2.53887 59.1971 2.50001 59 2.5H47C46.337 2.5 45.7011 2.76339 45.2322 3.23223C44.7634 3.70107 44.5 4.33696 44.5 5V13.5C44.5 13.8978 44.658 14.2794 44.9393 14.5607C45.2206 14.842 45.6022 15 46 15ZM60 7.125L62.875 10H60V7.125Z" fill="white"/>
</g>
<defs>
<clipPath id="clip0_27_7066">
<rect width="72" height="32" rx="5" fill="white"/>
</clipPath>
</defs>
</svg>
