<svg width="72" height="32" viewBox="0 0 72 32" fill="none" xmlns="http://www.w3.org/2000/svg">
<g clip-path="url(#clip0_27_7071)">
<path d="M26.708 10.2925L19.708 3.2925C19.615 3.19967 19.5047 3.12605 19.3833 3.07586C19.2619 3.02568 19.1318 2.9999 19.0005 3H7.00046C6.47003 3 5.96132 3.21071 5.58625 3.58579C5.21117 3.96086 5.00046 4.46957 5.00046 5V14.5C5.00046 14.6326 5.05314 14.7598 5.14691 14.8536C5.24067 14.9473 5.36785 15 5.50046 15H20.5005C20.6331 15 20.7602 15.0527 20.854 15.1464C20.9478 15.2402 21.0005 15.3674 21.0005 15.5V28.5C21.0005 28.6326 21.0531 28.7598 21.1469 28.8536C21.2407 28.9473 21.3679 29 21.5005 29H25.0005C25.5309 29 26.0396 28.7893 26.4147 28.4142C26.7897 28.0391 27.0005 27.5304 27.0005 27V11C27.0006 10.8686 26.9748 10.7385 26.9246 10.6172C26.8744 10.4958 26.8008 10.3854 26.708 10.2925ZM19.0005 11V5.5L24.5005 11H19.0005ZM18.4767 24.5387C18.4377 24.9212 18.3145 25.2903 18.1159 25.6195C17.9173 25.9487 17.6482 26.2297 17.328 26.4425C16.6792 26.875 15.8755 27 15.1417 27C14.5008 26.9963 13.8629 26.9124 13.243 26.75C12.9875 26.6786 12.7709 26.5086 12.6408 26.2774C12.5107 26.0463 12.4778 25.7729 12.5492 25.5175C12.6207 25.2621 12.7906 25.0455 13.0218 24.9154C13.2529 24.7853 13.5263 24.7523 13.7817 24.8237C14.3292 24.9737 15.6567 25.1612 16.2255 24.7787C16.3355 24.705 16.4542 24.5888 16.493 24.2875C16.5355 23.9538 16.403 23.775 14.8955 23.3388C13.7267 23.0013 11.7705 22.435 12.0205 20.45C12.0596 20.0751 12.1807 19.7134 12.3751 19.3905C12.5695 19.0676 12.8325 18.7913 13.1455 18.5812C14.6267 17.5812 16.9855 18.1675 17.2505 18.2362C17.5071 18.3037 17.7263 18.4703 17.8601 18.6995C17.9938 18.9286 18.031 19.2015 17.9636 19.4581C17.8961 19.7147 17.7295 19.934 17.5003 20.0677C17.2712 20.2015 16.9983 20.2387 16.7417 20.1712C16.1805 20.025 14.838 19.8512 14.263 20.2412C14.1878 20.2923 14.1259 20.3606 14.0824 20.4404C14.039 20.5202 14.0151 20.6092 14.013 20.7C13.9992 20.8125 13.9967 20.8363 14.153 20.9375C14.4417 21.1238 14.9592 21.2725 15.4592 21.4175C16.6867 21.7712 18.7505 22.375 18.4767 24.5387ZM10.0005 19V23.6763C10.0005 25.4538 8.60296 26.9587 6.82421 26.9988C6.39522 27.0085 5.96853 26.9333 5.56878 26.7773C5.16903 26.6213 4.80412 26.3877 4.49511 26.09C4.18611 25.7922 3.93912 25.4363 3.7684 25.0426C3.59769 24.6489 3.50662 24.2253 3.50046 23.7962C3.49273 23.5388 3.5826 23.2879 3.75206 23.0938C3.92151 22.8998 4.15803 22.777 4.41421 22.75C4.55495 22.7377 4.69668 22.7555 4.83008 22.8019C4.96348 22.8484 5.08551 22.9227 5.18814 23.0198C5.29077 23.1168 5.37166 23.2345 5.42549 23.3652C5.47933 23.4958 5.50488 23.6363 5.50046 23.7775C5.488 23.9735 5.52771 24.1693 5.61554 24.345C5.70337 24.5206 5.83618 24.6699 6.00046 24.7775C6.98171 25.38 8.00046 24.6838 8.00046 23.7525V19.0338C7.99635 18.7753 8.09043 18.5248 8.26372 18.333C8.43702 18.1411 8.67663 18.0221 8.93421 18C9.071 17.9909 9.20819 18.0101 9.33727 18.0562C9.46635 18.1024 9.58455 18.1746 9.68455 18.2684C9.78454 18.3622 9.86418 18.4755 9.91853 18.6014C9.97287 18.7272 10.0008 18.8629 10.0005 19Z" fill="white"/>
<path d="M67.0613 9.93875L60.0613 2.93875C59.9218 2.7995 59.7564 2.68908 59.5743 2.6138C59.3922 2.53851 59.197 2.49985 59 2.5H47C46.337 2.5 45.7011 2.76339 45.2322 3.23223C44.7634 3.70107 44.5 4.33696 44.5 5V13.5C44.5 13.8978 44.658 14.2794 44.9393 14.5607C45.2206 14.842 45.6022 15 46 15C46.3978 15 46.7794 14.842 47.0607 14.5607C47.342 14.2794 47.5 13.8978 47.5 13.5V5.5H57V11.5C57 11.8978 57.158 12.2794 57.4393 12.5607C57.7206 12.842 58.1022 13 58.5 13H64.5V26.5H62.5C62.1022 26.5 61.7206 26.658 61.4393 26.9393C61.158 27.2206 61 27.6022 61 28C61 28.3978 61.158 28.7794 61.4393 29.0607C61.7206 29.342 62.1022 29.5 62.5 29.5H65C65.663 29.5 66.2989 29.2366 66.7678 28.7678C67.2366 28.2989 67.5 27.663 67.5 27V11C67.5002 10.803 67.4615 10.6078 67.3862 10.4257C67.3109 10.2436 67.2005 10.0782 67.0613 9.93875ZM60 7.125L62.875 10H60V7.125ZM59.4725 24.6063C59.425 25.0602 59.2777 25.498 59.041 25.8883C58.8044 26.2786 58.4843 26.6117 58.1038 26.8638C57.3538 27.3638 56.445 27.5075 55.6375 27.5075C54.9522 27.503 54.2703 27.4102 53.6088 27.2313C53.2255 27.1242 52.9005 26.8692 52.7052 26.5225C52.51 26.1758 52.4604 25.7657 52.5675 25.3825C52.6746 24.9993 52.9295 24.6743 53.2762 24.479C53.6229 24.2837 54.033 24.2342 54.4163 24.3412C55.2675 24.5737 56.2913 24.5425 56.465 24.3487C56.4781 24.3206 56.487 24.2907 56.4912 24.26C56.2487 24.1063 55.6375 23.93 55.2563 23.82C54.5825 23.625 53.8813 23.4225 53.2875 23.0362C52.335 22.4212 51.8863 21.48 52.0238 20.3862C52.0704 19.9411 52.2143 19.5117 52.4452 19.1283C52.6761 18.7449 52.9884 18.4169 53.36 18.1675C54.1175 17.6562 55.1312 17.4375 56.3725 17.52C56.8792 17.552 57.382 17.629 57.875 17.75C58.2554 17.855 58.5792 18.1056 58.7761 18.4477C58.9729 18.7897 59.0271 19.1956 58.9268 19.5772C58.8265 19.9589 58.5798 20.2857 58.2401 20.4868C57.9005 20.6878 57.4954 20.7469 57.1125 20.6513C56.3175 20.4475 55.41 20.4625 55.1038 20.61C55.4275 20.7351 55.7575 20.8432 56.0925 20.9338C56.7775 21.1313 57.5525 21.355 58.1925 21.7862C59.1662 22.4437 59.625 23.4438 59.4725 24.6025V24.6063ZM50.5 19V23.75C50.5 24.7446 50.1049 25.6984 49.4017 26.4016C48.6984 27.1049 47.7446 27.5 46.75 27.5C45.7554 27.5 44.8016 27.1049 44.0983 26.4016C43.3951 25.6984 43 24.7446 43 23.75C43 23.3522 43.158 22.9706 43.4393 22.6893C43.7206 22.408 44.1022 22.25 44.5 22.25C44.8978 22.25 45.2794 22.408 45.5607 22.6893C45.842 22.9706 46 23.3522 46 23.75C46 23.9489 46.079 24.1397 46.2197 24.2803C46.3603 24.421 46.5511 24.5 46.75 24.5C46.9489 24.5 47.1397 24.421 47.2803 24.2803C47.421 24.1397 47.5 23.9489 47.5 23.75V19C47.5 18.6022 47.658 18.2206 47.9393 17.9393C48.2206 17.658 48.6022 17.5 49 17.5C49.3978 17.5 49.7794 17.658 50.0607 17.9393C50.342 18.2206 50.5 18.6022 50.5 19Z" fill="white"/>
</g>
<defs>
<clipPath id="clip0_27_7071">
<rect width="72" height="32" rx="5" fill="white"/>
</clipPath>
</defs>
</svg>
