<svg width="72" height="32" viewBox="0 0 72 32" fill="none" xmlns="http://www.w3.org/2000/svg">
<g clip-path="url(#clip0_27_7031)">
<path d="M6 22.5C6 23.875 6.8975 25 8 25C8.23654 24.9949 8.46966 24.9425 8.68563 24.8459C8.9016 24.7493 9.09604 24.6104 9.2575 24.4375C9.43081 24.2542 9.66563 24.1413 9.91701 24.1203C10.1684 24.0993 10.4187 24.1717 10.62 24.3237C10.7292 24.4102 10.8192 24.5185 10.8842 24.6418C10.9491 24.765 10.9876 24.9005 10.9971 25.0395C11.0066 25.1785 10.987 25.3179 10.9395 25.4489C10.892 25.5798 10.8177 25.6994 10.7212 25.8C10.3735 26.175 9.95265 26.4749 9.48467 26.6813C9.01669 26.8877 8.51145 26.9961 8 27C5.79375 27 4 24.9813 4 22.5C4 20.0187 5.79375 18 8 18C8.49952 18.0038 8.99324 18.1074 9.45218 18.3047C9.91111 18.502 10.326 18.7889 10.6725 19.1488C10.8576 19.3269 10.9697 19.5676 10.9868 19.824C11.0039 20.0803 10.9248 20.3338 10.765 20.535C10.6746 20.6424 10.5626 20.7296 10.4363 20.7908C10.31 20.8521 10.1722 20.8861 10.0318 20.8905C9.89153 20.895 9.75184 20.8699 9.62187 20.8168C9.49191 20.7638 9.37457 20.6839 9.2775 20.5825C9.11537 20.4036 8.91845 20.2597 8.69879 20.1596C8.47914 20.0594 8.24136 20.0051 8 20C6.8975 20 6 21.125 6 22.5ZM15.95 21.4137C15.45 21.2687 14.9325 21.12 14.6438 20.9338C14.4862 20.8325 14.49 20.8088 14.5037 20.6963C14.5056 20.6054 14.5293 20.5162 14.5728 20.4364C14.6163 20.3566 14.6784 20.2883 14.7537 20.2375C15.3287 19.8475 16.6725 20.0212 17.2325 20.1675C17.4891 20.235 17.762 20.1977 17.9911 20.064C18.2203 19.9303 18.3869 19.711 18.4544 19.4544C18.5218 19.1978 18.4846 18.9249 18.3509 18.6957C18.2171 18.4666 17.9978 18.3 17.7412 18.2325C17.4762 18.1637 15.1163 17.58 13.6375 18.5775C13.3243 18.7874 13.0612 19.0636 12.8668 19.3865C12.6724 19.7095 12.5514 20.0713 12.5125 20.4463C12.2625 22.4313 14.2175 22.9975 15.3875 23.335C16.8962 23.7712 17.0288 23.95 16.985 24.2838C16.9463 24.585 16.8275 24.7013 16.7175 24.775C16.1425 25.1575 14.8212 24.97 14.2738 24.82C14.0195 24.7526 13.749 24.788 13.5207 24.9186C13.2924 25.0492 13.1248 25.2645 13.0541 25.5178C12.9834 25.7711 13.0154 26.0421 13.1431 26.272C13.2707 26.5019 13.4839 26.6723 13.7362 26.7463C14.3558 26.9086 14.9933 26.9926 15.6337 26.9963C16.3625 26.9963 17.1712 26.8713 17.82 26.4387C18.1402 26.226 18.4093 25.9449 18.6079 25.6157C18.8065 25.2866 18.9298 24.9175 18.9688 24.535C19.25 22.375 17.185 21.7712 15.95 21.4137ZM23.95 21.4137C23.45 21.2687 22.9325 21.12 22.6437 20.9338C22.4875 20.8325 22.49 20.8088 22.5037 20.6963C22.5056 20.6054 22.5293 20.5162 22.5728 20.4364C22.6163 20.3566 22.6784 20.2883 22.7537 20.2375C23.3288 19.8475 24.6713 20.0212 25.2313 20.1675C25.4878 20.235 25.7607 20.1977 25.9899 20.064C26.219 19.9303 26.3857 19.711 26.4531 19.4544C26.5206 19.1978 26.4834 18.9249 26.3496 18.6957C26.2159 18.4666 25.9966 18.3 25.74 18.2325C25.4762 18.1637 23.115 17.58 21.6362 18.5775C21.3244 18.7882 21.0626 19.0647 20.8693 19.3876C20.676 19.7105 20.5559 20.0719 20.5175 20.4463C20.2675 22.4313 22.2237 22.9975 23.3925 23.335C24.9 23.7712 25.0325 23.95 24.99 24.2838C24.9513 24.585 24.8325 24.7013 24.7213 24.775C24.1462 25.1575 22.8263 24.97 22.2787 24.82C22.0228 24.7487 21.7491 24.782 21.5177 24.9126C21.2863 25.0432 21.1163 25.2603 21.045 25.5163C20.9737 25.7722 21.007 26.0459 21.1376 26.2773C21.2682 26.5087 21.4853 26.6787 21.7412 26.75C22.3612 26.9124 22.9991 26.9963 23.64 27C24.3675 27 25.1775 26.875 25.8263 26.4425C26.1463 26.2297 26.4152 25.9485 26.6136 25.6194C26.812 25.2902 26.935 24.9211 26.9737 24.5387C27.25 22.375 25.185 21.7712 23.9487 21.4137H23.95ZM5 14.5V5C5 4.46957 5.21071 3.96086 5.58579 3.58579C5.96086 3.21071 6.46957 3 7 3H19C19.1314 2.9999 19.2615 3.02568 19.3829 3.07586C19.5042 3.12605 19.6146 3.19967 19.7075 3.2925L26.7075 10.2925C26.8003 10.3854 26.8739 10.4958 26.9241 10.6172C26.9743 10.7385 27.0001 10.8686 27 11V14.5C27 14.6326 26.9473 14.7598 26.8536 14.8536C26.7598 14.9473 26.6326 15 26.5 15H5.5C5.36739 15 5.24021 14.9473 5.14645 14.8536C5.05268 14.7598 5 14.6326 5 14.5ZM19 11H24.5L19 5.5V11Z" fill="white"/>
<path d="M46 22.5C46 23.5837 46.6875 24.5 47.5 24.5C47.6738 24.4943 47.8446 24.4534 48.0021 24.3797C48.1596 24.306 48.3005 24.201 48.4163 24.0713C48.6914 23.7838 49.0695 23.6175 49.4673 23.6088C49.8651 23.6001 50.2501 23.7498 50.5375 24.025C50.8249 24.3002 50.9913 24.6782 51 25.076C51.0086 25.4739 50.8589 25.8588 50.5837 26.1462C50.1891 26.5701 49.712 26.9088 49.1817 27.1416C48.6514 27.3744 48.0791 27.4964 47.5 27.5C45.0187 27.5 43 25.25 43 22.5C43 19.75 45.0187 17.5 47.5 17.5C48.0791 17.5036 48.6514 17.6256 49.1817 17.8584C49.712 18.0912 50.1891 18.4299 50.5837 18.8538C50.8589 19.1412 51.0086 19.5261 51 19.924C50.9913 20.3218 50.8249 20.6998 50.5375 20.975C50.2501 21.2502 49.8651 21.3999 49.4673 21.3912C49.0695 21.3825 48.6914 21.2162 48.4163 20.9287C48.3005 20.799 48.1596 20.694 48.0021 20.6203C47.8446 20.5466 47.6738 20.5057 47.5 20.5C46.6875 20.5 46 21.4137 46 22.5ZM58.1887 21.7862C57.5487 21.355 56.7738 21.1313 56.0888 20.9338C55.7537 20.8432 55.4237 20.7351 55.1 20.61C55.4062 20.4625 56.3137 20.4475 57.1087 20.6513C57.4935 20.7529 57.9028 20.6975 58.2467 20.4973C58.5906 20.2971 58.8409 19.9685 58.9425 19.5837C59.0441 19.199 58.9887 18.7897 58.7885 18.4458C58.5883 18.1019 58.2597 17.8516 57.875 17.75C57.3828 17.6286 56.8809 17.5508 56.375 17.5175C55.1337 17.435 54.125 17.6525 53.3625 18.1637C52.9907 18.4133 52.6784 18.7415 52.4475 19.1251C52.2166 19.5088 52.0728 19.9384 52.0262 20.3838C51.8888 21.4763 52.3375 22.4175 53.29 23.0325C53.8875 23.4187 54.585 23.62 55.2587 23.815C55.6337 23.9263 56.2512 24.1025 56.4937 24.2563C56.4895 24.287 56.4806 24.3169 56.4675 24.345C56.2963 24.5387 55.27 24.5688 54.4187 24.3375C54.2278 24.2803 54.0274 24.2617 53.8292 24.2829C53.631 24.304 53.439 24.3645 53.2645 24.4606C53.0899 24.5568 52.9362 24.6868 52.8125 24.8431C52.6887 24.9993 52.5974 25.1786 52.5437 25.3706C52.4901 25.5626 52.4752 25.7633 52.5 25.961C52.5248 26.1588 52.5887 26.3496 52.6881 26.5224C52.7875 26.6952 52.9203 26.8464 53.0788 26.9672C53.2373 27.0881 53.4183 27.1761 53.6112 27.2262C54.2721 27.4041 54.9531 27.4961 55.6375 27.5C56.445 27.5 57.3538 27.3538 58.1038 26.8563C58.4835 26.6051 58.8031 26.2733 59.0397 25.8843C59.2763 25.4954 59.4241 25.0589 59.4725 24.6063C59.625 23.4412 59.1663 22.4412 58.1887 21.7838V21.7862ZM66.6887 21.7862C66.0487 21.355 65.2738 21.1313 64.5888 20.9338C64.2537 20.8432 63.9237 20.7351 63.6 20.61C63.9062 20.4625 64.8137 20.4475 65.6087 20.6513C65.9935 20.7529 66.4028 20.6975 66.7467 20.4973C67.0906 20.2971 67.3409 19.9685 67.4425 19.5837C67.5441 19.199 67.4887 18.7897 67.2885 18.4458C67.0883 18.1019 66.7597 17.8516 66.375 17.75C65.8828 17.6286 65.3809 17.5508 64.875 17.5175C63.6338 17.435 62.625 17.6525 61.8625 18.1637C61.4907 18.4133 61.1784 18.7415 60.9475 19.1251C60.7166 19.5088 60.5728 19.9384 60.5263 20.3838C60.3888 21.4763 60.8375 22.4175 61.79 23.0325C62.3875 23.4187 63.085 23.62 63.7588 23.815C64.1338 23.9263 64.7512 24.1025 64.9937 24.2563C64.9895 24.287 64.9806 24.3169 64.9675 24.345C64.7963 24.5387 63.77 24.5688 62.9188 24.3375C62.7278 24.2803 62.5274 24.2617 62.3292 24.2829C62.131 24.304 61.939 24.3645 61.7645 24.4606C61.5899 24.5568 61.4362 24.6868 61.3125 24.8431C61.1887 24.9993 61.0974 25.1786 61.0437 25.3706C60.9901 25.5626 60.9752 25.7633 61 25.961C61.0248 26.1588 61.0887 26.3496 61.1881 26.5224C61.2875 26.6952 61.4204 26.8464 61.5788 26.9672C61.7373 27.0881 61.9183 27.1761 62.1112 27.2262C62.7721 27.4041 63.4531 27.4961 64.1375 27.5C64.945 27.5 65.8538 27.3538 66.6038 26.8563C66.9835 26.6051 67.3031 26.2733 67.5397 25.8843C67.7763 25.4954 67.9241 25.0589 67.9725 24.6063C68.125 23.4412 67.6663 22.4412 66.6887 21.7838V21.7862ZM44.5 13.5V5C44.5 4.33696 44.7634 3.70107 45.2322 3.23223C45.7011 2.76339 46.337 2.5 47 2.5H59C59.197 2.49985 59.3922 2.53851 59.5743 2.6138C59.7564 2.68908 59.9218 2.7995 60.0613 2.93875L67.0613 9.93875C67.2005 10.0782 67.3109 10.2436 67.3862 10.4257C67.4615 10.6078 67.5002 10.803 67.5 11V13.5C67.5 13.8978 67.342 14.2794 67.0607 14.5607C66.7794 14.842 66.3978 15 66 15C65.6022 15 65.2206 14.842 64.9393 14.5607C64.658 14.2794 64.5 13.8978 64.5 13.5V13H58.5C58.1022 13 57.7206 12.842 57.4393 12.5607C57.158 12.2794 57 11.8978 57 11.5V5.5H47.5V13.5C47.5 13.8978 47.342 14.2794 47.0607 14.5607C46.7794 14.842 46.3978 15 46 15C45.6022 15 45.2206 14.842 44.9393 14.5607C44.658 14.2794 44.5 13.8978 44.5 13.5ZM60 10H62.875L60 7.125V10Z" fill="white"/>
</g>
<defs>
<clipPath id="clip0_27_7031">
<rect width="72" height="32" rx="5" fill="white"/>
</clipPath>
</defs>
</svg>
