<svg width="72" height="32" viewBox="0 0 72 32" fill="none" xmlns="http://www.w3.org/2000/svg">
<g clip-path="url(#clip0_27_7051)">
<path d="M5.5 16H26.5C26.6326 16 26.7598 15.9473 26.8536 15.8536C26.9473 15.7598 27 15.6326 27 15.5V11C27.0001 10.8686 26.9743 10.7385 26.9241 10.6172C26.8739 10.4958 26.8003 10.3854 26.7075 10.2925L19.7075 3.2925C19.6146 3.19967 19.5042 3.12605 19.3829 3.07586C19.2615 3.02568 19.1314 2.9999 19 3H7C6.46957 3 5.96086 3.21071 5.58579 3.58579C5.21071 3.96086 5 4.46957 5 5V15.5C5 15.6326 5.05268 15.7598 5.14645 15.8536C5.24021 15.9473 5.36739 16 5.5 16ZM19 5.5L24.5 11H19V5.5ZM8.5 20V26C8.5 26.2652 8.39464 26.5196 8.20711 26.7071C8.01957 26.8946 7.76522 27 7.5 27C7.23478 27 6.98043 26.8946 6.79289 26.7071C6.60536 26.5196 6.5 26.2652 6.5 26V24H4V26C4 26.2652 3.89464 26.5196 3.70711 26.7071C3.51957 26.8946 3.26522 27 3 27C2.73478 27 2.48043 26.8946 2.29289 26.7071C2.10536 26.5196 2 26.2652 2 26V20C2 19.7348 2.10536 19.4804 2.29289 19.2929C2.48043 19.1054 2.73478 19 3 19C3.26522 19 3.51957 19.1054 3.70711 19.2929C3.89464 19.4804 4 19.7348 4 20V22H6.5V20C6.5 19.7348 6.60536 19.4804 6.79289 19.2929C6.98043 19.1054 7.23478 19 7.5 19C7.76522 19 8.01957 19.1054 8.20711 19.2929C8.39464 19.4804 8.5 19.7348 8.5 20ZM15.5 20C15.5 20.2652 15.3946 20.5196 15.2071 20.7071C15.0196 20.8946 14.7652 21 14.5 21H13.5V26C13.5 26.2652 13.3946 26.5196 13.2071 26.7071C13.0196 26.8946 12.7652 27 12.5 27C12.2348 27 11.9804 26.8946 11.7929 26.7071C11.6054 26.5196 11.5 26.2652 11.5 26V21H10.5C10.2348 21 9.98043 20.8946 9.79289 20.7071C9.60536 20.5196 9.5 20.2652 9.5 20C9.5 19.7348 9.60536 19.4804 9.79289 19.2929C9.98043 19.1054 10.2348 19 10.5 19H14.5C14.7652 19 15.0196 19.1054 15.2071 19.2929C15.3946 19.4804 15.5 19.7348 15.5 20ZM24.5 20V26C24.5 26.2652 24.3946 26.5196 24.2071 26.7071C24.0196 26.8946 23.7652 27 23.5 27C23.2348 27 22.9804 26.8946 22.7929 26.7071C22.6054 26.5196 22.5 26.2652 22.5 26V23L21.3 24.6C21.2069 24.7242 21.0861 24.825 20.9472 24.8944C20.8084 24.9639 20.6552 25 20.5 25C20.3448 25 20.1916 24.9639 20.0528 24.8944C19.9139 24.825 19.7931 24.7242 19.7 24.6L18.5 23V26C18.5 26.2652 18.3946 26.5196 18.2071 26.7071C18.0196 26.8946 17.7652 27 17.5 27C17.2348 27 16.9804 26.8946 16.7929 26.7071C16.6054 26.5196 16.5 26.2652 16.5 26V20C16.5 19.7901 16.566 19.5856 16.6888 19.4153C16.8115 19.245 16.9847 19.1177 17.1838 19.0513C17.3829 18.9849 17.5978 18.9829 17.7982 19.0455C17.9985 19.1081 18.1741 19.2321 18.3 19.4L20.5 22.3337L22.7 19.4C22.8259 19.2321 23.0015 19.1081 23.2018 19.0455C23.4022 18.9829 23.6171 18.9849 23.8162 19.0513C24.0153 19.1177 24.1885 19.245 24.3112 19.4153C24.434 19.5856 24.5 19.7901 24.5 20ZM31.5 26C31.5 26.2652 31.3946 26.5196 31.2071 26.7071C31.0196 26.8946 30.7652 27 30.5 27H27C26.7348 27 26.4804 26.8946 26.2929 26.7071C26.1054 26.5196 26 26.2652 26 26V20C26 19.7348 26.1054 19.4804 26.2929 19.2929C26.4804 19.1054 26.7348 19 27 19C27.2652 19 27.5196 19.1054 27.7071 19.2929C27.8946 19.4804 28 19.7348 28 20V25H30.5C30.7652 25 31.0196 25.1054 31.2071 25.2929C31.3946 25.4804 31.5 25.7348 31.5 26Z" fill="white"/>
<path d="M46 16C46.3978 16 46.7794 15.842 47.0607 15.5607C47.342 15.2794 47.5 14.8978 47.5 14.5V5.5H57V11.5C57 11.8978 57.158 12.2794 57.4393 12.5607C57.7206 12.842 58.1022 13 58.5 13H64.5V14.5C64.5 14.8978 64.658 15.2794 64.9393 15.5607C65.2206 15.842 65.6022 16 66 16C66.3978 16 66.7794 15.842 67.0607 15.5607C67.342 15.2794 67.5 14.8978 67.5 14.5V11C67.5002 10.803 67.4615 10.6078 67.3862 10.4257C67.3109 10.2436 67.2005 10.0782 67.0613 9.93875L60.0613 2.93875C59.9218 2.7995 59.7564 2.68908 59.5743 2.6138C59.3922 2.53851 59.197 2.49985 59 2.5H47C46.337 2.5 45.7011 2.76339 45.2322 3.23223C44.7634 3.70107 44.5 4.33696 44.5 5V14.5C44.5 14.8978 44.658 15.2794 44.9393 15.5607C45.2206 15.842 45.6022 16 46 16ZM62.875 10H60V7.125L62.875 10ZM48.5 20V26C48.5 26.3978 48.342 26.7794 48.0607 27.0607C47.7794 27.342 47.3978 27.5 47 27.5C46.6022 27.5 46.2206 27.342 45.9393 27.0607C45.658 26.7794 45.5 26.3978 45.5 26V24.5H44V26C44 26.3978 43.842 26.7794 43.5607 27.0607C43.2794 27.342 42.8978 27.5 42.5 27.5C42.1022 27.5 41.7206 27.342 41.4393 27.0607C41.158 26.7794 41 26.3978 41 26V20C41 19.6022 41.158 19.2206 41.4393 18.9393C41.7206 18.658 42.1022 18.5 42.5 18.5C42.8978 18.5 43.2794 18.658 43.5607 18.9393C43.842 19.2206 44 19.6022 44 20V21.5H45.5V20C45.5 19.6022 45.658 19.2206 45.9393 18.9393C46.2206 18.658 46.6022 18.5 47 18.5C47.3978 18.5 47.7794 18.658 48.0607 18.9393C48.342 19.2206 48.5 19.6022 48.5 20ZM56 20C56 20.3978 55.842 20.7794 55.5607 21.0607C55.2794 21.342 54.8978 21.5 54.5 21.5H54V26C54 26.3978 53.842 26.7794 53.5607 27.0607C53.2794 27.342 52.8978 27.5 52.5 27.5C52.1022 27.5 51.7206 27.342 51.4393 27.0607C51.158 26.7794 51 26.3978 51 26V21.5H50.5C50.1022 21.5 49.7206 21.342 49.4393 21.0607C49.158 20.7794 49 20.3978 49 20C49 19.6022 49.158 19.2206 49.4393 18.9393C49.7206 18.658 50.1022 18.5 50.5 18.5H54.5C54.8978 18.5 55.2794 18.658 55.5607 18.9393C55.842 19.2206 56 19.6022 56 20ZM65 20V26C65 26.3978 64.842 26.7794 64.5607 27.0607C64.2794 27.342 63.8978 27.5 63.5 27.5C63.1022 27.5 62.7206 27.342 62.4393 27.0607C62.158 26.7794 62 26.3978 62 26V24.83L61.9862 24.85C61.8484 25.0506 61.6638 25.2146 61.4485 25.3279C61.2331 25.4413 60.9934 25.5005 60.75 25.5005C60.5066 25.5005 60.2669 25.4413 60.0515 25.3279C59.8362 25.2146 59.6516 25.0506 59.5138 24.85L59.5 24.83V26C59.5 26.3978 59.342 26.7794 59.0607 27.0607C58.7794 27.342 58.3978 27.5 58 27.5C57.6022 27.5 57.2206 27.342 56.9393 27.0607C56.658 26.7794 56.5 26.3978 56.5 26V20C56.4999 19.6798 56.6022 19.368 56.7921 19.1102C56.9819 18.8524 57.2492 18.662 57.555 18.567C57.8608 18.4721 58.1889 18.4774 58.4914 18.5823C58.7939 18.6872 59.0549 18.8861 59.2362 19.15L60.75 21.3525L62.2638 19.15C62.4451 18.8861 62.7061 18.6872 63.0086 18.5823C63.3111 18.4774 63.6392 18.4721 63.945 18.567C64.2508 18.662 64.5181 18.8524 64.7079 19.1102C64.8978 19.368 65.0001 19.6798 65 20ZM72 26C72 26.3978 71.842 26.7794 71.5607 27.0607C71.2794 27.342 70.8978 27.5 70.5 27.5H67.5C67.1022 27.5 66.7206 27.342 66.4393 27.0607C66.158 26.7794 66 26.3978 66 26V20C66 19.6022 66.158 19.2206 66.4393 18.9393C66.7206 18.658 67.1022 18.5 67.5 18.5C67.8978 18.5 68.2794 18.658 68.5607 18.9393C68.842 19.2206 69 19.6022 69 20V24.5H70.5C70.8978 24.5 71.2794 24.658 71.5607 24.9393C71.842 25.2206 72 25.6022 72 26Z" fill="white"/>
</g>
<defs>
<clipPath id="clip0_27_7051">
<rect width="72" height="32" rx="5" fill="white"/>
</clipPath>
</defs>
</svg>
