<svg width="72" height="32" viewBox="0 0 72 32" fill="none" xmlns="http://www.w3.org/2000/svg">
<g clip-path="url(#clip0_27_7016)">
<path d="M20 22.625C19.9653 24.3265 19.2655 25.9468 18.0505 27.1385C16.8354 28.3301 15.2019 28.9984 13.5 29H7.59C5.10875 29 3 26.9713 3 24.49C3.00209 23.671 3.22763 22.8682 3.65231 22.1679C4.077 21.4677 4.68472 20.8966 5.41 20.5163C5.49362 20.4727 5.58784 20.4537 5.68179 20.4614C5.77575 20.4691 5.86561 20.5032 5.94101 20.5598C6.01641 20.6164 6.07428 20.6932 6.10794 20.7812C6.1416 20.8693 6.14968 20.965 6.13125 21.0575C6.04865 21.5175 6.00682 21.9839 6.00625 22.4513C5.99985 22.7125 6.09323 22.9664 6.2674 23.1612C6.44156 23.356 6.68342 23.4772 6.94375 23.5C7.07973 23.5077 7.21584 23.4875 7.34373 23.4407C7.47162 23.3938 7.58861 23.3214 7.68751 23.2278C7.78641 23.1341 7.86514 23.0213 7.91887 22.8961C7.97261 22.771 8.00022 22.6362 8 22.5C7.99841 21.6369 8.18481 20.7838 8.54625 20C9.12091 18.7453 10.1105 17.727 11.3483 17.1168C12.5862 16.5066 13.9965 16.3417 15.3417 16.65C16.6869 16.9583 17.8846 17.7209 18.7332 18.8093C19.5817 19.8976 20.0291 21.2453 20 22.625ZM27 11V27C27 27.5304 26.7893 28.0391 26.4142 28.4142C26.0391 28.7893 25.5304 29 25 29H22C21.7348 29 21.4804 28.8946 21.2929 28.7071C21.1054 28.5196 21 28.2652 21 28C21 27.7348 21.1054 27.4804 21.2929 27.2929C21.4804 27.1054 21.7348 27 22 27H25V12H19C18.7348 12 18.4804 11.8946 18.2929 11.7071C18.1054 11.5196 18 11.2652 18 11V5H7V16C7 16.2652 6.89464 16.5196 6.70711 16.7071C6.51957 16.8946 6.26522 17 6 17C5.73478 17 5.48043 16.8946 5.29289 16.7071C5.10536 16.5196 5 16.2652 5 16V5C5 4.46957 5.21071 3.96086 5.58579 3.58579C5.96086 3.21071 6.46957 3 7 3H19C19.1314 2.9999 19.2615 3.02568 19.3829 3.07586C19.5042 3.12605 19.6146 3.19967 19.7075 3.2925L26.7075 10.2925C26.8003 10.3854 26.8739 10.4958 26.9241 10.6172C26.9743 10.7385 27.0001 10.8686 27 11ZM23.5863 10L20 6.41375V10H23.5863Z" fill="white"/>
<path d="M67.0612 9.94L60.0612 2.94C59.9219 2.80052 59.7565 2.68987 59.5744 2.61437C59.3923 2.53887 59.1971 2.50001 59 2.5H47C46.3369 2.5 45.701 2.76339 45.2322 3.23223C44.7634 3.70107 44.5 4.33696 44.5 5V15.5C44.5 15.8978 44.658 16.2794 44.9393 16.5607C45.2206 16.842 45.6021 17 46 17C46.3978 17 46.7793 16.842 47.0606 16.5607C47.3419 16.2794 47.5 15.8978 47.5 15.5V5.5H57V11.5C57 11.8978 57.158 12.2794 57.4393 12.5607C57.7206 12.842 58.1021 13 58.5 13H64.5V26.5H62.5C62.1021 26.5 61.7206 26.658 61.4393 26.9393C61.158 27.2206 61 27.6022 61 28C61 28.3978 61.158 28.7794 61.4393 29.0607C61.7206 29.342 62.1021 29.5 62.5 29.5H65C65.663 29.5 66.2989 29.2366 66.7677 28.7678C67.2366 28.2989 67.5 27.663 67.5 27V11C67.4999 10.6025 67.3421 10.2212 67.0612 9.94ZM60 7.125L62.875 10H60V7.125ZM53.5 15.5C52.173 15.4997 50.8732 15.8767 49.7523 16.5869C48.6313 17.2971 47.7353 18.3113 47.1687 19.5112C45.8749 19.5982 44.6655 20.1843 43.7957 21.146C42.9259 22.1077 42.4637 23.3697 42.5067 24.6657C42.5496 25.9617 43.0944 27.1903 44.026 28.0923C44.9577 28.9942 46.2033 29.499 47.5 29.5H53.5C55.3565 29.5 57.137 28.7625 58.4497 27.4497C59.7625 26.137 60.5 24.3565 60.5 22.5C60.5 20.6435 59.7625 18.863 58.4497 17.5503C57.137 16.2375 55.3565 15.5 53.5 15.5ZM53.5 26.5H47.5C47.0422 26.4999 46.5984 26.3427 46.2426 26.0548C45.8868 25.7669 45.6405 25.3656 45.5448 24.918C45.4491 24.4704 45.5099 24.0035 45.7169 23.5953C45.924 23.1871 46.2648 22.8622 46.6825 22.675C46.8291 22.9662 47.0665 23.2017 47.359 23.3459C47.6514 23.49 47.9828 23.535 48.303 23.474C48.6233 23.413 48.915 23.2492 49.1339 23.0076C49.3527 22.766 49.487 22.4597 49.5162 22.135C49.5363 21.9114 49.5748 21.6898 49.6312 21.4725C49.6462 21.4275 49.6587 21.3825 49.67 21.3363C49.8855 20.6275 50.2936 19.9925 50.8488 19.5021C51.404 19.0117 52.0844 18.6851 52.8144 18.5587C53.5443 18.4323 54.2949 18.511 54.9827 18.7862C55.6705 19.0613 56.2684 19.5221 56.7097 20.1171C57.151 20.7121 57.4184 21.4179 57.4821 22.1559C57.5458 22.894 57.4033 23.6352 57.0705 24.297C56.7377 24.9588 56.2277 25.5152 55.5973 25.9042C54.9668 26.2932 54.2407 26.4994 53.5 26.5Z" fill="white"/>
</g>
<defs>
<clipPath id="clip0_27_7016">
<rect width="72" height="32" rx="5" fill="white"/>
</clipPath>
</defs>
</svg>
