<svg width="72" height="32" viewBox="0 0 72 32" fill="none" xmlns="http://www.w3.org/2000/svg">
<g clip-path="url(#clip0_27_3764)">
<path d="M27 5H5C4.46957 5 3.96086 5.21071 3.58579 5.58579C3.21071 5.96086 3 6.46957 3 7V25C3 25.5304 3.21071 26.0391 3.58579 26.4142C3.96086 26.7893 4.46957 27 5 27H27C27.5304 27 28.0391 26.7893 28.4142 26.4142C28.7893 26.0391 29 25.5304 29 25V7C29 6.46957 28.7893 5.96086 28.4142 5.58579C28.0391 5.21071 27.5304 5 27 5ZM23 7H27V9H23V7ZM9 25H5V23H9V25ZM9 9H5V7H9V9ZM15 25H11V23H15V25ZM15 9H11V7H15V9ZM21 25H17V23H21V25ZM21 9H17V7H21V9ZM27 25H23V23H27V25Z" fill="white"/>
<path d="M67 4.5H45C44.337 4.5 43.7011 4.76339 43.2322 5.23223C42.7634 5.70107 42.5 6.33696 42.5 7V25C42.5 25.663 42.7634 26.2989 43.2322 26.7678C43.7011 27.2366 44.337 27.5 45 27.5H67C67.663 27.5 68.2989 27.2366 68.7678 26.7678C69.2366 26.2989 69.5 25.663 69.5 25V7C69.5 6.33696 69.2366 5.70107 68.7678 5.23223C68.2989 4.76339 67.663 4.5 67 4.5ZM45.5 12.5H54.5V19.5H45.5V12.5ZM57.5 9.5V7.5H60.5V9.5H57.5ZM54.5 9.5H51.5V7.5H54.5V9.5ZM54.5 22.5V24.5H51.5V22.5H54.5ZM57.5 22.5H60.5V24.5H57.5V22.5ZM57.5 19.5V12.5H66.5V19.5H57.5ZM66.5 9.5H63.5V7.5H66.5V9.5ZM48.5 7.5V9.5H45.5V7.5H48.5ZM45.5 22.5H48.5V24.5H45.5V22.5ZM63.5 24.5V22.5H66.5V24.5H63.5Z" fill="white"/>
</g>
<defs>
<clipPath id="clip0_27_3764">
<rect width="72" height="32" rx="5" fill="white"/>
</clipPath>
</defs>
</svg>
