<svg width="72" height="32" viewBox="0 0 72 32" fill="none" xmlns="http://www.w3.org/2000/svg">
<g clip-path="url(#clip0_27_3749)">
<path d="M29.0002 27H22.9202C25.5693 25.331 27.5267 22.7615 28.4322 19.7642C29.3378 16.7669 29.1306 13.5435 27.8488 10.6868C26.567 7.83014 24.2967 5.53238 21.4557 4.21623C18.6147 2.90008 15.394 2.65405 12.386 3.5234C9.37805 4.39276 6.78516 6.31902 5.08431 8.94785C3.38347 11.5767 2.68906 14.7313 3.12884 17.8313C3.56862 20.9313 5.113 23.7683 7.47788 25.8204C9.84277 27.8724 12.8691 29.0015 16.0002 29H29.0002C29.2654 29 29.5198 28.8946 29.7073 28.7071C29.8948 28.5196 30.0002 28.2652 30.0002 28C30.0002 27.7348 29.8948 27.4804 29.7073 27.2929C29.5198 27.1054 29.2654 27 29.0002 27ZM10.0002 18.5C9.50573 18.5 9.02238 18.3534 8.61126 18.0787C8.20013 17.804 7.8797 17.4135 7.69048 16.9567C7.50126 16.4999 7.45176 15.9972 7.54822 15.5123C7.64468 15.0273 7.88278 14.5819 8.23242 14.2322C8.58205 13.8826 9.0275 13.6445 9.51246 13.548C9.99741 13.4516 10.5001 13.5011 10.9569 13.6903C11.4137 13.8795 11.8042 14.2 12.0789 14.6111C12.3536 15.0222 12.5002 15.5056 12.5002 16C12.5002 16.663 12.2368 17.2989 11.7679 17.7678C11.2991 18.2366 10.6632 18.5 10.0002 18.5ZM16.0002 24.5C15.5057 24.5 15.0224 24.3534 14.6113 24.0787C14.2001 23.804 13.8797 23.4135 13.6905 22.9567C13.5013 22.4999 13.4518 21.9972 13.5482 21.5123C13.6447 21.0273 13.8828 20.5819 14.2324 20.2322C14.582 19.8826 15.0275 19.6445 15.5125 19.548C15.9974 19.4516 16.5001 19.5011 16.9569 19.6903C17.4137 19.8795 17.8042 20.2 18.0789 20.6111C18.3536 21.0222 18.5002 21.5056 18.5002 22C18.5002 22.663 18.2368 23.2989 17.7679 23.7678C17.2991 24.2366 16.6632 24.5 16.0002 24.5ZM16.0002 12.5C15.5057 12.5 15.0224 12.3534 14.6113 12.0787C14.2001 11.804 13.8797 11.4135 13.6905 10.9567C13.5013 10.4999 13.4518 9.99723 13.5482 9.51228C13.6447 9.02733 13.8828 8.58187 14.2324 8.23224C14.582 7.88261 15.0275 7.6445 15.5125 7.54804C15.9974 7.45158 16.5001 7.50109 16.9569 7.69031C17.4137 7.87952 17.8042 8.19996 18.0789 8.61108C18.3536 9.0222 18.5002 9.50555 18.5002 10C18.5002 10.663 18.2368 11.2989 17.7679 11.7678C17.2991 12.2366 16.6632 12.5 16.0002 12.5ZM19.5002 16C19.5002 15.5056 19.6468 15.0222 19.9215 14.6111C20.1962 14.2 20.5867 13.8795 21.0435 13.6903C21.5003 13.5011 22.003 13.4516 22.4879 13.548C22.9729 13.6445 23.4183 13.8826 23.768 14.2322C24.1176 14.5819 24.3557 15.0273 24.4521 15.5123C24.5486 15.9972 24.4991 16.4999 24.3099 16.9567C24.1207 17.4135 23.8002 17.804 23.3891 18.0787C22.978 18.3534 22.4946 18.5 22.0002 18.5C21.3371 18.5 20.7013 18.2366 20.2324 17.7678C19.7636 17.2989 19.5002 16.663 19.5002 16Z" fill="white"/>
<path d="M69.0002 26.5H64.4752C66.9505 24.4988 68.6386 21.687 69.2411 18.5615C69.8436 15.436 69.3218 12.1982 67.7677 9.42025C66.2137 6.64234 63.7277 4.50328 60.749 3.38118C57.7703 2.25908 54.4908 2.22621 51.4902 3.28836C48.4896 4.35052 45.9611 6.43931 44.3517 9.18551C42.7424 11.9317 42.1557 15.1585 42.6954 18.2954C43.2352 21.4323 44.8666 24.2775 47.3013 26.3278C49.7359 28.3782 52.8171 29.5018 56.0002 29.5H69.0002C69.398 29.5 69.7795 29.342 70.0608 29.0607C70.3421 28.7794 70.5002 28.3978 70.5002 28C70.5002 27.6022 70.3421 27.2206 70.0608 26.9393C69.7795 26.658 69.398 26.5 69.0002 26.5ZM45.5002 16C45.5002 13.9233 46.116 11.8932 47.2697 10.1665C48.4235 8.43979 50.0634 7.09398 51.982 6.29926C53.9006 5.50454 56.0118 5.29661 58.0486 5.70175C60.0854 6.1069 61.9563 7.10692 63.4248 8.57538C64.8932 10.0438 65.8933 11.9147 66.2984 13.9515C66.7036 15.9883 66.4956 18.0995 65.7009 20.0182C64.9062 21.9368 63.5604 23.5767 61.8336 24.7304C60.1069 25.8842 58.0769 26.5 56.0002 26.5C53.2163 26.497 50.5473 25.3898 48.5788 23.4213C46.6103 21.4528 45.5031 18.7839 45.5002 16ZM53.5002 10.5C53.5002 10.0055 53.6468 9.52219 53.9215 9.11107C54.1962 8.69995 54.5866 8.37952 55.0435 8.1903C55.5003 8.00108 56.0029 7.95157 56.4879 8.04803C56.9728 8.1445 57.4183 8.3826 57.7679 8.73223C58.1176 9.08186 58.3557 9.52732 58.4521 10.0123C58.5486 10.4972 58.4991 10.9999 58.3099 11.4567C58.1206 11.9135 57.8002 12.304 57.3891 12.5787C56.978 12.8534 56.4946 13 56.0002 13C55.3371 13 54.7012 12.7366 54.2324 12.2678C53.7636 11.7989 53.5002 11.163 53.5002 10.5ZM56.0002 24C55.5057 24 55.0224 23.8534 54.6112 23.5787C54.2001 23.304 53.8797 22.9135 53.6905 22.4567C53.5012 21.9999 53.4517 21.4972 53.5482 21.0123C53.6447 20.5273 53.8828 20.0819 54.2324 19.7322C54.582 19.3826 55.0275 19.1445 55.5124 19.048C55.9974 18.9516 56.5001 19.0011 56.9569 19.1903C57.4137 19.3795 57.8041 19.6999 58.0788 20.1111C58.3535 20.5222 58.5002 21.0055 58.5002 21.5C58.5002 21.8283 58.4355 22.1534 58.3099 22.4567C58.1842 22.76 58.0001 23.0356 57.7679 23.2678C57.5358 23.4999 57.2602 23.6841 56.9569 23.8097C56.6536 23.9353 56.3285 24 56.0002 24ZM59.0002 16C59.0002 15.5055 59.1468 15.0222 59.4215 14.6111C59.6962 14.1999 60.0866 13.8795 60.5435 13.6903C61.0003 13.5011 61.5029 13.4516 61.9879 13.548C62.4728 13.6445 62.9183 13.8826 63.2679 14.2322C63.6176 14.5819 63.8557 15.0273 63.9521 15.5123C64.0486 15.9972 63.9991 16.4999 63.8099 16.9567C63.6206 17.4135 63.3002 17.804 62.8891 18.0787C62.478 18.3534 61.9946 18.5 61.5002 18.5C60.8371 18.5 60.2012 18.2366 59.7324 17.7678C59.2636 17.2989 59.0002 16.663 59.0002 16ZM53.0002 16C53.0002 16.4945 52.8535 16.9778 52.5788 17.3889C52.3041 17.8 51.9137 18.1205 51.4569 18.3097C51.0001 18.4989 50.4974 18.5484 50.0124 18.452C49.5275 18.3555 49.082 18.1174 48.7324 17.7678C48.3828 17.4181 48.1447 16.9727 48.0482 16.4877C47.9517 16.0028 48.0012 15.5001 48.1905 15.0433C48.3797 14.5865 48.7001 14.196 49.1112 13.9213C49.5224 13.6466 50.0057 13.5 50.5002 13.5C51.1632 13.5 51.7991 13.7634 52.2679 14.2322C52.7368 14.7011 53.0002 15.337 53.0002 16Z" fill="white"/>
</g>
<defs>
<clipPath id="clip0_27_3749">
<rect width="72" height="32" rx="5" fill="white"/>
</clipPath>
</defs>
</svg>
