<svg width="72" height="32" viewBox="0 0 72 32" fill="none" xmlns="http://www.w3.org/2000/svg">
<g clip-path="url(#clip0_27_3759)">
<path d="M27.0004 13H12.7617L26.2504 9.43876C26.3781 9.40511 26.4979 9.34652 26.6028 9.26635C26.7077 9.18619 26.7957 9.08604 26.8617 8.97169C26.9277 8.85733 26.9704 8.73104 26.9874 8.6001C27.0043 8.46915 26.9952 8.33614 26.9604 8.20876L25.9404 4.45876C25.8 3.95424 25.4666 3.52534 25.0122 3.26494C24.5578 3.00454 24.0192 2.93361 23.5129 3.06751L4.47668 8.09251C4.22321 8.1583 3.98542 8.274 3.77722 8.43283C3.56903 8.59166 3.39461 8.79043 3.26418 9.01751C3.13302 9.24179 3.04828 9.49015 3.015 9.74783C2.98171 10.0055 3.00056 10.2673 3.07043 10.5175L4.00043 13.945C4.00043 13.9625 4.00043 13.9813 4.00043 14V25C4.00043 25.5304 4.21114 26.0391 4.58621 26.4142C4.96129 26.7893 5.46999 27 6.00043 27H26.0004C26.5309 27 27.0396 26.7893 27.4146 26.4142C27.7897 26.0391 28.0004 25.5304 28.0004 25V14C28.0004 13.7348 27.8951 13.4804 27.7075 13.2929C27.52 13.1054 27.2656 13 27.0004 13ZM24.0204 5.00001L24.7704 7.75876L20.5717 8.87501L17.0554 6.84001L24.0204 5.00001ZM9.69418 8.78376L13.2092 10.8138L5.75918 12.78L5.00918 10.02L9.69418 8.78376Z" fill="white"/>
<path d="M67.0004 12.5H56.6154L66.3829 9.92125C66.5742 9.87078 66.7537 9.78293 66.911 9.66277C67.0683 9.5426 67.2002 9.3925 67.2992 9.22111C67.3982 9.04972 67.4623 8.86044 67.4878 8.66416C67.5134 8.46789 67.4998 8.2685 67.4479 8.0775L66.4279 4.3275C66.2526 3.6958 65.8356 3.15857 65.267 2.83219C64.6985 2.50581 64.0242 2.41655 63.3904 2.58375L44.3491 7.60875C44.0319 7.69141 43.7343 7.83645 43.4737 8.0354C43.2132 8.23436 42.9949 8.48323 42.8316 8.7675C42.668 9.04799 42.5622 9.35837 42.5203 9.68038C42.4785 10.0024 42.5014 10.3295 42.5879 10.6425L43.5004 14V25C43.5004 25.663 43.7638 26.2989 44.2326 26.7678C44.7014 27.2366 45.3373 27.5 46.0004 27.5H66.0004C66.6634 27.5 67.2993 27.2366 67.7681 26.7678C68.237 26.2989 68.5004 25.663 68.5004 25V14C68.5004 13.6022 68.3423 13.2206 68.061 12.9393C67.7797 12.658 67.3982 12.5 67.0004 12.5ZM55.6116 7.73875L57.8979 9.05875L54.6541 9.915L52.3679 8.595L55.6116 7.73875ZM63.6679 5.61375L64.1566 7.4075L62.0154 7.9725L59.7291 6.65125L63.6679 5.61375ZM48.2504 9.6825L50.5366 11L46.1116 12.1688L45.6254 10.375L48.2504 9.6825ZM65.5004 24.5H46.5004V15.5H65.5004V24.5Z" fill="white"/>
</g>
<defs>
<clipPath id="clip0_27_3759">
<rect width="72" height="32" rx="5" fill="white"/>
</clipPath>
</defs>
</svg>
