<svg width="72" height="32" viewBox="0 0 72 32" fill="none" xmlns="http://www.w3.org/2000/svg">
<g clip-path="url(#clip0_27_4690)">
<path d="M22 18.5C22 18.7967 21.912 19.0867 21.7472 19.3333C21.5824 19.58 21.3481 19.7723 21.074 19.8858C20.7999 19.9993 20.4983 20.029 20.2074 19.9712C19.9164 19.9133 19.6491 19.7704 19.4393 19.5607C19.2296 19.3509 19.0867 19.0836 19.0288 18.7926C18.971 18.5017 19.0007 18.2001 19.1142 17.926C19.2277 17.6519 19.42 17.4176 19.6667 17.2528C19.9133 17.088 20.2033 17 20.5 17C20.8978 17 21.2794 17.158 21.5607 17.4393C21.842 17.7206 22 18.1022 22 18.5ZM11.5 17C11.2033 17 10.9133 17.088 10.6667 17.2528C10.42 17.4176 10.2277 17.6519 10.1142 17.926C10.0007 18.2001 9.97095 18.5017 10.0288 18.7926C10.0867 19.0836 10.2296 19.3509 10.4393 19.5607C10.6491 19.7704 10.9164 19.9133 11.2074 19.9712C11.4983 20.029 11.7999 19.9993 12.074 19.8858C12.3481 19.7723 12.5824 19.58 12.7472 19.3333C12.912 19.0867 13 18.7967 13 18.5C13 18.1022 12.842 17.7206 12.5607 17.4393C12.2794 17.158 11.8978 17 11.5 17ZM30 8.99999V19C29.9974 21.3861 29.0483 23.6738 27.361 25.361C25.6738 27.0483 23.3861 27.9973 21 28H11C8.61387 27.9973 6.32622 27.0483 4.63897 25.361C2.95172 23.6738 2.00265 21.3861 2.00001 19V8.99999C1.99809 8.02504 2.35231 7.08296 2.9961 6.3508C3.63989 5.61863 4.52893 5.1468 5.49611 5.02399C6.46329 4.90117 7.44204 5.13582 8.24839 5.68384C9.05475 6.23186 9.63319 7.05551 9.87501 7.99999H22.125C22.3668 7.05551 22.9453 6.23186 23.7516 5.68384C24.558 5.13582 25.5367 4.90117 26.5039 5.02399C27.4711 5.1468 28.3601 5.61863 29.0039 6.3508C29.6477 7.08296 30.0019 8.02504 30 8.99999ZM25 18C25 16.9391 24.5786 15.9217 23.8284 15.1716C23.0783 14.4214 22.0609 14 21 14H11C9.93914 14 8.92173 14.4214 8.17158 15.1716C7.42143 15.9217 7.00001 16.9391 7.00001 18V19C7.00001 20.0609 7.42143 21.0783 8.17158 21.8284C8.92173 22.5786 9.93914 23 11 23H21C22.0609 23 23.0783 22.5786 23.8284 21.8284C24.5786 21.0783 25 20.0609 25 19V18Z" fill="white"/>
<path d="M60 12H52C50.2761 12 48.6228 12.6848 47.4038 13.9038C46.1848 15.1228 45.5 16.7761 45.5 18.5C45.5 20.2239 46.1848 21.8772 47.4038 23.0962C48.6228 24.3152 50.2761 25 52 25H60C61.7239 25 63.3772 24.3152 64.5962 23.0962C65.8152 21.8772 66.5 20.2239 66.5 18.5C66.5 16.7761 65.8152 15.1228 64.5962 13.9038C63.3772 12.6848 61.7239 12 60 12ZM60 22H52C51.0717 22 50.1815 21.6313 49.5251 20.9749C48.8687 20.3185 48.5 19.4283 48.5 18.5C48.5 17.5717 48.8687 16.6815 49.5251 16.0251C50.1815 15.3687 51.0717 15 52 15H60C60.9283 15 61.8185 15.3687 62.4749 16.0251C63.1313 16.6815 63.5 17.5717 63.5 18.5C63.5 19.4283 63.1313 20.3185 62.4749 20.9749C61.8185 21.6313 60.9283 22 60 22ZM54 18.5C54 18.8956 53.8827 19.2822 53.6629 19.6111C53.4432 19.94 53.1308 20.1964 52.7654 20.3478C52.3999 20.4991 51.9978 20.5387 51.6098 20.4616C51.2219 20.3844 50.8655 20.1939 50.5858 19.9142C50.3061 19.6345 50.1156 19.2781 50.0384 18.8902C49.9613 18.5022 50.0009 18.1001 50.1522 17.7346C50.3036 17.3692 50.56 17.0568 50.8889 16.8371C51.2178 16.6173 51.6044 16.5 52 16.5C52.5304 16.5 53.0391 16.7107 53.4142 17.0858C53.7893 17.4609 54 17.9696 54 18.5ZM62 18.5C62 18.8956 61.8827 19.2822 61.6629 19.6111C61.4432 19.94 61.1308 20.1964 60.7654 20.3478C60.3999 20.4991 59.9978 20.5387 59.6098 20.4616C59.2219 20.3844 58.8655 20.1939 58.5858 19.9142C58.3061 19.6345 58.1156 19.2781 58.0384 18.8902C57.9613 18.5022 58.0009 18.1001 58.1522 17.7346C58.3036 17.3692 58.56 17.0568 58.8889 16.8371C59.2178 16.6173 59.6044 16.5 60 16.5C60.5304 16.5 61.0391 16.7107 61.4142 17.0858C61.7893 17.4609 62 17.9696 62 18.5ZM66.5 4.5C65.5694 4.50003 64.6618 4.78854 63.902 5.32581C63.1422 5.86307 62.5677 6.62267 62.2575 7.5H49.7425C49.3886 6.49928 48.6923 5.65588 47.7767 5.11884C46.8612 4.5818 45.7852 4.38571 44.739 4.56521C43.6929 4.7447 42.7438 5.28824 42.0596 6.09976C41.3754 6.91128 41.0001 7.93854 41 9V18.5C41.0033 21.4164 42.1633 24.2123 44.2255 26.2745C46.2877 28.3367 49.0836 29.4967 52 29.5H60C62.9164 29.4967 65.7123 28.3367 67.7745 26.2745C69.8367 24.2123 70.9967 21.4164 71 18.5V9C71 7.80653 70.5259 6.66193 69.682 5.81802C68.8381 4.97411 67.6935 4.5 66.5 4.5ZM68 18.5C67.9977 20.621 67.1541 22.6545 65.6543 24.1543C64.1545 25.6541 62.121 26.4977 60 26.5H52C49.879 26.4977 47.8455 25.6541 46.3457 24.1543C44.8459 22.6545 44.0023 20.621 44 18.5V9C44 8.60218 44.158 8.22064 44.4393 7.93934C44.7206 7.65804 45.1022 7.5 45.5 7.5C45.8978 7.5 46.2794 7.65804 46.5607 7.93934C46.842 8.22064 47 8.60218 47 9C47 9.39782 47.158 9.77936 47.4393 10.0607C47.7206 10.342 48.1022 10.5 48.5 10.5H63.5C63.8978 10.5 64.2794 10.342 64.5607 10.0607C64.842 9.77936 65 9.39782 65 9C65 8.60218 65.158 8.22064 65.4393 7.93934C65.7206 7.65804 66.1022 7.5 66.5 7.5C66.8978 7.5 67.2794 7.65804 67.5607 7.93934C67.842 8.22064 68 8.60218 68 9V18.5Z" fill="white"/>
</g>
<defs>
<clipPath id="clip0_27_4690">
<rect width="72" height="32" rx="5" fill="white"/>
</clipPath>
</defs>
</svg>
