<svg width="72" height="32" viewBox="0 0 72 32" fill="none" xmlns="http://www.w3.org/2000/svg">
<g clip-path="url(#clip0_27_2154)">
<path d="M17.9225 2.23125C17.7992 2.12876 17.6531 2.0574 17.4965 2.02321C17.3399 1.98902 17.1773 1.99298 17.0225 2.03477C16.8678 2.07656 16.7253 2.15494 16.6072 2.26332C16.489 2.3717 16.3987 2.50689 16.3438 2.6575L13.5938 10.2087L10.5737 7.2825C10.4723 7.18413 10.3512 7.10837 10.2184 7.06021C10.0856 7.01205 9.94403 6.99258 9.80313 7.00309C9.66223 7.0136 9.52516 7.05385 9.40095 7.12119C9.27674 7.18852 9.1682 7.28142 9.0825 7.39375C6.375 10.9412 5 14.51 5 18C5 20.9174 6.15893 23.7153 8.22183 25.7782C10.2847 27.8411 13.0826 29 16 29C18.9174 29 21.7153 27.8411 23.7782 25.7782C25.8411 23.7153 27 20.9174 27 18C27 10.5687 20.6513 4.5 17.9225 2.23125Z" fill="white"/>
<path d="M58.2412 1.84625C58.0563 1.69293 57.8372 1.58627 57.6025 1.53525C57.3677 1.48422 57.1242 1.49033 56.8923 1.55305C56.6604 1.61577 56.4469 1.73328 56.2699 1.89567C56.0929 2.05807 55.9574 2.26061 55.875 2.48625L53.3837 9.3125L50.9225 6.92375C50.7704 6.77606 50.5887 6.66228 50.3894 6.58993C50.1902 6.51758 49.9778 6.48829 49.7664 6.504C49.555 6.51971 49.3493 6.58006 49.1629 6.68107C48.9765 6.78208 48.8136 6.92145 48.685 7.09C45.9088 10.7275 44.5 14.3988 44.5 18C44.5 21.05 45.7116 23.9751 47.8683 26.1317C50.0249 28.2884 52.95 29.5 56 29.5C59.05 29.5 61.9751 28.2884 64.1317 26.1317C66.2884 23.9751 67.5 21.05 67.5 18C67.5 10.3563 61.025 4.15625 58.2412 1.84625ZM56 26.5C53.7464 26.4977 51.5857 25.6014 49.9922 24.0079C48.3986 22.4143 47.5023 20.2536 47.5 18C47.5 15.5075 48.375 12.9225 50.0887 10.295L52.955 13.0763C53.1346 13.2505 53.3549 13.3771 53.5959 13.4444C53.8368 13.5117 54.0908 13.5177 54.3347 13.4618C54.5786 13.4059 54.8047 13.2899 54.9922 13.1243C55.1798 12.9587 55.323 12.7488 55.4087 12.5138L57.935 5.58875C60.6737 8.20125 64.5 12.7863 64.5 18C64.4977 20.2536 63.6014 22.4143 62.0078 24.0079C60.4143 25.6014 58.2536 26.4977 56 26.5Z" fill="white"/>
</g>
<defs>
<clipPath id="clip0_27_2154">
<rect width="72" height="32" rx="5" fill="white"/>
</clipPath>
</defs>
</svg>
