<svg width="72" height="32" viewBox="0 0 72 32" fill="none" xmlns="http://www.w3.org/2000/svg">
<g clip-path="url(#clip0_27_2149)">
<path d="M17.9225 2.23125C17.7992 2.12876 17.6531 2.0574 17.4965 2.02321C17.3399 1.98902 17.1773 1.99298 17.0225 2.03477C16.8678 2.07656 16.7253 2.15494 16.6072 2.26332C16.489 2.3717 16.3987 2.50689 16.3438 2.6575L13.5938 10.2087L10.5737 7.2825C10.4723 7.18413 10.3512 7.10837 10.2184 7.06021C10.0856 7.01205 9.94403 6.99258 9.80313 7.00309C9.66223 7.0136 9.52516 7.05385 9.40095 7.12119C9.27674 7.18852 9.1682 7.28142 9.0825 7.39375C6.375 10.9412 5 14.51 5 18C5 20.9174 6.15893 23.7153 8.22183 25.7782C10.2847 27.8411 13.0826 29 16 29C18.9174 29 21.7153 27.8411 23.7782 25.7782C25.8411 23.7153 27 20.9174 27 18C27 10.5687 20.6513 4.5 17.9225 2.23125ZM22.9862 19.1675C22.7269 20.6159 22.0301 21.95 20.9896 22.9904C19.949 24.0307 18.6147 24.7273 17.1663 24.9862C17.1113 24.9957 17.0557 25.0003 17 25C16.7492 24.9999 16.5075 24.9056 16.323 24.7357C16.1384 24.5658 16.0245 24.3328 16.0037 24.0828C15.9829 23.8328 16.0569 23.5841 16.2108 23.3861C16.3648 23.1881 16.5876 23.0552 16.835 23.0137C18.9062 22.665 20.6637 20.9075 21.015 18.8325C21.0594 18.5709 21.2059 18.3377 21.4223 18.1842C21.6387 18.0306 21.9072 17.9693 22.1688 18.0137C22.4303 18.0582 22.6635 18.2047 22.8171 18.4211C22.9706 18.6374 23.0319 18.9059 22.9875 19.1675H22.9862Z" fill="white"/>
<path d="M62.2025 19.95C61.8885 20.9482 61.3382 21.8558 60.5982 22.5957C59.8583 23.3357 58.9507 23.886 57.9525 24.2C57.8068 24.2453 57.6551 24.2685 57.5025 24.2688C57.1439 24.269 56.7971 24.1408 56.5249 23.9074C56.2528 23.674 56.0732 23.3508 56.0188 22.9964C55.9644 22.642 56.0387 22.2798 56.2284 21.9755C56.418 21.6711 56.7104 21.4448 57.0525 21.3375C57.5904 21.1685 58.0796 20.872 58.4783 20.4733C58.877 20.0746 59.1735 19.5854 59.3425 19.0475C59.4016 18.8596 59.4971 18.6851 59.6237 18.534C59.7502 18.383 59.9052 18.2584 60.0799 18.1673C60.4327 17.9832 60.8442 17.9469 61.2237 18.0663C61.4117 18.1254 61.5862 18.2209 61.7372 18.3474C61.8882 18.4739 62.0129 18.629 62.104 18.8037C62.1951 18.9783 62.2509 19.1693 62.2683 19.3655C62.2856 19.5618 62.2641 19.7596 62.205 19.9475L62.2025 19.95ZM67.5 18C67.5 21.05 66.2884 23.9751 64.1317 26.1317C61.9751 28.2884 59.05 29.5 56 29.5C52.95 29.5 50.0249 28.2884 47.8683 26.1317C45.7116 23.9751 44.5 21.05 44.5 18C44.5 14.3988 45.9088 10.7275 48.685 7.09001C48.8136 6.92146 48.9765 6.78208 49.1629 6.68107C49.3493 6.58006 49.555 6.51971 49.7664 6.504C49.9778 6.48829 50.1902 6.51758 50.3894 6.58993C50.5887 6.66229 50.7704 6.77606 50.9225 6.92376L53.3837 9.31251L55.875 2.48626C55.9574 2.2604 56.0928 2.05765 56.27 1.8951C56.4471 1.73254 56.6607 1.61494 56.8928 1.5522C57.1248 1.48947 57.3686 1.48343 57.6035 1.53461C57.8384 1.58578 58.0575 1.69267 58.2425 1.84626C61.025 4.15626 67.5 10.3563 67.5 18ZM64.5 18C64.5 12.7863 60.6737 8.20126 57.935 5.58876L55.4087 12.5138C55.323 12.7488 55.1798 12.9587 54.9922 13.1243C54.8047 13.2899 54.5786 13.4059 54.3347 13.4618C54.0908 13.5177 53.8368 13.5117 53.5959 13.4444C53.3549 13.3771 53.1346 13.2505 52.955 13.0763L50.0887 10.295C48.375 12.9225 47.5 15.5075 47.5 18C47.5 20.2543 48.3955 22.4164 49.9896 24.0104C51.5837 25.6045 53.7457 26.5 56 26.5C58.2543 26.5 60.4163 25.6045 62.0104 24.0104C63.6045 22.4164 64.5 20.2543 64.5 18Z" fill="white"/>
</g>
<defs>
<clipPath id="clip0_27_2149">
<rect width="72" height="32" rx="5" fill="white"/>
</clipPath>
</defs>
</svg>
