<svg width="72" height="32" viewBox="0 0 72 32" fill="none" xmlns="http://www.w3.org/2000/svg">
<g clip-path="url(#clip0_27_4354)">
<path d="M27.2875 6.04249L19.7025 3.76749L23.4525 1.89249C23.6894 1.77315 23.8691 1.56459 23.9522 1.31271C24.0353 1.06082 24.015 0.786241 23.8956 0.54937C23.7763 0.312498 23.5677 0.132739 23.3158 0.0496371C23.064 -0.0334649 22.7894 -0.0131025 22.5525 0.106245L16.75 3.00624C14.1422 3.074 11.6639 4.15709 9.84284 6.02489C8.02174 7.89268 7.00173 10.3976 7 13.0062V26C7 26.2652 7.10536 26.5196 7.29289 26.7071C7.48043 26.8946 7.73478 27 8 27C8.26522 27 8.51957 26.8946 8.70711 26.7071C8.89464 26.5196 9 26.2652 9 26V22H11V29C11 29.5304 11.2107 30.0391 11.5858 30.4142C11.9609 30.7893 12.4696 31 13 31H21C21.5304 31 22.0391 30.7893 22.4142 30.4142C22.7893 30.0391 23 29.5304 23 29V13C22.998 11.5827 22.4951 10.2118 21.5802 9.12942C20.6652 8.04705 19.3971 7.32292 18 7.08499V5.34374L26.7125 7.95749C26.8392 7.99877 26.9729 8.0143 27.1057 8.00317C27.2385 7.99204 27.3678 7.95447 27.4859 7.89268C27.6039 7.83089 27.7085 7.74612 27.7933 7.64335C27.8782 7.54058 27.9416 7.42188 27.98 7.29424C28.0183 7.1666 28.0307 7.03258 28.0165 6.90007C28.0023 6.76755 27.9617 6.63921 27.8972 6.5226C27.8327 6.40598 27.7456 6.30343 27.6408 6.22098C27.5361 6.13854 27.416 6.07785 27.2875 6.04249ZM9 20V13C9.00242 11.0524 9.71449 9.17237 11.0029 7.71183C12.2914 6.25129 14.0679 5.31031 16 5.06499V7.08499C14.6029 7.32292 13.3348 8.04705 12.4198 9.12942C11.5049 10.2118 11.002 11.5827 11 13V20H9ZM21 13V20H13V13C13 11.9391 13.4214 10.9217 14.1716 10.1716C14.9217 9.42142 15.9391 9 17 9C18.0609 9 19.0783 9.42142 19.8284 10.1716C20.5786 10.9217 21 11.9391 21 13Z" fill="white"/>
<path d="M67.4312 5.56376L61.2588 3.71251L63.125 2.86626C63.4872 2.7005 63.7687 2.39765 63.9076 2.02433C64.0465 1.65102 64.0314 1.23782 63.8656 0.875631C63.7835 0.696294 63.667 0.53488 63.5225 0.400604C63.378 0.266328 63.2085 0.16182 63.0237 0.0930463C62.6504 -0.0458478 62.2372 -0.0307546 61.875 0.135006L56.6525 2.51001C53.9311 2.60294 51.3519 3.74836 49.4582 5.70505C47.5644 7.66174 46.5039 10.277 46.5 13V26C46.5 26.3978 46.658 26.7794 46.9393 27.0607C47.2206 27.342 47.6022 27.5 48 27.5C48.3978 27.5 48.7794 27.342 49.0607 27.0607C49.342 26.7794 49.5 26.3978 49.5 26V22.5H51.5V29C51.5 29.663 51.7634 30.2989 52.2322 30.7678C52.7011 31.2366 53.337 31.5 54 31.5H60C60.663 31.5 61.2989 31.2366 61.7678 30.7678C62.2366 30.2989 62.5 29.663 62.5 29V13C62.498 11.8035 62.1067 10.6402 61.385 9.68581C60.6634 8.73144 59.6507 8.0379 58.5 7.71001V6.01626L66.5688 8.43751C66.7086 8.47956 66.854 8.50062 67 8.50001C67.3598 8.49967 67.7075 8.37 67.9797 8.13466C68.2519 7.89931 68.4304 7.57397 68.4827 7.21797C68.535 6.86198 68.4575 6.49904 68.2645 6.19538C68.0715 5.89171 67.7758 5.66754 67.4312 5.56376ZM49.5 19.5V13C49.5023 11.2719 50.1003 9.59735 51.1932 8.25871C52.2862 6.92008 53.8072 5.99918 55.5 5.65126V7.71001C54.3491 8.03753 53.3362 8.73098 52.6145 9.68543C51.8928 10.6399 51.5016 11.8034 51.5 13V19.5H49.5ZM54.5 28.5V22.5H59.5V28.5H54.5ZM59.5 13V19.5H54.5V13C54.5 12.337 54.7634 11.7011 55.2322 11.2322C55.7011 10.7634 56.337 10.5 57 10.5C57.663 10.5 58.2989 10.7634 58.7678 11.2322C59.2366 11.7011 59.5 12.337 59.5 13Z" fill="white"/>
</g>
<defs>
<clipPath id="clip0_27_4354">
<rect width="72" height="32" rx="5" fill="white"/>
</clipPath>
</defs>
</svg>
