<svg width="72" height="32" viewBox="0 0 72 32" fill="none" xmlns="http://www.w3.org/2000/svg">
<g clip-path="url(#clip0_27_4961)">
<path d="M29 13.5V18.5C29 19.0304 28.7893 19.5391 28.4142 19.9142C28.0391 20.2893 27.5304 20.5 27 20.5H20.5V27C20.5 27.5304 20.2893 28.0391 19.9142 28.4142C19.5391 28.7893 19.0304 29 18.5 29H13.5C12.9696 29 12.4609 28.7893 12.0858 28.4142C11.7107 28.0391 11.5 27.5304 11.5 27V20.5H5C4.46957 20.5 3.96086 20.2893 3.58579 19.9142C3.21071 19.5391 3 19.0304 3 18.5V13.5C3 12.9696 3.21071 12.4609 3.58579 12.0858C3.96086 11.7107 4.46957 11.5 5 11.5H11.5V5C11.5 4.46957 11.7107 3.96086 12.0858 3.58579C12.4609 3.21071 12.9696 3 13.5 3H18.5C19.0304 3 19.5391 3.21071 19.9142 3.58579C20.2893 3.96086 20.5 4.46957 20.5 5V11.5H27C27.5304 11.5 28.0391 11.7107 28.4142 12.0858C28.7893 12.4609 29 12.9696 29 13.5Z" fill="white"/>
<path d="M67 10.5H61.5V5C61.5 4.33696 61.2366 3.70107 60.7678 3.23223C60.2989 2.76339 59.663 2.5 59 2.5H53C52.337 2.5 51.7011 2.76339 51.2322 3.23223C50.7634 3.70107 50.5 4.33696 50.5 5V10.5H45C44.337 10.5 43.7011 10.7634 43.2322 11.2322C42.7634 11.7011 42.5 12.337 42.5 13V19C42.5 19.663 42.7634 20.2989 43.2322 20.7678C43.7011 21.2366 44.337 21.5 45 21.5H50.5V27C50.5 27.663 50.7634 28.2989 51.2322 28.7678C51.7011 29.2366 52.337 29.5 53 29.5H59C59.663 29.5 60.2989 29.2366 60.7678 28.7678C61.2366 28.2989 61.5 27.663 61.5 27V21.5H67C67.663 21.5 68.2989 21.2366 68.7678 20.7678C69.2366 20.2989 69.5 19.663 69.5 19V13C69.5 12.337 69.2366 11.7011 68.7678 11.2322C68.2989 10.7634 67.663 10.5 67 10.5ZM66.5 18.5H60C59.6022 18.5 59.2206 18.658 58.9393 18.9393C58.658 19.2206 58.5 19.6022 58.5 20V26.5H53.5V20C53.5 19.6022 53.342 19.2206 53.0607 18.9393C52.7794 18.658 52.3978 18.5 52 18.5H45.5V13.5H52C52.3978 13.5 52.7794 13.342 53.0607 13.0607C53.342 12.7794 53.5 12.3978 53.5 12V5.5H58.5V12C58.5 12.3978 58.658 12.7794 58.9393 13.0607C59.2206 13.342 59.6022 13.5 60 13.5H66.5V18.5Z" fill="white"/>
</g>
<defs>
<clipPath id="clip0_27_4961">
<rect width="72" height="32" rx="5" fill="white"/>
</clipPath>
</defs>
</svg>
