<svg width="72" height="32" viewBox="0 0 72 32" fill="none" xmlns="http://www.w3.org/2000/svg">
<g clip-path="url(#clip0_27_2164)">
<path d="M20.9998 9.5C20.9998 9.79667 20.9118 10.0867 20.747 10.3334C20.5822 10.58 20.3479 10.7723 20.0738 10.8858C19.7997 10.9994 19.4981 11.0291 19.2071 10.9712C18.9162 10.9133 18.6489 10.7704 18.4391 10.5607C18.2293 10.3509 18.0865 10.0836 18.0286 9.79264C17.9707 9.50167 18.0004 9.20007 18.114 8.92598C18.2275 8.65189 18.4197 8.41762 18.6664 8.2528C18.9131 8.08798 19.2031 8 19.4998 8C19.8976 8 20.2791 8.15804 20.5604 8.43934C20.8417 8.72065 20.9998 9.10218 20.9998 9.5ZM26.2498 19.385C24.3648 21.99 21.5585 23.745 17.9123 24.6025C15.4023 25.1925 12.4698 25.3525 9.14727 25.0938C9.34727 26.5788 9.62727 28.1429 9.98727 29.7863C10.0438 30.0452 9.99523 30.3159 9.85226 30.539C9.70929 30.7622 9.48361 30.9194 9.22477 30.9763C9.15421 30.9921 9.0821 31.0001 9.00977 31C8.7818 30.9999 8.56072 30.9218 8.38317 30.7788C8.20562 30.6358 8.08225 30.4365 8.03352 30.2138C7.62602 28.3504 7.31727 26.5746 7.10727 24.8863C5.42227 24.6771 3.64811 24.3683 1.78477 23.96C1.65649 23.9318 1.535 23.8787 1.42726 23.8036C1.31951 23.7285 1.22761 23.6329 1.15681 23.5223C1.01381 23.2989 0.965417 23.0278 1.02227 22.7688C1.07913 22.5097 1.23658 22.2838 1.45998 22.1408C1.68338 21.9978 1.95444 21.9494 2.21352 22.0063C3.85519 22.3663 5.41769 22.6467 6.90102 22.8475C6.63977 19.5275 6.80352 16.5975 7.39227 14.09C8.24977 10.4438 10.006 7.6375 12.6098 5.75C14.3748 4.47 17.5173 2.955 22.4085 3C25.0573 3.02625 27.5123 3.54125 27.8848 3.76C28.0308 3.84604 28.1525 3.96777 28.2385 4.11375C28.4573 4.48875 28.9723 6.9375 28.9985 9.58625C29.026 12.2888 28.571 16.18 26.2498 19.385ZM26.5535 5.445C24.941 5.11557 23.2965 4.9684 21.651 5.00625C18.6085 5.08625 16.0623 5.8175 14.056 7.18C14.3287 9.94153 15.5501 12.5232 17.5122 14.4855C19.4742 16.4478 22.0558 17.6695 24.8173 17.9425C26.181 15.9425 26.9123 13.39 26.9923 10.3475C27.0305 8.70211 26.8837 7.05763 26.5548 5.445H26.5535Z" fill="white"/>
<path d="M61.4998 9.5C61.4998 9.89556 61.3825 10.2822 61.1628 10.6111C60.943 10.94 60.6306 11.1964 60.2652 11.3478C59.8997 11.4991 59.4976 11.5387 59.1096 11.4616C58.7217 11.3844 58.3653 11.1939 58.0856 10.9142C57.8059 10.6345 57.6154 10.2781 57.5382 9.89018C57.4611 9.50222 57.5007 9.10009 57.6521 8.73463C57.8034 8.36918 58.0598 8.05683 58.3887 7.83706C58.7176 7.6173 59.1043 7.5 59.4998 7.5C60.0303 7.5 60.539 7.71072 60.914 8.08579C61.2891 8.46086 61.4998 8.96957 61.4998 9.5ZM69.4998 9.5825C69.5398 13.5638 68.5561 17.0538 66.6573 19.6775C64.6998 22.3838 61.7961 24.2038 58.0323 25.0888C55.6323 25.6538 52.8586 25.8388 49.7373 25.6363C49.9265 26.9271 50.1765 28.2746 50.4873 29.6788C50.533 29.8724 50.5398 30.0733 50.5071 30.2696C50.4745 30.4659 50.4031 30.6537 50.2971 30.8221C50.1911 30.9906 50.0527 31.1362 49.8899 31.2507C49.7271 31.3651 49.5431 31.446 49.3487 31.4886C49.1544 31.5312 48.9534 31.5347 48.7577 31.4989C48.5619 31.4631 48.3753 31.3888 48.2085 31.2801C48.0418 31.1715 47.8984 31.0308 47.7866 30.8661C47.6748 30.7015 47.5968 30.5163 47.5573 30.3213C47.1757 28.5838 46.8807 26.9208 46.6723 25.3325C45.089 25.1242 43.4277 24.8296 41.6886 24.4488C41.3054 24.3583 40.9732 24.1208 40.7636 23.7876C40.5539 23.4544 40.4837 23.0521 40.568 22.6676C40.6523 22.2831 40.8845 21.9471 41.2143 21.7321C41.5441 21.5172 41.9452 21.4406 42.3311 21.5188C43.7336 21.8246 45.0798 22.0746 46.3698 22.2688C46.1723 19.1438 46.3536 16.3788 46.9173 13.9813C47.8023 10.2138 49.6223 7.31125 52.3261 5.35625C54.9511 3.455 58.4411 2.46875 62.4236 2.51C65.1473 2.53625 67.6736 3.0625 68.1486 3.34C68.3671 3.46862 68.5494 3.65054 68.6786 3.86875C68.9461 4.33 69.4723 6.85875 69.4998 9.5825ZM62.1923 19.9925C59.7549 19.3284 57.5331 18.0394 55.7468 16.253C53.9605 14.4667 52.6715 12.2449 52.0073 9.8075C50.8561 11.3275 50.0623 13.2538 49.6411 15.5575C49.2661 17.6063 49.1836 19.9638 49.3911 22.6063C52.0361 22.8125 54.3911 22.7313 56.4436 22.3563C58.7498 21.9363 60.6711 21.1425 62.1911 19.9925H62.1923ZM66.1248 5.875C64.1373 5.5 58.7123 4.81875 54.5923 7.43C54.9106 9.96499 56.064 12.3218 57.8705 14.1285C59.677 15.9352 62.0336 17.0889 64.5686 17.4075C67.1786 13.29 66.4998 7.865 66.1248 5.875Z" fill="white"/>
</g>
<defs>
<clipPath id="clip0_27_2164">
<rect width="72" height="32" rx="5" fill="white"/>
</clipPath>
</defs>
</svg>
