<svg width="72" height="32" viewBox="0 0 72 32" fill="none" xmlns="http://www.w3.org/2000/svg">
<g clip-path="url(#clip0_27_2159)">
<path d="M21.0002 9.50001C21.0002 9.79668 20.9122 10.0867 20.7474 10.3334C20.5826 10.58 20.3483 10.7723 20.0742 10.8858C19.8001 10.9994 19.4985 11.0291 19.2076 10.9712C18.9166 10.9133 18.6493 10.7704 18.4395 10.5607C18.2298 10.3509 18.0869 10.0836 18.029 9.79264C17.9711 9.50167 18.0008 9.20007 18.1144 8.92598C18.2279 8.65189 18.4202 8.41762 18.6668 8.2528C18.9135 8.08798 19.2035 8.00001 19.5002 8.00001C19.898 8.00001 20.2796 8.15804 20.5609 8.43935C20.8422 8.72065 21.0002 9.10218 21.0002 9.50001ZM27.0902 17.955C24.6689 22.3175 20.1602 24.675 13.6852 24.9675L10.9352 31.3938C10.8579 31.5742 10.7292 31.7279 10.5652 31.8357C10.4011 31.9435 10.209 32.0007 10.0127 32H9.94895C9.74288 31.9871 9.54586 31.9107 9.38494 31.7814C9.22402 31.652 9.10709 31.476 9.0502 31.2775L7.2002 24.7988L0.725196 22.945C0.52616 22.8891 0.349342 22.7729 0.21908 22.6123C0.0888172 22.4518 0.0115128 22.2548 -0.00219373 22.0486C-0.0159003 21.8423 0.0346648 21.6368 0.142542 21.4605C0.25042 21.2841 0.410306 21.1455 0.600196 21.0638L7.02645 18.3138C7.3202 11.8413 9.6777 7.33376 14.0377 4.91126C17.1314 3.19376 20.6302 2.93126 23.0227 3.01376C25.3527 3.09376 27.5227 3.54751 27.8802 3.76376C28.0262 3.8498 28.1479 3.97152 28.2339 4.11751C28.4452 4.47376 28.9002 6.64376 28.9839 8.97376C29.0689 11.3613 28.8077 14.8613 27.0902 17.955ZM26.5527 5.44626C24.7839 5.07126 18.5402 4.07126 14.0152 7.29001C13.2662 7.82439 12.5934 8.45811 12.0152 9.17376C11.9678 9.82676 12.0635 10.4822 12.2956 11.0945C12.5276 11.7067 12.8905 12.2609 13.3589 12.7184C13.8272 13.1759 14.3897 13.5257 15.0072 13.7434C15.6247 13.9611 16.2822 14.0414 16.9339 13.9788C17.0808 13.9646 17.2289 13.9831 17.3677 14.033C17.5065 14.0828 17.6326 14.1627 17.7369 14.267C17.8412 14.3713 17.9211 14.4974 17.971 14.6362C18.0208 14.7751 18.0393 14.9232 18.0252 15.07C17.9627 15.722 18.0432 16.3797 18.2612 16.9973C18.4792 17.6149 18.8294 18.1775 19.2873 18.6458C19.7452 19.114 20.2998 19.4767 20.9124 19.7085C21.525 19.9402 22.1808 20.0354 22.8339 19.9875C23.5469 19.4091 24.1777 18.7363 24.7089 17.9875C27.9277 13.4663 26.9277 7.21751 26.5527 5.44626Z" fill="white"/>
<path d="M61.5002 9.49999C61.5002 9.89556 61.3829 10.2822 61.1631 10.6111C60.9434 10.94 60.631 11.1964 60.2656 11.3478C59.9001 11.4991 59.498 11.5387 59.11 11.4616C58.722 11.3844 58.3657 11.1939 58.086 10.9142C57.8063 10.6345 57.6158 10.2781 57.5386 9.89018C57.4614 9.50221 57.5011 9.10008 57.6524 8.73463C57.8038 8.36918 58.0601 8.05682 58.389 7.83706C58.7179 7.61729 59.1046 7.49999 59.5002 7.49999C60.0306 7.49999 60.5393 7.71071 60.9144 8.08578C61.2895 8.46085 61.5002 8.96956 61.5002 9.49999ZM67.5277 18.1975C66.6894 19.7153 65.5504 21.0462 64.1802 22.1087C64.1502 22.1337 64.1214 22.1575 64.0902 22.1787C63.5536 22.5879 62.9875 22.9568 62.3964 23.2825C60.1089 24.5412 57.2864 25.27 53.9939 25.4525L51.3752 31.125C51.2557 31.3857 51.0639 31.6067 50.8227 31.7618C50.5814 31.9169 50.3007 31.9995 50.0139 32C49.9798 32 49.946 32 49.9127 32C49.6099 31.9796 49.3205 31.8678 49.0826 31.6794C48.8447 31.4911 48.6695 31.235 48.5802 30.945L46.8102 25.195L41.0602 23.4212C40.7699 23.3318 40.5136 23.1563 40.3253 22.918C40.1369 22.6797 40.0253 22.3899 40.0052 22.0868C39.9852 21.7837 40.0576 21.4817 40.213 21.2206C40.3683 20.9596 40.5992 20.7519 40.8752 20.625L46.5502 18.01C46.7339 14.7187 47.4627 11.8962 48.7214 9.60999C49.0462 9.01806 49.4138 8.45071 49.8214 7.91249C49.8414 7.88499 49.8639 7.85749 49.8852 7.82999C50.9482 6.45637 52.2809 5.31464 53.8014 4.47499C56.9952 2.70124 60.5927 2.42874 63.0514 2.51374C65.2714 2.58999 67.6127 3.01374 68.1464 3.32874C68.3643 3.45783 68.5461 3.63967 68.6752 3.85749C68.9902 4.38999 69.4152 6.7325 69.4914 8.9525C69.5714 11.4075 69.3002 15 67.5277 18.1975ZM58.9402 21.53C58.4339 21.2289 57.967 20.8661 57.5502 20.45C56.4648 19.3672 55.7663 17.9571 55.5627 16.4375C54.0431 16.2339 52.633 15.5354 51.5502 14.45C51.1341 14.0329 50.7717 13.5656 50.4714 13.0587C49.8881 14.7654 49.5673 16.7525 49.5089 19.02C49.5019 19.3008 49.4162 19.574 49.2615 19.8085C49.1068 20.043 48.8893 20.2293 48.6339 20.3462L45.6889 21.705L48.4514 22.5575C48.6853 22.6294 48.8979 22.7575 49.0709 22.9305C49.2439 23.1035 49.372 23.3162 49.4439 23.55L50.2927 26.3112L51.6539 23.3625C51.7709 23.1071 51.9572 22.8897 52.1917 22.735C52.4262 22.5803 52.6994 22.4945 52.9802 22.4875C55.2435 22.4367 57.2302 22.1175 58.9402 21.53ZM66.1252 5.87499C64.0939 5.48249 58.3989 4.74999 54.2502 7.73874C53.6014 8.20539 53.0135 8.75129 52.5002 9.36375C52.481 9.93192 52.5831 10.4977 52.7997 11.0233C53.0163 11.5489 53.3425 12.0223 53.7565 12.4119C54.1705 12.8016 54.6628 13.0985 55.2005 13.2828C55.7383 13.4672 56.3092 13.5349 56.8752 13.4812C57.0953 13.4601 57.3174 13.488 57.5255 13.5628C57.7336 13.6375 57.9226 13.7574 58.0789 13.9137C58.2353 14.0701 58.3552 14.2591 58.4299 14.4672C58.5047 14.6753 58.5325 14.8974 58.5114 15.1175C58.4577 15.6841 58.5255 16.2557 58.7104 16.794C58.8952 17.3323 59.1928 17.825 59.5832 18.2391C59.9737 18.6532 60.448 18.9792 60.9745 19.1954C61.5011 19.4115 62.0676 19.5128 62.6364 19.4925C63.2493 18.9795 63.7952 18.3916 64.2614 17.7425C67.2564 13.6012 66.5227 7.90249 66.1252 5.87499Z" fill="white"/>
</g>
<defs>
<clipPath id="clip0_27_2159">
<rect width="72" height="32" rx="5" fill="white"/>
</clipPath>
</defs>
</svg>
