<svg width="72" height="32" viewBox="0 0 72 32" fill="none" xmlns="http://www.w3.org/2000/svg">
<g clip-path="url(#clip0_27_6570)">
<path d="M16.4744 8.70625L11.0207 20.7062C10.9811 20.7937 10.9171 20.868 10.8364 20.9201C10.7557 20.9722 10.6617 20.9999 10.5657 21H3.52944C3.37146 21.0026 3.21502 20.9686 3.07234 20.9007C2.92966 20.8329 2.80461 20.7329 2.70694 20.6087C2.56432 20.4227 2.49158 20.1926 2.5014 19.9584C2.51122 19.7242 2.60299 19.5009 2.76069 19.3275L7.14944 14.5L2.76069 9.6725C2.60267 9.49901 2.5107 9.27547 2.50088 9.04101C2.49105 8.80655 2.56399 8.5761 2.70694 8.39C2.80486 8.26618 2.93 8.16658 3.07264 8.09895C3.21528 8.03131 3.37159 7.99745 3.52944 8H16.0194C16.103 8.00008 16.1852 8.0211 16.2585 8.06114C16.3319 8.10118 16.394 8.15896 16.4393 8.2292C16.4845 8.29945 16.5115 8.37992 16.5176 8.46325C16.5237 8.54658 16.5089 8.63013 16.4744 8.70625ZM29.6957 5.28C29.4997 5.09656 29.2403 4.9962 28.9719 5H21.0007C20.8087 5.00007 20.6209 5.05539 20.4595 5.15934C20.2981 5.2633 20.1701 5.4115 20.0907 5.58625L14.7694 17.2925C14.7347 17.3687 14.7196 17.4524 14.7256 17.5359C14.7316 17.6194 14.7585 17.7 14.8038 17.7705C14.8491 17.8409 14.9113 17.8988 14.9848 17.9389C15.0583 17.979 15.1407 18 15.2244 18H22.4482L18.0907 27.5862C18.0322 27.7063 17.9983 27.8369 17.9911 27.9703C17.9839 28.1036 18.0035 28.2371 18.0487 28.3628C18.0939 28.4885 18.1638 28.6038 18.2544 28.702C18.3449 28.8002 18.4542 28.8793 18.5758 28.9346C18.6973 28.9899 18.8288 29.0202 18.9623 29.0239C19.0958 29.0275 19.2287 29.0044 19.3531 28.9559C19.4776 28.9073 19.591 28.8343 19.6868 28.7412C19.7825 28.6481 19.8587 28.5368 19.9107 28.4137L29.9107 6.41375C29.9964 6.22571 30.0217 6.01575 29.9832 5.81273C29.9447 5.60971 29.8443 5.4236 29.6957 5.28Z" fill="white"/>
<path d="M70.2611 5.1875C70.1252 4.97655 69.9385 4.80307 69.7181 4.68296C69.4978 4.56285 69.2508 4.49994 68.9999 4.5H58.9999C58.7124 4.49973 58.4309 4.58206 58.1889 4.73718C57.947 4.89231 57.7546 5.1137 57.6349 5.375L56.6699 7.5H43.4999C43.2093 7.50003 42.925 7.58444 42.6815 7.74298C42.438 7.90152 42.2458 8.12737 42.1283 8.39308C42.0107 8.65878 41.9728 8.95292 42.0193 9.23974C42.0657 9.52655 42.1945 9.79371 42.3899 10.0088L46.4724 14.5L42.3899 18.9913C42.1945 19.2063 42.0657 19.4734 42.0193 19.7603C41.9728 20.0471 42.0107 20.3412 42.1283 20.6069C42.2458 20.8726 42.438 21.0985 42.6815 21.257C42.925 21.4156 43.2093 21.5 43.4999 21.5H52.6361C52.9233 21.5 53.2045 21.4176 53.4463 21.2625C53.688 21.1074 53.8802 20.8861 53.9999 20.625L54.9636 18.5H61.6674L57.6324 27.375C57.4666 27.7374 57.4516 28.1507 57.5906 28.5241C57.7296 28.8976 58.0113 29.2005 58.3736 29.3662C58.736 29.532 59.1493 29.547 59.5227 29.408C59.8962 29.269 60.1991 28.9874 60.3649 28.625L70.3649 6.625C70.4696 6.39595 70.5151 6.1442 70.4969 5.89297C70.4788 5.64175 70.3977 5.39913 70.2611 5.1875ZM46.8911 18.5L49.6099 15.5088C49.8607 15.2327 49.9997 14.873 49.9997 14.5C49.9997 14.127 49.8607 13.7673 49.6099 13.4913L46.8911 10.5H55.3061L51.6699 18.5H46.8911ZM63.0336 15.5H56.3299L59.9661 7.5H66.6699L63.0336 15.5Z" fill="white"/>
</g>
<defs>
<clipPath id="clip0_27_6570">
<rect width="72" height="32" rx="5" fill="white"/>
</clipPath>
</defs>
</svg>
