<svg width="72" height="32" viewBox="0 0 72 32" fill="none" xmlns="http://www.w3.org/2000/svg">
<g clip-path="url(#clip0_27_6560)">
<path d="M29 7V22C28.9992 22.1424 28.968 22.2829 28.9085 22.4123C28.849 22.5416 28.7626 22.6567 28.655 22.75C26.745 24.4037 24.9188 25 23.1775 25C20.8137 25 18.6062 23.9075 16.5525 22.8937C13.2337 21.25 10.3488 19.8262 7 22.4712V28C7 28.2652 6.89464 28.5196 6.70711 28.7071C6.51957 28.8946 6.26522 29 6 29C5.73478 29 5.48043 28.8946 5.29289 28.7071C5.10536 28.5196 5 28.2652 5 28V7C5.00096 6.85753 5.03235 6.71692 5.09206 6.58757C5.15178 6.45822 5.23844 6.34313 5.34625 6.25C9.84625 2.3525 13.885 4.34875 17.445 6.11C20.875 7.8075 23.8487 9.275 27.345 6.25C27.4895 6.12473 27.6669 6.04352 27.8562 6.01601C28.0454 5.9885 28.2386 6.01583 28.4128 6.09477C28.587 6.17371 28.7349 6.30095 28.839 6.46139C28.943 6.62183 28.9989 6.80875 29 7Z" fill="white"/>
<path d="M45.0175 5.86001C44.8542 6.00154 44.7235 6.17668 44.6341 6.37343C44.5448 6.57019 44.4991 6.78392 44.5 7.00001V28C44.5 28.3978 44.658 28.7794 44.9394 29.0607C45.2207 29.342 45.6022 29.5 46 29.5C46.3978 29.5 46.7794 29.342 47.0607 29.0607C47.342 28.7794 47.5 28.3978 47.5 28V22.715C50.355 20.575 52.7625 21.575 56.335 23.34C58.3638 24.34 60.6775 25.49 63.185 25.49C65.025 25.49 66.97 24.8725 68.9825 23.13C69.1445 22.9896 69.2745 22.8161 69.3638 22.6211C69.4531 22.4262 69.4995 22.2144 69.5 22V7.00001C69.5001 6.7124 69.4174 6.43084 69.262 6.18887C69.1065 5.94691 68.8848 5.75473 68.6231 5.63526C68.3615 5.51578 68.0711 5.47403 67.7864 5.51498C67.5017 5.55594 67.2348 5.67787 67.0175 5.86626C63.9288 8.54251 61.4513 7.53 57.665 5.65626C54.1488 3.90876 49.7713 1.74251 45.0175 5.86001ZM66.5 21.2825C63.645 23.4238 61.2375 22.4213 57.665 20.6575C54.77 19.22 51.2913 17.5 47.5 19.2338V7.71125C50.355 5.57125 52.7625 6.57126 56.335 8.33626C58.3638 9.33626 60.6775 10.4863 63.185 10.4863C64.3297 10.488 65.4609 10.2401 66.5 9.76V21.2825Z" fill="white"/>
</g>
<defs>
<clipPath id="clip0_27_6560">
<rect width="72" height="32" rx="5" fill="white"/>
</clipPath>
</defs>
</svg>
