<svg width="72" height="32" viewBox="0 0 72 32" fill="none" xmlns="http://www.w3.org/2000/svg">
<g clip-path="url(#clip0_27_2169)">
<path d="M21.7237 6.435C20.1693 4.79688 18.42 3.35531 16.515 2.1425C16.3595 2.04906 16.1814 1.99969 16 1.99969C15.8186 1.99969 15.6405 2.04906 15.485 2.1425C13.58 3.35531 11.8307 4.79688 10.2762 6.435C6.82375 10.06 5 14.0588 5 18C5 20.9174 6.15893 23.7153 8.22183 25.7782C10.2847 27.8411 13.0826 29 16 29C18.9174 29 21.7153 27.8411 23.7782 25.7782C25.8411 23.7153 27 20.9174 27 18C27 14.0588 25.1762 10.06 21.7237 6.435ZM12 23C12 19.5413 14.8162 17.09 16 16.2125C17.185 17.0875 20 19.5413 20 23C20 24.0609 19.5786 25.0783 18.8284 25.8284C18.0783 26.5786 17.0609 27 16 27C14.9391 27 13.9217 26.5786 13.1716 25.8284C12.4214 25.0783 12 24.0609 12 23Z" fill="white"/>
<path d="M62.0863 6.09001C60.5004 4.41953 58.7154 2.9502 56.7712 1.71501C56.5382 1.57532 56.2717 1.50154 56 1.50154C55.7283 1.50154 55.4618 1.57532 55.2288 1.71501C53.2846 2.9502 51.4996 4.41953 49.9137 6.09001C46.375 9.80876 44.5 13.9275 44.5 18C44.5 21.05 45.7116 23.9751 47.8683 26.1317C50.0249 28.2884 52.95 29.5 56 29.5C59.05 29.5 61.9751 28.2884 64.1317 26.1317C66.2884 23.9751 67.5 21.05 67.5 18C67.5 13.9275 65.625 9.80876 62.0863 6.09001ZM52.5 23C52.5 21.3338 53.1912 19.7175 54.5562 18.1938C54.9981 17.7023 55.4811 17.2494 56 16.84C56.5189 17.2494 57.0019 17.7023 57.4438 18.1938C58.8088 19.7175 59.5 21.3338 59.5 23C59.5 23.9283 59.1313 24.8185 58.4749 25.4749C57.8185 26.1313 56.9283 26.5 56 26.5C55.0717 26.5 54.1815 26.1313 53.5251 25.4749C52.8687 24.8185 52.5 23.9283 52.5 23ZM62.48 23.4925C62.4912 23.33 62.5 23.1663 62.5 23C62.5 17.2175 57 13.8538 56.7712 13.7138C56.5382 13.5741 56.2717 13.5003 56 13.5003C55.7283 13.5003 55.4618 13.5741 55.2288 13.7138C55 13.8538 49.5 17.2175 49.5 23C49.5 23.1663 49.5088 23.33 49.52 23.4925C48.2147 21.9603 47.4985 20.0128 47.5 18C47.5 14.685 49.0262 11.3925 52.035 8.21251C53.2414 6.94721 54.5695 5.80378 56 4.79876C58.2275 6.35751 64.5 11.3388 64.5 18C64.5015 20.0128 63.7853 21.9603 62.48 23.4925Z" fill="white"/>
</g>
<defs>
<clipPath id="clip0_27_2169">
<rect width="72" height="32" rx="5" fill="white"/>
</clipPath>
</defs>
</svg>
