<svg width="72" height="32" viewBox="0 0 72 32" fill="none" xmlns="http://www.w3.org/2000/svg">
<g clip-path="url(#clip0_27_2755)">
<path d="M23 2H9C8.46957 2 7.96086 2.21071 7.58579 2.58579C7.21071 2.96086 7 3.46957 7 4V9.66625C7.00107 10.0988 7.14132 10.5196 7.4 10.8663L10 14.3337V28C10 28.5304 10.2107 29.0391 10.5858 29.4142C10.9609 29.7893 11.4696 30 12 30H20C20.5304 30 21.0391 29.7893 21.4142 29.4142C21.7893 29.0391 22 28.5304 22 28V14.3337L24.6 10.8663C24.8587 10.5196 24.9989 10.0988 25 9.66625V4C25 3.46957 24.7893 2.96086 24.4142 2.58579C24.0391 2.21071 23.5304 2 23 2ZM17 19C17 19.2652 16.8946 19.5196 16.7071 19.7071C16.5196 19.8946 16.2652 20 16 20C15.7348 20 15.4804 19.8946 15.2929 19.7071C15.1054 19.5196 15 19.2652 15 19V15C15 14.7348 15.1054 14.4804 15.2929 14.2929C15.4804 14.1054 15.7348 14 16 14C16.2652 14 16.5196 14.1054 16.7071 14.2929C16.8946 14.4804 17 14.7348 17 15V19ZM9 7V4H23V7H9Z" fill="white"/>
<path d="M63 1.5H49C48.337 1.5 47.7011 1.76339 47.2322 2.23223C46.7634 2.70107 46.5 3.33696 46.5 4V9.66625C46.5011 10.207 46.6764 10.733 47 11.1663L49.5 14.5V28C49.5 28.663 49.7634 29.2989 50.2322 29.7678C50.7011 30.2366 51.337 30.5 52 30.5H60C60.663 30.5 61.2989 30.2366 61.7678 29.7678C62.2366 29.2989 62.5 28.663 62.5 28V14.5L65 11.1663C65.3236 10.733 65.4989 10.207 65.5 9.66625V4C65.5 3.33696 65.2366 2.70107 64.7678 2.23223C64.2989 1.76339 63.663 1.5 63 1.5ZM62.5 4.5V6.5H49.5V4.5H62.5ZM60 12.8337C59.6764 13.267 59.5011 13.793 59.5 14.3337V27.5H52.5V14.3337C52.4989 13.793 52.3236 13.267 52 12.8337L49.5 9.5H62.5L60 12.8337ZM57.5 15V19C57.5 19.3978 57.342 19.7794 57.0607 20.0607C56.7794 20.342 56.3978 20.5 56 20.5C55.6022 20.5 55.2206 20.342 54.9393 20.0607C54.658 19.7794 54.5 19.3978 54.5 19V15C54.5 14.6022 54.658 14.2206 54.9393 13.9393C55.2206 13.658 55.6022 13.5 56 13.5C56.3978 13.5 56.7794 13.658 57.0607 13.9393C57.342 14.2206 57.5 14.6022 57.5 15Z" fill="white"/>
</g>
<defs>
<clipPath id="clip0_27_2755">
<rect width="72" height="32" rx="5" fill="white"/>
</clipPath>
</defs>
</svg>
