<svg width="72" height="32" viewBox="0 0 72 32" fill="none" xmlns="http://www.w3.org/2000/svg">
<g clip-path="url(#clip0_27_7191)">
<path d="M27.4137 9.00001L23 4.58626C22.815 4.39973 22.5947 4.25185 22.352 4.15121C22.1093 4.05057 21.849 3.99917 21.5863 4.00001H6C5.46957 4.00001 4.96086 4.21072 4.58579 4.5858C4.21071 4.96087 4 5.46958 4 6.00001V26C4 26.5304 4.21071 27.0392 4.58579 27.4142C4.96086 27.7893 5.46957 28 6 28H26C26.5304 28 27.0391 27.7893 27.4142 27.4142C27.7893 27.0392 28 26.5304 28 26V10.4138C28.0008 10.151 27.9494 9.89073 27.8488 9.64803C27.7482 9.40533 27.6003 9.18505 27.4137 9.00001ZM26 26H23V19C23 18.4696 22.7893 17.9609 22.4142 17.5858C22.0391 17.2107 21.5304 17 21 17H11C10.4696 17 9.96086 17.2107 9.58579 17.5858C9.21071 17.9609 9 18.4696 9 19V26H6V6.00001H21.5863L26 10.4138V26ZM20 9.00001C20 9.26523 19.8946 9.51958 19.7071 9.70712C19.5196 9.89465 19.2652 10 19 10H12C11.7348 10 11.4804 9.89465 11.2929 9.70712C11.1054 9.51958 11 9.26523 11 9.00001C11 8.73479 11.1054 8.48044 11.2929 8.2929C11.4804 8.10537 11.7348 8.00001 12 8.00001H19C19.2652 8.00001 19.5196 8.10537 19.7071 8.2929C19.8946 8.48044 20 8.73479 20 9.00001Z" fill="white"/>
<path d="M67.7675 8.64626L63.3538 4.23251C63.1222 3.99957 62.8468 3.81488 62.5434 3.68914C62.24 3.56341 61.9147 3.49912 61.5863 3.50001H46C45.337 3.50001 44.7011 3.7634 44.2322 4.23224C43.7634 4.70108 43.5 5.33697 43.5 6.00001V26C43.5 26.6631 43.7634 27.2989 44.2322 27.7678C44.7011 28.2366 45.337 28.5 46 28.5H66C66.663 28.5 67.2989 28.2366 67.7678 27.7678C68.2366 27.2989 68.5 26.6631 68.5 26V10.4138C68.5009 10.0853 68.4366 9.76001 68.3109 9.45661C68.1851 9.15321 68.0004 8.87777 67.7675 8.64626ZM60.5 25.5H51.5V20H60.5V25.5ZM65.5 25.5H63.5V19.5C63.5 18.837 63.2366 18.2011 62.7678 17.7322C62.2989 17.2634 61.663 17 61 17H51C50.337 17 49.7011 17.2634 49.2322 17.7322C48.7634 18.2011 48.5 18.837 48.5 19.5V25.5H46.5V6.50001H61.375L65.5 10.625V25.5ZM60.5 10.5C60.5 10.8978 60.342 11.2794 60.0607 11.5607C59.7794 11.842 59.3978 12 59 12H52C51.6022 12 51.2206 11.842 50.9393 11.5607C50.658 11.2794 50.5 10.8978 50.5 10.5C50.5 10.1022 50.658 9.72065 50.9393 9.43935C51.2206 9.15804 51.6022 9.00001 52 9.00001H59C59.3978 9.00001 59.7794 9.15804 60.0607 9.43935C60.342 9.72065 60.5 10.1022 60.5 10.5Z" fill="white"/>
</g>
<defs>
<clipPath id="clip0_27_7191">
<rect width="72" height="32" rx="5" fill="white"/>
</clipPath>
</defs>
</svg>
