<svg width="72" height="32" viewBox="0 0 72 32" fill="none" xmlns="http://www.w3.org/2000/svg">
<g clip-path="url(#clip0_27_7196)">
<path d="M26 4.00001H10.4138C10.151 3.99917 9.89073 4.05057 9.64803 4.15121C9.40533 4.25185 9.18505 4.39973 9.00001 4.58626L4.58626 9.00001C4.39973 9.18505 4.25185 9.40533 4.15121 9.64803C4.05057 9.89073 3.99917 10.151 4.00001 10.4138V26C4.00001 26.5304 4.21072 27.0392 4.5858 27.4142C4.96087 27.7893 5.46958 28 6.00001 28H26C26.5304 28 27.0392 27.7893 27.4142 27.4142C27.7893 27.0392 28 26.5304 28 26V6.00001C28 5.46958 27.7893 4.96087 27.4142 4.5858C27.0392 4.21072 26.5304 4.00001 26 4.00001ZM16 23C15.2089 23 14.4355 22.7654 13.7777 22.3259C13.1199 21.8864 12.6072 21.2616 12.3045 20.5307C12.0017 19.7998 11.9225 18.9956 12.0769 18.2196C12.2312 17.4437 12.6122 16.731 13.1716 16.1716C13.731 15.6122 14.4437 15.2312 15.2196 15.0769C15.9956 14.9225 16.7998 15.0017 17.5307 15.3045C18.2616 15.6072 18.8864 16.1199 19.3259 16.7777C19.7654 17.4355 20 18.2089 20 19C20 20.0609 19.5786 21.0783 18.8284 21.8284C18.0783 22.5786 17.0609 23 16 23ZM21.5 10C21.5 10.1326 21.4473 10.2598 21.3536 10.3536C21.2598 10.4473 21.1326 10.5 21 10.5H11C10.8674 10.5 10.7402 10.4473 10.6465 10.3536C10.5527 10.2598 10.5 10.1326 10.5 10V6.00001H21.5V10Z" fill="white"/>
<path d="M66 3.50001H50.4138C50.0853 3.49912 49.76 3.56341 49.4566 3.68914C49.1532 3.81488 48.8778 3.99957 48.6463 4.23251L44.2325 8.64626C43.9996 8.87777 43.8149 9.15321 43.6891 9.45661C43.5634 9.76001 43.4991 10.0853 43.5 10.4138V26C43.5 26.6631 43.7634 27.2989 44.2322 27.7678C44.7011 28.2366 45.337 28.5 46 28.5H66C66.6631 28.5 67.2989 28.2366 67.7678 27.7678C68.2366 27.2989 68.5 26.6631 68.5 26V6.00001C68.5 5.33697 68.2366 4.70108 67.7678 4.23224C67.2989 3.7634 66.6631 3.50001 66 3.50001ZM51.5 6.50001H60.5V9.00001H51.5V6.50001ZM65.5 25.5H46.5V10.625L48.5 8.62501V9.50001C48.5 9.82831 48.5647 10.1534 48.6903 10.4567C48.8159 10.76 49.0001 11.0356 49.2322 11.2678C49.7011 11.7366 50.337 12 51 12H61C61.3283 12 61.6534 11.9353 61.9567 11.8097C62.26 11.6841 62.5356 11.4999 62.7678 11.2678C62.9999 11.0356 63.1841 10.76 63.3097 10.4567C63.4353 10.1534 63.5 9.82831 63.5 9.50001V6.50001H65.5V25.5ZM56 13.5C54.9617 13.5 53.9466 13.8079 53.0833 14.3848C52.2199 14.9617 51.547 15.7816 51.1496 16.7409C50.7523 17.7002 50.6483 18.7558 50.8509 19.7742C51.0535 20.7926 51.5535 21.7281 52.2877 22.4623C53.0219 23.1965 53.9574 23.6966 54.9758 23.8991C55.9942 24.1017 57.0498 23.9977 58.0091 23.6004C58.9684 23.203 59.7883 22.5301 60.3652 21.6668C60.9421 20.8034 61.25 19.7884 61.25 18.75C61.25 17.3576 60.6969 16.0223 59.7123 15.0377C58.7278 14.0531 57.3924 13.5 56 13.5ZM56 21C55.555 21 55.12 20.868 54.75 20.6208C54.38 20.3736 54.0916 20.0222 53.9213 19.611C53.751 19.1999 53.7064 18.7475 53.7932 18.3111C53.8801 17.8746 54.0944 17.4737 54.409 17.159C54.7237 16.8444 55.1246 16.6301 55.5611 16.5432C55.9975 16.4564 56.4499 16.501 56.861 16.6713C57.2722 16.8416 57.6236 17.13 57.8708 17.5C58.118 17.87 58.25 18.305 58.25 18.75C58.25 19.3467 58.013 19.919 57.591 20.341C57.169 20.763 56.5967 21 56 21Z" fill="white"/>
</g>
<defs>
<clipPath id="clip0_27_7196">
<rect width="72" height="32" rx="5" fill="white"/>
</clipPath>
</defs>
</svg>
