<svg width="72" height="32" viewBox="0 0 72 32" fill="none" xmlns="http://www.w3.org/2000/svg">
<g clip-path="url(#clip0_27_2174)">
<path d="M26.294 16.17C26.1927 16.1112 26.0815 16.055 25.9665 16C26.0815 15.945 26.1927 15.8887 26.294 15.83C26.8672 15.5041 27.3703 15.068 27.7743 14.5469C28.1783 14.0257 28.4752 13.4298 28.648 12.7935C28.8208 12.1571 28.866 11.4928 28.781 10.8389C28.696 10.185 28.4825 9.55441 28.1528 8.98336C27.8231 8.4123 27.3837 7.91211 26.8599 7.51156C26.336 7.11102 25.7382 6.81804 25.1007 6.6495C24.4632 6.48096 23.7987 6.44017 23.1453 6.5295C22.492 6.61883 21.8628 6.83651 21.294 7.16999C21.1927 7.22874 21.0877 7.29499 20.984 7.36874C20.994 7.24374 21.0002 7.11874 21.0002 6.99374C21.0002 5.66766 20.4734 4.39589 19.5357 3.45821C18.5981 2.52053 17.3263 1.99374 16.0002 1.99374C14.6741 1.99374 13.4024 2.52053 12.4647 3.45821C11.527 4.39589 11.0002 5.66766 11.0002 6.99374C11.0002 7.11124 11.0002 7.23624 11.0165 7.36874C10.9127 7.29749 10.8077 7.22874 10.7065 7.16999C10.1376 6.83651 9.5084 6.61883 8.85508 6.5295C8.20176 6.44017 7.53722 6.48096 6.89973 6.6495C6.26223 6.81804 5.66437 7.11102 5.14056 7.51156C4.61675 7.91211 4.17735 8.4123 3.84764 8.98336C3.51793 9.55441 3.30444 10.185 3.21944 10.8389C3.13445 11.4928 3.17964 12.1571 3.35241 12.7935C3.52518 13.4298 3.82211 14.0257 4.22612 14.5469C4.63013 15.068 5.13323 15.5041 5.70646 15.83C5.80771 15.8887 5.91896 15.945 6.03396 16C5.91896 16.055 5.80771 16.1112 5.70646 16.17C5.13323 16.4959 4.63013 16.932 4.22612 17.4531C3.82211 17.9743 3.52518 18.5702 3.35241 19.2065C3.17964 19.8429 3.13445 20.5072 3.21944 21.1611C3.30444 21.815 3.51793 22.4456 3.84764 23.0166C4.17735 23.5877 4.61675 24.0879 5.14056 24.4884C5.66437 24.889 6.26223 25.1819 6.89973 25.3505C7.53722 25.519 8.20176 25.5598 8.85508 25.4705C9.5084 25.3812 10.1376 25.1635 10.7065 24.83C10.8077 24.7712 10.9127 24.705 11.0165 24.6312C11.0065 24.7562 11.0002 24.8812 11.0002 25C11.0002 26.3261 11.527 27.5978 12.4647 28.5355C13.4024 29.4732 14.6741 30 16.0002 30C17.3263 30 18.5981 29.4732 19.5357 28.5355C20.4734 27.5978 21.0002 26.3261 21.0002 25C21.0002 24.8825 20.994 24.7575 20.984 24.6312C21.0877 24.7025 21.1927 24.7712 21.294 24.83C22.0514 25.2688 22.9111 25.4999 23.7865 25.5C24.2263 25.4994 24.6641 25.4414 25.089 25.3275C26.0442 25.0715 26.902 24.5379 27.554 23.7944C28.206 23.0508 28.6228 22.1306 28.7518 21.1501C28.8808 20.1696 28.7161 19.1729 28.2786 18.286C27.8411 17.3991 27.1505 16.6618 26.294 16.1675V16.17ZM16.0002 19.5C15.308 19.5 14.6313 19.2947 14.0557 18.9101C13.4801 18.5256 13.0315 17.9789 12.7666 17.3394C12.5017 16.6998 12.4324 15.9961 12.5675 15.3172C12.7025 14.6382 13.0358 14.0146 13.5253 13.5251C14.0148 13.0356 14.6385 12.7023 15.3174 12.5672C15.9963 12.4322 16.7001 12.5015 17.3396 12.7664C17.9791 13.0313 18.5258 13.4799 18.9103 14.0555C19.2949 14.6311 19.5002 15.3078 19.5002 16C19.5002 16.9283 19.1315 17.8185 18.4751 18.4749C17.8187 19.1312 16.9285 19.5 16.0002 19.5Z" fill="white"/>
<path d="M66.955 16C68.0772 15.2092 68.863 14.0273 69.1581 12.6866C69.4532 11.3458 69.2362 9.94323 68.5498 8.75433C67.8634 7.56543 66.7572 6.67621 65.4486 6.26139C64.14 5.84657 62.7235 5.93614 61.4775 6.51251C61.3535 5.14547 60.7228 3.87422 59.7092 2.94849C58.6957 2.02277 57.3727 1.50949 56 1.50949C54.6274 1.50949 53.3043 2.02277 52.2908 2.94849C51.2773 3.87422 50.6466 5.14547 50.5225 6.51251C49.2766 5.93614 47.8601 5.84657 46.5515 6.26139C45.2428 6.67621 44.1366 7.56543 43.4502 8.75433C42.7638 9.94323 42.5469 11.3458 42.842 12.6866C43.1371 14.0273 43.9229 15.2092 45.045 16C43.9246 16.7915 43.1405 17.9732 42.8464 19.3131C42.5523 20.6529 42.7696 22.0544 43.4555 23.2423C44.1415 24.4303 45.2466 25.3191 46.5541 25.7342C47.8615 26.1493 49.2769 26.0609 50.5225 25.4863C50.6466 26.8533 51.2773 28.1245 52.2908 29.0503C53.3043 29.976 54.6274 30.4893 56 30.4893C57.3727 30.4893 58.6957 29.976 59.7092 29.0503C60.7228 28.1245 61.3535 26.8533 61.4775 25.4863C62.7232 26.0609 64.1386 26.1493 65.446 25.7342C66.7535 25.3191 67.8586 24.4303 68.5445 23.2423C69.2305 22.0544 69.4478 20.6529 69.1537 19.3131C68.8596 17.9732 68.0754 16.7915 66.955 16ZM53.5 16C53.5 15.5056 53.6467 15.0222 53.9214 14.6111C54.1961 14.2 54.5865 13.8795 55.0433 13.6903C55.5001 13.5011 56.0028 13.4516 56.4878 13.548C56.9727 13.6445 57.4182 13.8826 57.7678 14.2322C58.1174 14.5819 58.3555 15.0273 58.452 15.5123C58.5485 15.9972 58.4989 16.4999 58.3097 16.9567C58.1205 17.4135 57.8001 17.804 57.389 18.0787C56.9778 18.3534 56.4945 18.5 56 18.5C55.337 18.5 54.7011 18.2366 54.2323 17.7678C53.7634 17.2989 53.5 16.663 53.5 16ZM62.5438 9.33501C62.8282 9.16826 63.1428 9.05942 63.4695 9.01476C63.7961 8.9701 64.1284 8.99049 64.4471 9.07476C64.7659 9.15903 65.0648 9.30552 65.3267 9.50579C65.5886 9.70606 65.8083 9.95616 65.9732 10.2417C66.138 10.5272 66.2448 10.8425 66.2873 11.1695C66.3298 11.4964 66.3072 11.8286 66.2208 12.1467C66.1344 12.4649 65.986 12.7629 65.784 13.0234C65.5819 13.284 65.3304 13.5021 65.0438 13.665C64.7125 13.8563 63.7288 14.275 61.2813 14.4675C61.0325 13.6151 60.5813 12.8355 59.9663 12.195C61.3575 10.17 62.2125 9.52626 62.5438 9.33501ZM56 4.50001C56.6631 4.50001 57.299 4.7634 57.7678 5.23224C58.2366 5.70108 58.5 6.33697 58.5 7.00001C58.5 7.38251 58.375 8.44376 57.3138 10.66C56.4517 10.4471 55.5508 10.4471 54.6888 10.66C53.625 8.44376 53.5 7.38251 53.5 7.00001C53.5 6.33697 53.7634 5.70108 54.2323 5.23224C54.7011 4.7634 55.337 4.50001 56 4.50001ZM46.0413 10.25C46.3728 9.67582 46.9189 9.25685 47.5593 9.08526C48.1997 8.91366 48.8821 9.0035 49.4563 9.33501C49.7875 9.52626 50.6425 10.17 52.0338 12.195C51.4187 12.8355 50.9676 13.6151 50.7188 14.4675C48.2713 14.275 47.2875 13.8563 46.9563 13.665C46.3821 13.3335 45.9631 12.7874 45.7915 12.147C45.6199 11.5066 45.7098 10.8242 46.0413 10.25ZM49.4563 22.665C49.1719 22.8318 48.8573 22.9406 48.5306 22.9853C48.2039 23.0299 47.8717 23.0095 47.5529 22.9253C47.2342 22.841 46.9352 22.6945 46.6733 22.4942C46.4114 22.2939 46.1917 22.0439 46.0269 21.7583C45.862 21.4728 45.7553 21.1575 45.7128 20.8305C45.6703 20.5036 45.6929 20.1715 45.7793 19.8533C45.8656 19.5351 46.0141 19.2371 46.2161 18.9766C46.4181 18.716 46.6697 18.498 46.9563 18.335C47.2875 18.1438 48.2713 17.725 50.7188 17.5325C50.9676 18.3849 51.4187 19.1645 52.0338 19.805C50.6425 21.83 49.7875 22.4738 49.4563 22.665ZM56 27.5C55.337 27.5 54.7011 27.2366 54.2323 26.7678C53.7634 26.2989 53.5 25.663 53.5 25C53.5 24.6175 53.625 23.5563 54.6863 21.34C55.5483 21.5529 56.4492 21.5529 57.3113 21.34C58.375 23.5563 58.5 24.6175 58.5 25C58.5 25.663 58.2366 26.2989 57.7678 26.7678C57.299 27.2366 56.6631 27.5 56 27.5ZM65.9588 21.75C65.6273 22.3242 65.0812 22.7432 64.4408 22.9148C63.8003 23.0863 63.118 22.9965 62.5438 22.665C62.2125 22.4738 61.3575 21.83 59.9663 19.805C60.5813 19.1645 61.0325 18.3849 61.2813 17.5325C63.7288 17.725 64.7125 18.1438 65.0438 18.335C65.618 18.6665 66.0369 19.2126 66.2085 19.853C66.3801 20.4934 66.2903 21.1758 65.9588 21.75Z" fill="white"/>
</g>
<defs>
<clipPath id="clip0_27_2174">
<rect width="72" height="32" rx="5" fill="white"/>
</clipPath>
</defs>
</svg>
