<svg width="72" height="32" viewBox="0 0 72 32" fill="none" xmlns="http://www.w3.org/2000/svg">
<g clip-path="url(#clip0_27_5282)">
<path d="M30.7074 10.7075L26.7074 14.7075C26.5198 14.8951 26.2653 15.0006 25.9999 15.0006C25.7346 15.0006 25.4801 14.8951 25.2924 14.7075C25.1048 14.5199 24.9994 14.2654 24.9994 14C24.9994 13.7346 25.1048 13.4801 25.2924 13.2925L27.5862 11H25.9999C21.1662 11 20.1762 13.375 18.9224 16.385C17.6312 19.485 16.1662 23 9.99994 23H9.87494C9.63154 23.9427 9.05271 24.7642 8.24693 25.3106C7.44115 25.857 6.46375 26.0908 5.49794 25.9681C4.53212 25.8454 3.6442 25.3747 3.00061 24.6442C2.35703 23.9137 2.00195 22.9736 2.00195 22C2.00195 21.0264 2.35703 20.0863 3.00061 19.3558C3.6442 18.6253 4.53212 18.1546 5.49794 18.0319C6.46375 17.9092 7.44115 18.143 8.24693 18.6894C9.05271 19.2358 9.63154 20.0573 9.87494 21H9.99994C14.8337 21 15.8237 18.625 17.0774 15.615C18.3749 12.515 19.8337 9.00001 25.9999 9.00001H27.5862L25.2924 6.70751C25.1048 6.51987 24.9994 6.26537 24.9994 6.00001C24.9994 5.73464 25.1048 5.48015 25.2924 5.29251C25.4801 5.10487 25.7346 4.99945 25.9999 4.99945C26.2653 4.99945 26.5198 5.10487 26.7074 5.29251L30.7074 9.29251C30.8004 9.38538 30.8742 9.49567 30.9245 9.61707C30.9748 9.73846 31.0007 9.86859 31.0007 10C31.0007 10.1314 30.9748 10.2615 30.9245 10.3829C30.8742 10.5043 30.8004 10.6146 30.7074 10.7075Z" fill="white"/>
<path d="M71.0622 8.93876L67.0622 4.93876C66.7804 4.65697 66.3982 4.49866 65.9997 4.49866C65.6012 4.49866 65.219 4.65697 64.9372 4.93876C64.6554 5.22055 64.4971 5.60274 64.4971 6.00126C64.4971 6.39977 64.6554 6.78197 64.9372 7.06376L66.3759 8.50001H66.0009C59.5009 8.50001 57.9009 12.3388 56.6159 15.4225C55.5134 18.0688 54.6847 20.0538 51.2722 20.4338C50.8942 19.1617 50.0691 18.0691 48.9489 17.3576C47.8287 16.6461 46.489 16.3636 45.1769 16.5622C43.8648 16.7608 42.6687 17.4271 41.8093 18.4383C40.9498 19.4494 40.4849 20.7372 40.5004 22.0642C40.5158 23.3912 41.0105 24.6678 41.8932 25.6587C42.7759 26.6496 43.9872 27.288 45.3036 27.456C46.6199 27.624 47.9527 27.3105 49.056 26.5731C50.1594 25.8357 50.9589 24.7243 51.3072 23.4438C56.7247 22.96 58.1909 19.4438 59.3859 16.5775C60.6134 13.625 61.5009 11.5 66.0009 11.5H66.3759L64.9359 12.9388C64.6542 13.2206 64.4958 13.6027 64.4958 14.0013C64.4958 14.3998 64.6542 14.782 64.9359 15.0638C65.2177 15.3456 65.5999 15.5039 65.9984 15.5039C66.397 15.5039 66.7792 15.3456 67.0609 15.0638L71.0609 11.0638C71.2009 10.9245 71.3119 10.759 71.3877 10.5767C71.4636 10.3944 71.5026 10.1989 71.5028 10.0015C71.5029 9.8041 71.464 9.6086 71.3884 9.42622C71.3128 9.24385 71.202 9.0782 71.0622 8.93876ZM46.0009 24.5C45.5065 24.5 45.0231 24.3534 44.612 24.0787C44.2009 23.804 43.8805 23.4135 43.6912 22.9567C43.502 22.4999 43.4525 21.9972 43.549 21.5123C43.6454 21.0273 43.8835 20.5819 44.2332 20.2322C44.5828 19.8826 45.0283 19.6445 45.5132 19.548C45.9982 19.4516 46.5008 19.5011 46.9577 19.6903C47.4145 19.8795 47.8049 20.2 48.0796 20.6111C48.3543 21.0222 48.5009 21.5056 48.5009 22C48.5009 22.6631 48.2376 23.2989 47.7687 23.7678C47.2999 24.2366 46.664 24.5 46.0009 24.5Z" fill="white"/>
</g>
<defs>
<clipPath id="clip0_27_5282">
<rect width="72" height="32" rx="5" fill="white"/>
</clipPath>
</defs>
</svg>
