<svg width="72" height="32" viewBox="0 0 72 32" fill="none" xmlns="http://www.w3.org/2000/svg">
<g clip-path="url(#clip0_27_2184)">
<path d="M26 6C24.4781 5.99863 22.9726 6.31496 21.58 6.92875C19.6925 3.7575 16.59 2.17875 16.4475 2.105C16.3086 2.03548 16.1554 1.99928 16 1.99928C15.8446 1.99928 15.6914 2.03548 15.5525 2.105C15.41 2.1775 12.3025 3.7575 10.42 6.92875C9.02735 6.31496 7.52191 5.99863 6 6C5.73478 6 5.48043 6.10536 5.29289 6.29289C5.10536 6.48043 5 6.73478 5 7V12C5.0033 14.7432 6.03022 17.3865 7.87979 19.4125C9.72935 21.4384 12.2684 22.7013 15 22.9537V27.3825L10.4475 25.105C10.33 25.0462 10.202 25.0112 10.0709 25.0019C9.93986 24.9926 9.80823 25.0092 9.68357 25.0507C9.55891 25.0923 9.44365 25.158 9.34438 25.2441C9.24511 25.3302 9.16377 25.435 9.105 25.5525C9.04623 25.67 9.01119 25.798 9.00188 25.9291C8.99256 26.0601 9.00915 26.1918 9.05071 26.3164C9.09226 26.4411 9.15797 26.5563 9.24406 26.6556C9.33016 26.7549 9.43497 26.8362 9.5525 26.895L15.5525 29.895C15.6914 29.9645 15.8446 30.0007 16 30.0007C16.1554 30.0007 16.3086 29.9645 16.4475 29.895L22.4475 26.895C22.6849 26.7763 22.8654 26.5682 22.9493 26.3164C23.0332 26.0647 23.0137 25.7899 22.895 25.5525C22.7763 25.3151 22.5682 25.1346 22.3164 25.0507C22.0647 24.9668 21.7899 24.9863 21.5525 25.105L17 27.3825V22.9537C19.7316 22.7013 22.2707 21.4384 24.1202 19.4125C25.9698 17.3865 26.9967 14.7432 27 12V7C27 6.73478 26.8946 6.48043 26.7071 6.29289C26.5196 6.10536 26.2652 6 26 6ZM7 12V8.055C9.19914 8.30363 11.2299 9.35274 12.7053 11.0024C14.1806 12.652 14.9974 14.7869 15 17V20.945C12.8009 20.6964 10.7701 19.6473 9.29473 17.9976C7.81937 16.348 7.00257 14.2131 7 12ZM25 12C24.9974 14.2131 24.1806 16.348 22.7053 17.9976C21.2299 19.6473 19.1991 20.6964 17 20.945V17C17.0026 14.7869 17.8194 12.652 19.2947 11.0024C20.7701 9.35274 22.8009 8.30363 25 8.055V12Z" fill="white"/>
<path d="M66 5.50001C64.5549 5.49857 63.1225 5.77087 61.7787 6.30251C59.8037 3.25251 56.8137 1.73001 56.6712 1.65876C56.4629 1.55448 56.233 1.50018 56 1.50018C55.767 1.50018 55.5371 1.55448 55.3287 1.65876C55.1862 1.73001 52.1962 3.25251 50.2212 6.30251C48.8775 5.77087 47.4451 5.49857 46 5.50001C45.6022 5.50001 45.2206 5.65804 44.9393 5.93935C44.658 6.22065 44.5 6.60218 44.5 7.00001V12C44.5035 14.7893 45.5192 17.4825 47.3583 19.5795C49.1974 21.6766 51.735 23.035 54.5 23.4025V26.5725L50.6713 24.6588C50.3163 24.4875 49.9083 24.4628 49.5353 24.59C49.1623 24.7172 48.8544 24.986 48.678 25.3384C48.5017 25.6908 48.4711 26.0984 48.5928 26.4732C48.7146 26.848 48.9789 27.1598 49.3287 27.3413L55.3287 30.3413C55.5371 30.4455 55.767 30.4998 56 30.4998C56.233 30.4998 56.4629 30.4455 56.6712 30.3413L62.6712 27.3413C62.8503 27.2549 63.0104 27.1337 63.1422 26.9849C63.2741 26.8361 63.375 26.6626 63.4392 26.4744C63.5033 26.2862 63.5294 26.0872 63.516 25.8888C63.5025 25.6905 63.4498 25.4968 63.3608 25.319C63.2718 25.1412 63.1484 24.9828 62.9977 24.8532C62.847 24.7235 62.672 24.6251 62.4829 24.5637C62.2938 24.5023 62.0944 24.479 61.8963 24.4953C61.6982 24.5117 61.5052 24.5672 61.3288 24.6588L57.5 26.5725V23.4025C60.265 23.035 62.8026 21.6766 64.6417 19.5795C66.4808 17.4825 67.4965 14.7893 67.5 12V7.00001C67.5 6.60218 67.342 6.22065 67.0607 5.93935C66.7794 5.65804 66.3978 5.50001 66 5.50001ZM56 4.74251C56.7963 5.26251 58.1413 6.28126 59.1513 7.76751C57.866 8.72306 56.793 9.93484 56 11.3263C55.2066 9.93511 54.1337 8.72341 52.8488 7.76751C53.8588 6.28126 55.2037 5.26251 56 4.74251ZM47.5 12V8.63251C49.4618 8.98697 51.2371 10.0187 52.5163 11.5478C53.7955 13.0769 54.4975 15.0064 54.5 17V20.3675C52.5383 20.0128 50.7632 18.9811 49.484 17.452C48.2048 15.923 47.5027 13.9936 47.5 12ZM64.5 12C64.4973 13.9936 63.7952 15.923 62.516 17.452C61.2368 18.9811 59.4617 20.0128 57.5 20.3675V17C57.5025 15.0064 58.2045 13.0769 59.4837 11.5478C60.7629 10.0187 62.5382 8.98697 64.5 8.63251V12Z" fill="white"/>
</g>
<defs>
<clipPath id="clip0_27_2184">
<rect width="72" height="32" rx="5" fill="white"/>
</clipPath>
</defs>
</svg>
