<svg width="72" height="32" viewBox="0 0 72 32" fill="none" xmlns="http://www.w3.org/2000/svg">
<g clip-path="url(#clip0_27_2179)">
<path d="M30.7288 15.2037C30.6013 14.9796 30.4303 14.7832 30.226 14.6259C30.0217 14.4686 29.7881 14.3535 29.5388 14.2875C28.6345 14.0548 27.7 13.9612 26.7676 14.01C27.2676 11.5288 26.8926 9.56625 26.5176 8.4025C26.3646 7.92452 26.0393 7.52054 25.6049 7.26917C25.1706 7.01779 24.6582 6.93699 24.1676 7.0425C22.8956 7.32579 21.6861 7.83923 20.5988 8.5575C19.8025 6.9308 18.6431 5.50881 17.2101 4.40125C16.8628 4.14079 16.4404 4 16.0063 4C15.5722 4 15.1498 4.14079 14.8026 4.40125C13.3673 5.5081 12.2057 6.93015 11.4076 8.5575C10.3203 7.83923 9.11079 7.32579 7.83881 7.0425C7.3483 6.93646 6.83587 7.01704 6.40157 7.26851C5.96727 7.51999 5.64229 7.92429 5.49006 8.4025C5.11506 9.56625 4.74006 11.5275 5.23256 14.01C4.30008 13.9612 3.36561 14.0548 2.46132 14.2875C2.21205 14.3535 1.97844 14.4686 1.77412 14.6259C1.5698 14.7832 1.39887 14.9796 1.27132 15.2037C1.13799 15.4332 1.05164 15.6868 1.01731 15.9499C0.982969 16.213 1.00133 16.4803 1.07132 16.7362C1.49507 18.3088 2.79631 21.2975 6.73757 23.6525C10.6788 26.0075 14.1413 26 16.0063 26C17.8713 26 21.3401 26 25.2563 23.6525C29.1976 21.2975 30.4988 18.3088 30.9226 16.7362C30.9935 16.4807 31.0129 16.2136 30.9796 15.9505C30.9464 15.6874 30.8611 15.4336 30.7288 15.2037ZM7.76256 21.9363C4.43381 19.9463 3.35257 17.5062 3.00007 16.2125C3.91974 15.9854 4.87429 15.9358 5.81256 16.0662C6.12581 16.9053 6.50839 17.7169 6.95632 18.4925C8.05614 20.3887 9.49701 22.0652 11.2063 23.4375C9.99763 23.09 8.83982 22.5853 7.76256 21.9363ZM16.0001 23.8C14.8338 22.9325 12.0001 20.2712 12.0001 14.8962C12.0001 9.5875 14.7976 6.905 16.0001 6C17.2026 6.9075 20.0001 9.59 20.0001 14.8988C20.0001 20.2712 17.1663 22.9325 16.0001 23.8ZM29.0001 16.215C28.6538 17.495 27.5751 19.9413 24.2388 21.9363C23.1615 22.5848 22.0037 23.0891 20.7951 23.4363C22.5044 22.0639 23.9452 20.3874 25.0451 18.4912C25.493 17.7156 25.8756 16.9041 26.1888 16.065C27.1268 15.9357 28.0809 15.9862 29.0001 16.2138V16.215Z" fill="white"/>
<path d="M71.1627 14.9538C71.0018 14.6719 70.7862 14.425 70.5286 14.2275C70.2711 14.0301 69.9767 13.886 69.6627 13.8038C68.9121 13.6091 68.1406 13.5071 67.3652 13.5C67.6469 11.7445 67.5185 9.94764 66.9902 8.25001C66.7999 7.65377 66.3944 7.14976 65.8527 6.83618C65.311 6.5226 64.672 6.42192 64.0602 6.55376C62.9071 6.80819 61.8023 7.24582 60.7877 7.85001C59.9719 6.35176 58.8522 5.04043 57.5002 4.00001C57.0669 3.67679 56.5408 3.50218 56.0002 3.50218C55.4596 3.50218 54.9335 3.67679 54.5002 4.00001C53.1482 5.04043 52.0285 6.35176 51.2127 7.85001C50.1994 7.24576 49.0958 6.80771 47.9439 6.55251C47.3319 6.42073 46.6928 6.52159 46.1511 6.83541C45.6094 7.14924 45.204 7.65354 45.0139 8.25001C44.4856 9.94764 44.3573 11.7445 44.6389 13.5C43.8623 13.5068 43.0895 13.6088 42.3377 13.8038C42.0237 13.886 41.7293 14.0301 41.4718 14.2275C41.2142 14.425 40.9986 14.6719 40.8377 14.9538C40.6713 15.2403 40.5635 15.557 40.5206 15.8855C40.4777 16.2141 40.5005 16.5479 40.5877 16.8675C41.0314 18.5125 42.3877 21.6375 46.4802 24.0825C50.5202 26.5 54.0952 26.5 56.0102 26.5C57.9252 26.5 61.4802 26.5 65.5189 24.0825C69.6114 21.6375 70.9677 18.5125 71.4114 16.8675C71.4989 16.5479 71.5219 16.2142 71.4792 15.8857C71.4365 15.5571 71.3289 15.2404 71.1627 14.9538ZM48.0202 21.5063C45.2339 19.8413 44.1014 17.865 43.6452 16.5875C44.2462 16.4915 44.8569 16.4722 45.4627 16.53C45.7644 17.2922 46.1216 18.0313 46.5314 18.7413C47.2183 19.9285 48.04 21.0325 48.9802 22.0313C48.6627 21.875 48.3427 21.7 48.0202 21.5063ZM49.8752 18.4088C49.6127 18.0338 49.3602 17.6588 49.1252 17.2475C47.1714 13.8375 47.3552 11.1175 47.7502 9.59501C48.5698 9.8356 49.3492 10.1966 50.0627 10.6663C49.6814 12.0436 49.4921 13.4671 49.5002 14.8963C49.4947 16.0774 49.6205 17.2554 49.8752 18.4088ZM56.0002 23.1588C54.7852 22.15 52.5002 19.6238 52.5002 14.8925C52.5002 10.215 54.7502 7.68001 56.0002 6.63251C57.2502 7.68001 59.5002 10.215 59.5002 14.8925C59.5002 19.625 57.2152 22.1538 56.0002 23.1625V23.1588ZM62.1252 18.4088C62.3799 17.2554 62.5056 16.0774 62.5002 14.8963C62.5083 13.4671 62.319 12.0436 61.9377 10.6663C62.6512 10.1963 63.4305 9.83488 64.2502 9.59376C64.6414 11.1175 64.8252 13.8438 62.8677 17.2475C62.6377 17.6538 62.3852 18.04 62.1252 18.4088ZM63.9827 21.5063C63.6627 21.6975 63.3464 21.87 63.0352 22.0263C63.9716 21.0285 64.7899 19.9263 65.4739 18.7413C65.8838 18.0313 66.241 17.2922 66.5427 16.53C67.1485 16.4722 67.7592 16.4915 68.3602 16.5875C67.8989 17.865 66.7664 19.8413 63.9802 21.5063H63.9827Z" fill="white"/>
</g>
<defs>
<clipPath id="clip0_27_2179">
<rect width="72" height="32" rx="5" fill="white"/>
</clipPath>
</defs>
</svg>
