<svg width="72" height="32" viewBox="0 0 72 32" fill="none" xmlns="http://www.w3.org/2000/svg">
<g clip-path="url(#clip0_27_4695)">
<path d="M22.9487 26.6837C23.0326 26.9354 23.0131 27.21 22.8945 27.4472C22.7759 27.6845 22.5679 27.8649 22.3162 27.9487C22.0646 28.0326 21.79 28.0131 21.5528 27.8945C21.3155 27.7759 21.1351 27.5679 21.0513 27.3162L20.0513 24.3162C20.0097 24.1917 19.9931 24.0601 20.0024 23.9291C20.0118 23.7981 20.0468 23.6702 20.1055 23.5528C20.1642 23.4353 20.2455 23.3305 20.3448 23.2445C20.444 23.1584 20.5592 23.0928 20.6838 23.0512C20.8083 23.0097 20.9399 22.9931 21.0709 23.0024C21.2019 23.0118 21.3298 23.0468 21.4472 23.1055C21.5647 23.1642 21.6695 23.2455 21.7555 23.3447C21.8416 23.444 21.9072 23.5592 21.9487 23.6837L22.9487 26.6837ZM16 23C15.7348 23 15.4804 23.1054 15.2929 23.2929C15.1054 23.4804 15 23.7348 15 24V28C15 28.2652 15.1054 28.5196 15.2929 28.7071C15.4804 28.8946 15.7348 29 16 29C16.2652 29 16.5196 28.8946 16.7071 28.7071C16.8946 28.5196 17 28.2652 17 28V24C17 23.7348 16.8946 23.4804 16.7071 23.2929C16.5196 23.1054 16.2652 23 16 23ZM11.3162 23.0512C11.1917 23.0097 11.0601 22.9931 10.9291 23.0024C10.7981 23.0117 10.6702 23.0467 10.5527 23.1055C10.4353 23.1642 10.3305 23.2455 10.2445 23.3447C10.1584 23.444 10.0928 23.5591 10.0513 23.6837L9.05125 26.6837C8.96738 26.9354 8.98689 27.21 9.10551 27.4472C9.22413 27.6845 9.43213 27.8649 9.68375 27.9487C9.93537 28.0326 10.21 28.0131 10.4472 27.8945C10.6845 27.7759 10.8649 27.5679 10.9487 27.3162L11.9487 24.3162C11.9903 24.1917 12.0069 24.0601 11.9976 23.9291C11.9883 23.7981 11.9532 23.6702 11.8945 23.5527C11.8358 23.4353 11.7545 23.3305 11.6553 23.2445C11.556 23.1584 11.4408 23.0928 11.3162 23.0512ZM31 14C31 16.0275 29.3288 17.8612 26.2938 19.1612C23.5275 20.3475 19.875 21 16 21C12.125 21 8.4725 20.3475 5.70625 19.1612C2.67125 17.8612 1 16.0275 1 14C1 12.9537 1.45875 11.4012 3.64625 9.9375C5.0675 8.98625 7.01375 8.2175 9.29375 7.70625C9.92956 6.69888 10.7835 5.84716 11.7925 5.21397C12.8015 4.58078 13.9399 4.18229 15.1235 4.04791C16.3071 3.91353 17.5058 4.04669 18.6311 4.43757C19.7564 4.82844 20.7795 5.46705 21.625 6.30625C22.0563 6.73298 22.4382 7.20678 22.7638 7.71875C27.9287 8.88625 31 11.2175 31 14ZM22 12C22.002 10.9782 21.7411 9.9731 21.2425 9.08125L21.235 9.07C20.7068 8.1278 19.9344 7.34541 18.9991 6.80515C18.0637 6.26489 17.0001 5.98675 15.92 6C12.6562 6.0425 10 8.78125 10 12.1037V12.4787C9.99873 12.7034 10.0739 12.9218 10.2131 13.098C10.3524 13.2743 10.5474 13.398 10.7662 13.4487C12.4847 13.8276 14.2403 14.0125 16 14C17.7587 14.0141 19.5134 13.8309 21.2313 13.4537C21.4504 13.4033 21.6459 13.2797 21.7856 13.1035C21.9253 12.9272 22.0009 12.7087 22 12.4837V12Z" fill="white"/>
<path d="M63.4713 26.7063C63.5099 26.8995 63.51 27.0984 63.4718 27.2917C63.4335 27.4849 63.3575 27.6688 63.2481 27.8327C63.1388 27.9966 62.9982 28.1373 62.8345 28.2469C62.6707 28.3565 62.487 28.4327 62.2938 28.4713C62.197 28.4906 62.0986 28.5002 62 28.5C61.6533 28.4998 61.3174 28.3795 61.0494 28.1596C60.7814 27.9397 60.5979 27.6337 60.53 27.2938L60.03 24.7938C59.9521 24.4036 60.0324 23.9984 60.2532 23.6674C60.474 23.3364 60.8173 23.1067 61.2075 23.0288C61.5977 22.9508 62.0029 23.0311 62.3339 23.252C62.6649 23.4728 62.8946 23.8161 62.9725 24.2063L63.4713 26.7063ZM56 23.5C55.6022 23.5 55.2206 23.658 54.9393 23.9393C54.658 24.2206 54.5 24.6022 54.5 25V28C54.5 28.3978 54.658 28.7794 54.9393 29.0607C55.2206 29.342 55.6022 29.5 56 29.5C56.3978 29.5 56.7794 29.342 57.0607 29.0607C57.342 28.7794 57.5 28.3978 57.5 28V25C57.5 24.6022 57.342 24.2206 57.0607 23.9393C56.7794 23.658 56.3978 23.5 56 23.5ZM50.7937 23.0288C50.6005 22.9901 50.4016 22.99 50.2083 23.0282C50.0151 23.0665 49.8312 23.1425 49.6673 23.2519C49.5034 23.3612 49.3627 23.5018 49.2531 23.6655C49.1435 23.8293 49.0673 24.013 49.0288 24.2063L48.5288 26.7063C48.4901 26.8995 48.49 27.0984 48.5282 27.2917C48.5665 27.4849 48.6425 27.6688 48.7519 27.8327C48.8612 27.9966 49.0018 28.1373 49.1655 28.2469C49.3293 28.3565 49.513 28.4327 49.7063 28.4713C49.803 28.4906 49.9014 28.5002 50 28.5C50.3467 28.4998 50.6826 28.3795 50.9506 28.1596C51.2186 27.9397 51.4021 27.6337 51.47 27.2938L51.97 24.7938C52.048 24.4037 51.9679 23.9987 51.7473 23.6677C51.5268 23.3367 51.1838 23.1069 50.7937 23.0288ZM71.5 14C71.5 16.24 69.7213 18.2363 66.49 19.625C63.6637 20.8363 59.9375 21.5 56 21.5C52.0625 21.5 48.3363 20.8325 45.51 19.625C42.2788 18.2363 40.5 16.24 40.5 14C40.5 10.9925 43.66 8.5 48.9888 7.26375C49.6806 6.22584 50.5937 5.35395 51.6624 4.71066C52.7311 4.06737 53.9289 3.66862 55.17 3.54303C56.411 3.41745 57.6644 3.56814 58.8404 3.98429C60.0163 4.40044 61.0855 5.07174 61.9713 5.95C62.3809 6.35474 62.7489 6.79946 63.07 7.2775C68.3625 8.5175 71.5 11.0063 71.5 14ZM50.5 12.1038V12.4788C50.5001 12.5895 50.537 12.6972 50.6048 12.7847C50.6727 12.8723 50.7677 12.9348 50.875 12.9625C52.5579 13.3327 54.2769 13.513 56 13.5C57.7229 13.5143 59.442 13.3352 61.125 12.9663C61.2323 12.9386 61.3273 12.876 61.3952 12.7885C61.463 12.7009 61.4999 12.5933 61.5 12.4825V12C61.5 10.5413 60.9205 9.14236 59.8891 8.11091C58.8576 7.07946 57.4587 6.5 56 6.5H55.9263C52.9338 6.53875 50.5 9.05375 50.5 12.1038ZM68.5 14C68.5 13.17 67.5437 12.405 66.9737 12.0213C66.1749 11.505 65.315 11.0902 64.4137 10.7863C64.4708 11.1883 64.4997 11.5939 64.5 12V12.4913C64.5013 13.2809 64.2339 14.0475 63.7419 14.6651C63.2499 15.2828 62.5625 15.7147 61.7925 15.89C59.8906 16.3097 57.9476 16.5143 56 16.5C54.0528 16.5143 52.1102 16.3096 50.2087 15.89C49.4388 15.715 48.7512 15.2834 48.259 14.666C47.7667 14.0486 47.4991 13.2821 47.5 12.4925V12.1088C47.5005 11.6639 47.5348 11.2197 47.6025 10.78C46.6994 11.0842 45.8374 11.499 45.0363 12.015C44.4625 12.3988 43.5 13.1675 43.5 14C43.5 15.835 48.375 18.5 56 18.5C63.625 18.5 68.5 15.835 68.5 14Z" fill="white"/>
</g>
<defs>
<clipPath id="clip0_27_4695">
<rect width="72" height="32" rx="5" fill="white"/>
</clipPath>
</defs>
</svg>
