<svg width="72" height="32" viewBox="0 0 72 32" fill="none" xmlns="http://www.w3.org/2000/svg">
<g clip-path="url(#clip0_27_7251)">
<path d="M27 9H16.3337L12.8663 6.4C12.5196 6.14132 12.0988 6.00107 11.6663 6H5C4.46957 6 3.96086 6.21071 3.58579 6.58579C3.21071 6.96086 3 7.46957 3 8V25C3 25.5304 3.21071 26.0391 3.58579 26.4142C3.96086 26.7893 4.46957 27 5 27H27.1112C27.612 26.9993 28.092 26.8001 28.4461 26.4461C28.8001 26.092 28.9993 25.612 29 25.1112V11C29 10.4696 28.7893 9.96086 28.4142 9.58579C28.0391 9.21071 27.5304 9 27 9ZM19 19H17V21C17 21.2652 16.8946 21.5196 16.7071 21.7071C16.5196 21.8946 16.2652 22 16 22C15.7348 22 15.4804 21.8946 15.2929 21.7071C15.1054 21.5196 15 21.2652 15 21V19H13C12.7348 19 12.4804 18.8946 12.2929 18.7071C12.1054 18.5196 12 18.2652 12 18C12 17.7348 12.1054 17.4804 12.2929 17.2929C12.4804 17.1054 12.7348 17 13 17H15V15C15 14.7348 15.1054 14.4804 15.2929 14.2929C15.4804 14.1054 15.7348 14 16 14C16.2652 14 16.5196 14.1054 16.7071 14.2929C16.8946 14.4804 17 14.7348 17 15V17H19C19.2652 17 19.5196 17.1054 19.7071 17.2929C19.8946 17.4804 20 17.7348 20 18C20 18.2652 19.8946 18.5196 19.7071 18.7071C19.5196 18.8946 19.2652 19 19 19Z" fill="white"/>
<path d="M67 8.5H56.5L53.1663 6C52.733 5.67641 52.207 5.50107 51.6663 5.5H45C44.337 5.5 43.7011 5.76339 43.2322 6.23223C42.7634 6.70107 42.5 7.33696 42.5 8V25C42.5 25.663 42.7634 26.2989 43.2322 26.7678C43.7011 27.2366 44.337 27.5 45 27.5H67.1112C67.7446 27.4993 68.3518 27.2475 68.7996 26.7996C69.2475 26.3518 69.4993 25.7446 69.5 25.1112V11C69.5 10.337 69.2366 9.70107 68.7678 9.23223C68.2989 8.76339 67.663 8.5 67 8.5ZM66.5 24.5H45.5V8.5H51.5L55.1 11.2C55.3596 11.3947 55.6754 11.5 56 11.5H66.5V24.5ZM56 13.5C56.3978 13.5 56.7794 13.658 57.0607 13.9393C57.342 14.2206 57.5 14.6022 57.5 15V16.5H59C59.3978 16.5 59.7794 16.658 60.0607 16.9393C60.342 17.2206 60.5 17.6022 60.5 18C60.5 18.3978 60.342 18.7794 60.0607 19.0607C59.7794 19.342 59.3978 19.5 59 19.5H57.5V21C57.5 21.3978 57.342 21.7794 57.0607 22.0607C56.7794 22.342 56.3978 22.5 56 22.5C55.6022 22.5 55.2206 22.342 54.9393 22.0607C54.658 21.7794 54.5 21.3978 54.5 21V19.5H53C52.6022 19.5 52.2206 19.342 51.9393 19.0607C51.658 18.7794 51.5 18.3978 51.5 18C51.5 17.6022 51.658 17.2206 51.9393 16.9393C52.2206 16.658 52.6022 16.5 53 16.5H54.5V15C54.5 14.6022 54.658 14.2206 54.9393 13.9393C55.2206 13.658 55.6022 13.5 56 13.5Z" fill="white"/>
</g>
<defs>
<clipPath id="clip0_27_7251">
<rect width="72" height="32" rx="5" fill="white"/>
</clipPath>
</defs>
</svg>
