<svg width="72" height="32" viewBox="0 0 72 32" fill="none" xmlns="http://www.w3.org/2000/svg">
<g clip-path="url(#clip0_27_7271)">
<path d="M28.9662 27.7425C29.0057 27.8906 29.0106 28.0458 28.9806 28.1961C28.9505 28.3464 28.8863 28.4878 28.7929 28.6093C28.6995 28.7308 28.5795 28.8293 28.442 28.897C28.3045 28.9648 28.1533 29 28 29H20C19.8476 28.9997 19.6972 28.9646 19.5604 28.8972C19.4236 28.8299 19.3041 28.7322 19.2108 28.6116C19.1176 28.491 19.0532 28.3506 19.0225 28.2013C18.9918 28.052 18.9956 27.8976 19.0338 27.75C19.3578 26.5451 20.1207 25.5049 21.1725 24.8338C20.6128 24.2745 20.2316 23.5617 20.0771 22.7857C19.9225 22.0097 20.0016 21.2053 20.3042 20.4743C20.6069 19.7432 21.1196 19.1184 21.7774 18.6787C22.4353 18.2391 23.2088 18.0044 24 18.0044C24.7912 18.0044 25.5647 18.2391 26.2226 18.6787C26.8804 19.1184 27.3931 19.7432 27.6958 20.4743C27.9984 21.2053 28.0775 22.0097 27.9229 22.7857C27.7684 23.5617 27.3872 24.2745 26.8275 24.8338C27.8778 25.5031 28.6405 26.5404 28.9662 27.7425ZM29 11V15C29 15.2652 28.8946 15.5196 28.7071 15.7071C28.5196 15.8947 28.2652 16 28 16C27.7348 16 27.4804 15.8947 27.2929 15.7071C27.1054 15.5196 27 15.2652 27 15V11H5V25H15.07C15.3352 25 15.5896 25.1054 15.7771 25.2929C15.9646 25.4804 16.07 25.7348 16.07 26C16.07 26.2652 15.9646 26.5196 15.7771 26.7071C15.5896 26.8947 15.3352 27 15.07 27H4.9225C4.41282 26.9993 3.92421 26.7966 3.56382 26.4362C3.20342 26.0758 3.00066 25.5872 3 25.0775V7.00001C3 6.46958 3.21071 5.96087 3.58579 5.5858C3.96086 5.21072 4.46957 5.00001 5 5.00001H11.5863C11.849 4.99917 12.1093 5.05057 12.352 5.15121C12.5947 5.25185 12.815 5.39973 13 5.58626L16.4137 9.00001H27C27.5304 9.00001 28.0391 9.21072 28.4142 9.5858C28.7893 9.96087 29 10.4696 29 11ZM13.5863 9.00001L11.5863 7.00001H5V9.00001H13.5863Z" fill="white"/>
<path d="M67.5637 24.7425C68.0775 24.0767 68.3945 23.2803 68.4787 22.4436C68.5628 21.6068 68.4108 20.7633 68.0399 20.0085C67.669 19.2537 67.094 18.618 66.3802 18.1734C65.6664 17.7289 64.8422 17.4932 64.0012 17.4932C63.1603 17.4932 62.3361 17.7289 61.6223 18.1734C60.9085 18.618 60.3335 19.2537 59.9626 20.0085C59.5917 20.7633 59.4397 21.6068 59.5238 22.4436C59.608 23.2803 59.925 24.0767 60.4387 24.7425C59.5177 25.4733 58.8567 26.4815 58.5537 27.6175C58.452 28.0019 58.507 28.411 58.7067 28.7548C58.9064 29.0987 59.2344 29.3492 59.6187 29.4513C59.7432 29.4841 59.8713 29.5005 60 29.5C60.3306 29.4998 60.6519 29.3903 60.9139 29.1887C61.1759 28.9871 61.3639 28.7045 61.4487 28.385C61.75 27.275 62.7938 26.5 64 26.5C65.2062 26.5 66.25 27.275 66.55 28.385C66.6574 28.7636 66.9093 29.0849 67.2514 29.2794C67.5935 29.474 67.9984 29.5264 68.3787 29.4252C68.7591 29.324 69.0844 29.0774 69.2845 28.7385C69.4847 28.3996 69.5437 27.9957 69.4487 27.6138C69.1455 26.4789 68.4845 25.472 67.5637 24.7425ZM64 20.5C64.2967 20.5 64.5867 20.588 64.8334 20.7528C65.08 20.9176 65.2723 21.1519 65.3858 21.426C65.4993 21.7001 65.5291 22.0017 65.4712 22.2926C65.4133 22.5836 65.2704 22.8509 65.0607 23.0607C64.8509 23.2704 64.5836 23.4133 64.2926 23.4712C64.0017 23.5291 63.7001 23.4994 63.426 23.3858C63.1519 23.2723 62.9176 23.08 62.7528 22.8334C62.588 22.5867 62.5 22.2967 62.5 22C62.5 21.6022 62.658 21.2206 62.9393 20.9393C63.2206 20.658 63.6022 20.5 64 20.5ZM67 8.5H56.6737L53.4237 4.83875C53.1887 4.57445 52.9003 4.36302 52.5775 4.21843C52.2547 4.07385 51.9049 3.9994 51.5513 4H45C44.337 4 43.7011 4.2634 43.2322 4.73224C42.7634 5.20108 42.5 5.83696 42.5 6.5V25.0763C42.5007 25.7187 42.7561 26.3346 43.2102 26.7889C43.6643 27.2433 44.2801 27.499 44.9225 27.5H54.07C54.4678 27.5 54.8494 27.342 55.1307 27.0607C55.412 26.7794 55.57 26.3978 55.57 26C55.57 25.6022 55.412 25.2206 55.1307 24.9393C54.8494 24.658 54.4678 24.5 54.07 24.5H45.5V11.5H66.5V13.5C66.5 13.8978 66.658 14.2794 66.9393 14.5607C67.2206 14.842 67.6022 15 68 15C68.3978 15 68.7794 14.842 69.0607 14.5607C69.342 14.2794 69.5 13.8978 69.5 13.5V11C69.5 10.337 69.2366 9.70108 68.7678 9.23224C68.2989 8.7634 67.663 8.5 67 8.5ZM45.5 8.5V7H51.3263L52.66 8.5H45.5Z" fill="white"/>
</g>
<defs>
<clipPath id="clip0_27_7271">
<rect width="72" height="32" rx="5" fill="white"/>
</clipPath>
</defs>
</svg>
