<svg width="72" height="32" viewBox="0 0 72 32" fill="none" xmlns="http://www.w3.org/2000/svg">
<g clip-path="url(#clip0_27_7201)">
<path d="M27 9.00001H16.4137L13 5.58626C12.8149 5.39984 12.5946 5.25203 12.3519 5.1514C12.1092 5.05077 11.849 4.99931 11.5863 5.00001H5C4.46957 5.00001 3.96086 5.21072 3.58579 5.58579C3.21071 5.96087 3 6.46957 3 7.00001V25.0775C3.00099 25.5873 3.20403 26.0759 3.56462 26.4363C3.92522 26.7966 4.41396 26.9993 4.92375 27H27.1112C27.612 26.9993 28.092 26.8001 28.4461 26.4461C28.8001 26.092 28.9993 25.612 29 25.1113V11C29 10.4696 28.7893 9.96087 28.4142 9.58579C28.0391 9.21072 27.5304 9.00001 27 9.00001ZM5 7.00001H11.5863L13.5863 9.00001H5V7.00001Z" fill="white"/>
<path d="M67 8.50001H56.6737L53.4237 4.83876C53.1884 4.57414 52.8996 4.36252 52.5764 4.21792C52.2531 4.07333 51.9029 3.99905 51.5487 4.00001H45C44.337 4.00001 43.7011 4.2634 43.2322 4.73224C42.7634 5.20108 42.5 5.83697 42.5 6.50001V25.0775C42.501 25.7197 42.7565 26.3353 43.2106 26.7894C43.6647 27.2435 44.2803 27.499 44.9225 27.5H67.1112C67.7446 27.4993 68.3518 27.2475 68.7996 26.7996C69.2475 26.3518 69.4993 25.7446 69.5 25.1113V11C69.5 10.337 69.2366 9.70108 68.7678 9.23224C68.2989 8.7634 67.663 8.50001 67 8.50001ZM45.5 7.00001H51.3263L52.66 8.50001H45.5V7.00001ZM66.5 24.5H45.5V11.5H66.5V24.5Z" fill="white"/>
</g>
<defs>
<clipPath id="clip0_27_7201">
<rect width="72" height="32" rx="5" fill="white"/>
</clipPath>
</defs>
</svg>
