<svg width="72" height="32" viewBox="0 0 72 32" fill="none" xmlns="http://www.w3.org/2000/svg">
<g clip-path="url(#clip0_27_7206)">
<path d="M12 26C12 26.2652 11.8946 26.5196 11.7071 26.7071C11.5196 26.8947 11.2652 27 11 27H4.9225C4.41282 26.9993 3.92421 26.7966 3.56382 26.4362C3.20342 26.0758 3.00066 25.5872 3 25.0775V24C3 23.7348 3.10536 23.4804 3.29289 23.2929C3.48043 23.1054 3.73478 23 4 23C4.26522 23 4.51957 23.1054 4.70711 23.2929C4.89464 23.4804 5 23.7348 5 24V25H11C11.2652 25 11.5196 25.1054 11.7071 25.2929C11.8946 25.4804 12 25.7348 12 26ZM20 25H16C15.7348 25 15.4804 25.1054 15.2929 25.2929C15.1054 25.4804 15 25.7348 15 26C15 26.2652 15.1054 26.5196 15.2929 26.7071C15.4804 26.8947 15.7348 27 16 27H20C20.2652 27 20.5196 26.8947 20.7071 26.7071C20.8946 26.5196 21 26.2652 21 26C21 25.7348 20.8946 25.4804 20.7071 25.2929C20.5196 25.1054 20.2652 25 20 25ZM28 18C27.7348 18 27.4804 18.1054 27.2929 18.2929C27.1054 18.4804 27 18.7348 27 19V25H25C24.7348 25 24.4804 25.1054 24.2929 25.2929C24.1054 25.4804 24 25.7348 24 26C24 26.2652 24.1054 26.5196 24.2929 26.7071C24.4804 26.8947 24.7348 27 25 27H27.1112C27.612 26.9993 28.092 26.8001 28.4461 26.4461C28.8001 26.092 28.9993 25.612 29 25.1113V19C29 18.7348 28.8946 18.4804 28.7071 18.2929C28.5196 18.1054 28.2652 18 28 18ZM27 9.00001H21C20.7348 9.00001 20.4804 9.10537 20.2929 9.2929C20.1054 9.48044 20 9.73479 20 10C20 10.2652 20.1054 10.5196 20.2929 10.7071C20.4804 10.8947 20.7348 11 21 11H27V14C27 14.2652 27.1054 14.5196 27.2929 14.7071C27.4804 14.8947 27.7348 15 28 15C28.2652 15 28.5196 14.8947 28.7071 14.7071C28.8946 14.5196 29 14.2652 29 14V11C29 10.4696 28.7893 9.96087 28.4142 9.5858C28.0391 9.21072 27.5304 9.00001 27 9.00001ZM4 11H16C16.1979 11.0002 16.3914 10.9416 16.556 10.8317C16.7206 10.7219 16.8489 10.5656 16.9246 10.3828C17.0004 10.2 17.0202 9.99879 16.9815 9.8047C16.9429 9.61062 16.8475 9.43236 16.7075 9.29251L13 5.58626C12.815 5.39973 12.5947 5.25185 12.352 5.15121C12.1093 5.05057 11.849 4.99917 11.5863 5.00001H5C4.46957 5.00001 3.96086 5.21072 3.58579 5.5858C3.21071 5.96087 3 6.46958 3 7.00001V10C3 10.2652 3.10536 10.5196 3.29289 10.7071C3.48043 10.8947 3.73478 11 4 11ZM4 20C4.26522 20 4.51957 19.8947 4.70711 19.7071C4.89464 19.5196 5 19.2652 5 19V15C5 14.7348 4.89464 14.4804 4.70711 14.2929C4.51957 14.1054 4.26522 14 4 14C3.73478 14 3.48043 14.1054 3.29289 14.2929C3.10536 14.4804 3 14.7348 3 15V19C3 19.2652 3.10536 19.5196 3.29289 19.7071C3.48043 19.8947 3.73478 20 4 20Z" fill="white"/>
<path d="M52.5 26C52.5 26.3978 52.342 26.7794 52.0607 27.0607C51.7794 27.342 51.3978 27.5 51 27.5H44.9225C44.2803 27.499 43.6647 27.2435 43.2106 26.7894C42.7565 26.3353 42.501 25.7197 42.5 25.0775V24C42.5 23.6022 42.658 23.2206 42.9393 22.9393C43.2206 22.658 43.6022 22.5 44 22.5C44.3978 22.5 44.7794 22.658 45.0607 22.9393C45.342 23.2206 45.5 23.6022 45.5 24V24.5H51C51.3978 24.5 51.7794 24.658 52.0607 24.9393C52.342 25.2206 52.5 25.6022 52.5 26ZM60 24.5H56C55.6022 24.5 55.2206 24.658 54.9393 24.9393C54.658 25.2206 54.5 25.6022 54.5 26C54.5 26.3978 54.658 26.7794 54.9393 27.0607C55.2206 27.342 55.6022 27.5 56 27.5H60C60.3978 27.5 60.7794 27.342 61.0607 27.0607C61.342 26.7794 61.5 26.3978 61.5 26C61.5 25.6022 61.342 25.2206 61.0607 24.9393C60.7794 24.658 60.3978 24.5 60 24.5ZM68 17.5C67.6022 17.5 67.2206 17.658 66.9393 17.9393C66.658 18.2206 66.5 18.6022 66.5 19V24.5H65C64.6022 24.5 64.2206 24.658 63.9393 24.9393C63.658 25.2206 63.5 25.6022 63.5 26C63.5 26.3978 63.658 26.7794 63.9393 27.0607C64.2206 27.342 64.6022 27.5 65 27.5H67.1112C67.7446 27.4993 68.3518 27.2475 68.7996 26.7996C69.2475 26.3518 69.4993 25.7446 69.5 25.1112V19C69.5 18.6022 69.342 18.2206 69.0607 17.9393C68.7794 17.658 68.3978 17.5 68 17.5ZM67 8.5H61C60.6022 8.5 60.2206 8.65804 59.9393 8.93934C59.658 9.22064 59.5 9.60218 59.5 10C59.5 10.3978 59.658 10.7794 59.9393 11.0607C60.2206 11.342 60.6022 11.5 61 11.5H66.5V14C66.5 14.3978 66.658 14.7794 66.9393 15.0607C67.2206 15.342 67.6022 15.5 68 15.5C68.3978 15.5 68.7794 15.342 69.0607 15.0607C69.342 14.7794 69.5 14.3978 69.5 14V11C69.5 10.337 69.2366 9.70107 68.7678 9.23223C68.2989 8.76339 67.663 8.5 67 8.5ZM44 20.5C44.3978 20.5 44.7794 20.342 45.0607 20.0607C45.342 19.7794 45.5 19.3978 45.5 19V15C45.5 14.6022 45.342 14.2206 45.0607 13.9393C44.7794 13.658 44.3978 13.5 44 13.5C43.6022 13.5 43.2206 13.658 42.9393 13.9393C42.658 14.2206 42.5 14.6022 42.5 15V19C42.5 19.3978 42.658 19.7794 42.9393 20.0607C43.2206 20.342 43.6022 20.5 44 20.5ZM42.5 10V6.5C42.5 5.83696 42.7634 5.20107 43.2322 4.73223C43.7011 4.26339 44.337 4 45 4H51.5513C51.9041 4.0001 52.2529 4.07489 52.5748 4.21945C52.8967 4.36402 53.1843 4.57507 53.4187 4.83875L57.125 9C57.3184 9.21627 57.445 9.484 57.4894 9.77075C57.5337 10.0575 57.4939 10.351 57.3749 10.6156C57.2558 10.8802 57.0625 11.1046 56.8185 11.2615C56.5745 11.4185 56.2902 11.5014 56 11.5H44C43.6022 11.5 43.2206 11.342 42.9393 11.0607C42.658 10.7794 42.5 10.3978 42.5 10ZM45.5 8.5H52.66L51.3263 7H45.5V8.5Z" fill="white"/>
</g>
<defs>
<clipPath id="clip0_27_7206">
<rect width="72" height="32" rx="5" fill="white"/>
</clipPath>
</defs>
</svg>
