<svg width="72" height="32" viewBox="0 0 72 32" fill="none" xmlns="http://www.w3.org/2000/svg">
<g clip-path="url(#clip0_27_7211)">
<path d="M27 9.00001H16.4137L13 5.58626C12.815 5.39973 12.5947 5.25185 12.352 5.15121C12.1093 5.05057 11.849 4.99917 11.5863 5.00001H5C4.46957 5.00001 3.96086 5.21072 3.58579 5.5858C3.21071 5.96087 3 6.46958 3 7.00001V25.0775C3.00066 25.5872 3.20342 26.0758 3.56382 26.4362C3.92421 26.7966 4.41282 26.9993 4.9225 27H14.07C14.3352 27 14.5896 26.8947 14.7771 26.7071C14.9646 26.5196 15.07 26.2652 15.07 26C15.07 25.7348 14.9646 25.4804 14.7771 25.2929C14.5896 25.1054 14.3352 25 14.07 25H5V11H27V13C27 13.2652 27.1054 13.5196 27.2929 13.7071C27.4804 13.8947 27.7348 14 28 14C28.2652 14 28.5196 13.8947 28.7071 13.7071C28.8946 13.5196 29 13.2652 29 13V11C29 10.4696 28.7893 9.96087 28.4142 9.5858C28.0391 9.21072 27.5304 9.00001 27 9.00001ZM5 9.00001V7.00001H11.5863L13.5863 9.00001H5ZM28 20H27V19.5C27 18.5718 26.6313 17.6815 25.9749 17.0251C25.3185 16.3688 24.4283 16 23.5 16C22.5717 16 21.6815 16.3688 21.0251 17.0251C20.3687 17.6815 20 18.5718 20 19.5V20H19C18.7348 20 18.4804 20.1054 18.2929 20.2929C18.1054 20.4804 18 20.7348 18 21V26C18 26.2652 18.1054 26.5196 18.2929 26.7071C18.4804 26.8947 18.7348 27 19 27H28C28.2652 27 28.5196 26.8947 28.7071 26.7071C28.8946 26.5196 29 26.2652 29 26V21C29 20.7348 28.8946 20.4804 28.7071 20.2929C28.5196 20.1054 28.2652 20 28 20ZM25 20H22V19.5C22 19.1022 22.158 18.7207 22.4393 18.4394C22.7206 18.158 23.1022 18 23.5 18C23.8978 18 24.2794 18.158 24.5607 18.4394C24.842 18.7207 25 19.1022 25 19.5V20Z" fill="white"/>
<path d="M68 19H67.5V18.5C67.5 17.4391 67.0786 16.4217 66.3284 15.6716C65.5783 14.9214 64.5609 14.5 63.5 14.5C62.4391 14.5 61.4217 14.9214 60.6716 15.6716C59.9214 16.4217 59.5 17.4391 59.5 18.5V19H59C58.6022 19 58.2206 19.158 57.9393 19.4394C57.658 19.7207 57.5 20.1022 57.5 20.5V26C57.5 26.3978 57.658 26.7794 57.9393 27.0607C58.2206 27.342 58.6022 27.5 59 27.5H68C68.3978 27.5 68.7794 27.342 69.0607 27.0607C69.342 26.7794 69.5 26.3978 69.5 26V20.5C69.5 20.1022 69.342 19.7207 69.0607 19.4394C68.7794 19.158 68.3978 19 68 19ZM62.5 18.5C62.5 18.2348 62.6054 17.9804 62.7929 17.7929C62.9804 17.6054 63.2348 17.5 63.5 17.5C63.7652 17.5 64.0196 17.6054 64.2071 17.7929C64.3946 17.9804 64.5 18.2348 64.5 18.5V19H62.5V18.5ZM66.5 24.5H60.5V22H66.5V24.5ZM67 8.50001H56.6737L53.4237 4.83876C53.1884 4.57414 52.8996 4.36252 52.5764 4.21792C52.2531 4.07333 51.9029 3.99905 51.5487 4.00001H45C44.337 4.00001 43.7011 4.2634 43.2322 4.73224C42.7634 5.20108 42.5 5.83697 42.5 6.50001V25.0775C42.501 25.7197 42.7565 26.3353 43.2106 26.7894C43.6647 27.2435 44.2803 27.499 44.9225 27.5H53.07C53.4678 27.5 53.8494 27.342 54.1307 27.0607C54.412 26.7794 54.57 26.3978 54.57 26C54.57 25.6022 54.412 25.2207 54.1307 24.9394C53.8494 24.658 53.4678 24.5 53.07 24.5H45.5V11.5H66.5C66.5 11.8978 66.658 12.2794 66.9393 12.5607C67.2206 12.842 67.6022 13 68 13C68.3978 13 68.7794 12.842 69.0607 12.5607C69.342 12.2794 69.5 11.8978 69.5 11.5V11C69.5 10.337 69.2366 9.70108 68.7678 9.23224C68.2989 8.7634 67.663 8.50001 67 8.50001ZM45.5 8.50001V7.00001H51.3263L52.66 8.50001H45.5Z" fill="white"/>
</g>
<defs>
<clipPath id="clip0_27_7211">
<rect width="72" height="32" rx="5" fill="white"/>
</clipPath>
</defs>
</svg>
