<svg width="72" height="32" viewBox="0 0 72 32" fill="none" xmlns="http://www.w3.org/2000/svg">
<g clip-path="url(#clip0_27_7231)">
<path d="M29 11V25.1112C28.9993 25.612 28.8001 26.092 28.4461 26.4461C28.092 26.8001 27.612 26.9993 27.1112 27H5C4.46957 27 3.96086 26.7893 3.58579 26.4142C3.21071 26.0391 3 25.5304 3 25V8C3 7.46957 3.21071 6.96086 3.58579 6.58579C3.96086 6.21071 4.46957 6 5 6H11.6663C12.0988 6.00107 12.5196 6.14132 12.8663 6.4L16.3337 9H27C27.5304 9 28.0391 9.21071 28.4142 9.58579C28.7893 9.96086 29 10.4696 29 11Z" fill="white"/>
<path d="M67 8.5H56.5L53.1663 6C52.733 5.67641 52.207 5.50107 51.6663 5.5H45C44.337 5.5 43.7011 5.76339 43.2322 6.23223C42.7634 6.70107 42.5 7.33696 42.5 8V25C42.5 25.663 42.7634 26.2989 43.2322 26.7678C43.7011 27.2366 44.337 27.5 45 27.5H67.1112C67.7446 27.4993 68.3518 27.2475 68.7996 26.7996C69.2475 26.3518 69.4993 25.7446 69.5 25.1112V11C69.5 10.337 69.2366 9.70107 68.7678 9.23223C68.2989 8.76339 67.663 8.5 67 8.5ZM66.5 24.5H45.5V8.5H51.5L55.1 11.2C55.3596 11.3947 55.6754 11.5 56 11.5H66.5V24.5Z" fill="white"/>
</g>
<defs>
<clipPath id="clip0_27_7231">
<rect width="72" height="32" rx="5" fill="white"/>
</clipPath>
</defs>
</svg>
