<svg width="72" height="32" viewBox="0 0 72 32" fill="none" xmlns="http://www.w3.org/2000/svg">
<g clip-path="url(#clip0_27_7266)">
<path d="M29.6362 20.9725L26.8225 23.2963L27.6787 26.76C27.7258 26.951 27.7154 27.1516 27.649 27.3367C27.5826 27.5218 27.463 27.6833 27.3053 27.8008C27.1476 27.9183 26.9588 27.9868 26.7624 27.9975C26.566 28.0083 26.3708 27.9609 26.2013 27.8613L23 25.9775L19.7987 27.8613C19.6292 27.9609 19.434 28.0083 19.2376 27.9975C19.0412 27.9868 18.8524 27.9183 18.6947 27.8008C18.537 27.6833 18.4174 27.5218 18.351 27.3367C18.2846 27.1516 18.2742 26.951 18.3213 26.76L19.1775 23.2963L16.3638 20.9725C16.2103 20.8456 16.0983 20.6758 16.0419 20.4848C15.9856 20.2938 15.9876 20.0904 16.0476 19.9005C16.1076 19.7106 16.2229 19.543 16.3788 19.4191C16.5347 19.2952 16.724 19.2207 16.9225 19.205L20.6525 18.9163L22.0812 15.6038C22.1585 15.4241 22.2866 15.271 22.4499 15.1635C22.6132 15.0559 22.8045 14.9986 23 14.9986C23.1955 14.9986 23.3868 15.0559 23.5501 15.1635C23.7134 15.271 23.8415 15.4241 23.9188 15.6038L25.3475 18.9163L29.0775 19.205C29.276 19.2207 29.4653 19.2952 29.6212 19.4191C29.7771 19.543 29.8924 19.7106 29.9524 19.9005C30.0124 20.0904 30.0144 20.2938 29.9581 20.4848C29.9018 20.6758 29.7897 20.8456 29.6362 20.9725ZM16.07 26C16.07 26.2652 15.9646 26.5196 15.7771 26.7071C15.5896 26.8947 15.3352 27 15.07 27H4.9225C4.41282 26.9993 3.92421 26.7966 3.56382 26.4362C3.20342 26.0758 3.00066 25.5872 3 25.0775V7.00001C3 6.46958 3.21071 5.96087 3.58579 5.5858C3.96086 5.21072 4.46957 5.00001 5 5.00001H11.5863C11.849 4.99917 12.1093 5.05057 12.352 5.15121C12.5947 5.25185 12.815 5.39973 13 5.58626L16.4137 9.00001H27C27.5304 9.00001 28.0391 9.21072 28.4142 9.5858C28.7893 9.96087 29 10.4696 29 11V15C29 15.2652 28.8946 15.5196 28.7071 15.7071C28.5196 15.8947 28.2652 16 28 16C27.7348 16 27.4804 15.8947 27.2929 15.7071C27.1054 15.5196 27 15.2652 27 15V11H5V25H15.07C15.3352 25 15.5896 25.1054 15.7771 25.2929C15.9646 25.4804 16.07 25.7348 16.07 26ZM5 9.00001H13.5863L11.5863 7.00001H5V9.00001Z" fill="white"/>
<path d="M54.07 24.5H45.5V11.5H66.5V14C66.5 14.3978 66.658 14.7794 66.9393 15.0607C67.2206 15.342 67.6022 15.5 68 15.5C68.3978 15.5 68.7794 15.342 69.0607 15.0607C69.342 14.7794 69.5 14.3978 69.5 14V11C69.5 10.337 69.2366 9.70108 68.7678 9.23224C68.2989 8.7634 67.663 8.5 67 8.5H56.6737L53.4237 4.83875C53.1887 4.57445 52.9003 4.36302 52.5775 4.21843C52.2547 4.07385 51.9049 3.9994 51.5513 4H45C44.337 4 43.7011 4.2634 43.2322 4.73224C42.7634 5.20108 42.5 5.83696 42.5 6.5V25.0775C42.501 25.7197 42.7565 26.3353 43.2106 26.7894C43.6647 27.2435 44.2803 27.499 44.9225 27.5H54.07C54.4678 27.5 54.8494 27.342 55.1307 27.0607C55.412 26.7794 55.57 26.3978 55.57 26C55.57 25.6022 55.412 25.2206 55.1307 24.9393C54.8494 24.658 54.4678 24.5 54.07 24.5ZM45.5 7H51.3263L52.66 8.5H45.5V7ZM70.43 19.75C70.3397 19.465 70.1662 19.2134 69.9319 19.0277C69.6976 18.8419 69.4131 18.7304 69.115 18.7075L65.6875 18.4425L64.375 15.4063C64.2583 15.1386 64.0661 14.9109 63.8218 14.7509C63.5776 14.5909 63.292 14.5057 63 14.5057C62.708 14.5057 62.4224 14.5909 62.1782 14.7509C61.9339 14.9109 61.7417 15.1386 61.625 15.4063L60.3125 18.4413L56.885 18.7063C56.5868 18.7291 56.3022 18.8406 56.0679 19.0264C55.8335 19.2123 55.6601 19.4639 55.5698 19.749C55.4795 20.0341 55.4765 20.3397 55.5612 20.6266C55.6458 20.9134 55.8143 21.1684 56.045 21.3588L58.6175 23.4838L57.8363 26.6413C57.7656 26.9278 57.781 27.2288 57.8805 27.5065C57.9801 27.7843 58.1594 28.0266 58.396 28.203C58.6325 28.3794 58.9159 28.4821 59.2105 28.4982C59.5052 28.5144 59.7981 28.4433 60.0525 28.2938L63 26.5575L65.9475 28.2925C66.2019 28.442 66.4948 28.5131 66.7895 28.497C67.0841 28.4808 67.3675 28.3781 67.604 28.2017C67.8406 28.0254 68.0199 27.7831 68.1195 27.5053C68.219 27.2275 68.2344 26.9265 68.1637 26.64L67.3825 23.4825L69.955 21.3575C70.1852 21.1673 70.3534 20.9127 70.438 20.6263C70.5226 20.3399 70.5198 20.0348 70.43 19.75ZM64.75 21.77C64.5324 21.95 64.37 22.1878 64.2815 22.4561C64.1931 22.7243 64.1821 23.0121 64.25 23.2863L64.4013 23.8975L63.7675 23.5225C63.5366 23.3874 63.2738 23.3162 63.0063 23.3162C62.7387 23.3162 62.4759 23.3874 62.245 23.5225L61.6112 23.8975L61.7625 23.2863C61.8304 23.0121 61.8194 22.7243 61.731 22.4561C61.6425 22.1878 61.4801 21.95 61.2625 21.77L60.8275 21.4113L61.4525 21.3625C61.7251 21.3416 61.9868 21.2466 62.2093 21.0877C62.4318 20.9289 62.6067 20.7123 62.715 20.4613L63.0063 19.7863L63.2975 20.4613C63.4057 20.7121 63.5804 20.9286 63.8027 21.0874C64.025 21.2463 64.2864 21.3414 64.5588 21.3625L65.1838 21.4113L64.75 21.77Z" fill="white"/>
</g>
<defs>
<clipPath id="clip0_27_7266">
<rect width="72" height="32" rx="5" fill="white"/>
</clipPath>
</defs>
</svg>
