<svg width="72" height="32" viewBox="0 0 72 32" fill="none" xmlns="http://www.w3.org/2000/svg">
<g clip-path="url(#clip0_27_7236)">
<path d="M3 10V8C3 7.46957 3.21071 6.96086 3.58579 6.58579C3.96086 6.21071 4.46957 6 5 6H11.6663C12.0988 6.00107 12.5196 6.14132 12.8663 6.4L16.6 9.2C16.7679 9.32593 16.8919 9.5015 16.9545 9.70183C17.0171 9.90217 17.0151 10.1171 16.9487 10.3162C16.8823 10.5153 16.755 10.6885 16.5847 10.8112C16.4144 10.934 16.2099 11 16 11H4C3.73478 11 3.48043 10.8946 3.29289 10.7071C3.10536 10.5196 3 10.2652 3 10ZM11 25H5V24C5 23.7348 4.89464 23.4804 4.70711 23.2929C4.51957 23.1054 4.26522 23 4 23C3.73478 23 3.48043 23.1054 3.29289 23.2929C3.10536 23.4804 3 23.7348 3 24V25.0775C3.00066 25.5872 3.20342 26.0758 3.56382 26.4362C3.92421 26.7966 4.41282 26.9993 4.9225 27H11C11.2652 27 11.5196 26.8946 11.7071 26.7071C11.8946 26.5196 12 26.2652 12 26C12 25.7348 11.8946 25.4804 11.7071 25.2929C11.5196 25.1054 11.2652 25 11 25ZM20 25H16C15.7348 25 15.4804 25.1054 15.2929 25.2929C15.1054 25.4804 15 25.7348 15 26C15 26.2652 15.1054 26.5196 15.2929 26.7071C15.4804 26.8946 15.7348 27 16 27H20C20.2652 27 20.5196 26.8946 20.7071 26.7071C20.8946 26.5196 21 26.2652 21 26C21 25.7348 20.8946 25.4804 20.7071 25.2929C20.5196 25.1054 20.2652 25 20 25ZM28 18C27.7348 18 27.4804 18.1054 27.2929 18.2929C27.1054 18.4804 27 18.7348 27 19V25H25C24.7348 25 24.4804 25.1054 24.2929 25.2929C24.1054 25.4804 24 25.7348 24 26C24 26.2652 24.1054 26.5196 24.2929 26.7071C24.4804 26.8946 24.7348 27 25 27H27.1112C27.612 26.9993 28.092 26.8001 28.4461 26.4461C28.8001 26.092 28.9993 25.612 29 25.1112V19C29 18.7348 28.8946 18.4804 28.7071 18.2929C28.5196 18.1054 28.2652 18 28 18ZM27 9H21C20.7348 9 20.4804 9.10536 20.2929 9.29289C20.1054 9.48043 20 9.73478 20 10C20 10.2652 20.1054 10.5196 20.2929 10.7071C20.4804 10.8946 20.7348 11 21 11H27V14C27 14.2652 27.1054 14.5196 27.2929 14.7071C27.4804 14.8946 27.7348 15 28 15C28.2652 15 28.5196 14.8946 28.7071 14.7071C28.8946 14.5196 29 14.2652 29 14V11C29 10.4696 28.7893 9.96086 28.4142 9.58579C28.0391 9.21071 27.5304 9 27 9ZM4 20C4.26522 20 4.51957 19.8946 4.70711 19.7071C4.89464 19.5196 5 19.2652 5 19V15C5 14.7348 4.89464 14.4804 4.70711 14.2929C4.51957 14.1054 4.26522 14 4 14C3.73478 14 3.48043 14.1054 3.29289 14.2929C3.10536 14.4804 3 14.7348 3 15V19C3 19.2652 3.10536 19.5196 3.29289 19.7071C3.48043 19.8946 3.73478 20 4 20Z" fill="white"/>
<path d="M42.5 10V8C42.5 7.33696 42.7634 6.70107 43.2322 6.23223C43.7011 5.76339 44.337 5.5 45 5.5H51.6663C52.207 5.50107 52.733 5.67641 53.1663 6L56.9 8.8C57.0576 8.91819 57.1904 9.06626 57.2907 9.23576C57.3911 9.40526 57.4571 9.59286 57.4849 9.78787C57.5128 9.98287 57.502 10.1815 57.4531 10.3723C57.4042 10.5631 57.3182 10.7424 57.2 10.9C57.0818 11.0576 56.9337 11.1904 56.7642 11.2907C56.5947 11.3911 56.4071 11.4571 56.2121 11.4849C56.0171 11.5128 55.8185 11.502 55.6277 11.4531C55.4369 11.4042 55.2576 11.3182 55.1 11.2L51.5 8.5H45.5V10C45.5 10.3978 45.342 10.7794 45.0607 11.0607C44.7794 11.342 44.3978 11.5 44 11.5C43.6022 11.5 43.2206 11.342 42.9393 11.0607C42.658 10.7794 42.5 10.3978 42.5 10ZM51 24.5H45.5V24C45.5 23.6022 45.342 23.2206 45.0607 22.9393C44.7794 22.658 44.3978 22.5 44 22.5C43.6022 22.5 43.2206 22.658 42.9393 22.9393C42.658 23.2206 42.5 23.6022 42.5 24V25.0775C42.501 25.7197 42.7565 26.3353 43.2106 26.7894C43.6647 27.2435 44.2803 27.499 44.9225 27.5H51C51.3978 27.5 51.7794 27.342 52.0607 27.0607C52.342 26.7794 52.5 26.3978 52.5 26C52.5 25.6022 52.342 25.2206 52.0607 24.9393C51.7794 24.658 51.3978 24.5 51 24.5ZM60 24.5H56C55.6022 24.5 55.2206 24.658 54.9393 24.9393C54.658 25.2206 54.5 25.6022 54.5 26C54.5 26.3978 54.658 26.7794 54.9393 27.0607C55.2206 27.342 55.6022 27.5 56 27.5H60C60.3978 27.5 60.7794 27.342 61.0607 27.0607C61.342 26.7794 61.5 26.3978 61.5 26C61.5 25.6022 61.342 25.2206 61.0607 24.9393C60.7794 24.658 60.3978 24.5 60 24.5ZM68 17.5C67.6022 17.5 67.2206 17.658 66.9393 17.9393C66.658 18.2206 66.5 18.6022 66.5 19V24.5H65C64.6022 24.5 64.2206 24.658 63.9393 24.9393C63.658 25.2206 63.5 25.6022 63.5 26C63.5 26.3978 63.658 26.7794 63.9393 27.0607C64.2206 27.342 64.6022 27.5 65 27.5H67.1112C67.7446 27.4993 68.3518 27.2475 68.7996 26.7996C69.2475 26.3518 69.4993 25.7446 69.5 25.1112V19C69.5 18.6022 69.342 18.2206 69.0607 17.9393C68.7794 17.658 68.3978 17.5 68 17.5ZM67 8.5H61C60.6022 8.5 60.2206 8.65804 59.9393 8.93934C59.658 9.22064 59.5 9.60218 59.5 10C59.5 10.3978 59.658 10.7794 59.9393 11.0607C60.2206 11.342 60.6022 11.5 61 11.5H66.5V14C66.5 14.3978 66.658 14.7794 66.9393 15.0607C67.2206 15.342 67.6022 15.5 68 15.5C68.3978 15.5 68.7794 15.342 69.0607 15.0607C69.342 14.7794 69.5 14.3978 69.5 14V11C69.5 10.337 69.2366 9.70107 68.7678 9.23223C68.2989 8.76339 67.663 8.5 67 8.5ZM44 20.5C44.3978 20.5 44.7794 20.342 45.0607 20.0607C45.342 19.7794 45.5 19.3978 45.5 19V15C45.5 14.6022 45.342 14.2206 45.0607 13.9393C44.7794 13.658 44.3978 13.5 44 13.5C43.6022 13.5 43.2206 13.658 42.9393 13.9393C42.658 14.2206 42.5 14.6022 42.5 15V19C42.5 19.3978 42.658 19.7794 42.9393 20.0607C43.2206 20.342 43.6022 20.5 44 20.5Z" fill="white"/>
</g>
<defs>
<clipPath id="clip0_27_7236">
<rect width="72" height="32" rx="5" fill="white"/>
</clipPath>
</defs>
</svg>
