<svg width="72" height="32" viewBox="0 0 72 32" fill="none" xmlns="http://www.w3.org/2000/svg">
<g clip-path="url(#clip0_27_7241)">
<path d="M28 20H27V19.5C27 18.5717 26.6313 17.6815 25.9749 17.0251C25.3185 16.3687 24.4283 16 23.5 16C22.5717 16 21.6815 16.3687 21.0251 17.0251C20.3687 17.6815 20 18.5717 20 19.5V20H19C18.7348 20 18.4804 20.1054 18.2929 20.2929C18.1054 20.4804 18 20.7348 18 21V26C18 26.2652 18.1054 26.5196 18.2929 26.7071C18.4804 26.8946 18.7348 27 19 27H28C28.2652 27 28.5196 26.8946 28.7071 26.7071C28.8946 26.5196 29 26.2652 29 26V21C29 20.7348 28.8946 20.4804 28.7071 20.2929C28.5196 20.1054 28.2652 20 28 20ZM25 20H22V19.5C22 19.1022 22.158 18.7206 22.4393 18.4393C22.7206 18.158 23.1022 18 23.5 18C23.8978 18 24.2794 18.158 24.5607 18.4393C24.842 18.7206 25 19.1022 25 19.5V20ZM29 11V13C29 13.2652 28.8946 13.5196 28.7071 13.7071C28.5196 13.8946 28.2652 14 28 14C27.7348 14 27.4804 13.8946 27.2929 13.7071C27.1054 13.5196 27 13.2652 27 13V11H16.3337C15.9012 10.9989 15.4804 10.8587 15.1337 10.6L11.6663 8H5V25H14C14.2652 25 14.5196 25.1054 14.7071 25.2929C14.8946 25.4804 15 25.7348 15 26C15 26.2652 14.8946 26.5196 14.7071 26.7071C14.5196 26.8946 14.2652 27 14 27H5C4.46957 27 3.96086 26.7893 3.58579 26.4142C3.21071 26.0391 3 25.5304 3 25V8C3 7.46957 3.21071 6.96086 3.58579 6.58579C3.96086 6.21071 4.46957 6 5 6H11.6663C12.0988 6.00107 12.5196 6.14132 12.8663 6.4L16.3337 9H27C27.5304 9 28.0391 9.21071 28.4142 9.58579C28.7893 9.96086 29 10.4696 29 11Z" fill="white"/>
<path d="M69.5 11V11.5C69.5 11.8978 69.342 12.2794 69.0607 12.5607C68.7794 12.842 68.3978 13 68 13C67.6022 13 67.2206 12.842 66.9393 12.5607C66.658 12.2794 66.5 11.8978 66.5 11.5H56.3337C55.793 11.4989 55.267 11.3236 54.8337 11L51.5 8.5H45.5V24.5H53C53.3978 24.5 53.7794 24.658 54.0607 24.9393C54.342 25.2206 54.5 25.6022 54.5 26C54.5 26.3978 54.342 26.7794 54.0607 27.0607C53.7794 27.342 53.3978 27.5 53 27.5H45C44.337 27.5 43.7011 27.2366 43.2322 26.7678C42.7634 26.2989 42.5 25.663 42.5 25V8C42.5 7.33696 42.7634 6.70107 43.2322 6.23223C43.7011 5.76339 44.337 5.5 45 5.5H51.6663C52.207 5.50107 52.733 5.67641 53.1663 6L56.5 8.5H67C67.663 8.5 68.2989 8.76339 68.7678 9.23223C69.2366 9.70107 69.5 10.337 69.5 11ZM69.5 20.5V26C69.5 26.3978 69.342 26.7794 69.0607 27.0607C68.7794 27.342 68.3978 27.5 68 27.5H59C58.6022 27.5 58.2206 27.342 57.9393 27.0607C57.658 26.7794 57.5 26.3978 57.5 26V20.5C57.5 20.1022 57.658 19.7206 57.9393 19.4393C58.2206 19.158 58.6022 19 59 19H59.5V18.5C59.5 17.4391 59.9214 16.4217 60.6716 15.6716C61.4217 14.9214 62.4391 14.5 63.5 14.5C64.5609 14.5 65.5783 14.9214 66.3284 15.6716C67.0786 16.4217 67.5 17.4391 67.5 18.5V19H68C68.3978 19 68.7794 19.158 69.0607 19.4393C69.342 19.7206 69.5 20.1022 69.5 20.5ZM62.5 19H64.5V18.5C64.5 18.2348 64.3946 17.9804 64.2071 17.7929C64.0196 17.6054 63.7652 17.5 63.5 17.5C63.2348 17.5 62.9804 17.6054 62.7929 17.7929C62.6054 17.9804 62.5 18.2348 62.5 18.5V19ZM66.5 22H60.5V24.5H66.5V22Z" fill="white"/>
</g>
<defs>
<clipPath id="clip0_27_7241">
<rect width="72" height="32" rx="5" fill="white"/>
</clipPath>
</defs>
</svg>
