<svg width="72" height="32" viewBox="0 0 72 32" fill="none" xmlns="http://www.w3.org/2000/svg">
<g clip-path="url(#clip0_27_7221)">
<path d="M30.625 13.83C30.4394 13.5727 30.1952 13.3632 29.9127 13.2189C29.6301 13.0746 29.3173 12.9995 29 13H27V11C27 10.4696 26.7893 9.96086 26.4142 9.58579C26.0391 9.21071 25.5304 9 25 9H16.3337L12.8675 6.4C12.5207 6.14148 12.1 6.00125 11.6675 6H5C4.46957 6 3.96086 6.21071 3.58579 6.58579C3.21071 6.96086 3 7.46957 3 8V26C3 26.2652 3.10536 26.5196 3.29289 26.7071C3.48043 26.8946 3.73478 27 4 27H26.3875C26.5974 27 26.802 26.934 26.9722 26.8113C27.1425 26.6886 27.2699 26.5154 27.3363 26.3162L30.8975 15.6325C30.9976 15.3319 31.0252 15.0118 30.9778 14.6985C30.9304 14.3852 30.8095 14.0876 30.625 13.83ZM11.6675 8L15.4 10.8C15.5731 10.9298 15.7836 11 16 11H25V13H8.72125C8.30147 13 7.89232 13.132 7.55176 13.3775C7.2112 13.6229 6.95651 13.9693 6.82375 14.3675L5 19.8375V8H11.6675Z" fill="white"/>
<path d="M71.0287 14.0387C70.7971 13.7172 70.4924 13.4553 70.1396 13.2747C69.7869 13.0941 69.3963 13 69 13H67.5V11C67.5 10.337 67.2366 9.70107 66.7678 9.23223C66.2989 8.76339 65.663 8.5 65 8.5H56.5L53.1675 6C52.7343 5.67641 52.2083 5.50107 51.6675 5.5H45C44.337 5.5 43.7011 5.76339 43.2322 6.23223C42.7634 6.70107 42.5 7.33696 42.5 8V26C42.5 26.3978 42.658 26.7794 42.9393 27.0607C43.2206 27.342 43.6022 27.5 44 27.5H66.3875C66.698 27.5004 67.0011 27.4045 67.2547 27.2253C67.5084 27.0462 67.7002 26.7928 67.8037 26.5L71.365 16.3162L71.3725 16.295C71.4984 15.9186 71.5329 15.5177 71.4731 15.1254C71.4133 14.733 71.261 14.3605 71.0287 14.0387ZM51.5 8.5L55.1 11.2C55.3596 11.3947 55.6754 11.5 56 11.5H64.5V13H48.7212C48.1987 13 47.6894 13.1638 47.2647 13.4683C46.8401 13.7728 46.5215 14.2026 46.3538 14.6975L45.5 17.1437V8.5H51.5ZM65.3237 24.5H46.1112L49.0763 16H68.2962L65.3237 24.5Z" fill="white"/>
</g>
<defs>
<clipPath id="clip0_27_7221">
<rect width="72" height="32" rx="5" fill="white"/>
</clipPath>
</defs>
</svg>
