<svg width="72" height="32" viewBox="0 0 72 32" fill="none" xmlns="http://www.w3.org/2000/svg">
<g clip-path="url(#clip0_27_7226)">
<path d="M27 9.00001H16.4137L13 5.58626C12.8149 5.39984 12.5946 5.25203 12.3519 5.1514C12.1092 5.05077 11.849 4.99931 11.5863 5.00001H5C4.46957 5.00001 3.96086 5.21072 3.58579 5.58579C3.21071 5.96087 3 6.46957 3 7.00001V25.0775C3.00099 25.5873 3.20403 26.0759 3.56462 26.4363C3.92522 26.7966 4.41396 26.9993 4.92375 27H27.1112C27.612 26.9993 28.092 26.8001 28.4461 26.4461C28.8001 26.092 28.9993 25.612 29 25.1113V11C29 10.4696 28.7893 9.96087 28.4142 9.58579C28.0391 9.21072 27.5304 9.00001 27 9.00001ZM5 7.00001H11.5863L13.5863 9.00001H5V7.00001ZM19 19H17V21C17 21.2652 16.8946 21.5196 16.7071 21.7071C16.5196 21.8947 16.2652 22 16 22C15.7348 22 15.4804 21.8947 15.2929 21.7071C15.1054 21.5196 15 21.2652 15 21V19H13C12.7348 19 12.4804 18.8947 12.2929 18.7071C12.1054 18.5196 12 18.2652 12 18C12 17.7348 12.1054 17.4804 12.2929 17.2929C12.4804 17.1054 12.7348 17 13 17H15V15C15 14.7348 15.1054 14.4804 15.2929 14.2929C15.4804 14.1054 15.7348 14 16 14C16.2652 14 16.5196 14.1054 16.7071 14.2929C16.8946 14.4804 17 14.7348 17 15V17H19C19.2652 17 19.5196 17.1054 19.7071 17.2929C19.8946 17.4804 20 17.7348 20 18C20 18.2652 19.8946 18.5196 19.7071 18.7071C19.5196 18.8947 19.2652 19 19 19Z" fill="white"/>
<path d="M67 8.50001H56.6737L53.4237 4.83876C53.1884 4.57414 52.8996 4.36252 52.5764 4.21792C52.2531 4.07333 51.9029 3.99905 51.5487 4.00001H45C44.337 4.00001 43.7011 4.2634 43.2322 4.73224C42.7634 5.20108 42.5 5.83697 42.5 6.50001V25.0775C42.501 25.7197 42.7565 26.3353 43.2106 26.7894C43.6647 27.2435 44.2803 27.499 44.9225 27.5H67.1112C67.7446 27.4993 68.3518 27.2475 68.7996 26.7996C69.2475 26.3518 69.4993 25.7446 69.5 25.1113V11C69.5 10.337 69.2366 9.70108 68.7678 9.23224C68.2989 8.7634 67.663 8.50001 67 8.50001ZM51.3263 7.00001L52.66 8.50001H45.5V7.00001H51.3263ZM66.5 24.5H45.5V11.5H66.5V24.5ZM57.5 15V16.5H59C59.3978 16.5 59.7794 16.658 60.0607 16.9394C60.342 17.2207 60.5 17.6022 60.5 18C60.5 18.3978 60.342 18.7794 60.0607 19.0607C59.7794 19.342 59.3978 19.5 59 19.5H57.5V21C57.5 21.3978 57.342 21.7794 57.0607 22.0607C56.7794 22.342 56.3978 22.5 56 22.5C55.6022 22.5 55.2206 22.342 54.9393 22.0607C54.658 21.7794 54.5 21.3978 54.5 21V19.5H53C52.6022 19.5 52.2206 19.342 51.9393 19.0607C51.658 18.7794 51.5 18.3978 51.5 18C51.5 17.6022 51.658 17.2207 51.9393 16.9394C52.2206 16.658 52.6022 16.5 53 16.5H54.5V15C54.5 14.6022 54.658 14.2207 54.9393 13.9393C55.2206 13.658 55.6022 13.5 56 13.5C56.3978 13.5 56.7794 13.658 57.0607 13.9393C57.342 14.2207 57.5 14.6022 57.5 15Z" fill="white"/>
</g>
<defs>
<clipPath id="clip0_27_7226">
<rect width="72" height="32" rx="5" fill="white"/>
</clipPath>
</defs>
</svg>
