<svg width="72" height="32" viewBox="0 0 72 32" fill="none" xmlns="http://www.w3.org/2000/svg">
<g clip-path="url(#clip0_27_1192)">
<path d="M27 4.99999V28C27 28.2652 26.8946 28.5196 26.7071 28.7071C26.5196 28.8946 26.2652 29 26 29C25.7348 29 25.4804 28.8946 25.2929 28.7071C25.1054 28.5196 25 28.2652 25 28V22H19C18.7348 22 18.4804 21.8946 18.2929 21.7071C18.1054 21.5196 18 21.2652 18 21C18.0464 18.6046 18.349 16.221 18.9025 13.89C20.125 8.82874 22.4425 5.43624 25.6063 4.08124C25.7583 4.0161 25.9242 3.98971 26.0889 4.00442C26.2537 4.01913 26.4123 4.07449 26.5504 4.16554C26.6885 4.25658 26.8019 4.38047 26.8803 4.52611C26.9588 4.67174 26.9999 4.83456 27 4.99999ZM14.9862 4.83624C14.9667 4.70493 14.9211 4.57884 14.8523 4.46532C14.7835 4.35179 14.6927 4.25311 14.5854 4.17503C14.478 4.09694 14.3561 4.04102 14.2269 4.01052C14.0977 3.98001 13.9637 3.97555 13.8328 3.99737C13.7018 4.0192 13.5765 4.06688 13.4642 4.13764C13.3519 4.2084 13.2548 4.30081 13.1785 4.4095C13.1023 4.51818 13.0484 4.64096 13.0202 4.77067C12.9919 4.90038 12.9897 5.03443 13.0138 5.16499L13.9862 11H11V4.99999C11 4.73477 10.8946 4.48042 10.7071 4.29288C10.5196 4.10535 10.2652 3.99999 10 3.99999C9.73478 3.99999 9.48043 4.10535 9.29289 4.29288C9.10536 4.48042 9 4.73477 9 4.99999V11H6.01375L6.98625 5.16499C7.01031 5.03443 7.00813 4.90038 6.97984 4.77067C6.95155 4.64096 6.89772 4.51818 6.82148 4.4095C6.74524 4.30081 6.64812 4.2084 6.53579 4.13764C6.42346 4.06688 6.29816 4.0192 6.16721 3.99737C6.03625 3.97555 5.90227 3.98001 5.77306 4.01052C5.64385 4.04102 5.52201 4.09694 5.41464 4.17503C5.30727 4.25311 5.21653 4.35179 5.1477 4.46532C5.07887 4.57884 5.03334 4.70493 5.01375 4.83624L4.01375 10.8362C4.00478 10.8904 4.00018 10.9451 4 11C4.002 12.4173 4.5049 13.7882 5.41983 14.8706C6.33477 15.9529 7.60285 16.6771 9 16.915V28C9 28.2652 9.10536 28.5196 9.29289 28.7071C9.48043 28.8946 9.73478 29 10 29C10.2652 29 10.5196 28.8946 10.7071 28.7071C10.8946 28.5196 11 28.2652 11 28V16.915C12.3971 16.6771 13.6652 15.9529 14.5802 14.8706C15.4951 13.7882 15.998 12.4173 16 11C15.9998 10.9451 15.9952 10.8904 15.9862 10.8362L14.9862 4.83624Z" fill="white"/>
<path d="M48.5 11V5.00002C48.5 4.60219 48.658 4.22066 48.9393 3.93936C49.2206 3.65805 49.6022 3.50002 50 3.50002C50.3978 3.50002 50.7794 3.65805 51.0607 3.93936C51.342 4.22066 51.5 4.60219 51.5 5.00002V11C51.5 11.3978 51.342 11.7794 51.0607 12.0607C50.7794 12.342 50.3978 12.5 50 12.5C49.6022 12.5 49.2206 12.342 48.9393 12.0607C48.658 11.7794 48.5 11.3978 48.5 11ZM67.5 5.00002V28C67.5 28.3978 67.342 28.7794 67.0607 29.0607C66.7794 29.342 66.3978 29.5 66 29.5C65.6022 29.5 65.2206 29.342 64.9393 29.0607C64.658 28.7794 64.5 28.3978 64.5 28V22.5H59C58.6022 22.5 58.2206 22.342 57.9393 22.0607C57.658 21.7794 57.5 21.3978 57.5 21C57.5469 18.5651 57.854 16.1421 58.4163 13.7725C59.6775 8.55252 62.095 5.04127 65.4088 3.62502C65.6366 3.52728 65.8852 3.48756 66.1322 3.50941C66.3792 3.53126 66.6169 3.614 66.8241 3.75022C67.0313 3.88644 67.2015 4.07191 67.3194 4.29001C67.4374 4.50811 67.4994 4.75206 67.5 5.00002ZM64.5 7.86502C62.825 9.62502 61.875 12.25 61.3463 14.4225C60.9506 16.0913 60.6906 17.7893 60.5688 19.5H64.5V7.86502ZM56 4.87502C55.9668 4.47719 55.777 4.10883 55.4723 3.85097C55.1675 3.5931 54.7728 3.46686 54.375 3.50002C53.9772 3.53317 53.6088 3.723 53.351 4.02774C53.0931 4.33249 52.9668 4.72719 53 5.12502L53.5 11.0575C53.5 11.9858 53.1313 12.876 52.4749 13.5324C51.8185 14.1888 50.9283 14.5575 50 14.5575C49.0717 14.5575 48.1815 14.1888 47.5251 13.5324C46.8687 12.876 46.5 11.9858 46.5 11.0575L47 5.12502C47.0164 4.92803 46.9939 4.72974 46.9337 4.54147C46.8734 4.3532 46.7767 4.17864 46.649 4.02774C46.5214 3.87685 46.3652 3.75258 46.1895 3.66203C46.0138 3.57148 45.822 3.51643 45.625 3.50002C45.428 3.4836 45.2297 3.50614 45.0415 3.56636C44.8532 3.62658 44.6786 3.72329 44.5277 3.85097C44.3768 3.97865 44.2526 4.1348 44.162 4.31051C44.0715 4.48621 44.0164 4.67803 44 4.87502L43.5 10.875C43.5 10.9175 43.5 10.9588 43.5 11C43.5024 12.4624 43.9969 13.8814 44.9039 15.0285C45.8109 16.1757 47.0776 16.9841 48.5 17.3238V28C48.5 28.3978 48.658 28.7794 48.9393 29.0607C49.2206 29.342 49.6022 29.5 50 29.5C50.3978 29.5 50.7794 29.342 51.0607 29.0607C51.342 28.7794 51.5 28.3978 51.5 28V17.3238C52.9224 16.9841 54.1891 16.1757 55.0961 15.0285C56.0031 13.8814 56.4976 12.4624 56.5 11C56.5 10.9588 56.5 10.9175 56.5 10.875L56 4.87502Z" fill="white"/>
</g>
<defs>
<clipPath id="clip0_27_1192">
<rect width="72" height="32" rx="5" fill="white"/>
</clipPath>
</defs>
</svg>
