<svg width="72" height="32" viewBox="0 0 72 32" fill="none" xmlns="http://www.w3.org/2000/svg">
<g clip-path="url(#clip0_27_3769)">
<path d="M9.94375 17L12 14.125V17H9.94375ZM29 7V25C29 25.5304 28.7893 26.0391 28.4142 26.4142C28.0391 26.7893 27.5304 27 27 27H5C4.46957 27 3.96086 26.7893 3.58579 26.4142C3.21071 26.0391 3 25.5304 3 25V7C3 6.46957 3.21071 5.96086 3.58579 5.58579C3.96086 5.21071 4.46957 5 5 5H27C27.5304 5 28.0391 5.21071 28.4142 5.58579C28.7893 5.96086 29 6.46957 29 7ZM15.5 18C15.5 17.7348 15.3946 17.4804 15.2071 17.2929C15.0196 17.1054 14.7652 17 14.5 17H14V11C14 10.7881 13.9327 10.5817 13.8078 10.4106C13.683 10.2394 13.5069 10.1123 13.3052 10.0477C13.1034 9.98301 12.8863 9.98411 12.6852 10.0508C12.4841 10.1175 12.3094 10.2463 12.1862 10.4187L7.18625 17.4188C7.07945 17.5683 7.01591 17.7443 7.0026 17.9276C6.98929 18.1108 7.02673 18.2942 7.11081 18.4576C7.19489 18.621 7.32235 18.758 7.47921 18.8537C7.63607 18.9494 7.81626 19 8 19H12V21C12 21.2652 12.1054 21.5196 12.2929 21.7071C12.4804 21.8946 12.7348 22 13 22C13.2652 22 13.5196 21.8946 13.7071 21.7071C13.8946 21.5196 14 21.2652 14 21V19H14.5C14.7652 19 15.0196 18.8946 15.2071 18.7071C15.3946 18.5196 15.5 18.2652 15.5 18ZM21.6987 15.2212L24.7588 11.6512C24.9274 11.4495 25.0098 11.1894 24.988 10.9274C24.9663 10.6653 24.8423 10.4224 24.6428 10.2511C24.4432 10.0799 24.1843 9.9941 23.922 10.0124C23.6597 10.0306 23.4151 10.1515 23.2412 10.3488L19.725 14.45L19 15.2963V11C19 10.7348 18.8946 10.4804 18.7071 10.2929C18.5196 10.1054 18.2652 10 18 10C17.7348 10 17.4804 10.1054 17.2929 10.2929C17.1054 10.4804 17 10.7348 17 11V21C17 21.2652 17.1054 21.5196 17.2929 21.7071C17.4804 21.8946 17.7348 22 18 22C18.2652 22 18.5196 21.8946 18.7071 21.7071C18.8946 21.5196 19 21.2652 19 21V18.375L20.3275 16.8263L23.1425 21.52C23.2101 21.6326 23.2993 21.7308 23.4049 21.8089C23.5104 21.8871 23.6304 21.9437 23.7578 21.9755C23.8853 22.0073 24.0177 22.0137 24.1476 21.9943C24.2776 21.9749 24.4024 21.9301 24.515 21.8625C24.6276 21.7949 24.7258 21.7057 24.8039 21.6001C24.8821 21.4946 24.9387 21.3746 24.9705 21.2472C25.0023 21.1197 25.0087 20.9873 24.9893 20.8574C24.9699 20.7274 24.9251 20.6026 24.8575 20.49L21.6987 15.2212Z" fill="white"/>
<path d="M42.5 5.5C42.5 5.10218 42.658 4.72064 42.9393 4.43934C43.2206 4.15804 43.6022 4 44 4H68C68.3978 4 68.7794 4.15804 69.0607 4.43934C69.342 4.72064 69.5 5.10218 69.5 5.5C69.5 5.89782 69.342 6.27936 69.0607 6.56066C68.7794 6.84196 68.3978 7 68 7H44C43.6022 7 43.2206 6.84196 42.9393 6.56066C42.658 6.27936 42.5 5.89782 42.5 5.5ZM68 25H44C43.6022 25 43.2206 25.158 42.9393 25.4393C42.658 25.7206 42.5 26.1022 42.5 26.5C42.5 26.8978 42.658 27.2794 42.9393 27.5607C43.2206 27.842 43.6022 28 44 28H68C68.3978 28 68.7794 27.842 69.0607 27.5607C69.342 27.2794 69.5 26.8978 69.5 26.5C69.5 26.1022 69.342 25.7206 69.0607 25.4393C68.7794 25.158 68.3978 25 68 25ZM58.5 8.5C58.1022 8.5 57.7206 8.65804 57.4393 8.93934C57.158 9.22064 57 9.60218 57 10V22C57 22.3978 57.158 22.7794 57.4393 23.0607C57.7206 23.342 58.1022 23.5 58.5 23.5C58.8978 23.5 59.2794 23.342 59.5607 23.0607C59.842 22.7794 60 22.3978 60 22V18.5637L61.055 17.3575L64.2038 22.7563C64.4104 23.0859 64.7371 23.3224 65.1148 23.4158C65.4926 23.5091 65.8918 23.452 66.2282 23.2565C66.5647 23.0611 66.812 22.7425 66.918 22.3681C67.024 21.9937 66.9803 21.5928 66.7962 21.25L63.1388 14.9825L66.625 10.9875C66.7699 10.8424 66.8834 10.669 66.9587 10.4783C67.0339 10.2875 67.0693 10.0834 67.0625 9.8784C67.0558 9.67344 67.007 9.47204 66.9194 9.28665C66.8317 9.10126 66.707 8.93581 66.5529 8.80053C66.3987 8.66525 66.2185 8.563 66.0233 8.50012C65.8281 8.43723 65.6221 8.41503 65.418 8.4349C65.2139 8.45476 65.0161 8.51627 64.8367 8.61561C64.6573 8.71496 64.5001 8.85004 64.375 9.0125L60 14.0125V10C60 9.60218 59.842 9.22064 59.5607 8.93934C59.2794 8.65804 58.8978 8.5 58.5 8.5ZM50 22V20.5H44.5C44.2192 20.5 43.944 20.4212 43.7057 20.2724C43.4675 20.1237 43.2758 19.9111 43.1524 19.6588C43.0291 19.4065 42.9791 19.1247 43.008 18.8453C43.037 18.566 43.1438 18.3004 43.3163 18.0788L50.3162 9.07875C50.5082 8.83211 50.7724 8.65158 51.0719 8.56239C51.3715 8.4732 51.6914 8.47981 51.987 8.58128C52.2826 8.68275 52.5391 8.87402 52.7208 9.12838C52.9024 9.38273 53 9.68746 53 10V17.5H53.5C53.8978 17.5 54.2794 17.658 54.5607 17.9393C54.842 18.2206 55 18.6022 55 19C55 19.3978 54.842 19.7794 54.5607 20.0607C54.2794 20.342 53.8978 20.5 53.5 20.5H53V22C53 22.3978 52.842 22.7794 52.5607 23.0607C52.2794 23.342 51.8978 23.5 51.5 23.5C51.1022 23.5 50.7206 23.342 50.4393 23.0607C50.158 22.7794 50 22.3978 50 22ZM50 17.5V14.375L47.5675 17.5H50Z" fill="white"/>
</g>
<defs>
<clipPath id="clip0_27_3769">
<rect width="72" height="32" rx="5" fill="white"/>
</clipPath>
</defs>
</svg>
