<svg width="72" height="32" viewBox="0 0 72 32" fill="none" xmlns="http://www.w3.org/2000/svg">
<g clip-path="url(#clip0_27_119)">
<path d="M25 14H18.625L25.6587 20.25C25.8109 20.3842 25.9187 20.5615 25.9677 20.7584C26.0167 20.9553 26.0047 21.1624 25.9332 21.3523C25.8617 21.5422 25.7342 21.7058 25.5675 21.8215C25.4008 21.9372 25.2029 21.9995 25 22H17V30C17.0002 30.1979 16.9416 30.3914 16.8317 30.556C16.7218 30.7206 16.5656 30.8489 16.3828 30.9246C16.2 31.0004 15.9988 31.0202 15.8047 30.9815C15.6106 30.9429 15.4324 30.8475 15.2925 30.7075L6.2925 21.7075C6.19966 21.6146 6.12605 21.5042 6.07586 21.3829C6.02567 21.2615 5.99989 21.1314 6 21V13C6 12.7348 6.10535 12.4804 6.29289 12.2929C6.48043 12.1054 6.73478 12 7 12H13.375L6.33625 5.75C6.18376 5.61552 6.07588 5.43775 6.02701 5.24039C5.97813 5.04304 5.99057 4.83547 6.06268 4.64537C6.13478 4.45526 6.26312 4.29165 6.43058 4.17635C6.59805 4.06105 6.79668 3.99953 7 4H25C25.2652 4 25.5196 4.10536 25.7071 4.2929C25.8946 4.48043 26 4.73479 26 5V13C26 13.2652 25.8946 13.5196 25.7071 13.7071C25.5196 13.8946 25.2652 14 25 14Z" fill="white"/>
<path d="M66.5 13V5.00001C66.5 4.60218 66.342 4.22065 66.0607 3.93935C65.7793 3.65804 65.3978 3.50001 65 3.50001H47C46.6946 3.4984 46.3961 3.59003 46.1442 3.76265C45.8923 3.93526 45.6991 4.18064 45.5904 4.46599C45.4817 4.75134 45.4627 5.06307 45.5359 5.35953C45.609 5.65598 45.771 5.92304 46 6.12501L52.055 11.5H47C46.6022 11.5 46.2206 11.658 45.9393 11.9393C45.658 12.2206 45.5 12.6022 45.5 13V21C45.5 21.1971 45.5389 21.3923 45.6144 21.5744C45.6899 21.7565 45.8005 21.922 45.94 22.0613L54.94 31.0613C55.1498 31.2708 55.4171 31.4135 55.708 31.4712C55.9989 31.529 56.3004 31.4992 56.5744 31.3856C56.8484 31.272 57.0826 31.0798 57.2473 30.8331C57.412 30.5865 57.5 30.2966 57.5 30V22.5H65C65.3053 22.5016 65.6039 22.41 65.8558 22.2374C66.1077 22.0647 66.3009 21.8194 66.4096 21.534C66.5183 21.2487 66.5373 20.9369 66.4641 20.6405C66.3909 20.344 66.229 20.077 66 19.875L59.9487 14.5H65C65.3978 14.5 65.7793 14.342 66.0607 14.0607C66.342 13.7794 66.5 13.3978 66.5 13ZM61.055 19.5H56C55.6022 19.5 55.2206 19.658 54.9393 19.9393C54.658 20.2207 54.5 20.6022 54.5 21V26.375L48.5 20.375V14.5H55.43L61.055 19.5ZM63.5 11.5H56.57L50.945 6.50001H63.5V11.5Z" fill="white"/>
</g>
<defs>
<clipPath id="clip0_27_119">
<rect width="72" height="32" rx="5" fill="white"/>
</clipPath>
</defs>
</svg>
