<svg width="72" height="32" viewBox="0 0 72 32" fill="none" xmlns="http://www.w3.org/2000/svg">
<g clip-path="url(#clip0_27_1723)">
<path d="M26 4H6C5.46957 4 4.96086 4.21071 4.58579 4.58579C4.21071 4.96086 4 5.46957 4 6V26C4 26.5304 4.21071 27.0391 4.58579 27.4142C4.96086 27.7893 5.46957 28 6 28H26C26.5304 28 27.0391 27.7893 27.4142 27.4142C27.7893 27.0391 28 26.5304 28 26V6C28 5.46957 27.7893 4.96086 27.4142 4.58579C27.0391 4.21071 26.5304 4 26 4ZM22 9H19.99C19.5243 8.9996 19.0731 9.1617 18.7142 9.45835C18.3552 9.755 18.1111 10.1676 18.0238 10.625L17.205 15H21C21.2652 15 21.5196 15.1054 21.7071 15.2929C21.8946 15.4804 22 15.7348 22 16C22 16.2652 21.8946 16.5196 21.7071 16.7071C21.5196 16.8946 21.2652 17 21 17H16.83L15.9412 21.7375C15.7692 22.6544 15.2822 23.4823 14.5643 24.0781C13.8464 24.6739 12.9429 25 12.01 25H10C9.73478 25 9.48043 24.8946 9.29289 24.7071C9.10536 24.5196 9 24.2652 9 24C9 23.7348 9.10536 23.4804 9.29289 23.2929C9.48043 23.1054 9.73478 23 10 23H12.01C12.4757 23.0004 12.9269 22.8383 13.2858 22.5417C13.6448 22.245 13.8889 21.8324 13.9762 21.375L14.795 17H11C10.7348 17 10.4804 16.8946 10.2929 16.7071C10.1054 16.5196 10 16.2652 10 16C10 15.7348 10.1054 15.4804 10.2929 15.2929C10.4804 15.1054 10.7348 15 11 15H15.17L16.0588 10.2625C16.2308 9.34561 16.7178 8.51767 17.4357 7.92191C18.1536 7.32615 19.0571 7.00004 19.99 7H22C22.2652 7 22.5196 7.10536 22.7071 7.29289C22.8946 7.48043 23 7.73478 23 8C23 8.26522 22.8946 8.51957 22.7071 8.70711C22.5196 8.89464 22.2652 9 22 9Z" fill="white"/>
<path d="M66.5 5C66.5 5.39782 66.342 5.77936 66.0607 6.06066C65.7794 6.34196 65.3978 6.5 65 6.5H61.3388C60.7526 6.49903 60.1848 6.70404 59.7344 7.0792C59.2841 7.45437 58.9799 7.97584 58.875 8.5525L57.7975 14.5H63C63.3978 14.5 63.7794 14.658 64.0607 14.9393C64.342 15.2206 64.5 15.6022 64.5 16C64.5 16.3978 64.342 16.7794 64.0607 17.0607C63.7794 17.342 63.3978 17.5 63 17.5H57.25L56.07 23.9837C55.8397 25.2506 55.1722 26.3965 54.1838 27.2218C53.1955 28.0471 51.9489 28.4994 50.6613 28.5H47C46.6022 28.5 46.2206 28.342 45.9393 28.0607C45.658 27.7794 45.5 27.3978 45.5 27C45.5 26.6022 45.658 26.2206 45.9393 25.9393C46.2206 25.658 46.6022 25.5 47 25.5H50.6613C51.2474 25.501 51.8152 25.296 52.2655 24.9208C52.7159 24.5456 53.0201 24.0242 53.125 23.4475L54.2025 17.5H49C48.6022 17.5 48.2206 17.342 47.9393 17.0607C47.658 16.7794 47.5 16.3978 47.5 16C47.5 15.6022 47.658 15.2206 47.9393 14.9393C48.2206 14.658 48.6022 14.5 49 14.5H54.75L55.93 8.01625C56.1603 6.7494 56.8278 5.6035 57.8162 4.77822C58.8045 3.95294 60.0511 3.5006 61.3388 3.5H65C65.3978 3.5 65.7794 3.65804 66.0607 3.93934C66.342 4.22064 66.5 4.60218 66.5 5Z" fill="white"/>
</g>
<defs>
<clipPath id="clip0_27_1723">
<rect width="72" height="32" rx="5" fill="white"/>
</clipPath>
</defs>
</svg>
