<svg width="72" height="32" viewBox="0 0 72 32" fill="none" xmlns="http://www.w3.org/2000/svg">
<g clip-path="url(#clip0_27_7291)">
<path d="M27 5H5C4.46957 5 3.96086 5.21071 3.58579 5.58579C3.21071 5.96086 3 6.46957 3 7V25C3 25.5304 3.21071 26.0391 3.58579 26.4142C3.96086 26.7893 4.46957 27 5 27H27C27.5304 27 28.0391 26.7893 28.4142 26.4142C28.7893 26.0391 29 25.5304 29 25V7C29 6.46957 28.7893 5.96086 28.4142 5.58579C28.0391 5.21071 27.5304 5 27 5ZM9 16C9 15.7348 9.10536 15.4804 9.29289 15.2929C9.48043 15.1054 9.73478 15 10 15H22C22.2652 15 22.5196 15.1054 22.7071 15.2929C22.8946 15.4804 23 15.7348 23 16C23 16.2652 22.8946 16.5196 22.7071 16.7071C22.5196 16.8946 22.2652 17 22 17H10C9.73478 17 9.48043 16.8946 9.29289 16.7071C9.10536 16.5196 9 16.2652 9 16ZM16 22H14C13.7348 22 13.4804 21.8946 13.2929 21.7071C13.1054 21.5196 13 21.2652 13 21C13 20.7348 13.1054 20.4804 13.2929 20.2929C13.4804 20.1054 13.7348 20 14 20H16C16.2652 20 16.5196 20.1054 16.7071 20.2929C16.8946 20.4804 17 20.7348 17 21C17 21.2652 16.8946 21.5196 16.7071 21.7071C16.5196 21.8946 16.2652 22 16 22ZM24.7075 23.2925C24.8004 23.3854 24.8741 23.4957 24.9244 23.6171C24.9747 23.7385 25.0006 23.8686 25.0006 24C25.0006 24.1314 24.9747 24.2615 24.9244 24.3829C24.8741 24.5043 24.8004 24.6146 24.7075 24.7075C24.6146 24.8004 24.5043 24.8741 24.3829 24.9244C24.2615 24.9747 24.1314 25.0006 24 25.0006C23.8686 25.0006 23.7385 24.9747 23.6171 24.9244C23.4957 24.8741 23.3854 24.8004 23.2925 24.7075L22 23.4137L20.7075 24.7075C20.5199 24.8951 20.2654 25.0006 20 25.0006C19.7346 25.0006 19.4801 24.8951 19.2925 24.7075C19.1049 24.5199 18.9994 24.2654 18.9994 24C18.9994 23.7346 19.1049 23.4801 19.2925 23.2925L20.5863 22L19.2925 20.7075C19.1049 20.5199 18.9994 20.2654 18.9994 20C18.9994 19.7346 19.1049 19.4801 19.2925 19.2925C19.4801 19.1049 19.7346 18.9994 20 18.9994C20.2654 18.9994 20.5199 19.1049 20.7075 19.2925L22 20.5863L23.2925 19.2925C23.4801 19.1049 23.7346 18.9994 24 18.9994C24.2654 18.9994 24.5199 19.1049 24.7075 19.2925C24.8951 19.4801 25.0006 19.7346 25.0006 20C25.0006 20.2654 24.8951 20.5199 24.7075 20.7075L23.4137 22L24.7075 23.2925ZM26 12H6C5.73478 12 5.48043 11.8946 5.29289 11.7071C5.10536 11.5196 5 11.2652 5 11C5 10.7348 5.10536 10.4804 5.29289 10.2929C5.48043 10.1054 5.73478 10 6 10H26C26.2652 10 26.5196 10.1054 26.7071 10.2929C26.8946 10.4804 27 10.7348 27 11C27 11.2652 26.8946 11.5196 26.7071 11.7071C26.5196 11.8946 26.2652 12 26 12Z" fill="white"/>
<path d="M64 18.5H48C47.6022 18.5 47.2206 18.342 46.9393 18.0607C46.658 17.7794 46.5 17.3978 46.5 17C46.5 16.6022 46.658 16.2206 46.9393 15.9393C47.2206 15.658 47.6022 15.5 48 15.5H64C64.3978 15.5 64.7794 15.658 65.0607 15.9393C65.342 16.2206 65.5 16.6022 65.5 17C65.5 17.3978 65.342 17.7794 65.0607 18.0607C64.7794 18.342 64.3978 18.5 64 18.5ZM69 9.5H43C42.6022 9.5 42.2206 9.65804 41.9393 9.93934C41.658 10.2206 41.5 10.6022 41.5 11C41.5 11.3978 41.658 11.7794 41.9393 12.0607C42.2206 12.342 42.6022 12.5 43 12.5H69C69.3978 12.5 69.7794 12.342 70.0607 12.0607C70.342 11.7794 70.5 11.3978 70.5 11C70.5 10.6022 70.342 10.2206 70.0607 9.93934C69.7794 9.65804 69.3978 9.5 69 9.5ZM56 21.5H53C52.6022 21.5 52.2206 21.658 51.9393 21.9393C51.658 22.2206 51.5 22.6022 51.5 23C51.5 23.3978 51.658 23.7794 51.9393 24.0607C52.2206 24.342 52.6022 24.5 53 24.5H56C56.3978 24.5 56.7794 24.342 57.0607 24.0607C57.342 23.7794 57.5 23.3978 57.5 23C57.5 22.6022 57.342 22.2206 57.0607 21.9393C56.7794 21.658 56.3978 21.5 56 21.5ZM68.0613 20.9387C67.9219 20.7989 67.7563 20.688 67.574 20.6122C67.3917 20.5365 67.1962 20.4976 66.9988 20.4976C66.8013 20.4976 66.6059 20.5365 66.4235 20.6122C66.2412 20.688 66.0756 20.7989 65.9363 20.9387L64 22.875L62.0613 20.935C61.7795 20.6532 61.3973 20.4949 60.9988 20.4949C60.6002 20.4949 60.218 20.6532 59.9363 20.935C59.6545 21.2168 59.4961 21.599 59.4961 21.9975C59.4961 22.396 59.6545 22.7782 59.9363 23.06L61.875 25L59.935 26.9387C59.7955 27.0783 59.6848 27.2439 59.6093 27.4262C59.5338 27.6085 59.4949 27.8039 59.4949 28.0012C59.4949 28.1986 59.5338 28.394 59.6093 28.5763C59.6848 28.7586 59.7955 28.9242 59.935 29.0637C60.2168 29.3455 60.599 29.5039 60.9975 29.5039C61.1948 29.5039 61.3902 29.465 61.5725 29.3895C61.7548 29.314 61.9205 29.2033 62.06 29.0637L64 27.125L65.9387 29.065C66.2205 29.3468 66.6027 29.5051 67.0012 29.5051C67.3998 29.5051 67.782 29.3468 68.0637 29.065C68.3455 28.7832 68.5039 28.401 68.5039 28.0025C68.5039 27.604 68.3455 27.2218 68.0637 26.94L66.125 25L68.065 23.0613C68.2042 22.9217 68.3146 22.7561 68.3897 22.5738C68.4649 22.3916 68.5034 22.1963 68.5031 21.9992C68.5027 21.8021 68.4635 21.607 68.3877 21.425C68.3119 21.2431 68.201 21.0778 68.0613 20.9387Z" fill="white"/>
</g>
<defs>
<clipPath id="clip0_27_7291">
<rect width="72" height="32" rx="5" fill="white"/>
</clipPath>
</defs>
</svg>
