<svg width="72" height="32" viewBox="0 0 72 32" fill="none" xmlns="http://www.w3.org/2000/svg">
<g clip-path="url(#clip0_27_7286)">
<path d="M27 5H5C4.46957 5 3.96086 5.21071 3.58579 5.58579C3.21071 5.96086 3 6.46957 3 7V25C3 25.5304 3.21071 26.0391 3.58579 26.4142C3.96086 26.7893 4.46957 27 5 27H27C27.5304 27 28.0391 26.7893 28.4142 26.4142C28.7893 26.0391 29 25.5304 29 25V7C29 6.46957 28.7893 5.96086 28.4142 5.58579C28.0391 5.21071 27.5304 5 27 5ZM18 22H14C13.7348 22 13.4804 21.8946 13.2929 21.7071C13.1054 21.5196 13 21.2652 13 21C13 20.7348 13.1054 20.4804 13.2929 20.2929C13.4804 20.1054 13.7348 20 14 20H18C18.2652 20 18.5196 20.1054 18.7071 20.2929C18.8946 20.4804 19 20.7348 19 21C19 21.2652 18.8946 21.5196 18.7071 21.7071C18.5196 21.8946 18.2652 22 18 22ZM22 17H10C9.73478 17 9.48043 16.8946 9.29289 16.7071C9.10536 16.5196 9 16.2652 9 16C9 15.7348 9.10536 15.4804 9.29289 15.2929C9.48043 15.1054 9.73478 15 10 15H22C22.2652 15 22.5196 15.1054 22.7071 15.2929C22.8946 15.4804 23 15.7348 23 16C23 16.2652 22.8946 16.5196 22.7071 16.7071C22.5196 16.8946 22.2652 17 22 17ZM26 12H6C5.73478 12 5.48043 11.8946 5.29289 11.7071C5.10536 11.5196 5 11.2652 5 11C5 10.7348 5.10536 10.4804 5.29289 10.2929C5.48043 10.1054 5.73478 10 6 10H26C26.2652 10 26.5196 10.1054 26.7071 10.2929C26.8946 10.4804 27 10.7348 27 11C27 11.2652 26.8946 11.5196 26.7071 11.7071C26.5196 11.8946 26.2652 12 26 12Z" fill="white"/>
<path d="M65.5 17C65.5 17.3978 65.342 17.7794 65.0607 18.0607C64.7794 18.342 64.3978 18.5 64 18.5H48C47.6022 18.5 47.2206 18.342 46.9393 18.0607C46.658 17.7794 46.5 17.3978 46.5 17C46.5 16.6022 46.658 16.2206 46.9393 15.9393C47.2206 15.658 47.6022 15.5 48 15.5H64C64.3978 15.5 64.7794 15.658 65.0607 15.9393C65.342 16.2206 65.5 16.6022 65.5 17ZM69 9.5H43C42.6022 9.5 42.2206 9.65804 41.9393 9.93934C41.658 10.2206 41.5 10.6022 41.5 11C41.5 11.3978 41.658 11.7794 41.9393 12.0607C42.2206 12.342 42.6022 12.5 43 12.5H69C69.3978 12.5 69.7794 12.342 70.0607 12.0607C70.342 11.7794 70.5 11.3978 70.5 11C70.5 10.6022 70.342 10.2206 70.0607 9.93934C69.7794 9.65804 69.3978 9.5 69 9.5ZM59 21.5H53C52.6022 21.5 52.2206 21.658 51.9393 21.9393C51.658 22.2206 51.5 22.6022 51.5 23C51.5 23.3978 51.658 23.7794 51.9393 24.0607C52.2206 24.342 52.6022 24.5 53 24.5H59C59.3978 24.5 59.7794 24.342 60.0607 24.0607C60.342 23.7794 60.5 23.3978 60.5 23C60.5 22.6022 60.342 22.2206 60.0607 21.9393C59.7794 21.658 59.3978 21.5 59 21.5Z" fill="white"/>
</g>
<defs>
<clipPath id="clip0_27_7286">
<rect width="72" height="32" rx="5" fill="white"/>
</clipPath>
</defs>
</svg>
