<svg width="72" height="32" viewBox="0 0 72 32" fill="none" xmlns="http://www.w3.org/2000/svg">
<g clip-path="url(#clip0_27_7281)">
<path d="M28.4762 8.345L28.4662 8.35625L20 17.3962V24.3325C20.0005 24.6624 19.9193 24.9873 19.7638 25.2782C19.6083 25.5692 19.3833 25.8171 19.1087 26L15.1087 28.6675C14.8073 28.8683 14.457 28.9834 14.0952 29.0007C13.7334 29.0179 13.3738 28.9366 13.0546 28.7654C12.7354 28.5942 12.4687 28.3396 12.283 28.0286C12.0973 27.7177 11.9994 27.3622 12 27V17.3962L3.53372 8.35625L3.52372 8.345C3.2634 8.05852 3.09181 7.70265 3.02977 7.32057C2.96772 6.93849 3.01789 6.54661 3.17418 6.19248C3.33047 5.83835 3.58616 5.53718 3.91025 5.32551C4.23433 5.11384 4.61288 5.00076 4.99997 5H27C27.3874 5.00004 27.7664 5.11259 28.0911 5.32398C28.4157 5.53536 28.672 5.83649 28.8287 6.19077C28.9855 6.54504 29.036 6.93722 28.9741 7.31965C28.9121 7.70207 28.7405 8.05828 28.48 8.345H28.4762Z" fill="white"/>
<path d="M69.286 5.98875C69.0901 5.54581 68.7697 5.16931 68.3639 4.90502C67.958 4.64072 67.4841 4.50002 66.9998 4.5H44.9998C44.5155 4.50005 44.0417 4.64074 43.6359 4.90497C43.2301 5.16921 42.9097 5.54561 42.7138 5.98846C42.5178 6.43131 42.4547 6.92153 42.5321 7.39956C42.6095 7.87759 42.8241 8.32285 43.1498 8.68125L43.1648 8.69875L51.4998 17.5938V27C51.4997 27.4526 51.6225 27.8967 51.8551 28.285C52.0876 28.6733 52.4213 28.9912 52.8203 29.2047C53.2194 29.4182 53.669 29.5194 54.1211 29.4974C54.5731 29.4755 55.0108 29.3312 55.3873 29.08L59.3873 26.4137C59.7297 26.1853 60.0105 25.8757 60.2045 25.5127C60.3986 25.1496 60.5 24.7442 60.4998 24.3325V17.5938L68.8335 8.69875L68.8485 8.68125C69.1744 8.32304 69.3892 7.87791 69.4668 7.39993C69.5445 6.92195 69.4817 6.4317 69.286 5.98875ZM57.911 15.975C57.6486 16.2519 57.5015 16.6185 57.4998 17V24.065L54.4998 26.065V17C54.4994 16.6191 54.3541 16.2527 54.0935 15.975L46.1535 7.5H65.846L57.911 15.975Z" fill="white"/>
</g>
<defs>
<clipPath id="clip0_27_7281">
<rect width="72" height="32" rx="5" fill="white"/>
</clipPath>
</defs>
</svg>
