<svg width="72" height="32" viewBox="0 0 72 32" fill="none" xmlns="http://www.w3.org/2000/svg">
<g clip-path="url(#clip0_27_4710)">
<path d="M30.9296 21.7188C30.9302 21.7129 30.9302 21.7071 30.9296 21.7013L28.8809 11.18C28.8809 11.1725 28.8809 11.165 28.8809 11.1575C28.5646 9.43007 27.6529 7.86809 26.3044 6.74314C24.9559 5.61818 23.2558 5.00139 21.4996 5H10.4859C8.7248 4.99932 7.01988 5.61962 5.67097 6.75179C4.32206 7.88395 3.41555 9.45549 3.11086 11.19L1.07211 21.7013C1.07151 21.7071 1.07151 21.7129 1.07211 21.7188C0.906166 22.661 1.04487 23.6317 1.4681 24.4898C1.89132 25.3479 2.57702 26.0487 3.42566 26.4906C4.27429 26.9325 5.24168 27.0924 6.18736 26.947C7.13304 26.8017 8.00779 26.3588 8.68461 25.6825L8.72836 25.6362L13.6896 20H18.3146L23.2784 25.6362C23.2921 25.6525 23.3071 25.6675 23.3221 25.6825C24.1656 26.5242 25.308 26.9979 26.4996 27C27.1565 26.9996 27.8053 26.8554 28.4004 26.5775C28.9956 26.2996 29.5227 25.8948 29.9448 25.3915C30.3668 24.8882 30.6736 24.2986 30.8435 23.6641C31.0134 23.0296 31.0424 22.3656 30.9284 21.7188H30.9296ZM12.9996 14H11.9996V15C11.9996 15.2652 11.8943 15.5196 11.7067 15.7071C11.5192 15.8946 11.2648 16 10.9996 16C10.7344 16 10.48 15.8946 10.2925 15.7071C10.105 15.5196 9.99961 15.2652 9.99961 15V14H8.99961C8.7344 14 8.48004 13.8946 8.29251 13.7071C8.10497 13.5196 7.99961 13.2652 7.99961 13C7.99961 12.7348 8.10497 12.4804 8.29251 12.2929C8.48004 12.1054 8.7344 12 8.99961 12H9.99961V11C9.99961 10.7348 10.105 10.4804 10.2925 10.2929C10.48 10.1054 10.7344 10 10.9996 10C11.2648 10 11.5192 10.1054 11.7067 10.2929C11.8943 10.4804 11.9996 10.7348 11.9996 11V12H12.9996C13.2648 12 13.5192 12.1054 13.7067 12.2929C13.8943 12.4804 13.9996 12.7348 13.9996 13C13.9996 13.2652 13.8943 13.5196 13.7067 13.7071C13.5192 13.8946 13.2648 14 12.9996 14ZM17.9996 13C17.9996 12.7348 18.105 12.4804 18.2925 12.2929C18.48 12.1054 18.7344 12 18.9996 12H21.9996C22.2648 12 22.5192 12.1054 22.7067 12.2929C22.8943 12.4804 22.9996 12.7348 22.9996 13C22.9996 13.2652 22.8943 13.5196 22.7067 13.7071C22.5192 13.8946 22.2648 14 21.9996 14H18.9996C18.7344 14 18.48 13.8946 18.2925 13.7071C18.105 13.5196 17.9996 13.2652 17.9996 13ZM28.5459 23.9338C28.3586 24.2034 28.1196 24.4332 27.8428 24.6098C27.566 24.7864 27.2569 24.9063 26.9334 24.9625C26.542 25.0309 26.14 25.0056 25.7604 24.8884C25.3808 24.7713 25.0344 24.5658 24.7496 24.2887L20.9746 20H21.4996C22.7763 20.0002 24.0319 19.6744 25.1475 19.0536C26.2631 18.4328 27.2018 17.5375 27.8746 16.4525L28.9671 22.0775C29.0227 22.3994 29.0142 22.7291 28.9419 23.0477C28.8696 23.3663 28.735 23.6674 28.5459 23.9338Z" fill="white"/>
<path d="M62.0002 14.5H59.0002C58.6024 14.5 58.2209 14.342 57.9396 14.0607C57.6583 13.7794 57.5002 13.3978 57.5002 13C57.5002 12.6022 57.6583 12.2206 57.9396 11.9393C58.2209 11.658 58.6024 11.5 59.0002 11.5H62.0002C62.3981 11.5 62.7796 11.658 63.0609 11.9393C63.3422 12.2206 63.5002 12.6022 63.5002 13C63.5002 13.3978 63.3422 13.7794 63.0609 14.0607C62.7796 14.342 62.3981 14.5 62.0002 14.5ZM53.0002 11.5H52.5002V11C52.5002 10.6022 52.3422 10.2206 52.0609 9.93934C51.7796 9.65804 51.3981 9.5 51.0002 9.5C50.6024 9.5 50.2209 9.65804 49.9396 9.93934C49.6583 10.2206 49.5002 10.6022 49.5002 11V11.5H49.0002C48.6024 11.5 48.2209 11.658 47.9396 11.9393C47.6583 12.2206 47.5002 12.6022 47.5002 13C47.5002 13.3978 47.6583 13.7794 47.9396 14.0607C48.2209 14.342 48.6024 14.5 49.0002 14.5H49.5002V15C49.5002 15.3978 49.6583 15.7794 49.9396 16.0607C50.2209 16.342 50.6024 16.5 51.0002 16.5C51.3981 16.5 51.7796 16.342 52.0609 16.0607C52.3422 15.7794 52.5002 15.3978 52.5002 15V14.5H53.0002C53.3981 14.5 53.7796 14.342 54.0609 14.0607C54.3422 13.7794 54.5002 13.3978 54.5002 13C54.5002 12.6022 54.3422 12.2206 54.0609 11.9393C53.7796 11.658 53.3981 11.5 53.0002 11.5ZM70.5952 25.3675C70.1765 25.9646 69.6322 26.4629 69.0005 26.8274C68.3688 27.1918 67.665 27.4137 66.9385 27.4774C66.2119 27.5412 65.4803 27.4452 64.7948 27.1962C64.1093 26.9473 63.4865 26.5513 62.9702 26.0362C62.9469 26.0142 62.9248 25.9908 62.904 25.9662L58.084 20.5H53.9165L49.1015 25.9662C49.0802 25.99 49.0577 26.0138 49.0352 26.0362C48.2831 26.7874 47.3112 27.2793 46.2605 27.4406C45.2098 27.6019 44.135 27.4241 43.1923 26.933C42.2495 26.442 41.4877 25.6633 41.0176 24.7099C40.5474 23.7565 40.3934 22.6781 40.5777 21.6313C40.577 21.6229 40.577 21.6146 40.5777 21.6063L42.6252 11.0988C42.951 9.25054 43.9174 7.57614 45.3548 6.36945C46.7921 5.16275 48.6085 4.50088 50.4852 4.5H61.5002C63.3711 4.50267 65.1821 5.16015 66.6189 6.35838C68.0557 7.55662 69.0278 9.22001 69.3665 11.06C69.3669 11.0679 69.3669 11.0758 69.3665 11.0837L71.4115 21.605C71.412 21.6133 71.412 21.6217 71.4115 21.63C71.5292 22.276 71.5177 22.939 71.3776 23.5805C71.2375 24.222 70.9716 24.8294 70.5952 25.3675ZM61.5002 17.5C62.8263 17.5 64.0981 16.9732 65.0358 16.0355C65.9735 15.0979 66.5002 13.8261 66.5002 12.5C66.5002 11.1739 65.9735 9.90215 65.0358 8.96447C64.0981 8.02678 62.8263 7.5 61.5002 7.5H50.4865C49.3128 7.50116 48.1772 7.91618 47.2793 8.67205C46.3815 9.42792 45.7789 10.4762 45.5777 11.6325C45.5771 11.6412 45.5771 11.65 45.5777 11.6587L43.5352 22.1588C43.4467 22.6797 43.5678 23.2145 43.8723 23.6464C44.1768 24.0783 44.6398 24.3721 45.1602 24.4638C45.4701 24.5178 45.7882 24.4983 46.0891 24.4069C46.3901 24.3155 46.6653 24.1547 46.8927 23.9375L52.1127 18.0088C52.2534 17.849 52.4265 17.721 52.6205 17.6333C52.8144 17.5455 53.0249 17.5001 53.2377 17.5H61.5002ZM68.4702 22.1637L67.5952 17.67C66.9071 18.4838 66.0629 19.1515 65.1124 19.6337C64.162 20.1158 63.1246 20.4028 62.0615 20.4775L65.1127 23.9425C65.4164 24.2338 65.8042 24.4219 66.2209 24.4801C66.6376 24.5382 67.0621 24.4635 67.4339 24.2664C67.8057 24.0694 68.1059 23.7601 68.2917 23.3826C68.4775 23.0051 68.5396 22.5786 68.469 22.1637H68.4702Z" fill="white"/>
</g>
<defs>
<clipPath id="clip0_27_4710">
<rect width="72" height="32" rx="5" fill="white"/>
</clipPath>
</defs>
</svg>
