<svg width="72" height="32" viewBox="0 0 72 32" fill="none" xmlns="http://www.w3.org/2000/svg">
<g clip-path="url(#clip0_27_6585)">
<path d="M25 3.00001H15.4138C15.151 2.99917 14.8907 3.05057 14.648 3.15121C14.4053 3.25185 14.1851 3.39973 14 3.58626L12.7075 4.87501L11.4138 3.58626C11.0387 3.21147 10.5302 3.00094 10 3.00094C9.4698 3.00094 8.9613 3.21147 8.58626 3.58626L5.58626 6.58626C5.21147 6.96129 5.00094 7.4698 5.00094 8.00001C5.00094 8.53022 5.21147 9.03872 5.58626 9.41376L6.87501 10.7075L5.58626 12C5.39973 12.1851 5.25185 12.4053 5.15121 12.648C5.05057 12.8907 4.99917 13.151 5.00001 13.4138V27C5.00001 27.5304 5.21072 28.0392 5.5858 28.4142C5.96087 28.7893 6.46958 29 7.00001 29H25C25.5304 29 26.0392 28.7893 26.4142 28.4142C26.7893 28.0392 27 27.5304 27 27V5.00001C27 4.46958 26.7893 3.96087 26.4142 3.5858C26.0392 3.21072 25.5304 3.00001 25 3.00001ZM7.00001 8.00001L10 5.00001L11.2925 6.29251L8.29251 9.29251L7.00001 8.00001ZM22.6 23.2C22.7051 23.2788 22.7936 23.3775 22.8605 23.4905C22.9274 23.6035 22.9714 23.7286 22.99 23.8586C23.0085 23.9886 23.0013 24.121 22.9687 24.2482C22.9361 24.3754 22.8788 24.495 22.8 24.6C22.7212 24.7051 22.6225 24.7936 22.5095 24.8605C22.3965 24.9274 22.2714 24.9714 22.1414 24.99C22.0114 25.0085 21.879 25.0013 21.7518 24.9687C21.6246 24.9361 21.5051 24.8788 21.4 24.8L16 20.75L10.6 24.8C10.3878 24.9591 10.1211 25.0275 9.85859 24.99C9.59604 24.9525 9.35914 24.8122 9.20001 24.6C9.04088 24.3878 8.97255 24.1211 9.01006 23.8586C9.04757 23.596 9.18784 23.3591 9.40001 23.2L14.3338 19.5L9.40001 15.8C9.18784 15.6409 9.04757 15.404 9.01006 15.1414C8.97255 14.8789 9.04088 14.6122 9.20001 14.4C9.35914 14.1878 9.59604 14.0476 9.85859 14.0101C10.1211 13.9726 10.3878 14.0409 10.6 14.2L16 18.25L21.4 14.2C21.6122 14.0409 21.8789 13.9726 22.1414 14.0101C22.404 14.0476 22.6409 14.1878 22.8 14.4C22.9591 14.6122 23.0275 14.8789 22.99 15.1414C22.9525 15.404 22.8122 15.6409 22.6 15.8L17.6663 19.5L22.6 23.2ZM22 9.00001H17C16.7348 9.00001 16.4804 8.89465 16.2929 8.70712C16.1054 8.51958 16 8.26523 16 8.00001C16 7.73479 16.1054 7.48044 16.2929 7.2929C16.4804 7.10537 16.7348 7.00001 17 7.00001H22C22.2652 7.00001 22.5196 7.10537 22.7071 7.2929C22.8947 7.48044 23 7.73479 23 8.00001C23 8.26523 22.8947 8.51958 22.7071 8.70712C22.5196 8.89465 22.2652 9.00001 22 9.00001Z" fill="white"/>
<path d="M64.9995 2.49998H56.4132C56.0848 2.4991 55.7595 2.56338 55.4561 2.68912C55.1527 2.81485 54.8772 2.99954 54.6457 3.23249L53.207 4.67123L51.267 2.73249C50.7981 2.26381 50.1624 2.00052 49.4995 2.00052C48.8366 2.00052 48.2008 2.26381 47.732 2.73249L44.732 5.73249C44.2633 6.2013 44 6.83707 44 7.49998C44 8.1629 44.2633 8.79867 44.732 9.26748L46.6707 11.2075L45.232 12.6462C44.999 12.8777 44.8143 13.1532 44.6886 13.4566C44.5629 13.76 44.4986 14.0853 44.4995 14.4137V27C44.4995 27.663 44.7629 28.2989 45.2317 28.7678C45.7005 29.2366 46.3364 29.5 46.9995 29.5H64.9995C65.6625 29.5 66.2984 29.2366 66.7672 28.7678C67.2361 28.2989 67.4995 27.663 67.4995 27V4.99998C67.4995 4.33694 67.2361 3.70106 66.7672 3.23222C66.2984 2.76338 65.6625 2.49998 64.9995 2.49998ZM47.207 7.49998L49.4995 5.20748L51.0857 6.79249L48.792 9.08624L47.207 7.49998ZM64.4995 26.5H47.4995V14.625L49.8532 12.2675L56.6245 5.49998H64.4995V26.5ZM56.9995 8.49998C56.9995 8.10216 57.1575 7.72063 57.4388 7.43932C57.7201 7.15802 58.1016 6.99998 58.4995 6.99998H60.9995C61.3973 6.99998 61.7788 7.15802 62.0601 7.43932C62.3414 7.72063 62.4995 8.10216 62.4995 8.49998C62.4995 8.89781 62.3414 9.27934 62.0601 9.56065C61.7788 9.84195 61.3973 9.99998 60.9995 9.99998H58.4995C58.1016 9.99998 57.7201 9.84195 57.4388 9.56065C57.1575 9.27934 56.9995 8.89781 56.9995 8.49998ZM61.937 16.6712L58.4007 19.5L61.937 22.3287C62.0908 22.4518 62.2188 22.6041 62.3138 22.7767C62.4088 22.9493 62.4689 23.1389 62.4906 23.3347C62.5123 23.5305 62.4952 23.7287 62.4403 23.9179C62.3854 24.1071 62.2938 24.2837 62.1707 24.4375C62.0476 24.5913 61.8954 24.7194 61.7228 24.8143C61.5502 24.9093 61.3606 24.9694 61.1648 24.9911C60.9689 25.0128 60.7708 24.9957 60.5815 24.9408C60.3923 24.886 60.2158 24.7943 60.062 24.6712L55.9995 21.4212L51.937 24.6712C51.6263 24.9199 51.2296 25.0349 50.8342 24.9911C50.4387 24.9473 50.0769 24.7481 49.8282 24.4375C49.5796 24.1269 49.4645 23.7302 49.5084 23.3347C49.5522 22.9392 49.7513 22.5774 50.062 22.3287L53.5982 19.5L50.062 16.6712C49.9082 16.5481 49.7801 16.3959 49.6851 16.2233C49.5901 16.0507 49.5301 15.8611 49.5084 15.6653C49.4645 15.2698 49.5796 14.8731 49.8282 14.5625C50.0769 14.2519 50.4387 14.0527 50.8342 14.0089C51.03 13.9872 51.2282 14.0042 51.4174 14.0591C51.6066 14.114 51.7832 14.2056 51.937 14.3287L55.9995 17.5787L60.062 14.3287C60.2158 14.2056 60.3923 14.114 60.5815 14.0591C60.7708 14.0042 60.9689 13.9872 61.1648 14.0089C61.3606 14.0306 61.5502 14.0906 61.7228 14.1856C61.8954 14.2806 62.0476 14.4087 62.1707 14.5625C62.2938 14.7163 62.3854 14.8928 62.4403 15.0821C62.4952 15.2713 62.5123 15.4695 62.4906 15.6653C62.4689 15.8611 62.4088 16.0507 62.3138 16.2233C62.2188 16.3959 62.0908 16.5481 61.937 16.6712Z" fill="white"/>
</g>
<defs>
<clipPath id="clip0_27_6585">
<rect width="72" height="32" rx="5" fill="white"/>
</clipPath>
</defs>
</svg>
