<svg width="72" height="32" viewBox="0 0 72 32" fill="none" xmlns="http://www.w3.org/2000/svg">
<g clip-path="url(#clip0_27_6590)">
<path d="M30.125 8.7075L27.7075 6.2925C27.5199 6.10486 27.2654 5.99944 27 5.99944C26.7346 5.99944 26.4801 6.10486 26.2925 6.2925C26.1049 6.48014 25.9994 6.73464 25.9994 7C25.9994 7.26536 26.1049 7.51986 26.2925 7.7075L28.7075 10.125C28.8941 10.3118 28.9992 10.5648 29 10.8287V21C29 21.2652 28.8946 21.5196 28.7071 21.7071C28.5196 21.8946 28.2652 22 28 22C27.7348 22 27.4804 21.8946 27.2929 21.7071C27.1054 21.5196 27 21.2652 27 21V16C27 15.2044 26.6839 14.4413 26.1213 13.8787C25.5587 13.3161 24.7956 13 24 13H22V7C22 6.20435 21.6839 5.44129 21.1213 4.87868C20.5587 4.31607 19.7956 4 19 4H9C8.20435 4 7.44129 4.31607 6.87868 4.87868C6.31607 5.44129 6 6.20435 6 7V26H4C3.73478 26 3.48043 26.1054 3.29289 26.2929C3.10536 26.4804 3 26.7348 3 27C3 27.2652 3.10536 27.5196 3.29289 27.7071C3.48043 27.8946 3.73478 28 4 28H24C24.2652 28 24.5196 27.8946 24.7071 27.7071C24.8946 27.5196 25 27.2652 25 27C25 26.7348 24.8946 26.4804 24.7071 26.2929C24.5196 26.1054 24.2652 26 24 26H22V15H24C24.2652 15 24.5196 15.1054 24.7071 15.2929C24.8946 15.4804 25 15.7348 25 16V21C25 21.7956 25.3161 22.5587 25.8787 23.1213C26.4413 23.6839 27.2044 24 28 24C28.7956 24 29.5587 23.6839 30.1213 23.1213C30.6839 22.5587 31 21.7956 31 21V10.8287C31.0015 10.4349 30.9249 10.0447 30.7748 9.68057C30.6246 9.31648 30.4037 8.98575 30.125 8.7075ZM18 15H10C9.73478 15 9.48043 14.8946 9.29289 14.7071C9.10536 14.5196 9 14.2652 9 14C9 13.7348 9.10536 13.4804 9.29289 13.2929C9.48043 13.1054 9.73478 13 10 13H18C18.2652 13 18.5196 13.1054 18.7071 13.2929C18.8946 13.4804 19 13.7348 19 14C19 14.2652 18.8946 14.5196 18.7071 14.7071C18.5196 14.8946 18.2652 15 18 15Z" fill="white"/>
<path d="M70.975 8.35375L68.5613 5.93875C68.2795 5.65696 67.8973 5.49865 67.4988 5.49865C67.1002 5.49865 66.718 5.65696 66.4363 5.93875C66.1545 6.22054 65.9961 6.60274 65.9961 7.00125C65.9961 7.39976 66.1545 7.78196 66.4363 8.06375L68.8538 10.475C68.9002 10.5215 68.937 10.5766 68.9621 10.6373C68.9872 10.698 69.0001 10.7631 69 10.8287V20.75C69 20.9489 68.921 21.1397 68.7803 21.2803C68.6397 21.421 68.4489 21.5 68.25 21.5C68.0511 21.5 67.8603 21.421 67.7197 21.2803C67.579 21.1397 67.5 20.9489 67.5 20.75V16C67.5 15.0717 67.1313 14.1815 66.4749 13.5251C65.8185 12.8687 64.9283 12.5 64 12.5H62.5V7C62.5 6.07174 62.1313 5.1815 61.4749 4.52513C60.8185 3.86875 59.9283 3.5 59 3.5H49C48.0717 3.5 47.1815 3.86875 46.5251 4.52513C45.8687 5.1815 45.5 6.07174 45.5 7V25.5H44C43.6022 25.5 43.2206 25.658 42.9393 25.9393C42.658 26.2206 42.5 26.6022 42.5 27C42.5 27.3978 42.658 27.7794 42.9393 28.0607C43.2206 28.342 43.6022 28.5 44 28.5H64C64.3978 28.5 64.7794 28.342 65.0607 28.0607C65.342 27.7794 65.5 27.3978 65.5 27C65.5 26.6022 65.342 26.2206 65.0607 25.9393C64.7794 25.658 64.3978 25.5 64 25.5H62.5V15.5H64C64.1326 15.5 64.2598 15.5527 64.3536 15.6464C64.4473 15.7402 64.5 15.8674 64.5 16V20.75C64.5 21.7446 64.8951 22.6984 65.5983 23.4017C66.3016 24.1049 67.2554 24.5 68.25 24.5C69.2446 24.5 70.1984 24.1049 70.9017 23.4017C71.6049 22.6984 72 21.7446 72 20.75V10.8287C72.0013 10.3689 71.9114 9.91339 71.7355 9.48855C71.5595 9.06371 71.3011 8.678 70.975 8.35375ZM48.5 25.5V7C48.5 6.86739 48.5527 6.74021 48.6464 6.64645C48.7402 6.55268 48.8674 6.5 49 6.5H59C59.1326 6.5 59.2598 6.55268 59.3536 6.64645C59.4473 6.74021 59.5 6.86739 59.5 7V25.5H48.5ZM57.5 14C57.5 14.3978 57.342 14.7794 57.0607 15.0607C56.7794 15.342 56.3978 15.5 56 15.5H52C51.6022 15.5 51.2206 15.342 50.9393 15.0607C50.658 14.7794 50.5 14.3978 50.5 14C50.5 13.6022 50.658 13.2206 50.9393 12.9393C51.2206 12.658 51.6022 12.5 52 12.5H56C56.3978 12.5 56.7794 12.658 57.0607 12.9393C57.342 13.2206 57.5 13.6022 57.5 14Z" fill="white"/>
</g>
<defs>
<clipPath id="clip0_27_6590">
<rect width="72" height="32" rx="5" fill="white"/>
</clipPath>
</defs>
</svg>
