<svg width="72" height="32" viewBox="0 0 72 32" fill="none" xmlns="http://www.w3.org/2000/svg">
<g clip-path="url(#clip0_27_2770)">
<path d="M29.7427 13.4013C29.7149 13.2604 29.657 13.1273 29.5731 13.0108C29.4892 12.8943 29.3812 12.7973 29.2565 12.7263L25.5277 10.6013L25.5127 6.39877C25.5123 6.25403 25.4804 6.11112 25.4193 5.97991C25.3583 5.84869 25.2694 5.7323 25.159 5.63877C23.8064 4.49464 22.2488 3.61785 20.569 3.05502C20.4367 3.01024 20.2965 2.99367 20.1574 3.00637C20.0184 3.01908 19.8835 3.06077 19.7615 3.12877L16.0002 5.23127L12.2352 3.12502C12.1132 3.05664 11.9781 3.01463 11.8388 3.00171C11.6995 2.98879 11.559 3.00525 11.4265 3.05002C9.7477 3.61646 8.19179 4.49665 6.84149 5.64377C6.7312 5.73716 6.64246 5.85336 6.58139 5.98434C6.52032 6.11533 6.48837 6.258 6.48774 6.40252L6.46899 10.6088L2.74024 12.7338C2.61549 12.8048 2.50749 12.9018 2.42359 13.0183C2.33969 13.1348 2.28184 13.2679 2.25399 13.4088C1.91273 15.1236 1.91273 16.8889 2.25399 18.6038C2.28184 18.7446 2.33969 18.8778 2.42359 18.9942C2.50749 19.1107 2.61549 19.2077 2.74024 19.2788L6.46899 21.4038L6.48399 25.6075C6.48444 25.7523 6.51631 25.8952 6.57738 26.0264C6.63846 26.1576 6.72729 26.274 6.83774 26.3675C8.19033 27.5116 9.74793 28.3884 11.4277 28.9513C11.56 28.996 11.7002 29.0126 11.8393 28.9999C11.9784 28.9872 12.1133 28.9455 12.2352 28.8775L16.0002 26.7688L19.7652 28.875C19.9142 28.958 20.0822 29.0011 20.2527 29C20.362 29 20.4704 28.9823 20.574 28.9475C22.2524 28.3813 23.8082 27.502 25.159 26.3563C25.2693 26.2629 25.358 26.1467 25.4191 26.0157C25.4802 25.8847 25.5121 25.742 25.5127 25.5975L25.5315 21.3913L29.2602 19.2663C29.385 19.1952 29.493 19.0982 29.5769 18.9817C29.6608 18.8653 29.7186 18.7321 29.7465 18.5913C30.0858 16.8778 30.0846 15.1143 29.7427 13.4013ZM16.0002 21C15.0113 21 14.0446 20.7068 13.2224 20.1574C12.4001 19.608 11.7593 18.8271 11.3808 17.9134C11.0024 16.9998 10.9034 15.9945 11.0963 15.0246C11.2892 14.0547 11.7654 13.1637 12.4647 12.4645C13.164 11.7652 14.0549 11.289 15.0248 11.0961C15.9947 10.9032 17 11.0022 17.9137 11.3806C18.8273 11.7591 19.6082 12.3999 20.1576 13.2222C20.707 14.0444 21.0002 15.0111 21.0002 16C21.0002 17.3261 20.4735 18.5979 19.5358 19.5356C18.5981 20.4732 17.3263 21 16.0002 21Z" fill="white"/>
<path d="M56 9.49999C54.7144 9.49999 53.4577 9.88121 52.3888 10.5954C51.3199 11.3097 50.4868 12.3248 49.9948 13.5125C49.5028 14.7003 49.3741 16.0072 49.6249 17.2681C49.8757 18.529 50.4948 19.6871 51.4038 20.5962C52.3129 21.5052 53.471 22.1243 54.7319 22.3751C55.9928 22.6259 57.2997 22.4972 58.4875 22.0052C59.6752 21.5132 60.6903 20.6801 61.4046 19.6112C62.1188 18.5423 62.5 17.2856 62.5 16C62.498 14.2767 61.8126 12.6245 60.594 11.406C59.3755 10.1874 57.7233 9.50197 56 9.49999ZM56 19.5C55.3078 19.5 54.6311 19.2947 54.0555 18.9101C53.4799 18.5255 53.0313 17.9789 52.7664 17.3394C52.5015 16.6998 52.4322 15.9961 52.5673 15.3172C52.7023 14.6382 53.0357 14.0146 53.5251 13.5251C54.0146 13.0356 54.6383 12.7023 55.3172 12.5672C55.9961 12.4322 56.6999 12.5015 57.3394 12.7664C57.9789 13.0313 58.5256 13.4799 58.9102 14.0555C59.2947 14.6311 59.5 15.3078 59.5 16C59.5 16.9282 59.1313 17.8185 58.4749 18.4749C57.8185 19.1312 56.9283 19.5 56 19.5ZM70.2325 13.3037C70.1902 13.0925 70.1029 12.8928 69.9765 12.7183C69.8501 12.5438 69.6876 12.3985 69.5 12.2925L66.0263 10.3112L66.0125 6.39749C66.0118 6.18034 65.9639 5.96595 65.8721 5.76912C65.7804 5.57229 65.6471 5.39773 65.4813 5.25749C64.0814 4.07308 62.4696 3.16495 60.7313 2.58124C60.533 2.51435 60.3229 2.4897 60.1145 2.50886C59.9061 2.52802 59.704 2.59057 59.5213 2.69249L56 4.65874L52.4788 2.69124C52.2958 2.58876 52.0933 2.52579 51.8844 2.50642C51.6756 2.48704 51.465 2.51168 51.2663 2.57874C49.5275 3.16488 47.9156 4.07556 46.5163 5.26249C46.351 5.40257 46.2181 5.57679 46.1266 5.77315C46.0351 5.96951 45.9872 6.18336 45.9863 6.39999L45.9688 10.3175L42.5 12.2937C42.3124 12.4002 42.15 12.5459 42.0238 12.7208C41.8976 12.8958 41.8106 13.0959 41.7688 13.3075C41.4156 15.0864 41.4156 16.9173 41.7688 18.6962C41.8109 18.9074 41.898 19.107 42.0242 19.2815C42.1504 19.456 42.3127 19.6013 42.5 19.7075L45.9775 21.6887L45.9913 25.6025C45.992 25.8196 46.0399 26.034 46.1316 26.2309C46.2234 26.4277 46.3567 26.6022 46.5225 26.7425C47.9224 27.9269 49.5342 28.835 51.2725 29.4187C51.4708 29.4856 51.6809 29.5103 51.8893 29.4911C52.0977 29.472 52.2997 29.4094 52.4825 29.3075L56 27.3412L59.5175 29.3087C59.7005 29.4112 59.903 29.4742 60.1118 29.4936C60.3207 29.5129 60.5313 29.4883 60.73 29.4212C62.4688 28.8351 64.0806 27.9244 65.48 26.7375C65.6453 26.5974 65.7782 26.4232 65.8697 26.2268C65.9612 26.0305 66.009 25.8166 66.01 25.6L66.0275 21.6825L69.5038 19.7062C69.6914 19.5998 69.8538 19.4541 69.98 19.2792C70.1062 19.1042 70.1932 18.9041 70.235 18.6925C70.5873 16.9134 70.5865 15.0825 70.2325 13.3037ZM67.4038 17.4512L64.0438 19.3612C63.805 19.4966 63.6082 19.6951 63.475 19.935C63.4075 20.06 63.3363 20.1762 63.2625 20.295C63.1144 20.5315 63.0352 20.8047 63.0338 21.0837L63.0163 24.875C62.2076 25.4835 61.322 25.9824 60.3825 26.3587L56.9888 24.46C56.765 24.3347 56.5128 24.2688 56.2563 24.2687H56.22C56.0775 24.2687 55.9325 24.2687 55.79 24.2687C55.522 24.2624 55.257 24.3275 55.0225 24.4575L51.625 26.3525C50.684 25.978 49.7963 25.4813 48.985 24.875L48.9713 21.095C48.9701 20.8155 48.8909 20.5419 48.7425 20.305C48.67 20.1875 48.5975 20.0662 48.53 19.945C48.3967 19.7066 48.2004 19.5094 47.9625 19.375L44.6 17.4537C44.4694 16.4898 44.4694 15.5127 44.6 14.5487L47.96 12.6387C48.1983 12.5034 48.395 12.3054 48.5288 12.0662C48.5963 11.9412 48.6675 11.8237 48.7413 11.705C48.8894 11.4685 48.9686 11.1953 48.97 10.9162L48.9838 7.12499C49.7927 6.51821 50.6783 6.02099 51.6175 5.64624L55.0113 7.54499C55.2457 7.6765 55.5113 7.74216 55.78 7.73499C55.9225 7.73499 56.0675 7.73499 56.21 7.73499C56.4781 7.74133 56.743 7.67618 56.9775 7.54624L60.375 5.64749C61.3161 6.02194 62.2037 6.51871 63.015 7.12499L63.0288 10.905C63.0299 11.1845 63.1091 11.4581 63.2575 11.695C63.33 11.8125 63.4025 11.9337 63.47 12.055C63.6033 12.2934 63.7997 12.4906 64.0375 12.625L67.4 14.5412C67.5323 15.5066 67.5336 16.4855 67.4038 17.4512Z" fill="white"/>
</g>
<defs>
<clipPath id="clip0_27_2770">
<rect width="72" height="32" rx="5" fill="white"/>
</clipPath>
</defs>
</svg>
