<svg width="72" height="32" viewBox="0 0 72 32" fill="none" xmlns="http://www.w3.org/2000/svg">
<g clip-path="url(#clip0_27_2765)">
<path d="M27.0001 16.27C27.0051 16.09 27.0051 15.91 27.0001 15.73L28.8651 13.4C28.9628 13.2777 29.0305 13.1341 29.0627 12.9808C29.0948 12.8275 29.0905 12.6688 29.0501 12.5175C28.7438 11.3684 28.2865 10.2651 27.6901 9.23625C27.6119 9.10164 27.5034 8.98714 27.3732 8.90186C27.243 8.81658 27.0947 8.76286 26.9401 8.745L23.9751 8.415C23.8517 8.285 23.7267 8.16 23.6001 8.04L23.2501 5.0675C23.2321 4.91276 23.1782 4.76437 23.0926 4.63416C23.0071 4.50395 22.8924 4.39551 22.7576 4.3175C21.7288 3.72156 20.6254 3.26506 19.4763 2.96C19.325 2.91957 19.1663 2.91525 19.013 2.94738C18.8597 2.97952 18.7161 3.04721 18.5938 3.145L16.2701 5C16.0901 5 15.9101 5 15.7301 5L13.4001 3.13875C13.2777 3.04096 13.1341 2.97327 12.9808 2.94114C12.8276 2.909 12.6689 2.91332 12.5176 2.95375C11.3685 3.26003 10.2651 3.71735 9.23631 4.31375C9.1017 4.3919 8.9872 4.5004 8.90192 4.63061C8.81664 4.76081 8.76292 4.90913 8.74506 5.06375L8.41506 8.03375C8.28506 8.15791 8.16006 8.28291 8.04006 8.40875L5.06756 8.75C4.91282 8.768 4.76443 8.8219 4.63422 8.90741C4.50401 8.99291 4.39557 9.10766 4.31756 9.2425C3.72174 10.2715 3.26485 11.3748 2.95881 12.5237C2.91855 12.6752 2.91444 12.8339 2.94679 12.9872C2.97914 13.1405 3.04705 13.284 3.14506 13.4062L5.00006 15.73C5.00006 15.91 5.00006 16.09 5.00006 16.27L3.13881 18.6C3.04102 18.7223 2.97333 18.8659 2.9412 19.0192C2.90906 19.1725 2.91338 19.3312 2.95381 19.4825C3.26009 20.6316 3.71741 21.7349 4.31381 22.7637C4.39196 22.8983 4.50046 23.0128 4.63067 23.0981C4.76087 23.1834 4.90919 23.2371 5.06381 23.255L8.02881 23.585C8.15297 23.715 8.27797 23.84 8.40381 23.96L8.75006 26.9325C8.76806 27.0872 8.82196 27.2356 8.90747 27.3658C8.99298 27.496 9.10772 27.6045 9.24256 27.6825C10.2715 28.2783 11.3749 28.7352 12.5238 29.0412C12.6752 29.0815 12.834 29.0856 12.9872 29.0533C13.1405 29.0209 13.2841 28.953 13.4063 28.855L15.7301 27C15.9101 27.005 16.0901 27.005 16.2701 27L18.6001 28.865C18.7224 28.9628 18.866 29.0305 19.0193 29.0626C19.1726 29.0947 19.3312 29.0904 19.4826 29.05C20.6318 28.7443 21.7352 28.2869 22.7638 27.69C22.8984 27.6118 23.0129 27.5033 23.0982 27.3731C23.1835 27.2429 23.2372 27.0946 23.2551 26.94L23.5851 23.975C23.7151 23.8517 23.8401 23.7267 23.9601 23.6L26.9326 23.25C27.0873 23.232 27.2357 23.1781 27.3659 23.0926C27.4961 23.0071 27.6045 22.8923 27.6826 22.7575C28.2784 21.7285 28.7353 20.6252 29.0413 19.4762C29.0816 19.3248 29.0857 19.1661 29.0533 19.0128C29.021 18.8595 28.9531 18.716 28.8551 18.5937L27.0001 16.27ZM16.0001 21C15.0112 21 14.0445 20.7068 13.2222 20.1573C12.4 19.6079 11.7591 18.827 11.3807 17.9134C11.0022 16.9998 10.9032 15.9944 11.0961 15.0245C11.2891 14.0546 11.7653 13.1637 12.4645 12.4645C13.1638 11.7652 14.0547 11.289 15.0246 11.0961C15.9945 10.9031 16.9998 11.0022 17.9135 11.3806C18.8271 11.759 19.608 12.3999 20.1574 13.2221C20.7068 14.0444 21.0001 15.0111 21.0001 16C21.0001 17.3261 20.4733 18.5978 19.5356 19.5355C18.5979 20.4732 17.3261 21 16.0001 21Z" fill="white"/>
<path d="M56.0002 9.50002C54.7146 9.50002 53.4579 9.88123 52.389 10.5955C51.32 11.3097 50.4869 12.3249 49.9949 13.5126C49.503 14.7003 49.3743 16.0072 49.6251 17.2681C49.8759 18.529 50.4949 19.6872 51.404 20.5962C52.313 21.5053 53.4712 22.1243 54.7321 22.3751C55.993 22.6259 57.2999 22.4972 58.4876 22.0052C59.6753 21.5133 60.6905 20.6801 61.4047 19.6112C62.1189 18.5423 62.5002 17.2856 62.5002 16C62.4982 14.2767 61.8127 12.6246 60.5942 11.406C59.3756 10.1875 57.7235 9.502 56.0002 9.50002ZM56.0002 19.5C55.3079 19.5 54.6312 19.2947 54.0557 18.9102C53.4801 18.5256 53.0315 17.9789 52.7666 17.3394C52.5017 16.6999 52.4324 15.9961 52.5674 15.3172C52.7025 14.6383 53.0358 14.0146 53.5253 13.5251C54.0148 13.0357 54.6384 12.7023 55.3173 12.5673C55.9963 12.4322 56.7 12.5015 57.3396 12.7664C57.9791 13.0313 58.5257 13.4799 58.9103 14.0555C59.2949 14.6311 59.5002 15.3078 59.5002 16C59.5002 16.9283 59.1314 17.8185 58.475 18.4749C57.8187 19.1313 56.9284 19.5 56.0002 19.5ZM67.5002 16.0988V15.9013L69.2502 13.7125C69.3971 13.5291 69.4988 13.3138 69.5472 13.0838C69.5957 12.8539 69.5894 12.6158 69.5289 12.3888C69.2131 11.1976 68.7411 10.0536 68.1252 8.98627C68.0065 8.78274 67.8416 8.61003 67.6437 8.48211C67.4459 8.3542 67.2207 8.27469 66.9864 8.25002L64.2014 7.93752L64.0627 7.79877L63.7502 5.01252C63.7253 4.77844 63.6457 4.55351 63.5178 4.3559C63.3899 4.15829 63.2173 3.99355 63.0139 3.87502C61.9465 3.25713 60.802 2.78342 59.6102 2.46627C59.3829 2.40669 59.1448 2.40133 58.9151 2.45061C58.6854 2.4999 58.4705 2.60246 58.2877 2.75002L56.0989 4.50002H55.9014L53.7127 2.75002C53.5293 2.60312 53.3139 2.50136 53.084 2.45294C52.8541 2.40452 52.616 2.4108 52.3889 2.47127C51.1975 2.78903 50.0534 3.26315 48.9864 3.88127C48.7837 3.99931 48.6115 4.16326 48.4836 4.35995C48.3557 4.55664 48.2758 4.78057 48.2502 5.01377L47.9377 7.79877L47.7989 7.93752L45.0127 8.25002C44.7786 8.27488 44.5537 8.35448 44.356 8.48238C44.1584 8.61029 43.9937 8.7829 43.8752 8.98627C43.259 10.0539 42.787 11.1984 42.4714 12.39C42.4112 12.6169 42.405 12.8547 42.4534 13.0844C42.5018 13.3141 42.6035 13.5293 42.7502 13.7125L44.5002 15.9013V16.0988L42.7502 18.2875C42.6033 18.4709 42.5015 18.6863 42.4531 18.9162C42.4047 19.1461 42.4109 19.3842 42.4714 19.6113C42.7896 20.8028 43.2641 21.9469 43.8827 23.0138C44.0006 23.2163 44.1643 23.3885 44.3608 23.5163C44.5573 23.6442 44.7809 23.7242 45.0139 23.75L47.7989 24.06L47.9377 24.1988L48.2502 26.9875C48.275 27.2216 48.3546 27.4465 48.4825 27.6441C48.6104 27.8417 48.783 28.0065 48.9864 28.125C50.0538 28.7429 51.1983 29.2166 52.3902 29.5338C52.6174 29.5933 52.8555 29.5987 53.0852 29.5494C53.3149 29.5001 53.5298 29.3976 53.7127 29.25L55.9014 27.5H56.0989L58.2877 29.25C58.4711 29.3969 58.6864 29.4987 58.9163 29.5471C59.1463 29.5955 59.3844 29.5892 59.6114 29.5288C60.8025 29.213 61.9466 28.741 63.0139 28.125C63.2171 28.0073 63.3898 27.8434 63.5181 27.6467C63.6464 27.45 63.7268 27.2259 63.7527 26.9925L64.0627 24.2075L64.2014 24.0688L66.9877 23.75C67.2211 23.7241 67.4452 23.6438 67.6419 23.5155C67.8386 23.3872 68.0024 23.2145 68.1202 23.0113C68.7381 21.9439 69.2118 20.7994 69.5289 19.6075C69.5888 19.381 69.5947 19.1436 69.5463 18.9144C69.4979 18.6852 69.3965 18.4705 69.2502 18.2875L67.5002 16.0988ZM64.4852 15.4875C64.5052 15.8289 64.5052 16.1711 64.4852 16.5125C64.4628 16.8836 64.5791 17.2498 64.8114 17.54L66.4164 19.5463C66.2649 19.9947 66.0841 20.4328 65.8752 20.8575L63.3214 21.1413C62.9517 21.1835 62.6109 21.3617 62.3652 21.6413C62.1381 21.8971 61.896 22.1392 61.6402 22.3663C61.3606 22.612 61.1824 22.9528 61.1402 23.3225L60.8577 25.875C60.433 26.0848 59.9949 26.2664 59.5464 26.4188L57.5402 24.8125C57.2739 24.6001 56.9433 24.4846 56.6027 24.485C56.5727 24.485 56.5427 24.485 56.5127 24.485C56.1713 24.505 55.829 24.505 55.4877 24.485C55.1168 24.463 54.7509 24.5788 54.4602 24.81L52.4539 26.4163C52.0055 26.2648 51.5674 26.084 51.1427 25.875L50.8589 23.3213C50.8166 22.9515 50.6384 22.6107 50.3589 22.365C50.1031 22.1379 49.861 21.8958 49.6339 21.64C49.3882 21.3605 49.0474 21.1823 48.6777 21.14L46.1252 20.8575C45.9154 20.4328 45.7337 19.9948 45.5814 19.5463L47.1864 17.54C47.4187 17.2498 47.535 16.8836 47.5127 16.5125C47.4927 16.1711 47.4927 15.8289 47.5127 15.4875C47.535 15.1164 47.4187 14.7503 47.1864 14.46L45.5839 12.4538C45.7354 12.0053 45.9162 11.5673 46.1252 11.1425L48.6789 10.8588C49.0487 10.8165 49.3895 10.6383 49.6352 10.3588C49.8622 10.1029 50.1043 9.86084 50.3602 9.63377C50.6397 9.38808 50.8179 9.04725 50.8602 8.67752L51.1427 6.12502C51.5674 5.91523 52.0054 5.73359 52.4539 5.58127L54.4602 7.18752C54.7509 7.41875 55.1168 7.53449 55.4877 7.51252C55.829 7.49252 56.1713 7.49252 56.5127 7.51252C56.8836 7.53521 57.2498 7.41939 57.5402 7.18752L59.5464 5.58127C59.9949 5.73359 60.433 5.91523 60.8577 6.12502L61.1414 8.67877C61.1837 9.0485 61.3619 9.38933 61.6414 9.63502C61.8972 9.86209 62.1393 10.1042 62.3664 10.36C62.6121 10.6395 62.9529 10.8177 63.3227 10.86L65.8752 11.1425C66.085 11.5672 66.2666 12.0052 66.4189 12.4538L64.8139 14.46C64.5807 14.7499 64.4635 15.1161 64.4852 15.4875Z" fill="white"/>
</g>
<defs>
<clipPath id="clip0_27_2765">
<rect width="72" height="32" rx="5" fill="white"/>
</clipPath>
</defs>
</svg>
