<svg width="72" height="32" viewBox="0 0 72 32" fill="none" xmlns="http://www.w3.org/2000/svg">
<g clip-path="url(#clip0_27_3167)">
<path d="M25 3H7C6.46957 3 5.96086 3.21071 5.58579 3.58579C5.21071 3.96086 5 4.46957 5 5V27C5 27.5304 5.21071 28.0391 5.58579 28.4142C5.96086 28.7893 6.46957 29 7 29H25C25.5304 29 26.0391 28.7893 26.4142 28.4142C26.7893 28.0391 27 27.5304 27 27V5C27 4.46957 26.7893 3.96086 26.4142 3.58579C26.0391 3.21071 25.5304 3 25 3ZM16 26C14.363 25.9998 12.7864 25.382 11.5851 24.27C10.3839 23.1579 9.64642 21.6336 9.52012 20.0015C9.39382 18.3694 9.88798 16.7498 10.9039 15.4662C11.9198 14.1826 13.3826 13.3295 15 13.0775V10.4775L11.375 11.9288C11.1287 12.0282 10.8529 12.0257 10.6084 11.9219C10.3639 11.818 10.1707 11.6213 10.0712 11.375C9.97179 11.1287 9.97426 10.8529 10.0781 10.6084C10.182 10.3639 10.3787 10.1707 10.625 10.0712L13.3075 9L10.625 7.92875C10.3787 7.82929 10.182 7.63606 10.0781 7.39156C9.97426 7.14706 9.97179 6.87132 10.0712 6.625C10.1707 6.37868 10.3639 6.18196 10.6084 6.07811C10.8529 5.97426 11.1287 5.97179 11.375 6.07125L16 7.9225L20.625 6.07125C20.747 6.022 20.8774 5.99726 21.009 5.99844C21.1405 5.99962 21.2705 6.02669 21.3916 6.07811C21.5126 6.12953 21.6224 6.20429 21.7145 6.29813C21.8067 6.39196 21.8795 6.50303 21.9287 6.625C21.978 6.74697 22.0027 6.87744 22.0016 7.00896C22.0004 7.14049 21.9733 7.2705 21.9219 7.39156C21.8705 7.51262 21.7957 7.62238 21.7019 7.71455C21.608 7.80672 21.497 7.8795 21.375 7.92875L18.6925 9L21.375 10.0712C21.6213 10.1707 21.818 10.3639 21.9219 10.6084C22.0257 10.8529 22.0282 11.1287 21.9287 11.375C21.8293 11.6213 21.6361 11.818 21.3916 11.9219C21.1471 12.0257 20.8713 12.0282 20.625 11.9288L17 10.4775V13.0775C18.6174 13.3295 20.0802 14.1826 21.0961 15.4662C22.112 16.7498 22.6062 18.3694 22.4799 20.0015C22.3536 21.6336 21.6161 23.1579 20.4149 24.27C19.2136 25.382 17.637 25.9998 16 26ZM20.5 19.5C20.5 20.39 20.2361 21.26 19.7416 22.0001C19.2471 22.7401 18.5443 23.3169 17.7221 23.6575C16.8998 23.9981 15.995 24.0872 15.1221 23.9135C14.2492 23.7399 13.4474 23.3113 12.818 22.682C12.1887 22.0526 11.7601 21.2508 11.5865 20.3779C11.4128 19.505 11.5019 18.6002 11.8425 17.7779C12.1831 16.9557 12.7599 16.2529 13.4999 15.7584C14.24 15.2639 15.11 15 16 15C17.1935 15 18.3381 15.4741 19.182 16.318C20.0259 17.1619 20.5 18.3065 20.5 19.5Z" fill="white"/>
<path d="M57.5 11.625V8.65L60.2288 10.2862C60.3978 10.3918 60.5861 10.4626 60.7828 10.4945C60.9795 10.5265 61.1806 10.5189 61.3743 10.4723C61.568 10.4256 61.7505 10.3409 61.9111 10.2229C62.0718 10.105 62.2072 9.95621 62.3097 9.78531C62.4122 9.61441 62.4796 9.42481 62.508 9.22758C62.5363 9.03035 62.5251 8.82944 62.475 8.63659C62.4249 8.44373 62.3368 8.2628 62.216 8.10435C62.0952 7.9459 61.944 7.81312 61.7713 7.71375L58.915 6L61.7713 4.28625C62.1047 4.07802 62.3431 3.74721 62.4351 3.36499C62.5271 2.98278 62.4654 2.57972 62.2632 2.24256C62.0611 1.90539 61.7346 1.66107 61.3541 1.56217C60.9736 1.46328 60.5695 1.51771 60.2288 1.71375L56 4.25L51.7713 1.71375C51.4305 1.51771 51.0264 1.46328 50.6459 1.56217C50.2654 1.66107 49.939 1.90539 49.7368 2.24256C49.5346 2.57972 49.4729 2.98278 49.5649 3.36499C49.6569 3.74721 49.8953 4.07802 50.2288 4.28625L53.085 6L50.2288 7.71375C50.056 7.81312 49.9049 7.9459 49.784 8.10435C49.6632 8.2628 49.5751 8.44373 49.525 8.63659C49.4749 8.82944 49.4637 9.03035 49.4921 9.22758C49.5205 9.42481 49.5878 9.61441 49.6903 9.78531C49.7928 9.95621 49.9283 10.105 50.0889 10.2229C50.2495 10.3409 50.432 10.4256 50.6257 10.4723C50.8194 10.5189 51.0205 10.5265 51.2172 10.4945C51.4139 10.4626 51.6023 10.3918 51.7713 10.2862L54.5 8.65V11.625C52.1407 12.0023 50.0101 13.2547 48.533 15.1327C47.0559 17.0107 46.3406 19.3764 46.5299 21.7582C46.7191 24.14 47.7989 26.3631 49.554 27.9843C51.3091 29.6055 53.6107 30.5058 56 30.5058C58.3893 30.5058 60.6909 29.6055 62.446 27.9843C64.2012 26.3631 65.281 24.14 65.4702 21.7582C65.6594 19.3764 64.9442 17.0107 63.467 15.1327C61.9899 13.2547 59.8594 12.0023 57.5 11.625ZM56 27.5C54.7144 27.5 53.4577 27.1188 52.3888 26.4046C51.3199 25.6903 50.4868 24.6752 49.9948 23.4874C49.5028 22.2997 49.3741 20.9928 49.6249 19.7319C49.8757 18.471 50.4948 17.3128 51.4038 16.4038C52.3129 15.4948 53.4711 14.8757 54.7319 14.6249C55.9928 14.3741 57.2997 14.5028 58.4875 14.9948C59.6752 15.4868 60.6903 16.3199 61.4046 17.3888C62.1188 18.4577 62.5 19.7144 62.5 21C62.498 22.7233 61.8126 24.3754 60.594 25.594C59.3755 26.8126 57.7233 27.498 56 27.5Z" fill="white"/>
</g>
<defs>
<clipPath id="clip0_27_3167">
<rect width="72" height="32" rx="5" fill="white"/>
</clipPath>
</defs>
</svg>
