<svg width="72" height="32" viewBox="0 0 72 32" fill="none" xmlns="http://www.w3.org/2000/svg">
<g clip-path="url(#clip0_27_3157)">
<path d="M19 17.5C19 18.39 18.7361 19.26 18.2416 20.0001C17.7471 20.7401 17.0443 21.3169 16.2221 21.6575C15.3998 21.9981 14.495 22.0872 13.6221 21.9135C12.7492 21.7399 11.9474 21.3113 11.318 20.682C10.6887 20.0526 10.2601 19.2508 10.0865 18.3779C9.91283 17.505 10.0019 16.6002 10.3425 15.7779C10.6831 14.9557 11.2599 14.2529 11.9999 13.7584C12.74 13.2639 13.61 13 14.5 13C15.0909 13 15.6761 13.1164 16.2221 13.3425C16.768 13.5687 17.2641 13.9002 17.682 14.318C18.0998 14.7359 18.4313 15.232 18.6575 15.7779C18.8836 16.3239 19 16.9091 19 17.5ZM27 5V27C27 27.5304 26.7893 28.0391 26.4142 28.4142C26.0391 28.7893 25.5304 29 25 29H7C6.46957 29 5.96086 28.7893 5.58579 28.4142C5.21071 28.0391 5 27.5304 5 27V5C5 4.46957 5.21071 3.96086 5.58579 3.58579C5.96086 3.21071 6.46957 3 7 3H25C25.5304 3 26.0391 3.21071 26.4142 3.58579C26.7893 3.96086 27 4.46957 27 5ZM24 9C24 8.73478 23.8946 8.48043 23.7071 8.29289C23.5196 8.10536 23.2652 8 23 8H19C18.7348 8 18.4804 8.10536 18.2929 8.29289C18.1054 8.48043 18 8.73478 18 9C18 9.26522 18.1054 9.51957 18.2929 9.70711C18.4804 9.89464 18.7348 10 19 10H20.5863L18.3363 12.25C17.014 11.2804 15.3746 10.8455 13.7457 11.0321C12.1167 11.2187 10.6181 12.0132 9.54944 13.2567C8.48076 14.5002 7.92065 16.1011 7.98105 17.7396C8.04145 19.3781 8.71791 20.9335 9.87525 22.0949C11.0326 23.2564 12.5856 23.9383 14.2239 24.0045C15.8621 24.0707 17.4651 23.5162 18.7123 22.4519C19.9596 21.3877 20.7593 19.8919 20.9517 18.2636C21.144 16.6353 20.7149 14.9944 19.75 13.6687L22 11.4187V13C22 13.2652 22.1054 13.5196 22.2929 13.7071C22.4804 13.8946 22.7348 14 23 14C23.2652 14 23.5196 13.8946 23.7071 13.7071C23.8946 13.5196 24 13.2652 24 13V9Z" fill="white"/>
<path d="M66.9997 3.5H60.9997C60.6019 3.5 60.2204 3.65804 59.9391 3.93934C59.6578 4.22064 59.4997 4.60218 59.4997 5C59.4997 5.39782 59.6578 5.77936 59.9391 6.06066C60.2204 6.34196 60.6019 6.5 60.9997 6.5H63.3747L59.2847 10.5925C57.1585 9.00348 54.5094 8.27872 51.8704 8.56404C49.2314 8.84936 46.7984 10.1236 45.0609 12.1303C43.3235 14.1371 42.4105 16.7274 42.5058 19.3801C42.6011 22.0327 43.6975 24.5509 45.5744 26.4278C47.4513 28.3048 49.9695 29.4012 52.6222 29.4964C55.2748 29.5917 57.8652 28.6788 59.8719 26.9413C61.8786 25.2039 63.1529 22.7709 63.4382 20.1319C63.7235 17.4928 62.9987 14.8437 61.4097 12.7175L65.4997 8.625V11C65.4997 11.3978 65.6578 11.7794 65.9391 12.0607C66.2204 12.342 66.6019 12.5 66.9997 12.5C67.3976 12.5 67.7791 12.342 68.0604 12.0607C68.3417 11.7794 68.4997 11.3978 68.4997 11V5C68.4997 4.60218 68.3417 4.22064 68.0604 3.93934C67.7791 3.65804 67.3976 3.5 66.9997 3.5ZM58.301 24.3075C57.252 25.3561 55.9156 26.0701 54.4608 26.3592C53.006 26.6484 51.4982 26.4997 50.1279 25.9319C48.7577 25.3642 47.5865 24.4029 46.7625 23.1696C45.9385 21.9363 45.4988 20.4864 45.4988 19.0031C45.4988 17.5199 45.9385 16.07 46.7625 14.8367C47.5865 13.6034 48.7577 12.6421 50.1279 12.0743C51.4982 11.5066 53.006 11.3579 54.4608 11.647C55.9156 11.9362 57.252 12.6502 58.301 13.6987C59.7051 15.107 60.4936 17.0145 60.4936 19.0031C60.4936 20.9918 59.7051 22.8993 58.301 24.3075Z" fill="white"/>
</g>
<defs>
<clipPath id="clip0_27_3157">
<rect width="72" height="32" rx="5" fill="white"/>
</clipPath>
</defs>
</svg>
