<svg width="72" height="32" viewBox="0 0 72 32" fill="none" xmlns="http://www.w3.org/2000/svg">
<g clip-path="url(#clip0_27_3152)">
<path d="M18.4888 14.215C18.547 14.9291 18.3847 15.644 18.0237 16.2629C17.6628 16.8819 17.1205 17.3751 16.4702 17.676C15.82 17.977 15.093 18.071 14.3875 17.9456C13.6821 17.8201 13.0321 17.4812 12.5255 16.9745C12.0188 16.4679 11.6799 15.8179 11.5544 15.1125C11.429 14.407 11.523 13.68 11.824 13.0298C12.1249 12.3795 12.6181 11.8372 13.2371 11.4763C13.856 11.1153 14.5709 10.953 15.285 11.0112C16.1121 11.0787 16.8884 11.438 17.4752 12.0248C18.062 12.6116 18.4213 13.3879 18.4888 14.215ZM27 5V27C27 27.5304 26.7893 28.0391 26.4142 28.4142C26.0391 28.7893 25.5304 29 25 29H7C6.46957 29 5.96086 28.7893 5.58579 28.4142C5.21071 28.0391 5 27.5304 5 27V5C5 4.46957 5.21071 3.96086 5.58579 3.58579C5.96086 3.21071 6.46957 3 7 3H25C25.5304 3 26.0391 3.21071 26.4142 3.58579C26.7893 3.96086 27 4.46957 27 5ZM23.5 7C23.5 6.73478 23.3946 6.48043 23.2071 6.29289C23.0196 6.10536 22.7652 6 22.5 6H19.0338C18.7753 5.99589 18.5248 6.08997 18.333 6.26326C18.1411 6.43656 18.0221 6.67617 18 6.93375C17.9909 7.07054 18.0101 7.20773 18.0562 7.33681C18.1024 7.46589 18.1746 7.58409 18.2684 7.68409C18.3622 7.78408 18.4755 7.86372 18.6014 7.91807C18.7272 7.97241 18.8629 8.0003 19 8H20.0863L18.115 9.97125C17.4399 9.50519 16.6691 9.19604 15.8591 9.06644C15.0491 8.93685 14.2203 8.99009 13.4335 9.22227C12.6467 9.45446 11.9219 9.8597 11.312 10.4083C10.7021 10.9569 10.2226 11.635 9.90876 12.3929C9.59488 13.1508 9.45451 13.9694 9.49794 14.7885C9.54137 15.6077 9.76749 16.4068 10.1597 17.1273C10.552 17.8478 11.1005 18.4714 11.7649 18.9524C12.4294 19.4335 13.1931 19.7598 14 19.9075V22H11.5337C11.2753 21.9959 11.0248 22.09 10.833 22.2633C10.6411 22.4366 10.5221 22.6762 10.5 22.9338C10.4909 23.0705 10.5101 23.2077 10.5562 23.3368C10.6024 23.4659 10.6746 23.5841 10.7684 23.6841C10.8622 23.7841 10.9755 23.8637 11.1014 23.9181C11.2272 23.9724 11.3629 24.0003 11.5 24H14V25.9662C13.9968 26.2242 14.0913 26.4739 14.2645 26.6651C14.4376 26.8564 14.6767 26.9751 14.9338 26.9975C15.0705 27.0066 15.2077 26.9874 15.3368 26.9413C15.4659 26.8951 15.5841 26.8229 15.6841 26.7291C15.7841 26.6353 15.8637 26.522 15.9181 26.3961C15.9724 26.2703 16.0003 26.1346 16 25.9975V24H18.4662C18.7243 24.0035 18.9741 23.9091 19.1655 23.7359C19.3568 23.5626 19.4754 23.3234 19.4975 23.0662C19.5066 22.9295 19.4874 22.7923 19.4413 22.6632C19.3951 22.5341 19.3229 22.4159 19.2291 22.3159C19.1353 22.2159 19.022 22.1363 18.8961 22.0819C18.7703 22.0276 18.6346 21.9997 18.4975 22H16V19.9075C16.9012 19.7403 17.7463 19.3506 18.4585 18.7738C19.1708 18.1969 19.7276 17.4512 20.0783 16.6044C20.4291 15.7576 20.5626 14.8366 20.4669 13.9251C20.3711 13.0136 20.0491 12.1404 19.53 11.385L21.5 9.41375V10.4663C21.4962 10.7247 21.5904 10.9749 21.7636 11.1667C21.9368 11.3585 22.1763 11.4776 22.4338 11.5C22.5705 11.5091 22.7077 11.4899 22.8368 11.4438C22.9659 11.3976 23.0841 11.3254 23.1841 11.2316C23.2841 11.1378 23.3637 11.0245 23.4181 10.8986C23.4724 10.7728 23.5003 10.6371 23.5 10.5V7Z" fill="white"/>
<path d="M65.9998 2.5H60.9998C60.602 2.5 60.2205 2.65804 59.9392 2.93934C59.6579 3.22064 59.4998 3.60218 59.4998 4C59.4998 4.39782 59.6579 4.77936 59.9392 5.06066C60.2205 5.34196 60.602 5.5 60.9998 5.5H62.3748L60.4198 7.45875C59.4188 6.62688 58.24 6.03602 56.9745 5.73172C55.709 5.42743 54.3905 5.41782 53.1207 5.70366C51.8509 5.98949 50.6636 6.56312 49.6506 7.38032C48.6375 8.19753 47.8256 9.23647 47.2776 10.417C46.7295 11.5976 46.4599 12.8883 46.4895 14.1895C46.5191 15.4908 46.8472 16.7679 47.4484 17.9223C48.0496 19.0767 48.9078 20.0776 49.957 20.8479C51.0062 21.6182 52.2183 22.1372 53.4998 22.365V24H50.9998C50.602 24 50.2205 24.158 49.9392 24.4393C49.6579 24.7206 49.4998 25.1022 49.4998 25.5C49.4998 25.8978 49.6579 26.2794 49.9392 26.5607C50.2205 26.842 50.602 27 50.9998 27H53.4998V29C53.4998 29.3978 53.6579 29.7794 53.9392 30.0607C54.2205 30.342 54.602 30.5 54.9998 30.5C55.3976 30.5 55.7792 30.342 56.0605 30.0607C56.3418 29.7794 56.4998 29.3978 56.4998 29V27H58.9998C59.3976 27 59.7792 26.842 60.0605 26.5607C60.3418 26.2794 60.4998 25.8978 60.4998 25.5C60.4998 25.1022 60.3418 24.7206 60.0605 24.4393C59.7792 24.158 59.3976 24 58.9998 24H56.4998V22.365C57.8423 22.1255 59.1073 21.5663 60.1879 20.7345C61.2685 19.9028 62.1329 18.823 62.708 17.5866C63.283 16.3501 63.5519 14.9934 63.4917 13.631C63.4315 12.2687 63.0441 10.9409 62.3623 9.76L64.4998 7.625V9C64.4998 9.39782 64.6579 9.77936 64.9392 10.0607C65.2205 10.342 65.602 10.5 65.9998 10.5C66.3976 10.5 66.7792 10.342 67.0605 10.0607C67.3418 9.77936 67.4998 9.39782 67.4998 9V4C67.4998 3.60218 67.3418 3.22064 67.0605 2.93934C66.7792 2.65804 66.3976 2.5 65.9998 2.5ZM54.9998 19.5C53.912 19.5 52.8487 19.1774 51.9442 18.5731C51.0397 17.9687 50.3348 17.1098 49.9185 16.1048C49.5022 15.0998 49.3933 13.9939 49.6055 12.927C49.8177 11.8601 50.3415 10.8801 51.1107 10.1109C51.8799 9.34172 52.8599 8.8179 53.9268 8.60568C54.9937 8.39346 56.0996 8.50238 57.1046 8.91866C58.1096 9.33495 58.9686 10.0399 59.5729 10.9444C60.1772 11.8488 60.4998 12.9122 60.4998 14C60.4982 15.4582 59.9182 16.8562 58.8871 17.8873C57.856 18.9184 56.458 19.4983 54.9998 19.5Z" fill="white"/>
</g>
<defs>
<clipPath id="clip0_27_3152">
<rect width="72" height="32" rx="5" fill="white"/>
</clipPath>
</defs>
</svg>
