<svg width="72" height="32" viewBox="0 0 72 32" fill="none" xmlns="http://www.w3.org/2000/svg">
<g clip-path="url(#clip0_27_4715)">
<path d="M16 3C12.8185 3.00364 9.76839 4.26909 7.51874 6.51874C5.26909 8.76839 4.00364 11.8185 4 15V27C3.99996 27.1894 4.05369 27.3749 4.15495 27.5349C4.25621 27.6949 4.40082 27.8229 4.57197 27.904C4.74312 27.985 4.93377 28.0158 5.12174 27.9928C5.30971 27.9697 5.48726 27.8938 5.63375 27.7738L8.66625 25.2925L11.7 27.7738C11.8786 27.9199 12.1023 27.9997 12.3331 27.9997C12.5639 27.9997 12.7876 27.9199 12.9663 27.7738L16 25.2925L19.0338 27.7738C19.2124 27.9199 19.4361 27.9997 19.6669 27.9997C19.8977 27.9997 20.1214 27.9199 20.3 27.7738L23.3337 25.2925L26.3662 27.7738C26.5127 27.8938 26.6903 27.9697 26.8783 27.9928C27.0662 28.0158 27.2569 27.985 27.428 27.904C27.5992 27.8229 27.7438 27.6949 27.8451 27.5349C27.9463 27.3749 28 27.1894 28 27V15C27.9964 11.8185 26.7309 8.76839 24.4813 6.51874C22.2316 4.26909 19.1815 3.00364 16 3ZM12.5 16C12.2033 16 11.9133 15.912 11.6666 15.7472C11.42 15.5824 11.2277 15.3481 11.1142 15.074C11.0006 14.7999 10.9709 14.4983 11.0288 14.2074C11.0867 13.9164 11.2296 13.6491 11.4393 13.4393C11.6491 13.2296 11.9164 13.0867 12.2074 13.0288C12.4983 12.9709 12.7999 13.0006 13.074 13.1142C13.3481 13.2277 13.5824 13.42 13.7472 13.6666C13.912 13.9133 14 14.2033 14 14.5C14 14.8978 13.842 15.2794 13.5607 15.5607C13.2794 15.842 12.8978 16 12.5 16ZM19.5 16C19.2033 16 18.9133 15.912 18.6666 15.7472C18.42 15.5824 18.2277 15.3481 18.1142 15.074C18.0007 14.7999 17.9709 14.4983 18.0288 14.2074C18.0867 13.9164 18.2296 13.6491 18.4393 13.4393C18.6491 13.2296 18.9164 13.0867 19.2074 13.0288C19.4983 12.9709 19.7999 13.0006 20.074 13.1142C20.3481 13.2277 20.5824 13.42 20.7472 13.6666C20.912 13.9133 21 14.2033 21 14.5C21 14.8978 20.842 15.2794 20.5607 15.5607C20.2794 15.842 19.8978 16 19.5 16Z" fill="white"/>
<path d="M54.5 14.5C54.5 14.8956 54.3827 15.2822 54.1629 15.6111C53.9432 15.94 53.6308 16.1964 53.2654 16.3478C52.8999 16.4991 52.4978 16.5387 52.1098 16.4616C51.7219 16.3844 51.3655 16.1939 51.0858 15.9142C50.8061 15.6345 50.6156 15.2781 50.5384 14.8902C50.4613 14.5022 50.5009 14.1001 50.6522 13.7346C50.8036 13.3692 51.06 13.0568 51.3889 12.8371C51.7178 12.6173 52.1044 12.5 52.5 12.5C53.0304 12.5 53.5391 12.7107 53.9142 13.0858C54.2893 13.4609 54.5 13.9696 54.5 14.5ZM59.5 12.5C59.1044 12.5 58.7178 12.6173 58.3889 12.8371C58.06 13.0568 57.8036 13.3692 57.6522 13.7346C57.5009 14.1001 57.4613 14.5022 57.5384 14.8902C57.6156 15.2781 57.8061 15.6345 58.0858 15.9142C58.3655 16.1939 58.7219 16.3844 59.1098 16.4616C59.4978 16.5387 59.8999 16.4991 60.2654 16.3478C60.6308 16.1964 60.9432 15.94 61.1629 15.6111C61.3827 15.2822 61.5 14.8956 61.5 14.5C61.5 13.9696 61.2893 13.4609 60.9142 13.0858C60.5391 12.7107 60.0304 12.5 59.5 12.5ZM68.5 15V27C68.5001 27.284 68.4195 27.5622 68.2677 27.8022C68.1159 28.0422 67.8991 28.2342 67.6425 28.3559C67.3858 28.4775 67.0999 28.5238 66.818 28.4894C66.5361 28.4549 66.2698 28.3411 66.05 28.1612L63.3337 25.9375L60.6162 28.1612C60.3482 28.3806 60.0126 28.5004 59.6663 28.5004C59.3199 28.5004 58.9843 28.3806 58.7162 28.1612L56 25.9375L53.2837 28.1612C53.0157 28.3806 52.6801 28.5004 52.3337 28.5004C51.9874 28.5004 51.6518 28.3806 51.3837 28.1612L48.6663 25.9375L45.95 28.1612C45.7302 28.3411 45.4639 28.4549 45.182 28.4894C44.9001 28.5238 44.6142 28.4775 44.3575 28.3559C44.1009 28.2342 43.8841 28.0422 43.7323 27.8022C43.5805 27.5622 43.4999 27.284 43.5 27V15C43.5 11.6848 44.817 8.50537 47.1612 6.16117C49.5054 3.81696 52.6848 2.5 56 2.5C59.3152 2.5 62.4946 3.81696 64.8388 6.16117C67.183 8.50537 68.5 11.6848 68.5 15ZM65.5 15C65.5 12.4804 64.4991 10.0641 62.7175 8.28249C60.9359 6.50089 58.5196 5.5 56 5.5C53.4804 5.5 51.0641 6.50089 49.2825 8.28249C47.5009 10.0641 46.5 12.4804 46.5 15V23.835L47.7162 22.835C47.9843 22.6157 48.3199 22.4958 48.6663 22.4958C49.0126 22.4958 49.3482 22.6157 49.6163 22.835L52.3337 25.0625L55.05 22.8388C55.318 22.6194 55.6537 22.4996 56 22.4996C56.3463 22.4996 56.682 22.6194 56.95 22.8388L59.6663 25.0625L62.3838 22.8388C62.6518 22.6194 62.9874 22.4996 63.3337 22.4996C63.6801 22.4996 64.0157 22.6194 64.2838 22.8388L65.5 23.8388V15Z" fill="white"/>
</g>
<defs>
<clipPath id="clip0_27_4715">
<rect width="72" height="32" rx="5" fill="white"/>
</clipPath>
</defs>
</svg>
