<svg width="72" height="32" viewBox="0 0 72 32" fill="none" xmlns="http://www.w3.org/2000/svg">
<g clip-path="url(#clip0_27_3779)">
<path d="M27 5H5C4.46957 5 3.96086 5.21071 3.58579 5.58579C3.21071 5.96086 3 6.46957 3 7V25C3 25.5304 3.21071 26.0391 3.58579 26.4142C3.96086 26.7893 4.46957 27 5 27H27C27.5304 27 28.0391 26.7893 28.4142 26.4142C28.7893 26.0391 29 25.5304 29 25V7C29 6.46957 28.7893 5.96086 28.4142 5.58579C28.0391 5.21071 27.5304 5 27 5ZM14 18C14 19.0609 13.5786 20.0783 12.8284 20.8284C12.0783 21.5786 11.0609 22 10 22C8.93913 22 7.92172 21.5786 7.17157 20.8284C6.42143 20.0783 6 19.0609 6 18V14C6.00012 13.19 6.24617 12.3991 6.70559 11.7319C7.16502 11.0648 7.81616 10.5529 8.57288 10.2639C9.32959 9.97486 10.1562 9.92241 10.9434 10.1135C11.7306 10.3045 12.4412 10.73 12.9812 11.3337C13.0739 11.4307 13.1461 11.5453 13.1935 11.6707C13.241 11.7961 13.2627 11.9298 13.2574 12.0638C13.2522 12.1978 13.22 12.3294 13.1629 12.4507C13.1057 12.572 13.0248 12.6806 12.9248 12.77C12.8249 12.8594 12.708 12.9277 12.581 12.971C12.4541 13.0143 12.3198 13.0316 12.1861 13.022C12.0523 13.0123 11.9219 12.9758 11.8025 12.9147C11.6832 12.8536 11.5773 12.7691 11.4913 12.6663C11.2212 12.3641 10.8658 12.1511 10.4721 12.0555C10.0783 11.9598 9.66478 11.9861 9.28626 12.1307C8.90773 12.2753 8.58206 12.5315 8.35237 12.8653C8.12267 13.1991 7.99979 13.5948 8 14V18C8 18.5304 8.21071 19.0391 8.58579 19.4142C8.96086 19.7893 9.46957 20 10 20C10.5304 20 11.0391 19.7893 11.4142 19.4142C11.7893 19.0391 12 18.5304 12 18V17H11C10.7348 17 10.4804 16.8946 10.2929 16.7071C10.1054 16.5196 10 16.2652 10 16C10 15.7348 10.1054 15.4804 10.2929 15.2929C10.4804 15.1054 10.7348 15 11 15H13C13.2652 15 13.5196 15.1054 13.7071 15.2929C13.8946 15.4804 14 15.7348 14 16V18ZM18 21C18 21.2652 17.8946 21.5196 17.7071 21.7071C17.5196 21.8946 17.2652 22 17 22C16.7348 22 16.4804 21.8946 16.2929 21.7071C16.1054 21.5196 16 21.2652 16 21V11C16 10.7348 16.1054 10.4804 16.2929 10.2929C16.4804 10.1054 16.7348 10 17 10C17.2652 10 17.5196 10.1054 17.7071 10.2929C17.8946 10.4804 18 10.7348 18 11V21ZM25.5 12H22V15H24.5C24.7652 15 25.0196 15.1054 25.2071 15.2929C25.3946 15.4804 25.5 15.7348 25.5 16C25.5 16.2652 25.3946 16.5196 25.2071 16.7071C25.0196 16.8946 24.7652 17 24.5 17H22V21C22 21.2652 21.8946 21.5196 21.7071 21.7071C21.5196 21.8946 21.2652 22 21 22C20.7348 22 20.4804 21.8946 20.2929 21.7071C20.1054 21.5196 20 21.2652 20 21V11C20 10.7348 20.1054 10.4804 20.2929 10.2929C20.4804 10.1054 20.7348 10 21 10H25.5C25.7652 10 26.0196 10.1054 26.2071 10.2929C26.3946 10.4804 26.5 10.7348 26.5 11C26.5 11.2652 26.3946 11.5196 26.2071 11.7071C26.0196 11.8946 25.7652 12 25.5 12Z" fill="white"/>
<path d="M58.5 9V23C58.5 23.3978 58.342 23.7794 58.0607 24.0607C57.7794 24.342 57.3978 24.5 57 24.5C56.6022 24.5 56.2206 24.342 55.9393 24.0607C55.658 23.7794 55.5 23.3978 55.5 23V9C55.5 8.60218 55.658 8.22064 55.9393 7.93934C56.2206 7.65804 56.6022 7.5 57 7.5C57.3978 7.5 57.7794 7.65804 58.0607 7.93934C58.342 8.22064 58.5 8.60218 58.5 9ZM69 10.5C69.3978 10.5 69.7794 10.342 70.0607 10.0607C70.342 9.77936 70.5 9.39782 70.5 9C70.5 8.60218 70.342 8.22064 70.0607 7.93934C69.7794 7.65804 69.3978 7.5 69 7.5H62C61.6022 7.5 61.2206 7.65804 60.9393 7.93934C60.658 8.22064 60.5 8.60218 60.5 9V23C60.5 23.3978 60.658 23.7794 60.9393 24.0607C61.2206 24.342 61.6022 24.5 62 24.5C62.3978 24.5 62.7794 24.342 63.0607 24.0607C63.342 23.7794 63.5 23.3978 63.5 23V17.5H68C68.3978 17.5 68.7794 17.342 69.0607 17.0607C69.342 16.7794 69.5 16.3978 69.5 16C69.5 15.6022 69.342 15.2206 69.0607 14.9393C68.7794 14.658 68.3978 14.5 68 14.5H63.5V10.5H69ZM52 14.5H49C48.6022 14.5 48.2206 14.658 47.9393 14.9393C47.658 15.2206 47.5 15.6022 47.5 16C47.5 16.3978 47.658 16.7794 47.9393 17.0607C48.2206 17.342 48.6022 17.5 49 17.5H50.5V19C50.5 19.663 50.2366 20.2989 49.7678 20.7678C49.2989 21.2366 48.663 21.5 48 21.5C47.337 21.5 46.7011 21.2366 46.2322 20.7678C45.7634 20.2989 45.5 19.663 45.5 19V13C45.5 12.337 45.7634 11.7011 46.2322 11.2322C46.7011 10.7634 47.337 10.5 48 10.5C49.1775 10.5 50.2725 11.3063 50.5475 12.375C50.647 12.7602 50.8954 13.0902 51.2381 13.2922C51.5808 13.4943 51.9898 13.552 52.375 13.4525C52.7602 13.353 53.0902 13.1046 53.2922 12.7619C53.4943 12.4192 53.552 12.0102 53.4525 11.625C52.8375 9.235 50.5437 7.5 48 7.5C46.5418 7.50165 45.1438 8.08165 44.1127 9.11274C43.0816 10.1438 42.5017 11.5418 42.5 13V19C42.5 20.4587 43.0795 21.8576 44.1109 22.8891C45.1424 23.9205 46.5413 24.5 48 24.5C49.4587 24.5 50.8576 23.9205 51.8891 22.8891C52.9205 21.8576 53.5 20.4587 53.5 19V16C53.5 15.6022 53.342 15.2206 53.0607 14.9393C52.7794 14.658 52.3978 14.5 52 14.5Z" fill="white"/>
</g>
<defs>
<clipPath id="clip0_27_3779">
<rect width="72" height="32" rx="5" fill="white"/>
</clipPath>
</defs>
</svg>
