<svg width="72" height="32" viewBox="0 0 72 32" fill="none" xmlns="http://www.w3.org/2000/svg">
<g clip-path="url(#clip0_27_3543)">
<path d="M29 8C28.9996 7.25195 28.7895 6.519 28.3935 5.88438C27.9974 5.24976 27.4314 4.73891 26.7596 4.40984C26.0878 4.08077 25.3372 3.94667 24.5931 4.02277C23.8489 4.09887 23.141 4.38212 22.5497 4.84036C21.9585 5.29859 21.5075 5.91344 21.2482 6.61508C20.9888 7.31673 20.9314 8.07704 21.0824 8.80968C21.2334 9.54233 21.5869 10.2179 22.1026 10.7598C22.6184 11.3016 23.2757 11.688 24 11.875V14C24 14.2652 23.8947 14.5196 23.7071 14.7071C23.5196 14.8946 23.2652 15 23 15H12C11.6593 14.9999 11.321 15.0582 11 15.1725V11.875C11.9427 11.6316 12.7642 11.0528 13.3106 10.247C13.857 9.44121 14.0908 8.46381 13.9681 7.498C13.8455 6.53219 13.3747 5.64427 12.6442 5.00068C11.9137 4.35709 10.9736 4.00202 10 4.00202C9.02644 4.00202 8.08628 4.35709 7.35578 5.00068C6.62527 5.64427 6.15457 6.53219 6.03189 7.498C5.90922 8.46381 6.143 9.44121 6.68941 10.247C7.23582 11.0528 8.05735 11.6316 9.00001 11.875V20.125C8.05735 20.3684 7.23582 20.9472 6.68941 21.753C6.143 22.5588 5.90922 23.5362 6.03189 24.502C6.15457 25.4678 6.62527 26.3557 7.35578 26.9993C8.08628 27.6429 9.02644 27.998 10 27.998C10.9736 27.998 11.9137 27.6429 12.6442 26.9993C13.3747 26.3557 13.8455 25.4678 13.9681 24.502C14.0908 23.5362 13.857 22.5588 13.3106 21.753C12.7642 20.9472 11.9427 20.3684 11 20.125V18C11 17.7348 11.1054 17.4804 11.2929 17.2929C11.4804 17.1054 11.7348 17 12 17H23C23.7957 17 24.5587 16.6839 25.1213 16.1213C25.6839 15.5587 26 14.7956 26 14V11.875C26.8583 11.6521 27.6185 11.1507 28.1613 10.4495C28.7042 9.74828 28.9992 8.8868 29 8ZM8.00001 8C8.00001 7.60444 8.11731 7.21776 8.33707 6.88886C8.55683 6.55996 8.86919 6.30362 9.23464 6.15224C9.6001 6.00086 10.0022 5.96126 10.3902 6.03843C10.7782 6.1156 11.1345 6.30608 11.4142 6.58579C11.6939 6.86549 11.8844 7.22186 11.9616 7.60982C12.0388 7.99778 11.9991 8.39991 11.8478 8.76537C11.6964 9.13082 11.44 9.44318 11.1111 9.66294C10.7823 9.8827 10.3956 10 10 10C9.46958 10 8.96087 9.78929 8.5858 9.41421C8.21072 9.03914 8.00001 8.53043 8.00001 8ZM12 24C12 24.3956 11.8827 24.7822 11.6629 25.1111C11.4432 25.44 11.1308 25.6964 10.7654 25.8478C10.3999 25.9991 9.99779 26.0387 9.60983 25.9616C9.22187 25.8844 8.8655 25.6939 8.5858 25.4142C8.30609 25.1345 8.11561 24.7781 8.03844 24.3902C7.96127 24.0022 8.00087 23.6001 8.15225 23.2346C8.30363 22.8692 8.55997 22.5568 8.88887 22.3371C9.21777 22.1173 9.60445 22 10 22C10.5304 22 11.0391 22.2107 11.4142 22.5858C11.7893 22.9609 12 23.4696 12 24Z" fill="white"/>
<path d="M69.5 8C69.5 7.175 69.2733 6.36587 68.8445 5.66105C68.4157 4.95623 67.8014 4.38285 67.0688 4.00358C66.3361 3.62431 65.5133 3.45375 64.6902 3.51054C63.8672 3.56733 63.0756 3.84929 62.402 4.32559C61.7284 4.80189 61.1987 5.45421 60.8707 6.21124C60.5428 6.96828 60.4293 7.80089 60.5427 8.61806C60.656 9.43524 60.9918 10.2055 61.5134 10.8448C62.0349 11.484 62.7222 11.9675 63.5 12.2425V14C63.5 14.1326 63.4473 14.2598 63.3536 14.3536C63.2598 14.4473 63.1326 14.5 63 14.5H52C51.8327 14.5 51.6656 14.5121 51.5 14.5363V12.2425C52.5008 11.8887 53.3443 11.1924 53.8815 10.2768C54.4186 9.36117 54.6147 8.28515 54.4352 7.23891C54.2557 6.19266 53.7121 5.24356 52.9005 4.55935C52.0889 3.87513 51.0615 3.49986 50 3.49986C48.9385 3.49986 47.9111 3.87513 47.0995 4.55935C46.2879 5.24356 45.7443 6.19266 45.5648 7.23891C45.3853 8.28515 45.5814 9.36117 46.1186 10.2768C46.6557 11.1924 47.4992 11.8887 48.5 12.2425V19.7575C47.4992 20.1113 46.6557 20.8076 46.1186 21.7232C45.5814 22.6388 45.3853 23.7149 45.5648 24.7611C45.7443 25.8073 46.2879 26.7565 47.0995 27.4407C47.9111 28.1249 48.9385 28.5001 50 28.5001C51.0615 28.5001 52.0889 28.1249 52.9005 27.4407C53.7121 26.7565 54.2557 25.8073 54.4352 24.7611C54.6147 23.7149 54.4186 22.6388 53.8815 21.7232C53.3443 20.8076 52.5008 20.1113 51.5 19.7575V18C51.5 17.8674 51.5527 17.7402 51.6465 17.6465C51.7402 17.5527 51.8674 17.5 52 17.5H63C63.9283 17.5 64.8185 17.1313 65.4749 16.4749C66.1313 15.8185 66.5 14.9283 66.5 14V12.2425C67.3766 11.9312 68.1355 11.3564 68.6726 10.5969C69.2097 9.83733 69.4987 8.93025 69.5 8ZM50 6.50001C50.2967 6.50001 50.5867 6.58798 50.8334 6.7528C51.08 6.91762 51.2723 7.15189 51.3858 7.42598C51.4994 7.70007 51.5291 8.00167 51.4712 8.29264C51.4133 8.58361 51.2704 8.85089 51.0607 9.06067C50.8509 9.27044 50.5836 9.4133 50.2926 9.47118C50.0017 9.52906 49.7001 9.49936 49.426 9.38582C49.1519 9.27229 48.9176 9.08003 48.7528 8.83336C48.588 8.58669 48.5 8.29668 48.5 8C48.5 7.60218 48.658 7.22065 48.9393 6.93934C49.2207 6.65804 49.6022 6.50001 50 6.50001ZM50 25.5C49.7033 25.5 49.4133 25.412 49.1667 25.2472C48.92 25.0824 48.7277 24.8481 48.6142 24.574C48.5007 24.2999 48.471 23.9983 48.5288 23.7074C48.5867 23.4164 48.7296 23.1491 48.9393 22.9393C49.1491 22.7296 49.4164 22.5867 49.7074 22.5288C49.9983 22.4709 50.2999 22.5007 50.574 22.6142C50.8481 22.7277 51.0824 22.92 51.2472 23.1667C51.412 23.4133 51.5 23.7033 51.5 24C51.5 24.3978 51.342 24.7794 51.0607 25.0607C50.7794 25.342 50.3978 25.5 50 25.5ZM65 9.5C64.7033 9.5 64.4133 9.41203 64.1667 9.24721C63.92 9.08239 63.7277 8.84812 63.6142 8.57403C63.5007 8.29994 63.471 7.99834 63.5288 7.70737C63.5867 7.4164 63.7296 7.14912 63.9394 6.93934C64.1491 6.72957 64.4164 6.5867 64.7074 6.52883C64.9983 6.47095 65.2999 6.50065 65.574 6.61419C65.8481 6.72772 66.0824 6.91998 66.2472 7.16665C66.412 7.41332 66.5 7.70333 66.5 8C66.5 8.39783 66.342 8.77936 66.0607 9.06067C65.7794 9.34197 65.3978 9.5 65 9.5Z" fill="white"/>
</g>
<defs>
<clipPath id="clip0_27_3543">
<rect width="72" height="32" rx="5" fill="white"/>
</clipPath>
</defs>
</svg>
