<svg width="72" height="32" viewBox="0 0 72 32" fill="none" xmlns="http://www.w3.org/2000/svg">
<g clip-path="url(#clip0_27_3553)">
<path d="M14.7725 26.635C14.7588 26.6525 14.7425 26.6687 14.7275 26.685L14.7075 26.7075L14.6863 26.7262C14.6697 26.7427 14.6521 26.7581 14.6338 26.7725C14.621 26.7836 14.6076 26.794 14.5938 26.8037L14.5563 26.8312L14.5088 26.86C14.4967 26.8678 14.4842 26.8749 14.4713 26.8812L14.425 26.905L14.3825 26.9237L14.3375 26.94C14.3221 26.9465 14.3062 26.952 14.29 26.9562L14.245 26.9687C14.2275 26.9687 14.2125 26.9775 14.195 26.98L14.1425 26.9887L14.0988 26.995C14.0659 26.9969 14.0329 26.9969 14 26.995H8.00001C7.73479 26.995 7.48044 26.8896 7.2929 26.7021C7.10537 26.5146 7.00001 26.2602 7.00001 25.995C7.00001 25.7298 7.10537 25.4754 7.2929 25.2879C7.48044 25.1004 7.73479 24.995 8.00001 24.995H11.5863L6.87501 20.2925C6.59582 20.0138 6.37472 19.6825 6.22452 19.3177C6.07433 18.9529 5.99801 18.562 6.00001 18.1675V11.875C5.05735 11.6316 4.23582 11.0528 3.68941 10.247C3.143 9.44121 2.90922 8.46381 3.03189 7.498C3.15457 6.53218 3.62527 5.64426 4.35578 5.00068C5.08628 4.35709 6.02644 4.00201 7.00001 4.00201C7.97358 4.00201 8.91374 4.35709 9.64424 5.00068C10.3747 5.64426 10.8455 6.53218 10.9681 7.498C11.0908 8.46381 10.857 9.44121 10.3106 10.247C9.7642 11.0528 8.94267 11.6316 8.00001 11.875V18.1725C8.00112 18.4361 8.10624 18.6885 8.29251 18.875L13 23.5862V20C13 19.7348 13.1054 19.4804 13.2929 19.2929C13.4804 19.1054 13.7348 19 14 19C14.2652 19 14.5196 19.1054 14.7071 19.2929C14.8947 19.4804 15 19.7348 15 20V26C15.0019 26.0333 15.0019 26.0667 15 26.1C15 26.1137 15 26.1262 15 26.14C15 26.1537 15 26.1775 14.9913 26.1975C14.9886 26.2132 14.9848 26.2286 14.98 26.2437C14.98 26.26 14.9725 26.2762 14.9675 26.2925C14.9625 26.3087 14.9575 26.3212 14.9525 26.3362L14.935 26.385L14.9163 26.4237C14.9088 26.44 14.9013 26.4575 14.8925 26.4737C14.8838 26.49 14.8788 26.4962 14.8725 26.5087L14.8425 26.5575L14.8163 26.5925L14.7725 26.635ZM26 20.125V13.8287C26.002 13.4343 25.9257 13.0433 25.7755 12.6785C25.6253 12.3138 25.4042 11.9824 25.125 11.7037L20.4138 7H24C24.2652 7 24.5196 6.89464 24.7071 6.7071C24.8947 6.51957 25 6.26521 25 6C25 5.73478 24.8947 5.48043 24.7071 5.29289C24.5196 5.10535 24.2652 5 24 5H17.9775H17.9025C17.885 5 17.8675 5 17.8513 5.0075H17.805L17.7513 5.02125L17.71 5.03125L17.66 5.04875L17.6175 5.065L17.5738 5.085L17.5288 5.1075C17.5154 5.11425 17.5025 5.12177 17.49 5.13C17.475 5.13875 17.4588 5.1475 17.445 5.1575C17.4316 5.16637 17.4186 5.17597 17.4063 5.18625C17.3924 5.19554 17.3791 5.20555 17.3663 5.21625C17.3475 5.23125 17.3313 5.24625 17.3138 5.2625L17.2925 5.28125L17.2725 5.30375C17.2575 5.32 17.2413 5.33625 17.2275 5.35375L17.195 5.3975L17.1688 5.4325L17.1388 5.48125C17.1325 5.49375 17.125 5.505 17.1188 5.51625C17.1125 5.5275 17.1025 5.55 17.095 5.56625L17.0763 5.605L17.0588 5.65375C17.0588 5.66875 17.0475 5.6825 17.0438 5.6975C17.04 5.7125 17.035 5.73 17.0313 5.74625C17.0265 5.76139 17.0227 5.77685 17.02 5.7925C17.02 5.8125 17.02 5.83125 17.0113 5.85C17.0025 5.86875 17.0113 5.87625 17.005 5.89C17.0031 5.9233 17.0031 5.95669 17.005 5.99V12C17.005 12.2652 17.1104 12.5196 17.2979 12.7071C17.4854 12.8946 17.7398 13 18.005 13C18.2702 13 18.5246 12.8946 18.7121 12.7071C18.8997 12.5196 19.005 12.2652 19.005 12V8.41375L23.7075 13.125C23.8003 13.2179 23.874 13.3283 23.9241 13.4496C23.9743 13.571 24.0001 13.7011 24 13.8325V20.125C23.0574 20.3684 22.2358 20.9472 21.6894 21.753C21.143 22.5588 20.9092 23.5362 21.0319 24.502C21.1546 25.4678 21.6253 26.3557 22.3558 26.9993C23.0863 27.6429 24.0264 27.998 25 27.998C25.9736 27.998 26.9137 27.6429 27.6442 26.9993C28.3747 26.3557 28.8455 25.4678 28.9681 24.502C29.0908 23.5362 28.857 22.5588 28.3106 21.753C27.7642 20.9472 26.9427 20.3684 26 20.125Z" fill="white"/>
<path d="M54 18.5C53.6022 18.5 53.2207 18.658 52.9393 18.9393C52.658 19.2206 52.5 19.6022 52.5 20V22.375L48.6463 18.525C48.5998 18.4785 48.563 18.4234 48.5379 18.3627C48.5128 18.302 48.5 18.2369 48.5 18.1713V12.2425C49.5008 11.8887 50.3443 11.1924 50.8815 10.2768C51.4186 9.36117 51.6147 8.28515 51.4352 7.2389C51.2557 6.19266 50.7121 5.24356 49.9005 4.55935C49.0889 3.87513 48.0615 3.49986 47 3.49986C45.9385 3.49986 44.9111 3.87513 44.0995 4.55935C43.2879 5.24356 42.7443 6.19266 42.5648 7.2389C42.3853 8.28515 42.5814 9.36117 43.1186 10.2768C43.6557 11.1924 44.4992 11.8887 45.5 12.2425V18.1713C45.4987 18.6311 45.5886 19.0866 45.7645 19.5115C45.9405 19.9363 46.199 20.322 46.525 20.6463L50.375 24.5H48C47.6022 24.5 47.2207 24.658 46.9393 24.9393C46.658 25.2206 46.5 25.6022 46.5 26C46.5 26.3978 46.658 26.7794 46.9393 27.0607C47.2207 27.342 47.6022 27.5 48 27.5H54C54.3978 27.5 54.7794 27.342 55.0607 27.0607C55.342 26.7794 55.5 26.3978 55.5 26V20C55.5 19.6022 55.342 19.2206 55.0607 18.9393C54.7794 18.658 54.3978 18.5 54 18.5ZM47 6.5C47.2967 6.5 47.5867 6.58798 47.8334 6.7528C48.08 6.91762 48.2723 7.15189 48.3858 7.42598C48.4994 7.70007 48.5291 8.00167 48.4712 8.29264C48.4133 8.58361 48.2704 8.85088 48.0607 9.06066C47.8509 9.27044 47.5836 9.4133 47.2926 9.47118C47.0017 9.52906 46.7001 9.49935 46.426 9.38582C46.1519 9.27229 45.9176 9.08003 45.7528 8.83336C45.588 8.58668 45.5 8.29668 45.5 8C45.5 7.60218 45.658 7.22065 45.9393 6.93934C46.2207 6.65804 46.6022 6.5 47 6.5ZM66.5 19.7575V13.8288C66.5013 13.3689 66.4114 12.9134 66.2355 12.4886C66.0595 12.0637 65.8011 11.678 65.475 11.3538L61.625 7.5H64C64.3978 7.5 64.7794 7.34197 65.0607 7.06066C65.342 6.77936 65.5 6.39783 65.5 6C65.5 5.60218 65.342 5.22065 65.0607 4.93934C64.7794 4.65804 64.3978 4.5 64 4.5H58C57.6022 4.5 57.2207 4.65804 56.9394 4.93934C56.658 5.22065 56.5 5.60218 56.5 6V12C56.5 12.3978 56.658 12.7794 56.9394 13.0607C57.2207 13.342 57.6022 13.5 58 13.5C58.3978 13.5 58.7794 13.342 59.0607 13.0607C59.342 12.7794 59.5 12.3978 59.5 12V9.625L63.3538 13.4788C63.4002 13.5252 63.437 13.5804 63.4621 13.6411C63.4872 13.7018 63.5001 13.7668 63.5 13.8325V19.7613C62.4992 20.1151 61.6557 20.8114 61.1186 21.727C60.5814 22.6426 60.3853 23.7186 60.5648 24.7649C60.7443 25.8111 61.2879 26.7602 62.0995 27.4444C62.9111 28.1286 63.9385 28.5039 65 28.5039C66.0615 28.5039 67.0889 28.1286 67.9005 27.4444C68.7121 26.7602 69.2557 25.8111 69.4352 24.7649C69.6147 23.7186 69.4186 22.6426 68.8815 21.727C68.3443 20.8114 67.5008 20.1151 66.5 19.7613V19.7575ZM65 25.5C64.7033 25.5 64.4133 25.412 64.1667 25.2472C63.92 25.0824 63.7277 24.8481 63.6142 24.574C63.5007 24.2999 63.471 23.9983 63.5288 23.7074C63.5867 23.4164 63.7296 23.1491 63.9394 22.9393C64.1491 22.7296 64.4164 22.5867 64.7074 22.5288C64.9983 22.4709 65.2999 22.5007 65.574 22.6142C65.8481 22.7277 66.0824 22.92 66.2472 23.1666C66.412 23.4133 66.5 23.7033 66.5 24C66.5 24.3978 66.342 24.7794 66.0607 25.0607C65.7794 25.342 65.3978 25.5 65 25.5Z" fill="white"/>
</g>
<defs>
<clipPath id="clip0_27_3553">
<rect width="72" height="32" rx="5" fill="white"/>
</clipPath>
</defs>
</svg>
