<svg width="72" height="32" viewBox="0 0 72 32" fill="none" xmlns="http://www.w3.org/2000/svg">
<g clip-path="url(#clip0_27_134)">
<path d="M26.0175 22.2575L16.8587 28.7275C16.6075 28.9049 16.3075 29.0001 16 29.0001C15.6925 29.0001 15.3925 28.9049 15.1412 28.7275L5.98249 22.2575C4.80611 21.4143 3.91338 20.2339 3.42234 18.8724C2.93131 17.5109 2.86511 16.0324 3.23249 14.6325L5.71874 5.125C5.7979 4.81606 5.97394 4.54059 6.22106 4.33899C6.46818 4.13738 6.77338 4.02023 7.09193 4.00472C7.41048 3.9892 7.72562 4.07613 7.99117 4.25277C8.25671 4.42941 8.45869 4.68646 8.56749 4.98625L10.7775 11H21.2225L23.4325 4.98375C23.5415 4.68401 23.7437 4.42708 24.0094 4.25064C24.2752 4.07419 24.5904 3.98752 24.909 4.00331C25.2276 4.01911 25.5327 4.13655 25.7796 4.33841C26.0266 4.54027 26.2024 4.81594 26.2812 5.125L28.7687 14.64C29.1344 16.039 29.0671 17.516 28.5759 18.876C28.0847 20.2359 27.1927 21.415 26.0175 22.2575Z" fill="white"/>
<path d="M69.25 14.5113L66.7662 5.00001C66.6604 4.58779 66.4253 4.22031 66.0954 3.95138C65.7656 3.68245 65.3583 3.5262 64.9332 3.50552C64.5081 3.48484 64.0876 3.60081 63.7332 3.83645C63.3788 4.07209 63.1091 4.41502 62.9637 4.81501L60.875 10.5H51.125L49.0362 4.81126C48.8905 4.41134 48.6205 4.0686 48.2659 3.83325C47.9112 3.5979 47.4905 3.48231 47.0654 3.50341C46.6403 3.52451 46.2331 3.6812 45.9035 3.95052C45.5739 4.21983 45.3392 4.58762 45.2337 5.00001L42.75 14.5113C42.3583 16.0088 42.4303 17.59 42.9563 19.0459C43.4824 20.5017 44.4378 21.7637 45.6962 22.665L54.855 29.1363C55.1908 29.373 55.5916 29.5001 56.0025 29.5001C56.4134 29.5001 56.8142 29.373 57.15 29.1363L66.3087 22.665C67.5663 21.763 68.5207 20.5008 69.0459 19.045C69.571 17.5892 69.6422 16.0083 69.25 14.5113ZM64.575 20.215L56 26.2738L47.425 20.215C46.6637 19.667 46.0866 18.901 45.7699 18.0181C45.4532 17.1352 45.4118 16.1769 45.6512 15.27L47.3262 8.85751L48.6712 12.5175C48.7772 12.8058 48.9691 13.0546 49.2211 13.2303C49.473 13.406 49.7728 13.5002 50.08 13.5H61.92C62.2272 13.5002 62.527 13.406 62.7789 13.2303C63.0308 13.0546 63.2228 12.8058 63.3287 12.5175L64.6737 8.85751L66.3487 15.27C66.5882 16.1769 66.5468 17.1352 66.2301 18.0181C65.9134 18.901 65.3363 19.667 64.575 20.215Z" fill="white"/>
</g>
<defs>
<clipPath id="clip0_27_134">
<rect width="72" height="32" rx="5" fill="white"/>
</clipPath>
</defs>
</svg>
