<svg width="72" height="32" viewBox="0 0 72 32" fill="none" xmlns="http://www.w3.org/2000/svg">
<g clip-path="url(#clip0_27_6600)">
<path d="M16 3C13.4288 3 10.9154 3.76244 8.77759 5.1909C6.63975 6.61935 4.97351 8.64968 3.98957 11.0251C3.00563 13.4006 2.74819 16.0144 3.2498 18.5362C3.75141 21.0579 4.98953 23.3743 6.80762 25.1924C8.6257 27.0105 10.9421 28.2486 13.4638 28.7502C15.9856 29.2518 18.5995 28.9944 20.9749 28.0104C23.3503 27.0265 25.3807 25.3603 26.8091 23.2224C28.2376 21.0846 29 18.5712 29 16C28.9964 12.5533 27.6256 9.24882 25.1884 6.81163C22.7512 4.37445 19.4467 3.00364 16 3ZM7.78626 23.3088L8.10126 23.1025C8.37632 22.9211 8.6023 22.6745 8.75909 22.3847C8.91589 22.0948 8.99864 21.7708 9.00001 21.4412L9.02626 16.9125L11.6463 13C11.6591 13.0099 11.6724 13.0191 11.6863 13.0275L14.145 14.6362C14.5571 14.9271 15.0641 15.0508 15.5638 14.9825L19.5 14.4487C19.9854 14.384 20.4302 14.1433 20.75 13.7725L23.5213 10.5525C23.8312 10.1894 24.001 9.72739 24 9.25V8.45875C25.3526 9.88974 26.2956 11.658 26.7304 13.5785C27.1651 15.499 27.0756 17.501 26.4713 19.375L24.4538 17.53C24.1733 17.2726 23.8252 17.1005 23.4503 17.0341C23.0754 16.9677 22.6894 17.0096 22.3375 17.155L18.53 18.7362C18.2116 18.8699 17.9331 19.0833 17.7211 19.3559C17.5092 19.6284 17.371 19.951 17.32 20.2925L17.0213 22.3162C16.9494 22.8034 17.0599 23.2998 17.3313 23.7106C17.6028 24.1214 18.0162 24.4176 18.4925 24.5425L21.175 25.25L21.47 25.5462C19.2795 26.8031 16.7229 27.2667 14.2305 26.8592C11.7382 26.4517 9.46235 25.1978 7.78626 23.3088Z" fill="white"/>
<path d="M56 2.5C53.33 2.5 50.7199 3.29176 48.4998 4.77516C46.2797 6.25856 44.5494 8.36697 43.5276 10.8338C42.5058 13.3006 42.2385 16.015 42.7594 18.6337C43.2803 21.2525 44.5661 23.6579 46.4541 25.5459C48.3421 27.434 50.7475 28.7197 53.3663 29.2406C55.985 29.7615 58.6994 29.4942 61.1662 28.4724C63.633 27.4506 65.7414 25.7203 67.2248 23.5002C68.7082 21.2801 69.5 18.67 69.5 16C69.496 12.4208 68.0724 8.98932 65.5416 6.45844C63.0107 3.92756 59.5792 2.50397 56 2.5ZM56 5.5C57.9427 5.49846 59.8474 6.03869 61.5 7.06V9.06L58.9738 12L55.415 12.4812L53.0775 10.95C52.8049 10.7597 52.497 10.6257 52.172 10.5559C51.847 10.486 51.5113 10.4817 51.1845 10.5431C50.8578 10.6046 50.5466 10.7306 50.2692 10.9138C49.9917 11.097 49.7536 11.3337 49.5688 11.61L46.9513 15.5225C46.678 15.9292 46.531 16.4075 46.5288 16.8975L46.5088 20.4837C45.7531 18.8836 45.4141 17.1185 45.5233 15.3523C45.6324 13.5861 46.1862 11.8762 47.1331 10.3813C48.08 8.88641 49.3894 7.65509 50.9396 6.8017C52.4897 5.94832 54.2304 5.50055 56 5.5ZM48.5513 23.3925C48.8455 23.1597 49.0836 22.8636 49.2478 22.5263C49.412 22.1889 49.4982 21.819 49.5 21.4438L49.525 17.0688L51.7838 13.6938L53.8613 15.0538C54.3755 15.414 55.0068 15.5667 55.6288 15.4812L59.5625 14.9487C60.1699 14.8665 60.726 14.5641 61.125 14.0988L63.895 10.875C64.1678 10.5557 64.3564 10.1733 64.4438 9.7625C65.355 10.9931 65.9853 12.4085 66.2903 13.9091C66.5952 15.4097 66.5674 16.9588 66.2088 18.4475L64.7913 17.1513C64.4394 16.8312 64.0039 16.6176 63.5354 16.5355C63.0669 16.4534 62.5847 16.5061 62.145 16.6875L58.3388 18.27C57.9408 18.4367 57.5924 18.7032 57.3273 19.0436C57.0622 19.384 56.8892 19.787 56.825 20.2138L56.5263 22.2388C56.4366 22.8475 56.5746 23.468 56.9138 23.9814C57.2531 24.4948 57.7698 24.8651 58.365 25.0212L60.365 25.5438C58.4132 26.4384 56.2335 26.7115 54.1212 26.326C52.009 25.9406 50.0663 24.9152 48.5563 23.3888L48.5513 23.3925ZM63.1475 23.6825L62.9438 23.4788C62.6299 23.1645 62.2382 22.9393 61.8088 22.8263L59.5588 22.2362L59.75 20.935L63 19.5837L65 21.4075C64.4909 22.248 63.8674 23.0137 63.1475 23.6825Z" fill="white"/>
</g>
<defs>
<clipPath id="clip0_27_6600">
<rect width="72" height="32" rx="5" fill="white"/>
</clipPath>
</defs>
</svg>
