<svg width="72" height="32" viewBox="0 0 72 32" fill="none" xmlns="http://www.w3.org/2000/svg">
<g clip-path="url(#clip0_27_6620)">
<path d="M6.9998 13C6.9998 11.0222 7.58629 9.08878 8.6851 7.44429C9.78392 5.7998 11.3457 4.51808 13.173 3.7612C15.0002 3.00432 17.0109 2.80629 18.9507 3.19214C20.8905 3.57799 22.6723 4.5304 24.0709 5.92893C25.4694 7.32745 26.4218 9.10928 26.8077 11.0491C27.1935 12.9889 26.9955 14.9996 26.2386 16.8268C25.4817 18.6541 24.2 20.2159 22.5555 21.3147C20.911 22.4135 18.9776 23 16.9998 23C14.3485 22.997 11.8067 21.9425 9.93202 20.0678C8.0573 18.1931 7.00278 15.6512 6.9998 13ZM25.3073 21.66C23.043 23.8399 20.0137 25.0444 16.8708 25.0145C13.7278 24.9846 10.722 23.7228 8.49947 21.5003C6.27695 19.2778 5.01515 16.272 4.98529 13.129C4.95543 9.98606 6.1599 6.95684 8.3398 4.6925C8.43314 4.59826 8.50679 4.48641 8.55649 4.36344C8.60618 4.24047 8.63091 4.10884 8.62925 3.97622C8.62758 3.8436 8.59955 3.71263 8.54679 3.59095C8.49403 3.46926 8.41758 3.35929 8.32191 3.26743C8.22624 3.17557 8.11325 3.10366 7.98952 3.05589C7.86579 3.00812 7.73379 2.98544 7.60122 2.98916C7.46864 2.99289 7.33812 3.02296 7.21728 3.07761C7.09643 3.13226 6.98766 3.21041 6.8973 3.3075C5.05648 5.22632 3.80018 7.6297 3.27538 10.2364C2.75058 12.8432 2.979 15.5455 3.9339 18.0271C4.8888 20.5088 6.53069 22.6672 8.66747 24.2498C10.8043 25.8324 13.3476 26.7738 15.9998 26.9637V29H12.9998C12.7346 29 12.4802 29.1054 12.2927 29.2929C12.1052 29.4804 11.9998 29.7348 11.9998 30C11.9998 30.2652 12.1052 30.5196 12.2927 30.7071C12.4802 30.8946 12.7346 31 12.9998 31H20.9998C21.265 31 21.5194 30.8946 21.7069 30.7071C21.8944 30.5196 21.9998 30.2652 21.9998 30C21.9998 29.7348 21.8944 29.4804 21.7069 29.2929C21.5194 29.1054 21.265 29 20.9998 29H17.9998V26.965C21.2613 26.7397 24.3391 25.3721 26.6923 23.1025C26.7894 23.0121 26.8675 22.9034 26.9222 22.7825C26.9768 22.6617 27.0069 22.5312 27.0106 22.3986C27.0144 22.266 26.9917 22.134 26.9439 22.0103C26.8961 21.8865 26.8242 21.7736 26.7324 21.6779C26.6405 21.5822 26.5305 21.5058 26.4088 21.453C26.2872 21.4002 26.1562 21.3722 26.0236 21.3705C25.891 21.3689 25.7593 21.3936 25.6364 21.4433C25.5134 21.493 25.4015 21.5667 25.3073 21.66Z" fill="white"/>
<path d="M57.0005 22C58.7806 22 60.5206 21.4722 62.0007 20.4832C63.4807 19.4943 64.6343 18.0887 65.3154 16.4441C65.9966 14.7996 66.1749 12.99 65.8276 11.2442C65.4803 9.49836 64.6232 7.89471 63.3645 6.63604C62.1058 5.37736 60.5022 4.5202 58.7563 4.17293C57.0105 3.82566 55.2009 4.00389 53.5564 4.68508C51.9118 5.36627 50.5062 6.51982 49.5173 7.99987C48.5284 9.47991 48.0005 11.22 48.0005 13C48.0032 15.3861 48.9522 17.6738 50.6395 19.361C52.3267 21.0483 54.6144 21.9974 57.0005 22ZM57.0005 7C58.1872 7 59.3473 7.35189 60.334 8.01118C61.3206 8.67047 62.0897 9.60754 62.5438 10.7039C62.9979 11.8003 63.1168 13.0067 62.8852 14.1705C62.6537 15.3344 62.0823 16.4035 61.2432 17.2426C60.4041 18.0818 59.335 18.6532 58.1711 18.8847C57.0072 19.1162 55.8008 18.9974 54.7044 18.5433C53.6081 18.0891 52.671 17.3201 52.0117 16.3334C51.3524 15.3467 51.0005 14.1867 51.0005 13C51.0022 11.4092 51.6349 9.88404 52.7597 8.75918C53.8846 7.63432 55.4097 7.00165 57.0005 7ZM58.5005 26.9187V28.5H61.0005C61.3984 28.5 61.7799 28.658 62.0612 28.9393C62.3425 29.2206 62.5005 29.6022 62.5005 30C62.5005 30.3978 62.3425 30.7794 62.0612 31.0607C61.7799 31.342 61.3984 31.5 61.0005 31.5H53.0005C52.6027 31.5 52.2212 31.342 51.9399 31.0607C51.6586 30.7794 51.5005 30.3978 51.5005 30C51.5005 29.6022 51.6586 29.2206 51.9399 28.9393C52.2212 28.658 52.6027 28.5 53.0005 28.5H55.5005V26.92C52.9191 26.6419 50.4658 25.6514 48.4149 24.0593C46.3639 22.4671 44.7962 20.3359 43.8868 17.904C42.9774 15.4721 42.7622 12.8351 43.2653 10.2879C43.7684 7.74074 44.9699 5.38362 46.7355 3.48C46.8682 3.33087 47.0293 3.20973 47.2094 3.12368C47.3895 3.03762 47.585 2.98837 47.7844 2.97883C47.9838 2.96928 48.1831 2.99963 48.3706 3.06808C48.5581 3.13654 48.73 3.24173 48.8764 3.3775C49.0227 3.51326 49.1404 3.67687 49.2227 3.85873C49.305 4.04058 49.3502 4.23704 49.3556 4.43658C49.361 4.63611 49.3265 4.83472 49.2542 5.02076C49.1818 5.2068 49.0731 5.37653 48.9343 5.52C46.9938 7.60564 45.9381 10.3628 45.9894 13.2111C46.0407 16.0594 47.1951 18.7767 49.2095 20.7911C51.2238 22.8054 53.9411 23.9598 56.7894 24.0111C59.6377 24.0624 62.3949 23.0067 64.4805 21.0662C64.624 20.9275 64.7937 20.8187 64.9798 20.7464C65.1658 20.674 65.3644 20.6395 65.5639 20.6449C65.7635 20.6503 65.9599 20.6955 66.1418 20.7778C66.3237 20.8601 66.4873 20.9778 66.623 21.1242C66.7588 21.2705 66.864 21.4425 66.9324 21.63C67.0009 21.8175 67.0312 22.0167 67.0217 22.2161C67.0122 22.4155 66.9629 22.611 66.8768 22.7911C66.7908 22.9712 66.6697 23.1323 66.5205 23.265C64.3127 25.3182 61.4987 26.6003 58.5005 26.9187Z" fill="white"/>
</g>
<defs>
<clipPath id="clip0_27_6620">
<rect width="72" height="32" rx="5" fill="white"/>
</clipPath>
</defs>
</svg>
