<svg width="72" height="32" viewBox="0 0 72 32" fill="none" xmlns="http://www.w3.org/2000/svg">
<g clip-path="url(#clip0_27_6595)">
<path d="M16 3C13.4288 3 10.9154 3.76244 8.77759 5.1909C6.63975 6.61935 4.97351 8.64968 3.98957 11.0251C3.00563 13.4006 2.74819 16.0144 3.2498 18.5362C3.75141 21.0579 4.98953 23.3743 6.80762 25.1924C8.6257 27.0105 10.9421 28.2486 13.4638 28.7502C15.9856 29.2518 18.5995 28.9944 20.9749 28.0104C23.3503 27.0265 25.3807 25.3603 26.8091 23.2224C28.2376 21.0846 29 18.5712 29 16C28.996 12.5534 27.6251 9.24911 25.188 6.812C22.7509 4.37488 19.4466 3.00397 16 3ZM25.795 11H21.3388C20.7776 8.94113 19.8318 7.00709 18.5513 5.3C20.0984 5.67166 21.5469 6.37347 22.7974 7.35732C24.0479 8.34117 25.0709 9.58379 25.7963 11H25.795ZM27 16C27.0009 17.0145 26.8608 18.0241 26.5838 19H21.77C22.0767 17.0118 22.0767 14.9882 21.77 13H26.5838C26.8608 13.9759 27.0009 14.9855 27 16ZM16 5.375C17.4974 6.97815 18.609 8.90204 19.25 11H12.75C13.3904 8.90176 14.502 6.97773 16 5.375ZM12.75 21H19.25C18.6096 23.0982 17.498 25.0223 16 26.625C14.5026 25.0218 13.391 23.098 12.75 21ZM12.2625 19C11.9192 17.0147 11.9192 14.9853 12.2625 13H19.7475C20.0908 14.9853 20.0908 17.0147 19.7475 19H12.2625ZM18.5563 26.7C19.8368 24.9929 20.7826 23.0589 21.3438 21H25.8013C25.0754 22.4168 24.0516 23.6597 22.8002 24.6436C21.5488 25.6275 20.0993 26.329 18.5513 26.7H18.5563Z" fill="white"/>
<path d="M56 2.5C53.33 2.5 50.7199 3.29176 48.4998 4.77516C46.2797 6.25856 44.5494 8.36697 43.5276 10.8338C42.5058 13.3006 42.2385 16.015 42.7594 18.6337C43.2803 21.2525 44.5661 23.6579 46.4541 25.5459C48.3421 27.434 50.7475 28.7197 53.3663 29.2406C55.985 29.7615 58.6994 29.4942 61.1662 28.4724C63.633 27.4506 65.7414 25.7203 67.2248 23.5002C68.7082 21.2801 69.5 18.67 69.5 16C69.496 12.4208 68.0724 8.98932 65.5416 6.45844C63.0107 3.92756 59.5792 2.50397 56 2.5ZM56 25.875C54.8947 24.5814 54.0314 23.0995 53.4513 21.5H58.5538C58.2236 22.4045 57.8049 23.2741 57.3038 24.0963C56.9181 24.7235 56.4821 25.3184 56 25.875ZM52.6888 18.5C52.4413 16.8425 52.4413 15.1575 52.6888 13.5H59.3138C59.5613 15.1575 59.5613 16.8425 59.3138 18.5H52.6888ZM45.5 16C45.5 15.1575 45.602 14.318 45.8038 13.5H49.6563C49.4479 15.1602 49.4479 16.8398 49.6563 18.5H45.8038C45.602 17.682 45.5 16.8425 45.5 16ZM56 6.125C57.1053 7.41855 57.9686 8.90052 58.5488 10.5H53.4488C53.7789 9.59553 54.1976 8.72589 54.6988 7.90375C55.0836 7.27655 55.5188 6.68167 56 6.125ZM62.3413 13.5H66.1938C66.5988 15.1421 66.5988 16.8579 66.1938 18.5H62.3438C62.5521 16.8398 62.5521 15.1602 62.3438 13.5H62.3413ZM64.9375 10.5H61.7138C61.2633 8.98797 60.6117 7.54337 59.7763 6.205C61.9189 7.03678 63.7318 8.5447 64.94 10.5H64.9375ZM52.2238 6.205C51.3884 7.54337 50.7367 8.98797 50.2863 10.5H47.06C48.2682 8.5447 50.0811 7.03678 52.2238 6.205ZM47.06 21.5H50.2863C50.7367 23.012 51.3884 24.4566 52.2238 25.795C50.0811 24.9632 48.2682 23.4553 47.06 21.5ZM59.7763 25.795C60.6117 24.4566 61.2633 23.012 61.7138 21.5H64.94C63.7318 23.4553 61.9189 24.9632 59.7763 25.795Z" fill="white"/>
</g>
<defs>
<clipPath id="clip0_27_6595">
<rect width="72" height="32" rx="5" fill="white"/>
</clipPath>
</defs>
</svg>
