<svg width="72" height="32" viewBox="0 0 72 32" fill="none" xmlns="http://www.w3.org/2000/svg">
<g clip-path="url(#clip0_27_6625)">
<path d="M16 3C12.5522 3 9.24558 4.36964 6.80761 6.80761C4.36964 9.24558 3 12.5522 3 16C3 19.4478 4.36964 22.7544 6.80761 25.1924C9.24558 27.6304 12.5522 29 16 29C16.2061 28.9989 16.4069 28.9341 16.5748 28.8145C16.7427 28.6949 16.8695 28.5264 16.9379 28.3319C17.0063 28.1375 17.013 27.9267 16.957 27.7283C16.901 27.5299 16.785 27.3537 16.625 27.2237C16.485 27.11 14.015 25.0588 12.7425 21.0025H15.9925C16.2577 21.0025 16.5121 20.8971 16.6996 20.7096C16.8871 20.5221 16.9925 20.2677 16.9925 20.0025C16.9925 19.7373 16.8871 19.4829 16.6996 19.2954C16.5121 19.1079 16.2577 19.0025 15.9925 19.0025H12.26C11.915 17.0174 11.915 14.9876 12.26 13.0025H19.745C19.9171 13.9923 20.0025 14.9953 20 16C20 16.2652 20.1054 16.5196 20.2929 16.7071C20.4804 16.8946 20.7348 17 21 17C21.2652 17 21.5196 16.8946 21.7071 16.7071C21.8946 16.5196 22 16.2652 22 16C22.0014 14.9955 21.9245 13.9925 21.77 13H26.5837C26.8608 13.9759 27.0009 14.9855 27 16C27 16.2652 27.1054 16.5196 27.2929 16.7071C27.4804 16.8946 27.7348 17 28 17C28.2652 17 28.5196 16.8946 28.7071 16.7071C28.8946 16.5196 29 16.2652 29 16C28.9964 12.5533 27.6256 9.24882 25.1884 6.81163C22.7512 4.37445 19.4467 3.00364 16 3ZM12.75 11C13.3904 8.90176 14.502 6.97773 16 5.375C17.4974 6.97815 18.609 8.90204 19.25 11H12.75ZM21.3438 11C20.7826 8.94113 19.8368 7.00709 18.5562 5.3C20.1043 5.67101 21.5538 6.37252 22.8052 7.3564C24.0566 8.34028 25.0804 9.58324 25.8062 11H21.3438ZM27.7125 21.7075L25.4137 24L27.7075 26.2925C27.8004 26.3854 27.8741 26.4957 27.9244 26.6171C27.9747 26.7385 28.0006 26.8686 28.0006 27C28.0006 27.1314 27.9747 27.2615 27.9244 27.3829C27.8741 27.5043 27.8004 27.6146 27.7075 27.7075C27.6146 27.8004 27.5043 27.8741 27.3829 27.9244C27.2615 27.9747 27.1314 28.0006 27 28.0006C26.8686 28.0006 26.7385 27.9747 26.6171 27.9244C26.4957 27.8741 26.3854 27.8004 26.2925 27.7075L24 25.4137L21.7075 27.7075C21.5199 27.8951 21.2654 28.0006 21 28.0006C20.7346 28.0006 20.4801 27.8951 20.2925 27.7075C20.1049 27.5199 19.9994 27.2654 19.9994 27C19.9994 26.7346 20.1049 26.4801 20.2925 26.2925L22.5863 24L20.2925 21.7075C20.1049 21.5199 19.9994 21.2654 19.9994 21C19.9994 20.7346 20.1049 20.4801 20.2925 20.2925C20.4801 20.1049 20.7346 19.9994 21 19.9994C21.2654 19.9994 21.5199 20.1049 21.7075 20.2925L24 22.5863L26.2925 20.2925C26.4801 20.1049 26.7346 19.9994 27 19.9994C27.2654 19.9994 27.5199 20.1049 27.7075 20.2925C27.8951 20.4801 28.0006 20.7346 28.0006 21C28.0006 21.2654 27.8951 21.5199 27.7075 21.7075H27.7125Z" fill="white"/>
<path d="M56 2.5C52.4196 2.5 48.9858 3.92232 46.4541 6.45406C43.9223 8.9858 42.5 12.4196 42.5 16C42.5 19.5804 43.9223 23.0142 46.4541 25.5459C48.9858 28.0777 52.4196 29.5 56 29.5C56.3107 29.4998 56.6138 29.4031 56.8672 29.2233C57.1206 29.0435 57.3119 28.7894 57.4147 28.4961C57.5175 28.2029 57.5267 27.885 57.441 27.5863C57.3552 27.2876 57.1789 27.0229 56.9363 26.8288C56.905 26.8038 54.7425 25.03 53.4487 21.5H56C56.3978 21.5 56.7794 21.342 57.0607 21.0607C57.342 20.7794 57.5 20.3978 57.5 20C57.5 19.6022 57.342 19.2206 57.0607 18.9393C56.7794 18.658 56.3978 18.5 56 18.5H52.685C52.4383 16.8425 52.4383 15.1575 52.685 13.5H59.31C59.4358 14.3274 59.4993 15.1631 59.5 16C59.5 16.3978 59.658 16.7794 59.9393 17.0607C60.2206 17.342 60.6022 17.5 61 17.5C61.3978 17.5 61.7794 17.342 62.0607 17.0607C62.342 16.7794 62.5 16.3978 62.5 16C62.5005 15.1642 62.4483 14.3292 62.3438 13.5H66.1963C66.398 14.318 66.5 15.1575 66.5 16C66.5 16.3978 66.658 16.7794 66.9393 17.0607C67.2206 17.342 67.6022 17.5 68 17.5C68.3978 17.5 68.7794 17.342 69.0607 17.0607C69.342 16.7794 69.5 16.3978 69.5 16C69.496 12.4208 68.0724 8.98932 65.5416 6.45844C63.0107 3.92756 59.5792 2.50397 56 2.5ZM52.2238 6.205C51.3884 7.54337 50.7367 8.98797 50.2863 10.5H47.06C48.2678 8.54439 50.0808 7.03638 52.2238 6.205ZM52.2238 25.795C50.0808 24.9636 48.2678 23.4556 47.06 21.5H50.2863C50.7367 23.012 51.3884 24.4566 52.2238 25.795ZM49.6562 18.5H45.8038C45.3988 16.8579 45.3988 15.1421 45.8038 13.5H49.6562C49.4479 15.1602 49.4479 16.8398 49.6562 18.5ZM53.4487 10.5C53.7786 9.59542 54.1974 8.72576 54.6987 7.90375C55.0832 7.27628 55.5184 6.68137 56 6.125C57.1057 7.41823 57.9691 8.90029 58.5487 10.5H53.4487ZM61.7138 10.5C61.2633 8.98797 60.6116 7.54337 59.7763 6.205C61.9192 7.03638 63.7322 8.54439 64.94 10.5H61.7138ZM68.0613 22.0613L66.125 24L68.065 25.9387C68.2045 26.0783 68.3152 26.2439 68.3907 26.4262C68.4662 26.6085 68.5051 26.8039 68.5051 27.0012C68.5051 27.1986 68.4662 27.394 68.3907 27.5763C68.3152 27.7586 68.2045 27.9242 68.065 28.0637C67.9255 28.2033 67.7598 28.314 67.5775 28.3895C67.3952 28.465 67.1998 28.5039 67.0025 28.5039C66.8052 28.5039 66.6098 28.465 66.4275 28.3895C66.2452 28.314 66.0795 28.2033 65.94 28.0637L64 26.125L62.0613 28.065C61.7795 28.3468 61.3973 28.5051 60.9988 28.5051C60.6002 28.5051 60.218 28.3468 59.9363 28.065C59.6545 27.7832 59.4961 27.401 59.4961 27.0025C59.4961 26.604 59.6545 26.2218 59.9363 25.94L61.875 24L59.935 22.0613C59.6532 21.7795 59.4949 21.3973 59.4949 20.9988C59.4949 20.6002 59.6532 20.218 59.935 19.9363C60.2168 19.6545 60.599 19.4961 60.9975 19.4961C61.396 19.4961 61.7782 19.6545 62.06 19.9363L64 21.875L65.9387 19.935C66.0783 19.7955 66.2439 19.6848 66.4262 19.6093C66.6085 19.5338 66.8039 19.4949 67.0012 19.4949C67.1986 19.4949 67.394 19.5338 67.5763 19.6093C67.7586 19.6848 67.9242 19.7955 68.0637 19.935C68.2033 20.0745 68.314 20.2402 68.3895 20.4225C68.465 20.6048 68.5039 20.8002 68.5039 20.9975C68.5039 21.1948 68.465 21.3902 68.3895 21.5725C68.314 21.7548 68.2033 21.9205 68.0637 22.06L68.0613 22.0613Z" fill="white"/>
</g>
<defs>
<clipPath id="clip0_27_6625">
<rect width="72" height="32" rx="5" fill="white"/>
</clipPath>
</defs>
</svg>
