<svg width="72" height="32" viewBox="0 0 72 32" fill="none" xmlns="http://www.w3.org/2000/svg">
<g clip-path="url(#clip0_27_6615)">
<path d="M27.7075 21.7075L25.4138 24L27.7075 26.2925C27.8004 26.3854 27.8741 26.4957 27.9244 26.6171C27.9747 26.7385 28.0006 26.8686 28.0006 27C28.0006 27.1314 27.9747 27.2615 27.9244 27.3829C27.8741 27.5043 27.8004 27.6146 27.7075 27.7075C27.6146 27.8004 27.5043 27.8741 27.3829 27.9244C27.2615 27.9747 27.1314 28.0006 27 28.0006C26.8686 28.0006 26.7385 27.9747 26.6171 27.9244C26.4957 27.8741 26.3854 27.8004 26.2925 27.7075L24 25.4138L21.7075 27.7075C21.5199 27.8951 21.2654 28.0006 21 28.0006C20.7346 28.0006 20.4801 27.8951 20.2925 27.7075C20.1049 27.5199 19.9994 27.2654 19.9994 27C19.9994 26.7346 20.1049 26.4801 20.2925 26.2925L22.5863 24L20.2925 21.7075C20.1049 21.5199 19.9994 21.2654 19.9994 21C19.9994 20.7346 20.1049 20.4801 20.2925 20.2925C20.4801 20.1049 20.7346 19.9994 21 19.9994C21.2654 19.9994 21.5199 20.1049 21.7075 20.2925L24 22.5863L26.2925 20.2925C26.4801 20.1049 26.7346 19.9994 27 19.9994C27.2654 19.9994 27.5199 20.1049 27.7075 20.2925C27.8951 20.4801 28.0006 20.7346 28.0006 21C28.0006 21.2654 27.8951 21.5199 27.7075 21.7075ZM29 16C29 16.2652 28.8946 16.5196 28.7071 16.7071C28.5196 16.8946 28.2652 17 28 17H12.0313C12.4063 23.7163 16.4475 27.075 16.6275 27.2213C16.7887 27.3511 16.9056 27.5277 16.9621 27.7268C17.0187 27.9258 17.0121 28.1375 16.9432 28.3327C16.8744 28.5278 16.7467 28.6968 16.5777 28.8164C16.4088 28.9359 16.2069 29 16 29C13.4288 29 10.9154 28.2376 8.77759 26.8091C6.63975 25.3807 4.97351 23.3503 3.98957 20.9749C3.00563 18.5995 2.74819 15.9856 3.2498 13.4638C3.75141 10.9421 4.98953 8.6257 6.80762 6.80762C8.6257 4.98953 10.9421 3.75141 13.4638 3.2498C15.9856 2.74819 18.5995 3.00563 20.9749 3.98957C23.3503 4.97351 25.3807 6.63975 26.8091 8.77759C28.2376 10.9154 29 13.4288 29 16ZM18.5513 5.30001C19.9925 7.20876 21.75 10.4363 21.9738 15H26.9538C26.741 12.7084 25.8164 10.5408 24.3095 8.80128C22.8026 7.06172 20.7891 5.8374 18.5513 5.30001ZM12.0288 15H19.9713C19.6825 9.80001 17.1938 6.61251 16 5.37501C14.8075 6.61126 12.3175 9.79876 12.0288 15Z" fill="white"/>
<path d="M68.0613 22.0613L66.125 24L68.065 25.9388C68.2045 26.0783 68.3152 26.2439 68.3907 26.4262C68.4662 26.6085 68.5051 26.8039 68.5051 27.0013C68.5051 27.1986 68.4662 27.394 68.3907 27.5763C68.3152 27.7586 68.2045 27.9242 68.065 28.0638C67.9255 28.2033 67.7598 28.314 67.5775 28.3895C67.3952 28.465 67.1998 28.5039 67.0025 28.5039C66.8052 28.5039 66.6098 28.465 66.4275 28.3895C66.2452 28.314 66.0795 28.2033 65.94 28.0638L64 26.125L62.0613 28.065C61.7795 28.3468 61.3973 28.5051 60.9988 28.5051C60.6002 28.5051 60.218 28.3468 59.9363 28.065C59.6545 27.7832 59.4962 27.401 59.4962 27.0025C59.4962 26.604 59.6545 26.2218 59.9363 25.94L61.875 24L59.935 22.0613C59.6532 21.7795 59.4949 21.3973 59.4949 20.9988C59.4949 20.6002 59.6532 20.218 59.935 19.9363C60.2168 19.6545 60.599 19.4962 60.9975 19.4962C61.396 19.4962 61.7782 19.6545 62.06 19.9363L64 21.875L65.9388 19.935C66.0783 19.7955 66.2439 19.6848 66.4262 19.6093C66.6085 19.5338 66.8039 19.4949 67.0013 19.4949C67.1986 19.4949 67.394 19.5338 67.5763 19.6093C67.7586 19.6848 67.9242 19.7955 68.0638 19.935C68.2033 20.0745 68.314 20.2402 68.3895 20.4225C68.465 20.6048 68.5039 20.8002 68.5039 20.9975C68.5039 21.1948 68.465 21.3902 68.3895 21.5725C68.314 21.7548 68.2033 21.9205 68.0638 22.06L68.0613 22.0613ZM69.5 16C69.5 16.3978 69.342 16.7794 69.0607 17.0607C68.7794 17.342 68.3978 17.5 68 17.5H52.5675C53.1138 23.695 56.8963 26.7963 56.9425 26.8288C57.1856 27.0232 57.3621 27.2885 57.4477 27.5878C57.5332 27.8871 57.5235 28.2056 57.4199 28.4991C57.3164 28.7927 57.124 29.0467 56.8696 29.226C56.6152 29.4054 56.3113 29.5011 56 29.5C53.33 29.5 50.7199 28.7082 48.4998 27.2248C46.2797 25.7414 44.5494 23.633 43.5276 21.1662C42.5058 18.6994 42.2385 15.985 42.7594 13.3663C43.2803 10.7475 44.5661 8.34207 46.4541 6.45406C48.3421 4.56606 50.7475 3.28031 53.3663 2.7594C55.985 2.2385 58.6994 2.50585 61.1662 3.52763C63.633 4.54942 65.7414 6.27974 67.2248 8.49981C68.7082 10.7199 69.5 13.33 69.5 16ZM59.7763 6.20501C61.3304 8.71035 62.2467 11.5585 62.445 14.5H66.3913C66.1218 12.6555 65.3673 10.9157 64.2051 9.45826C63.0429 8.00086 61.5145 6.8782 59.7763 6.20501ZM54.705 7.90376C53.4856 9.90477 52.753 12.1642 52.5663 14.5H59.4338C59.0588 10.2625 57.1725 7.47251 56.0025 6.12501C55.5222 6.68152 55.0882 7.27642 54.705 7.90376ZM45.6088 14.5H49.555C49.7533 11.5585 50.6696 8.71035 52.2238 6.20501C50.4855 6.8782 48.9571 8.00086 47.7949 9.45826C46.6327 10.9157 45.8783 12.6555 45.6088 14.5ZM49.555 17.5H45.6088C45.8783 19.3445 46.6327 21.0844 47.7949 22.5418C48.9571 23.9991 50.4855 25.1218 52.2238 25.795C50.6696 23.2897 49.7533 20.4416 49.555 17.5Z" fill="white"/>
</g>
<defs>
<clipPath id="clip0_27_6615">
<rect width="72" height="32" rx="5" fill="white"/>
</clipPath>
</defs>
</svg>
