<svg width="72" height="32" viewBox="0 0 72 32" fill="none" xmlns="http://www.w3.org/2000/svg">
<g clip-path="url(#clip0_27_6605)">
<path d="M16 3C13.4288 3 10.9154 3.76244 8.77759 5.1909C6.63975 6.61935 4.97351 8.64968 3.98957 11.0251C3.00563 13.4006 2.74819 16.0144 3.2498 18.5362C3.75141 21.0579 4.98953 23.3743 6.80762 25.1924C8.6257 27.0105 10.9421 28.2486 13.4638 28.7502C15.9856 29.2518 18.5995 28.9944 20.9749 28.0104C23.3503 27.0265 25.3807 25.3603 26.8091 23.2224C28.2376 21.0846 29 18.5712 29 16C28.9964 12.5533 27.6256 9.24882 25.1884 6.81163C22.7512 4.37445 19.4467 3.00364 16 3ZM27 16C27.0011 17.4112 26.7295 18.8094 26.2 20.1175L20.6125 16.6812C20.3749 16.5347 20.1092 16.4397 19.8325 16.4025L16.98 16.0175C16.5869 15.9662 16.1875 16.0321 15.8317 16.2069C15.476 16.3817 15.1797 16.6576 14.98 17H13.89L13.415 16.0175C13.2837 15.7439 13.0915 15.504 12.8532 15.3162C12.6148 15.1283 12.3367 14.9975 12.04 14.9338L11.04 14.7175L12.0175 13H14.1063C14.4442 12.9993 14.7766 12.9133 15.0725 12.75L16.6038 11.905C16.7383 11.83 16.8641 11.7403 16.9788 11.6375L20.3425 8.595C20.6798 8.29277 20.9039 7.8846 20.978 7.43784C21.0521 6.99108 20.9717 6.53241 20.75 6.1375L20.705 6.05625C22.5873 6.94875 24.1778 8.35674 25.292 10.1168C26.4063 11.8769 26.9985 13.9169 27 16ZM5.00001 16C4.99834 14.365 5.36311 12.7505 6.06751 11.275L7.48501 15.0588C7.60313 15.372 7.79802 15.6506 8.0518 15.869C8.30558 16.0874 8.61012 16.2386 8.93751 16.3088L11.6163 16.885L12.0925 17.875C12.2578 18.2117 12.5139 18.4955 12.832 18.6943C13.1501 18.8931 13.5174 18.999 13.8925 19H14.0775L13.1738 21.0287C13.0145 21.386 12.9635 21.782 13.0271 22.168C13.0906 22.5539 13.2659 22.9127 13.5313 23.2L13.5488 23.2175L16 25.7425L15.7575 26.9925C12.8848 26.9256 10.152 25.7387 8.14216 23.685C6.13236 21.6313 5.00477 18.8735 5.00001 16Z" fill="white"/>
<path d="M56 2.5C53.33 2.5 50.7199 3.29176 48.4998 4.77516C46.2797 6.25856 44.5494 8.36697 43.5276 10.8338C42.5058 13.3006 42.2385 16.015 42.7594 18.6337C43.2803 21.2525 44.5661 23.6579 46.4541 25.5459C48.3421 27.434 50.7475 28.7197 53.3663 29.2406C55.985 29.7615 58.6994 29.4942 61.1662 28.4724C63.633 27.4506 65.7414 25.7203 67.2248 23.5002C68.7082 21.2801 69.5 18.67 69.5 16C69.496 12.4208 68.0724 8.98932 65.5416 6.45844C63.0107 3.92756 59.5792 2.50397 56 2.5ZM66.5 16C66.5003 17.148 66.3115 18.2883 65.9413 19.375L60.875 16.25C60.5784 16.0662 60.246 15.9478 59.9 15.9025L57.0475 15.5175C56.6066 15.4607 56.1585 15.5217 55.7488 15.6943C55.3391 15.8669 54.9824 16.1449 54.715 16.5H54.2063L53.8675 15.8C53.7028 15.4572 53.4617 15.1568 53.1626 14.9219C52.8635 14.6869 52.5145 14.5238 52.1425 14.445L51.8075 14.375L52.3075 13.5H54.1063C54.5286 13.4999 54.944 13.3928 55.3138 13.1888L56.845 12.3438C57.0129 12.2499 57.1697 12.1375 57.3125 12.0087L60.6775 8.9675C60.9432 8.72723 61.1541 8.43268 61.296 8.10379C61.4379 7.77491 61.5075 7.41937 61.5 7.06125C63.0272 8.00037 64.2886 9.31492 65.1638 10.8796C66.0391 12.4444 66.4991 14.2071 66.5 16ZM57.595 5.625L58.37 7.0125L55.3438 9.75L53.9775 10.5H52.0175C51.5772 10.5005 51.1448 10.617 50.7639 10.8378C50.3829 11.0585 50.0669 11.3758 49.8475 11.7575L49.2863 12.7388L48.46 10.535L49.6988 7.6075C50.8164 6.76746 52.0907 6.15933 53.4467 5.81887C54.8027 5.47841 56.2131 5.4125 57.595 5.625ZM45.5 16C45.4997 14.8621 45.6855 13.7317 46.05 12.6538L47.0175 15.235C47.1635 15.6279 47.4064 15.9775 47.7238 16.2513C48.0411 16.5252 48.4225 16.7143 48.8325 16.8013L51.2738 17.3263L51.6488 18.0888C51.813 18.4251 52.0503 18.7205 52.3434 18.9534C52.6364 19.1863 52.9778 19.3509 53.3425 19.435L52.7175 20.825C52.5186 21.2716 52.455 21.7666 52.5345 22.2489C52.6141 22.7313 52.8333 23.1797 53.165 23.5387L53.1913 23.5662L55.4613 25.9037L55.35 26.4775C52.6842 26.3095 50.1824 25.1329 48.3529 23.1868C46.5233 21.2407 45.5033 18.6711 45.5 16ZM58.4563 26.2075C58.5273 25.8233 58.5078 25.4278 58.3993 25.0524C58.2908 24.677 58.0963 24.3321 57.8313 24.045L57.805 24.0175L55.59 21.7362L57.0113 18.5462L59.3863 18.8662L64.565 22.0513C63.0979 24.1294 60.9279 25.6058 58.4563 26.2075Z" fill="white"/>
</g>
<defs>
<clipPath id="clip0_27_6605">
<rect width="72" height="32" rx="5" fill="white"/>
</clipPath>
</defs>
</svg>
