<svg width="72" height="32" viewBox="0 0 72 32" fill="none" xmlns="http://www.w3.org/2000/svg">
<g clip-path="url(#clip0_27_6630)">
<path d="M23 8H9C6.61386 8.00265 4.32622 8.95171 2.63896 10.639C0.951708 12.3262 0.00264685 14.6139 0 17C2.32569e-05 17.6435 0.206448 18.27 0.58894 18.7875C0.971433 19.305 1.50982 19.6862 2.125 19.875C2.8825 22.4213 6.82875 24 9 24C10.1522 23.9986 11.2687 23.6 12.1613 22.8713C13.0539 22.1427 13.6679 21.1286 13.9 20H18.1C18.3321 21.1286 18.9461 22.1427 19.8387 22.8713C20.7313 23.6 21.8478 23.9986 23 24C25.1663 24 29.1125 22.4175 29.875 19.875C30.4902 19.6862 31.0286 19.305 31.4111 18.7875C31.7936 18.27 32 17.6435 32 17C31.9974 14.6139 31.0483 12.3262 29.361 10.639C27.6738 8.95171 25.3861 8.00265 23 8ZM11.125 21.125C10.9375 21.3124 10.6832 21.4177 10.4181 21.4177C10.153 21.4177 9.89877 21.3124 9.71125 21.125L6.6425 18.0562C6.46288 17.8672 6.36422 17.6154 6.36756 17.3547C6.3709 17.0939 6.47597 16.8448 6.66037 16.6604C6.84477 16.476 7.09391 16.3709 7.35468 16.3676C7.61544 16.3642 7.86719 16.4629 8.05625 16.6425L11.125 19.7062C11.2185 19.7992 11.2928 19.9097 11.3434 20.0315C11.3941 20.1532 11.4202 20.2838 11.4202 20.4156C11.4202 20.5475 11.3941 20.678 11.3434 20.7998C11.2928 20.9215 11.2185 21.0321 11.125 21.125ZM26.065 21.0637C25.8775 21.2511 25.6232 21.3564 25.3581 21.3564C25.093 21.3564 24.8388 21.2511 24.6513 21.0637L21.475 17.8888C21.2874 17.7011 21.1819 17.4466 21.1819 17.1812C21.1819 16.9159 21.2874 16.6614 21.475 16.4737C21.6626 16.2861 21.9171 16.1807 22.1825 16.1807C22.4479 16.1807 22.7024 16.2861 22.89 16.4737L26.065 19.65C26.2506 19.838 26.3542 20.0918 26.3533 20.356C26.3524 20.6202 26.2469 20.8733 26.06 21.06L26.065 21.0637ZM29.715 17.7062C28.6675 15.4062 25.0425 14 23 14C21.8478 14.0014 20.7313 14.4 19.8387 15.1287C18.9461 15.8573 18.3321 16.8714 18.1 18H13.9C13.6679 16.8714 13.0539 15.8573 12.1613 15.1287C11.2687 14.4 10.1522 14.0014 9 14C6.9575 14 3.3325 15.4062 2.29 17.7025C2.10465 17.5156 2.00045 17.2632 2 17C2.00199 15.1441 2.74012 13.3648 4.05245 12.0524C5.36477 10.7401 7.14409 10.002 9 10H23C24.8559 10.002 26.6352 10.7401 27.9476 12.0524C29.2599 13.3648 29.998 15.1441 30 17C29.9996 17.2632 29.8953 17.5156 29.71 17.7025L29.715 17.7062Z" fill="white"/>
<path d="M62.5 7.5H49.5C46.9813 7.50265 44.5664 8.50439 42.7854 10.2854C41.0044 12.0664 40.0026 14.4813 40 17V17.5C40.0002 18.0682 40.1616 18.6246 40.4657 19.1046C40.7698 19.5846 41.2039 19.9684 41.7175 20.2113C42.1112 21.3 43.0312 22.305 44.4075 23.12C45.8475 23.9713 47.6075 24.495 49 24.495C50.1966 24.4934 51.3601 24.1022 52.3146 23.3805C53.269 22.6588 53.9625 21.6459 54.29 20.495H57.71C58.0366 21.6468 58.7297 22.6609 59.6842 23.3835C60.6387 24.1062 61.8028 24.4981 63 24.5C65.3162 24.5 69.3275 22.8988 70.2887 20.2087C70.8008 19.9651 71.2334 19.5814 71.5363 19.102C71.8391 18.6225 71.9999 18.0671 72 17.5V17C71.9974 14.4813 70.9956 12.0664 69.2146 10.2854C67.4336 8.50439 65.0187 7.50265 62.5 7.5ZM49.5 10.5H62.5C64.0193 10.5021 65.4901 11.0356 66.6574 12.0082C67.8247 12.9807 68.6149 14.331 68.8913 15.825C68.4908 15.4661 68.0558 15.1479 67.5925 14.875C66.1525 14.0237 64.3925 13.5 63 13.5C61.8034 13.5016 60.6399 13.8928 59.6854 14.6145C58.731 15.3362 58.0375 16.3491 57.71 17.5H54.29C53.9625 16.3491 53.269 15.3362 52.3146 14.6145C51.3601 13.8928 50.1966 13.5016 49 13.5C47.325 13.5 44.7625 14.3387 43.1088 15.82C43.3863 14.327 44.1771 12.9781 45.3443 12.0065C46.5114 11.035 47.9814 10.5021 49.5 10.5ZM49 21.5C47.2337 21.5 44.5 19.9812 44.5 19C44.5 18.6575 44.9437 18.0487 45.935 17.4625C47.06 16.7975 48.285 16.5 49 16.5C49.663 16.5 50.2989 16.7634 50.7678 17.2322C51.2366 17.7011 51.5 18.337 51.5 19C51.5 19.663 51.2366 20.2989 50.7678 20.7678C50.2989 21.2366 49.663 21.5 49 21.5ZM66.065 20.5375C64.94 21.2025 63.715 21.5 63 21.5C62.337 21.5 61.7011 21.2366 61.2322 20.7678C60.7634 20.2989 60.5 19.663 60.5 19C60.5 18.337 60.7634 17.7011 61.2322 17.2322C61.7011 16.7634 62.337 16.5 63 16.5C64.7663 16.5 67.5 18.0188 67.5 19C67.5 19.3425 67.0562 19.9513 66.065 20.5375Z" fill="white"/>
</g>
<defs>
<clipPath id="clip0_27_6630">
<rect width="72" height="32" rx="5" fill="white"/>
</clipPath>
</defs>
</svg>
