<svg width="72" height="32" viewBox="0 0 72 32" fill="none" xmlns="http://www.w3.org/2000/svg">
<g clip-path="url(#clip0_27_4720)">
<path d="M21.9338 24.6425C22.0285 24.8901 22.0211 25.1653 21.913 25.4074C21.8049 25.6496 21.6051 25.8389 21.3575 25.9338C19.9613 26.4817 18.494 26.8273 17 26.96V31C17 31.2652 16.8946 31.5196 16.7071 31.7071C16.5196 31.8946 16.2652 32 16 32C15.7348 32 15.4804 31.8946 15.2929 31.7071C15.1054 31.5196 15 31.2652 15 31V26.96C13.506 26.8273 12.0387 26.4817 10.6425 25.9338C10.5177 25.8884 10.4031 25.8187 10.3055 25.7287C10.208 25.6386 10.1293 25.53 10.0741 25.4092C10.0189 25.2885 9.98837 25.1579 9.9842 25.0252C9.98003 24.8924 10.0023 24.7602 10.0498 24.6362C10.0973 24.5122 10.169 24.3989 10.2607 24.3029C10.3525 24.2069 10.4624 24.1301 10.5842 24.077C10.7059 24.024 10.837 23.9957 10.9697 23.9939C11.1025 23.992 11.2343 24.0166 11.3575 24.0662C13 24.695 14.5188 25 16 25C17.4813 25 19 24.695 20.6425 24.0662C20.8902 23.9715 21.1653 23.9789 21.4074 24.087C21.6496 24.1951 21.8389 24.3949 21.9338 24.6425ZM27 12C27 14.1756 26.3549 16.3023 25.1462 18.1113C23.9375 19.9202 22.2195 21.3301 20.2095 22.1627C18.1995 22.9952 15.9878 23.2131 13.854 22.7886C11.7202 22.3642 9.76021 21.3166 8.22183 19.7782C6.68345 18.2398 5.6358 16.2798 5.21137 14.146C4.78693 12.0122 5.00477 9.80047 5.83733 7.79048C6.66989 5.78049 8.07979 4.06253 9.88873 2.85383C11.6977 1.64514 13.8244 1 16 1C18.9164 1.00331 21.7123 2.1633 23.7745 4.22548C25.8367 6.28766 26.9967 9.08363 27 12ZM18 16.5C18 16.2033 17.912 15.9133 17.7472 15.6666C17.5824 15.42 17.3481 15.2277 17.074 15.1142C16.7999 15.0006 16.4983 14.9709 16.2074 15.0288C15.9164 15.0867 15.6491 15.2296 15.4393 15.4393C15.2296 15.6491 15.0867 15.9164 15.0288 16.2074C14.9709 16.4983 15.0007 16.7999 15.1142 17.074C15.2277 17.3481 15.42 17.5824 15.6666 17.7472C15.9133 17.912 16.2033 18 16.5 18C16.8978 18 17.2794 17.842 17.5607 17.5607C17.842 17.2794 18 16.8978 18 16.5ZM22 12.5C22 12.2033 21.912 11.9133 21.7472 11.6666C21.5824 11.42 21.3481 11.2277 21.074 11.1142C20.7999 11.0006 20.4983 10.9709 20.2074 11.0288C19.9164 11.0867 19.6491 11.2296 19.4393 11.4393C19.2296 11.6491 19.0867 11.9164 19.0288 12.2074C18.9709 12.4983 19.0007 12.7999 19.1142 13.074C19.2277 13.3481 19.42 13.5824 19.6666 13.7472C19.9133 13.912 20.2033 14 20.5 14C20.8978 14 21.2794 13.842 21.5607 13.5607C21.842 13.2794 22 12.8978 22 12.5Z" fill="white"/>
<path d="M62.5 12.5C62.5 12.8956 62.3827 13.2822 62.1629 13.6111C61.9432 13.94 61.6308 14.1964 61.2654 14.3478C60.8999 14.4991 60.4978 14.5387 60.1098 14.4616C59.7219 14.3844 59.3655 14.1939 59.0858 13.9142C58.8061 13.6345 58.6156 13.2781 58.5384 12.8902C58.4613 12.5022 58.5009 12.1001 58.6522 11.7346C58.8036 11.3692 59.06 11.0568 59.3889 10.8371C59.7178 10.6173 60.1044 10.5 60.5 10.5C61.0304 10.5 61.5391 10.7107 61.9142 11.0858C62.2893 11.4609 62.5 11.9696 62.5 12.5ZM56.5 14.5C56.1044 14.5 55.7178 14.6173 55.3889 14.8371C55.06 15.0568 54.8036 15.3692 54.6522 15.7346C54.5009 16.1001 54.4613 16.5022 54.5384 16.8902C54.6156 17.2781 54.8061 17.6345 55.0858 17.9142C55.3655 18.1939 55.7219 18.3844 56.1098 18.4616C56.4978 18.5387 56.8999 18.4991 57.2654 18.3478C57.6308 18.1964 57.9432 17.94 58.1629 17.6111C58.3827 17.2822 58.5 16.8956 58.5 16.5C58.5 15.9696 58.2893 15.4609 57.9142 15.0858C57.5391 14.7107 57.0304 14.5 56.5 14.5ZM67.5 12C67.5 14.2745 66.8255 16.4979 65.5619 18.3891C64.2983 20.2802 62.5022 21.7542 60.4009 22.6246C58.2995 23.495 55.9872 23.7228 53.7565 23.279C51.5257 22.8353 49.4766 21.74 47.8683 20.1317C46.26 18.5234 45.1647 16.4743 44.721 14.2435C44.2772 12.0128 44.505 9.70049 45.3754 7.59914C46.2458 5.49779 47.7198 3.70174 49.6109 2.4381C51.5021 1.17446 53.7255 0.5 56 0.5C59.049 0.503309 61.9721 1.71597 64.1281 3.87193C66.284 6.02788 67.4967 8.95103 67.5 12ZM64.5 12C64.5 10.3189 64.0015 8.67547 63.0675 7.27765C62.1335 5.87984 60.806 4.79037 59.2528 4.14702C57.6996 3.50368 55.9906 3.33535 54.3417 3.66333C52.6929 3.9913 51.1783 4.80085 49.9896 5.98959C48.8009 7.17834 47.9913 8.69289 47.6633 10.3417C47.3354 11.9906 47.5037 13.6996 48.147 15.2528C48.7904 16.806 49.8798 18.1335 51.2777 19.0675C52.6755 20.0015 54.3189 20.5 56 20.5C58.2536 20.4977 60.4143 19.6014 62.0079 18.0078C63.6014 16.4143 64.4977 14.2536 64.5 12ZM60.5 24.7325C57.5873 25.7558 54.4127 25.7558 51.5 24.7325C51.1249 24.5999 50.7125 24.6217 50.3534 24.7932C50.1757 24.8781 50.0164 24.9972 49.8846 25.1437C49.7529 25.2901 49.6513 25.4611 49.5856 25.6469C49.52 25.8326 49.4915 26.0295 49.502 26.2262C49.5124 26.4229 49.5614 26.6157 49.6463 26.7934C49.8178 27.1525 50.1249 27.4286 50.5 27.5613C51.7918 28.0181 53.1355 28.312 54.5 28.4363V30.5C54.5 30.8978 54.658 31.2794 54.9393 31.5607C55.2206 31.842 55.6022 32 56 32C56.3978 32 56.7794 31.842 57.0607 31.5607C57.342 31.2794 57.5 30.8978 57.5 30.5V28.4325C58.8645 28.3083 60.2082 28.0143 61.5 27.5575C61.8751 27.4249 62.1822 27.1487 62.3537 26.7897C62.5252 26.4307 62.547 26.0182 62.4144 25.6431C62.2818 25.268 62.0056 24.9609 61.6466 24.7895C61.2876 24.618 60.8751 24.5961 60.5 24.7288V24.7325Z" fill="white"/>
</g>
<defs>
<clipPath id="clip0_27_4720">
<rect width="72" height="32" rx="5" fill="white"/>
</clipPath>
</defs>
</svg>
