<svg width="72" height="32" viewBox="0 0 72 32" fill="none" xmlns="http://www.w3.org/2000/svg">
<g clip-path="url(#clip0_27_139)">
<path d="M25 3H7C6.46957 3 5.96086 3.21071 5.58579 3.58579C5.21071 3.96086 5 4.46957 5 5V27C5 27.5304 5.21071 28.0391 5.58579 28.4142C5.96086 28.7893 6.46957 29 7 29H25C25.5304 29 26.0391 28.7893 26.4142 28.4142C26.7893 28.0391 27 27.5304 27 27V5C27 4.46957 26.7893 3.96086 26.4142 3.58579C26.0391 3.21071 25.5304 3 25 3ZM22 20C22 21.2593 21.6038 22.4867 20.8675 23.5083C20.1311 24.5299 19.092 25.2939 17.8974 25.6921C16.7027 26.0903 15.413 26.1026 14.211 25.7271C13.009 25.3516 11.9556 24.6074 11.2 23.6C11.1212 23.4949 11.0639 23.3754 11.0313 23.2482C10.9987 23.121 10.9915 22.9886 11.0101 22.8586C11.0286 22.7286 11.0726 22.6035 11.1395 22.4905C11.2064 22.3775 11.2949 22.2788 11.4 22.2C11.5051 22.1212 11.6246 22.0639 11.7518 22.0313C11.879 21.9987 12.0114 21.9915 12.1414 22.01C12.2714 22.0286 12.3965 22.0726 12.5095 22.1395C12.6225 22.2064 12.7212 22.2949 12.8 22.4C13.3037 23.0716 14.006 23.5677 14.8073 23.8181C15.6087 24.0684 16.4685 24.0602 17.2649 23.7947C18.0614 23.5293 18.7541 23.0199 19.245 22.3388C19.7359 21.6578 20 20.8395 20 20V18.4675C19.137 19.2394 18.0691 19.7451 16.925 19.9236C15.781 20.1021 14.6098 19.9458 13.5526 19.4735C12.4955 19.0013 11.5975 18.2332 10.9672 17.2619C10.3368 16.2907 10.0009 15.1579 10 14V13C10.0009 11.8421 10.3368 10.7093 10.9672 9.73805C11.5975 8.76683 12.4955 7.99875 13.5526 7.52646C14.6098 7.05418 15.781 6.89786 16.925 7.07637C18.0691 7.25488 19.137 7.76059 20 8.5325V8C20 7.73478 20.1054 7.48043 20.2929 7.29289C20.4804 7.10536 20.7348 7 21 7C21.2652 7 21.5196 7.10536 21.7071 7.29289C21.8946 7.48043 22 7.73478 22 8V20ZM20 13V14C20 15.0609 19.5786 16.0783 18.8284 16.8284C18.0783 17.5786 17.0609 18 16 18C14.9391 18 13.9217 17.5786 13.1716 16.8284C12.4214 16.0783 12 15.0609 12 14V13C12 11.9391 12.4214 10.9217 13.1716 10.1716C13.9217 9.42143 14.9391 9 16 9C17.0609 9 18.0783 9.42143 18.8284 10.1716C19.5786 10.9217 20 11.9391 20 13Z" fill="white"/>
<path d="M63 2.5C62.6022 2.5 62.2206 2.65804 61.9393 2.93934C61.658 3.22065 61.5 3.60218 61.5 4V4.5275C60.2648 3.47517 58.754 2.79874 57.1464 2.57827C55.5387 2.3578 53.9016 2.60252 52.4287 3.28347C50.9558 3.96442 49.7088 5.05309 48.8353 6.42063C47.9619 7.78816 47.4985 9.37732 47.5 11V14C47.4985 15.6227 47.9619 17.2118 48.8353 18.5794C49.7088 19.9469 50.9558 21.0356 52.4287 21.7165C53.9016 22.3975 55.5387 22.6422 57.1464 22.4217C58.754 22.2013 60.2648 21.5248 61.5 20.4725V21C61.4983 22.4582 60.9184 23.8562 59.8873 24.8873C58.8562 25.9184 57.4582 26.4983 56 26.5C54.125 26.5 52.2138 25.5525 51.23 24.1413C51.0022 23.815 50.6542 23.5927 50.2625 23.523C49.8708 23.4534 49.4675 23.5422 49.1413 23.77C48.815 23.9978 48.5927 24.3458 48.523 24.7375C48.4534 25.1292 48.5422 25.5325 48.77 25.8588C50.3125 28.07 53.1513 29.5 56 29.5C58.2536 29.4977 60.4143 28.6014 62.0079 27.0079C63.6014 25.4143 64.4977 23.2536 64.5 21V4C64.5 3.60218 64.342 3.22065 64.0607 2.93934C63.7794 2.65804 63.3978 2.5 63 2.5ZM56 19.5C54.5418 19.4983 53.1438 18.9184 52.1127 17.8873C51.0817 16.8562 50.5017 15.4582 50.5 14V11C50.5 9.54131 51.0795 8.14236 52.1109 7.11091C53.1424 6.07946 54.5413 5.5 56 5.5C57.4587 5.5 58.8576 6.07946 59.8891 7.11091C60.9205 8.14236 61.5 9.54131 61.5 11V14C61.4983 15.4582 60.9184 16.8562 59.8873 17.8873C58.8562 18.9184 57.4582 19.4983 56 19.5Z" fill="white"/>
</g>
<defs>
<clipPath id="clip0_27_139">
<rect width="72" height="32" rx="5" fill="white"/>
</clipPath>
</defs>
</svg>
