<svg width="72" height="32" viewBox="0 0 72 32" fill="none" xmlns="http://www.w3.org/2000/svg">
<g clip-path="url(#clip0_27_169)">
<path d="M30.415 14.585L17.415 1.585C17.2292 1.39905 17.0087 1.25153 16.7659 1.15088C16.5231 1.05023 16.2628 0.998428 16 0.998428C15.7372 0.998428 15.4769 1.05023 15.2341 1.15088C14.9913 1.25153 14.7707 1.39905 14.585 1.585L1.58499 14.585C1.39903 14.7707 1.25152 14.9913 1.15087 15.2341C1.05022 15.4769 0.998413 15.7372 0.998413 16C0.998413 16.2628 1.05022 16.5231 1.15087 16.7659C1.25152 17.0087 1.39903 17.2293 1.58499 17.415L14.585 30.415C14.7707 30.601 14.9913 30.7485 15.2341 30.8491C15.4769 30.9498 15.7372 31.0016 16 31.0016C16.2628 31.0016 16.5231 30.9498 16.7659 30.8491C17.0087 30.7485 17.2292 30.601 17.415 30.415L30.415 17.415C30.6009 17.2293 30.7485 17.0087 30.8491 16.7659C30.9498 16.5231 31.0016 16.2628 31.0016 16C31.0016 15.7372 30.9498 15.4769 30.8491 15.2341C30.7485 14.9913 30.6009 14.7707 30.415 14.585ZM6.99999 17C6.99999 17.2652 6.89463 17.5196 6.70709 17.7071C6.51956 17.8946 6.2652 18 5.99999 18C5.73477 18 5.48042 17.8946 5.29288 17.7071C5.10534 17.5196 4.99999 17.2652 4.99999 17V15C4.99999 14.7348 5.10534 14.4804 5.29288 14.2929C5.48042 14.1054 5.73477 14 5.99999 14C6.2652 14 6.51956 14.1054 6.70709 14.2929C6.89463 14.4804 6.99999 14.7348 6.99999 15V17ZM12 22C12 22.2652 11.8946 22.5196 11.7071 22.7071C11.5196 22.8946 11.2652 23 11 23C10.7348 23 10.4804 22.8946 10.2929 22.7071C10.1053 22.5196 9.99999 22.2652 9.99999 22V20C9.99999 19.7348 10.1053 19.4804 10.2929 19.2929C10.4804 19.1054 10.7348 19 11 19C11.2652 19 11.5196 19.1054 11.7071 19.2929C11.8946 19.4804 12 19.7348 12 20V22ZM12 16C12 16.2652 11.8946 16.5196 11.7071 16.7071C11.5196 16.8946 11.2652 17 11 17C10.7348 17 10.4804 16.8946 10.2929 16.7071C10.1053 16.5196 9.99999 16.2652 9.99999 16V10C9.99999 9.73479 10.1053 9.48043 10.2929 9.2929C10.4804 9.10536 10.7348 9 11 9C11.2652 9 11.5196 9.10536 11.7071 9.2929C11.8946 9.48043 12 9.73479 12 10V16ZM17 27C17 27.2652 16.8946 27.5196 16.7071 27.7071C16.5196 27.8946 16.2652 28 16 28C15.7348 28 15.4804 27.8946 15.2929 27.7071C15.1053 27.5196 15 27.2652 15 27V25C15 24.7348 15.1053 24.4804 15.2929 24.2929C15.4804 24.1054 15.7348 24 16 24C16.2652 24 16.5196 24.1054 16.7071 24.2929C16.8946 24.4804 17 24.7348 17 25V27ZM17 21C17 21.2652 16.8946 21.5196 16.7071 21.7071C16.5196 21.8946 16.2652 22 16 22C15.7348 22 15.4804 21.8946 15.2929 21.7071C15.1053 21.5196 15 21.2652 15 21V11C15 10.7348 15.1053 10.4804 15.2929 10.2929C15.4804 10.1054 15.7348 10 16 10C16.2652 10 16.5196 10.1054 16.7071 10.2929C16.8946 10.4804 17 10.7348 17 11V21ZM17 7C17 7.26522 16.8946 7.51957 16.7071 7.70711C16.5196 7.89464 16.2652 8 16 8C15.7348 8 15.4804 7.89464 15.2929 7.70711C15.1053 7.51957 15 7.26522 15 7V5C15 4.73479 15.1053 4.48043 15.2929 4.2929C15.4804 4.10536 15.7348 4 16 4C16.2652 4 16.5196 4.10536 16.7071 4.2929C16.8946 4.48043 17 4.73479 17 5V7ZM22 22C22 22.2652 21.8946 22.5196 21.7071 22.7071C21.5196 22.8946 21.2652 23 21 23C20.7348 23 20.4804 22.8946 20.2929 22.7071C20.1053 22.5196 20 22.2652 20 22V16C20 15.7348 20.1053 15.4804 20.2929 15.2929C20.4804 15.1054 20.7348 15 21 15C21.2652 15 21.5196 15.1054 21.7071 15.2929C21.8946 15.4804 22 15.7348 22 16V22ZM22 12C22 12.2652 21.8946 12.5196 21.7071 12.7071C21.5196 12.8946 21.2652 13 21 13C20.7348 13 20.4804 12.8946 20.2929 12.7071C20.1053 12.5196 20 12.2652 20 12V10C20 9.73479 20.1053 9.48043 20.2929 9.2929C20.4804 9.10536 20.7348 9 21 9C21.2652 9 21.5196 9.10536 21.7071 9.2929C21.8946 9.48043 22 9.73479 22 10V12ZM27 17C27 17.2652 26.8946 17.5196 26.7071 17.7071C26.5196 17.8946 26.2652 18 26 18C25.7348 18 25.4804 17.8946 25.2929 17.7071C25.1053 17.5196 25 17.2652 25 17V15C25 14.7348 25.1053 14.4804 25.2929 14.2929C25.4804 14.1054 25.7348 14 26 14C26.2652 14 26.5196 14.1054 26.7071 14.2929C26.8946 14.4804 27 14.7348 27 15V17Z" fill="white"/>
<path d="M57.5 2V6C57.5 6.39782 57.342 6.77936 57.0607 7.06066C56.7794 7.34196 56.3978 7.5 56 7.5C55.6022 7.5 55.2206 7.34196 54.9393 7.06066C54.658 6.77936 54.5 6.39782 54.5 6V2C54.5 1.60218 54.658 1.22064 54.9393 0.93934C55.2206 0.658035 55.6022 0.5 56 0.5C56.3978 0.5 56.7794 0.658035 57.0607 0.93934C57.342 1.22064 57.5 1.60218 57.5 2ZM62 6.5C61.6022 6.5 61.2206 6.65804 60.9393 6.93934C60.658 7.22064 60.5 7.60218 60.5 8V12C60.5 12.3978 60.658 12.7794 60.9393 13.0607C61.2206 13.342 61.6022 13.5 62 13.5C62.3978 13.5 62.7794 13.342 63.0607 13.0607C63.342 12.7794 63.5 12.3978 63.5 12V8C63.5 7.60218 63.342 7.22064 63.0607 6.93934C62.7794 6.65804 62.3978 6.5 62 6.5ZM56 24.5C55.6022 24.5 55.2206 24.658 54.9393 24.9393C54.658 25.2206 54.5 25.6022 54.5 26V30C54.5 30.3978 54.658 30.7794 54.9393 31.0607C55.2206 31.342 55.6022 31.5 56 31.5C56.3978 31.5 56.7794 31.342 57.0607 31.0607C57.342 30.7794 57.5 30.3978 57.5 30V26C57.5 25.6022 57.342 25.2206 57.0607 24.9393C56.7794 24.658 56.3978 24.5 56 24.5ZM56 9.5C55.6022 9.5 55.2206 9.65804 54.9393 9.93934C54.658 10.2206 54.5 10.6022 54.5 11V21C54.5 21.3978 54.658 21.7794 54.9393 22.0607C55.2206 22.342 55.6022 22.5 56 22.5C56.3978 22.5 56.7794 22.342 57.0607 22.0607C57.342 21.7794 57.5 21.3978 57.5 21V11C57.5 10.6022 57.342 10.2206 57.0607 9.93934C56.7794 9.65804 56.3978 9.5 56 9.5ZM50 6.5C49.6022 6.5 49.2206 6.65804 48.9393 6.93934C48.658 7.22064 48.5 7.60218 48.5 8V15C48.5 15.3978 48.658 15.7794 48.9393 16.0607C49.2206 16.342 49.6022 16.5 50 16.5C50.3978 16.5 50.7794 16.342 51.0607 16.0607C51.342 15.7794 51.5 15.3978 51.5 15V8C51.5 7.60218 51.342 7.22064 51.0607 6.93934C50.7794 6.65804 50.3978 6.5 50 6.5ZM62 15.5C61.6022 15.5 61.2206 15.658 60.9393 15.9393C60.658 16.2206 60.5 16.6022 60.5 17V24C60.5 24.3978 60.658 24.7794 60.9393 25.0607C61.2206 25.342 61.6022 25.5 62 25.5C62.3978 25.5 62.7794 25.342 63.0607 25.0607C63.342 24.7794 63.5 24.3978 63.5 24V17C63.5 16.6022 63.342 16.2206 63.0607 15.9393C62.7794 15.658 62.3978 15.5 62 15.5ZM44 12.5C43.6022 12.5 43.2206 12.658 42.9393 12.9393C42.658 13.2206 42.5 13.6022 42.5 14V18C42.5 18.3978 42.658 18.7794 42.9393 19.0607C43.2206 19.342 43.6022 19.5 44 19.5C44.3978 19.5 44.7794 19.342 45.0607 19.0607C45.342 18.7794 45.5 18.3978 45.5 18V14C45.5 13.6022 45.342 13.2206 45.0607 12.9393C44.7794 12.658 44.3978 12.5 44 12.5ZM50 18.5C49.6022 18.5 49.2206 18.658 48.9393 18.9393C48.658 19.2206 48.5 19.6022 48.5 20V24C48.5 24.3978 48.658 24.7794 48.9393 25.0607C49.2206 25.342 49.6022 25.5 50 25.5C50.3978 25.5 50.7794 25.342 51.0607 25.0607C51.342 24.7794 51.5 24.3978 51.5 24V20C51.5 19.6022 51.342 19.2206 51.0607 18.9393C50.7794 18.658 50.3978 18.5 50 18.5ZM68 12.5C67.6022 12.5 67.2206 12.658 66.9393 12.9393C66.658 13.2206 66.5 13.6022 66.5 14V18C66.5 18.3978 66.658 18.7794 66.9393 19.0607C67.2206 19.342 67.6022 19.5 68 19.5C68.3978 19.5 68.7794 19.342 69.0607 19.0607C69.342 18.7794 69.5 18.3978 69.5 18V14C69.5 13.6022 69.342 13.2206 69.0607 12.9393C68.7794 12.658 68.3978 12.5 68 12.5Z" fill="white"/>
</g>
<defs>
<clipPath id="clip0_27_169">
<rect width="72" height="32" rx="5" fill="white"/>
</clipPath>
</defs>
</svg>
