<svg width="72" height="32" viewBox="0 0 72 32" fill="none" xmlns="http://www.w3.org/2000/svg">
<g clip-path="url(#clip0_27_4725)">
<path d="M28 6H4C3.46957 6 2.96086 6.21071 2.58579 6.58579C2.21071 6.96086 2 7.46957 2 8V24C2 24.5304 2.21071 25.0391 2.58579 25.4142C2.96086 25.7893 3.46957 26 4 26H12C12.1314 26.0001 12.2615 25.9743 12.3828 25.9241C12.5042 25.8739 12.6146 25.8003 12.7075 25.7075L16 22.4137L19.2925 25.7075C19.3854 25.8003 19.4958 25.8739 19.6171 25.9241C19.7385 25.9743 19.8686 26.0001 20 26H28C28.5304 26 29.0391 25.7893 29.4142 25.4142C29.7893 25.0391 30 24.5304 30 24V8C30 7.46957 29.7893 6.96086 29.4142 6.58579C29.0391 6.21071 28.5304 6 28 6ZM10 19C9.40666 19 8.82664 18.8241 8.33329 18.4944C7.83994 18.1648 7.45542 17.6962 7.22836 17.1481C7.0013 16.5999 6.94189 15.9967 7.05764 15.4147C7.1734 14.8328 7.45912 14.2982 7.87868 13.8787C8.29824 13.4591 8.83279 13.1734 9.41473 13.0576C9.99667 12.9419 10.5999 13.0013 11.1481 13.2284C11.6962 13.4554 12.1648 13.8399 12.4944 14.3333C12.8241 14.8266 13 15.4067 13 16C13 16.7956 12.6839 17.5587 12.1213 18.1213C11.5587 18.6839 10.7956 19 10 19ZM22 19C21.4067 19 20.8266 18.8241 20.3333 18.4944C19.8399 18.1648 19.4554 17.6962 19.2284 17.1481C19.0013 16.5999 18.9419 15.9967 19.0576 15.4147C19.1734 14.8328 19.4591 14.2982 19.8787 13.8787C20.2982 13.4591 20.8328 13.1734 21.4147 13.0576C21.9967 12.9419 22.5999 13.0013 23.1481 13.2284C23.6962 13.4554 24.1648 13.8399 24.4944 14.3333C24.8241 14.8266 25 15.4067 25 16C25 16.7956 24.6839 17.5587 24.1213 18.1213C23.5587 18.6839 22.7956 19 22 19Z" fill="white"/>
<path d="M68 5.5H44C43.337 5.5 42.7011 5.76339 42.2322 6.23223C41.7634 6.70107 41.5 7.33696 41.5 8V24C41.5 24.663 41.7634 25.2989 42.2322 25.7678C42.7011 26.2366 43.337 26.5 44 26.5H52C52.197 26.5002 52.3922 26.4615 52.5743 26.3862C52.7564 26.3109 52.9218 26.2005 53.0612 26.0613L56 23.125L58.9387 26.065C59.2209 26.3449 59.6026 26.5013 60 26.5H68C68.663 26.5 69.2989 26.2366 69.7678 25.7678C70.2366 25.2989 70.5 24.663 70.5 24V8C70.5 7.33696 70.2366 6.70107 69.7678 6.23223C69.2989 5.76339 68.663 5.5 68 5.5ZM67.5 23.5H60.625L57.7712 20.6462C57.3024 20.1776 56.6667 19.9143 56.0037 19.9143C55.3408 19.9143 54.7051 20.1776 54.2362 20.6462L51.375 23.5H44.5V8.5H67.5V23.5ZM50.25 20C51.0906 20 51.9123 19.7507 52.6112 19.2837C53.3101 18.8168 53.8548 18.153 54.1765 17.3764C54.4982 16.5998 54.5823 15.7453 54.4183 14.9209C54.2544 14.0964 53.8496 13.3392 53.2552 12.7448C52.6608 12.1504 51.9036 11.7456 51.0791 11.5817C50.2547 11.4177 49.4002 11.5018 48.6236 11.8235C47.847 12.1452 47.1833 12.6899 46.7163 13.3888C46.2493 14.0877 46 14.9094 46 15.75C46 16.8772 46.4478 17.9582 47.2448 18.7552C48.0418 19.5522 49.1228 20 50.25 20ZM50.25 14.5C50.4972 14.5 50.7389 14.5733 50.9445 14.7107C51.15 14.848 51.3102 15.0432 51.4048 15.2716C51.4995 15.5001 51.5242 15.7514 51.476 15.9939C51.4278 16.2363 51.3087 16.4591 51.1339 16.6339C50.9591 16.8087 50.7363 16.9277 50.4939 16.976C50.2514 17.0242 50.0001 16.9995 49.7716 16.9049C49.5432 16.8102 49.348 16.65 49.2107 16.4445C49.0733 16.2389 49 15.9972 49 15.75C49 15.4185 49.1317 15.1005 49.3661 14.8661C49.6005 14.6317 49.9185 14.5 50.25 14.5ZM61.75 20C62.5906 20 63.4123 19.7507 64.1112 19.2837C64.8101 18.8168 65.3548 18.153 65.6765 17.3764C65.9982 16.5998 66.0823 15.7453 65.9183 14.9209C65.7543 14.0964 65.3496 13.3392 64.7552 12.7448C64.1608 12.1504 63.4036 11.7456 62.5791 11.5817C61.7547 11.4177 60.9002 11.5018 60.1236 11.8235C59.347 12.1452 58.6832 12.6899 58.2163 13.3888C57.7493 14.0877 57.5 14.9094 57.5 15.75C57.5 16.8772 57.9478 17.9582 58.7448 18.7552C59.5418 19.5522 60.6228 20 61.75 20ZM61.75 14.5C61.9972 14.5 62.2389 14.5733 62.4445 14.7107C62.65 14.848 62.8102 15.0432 62.9049 15.2716C62.9995 15.5001 63.0242 15.7514 62.976 15.9939C62.9277 16.2363 62.8087 16.4591 62.6339 16.6339C62.4591 16.8087 62.2363 16.9277 61.9939 16.976C61.7514 17.0242 61.5001 16.9995 61.2716 16.9049C61.0432 16.8102 60.848 16.65 60.7107 16.4445C60.5733 16.2389 60.5 15.9972 60.5 15.75C60.5 15.4185 60.6317 15.1005 60.8661 14.8661C61.1005 14.6317 61.4185 14.5 61.75 14.5Z" fill="white"/>
</g>
<defs>
<clipPath id="clip0_27_4725">
<rect width="72" height="32" rx="5" fill="white"/>
</clipPath>
</defs>
</svg>
