<svg width="72" height="32" viewBox="0 0 72 32" fill="none" xmlns="http://www.w3.org/2000/svg">
<g clip-path="url(#clip0_27_149)">
<path d="M29.7 17.9725L21.1413 3.94C20.9623 3.65157 20.7124 3.41377 20.4155 3.24923C20.1186 3.08469 19.7845 2.99889 19.445 3H12.5538C12.2145 2.99886 11.8805 3.08466 11.5838 3.24922C11.2871 3.41377 11.0375 3.65159 10.8588 3.94L10.8525 3.94875L2.30502 17.9625C2.1133 18.269 2.00822 18.6216 2.00095 18.983C1.99369 19.3445 2.08451 19.7011 2.26377 20.015L5.67877 25.9925C5.85371 26.2985 6.10643 26.5529 6.41134 26.7299C6.71624 26.9068 7.0625 27 7.41502 27H24.5838C24.9363 27 25.2825 26.9068 25.5874 26.7299C25.8924 26.5529 26.1451 26.2985 26.32 25.9925L29.735 20.015C29.9145 19.7032 30.006 19.3486 29.9998 18.9889C29.9936 18.6292 29.89 18.278 29.7 17.9725ZM27.375 18H21.565L17.1663 10.6662L20.01 5.92625L27.375 18ZM11.5663 20H20.4338L23.4338 25H8.56627L11.5663 20ZM12.7663 18L16 12.61L19.2338 18H12.7663ZM11.9888 5.92625L14.8338 10.6662L10.4338 18H4.62502L11.9888 5.92625Z" fill="white"/>
<path d="M70.125 17.7063L61.5737 3.68875L61.565 3.675C61.3411 3.31348 61.0282 3.01555 60.656 2.8098C60.2839 2.60404 59.8652 2.49736 59.44 2.5H52.555C52.1298 2.49736 51.711 2.60404 51.3389 2.8098C50.9668 3.01555 50.6538 3.31348 50.43 3.675L50.4212 3.68875L41.875 17.7063C41.6379 18.089 41.5086 18.5287 41.5006 18.9788C41.4927 19.429 41.6065 19.8729 41.83 20.2638L45.25 26.24C45.4682 26.6221 45.7835 26.9398 46.1638 27.161C46.5442 27.3823 46.9762 27.4992 47.4162 27.5H64.5837C65.0238 27.4992 65.4558 27.3823 65.8361 27.161C66.2165 26.9398 66.5317 26.6221 66.75 26.24L70.165 20.2638C70.3892 19.8734 70.5039 19.4297 70.4968 18.9795C70.4898 18.5293 70.3613 18.0894 70.125 17.7063ZM66.485 17.5H61.8487L57.75 10.6663L60.015 6.8925L66.485 17.5ZM46.85 23L45.42 20.5H48.3512L46.85 23ZM51.85 20.5H60.15L62.55 24.5H49.45L51.85 20.5ZM53.65 17.5L56 13.5825L58.35 17.5H53.65ZM63.65 20.5H66.5812L65.15 23L63.65 20.5ZM56 7.75L54.6487 5.5H57.3512L56 7.75ZM51.9862 6.8925L54.25 10.6663L50.1512 17.5H45.515L51.9862 6.8925Z" fill="white"/>
</g>
<defs>
<clipPath id="clip0_27_149">
<rect width="72" height="32" rx="5" fill="white"/>
</clipPath>
</defs>
</svg>
