<svg width="72" height="32" viewBox="0 0 72 32" fill="none" xmlns="http://www.w3.org/2000/svg">
<g clip-path="url(#clip0_27_154)">
<path d="M16 3C13.4288 3 10.9154 3.76244 8.77759 5.1909C6.63975 6.61935 4.97351 8.64968 3.98957 11.0251C3.00563 13.4006 2.74819 16.0144 3.2498 18.5362C3.75141 21.0579 4.98953 23.3743 6.80762 25.1924C8.6257 27.0105 10.9421 28.2486 13.4638 28.7502C15.9856 29.2518 18.5995 28.9944 20.9749 28.0104C23.3503 27.0265 25.3807 25.3603 26.8091 23.2224C28.2376 21.0846 29 18.5712 29 16C29 12.5522 27.6304 9.24558 25.1924 6.80761C22.7544 4.36964 19.4478 3 16 3ZM16 26C14.3791 25.9998 12.7825 25.6056 11.3478 24.8514C9.91306 24.0971 8.68318 23.0054 7.76408 21.6703C6.84497 20.3352 6.2642 18.7966 6.07177 17.1872C5.87934 15.5777 6.08103 13.9456 6.65946 12.4314C7.2379 10.9172 8.17574 9.56635 9.39221 8.49512C10.6087 7.42389 12.0673 6.66441 13.6425 6.28212C15.2177 5.89982 16.8622 5.90615 18.4344 6.30057C20.0066 6.69499 21.4593 7.46568 22.6675 8.54625C22.8603 8.72439 22.9752 8.97117 22.9877 9.23334C23.0001 9.4955 22.9089 9.75205 22.7339 9.94761C22.5588 10.1432 22.3139 10.2621 22.052 10.2786C21.79 10.2952 21.5321 10.2082 21.3338 10.0363C20.0005 8.84376 18.3061 8.13248 16.5212 8.01602C14.7363 7.89957 12.9638 8.38466 11.487 9.39381C10.0101 10.403 8.91405 11.8779 8.37388 13.5831C7.83371 15.2883 7.88059 17.1254 8.50703 18.8008C9.13348 20.4762 10.3033 21.8934 11.8298 22.8259C13.3562 23.7584 15.1511 24.1525 16.9277 23.9451C18.7044 23.7378 20.3603 22.941 21.631 21.6821C22.9016 20.4231 23.7137 18.7747 23.9375 17H16C15.7348 17 15.4804 16.8946 15.2929 16.7071C15.1054 16.5196 15 16.2652 15 16C15 15.7348 15.1054 15.4804 15.2929 15.2929C15.4804 15.1054 15.7348 15 16 15H25C25.2652 15 25.5196 15.1054 25.7071 15.2929C25.8946 15.4804 26 15.7348 26 16C25.997 18.6513 24.9425 21.1931 23.0678 23.0678C21.1931 24.9425 18.6513 25.997 16 26Z" fill="white"/>
<path d="M68.5 16C68.4999 18.9433 67.4611 21.7921 65.5668 24.0447C63.6724 26.2973 61.044 27.8092 58.1444 28.3141C55.2448 28.819 52.26 28.2845 49.7157 26.8048C47.1715 25.3251 45.2309 22.9951 44.2359 20.2251C43.2409 17.4552 43.2553 14.4229 44.2765 11.6625C45.2976 8.90207 47.2601 6.59051 49.8182 5.13495C52.3764 3.67939 55.3661 3.1732 58.2608 3.70553C61.1555 4.23787 63.7696 5.77458 65.6425 8.045C65.7679 8.19692 65.8622 8.37206 65.9199 8.56041C65.9776 8.74877 65.9977 8.94664 65.9789 9.14275C65.9602 9.33885 65.903 9.52935 65.8106 9.70335C65.7183 9.87736 65.5925 10.0315 65.4406 10.1569C65.2887 10.2823 65.1136 10.3765 64.9252 10.4343C64.7369 10.492 64.539 10.5121 64.3429 10.4933C64.1468 10.4746 63.9563 10.4174 63.7823 10.325C63.6083 10.2327 63.4542 10.1069 63.3288 9.955C61.9465 8.27932 60.0317 7.12796 57.9034 6.69281C55.7752 6.25766 53.5622 6.56501 51.6331 7.56363C49.704 8.56224 48.1754 10.1918 47.302 12.1808C46.4287 14.1697 46.2633 16.3979 46.8335 18.4939C47.4037 20.59 48.675 22.4274 50.4356 23.6998C52.1962 24.9722 54.3396 25.6029 56.5087 25.4866C58.6779 25.3704 60.7417 24.5143 62.3561 23.061C63.9706 21.6077 65.0383 19.645 65.3813 17.5H56C55.6022 17.5 55.2206 17.342 54.9393 17.0607C54.658 16.7794 54.5 16.3978 54.5 16C54.5 15.6022 54.658 15.2206 54.9393 14.9393C55.2206 14.658 55.6022 14.5 56 14.5H67C67.3978 14.5 67.7794 14.658 68.0607 14.9393C68.342 15.2206 68.5 15.6022 68.5 16Z" fill="white"/>
</g>
<defs>
<clipPath id="clip0_27_154">
<rect width="72" height="32" rx="5" fill="white"/>
</clipPath>
</defs>
</svg>
