<svg width="72" height="32" viewBox="0 0 72 32" fill="none" xmlns="http://www.w3.org/2000/svg">
<g clip-path="url(#clip0_27_6635)">
<path d="M31 16C31 16.2652 30.8946 16.5196 30.7071 16.7071C30.5196 16.8946 30.2652 17 30 17H26.9538C26.7167 19.5599 25.5919 21.9562 23.7741 23.7741C21.9562 25.5919 19.5599 26.7167 17 26.9538V30C17 30.2652 16.8946 30.5196 16.7071 30.7071C16.5196 30.8946 16.2652 31 16 31C15.7348 31 15.4804 30.8946 15.2929 30.7071C15.1054 30.5196 15 30.2652 15 30V26.9538C12.4401 26.7167 10.0438 25.5919 8.22592 23.7741C6.40808 21.9562 5.28325 19.5599 5.04625 17H2C1.73478 17 1.48043 16.8946 1.29289 16.7071C1.10536 16.5196 1 16.2652 1 16C1 15.7348 1.10536 15.4804 1.29289 15.2929C1.48043 15.1054 1.73478 15 2 15H5.04625C5.28325 12.4401 6.40808 10.0438 8.22592 8.22592C10.0438 6.40808 12.4401 5.28325 15 5.04625V2C15 1.73478 15.1054 1.48043 15.2929 1.29289C15.4804 1.10536 15.7348 1 16 1C16.2652 1 16.5196 1.10536 16.7071 1.29289C16.8946 1.48043 17 1.73478 17 2V5.04625C19.5599 5.28325 21.9562 6.40808 23.7741 8.22592C25.5919 10.0438 26.7167 12.4401 26.9538 15H30C30.2652 15 30.5196 15.1054 30.7071 15.2929C30.8946 15.4804 31 15.7348 31 16Z" fill="white"/>
<path d="M70 14.5H67.4025C67.0681 11.9912 65.9173 9.66214 64.1276 7.87243C62.3379 6.08273 60.0088 4.93187 57.5 4.5975V2C57.5 1.60218 57.342 1.22064 57.0607 0.93934C56.7794 0.658035 56.3978 0.5 56 0.5C55.6022 0.5 55.2206 0.658035 54.9393 0.93934C54.658 1.22064 54.5 1.60218 54.5 2V4.5975C51.9912 4.93187 49.6621 6.08273 47.8724 7.87243C46.0827 9.66214 44.9319 11.9912 44.5975 14.5H42C41.6022 14.5 41.2206 14.658 40.9393 14.9393C40.658 15.2206 40.5 15.6022 40.5 16C40.5 16.3978 40.658 16.7794 40.9393 17.0607C41.2206 17.342 41.6022 17.5 42 17.5H44.5975C44.9319 20.0088 46.0827 22.3379 47.8724 24.1276C49.6621 25.9173 51.9912 27.0681 54.5 27.4025V30C54.5 30.3978 54.658 30.7794 54.9393 31.0607C55.2206 31.342 55.6022 31.5 56 31.5C56.3978 31.5 56.7794 31.342 57.0607 31.0607C57.342 30.7794 57.5 30.3978 57.5 30V27.4025C60.0088 27.0681 62.3379 25.9173 64.1276 24.1276C65.9173 22.3379 67.0681 20.0088 67.4025 17.5H70C70.3978 17.5 70.7794 17.342 71.0607 17.0607C71.342 16.7794 71.5 16.3978 71.5 16C71.5 15.6022 71.342 15.2206 71.0607 14.9393C70.7794 14.658 70.3978 14.5 70 14.5ZM56 24.5C54.3189 24.5 52.6755 24.0015 51.2777 23.0675C49.8798 22.1335 48.7904 20.806 48.147 19.2528C47.5037 17.6996 47.3354 15.9906 47.6633 14.3417C47.9913 12.6929 48.8008 11.1783 49.9896 9.98959C51.1783 8.80085 52.6929 7.9913 54.3417 7.66333C55.9906 7.33535 57.6996 7.50368 59.2528 8.14702C60.806 8.79037 62.1335 9.87984 63.0675 11.2777C64.0015 12.6755 64.5 14.3189 64.5 16C64.4977 18.2536 63.6014 20.4143 62.0078 22.0078C60.4143 23.6014 58.2536 24.4977 56 24.5Z" fill="white"/>
</g>
<defs>
<clipPath id="clip0_27_6635">
<rect width="72" height="32" rx="5" fill="white"/>
</clipPath>
</defs>
</svg>
