<svg width="72" height="32" viewBox="0 0 72 32" fill="none" xmlns="http://www.w3.org/2000/svg">
<g clip-path="url(#clip0_27_6640)">
<path d="M30 15H26.9538C26.7167 12.4401 25.5919 10.0438 23.7741 8.22592C21.9562 6.40808 19.5599 5.28325 17 5.04625V2C17 1.73478 16.8946 1.48043 16.7071 1.29289C16.5196 1.10536 16.2652 1 16 1C15.7348 1 15.4804 1.10536 15.2929 1.29289C15.1054 1.48043 15 1.73478 15 2V5.04625C12.4401 5.28325 10.0438 6.40808 8.22592 8.22592C6.40808 10.0438 5.28325 12.4401 5.04625 15H2C1.73478 15 1.48043 15.1054 1.29289 15.2929C1.10536 15.4804 1 15.7348 1 16C1 16.2652 1.10536 16.5196 1.29289 16.7071C1.48043 16.8946 1.73478 17 2 17H5.04625C5.28325 19.5599 6.40808 21.9562 8.22592 23.7741C10.0438 25.5919 12.4401 26.7167 15 26.9538V30C15 30.2652 15.1054 30.5196 15.2929 30.7071C15.4804 30.8946 15.7348 31 16 31C16.2652 31 16.5196 30.8946 16.7071 30.7071C16.8946 30.5196 17 30.2652 17 30V26.9538C19.5599 26.7167 21.9562 25.5919 23.7741 23.7741C25.5919 21.9562 26.7167 19.5599 26.9538 17H30C30.2652 17 30.5196 16.8946 30.7071 16.7071C30.8946 16.5196 31 16.2652 31 16C31 15.7348 30.8946 15.4804 30.7071 15.2929C30.5196 15.1054 30.2652 15 30 15ZM16 25C14.22 25 12.4799 24.4722 10.9999 23.4832C9.51982 22.4943 8.36627 21.0887 7.68508 19.4442C7.0039 17.7996 6.82567 15.99 7.17293 14.2442C7.5202 12.4984 8.37737 10.8947 9.63604 9.63604C10.8947 8.37737 12.4984 7.5202 14.2442 7.17293C15.99 6.82567 17.7996 7.0039 19.4442 7.68508C21.0887 8.36627 22.4943 9.51982 23.4832 10.9999C24.4722 12.4799 25 14.22 25 16C24.9974 18.3861 24.0483 20.6738 22.361 22.361C20.6738 24.0483 18.3861 24.9974 16 25ZM21 16C21 16.9889 20.7068 17.9556 20.1573 18.7779C19.6079 19.6001 18.827 20.241 17.9134 20.6194C16.9998 20.9978 15.9945 21.0969 15.0245 20.9039C14.0546 20.711 13.1637 20.2348 12.4645 19.5355C11.7652 18.8363 11.289 17.9454 11.0961 16.9755C10.9031 16.0055 11.0022 15.0002 11.3806 14.0866C11.759 13.173 12.3999 12.3921 13.2221 11.8427C14.0444 11.2932 15.0111 11 16 11C17.3261 11 18.5979 11.5268 19.5355 12.4645C20.4732 13.4021 21 14.6739 21 16Z" fill="white"/>
<path d="M70 14.5H67.4025C67.0681 11.9912 65.9173 9.66214 64.1276 7.87243C62.3379 6.08273 60.0088 4.93187 57.5 4.5975V2C57.5 1.60218 57.342 1.22064 57.0607 0.93934C56.7794 0.658035 56.3978 0.5 56 0.5C55.6022 0.5 55.2206 0.658035 54.9393 0.93934C54.658 1.22064 54.5 1.60218 54.5 2V4.5975C51.9912 4.93187 49.6621 6.08273 47.8724 7.87243C46.0827 9.66214 44.9319 11.9912 44.5975 14.5H42C41.6022 14.5 41.2206 14.658 40.9393 14.9393C40.658 15.2206 40.5 15.6022 40.5 16C40.5 16.3978 40.658 16.7794 40.9393 17.0607C41.2206 17.342 41.6022 17.5 42 17.5H44.5975C44.9319 20.0088 46.0827 22.3379 47.8724 24.1276C49.6621 25.9173 51.9912 27.0681 54.5 27.4025V30C54.5 30.3978 54.658 30.7794 54.9393 31.0607C55.2206 31.342 55.6022 31.5 56 31.5C56.3978 31.5 56.7794 31.342 57.0607 31.0607C57.342 30.7794 57.5 30.3978 57.5 30V27.4025C60.0088 27.0681 62.3379 25.9173 64.1276 24.1276C65.9173 22.3379 67.0681 20.0088 67.4025 17.5H70C70.3978 17.5 70.7794 17.342 71.0607 17.0607C71.342 16.7794 71.5 16.3978 71.5 16C71.5 15.6022 71.342 15.2206 71.0607 14.9393C70.7794 14.658 70.3978 14.5 70 14.5ZM56 24.5C54.3189 24.5 52.6755 24.0015 51.2777 23.0675C49.8798 22.1335 48.7904 20.806 48.147 19.2528C47.5037 17.6996 47.3354 15.9906 47.6633 14.3417C47.9913 12.6929 48.8008 11.1783 49.9896 9.98959C51.1783 8.80085 52.6929 7.9913 54.3417 7.66333C55.9906 7.33535 57.6996 7.50368 59.2528 8.14702C60.806 8.79037 62.1335 9.87984 63.0675 11.2777C64.0015 12.6755 64.5 14.3189 64.5 16C64.4977 18.2536 63.6014 20.4143 62.0078 22.0078C60.4143 23.6014 58.2536 24.4977 56 24.5ZM56 10.5C54.9122 10.5 53.8488 10.8226 52.9444 11.4269C52.0399 12.0313 51.3349 12.8902 50.9187 13.8952C50.5024 14.9002 50.3935 16.0061 50.6057 17.073C50.8179 18.1399 51.3417 19.1199 52.1109 19.8891C52.8801 20.6583 53.8601 21.1821 54.927 21.3943C55.9939 21.6065 57.0998 21.4976 58.1048 21.0813C59.1098 20.6651 59.9687 19.9601 60.5731 19.0556C61.1774 18.1512 61.5 17.0878 61.5 16C61.4983 14.5418 60.9184 13.1438 59.8873 12.1127C58.8562 11.0816 57.4582 10.5017 56 10.5ZM56 18.5C55.5055 18.5 55.0222 18.3534 54.6111 18.0787C54.2 17.804 53.8795 17.4135 53.6903 16.9567C53.5011 16.4999 53.4516 15.9972 53.548 15.5123C53.6445 15.0273 53.8826 14.5819 54.2322 14.2322C54.5819 13.8826 55.0273 13.6445 55.5123 13.548C55.9972 13.4516 56.4999 13.5011 56.9567 13.6903C57.4135 13.8795 57.804 14.2 58.0787 14.6111C58.3534 15.0222 58.5 15.5055 58.5 16C58.5 16.663 58.2366 17.2989 57.7678 17.7678C57.2989 18.2366 56.663 18.5 56 18.5Z" fill="white"/>
</g>
<defs>
<clipPath id="clip0_27_6640">
<rect width="72" height="32" rx="5" fill="white"/>
</clipPath>
</defs>
</svg>
