<svg width="72" height="32" viewBox="0 0 72 32" fill="none" xmlns="http://www.w3.org/2000/svg">
<g clip-path="url(#clip0_27_5798)">
<path d="M21.9997 25.905C22.6895 25.6332 23.358 25.3102 23.9997 24.9388V30C23.9997 30.2652 23.8943 30.5196 23.7068 30.7071C23.5193 30.8946 23.2649 31 22.9997 31C22.7345 31 22.4801 30.8946 22.2926 30.7071C22.105 30.5196 21.9997 30.2652 21.9997 30V25.905ZM23.4697 14.8513L16.4697 11.1175C16.2361 10.9982 15.9651 10.9754 15.7149 11.0541C15.4647 11.1327 15.2555 11.3065 15.1322 11.538C15.0089 11.7695 14.9815 12.0401 15.0558 12.2916C15.1302 12.5431 15.3004 12.7553 15.5297 12.8825L21.3747 16L23.4997 14.8675L23.4697 14.8513ZM31.4697 11.1175L16.4697 3.1175C16.325 3.04046 16.1636 3.00017 15.9997 3.00017C15.8358 3.00017 15.6744 3.04046 15.5297 3.1175L0.529688 11.1175C0.369693 11.2028 0.235888 11.3299 0.142587 11.4854C0.0492867 11.6408 0 11.8187 0 12C0 12.1813 0.0492867 12.3592 0.142587 12.5146C0.235888 12.6701 0.369693 12.7972 0.529688 12.8825L3.99969 14.7338V20.7863C3.99865 21.2774 4.17942 21.7517 4.50719 22.1175C6.14469 23.9413 9.81344 27 15.9997 27C18.0509 27.017 20.0867 26.6454 21.9997 25.905V16.3338L21.3747 16L15.9997 18.8663L5.47844 13.25L3.12469 12L15.9997 5.13375L28.8747 12L26.5272 13.25H26.5197L23.4997 14.8675C23.6517 14.9553 23.778 15.0816 23.8658 15.2336C23.9535 15.3857 23.9997 15.5582 23.9997 15.7338V24.9388C25.3037 24.186 26.4821 23.2341 27.4922 22.1175C27.82 21.7517 28.0007 21.2774 27.9997 20.7863V14.7338L31.4697 12.8825C31.6297 12.7972 31.7635 12.6701 31.8568 12.5146C31.9501 12.3592 31.9994 12.1813 31.9994 12C31.9994 11.8187 31.9501 11.6408 31.8568 11.4854C31.7635 11.3299 31.6297 11.2028 31.4697 11.1175Z" fill="white"/>
<path d="M71.2258 10.6862L56.7258 2.68625C56.5038 2.56369 56.2543 2.4994 56.0008 2.4994C55.7472 2.4994 55.4978 2.56369 55.2758 2.68625L40.7758 10.6862C40.5413 10.816 40.3459 11.0061 40.2098 11.2369C40.0737 11.4678 40.002 11.7308 40.002 11.9987C40.002 12.2667 40.0737 12.5297 40.2098 12.7606C40.3459 12.9914 40.5413 13.1815 40.7758 13.3112L43.5008 14.8112V20.7812C43.4998 21.3958 43.7264 21.989 44.137 22.4463C45.8295 24.3375 49.6258 27.5 56.0008 27.5C57.6938 27.5091 59.3788 27.2669 61.0008 26.7812V30C61.0008 30.3978 61.1588 30.7794 61.4401 31.0607C61.7214 31.342 62.1029 31.5 62.5008 31.5C62.8986 31.5 63.2801 31.342 63.5614 31.0607C63.8427 30.7794 64.0008 30.3978 64.0008 30V25.515C65.4495 24.7148 66.7552 23.6794 67.8645 22.4513C68.2751 21.994 68.5018 21.4008 68.5008 20.7862V14.8162L71.2258 13.3162C71.4602 13.1865 71.6556 12.9964 71.7917 12.7656C71.9278 12.5347 71.9996 12.2717 71.9996 12.0037C71.9996 11.7358 71.9278 11.4728 71.7917 11.2419C71.6556 11.0111 71.4602 10.821 71.2258 10.6912V10.6862ZM56.0008 5.71375L67.3958 12L63.2508 14.2875C63.243 14.2829 63.2355 14.2779 63.2283 14.2725L56.7283 10.6862C56.3812 10.5069 55.9779 10.47 55.6041 10.5834C55.2303 10.6968 54.9154 10.9516 54.7266 11.2935C54.5377 11.6355 54.4896 12.0376 54.5927 12.4144C54.6957 12.7912 54.9417 13.113 55.2783 13.3112L60.1533 15.9975L56.0008 18.2875L44.6058 12L56.0008 5.71375ZM56.0008 24.5C50.9483 24.5 47.9195 22.1162 46.5008 20.5912V16.4662L55.2758 21.3088C55.4978 21.4313 55.7472 21.4956 56.0008 21.4956C56.2543 21.4956 56.5038 21.4313 56.7258 21.3088L61.0008 18.955V23.6087C59.4035 24.2124 57.7082 24.5146 56.0008 24.5ZM65.5008 20.5912C65.0408 21.0842 64.5389 21.5363 64.0008 21.9425V17.2987L65.5008 16.4713V20.5912Z" fill="white"/>
</g>
<defs>
<clipPath id="clip0_27_5798">
<rect width="72" height="32" rx="5" fill="white"/>
</clipPath>
</defs>
</svg>
