<svg width="72" height="32" viewBox="0 0 72 32" fill="none" xmlns="http://www.w3.org/2000/svg">
<g clip-path="url(#clip0_27_1212)">
<path d="M26 7.00002C24.6382 7.00013 23.2884 7.25449 22.02 7.75002C20.23 4.03752 16.6137 2.19252 16.4487 2.10877C16.3098 2.03925 16.1566 2.00305 16.0012 2.00305C15.8459 2.00305 15.6927 2.03925 15.5538 2.10877C15.3875 2.18877 11.7712 4.03377 9.98125 7.75002C8.71243 7.25433 7.3622 6.99997 6 7.00002C5.73478 7.00002 5.48043 7.10538 5.29289 7.29291C5.10536 7.48045 5 7.7348 5 8.00002V18C5.00326 20.6453 5.95838 23.201 7.69076 25.2001C9.42314 27.1992 11.8171 28.5081 14.435 28.8875C14.5059 28.8968 14.578 28.8908 14.6464 28.8699C14.7147 28.8489 14.7778 28.8136 14.8314 28.7662C14.8849 28.7188 14.9277 28.6605 14.9568 28.5952C14.9859 28.5298 15.0006 28.459 15 28.3875V22.0338C14.9968 21.7758 15.0913 21.5261 15.2645 21.3349C15.4376 21.1436 15.6767 21.0249 15.9338 21.0025C16.0705 20.9934 16.2077 21.0126 16.3368 21.0587C16.4659 21.1049 16.5841 21.1771 16.6841 21.2709C16.7841 21.3647 16.8637 21.478 16.9181 21.6039C16.9724 21.7297 17.0003 21.8654 17 22.0025V28.395C16.9994 28.4665 17.0141 28.5373 17.0432 28.6027C17.0723 28.668 17.1151 28.7263 17.1686 28.7737C17.2222 28.8211 17.2853 28.8564 17.3536 28.8774C17.422 28.8983 17.4941 28.9043 17.565 28.895C20.1842 28.5154 22.5791 27.2054 24.3117 25.2048C26.0442 23.2041 26.9985 20.6466 27 18V8.00002C27 7.7348 26.8946 7.48045 26.7071 7.29291C26.5196 7.10538 26.2652 7.00002 26 7.00002ZM15 18.6825C14.0829 17.3754 12.8923 16.2836 11.5108 15.483C10.1293 14.6824 8.59005 14.1921 7 14.0463V9.05502C9.19914 9.30365 11.2299 10.3528 12.7053 12.0024C14.1806 13.652 14.9974 15.7869 15 18V18.6825ZM16 13.42C15.0898 11.4457 13.6187 9.78285 11.77 8.63877C12.9213 6.23752 15.07 4.72252 16 4.15127C16.9312 4.72377 19.0787 6.23877 20.23 8.63877C18.3813 9.78285 16.9102 11.4457 16 13.42ZM25 14.045C23.4099 14.1909 21.8707 14.6811 20.4892 15.4818C19.1077 16.2824 17.9171 17.3742 17 18.6813V18C17.0026 15.7869 17.8194 13.652 19.2947 12.0024C20.7701 10.3528 22.8009 9.30365 25 9.05502V14.045Z" fill="white"/>
<path d="M66 6.49998C64.7281 6.49947 63.465 6.71069 62.2625 7.12498C60.3388 3.52998 56.8375 1.74248 56.6712 1.65998C56.4629 1.5557 56.233 1.5014 56 1.5014C55.767 1.5014 55.5371 1.5557 55.3287 1.65998C55.1625 1.74248 51.6613 3.53498 49.7362 7.12498C48.5342 6.71057 47.2715 6.49935 46 6.49998C45.6022 6.49998 45.2206 6.65801 44.9393 6.93932C44.658 7.22062 44.5 7.60215 44.5 7.99998V18C44.5 21.05 45.7116 23.975 47.8683 26.1317C50.0249 28.2884 52.95 29.5 56 29.5C59.05 29.5 61.9751 28.2884 64.1317 26.1317C66.2884 23.975 67.5 21.05 67.5 18V7.99998C67.5 7.60215 67.342 7.22062 67.0607 6.93932C66.7794 6.65801 66.3978 6.49998 66 6.49998ZM47.5 9.63248C49.3306 9.96374 51.0024 10.8851 52.2601 12.2559C53.5178 13.6267 54.2922 15.3715 54.465 17.2237C52.6412 15.2347 50.1754 13.9514 47.5 13.5987V9.63248ZM54.5 26.3675C52.5383 26.0128 50.7632 24.981 49.484 23.452C48.2048 21.9229 47.5027 19.9935 47.5 18V16.6325C49.4617 16.9872 51.2368 18.0189 52.516 19.548C53.7952 21.077 54.4973 23.0064 54.5 25V26.3675ZM52.4213 8.46373C53.4462 6.59623 55.0863 5.33873 56 4.74248C56.915 5.34123 58.5538 6.59623 59.5788 8.46373C58.1052 9.4595 56.8807 10.7811 56 12.3262C55.1189 10.7814 53.8945 9.45988 52.4213 8.46373ZM64.5 18C64.4973 19.9935 63.7952 21.9229 62.516 23.452C61.2368 24.981 59.4617 26.0128 57.5 26.3675V25C57.5027 23.0064 58.2048 21.077 59.484 19.548C60.7632 18.0189 62.5383 16.9872 64.5 16.6325V18ZM64.5 13.5975C61.8246 13.9501 59.3588 15.2335 57.535 17.2225C57.7081 15.3704 58.4826 13.6259 59.7403 12.2554C60.9979 10.8849 62.6696 9.96368 64.5 9.63248V13.5975Z" fill="white"/>
</g>
<defs>
<clipPath id="clip0_27_1212">
<rect width="72" height="32" rx="5" fill="white"/>
</clipPath>
</defs>
</svg>
