<svg width="72" height="32" viewBox="0 0 72 32" fill="none" xmlns="http://www.w3.org/2000/svg">
<g clip-path="url(#clip0_27_1217)">
<path d="M27 8.00002V18C27.0009 19.3008 26.7703 20.5914 26.3188 21.8113C26.2884 21.8912 26.2381 21.962 26.1725 22.017C26.107 22.0719 26.0285 22.1091 25.9444 22.125C25.8604 22.141 25.7737 22.1351 25.6926 22.1079C25.6115 22.0808 25.5388 22.0333 25.4813 21.97L20.315 16.2875C20.2649 16.2319 20.2278 16.1658 20.2067 16.0939C20.1855 16.0221 20.1808 15.9464 20.1928 15.8725C20.2048 15.7986 20.2332 15.7283 20.276 15.6669C20.3188 15.6055 20.3748 15.5544 20.44 15.5175C21.8323 14.6956 23.3898 14.1931 25 14.0463V9.05626C23.7538 9.19797 22.5506 9.59743 21.4671 10.2293C20.3836 10.8611 19.4434 11.7114 18.7063 12.7263C18.6234 12.8412 18.5171 12.9373 18.3943 13.0081C18.2716 13.0788 18.1352 13.1227 17.9942 13.1368C17.8532 13.1508 17.7108 13.1348 17.5764 13.0896C17.4421 13.0445 17.3189 12.9714 17.215 12.875C17.0364 12.7028 16.9266 12.4714 16.9061 12.2241C16.8856 11.9768 16.9559 11.7305 17.1038 11.5313C17.9476 10.3742 19.0091 9.39299 20.2288 8.64252C19.0775 6.22502 16.9313 4.71752 16 4.15002C14.9021 4.82477 13.9154 5.66558 13.075 6.64252C12.9836 6.75107 12.8701 6.83892 12.7421 6.90023C12.6141 6.96153 12.4745 6.99489 12.3326 6.99808C12.1907 7.00127 12.0498 6.97423 11.9192 6.91874C11.7885 6.86325 11.6712 6.7806 11.575 6.67627C11.41 6.49056 11.3182 6.25112 11.3168 6.00268C11.3154 5.75424 11.4045 5.51379 11.5675 5.32627C12.6864 4.01791 14.0364 2.92643 15.55 2.10627C15.6889 2.03674 15.8422 2.00055 15.9975 2.00055C16.1529 2.00055 16.3061 2.03674 16.445 2.10627C16.61 2.18877 20.2288 4.03502 22.0188 7.75002C23.2835 7.25696 24.6288 7.00267 25.9863 7.00002C26.1187 6.99819 26.2502 7.02271 26.3732 7.07215C26.4961 7.12159 26.608 7.19496 26.7023 7.288C26.7966 7.38104 26.8715 7.4919 26.9226 7.61413C26.9737 7.73636 27 7.86753 27 8.00002ZM26.74 26.3275C26.8302 26.4244 26.9002 26.5382 26.9461 26.6623C26.992 26.7864 27.0127 26.9184 27.0072 27.0506C27.0017 27.1828 26.97 27.3127 26.9139 27.4325C26.8578 27.5524 26.7786 27.6599 26.6806 27.7489C26.5827 27.8379 26.4681 27.9066 26.3434 27.951C26.2187 27.9954 26.0865 28.0146 25.9544 28.0074C25.8222 28.0003 25.6928 27.9671 25.5736 27.9096C25.4544 27.8521 25.3478 27.7715 25.26 27.6725L23.6475 25.8988C21.6152 27.8728 18.8981 28.9841 16.065 29C9.97876 29.035 5.00001 23.9388 5.00001 17.8538V8.00002C5 7.86774 5.02623 7.73678 5.07719 7.61472C5.12815 7.49265 5.20281 7.38191 5.29687 7.2889C5.39092 7.19589 5.50249 7.12247 5.62512 7.07288C5.74774 7.02329 5.87899 6.99853 6.01126 7.00002C6.16751 7.00002 6.32126 7.00002 6.47626 7.01127L5.26001 5.67252C5.16984 5.57566 5.09979 5.46187 5.05393 5.33774C5.00806 5.21361 4.98729 5.08161 4.99282 4.9494C4.99834 4.81718 5.03005 4.68738 5.08611 4.56751C5.14217 4.44764 5.22146 4.34009 5.3194 4.25109C5.41733 4.16209 5.53195 4.09341 5.65662 4.04904C5.78129 4.00467 5.91352 3.98548 6.04566 3.99259C6.1778 3.9997 6.30722 4.03296 6.42641 4.09045C6.5456 4.14795 6.65219 4.22852 6.74001 4.32752L26.74 26.3275ZM17.04 18.6313L8.64751 9.39877C8.11041 9.23248 7.55879 9.11738 7.00001 9.05502V14.0475C8.92793 14.2259 10.7748 14.9091 12.3548 16.0283C13.9348 17.1474 15.192 18.663 16 20.4225C16.2897 19.7941 16.6379 19.1944 17.04 18.6313Z" fill="white"/>
<path d="M47.1099 3.99126C46.9782 3.84277 46.8183 3.7219 46.6395 3.63566C46.4607 3.54942 46.2666 3.49953 46.0684 3.48886C45.8702 3.4782 45.6718 3.50698 45.4848 3.57354C45.2978 3.6401 45.1259 3.74312 44.979 3.87662C44.8321 4.01012 44.7131 4.17144 44.629 4.35125C44.545 4.53105 44.4974 4.72576 44.4891 4.92408C44.4808 5.1224 44.512 5.3204 44.5808 5.50659C44.6496 5.69278 44.7546 5.86347 44.8899 6.00876L45.4361 6.61001C45.1595 6.72222 44.9226 6.91443 44.7558 7.16206C44.589 7.40968 44.4999 7.70145 44.4999 8.00001V18C44.4992 20.2156 45.1384 22.3842 46.3409 24.2451C47.5433 26.106 49.2577 27.5799 51.2778 28.4896C53.298 29.3994 55.538 29.7062 57.7284 29.3732C59.9188 29.0402 61.9664 28.0815 63.6249 26.6125L64.8949 28.0088C65.1638 28.2977 65.5358 28.4689 65.9302 28.4854C66.3245 28.5019 66.7095 28.3622 67.0016 28.0968C67.2937 27.8313 67.4694 27.4614 67.4906 27.0673C67.5118 26.6731 67.3768 26.2865 67.1149 25.9913L47.1099 3.99126ZM47.5236 18.6363C49.3728 18.9767 51.0573 19.9192 52.3149 21.3169C53.5724 22.7146 54.3323 24.4891 54.4761 26.3638C52.627 26.0234 50.9424 25.0809 49.6849 23.6831C48.4273 22.2854 47.6675 20.5109 47.5236 18.6363ZM55.9999 21.3263C55.1209 19.7805 53.8962 18.459 52.4217 17.4651C50.9471 16.4713 49.2626 15.8321 47.4999 15.5975V9.63126C47.7924 9.68408 48.082 9.75209 48.3674 9.83501L57.2211 19.5725C56.7608 20.1181 56.3519 20.7052 55.9999 21.3263ZM57.5236 26.3625C57.6506 24.7116 58.2552 23.1333 59.2636 21.82L61.6011 24.3913C60.4462 25.4064 59.0366 26.0878 57.5236 26.3625ZM67.4999 8.00001V18C67.4984 18.5581 67.4566 19.1154 67.3749 19.6675C67.3233 20.024 67.1451 20.35 66.8728 20.586C66.6006 20.8219 66.2526 20.952 65.8924 20.9525C65.8196 20.9521 65.7469 20.9466 65.6749 20.9363C65.2812 20.8791 64.9264 20.6678 64.6884 20.349C64.4505 20.0302 64.349 19.6299 64.4061 19.2363C64.4349 19.0375 64.4561 18.8375 64.4711 18.6363C64.3761 18.6538 64.2799 18.6725 64.1849 18.6925C63.9906 18.7392 63.7889 18.7466 63.5918 18.7143C63.3946 18.6819 63.2058 18.6105 63.0366 18.5042C62.8674 18.398 62.7211 18.2589 62.6064 18.0954C62.4916 17.9318 62.4107 17.7469 62.3684 17.5516C62.3261 17.3563 62.3233 17.1545 62.36 16.9581C62.3968 16.7617 62.4724 16.5746 62.5825 16.4078C62.6925 16.2411 62.8348 16.098 63.0009 15.9869C63.1671 15.8759 63.3537 15.7992 63.5499 15.7613C63.8611 15.6938 64.1749 15.6363 64.4949 15.5975V9.63376C62.6201 9.96994 60.9125 10.9261 59.6461 12.3488C59.5148 12.4958 59.3558 12.6156 59.1782 12.7012C59.0006 12.7869 58.8079 12.8367 58.611 12.8478C58.2134 12.8703 57.8232 12.734 57.5261 12.4688C57.2291 12.2035 57.0496 11.8312 57.0271 11.4336C57.0046 11.036 57.1409 10.6458 57.4061 10.3488C58.0479 9.63137 58.7773 8.99763 59.5774 8.46251C58.5524 6.59626 56.9136 5.33751 55.9986 4.74251C55.2982 5.19961 54.6464 5.72738 54.0536 6.31751C53.7727 6.5993 53.3913 6.75794 52.9933 6.75852C52.5954 6.75911 52.2136 6.6016 51.9318 6.32063C51.65 6.03967 51.4913 5.65827 51.4907 5.26034C51.4902 4.86241 51.6477 4.48055 51.9286 4.19876C52.9309 3.19002 54.0761 2.33419 55.3274 1.65876C55.5358 1.55448 55.7656 1.50018 55.9986 1.50018C56.2317 1.50018 56.4615 1.55448 56.6699 1.65876C56.8361 1.74126 60.3399 3.53376 62.2624 7.12626C63.4649 6.71188 64.728 6.50025 65.9999 6.50001C66.3977 6.50001 66.7792 6.65804 67.0605 6.93935C67.3419 7.22065 67.4999 7.60218 67.4999 8.00001Z" fill="white"/>
</g>
<defs>
<clipPath id="clip0_27_1217">
<rect width="72" height="32" rx="5" fill="white"/>
</clipPath>
</defs>
</svg>
