<svg width="72" height="32" viewBox="0 0 72 32" fill="none" xmlns="http://www.w3.org/2000/svg">
<g clip-path="url(#clip0_27_1728)">
<path d="M24.9999 19C24.116 18.9995 23.2571 19.2933 22.5586 19.835L19.6699 17.585C19.8879 17.0851 20.0003 16.5454 19.9999 16C19.9999 15.9075 19.9999 15.815 19.9899 15.7238L21.6436 15.1725C22.1668 15.9794 22.9632 16.5708 23.8869 16.8384C24.8107 17.106 25.7999 17.0318 26.6734 16.6295C27.5468 16.2271 28.2461 15.5235 28.6431 14.6476C29.0401 13.7716 29.1082 12.782 28.835 11.8599C28.5618 10.9379 27.9655 10.1451 27.1554 9.62684C26.3453 9.1086 25.3756 8.89957 24.4239 9.03804C23.4722 9.17652 22.6023 9.65323 21.9734 10.3809C21.3446 11.1085 20.999 12.0383 20.9999 13C20.9999 13.0925 20.9999 13.185 21.0099 13.2763L19.3561 13.8275C18.9936 13.267 18.4966 12.8062 17.9103 12.487C17.3241 12.1678 16.6673 12.0004 15.9999 12C15.7791 12.0005 15.5588 12.0189 15.3411 12.055L14.4861 10.125C15.2244 9.53512 15.73 8.7029 15.9132 7.77585C16.0965 6.84881 15.9457 5.8868 15.4875 5.06035C15.0292 4.2339 14.2932 3.59637 13.4098 3.26077C12.5264 2.92516 11.5527 2.91315 10.6613 3.22686C9.76991 3.54058 9.01836 4.15976 8.53987 4.97466C8.06139 5.78956 7.88686 6.74755 8.04723 7.67883C8.2076 8.61012 8.69251 9.45455 9.416 10.0625C10.1395 10.6704 11.0549 11.0025 11.9999 11C12.2206 10.9995 12.4409 10.9811 12.6586 10.945L13.5136 12.87C12.7886 13.4439 12.2853 14.2517 12.0899 15.1555C11.8945 16.0593 12.0191 17.0029 12.4424 17.825L9.2286 20.68C8.41983 20.1348 7.43997 19.9032 6.47269 20.0288C5.50541 20.1543 4.61712 20.6283 3.97431 21.3619C3.33151 22.0955 2.97833 23.0384 2.98097 24.0138C2.98361 24.9892 3.3419 25.9301 3.98867 26.6602C4.63544 27.3904 5.52628 27.8595 6.49423 27.9798C7.46218 28.1001 8.44077 27.8633 9.24657 27.3137C10.0524 26.764 10.6301 25.9394 10.8714 24.9944C11.1127 24.0493 11.001 23.0486 10.5574 22.18L13.7711 19.325C14.4669 19.7935 15.2928 20.0307 16.1312 20.0029C16.9696 19.9751 17.7779 19.6836 18.4411 19.17L21.3299 21.42C21.1124 21.9184 21.0001 22.4563 20.9999 23C20.9999 23.7911 21.2344 24.5645 21.674 25.2223C22.1135 25.8801 22.7382 26.3928 23.4691 26.6955C24.2 26.9983 25.0043 27.0775 25.7802 26.9231C26.5561 26.7688 27.2689 26.3878 27.8283 25.8284C28.3877 25.269 28.7687 24.5563 28.923 23.7804C29.0773 23.0044 28.9981 22.2002 28.6954 21.4693C28.3926 20.7384 27.8799 20.1136 27.2221 19.6741C26.5643 19.2346 25.791 19 24.9999 19ZM24.9999 11C25.3954 11 25.7821 11.1173 26.111 11.3371C26.4399 11.5568 26.6962 11.8692 26.8476 12.2346C26.999 12.6001 27.0386 13.0022 26.9614 13.3902C26.8843 13.7781 26.6938 14.1345 26.4141 14.4142C26.1344 14.6939 25.778 14.8844 25.39 14.9616C25.0021 15.0387 24.5999 14.9991 24.2345 14.8478C23.869 14.6964 23.5567 14.44 23.3369 14.1111C23.1172 13.7822 22.9999 13.3956 22.9999 13C22.9999 12.4696 23.2106 11.9609 23.5856 11.5858C23.9607 11.2107 24.4694 11 24.9999 11ZM9.99985 7C9.99985 6.60444 10.1172 6.21776 10.3369 5.88886C10.5567 5.55996 10.869 5.30362 11.2345 5.15224C11.5999 5.00087 12.0021 4.96126 12.39 5.03843C12.778 5.1156 13.1344 5.30608 13.4141 5.58579C13.6938 5.86549 13.8843 6.22186 13.9614 6.60982C14.0386 6.99778 13.999 7.39992 13.8476 7.76537C13.6962 8.13082 13.4399 8.44318 13.111 8.66294C12.7821 8.8827 12.3954 9 11.9999 9C11.4694 9 10.9607 8.78929 10.5856 8.41421C10.2106 8.03914 9.99985 7.53043 9.99985 7ZM6.99985 26C6.60429 26 6.21761 25.8827 5.88871 25.6629C5.55981 25.4432 5.30347 25.1308 5.15209 24.7654C5.00072 24.3999 4.96111 23.9978 5.03828 23.6098C5.11545 23.2219 5.30593 22.8655 5.58564 22.5858C5.86534 22.3061 6.22171 22.1156 6.60967 22.0384C6.99763 21.9613 7.39977 22.0009 7.76522 22.1522C8.13067 22.3036 8.44303 22.56 8.66279 22.8889C8.88255 23.2178 8.99985 23.6044 8.99985 24C8.99985 24.5304 8.78914 25.0391 8.41407 25.4142C8.03899 25.7893 7.53029 26 6.99985 26ZM24.9999 25C24.6043 25 24.2176 24.8827 23.8887 24.6629C23.5598 24.4432 23.3035 24.1308 23.1521 23.7654C23.0007 23.3999 22.9611 22.9978 23.0383 22.6098C23.1155 22.2219 23.3059 21.8655 23.5856 21.5858C23.8653 21.3061 24.2217 21.1156 24.6097 21.0384C24.9976 20.9613 25.3998 21.0009 25.7652 21.1522C26.1307 21.3036 26.443 21.56 26.6628 21.8889C26.8826 22.2178 26.9999 22.6044 26.9999 23C26.9999 23.5304 26.7891 24.0391 26.4141 24.4142C26.039 24.7893 25.5303 25 24.9999 25Z" fill="white"/>
<path d="M65 19C64.284 18.9995 63.5784 19.171 62.9425 19.5L60.2687 17.42C60.4141 16.9883 60.4921 16.5367 60.5 16.0812L61.7937 15.6512C62.5255 16.3943 63.4925 16.8601 64.5297 16.9691C65.5668 17.0781 66.6096 16.8235 67.4798 16.2488C68.35 15.6741 68.9936 14.815 69.3006 13.8183C69.6076 12.8217 69.5589 11.7494 69.1628 10.7847C68.7667 9.81996 68.0479 9.02275 67.1292 8.52932C66.2105 8.03589 65.1489 7.87686 64.1259 8.07943C63.1029 8.28199 62.182 8.83356 61.5207 9.63987C60.8593 10.4462 60.4985 11.4572 60.5 12.5C60.5 12.6387 60.5075 12.7762 60.52 12.9125L59.5475 13.2362C59.1271 12.6961 58.5891 12.259 57.9744 11.9581C57.3596 11.6573 56.6844 11.5006 56 11.5C55.875 11.5 55.765 11.5 55.6487 11.515L55.0925 10.265C55.8517 9.54491 56.3362 8.58275 56.4627 7.54404C56.5892 6.50533 56.3498 5.455 55.7856 4.57373C55.2214 3.69247 54.3678 3.03536 53.3715 2.71546C52.3752 2.39555 51.2986 2.43285 50.3268 2.82092C49.355 3.209 48.5489 3.9236 48.047 4.84179C47.5452 5.75998 47.379 6.82436 47.5771 7.85183C47.7752 8.8793 48.3251 9.80563 49.1323 10.4715C49.9396 11.1373 50.9536 11.501 52 11.5C52.125 11.5 52.235 11.5 52.3512 11.485L52.9075 12.735C52.2485 13.3571 51.7932 14.1641 51.6015 15.0498C51.4099 15.9356 51.4908 16.8586 51.8337 17.6975L49.1737 20.0612C48.2443 19.5482 47.1635 19.3803 46.1223 19.5871C45.081 19.794 44.1464 20.3622 43.4837 21.1915C42.8209 22.0208 42.4727 23.0577 42.5006 24.1189C42.5284 25.1802 42.9306 26.1974 43.6359 26.9908C44.3412 27.7841 45.3043 28.3026 46.355 28.4546C47.4056 28.6065 48.4762 28.3821 49.3774 27.821C50.2786 27.2599 50.9524 26.3983 51.2797 25.3885C51.6071 24.3786 51.5669 23.2856 51.1662 22.3025L53.8262 19.9387C54.5352 20.3311 55.3372 20.5242 56.1471 20.4976C56.957 20.4709 57.7445 20.2256 58.4262 19.7875L60.875 21.695C60.4862 22.5828 60.3945 23.5723 60.6134 24.5164C60.8323 25.4605 61.3501 26.3087 62.0899 26.9348C62.8296 27.5609 63.7517 27.9315 64.719 27.9914C65.6863 28.0513 66.647 27.7973 67.4584 27.2672C68.2697 26.7372 68.8882 25.9593 69.2219 25.0495C69.5556 24.1396 69.5867 23.1463 69.3104 22.2174C69.0342 21.2884 68.4654 20.4735 67.6888 19.8938C66.9121 19.3141 65.9691 19.0006 65 19ZM65 11C65.2966 11 65.5866 11.088 65.8333 11.2528C66.08 11.4176 66.2723 11.6519 66.3858 11.926C66.4993 12.2001 66.529 12.5017 66.4711 12.7926C66.4133 13.0836 66.2704 13.3509 66.0606 13.5607C65.8508 13.7704 65.5836 13.9133 65.2926 13.9712C65.0016 14.0291 64.7 13.9993 64.4259 13.8858C64.1519 13.7723 63.9176 13.58 63.7528 13.3334C63.5879 13.0867 63.5 12.7967 63.5 12.5C63.5 12.1022 63.658 11.7206 63.9393 11.4393C64.2206 11.158 64.6021 11 65 11ZM50.5 7C50.5 6.70333 50.5879 6.41332 50.7528 6.16664C50.9176 5.91997 51.1519 5.72771 51.4259 5.61418C51.7 5.50065 52.0016 5.47094 52.2926 5.52882C52.5836 5.5867 52.8508 5.72956 53.0606 5.93934C53.2704 6.14912 53.4133 6.41639 53.4711 6.70736C53.529 6.99833 53.4993 7.29993 53.3858 7.57402C53.2723 7.84811 53.08 8.08238 52.8333 8.2472C52.5866 8.41203 52.2966 8.5 52 8.5C51.6021 8.5 51.2206 8.34196 50.9393 8.06066C50.658 7.77935 50.5 7.39782 50.5 7ZM47 25.5C46.7033 25.5 46.4133 25.412 46.1666 25.2472C45.9199 25.0824 45.7277 24.8481 45.6141 24.574C45.5006 24.2999 45.4709 23.9983 45.5288 23.7074C45.5867 23.4164 45.7295 23.1491 45.9393 22.9393C46.1491 22.7296 46.4164 22.5867 46.7073 22.5288C46.9983 22.4709 47.2999 22.5006 47.574 22.6142C47.8481 22.7277 48.0823 22.92 48.2472 23.1666C48.412 23.4133 48.5 23.7033 48.5 24C48.5 24.3978 48.3419 24.7794 48.0606 25.0607C47.7793 25.342 47.3978 25.5 47 25.5ZM54.5 16C54.5 15.7033 54.5879 15.4133 54.7528 15.1666C54.9176 14.92 55.1519 14.7277 55.4259 14.6142C55.7 14.5006 56.0016 14.4709 56.2926 14.5288C56.5836 14.5867 56.8508 14.7296 57.0606 14.9393C57.2704 15.1491 57.4133 15.4164 57.4711 15.7074C57.529 15.9983 57.4993 16.2999 57.3858 16.574C57.2723 16.8481 57.08 17.0824 56.8333 17.2472C56.5866 17.412 56.2966 17.5 56 17.5C55.6021 17.5 55.2206 17.342 54.9393 17.0607C54.658 16.7794 54.5 16.3978 54.5 16ZM65 25C64.7033 25 64.4133 24.912 64.1666 24.7472C63.9199 24.5824 63.7277 24.3481 63.6141 24.074C63.5006 23.7999 63.4709 23.4983 63.5288 23.2074C63.5867 22.9164 63.7295 22.6491 63.9393 22.4393C64.1491 22.2296 64.4164 22.0867 64.7073 22.0288C64.9983 21.9709 65.2999 22.0006 65.574 22.1142C65.8481 22.2277 66.0823 22.42 66.2472 22.6666C66.412 22.9133 66.5 23.2033 66.5 23.5C66.5 23.8978 66.3419 24.2794 66.0606 24.5607C65.7793 24.842 65.3978 25 65 25Z" fill="white"/>
</g>
<defs>
<clipPath id="clip0_27_1728">
<rect width="72" height="32" rx="5" fill="white"/>
</clipPath>
</defs>
</svg>
