<svg width="72" height="32" viewBox="0 0 72 32" fill="none" xmlns="http://www.w3.org/2000/svg">
<g clip-path="url(#clip0_27_1738)">
<path d="M26 4H6C5.46957 4 4.96086 4.21071 4.58579 4.58579C4.21071 4.96086 4 5.46957 4 6V26C4 26.5304 4.21071 27.0391 4.58579 27.4142C4.96086 27.7893 5.46957 28 6 28H26C26.5304 28 27.0391 27.7893 27.4142 27.4142C27.7893 27.0391 28 26.5304 28 26V6C28 5.46957 27.7893 4.96086 27.4142 4.58579C27.0391 4.21071 26.5304 4 26 4ZM23 23H10C9.73478 23 9.48043 22.8946 9.29289 22.7071C9.10536 22.5196 9 22.2652 9 22C9 21.7348 9.10536 21.4804 9.29289 21.2929C9.48043 21.1054 9.73478 21 10 21H23C23.2652 21 23.5196 21.1054 23.7071 21.2929C23.8946 21.4804 24 21.7348 24 22C24 22.2652 23.8946 22.5196 23.7071 22.7071C23.5196 22.8946 23.2652 23 23 23ZM23.2938 14.9563L10.2937 18.9562C10.1682 18.9948 10.0362 19.0083 9.90545 18.9959C9.77467 18.9835 9.64761 18.9454 9.53154 18.8839C9.41547 18.8224 9.31265 18.7386 9.22895 18.6373C9.14526 18.5361 9.08233 18.4193 9.04375 18.2938C9.00517 18.1682 8.99171 18.0362 9.00413 17.9054C9.01654 17.7747 9.0546 17.6476 9.11612 17.5315C9.17764 17.4155 9.26141 17.3126 9.36267 17.229C9.46392 17.1453 9.58067 17.0823 9.70625 17.0438L19.6 14L9.70625 10.9563C9.45264 10.8783 9.24036 10.7029 9.11612 10.4685C8.99187 10.234 8.96584 9.95986 9.04375 9.70625C9.12166 9.45264 9.29712 9.24036 9.53154 9.11612C9.76596 8.99187 10.0401 8.96584 10.2937 9.04375L23.2938 13.0437C23.4985 13.1064 23.6778 13.2331 23.8051 13.4053C23.9325 13.5774 24.0012 13.7859 24.0012 14C24.0012 14.2141 23.9325 14.4226 23.8051 14.5947C23.6778 14.7669 23.4985 14.8936 23.2938 14.9563Z" fill="white"/>
<path d="M46.4813 18.5925L61.6613 13L46.4813 7.40751C46.108 7.26993 45.8047 6.98969 45.638 6.62845C45.4713 6.26721 45.455 5.85455 45.5926 5.48126C45.7301 5.10796 46.0104 4.80462 46.3716 4.63794C46.7329 4.47127 47.1455 4.45493 47.5188 4.59251L66.5188 11.5925C66.8067 11.6986 67.0551 11.8904 67.2306 12.1421C67.4061 12.3938 67.5002 12.6932 67.5002 13C67.5002 13.3068 67.4061 13.6063 67.2306 13.8579C67.0551 14.1096 66.8067 14.3014 66.5188 14.4075L47.5188 21.4075C47.1455 21.5451 46.7329 21.5287 46.3716 21.3621C46.0104 21.1954 45.7301 20.892 45.5926 20.5188C45.455 20.1455 45.4713 19.7328 45.638 19.3716C45.8047 19.0103 46.108 18.7301 46.4813 18.5925ZM66.0001 23.5H47.0001C46.6022 23.5 46.2207 23.658 45.9394 23.9393C45.6581 24.2207 45.5001 24.6022 45.5001 25C45.5001 25.3978 45.6581 25.7794 45.9394 26.0607C46.2207 26.342 46.6022 26.5 47.0001 26.5H66.0001C66.3979 26.5 66.7794 26.342 67.0607 26.0607C67.342 25.7794 67.5001 25.3978 67.5001 25C67.5001 24.6022 67.342 24.2207 67.0607 23.9393C66.7794 23.658 66.3979 23.5 66.0001 23.5Z" fill="white"/>
</g>
<defs>
<clipPath id="clip0_27_1738">
<rect width="72" height="32" rx="5" fill="white"/>
</clipPath>
</defs>
</svg>
