<svg width="72" height="32" viewBox="0 0 72 32" fill="none" xmlns="http://www.w3.org/2000/svg">
<g clip-path="url(#clip0_27_1733)">
<path d="M26 4H6C5.46957 4 4.96086 4.21071 4.58579 4.58579C4.21071 4.96086 4 5.46957 4 6V26C4 26.5304 4.21071 27.0391 4.58579 27.4142C4.96086 27.7893 5.46957 28 6 28H26C26.5304 28 27.0391 27.7893 27.4142 27.4142C27.7893 27.0391 28 26.5304 28 26V6C28 5.46957 27.7893 4.96086 27.4142 4.58579C27.0391 4.21071 26.5304 4 26 4ZM23.4188 16.9075L10.4187 22.9075C10.1797 23.0084 9.91073 23.0124 9.66876 22.9186C9.42679 22.8249 9.23073 22.6408 9.12201 22.4051C9.01329 22.1695 9.00041 21.9009 9.08611 21.6559C9.1718 21.411 9.34935 21.209 9.58125 21.0925L20.6138 16L9.58125 10.9075C9.45769 10.8554 9.34589 10.7789 9.25248 10.6827C9.15907 10.5865 9.08597 10.4724 9.03752 10.3474C8.98908 10.2224 8.96628 10.0888 8.97048 9.9548C8.97469 9.82076 9.00581 9.68894 9.062 9.56717C9.11818 9.44541 9.19829 9.33619 9.29754 9.24601C9.3968 9.15583 9.51318 9.08654 9.63976 9.04225C9.76634 8.99797 9.90053 8.9796 10.0344 8.98823C10.1682 8.99686 10.2989 9.03232 10.4187 9.0925L23.4188 15.0925C23.5919 15.1727 23.7386 15.3007 23.8413 15.4615C23.9441 15.6223 23.9987 15.8092 23.9987 16C23.9987 16.1908 23.9441 16.3777 23.8413 16.5385C23.7386 16.6993 23.5919 16.8273 23.4188 16.9075Z" fill="white"/>
<path d="M68.4999 16C68.4999 16.2838 68.4192 16.5618 68.2675 16.8017C68.1157 17.0416 67.8989 17.2334 67.6424 17.355L48.6424 26.355C48.2836 26.52 47.8742 26.5369 47.5031 26.402C47.1319 26.267 46.8289 25.9911 46.6599 25.6342C46.4909 25.2772 46.4695 24.868 46.6003 24.4954C46.7311 24.1227 47.0036 23.8167 47.3587 23.6437L63.4999 16L47.3587 8.35625C47.0036 8.18329 46.7311 7.87727 46.6003 7.50463C46.4695 7.13199 46.4909 6.72279 46.6599 6.36584C46.8289 6.00889 47.1319 5.733 47.5031 5.59804C47.8742 5.46309 48.2836 5.47996 48.6424 5.645L67.6424 14.645C67.8989 14.7666 68.1157 14.9584 68.2675 15.1983C68.4192 15.4382 68.4999 15.7162 68.4999 16Z" fill="white"/>
</g>
<defs>
<clipPath id="clip0_27_1733">
<rect width="72" height="32" rx="5" fill="white"/>
</clipPath>
</defs>
</svg>
