<svg width="72" height="32" viewBox="0 0 72 32" fill="none" xmlns="http://www.w3.org/2000/svg">
<g clip-path="url(#clip0_27_3784)">
<path d="M31.2075 5.79251L26.2075 0.792507C26.0199 0.604866 25.7654 0.499451 25.5 0.499451C25.2347 0.499451 24.9802 0.604866 24.7925 0.792507C24.6049 0.980147 24.4995 1.23464 24.4995 1.50001C24.4995 1.76537 24.6049 2.01987 24.7925 2.20751L25.0863 2.50001L17.565 10.02C14.7163 8.53751 11.5263 8.66126 9.59377 10.5925C9.08378 11.1047 8.68429 11.716 8.42002 12.3888C8.33886 12.5711 8.20646 12.726 8.03891 12.8345C7.87136 12.943 7.67589 13.0005 7.47627 13C5.65252 13.0613 4.06877 13.715 2.89502 14.8888C1.38502 16.4025 0.750017 18.575 1.09252 21.0088C1.42502 23.3375 2.63377 25.6438 4.50002 27.5C6.36627 29.3563 8.66752 30.57 11 30.9025C11.418 30.965 11.8399 30.9976 12.2625 31C14.1775 31 15.8663 30.3463 17.1075 29.105C18.2813 27.9313 18.935 26.3475 18.9963 24.5238C18.9961 24.3237 19.0541 24.128 19.1633 23.9604C19.2725 23.7928 19.4282 23.6606 19.6113 23.58C20.2841 23.3159 20.8955 22.9164 21.4075 22.4063C23.3388 20.4738 23.4625 17.2813 21.98 14.435L29.5 6.91376L29.7925 7.20751C29.8854 7.30042 29.9957 7.37412 30.1171 7.4244C30.2385 7.47468 30.3686 7.50056 30.5 7.50056C30.6314 7.50056 30.7615 7.47468 30.8829 7.4244C31.0043 7.37412 31.1146 7.30042 31.2075 7.20751C31.3004 7.1146 31.3741 7.0043 31.4244 6.8829C31.4747 6.76151 31.5006 6.6314 31.5006 6.50001C31.5006 6.36861 31.4747 6.2385 31.4244 6.11711C31.3741 5.99572 31.3004 5.88542 31.2075 5.79251ZM11.7075 25.7063C11.52 25.8937 11.2657 25.9989 11.0006 25.9989C10.7355 25.9989 10.4813 25.8937 10.2938 25.7063L6.29377 21.7063C6.10629 21.5186 6.00104 21.2642 6.00115 20.9989C6.00127 20.7337 6.10675 20.4794 6.29439 20.2919C6.48203 20.1044 6.73646 19.9992 7.00171 19.9993C7.26696 19.9994 7.52129 20.1049 7.70877 20.2925L11.7088 24.2925C11.896 24.4802 12.001 24.7345 12.0008 24.9996C12.0006 25.2647 11.8951 25.5189 11.7075 25.7063ZM16.975 19.9738C16.4856 20.4634 15.862 20.7969 15.183 20.932C14.504 21.0672 13.8002 20.998 13.1606 20.7331C12.521 20.4682 11.9742 20.0196 11.5896 19.444C11.205 18.8684 10.9996 18.1917 10.9996 17.4994C10.9996 16.8071 11.205 16.1303 11.5896 15.5547C11.9742 14.9791 12.521 14.5305 13.1606 14.2657C13.8002 14.0008 14.504 13.9316 15.183 14.0667C15.862 14.2019 16.4856 14.5354 16.975 15.025C17.6311 15.6813 17.9996 16.5714 17.9996 17.4994C17.9996 18.4274 17.6311 19.3174 16.975 19.9738ZM20.8575 12.7238C20.6221 12.4327 20.3717 12.154 20.1075 11.8888C19.8421 11.6242 19.563 11.3739 19.2713 11.1388L22 8.41376L23.5863 10L20.8575 12.7238ZM25 8.58501L23.415 7.00001L26.5 3.91376L28.0863 5.50001L25 8.58501Z" fill="white"/>
<path d="M51.5611 23.4375C51.7007 23.577 51.8113 23.7427 51.8869 23.925C51.9624 24.1073 52.0012 24.3027 52.0012 24.5C52.0012 24.6973 51.9624 24.8927 51.8869 25.075C51.8113 25.2573 51.7007 25.423 51.5611 25.5625C51.4216 25.702 51.256 25.8127 51.0737 25.8882C50.8914 25.9637 50.696 26.0026 50.4986 26.0026C50.3013 26.0026 50.1059 25.9637 49.9236 25.8882C49.7413 25.8127 49.5757 25.702 49.4361 25.5625L46.4361 22.5625C46.1543 22.2807 45.996 21.8985 45.996 21.5C45.996 21.1015 46.1543 20.7193 46.4361 20.4375C46.7179 20.1557 47.1001 19.9974 47.4986 19.9974C47.8972 19.9974 48.2793 20.1557 48.5611 20.4375L51.5611 23.4375ZM53.9999 15C53.4065 15 52.8265 15.1759 52.3332 15.5056C51.8398 15.8352 51.4553 16.3038 51.2283 16.8519C51.0012 17.4001 50.9418 18.0033 51.0575 18.5853C51.1733 19.1672 51.459 19.7018 51.8786 20.1213C52.2981 20.5409 52.8327 20.8266 53.4146 20.9424C53.9966 21.0581 54.5998 20.9987 55.1479 20.7716C55.6961 20.5446 56.1647 20.1601 56.4943 19.6667C56.8239 19.1734 56.9999 18.5933 56.9999 18C56.9999 17.2043 56.6838 16.4413 56.1212 15.8787C55.5586 15.3161 54.7955 15 53.9999 15ZM71.5611 7.55999C71.3341 7.78738 71.0401 7.93586 70.7223 7.98356C70.4046 8.03127 70.0799 7.97569 69.7961 7.82499L62.7499 14.875C63.0761 15.6201 63.3014 16.4053 63.4199 17.21C63.7336 19.4075 63.1449 21.3787 61.7611 22.7625C61.201 23.3217 60.5317 23.7596 59.7949 24.0487C59.7025 24.0948 59.6253 24.1664 59.5723 24.255C59.5194 24.3436 59.4929 24.4456 59.4961 24.5487C59.4299 26.5 58.7261 28.2012 57.4611 29.4662C56.1249 30.7962 54.3124 31.5 52.2661 31.5C51.8157 31.4991 51.3658 31.4666 50.9199 31.4025C48.4861 31.055 46.0786 29.7962 44.1411 27.8587C42.2036 25.9212 40.9449 23.5137 40.5974 21.08C40.2224 18.4862 40.9174 16.1625 42.5411 14.5387C43.8061 13.2737 45.5074 12.57 47.4586 12.5C47.5618 12.5032 47.6638 12.4768 47.7524 12.4238C47.841 12.3709 47.9126 12.2936 47.9586 12.2012C48.2472 11.4661 48.6837 10.7981 49.2411 10.2387C50.6249 8.85499 52.5961 8.26624 54.7936 8.57999C55.597 8.69878 56.381 8.9241 57.1249 9.24999L64.1749 2.20374C64.0052 1.88624 63.9554 1.5183 64.0345 1.16709C64.1136 0.815891 64.3164 0.504856 64.6058 0.290775C64.8953 0.0766936 65.252 -0.0261524 65.611 0.00101349C65.97 0.0281793 66.3072 0.183545 66.5611 0.438745L71.5611 5.43874C71.8424 5.72005 72.0004 6.10156 72.0004 6.49937C72.0004 6.89718 71.8424 7.27869 71.5611 7.55999ZM67.6249 5.74999L66.2499 4.37499L63.8749 6.74999L65.2499 8.12499L67.6249 5.74999ZM58.3361 13.66C56.9411 12.2612 55.1736 11.5 53.6674 11.5C52.7561 11.5 51.9411 11.7762 51.3624 12.3562C51.0948 12.6282 50.8863 12.9525 50.7499 13.3087C50.4895 13.945 50.0488 14.4914 49.4821 14.8807C48.9154 15.27 48.2473 15.4852 47.5599 15.5C46.7386 15.5275 45.5686 15.75 44.6624 16.6575C43.7224 17.5975 43.3336 19.0162 43.5674 20.6575C43.8236 22.4537 44.7811 24.2587 46.2624 25.74C47.7436 27.2212 49.5486 28.1787 51.3449 28.435C52.9811 28.6687 54.3999 28.28 55.3449 27.34C56.2511 26.4337 56.4699 25.2637 56.5024 24.4425C56.5165 23.755 56.7311 23.0865 57.12 22.5194C57.5088 21.9522 58.0549 21.511 58.6911 21.25C59.0465 21.1117 59.3695 20.9014 59.6399 20.6325C61.1786 19.0987 60.5836 15.9037 58.3399 13.66H58.3361ZM61.1249 12.2587L63.1249 10.25L61.7499 8.87499L59.7411 10.875C59.9911 11.0837 60.2286 11.3025 60.4611 11.5337C60.6936 11.765 60.9111 12.0112 61.1249 12.2587Z" fill="white"/>
</g>
<defs>
<clipPath id="clip0_27_3784">
<rect width="72" height="32" rx="5" fill="white"/>
</clipPath>
</defs>
</svg>
