<svg width="72" height="32" viewBox="0 0 72 32" fill="none" xmlns="http://www.w3.org/2000/svg">
<g clip-path="url(#clip0_27_1222)">
<path d="M22.1775 25.8275L26.125 17.1338C27.3836 16.0799 28.2876 14.6644 28.7142 13.0793C29.1409 11.4941 29.0696 9.81611 28.51 8.27289C27.9504 6.72966 26.9296 5.39593 25.5861 4.45266C24.2427 3.50938 22.6415 3.00223 21 3C20.9447 3.00023 20.8896 3.00483 20.835 3.01375L3.67125 5.875C3.2043 5.95281 2.78009 6.19374 2.47407 6.55491C2.16805 6.91609 2.00007 7.37411 2 7.8475V14.1525C2.00007 14.6259 2.16805 15.0839 2.47407 15.4451C2.78009 15.8063 3.2043 16.0472 3.67125 16.125L16 18.18V25C16 25.5304 16.2107 26.0391 16.5858 26.4142C16.9609 26.7893 17.4696 27 18 27C18 28.3261 18.5268 29.5979 19.4645 30.5355C20.4021 31.4732 21.6739 32 23 32H25C25.2652 32 25.5196 31.8946 25.7071 31.7071C25.8946 31.5196 26 31.2652 26 31C26 30.7348 25.8946 30.4804 25.7071 30.2929C25.5196 30.1054 25.2652 30 25 30H23C22.2044 30 21.4413 29.6839 20.8787 29.1213C20.3161 28.5587 20 27.7956 20 27H20.3563C20.7404 27.0001 21.1164 26.8896 21.4393 26.6816C21.7623 26.4737 22.0186 26.1772 22.1775 25.8275ZM24 11C24 11.5933 23.8241 12.1734 23.4944 12.6667C23.1648 13.1601 22.6962 13.5446 22.1481 13.7716C21.5999 13.9987 20.9967 14.0581 20.4147 13.9424C19.8328 13.8266 19.2982 13.5409 18.8787 13.1213C18.4591 12.7018 18.1734 12.1672 18.0576 11.5853C17.9419 11.0033 18.0013 10.4001 18.2284 9.85195C18.4554 9.30377 18.8399 8.83524 19.3333 8.50559C19.8266 8.17595 20.4067 8 21 8C21.7956 8 22.5587 8.31607 23.1213 8.87868C23.6839 9.44129 24 10.2044 24 11ZM20.835 18.9862C20.8896 18.9952 20.9447 18.9998 21 19C21.7538 18.9998 22.5037 18.8929 23.2275 18.6825L20.3525 25H18V18.5138L20.835 18.9862Z" fill="white"/>
<path d="M65 11C65 10.2089 64.7654 9.43554 64.3259 8.77774C63.8864 8.11994 63.2617 7.60725 62.5308 7.3045C61.7999 7.00175 60.9956 6.92254 60.2197 7.07688C59.4437 7.23122 58.731 7.61218 58.1716 8.17159C57.6122 8.731 57.2312 9.44373 57.0769 10.2197C56.9226 10.9956 57.0018 11.7998 57.3045 12.5308C57.6073 13.2617 58.12 13.8864 58.7778 14.3259C59.4356 14.7654 60.2089 15 61 15C62.0609 15 63.0783 14.5786 63.8285 13.8284C64.5786 13.0783 65 12.0609 65 11ZM61 12C60.8023 12 60.6089 11.9414 60.4445 11.8315C60.28 11.7216 60.1518 11.5654 60.0762 11.3827C60.0005 11.2 59.9807 10.9989 60.0192 10.8049C60.0578 10.6109 60.1531 10.4328 60.2929 10.2929C60.4328 10.1531 60.611 10.0578 60.8049 10.0192C60.9989 9.98065 61.2 10.0005 61.3827 10.0761C61.5654 10.1518 61.7216 10.28 61.8315 10.4444C61.9414 10.6089 62 10.8022 62 11C62 11.2652 61.8947 11.5196 61.7071 11.7071C61.5196 11.8947 61.2653 12 61 12ZM62.6325 26.035L66.5388 17.44C67.8527 16.3082 68.789 14.8015 69.222 13.1222C69.6549 11.4429 69.5639 9.67136 68.9611 8.0453C68.3582 6.41924 67.2724 5.01648 65.8494 4.02527C64.4264 3.03406 62.7342 2.50183 61 2.50002C60.9163 2.49958 60.8326 2.50627 60.75 2.52002L43.5888 5.38127C43.0044 5.4772 42.4733 5.77807 42.0905 6.22998C41.7078 6.68189 41.4984 7.25531 41.5 7.84752V14.1525C41.497 14.7458 41.7056 15.3207 42.0885 15.7739C42.4714 16.2271 43.0033 16.5289 43.5888 16.625L55.5 18.6038V25C55.5007 25.5908 55.7107 26.1623 56.0926 26.613C56.4745 27.0638 57.0036 27.3647 57.5863 27.4625C57.8137 28.7335 58.4804 29.8841 59.4699 30.7135C60.4594 31.5429 61.7089 31.9982 63 32H65C65.3979 32 65.7794 31.842 66.0607 31.5607C66.342 31.2794 66.5 30.8978 66.5 30.5C66.5 30.1022 66.342 29.7207 66.0607 29.4394C65.7794 29.1581 65.3979 29 65 29H63C62.5092 29 62.0293 28.8555 61.6201 28.5845C61.2109 28.3135 60.8904 27.9281 60.6988 27.4763C61.1162 27.4176 61.5121 27.2549 61.85 27.003C62.1879 26.7511 62.4571 26.4182 62.6325 26.035ZM44.5 8.27127L61.1163 5.50002C62.575 5.50002 63.9739 6.07948 65.0054 7.11093C66.0368 8.14238 66.6163 9.54133 66.6163 11C66.6163 12.4587 66.0368 13.8577 65.0054 14.8891C63.9739 15.9206 62.575 16.5 61.1163 16.5L44.5 13.7288V8.27127ZM60.75 19.48C60.8326 19.4938 60.9163 19.5005 61 19.5C61.4543 19.4996 61.9079 19.4628 62.3563 19.39L60.0338 24.5H58.5V19.1038L60.75 19.48Z" fill="white"/>
</g>
<defs>
<clipPath id="clip0_27_1222">
<rect width="72" height="32" rx="5" fill="white"/>
</clipPath>
</defs>
</svg>
