<svg width="72" height="32" viewBox="0 0 72 32" fill="none" xmlns="http://www.w3.org/2000/svg">
<g clip-path="url(#clip0_27_1232)">
<path d="M31.4175 14L22.985 5.51002C20.7329 3.26243 17.6811 2.00012 14.4993 2.00012C11.3176 2.00012 8.26581 3.26243 6.01372 5.51002L6.00247 5.52127L4.28122 7.30002C4.10292 7.49163 4.00685 7.74552 4.01364 8.00717C4.02043 8.26883 4.12954 8.51739 4.31754 8.6995C4.50554 8.88161 4.75745 8.98276 5.01919 8.98122C5.28092 8.97968 5.53163 8.87558 5.71747 8.69127L7.43372 6.91877C8.12421 6.22842 8.91217 5.64303 9.77247 5.18127L15.585 11L3.58497 23C3.39921 23.1857 3.25185 23.4062 3.15131 23.6489C3.05077 23.8916 2.99902 24.1517 2.99902 24.4144C2.99902 24.6771 3.05077 24.9372 3.15131 25.1799C3.25185 25.4225 3.39921 25.643 3.58497 25.8288L6.17122 28.415C6.35694 28.6008 6.57744 28.7481 6.82012 28.8487C7.06281 28.9492 7.32291 29.001 7.5856 29.001C7.84828 29.001 8.10839 28.9492 8.35107 28.8487C8.59375 28.7481 8.81425 28.6008 8.99997 28.415L21 16.415L25 20.415C25.1857 20.6008 25.4062 20.7481 25.6489 20.8487C25.8916 20.9492 26.1517 21.001 26.4143 21.001C26.677 21.001 26.9371 20.9492 27.1798 20.8487C27.4225 20.7481 27.643 20.6008 27.8287 20.415L31.415 16.8288C31.6009 16.6432 31.7485 16.4228 31.8492 16.1802C31.95 15.9377 32.0019 15.6776 32.0022 15.4149C32.0024 15.1522 31.9509 14.8921 31.8506 14.6493C31.7502 14.4065 31.6031 14.1859 31.4175 14ZM20.2925 14.2913L17.5 17.0838L14.9137 14.5L17.7075 11.7063C17.8004 11.6134 17.8742 11.5031 17.9245 11.3817C17.9749 11.2603 18.0008 11.1302 18.0008 10.9988C18.0008 10.8673 17.9749 10.7372 17.9245 10.6158C17.8742 10.4944 17.8004 10.3841 17.7075 10.2913L11.79 4.37502C13.4996 3.89351 15.3067 3.87606 17.0253 4.32445C18.744 4.77284 20.3122 5.67089 21.5687 6.92627L27.0962 12.49L23.5 16.0825L21.7075 14.29C21.6146 14.197 21.5043 14.1233 21.3829 14.073C21.2615 14.0226 21.1314 13.9967 21 13.9967C20.8686 13.9967 20.7384 14.0226 20.617 14.073C20.4956 14.1233 20.3853 14.197 20.2925 14.29V14.2913ZM26.4175 18.9988L24.9175 17.4988L28.5 13.9063L30 15.4063L26.4175 18.9988Z" fill="white"/>
<path d="M71.2726 13.1463L63.3389 5.15626C60.9928 2.81509 57.8139 1.50024 54.4995 1.50024C51.1851 1.50024 48.0062 2.81509 45.6601 5.15626L45.6439 5.17376L43.9214 6.95126C43.6446 7.23703 43.4926 7.62107 43.4989 8.01888C43.5052 8.41669 43.6693 8.79569 43.9551 9.07251C44.2409 9.34933 44.6249 9.50129 45.0227 9.49496C45.4205 9.48863 45.7996 9.32453 46.0764 9.03876L47.7901 7.27001C48.3575 6.70284 48.9947 6.21013 49.6864 5.80376L54.8751 11L43.2314 22.645C42.9991 22.8772 42.8149 23.1528 42.6892 23.4562C42.5635 23.7596 42.4988 24.0847 42.4988 24.4131C42.4988 24.7415 42.5635 25.0667 42.6892 25.3701C42.8149 25.6735 42.9991 25.9491 43.2314 26.1813L45.8176 28.7675C46.2864 29.2362 46.9222 29.4995 47.5851 29.4995C48.248 29.4995 48.8838 29.2362 49.3526 28.7675L61.0001 17.125L61.1889 17.3138L64.1451 20.2713C64.3773 20.5035 64.6529 20.6878 64.9563 20.8135C65.2597 20.9392 65.5849 21.0039 65.9132 21.0039C66.2416 21.0039 66.5668 20.9392 66.8702 20.8135C67.1736 20.6878 67.4492 20.5035 67.6814 20.2713L71.2676 16.6838C71.5004 16.4519 71.6852 16.1764 71.8114 15.8731C71.9377 15.5698 72.0029 15.2446 72.0033 14.916C72.0038 14.5875 71.9395 14.2621 71.8141 13.9584C71.6887 13.6548 71.5047 13.3788 71.2726 13.1463ZM47.5851 26.2925L45.7101 24.4175L53.5001 16.625L55.3751 18.5L47.5851 26.2925ZM57.5001 16.375L55.6251 14.5L58.0639 12.0613C58.2037 11.9219 58.3147 11.7563 58.3904 11.574C58.4661 11.3917 58.5051 11.1962 58.5051 10.9988C58.5051 10.8013 58.4661 10.6059 58.3904 10.4235C58.3147 10.2412 58.2037 10.0756 58.0639 9.93626L52.7801 4.65501C54.2929 4.37545 55.8509 4.46774 57.3201 4.92393C58.7892 5.38012 60.1255 6.18654 61.2139 7.27376L65.1439 11.2325L62.2501 14.125L62.0614 13.9363C61.922 13.7964 61.7564 13.6855 61.5741 13.6098C61.3918 13.5341 61.1963 13.4951 60.9989 13.4951C60.8015 13.4951 60.606 13.5341 60.4236 13.6098C60.2413 13.6855 60.0757 13.7964 59.9364 13.9363L57.5001 16.375ZM65.9151 17.7888L64.3751 16.25L67.2614 13.3638L68.7989 14.9125L65.9151 17.7888Z" fill="white"/>
</g>
<defs>
<clipPath id="clip0_27_1232">
<rect width="72" height="32" rx="5" fill="white"/>
</clipPath>
</defs>
</svg>
