<svg width="72" height="32" viewBox="0 0 72 32" fill="none" xmlns="http://www.w3.org/2000/svg">
<g clip-path="url(#clip0_27_1242)">
<path d="M29.9863 24.765L28.2038 9.765C28.146 9.27627 27.91 8.82602 27.5411 8.50039C27.1721 8.17475 26.696 7.99659 26.2038 8H22.0001C22.0001 6.4087 21.3679 4.88258 20.2427 3.75736C19.1175 2.63214 17.5914 2 16.0001 2C14.4088 2 12.8827 2.63214 11.7574 3.75736C10.6322 4.88258 10.0001 6.4087 10.0001 8H5.79134C5.29922 7.99659 4.82312 8.17475 4.45412 8.50039C4.08513 8.82602 3.84915 9.27627 3.79134 9.765L2.00884 24.765C1.97617 25.045 2.00305 25.3287 2.08771 25.5975C2.17237 25.8664 2.3129 26.1143 2.50009 26.325C2.68863 26.5366 2.91966 26.7061 3.17812 26.8224C3.43659 26.9387 3.71666 26.9992 4.00009 27H27.9901C28.2752 27.0006 28.5572 26.9408 28.8175 26.8245C29.0778 26.7081 29.3104 26.5379 29.5001 26.325C29.6864 26.1139 29.826 25.8658 29.9098 25.5969C29.9936 25.3281 30.0197 25.0446 29.9863 24.765ZM12.0001 13C12.0001 13.2652 11.8947 13.5196 11.7072 13.7071C11.5197 13.8946 11.2653 14 11.0001 14C10.7349 14 10.4805 13.8946 10.293 13.7071C10.1054 13.5196 10.0001 13.2652 10.0001 13V11C10.0001 10.7348 10.1054 10.4804 10.293 10.2929C10.4805 10.1054 10.7349 10 11.0001 10C11.2653 10 11.5197 10.1054 11.7072 10.2929C11.8947 10.4804 12.0001 10.7348 12.0001 11V13ZM16.0001 4C17.061 4 18.0784 4.42143 18.8285 5.17157C19.5787 5.92172 20.0001 6.93913 20.0001 8H12.0001C12.0001 6.93913 12.4215 5.92172 13.1717 5.17157C13.9218 4.42143 14.9392 4 16.0001 4ZM22.0001 13C22.0001 13.2652 21.8947 13.5196 21.7072 13.7071C21.5197 13.8946 21.2653 14 21.0001 14C20.7349 14 20.4805 13.8946 20.293 13.7071C20.1054 13.5196 20.0001 13.2652 20.0001 13V11C20.0001 10.7348 20.1054 10.4804 20.293 10.2929C20.4805 10.1054 20.7349 10 21.0001 10C21.2653 10 21.5197 10.1054 21.7072 10.2929C21.8947 10.4804 22.0001 10.7348 22.0001 11V13Z" fill="white"/>
<path d="M70.4826 24.7062L68.7013 9.70623C68.6276 9.09727 68.3333 8.53644 67.8739 8.12987C67.4146 7.72331 66.8222 7.49921 66.2088 7.49998H62.4788C62.3469 5.87232 61.6071 4.35396 60.4067 3.24688C59.2062 2.13981 57.6331 1.52515 56.0001 1.52515C54.3671 1.52515 52.7939 2.13981 51.5935 3.24688C50.393 4.35396 49.6533 5.87232 49.5213 7.49998H45.7913C45.1779 7.49921 44.5855 7.72331 44.1262 8.12987C43.6669 8.53644 43.3725 9.09727 43.2988 9.70623L41.5176 24.7062C41.476 25.0577 41.5095 25.414 41.6159 25.7516C41.7223 26.0891 41.8991 26.4002 42.1348 26.6643C42.3704 26.9284 42.6594 27.1395 42.9827 27.2835C43.306 27.4276 43.6561 27.5014 44.0101 27.5H67.9901C68.344 27.5014 68.6942 27.4276 69.0175 27.2835C69.3407 27.1395 69.6297 26.9284 69.8654 26.6643C70.101 26.4002 70.2778 26.0891 70.3842 25.7516C70.4906 25.414 70.5242 25.0577 70.4826 24.7062ZM56.0001 4.49998C56.8416 4.50007 57.655 4.80338 58.2911 5.35435C58.9273 5.90531 59.3436 6.66704 59.4638 7.49998H52.5363C52.6565 6.66704 53.0729 5.90531 53.709 5.35435C54.3451 4.80338 55.1585 4.50007 56.0001 4.49998ZM44.5626 24.5L46.2263 10.5H49.5001V13C49.5001 13.3978 49.6581 13.7793 49.9394 14.0606C50.2207 14.3419 50.6022 14.5 51.0001 14.5C51.3979 14.5 51.7794 14.3419 52.0607 14.0606C52.342 13.7793 52.5001 13.3978 52.5001 13V10.5H59.5001V13C59.5001 13.3978 59.6581 13.7793 59.9394 14.0606C60.2207 14.3419 60.6022 14.5 61.0001 14.5C61.3979 14.5 61.7794 14.3419 62.0607 14.0606C62.342 13.7793 62.5001 13.3978 62.5001 13V10.5H65.7738L67.4376 24.5H44.5626Z" fill="white"/>
</g>
<defs>
<clipPath id="clip0_27_1242">
<rect width="72" height="32" rx="5" fill="white"/>
</clipPath>
</defs>
</svg>
