<svg width="72" height="32" viewBox="0 0 72 32" fill="none" xmlns="http://www.w3.org/2000/svg">
<g clip-path="url(#clip0_27_3222)">
<path d="M27.9995 13V19.3662C27.9995 25.1412 23.3933 29.935 17.6245 29.9987C16.2244 30.0176 14.8348 29.7553 13.5379 29.2273C12.241 28.6993 11.0633 27.9164 10.0745 26.925C7.34828 24.0412 4.26828 17 4.26828 17C4.1328 16.7655 4.04635 16.506 4.01417 16.2371C3.98199 15.9682 4.00475 15.6956 4.08108 15.4357C4.1574 15.1759 4.2857 14.9343 4.45818 14.7255C4.63067 14.5168 4.84376 14.3452 5.08453 14.2212C6.04203 13.7212 7.22203 14.1162 7.75953 15.0487L10.3845 19.6037C10.4575 19.7349 10.5677 19.8415 10.7011 19.9103C10.8346 19.979 10.9854 20.0067 11.1345 19.99H11.1495C11.3897 19.9487 11.6073 19.823 11.7631 19.6355C11.9189 19.4481 12.0028 19.2112 11.9995 18.9675V4C11.9992 3.72906 12.054 3.46087 12.1604 3.21173C12.2669 2.96258 12.4229 2.73767 12.6189 2.55064C12.815 2.3636 13.047 2.21835 13.3008 2.1237C13.5547 2.02904 13.8252 1.98696 14.0958 2C15.172 2.05 15.9995 2.9775 15.9995 4.05375V13C15.9992 13.1371 16.0271 13.2728 16.0815 13.3986C16.1358 13.5245 16.2155 13.6378 16.3154 13.7316C16.4154 13.8254 16.5336 13.8976 16.6627 13.9438C16.7918 13.9899 16.929 14.0091 17.0658 14C17.3229 13.9779 17.5622 13.8593 17.7354 13.668C17.9086 13.4766 18.003 13.2268 17.9995 12.9687V11C17.9992 10.7291 18.054 10.4609 18.1604 10.2117C18.2669 9.96258 18.4229 9.73767 18.6189 9.55064C18.815 9.3636 19.047 9.21835 19.3008 9.1237C19.5547 9.02904 19.8252 8.98696 20.0958 9C21.172 9.05 21.9995 9.9775 21.9995 11.0537V14C21.9992 14.1371 22.0271 14.2728 22.0815 14.3986C22.1358 14.5245 22.2155 14.6378 22.3154 14.7316C22.4154 14.8254 22.5336 14.8976 22.6627 14.9438C22.7918 14.9899 22.929 15.0091 23.0658 15C23.3229 14.9779 23.5622 14.8593 23.7354 14.668C23.9086 14.4766 24.003 14.2268 23.9995 13.9687V13.0587C23.9995 11.9825 24.827 11.0587 25.9033 11.005C26.1735 10.992 26.4435 11.0339 26.6971 11.1283C26.9506 11.2226 27.1824 11.3674 27.3783 11.5539C27.5743 11.7404 27.7304 11.9647 27.8372 12.2133C27.9439 12.4618 27.9992 12.7295 27.9995 13Z" fill="white"/>
<path d="M64.5 10.5C64.0213 10.4986 63.5462 10.5833 63.0975 10.75C62.694 9.91968 62.0159 9.25446 61.1779 8.86715C60.3399 8.47984 59.3938 8.39429 58.5 8.625V5.5C58.5 4.43913 58.0785 3.42172 57.3284 2.67157C56.5783 1.92143 55.5608 1.5 54.5 1.5C53.4391 1.5 52.4217 1.92143 51.6715 2.67157C50.9214 3.42172 50.5 4.43913 50.5 5.5V13.8538C49.8456 13.1034 48.9348 12.624 47.9458 12.5094C46.9568 12.3948 45.9605 12.6532 45.1519 13.234C44.3432 13.8149 43.7802 14.6764 43.573 15.6503C43.3657 16.6241 43.5291 17.6402 44.0312 18.5L44.6162 19.53C48.8887 27.06 50.84 30.5 57 30.5C60.049 30.4967 62.9721 29.284 65.128 27.1281C67.284 24.9721 68.4967 22.049 68.5 19V14.5C68.5 13.4391 68.0785 12.4217 67.3284 11.6716C66.5783 10.9214 65.5608 10.5 64.5 10.5ZM65.5 19C65.4973 21.2535 64.6009 23.414 63.0075 25.0075C61.414 26.601 59.2535 27.4974 57 27.5C52.75 27.5 51.5637 25.6938 47.225 18.0438L46.6387 17.0088C46.6381 17.0059 46.6381 17.0029 46.6387 17C46.5061 16.7703 46.4702 16.4972 46.5389 16.241C46.6076 15.9848 46.7752 15.7664 47.005 15.6337C47.2347 15.5011 47.5077 15.4652 47.764 15.5339C48.0202 15.6026 48.2386 15.7703 48.3712 16C48.3787 16.015 48.3875 16.0288 48.3962 16.0438L50.7312 19.7938C50.9044 20.0683 51.162 20.2793 51.4653 20.3951C51.7686 20.5108 52.1013 20.525 52.4134 20.4355C52.7254 20.3461 53.0001 20.1578 53.196 19.8989C53.3919 19.6401 53.4986 19.3246 53.5 19V5.5C53.5 5.23478 53.6053 4.98043 53.7929 4.79289C53.9804 4.60536 54.2348 4.5 54.5 4.5C54.7652 4.5 55.0195 4.60536 55.2071 4.79289C55.3946 4.98043 55.5 5.23478 55.5 5.5V14C55.5 14.3978 55.658 14.7794 55.9393 15.0607C56.2206 15.342 56.6022 15.5 57 15.5C57.3978 15.5 57.7793 15.342 58.0606 15.0607C58.3419 14.7794 58.5 14.3978 58.5 14V12.5C58.5 12.2348 58.6053 11.9804 58.7929 11.7929C58.9804 11.6054 59.2348 11.5 59.5 11.5C59.7652 11.5 60.0195 11.6054 60.2071 11.7929C60.3946 11.9804 60.5 12.2348 60.5 12.5V15C60.5 15.3978 60.658 15.7794 60.9393 16.0607C61.2206 16.342 61.6021 16.5 62 16.5C62.3978 16.5 62.7793 16.342 63.0606 16.0607C63.3419 15.7794 63.5 15.3978 63.5 15V14.5C63.5 14.2348 63.6053 13.9804 63.7929 13.7929C63.9804 13.6054 64.2348 13.5 64.5 13.5C64.7652 13.5 65.0195 13.6054 65.2071 13.7929C65.3946 13.9804 65.5 14.2348 65.5 14.5V19Z" fill="white"/>
</g>
<defs>
<clipPath id="clip0_27_3222">
<rect width="72" height="32" rx="5" fill="white"/>
</clipPath>
</defs>
</svg>
