<svg width="72" height="32" viewBox="0 0 72 32" fill="none" xmlns="http://www.w3.org/2000/svg">
<g clip-path="url(#clip0_27_4981)">
<path d="M23 12.1V11C23 9.93913 22.5786 8.92172 21.8284 8.17157C21.0783 7.42143 20.0609 7 19 7H17V4H21C21.2652 4 21.5196 4.10536 21.7071 4.29289C21.8946 4.48043 22 4.73478 22 5C22 5.26522 22.1054 5.51957 22.2929 5.70711C22.4804 5.89464 22.7348 6 23 6C23.2652 6 23.5196 5.89464 23.7071 5.70711C23.8946 5.51957 24 5.26522 24 5C24 4.20435 23.6839 3.44129 23.1213 2.87868C22.5587 2.31607 21.7956 2 21 2H13C12.7348 2 12.4804 2.10536 12.2929 2.29289C12.1054 2.48043 12 2.73478 12 3C12 3.26522 12.1054 3.51957 12.2929 3.70711C12.4804 3.89464 12.7348 4 13 4H15V7H13C11.9391 7 10.9217 7.42143 10.1716 8.17157C9.42143 8.92172 9 9.93913 9 11V12.1C7.87139 12.3321 6.8573 12.9461 6.12866 13.8387C5.40003 14.7313 5.00141 15.8478 5 17V27C5 27.5304 5.21071 28.0391 5.58579 28.4142C5.96086 28.7893 6.46957 29 7 29H25C25.5304 29 26.0391 28.7893 26.4142 28.4142C26.7893 28.0391 27 27.5304 27 27V17C26.9986 15.8478 26.6 14.7313 25.8713 13.8387C25.1427 12.9461 24.1286 12.3321 23 12.1ZM13 9H19C19.5304 9 20.0391 9.21071 20.4142 9.58579C20.7893 9.96086 21 10.4696 21 11V12H11V11C11 10.4696 11.2107 9.96086 11.5858 9.58579C11.9609 9.21071 12.4696 9 13 9Z" fill="white"/>
<path d="M63.5 12.21V11.5C63.5 10.3065 63.0259 9.16193 62.182 8.31802C61.3381 7.47411 60.1935 7 59 7H57.5V4.5H61C61.1326 4.5 61.2598 4.55268 61.3536 4.64645C61.4473 4.74021 61.5 4.86739 61.5 5C61.5 5.39782 61.658 5.77936 61.9393 6.06066C62.2206 6.34196 62.6022 6.5 63 6.5C63.3978 6.5 63.7794 6.34196 64.0607 6.06066C64.342 5.77936 64.5 5.39782 64.5 5C64.5 4.07174 64.1313 3.1815 63.4749 2.52513C62.8185 1.86875 61.9283 1.5 61 1.5H53C52.6022 1.5 52.2206 1.65804 51.9393 1.93934C51.658 2.22064 51.5 2.60218 51.5 3C51.5 3.39782 51.658 3.77936 51.9393 4.06066C52.2206 4.34196 52.6022 4.5 53 4.5H54.5V7H53C51.8065 7 50.6619 7.47411 49.818 8.31802C48.9741 9.16193 48.5 10.3065 48.5 11.5V12.21C47.3491 12.5375 46.3362 13.231 45.6145 14.1854C44.8928 15.1399 44.5016 16.3034 44.5 17.5V27C44.5 27.663 44.7634 28.2989 45.2322 28.7678C45.7011 29.2366 46.337 29.5 47 29.5H65C65.663 29.5 66.2989 29.2366 66.7678 28.7678C67.2366 28.2989 67.5 27.663 67.5 27V17.5C67.4984 16.3034 67.1072 15.1399 66.3855 14.1854C65.6638 13.231 64.6509 12.5375 63.5 12.21ZM53 10H59C59.3978 10 59.7794 10.158 60.0607 10.4393C60.342 10.7206 60.5 11.1022 60.5 11.5V12H51.5V11.5C51.5 11.1022 51.658 10.7206 51.9393 10.4393C52.2206 10.158 52.6022 10 53 10ZM64.5 26.5H47.5V17.5C47.5 16.837 47.7634 16.2011 48.2322 15.7322C48.7011 15.2634 49.337 15 50 15H62C62.663 15 63.2989 15.2634 63.7678 15.7322C64.2366 16.2011 64.5 16.837 64.5 17.5V26.5Z" fill="white"/>
</g>
<defs>
<clipPath id="clip0_27_4981">
<rect width="72" height="32" rx="5" fill="white"/>
</clipPath>
</defs>
</svg>
