<svg width="72" height="32" viewBox="0 0 72 32" fill="none" xmlns="http://www.w3.org/2000/svg">
<g clip-path="url(#clip0_27_3187)">
<path d="M28.7913 17.6325C28.4191 17.3462 27.986 17.1495 27.5255 17.0578C27.0651 16.9661 26.5897 16.9818 26.1362 17.1037L20.9062 18.3062C21.0279 17.7922 21.0317 17.2573 20.9172 16.7417C20.8028 16.226 20.5731 15.7429 20.2454 15.3287C19.9177 14.9144 19.5005 14.5796 19.0251 14.3495C18.5496 14.1194 18.0282 13.9999 17.5 14H11.2425C10.717 13.9987 10.1964 14.1015 9.71092 14.3025C9.22539 14.5036 8.78451 14.7988 8.41375 15.1712L5.58625 18H2C1.46957 18 0.960859 18.2107 0.585786 18.5858C0.210714 18.9609 0 19.4696 0 20L0 25C0 25.5304 0.210714 26.0391 0.585786 26.4142C0.960859 26.7893 1.46957 27 2 27H15C15.0818 27 15.1632 26.99 15.2425 26.97L23.2425 24.97C23.2938 24.9577 23.344 24.9409 23.3925 24.92L28.25 22.8525L28.305 22.8275C28.772 22.5942 29.1718 22.2458 29.4669 21.8152C29.7621 21.3846 29.9427 20.886 29.9918 20.3663C30.041 19.8466 29.957 19.3229 29.7478 18.8447C29.5387 18.3664 29.2112 17.9492 28.7962 17.6325H28.7913ZM27.4287 21.0262L22.6787 23.0487L14.875 25H7V19.4137L9.82875 16.5862C10.0138 16.3997 10.2341 16.2518 10.4768 16.1512C10.7195 16.0505 10.9798 15.9992 11.2425 16H17.5C17.8978 16 18.2794 16.158 18.5607 16.4393C18.842 16.7206 19 17.1022 19 17.5C19 17.8978 18.842 18.2793 18.5607 18.5607C18.2794 18.842 17.8978 19 17.5 19H14C13.7348 19 13.4804 19.1053 13.2929 19.2929C13.1054 19.4804 13 19.7348 13 20C13 20.2652 13.1054 20.5196 13.2929 20.7071C13.4804 20.8946 13.7348 21 14 21H18C18.0753 20.9998 18.1503 20.9914 18.2237 20.975L26.5987 19.0487L26.6375 19.0387C26.8932 18.9678 27.166 18.9938 27.4036 19.112C27.6412 19.2301 27.8267 19.4319 27.9245 19.6786C28.0222 19.9252 28.0253 20.1994 27.9331 20.4481C27.8409 20.6969 27.6599 20.9028 27.425 21.0262H27.4287ZM19.2925 7.70749C19.1995 7.61462 19.1258 7.50433 19.0754 7.38293C19.0251 7.26154 18.9992 7.13141 18.9992 6.99999C18.9992 6.86858 19.0251 6.73845 19.0754 6.61705C19.1258 6.49566 19.1995 6.38537 19.2925 6.29249L23.2925 2.29249C23.3854 2.19952 23.4957 2.12576 23.6171 2.07543C23.7385 2.02511 23.8686 1.99921 24 1.99921C24.1314 1.99921 24.2615 2.02511 24.3829 2.07543C24.5043 2.12576 24.6146 2.19952 24.7075 2.29249L28.7075 6.29249C28.8004 6.3854 28.8741 6.4957 28.9244 6.6171C28.9747 6.73849 29.0006 6.8686 29.0006 6.99999C29.0006 7.13139 28.9747 7.2615 28.9244 7.38289C28.8741 7.50428 28.8004 7.61458 28.7075 7.70749C28.6146 7.8004 28.5043 7.8741 28.3829 7.92439C28.2615 7.97467 28.1314 8.00055 28 8.00055C27.8686 8.00055 27.7385 7.97467 27.6171 7.92439C27.4957 7.8741 27.3854 7.8004 27.2925 7.70749L25 5.41374V13C25 13.2652 24.8946 13.5196 24.7071 13.7071C24.5196 13.8946 24.2652 14 24 14C23.7348 14 23.4804 13.8946 23.2929 13.7071C23.1054 13.5196 23 13.2652 23 13V5.41374L20.7075 7.70749C20.6146 7.80047 20.5043 7.87423 20.3829 7.92455C20.2615 7.97488 20.1314 8.00078 20 8.00078C19.8686 8.00078 19.7385 7.97488 19.6171 7.92455C19.4957 7.87423 19.3854 7.80047 19.2925 7.70749Z" fill="white"/>
<path d="M69.095 17.235C68.663 16.9041 68.1606 16.6769 67.6267 16.5711C67.0929 16.4654 66.5418 16.4838 66.0163 16.625L61.5 17.6575C61.5 17.605 61.5 17.5525 61.5 17.5C61.5 16.4391 61.0786 15.4217 60.3284 14.6716C59.5783 13.9214 58.5609 13.5 57.5 13.5H51.2425C50.6514 13.4982 50.0659 13.6138 49.5198 13.84C48.9738 14.0661 48.478 14.3984 48.0612 14.8175L45.375 17.5H42.5C41.837 17.5 41.2011 17.7634 40.7322 18.2322C40.2634 18.7011 40 19.337 40 20V25C40 25.663 40.2634 26.2989 40.7322 26.7678C41.2011 27.2366 41.837 27.5 42.5 27.5H55C55.1226 27.5001 55.2448 27.485 55.3638 27.455L63.3638 25.455C63.4403 25.4362 63.5151 25.4111 63.5875 25.38L68.44 23.3125C68.4688 23.3013 68.4963 23.2888 68.5238 23.275C69.0664 23.0035 69.5311 22.5984 69.8741 22.0978C70.217 21.5972 70.4269 21.0175 70.4841 20.4134C70.5412 19.8093 70.4437 19.2006 70.2007 18.6445C69.9577 18.0885 69.5772 17.6034 69.095 17.235ZM43 20.5H44.5V24.5H43V20.5ZM67.21 20.5763L62.5212 22.5763L54.815 24.5H47.5V19.625L50.1825 16.9425C50.3212 16.8023 50.4862 16.6911 50.6682 16.6151C50.8501 16.5391 51.0453 16.5 51.2425 16.5H57.5C57.7652 16.5 58.0196 16.6054 58.2071 16.7929C58.3946 16.9804 58.5 17.2348 58.5 17.5C58.5 17.7652 58.3946 18.0196 58.2071 18.2071C58.0196 18.3946 57.7652 18.5 57.5 18.5H54C53.6022 18.5 53.2206 18.658 52.9393 18.9393C52.658 19.2206 52.5 19.6022 52.5 20C52.5 20.3978 52.658 20.7794 52.9393 21.0607C53.2206 21.342 53.6022 21.5 54 21.5H58C58.1131 21.5 58.2259 21.4874 58.3363 21.4625L66.7113 19.5363L66.77 19.5213C66.8553 19.498 66.9449 19.4947 67.0316 19.5117C67.1184 19.5287 67.2001 19.5654 67.2704 19.6191C67.3407 19.6728 67.3976 19.742 67.4368 19.8213C67.4759 19.9006 67.4963 19.9878 67.4963 20.0763C67.497 20.1775 67.4709 20.2771 67.4206 20.3649C67.3703 20.4527 67.2976 20.5257 67.21 20.5763ZM58.9387 8.06C58.7989 7.92065 58.688 7.75506 58.6122 7.57273C58.5365 7.3904 58.4976 7.19492 58.4976 6.9975C58.4976 6.80008 58.5365 6.6046 58.6122 6.42228C58.688 6.23995 58.7989 6.07436 58.9387 5.935L62.9387 1.935C63.0781 1.79516 63.2437 1.68421 63.426 1.6085C63.6083 1.53279 63.8038 1.49382 64.0012 1.49382C64.1987 1.49382 64.3941 1.53279 64.5765 1.6085C64.7588 1.68421 64.9244 1.79516 65.0637 1.935L69.0637 5.935C69.2033 6.07453 69.314 6.24018 69.3895 6.42248C69.465 6.60479 69.5039 6.80018 69.5039 6.9975C69.5039 7.19483 69.465 7.39022 69.3895 7.57252C69.314 7.75483 69.2033 7.92047 69.0637 8.06C68.9242 8.19953 68.7586 8.31021 68.5763 8.38573C68.394 8.46124 68.1986 8.5001 68.0012 8.5001C67.8039 8.5001 67.6085 8.46124 67.4262 8.38573C67.2439 8.31021 67.0783 8.19953 66.9387 8.06L65.5 6.625V13C65.5 13.3978 65.342 13.7794 65.0607 14.0607C64.7794 14.342 64.3978 14.5 64 14.5C63.6022 14.5 63.2206 14.342 62.9393 14.0607C62.658 13.7794 62.5 13.3978 62.5 13V6.625L61.0613 8.06C60.9219 8.19947 60.7565 8.31011 60.5744 8.38559C60.3923 8.46108 60.1971 8.49993 60 8.49993C59.8029 8.49993 59.6077 8.46108 59.4256 8.38559C59.2435 8.31011 59.0781 8.19947 58.9387 8.06Z" fill="white"/>
</g>
<defs>
<clipPath id="clip0_27_3187">
<rect width="72" height="32" rx="5" fill="white"/>
</clipPath>
</defs>
</svg>
