<svg width="72" height="32" viewBox="0 0 72 32" fill="none" xmlns="http://www.w3.org/2000/svg">
<g clip-path="url(#clip0_27_3192)">
<path d="M29 24.8312V30C29 30.2652 28.8946 30.5196 28.7071 30.7071C28.5196 30.8946 28.2652 31 28 31C27.7348 31 27.4804 30.8946 27.2929 30.7071C27.1054 30.5196 27 30.2652 27 30V24.8312C26.9953 23.5477 26.7266 22.2788 26.2105 21.1036C25.6944 19.9284 24.9419 18.8719 24 18V25.2937C23.9998 25.5089 23.9302 25.7183 23.8015 25.8908C23.6729 26.0633 23.492 26.1897 23.2857 26.2512C23.0795 26.3127 22.8589 26.306 22.6568 26.2322C22.4547 26.1583 22.2818 26.0212 22.1637 25.8412L20.8288 23.8025C20.8188 23.7875 20.8087 23.7712 20.8 23.755C20.6039 23.4087 20.2783 23.1545 19.8948 23.0483C19.5113 22.9421 19.1013 22.9926 18.755 23.1887C18.4087 23.3848 18.1545 23.7105 18.0483 24.094C17.9421 24.4775 17.9927 24.8875 18.1887 25.2337L20.955 29.4575C21.1002 29.6794 21.1513 29.95 21.097 30.2096C21.0428 30.4692 20.8876 30.6967 20.6656 30.8419C20.4437 30.9871 20.1731 31.0382 19.9135 30.9839C19.6539 30.9296 19.4265 30.7744 19.2812 30.5525L16.4988 26.3025L16.4688 26.255C16.4213 26.1725 16.3775 26.0887 16.3375 26.005H7C6.73478 26.005 6.48043 25.8996 6.29289 25.7121C6.10536 25.5246 6 25.2702 6 25.005V12C6 11.4696 6.21071 10.9609 6.58579 10.5858C6.96086 10.2107 7.46957 9.99999 8 9.99999H14V16C14 16.2652 14.1054 16.5196 14.2929 16.7071C14.4804 16.8946 14.7348 17 15 17C15.2652 17 15.5196 16.8946 15.7071 16.7071C15.8946 16.5196 16 16.2652 16 16V9.99999H22C22.5304 9.99999 23.0391 10.2107 23.4142 10.5858C23.7893 10.9609 24 11.4696 24 12V15.4525C25.5349 16.4897 26.7928 17.8865 27.6643 19.5211C28.5358 21.1558 28.9943 22.9788 29 24.8312ZM16 4.41374L18.2925 6.70749C18.4801 6.89513 18.7346 7.00055 19 7.00055C19.2654 7.00055 19.5199 6.89513 19.7075 6.70749C19.8951 6.51985 20.0006 6.26536 20.0006 5.99999C20.0006 5.73463 19.8951 5.48013 19.7075 5.29249L15.7075 1.29249C15.6146 1.19952 15.5043 1.12576 15.3829 1.07543C15.2615 1.02511 15.1314 0.999207 15 0.999207C14.8686 0.999207 14.7385 1.02511 14.6171 1.07543C14.4957 1.12576 14.3854 1.19952 14.2925 1.29249L10.2925 5.29249C10.1049 5.48013 9.99944 5.73463 9.99944 5.99999C9.99944 6.13139 10.0253 6.2615 10.0756 6.38289C10.1259 6.50428 10.1996 6.61458 10.2925 6.70749C10.3854 6.8004 10.4957 6.8741 10.6171 6.92439C10.7385 6.97467 10.8686 7.00055 11 7.00055C11.2654 7.00055 11.5199 6.89513 11.7075 6.70749L14 4.41374V9.99999H16V4.41374Z" fill="white"/>
<path d="M55 17.5C54.6022 17.5 54.2206 17.342 53.9393 17.0607C53.658 16.7794 53.5 16.3978 53.5 16V5.62501L52.5612 6.56376C52.2795 6.84555 51.8973 7.00386 51.4987 7.00386C51.1002 7.00386 50.718 6.84555 50.4362 6.56376C50.1545 6.28196 49.9961 5.89977 49.9961 5.50126C49.9961 5.10274 50.1545 4.72055 50.4362 4.43876L53.9362 0.938757C54.0756 0.798917 54.2412 0.687961 54.4235 0.612253C54.6058 0.536545 54.8013 0.497574 54.9987 0.497574C55.1962 0.497574 55.3917 0.536545 55.574 0.612253C55.7563 0.687961 55.9219 0.798917 56.0613 0.938757L59.5613 4.43876C59.843 4.72055 60.0014 5.10274 60.0014 5.50126C60.0014 5.89977 59.843 6.28196 59.5613 6.56376C59.2795 6.84555 58.8973 7.00386 58.4988 7.00386C58.1002 7.00386 57.718 6.84555 57.4363 6.56376L56.5 5.62501V16C56.5 16.3978 56.342 16.7794 56.0607 17.0607C55.7794 17.342 55.3978 17.5 55 17.5ZM64.5 15.19V12C64.5 11.337 64.2366 10.7011 63.7678 10.2322C63.2989 9.7634 62.663 9.50001 62 9.50001H60.5C60.1022 9.50001 59.7206 9.65804 59.4393 9.93935C59.158 10.2207 59 10.6022 59 11C59 11.3978 59.158 11.7794 59.4393 12.0607C59.7206 12.342 60.1022 12.5 60.5 12.5H61.5V21.0375C60.7376 20.5979 59.8515 20.422 58.9789 20.537C58.1064 20.6521 57.2962 21.0517 56.6738 21.674C56.0514 22.2962 55.6516 23.1063 55.5364 23.9788C55.4211 24.8513 55.5968 25.7375 56.0362 26.5C56.05 26.525 56.065 26.5488 56.08 26.5725L58.8625 30.8225C58.9704 30.9875 59.1098 31.1296 59.2726 31.2407C59.4355 31.3518 59.6186 31.4298 59.8116 31.4701C60.0046 31.5104 60.2036 31.5124 60.3973 31.4758C60.591 31.4392 60.7757 31.3648 60.9406 31.2569C61.1056 31.149 61.2477 31.0096 61.3588 30.8467C61.4699 30.6839 61.5479 30.5008 61.5882 30.3078C61.6285 30.1148 61.6305 29.9158 61.5939 29.7221C61.5573 29.5283 61.4829 29.3437 61.375 29.1788L58.625 24.9713C58.4962 24.7392 58.4649 24.4655 58.5379 24.2103C58.6109 23.9551 58.7823 23.7394 59.0144 23.6106C59.2464 23.4818 59.5202 23.4505 59.7753 23.5235C60.0305 23.5965 60.2462 23.7679 60.375 24C60.3888 24.025 60.4038 24.0488 60.42 24.0725L61.75 26.11C61.9277 26.378 62.1869 26.5817 62.4892 26.6912C62.7916 26.8007 63.1211 26.8102 63.4292 26.7182C63.7374 26.6261 64.0078 26.4375 64.2005 26.1802C64.3933 25.9228 64.4983 25.6103 64.5 25.2888V19.25C65.7887 20.8231 66.4951 22.7927 66.5 24.8263V30C66.5 30.3978 66.658 30.7794 66.9393 31.0607C67.2206 31.342 67.6022 31.5 68 31.5C68.3978 31.5 68.7794 31.342 69.0607 31.0607C69.342 30.7794 69.5 30.3978 69.5 30V24.8313C69.4944 22.9422 69.0377 21.0818 68.168 19.4049C67.2984 17.7279 66.0408 16.2829 64.5 15.19ZM49.5 9.50001H48C47.337 9.50001 46.7011 9.7634 46.2322 10.2322C45.7634 10.7011 45.5 11.337 45.5 12V25C45.5 25.3978 45.658 25.7794 45.9393 26.0607C46.2206 26.342 46.6022 26.5 47 26.5C47.3978 26.5 47.7794 26.342 48.0607 26.0607C48.342 25.7794 48.5 25.3978 48.5 25V12.5H49.5C49.8978 12.5 50.2794 12.342 50.5607 12.0607C50.842 11.7794 51 11.3978 51 11C51 10.6022 50.842 10.2207 50.5607 9.93935C50.2794 9.65804 49.8978 9.50001 49.5 9.50001Z" fill="white"/>
</g>
<defs>
<clipPath id="clip0_27_3192">
<rect width="72" height="32" rx="5" fill="white"/>
</clipPath>
</defs>
</svg>
