<svg width="72" height="32" viewBox="0 0 72 32" fill="none" xmlns="http://www.w3.org/2000/svg">
<g clip-path="url(#clip0_27_2775)">
<path d="M27 16V22.3663C27 25.565 25.94 27.3575 25.895 27.4475C25.8119 27.6136 25.6841 27.7533 25.526 27.8509C25.3679 27.9485 25.1858 28.0001 25 28H8.00002C7.82569 28 7.65438 27.9545 7.50309 27.8679C7.3518 27.7813 7.22577 27.6566 7.13752 27.5063L3.26877 20C3.13329 19.7655 3.04684 19.506 3.01466 19.2371C2.98248 18.9682 3.00524 18.6956 3.08157 18.4358C3.15789 18.1759 3.28618 17.9343 3.45867 17.7255C3.63116 17.5168 3.84425 17.3452 4.08502 17.2213C5.04252 16.7213 6.22252 17.1163 6.76002 18.0488L9.38502 22.6038C9.45803 22.7349 9.56818 22.8416 9.70162 22.9103C9.83507 22.979 9.98585 23.0067 10.135 22.99H10.15C10.3902 22.9487 10.6078 22.823 10.7636 22.6355C10.9194 22.4481 11.0033 22.2112 11 21.9675V7.00001C10.9997 6.72906 11.0544 6.46088 11.1609 6.21174C11.2674 5.96259 11.4234 5.73768 11.6194 5.55065C11.8154 5.36361 12.0474 5.21836 12.3013 5.12371C12.5552 5.02905 12.8256 4.98697 13.0963 5.00001C14.1725 5.05001 15 5.97751 15 7.05376V16C14.9997 16.1371 15.0276 16.2728 15.082 16.3986C15.1363 16.5245 15.2159 16.6378 15.3159 16.7316C15.4159 16.8254 15.5341 16.8976 15.6632 16.9438C15.7923 16.99 15.9295 17.0091 16.0663 17C16.3234 16.9779 16.5627 16.8593 16.7359 16.668C16.9091 16.4766 17.0035 16.2268 17 15.9688V14C16.9997 13.7291 17.0544 13.4609 17.1609 13.2117C17.2674 12.9626 17.4234 12.7377 17.6194 12.5506C17.8154 12.3636 18.0474 12.2184 18.3013 12.1237C18.5552 12.0291 18.8256 11.987 19.0963 12C20.1725 12.05 21 12.9775 21 14.0538V17C20.9997 17.1371 21.0276 17.2728 21.082 17.3986C21.1363 17.5245 21.2159 17.6378 21.3159 17.7316C21.4159 17.8254 21.5341 17.8976 21.6632 17.9438C21.7923 17.99 21.9295 18.0091 22.0663 18C22.3233 17.9776 22.5624 17.8589 22.7356 17.6677C22.9087 17.4764 23.0032 17.2267 23 16.9688V16.0588C23 14.9825 23.8275 14.0588 24.9038 14.005C25.174 13.992 25.444 14.0339 25.6976 14.1283C25.9511 14.2226 26.1828 14.3674 26.3788 14.5539C26.5748 14.7404 26.7309 14.9647 26.8376 15.2133C26.9444 15.4618 26.9997 15.7295 27 16ZM31 6.00001H24.4138L26.7075 3.70751C26.8004 3.6146 26.8741 3.5043 26.9244 3.3829C26.9747 3.26151 27.0006 3.1314 27.0006 3.00001C27.0006 2.86861 26.9747 2.7385 26.9244 2.61711C26.8741 2.49572 26.8004 2.38542 26.7075 2.29251C26.6146 2.1996 26.5043 2.1259 26.3829 2.07561C26.2615 2.02533 26.1314 1.99945 26 1.99945C25.8686 1.99945 25.7385 2.02533 25.6171 2.07561C25.4957 2.1259 25.3854 2.1996 25.2925 2.29251L21.2925 6.29251C21.1995 6.38538 21.1258 6.49567 21.0755 6.61707C21.0251 6.73846 20.9992 6.86859 20.9992 7.00001C20.9992 7.13142 21.0251 7.26155 21.0755 7.38295C21.1258 7.50434 21.1995 7.61463 21.2925 7.70751L25.2925 11.7075C25.3854 11.8004 25.4957 11.8741 25.6171 11.9244C25.7385 11.9747 25.8686 12.0006 26 12.0006C26.1314 12.0006 26.2615 11.9747 26.3829 11.9244C26.5043 11.8741 26.6146 11.8004 26.7075 11.7075C26.8004 11.6146 26.8741 11.5043 26.9244 11.3829C26.9747 11.2615 27.0006 11.1314 27.0006 11C27.0006 10.8686 26.9747 10.7385 26.9244 10.6171C26.8741 10.4957 26.8004 10.3854 26.7075 10.2925L24.4138 8.00001H31C31.2652 8.00001 31.5196 7.89465 31.7071 7.70711C31.8947 7.51958 32 7.26522 32 7.00001C32 6.73479 31.8947 6.48044 31.7071 6.2929C31.5196 6.10536 31.2652 6.00001 31 6.00001Z" fill="white"/>
<path d="M72 7.00001C72 7.39783 71.842 7.77937 71.5607 8.06067C71.2794 8.34197 70.8979 8.50001 70.5 8.50001H65.125L66.5638 9.93876C66.7033 10.0783 66.814 10.2439 66.8895 10.4262C66.965 10.6085 67.0039 10.8039 67.0039 11.0013C67.0039 11.1986 66.965 11.394 66.8895 11.5763C66.814 11.7586 66.7033 11.9242 66.5638 12.0638C66.4243 12.2033 66.2586 12.314 66.0763 12.3895C65.894 12.465 65.6986 12.5039 65.5013 12.5039C65.304 12.5039 65.1086 12.465 64.9263 12.3895C64.744 12.314 64.5783 12.2033 64.4388 12.0638L60.4388 8.06376C60.299 7.9244 60.188 7.75881 60.1123 7.57649C60.0366 7.39416 59.9976 7.19868 59.9976 7.00126C59.9976 6.80384 60.0366 6.60836 60.1123 6.42603C60.188 6.2437 60.299 6.07811 60.4388 5.93876L64.4388 1.93876C64.5783 1.79923 64.744 1.68855 64.9263 1.61304C65.1086 1.53752 65.304 1.49866 65.5013 1.49866C65.6986 1.49866 65.894 1.53752 66.0763 1.61304C66.2586 1.68855 66.4243 1.79923 66.5638 1.93876C66.7033 2.07829 66.814 2.24393 66.8895 2.42624C66.965 2.60854 67.0039 2.80393 67.0039 3.00126C67.0039 3.19858 66.965 3.39398 66.8895 3.57628C66.814 3.75858 66.7033 3.92423 66.5638 4.06376L65.125 5.50001H70.5C70.8979 5.50001 71.2794 5.65804 71.5607 5.93935C71.842 6.22065 72 6.60218 72 7.00001ZM63.5 14.5C63.0213 14.4984 62.5462 14.5831 62.0975 14.75C61.6941 13.9197 61.0159 13.2545 60.178 12.8672C59.34 12.4799 58.3939 12.3943 57.5 12.625V9.50001C57.5 8.43914 57.0786 7.42173 56.3285 6.67158C55.5783 5.92144 54.5609 5.50001 53.5 5.50001C52.4392 5.50001 51.4218 5.92144 50.6716 6.67158C49.9215 7.42173 49.5 8.43914 49.5 9.50001V17.8538C48.8443 17.1082 47.9346 16.6332 46.9481 16.5211C45.9615 16.4091 44.9685 16.668 44.1622 17.2474C43.3559 17.8269 42.794 18.6855 42.5856 19.6563C42.3773 20.6271 42.5375 21.6408 43.035 22.5L43.05 22.525L46.2138 27.775C46.4193 28.1158 46.7518 28.361 47.1382 28.4566C47.5245 28.5523 47.933 28.4906 48.2738 28.285C48.6146 28.0795 48.8598 27.747 48.9554 27.3606C49.0511 26.9743 48.9893 26.5658 48.7838 26.225L45.625 20.99C45.4938 20.7593 45.4595 20.4858 45.5298 20.2298C45.6002 19.9739 45.7693 19.7563 46 19.625C46.2308 19.4937 46.5042 19.4595 46.7602 19.5298C47.0162 19.6001 47.2338 19.7693 47.365 20L47.3913 20.0425L49.7263 23.7925C49.8985 24.0694 50.1562 24.2826 50.4603 24.3999C50.7645 24.5172 51.0987 24.5322 51.4121 24.4426C51.7256 24.353 52.0014 24.1638 52.1977 23.9035C52.394 23.6432 52.5001 23.326 52.5 23V9.50001C52.5 9.23479 52.6054 8.98044 52.7929 8.7929C52.9805 8.60537 53.2348 8.50001 53.5 8.50001C53.7653 8.50001 54.0196 8.60537 54.2072 8.7929C54.3947 8.98044 54.5 9.23479 54.5 9.50001V18C54.5 18.3978 54.6581 18.7794 54.9394 19.0607C55.2207 19.342 55.6022 19.5 56 19.5C56.3979 19.5 56.7794 19.342 57.0607 19.0607C57.342 18.7794 57.5 18.3978 57.5 18V16.5C57.5 16.2348 57.6054 15.9804 57.7929 15.7929C57.9805 15.6054 58.2348 15.5 58.5 15.5C58.7653 15.5 59.0196 15.6054 59.2072 15.7929C59.3947 15.9804 59.5 16.2348 59.5 16.5V19C59.5 19.3978 59.6581 19.7794 59.9394 20.0607C60.2207 20.342 60.6022 20.5 61 20.5C61.3979 20.5 61.7794 20.342 62.0607 20.0607C62.342 19.7794 62.5 19.3978 62.5 19V18.5C62.5 18.2348 62.6054 17.9804 62.7929 17.7929C62.9805 17.6054 63.2348 17.5 63.5 17.5C63.7653 17.5 64.0196 17.6054 64.2072 17.7929C64.3947 17.9804 64.5 18.2348 64.5 18.5V23C64.5 24.385 64.34 25.7088 64.0725 26.54C64.0083 26.7285 63.9822 26.9278 63.9958 27.1265C64.0093 27.3251 64.0623 27.5191 64.1517 27.6971C64.241 27.875 64.3649 28.0334 64.516 28.163C64.6672 28.2926 64.8427 28.3908 65.0322 28.4519C65.2217 28.5129 65.4215 28.5357 65.6199 28.5187C65.8183 28.5018 66.0113 28.4455 66.1878 28.3532C66.3642 28.2609 66.5204 28.1343 66.6475 27.981C66.7745 27.8276 66.8697 27.6505 66.9275 27.46C67.3025 26.315 67.5 24.7313 67.5 23V18.5C67.5 17.4391 67.0786 16.4217 66.3285 15.6716C65.5783 14.9214 64.5609 14.5 63.5 14.5Z" fill="white"/>
</g>
<defs>
<clipPath id="clip0_27_2775">
<rect width="72" height="32" rx="5" fill="white"/>
</clipPath>
</defs>
</svg>
