<svg width="72" height="32" viewBox="0 0 72 32" fill="none" xmlns="http://www.w3.org/2000/svg">
<g clip-path="url(#clip0_27_3197)">
<path d="M18 22.5C18 22.8956 17.8827 23.2822 17.6629 23.6111C17.4432 23.94 17.1308 24.1964 16.7654 24.3478C16.3999 24.4991 15.9978 24.5387 15.6098 24.4616C15.2219 24.3844 14.8655 24.1939 14.5858 23.9142C14.3061 23.6345 14.1156 23.2781 14.0384 22.8902C13.9613 22.5022 14.0009 22.1001 14.1522 21.7346C14.3036 21.3692 14.56 21.0568 14.8889 20.8371C15.2178 20.6173 15.6044 20.5 16 20.5C16.5304 20.5 17.0391 20.7107 17.4142 21.0858C17.7893 21.4609 18 21.9696 18 22.5ZM27 13V19C27 21.9174 25.8411 24.7153 23.7782 26.7782C21.7153 28.8411 18.9174 30 16 30C13.0826 30 10.2847 28.8411 8.22183 26.7782C6.15893 24.7153 5 21.9174 5 19V8C5 7.46957 5.21071 6.96086 5.58579 6.58579C5.96086 6.21071 6.46957 6 7 6C7.53043 6 8.03914 6.21071 8.41421 6.58579C8.78929 6.96086 9 7.46957 9 8V15C9 15.2652 9.10536 15.5196 9.29289 15.7071C9.48043 15.8946 9.73478 16 10 16C10.2652 16 10.5196 15.8946 10.7071 15.7071C10.8946 15.5196 11 15.2652 11 15V4C11 3.46957 11.2107 2.96086 11.5858 2.58579C11.9609 2.21071 12.4696 2 13 2C13.5304 2 14.0391 2.21071 14.4142 2.58579C14.7893 2.96086 15 3.46957 15 4V14C15 14.2652 15.1054 14.5196 15.2929 14.7071C15.4804 14.8946 15.7348 15 16 15C16.2652 15 16.5196 14.8946 16.7071 14.7071C16.8946 14.5196 17 14.2652 17 14V6C17 5.46957 17.2107 4.96086 17.5858 4.58579C17.9609 4.21071 18.4696 4 19 4C19.5304 4 20.0391 4.21071 20.4142 4.58579C20.7893 4.96086 21 5.46957 21 6V16C21 16.2652 21.1054 16.5196 21.2929 16.7071C21.4804 16.8946 21.7348 17 22 17C22.2652 17 22.5196 16.8946 22.7071 16.7071C22.8946 16.5196 23 16.2652 23 16V13C23 12.4696 23.2107 11.9609 23.5858 11.5858C23.9609 11.2107 24.4696 11 25 11C25.5304 11 26.0391 11.2107 26.4142 11.5858C26.7893 11.9609 27 12.4696 27 13ZM22.4475 22.2763C22.36 22.1013 20.26 18 16 18C11.74 18 9.64 22.1013 9.5525 22.2763C9.51774 22.3457 9.49964 22.4223 9.49964 22.5C9.49964 22.5777 9.51774 22.6543 9.5525 22.7237C9.64 22.8987 11.74 27 16 27C20.26 27 22.36 22.8987 22.4475 22.7237C22.4823 22.6543 22.5004 22.5777 22.5004 22.5C22.5004 22.4223 22.4823 22.3457 22.4475 22.2763Z" fill="white"/>
<path d="M58 23C58 23.3956 57.8827 23.7822 57.6629 24.1111C57.4432 24.44 57.1308 24.6964 56.7654 24.8478C56.3999 24.9991 55.9978 25.0387 55.6098 24.9616C55.2219 24.8844 54.8655 24.6939 54.5858 24.4142C54.3061 24.1345 54.1156 23.7781 54.0384 23.3902C53.9613 23.0022 54.0009 22.6001 54.1522 22.2346C54.3036 21.8692 54.56 21.5568 54.8889 21.3371C55.2178 21.1173 55.6044 21 56 21C56.5304 21 57.0391 21.2107 57.4142 21.5858C57.7893 21.9609 58 22.4696 58 23ZM67.5 14V19C67.5 22.05 66.2884 24.9751 64.1317 27.1317C61.9751 29.2884 59.05 30.5 56 30.5C52.95 30.5 50.0249 29.2884 47.8683 27.1317C45.7116 24.9751 44.5 22.05 44.5 19V9.49999C44.4997 8.88935 44.6392 8.28675 44.9078 7.73836C45.1764 7.18998 45.5671 6.71038 46.0497 6.33632C46.5324 5.96226 47.0943 5.70367 47.6923 5.58037C48.2904 5.45707 48.9087 5.47233 49.5 5.62499V5.49999C49.4991 4.5945 49.8055 3.71551 50.369 3.00674C50.9326 2.29797 51.7199 1.80138 52.6023 1.59816C53.4847 1.39495 54.4099 1.49713 55.2267 1.88801C56.0435 2.27889 56.7035 2.93533 57.0988 3.74999C57.7041 3.52358 58.3553 3.44723 58.9967 3.52748C59.638 3.60773 60.2503 3.84219 60.7812 4.2108C61.3121 4.5794 61.7458 5.07117 62.0452 5.644C62.3445 6.21683 62.5006 6.85367 62.5 7.49999V10.125C63.0913 9.97233 63.7096 9.95707 64.3077 10.0804C64.9057 10.2037 65.4676 10.4623 65.9503 10.8363C66.4329 11.2104 66.8236 11.69 67.0922 12.2384C67.3608 12.7867 67.5003 13.3894 67.5 14ZM64.5 14C64.5 13.7348 64.3946 13.4804 64.2071 13.2929C64.0196 13.1054 63.7652 13 63.5 13C63.2348 13 62.9804 13.1054 62.7929 13.2929C62.6054 13.4804 62.5 13.7348 62.5 14C62.5 14.3978 62.342 14.7794 62.0607 15.0607C61.7794 15.342 61.3978 15.5 61 15.5C60.6022 15.5 60.2206 15.342 59.9393 15.0607C59.658 14.7794 59.5 14.3978 59.5 14V7.49999C59.5 7.23478 59.3946 6.98042 59.2071 6.79289C59.0196 6.60535 58.7652 6.49999 58.5 6.49999C58.2348 6.49999 57.9804 6.60535 57.7929 6.79289C57.6054 6.98042 57.5 7.23478 57.5 7.49999V13C57.5 13.3978 57.342 13.7794 57.0607 14.0607C56.7794 14.342 56.3978 14.5 56 14.5C55.6022 14.5 55.2206 14.342 54.9393 14.0607C54.658 13.7794 54.5 13.3978 54.5 13V5.49999C54.5 5.23478 54.3946 4.98042 54.2071 4.79289C54.0196 4.60535 53.7652 4.49999 53.5 4.49999C53.2348 4.49999 52.9804 4.60535 52.7929 4.79289C52.6054 4.98042 52.5 5.23478 52.5 5.49999V14C52.5 14.3978 52.342 14.7794 52.0607 15.0607C51.7794 15.342 51.3978 15.5 51 15.5C50.6022 15.5 50.2206 15.342 49.9393 15.0607C49.658 14.7794 49.5 14.3978 49.5 14V9.49999C49.5 9.23478 49.3946 8.98042 49.2071 8.79289C49.0196 8.60535 48.7652 8.49999 48.5 8.49999C48.2348 8.49999 47.9804 8.60535 47.7929 8.79289C47.6054 8.98042 47.5 9.23478 47.5 9.49999V19C47.5 21.2543 48.3955 23.4163 49.9896 25.0104C51.5837 26.6045 53.7457 27.5 56 27.5C58.2543 27.5 60.4163 26.6045 62.0104 25.0104C63.6045 23.4163 64.5 21.2543 64.5 19V14ZM56 16C54.7091 15.9969 53.4426 16.3521 52.3416 17.0261C51.2405 17.7001 50.3481 18.6664 49.7638 19.8175C49.5882 20.1711 49.5591 20.5797 49.6828 20.9547C49.8066 21.3296 50.0731 21.6406 50.4247 21.8203C50.7763 22 51.1845 22.0337 51.5609 21.9143C51.9372 21.7949 52.2513 21.532 52.435 21.1825C52.7702 20.526 53.2803 19.9749 53.9089 19.59C54.5376 19.2051 55.2604 19.0014 55.9975 19.0014C56.7346 19.0014 57.4574 19.2051 58.0861 19.59C58.7147 19.9749 59.2248 20.526 59.56 21.1825C59.6862 21.4294 59.8783 21.6365 60.1151 21.7808C60.3518 21.9252 60.624 22.001 60.9013 22C61.1383 22.0004 61.3719 21.9438 61.5825 21.835C61.9367 21.6541 62.2045 21.3399 62.3271 20.9616C62.4497 20.5833 62.417 20.1717 62.2362 19.8175C61.6519 18.6664 60.7595 17.7001 59.6584 17.0261C58.5574 16.3521 57.2909 15.9969 56 16Z" fill="white"/>
</g>
<defs>
<clipPath id="clip0_27_3197">
<rect width="72" height="32" rx="5" fill="white"/>
</clipPath>
</defs>
</svg>
