<svg width="72" height="32" viewBox="0 0 72 32" fill="none" xmlns="http://www.w3.org/2000/svg">
<g clip-path="url(#clip0_27_3182)">
<path d="M28.7913 17.6325C28.4193 17.3459 27.9861 17.1491 27.5256 17.0574C27.0651 16.9657 26.5896 16.9816 26.1362 17.1038L20.9062 18.3062C21.0279 17.7922 21.0317 17.2574 20.9172 16.7417C20.8028 16.226 20.5731 15.7429 20.2454 15.3287C19.9177 14.9144 19.5005 14.5796 19.0251 14.3495C18.5496 14.1194 18.0282 13.9999 17.5 14H11.2425C10.717 13.9987 10.1964 14.1015 9.71092 14.3025C9.22539 14.5036 8.78451 14.7988 8.41375 15.1713L5.58625 18H2C1.46957 18 0.960859 18.2107 0.585786 18.5858C0.210714 18.9609 0 19.4696 0 20L0 25C0 25.5304 0.210714 26.0391 0.585786 26.4142C0.960859 26.7893 1.46957 27 2 27H15C15.0818 27 15.1632 26.99 15.2425 26.97L23.2425 24.97C23.2935 24.9579 23.3433 24.9411 23.3913 24.92L28.25 22.8525L28.305 22.8275C28.772 22.5942 29.1718 22.2458 29.4669 21.8152C29.7621 21.3846 29.9427 20.886 29.9918 20.3663C30.041 19.8466 29.957 19.3229 29.7478 18.8447C29.5387 18.3664 29.2112 17.9492 28.7962 17.6325H28.7913ZM27.4287 21.0263L22.6787 23.0487L14.875 25H7V19.4137L9.82875 16.5863C10.0138 16.3997 10.2341 16.2518 10.4768 16.1512C10.7195 16.0506 10.9798 15.9992 11.2425 16H17.5C17.8978 16 18.2794 16.158 18.5607 16.4393C18.842 16.7206 19 17.1022 19 17.5C19 17.8978 18.842 18.2794 18.5607 18.5607C18.2794 18.842 17.8978 19 17.5 19H14C13.7348 19 13.4804 19.1054 13.2929 19.2929C13.1054 19.4804 13 19.7348 13 20C13 20.2652 13.1054 20.5196 13.2929 20.7071C13.4804 20.8946 13.7348 21 14 21H18C18.0753 20.9998 18.1503 20.9914 18.2237 20.975L26.5987 19.0487L26.6375 19.0387C26.8932 18.9678 27.166 18.9939 27.4036 19.112C27.6412 19.2301 27.8267 19.4319 27.9245 19.6786C28.0222 19.9253 28.0253 20.1994 27.9331 20.4482C27.8409 20.697 27.6599 20.9029 27.425 21.0263H27.4287ZM19.2925 9.7075C19.1049 9.51986 18.9994 9.26536 18.9994 9C18.9994 8.73464 19.1049 8.48014 19.2925 8.2925C19.4801 8.10486 19.7346 7.99944 20 7.99944C20.2654 7.99944 20.5199 8.10486 20.7075 8.2925L23 10.5863V3C23 2.73478 23.1054 2.48043 23.2929 2.29289C23.4804 2.10536 23.7348 2 24 2C24.2652 2 24.5196 2.10536 24.7071 2.29289C24.8946 2.48043 25 2.73478 25 3V10.5863L27.2925 8.2925C27.4801 8.10486 27.7346 7.99944 28 7.99944C28.2654 7.99944 28.5199 8.10486 28.7075 8.2925C28.8951 8.48014 29.0006 8.73464 29.0006 9C29.0006 9.26536 28.8951 9.51986 28.7075 9.7075L24.7075 13.7075C24.6146 13.8005 24.5043 13.8742 24.3829 13.9246C24.2615 13.9749 24.1314 14.0008 24 14.0008C23.8686 14.0008 23.7385 13.9749 23.6171 13.9246C23.4957 13.8742 23.3854 13.8005 23.2925 13.7075L19.2925 9.7075Z" fill="white"/>
<path d="M69.095 17.235C68.663 16.9041 68.1606 16.6769 67.6267 16.5711C67.0929 16.4654 66.5418 16.4838 66.0163 16.625L61.5 17.6575C61.5 17.605 61.5 17.5525 61.5 17.5C61.5 16.4391 61.0786 15.4217 60.3284 14.6716C59.5783 13.9214 58.5609 13.5 57.5 13.5H51.2425C50.6515 13.4984 50.066 13.614 49.5199 13.8401C48.9739 14.0663 48.4781 14.3985 48.0612 14.8175L45.375 17.5H42.5C41.837 17.5 41.2011 17.7634 40.7322 18.2322C40.2634 18.7011 40 19.337 40 20V25C40 25.663 40.2634 26.2989 40.7322 26.7678C41.2011 27.2366 41.837 27.5 42.5 27.5H55C55.1226 27.5001 55.2448 27.485 55.3638 27.455L63.3638 25.455C63.4403 25.4362 63.5151 25.4111 63.5875 25.38L68.44 23.3125C68.4688 23.3013 68.4963 23.2887 68.5238 23.275C69.0664 23.0035 69.5311 22.5984 69.8741 22.0978C70.217 21.5972 70.4269 21.0175 70.4841 20.4134C70.5412 19.8093 70.4437 19.2005 70.2007 18.6445C69.9577 18.0885 69.5772 17.6034 69.095 17.235ZM43 20.5H44.5V24.5H43V20.5ZM67.21 20.5763L62.5212 22.5763L54.815 24.5H47.5V19.625L50.1825 16.9425C50.3212 16.8023 50.4862 16.691 50.6682 16.6151C50.8501 16.5391 51.0453 16.5 51.2425 16.5H57.5C57.7652 16.5 58.0196 16.6054 58.2071 16.7929C58.3946 16.9804 58.5 17.2348 58.5 17.5C58.5 17.7652 58.3946 18.0196 58.2071 18.2071C58.0196 18.3946 57.7652 18.5 57.5 18.5H54C53.6022 18.5 53.2206 18.658 52.9393 18.9393C52.658 19.2206 52.5 19.6022 52.5 20C52.5 20.3978 52.658 20.7794 52.9393 21.0607C53.2206 21.342 53.6022 21.5 54 21.5H58C58.1131 21.5 58.2259 21.4874 58.3363 21.4625L66.7113 19.5362L66.77 19.5212C66.8554 19.498 66.945 19.4948 67.0318 19.5118C67.1187 19.5287 67.2004 19.5655 67.2708 19.6191C67.3411 19.6728 67.3982 19.742 67.4375 19.8212C67.4768 19.9005 67.4973 19.9878 67.4975 20.0763C67.4981 20.1776 67.4718 20.2773 67.4213 20.3651C67.3708 20.4529 67.2979 20.5258 67.21 20.5763ZM58.9387 10.0612C58.657 9.77946 58.4986 9.39726 58.4986 8.99875C58.4986 8.60023 58.657 8.21804 58.9387 7.93625C59.2205 7.65446 59.6027 7.49615 60.0012 7.49615C60.3998 7.49615 60.782 7.65446 61.0637 7.93625L62.5 9.375V3C62.5 2.60218 62.658 2.22064 62.9393 1.93934C63.2206 1.65804 63.6022 1.5 64 1.5C64.3978 1.5 64.7794 1.65804 65.0607 1.93934C65.342 2.22064 65.5 2.60218 65.5 3V9.375L66.9387 7.935C67.0783 7.79547 67.2439 7.68479 67.4262 7.60928C67.6085 7.53376 67.8039 7.4949 68.0012 7.4949C68.1986 7.4949 68.394 7.53376 68.5763 7.60928C68.7586 7.68479 68.9242 7.79547 69.0637 7.935C69.2033 8.07453 69.314 8.24017 69.3895 8.42248C69.465 8.60478 69.5039 8.80018 69.5039 8.9975C69.5039 9.19482 69.465 9.39022 69.3895 9.57252C69.314 9.75483 69.2033 9.92047 69.0637 10.06L65.0637 14.06C64.9244 14.1998 64.7588 14.3108 64.5765 14.3865C64.3941 14.4622 64.1987 14.5012 64.0012 14.5012C63.8038 14.5012 63.6083 14.4622 63.426 14.3865C63.2437 14.3108 63.0781 14.1998 62.9387 14.06L58.9387 10.0612Z" fill="white"/>
</g>
<defs>
<clipPath id="clip0_27_3182">
<rect width="72" height="32" rx="5" fill="white"/>
</clipPath>
</defs>
</svg>
