<svg width="72" height="32" viewBox="0 0 72 32" fill="none" xmlns="http://www.w3.org/2000/svg">
<g clip-path="url(#clip0_27_3237)">
<path d="M23.6091 8.125C23.3107 7.607 22.8188 7.22874 22.2416 7.07344C21.6643 6.91813 21.049 6.99851 20.531 7.29688C20.013 7.59524 19.6347 8.08717 19.4794 8.66443C19.3241 9.24169 19.4045 9.857 19.7029 10.375L16.6704 5.125C16.372 4.6075 15.8803 4.22971 15.3034 4.07476C14.7264 3.91981 14.1116 4.00038 13.5941 4.29875C13.0766 4.59712 12.6988 5.08884 12.5439 5.66575C12.3889 6.24266 12.4695 6.8575 12.7679 7.375L12.0504 6.125C11.752 5.6075 11.2603 5.22971 10.6834 5.07476C10.1064 4.91981 9.49162 5.00038 8.97411 5.29875C8.45661 5.59712 8.07883 6.08884 7.92387 6.66575C7.76892 7.24266 7.84949 7.8575 8.14786 8.375L8.56536 9.09625C7.94655 8.94273 7.29624 8.97462 6.69542 9.18794C6.09459 9.40126 5.56978 9.78659 5.18632 10.296C4.80286 10.8053 4.57769 11.4162 4.53884 12.0526C4.5 12.689 4.6492 13.3228 4.96786 13.875L5.34286 14.525C4.81129 14.5924 4.30463 14.7903 3.86801 15.1009C3.43138 15.4115 3.07833 15.8253 2.84028 16.3053C2.60223 16.7854 2.48657 17.3168 2.50359 17.8524C2.52062 18.388 2.6698 18.911 2.93786 19.375L7.34661 27C8.44713 28.9038 10.1435 30.3926 12.174 31.2367C14.2045 32.0808 16.4564 32.2333 18.5822 31.6707C20.708 31.1081 22.5896 29.8617 23.9368 28.1237C25.284 26.3857 26.0219 24.2527 26.0366 22.0537C26.9278 20.6642 27.4193 19.056 27.457 17.4056C27.4947 15.7552 27.0772 14.1263 26.2504 12.6975L23.6091 8.125ZM23.7591 24.07C23.3475 25.5995 22.4919 26.9727 21.3004 28.0162C20.1088 29.0598 18.6349 29.727 17.0645 29.9335C15.4941 30.14 13.8977 29.8765 12.477 29.1765C11.0562 28.4764 9.87467 27.3711 9.08161 26L4.67286 18.375C4.59079 18.2327 4.53755 18.0756 4.51618 17.9127C4.49482 17.7498 4.50574 17.5843 4.54834 17.4256C4.59094 17.2669 4.66438 17.1182 4.76445 16.9879C4.86453 16.8576 4.98929 16.7483 5.13161 16.6663C5.41904 16.5005 5.76054 16.4557 6.081 16.5417C6.23967 16.5843 6.3884 16.6578 6.51869 16.7578C6.64898 16.8579 6.75829 16.9827 6.84036 17.125L9.37536 21.5C9.50797 21.7299 9.72648 21.8977 9.98282 21.9665C10.2392 22.0353 10.5123 21.9995 10.7422 21.8669C10.9721 21.7343 11.14 21.5158 11.2088 21.2594C11.2776 21.0031 11.2417 20.7299 11.1091 20.5L6.70286 12.875C6.5371 12.5869 6.49257 12.2448 6.57907 11.9238C6.66558 11.6029 6.87602 11.3295 7.16411 11.1637C7.4522 10.998 7.79434 10.9535 8.11526 11.04C8.43619 11.1265 8.7096 11.3369 8.87536 11.625L12.8516 18.5C12.9842 18.7299 13.2027 18.8977 13.4591 18.9665C13.7154 19.0353 13.9886 18.9995 14.2185 18.8669C14.4484 18.7343 14.6162 18.5158 14.685 18.2594C14.7538 18.0031 14.718 17.7299 14.5854 17.5L11.3354 11.875C11.1696 11.5874 11.1249 11.2457 11.211 10.9252C11.2972 10.6046 11.5071 10.3314 11.7947 10.1656C12.0823 9.99986 12.424 9.95514 12.7446 10.0413C13.0651 10.1274 13.3384 10.3374 13.5041 10.625L18.0666 18.5C18.1992 18.7299 18.4177 18.8977 18.6741 18.9665C18.9304 19.0353 19.2036 18.9995 19.4335 18.8669C19.6634 18.7343 19.8312 18.5158 19.9 18.2594C19.9688 18.0031 19.933 17.7299 19.8004 17.5L18.2254 14.7812C18.1061 14.493 18.0988 14.1706 18.2051 13.8773C18.3114 13.584 18.5236 13.341 18.7998 13.1962C19.0761 13.0513 19.3966 13.0149 19.6983 13.0943C20 13.1736 20.2611 13.3629 20.4304 13.625L22.9579 18C23.4867 18.9085 23.8298 19.9131 23.9674 20.9553C24.1049 21.9975 24.0341 23.0566 23.7591 24.0713V24.07ZM20.0279 3V1C20.0279 0.734784 20.1332 0.48043 20.3208 0.292893C20.5083 0.105357 20.7626 0 21.0279 0C21.2931 0 21.5474 0.105357 21.735 0.292893C21.9225 0.48043 22.0279 0.734784 22.0279 1V3C22.0279 3.26522 21.9225 3.51957 21.735 3.70711C21.5474 3.89464 21.2931 4 21.0279 4C20.7626 4 20.5083 3.89464 20.3208 3.70711C20.1332 3.51957 20.0279 3.26522 20.0279 3ZM24.1804 3.75L25.1804 2.1125C25.2487 2.00022 25.3385 1.90251 25.4447 1.82494C25.5508 1.74737 25.6712 1.69146 25.7989 1.66041C25.9267 1.62936 26.0593 1.62378 26.1892 1.64397C26.3191 1.66417 26.4437 1.70976 26.556 1.77813C26.6683 1.84649 26.766 1.93631 26.8436 2.04244C26.9211 2.14858 26.977 2.26895 27.0081 2.39669C27.0391 2.52442 27.0447 2.65703 27.0245 2.78693C27.0043 2.91682 26.9587 3.04147 26.8904 3.15375L25.8904 4.7925C25.8009 4.93896 25.6753 5.05993 25.5255 5.14378C25.3758 5.22763 25.207 5.27152 25.0354 5.27125C24.8576 5.27153 24.683 5.22442 24.5295 5.13478C24.3759 5.04513 24.2491 4.91618 24.162 4.76121C24.0749 4.60624 24.0307 4.43085 24.0339 4.25311C24.0372 4.07537 24.0877 3.90171 24.1804 3.75ZM29.8054 7.9575L27.9241 8.56375C27.8247 8.59566 27.721 8.6121 27.6166 8.6125C27.3778 8.61321 27.1467 8.52847 26.965 8.37359C26.7833 8.21872 26.663 8.00393 26.6258 7.76808C26.5887 7.53222 26.6371 7.29085 26.7625 7.08762C26.8878 6.88439 27.0817 6.73271 27.3091 6.66L29.1916 6.05375C29.4441 5.97236 29.7185 5.99459 29.9546 6.11555C30.1906 6.23652 30.369 6.4463 30.4504 6.69875C30.5318 6.9512 30.5095 7.22565 30.3886 7.46171C30.2676 7.69777 30.0578 7.87611 29.8054 7.9575Z" fill="white"/>
<path d="M67.5962 10.4462L64.9487 5.875C64.4484 5.01244 63.6266 4.38337 62.6634 4.12563C61.7002 3.8679 60.6741 4.00252 59.8099 4.5C59.5908 4.62591 59.3848 4.77331 59.1949 4.94L57.9999 2.875C57.6927 2.34648 57.2616 1.90059 56.7438 1.57576C56.2259 1.25093 55.6368 1.0569 55.0273 1.0104C54.4177 0.963905 53.806 1.06633 53.2449 1.30884C52.6837 1.55136 52.19 1.92669 51.8062 2.4025C51.2487 2.12233 50.6304 1.98482 50.0067 2.00227C49.383 2.01972 48.7734 2.1916 48.2324 2.5025C47.4425 2.95511 46.8445 3.68008 46.5505 4.54173C46.2564 5.40337 46.2864 6.34264 46.6349 7.18375C46.3844 7.26336 46.143 7.36937 45.9149 7.5C45.4879 7.74603 45.1136 8.07381 44.8134 8.4646C44.5131 8.85539 44.2929 9.30153 44.1652 9.7775C44.0375 10.2535 44.0048 10.75 44.0691 11.2385C44.1334 11.7271 44.2934 12.1983 44.5399 12.625L44.5774 12.69C44.3335 12.7696 44.0982 12.8735 43.8749 13C43.4479 13.246 43.0736 13.5738 42.7734 13.9646C42.4731 14.3554 42.2529 14.8015 42.1252 15.2775C41.9975 15.7535 41.9648 16.25 42.0291 16.7385C42.0934 17.2271 42.2534 17.6983 42.4999 18.125L46.9162 25.75C48.3199 28.1623 50.6216 29.9207 53.3181 30.641C56.0145 31.3612 58.8865 30.9847 61.3062 29.5937C62.5054 28.9087 63.5568 27.9925 64.3994 26.8982C65.242 25.8039 65.8591 24.5533 66.2149 23.2187C66.2637 23.0375 66.3062 22.8575 66.3399 22.675C67.8056 21.026 68.7155 18.9579 68.9409 16.7633C69.1664 14.5687 68.6959 12.3587 67.5962 10.4462ZM60.9637 7.55625C61.0018 7.41266 61.0818 7.28363 61.1934 7.18555C61.305 7.08746 61.4432 7.02473 61.5905 7.00532C61.7378 6.9859 61.8875 7.01067 62.0207 7.07649C62.1539 7.1423 62.2646 7.2462 62.3387 7.375L64.9862 11.9462C65.8375 13.4196 66.1612 15.1392 65.9037 16.8212C65.701 16.2783 65.4544 15.7528 65.1662 15.25L61.0412 8.125C60.9911 8.04008 60.9585 7.94606 60.9452 7.84841C60.9319 7.75077 60.9382 7.65145 60.9637 7.55625ZM54.0124 4.55625C54.0378 4.4606 54.0818 4.37092 54.142 4.29237C54.2022 4.21382 54.2773 4.14796 54.3631 4.09858C54.4488 4.04919 54.5435 4.01727 54.6416 4.00464C54.7398 3.99201 54.8395 3.99893 54.9349 4.025C55.0303 4.05045 55.1196 4.09447 55.1979 4.15453C55.2762 4.21459 55.3419 4.28951 55.3912 4.375L58.1824 9.19375C57.9455 9.27336 57.7169 9.37593 57.4999 9.5C57.2816 9.62586 57.0764 9.77327 56.8874 9.94L54.0874 5.125C53.988 4.95284 53.9611 4.74828 54.0124 4.55625ZM49.3874 5.55625C49.4128 5.46074 49.4568 5.37118 49.5169 5.29273C49.577 5.21428 49.652 5.14848 49.7376 5.09911C49.8232 5.04975 49.9177 5.01778 50.0157 5.00506C50.1137 4.99235 50.2133 4.99912 50.3087 5.025C50.4995 5.07791 50.662 5.20358 50.7612 5.375L51.2324 6.1975C50.9928 6.27485 50.7616 6.3762 50.5424 6.5C50.3251 6.62533 50.1208 6.77188 49.9324 6.9375L49.4599 6.125C49.4103 6.03993 49.378 5.94583 49.3652 5.84817C49.3523 5.75052 49.359 5.65128 49.3849 5.55625H49.3874ZM59.8049 27C58.0758 27.9923 56.0243 28.2601 54.0984 27.7449C52.1725 27.2296 50.5288 25.9732 49.5262 24.25L45.1099 16.625C45.0606 16.5397 45.0286 16.4454 45.0158 16.3477C45.0029 16.25 45.0094 16.1507 45.035 16.0555C45.0605 15.9603 45.1046 15.8711 45.1646 15.7929C45.2247 15.7148 45.2995 15.6492 45.3849 15.6C45.4704 15.5503 45.5648 15.518 45.6628 15.5049C45.7608 15.4919 45.8604 15.4983 45.9558 15.5238C46.0513 15.5494 46.1408 15.5936 46.2192 15.6538C46.2975 15.7141 46.3632 15.7893 46.4124 15.875L48.9487 20.25C49.1476 20.5956 49.4756 20.848 49.8607 20.9518C50.2457 21.0555 50.6562 21.002 51.0018 20.8031C51.3474 20.6042 51.5998 20.2762 51.7036 19.8911C51.8073 19.5061 51.7538 19.0956 51.5549 18.75L47.1437 11.125C47.0442 10.9524 47.0174 10.7474 47.0691 10.5551C47.1208 10.3628 47.2467 10.1988 47.4193 10.0994C47.5918 9.99992 47.7968 9.97308 47.9892 10.0248C48.1815 10.0765 48.3455 10.2024 48.4449 10.375L52.4274 17.25C52.6263 17.5956 52.9544 17.848 53.3394 17.9518C53.7245 18.0555 54.1349 18.002 54.4805 17.8031C54.8262 17.6042 55.0786 17.2762 55.1823 16.8911C55.2861 16.5061 55.2326 16.0956 55.0337 15.75L51.7749 10.1312V10.125C51.6755 9.95194 51.6488 9.74647 51.7009 9.55377C51.7529 9.36108 51.8794 9.19695 52.0524 9.0975C52.2255 8.99804 52.4309 8.9714 52.6236 9.02345C52.8163 9.07549 52.9805 9.20194 53.0799 9.375L57.6512 17.25C57.8501 17.5946 58.1777 17.8461 58.5621 17.9491C58.9464 18.0522 59.3559 17.9983 59.7005 17.7994C60.0452 17.6005 60.2966 17.2728 60.3997 16.8885C60.5027 16.5041 60.4488 16.0946 60.2499 15.75L58.6812 13.0487C58.6369 12.9604 58.6105 12.8643 58.6034 12.7657C58.5964 12.6672 58.6088 12.5683 58.6399 12.4745C58.7029 12.2853 58.8384 12.1287 59.0168 12.0394C59.1051 11.9951 59.2013 11.9687 59.2998 11.9616C59.3983 11.9546 59.4973 11.967 59.591 11.9981C59.7803 12.0611 59.9368 12.1966 60.0262 12.375L62.5599 16.75C63.0527 17.6037 63.3724 18.5463 63.5006 19.5237C63.6289 20.5011 63.5632 21.4941 63.3073 22.4461C63.0514 23.3981 62.6104 24.2903 62.0094 25.0717C61.4084 25.8531 60.6593 26.5084 59.8049 27Z" fill="white"/>
</g>
<defs>
<clipPath id="clip0_27_3237">
<rect width="72" height="32" rx="5" fill="white"/>
</clipPath>
</defs>
</svg>
