<svg width="72" height="32" viewBox="0 0 72 32" fill="none" xmlns="http://www.w3.org/2000/svg">
<g clip-path="url(#clip0_27_3227)">
<path d="M27.4134 12.3075C28.1562 13.5577 28.6437 14.9427 28.8478 16.3825C29.0518 17.8224 28.9684 19.2883 28.6022 20.6957C28.2361 22.103 27.5946 23.4238 26.7147 24.5816C25.8348 25.7395 24.7342 26.7113 23.4763 27.441C22.2184 28.1707 20.8284 28.6438 19.3865 28.8328C17.9446 29.0218 16.4796 28.9231 15.0762 28.5423C13.6727 28.1615 12.3587 27.5062 11.2101 26.6143C10.0615 25.7224 9.10119 24.6117 8.38465 23.3462L3.2684 14.485C3.02504 14.0274 2.96879 13.4932 3.11153 12.995C3.25426 12.4968 3.58483 12.0734 4.03357 11.8141C4.48231 11.5548 5.01418 11.4799 5.51711 11.605C6.02004 11.7302 6.45476 12.0456 6.72965 12.485L9.04965 16.5C9.11531 16.6138 9.20274 16.7135 9.30694 16.7934C9.41113 16.8734 9.53006 16.9321 9.65693 16.9661C9.78379 17.0001 9.91612 17.0088 10.0463 16.9916C10.1766 16.9745 10.3021 16.9319 10.4159 16.8662C10.5297 16.8006 10.6294 16.7132 10.7093 16.609C10.7893 16.5048 10.848 16.3858 10.882 16.259C10.916 16.1321 10.9247 15.9998 10.9076 15.8696C10.8904 15.7393 10.8478 15.6138 10.7822 15.5L5.87465 7C5.63129 6.54242 5.57504 6.00825 5.71778 5.51002C5.86051 5.0118 6.19108 4.58843 6.63982 4.32914C7.08855 4.06985 7.62043 3.99487 8.12336 4.12001C8.62629 4.24516 9.06101 4.56064 9.3359 5L14.2497 13.5C14.3134 13.6173 14.4 13.7207 14.5043 13.8041C14.6086 13.8874 14.7286 13.9491 14.8571 13.9853C14.9857 14.0215 15.1201 14.0316 15.2526 14.0151C15.3851 13.9985 15.513 13.9555 15.6286 13.8887C15.7443 13.8219 15.8453 13.7327 15.9259 13.6262C16.0065 13.5197 16.0649 13.3981 16.0977 13.2687C16.1306 13.1392 16.1372 13.0045 16.1171 12.8725C16.097 12.7405 16.0507 12.6138 15.9809 12.5L12.2309 6C11.9734 5.54113 11.9072 4.99929 12.0465 4.49191C12.1858 3.98452 12.5194 3.55246 12.975 3.28936C13.4307 3.02626 13.9717 2.95332 14.4807 3.08634C14.9898 3.21936 15.426 3.54762 15.6947 4L20.7497 12.765C19.6319 13.8915 19.0031 15.4131 18.9997 17C18.9959 18.2988 19.4174 19.5632 20.1997 20.6C20.2777 20.7073 20.3762 20.798 20.4896 20.8668C20.603 20.9357 20.729 20.9812 20.8601 21.0009C20.9913 21.0206 21.1251 21.014 21.2537 20.9815C21.3823 20.9489 21.5032 20.8911 21.6092 20.8115C21.7153 20.7318 21.8044 20.6318 21.8714 20.5173C21.9385 20.4029 21.9821 20.2762 21.9997 20.1447C22.0173 20.0133 22.0085 19.8796 21.974 19.7515C21.9394 19.6234 21.8798 19.5035 21.7984 19.3987C21.4821 18.9764 21.2525 18.4957 21.1227 17.9842C20.993 17.4728 20.9658 16.9407 21.0426 16.4186C21.1194 15.8966 21.2987 15.3949 21.5702 14.9425C21.8418 14.4901 22.2001 14.0958 22.6247 13.7825C22.8221 13.6364 22.9588 13.4228 23.0089 13.1823C23.0589 12.9419 23.0187 12.6915 22.8959 12.4787L21.4634 10C21.2059 9.54113 21.1397 8.99929 21.279 8.49191C21.4183 7.98452 21.7519 7.55246 22.2075 7.28936C22.6632 7.02626 23.2042 6.95332 23.7132 7.08634C24.2223 7.21936 24.6585 7.54762 24.9272 8L27.4134 12.3075ZM23.7422 5.1825C24.4428 5.36713 25.0998 5.68919 25.6749 6.12996C26.25 6.57072 26.7318 7.12141 27.0922 7.75L27.1334 7.82125C27.266 8.05099 27.4845 8.21865 27.7407 8.28733C27.8675 8.32134 27.9999 8.33003 28.1301 8.3129C28.2603 8.29577 28.3859 8.25316 28.4997 8.1875C28.6134 8.12184 28.7131 8.03441 28.7931 7.93022C28.8731 7.82602 28.9317 7.70709 28.9657 7.58022C28.9998 7.45336 29.0084 7.32103 28.9913 7.19081C28.9742 7.06058 28.9316 6.935 28.8659 6.82125L28.8247 6.75C28.3332 5.89309 27.6763 5.14239 26.8922 4.54155C26.1081 3.9407 25.2124 3.50168 24.2572 3.25C24.0016 3.18392 23.7303 3.22154 23.5024 3.35466C23.2745 3.48779 23.1085 3.70561 23.0405 3.96064C22.9726 4.21568 23.0082 4.48724 23.1396 4.71612C23.271 4.94501 23.4876 5.11265 23.7422 5.1825ZM9.94715 28.215C8.65136 27.1924 7.56306 25.9314 6.7409 24.5C6.67524 24.3862 6.58782 24.2865 6.48362 24.2066C6.37943 24.1266 6.2605 24.0679 6.13363 24.0339C6.00676 23.9999 5.87444 23.9912 5.74421 24.0083C5.61399 24.0255 5.48841 24.0681 5.37465 24.1337C5.2609 24.1994 5.16119 24.2868 5.08121 24.391C5.00124 24.4952 4.94258 24.6142 4.90857 24.741C4.87456 24.8679 4.86587 25.0002 4.883 25.1304C4.90013 25.2607 4.94274 25.3862 5.0084 25.5C5.95747 27.151 7.21333 28.6054 8.7084 29.785C8.91693 29.9454 9.18028 30.0172 9.44137 29.9848C9.70246 29.9524 9.94027 29.8184 10.1032 29.6118C10.2662 29.4053 10.3412 29.1428 10.312 28.8814C10.2828 28.6199 10.1517 28.3805 9.94715 28.215Z" fill="white"/>
<path d="M63.0788 2.8925C63.1359 2.70353 63.2298 2.52771 63.3551 2.37511C63.4803 2.2225 63.6344 2.09613 63.8086 2.00322C63.9828 1.91032 64.1737 1.85271 64.3702 1.83371C64.5667 1.81471 64.765 1.83469 64.9538 1.8925C66.3003 2.30535 67.5317 3.02703 68.55 4C68.8321 4.27609 68.9941 4.65226 69.0007 5.04695C69.0073 5.44163 68.8581 5.82302 68.5853 6.1084C68.3126 6.39379 67.9384 6.56017 67.5438 6.57147C67.1492 6.58276 66.7661 6.43807 66.4775 6.16875C65.7972 5.52188 64.9754 5.04253 64.0775 4.76875C63.8885 4.71148 63.7127 4.61744 63.5601 4.49205C63.4076 4.36666 63.2812 4.21238 63.1885 4.03805C63.0957 3.86373 63.0382 3.6728 63.0194 3.47622C63.0006 3.27963 63.0207 3.08127 63.0788 2.8925ZM69.1063 20.975C68.5178 23.1721 67.291 25.1453 65.581 26.6452C63.871 28.145 61.7547 29.1041 59.4996 29.4011C57.2446 29.6982 54.9521 29.3198 52.912 28.3139C50.872 27.308 49.1761 25.7198 48.0388 23.75L43.0388 15.085C42.5094 14.167 42.3659 13.0764 42.6399 12.0527C42.9139 11.029 43.5829 10.1559 44.5 9.625C44.7959 9.4541 45.1127 9.32217 45.4425 9.2325C45.0712 8.45922 44.9584 7.58707 45.1206 6.74475C45.2828 5.90243 45.7115 5.13457 46.3434 4.55449C46.9753 3.9744 47.777 3.61283 48.6301 3.52311C49.4832 3.4334 50.3425 3.62031 51.0813 4.05625C51.4827 3.53746 52.0056 3.12537 52.6039 2.8563C53.2022 2.58722 53.8574 2.46941 54.512 2.51325C55.1665 2.55709 55.8002 2.76124 56.3572 3.1077C56.9143 3.45416 57.3776 3.9323 57.7063 4.5L59.5225 7.64625C59.9581 7.21763 60.4861 6.8945 61.0659 6.70167C61.6458 6.50885 62.2622 6.45145 62.8677 6.53388C63.4732 6.61631 64.0518 6.83639 64.559 7.17721C65.0662 7.51803 65.4886 7.97054 65.7938 8.5L67.9575 12.25C68.7164 13.5561 69.2087 14.9998 69.4059 16.4974C69.603 17.9951 69.5012 19.517 69.1063 20.975ZM65.3563 13.7488L63.1963 10C63.1306 9.88624 63.0432 9.78653 62.939 9.70656C62.8348 9.62659 62.7158 9.56793 62.589 9.53392C62.4621 9.49991 62.3298 9.49122 62.1996 9.50835C62.0693 9.52548 61.9438 9.56809 61.83 9.63375C61.7162 9.69941 61.6165 9.78684 61.5366 9.89103C61.4566 9.99523 61.3979 10.1142 61.3639 10.241C61.3299 10.3679 61.3212 10.5002 61.3384 10.6304C61.3555 10.7607 61.3981 10.8862 61.4638 11L62.2988 12.4463C62.4819 12.7636 62.5426 13.137 62.4694 13.496C62.3962 13.855 62.1941 14.1748 61.9013 14.395C61.1815 14.9339 60.6968 15.7292 60.5476 16.6159C60.3984 17.5026 60.5962 18.4127 61.1 19.1575C61.2168 19.3203 61.2998 19.5048 61.3441 19.7002C61.3883 19.8956 61.393 20.0979 61.3579 20.2951C61.3227 20.4924 61.2484 20.6806 61.1393 20.8486C61.0302 21.0166 60.8886 21.1611 60.7227 21.2735C60.5569 21.3859 60.3702 21.464 60.1737 21.503C59.9772 21.5421 59.7749 21.5414 59.5786 21.501C59.3824 21.4606 59.1963 21.3813 59.0312 21.2678C58.8661 21.1542 58.7254 21.0088 58.6175 20.84C57.8127 19.6505 57.424 18.228 57.5122 16.7945C57.6004 15.361 58.1604 13.9969 59.105 12.915L55.1125 6C54.9799 5.76959 54.7612 5.6013 54.5045 5.53215C54.2478 5.46299 53.9742 5.49864 53.7438 5.63125C53.5133 5.76386 53.3451 5.98257 53.2759 6.23926C53.2067 6.49595 53.2424 6.76959 53.375 7L56.4063 12.25C56.509 12.4207 56.5768 12.6102 56.6055 12.8074C56.6342 13.0046 56.6234 13.2056 56.5736 13.3986C56.5238 13.5915 56.436 13.7726 56.3155 13.9313C56.1949 14.09 56.0439 14.223 55.8713 14.3227C55.6987 14.4223 55.508 14.4866 55.3103 14.5117C55.1126 14.5368 54.9119 14.5223 54.7199 14.469C54.5279 14.4157 54.3484 14.3247 54.192 14.2012C54.0355 14.0778 53.9052 13.9244 53.8088 13.75L49.9163 7C49.78 6.7778 49.5623 6.61759 49.3097 6.5535C49.057 6.48941 48.7893 6.5265 48.5636 6.65688C48.3379 6.78725 48.172 7.0006 48.1013 7.25148C48.0306 7.50236 48.0606 7.77094 48.185 8L52.375 15.25C52.5653 15.5939 52.6131 15.9988 52.5079 16.3776C52.4027 16.7564 52.1531 17.0787 51.8127 17.2753C51.4723 17.4719 51.0683 17.527 50.6877 17.4287C50.3071 17.3305 49.9803 17.0868 49.7775 16.75L47.3663 12.5838C47.3025 12.4664 47.2159 12.363 47.1116 12.2796C47.0073 12.1963 46.8873 12.1347 46.7588 12.0985C46.6303 12.0622 46.4958 12.0521 46.3633 12.0687C46.2308 12.0853 46.1029 12.1282 45.9873 12.195C45.8717 12.2618 45.7706 12.3511 45.69 12.4576C45.6094 12.5641 45.551 12.6856 45.5182 12.8151C45.4853 12.9445 45.4787 13.0792 45.4988 13.2112C45.5189 13.3433 45.5652 13.4699 45.635 13.5838L50.6375 22.25C51.7647 24.2023 53.6212 25.6269 55.7988 26.2104C56.877 26.4993 58.0015 26.573 59.1082 26.4273C60.2149 26.2816 61.2821 25.9194 62.2488 25.3613C63.2154 24.8031 64.0627 24.0601 64.7423 23.1745C65.4218 22.2889 65.9202 21.2782 66.2091 20.2C66.4981 19.1218 66.5718 17.9972 66.4261 16.8905C66.2804 15.7839 65.9181 14.7167 65.36 13.75L65.3563 13.7488ZM46.3075 24.75C46.211 24.5756 46.0807 24.4222 45.9243 24.2988C45.7679 24.1753 45.5884 24.0843 45.3964 24.031C45.2043 23.9777 45.0036 23.9632 44.8059 23.9883C44.6082 24.0134 44.4175 24.0777 44.2449 24.1773C44.0724 24.277 43.9214 24.4101 43.8008 24.5687C43.6802 24.7274 43.5925 24.9085 43.5427 25.1015C43.4929 25.2944 43.482 25.4954 43.5107 25.6926C43.5395 25.8898 43.6072 26.0793 43.71 26.25C44.4025 27.4491 45.2424 28.5569 46.21 29.5475C46.3463 29.6936 46.5105 29.811 46.6928 29.8928C46.8751 29.9746 47.0719 30.0192 47.2717 30.0238C47.4715 30.0285 47.6702 29.9932 47.8561 29.92C48.0421 29.8468 48.2115 29.7372 48.3545 29.5976C48.4975 29.458 48.6112 29.2913 48.6889 29.1072C48.7665 28.923 48.8066 28.7253 48.8068 28.5254C48.8069 28.3256 48.7672 28.1277 48.6898 27.9435C48.6124 27.7592 48.499 27.5923 48.3563 27.4525C47.5637 26.6403 46.8754 25.7325 46.3075 24.75Z" fill="white"/>
</g>
<defs>
<clipPath id="clip0_27_3227">
<rect width="72" height="32" rx="5" fill="white"/>
</clipPath>
</defs>
</svg>
