<svg width="72" height="32" viewBox="0 0 72 32" fill="none" xmlns="http://www.w3.org/2000/svg">
<g clip-path="url(#clip0_27_2780)">
<path d="M27 16V22.3663C27 25.565 25.94 27.3575 25.895 27.4475C25.8119 27.6136 25.6841 27.7533 25.526 27.8509C25.3679 27.9485 25.1858 28.0001 25 28H8.00002C7.82569 28 7.65438 27.9545 7.50309 27.8679C7.3518 27.7813 7.22577 27.6566 7.13752 27.5063L3.26877 20C3.13329 19.7655 3.04684 19.506 3.01466 19.2371C2.98248 18.9682 3.00524 18.6956 3.08157 18.4358C3.15789 18.1759 3.28618 17.9343 3.45867 17.7255C3.63116 17.5168 3.84425 17.3452 4.08502 17.2213C5.04252 16.7213 6.22252 17.1163 6.76002 18.0488L9.38502 22.6038C9.45803 22.7349 9.56818 22.8416 9.70162 22.9103C9.83507 22.979 9.98585 23.0067 10.135 22.99H10.15C10.3902 22.9487 10.6078 22.823 10.7636 22.6355C10.9194 22.4481 11.0033 22.2112 11 21.9675V7.00001C10.9997 6.72906 11.0544 6.46088 11.1609 6.21174C11.2674 5.96259 11.4234 5.73768 11.6194 5.55065C11.8154 5.36361 12.0474 5.21836 12.3013 5.12371C12.5552 5.02905 12.8256 4.98697 13.0963 5.00001C14.1725 5.05001 15 5.97751 15 7.05376V16C14.9997 16.1371 15.0276 16.2728 15.082 16.3986C15.1363 16.5245 15.2159 16.6378 15.3159 16.7316C15.4159 16.8254 15.5341 16.8976 15.6632 16.9438C15.7923 16.99 15.9295 17.0091 16.0663 17C16.3234 16.9779 16.5627 16.8593 16.7359 16.668C16.9091 16.4766 17.0035 16.2268 17 15.9688V14C16.9997 13.7291 17.0544 13.4609 17.1609 13.2117C17.2674 12.9626 17.4234 12.7377 17.6194 12.5506C17.8154 12.3636 18.0474 12.2184 18.3013 12.1237C18.5552 12.0291 18.8256 11.987 19.0963 12C20.1725 12.05 21 12.9775 21 14.0538V17C20.9997 17.1371 21.0276 17.2728 21.082 17.3986C21.1363 17.5245 21.2159 17.6378 21.3159 17.7316C21.4159 17.8254 21.5341 17.8976 21.6632 17.9438C21.7923 17.99 21.9295 18.0091 22.0663 18C22.3233 17.9776 22.5624 17.8589 22.7356 17.6677C22.9087 17.4764 23.0032 17.2267 23 16.9688V16.0588C23 14.9825 23.8275 14.0588 24.9038 14.005C25.174 13.992 25.444 14.0339 25.6976 14.1283C25.9511 14.2226 26.1828 14.3674 26.3788 14.5539C26.5748 14.7404 26.7309 14.9647 26.8376 15.2133C26.9444 15.4618 26.9997 15.7295 27 16ZM31.7075 6.29251L27.7075 2.29251C27.5199 2.10487 27.2654 1.99945 27 1.99945C26.7347 1.99945 26.4802 2.10487 26.2925 2.29251C26.1049 2.48015 25.9995 2.73464 25.9995 3.00001C25.9995 3.26537 26.1049 3.51987 26.2925 3.70751L28.5863 6.00001H22C21.7348 6.00001 21.4804 6.10536 21.2929 6.2929C21.1054 6.48044 21 6.73479 21 7.00001C21 7.26522 21.1054 7.51958 21.2929 7.70711C21.4804 7.89465 21.7348 8.00001 22 8.00001H28.5863L26.2925 10.2925C26.1049 10.4801 25.9995 10.7346 25.9995 11C25.9995 11.2654 26.1049 11.5199 26.2925 11.7075C26.4802 11.8951 26.7347 12.0006 27 12.0006C27.2654 12.0006 27.5199 11.8951 27.7075 11.7075L31.7075 7.70751C31.8005 7.61463 31.8743 7.50434 31.9246 7.38295C31.9749 7.26155 32.0008 7.13142 32.0008 7.00001C32.0008 6.86859 31.9749 6.73846 31.9246 6.61707C31.8743 6.49567 31.8005 6.38538 31.7075 6.29251Z" fill="white"/>
<path d="M67.4999 18.5V23C67.4999 24.7313 67.2961 26.315 66.9274 27.46C66.8004 27.8324 66.5322 28.14 66.1806 28.3165C65.829 28.4929 65.4221 28.5242 65.0476 28.4036C64.6731 28.2829 64.3611 28.0199 64.1787 27.6713C63.9962 27.3228 63.9581 26.9165 64.0724 26.54C64.3399 25.7088 64.4999 24.385 64.4999 23V18.5C64.4999 18.2348 64.3945 17.9804 64.207 17.7929C64.0195 17.6054 63.7651 17.5 63.4999 17.5C63.2347 17.5 62.9803 17.6054 62.7928 17.7929C62.6052 17.9804 62.4999 18.2348 62.4999 18.5V19C62.4999 19.3978 62.3419 19.7794 62.0606 20.0607C61.7792 20.342 61.3977 20.5 60.9999 20.5C60.6021 20.5 60.2205 20.342 59.9392 20.0607C59.6579 19.7794 59.4999 19.3978 59.4999 19V16.5C59.4999 16.2348 59.3945 15.9804 59.207 15.7929C59.0195 15.6054 58.7651 15.5 58.4999 15.5C58.2347 15.5 57.9803 15.6054 57.7928 15.7929C57.6052 15.9804 57.4999 16.2348 57.4999 16.5V18C57.4999 18.3978 57.3419 18.7794 57.0606 19.0607C56.7792 19.342 56.3977 19.5 55.9999 19.5C55.6021 19.5 55.2205 19.342 54.9392 19.0607C54.6579 18.7794 54.4999 18.3978 54.4999 18V9.50001C54.4999 9.23479 54.3945 8.98044 54.207 8.7929C54.0195 8.60537 53.7651 8.50001 53.4999 8.50001C53.2347 8.50001 52.9803 8.60537 52.7928 8.7929C52.6052 8.98044 52.4999 9.23479 52.4999 9.50001V23C52.4995 23.3257 52.3932 23.6423 52.197 23.9022C52.0007 24.1621 51.7253 24.3511 51.4121 24.4406C51.099 24.5301 50.7653 24.5152 50.4614 24.3983C50.1574 24.2814 49.8998 24.0688 49.7274 23.7925L47.3924 20.0425L47.3661 20C47.2349 19.7691 47.0172 19.5998 46.7611 19.5294C46.505 19.4589 46.2314 19.4931 46.0005 19.6244C45.7696 19.7557 45.6003 19.9733 45.5299 20.2294C45.4594 20.4855 45.4936 20.7591 45.6249 20.99L48.7836 26.225C48.989 26.5658 49.0506 26.9742 48.9548 27.3605C48.8591 27.7467 48.6138 28.079 48.273 28.2844C47.9322 28.4898 47.5238 28.5513 47.1376 28.4556C46.7514 28.3598 46.419 28.1146 46.2136 27.7738L43.0499 22.5238L43.0349 22.4988C42.5386 21.6395 42.3793 20.6265 42.5881 19.6564C42.7968 18.6863 43.3587 17.8285 44.1646 17.2495C44.9704 16.6705 45.9627 16.4117 46.9487 16.5234C47.9347 16.6351 48.8439 17.1092 49.4999 17.8538V9.50001C49.4999 8.43914 49.9213 7.42173 50.6715 6.67158C51.4216 5.92144 52.439 5.50001 53.4999 5.50001C54.5608 5.50001 55.5782 5.92144 56.3283 6.67158C57.0785 7.42173 57.4999 8.43914 57.4999 9.50001V12.625C58.3937 12.3943 59.3399 12.4799 60.1778 12.8672C61.0158 13.2545 61.694 13.9197 62.0974 14.75C62.7028 14.5233 63.3542 14.4468 63.9957 14.5269C64.6372 14.607 65.2497 14.8415 65.7808 15.2101C66.3118 15.5787 66.7457 16.0706 67.0451 16.6436C67.3445 17.2165 67.5005 17.8535 67.4999 18.5ZM71.5599 5.93876L67.5599 1.93876C67.4204 1.79923 67.2547 1.68855 67.0724 1.61304C66.8901 1.53752 66.6947 1.49866 66.4974 1.49866C66.3001 1.49866 66.1047 1.53752 65.9224 1.61304C65.7401 1.68855 65.5744 1.79923 65.4349 1.93876C65.2954 2.07829 65.1847 2.24393 65.1092 2.42624C65.0337 2.60854 64.9948 2.80393 64.9948 3.00126C64.9948 3.19858 65.0337 3.39398 65.1092 3.57628C65.1847 3.75858 65.2954 3.92423 65.4349 4.06376L66.8749 5.50001H61.4999C61.1021 5.50001 60.7205 5.65804 60.4392 5.93935C60.1579 6.22065 59.9999 6.60218 59.9999 7.00001C59.9999 7.39783 60.1579 7.77937 60.4392 8.06067C60.7205 8.34197 61.1021 8.50001 61.4999 8.50001H66.8749L65.4386 9.93876C65.2991 10.0783 65.1884 10.2439 65.1129 10.4262C65.0374 10.6085 64.9985 10.8039 64.9985 11.0013C64.9985 11.1986 65.0374 11.394 65.1129 11.5763C65.1884 11.7586 65.2991 11.9242 65.4386 12.0638C65.5782 12.2033 65.7438 12.314 65.9261 12.3895C66.1084 12.465 66.3038 12.5039 66.5011 12.5039C66.6985 12.5039 66.8939 12.465 67.0762 12.3895C67.2585 12.314 67.4241 12.2033 67.5636 12.0638L71.5636 8.06376C71.7032 7.92416 71.8139 7.75837 71.8893 7.57591C71.9647 7.39345 72.0033 7.1979 72.003 7.00048C72.0026 6.80306 71.9633 6.60765 71.8873 6.42545C71.8112 6.24326 71.7 6.07787 71.5599 5.93876Z" fill="white"/>
</g>
<defs>
<clipPath id="clip0_27_2780">
<rect width="72" height="32" rx="5" fill="white"/>
</clipPath>
</defs>
</svg>
