<svg width="72" height="32" viewBox="0 0 72 32" fill="none" xmlns="http://www.w3.org/2000/svg">
<g clip-path="url(#clip0_27_3202)">
<path d="M29 15V16C29 17.7111 28.6622 19.4053 28.006 20.9856C27.3498 22.5658 26.3881 24.001 25.1761 25.2088C23.964 26.4165 22.5254 27.3732 20.9428 28.0237C19.3603 28.6743 17.6648 29.0061 15.9538 29C9.20375 28.9763 3.70375 23.7425 3.06375 17.1525C3.05681 17.0667 3.07216 16.9805 3.10832 16.9023C3.14448 16.8241 3.20021 16.7566 3.27013 16.7063C3.34004 16.656 3.42176 16.6247 3.50737 16.6152C3.59297 16.6058 3.67956 16.6186 3.75875 16.6525C4.65819 17.0301 5.65609 17.1046 6.60166 16.8649C7.54723 16.6252 8.38908 16.0842 9 15.3238C9.40029 15.8216 9.90219 16.2282 10.4722 16.5166C11.0422 16.8049 11.6671 16.9684 12.3053 16.9959C12.9435 17.0235 13.5802 16.9146 14.1729 16.6764C14.7657 16.4383 15.3008 16.0764 15.7425 15.615C16.1473 16.2727 16.6977 16.8286 17.3513 17.24C16.62 17.7995 16.0275 18.5199 15.6197 19.3454C15.212 20.1709 14.9999 21.0793 15 22C14.9995 22.1387 15.0279 22.2759 15.0833 22.4031C15.1387 22.5302 15.2199 22.6444 15.3219 22.7384C15.4238 22.8325 15.5441 22.9043 15.6753 22.9493C15.8065 22.9944 15.9456 23.0116 16.0838 23C16.3375 22.9727 16.572 22.8517 16.7414 22.6608C16.9108 22.4699 17.003 22.2227 17 21.9675C17.0086 20.9123 17.4338 19.9032 18.183 19.1601C18.9322 18.4169 19.9447 18 21 18C21.1371 18.0003 21.2728 17.9724 21.3986 17.9181C21.5245 17.8637 21.6378 17.7841 21.7316 17.6841C21.8254 17.5841 21.8976 17.4659 21.9438 17.3368C21.9899 17.2077 22.0091 17.0705 22 16.9338C21.9776 16.6767 21.8589 16.4376 21.6677 16.2645C21.4764 16.0913 21.2267 15.9968 20.9688 16H20C19.2044 16 18.4413 15.6839 17.8787 15.1213C17.3161 14.5587 17 13.7957 17 13V11H25C26.0609 11 27.0783 11.4214 27.8284 12.1716C28.5786 12.9217 29 13.9391 29 15ZM5.59125 15C6.94625 14.95 8 13.7963 8 12.44V9.565C8 8.20375 6.94625 7.05 5.59125 7C5.25535 6.98773 4.92042 7.04333 4.6065 7.16346C4.29257 7.28359 4.00609 7.4658 3.7642 7.69918C3.5223 7.93256 3.32995 8.21232 3.19864 8.52174C3.06734 8.83116 2.99978 9.16388 3 9.5V12.5C2.99978 12.8361 3.06734 13.1688 3.19864 13.4783C3.32995 13.7877 3.5223 14.0674 3.7642 14.3008C4.00609 14.5342 4.29257 14.7164 4.6065 14.8365C4.92042 14.9567 5.25535 15.0123 5.59125 15ZM12.5913 15C13.9463 14.9513 15 13.7975 15 12.4413V6.56625C15 5.21 13.9463 4.05625 12.5913 4.0075C12.256 3.99526 11.9217 4.05062 11.6082 4.17029C11.2948 4.28996 11.0087 4.47149 10.7669 4.70407C10.5251 4.93665 10.3326 5.21552 10.2008 5.52406C10.0691 5.8326 10.0008 6.16451 10 6.5V12.5C9.99978 12.8361 10.0673 13.1688 10.1986 13.4783C10.3299 13.7877 10.5223 14.0674 10.7642 14.3008C11.0061 14.5342 11.2926 14.7164 11.6065 14.8365C11.9204 14.9567 12.2553 15.0123 12.5913 15ZM22 6.5C22.0002 6.16388 21.9327 5.83116 21.8014 5.52174C21.6701 5.21232 21.4777 4.93256 21.2358 4.69918C20.9939 4.4658 20.7074 4.28359 20.3935 4.16346C20.0796 4.04333 19.7447 3.98773 19.4088 4C18.0538 4.05 17 5.20375 17 6.56V9H21.5C21.6326 9 21.7598 8.94732 21.8536 8.85356C21.9473 8.75979 22 8.63261 22 8.5V6.5Z" fill="white"/>
<path d="M65 9.50001H63.5V8.00001C63.4992 7.13167 63.2472 6.2821 62.7744 5.55378C62.3015 4.82545 61.6281 4.24949 60.8352 3.89535C60.0424 3.54121 59.164 3.42403 58.3061 3.55793C57.4481 3.69184 56.6472 4.07111 56 4.65001C55.4285 4.13871 54.7358 3.78194 53.9877 3.61356C53.2395 3.44518 52.4608 3.47078 51.7253 3.68792C50.9899 3.90506 50.3221 4.30655 49.7854 4.85427C49.2487 5.402 48.8609 6.07779 48.6587 6.81751C47.9763 6.54687 47.2379 6.44734 46.5081 6.5276C45.7783 6.60785 45.0792 6.86546 44.4719 7.27793C43.8645 7.69041 43.3673 8.24524 43.0236 8.89401C42.6798 9.54279 42.5001 10.2658 42.5 11V16C42.5 19.5804 43.9223 23.0142 46.4541 25.5459C48.9858 28.0777 52.4196 29.5 56 29.5C59.5804 29.5 63.0142 28.0777 65.5459 25.5459C68.0777 23.0142 69.5 19.5804 69.5 16V14C69.5 12.8065 69.0259 11.6619 68.182 10.818C67.3381 9.97411 66.1935 9.50001 65 9.50001ZM57.5 8.00001C57.5 7.60218 57.658 7.22065 57.9393 6.93935C58.2206 6.65804 58.6022 6.50001 59 6.50001C59.3978 6.50001 59.7794 6.65804 60.0607 6.93935C60.342 7.22065 60.5 7.60218 60.5 8.00001V9.50001H57.5V8.00001ZM51.5 8.00001C51.5 7.60218 51.658 7.22065 51.9393 6.93935C52.2206 6.65804 52.6022 6.50001 53 6.50001C53.3978 6.50001 53.7794 6.65804 54.0607 6.93935C54.342 7.22065 54.5 7.60218 54.5 8.00001V13C54.5 13.3978 54.342 13.7794 54.0607 14.0607C53.7794 14.342 53.3978 14.5 53 14.5C52.6022 14.5 52.2206 14.342 51.9393 14.0607C51.658 13.7794 51.5 13.3978 51.5 13V8.00001ZM45.5 11C45.5 10.6022 45.658 10.2207 45.9393 9.93935C46.2206 9.65804 46.6022 9.50001 47 9.50001C47.3978 9.50001 47.7794 9.65804 48.0607 9.93935C48.342 10.2207 48.5 10.6022 48.5 11V13C48.5 13.3978 48.342 13.7794 48.0607 14.0607C47.7794 14.342 47.3978 14.5 47 14.5C46.6022 14.5 46.2206 14.342 45.9393 14.0607C45.658 13.7794 45.5 13.3978 45.5 13V11ZM66.5 16C66.5014 18.6757 65.4813 21.2511 63.648 23.2C61.8146 25.149 59.3064 26.3245 56.6355 26.4864C53.9647 26.6484 51.3328 25.7846 49.2774 24.0714C47.222 22.3583 45.8981 19.9251 45.5763 17.2688C46.329 17.5201 47.135 17.5675 47.9121 17.4062C48.6891 17.2448 49.4096 16.8804 50 16.35C50.736 17.0117 51.6702 17.4115 52.6571 17.487C53.644 17.5625 54.6281 17.3095 55.4563 16.7675C55.6868 17.0644 55.9534 17.3315 56.25 17.5625C55.1234 18.7652 54.4976 20.3521 54.5 22C54.5 22.3978 54.658 22.7794 54.9393 23.0607C55.2206 23.342 55.6022 23.5 56 23.5C56.3978 23.5 56.7794 23.342 57.0607 23.0607C57.342 22.7794 57.5 22.3978 57.5 22C57.5 21.0718 57.8687 20.1815 58.5251 19.5251C59.1815 18.8688 60.0717 18.5 61 18.5C61.3978 18.5 61.7794 18.342 62.0607 18.0607C62.342 17.7794 62.5 17.3978 62.5 17C62.5 16.6022 62.342 16.2207 62.0607 15.9393C61.7794 15.658 61.3978 15.5 61 15.5H59C58.6022 15.5 58.2206 15.342 57.9393 15.0607C57.658 14.7794 57.5 14.3978 57.5 14V12.5H65C65.3978 12.5 65.7794 12.658 66.0607 12.9393C66.342 13.2207 66.5 13.6022 66.5 14V16Z" fill="white"/>
</g>
<defs>
<clipPath id="clip0_27_3202">
<rect width="72" height="32" rx="5" fill="white"/>
</clipPath>
</defs>
</svg>
