<svg width="72" height="32" viewBox="0 0 72 32" fill="none" xmlns="http://www.w3.org/2000/svg">
<g clip-path="url(#clip0_27_1237)">
<path d="M16.0112 7.17252C16.0673 6.39647 16.3236 5.64821 16.7551 5.00077C17.1866 4.35334 17.7787 3.82886 18.4734 3.47853C19.1682 3.1282 19.9419 2.96399 20.719 3.00194C21.4962 3.03988 22.2502 3.27868 22.9075 3.69502C22.9827 3.74419 23.0432 3.8127 23.0827 3.89334C23.1222 3.97398 23.1393 4.06377 23.1322 4.1533C23.125 4.24282 23.0938 4.32876 23.042 4.40209C22.9902 4.47541 22.9195 4.53343 22.8375 4.57002C21.6949 5.08411 20.7249 5.91714 20.0442 6.96906C19.3634 8.02098 19.0009 9.24706 19 10.5C19 10.6463 19 10.7925 19.015 10.9363C19.0219 11.0271 19.0038 11.1181 18.9627 11.1995C18.9217 11.2808 18.8591 11.3494 18.7819 11.3978C18.7047 11.4462 18.6158 11.4725 18.5247 11.474C18.4335 11.4755 18.3438 11.4521 18.265 11.4063C17.5283 10.9849 16.9258 10.3638 16.5271 9.61468C16.1283 8.86556 15.9495 8.01893 16.0112 7.17252ZM30 20.0763C30.0018 20.6477 29.8435 21.2082 29.543 21.6942C29.2426 22.1803 28.8119 22.5724 28.3 22.8263L28.245 22.8513L23.3913 24.9188C23.3433 24.9399 23.2935 24.9566 23.2425 24.9688L15.2425 26.9688C15.1633 26.9892 15.0818 26.9997 15 27H2C1.46957 27 0.960859 26.7893 0.585786 26.4142C0.210714 26.0392 0 25.5305 0 25V20C0 19.4696 0.210714 18.9609 0.585786 18.5858C0.960859 18.2107 1.46957 18 2 18H5.58625L8.41375 15.1713C8.78451 14.7989 9.22539 14.5036 9.71092 14.3026C10.1964 14.1015 10.717 13.9987 11.2425 14H17.5C18.0282 14 18.5496 14.1195 19.0251 14.3496C19.5005 14.5797 19.9177 14.9144 20.2454 15.3287C20.5731 15.743 20.8028 16.226 20.9172 16.7417C21.0317 17.2574 21.0279 17.7923 20.9062 18.3063L26.1362 17.1038C26.5915 16.9832 27.0685 16.9688 27.5302 17.0616C27.992 17.1545 28.4262 17.3521 28.7995 17.6393C29.1728 17.9265 29.4752 18.2956 29.6833 18.7181C29.8915 19.1406 29.9998 19.6053 30 20.0763ZM28 20.0763C27.9998 19.9109 27.9616 19.7478 27.8882 19.5997C27.8148 19.4515 27.7083 19.3222 27.5769 19.2219C27.4455 19.1215 27.2927 19.0528 27.1305 19.0211C26.9682 18.9893 26.8008 18.9954 26.6413 19.0388L26.6025 19.0488L18.2275 20.975C18.154 20.9914 18.079 20.9998 18.0037 21H14C13.7348 21 13.4804 20.8947 13.2929 20.7071C13.1054 20.5196 13 20.2652 13 20C13 19.7348 13.1054 19.4805 13.2929 19.2929C13.4804 19.1054 13.7348 19 14 19H17.5C17.8978 19 18.2794 18.842 18.5607 18.5607C18.842 18.2794 19 17.8978 19 17.5C19 17.1022 18.842 16.7207 18.5607 16.4394C18.2794 16.1581 17.8978 16 17.5 16H11.2425C10.9798 15.9992 10.7195 16.0506 10.4768 16.1512C10.2341 16.2519 10.0138 16.3997 9.82875 16.5863L7 19.4138V25H14.875L22.6787 23.0488L27.4287 21.0263C27.6016 20.9352 27.7463 20.7985 27.847 20.631C27.9477 20.4635 28.0006 20.2717 28 20.0763ZM21 10.5C21 11.39 21.2639 12.2601 21.7584 13.0001C22.2529 13.7401 22.9557 14.3169 23.7779 14.6575C24.6002 14.9981 25.505 15.0872 26.3779 14.9136C27.2508 14.7399 28.0526 14.3113 28.682 13.682C29.3113 13.0527 29.7399 12.2508 29.9135 11.3779C30.0872 10.505 29.9981 9.60022 29.6575 8.77795C29.3169 7.95568 28.7401 7.25288 28.0001 6.75841C27.26 6.26394 26.39 6.00002 25.5 6.00002C24.3065 6.00002 23.1619 6.47413 22.318 7.31804C21.4741 8.16196 21 9.30655 21 10.5Z" fill="white"/>
<path d="M69.095 17.235C68.663 16.9041 68.1606 16.6769 67.6267 16.5711C67.0929 16.4654 66.5418 16.4838 66.0163 16.625L61.5 17.6575C61.5 17.605 61.5 17.5525 61.5 17.5C61.5 16.4391 61.0786 15.4217 60.3284 14.6716C59.5783 13.9214 58.5609 13.5 57.5 13.5H51.2425C50.6515 13.4984 50.066 13.614 49.5199 13.8401C48.9739 14.0663 48.4781 14.3985 48.0612 14.8175L45.375 17.5H42.5C41.837 17.5 41.2011 17.7634 40.7322 18.2322C40.2634 18.7011 40 19.337 40 20V25C40 25.663 40.2634 26.2989 40.7322 26.7678C41.2011 27.2366 41.837 27.5 42.5 27.5H55C55.1226 27.5001 55.2448 27.485 55.3638 27.455L63.3638 25.455C63.4403 25.4362 63.5151 25.4111 63.5875 25.38L68.44 23.3125C68.4688 23.3013 68.4963 23.2887 68.5238 23.275C69.0664 23.0035 69.5311 22.5984 69.8741 22.0978C70.217 21.5972 70.4269 21.0175 70.4841 20.4134C70.5412 19.8093 70.4437 19.2005 70.2007 18.6445C69.9577 18.0885 69.5772 17.6034 69.095 17.235ZM44.5 24.5H43V20.5H44.5V24.5ZM67.21 20.5763L62.5212 22.5763L54.815 24.5H47.5V19.625L50.1825 16.9425C50.3212 16.8023 50.4862 16.691 50.6682 16.6151C50.8501 16.5391 51.0453 16.5 51.2425 16.5H57.5C57.7652 16.5 58.0196 16.6054 58.2071 16.7929C58.3946 16.9804 58.5 17.2348 58.5 17.5C58.5 17.7652 58.3946 18.0196 58.2071 18.2071C58.0196 18.3946 57.7652 18.5 57.5 18.5H54C53.6022 18.5 53.2206 18.658 52.9393 18.9393C52.658 19.2206 52.5 19.6022 52.5 20C52.5 20.3978 52.658 20.7794 52.9393 21.0607C53.2206 21.342 53.6022 21.5 54 21.5H58C58.1131 21.5 58.2259 21.4874 58.3363 21.4625L66.7113 19.5362L66.77 19.5212C66.8554 19.498 66.945 19.4948 67.0318 19.5118C67.1187 19.5287 67.2004 19.5655 67.2708 19.6191C67.3411 19.6728 67.3982 19.742 67.4375 19.8212C67.4768 19.9005 67.4973 19.9878 67.4975 20.0763C67.4981 20.1776 67.4718 20.2773 67.4213 20.3651C67.3708 20.4529 67.2979 20.5258 67.21 20.5763ZM60.5 12.5C60.7165 12.4997 60.9328 12.4855 61.1475 12.4575C61.5933 13.2477 62.2457 13.9017 63.0348 14.3494C63.8239 14.7971 64.72 15.0217 65.6269 14.999C66.5339 14.9764 67.4177 14.7074 68.1834 14.2209C68.9492 13.7344 69.5682 13.0487 69.9741 12.2373C70.3799 11.4258 70.5573 10.5193 70.4873 9.61472C70.4173 8.71017 70.1025 7.84171 69.5766 7.1024C69.0507 6.3631 68.3336 5.78081 67.502 5.41794C66.6705 5.05507 65.7559 4.92529 64.8563 5.0425C64.4239 4.27641 63.7971 3.63794 63.0391 3.19156C62.281 2.74518 61.4187 2.50668 60.539 2.50014C59.6594 2.4936 58.7936 2.71925 58.029 3.15432C57.2644 3.58938 56.6282 4.21846 56.1845 4.97804C55.7408 5.73762 55.5053 6.60081 55.5019 7.48048C55.4985 8.36016 55.7272 9.22516 56.1649 9.98819C56.6027 10.7512 57.234 11.3852 57.9952 11.8262C58.7563 12.2673 59.6203 12.4997 60.5 12.5ZM65.5 8C65.8956 8 66.2822 8.1173 66.6111 8.33706C66.94 8.55682 67.1964 8.86918 67.3478 9.23463C67.4991 9.60009 67.5387 10.0022 67.4616 10.3902C67.3844 10.7781 67.1939 11.1345 66.9142 11.4142C66.6345 11.6939 66.2781 11.8844 65.8902 11.9616C65.5022 12.0387 65.1001 11.9991 64.7346 11.8478C64.3692 11.6964 64.0568 11.44 63.8371 11.1111C63.6173 10.7822 63.5 10.3956 63.5 10C63.5 9.46957 63.7107 8.96086 64.0858 8.58579C64.4609 8.21071 64.9696 8 65.5 8ZM60.5 5.5C60.8154 5.49986 61.1263 5.5743 61.4074 5.71725C61.6885 5.86019 61.9318 6.06759 62.1175 6.3225C61.2145 7.15017 60.6476 8.28121 60.525 9.5H60.5C59.9696 9.5 59.4609 9.28929 59.0858 8.91421C58.7107 8.53914 58.5 8.03043 58.5 7.5C58.5 6.96957 58.7107 6.46086 59.0858 6.08579C59.4609 5.71071 59.9696 5.5 60.5 5.5Z" fill="white"/>
</g>
<defs>
<clipPath id="clip0_27_1237">
<rect width="72" height="32" rx="5" fill="white"/>
</clipPath>
</defs>
</svg>
