<svg width="72" height="32" viewBox="0 0 72 32" fill="none" xmlns="http://www.w3.org/2000/svg">
<g clip-path="url(#clip0_27_3212)">
<path d="M27 13V19C27 21.9174 25.8411 24.7153 23.7782 26.7782C21.7153 28.8411 18.9174 30 16 30C13.0826 30 10.2847 28.8411 8.22183 26.7782C6.15893 24.7153 5 21.9174 5 19V8C5 7.46957 5.21071 6.96086 5.58579 6.58579C5.96086 6.21071 6.46957 6 7 6C7.53043 6 8.03914 6.21071 8.41421 6.58579C8.78929 6.96086 9 7.46957 9 8V15C9 15.2652 9.10536 15.5196 9.29289 15.7071C9.48043 15.8946 9.73478 16 10 16C10.2652 16 10.5196 15.8946 10.7071 15.7071C10.8946 15.5196 11 15.2652 11 15V4C11 3.46957 11.2107 2.96086 11.5858 2.58579C11.9609 2.21071 12.4696 2 13 2C13.5304 2 14.0391 2.21071 14.4142 2.58579C14.7893 2.96086 15 3.46957 15 4V14C15 14.2652 15.1054 14.5196 15.2929 14.7071C15.4804 14.8946 15.7348 15 16 15C16.2652 15 16.5196 14.8946 16.7071 14.7071C16.8946 14.5196 17 14.2652 17 14V6C17 5.46957 17.2107 4.96086 17.5858 4.58579C17.9609 4.21071 18.4696 4 19 4C19.5304 4 20.0391 4.21071 20.4142 4.58579C20.7893 4.96086 21 5.46957 21 6V16.0837C19.6027 16.3219 18.3346 17.0463 17.4197 18.1289C16.5048 19.2115 16.002 20.5826 16 22C16 22.2652 16.1054 22.5196 16.2929 22.7071C16.4804 22.8946 16.7348 23 17 23C17.2652 23 17.5196 22.8946 17.7071 22.7071C17.8946 22.5196 18 22.2652 18 22C18 20.9391 18.4214 19.9217 19.1716 19.1716C19.9217 18.4214 20.9391 18 22 18C22.2652 18 22.5196 17.8946 22.7071 17.7071C22.8946 17.5196 23 17.2652 23 17V13C23 12.4696 23.2107 11.9609 23.5858 11.5858C23.9609 11.2107 24.4696 11 25 11C25.5304 11 26.0391 11.2107 26.4142 11.5858C26.7893 11.9609 27 12.4696 27 13Z" fill="white"/>
<path d="M63.5 10.5C63.1627 10.4993 62.8267 10.5413 62.5 10.625V7.49999C62.5006 6.85367 62.3445 6.21683 62.0452 5.644C61.7458 5.07117 61.3121 4.5794 60.7812 4.2108C60.2503 3.84219 59.638 3.60773 58.9967 3.52748C58.3553 3.44723 57.7041 3.52358 57.0988 3.74999C56.7035 2.93533 56.0435 2.27889 55.2267 1.88801C54.4099 1.49713 53.4847 1.39495 52.6023 1.59816C51.7199 1.80138 50.9326 2.29797 50.369 3.00674C49.8055 3.71551 49.4991 4.5945 49.5 5.49999V5.62499C48.9087 5.47233 48.2904 5.45707 47.6923 5.58037C47.0943 5.70367 46.5324 5.96226 46.0497 6.33632C45.5671 6.71038 45.1764 7.18998 44.9078 7.73836C44.6392 8.28675 44.4997 8.88935 44.5 9.49999V19C44.5 22.05 45.7116 24.9751 47.8683 27.1317C50.0249 29.2884 52.95 30.5 56 30.5C59.05 30.5 61.9751 29.2884 64.1317 27.1317C66.2884 24.9751 67.5 22.05 67.5 19V14.5C67.5 13.4391 67.0786 12.4217 66.3284 11.6716C65.5783 10.9214 64.5609 10.5 63.5 10.5ZM64.5 19C64.5 21.2543 63.6045 23.4163 62.0104 25.0104C60.4163 26.6045 58.2543 27.5 56 27.5C53.7457 27.5 51.5837 26.6045 49.9896 25.0104C48.3955 23.4163 47.5 21.2543 47.5 19V9.49999C47.5 9.23478 47.6054 8.98042 47.7929 8.79289C47.9804 8.60535 48.2348 8.49999 48.5 8.49999C48.7652 8.49999 49.0196 8.60535 49.2071 8.79289C49.3946 8.98042 49.5 9.23478 49.5 9.49999V14.5C49.5 14.8978 49.658 15.2794 49.9393 15.5607C50.2206 15.842 50.6022 16 51 16C51.3978 16 51.7794 15.842 52.0607 15.5607C52.342 15.2794 52.5 14.8978 52.5 14.5V5.49999C52.5 5.23478 52.6054 4.98042 52.7929 4.79289C52.9804 4.60535 53.2348 4.49999 53.5 4.49999C53.7652 4.49999 54.0196 4.60535 54.2071 4.79289C54.3946 4.98042 54.5 5.23478 54.5 5.49999V13.5C54.5 13.8978 54.658 14.2794 54.9393 14.5607C55.2206 14.842 55.6022 15 56 15C56.3978 15 56.7794 14.842 57.0607 14.5607C57.342 14.2794 57.5 13.8978 57.5 13.5V7.49999C57.5 7.23478 57.6054 6.98042 57.7929 6.79289C57.9804 6.60535 58.2348 6.49999 58.5 6.49999C58.7652 6.49999 59.0196 6.60535 59.2071 6.79289C59.3946 6.98042 59.5 7.23478 59.5 7.49999V15.675C58.0773 16.0145 56.8103 16.8231 55.9033 17.9705C54.9962 19.1179 54.5019 20.5373 54.5 22C54.5 22.3978 54.658 22.7793 54.9393 23.0607C55.2206 23.342 55.6022 23.5 56 23.5C56.3978 23.5 56.7794 23.342 57.0607 23.0607C57.342 22.7793 57.5 22.3978 57.5 22C57.5 21.0717 57.8687 20.1815 58.5251 19.5251C59.1815 18.8687 60.0717 18.5 61 18.5C61.3978 18.5 61.7794 18.342 62.0607 18.0607C62.342 17.7793 62.5 17.3978 62.5 17V14.5C62.5 14.2348 62.6054 13.9804 62.7929 13.7929C62.9804 13.6054 63.2348 13.5 63.5 13.5C63.7652 13.5 64.0196 13.6054 64.2071 13.7929C64.3946 13.9804 64.5 14.2348 64.5 14.5V19Z" fill="white"/>
</g>
<defs>
<clipPath id="clip0_27_3212">
<rect width="72" height="32" rx="5" fill="white"/>
</clipPath>
</defs>
</svg>
