<svg width="72" height="32" viewBox="0 0 72 32" fill="none" xmlns="http://www.w3.org/2000/svg">
<g clip-path="url(#clip0_27_3242)">
<path d="M29.4153 22.5L24.8853 17.9688L20.3278 2.9325C20.1983 2.50435 19.9652 2.11475 19.6491 1.79821C19.3331 1.48167 18.9438 1.24797 18.5159 1.1178C18.0879 0.987635 17.6344 0.965022 17.1957 1.05197C16.7569 1.13891 16.3463 1.33273 16.0003 1.61625C15.6543 1.33273 15.2438 1.13891 14.805 1.05197C14.3662 0.965022 13.9127 0.987635 13.4848 1.1178C13.0568 1.24797 12.6676 1.48167 12.3515 1.79821C12.0355 2.11475 11.8023 2.50435 11.6728 2.9325L7.11532 17.97L2.58532 22.5C2.21053 22.875 2 23.3835 2 23.9137C2 24.444 2.21053 24.9525 2.58532 25.3275L6.67157 29.4137C6.8573 29.5995 7.07779 29.7469 7.32048 29.8474C7.56316 29.948 7.82327 29.9997 8.08595 29.9997C8.34863 29.9997 8.60874 29.948 8.85142 29.8474C9.0941 29.7469 9.3146 29.5995 9.50032 29.4137L15.5353 23.375C15.7026 23.2073 15.858 23.0281 16.0003 22.8388C16.1426 23.0281 16.298 23.2073 16.4653 23.375L22.5003 29.415C22.686 29.6008 22.9065 29.7481 23.1492 29.8487C23.3919 29.9492 23.652 30.0009 23.9147 30.0009C24.1774 30.0009 24.4375 29.9492 24.6802 29.8487C24.9229 29.7481 25.1434 29.6008 25.3291 29.415L29.4153 25.3288C29.6011 25.143 29.7484 24.9225 29.849 24.6798C29.9495 24.4372 30.0013 24.1771 30.0013 23.9144C30.0013 23.6517 29.9495 23.3916 29.849 23.1489C29.7484 22.9062 29.6011 22.6857 29.4153 22.5ZM15.0003 19.8438C15.0023 20.2382 14.926 20.6292 14.7758 20.9939C14.6256 21.3587 14.4045 21.6901 14.1253 21.9688L11.0853 25L7.00032 20.915L8.70657 19.2075C8.82301 19.091 8.90889 18.9476 8.95657 18.79L13.5816 3.5125C13.6285 3.3425 13.736 3.19553 13.8837 3.09928C14.0315 3.00303 14.2094 2.96415 14.3838 2.98998C14.5583 3.0158 14.7173 3.10454 14.8308 3.23946C14.9444 3.37439 15.0047 3.5462 15.0003 3.7225V19.8438ZM20.9303 25.0163L17.8753 21.965C17.5961 21.6863 17.375 21.355 17.2248 20.9902C17.0746 20.6254 16.9983 20.2345 17.0003 19.84V3.715C17.0004 3.54181 17.0626 3.37439 17.1758 3.24326C17.2889 3.11212 17.4454 3.02598 17.6167 3.00053C17.788 2.97508 17.9627 3.01202 18.1091 3.10462C18.2555 3.19721 18.3637 3.3393 18.4141 3.505L23.0391 18.7825C23.0868 18.9401 23.1726 19.0835 23.2891 19.2L25.1003 21.0112L20.9303 25.0163Z" fill="white"/>
<path d="M69.7685 22.1475L65.3272 17.7063L60.806 2.7875C60.6625 2.31209 60.4109 1.87633 60.071 1.51432C59.7311 1.1523 59.312 0.873849 58.8466 0.700744C58.3811 0.52764 57.8819 0.464578 57.3881 0.516494C56.8942 0.56841 56.419 0.733895 55.9997 1C55.5805 0.733895 55.1053 0.56841 54.6114 0.516494C54.1176 0.464578 53.6184 0.52764 53.1529 0.700744C52.6875 0.873849 52.2684 1.1523 51.9285 1.51432C51.5885 1.87633 51.337 2.31209 51.1935 2.7875L46.6722 17.7063L42.231 22.1475C41.7623 22.6163 41.499 23.2521 41.499 23.915C41.499 24.5779 41.7623 25.2137 42.231 25.6825L46.3172 29.7688C46.7861 30.2374 47.4218 30.5007 48.0847 30.5007C48.7477 30.5007 49.3834 30.2374 49.8522 29.7688L55.8885 23.7338C55.9272 23.695 55.9635 23.6563 55.9997 23.6163C56.036 23.6563 56.0722 23.695 56.111 23.7338L62.1472 29.7688C62.6161 30.2374 63.2518 30.5007 63.9147 30.5007C64.5777 30.5007 65.2134 30.2374 65.6822 29.7688L69.7685 25.6825C70.2372 25.2137 70.5005 24.5779 70.5005 23.915C70.5005 23.2521 70.2372 22.6163 69.7685 22.1475ZM48.0847 27.2938L44.7097 23.9188L46.0847 22.5438L49.4597 25.9188L48.0847 27.2938ZM54.4997 19.8438C54.5007 20.1722 54.4364 20.4975 54.3107 20.8009C54.185 21.1044 54.0002 21.3798 53.7672 21.6113L51.5847 23.7938L48.2097 20.4188L49.0635 19.565C49.2382 19.3909 49.3671 19.1761 49.4385 18.94L54.0635 3.66125C54.0792 3.61049 54.1126 3.56704 54.1577 3.53878C54.2027 3.51051 54.2563 3.49929 54.3089 3.50714C54.3614 3.515 54.4095 3.54141 54.4442 3.5816C54.479 3.62179 54.4983 3.6731 54.4985 3.72625L54.4997 19.8438ZM60.4372 23.8163L58.2322 21.6113C57.9992 21.3798 57.8145 21.1044 57.6888 20.8009C57.563 20.4975 57.4988 20.1722 57.4997 19.8438V3.71875C57.5 3.6656 57.5192 3.61429 57.554 3.5741C57.5888 3.53391 57.6368 3.5075 57.6894 3.49964C57.7419 3.49179 57.7956 3.50301 57.8406 3.53128C57.8856 3.55954 57.919 3.60299 57.9347 3.65375L62.5597 18.9325C62.6312 19.1686 62.76 19.3834 62.9347 19.5575L63.8847 20.5075L60.4372 23.8163ZM63.9147 27.2938L62.5585 25.9388L66.0122 22.6338L67.2935 23.915L63.9147 27.2938Z" fill="white"/>
</g>
<defs>
<clipPath id="clip0_27_3242">
<rect width="72" height="32" rx="5" fill="white"/>
</clipPath>
</defs>
</svg>
