<svg width="72" height="32" viewBox="0 0 72 32" fill="none" xmlns="http://www.w3.org/2000/svg">
<g clip-path="url(#clip0_27_3232)">
<path d="M16 7H14V2C14 1.73478 14.1054 1.48043 14.2929 1.29289C14.4804 1.10536 14.7348 1 15 1C15.2652 1 15.5196 1.10536 15.7071 1.29289C15.8946 1.48043 16 1.73478 16 2V7ZM24 15.4525V9C24 8.46957 23.7893 7.96086 23.4142 7.58579C23.0391 7.21071 22.5304 7 22 7H16V14.5863L18.2925 12.2925C18.3854 12.1996 18.4957 12.1259 18.6171 12.0756C18.7385 12.0253 18.8686 11.9994 19 11.9994C19.1314 11.9994 19.2615 12.0253 19.3829 12.0756C19.5043 12.1259 19.6146 12.1996 19.7075 12.2925C19.8004 12.3854 19.8741 12.4957 19.9244 12.6171C19.9747 12.7385 20.0006 12.8686 20.0006 13C20.0006 13.1314 19.9747 13.2615 19.9244 13.3829C19.8741 13.5043 19.8004 13.6146 19.7075 13.7075L15.7075 17.7075C15.6146 17.8005 15.5043 17.8742 15.3829 17.9246C15.2615 17.9749 15.1314 18.0008 15 18.0008C14.8686 18.0008 14.7385 17.9749 14.6171 17.9246C14.4957 17.8742 14.3854 17.8005 14.2925 17.7075L10.2925 13.7075C10.1049 13.5199 9.99944 13.2654 9.99944 13C9.99944 12.7346 10.1049 12.4801 10.2925 12.2925C10.4801 12.1049 10.7346 11.9994 11 11.9994C11.2654 11.9994 11.5199 12.1049 11.7075 12.2925L14 14.5863V7H8C7.46957 7 6.96086 7.21071 6.58579 7.58579C6.21071 7.96086 6 8.46957 6 9V25C6 25.2652 6.10536 25.5196 6.29289 25.7071C6.48043 25.8946 6.73478 26 7 26H16.3375C16.3775 26.0837 16.4213 26.1675 16.4688 26.25L16.4988 26.2975L19.2812 30.5475C19.4265 30.7695 19.6539 30.9246 19.9135 30.9789C20.1731 31.0332 20.4437 30.9821 20.6656 30.8369C20.8876 30.6917 21.0428 30.4642 21.097 30.2046C21.1513 29.945 21.1002 29.6745 20.955 29.4525L18.1887 25.2288C17.9927 24.8825 17.9421 24.4725 18.0483 24.089C18.1545 23.7055 18.4087 23.3798 18.755 23.1838C19.1013 22.9877 19.5113 22.9372 19.8948 23.0433C20.2783 23.1495 20.6039 23.4037 20.8 23.75C20.8087 23.7663 20.8188 23.7825 20.8288 23.7975L22.1637 25.8363C22.2818 26.0162 22.4547 26.1533 22.6568 26.2272C22.8589 26.301 23.0795 26.3077 23.2857 26.2462C23.492 26.1847 23.6729 26.0583 23.8015 25.8858C23.9302 25.7134 23.9998 25.504 24 25.2887V18C24.9426 18.8725 25.6954 19.9298 26.2115 21.1059C26.7276 22.282 26.996 23.5519 27 24.8363V30C27 30.2652 27.1054 30.5196 27.2929 30.7071C27.4804 30.8946 27.7348 31 28 31C28.2652 31 28.5196 30.8946 28.7071 30.7071C28.8946 30.5196 29 30.2652 29 30V24.8312C28.9943 22.9788 28.5358 21.1558 27.6643 19.5212C26.7928 17.8865 25.5349 16.4897 24 15.4525Z" fill="white"/>
<path d="M69.5 24.8312V30C69.5 30.3978 69.342 30.7794 69.0607 31.0607C68.7794 31.342 68.3978 31.5 68 31.5C67.6022 31.5 67.2206 31.342 66.9393 31.0607C66.658 30.7794 66.5 30.3978 66.5 30V24.8312C66.4963 22.796 65.7898 20.8244 64.5 19.25V25.2838C64.4983 25.6053 64.3933 25.9178 64.2005 26.1752C64.0078 26.4325 63.7374 26.6211 63.4292 26.7132C63.1211 26.8052 62.7916 26.7957 62.4892 26.6862C62.1869 26.5767 61.9277 26.373 61.75 26.105L60.4163 24.0675C60.4 24.0437 60.385 24.02 60.3713 23.995C60.2425 23.7629 60.0267 23.5915 59.7716 23.5185C59.5164 23.4455 59.2427 23.4768 59.0106 23.6056C58.7786 23.7344 58.6072 23.9501 58.5341 24.2053C58.4611 24.4605 58.4925 24.7342 58.6213 24.9662L61.3713 29.1737C61.4827 29.3385 61.5603 29.5238 61.5994 29.7188C61.6386 29.9138 61.6386 30.1147 61.5994 30.3097C61.5602 30.5047 61.4826 30.69 61.3711 30.8547C61.2597 31.0194 61.1166 31.1604 60.9501 31.2693C60.7837 31.3782 60.5972 31.4529 60.4017 31.4891C60.2061 31.5253 60.0052 31.5222 59.8108 31.4801C59.6165 31.4379 59.4324 31.3575 59.2694 31.2435C59.1063 31.1296 58.9676 30.9843 58.8612 30.8162L56.0788 26.5662C56.0638 26.5425 56.0487 26.5187 56.035 26.4937C55.598 25.7312 55.4242 24.8459 55.5407 23.9748C55.6571 23.1036 56.0573 22.295 56.6793 21.674C57.3012 21.053 58.1104 20.6542 58.9818 20.5391C59.8532 20.4241 60.7381 20.5992 61.5 21.0375V8.5H60.5C60.1022 8.5 59.7206 8.34196 59.4393 8.06066C59.158 7.77936 59 7.39782 59 7C59 6.60218 59.158 6.22064 59.4393 5.93934C59.7206 5.65804 60.1022 5.5 60.5 5.5H62C62.663 5.5 63.2989 5.76339 63.7678 6.23223C64.2366 6.70107 64.5 7.33696 64.5 8V15.19C66.0408 16.2829 67.2984 17.7279 68.168 19.4049C69.0377 21.0818 69.4944 22.9422 69.5 24.8312ZM51 7C51 6.60218 50.842 6.22064 50.5607 5.93934C50.2794 5.65804 49.8978 5.5 49.5 5.5H48C47.337 5.5 46.7011 5.76339 46.2322 6.23223C45.7634 6.70107 45.5 7.33696 45.5 8V25C45.5 25.3978 45.658 25.7794 45.9393 26.0607C46.2206 26.342 46.6022 26.5 47 26.5C47.3978 26.5 47.7794 26.342 48.0607 26.0607C48.342 25.7794 48.5 25.3978 48.5 25V8.5H49.5C49.8978 8.5 50.2794 8.34196 50.5607 8.06066C50.842 7.77936 51 7.39782 51 7ZM59.5613 14.56C59.843 14.2782 60.0014 13.896 60.0014 13.4975C60.0014 13.099 59.843 12.7168 59.5613 12.435C59.2795 12.1532 58.8973 11.9949 58.4988 11.9949C58.1002 11.9949 57.718 12.1532 57.4363 12.435L56.5 13.375V2C56.5 1.60218 56.342 1.22064 56.0607 0.93934C55.7794 0.658035 55.3978 0.5 55 0.5C54.6022 0.5 54.2206 0.658035 53.9393 0.93934C53.658 1.22064 53.5 1.60218 53.5 2V13.375L52.5612 12.435C52.2795 12.1532 51.8973 11.9949 51.4987 11.9949C51.1002 11.9949 50.718 12.1532 50.4362 12.435C50.1545 12.7168 49.9961 13.099 49.9961 13.4975C49.9961 13.6948 50.035 13.8902 50.1105 14.0725C50.186 14.2548 50.2967 14.4205 50.4362 14.56L53.9362 18.06C54.0756 18.1998 54.2412 18.3108 54.4235 18.3865C54.6058 18.4622 54.8013 18.5012 54.9987 18.5012C55.1962 18.5012 55.3917 18.4622 55.574 18.3865C55.7563 18.3108 55.9219 18.1998 56.0613 18.06L59.5613 14.56Z" fill="white"/>
</g>
<defs>
<clipPath id="clip0_27_3232">
<rect width="72" height="32" rx="5" fill="white"/>
</clipPath>
</defs>
</svg>
