<svg width="72" height="32" viewBox="0 0 72 32" fill="none" xmlns="http://www.w3.org/2000/svg">
<g clip-path="url(#clip0_27_2790)">
<path d="M28 8H4C3.46957 8 2.96086 8.21071 2.58579 8.58579C2.21071 8.96086 2 9.46957 2 10V22C2 22.5304 2.21071 23.0391 2.58579 23.4142C2.96086 23.7893 3.46957 24 4 24H28C28.5304 24 29.0391 23.7893 29.4142 23.4142C29.7893 23.0391 30 22.5304 30 22V10C30 9.46957 29.7893 8.96086 29.4142 8.58579C29.0391 8.21071 28.5304 8 28 8ZM23.5 17.5C23.2033 17.5 22.9133 17.412 22.6666 17.2472C22.42 17.0824 22.2277 16.8481 22.1142 16.574C22.0007 16.2999 21.9709 15.9983 22.0288 15.7074C22.0867 15.4164 22.2296 15.1491 22.4393 14.9393C22.6491 14.7296 22.9164 14.5867 23.2074 14.5288C23.4983 14.4709 23.7999 14.5006 24.074 14.6142C24.3481 14.7277 24.5824 14.92 24.7472 15.1666C24.912 15.4133 25 15.7033 25 16C25 16.3978 24.842 16.7794 24.5607 17.0607C24.2794 17.342 23.8978 17.5 23.5 17.5Z" fill="white"/>
<path d="M68 7.5H44C43.337 7.5 42.7011 7.76339 42.2322 8.23223C41.7634 8.70107 41.5 9.33696 41.5 10V22C41.5 22.663 41.7634 23.2989 42.2322 23.7678C42.7011 24.2366 43.337 24.5 44 24.5H68C68.663 24.5 69.2989 24.2366 69.7678 23.7678C70.2366 23.2989 70.5 22.663 70.5 22V10C70.5 9.33696 70.2366 8.70107 69.7678 8.23223C69.2989 7.76339 68.663 7.5 68 7.5ZM67.5 21.5H44.5V10.5H67.5V21.5ZM60.5 16C60.5 15.6044 60.6173 15.2178 60.8371 14.8889C61.0568 14.56 61.3692 14.3036 61.7346 14.1522C62.1001 14.0009 62.5022 13.9613 62.8902 14.0384C63.2781 14.1156 63.6345 14.3061 63.9142 14.5858C64.1939 14.8655 64.3844 15.2219 64.4616 15.6098C64.5387 15.9978 64.4991 16.3999 64.3478 16.7654C64.1964 17.1308 63.94 17.4432 63.6111 17.6629C63.2822 17.8827 62.8956 18 62.5 18C61.9696 18 61.4609 17.7893 61.0858 17.4142C60.7107 17.0391 60.5 16.5304 60.5 16Z" fill="white"/>
</g>
<defs>
<clipPath id="clip0_27_2790">
<rect width="72" height="32" rx="5" fill="white"/>
</clipPath>
</defs>
</svg>
