<svg width="72" height="32" viewBox="0 0 72 32" fill="none" xmlns="http://www.w3.org/2000/svg">
<g clip-path="url(#clip0_27_2796)">
<path d="M26 5H6C5.46957 5 4.96086 5.21071 4.58579 5.58579C4.21071 5.96086 4 6.46957 4 7V13C4 13.5304 4.21071 14.0391 4.58579 14.4142C4.96086 14.7893 5.46957 15 6 15H26C26.5304 15 27.0391 14.7893 27.4142 14.4142C27.7893 14.0391 28 13.5304 28 13V7C28 6.46957 27.7893 5.96086 27.4142 5.58579C27.0391 5.21071 26.5304 5 26 5ZM22.5 11.5C22.2033 11.5 21.9133 11.412 21.6666 11.2472C21.42 11.0824 21.2277 10.8481 21.1142 10.574C21.0007 10.2999 20.9709 9.99834 21.0288 9.70736C21.0867 9.41639 21.2296 9.14912 21.4393 8.93934C21.6491 8.72956 21.9164 8.5867 22.2074 8.52882C22.4983 8.47094 22.7999 8.50065 23.074 8.61418C23.3481 8.72771 23.5824 8.91997 23.7472 9.16665C23.912 9.41332 24 9.70333 24 10C24 10.3978 23.842 10.7794 23.5607 11.0607C23.2794 11.342 22.8978 11.5 22.5 11.5Z" fill="white"/>
<path d="M26 17H6C5.46957 17 4.96086 17.2107 4.58579 17.5858C4.21071 17.9609 4 18.4696 4 19V25C4 25.5304 4.21071 26.0391 4.58579 26.4142C4.96086 26.7893 5.46957 27 6 27H26C26.5304 27 27.0391 26.7893 27.4142 26.4142C27.7893 26.0391 28 25.5304 28 25V19C28 18.4696 27.7893 17.9609 27.4142 17.5858C27.0391 17.2107 26.5304 17 26 17ZM22.5 23.5C22.2033 23.5 21.9133 23.412 21.6666 23.2472C21.42 23.0824 21.2277 22.8481 21.1142 22.574C21.0007 22.2999 20.9709 21.9983 21.0288 21.7074C21.0867 21.4164 21.2296 21.1491 21.4393 20.9393C21.6491 20.7296 21.9164 20.5867 22.2074 20.5288C22.4983 20.4709 22.7999 20.5007 23.074 20.6142C23.3481 20.7277 23.5824 20.92 23.7472 21.1666C23.912 21.4133 24 21.7033 24 22C24 22.3978 23.842 22.7794 23.5607 23.0607C23.2794 23.342 22.8978 23.5 22.5 23.5Z" fill="white"/>
<path d="M66 4.5H46C45.337 4.5 44.7011 4.76339 44.2322 5.23223C43.7634 5.70107 43.5 6.33696 43.5 7V25C43.5 25.663 43.7634 26.2989 44.2322 26.7678C44.7011 27.2366 45.337 27.5 46 27.5H66C66.663 27.5 67.2989 27.2366 67.7678 26.7678C68.2366 26.2989 68.5 25.663 68.5 25V7C68.5 6.33696 68.2366 5.70107 67.7678 5.23223C67.2989 4.76339 66.663 4.5 66 4.5ZM65.5 7.5V14.5H46.5V7.5H65.5ZM46.5 24.5V17.5H65.5V24.5H46.5ZM60 11C60 10.6044 60.1173 10.2178 60.3371 9.88886C60.5568 9.55996 60.8692 9.30362 61.2346 9.15224C61.6001 9.00087 62.0022 8.96126 62.3902 9.03843C62.7781 9.1156 63.1345 9.30608 63.4142 9.58579C63.6939 9.86549 63.8844 10.2219 63.9616 10.6098C64.0387 10.9978 63.9991 11.3999 63.8478 11.7654C63.6964 12.1308 63.44 12.4432 63.1111 12.6629C62.7822 12.8827 62.3956 13 62 13C61.4696 13 60.9609 12.7893 60.5858 12.4142C60.2107 12.0391 60 11.5304 60 11ZM64 21C64 21.3956 63.8827 21.7822 63.6629 22.1111C63.4432 22.44 63.1308 22.6964 62.7654 22.8478C62.3999 22.9991 61.9978 23.0387 61.6098 22.9616C61.2219 22.8844 60.8655 22.6939 60.5858 22.4142C60.3061 22.1345 60.1156 21.7781 60.0384 21.3902C59.9613 21.0022 60.0009 20.6001 60.1522 20.2346C60.3036 19.8692 60.56 19.5568 60.8889 19.3371C61.2178 19.1173 61.6044 19 62 19C62.5304 19 63.0391 19.2107 63.4142 19.5858C63.7893 19.9609 64 20.4696 64 21Z" fill="white"/>
</g>
<defs>
<clipPath id="clip0_27_2796">
<rect width="72" height="32" rx="5" fill="white"/>
</clipPath>
</defs>
</svg>
