<svg width="72" height="32" viewBox="0 0 72 32" fill="none" xmlns="http://www.w3.org/2000/svg">
<g clip-path="url(#clip0_27_1252)">
<path d="M19 19H13V5C13 4.46957 13.2107 3.96086 13.5858 3.58579C13.9609 3.21071 14.4696 3 15 3H17C17.5304 3 18.0391 3.21071 18.4142 3.58579C18.7893 3.96086 19 4.46957 19 5V19ZM28 21H4C3.46957 21 2.96086 21.2107 2.58579 21.5858C2.21071 21.9609 2 22.4696 2 23V24C2 24.5304 2.21071 25.0391 2.58579 25.4142C2.96086 25.7893 3.46957 26 4 26H28C28.5304 26 29.0391 25.7893 29.4142 25.4142C29.7893 25.0391 30 24.5304 30 24V23C30 22.4696 29.7893 21.9609 29.4142 21.5858C29.0391 21.2107 28.5304 21 28 21ZM28 18.5V17C27.9939 14.8437 27.4095 12.7285 26.3078 10.8749C25.2061 9.02131 23.6274 7.49713 21.7362 6.46125C21.66 6.42039 21.5745 6.39999 21.4881 6.40206C21.4016 6.40412 21.3171 6.42858 21.243 6.47304C21.1688 6.5175 21.1074 6.58044 21.0648 6.65571C21.0222 6.73098 20.9999 6.81602 21 6.9025V19H27.5C27.6326 19 27.7598 18.9473 27.8536 18.8536C27.9473 18.7598 28 18.6326 28 18.5ZM4.5 19H11V6.9025C11.0001 6.81602 10.9778 6.73098 10.9352 6.65571C10.8926 6.58044 10.8312 6.5175 10.757 6.47304C10.6829 6.42858 10.5984 6.40412 10.5119 6.40206C10.4255 6.39999 10.34 6.42039 10.2638 6.46125C8.37257 7.49713 6.79385 9.02131 5.69215 10.8749C4.59045 12.7285 4.0061 14.8437 4 17V18.5C4 18.6326 4.05268 18.7598 4.14645 18.8536C4.24021 18.9473 4.36739 19 4.5 19Z" fill="white"/>
<path d="M68.5 18.55V17C68.4931 14.4772 67.726 12.0151 66.299 9.93471C64.8719 7.85434 62.8511 6.25229 60.5 5.3375V5C60.5 4.6717 60.4353 4.34661 60.3097 4.04329C60.1841 3.73998 59.9999 3.46438 59.7678 3.23223C59.5356 3.00009 59.26 2.81594 58.9567 2.6903C58.6534 2.56466 58.3283 2.5 58 2.5H54C53.337 2.5 52.7011 2.76339 52.2322 3.23223C51.7634 3.70107 51.5 4.33696 51.5 5V5.3375C49.1489 6.25229 47.1281 7.85434 45.701 9.93471C44.274 12.0151 43.5069 14.4772 43.5 17V18.55C42.9353 18.6653 42.4278 18.9721 42.0633 19.4185C41.6989 19.865 41.4999 20.4237 41.5 21V24C41.5 24.663 41.7634 25.2989 42.2322 25.7678C42.7011 26.2366 43.337 26.5 44 26.5H68C68.663 26.5 69.2989 26.2366 69.7678 25.7678C70.2366 25.2989 70.5 24.663 70.5 24V21C70.5001 20.4237 70.3011 19.865 69.9367 19.4185C69.5722 18.9721 69.0647 18.6653 68.5 18.55ZM65.5 17V18.5H60.5V8.63375C62.0083 9.45031 63.2686 10.6582 64.1485 12.1305C65.0284 13.6027 65.4952 15.2849 65.5 17ZM57.5 5.5V18.5H54.5V5.5H57.5ZM51.5 8.63375V18.5H46.5V17C46.5048 15.2849 46.9716 13.6027 47.8515 12.1305C48.7314 10.6582 49.9917 9.45031 51.5 8.63375ZM67.5 23.5H44.5V21.5H67.5V23.5Z" fill="white"/>
</g>
<defs>
<clipPath id="clip0_27_1252">
<rect width="72" height="32" rx="5" fill="white"/>
</clipPath>
</defs>
</svg>
