<svg width="72" height="32" viewBox="0 0 72 32" fill="none" xmlns="http://www.w3.org/2000/svg">
<g clip-path="url(#clip0_27_565)">
<path d="M14 14H18V18H14V14ZM28 6V26C28 26.5304 27.7893 27.0391 27.4142 27.4142C27.0391 27.7893 26.5304 28 26 28H6C5.46957 28 4.96086 27.7893 4.58579 27.4142C4.21071 27.0391 4 26.5304 4 26V6C4 5.46957 4.21071 4.96086 4.58579 4.58579C4.96086 4.21071 5.46957 4 6 4H26C26.5304 4 27.0391 4.21071 27.4142 4.58579C27.7893 4.96086 28 5.46957 28 6ZM20 18V14H24C24.2652 14 24.5196 13.8946 24.7071 13.7071C24.8946 13.5196 25 13.2652 25 13C25 12.7348 24.8946 12.4804 24.7071 12.2929C24.5196 12.1054 24.2652 12 24 12H20V8C20 7.73478 19.8946 7.48043 19.7071 7.29289C19.5196 7.10536 19.2652 7 19 7C18.7348 7 18.4804 7.10536 18.2929 7.29289C18.1054 7.48043 18 7.73478 18 8V12H14V8C14 7.73478 13.8946 7.48043 13.7071 7.29289C13.5196 7.10536 13.2652 7 13 7C12.7348 7 12.4804 7.10536 12.2929 7.29289C12.1054 7.48043 12 7.73478 12 8V12H8C7.73478 12 7.48043 12.1054 7.29289 12.2929C7.10536 12.4804 7 12.7348 7 13C7 13.2652 7.10536 13.5196 7.29289 13.7071C7.48043 13.8946 7.73478 14 8 14H12V18H8C7.73478 18 7.48043 18.1054 7.29289 18.2929C7.10536 18.4804 7 18.7348 7 19C7 19.2652 7.10536 19.5196 7.29289 19.7071C7.48043 19.8946 7.73478 20 8 20H12V24C12 24.2652 12.1054 24.5196 12.2929 24.7071C12.4804 24.8946 12.7348 25 13 25C13.2652 25 13.5196 24.8946 13.7071 24.7071C13.8946 24.5196 14 24.2652 14 24V20H18V24C18 24.2652 18.1054 24.5196 18.2929 24.7071C18.4804 24.8946 18.7348 25 19 25C19.2652 25 19.5196 24.8946 19.7071 24.7071C19.8946 24.5196 20 24.2652 20 24V20H24C24.2652 20 24.5196 19.8946 24.7071 19.7071C24.8946 19.5196 25 19.2652 25 19C25 18.7348 24.8946 18.4804 24.7071 18.2929C24.5196 18.1054 24.2652 18 24 18H20Z" fill="white"/>
<path d="M67 18.5H61.5V13.5H67C67.3978 13.5 67.7794 13.342 68.0607 13.0607C68.342 12.7794 68.5 12.3978 68.5 12C68.5 11.6022 68.342 11.2206 68.0607 10.9393C67.7794 10.658 67.3978 10.5 67 10.5H61.5V5C61.5 4.60218 61.342 4.22064 61.0607 3.93934C60.7794 3.65804 60.3978 3.5 60 3.5C59.6022 3.5 59.2206 3.65804 58.9393 3.93934C58.658 4.22064 58.5 4.60218 58.5 5V10.5H53.5V5C53.5 4.60218 53.342 4.22064 53.0607 3.93934C52.7794 3.65804 52.3978 3.5 52 3.5C51.6022 3.5 51.2206 3.65804 50.9393 3.93934C50.658 4.22064 50.5 4.60218 50.5 5V10.5H45C44.6022 10.5 44.2206 10.658 43.9393 10.9393C43.658 11.2206 43.5 11.6022 43.5 12C43.5 12.3978 43.658 12.7794 43.9393 13.0607C44.2206 13.342 44.6022 13.5 45 13.5H50.5V18.5H45C44.6022 18.5 44.2206 18.658 43.9393 18.9393C43.658 19.2206 43.5 19.6022 43.5 20C43.5 20.3978 43.658 20.7794 43.9393 21.0607C44.2206 21.342 44.6022 21.5 45 21.5H50.5V27C50.5 27.3978 50.658 27.7794 50.9393 28.0607C51.2206 28.342 51.6022 28.5 52 28.5C52.3978 28.5 52.7794 28.342 53.0607 28.0607C53.342 27.7794 53.5 27.3978 53.5 27V21.5H58.5V27C58.5 27.3978 58.658 27.7794 58.9393 28.0607C59.2206 28.342 59.6022 28.5 60 28.5C60.3978 28.5 60.7794 28.342 61.0607 28.0607C61.342 27.7794 61.5 27.3978 61.5 27V21.5H67C67.3978 21.5 67.7794 21.342 68.0607 21.0607C68.342 20.7794 68.5 20.3978 68.5 20C68.5 19.6022 68.342 19.2206 68.0607 18.9393C67.7794 18.658 67.3978 18.5 67 18.5ZM53.5 18.5V13.5H58.5V18.5H53.5Z" fill="white"/>
</g>
<defs>
<clipPath id="clip0_27_565">
<rect width="72" height="32" rx="5" fill="white"/>
</clipPath>
</defs>
</svg>
