<svg width="72" height="32" viewBox="0 0 72 32" fill="none" xmlns="http://www.w3.org/2000/svg">
<g clip-path="url(#clip0_27_3578)">
<path d="M15.0002 9C15.0002 8.80221 15.0589 8.60887 15.1687 8.44442C15.2786 8.27998 15.4348 8.1518 15.6175 8.07612C15.8003 8.00043 16.0013 7.98062 16.1953 8.01921C16.3893 8.0578 16.5675 8.15304 16.7073 8.29289C16.8472 8.43274 16.9424 8.61092 16.981 8.8049C17.0196 8.99889 16.9998 9.19995 16.9241 9.38268C16.8484 9.5654 16.7202 9.72158 16.5558 9.83146C16.3913 9.94135 16.198 10 16.0002 10C15.735 10 15.4806 9.89464 15.2931 9.7071C15.1056 9.51957 15.0002 9.26521 15.0002 9ZM18.0002 17C18.0002 17.1978 18.0589 17.3911 18.1687 17.5556C18.2786 17.72 18.4348 17.8482 18.6175 17.9239C18.8003 17.9996 19.0013 18.0194 19.1953 17.9808C19.3893 17.9422 19.5675 17.847 19.7073 17.7071C19.8472 17.5673 19.9424 17.3891 19.981 17.1951C20.0196 17.0011 19.9998 16.8 19.9241 16.6173C19.8484 16.4346 19.7202 16.2784 19.5558 16.1685C19.3913 16.0586 19.198 16 19.0002 16C18.735 16 18.4806 16.1054 18.2931 16.2929C18.1056 16.4804 18.0002 16.7348 18.0002 17ZM24.0627 21.4337C25.3281 20.3711 26.3388 19.038 27.0203 17.5326C27.7017 16.0273 28.0366 14.3882 28.0002 12.7362C28.0002 12.6446 27.9965 12.5533 27.989 12.4625C27.981 12.3354 27.9248 12.2161 27.8319 12.129C27.739 12.0419 27.6163 11.9935 27.489 11.9937H24.469L21.5777 15.4625C21.9388 16.0711 22.0732 16.7878 21.957 17.4859C21.8408 18.1841 21.4815 18.8186 20.9427 19.2774C20.4039 19.7363 19.7202 19.9898 19.0125 19.9933C18.3048 19.9968 17.6186 19.75 17.0753 19.2965C16.532 18.843 16.1665 18.212 16.0434 17.5151C15.9203 16.8181 16.0476 16.1001 16.4027 15.488C16.7579 14.8758 17.318 14.4089 17.984 14.1698C18.6501 13.9307 19.3793 13.9347 20.0427 14.1812L23.2315 10.3537C23.3259 10.2422 23.4437 10.1527 23.5766 10.0915C23.7094 10.0304 23.854 9.99918 24.0002 10H26.8927C26.9729 10.0001 27.052 9.98088 27.1232 9.94398C27.1945 9.90708 27.2558 9.85359 27.302 9.78801C27.3482 9.72243 27.378 9.64669 27.3888 9.56719C27.3995 9.48769 27.391 9.40676 27.364 9.33125C25.909 5.25 22.1077 2.25 17.5927 2.01H17.519C17.4517 2.00747 17.3847 2.01854 17.3219 2.04254C17.259 2.06653 17.2017 2.10296 17.1532 2.14964C17.1048 2.19633 17.0663 2.2523 17.04 2.31422C17.0137 2.37614 17.0002 2.44273 17.0002 2.51V6.16625C17.6674 6.40214 18.2298 6.86631 18.5878 7.47673C18.9459 8.08714 19.0767 8.80448 18.957 9.50198C18.8373 10.1995 18.4749 10.8322 17.9339 11.2884C17.3928 11.7445 16.7079 11.9947 16.0002 11.9947C15.2925 11.9947 14.6076 11.7445 14.0665 11.2884C13.5255 10.8322 13.1631 10.1995 13.0434 9.50198C12.9237 8.80448 13.0545 8.08714 13.4126 7.47673C13.7707 6.86631 14.333 6.40214 15.0002 6.16625V2.79125C15.0004 2.71602 14.9836 2.64173 14.9511 2.57389C14.9186 2.50605 14.8712 2.44643 14.8125 2.39945C14.7537 2.35247 14.6851 2.31936 14.6118 2.30257C14.5385 2.28578 14.4623 2.28576 14.389 2.3025C12.037 2.88012 9.94077 4.21647 8.42445 6.10493C6.90812 7.99338 6.05614 10.3288 6.00021 12.75L3.19396 18.1425L3.16646 18.1987C2.96192 18.6682 2.94526 19.1983 3.11991 19.6797C3.29456 20.1611 3.64722 20.5571 4.10521 20.7862L4.13646 20.8012L7.00021 22.1125V25.9875C7.00021 26.5179 7.21092 27.0266 7.586 27.4017C7.96107 27.7768 8.46978 27.9875 9.00021 27.9875H14.0002V28.9875C14.0002 29.2527 14.1056 29.5071 14.2931 29.6946C14.4806 29.8821 14.735 29.9875 15.0002 29.9875H23.9715C24.1484 29.9892 24.323 29.9462 24.479 29.8625C24.655 29.7665 24.7981 29.6198 24.8897 29.4415C24.9813 29.2632 25.0172 29.0615 24.9927 28.8625L24.0627 21.4337Z" fill="white"/>
<path d="M65.4883 28.8138C65.5128 29.0093 65.4985 29.2077 65.4463 29.3977C65.3941 29.5877 65.305 29.7656 65.184 29.9211C65.0631 30.0766 64.9127 30.2068 64.7414 30.3042C64.5701 30.4016 64.3813 30.4643 64.1858 30.4888C64.124 30.4961 64.0618 30.4999 63.9995 30.5C63.6343 30.4995 63.2819 30.3657 63.0082 30.1239C62.7346 29.882 62.5586 29.5486 62.5133 29.1863L61.5133 21.1863C61.4806 20.9241 61.5177 20.658 61.6208 20.4148C61.724 20.1716 61.8896 19.9599 62.1008 19.8013C63.1817 18.9875 64.0536 17.9284 64.6446 16.7113C65.2355 15.4941 65.5286 14.1539 65.4995 12.8013C65.4995 12.7 65.4908 12.6013 65.4858 12.5013H63.702L60.8145 15.9663C60.9373 16.2971 60.9999 16.6472 60.9995 17C61.0013 17.6177 60.813 18.2209 60.46 18.7278C60.1071 19.2347 59.6067 19.6207 59.0269 19.8334C58.447 20.0461 57.8157 20.0752 57.2187 19.9167C56.6217 19.7582 56.088 19.4198 55.69 18.9475C55.292 18.4751 55.049 17.8917 54.994 17.2765C54.939 16.6613 55.0747 16.0441 55.3826 15.5087C55.6906 14.9732 56.1558 14.5456 56.7152 14.2837C57.2747 14.0219 57.9011 13.9385 58.5095 14.045L61.847 10.045C61.9873 9.87509 62.1633 9.73817 62.3625 9.64397C62.5617 9.54978 62.7792 9.50062 62.9995 9.5H64.7383C64.0956 8.08389 63.0778 6.87057 61.795 5.99144C60.5122 5.11231 59.0134 4.60087 57.4608 4.5125C57.3074 4.50417 57.1537 4.5 56.9995 4.5V6.90375C57.5714 7.23395 58.0184 7.74365 58.2712 8.35378C58.5239 8.96391 58.5682 9.64039 58.3973 10.2783C58.2264 10.9162 57.8497 11.4799 57.3258 11.8819C56.8019 12.2839 56.1599 12.5018 55.4995 12.5018C54.8391 12.5018 54.1972 12.2839 53.6732 11.8819C53.1493 11.4799 52.7727 10.9162 52.6017 10.2783C52.4308 9.64039 52.4752 8.96391 52.7279 8.35378C52.9806 7.74365 53.4276 7.23395 53.9995 6.90375V5.0425C52.3836 5.65412 50.992 6.74292 50.0096 8.16426C49.0272 9.5856 48.5005 11.2722 48.4995 13C48.4993 13.2411 48.441 13.4787 48.3295 13.6925L45.6883 18.7688L48.6245 20.1125C48.8856 20.2322 49.1069 20.4243 49.262 20.6661C49.4171 20.9078 49.4996 21.189 49.4995 21.4763V25.5H54.9995C55.3973 25.5 55.7789 25.658 56.0602 25.9393C56.3415 26.2206 56.4995 26.6022 56.4995 27C56.4995 27.3978 56.3415 27.7794 56.0602 28.0607C55.7789 28.342 55.3973 28.5 54.9995 28.5H48.9995C48.3365 28.5 47.7006 28.2366 47.2318 27.7678C46.7629 27.2989 46.4995 26.663 46.4995 26V22.4388L43.9283 21.2613C43.912 21.2548 43.8961 21.2473 43.8808 21.2388C43.3109 20.9534 42.8715 20.4612 42.6524 19.8627C42.4333 19.2642 42.451 18.6046 42.702 18.0188C42.7158 17.9841 42.7317 17.9503 42.7495 17.9175L45.4995 12.6213C45.5498 11.0905 45.9054 9.58525 46.5453 8.1938C47.1853 6.80234 48.0967 5.55273 49.2261 4.51831C50.3556 3.48388 51.6803 2.68548 53.1224 2.16996C54.5646 1.65444 56.0953 1.43219 57.6245 1.51625C63.587 1.83 68.3658 6.75625 68.4995 12.73C68.5359 14.4096 68.2053 16.0768 67.5306 17.6153C66.8559 19.1539 65.8534 20.5265 64.5933 21.6375L65.4883 28.8138Z" fill="white"/>
</g>
<defs>
<clipPath id="clip0_27_3578">
<rect width="72" height="32" rx="5" fill="white"/>
</clipPath>
</defs>
</svg>
