<svg width="72" height="32" viewBox="0 0 72 32" fill="none" xmlns="http://www.w3.org/2000/svg">
<g clip-path="url(#clip0_27_3789)">
<path d="M29 16V23C29 23.7957 28.6839 24.5587 28.1213 25.1213C27.5587 25.6839 26.7956 26 26 26H24C23.2044 26 22.4413 25.6839 21.8787 25.1213C21.3161 24.5587 21 23.7957 21 23V18C21 17.2044 21.3161 16.4413 21.8787 15.8787C22.4413 15.3161 23.2044 15 24 15H26.9562C26.716 12.2776 25.4677 9.74312 23.456 7.89325C21.4443 6.04339 18.8142 5.01156 16.0812 5.00001H16C13.2556 4.99988 10.6103 6.02559 8.58346 7.87579C6.55656 9.72599 5.29449 12.267 5.045 15H8C8.79565 15 9.55871 15.3161 10.1213 15.8787C10.6839 16.4413 11 17.2044 11 18V23C11 23.7957 10.6839 24.5587 10.1213 25.1213C9.55871 25.6839 8.79565 26 8 26H6C5.20435 26 4.44129 25.6839 3.87868 25.1213C3.31607 24.5587 3 23.7957 3 23V16C3.0028 13.4249 3.76953 10.9085 5.20313 8.7693C6.63673 6.63012 8.67275 4.96435 11.0535 3.98283C13.4342 3.0013 16.0526 2.74816 18.5773 3.25543C21.102 3.7627 23.4194 5.00759 25.2362 6.83251C26.4358 8.0379 27.3857 9.46812 28.0316 11.0413C28.6774 12.6144 29.0065 14.2995 29 16Z" fill="white"/>
<path d="M65.5912 6.48124C63.7056 4.58357 61.299 3.2885 58.6765 2.76019C56.054 2.23188 53.3337 2.49412 50.8604 3.51367C48.3871 4.53322 46.2722 6.26416 44.7838 8.48708C43.2954 10.71 42.5006 13.3248 42.5 16V23C42.5 23.9282 42.8687 24.8185 43.5251 25.4749C44.1815 26.1312 45.0717 26.5 46 26.5H48C48.9283 26.5 49.8185 26.1312 50.4749 25.4749C51.1313 24.8185 51.5 23.9282 51.5 23V18C51.5 17.0717 51.1313 16.1815 50.4749 15.5251C49.8185 14.8687 48.9283 14.5 48 14.5H45.605C45.967 12.0011 47.2169 9.71613 49.1258 8.06337C51.0347 6.41062 53.475 5.50064 56 5.49999H56.08C58.5937 5.51075 61.0196 6.4262 62.9137 8.07886C64.8078 9.73152 66.0436 12.0109 66.395 14.5H64C63.0717 14.5 62.1815 14.8687 61.5251 15.5251C60.8687 16.1815 60.5 17.0717 60.5 18V23C60.5 23.9282 60.8687 24.8185 61.5251 25.4749C62.1815 26.1312 63.0717 26.5 64 26.5H66C66.4596 26.5 66.9148 26.4095 67.3394 26.2336C67.764 26.0577 68.1499 25.7999 68.4749 25.4749C68.7999 25.1499 69.0577 24.764 69.2336 24.3394C69.4095 23.9147 69.5 23.4596 69.5 23V16C69.5069 14.2342 69.1651 12.4844 68.4944 10.851C67.8236 9.21758 66.8371 7.73261 65.5912 6.48124ZM48 17.5C48.1326 17.5 48.2598 17.5527 48.3536 17.6464C48.4473 17.7402 48.5 17.8674 48.5 18V23C48.5 23.1326 48.4473 23.2598 48.3536 23.3535C48.2598 23.4473 48.1326 23.5 48 23.5H46C45.8674 23.5 45.7402 23.4473 45.6464 23.3535C45.5527 23.2598 45.5 23.1326 45.5 23V17.5H48ZM66.5 23C66.5 23.1326 66.4473 23.2598 66.3536 23.3535C66.2598 23.4473 66.1326 23.5 66 23.5H64C63.8674 23.5 63.7402 23.4473 63.6464 23.3535C63.5527 23.2598 63.5 23.1326 63.5 23V18C63.5 17.8674 63.5527 17.7402 63.6464 17.6464C63.7402 17.5527 63.8674 17.5 64 17.5H66.5V23Z" fill="white"/>
</g>
<defs>
<clipPath id="clip0_27_3789">
<rect width="72" height="32" rx="5" fill="white"/>
</clipPath>
</defs>
</svg>
