<svg width="72" height="32" viewBox="0 0 72 32" fill="none" xmlns="http://www.w3.org/2000/svg">
<g clip-path="url(#clip0_27_6650)">
<path d="M20.0003 10C20.0003 9.73478 20.1056 9.48043 20.2932 9.29289C20.4807 9.10536 20.7351 9 21.0003 9H30.0003C30.2655 9 30.5199 9.10536 30.7074 9.29289C30.8949 9.48043 31.0003 9.73478 31.0003 10C31.0003 10.2652 30.8949 10.5196 30.7074 10.7071C30.5199 10.8946 30.2655 11 30.0003 11H21.0003C20.7351 11 20.4807 10.8946 20.2932 10.7071C20.1056 10.5196 20.0003 10.2652 20.0003 10ZM30.0003 21H21.0003C20.7351 21 20.4807 21.1054 20.2932 21.2929C20.1056 21.4804 20.0003 21.7348 20.0003 22C20.0003 22.2652 20.1056 22.5196 20.2932 22.7071C20.4807 22.8946 20.7351 23 21.0003 23H30.0003C30.2655 23 30.5199 22.8946 30.7074 22.7071C30.8949 22.5196 31.0003 22.2652 31.0003 22C31.0003 21.7348 30.8949 21.4804 30.7074 21.2929C30.5199 21.1054 30.2655 21 30.0003 21ZM30.0003 13H21.0003C20.7351 13 20.4807 13.1054 20.2932 13.2929C20.1056 13.4804 20.0003 13.7348 20.0003 14C20.0003 14.2652 20.1056 14.5196 20.2932 14.7071C20.4807 14.8946 20.7351 15 21.0003 15H30.0003C30.2655 15 30.5199 14.8946 30.7074 14.7071C30.8949 14.5196 31.0003 14.2652 31.0003 14C31.0003 13.7348 30.8949 13.4804 30.7074 13.2929C30.5199 13.1054 30.2655 13 30.0003 13ZM30.0003 17H21.0003C20.7351 17 20.4807 17.1054 20.2932 17.2929C20.1056 17.4804 20.0003 17.7348 20.0003 18C20.0003 18.2652 20.1056 18.5196 20.2932 18.7071C20.4807 18.8946 20.7351 19 21.0003 19H30.0003C30.2655 19 30.5199 18.8946 30.7074 18.7071C30.8949 18.5196 31.0003 18.2652 31.0003 18C31.0003 17.7348 30.8949 17.4804 30.7074 17.2929C30.5199 17.1054 30.2655 17 30.0003 17ZM16.0003 6H11.1128C5.57779 6 1.04154 10.4525 1.00029 15.9237C0.990228 17.2434 1.24146 18.5519 1.7395 19.774C2.23754 20.9961 2.97254 22.1075 3.90213 23.0442C4.83172 23.9808 5.93751 24.7243 7.15576 25.2316C8.37401 25.7389 9.68063 26 11.0003 26H16.0003C16.5307 26 17.0394 25.7893 17.4145 25.4142C17.7896 25.0391 18.0003 24.5304 18.0003 24V8C18.0003 7.46957 17.7896 6.96086 17.4145 6.58579C17.0394 6.21071 16.5307 6 16.0003 6Z" fill="white"/>
<path d="M60.5003 10C60.5003 9.60218 60.6583 9.22064 60.9396 8.93934C61.2209 8.65804 61.6025 8.5 62.0003 8.5H70.0003C70.3981 8.5 70.7796 8.65804 71.061 8.93934C71.3423 9.22064 71.5003 9.60218 71.5003 10C71.5003 10.3978 71.3423 10.7794 71.061 11.0607C70.7796 11.342 70.3981 11.5 70.0003 11.5H62.0003C61.6025 11.5 61.2209 11.342 60.9396 11.0607C60.6583 10.7794 60.5003 10.3978 60.5003 10ZM70.0003 20.5H62.0003C61.6025 20.5 61.2209 20.658 60.9396 20.9393C60.6583 21.2206 60.5003 21.6022 60.5003 22C60.5003 22.3978 60.6583 22.7794 60.9396 23.0607C61.2209 23.342 61.6025 23.5 62.0003 23.5H70.0003C70.3981 23.5 70.7796 23.342 71.061 23.0607C71.3423 22.7794 71.5003 22.3978 71.5003 22C71.5003 21.6022 71.3423 21.2206 71.061 20.9393C70.7796 20.658 70.3981 20.5 70.0003 20.5ZM70.0003 14.5H62.0003C61.6025 14.5 61.2209 14.658 60.9396 14.9393C60.6583 15.2206 60.5003 15.6022 60.5003 16C60.5003 16.3978 60.6583 16.7794 60.9396 17.0607C61.2209 17.342 61.6025 17.5 62.0003 17.5H70.0003C70.3981 17.5 70.7796 17.342 71.061 17.0607C71.3423 16.7794 71.5003 16.3978 71.5003 16C71.5003 15.6022 71.3423 15.2206 71.061 14.9393C70.7796 14.658 70.3981 14.5 70.0003 14.5ZM58.5003 8V24C58.5003 24.663 58.2369 25.2989 57.7681 25.7678C57.2992 26.2366 56.6633 26.5 56.0003 26.5H51.0003C49.6148 26.5 48.2429 26.2259 46.9638 25.6933C45.6848 25.1607 44.5237 24.3802 43.5477 23.3968C42.5716 22.4135 41.7999 21.2466 41.2768 19.9636C40.7538 18.6806 40.4899 17.3067 40.5003 15.9213C40.5428 10.175 45.304 5.5 51.1128 5.5H56.0003C56.6633 5.5 57.2992 5.76339 57.7681 6.23223C58.2369 6.70107 58.5003 7.33696 58.5003 8ZM55.5003 8.5H51.1128C46.9465 8.5 43.5315 11.8387 43.5003 15.9425C43.4927 16.9322 43.6811 17.9137 44.0546 18.8303C44.4281 19.7469 44.9794 20.5805 45.6766 21.283C46.3738 21.9856 47.2031 22.5431 48.1168 22.9236C49.0305 23.3041 50.0105 23.5 51.0003 23.5H55.5003V8.5Z" fill="white"/>
</g>
<defs>
<clipPath id="clip0_27_6650">
<rect width="72" height="32" rx="5" fill="white"/>
</clipPath>
</defs>
</svg>
