<svg width="72" height="32" viewBox="0 0 72 32" fill="none" xmlns="http://www.w3.org/2000/svg">
<g clip-path="url(#clip0_27_4986)">
<path d="M30 12.75C30 21.5 17.0262 28.5825 16.4737 28.875C16.3281 28.9533 16.1654 28.9943 16 28.9943C15.8346 28.9943 15.6719 28.9533 15.5262 28.875C15.1075 28.65 7.5825 24.5387 3.94125 18.7638C3.89428 18.6881 3.86836 18.6013 3.86618 18.5123C3.86399 18.4233 3.88561 18.3353 3.92881 18.2574C3.97201 18.1796 4.03522 18.1146 4.1119 18.0694C4.18858 18.0241 4.27596 18.0002 4.365 18H9C9.16468 18.0001 9.32683 17.9595 9.47206 17.8819C9.61729 17.8043 9.7411 17.692 9.8325 17.555L11 15.805L14.1675 20.555C14.2889 20.737 14.4666 20.8742 14.6734 20.9456C14.8802 21.0169 15.1047 21.0185 15.3125 20.95C15.5329 20.8754 15.7215 20.7282 15.8475 20.5325L17.535 18H20C20.1371 18.0003 20.2728 17.9724 20.3986 17.9181C20.5245 17.8637 20.6378 17.7841 20.7316 17.6841C20.8254 17.5841 20.8976 17.4659 20.9438 17.3368C20.9899 17.2077 21.0091 17.0705 21 16.9338C20.9776 16.6767 20.8589 16.4376 20.6677 16.2645C20.4764 16.0913 20.2267 15.9968 19.9688 16H17C16.8353 15.9999 16.6732 16.0405 16.5279 16.1181C16.3827 16.1957 16.2589 16.308 16.1675 16.445L15 18.195L11.8325 13.445C11.7111 13.2627 11.5331 13.1253 11.3261 13.054C11.119 12.9826 10.8942 12.9812 10.6862 13.05C10.4664 13.1251 10.2783 13.2722 10.1525 13.4675L8.465 16H2.94125C2.83439 16.0003 2.73025 15.9663 2.64409 15.9031C2.55793 15.8399 2.49429 15.7508 2.4625 15.6488C2.1609 14.7119 2.00491 13.7342 2 12.75C2.00232 10.6953 2.81958 8.72539 4.27248 7.27248C5.72539 5.81958 7.69528 5.00232 9.75 5C12.3313 5 14.5912 6.11 16 7.98625C17.4088 6.11 19.6688 5 22.25 5C24.3047 5.00232 26.2746 5.81958 27.7275 7.27248C29.1804 8.72539 29.9977 10.6953 30 12.75Z" fill="white"/>
<path d="M48.9703 18.5H43.9628C43.565 18.5 43.1835 18.342 42.9022 18.0607C42.6209 17.7793 42.4628 17.3978 42.4628 17C42.4628 16.6022 42.6209 16.2206 42.9022 15.9393C43.1835 15.658 43.565 15.5 43.9628 15.5H48.1666L49.7228 13.1675C49.8597 12.9612 50.0454 12.792 50.2635 12.675C50.4816 12.5579 50.7253 12.4967 50.9728 12.4967C51.2204 12.4967 51.464 12.5579 51.6821 12.675C51.9003 12.792 52.086 12.9612 52.2228 13.1675L54.9728 17.2925L55.7228 16.1675C55.86 15.9618 56.046 15.7933 56.264 15.6768C56.4821 15.5604 56.7256 15.4996 56.9728 15.5H59.9728C60.3707 15.5 60.7522 15.658 61.0335 15.9393C61.3148 16.2206 61.4728 16.6022 61.4728 17C61.4728 17.3978 61.3148 17.7793 61.0335 18.0607C60.7522 18.342 60.3707 18.5 59.9728 18.5H57.7728L56.2153 20.8325C56.0785 21.0388 55.8928 21.208 55.6746 21.325C55.4565 21.4421 55.2129 21.5033 54.9653 21.5033C54.7178 21.5033 54.4741 21.4421 54.256 21.325C54.0379 21.208 53.8522 21.0388 53.7153 20.8325L50.9653 16.7075L50.2153 17.8325C50.0786 18.0374 49.8935 18.2056 49.6763 18.322C49.4592 18.4384 49.2167 18.4995 48.9703 18.5ZM62.2391 4.49999C59.7241 4.49999 57.4891 5.49124 55.9803 7.19499C54.4678 5.49124 52.2366 4.49999 49.7203 4.49999C47.6886 4.497 45.7273 5.24381 44.2121 6.59731C42.6969 7.95082 41.7344 9.81583 41.5091 11.835C41.4653 12.2317 41.5809 12.6295 41.8305 12.9409C42.08 13.2523 42.443 13.4519 42.8397 13.4956C43.2364 13.5394 43.6342 13.4238 43.9456 13.1742C44.257 12.9247 44.4566 12.5617 44.5003 12.165C44.6442 10.8815 45.2562 9.69605 46.2193 8.83542C47.1823 7.97478 48.4288 7.49933 49.7203 7.49999C51.9491 7.49999 53.8141 8.67499 54.5891 10.5675C54.7011 10.8445 54.8933 11.0818 55.1411 11.2489C55.3888 11.416 55.6809 11.5052 55.9797 11.5052C56.2785 11.5052 56.5706 11.416 56.8183 11.2489C57.0661 11.0818 57.2583 10.8445 57.3703 10.5675C58.1453 8.67499 60.0103 7.49999 62.2391 7.49999C63.6326 7.49966 64.9693 8.05232 65.9557 9.03663C66.9422 10.0209 67.4977 11.3565 67.5003 12.75C67.5003 16.4275 64.2678 19.9712 61.5553 22.295C59.8116 23.773 57.9476 25.103 55.9828 26.2712C54.6241 25.465 51.5616 23.5212 48.9191 20.93C48.7786 20.7918 48.6122 20.6826 48.4295 20.6087C48.2468 20.5347 48.0513 20.4975 47.8542 20.4992C47.6571 20.5008 47.4623 20.5412 47.2808 20.6181C47.0993 20.6951 46.9348 20.807 46.7966 20.9475C46.6584 21.088 46.5492 21.2544 46.4753 21.4371C46.4013 21.6198 46.3641 21.8153 46.3657 22.0124C46.3674 22.2095 46.4078 22.4043 46.4847 22.5858C46.5616 22.7672 46.6736 22.9318 46.8141 23.07C50.6128 26.7962 55.0828 29.22 55.2716 29.32C55.4905 29.4373 55.7351 29.4987 55.9835 29.4987C56.2318 29.4987 56.4764 29.4373 56.6953 29.32C57.2503 29.0175 70.5003 21.7925 70.5003 12.75C70.4964 10.5612 69.6243 8.46341 68.0756 6.91677C66.5269 5.37014 64.4278 4.50098 62.2391 4.49999Z" fill="white"/>
</g>
<defs>
<clipPath id="clip0_27_4986">
<rect width="72" height="32" rx="5" fill="white"/>
</clipPath>
</defs>
</svg>
