<svg width="72" height="32" viewBox="0 0 72 32" fill="none" xmlns="http://www.w3.org/2000/svg">
<g clip-path="url(#clip0_27_4735)">
<path d="M29.9762 13.4375C29.3275 21.865 17.0138 28.5912 16.4762 28.88C16.3306 28.9583 16.1679 28.9993 16.0025 28.9993C15.8371 28.9993 15.6744 28.9583 15.5288 28.88C14.975 28.5837 2 21.5 2 12.75C1.99965 11.3461 2.38066 9.96845 3.10234 8.76422C3.82401 7.56 4.85925 6.57443 6.09746 5.91277C7.33568 5.25111 8.73037 4.93822 10.1326 5.00753C11.5348 5.07683 12.8918 5.52572 14.0588 6.30625C14.1206 6.34725 14.1725 6.40151 14.2108 6.46507C14.2491 6.52864 14.2727 6.59993 14.28 6.67377C14.2873 6.74761 14.2781 6.82214 14.253 6.89198C14.2279 6.96181 14.1876 7.02518 14.135 7.0775L12.465 8.75C12.2776 8.93752 12.1723 9.19177 12.1723 9.45687C12.1723 9.72198 12.2776 9.97623 12.465 10.1637L16.5312 14.23L13.875 16.875C13.7782 16.9669 13.7008 17.0773 13.6474 17.1996C13.594 17.3219 13.5656 17.4537 13.5639 17.5872C13.5621 17.7206 13.5872 17.8531 13.6375 17.9767C13.6878 18.1004 13.7623 18.2127 13.8567 18.3071C13.951 18.4015 14.0634 18.476 14.187 18.5263C14.3107 18.5766 14.4431 18.6016 14.5766 18.5999C14.71 18.5982 14.8418 18.5698 14.9641 18.5163C15.0864 18.4629 15.1968 18.3855 15.2887 18.2887L18.6488 14.93C18.8361 14.7425 18.9414 14.4882 18.9414 14.2231C18.9414 13.958 18.8361 13.7038 18.6488 13.5162L14.5875 9.45375L16.7712 7.27C17.4953 6.54227 18.3574 5.96658 19.3071 5.57676C20.2568 5.18693 21.2747 4.99084 22.3013 5C26.8413 5.02875 30.3237 8.91125 29.9762 13.4375Z" fill="white"/>
<path d="M62.25 4.5C61.1662 4.49723 60.0926 4.70934 59.0912 5.12408C58.0899 5.53882 57.1807 6.14795 56.4163 6.91625L56 7.3325L55.5837 6.91625C54.43 5.76242 52.9599 4.97664 51.3596 4.65829C49.7592 4.33995 48.1003 4.50332 46.5928 5.12777C45.0853 5.75221 43.7968 6.80967 42.8903 8.16642C41.9838 9.52317 41.5 11.1183 41.5 12.75C41.5 21.7925 54.7262 29.0175 55.2887 29.3212C55.5073 29.439 55.7517 29.5006 56 29.5006C56.2483 29.5006 56.4927 29.439 56.7113 29.3212C57.2738 29.0175 70.5 21.7925 70.5 12.75C70.4974 10.5628 69.6273 8.46589 68.0807 6.91929C66.5341 5.37269 64.4372 4.50264 62.25 4.5ZM61.5637 22.295C59.8228 23.7723 57.9618 25.1019 56 26.27C54.0382 25.1019 52.1772 23.7723 50.4362 22.295C47.7275 19.9712 44.5 16.4275 44.5 12.75C44.4999 11.7116 44.8078 10.6965 45.3847 9.83306C45.9615 8.96963 46.7815 8.29666 47.7409 7.89927C48.7002 7.50188 49.7559 7.39791 50.7743 7.60052C51.7928 7.80312 52.7283 8.3032 53.4625 9.0375L53.875 9.45375L52.935 10.3937C52.7952 10.5331 52.6842 10.6987 52.6085 10.881C52.5328 11.0633 52.4938 11.2588 52.4938 11.4562C52.4938 11.6537 52.5328 11.8491 52.6085 12.0315C52.6842 12.2138 52.7952 12.3794 52.935 12.5187L55.6475 15.2312L53.935 16.9425C53.7955 17.082 53.6848 17.2477 53.6093 17.43C53.5338 17.6123 53.4949 17.8077 53.4949 18.005C53.4949 18.2023 53.5338 18.3977 53.6093 18.58C53.6848 18.7623 53.7955 18.928 53.935 19.0675C54.0745 19.207 54.2402 19.3177 54.4225 19.3932C54.6048 19.4687 54.8002 19.5076 54.9975 19.5076C55.1948 19.5076 55.3902 19.4687 55.5725 19.3932C55.7548 19.3177 55.9205 19.207 56.06 19.0675L58.8325 16.2937C58.9723 16.1544 59.0833 15.9888 59.159 15.8065C59.2347 15.6241 59.2737 15.4287 59.2737 15.2312C59.2737 15.0338 59.2347 14.8383 59.159 14.656C59.0833 14.4737 58.9723 14.3081 58.8325 14.1687L56.125 11.4537L58.5375 9.0375C59.2717 8.3032 60.2072 7.80312 61.2257 7.60052C62.2441 7.39791 63.2998 7.50188 64.2591 7.89927C65.2185 8.29666 66.0385 8.96963 66.6153 9.83306C67.1922 10.6965 67.5001 11.7116 67.5 12.75C67.5 16.4275 64.2725 19.9712 61.5637 22.295Z" fill="white"/>
</g>
<defs>
<clipPath id="clip0_27_4735">
<rect width="72" height="32" rx="5" fill="white"/>
</clipPath>
</defs>
</svg>
