<svg width="72" height="32" viewBox="0 0 72 32" fill="none" xmlns="http://www.w3.org/2000/svg">
<g clip-path="url(#clip0_27_4745)">
<path d="M30.0003 12.25C30.0024 13.2023 29.8157 14.1456 29.451 15.0253C29.0862 15.905 28.5507 16.7036 27.8753 17.375L16.7128 28.7025C16.6198 28.797 16.5089 28.872 16.3865 28.9232C16.2642 28.9745 16.1329 29.0008 16.0003 29.0008C15.8677 29.0008 15.7364 28.9745 15.6141 28.9232C15.4918 28.872 15.3809 28.797 15.2878 28.7025L4.12531 17.375C2.76442 16.0158 1.99922 14.1716 1.99805 12.2482C1.99688 10.3248 2.75983 8.47964 4.11906 7.11875C5.4783 5.75786 7.32247 4.99266 9.24589 4.99149C11.1693 4.99031 13.0144 5.75327 14.3753 7.1125L16.0003 8.63125L17.6366 7.1075C18.6521 6.09699 19.9443 5.41001 21.35 5.13329C22.7557 4.85657 24.2118 5.00252 25.5346 5.55272C26.8574 6.10291 27.9875 7.03268 28.7823 8.22465C29.5771 9.41662 30.001 10.8173 30.0003 12.25Z" fill="white"/>
<path d="M68.2299 6.76626C66.7783 5.31897 64.813 4.5049 62.7632 4.50186C60.7134 4.49881 58.7457 5.30704 57.2899 6.75001L55.9999 7.94751L54.7099 6.75001C53.2545 5.29828 51.282 4.48415 49.2264 4.48673C47.1708 4.48931 45.2004 5.30838 43.7486 6.76376C42.2969 8.21913 41.4828 10.1916 41.4854 12.2472C41.4879 14.3029 42.307 16.2733 43.7624 17.725L54.9311 29.0563C55.0707 29.198 55.2371 29.3105 55.4206 29.3874C55.604 29.4642 55.801 29.5037 55.9999 29.5037C56.1988 29.5037 56.3957 29.4642 56.5792 29.3874C56.7627 29.3105 56.9291 29.198 57.0686 29.0563L68.2299 17.7325C68.9499 17.0128 69.521 16.1583 69.9107 15.2178C70.3004 14.2773 70.501 13.2693 70.501 12.2513C70.501 11.2332 70.3004 10.2252 69.9107 9.28469C69.521 8.3442 68.9499 7.4897 68.2299 6.77001V6.76626ZM66.1049 15.615L55.9999 25.8625L45.8911 15.6063C45.0034 14.7148 44.5055 13.5076 44.5068 12.2495C44.5081 10.9915 45.0085 9.7853 45.8981 8.89571C46.7877 8.00612 47.9938 7.50577 49.2519 7.50447C50.51 7.50316 51.7172 8.00101 52.6086 8.88876C52.6211 8.90126 52.6336 8.91376 52.6474 8.92501L54.9774 11.095C55.255 11.3537 55.6204 11.4975 55.9999 11.4975C56.3794 11.4975 56.7447 11.3537 57.0224 11.095L59.3524 8.92501C59.3661 8.91376 59.3786 8.90126 59.3911 8.88876C59.8328 8.44817 60.3569 8.09889 60.9335 7.86086C61.5102 7.62282 62.128 7.50069 62.7519 7.50145C63.3757 7.5022 63.9933 7.62582 64.5694 7.86525C65.1454 8.10468 65.6687 8.45523 66.1093 8.89688C66.5498 9.33853 66.8991 9.86264 67.1372 10.4393C67.3752 11.0159 67.4973 11.6338 67.4966 12.2576C67.4958 12.8815 67.3722 13.499 67.1328 14.0751C66.8933 14.6512 66.5428 15.1744 66.1011 15.615H66.1049Z" fill="white"/>
</g>
<defs>
<clipPath id="clip0_27_4745">
<rect width="72" height="32" rx="5" fill="white"/>
</clipPath>
</defs>
</svg>
