<svg width="72" height="32" viewBox="0 0 72 32" fill="none" xmlns="http://www.w3.org/2000/svg">
<g clip-path="url(#clip0_27_5307)">
<path d="M29 10.0225V21.9775C28.9992 22.3356 28.9023 22.6869 28.7193 22.9947C28.5364 23.3025 28.2741 23.5556 27.96 23.7275L16.96 29.7487C16.6661 29.9111 16.3358 29.9963 16 29.9963C15.6642 29.9963 15.3339 29.9111 15.04 29.7487L4.04 23.7275C3.72586 23.5556 3.46363 23.3025 3.28069 22.9947C3.09775 22.6869 3.00081 22.3356 3 21.9775V10.0225C3.00081 9.66441 3.09775 9.31311 3.28069 9.00527C3.46363 8.69744 3.72586 8.44437 4.04 8.27249L15.04 2.25124C15.3339 2.08885 15.6642 2.00366 16 2.00366C16.3358 2.00366 16.6661 2.08885 16.96 2.25124L27.96 8.27249C28.2741 8.44437 28.5364 8.69744 28.7193 9.00527C28.9023 9.31311 28.9992 9.66441 29 10.0225Z" fill="white"/>
<path d="M68.2 7.83L57.2 1.80875C56.8324 1.60643 56.4196 1.50034 56 1.50034C55.5804 1.50034 55.1676 1.60643 54.8 1.80875L43.8 7.83C43.4064 8.04536 43.078 8.36268 42.8493 8.74866C42.6205 9.13465 42.4999 9.57508 42.5 10.0237V21.9762C42.4999 22.4249 42.6205 22.8653 42.8493 23.2513C43.078 23.6373 43.4064 23.9546 43.8 24.17L54.8 30.1912C55.1675 30.3938 55.5804 30.5 56 30.5C56.4196 30.5 56.8325 30.3938 57.2 30.1912L68.2 24.17C68.5936 23.9546 68.922 23.6373 69.1507 23.2513C69.3795 22.8653 69.5001 22.4249 69.5 21.9762V10.0237C69.5001 9.57508 69.3795 9.13465 69.1507 8.74866C68.922 8.36268 68.5936 8.04536 68.2 7.83ZM66.5 21.68L56 27.43L45.5 21.68V10.32L56 4.57L66.5 10.32V21.68Z" fill="white"/>
</g>
<defs>
<clipPath id="clip0_27_5307">
<rect width="72" height="32" rx="5" fill="white"/>
</clipPath>
</defs>
</svg>
