<svg width="72" height="32" viewBox="0 0 72 32" fill="none" xmlns="http://www.w3.org/2000/svg">
<g clip-path="url(#clip0_27_3799)">
<path d="M24.5 16C24.5 17.0609 24.0786 18.0783 23.3284 18.8284C22.5783 19.5786 21.5609 20 20.5 20H19V12H20.5C21.5609 12 22.5783 12.4214 23.3284 13.1716C24.0786 13.9217 24.5 14.9391 24.5 16ZM29 7V25C29 25.5304 28.7893 26.0391 28.4142 26.4142C28.0391 26.7893 27.5304 27 27 27H5C4.46957 27 3.96086 26.7893 3.58579 26.4142C3.21071 26.0391 3 25.5304 3 25V7C3 6.46957 3.21071 5.96086 3.58579 5.58579C3.96086 5.21071 4.46957 5 5 5H27C27.5304 5 28.0391 5.21071 28.4142 5.58579C28.7893 5.96086 29 6.46957 29 7ZM15 11C15 10.7348 14.8946 10.4804 14.7071 10.2929C14.5196 10.1054 14.2652 10 14 10C13.7348 10 13.4804 10.1054 13.2929 10.2929C13.1054 10.4804 13 10.7348 13 11V15H8V11C8 10.7348 7.89464 10.4804 7.70711 10.2929C7.51957 10.1054 7.26522 10 7 10C6.73478 10 6.48043 10.1054 6.29289 10.2929C6.10536 10.4804 6 10.7348 6 11V21C6 21.2652 6.10536 21.5196 6.29289 21.7071C6.48043 21.8946 6.73478 22 7 22C7.26522 22 7.51957 21.8946 7.70711 21.7071C7.89464 21.5196 8 21.2652 8 21V17H13V21C13 21.2652 13.1054 21.5196 13.2929 21.7071C13.4804 21.8946 13.7348 22 14 22C14.2652 22 14.5196 21.8946 14.7071 21.7071C14.8946 21.5196 15 21.2652 15 21V11ZM26.5 16C26.4983 14.4092 25.8657 12.884 24.7408 11.7592C23.616 10.6343 22.0908 10.0017 20.5 10H18C17.7348 10 17.4804 10.1054 17.2929 10.2929C17.1054 10.4804 17 10.7348 17 11V21C17 21.2652 17.1054 21.5196 17.2929 21.7071C17.4804 21.8946 17.7348 22 18 22H20.5C22.0908 21.9983 23.616 21.3657 24.7408 20.2408C25.8657 19.116 26.4983 17.5908 26.5 16Z" fill="white"/>
<path d="M62.5 8.5H59.5C59.1022 8.5 58.7206 8.65804 58.4393 8.93934C58.158 9.22064 58 9.60218 58 10V22C58 22.3978 58.158 22.7794 58.4393 23.0607C58.7206 23.342 59.1022 23.5 59.5 23.5H62.5C64.4891 23.5 66.3968 22.7098 67.8033 21.3033C69.2098 19.8968 70 17.9891 70 16C70 14.0109 69.2098 12.1032 67.8033 10.6967C66.3968 9.29018 64.4891 8.5 62.5 8.5ZM62.5 20.5H61V11.5H62.5C63.6935 11.5 64.8381 11.9741 65.682 12.818C66.5259 13.6619 67 14.8065 67 16C67 17.1935 66.5259 18.3381 65.682 19.182C64.8381 20.0259 63.6935 20.5 62.5 20.5ZM53 22V17.5H47V22C47 22.3978 46.842 22.7794 46.5607 23.0607C46.2794 23.342 45.8978 23.5 45.5 23.5C45.1022 23.5 44.7206 23.342 44.4393 23.0607C44.158 22.7794 44 22.3978 44 22V10C44 9.60218 44.158 9.22064 44.4393 8.93934C44.7206 8.65804 45.1022 8.5 45.5 8.5C45.8978 8.5 46.2794 8.65804 46.5607 8.93934C46.842 9.22064 47 9.60218 47 10V14.5H53V10C53 9.60218 53.158 9.22064 53.4393 8.93934C53.7206 8.65804 54.1022 8.5 54.5 8.5C54.8978 8.5 55.2794 8.65804 55.5607 8.93934C55.842 9.22064 56 9.60218 56 10V22C56 22.3978 55.842 22.7794 55.5607 23.0607C55.2794 23.342 54.8978 23.5 54.5 23.5C54.1022 23.5 53.7206 23.342 53.4393 23.0607C53.158 22.7794 53 22.3978 53 22ZM42.5 5.5C42.5 5.10218 42.658 4.72064 42.9393 4.43934C43.2206 4.15804 43.6022 4 44 4H68C68.3978 4 68.7794 4.15804 69.0607 4.43934C69.342 4.72064 69.5 5.10218 69.5 5.5C69.5 5.89782 69.342 6.27936 69.0607 6.56066C68.7794 6.84196 68.3978 7 68 7H44C43.6022 7 43.2206 6.84196 42.9393 6.56066C42.658 6.27936 42.5 5.89782 42.5 5.5ZM69.5 26.5C69.5 26.8978 69.342 27.2794 69.0607 27.5607C68.7794 27.842 68.3978 28 68 28H44C43.6022 28 43.2206 27.842 42.9393 27.5607C42.658 27.2794 42.5 26.8978 42.5 26.5C42.5 26.1022 42.658 25.7206 42.9393 25.4393C43.2206 25.158 43.6022 25 44 25H68C68.3978 25 68.7794 25.158 69.0607 25.4393C69.342 25.7206 69.5 26.1022 69.5 26.5Z" fill="white"/>
</g>
<defs>
<clipPath id="clip0_27_3799">
<rect width="72" height="32" rx="5" fill="white"/>
</clipPath>
</defs>
</svg>
