<svg width="72" height="32" viewBox="0 0 72 32" fill="none" xmlns="http://www.w3.org/2000/svg">
<g clip-path="url(#clip0_27_1257)">
<path d="M4 18C5.61253 17.9987 7.20853 18.3249 8.69125 18.9588C8.78272 18.9966 8.86089 19.0608 8.91585 19.1431C8.97082 19.2255 9.0001 19.3223 9 19.4213V24C9 24.5304 8.78929 25.0391 8.41421 25.4142C8.03914 25.7893 7.53043 26 7 26H5C4.46957 26 3.96086 25.7893 3.58579 25.4142C3.21071 25.0391 3 24.5304 3 24V18.5C3 18.3674 3.05268 18.2402 3.14645 18.1464C3.24021 18.0527 3.36739 18 3.5 18H4ZM28.875 19.5238L22.5 18.0888L8.7075 4.2925C8.61197 4.19701 8.49808 4.12186 8.37272 4.07159C8.24735 4.02132 8.11309 3.99697 7.97806 4.00001C7.84302 4.00305 7.71 4.03341 7.58701 4.08926C7.46403 4.14512 7.35364 4.22531 7.2625 4.325C4.51375 7.33 3 11.125 3 15C3 15.2652 3.10536 15.5196 3.29289 15.7071C3.48043 15.8946 3.73478 16 4 16C6.82823 15.9962 9.59031 16.8553 11.9175 18.4625C14.1875 20.0204 15.95 22.2106 16.9862 24.7612C17.136 25.1294 17.3926 25.4442 17.7231 25.665C18.0535 25.8859 18.4426 26.0025 18.84 26H30C30.5304 26 31.0391 25.7893 31.4142 25.4142C31.7893 25.0391 32 24.5304 32 24V23.4088C32.0023 22.5014 31.6933 21.6206 31.1246 20.9136C30.5558 20.2066 29.7618 19.716 28.875 19.5238Z" fill="white"/>
<path d="M68.4912 19.0388L62.7638 17.6425L49.0612 3.93875C48.918 3.79552 48.7471 3.6828 48.5591 3.60739C48.371 3.53198 48.1696 3.49546 47.9671 3.50001C47.7645 3.50457 47.565 3.55011 47.3805 3.6339C47.196 3.71768 47.0305 3.83797 46.8938 3.9875C44.06 7.085 42.5 11 42.5 15V24C42.5 24.663 42.7634 25.2989 43.2322 25.7678C43.7011 26.2366 44.337 26.5 45 26.5H49C49.3283 26.5 49.6534 26.4353 49.9567 26.3097C50.26 26.1841 50.5356 25.9999 50.7678 25.7678C50.9999 25.5356 51.1841 25.26 51.3097 24.9567C51.4353 24.6534 51.5 24.3283 51.5 24V18.7863L51.6337 18.875C53.8232 20.3774 55.5231 22.4899 56.5225 24.95C56.7098 25.4103 57.0306 25.8039 57.4437 26.0802C57.8567 26.3565 58.3431 26.5027 58.84 26.5H69.5C70.163 26.5 70.7989 26.2366 71.2678 25.7678C71.7366 25.2989 72 24.663 72 24V23.4088C72.0029 22.389 71.6562 21.399 71.0177 20.6038C70.3793 19.8086 69.4876 19.2563 68.4912 19.0388ZM48.5 23.5H45.5V16.5838C46.5232 16.6968 47.5299 16.9279 48.5 17.2725V23.5ZM69 23.5H59.1688C57.9325 20.6316 55.9101 18.1715 53.335 16.4038C51.0352 14.8152 48.3673 13.8415 45.585 13.575C45.8614 11.2768 46.7311 9.09014 48.1088 7.23L60.9387 20.0613C61.1336 20.2553 61.3778 20.3923 61.645 20.4575L67.795 21.9575L67.8263 21.965C68.1586 22.0353 68.4566 22.2178 68.6703 22.4818C68.8841 22.7458 69.0005 23.0753 69 23.415V23.5Z" fill="white"/>
</g>
<defs>
<clipPath id="clip0_27_1257">
<rect width="72" height="32" rx="5" fill="white"/>
</clipPath>
</defs>
</svg>
