<svg width="72" height="32" viewBox="0 0 72 32" fill="none" xmlns="http://www.w3.org/2000/svg">
<g clip-path="url(#clip0_27_5312)">
<path d="M31.7081 13.2925C31.6153 13.1995 31.505 13.1258 31.3836 13.0754C31.2622 13.0251 31.1321 12.9992 31.0006 12.9992C30.8692 12.9992 30.7391 13.0251 30.6177 13.0754C30.4963 13.1258 30.386 13.1995 30.2931 13.2925L24.0006 19.5863L13.4144 9.00001L19.7081 2.70751C19.8011 2.6146 19.8748 2.5043 19.925 2.3829C19.9753 2.26151 20.0012 2.1314 20.0012 2.00001C20.0012 1.86861 19.9753 1.7385 19.925 1.61711C19.8748 1.49572 19.8011 1.38542 19.7081 1.29251C19.6152 1.1996 19.5049 1.1259 19.3835 1.07561C19.2621 1.02533 19.132 0.999451 19.0006 0.999451C18.8693 0.999451 18.7391 1.02533 18.6178 1.07561C18.4964 1.1259 18.3861 1.1996 18.2931 1.29251L12.0006 7.58626C11.6981 7.88889 11.5005 8.2806 11.4371 8.70382C11.3736 9.12704 11.4476 9.55945 11.6481 9.93751L9.00065 12.5863C8.62586 12.9613 8.41532 13.4698 8.41532 14C8.41532 14.5302 8.62586 15.0387 9.00065 15.4138L9.5869 16L2.29315 23.2925C2.17251 23.4131 2.08471 23.5625 2.03809 23.7265C1.99147 23.8905 1.98758 24.0638 2.02679 24.2298C2.06599 24.3957 2.147 24.5489 2.2621 24.6748C2.3772 24.8006 2.52257 24.8949 2.6844 24.9488L11.6844 27.9488C11.7863 27.983 11.8931 28.0003 12.0006 28C12.132 28.0001 12.2621 27.9743 12.3835 27.9241C12.5049 27.874 12.6152 27.8003 12.7081 27.7075L17.0006 23.4138L17.5869 24C17.9619 24.3748 18.4704 24.5853 19.0006 24.5853C19.5309 24.5853 20.0394 24.3748 20.4144 24L23.0619 21.3525C23.4401 21.5533 23.8728 21.6275 24.2962 21.564C24.7197 21.5006 25.1117 21.3029 25.4144 21L31.7081 14.7075C31.8011 14.6146 31.8749 14.5043 31.9252 14.3829C31.9755 14.2615 32.0014 14.1314 32.0014 14C32.0014 13.8686 31.9755 13.7385 31.9252 13.6171C31.8749 13.4957 31.8011 13.3854 31.7081 13.2925ZM19.0006 22.5863L10.4144 14L13.0006 11.4138L21.5869 20L19.0006 22.5863Z" fill="white"/>
<path d="M71.5616 13.4388C71.4222 13.2989 71.2566 13.188 71.0743 13.1123C70.892 13.0365 70.6965 12.9976 70.4991 12.9976C70.3017 12.9976 70.1062 13.0365 69.9239 13.1123C69.7415 13.188 69.5759 13.2989 69.4366 13.4388L64.0003 18.875L54.1253 9.00001L59.5653 3.56126C59.8471 3.27946 60.0054 2.89727 60.0054 2.49876C60.0054 2.10024 59.8471 1.71805 59.5653 1.43626C59.2836 1.15446 58.9014 0.996155 58.5028 0.996155C58.1043 0.996155 57.7221 1.15446 57.4403 1.43626L51.6466 7.23251C51.3148 7.56516 51.0835 7.98457 50.9791 8.44266C50.8748 8.90075 50.9016 9.37897 51.0566 9.82251L48.6466 12.2325C48.1779 12.7013 47.9146 13.3371 47.9146 14C47.9146 14.6629 48.1779 15.2987 48.6466 15.7675L48.8753 16L41.9391 22.9388C41.7583 23.1196 41.6268 23.3437 41.557 23.5898C41.4872 23.8358 41.4814 24.0956 41.5403 24.3444C41.5991 24.5933 41.7207 24.823 41.8933 25.0117C42.0659 25.2004 42.2839 25.3418 42.5266 25.4225L51.5266 28.4225C51.6792 28.474 51.8393 28.5002 52.0003 28.5C52.1975 28.5 52.3927 28.4611 52.5748 28.3856C52.7569 28.3101 52.9223 28.1995 53.0616 28.06L57.0003 24.125L57.2328 24.3575C57.7017 24.8262 58.3374 25.0895 59.0003 25.0895C59.6633 25.0895 60.299 24.8262 60.7678 24.3575L63.1766 21.9488C63.4415 22.0411 63.7198 22.0888 64.0003 22.09C64.3288 22.0909 64.6541 22.0266 64.9575 21.9009C65.2609 21.7751 65.5363 21.5904 65.7678 21.3575L71.5616 15.565C71.7016 15.4256 71.8127 15.26 71.8886 15.0775C71.9644 14.8951 72.0034 14.6995 72.0034 14.5019C72.0034 14.3043 71.9644 14.1087 71.8886 13.9262C71.8127 13.7438 71.7016 13.5781 71.5616 13.4388ZM51.5953 25.2838L45.7766 23.345L51.0003 18.125L54.8753 22L51.5953 25.2838ZM59.0003 21.875L52.0616 14.94L51.1253 14L53.0003 12.125L60.8753 20L59.0003 21.875Z" fill="white"/>
</g>
<defs>
<clipPath id="clip0_27_5312">
<rect width="72" height="32" rx="5" fill="white"/>
</clipPath>
</defs>
</svg>
