<svg width="72" height="32" viewBox="0 0 72 32" fill="none" xmlns="http://www.w3.org/2000/svg">
<g clip-path="url(#clip0_27_4755)">
<path d="M18.7375 15.3525L27.2375 5.3525C27.4092 5.15027 27.6543 5.02454 27.9187 5.00298C28.1831 4.98141 28.4453 5.06577 28.6475 5.2375C28.8497 5.40923 28.9755 5.65425 28.997 5.91868C29.0186 6.18311 28.9342 6.44527 28.7625 6.6475L20.2625 16.6475C20.1775 16.7476 20.0735 16.83 19.9567 16.89C19.8398 16.95 19.7122 16.9863 19.5813 16.997C19.3169 17.0186 19.0547 16.9342 18.8525 16.7625C18.6503 16.5908 18.5245 16.3457 18.503 16.0813C18.4814 15.8169 18.5658 15.5547 18.7375 15.3525ZM30 21V25C30 25.5304 29.7893 26.0391 29.4142 26.4142C29.0391 26.7893 28.5304 27 28 27H21.4625C21.1726 26.9999 20.8862 26.9369 20.6231 26.8151C20.36 26.6934 20.1265 26.5159 19.9387 26.295L3.2375 6.6475C3.06577 6.44527 2.98141 6.18311 3.00298 5.91868C3.02455 5.65425 3.15027 5.40923 3.3525 5.2375C3.55473 5.06577 3.81689 4.98141 4.08132 5.00298C4.34574 5.02454 4.59077 5.15027 4.7625 5.3525L16.3625 19H28C28.5304 19 29.0391 19.2107 29.4142 19.5858C29.7893 19.9609 30 20.4696 30 21ZM28 21H26V25H28V21ZM14.4125 22.8825C14.4893 22.9729 14.5315 23.0876 14.5315 23.2062C14.5315 23.3249 14.4893 23.4396 14.4125 23.53L12.0612 26.295C11.8735 26.5159 11.64 26.6934 11.3769 26.8151C11.1138 26.9369 10.8274 26.9999 10.5375 27H4C3.46957 27 2.96086 26.7893 2.58579 26.4142C2.21071 26.0391 2 25.5304 2 25V21C2 20.4696 2.21071 19.9609 2.58579 19.5858C2.96086 19.2107 3.46957 19 4 19H10.8813C10.9527 19.0009 11.0232 19.017 11.0879 19.0474C11.1526 19.0779 11.21 19.1218 11.2563 19.1762L14.4125 22.8825ZM6 21H4V25H6V21Z" fill="white"/>
<path d="M68 18.5H56.5938L45.1425 5.02875C44.8817 4.73687 44.5171 4.55849 44.1266 4.53169C43.7361 4.50489 43.3506 4.6318 43.0524 4.88532C42.7542 5.13885 42.5669 5.4989 42.5305 5.88862C42.494 6.27835 42.6114 6.66687 42.8575 6.97125L54.7525 20.9713L54.76 20.98L59.5575 26.625C59.7928 26.9001 60.0849 27.1207 60.4139 27.2718C60.7428 27.4229 61.1006 27.5007 61.4625 27.5H68C68.663 27.5 69.2989 27.2366 69.7678 26.7678C70.2366 26.2989 70.5 25.663 70.5 25V21C70.5 20.337 70.2366 19.7011 69.7678 19.2322C69.2989 18.7634 68.663 18.5 68 18.5ZM59.1437 21.5H62.5V24.5H61.6938L59.1437 21.5ZM67.5 24.5H65.5V21.5H67.5V24.5ZM59.2075 14.0287L66.8575 5.02875C67.1183 4.73687 67.4829 4.55849 67.8734 4.53169C68.2639 4.50489 68.6494 4.6318 68.9476 4.88532C69.2458 5.13885 69.4331 5.4989 69.4695 5.88862C69.506 6.27835 69.3886 6.66687 69.1425 6.97125L61.4925 15.9712C61.3667 16.1268 61.211 16.2557 61.0347 16.3502C60.8583 16.4448 60.6648 16.503 60.4656 16.5217C60.2664 16.5403 60.0654 16.5188 59.8746 16.4586C59.6838 16.3984 59.507 16.3006 59.3545 16.171C59.2021 16.0414 59.0771 15.8826 58.9869 15.704C58.8968 15.5254 58.8433 15.3305 58.8296 15.1309C58.8159 14.9312 58.8423 14.7309 58.9072 14.5416C58.9721 14.3523 59.0742 14.178 59.2075 14.0287ZM53.69 22.835C53.3869 22.5775 52.994 22.4509 52.5977 22.483C52.2013 22.5152 51.8339 22.7033 51.5763 23.0063L50.3062 24.5H49.5V21.4912C49.8816 21.4498 50.2329 21.2637 50.4814 20.9712C50.7299 20.6786 50.8568 20.3019 50.836 19.9186C50.8152 19.5353 50.6482 19.1746 50.3694 18.9107C50.0907 18.6468 49.7214 18.4998 49.3375 18.5H44C43.337 18.5 42.7011 18.7634 42.2322 19.2322C41.7634 19.7011 41.5 20.337 41.5 21V25C41.5 25.663 41.7634 26.2989 42.2322 26.7678C42.7011 27.2366 43.337 27.5 44 27.5H50.5375C50.8994 27.5007 51.2572 27.4229 51.5861 27.2718C51.9151 27.1207 52.2072 26.9001 52.4425 26.625L53.8612 24.955C53.9897 24.8048 54.0872 24.6307 54.1481 24.4426C54.2091 24.2546 54.2322 24.0564 54.2163 23.8594C54.2004 23.6624 54.1457 23.4705 54.0554 23.2947C53.9651 23.1189 53.8409 22.9627 53.69 22.835ZM44.5 21.5H46.5V24.5H44.5V21.5Z" fill="white"/>
</g>
<defs>
<clipPath id="clip0_27_4755">
<rect width="72" height="32" rx="5" fill="white"/>
</clipPath>
</defs>
</svg>
