<svg width="72" height="32" viewBox="0 0 72 32" fill="none" xmlns="http://www.w3.org/2000/svg">
<g clip-path="url(#clip0_27_1262)">
<path d="M29.6639 15.0662L22.8751 4.89C22.6929 4.61691 22.4463 4.39286 22.157 4.23765C21.8677 4.08243 21.5447 4.00081 21.2164 4H10.7839C10.4556 4.00081 10.1325 4.08243 9.84323 4.23765C9.55394 4.39286 9.30731 4.61691 9.12511 4.89L2.33636 15.0662C2.17758 15.3041 2.07165 15.5732 2.02572 15.8555C1.97979 16.1378 1.99493 16.4266 2.07011 16.7025L4.75011 26.5263C4.86552 26.9494 5.11683 27.3229 5.46534 27.5892C5.81386 27.8555 6.24025 27.9998 6.67886 28H10.0001C10.5305 28 11.0392 27.7893 11.4143 27.4142C11.7894 27.0391 12.0001 26.5304 12.0001 26V24H20.0001V26C20.0001 26.5304 20.2108 27.0391 20.5859 27.4142C20.961 27.7893 21.4697 28 22.0001 28H25.3214C25.76 27.9998 26.1864 27.8555 26.5349 27.5892C26.8834 27.3229 27.1347 26.9494 27.2501 26.5263L29.9301 16.7025C30.0053 16.4266 30.0204 16.1378 29.9745 15.8555C29.9286 15.5732 29.8226 15.3041 29.6639 15.0662ZM10.0001 26H6.67886L4.00011 16.1763L8.00011 10.1763V22C8.00011 22.5304 8.21082 23.0391 8.5859 23.4142C8.96097 23.7893 9.46968 24 10.0001 24V26ZM15.0001 17C15.0001 17.2652 14.8948 17.5196 14.7072 17.7071C14.5197 17.8946 14.2653 18 14.0001 18C13.7349 18 13.4805 17.8946 13.293 17.7071C13.1055 17.5196 13.0001 17.2652 13.0001 17V12.1425C13.0001 11.8773 13.1055 11.6229 13.293 11.4354C13.4805 11.2479 13.7349 11.1425 14.0001 11.1425C14.2653 11.1425 14.5197 11.2479 14.7072 11.4354C14.8948 11.6229 15.0001 11.8773 15.0001 12.1425V17ZM19.0001 16C19.0001 16.2652 18.8948 16.5196 18.7072 16.7071C18.5197 16.8946 18.2653 17 18.0001 17C17.7349 17 17.4805 16.8946 17.293 16.7071C17.1055 16.5196 17.0001 16.2652 17.0001 16V12.1425C17.0001 11.8773 17.1055 11.6229 17.293 11.4354C17.4805 11.2479 17.7349 11.1425 18.0001 11.1425C18.2653 11.1425 18.5197 11.2479 18.7072 11.4354C18.8948 11.6229 19.0001 11.8773 19.0001 12.1425V16ZM16.0001 9.83875L10.4189 6.54875L10.7839 6H21.2164L21.5814 6.54875L16.0001 9.83875ZM25.3214 26H22.0001V24C22.5305 24 23.0392 23.7893 23.4143 23.4142C23.7894 23.0391 24.0001 22.5304 24.0001 22V10.1763L28.0001 16.1763L25.3214 26Z" fill="white"/>
<path d="M70.5801 14.7887L63.7963 4.61375C63.5681 4.27123 63.2588 3.99035 62.896 3.79606C62.5331 3.60177 62.1279 3.50008 61.7163 3.5H50.2838C49.8722 3.50008 49.467 3.60177 49.1042 3.79606C48.7413 3.99035 48.4321 4.27123 48.2038 4.61375L41.4201 14.7887C41.2219 15.0861 41.0898 15.4226 41.0327 15.7753C40.9755 16.1281 40.9947 16.489 41.0888 16.8337L43.7676 26.6575C43.9118 27.1866 44.226 27.6535 44.6617 27.9865C45.0974 28.3194 45.6305 28.4998 46.1788 28.5H49.5001C49.8284 28.5 50.1535 28.4353 50.4568 28.3097C50.7601 28.1841 51.0357 27.9999 51.2678 27.7678C51.5 27.5356 51.6841 27.26 51.8098 26.9567C51.9354 26.6534 52.0001 26.3283 52.0001 26V24.5H60.0001V26C60.0001 26.663 60.2635 27.2989 60.7323 27.7678C61.2011 28.2366 61.837 28.5 62.5001 28.5H65.8213C66.3697 28.4998 66.9028 28.3194 67.3385 27.9865C67.7742 27.6535 68.0884 27.1866 68.2326 26.6575L70.9113 16.8337C71.0055 16.489 71.0246 16.1281 70.9675 15.7753C70.9103 15.4226 70.7782 15.0861 70.5801 14.7887ZM50.5001 21.5V8.83L52.0001 9.7675V17C52.0001 17.3978 52.1581 17.7794 52.4394 18.0607C52.7207 18.342 53.1022 18.5 53.5001 18.5C53.8979 18.5 54.2794 18.342 54.5607 18.0607C54.842 17.7794 55.0001 17.3978 55.0001 17V11.6438L55.2051 11.7688C55.4435 11.9177 55.7189 11.9968 56.0001 11.9968C56.2812 11.9968 56.5567 11.9177 56.7951 11.7688L57.0001 11.6438V16C57.0001 16.3978 57.1581 16.7794 57.4394 17.0607C57.7207 17.342 58.1022 17.5 58.5001 17.5C58.8979 17.5 59.2794 17.342 59.5607 17.0607C59.842 16.7794 60.0001 16.3978 60.0001 16V9.7675L61.5001 8.83V21.5H50.5001ZM56.0001 8.73125L52.4326 6.5H59.5676L56.0001 8.73125ZM46.5613 25.5L44.0426 16.2638L47.5001 11.0775V22C47.5003 22.4862 47.6424 22.9618 47.9088 23.3686C48.1752 23.7753 48.5544 24.0955 49.0001 24.29V25.5H46.5613ZM65.4363 25.5H63.0001V24.29C63.4457 24.0955 63.8249 23.7753 64.0914 23.3686C64.3578 22.9618 64.4998 22.4862 64.5001 22V11.0775L67.9576 16.2638L65.4363 25.5Z" fill="white"/>
</g>
<defs>
<clipPath id="clip0_27_1262">
<rect width="72" height="32" rx="5" fill="white"/>
</clipPath>
</defs>
</svg>
