<svg width="72" height="32" viewBox="0 0 72 32" fill="none" xmlns="http://www.w3.org/2000/svg">
<g clip-path="url(#clip0_27_4760)">
<path d="M25.2566 6.87499C24.0506 5.64373 22.6103 4.6665 21.0205 4.00097C19.4308 3.33544 17.7238 2.99508 16.0003 2.99999H15.0003C14.7351 2.99999 14.4808 3.10535 14.2932 3.29288C14.1057 3.48042 14.0003 3.73477 14.0003 3.99999V7.44124L1.47659 15.1487C1.36432 15.2179 1.26683 15.3085 1.18973 15.4155C1.11263 15.5225 1.05745 15.6436 1.02736 15.772C0.997273 15.9004 0.992869 16.0334 1.0144 16.1635C1.03594 16.2936 1.08298 16.4182 1.15284 16.53L2.87534 19.28L2.91284 19.3337C3.34883 19.9425 3.94772 20.4159 4.64069 20.6996C5.33367 20.9833 6.09261 21.0658 6.83034 20.9375C8.57159 20.6425 11.6578 20.12 14.5053 21.3487L11.1803 25.92C10.2674 25.4861 9.42134 24.9237 8.66784 24.25C8.46892 24.0731 8.2079 23.9825 7.94218 23.9981C7.67647 24.0137 7.42783 24.1342 7.25096 24.3331C7.0741 24.532 6.98349 24.7931 6.99908 25.0588C7.01467 25.3245 7.13517 25.5731 7.33409 25.75C9.71986 27.8648 12.8035 29.0224 15.9916 29H16.2628C18.8039 28.9498 21.2744 28.1559 23.369 26.7164C25.4636 25.2769 27.0903 23.2551 28.0479 20.9009C29.0055 18.5467 29.2521 15.9635 28.7571 13.4706C28.2621 10.9778 27.0473 8.6847 25.2628 6.87499H25.2566ZM15.5003 14C15.2037 14 14.9137 13.912 14.667 13.7472C14.4203 13.5824 14.228 13.3481 14.1145 13.074C14.001 12.7999 13.9713 12.4983 14.0292 12.2074C14.087 11.9164 14.2299 11.6491 14.4397 11.4393C14.6495 11.2296 14.9167 11.0867 15.2077 11.0288C15.4987 10.9709 15.8003 11.0006 16.0744 11.1142C16.3484 11.2277 16.5827 11.42 16.7475 11.6666C16.9124 11.9133 17.0003 12.2033 17.0003 12.5C17.0003 12.8978 16.8423 13.2793 16.561 13.5607C16.2797 13.842 15.8982 14 15.5003 14Z" fill="white"/>
<path d="M57.9999 13C57.9999 13.3956 57.8826 13.7822 57.6629 14.1111C57.4431 14.44 57.1308 14.6964 56.7653 14.8478C56.3999 14.9991 55.9977 15.0387 55.6098 14.9616C55.2218 14.8844 54.8654 14.6939 54.5857 14.4142C54.306 14.1345 54.1155 13.7781 54.0384 13.3902C53.9612 13.0022 54.0008 12.6001 54.1522 12.2346C54.3036 11.8692 54.5599 11.5568 54.8888 11.3371C55.2177 11.1173 55.6044 11 55.9999 11C56.5304 11 57.0391 11.2107 57.4142 11.5858C57.7892 11.9609 57.9999 12.4696 57.9999 13ZM69.4999 16.1912C69.4417 19.6888 68.0319 23.0281 65.566 25.5091C63.1001 27.9902 59.7696 29.4204 56.2724 29.5H55.9912C52.6793 29.5212 49.4767 28.3163 46.9999 26.1175C46.8479 25.9877 46.7234 25.8288 46.6337 25.6501C46.544 25.4715 46.4909 25.2768 46.4776 25.0773C46.4642 24.8779 46.4908 24.6778 46.5559 24.4888C46.6209 24.2998 46.7231 24.1257 46.8564 23.9767C46.9897 23.8277 47.1514 23.7069 47.3321 23.6214C47.5127 23.5358 47.7086 23.4872 47.9083 23.4784C48.108 23.4696 48.3075 23.5009 48.4949 23.5703C48.6824 23.6396 48.8541 23.7458 48.9999 23.8825C49.6154 24.432 50.2954 24.9046 51.0249 25.29L53.7174 21.5875C51.1674 20.7125 48.4787 21.1713 46.9137 21.4363C46.0839 21.5809 45.2302 21.4883 44.4507 21.1692C43.6712 20.8501 42.9976 20.3175 42.5074 19.6325C42.4874 19.6062 42.4687 19.5788 42.4512 19.5513L40.7287 16.8013C40.5203 16.4685 40.4507 16.0673 40.5348 15.6837C40.619 15.3002 40.8501 14.965 41.1787 14.75L53.4999 6.68875V4C53.4999 3.60218 53.658 3.22064 53.9393 2.93934C54.2206 2.65804 54.6021 2.5 54.9999 2.5H55.9999C57.789 2.49982 59.5602 2.85524 61.2107 3.54561C62.8612 4.23598 64.358 5.24752 65.6141 6.52143C66.8703 7.79535 67.8606 9.30624 68.5277 10.9663C69.1948 12.6263 69.5253 14.4024 69.4999 16.1912ZM66.4999 16.15C66.539 13.4258 65.5177 10.7931 63.6518 8.808C61.7858 6.82285 59.2213 5.64071 56.4999 5.51125V7.5C56.4991 7.74825 56.4366 7.9924 56.3181 8.21057C56.1997 8.42873 56.0289 8.61408 55.8212 8.75L44.0512 16.4513L44.9649 17.9112C45.1313 18.1291 45.3542 18.2971 45.6094 18.3972C45.8646 18.4972 46.1423 18.5254 46.4124 18.4788C48.4412 18.135 52.5874 17.4338 56.3674 19.4788C57.4925 19.3866 58.5417 18.8749 59.3072 18.0454C60.0727 17.2158 60.4984 16.1288 60.4999 15C60.4999 14.6022 60.658 14.2206 60.9393 13.9393C61.2206 13.658 61.6021 13.5 61.9999 13.5C62.3978 13.5 62.7793 13.658 63.0606 13.9393C63.3419 14.2206 63.4999 14.6022 63.4999 15C63.4974 16.8507 62.8117 18.6354 61.5743 20.0116C60.3369 21.3879 58.635 22.2588 56.7949 22.4575L53.9887 26.3162C54.7222 26.4523 55.4678 26.5131 56.2137 26.4975C58.9322 26.4334 61.5206 25.3208 63.4377 23.3923C65.3547 21.4638 66.452 18.8688 66.4999 16.15Z" fill="white"/>
</g>
<defs>
<clipPath id="clip0_27_4760">
<rect width="72" height="32" rx="5" fill="white"/>
</clipPath>
</defs>
</svg>
