<svg width="72" height="32" viewBox="0 0 72 32" fill="none" xmlns="http://www.w3.org/2000/svg">
<g clip-path="url(#clip0_27_6655)">
<path d="M31 26H30V16C30 15.4696 29.7893 14.9609 29.4142 14.5858C29.0391 14.2107 28.5304 14 28 14H21V6C21 5.46957 20.7893 4.96086 20.4142 4.58579C20.0391 4.21071 19.5304 4 19 4H7C6.46957 4 5.96086 4.21071 5.58579 4.58579C5.21071 4.96086 5 5.46957 5 6V26H4C3.73478 26 3.48043 26.1054 3.29289 26.2929C3.10536 26.4804 3 26.7348 3 27C3 27.2652 3.10536 27.5196 3.29289 27.7071C3.48043 27.8946 3.73478 28 4 28H31C31.2652 28 31.5196 27.8946 31.7071 27.7071C31.8946 27.5196 32 27.2652 32 27C32 26.7348 31.8946 26.4804 31.7071 26.2929C31.5196 26.1054 31.2652 26 31 26ZM16 26H10V20H16V26ZM16 13H14V15C14 15.2652 13.8946 15.5196 13.7071 15.7071C13.5196 15.8946 13.2652 16 13 16C12.7348 16 12.4804 15.8946 12.2929 15.7071C12.1054 15.5196 12 15.2652 12 15V13H10C9.73478 13 9.48043 12.8946 9.29289 12.7071C9.10536 12.5196 9 12.2652 9 12C9 11.7348 9.10536 11.4804 9.29289 11.2929C9.48043 11.1054 9.73478 11 10 11H12V9C12 8.73478 12.1054 8.48043 12.2929 8.29289C12.4804 8.10536 12.7348 8 13 8C13.2652 8 13.5196 8.10536 13.7071 8.29289C13.8946 8.48043 14 8.73478 14 9V11H16C16.2652 11 16.5196 11.1054 16.7071 11.2929C16.8946 11.4804 17 11.7348 17 12C17 12.2652 16.8946 12.5196 16.7071 12.7071C16.5196 12.8946 16.2652 13 16 13ZM28 26H21V16H28V26Z" fill="white"/>
<path d="M70.5 25.5H70V16C70 15.337 69.7366 14.7011 69.2678 14.2322C68.7989 13.7634 68.163 13.5 67.5 13.5H61.5V6C61.5 5.33696 61.2366 4.70107 60.7678 4.23223C60.2989 3.76339 59.663 3.5 59 3.5H47C46.337 3.5 45.7011 3.76339 45.2322 4.23223C44.7634 4.70107 44.5 5.33696 44.5 6V25.5H44C43.6022 25.5 43.2206 25.658 42.9393 25.9393C42.658 26.2206 42.5 26.6022 42.5 27C42.5 27.3978 42.658 27.7794 42.9393 28.0607C43.2206 28.342 43.6022 28.5 44 28.5H70.5C70.8978 28.5 71.2794 28.342 71.5607 28.0607C71.842 27.7794 72 27.3978 72 27C72 26.6022 71.842 26.2206 71.5607 25.9393C71.2794 25.658 70.8978 25.5 70.5 25.5ZM67 16.5V25.5H61.5V16.5H67ZM47.5 6.5H58.5V25.5H57V20C57 19.6022 56.842 19.2206 56.5607 18.9393C56.2794 18.658 55.8978 18.5 55.5 18.5H50.5C50.1022 18.5 49.7206 18.658 49.4393 18.9393C49.158 19.2206 49 19.6022 49 20V25.5H47.5V6.5ZM54 25.5H52V21.5H54V25.5ZM49 12C49 11.6022 49.158 11.2206 49.4393 10.9393C49.7206 10.658 50.1022 10.5 50.5 10.5H51.5V9.5C51.5 9.10218 51.658 8.72064 51.9393 8.43934C52.2206 8.15804 52.6022 8 53 8C53.3978 8 53.7794 8.15804 54.0607 8.43934C54.342 8.72064 54.5 9.10218 54.5 9.5V10.5H55.5C55.8978 10.5 56.2794 10.658 56.5607 10.9393C56.842 11.2206 57 11.6022 57 12C57 12.3978 56.842 12.7794 56.5607 13.0607C56.2794 13.342 55.8978 13.5 55.5 13.5H54.5V14.5C54.5 14.8978 54.342 15.2794 54.0607 15.5607C53.7794 15.842 53.3978 16 53 16C52.6022 16 52.2206 15.842 51.9393 15.5607C51.658 15.2794 51.5 14.8978 51.5 14.5V13.5H50.5C50.1022 13.5 49.7206 13.342 49.4393 13.0607C49.158 12.7794 49 12.3978 49 12Z" fill="white"/>
</g>
<defs>
<clipPath id="clip0_27_6655">
<rect width="72" height="32" rx="5" fill="white"/>
</clipPath>
</defs>
</svg>
