<svg width="72" height="32" viewBox="0 0 72 32" fill="none" xmlns="http://www.w3.org/2000/svg">
<g clip-path="url(#clip0_27_4278)">
<path d="M25 9.455V5C25 4.46957 24.7893 3.96086 24.4142 3.58579C24.0391 3.21071 23.5304 3 23 3H9C8.46957 3 7.96086 3.21071 7.58579 3.58579C7.21071 3.96086 7 4.46957 7 5V9.5C7.00068 9.81037 7.07326 10.1164 7.21206 10.394C7.35087 10.6716 7.55211 10.9132 7.8 11.1L14.3337 16L7.8 20.9C7.55211 21.0868 7.35087 21.3284 7.21206 21.606C7.07326 21.8836 7.00068 22.1896 7 22.5V27C7 27.5304 7.21071 28.0391 7.58579 28.4142C7.96086 28.7893 8.46957 29 9 29H23C23.5304 29 24.0391 28.7893 24.4142 28.4142C24.7893 28.0391 25 27.5304 25 27V22.545C24.9993 22.2358 24.9273 21.931 24.7896 21.6541C24.652 21.3773 24.4523 21.1359 24.2062 20.9487L17.6588 16L24.2062 11.0513C24.4523 10.8641 24.652 10.6227 24.7896 10.3459C24.9273 10.069 24.9993 9.76418 25 9.455ZM23 5V8H9V5H23ZM23 27H9V22.5L16 17.25L23 22.5438V27Z" fill="white"/>
<path d="M63 2.5H49C48.337 2.5 47.7011 2.76339 47.2322 3.23223C46.7634 3.70107 46.5 4.33696 46.5 5V9.5C46.501 9.88794 46.5918 10.2704 46.7652 10.6174C46.9387 10.9644 47.1902 11.2665 47.5 11.5L53.5 16L47.5 20.5C47.1902 20.7335 46.9387 21.0356 46.7652 21.3826C46.5918 21.7296 46.501 22.1121 46.5 22.5V27C46.5 27.663 46.7634 28.2989 47.2322 28.7678C47.7011 29.2366 48.337 29.5 49 29.5H63C63.663 29.5 64.2989 29.2366 64.7678 28.7678C65.2366 28.2989 65.5 27.663 65.5 27V22.545C65.4996 22.1577 65.4099 21.7758 65.2377 21.4289C65.0656 21.082 64.8157 20.7795 64.5075 20.545L58.4875 16L64.5075 11.45C64.8157 11.2155 65.0656 10.913 65.2377 10.5661C65.4099 10.2192 65.4996 9.83726 65.5 9.45V5C65.5 4.33696 65.2366 3.70107 64.7678 3.23223C64.2989 2.76339 63.663 2.5 63 2.5ZM62.5 5.5V7.5H49.5V5.5H62.5ZM56 14.125L51.1663 10.5H60.7913L56 14.125ZM62.5 26.5H49.5V22.75L56 17.875L62.5 22.7913V26.5Z" fill="white"/>
</g>
<defs>
<clipPath id="clip0_27_4278">
<rect width="72" height="32" rx="5" fill="white"/>
</clipPath>
</defs>
</svg>
