<svg width="72" height="32" viewBox="0 0 72 32" fill="none" xmlns="http://www.w3.org/2000/svg">
<g clip-path="url(#clip0_27_4303)">
<path d="M26.3976 24.57L17.4463 16L26.3976 7.43C26.4026 7.42427 26.4081 7.41885 26.4138 7.41375C26.6933 7.13405 26.8837 6.77777 26.9607 6.38993C27.0378 6.00209 26.9982 5.6001 26.8469 5.23476C26.6956 4.86942 26.4394 4.55713 26.1107 4.33736C25.782 4.11758 25.3955 4.00018 25.0001 4H7.00005C6.60462 4.00018 6.21812 4.11758 5.8894 4.33736C5.56067 4.55713 5.30447 4.86942 5.15317 5.23476C5.00187 5.6001 4.96226 6.00209 5.03936 6.38993C5.11645 6.77777 5.30678 7.13405 5.5863 7.41375C5.59203 7.41885 5.59745 7.42427 5.60255 7.43L14.5538 16L5.60255 24.57C5.59745 24.5757 5.59203 24.5812 5.5863 24.5863C5.30678 24.866 5.11645 25.2222 5.03936 25.6101C4.96226 25.9979 5.00187 26.3999 5.15317 26.7652C5.30447 27.1306 5.56067 27.4429 5.8894 27.6626C6.21812 27.8824 6.60462 27.9998 7.00005 28H25.0001C25.3956 28.0001 25.7823 27.8828 26.1112 27.6632C26.4401 27.4435 26.6965 27.1312 26.8479 26.7658C26.9994 26.4004 27.0391 25.9983 26.9621 25.6104C26.885 25.2224 26.6946 24.866 26.4151 24.5863C26.4089 24.5812 26.4031 24.5758 26.3976 24.57ZM19.7763 21H12.2238L16.0001 17.385L19.7763 21ZM25.0001 6L16.0001 14.615L7.00005 6H25.0001Z" fill="white"/>
<path d="M66.7502 24.21L58.1689 16L66.7502 7.79L66.7727 7.7675C67.1225 7.41757 67.3606 6.9717 67.4569 6.48636C67.5531 6.00101 67.5032 5.49801 67.3134 5.04106C67.1236 4.5841 66.8025 4.19374 66.3907 3.91941C65.9789 3.64508 65.495 3.49912 65.0002 3.5H47.0002C46.5059 3.50036 46.0228 3.64721 45.612 3.92202C45.2012 4.19683 44.881 4.58725 44.692 5.04394C44.503 5.50064 44.4536 6.00312 44.55 6.48789C44.6465 6.97266 44.8845 7.41795 45.2339 7.7675L45.2564 7.79L53.8314 16L45.2564 24.21L45.2339 24.2325C44.8845 24.5821 44.6465 25.0274 44.55 25.5121C44.4536 25.9969 44.503 26.4994 44.692 26.9561C44.881 27.4128 45.2012 27.8032 45.612 28.078C46.0228 28.3528 46.5059 28.4997 47.0002 28.5H65.0002C65.4945 28.4999 65.9778 28.3532 66.3888 28.0785C66.7998 27.8038 67.1202 27.4134 67.3094 26.9566C67.4985 26.4999 67.548 25.9973 67.4516 25.5124C67.3552 25.0275 67.1172 24.5821 66.7677 24.2325L66.7502 24.21ZM58.5314 20.5H53.4689L56.0002 18.0763L58.5314 20.5ZM63.7502 6.5L56.0002 13.9238L48.2502 6.5H63.7502ZM48.2502 25.5L50.3389 23.5H61.6664L63.7502 25.5H48.2502Z" fill="white"/>
</g>
<defs>
<clipPath id="clip0_27_4303">
<rect width="72" height="32" rx="5" fill="white"/>
</clipPath>
</defs>
</svg>
