<svg width="72" height="32" viewBox="0 0 72 32" fill="none" xmlns="http://www.w3.org/2000/svg">
<g clip-path="url(#clip0_27_4293)">
<path d="M26.4141 24.5863C26.6936 24.866 26.8839 25.2222 26.961 25.6101C27.0381 25.9979 26.9985 26.3999 26.8472 26.7652C26.6959 27.1306 26.4397 27.4429 26.111 27.6626C25.7823 27.8824 25.3958 27.9998 25.0003 28H7.00032C6.60479 28.0001 6.21812 27.8828 5.8892 27.6632C5.56028 27.4435 5.30388 27.1312 5.15243 26.7658C5.00098 26.4004 4.96126 25.9983 5.03832 25.6104C5.11537 25.2224 5.30573 24.866 5.58532 24.5863C5.59105 24.5812 5.59648 24.5757 5.60157 24.57L14.5541 16L5.60282 7.43C5.59773 7.42427 5.5923 7.41885 5.58657 7.41375C5.30706 7.13405 5.11672 6.77777 5.03963 6.38993C4.96254 6.00209 5.00214 5.6001 5.15344 5.23476C5.30474 4.86942 5.56094 4.55713 5.88967 4.33736C6.2184 4.11758 6.6049 4.00018 7.00032 4H25.0003C25.3959 3.99994 25.7825 4.11715 26.1115 4.33683C26.4404 4.55652 26.6968 4.86879 26.8482 5.23418C26.9997 5.59957 27.0394 6.00166 26.9623 6.38962C26.8853 6.77758 26.6949 7.13397 26.4153 7.41375C26.4096 7.41885 26.4042 7.42427 26.3991 7.43L17.4466 16L26.3978 24.57C26.4029 24.5757 26.4083 24.5812 26.4141 24.5863Z" fill="white"/>
<path d="M66.7502 24.21L58.1689 16L66.7502 7.79L66.7727 7.7675C67.1225 7.41757 67.3606 6.9717 67.4569 6.48636C67.5531 6.00101 67.5032 5.49801 67.3134 5.04106C67.1236 4.5841 66.8025 4.19374 66.3907 3.91941C65.9789 3.64508 65.495 3.49912 65.0002 3.5H47.0002C46.5059 3.50036 46.0228 3.64721 45.612 3.92202C45.2012 4.19683 44.881 4.58725 44.692 5.04394C44.503 5.50064 44.4536 6.00312 44.55 6.48789C44.6465 6.97266 44.8845 7.41795 45.2339 7.7675L45.2564 7.79L53.8314 16L45.2564 24.21L45.2339 24.2325C44.8845 24.5821 44.6465 25.0274 44.55 25.5121C44.4536 25.9969 44.503 26.4994 44.692 26.9561C44.881 27.4128 45.2012 27.8032 45.612 28.078C46.0228 28.3528 46.5059 28.4997 47.0002 28.5H65.0002C65.4945 28.4999 65.9778 28.3532 66.3888 28.0785C66.7998 27.8038 67.1202 27.4134 67.3094 26.9566C67.4985 26.4999 67.548 25.9973 67.4516 25.5124C67.3552 25.0275 67.1172 24.5821 66.7677 24.2325L66.7502 24.21ZM63.7502 6.5L56.0002 13.9238L48.2502 6.5H63.7502ZM48.2502 25.5L56.0002 18.0763L63.7502 25.5H48.2502Z" fill="white"/>
</g>
<defs>
<clipPath id="clip0_27_4293">
<rect width="72" height="32" rx="5" fill="white"/>
</clipPath>
</defs>
</svg>
