<svg width="72" height="32" viewBox="0 0 72 32" fill="none" xmlns="http://www.w3.org/2000/svg">
<g clip-path="url(#clip0_27_6665)">
<path d="M30 26H28V17L28.2925 17.2925C28.4805 17.4801 28.7353 17.5854 29.0009 17.5852C29.2665 17.5849 29.5211 17.4792 29.7087 17.2912C29.8964 17.1033 30.0017 16.8485 30.0014 16.5829C30.0012 16.3173 29.8955 16.0626 29.7075 15.875L17.4137 3.58499C17.0387 3.2102 16.5302 2.99966 16 2.99966C15.4698 2.99966 14.9613 3.2102 14.5863 3.58499L2.2925 15.875C2.10503 16.0626 1.99977 16.3171 1.99989 16.5823C2 16.8476 2.10548 17.1019 2.29312 17.2894C2.48077 17.4768 2.7352 17.5821 3.00044 17.582C3.26569 17.5819 3.52003 17.4764 3.7075 17.2887L4 17V26H2C1.73478 26 1.48043 26.1053 1.29289 26.2929C1.10536 26.4804 1 26.7348 1 27C1 27.2652 1.10536 27.5196 1.29289 27.7071C1.48043 27.8946 1.73478 28 2 28H30C30.2652 28 30.5196 27.8946 30.7071 27.7071C30.8946 27.5196 31 27.2652 31 27C31 26.7348 30.8946 26.4804 30.7071 26.2929C30.5196 26.1053 30.2652 26 30 26ZM19 26H13V20C13 19.8674 13.0527 19.7402 13.1464 19.6464C13.2402 19.5527 13.3674 19.5 13.5 19.5H18.5C18.6326 19.5 18.7598 19.5527 18.8536 19.6464C18.9473 19.7402 19 19.8674 19 20V26Z" fill="white"/>
<path d="M70 25.5H68.5V18C68.8204 18.1126 69.1695 18.1131 69.4902 18.0015C69.8109 17.8899 70.0843 17.6728 70.2656 17.3857C70.4469 17.0986 70.5254 16.7584 70.4883 16.4209C70.4512 16.0833 70.3006 15.7684 70.0613 15.5275L57.7675 3.23126C57.2987 2.76259 56.6629 2.4993 56 2.4993C55.3371 2.4993 54.7013 2.76259 54.2325 3.23126L41.9388 15.525C41.6979 15.7656 41.5461 16.0809 41.5082 16.4192C41.4703 16.7575 41.5486 17.0986 41.7302 17.3865C41.9118 17.6744 42.186 17.892 42.5076 18.0034C42.8292 18.1149 43.1792 18.1137 43.5 18V25.5H42C41.6022 25.5 41.2206 25.658 40.9393 25.9394C40.658 26.2207 40.5 26.6022 40.5 27C40.5 27.3978 40.658 27.7794 40.9393 28.0607C41.2206 28.342 41.6022 28.5 42 28.5H70C70.3978 28.5 70.7794 28.342 71.0607 28.0607C71.342 27.7794 71.5 27.3978 71.5 27C71.5 26.6022 71.342 26.2207 71.0607 25.9394C70.7794 25.658 70.3978 25.5 70 25.5ZM46.5 15.2063L56 5.70626L65.5 15.2063V25.5H60.5V19C60.5 18.6022 60.342 18.2207 60.0607 17.9394C59.7794 17.6581 59.3978 17.5 59 17.5H53C52.6022 17.5 52.2206 17.6581 51.9393 17.9394C51.658 18.2207 51.5 18.6022 51.5 19V25.5H46.5V15.2063ZM57.5 25.5H54.5V20.5H57.5V25.5Z" fill="white"/>
</g>
<defs>
<clipPath id="clip0_27_6665">
<rect width="72" height="32" rx="5" fill="white"/>
</clipPath>
</defs>
</svg>
