<svg width="72" height="32" viewBox="0 0 72 32" fill="none" xmlns="http://www.w3.org/2000/svg">
<g clip-path="url(#clip0_27_6670)">
<path d="M28 15V27C28 27.2652 27.8947 27.5196 27.7071 27.7071C27.5196 27.8946 27.2652 28 27 28H5.00001C4.7348 28 4.48044 27.8946 4.29291 27.7071C4.10537 27.5196 4.00001 27.2652 4.00001 27V15C3.99908 14.737 4.05042 14.4765 4.15107 14.2336C4.25171 13.9907 4.39964 13.7702 4.58626 13.585L14.5863 3.58499C14.9613 3.2102 15.4698 2.99966 16 2.99966C16.5302 2.99966 17.0387 3.2102 17.4138 3.58499L27.4138 13.585C27.6004 13.7702 27.7483 13.9907 27.849 14.2336C27.9496 14.4765 28.0009 14.737 28 15Z" fill="white"/>
<path d="M67.7675 13.2313L57.7675 3.23126C57.2987 2.76259 56.6629 2.4993 56 2.4993C55.3371 2.4993 54.7013 2.76259 54.2325 3.23126L44.2325 13.2313C43.9994 13.4629 43.8146 13.7386 43.6889 14.0422C43.5632 14.3458 43.499 14.6714 43.5 15V27C43.5 27.3978 43.658 27.7794 43.9394 28.0607C44.2207 28.342 44.6022 28.5 45 28.5H67C67.3978 28.5 67.7794 28.342 68.0607 28.0607C68.342 27.7794 68.5 27.3978 68.5 27V15C68.5011 14.6714 68.4369 14.3458 68.3111 14.0422C68.1854 13.7386 68.0006 13.4629 67.7675 13.2313ZM65.5 25.5H46.5V15.2063L56 5.70626L65.5 15.2063V25.5Z" fill="white"/>
</g>
<defs>
<clipPath id="clip0_27_6670">
<rect width="72" height="32" rx="5" fill="white"/>
</clipPath>
</defs>
</svg>
