<svg width="72" height="32" viewBox="0 0 72 32" fill="none" xmlns="http://www.w3.org/2000/svg">
<g clip-path="url(#clip0_27_6660)">
<path d="M28 15V27C28 27.2652 27.8946 27.5196 27.7071 27.7071C27.5196 27.8946 27.2652 28 27 28H20C19.7348 28 19.4804 27.8946 19.2929 27.7071C19.1054 27.5196 19 27.2652 19 27V20.5C19 20.3674 18.9473 20.2402 18.8536 20.1464C18.7598 20.0527 18.6326 20 18.5 20H13.5C13.3674 20 13.2402 20.0527 13.1464 20.1464C13.0527 20.2402 13 20.3674 13 20.5V27C13 27.2652 12.8946 27.5196 12.7071 27.7071C12.5196 27.8946 12.2652 28 12 28H5C4.73478 28 4.48043 27.8946 4.29289 27.7071C4.10536 27.5196 4 27.2652 4 27V15C4.00025 14.4696 4.21112 13.9611 4.58625 13.5862L14.5863 3.58624C14.9613 3.21145 15.4698 3.00092 16 3.00092C16.5302 3.00092 17.0387 3.21145 17.4137 3.58624L27.4137 13.5862C27.7889 13.9611 27.9998 14.4696 28 15Z" fill="white"/>
<path d="M67.7675 13.2313L57.7675 3.23126C57.2987 2.76259 56.6629 2.4993 56 2.4993C55.3371 2.4993 54.7013 2.76259 54.2325 3.23126L44.2325 13.2313C43.9994 13.4629 43.8146 13.7386 43.6889 14.0422C43.5632 14.3458 43.499 14.6714 43.5 15V27C43.5 27.3978 43.658 27.7794 43.9394 28.0607C44.2207 28.342 44.6022 28.5 45 28.5H53C53.3978 28.5 53.7794 28.342 54.0607 28.0607C54.342 27.7794 54.5 27.3978 54.5 27V20.5H57.5V27C57.5 27.3978 57.658 27.7794 57.9394 28.0607C58.2207 28.342 58.6022 28.5 59 28.5H67C67.3978 28.5 67.7794 28.342 68.0607 28.0607C68.342 27.7794 68.5 27.3978 68.5 27V15C68.5011 14.6714 68.4369 14.3458 68.3111 14.0422C68.1854 13.7386 68.0006 13.4629 67.7675 13.2313ZM65.5 25.5H60.5V19C60.5 18.6022 60.342 18.2207 60.0607 17.9394C59.7794 17.6581 59.3978 17.5 59 17.5H53C52.6022 17.5 52.2207 17.6581 51.9394 17.9394C51.658 18.2207 51.5 18.6022 51.5 19V25.5H46.5V15.2063L56 5.70626L65.5 15.2063V25.5Z" fill="white"/>
</g>
<defs>
<clipPath id="clip0_27_6660">
<rect width="72" height="32" rx="5" fill="white"/>
</clipPath>
</defs>
</svg>
