<svg width="72" height="32" viewBox="0 0 72 32" fill="none" xmlns="http://www.w3.org/2000/svg">
<g clip-path="url(#clip0_27_2189)">
<path d="M19.79 5.66999L20.9662 1.25749C21.0103 1.09212 21.0111 0.918207 20.9687 0.752407C20.9263 0.586607 20.8421 0.434465 20.724 0.31054C20.606 0.186616 20.4581 0.0950557 20.2946 0.0446223C20.1311 -0.00581123 19.9573 -0.0134305 19.79 0.0224936C17.1913 0.66027 14.7147 1.71973 12.4587 3.15874C7.57875 6.29624 5 10.7362 5 16C5.00124 18.2525 5.69311 20.4505 6.98232 22.2976C8.27153 24.1447 10.0961 25.5521 12.21 26.33L11.0337 30.7425C10.9897 30.9079 10.9889 31.0818 11.0313 31.2476C11.0737 31.4134 11.1579 31.5655 11.276 31.6894C11.394 31.8134 11.5419 31.9049 11.7054 31.9554C11.8689 32.0058 12.0427 32.0134 12.21 31.9775C14.8087 31.3397 17.2853 30.2803 19.5413 28.8412C24.4212 25.7037 27 21.2637 27 16C26.9989 13.7474 26.3071 11.5494 25.0179 9.70226C23.7287 7.85513 21.904 6.44778 19.79 5.66999ZM16 19C15.4067 19 14.8266 18.824 14.3333 18.4944C13.8399 18.1648 13.4554 17.6962 13.2284 17.148C13.0013 16.5999 12.9419 15.9967 13.0576 15.4147C13.1734 14.8328 13.4591 14.2982 13.8787 13.8787C14.2982 13.4591 14.8328 13.1734 15.4147 13.0576C15.9967 12.9419 16.5999 13.0013 17.1481 13.2284C17.6962 13.4554 18.1648 13.8399 18.4944 14.3333C18.8241 14.8266 19 15.4066 19 16C19 16.7956 18.6839 17.5587 18.1213 18.1213C17.5587 18.6839 16.7956 19 16 19Z" fill="white"/>
<path d="M56 11.5C55.11 11.5 54.24 11.7639 53.4999 12.2584C52.7599 12.7529 52.1831 13.4557 51.8425 14.2779C51.5019 15.1002 51.4128 16.005 51.5865 16.8779C51.7601 17.7508 52.1887 18.5526 52.818 19.182C53.4474 19.8113 54.2492 20.2399 55.1221 20.4135C55.995 20.5872 56.8998 20.4981 57.7221 20.1575C58.5443 19.8169 59.2471 19.2401 59.7416 18.5001C60.2361 17.76 60.5 16.89 60.5 16C60.5 14.8065 60.0259 13.6619 59.182 12.818C58.3381 11.9741 57.1935 11.5 56 11.5ZM56 17.5C55.7033 17.5 55.4133 17.412 55.1666 17.2472C54.92 17.0824 54.7277 16.8481 54.6142 16.574C54.5006 16.2999 54.4709 15.9983 54.5288 15.7074C54.5867 15.4164 54.7296 15.1491 54.9393 14.9393C55.1491 14.7296 55.4164 14.5867 55.7074 14.5288C55.9983 14.4709 56.2999 14.5006 56.574 14.6142C56.8481 14.7277 57.0824 14.92 57.2472 15.1666C57.412 15.4133 57.5 15.7033 57.5 16C57.5 16.3978 57.342 16.7794 57.0607 17.0607C56.7794 17.342 56.3978 17.5 56 17.5ZM60.4212 5.375L61.4387 1.91875C61.5098 1.67389 61.5173 1.41496 61.4605 1.16641C61.4036 0.917857 61.2844 0.687893 61.114 0.498231C60.9436 0.30857 60.7277 0.165472 60.4866 0.0824513C60.2455 -0.000569634 59.9873 -0.0207732 59.7362 0.0237486C57.0844 0.57832 54.5442 1.57335 52.2212 2.9675C47.17 6.035 44.5 10.5412 44.5 16C44.5007 18.2717 45.1731 20.4924 46.4327 22.3829C47.6922 24.2735 49.4826 25.7494 51.5787 26.625L50.5612 30.0812C50.4963 30.3046 50.4842 30.54 50.5259 30.7689C50.5676 30.9977 50.662 31.2138 50.8015 31.3999C50.9411 31.586 51.122 31.7371 51.33 31.8412C51.538 31.9454 51.7674 31.9997 52 32C52.0885 32.0002 52.1767 31.9922 52.2638 31.9762C54.9156 31.4217 57.4558 30.4266 59.7787 29.0325C64.83 25.965 67.5 21.4587 67.5 16C67.4993 13.7283 66.8269 11.5076 65.5673 9.61705C64.3078 7.72652 62.5174 6.25064 60.4212 5.375ZM58.2962 26.4187C57.0044 27.2 55.6323 27.8404 54.2037 28.3287L54.8638 26.0787C54.9206 25.8865 54.9384 25.6849 54.916 25.4857C54.8936 25.2865 54.8315 25.0938 54.7334 24.919C54.6353 24.7442 54.5031 24.5909 54.3447 24.468C54.1863 24.3452 54.0049 24.2553 53.8112 24.2037C52.0029 23.7218 50.4041 22.6566 49.263 21.1733C48.1218 19.6899 47.5021 17.8715 47.5 16C47.5 11.61 49.5875 8.1025 53.7063 5.57625C54.9981 4.7946 56.3701 4.15385 57.7987 3.665L57.1388 5.915C57.0819 6.10721 57.0641 6.30887 57.0865 6.50806C57.1089 6.70725 57.171 6.89993 57.2691 7.07472C57.3672 7.24951 57.4994 7.40286 57.6578 7.52571C57.8162 7.64857 57.9976 7.73843 58.1912 7.79C60.0002 8.27265 61.5992 9.33903 62.7399 10.8236C63.8807 12.3081 64.4994 14.1278 64.5 16C64.5 20.39 62.4125 23.8962 58.2938 26.4237L58.2962 26.4187Z" fill="white"/>
</g>
<defs>
<clipPath id="clip0_27_2189">
<rect width="72" height="32" rx="5" fill="white"/>
</clipPath>
</defs>
</svg>
