<svg width="72" height="32" viewBox="0 0 72 32" fill="none" xmlns="http://www.w3.org/2000/svg">
<g clip-path="url(#clip0_27_1267)">
<path d="M25.9999 12.1713V12C25.9999 9.34784 24.9464 6.8043 23.071 4.92893C21.1956 3.05357 18.6521 2 15.9999 2C13.3478 2 10.8042 3.05357 8.92888 4.92893C7.05351 6.8043 5.99994 9.34784 5.99994 12V12.1713C5.3325 12.407 4.76991 12.8711 4.41165 13.4816C4.05339 14.0921 3.92254 14.8096 4.04223 15.5073C4.16192 16.2049 4.52445 16.8378 5.06571 17.294C5.60697 17.7501 6.29209 18.0002 6.99994 18H7.41119L14.2637 29.9925C14.4387 30.2985 14.6914 30.5529 14.9963 30.7297C15.3012 30.9066 15.6474 30.9998 15.9999 30.9998C16.3524 30.9998 16.6987 30.9066 17.0036 30.7297C17.3085 30.5529 17.5612 30.2985 17.7362 29.9925L24.5887 18H24.9999C25.7078 18.0002 26.3929 17.7501 26.9342 17.294C27.4754 16.8378 27.838 16.2049 27.9577 15.5073C28.0774 14.8096 27.9465 14.0921 27.5882 13.4816C27.23 12.8711 26.6674 12.407 25.9999 12.1713ZM18.3612 24.8675L14.4374 18H16.8487L19.5674 22.7575L18.3612 24.8675ZM9.71369 18H12.1337L17.2099 26.8825L15.9999 29L9.71369 18ZM20.7137 20.7425L19.1512 18H22.2862L20.7137 20.7425Z" fill="white"/>
<path d="M68.5001 14.5C68.4982 13.7893 68.3078 13.0918 67.9483 12.4786C67.5889 11.8655 67.0732 11.3587 66.4539 11.01C66.2088 8.40718 65.0015 5.9894 63.0681 4.22957C61.1348 2.46974 58.6145 1.49445 56.0001 1.49445C53.3858 1.49445 50.8654 2.46974 48.9321 4.22957C46.9988 5.9894 45.7915 8.40718 45.5464 11.01C44.8032 11.426 44.2123 12.0684 43.8595 12.8435C43.5068 13.6187 43.4106 14.4862 43.5851 15.3198C43.7596 16.1534 44.1955 16.9095 44.8295 17.4781C45.4636 18.0468 46.2625 18.3982 47.1101 18.4813L53.8289 30.24C54.0474 30.623 54.3634 30.9413 54.7447 31.1627C55.1261 31.3842 55.5592 31.5008 56.0001 31.5008C56.4411 31.5008 56.8742 31.3842 57.2555 31.1627C57.6368 30.9413 57.9528 30.623 58.1714 30.24L64.8901 18.4813C65.8788 18.3844 66.796 17.9231 67.4633 17.1872C68.1306 16.4513 68.5002 15.4934 68.5001 14.5ZM47.2989 13.52C47.6379 13.4511 47.9427 13.2671 48.1616 12.9992C48.3805 12.7313 48.5001 12.396 48.5001 12.05V12C48.5001 10.0109 49.2903 8.10323 50.6968 6.69671C52.1033 5.29019 54.011 4.50001 56.0001 4.50001C57.9892 4.50001 59.8969 5.29019 61.3034 6.69671C62.7099 8.10323 63.5001 10.0109 63.5001 12V12.05C63.5001 12.396 63.6197 12.7313 63.8386 12.9992C64.0575 13.2671 64.3623 13.4511 64.7014 13.52C64.9445 13.5694 65.1606 13.7074 65.3077 13.9072C65.4548 14.107 65.5223 14.3543 65.4973 14.6011C65.4722 14.848 65.3562 15.0767 65.1719 15.2428C64.9877 15.4089 64.7482 15.5006 64.5001 15.5H47.5001C47.252 15.5006 47.0126 15.4089 46.8283 15.2428C46.644 15.0767 46.5281 14.848 46.503 14.6011C46.4779 14.3543 46.5454 14.107 46.6925 13.9072C46.8396 13.7074 47.0557 13.5694 47.2989 13.52ZM61.4239 18.5L59.3614 22.11L57.2989 18.5H61.4239ZM50.5764 18.5H53.8439L57.6339 25.1325L56.0001 27.9925L50.5764 18.5Z" fill="white"/>
</g>
<defs>
<clipPath id="clip0_27_1267">
<rect width="72" height="32" rx="5" fill="white"/>
</clipPath>
</defs>
</svg>
