<svg width="72" height="32" viewBox="0 0 72 32" fill="none" xmlns="http://www.w3.org/2000/svg">
<g clip-path="url(#clip0_27_3809)">
<path d="M27 5H5C4.46957 5 3.96086 5.21071 3.58579 5.58579C3.21071 5.96086 3 6.46957 3 7V25C3 25.5304 3.21071 26.0391 3.58579 26.4142C3.96086 26.7893 4.46957 27 5 27H13C13.2099 27 13.4145 26.934 13.5847 26.8113C13.755 26.6886 13.8824 26.5154 13.9487 26.3162L15.8025 20.7563L20.375 18.9287C20.5006 18.878 20.6147 18.8025 20.7105 18.7067C20.8063 18.6109 20.8818 18.4968 20.9325 18.3713L22.76 13.8025L28.32 11.9487C28.5184 11.8817 28.6908 11.7541 28.8128 11.5839C28.9348 11.4137 29.0003 11.2094 29 11V7C29 6.46957 28.7893 5.96086 28.4142 5.58579C28.0391 5.21071 27.5304 5 27 5ZM14.625 19.0713C14.49 19.1252 14.3684 19.208 14.2687 19.3138C14.1689 19.4196 14.0934 19.5458 14.0475 19.6838L12.2788 25H5V20.0863L10.7925 14.2925C10.8854 14.1995 10.9957 14.1258 11.1171 14.0754C11.2385 14.0251 11.3686 13.9992 11.5 13.9992C11.6314 13.9992 11.7615 14.0251 11.8829 14.0754C12.0043 14.1258 12.1146 14.1995 12.2075 14.2925L16.3125 18.3975L14.625 19.0713ZM29 15.2163V25C29 25.5304 28.7893 26.0391 28.4142 26.4142C28.0391 26.7893 27.5304 27 27 27H17.2162C17.0578 27 16.9016 26.9624 16.7605 26.8902C16.6195 26.818 16.4976 26.7133 16.4049 26.5847C16.3123 26.4562 16.2515 26.3075 16.2276 26.1508C16.2037 25.9942 16.2174 25.8341 16.2675 25.6838L17.26 22.7087C17.3058 22.5709 17.3811 22.4448 17.4806 22.339C17.5801 22.2332 17.7015 22.1504 17.8363 22.0963L22.3075 20.3075L24.0963 15.8363C24.1504 15.7015 24.2332 15.5801 24.339 15.4806C24.4448 15.3811 24.5709 15.3058 24.7087 15.26L27.6838 14.2675C27.8341 14.2174 27.9942 14.2037 28.1508 14.2276C28.3075 14.2515 28.4562 14.3123 28.5847 14.4049C28.7133 14.4976 28.818 14.6195 28.8902 14.7605C28.9624 14.9016 29 15.0578 29 15.2163Z" fill="white"/>
<path d="M68.875 14C68.6822 13.861 68.4592 13.7699 68.2242 13.734C67.9893 13.6982 67.7492 13.7186 67.5238 13.7937L64.5475 14.785C64.3408 14.8541 64.1517 14.9674 63.9932 15.117C63.8348 15.2666 63.7108 15.4489 63.63 15.6512L61.9212 19.9237L57.6488 21.6325C57.4464 21.7133 57.2641 21.8373 57.1145 21.9957C56.9649 22.1542 56.8516 22.3433 56.7825 22.55L55.7913 25.5263C55.7162 25.7519 55.6958 25.9921 55.7318 26.2271C55.7678 26.4622 55.8591 26.6853 55.9983 26.878C56.1375 27.0708 56.3205 27.2278 56.5323 27.3359C56.744 27.444 56.9785 27.5003 57.2162 27.5H67C67.663 27.5 68.2989 27.2366 68.7678 26.7678C69.2366 26.2989 69.5 25.663 69.5 25V15.2163C69.4997 14.9785 69.4428 14.7442 69.3342 14.5328C69.2255 14.3213 69.0681 14.1387 68.875 14ZM66.5 24.5H59.2975L59.4112 24.1588L63.635 22.47C63.8234 22.3946 63.9946 22.2817 64.1381 22.1381C64.2817 21.9946 64.3946 21.8234 64.47 21.635L66.1588 17.4112L66.5 17.2975V24.5ZM67 4.5H45C44.337 4.5 43.7011 4.76339 43.2322 5.23223C42.7634 5.70107 42.5 6.33696 42.5 7V25C42.5 25.663 42.7634 26.2989 43.2322 26.7678C43.7011 27.2366 44.337 27.5 45 27.5H51.9462C52.2621 27.5012 52.5703 27.4026 52.8269 27.2183C53.0834 27.034 53.2752 26.7735 53.375 26.4737L55.4012 20.375L59.7875 18.625C59.9766 18.5496 60.1484 18.4364 60.2924 18.2924C60.4364 18.1484 60.5496 17.9766 60.625 17.7875L62.375 13.4012L68.4737 11.375C68.7735 11.2752 69.034 11.0834 69.2183 10.8269C69.4026 10.5703 69.5012 10.2621 69.5 9.94625V7C69.5 6.33696 69.2366 5.70107 68.7678 5.23223C68.2989 4.76339 67.663 4.5 67 4.5ZM52.775 18.77L50.865 24.5H45.5V21.7075L51.5 15.7075L53.6425 17.85C53.4396 17.9309 53.2569 18.0552 53.1071 18.2141C52.9572 18.373 52.8439 18.5627 52.775 18.77ZM66.5 8.865L60.77 10.775C60.5631 10.8439 60.3737 10.9571 60.215 11.1067C60.0564 11.2563 59.9322 11.4388 59.8512 11.6412L58.0763 16.0763L56.6737 16.6375L53.2675 13.2325C52.7987 12.7638 52.1629 12.5005 51.5 12.5005C50.8371 12.5005 50.2013 12.7638 49.7325 13.2325L45.5 17.465V7.5H66.5V8.865Z" fill="white"/>
</g>
<defs>
<clipPath id="clip0_27_3809">
<rect width="72" height="32" rx="5" fill="white"/>
</clipPath>
</defs>
</svg>
