<svg width="72" height="32" viewBox="0 0 72 32" fill="none" xmlns="http://www.w3.org/2000/svg">
<g clip-path="url(#clip0_27_3824)">
<path d="M26 4H10C9.46957 4 8.96086 4.21071 8.58579 4.58579C8.21071 4.96086 8 5.46957 8 6V8H6C5.46957 8 4.96086 8.21071 4.58579 8.58579C4.21071 8.96086 4 9.46957 4 10V26C4 26.5304 4.21071 27.0391 4.58579 27.4142C4.96086 27.7893 5.46957 28 6 28H22C22.5304 28 23.0391 27.7893 23.4142 27.4142C23.7893 27.0391 24 26.5304 24 26V24H26C26.5304 24 27.0391 23.7893 27.4142 23.4142C27.7893 23.0391 28 22.5304 28 22V6C28 5.46957 27.7893 4.96086 27.4142 4.58579C27.0391 4.21071 26.5304 4 26 4ZM10 6H26V14.6725L23.9125 12.585C23.5375 12.2102 23.029 11.9997 22.4988 11.9997C21.9685 11.9997 21.46 12.2102 21.085 12.585L11.6713 22H10V6ZM22 26H6V10H8V22C8 22.5304 8.21071 23.0391 8.58579 23.4142C8.96086 23.7893 9.46957 24 10 24H22V26ZM13 11C13 10.6044 13.1173 10.2178 13.3371 9.88886C13.5568 9.55996 13.8692 9.30362 14.2346 9.15224C14.6001 9.00087 15.0022 8.96126 15.3902 9.03843C15.7781 9.1156 16.1345 9.30608 16.4142 9.58579C16.6939 9.86549 16.8844 10.2219 16.9616 10.6098C17.0387 10.9978 16.9991 11.3999 16.8478 11.7654C16.6964 12.1308 16.44 12.4432 16.1111 12.6629C15.7822 12.8827 15.3956 13 15 13C14.4696 13 13.9609 12.7893 13.5858 12.4142C13.2107 12.0391 13 11.5304 13 11Z" fill="white"/>
<path d="M66 3.5H51C50.337 3.5 49.7011 3.76339 49.2322 4.23223C48.7634 4.70107 48.5 5.33696 48.5 6V7.5H46C45.337 7.5 44.7011 7.76339 44.2322 8.23223C43.7634 8.70107 43.5 9.33696 43.5 10V26C43.5 26.663 43.7634 27.2989 44.2322 27.7678C44.7011 28.2366 45.337 28.5 46 28.5H62C62.663 28.5 63.2989 28.2366 63.7678 27.7678C64.2366 27.2989 64.5 26.663 64.5 26V23.5H66C66.663 23.5 67.2989 23.2366 67.7678 22.7678C68.2366 22.2989 68.5 21.663 68.5 21V6C68.5 5.33696 68.2366 4.70107 67.7678 4.23223C67.2989 3.76339 66.663 3.5 66 3.5ZM51.5 6.5H65.5V13.965L64.2675 12.7325C63.7987 12.2638 63.1629 12.0005 62.5 12.0005C61.8371 12.0005 61.2013 12.2638 60.7325 12.7325L52.965 20.5H51.5V6.5ZM61.5 25.5H46.5V10.5H48.5V21C48.5 21.663 48.7634 22.2989 49.2322 22.7678C49.7011 23.2366 50.337 23.5 51 23.5H61.5V25.5ZM57.2075 20.5L62.5 15.2075L65.5 18.2075V20.5H57.2075ZM53.5 11C53.5 10.5055 53.6466 10.0222 53.9213 9.61107C54.196 9.19995 54.5865 8.87952 55.0433 8.6903C55.5001 8.50108 56.0028 8.45157 56.4877 8.54804C56.9727 8.6445 57.4181 8.8826 57.7678 9.23223C58.1174 9.58186 58.3555 10.0273 58.452 10.5123C58.5484 10.9972 58.4989 11.4999 58.3097 11.9567C58.1205 12.4135 57.8 12.804 57.3889 13.0787C56.9778 13.3534 56.4945 13.5 56 13.5C55.337 13.5 54.7011 13.2366 54.2322 12.7678C53.7634 12.2989 53.5 11.663 53.5 11Z" fill="white"/>
</g>
<defs>
<clipPath id="clip0_27_3824">
<rect width="72" height="32" rx="5" fill="white"/>
</clipPath>
</defs>
</svg>
