<svg width="72" height="32" viewBox="0 0 72 32" fill="none" xmlns="http://www.w3.org/2000/svg">
<g clip-path="url(#clip0_27_3819)">
<path d="M27 5H9C8.46957 5 7.96086 5.21071 7.58579 5.58579C7.21071 5.96086 7 6.46957 7 7V9H5C4.46957 9 3.96086 9.21071 3.58579 9.58579C3.21071 9.96086 3 10.4696 3 11V25C3 25.5304 3.21071 26.0391 3.58579 26.4142C3.96086 26.7893 4.46957 27 5 27H23C23.5304 27 24.0391 26.7893 24.4142 26.4142C24.7893 26.0391 25 25.5304 25 25V23H27C27.5304 23 28.0391 22.7893 28.4142 22.4142C28.7893 22.0391 29 21.5304 29 21V7C29 6.46957 28.7893 5.96086 28.4142 5.58579C28.0391 5.21071 27.5304 5 27 5ZM21.5 9C21.7967 9 22.0867 9.08797 22.3334 9.2528C22.58 9.41762 22.7723 9.65189 22.8858 9.92597C22.9993 10.2001 23.0291 10.5017 22.9712 10.7926C22.9133 11.0836 22.7704 11.3509 22.5607 11.5607C22.3509 11.7704 22.0836 11.9133 21.7926 11.9712C21.5017 12.0291 21.2001 11.9994 20.926 11.8858C20.6519 11.7723 20.4176 11.58 20.2528 11.3334C20.088 11.0867 20 10.7967 20 10.5C20 10.1022 20.158 9.72064 20.4393 9.43934C20.7206 9.15804 21.1022 9 21.5 9ZM23 25H5V11H7V21C7 21.5304 7.21071 22.0391 7.58579 22.4142C7.96086 22.7893 8.46957 23 9 23H23V25ZM27 21H9V15.0863L12.7925 11.2925C12.8854 11.1995 12.9957 11.1258 13.1171 11.0754C13.2385 11.0251 13.3686 10.9992 13.5 10.9992C13.6314 10.9992 13.7615 11.0251 13.8829 11.0754C14.0043 11.1258 14.1146 11.1995 14.2075 11.2925L20.4137 17.5L23.625 14.2925C23.8125 14.1051 24.0668 13.9998 24.3319 13.9998C24.597 13.9998 24.8512 14.1051 25.0387 14.2925L27 16.2588V21Z" fill="white"/>
<path d="M60 11C60 10.6044 60.1173 10.2178 60.3371 9.88886C60.5568 9.55996 60.8692 9.30362 61.2346 9.15224C61.6001 9.00087 62.0022 8.96126 62.3902 9.03843C62.7781 9.1156 63.1345 9.30608 63.4142 9.58579C63.6939 9.86549 63.8844 10.2219 63.9616 10.6098C64.0387 10.9978 63.9991 11.3999 63.8478 11.7654C63.6964 12.1308 63.44 12.4432 63.1111 12.6629C62.7822 12.8827 62.3956 13 62 13C61.4696 13 60.9609 12.7893 60.5858 12.4142C60.2107 12.0391 60 11.5304 60 11ZM69.5 7V20C69.5 20.663 69.2366 21.2989 68.7678 21.7678C68.2989 22.2366 67.663 22.5 67 22.5H65.5V25C65.5 25.663 65.2366 26.2989 64.7678 26.7678C64.2989 27.2366 63.663 27.5 63 27.5H45C44.337 27.5 43.7011 27.2366 43.2322 26.7678C42.7634 26.2989 42.5 25.663 42.5 25V11C42.5 10.337 42.7634 9.70107 43.2322 9.23223C43.7011 8.76339 44.337 8.5 45 8.5H47.5V7C47.5 6.33696 47.7634 5.70107 48.2322 5.23223C48.7011 4.76339 49.337 4.5 50 4.5H67C67.663 4.5 68.2989 4.76339 68.7678 5.23223C69.2366 5.70107 69.5 6.33696 69.5 7ZM62.5 22.5H50C49.337 22.5 48.7011 22.2366 48.2322 21.7678C47.7634 21.2989 47.5 20.663 47.5 20V11.5H45.5V24.5H62.5V22.5ZM59.7925 19.5L55.5 15.2075L51.2075 19.5H59.7925ZM66.5 7.5H50.5V15.965L53.7325 12.7325C54.2013 12.2638 54.8371 12.0005 55.5 12.0005C56.1629 12.0005 56.7987 12.2638 57.2675 12.7325L64.035 19.5H66.5V7.5Z" fill="white"/>
</g>
<defs>
<clipPath id="clip0_27_3819">
<rect width="72" height="32" rx="5" fill="white"/>
</clipPath>
</defs>
</svg>
