<svg width="72" height="32" viewBox="0 0 72 32" fill="none" xmlns="http://www.w3.org/2000/svg">
<g clip-path="url(#clip0_27_3814)">
<path d="M26 4H6C5.46957 4 4.96086 4.21071 4.58579 4.58579C4.21071 4.96086 4 5.46957 4 6V26C4 26.5304 4.21071 27.0391 4.58579 27.4142C4.96086 27.7893 5.46957 28 6 28H26C26.5304 28 27.0391 27.7893 27.4142 27.4142C27.7893 27.0391 28 26.5304 28 26V6C28 5.46957 27.7893 4.96086 27.4142 4.58579C27.0391 4.21071 26.5304 4 26 4ZM6 6H26V15.6725L22.9137 12.585C22.5387 12.2102 22.0302 11.9997 21.5 11.9997C20.9698 11.9997 20.4613 12.2102 20.0863 12.585L6.67125 26H6V6ZM10 12C10 11.6044 10.1173 11.2178 10.3371 10.8889C10.5568 10.56 10.8692 10.3036 11.2346 10.1522C11.6001 10.0009 12.0022 9.96126 12.3902 10.0384C12.7781 10.1156 13.1345 10.3061 13.4142 10.5858C13.6939 10.8655 13.8844 11.2219 13.9616 11.6098C14.0387 11.9978 13.9991 12.3999 13.8478 12.7654C13.6964 13.1308 13.44 13.4432 13.1111 13.6629C12.7822 13.8827 12.3956 14 12 14C11.4696 14 10.9609 13.7893 10.5858 13.4142C10.2107 13.0391 10 12.5304 10 12Z" fill="white"/>
<path d="M66 3.5H46C45.337 3.5 44.7011 3.76339 44.2322 4.23223C43.7634 4.70107 43.5 5.33696 43.5 6V26C43.5 26.663 43.7634 27.2989 44.2322 27.7678C44.7011 28.2366 45.337 28.5 46 28.5H66C66.663 28.5 67.2989 28.2366 67.7678 27.7678C68.2366 27.2989 68.5 26.663 68.5 26V6C68.5 5.33696 68.2366 4.70107 67.7678 4.23223C67.2989 3.76339 66.663 3.5 66 3.5ZM65.5 6.5V14.465L63.2675 12.2325C62.7987 11.7638 62.1629 11.5005 61.5 11.5005C60.8371 11.5005 60.2013 11.7638 59.7325 12.2325L46.5 25.465V6.5H65.5ZM50.7075 25.5L61.5 14.7075L65.5 18.7075V25.5H50.7075ZM49.5 12C49.5 11.5055 49.6466 11.0222 49.9213 10.6111C50.196 10.2 50.5865 9.87952 51.0433 9.6903C51.5001 9.50108 52.0028 9.45157 52.4877 9.54804C52.9727 9.6445 53.4181 9.8826 53.7678 10.2322C54.1174 10.5819 54.3555 11.0273 54.452 11.5123C54.5484 11.9972 54.4989 12.4999 54.3097 12.9567C54.1205 13.4135 53.8 13.804 53.3889 14.0787C52.9778 14.3534 52.4945 14.5 52 14.5C51.337 14.5 50.7011 14.2366 50.2322 13.7678C49.7634 13.2989 49.5 12.663 49.5 12Z" fill="white"/>
</g>
<defs>
<clipPath id="clip0_27_3814">
<rect width="72" height="32" rx="5" fill="white"/>
</clipPath>
</defs>
</svg>
