<svg width="72" height="32" viewBox="0 0 72 32" fill="none" xmlns="http://www.w3.org/2000/svg">
<g clip-path="url(#clip0_27_1748)">
<path d="M26 4H6C5.46957 4 4.96086 4.21071 4.58579 4.58579C4.21071 4.96086 4 5.46957 4 6V26C4 26.5304 4.21071 27.0391 4.58579 27.4142C4.96086 27.7893 5.46957 28 6 28H26C26.5304 28 27.0391 27.7893 27.4142 27.4142C27.7893 27.0391 28 26.5304 28 26V6C28 5.46957 27.7893 4.96086 27.4142 4.58579C27.0391 4.21071 26.5304 4 26 4ZM23 22C23 22.2652 22.8946 22.5196 22.7071 22.7071C22.5196 22.8946 22.2652 23 22 23C21.7348 23 21.4804 22.8946 21.2929 22.7071C21.1054 22.5196 21 22.2652 21 22V15C21 13.6739 20.4732 12.4021 19.5355 11.4645C18.5979 10.5268 17.3261 10 16 10C14.6739 10 13.4021 10.5268 12.4645 11.4645C11.5268 12.4021 11 13.6739 11 15V22C11 22.2652 10.8946 22.5196 10.7071 22.7071C10.5196 22.8946 10.2652 23 10 23C9.73478 23 9.48043 22.8946 9.29289 22.7071C9.10536 22.5196 9 22.2652 9 22V15C9 13.1435 9.7375 11.363 11.0503 10.0503C12.363 8.7375 14.1435 8 16 8C17.8565 8 19.637 8.7375 20.9497 10.0503C22.2625 11.363 23 13.1435 23 15V22Z" fill="white"/>
<path d="M66.5 15V25C66.5 25.3978 66.342 25.7794 66.0607 26.0607C65.7794 26.342 65.3978 26.5 65 26.5C64.6022 26.5 64.2206 26.342 63.9393 26.0607C63.658 25.7794 63.5 25.3978 63.5 25V15C63.5 13.0109 62.7098 11.1032 61.3033 9.6967C59.8968 8.29018 57.9891 7.5 56 7.5C54.0109 7.5 52.1032 8.29018 50.6967 9.6967C49.2902 11.1032 48.5 13.0109 48.5 15V25C48.5 25.3978 48.342 25.7794 48.0607 26.0607C47.7794 26.342 47.3978 26.5 47 26.5C46.6022 26.5 46.2206 26.342 45.9393 26.0607C45.658 25.7794 45.5 25.3978 45.5 25V15C45.5 12.2152 46.6062 9.54451 48.5754 7.57538C50.5445 5.60625 53.2152 4.5 56 4.5C58.7848 4.5 61.4555 5.60625 63.4246 7.57538C65.3938 9.54451 66.5 12.2152 66.5 15Z" fill="white"/>
</g>
<defs>
<clipPath id="clip0_27_1748">
<rect width="72" height="32" rx="5" fill="white"/>
</clipPath>
</defs>
</svg>
