<svg width="72" height="32" viewBox="0 0 72 32" fill="none" xmlns="http://www.w3.org/2000/svg">
<g clip-path="url(#clip0_27_1272)">
<path d="M3.5 16C3.23478 16 2.98043 15.8946 2.79289 15.7071C2.60536 15.5196 2.5 15.2652 2.5 15C2.5 14.7348 2.60536 14.4804 2.79289 14.2929C2.98043 14.1054 3.23478 14 3.5 14H7C7.26522 14 7.51957 13.8946 7.70711 13.7071C7.89464 13.5196 8 13.2652 8 13C8 12.7348 7.89464 12.4804 7.70711 12.2929C7.51957 12.1054 7.26522 12 7 12H5C4.20435 12 3.44129 11.6839 2.87868 11.1213C2.31607 10.5587 2 9.79565 2 9C2 8.20435 2.31607 7.44129 2.87868 6.87868C3.44129 6.31607 4.20435 6 5 6C5 5.73478 5.10536 5.48043 5.29289 5.29289C5.48043 5.10536 5.73478 5 6 5C6.26522 5 6.51957 5.10536 6.70711 5.29289C6.89464 5.48043 7 5.73478 7 6H8C8.26522 6 8.51957 6.10536 8.70711 6.29289C8.89464 6.48043 9 6.73478 9 7C9 7.26522 8.89464 7.51957 8.70711 7.70711C8.51957 7.89464 8.26522 8 8 8H5C4.73478 8 4.48043 8.10536 4.29289 8.29289C4.10536 8.48043 4 8.73478 4 9C4 9.26522 4.10536 9.51957 4.29289 9.70711C4.48043 9.89464 4.73478 10 5 10H7C7.79565 10 8.55871 10.3161 9.12132 10.8787C9.68393 11.4413 10 12.2044 10 13C10 13.7956 9.68393 14.5587 9.12132 15.1213C8.55871 15.6839 7.79565 16 7 16C7 16.2652 6.89464 16.5196 6.70711 16.7071C6.51957 16.8946 6.26522 17 6 17C5.73478 17 5.48043 16.8946 5.29289 16.7071C5.10536 16.5196 5 16.2652 5 16H3.5ZM28 6H12C11.7348 6 11.4804 6.10536 11.2929 6.29289C11.1054 6.48043 11 6.73478 11 7C11 7.26522 11.1054 7.51957 11.2929 7.70711C11.4804 7.89464 11.7348 8 12 8H27V12H13C12.7348 12 12.4804 12.1054 12.2929 12.2929C12.1054 12.4804 12 12.7348 12 13C12 13.2652 12.1054 13.5196 12.2929 13.7071C12.4804 13.8946 12.7348 14 13 14H20V18H10C9.73478 18 9.48043 18.1054 9.29289 18.2929C9.10536 18.4804 9 18.7348 9 19C9 19.2652 9.10536 19.5196 9.29289 19.7071C9.48043 19.8946 9.73478 20 10 20H20V24H5V19C5 18.7348 4.89464 18.4804 4.70711 18.2929C4.51957 18.1054 4.26522 18 4 18C3.73478 18 3.48043 18.1054 3.29289 18.2929C3.10536 18.4804 3 18.7348 3 19V24C3 24.5304 3.21071 25.0391 3.58579 25.4142C3.96086 25.7893 4.46957 26 5 26H27C27.5304 26 28.0391 25.7893 28.4142 25.4142C28.7893 25.0391 29 24.5304 29 24V7C29 6.73478 28.8946 6.48043 28.7071 6.29289C28.5196 6.10536 28.2652 6 28 6Z" fill="white"/>
<path d="M43.5001 16.5C43.1022 16.5 42.7207 16.342 42.4394 16.0607C42.1581 15.7794 42.0001 15.3978 42.0001 15C42.0001 14.6022 42.1581 14.2206 42.4394 13.9393C42.7207 13.658 43.1022 13.5 43.5001 13.5H47.0001C47.1327 13.5 47.2598 13.4473 47.3536 13.3536C47.4474 13.2598 47.5001 13.1326 47.5001 13C47.5001 12.8674 47.4474 12.7402 47.3536 12.6465C47.2598 12.5527 47.1327 12.5 47.0001 12.5H45.0001C44.1094 12.4987 43.2527 12.1578 42.6046 11.5468C41.9564 10.9358 41.5656 10.1007 41.5118 9.21167C41.4579 8.3226 41.745 7.44644 42.3147 6.76169C42.8843 6.07695 43.6935 5.63513 44.5776 5.52626C44.6768 5.23055 44.8658 4.97313 45.1182 4.78984C45.3705 4.60654 45.6738 4.50649 45.9857 4.5036C46.2976 4.50072 46.6027 4.59514 46.8584 4.77372C47.1141 4.95231 47.3078 5.20618 47.4126 5.50001H48.0001C48.3979 5.50001 48.7794 5.65804 49.0607 5.93935C49.342 6.22065 49.5001 6.60218 49.5001 7.00001C49.5001 7.39783 49.342 7.77936 49.0607 8.06067C48.7794 8.34197 48.3979 8.50001 48.0001 8.50001H45.0001C44.8674 8.50001 44.7403 8.55268 44.6465 8.64645C44.5527 8.74022 44.5001 8.8674 44.5001 9.00001C44.5001 9.13261 44.5527 9.25979 44.6465 9.35356C44.7403 9.44733 44.8674 9.50001 45.0001 9.50001H47.0001C47.8907 9.50136 48.7474 9.84225 49.3955 10.4532C50.0437 11.0642 50.4345 11.8993 50.4883 12.7883C50.5422 13.6774 50.2551 14.5536 49.6854 15.2383C49.1158 15.9231 48.3066 16.3649 47.4226 16.4738C47.3233 16.7695 47.1343 17.0269 46.8819 17.2102C46.6296 17.3935 46.3263 17.4935 46.0144 17.4964C45.7025 17.4993 45.3974 17.4049 45.1417 17.2263C44.886 17.0477 44.6923 16.7938 44.5876 16.5H43.5001ZM69.5001 7.00001V24C69.5001 24.663 69.2367 25.2989 68.7678 25.7678C68.299 26.2366 67.6631 26.5 67.0001 26.5H45.0001C44.337 26.5 43.7011 26.2366 43.2323 25.7678C42.7634 25.2989 42.5001 24.663 42.5001 24V20.5C42.5001 20.1022 42.6581 19.7207 42.9394 19.4393C43.2207 19.158 43.6022 19 44.0001 19C44.3979 19 44.7794 19.158 45.0607 19.4393C45.342 19.7207 45.5001 20.1022 45.5001 20.5V23.5H59.5001V20.5H51.0001C50.6022 20.5 50.2207 20.342 49.9394 20.0607C49.6581 19.7794 49.5001 19.3978 49.5001 19C49.5001 18.6022 49.6581 18.2207 49.9394 17.9393C50.2207 17.658 50.6022 17.5 51.0001 17.5H59.5001V14.5H54.0001C53.6022 14.5 53.2207 14.342 52.9394 14.0607C52.6581 13.7794 52.5001 13.3978 52.5001 13C52.5001 12.6022 52.6581 12.2207 52.9394 11.9393C53.2207 11.658 53.6022 11.5 54.0001 11.5H66.5001V8.50001H53.0001C52.6022 8.50001 52.2207 8.34197 51.9394 8.06067C51.6581 7.77936 51.5001 7.39783 51.5001 7.00001C51.5001 6.60218 51.6581 6.22065 51.9394 5.93935C52.2207 5.65804 52.6022 5.50001 53.0001 5.50001H68.0001C68.3979 5.50001 68.7794 5.65804 69.0607 5.93935C69.342 6.22065 69.5001 6.60218 69.5001 7.00001ZM62.5001 17.5H66.5001V14.5H62.5001V17.5ZM66.5001 23.5V20.5H62.5001V23.5H66.5001Z" fill="white"/>
</g>
<defs>
<clipPath id="clip0_27_1272">
<rect width="72" height="32" rx="5" fill="white"/>
</clipPath>
</defs>
</svg>
