<svg width="72" height="32" viewBox="0 0 72 32" fill="none" xmlns="http://www.w3.org/2000/svg">
<g clip-path="url(#clip0_27_2194)">
<path d="M29.9436 28.3313C29.8749 28.5268 29.7472 28.6961 29.5782 28.8159C29.4091 28.9357 29.207 29.0001 28.9998 29H2.99981C2.79247 29.0002 2.59021 28.9359 2.42102 28.816C2.25183 28.6962 2.12407 28.5267 2.05542 28.3311C1.98678 28.1355 1.98064 27.9233 2.03786 27.724C2.09508 27.5248 2.21283 27.3482 2.37481 27.2188C2.57856 27.0563 7.19106 23.4363 14.6611 23.0375C14.2725 21.489 14.1337 19.8885 14.2498 18.2963C14.4661 15.5825 15.6136 11.9675 19.6186 9.23626C19.0045 9.0871 18.3754 9.00867 17.7436 9.00251H17.5348C15.1598 9.08001 13.6673 10.4663 12.9723 13.2425C12.9181 13.4593 12.7929 13.6516 12.6167 13.7889C12.4404 13.9262 12.2232 14.0005 11.9998 14C11.9155 14.0011 11.8315 13.991 11.7498 13.97C11.4926 13.9057 11.2714 13.7418 11.135 13.5144C10.9986 13.287 10.958 13.0148 11.0223 12.7575C12.1786 8.13876 15.1611 7.08001 17.4598 7.00751C18.3728 6.98757 19.2843 7.09057 20.1698 7.31376C19.6923 6.52251 18.9923 5.69751 18.0186 5.28251C16.7686 4.75251 15.2473 4.98376 13.4798 5.97126C13.3649 6.03528 13.2385 6.07604 13.1078 6.09121C12.9772 6.10639 12.8448 6.09568 12.7183 6.05969C12.5918 6.02371 12.4736 5.96316 12.3705 5.8815C12.2674 5.79984 12.1813 5.69867 12.1173 5.58376C12.0533 5.46885 12.0125 5.34246 11.9974 5.2118C11.9822 5.08115 11.9929 4.94878 12.0289 4.82226C12.0649 4.69574 12.1254 4.57754 12.2071 4.47442C12.2887 4.37131 12.3899 4.28528 12.5048 4.22126C14.8473 2.91501 16.9698 2.65376 18.8148 3.44626C20.3761 4.11626 21.4061 5.41876 22.0498 6.57126C22.8211 5.36626 23.7836 4.55001 24.8473 4.20376C26.3298 3.72001 27.9273 4.11376 29.5973 5.37501C29.7996 5.53804 29.9304 5.77337 29.9622 6.03119C29.994 6.28902 29.9242 6.54909 29.7676 6.75637C29.611 6.96364 29.3799 7.10184 29.1232 7.14172C28.8665 7.18159 28.6044 7.12001 28.3923 6.97001C27.2786 6.12876 26.2961 5.83751 25.4748 6.10376C24.5623 6.39751 23.8661 7.35376 23.4273 8.18001C24.3294 8.3616 25.1974 8.68342 25.9998 9.13376C27.8261 10.1775 29.9998 12.39 29.9998 17.0013C29.9998 17.2665 29.8944 17.5208 29.7069 17.7084C29.5194 17.8959 29.265 18.0013 28.9998 18.0013C28.7346 18.0013 28.4802 17.8959 28.2927 17.7084C28.1052 17.5208 27.9998 17.2665 27.9998 17.0013C27.9998 14.0688 26.9923 12.0013 24.9998 10.8763C24.7679 10.7445 24.5278 10.6276 24.2811 10.5263C24.9107 11.8063 25.1315 13.249 24.9136 14.6588C24.7564 15.7018 24.3788 16.6993 23.8061 17.585C23.6528 17.8 23.4207 17.9456 23.1604 17.9901C22.9002 18.0346 22.6329 17.9744 22.4168 17.8226C22.2008 17.6708 22.0536 17.4397 22.0073 17.1797C21.9611 16.9198 22.0195 16.6521 22.1698 16.435C22.2636 16.2988 24.2111 13.3875 21.7623 10.2638C18.3873 12.165 16.5261 14.92 16.2423 18.4625C16.1318 19.9972 16.2939 21.5393 16.7211 23.0175C24.5523 23.2438 29.4111 27.0588 29.6211 27.225C29.7824 27.3536 29.8999 27.529 29.9577 27.727C30.0154 27.9251 30.0105 28.1361 29.9436 28.3313ZM6.49981 21C7.19204 21 7.86873 20.7947 8.4443 20.4102C9.01987 20.0256 9.46848 19.4789 9.73338 18.8394C9.99829 18.1999 10.0676 17.4961 9.93255 16.8172C9.79751 16.1383 9.46416 15.5146 8.97468 15.0251C8.4852 14.5357 7.86156 14.2023 7.18262 14.0673C6.50369 13.9322 5.79995 14.0015 5.16041 14.2664C4.52087 14.5313 3.97425 14.9799 3.58966 15.5555C3.20508 16.1311 2.99981 16.8078 2.99981 17.5C2.99981 18.4283 3.36855 19.3185 4.02493 19.9749C4.68131 20.6313 5.57155 21 6.49981 21Z" fill="white"/>
<path d="M70.1711 28.9375C70.048 29.0913 69.8958 29.2194 69.7232 29.3144C69.5506 29.4094 69.361 29.4695 69.1652 29.4912C68.9694 29.5129 68.7712 29.4958 68.5819 29.4409C68.3927 29.386 68.2162 29.2944 68.0624 29.1713C68.0199 29.1375 63.3299 25.5 55.9999 25.5C48.6699 25.5 43.9786 29.1375 43.9324 29.1738C43.6214 29.4224 43.2244 29.5373 42.8287 29.4932C42.433 29.4492 42.071 29.2497 41.8224 28.9388C41.5737 28.6278 41.4588 28.2308 41.5029 27.8351C41.547 27.4394 41.7464 27.0774 42.0574 26.8288C42.2599 26.6663 46.7536 23.1375 54.0386 22.5788C53.7394 21.1591 53.6422 19.7043 53.7499 18.2575C53.9586 15.6588 54.9849 12.2688 58.3749 9.535C58.0974 9.50778 57.8185 9.49818 57.5399 9.50625C55.3899 9.57625 54.0886 10.8025 53.4474 13.3663C53.3661 13.6891 53.1798 13.9757 52.9177 14.1809C52.6556 14.3862 52.3328 14.4984 51.9999 14.5C51.8768 14.5003 51.7542 14.4852 51.6349 14.455C51.249 14.3585 50.9173 14.1127 50.7127 13.7716C50.508 13.4305 50.4472 13.0221 50.5436 12.6363C51.1011 10.4125 52.7386 6.65875 57.4511 6.51125C58.0703 6.49491 58.6897 6.53676 59.3011 6.63625C58.8674 6.025 58.3249 5.485 57.6661 5.2125C56.6311 4.78375 55.3249 5.04625 53.7836 5.99125C53.6154 6.09426 53.4285 6.16312 53.2336 6.19389C53.0387 6.22467 52.8397 6.21676 52.6479 6.17062C52.4561 6.12448 52.2753 6.04101 52.1157 5.92498C51.9561 5.80895 51.821 5.66263 51.718 5.49438C51.615 5.32612 51.5461 5.13923 51.5154 4.94436C51.4846 4.74949 51.4925 4.55047 51.5386 4.35866C51.5848 4.16685 51.6682 3.986 51.7843 3.82645C51.9003 3.6669 52.0466 3.53176 52.2149 3.42875C54.6274 1.94875 56.8536 1.61625 58.8311 2.4425C60.1386 2.98875 61.2849 4.0575 62.1749 5.5525C62.9074 4.65375 63.7649 4.03 64.6999 3.72625C66.7524 3.0575 68.6624 4.035 69.9036 4.97625C70.0656 5.09318 70.2026 5.24129 70.3065 5.41187C70.4105 5.58246 70.4793 5.77209 70.509 5.96964C70.5386 6.16719 70.5286 6.36867 70.4793 6.56227C70.43 6.75587 70.3426 6.93767 70.2222 7.09702C70.1017 7.25637 69.9506 7.39006 69.7778 7.49022C69.6049 7.59039 69.4138 7.65503 69.2157 7.68034C69.0175 7.70565 68.8163 7.69113 68.6238 7.63762C68.4314 7.58412 68.2515 7.4927 68.0949 7.36875C67.1211 6.6325 66.2924 6.36875 65.6349 6.57875C65.0636 6.7625 64.5786 7.2875 64.2061 7.8525C64.9191 8.05196 65.6054 8.33695 66.2499 8.70125C68.1849 9.81 70.4999 12.1513 70.4999 17C70.4999 17.3978 70.3418 17.7794 70.0605 18.0607C69.7792 18.342 69.3977 18.5 68.9999 18.5C68.6021 18.5 68.2205 18.342 67.9392 18.0607C67.6579 17.7794 67.4999 17.3978 67.4999 17C67.4999 14.5 66.7336 12.6963 65.2236 11.6063C65.5014 12.6352 65.5634 13.7105 65.4057 14.7645C65.248 15.8186 64.8741 16.8286 64.3074 17.7313C64.2076 17.9083 64.073 18.0632 63.9115 18.1866C63.7501 18.31 63.5653 18.3993 63.3683 18.4491C63.1713 18.499 62.9662 18.5082 62.7655 18.4764C62.5649 18.4446 62.3727 18.3723 62.2008 18.264C62.0289 18.1556 61.8808 18.0135 61.7655 17.8462C61.6502 17.6789 61.5701 17.4899 61.53 17.2907C61.4899 17.0915 61.4908 16.8862 61.5324 16.6873C61.5741 16.4885 61.6557 16.3001 61.7724 16.1338C62.1359 15.5319 62.3705 14.861 62.4611 14.1638C62.6086 13.0275 62.3274 11.9375 61.6286 10.9138C58.6774 12.6988 57.0386 15.2088 56.7536 18.3888C56.6418 19.7766 56.7631 21.1734 57.1124 22.5213C64.8911 22.86 69.7261 26.655 69.9374 26.8238C70.0919 26.9469 70.2206 27.0994 70.3161 27.2724C70.4115 27.4454 70.4719 27.6356 70.4936 27.832C70.5153 28.0285 70.498 28.2272 70.4427 28.417C70.3873 28.6067 70.295 28.7836 70.1711 28.9375ZM42.4999 18C42.4999 17.2089 42.7345 16.4355 43.174 15.7777C43.6135 15.1199 44.2382 14.6072 44.9691 14.3045C45.7 14.0017 46.5043 13.9225 47.2802 14.0769C48.0562 14.2312 48.7689 14.6122 49.3283 15.1716C49.8877 15.731 50.2687 16.4437 50.423 17.2196C50.5774 17.9956 50.4981 18.7998 50.1954 19.5307C49.8926 20.2616 49.38 20.8864 48.7222 21.3259C48.0644 21.7654 47.291 22 46.4999 22C45.439 22 44.4216 21.5786 43.6715 20.8284C42.9213 20.0783 42.4999 19.0609 42.4999 18ZM45.4999 18C45.4999 18.1978 45.5585 18.3911 45.6684 18.5556C45.7783 18.72 45.9345 18.8482 46.1172 18.9239C46.2999 18.9996 46.501 19.0194 46.695 18.9808C46.8889 18.9422 47.0671 18.847 47.207 18.7071C47.3468 18.5673 47.4421 18.3891 47.4807 18.1951C47.5192 18.0011 47.4994 17.8 47.4238 17.6173C47.3481 17.4346 47.2199 17.2784 47.0554 17.1685C46.891 17.0587 46.6977 17 46.4999 17C46.2347 17 45.9803 17.1054 45.7928 17.2929C45.6052 17.4804 45.4999 17.7348 45.4999 18Z" fill="white"/>
</g>
<defs>
<clipPath id="clip0_27_2194">
<rect width="72" height="32" rx="5" fill="white"/>
</clipPath>
</defs>
</svg>
