<svg width="72" height="32" viewBox="0 0 72 32" fill="none" xmlns="http://www.w3.org/2000/svg">
<g clip-path="url(#clip0_27_1277)">
<path d="M23 6.10125V4C23 3.46957 22.7893 2.96086 22.4142 2.58579C22.0391 2.21071 21.5304 2 21 2H11C10.4696 2 9.96086 2.21071 9.58579 2.58579C9.21071 2.96086 9 3.46957 9 4V6.10125C7.87139 6.33283 6.85719 6.94659 6.1285 7.83901C5.39981 8.73143 5.00123 9.84787 5 11V25C5 26.3261 5.52678 27.5979 6.46447 28.5355C7.40215 29.4732 8.67392 30 10 30H22C23.3261 30 24.5979 29.4732 25.5355 28.5355C26.4732 27.5979 27 26.3261 27 25V11C26.9988 9.84787 26.6002 8.73143 25.8715 7.83901C25.1428 6.94659 24.1286 6.33283 23 6.10125ZM15 6V4H17V6H15ZM21 6H19V4H21V6ZM13 4V6H11V4H13Z" fill="white"/>
<path d="M63.5 6.21V4C63.5 3.33696 63.2366 2.70107 62.7678 2.23223C62.2989 1.76339 61.663 1.5 61 1.5H51C50.337 1.5 49.7011 1.76339 49.2322 2.23223C48.7634 2.70107 48.5 3.33696 48.5 4V6.21C47.3491 6.53753 46.3362 7.23097 45.6145 8.18542C44.8928 9.13988 44.5016 10.3034 44.5 11.5V25C44.5017 26.4582 45.0816 27.8562 46.1127 28.8873C47.1438 29.9184 48.5418 30.4983 50 30.5H62C63.4582 30.4983 64.8562 29.9184 65.8873 28.8873C66.9184 27.8562 67.4983 26.4582 67.5 25V11.5C67.4984 10.3034 67.1072 9.13988 66.3855 8.18542C65.6638 7.23097 64.6509 6.53753 63.5 6.21ZM60.5 6H57.5V4.5H60.5V6ZM54.5 4.5V6H51.5V4.5H54.5ZM64.5 25C64.5 25.663 64.2366 26.2989 63.7678 26.7678C63.2989 27.2366 62.663 27.5 62 27.5H50C49.337 27.5 48.7011 27.2366 48.2322 26.7678C47.7634 26.2989 47.5 25.663 47.5 25V11.5C47.5 10.837 47.7634 10.2011 48.2322 9.73223C48.7011 9.26339 49.337 9 50 9H62C62.663 9 63.2989 9.26339 63.7678 9.73223C64.2366 10.2011 64.5 10.837 64.5 11.5V25Z" fill="white"/>
</g>
<defs>
<clipPath id="clip0_27_1277">
<rect width="72" height="32" rx="5" fill="white"/>
</clipPath>
</defs>
</svg>
