<svg width="72" height="32" viewBox="0 0 72 32" fill="none" xmlns="http://www.w3.org/2000/svg">
<g clip-path="url(#clip0_27_6675)">
<path d="M31.0002 12.9338C30.9781 12.6762 30.8591 12.4366 30.6673 12.2633C30.4754 12.09 30.225 11.9959 29.9665 12H29.0002C29.0002 11.9294 28.9926 11.859 28.9777 11.79L27.6477 5.58125C27.5502 5.13445 27.3032 4.73428 26.9475 4.44679C26.5919 4.15931 26.1488 4.0017 25.6915 4H6.30899C5.85168 4.0017 5.40861 4.15931 5.05295 4.44679C4.69729 4.73428 4.45029 5.13445 4.35274 5.58125L3.02274 11.79C3.00785 11.859 3.00031 11.9294 3.00024 12H2.03399C1.7755 11.9959 1.52506 12.09 1.3332 12.2633C1.14135 12.4366 1.02236 12.6762 1.00024 12.9338C0.991162 13.0705 1.0103 13.2077 1.05647 13.3368C1.10264 13.4659 1.17486 13.5841 1.26864 13.6841C1.36242 13.7841 1.47576 13.8637 1.60162 13.9181C1.72747 13.9724 1.86316 14.0003 2.00024 14H3.00024V25C3.00024 25.5304 3.21096 26.0391 3.58603 26.4142C3.9611 26.7893 4.46981 27 5.00024 27H8.00024C8.53068 27 9.03938 26.7893 9.41446 26.4142C9.78953 26.0391 10.0002 25.5304 10.0002 25V23H12.5002C12.6329 23 12.76 22.9473 12.8538 22.8536C12.9476 22.7598 13.0002 22.6326 13.0002 22.5V16.0338C12.9968 15.7757 13.0911 15.5259 13.2644 15.3345C13.4376 15.1432 13.6768 15.0246 13.934 15.0025C14.0708 14.9934 14.208 15.0126 14.3371 15.0587C14.4661 15.1049 14.5843 15.1771 14.6843 15.2709C14.7843 15.3647 14.864 15.478 14.9183 15.6039C14.9727 15.7297 15.0005 15.8654 15.0002 16.0025V22.5025C15.0002 22.6351 15.0529 22.7623 15.1467 22.8561C15.2405 22.9498 15.3676 23.0025 15.5002 23.0025H16.5002C16.6329 23.0025 16.76 22.9498 16.8538 22.8561C16.9476 22.7623 17.0002 22.6351 17.0002 22.5025V16.0338C16.9968 15.7757 17.0911 15.5259 17.2644 15.3345C17.4376 15.1432 17.6768 15.0246 17.934 15.0025C18.0708 14.9934 18.208 15.0126 18.3371 15.0587C18.4661 15.1049 18.5843 15.1771 18.6843 15.2709C18.7843 15.3647 18.864 15.478 18.9183 15.6039C18.9727 15.7297 19.0005 15.8654 19.0002 16.0025V22.5025C19.0002 22.6351 19.0529 22.7623 19.1467 22.8561C19.2405 22.9498 19.3676 23.0025 19.5002 23.0025H22.0002V25.0025C22.0002 25.5329 22.211 26.0416 22.586 26.4167C22.9611 26.7918 23.4698 27.0025 24.0002 27.0025H27.0002C27.5307 27.0025 28.0394 26.7918 28.4145 26.4167C28.7895 26.0416 29.0002 25.5329 29.0002 25.0025V14H30.0002C30.1373 14.0003 30.273 13.9724 30.3989 13.9181C30.5247 13.8637 30.6381 13.7841 30.7318 13.6841C30.8256 13.5841 30.8978 13.4659 30.944 13.3368C30.9902 13.2077 31.0093 13.0705 31.0002 12.9338ZM8.50024 18C8.20357 18 7.91356 17.912 7.66689 17.7472C7.42022 17.5824 7.22796 17.3481 7.11442 17.074C7.00089 16.7999 6.97119 16.4983 7.02907 16.2074C7.08694 15.9164 7.2298 15.6491 7.43958 15.4393C7.64936 15.2296 7.91664 15.0867 8.20761 15.0288C8.49858 14.9709 8.80018 15.0006 9.07427 15.1142C9.34836 15.2277 9.58263 15.42 9.74745 15.6666C9.91227 15.9133 10.0002 16.2033 10.0002 16.5C10.0002 16.8978 9.84221 17.2794 9.5609 17.5607C9.2796 17.842 8.89807 18 8.50024 18ZM23.5002 18C23.2036 18 22.9136 17.912 22.6669 17.7472C22.4202 17.5824 22.228 17.3481 22.1144 17.074C22.0009 16.7999 21.9712 16.4983 22.0291 16.2074C22.0869 15.9164 22.2298 15.6491 22.4396 15.4393C22.6494 15.2296 22.9166 15.0867 23.2076 15.0288C23.4986 14.9709 23.8002 15.0006 24.0743 15.1142C24.3484 15.2277 24.5826 15.42 24.7474 15.6666C24.9123 15.9133 25.0002 16.2033 25.0002 16.5C25.0002 16.8978 24.8422 17.2794 24.5609 17.5607C24.2796 17.842 23.8981 18 23.5002 18ZM5.02274 12L6.30899 6H25.6915L26.9777 12H5.02274Z" fill="white"/>
<path d="M70 10.5H69.2125L68.1362 5.47625C68.0141 4.91797 67.7053 4.41799 67.2608 4.05874C66.8164 3.69949 66.2627 3.50241 65.6912 3.5H46.3088C45.7373 3.50241 45.1836 3.69949 44.7392 4.05874C44.2947 4.41799 43.9859 4.91797 43.8637 5.47625L42.7875 10.5H42C41.6022 10.5 41.2206 10.658 40.9393 10.9393C40.658 11.2206 40.5 11.6022 40.5 12C40.5 12.3978 40.658 12.7794 40.9393 13.0607C41.2206 13.342 41.6022 13.5 42 13.5H42.5V25C42.5 25.663 42.7634 26.2989 43.2322 26.7678C43.7011 27.2366 44.337 27.5 45 27.5H48.5C49.163 27.5 49.7989 27.2366 50.2678 26.7678C50.7366 26.2989 51 25.663 51 25V22.5H61V25C61 25.663 61.2634 26.2989 61.7322 26.7678C62.2011 27.2366 62.837 27.5 63.5 27.5H67C67.663 27.5 68.2989 27.2366 68.7678 26.7678C69.2366 26.2989 69.5 25.663 69.5 25V13.5H70C70.3978 13.5 70.7794 13.342 71.0607 13.0607C71.342 12.7794 71.5 12.3978 71.5 12C71.5 11.6022 71.342 11.2206 71.0607 10.9393C70.7794 10.658 70.3978 10.5 70 10.5ZM46.7125 6.5H65.2875L66.145 10.5H45.855L46.7125 6.5ZM48 24.5H45.5V22.5H48V24.5ZM64 24.5V22.5H66.5V24.5H64ZM66.5 19.5H62.5V16.5C62.5 16.1022 62.342 15.7206 62.0607 15.4393C61.7794 15.158 61.3978 15 61 15C60.6022 15 60.2206 15.158 59.9393 15.4393C59.658 15.7206 59.5 16.1022 59.5 16.5V19.5H57.5V16.5C57.5 16.1022 57.342 15.7206 57.0607 15.4393C56.7794 15.158 56.3978 15 56 15C55.6022 15 55.2206 15.158 54.9393 15.4393C54.658 15.7206 54.5 16.1022 54.5 16.5V19.5H52.5V16.5C52.5 16.1022 52.342 15.7206 52.0607 15.4393C51.7794 15.158 51.3978 15 51 15C50.6022 15 50.2206 15.158 49.9393 15.4393C49.658 15.7206 49.5 16.1022 49.5 16.5V19.5H45.5V13.5H66.5V19.5Z" fill="white"/>
</g>
<defs>
<clipPath id="clip0_27_6675">
<rect width="72" height="32" rx="5" fill="white"/>
</clipPath>
</defs>
</svg>
