<svg width="72" height="32" viewBox="0 0 72 32" fill="none" xmlns="http://www.w3.org/2000/svg">
<g clip-path="url(#clip0_27_7301)">
<path d="M20 7V19C20 19.2652 19.8946 19.5196 19.7071 19.7071C19.5196 19.8946 19.2652 20 19 20H14C13.7348 20 13.4804 19.8946 13.2929 19.7071C13.1054 19.5196 13 19.2652 13 19V7C13 6.73478 13.1054 6.48043 13.2929 6.29289C13.4804 6.10536 13.7348 6 14 6H19C19.2652 6 19.5196 6.10536 19.7071 6.29289C19.8946 6.48043 20 6.73478 20 7ZM28 6H23C22.7348 6 22.4804 6.10536 22.2929 6.29289C22.1054 6.48043 22 6.73478 22 7V13.5C22 13.6326 22.0527 13.7598 22.1464 13.8536C22.2402 13.9473 22.3674 14 22.5 14H28.5C28.6326 14 28.7598 13.9473 28.8536 13.8536C28.9473 13.7598 29 13.6326 29 13.5V7C29 6.73478 28.8946 6.48043 28.7071 6.29289C28.5196 6.10536 28.2652 6 28 6ZM28.5 16H22.5C22.3674 16 22.2402 16.0527 22.1464 16.1464C22.0527 16.2402 22 16.3674 22 16.5V22C22 22.5304 22.2107 23.0391 22.5858 23.4142C22.9609 23.7893 23.4696 24 24 24H27C27.5304 24 28.0391 23.7893 28.4142 23.4142C28.7893 23.0391 29 22.5304 29 22V16.5C29 16.3674 28.9473 16.2402 28.8536 16.1464C28.7598 16.0527 28.6326 16 28.5 16ZM10 6H5C4.73478 6 4.48043 6.10536 4.29289 6.29289C4.10536 6.48043 4 6.73478 4 7V13.5C4 13.6326 4.05268 13.7598 4.14645 13.8536C4.24021 13.9473 4.36739 14 4.5 14H10.5C10.6326 14 10.7598 13.9473 10.8536 13.8536C10.9473 13.7598 11 13.6326 11 13.5V7C11 6.73478 10.8946 6.48043 10.7071 6.29289C10.5196 6.10536 10.2652 6 10 6ZM10.5 16H4.5C4.36739 16 4.24021 16.0527 4.14645 16.1464C4.05268 16.2402 4 16.3674 4 16.5V26C4 26.5304 4.21071 27.0391 4.58579 27.4142C4.96086 27.7893 5.46957 28 6 28H9C9.53043 28 10.0391 27.7893 10.4142 27.4142C10.7893 27.0391 11 26.5304 11 26V16.5C11 16.3674 10.9473 16.2402 10.8536 16.1464C10.7598 16.0527 10.6326 16 10.5 16Z" fill="white"/>
<path d="M67 5.5H45C44.6022 5.5 44.2206 5.65804 43.9393 5.93934C43.658 6.22064 43.5 6.60218 43.5 7V26C43.5 26.663 43.7634 27.2989 44.2322 27.7678C44.7011 28.2366 45.337 28.5 46 28.5H51C51.663 28.5 52.2989 28.2366 52.7678 27.7678C53.2366 27.2989 53.5 26.663 53.5 26V20.5H58.5V22C58.5 22.663 58.7634 23.2989 59.2322 23.7678C59.7011 24.2366 60.337 24.5 61 24.5H66C66.663 24.5 67.2989 24.2366 67.7678 23.7678C68.2366 23.2989 68.5 22.663 68.5 22V7C68.5 6.60218 68.342 6.22064 68.0607 5.93934C67.7794 5.65804 67.3978 5.5 67 5.5ZM65.5 13.5H61.5V8.5H65.5V13.5ZM50.5 8.5V13.5H46.5V8.5H50.5ZM50.5 25.5H46.5V16.5H50.5V25.5ZM53.5 17.5V8.5H58.5V17.5H53.5ZM61.5 21.5V16.5H65.5V21.5H61.5Z" fill="white"/>
</g>
<defs>
<clipPath id="clip0_27_7301">
<rect width="72" height="32" rx="5" fill="white"/>
</clipPath>
</defs>
</svg>
