<svg width="72" height="32" viewBox="0 0 72 32" fill="none" xmlns="http://www.w3.org/2000/svg">
<g clip-path="url(#clip0_27_4364)">
<path d="M27.0713 4.92875C25.4829 3.33814 23.4049 2.3291 21.1726 2.06445C18.9403 1.7998 16.684 2.29499 14.7677 3.4701C12.8514 4.64522 11.3869 6.43171 10.6106 8.5413C9.83424 10.6509 9.79133 12.9605 10.4888 15.0975L3.58626 22C3.39973 22.185 3.25185 22.4053 3.15121 22.648C3.05057 22.8907 2.99917 23.151 3.00001 23.4138V27C3.00001 27.5304 3.21072 28.0391 3.5858 28.4142C3.96087 28.7893 4.46958 29 5.00001 29H9.00001C9.26523 29 9.51958 28.8946 9.70712 28.7071C9.89465 28.5196 10 28.2652 10 28V26H12C12.2652 26 12.5196 25.8946 12.7071 25.7071C12.8947 25.5196 13 25.2652 13 25V23H15C15.1314 23.0001 15.2615 22.9743 15.3829 22.9241C15.5043 22.874 15.6146 22.8003 15.7075 22.7075L16.9025 21.5113C17.9028 21.8366 18.9482 22.0016 20 22H20.0125C21.9893 21.9976 23.9211 21.4094 25.5637 20.3096C27.2063 19.2099 28.4862 17.6479 29.2415 15.8211C29.9969 13.9943 30.1939 11.9846 29.8076 10.0459C29.4213 8.10724 28.4691 6.32653 27.0713 4.92875ZM22.5 11.5C22.1044 11.5 21.7178 11.3827 21.3889 11.1629C21.06 10.9432 20.8036 10.6308 20.6523 10.2654C20.5009 9.89992 20.4613 9.49779 20.5384 9.10982C20.6156 8.72186 20.8061 8.3655 21.0858 8.08579C21.3655 7.80609 21.7219 7.6156 22.1098 7.53843C22.4978 7.46126 22.8999 7.50087 23.2654 7.65225C23.6308 7.80362 23.9432 8.05997 24.1629 8.38886C24.3827 8.71776 24.5 9.10444 24.5 9.5C24.5 10.0304 24.2893 10.5391 23.9142 10.9142C23.5392 11.2893 23.0304 11.5 22.5 11.5Z" fill="white"/>
<path d="M64.5 9.5C64.5 9.89556 64.3827 10.2822 64.1629 10.6111C63.9432 10.94 63.6308 11.1964 63.2654 11.3478C62.8999 11.4991 62.4978 11.5387 62.1098 11.4616C61.7219 11.3844 61.3655 11.1939 61.0858 10.9142C60.8061 10.6345 60.6156 10.2781 60.5384 9.89018C60.4613 9.50222 60.5009 9.10009 60.6523 8.73463C60.8036 8.36918 61.06 8.05682 61.3889 7.83706C61.7178 7.6173 62.1044 7.5 62.5 7.5C63.0304 7.5 63.5392 7.71071 63.9142 8.08579C64.2893 8.46086 64.5 8.96957 64.5 9.5ZM70.5 12.3425C70.4019 15.062 69.2555 17.6381 67.3009 19.5314C65.3463 21.4248 62.735 22.4885 60.0138 22.5H60C58.9994 22.5016 58.0038 22.3593 57.0438 22.0775L56.0613 23.0613C55.9219 23.2005 55.7564 23.3109 55.5743 23.3862C55.3922 23.4615 55.1971 23.5002 55 23.5H53.5V25C53.5 25.3978 53.342 25.7794 53.0607 26.0607C52.7794 26.342 52.3978 26.5 52 26.5H50.5V28C50.5 28.3978 50.342 28.7794 50.0607 29.0607C49.7794 29.342 49.3978 29.5 49 29.5H45C44.337 29.5 43.7011 29.2366 43.2322 28.7678C42.7634 28.2989 42.5 27.663 42.5 27V23.4137C42.4991 23.0853 42.5634 22.76 42.6891 22.4566C42.8149 22.1532 42.9996 21.8778 43.2325 21.6462L49.9225 14.9563C49.4988 13.4992 49.3959 11.9676 49.621 10.467C49.846 8.96631 50.3936 7.53228 51.2262 6.26361C52.0587 4.99495 53.1562 3.9218 54.4433 3.11807C55.7304 2.31434 57.1764 1.79913 58.6818 1.60792C60.1871 1.41672 61.716 1.55406 63.1631 2.01048C64.6103 2.46691 65.9413 3.23157 67.0646 4.25182C68.1878 5.27207 69.0766 6.52365 69.6696 7.92037C70.2627 9.3171 70.546 10.8258 70.5 12.3425ZM65.3038 6.69625C64.5802 5.96613 63.713 5.394 62.7571 5.01598C61.8012 4.63796 60.7773 4.46227 59.75 4.5C55.75 4.625 52.5 7.98625 52.5 11.9862C52.4969 12.9358 52.6751 13.8772 53.025 14.76C53.143 15.0356 53.1756 15.3402 53.1188 15.6345C53.062 15.9288 52.9183 16.1994 52.7063 16.4112L45.5 23.625V26.5H47.5V25C47.5 24.6022 47.658 24.2206 47.9393 23.9393C48.2207 23.658 48.6022 23.5 49 23.5H50.5V22C50.5 21.6022 50.658 21.2206 50.9393 20.9393C51.2207 20.658 51.6022 20.5 52 20.5H54.375L55.5813 19.2938C55.7932 19.0815 56.064 18.9376 56.3586 18.8808C56.6532 18.824 56.958 18.8568 57.2338 18.975C58.1141 19.3243 59.0529 19.5025 60 19.5H60.01C64.01 19.5 67.3688 16.2413 67.4963 12.25C67.5339 11.2231 67.3586 10.1995 66.9813 9.24366C66.6039 8.28784 66.0328 7.42049 65.3038 6.69625Z" fill="white"/>
</g>
<defs>
<clipPath id="clip0_27_4364">
<rect width="72" height="32" rx="5" fill="white"/>
</clipPath>
</defs>
</svg>
