<svg width="72" height="32" viewBox="0 0 72 32" fill="none" xmlns="http://www.w3.org/2000/svg">
<g clip-path="url(#clip0_27_2801)">
<path d="M27 5H5C4.46957 5 3.96086 5.21071 3.58579 5.58579C3.21071 5.96086 3 6.46957 3 7V25C3 25.5304 3.21071 26.0391 3.58579 26.4142C3.96086 26.7893 4.46957 27 5 27H27C27.5304 27 28.0391 26.7893 28.4142 26.4142C28.7893 26.0391 29 25.5304 29 25V7C29 6.46957 28.7893 5.96086 28.4142 5.58579C28.0391 5.21071 27.5304 5 27 5ZM23 17C23 17.2652 22.8946 17.5196 22.7071 17.7071C22.5196 17.8946 22.2652 18 22 18H12.4137L13.7075 19.2925C13.8004 19.3854 13.8741 19.4957 13.9244 19.6171C13.9747 19.7385 14.0006 19.8686 14.0006 20C14.0006 20.1314 13.9747 20.2615 13.9244 20.3829C13.8741 20.5043 13.8004 20.6146 13.7075 20.7075C13.6146 20.8004 13.5043 20.8741 13.3829 20.9244C13.2615 20.9747 13.1314 21.0006 13 21.0006C12.8686 21.0006 12.7385 20.9747 12.6171 20.9244C12.4957 20.8741 12.3854 20.8004 12.2925 20.7075L9.2925 17.7075C9.19952 17.6146 9.12576 17.5043 9.07544 17.3829C9.02512 17.2615 8.99921 17.1314 8.99921 17C8.99921 16.8686 9.02512 16.7385 9.07544 16.6171C9.12576 16.4957 9.19952 16.3854 9.2925 16.2925L12.2925 13.2925C12.4801 13.1049 12.7346 12.9994 13 12.9994C13.2654 12.9994 13.5199 13.1049 13.7075 13.2925C13.8951 13.4801 14.0006 13.7346 14.0006 14C14.0006 14.2654 13.8951 14.5199 13.7075 14.7075L12.4137 16H21V13C21 12.7348 21.1054 12.4804 21.2929 12.2929C21.4804 12.1054 21.7348 12 22 12C22.2652 12 22.5196 12.1054 22.7071 12.2929C22.8946 12.4804 23 12.7348 23 13V17Z" fill="white"/>
<path d="M48.9388 18.0613C48.7989 17.9219 48.688 17.7563 48.6122 17.574C48.5365 17.3917 48.4976 17.1962 48.4976 16.9988C48.4976 16.8013 48.5365 16.6059 48.6122 16.4235C48.688 16.2412 48.7989 16.0756 48.9388 15.9362L51.9388 12.9362C52.2205 12.6545 52.6027 12.4961 53.0013 12.4961C53.3998 12.4961 53.782 12.6545 54.0638 12.9362C54.3455 13.218 54.5039 13.6002 54.5039 13.9987C54.5039 14.3973 54.3455 14.7795 54.0638 15.0612L53.625 15.5H60.5V13C60.5 12.6022 60.658 12.2206 60.9393 11.9393C61.2206 11.658 61.6022 11.5 62 11.5C62.3978 11.5 62.7794 11.658 63.0607 11.9393C63.342 12.2206 63.5 12.6022 63.5 13V17C63.5 17.3978 63.342 17.7794 63.0607 18.0607C62.7794 18.342 62.3978 18.5 62 18.5H53.625L54.065 18.9387C54.3468 19.2205 54.5051 19.6027 54.5051 20.0012C54.5051 20.3998 54.3468 20.782 54.065 21.0637C53.7832 21.3455 53.401 21.5039 53.0025 21.5039C52.604 21.5039 52.2218 21.3455 51.94 21.0637L48.9388 18.0613ZM69.5 7V25C69.5 25.663 69.2366 26.2989 68.7678 26.7678C68.2989 27.2366 67.663 27.5 67 27.5H45C44.337 27.5 43.7011 27.2366 43.2322 26.7678C42.7634 26.2989 42.5 25.663 42.5 25V7C42.5 6.33696 42.7634 5.70107 43.2322 5.23223C43.7011 4.76339 44.337 4.5 45 4.5H67C67.663 4.5 68.2989 4.76339 68.7678 5.23223C69.2366 5.70107 69.5 6.33696 69.5 7ZM66.5 7.5H45.5V24.5H66.5V7.5Z" fill="white"/>
</g>
<defs>
<clipPath id="clip0_27_2801">
<rect width="72" height="32" rx="5" fill="white"/>
</clipPath>
</defs>
</svg>
