<svg width="72" height="32" viewBox="0 0 72 32" fill="none" xmlns="http://www.w3.org/2000/svg">
<g clip-path="url(#clip0_27_1287)">
<path d="M29.4999 6.12498C29.4983 5.50832 29.3143 4.90593 28.971 4.39363C28.6278 3.88134 28.1406 3.48205 27.5709 3.24605C27.0012 3.01004 26.3744 2.94786 25.7694 3.06734C25.1645 3.18681 24.6084 3.48261 24.1712 3.91748L17.8949 10.1925L2.2924 25.8C2.16624 25.9262 2.07617 26.0839 2.03154 26.2567C1.9869 26.4295 1.98932 26.6111 2.03856 26.7827C2.08779 26.9542 2.18204 27.1095 2.31152 27.2323C2.441 27.3552 2.601 27.4411 2.7749 27.4812C4.25868 27.8252 5.77678 27.9992 7.2999 28C11.4187 28 15.5387 26.725 19.4174 24.2212C23.3874 21.6587 25.6912 18.7437 25.7924 18.6212C25.9431 18.4289 26.0181 18.1881 26.0034 17.9442C25.9887 17.7003 25.8851 17.4703 25.7124 17.2975L22.6637 14.25L28.5862 8.32623C28.8759 8.03758 29.1058 7.69453 29.2626 7.31677C29.4195 6.93901 29.5001 6.53399 29.4999 6.12498ZM18.2787 22.575C13.9749 25.3375 9.53615 26.44 5.05865 25.8625L18.2499 12.6675L23.6362 18.055C22.0503 19.7839 20.2499 21.3029 18.2787 22.575Z" fill="white"/>
<path d="M69.3375 3.66249C68.5914 2.91689 67.5798 2.49805 66.525 2.49805C65.4702 2.49805 64.4586 2.91689 63.7125 3.66249L41.94 25.445C41.7503 25.6342 41.6147 25.8708 41.5474 26.1302C41.4801 26.3896 41.4834 26.6623 41.5572 26.9199C41.6309 27.1775 41.7724 27.4107 41.9667 27.5951C42.1611 27.7796 42.4014 27.9086 42.6625 27.9687C44.184 28.3211 45.7407 28.4993 47.3025 28.5C51.5162 28.5 55.7287 27.1975 59.69 24.6412C63.73 22.0337 66.085 19.0537 66.1825 18.9287C66.408 18.6396 66.5199 18.2779 66.4968 17.9119C66.4738 17.5459 66.3175 17.2011 66.0575 16.9425L63.875 14.75L69.3375 9.28625C70.0818 8.53972 70.4998 7.52855 70.4998 6.47437C70.4998 5.42019 70.0818 4.40902 69.3375 3.66249ZM57.9837 22.17C54.125 24.64 50.16 25.75 46.16 25.4675L58.25 13.375L60.6875 15.8137L62.9375 18.0637C61.4553 19.6245 59.7923 21.0029 57.9837 22.17ZM67.2162 7.17L61.75 12.625L60.375 11.25L65.8375 5.78499C66.0239 5.62456 66.2641 5.54052 66.5099 5.54972C66.7557 5.55892 66.989 5.66068 67.1629 5.8346C67.3368 6.00853 67.4386 6.24177 67.4478 6.48756C67.457 6.73336 67.3729 6.97355 67.2125 7.16L67.2162 7.17Z" fill="white"/>
</g>
<defs>
<clipPath id="clip0_27_1287">
<rect width="72" height="32" rx="5" fill="white"/>
</clipPath>
</defs>
</svg>
