<svg width="72" height="32" viewBox="0 0 72 32" fill="none" xmlns="http://www.w3.org/2000/svg">
<g clip-path="url(#clip0_27_1292)">
<path d="M26.9399 26.6575L20.5637 9.125L21.6999 6H22.9999C23.2652 6 23.5195 5.89464 23.7071 5.70711C23.8946 5.51957 23.9999 5.26522 23.9999 5C23.9999 4.73478 23.8946 4.48043 23.7071 4.29289C23.5195 4.10536 23.2652 4 22.9999 4H10.9999C10.7347 4 10.4804 4.10536 10.2928 4.29289C10.1053 4.48043 9.99995 4.73478 9.99995 5C9.99995 5.26522 10.1053 5.51957 10.2928 5.70711C10.4804 5.89464 10.7347 6 10.9999 6H11.5724L4.05995 26.6575C4.01494 26.781 3.99473 26.9122 4.00047 27.0435C4.00621 27.1749 4.03778 27.3038 4.0934 27.4229C4.14901 27.542 4.22756 27.649 4.32456 27.7377C4.42156 27.8265 4.53511 27.8952 4.6587 27.94C4.76818 27.9794 4.8836 27.9997 4.99995 28C5.20531 28 5.4057 27.9368 5.57387 27.8189C5.74205 27.7011 5.86987 27.5343 5.93995 27.3412L7.15495 24H13.0299L12.0624 26.6575C12.0174 26.781 11.9972 26.9122 12.003 27.0435C12.0087 27.1749 12.0403 27.3038 12.0959 27.4229C12.1515 27.542 12.2301 27.649 12.3271 27.7377C12.4241 27.8265 12.5376 27.8952 12.6612 27.94C12.7699 27.9791 12.8844 27.9994 12.9999 28C13.2053 28 13.4057 27.9368 13.5739 27.8189C13.7421 27.7011 13.8699 27.5343 13.9399 27.3412L16.2499 21H22.7499L25.0562 27.3412C25.1265 27.5349 25.2549 27.7021 25.4238 27.82C25.5927 27.9379 25.7939 28.0008 25.9999 28C26.1163 27.9997 26.2317 27.9794 26.3412 27.94C26.4648 27.8952 26.5783 27.8265 26.6753 27.7377C26.7723 27.649 26.8509 27.542 26.9065 27.4229C26.9621 27.3038 26.9937 27.1749 26.9994 27.0435C27.0052 26.9122 26.985 26.781 26.9399 26.6575ZM13.6737 8H17.4237C17.6889 8 17.9433 8.10536 18.1308 8.29289C18.3183 8.48043 18.4237 8.73478 18.4237 9C18.4237 9.26522 18.3183 9.51957 18.1308 9.70711C17.9433 9.89464 17.6889 10 17.4237 10H13.6737C13.4085 10 13.1541 9.89464 12.9666 9.70711C12.7791 9.51957 12.6737 9.26522 12.6737 9C12.6737 8.73478 12.7791 8.48043 12.9666 8.29289C13.1541 8.10536 13.4085 8 13.6737 8ZM13.7812 20H10.0374C9.77223 20 9.51788 19.8946 9.33034 19.7071C9.1428 19.5196 9.03745 19.2652 9.03745 19C9.03745 18.7348 9.1428 18.4804 9.33034 18.2929C9.51788 18.1054 9.77223 18 10.0374 18H13.7874C14.0527 18 14.307 18.1054 14.4946 18.2929C14.6821 18.4804 14.7874 18.7348 14.7874 19C14.7874 19.2652 14.6821 19.5196 14.4946 19.7071C14.307 19.8946 14.0527 20 13.7874 20H13.7812ZM15.5987 15H11.8549C11.5897 15 11.3354 14.8946 11.1478 14.7071C10.9603 14.5196 10.8549 14.2652 10.8549 14C10.8549 13.7348 10.9603 13.4804 11.1478 13.2929C11.3354 13.1054 11.5897 13 11.8549 13H15.6049C15.8702 13 16.1245 13.1054 16.3121 13.2929C16.4996 13.4804 16.6049 13.7348 16.6049 14C16.6049 14.2652 16.4996 14.5196 16.3121 14.7071C16.1245 14.8946 15.8702 15 15.6049 15H15.5987ZM16.9737 19L19.4999 12.0513L22.0262 19H16.9737Z" fill="white"/>
<path d="M67.4088 26.4875L61.0963 9.125L62.05 6.5H63C63.3979 6.5 63.7794 6.34196 64.0607 6.06066C64.342 5.77936 64.5 5.39782 64.5 5C64.5 4.60218 64.342 4.22064 64.0607 3.93934C63.7794 3.65804 63.3979 3.5 63 3.5H51C50.6161 3.50273 50.2478 3.65259 49.9711 3.91871C49.6943 4.18483 49.5301 4.54695 49.5123 4.93049C49.4945 5.31403 49.6245 5.68978 49.8755 5.98037C50.1264 6.27096 50.4792 6.45425 50.8613 6.4925L43.5913 26.4925C43.4556 26.8661 43.4738 27.2783 43.6419 27.6386C43.8099 27.9988 44.1141 28.2776 44.4875 28.4137C44.6519 28.4725 44.8255 28.5017 45 28.5C45.308 28.5001 45.6085 28.4053 45.8608 28.2286C46.1131 28.052 46.3048 27.8019 46.41 27.5125L47.5 24.5H52.3125L51.59 26.4875C51.4544 26.8613 51.4728 27.2736 51.6411 27.6339C51.8094 27.9942 52.1138 28.2729 52.4875 28.4088C52.6516 28.4693 52.8251 28.5002 53 28.5C53.308 28.5001 53.6085 28.4053 53.8608 28.2286C54.1131 28.052 54.3048 27.8019 54.41 27.5125L56.5963 21.5H62.4038L64.59 27.5125C64.6953 27.8019 64.887 28.052 65.1393 28.2286C65.3915 28.4053 65.6921 28.5001 66 28.5C66.1749 28.5001 66.3484 28.4692 66.5125 28.4088C66.886 28.2726 67.1902 27.9938 67.3582 27.6336C67.5263 27.2733 67.5445 26.8611 67.4088 26.4875ZM55.5863 15.5H50.7775L51.875 12.5H56.6825L55.5863 15.5ZM57.7675 9.5H52.96L54.0513 6.5H58.8588L57.7675 9.5ZM48.5963 21.5L49.6875 18.5H54.5L53.4088 21.5H48.5963ZM57.6875 18.5L59.5 13.5138L61.3125 18.5H57.6875Z" fill="white"/>
</g>
<defs>
<clipPath id="clip0_27_1292">
<rect width="72" height="32" rx="5" fill="white"/>
</clipPath>
</defs>
</svg>
