<svg width="72" height="32" viewBox="0 0 72 32" fill="none" xmlns="http://www.w3.org/2000/svg">
<g clip-path="url(#clip0_27_1307)">
<path d="M22 9.3475V9C22 8.46957 21.7893 7.96086 21.4142 7.58579C21.0392 7.21071 20.5305 7 20 7H17V2C17 1.73478 16.8947 1.48043 16.7071 1.29289C16.5196 1.10536 16.2652 1 16 1C15.7348 1 15.4805 1.10536 15.2929 1.29289C15.1054 1.48043 15 1.73478 15 2V7H12C11.4696 7 10.9609 7.21071 10.5858 7.58579C10.2107 7.96086 10 8.46957 10 9V9.3475C7.6033 10.4799 5.57833 12.2709 4.16171 14.5114C2.74509 16.7519 1.99533 19.3492 2.00002 22C2.00002 22.2652 2.10538 22.5196 2.29292 22.7071C2.48045 22.8946 2.73481 23 3.00002 23H11C11 24.3261 11.5268 25.5979 12.4645 26.5355C13.4022 27.4732 14.6739 28 16 28C17.3261 28 18.5979 27.4732 19.5356 26.5355C20.4732 25.5979 21 24.3261 21 23H29C29.2652 23 29.5196 22.8946 29.7071 22.7071C29.8947 22.5196 30 22.2652 30 22C30.0047 19.3492 29.255 16.7519 27.8383 14.5114C26.4217 12.2709 24.3967 10.4799 22 9.3475ZM16 26C15.2044 26 14.4413 25.6839 13.8787 25.1213C13.3161 24.5587 13 23.7956 13 23H19C19 23.7956 18.684 24.5587 18.1213 25.1213C17.5587 25.6839 16.7957 26 16 26Z" fill="white"/>
<path d="M62.5 9.035V9C62.5 8.33696 62.2366 7.70107 61.7678 7.23223C61.299 6.76339 60.6631 6.5 60 6.5H57.5V2C57.5 1.60218 57.342 1.22064 57.0607 0.93934C56.7794 0.658035 56.3978 0.5 56 0.5C55.6022 0.5 55.2207 0.658035 54.9394 0.93934C54.6581 1.22064 54.5 1.60218 54.5 2V6.5H52C51.337 6.5 50.7011 6.76339 50.2323 7.23223C49.7634 7.70107 49.5 8.33696 49.5 9V9.035C47.0923 10.2376 45.0678 12.0883 43.6545 14.3787C42.2412 16.6692 41.4951 19.3086 41.5 22C41.5 22.3978 41.6581 22.7794 41.9394 23.0607C42.2207 23.342 42.6022 23.5 43 23.5H50.5238C50.651 24.8644 51.2829 26.1321 52.2958 27.055C53.3088 27.9779 54.6297 28.4894 56 28.4894C57.3703 28.4894 58.6913 27.9779 59.7042 27.055C60.7171 26.1321 61.3491 24.8644 61.4763 23.5H69C69.3979 23.5 69.7794 23.342 70.0607 23.0607C70.342 22.7794 70.5 22.3978 70.5 22C70.505 19.3086 69.7588 16.6692 68.3455 14.3787C66.9322 12.0883 64.9078 10.2376 62.5 9.035ZM56 25.5C55.4237 25.5001 54.865 25.3011 54.4186 24.9367C53.9721 24.5722 53.6653 24.0647 53.55 23.5H58.45C58.3348 24.0647 58.0279 24.5722 57.5815 24.9367C57.135 25.3011 56.5764 25.5001 56 25.5ZM44.5975 20.5C44.8568 18.5007 45.6386 16.605 46.864 15.0041C48.0895 13.4032 49.7152 12.1536 51.5775 11.3813C51.8502 11.2675 52.0833 11.0757 52.2474 10.83C52.4115 10.5842 52.4994 10.2955 52.5 10V9.5H59.5V10C59.4999 10.2961 59.5874 10.5857 59.7516 10.8322C59.9158 11.0786 60.1492 11.271 60.4225 11.385C62.2856 12.1579 63.912 13.4084 65.1375 15.0105C66.363 16.6126 67.1443 18.5095 67.4025 20.51L44.5975 20.5Z" fill="white"/>
</g>
<defs>
<clipPath id="clip0_27_1307">
<rect width="72" height="32" rx="5" fill="white"/>
</clipPath>
</defs>
</svg>
