<svg width="72" height="32" viewBox="0 0 72 32" fill="none" xmlns="http://www.w3.org/2000/svg">
<g clip-path="url(#clip0_27_2811)">
<path d="M29 21H28V9C28 8.20435 27.6839 7.44129 27.1213 6.87868C26.5587 6.31607 25.7956 6 25 6H7C6.20435 6 5.44129 6.31607 4.87868 6.87868C4.31607 7.44129 4 8.20435 4 9V21H3C2.73478 21 2.48043 21.1054 2.29289 21.2929C2.10536 21.4804 2 21.7348 2 22V24C2 24.7956 2.31607 25.5587 2.87868 26.1213C3.44129 26.6839 4.20435 27 5 27H27C27.7956 27 28.5587 26.6839 29.1213 26.1213C29.6839 25.5587 30 24.7956 30 24V22C30 21.7348 29.8946 21.4804 29.7071 21.2929C29.5196 21.1054 29.2652 21 29 21ZM14 9H18C18.2652 9 18.5196 9.10536 18.7071 9.29289C18.8946 9.48043 19 9.73478 19 10C19 10.2652 18.8946 10.5196 18.7071 10.7071C18.5196 10.8946 18.2652 11 18 11H14C13.7348 11 13.4804 10.8946 13.2929 10.7071C13.1054 10.5196 13 10.2652 13 10C13 9.73478 13.1054 9.48043 13.2929 9.29289C13.4804 9.10536 13.7348 9 14 9ZM28 24C28 24.2652 27.8946 24.5196 27.7071 24.7071C27.5196 24.8946 27.2652 25 27 25H5C4.73478 25 4.48043 24.8946 4.29289 24.7071C4.10536 24.5196 4 24.2652 4 24V23H28V24Z" fill="white"/>
<path d="M69 19.5H68.5V9C68.5 8.07174 68.1313 7.1815 67.4749 6.52513C66.8185 5.86875 65.9283 5.5 65 5.5H47C46.0717 5.5 45.1815 5.86875 44.5251 6.52513C43.8687 7.1815 43.5 8.07174 43.5 9V19.5H43C42.6022 19.5 42.2206 19.658 41.9393 19.9393C41.658 20.2206 41.5 20.6022 41.5 21V24C41.5 24.9283 41.8687 25.8185 42.5251 26.4749C43.1815 27.1313 44.0717 27.5 45 27.5H67C67.9283 27.5 68.8185 27.1313 69.4749 26.4749C70.1313 25.8185 70.5 24.9283 70.5 24V21C70.5 20.6022 70.342 20.2206 70.0607 19.9393C69.7794 19.658 69.3978 19.5 69 19.5ZM46.5 9C46.5 8.86739 46.5527 8.74021 46.6464 8.64645C46.7402 8.55268 46.8674 8.5 47 8.5H65C65.1326 8.5 65.2598 8.55268 65.3536 8.64645C65.4473 8.74021 65.5 8.86739 65.5 9V19.5H46.5V9ZM67.5 24C67.5 24.1326 67.4473 24.2598 67.3536 24.3536C67.2598 24.4473 67.1326 24.5 67 24.5H45C44.8674 24.5 44.7402 24.4473 44.6464 24.3536C44.5527 24.2598 44.5 24.1326 44.5 24V22.5H67.5V24ZM59.5 12C59.5 12.3978 59.342 12.7794 59.0607 13.0607C58.7794 13.342 58.3978 13.5 58 13.5H54C53.6022 13.5 53.2206 13.342 52.9393 13.0607C52.658 12.7794 52.5 12.3978 52.5 12C52.5 11.6022 52.658 11.2206 52.9393 10.9393C53.2206 10.658 53.6022 10.5 54 10.5H58C58.3978 10.5 58.7794 10.658 59.0607 10.9393C59.342 11.2206 59.5 11.6022 59.5 12Z" fill="white"/>
</g>
<defs>
<clipPath id="clip0_27_2811">
<rect width="72" height="32" rx="5" fill="white"/>
</clipPath>
</defs>
</svg>
