<svg width="72" height="32" viewBox="0 0 72 32" fill="none" xmlns="http://www.w3.org/2000/svg">
<g clip-path="url(#clip0_27_5338)">
<path d="M11.6785 17.0137C11.3204 16.9689 10.9567 17.0153 10.6212 17.1486C10.2858 17.2819 9.98947 17.4978 9.75977 17.7762C10.9235 18.5962 12.5735 19.1925 14.4385 19.41C13.801 17.9162 12.7148 17.125 11.6785 17.0137Z" fill="white"/>
<path d="M28 6V26C28 26.5304 27.7893 27.0391 27.4142 27.4142C27.0391 27.7893 26.5304 28 26 28H15.9563C15.8643 27.9997 15.7743 27.974 15.696 27.9259C15.6177 27.8777 15.5542 27.8089 15.5125 27.727C15.4708 27.6451 15.4524 27.5533 15.4595 27.4616C15.4665 27.37 15.4987 27.282 15.5525 27.2075C16.49 25.9288 17 24.3025 17 22.4775C17 22.1288 16.9837 21.795 16.9562 21.4713C22.0987 21.1663 26 18.4338 26 15C26 11.3562 21.6075 8.5 16 8.5C10.3925 8.5 6 11.355 6 15C6 18.4137 9.8525 21.1337 14.9475 21.4662C14.9827 21.8022 15.0003 22.1397 15 22.4775C15 24.68 14.0437 26.4713 12.375 27.3925C11.6215 27.8107 10.7702 28.0204 9.90875 28H6C5.46957 28 4.96086 27.7893 4.58579 27.4142C4.21071 27.0391 4 26.5304 4 26V6C4 5.46957 4.21071 4.96086 4.58579 4.58579C4.96086 4.21071 5.46957 4 6 4H26C26.5304 4 27.0391 4.21071 27.4142 4.58579C27.7893 4.96086 28 5.46957 28 6ZM24 15C24 12.5612 20.3363 10.5 16 10.5C11.6638 10.5 8 12.56 8 15C8.00593 15.4682 8.13528 15.9265 8.375 16.3288C8.82071 15.8537 9.37066 15.4887 9.9815 15.2624C10.5923 15.0362 11.2474 14.9549 11.895 15.025C13.77 15.2287 15.75 16.7 16.5875 19.485C20.6625 19.3088 24 17.3275 24 15Z" fill="white"/>
<path d="M65.9788 7.06625C63.29 5.41125 59.75 4.5 56 4.5C52.25 4.5 48.71 5.41125 46.0212 7.06625C43.1062 8.86125 41.5 11.325 41.5 14C41.5 16.675 43.1062 19.1425 46.0212 20.9375C48.3312 22.3587 51.2712 23.23 54.4325 23.4475C54.1825 24.8312 53.2962 25.6663 52.53 26.14C50.845 27.1787 48.4363 27.2875 46.6725 26.4025C46.4962 26.3142 46.3042 26.2615 46.1076 26.2473C45.9109 26.2332 45.7133 26.258 45.5262 26.3202C45.3391 26.3824 45.1661 26.4809 45.017 26.6099C44.868 26.739 44.7458 26.8962 44.6575 27.0725C44.5692 27.2488 44.5165 27.4408 44.5023 27.6374C44.4882 27.8341 44.513 28.0317 44.5752 28.2188C44.6374 28.4059 44.7359 28.5789 44.8649 28.728C44.994 28.877 45.1512 28.9992 45.3275 29.0875C46.5724 29.6966 47.9416 30.0089 49.3275 30C51.0079 30.0119 52.6591 29.5608 54.1 28.6963C56.0312 27.5038 57.225 25.6237 57.4538 23.4587C60.6538 23.2537 63.6375 22.3775 65.9737 20.94C68.8937 19.145 70.5 16.6812 70.5 14C70.5 11.3187 68.8937 8.86125 65.9788 7.06625ZM49.1737 19.1912C49.4424 18.7802 49.821 18.4528 50.2665 18.2462C50.7119 18.0396 51.2064 17.9621 51.6938 18.0225C52.9888 18.1962 53.7612 19.2013 54.1587 20.4137C52.4448 20.2634 50.7637 19.8525 49.1737 19.195V19.1912ZM57.2825 20.4587C57.0686 19.338 56.6093 18.2785 55.9375 17.3563C55.4836 16.7342 54.9095 16.2095 54.2493 15.8132C53.5891 15.4169 52.8562 15.1569 52.0938 15.0487C49.8438 14.7475 47.7788 15.785 46.5813 17.6737C45.275 16.625 44.5 15.355 44.5 14C44.5 10.4762 49.7663 7.5 56 7.5C62.2337 7.5 67.5 10.4775 67.5 14C67.5 17.2825 62.9387 20.0887 57.2825 20.4625V20.4587Z" fill="white"/>
</g>
<defs>
<clipPath id="clip0_27_5338">
<rect width="72" height="32" rx="5" fill="white"/>
</clipPath>
</defs>
</svg>
