<svg width="72" height="32" viewBox="0 0 72 32" fill="none" xmlns="http://www.w3.org/2000/svg">
<g clip-path="url(#clip0_27_2199)">
<path d="M27.9311 5.00874C27.9168 4.7641 27.8132 4.53322 27.6399 4.35993C27.4666 4.18665 27.2357 4.08303 26.9911 4.06874C17.4748 3.50999 9.85234 6.37499 6.60234 11.75C5.47579 13.5886 4.92066 15.7204 5.00734 17.875C5.06391 19.2528 5.34424 20.6122 5.83734 21.9C5.86631 21.9792 5.91487 22.0499 5.9785 22.1053C6.04212 22.1607 6.11874 22.1992 6.20121 22.217C6.28369 22.2348 6.36934 22.2315 6.45019 22.2074C6.53103 22.1832 6.60445 22.1389 6.66359 22.0787L17.2886 11.2912C17.3815 11.1983 17.4918 11.1246 17.6132 11.0743C17.7346 11.0241 17.8647 10.9982 17.9961 10.9982C18.1275 10.9982 18.2576 11.0241 18.379 11.0743C18.5004 11.1246 18.6107 11.1983 18.7036 11.2912C18.7965 11.3842 18.8702 11.4945 18.9205 11.6158C18.9708 11.7372 18.9966 11.8673 18.9966 11.9987C18.9966 12.1301 18.9708 12.2602 18.9205 12.3816C18.8702 12.503 18.7965 12.6133 18.7036 12.7062L7.09234 24.4925L5.31859 26.2662C5.13412 26.4458 5.02399 26.6883 5.01009 26.9453C4.9962 27.2024 5.07955 27.4553 5.24359 27.6537C5.33342 27.7578 5.44374 27.8422 5.56764 27.9017C5.69155 27.9611 5.8264 27.9945 5.96375 27.9995C6.10111 28.0045 6.23803 27.9812 6.36597 27.931C6.49391 27.8807 6.61011 27.8047 6.70734 27.7075L8.80609 25.6087C10.5736 26.4637 12.3573 26.93 14.1261 26.9925C14.2653 26.9975 14.404 27 14.5423 27C16.5566 27.0051 18.5326 26.4503 20.2498 25.3975C25.6248 22.1475 28.4911 14.5262 27.9311 5.00874Z" fill="white"/>
<path d="M68.4274 4.98251C68.406 4.61555 68.2505 4.26923 67.9906 4.0093C67.7307 3.74938 67.3844 3.59394 67.0174 3.57251C62.0674 3.28126 57.6936 3.86501 54.0174 5.30626C50.4999 6.68501 47.7886 8.82252 46.1736 11.4875C43.9711 15.1263 43.9661 19.5438 46.1174 23.7613L43.9386 25.94C43.7991 26.0795 43.6884 26.2452 43.6129 26.4275C43.5374 26.6098 43.4985 26.8052 43.4985 27.0025C43.4985 27.1998 43.5374 27.3952 43.6129 27.5775C43.6884 27.7598 43.7991 27.9255 43.9386 28.065C44.2204 28.3468 44.6026 28.5051 45.0011 28.5051C45.1985 28.5051 45.3939 28.4662 45.5762 28.3907C45.7585 28.3152 45.9241 28.2045 46.0636 28.065L48.2424 25.8863C50.3349 26.9538 52.4774 27.4925 54.5486 27.4925C56.653 27.4991 58.7183 26.9237 60.5161 25.83C63.1811 24.215 65.3186 21.5025 66.6974 17.9863C68.1349 14.3075 68.7186 9.93251 68.4274 4.98251ZM58.9574 23.26C56.4461 24.7813 53.4999 24.8963 50.4924 23.625L61.0599 13.0575C61.1994 12.918 61.3101 12.7523 61.3856 12.57C61.4611 12.3877 61.5 12.1923 61.5 11.995C61.5 11.7977 61.4611 11.6023 61.3856 11.42C61.3101 11.2377 61.1994 11.072 61.0599 10.9325C60.9204 10.793 60.7547 10.6823 60.5724 10.6068C60.3901 10.5313 60.1947 10.4924 59.9974 10.4924C59.8001 10.4924 59.6047 10.5313 59.4224 10.6068C59.2401 10.6823 59.0744 10.793 58.9349 10.9325L48.3749 21.5075C47.1074 18.5075 47.2224 15.5538 48.7499 13.0425C51.3636 8.72626 57.5674 6.32751 65.4999 6.51126C65.6724 14.4413 63.2736 20.6463 58.9574 23.26Z" fill="white"/>
</g>
<defs>
<clipPath id="clip0_27_2199">
<rect width="72" height="32" rx="5" fill="white"/>
</clipPath>
</defs>
</svg>
