<svg width="72" height="32" viewBox="0 0 72 32" fill="none" xmlns="http://www.w3.org/2000/svg">
<g clip-path="url(#clip0_27_4770)">
<path d="M30.9925 9.90125C30.9762 9.73333 30.9177 9.57226 30.8224 9.43304C30.7271 9.29382 30.5981 9.18097 30.4475 9.105L24.6612 6.2125C23.9425 4.905 22.1512 4 20 4C17.1963 4 15 5.5375 15 7.5C15.0003 7.77741 15.045 8.05299 15.1325 8.31625L12.6925 9.53625C11.8415 9.17388 10.9249 8.99131 10 9C7.19625 9 5 10.5375 5 12.5C5.00027 12.7774 5.04501 13.053 5.1325 13.3162L1.5525 15.105C1.38636 15.1881 1.24667 15.3159 1.14908 15.474C1.05149 15.6321 0.999867 15.8142 1 16V24C0.999867 24.1858 1.05149 24.3679 1.14908 24.526C1.24667 24.6841 1.38636 24.8119 1.5525 24.895L9.5525 28.895C9.69143 28.9645 9.84465 29.0007 10 29.0007C10.1554 29.0007 10.3086 28.9645 10.4475 28.895L30.4475 18.895C30.6136 18.8119 30.7533 18.6841 30.8509 18.526C30.9485 18.3679 31.0001 18.1858 31 18V10C31.0004 9.96693 30.9979 9.93389 30.9925 9.90125ZM10 18.8825L4.23625 16L6.375 14.9312C7.28 15.5925 8.56 16 10 16C12.8038 16 15 14.4625 15 12.5C14.9953 11.919 14.8047 11.3549 14.4563 10.89L16.375 9.93125C17.28 10.5925 18.56 11 20 11C22.2975 11 24.1863 9.9675 24.7938 8.515L27.7638 10L10 18.8825ZM20 6C21.5287 6 22.7113 6.625 22.9538 7.265C22.9538 7.27625 22.9625 7.2875 22.9675 7.3C22.9886 7.36458 22.9996 7.43205 23 7.5C23 8.2075 21.7175 9 20 9C18.7925 9 17.8 8.6075 17.3175 8.125C17.2853 8.08305 17.2493 8.04413 17.21 8.00875C17.0843 7.86788 17.0103 7.68849 17 7.5C17 6.7925 18.2825 6 20 6ZM10 11C10.7422 10.9871 11.4767 11.153 12.1412 11.4838C12.1811 11.5102 12.2229 11.5336 12.2662 11.5538C12.7275 11.83 13 12.1788 13 12.5C13 13.2075 11.7175 14 10 14C8.79125 14 7.79875 13.6075 7.31625 13.125C7.28455 13.0834 7.24943 13.0445 7.21125 13.0087C7.0848 12.8683 7.01025 12.6887 7 12.5C7 11.7925 8.2825 11 10 11ZM3 17.6175L9 20.6175V26.3825L3 23.3825V17.6175Z" fill="white"/>
<path d="M70.67 9.66L65.4675 7.05625C65.1725 5.03 62.875 3.5 60 3.5C56.9163 3.5 54.5 5.2575 54.5 7.5C54.5008 7.98817 54.616 8.46936 54.8363 8.905L53.6613 9.4925C52.695 8.875 51.4188 8.5 50 8.5C46.9163 8.5 44.5 10.2575 44.5 12.5C44.5008 12.9882 44.616 13.4694 44.8363 13.905L41.3288 15.655C41.0792 15.7799 40.8694 15.9719 40.723 16.2096C40.5766 16.4472 40.4993 16.7209 40.5 17V24C40.5 24.2785 40.5776 24.5514 40.7239 24.7883C40.8703 25.0252 41.0797 25.2166 41.3288 25.3412L49.3288 29.3412C49.5371 29.4455 49.767 29.4998 50 29.4998C50.233 29.4998 50.4629 29.4455 50.6713 29.3412L70.6713 19.3412C70.9203 19.2166 71.1297 19.0252 71.2761 18.7883C71.4224 18.5514 71.5 18.2785 71.5 18V11C71.4996 10.7216 71.4218 10.4488 71.2752 10.2122C71.1286 9.97554 70.9191 9.78434 70.67 9.66ZM50 19.3225L45.3538 17L47.33 16.0125C48.1815 16.3411 49.0873 16.5064 50 16.5C53.0838 16.5 55.5 14.7425 55.5 12.5C55.4992 12.3164 55.4825 12.1332 55.45 11.9525L57.325 11.0125C58.1781 11.3417 59.0856 11.5071 60 11.5C61.84 11.5 63.4413 10.875 64.4338 9.89375L66.6463 11L50 19.3225ZM60 6.5C61.6138 6.5 62.5 7.25 62.5 7.5C62.5 7.75 61.6138 8.5 60 8.5C58.3863 8.5 57.5 7.75 57.5 7.5C57.5 7.25 58.3863 6.5 60 6.5ZM50 11.5C51.6138 11.5 52.5 12.25 52.5 12.5C52.5 12.75 51.6138 13.5 50 13.5C48.3863 13.5 47.5 12.75 47.5 12.5C47.5 12.25 48.3863 11.5 50 11.5ZM43.5 19.4275L48.5 21.9275V25.5725L43.5 23.0725V19.4275ZM51.5 25.5725V21.9275L68.5 13.4275V17.0725L51.5 25.5725Z" fill="white"/>
</g>
<defs>
<clipPath id="clip0_27_4770">
<rect width="72" height="32" rx="5" fill="white"/>
</clipPath>
</defs>
</svg>
