<svg width="72" height="32" viewBox="0 0 72 32" fill="none" xmlns="http://www.w3.org/2000/svg">
<g clip-path="url(#clip0_27_4775)">
<path d="M23 6H21V4C21 3.46957 20.7893 2.96086 20.4142 2.58579C20.0391 2.21071 19.5304 2 19 2H13C12.4696 2 11.9609 2.21071 11.5858 2.58579C11.2107 2.96086 11 3.46957 11 4V6H9C7.93913 6 6.92172 6.42143 6.17157 7.17157C5.42143 7.92172 5 8.93913 5 10V22C5.00084 22.8868 5.2958 23.7483 5.83867 24.4495C6.38155 25.1507 7.14168 25.6521 8 25.875V28C8 28.5304 8.21071 29.0391 8.58579 29.4142C8.96086 29.7893 9.46957 30 10 30H22C22.5304 30 23.0391 29.7893 23.4142 29.4142C23.7893 29.0391 24 28.5304 24 28V25.875C24.8583 25.6521 25.6185 25.1507 26.1613 24.4495C26.7042 23.7483 26.9992 22.8868 27 22V10C27 8.93913 26.5786 7.92172 25.8284 7.17157C25.0783 6.42143 24.0609 6 23 6ZM19.5 12.5C19.7967 12.5 20.0867 12.588 20.3334 12.7528C20.58 12.9176 20.7723 13.1519 20.8858 13.426C20.9993 13.7001 21.0291 14.0017 20.9712 14.2926C20.9133 14.5836 20.7704 14.8509 20.5607 15.0607C20.3509 15.2704 20.0836 15.4133 19.7926 15.4712C19.5017 15.5291 19.2001 15.4994 18.926 15.3858C18.6519 15.2723 18.4176 15.08 18.2528 14.8334C18.088 14.5867 18 14.2967 18 14C18 13.6022 18.158 13.2206 18.4393 12.9393C18.7206 12.658 19.1022 12.5 19.5 12.5ZM20.0338 19.8463C18.8236 20.6007 17.4261 21.0006 16 21.0006C14.5739 21.0006 13.1764 20.6007 11.9663 19.8463C11.7418 19.7047 11.5828 19.4798 11.5242 19.221C11.4656 18.9622 11.5122 18.6907 11.6538 18.4662C11.7953 18.2418 12.0202 18.0828 12.279 18.0242C12.5378 17.9656 12.8093 18.0122 13.0337 18.1537C13.9244 18.7065 14.9518 18.9994 16 18.9994C17.0482 18.9994 18.0756 18.7065 18.9662 18.1537C19.1907 18.0122 19.4622 17.9656 19.721 18.0242C19.9798 18.0828 20.2047 18.2418 20.3463 18.4662C20.4878 18.6907 20.5344 18.9622 20.4758 19.221C20.4172 19.4798 20.2582 19.7047 20.0338 19.8463ZM13 4H19V6H13V4ZM12.5 12.5C12.7967 12.5 13.0867 12.588 13.3334 12.7528C13.58 12.9176 13.7723 13.1519 13.8858 13.426C13.9994 13.7001 14.0291 14.0017 13.9712 14.2926C13.9133 14.5836 13.7704 14.8509 13.5607 15.0607C13.3509 15.2704 13.0836 15.4133 12.7926 15.4712C12.5017 15.5291 12.2001 15.4994 11.926 15.3858C11.6519 15.2723 11.4176 15.08 11.2528 14.8334C11.088 14.5867 11 14.2967 11 14C11 13.6022 11.158 13.2206 11.4393 12.9393C11.7206 12.658 12.1022 12.5 12.5 12.5ZM22 28H10V26H22V28Z" fill="white"/>
<path d="M50.5 14C50.5 13.6044 50.6173 13.2178 50.8371 12.8889C51.0568 12.56 51.3692 12.3036 51.7346 12.1522C52.1001 12.0009 52.5022 11.9613 52.8902 12.0384C53.2781 12.1156 53.6345 12.3061 53.9142 12.5858C54.1939 12.8655 54.3844 13.2219 54.4616 13.6098C54.5387 13.9978 54.4991 14.3999 54.3478 14.7654C54.1964 15.1308 53.94 15.4432 53.6111 15.6629C53.2822 15.8827 52.8956 16 52.5 16C51.9696 16 51.4609 15.7893 51.0858 15.4142C50.7107 15.0391 50.5 14.5304 50.5 14ZM59.5 12C59.1044 12 58.7178 12.1173 58.3889 12.3371C58.06 12.5568 57.8036 12.8692 57.6522 13.2346C57.5009 13.6001 57.4613 14.0022 57.5384 14.3902C57.6156 14.7781 57.8061 15.1345 58.0858 15.4142C58.3655 15.6939 58.7219 15.8844 59.1098 15.9616C59.4978 16.0387 59.8999 15.9991 60.2654 15.8478C60.6308 15.6964 60.9432 15.44 61.1629 15.1111C61.3827 14.7822 61.5 14.3956 61.5 14C61.5 13.4696 61.2893 12.9609 60.9142 12.5858C60.5391 12.2107 60.0304 12 59.5 12ZM58.7 17.7313C57.8891 18.2339 56.954 18.5001 56 18.5001C55.046 18.5001 54.1109 18.2339 53.3 17.7313C53.1334 17.6236 52.9471 17.5501 52.7518 17.5149C52.5566 17.4798 52.3563 17.4837 52.1626 17.5265C51.9689 17.5692 51.7856 17.65 51.6233 17.7641C51.461 17.8782 51.323 18.0233 51.2172 18.1911C51.1114 18.3589 51.0399 18.5461 51.0069 18.7417C50.9739 18.9373 50.98 19.1375 51.0249 19.3307C51.0698 19.5239 51.1526 19.7063 51.2685 19.8674C51.3844 20.0284 51.531 20.1648 51.7 20.2687C52.9899 21.0733 54.4797 21.4999 56 21.4999C57.5203 21.4999 59.0101 21.0733 60.3 20.2687C60.469 20.1648 60.6156 20.0284 60.7315 19.8674C60.8474 19.7063 60.9302 19.5239 60.9751 19.3307C61.02 19.1375 61.0261 18.9373 60.9931 18.7417C60.9601 18.5461 60.8886 18.3589 60.7828 18.1911C60.677 18.0233 60.539 17.8782 60.3767 17.7641C60.2144 17.65 60.0311 17.5692 59.8374 17.5265C59.6437 17.4837 59.4434 17.4798 59.2482 17.5149C59.0529 17.5501 58.8666 17.6236 58.7 17.7313ZM67.5 10.5V21.5C67.4987 22.4302 67.2097 23.3373 66.6726 24.0969C66.1355 24.8564 65.3766 25.4312 64.5 25.7425V28C64.5 28.663 64.2366 29.2989 63.7678 29.7678C63.2989 30.2366 62.663 30.5 62 30.5H50C49.337 30.5 48.7011 30.2366 48.2322 29.7678C47.7634 29.2989 47.5 28.663 47.5 28V25.7425C46.6234 25.4312 45.8645 24.8564 45.3274 24.0969C44.7903 23.3373 44.5013 22.4302 44.5 21.5V10.5C44.5 9.30653 44.9741 8.16193 45.818 7.31802C46.6619 6.47411 47.8065 6 49 6H50.5V4C50.5 3.33696 50.7634 2.70107 51.2322 2.23223C51.7011 1.76339 52.337 1.5 53 1.5H59C59.663 1.5 60.2989 1.76339 60.7678 2.23223C61.2366 2.70107 61.5 3.33696 61.5 4V6H63C64.1935 6 65.3381 6.47411 66.182 7.31802C67.0259 8.16193 67.5 9.30653 67.5 10.5ZM53.5 6H58.5V4.5H53.5V6ZM61.5 27.5V26H50.5V27.5H61.5ZM64.5 10.5C64.5 10.1022 64.342 9.72064 64.0607 9.43934C63.7794 9.15804 63.3978 9 63 9H49C48.6022 9 48.2206 9.15804 47.9393 9.43934C47.658 9.72064 47.5 10.1022 47.5 10.5V21.5C47.5 21.8978 47.658 22.2794 47.9393 22.5607C48.2206 22.842 48.6022 23 49 23H63C63.3978 23 63.7794 22.842 64.0607 22.5607C64.342 22.2794 64.5 21.8978 64.5 21.5V10.5Z" fill="white"/>
</g>
<defs>
<clipPath id="clip0_27_4775">
<rect width="72" height="32" rx="5" fill="white"/>
</clipPath>
</defs>
</svg>
