<svg width="72" height="32" viewBox="0 0 72 32" fill="none" xmlns="http://www.w3.org/2000/svg">
<g clip-path="url(#clip0_27_575)">
<path d="M19.5 14.5C19.5 15.163 19.2366 15.7989 18.7678 16.2678C18.2989 16.7366 17.663 17 17 17H14V12H17C17.663 12 18.2989 12.2634 18.7678 12.7322C19.2366 13.2011 19.5 13.837 19.5 14.5ZM29 16C29 18.5712 28.2376 21.0846 26.8091 23.2224C25.3807 25.3603 23.3503 27.0265 20.9749 28.0104C18.5995 28.9944 15.9856 29.2518 13.4638 28.7502C10.9421 28.2486 8.6257 27.0105 6.80762 25.1924C4.98953 23.3743 3.75141 21.0579 3.2498 18.5362C2.74819 16.0144 3.00563 13.4006 3.98957 11.0251C4.97351 8.64968 6.63975 6.61935 8.77759 5.1909C10.9154 3.76244 13.4288 3 16 3C19.4467 3.00364 22.7512 4.37445 25.1884 6.81163C27.6256 9.24882 28.9964 12.5533 29 16ZM21.5 14.5C21.5 13.3065 21.0259 12.1619 20.182 11.318C19.3381 10.4741 18.1935 10 17 10H13C12.7348 10 12.4804 10.1054 12.2929 10.2929C12.1054 10.4804 12 10.7348 12 11V21C12 21.2652 12.1054 21.5196 12.2929 21.7071C12.4804 21.8946 12.7348 22 13 22C13.2652 22 13.5196 21.8946 13.7071 21.7071C13.8946 21.5196 14 21.2652 14 21V19H17C17.591 19 18.1761 18.8836 18.7221 18.6575C19.268 18.4313 19.7641 18.0998 20.182 17.682C20.5998 17.2641 20.9313 16.768 21.1575 16.2221C21.3836 15.6761 21.5 15.0909 21.5 14.5Z" fill="white"/>
<path d="M56 2.5C53.33 2.5 50.7199 3.29176 48.4998 4.77516C46.2797 6.25856 44.5494 8.36697 43.5276 10.8338C42.5058 13.3006 42.2385 16.015 42.7594 18.6337C43.2803 21.2525 44.5661 23.6579 46.4541 25.5459C48.3421 27.434 50.7475 28.7197 53.3663 29.2406C55.985 29.7615 58.6994 29.4942 61.1662 28.4724C63.633 27.4506 65.7414 25.7203 67.2248 23.5002C68.7082 21.2801 69.5 18.67 69.5 16C69.496 12.4208 68.0724 8.98932 65.5416 6.45844C63.0107 3.92756 59.5792 2.50397 56 2.5ZM56 26.5C53.9233 26.5 51.8932 25.8842 50.1665 24.7304C48.4398 23.5767 47.094 21.9368 46.2993 20.0182C45.5046 18.0996 45.2966 15.9884 45.7018 13.9516C46.1069 11.9148 47.1069 10.0438 48.5754 8.57538C50.0438 7.10693 51.9148 6.1069 53.9516 5.70175C55.9884 5.29661 58.0996 5.50454 60.0182 6.29926C61.9368 7.09399 63.5767 8.4398 64.7304 10.1665C65.8842 11.8932 66.5 13.9233 66.5 16C66.497 18.7839 65.3898 21.4528 63.4213 23.4213C61.4529 25.3898 58.7839 26.497 56 26.5ZM57 9.5H53C52.6022 9.5 52.2206 9.65804 51.9393 9.93934C51.658 10.2206 51.5 10.6022 51.5 11V21C51.5 21.3978 51.658 21.7794 51.9393 22.0607C52.2206 22.342 52.6022 22.5 53 22.5C53.3978 22.5 53.7794 22.342 54.0607 22.0607C54.342 21.7794 54.5 21.3978 54.5 21V19.5H57C58.3261 19.5 59.5979 18.9732 60.5355 18.0355C61.4732 17.0979 62 15.8261 62 14.5C62 13.1739 61.4732 11.9021 60.5355 10.9645C59.5979 10.0268 58.3261 9.5 57 9.5ZM57 16.5H54.5V12.5H57C57.5304 12.5 58.0391 12.7107 58.4142 13.0858C58.7893 13.4609 59 13.9696 59 14.5C59 15.0304 58.7893 15.5391 58.4142 15.9142C58.0391 16.2893 57.5304 16.5 57 16.5Z" fill="white"/>
</g>
<defs>
<clipPath id="clip0_27_575">
<rect width="72" height="32" rx="5" fill="white"/>
</clipPath>
</defs>
</svg>
