<svg width="72" height="32" viewBox="0 0 72 32" fill="none" xmlns="http://www.w3.org/2000/svg">
<g clip-path="url(#clip0_27_580)">
<path d="M16 3C13.4288 3 10.9154 3.76244 8.77759 5.1909C6.63975 6.61935 4.97351 8.64968 3.98957 11.0251C3.00563 13.4006 2.74819 16.0144 3.2498 18.5362C3.75141 21.0579 4.98953 23.3743 6.80762 25.1924C8.6257 27.0105 10.9421 28.2486 13.4638 28.7502C15.9856 29.2518 18.5995 28.9944 20.9749 28.0104C23.3503 27.0265 25.3807 25.3603 26.8091 23.2224C28.2376 21.0846 29 18.5712 29 16C28.9964 12.5533 27.6256 9.24882 25.1884 6.81163C22.7512 4.37445 19.4467 3.00364 16 3ZM20.9288 12.375L16.9288 22.375C16.8546 22.5607 16.7265 22.72 16.5609 22.8322C16.3954 22.9443 16.2 23.0043 16 23.0043C15.8 23.0043 15.6046 22.9443 15.4391 22.8322C15.2735 22.72 15.1454 22.5607 15.0713 22.375L11.0713 12.375C11.022 12.253 10.9973 12.1226 10.9984 11.991C10.9996 11.8595 11.0267 11.7295 11.0781 11.6084C11.182 11.3639 11.3787 11.1707 11.625 11.0712C11.8713 10.9718 12.1471 10.9743 12.3916 11.0781C12.6361 11.182 12.8293 11.3787 12.9288 11.625L16 19.3075L19.0713 11.625C19.1707 11.3787 19.3639 11.182 19.6084 11.0781C19.8529 10.9743 20.1287 10.9718 20.375 11.0712C20.6213 11.1707 20.818 11.3639 20.9219 11.6084C21.0257 11.8529 21.0282 12.1287 20.9288 12.375Z" fill="white"/>
<path d="M56 2.5C53.33 2.5 50.7199 3.29176 48.4998 4.77516C46.2797 6.25856 44.5494 8.36697 43.5276 10.8338C42.5058 13.3006 42.2385 16.015 42.7594 18.6337C43.2803 21.2525 44.5661 23.6579 46.4541 25.5459C48.3421 27.434 50.7475 28.7197 53.3663 29.2406C55.985 29.7615 58.6994 29.4942 61.1662 28.4724C63.633 27.4506 65.7414 25.7203 67.2248 23.5002C68.7082 21.2801 69.5 18.67 69.5 16C69.496 12.4208 68.0724 8.98932 65.5416 6.45844C63.0107 3.92756 59.5792 2.50397 56 2.5ZM56 26.5C53.9233 26.5 51.8932 25.8842 50.1665 24.7304C48.4398 23.5767 47.094 21.9368 46.2993 20.0182C45.5046 18.0996 45.2966 15.9884 45.7018 13.9516C46.1069 11.9148 47.1069 10.0438 48.5754 8.57538C50.0438 7.10693 51.9148 6.1069 53.9516 5.70175C55.9884 5.29661 58.0996 5.50454 60.0182 6.29926C61.9368 7.09399 63.5767 8.4398 64.7304 10.1665C65.8842 11.8932 66.5 13.9233 66.5 16C66.497 18.7839 65.3898 21.4528 63.4213 23.4213C61.4529 25.3898 58.7839 26.497 56 26.5ZM61.3925 12.5575L57.3925 22.5575C57.2811 22.8357 57.0889 23.0742 56.8407 23.2421C56.5925 23.4101 56.2997 23.4999 56 23.4999C55.7003 23.4999 55.4075 23.4101 55.1593 23.2421C54.9111 23.0742 54.7189 22.8357 54.6075 22.5575L50.6075 12.5575C50.5325 12.3743 50.4945 12.178 50.4957 11.9801C50.4969 11.7821 50.5372 11.5863 50.6144 11.4041C50.6917 11.2218 50.8042 11.0566 50.9456 10.918C51.0869 10.7794 51.2543 10.6702 51.4381 10.5966C51.6219 10.523 51.8185 10.4865 52.0164 10.4893C52.2144 10.492 52.4098 10.5339 52.5915 10.6125C52.7732 10.6912 52.9375 10.805 53.075 10.9474C53.2124 11.0899 53.3204 11.2581 53.3925 11.4425L56 17.9613L58.6075 11.4425C58.7575 11.0762 59.0461 10.7841 59.4106 10.6297C59.775 10.4753 60.1857 10.4712 60.5532 10.6183C60.9206 10.7655 61.215 11.0518 61.3722 11.415C61.5294 11.7783 61.5367 12.1889 61.3925 12.5575Z" fill="white"/>
</g>
<defs>
<clipPath id="clip0_27_580">
<rect width="72" height="32" rx="5" fill="white"/>
</clipPath>
</defs>
</svg>
