<svg width="72" height="32" viewBox="0 0 72 32" fill="none" xmlns="http://www.w3.org/2000/svg">
<g clip-path="url(#clip0_27_4991)">
<path d="M16 3C13.4288 3 10.9154 3.76244 8.77759 5.1909C6.63975 6.61935 4.97351 8.64968 3.98957 11.0251C3.00563 13.4006 2.74819 16.0144 3.2498 18.5362C3.75141 21.0579 4.98953 23.3743 6.80762 25.1924C8.6257 27.0105 10.9421 28.2486 13.4638 28.7502C15.9856 29.2518 18.5995 28.9944 20.9749 28.0104C23.3503 27.0265 25.3807 25.3603 26.8091 23.2224C28.2376 21.0846 29 18.5712 29 16C28.9964 12.5533 27.6256 9.24882 25.1884 6.81163C22.7512 4.37445 19.4467 3.00364 16 3ZM12 16C12 15.2089 12.2346 14.4355 12.6741 13.7777C13.1137 13.1199 13.7384 12.6072 14.4693 12.3045C15.2002 12.0017 16.0044 11.9225 16.7804 12.0769C17.5563 12.2312 18.269 12.6122 18.8284 13.1716C19.3878 13.731 19.7688 14.4437 19.9231 15.2196C20.0775 15.9956 19.9983 16.7998 19.6955 17.5307C19.3928 18.2616 18.8801 18.8864 18.2223 19.3259C17.5645 19.7654 16.7911 20 16 20C14.9391 20 13.9217 19.5786 13.1716 18.8284C12.4214 18.0783 12 17.0609 12 16ZM23.035 7.55L19.4738 11.1125C18.4599 10.389 17.2455 10.0001 16 10.0001C14.7545 10.0001 13.5401 10.389 12.5263 11.1125L8.96501 7.55C10.939 5.90237 13.4287 4.99988 16 4.99988C18.5713 4.99988 21.061 5.90237 23.035 7.55ZM8.96501 24.45L12.5263 20.8875C13.5401 21.611 14.7545 21.9999 16 21.9999C17.2455 21.9999 18.4599 21.611 19.4738 20.8875L23.035 24.45C21.061 26.0976 18.5713 27.0001 16 27.0001C13.4287 27.0001 10.939 26.0976 8.96501 24.45Z" fill="white"/>
<path d="M56 2.5C53.33 2.5 50.7199 3.29176 48.4998 4.77516C46.2797 6.25856 44.5494 8.36697 43.5276 10.8338C42.5058 13.3006 42.2385 16.015 42.7594 18.6337C43.2803 21.2525 44.5661 23.6579 46.4541 25.5459C48.3421 27.434 50.7475 28.7197 53.3663 29.2406C55.985 29.7615 58.6994 29.4942 61.1662 28.4724C63.633 27.4506 65.7414 25.7203 67.2248 23.5002C68.7082 21.2801 69.5 18.67 69.5 16C69.496 12.4208 68.0724 8.98932 65.5416 6.45844C63.0107 3.92756 59.5792 2.50397 56 2.5ZM61.5313 19.41C62.1645 18.3853 62.5 17.2046 62.5 16C62.5 14.7954 62.1645 13.6147 61.5313 12.59L64.4063 9.715C65.7654 11.5285 66.5 13.7337 66.5 16C66.5 18.2663 65.7654 20.4715 64.4063 22.285L61.5313 19.41ZM52.5 16C52.5 15.3078 52.7053 14.6311 53.0899 14.0555C53.4744 13.4799 54.0211 13.0313 54.6606 12.7664C55.3002 12.5015 56.0039 12.4322 56.6828 12.5673C57.3618 12.7023 57.9854 13.0356 58.4749 13.5251C58.9644 14.0146 59.2977 14.6383 59.4328 15.3172C59.5678 15.9961 59.4985 16.6999 59.2336 17.3394C58.9687 17.9789 58.5201 18.5256 57.9445 18.9101C57.3689 19.2947 56.6922 19.5 56 19.5C55.0717 19.5 54.1815 19.1313 53.5251 18.4749C52.8688 17.8185 52.5 16.9283 52.5 16ZM62.285 7.59375L59.41 10.4688C58.3853 9.83548 57.2046 9.50005 56 9.50005C54.7954 9.50005 53.6147 9.83548 52.59 10.4688L49.715 7.59375C51.5285 6.23463 53.7337 5.5 56 5.5C58.2663 5.5 60.4715 6.23463 62.285 7.59375ZM47.5938 9.71875L50.4688 12.5938C49.8355 13.6184 49.5001 14.7992 49.5001 16.0037C49.5001 17.2083 49.8355 18.3891 50.4688 19.4137L47.5938 22.2887C46.2346 20.4752 45.5 18.27 45.5 16.0037C45.5 13.7375 46.2346 11.5323 47.5938 9.71875ZM49.7188 24.41L52.5938 21.535C53.6184 22.1683 54.7992 22.5037 56.0038 22.5037C57.2083 22.5037 58.3891 22.1683 59.4138 21.535L62.2888 24.41C60.4752 25.7691 58.27 26.5038 56.0038 26.5038C53.7375 26.5038 51.5323 25.7691 49.7188 24.41Z" fill="white"/>
</g>
<defs>
<clipPath id="clip0_27_4991">
<rect width="72" height="32" rx="5" fill="white"/>
</clipPath>
</defs>
</svg>
