<svg width="72" height="32" viewBox="0 0 72 32" fill="none" xmlns="http://www.w3.org/2000/svg">
<g clip-path="url(#clip0_27_2836)">
<path d="M13.2148 8.47625C13.1297 8.38394 13.0825 8.26302 13.0825 8.1375C13.0825 8.01199 13.1297 7.89107 13.2148 7.79875L19.2635 1.3175C19.4117 1.15858 19.6077 1.05227 19.8218 1.01466C20.0358 0.977053 20.2563 1.0102 20.4498 1.10908C20.6433 1.20796 20.7994 1.3672 20.8943 1.56268C20.9893 1.75817 21.0179 1.97926 20.976 2.1925L19.1473 11.3625L26.326 14.0538C26.5447 14.1319 26.7306 14.2817 26.8535 14.4788C26.9671 14.6655 27.0164 14.8843 26.9938 15.1017C26.9712 15.3191 26.878 15.5231 26.7285 15.6825L23.5698 19.0663C23.5229 19.117 23.4661 19.1575 23.4029 19.1852C23.3396 19.2129 23.2713 19.2272 23.2023 19.2272C23.1332 19.2272 23.0649 19.2129 23.0017 19.1852C22.9384 19.1575 22.8816 19.117 22.8348 19.0663L13.2148 8.47625ZM16.6848 15.2663L6.73976 4.3275C6.65194 4.22851 6.54535 4.14794 6.42616 4.09044C6.30697 4.03295 6.17756 3.99968 6.04542 3.99258C5.91328 3.98547 5.78104 4.00466 5.65637 4.04903C5.53171 4.0934 5.41708 4.16208 5.31915 4.25108C5.22122 4.34008 5.14193 4.44763 5.08587 4.5675C5.02981 4.68737 4.99809 4.81717 4.99257 4.94939C4.98705 5.0816 5.00782 5.2136 5.05369 5.33773C5.09955 5.46186 5.1696 5.57565 5.25976 5.6725L10.1673 11.07L5.29226 16.2988C5.1271 16.4641 5.02383 16.6813 4.99976 16.9138C4.98094 17.1312 5.03379 17.3489 5.15025 17.5335C5.26672 17.7181 5.44039 17.8596 5.64476 17.9363L12.8485 20.6375L11.0198 29.8038C10.9783 30.0167 11.0072 30.2374 11.1021 30.4325C11.197 30.6276 11.3529 30.7866 11.546 30.8854C11.7392 30.9841 11.9593 31.0174 12.1731 30.9801C12.3868 30.9429 12.5827 30.8371 12.731 30.6788L20.4635 22.3938L25.2598 27.6688C25.3476 27.7677 25.4542 27.8483 25.5734 27.9058C25.6926 27.9633 25.822 27.9966 25.9541 28.0037C26.0862 28.0108 26.2185 27.9916 26.3432 27.9472C26.4678 27.9029 26.5824 27.8342 26.6804 27.7452C26.7783 27.6562 26.8576 27.5486 26.9137 27.4288C26.9697 27.3089 27.0014 27.1791 27.007 27.0469C27.0125 26.9147 26.9917 26.7827 26.9458 26.6585C26.9 26.5344 26.8299 26.4206 26.7398 26.3238L16.6848 15.2663Z" fill="white"/>
<path d="M47.1099 3.99122C46.9782 3.84273 46.8183 3.72187 46.6395 3.63563C46.4607 3.54939 46.2666 3.49949 46.0684 3.48883C45.8702 3.47816 45.6718 3.50695 45.4848 3.57351C45.2978 3.64007 45.1259 3.74308 44.979 3.87658C44.8321 4.01008 44.7131 4.17141 44.629 4.35121C44.545 4.53102 44.4974 4.72572 44.4891 4.92404C44.4808 5.12237 44.512 5.32036 44.5808 5.50656C44.6496 5.69275 44.7546 5.86343 44.8899 6.00872L49.4874 11.065L44.9036 15.9762C44.7372 16.1544 44.6168 16.3705 44.5527 16.6058C44.4886 16.8411 44.4829 17.0884 44.5359 17.3264C44.589 17.5644 44.6993 17.7859 44.8572 17.9716C45.0152 18.1574 45.216 18.3018 45.4424 18.3925L51.8399 20.9512L50.5161 29.7775C50.4675 30.0944 50.5218 30.4186 50.6709 30.7024C50.8201 30.9863 51.0562 31.2149 51.3448 31.3547C51.6333 31.4945 51.9591 31.5382 52.2743 31.4793C52.5895 31.4204 52.8775 31.262 53.0961 31.0275L60.4586 23.1387L64.8899 28.0137C65.1588 28.3026 65.5308 28.4739 65.9252 28.4904C66.3195 28.5068 66.7045 28.3672 66.9966 28.1017C67.2887 27.8363 67.4644 27.4664 67.4856 27.0722C67.5068 26.6781 67.3718 26.2915 67.1099 25.9962L47.1099 3.99122ZM54.1999 25.4437L54.9836 20.2225C55.0337 19.8883 54.9695 19.547 54.8014 19.2539C54.6333 18.9608 54.3711 18.733 54.0574 18.6075L48.5924 16.4212L51.5111 13.2962L58.4336 20.9112L54.1999 25.4437ZM53.9261 8.50747C53.7814 8.37303 53.6646 8.21132 53.5825 8.03161C53.5004 7.85191 53.4546 7.65775 53.4477 7.4603C53.4409 7.26284 53.4731 7.06598 53.5425 6.88101C53.612 6.69605 53.7173 6.52662 53.8524 6.38247L58.9036 0.976221C59.1223 0.741652 59.4103 0.58331 59.7255 0.524419C60.0407 0.465528 60.3664 0.509188 60.655 0.648995C60.9436 0.788802 61.1797 1.0174 61.3288 1.30125C61.478 1.58511 61.5322 1.90928 61.4836 2.22622L60.1599 11.0487L66.5574 13.6075C66.7838 13.6981 66.9846 13.8426 67.1426 14.0283C67.3005 14.2141 67.4108 14.4356 67.4638 14.6735C67.5169 14.9115 67.5112 15.1589 67.4471 15.3941C67.383 15.6294 67.2626 15.8455 67.0961 16.0237L64.9936 18.2737C64.7221 18.5646 64.3462 18.7358 63.9485 18.7495C63.5508 18.7632 63.1639 18.6184 62.873 18.3468C62.5821 18.0753 62.411 17.6994 62.3973 17.3017C62.3835 16.904 62.5284 16.5171 62.7999 16.2262L63.4074 15.575L57.9424 13.3887C57.6287 13.2632 57.3665 13.0354 57.1984 12.7423C57.0303 12.4492 56.9661 12.1079 57.0161 11.7737L57.7999 6.55247L56.0499 8.42747C55.9159 8.5725 55.7546 8.68964 55.5752 8.77218C55.3958 8.85472 55.2019 8.90104 55.0046 8.90847C54.8073 8.9159 54.6105 8.88431 54.4254 8.81549C54.2403 8.74668 54.0707 8.642 53.9261 8.50747Z" fill="white"/>
</g>
<defs>
<clipPath id="clip0_27_2836">
<rect width="72" height="32" rx="5" fill="white"/>
</clipPath>
</defs>
</svg>
