<svg width="72" height="32" viewBox="0 0 72 32" fill="none" xmlns="http://www.w3.org/2000/svg">
<g clip-path="url(#clip0_27_2826)">
<path d="M26.7312 15.6825L12.7312 30.6825C12.5828 30.8408 12.387 30.9466 12.1732 30.9839C11.9595 31.0211 11.7394 30.9879 11.5462 30.8891C11.353 30.7903 11.1972 30.6314 11.1023 30.4363C11.0073 30.2412 10.9784 30.0205 11.0199 29.8075L12.8524 20.6412L5.64867 17.9362C5.49396 17.8784 5.356 17.7831 5.2471 17.6589C5.13821 17.5347 5.06177 17.3854 5.02463 17.2245C4.98749 17.0635 4.9908 16.8959 5.03425 16.7365C5.07771 16.5772 5.15997 16.431 5.27367 16.3112L19.2737 1.31124C19.422 1.15291 19.6179 1.04713 19.8316 1.00986C20.0454 0.972589 20.2655 1.00586 20.4586 1.10464C20.6518 1.20342 20.8076 1.36236 20.9026 1.55746C20.9975 1.75257 21.0264 1.97326 20.9849 2.18624L19.1474 11.3625L26.3512 14.0637C26.5047 14.122 26.6416 14.2172 26.7496 14.3409C26.8577 14.4646 26.9336 14.613 26.9707 14.773C27.0077 14.933 27.0048 15.0997 26.9622 15.2583C26.9195 15.417 26.8385 15.5626 26.7262 15.6825H26.7312Z" fill="white"/>
<path d="M67.4637 14.6725C67.4105 14.4347 67.3001 14.2135 67.1422 14.0279C66.9843 13.8424 66.7836 13.6981 66.5574 13.6075L60.1599 11.0487L61.4837 2.2225C61.5322 1.90556 61.478 1.58138 61.3289 1.29753C61.1797 1.01367 60.9436 0.785079 60.655 0.645272C60.3664 0.505465 60.0407 0.461805 59.7255 0.520696C59.4103 0.579587 59.1223 0.737929 58.9037 0.972497L44.9037 15.9725C44.7372 16.1507 44.6168 16.3668 44.5527 16.6021C44.4886 16.8373 44.4829 17.0847 44.536 17.3227C44.589 17.5607 44.6993 17.7821 44.8572 17.9679C45.0152 18.1537 45.216 18.2981 45.4424 18.3887L51.8399 20.9475L50.5162 29.7775C50.4676 30.0944 50.5218 30.4186 50.6709 30.7025C50.8201 30.9863 51.0562 31.2149 51.3448 31.3547C51.6334 31.4945 51.9591 31.5382 52.2743 31.4793C52.5895 31.4204 52.8775 31.2621 53.0962 31.0275L67.0962 16.0275C67.2633 15.8488 67.3842 15.6318 67.4482 15.3956C67.5123 15.1595 67.5176 14.9112 67.4637 14.6725ZM54.1999 25.4437L54.9837 20.2225C55.0337 19.8883 54.9695 19.547 54.8014 19.2539C54.6333 18.9608 54.3711 18.733 54.0574 18.6075L48.5924 16.4212L57.7999 6.55625L57.0162 11.7775C56.9661 12.1117 57.0303 12.453 57.1984 12.7461C57.3665 13.0392 57.6287 13.267 57.9424 13.3925L63.4074 15.5787L54.1999 25.4437Z" fill="white"/>
</g>
<defs>
<clipPath id="clip0_27_2826">
<rect width="72" height="32" rx="5" fill="white"/>
</clipPath>
</defs>
</svg>
