<svg width="72" height="32" viewBox="0 0 72 32" fill="none" xmlns="http://www.w3.org/2000/svg">
<g clip-path="url(#clip0_27_6680)">
<path d="M26 9.99999C25.7348 9.99999 25.4804 10.1053 25.2929 10.2929C25.1054 10.4804 25 10.7348 25 11V13H23.6063L23 6.89999C22.9741 6.64862 22.8539 6.41639 22.6637 6.24999L17.305 1.48499L17.28 1.46374C16.9206 1.16441 16.4677 1.00049 16 1.00049C15.5323 1.00049 15.0794 1.16441 14.72 1.46374L14.695 1.48499L9.335 6.24999C9.14458 6.41604 9.02475 6.64855 9 6.89999L8.39375 13H7V11C7 10.7348 6.89464 10.4804 6.70711 10.2929C6.51957 10.1053 6.26522 9.99999 6 9.99999C5.73478 9.99999 5.48043 10.1053 5.29289 10.2929C5.10536 10.4804 5 10.7348 5 11V14C5 14.2652 5.10536 14.5196 5.29289 14.7071C5.48043 14.8946 5.73478 15 6 15H8.1925L7.00875 26.81C6.98227 27.0874 7.01407 27.3673 7.1021 27.6317C7.19013 27.8962 7.33245 28.1393 7.51994 28.3455C7.70742 28.5517 7.93593 28.7164 8.19081 28.8291C8.44569 28.9418 8.72131 29 9 29H23C23.279 28.9999 23.555 28.9415 23.8101 28.8284C24.0652 28.7153 24.2938 28.5501 24.4812 28.3433C24.6687 28.1366 24.8108 27.8929 24.8984 27.628C24.986 27.363 25.0172 27.0827 24.99 26.805L23.8075 15H26C26.2652 15 26.5196 14.8946 26.7071 14.7071C26.8946 14.5196 27 14.2652 27 14V11C27 10.7348 26.8946 10.4804 26.7071 10.2929C26.5196 10.1053 26.2652 9.99999 26 9.99999ZM10.905 7.99999H21.095L21.595 13H17V11C17 10.7348 16.8946 10.4804 16.7071 10.2929C16.5196 10.1053 16.2652 9.99999 16 9.99999C15.7348 9.99999 15.4804 10.1053 15.2929 10.2929C15.1054 10.4804 15 10.7348 15 11V13H10.4038L10.905 7.99999ZM9 27L9.60125 21H22.3988L23 27H9Z" fill="white"/>
<path d="M67.5 10.5C67.1022 10.5 66.7206 10.658 66.4393 10.9393C66.158 11.2207 66 11.6022 66 12V13H64.1087L63.4925 6.85001C63.4567 6.47466 63.2809 6.12656 63 5.87501L57.6375 1.11126L57.6 1.08001C57.1508 0.705842 56.5846 0.500946 56 0.500946C55.4154 0.500946 54.8492 0.705842 54.4 1.08001L54.3625 1.11126L49 5.87501C48.7175 6.1241 48.539 6.47037 48.5 6.84501L47.8913 13H46V12C46 11.6022 45.842 11.2207 45.5607 10.9393C45.2794 10.658 44.8978 10.5 44.5 10.5C44.1022 10.5 43.7206 10.658 43.4393 10.9393C43.158 11.2207 43 11.6022 43 12V14.5C43 14.8978 43.158 15.2794 43.4393 15.5607C43.7206 15.842 44.1022 16 44.5 16H47.59L46.5113 26.7625C46.4782 27.1093 46.5179 27.4591 46.6279 27.7896C46.7379 28.1201 46.9158 28.424 47.1501 28.6817C47.3845 28.9395 47.6701 29.1454 47.9886 29.2863C48.3072 29.4272 48.6517 29.5 49 29.5H63C63.3488 29.4999 63.6937 29.4269 64.0126 29.2855C64.3315 29.1441 64.6173 28.9376 64.8516 28.6792C65.0858 28.4208 65.2634 28.1162 65.373 27.785C65.4825 27.4538 65.5215 27.1034 65.4875 26.7563L64.41 16H67.5C67.8978 16 68.2794 15.842 68.5607 15.5607C68.842 15.2794 69 14.8978 69 14.5V12C69 11.6022 68.842 11.2207 68.5607 10.9393C68.2794 10.658 67.8978 10.5 67.5 10.5ZM56 3.67001L58.0575 5.50001H53.9425L56 3.67001ZM51.3575 8.50001H60.6425L61.0938 13H57.5V12C57.5 11.6022 57.342 11.2207 57.0607 10.9393C56.7794 10.658 56.3978 10.5 56 10.5C55.6022 10.5 55.2206 10.658 54.9393 10.9393C54.658 11.2207 54.5 11.6022 54.5 12V13H50.9062L51.3575 8.50001ZM49.5525 26.5L49.9537 22.5H62.0462L62.4475 26.5H49.5525ZM61.75 19.5H50.25L50.6 16H61.39L61.75 19.5Z" fill="white"/>
</g>
<defs>
<clipPath id="clip0_27_6680">
<rect width="72" height="32" rx="5" fill="white"/>
</clipPath>
</defs>
</svg>
