<svg width="72" height="32" viewBox="0 0 72 32" fill="none" xmlns="http://www.w3.org/2000/svg">
<g clip-path="url(#clip0_27_2831)">
<path d="M21.734 14.8225L9.83397 27.6788C9.6841 27.8419 9.48432 27.9506 9.26597 27.9879C9.04762 28.0252 8.82306 27.989 8.62755 27.8848C8.43203 27.7807 8.27662 27.6146 8.18571 27.4126C8.09479 27.2106 8.07352 26.9842 8.12522 26.7688L9.83397 19.5738L3.58397 16.7688C3.43928 16.7037 3.31215 16.6051 3.21308 16.4812C3.11401 16.3573 3.04585 16.2116 3.01422 16.0561C2.98259 15.9007 2.9884 15.7399 3.03118 15.5871C3.07395 15.4344 3.15246 15.294 3.26022 15.1775L15.1602 2.32127C15.3093 2.15483 15.5098 2.0431 15.7298 2.00391C15.9497 1.96472 16.1765 2.00033 16.3739 2.10506C16.5713 2.20978 16.7279 2.3776 16.8187 2.58172C16.9096 2.78585 16.9295 3.01453 16.8752 3.23127L15.164 10.4263L21.414 13.23C21.5589 13.295 21.6862 13.3936 21.7854 13.5177C21.8847 13.6417 21.9529 13.7875 21.9846 13.9432C22.0162 14.0988 22.0103 14.2598 21.9674 14.4127C21.9245 14.5656 21.8457 14.7061 21.7377 14.8225H21.734ZM29.4477 27.8938C29.309 27.9639 29.1557 28.0003 29.0002 28C28.8144 28.0002 28.6323 27.9485 28.4742 27.8509C28.3161 27.7534 28.1884 27.6137 28.1052 27.4475L26.8815 25H22.1177L20.894 27.4475C20.7753 27.6847 20.5672 27.8651 20.3156 27.9489C20.0639 28.0327 19.7893 28.0131 19.5521 27.8944C19.3149 27.7757 19.1346 27.5677 19.0507 27.316C18.9669 27.0644 18.9865 26.7897 19.1052 26.5525L23.6052 17.5525C23.6883 17.3864 23.816 17.2468 23.9739 17.1492C24.1319 17.0515 24.3139 16.9998 24.4996 16.9998C24.6853 16.9998 24.8673 17.0515 25.0253 17.1492C25.1832 17.2468 25.3109 17.3864 25.394 17.5525L29.894 26.5525C30.0125 26.7896 30.0321 27.064 29.9484 27.3155C29.8648 27.567 29.6847 27.775 29.4477 27.8938ZM25.8815 23L24.5002 20.2363L23.1177 23H25.8815Z" fill="white"/>
<path d="M62.4701 13.8437C62.4227 13.6102 62.3202 13.3913 62.1713 13.2052C62.0224 13.0192 61.8313 12.8713 61.6139 12.7737L55.7501 10.14L57.3626 3.34625C57.4389 3.02382 57.4064 2.6852 57.27 2.38324C57.1336 2.08127 56.9011 1.83297 56.6087 1.67707C56.3163 1.52118 55.9806 1.46648 55.6538 1.5215C55.3271 1.57653 55.0278 1.73819 54.8026 1.98125L42.8989 14.8375C42.7371 15.0122 42.6193 15.2229 42.5551 15.4521C42.4909 15.6814 42.4822 15.9227 42.5297 16.156C42.5772 16.3892 42.6796 16.6079 42.8283 16.7938C42.9771 16.9797 43.1679 17.1275 43.3851 17.225L49.2601 19.86L47.6401 26.6525C47.5629 26.9753 47.5949 27.3146 47.7311 27.6172C47.8673 27.9199 48.1001 28.1688 48.3929 28.3251C48.6858 28.4813 49.0222 28.5359 49.3494 28.4805C49.6767 28.4251 49.9763 28.2627 50.2014 28.0187L62.1001 15.1612C62.2619 14.9867 62.3798 14.7762 62.4441 14.5471C62.5084 14.3181 62.5174 14.077 62.4701 13.8437ZM51.8751 21.7887L52.4551 19.3462C52.5357 19.0067 52.4955 18.6497 52.3412 18.3367C52.187 18.0236 51.9285 17.7742 51.6101 17.6312L46.5151 15.3437L53.1251 8.21125L52.5451 10.6537C52.4625 10.9936 52.5013 11.3516 52.6546 11.6659C52.808 11.9802 53.0664 12.231 53.3851 12.375L58.4814 14.6625L51.8751 21.7887ZM70.3376 26.3287L65.8376 17.3287C65.7131 17.0795 65.5216 16.8698 65.2846 16.7233C65.0475 16.5767 64.7744 16.4991 64.4957 16.4991C64.2171 16.4991 63.9439 16.5767 63.7069 16.7233C63.4699 16.8698 63.2784 17.0795 63.1539 17.3287L58.6539 26.3287C58.5601 26.5054 58.5027 26.6991 58.4849 26.8983C58.4671 27.0976 58.4893 27.2984 58.5503 27.4889C58.6112 27.6794 58.7097 27.8558 58.8398 28.0077C58.97 28.1596 59.1292 28.2839 59.3081 28.3734C59.487 28.4628 59.682 28.5156 59.8816 28.5286C60.0812 28.5416 60.2814 28.5145 60.4704 28.4489C60.6594 28.3834 60.8334 28.2807 60.9821 28.147C61.1308 28.0132 61.2513 27.851 61.3364 27.67L61.9214 26.5H67.0676L67.6526 27.67C67.8305 28.0259 68.1424 28.2965 68.5198 28.4224C68.8973 28.5483 69.3092 28.5191 69.6651 28.3412C70.021 28.1634 70.2917 27.8514 70.4175 27.474C70.5434 27.0966 70.5142 26.6846 70.3364 26.3287H70.3376ZM63.4264 23.5L64.5001 21.3537L65.5726 23.5H63.4264Z" fill="white"/>
</g>
<defs>
<clipPath id="clip0_27_2831">
<rect width="72" height="32" rx="5" fill="white"/>
</clipPath>
</defs>
</svg>
