<svg width="72" height="32" viewBox="0 0 72 32" fill="none" xmlns="http://www.w3.org/2000/svg">
<g clip-path="url(#clip0_27_5353)">
<path d="M29.4754 9.47375C29.1507 9.79962 28.7647 10.0581 28.3398 10.2342C27.9148 10.4103 27.4592 10.5006 26.9991 10.5C26.7611 10.4996 26.5236 10.4753 26.2904 10.4275L22.4691 17.5237C22.9282 17.9827 23.2505 18.5602 23.4002 19.1918C23.5499 19.8234 23.521 20.4842 23.3168 21.1003C23.1125 21.7164 22.741 22.2636 22.2436 22.6807C21.7463 23.0978 21.1427 23.3684 20.5005 23.4622C19.8582 23.556 19.2025 23.4694 18.6066 23.212C18.0107 22.9545 17.4982 22.5365 17.1262 22.0046C16.7543 21.4726 16.5376 20.8477 16.5003 20.1997C16.4631 19.5517 16.6068 18.906 16.9154 18.335L13.6579 15.0775C13.1483 15.3531 12.5785 15.4983 11.9991 15.5C11.7611 15.4997 11.5236 15.4754 11.2904 15.4275L7.46914 22.5225C7.95859 23.012 8.2919 23.6356 8.42692 24.3146C8.56194 24.9935 8.4926 25.6972 8.22769 26.3367C7.96277 26.9762 7.51417 27.5228 6.9386 27.9074C6.36304 28.292 5.68636 28.4972 4.99414 28.4972C4.30192 28.4972 3.62525 28.292 3.04968 27.9074C2.47412 27.5228 2.02552 26.9762 1.7606 26.3367C1.49568 25.6972 1.42635 24.9935 1.56137 24.3146C1.69639 23.6356 2.02969 23.012 2.51914 22.5225C2.92945 22.1126 3.43521 21.811 3.99093 21.645C4.54666 21.4789 5.13495 21.4536 5.70289 21.5713L9.52414 14.475C8.86883 13.8178 8.50085 12.9275 8.50085 11.9994C8.50085 11.0713 8.86883 10.181 9.52414 9.52375C10.1186 8.92894 10.9073 8.56805 11.746 8.50708C12.5847 8.44612 13.4174 8.68916 14.0916 9.19174C14.7658 9.69433 15.2365 10.4229 15.4176 11.244C15.5987 12.0652 15.4781 12.9242 15.0779 13.6637L18.3354 16.9212C19.0618 16.5305 19.9026 16.408 20.7104 16.575L24.5316 9.47875C24.2066 9.15374 23.9488 8.76789 23.7728 8.34322C23.5969 7.91856 23.5064 7.46341 23.5064 7.00375C23.5064 6.54409 23.5969 6.08894 23.7728 5.66427C23.9488 5.23961 24.2066 4.85376 24.5316 4.52875C25.1881 3.87234 26.0783 3.50357 27.0066 3.50357C27.9349 3.50357 28.8252 3.87234 29.4816 4.52875C30.1381 5.18516 30.5068 6.07544 30.5068 7.00375C30.5068 7.93205 30.1381 8.82234 29.4816 9.47875L29.4754 9.47375Z" fill="white"/>
<path d="M70.1829 3.81625C69.765 3.39823 69.2689 3.06663 68.7228 2.84039C68.1768 2.61416 67.5915 2.49771 67.0004 2.49771C66.4093 2.49771 65.824 2.61416 65.278 2.84039C64.7319 3.06663 64.2358 3.39823 63.8179 3.81625C63.002 4.63451 62.5315 5.73486 62.5036 6.89005C62.4757 8.04524 62.8925 9.16704 63.6679 10.0238L60.6892 15.5562C59.7955 15.4181 58.8809 15.5518 58.0642 15.94L56.0642 13.94C56.5237 12.9819 56.6294 11.8922 56.3625 10.8637C56.0956 9.8352 55.4735 8.9343 54.6061 8.32054C53.7387 7.70677 52.6822 7.41972 51.6235 7.51022C50.5648 7.60072 49.5723 8.06292 48.8217 8.815C48.0041 9.63235 47.5324 10.733 47.5045 11.8887C47.4766 13.0445 47.8945 14.1666 48.6716 15.0225L45.6867 20.5562C44.987 20.4469 44.2714 20.5043 43.598 20.7237C42.9247 20.9431 42.3127 21.3183 41.8117 21.8188C41.189 22.4416 40.7628 23.2335 40.5859 24.0962C40.409 24.9589 40.4891 25.8546 40.8163 26.6723C41.1435 27.4899 41.7035 28.1936 42.4268 28.696C43.1501 29.1985 44.005 29.4776 44.8854 29.4989C45.7658 29.5202 46.6332 29.2827 47.3799 28.8157C48.1266 28.3488 48.7199 27.6731 49.0863 26.8722C49.4527 26.0713 49.576 25.1805 49.4409 24.3103C49.3059 23.44 48.9185 22.6285 48.3267 21.9762L51.3054 16.4438C51.5348 16.4808 51.7668 16.4996 51.9992 16.5C52.6699 16.5002 53.3322 16.3507 53.9379 16.0625L55.9379 18.0625C55.5863 18.7986 55.4414 19.6165 55.5187 20.4286C55.596 21.2407 55.8926 22.0165 56.3768 22.673C56.861 23.3296 57.5146 23.8421 58.2676 24.1559C59.0206 24.4697 59.8448 24.5728 60.6519 24.4544C61.459 24.3359 62.2188 24.0003 62.8499 23.4834C63.481 22.9664 63.9597 22.2877 64.2348 21.5197C64.5099 20.7517 64.5711 19.9234 64.4118 19.1233C64.2525 18.3232 63.8787 17.5815 63.3304 16.9775L66.3117 11.4438C66.5391 11.4799 66.7689 11.4987 66.9992 11.5C67.8891 11.5 68.759 11.2361 69.4989 10.7417C70.2389 10.2473 70.8156 9.54459 71.1562 8.72246C71.4969 7.90032 71.5861 6.99564 71.4126 6.1228C71.2391 5.24996 70.8108 4.44816 70.1817 3.81875L70.1829 3.81625ZM50.9329 10.9412C51.2147 10.6595 51.5969 10.5011 51.9954 10.5011C52.3939 10.5011 52.7761 10.6595 53.0579 10.9412C53.3397 11.223 53.498 11.6052 53.498 12.0037C53.498 12.4023 53.3397 12.7845 53.0579 13.0662C52.7761 13.348 52.3939 13.5064 51.9954 13.5064C51.5969 13.5064 51.2147 13.348 50.9329 13.0662C50.6511 12.7845 50.4928 12.4023 50.4928 12.0037C50.4928 11.6052 50.6511 11.223 50.9329 10.9412ZM46.0579 26.0662C45.8479 26.2755 45.5806 26.4179 45.2898 26.4753C44.999 26.5328 44.6976 26.5028 44.4239 26.3891C44.1501 26.2754 43.9161 26.0831 43.7515 25.8366C43.5869 25.59 43.4991 25.3002 43.4991 25.0037C43.4991 24.7073 43.5869 24.4175 43.7515 24.1709C43.9161 23.9244 44.1501 23.7321 44.4239 23.6184C44.6976 23.5047 44.999 23.4747 45.2898 23.5322C45.5806 23.5896 45.8479 23.732 46.0579 23.9412C46.3392 24.2226 46.4972 24.6041 46.4972 25.0019C46.4972 25.3997 46.3392 25.7812 46.0579 26.0625V26.0662ZM61.0579 21.0662C60.8479 21.2755 60.5806 21.4179 60.2898 21.4753C59.999 21.5328 59.6976 21.5028 59.4239 21.3891C59.1501 21.2754 58.9161 21.0831 58.7515 20.8366C58.5869 20.59 58.4991 20.3002 58.4991 20.0037C58.4991 19.7073 58.5869 19.4175 58.7515 19.1709C58.9161 18.9244 59.1501 18.7321 59.4239 18.6184C59.6976 18.5047 59.999 18.4747 60.2898 18.5322C60.5806 18.5896 60.8479 18.732 61.0579 18.9412C61.3391 19.2222 61.4974 19.6032 61.4978 20.0007C61.4983 20.3982 61.341 20.7797 61.0604 21.0613L61.0579 21.0662ZM68.0579 8.06625C67.8479 8.27551 67.5806 8.41785 67.2898 8.47531C66.999 8.53276 66.6976 8.50275 66.4239 8.38907C66.1501 8.27539 65.9161 8.08312 65.7515 7.83656C65.5869 7.59 65.4991 7.3002 65.4991 7.00375C65.4991 6.7073 65.5869 6.4175 65.7515 6.17094C65.9161 5.92438 66.1501 5.73211 66.4239 5.61843C66.6976 5.50475 66.999 5.47474 67.2898 5.53219C67.5806 5.58965 67.8479 5.73199 68.0579 5.94125C68.3389 6.22195 68.4971 6.60265 68.4978 6.99985C68.4985 7.39705 68.3417 7.77831 68.0617 8.06L68.0579 8.06625Z" fill="white"/>
</g>
<defs>
<clipPath id="clip0_27_5353">
<rect width="72" height="32" rx="5" fill="white"/>
</clipPath>
</defs>
</svg>
