<svg width="72" height="32" viewBox="0 0 72 32" fill="none" xmlns="http://www.w3.org/2000/svg">
<g clip-path="url(#clip0_27_5358)">
<path d="M26 4H6C5.46957 4 4.96086 4.21071 4.58579 4.58579C4.21071 4.96086 4 5.46957 4 6V26C4 26.5304 4.21071 27.0391 4.58579 27.4142C4.96086 27.7893 5.46957 28 6 28H26C26.5304 28 27.0391 27.7893 27.4142 27.4142C27.7893 27.0391 28 26.5304 28 26V6C28 5.46957 27.7893 4.96086 27.4142 4.58579C27.0391 4.21071 26.5304 4 26 4ZM17 24C17 24.2652 16.8946 24.5196 16.7071 24.7071C16.5196 24.8946 16.2652 25 16 25C15.7348 25 15.4804 24.8946 15.2929 24.7071C15.1054 24.5196 15 24.2652 15 24V8C15 7.73478 15.1054 7.48043 15.2929 7.29289C15.4804 7.10536 15.7348 7 16 7C16.2652 7 16.5196 7.10536 16.7071 7.29289C16.8946 7.48043 17 7.73478 17 8V24Z" fill="white"/>
<path d="M57.5 3V29C57.5 29.3978 57.342 29.7794 57.0607 30.0607C56.7794 30.342 56.3978 30.5 56 30.5C55.6022 30.5 55.2206 30.342 54.9393 30.0607C54.658 29.7794 54.5 29.3978 54.5 29V3C54.5 2.60218 54.658 2.22064 54.9393 1.93934C55.2206 1.65804 55.6022 1.5 56 1.5C56.3978 1.5 56.7794 1.65804 57.0607 1.93934C57.342 2.22064 57.5 2.60218 57.5 3Z" fill="white"/>
</g>
<defs>
<clipPath id="clip0_27_5358">
<rect width="72" height="32" rx="5" fill="white"/>
</clipPath>
</defs>
</svg>
