<svg width="72" height="32" viewBox="0 0 72 32" fill="none" xmlns="http://www.w3.org/2000/svg">
<g clip-path="url(#clip0_27_5348)">
<path d="M26.4755 10.4738C25.9425 11.0068 25.2516 11.3535 24.5057 11.4623C23.7597 11.5711 22.9986 11.4361 22.3355 11.0775L11.0768 22.3363C11.3855 22.9072 11.5294 23.5528 11.4923 24.2009C11.4553 24.8489 11.2387 25.4739 10.8669 26.0059C10.4951 26.538 9.98259 26.9562 9.38676 27.2137C8.79094 27.4713 8.13523 27.558 7.49293 27.4644C6.85062 27.3707 6.24701 27.1002 5.74957 26.6832C5.25213 26.2662 4.88045 25.7191 4.67607 25.103C4.47169 24.4869 4.44266 23.8261 4.59223 23.1945C4.7418 22.5629 5.06408 21.9853 5.52304 21.5263C6.05607 20.9932 6.74695 20.6465 7.4929 20.5377C8.23884 20.4289 8.99997 20.5639 9.66304 20.9225L20.9218 9.66376C20.613 9.09278 20.4692 8.4472 20.5062 7.79915C20.5433 7.15111 20.7599 6.52614 21.1317 5.99409C21.5035 5.46204 22.016 5.04387 22.6118 4.78632C23.2076 4.52877 23.8633 4.44199 24.5057 4.53567C25.148 4.62935 25.7516 4.8998 26.249 5.3168C26.7464 5.7338 27.1181 6.28091 27.3225 6.897C27.5269 7.51309 27.5559 8.17388 27.4063 8.80551C27.2568 9.43715 26.9345 10.0148 26.4755 10.4738Z" fill="white"/>
<path d="M67.1841 4.81626C66.4337 4.06325 65.4409 3.60021 64.3818 3.50923C63.3226 3.41824 62.2654 3.70517 61.3975 4.31917C60.5297 4.93317 59.9073 5.83459 59.6405 6.86366C59.3738 7.89274 59.48 8.98301 59.9403 9.94126L49.9403 19.9413C49.1003 19.5402 48.1567 19.409 47.239 19.5657C46.3214 19.7223 45.4748 20.1592 44.8153 20.8163C44.2332 21.4001 43.8227 22.1326 43.6285 22.9339C43.4344 23.7351 43.4641 24.5743 43.7144 25.3598C43.9647 26.1454 44.426 26.847 45.0479 27.3883C45.6698 27.9295 46.4285 28.2894 47.2411 28.4288C48.0537 28.5682 48.8889 28.4817 49.6557 28.1787C50.4224 27.8758 51.0912 27.368 51.589 26.7108C52.0868 26.0536 52.3945 25.2723 52.4785 24.4521C52.5625 23.6319 52.4196 22.8045 52.0653 22.06L62.0653 12.06C63.0236 12.5203 64.1139 12.6265 65.1429 12.3598C66.172 12.0931 67.0734 11.4707 67.6874 10.6028C68.3014 9.73498 68.5884 8.67779 68.4974 7.61861C68.4064 6.55943 67.9434 5.56667 67.1903 4.81626H67.1841ZM49.0591 25.0663C48.8491 25.2755 48.5818 25.4179 48.291 25.4753C48.0002 25.5328 47.6988 25.5028 47.4251 25.3891C47.1513 25.2754 46.9173 25.0831 46.7527 24.8366C46.5881 24.59 46.5003 24.3002 46.5003 24.0038C46.5003 23.7073 46.5881 23.4175 46.7527 23.1709C46.9173 22.9244 47.1513 22.7321 47.4251 22.6184C47.6988 22.5048 48.0002 22.4748 48.291 22.5322C48.5818 22.5897 48.8491 22.732 49.0591 22.9413C49.3405 23.2224 49.4988 23.6038 49.499 24.0016C49.4993 24.3994 49.3415 24.781 49.0603 25.0625L49.0591 25.0663ZM65.0591 9.06626C64.9197 9.2061 64.7542 9.31706 64.5718 9.39277C64.3895 9.46847 64.194 9.50745 63.9966 9.50745C63.7992 9.50745 63.6037 9.46847 63.4214 9.39277C63.239 9.31706 63.0735 9.2061 62.9341 9.06626C62.7248 8.85628 62.5825 8.58899 62.525 8.29817C62.4676 8.00734 62.4976 7.706 62.6113 7.43222C62.725 7.15843 62.9172 6.92447 63.1638 6.75988C63.4103 6.59529 63.7001 6.50745 63.9966 6.50745C64.293 6.50745 64.5829 6.59529 64.8294 6.75988C65.076 6.92447 65.2682 7.15843 65.3819 7.43222C65.4956 7.706 65.5256 8.00734 65.4682 8.29817C65.4107 8.58899 65.2684 8.85628 65.0591 9.06626Z" fill="white"/>
</g>
<defs>
<clipPath id="clip0_27_5348">
<rect width="72" height="32" rx="5" fill="white"/>
</clipPath>
</defs>
</svg>
