<svg width="72" height="32" viewBox="0 0 72 32" fill="none" xmlns="http://www.w3.org/2000/svg">
<g clip-path="url(#clip0_27_2866)">
<path d="M28 6H4C3.46957 6 2.96086 6.21071 2.58579 6.58579C2.21071 6.96086 2 7.46957 2 8V24C2 24.5304 2.21071 25.0391 2.58579 25.4142C2.96086 25.7893 3.46957 26 4 26H28C28.5304 26 29.0391 25.7893 29.4142 25.4142C29.7893 25.0391 30 24.5304 30 24V8C30 7.46957 29.7893 6.96086 29.4142 6.58579C29.0391 6.21071 28.5304 6 28 6ZM14 21H10C8.67392 21 7.40215 20.4732 6.46447 19.5355C5.52678 18.5979 5 17.3261 5 16C5 14.6739 5.52678 13.4021 6.46447 12.4645C7.40215 11.5268 8.67392 11 10 11H14C14.2652 11 14.5196 11.1054 14.7071 11.2929C14.8946 11.4804 15 11.7348 15 12C15 12.2652 14.8946 12.5196 14.7071 12.7071C14.5196 12.8946 14.2652 13 14 13H10C9.20435 13 8.44129 13.3161 7.87868 13.8787C7.31607 14.4413 7 15.2044 7 16C7 16.7956 7.31607 17.5587 7.87868 18.1213C8.44129 18.6839 9.20435 19 10 19H14C14.2652 19 14.5196 19.1054 14.7071 19.2929C14.8946 19.4804 15 19.7348 15 20C15 20.2652 14.8946 20.5196 14.7071 20.7071C14.5196 20.8946 14.2652 21 14 21ZM22 21H18C17.7348 21 17.4804 20.8946 17.2929 20.7071C17.1054 20.5196 17 20.2652 17 20C17 19.7348 17.1054 19.4804 17.2929 19.2929C17.4804 19.1054 17.7348 19 18 19H22C22.7956 19 23.5587 18.6839 24.1213 18.1213C24.6839 17.5587 25 16.7956 25 16C25 15.2044 24.6839 14.4413 24.1213 13.8787C23.5587 13.3161 22.7956 13 22 13H18C17.7348 13 17.4804 12.8946 17.2929 12.7071C17.1054 12.5196 17 12.2652 17 12C17 11.7348 17.1054 11.4804 17.2929 11.2929C17.4804 11.1054 17.7348 11 18 11H22C23.3261 11 24.5979 11.5268 25.5355 12.4645C26.4732 13.4021 27 14.6739 27 16C27 17.3261 26.4732 18.5979 25.5355 19.5355C24.5979 20.4732 23.3261 21 22 21Z" fill="white"/>
<path d="M43.5 16C43.5 17.1935 43.9741 18.3381 44.818 19.182C45.6619 20.0259 46.8065 20.5 48 20.5H53C53.3978 20.5 53.7794 20.658 54.0607 20.9393C54.342 21.2206 54.5 21.6022 54.5 22C54.5 22.3978 54.342 22.7794 54.0607 23.0607C53.7794 23.342 53.3978 23.5 53 23.5H48C46.0109 23.5 44.1032 22.7098 42.6967 21.3033C41.2902 19.8968 40.5 17.9891 40.5 16C40.5 14.0109 41.2902 12.1032 42.6967 10.6967C44.1032 9.29018 46.0109 8.5 48 8.5H53C53.3978 8.5 53.7794 8.65804 54.0607 8.93934C54.342 9.22064 54.5 9.60218 54.5 10C54.5 10.3978 54.342 10.7794 54.0607 11.0607C53.7794 11.342 53.3978 11.5 53 11.5H48C46.8065 11.5 45.6619 11.9741 44.818 12.818C43.9741 13.6619 43.5 14.8065 43.5 16ZM64 8.5H59C58.6022 8.5 58.2206 8.65804 57.9393 8.93934C57.658 9.22064 57.5 9.60218 57.5 10C57.5 10.3978 57.658 10.7794 57.9393 11.0607C58.2206 11.342 58.6022 11.5 59 11.5H64C65.1935 11.5 66.3381 11.9741 67.182 12.818C68.0259 13.6619 68.5 14.8065 68.5 16C68.5 17.1935 68.0259 18.3381 67.182 19.182C66.3381 20.0259 65.1935 20.5 64 20.5H59C58.6022 20.5 58.2206 20.658 57.9393 20.9393C57.658 21.2206 57.5 21.6022 57.5 22C57.5 22.3978 57.658 22.7794 57.9393 23.0607C58.2206 23.342 58.6022 23.5 59 23.5H64C65.9891 23.5 67.8968 22.7098 69.3033 21.3033C70.7098 19.8968 71.5 17.9891 71.5 16C71.5 14.0109 70.7098 12.1032 69.3033 10.6967C67.8968 9.29018 65.9891 8.5 64 8.5Z" fill="white"/>
</g>
<defs>
<clipPath id="clip0_27_2866">
<rect width="72" height="32" rx="5" fill="white"/>
</clipPath>
</defs>
</svg>
