<svg width="72" height="32" viewBox="0 0 72 32" fill="none" xmlns="http://www.w3.org/2000/svg">
<g clip-path="url(#clip0_27_184)">
<path d="M27 3H5C4.46957 3 3.96086 3.21071 3.58579 3.58579C3.21071 3.96086 3 4.46957 3 5V27C3 27.5304 3.21071 28.0391 3.58579 28.4142C3.96086 28.7893 4.46957 29 5 29H27C27.5304 29 28.0391 28.7893 28.4142 28.4142C28.7893 28.0391 29 27.5304 29 27V5C29 4.46957 28.7893 3.96086 28.4142 3.58579C28.0391 3.21071 27.5304 3 27 3ZM12 22C12 22.2652 11.8946 22.5196 11.7071 22.7071C11.5196 22.8946 11.2652 23 11 23C10.7348 23 10.4804 22.8946 10.2929 22.7071C10.1054 22.5196 10 22.2652 10 22V14C10 13.7348 10.1054 13.4804 10.2929 13.2929C10.4804 13.1054 10.7348 13 11 13C11.2652 13 11.5196 13.1054 11.7071 13.2929C11.8946 13.4804 12 13.7348 12 14V22ZM11 12C10.7033 12 10.4133 11.912 10.1666 11.7472C9.91997 11.5824 9.72771 11.3481 9.61418 11.074C9.50065 10.7999 9.47094 10.4983 9.52882 10.2074C9.5867 9.91639 9.72956 9.64912 9.93934 9.43934C10.1491 9.22956 10.4164 9.0867 10.7074 9.02882C10.9983 8.97094 11.2999 9.00065 11.574 9.11418C11.8481 9.22771 12.0824 9.41997 12.2472 9.66665C12.412 9.91332 12.5 10.2033 12.5 10.5C12.5 10.8978 12.342 11.2794 12.0607 11.5607C11.7794 11.842 11.3978 12 11 12ZM23 22C23 22.2652 22.8946 22.5196 22.7071 22.7071C22.5196 22.8946 22.2652 23 22 23C21.7348 23 21.4804 22.8946 21.2929 22.7071C21.1054 22.5196 21 22.2652 21 22V17.5C21 16.837 20.7366 16.2011 20.2678 15.7322C19.7989 15.2634 19.163 15 18.5 15C17.837 15 17.2011 15.2634 16.7322 15.7322C16.2634 16.2011 16 16.837 16 17.5V22C16 22.2652 15.8946 22.5196 15.7071 22.7071C15.5196 22.8946 15.2652 23 15 23C14.7348 23 14.4804 22.8946 14.2929 22.7071C14.1054 22.5196 14 22.2652 14 22V14C14.0012 13.7551 14.0923 13.5191 14.256 13.3369C14.4197 13.1546 14.6446 13.0388 14.888 13.0114C15.1314 12.9839 15.3764 13.0468 15.5765 13.188C15.7767 13.3292 15.918 13.539 15.9738 13.7775C16.6502 13.3186 17.4389 13.0526 18.2552 13.0081C19.0714 12.9637 19.8844 13.1424 20.6067 13.5251C21.329 13.9078 21.9335 14.48 22.3551 15.1803C22.7768 15.8806 22.9997 16.6825 23 17.5V22Z" fill="white"/>
<path d="M67 2.5H45C44.337 2.5 43.7011 2.76339 43.2322 3.23223C42.7634 3.70107 42.5 4.33696 42.5 5V27C42.5 27.663 42.7634 28.2989 43.2322 28.7678C43.7011 29.2366 44.337 29.5 45 29.5H67C67.663 29.5 68.2989 29.2366 68.7678 28.7678C69.2366 28.2989 69.5 27.663 69.5 27V5C69.5 4.33696 69.2366 3.70107 68.7678 3.23223C68.2989 2.76339 67.663 2.5 67 2.5ZM66.5 26.5H45.5V5.5H66.5V26.5ZM54 22V15C54.0003 14.6883 54.0977 14.3844 54.2787 14.1306C54.4596 13.8768 54.7152 13.6856 55.0098 13.5838C55.3044 13.4819 55.6235 13.4743 55.9226 13.5622C56.2217 13.65 56.486 13.8288 56.6787 14.0737C57.4406 13.6744 58.2927 13.4784 59.1525 13.5046C60.0122 13.5308 60.8507 13.7784 61.5869 14.2235C62.323 14.6685 62.9318 15.2959 63.3546 16.0451C63.7773 16.7943 63.9996 17.6398 64 18.5V22C64 22.3978 63.842 22.7794 63.5607 23.0607C63.2794 23.342 62.8978 23.5 62.5 23.5C62.1022 23.5 61.7206 23.342 61.4393 23.0607C61.158 22.7794 61 22.3978 61 22V18.5C61 17.9696 60.7893 17.4609 60.4142 17.0858C60.0391 16.7107 59.5304 16.5 59 16.5C58.4696 16.5 57.9609 16.7107 57.5858 17.0858C57.2107 17.4609 57 17.9696 57 18.5V22C57 22.3978 56.842 22.7794 56.5607 23.0607C56.2794 23.342 55.8978 23.5 55.5 23.5C55.1022 23.5 54.7206 23.342 54.4393 23.0607C54.158 22.7794 54 22.3978 54 22ZM52 15V22C52 22.3978 51.842 22.7794 51.5607 23.0607C51.2794 23.342 50.8978 23.5 50.5 23.5C50.1022 23.5 49.7206 23.342 49.4393 23.0607C49.158 22.7794 49 22.3978 49 22V15C49 14.6022 49.158 14.2206 49.4393 13.9393C49.7206 13.658 50.1022 13.5 50.5 13.5C50.8978 13.5 51.2794 13.658 51.5607 13.9393C51.842 14.2206 52 14.6022 52 15ZM48.5 10C48.5 9.60444 48.6173 9.21776 48.8371 8.88886C49.0568 8.55996 49.3692 8.30362 49.7346 8.15224C50.1001 8.00087 50.5022 7.96126 50.8902 8.03843C51.2781 8.1156 51.6345 8.30608 51.9142 8.58579C52.1939 8.86549 52.3844 9.22186 52.4616 9.60982C52.5387 9.99778 52.4991 10.3999 52.3478 10.7654C52.1964 11.1308 51.94 11.4432 51.6111 11.6629C51.2822 11.8827 50.8956 12 50.5 12C49.9696 12 49.4609 11.7893 49.0858 11.4142C48.7107 11.0391 48.5 10.5304 48.5 10Z" fill="white"/>
</g>
<defs>
<clipPath id="clip0_27_184">
<rect width="72" height="32" rx="5" fill="white"/>
</clipPath>
</defs>
</svg>
