<svg width="72" height="32" viewBox="0 0 72 32" fill="none" xmlns="http://www.w3.org/2000/svg">
<g clip-path="url(#clip0_27_2856)">
<path d="M26 4H6C5.46957 4 4.96086 4.21071 4.58579 4.58579C4.21071 4.96086 4 5.46957 4 6V26C4 26.5304 4.21071 27.0391 4.58579 27.4142C4.96086 27.7893 5.46957 28 6 28H26C26.5304 28 27.0391 27.7893 27.4142 27.4142C27.7893 27.0391 28 26.5304 28 26V6C28 5.46957 27.7893 4.96086 27.4142 4.58579C27.0391 4.21071 26.5304 4 26 4ZM18.07 21.7075L15.3888 24.3888C14.3528 25.3978 12.9611 25.9582 11.515 25.9487C10.0689 25.9391 8.68471 25.3604 7.66213 24.3379C6.63955 23.3153 6.06086 21.9311 6.05134 20.485C6.04182 19.0389 6.60223 17.6472 7.61125 16.6112L10.2925 13.9288C10.3853 13.8358 10.4955 13.7621 10.6169 13.7118C10.7382 13.6615 10.8682 13.6356 10.9996 13.6355C11.1309 13.6355 11.261 13.6613 11.3823 13.7115C11.5037 13.7617 11.614 13.8353 11.7069 13.9281C11.7998 14.021 11.8735 14.1312 11.9238 14.2525C11.9741 14.3738 12.0001 14.5038 12.0001 14.6352C12.0002 14.7665 11.9744 14.8966 11.9242 15.0179C11.8739 15.1393 11.8003 15.2496 11.7075 15.3425L9.025 18.025C8.36859 18.6814 7.99982 19.5717 7.99982 20.5C7.99982 21.4283 8.36859 22.3186 9.025 22.975C9.68141 23.6314 10.5717 24.0002 11.5 24.0002C12.4283 24.0002 13.3186 23.6314 13.975 22.975L16.6562 20.2925C16.8439 20.105 17.0983 19.9998 17.3636 19.9999C17.6288 20 17.8832 20.1055 18.0706 20.2931C18.2581 20.4808 18.3634 20.7352 18.3632 21.0004C18.3631 21.2657 18.2576 21.52 18.07 21.7075ZM24.3888 15.3888L21.7075 18.07C21.52 18.2576 21.2657 18.3631 21.0004 18.3632C20.7352 18.3634 20.4808 18.2581 20.2931 18.0706C20.1055 17.8832 20 17.6288 19.9999 17.3636C19.9998 17.0983 20.105 16.8439 20.2925 16.6562L22.975 13.975C23.6314 13.3186 24.0002 12.4283 24.0002 11.5C24.0002 10.5717 23.6314 9.68141 22.975 9.025C22.3186 8.36859 21.4283 7.99982 20.5 7.99982C19.5717 7.99982 18.6814 8.36859 18.025 9.025L15.3425 11.7075C15.1549 11.895 14.9004 12.0002 14.6352 12.0001C14.3699 12 14.1156 11.8945 13.9281 11.7069C13.7407 11.5192 13.6354 11.2648 13.6355 10.9996C13.6356 10.7343 13.7411 10.48 13.9288 10.2925L16.6112 7.61125C17.6472 6.60223 19.0389 6.04182 20.485 6.05134C21.9311 6.06086 23.3153 6.63955 24.3379 7.66213C25.3604 8.68471 25.9391 10.0689 25.9487 11.515C25.9582 12.9611 25.3978 14.3528 24.3888 15.3888Z" fill="white"/>
<path d="M67.306 15.3037L63.546 19.0612C63.2643 19.343 62.8821 19.5013 62.4835 19.5013C62.085 19.5013 61.7028 19.343 61.421 19.0612C61.1393 18.7794 60.9809 18.3972 60.9809 17.9987C60.9809 17.6002 61.1393 17.218 61.421 16.9362L65.181 13.1775C66.0251 12.3333 66.4992 11.1883 66.4991 9.99453C66.499 8.80075 66.0246 7.6559 65.1804 6.81185C64.3362 5.9678 63.1913 5.49368 61.9975 5.4938C60.8037 5.49391 59.6588 5.96826 58.8148 6.81247L55.0598 10.5737C54.778 10.8555 54.3958 11.0138 53.9973 11.0138C53.5988 11.0138 53.2166 10.8555 52.9348 10.5737C52.653 10.2919 52.4947 9.90974 52.4947 9.51122C52.4947 9.11271 52.653 8.73052 52.9348 8.44872L56.6935 4.69122C58.1005 3.28442 60.0087 2.49415 61.9984 2.49426C63.988 2.49438 65.8961 3.28488 67.3029 4.69185C68.7097 6.09882 69.5 8.00702 69.4999 9.99667C69.4998 11.9863 68.7093 13.8944 67.3023 15.3012L67.306 15.3037ZM56.9398 21.4287L53.181 25.1887C52.763 25.6067 52.2668 25.9382 51.7207 26.1643C51.1745 26.3905 50.5892 26.5068 49.9981 26.5068C49.407 26.5067 48.8217 26.3902 48.2756 26.164C47.7295 25.9377 47.2334 25.6061 46.8154 25.1881C45.9714 24.3439 45.4972 23.1989 45.4974 22.0052C45.4975 20.8114 45.9718 19.6665 46.816 18.8225L50.5735 15.0637C50.8553 14.7819 51.0136 14.3997 51.0136 14.0012C51.0136 13.6027 50.8553 13.2205 50.5735 12.9387C50.2917 12.6569 49.9096 12.4986 49.511 12.4986C49.1125 12.4986 48.7303 12.6569 48.4485 12.9387L44.6935 16.6975C43.997 17.3941 43.4444 18.2212 43.0675 19.1314C42.6905 20.0416 42.4965 21.0171 42.4966 22.0023C42.4967 23.9919 43.2872 25.9 44.6942 27.3068C46.1011 28.7137 48.0093 29.5039 49.999 29.5038C51.9886 29.5037 53.8967 28.7132 55.3035 27.3062L59.061 23.5475C59.3428 23.2657 59.5011 22.8835 59.5011 22.485C59.5011 22.0865 59.3428 21.7043 59.061 21.4225C58.7793 21.1407 58.3971 20.9824 57.9985 20.9824C57.6 20.9824 57.2178 21.1407 56.936 21.4225L56.9398 21.4287Z" fill="white"/>
</g>
<defs>
<clipPath id="clip0_27_2856">
<rect width="72" height="32" rx="5" fill="white"/>
</clipPath>
</defs>
</svg>
