<svg width="72" height="32" viewBox="0 0 72 32" fill="none" xmlns="http://www.w3.org/2000/svg">
<g clip-path="url(#clip0_27_189)">
<path d="M25 3H7C6.46957 3 5.96086 3.21071 5.58579 3.58579C5.21071 3.96086 5 4.46957 5 5V27C5 27.5304 5.21071 28.0391 5.58579 28.4142C5.96086 28.7893 6.46957 29 7 29H25C25.5304 29 26.0391 28.7893 26.4142 28.4142C26.7893 28.0391 27 27.5304 27 27V5C27 4.46957 26.7893 3.96086 26.4142 3.58579C26.0391 3.21071 25.5304 3 25 3ZM17 25C17 25.2652 16.8946 25.5196 16.7071 25.7071C16.5196 25.8946 16.2652 26 16 26C15.7348 26 15.4804 25.8946 15.2929 25.7071C15.1054 25.5196 15 25.2652 15 25V20C15 19.7348 15.1054 19.4804 15.2929 19.2929C15.4804 19.1054 15.7348 19 16 19C16.2652 19 16.5196 19.1054 16.7071 19.2929C16.8946 19.4804 17 19.7348 17 20V25ZM23 15H18.4137L21.7075 18.2925C21.8004 18.3854 21.8741 18.4957 21.9244 18.6171C21.9747 18.7385 22.0006 18.8686 22.0006 19C22.0006 19.1314 21.9747 19.2615 21.9244 19.3829C21.8741 19.5043 21.8004 19.6146 21.7075 19.7075C21.6146 19.8004 21.5043 19.8741 21.3829 19.9244C21.2615 19.9747 21.1314 20.0006 21 20.0006C20.8686 20.0006 20.7385 19.9747 20.6171 19.9244C20.4957 19.8741 20.3854 19.8004 20.2925 19.7075L16 15.4137L11.7075 19.7075C11.6146 19.8004 11.5043 19.8741 11.3829 19.9244C11.2615 19.9747 11.1314 20.0006 11 20.0006C10.8686 20.0006 10.7385 19.9747 10.6171 19.9244C10.4957 19.8741 10.3854 19.8004 10.2925 19.7075C10.1996 19.6146 10.1259 19.5043 10.0756 19.3829C10.0253 19.2615 9.99944 19.1314 9.99944 19C9.99944 18.8686 10.0253 18.7385 10.0756 18.6171C10.1259 18.4957 10.1996 18.3854 10.2925 18.2925L13.5863 15H9C8.73478 15 8.48043 14.8946 8.29289 14.7071C8.10536 14.5196 8 14.2652 8 14C8 13.7348 8.10536 13.4804 8.29289 13.2929C8.48043 13.1054 8.73478 13 9 13H13.5863L10.2925 9.7075C10.1049 9.51986 9.99944 9.26536 9.99944 9C9.99944 8.73464 10.1049 8.48014 10.2925 8.2925C10.4801 8.10486 10.7346 7.99944 11 7.99944C11.2654 7.99944 11.5199 8.10486 11.7075 8.2925L15 11.5863V7C15 6.73478 15.1054 6.48043 15.2929 6.29289C15.4804 6.10536 15.7348 6 16 6C16.2652 6 16.5196 6.10536 16.7071 6.29289C16.8946 6.48043 17 6.73478 17 7V11.5863L20.2925 8.2925C20.4801 8.10486 20.7346 7.99944 21 7.99944C21.2654 7.99944 21.5199 8.10486 21.7075 8.2925C21.8951 8.48014 22.0006 8.73464 22.0006 9C22.0006 9.26536 21.8951 9.51986 21.7075 9.7075L18.4137 13H23C23.2652 13 23.5196 13.1054 23.7071 13.2929C23.8946 13.4804 24 13.7348 24 14C24 14.2652 23.8946 14.5196 23.7071 14.7071C23.5196 14.8946 23.2652 15 23 15Z" fill="white"/>
<path d="M57.5 20.5V29C57.5 29.3978 57.342 29.7794 57.0607 30.0607C56.7794 30.342 56.3978 30.5 56 30.5C55.6022 30.5 55.2206 30.342 54.9393 30.0607C54.658 29.7794 54.5 29.3978 54.5 29V20.5C54.5 20.1022 54.658 19.7206 54.9393 19.4393C55.2206 19.158 55.6022 19 56 19C56.3978 19 56.7794 19.158 57.0607 19.4393C57.342 19.7206 57.5 20.1022 57.5 20.5ZM66 11.5H59.625L64.065 7.06125C64.3468 6.77946 64.5051 6.39726 64.5051 5.99875C64.5051 5.60024 64.3468 5.21804 64.065 4.93625C63.7832 4.65446 63.401 4.49615 63.0025 4.49615C62.604 4.49615 62.2218 4.65446 61.94 4.93625L57.5 9.375V3C57.5 2.60218 57.342 2.22064 57.0607 1.93934C56.7794 1.65804 56.3978 1.5 56 1.5C55.6022 1.5 55.2206 1.65804 54.9393 1.93934C54.658 2.22064 54.5 2.60218 54.5 3V9.375L50.0612 4.93875C49.7795 4.65696 49.3973 4.49865 48.9987 4.49865C48.6002 4.49865 48.218 4.65696 47.9363 4.93875C47.6545 5.22054 47.4961 5.60274 47.4961 6.00125C47.4961 6.39976 47.6545 6.78196 47.9363 7.06375L52.375 11.5H46C45.6022 11.5 45.2206 11.658 44.9393 11.9393C44.658 12.2206 44.5 12.6022 44.5 13C44.5 13.3978 44.658 13.7794 44.9393 14.0607C45.2206 14.342 45.6022 14.5 46 14.5H52.375L47.9387 18.9387C47.7992 19.0783 47.6885 19.2439 47.613 19.4262C47.5375 19.6085 47.4986 19.8039 47.4986 20.0012C47.4986 20.3998 47.657 20.782 47.9387 21.0637C48.2205 21.3455 48.6027 21.5039 49.0013 21.5039C49.3998 21.5039 49.782 21.3455 50.0638 21.0637L56 15.125L61.9387 21.065C62.2205 21.3468 62.6027 21.5051 63.0012 21.5051C63.3998 21.5051 63.782 21.3468 64.0637 21.065C64.3455 20.7832 64.5039 20.401 64.5039 20.0025C64.5039 19.604 64.3455 19.2218 64.0637 18.94L59.625 14.5H66C66.3978 14.5 66.7794 14.342 67.0607 14.0607C67.342 13.7794 67.5 13.3978 67.5 13C67.5 12.6022 67.342 12.2206 67.0607 11.9393C66.7794 11.658 66.3978 11.5 66 11.5Z" fill="white"/>
</g>
<defs>
<clipPath id="clip0_27_189">
<rect width="72" height="32" rx="5" fill="white"/>
</clipPath>
</defs>
</svg>
