<svg width="72" height="32" viewBox="0 0 72 32" fill="none" xmlns="http://www.w3.org/2000/svg">
<g clip-path="url(#clip0_27_2841)">
<path d="M26 4H6C5.46957 4 4.96086 4.21071 4.58579 4.58579C4.21071 4.96086 4 5.46957 4 6V26C4 26.5304 4.21071 27.0391 4.58579 27.4142C4.96086 27.7893 5.46957 28 6 28H26C26.5304 28 27.0391 27.7893 27.4142 27.4142C27.7893 27.0391 28 26.5304 28 26V6C28 5.46957 27.7893 4.96086 27.4142 4.58579C27.0391 4.21071 26.5304 4 26 4ZM14.4625 24.0613C13.3482 24.8208 11.9906 25.1371 10.6553 24.9482C9.32007 24.7594 8.10336 24.0791 7.24337 23.0403C6.38337 22.0016 5.942 20.6793 6.00565 19.3323C6.0693 17.9853 6.63339 16.7105 7.5875 15.7575L10.7587 12.5863C11.7747 11.5722 13.1515 11.0026 14.5869 11.0026C16.0223 11.0026 17.3991 11.5722 18.415 12.5863C18.9639 13.1319 19.3882 13.7899 19.6588 14.515C19.7047 14.6381 19.726 14.7691 19.7213 14.9004C19.7167 15.0317 19.6862 15.1609 19.6317 15.2804C19.5771 15.4 19.4995 15.5076 19.4034 15.5972C19.3072 15.6868 19.1944 15.7565 19.0713 15.8025C18.9481 15.8485 18.8172 15.8697 18.6858 15.8651C18.5545 15.8604 18.4254 15.83 18.3058 15.7754C18.1863 15.7208 18.0786 15.6433 17.9891 15.5471C17.8995 15.451 17.8297 15.3381 17.7838 15.215C17.5828 14.6802 17.2509 14.2044 16.8185 13.831C16.3861 13.4577 15.867 13.1987 15.3086 13.0778C14.7503 12.9569 14.1705 12.978 13.6224 13.1391C13.0743 13.3002 12.5754 13.5962 12.1713 14L9 17.1712C8.39887 17.7724 8.04358 18.5762 8.00359 19.4254C7.96361 20.2746 8.2418 21.1081 8.78379 21.7631C9.32577 22.4181 10.0926 22.8474 10.9343 22.967C11.7759 23.0866 12.632 22.888 13.335 22.41C13.4431 22.3291 13.5665 22.271 13.6977 22.2391C13.8289 22.2072 13.9653 22.2023 14.0984 22.2245C14.2316 22.2467 14.3589 22.2957 14.4727 22.3684C14.5864 22.4412 14.6843 22.5362 14.7603 22.6478C14.8363 22.7594 14.889 22.8852 14.915 23.0177C14.9411 23.1502 14.9401 23.2866 14.912 23.4187C14.884 23.5507 14.8295 23.6758 14.7518 23.7862C14.6741 23.8966 14.5748 23.9902 14.46 24.0613H14.4625ZM24.4137 16.2425L21.2425 19.4137C20.7412 19.9182 20.1447 20.3182 19.4877 20.5905C18.8307 20.8628 18.1262 21.002 17.415 21C16.3133 20.9986 15.2383 20.6614 14.3332 20.0334C13.428 19.4054 12.7358 18.5164 12.3488 17.485C12.2559 17.2364 12.2657 16.961 12.3758 16.7196C12.486 16.4781 12.6876 16.2903 12.9362 16.1975C13.1849 16.1047 13.4602 16.1144 13.7017 16.2246C13.9431 16.3348 14.1309 16.5364 14.2238 16.785C14.4678 17.4336 14.9031 17.9928 15.4722 18.3884C16.0412 18.7839 16.717 18.9972 17.41 19C17.8587 19.0013 18.3031 18.9136 18.7177 18.7419C19.1322 18.5703 19.5086 18.3181 19.825 18L23 14.8287C23.6011 14.2276 23.9564 13.4238 23.9964 12.5746C24.0364 11.7254 23.7582 10.8919 23.2162 10.2369C22.6742 9.58191 21.9074 9.15263 21.0657 9.033C20.2241 8.91337 19.368 9.11198 18.665 9.59C18.5569 9.67086 18.4335 9.72899 18.3023 9.76088C18.1711 9.79276 18.0347 9.79774 17.9016 9.77552C17.7684 9.7533 17.6411 9.70434 17.5273 9.63158C17.4136 9.55883 17.3157 9.46379 17.2397 9.3522C17.1637 9.24061 17.111 9.11478 17.085 8.9823C17.0589 8.84981 17.0599 8.71342 17.088 8.58134C17.116 8.44926 17.1705 8.32423 17.2482 8.21379C17.3259 8.10335 17.4252 8.00979 17.54 7.93875C18.6545 7.18305 20.0106 6.86972 21.3437 7.05989C22.6768 7.25007 23.8911 7.93011 24.7499 8.96731C25.6086 10.0045 26.0501 11.3245 25.9882 12.6696C25.9263 14.0148 25.3654 15.2886 24.415 16.2425H24.4137Z" fill="white"/>
<path d="M54.6475 23.5925C54.7873 23.7318 54.8983 23.8974 54.974 24.0798C55.0497 24.2621 55.0887 24.4576 55.0887 24.655C55.0887 24.8524 55.0497 25.0479 54.974 25.2302C54.8983 25.4125 54.7873 25.5781 54.6475 25.7175L54.0075 26.3575C53.3281 27.0394 52.5203 27.5798 51.6307 27.9476C50.7412 28.3153 49.7875 28.5031 48.825 28.5C47.3754 28.5005 45.9582 28.071 44.7528 27.2658C43.5474 26.4607 42.6078 25.3161 42.053 23.9769C41.4982 22.6377 41.3531 21.164 41.636 19.7423C41.919 18.3206 42.6172 17.0148 43.6425 15.99L47.9862 11.6462C48.9101 10.7225 50.0642 10.0624 51.3289 9.73443C52.5935 9.40645 53.9229 9.42246 55.1793 9.7808C56.4358 10.1391 57.5736 10.8268 58.475 11.7725C59.3764 12.7183 60.0086 13.8878 60.3062 15.16C60.3555 15.3534 60.3657 15.5547 60.3362 15.7522C60.3067 15.9496 60.2381 16.1391 60.1344 16.3097C60.0307 16.4802 59.894 16.6284 59.7323 16.7454C59.5706 16.8625 59.3872 16.9461 59.1927 16.9913C58.9983 17.0366 58.7968 17.0426 58.6001 17.009C58.4033 16.9754 58.2153 16.9028 58.0469 16.7956C57.8785 16.6884 57.7333 16.5486 57.6196 16.3845C57.5059 16.2204 57.4262 16.0353 57.385 15.84C57.2084 15.089 56.8344 14.3989 56.3017 13.8408C55.769 13.2828 55.097 12.8772 54.355 12.6659C53.6131 12.4546 52.8282 12.4453 52.0814 12.639C51.3347 12.8326 50.6532 13.2222 50.1075 13.7675L45.7637 18.1112C45.1582 18.7162 44.7458 19.4872 44.5785 20.3266C44.4111 21.1661 44.4965 22.0363 44.8238 22.8272C45.1511 23.6181 45.7056 24.2941 46.4171 24.7699C47.1286 25.2457 47.9653 25.4997 48.8212 25.5C49.3899 25.5016 49.9533 25.3904 50.4788 25.1728C51.0042 24.9553 51.4813 24.6357 51.8825 24.2325L52.5212 23.5925C52.6606 23.4525 52.8263 23.3413 53.0087 23.2655C53.1912 23.1897 53.3868 23.1507 53.5843 23.1507C53.7819 23.1507 53.9775 23.1897 54.16 23.2655C54.3424 23.3413 54.5081 23.4525 54.6475 23.5925ZM68.3537 5.64624C66.9789 4.27188 65.1145 3.49982 63.1706 3.49982C61.2266 3.49982 59.3623 4.27188 57.9875 5.64624L57.3487 6.28499C57.0669 6.56678 56.9086 6.94897 56.9086 7.34749C56.9086 7.746 57.0669 8.1282 57.3487 8.40999C57.6305 8.69178 58.0127 8.85009 58.4112 8.85009C58.8097 8.85009 59.1919 8.69178 59.4737 8.40999L60.1137 7.76999C60.9259 6.95776 62.0276 6.50146 63.1762 6.50146C64.3249 6.50146 65.4265 6.95776 66.2387 7.76999C67.0509 8.58221 67.5072 9.68383 67.5072 10.8325C67.5072 11.9811 67.0509 13.0828 66.2387 13.895L61.8875 18.2325C61.4864 18.6358 61.0093 18.9554 60.4839 19.173C59.9584 19.3906 59.395 19.5017 58.8262 19.5C57.8506 19.4993 56.9038 19.169 56.1394 18.5628C55.375 17.9565 54.8378 17.1098 54.615 16.16C54.5248 15.7724 54.2844 15.4366 53.9466 15.2263C53.6088 15.016 53.2013 14.9486 52.8137 15.0387C52.4262 15.1289 52.0903 15.3693 51.88 15.7071C51.6698 16.0449 51.6023 16.4524 51.6925 16.84C52.0689 18.4486 52.9776 19.8829 54.2713 20.9102C55.5651 21.9376 57.1679 22.4978 58.82 22.5H58.8262C59.7892 22.5026 60.7432 22.3143 61.633 21.9459C62.5228 21.5775 63.3307 21.0364 64.01 20.3537L68.3537 16.01C69.0343 15.3295 69.5742 14.5217 69.9425 13.6326C70.3109 12.7435 70.5004 11.7905 70.5004 10.8281C70.5004 9.86572 70.3109 8.91276 69.9425 8.02364C69.5742 7.13453 69.0343 6.32668 68.3537 5.64624Z" fill="white"/>
</g>
<defs>
<clipPath id="clip0_27_2841">
<rect width="72" height="32" rx="5" fill="white"/>
</clipPath>
</defs>
</svg>
