<svg width="72" height="32" viewBox="0 0 72 32" fill="none" xmlns="http://www.w3.org/2000/svg">
<g clip-path="url(#clip0_27_2851)">
<path d="M26 4H6C5.46957 4 4.96086 4.21071 4.58579 4.58579C4.21071 4.96086 4 5.46957 4 6V26C4 26.5304 4.21071 27.0391 4.58579 27.4142C4.96086 27.7893 5.46957 28 6 28H26C26.5304 28 27.0391 27.7893 27.4142 27.4142C27.7893 27.0391 28 26.5304 28 26V6C28 5.46957 27.7893 4.96086 27.4142 4.58579C27.0391 4.21071 26.5304 4 26 4ZM18.07 21.7075L15.3888 24.3888C14.3528 25.3978 12.9611 25.9582 11.515 25.9487C10.0689 25.9391 8.68471 25.3604 7.66213 24.3379C6.63955 23.3153 6.06086 21.9311 6.05134 20.485C6.04182 19.0389 6.60223 17.6472 7.61125 16.6112L10.2925 13.9288C10.3853 13.8358 10.4955 13.7621 10.6169 13.7118C10.7382 13.6615 10.8682 13.6356 10.9996 13.6355C11.1309 13.6355 11.261 13.6613 11.3823 13.7115C11.5037 13.7617 11.614 13.8353 11.7069 13.9281C11.7998 14.021 11.8735 14.1312 11.9238 14.2525C11.9741 14.3738 12.0001 14.5038 12.0001 14.6352C12.0002 14.7665 11.9744 14.8966 11.9242 15.0179C11.8739 15.1393 11.8003 15.2496 11.7075 15.3425L9.025 18.025C8.36859 18.6814 7.99982 19.5717 7.99982 20.5C7.99982 21.4283 8.36859 22.3186 9.025 22.975C9.68141 23.6314 10.5717 24.0002 11.5 24.0002C12.4283 24.0002 13.3186 23.6314 13.975 22.975L16.6562 20.2925C16.8439 20.105 17.0983 19.9998 17.3636 19.9999C17.6288 20 17.8832 20.1055 18.0706 20.2931C18.2581 20.4808 18.3634 20.7352 18.3632 21.0004C18.3631 21.2657 18.2576 21.52 18.07 21.7075ZM13.7075 19.7075C13.6146 19.8004 13.5043 19.8741 13.3829 19.9244C13.2615 19.9747 13.1314 20.0006 13 20.0006C12.8686 20.0006 12.7385 19.9747 12.6171 19.9244C12.4957 19.8741 12.3854 19.8004 12.2925 19.7075C12.1996 19.6146 12.1259 19.5043 12.0756 19.3829C12.0253 19.2615 11.9994 19.1314 11.9994 19C11.9994 18.8686 12.0253 18.7385 12.0756 18.6171C12.1259 18.4957 12.1996 18.3854 12.2925 18.2925L18.2925 12.2925C18.3854 12.1996 18.4957 12.1259 18.6171 12.0756C18.7385 12.0253 18.8686 11.9994 19 11.9994C19.1314 11.9994 19.2615 12.0253 19.3829 12.0756C19.5043 12.1259 19.6146 12.1996 19.7075 12.2925C19.8004 12.3854 19.8741 12.4957 19.9244 12.6171C19.9747 12.7385 20.0006 12.8686 20.0006 13C20.0006 13.1314 19.9747 13.2615 19.9244 13.3829C19.8741 13.5043 19.8004 13.6146 19.7075 13.7075L13.7075 19.7075ZM24.3888 15.3888L21.7075 18.07C21.52 18.2576 21.2657 18.3631 21.0004 18.3632C20.7352 18.3634 20.4808 18.2581 20.2931 18.0706C20.1055 17.8832 20 17.6288 19.9999 17.3636C19.9998 17.0983 20.105 16.8439 20.2925 16.6562L22.975 13.975C23.6314 13.3186 24.0002 12.4283 24.0002 11.5C24.0002 10.5717 23.6314 9.68141 22.975 9.025C22.3186 8.36859 21.4283 7.99982 20.5 7.99982C19.5717 7.99982 18.6814 8.36859 18.025 9.025L15.3425 11.7075C15.1549 11.895 14.9004 12.0002 14.6352 12.0001C14.3699 12 14.1156 11.8945 13.9281 11.7069C13.7407 11.5192 13.6354 11.2648 13.6355 10.9996C13.6356 10.7343 13.7411 10.48 13.9288 10.2925L16.6112 7.61125C17.6472 6.60223 19.0389 6.04182 20.485 6.05134C21.9311 6.06086 23.3153 6.63955 24.3379 7.66213C25.3604 8.68471 25.9391 10.0689 25.9487 11.515C25.9582 12.9611 25.3978 14.3528 24.3888 15.3888Z" fill="white"/>
<path d="M50.9373 18.94L58.9373 10.94C59.0768 10.8004 59.2425 10.6898 59.4248 10.6143C59.6071 10.5387 59.8025 10.4999 59.9998 10.4999C60.1971 10.4999 60.3925 10.5387 60.5748 10.6143C60.7571 10.6898 60.9228 10.8004 61.0623 10.94C61.2018 11.0795 61.3125 11.2452 61.388 11.4275C61.4635 11.6098 61.5024 11.8052 61.5024 12.0025C61.5024 12.1998 61.4635 12.3952 61.388 12.5775C61.3125 12.7598 61.2018 12.9254 61.0623 13.065L53.0623 21.065C52.7805 21.3468 52.3983 21.5051 51.9998 21.5051C51.6013 21.5051 51.2191 21.3468 50.9373 21.065C50.6555 20.7832 50.4972 20.401 50.4972 20.0025C50.4972 19.604 50.6555 19.2218 50.9373 18.94ZM67.3123 4.68998C65.9044 3.28524 63.9968 2.49634 62.0079 2.49634C60.0191 2.49634 58.1115 3.28524 56.7035 4.68998L52.9385 8.45123C52.6568 8.73302 52.4984 9.11521 52.4984 9.51373C52.4984 9.71105 52.5373 9.90644 52.6128 10.0887C52.6883 10.2711 52.799 10.4367 52.9385 10.5762C53.0781 10.7158 53.2437 10.8264 53.426 10.9019C53.6083 10.9775 53.8037 11.0163 54.001 11.0163C54.3996 11.0163 54.7818 10.858 55.0635 10.5762L58.8223 6.81873C59.6663 5.97451 60.8112 5.50017 62.005 5.50005C63.1988 5.49993 64.3437 5.97405 65.1879 6.8181C66.0321 7.66215 66.5065 8.807 66.5066 10.0008C66.5067 11.1946 66.0326 12.3395 65.1885 13.1837L61.4248 16.94C61.2853 17.0795 61.1746 17.2452 61.0991 17.4275C61.0236 17.6098 60.9847 17.8052 60.9847 18.0025C60.9847 18.1998 61.0236 18.3952 61.0991 18.5775C61.1746 18.7598 61.2853 18.9254 61.4248 19.065C61.5643 19.2045 61.73 19.3152 61.9123 19.3907C62.0946 19.4662 62.29 19.5051 62.4873 19.5051C62.6846 19.5051 62.88 19.4662 63.0623 19.3907C63.2446 19.3152 63.4103 19.2045 63.5498 19.065L67.3098 15.3075C68.7153 13.8987 69.5042 11.9898 69.5035 9.99983C69.5028 8.00986 68.7125 6.1015 67.306 4.69373L67.3123 4.68998ZM56.9398 21.425L53.181 25.185C52.763 25.6029 52.2668 25.9344 51.7207 26.1606C51.1745 26.3867 50.5892 26.5031 49.9981 26.503C49.407 26.503 48.8217 26.3865 48.2756 26.1602C47.7295 25.934 47.2334 25.6024 46.8154 25.1844C45.9714 24.3401 45.4972 23.1952 45.4974 22.0014C45.4975 20.8076 45.9718 19.6628 46.816 18.8187L50.5735 15.06C50.7131 14.9204 50.8238 14.7548 50.8993 14.5725C50.9748 14.3902 51.0136 14.1948 51.0136 13.9975C51.0136 13.8002 50.9748 13.6048 50.8993 13.4225C50.8238 13.2402 50.7131 13.0745 50.5735 12.935C50.434 12.7954 50.2684 12.6848 50.0861 12.6093C49.9038 12.5337 49.7084 12.4949 49.511 12.4949C49.3137 12.4949 49.1183 12.5337 48.936 12.6093C48.7537 12.6848 48.5881 12.7954 48.4485 12.935L44.6935 16.6975C43.997 17.3941 43.4444 18.2212 43.0675 19.1314C42.6905 20.0416 42.4965 21.0171 42.4966 22.0023C42.4967 23.9919 43.2872 25.9 44.6942 27.3069C46.1011 28.7137 48.0093 29.5039 49.999 29.5038C51.9886 29.5037 53.8967 28.7132 55.3035 27.3062L59.061 23.5475C59.3428 23.2657 59.5011 22.8835 59.5011 22.485C59.5011 22.0865 59.3428 21.7043 59.061 21.4225C58.7793 21.1407 58.3971 20.9824 57.9985 20.9824C57.6 20.9824 57.2178 21.1407 56.936 21.4225L56.9398 21.425Z" fill="white"/>
</g>
<defs>
<clipPath id="clip0_27_2851">
<rect width="72" height="32" rx="5" fill="white"/>
</clipPath>
</defs>
</svg>
