<svg width="72" height="32" viewBox="0 0 72 32" fill="none" xmlns="http://www.w3.org/2000/svg">
<g clip-path="url(#clip0_27_194)">
<path d="M20.1525 26.2175C20.204 26.2927 20.2339 26.3805 20.2391 26.4715C20.2443 26.5625 20.2246 26.6532 20.182 26.7337C20.1394 26.8143 20.0756 26.8817 19.9974 26.9286C19.9193 26.9755 19.8299 27.0002 19.7387 27H12.2625C12.1714 27.0002 12.0819 26.9755 12.0038 26.9286C11.9257 26.8817 11.8619 26.8143 11.8193 26.7337C11.7767 26.6532 11.7569 26.5625 11.7621 26.4715C11.7673 26.3805 11.7973 26.2927 11.8487 26.2175C12.306 25.5361 12.9239 24.9777 13.648 24.5916C14.3721 24.2055 15.18 24.0035 16.0006 24.0035C16.8212 24.0035 17.6292 24.2055 18.3533 24.5916C19.0773 24.9777 19.6953 25.5361 20.1525 26.2175ZM28.7687 26.6388C28.6696 26.7543 28.5461 26.8466 28.4072 26.9091C28.2683 26.9715 28.1173 27.0026 27.965 27H23.07C22.9671 26.9999 22.8667 26.968 22.7826 26.9087C22.6985 26.8494 22.6347 26.7656 22.6 26.6688C22.1174 25.3042 21.2236 24.1228 20.0417 23.2872C18.8599 22.4516 17.448 22.0029 16.0006 22.0029C14.5532 22.0029 13.1414 22.4516 11.9595 23.2872C10.7777 24.1228 9.88388 25.3042 9.40124 26.6688C9.36651 26.7656 9.30274 26.8494 9.21862 26.9087C9.13451 26.968 9.03415 26.9999 8.93124 27H4.02874C3.87615 27.0025 3.72492 26.971 3.58608 26.9076C3.44724 26.8443 3.3243 26.7507 3.22624 26.6338C3.08097 26.4566 3.00096 26.2348 2.99959 26.0057C2.99823 25.7766 3.07559 25.5539 3.21874 25.375C3.22624 25.3662 4.17374 24.1525 5.10874 21.785C5.97124 19.6 6.99999 15.955 6.99999 11C6.99999 8.61305 7.9482 6.32387 9.63603 4.63604C11.3239 2.94821 13.613 2 16 2C18.3869 2 20.6761 2.94821 22.364 4.63604C24.0518 6.32387 25 8.61305 25 11C25 15.955 26.0287 19.6 26.8912 21.785C27.8262 24.1525 28.7737 25.3663 28.7825 25.3775C28.9254 25.5573 29.0021 25.7809 28.9995 26.0106C28.997 26.2403 28.9155 26.4621 28.7687 26.6388ZM11 12.5C11 12.7967 11.088 13.0867 11.2528 13.3334C11.4176 13.58 11.6519 13.7723 11.926 13.8858C12.2001 13.9994 12.5017 14.0291 12.7926 13.9712C13.0836 13.9133 13.3509 13.7704 13.5607 13.5607C13.7704 13.3509 13.9133 13.0836 13.9712 12.7926C14.029 12.5017 13.9993 12.2001 13.8858 11.926C13.7723 11.6519 13.58 11.4176 13.3333 11.2528C13.0867 11.088 12.7967 11 12.5 11C12.1022 11 11.7206 11.158 11.4393 11.4393C11.158 11.7206 11 12.1022 11 12.5ZM20.895 16.5525C20.7764 16.3153 20.5685 16.135 20.317 16.051C20.0655 15.9671 19.791 15.9865 19.5537 16.105L16 17.8825L12.4475 16.105C12.2101 15.9865 11.9354 15.9671 11.6837 16.0512C11.4321 16.1352 11.2241 16.3158 11.1056 16.5531C10.9871 16.7905 10.9677 17.0652 11.0518 17.3169C11.1358 17.5685 11.3164 17.7765 11.5537 17.895L15.5537 19.895C15.6925 19.9643 15.8455 20.0004 16.0006 20.0004C16.1557 20.0004 16.3087 19.9643 16.4475 19.895L20.4475 17.895C20.5651 17.8363 20.67 17.755 20.7561 17.6557C20.8422 17.5565 20.908 17.4412 20.9495 17.3165C20.9911 17.1918 21.0077 17.0602 20.9983 16.9291C20.989 16.798 20.9538 16.67 20.895 16.5525ZM21 12.5C21 12.2033 20.912 11.9133 20.7472 11.6666C20.5824 11.42 20.3481 11.2277 20.074 11.1142C19.7999 11.0006 19.4983 10.9709 19.2074 11.0288C18.9164 11.0867 18.6491 11.2296 18.4393 11.4393C18.2296 11.6491 18.0867 11.9164 18.0288 12.2074C17.9709 12.4983 18.0006 12.7999 18.1142 13.074C18.2277 13.3481 18.42 13.5824 18.6666 13.7472C18.9133 13.912 19.2033 14 19.5 14C19.8978 14 20.2793 13.842 20.5607 13.5607C20.842 13.2794 21 12.8978 21 12.5Z" fill="white"/>
<path d="M68.9363 27.1725C68.7822 27.2958 68.6052 27.3875 68.4156 27.4423C68.226 27.4972 68.0275 27.514 67.8313 27.492C67.6352 27.4699 67.4454 27.4093 67.2727 27.3138C67.1 27.2182 66.9479 27.0895 66.825 26.935C66.6488 26.715 62.5 21.405 62.5 11C62.5 9.27609 61.8152 7.62279 60.5962 6.40381C59.3772 5.18482 57.7239 4.5 56 4.5C54.2761 4.5 52.6228 5.18482 51.4038 6.40381C50.1848 7.62279 49.5 9.27609 49.5 11C49.5 21.405 45.3488 26.715 45.1725 26.935C44.9247 27.2463 44.5634 27.4464 44.168 27.4913C43.7727 27.5362 43.3757 27.4222 43.0644 27.1744C42.7531 26.9266 42.553 26.5652 42.5081 26.1699C42.4632 25.7745 42.5772 25.3775 42.825 25.0662C42.875 25 46.5 20.2575 46.5 11C46.5 8.48044 47.5009 6.06408 49.2825 4.28249C51.0641 2.50089 53.4805 1.5 56 1.5C58.5196 1.5 60.9359 2.50089 62.7175 4.28249C64.4991 6.06408 65.5 8.48044 65.5 11C65.5 20.2738 69.1375 25.02 69.175 25.0675C69.422 25.3785 69.5355 25.7747 69.4908 26.1694C69.446 26.564 69.2466 26.9247 68.9363 27.1725ZM53 15C53.3956 15 53.7823 14.8827 54.1111 14.6629C54.44 14.4432 54.6964 14.1308 54.8478 13.7654C54.9991 13.3999 55.0387 12.9978 54.9616 12.6098C54.8844 12.2219 54.6939 11.8655 54.4142 11.5858C54.1345 11.3061 53.7782 11.1156 53.3902 11.0384C53.0022 10.9613 52.6001 11.0009 52.2346 11.1522C51.8692 11.3036 51.5568 11.56 51.3371 11.8889C51.1173 12.2178 51 12.6044 51 13C51 13.5304 51.2107 14.0391 51.5858 14.4142C51.9609 14.7893 52.4696 15 53 15ZM61 13C61 12.6044 60.8827 12.2178 60.6629 11.8889C60.4432 11.56 60.1308 11.3036 59.7654 11.1522C59.3999 11.0009 58.9978 10.9613 58.6098 11.0384C58.2219 11.1156 57.8655 11.3061 57.5858 11.5858C57.3061 11.8655 57.1156 12.2219 57.0384 12.6098C56.9613 12.9978 57.0009 13.3999 57.1522 13.7654C57.3036 14.1308 57.56 14.4432 57.8889 14.6629C58.2178 14.8827 58.6044 15 59 15C59.5304 15 60.0391 14.7893 60.4142 14.4142C60.7893 14.0391 61 13.5304 61 13ZM51.9075 19.375L55.4075 20.875C55.5942 20.955 55.7951 20.9962 55.9981 20.9962C56.2012 20.9962 56.4021 20.955 56.5888 20.875L60.0888 19.375C60.4269 19.2015 60.6865 18.906 60.8152 18.5484C60.9439 18.1908 60.932 17.7977 60.782 17.4485C60.632 17.0993 60.3551 16.8201 60.0071 16.6672C59.6592 16.5143 59.2662 16.4993 58.9075 16.625L55.9988 17.875L53.09 16.625C52.7311 16.498 52.3374 16.5123 51.9886 16.6648C51.6398 16.8174 51.3621 17.0968 51.2117 17.4466C51.0613 17.7963 51.0495 18.1901 51.1787 18.5482C51.3079 18.9063 51.5685 19.2019 51.9075 19.375ZM56 23C54.2086 23.0027 52.4837 23.6786 51.1675 24.8937C51.0223 25.027 50.9048 25.1875 50.8216 25.3661C50.7385 25.5447 50.6913 25.738 50.6828 25.9349C50.6743 26.1317 50.7047 26.3283 50.7722 26.5134C50.8397 26.6985 50.943 26.8686 51.0763 27.0138C51.2095 27.1589 51.37 27.2765 51.5486 27.3596C51.7272 27.4428 51.9205 27.49 52.1174 27.4984C52.5149 27.5156 52.903 27.374 53.1963 27.105C53.9569 26.3948 54.9587 25.9998 55.9994 25.9998C57.04 25.9998 58.0419 26.3948 58.8025 27.105C58.9477 27.2382 59.1177 27.3415 59.3028 27.409C59.4879 27.4765 59.6845 27.5069 59.8814 27.4984C60.0783 27.49 60.2715 27.4428 60.4502 27.3596C60.6288 27.2765 60.7893 27.1589 60.9225 27.0138C61.0557 26.8686 61.159 26.6985 61.2265 26.5134C61.294 26.3283 61.3244 26.1317 61.3159 25.9349C61.3075 25.738 61.2603 25.5447 61.1771 25.3661C61.094 25.1875 60.9764 25.027 60.8313 24.8937C59.5155 23.6787 57.791 23.0028 56 23Z" fill="white"/>
</g>
<defs>
<clipPath id="clip0_27_194">
<rect width="72" height="32" rx="5" fill="white"/>
</clipPath>
</defs>
</svg>
