<svg width="72" height="32" viewBox="0 0 72 32" fill="none" xmlns="http://www.w3.org/2000/svg">
<g clip-path="url(#clip0_27_7321)">
<path d="M26 4H6C5.46957 4 4.96086 4.21071 4.58579 4.58579C4.21071 4.96086 4 5.46957 4 6V26C4 26.5304 4.21071 27.0391 4.58579 27.4142C4.96086 27.7893 5.46957 28 6 28H26C26.5304 28 27.0391 27.7893 27.4142 27.4142C27.7893 27.0391 28 26.5304 28 26V6C28 5.46957 27.7893 4.96086 27.4142 4.58579C27.0391 4.21071 26.5304 4 26 4ZM9 23H8C7.73478 23 7.48043 22.8946 7.29289 22.7071C7.10536 22.5196 7 22.2652 7 22C7 21.7348 7.10536 21.4804 7.29289 21.2929C7.48043 21.1054 7.73478 21 8 21H9C9.26522 21 9.51957 21.1054 9.70711 21.2929C9.89464 21.4804 10 21.7348 10 22C10 22.2652 9.89464 22.5196 9.70711 22.7071C9.51957 22.8946 9.26522 23 9 23ZM9 17H8C7.73478 17 7.48043 16.8946 7.29289 16.7071C7.10536 16.5196 7 16.2652 7 16C7 15.7348 7.10536 15.4804 7.29289 15.2929C7.48043 15.1054 7.73478 15 8 15H9C9.26522 15 9.51957 15.1054 9.70711 15.2929C9.89464 15.4804 10 15.7348 10 16C10 16.2652 9.89464 16.5196 9.70711 16.7071C9.51957 16.8946 9.26522 17 9 17ZM9 11H8C7.73478 11 7.48043 10.8946 7.29289 10.7071C7.10536 10.5196 7 10.2652 7 10C7 9.73478 7.10536 9.48043 7.29289 9.29289C7.48043 9.10536 7.73478 9 8 9H9C9.26522 9 9.51957 9.10536 9.70711 9.29289C9.89464 9.48043 10 9.73478 10 10C10 10.2652 9.89464 10.5196 9.70711 10.7071C9.51957 10.8946 9.26522 11 9 11ZM24 23H13C12.7348 23 12.4804 22.8946 12.2929 22.7071C12.1054 22.5196 12 22.2652 12 22C12 21.7348 12.1054 21.4804 12.2929 21.2929C12.4804 21.1054 12.7348 21 13 21H24C24.2652 21 24.5196 21.1054 24.7071 21.2929C24.8946 21.4804 25 21.7348 25 22C25 22.2652 24.8946 22.5196 24.7071 22.7071C24.5196 22.8946 24.2652 23 24 23ZM24 17H13C12.7348 17 12.4804 16.8946 12.2929 16.7071C12.1054 16.5196 12 16.2652 12 16C12 15.7348 12.1054 15.4804 12.2929 15.2929C12.4804 15.1054 12.7348 15 13 15H24C24.2652 15 24.5196 15.1054 24.7071 15.2929C24.8946 15.4804 25 15.7348 25 16C25 16.2652 24.8946 16.5196 24.7071 16.7071C24.5196 16.8946 24.2652 17 24 17ZM24 11H13C12.7348 11 12.4804 10.8946 12.2929 10.7071C12.1054 10.5196 12 10.2652 12 10C12 9.73478 12.1054 9.48043 12.2929 9.29289C12.4804 9.10536 12.7348 9 13 9H24C24.2652 9 24.5196 9.10536 24.7071 9.29289C24.8946 9.48043 25 9.73478 25 10C25 10.2652 24.8946 10.5196 24.7071 10.7071C24.5196 10.8946 24.2652 11 24 11Z" fill="white"/>
<path d="M50.5 8C50.5 7.60218 50.658 7.22064 50.9393 6.93934C51.2206 6.65804 51.6022 6.5 52 6.5H67C67.3978 6.5 67.7794 6.65804 68.0607 6.93934C68.342 7.22064 68.5 7.60218 68.5 8C68.5 8.39782 68.342 8.77936 68.0607 9.06066C67.7794 9.34196 67.3978 9.5 67 9.5H52C51.6022 9.5 51.2206 9.34196 50.9393 9.06066C50.658 8.77936 50.5 8.39782 50.5 8ZM67 14.5H52C51.6022 14.5 51.2206 14.658 50.9393 14.9393C50.658 15.2206 50.5 15.6022 50.5 16C50.5 16.3978 50.658 16.7794 50.9393 17.0607C51.2206 17.342 51.6022 17.5 52 17.5H67C67.3978 17.5 67.7794 17.342 68.0607 17.0607C68.342 16.7794 68.5 16.3978 68.5 16C68.5 15.6022 68.342 15.2206 68.0607 14.9393C67.7794 14.658 67.3978 14.5 67 14.5ZM67 22.5H52C51.6022 22.5 51.2206 22.658 50.9393 22.9393C50.658 23.2206 50.5 23.6022 50.5 24C50.5 24.3978 50.658 24.7794 50.9393 25.0607C51.2206 25.342 51.6022 25.5 52 25.5H67C67.3978 25.5 67.7794 25.342 68.0607 25.0607C68.342 24.7794 68.5 24.3978 68.5 24C68.5 23.6022 68.342 23.2206 68.0607 22.9393C67.7794 22.658 67.3978 22.5 67 22.5ZM47 6.5H45C44.6022 6.5 44.2206 6.65804 43.9393 6.93934C43.658 7.22064 43.5 7.60218 43.5 8C43.5 8.39782 43.658 8.77936 43.9393 9.06066C44.2206 9.34196 44.6022 9.5 45 9.5H47C47.3978 9.5 47.7794 9.34196 48.0607 9.06066C48.342 8.77936 48.5 8.39782 48.5 8C48.5 7.60218 48.342 7.22064 48.0607 6.93934C47.7794 6.65804 47.3978 6.5 47 6.5ZM47 14.5H45C44.6022 14.5 44.2206 14.658 43.9393 14.9393C43.658 15.2206 43.5 15.6022 43.5 16C43.5 16.3978 43.658 16.7794 43.9393 17.0607C44.2206 17.342 44.6022 17.5 45 17.5H47C47.3978 17.5 47.7794 17.342 48.0607 17.0607C48.342 16.7794 48.5 16.3978 48.5 16C48.5 15.6022 48.342 15.2206 48.0607 14.9393C47.7794 14.658 47.3978 14.5 47 14.5ZM47 22.5H45C44.6022 22.5 44.2206 22.658 43.9393 22.9393C43.658 23.2206 43.5 23.6022 43.5 24C43.5 24.3978 43.658 24.7794 43.9393 25.0607C44.2206 25.342 44.6022 25.5 45 25.5H47C47.3978 25.5 47.7794 25.342 48.0607 25.0607C48.342 24.7794 48.5 24.3978 48.5 24C48.5 23.6022 48.342 23.2206 48.0607 22.9393C47.7794 22.658 47.3978 22.5 47 22.5Z" fill="white"/>
</g>
<defs>
<clipPath id="clip0_27_7321">
<rect width="72" height="32" rx="5" fill="white"/>
</clipPath>
</defs>
</svg>
