<svg width="72" height="32" viewBox="0 0 72 32" fill="none" xmlns="http://www.w3.org/2000/svg">
<g clip-path="url(#clip0_27_7331)">
<path d="M26 4H6C5.46957 4 4.96086 4.21071 4.58579 4.58579C4.21071 4.96086 4 5.46957 4 6V26C4 26.5304 4.21071 27.0391 4.58579 27.4142C4.96086 27.7893 5.46957 28 6 28H26C26.5304 28 27.0391 27.7893 27.4142 27.4142C27.7893 27.0391 28 26.5304 28 26V6C28 5.46957 27.7893 4.96086 27.4142 4.58579C27.0391 4.21071 26.5304 4 26 4ZM8 9H24C24.2652 9 24.5196 9.10536 24.7071 9.29289C24.8946 9.48043 25 9.73478 25 10C25 10.2652 24.8946 10.5196 24.7071 10.7071C24.5196 10.8946 24.2652 11 24 11H8C7.73478 11 7.48043 10.8946 7.29289 10.7071C7.10536 10.5196 7 10.2652 7 10C7 9.73478 7.10536 9.48043 7.29289 9.29289C7.48043 9.10536 7.73478 9 8 9ZM15 23H8C7.73478 23 7.48043 22.8946 7.29289 22.7071C7.10536 22.5196 7 22.2652 7 22C7 21.7348 7.10536 21.4804 7.29289 21.2929C7.48043 21.1054 7.73478 21 8 21H15C15.2652 21 15.5196 21.1054 15.7071 21.2929C15.8946 21.4804 16 21.7348 16 22C16 22.2652 15.8946 22.5196 15.7071 22.7071C15.5196 22.8946 15.2652 23 15 23ZM17 17H8C7.73478 17 7.48043 16.8946 7.29289 16.7071C7.10536 16.5196 7 16.2652 7 16C7 15.7348 7.10536 15.4804 7.29289 15.2929C7.48043 15.1054 7.73478 15 8 15H17C17.2652 15 17.5196 15.1054 17.7071 15.2929C17.8946 15.4804 18 15.7348 18 16C18 16.2652 17.8946 16.5196 17.7071 16.7071C17.5196 16.8946 17.2652 17 17 17ZM25 21H23V23C23 23.2652 22.8946 23.5196 22.7071 23.7071C22.5196 23.8946 22.2652 24 22 24C21.7348 24 21.4804 23.8946 21.2929 23.7071C21.1054 23.5196 21 23.2652 21 23V21H19C18.7348 21 18.4804 20.8946 18.2929 20.7071C18.1054 20.5196 18 20.2652 18 20C18 19.7348 18.1054 19.4804 18.2929 19.2929C18.4804 19.1054 18.7348 19 19 19H21V17C21 16.7348 21.1054 16.4804 21.2929 16.2929C21.4804 16.1054 21.7348 16 22 16C22.2652 16 22.5196 16.1054 22.7071 16.2929C22.8946 16.4804 23 16.7348 23 17V19H25C25.2652 19 25.5196 19.1054 25.7071 19.2929C25.8946 19.4804 26 19.7348 26 20C26 20.2652 25.8946 20.5196 25.7071 20.7071C25.5196 20.8946 25.2652 21 25 21Z" fill="white"/>
<path d="M43.5 8C43.5 7.60218 43.658 7.22064 43.9393 6.93934C44.2206 6.65804 44.6022 6.5 45 6.5H67C67.3978 6.5 67.7794 6.65804 68.0607 6.93934C68.342 7.22064 68.5 7.60218 68.5 8C68.5 8.39782 68.342 8.77936 68.0607 9.06066C67.7794 9.34196 67.3978 9.5 67 9.5H45C44.6022 9.5 44.2206 9.34196 43.9393 9.06066C43.658 8.77936 43.5 8.39782 43.5 8ZM45 17.5H67C67.3978 17.5 67.7794 17.342 68.0607 17.0607C68.342 16.7794 68.5 16.3978 68.5 16C68.5 15.6022 68.342 15.2206 68.0607 14.9393C67.7794 14.658 67.3978 14.5 67 14.5H45C44.6022 14.5 44.2206 14.658 43.9393 14.9393C43.658 15.2206 43.5 15.6022 43.5 16C43.5 16.3978 43.658 16.7794 43.9393 17.0607C44.2206 17.342 44.6022 17.5 45 17.5ZM58 22.5H45C44.6022 22.5 44.2206 22.658 43.9393 22.9393C43.658 23.2206 43.5 23.6022 43.5 24C43.5 24.3978 43.658 24.7794 43.9393 25.0607C44.2206 25.342 44.6022 25.5 45 25.5H58C58.3978 25.5 58.7794 25.342 59.0607 25.0607C59.342 24.7794 59.5 24.3978 59.5 24C59.5 23.6022 59.342 23.2206 59.0607 22.9393C58.7794 22.658 58.3978 22.5 58 22.5ZM69 22.5H67.5V21C67.5 20.6022 67.342 20.2206 67.0607 19.9393C66.7794 19.658 66.3978 19.5 66 19.5C65.6022 19.5 65.2206 19.658 64.9393 19.9393C64.658 20.2206 64.5 20.6022 64.5 21V22.5H63C62.6022 22.5 62.2206 22.658 61.9393 22.9393C61.658 23.2206 61.5 23.6022 61.5 24C61.5 24.3978 61.658 24.7794 61.9393 25.0607C62.2206 25.342 62.6022 25.5 63 25.5H64.5V27C64.5 27.3978 64.658 27.7794 64.9393 28.0607C65.2206 28.342 65.6022 28.5 66 28.5C66.3978 28.5 66.7794 28.342 67.0607 28.0607C67.342 27.7794 67.5 27.3978 67.5 27V25.5H69C69.3978 25.5 69.7794 25.342 70.0607 25.0607C70.342 24.7794 70.5 24.3978 70.5 24C70.5 23.6022 70.342 23.2206 70.0607 22.9393C69.7794 22.658 69.3978 22.5 69 22.5Z" fill="white"/>
</g>
<defs>
<clipPath id="clip0_27_7331">
<rect width="72" height="32" rx="5" fill="white"/>
</clipPath>
</defs>
</svg>
