<svg width="72" height="32" viewBox="0 0 72 32" fill="none" xmlns="http://www.w3.org/2000/svg">
<g clip-path="url(#clip0_27_7316)">
<path d="M26 4H6C5.46957 4 4.96086 4.21071 4.58579 4.58579C4.21071 4.96086 4 5.46957 4 6V26C4 26.5304 4.21071 27.0391 4.58579 27.4142C4.96086 27.7893 5.46957 28 6 28H26C26.5304 28 27.0391 27.7893 27.4142 27.4142C27.7893 27.0391 28 26.5304 28 26V6C28 5.46957 27.7893 4.96086 27.4142 4.58579C27.0391 4.21071 26.5304 4 26 4ZM14.7075 18.7075L10.7075 22.7075C10.6146 22.8005 10.5043 22.8742 10.3829 22.9246C10.2615 22.9749 10.1314 23.0008 10 23.0008C9.86858 23.0008 9.73846 22.9749 9.61706 22.9246C9.49566 22.8742 9.38537 22.8005 9.2925 22.7075L7.2925 20.7075C7.10486 20.5199 6.99944 20.2654 6.99944 20C6.99944 19.7346 7.10486 19.4801 7.2925 19.2925C7.48014 19.1049 7.73464 18.9994 8 18.9994C8.26536 18.9994 8.51986 19.1049 8.7075 19.2925L10 20.5863L13.2925 17.2925C13.4801 17.1049 13.7346 16.9994 14 16.9994C14.2654 16.9994 14.5199 17.1049 14.7075 17.2925C14.8951 17.4801 15.0006 17.7346 15.0006 18C15.0006 18.2654 14.8951 18.5199 14.7075 18.7075ZM14.7075 10.7075L10.7075 14.7075C10.6146 14.8005 10.5043 14.8742 10.3829 14.9246C10.2615 14.9749 10.1314 15.0008 10 15.0008C9.86858 15.0008 9.73846 14.9749 9.61706 14.9246C9.49566 14.8742 9.38537 14.8005 9.2925 14.7075L7.2925 12.7075C7.19959 12.6146 7.12589 12.5043 7.07561 12.3829C7.02532 12.2615 6.99944 12.1314 6.99944 12C6.99944 11.7346 7.10486 11.4801 7.2925 11.2925C7.48014 11.1049 7.73464 10.9994 8 10.9994C8.26536 10.9994 8.51986 11.1049 8.7075 11.2925L10 12.5863L13.2925 9.2925C13.4801 9.10486 13.7346 8.99944 14 8.99944C14.2654 8.99944 14.5199 9.10486 14.7075 9.2925C14.8951 9.48014 15.0006 9.73464 15.0006 10C15.0006 10.2654 14.8951 10.5199 14.7075 10.7075ZM24 21H18C17.7348 21 17.4804 20.8946 17.2929 20.7071C17.1054 20.5196 17 20.2652 17 20C17 19.7348 17.1054 19.4804 17.2929 19.2929C17.4804 19.1054 17.7348 19 18 19H24C24.2652 19 24.5196 19.1054 24.7071 19.2929C24.8946 19.4804 25 19.7348 25 20C25 20.2652 24.8946 20.5196 24.7071 20.7071C24.5196 20.8946 24.2652 21 24 21ZM24 13H18C17.7348 13 17.4804 12.8946 17.2929 12.7071C17.1054 12.5196 17 12.2652 17 12C17 11.7348 17.1054 11.4804 17.2929 11.2929C17.4804 11.1054 17.7348 11 18 11H24C24.2652 11 24.5196 11.1054 24.7071 11.2929C24.8946 11.4804 25 11.7348 25 12C25 12.2652 24.8946 12.5196 24.7071 12.7071C24.5196 12.8946 24.2652 13 24 13Z" fill="white"/>
<path d="M68.4999 16C68.4999 16.3978 68.3419 16.7793 68.0606 17.0606C67.7793 17.3419 67.3978 17.5 66.9999 17.5H55.9999C55.6021 17.5 55.2206 17.3419 54.9393 17.0606C54.658 16.7793 54.4999 16.3978 54.4999 16C54.4999 15.6022 54.658 15.2206 54.9393 14.9393C55.2206 14.658 55.6021 14.5 55.9999 14.5H66.9999C67.3978 14.5 67.7793 14.658 68.0606 14.9393C68.3419 15.2206 68.4999 15.6022 68.4999 16ZM55.9999 9.49997H66.9999C67.3978 9.49997 67.7793 9.34194 68.0606 9.06064C68.3419 8.77933 68.4999 8.3978 68.4999 7.99997C68.4999 7.60215 68.3419 7.22062 68.0606 6.93931C67.7793 6.65801 67.3978 6.49997 66.9999 6.49997H55.9999C55.6021 6.49997 55.2206 6.65801 54.9393 6.93931C54.658 7.22062 54.4999 7.60215 54.4999 7.99997C54.4999 8.3978 54.658 8.77933 54.9393 9.06064C55.2206 9.34194 55.6021 9.49997 55.9999 9.49997ZM66.9999 22.5H55.9999C55.6021 22.5 55.2206 22.658 54.9393 22.9393C54.658 23.2206 54.4999 23.6021 54.4999 24C54.4999 24.3978 54.658 24.7793 54.9393 25.0606C55.2206 25.3419 55.6021 25.5 55.9999 25.5H66.9999C67.3978 25.5 67.7793 25.3419 68.0606 25.0606C68.3419 24.7793 68.4999 24.3978 68.4999 24C68.4999 23.6021 68.3419 23.2206 68.0606 22.9393C67.7793 22.658 67.3978 22.5 66.9999 22.5ZM49.9387 4.93872L46.9999 7.87497L46.0612 6.93497C45.7794 6.65318 45.3972 6.49487 44.9987 6.49487C44.6002 6.49487 44.218 6.65318 43.9362 6.93497C43.6544 7.21677 43.4961 7.59896 43.4961 7.99747C43.4961 8.39599 43.6544 8.77818 43.9362 9.05998L45.9362 11.06C46.0756 11.1998 46.2411 11.3108 46.4235 11.3865C46.6058 11.4622 46.8013 11.5012 46.9987 11.5012C47.1961 11.5012 47.3916 11.4622 47.5739 11.3865C47.7563 11.3108 47.9218 11.1998 48.0612 11.06L52.0612 7.05997C52.343 6.77818 52.5013 6.39599 52.5013 5.99747C52.5013 5.59896 52.343 5.21677 52.0612 4.93497C51.7794 4.65318 51.3972 4.49487 50.9987 4.49487C50.6002 4.49487 50.218 4.65318 49.9362 4.93497L49.9387 4.93872ZM49.9387 12.9387L46.9999 15.875L46.0612 14.935C45.7794 14.6532 45.3972 14.4949 44.9987 14.4949C44.6002 14.4949 44.218 14.6532 43.9362 14.935C43.6544 15.2168 43.4961 15.599 43.4961 15.9975C43.4961 16.396 43.6544 16.7782 43.9362 17.06L45.9362 19.06C46.0756 19.1998 46.2411 19.3108 46.4235 19.3865C46.6058 19.4622 46.8013 19.5012 46.9987 19.5012C47.1961 19.5012 47.3916 19.4622 47.5739 19.3865C47.7563 19.3108 47.9218 19.1998 48.0612 19.06L52.0612 15.06C52.343 14.7782 52.5013 14.396 52.5013 13.9975C52.5013 13.599 52.343 13.2168 52.0612 12.935C51.7794 12.6532 51.3972 12.4949 50.9987 12.4949C50.6002 12.4949 50.218 12.6532 49.9362 12.935L49.9387 12.9387ZM49.9387 20.9387L46.9999 23.875L46.0612 22.935C45.9217 22.7954 45.756 22.6848 45.5737 22.6093C45.3914 22.5337 45.196 22.4949 44.9987 22.4949C44.8014 22.4949 44.606 22.5337 44.4237 22.6093C44.2414 22.6848 44.0757 22.7954 43.9362 22.935C43.7967 23.0745 43.686 23.2402 43.6105 23.4225C43.535 23.6048 43.4961 23.8001 43.4961 23.9975C43.4961 24.1948 43.535 24.3902 43.6105 24.5725C43.686 24.7548 43.7967 24.9204 43.9362 25.06L45.9362 27.06C46.0756 27.1998 46.2411 27.3108 46.4235 27.3865C46.6058 27.4622 46.8013 27.5012 46.9987 27.5012C47.1961 27.5012 47.3916 27.4622 47.5739 27.3865C47.7563 27.3108 47.9218 27.1998 48.0612 27.06L52.0612 23.06C52.343 22.7782 52.5013 22.396 52.5013 21.9975C52.5013 21.599 52.343 21.2168 52.0612 20.935C51.7794 20.6532 51.3972 20.4949 50.9987 20.4949C50.6002 20.4949 50.218 20.6532 49.9362 20.935L49.9387 20.9387Z" fill="white"/>
</g>
<defs>
<clipPath id="clip0_27_7316">
<rect width="72" height="32" rx="5" fill="white"/>
</clipPath>
</defs>
</svg>
