<svg width="72" height="32" viewBox="0 0 72 32" fill="none" xmlns="http://www.w3.org/2000/svg">
<g clip-path="url(#clip0_27_2871)">
<path d="M26 4H6C5.46957 4 4.96086 4.21071 4.58579 4.58579C4.21071 4.96086 4 5.46957 4 6V26C4 26.5304 4.21071 27.0391 4.58579 27.4142C4.96086 27.7893 5.46957 28 6 28H26C26.5304 28 27.0391 27.7893 27.4142 27.4142C27.7893 27.0391 28 26.5304 28 26V6C28 5.46957 27.7893 4.96086 27.4142 4.58579C27.0391 4.21071 26.5304 4 26 4ZM13 23H8C7.73478 23 7.48043 22.8946 7.29289 22.7071C7.10536 22.5196 7 22.2652 7 22C7 21.7348 7.10536 21.4804 7.29289 21.2929C7.48043 21.1054 7.73478 21 8 21H13C13.2652 21 13.5196 21.1054 13.7071 21.2929C13.8946 21.4804 14 21.7348 14 22C14 22.2652 13.8946 22.5196 13.7071 22.7071C13.5196 22.8946 13.2652 23 13 23ZM7 16C7 15.7348 7.10536 15.4804 7.29289 15.2929C7.48043 15.1054 7.73478 15 8 15H12C12.2652 15 12.5196 15.1054 12.7071 15.2929C12.8946 15.4804 13 15.7348 13 16C13 16.2652 12.8946 16.5196 12.7071 16.7071C12.5196 16.8946 12.2652 17 12 17H8C7.73478 17 7.48043 16.8946 7.29289 16.7071C7.10536 16.5196 7 16.2652 7 16ZM20.2237 23.1975C20.1543 23.2323 20.0777 23.2504 20 23.2504C19.9223 23.2504 19.8457 23.2323 19.7763 23.1975C19.5813 23.1 15 20.7712 15 17.5C15.0002 16.9157 15.1866 16.3466 15.5321 15.8753C15.8776 15.404 16.3642 15.055 16.9214 14.8789C17.4786 14.7029 18.0774 14.7089 18.6309 14.8961C19.1845 15.0832 19.664 15.4419 20 15.92C20.336 15.4419 20.8155 15.0832 21.3691 14.8961C21.9226 14.7089 22.5214 14.7029 23.0786 14.8789C23.6358 15.055 24.1224 15.404 24.4679 15.8753C24.8134 16.3466 24.9998 16.9157 25 17.5C25 20.7712 20.4187 23.1 20.2237 23.1975ZM24 11H8C7.73478 11 7.48043 10.8946 7.29289 10.7071C7.10536 10.5196 7 10.2652 7 10C7 9.73478 7.10536 9.48043 7.29289 9.29289C7.48043 9.10536 7.73478 9 8 9H24C24.2652 9 24.5196 9.10536 24.7071 9.29289C24.8946 9.48043 25 9.73478 25 10C25 10.2652 24.8946 10.5196 24.7071 10.7071C24.5196 10.8946 24.2652 11 24 11Z" fill="white"/>
<path d="M55.5 24C55.5 24.3978 55.342 24.7794 55.0607 25.0607C54.7794 25.342 54.3978 25.5 54 25.5H45C44.6022 25.5 44.2206 25.342 43.9393 25.0607C43.658 24.7794 43.5 24.3978 43.5 24C43.5 23.6022 43.658 23.2206 43.9393 22.9393C44.2206 22.658 44.6022 22.5 45 22.5H54C54.3978 22.5 54.7794 22.658 55.0607 22.9393C55.342 23.2206 55.5 23.6022 55.5 24ZM45 9.5H67C67.3978 9.5 67.7794 9.34196 68.0607 9.06066C68.342 8.77936 68.5 8.39782 68.5 8C68.5 7.60218 68.342 7.22064 68.0607 6.93934C67.7794 6.65804 67.3978 6.5 67 6.5H45C44.6022 6.5 44.2206 6.65804 43.9393 6.93934C43.658 7.22064 43.5 7.60218 43.5 8C43.5 8.39782 43.658 8.77936 43.9393 9.06066C44.2206 9.34196 44.6022 9.5 45 9.5ZM45 17.5H52C52.3978 17.5 52.7794 17.342 53.0607 17.0607C53.342 16.7794 53.5 16.3978 53.5 16C53.5 15.6022 53.342 15.2206 53.0607 14.9393C52.7794 14.658 52.3978 14.5 52 14.5H45C44.6022 14.5 44.2206 14.658 43.9393 14.9393C43.658 15.2206 43.5 15.6022 43.5 16C43.5 16.3978 43.658 16.7794 43.9393 17.0607C44.2206 17.342 44.6022 17.5 45 17.5ZM71.5 18C71.5 20.125 70.3088 22.195 67.96 24.1525C66.9431 24.9948 65.8408 25.7283 64.6712 26.3412C64.4629 26.4455 64.233 26.4998 64 26.4998C63.767 26.4998 63.5371 26.4455 63.3288 26.3412C62.1592 25.7283 61.0569 24.9948 60.04 24.1525C57.6913 22.195 56.5 20.125 56.5 18C56.5006 17.1316 56.7524 16.2818 57.2251 15.5533C57.6979 14.8248 58.3713 14.2486 59.1642 13.8944C59.9571 13.5401 60.8356 13.4228 61.6936 13.5566C62.5517 13.6905 63.3527 14.0698 64 14.6488C64.6473 14.0698 65.4483 13.6905 66.3064 13.5566C67.1644 13.4228 68.0429 13.5401 68.8358 13.8944C69.6287 14.2486 70.3021 14.8248 70.7749 15.5533C71.2476 16.2818 71.4995 17.1316 71.5 18ZM68.5 18C68.5 17.6022 68.342 17.2206 68.0607 16.9393C67.7794 16.658 67.3978 16.5 67 16.5C66.6022 16.5 66.2206 16.658 65.9393 16.9393C65.658 17.2206 65.5 17.6022 65.5 18C65.5 18.3978 65.342 18.7794 65.0607 19.0607C64.7794 19.342 64.3978 19.5 64 19.5C63.6022 19.5 63.2206 19.342 62.9393 19.0607C62.658 18.7794 62.5 18.3978 62.5 18C62.5 17.6022 62.342 17.2206 62.0607 16.9393C61.7794 16.658 61.3978 16.5 61 16.5C60.6022 16.5 60.2206 16.658 59.9393 16.9393C59.658 17.2206 59.5 17.6022 59.5 18C59.5 20.1537 62.3563 22.3037 64 23.2862C65.6425 22.305 68.5 20.1537 68.5 18Z" fill="white"/>
</g>
<defs>
<clipPath id="clip0_27_2871">
<rect width="72" height="32" rx="5" fill="white"/>
</clipPath>
</defs>
</svg>
