<svg width="72" height="32" viewBox="0 0 72 32" fill="none" xmlns="http://www.w3.org/2000/svg">
<g clip-path="url(#clip0_27_7326)">
<path d="M26 4H6C5.46957 4 4.96086 4.21071 4.58579 4.58579C4.21071 4.96086 4 5.46957 4 6V26C4 26.5304 4.21071 27.0391 4.58579 27.4142C4.96086 27.7893 5.46957 28 6 28H26C26.5304 28 27.0391 27.7893 27.4142 27.4142C27.7893 27.0391 28 26.5304 28 26V6C28 5.46957 27.7893 4.96086 27.4142 4.58579C27.0391 4.21071 26.5304 4 26 4ZM7.105 9.4475C7.04615 9.32998 7.01104 9.20202 7.00168 9.07092C6.99232 8.93983 7.0089 8.80817 7.05046 8.68349C7.09202 8.5588 7.15775 8.44353 7.2439 8.34427C7.33004 8.24501 7.43491 8.1637 7.5525 8.105L9.5525 7.105C9.70501 7.02868 9.87452 6.99264 10.0449 7.00029C10.2153 7.00795 10.3808 7.05905 10.5259 7.14874C10.671 7.23843 10.7907 7.36372 10.8736 7.51272C10.9566 7.66171 11.0001 7.82946 11 8V14C11 14.2652 10.8946 14.5196 10.7071 14.7071C10.5196 14.8946 10.2652 15 10 15C9.73478 15 9.48043 14.8946 9.29289 14.7071C9.10536 14.5196 9 14.2652 9 14V9.6175L8.4475 9.895C8.32998 9.95385 8.20202 9.98896 8.07092 9.99832C7.93983 10.0077 7.80817 9.9911 7.68349 9.94954C7.5588 9.90798 7.44353 9.84225 7.34427 9.7561C7.24501 9.66996 7.1637 9.56509 7.105 9.4475ZM11.5 22.5C11.7652 22.5 12.0196 22.6054 12.2071 22.7929C12.3946 22.9804 12.5 23.2348 12.5 23.5C12.5 23.7652 12.3946 24.0196 12.2071 24.2071C12.0196 24.3946 11.7652 24.5 11.5 24.5H8.5C8.31429 24.5 8.13225 24.4483 7.97427 24.3507C7.81629 24.253 7.68863 24.1133 7.60557 23.9472C7.52252 23.7811 7.48736 23.5952 7.50404 23.4102C7.52072 23.2252 7.58857 23.0486 7.7 22.9L10.4087 19.2887C10.4689 19.2045 10.5008 19.1035 10.5 19C10.4998 18.8822 10.458 18.7682 10.3819 18.6782C10.3059 18.5882 10.2005 18.5279 10.0844 18.508C9.96821 18.4881 9.84878 18.5099 9.74712 18.5695C9.64547 18.6291 9.56813 18.7227 9.52875 18.8337C9.44023 19.0839 9.25598 19.2886 9.01652 19.4029C8.77706 19.5172 8.50201 19.5316 8.25187 19.4431C8.00174 19.3546 7.79702 19.1704 7.68274 18.9309C7.56846 18.6914 7.55398 18.4164 7.6425 18.1663C7.76385 17.8294 7.95614 17.5226 8.20633 17.2665C8.45653 17.0105 8.75881 16.8111 9.09271 16.682C9.42662 16.5528 9.78437 16.4969 10.1418 16.518C10.4991 16.5391 10.8478 16.6367 11.1642 16.8042C11.4806 16.9717 11.7574 17.2053 11.9757 17.489C12.1941 17.7727 12.3489 18.1 12.4298 18.4487C12.5107 18.7975 12.5158 19.1596 12.4446 19.5104C12.3735 19.8613 12.2278 20.1928 12.0175 20.4825L10.5 22.5H11.5ZM24 23H15C14.7348 23 14.4804 22.8946 14.2929 22.7071C14.1054 22.5196 14 22.2652 14 22C14 21.7348 14.1054 21.4804 14.2929 21.2929C14.4804 21.1054 14.7348 21 15 21H24C24.2652 21 24.5196 21.1054 24.7071 21.2929C24.8946 21.4804 25 21.7348 25 22C25 22.2652 24.8946 22.5196 24.7071 22.7071C24.5196 22.8946 24.2652 23 24 23ZM24 17H15C14.7348 17 14.4804 16.8946 14.2929 16.7071C14.1054 16.5196 14 16.2652 14 16C14 15.7348 14.1054 15.4804 14.2929 15.2929C14.4804 15.1054 14.7348 15 15 15H24C24.2652 15 24.5196 15.1054 24.7071 15.2929C24.8946 15.4804 25 15.7348 25 16C25 16.2652 24.8946 16.5196 24.7071 16.7071C24.5196 16.8946 24.2652 17 24 17ZM24 11H15C14.7348 11 14.4804 10.8946 14.2929 10.7071C14.1054 10.5196 14 10.2652 14 10C14 9.73478 14.1054 9.48043 14.2929 9.29289C14.4804 9.10536 14.7348 9 15 9H24C24.2652 9 24.5196 9.10536 24.7071 9.29289C24.8946 9.48043 25 9.73478 25 10C25 10.2652 24.8946 10.5196 24.7071 10.7071C24.5196 10.8946 24.2652 11 24 11Z" fill="white"/>
<path d="M68.4994 16C68.4994 16.3978 68.3413 16.7793 68.06 17.0607C67.7787 17.342 67.3972 17.5 66.9994 17.5H54.4994C54.1016 17.5 53.72 17.342 53.4387 17.0607C53.1574 16.7793 52.9994 16.3978 52.9994 16C52.9994 15.6022 53.1574 15.2206 53.4387 14.9393C53.72 14.658 54.1016 14.5 54.4994 14.5H66.9994C67.3972 14.5 67.7787 14.658 68.06 14.9393C68.3413 15.2206 68.4994 15.6022 68.4994 16ZM54.4994 9.49999H66.9994C67.3972 9.49999 67.7787 9.34196 68.06 9.06065C68.3413 8.77935 68.4994 8.39782 68.4994 7.99999C68.4994 7.60217 68.3413 7.22064 68.06 6.93933C67.7787 6.65803 67.3972 6.49999 66.9994 6.49999H54.4994C54.1016 6.49999 53.72 6.65803 53.4387 6.93933C53.1574 7.22064 52.9994 7.60217 52.9994 7.99999C52.9994 8.39782 53.1574 8.77935 53.4387 9.06065C53.72 9.34196 54.1016 9.49999 54.4994 9.49999ZM66.9994 22.5H54.4994C54.1016 22.5 53.72 22.658 53.4387 22.9393C53.1574 23.2206 52.9994 23.6022 52.9994 24C52.9994 24.3978 53.1574 24.7793 53.4387 25.0607C53.72 25.342 54.1016 25.5 54.4994 25.5H66.9994C67.3972 25.5 67.7787 25.342 68.06 25.0607C68.3413 24.7793 68.4994 24.3978 68.4994 24C68.4994 23.6022 68.3413 23.2206 68.06 22.9393C67.7787 22.658 67.3972 22.5 66.9994 22.5ZM45.4994 7.41374V13C45.4994 13.3978 45.6574 13.7793 45.9387 14.0607C46.22 14.342 46.6016 14.5 46.9994 14.5C47.3972 14.5 47.7787 14.342 48.06 14.0607C48.3413 13.7793 48.4994 13.3978 48.4994 13V4.99999C48.4992 4.74445 48.4338 4.49319 48.3093 4.27002C48.1848 4.04686 48.0054 3.8592 47.788 3.72485C47.5707 3.59049 47.3226 3.5139 47.0673 3.50233C46.812 3.49076 46.558 3.5446 46.3294 3.65874L44.3294 4.65874C43.9983 4.83519 43.7454 5.12929 43.6205 5.48304C43.4956 5.83679 43.5077 6.22451 43.6546 6.56972C43.8015 6.91493 44.0724 7.19257 44.4139 7.34788C44.7554 7.5032 45.1427 7.52491 45.4994 7.40874V7.41374ZM50.4656 19.5212C50.4014 19.0587 50.2442 18.614 50.0036 18.2138C49.763 17.8136 49.444 17.4662 49.0656 17.1925C48.3114 16.6451 47.3747 16.4104 46.4515 16.5376C45.5283 16.6648 44.69 17.144 44.1119 17.875C43.89 18.1601 43.7142 18.4781 43.5906 18.8175C43.4604 19.1899 43.4821 19.5986 43.6511 19.9551C43.82 20.3116 44.1227 20.5872 44.4934 20.7222C44.8641 20.8571 45.273 20.8406 45.6317 20.6762C45.9903 20.5118 46.2697 20.2127 46.4094 19.8437C46.4274 19.7988 46.4518 19.7567 46.4819 19.7187C46.5788 19.6014 46.7168 19.5255 46.8678 19.5064C47.0188 19.4874 47.1714 19.5266 47.2944 19.6162C47.3485 19.6536 47.3943 19.7018 47.4289 19.7577C47.4636 19.8137 47.4863 19.8761 47.4956 19.9412C47.504 20.0025 47.4998 20.0648 47.4832 20.1243C47.4667 20.1838 47.4382 20.2394 47.3994 20.2875L47.3831 20.3087L43.7981 25.1025C43.6316 25.3254 43.5305 25.5903 43.5059 25.8675C43.4813 26.1446 43.5343 26.4232 43.6589 26.6719C43.7836 26.9207 43.9749 27.1299 44.2117 27.2761C44.4484 27.4224 44.7211 27.4999 44.9994 27.5H48.9994C49.3972 27.5 49.7787 27.342 50.06 27.0607C50.3413 26.7793 50.4994 26.3978 50.4994 26C50.4994 25.6022 50.3413 25.2206 50.06 24.9393C49.7787 24.658 49.3972 24.5 48.9994 24.5H47.9994L49.7844 22.1112C50.0656 21.7471 50.2708 21.3303 50.3878 20.8854C50.5048 20.4405 50.5313 19.9766 50.4656 19.5212Z" fill="white"/>
</g>
<defs>
<clipPath id="clip0_27_7326">
<rect width="72" height="32" rx="5" fill="white"/>
</clipPath>
</defs>
</svg>
