<svg width="72" height="32" viewBox="0 0 72 32" fill="none" xmlns="http://www.w3.org/2000/svg">
<g clip-path="url(#clip0_27_6685)">
<path d="M26 4H6C5.46957 4 4.96086 4.21071 4.58579 4.58579C4.21071 4.96086 4 5.46957 4 6V28C4 28.2652 4.10536 28.5196 4.29289 28.7071C4.48043 28.8946 4.73478 29 5 29C5.26522 29 5.51957 28.8946 5.70711 28.7071C5.89464 28.5196 6 28.2652 6 28V26H15V28C15 28.2652 15.1054 28.5196 15.2929 28.7071C15.4804 28.8946 15.7348 29 16 29C16.2652 29 16.5196 28.8946 16.7071 28.7071C16.8946 28.5196 17 28.2652 17 28V26H26V28C26 28.2652 26.1054 28.5196 26.2929 28.7071C26.4804 28.8946 26.7348 29 27 29C27.2652 29 27.5196 28.8946 27.7071 28.7071C27.8946 28.5196 28 28.2652 28 28V6C28 5.46957 27.7893 4.96086 27.4142 4.58579C27.0391 4.21071 26.5304 4 26 4ZM12 14H7C6.73478 14 6.48043 13.8946 6.29289 13.7071C6.10536 13.5196 6 13.2652 6 13C6 12.7348 6.10536 12.4804 6.29289 12.2929C6.48043 12.1054 6.73478 12 7 12H12C12.2652 12 12.5196 12.1054 12.7071 12.2929C12.8946 12.4804 13 12.7348 13 13C13 13.2652 12.8946 13.5196 12.7071 13.7071C12.5196 13.8946 12.2652 14 12 14ZM12 10H7C6.73478 10 6.48043 9.89464 6.29289 9.70711C6.10536 9.51957 6 9.26522 6 9C6 8.73478 6.10536 8.48043 6.29289 8.29289C6.48043 8.10536 6.73478 8 7 8H12C12.2652 8 12.5196 8.10536 12.7071 8.29289C12.8946 8.48043 13 8.73478 13 9C13 9.26522 12.8946 9.51957 12.7071 9.70711C12.5196 9.89464 12.2652 10 12 10ZM17 23C17 23.2652 16.8946 23.5196 16.7071 23.7071C16.5196 23.8946 16.2652 24 16 24C15.7348 24 15.4804 23.8946 15.2929 23.7071C15.1054 23.5196 15 23.2652 15 23V7C15 6.73478 15.1054 6.48043 15.2929 6.29289C15.4804 6.10536 15.7348 6 16 6C16.2652 6 16.5196 6.10536 16.7071 6.29289C16.8946 6.48043 17 6.73478 17 7V23ZM25 14H20C19.7348 14 19.4804 13.8946 19.2929 13.7071C19.1054 13.5196 19 13.2652 19 13C19 12.7348 19.1054 12.4804 19.2929 12.2929C19.4804 12.1054 19.7348 12 20 12H25C25.2652 12 25.5196 12.1054 25.7071 12.2929C25.8946 12.4804 26 12.7348 26 13C26 13.2652 25.8946 13.5196 25.7071 13.7071C25.5196 13.8946 25.2652 14 25 14ZM25 10H20C19.7348 10 19.4804 9.89464 19.2929 9.70711C19.1054 9.51957 19 9.26522 19 9C19 8.73478 19.1054 8.48043 19.2929 8.29289C19.4804 8.10536 19.7348 8 20 8H25C25.2652 8 25.5196 8.10536 25.7071 8.29289C25.8946 8.48043 26 8.73478 26 9C26 9.26522 25.8946 9.51957 25.7071 9.70711C25.5196 9.89464 25.2652 10 25 10Z" fill="white"/>
<path d="M64 10C64 10.3978 63.842 10.7794 63.5607 11.0607C63.2794 11.342 62.8978 11.5 62.5 11.5H60.5C60.1022 11.5 59.7206 11.342 59.4393 11.0607C59.158 10.7794 59 10.3978 59 10C59 9.60218 59.158 9.22064 59.4393 8.93934C59.7206 8.65804 60.1022 8.5 60.5 8.5H62.5C62.8978 8.5 63.2794 8.65804 63.5607 8.93934C63.842 9.22064 64 9.60218 64 10ZM62.5 13.5H60.5C60.1022 13.5 59.7206 13.658 59.4393 13.9393C59.158 14.2206 59 14.6022 59 15C59 15.3978 59.158 15.7794 59.4393 16.0607C59.7206 16.342 60.1022 16.5 60.5 16.5H62.5C62.8978 16.5 63.2794 16.342 63.5607 16.0607C63.842 15.7794 64 15.3978 64 15C64 14.6022 63.842 14.2206 63.5607 13.9393C63.2794 13.658 62.8978 13.5 62.5 13.5ZM49.5 11.5H51.5C51.8978 11.5 52.2794 11.342 52.5607 11.0607C52.842 10.7794 53 10.3978 53 10C53 9.60218 52.842 9.22064 52.5607 8.93934C52.2794 8.65804 51.8978 8.5 51.5 8.5H49.5C49.1022 8.5 48.7206 8.65804 48.4393 8.93934C48.158 9.22064 48 9.60218 48 10C48 10.3978 48.158 10.7794 48.4393 11.0607C48.7206 11.342 49.1022 11.5 49.5 11.5ZM51.5 13.5H49.5C49.1022 13.5 48.7206 13.658 48.4393 13.9393C48.158 14.2206 48 14.6022 48 15C48 15.3978 48.158 15.7794 48.4393 16.0607C48.7206 16.342 49.1022 16.5 49.5 16.5H51.5C51.8978 16.5 52.2794 16.342 52.5607 16.0607C52.842 15.7794 53 15.3978 53 15C53 14.6022 52.842 14.2206 52.5607 13.9393C52.2794 13.658 51.8978 13.5 51.5 13.5ZM68.5 6V28C68.5 28.3978 68.342 28.7794 68.0607 29.0607C67.7794 29.342 67.3978 29.5 67 29.5C66.6022 29.5 66.2206 29.342 65.9393 29.0607C65.658 28.7794 65.5 28.3978 65.5 28V26.5H57.5V28C57.5 28.3978 57.342 28.7794 57.0607 29.0607C56.7794 29.342 56.3978 29.5 56 29.5C55.6022 29.5 55.2206 29.342 54.9393 29.0607C54.658 28.7794 54.5 28.3978 54.5 28V26.5H46.5V28C46.5 28.3978 46.342 28.7794 46.0607 29.0607C45.7794 29.342 45.3978 29.5 45 29.5C44.6022 29.5 44.2206 29.342 43.9393 29.0607C43.658 28.7794 43.5 28.3978 43.5 28V6C43.5 5.33696 43.7634 4.70107 44.2322 4.23223C44.7011 3.76339 45.337 3.5 46 3.5H66C66.663 3.5 67.2989 3.76339 67.7678 4.23223C68.2366 4.70107 68.5 5.33696 68.5 6ZM54.5 23.5V6.5H46.5V23.5H54.5ZM57.5 23.5H65.5V6.5H57.5V23.5Z" fill="white"/>
</g>
<defs>
<clipPath id="clip0_27_6685">
<rect width="72" height="32" rx="5" fill="white"/>
</clipPath>
</defs>
</svg>
