<svg width="72" height="32" viewBox="0 0 72 32" fill="none" xmlns="http://www.w3.org/2000/svg">
<g clip-path="url(#clip0_27_4394)">
<path d="M26 10H12V7C12 5.93913 12.4214 4.92172 13.1716 4.17157C13.9217 3.42143 14.9391 3 16 3C17.9213 3 19.65 4.375 20.02 6.19875C20.0749 6.45646 20.2294 6.68207 20.4497 6.82655C20.6701 6.97103 20.9385 7.0227 21.1968 6.97032C21.455 6.91795 21.6822 6.76577 21.8288 6.54686C21.9755 6.32795 22.0298 6.06 21.98 5.80125C21.415 3.01875 18.9 1 16 1C14.4092 1.00165 12.884 1.63433 11.7592 2.75919C10.6343 3.88405 10.0017 5.40921 10 7V10H6C5.46957 10 4.96086 10.2107 4.58579 10.5858C4.21071 10.9609 4 11.4696 4 12V26C4 26.5304 4.21071 27.0391 4.58579 27.4142C4.96086 27.7893 5.46957 28 6 28H26C26.5304 28 27.0391 27.7893 27.4142 27.4142C27.7893 27.0391 28 26.5304 28 26V12C28 11.4696 27.7893 10.9609 27.4142 10.5858C27.0391 10.2107 26.5304 10 26 10ZM23 24H9C8.73478 24 8.48043 23.8946 8.29289 23.7071C8.10536 23.5196 8 23.2652 8 23C8 22.7348 8.10536 22.4804 8.29289 22.2929C8.48043 22.1054 8.73478 22 9 22H23C23.2652 22 23.5196 22.1054 23.7071 22.2929C23.8946 22.4804 24 22.7348 24 23C24 23.2652 23.8946 23.5196 23.7071 23.7071C23.5196 23.8946 23.2652 24 23 24ZM23 20H9C8.73478 20 8.48043 19.8946 8.29289 19.7071C8.10536 19.5196 8 19.2652 8 19C8 18.7348 8.10536 18.4804 8.29289 18.2929C8.48043 18.1054 8.73478 18 9 18H23C23.2652 18 23.5196 18.1054 23.7071 18.2929C23.8946 18.4804 24 18.7348 24 19C24 19.2652 23.8946 19.5196 23.7071 19.7071C23.5196 19.8946 23.2652 20 23 20ZM23 16H9C8.73478 16 8.48043 15.8946 8.29289 15.7071C8.10536 15.5196 8 15.2652 8 15C8 14.7348 8.10536 14.4804 8.29289 14.2929C8.48043 14.1054 8.73478 14 9 14H23C23.2652 14 23.5196 14.1054 23.7071 14.2929C23.8946 14.4804 24 14.7348 24 15C24 15.2652 23.8946 15.5196 23.7071 15.7071C23.5196 15.8946 23.2652 16 23 16Z" fill="white"/>
<path d="M66 9.5H52.5V7C52.5 6.07174 52.8687 5.1815 53.5251 4.52513C54.1815 3.86875 55.0717 3.5 56 3.5C57.6888 3.5 59.2063 4.7025 59.53 6.29875C59.5692 6.49179 59.6461 6.67522 59.7562 6.83855C59.8663 7.00189 60.0076 7.14193 60.1718 7.2507C60.336 7.35946 60.5201 7.4348 60.7135 7.47243C60.9068 7.51006 61.1057 7.50923 61.2987 7.47C61.4918 7.43077 61.6752 7.3539 61.8386 7.24378C62.0019 7.13366 62.1419 6.99244 62.2507 6.8282C62.3595 6.66396 62.4348 6.4799 62.4724 6.28654C62.5101 6.09317 62.5092 5.89429 62.47 5.70125C61.8587 2.6875 59.1375 0.5 56 0.5C54.2767 0.501985 52.6246 1.18744 51.406 2.406C50.1874 3.62455 49.502 5.2767 49.5 7V9.5H46C45.337 9.5 44.7011 9.76339 44.2322 10.2322C43.7634 10.7011 43.5 11.337 43.5 12V26C43.5 26.663 43.7634 27.2989 44.2322 27.7678C44.7011 28.2366 45.337 28.5 46 28.5H66C66.663 28.5 67.2989 28.2366 67.7678 27.7678C68.2366 27.2989 68.5 26.663 68.5 26V12C68.5 11.337 68.2366 10.7011 67.7678 10.2322C67.2989 9.76339 66.663 9.5 66 9.5ZM46.5 18H65.5V20H46.5V18ZM65.5 12.5V15H46.5V12.5H65.5ZM46.5 25.5V23H65.5V25.5H46.5Z" fill="white"/>
</g>
<defs>
<clipPath id="clip0_27_4394">
<rect width="72" height="32" rx="5" fill="white"/>
</clipPath>
</defs>
</svg>
