<svg width="72" height="32" viewBox="0 0 72 32" fill="none" xmlns="http://www.w3.org/2000/svg">
<g clip-path="url(#clip0_27_4399)">
<path d="M26 10H12V7C12 5.93913 12.4214 4.92172 13.1716 4.17157C13.9217 3.42143 14.9391 3 16 3C17.9213 3 19.65 4.375 20.02 6.19875C20.0749 6.45646 20.2294 6.68207 20.4497 6.82655C20.6701 6.97103 20.9385 7.0227 21.1968 6.97032C21.455 6.91795 21.6822 6.76577 21.8288 6.54686C21.9755 6.32795 22.0298 6.06 21.98 5.80125C21.415 3.01875 18.9 1 16 1C14.4092 1.00165 12.884 1.63433 11.7592 2.75919C10.6343 3.88405 10.0017 5.40921 10 7V10H6C5.46957 10 4.96086 10.2107 4.58579 10.5858C4.21071 10.9609 4 11.4696 4 12V26C4 26.5304 4.21071 27.0391 4.58579 27.4142C4.96086 27.7893 5.46957 28 6 28H26C26.5304 28 27.0391 27.7893 27.4142 27.4142C27.7893 27.0391 28 26.5304 28 26V12C28 11.4696 27.7893 10.9609 27.4142 10.5858C27.0391 10.2107 26.5304 10 26 10ZM16 20.5C15.7033 20.5 15.4133 20.412 15.1666 20.2472C14.92 20.0824 14.7277 19.8481 14.6142 19.574C14.5006 19.2999 14.4709 18.9983 14.5288 18.7074C14.5867 18.4164 14.7296 18.1491 14.9393 17.9393C15.1491 17.7296 15.4164 17.5867 15.7074 17.5288C15.9983 17.4709 16.2999 17.5007 16.574 17.6142C16.8481 17.7277 17.0824 17.92 17.2472 18.1666C17.412 18.4133 17.5 18.7033 17.5 19C17.5 19.3978 17.342 19.7794 17.0607 20.0607C16.7794 20.342 16.3978 20.5 16 20.5Z" fill="white"/>
<path d="M66 9.5H52.5V7C52.5 6.07174 52.8687 5.1815 53.5251 4.52513C54.1815 3.86875 55.0717 3.5 56 3.5C57.6888 3.5 59.2063 4.7025 59.53 6.29875C59.5692 6.49179 59.6461 6.67522 59.7562 6.83855C59.8663 7.00189 60.0076 7.14193 60.1718 7.2507C60.336 7.35946 60.5201 7.4348 60.7135 7.47243C60.9068 7.51006 61.1057 7.50923 61.2987 7.47C61.4918 7.43077 61.6752 7.3539 61.8386 7.24378C62.0019 7.13366 62.1419 6.99244 62.2507 6.8282C62.3595 6.66396 62.4348 6.4799 62.4724 6.28654C62.5101 6.09317 62.5092 5.89429 62.47 5.70125C61.8587 2.6875 59.1375 0.5 56 0.5C54.2767 0.501985 52.6246 1.18744 51.406 2.406C50.1874 3.62455 49.502 5.2767 49.5 7V9.5H46C45.337 9.5 44.7011 9.76339 44.2322 10.2322C43.7634 10.7011 43.5 11.337 43.5 12V26C43.5 26.663 43.7634 27.2989 44.2322 27.7678C44.7011 28.2366 45.337 28.5 46 28.5H66C66.663 28.5 67.2989 28.2366 67.7678 27.7678C68.2366 27.2989 68.5 26.663 68.5 26V12C68.5 11.337 68.2366 10.7011 67.7678 10.2322C67.2989 9.76339 66.663 9.5 66 9.5ZM65.5 25.5H46.5V12.5H65.5V25.5ZM54 19C54 18.6044 54.1173 18.2178 54.3371 17.8889C54.5568 17.56 54.8692 17.3036 55.2346 17.1522C55.6001 17.0009 56.0022 16.9613 56.3902 17.0384C56.7781 17.1156 57.1345 17.3061 57.4142 17.5858C57.6939 17.8655 57.8844 18.2219 57.9616 18.6098C58.0387 18.9978 57.9991 19.3999 57.8478 19.7654C57.6964 20.1308 57.44 20.4432 57.1111 20.6629C56.7822 20.8827 56.3956 21 56 21C55.4696 21 54.9609 20.7893 54.5858 20.4142C54.2107 20.0391 54 19.5304 54 19Z" fill="white"/>
</g>
<defs>
<clipPath id="clip0_27_4399">
<rect width="72" height="32" rx="5" fill="white"/>
</clipPath>
</defs>
</svg>
