<svg width="72" height="32" viewBox="0 0 72 32" fill="none" xmlns="http://www.w3.org/2000/svg">
<g clip-path="url(#clip0_27_4379)">
<path d="M26 10H22V7C22 5.4087 21.3679 3.88258 20.2426 2.75736C19.1174 1.63214 17.5913 1 16 1C14.4087 1 12.8826 1.63214 11.7574 2.75736C10.6321 3.88258 10 5.4087 10 7V10H6C5.46957 10 4.96086 10.2107 4.58579 10.5858C4.21071 10.9609 4 11.4696 4 12V26C4 26.5304 4.21071 27.0391 4.58579 27.4142C4.96086 27.7893 5.46957 28 6 28H26C26.5304 28 27.0391 27.7893 27.4142 27.4142C27.7893 27.0391 28 26.5304 28 26V12C28 11.4696 27.7893 10.9609 27.4142 10.5858C27.0391 10.2107 26.5304 10 26 10ZM17 19.8288V23C17 23.2652 16.8946 23.5196 16.7071 23.7071C16.5196 23.8946 16.2652 24 16 24C15.7348 24 15.4804 23.8946 15.2929 23.7071C15.1054 23.5196 15 23.2652 15 23V19.8288C14.3328 19.5929 13.7704 19.1287 13.4124 18.5183C13.0543 17.9079 12.9235 17.1905 13.0432 16.493C13.1629 15.7955 13.5253 15.1628 14.0663 14.7066C14.6074 14.2505 15.2923 14.0003 16 14.0003C16.7077 14.0003 17.3926 14.2505 17.9337 14.7066C18.4747 15.1628 18.8371 15.7955 18.9568 16.493C19.0765 17.1905 18.9457 17.9079 18.5876 18.5183C18.2296 19.1287 17.6672 19.5929 17 19.8288ZM20 10H12V7C12 5.93913 12.4214 4.92172 13.1716 4.17157C13.9217 3.42143 14.9391 3 16 3C17.0609 3 18.0783 3.42143 18.8284 4.17157C19.5786 4.92172 20 5.93913 20 7V10Z" fill="white"/>
<path d="M66 9.5H62.5V7C62.5 5.27609 61.8152 3.62279 60.5962 2.40381C59.3772 1.18482 57.7239 0.5 56 0.5C54.2761 0.5 52.6228 1.18482 51.4038 2.40381C50.1848 3.62279 49.5 5.27609 49.5 7V9.5H46C45.337 9.5 44.7011 9.76339 44.2322 10.2322C43.7634 10.7011 43.5 11.337 43.5 12V26C43.5 26.663 43.7634 27.2989 44.2322 27.7678C44.7011 28.2366 45.337 28.5 46 28.5H66C66.663 28.5 67.2989 28.2366 67.7678 27.7678C68.2366 27.2989 68.5 26.663 68.5 26V12C68.5 11.337 68.2366 10.7011 67.7678 10.2322C67.2989 9.76339 66.663 9.5 66 9.5ZM52.5 7C52.5 6.07174 52.8687 5.1815 53.5251 4.52513C54.1815 3.86875 55.0717 3.5 56 3.5C56.9283 3.5 57.8185 3.86875 58.4749 4.52513C59.1313 5.1815 59.5 6.07174 59.5 7V9.5H52.5V7ZM65.5 25.5H46.5V12.5H65.5V25.5ZM56 14C55.072 14.0003 54.173 14.3233 53.4569 14.9137C52.7409 15.504 52.2524 16.325 52.0751 17.2359C51.8979 18.1468 52.0428 19.091 52.4852 19.9068C52.9276 20.7226 53.6399 21.3592 54.5 21.7075V22.5C54.5 22.8978 54.658 23.2794 54.9393 23.5607C55.2206 23.842 55.6022 24 56 24C56.3978 24 56.7794 23.842 57.0607 23.5607C57.342 23.2794 57.5 22.8978 57.5 22.5V21.7075C58.3601 21.3592 59.0724 20.7226 59.5148 19.9068C59.9572 19.091 60.1021 18.1468 59.9249 17.2359C59.7476 16.325 59.2591 15.504 58.5431 14.9137C57.827 14.3233 56.928 14.0003 56 14ZM56 17C56.1978 17 56.3911 17.0586 56.5556 17.1685C56.72 17.2784 56.8482 17.4346 56.9239 17.6173C56.9996 17.8 57.0194 18.0011 56.9808 18.1951C56.9422 18.3891 56.847 18.5673 56.7071 18.7071C56.5673 18.847 56.3891 18.9422 56.1951 18.9808C56.0011 19.0194 55.8 18.9996 55.6173 18.9239C55.4346 18.8482 55.2784 18.72 55.1685 18.5556C55.0586 18.3911 55 18.1978 55 18C55 17.7348 55.1054 17.4804 55.2929 17.2929C55.4804 17.1054 55.7348 17 56 17Z" fill="white"/>
</g>
<defs>
<clipPath id="clip0_27_4379">
<rect width="72" height="32" rx="5" fill="white"/>
</clipPath>
</defs>
</svg>
