<svg width="72" height="32" viewBox="0 0 72 32" fill="none" xmlns="http://www.w3.org/2000/svg">
<g clip-path="url(#clip0_27_2896)">
<path d="M28.7075 27.2925L22.45 21.035C24.2672 18.8555 25.1742 16.0593 24.9823 13.2281C24.7904 10.397 23.5144 7.74876 21.4197 5.83445C19.3249 3.92015 16.5728 2.88713 13.7359 2.95031C10.8989 3.01348 8.19547 4.16799 6.18804 6.17364C4.18061 8.1793 3.02372 10.8817 2.95804 13.7186C2.89235 16.5555 3.92294 19.3086 5.83539 21.405C7.74785 23.5014 10.3949 24.7798 13.2259 24.9742C16.0569 25.1686 18.8539 24.264 21.035 22.4487L27.2925 28.7075C27.3854 28.8004 27.4957 28.8741 27.6171 28.9244C27.7385 28.9747 27.8686 29.0005 28 29.0005C28.1314 29.0005 28.2615 28.9747 28.3829 28.9244C28.5043 28.8741 28.6146 28.8004 28.7075 28.7075C28.8004 28.6146 28.8741 28.5043 28.9244 28.3829C28.9747 28.2615 29.0006 28.1314 29.0006 28C29.0006 27.8686 28.9747 27.7385 28.9244 27.6171C28.8741 27.4957 28.8004 27.3854 28.7075 27.2925ZM18 15H15V18C15 18.2652 14.8946 18.5195 14.7071 18.7071C14.5196 18.8946 14.2652 19 14 19C13.7348 19 13.4804 18.8946 13.2929 18.7071C13.1054 18.5195 13 18.2652 13 18V15H10C9.73478 15 9.48043 14.8946 9.29289 14.7071C9.10535 14.5195 9 14.2652 9 14C9 13.7348 9.10535 13.4804 9.29289 13.2929C9.48043 13.1053 9.73478 13 10 13H13V9.99998C13 9.73476 13.1054 9.48041 13.2929 9.29287C13.4804 9.10533 13.7348 8.99998 14 8.99998C14.2652 8.99998 14.5196 9.10533 14.7071 9.29287C14.8946 9.48041 15 9.73476 15 9.99998V13H18C18.2652 13 18.5196 13.1053 18.7071 13.2929C18.8946 13.4804 19 13.7348 19 14C19 14.2652 18.8946 14.5195 18.7071 14.7071C18.5196 14.8946 18.2652 15 18 15Z" fill="white"/>
<path d="M59.4998 14C59.4998 14.3978 59.3418 14.7794 59.0605 15.0607C58.7792 15.342 58.3977 15.5 57.9998 15.5H55.4998V18C55.4998 18.3978 55.3418 18.7794 55.0605 19.0607C54.7792 19.342 54.3977 19.5 53.9998 19.5C53.602 19.5 53.2205 19.342 52.9392 19.0607C52.6579 18.7794 52.4998 18.3978 52.4998 18V15.5H49.9998C49.602 15.5 49.2205 15.342 48.9392 15.0607C48.6579 14.7794 48.4998 14.3978 48.4998 14C48.4998 13.6022 48.6579 13.2207 48.9392 12.9394C49.2205 12.658 49.602 12.5 49.9998 12.5H52.4998V10C52.4998 9.60219 52.6579 9.22066 52.9392 8.93935C53.2205 8.65805 53.602 8.50001 53.9998 8.50001C54.3977 8.50001 54.7792 8.65805 55.0605 8.93935C55.3418 9.22066 55.4998 9.60219 55.4998 10V12.5H57.9998C58.3977 12.5 58.7792 12.658 59.0605 12.9394C59.3418 13.2207 59.4998 13.6022 59.4998 14ZM69.0611 29.0613C68.9217 29.2011 68.7561 29.3121 68.5738 29.3878C68.3915 29.4635 68.196 29.5024 67.9986 29.5024C67.8012 29.5024 67.6057 29.4635 67.4234 29.3878C67.241 29.3121 67.0754 29.2011 66.9361 29.0613L60.9998 23.125C58.6804 24.9049 55.7708 25.7359 52.8613 25.4494C49.9517 25.1629 47.26 23.7804 45.3323 21.5823C43.4046 19.3842 42.3851 16.5352 42.4808 13.6131C42.5764 10.6911 43.78 7.91478 45.8473 5.84746C47.9146 3.78014 50.6909 2.57659 53.613 2.48096C56.535 2.38533 59.3841 3.40477 61.5821 5.3325C63.7802 7.26022 65.1627 9.95187 65.4492 12.8614C65.7357 15.771 64.9047 18.6806 63.1248 21L69.0673 26.9413C69.3474 27.2233 69.5041 27.6051 69.5029 28.0026C69.5017 28.4001 69.3428 28.7808 69.0611 29.0613ZM53.9998 22.5C55.681 22.5 57.3244 22.0015 58.7222 21.0675C60.12 20.1335 61.2095 18.806 61.8528 17.2528C62.4961 15.6996 62.6645 13.9906 62.3365 12.3417C62.0085 10.6929 61.199 9.17835 60.0102 7.9896C58.8215 6.80086 57.3069 5.99131 55.6581 5.66334C54.0093 5.33536 52.3002 5.50369 50.747 6.14704C49.1938 6.79038 47.8663 7.87985 46.9323 9.27766C45.9983 10.6755 45.4998 12.3189 45.4998 14C45.5025 16.2535 46.3989 18.414 47.9923 20.0075C49.5858 21.601 51.7463 22.4974 53.9998 22.5Z" fill="white"/>
</g>
<defs>
<clipPath id="clip0_27_2896">
<rect width="72" height="32" rx="5" fill="white"/>
</clipPath>
</defs>
</svg>
