<svg width="72" height="32" viewBox="0 0 72 32" fill="none" xmlns="http://www.w3.org/2000/svg">
<g clip-path="url(#clip0_27_3583)">
<path d="M25.8746 6.28126C24.8578 5.24345 23.6443 4.41875 22.305 3.85536C20.9657 3.29196 19.5276 3.00118 18.0746 3.00001H18.0334C16.5871 2.99629 15.1544 3.27953 13.8183 3.83332C12.4822 4.38711 11.2692 5.20045 10.2496 6.22626L2.57589 14C2.20439 14.3757 1.99665 14.8832 1.99805 15.4116C1.99946 15.9399 2.20989 16.4463 2.58339 16.82L6.16589 20.4025C6.35134 20.5888 6.57186 20.7366 6.81473 20.8372C7.0576 20.9378 7.318 20.9893 7.58089 20.9888H7.59214C7.85693 20.9873 8.1188 20.9333 8.36257 20.8299C8.60633 20.7265 8.82712 20.5757 9.01214 20.3863L16.6246 12.5863C16.9964 12.2183 17.4969 12.0096 18.0199 12.0047C18.543 11.9998 19.0473 12.199 19.4259 12.56C19.613 12.7418 19.7617 12.9592 19.8633 13.1995C19.9648 13.4397 20.0172 13.6979 20.0171 13.9588C20.0197 14.2364 19.9674 14.5117 19.8634 14.7691C19.7594 15.0265 19.6056 15.2609 19.4109 15.4588L11.6246 22.985C11.4345 23.1697 11.2829 23.3903 11.1788 23.6341C11.0746 23.8778 11.0199 24.1399 11.018 24.4049C11.016 24.67 11.0667 24.9328 11.1672 25.1781C11.2677 25.4234 11.416 25.6463 11.6034 25.8338L15.1859 29.4163C15.5594 29.7874 16.0638 29.997 16.5903 29.9998C17.1169 30.0026 17.6235 29.7984 18.0009 29.4313L25.7259 21.875C30.0321 17.5625 30.0984 10.57 25.8746 6.28126ZM7.58089 18.9863L3.99964 15.405L7.67714 11.6788L11.2371 15.2388L7.58089 18.9863ZM16.5984 28L13.0134 24.4188L16.7796 20.7775L20.3409 24.3375L16.5984 28Z" fill="white"/>
<path d="M66.2297 5.93C65.1669 4.84525 63.8985 3.98322 62.4987 3.39429C61.0989 2.80536 59.5958 2.50134 58.0772 2.5H58.0334C56.5208 2.49595 55.0224 2.79218 53.6251 3.37153C52.2278 3.95087 50.9594 4.8018 49.8934 5.875L42.2197 13.6462C41.755 14.116 41.4952 14.7507 41.4971 15.4114C41.499 16.0722 41.7623 16.7054 42.2297 17.1725L45.8122 20.75C46.044 20.9829 46.3196 21.1676 46.6232 21.2933C46.9268 21.419 47.2523 21.4833 47.5809 21.4825H47.5947C47.9256 21.4821 48.2531 21.4155 48.5579 21.2867C48.8627 21.1579 49.1387 20.9695 49.3697 20.7325L56.9784 12.9337C57.2578 12.6601 57.6325 12.5055 58.0235 12.5027C58.4146 12.4999 58.7915 12.6491 59.0747 12.9187C59.2137 13.0546 59.324 13.217 59.3992 13.3963C59.4743 13.5756 59.5128 13.7681 59.5122 13.9625C59.5164 14.3877 59.3519 14.7972 59.0547 15.1012L51.2734 22.625C51.0355 22.8559 50.8459 23.1318 50.7156 23.4366C50.5853 23.7415 50.5169 24.0692 50.5145 24.4007C50.512 24.7323 50.5755 25.061 50.7013 25.3677C50.8271 25.6745 51.0127 25.9531 51.2472 26.1875L54.8297 29.77C55.2968 30.2337 55.9273 30.4953 56.5855 30.4986C57.2436 30.5019 57.8767 30.2465 58.3484 29.7875L66.0684 22.2325L66.0797 22.2212C70.5809 17.7225 70.6472 10.4137 66.2297 5.93ZM47.5772 18.2762L44.7022 15.4012L46.9759 13.1L49.8359 15.96L47.5772 18.2762ZM56.6022 27.2987L53.7272 24.4237L56.0534 22.1737L58.9134 25.0325L56.6022 27.2987ZM63.9634 20.0962L61.0597 22.9375L58.2122 20.0912L61.1509 17.25L61.1697 17.2325C61.6001 16.799 61.9403 16.2844 62.1707 15.7187C62.4011 15.1529 62.5172 14.5471 62.5122 13.9362C62.5103 13.343 62.3893 12.7561 62.1563 12.2105C61.9234 11.6649 61.5832 11.1716 61.1559 10.76C60.3037 9.94786 59.1685 9.49984 57.9913 9.51105C56.8141 9.52225 55.6876 9.99179 54.8509 10.82L54.8384 10.8337L51.9322 13.8112L49.0847 10.965L52.0222 7.99C52.8097 7.19802 53.7465 6.57015 54.7783 6.14273C55.8102 5.71532 56.9166 5.49685 58.0334 5.5H58.0659C59.1885 5.50139 60.2996 5.72639 61.3342 6.16185C62.3689 6.59731 63.3065 7.2345 64.0922 8.03625C67.3559 11.3475 67.2972 16.7562 63.9634 20.0962Z" fill="white"/>
</g>
<defs>
<clipPath id="clip0_27_3583">
<rect width="72" height="32" rx="5" fill="white"/>
</clipPath>
</defs>
</svg>
