<svg width="72" height="32" viewBox="0 0 72 32" fill="none" xmlns="http://www.w3.org/2000/svg">
<g clip-path="url(#clip0_27_3588)">
<path d="M25 5H20C19.4696 5 18.9609 5.21071 18.5858 5.58579C18.2107 5.96086 18 6.46957 18 7V18C18 18.5304 17.7893 19.0391 17.4142 19.4142C17.0391 19.7893 16.5304 20 16 20C15.4696 20 14.9609 19.7893 14.5858 19.4142C14.2107 19.0391 14 18.5304 14 18V7C14 6.46957 13.7893 5.96086 13.4142 5.58579C13.0391 5.21071 12.5304 5 12 5H7C6.46957 5 5.96086 5.21071 5.58579 5.58579C5.21071 5.96086 5 6.46957 5 7V18C5 20.9174 6.15893 23.7153 8.22183 25.7782C10.2847 27.8411 13.0826 29 16 29H16.0837C22.1025 28.955 27 23.9637 27 17.875V7C27 6.46957 26.7893 5.96086 26.4142 5.58579C26.0391 5.21071 25.5304 5 25 5ZM25 7V12H20V7H25ZM12 7V12H7V7H12Z" fill="white"/>
<path d="M65 4.5H60C59.337 4.5 58.7011 4.76339 58.2322 5.23223C57.7634 5.70107 57.5 6.33696 57.5 7V18C57.5 18.3978 57.342 18.7794 57.0607 19.0607C56.7794 19.342 56.3978 19.5 56 19.5C55.6022 19.5 55.2206 19.342 54.9393 19.0607C54.658 18.7794 54.5 18.3978 54.5 18V7C54.5 6.33696 54.2366 5.70107 53.7678 5.23223C53.2989 4.76339 52.663 4.5 52 4.5H47C46.337 4.5 45.7011 4.76339 45.2322 5.23223C44.7634 5.70107 44.5 6.33696 44.5 7V18C44.5 21.05 45.7116 23.9751 47.8683 26.1317C50.0249 28.2884 52.95 29.5 56 29.5H56.0888C62.3813 29.4525 67.5012 24.2375 67.5012 17.875V7C67.5012 6.67159 67.4365 6.3464 67.3108 6.043C67.1851 5.73961 67.0009 5.46395 66.7686 5.23179C66.5363 4.99963 66.2606 4.81551 65.9571 4.68994C65.6536 4.56438 65.3284 4.49984 65 4.5ZM64.5 7.5V10.5H60.5V7.5H64.5ZM51.5 7.5V10.5H47.5V7.5H51.5ZM56.065 26.5H56C53.7457 26.5 51.5837 25.6045 49.9896 24.0104C48.3955 22.4163 47.5 20.2543 47.5 18V13.5H51.5V18C51.5 19.1935 51.9741 20.3381 52.818 21.182C53.6619 22.0259 54.8065 22.5 56 22.5C57.1935 22.5 58.3381 22.0259 59.182 21.182C60.0259 20.3381 60.5 19.1935 60.5 18V13.5H64.5V17.875C64.5 22.5963 60.7163 26.465 56.065 26.5Z" fill="white"/>
</g>
<defs>
<clipPath id="clip0_27_3588">
<rect width="72" height="32" rx="5" fill="white"/>
</clipPath>
</defs>
</svg>
