<svg width="72" height="32" viewBox="0 0 72 32" fill="none" xmlns="http://www.w3.org/2000/svg">
<g clip-path="url(#clip0_27_585)">
<path d="M13 19C13 19.2652 12.8946 19.5196 12.7071 19.7071C12.5196 19.8946 12.2652 20 12 20H7C6.73478 20 6.48043 19.8946 6.29289 19.7071C6.10536 19.5196 6 19.2652 6 19C6 18.7348 6.10536 18.4804 6.29289 18.2929C6.48043 18.1054 6.73478 18 7 18H12C12.2652 18 12.5196 18.1054 12.7071 18.2929C12.8946 18.4804 13 18.7348 13 19ZM21 4H24C24.2652 4 24.5196 3.89464 24.7071 3.70711C24.8946 3.51957 25 3.26522 25 3C25 2.73478 24.8946 2.48043 24.7071 2.29289C24.5196 2.10536 24.2652 2 24 2H20C19.7348 2 19.4804 2.10536 19.2929 2.29289C19.1054 2.48043 19 2.73478 19 3V7H21V4ZM30 14.5V22C30 22.5304 29.7893 23.0391 29.4142 23.4142C29.0391 23.7893 28.5304 24 28 24H17V28C17 28.2652 16.8946 28.5196 16.7071 28.7071C16.5196 28.8946 16.2652 29 16 29C15.7348 29 15.4804 28.8946 15.2929 28.7071C15.1054 28.5196 15 28.2652 15 28V24H4C3.46957 24 2.96086 23.7893 2.58579 23.4142C2.21071 23.0391 2 22.5304 2 22V14.5C2.00232 12.5116 2.79324 10.6053 4.19926 9.19926C5.60528 7.79324 7.51159 7.00232 9.5 7H19V18C19 18.2652 19.1054 18.5196 19.2929 18.7071C19.4804 18.8946 19.7348 19 20 19C20.2652 19 20.5196 18.8946 20.7071 18.7071C20.8946 18.5196 21 18.2652 21 18V7H22.5C24.4884 7.00232 26.3947 7.79324 27.8007 9.19926C29.2068 10.6053 29.9977 12.5116 30 14.5ZM15 14.5C15 13.0413 14.4205 11.6424 13.3891 10.6109C12.3576 9.57946 10.9587 9 9.5 9C8.04131 9 6.64236 9.57946 5.61091 10.6109C4.57946 11.6424 4 13.0413 4 14.5V22H15V14.5Z" fill="white"/>
<path d="M52.5 18.5C52.5 18.8978 52.342 19.2794 52.0607 19.5607C51.7794 19.842 51.3978 20 51 20H48C47.6022 20 47.2206 19.842 46.9393 19.5607C46.658 19.2794 46.5 18.8978 46.5 18.5C46.5 18.1022 46.658 17.7206 46.9393 17.4393C47.2206 17.158 47.6022 17 48 17H51C51.3978 17 51.7794 17.158 52.0607 17.4393C52.342 17.7206 52.5 18.1022 52.5 18.5ZM70.5 14.5V22C70.5 22.663 70.2366 23.2989 69.7678 23.7678C69.2989 24.2366 68.663 24.5 68 24.5H57.5V28C57.5 28.3978 57.342 28.7794 57.0607 29.0607C56.7794 29.342 56.3978 29.5 56 29.5C55.6022 29.5 55.2206 29.342 54.9393 29.0607C54.658 28.7794 54.5 28.3978 54.5 28V24.5H44C43.337 24.5 42.7011 24.2366 42.2322 23.7678C41.7634 23.2989 41.5 22.663 41.5 22V14.5C41.5023 12.379 42.3459 10.3455 43.8457 8.8457C45.3455 7.34591 47.379 6.50232 49.5 6.5H59.5V3C59.5 2.60218 59.658 2.22064 59.9393 1.93934C60.2206 1.65804 60.6022 1.5 61 1.5H65C65.3978 1.5 65.7794 1.65804 66.0607 1.93934C66.342 2.22064 66.5 2.60218 66.5 3C66.5 3.39782 66.342 3.77936 66.0607 4.06066C65.7794 4.34196 65.3978 4.5 65 4.5H62.5V6.5C64.621 6.50232 66.6545 7.34591 68.1543 8.8457C69.6541 10.3455 70.4977 12.379 70.5 14.5ZM54.5 21.5V14.5C54.5 13.1739 53.9732 11.9021 53.0355 10.9645C52.0979 10.0268 50.8261 9.5 49.5 9.5C48.1739 9.5 46.9021 10.0268 45.9645 10.9645C45.0268 11.9021 44.5 13.1739 44.5 14.5V21.5H54.5ZM67.5 14.5C67.5 13.1739 66.9732 11.9021 66.0355 10.9645C65.0979 10.0268 63.8261 9.5 62.5 9.5V18C62.5 18.3978 62.342 18.7794 62.0607 19.0607C61.7794 19.342 61.3978 19.5 61 19.5C60.6022 19.5 60.2206 19.342 59.9393 19.0607C59.658 18.7794 59.5 18.3978 59.5 18V9.5H55.7413C56.8813 10.9169 57.5019 12.6814 57.5 14.5V21.5H67.5V14.5Z" fill="white"/>
</g>
<defs>
<clipPath id="clip0_27_585">
<rect width="72" height="32" rx="5" fill="white"/>
</clipPath>
</defs>
</svg>
