<svg width="72" height="32" viewBox="0 0 72 32" fill="none" xmlns="http://www.w3.org/2000/svg">
<g clip-path="url(#clip0_27_6705)">
<path d="M16 2C13.0836 2.00331 10.2877 3.1633 8.22548 5.22548C6.1633 7.28766 5.00331 10.0836 5 13C5 16.925 6.81375 21.085 10.25 25.0312C11.794 26.8145 13.5318 28.4202 15.4312 29.8188C15.5994 29.9365 15.7997 29.9997 16.005 29.9997C16.2103 29.9997 16.4106 29.9365 16.5788 29.8188C18.4747 28.4196 20.2091 26.8139 21.75 25.0312C25.1812 21.085 27 16.925 27 13C26.9967 10.0836 25.8367 7.28766 23.7745 5.22548C21.7123 3.1633 18.9164 2.00331 16 2ZM20 14H17V17C17 17.2652 16.8946 17.5196 16.7071 17.7071C16.5196 17.8946 16.2652 18 16 18C15.7348 18 15.4804 17.8946 15.2929 17.7071C15.1054 17.5196 15 17.2652 15 17V14H12C11.7348 14 11.4804 13.8946 11.2929 13.7071C11.1054 13.5196 11 13.2652 11 13C11 12.7348 11.1054 12.4804 11.2929 12.2929C11.4804 12.1054 11.7348 12 12 12H15V9C15 8.73478 15.1054 8.48043 15.2929 8.29289C15.4804 8.10536 15.7348 8 16 8C16.2652 8 16.5196 8.10536 16.7071 8.29289C16.8946 8.48043 17 8.73478 17 9V12H20C20.2652 12 20.5196 12.1054 20.7071 12.2929C20.8946 12.4804 21 12.7348 21 13C21 13.2652 20.8946 13.5196 20.7071 13.7071C20.5196 13.8946 20.2652 14 20 14Z" fill="white"/>
<path d="M61.5 13C61.5 13.3978 61.342 13.7794 61.0607 14.0607C60.7794 14.342 60.3978 14.5 60 14.5H57.5V17C57.5 17.3978 57.342 17.7794 57.0607 18.0607C56.7794 18.342 56.3978 18.5 56 18.5C55.6022 18.5 55.2206 18.342 54.9393 18.0607C54.658 17.7794 54.5 17.3978 54.5 17V14.5H52C51.6022 14.5 51.2206 14.342 50.9393 14.0607C50.658 13.7794 50.5 13.3978 50.5 13C50.5 12.6022 50.658 12.2206 50.9393 11.9393C51.2206 11.658 51.6022 11.5 52 11.5H54.5V9C54.5 8.60218 54.658 8.22064 54.9393 7.93934C55.2206 7.65804 55.6022 7.5 56 7.5C56.3978 7.5 56.7794 7.65804 57.0607 7.93934C57.342 8.22064 57.5 8.60218 57.5 9V11.5H60C60.3978 11.5 60.7794 11.658 61.0607 11.9393C61.342 12.2206 61.5 12.6022 61.5 13ZM67.5 13C67.5 17.0475 65.6437 21.3212 62.1325 25.3587C60.5612 27.1742 58.7928 28.8093 56.86 30.2337C56.6079 30.4102 56.3077 30.5048 56 30.5048C55.6923 30.5048 55.3921 30.4102 55.14 30.2337C54.705 29.925 44.5 22.67 44.5 13C44.5 9.95001 45.7116 7.02494 47.8683 4.86827C50.0249 2.7116 52.95 1.5 56 1.5C59.05 1.5 61.9751 2.7116 64.1317 4.86827C66.2884 7.02494 67.5 9.95001 67.5 13ZM64.5 13C64.5 10.7457 63.6045 8.58365 62.0104 6.98959C60.4163 5.39553 58.2543 4.5 56 4.5C53.7457 4.5 51.5837 5.39553 49.9896 6.98959C48.3955 8.58365 47.5 10.7457 47.5 13C47.5 17.1637 50 20.9213 52.0875 23.3388C53.2793 24.7078 54.5885 25.9701 56 27.1112C57.4115 25.9701 58.7207 24.7078 59.9125 23.3388C62 20.9213 64.5 17.1637 64.5 13Z" fill="white"/>
</g>
<defs>
<clipPath id="clip0_27_6705">
<rect width="72" height="32" rx="5" fill="white"/>
</clipPath>
</defs>
</svg>
