<svg width="72" height="32" viewBox="0 0 72 32" fill="none" xmlns="http://www.w3.org/2000/svg">
<g clip-path="url(#clip0_27_6720)">
<path d="M28 27C28 27.2652 27.8946 27.5196 27.7071 27.7071C27.5196 27.8946 27.2652 28 27 28H5C4.73478 28 4.48043 27.8946 4.29289 27.7071C4.10536 27.5196 4 27.2652 4 27C4 26.7348 4.10536 26.4804 4.29289 26.2929C4.48043 26.1054 4.73478 26 5 26H15V16.9275C13.2484 16.6747 11.6576 15.7678 10.5477 14.3893C9.43781 13.0109 8.89124 11.2632 9.01797 9.49801C9.14471 7.73281 9.93535 6.08114 11.2308 4.87538C12.5262 3.66963 14.2303 2.9993 16 2.9993C17.7697 2.9993 19.4738 3.66963 20.7692 4.87538C22.0647 6.08114 22.8553 7.73281 22.982 9.49801C23.1088 11.2632 22.5622 13.0109 21.4523 14.3893C20.3424 15.7678 18.7516 16.6747 17 16.9275V26H27C27.2652 26 27.5196 26.1054 27.7071 26.2929C27.8946 26.4804 28 26.7348 28 27Z" fill="white"/>
<path d="M67 25.5H57.5V17.3487C59.3211 16.977 60.9392 15.9424 62.0408 14.4454C63.1424 12.9484 63.6488 11.0957 63.462 9.24646C63.2752 7.39725 62.4084 5.68328 61.0297 4.43684C59.651 3.19039 57.8586 2.50027 56 2.50027C54.1414 2.50027 52.349 3.19039 50.9703 4.43684C49.5916 5.68328 48.7248 7.39725 48.538 9.24646C48.3512 11.0957 48.8576 12.9484 49.9592 14.4454C51.0608 15.9424 52.6789 16.977 54.5 17.3487V25.5H45C44.6022 25.5 44.2206 25.658 43.9393 25.9393C43.658 26.2206 43.5 26.6022 43.5 27C43.5 27.3978 43.658 27.7793 43.9393 28.0607C44.2206 28.342 44.6022 28.5 45 28.5H67C67.3978 28.5 67.7794 28.342 68.0607 28.0607C68.342 27.7793 68.5 27.3978 68.5 27C68.5 26.6022 68.342 26.2206 68.0607 25.9393C67.7794 25.658 67.3978 25.5 67 25.5ZM51.5 9.99999C51.5 9.10998 51.7639 8.23995 52.2584 7.49993C52.7529 6.75991 53.4557 6.18313 54.2779 5.84254C55.1002 5.50194 56.005 5.41283 56.8779 5.58646C57.7508 5.76009 58.5526 6.18868 59.182 6.81801C59.8113 7.44735 60.2399 8.24917 60.4135 9.12209C60.5872 9.995 60.4981 10.8998 60.1575 11.7221C59.8169 12.5443 59.2401 13.2471 58.5001 13.7416C57.76 14.2361 56.89 14.5 56 14.5C54.8065 14.5 53.6619 14.0259 52.818 13.182C51.9741 12.3381 51.5 11.1935 51.5 9.99999Z" fill="white"/>
</g>
<defs>
<clipPath id="clip0_27_6720">
<rect width="72" height="32" rx="5" fill="white"/>
</clipPath>
</defs>
</svg>
