<svg width="72" height="32" viewBox="0 0 72 32" fill="none" xmlns="http://www.w3.org/2000/svg">
<g clip-path="url(#clip0_27_6700)">
<path d="M25 28H18.8175C19.8561 27.0727 20.8355 26.0811 21.75 25.0312C25.1812 21.085 27 16.925 27 13C27 10.0826 25.8411 7.28473 23.7782 5.22183C21.7153 3.15893 18.9174 2 16 2C13.0826 2 10.2847 3.15893 8.22183 5.22183C6.15893 7.28473 5 10.0826 5 13C5 16.925 6.81375 21.085 10.25 25.0312C11.1645 26.0811 12.1439 27.0727 13.1825 28H7C6.73478 28 6.48043 28.1054 6.29289 28.2929C6.10536 28.4804 6 28.7348 6 29C6 29.2652 6.10536 29.5196 6.29289 29.7071C6.48043 29.8946 6.73478 30 7 30H25C25.2652 30 25.5196 29.8946 25.7071 29.7071C25.8946 29.5196 26 29.2652 26 29C26 28.7348 25.8946 28.4804 25.7071 28.2929C25.5196 28.1054 25.2652 28 25 28ZM16 9C16.7911 9 17.5645 9.2346 18.2223 9.67412C18.8801 10.1136 19.3928 10.7384 19.6955 11.4693C19.9983 12.2002 20.0775 13.0044 19.9231 13.7804C19.7688 14.5563 19.3878 15.269 18.8284 15.8284C18.269 16.3878 17.5563 16.7688 16.7804 16.9231C16.0044 17.0775 15.2002 16.9983 14.4693 16.6955C13.7384 16.3928 13.1136 15.8801 12.6741 15.2223C12.2346 14.5645 12 13.7911 12 13C12 11.9391 12.4214 10.9217 13.1716 10.1716C13.9217 9.42143 14.9391 9 16 9Z" fill="white"/>
<path d="M65 27.5H60.0912C60.7387 26.875 61.435 26.1612 62.1325 25.3587C65.6437 21.3212 67.5 17.0462 67.5 13C67.5 9.95001 66.2884 7.02494 64.1317 4.86827C61.9751 2.7116 59.05 1.5 56 1.5C52.95 1.5 50.0249 2.7116 47.8683 4.86827C45.7116 7.02494 44.5 9.95001 44.5 13C44.5 19.25 48.765 24.4925 51.8975 27.5H47C46.6022 27.5 46.2206 27.658 45.9393 27.9393C45.658 28.2206 45.5 28.6022 45.5 29C45.5 29.3978 45.658 29.7794 45.9393 30.0607C46.2206 30.342 46.6022 30.5 47 30.5H65C65.3978 30.5 65.7794 30.342 66.0607 30.0607C66.342 29.7794 66.5 29.3978 66.5 29C66.5 28.6022 66.342 28.2206 66.0607 27.9393C65.7794 27.658 65.3978 27.5 65 27.5ZM47.5 13C47.5 10.7457 48.3955 8.58365 49.9896 6.98959C51.5837 5.39553 53.7457 4.5 56 4.5C58.2543 4.5 60.4163 5.39553 62.0104 6.98959C63.6045 8.58365 64.5 10.7457 64.5 13C64.5 17.1637 62 20.9213 59.9125 23.3388C58.7207 24.7078 57.4115 25.9701 56 27.1112C54.5885 25.9701 53.2793 24.7078 52.0875 23.3388C50 20.9213 47.5 17.1637 47.5 13ZM56 18.5C57.0878 18.5 58.1512 18.1774 59.0556 17.5731C59.9601 16.9687 60.6651 16.1098 61.0813 15.1048C61.4976 14.0998 61.6065 12.9939 61.3943 11.927C61.1821 10.8601 60.6583 9.8801 59.8891 9.11091C59.1199 8.34172 58.1399 7.8179 57.073 7.60568C56.0061 7.39346 54.9002 7.50238 53.8952 7.91866C52.8902 8.33494 52.0313 9.03989 51.4269 9.94436C50.8226 10.8488 50.5 11.9122 50.5 13C50.5017 14.4582 51.0816 15.8562 52.1127 16.8873C53.1438 17.9184 54.5418 18.4983 56 18.5ZM56 10.5C56.4945 10.5 56.9778 10.6466 57.3889 10.9213C57.8 11.196 58.1205 11.5865 58.3097 12.0433C58.4989 12.5001 58.5484 13.0028 58.452 13.4877C58.3555 13.9727 58.1174 14.4181 57.7678 14.7678C57.4181 15.1174 56.9727 15.3555 56.4877 15.452C56.0028 15.5484 55.5001 15.4989 55.0433 15.3097C54.5865 15.1205 54.196 14.8 53.9213 14.3889C53.6466 13.9778 53.5 13.4945 53.5 13C53.5 12.337 53.7634 11.7011 54.2322 11.2322C54.7011 10.7634 55.337 10.5 56 10.5Z" fill="white"/>
</g>
<defs>
<clipPath id="clip0_27_6700">
<rect width="72" height="32" rx="5" fill="white"/>
</clipPath>
</defs>
</svg>
