<svg width="72" height="32" viewBox="0 0 72 32" fill="none" xmlns="http://www.w3.org/2000/svg">
<g clip-path="url(#clip0_27_6690)">
<path d="M16 2C13.0836 2.00331 10.2877 3.1633 8.22548 5.22548C6.1633 7.28766 5.00331 10.0836 5 13C5 22.4125 15 29.5212 15.4263 29.8188C15.5944 29.9365 15.7947 29.9997 16 29.9997C16.2053 29.9997 16.4056 29.9365 16.5737 29.8188C17 29.5212 27 22.4125 27 13C26.9967 10.0836 25.8367 7.28766 23.7745 5.22548C21.7123 3.1633 18.9164 2.00331 16 2ZM16 9C16.7911 9 17.5645 9.2346 18.2223 9.67412C18.8801 10.1136 19.3928 10.7384 19.6955 11.4693C19.9983 12.2002 20.0775 13.0044 19.9231 13.7804C19.7688 14.5563 19.3878 15.269 18.8284 15.8284C18.269 16.3878 17.5563 16.7688 16.7804 16.9231C16.0044 17.0775 15.2002 16.9983 14.4693 16.6955C13.7384 16.3928 13.1136 15.8801 12.6741 15.2223C12.2346 14.5645 12 13.7911 12 13C12 11.9391 12.4214 10.9217 13.1716 10.1716C13.9217 9.42143 14.9391 9 16 9Z" fill="white"/>
<path d="M56 7.5C54.9122 7.5 53.8488 7.82257 52.9444 8.42692C52.0399 9.03126 51.3349 9.89025 50.9187 10.8952C50.5024 11.9002 50.3935 13.0061 50.6057 14.073C50.8179 15.1399 51.3417 16.1199 52.1109 16.8891C52.8801 17.6583 53.8601 18.1821 54.927 18.3943C55.9939 18.6065 57.0998 18.4976 58.1048 18.0813C59.1098 17.6651 59.9687 16.9601 60.5731 16.0556C61.1774 15.1512 61.5 14.0878 61.5 13C61.4983 11.5418 60.9184 10.1438 59.8873 9.11274C58.8562 8.08165 57.4582 7.50165 56 7.5ZM56 15.5C55.5055 15.5 55.0222 15.3534 54.6111 15.0787C54.2 14.804 53.8795 14.4135 53.6903 13.9567C53.5011 13.4999 53.4516 12.9972 53.548 12.5123C53.6445 12.0273 53.8826 11.5819 54.2322 11.2322C54.5819 10.8826 55.0273 10.6445 55.5123 10.548C55.9972 10.4516 56.4999 10.5011 56.9567 10.6903C57.4135 10.8795 57.804 11.2 58.0787 11.6111C58.3534 12.0222 58.5 12.5055 58.5 13C58.5 13.663 58.2366 14.2989 57.7678 14.7678C57.2989 15.2366 56.663 15.5 56 15.5ZM56 1.5C52.951 1.50331 50.0279 2.71597 47.8719 4.87193C45.716 7.02788 44.5033 9.95103 44.5 13C44.5 22.67 54.705 29.925 55.14 30.2288C55.3921 30.4052 55.6923 30.4998 56 30.4998C56.3077 30.4998 56.6079 30.4052 56.86 30.2288C58.7928 28.8043 60.5612 27.1692 62.1325 25.3538C65.6437 21.3213 67.5 17.0462 67.5 13C67.4967 9.95103 66.284 7.02788 64.1281 4.87193C61.9721 2.71597 59.049 1.50331 56 1.5ZM59.9125 23.3388C58.7207 24.7078 57.4115 25.9701 56 27.1112C54.5885 25.9701 53.2793 24.7078 52.0875 23.3388C50 20.9213 47.5 17.1637 47.5 13C47.5 10.7457 48.3955 8.58365 49.9896 6.98959C51.5837 5.39553 53.7457 4.5 56 4.5C58.2543 4.5 60.4163 5.39553 62.0104 6.98959C63.6045 8.58365 64.5 10.7457 64.5 13C64.5 17.1637 62 20.9213 59.9125 23.3388Z" fill="white"/>
</g>
<defs>
<clipPath id="clip0_27_6690">
<rect width="72" height="32" rx="5" fill="white"/>
</clipPath>
</defs>
</svg>
