<svg width="72" height="32" viewBox="0 0 72 32" fill="none" xmlns="http://www.w3.org/2000/svg">
<g clip-path="url(#clip0_27_5368)">
<path d="M16 3C13.4288 3 10.9154 3.76244 8.77759 5.1909C6.63975 6.61935 4.97351 8.64968 3.98957 11.0251C3.00563 13.4006 2.74819 16.0144 3.2498 18.5362C3.75141 21.0579 4.98953 23.3743 6.80762 25.1924C8.6257 27.0105 10.9421 28.2486 13.4638 28.7502C15.9856 29.2518 18.5995 28.9944 20.9749 28.0104C23.3503 27.0265 25.3807 25.3603 26.8091 23.2224C28.2376 21.0846 29 18.5712 29 16C28.9964 12.5533 27.6256 9.24882 25.1884 6.81163C22.7512 4.37445 19.4467 3.00364 16 3ZM21 25.7962C19.4521 26.5874 17.7384 27 16 27C14.2616 27 12.548 26.5874 11 25.7962V22H21V25.7962ZM13 20V18H19V20H13ZM23 24.4788V22C23 21.4696 22.7893 20.9609 22.4142 20.5858C22.0391 20.2107 21.5304 20 21 20V18C20.9994 17.5218 20.8274 17.0596 20.5153 16.6973C20.2032 16.3349 19.7716 16.0964 19.2988 16.025L17.9575 9.5925C17.8633 9.14304 17.6174 8.73968 17.2609 8.45016C16.9045 8.16064 16.4592 8.00261 16 8.00261C15.5408 8.00261 15.0956 8.16064 14.7391 8.45016C14.3826 8.73968 14.1367 9.14304 14.0425 9.5925L12.7013 16.025C12.2284 16.0964 11.7968 16.3349 11.4847 16.6973C11.1726 17.0596 11.0006 17.5218 11 18V20C10.4696 20 9.96087 20.2107 9.58579 20.5858C9.21072 20.9609 9.00001 21.4696 9.00001 22V24.4788C7.25261 23.0372 5.99287 21.0914 5.39287 18.907C4.79288 16.7227 4.88189 14.4063 5.64776 12.2745C6.41362 10.1426 7.81898 8.29917 9.67185 6.996C11.5247 5.69282 13.7347 4.99347 16 4.99347C18.2653 4.99347 20.4753 5.69282 22.3282 6.996C24.181 8.29917 25.5864 10.1426 26.3523 12.2745C27.1181 14.4063 27.2071 16.7227 26.6071 18.907C26.0071 21.0914 24.7474 23.0372 23 24.4788Z" fill="white"/>
<path d="M65.5467 6.44999C63.3372 4.23897 60.4294 2.86253 57.3187 2.55522C54.208 2.24791 51.0871 3.02875 48.4876 4.76467C45.8882 6.5006 43.9711 9.0842 43.0631 12.0752C42.155 15.0662 42.3123 18.2795 43.5079 21.1676C44.7036 24.0557 46.8638 26.4398 49.6203 27.9136C52.3768 29.3875 55.5591 29.8599 58.6249 29.2504C61.6906 28.6409 64.4502 26.9872 66.4334 24.571C68.4165 22.1549 69.5004 19.1258 69.5005 16C69.5004 12.4185 68.0783 8.98348 65.5467 6.44999ZM53.5005 17.5H58.5005V19.5H53.5005V17.5ZM51.5005 25.49V22.5H60.5005V25.4875C59.0935 26.1522 57.5568 26.4971 56.0008 26.4975C54.4447 26.498 52.9078 26.1539 51.5005 25.49ZM63.5005 23.3487V22C63.5006 21.4237 63.3016 20.865 62.9371 20.4185C62.5727 19.9721 62.0652 19.6653 61.5005 19.55V17C61.5 16.4494 61.3179 15.9144 60.9822 15.4779C60.6466 15.0415 60.1762 14.728 59.6442 14.5862L58.4092 10.15C58.2629 9.62354 57.9482 9.15951 57.5132 8.82889C57.0782 8.49827 56.5469 8.31926 56.0005 8.31926C55.4541 8.31926 54.9227 8.49827 54.4877 8.82889C54.0527 9.15951 53.738 9.62354 53.5917 10.15L52.3567 14.5862C51.8247 14.728 51.3544 15.0415 51.0187 15.4779C50.6831 15.9144 50.5009 16.4494 50.5005 17V19.5525C49.9362 19.6677 49.429 19.9741 49.0646 20.4201C48.7002 20.866 48.5009 21.4241 48.5005 22V23.3462C47.0535 21.8694 46.0747 19.9982 45.6869 17.9673C45.299 15.9365 45.5194 13.8363 46.3204 11.9302C47.1213 10.024 48.4672 8.39678 50.1893 7.25249C51.9113 6.10819 53.9329 5.49777 56.0005 5.49777C58.0681 5.49777 60.0896 6.10819 61.8117 7.25249C63.5337 8.39678 64.8796 10.024 65.6806 11.9302C66.4815 13.8363 66.7019 15.9365 66.3141 17.9673C65.9263 19.9982 64.9475 21.8694 63.5005 23.3462V23.3487Z" fill="white"/>
</g>
<defs>
<clipPath id="clip0_27_5368">
<rect width="72" height="32" rx="5" fill="white"/>
</clipPath>
</defs>
</svg>
