<svg width="72" height="32" viewBox="0 0 72 32" fill="none" xmlns="http://www.w3.org/2000/svg">
<g clip-path="url(#clip0_27_3593)">
<path d="M29 6H3C2.46957 6 1.96086 6.21071 1.58579 6.58579C1.21071 6.96086 1 7.46957 1 8V24C1 24.5304 1.21071 25.0391 1.58579 25.4142C1.96086 25.7893 2.46957 26 3 26H29C29.5304 26 30.0391 25.7893 30.4142 25.4142C30.7893 25.0391 31 24.5304 31 24V8C31 7.46957 30.7893 6.96086 30.4142 6.58579C30.0391 6.21071 29.5304 6 29 6ZM16 19C16 19.2652 15.8946 19.5196 15.7071 19.7071C15.5196 19.8946 15.2652 20 15 20C14.7348 20 14.4804 19.8946 14.2929 19.7071C14.1054 19.5196 14 19.2652 14 19V15.4137L11.7075 17.7075C11.6146 17.8005 11.5043 17.8742 11.3829 17.9246C11.2615 17.9749 11.1314 18.0008 11 18.0008C10.8686 18.0008 10.7385 17.9749 10.6171 17.9246C10.4957 17.8742 10.3854 17.8005 10.2925 17.7075L8 15.4137V19C8 19.2652 7.89464 19.5196 7.70711 19.7071C7.51957 19.8946 7.26522 20 7 20C6.73478 20 6.48043 19.8946 6.29289 19.7071C6.10536 19.5196 6 19.2652 6 19V13C5.99984 12.8021 6.05841 12.6086 6.16828 12.444C6.27815 12.2794 6.43439 12.1511 6.61721 12.0754C6.80003 11.9996 7.00122 11.9798 7.19531 12.0185C7.38939 12.0571 7.56764 12.1525 7.7075 12.2925L11 15.5863L14.2925 12.2925C14.4324 12.1525 14.6106 12.0571 14.8047 12.0185C14.9988 11.9798 15.2 11.9996 15.3828 12.0754C15.5656 12.1511 15.7218 12.2794 15.8317 12.444C15.9416 12.6086 16.0002 12.8021 16 13V19ZM25.7075 16.7075L22.7075 19.7075C22.6146 19.8005 22.5043 19.8742 22.3829 19.9246C22.2615 19.9749 22.1314 20.0008 22 20.0008C21.8686 20.0008 21.7385 19.9749 21.6171 19.9246C21.4957 19.8742 21.3854 19.8005 21.2925 19.7075L18.2925 16.7075C18.1049 16.5199 17.9994 16.2654 17.9994 16C17.9994 15.7346 18.1049 15.4801 18.2925 15.2925C18.4801 15.1049 18.7346 14.9994 19 14.9994C19.2654 14.9994 19.5199 15.1049 19.7075 15.2925L21 16.5863V13C21 12.7348 21.1054 12.4804 21.2929 12.2929C21.4804 12.1054 21.7348 12 22 12C22.2652 12 22.5196 12.1054 22.7071 12.2929C22.8946 12.4804 23 12.7348 23 13V16.5863L24.2925 15.2925C24.3854 15.1996 24.4957 15.1259 24.6171 15.0756C24.7385 15.0253 24.8686 14.9994 25 14.9994C25.1314 14.9994 25.2615 15.0253 25.3829 15.0756C25.5043 15.1259 25.6146 15.1996 25.7075 15.2925C25.8004 15.3854 25.8741 15.4957 25.9244 15.6171C25.9747 15.7385 26.0006 15.8686 26.0006 16C26.0006 16.1314 25.9747 16.2615 25.9244 16.3829C25.8741 16.5043 25.8004 16.6146 25.7075 16.7075Z" fill="white"/>
<path d="M69 5.5H43C42.6717 5.5 42.3466 5.56466 42.0433 5.6903C41.74 5.81594 41.4644 6.00009 41.2322 6.23223C40.7634 6.70107 40.5 7.33696 40.5 8V24C40.5 24.663 40.7634 25.2989 41.2322 25.7678C41.4644 25.9999 41.74 26.1841 42.0433 26.3097C42.3466 26.4353 42.6717 26.5 43 26.5H69C69.663 26.5 70.2989 26.2366 70.7678 25.7678C71.2366 25.2989 71.5 24.663 71.5 24V8C71.5 7.33696 71.2366 6.70107 70.7678 6.23223C70.2989 5.76339 69.663 5.5 69 5.5ZM68.5 23.5H43.5V8.5H68.5V23.5ZM46 18.5V13.5C45.9998 13.2032 46.0876 12.9129 46.2524 12.666C46.4172 12.4191 46.6516 12.2267 46.9258 12.1131C47.2 11.9994 47.5018 11.9697 47.793 12.0277C48.0841 12.0857 48.3515 12.2287 48.5612 12.4388L51 14.875L53.4388 12.435C53.6488 12.2248 53.9165 12.0816 54.208 12.0238C54.4994 11.9659 54.8015 11.9959 55.0759 12.11C55.3503 12.2241 55.5846 12.4171 55.7491 12.6646C55.9137 12.9121 56.001 13.2028 56 13.5V18.5C56 18.8978 55.842 19.2794 55.5607 19.5607C55.2794 19.842 54.8978 20 54.5 20C54.1022 20 53.7206 19.842 53.4393 19.5607C53.158 19.2794 53 18.8978 53 18.5V17.125L52.0612 18.065C51.9219 18.2048 51.7563 18.3158 51.574 18.3915C51.3917 18.4672 51.1962 18.5062 50.9987 18.5062C50.8013 18.5062 50.6058 18.4672 50.4235 18.3915C50.2412 18.3158 50.0756 18.2048 49.9362 18.065L49 17.125V18.5C49 18.8978 48.842 19.2794 48.5607 19.5607C48.2794 19.842 47.8978 20 47.5 20C47.1022 20 46.7206 19.842 46.4393 19.5607C46.158 19.2794 46 18.8978 46 18.5ZM58.3288 15.5625C58.4518 15.4087 58.604 15.2806 58.7766 15.1856C58.9492 15.0906 59.1389 15.0305 59.3347 15.0088C59.5305 14.9871 59.7287 15.0042 59.9179 15.0591C60.1072 15.114 60.2837 15.2056 60.4375 15.3287L60.5 15.3787V13.5C60.5 13.1022 60.658 12.7206 60.9393 12.4393C61.2206 12.158 61.6022 12 62 12C62.3978 12 62.7794 12.158 63.0607 12.4393C63.342 12.7206 63.5 13.1022 63.5 13.5V15.375L63.5625 15.325C63.8731 15.0764 64.2698 14.9613 64.6653 15.0051C65.0608 15.049 65.4226 15.2481 65.6712 15.5588C65.9199 15.8694 66.0349 16.2661 65.9911 16.6615C65.9473 17.057 65.7481 17.4189 65.4375 17.6675L62.9375 19.6675C62.6715 19.8805 62.3408 19.9966 62 19.9966C61.6592 19.9966 61.3285 19.8805 61.0625 19.6675L58.5625 17.6675C58.2529 17.419 58.0545 17.0579 58.0106 16.6633C57.9668 16.2687 58.0812 15.8729 58.3288 15.5625Z" fill="white"/>
</g>
<defs>
<clipPath id="clip0_27_3593">
<rect width="72" height="32" rx="5" fill="white"/>
</clipPath>
</defs>
</svg>
