<svg width="72" height="32" viewBox="0 0 72 32" fill="none" xmlns="http://www.w3.org/2000/svg">
<g clip-path="url(#clip0_27_1312)">
<path d="M29.7076 5.7075C29.8476 5.56764 29.9429 5.38939 29.9816 5.19531C30.0202 5.00122 30.0004 4.80003 29.9247 4.61721C29.8489 4.43439 29.7206 4.27815 29.556 4.16828C29.3914 4.05841 29.198 3.99984 29.0001 4H3.00006C2.80216 3.99984 2.60867 4.05841 2.44407 4.16828C2.27948 4.27815 2.15119 4.43439 2.07543 4.61721C1.99968 4.80003 1.97988 5.00122 2.01853 5.19531C2.05718 5.38939 2.15254 5.56764 2.29256 5.7075L15.0001 18.4137V26H11.0001C10.7348 26 10.4805 26.1054 10.2929 26.2929C10.1054 26.4804 10.0001 26.7348 10.0001 27C10.0001 27.2652 10.1054 27.5196 10.2929 27.7071C10.4805 27.8946 10.7348 28 11.0001 28H21.0001C21.2653 28 21.5196 27.8946 21.7072 27.7071C21.8947 27.5196 22.0001 27.2652 22.0001 27C22.0001 26.7348 21.8947 26.4804 21.7072 26.2929C21.5196 26.1054 21.2653 26 21.0001 26H17.0001V18.4137L29.7076 5.7075ZM26.5826 6L24.5826 8H7.41381L5.41381 6H26.5826Z" fill="white"/>
<path d="M70.3862 4.42625C70.2727 4.15204 70.0804 3.91767 69.8336 3.75279C69.5868 3.58791 69.2967 3.49994 68.9999 3.5H42.9999C42.7032 3.50001 42.4131 3.58804 42.1664 3.75294C41.9197 3.91784 41.7275 4.15221 41.614 4.42639C41.5005 4.70058 41.4709 5.00226 41.5289 5.29327C41.587 5.58428 41.73 5.85154 41.9399 6.06125L54.4999 18.625V25.5H50.9999C50.6021 25.5 50.2206 25.658 49.9393 25.9393C49.658 26.2206 49.4999 26.6022 49.4999 27C49.4999 27.3978 49.658 27.7794 49.9393 28.0607C50.2206 28.342 50.6021 28.5 50.9999 28.5H60.9999C61.3978 28.5 61.7793 28.342 62.0606 28.0607C62.3419 27.7794 62.4999 27.3978 62.4999 27C62.4999 26.6022 62.3419 26.2206 62.0606 25.9393C61.7793 25.658 61.3978 25.5 60.9999 25.5H57.4999V18.625L70.0599 6.06125C70.27 5.85157 70.4131 5.58429 70.4711 5.29325C70.5292 5.00221 70.4996 4.70048 70.3862 4.42625ZM65.3749 6.5L63.8749 8H48.1249L46.6249 6.5H65.3749ZM55.9999 15.875L51.1249 11H60.8749L55.9999 15.875Z" fill="white"/>
</g>
<defs>
<clipPath id="clip0_27_1312">
<rect width="72" height="32" rx="5" fill="white"/>
</clipPath>
</defs>
</svg>
