<svg width="72" height="32" viewBox="0 0 72 32" fill="none" xmlns="http://www.w3.org/2000/svg">
<g clip-path="url(#clip0_27_4785)">
<path d="M27.125 4.35001C26.8571 4.16598 26.5482 4.0503 26.2253 4.01304C25.9024 3.97578 25.5753 4.01809 25.2725 4.13626C23.5187 4.81876 19.9775 5.96376 16 5.96376C12.0225 5.96376 8.48 4.81876 6.72375 4.13626C6.42073 4.01863 6.09361 3.97664 5.7707 4.0139C5.44779 4.05117 5.13884 4.16658 4.87058 4.35014C4.60232 4.5337 4.38284 4.77987 4.23115 5.06736C4.07945 5.35484 4.00011 5.67496 4 6.00001V12.9713C4 17.4513 5.20625 21.6775 7.3975 24.8688C9.6675 28.1763 12.7225 29.9938 16 29.9938C19.2775 29.9938 22.3325 28.1725 24.6025 24.8688C26.7938 21.68 28 17.4538 28 12.9738V6.00001C27.9994 5.67455 27.9194 5.35414 27.7669 5.0666C27.6144 4.77907 27.3941 4.53309 27.125 4.35001ZM8.25 15.6663C8.07313 15.4673 7.98253 15.2063 7.99812 14.9406C8.00584 14.809 8.03939 14.6803 8.09688 14.5617C8.15436 14.4431 8.23463 14.337 8.33313 14.2494C8.43162 14.1618 8.54639 14.0945 8.6709 14.0513C8.79541 14.0081 8.92721 13.9898 9.05878 13.9975C9.32449 14.0131 9.57313 14.1336 9.75 14.3325C10.085 14.7075 10.8562 15 11.5 15C12.1438 15 12.92 14.7063 13.25 14.3325C13.3376 14.234 13.4437 14.1537 13.5623 14.0963C13.6809 14.0388 13.8097 14.0052 13.9412 13.9975C14.0728 13.9898 14.2046 14.0081 14.3291 14.0513C14.4536 14.0945 14.5684 14.1618 14.6669 14.2494C14.7654 14.337 14.8456 14.4431 14.9031 14.5617C14.9606 14.6803 14.9942 14.809 15.0019 14.9406C15.0096 15.0722 14.9913 15.204 14.9481 15.3285C14.9049 15.453 14.8376 15.5678 14.75 15.6663C14.0312 16.4638 12.7275 17 11.5 17C10.2725 17 8.96875 16.4638 8.25 15.6663ZM19.8275 23.5538C19.7367 23.6903 19.6138 23.8024 19.4695 23.8802C19.3252 23.958 19.1639 23.9992 19 24C18.8033 24.0003 18.6109 23.942 18.4475 23.8325C17.6337 23.2925 17 23 16 23C15 23 14.3663 23.2925 13.5538 23.8325C13.3329 23.9739 13.0654 24.0229 12.8088 23.969C12.5523 23.915 12.3271 23.7625 12.1819 23.5442C12.0367 23.3259 11.983 23.0593 12.0325 22.8018C12.0819 22.5443 12.2305 22.3165 12.4462 22.1675C13.5 21.4663 14.5075 21 16 21C17.4925 21 18.5 21.4663 19.5537 22.1675C19.7745 22.3144 19.9279 22.543 19.9802 22.8029C20.0324 23.0629 19.9793 23.333 19.8325 23.5538H19.8275ZM23.74 15.6663C23.0262 16.4638 21.7225 17 20.49 17C19.2575 17 17.9587 16.4638 17.24 15.6663C17.0631 15.466 16.9731 15.2037 16.9896 14.9371C17.0061 14.6704 17.1279 14.4213 17.3281 14.2444C17.5284 14.0675 17.7907 13.9774 18.0573 13.994C18.324 14.0105 18.5731 14.1323 18.75 14.3325C19.085 14.7075 19.8562 15 20.5 15C21.1437 15 21.92 14.7063 22.25 14.3325C22.3376 14.234 22.4437 14.1537 22.5623 14.0963C22.6809 14.0388 22.8097 14.0052 22.9412 13.9975C23.0728 13.9898 23.2046 14.0081 23.3291 14.0513C23.4536 14.0945 23.5684 14.1618 23.6669 14.2494C23.7654 14.337 23.8456 14.4431 23.9031 14.5617C23.9606 14.6803 23.9942 14.809 24.0019 14.9406C24.0096 15.0722 23.9913 15.204 23.9481 15.3285C23.9049 15.453 23.8376 15.5678 23.75 15.6663H23.74Z" fill="white"/>
<path d="M67.4112 3.93749C67.0761 3.70825 66.6902 3.5641 66.2868 3.5175C65.8835 3.47089 65.4748 3.52323 65.0963 3.66999C63.375 4.33999 59.8962 5.46249 56 5.46249C52.1038 5.46249 48.625 4.33749 46.9037 3.66999C46.525 3.52314 46.1162 3.47079 45.7126 3.51749C45.3091 3.56418 44.923 3.7085 44.5878 3.93796C44.2526 4.16743 43.9784 4.47512 43.7888 4.83441C43.5993 5.1937 43.5002 5.59376 43.5 5.99999V12.9712C43.5 17.5512 44.7375 21.8775 46.985 25.1525C49.3513 28.6012 52.5525 30.5 56 30.5C59.4475 30.5 62.6488 28.6012 65.015 25.155C67.2625 21.875 68.5 17.5537 68.5 12.9737V5.99999C68.4998 5.5936 68.4006 5.19338 68.2109 4.834C68.0212 4.47461 67.7467 4.16689 67.4112 3.93749ZM65.5 12.9737C65.5 16.9537 64.4487 20.6775 62.5413 23.4575C60.75 26.0637 58.4288 27.5 56 27.5C53.5712 27.5 51.25 26.0637 49.4587 23.4575C47.5512 20.6775 46.5 16.9537 46.5 12.9737V6.72374C48.5738 7.46749 52.0837 8.46624 56 8.46624C59.9163 8.46624 63.4263 7.46624 65.5 6.72374V12.9737ZM59.7975 23.4387C59.6988 23.6092 59.5674 23.7586 59.411 23.8783C59.2545 23.998 59.076 24.0858 58.8856 24.1365C58.6953 24.1872 58.4968 24.1999 58.3015 24.1739C58.1062 24.148 57.918 24.0837 57.7475 23.985C57.2192 23.6667 56.6142 23.4986 55.9975 23.4986C55.3808 23.4986 54.7758 23.6667 54.2475 23.985C54.0768 24.0935 53.8859 24.1664 53.6862 24.1992C53.4866 24.2321 53.2824 24.2242 53.0859 24.176C52.8894 24.1279 52.7047 24.0405 52.5428 23.9192C52.381 23.7978 52.2454 23.6449 52.1441 23.4698C52.0429 23.2946 51.9781 23.1008 51.9537 22.9C51.9293 22.6992 51.9458 22.4955 52.0022 22.3012C52.0586 22.1069 52.1536 21.926 52.2817 21.7694C52.4098 21.6128 52.5682 21.4838 52.7475 21.39C53.732 20.8088 54.8543 20.5022 55.9975 20.5022C57.1407 20.5022 58.263 20.8088 59.2475 21.39C59.5921 21.5887 59.8437 21.9162 59.9468 22.3005C60.0499 22.6847 59.9962 23.0941 59.7975 23.4387ZM57.2362 14.1887C57.3427 14.0229 57.4808 13.8796 57.6427 13.7672C57.8046 13.6547 57.987 13.5753 58.1796 13.5333C58.3722 13.4914 58.5712 13.4879 58.7651 13.5229C58.9591 13.558 59.1442 13.6309 59.31 13.7375C59.6693 13.9558 60.0797 14.0757 60.5 14.085C60.8128 14.0773 61.1213 14.0098 61.4088 13.8862C61.5898 13.8086 61.7844 13.7674 61.9814 13.7649C62.1784 13.7625 62.3739 13.7989 62.5568 13.872C62.7398 13.9451 62.9065 14.0536 63.0475 14.1911C63.1886 14.3287 63.3011 14.4927 63.3787 14.6737C63.4564 14.8548 63.4976 15.0494 63.5001 15.2464C63.5025 15.4434 63.4661 15.6389 63.393 15.8218C63.3199 16.0048 63.2114 16.1715 63.0739 16.3125C62.9363 16.4535 62.7723 16.5661 62.5912 16.6437C61.8058 16.9898 60.9469 17.136 60.0913 17.0693C59.2356 17.0025 58.4097 16.7249 57.6875 16.2612C57.3529 16.0462 57.1173 15.7071 57.0327 15.3184C56.9481 14.9298 57.0213 14.5234 57.2362 14.1887ZM54.3125 16.2612C53.5898 16.7241 52.7636 17.0007 51.9078 17.0661C51.0521 17.1316 50.1935 16.9839 49.4087 16.6362C49.2152 16.5678 49.0377 16.4603 48.8874 16.3204C48.7371 16.1806 48.6171 16.0114 48.5348 15.8232C48.4525 15.6351 48.4097 15.4321 48.4091 15.2268C48.4084 15.0215 48.45 14.8182 48.5311 14.6296C48.6122 14.441 48.7311 14.271 48.8806 14.1302C49.0301 13.9895 49.2068 13.8809 49.4 13.8112C49.5931 13.7415 49.7985 13.7122 50.0034 13.7251C50.2083 13.738 50.4084 13.7929 50.5913 13.8862C50.8787 14.0098 51.1872 14.0773 51.5 14.085C51.9211 14.0757 52.3323 13.9558 52.6925 13.7375C52.8582 13.6308 53.0433 13.5578 53.2372 13.5226C53.4312 13.4874 53.6301 13.4908 53.8228 13.5326C54.0154 13.5743 54.1979 13.6535 54.3599 13.7658C54.5219 13.8781 54.6602 14.0211 54.7669 14.1869C54.8736 14.3526 54.9466 14.5377 54.9818 14.7316C55.0169 14.9255 55.0135 15.1245 54.9718 15.3171C54.9301 15.5097 54.8508 15.6923 54.7386 15.8543C54.6263 16.0162 54.4832 16.1545 54.3175 16.2612H54.3125Z" fill="white"/>
</g>
<defs>
<clipPath id="clip0_27_4785">
<rect width="72" height="32" rx="5" fill="white"/>
</clipPath>
</defs>
</svg>
