<svg width="72" height="32" viewBox="0 0 72 32" fill="none" xmlns="http://www.w3.org/2000/svg">
<g clip-path="url(#clip0_27_4780)">
<path d="M27.125 4.35001C26.8571 4.16598 26.5482 4.0503 26.2253 4.01304C25.9024 3.97578 25.5753 4.01809 25.2725 4.13626C23.5187 4.81876 19.9775 5.96376 16 5.96376C12.0225 5.96376 8.48 4.81876 6.72375 4.13626C6.42073 4.01863 6.09361 3.97664 5.7707 4.0139C5.44779 4.05117 5.13884 4.16658 4.87058 4.35014C4.60232 4.5337 4.38284 4.77987 4.23115 5.06736C4.07945 5.35484 4.00011 5.67496 4 6.00001V12.9713C4 17.4513 5.20625 21.6775 7.3975 24.8688C9.6675 28.1763 12.7225 29.9938 16 29.9938C19.2775 29.9938 22.3325 28.1725 24.6025 24.8688C26.7938 21.68 28 17.4538 28 12.9738V6.00001C27.9994 5.67455 27.9194 5.35414 27.7669 5.0666C27.6144 4.77907 27.3941 4.53309 27.125 4.35001ZM9.75 16.6663C9.57313 16.8652 9.32449 16.9857 9.05878 17.0013C8.79306 17.0169 8.53204 16.9263 8.33313 16.7494C8.13421 16.5725 8.01371 16.3239 7.99812 16.0582C7.98253 15.7924 8.07313 15.5314 8.25 15.3325C8.96875 14.535 10.2725 14 11.5 14C12.7275 14 14.0312 14.535 14.75 15.3325C14.9269 15.5314 15.0175 15.7924 15.0019 16.0582C14.9863 16.3239 14.8658 16.5725 14.6669 16.7494C14.5684 16.837 14.4536 16.9043 14.3291 16.9475C14.2046 16.9907 14.0728 17.009 13.9412 17.0013C13.6755 16.9857 13.4269 16.8652 13.25 16.6663C12.915 16.2913 12.1438 16 11.5 16C10.8562 16 10.08 16.2925 9.75 16.6663ZM21.0613 22.6488C20.4405 23.3852 19.6664 23.9772 18.7931 24.3833C17.9197 24.7895 16.9682 24.9999 16.005 24.9999C15.0418 24.9999 14.0903 24.7895 13.2169 24.3833C12.3436 23.9772 11.5695 23.3852 10.9487 22.6488C10.854 22.5507 10.7804 22.4343 10.7323 22.3067C10.6842 22.1791 10.6627 22.043 10.6692 21.9068C10.6756 21.7706 10.7099 21.6372 10.7698 21.5147C10.8297 21.3922 10.914 21.2833 11.0175 21.1946C11.1211 21.1059 11.2417 21.0393 11.3719 20.9989C11.5021 20.9586 11.6393 20.9452 11.7748 20.9598C11.9104 20.9743 12.0415 21.0165 12.1602 21.0836C12.2789 21.1507 12.3826 21.2414 12.465 21.35C12.8978 21.8667 13.4386 22.2823 14.0494 22.5674C14.6601 22.8525 15.326 23.0003 16 23.0003C16.674 23.0003 17.3399 22.8525 17.9506 22.5674C18.5614 22.2823 19.1022 21.8667 19.535 21.35C19.7072 21.1483 19.9525 21.0232 20.217 21.0024C20.4814 20.9815 20.7433 21.0665 20.945 21.2388C21.1467 21.411 21.2718 21.6563 21.2926 21.9207C21.3135 22.1851 21.2285 22.447 21.0562 22.6488H21.0613ZM23.6675 16.75C23.5696 16.8376 23.4554 16.9051 23.3314 16.9486C23.2074 16.992 23.0761 17.0106 22.9449 17.0033C22.8138 16.996 22.6853 16.9629 22.5669 16.9059C22.4485 16.849 22.3426 16.7692 22.255 16.6713C21.92 16.2963 21.1487 16.005 20.505 16.005C19.8612 16.005 19.085 16.2975 18.755 16.6713C18.6671 16.7701 18.5606 16.8506 18.4416 16.9083C18.3225 16.9659 18.1933 16.9996 18.0613 17.0073C17.9292 17.015 17.797 16.9967 17.672 16.9533C17.5471 16.9099 17.4319 16.8423 17.3331 16.7544C17.2343 16.6665 17.1538 16.56 17.0961 16.4409C17.0385 16.3219 17.0048 16.1927 16.9971 16.0607C16.9894 15.9286 17.0077 15.7964 17.0511 15.6714C17.0945 15.5465 17.1621 15.4313 17.25 15.3325C17.9637 14.535 19.2675 14 20.5 14C21.7325 14 23.0312 14.535 23.75 15.3325C23.8382 15.4308 23.906 15.5455 23.9496 15.6701C23.9932 15.7947 24.0117 15.9267 24.004 16.0584C23.9963 16.1902 23.9626 16.3192 23.9049 16.4379C23.8471 16.5566 23.7665 16.6627 23.6675 16.75Z" fill="white"/>
<path d="M67.4112 3.93749C67.0761 3.70825 66.6902 3.5641 66.2868 3.5175C65.8835 3.47089 65.4748 3.52323 65.0963 3.66999C63.375 4.33999 59.8962 5.46249 56 5.46249C52.1038 5.46249 48.625 4.33749 46.9037 3.66999C46.525 3.52314 46.1162 3.47079 45.7126 3.51749C45.3091 3.56418 44.923 3.7085 44.5878 3.93796C44.2526 4.16743 43.9784 4.47512 43.7888 4.83441C43.5993 5.1937 43.5002 5.59376 43.5 5.99999V12.9712C43.5 17.5512 44.7375 21.8775 46.985 25.1525C49.3513 28.6012 52.5525 30.5 56 30.5C59.4475 30.5 62.6488 28.6012 65.015 25.155C67.2625 21.875 68.5 17.5537 68.5 12.9737V5.99999C68.4998 5.5936 68.4006 5.19338 68.2109 4.834C68.0212 4.47461 67.7467 4.16689 67.4112 3.93749ZM65.5 12.9737C65.5 16.9537 64.4487 20.6775 62.5413 23.4575C60.75 26.0637 58.4288 27.5 56 27.5C53.5712 27.5 51.25 26.0637 49.4587 23.4575C47.5512 20.6775 46.5 16.9537 46.5 12.9737V6.72374C48.5738 7.46749 52.0837 8.46624 56 8.46624C59.9163 8.46624 63.4263 7.46624 65.5 6.72374V12.9737ZM60.6663 20.8337C60.9161 21.1431 61.0329 21.539 60.9909 21.9344C60.9489 22.3299 60.7517 22.6924 60.4425 22.9425C59.1813 23.9506 57.6146 24.4998 56 24.4998C54.3854 24.4998 52.8187 23.9506 51.5575 22.9425C51.251 22.6916 51.0562 22.3296 51.0155 21.9356C50.9749 21.5415 51.0918 21.1474 51.3407 20.8393C51.5896 20.5311 51.9503 20.3339 52.3441 20.2907C52.7379 20.2475 53.1327 20.3619 53.4425 20.6087C54.17 21.1859 55.0714 21.5 56 21.5C56.9286 21.5 57.83 21.1859 58.5575 20.6087C58.867 20.359 59.263 20.2425 59.6585 20.2847C60.0539 20.3269 60.4164 20.5244 60.6663 20.8337ZM57.2362 16.395C57.0213 16.0603 56.9481 15.6539 57.0327 15.2653C57.1173 14.8766 57.3529 14.5375 57.6875 14.3225C58.4101 13.8596 59.2359 13.5825 60.0914 13.5158C60.9469 13.4491 61.8056 13.5948 62.5912 13.94C62.9569 14.0968 63.2453 14.3924 63.393 14.7619C63.5407 15.1313 63.5356 15.5443 63.3787 15.91C63.2219 16.2757 62.9263 16.5641 62.5568 16.7117C62.1874 16.8594 61.7744 16.8543 61.4088 16.6975C61.1213 16.574 60.8128 16.507 60.5 16.5C60.0798 16.5089 59.6694 16.6283 59.31 16.8462C59.1442 16.9529 58.9591 17.0258 58.7651 17.0608C58.5712 17.0958 58.3722 17.0923 58.1796 17.0504C57.987 17.0085 57.8046 16.929 57.6427 16.8166C57.4808 16.7041 57.3427 16.5608 57.2362 16.395ZM51.5 16.5C51.1871 16.5071 50.8785 16.5746 50.5913 16.6987C50.4102 16.7764 50.2156 16.8176 50.0186 16.82C49.8216 16.8225 49.6261 16.7861 49.4432 16.713C49.0737 16.5653 48.7781 16.2769 48.6213 15.9112C48.4644 15.5456 48.4593 15.1326 48.607 14.7631C48.7547 14.3937 49.0431 14.098 49.4087 13.9412C50.1936 13.5944 51.0521 13.4471 51.9077 13.5125C52.7634 13.578 53.5895 13.8541 54.3125 14.3162C54.4782 14.4229 54.6213 14.5612 54.7336 14.7232C54.8458 14.8852 54.9251 15.0677 54.9668 15.2604C55.0085 15.453 55.0119 15.6519 54.9768 15.8459C54.9416 16.0398 54.8686 16.2249 54.7619 16.3906C54.6552 16.5563 54.5169 16.6994 54.3549 16.8117C54.1929 16.9239 54.0104 17.0032 53.8178 17.0449C53.6251 17.0866 53.4262 17.09 53.2322 17.0549C53.0383 17.0197 52.8532 16.9467 52.6875 16.84C52.3281 16.625 51.9187 16.5078 51.5 16.5Z" fill="white"/>
</g>
<defs>
<clipPath id="clip0_27_4780">
<rect width="72" height="32" rx="5" fill="white"/>
</clipPath>
</defs>
</svg>
