<svg width="72" height="32" viewBox="0 0 72 32" fill="none" xmlns="http://www.w3.org/2000/svg">
<g clip-path="url(#clip0_27_199)">
<path d="M23 4H9C7.67392 4 6.40215 4.52678 5.46447 5.46447C4.52678 6.40215 4 7.67392 4 9V24C4 25.3261 4.52678 26.5979 5.46447 27.5355C6.40215 28.4732 7.67392 29 9 29H20C20.2652 29 20.5196 28.8946 20.7071 28.7071C20.8946 28.5196 21 28.2652 21 28C21 27.7348 20.8946 27.4804 20.7071 27.2929C20.5196 27.1054 20.2652 27 20 27H9C8.20435 27 7.44129 26.6839 6.87868 26.1213C6.31607 25.5587 6 24.7956 6 24V23H23C23.6566 23 24.3068 22.8707 24.9134 22.6194C25.52 22.3681 26.0712 21.9998 26.5355 21.5355C26.9998 21.0712 27.3681 20.52 27.6194 19.9134C27.8707 19.3068 28 18.6566 28 18V9C28 7.67392 27.4732 6.40215 26.5355 5.46447C25.5979 4.52678 24.3261 4 23 4ZM23 17C23 17.2652 22.8946 17.5196 22.7071 17.7071C22.5196 17.8946 22.2652 18 22 18C21.7348 18 21.4804 17.8946 21.2929 17.7071C21.1054 17.5196 21 17.2652 21 17V13C21 12.4696 20.7893 11.9609 20.4142 11.5858C20.0391 11.2107 19.5304 11 19 11C18.4696 11 17.9609 11.2107 17.5858 11.5858C17.2107 11.9609 17 12.4696 17 13V17C17 17.2652 16.8946 17.5196 16.7071 17.7071C16.5196 17.8946 16.2652 18 16 18C15.7348 18 15.4804 17.8946 15.2929 17.7071C15.1054 17.5196 15 17.2652 15 17V13C15 12.4696 14.7893 11.9609 14.4142 11.5858C14.0391 11.2107 13.5304 11 13 11C12.4696 11 11.9609 11.2107 11.5858 11.5858C11.2107 11.9609 11 12.4696 11 13V17C11 17.2652 10.8946 17.5196 10.7071 17.7071C10.5196 17.8946 10.2652 18 10 18C9.73478 18 9.48043 17.8946 9.29289 17.7071C9.10536 17.5196 9 17.2652 9 17V13C9.00091 12.1879 9.24899 11.3953 9.71126 10.7276C10.1735 10.0599 10.8281 9.54874 11.5879 9.26205C12.3477 8.97535 13.1768 8.92672 13.9649 9.12262C14.753 9.31852 15.4628 9.74967 16 10.3588C16.5372 9.74967 17.247 9.31852 18.0351 9.12262C18.8232 8.92672 19.6523 8.97535 20.4121 9.26205C21.1719 9.54874 21.8265 10.0599 22.2887 10.7276C22.751 11.3953 22.9991 12.1879 23 13V17Z" fill="white"/>
<path d="M63 3.5H49C47.5418 3.50165 46.1438 4.08165 45.1127 5.11274C44.0816 6.14383 43.5017 7.54182 43.5 9V24C43.5017 25.4582 44.0816 26.8562 45.1127 27.8873C46.1438 28.9184 47.5418 29.4983 49 29.5H60C60.3978 29.5 60.7794 29.342 61.0607 29.0607C61.342 28.7794 61.5 28.3978 61.5 28C61.5 27.6022 61.342 27.2206 61.0607 26.9393C60.7794 26.658 60.3978 26.5 60 26.5H49C48.337 26.5 47.7011 26.2366 47.2322 25.7678C46.7634 25.2989 46.5 24.663 46.5 24V23.5H63C64.4582 23.4983 65.8562 22.9184 66.8873 21.8873C67.9184 20.8562 68.4983 19.4582 68.5 18V9C68.4983 7.54182 67.9184 6.14383 66.8873 5.11274C65.8562 4.08165 64.4582 3.50165 63 3.5ZM65.5 18C65.5 18.3283 65.4353 18.6534 65.3097 18.9567C65.1841 19.26 64.9999 19.5356 64.7678 19.7678C64.5356 19.9999 64.26 20.1841 63.9567 20.3097C63.6534 20.4353 63.3283 20.5 63 20.5H46.5V9C46.5 8.33696 46.7634 7.70107 47.2322 7.23223C47.7011 6.76339 48.337 6.5 49 6.5H63C63.663 6.5 64.2989 6.76339 64.7678 7.23223C65.2366 7.70107 65.5 8.33696 65.5 9V18ZM63.5 13V17C63.5 17.3978 63.342 17.7794 63.0607 18.0607C62.7794 18.342 62.3978 18.5 62 18.5C61.6022 18.5 61.2206 18.342 60.9393 18.0607C60.658 17.7794 60.5 17.3978 60.5 17V13C60.5 12.6022 60.342 12.2206 60.0607 11.9393C59.7794 11.658 59.3978 11.5 59 11.5C58.6022 11.5 58.2206 11.658 57.9393 11.9393C57.658 12.2206 57.5 12.6022 57.5 13V17C57.5 17.3978 57.342 17.7794 57.0607 18.0607C56.7794 18.342 56.3978 18.5 56 18.5C55.6022 18.5 55.2206 18.342 54.9393 18.0607C54.658 17.7794 54.5 17.3978 54.5 17V13C54.5 12.6022 54.342 12.2206 54.0607 11.9393C53.7794 11.658 53.3978 11.5 53 11.5C52.6022 11.5 52.2206 11.658 51.9393 11.9393C51.658 12.2206 51.5 12.6022 51.5 13V17C51.5 17.3978 51.342 17.7794 51.0607 18.0607C50.7794 18.342 50.3978 18.5 50 18.5C49.6022 18.5 49.2206 18.342 48.9393 18.0607C48.658 17.7794 48.5 17.3978 48.5 17V13C48.5008 12.1317 48.7528 11.2821 49.2256 10.5538C49.6985 9.82545 50.3719 9.24948 51.1648 8.89534C51.9576 8.54121 52.836 8.42402 53.6939 8.55793C54.5519 8.69183 55.3528 9.0711 56 9.65C56.6472 9.0711 57.4481 8.69183 58.3061 8.55793C59.164 8.42402 60.0424 8.54121 60.8352 8.89534C61.6281 9.24948 62.3015 9.82545 62.7744 10.5538C63.2472 11.2821 63.4992 12.1317 63.5 13Z" fill="white"/>
</g>
<defs>
<clipPath id="clip0_27_199">
<rect width="72" height="32" rx="5" fill="white"/>
</clipPath>
</defs>
</svg>
