<svg width="72" height="32" viewBox="0 0 72 32" fill="none" xmlns="http://www.w3.org/2000/svg">
<g clip-path="url(#clip0_27_1763)">
<path d="M26 4H6C5.46957 4 4.96086 4.21071 4.58579 4.58579C4.21071 4.96086 4 5.46957 4 6V26C4 26.5304 4.21071 27.0391 4.58579 27.4142C4.96086 27.7893 5.46957 28 6 28H26C26.5304 28 27.0391 27.7893 27.4142 27.4142C27.7893 27.0391 28 26.5304 28 26V6C28 5.46957 27.7893 4.96086 27.4142 4.58579C27.0391 4.21071 26.5304 4 26 4ZM18.2925 9.7075C18.1049 9.51986 17.9994 9.26536 17.9994 9C17.9994 8.73464 18.1049 8.48014 18.2925 8.2925C18.4801 8.10486 18.7346 7.99944 19 7.99944C19.2654 7.99944 19.5199 8.10486 19.7075 8.2925L21 9.58625L22.2925 8.2925C22.4801 8.10486 22.7346 7.99944 23 7.99944C23.2654 7.99944 23.5199 8.10486 23.7075 8.2925C23.8951 8.48014 24.0006 8.73464 24.0006 9C24.0006 9.26536 23.8951 9.51986 23.7075 9.7075L22.4137 11L23.7075 12.2925C23.8004 12.3854 23.8741 12.4957 23.9244 12.6171C23.9747 12.7385 24.0006 12.8686 24.0006 13C24.0006 13.1314 23.9747 13.2615 23.9244 13.3829C23.8741 13.5043 23.8004 13.6146 23.7075 13.7075C23.6146 13.8004 23.5043 13.8741 23.3829 13.9244C23.2615 13.9747 23.1314 14.0006 23 14.0006C22.8686 14.0006 22.7385 13.9747 22.6171 13.9244C22.4957 13.8741 22.3854 13.8004 22.2925 13.7075L21 12.4137L19.7075 13.7075C19.5199 13.8951 19.2654 14.0006 19 14.0006C18.7346 14.0006 18.4801 13.8951 18.2925 13.7075C18.1049 13.5199 17.9994 13.2654 17.9994 13C17.9994 12.7346 18.1049 12.4801 18.2925 12.2925L19.5863 11L18.2925 9.7075ZM14 22H12V24C12 24.2652 11.8946 24.5196 11.7071 24.7071C11.5196 24.8946 11.2652 25 11 25C10.7348 25 10.4804 24.8946 10.2929 24.7071C10.1054 24.5196 10 24.2652 10 24V22H8C7.73478 22 7.48043 21.8946 7.29289 21.7071C7.10536 21.5196 7 21.2652 7 21C7 20.7348 7.10536 20.4804 7.29289 20.2929C7.48043 20.1054 7.73478 20 8 20H10V18C10 17.7348 10.1054 17.4804 10.2929 17.2929C10.4804 17.1054 10.7348 17 11 17C11.2652 17 11.5196 17.1054 11.7071 17.2929C11.8946 17.4804 12 17.7348 12 18V20H14C14.2652 20 14.5196 20.1054 14.7071 20.2929C14.8946 20.4804 15 20.7348 15 21C15 21.2652 14.8946 21.5196 14.7071 21.7071C14.5196 21.8946 14.2652 22 14 22ZM14 12H8C7.73478 12 7.48043 11.8946 7.29289 11.7071C7.10536 11.5196 7 11.2652 7 11C7 10.7348 7.10536 10.4804 7.29289 10.2929C7.48043 10.1054 7.73478 10 8 10H14C14.2652 10 14.5196 10.1054 14.7071 10.2929C14.8946 10.4804 15 10.7348 15 11C15 11.2652 14.8946 11.5196 14.7071 11.7071C14.5196 11.8946 14.2652 12 14 12ZM24 24H18C17.7348 24 17.4804 23.8946 17.2929 23.7071C17.1054 23.5196 17 23.2652 17 23C17 22.7348 17.1054 22.4804 17.2929 22.2929C17.4804 22.1054 17.7348 22 18 22H24C24.2652 22 24.5196 22.1054 24.7071 22.2929C24.8946 22.4804 25 22.7348 25 23C25 23.2652 24.8946 23.5196 24.7071 23.7071C24.5196 23.8946 24.2652 24 24 24ZM24 20H18C17.7348 20 17.4804 19.8946 17.2929 19.7071C17.1054 19.5196 17 19.2652 17 19C17 18.7348 17.1054 18.4804 17.2929 18.2929C17.4804 18.1054 17.7348 18 18 18H24C24.2652 18 24.5196 18.1054 24.7071 18.2929C24.8946 18.4804 25 18.7348 25 19C25 19.2652 24.8946 19.5196 24.7071 19.7071C24.5196 19.8946 24.2652 20 24 20Z" fill="white"/>
<path d="M54.5 9.00001C54.5 9.39783 54.342 9.77936 54.0607 10.0607C53.7794 10.342 53.3978 10.5 53 10.5H45C44.6022 10.5 44.2206 10.342 43.9393 10.0607C43.658 9.77936 43.5 9.39783 43.5 9.00001C43.5 8.60218 43.658 8.22065 43.9393 7.93935C44.2206 7.65804 44.6022 7.50001 45 7.50001H53C53.3978 7.50001 53.7794 7.65804 54.0607 7.93935C54.342 8.22065 54.5 8.60218 54.5 9.00001ZM53 21.5H50.5V19C50.5 18.6022 50.342 18.2207 50.0607 17.9393C49.7794 17.658 49.3978 17.5 49 17.5C48.6022 17.5 48.2206 17.658 47.9393 17.9393C47.658 18.2207 47.5 18.6022 47.5 19V21.5H45C44.6022 21.5 44.2206 21.658 43.9393 21.9393C43.658 22.2207 43.5 22.6022 43.5 23C43.5 23.3978 43.658 23.7794 43.9393 24.0607C44.2206 24.342 44.6022 24.5 45 24.5H47.5V27C47.5 27.3978 47.658 27.7794 47.9393 28.0607C48.2206 28.342 48.6022 28.5 49 28.5C49.3978 28.5 49.7794 28.342 50.0607 28.0607C50.342 27.7794 50.5 27.3978 50.5 27V24.5H53C53.3978 24.5 53.7794 24.342 54.0607 24.0607C54.342 23.7794 54.5 23.3978 54.5 23C54.5 22.6022 54.342 22.2207 54.0607 21.9393C53.7794 21.658 53.3978 21.5 53 21.5ZM59 22H67C67.3978 22 67.7794 21.842 68.0607 21.5607C68.342 21.2794 68.5 20.8978 68.5 20.5C68.5 20.1022 68.342 19.7207 68.0607 19.4393C67.7794 19.158 67.3978 19 67 19H59C58.6022 19 58.2206 19.158 57.9393 19.4393C57.658 19.7207 57.5 20.1022 57.5 20.5C57.5 20.8978 57.658 21.2794 57.9393 21.5607C58.2206 21.842 58.6022 22 59 22ZM67 24H59C58.6022 24 58.2206 24.158 57.9393 24.4393C57.658 24.7207 57.5 25.1022 57.5 25.5C57.5 25.8978 57.658 26.2794 57.9393 26.5607C58.2206 26.842 58.6022 27 59 27H67C67.3978 27 67.7794 26.842 68.0607 26.5607C68.342 26.2794 68.5 25.8978 68.5 25.5C68.5 25.1022 68.342 24.7207 68.0607 24.4393C67.7794 24.158 67.3978 24 67 24ZM58.9387 13.0613C59.0781 13.2011 59.2437 13.3121 59.426 13.3878C59.6083 13.4635 59.8038 13.5024 60.0012 13.5024C60.1987 13.5024 60.3941 13.4635 60.5765 13.3878C60.7588 13.3121 60.9244 13.2011 61.0637 13.0613L63 11.125L64.9387 13.065C65.2205 13.3468 65.6027 13.5051 66.0012 13.5051C66.3998 13.5051 66.782 13.3468 67.0637 13.065C67.3455 12.7832 67.5039 12.401 67.5039 12.0025C67.5039 11.604 67.3455 11.2218 67.0637 10.94L65.125 9.00001L67.065 7.06126C67.3468 6.77946 67.5051 6.39727 67.5051 5.99876C67.5051 5.60024 67.3468 5.21805 67.065 4.93626C66.7832 4.65446 66.401 4.49615 66.0025 4.49615C65.604 4.49615 65.2218 4.65446 64.94 4.93626L63 6.87501L61.0613 4.93876C60.7795 4.65696 60.3973 4.49865 59.9988 4.49865C59.6002 4.49865 59.218 4.65696 58.9363 4.93876C58.6545 5.22055 58.4961 5.60274 58.4961 6.00126C58.4961 6.39977 58.6545 6.78196 58.9363 7.06376L60.875 9.00001L58.9387 10.9388C58.7993 11.0781 58.6886 11.2435 58.6132 11.4256C58.5377 11.6077 58.4988 11.8029 58.4988 12C58.4988 12.1971 58.5377 12.3923 58.6132 12.5744C58.6886 12.7565 58.7993 12.9219 58.9387 13.0613Z" fill="white"/>
</g>
<defs>
<clipPath id="clip0_27_1763">
<rect width="72" height="32" rx="5" fill="white"/>
</clipPath>
</defs>
</svg>
