<svg width="72" height="32" viewBox="0 0 72 32" fill="none" xmlns="http://www.w3.org/2000/svg">
<g clip-path="url(#clip0_27_590)">
<path d="M26 4H6C5.46957 4 4.96086 4.21071 4.58579 4.58579C4.21071 4.96086 4 5.46957 4 6V26C4 26.5304 4.21071 27.0391 4.58579 27.4142C4.96086 27.7893 5.46957 28 6 28H26C26.5304 28 27.0391 27.7893 27.4142 27.4142C27.7893 27.0391 28 26.5304 28 26V6C28 5.46957 27.7893 4.96086 27.4142 4.58579C27.0391 4.21071 26.5304 4 26 4ZM10 25H8C7.73478 25 7.48043 24.8946 7.29289 24.7071C7.10536 24.5196 7 24.2652 7 24V8C7 7.73478 7.10536 7.48043 7.29289 7.29289C7.48043 7.10536 7.73478 7 8 7H10C10.2652 7 10.5196 7.10536 10.7071 7.29289C10.8946 7.48043 11 7.73478 11 8C11 8.26522 10.8946 8.51957 10.7071 8.70711C10.5196 8.89464 10.2652 9 10 9H9V23H10C10.2652 23 10.5196 23.1054 10.7071 23.2929C10.8946 23.4804 11 23.7348 11 24C11 24.2652 10.8946 24.5196 10.7071 24.7071C10.5196 24.8946 10.2652 25 10 25ZM20 20C19.7348 20 19.4804 19.8946 19.2929 19.7071C19.1054 19.5196 19 19.2652 19 19V15C19 14.7348 18.8946 14.4804 18.7071 14.2929C18.5196 14.1054 18.2652 14 18 14C17.7348 14 17.4804 14.1054 17.2929 14.2929C17.1054 14.4804 17 14.7348 17 15V19C17 19.2652 16.8946 19.5196 16.7071 19.7071C16.5196 19.8946 16.2652 20 16 20C15.7348 20 15.4804 19.8946 15.2929 19.7071C15.1054 19.5196 15 19.2652 15 19V15C15 14.7348 14.8946 14.4804 14.7071 14.2929C14.5196 14.1054 14.2652 14 14 14C13.7348 14 13.4804 14.1054 13.2929 14.2929C13.1054 14.4804 13 14.7348 13 15V19C13 19.2652 12.8946 19.5196 12.7071 19.7071C12.5196 19.8946 12.2652 20 12 20C11.7348 20 11.4804 19.8946 11.2929 19.7071C11.1054 19.5196 11 19.2652 11 19V13C11.0001 12.8022 11.0588 12.6089 11.1688 12.4445C11.2788 12.2801 11.435 12.152 11.6178 12.0764C11.8006 12.0008 12.0016 11.9811 12.1956 12.0198C12.3896 12.0585 12.5677 12.1538 12.7075 12.2937C13.2415 12.0379 13.8394 11.9463 14.4254 12.0304C15.0115 12.1145 15.5595 12.3706 16 12.7662C16.4315 12.3803 16.9655 12.1274 17.5375 12.0382C18.1095 11.9489 18.6951 12.0271 19.2237 12.2632C19.7523 12.4994 20.2012 12.8834 20.5164 13.369C20.8316 13.8546 20.9996 14.4211 21 15V19C21 19.2652 20.8946 19.5196 20.7071 19.7071C20.5196 19.8946 20.2652 20 20 20ZM25 24C25 24.2652 24.8946 24.5196 24.7071 24.7071C24.5196 24.8946 24.2652 25 24 25H22C21.7348 25 21.4804 24.8946 21.2929 24.7071C21.1054 24.5196 21 24.2652 21 24C21 23.7348 21.1054 23.4804 21.2929 23.2929C21.4804 23.1054 21.7348 23 22 23H23V9H22C21.7348 9 21.4804 8.89464 21.2929 8.70711C21.1054 8.51957 21 8.26522 21 8C21 7.73478 21.1054 7.48043 21.2929 7.29289C21.4804 7.10536 21.7348 7 22 7H24C24.2652 7 24.5196 7.10536 24.7071 7.29289C24.8946 7.48043 25 7.73478 25 8V24Z" fill="white"/>
<path d="M49.5 27C49.5 27.3978 49.342 27.7794 49.0607 28.0607C48.7794 28.342 48.3978 28.5 48 28.5H45C44.6022 28.5 44.2206 28.342 43.9393 28.0607C43.658 27.7794 43.5 27.3978 43.5 27V5C43.5 4.60218 43.658 4.22064 43.9393 3.93934C44.2206 3.65804 44.6022 3.5 45 3.5H48C48.3978 3.5 48.7794 3.65804 49.0607 3.93934C49.342 4.22064 49.5 4.60218 49.5 5C49.5 5.39782 49.342 5.77936 49.0607 6.06066C48.7794 6.34196 48.3978 6.5 48 6.5H46.5V25.5H48C48.3978 25.5 48.7794 25.658 49.0607 25.9393C49.342 26.2206 49.5 26.6022 49.5 27ZM67 3.5H64C63.6022 3.5 63.2206 3.65804 62.9393 3.93934C62.658 4.22064 62.5 4.60218 62.5 5C62.5 5.39782 62.658 5.77936 62.9393 6.06066C63.2206 6.34196 63.6022 6.5 64 6.5H65.5V25.5H64C63.6022 25.5 63.2206 25.658 62.9393 25.9393C62.658 26.2206 62.5 26.6022 62.5 27C62.5 27.3978 62.658 27.7794 62.9393 28.0607C63.2206 28.342 63.6022 28.5 64 28.5H67C67.3978 28.5 67.7794 28.342 68.0607 28.0607C68.342 27.7794 68.5 27.3978 68.5 27V5C68.5 4.60218 68.342 4.22064 68.0607 3.93934C67.7794 3.65804 67.3978 3.5 67 3.5ZM63.5 20V15C63.4992 14.1317 63.2472 13.2821 62.7744 12.5538C62.3015 11.8254 61.6281 11.2495 60.8352 10.8953C60.0424 10.5412 59.164 10.424 58.3061 10.5579C57.4481 10.6918 56.6472 11.0711 56 11.65C55.3394 11.0563 54.5175 10.672 53.6384 10.5456C52.7592 10.4192 51.8623 10.5565 51.0612 10.94C50.8515 10.7301 50.5843 10.587 50.2933 10.529C50.0023 10.471 49.7006 10.5006 49.4264 10.6141C49.1522 10.7276 48.9178 10.9198 48.7529 11.1665C48.588 11.4132 48.5 11.7033 48.5 12V20C48.5 20.3978 48.658 20.7794 48.9393 21.0607C49.2206 21.342 49.6022 21.5 50 21.5C50.3978 21.5 50.7794 21.342 51.0607 21.0607C51.342 20.7794 51.5 20.3978 51.5 20V15C51.5 14.6022 51.658 14.2206 51.9393 13.9393C52.2206 13.658 52.6022 13.5 53 13.5C53.3978 13.5 53.7794 13.658 54.0607 13.9393C54.342 14.2206 54.5 14.6022 54.5 15V20C54.5 20.3978 54.658 20.7794 54.9393 21.0607C55.2206 21.342 55.6022 21.5 56 21.5C56.3978 21.5 56.7794 21.342 57.0607 21.0607C57.342 20.7794 57.5 20.3978 57.5 20V15C57.5 14.6022 57.658 14.2206 57.9393 13.9393C58.2206 13.658 58.6022 13.5 59 13.5C59.3978 13.5 59.7794 13.658 60.0607 13.9393C60.342 14.2206 60.5 14.6022 60.5 15V20C60.5 20.3978 60.658 20.7794 60.9393 21.0607C61.2206 21.342 61.6022 21.5 62 21.5C62.3978 21.5 62.7794 21.342 63.0607 21.0607C63.342 20.7794 63.5 20.3978 63.5 20Z" fill="white"/>
</g>
<defs>
<clipPath id="clip0_27_590">
<rect width="72" height="32" rx="5" fill="white"/>
</clipPath>
</defs>
</svg>
