<svg width="72" height="32" viewBox="0 0 72 32" fill="none" xmlns="http://www.w3.org/2000/svg">
<g clip-path="url(#clip0_27_4795)">
<path d="M25.875 5H6.125C5.56141 5 5.02091 5.22388 4.6224 5.6224C4.22388 6.02091 4 6.56141 4 7.125V13.2762C4.00053 13.6846 4.1187 14.0842 4.34039 14.4271C4.56207 14.77 4.87787 15.0419 5.25 15.21L13.075 18.7663C11.9164 19.4146 11.0055 20.429 10.4851 21.6504C9.9647 22.8719 9.86413 24.2314 10.1992 25.5162C10.5342 26.8009 11.2859 27.9383 12.3365 28.75C13.3871 29.5618 14.6773 30.0022 16.005 30.0022C17.3327 30.0022 18.6229 29.5618 19.6735 28.75C20.7241 27.9383 21.4758 26.8009 21.8108 25.5162C22.1459 24.2314 22.0453 22.8719 21.5249 21.6504C21.0045 20.429 20.0936 19.4146 18.935 18.7663L26.75 15.21C27.1221 15.0419 27.4379 14.77 27.6596 14.4271C27.8813 14.0842 27.9995 13.6846 28 13.2762V7.125C28 6.56141 27.7761 6.02091 27.3776 5.6224C26.9791 5.22388 26.4386 5 25.875 5ZM12 7H20V16.0837L16 17.9013L12 16.0837V7ZM16 28C15.2089 28 14.4355 27.7654 13.7777 27.3259C13.1199 26.8864 12.6072 26.2616 12.3045 25.5307C12.0017 24.7998 11.9225 23.9956 12.0769 23.2196C12.2312 22.4437 12.6122 21.731 13.1716 21.1716C13.731 20.6122 14.4437 20.2312 15.2196 20.0769C15.9956 19.9225 16.7998 20.0017 17.5307 20.3045C18.2616 20.6072 18.8864 21.1199 19.3259 21.7777C19.7654 22.4355 20 23.2089 20 24C20 25.0609 19.5786 26.0783 18.8284 26.8284C18.0783 27.5786 17.0609 28 16 28Z" fill="white"/>
<path d="M65.875 4.5H46.125C45.4288 4.5 44.7611 4.77656 44.2688 5.26884C43.7766 5.76113 43.5 6.42881 43.5 7.125V13.2762C43.5002 13.7801 43.6454 14.2733 43.9182 14.6968C44.1911 15.1204 44.5801 15.4565 45.0388 15.665L52.0387 18.8487C50.9614 19.6756 50.1701 20.8191 49.776 22.1188C49.3819 23.4184 49.4047 24.8088 49.8413 26.0948C50.2779 27.3808 51.1064 28.4977 52.2103 29.2887C53.3142 30.0797 54.6382 30.5051 55.9963 30.5051C57.3543 30.5051 58.6783 30.0797 59.7822 29.2887C60.8861 28.4977 61.7146 27.3808 62.1512 26.0948C62.5878 24.8088 62.6106 23.4184 62.2165 22.1188C61.8224 20.8191 61.0311 19.6756 59.9538 18.8487L66.9538 15.665C67.4138 15.4576 67.8044 15.122 68.0786 14.6983C68.3529 14.2747 68.4992 13.7809 68.5 13.2762V7.125C68.5 6.42881 68.2234 5.76113 67.7312 5.26884C67.2389 4.77656 66.5712 4.5 65.875 4.5ZM56 17.3525L52.5 15.7612V7.5H59.5V15.7612L56 17.3525ZM46.5 7.5H49.5V14.3975L46.5 13.0337V7.5ZM56 27.5C55.3078 27.5 54.6311 27.2947 54.0555 26.9101C53.4799 26.5256 53.0313 25.9789 52.7664 25.3394C52.5015 24.6999 52.4322 23.9961 52.5673 23.3172C52.7023 22.6383 53.0356 22.0146 53.5251 21.5251C54.0146 21.0356 54.6383 20.7023 55.3172 20.5673C55.9961 20.4322 56.6999 20.5015 57.3394 20.7664C57.9789 21.0313 58.5256 21.4799 58.9101 22.0555C59.2947 22.6311 59.5 23.3078 59.5 24C59.5 24.9283 59.1313 25.8185 58.4749 26.4749C57.8185 27.1313 56.9283 27.5 56 27.5ZM65.5 13.0337L62.5 14.3975V7.5H65.5V13.0337Z" fill="white"/>
</g>
<defs>
<clipPath id="clip0_27_4795">
<rect width="72" height="32" rx="5" fill="white"/>
</clipPath>
</defs>
</svg>
