<svg width="72" height="32" viewBox="0 0 72 32" fill="none" xmlns="http://www.w3.org/2000/svg">
<g clip-path="url(#clip0_27_4790)">
<path d="M27 12C27.0011 10.1463 26.5337 8.32229 25.6412 6.69753C24.7487 5.07277 23.4601 3.69991 21.895 2.70646C20.33 1.71302 18.5392 1.13121 16.6891 1.01508C14.839 0.898948 12.9896 1.25226 11.3125 2.0422C9.63553 2.83215 8.18535 4.0331 7.0967 5.5335C6.00805 7.03391 5.31624 8.78511 5.08553 10.6244C4.85482 12.4638 5.09268 14.3316 5.77704 16.0544C6.4614 17.7772 7.57004 19.2991 9 20.4788V30C8.99988 30.1705 9.04338 30.3383 9.12636 30.4873C9.20934 30.6363 9.32905 30.7616 9.4741 30.8513C9.61916 30.941 9.78474 30.9921 9.95511 30.9997C10.1255 31.0074 10.295 30.9713 10.4475 30.895L16 28.125L21.5538 30.9013C21.693 30.9679 21.8457 31.0017 22 31C22.2652 31 22.5196 30.8946 22.7071 30.7071C22.8946 30.5196 23 30.2652 23 30V20.4788C24.2512 19.4483 25.2587 18.1536 25.9503 16.6877C26.6419 15.2217 27.0003 13.6209 27 12ZM7 12C7 10.22 7.52784 8.47991 8.51677 6.99987C9.50571 5.51983 10.9113 4.36627 12.5559 3.68509C14.2004 3.0039 16.01 2.82567 17.7558 3.17293C19.5016 3.5202 21.1053 4.37737 22.364 5.63604C23.6226 6.89471 24.4798 8.49836 24.8271 10.2442C25.1743 11.99 24.9961 13.7996 24.3149 15.4442C23.6337 17.0887 22.4802 18.4943 21.0001 19.4832C19.5201 20.4722 17.78 21 16 21C13.6139 20.9974 11.3262 20.0483 9.63896 18.361C7.95171 16.6738 7.00265 14.3861 7 12ZM9 12C9 10.6155 9.41054 9.26215 10.1797 8.11101C10.9489 6.95987 12.0421 6.06266 13.3212 5.53284C14.6003 5.00303 16.0078 4.86441 17.3656 5.1345C18.7235 5.4046 19.9708 6.07129 20.9497 7.05025C21.9287 8.02922 22.5954 9.2765 22.8655 10.6344C23.1356 11.9922 22.997 13.3997 22.4672 14.6788C21.9373 15.9579 21.0401 17.0511 19.889 17.8203C18.7378 18.5895 17.3845 19 16 19C14.1441 18.998 12.3648 18.2599 11.0524 16.9476C9.74012 15.6352 9.00199 13.8559 9 12Z" fill="white"/>
<path d="M67.5 12C67.5011 10.0721 67.0175 8.17478 66.0936 6.48263C65.1697 4.79047 63.8353 3.35774 62.2129 2.31616C60.5906 1.27459 58.7324 0.657609 56.8092 0.521947C54.8861 0.386286 52.9597 0.736299 51.2071 1.5398C49.4546 2.34331 47.9322 3.57452 46.78 5.12022C45.6277 6.66592 44.8825 8.47651 44.613 10.3855C44.3434 12.2945 44.5581 14.2406 45.2373 16.045C45.9165 17.8493 47.0385 19.4539 48.5 20.7112V30C48.5 30.2557 48.5654 30.5072 48.69 30.7305C48.8146 30.9538 48.9941 31.1416 49.2117 31.276C49.4292 31.4103 49.6775 31.4869 49.933 31.4983C50.1884 31.5097 50.4426 31.4557 50.6713 31.3412L56 28.6775L61.33 31.3412C61.5586 31.4554 61.8126 31.5092 62.0679 31.4977C62.3232 31.4861 62.5713 31.4095 62.7886 31.2751C63.006 31.1408 63.1855 30.9531 63.31 30.73C63.4344 30.5068 63.4999 30.2555 63.5 30V20.7112C64.755 19.6331 65.7621 18.2965 66.4525 16.793C67.1429 15.2894 67.5002 13.6545 67.5 12ZM47.5 12C47.5 10.3188 47.9985 8.67546 48.9325 7.27764C49.8665 5.87982 51.194 4.79036 52.7472 4.14701C54.3004 3.50367 56.0094 3.33534 57.6583 3.66331C59.3071 3.99129 60.8217 4.80083 62.0104 5.98958C63.1992 7.17833 64.0087 8.69288 64.3367 10.3417C64.6646 11.9906 64.4963 13.6996 63.853 15.2528C63.2096 16.806 62.1202 18.1335 60.7223 19.0675C59.3245 20.0015 57.6811 20.5 56 20.5C53.7464 20.4977 51.5857 19.6014 49.9922 18.0078C48.3986 16.4143 47.5023 14.2536 47.5 12ZM60.5 27.5737L56.67 25.6587C56.4616 25.5545 56.2318 25.5002 55.9988 25.5002C55.7657 25.5002 55.5359 25.5545 55.3275 25.6587L51.5 27.5725V22.5825C52.9231 23.1876 54.4536 23.4995 56 23.4995C57.5464 23.4995 59.0769 23.1876 60.5 22.5825V27.5737ZM56 18.5C57.2856 18.5 58.5423 18.1188 59.6112 17.4045C60.6801 16.6903 61.5132 15.6751 62.0052 14.4874C62.4972 13.2997 62.6259 11.9928 62.3751 10.7319C62.1243 9.47102 61.5052 8.31283 60.5962 7.40379C59.6872 6.49475 58.529 5.87569 57.2681 5.62488C56.0072 5.37408 54.7003 5.5028 53.5126 5.99477C52.3248 6.48674 51.3097 7.31986 50.5954 8.38878C49.8812 9.4577 49.5 10.7144 49.5 12C49.502 13.7233 50.1874 15.3754 51.406 16.594C52.6246 17.8125 54.2767 18.498 56 18.5ZM56 8.49999C56.6922 8.49999 57.3689 8.70526 57.9445 9.08984C58.5201 9.47443 58.9687 10.0211 59.2336 10.6606C59.4985 11.3001 59.5678 12.0039 59.4327 12.6828C59.2977 13.3617 58.9644 13.9854 58.4749 14.4749C57.9854 14.9643 57.3617 15.2977 56.6828 15.4327C56.0039 15.5678 55.3002 15.4985 54.6606 15.2336C54.0211 14.9687 53.4744 14.5201 53.0899 13.9445C52.7053 13.3689 52.5 12.6922 52.5 12C52.5 11.0717 52.8687 10.1815 53.5251 9.52511C54.1815 8.86874 55.0717 8.49999 56 8.49999Z" fill="white"/>
</g>
<defs>
<clipPath id="clip0_27_4790">
<rect width="72" height="32" rx="5" fill="white"/>
</clipPath>
</defs>
</svg>
