<svg width="72" height="32" viewBox="0 0 72 32" fill="none" xmlns="http://www.w3.org/2000/svg">
<g clip-path="url(#clip0_27_204)">
<path d="M17 16C17 17.5823 16.5308 19.129 15.6518 20.4446C14.7727 21.7602 13.5233 22.7855 12.0615 23.391C10.5997 23.9965 8.99113 24.155 7.43928 23.8463C5.88743 23.5376 4.46197 22.7757 3.34315 21.6569C2.22433 20.538 1.4624 19.1126 1.15372 17.5607C0.84504 16.0089 1.00347 14.4003 1.60897 12.9385C2.21447 11.4767 3.23985 10.2273 4.55544 9.34824C5.87103 8.46919 7.41775 8 9 8C11.121 8.00232 13.1545 8.84591 14.6543 10.3457C16.1541 11.8455 16.9977 13.879 17 16ZM23 8C22.29 8 20.95 8.345 19.96 10.6562C19.3413 12.1 19 14 19 16C19 18 19.3413 19.9 19.96 21.3438C20.95 23.655 22.29 24 23 24C23.71 24 25.05 23.655 26.04 21.3438C26.6588 19.9 27 18 27 16C27 14 26.6588 12.1 26.04 10.6562C25.05 8.345 23.71 8 23 8ZM30 8C29.7348 8 29.4804 8.10536 29.2929 8.29289C29.1054 8.48043 29 8.73478 29 9V23C29 23.2652 29.1054 23.5196 29.2929 23.7071C29.4804 23.8946 29.7348 24 30 24C30.2652 24 30.5196 23.8946 30.7071 23.7071C30.8946 23.5196 31 23.2652 31 23V9C31 8.73478 30.8946 8.48043 30.7071 8.29289C30.5196 8.10536 30.2652 8 30 8Z" fill="white"/>
<path d="M48.5 7.5C46.8189 7.5 45.1755 7.99852 43.7777 8.93251C42.3798 9.8665 41.2904 11.194 40.647 12.7472C40.0037 14.3004 39.8354 16.0094 40.1633 17.6583C40.4913 19.3071 41.3008 20.8217 42.4896 22.0104C43.6783 23.1992 45.1929 24.0087 46.8417 24.3367C48.4906 24.6646 50.1996 24.4963 51.7528 23.853C53.306 23.2096 54.6335 22.1202 55.5675 20.7223C56.5015 19.3245 57 17.6811 57 16C56.9977 13.7464 56.1014 11.5857 54.5079 9.99215C52.9143 8.39859 50.7536 7.50232 48.5 7.5ZM48.5 21.5C47.4122 21.5 46.3488 21.1774 45.4444 20.5731C44.5399 19.9687 43.8349 19.1098 43.4187 18.1048C43.0024 17.0998 42.8935 15.9939 43.1057 14.927C43.3179 13.8601 43.8417 12.8801 44.6109 12.1109C45.3801 11.3417 46.3601 10.8179 47.427 10.6057C48.4939 10.3935 49.5998 10.5024 50.6048 10.9187C51.6098 11.3349 52.4687 12.0399 53.0731 12.9444C53.6774 13.8488 54 14.9122 54 16C53.9983 17.4582 53.4184 18.8562 52.3873 19.8873C51.3562 20.9184 49.9582 21.4983 48.5 21.5ZM63 7.5C60.0463 7.5 58.5 11.7762 58.5 16C58.5 20.2238 60.0463 24.5 63 24.5C65.9538 24.5 67.5 20.2238 67.5 16C67.5 11.7762 65.9538 7.5 63 7.5ZM63 21.4837C62.5325 21.2137 61.5 19.3475 61.5 16C61.5 12.6525 62.5325 10.7862 63 10.5162C63.4675 10.7862 64.5 12.6525 64.5 16C64.5 19.3475 63.4675 21.2137 63 21.4837ZM72 9V23C72 23.3978 71.842 23.7794 71.5607 24.0607C71.2794 24.342 70.8978 24.5 70.5 24.5C70.1022 24.5 69.7206 24.342 69.4393 24.0607C69.158 23.7794 69 23.3978 69 23V9C69 8.60218 69.158 8.22064 69.4393 7.93934C69.7206 7.65804 70.1022 7.5 70.5 7.5C70.8978 7.5 71.2794 7.65804 71.5607 7.93934C71.842 8.22064 72 8.60218 72 9Z" fill="white"/>
</g>
<defs>
<clipPath id="clip0_27_204">
<rect width="72" height="32" rx="5" fill="white"/>
</clipPath>
</defs>
</svg>
