<svg width="72" height="32" viewBox="0 0 72 32" fill="none" xmlns="http://www.w3.org/2000/svg">
<g clip-path="url(#clip0_27_595)">
<path d="M25 9.00001H20.025C19.6612 8.97876 13.3225 8.53251 7.28625 3.47001C6.99476 3.2252 6.63946 3.06866 6.26208 3.01877C5.88471 2.96889 5.50094 3.02774 5.15585 3.1884C4.81076 3.34907 4.51869 3.60488 4.31395 3.92578C4.1092 4.24668 4.00029 4.61935 4 5.00001V25C4.00005 25.3808 4.10879 25.7536 4.31345 26.0747C4.5181 26.3958 4.81015 26.6518 5.15529 26.8126C5.50042 26.9734 5.88429 27.0324 6.26178 26.9825C6.63926 26.9327 6.99468 26.7761 7.28625 26.5313C12.0075 22.5713 16.9113 21.4363 19 21.1188V25.0838C18.9996 25.4133 19.0806 25.7379 19.2359 26.0286C19.3912 26.3193 19.6159 26.5671 19.89 26.75L21.265 27.6663C21.5308 27.8436 21.8352 27.9548 22.1527 27.9903C22.4703 28.0259 22.7917 27.9849 23.0901 27.8706C23.3885 27.7564 23.6553 27.5724 23.8679 27.3339C24.0806 27.0955 24.2331 26.8095 24.3125 26.5L25.7838 20.955C27.3047 20.7682 28.6965 20.0065 29.6737 18.8261C30.6509 17.6458 31.1395 16.1363 31.0393 14.6073C30.939 13.0782 30.2575 11.6454 29.1346 10.6028C28.0116 9.56016 26.5323 8.98669 25 9.00001ZM22.375 25.9863V26L21 25.0838V21H23.7L22.375 25.9863ZM25 19H21V11H25C26.0609 11 27.0783 11.4214 27.8284 12.1716C28.5786 12.9217 29 13.9391 29 15C29 16.0609 28.5786 17.0783 27.8284 17.8284C27.0783 18.5786 26.0609 19 25 19Z" fill="white"/>
<path d="M71.5 15C71.4981 13.2767 70.8126 11.6246 69.5941 10.406C68.3755 9.18745 66.7233 8.50199 65 8.5H60.0401C59.6101 8.47375 53.465 8 47.6075 3.0875C47.2432 2.78159 46.7991 2.58599 46.3274 2.52369C45.8558 2.4614 45.3761 2.53498 44.9448 2.73579C44.5135 2.93661 44.1485 3.25633 43.8925 3.6574C43.6366 4.05847 43.5005 4.52424 43.5 5V25C43.497 25.4763 43.6315 25.9434 43.8874 26.3451C44.1433 26.7469 44.5096 27.0663 44.9425 27.265C45.3736 27.4685 45.8541 27.5436 46.3267 27.4813C46.7993 27.419 47.2439 27.222 47.6075 26.9138C50.6057 24.3933 54.1727 22.6412 58 21.8088V25.0838C58 25.4952 58.1015 25.9004 58.2956 26.2632C58.4896 26.6261 58.7703 26.9354 59.1125 27.1638C59.168 27.2011 59.2261 27.2346 59.2863 27.2638L61.0913 28.1463C61.4249 28.346 61.8005 28.4651 62.1883 28.4942C62.576 28.5233 62.9652 28.4616 63.3249 28.3139C63.6846 28.1662 64.0049 27.9366 64.2603 27.6434C64.5158 27.3503 64.6993 27.0015 64.7963 26.625L66.1826 21.3975C67.6762 21.1194 69.0256 20.3276 69.9967 19.1591C70.9679 17.9907 71.4997 16.5193 71.5 15ZM46.5 23.9538V6.05C51.0213 9.55875 55.5213 10.8125 58 11.2575V18.75C55.5213 19.19 51.0213 20.4438 46.5 23.9538ZM62.0488 25.275L61 24.7625V21.5H63.05L62.0488 25.275ZM65 18.5H61V11.5H65C65.9283 11.5 66.8185 11.8688 67.4749 12.5251C68.1313 13.1815 68.5 14.0717 68.5 15C68.5 15.9283 68.1313 16.8185 67.4749 17.4749C66.8185 18.1313 65.9283 18.5 65 18.5Z" fill="white"/>
</g>
<defs>
<clipPath id="clip0_27_595">
<rect width="72" height="32" rx="5" fill="white"/>
</clipPath>
</defs>
</svg>
