<svg width="72" height="32" viewBox="0 0 72 32" fill="none" xmlns="http://www.w3.org/2000/svg">
<g clip-path="url(#clip0_27_600)">
<path d="M28.5675 10.8325L6.56 4.0825C6.26213 3.99562 5.94814 3.97924 5.64284 4.03465C5.33755 4.09006 5.04934 4.21574 4.801 4.40175C4.55266 4.58776 4.351 4.82901 4.21198 5.1064C4.07296 5.38379 4.00039 5.68972 4 6V24C4 24.5304 4.21071 25.0391 4.58579 25.4142C4.96086 25.7893 5.46957 26 6 26C6.19125 26.0001 6.38152 25.9727 6.565 25.9188L17 22.7163V24C17 24.5304 17.2107 25.0391 17.5858 25.4142C17.9609 25.7893 18.4696 26 19 26H23C23.5304 26 24.0391 25.7893 24.4142 25.4142C24.7893 25.0391 25 24.5304 25 24V20.2625L28.5675 19.1688C28.9804 19.0447 29.3425 18.7913 29.6004 18.4458C29.8583 18.1003 29.9984 17.6811 30 17.25V12.75C29.9981 12.3191 29.8579 11.9002 29.6 11.555C29.3421 11.2098 28.9802 10.9565 28.5675 10.8325ZM23 24H19V22.1025L23 20.875V24ZM28 17.25H27.9862L19 20.01V9.98875L27.9862 12.75H28V17.25Z" fill="white"/>
<path d="M68.7125 10.355L46.72 3.605L46.7 3.59875C46.3273 3.49005 45.9344 3.46964 45.5525 3.53913C45.1705 3.60862 44.81 3.76612 44.4995 3.99912C44.189 4.23213 43.937 4.53426 43.7635 4.88155C43.59 5.22885 43.4998 5.61178 43.5 6V24C43.5 24.6617 43.7624 25.2965 44.2296 25.7651C44.6968 26.2337 45.3308 26.498 45.9925 26.5C46.2319 26.4997 46.4701 26.4656 46.7 26.3987H46.72L56.5 23.3987V24.5C56.5 25.163 56.7634 25.7989 57.2322 26.2678C57.7011 26.7366 58.337 27 59 27H63C63.663 27 64.2989 26.7366 64.7678 26.2678C65.2366 25.7989 65.5 25.163 65.5 24.5V20.6325L68.7125 19.6462C69.2278 19.491 69.6796 19.1743 70.0014 18.7429C70.3232 18.3115 70.498 17.7882 70.5 17.25V12.75C70.4977 12.212 70.3228 11.689 70.001 11.2578C69.6793 10.8267 69.2276 10.5102 68.7125 10.355ZM46.5 23.3225V6.67875L56.5 9.75V20.25L46.5 23.3225ZM62.5 24H59.5V22.4725L62.5 21.5525V24ZM67.5 16.8812L59.5 19.335V10.6662L67.5 13.125V16.8812Z" fill="white"/>
</g>
<defs>
<clipPath id="clip0_27_600">
<rect width="72" height="32" rx="5" fill="white"/>
</clipPath>
</defs>
</svg>
