<svg width="72" height="32" viewBox="0 0 72 32" fill="none" xmlns="http://www.w3.org/2000/svg">
<g clip-path="url(#clip0_27_1768)">
<path d="M26 4H6C5.46957 4 4.96086 4.21071 4.58579 4.58579C4.21071 4.96086 4 5.46957 4 6V26C4 26.5304 4.21071 27.0391 4.58579 27.4142C4.96086 27.7893 5.46957 28 6 28H26C26.5304 28 27.0391 27.7893 27.4142 27.4142C27.7893 27.0391 28 26.5304 28 26V6C28 5.46957 27.7893 4.96086 27.4142 4.58579C27.0391 4.21071 26.5304 4 26 4ZM22 15C22.2652 15 22.5196 15.1054 22.7071 15.2929C22.8946 15.4804 23 15.7348 23 16C23 16.2652 22.8946 16.5196 22.7071 16.7071C22.5196 16.8946 22.2652 17 22 17H10.085C10.3229 18.3971 11.0471 19.6652 12.1294 20.5802C13.2118 21.4951 14.5827 21.998 16 22H22C22.2652 22 22.5196 22.1054 22.7071 22.2929C22.8946 22.4804 23 22.7348 23 23C23 23.2652 22.8946 23.5196 22.7071 23.7071C22.5196 23.8946 22.2652 24 22 24H16C13.8783 24 11.8434 23.1571 10.3431 21.6569C8.84285 20.1566 8 18.1217 8 16C8 13.8783 8.84285 11.8434 10.3431 10.3431C11.8434 8.84285 13.8783 8 16 8H22C22.2652 8 22.5196 8.10536 22.7071 8.29289C22.8946 8.48043 23 8.73478 23 9C23 9.26522 22.8946 9.51957 22.7071 9.70711C22.5196 9.89464 22.2652 10 22 10H16C14.5827 10.002 13.2118 10.5049 12.1294 11.4198C11.0471 12.3348 10.3229 13.6029 10.085 15H22Z" fill="white"/>
<path d="M65 17.5H47.635C47.9892 19.4615 49.0204 21.2366 50.5491 22.5158C52.0777 23.795 54.0068 24.4972 56 24.5H65C65.3978 24.5 65.7794 24.658 66.0607 24.9393C66.342 25.2206 66.5 25.6022 66.5 26C66.5 26.3978 66.342 26.7794 66.0607 27.0607C65.7794 27.342 65.3978 27.5 65 27.5H56C52.95 27.5 50.0249 26.2884 47.8683 24.1317C45.7116 21.9751 44.5 19.05 44.5 16C44.5 12.95 45.7116 10.0249 47.8683 7.86827C50.0249 5.7116 52.95 4.5 56 4.5H65C65.3978 4.5 65.7794 4.65804 66.0607 4.93934C66.342 5.22064 66.5 5.60218 66.5 6C66.5 6.39782 66.342 6.77936 66.0607 7.06066C65.7794 7.34196 65.3978 7.5 65 7.5H56C54.0068 7.50282 52.0777 8.20503 50.5491 9.48422C49.0204 10.7634 47.9892 12.5385 47.635 14.5H65C65.3978 14.5 65.7794 14.658 66.0607 14.9393C66.342 15.2206 66.5 15.6022 66.5 16C66.5 16.3978 66.342 16.7794 66.0607 17.0607C65.7794 17.342 65.3978 17.5 65 17.5Z" fill="white"/>
</g>
<defs>
<clipPath id="clip0_27_1768">
<rect width="72" height="32" rx="5" fill="white"/>
</clipPath>
</defs>
</svg>
