<svg width="72" height="32" viewBox="0 0 72 32" fill="none" xmlns="http://www.w3.org/2000/svg">
<g clip-path="url(#clip0_27_2901)">
<path d="M29 7H3C2.46957 7 1.96086 7.21071 1.58579 7.58579C1.21071 7.96086 1 8.46957 1 9V25C1 25.2652 1.10536 25.5196 1.29289 25.7071C1.48043 25.8946 1.73478 26 2 26C2.26522 26 2.51957 25.8946 2.70711 25.7071C2.89464 25.5196 3 25.2652 3 25V23H5V25C5 25.2652 5.10536 25.5196 5.29289 25.7071C5.48043 25.8946 5.73478 26 6 26C6.26522 26 6.51957 25.8946 6.70711 25.7071C6.89464 25.5196 7 25.2652 7 25V23H9V25C9 25.2652 9.10536 25.5196 9.29289 25.7071C9.48043 25.8946 9.73478 26 10 26C10.2652 26 10.5196 25.8946 10.7071 25.7071C10.8946 25.5196 11 25.2652 11 25V23H13V25C13 25.2652 13.1054 25.5196 13.2929 25.7071C13.4804 25.8946 13.7348 26 14 26C14.2652 26 14.5196 25.8946 14.7071 25.7071C14.8946 25.5196 15 25.2652 15 25V23H17V25C17 25.2652 17.1054 25.5196 17.2929 25.7071C17.4804 25.8946 17.7348 26 18 26C18.2652 26 18.5196 25.8946 18.7071 25.7071C18.8946 25.5196 19 25.2652 19 25V23H21V25C21 25.2652 21.1054 25.5196 21.2929 25.7071C21.4804 25.8946 21.7348 26 22 26C22.2652 26 22.5196 25.8946 22.7071 25.7071C22.8946 25.5196 23 25.2652 23 25V23H25V25C25 25.2652 25.1054 25.5196 25.2929 25.7071C25.4804 25.8946 25.7348 26 26 26C26.2652 26 26.5196 25.8946 26.7071 25.7071C26.8946 25.5196 27 25.2652 27 25V23H29V25C29 25.2652 29.1054 25.5196 29.2929 25.7071C29.4804 25.8946 29.7348 26 30 26C30.2652 26 30.5196 25.8946 30.7071 25.7071C30.8946 25.5196 31 25.2652 31 25V9C31 8.46957 30.7893 7.96086 30.4142 7.58579C30.0391 7.21071 29.5304 7 29 7ZM26 12V18H18V12H26ZM14 12V18H6V12H14Z" fill="white"/>
<path d="M69 6.5H43C42.6717 6.5 42.3466 6.56466 42.0433 6.6903C41.74 6.81594 41.4644 7.00009 41.2322 7.23223C40.7634 7.70107 40.5 8.33696 40.5 9V25C40.5 25.3978 40.658 25.7794 40.9393 26.0607C41.2206 26.342 41.6022 26.5 42 26.5C42.3978 26.5 42.7794 26.342 43.0607 26.0607C43.342 25.7794 43.5 25.3978 43.5 25V23.5H46V25C46 25.3978 46.158 25.7794 46.4393 26.0607C46.7206 26.342 47.1022 26.5 47.5 26.5C47.8978 26.5 48.2794 26.342 48.5607 26.0607C48.842 25.7794 49 25.3978 49 25V23.5H51.5V25C51.5 25.3978 51.658 25.7794 51.9393 26.0607C52.2206 26.342 52.6022 26.5 53 26.5C53.3978 26.5 53.7794 26.342 54.0607 26.0607C54.342 25.7794 54.5 25.3978 54.5 25V23.5H57.5V25C57.5 25.3978 57.658 25.7794 57.9393 26.0607C58.2206 26.342 58.6022 26.5 59 26.5C59.3978 26.5 59.7794 26.342 60.0607 26.0607C60.342 25.7794 60.5 25.3978 60.5 25V23.5H63V25C63 25.3978 63.158 25.7794 63.4393 26.0607C63.7206 26.342 64.1022 26.5 64.5 26.5C64.8978 26.5 65.2794 26.342 65.5607 26.0607C65.842 25.7794 66 25.3978 66 25V23.5H68.5V25C68.5 25.3978 68.658 25.7794 68.9393 26.0607C69.2206 26.342 69.6022 26.5 70 26.5C70.3978 26.5 70.7794 26.342 71.0607 26.0607C71.342 25.7794 71.5 25.3978 71.5 25V9C71.5 8.33696 71.2366 7.70107 70.7678 7.23223C70.2989 6.76339 69.663 6.5 69 6.5ZM43.5 9.5H68.5V20.5H43.5V9.5ZM55 17.5V12.5C55 12.1022 54.842 11.7206 54.5607 11.4393C54.2794 11.158 53.8978 11 53.5 11H47C46.6022 11 46.2206 11.158 45.9393 11.4393C45.658 11.7206 45.5 12.1022 45.5 12.5V17.5C45.5 17.8978 45.658 18.2794 45.9393 18.5607C46.2206 18.842 46.6022 19 47 19H53.5C53.8978 19 54.2794 18.842 54.5607 18.5607C54.842 18.2794 55 17.8978 55 17.5ZM52 16H48.5V14H52V16ZM58.5 19H65C65.3978 19 65.7794 18.842 66.0607 18.5607C66.342 18.2794 66.5 17.8978 66.5 17.5V12.5C66.5 12.1022 66.342 11.7206 66.0607 11.4393C65.7794 11.158 65.3978 11 65 11H58.5C58.1022 11 57.7206 11.158 57.4393 11.4393C57.158 11.7206 57 12.1022 57 12.5V17.5C57 17.8978 57.158 18.2794 57.4393 18.5607C57.7206 18.842 58.1022 19 58.5 19ZM60 14H63.5V16H60V14Z" fill="white"/>
</g>
<defs>
<clipPath id="clip0_27_2901">
<rect width="72" height="32" rx="5" fill="white"/>
</clipPath>
</defs>
</svg>
