<svg width="72" height="32" viewBox="0 0 72 32" fill="none" xmlns="http://www.w3.org/2000/svg">
<g clip-path="url(#clip0_27_209)">
<path d="M16 3C13.7556 2.99951 11.5493 3.58011 9.59582 4.68529C7.64236 5.79046 6.00831 7.38256 4.85271 9.30662C3.69712 11.2307 3.05935 13.4212 3.00148 15.6648C2.94362 17.9085 3.46762 20.1289 4.5225 22.11L3.10375 26.3662C2.98623 26.7186 2.96918 27.0968 3.0545 27.4583C3.13982 27.8199 3.32414 28.1505 3.58681 28.4132C3.84948 28.6759 4.18012 28.8602 4.54166 28.9455C4.9032 29.0308 5.28136 29.0138 5.63375 28.8962L9.89 27.4775C11.6335 28.4048 13.5653 28.9228 15.5388 28.992C17.5123 29.0613 19.4757 28.68 21.2798 27.8772C23.084 27.0743 24.6816 25.871 25.9513 24.3586C27.221 22.8462 28.1294 21.0644 28.6077 19.1484C29.0859 17.2325 29.1214 15.2328 28.7114 13.301C28.3014 11.3693 27.4568 9.55642 26.2415 7.9999C25.0263 6.44337 23.4724 5.18415 21.6979 4.31782C19.9233 3.45149 17.9747 3.00081 16 3ZM22.7075 14.7075L18.7075 18.7075C18.6146 18.8005 18.5043 18.8742 18.3829 18.9246C18.2615 18.9749 18.1314 19.0008 18 19.0008C17.8686 19.0008 17.7385 18.9749 17.6171 18.9246C17.4957 18.8742 17.3854 18.8005 17.2925 18.7075L14 15.4137L10.7075 18.7075C10.5199 18.8951 10.2654 19.0006 10 19.0006C9.73464 19.0006 9.48014 18.8951 9.2925 18.7075C9.10486 18.5199 8.99944 18.2654 8.99944 18C8.99944 17.7346 9.10486 17.4801 9.2925 17.2925L13.2925 13.2925C13.3854 13.1995 13.4957 13.1258 13.6171 13.0754C13.7385 13.0251 13.8686 12.9992 14 12.9992C14.1314 12.9992 14.2615 13.0251 14.3829 13.0754C14.5043 13.1258 14.6146 13.1995 14.7075 13.2925L18 16.5863L21.2925 13.2925C21.3854 13.1996 21.4957 13.1259 21.6171 13.0756C21.7385 13.0253 21.8686 12.9994 22 12.9994C22.1314 12.9994 22.2615 13.0253 22.3829 13.0756C22.5043 13.1259 22.6146 13.1996 22.7075 13.2925C22.8004 13.3854 22.8741 13.4957 22.9244 13.6171C22.9747 13.7385 23.0006 13.8686 23.0006 14C23.0006 14.1314 22.9747 14.2615 22.9244 14.3829C22.8741 14.5043 22.8004 14.6146 22.7075 14.7075Z" fill="white"/>
<path d="M63.0613 15.0613L59.0613 19.0613C58.9219 19.2011 58.7563 19.312 58.574 19.3878C58.3917 19.4635 58.1962 19.5024 57.9988 19.5024C57.8013 19.5024 57.6059 19.4635 57.4235 19.3878C57.2412 19.312 57.0756 19.2011 56.9363 19.0613L54 16.125L51.0613 19.0613C50.7795 19.343 50.3973 19.5014 49.9988 19.5014C49.6002 19.5014 49.218 19.343 48.9363 19.0613C48.6545 18.7795 48.4962 18.3973 48.4962 17.9988C48.4962 17.6002 48.6545 17.218 48.9363 16.9363L52.9363 12.9363C53.0756 12.7964 53.2412 12.6855 53.4235 12.6097C53.6059 12.534 53.8013 12.4951 53.9988 12.4951C54.1962 12.4951 54.3917 12.534 54.574 12.6097C54.7563 12.6855 54.9219 12.7964 55.0613 12.9363L58 15.875L60.9388 12.935C61.2205 12.6532 61.6027 12.4949 62.0013 12.4949C62.3998 12.4949 62.782 12.6532 63.0638 12.935C63.3455 13.2168 63.5039 13.599 63.5039 13.9975C63.5039 14.396 63.3455 14.7782 63.0638 15.06L63.0613 15.0613ZM69.5 16C69.5005 18.3125 68.907 20.5863 67.7763 22.6035C66.6457 24.6207 65.0159 26.3136 63.043 27.5201C61.0702 28.7265 58.8206 29.4059 56.5098 29.4932C54.199 29.5806 51.9045 29.0728 49.8463 28.0188L45.7925 29.375C45.3512 29.5237 44.8771 29.5462 44.4237 29.44C43.9703 29.3338 43.5556 29.103 43.2263 28.7737C42.897 28.4444 42.6663 28.0297 42.56 27.5763C42.4538 27.1229 42.4763 26.6488 42.625 26.2075L43.9763 22.1538C43.0484 20.3362 42.5446 18.332 42.5028 16.2917C42.4611 14.2514 42.8824 12.2282 43.7351 10.3742C44.5879 8.52026 45.8498 6.88371 47.4261 5.58766C49.0024 4.2916 50.852 3.36977 52.8358 2.89146C54.8197 2.41316 56.8862 2.39083 58.8799 2.82616C60.8736 3.26149 62.7427 4.14314 64.3466 5.40484C65.9505 6.66653 67.2476 8.27543 68.1401 10.1106C69.0327 11.9457 69.4977 13.9593 69.5 16ZM66.5 16C66.4996 14.3894 66.1286 12.8004 65.4159 11.3561C64.7031 9.91179 63.6676 8.65079 62.3896 7.67068C61.1115 6.69057 59.6251 6.01761 58.0453 5.70388C56.4655 5.39015 54.8347 5.44406 53.2791 5.86142C51.7235 6.27878 50.2848 7.04842 49.0742 8.11079C47.8636 9.17316 46.9137 10.4998 46.2978 11.988C45.682 13.4763 45.4168 15.0862 45.5227 16.6934C45.6287 18.3005 46.1029 19.8617 46.9088 21.2563C47.0154 21.4403 47.0818 21.6449 47.1033 21.8566C47.1249 22.0682 47.1012 22.282 47.0338 22.4838L45.7925 26.2075L49.5163 24.9663C49.6694 24.9152 49.8298 24.8891 49.9913 24.8888C50.2547 24.8892 50.5134 24.9591 50.7413 25.0913C52.3375 26.0149 54.1489 26.5018 55.9932 26.503C57.8374 26.5042 59.6495 26.0197 61.2469 25.0981C62.8444 24.1765 64.171 22.8504 65.0931 21.2533C66.0153 19.6561 66.5005 17.8443 66.5 16Z" fill="white"/>
</g>
<defs>
<clipPath id="clip0_27_209">
<rect width="72" height="32" rx="5" fill="white"/>
</clipPath>
</defs>
</svg>
