<svg width="72" height="32" viewBox="0 0 72 32" fill="none" xmlns="http://www.w3.org/2000/svg">
<g clip-path="url(#clip0_27_214)">
<path d="M27 5H5C4.46957 5 3.96086 5.21071 3.58579 5.58579C3.21071 5.96086 3 6.46957 3 7V25C3 25.5304 3.21071 26.0391 3.58579 26.4142C3.96086 26.7893 4.46957 27 5 27H27C27.5304 27 28.0391 26.7893 28.4142 26.4142C28.7893 26.0391 29 25.5304 29 25V7C29 6.46957 28.7893 5.96086 28.4142 5.58579C28.0391 5.21071 27.5304 5 27 5ZM25.1537 21.2825C24.45 22.4075 23.3625 23 22.0088 23C19.4175 23 17.6575 19.8363 15.7937 16.4862C14.4338 14.0413 12.7413 11 11.3263 11C9.7725 11 8 14.61 8 17.7763C8 18.8088 8.1875 19.6513 8.5425 20.2213C8.875 20.75 9.335 21 9.99125 21C10.7513 21 11.6812 20.125 12.8337 18.3113C12.9799 18.0962 13.2041 17.9466 13.4588 17.8941C13.7134 17.8416 13.9785 17.8903 14.1978 18.03C14.4171 18.1697 14.5734 18.3892 14.6336 18.6422C14.6937 18.8951 14.653 19.1616 14.52 19.385C12.48 22.5888 11.0275 23 9.99125 23C8.6375 23 7.55 22.4062 6.84625 21.2825C6.2925 20.3975 6 19.185 6 17.7825C6.02205 15.819 6.49234 13.8865 7.375 12.1325C8.4175 10.1125 9.82125 9 11.3263 9C13.9175 9 15.6775 12.1638 17.5413 15.5138C18.9012 17.9575 20.5938 21 22.0088 21C22.665 21 23.125 20.75 23.4575 20.2213C23.8125 19.655 24 18.8088 24 17.7763C24 14.61 22.2275 11 20.6737 11C20.2488 11 19.755 11.2887 19.2062 11.86C19.1152 11.9547 19.0064 12.0306 18.8861 12.0832C18.7658 12.1359 18.6362 12.1644 18.5049 12.167C18.3735 12.1696 18.243 12.1463 18.1206 12.0985C17.9983 12.0506 17.8866 11.9791 17.7919 11.8881C17.6972 11.7971 17.6213 11.6883 17.5686 11.568C17.516 11.4476 17.4875 11.3181 17.4849 11.1868C17.4823 11.0554 17.5056 10.9249 17.5534 10.8025C17.6013 10.6802 17.6727 10.5685 17.7638 10.4738C18.7175 9.4825 19.6688 9 20.6737 9C22.1737 9 23.5825 10.1125 24.6262 12.1325C25.508 13.8846 25.9783 15.8149 26.0012 17.7763C26 19.185 25.7075 20.3975 25.1537 21.2825Z" fill="white"/>
<path d="M70.5 18.6637C70.5 20.7687 70.0788 22.58 69.2812 23.9025C68.2575 25.6012 66.6663 26.5 64.68 26.5C60.8888 26.5 58.34 21.7437 55.6425 16.7087C53.6825 13.0512 51.25 8.5 49.25 8.5C48.2863 8.5 47.105 9.67125 46.1675 11.5562C45.0951 13.7737 44.5258 16.2007 44.5 18.6637C44.5 20.2013 44.78 21.5112 45.2875 22.3538C45.7587 23.1362 46.405 23.5 47.32 23.5C49.0388 23.5 51.1487 19.875 51.8425 18.6887C52.0429 18.345 52.3717 18.0949 52.7565 17.9935C53.1413 17.8921 53.5506 17.9477 53.8944 18.1481C54.2382 18.3485 54.4883 18.6773 54.5896 19.0621C54.691 19.4469 54.6354 19.8562 54.435 20.2C53.3213 22.11 52.3688 23.45 51.435 24.4225C50.0938 25.82 48.75 26.5 47.32 26.5C45.3338 26.5 43.7425 25.6012 42.7188 23.9025C41.9212 22.58 41.5 20.7687 41.5 18.6637C41.5 13.1675 44.4475 5.5 49.25 5.5C53.0413 5.5 55.59 10.2563 58.2875 15.2913C60.25 18.9488 62.6838 23.5 64.68 23.5C65.595 23.5 66.2412 23.1362 66.7125 22.3538C67.22 21.5112 67.5 20.2013 67.5 18.6637C67.4746 16.2008 66.9057 13.7738 65.8337 11.5562C64.8962 9.67125 63.715 8.5 62.75 8.5C62.035 8.5 61.1737 9.125 60.1887 10.3538C59.9401 10.6644 59.5783 10.8635 59.1828 10.9074C58.7873 10.9512 58.3906 10.8361 58.08 10.5875C57.7694 10.3389 57.5702 9.977 57.5264 9.58154C57.4826 9.18607 57.5976 8.78939 57.8463 8.47875C59.4525 6.475 61.0562 5.5 62.75 5.5C64.9562 5.5 67 7.17625 68.5187 10.22C69.7927 12.8544 70.4692 15.7376 70.5 18.6637Z" fill="white"/>
</g>
<defs>
<clipPath id="clip0_27_214">
<rect width="72" height="32" rx="5" fill="white"/>
</clipPath>
</defs>
</svg>
