<svg width="72" height="32" viewBox="0 0 72 32" fill="none" xmlns="http://www.w3.org/2000/svg">
<g clip-path="url(#clip0_27_2209)">
<path d="M17.0001 20C17.0001 20.9889 16.7068 21.9556 16.1574 22.7779C15.608 23.6001 14.8271 24.241 13.9135 24.6194C12.9999 24.9978 11.9945 25.0969 11.0246 24.9039C10.0547 24.711 9.1638 24.2348 8.46453 23.5355C7.76527 22.8363 7.28907 21.9454 7.09614 20.9755C6.90322 20.0056 7.00223 19.0002 7.38067 18.0866C7.75911 17.173 8.39997 16.3921 9.22222 15.8427C10.0445 15.2933 11.0112 15 12.0001 15C13.3261 15 14.5979 15.5268 15.5356 16.4645C16.4733 17.4022 17.0001 18.6739 17.0001 20ZM26.2926 15.2925L20.2926 21.2925C20.1049 21.4801 19.9995 21.7346 19.9995 22C19.9995 22.2654 20.1049 22.5199 20.2926 22.7075C20.4802 22.8951 20.7347 23.0006 21.0001 23.0006C21.2654 23.0006 21.5199 22.8951 21.7076 22.7075L27.7076 16.7075C27.8005 16.6146 27.8742 16.5043 27.9245 16.3829C27.9747 16.2615 28.0006 16.1314 28.0006 16C28.0006 15.8686 27.9747 15.7385 27.9245 15.6171C27.8742 15.4957 27.8005 15.3854 27.7076 15.2925C27.6147 15.1996 27.5044 15.1259 27.383 15.0756C27.2616 15.0253 27.1315 14.9995 27.0001 14.9995C26.8687 14.9995 26.7386 15.0253 26.6172 15.0756C26.4958 15.1259 26.3855 15.1996 26.2926 15.2925ZM23.7076 13.7075C23.8005 13.6146 23.8742 13.5043 23.9245 13.3829C23.9747 13.2615 24.0006 13.1314 24.0006 13C24.0006 12.8686 23.9747 12.7385 23.9245 12.6171C23.8742 12.4957 23.8005 12.3854 23.7076 12.2925C23.6147 12.1996 23.5044 12.1259 23.383 12.0756C23.2616 12.0253 23.1315 11.9995 23.0001 11.9995C22.8687 11.9995 22.7386 12.0253 22.6172 12.0756C22.4958 12.1259 22.3855 12.1996 22.2926 12.2925L19.2926 15.2925C19.1049 15.4801 18.9995 15.7346 18.9995 16C18.9995 16.2654 19.1049 16.5199 19.2926 16.7075C19.4802 16.8951 19.7347 17.0006 20.0001 17.0006C20.2654 17.0006 20.5199 16.8951 20.7076 16.7075L23.7076 13.7075ZM28.7076 7.29251C28.6147 7.19953 28.5044 7.12577 28.383 7.07545C28.2616 7.02512 28.1315 6.99922 28.0001 6.99922C27.8687 6.99922 27.7385 7.02512 27.6171 7.07545C27.4957 7.12577 27.3854 7.19953 27.2926 7.29251L25.2926 9.29251C25.1049 9.48015 24.9995 9.73464 24.9995 10C24.9995 10.2654 25.1049 10.5199 25.2926 10.7075C25.4802 10.8951 25.7347 11.0006 26.0001 11.0006C26.2654 11.0006 26.5199 10.8951 26.7076 10.7075L28.7076 8.70751C28.8005 8.61463 28.8743 8.50434 28.9246 8.38295C28.975 8.26155 29.0009 8.13142 29.0009 8.00001C29.0009 7.86859 28.975 7.73846 28.9246 7.61707C28.8743 7.49567 28.8005 7.38538 28.7076 7.29251ZM15.2926 12.7075C15.3854 12.8005 15.4957 12.8742 15.6171 12.9246C15.7385 12.9749 15.8687 13.0008 16.0001 13.0008C16.1315 13.0008 16.2616 12.9749 16.383 12.9246C16.5044 12.8742 16.6147 12.8005 16.7076 12.7075L25.7076 3.70751C25.8005 3.6146 25.8742 3.5043 25.9245 3.3829C25.9747 3.26151 26.0006 3.1314 26.0006 3.00001C26.0006 2.86861 25.9747 2.7385 25.9245 2.61711C25.8742 2.49572 25.8005 2.38542 25.7076 2.29251C25.6147 2.1996 25.5044 2.1259 25.383 2.07561C25.2616 2.02533 25.1315 1.99945 25.0001 1.99945C24.8687 1.99945 24.7386 2.02533 24.6172 2.07561C24.4958 2.1259 24.3855 2.1996 24.2926 2.29251L15.2926 11.2925C15.1996 11.3854 15.1258 11.4957 15.0755 11.6171C15.0252 11.7385 14.9993 11.8686 14.9993 12C14.9993 12.1314 15.0252 12.2615 15.0755 12.3829C15.1258 12.5043 15.1996 12.6146 15.2926 12.7075ZM16.9501 24.95C15.6372 26.2628 13.8567 27.0004 12.0001 27.0004C10.1435 27.0004 8.36289 26.2628 7.05007 24.95C5.73725 23.6372 4.99971 21.8566 4.99971 20C4.99971 18.1434 5.73725 16.3628 7.05007 15.05L17.3938 4.70751C17.4867 4.6146 17.5604 4.5043 17.6107 4.3829C17.661 4.26151 17.6869 4.1314 17.6869 4.00001C17.6869 3.86861 17.661 3.7385 17.6107 3.61711C17.5604 3.49572 17.4867 3.38542 17.3938 3.29251C17.3009 3.1996 17.1906 3.1259 17.0692 3.07561C16.9478 3.02533 16.8177 2.99945 16.6863 2.99945C16.5549 2.99945 16.4248 3.02533 16.3034 3.07561C16.182 3.1259 16.0717 3.1996 15.9788 3.29251L5.63632 13.6363C4.78942 14.4695 4.11587 15.4621 3.65452 16.557C3.19317 17.6518 2.95315 18.8271 2.94832 20.0152C2.94348 21.2032 3.17391 22.3805 3.62633 23.479C4.07875 24.5776 4.74419 25.5757 5.58428 26.4158C6.42437 27.2559 7.42248 27.9213 8.52103 28.3737C9.61958 28.8262 10.7968 29.0566 11.9849 29.0518C13.1729 29.0469 14.3483 28.8069 15.4431 28.3456C16.5379 27.8842 17.5306 27.2107 18.3638 26.3638C18.5434 26.1747 18.6421 25.9229 18.6388 25.6622C18.6354 25.4014 18.5303 25.1523 18.3459 24.9679C18.1615 24.7835 17.9124 24.6784 17.6516 24.6751C17.3909 24.6717 17.1391 24.7704 16.9501 24.95Z" fill="white"/>
<path d="M52.0002 15.5C51.1102 15.5 50.2402 15.7639 49.5001 16.2584C48.7601 16.7529 48.1833 17.4557 47.8427 18.2779C47.5022 19.1002 47.413 20.005 47.5867 20.8779C47.7603 21.7508 48.1889 22.5527 48.8182 23.182C49.4476 23.8113 50.2494 24.2399 51.1223 24.4135C51.9952 24.5872 52.9 24.4981 53.7223 24.1575C54.5445 23.8169 55.2474 23.2401 55.7418 22.5001C56.2363 21.7601 56.5002 20.89 56.5002 20C56.5002 18.8065 56.0261 17.6619 55.1822 16.818C54.3383 15.9741 53.1937 15.5 52.0002 15.5ZM52.0002 21.5C51.7035 21.5 51.4135 21.412 51.1669 21.2472C50.9202 21.0824 50.7279 20.8481 50.6144 20.574C50.5009 20.2999 50.4712 19.9983 50.529 19.7074C50.5869 19.4164 50.7298 19.1491 50.9395 18.9394C51.1493 18.7296 51.4166 18.5867 51.7076 18.5288C51.9985 18.471 52.3001 18.5007 52.5742 18.6142C52.8483 18.7277 53.0826 18.92 53.2474 19.1667C53.4122 19.4133 53.5002 19.7033 53.5002 20C53.5002 20.3978 53.3422 20.7794 53.0609 21.0607C52.7796 21.342 52.398 21.5 52.0002 21.5ZM68.0615 14.9388C68.2013 15.0781 68.3123 15.2437 68.388 15.426C68.4637 15.6084 68.5026 15.8038 68.5026 16.0013C68.5026 16.1987 68.4637 16.3942 68.388 16.5765C68.3123 16.7588 68.2013 16.9244 68.0615 17.0638L62.0615 23.0638C61.7797 23.3456 61.3975 23.5039 60.999 23.5039C60.6004 23.5039 60.2183 23.3456 59.9365 23.0638C59.6547 22.782 59.4964 22.3998 59.4964 22.0013C59.4964 21.6027 59.6547 21.2206 59.9365 20.9388L65.9365 14.9388C66.0758 14.7989 66.2414 14.688 66.4237 14.6123C66.6061 14.5365 66.8015 14.4976 66.999 14.4976C67.1964 14.4976 67.3919 14.5365 67.5742 14.6123C67.7565 14.688 67.9221 14.7989 68.0615 14.9388ZM63.5615 12.4388C63.7013 12.5781 63.8123 12.7437 63.888 12.926C63.9637 13.1084 64.0026 13.3038 64.0026 13.5013C64.0026 13.6987 63.9637 13.8942 63.888 14.0765C63.8123 14.2588 63.7013 14.4244 63.5615 14.5638L61.0615 17.0638C60.7797 17.3456 60.3975 17.5039 59.999 17.5039C59.6004 17.5039 59.2183 17.3456 58.9365 17.0638C58.6547 16.782 58.4964 16.3998 58.4964 16.0013C58.4964 15.6027 58.6547 15.2206 58.9365 14.9388L61.4365 12.4388C61.5758 12.2989 61.7414 12.188 61.9237 12.1123C62.1061 12.0365 62.3015 11.9976 62.499 11.9976C62.6964 11.9976 62.8919 12.0365 63.0742 12.1123C63.2565 12.188 63.4221 12.2989 63.5615 12.4388ZM69.0615 9.06376L67.0615 11.0638C66.7797 11.3456 66.3975 11.5039 65.999 11.5039C65.6004 11.5039 65.2183 11.3456 64.9365 11.0638C64.6547 10.782 64.4964 10.3998 64.4964 10.0013C64.4964 9.60274 64.6547 9.22055 64.9365 8.93876L66.9365 6.93876C67.2183 6.65697 67.6004 6.49866 67.999 6.49866C68.3975 6.49866 68.7797 6.65697 69.0615 6.93876C69.3433 7.22055 69.5016 7.60274 69.5016 8.00126C69.5016 8.39977 69.3433 8.78197 69.0615 9.06376ZM54.9365 10.9388L63.9365 1.93876C64.2183 1.65697 64.6004 1.49866 64.999 1.49866C65.3975 1.49866 65.7797 1.65697 66.0615 1.93876C66.3433 2.22055 66.5016 2.60274 66.5016 3.00126C66.5016 3.39977 66.3433 3.78197 66.0615 4.06376L57.0615 13.0638C56.9219 13.2033 56.7563 13.314 56.574 13.3895C56.3917 13.465 56.1963 13.5039 55.999 13.5039C55.8016 13.5039 55.6062 13.465 55.4239 13.3895C55.2416 13.314 55.076 13.2033 54.9365 13.0638C54.7969 12.9242 54.6862 12.7586 54.6107 12.5763C54.5352 12.394 54.4964 12.1986 54.4964 12.0013C54.4964 11.8039 54.5352 11.6085 54.6107 11.4262C54.6862 11.2439 54.7969 11.0783 54.9365 10.9388ZM58.7152 24.5963C58.855 24.7356 58.966 24.9012 59.0417 25.0835C59.1174 25.2659 59.1564 25.4613 59.1564 25.6588C59.1564 25.8562 59.1174 26.0517 59.0417 26.234C58.966 26.4163 58.855 26.5819 58.7152 26.7213C57.8328 27.6033 56.7853 28.3028 55.6326 28.78C54.4798 29.2571 53.2444 29.5026 51.9967 29.5023C50.7491 29.502 49.5138 29.256 48.3613 28.7783C47.2087 28.3006 46.1616 27.6005 45.2796 26.7181C44.3976 25.8357 43.698 24.7883 43.2209 23.6355C42.7437 22.4827 42.4982 21.2473 42.4985 19.9997C42.4988 18.7521 42.7448 17.5167 43.2226 16.3642C43.7003 15.2117 44.4003 14.1645 45.2827 13.2825L55.6252 2.93876C55.907 2.65697 56.2892 2.49866 56.6877 2.49866C57.0862 2.49866 57.4684 2.65697 57.7502 2.93876C58.032 3.22055 58.1903 3.60274 58.1903 4.00126C58.1903 4.39977 58.032 4.78197 57.7502 5.06376L47.404 15.4038C46.185 16.6228 45.5001 18.2761 45.5001 20C45.5001 21.7239 46.185 23.3773 47.404 24.5963C48.623 25.8153 50.2763 26.5001 52.0002 26.5001C53.7241 26.5001 55.3775 25.8153 56.5965 24.5963C56.8778 24.315 57.2593 24.157 57.6571 24.157C58.0549 24.157 58.4364 24.315 58.7177 24.5963H58.7152Z" fill="white"/>
</g>
<defs>
<clipPath id="clip0_27_2209">
<rect width="72" height="32" rx="5" fill="white"/>
</clipPath>
</defs>
</svg>
