<svg width="72" height="32" viewBox="0 0 72 32" fill="none" xmlns="http://www.w3.org/2000/svg">
<g clip-path="url(#clip0_27_3829)">
<path d="M23.3928 14.355L26.7403 10.6725C26.915 10.4757 27.005 10.2179 26.9908 9.95516C26.9767 9.6924 26.8596 9.4458 26.6648 9.26883C26.4701 9.09185 26.2135 8.99877 25.9505 9.00975C25.6876 9.02074 25.4396 9.13491 25.2603 9.32751L22.6916 12.1525L20.5416 5.39376C20.4139 4.98857 20.1601 4.6348 19.8172 4.38406C19.4743 4.13333 19.0602 3.99876 18.6353 4.00001H13.3641C12.9393 3.99876 12.5252 4.13333 12.1823 4.38406C11.8393 4.6348 11.5855 4.98857 11.4578 5.39376L5.0941 25.3938C4.99873 25.6936 4.97544 26.0116 5.02611 26.3221C5.07678 26.6326 5.19999 26.9268 5.38571 27.1807C5.57144 27.4347 5.81446 27.6412 6.09501 27.7835C6.37556 27.9259 6.68574 28.0001 7.00035 28H25.0003C25.315 28.0001 25.6251 27.9259 25.9057 27.7835C26.1862 27.6412 26.4293 27.4347 26.615 27.1807C26.8007 26.9268 26.9239 26.6326 26.9746 26.3221C27.0253 26.0116 27.002 25.6936 26.9066 25.3938L23.3928 14.355ZM8.9091 20L13.3641 6.00001H18.6353L21.1353 13.8625L15.5578 20H8.9091ZM18.2603 20L21.8378 16.065L23.0878 20H18.2603Z" fill="white"/>
<path d="M67.3813 25.2425L63.9563 14.4775L67.11 11.0088C67.372 10.7135 67.507 10.3269 67.4858 9.93274C67.4646 9.5386 67.2889 9.1687 66.9968 8.90324C66.7046 8.63778 66.3197 8.49815 65.9253 8.51463C65.5309 8.5311 65.159 8.70236 64.89 8.99126L62.905 11.1738L61.0175 5.24251C60.8579 4.73607 60.5407 4.29388 60.1121 3.98042C59.6835 3.66696 59.166 3.49864 58.635 3.50001H53.3638C52.8328 3.49864 52.3153 3.66696 51.8867 3.98042C51.4581 4.29388 51.1409 4.73607 50.9813 5.24251L44.6175 25.2425C44.4984 25.6172 44.4693 26.0147 44.5327 26.4028C44.596 26.7909 44.75 27.1585 44.9821 27.4759C45.2142 27.7932 45.5179 28.0514 45.8686 28.2293C46.2192 28.4073 46.6068 28.5 47 28.5H65C65.3932 28.5 65.7809 28.4073 66.1315 28.2293C66.4821 28.0514 66.7858 27.7932 67.0179 27.4759C67.25 27.1585 67.404 26.7909 67.4674 26.4028C67.5307 26.0147 67.5017 25.6172 67.3825 25.2425H67.3813ZM62.4063 19.5H59.39L61.625 17.0425L62.4063 19.5ZM53.7288 6.50001H58.27L60.5725 13.7388L55.3363 19.5H49.5925L53.7288 6.50001ZM47.6838 25.5L48.6375 22.5H63.3613L64.315 25.5H47.6838Z" fill="white"/>
</g>
<defs>
<clipPath id="clip0_27_3829">
<rect width="72" height="32" rx="5" fill="white"/>
</clipPath>
</defs>
</svg>
