<svg width="72" height="32" viewBox="0 0 72 32" fill="none" xmlns="http://www.w3.org/2000/svg">
<g clip-path="url(#clip0_27_3834)">
<path d="M10 16V8C10 6.4087 10.6321 4.88258 11.7574 3.75736C12.8826 2.63214 14.4087 2 16 2C17.5913 2 19.1174 2.63214 20.2426 3.75736C21.3679 4.88258 22 6.4087 22 8V16C22 17.5913 21.3679 19.1174 20.2426 20.2426C19.1174 21.3679 17.5913 22 16 22C14.4087 22 12.8826 21.3679 11.7574 20.2426C10.6321 19.1174 10 17.5913 10 16ZM26 16C26 15.7348 25.8946 15.4804 25.7071 15.2929C25.5196 15.1054 25.2652 15 25 15C24.7348 15 24.4804 15.1054 24.2929 15.2929C24.1054 15.4804 24 15.7348 24 16C24 18.1217 23.1571 20.1566 21.6569 21.6569C20.1566 23.1571 18.1217 24 16 24C13.8783 24 11.8434 23.1571 10.3431 21.6569C8.84285 20.1566 8 18.1217 8 16C8 15.7348 7.89464 15.4804 7.70711 15.2929C7.51957 15.1054 7.26522 15 7 15C6.73478 15 6.48043 15.1054 6.29289 15.2929C6.10536 15.4804 6 15.7348 6 16C6.00305 18.4782 6.9249 20.8672 8.5873 22.7051C10.2497 24.543 12.5346 25.6991 15 25.95V30C15 30.2652 15.1054 30.5196 15.2929 30.7071C15.4804 30.8946 15.7348 31 16 31C16.2652 31 16.5196 30.8946 16.7071 30.7071C16.8946 30.5196 17 30.2652 17 30V25.95C19.4654 25.6991 21.7503 24.543 23.4127 22.7051C25.0751 20.8672 25.997 18.4782 26 16Z" fill="white"/>
<path d="M56 22.5C57.7233 22.498 59.3754 21.8126 60.594 20.594C61.8126 19.3754 62.498 17.7233 62.5 16V8C62.5 6.27609 61.8152 4.62279 60.5962 3.40381C59.3772 2.18482 57.7239 1.5 56 1.5C54.2761 1.5 52.6228 2.18482 51.4038 3.40381C50.1848 4.62279 49.5 6.27609 49.5 8V16C49.502 17.7233 50.1874 19.3754 51.406 20.594C52.6246 21.8126 54.2767 22.498 56 22.5ZM52.5 8C52.5 7.07174 52.8687 6.1815 53.5251 5.52513C54.1815 4.86875 55.0717 4.5 56 4.5C56.9283 4.5 57.8185 4.86875 58.4749 5.52513C59.1313 6.1815 59.5 7.07174 59.5 8V16C59.5 16.9283 59.1313 17.8185 58.4749 18.4749C57.8185 19.1313 56.9283 19.5 56 19.5C55.0717 19.5 54.1815 19.1313 53.5251 18.4749C52.8687 17.8185 52.5 16.9283 52.5 16V8ZM57.5 27.4025V30C57.5 30.3978 57.342 30.7794 57.0607 31.0607C56.7794 31.342 56.3978 31.5 56 31.5C55.6022 31.5 55.2206 31.342 54.9393 31.0607C54.658 30.7794 54.5 30.3978 54.5 30V27.4025C51.735 27.035 49.1974 25.6766 47.3583 23.5795C45.5192 21.4825 44.5035 18.7893 44.5 16C44.5 15.6022 44.658 15.2206 44.9393 14.9393C45.2206 14.658 45.6022 14.5 46 14.5C46.3978 14.5 46.7794 14.658 47.0607 14.9393C47.342 15.2206 47.5 15.6022 47.5 16C47.5 18.2543 48.3955 20.4163 49.9896 22.0104C51.5837 23.6045 53.7457 24.5 56 24.5C58.2543 24.5 60.4163 23.6045 62.0104 22.0104C63.6045 20.4163 64.5 18.2543 64.5 16C64.5 15.6022 64.658 15.2206 64.9393 14.9393C65.2206 14.658 65.6022 14.5 66 14.5C66.3978 14.5 66.7794 14.658 67.0607 14.9393C67.342 15.2206 67.5 15.6022 67.5 16C67.4965 18.7893 66.4808 21.4825 64.6417 23.5795C62.8026 25.6766 60.265 27.035 57.5 27.4025Z" fill="white"/>
</g>
<defs>
<clipPath id="clip0_27_3834">
<rect width="72" height="32" rx="5" fill="white"/>
</clipPath>
</defs>
</svg>
