<svg width="72" height="32" viewBox="0 0 72 32" fill="none" xmlns="http://www.w3.org/2000/svg">
<g clip-path="url(#clip0_27_3844)">
<path d="M14.3826 5.795C14.3309 5.7433 14.2686 5.70356 14.1999 5.67859C14.1312 5.65361 14.0578 5.644 13.985 5.65043C13.9122 5.65687 13.8417 5.67919 13.7784 5.71583C13.7151 5.75248 13.6607 5.80254 13.6189 5.8625C12.5641 7.36793 11.9989 9.16183 12.0001 11C12.001 11.3938 12.0274 11.7871 12.0789 12.1775L3.39013 24.0275C3.10574 24.4121 2.96931 24.8863 3.00581 25.3633C3.0423 25.8402 3.24928 26.2881 3.58888 26.625L5.37513 28.4113C5.71202 28.7509 6.15991 28.9578 6.63687 28.9943C7.11383 29.0308 7.58799 28.8944 7.97263 28.61L19.8239 19.9188C20.2138 19.9711 20.6067 19.9982 21.0001 20C22.8376 20.0017 24.631 19.4374 26.1364 18.3838C26.1963 18.3419 26.2464 18.2875 26.283 18.2242C26.3197 18.161 26.342 18.0905 26.3484 18.0176C26.3549 17.9448 26.3453 17.8715 26.3203 17.8028C26.2953 17.7341 26.2556 17.6717 26.2039 17.62L14.3826 5.795ZM14.7089 18.705L12.7089 20.705C12.6169 20.8018 12.5066 20.8792 12.3843 20.9326C12.2619 20.986 12.1302 21.0144 11.9967 21.0161C11.8632 21.0179 11.7308 20.9928 11.6071 20.9425C11.4835 20.8923 11.3712 20.8177 11.2768 20.7233C11.1824 20.629 11.1079 20.5166 11.0576 20.393C11.0073 20.2694 10.9823 20.1369 10.984 20.0034C10.9857 19.87 11.0141 19.7382 11.0675 19.6159C11.121 19.4936 11.1984 19.3832 11.2951 19.2913L13.2951 17.2913C13.4842 17.1116 13.7359 17.013 13.9967 17.0163C14.2575 17.0197 14.5066 17.1247 14.691 17.3091C14.8754 17.4935 14.9805 17.7427 14.9838 18.0034C14.9872 18.2642 14.8885 18.5159 14.7089 18.705ZM28.3839 16.135C28.3421 16.1952 28.2876 16.2454 28.2242 16.2822C28.1608 16.319 28.0902 16.3414 28.0172 16.3478C27.9442 16.3543 27.8707 16.3446 27.8019 16.3195C27.733 16.2944 27.6706 16.2544 27.6189 16.2025L15.7976 4.38125C15.7457 4.32956 15.7058 4.2671 15.6807 4.19827C15.6556 4.12944 15.6459 4.05594 15.6523 3.98295C15.6588 3.90997 15.6812 3.8393 15.7179 3.77593C15.7547 3.71256 15.805 3.65805 15.8651 3.61625C17.5966 2.40806 19.6981 1.84773 21.8012 2.03347C23.9044 2.2192 25.8751 3.13914 27.368 4.63209C28.861 6.12503 29.7809 8.09575 29.9667 10.1989C30.1524 12.3021 29.5921 14.4035 28.3839 16.135Z" fill="white"/>
<path d="M61.0005 1.50001C59.6648 1.4986 58.3439 1.77924 57.1242 2.32355C55.9045 2.86786 54.8134 3.66358 53.9224 4.65864C53.0314 5.6537 52.3606 6.82567 51.9538 8.09788C51.547 9.37009 51.4134 10.7139 51.5617 12.0413L42.9892 23.7313C42.6325 24.2123 42.4614 24.8059 42.5073 25.4029C42.5533 26 42.8131 26.5605 43.2392 26.9813L45.0255 28.7675C45.4463 29.1936 46.0067 29.4535 46.6038 29.4994C47.2009 29.5453 47.7945 29.3742 48.2755 29.0175L59.9655 20.445C61.248 20.5836 62.5453 20.4595 63.7783 20.0804C65.0114 19.7013 66.1542 19.075 67.1373 18.2397C68.1204 17.4044 68.923 16.3777 69.4964 15.2221C70.0697 14.0665 70.4016 12.8063 70.472 11.5182C70.5424 10.2302 70.3497 8.94124 69.9057 7.73007C69.4616 6.51891 68.7756 5.41086 67.8894 4.47347C67.0032 3.53609 65.9353 2.78903 64.7509 2.27781C63.5666 1.7666 62.2905 1.50195 61.0005 1.50001ZM67.5005 11C67.5018 12.2044 67.1662 13.3851 66.5317 14.4088L57.593 5.46876C58.5776 4.86264 59.706 4.53012 60.862 4.50548C62.0179 4.48084 63.1595 4.76497 64.169 5.32858C65.1785 5.89218 66.0195 6.71487 66.6051 7.71179C67.1907 8.70872 67.4998 9.84381 67.5005 11ZM46.8405 26.3388L45.6617 25.16L52.6855 15.5813C53.5547 17.1518 54.8487 18.4457 56.4192 19.315L46.8405 26.3388ZM54.5005 11C54.499 9.79562 54.8346 8.61485 55.4692 7.59126L64.408 16.53C63.4235 17.1361 62.2952 17.4686 61.1393 17.4933C59.9835 17.518 58.842 17.2339 57.8325 16.6705C56.823 16.107 55.9821 15.2845 55.3964 14.2878C54.8107 13.291 54.5014 12.1561 54.5005 11Z" fill="white"/>
</g>
<defs>
<clipPath id="clip0_27_3844">
<rect width="72" height="32" rx="5" fill="white"/>
</clipPath>
</defs>
</svg>
