<svg width="72" height="32" viewBox="0 0 72 32" fill="none" xmlns="http://www.w3.org/2000/svg">
<g clip-path="url(#clip0_27_224)">
<path d="M11 18C10.6044 18 10.2178 17.8827 9.88886 17.6629C9.55996 17.4432 9.30362 17.1308 9.15224 16.7654C9.00087 16.3999 8.96126 15.9978 9.03843 15.6098C9.1156 15.2219 9.30608 14.8655 9.58579 14.5858C9.86549 14.3061 10.2219 14.1156 10.6098 14.0384C10.9978 13.9613 11.3999 14.0009 11.7654 14.1522C12.1308 14.3036 12.4432 14.56 12.6629 14.8889C12.8827 15.2178 13 15.6044 13 16C13 16.5304 12.7893 17.0391 12.4142 17.4142C12.0391 17.7893 11.5304 18 11 18ZM29 14V26C29 26.5304 28.7893 27.0391 28.4142 27.4142C28.0391 27.7893 27.5304 28 27 28H11C10.4696 28 9.96086 27.7893 9.58579 27.4142C9.21071 27.0391 9 26.5304 9 26V24H5C4.46957 24 3.96086 23.7893 3.58579 23.4142C3.21071 23.0391 3 22.5304 3 22V10C3 9.46957 3.21071 8.96086 3.58579 8.58579C3.96086 8.21071 4.46957 8 5 8H12V5C12 4.73478 12.1054 4.48043 12.2929 4.29289C12.4804 4.10536 12.7348 4 13 4H25C25.2652 4 25.5196 4.10536 25.7071 4.29289C25.8946 4.48043 26 4.73478 26 5V13H28C28.2652 13 28.5196 13.1054 28.7071 13.2929C28.8946 13.4804 29 13.7348 29 14ZM14 8H17C17.5304 8 18.0391 8.21071 18.4142 8.58579C18.7893 8.96086 19 9.46957 19 10V19.2663L24 15.655V6H14V8ZM11 20C11.7911 20 12.5645 19.7654 13.2223 19.3259C13.8801 18.8864 14.3928 18.2616 14.6955 17.5307C14.9983 16.7998 15.0775 15.9956 14.9231 15.2196C14.7688 14.4437 14.3878 13.731 13.8284 13.1716C13.269 12.6122 12.5563 12.2312 11.7804 12.0769C11.0044 11.9225 10.2002 12.0017 9.46927 12.3045C8.73836 12.6072 8.11365 13.1199 7.67412 13.7777C7.2346 14.4355 7 15.2089 7 16C7 17.0609 7.42143 18.0783 8.17157 18.8284C8.92172 19.5786 9.93913 20 11 20ZM24.9075 26L19 21.7337V22C19 22.5304 18.7893 23.0391 18.4142 23.4142C18.0391 23.7893 17.5304 24 17 24H11V26H24.9075ZM27 15.9563L20.7075 20.5L27 25.0438V15.9563Z" fill="white"/>
<path d="M55.5 16C55.5 15.11 55.2361 14.24 54.7416 13.4999C54.2471 12.7599 53.5443 12.1831 52.7221 11.8425C51.8998 11.5019 50.995 11.4128 50.1221 11.5865C49.2492 11.7601 48.4474 12.1887 47.818 12.818C47.1887 13.4474 46.7601 14.2492 46.5865 15.1221C46.4128 15.995 46.5019 16.8998 46.8425 17.7221C47.1831 18.5443 47.7599 19.2471 48.4999 19.7416C49.24 20.2361 50.11 20.5 51 20.5C52.1935 20.5 53.3381 20.0259 54.182 19.182C55.0259 18.3381 55.5 17.1935 55.5 16ZM49.5 16C49.5 15.7033 49.588 15.4133 49.7528 15.1666C49.9176 14.92 50.1519 14.7277 50.426 14.6142C50.7001 14.5006 51.0017 14.4709 51.2926 14.5288C51.5836 14.5867 51.8509 14.7296 52.0607 14.9393C52.2704 15.1491 52.4133 15.4164 52.4712 15.7074C52.5291 15.9983 52.4994 16.2999 52.3858 16.574C52.2723 16.8481 52.08 17.0824 51.8334 17.2472C51.5867 17.412 51.2967 17.5 51 17.5C50.6022 17.5 50.2206 17.342 49.9393 17.0607C49.658 16.7794 49.5 16.3978 49.5 16ZM68 12.5H66.5V4C66.5 3.60218 66.342 3.22064 66.0607 2.93934C65.7794 2.65804 65.3978 2.5 65 2.5H53C52.6022 2.5 52.2206 2.65804 51.9393 2.93934C51.658 3.22064 51.5 3.60218 51.5 4V7H44.5C43.837 7 43.2011 7.26339 42.7322 7.73223C42.2634 8.20107 42 8.83696 42 9.5V22.5C42 23.163 42.2634 23.7989 42.7322 24.2678C43.2011 24.7366 43.837 25 44.5 25H48.5V27C48.5 27.663 48.7634 28.2989 49.2322 28.7678C49.7011 29.2366 50.337 29.5 51 29.5H67C67.663 29.5 68.2989 29.2366 68.7678 28.7678C69.2366 28.2989 69.5 27.663 69.5 27V14C69.5 13.6022 69.342 13.2206 69.0607 12.9393C68.7794 12.658 68.3978 12.5 68 12.5ZM61.4438 21L66.5 17.0675V24.9325L61.4438 21ZM54.5 5.5H63.5V15.6L60 18.3225V9.5C60 8.83696 59.7366 8.20107 59.2678 7.73223C58.7989 7.26339 58.163 7 57.5 7H54.5V5.5ZM45 10H57V22H45V10ZM51.5 25H57.5C57.9843 24.9996 58.458 24.8586 58.8636 24.5941C59.2693 24.3296 59.5894 23.953 59.785 23.51L63.625 26.5H51.5V25Z" fill="white"/>
</g>
<defs>
<clipPath id="clip0_27_224">
<rect width="72" height="32" rx="5" fill="white"/>
</clipPath>
</defs>
</svg>
