<svg width="72" height="32" viewBox="0 0 72 32" fill="none" xmlns="http://www.w3.org/2000/svg">
<g clip-path="url(#clip0_27_229)">
<path d="M17 3C15.0244 3.00259 13.0751 3.45401 11.2995 4.32017C9.52383 5.18634 7.96818 6.44462 6.75 8H5C4.46957 8 3.96086 8.21071 3.58579 8.58579C3.21071 8.96086 3 9.46957 3 10V22C3 22.5304 3.21071 23.0391 3.58579 23.4142C3.96086 23.7893 4.46957 24 5 24H6.75C8.10701 25.7382 9.88386 27.1026 11.9134 27.9649C13.943 28.8272 16.1585 29.159 18.3517 28.9292C20.5448 28.6994 22.6434 27.9155 24.4502 26.6513C26.2569 25.387 27.7124 23.6839 28.6796 21.7022C29.6469 19.7206 30.0941 17.5254 29.9793 15.3232C29.8645 13.1211 29.1914 10.9843 28.0234 9.11396C26.8553 7.24358 25.2307 5.70107 23.3023 4.63151C21.3739 3.56196 19.2051 3.00052 17 3ZM9 19V13C9 12.7348 9.10536 12.4804 9.29289 12.2929C9.48043 12.1054 9.73478 12 10 12H12C12.7956 12 13.5587 12.3161 14.1213 12.8787C14.6839 13.4413 15 14.2044 15 15C15 15.7956 14.6839 16.5587 14.1213 17.1213C13.5587 17.6839 12.7956 18 12 18H11V19C11 19.2652 10.8946 19.5196 10.7071 19.7071C10.5196 19.8946 10.2652 20 10 20C9.73478 20 9.48043 19.8946 9.29289 19.7071C9.10536 19.5196 9 19.2652 9 19ZM16 26.9538C13.5498 26.7259 11.2459 25.6863 9.45375 24H16V26.9538ZM16 8H9.45375C11.2459 6.31367 13.5498 5.27411 16 5.04625V8ZM18 5.04625C20.5599 5.28325 22.9562 6.40808 24.7741 8.22592C26.5919 10.0438 27.7167 12.4401 27.9538 15H20V10C20 9.46957 19.7893 8.96086 19.4142 8.58579C19.0391 8.21071 18.5304 8 18 8V5.04625ZM18 26.9538V24C18.5304 24 19.0391 23.7893 19.4142 23.4142C19.7893 23.0391 20 22.5304 20 22V17H27.9538C27.7167 19.5599 26.5919 21.9562 24.7741 23.7741C22.9562 25.5919 20.5599 26.7167 18 26.9538ZM12 16H11V14H12C12.2652 14 12.5196 14.1054 12.7071 14.2929C12.8946 14.4804 13 14.7348 13 15C13 15.2652 12.8946 15.5196 12.7071 15.7071C12.5196 15.8946 12.2652 16 12 16Z" fill="white"/>
<path d="M51.75 11H49.5C49.1022 11 48.7206 11.158 48.4393 11.4393C48.158 11.7206 48 12.1022 48 12.5V19C48 19.3978 48.158 19.7794 48.4393 20.0607C48.7206 20.342 49.1022 20.5 49.5 20.5C49.8978 20.5 50.2794 20.342 50.5607 20.0607C50.842 19.7794 51 19.3978 51 19V18.5H51.75C52.7446 18.5 53.6984 18.1049 54.4017 17.4017C55.1049 16.6984 55.5 15.7446 55.5 14.75C55.5 13.7554 55.1049 12.8016 54.4017 12.0983C53.6984 11.3951 52.7446 11 51.75 11ZM51.75 15.5H51V14H51.75C51.9489 14 52.1397 14.079 52.2803 14.2197C52.421 14.3603 52.5 14.5511 52.5 14.75C52.5 14.9489 52.421 15.1397 52.2803 15.2803C52.1397 15.421 51.9489 15.5 51.75 15.5ZM57 2.5C55.2165 2.50115 53.4508 2.85518 51.8047 3.54168C50.1586 4.22818 48.6646 5.2336 47.4088 6.5H45C44.337 6.5 43.7011 6.76339 43.2322 7.23223C42.7634 7.70107 42.5 8.33696 42.5 9V22.5C42.5 23.163 42.7634 23.7989 43.2322 24.2678C43.7011 24.7366 44.337 25 45 25H46.9375C48.4388 26.6785 50.336 27.9547 52.4565 28.7125C54.5771 29.4704 56.8535 29.6857 59.0785 29.339C61.3035 28.9923 63.4065 28.0944 65.1958 26.7273C66.9852 25.3601 68.4042 23.5671 69.3235 21.5114C70.2429 19.4558 70.6334 17.2028 70.4595 14.9576C70.2856 12.7125 69.5529 10.5465 68.328 8.65687C67.1031 6.76726 65.425 5.21406 63.4465 4.13872C61.468 3.06337 59.2519 2.50003 57 2.5ZM57 5.5C59.5238 5.50337 61.9623 6.4144 63.87 8.06674C65.7778 9.71908 67.0276 12.0025 67.3913 14.5H60.5V9C60.5 8.6717 60.4353 8.34661 60.3097 8.04329C60.1841 7.73998 59.9999 7.46438 59.7678 7.23223C59.5356 7.00009 59.26 6.81594 58.9567 6.6903C58.6534 6.56466 58.3283 6.5 58 6.5H52.5337C53.9307 5.84184 55.4558 5.50037 57 5.5ZM45.5 9.5H57.5V22H45.5V9.5ZM57 26.5C55.092 26.5033 53.2194 25.9846 51.585 25H58C58.3283 25 58.6534 24.9353 58.9567 24.8097C59.26 24.6841 59.5356 24.4999 59.7678 24.2678C59.9999 24.0356 60.1841 23.76 60.3097 23.4567C60.4353 23.1534 60.5 22.8283 60.5 22.5V17.5H67.3913C67.0276 19.9975 65.7778 22.2809 63.87 23.9333C61.9623 25.5856 59.5238 26.4966 57 26.5Z" fill="white"/>
</g>
<defs>
<clipPath id="clip0_27_229">
<rect width="72" height="32" rx="5" fill="white"/>
</clipPath>
</defs>
</svg>
