<svg width="72" height="32" viewBox="0 0 72 32" fill="none" xmlns="http://www.w3.org/2000/svg">
<g clip-path="url(#clip0_27_3839)">
<path d="M26.6723 28.74C26.476 28.9183 26.2169 29.0114 25.952 28.9988C25.6871 28.9861 25.4381 28.8687 25.2598 28.6725L21.3948 24.4225C20.0726 25.2748 18.5656 25.7981 16.9998 25.9488V30C16.9998 30.2652 16.8944 30.5196 16.7069 30.7071C16.5193 30.8946 16.265 31 15.9998 31C15.7345 31 15.4802 30.8946 15.2926 30.7071C15.1051 30.5196 14.9998 30.2652 14.9998 30V25.95C12.5343 25.6991 10.2495 24.543 8.58705 22.7051C6.92465 20.8672 6.0028 18.4782 5.99975 16C5.99975 15.7348 6.10511 15.4804 6.29264 15.2929C6.48018 15.1054 6.73453 15 6.99975 15C7.26497 15 7.51932 15.1054 7.70686 15.2929C7.89439 15.4804 7.99975 15.7348 7.99975 16C8.00207 18.121 8.84566 20.1545 10.3455 21.6543C11.8452 23.1541 13.8787 23.9977 15.9998 24C17.4146 24.0042 18.8048 23.6295 20.026 22.915L18.6385 21.39C17.7236 21.838 16.7098 22.0457 15.6925 21.9935C14.6752 21.9414 13.6879 21.6311 12.8237 21.0918C11.9594 20.5526 11.2467 19.8022 10.7527 18.9114C10.2586 18.0206 9.99951 17.0187 9.99975 16V11.8863L5.25975 6.6725C5.08512 6.47566 4.99512 6.21792 5.00926 5.95516C5.02339 5.6924 5.14053 5.4458 5.33527 5.26882C5.53 5.09185 5.78665 4.99876 6.04956 5.00975C6.31247 5.02073 6.56045 5.1349 6.73975 5.3275L26.7397 27.3275C26.9181 27.5238 27.0112 27.7828 26.9985 28.0477C26.9858 28.3126 26.8685 28.5616 26.6723 28.74ZM23.6485 20.8488C23.7849 20.9164 23.935 20.9514 24.0872 20.9513C24.2746 20.9513 24.4582 20.8987 24.6171 20.7995C24.776 20.7002 24.9038 20.5583 24.986 20.39C25.657 19.0241 26.0039 17.5218 25.9998 16C25.9998 15.7348 25.8944 15.4804 25.7069 15.2929C25.5193 15.1054 25.265 15 24.9998 15C24.7345 15 24.4802 15.1054 24.2926 15.2929C24.1051 15.4804 23.9998 15.7348 23.9998 16C24.0033 17.2171 23.7261 18.4187 23.1898 19.5113C23.0733 19.7495 23.0562 20.0242 23.1422 20.275C23.2282 20.5258 23.4103 20.7322 23.6485 20.8488ZM20.2323 17.1963C20.3622 17.3393 20.5308 17.4416 20.7176 17.4908C20.9045 17.54 21.1016 17.5341 21.2851 17.4736C21.4687 17.4132 21.6308 17.3009 21.7518 17.1503C21.8729 16.9997 21.9477 16.8172 21.9673 16.625C21.9886 16.4174 21.9995 16.2088 21.9998 16V8C21.9982 6.62194 21.5224 5.2864 20.6522 4.21785C19.782 3.14929 18.5704 2.41286 17.2212 2.13231C15.872 1.85176 14.4674 2.04421 13.2433 2.67729C12.0193 3.31038 11.0505 4.34553 10.4998 5.60875C10.4229 5.78532 10.3986 5.98035 10.4298 6.17038C10.4611 6.36041 10.5466 6.53738 10.676 6.68L20.2323 17.1963Z" fill="white"/>
<path d="M47.1104 4.99125C46.9786 4.84276 46.8188 4.72189 46.64 4.63565C46.4612 4.54941 46.2671 4.49952 46.0689 4.48885C45.8707 4.47819 45.6723 4.50697 45.4853 4.57353C45.2983 4.64009 45.1264 4.74311 44.9795 4.87661C44.8326 5.0101 44.7136 5.17143 44.6295 5.35124C44.5454 5.53104 44.4979 5.72575 44.4896 5.92407C44.4813 6.12239 44.5125 6.32039 44.5813 6.50658C44.6501 6.69277 44.7551 6.86346 44.8904 7.00875L49.5004 12.08V16C49.4994 17.0718 49.7635 18.1273 50.2692 19.0723C50.7749 20.0174 51.5064 20.8227 52.3986 21.4166C53.2909 22.0105 54.3161 22.3746 55.3831 22.4764C56.4501 22.5782 57.5257 22.4145 58.5141 22L59.9216 23.5487C58.711 24.1791 57.3653 24.5055 56.0004 24.5C53.7467 24.4977 51.5861 23.6014 49.9925 22.0078C48.399 20.4143 47.5027 18.2536 47.5004 16C47.5004 15.6022 47.3423 15.2206 47.061 14.9393C46.7797 14.658 46.3982 14.5 46.0004 14.5C45.6026 14.5 45.221 14.658 44.9397 14.9393C44.6584 15.2206 44.5004 15.6022 44.5004 16C44.5039 18.7893 45.5195 21.4825 47.3587 23.5795C49.1978 25.6766 51.7354 27.035 54.5004 27.4025V30C54.5004 30.3978 54.6584 30.7794 54.9397 31.0607C55.221 31.342 55.6026 31.5 56.0004 31.5C56.3982 31.5 56.7797 31.342 57.061 31.0607C57.3423 30.7794 57.5004 30.3978 57.5004 30V27.4037C59.0926 27.2004 60.6233 26.66 61.9904 25.8187L64.8904 29.0087C65.1593 29.2976 65.5313 29.4689 65.9257 29.4854C66.32 29.5019 66.705 29.3622 66.9971 29.0968C67.2892 28.8313 67.4649 28.4614 67.4861 28.0673C67.5073 27.6731 67.3723 27.2865 67.1104 26.9912L47.1104 4.99125ZM56.0004 19.5C55.0721 19.5 54.1819 19.1312 53.5255 18.4749C52.8691 17.8185 52.5004 16.9283 52.5004 16V15.375L56.2379 19.4862C56.1591 19.5 56.0804 19.5 56.0004 19.5ZM63.8754 19.1975C64.2891 18.1823 64.5013 17.0963 64.5004 16C64.5004 15.6022 64.6584 15.2206 64.9397 14.9393C65.221 14.658 65.6026 14.5 66.0004 14.5C66.3982 14.5 66.7797 14.658 67.061 14.9393C67.3423 15.2206 67.5004 15.6022 67.5004 16C67.5028 17.4831 67.2166 18.9524 66.6579 20.3262C66.4988 20.6801 66.2087 20.9585 65.8487 21.1031C65.4886 21.2476 65.0866 21.247 64.7269 21.1014C64.3673 20.9558 64.0781 20.6766 63.92 20.3222C63.7619 19.9679 63.7473 19.5661 63.8791 19.2012L63.8754 19.1975ZM50.7129 4.21875C51.5137 3.09865 52.6496 2.26182 53.9567 1.82889C55.2638 1.39597 56.6747 1.38933 57.9858 1.80992C59.297 2.23052 60.4407 3.05662 61.252 4.16912C62.0634 5.28162 62.5005 6.62305 62.5004 8V15.0675C62.5004 15.4653 62.3423 15.8469 62.061 16.1282C61.7797 16.4095 61.3982 16.5675 61.0004 16.5675C60.6026 16.5675 60.221 16.4095 59.9397 16.1282C59.6584 15.8469 59.5004 15.4653 59.5004 15.0675V8C59.5007 7.25822 59.2654 6.53551 58.8283 5.93616C58.3913 5.33682 57.7751 4.89183 57.0687 4.66541C56.3623 4.43899 55.6023 4.44285 54.8982 4.67643C54.1942 4.91001 53.5826 5.36124 53.1516 5.965C53.0367 6.12513 52.8914 6.26106 52.724 6.36503C52.5565 6.46899 52.3702 6.53896 52.1758 6.57094C51.783 6.63553 51.3807 6.54144 51.0573 6.30937C50.7339 6.07731 50.5159 5.72628 50.4513 5.33351C50.3867 4.94073 50.4808 4.53839 50.7129 4.215V4.21875Z" fill="white"/>
</g>
<defs>
<clipPath id="clip0_27_3839">
<rect width="72" height="32" rx="5" fill="white"/>
</clipPath>
</defs>
</svg>
