<svg width="72" height="32" viewBox="0 0 72 32" fill="none" xmlns="http://www.w3.org/2000/svg">
<g clip-path="url(#clip0_27_239)">
<path d="M25 3H9C8.46957 3 7.96086 3.21071 7.58579 3.58579C7.21071 3.96086 7 4.46957 7 5V8H5C4.46957 8 3.96086 8.21071 3.58579 8.58579C3.21071 8.96086 3 9.46957 3 10V22C3 22.5304 3.21071 23.0391 3.58579 23.4142C3.96086 23.7893 4.46957 24 5 24H7V27C7 27.5304 7.21071 28.0391 7.58579 28.4142C7.96086 28.7893 8.46957 29 9 29H25C25.5304 29 26.0391 28.7893 26.4142 28.4142C26.7893 28.0391 27 27.5304 27 27V5C27 4.46957 26.7893 3.96086 26.4142 3.58579C26.0391 3.21071 25.5304 3 25 3ZM8.53 19.2425L7.03 13.2425C6.9956 13.1143 6.98707 12.9805 7.00492 12.8489C7.02277 12.7174 7.06664 12.5907 7.13397 12.4762C7.2013 12.3618 7.29074 12.2619 7.39707 12.1825C7.50341 12.103 7.62451 12.0454 7.75331 12.0132C7.88211 11.981 8.01603 11.9748 8.14726 11.9949C8.2785 12.015 8.40441 12.061 8.51767 12.1303C8.63092 12.1996 8.72925 12.2907 8.80691 12.3984C8.88457 12.5061 8.94001 12.6282 8.97 12.7575L9.815 16.1325L10.605 14.55C10.6879 14.3836 10.8156 14.2436 10.9737 14.1458C11.1318 14.0479 11.3141 13.9961 11.5 13.9961C11.6859 13.9961 11.8682 14.0479 12.0263 14.1458C12.1844 14.2436 12.3121 14.3836 12.395 14.55L13.185 16.1325L14.03 12.7575C14.098 12.5042 14.2627 12.2878 14.4887 12.1548C14.7147 12.0218 14.984 11.9829 15.2384 12.0465C15.4928 12.1101 15.712 12.2711 15.8489 12.4948C15.9857 12.7185 16.0292 12.987 15.97 13.2425L14.47 19.2425C14.4202 19.4405 14.3109 19.6185 14.157 19.7525C14.003 19.8866 13.8117 19.9703 13.6088 19.9925C13.5726 19.9965 13.5363 19.9985 13.5 19.9988C13.3142 19.9989 13.1321 19.9473 12.974 19.8497C12.8159 19.7521 12.6881 19.6124 12.605 19.4463L11.5 17.2362L10.395 19.4475C10.3037 19.6304 10.1585 19.7809 9.97897 19.8788C9.79947 19.9766 9.59429 20.0171 9.39108 19.9948C9.18786 19.9724 8.99638 19.8883 8.84242 19.7538C8.68846 19.6193 8.57942 19.4409 8.53 19.2425ZM25 27H9V24H18C18.5304 24 19.0391 23.7893 19.4142 23.4142C19.7893 23.0391 20 22.5304 20 22V21H25V27ZM25 19H20V13H25V19ZM25 11H20V10C20 9.46957 19.7893 8.96086 19.4142 8.58579C19.0391 8.21071 18.5304 8 18 8H9V5H25V11Z" fill="white"/>
<path d="M65 2.5H49C48.337 2.5 47.7011 2.76339 47.2322 3.23223C46.7634 3.70107 46.5 4.33696 46.5 5V7H44.5C43.837 7 43.2011 7.26339 42.7322 7.73223C42.2634 8.20107 42 8.83696 42 9.5V22.5C42 23.163 42.2634 23.7989 42.7322 24.2678C43.2011 24.7366 43.837 25 44.5 25H46.5V27C46.5 27.663 46.7634 28.2989 47.2322 28.7678C47.7011 29.2366 48.337 29.5 49 29.5H65C65.663 29.5 66.2989 29.2366 66.7678 28.7678C67.2366 28.2989 67.5 27.663 67.5 27V5C67.5 4.33696 67.2366 3.70107 66.7678 3.23223C66.2989 2.76339 65.663 2.5 65 2.5ZM61 13.5H64.5V18.5H61V13.5ZM49.5 5.5H64.5V10.5H61V9.5C61 8.83696 60.7366 8.20107 60.2678 7.73223C59.7989 7.26339 59.163 7 58.5 7H49.5V5.5ZM45 10H58V22H45V10ZM49.5 26.5V25H58.5C59.163 25 59.7989 24.7366 60.2678 24.2678C60.7366 23.7989 61 23.163 61 22.5V21.5H64.5V26.5H49.5ZM48.045 19.3638L46.545 13.3638C46.4934 13.1714 46.4806 12.9707 46.5074 12.7734C46.5342 12.576 46.6 12.386 46.701 12.2144C46.802 12.0427 46.9361 11.8929 47.0956 11.7737C47.2551 11.6544 47.4368 11.5681 47.63 11.5198C47.8232 11.4715 48.024 11.4622 48.2209 11.4924C48.4177 11.5225 48.6066 11.5916 48.7765 11.6955C48.9464 11.7994 49.0939 11.9361 49.2104 12.0976C49.3269 12.2591 49.41 12.4423 49.455 12.6362L49.9712 14.7025L50.1587 14.3275C50.2834 14.0785 50.4749 13.8692 50.7118 13.7229C50.9487 13.5766 51.2216 13.4991 51.5 13.4991C51.7784 13.4991 52.0513 13.5766 52.2882 13.7229C52.5251 13.8692 52.7166 14.0785 52.8413 14.3275L53.0288 14.7025L53.545 12.6362C53.6469 12.2563 53.894 11.9316 54.2331 11.7321C54.5721 11.5326 54.9759 11.4743 55.3576 11.5697C55.7392 11.6651 56.0681 11.9066 56.2733 12.2422C56.4786 12.5778 56.5439 12.9805 56.455 13.3638L54.955 19.3638C54.8803 19.6606 54.7165 19.9275 54.4857 20.1286C54.2549 20.3297 53.9681 20.4554 53.6637 20.4888C53.6094 20.4956 53.5548 20.4993 53.5 20.5C53.2215 20.5 52.9486 20.4224 52.7117 20.2761C52.4748 20.1297 52.2834 19.9203 52.1587 19.6712L51.5 18.3538L50.8413 19.6712C50.704 19.9452 50.4863 20.1705 50.2172 20.3169C49.9481 20.4634 49.6406 20.524 49.3361 20.4905C49.0316 20.457 48.7447 20.3311 48.5138 20.1296C48.283 19.9282 48.1194 19.6609 48.045 19.3638Z" fill="white"/>
</g>
<defs>
<clipPath id="clip0_27_239">
<rect width="72" height="32" rx="5" fill="white"/>
</clipPath>
</defs>
</svg>
