<svg width="72" height="32" viewBox="0 0 72 32" fill="none" xmlns="http://www.w3.org/2000/svg">
<g clip-path="url(#clip0_27_234)">
<path d="M27.4075 10H26.4613C26.8149 9.39288 27.0009 8.70265 27 8.00001C27.0004 7.32309 26.8289 6.65714 26.5017 6.06454C26.1745 5.47194 25.7023 4.97206 25.1293 4.61172C24.5562 4.25138 23.9011 4.04236 23.2253 4.00424C22.5494 3.96612 21.8749 4.10015 21.265 4.39376C20.651 3.39148 19.7036 2.63753 18.5891 2.2643C17.4745 1.89107 16.2641 1.92242 15.1704 2.35284C14.0766 2.78326 13.1695 3.58524 12.6082 4.61796C12.047 5.65068 11.8675 6.84811 12.1012 8.00001H5C4.46957 8.00001 3.96086 8.21073 3.58579 8.5858C3.21071 8.96087 3 9.46958 3 10V22C3 22.5304 3.21071 23.0392 3.58579 23.4142C3.96086 23.7893 4.46957 24 5 24H9.58375C10.1824 25.4781 11.2091 26.7436 12.5321 27.634C13.8552 28.5243 15.4141 28.999 17.0088 28.997C18.6036 28.9949 20.1613 28.5164 21.4821 27.6227C22.8028 26.7289 23.8264 25.4609 24.4212 23.9813C25.6698 23.8757 26.8332 23.3052 27.6811 22.3827C28.5291 21.4602 28.9998 20.253 29 19V11.5925C28.9993 11.1704 28.8313 10.7657 28.5328 10.4672C28.2343 10.1687 27.8297 10.0007 27.4075 10ZM17 4.00001C17.6206 3.99997 18.226 4.19241 18.7327 4.55082C19.2393 4.90923 19.6224 5.41595 19.829 6.00117C20.0357 6.58639 20.0557 7.22129 19.8864 7.81838C19.7171 8.41546 19.3668 8.94535 18.8838 9.33501C18.7463 8.94507 18.4913 8.60731 18.154 8.36824C17.8166 8.12916 17.4135 8.00052 17 8.00001H14.1725C14.0125 7.54759 13.9635 7.0634 14.0293 6.58809C14.0952 6.11277 14.2742 5.66019 14.5512 5.26834C14.8282 4.87649 15.1951 4.5568 15.6212 4.33611C16.0473 4.11542 16.5201 4.00016 17 4.00001ZM11 20C10.7348 20 10.4804 19.8947 10.2929 19.7071C10.1054 19.5196 10 19.2652 10 19V14H9C8.73478 14 8.48043 13.8947 8.29289 13.7071C8.10536 13.5196 8 13.2652 8 13C8 12.7348 8.10536 12.4804 8.29289 12.2929C8.48043 12.1054 8.73478 12 9 12H13C13.2652 12 13.5196 12.1054 13.7071 12.2929C13.8946 12.4804 14 12.7348 14 13C14 13.2652 13.8946 13.5196 13.7071 13.7071C13.5196 13.8947 13.2652 14 13 14H12V19C12 19.2652 11.8946 19.5196 11.7071 19.7071C11.5196 19.8947 11.2652 20 11 20ZM23 21C22.9996 22.3204 22.5636 23.6039 21.7596 24.6513C20.9556 25.6988 19.8285 26.4517 18.5531 26.7935C17.2776 27.1353 15.9251 27.0468 14.705 26.5418C13.485 26.0367 12.4657 25.1433 11.805 24H17C17.5304 24 18.0391 23.7893 18.4142 23.4142C18.7893 23.0392 19 22.5304 19 22V12H23V21ZM23 10H21C21.3938 9.47599 21.6804 8.87948 21.8434 8.24459C22.0064 7.60971 22.0426 6.94891 21.95 6.30001C22.2131 6.13694 22.5105 6.03718 22.8188 6.00857C23.127 5.97997 23.4377 6.0233 23.7263 6.13517C24.0149 6.24704 24.2737 6.42438 24.4821 6.65323C24.6906 6.88209 24.8431 7.15621 24.9276 7.45401C25.0121 7.75181 25.0263 8.06516 24.9692 8.3694C24.912 8.67364 24.785 8.96045 24.5981 9.20725C24.4113 9.45406 24.1697 9.65412 23.8923 9.79168C23.615 9.92925 23.3096 10.0006 23 10ZM27 19C27 19.6285 26.8025 20.2411 26.4356 20.7513C26.0687 21.2616 25.5508 21.6437 24.955 21.8438C24.9851 21.5635 25.0002 21.2819 25 21V12H27V19Z" fill="white"/>
<path d="M54.5 13C54.5 13.3978 54.342 13.7793 54.0607 14.0606C53.7794 14.342 53.3978 14.5 53 14.5H52.5V19C52.5 19.3978 52.342 19.7793 52.0607 20.0606C51.7794 20.342 51.3978 20.5 51 20.5C50.6022 20.5 50.2206 20.342 49.9393 20.0606C49.658 19.7793 49.5 19.3978 49.5 19V14.5H49C48.6022 14.5 48.2206 14.342 47.9393 14.0606C47.658 13.7793 47.5 13.3978 47.5 13C47.5 12.6022 47.658 12.2206 47.9393 11.9393C48.2206 11.658 48.6022 11.5 49 11.5H53C53.3978 11.5 53.7794 11.658 54.0607 11.9393C54.342 12.2206 54.5 12.6022 54.5 13ZM70 11.5925V19C70.0015 20.4164 69.4564 21.7787 68.4785 22.8033C67.5005 23.8278 66.1649 24.4356 64.75 24.5C64.0966 25.9481 63.0505 27.1841 61.7302 28.0678C60.41 28.9515 58.8685 29.4475 57.2807 29.4995C55.6929 29.5516 54.1223 29.1576 52.747 28.3623C51.3717 27.567 50.2468 26.4022 49.5 25H44.5C43.837 25 43.2011 24.7366 42.7322 24.2678C42.2634 23.7989 42 23.163 42 22.5V9.49999C42 8.83695 42.2634 8.20106 42.7322 7.73222C43.2011 7.26338 43.837 6.99999 44.5 6.99999H51.5C51.5007 5.82176 51.8798 4.6749 52.5813 3.72832C53.2829 2.78174 54.2699 2.08548 55.397 1.74208C56.5241 1.39868 57.7316 1.4263 58.8418 1.82086C59.952 2.21542 60.9062 2.95608 61.5637 3.93374C62.3673 3.55034 63.2665 3.41392 64.1476 3.54173C65.0287 3.66954 65.8521 4.05583 66.5135 4.65174C67.175 5.24765 67.6449 6.02638 67.8636 6.8894C68.0824 7.75242 68.0402 8.66093 67.7425 9.49999H67.9075C68.4623 9.50065 68.9941 9.72132 69.3864 10.1136C69.7787 10.5059 69.9993 11.0377 70 11.5925ZM62.5 6.88624C62.5 6.92374 62.5 6.96124 62.5 6.99999C62.5008 7.86864 62.2965 8.72521 61.9037 9.49999H63.5C63.7436 9.50076 63.9838 9.44219 64.1997 9.32933C64.4156 9.21647 64.6007 9.05273 64.7391 8.85225C64.8775 8.65178 64.965 8.42061 64.9941 8.17872C65.0231 7.93684 64.9928 7.69153 64.9057 7.464C64.8187 7.23647 64.6775 7.03356 64.4944 6.87282C64.3114 6.71209 64.0919 6.59836 63.855 6.54147C63.6182 6.48458 63.371 6.48624 63.1349 6.54631C62.8988 6.60638 62.6809 6.72306 62.5 6.88624ZM54.5 6.99999H57.5C57.8508 7.00016 58.1976 7.07441 58.5177 7.21787C58.8378 7.36133 59.1239 7.57078 59.3575 7.83249C59.4513 7.56493 59.4995 7.28351 59.5 6.99999C59.5 6.33695 59.2366 5.70106 58.7678 5.23222C58.2989 4.76338 57.663 4.49999 57 4.49999C56.337 4.49999 55.7011 4.76338 55.2322 5.23222C54.7634 5.70106 54.5 6.33695 54.5 6.99999ZM45 22H57V9.99999H45V22ZM62.5 21V12.5H60V22.5C60 23.163 59.7366 23.7989 59.2678 24.2678C58.7989 24.7366 58.163 25 57.5 25H53.2325C54.0141 25.7348 54.9935 26.2251 56.0501 26.4104C57.1068 26.5956 58.1946 26.4678 59.1795 26.0427C60.1645 25.6176 61.0036 24.9137 61.5936 24.0177C62.1836 23.1217 62.4986 22.0728 62.5 21ZM67 12.5H65.5V21C65.5 21.0987 65.5 21.1962 65.4925 21.2937C65.9401 21.1001 66.3213 20.7798 66.5892 20.3723C66.857 19.9647 66.9998 19.4877 67 19V12.5Z" fill="white"/>
</g>
<defs>
<clipPath id="clip0_27_234">
<rect width="72" height="32" rx="5" fill="white"/>
</clipPath>
</defs>
</svg>
