<svg width="72" height="32" viewBox="0 0 72 32" fill="none" xmlns="http://www.w3.org/2000/svg">
<g clip-path="url(#clip0_27_1773)">
<path d="M26 4H6C5.46957 4 4.96086 4.21071 4.58579 4.58579C4.21071 4.96086 4 5.46957 4 6V26C4 26.5304 4.21071 27.0391 4.58579 27.4142C4.96086 27.7893 5.46957 28 6 28H26C26.5304 28 27.0391 27.7893 27.4142 27.4142C27.7893 27.0391 28 26.5304 28 26V6C28 5.46957 27.7893 4.96086 27.4142 4.58579C27.0391 4.21071 26.5304 4 26 4ZM23 17H9C8.73478 17 8.48043 16.8946 8.29289 16.7071C8.10536 16.5196 8 16.2652 8 16C8 15.7348 8.10536 15.4804 8.29289 15.2929C8.48043 15.1054 8.73478 15 9 15H23C23.2652 15 23.5196 15.1054 23.7071 15.2929C23.8946 15.4804 24 15.7348 24 16C24 16.2652 23.8946 16.5196 23.7071 16.7071C23.5196 16.8946 23.2652 17 23 17Z" fill="white"/>
<path d="M68.5 16C68.5 16.3978 68.342 16.7794 68.0607 17.0607C67.7794 17.342 67.3978 17.5 67 17.5H45C44.6022 17.5 44.2206 17.342 43.9393 17.0607C43.658 16.7794 43.5 16.3978 43.5 16C43.5 15.6022 43.658 15.2206 43.9393 14.9393C44.2206 14.658 44.6022 14.5 45 14.5H67C67.3978 14.5 67.7794 14.658 68.0607 14.9393C68.342 15.2206 68.5 15.6022 68.5 16Z" fill="white"/>
</g>
<defs>
<clipPath id="clip0_27_1773">
<rect width="72" height="32" rx="5" fill="white"/>
</clipPath>
</defs>
</svg>
