<svg width="72" height="32" viewBox="0 0 72 32" fill="none" xmlns="http://www.w3.org/2000/svg">
<g clip-path="url(#clip0_27_1322)">
<path d="M30.53 7.50002C30.386 7.41017 30.2216 7.35844 30.0521 7.34969C29.8826 7.34094 29.7137 7.37547 29.5613 7.45002C24.195 10.075 20.3625 8.84502 16.3113 7.54752C12.05 6.19127 7.65 4.78502 1.56125 7.75752C1.3931 7.83962 1.25135 7.96726 1.15213 8.12592C1.05292 8.28458 1.00021 8.46789 1 8.65502V23.6463C0.999976 23.8159 1.04312 23.9828 1.12538 24.1312C1.20764 24.2796 1.3263 24.4046 1.4702 24.4945C1.6141 24.5844 1.77851 24.6362 1.94794 24.6451C2.11738 24.6539 2.28628 24.6195 2.43875 24.545C7.805 21.92 11.6375 23.15 15.695 24.4475C18.1 25.2163 20.55 26 23.32 26C25.4562 26 27.7863 25.535 30.4338 24.2425C30.6019 24.1604 30.7437 24.0328 30.8429 23.8741C30.9421 23.7155 30.9948 23.5321 30.995 23.345V8.35377C30.9965 8.18366 30.9546 8.01598 30.8732 7.86659C30.7919 7.71719 30.6737 7.59103 30.53 7.50002ZM6 19C6 19.2652 5.89464 19.5196 5.70711 19.7071C5.51957 19.8947 5.26522 20 5 20C4.73478 20 4.48043 19.8947 4.29289 19.7071C4.10536 19.5196 4 19.2652 4 19V11C4 10.7348 4.10536 10.4805 4.29289 10.2929C4.48043 10.1054 4.73478 10 5 10C5.26522 10 5.51957 10.1054 5.70711 10.2929C5.89464 10.4805 6 10.7348 6 11V19ZM16 20C15.2089 20 14.4355 19.7654 13.7777 19.3259C13.1199 18.8864 12.6072 18.2617 12.3045 17.5308C12.0017 16.7999 11.9225 15.9956 12.0769 15.2197C12.2312 14.4437 12.6122 13.731 13.1716 13.1716C13.731 12.6122 14.4437 12.2312 15.2196 12.0769C15.9956 11.9225 16.7998 12.0018 17.5307 12.3045C18.2616 12.6073 18.8864 13.1199 19.3259 13.7777C19.7654 14.4355 20 15.2089 20 16C20 17.0609 19.5786 18.0783 18.8284 18.8284C18.0783 19.5786 17.0609 20 16 20ZM28 21C28 21.2652 27.8946 21.5196 27.7071 21.7071C27.5196 21.8947 27.2652 22 27 22C26.7348 22 26.4804 21.8947 26.2929 21.7071C26.1054 21.5196 26 21.2652 26 21V13C26 12.7348 26.1054 12.4805 26.2929 12.2929C26.4804 12.1054 26.7348 12 27 12C27.2652 12 27.5196 12.1054 27.7071 12.2929C27.8946 12.4805 28 12.7348 28 13V21Z" fill="white"/>
<path d="M70.795 7.06876C70.579 6.93387 70.3322 6.85621 70.0778 6.84309C69.8235 6.82997 69.57 6.88182 69.3412 6.99376C64.1562 9.53001 60.4163 8.33251 56.4575 7.06376C52.31 5.73626 47.61 4.23126 41.3413 7.29626C41.0888 7.41968 40.876 7.61157 40.7273 7.85003C40.5785 8.0885 40.4998 8.36396 40.5 8.64501V23.6575C40.4998 23.9121 40.5644 24.1626 40.6878 24.3854C40.8112 24.6082 40.9892 24.7958 41.2052 24.9308C41.4212 25.0657 41.6679 25.1434 41.9222 25.1566C42.1765 25.1698 42.43 25.1181 42.6588 25.0063C47.8438 22.47 51.5837 23.6675 55.5425 24.9363C57.8962 25.6863 60.4275 26.5 63.3225 26.5C65.53 26.5 67.9475 26.0288 70.6588 24.7038C70.9112 24.5803 71.124 24.3884 71.2727 24.15C71.4215 23.9115 71.5002 23.6361 71.5 23.355V8.34251C71.5003 8.0878 71.4357 7.83722 71.3124 7.61437C71.189 7.39152 71.011 7.20375 70.795 7.06876ZM68.5 22.39C63.75 24.41 60.1987 23.2738 56.4575 22.0763C54.1038 21.3263 51.5725 20.5113 48.6775 20.5113C46.9136 20.5145 45.1629 20.8167 43.5 21.405V9.61001C48.25 7.59001 51.8012 8.72501 55.5425 9.92376C59.2 11.095 63.2863 12.4038 68.5 10.595V22.39ZM56 12C55.2089 12 54.4355 12.2346 53.7777 12.6741C53.1199 13.1137 52.6072 13.7384 52.3045 14.4693C52.0017 15.2002 51.9225 16.0044 52.0769 16.7804C52.2312 17.5563 52.6122 18.269 53.1716 18.8284C53.731 19.3878 54.4437 19.7688 55.2196 19.9231C55.9956 20.0775 56.7998 19.9983 57.5307 19.6955C58.2616 19.3928 58.8864 18.8801 59.3259 18.2223C59.7654 17.5645 60 16.7911 60 16C59.998 14.9397 59.576 13.9235 58.8262 13.1738C58.0765 12.4241 57.0603 12.002 56 12ZM56 17C55.8022 17 55.6089 16.9414 55.4444 16.8315C55.28 16.7216 55.1518 16.5654 55.0761 16.3827C55.0004 16.2 54.9806 15.9989 55.0192 15.8049C55.0578 15.6109 55.153 15.4328 55.2929 15.2929C55.4327 15.153 55.6109 15.0578 55.8049 15.0192C55.9989 14.9806 56.2 15.0004 56.3827 15.0761C56.5654 15.1518 56.7216 15.28 56.8315 15.4444C56.9414 15.6089 57 15.8022 57 16C57 16.2652 56.8946 16.5196 56.7071 16.7071C56.5196 16.8946 56.2652 17 56 17ZM48 12.5V17.5C48 17.8978 47.842 18.2794 47.5607 18.5607C47.2794 18.842 46.8978 19 46.5 19C46.1022 19 45.7206 18.842 45.4393 18.5607C45.158 18.2794 45 17.8978 45 17.5V12.5C45 12.1022 45.158 11.7206 45.4393 11.4393C45.7206 11.158 46.1022 11 46.5 11C46.8978 11 47.2794 11.158 47.5607 11.4393C47.842 11.7206 48 12.1022 48 12.5ZM64 19.5V14.5C64 14.1022 64.158 13.7206 64.4393 13.4393C64.7206 13.158 65.1022 13 65.5 13C65.8978 13 66.2794 13.158 66.5607 13.4393C66.842 13.7206 67 14.1022 67 14.5V19.5C67 19.8978 66.842 20.2794 66.5607 20.5607C66.2794 20.842 65.8978 21 65.5 21C65.1022 21 64.7206 20.842 64.4393 20.5607C64.158 20.2794 64 19.8978 64 19.5Z" fill="white"/>
</g>
<defs>
<clipPath id="clip0_27_1322">
<rect width="72" height="32" rx="5" fill="white"/>
</clipPath>
</defs>
</svg>
