<svg width="72" height="32" viewBox="0 0 72 32" fill="none" xmlns="http://www.w3.org/2000/svg">
<g clip-path="url(#clip0_27_1317)">
<path d="M21 16C21 16.9889 20.7068 17.9556 20.1573 18.7779C19.6079 19.6001 18.827 20.241 17.9134 20.6194C16.9998 20.9978 15.9945 21.0969 15.0245 20.9039C14.0546 20.711 13.1637 20.2348 12.4645 19.5355C11.7652 18.8363 11.289 17.9454 11.0961 16.9755C10.9031 16.0055 11.0022 15.0002 11.3806 14.0866C11.759 13.173 12.3999 12.3921 13.2221 11.8427C14.0444 11.2932 15.0111 11 16 11C17.3261 11 18.5979 11.5268 19.5355 12.4645C20.4732 13.4021 21 14.6739 21 16ZM31 8V24C31 24.2652 30.8946 24.5196 30.7071 24.7071C30.5196 24.8946 30.2652 25 30 25H2C1.73478 25 1.48043 24.8946 1.29289 24.7071C1.10536 24.5196 1 24.2652 1 24V8C1 7.73478 1.10536 7.48043 1.29289 7.29289C1.48043 7.10536 1.73478 7 2 7H30C30.2652 7 30.5196 7.10536 30.7071 7.29289C30.8946 7.48043 31 7.73478 31 8ZM29 13.7937C27.8645 13.458 26.8311 12.8435 25.9938 12.0062C25.1565 11.1689 24.542 10.1355 24.2062 9H7.79375C7.45801 10.1355 6.84351 11.1689 6.00623 12.0062C5.16895 12.8435 4.1355 13.458 3 13.7937V18.2062C4.1355 18.542 5.16895 19.1565 6.00623 19.9938C6.84351 20.8311 7.45801 21.8645 7.79375 23H24.2062C24.542 21.8645 25.1565 20.8311 25.9938 19.9938C26.8311 19.1565 27.8645 18.542 29 18.2062V13.7937Z" fill="white"/>
<path d="M70 6.5H42C41.6022 6.5 41.2206 6.65804 40.9393 6.93934C40.658 7.22064 40.5 7.60218 40.5 8V24C40.5 24.3978 40.658 24.7794 40.9393 25.0607C41.2206 25.342 41.6022 25.5 42 25.5H70C70.3978 25.5 70.7794 25.342 71.0607 25.0607C71.342 24.7794 71.5 24.3978 71.5 24V8C71.5 7.60218 71.342 7.22064 71.0607 6.93934C70.7794 6.65804 70.3978 6.5 70 6.5ZM62.6513 22.5H49.3488C49.052 21.0603 48.3398 19.7391 47.3004 18.6996C46.2609 17.6602 44.9397 16.948 43.5 16.6513V15.3488C44.9397 15.052 46.2609 14.3398 47.3004 13.3004C48.3398 12.2609 49.052 10.9397 49.3488 9.5H62.6513C62.948 10.9397 63.6602 12.2609 64.6996 13.3004C65.7391 14.3398 67.0603 15.052 68.5 15.3488V16.6513C67.0603 16.948 65.7391 17.6602 64.6996 18.6996C63.6602 19.7391 62.948 21.0603 62.6513 22.5ZM68.5 12.2425C67.8683 12.017 67.2946 11.654 66.8203 11.1797C66.346 10.7054 65.983 10.1317 65.7575 9.5H68.5V12.2425ZM46.2425 9.5C46.017 10.1317 45.654 10.7054 45.1797 11.1797C44.7054 11.654 44.1317 12.017 43.5 12.2425V9.5H46.2425ZM43.5 19.7575C44.1317 19.983 44.7054 20.346 45.1797 20.8203C45.654 21.2946 46.017 21.8683 46.2425 22.5H43.5V19.7575ZM65.7575 22.5C65.983 21.8683 66.346 21.2946 66.8203 20.8203C67.2946 20.346 67.8683 19.983 68.5 19.7575V22.5H65.7575ZM56 11C55.0111 11 54.0444 11.2932 53.2221 11.8427C52.3999 12.3921 51.759 13.173 51.3806 14.0866C51.0022 15.0002 50.9031 16.0055 51.0961 16.9755C51.289 17.9454 51.7652 18.8363 52.4645 19.5355C53.1637 20.2348 54.0546 20.711 55.0245 20.9039C55.9945 21.0969 56.9998 20.9978 57.9134 20.6194C58.827 20.241 59.6079 19.6001 60.1573 18.7779C60.7068 17.9556 61 16.9889 61 16C61 14.6739 60.4732 13.4021 59.5355 12.4645C58.5979 11.5268 57.3261 11 56 11ZM56 18C55.6044 18 55.2178 17.8827 54.8889 17.6629C54.56 17.4432 54.3036 17.1308 54.1522 16.7654C54.0009 16.3999 53.9613 15.9978 54.0384 15.6098C54.1156 15.2219 54.3061 14.8655 54.5858 14.5858C54.8655 14.3061 55.2219 14.1156 55.6098 14.0384C55.9978 13.9613 56.3999 14.0009 56.7654 14.1522C57.1308 14.3036 57.4432 14.56 57.6629 14.8889C57.8827 15.2178 58 15.6044 58 16C58 16.5304 57.7893 17.0391 57.4142 17.4142C57.0391 17.7893 56.5304 18 56 18Z" fill="white"/>
</g>
<defs>
<clipPath id="clip0_27_1317">
<rect width="72" height="32" rx="5" fill="white"/>
</clipPath>
</defs>
</svg>
