<svg width="72" height="32" viewBox="0 0 72 32" fill="none" xmlns="http://www.w3.org/2000/svg">
<g clip-path="url(#clip0_27_2916)">
<path d="M21 28C21 28.2652 20.8946 28.5196 20.7071 28.7071C20.5196 28.8946 20.2652 29 20 29H12C11.7348 29 11.4804 28.8946 11.2929 28.7071C11.1054 28.5196 11 28.2652 11 28C11 27.7348 11.1054 27.4804 11.2929 27.2929C11.4804 27.1054 11.7348 27 12 27H20C20.2652 27 20.5196 27.1054 20.7071 27.2929C20.8946 27.4804 21 27.7348 21 28ZM29 8V22C29 22.7956 28.6839 23.5587 28.1213 24.1213C27.5587 24.6839 26.7956 25 26 25H6C5.20435 25 4.44129 24.6839 3.87868 24.1213C3.31607 23.5587 3 22.7956 3 22V8C3 7.20435 3.31607 6.44129 3.87868 5.87868C4.44129 5.31607 5.20435 5 6 5H26C26.7956 5 27.5587 5.31607 28.1213 5.87868C28.6839 6.44129 29 7.20435 29 8ZM20.5 15C20.5 14.8393 20.4612 14.681 20.387 14.5385C20.3128 14.396 20.2053 14.2734 20.0737 14.1812L15.0737 10.6812C14.9239 10.5763 14.7482 10.5144 14.5656 10.5024C14.3831 10.4904 14.2008 10.5287 14.0385 10.6132C13.8762 10.6976 13.7402 10.8249 13.6452 10.9813C13.5503 11.1377 13.5001 11.3171 13.5 11.5V18.5C13.5001 18.6829 13.5503 18.8624 13.6452 19.0187C13.7402 19.1751 13.8762 19.3024 14.0385 19.3868C14.2008 19.4713 14.3831 19.5096 14.5656 19.4976C14.7482 19.4856 14.9239 19.4237 15.0737 19.3188L20.0737 15.8188C20.2053 15.7266 20.3128 15.604 20.387 15.4615C20.4612 15.319 20.5 15.1607 20.5 15Z" fill="white"/>
<path d="M61 15C61 15.2412 60.9418 15.4788 60.8304 15.6927C60.7189 15.9066 60.5576 16.0905 60.36 16.2288L55.36 19.7288C55.1352 19.886 54.8716 19.9787 54.5978 19.9966C54.3241 20.0145 54.0506 19.9569 53.8073 19.8302C53.5639 19.7035 53.36 19.5125 53.2177 19.278C53.0753 19.0434 53 18.7744 53 18.5V11.5C53 11.2256 53.0753 10.9566 53.2177 10.722C53.36 10.4875 53.5639 10.2965 53.8073 10.1698C54.0506 10.0431 54.3241 9.98553 54.5978 10.0034C54.8716 10.0213 55.1352 10.114 55.36 10.2712L60.36 13.7712C60.5576 13.9095 60.7189 14.0934 60.8304 14.3073C60.9418 14.5212 61 14.7588 61 15ZM69.5 8V22C69.5 22.4596 69.4095 22.9148 69.2336 23.3394C69.0577 23.764 68.7999 24.1499 68.4749 24.4749C68.1499 24.7999 67.764 25.0577 67.3394 25.2336C66.9148 25.4095 66.4596 25.5 66 25.5H46C45.0717 25.5 44.1815 25.1313 43.5251 24.4749C42.8687 23.8185 42.5 22.9283 42.5 22V8C42.5 7.07174 42.8687 6.1815 43.5251 5.52513C44.1815 4.86875 45.0717 4.5 46 4.5H66C66.4596 4.5 66.9148 4.59053 67.3394 4.76642C67.764 4.94231 68.1499 5.20012 68.4749 5.52513C68.7999 5.85013 69.0577 6.23597 69.2336 6.66061C69.4095 7.08525 69.5 7.54037 69.5 8ZM66.5 8C66.5 7.86739 66.4473 7.74021 66.3536 7.64645C66.2598 7.55268 66.1326 7.5 66 7.5H46C45.8674 7.5 45.7402 7.55268 45.6464 7.64645C45.5527 7.74021 45.5 7.86739 45.5 8V22C45.5 22.1326 45.5527 22.2598 45.6464 22.3536C45.7402 22.4473 45.8674 22.5 46 22.5H66C66.1326 22.5 66.2598 22.4473 66.3536 22.3536C66.4473 22.2598 66.5 22.1326 66.5 22V8ZM60 27H52C51.6022 27 51.2206 27.158 50.9393 27.4393C50.658 27.7206 50.5 28.1022 50.5 28.5C50.5 28.8978 50.658 29.2794 50.9393 29.5607C51.2206 29.842 51.6022 30 52 30H60C60.3978 30 60.7794 29.842 61.0607 29.5607C61.342 29.2794 61.5 28.8978 61.5 28.5C61.5 28.1022 61.342 27.7206 61.0607 27.4393C60.7794 27.158 60.3978 27 60 27Z" fill="white"/>
</g>
<defs>
<clipPath id="clip0_27_2916">
<rect width="72" height="32" rx="5" fill="white"/>
</clipPath>
</defs>
</svg>
