<svg width="72" height="32" viewBox="0 0 72 32" fill="none" xmlns="http://www.w3.org/2000/svg">
<g clip-path="url(#clip0_27_2906)">
<path d="M29 8V22C29 22.7956 28.6839 23.5587 28.1213 24.1213C27.5587 24.6839 26.7956 25 26 25H6C5.20435 25 4.44129 24.6839 3.87868 24.1213C3.31607 23.5587 3 22.7956 3 22V8C3 7.20435 3.31607 6.44129 3.87868 5.87868C4.44129 5.31607 5.20435 5 6 5H26C26.7956 5 27.5587 5.31607 28.1213 5.87868C28.6839 6.44129 29 7.20435 29 8ZM20 27H12C11.7348 27 11.4804 27.1054 11.2929 27.2929C11.1054 27.4804 11 27.7348 11 28C11 28.2652 11.1054 28.5196 11.2929 28.7071C11.4804 28.8946 11.7348 29 12 29H20C20.2652 29 20.5196 28.8946 20.7071 28.7071C20.8946 28.5196 21 28.2652 21 28C21 27.7348 20.8946 27.4804 20.7071 27.2929C20.5196 27.1054 20.2652 27 20 27Z" fill="white"/>
<path d="M66 4.5H46C45.0717 4.5 44.1815 4.86875 43.5251 5.52513C42.8687 6.1815 42.5 7.07174 42.5 8V22C42.5 22.9283 42.8687 23.8185 43.5251 24.4749C44.1815 25.1313 45.0717 25.5 46 25.5H66C66.4596 25.5 66.9148 25.4095 67.3394 25.2336C67.764 25.0577 68.1499 24.7999 68.4749 24.4749C68.7999 24.1499 69.0577 23.764 69.2336 23.3394C69.4095 22.9148 69.5 22.4596 69.5 22V8C69.5 7.54037 69.4095 7.08525 69.2336 6.66061C69.0577 6.23597 68.7999 5.85013 68.4749 5.52513C68.1499 5.20012 67.764 4.94231 67.3394 4.76642C66.9148 4.59053 66.4596 4.5 66 4.5ZM66.5 22C66.5 22.1326 66.4473 22.2598 66.3536 22.3536C66.2598 22.4473 66.1326 22.5 66 22.5H46C45.8674 22.5 45.7402 22.4473 45.6464 22.3536C45.5527 22.2598 45.5 22.1326 45.5 22V8C45.5 7.86739 45.5527 7.74021 45.6464 7.64645C45.7402 7.55268 45.8674 7.5 46 7.5H66C66.1326 7.5 66.2598 7.55268 66.3536 7.64645C66.4473 7.74021 66.5 7.86739 66.5 8V22ZM61.5 28.5C61.5 28.8978 61.342 29.2794 61.0607 29.5607C60.7794 29.842 60.3978 30 60 30H52C51.6022 30 51.2206 29.842 50.9393 29.5607C50.658 29.2794 50.5 28.8978 50.5 28.5C50.5 28.1022 50.658 27.7206 50.9393 27.4393C51.2206 27.158 51.6022 27 52 27H60C60.3978 27 60.7794 27.158 61.0607 27.4393C61.342 27.7206 61.5 28.1022 61.5 28.5Z" fill="white"/>
</g>
<defs>
<clipPath id="clip0_27_2906">
<rect width="72" height="32" rx="5" fill="white"/>
</clipPath>
</defs>
</svg>
