<svg width="72" height="32" viewBox="0 0 72 32" fill="none" xmlns="http://www.w3.org/2000/svg">
<g clip-path="url(#clip0_27_2219)">
<path d="M30.0001 12C30.0001 12.2652 29.8947 12.5196 29.7072 12.7071C29.5196 12.8946 29.2653 13 29.0001 13H27.0001V15C27.0001 15.2652 26.8947 15.5196 26.7072 15.7071C26.5196 15.8946 26.2653 16 26.0001 16C25.7348 16 25.4805 15.8946 25.2929 15.7071C25.1054 15.5196 25.0001 15.2652 25.0001 15V13H23.0001C22.7348 13 22.4805 12.8946 22.2929 12.7071C22.1054 12.5196 22.0001 12.2652 22.0001 12C22.0001 11.7348 22.1054 11.4804 22.2929 11.2929C22.4805 11.1054 22.7348 11 23.0001 11H25.0001V9C25.0001 8.73478 25.1054 8.48043 25.2929 8.29289C25.4805 8.10536 25.7348 8 26.0001 8C26.2653 8 26.5196 8.10536 26.7072 8.29289C26.8947 8.48043 27.0001 8.73478 27.0001 9V11H29.0001C29.2653 11 29.5196 11.1054 29.7072 11.2929C29.8947 11.4804 30.0001 11.7348 30.0001 12ZM18.0001 7H19.0001V8C19.0001 8.26522 19.1054 8.51957 19.2929 8.70711C19.4805 8.89464 19.7348 9 20.0001 9C20.2653 9 20.5196 8.89464 20.7072 8.70711C20.8947 8.51957 21.0001 8.26522 21.0001 8V7H22.0001C22.2653 7 22.5196 6.89464 22.7072 6.70711C22.8947 6.51957 23.0001 6.26522 23.0001 6C23.0001 5.73478 22.8947 5.48043 22.7072 5.29289C22.5196 5.10536 22.2653 5 22.0001 5H21.0001V4C21.0001 3.73478 20.8947 3.48043 20.7072 3.29289C20.5196 3.10536 20.2653 3 20.0001 3C19.7348 3 19.4805 3.10536 19.2929 3.29289C19.1054 3.48043 19.0001 3.73478 19.0001 4V5H18.0001C17.7348 5 17.4805 5.10536 17.2929 5.29289C17.1054 5.48043 17.0001 5.73478 17.0001 6C17.0001 6.26522 17.1054 6.51957 17.2929 6.70711C17.4805 6.89464 17.7348 7 18.0001 7ZM26.1426 18.7913C24.3688 19.1417 22.5361 19.0499 20.8063 18.5239C19.0765 17.998 17.5029 17.0541 16.2244 15.7756C14.946 14.4972 14.0021 12.9235 13.4761 11.1937C12.9502 9.46393 12.8584 7.63121 13.2088 5.8575C13.2431 5.68343 13.2305 5.50337 13.1723 5.33578C13.1141 5.16819 13.0123 5.01911 12.8774 4.90384C12.7426 4.78857 12.5795 4.71125 12.4048 4.67982C12.2302 4.64839 12.0504 4.66399 11.8838 4.725C9.99022 5.41741 8.30162 6.57578 6.97395 8.09313C5.64627 9.61048 4.72231 11.4379 4.28739 13.4066C3.85248 15.3754 3.92062 17.422 4.48554 19.3574C5.05046 21.2929 6.09393 23.0548 7.5196 24.4804C8.94527 25.9061 10.7072 26.9496 12.6426 27.5145C14.5781 28.0794 16.6247 28.1476 18.5934 27.7127C20.5621 27.2777 22.3896 26.3538 23.9069 25.0261C25.4243 23.6984 26.5826 22.0098 27.2751 20.1162C27.3361 19.9497 27.3517 19.7698 27.3202 19.5952C27.2888 19.4206 27.2115 19.2575 27.0962 19.1226C26.9809 18.9878 26.8319 18.886 26.6643 18.8278C26.4967 18.7695 26.3166 18.7569 26.1426 18.7913Z" fill="white"/>
<path d="M70.5001 12C70.5001 12.3978 70.3421 12.7794 70.0607 13.0607C69.7794 13.342 69.3979 13.5 69.0001 13.5H67.5001V15C67.5001 15.3978 67.3421 15.7794 67.0607 16.0607C66.7794 16.342 66.3979 16.5 66.0001 16.5C65.6023 16.5 65.2207 16.342 64.9394 16.0607C64.6581 15.7794 64.5001 15.3978 64.5001 15V13.5H63.0001C62.6023 13.5 62.2207 13.342 61.9394 13.0607C61.6581 12.7794 61.5001 12.3978 61.5001 12C61.5001 11.6022 61.6581 11.2206 61.9394 10.9393C62.2207 10.658 62.6023 10.5 63.0001 10.5H64.5001V9C64.5001 8.60218 64.6581 8.22064 64.9394 7.93934C65.2207 7.65804 65.6023 7.5 66.0001 7.5C66.3979 7.5 66.7794 7.65804 67.0607 7.93934C67.3421 8.22064 67.5001 8.60218 67.5001 9V10.5H69.0001C69.3979 10.5 69.7794 10.658 70.0607 10.9393C70.3421 11.2206 70.5001 11.6022 70.5001 12ZM58.0001 7.5H58.5001V8C58.5001 8.39782 58.6581 8.77936 58.9394 9.06066C59.2207 9.34196 59.6023 9.5 60.0001 9.5C60.3979 9.5 60.7794 9.34196 61.0607 9.06066C61.3421 8.77936 61.5001 8.39782 61.5001 8V7.5H62.0001C62.3979 7.5 62.7794 7.34196 63.0607 7.06066C63.3421 6.77936 63.5001 6.39782 63.5001 6C63.5001 5.60218 63.3421 5.22064 63.0607 4.93934C62.7794 4.65804 62.3979 4.5 62.0001 4.5H61.5001V4C61.5001 3.60218 61.3421 3.22064 61.0607 2.93934C60.7794 2.65804 60.3979 2.5 60.0001 2.5C59.6023 2.5 59.2207 2.65804 58.9394 2.93934C58.6581 3.22064 58.5001 3.60218 58.5001 4V4.5H58.0001C57.6023 4.5 57.2207 4.65804 56.9394 4.93934C56.6581 5.22064 56.5001 5.60218 56.5001 6C56.5001 6.39782 56.6581 6.77936 56.9394 7.06066C57.2207 7.34196 57.6023 7.5 58.0001 7.5ZM67.4763 18.7975C67.6501 18.9992 67.767 19.2435 67.8151 19.5054C67.8632 19.7673 67.8408 20.0372 67.7501 20.2875C67.0278 22.2588 65.8205 24.0165 64.2398 25.3982C62.659 26.78 60.7557 27.7413 58.7055 28.1935C56.6553 28.6457 54.5242 28.5742 52.5088 27.9856C50.4935 27.397 48.6589 26.3103 47.1743 24.8257C45.6898 23.3412 44.603 21.5066 44.0145 19.4912C43.4259 17.4759 43.3544 15.3448 43.8066 13.2946C44.2588 11.2443 45.2201 9.34104 46.6019 7.76031C47.9836 6.17957 49.7412 4.97233 51.7126 4.25C51.9625 4.15868 52.2323 4.13549 52.4941 4.18282C52.756 4.23015 53.0005 4.34628 53.2027 4.51931C53.4049 4.69234 53.5574 4.91604 53.6446 5.16746C53.7317 5.41887 53.7505 5.68896 53.6988 5.95C53.5664 6.6253 53.4999 7.31185 53.5001 8C53.5031 10.7839 54.6103 13.4528 56.5788 15.4213C58.5472 17.3898 61.2162 18.497 64.0001 18.5C64.687 18.4999 65.3723 18.4333 66.0463 18.3013C66.3073 18.2498 66.5772 18.2686 66.8285 18.3558C67.0798 18.443 67.3034 18.5954 67.4763 18.7975ZM63.7501 21.5C60.2573 21.4318 56.9266 20.014 54.4563 17.5438C51.9861 15.0735 50.5682 11.7428 50.5001 8.25C49.3759 9.05128 48.4399 10.0879 47.7571 11.2878C47.0744 12.4877 46.6614 13.8219 46.5468 15.1977C46.4323 16.5734 46.6189 17.9576 47.0938 19.2539C47.5687 20.5502 48.3204 21.7274 49.2965 22.7035C50.2727 23.6797 51.4499 24.4314 52.7462 24.9063C54.0424 25.3812 55.4266 25.5678 56.8024 25.4533C58.1781 25.3387 59.5124 24.9257 60.7123 24.2429C61.9121 23.5602 62.9488 22.6242 63.7501 21.5Z" fill="white"/>
</g>
<defs>
<clipPath id="clip0_27_2219">
<rect width="72" height="32" rx="5" fill="white"/>
</clipPath>
</defs>
</svg>
