<svg width="72" height="32" viewBox="0 0 72 32" fill="none" xmlns="http://www.w3.org/2000/svg">
<g clip-path="url(#clip0_27_6730)">
<path d="M27 16C26.7375 15.9999 26.4754 16.0208 26.2162 16.0625L21.9363 4.64875C21.8648 4.45818 21.7368 4.29397 21.5695 4.17804C21.4022 4.06212 21.2035 4.00001 21 4H17C16.7348 4 16.4804 4.10536 16.2929 4.29289C16.1054 4.48043 16 4.73478 16 5C16 5.26522 16.1054 5.51957 16.2929 5.70711C16.4804 5.89464 16.7348 6 17 6H20.3075L24.345 16.7663C23.7711 17.1255 23.276 17.5972 22.8893 18.153C22.5026 18.7088 22.2324 19.337 22.095 20H17.0675L13.9425 11.6488C13.8706 11.4572 13.7417 11.2923 13.5732 11.1763C13.4047 11.0602 13.2046 10.9987 13 11H3C2.73478 11 2.48043 11.1054 2.29289 11.2929C2.10536 11.4804 2 11.7348 2 12C2 12.2652 2.10536 12.5196 2.29289 12.7071C2.48043 12.8946 2.73478 13 3 13H4V14.6737C2.80402 15.243 1.79365 16.1393 1.08578 17.2588C0.377915 18.3784 0.00147034 19.6754 0 21C0 21.2652 0.105357 21.5196 0.292893 21.7071C0.48043 21.8946 0.734784 22 1 22H2.1C2.32951 23.1303 2.94273 24.1465 3.83574 24.8764C4.72875 25.6063 5.84664 26.005 7 26.005C8.15336 26.005 9.27125 25.6063 10.1643 24.8764C11.0573 24.1465 11.6705 23.1303 11.9 22H22.1C22.2892 22.9269 22.7375 23.7811 23.3928 24.4634C24.0481 25.1458 24.8835 25.6282 25.8021 25.8546C26.7206 26.0811 27.6845 26.0423 28.5819 25.7428C29.4792 25.4433 30.2732 24.8954 30.8716 24.1627C31.47 23.4299 31.8483 22.5425 31.9624 21.6034C32.0766 20.6642 31.922 19.712 31.5166 18.8573C31.1112 18.0025 30.4716 17.2803 29.6721 16.7745C28.8726 16.2688 27.946 16.0002 27 16ZM7 24C6.37977 23.9998 5.77485 23.8074 5.2685 23.4492C4.76214 23.0911 4.37924 22.5848 4.1725 22H9.8275C9.62076 22.5848 9.23786 23.0911 8.7315 23.4492C8.22515 23.8074 7.62023 23.9998 7 24ZM27 24C26.385 23.9993 25.7851 23.8097 25.2816 23.4567C24.778 23.1038 24.395 22.6046 24.1845 22.0268C23.974 21.449 23.9462 20.8204 24.1048 20.2263C24.2634 19.6321 24.6008 19.1011 25.0713 18.705L26.0637 21.3512C26.1099 21.4744 26.1798 21.5872 26.2695 21.6833C26.3593 21.7794 26.467 21.8568 26.5867 21.9113C26.7064 21.9657 26.8356 21.9961 26.967 22.0006C27.0984 22.0051 27.2294 21.9836 27.3525 21.9375C27.4756 21.8914 27.5884 21.8214 27.6845 21.7317C27.7806 21.642 27.8581 21.5342 27.9125 21.4145C27.967 21.2949 27.9973 21.1656 28.0018 21.0343C28.0063 20.9029 27.9849 20.7719 27.9387 20.6488L26.9438 18H27C27.7956 18 28.5587 18.3161 29.1213 18.8787C29.6839 19.4413 30 20.2044 30 21C30 21.7956 29.6839 22.5587 29.1213 23.1213C28.5587 23.6839 27.7956 24 27 24Z" fill="white"/>
<path d="M66.5 15.5C66.3475 15.5 66.1963 15.5075 66.0475 15.52L61.905 4.47375C61.7978 4.18768 61.6059 3.94116 61.3548 3.76715C61.1037 3.59313 60.8055 3.49993 60.5 3.5H56.5C56.1022 3.5 55.7206 3.65804 55.4393 3.93934C55.158 4.22064 55 4.60218 55 5C55 5.39782 55.158 5.77936 55.4393 6.06066C55.7206 6.34196 56.1022 6.5 56.5 6.5H59.46L63.2388 16.575C62.4021 17.1922 61.7562 18.0327 61.375 19H57.725L54.905 11.4738C54.7978 11.1877 54.6059 10.9412 54.3548 10.7671C54.1037 10.5931 53.8055 10.4999 53.5 10.5H43.5C43.1022 10.5 42.7206 10.658 42.4393 10.9393C42.158 11.2206 42 11.6022 42 12C42 12.3978 42.158 12.7794 42.4393 13.0607C42.7206 13.342 43.1022 13.5 43.5 13.5H44V13.865C42.7937 14.5036 41.7841 15.4586 41.0794 16.6275C40.3748 17.7964 40.0016 19.1351 40 20.5C40 20.8978 40.158 21.2794 40.4393 21.5607C40.7206 21.842 41.1022 22 41.5 22H42.0925C42.3271 23.2628 42.9962 24.4037 43.9839 25.2249C44.9716 26.046 46.2156 26.4955 47.5 26.4955C48.7844 26.4955 50.0284 26.046 51.0161 25.2249C52.0038 24.4037 52.6729 23.2628 52.9075 22H61.0925C61.2825 23.0276 61.7614 23.9799 62.473 24.7452C63.1846 25.5105 64.0995 26.0573 65.1106 26.3214C66.1217 26.5856 67.1872 26.5562 68.1822 26.2367C69.1772 25.9172 70.0606 25.3209 70.729 24.5175C71.3973 23.7141 71.823 22.7369 71.956 21.7004C72.0891 20.6639 71.9241 19.6109 71.4804 18.6647C71.0367 17.7185 70.3326 16.9184 69.4505 16.3579C68.5685 15.7974 67.545 15.4998 66.5 15.5ZM46 16.2563C46.2926 16.1528 46.5459 15.9612 46.725 15.7077C46.9041 15.4543 47.0002 15.1516 47 14.8413V13.5H52.46L54.5225 19H43.2575C43.4811 18.3671 43.8434 17.7922 44.3179 17.3174C44.7924 16.8427 45.3672 16.4801 46 16.2563ZM47.5 23.5C47.0138 23.4998 46.5382 23.3577 46.1314 23.0913C45.7247 22.8249 45.4045 22.4456 45.21 22H49.79C49.5955 22.4456 49.2753 22.8249 48.8686 23.0913C48.4618 23.3577 47.9862 23.4998 47.5 23.5ZM66.5 23.5C66.0055 23.5 65.5222 23.3534 65.1111 23.0787C64.7 22.804 64.3795 22.4135 64.1903 21.9567C64.0011 21.4999 63.9516 20.9972 64.048 20.5123C64.1445 20.0273 64.3826 19.5819 64.7322 19.2322C65.0819 18.8826 65.5273 18.6445 66.0123 18.548C66.4972 18.4516 66.9999 18.5011 67.4567 18.6903C67.9135 18.8795 68.304 19.2 68.5787 19.6111C68.8534 20.0222 69 20.5055 69 21C69 21.663 68.7366 22.2989 68.2678 22.7678C67.7989 23.2366 67.163 23.5 66.5 23.5Z" fill="white"/>
</g>
<defs>
<clipPath id="clip0_27_6730">
<rect width="72" height="32" rx="5" fill="white"/>
</clipPath>
</defs>
</svg>
