<svg width="72" height="32" viewBox="0 0 72 32" fill="none" xmlns="http://www.w3.org/2000/svg">
<g clip-path="url(#clip0_27_6740)">
<path d="M28 16C27.6593 15.9999 27.321 16.0583 27 16.1725V16C27 10.7775 23.1163 8.1925 20.28 6.305C18.52 5.1325 17 4.125 17 3C17 2.73478 16.8946 2.48043 16.7071 2.29289C16.5196 2.10536 16.2652 2 16 2C15.7348 2 15.4804 2.10536 15.2929 2.29289C15.1054 2.48043 15 2.73478 15 3C15 4.125 13.48 5.1325 11.72 6.305C8.88375 8.1925 5 10.7775 5 16V16.1725C4.54758 16.0125 4.06339 15.9635 3.58807 16.0293C3.11275 16.0952 2.66018 16.2742 2.26833 16.5512C1.87648 16.8282 1.55679 17.1951 1.3361 17.6212C1.11541 18.0473 1.00015 18.5201 1 19V26C1 26.2652 1.10536 26.5196 1.29289 26.7071C1.48043 26.8946 1.73478 27 2 27H9C9.26522 27 9.51957 26.8946 9.70711 26.7071C9.89464 26.5196 10 26.2652 10 26V22C10 21.4696 10.2107 20.9609 10.5858 20.5858C10.9609 20.2107 11.4696 20 12 20C12.5304 20 13.0391 20.2107 13.4142 20.5858C13.7893 20.9609 14 21.4696 14 22V26C14 26.2652 14.1054 26.5196 14.2929 26.7071C14.4804 26.8946 14.7348 27 15 27H17C17.2652 27 17.5196 26.8946 17.7071 26.7071C17.8946 26.5196 18 26.2652 18 26V22C18 21.4696 18.2107 20.9609 18.5858 20.5858C18.9609 20.2107 19.4696 20 20 20C20.5304 20 21.0391 20.2107 21.4142 20.5858C21.7893 20.9609 22 21.4696 22 22V26C22 26.2652 22.1054 26.5196 22.2929 26.7071C22.4804 26.8946 22.7348 27 23 27H30C30.2652 27 30.5196 26.8946 30.7071 26.7071C30.8946 26.5196 31 26.2652 31 26V19C31 18.2044 30.6839 17.4413 30.1213 16.8787C29.5587 16.3161 28.7956 16 28 16ZM5 25H3V19C3 18.7348 3.10536 18.4804 3.29289 18.2929C3.48043 18.1054 3.73478 18 4 18C4.26522 18 4.51957 18.1054 4.70711 18.2929C4.89464 18.4804 5 18.7348 5 19V25ZM29 25H27V19C27 18.7348 27.1054 18.4804 27.2929 18.2929C27.4804 18.1054 27.7348 18 28 18C28.2652 18 28.5196 18.1054 28.7071 18.2929C28.8946 18.4804 29 18.7348 29 19V25Z" fill="white"/>
<path d="M67.5 15.5C67.1602 15.4987 66.8217 15.5407 66.4925 15.625C66.3313 10.4325 62.8237 7.835 60.2425 5.9275C58.7725 4.84125 57.5 3.90125 57.5 3C57.5 2.60218 57.342 2.22064 57.0607 1.93934C56.7794 1.65804 56.3978 1.5 56 1.5C55.6022 1.5 55.2206 1.65804 54.9393 1.93934C54.658 2.22064 54.5 2.60218 54.5 3C54.5 3.90125 53.2275 4.84125 51.75 5.93125C49.1713 7.83875 45.6638 10.4312 45.5 15.6287C44.9091 15.4762 44.291 15.4608 43.6932 15.5839C43.0955 15.707 42.5338 15.9653 42.0512 16.3389C41.5686 16.7126 41.1779 17.1917 40.9091 17.7396C40.6402 18.2875 40.5003 18.8897 40.5 19.5V26C40.5 26.3978 40.658 26.7794 40.9393 27.0607C41.2206 27.342 41.6022 27.5 42 27.5H70C70.3978 27.5 70.7794 27.342 71.0607 27.0607C71.342 26.7794 71.5 26.3978 71.5 26V19.5C71.5 18.4391 71.0786 17.4217 70.3284 16.6716C69.5783 15.9214 68.5609 15.5 67.5 15.5ZM45.5 24.5H43.5V19.5C43.5 19.2348 43.6054 18.9804 43.7929 18.7929C43.9804 18.6054 44.2348 18.5 44.5 18.5C44.7652 18.5 45.0196 18.6054 45.2071 18.7929C45.3946 18.9804 45.5 19.2348 45.5 19.5V24.5ZM53.5387 8.3425C54.4137 7.7 55.2887 7.0475 56 6.30875C56.71 7.0475 57.5925 7.7 58.4613 8.3425C60.6 9.925 62.8 11.555 63.3625 14.5H48.6375C49.2 11.555 51.4 9.925 53.5387 8.3425ZM63.5 24.5H60.5V21C60.5 20.6022 60.342 20.2206 60.0607 19.9393C59.7794 19.658 59.3978 19.5 59 19.5C58.6022 19.5 58.2206 19.658 57.9393 19.9393C57.658 20.2206 57.5 20.6022 57.5 21V24.5H54.5V21C54.5 20.6022 54.342 20.2206 54.0607 19.9393C53.7794 19.658 53.3978 19.5 53 19.5C52.6022 19.5 52.2206 19.658 51.9393 19.9393C51.658 20.2206 51.5 20.6022 51.5 21V24.5H48.5V17.5H63.5V24.5ZM68.5 24.5H66.5V19.5C66.5 19.2348 66.6054 18.9804 66.7929 18.7929C66.9804 18.6054 67.2348 18.5 67.5 18.5C67.7652 18.5 68.0196 18.6054 68.2071 18.7929C68.3946 18.9804 68.5 19.2348 68.5 19.5V24.5Z" fill="white"/>
</g>
<defs>
<clipPath id="clip0_27_6740">
<rect width="72" height="32" rx="5" fill="white"/>
</clipPath>
</defs>
</svg>
