<svg width="72" height="32" viewBox="0 0 72 32" fill="none" xmlns="http://www.w3.org/2000/svg">
<g clip-path="url(#clip0_27_6745)">
<path d="M27.0009 15C26.7245 15.0006 26.4486 15.0236 26.1759 15.0688L25.4484 13.1763C25.9577 13.0594 26.4785 13.0002 27.0009 13C27.2661 13 27.5205 12.8946 27.708 12.7071C27.8956 12.5196 28.0009 12.2652 28.0009 12C28.0009 11.7348 27.8956 11.4804 27.708 11.2929C27.5205 11.1054 27.2661 11 27.0009 11H24.6109L22.9347 6.64125C22.8621 6.45248 22.7341 6.29015 22.5674 6.17567C22.4007 6.06119 22.2032 5.99994 22.0009 6H18.0009C17.7357 6 17.4814 6.10536 17.2938 6.29289C17.1063 6.48043 17.0009 6.73478 17.0009 7C17.0009 7.26522 17.1063 7.51957 17.2938 7.70711C17.4814 7.89464 17.7357 8 18.0009 8H21.3147L22.4684 11H19.0009C16.6884 11 14.8134 11.5387 13.5797 12.5575C13.2894 12.7917 12.9393 12.9401 12.5691 12.9858C12.1989 13.0315 11.8233 12.9728 11.4847 12.8162C10.1622 12.215 2.32343 9.05125 2.25968 9.03375C2.01056 8.96053 1.74273 8.98707 1.51283 9.10777C1.28294 9.22847 1.109 9.43386 1.02782 9.6805C0.946631 9.92714 0.964563 10.1957 1.07782 10.4293C1.19108 10.663 1.39078 10.8434 1.63468 10.9325C1.63468 10.9325 8.57218 13.675 9.95093 15.05C11.0221 16.1168 11.7167 17.5034 11.9297 19H9.90093C9.65312 17.786 8.96334 16.7072 7.96534 15.9728C6.96734 15.2384 5.73221 14.9008 4.49941 15.0253C3.26661 15.1499 2.12396 15.7277 1.293 16.6468C0.462033 17.566 0.00195312 18.7609 0.00195312 20C0.00195312 21.2391 0.462033 22.434 1.293 23.3532C2.12396 24.2723 3.26661 24.8501 4.49941 24.9747C5.73221 25.0992 6.96734 24.7616 7.96534 24.0272C8.96334 23.2928 9.65312 22.214 9.90093 21H16.4159C17.2833 21.0019 18.1276 20.7211 18.821 20.2C19.5143 19.679 20.019 18.9461 20.2584 18.1125C20.5079 17.2258 20.9299 16.397 21.5002 15.6737C22.0706 14.9505 22.7781 14.3468 23.5822 13.8975L24.3097 15.7887C23.2961 16.4375 22.5506 17.43 22.2098 18.5841C21.869 19.7382 21.9559 20.9765 22.4545 22.0717C22.9531 23.1669 23.83 24.0456 24.9242 24.5464C26.0184 25.0472 27.2566 25.1366 28.4114 24.7982C29.5662 24.4597 30.5602 23.7161 31.2109 22.7039C31.8617 21.6917 32.1256 20.4787 31.9541 19.2876C31.7827 18.0965 31.1874 17.0072 30.2775 16.2196C29.3677 15.432 28.2043 14.999 27.0009 15ZM5.00093 21H7.82843C7.59254 21.6672 7.12836 22.2296 6.51795 22.5876C5.90754 22.9457 5.1902 23.0765 4.4927 22.9568C3.7952 22.8371 3.16247 22.4747 2.70633 21.9337C2.25019 21.3926 2.00001 20.7077 2.00001 20C2.00001 19.2923 2.25019 18.6074 2.70633 18.0663C3.16247 17.5253 3.7952 17.1629 4.4927 17.0432C5.1902 16.9235 5.90754 17.0543 6.51795 17.4124C7.12836 17.7704 7.59254 18.3328 7.82843 19H5.00093C4.73572 19 4.48136 19.1054 4.29383 19.2929C4.10629 19.4804 4.00093 19.7348 4.00093 20C4.00093 20.2652 4.10629 20.5196 4.29383 20.7071C4.48136 20.8946 4.73572 21 5.00093 21ZM27.0009 23C26.3881 22.9992 25.7903 22.8108 25.2878 22.4601C24.7853 22.1095 24.4022 21.6133 24.1901 21.0384C23.978 20.4635 23.947 19.8374 24.1014 19.2444C24.2557 18.6514 24.588 18.1198 25.0534 17.7213L26.0672 20.3587C26.1623 20.6064 26.352 20.8061 26.5943 20.9139C26.8367 21.0218 27.112 21.0289 27.3597 20.9338C27.6073 20.8386 27.807 20.649 27.9149 20.4066C28.0227 20.1642 28.0298 19.8889 27.9347 19.6413L26.9197 17H27.0009C27.7966 17 28.5596 17.3161 29.1223 17.8787C29.6849 18.4413 30.0009 19.2044 30.0009 20C30.0009 20.7956 29.6849 21.5587 29.1223 22.1213C28.5596 22.6839 27.7966 23 27.0009 23Z" fill="white"/>
<path d="M65.9995 14C65.9282 14 65.8582 14 65.7882 14L65.3507 12.525C65.5645 12.5063 65.7807 12.495 65.9995 12.495C66.3973 12.495 66.7788 12.337 67.0601 12.0557C67.3414 11.7744 67.4995 11.3928 67.4995 10.995C67.4995 10.5972 67.3414 10.2156 67.0601 9.93434C66.7788 9.65304 66.3973 9.495 65.9995 9.495H64.4532L63.4382 6.06875C63.3454 5.75948 63.1552 5.48842 62.896 5.29587C62.6368 5.10332 62.3224 4.99955 61.9995 5H57.9995C57.6017 5 57.2201 5.15804 56.9388 5.43934C56.6575 5.72065 56.4995 6.10218 56.4995 6.5C56.4995 6.89783 56.6575 7.27936 56.9388 7.56066C57.2201 7.84197 57.6017 8 57.9995 8H60.8745L61.3195 9.5H58.9995C56.5695 9.5 54.5845 10.0775 53.2595 11.1713C53.0414 11.346 52.7789 11.4564 52.5015 11.49C52.2242 11.5235 51.9429 11.479 51.6895 11.3613C50.0482 10.6113 44.5407 8.23625 43.9832 8L43.3245 7.72C43.3245 7.72 42.7995 7.5 42.4995 7.5C42.1526 7.49994 41.8164 7.6201 41.5482 7.84003C41.28 8.05995 41.0962 8.36604 41.0283 8.7062C40.9603 9.04635 41.0124 9.39953 41.1756 9.70563C41.3387 10.0117 41.6029 10.2518 41.9232 10.385C42.1382 10.4763 47.382 12.6975 50.4482 14.0925C51.0373 14.3593 51.6766 14.497 52.3232 14.4963C53.361 14.4997 54.3676 14.1422 55.1707 13.485C55.8882 12.8938 57.1182 12.55 58.657 12.505C57.0095 14.1161 55.9377 16.2245 55.607 18.505H51.8095C51.4444 17.091 50.5761 15.8587 49.3675 15.0391C48.1588 14.2195 46.6927 13.8688 45.244 14.0528C43.7953 14.2368 42.4634 14.9429 41.498 16.0387C40.5326 17.1344 40 18.5446 40 20.005C40 21.4654 40.5326 22.8756 41.498 23.9714C42.4634 25.0671 43.7953 25.7732 45.244 25.9572C46.6927 26.1412 48.1588 25.7905 49.3675 24.9709C50.5761 24.1513 51.4444 22.919 51.8095 21.505H56.9995C57.3973 21.505 57.7788 21.347 58.0601 21.0657C58.3414 20.7844 58.4995 20.4028 58.4995 20.005C58.4999 18.6452 58.87 17.3112 59.5702 16.1456C60.2704 14.9799 61.2743 14.0266 62.4745 13.3875L62.912 14.8625C61.6694 15.6121 60.7406 16.7867 60.2977 18.1687C59.8547 19.5506 59.9277 21.0463 60.503 22.3785C61.0783 23.7108 62.1169 24.7895 63.4265 25.4147C64.7362 26.0398 66.228 26.1692 67.6257 25.7787C69.0234 25.3883 70.2322 24.5045 71.0282 23.2911C71.8242 22.0777 72.1535 20.617 71.955 19.1794C71.7565 17.7418 71.0438 16.4249 69.9487 15.4726C68.8537 14.5203 67.4507 13.9971 65.9995 14ZM45.9995 21.5H48.5957C48.2655 22.0719 47.7558 22.5189 47.1457 22.7716C46.5356 23.0244 45.8591 23.0687 45.2212 22.8978C44.5833 22.7269 44.0196 22.3502 43.6176 21.8263C43.2156 21.3024 42.9976 20.6604 42.9976 20C42.9976 19.3396 43.2156 18.6976 43.6176 18.1737C44.0196 17.6498 44.5833 17.2731 45.2212 17.1022C45.8591 16.9313 46.5356 16.9756 47.1457 17.2284C47.7558 17.4811 48.2655 17.9281 48.5957 18.5H45.9995C45.6017 18.5 45.2201 18.658 44.9388 18.9393C44.6575 19.2206 44.4995 19.6022 44.4995 20C44.4995 20.3978 44.6575 20.7794 44.9388 21.0607C45.2201 21.342 45.6017 21.5 45.9995 21.5ZM65.9995 23C65.4134 22.9993 64.8404 22.827 64.3512 22.5043C63.862 22.1816 63.478 21.7227 63.2466 21.1842C63.0153 20.6458 62.9468 20.0513 63.0494 19.4743C63.1521 18.8974 63.4216 18.3631 63.8245 17.9375L64.5607 20.4263C64.6527 20.7365 64.8424 21.0086 65.1017 21.2021C65.361 21.3956 65.6759 21.5001 65.9995 21.5C66.1437 21.4997 66.2872 21.4791 66.4257 21.4388C66.6147 21.3828 66.7908 21.2902 66.944 21.1662C67.0972 21.0422 67.2244 20.8893 67.3184 20.7161C67.4125 20.5429 67.4714 20.3528 67.492 20.1568C67.5125 19.9608 67.4943 19.7627 67.4382 19.5738L66.6995 17.0838C67.4129 17.256 68.0385 17.6837 68.4578 18.2861C68.8771 18.8885 69.061 19.6236 68.9748 20.3525C68.8886 21.0814 68.5381 21.7533 67.9898 22.2412C67.4415 22.7291 66.7334 22.999 65.9995 23Z" fill="white"/>
</g>
<defs>
<clipPath id="clip0_27_6745">
<rect width="72" height="32" rx="5" fill="white"/>
</clipPath>
</defs>
</svg>
