<svg width="72" height="32" viewBox="0 0 72 32" fill="none" xmlns="http://www.w3.org/2000/svg">
<g clip-path="url(#clip0_27_2224)">
<path d="M31.8599 24.49L25.0399 12.98C24.864 12.6802 24.6124 12.4318 24.3103 12.2598C24.0082 12.0878 23.6663 11.9982 23.3186 12C22.9712 11.9982 22.6294 12.0878 22.3275 12.2598C22.0256 12.4318 21.7742 12.6802 21.5986 12.98L19.6436 16.2788C19.5981 16.3558 19.5741 16.4436 19.5741 16.5331C19.5741 16.6226 19.5981 16.7105 19.6436 16.7875L22.9936 22.4713C23.1209 22.6823 23.1671 22.9325 23.1236 23.1751C23.0801 23.4177 22.95 23.6362 22.7574 23.79C22.6451 23.8772 22.5156 23.9394 22.3774 23.9725C22.2392 24.0057 22.0956 24.009 21.956 23.9823C21.8164 23.9555 21.6842 23.8994 21.568 23.8175C21.4519 23.7356 21.3545 23.63 21.2824 23.5075L12.7236 8.985C12.547 8.68483 12.2951 8.43598 11.9927 8.26309C11.6904 8.09019 11.3482 7.99924 10.9999 7.99924C10.6516 7.99924 10.3094 8.09019 10.007 8.26309C9.7047 8.43598 9.45276 8.68483 9.27614 8.985L0.138641 24.4925C0.0283895 24.6778 -0.0190069 24.8938 0.0035197 25.1083C0.0260462 25.3227 0.117289 25.5241 0.26364 25.6825C0.362189 25.7855 0.481082 25.867 0.612776 25.9216C0.744469 25.9763 0.886086 26.003 1.02864 26H30.9711C31.1131 26.0019 31.2539 25.9745 31.3849 25.9197C31.5158 25.8648 31.6341 25.7837 31.7324 25.6813C31.8794 25.5231 31.9713 25.3216 31.9943 25.1068C32.0173 24.8921 31.9701 24.6757 31.8599 24.49ZM8.05364 15L10.9999 10L13.9461 15H8.05364ZM17.4999 6.5C17.4999 5.90666 17.6758 5.32664 18.0055 4.83329C18.3351 4.33994 18.8037 3.95543 19.3518 3.72836C19.9 3.5013 20.5032 3.44189 21.0852 3.55765C21.6671 3.6734 22.2017 3.95912 22.6212 4.37868C23.0408 4.79824 23.3265 5.33279 23.4422 5.91473C23.558 6.49667 23.4986 7.09987 23.2715 7.64805C23.0445 8.19623 22.6599 8.66477 22.1666 8.99441C21.6733 9.32405 21.0932 9.5 20.4999 9.5C19.7042 9.5 18.9412 9.18393 18.3786 8.62132C17.816 8.05871 17.4999 7.29565 17.4999 6.5Z" fill="white"/>
<path d="M60 10C60.7911 10 61.5645 9.76541 62.2223 9.32588C62.8801 8.88635 63.3928 8.26164 63.6955 7.53074C63.9983 6.79983 64.0775 5.99556 63.9232 5.21964C63.7688 4.44372 63.3879 3.73098 62.8284 3.17157C62.269 2.61216 61.5563 2.2312 60.7804 2.07686C60.0045 1.92252 59.2002 2.00173 58.4693 2.30448C57.7384 2.60723 57.1137 3.11992 56.6741 3.77772C56.2346 4.43552 56 5.20888 56 6C56 7.06087 56.4215 8.07828 57.1716 8.82843C57.9217 9.57857 58.9392 10 60 10ZM60 5C60.1978 5 60.3911 5.05865 60.5556 5.16853C60.72 5.27841 60.8482 5.43459 60.9239 5.61732C60.9996 5.80004 61.0194 6.00111 60.9808 6.19509C60.9422 6.38907 60.847 6.56726 60.7071 6.70711C60.5673 6.84696 60.3891 6.9422 60.1951 6.98079C60.0011 7.01937 59.8001 6.99957 59.6173 6.92388C59.4346 6.84819 59.2784 6.72002 59.1686 6.55557C59.0587 6.39112 59 6.19778 59 6C59 5.73479 59.1054 5.48043 59.2929 5.2929C59.4805 5.10536 59.7348 5 60 5ZM71.79 24.235L64.97 12.725C64.7501 12.3504 64.4356 12.04 64.0581 11.825C63.6806 11.6101 63.2532 11.498 62.8188 11.5C62.3845 11.498 61.9573 11.61 61.58 11.825C61.2027 12.04 60.8884 12.3504 60.6688 12.725L58.3313 16.6688L53.6538 8.73125C53.4329 8.35647 53.118 8.04581 52.7403 7.82999C52.3626 7.61417 51.9351 7.50065 51.5 7.50065C51.065 7.50065 50.6375 7.61417 50.2598 7.82999C49.882 8.04581 49.5672 8.35647 49.3463 8.73125L40.2075 24.2388C40.0733 24.4666 40.0018 24.7258 40 24.9902C39.9983 25.2546 40.0665 25.5148 40.1977 25.7444C40.3289 25.9739 40.5185 26.1647 40.7472 26.2974C40.9759 26.4301 41.2356 26.5 41.5 26.5H70.5C70.7648 26.5 71.0248 26.4298 71.2537 26.2968C71.4826 26.1637 71.6722 25.9724 71.8032 25.7423C71.9342 25.5123 72.002 25.2516 71.9997 24.9869C71.9974 24.7222 71.925 24.4627 71.79 24.235ZM51.5 10.9838L53.5713 14.5H49.4288L51.5 10.9838ZM44.125 23.5L47.66 17.5H55.34L58.875 23.5H44.125ZM62.3575 23.5L60.07 19.625L62.82 14.9875L67.8675 23.5H62.3575Z" fill="white"/>
</g>
<defs>
<clipPath id="clip0_27_2224">
<rect width="72" height="32" rx="5" fill="white"/>
</clipPath>
</defs>
</svg>
