<svg width="72" height="32" viewBox="0 0 72 32" fill="none" xmlns="http://www.w3.org/2000/svg">
<g clip-path="url(#clip0_27_2941)">
<path d="M18 2H14C11.879 2.00232 9.84549 2.84591 8.3457 4.3457C6.84591 5.84549 6.00232 7.87898 6 10V22C6.00232 24.121 6.84591 26.1545 8.3457 27.6543C9.84549 29.1541 11.879 29.9977 14 30H18C20.121 29.9977 22.1545 29.1541 23.6543 27.6543C25.1541 26.1545 25.9977 24.121 26 22V10C25.9977 7.87898 25.1541 5.84549 23.6543 4.3457C22.1545 2.84591 20.121 2.00232 18 2ZM18.2925 20.2925C18.4801 20.1049 18.7346 19.9994 19 19.9994C19.2654 19.9994 19.5199 20.1049 19.7075 20.2925C19.8951 20.4801 20.0006 20.7346 20.0006 21C20.0006 21.2654 19.8951 21.5199 19.7075 21.7075L16.7075 24.7075C16.6146 24.8005 16.5043 24.8742 16.3829 24.9246C16.2615 24.9749 16.1314 25.0008 16 25.0008C15.8686 25.0008 15.7385 24.9749 15.6171 24.9246C15.4957 24.8742 15.3854 24.8005 15.2925 24.7075L12.2925 21.7075C12.1049 21.5199 11.9994 21.2654 11.9994 21C11.9994 20.7346 12.1049 20.4801 12.2925 20.2925C12.4801 20.1049 12.7346 19.9994 13 19.9994C13.2654 19.9994 13.5199 20.1049 13.7075 20.2925L15 21.5863V10.4137L13.7075 11.7075C13.5199 11.8951 13.2654 12.0006 13 12.0006C12.7346 12.0006 12.4801 11.8951 12.2925 11.7075C12.1049 11.5199 11.9994 11.2654 11.9994 11C11.9994 10.7346 12.1049 10.4801 12.2925 10.2925L15.2925 7.2925C15.3854 7.19952 15.4957 7.12576 15.6171 7.07544C15.7385 7.02512 15.8686 6.99921 16 6.99921C16.1314 6.99921 16.2615 7.02512 16.3829 7.07544C16.5043 7.12576 16.6146 7.19952 16.7075 7.2925L19.7075 10.2925C19.8004 10.3854 19.8741 10.4957 19.9244 10.6171C19.9747 10.7385 20.0006 10.8686 20.0006 11C20.0006 11.1314 19.9747 11.2615 19.9244 11.3829C19.8741 11.5043 19.8004 11.6146 19.7075 11.7075C19.6146 11.8004 19.5043 11.8741 19.3829 11.9244C19.2615 11.9747 19.1314 12.0006 19 12.0006C18.8686 12.0006 18.7385 11.9747 18.6171 11.9244C18.4957 11.8741 18.3854 11.8004 18.2925 11.7075L17 10.4137V21.5863L18.2925 20.2925Z" fill="white"/>
<path d="M58 1.5H54C51.7464 1.50232 49.5857 2.39859 47.9922 3.99215C46.3986 5.58571 45.5023 7.74637 45.5 10V22C45.5023 24.2536 46.3986 26.4143 47.9922 28.0078C49.5857 29.6014 51.7464 30.4977 54 30.5H58C60.2536 30.4977 62.4143 29.6014 64.0078 28.0078C65.6014 26.4143 66.4977 24.2536 66.5 22V10C66.4977 7.74637 65.6014 5.58571 64.0078 3.99215C62.4143 2.39859 60.2536 1.50232 58 1.5ZM63.5 22C63.4983 23.4582 62.9184 24.8562 61.8873 25.8873C60.8562 26.9184 59.4582 27.4983 58 27.5H54C52.5418 27.4983 51.1438 26.9184 50.1127 25.8873C49.0816 24.8562 48.5017 23.4582 48.5 22V10C48.5017 8.54182 49.0816 7.14383 50.1127 6.11274C51.1438 5.08165 52.5418 4.50165 54 4.5H58C59.4582 4.50165 60.8562 5.08165 61.8873 6.11274C62.9184 7.14383 63.4983 8.54182 63.5 10V22ZM57.5 11.625V20.375L57.9387 19.935C58.2205 19.6532 58.6027 19.4949 59.0012 19.4949C59.3998 19.4949 59.782 19.6532 60.0637 19.935C60.3455 20.2168 60.5039 20.599 60.5039 20.9975C60.5039 21.396 60.3455 21.7782 60.0637 22.06L57.0637 25.06C56.9244 25.1998 56.7588 25.3108 56.5765 25.3865C56.3941 25.4622 56.1987 25.5012 56.0012 25.5012C55.8038 25.5012 55.6083 25.4622 55.426 25.3865C55.2437 25.3108 55.0781 25.1998 54.9388 25.06L51.9388 22.06C51.7992 21.9205 51.6885 21.7548 51.613 21.5725C51.5375 21.3902 51.4986 21.1948 51.4986 20.9975C51.4986 20.599 51.657 20.2168 51.9388 19.935C52.2205 19.6532 52.6027 19.4949 53.0013 19.4949C53.3998 19.4949 53.782 19.6532 54.0638 19.935L54.5 20.375V11.625L54.0612 12.065C53.7795 12.3468 53.3973 12.5051 52.9987 12.5051C52.6002 12.5051 52.218 12.3468 51.9362 12.065C51.6545 11.7832 51.4961 11.401 51.4961 11.0025C51.4961 10.604 51.6545 10.2218 51.9362 9.94L54.9362 6.94C55.0756 6.80016 55.2412 6.6892 55.4235 6.6135C55.6058 6.53779 55.8013 6.49882 55.9987 6.49882C56.1962 6.49882 56.3917 6.53779 56.574 6.6135C56.7563 6.6892 56.9219 6.80016 57.0613 6.94L60.0613 9.94C60.343 10.2218 60.5014 10.604 60.5014 11.0025C60.5014 11.401 60.343 11.7832 60.0613 12.065C59.7795 12.3468 59.3973 12.5051 58.9988 12.5051C58.6002 12.5051 58.218 12.3468 57.9363 12.065L57.5 11.625Z" fill="white"/>
</g>
<defs>
<clipPath id="clip0_27_2941">
<rect width="72" height="32" rx="5" fill="white"/>
</clipPath>
</defs>
</svg>
