<svg width="72" height="32" viewBox="0 0 72 32" fill="none" xmlns="http://www.w3.org/2000/svg">
<g clip-path="url(#clip0_27_2921)">
<path d="M18 2H14C11.879 2.00232 9.84549 2.84591 8.3457 4.3457C6.84591 5.84549 6.00232 7.87898 6 10V22C6.00232 24.121 6.84591 26.1545 8.3457 27.6543C9.84549 29.1541 11.879 29.9977 14 30H18C20.121 29.9977 22.1545 29.1541 23.6543 27.6543C25.1541 26.1545 25.9977 24.121 26 22V10C25.9977 7.87898 25.1541 5.84549 23.6543 4.3457C22.1545 2.84591 20.121 2.00232 18 2ZM24 10V13H17V4H18C19.5908 4.00165 21.116 4.63433 22.2408 5.75919C23.3657 6.88405 23.9983 8.40921 24 10ZM14 4H15V13H8V10C8.00165 8.40921 8.63433 6.88405 9.75919 5.75919C10.884 4.63433 12.4092 4.00165 14 4Z" fill="white"/>
<path d="M58 1.5H54C51.7464 1.50232 49.5857 2.39859 47.9922 3.99215C46.3986 5.58571 45.5023 7.74637 45.5 10V22C45.5023 24.2536 46.3986 26.4143 47.9922 28.0078C49.5857 29.6014 51.7464 30.4977 54 30.5H58C60.2536 30.4977 62.4143 29.6014 64.0078 28.0078C65.6014 26.4143 66.4977 24.2536 66.5 22V10C66.4977 7.74637 65.6014 5.58571 64.0078 3.99215C62.4143 2.39859 60.2536 1.50232 58 1.5ZM63.5 10V12.5H57.5V4.5H58C59.4582 4.50165 60.8562 5.08165 61.8873 6.11274C62.9184 7.14383 63.4983 8.54182 63.5 10ZM54 4.5H54.5V12.5H48.5V10C48.5017 8.54182 49.0816 7.14383 50.1127 6.11274C51.1438 5.08165 52.5418 4.50165 54 4.5ZM58 27.5H54C52.5418 27.4983 51.1438 26.9184 50.1127 25.8873C49.0816 24.8562 48.5017 23.4582 48.5 22V15.5H63.5V22C63.4983 23.4582 62.9184 24.8562 61.8873 25.8873C60.8562 26.9184 59.4582 27.4983 58 27.5Z" fill="white"/>
</g>
<defs>
<clipPath id="clip0_27_2921">
<rect width="72" height="32" rx="5" fill="white"/>
</clipPath>
</defs>
</svg>
