<svg width="72" height="32" viewBox="0 0 72 32" fill="none" xmlns="http://www.w3.org/2000/svg">
<g clip-path="url(#clip0_27_3854)">
<path d="M26.2875 7.04249L16.2875 4.04249C16.1382 3.99768 15.9805 3.98839 15.827 4.01536C15.6734 4.04233 15.5283 4.10483 15.4032 4.19785C15.2782 4.29087 15.1766 4.41185 15.1065 4.55112C15.0365 4.6904 15 4.84411 15 4.99999V18.5325C13.9759 17.6165 12.6684 17.0797 11.2961 17.0119C9.92376 16.9441 8.56974 17.3494 7.46031 18.16C6.35089 18.9706 5.55329 20.1374 5.2008 21.4654C4.84832 22.7934 4.96231 24.2022 5.52373 25.4562C6.08514 26.7103 7.05997 27.7337 8.28528 28.3554C9.5106 28.977 10.9122 29.1593 12.2557 28.8718C13.5993 28.5842 14.8035 27.8442 15.667 26.7755C16.5305 25.7067 17.0011 24.374 17 23V6.34374L25.7125 8.95749C25.8392 8.99877 25.9729 9.0143 26.1057 9.00317C26.2385 8.99204 26.3678 8.95447 26.4859 8.89268C26.6039 8.83089 26.7085 8.74612 26.7933 8.64335C26.8782 8.54058 26.9416 8.42188 26.98 8.29424C27.0183 8.1666 27.0307 8.03258 27.0165 7.90006C27.0023 7.76755 26.9618 7.63921 26.8972 7.5226C26.8327 7.40598 26.7456 7.30343 26.6408 7.22098C26.5361 7.13854 26.416 7.07785 26.2875 7.04249Z" fill="white"/>
<path d="M66.4313 6.56376L56.4313 3.56376C56.2073 3.49653 55.9707 3.48259 55.7404 3.52306C55.5101 3.56352 55.2925 3.65726 55.1049 3.79679C54.9173 3.93633 54.7648 4.11779 54.6598 4.3267C54.5548 4.53561 54.5001 4.76618 54.5 5.00001V17.5275C53.2836 16.7502 51.843 16.3999 50.4054 16.532C48.9679 16.664 47.6152 17.2709 46.5607 18.2568C45.5062 19.2428 44.81 20.5517 44.5818 21.9771C44.3535 23.4026 44.6063 24.8634 45.3003 26.1293C45.9942 27.3952 47.0898 28.394 48.4143 28.9683C49.7387 29.5426 51.2167 29.6596 52.615 29.3009C54.0133 28.9422 55.2525 28.1283 56.137 26.9874C57.0215 25.8465 57.5011 24.4436 57.5 23V7.01626L65.5688 9.43626C65.7575 9.49289 65.9556 9.51179 66.1517 9.49187C66.3478 9.47195 66.538 9.4136 66.7115 9.32016C66.8851 9.22672 67.0385 9.10002 67.1631 8.94729C67.2876 8.79455 67.3809 8.61878 67.4375 8.43001C67.4941 8.24123 67.513 8.04315 67.4931 7.84707C67.4732 7.65099 67.4149 7.46076 67.3214 7.28723C67.228 7.1137 67.1013 6.96027 66.9485 6.83571C66.7958 6.71115 66.62 6.61789 66.4313 6.56126V6.56376ZM51 26.5C50.3078 26.5 49.6311 26.2947 49.0555 25.9101C48.4799 25.5256 48.0313 24.9789 47.7664 24.3394C47.5015 23.6999 47.4322 22.9961 47.5673 22.3172C47.7023 21.6383 48.0357 21.0146 48.5251 20.5251C49.0146 20.0356 49.6383 19.7023 50.3172 19.5673C50.9961 19.4322 51.6999 19.5015 52.3394 19.7664C52.9789 20.0313 53.5256 20.4799 53.9102 21.0555C54.2947 21.6311 54.5 22.3078 54.5 23C54.5 23.9283 54.1313 24.8185 53.4749 25.4749C52.8185 26.1313 51.9283 26.5 51 26.5Z" fill="white"/>
</g>
<defs>
<clipPath id="clip0_27_3854">
<rect width="72" height="32" rx="5" fill="white"/>
</clipPath>
</defs>
</svg>
