<svg width="72" height="32" viewBox="0 0 72 32" fill="none" xmlns="http://www.w3.org/2000/svg">
<g clip-path="url(#clip0_27_3866)">
<path d="M28 5H22C21.7348 5 21.4804 5.10536 21.2929 5.29289C21.1054 5.48043 21 5.73478 21 6C21 6.26522 21.1054 6.51957 21.2929 6.70711C21.4804 6.89464 21.7348 7 22 7H28C28.2652 7 28.5196 6.89464 28.7071 6.70711C28.8946 6.51957 29 6.26522 29 6C29 5.73478 28.8946 5.48043 28.7071 5.29289C28.5196 5.10536 28.2652 5 28 5Z" fill="white"/>
<path d="M20.266 9.5625C19.3875 9.14918 18.6921 8.42646 18.313 7.53259C17.9338 6.63872 17.8975 5.63645 18.211 4.7175C18.2405 4.63295 18.2467 4.54204 18.229 4.45427C18.2113 4.3665 18.1704 4.28509 18.1105 4.21855C18.0506 4.152 17.9739 4.10277 17.8885 4.07598C17.803 4.04919 17.712 4.04583 17.6248 4.06625L9.75729 6.03125C9.54116 6.08528 9.34926 6.20993 9.21203 6.38543C9.0748 6.56093 9.0001 6.77722 8.99979 7V20.7625C8.41384 20.3697 7.74375 20.1202 7.04361 20.0341C6.34347 19.9479 5.63288 20.0276 4.9692 20.2666C4.30551 20.5057 3.70733 20.8974 3.22291 21.4102C2.7385 21.923 2.38143 22.5425 2.18051 23.2187C1.9796 23.8949 1.94048 24.6089 2.0663 25.303C2.19212 25.9971 2.47936 26.6519 2.90484 27.2146C3.33032 27.7773 3.88213 28.232 4.51571 28.5421C5.1493 28.8523 5.84693 29.0091 6.55229 29C9.03104 28.9713 10.9998 26.8913 10.9998 24.4125V12.7813L20.1573 10.4925C20.2561 10.4681 20.3451 10.4141 20.4124 10.3377C20.4797 10.2614 20.5221 10.1663 20.5339 10.0652C20.5457 9.96409 20.5264 9.8618 20.4786 9.77197C20.4307 9.68215 20.3566 9.60907 20.266 9.5625Z" fill="white"/>
<path d="M26.4998 10H25.4998C25.3672 10 25.24 10.0527 25.1462 10.1464C25.0525 10.2402 24.9998 10.3674 24.9998 10.5V16.7625C24.4138 16.3697 23.7438 16.1202 23.0436 16.034C22.3435 15.9479 21.6329 16.0276 20.9692 16.2666C20.3055 16.5057 19.7073 16.8974 19.2229 17.4102C18.7385 17.923 18.3814 18.5425 18.1805 19.2187C17.9796 19.8949 17.9405 20.6089 18.0663 21.303C18.1921 21.9971 18.4794 22.6519 18.9048 23.2146C19.3303 23.7772 19.8821 24.232 20.5157 24.5421C21.1493 24.8523 21.8469 25.0091 22.5523 25C25.031 24.9712 26.9998 22.8925 26.9998 20.4125V10.5C26.9998 10.3674 26.9471 10.2402 26.8533 10.1464C26.7596 10.0527 26.6324 10 26.4998 10Z" fill="white"/>
<path d="M69.5 5.99999C69.5 6.39782 69.342 6.77935 69.0607 7.06066C68.7794 7.34196 68.3978 7.49999 68 7.49999H62C61.6022 7.49999 61.2206 7.34196 60.9393 7.06066C60.658 6.77935 60.5 6.39782 60.5 5.99999C60.5 5.60217 60.658 5.22064 60.9393 4.93933C61.2206 4.65803 61.6022 4.49999 62 4.49999H68C68.3978 4.49999 68.7794 4.65803 69.0607 4.93933C69.342 5.22064 69.5 5.60217 69.5 5.99999ZM67.5 11V20.5C67.5003 21.5767 67.153 22.6248 66.5097 23.4883C65.8665 24.3518 64.9616 24.9846 63.9299 25.2925C62.8981 25.6004 61.7944 25.567 60.7832 25.1973C59.7719 24.8276 58.9069 24.1413 58.3171 23.2405C57.7272 22.3397 57.4439 21.2725 57.5092 20.1978C57.5746 19.123 57.9852 18.098 58.6799 17.2754C59.3746 16.4527 60.3163 15.8763 61.365 15.6319C62.4136 15.3874 63.5131 15.488 64.5 15.9187V11C64.5 10.6022 64.658 10.2206 64.9393 9.93933C65.2206 9.65803 65.6022 9.5 66 9.5C66.3978 9.5 66.7794 9.65803 67.0607 9.93933C67.342 10.2206 67.5 10.6022 67.5 11ZM64.5 20.5C64.5 20.1044 64.3827 19.7178 64.1629 19.3889C63.9432 19.06 63.6308 18.8036 63.2654 18.6522C62.8999 18.5009 62.4978 18.4613 62.1098 18.5384C61.7219 18.6156 61.3655 18.8061 61.0858 19.0858C60.8061 19.3655 60.6156 19.7219 60.5384 20.1098C60.4613 20.4978 60.5009 20.8999 60.6522 21.2654C60.8036 21.6308 61.06 21.9432 61.3889 22.1629C61.7178 22.3827 62.1044 22.5 62.5 22.5C63.0304 22.5 63.5391 22.2893 63.9142 21.9142C64.2893 21.5391 64.5 21.0304 64.5 20.5ZM51.5 14.1712V24.5C51.5003 25.5767 51.153 26.6248 50.5097 27.4883C49.8665 28.3518 48.9616 28.9846 47.9299 29.2925C46.8981 29.6004 45.7944 29.567 44.7832 29.1973C43.7719 28.8276 42.9069 28.1413 42.3171 27.2405C41.7272 26.3397 41.4439 25.2725 41.5092 24.1978C41.5746 23.123 41.9852 22.098 42.6799 21.2754C43.3746 20.4527 44.3163 19.8763 45.365 19.6319C46.4136 19.3874 47.5131 19.488 48.5 19.9187V6.99999C48.5001 6.6655 48.6119 6.34062 48.8178 6.07699C49.0237 5.81336 49.3117 5.62611 49.6363 5.545L56.6363 3.795C57.0195 3.70614 57.4222 3.77138 57.7578 3.97665C58.0934 4.18192 58.3349 4.5108 58.4303 4.89243C58.5257 5.27405 58.4674 5.67789 58.2679 6.01692C58.0684 6.35596 57.7437 6.60306 57.3638 6.70499L51.5 8.17125V11.0787L59.6363 9.045C60.0195 8.95614 60.4222 9.02138 60.7578 9.22665C61.0934 9.43192 61.3349 9.7608 61.4303 10.1424C61.5257 10.5241 61.4674 10.9279 61.2679 11.2669C61.0684 11.606 60.7437 11.8531 60.3638 11.955L51.5 14.1712ZM48.5 24.5C48.5 24.1044 48.3827 23.7178 48.1629 23.3889C47.9432 23.06 47.6308 22.8036 47.2654 22.6522C46.8999 22.5009 46.4978 22.4613 46.1098 22.5384C45.7219 22.6156 45.3655 22.8061 45.0858 23.0858C44.8061 23.3655 44.6156 23.7219 44.5384 24.1098C44.4613 24.4978 44.5009 24.8999 44.6522 25.2654C44.8036 25.6308 45.06 25.9432 45.3889 26.1629C45.7178 26.3827 46.1044 26.5 46.5 26.5C47.0304 26.5 47.5391 26.2893 47.9142 25.9142C48.2893 25.5391 48.5 25.0304 48.5 24.5Z" fill="white"/>
</g>
<defs>
<clipPath id="clip0_27_3866">
<rect width="72" height="32" rx="5" fill="white"/>
</clipPath>
</defs>
</svg>
