<svg width="72" height="32" viewBox="0 0 72 32" fill="none" xmlns="http://www.w3.org/2000/svg">
<g clip-path="url(#clip0_27_6750)">
<path d="M31 15.1975C30.9969 15.6201 30.8581 16.0305 30.604 16.3681C30.3499 16.7057 29.9939 16.9527 29.5887 17.0725L29.5637 17.08L19.8137 19.81L17.0837 29.56L17.0762 29.585C16.9562 29.9901 16.7092 30.346 16.3716 30.6001C16.034 30.8541 15.6237 30.993 15.2012 30.9963H15.1637C14.7494 31.0001 14.3444 30.8733 14.0062 30.6339C13.6681 30.3945 13.4139 30.0546 13.28 29.6625L5.12497 7.67626C5.12233 7.66978 5.12024 7.66309 5.11872 7.65626C4.99685 7.30231 4.97676 6.92125 5.06075 6.55644C5.14474 6.19163 5.32943 5.85772 5.59381 5.59268C5.8582 5.32765 6.19165 5.14214 6.55625 5.05725C6.92085 4.97237 7.30196 4.99151 7.65622 5.11251L7.67622 5.11876L29.6662 13.2763C30.0644 13.4124 30.4086 13.6722 30.6486 14.0179C30.8885 14.3636 31.0117 14.7769 31 15.1975Z" fill="white"/>
<path d="M69.8369 12.8075L47.8506 4.65125L47.8194 4.64C47.376 4.48662 46.8985 4.46107 46.4414 4.56625C45.9842 4.67144 45.5659 4.90313 45.2342 5.23483C44.9025 5.56653 44.6708 5.98486 44.5656 6.44201C44.4604 6.89916 44.486 7.37669 44.6394 7.82L44.6506 7.85125L52.8069 29.8375C52.9798 30.3238 53.299 30.7447 53.7206 31.0424C54.1423 31.34 54.6457 31.4999 55.1619 31.5H55.2056C55.7329 31.4909 56.2437 31.3152 56.6651 30.9982C57.0865 30.6812 57.3969 30.2391 57.5519 29.735L57.5631 29.6988L60.2169 20.2175L69.6981 17.5638L69.7344 17.5525C70.2384 17.3992 70.6811 17.0906 70.9993 16.6708C71.3175 16.2509 71.4949 15.7413 71.5063 15.2146C71.5176 14.688 71.3623 14.1711 71.0625 13.738C70.7627 13.3048 70.3338 12.9774 69.8369 12.8025V12.8075ZM58.5956 17.5575C58.3475 17.627 58.1215 17.7591 57.9394 17.9413C57.7572 18.1234 57.6251 18.3494 57.5556 18.5975L55.0956 27.3838L47.8494 7.85L67.3819 15.1L58.5956 17.5575Z" fill="white"/>
</g>
<defs>
<clipPath id="clip0_27_6750">
<rect width="72" height="32" rx="5" fill="white"/>
</clipPath>
</defs>
</svg>
