<svg width="72" height="32" viewBox="0 0 72 32" fill="none" xmlns="http://www.w3.org/2000/svg">
<g clip-path="url(#clip0_27_1327)">
<path d="M26.5349 5.46497C25.5973 4.52761 24.3258 4.00104 22.9999 4.00104C21.6741 4.00104 20.4026 4.52761 19.4649 5.46497L16.4649 8.46497C16.3187 8.61103 16.2213 8.7988 16.1862 9.00247C15.0862 15.41 4.49995 26.0912 4.29495 26.2912C4.10731 26.4787 4.00183 26.733 4.00171 26.9983C4.00159 27.2635 4.10685 27.518 4.29432 27.7056C4.4818 27.8932 4.73613 27.9987 5.00138 27.9988C5.26663 27.9989 5.52106 27.8937 5.7087 27.7062C5.8162 27.5975 16.5624 16.9175 22.9987 15.8125C23.2024 15.7773 23.3901 15.6799 23.5362 15.5337L26.5362 12.5337C27.4736 11.5961 28.0001 10.3245 28.0001 8.99872C28.0001 7.6729 27.4736 6.40136 26.5362 5.46372L26.5349 5.46497ZM23.7074 9.70747L21.7074 11.7075C21.5198 11.8951 21.2653 12.0005 20.9999 12.0005C20.7346 12.0005 20.4801 11.8951 20.2924 11.7075C20.1048 11.5198 19.9994 11.2653 19.9994 11C19.9994 10.7346 20.1048 10.4801 20.2924 10.2925L22.2924 8.29247C22.4801 8.10483 22.7346 7.99941 22.9999 7.99941C23.2653 7.99941 23.5198 8.10483 23.7074 8.29247C23.8951 8.48011 24.0005 8.73461 24.0005 8.99997C24.0005 9.26533 23.8951 9.51983 23.7074 9.70747Z" fill="white"/>
<path d="M66.8888 5.11125C65.8573 4.08 64.4585 3.50067 63 3.50067C61.5415 3.50067 60.1427 4.08 59.1113 5.11125L56.1113 8.11125C55.8913 8.32982 55.7453 8.61175 55.6938 8.9175C54.8 14.125 46.9138 22.9625 43.9438 25.935C43.662 26.2168 43.5037 26.599 43.5037 26.9975C43.5037 27.396 43.662 27.7782 43.9438 28.06C44.2256 28.3418 44.6077 28.5001 45.0063 28.5001C45.4048 28.5001 45.787 28.3418 46.0688 28.06C49.0375 25.0937 57.88 17.2 63.0913 16.31C63.3967 16.2575 63.6783 16.1116 63.8975 15.8925L66.8975 12.8925C67.9288 11.8611 68.5081 10.4623 68.5081 9.00375C68.5081 7.54522 67.9288 6.14642 66.8975 5.115L66.8888 5.11125ZM64.7638 10.7675L62.0863 13.4462C60.23 13.86 58.0363 14.8725 55.5275 16.4687C57.1238 13.96 58.1363 11.7662 58.55 9.91L61.2288 7.2325C61.4594 6.99372 61.7352 6.80327 62.0403 6.67224C62.3453 6.54122 62.6733 6.47226 63.0053 6.46937C63.3372 6.46649 63.6664 6.52974 63.9736 6.65544C64.2809 6.78114 64.56 6.96678 64.7948 7.20151C65.0295 7.43624 65.2151 7.71537 65.3408 8.02261C65.4665 8.32985 65.5298 8.65905 65.5269 8.991C65.524 9.32295 65.455 9.651 65.324 9.95601C65.193 10.261 65.0025 10.5369 64.7638 10.7675Z" fill="white"/>
</g>
<defs>
<clipPath id="clip0_27_1327">
<rect width="72" height="32" rx="5" fill="white"/>
</clipPath>
</defs>
</svg>
