<svg width="72" height="32" viewBox="0 0 72 32" fill="none" xmlns="http://www.w3.org/2000/svg">
<g clip-path="url(#clip0_27_2961)">
<path d="M30 15C30 15.2652 29.8946 15.5196 29.7071 15.7071C29.5196 15.8946 29.2652 16 29 16H25V18C25 18.2652 24.8946 18.5196 24.7071 18.7071C24.5196 18.8946 24.2652 19 24 19C23.7348 19 23.4804 18.8946 23.2929 18.7071C23.1054 18.5196 23 18.2652 23 18V16H9V20H10C10.5304 20 11.0391 20.2107 11.4142 20.5858C11.7893 20.9609 12 21.4696 12 22V26C12 26.5304 11.7893 27.0391 11.4142 27.4142C11.0391 27.7893 10.5304 28 10 28H6C5.46957 28 4.96086 27.7893 4.58579 27.4142C4.21071 27.0391 4 26.5304 4 26V22C4 21.4696 4.21071 20.9609 4.58579 20.5858C4.96086 20.2107 5.46957 20 6 20H7V16H3C2.73478 16 2.48043 15.8946 2.29289 15.7071C2.10536 15.5196 2 15.2652 2 15C2 14.7348 2.10536 14.4804 2.29289 14.2929C2.48043 14.1054 2.73478 14 3 14H15V11H14C13.4696 11 12.9609 10.7893 12.5858 10.4142C12.2107 10.0391 12 9.53043 12 9V5C12 4.46957 12.2107 3.96086 12.5858 3.58579C12.9609 3.21071 13.4696 3 14 3H18C18.5304 3 19.0391 3.21071 19.4142 3.58579C19.7893 3.96086 20 4.46957 20 5V9C20 9.53043 19.7893 10.0391 19.4142 10.4142C19.0391 10.7893 18.5304 11 18 11H17V14H29C29.2652 14 29.5196 14.1054 29.7071 14.2929C29.8946 14.4804 30 14.7348 30 15ZM27.7075 20.2925C27.6146 20.1995 27.5043 20.1258 27.3829 20.0754C27.2615 20.0251 27.1314 19.9992 27 19.9992C26.8686 19.9992 26.7385 20.0251 26.6171 20.0754C26.4957 20.1258 26.3854 20.1995 26.2925 20.2925L24 22.5863L21.7075 20.2925C21.5199 20.1049 21.2654 19.9994 21 19.9994C20.7346 19.9994 20.4801 20.1049 20.2925 20.2925C20.1049 20.4801 19.9994 20.7346 19.9994 21C19.9994 21.2654 20.1049 21.5199 20.2925 21.7075L22.5863 24L20.2925 26.2925C20.1049 26.4801 19.9994 26.7346 19.9994 27C19.9994 27.2654 20.1049 27.5199 20.2925 27.7075C20.4801 27.8951 20.7346 28.0006 21 28.0006C21.2654 28.0006 21.5199 27.8951 21.7075 27.7075L24 25.4137L26.2925 27.7075C26.3854 27.8004 26.4957 27.8741 26.6171 27.9244C26.7385 27.9747 26.8686 28.0006 27 28.0006C27.1314 28.0006 27.2615 27.9747 27.3829 27.9244C27.5043 27.8741 27.6146 27.8004 27.7075 27.7075C27.8004 27.6146 27.8741 27.5043 27.9244 27.3829C27.9747 27.2615 28.0006 27.1314 28.0006 27C28.0006 26.8686 27.9747 26.7385 27.9244 26.6171C27.8741 26.4957 27.8004 26.3854 27.7075 26.2925L25.4137 24L27.7075 21.7075C27.8005 21.6146 27.8742 21.5043 27.9246 21.3829C27.9749 21.2615 28.0008 21.1314 28.0008 21C28.0008 20.8686 27.9749 20.7385 27.9246 20.6171C27.8742 20.4957 27.8005 20.3854 27.7075 20.2925Z" fill="white"/>
<path d="M69 13.5H57.5V11.5H58C58.3283 11.5 58.6534 11.4353 58.9567 11.3097C59.26 11.1841 59.5356 10.9999 59.7678 10.7678C59.9999 10.5356 60.1841 10.26 60.3097 9.95671C60.4353 9.65339 60.5 9.3283 60.5 9V5C60.5 4.6717 60.4353 4.34661 60.3097 4.04329C60.1841 3.73998 59.9999 3.46438 59.7678 3.23223C59.5356 3.00009 59.26 2.81594 58.9567 2.6903C58.6534 2.56466 58.3283 2.5 58 2.5H54C53.337 2.5 52.7011 2.76339 52.2322 3.23223C51.7634 3.70107 51.5 4.33696 51.5 5V9C51.5 9.3283 51.5647 9.65339 51.6903 9.95671C51.8159 10.26 52.0001 10.5356 52.2322 10.7678C52.7011 11.2366 53.337 11.5 54 11.5H54.5V13.5H43C42.6022 13.5 42.2206 13.658 41.9393 13.9393C41.658 14.2206 41.5 14.6022 41.5 15C41.5 15.3978 41.658 15.7794 41.9393 16.0607C42.2206 16.342 42.6022 16.5 43 16.5H46.5V19.5H46C45.337 19.5 44.7011 19.7634 44.2322 20.2322C43.7634 20.7011 43.5 21.337 43.5 22V26C43.5 26.663 43.7634 27.2989 44.2322 27.7678C44.7011 28.2366 45.337 28.5 46 28.5H50C50.663 28.5 51.2989 28.2366 51.7678 27.7678C52.2366 27.2989 52.5 26.663 52.5 26V22C52.5 21.337 52.2366 20.7011 51.7678 20.2322C51.2989 19.7634 50.663 19.5 50 19.5H49.5V16.5H62.5V17.5C62.5 17.8978 62.658 18.2794 62.9393 18.5607C63.2206 18.842 63.6022 19 64 19C64.3978 19 64.7794 18.842 65.0607 18.5607C65.342 18.2794 65.5 17.8978 65.5 17.5V16.5H69C69.3978 16.5 69.7794 16.342 70.0607 16.0607C70.342 15.7794 70.5 15.3978 70.5 15C70.5 14.6022 70.342 14.2206 70.0607 13.9393C69.7794 13.658 69.3978 13.5 69 13.5ZM54.5 5.5H57.5V8.5H54.5V5.5ZM49.5 25.5H46.5V22.5H49.5V25.5ZM68.0613 22.0613L66.125 24L68.065 25.9387C68.2045 26.0783 68.3152 26.2439 68.3907 26.4262C68.4662 26.6085 68.5051 26.8039 68.5051 27.0012C68.5051 27.1986 68.4662 27.394 68.3907 27.5763C68.3152 27.7586 68.2045 27.9242 68.065 28.0637C67.9255 28.2033 67.7598 28.314 67.5775 28.3895C67.3952 28.465 67.1998 28.5039 67.0025 28.5039C66.8052 28.5039 66.6098 28.465 66.4275 28.3895C66.2452 28.314 66.0795 28.2033 65.94 28.0637L64 26.125L62.0613 28.065C61.7795 28.3468 61.3973 28.5051 60.9988 28.5051C60.6002 28.5051 60.218 28.3468 59.9363 28.065C59.6545 27.7832 59.4961 27.401 59.4961 27.0025C59.4961 26.604 59.6545 26.2218 59.9363 25.94L61.875 24L59.935 22.0613C59.6532 21.7795 59.4949 21.3973 59.4949 20.9988C59.4949 20.6002 59.6532 20.218 59.935 19.9363C60.2168 19.6545 60.599 19.4961 60.9975 19.4961C61.396 19.4961 61.7782 19.6545 62.06 19.9363L64 21.875L65.9387 19.935C66.0783 19.7955 66.2439 19.6848 66.4262 19.6093C66.6085 19.5338 66.8039 19.4949 67.0012 19.4949C67.1986 19.4949 67.394 19.5338 67.5763 19.6093C67.7586 19.6848 67.9242 19.7955 68.0637 19.935C68.2033 20.0745 68.314 20.2402 68.3895 20.4225C68.465 20.6048 68.5039 20.8002 68.5039 20.9975C68.5039 21.1948 68.465 21.3902 68.3895 21.5725C68.314 21.7548 68.2033 21.9205 68.0637 22.06L68.0613 22.0613Z" fill="white"/>
</g>
<defs>
<clipPath id="clip0_27_2961">
<rect width="72" height="32" rx="5" fill="white"/>
</clipPath>
</defs>
</svg>
