<svg width="72" height="32" viewBox="0 0 72 32" fill="none" xmlns="http://www.w3.org/2000/svg">
<g clip-path="url(#clip0_27_5373)">
<path d="M25.0008 4.99999V24C25.0008 24.2652 24.8954 24.5196 24.7079 24.7071C24.5204 24.8946 24.266 25 24.0008 25H5.00079C4.80289 25.0002 4.6094 24.9416 4.44481 24.8317C4.28021 24.7218 4.15192 24.5656 4.07616 24.3828C4.00041 24.2 3.98061 23.9988 4.01926 23.8047C4.05791 23.6106 4.15328 23.4324 4.29329 23.2925L23.2933 4.29249C23.4331 4.15248 23.6114 4.05712 23.8055 4.01846C23.9996 3.97981 24.2008 3.99962 24.3836 4.07537C24.5664 4.15112 24.7226 4.27942 24.8325 4.44401C24.9424 4.60861 25.0009 4.8021 25.0008 4.99999Z" fill="white"/>
<path d="M67.0612 17.0612L57.0612 27.0612C56.9217 27.2008 56.756 27.3114 56.5737 27.387C56.3914 27.4625 56.196 27.5013 55.9987 27.5013C55.8014 27.5013 55.606 27.4625 55.4237 27.387C55.2414 27.3114 55.0757 27.2008 54.9362 27.0612C54.7967 26.9217 54.686 26.7561 54.6105 26.5738C54.535 26.3915 54.4961 26.1961 54.4961 25.9987C54.4961 25.8014 54.535 25.606 54.6105 25.4237C54.686 25.2414 54.7967 25.0758 54.9362 24.9362L64.9362 14.9362C65.0757 14.7967 65.2414 14.686 65.4237 14.6105C65.606 14.535 65.8014 14.4961 65.9987 14.4961C66.196 14.4961 66.3914 14.535 66.5737 14.6105C66.756 14.686 66.9217 14.7967 67.0612 14.9362C67.2007 15.0758 67.3114 15.2414 67.3869 15.4237C67.4624 15.606 67.5013 15.8014 67.5013 15.9987C67.5013 16.1961 67.4624 16.3915 67.3869 16.5738C67.3114 16.7561 67.2007 16.9217 67.0612 17.0612ZM65.0612 3.93624C64.9218 3.7964 64.7563 3.68544 64.5739 3.60974C64.3916 3.53403 64.1961 3.49506 63.9987 3.49506C63.8013 3.49506 63.6058 3.53403 63.4235 3.60974C63.2411 3.68544 63.0756 3.7964 62.9362 3.93624L43.9362 22.9362C43.6544 23.218 43.4961 23.6002 43.4961 23.9987C43.4961 24.3973 43.6544 24.7794 43.9362 25.0612C44.218 25.343 44.6002 25.5013 44.9987 25.5013C45.3972 25.5013 45.7794 25.343 46.0612 25.0612L65.0612 6.06124C65.2007 5.92193 65.3113 5.7565 65.3868 5.5744C65.4623 5.3923 65.5011 5.19711 65.5011 4.99999C65.5011 4.80287 65.4623 4.60768 65.3868 4.42558C65.3113 4.24348 65.2007 4.07805 65.0612 3.93874V3.93624Z" fill="white"/>
</g>
<defs>
<clipPath id="clip0_27_5373">
<rect width="72" height="32" rx="5" fill="white"/>
</clipPath>
</defs>
</svg>
