<svg width="72" height="32" viewBox="0 0 72 32" fill="none" xmlns="http://www.w3.org/2000/svg">
<g clip-path="url(#clip0_27_7346)">
<path d="M28 16V26C28 26.5304 27.7893 27.0391 27.4142 27.4142C27.0391 27.7893 26.5304 28 26 28H6C5.46957 28 4.96086 27.7893 4.58579 27.4142C4.21071 27.0391 4 26.5304 4 26V5.99999C4 5.46956 4.21071 4.96085 4.58579 4.58578C4.96086 4.21071 5.46957 3.99999 6 3.99999H16C16.2652 3.99999 16.5196 4.10535 16.7071 4.29289C16.8946 4.48042 17 4.73478 17 4.99999C17 5.26521 16.8946 5.51956 16.7071 5.7071C16.5196 5.89464 16.2652 5.99999 16 5.99999H6V26H26V16C26 15.7348 26.1054 15.4804 26.2929 15.2929C26.4804 15.1054 26.7348 15 27 15C27.2652 15 27.5196 15.1054 27.7071 15.2929C27.8946 15.4804 28 15.7348 28 16ZM28.7075 8.70749L16.7075 20.7075C16.6146 20.8003 16.5042 20.8739 16.3829 20.9241C16.2615 20.9743 16.1314 21.0001 16 21H12C11.7348 21 11.4804 20.8946 11.2929 20.7071C11.1054 20.5196 11 20.2652 11 20V16C10.9999 15.8686 11.0257 15.7385 11.0759 15.6171C11.1261 15.4957 11.1997 15.3854 11.2925 15.2925L23.2925 3.29249C23.3854 3.19952 23.4957 3.12576 23.6171 3.07543C23.7385 3.02511 23.8686 2.99921 24 2.99921C24.1314 2.99921 24.2615 3.02511 24.3829 3.07543C24.5043 3.12576 24.6146 3.19952 24.7075 3.29249L28.7075 7.29249C28.8005 7.38537 28.8742 7.49566 28.9246 7.61705C28.9749 7.73845 29.0008 7.86858 29.0008 7.99999C29.0008 8.13141 28.9749 8.26154 28.9246 8.38293C28.8742 8.50433 28.8005 8.61462 28.7075 8.70749ZM26.5825 7.99999L24 5.41374L22.4137 6.99999L25 9.58624L26.5825 7.99999Z" fill="white"/>
<path d="M69.0613 6.93874L65.0613 2.93874C64.9219 2.7989 64.7563 2.68795 64.574 2.61224C64.3917 2.53653 64.1962 2.49756 63.9988 2.49756C63.8013 2.49756 63.6059 2.53653 63.4235 2.61224C63.2412 2.68795 63.0756 2.7989 62.9363 2.93874L50.9362 14.9387C50.6559 15.2207 50.499 15.6024 50.5 16V20C50.5 20.3978 50.658 20.7793 50.9393 21.0606C51.2206 21.342 51.6022 21.5 52 21.5H56C56.197 21.5001 56.3922 21.4615 56.5743 21.3862C56.7564 21.3109 56.9218 21.2005 57.0613 21.0612L69.0613 9.06124C69.2007 8.92193 69.3114 8.7565 69.3868 8.5744C69.4623 8.3923 69.5012 8.19711 69.5012 7.99999C69.5012 7.80287 69.4623 7.60768 69.3868 7.42558C69.3114 7.24348 69.2007 7.07805 69.0613 6.93874ZM64 6.12499L65.875 7.99999L64.5 9.37499L62.625 7.49999L64 6.12499ZM55.375 18.5H53.5V16.625L60.5 9.62499L62.375 11.5L55.375 18.5ZM68.5 17.5712V26C68.5 26.663 68.2366 27.2989 67.7678 27.7678C67.2989 28.2366 66.663 28.5 66 28.5H46C45.337 28.5 44.7011 28.2366 44.2322 27.7678C43.7634 27.2989 43.5 26.663 43.5 26V5.99999C43.5 5.33695 43.7634 4.70107 44.2322 4.23222C44.7011 3.76338 45.337 3.49999 46 3.49999H54.4288C54.8266 3.49999 55.2081 3.65803 55.4894 3.93933C55.7707 4.22064 55.9288 4.60217 55.9288 4.99999C55.9288 5.39782 55.7707 5.77935 55.4894 6.06065C55.2081 6.34196 54.8266 6.49999 54.4288 6.49999H46.5V25.5H65.5V17.5712C65.5 17.1734 65.658 16.7919 65.9393 16.5106C66.2206 16.2293 66.6022 16.0712 67 16.0712C67.3978 16.0712 67.7794 16.2293 68.0607 16.5106C68.342 16.7919 68.5 17.1734 68.5 17.5712Z" fill="white"/>
</g>
<defs>
<clipPath id="clip0_27_7346">
<rect width="72" height="32" rx="5" fill="white"/>
</clipPath>
</defs>
</svg>
