<svg width="72" height="32" viewBox="0 0 72 32" fill="none" xmlns="http://www.w3.org/2000/svg">
<g clip-path="url(#clip0_27_7336)">
<path d="M26 4H6C5.46957 4 4.96086 4.21071 4.58579 4.58579C4.21071 4.96086 4 5.46957 4 6V26C4 26.5304 4.21071 27.0391 4.58579 27.4142C4.96086 27.7893 5.46957 28 6 28H19.5863C19.8489 28.0004 20.1091 27.9488 20.3517 27.8482C20.5944 27.7476 20.8147 27.5999 21 27.4137L27.4137 21C27.5999 20.8147 27.7476 20.5944 27.8482 20.3517C27.9488 20.1091 28.0004 19.8489 28 19.5863V6C28 5.46957 27.7893 4.96086 27.4142 4.58579C27.0391 4.21071 26.5304 4 26 4ZM12 11H20C20.2652 11 20.5196 11.1054 20.7071 11.2929C20.8946 11.4804 21 11.7348 21 12C21 12.2652 20.8946 12.5196 20.7071 12.7071C20.5196 12.8946 20.2652 13 20 13H12C11.7348 13 11.4804 12.8946 11.2929 12.7071C11.1054 12.5196 11 12.2652 11 12C11 11.7348 11.1054 11.4804 11.2929 11.2929C11.4804 11.1054 11.7348 11 12 11ZM16 21H12C11.7348 21 11.4804 20.8946 11.2929 20.7071C11.1054 20.5196 11 20.2652 11 20C11 19.7348 11.1054 19.4804 11.2929 19.2929C11.4804 19.1054 11.7348 19 12 19H16C16.2652 19 16.5196 19.1054 16.7071 19.2929C16.8946 19.4804 17 19.7348 17 20C17 20.2652 16.8946 20.5196 16.7071 20.7071C16.5196 20.8946 16.2652 21 16 21ZM12 17C11.7348 17 11.4804 16.8946 11.2929 16.7071C11.1054 16.5196 11 16.2652 11 16C11 15.7348 11.1054 15.4804 11.2929 15.2929C11.4804 15.1054 11.7348 15 12 15H20C20.2652 15 20.5196 15.1054 20.7071 15.2929C20.8946 15.4804 21 15.7348 21 16C21 16.2652 20.8946 16.5196 20.7071 16.7071C20.5196 16.8946 20.2652 17 20 17H12ZM20 25.5863V20H25.5875L20 25.5863Z" fill="white"/>
<path d="M50.5 13.5C50.5 13.1022 50.658 12.7206 50.9393 12.4393C51.2206 12.158 51.6022 12 52 12H60C60.3978 12 60.7794 12.158 61.0607 12.4393C61.342 12.7206 61.5 13.1022 61.5 13.5C61.5 13.8978 61.342 14.2794 61.0607 14.5607C60.7794 14.842 60.3978 15 60 15H52C51.6022 15 51.2206 14.842 50.9393 14.5607C50.658 14.2794 50.5 13.8978 50.5 13.5ZM54.5 17H52C51.6022 17 51.2206 17.158 50.9393 17.4393C50.658 17.7206 50.5 18.1022 50.5 18.5C50.5 18.8978 50.658 19.2794 50.9393 19.5607C51.2206 19.842 51.6022 20 52 20H54.5C54.8978 20 55.2794 19.842 55.5607 19.5607C55.842 19.2794 56 18.8978 56 18.5C56 18.1022 55.842 17.7206 55.5607 17.4393C55.2794 17.158 54.8978 17 54.5 17ZM68.5 6V19.5863C68.5009 19.9147 68.4366 20.24 68.3109 20.5434C68.1851 20.8468 68.0004 21.1222 67.7675 21.3538L61.3538 27.7675C61.1222 28.0004 60.8468 28.1851 60.5434 28.3109C60.24 28.4366 59.9147 28.5009 59.5863 28.5H46C45.337 28.5 44.7011 28.2366 44.2322 27.7678C43.7634 27.2989 43.5 26.663 43.5 26V6C43.5 5.33696 43.7634 4.70107 44.2322 4.23223C44.7011 3.76339 45.337 3.5 46 3.5H66C66.663 3.5 67.2989 3.76339 67.7678 4.23223C68.2366 4.70107 68.5 5.33696 68.5 6ZM46.5 25.5H58V19.5C58 19.1022 58.158 18.7206 58.4393 18.4393C58.7206 18.158 59.1022 18 59.5 18H65.5V6.5H46.5V25.5ZM63.875 21H61V23.875L63.875 21Z" fill="white"/>
</g>
<defs>
<clipPath id="clip0_27_7336">
<rect width="72" height="32" rx="5" fill="white"/>
</clipPath>
</defs>
</svg>
