<svg width="72" height="32" viewBox="0 0 72 32" fill="none" xmlns="http://www.w3.org/2000/svg">
<g clip-path="url(#clip0_27_7341)">
<path d="M26 4H6C5.46957 4 4.96086 4.21071 4.58579 4.58579C4.21071 4.96086 4 5.46957 4 6V26C4 26.5304 4.21071 27.0391 4.58579 27.4142C4.96086 27.7893 5.46957 28 6 28H19.5863C19.849 28.0008 20.1093 27.9494 20.352 27.8488C20.5947 27.7482 20.815 27.6003 21 27.4137L27.4137 21C27.6003 20.815 27.7482 20.5947 27.8488 20.352C27.9494 20.1093 28.0008 19.849 28 19.5863V6C28 5.46957 27.7893 4.96086 27.4142 4.58579C27.0391 4.21071 26.5304 4 26 4ZM20 25.5863V20H25.5863L20 25.5863Z" fill="white"/>
<path d="M66 3.5H46C45.337 3.5 44.7011 3.76339 44.2322 4.23223C43.7634 4.70107 43.5 5.33696 43.5 6V26C43.5 26.663 43.7634 27.2989 44.2322 27.7678C44.7011 28.2366 45.337 28.5 46 28.5H59.5863C59.9147 28.5009 60.24 28.4366 60.5434 28.3109C60.8468 28.1851 61.1222 28.0004 61.3538 27.7675L67.7675 21.3538C68.0004 21.1222 68.1851 20.8468 68.3109 20.5434C68.4366 20.24 68.5009 19.9147 68.5 19.5863V6C68.5 5.33696 68.2366 4.70107 67.7678 4.23223C67.2989 3.76339 66.663 3.5 66 3.5ZM46.5 6.5H65.5V18H59.5C59.1022 18 58.7206 18.158 58.4393 18.4393C58.158 18.7206 58 19.1022 58 19.5V25.5H46.5V6.5ZM61 23.875V21H63.875L61 23.875Z" fill="white"/>
</g>
<defs>
<clipPath id="clip0_27_7341">
<rect width="72" height="32" rx="5" fill="white"/>
</clipPath>
</defs>
</svg>
