<svg width="72" height="32" viewBox="0 0 72 32" fill="none" xmlns="http://www.w3.org/2000/svg">
<g clip-path="url(#clip0_27_7356)">
<path d="M26 4H23V3C23 2.73478 22.8946 2.48043 22.7071 2.29289C22.5196 2.10536 22.2652 2 22 2C21.7348 2 21.4804 2.10536 21.2929 2.29289C21.1054 2.48043 21 2.73478 21 3V4H17V3C17 2.73478 16.8946 2.48043 16.7071 2.29289C16.5196 2.10536 16.2652 2 16 2C15.7348 2 15.4804 2.10536 15.2929 2.29289C15.1054 2.48043 15 2.73478 15 3V4H11V3C11 2.73478 10.8946 2.48043 10.7071 2.29289C10.5196 2.10536 10.2652 2 10 2C9.73478 2 9.48043 2.10536 9.29289 2.29289C9.10536 2.48043 9 2.73478 9 3V4H6C5.73478 4 5.48043 4.10536 5.29289 4.29289C5.10536 4.48043 5 4.73478 5 5V25C5 26.0609 5.42143 27.0783 6.17157 27.8284C6.92172 28.5786 7.93913 29 9 29H23C24.0609 29 25.0783 28.5786 25.8284 27.8284C26.5786 27.0783 27 26.0609 27 25V5C27 4.73478 26.8946 4.48043 26.7071 4.29289C26.5196 4.10536 26.2652 4 26 4ZM15 7C15 6.73478 15.1054 6.48043 15.2929 6.29289C15.4804 6.10536 15.7348 6 16 6C16.2652 6 16.5196 6.10536 16.7071 6.29289C16.8946 6.48043 17 6.73478 17 7V8C17 8.26522 16.8946 8.51957 16.7071 8.70711C16.5196 8.89464 16.2652 9 16 9C15.7348 9 15.4804 8.89464 15.2929 8.70711C15.1054 8.51957 15 8.26522 15 8V7ZM10 9C9.73478 9 9.48043 8.89464 9.29289 8.70711C9.10536 8.51957 9 8.26522 9 8V7C9 6.73478 9.10536 6.48043 9.29289 6.29289C9.48043 6.10536 9.73478 6 10 6C10.2652 6 10.5196 6.10536 10.7071 6.29289C10.8946 6.48043 11 6.73478 11 7V8C11 8.26522 10.8946 8.51957 10.7071 8.70711C10.5196 8.89464 10.2652 9 10 9ZM20 21H12C11.7348 21 11.4804 20.8946 11.2929 20.7071C11.1054 20.5196 11 20.2652 11 20C11 19.7348 11.1054 19.4804 11.2929 19.2929C11.4804 19.1054 11.7348 19 12 19H20C20.2652 19 20.5196 19.1054 20.7071 19.2929C20.8946 19.4804 21 19.7348 21 20C21 20.2652 20.8946 20.5196 20.7071 20.7071C20.5196 20.8946 20.2652 21 20 21ZM20 17H12C11.7348 17 11.4804 16.8946 11.2929 16.7071C11.1054 16.5196 11 16.2652 11 16C11 15.7348 11.1054 15.4804 11.2929 15.2929C11.4804 15.1054 11.7348 15 12 15H20C20.2652 15 20.5196 15.1054 20.7071 15.2929C20.8946 15.4804 21 15.7348 21 16C21 16.2652 20.8946 16.5196 20.7071 16.7071C20.5196 16.8946 20.2652 17 20 17ZM23 8C23 8.26522 22.8946 8.51957 22.7071 8.70711C22.5196 8.89464 22.2652 9 22 9C21.7348 9 21.4804 8.89464 21.2929 8.70711C21.1054 8.51957 21 8.26522 21 8V7C21 6.73478 21.1054 6.48043 21.2929 6.29289C21.4804 6.10536 21.7348 6 22 6C22.2652 6 22.5196 6.10536 22.7071 6.29289C22.8946 6.48043 23 6.73478 23 7V8Z" fill="white"/>
<path d="M61.5 15.5C61.5 15.8978 61.342 16.2794 61.0607 16.5607C60.7794 16.842 60.3978 17 60 17H52C51.6022 17 51.2206 16.842 50.9393 16.5607C50.658 16.2794 50.5 15.8978 50.5 15.5C50.5 15.1022 50.658 14.7206 50.9393 14.4393C51.2206 14.158 51.6022 14 52 14H60C60.3978 14 60.7794 14.158 61.0607 14.4393C61.342 14.7206 61.5 15.1022 61.5 15.5ZM60 19H52C51.6022 19 51.2206 19.158 50.9393 19.4393C50.658 19.7206 50.5 20.1022 50.5 20.5C50.5 20.8978 50.658 21.2794 50.9393 21.5607C51.2206 21.842 51.6022 22 52 22H60C60.3978 22 60.7794 21.842 61.0607 21.5607C61.342 21.2794 61.5 20.8978 61.5 20.5C61.5 20.1022 61.342 19.7206 61.0607 19.4393C60.7794 19.158 60.3978 19 60 19ZM67.5 5V25C67.5 26.1935 67.0259 27.3381 66.182 28.182C65.3381 29.0259 64.1935 29.5 63 29.5H49C47.8065 29.5 46.6619 29.0259 45.818 28.182C44.9741 27.3381 44.5 26.1935 44.5 25V5C44.5 4.60218 44.658 4.22064 44.9393 3.93934C45.2206 3.65804 45.6022 3.5 46 3.5H49V3C49 2.60218 49.158 2.22064 49.4393 1.93934C49.7206 1.65804 50.1022 1.5 50.5 1.5C50.8978 1.5 51.2794 1.65804 51.5607 1.93934C51.842 2.22064 52 2.60218 52 3V3.5H54.5V3C54.5 2.60218 54.658 2.22064 54.9393 1.93934C55.2206 1.65804 55.6022 1.5 56 1.5C56.3978 1.5 56.7794 1.65804 57.0607 1.93934C57.342 2.22064 57.5 2.60218 57.5 3V3.5H60V3C60 2.60218 60.158 2.22064 60.4393 1.93934C60.7206 1.65804 61.1022 1.5 61.5 1.5C61.8978 1.5 62.2794 1.65804 62.5607 1.93934C62.842 2.22064 63 2.60218 63 3V3.5H66C66.3978 3.5 66.7794 3.65804 67.0607 3.93934C67.342 4.22064 67.5 4.60218 67.5 5ZM64.5 6.5H63V7C63 7.39782 62.842 7.77936 62.5607 8.06066C62.2794 8.34196 61.8978 8.5 61.5 8.5C61.1022 8.5 60.7206 8.34196 60.4393 8.06066C60.158 7.77936 60 7.39782 60 7V6.5H57.5V7C57.5 7.39782 57.342 7.77936 57.0607 8.06066C56.7794 8.34196 56.3978 8.5 56 8.5C55.6022 8.5 55.2206 8.34196 54.9393 8.06066C54.658 7.77936 54.5 7.39782 54.5 7V6.5H52V7C52 7.39782 51.842 7.77936 51.5607 8.06066C51.2794 8.34196 50.8978 8.5 50.5 8.5C50.1022 8.5 49.7206 8.34196 49.4393 8.06066C49.158 7.77936 49 7.39782 49 7V6.5H47.5V25C47.5 25.3978 47.658 25.7794 47.9393 26.0607C48.2206 26.342 48.6022 26.5 49 26.5H63C63.3978 26.5 63.7794 26.342 64.0607 26.0607C64.342 25.7794 64.5 25.3978 64.5 25V6.5Z" fill="white"/>
</g>
<defs>
<clipPath id="clip0_27_7356">
<rect width="72" height="32" rx="5" fill="white"/>
</clipPath>
</defs>
</svg>
