<svg width="72" height="32" viewBox="0 0 72 32" fill="none" xmlns="http://www.w3.org/2000/svg">
<g clip-path="url(#clip0_27_2966)">
<path d="M27 16V26C27 26.5304 26.7893 27.0391 26.4142 27.4142C26.0391 27.7893 25.5304 28 25 28H6C5.46957 28 4.96086 27.7893 4.58579 27.4142C4.21071 27.0391 4 26.5304 4 26V7C4 6.46957 4.21071 5.96086 4.58579 5.58579C4.96086 5.21071 5.46957 5 6 5H16C16.2652 5 16.5196 5.10536 16.7071 5.29289C16.8946 5.48043 17 5.73478 17 6C17 6.26522 16.8946 6.51957 16.7071 6.70711C16.5196 6.89464 16.2652 7 16 7H6V26H25V16C25 15.7348 25.1054 15.4804 25.2929 15.2929C25.4804 15.1054 25.7348 15 26 15C26.2652 15 26.5196 15.1054 26.7071 15.2929C26.8946 15.4804 27 15.7348 27 16ZM24.5 3C23.61 3 22.74 3.26392 21.9999 3.75839C21.2599 4.25285 20.6831 4.95566 20.3425 5.77792C20.0019 6.60019 19.9128 7.50499 20.0865 8.37791C20.2601 9.25082 20.6887 10.0526 21.318 10.682C21.9474 11.3113 22.7492 11.7399 23.6221 11.9135C24.495 12.0872 25.3998 11.9981 26.2221 11.6575C27.0443 11.3169 27.7471 10.7401 28.2416 10.0001C28.7361 9.26004 29 8.39002 29 7.5C29 6.30653 28.5259 5.16193 27.682 4.31802C26.8381 3.47411 25.6935 3 24.5 3Z" fill="white"/>
<path d="M67.5 16.5V26C67.5 26.663 67.2366 27.2989 66.7678 27.7678C66.2989 28.2366 65.663 28.5 65 28.5H46C45.337 28.5 44.7011 28.2366 44.2322 27.7678C43.7634 27.2989 43.5 26.663 43.5 26V7C43.5 6.33696 43.7634 5.70107 44.2322 5.23223C44.7011 4.76339 45.337 4.5 46 4.5H55.5C55.8978 4.5 56.2794 4.65804 56.5607 4.93934C56.842 5.22064 57 5.60218 57 6C57 6.39782 56.842 6.77936 56.5607 7.06066C56.2794 7.34196 55.8978 7.5 55.5 7.5H46.5V25.5H64.5V16.5C64.5 16.1022 64.658 15.7206 64.9393 15.4393C65.2206 15.158 65.6022 15 66 15C66.3978 15 66.7794 15.158 67.0607 15.4393C67.342 15.7206 67.5 16.1022 67.5 16.5ZM69.5 7.5C69.5 8.48891 69.2068 9.45561 68.6573 10.2779C68.1079 11.1001 67.327 11.741 66.4134 12.1194C65.4998 12.4978 64.4945 12.5969 63.5245 12.4039C62.5546 12.211 61.6637 11.7348 60.9645 11.0355C60.2652 10.3363 59.789 9.44536 59.5961 8.47545C59.4031 7.50555 59.5022 6.50021 59.8806 5.58658C60.259 4.67295 60.8999 3.89206 61.7221 3.34265C62.5444 2.79324 63.5111 2.5 64.5 2.5C65.8261 2.5 67.0979 3.02678 68.0355 3.96447C68.9732 4.90215 69.5 6.17392 69.5 7.5ZM66.5 7.5C66.5 7.10444 66.3827 6.71776 66.1629 6.38886C65.9432 6.05996 65.6308 5.80362 65.2654 5.65224C64.8999 5.50087 64.4978 5.46126 64.1098 5.53843C63.7219 5.6156 63.3655 5.80608 63.0858 6.08579C62.8061 6.36549 62.6156 6.72186 62.5384 7.10982C62.4613 7.49778 62.5009 7.89991 62.6522 8.26537C62.8036 8.63082 63.06 8.94318 63.3889 9.16294C63.7178 9.3827 64.1044 9.5 64.5 9.5C65.0304 9.5 65.5391 9.28929 65.9142 8.91421C66.2893 8.53914 66.5 8.03043 66.5 7.5Z" fill="white"/>
</g>
<defs>
<clipPath id="clip0_27_2966">
<rect width="72" height="32" rx="5" fill="white"/>
</clipPath>
</defs>
</svg>
