<svg width="72" height="32" viewBox="0 0 72 32" fill="none" xmlns="http://www.w3.org/2000/svg">
<g clip-path="url(#clip0_27_1793)">
<path d="M26 4H6C5.46957 4 4.96086 4.21071 4.58579 4.58579C4.21071 4.96086 4 5.46957 4 6V26C4 26.5304 4.21071 27.0391 4.58579 27.4142C4.96086 27.7893 5.46957 28 6 28H26C26.5304 28 27.0391 27.7893 27.4142 27.4142C27.7893 27.0391 28 26.5304 28 26V6C28 5.46957 27.7893 4.96086 27.4142 4.58579C27.0391 4.21071 26.5304 4 26 4ZM23.75 8.65875L18.2038 15H22C22.2652 15 22.5196 15.1054 22.7071 15.2929C22.8946 15.4804 23 15.7348 23 16C23 16.2652 22.8946 16.5196 22.7071 16.7071C22.5196 16.8946 22.2652 17 22 17H16.4538L12.8588 21.1087C13.8026 21.6922 14.8904 22.0009 16 22H22C22.2652 22 22.5196 22.1054 22.7071 22.2929C22.8946 22.4804 23 22.7348 23 23C23 23.2652 22.8946 23.5196 22.7071 23.7071C22.5196 23.8946 22.2652 24 22 24H16C14.405 24.0005 12.8467 23.5215 11.5275 22.625L9.75 24.6588C9.57067 24.8399 9.32893 24.9457 9.07419 24.9546C8.81944 24.9635 8.57091 24.8748 8.37939 24.7066C8.18787 24.5384 8.06782 24.3034 8.04377 24.0496C8.01972 23.7958 8.09349 23.5424 8.25 23.3412L10.0262 21.3113C9.00312 20.1588 8.33462 18.7354 8.10113 17.2121C7.86764 15.6888 8.07909 14.1305 8.71006 12.7245C9.34103 11.3185 10.3647 10.1247 11.6579 9.28658C12.9511 8.44845 14.4589 8.00169 16 8H21.6712L22.25 7.34125C22.3337 7.23364 22.4385 7.14428 22.5581 7.07866C22.6776 7.01305 22.8092 6.97257 22.945 6.9597C23.0807 6.94684 23.2176 6.96187 23.3473 7.00387C23.477 7.04586 23.5968 7.11394 23.6992 7.20391C23.8017 7.29388 23.8846 7.40385 23.943 7.52706C24.0014 7.65027 24.0339 7.78411 24.0387 7.92037C24.0435 8.05663 24.0203 8.19242 23.9707 8.31939C23.921 8.44637 23.8459 8.56185 23.75 8.65875ZM16 10H19.9212L15.5463 15H10.085C10.3229 13.6029 11.0471 12.3348 12.1294 11.4198C13.2118 10.5049 14.5827 10.002 16 10ZM10.085 17H13.7963L11.355 19.79C10.6961 18.9863 10.2584 18.0247 10.085 17Z" fill="white"/>
<path d="M67.0086 3.89C66.7142 3.62249 66.3256 3.48288 65.9283 3.50186C65.531 3.52085 65.1574 3.69689 64.8899 3.99125L64.4274 4.5H55.9999C53.8068 4.49892 51.6593 5.12527 49.8107 6.30512C47.962 7.48496 46.4895 9.16905 45.567 11.1586C44.6444 13.1482 44.3103 15.3601 44.6041 17.5334C44.8978 19.7067 45.8072 21.7505 47.2249 23.4238L44.8899 25.9913C44.7546 26.1365 44.6496 26.3072 44.5808 26.4934C44.512 26.6796 44.4808 26.8776 44.4891 27.0759C44.4974 27.2743 44.545 27.469 44.629 27.6488C44.7131 27.8286 44.8321 27.9899 44.979 28.1234C45.1259 28.2569 45.2978 28.3599 45.4848 28.4265C45.6718 28.493 45.8702 28.5218 46.0684 28.5111C46.2666 28.5005 46.4607 28.4506 46.6395 28.3643C46.8183 28.2781 46.9782 28.1572 47.1099 28.0088L49.4436 25.4425C51.3664 26.7843 53.6552 27.5025 55.9999 27.5H64.9999C65.3977 27.5 65.7792 27.342 66.0605 27.0607C66.3419 26.7794 66.4999 26.3978 66.4999 26C66.4999 25.6022 66.3419 25.2206 66.0605 24.9393C65.7792 24.658 65.3977 24.5 64.9999 24.5H55.9999C54.4018 24.5017 52.8361 24.0496 51.4849 23.1963L56.6636 17.5H64.9999C65.3977 17.5 65.7792 17.342 66.0605 17.0607C66.3419 16.7794 66.4999 16.3978 66.4999 16C66.4999 15.6022 66.3419 15.2206 66.0605 14.9393C65.7792 14.658 65.3977 14.5 64.9999 14.5H59.3911L67.1099 6.00875C67.3774 5.71435 67.517 5.32574 67.498 4.92841C67.479 4.53108 67.303 4.15755 67.0086 3.89ZM49.2661 21.1775C48.4371 20.0999 47.8798 18.8385 47.6411 17.5H52.6149L49.2661 21.1775ZM47.6349 14.5C47.989 12.5385 49.0203 10.7634 50.549 9.48422C52.0776 8.20503 54.0066 7.50282 55.9999 7.5H61.6999L55.3361 14.5H47.6349Z" fill="white"/>
</g>
<defs>
<clipPath id="clip0_27_1793">
<rect width="72" height="32" rx="5" fill="white"/>
</clipPath>
</defs>
</svg>
