<svg width="72" height="32" viewBox="0 0 72 32" fill="none" xmlns="http://www.w3.org/2000/svg">
<g clip-path="url(#clip0_27_1798)">
<path d="M16 10H19.9212L11.3538 19.7913C10.6369 18.9119 10.184 17.8473 10.0476 16.721C9.91132 15.5946 10.0971 14.4527 10.5835 13.4277C11.0699 12.4027 11.837 11.5366 12.7957 10.9299C13.7544 10.3232 14.8654 10.0008 16 10ZM28 6V26C28 26.5304 27.7893 27.0391 27.4142 27.4142C27.0391 27.7893 26.5304 28 26 28H6C5.46957 28 4.96086 27.7893 4.58579 27.4142C4.21071 27.0391 4 26.5304 4 26V6C4 5.46957 4.21071 4.96086 4.58579 4.58579C4.96086 4.21071 5.46957 4 6 4H26C26.5304 4 27.0391 4.21071 27.4142 4.58579C27.7893 4.96086 28 5.46957 28 6ZM23.6588 7.25C23.5599 7.16348 23.445 7.09727 23.3206 7.05516C23.1962 7.01304 23.0648 6.99585 22.9337 7.00455C22.8027 7.01326 22.6746 7.04769 22.5569 7.10589C22.4391 7.16409 22.334 7.24492 22.2475 7.34375L21.6712 8H16C14.4587 8.00121 12.9506 8.44763 11.657 9.28557C10.3634 10.1235 9.33935 11.3173 8.70807 12.7234C8.07679 14.1295 7.86513 15.688 8.09854 17.2115C8.33194 18.735 9.00048 20.1586 10.0238 21.3113L8.25 23.3412C8.09349 23.5424 8.01972 23.7958 8.04377 24.0496C8.06782 24.3034 8.18787 24.5384 8.37939 24.7066C8.57091 24.8748 8.81944 24.9635 9.07419 24.9546C9.32893 24.9457 9.57067 24.8399 9.75 24.6588L11.5275 22.625C12.8467 23.5215 14.405 24.0005 16 24H22C22.2652 24 22.5196 23.8946 22.7071 23.7071C22.8946 23.5196 23 23.2652 23 23C23 22.7348 22.8946 22.4804 22.7071 22.2929C22.5196 22.1054 22.2652 22 22 22H16C14.8903 22.0015 13.8023 21.6928 12.8588 21.1087L23.75 8.65875C23.9243 8.45964 24.0125 8.19957 23.9954 7.93552C23.9783 7.67148 23.8572 7.42497 23.6588 7.25Z" fill="white"/>
<path d="M67.0086 3.89C66.7142 3.62249 66.3256 3.48288 65.9283 3.50186C65.531 3.52085 65.1574 3.69689 64.8899 3.99125L64.4274 4.5H55.9999C53.8068 4.49892 51.6593 5.12527 49.8107 6.30512C47.962 7.48496 46.4895 9.16905 45.567 11.1586C44.6444 13.1482 44.3103 15.3601 44.6041 17.5334C44.8978 19.7067 45.8072 21.7505 47.2249 23.4238L44.8899 25.9913C44.7546 26.1365 44.6496 26.3072 44.5808 26.4934C44.512 26.6796 44.4808 26.8776 44.4891 27.0759C44.4974 27.2743 44.545 27.469 44.629 27.6488C44.7131 27.8286 44.8321 27.9899 44.979 28.1234C45.1259 28.2569 45.2978 28.3599 45.4848 28.4265C45.6718 28.493 45.8702 28.5218 46.0684 28.5111C46.2666 28.5005 46.4607 28.4506 46.6395 28.3643C46.8183 28.2781 46.9782 28.1572 47.1099 28.0088L49.4436 25.4425C51.3664 26.7843 53.6552 27.5025 55.9999 27.5H64.9999C65.3977 27.5 65.7792 27.342 66.0605 27.0607C66.3419 26.7794 66.4999 26.3978 66.4999 26C66.4999 25.6022 66.3419 25.2206 66.0605 24.9393C65.7792 24.658 65.3977 24.5 64.9999 24.5H55.9999C54.4018 24.5017 52.8361 24.0496 51.4849 23.1963L67.1099 6.00875C67.3774 5.71435 67.517 5.32574 67.498 4.92841C67.479 4.53108 67.303 4.15755 67.0086 3.89ZM47.4999 16C47.5022 13.7464 48.3985 11.5857 49.992 9.99215C51.5856 8.39859 53.7463 7.50232 55.9999 7.5H61.6999L49.2661 21.1775C48.1197 19.6952 47.4984 17.8739 47.4999 16Z" fill="white"/>
</g>
<defs>
<clipPath id="clip0_27_1798">
<rect width="72" height="32" rx="5" fill="white"/>
</clipPath>
</defs>
</svg>
