<svg width="72" height="32" viewBox="0 0 72 32" fill="none" xmlns="http://www.w3.org/2000/svg">
<g clip-path="url(#clip0_27_1833)">
<path d="M16 3C13.4288 3 10.9154 3.76244 8.77759 5.1909C6.63975 6.61935 4.97351 8.64968 3.98957 11.0251C3.00563 13.4006 2.74819 16.0144 3.2498 18.5362C3.75141 21.0579 4.98953 23.3743 6.80762 25.1924C8.6257 27.0105 10.9421 28.2486 13.4638 28.7502C15.9856 29.2518 18.5995 28.9944 20.9749 28.0104C23.3503 27.0265 25.3807 25.3603 26.8091 23.2224C28.2376 21.0846 29 18.5712 29 16C28.9964 12.5533 27.6256 9.24882 25.1884 6.81163C22.7512 4.37445 19.4467 3.00364 16 3ZM19.94 11.3413L15.94 22.3412C15.8699 22.5343 15.7421 22.7011 15.5739 22.8189C15.4058 22.9368 15.2054 23 15 23C14.8836 23.0003 14.7681 22.98 14.6588 22.94C14.5353 22.8952 14.4219 22.8265 14.325 22.7379C14.2281 22.6492 14.1496 22.5424 14.094 22.4234C14.0384 22.3044 14.0068 22.1756 14.001 22.0445C13.9951 21.9133 14.0152 21.7822 14.06 21.6588L17.5725 12H13C12.7348 12 12.4804 11.8946 12.2929 11.7071C12.1054 11.5196 12 11.2652 12 11C12 10.7348 12.1054 10.4804 12.2929 10.2929C12.4804 10.1054 12.7348 10 13 10H19C19.1607 10 19.319 10.0387 19.4616 10.1129C19.6041 10.1871 19.7267 10.2945 19.8189 10.4261C19.9112 10.5577 19.9703 10.7096 19.9914 10.8689C20.0125 11.0282 19.9948 11.1902 19.94 11.3413Z" fill="white"/>
<path d="M56 2.5C53.33 2.5 50.7199 3.29176 48.4998 4.77516C46.2797 6.25856 44.5494 8.36697 43.5276 10.8338C42.5058 13.3006 42.2385 16.015 42.7594 18.6337C43.2803 21.2525 44.5661 23.6579 46.4541 25.5459C48.3421 27.434 50.7475 28.7197 53.3663 29.2406C55.985 29.7615 58.6994 29.4942 61.1662 28.4724C63.633 27.4506 65.7414 25.7203 67.2248 23.5002C68.7082 21.2801 69.5 18.67 69.5 16C69.496 12.4208 68.0724 8.98932 65.5416 6.45844C63.0107 3.92756 59.5792 2.50397 56 2.5ZM56 26.5C53.9233 26.5 51.8932 25.8842 50.1665 24.7304C48.4398 23.5767 47.094 21.9368 46.2993 20.0182C45.5046 18.0996 45.2966 15.9884 45.7018 13.9516C46.1069 11.9148 47.1069 10.0438 48.5754 8.57538C50.0438 7.10693 51.9148 6.1069 53.9516 5.70175C55.9884 5.29661 58.0996 5.50454 60.0182 6.29926C61.9368 7.09399 63.5767 8.4398 64.7304 10.1665C65.8842 11.8932 66.5 13.9233 66.5 16C66.497 18.7839 65.3898 21.4528 63.4213 23.4213C61.4529 25.3898 58.7839 26.497 56 26.5ZM60.2288 10.14C60.3674 10.3377 60.4563 10.5659 60.4878 10.8053C60.5194 11.0447 60.4927 11.2881 60.41 11.515L56.41 22.515C56.2741 22.889 55.9952 23.1936 55.6346 23.3619C55.2741 23.5302 54.8615 23.5484 54.4875 23.4125C54.1136 23.2766 53.8089 22.9977 53.6406 22.6371C53.4723 22.2766 53.4541 21.864 53.59 21.49L56.8588 12.5H53C52.6022 12.5 52.2206 12.342 51.9393 12.0607C51.658 11.7794 51.5 11.3978 51.5 11C51.5 10.6022 51.658 10.2206 51.9393 9.93934C52.2206 9.65804 52.6022 9.5 53 9.5H59C59.2412 9.50004 59.4788 9.55823 59.6927 9.66964C59.9066 9.78105 60.0905 9.9424 60.2288 10.14Z" fill="white"/>
</g>
<defs>
<clipPath id="clip0_27_1833">
<rect width="72" height="32" rx="5" fill="white"/>
</clipPath>
</defs>
</svg>
