<svg width="72" height="32" viewBox="0 0 72 32" fill="none" xmlns="http://www.w3.org/2000/svg">
<g clip-path="url(#clip0_27_1838)">
<path d="M18.5 18.5C18.5 18.9945 18.3534 19.4778 18.0787 19.8889C17.804 20.3 17.4135 20.6205 16.9567 20.8097C16.4999 20.9989 15.9972 21.0484 15.5123 20.952C15.0273 20.8555 14.5819 20.6174 14.2322 20.2678C13.8826 19.9181 13.6445 19.4727 13.548 18.9877C13.4516 18.5028 13.5011 18.0001 13.6903 17.5433C13.8795 17.0865 14.2 16.696 14.6111 16.4213C15.0222 16.1466 15.5056 16 16 16C16.663 16 17.2989 16.2634 17.7678 16.7322C18.2366 17.2011 18.5 17.837 18.5 18.5ZM29 16C29 18.5712 28.2376 21.0846 26.8091 23.2224C25.3807 25.3603 23.3503 27.0265 20.9749 28.0104C18.5995 28.9944 15.9856 29.2518 13.4638 28.7502C10.9421 28.2486 8.6257 27.0105 6.80762 25.1924C4.98953 23.3743 3.75141 21.0579 3.2498 18.5362C2.74819 16.0144 3.00563 13.4006 3.98957 11.0251C4.97351 8.64968 6.63975 6.61935 8.77759 5.1909C10.9154 3.76244 13.4288 3 16 3C19.4467 3.00364 22.7512 4.37445 25.1884 6.81163C27.6256 9.24882 28.9964 12.5533 29 16ZM20.5 18.5C20.5 17.3065 20.0259 16.1619 19.182 15.318C18.3381 14.4741 17.1935 14 16 14C15.9238 14 15.8475 14 15.7725 14L17.8588 10.5125C17.9261 10.3997 17.9705 10.2748 17.9895 10.1449C18.0085 10.0149 18.0018 9.8825 17.9696 9.75516C17.9375 9.62783 17.8806 9.50808 17.8021 9.40274C17.7237 9.29741 17.6253 9.20855 17.5125 9.14125C17.3997 9.07395 17.2748 9.02952 17.1449 9.01049C17.0149 8.99147 16.8825 8.99823 16.7552 9.03038C16.6278 9.06253 16.5081 9.11945 16.4028 9.19788C16.2974 9.27632 16.2086 9.37473 16.1413 9.4875C16.1413 9.4875 12.0913 16.2725 12.0825 16.29C11.7436 16.8895 11.5469 17.5589 11.5074 18.2464C11.4679 18.934 11.5868 19.6214 11.8549 20.2558C12.1229 20.8902 12.533 21.4546 13.0535 21.9055C13.5741 22.3565 14.1912 22.6819 14.8573 22.8568C15.5234 23.0317 16.2208 23.0514 16.8957 22.9143C17.5706 22.7772 18.205 22.487 18.7501 22.0662C19.2953 21.6453 19.7365 21.1049 20.0399 20.4866C20.3432 19.8683 20.5007 19.1887 20.5 18.5Z" fill="white"/>
<path d="M56 2.5C53.33 2.5 50.7199 3.29176 48.4998 4.77516C46.2797 6.25856 44.5494 8.36697 43.5276 10.8338C42.5058 13.3006 42.2385 16.015 42.7594 18.6337C43.2803 21.2525 44.5661 23.6579 46.4541 25.5459C48.3421 27.434 50.7475 28.7197 53.3663 29.2406C55.985 29.7615 58.6994 29.4942 61.1662 28.4724C63.633 27.4506 65.7414 25.7203 67.2248 23.5002C68.7082 21.2801 69.5 18.67 69.5 16C69.496 12.4208 68.0724 8.98932 65.5416 6.45844C63.0107 3.92756 59.5792 2.50397 56 2.5ZM56 26.5C53.9233 26.5 51.8932 25.8842 50.1665 24.7304C48.4398 23.5767 47.094 21.9368 46.2993 20.0182C45.5046 18.0996 45.2966 15.9884 45.7018 13.9516C46.1069 11.9148 47.1069 10.0438 48.5754 8.57538C50.0438 7.10693 51.9148 6.1069 53.9516 5.70175C55.9884 5.29661 58.0996 5.50454 60.0182 6.29926C61.9368 7.09399 63.5767 8.4398 64.7304 10.1665C65.8842 11.8932 66.5 13.9233 66.5 16C66.497 18.7839 65.3898 21.4528 63.4213 23.4213C61.4529 25.3898 58.7839 26.497 56 26.5ZM56.6325 13.5413L58.2875 10.7688C58.3943 10.5995 58.4661 10.4107 58.4988 10.2132C58.5315 10.0158 58.5244 9.81389 58.4778 9.61929C58.4313 9.42468 58.3462 9.24136 58.2278 9.08011C58.1093 8.91886 57.9597 8.78294 57.7879 8.68036C57.6161 8.57778 57.4256 8.51061 57.2274 8.48281C57.0293 8.455 56.8275 8.46712 56.6341 8.51846C56.4407 8.56979 56.2596 8.6593 56.1013 8.78171C55.943 8.90413 55.8108 9.05697 55.7125 9.23125L51.6825 15.9812C51.1412 16.9095 50.9133 17.9874 51.0327 19.0553C51.152 20.1232 51.6122 21.1243 52.345 21.9101C53.0779 22.696 54.0444 23.2248 55.1014 23.4183C56.1584 23.6118 57.2496 23.4596 58.2133 22.9844C59.177 22.5091 59.962 21.736 60.4519 20.7796C60.9418 19.8232 61.1105 18.7344 60.9331 17.6746C60.7557 16.6148 60.2416 15.6404 59.467 14.8956C58.6924 14.1509 57.6985 13.6756 56.6325 13.54V13.5413ZM56 20.5C55.6044 20.5 55.2178 20.3827 54.8889 20.1629C54.56 19.9432 54.3036 19.6308 54.1522 19.2654C54.0009 18.8999 53.9613 18.4978 54.0384 18.1098C54.1156 17.7219 54.3061 17.3655 54.5858 17.0858C54.8655 16.8061 55.2219 16.6156 55.6098 16.5384C55.9978 16.4613 56.3999 16.5009 56.7654 16.6522C57.1308 16.8036 57.4432 17.06 57.6629 17.3889C57.8827 17.7178 58 18.1044 58 18.5C58 19.0304 57.7893 19.5391 57.4142 19.9142C57.0391 20.2893 56.5304 20.5 56 20.5Z" fill="white"/>
</g>
<defs>
<clipPath id="clip0_27_1838">
<rect width="72" height="32" rx="5" fill="white"/>
</clipPath>
</defs>
</svg>
