<svg width="72" height="32" viewBox="0 0 72 32" fill="none" xmlns="http://www.w3.org/2000/svg">
<g clip-path="url(#clip0_27_1808)">
<path d="M18.5 19C18.5 19.4945 18.3534 19.9778 18.0787 20.3889C17.804 20.8 17.4135 21.1205 16.9567 21.3097C16.4999 21.4989 15.9972 21.5484 15.5123 21.452C15.0273 21.3555 14.5819 21.1174 14.2322 20.7678C13.8826 20.4181 13.6445 19.9727 13.548 19.4877C13.4516 19.0028 13.5011 18.5001 13.6903 18.0433C13.8795 17.5865 14.2 17.196 14.6111 16.9213C15.0222 16.6466 15.5056 16.5 16 16.5C16.663 16.5 17.2989 16.7634 17.7678 17.2322C18.2366 17.7011 18.5 18.337 18.5 19ZM16 14.5C16.3956 14.5 16.7822 14.3827 17.1111 14.1629C17.44 13.9432 17.6964 13.6308 17.8478 13.2654C17.9991 12.8999 18.0387 12.4978 17.9616 12.1098C17.8844 11.7219 17.6939 11.3655 17.4142 11.0858C17.1345 10.8061 16.7781 10.6156 16.3902 10.5384C16.0022 10.4613 15.6001 10.5009 15.2346 10.6522C14.8692 10.8036 14.5568 11.06 14.3371 11.3889C14.1173 11.7178 14 12.1044 14 12.5C14 13.0304 14.2107 13.5391 14.5858 13.9142C14.9609 14.2893 15.4696 14.5 16 14.5ZM29 16C29 18.5712 28.2376 21.0846 26.8091 23.2224C25.3807 25.3603 23.3503 27.0265 20.9749 28.0104C18.5995 28.9944 15.9856 29.2518 13.4638 28.7502C10.9421 28.2486 8.6257 27.0105 6.80762 25.1924C4.98953 23.3743 3.75141 21.0579 3.2498 18.5362C2.74819 16.0144 3.00563 13.4006 3.98957 11.0251C4.97351 8.64968 6.63975 6.61935 8.77759 5.1909C10.9154 3.76244 13.4288 3 16 3C19.4467 3.00364 22.7512 4.37445 25.1884 6.81163C27.6256 9.24882 28.9964 12.5533 29 16ZM20.5 19C20.5001 18.3075 20.34 17.6244 20.0323 17.004C19.7246 16.3836 19.2776 15.8428 18.7263 15.4237C19.314 14.8763 19.7234 14.1646 19.901 13.3812C20.0786 12.5979 20.0163 11.7792 19.7221 11.0318C19.428 10.2844 18.9156 9.64284 18.2517 9.19069C17.5878 8.73853 16.8032 8.49671 16 8.49671C15.1968 8.49671 14.4122 8.73853 13.7483 9.19069C13.0844 9.64284 12.5721 10.2844 12.2779 11.0318C11.9837 11.7792 11.9214 12.5979 12.099 13.3812C12.2767 14.1646 12.686 14.8763 13.2738 15.4237C12.6645 15.8877 12.1837 16.4995 11.8769 17.2012C11.5701 17.9029 11.4474 18.6713 11.5206 19.4336C11.5937 20.1959 11.8602 20.927 12.2947 21.5575C12.7293 22.1881 13.3177 22.6973 14.004 23.037C14.6904 23.3767 15.4521 23.5356 16.217 23.4987C16.982 23.4617 17.7248 23.2302 18.3753 22.826C19.0257 22.4217 19.5623 21.8582 19.9341 21.1887C20.3059 20.5192 20.5007 19.7658 20.5 19Z" fill="white"/>
<path d="M56 2.5C53.33 2.5 50.7199 3.29176 48.4998 4.77516C46.2797 6.25856 44.5494 8.36697 43.5276 10.8338C42.5058 13.3006 42.2385 16.015 42.7594 18.6337C43.2803 21.2525 44.5661 23.6579 46.4541 25.5459C48.3421 27.434 50.7475 28.7197 53.3663 29.2406C55.985 29.7615 58.6994 29.4942 61.1662 28.4724C63.633 27.4506 65.7414 25.7203 67.2248 23.5002C68.7082 21.2801 69.5 18.67 69.5 16C69.496 12.4208 68.0724 8.98932 65.5416 6.45844C63.0107 3.92756 59.5792 2.50397 56 2.5ZM56 26.5C53.9233 26.5 51.8932 25.8842 50.1665 24.7304C48.4398 23.5767 47.094 21.9368 46.2993 20.0182C45.5046 18.0996 45.2966 15.9884 45.7018 13.9516C46.1069 11.9148 47.1069 10.0438 48.5754 8.57538C50.0438 7.10693 51.9148 6.1069 53.9516 5.70175C55.9884 5.29661 58.0996 5.50454 60.0182 6.29926C61.9368 7.09399 63.5767 8.4398 64.7304 10.1665C65.8842 11.8932 66.5 13.9233 66.5 16C66.497 18.7839 65.3898 21.4528 63.4213 23.4213C61.4529 25.3898 58.7839 26.497 56 26.5ZM59.45 15.3862C59.9997 14.7298 60.3508 13.9302 60.4619 13.0812C60.5731 12.2322 60.4397 11.3691 60.0775 10.5933C59.7152 9.81746 59.1392 9.16108 58.4169 8.7012C57.6947 8.24132 56.8562 7.99705 56 7.99705C55.1438 7.99705 54.3053 8.24132 53.5831 8.7012C52.8608 9.16108 52.2848 9.81746 51.9225 10.5933C51.5603 11.3691 51.4269 12.2322 51.5381 13.0812C51.6492 13.9302 52.0003 14.7298 52.55 15.3862C51.8269 16.0756 51.3268 16.9658 51.1144 17.9421C50.9019 18.9183 50.9868 19.9358 51.3581 20.8634C51.7293 21.7909 52.37 22.5859 53.1974 23.146C54.0247 23.706 55.0009 24.0053 56 24.0053C56.9991 24.0053 57.9753 23.706 58.8027 23.146C59.63 22.5859 60.2707 21.7909 60.6419 20.8634C61.0132 19.9358 61.0981 18.9183 60.8857 17.9421C60.6732 16.9658 60.1732 16.0756 59.45 15.3862ZM54.5 12.5C54.5 12.2033 54.588 11.9133 54.7528 11.6666C54.9176 11.42 55.1519 11.2277 55.426 11.1142C55.7001 11.0006 56.0017 10.9709 56.2926 11.0288C56.5836 11.0867 56.8509 11.2296 57.0607 11.4393C57.2704 11.6491 57.4133 11.9164 57.4712 12.2074C57.5291 12.4983 57.4994 12.7999 57.3858 13.074C57.2723 13.3481 57.08 13.5824 56.8334 13.7472C56.5867 13.912 56.2967 14 56 14C55.6022 14 55.2206 13.842 54.9393 13.5607C54.658 13.2794 54.5 12.8978 54.5 12.5ZM56 21C55.6044 21 55.2178 20.8827 54.8889 20.6629C54.56 20.4432 54.3036 20.1308 54.1522 19.7654C54.0009 19.3999 53.9613 18.9978 54.0384 18.6098C54.1156 18.2219 54.3061 17.8655 54.5858 17.5858C54.8655 17.3061 55.2219 17.1156 55.6098 17.0384C55.9978 16.9613 56.3999 17.0009 56.7654 17.1522C57.1308 17.3036 57.4432 17.56 57.6629 17.8889C57.8827 18.2178 58 18.6044 58 19C58 19.5304 57.7893 20.0391 57.4142 20.4142C57.0391 20.7893 56.5304 21 56 21Z" fill="white"/>
</g>
<defs>
<clipPath id="clip0_27_1808">
<rect width="72" height="32" rx="5" fill="white"/>
</clipPath>
</defs>
</svg>
