<svg width="72" height="32" viewBox="0 0 72 32" fill="none" xmlns="http://www.w3.org/2000/svg">
<g clip-path="url(#clip0_27_1823)">
<path d="M18.1663 14.75C17.9191 15.1783 17.5506 15.5236 17.1072 15.7424C16.6638 15.9612 16.1655 16.0437 15.6753 15.9793C15.1851 15.9149 14.7249 15.7066 14.3531 15.3807C13.9812 15.0548 13.7144 14.626 13.5863 14.1484C13.4581 13.6709 13.4745 13.166 13.6333 12.6978C13.792 12.2295 14.0861 11.8189 14.4782 11.5177C14.8704 11.2166 15.343 11.0385 15.8364 11.006C16.3298 10.9735 16.8217 11.088 17.25 11.335C17.824 11.6667 18.2427 12.2129 18.414 12.8533C18.5854 13.4937 18.4954 14.176 18.1638 14.75H18.1663ZM29 16C29 18.5712 28.2376 21.0846 26.8091 23.2224C25.3807 25.3603 23.3503 27.0265 20.9749 28.0104C18.5995 28.9944 15.9856 29.2518 13.4638 28.7502C10.9421 28.2486 8.6257 27.0105 6.80762 25.1924C4.98953 23.3743 3.75141 21.0579 3.2498 18.5362C2.74819 16.0144 3.00563 13.4006 3.98957 11.0251C4.97351 8.64968 6.63975 6.61935 8.77759 5.1909C10.9154 3.76244 13.4288 3 16 3C19.4467 3.00364 22.7512 4.37445 25.1884 6.81163C27.6256 9.24882 28.9964 12.5533 29 16ZM18.25 9.6025C17.6525 9.25767 16.9837 9.05484 16.2953 9.00966C15.6069 8.96449 14.9174 9.0782 14.28 9.34199C13.6425 9.60579 13.0743 10.0126 12.6191 10.531C12.1639 11.0494 11.8341 11.6655 11.655 12.3318C11.4759 12.998 11.4524 13.6964 11.5862 14.3732C11.7201 15.0499 12.0077 15.6869 12.427 16.2347C12.8462 16.7826 13.3858 17.2267 14.0041 17.5328C14.6223 17.8389 15.3026 17.9987 15.9925 18C16.0708 18 16.1496 17.9975 16.2288 17.9925L14.1413 21.4925C14.0734 21.6054 14.0285 21.7307 14.0091 21.861C13.9898 21.9913 13.9964 22.1242 14.0286 22.252C14.0607 22.3798 14.1178 22.4999 14.1966 22.6055C14.2754 22.7112 14.3742 22.8002 14.4875 22.8675C14.6004 22.9354 14.7257 22.9803 14.856 22.9996C14.9863 23.019 15.1192 23.0124 15.247 22.9802C15.3748 22.948 15.4949 22.8909 15.6005 22.8122C15.7062 22.7334 15.7952 22.6345 15.8625 22.5212L19.8975 15.75C20.4926 14.716 20.6534 13.4881 20.3446 12.3357C20.0357 11.1833 19.2825 10.2004 18.25 9.6025Z" fill="white"/>
<path d="M56 2.5C53.33 2.5 50.7199 3.29176 48.4998 4.77516C46.2797 6.25856 44.5494 8.36697 43.5276 10.8338C42.5058 13.3006 42.2385 16.015 42.7594 18.6337C43.2803 21.2525 44.5661 23.6579 46.4541 25.5459C48.3421 27.434 50.7475 28.7197 53.3663 29.2406C55.985 29.7615 58.6994 29.4942 61.1662 28.4724C63.633 27.4506 65.7414 25.7203 67.2248 23.5002C68.7082 21.2801 69.5 18.67 69.5 16C69.496 12.4208 68.0724 8.98932 65.5416 6.45844C63.0107 3.92756 59.5792 2.50397 56 2.5ZM56 26.5C53.9233 26.5 51.8932 25.8842 50.1665 24.7304C48.4398 23.5767 47.094 21.9368 46.2993 20.0182C45.5046 18.0996 45.2966 15.9884 45.7018 13.9516C46.1069 11.9148 47.1069 10.0438 48.5754 8.57538C50.0438 7.10693 51.9148 6.1069 53.9516 5.70175C55.9884 5.29661 58.0996 5.50454 60.0182 6.29926C61.9368 7.09399 63.5767 8.4398 64.7304 10.1665C65.8842 11.8932 66.5 13.9233 66.5 16C66.497 18.7839 65.3898 21.4528 63.4213 23.4213C61.4529 25.3898 58.7839 26.497 56 26.5ZM58.5 9.17C57.859 8.79993 57.1438 8.57679 56.4061 8.51669C55.6684 8.45659 54.9265 8.56102 54.234 8.82246C53.5416 9.08389 52.9158 9.4958 52.4019 10.0285C51.8879 10.5611 51.4987 11.2012 51.2622 11.9026C51.0257 12.604 50.9479 13.3491 51.0343 14.0842C51.1208 14.8193 51.3694 15.526 51.7621 16.1534C52.1549 16.7808 52.682 17.3131 53.3055 17.712C53.929 18.1109 54.6333 18.3664 55.3675 18.46L53.7125 21.2313C53.6057 21.4005 53.5339 21.5893 53.5012 21.7868C53.4685 21.9842 53.4757 22.1861 53.5222 22.3807C53.5688 22.5753 53.6538 22.7586 53.7723 22.9199C53.8907 23.0811 54.0403 23.2171 54.2121 23.3196C54.3839 23.4222 54.5745 23.4894 54.7726 23.5172C54.9708 23.545 55.1725 23.5329 55.3659 23.4815C55.5593 23.4302 55.7404 23.3407 55.8987 23.2183C56.057 23.0959 56.1892 22.943 56.2875 22.7687L60.33 16C60.993 14.8516 61.1727 13.4869 60.8295 12.206C60.4863 10.9251 59.6484 9.83306 58.5 9.17ZM57.7325 14.5C57.5347 14.8425 57.2398 15.1187 56.8851 15.2936C56.5303 15.4686 56.1317 15.5344 55.7395 15.4828C55.3474 15.4311 54.9793 15.2644 54.6819 15.0036C54.3846 14.7428 54.1712 14.3998 54.0687 14.0177C53.9663 13.6357 53.9795 13.2318 54.1066 12.8573C54.2337 12.4827 54.4689 12.1543 54.7827 11.9134C55.0964 11.6726 55.4745 11.5301 55.8692 11.5042C56.2639 11.4782 56.6574 11.5698 57 11.7675C57.4591 12.0331 57.794 12.4701 57.9309 12.9826C58.0678 13.495 57.9955 14.0408 57.73 14.5H57.7325Z" fill="white"/>
</g>
<defs>
<clipPath id="clip0_27_1823">
<rect width="72" height="32" rx="5" fill="white"/>
</clipPath>
</defs>
</svg>
