<svg width="72" height="32" viewBox="0 0 72 32" fill="none" xmlns="http://www.w3.org/2000/svg">
<g clip-path="url(#clip0_27_1898)">
<path d="M26 4H6C5.46957 4 4.96086 4.21071 4.58579 4.58579C4.21071 4.96086 4 5.46957 4 6V26C4 26.5304 4.21071 27.0391 4.58579 27.4142C4.96086 27.7893 5.46957 28 6 28H26C26.5304 28 27.0391 27.7893 27.4142 27.4142C27.7893 27.0391 28 26.5304 28 26V6C28 5.46957 27.7893 4.96086 27.4142 4.58579C27.0391 4.21071 26.5304 4 26 4ZM15.5 14C16.6935 14 17.8381 14.4741 18.682 15.318C19.5259 16.1619 20 17.3065 20 18.5C20 19.6935 19.5259 20.8381 18.682 21.682C17.8381 22.5259 16.6935 23 15.5 23C14.9045 23.0098 14.3132 22.8997 13.7611 22.6764C13.209 22.4531 12.7074 22.121 12.2863 21.7C12.1907 21.6071 12.1146 21.4959 12.0626 21.3732C12.0106 21.2504 11.9837 21.1185 11.9834 20.9852C11.9831 20.8519 12.0095 20.7199 12.061 20.5969C12.1125 20.4739 12.188 20.3625 12.2832 20.2691C12.3784 20.1758 12.4913 20.1024 12.6152 20.0533C12.7392 20.0043 12.8717 19.9804 13.005 19.9833C13.1383 19.9862 13.2696 20.0157 13.3913 20.0701C13.5131 20.1245 13.6227 20.2026 13.7137 20.3C13.9496 20.5301 14.2292 20.7106 14.536 20.8308C14.8428 20.951 15.1706 21.0086 15.5 21C16.163 21 16.7989 20.7366 17.2678 20.2678C17.7366 19.7989 18 19.163 18 18.5C18 17.837 17.7366 17.2011 17.2678 16.7322C16.7989 16.2634 16.163 16 15.5 16C15.1706 15.9914 14.8428 16.049 14.536 16.1692C14.2292 16.2894 13.9496 16.4699 13.7137 16.7C13.5648 16.8518 13.3713 16.9521 13.1614 16.9864C12.9515 17.0207 12.7362 16.9872 12.5466 16.8907C12.3571 16.7943 12.2032 16.6399 12.1074 16.4501C12.0116 16.2602 11.9788 16.0448 12.0138 15.835L13.0138 9.835C13.0528 9.60164 13.1733 9.38968 13.3539 9.2368C13.5345 9.08391 13.7634 9.00001 14 9H19C19.2652 9 19.5196 9.10536 19.7071 9.29289C19.8946 9.48043 20 9.73478 20 10C20 10.2652 19.8946 10.5196 19.7071 10.7071C19.5196 10.8946 19.2652 11 19 11H14.8475L14.3237 14.1425C14.7085 14.0471 15.1036 13.9992 15.5 14Z" fill="white"/>
<path d="M66 3.5H46C45.337 3.5 44.7011 3.76339 44.2322 4.23223C43.7634 4.70107 43.5 5.33696 43.5 6V26C43.5 26.663 43.7634 27.2989 44.2322 27.7678C44.7011 28.2366 45.337 28.5 46 28.5H66C66.663 28.5 67.2989 28.2366 67.7678 27.7678C68.2366 27.2989 68.5 26.663 68.5 26V6C68.5 5.33696 68.2366 4.70107 67.7678 4.23223C67.2989 3.76339 66.663 3.5 66 3.5ZM65.5 25.5H46.5V6.5H65.5V25.5ZM51.52 15.75L52.52 9.75C52.5791 9.40031 52.7602 9.08288 53.0311 8.85404C53.3021 8.6252 53.6454 8.49977 54 8.5H59C59.3978 8.5 59.7794 8.65804 60.0607 8.93934C60.342 9.22064 60.5 9.60218 60.5 10C60.5 10.3978 60.342 10.7794 60.0607 11.0607C59.7794 11.342 59.3978 11.5 59 11.5H55.2712L54.9325 13.5288C55.1211 13.5097 55.3105 13.5001 55.5 13.5C56.8261 13.5 58.0979 14.0268 59.0355 14.9645C59.9732 15.9021 60.5 17.1739 60.5 18.5C60.5 19.8261 59.9732 21.0979 59.0355 22.0355C58.0979 22.9732 56.8261 23.5 55.5 23.5C54.8379 23.5099 54.1807 23.3867 53.5672 23.1376C52.9537 22.8885 52.3965 22.5186 51.9288 22.05C51.7909 21.9093 51.682 21.7429 51.6085 21.5601C51.5349 21.3774 51.4981 21.1819 51.5 20.985C51.502 20.788 51.5428 20.5933 51.62 20.4121C51.6972 20.2309 51.8093 20.0666 51.95 19.9287C52.0907 19.7909 52.2571 19.682 52.4399 19.6085C52.6226 19.5349 52.818 19.4981 53.015 19.5C53.212 19.502 53.4067 19.5428 53.5879 19.62C53.7691 19.6972 53.9334 19.8093 54.0712 19.95C54.2597 20.1337 54.4836 20.2771 54.7292 20.3717C54.9748 20.4662 55.237 20.5099 55.5 20.5C56.0304 20.5 56.5391 20.2893 56.9142 19.9142C57.2893 19.5391 57.5 19.0304 57.5 18.5C57.5 17.9696 57.2893 17.4609 56.9142 17.0858C56.5391 16.7107 56.0304 16.5 55.5 16.5C55.237 16.4901 54.9748 16.5338 54.7292 16.6283C54.4836 16.7229 54.2597 16.8663 54.0712 17.05C53.8478 17.2785 53.5571 17.4297 53.2417 17.4815C52.9263 17.5332 52.6026 17.4829 52.3178 17.3377C52.033 17.1926 51.802 16.9603 51.6585 16.6747C51.515 16.3891 51.4665 16.0651 51.52 15.75Z" fill="white"/>
</g>
<defs>
<clipPath id="clip0_27_1898">
<rect width="72" height="32" rx="5" fill="white"/>
</clipPath>
</defs>
</svg>
