<svg width="72" height="32" viewBox="0 0 72 32" fill="none" xmlns="http://www.w3.org/2000/svg">
<g clip-path="url(#clip0_27_1813)">
<path d="M16 3C13.4288 3 10.9154 3.76244 8.77759 5.1909C6.63975 6.61935 4.97351 8.64968 3.98957 11.0251C3.00563 13.4006 2.74819 16.0144 3.2498 18.5362C3.75141 21.0579 4.98953 23.3743 6.80762 25.1924C8.6257 27.0105 10.9421 28.2486 13.4638 28.7502C15.9856 29.2518 18.5995 28.9944 20.9749 28.0104C23.3503 27.0265 25.3807 25.3603 26.8091 23.2224C28.2376 21.0846 29 18.5712 29 16C28.9964 12.5533 27.6256 9.24882 25.1884 6.81163C22.7512 4.37445 19.4467 3.00364 16 3ZM15.5 14C16.6935 14 17.8381 14.4741 18.682 15.318C19.5259 16.1619 20 17.3065 20 18.5C20 19.6935 19.5259 20.8381 18.682 21.682C17.8381 22.5259 16.6935 23 15.5 23C14.9045 23.0098 14.3132 22.8997 13.7611 22.6764C13.209 22.4531 12.7074 22.121 12.2863 21.7C12.1907 21.6071 12.1147 21.4959 12.0626 21.3732C12.0106 21.2504 11.9837 21.1185 11.9834 20.9852C11.9831 20.8519 12.0095 20.7199 12.061 20.5969C12.1125 20.4739 12.188 20.3625 12.2832 20.2691C12.3784 20.1758 12.4913 20.1024 12.6152 20.0533C12.7392 20.0043 12.8717 19.9804 13.005 19.9833C13.1383 19.9862 13.2696 20.0157 13.3914 20.0701C13.5131 20.1245 13.6227 20.2026 13.7138 20.3C13.9496 20.5301 14.2292 20.7106 14.536 20.8308C14.8428 20.951 15.1706 21.0086 15.5 21C16.163 21 16.7989 20.7366 17.2678 20.2678C17.7366 19.7989 18 19.163 18 18.5C18 17.837 17.7366 17.2011 17.2678 16.7322C16.7989 16.2634 16.163 16 15.5 16C15.1706 15.9914 14.8428 16.049 14.536 16.1692C14.2292 16.2894 13.9496 16.4699 13.7138 16.7C13.5648 16.8518 13.3713 16.9521 13.1614 16.9864C12.9515 17.0207 12.7362 16.9872 12.5466 16.8907C12.3571 16.7943 12.2032 16.6399 12.1074 16.4501C12.0116 16.2602 11.9788 16.0448 12.0138 15.835L13.0138 9.835C13.0528 9.60164 13.1733 9.38968 13.3539 9.2368C13.5345 9.08391 13.7634 9.00001 14 9H19C19.2652 9 19.5196 9.10536 19.7071 9.29289C19.8946 9.48043 20 9.73478 20 10C20 10.2652 19.8946 10.5196 19.7071 10.7071C19.5196 10.8946 19.2652 11 19 11H14.8475L14.3238 14.1425C14.7085 14.0471 15.1036 13.9992 15.5 14Z" fill="white"/>
<path d="M56 2.5C53.33 2.5 50.7199 3.29176 48.4998 4.77516C46.2797 6.25856 44.5494 8.36697 43.5276 10.8338C42.5058 13.3006 42.2385 16.015 42.7594 18.6337C43.2803 21.2525 44.5661 23.6579 46.4541 25.5459C48.3421 27.434 50.7475 28.7197 53.3663 29.2406C55.985 29.7615 58.6994 29.4942 61.1662 28.4724C63.633 27.4506 65.7414 25.7203 67.2248 23.5002C68.7082 21.2801 69.5 18.67 69.5 16C69.496 12.4208 68.0724 8.98932 65.5416 6.45844C63.0107 3.92756 59.5792 2.50397 56 2.5ZM56 26.5C53.9233 26.5 51.8932 25.8842 50.1665 24.7304C48.4398 23.5767 47.094 21.9368 46.2993 20.0182C45.5046 18.0996 45.2966 15.9884 45.7018 13.9516C46.1069 11.9148 47.1069 10.0438 48.5754 8.57538C50.0438 7.10693 51.9148 6.1069 53.9516 5.70175C55.9884 5.29661 58.0996 5.50454 60.0182 6.29926C61.9368 7.09399 63.5767 8.4398 64.7304 10.1665C65.8842 11.8932 66.5 13.9233 66.5 16C66.497 18.7839 65.3898 21.4528 63.4213 23.4213C61.4529 25.3898 58.7839 26.497 56 26.5ZM55.2713 11.5L54.9325 13.5288C55.1211 13.5097 55.3105 13.5001 55.5 13.5C56.8261 13.5 58.0979 14.0268 59.0355 14.9645C59.9732 15.9021 60.5 17.1739 60.5 18.5C60.5 19.8261 59.9732 21.0979 59.0355 22.0355C58.0979 22.9732 56.8261 23.5 55.5 23.5C54.838 23.5099 54.1807 23.3867 53.5672 23.1376C52.9537 22.8885 52.3965 22.5186 51.9288 22.05C51.7909 21.9093 51.682 21.7429 51.6085 21.5601C51.5349 21.3774 51.4981 21.1819 51.5001 20.985C51.502 20.788 51.5428 20.5933 51.62 20.4121C51.6972 20.2309 51.8093 20.0666 51.95 19.9287C52.0907 19.7909 52.2571 19.682 52.4399 19.6085C52.6226 19.5349 52.8181 19.4981 53.015 19.5C53.212 19.502 53.4067 19.5428 53.5879 19.62C53.7691 19.6972 53.9334 19.8093 54.0713 19.95C54.2597 20.1337 54.4836 20.2771 54.7292 20.3717C54.9748 20.4662 55.237 20.5099 55.5 20.5C56.0304 20.5 56.5391 20.2893 56.9142 19.9142C57.2893 19.5391 57.5 19.0304 57.5 18.5C57.5 17.9696 57.2893 17.4609 56.9142 17.0858C56.5391 16.7107 56.0304 16.5 55.5 16.5C55.237 16.4901 54.9748 16.5338 54.7292 16.6283C54.4836 16.7229 54.2597 16.8663 54.0713 17.05C53.8478 17.2785 53.5571 17.4297 53.2417 17.4815C52.9263 17.5332 52.6026 17.4829 52.3178 17.3377C52.033 17.1926 51.802 16.9603 51.6585 16.6747C51.515 16.3891 51.4665 16.0651 51.52 15.75L52.52 9.75C52.5791 9.40031 52.7602 9.08288 53.0312 8.85404C53.3021 8.6252 53.6454 8.49977 54 8.5H59C59.3978 8.5 59.7794 8.65804 60.0607 8.93934C60.342 9.22064 60.5 9.60218 60.5 10C60.5 10.3978 60.342 10.7794 60.0607 11.0607C59.7794 11.342 59.3978 11.5 59 11.5H55.2713Z" fill="white"/>
</g>
<defs>
<clipPath id="clip0_27_1813">
<rect width="72" height="32" rx="5" fill="white"/>
</clipPath>
</defs>
</svg>
