<svg width="72" height="32" viewBox="0 0 72 32" fill="none" xmlns="http://www.w3.org/2000/svg">
<g clip-path="url(#clip0_27_1853)">
<path d="M19.5 16C19.5 17.8575 18.7625 21 16 21C13.2375 21 12.5 17.8575 12.5 16C12.5 14.1425 13.2375 11 16 11C18.7625 11 19.5 14.1425 19.5 16ZM29 16C29 18.5712 28.2376 21.0846 26.8091 23.2224C25.3807 25.3603 23.3503 27.0265 20.9749 28.0104C18.5995 28.9944 15.9856 29.2518 13.4638 28.7502C10.9421 28.2486 8.6257 27.0105 6.80762 25.1924C4.98953 23.3743 3.75141 21.0579 3.2498 18.5362C2.74819 16.0144 3.00563 13.4006 3.98957 11.0251C4.97351 8.64968 6.63975 6.61935 8.77759 5.1909C10.9154 3.76244 13.4288 3 16 3C19.4467 3.00364 22.7512 4.37445 25.1884 6.81163C27.6256 9.24882 28.9964 12.5533 29 16ZM21.5 16C21.5 14.2188 21.055 12.5588 20.25 11.3263C19.25 9.805 17.7788 9 16 9C14.2213 9 12.75 9.805 11.75 11.3263C10.9413 12.5588 10.5 14.2188 10.5 16C10.5 17.7812 10.945 19.4412 11.75 20.6737C12.75 22.1963 14.2175 23 16 23C17.7825 23 19.25 22.1963 20.25 20.6737C21.055 19.4412 21.5 17.7812 21.5 16Z" fill="white"/>
<path d="M56 2.5C53.33 2.5 50.7199 3.29176 48.4998 4.77516C46.2797 6.25856 44.5494 8.36697 43.5276 10.8338C42.5058 13.3006 42.2385 16.015 42.7594 18.6337C43.2803 21.2525 44.5661 23.6579 46.4541 25.5459C48.3421 27.434 50.7475 28.7197 53.3663 29.2406C55.985 29.7615 58.6994 29.4942 61.1662 28.4724C63.633 27.4506 65.7414 25.7203 67.2248 23.5002C68.7082 21.2801 69.5 18.67 69.5 16C69.496 12.4208 68.0724 8.98932 65.5416 6.45844C63.0107 3.92756 59.5792 2.50397 56 2.5ZM56 26.5C53.9233 26.5 51.8932 25.8842 50.1665 24.7304C48.4398 23.5767 47.094 21.9368 46.2993 20.0182C45.5046 18.0996 45.2966 15.9884 45.7018 13.9516C46.1069 11.9148 47.1069 10.0438 48.5754 8.57538C50.0438 7.10693 51.9148 6.1069 53.9516 5.70175C55.9884 5.29661 58.0996 5.50454 60.0182 6.29926C61.9368 7.09399 63.5767 8.4398 64.7304 10.1665C65.8842 11.8932 66.5 13.9233 66.5 16C66.497 18.7839 65.3898 21.4528 63.4213 23.4213C61.4529 25.3898 58.7839 26.497 56 26.5ZM56 8.5C52.4675 8.5 50 11.5837 50 16C50 20.4163 52.4675 23.5 56 23.5C59.5325 23.5 62 20.4163 62 16C62 11.5837 59.5325 8.5 56 8.5ZM56 20.5C53.0838 20.5 53 16.46 53 16C53 15.54 53.0838 11.5 56 11.5C58.9163 11.5 59 15.54 59 16C59 16.46 58.9163 20.5 56 20.5Z" fill="white"/>
</g>
<defs>
<clipPath id="clip0_27_1853">
<rect width="72" height="32" rx="5" fill="white"/>
</clipPath>
</defs>
</svg>
