<svg width="72" height="32" viewBox="0 0 72 32" fill="none" xmlns="http://www.w3.org/2000/svg">
<g clip-path="url(#clip0_27_1843)">
<path d="M16 3C13.4288 3 10.9154 3.76244 8.77759 5.1909C6.63975 6.61935 4.97351 8.64968 3.98957 11.0251C3.00563 13.4006 2.74819 16.0144 3.2498 18.5362C3.75141 21.0579 4.98953 23.3743 6.80762 25.1924C8.6257 27.0105 10.9421 28.2486 13.4638 28.7502C15.9856 29.2518 18.5995 28.9944 20.9749 28.0104C23.3503 27.0265 25.3807 25.3603 26.8091 23.2224C28.2376 21.0846 29 18.5712 29 16C28.9964 12.5533 27.6256 9.24882 25.1884 6.81163C22.7512 4.37445 19.4467 3.00364 16 3ZM15.5 23.5C14.9011 23.5019 14.3079 23.3832 13.7558 23.1511C13.2036 22.919 12.7039 22.5781 12.2863 22.1488C12.1885 22.0563 12.1105 21.9451 12.0567 21.8218C12.003 21.6985 11.9747 21.5656 11.9735 21.4311C11.9723 21.2966 11.9983 21.1632 12.0499 21.039C12.1014 20.9147 12.1775 20.8022 12.2736 20.708C12.3697 20.6139 12.4838 20.5401 12.609 20.4911C12.7343 20.4421 12.8682 20.4188 13.0026 20.4227C13.1371 20.4267 13.2693 20.4577 13.3915 20.5139C13.5137 20.5701 13.6233 20.6504 13.7138 20.75C14.0023 21.0443 14.3591 21.2628 14.7524 21.3859C15.1457 21.509 15.5634 21.5329 15.9682 21.4556C16.373 21.3783 16.7525 21.202 17.0727 20.9426C17.393 20.6832 17.6441 20.3486 17.8038 19.9687C17.9635 19.5887 18.0268 19.1752 17.988 18.7648C17.9493 18.3545 17.8097 17.9602 17.5816 17.6168C17.3536 17.2735 17.0442 16.9919 16.681 16.797C16.3179 16.6022 15.9122 16.5001 15.5 16.5C15.3171 16.4999 15.1377 16.4497 14.9813 16.3548C14.8249 16.2598 14.6976 16.1238 14.6132 15.9615C14.5287 15.7992 14.4904 15.6169 14.5024 15.4344C14.5144 15.2518 14.5763 15.0761 14.6813 14.9263L17.0788 11.5H13C12.7348 11.5 12.4804 11.3946 12.2929 11.2071C12.1054 11.0196 12 10.7652 12 10.5C12 10.2348 12.1054 9.98043 12.2929 9.79289C12.4804 9.60536 12.7348 9.5 13 9.5H19C19.1829 9.50005 19.3624 9.55028 19.5187 9.64522C19.6751 9.74017 19.8024 9.87618 19.8869 10.0385C19.9713 10.2008 20.0096 10.3831 19.9976 10.5656C19.9856 10.7482 19.9237 10.9239 19.8188 11.0737L17.1938 14.8237C18.1654 15.2136 18.9706 15.9301 19.4709 16.8498C19.9711 17.7694 20.1351 18.8347 19.9345 19.8622C19.7339 20.8898 19.1813 21.8152 18.3719 22.4792C17.5625 23.1432 16.5469 23.5042 15.5 23.5Z" fill="white"/>
<path d="M56 2.5C53.33 2.5 50.7199 3.29176 48.4998 4.77516C46.2797 6.25856 44.5494 8.36697 43.5276 10.8338C42.5058 13.3006 42.2385 16.015 42.7594 18.6337C43.2803 21.2525 44.5661 23.6579 46.4541 25.5459C48.3421 27.434 50.7475 28.7197 53.3663 29.2406C55.985 29.7615 58.6994 29.4942 61.1662 28.4724C63.633 27.4506 65.7414 25.7203 67.2248 23.5002C68.7082 21.2801 69.5 18.67 69.5 16C69.496 12.4208 68.0724 8.98932 65.5416 6.45844C63.0107 3.92756 59.5792 2.50397 56 2.5ZM56 26.5C53.9233 26.5 51.8932 25.8842 50.1665 24.7304C48.4398 23.5767 47.094 21.9368 46.2993 20.0182C45.5046 18.0996 45.2966 15.9884 45.7018 13.9516C46.1069 11.9148 47.1069 10.0438 48.5754 8.57538C50.0438 7.10693 51.9148 6.1069 53.9516 5.70175C55.9884 5.29661 58.0996 5.50454 60.0182 6.29926C61.9368 7.09399 63.5767 8.4398 64.7304 10.1665C65.8842 11.8932 66.5 13.9233 66.5 16C66.497 18.7839 65.3898 21.4528 63.4213 23.4213C61.4529 25.3898 58.7839 26.497 56 26.5ZM60.5 19C60.5001 19.9933 60.2044 20.9641 59.6505 21.7886C59.0967 22.6131 58.3098 23.254 57.3902 23.6295C56.4706 24.005 55.4601 24.0981 54.4874 23.8969C53.5147 23.6958 52.6239 23.2094 51.9288 22.5C51.7855 22.3605 51.6716 22.1937 51.5938 22.0096C51.5159 21.8254 51.4757 21.6276 51.4754 21.4276C51.4751 21.2277 51.5148 21.0297 51.5922 20.8453C51.6695 20.6609 51.7829 20.4939 51.9257 20.354C52.0686 20.2141 52.2379 20.1041 52.4239 20.0306C52.6098 19.9571 52.8086 19.9215 53.0085 19.9259C53.2083 19.9303 53.4053 19.9746 53.5879 20.0562C53.7704 20.1379 53.9347 20.2552 54.0713 20.4013C54.3022 20.6364 54.5877 20.8109 54.9023 20.9091C55.2169 21.0073 55.5509 21.0263 55.8746 20.9643C56.1984 20.9023 56.5017 20.7612 56.7578 20.5536C57.0138 20.3461 57.2146 20.0784 57.3422 19.7746C57.4699 19.4707 57.5205 19.14 57.4894 18.8118C57.4584 18.4837 57.3468 18.1683 57.1645 17.8937C56.9822 17.6191 56.7348 17.3939 56.4444 17.2379C56.154 17.082 55.8296 17.0003 55.5 17C55.2257 17 54.9566 16.9247 54.722 16.7823C54.4875 16.64 54.2965 16.4361 54.1698 16.1927C54.0431 15.9494 53.9855 15.6759 54.0034 15.4022C54.0213 15.1284 54.114 14.8648 54.2713 14.64L56.125 12H53C52.6022 12 52.2206 11.842 51.9393 11.5607C51.658 11.2794 51.5 10.8978 51.5 10.5C51.5 10.1022 51.658 9.72064 51.9393 9.43934C52.2206 9.15804 52.6022 9 53 9H59C59.2744 9.00004 59.5434 9.07533 59.778 9.21767C60.0125 9.36 60.2035 9.56394 60.3302 9.80728C60.4569 10.0506 60.5145 10.3241 60.4966 10.5978C60.4787 10.8716 60.3861 11.1352 60.2288 11.36L57.9363 14.635C58.7134 15.0686 59.3607 15.7017 59.8114 16.4691C60.262 17.2364 60.4998 18.1101 60.5 19Z" fill="white"/>
</g>
<defs>
<clipPath id="clip0_27_1843">
<rect width="72" height="32" rx="5" fill="white"/>
</clipPath>
</defs>
</svg>
