<svg width="72" height="32" viewBox="0 0 72 32" fill="none" xmlns="http://www.w3.org/2000/svg">
<g clip-path="url(#clip0_27_1873)">
<path d="M25 3H7C6.46957 3 5.96086 3.21071 5.58579 3.58579C5.21071 3.96086 5 4.46957 5 5V27C5 27.5304 5.21071 28.0391 5.58579 28.4142C5.96086 28.7893 6.46957 29 7 29H25C25.5304 29 26.0391 28.7893 26.4142 28.4142C26.7893 28.0391 27 27.5304 27 27V5C27 4.46957 26.7893 3.96086 26.4142 3.58579C26.0391 3.21071 25.5304 3 25 3ZM20.7875 16.2025L16.5775 23.5C16.4449 23.7297 16.2264 23.8974 15.9702 23.9661C15.714 24.0348 15.441 23.9989 15.2113 23.8662C14.9815 23.7336 14.8139 23.5152 14.7452 23.259C14.6765 23.0028 14.7124 22.7297 14.845 22.5L16.91 18.9237C16.6092 18.9739 16.3049 18.9994 16 19C14.7898 19.0014 13.6128 18.6041 12.6511 17.8694C11.6894 17.1348 10.9965 16.1038 10.6795 14.9358C10.3626 13.7679 10.4393 12.528 10.8977 11.408C11.3561 10.288 12.1707 9.35021 13.2156 8.73964C14.2605 8.12908 15.4774 7.87976 16.6782 8.03023C17.8791 8.18071 18.9968 8.7226 19.8588 9.57211C20.7207 10.4216 21.2787 11.5314 21.4466 12.7299C21.6145 13.9284 21.3828 15.1489 20.7875 16.2025ZM19.5 13.5C19.5 14.1922 19.2947 14.8689 18.9101 15.4445C18.5256 16.0201 17.9789 16.4687 17.3394 16.7336C16.6999 16.9985 15.9961 17.0678 15.3172 16.9327C14.6383 16.7977 14.0146 16.4644 13.5251 15.9749C13.0356 15.4854 12.7023 14.8617 12.5673 14.1828C12.4322 13.5039 12.5015 12.8001 12.7664 12.1606C13.0313 11.5211 13.4799 10.9744 14.0555 10.5899C14.6311 10.2053 15.3078 10 16 10C16.9283 10 17.8185 10.3687 18.4749 11.0251C19.1313 11.6815 19.5 12.5717 19.5 13.5Z" fill="white"/>
<path d="M63.5 12C63.5 10.5166 63.0601 9.0666 62.236 7.83323C61.4119 6.59986 60.2406 5.63856 58.8701 5.07091C57.4997 4.50325 55.9917 4.35472 54.5368 4.64411C53.082 4.9335 51.7456 5.64781 50.6967 6.6967C49.6478 7.7456 48.9335 9.08197 48.6441 10.5368C48.3547 11.9917 48.5032 13.4997 49.0709 14.8701C49.6386 16.2406 50.5999 17.4119 51.8332 18.236C53.0666 19.0601 54.5166 19.5 56 19.5C56.3265 19.4995 56.6527 19.4773 56.9763 19.4338L53.6925 25.2638C53.4972 25.6105 53.4477 26.0207 53.5549 26.4039C53.662 26.7872 53.917 27.1122 54.2638 27.3075C54.6105 27.5028 55.0207 27.5523 55.4039 27.4452C55.7872 27.338 56.1122 27.083 56.3075 26.7363L62.5 15.7363C63.1566 14.6007 63.5016 13.3118 63.5 12ZM51.5 12C51.5 11.11 51.7639 10.24 52.2584 9.49994C52.7529 8.75992 53.4557 8.18314 54.2779 7.84255C55.1002 7.50195 56.005 7.41284 56.8779 7.58647C57.7508 7.7601 58.5526 8.18869 59.182 8.81802C59.8113 9.44736 60.2399 10.2492 60.4135 11.1221C60.5872 11.995 60.4981 12.8998 60.1575 13.7221C59.8169 14.5443 59.2401 15.2472 58.5001 15.7416C57.76 16.2361 56.89 16.5 56 16.5C54.8065 16.5 53.6619 16.0259 52.818 15.182C51.9741 14.3381 51.5 13.1935 51.5 12Z" fill="white"/>
</g>
<defs>
<clipPath id="clip0_27_1873">
<rect width="72" height="32" rx="5" fill="white"/>
</clipPath>
</defs>
</svg>
