<svg width="72" height="32" viewBox="0 0 72 32" fill="none" xmlns="http://www.w3.org/2000/svg">
<g clip-path="url(#clip0_27_1908)">
<path d="M18.1663 14.75C17.9191 15.1783 17.5506 15.5236 17.1072 15.7424C16.6638 15.9612 16.1655 16.0437 15.6753 15.9793C15.185 15.9149 14.7249 15.7066 14.3531 15.3807C13.9812 15.0548 13.7144 14.626 13.5863 14.1484C13.4581 13.6709 13.4745 13.166 13.6333 12.6978C13.792 12.2295 14.0861 11.8189 14.4782 11.5177C14.8704 11.2166 15.343 11.0385 15.8364 11.006C16.3298 10.9735 16.8217 11.088 17.25 11.335C17.824 11.6667 18.2427 12.2129 18.414 12.8533C18.5854 13.4937 18.4954 14.176 18.1637 14.75H18.1663ZM28 6V26C28 26.5304 27.7893 27.0391 27.4142 27.4142C27.0391 27.7893 26.5304 28 26 28H6C5.46957 28 4.96086 27.7893 4.58579 27.4142C4.21071 27.0391 4 26.5304 4 26V6C4 5.46957 4.21071 4.96086 4.58579 4.58579C4.96086 4.21071 5.46957 4 6 4H26C26.5304 4 27.0391 4.21071 27.4142 4.58579C27.7893 4.96086 28 5.46957 28 6ZM18.25 9.6025C17.6525 9.25767 16.9837 9.05484 16.2953 9.00966C15.6069 8.96449 14.9174 9.0782 14.28 9.34199C13.6425 9.60579 13.0743 10.0126 12.6191 10.531C12.1639 11.0494 11.8341 11.6655 11.655 12.3318C11.4759 12.998 11.4523 13.6964 11.5862 14.3732C11.7201 15.0499 12.0077 15.6869 12.427 16.2347C12.8462 16.7826 13.3858 17.2267 14.0041 17.5328C14.6223 17.8389 15.3026 17.9987 15.9925 18C16.0708 18 16.1496 17.9975 16.2288 17.9925L14.1412 21.4925C14.0734 21.6054 14.0284 21.7307 14.0091 21.861C13.9898 21.9913 13.9964 22.1242 14.0285 22.252C14.0607 22.3798 14.1178 22.4999 14.1966 22.6055C14.2754 22.7112 14.3742 22.8002 14.4875 22.8675C14.6004 22.9354 14.7257 22.9803 14.856 22.9996C14.9863 23.019 15.1192 23.0124 15.247 22.9802C15.3748 22.948 15.4949 22.8909 15.6005 22.8122C15.7062 22.7334 15.7952 22.6345 15.8625 22.5212L19.8975 15.75C20.4926 14.716 20.6534 13.4881 20.3446 12.3357C20.0357 11.1833 19.2825 10.2004 18.25 9.6025Z" fill="white"/>
<path d="M66 3.5H46C45.337 3.5 44.7011 3.76339 44.2322 4.23223C43.7634 4.70107 43.5 5.33696 43.5 6V26C43.5 26.663 43.7634 27.2989 44.2322 27.7678C44.7011 28.2366 45.337 28.5 46 28.5H66C66.663 28.5 67.2989 28.2366 67.7678 27.7678C68.2366 27.2989 68.5 26.663 68.5 26V6C68.5 5.33696 68.2366 4.70107 67.7678 4.23223C67.2989 3.76339 66.663 3.5 66 3.5ZM65.5 25.5H46.5V6.5H65.5V25.5ZM53.5 17.83C54.0746 18.1607 54.7096 18.3732 55.3675 18.455L53.7125 21.2313C53.6057 21.4005 53.5339 21.5893 53.5012 21.7868C53.4685 21.9842 53.4757 22.1861 53.5222 22.3807C53.5688 22.5753 53.6538 22.7586 53.7722 22.9199C53.8907 23.0811 54.0403 23.2171 54.2121 23.3196C54.3839 23.4222 54.5744 23.4894 54.7726 23.5172C54.9708 23.545 55.1725 23.5329 55.3659 23.4815C55.5593 23.4302 55.7404 23.3407 55.8987 23.2183C56.057 23.0959 56.1892 22.943 56.2875 22.7687L60.33 16C60.8245 15.1436 61.0539 14.1598 60.9893 13.173C60.9246 12.1862 60.5688 11.2407 59.9668 10.4561C59.3648 9.67156 58.5437 9.08312 57.6072 8.76523C56.6708 8.44733 55.6611 8.41427 54.7059 8.6702C53.7507 8.92614 52.8928 9.45959 52.2408 10.2031C51.5887 10.9466 51.1718 11.8668 51.0427 12.8472C50.9137 13.8277 51.0782 14.8244 51.5156 15.7113C51.953 16.5982 52.6436 17.3356 53.5 17.83ZM54.2675 12.5C54.5327 12.0405 54.9696 11.7052 55.482 11.5678C55.9945 11.4305 56.5405 11.5023 57 11.7675C57.4595 12.0327 57.7948 12.4696 57.9322 12.982C58.0695 13.4945 57.9977 14.0405 57.7325 14.5C57.46 14.9444 57.0247 15.2648 56.5194 15.393C56.0141 15.5212 55.4787 15.447 55.0272 15.1862C54.5758 14.9255 54.2441 14.4988 54.1026 13.997C53.9612 13.4953 54.0212 12.9581 54.27 12.5H54.2675Z" fill="white"/>
</g>
<defs>
<clipPath id="clip0_27_1908">
<rect width="72" height="32" rx="5" fill="white"/>
</clipPath>
</defs>
</svg>
