<svg width="72" height="32" viewBox="0 0 72 32" fill="none" xmlns="http://www.w3.org/2000/svg">
<g clip-path="url(#clip0_27_1883)">
<path d="M25 3H7C6.46957 3 5.96086 3.21071 5.58579 3.58579C5.21071 3.96086 5 4.46957 5 5V27C5 27.5304 5.21071 28.0391 5.58579 28.4142C5.96086 28.7893 6.46957 29 7 29H25C25.5304 29 26.0391 28.7893 26.4142 28.4142C26.7893 28.0391 27 27.5304 27 27V5C27 4.46957 26.7893 3.96086 26.4142 3.58579C26.0391 3.21071 25.5304 3 25 3ZM20.9412 9.33625L15.9412 23.3363C15.9002 23.4638 15.8339 23.5817 15.7463 23.6831C15.6588 23.7845 15.5517 23.8673 15.4316 23.9265C15.3114 23.9857 15.1806 24.0202 15.0468 24.0279C14.9131 24.0356 14.7792 24.0163 14.653 23.9713C14.5269 23.9262 14.4111 23.8562 14.3125 23.7655C14.2139 23.6749 14.1345 23.5653 14.0791 23.4433C14.0236 23.3214 13.9933 23.1895 13.9898 23.0556C13.9863 22.9217 14.0097 22.7884 14.0588 22.6637L18.5812 10H12C11.7348 10 11.4804 9.89464 11.2929 9.70711C11.1054 9.51957 11 9.26522 11 9C11 8.73478 11.1054 8.48043 11.2929 8.29289C11.4804 8.10536 11.7348 8 12 8H20C20.1602 8.00008 20.318 8.03865 20.4602 8.11246C20.6024 8.18627 20.7248 8.29316 20.817 8.42413C20.9093 8.5551 20.9687 8.70631 20.9903 8.86504C21.0119 9.02378 20.9951 9.18538 20.9412 9.33625Z" fill="white"/>
<path d="M62.4363 6.43125L56.4363 26.4312C56.3435 26.7401 56.1538 27.0109 55.895 27.2034C55.6363 27.3959 55.3225 27.4999 55 27.5C54.8539 27.5002 54.7086 27.4787 54.5688 27.4363C54.1888 27.3207 53.8702 27.0593 53.6827 26.7092C53.4953 26.3591 53.4543 25.949 53.5688 25.5688L58.9837 7.5H51C50.6022 7.5 50.2206 7.34196 49.9393 7.06066C49.658 6.77936 49.5 6.39782 49.5 6C49.5 5.60218 49.658 5.22064 49.9393 4.93934C50.2206 4.65804 50.6022 4.5 51 4.5H61C61.2338 4.50007 61.4644 4.55479 61.6733 4.65982C61.8822 4.76484 62.0637 4.91724 62.2032 5.10487C62.3427 5.29249 62.4365 5.51014 62.477 5.74044C62.5174 5.97073 62.5035 6.2073 62.4363 6.43125Z" fill="white"/>
</g>
<defs>
<clipPath id="clip0_27_1883">
<rect width="72" height="32" rx="5" fill="white"/>
</clipPath>
</defs>
</svg>
