<svg width="72" height="32" viewBox="0 0 72 32" fill="none" xmlns="http://www.w3.org/2000/svg">
<g clip-path="url(#clip0_27_1928)">
<path d="M26 4H6C5.46957 4 4.96086 4.21071 4.58579 4.58579C4.21071 4.96086 4 5.46957 4 6V26C4 26.5304 4.21071 27.0391 4.58579 27.4142C4.96086 27.7893 5.46957 28 6 28H26C26.5304 28 27.0391 27.7893 27.4142 27.4142C27.7893 27.0391 28 26.5304 28 26V6C28 5.46957 27.7893 4.96086 27.4142 4.58579C27.0391 4.21071 26.5304 4 26 4ZM15.5 23C14.9011 23.0019 14.3079 22.8832 13.7558 22.6511C13.2036 22.419 12.7039 22.0781 12.2863 21.6488C12.1885 21.5563 12.1105 21.4451 12.0567 21.3218C12.003 21.1985 11.9747 21.0656 11.9735 20.9311C11.9723 20.7966 11.9983 20.6632 12.0499 20.539C12.1014 20.4147 12.1775 20.3022 12.2736 20.208C12.3697 20.1139 12.4838 20.0401 12.609 19.9911C12.7343 19.9421 12.8681 19.9188 13.0026 19.9227C13.1371 19.9267 13.2693 19.9577 13.3915 20.0139C13.5137 20.0701 13.6233 20.1504 13.7137 20.25C14.0023 20.5443 14.359 20.7628 14.7524 20.8859C15.1457 21.009 15.5634 21.0329 15.9682 20.9556C16.373 20.8783 16.7525 20.702 17.0727 20.4426C17.393 20.1832 17.6441 19.8486 17.8038 19.4687C17.9635 19.0887 18.0268 18.6752 17.988 18.2648C17.9493 17.8545 17.8096 17.4602 17.5816 17.1168C17.3536 16.7735 17.0442 16.4919 16.681 16.297C16.3179 16.1022 15.9121 16.0001 15.5 16C15.3171 15.9999 15.1377 15.9497 14.9813 15.8548C14.8249 15.7598 14.6976 15.6238 14.6132 15.4615C14.5287 15.2992 14.4904 15.1169 14.5024 14.9344C14.5144 14.7518 14.5763 14.5761 14.6812 14.4263L17.0788 11H13C12.7348 11 12.4804 10.8946 12.2929 10.7071C12.1054 10.5196 12 10.2652 12 10C12 9.73478 12.1054 9.48043 12.2929 9.29289C12.4804 9.10536 12.7348 9 13 9H19C19.1829 9.00005 19.3624 9.05028 19.5187 9.14522C19.6751 9.24017 19.8024 9.37618 19.8868 9.53847C19.9713 9.70076 20.0096 9.88309 19.9976 10.0656C19.9856 10.2482 19.9237 10.4239 19.8188 10.5737L17.1938 14.3237C18.1654 14.7136 18.9706 15.4301 19.4709 16.3498C19.9711 17.2694 20.1351 18.3347 19.9345 19.3622C19.7339 20.3898 19.1813 21.3152 18.3719 21.9792C17.5625 22.6432 16.5469 23.0042 15.5 23Z" fill="white"/>
<path d="M66 3.5H46C45.337 3.5 44.7011 3.76339 44.2322 4.23223C43.7634 4.70107 43.5 5.33696 43.5 6V26C43.5 26.663 43.7634 27.2989 44.2322 27.7678C44.7011 28.2366 45.337 28.5 46 28.5H66C66.663 28.5 67.2989 28.2366 67.7678 27.7678C68.2366 27.2989 68.5 26.663 68.5 26V6C68.5 5.33696 68.2366 4.70107 67.7678 4.23223C67.2989 3.76339 66.663 3.5 66 3.5ZM65.5 25.5H46.5V6.5H65.5V25.5ZM51.5 10C51.5 9.60218 51.658 9.22064 51.9393 8.93934C52.2206 8.65804 52.6022 8.5 53 8.5H59C59.2744 8.50004 59.5434 8.57533 59.778 8.71767C60.0125 8.86 60.2035 9.06394 60.3302 9.30728C60.4569 9.55063 60.5145 9.82406 60.4966 10.0978C60.4787 10.3716 60.386 10.6352 60.2288 10.86L57.9363 14.135C58.5626 14.4842 59.1066 14.964 59.5311 15.542C59.9557 16.1199 60.251 16.7824 60.397 17.4845C60.543 18.1867 60.5362 18.912 60.3771 19.6112C60.2181 20.3105 59.9104 20.9674 59.4751 21.5373C59.0398 22.1072 58.487 22.5768 57.8542 22.9142C57.2214 23.2516 56.5235 23.449 55.8077 23.4929C55.0919 23.5368 54.375 23.4262 53.7057 23.1686C53.0365 22.911 52.4304 22.5124 51.9288 22C51.7855 21.8605 51.6716 21.6937 51.5938 21.5096C51.5159 21.3254 51.4757 21.1276 51.4754 20.9276C51.4751 20.7277 51.5148 20.5297 51.5922 20.3453C51.6695 20.1609 51.7829 19.9939 51.9257 19.854C52.0686 19.7141 52.2379 19.6041 52.4239 19.5306C52.6098 19.4571 52.8086 19.4215 53.0084 19.4259C53.2083 19.4303 53.4053 19.4746 53.5879 19.5562C53.7704 19.6379 53.9347 19.7552 54.0712 19.9013C54.3022 20.1364 54.5877 20.3109 54.9023 20.4091C55.2169 20.5073 55.5509 20.5263 55.8746 20.4643C56.1984 20.4023 56.5017 20.2612 56.7578 20.0536C57.0138 19.8461 57.2146 19.5784 57.3422 19.2746C57.4699 18.9707 57.5204 18.64 57.4894 18.3118C57.4584 17.9837 57.3468 17.6683 57.1645 17.3937C56.9822 17.1191 56.7348 16.8939 56.4444 16.7379C56.154 16.582 55.8296 16.5003 55.5 16.5C55.2256 16.5 54.9566 16.4247 54.722 16.2823C54.4875 16.14 54.2965 15.9361 54.1698 15.6927C54.0431 15.4494 53.9855 15.1759 54.0034 14.9022C54.0213 14.6284 54.114 14.3648 54.2712 14.14L56.125 11.5H53C52.6022 11.5 52.2206 11.342 51.9393 11.0607C51.658 10.7794 51.5 10.3978 51.5 10Z" fill="white"/>
</g>
<defs>
<clipPath id="clip0_27_1928">
<rect width="72" height="32" rx="5" fill="white"/>
</clipPath>
</defs>
</svg>
