<svg width="72" height="32" viewBox="0 0 72 32" fill="none" xmlns="http://www.w3.org/2000/svg">
<g clip-path="url(#clip0_27_1948)">
<path d="M25 3H7C6.46957 3 5.96086 3.21071 5.58579 3.58579C5.21071 3.96086 5 4.46957 5 5V27C5 27.5304 5.21071 28.0391 5.58579 28.4142C5.96086 28.7893 6.46957 29 7 29H25C25.5304 29 26.0391 28.7893 26.4142 28.4142C26.7893 28.0391 27 27.5304 27 27V5C27 4.46957 26.7893 3.96086 26.4142 3.58579C26.0391 3.21071 25.5304 3 25 3ZM20 22C20.2652 22 20.5196 22.1054 20.7071 22.2929C20.8946 22.4804 21 22.7348 21 23C21 23.2652 20.8946 23.5196 20.7071 23.7071C20.5196 23.8946 20.2652 24 20 24H12C11.8043 24 11.6128 23.9425 11.4494 23.8348C11.286 23.727 11.1579 23.5736 11.0808 23.3937C11.0038 23.2137 10.9812 23.0151 11.0159 22.8225C11.0507 22.6299 11.1412 22.4517 11.2762 22.31L18.2375 15C18.7326 14.4027 18.9771 13.6369 18.9196 12.8632C18.8622 12.0896 18.5072 11.3682 17.9293 10.8507C17.3514 10.3331 16.5955 10.0595 15.8202 10.0874C15.0449 10.1152 14.3105 10.4423 13.7712 11C13.6184 11.1665 13.4854 11.3503 13.375 11.5475C13.2462 11.7796 13.0305 11.951 12.7753 12.024C12.5202 12.097 12.2464 12.0657 12.0144 11.9369C11.7823 11.8081 11.6109 11.5924 11.5379 11.3372C11.4649 11.082 11.4962 10.8083 11.625 10.5763C11.8095 10.2448 12.0309 9.93537 12.285 9.65375C13.1725 8.66831 14.4151 8.07577 15.7394 8.0065C17.0638 7.93723 18.3614 8.39689 19.3469 9.28438C20.3323 10.1719 20.9249 11.4145 20.9941 12.7388C21.0634 14.0632 20.6037 15.3608 19.7162 16.3463L19.6963 16.3662L14.3325 22H20Z" fill="white"/>
<path d="M62.5 26C62.5 26.3978 62.342 26.7794 62.0607 27.0607C61.7794 27.342 61.3978 27.5 61 27.5H51C50.7214 27.5 50.4484 27.4224 50.2114 27.276C49.9744 27.1295 49.7829 26.92 49.6584 26.6708C49.5338 26.4217 49.481 26.1427 49.5061 25.8653C49.5311 25.5879 49.6329 25.3229 49.8 25.1L58.7938 13.11C59.0927 12.7156 59.3046 12.2623 59.4155 11.78C59.5264 11.2978 59.5337 10.7974 59.4371 10.3121C59.3404 9.82676 59.1419 9.36744 58.8547 8.96444C58.5675 8.56145 58.1981 8.22394 57.7709 7.97419C57.3436 7.72444 56.8683 7.56812 56.3762 7.51556C55.8841 7.463 55.3865 7.51539 54.9162 7.66927C54.4458 7.82315 54.0135 8.07502 53.6476 8.40826C53.2818 8.7415 52.9907 9.14853 52.7938 9.60251C52.6343 9.96718 52.3365 10.2536 51.9659 10.3987C51.5953 10.5438 51.1822 10.5357 50.8175 10.3763C50.4528 10.2168 50.1664 9.919 50.0213 9.54838C49.8762 9.17776 49.8843 8.76468 50.0438 8.4C50.2474 7.93465 50.5045 7.4946 50.81 7.08876C51.8475 5.71195 53.3894 4.80368 55.0966 4.56375C55.9419 4.44495 56.8023 4.49381 57.6287 4.70753C58.4552 4.92126 59.2314 5.29567 59.9131 5.80938C60.5948 6.32309 61.1687 6.96606 61.602 7.70155C62.0352 8.43705 62.3193 9.25067 62.4381 10.096C62.5569 10.9413 62.5081 11.8017 62.2944 12.6281C62.0806 13.4545 61.7062 14.2308 61.1925 14.9125L54 24.5H61C61.3978 24.5 61.7794 24.658 62.0607 24.9393C62.342 25.2207 62.5 25.6022 62.5 26Z" fill="white"/>
</g>
<defs>
<clipPath id="clip0_27_1948">
<rect width="72" height="32" rx="5" fill="white"/>
</clipPath>
</defs>
</svg>
