<svg width="72" height="32" viewBox="0 0 72 32" fill="none" xmlns="http://www.w3.org/2000/svg">
<g clip-path="url(#clip0_27_1818)">
<path d="M13.045 18L17 12.915V18H13.045ZM29 16C29 18.5712 28.2376 21.0846 26.8091 23.2224C25.3807 25.3603 23.3503 27.0265 20.9749 28.0104C18.5995 28.9944 15.9856 29.2518 13.4638 28.7502C10.9421 28.2486 8.6257 27.0105 6.80762 25.1924C4.98953 23.3743 3.75141 21.0579 3.2498 18.5362C2.74819 16.0144 3.00563 13.4006 3.98957 11.0251C4.97351 8.64968 6.63975 6.61935 8.77759 5.1909C10.9154 3.76244 13.4288 3 16 3C19.4467 3.00364 22.7512 4.37445 25.1884 6.81163C27.6256 9.24882 28.9964 12.5533 29 16ZM21 19C21 18.7348 20.8946 18.4804 20.7071 18.2929C20.5196 18.1054 20.2652 18 20 18H19V10C18.9998 9.79178 18.9346 9.58882 18.8135 9.41943C18.6924 9.25004 18.5215 9.12267 18.3246 9.05509C18.1276 8.98752 17.9145 8.9831 17.7149 9.04247C17.5153 9.10183 17.3393 9.22202 17.2113 9.38625L10.2113 18.3862C10.0964 18.534 10.0253 18.711 10.0061 18.8971C9.98681 19.0832 10.0202 19.271 10.1023 19.4391C10.1845 19.6072 10.3122 19.7489 10.4709 19.8481C10.6296 19.9472 10.8129 19.9999 11 20H17V22C17 22.2652 17.1054 22.5196 17.2929 22.7071C17.4804 22.8946 17.7348 23 18 23C18.2652 23 18.5196 22.8946 18.7071 22.7071C18.8946 22.5196 19 22.2652 19 22V20H20C20.2652 20 20.5196 19.8946 20.7071 19.7071C20.8946 19.5196 21 19.2652 21 19Z" fill="white"/>
<path d="M56 2.5C53.33 2.5 50.7199 3.29176 48.4998 4.77516C46.2797 6.25856 44.5494 8.36697 43.5276 10.8338C42.5058 13.3006 42.2385 16.015 42.7594 18.6337C43.2803 21.2525 44.5661 23.6579 46.4541 25.5459C48.3421 27.434 50.7475 28.7197 53.3663 29.2406C55.985 29.7615 58.6994 29.4942 61.1662 28.4724C63.633 27.4506 65.7414 25.7203 67.2248 23.5002C68.7082 21.2801 69.5 18.67 69.5 16C69.496 12.4208 68.0724 8.98932 65.5416 6.45844C63.0107 3.92756 59.5792 2.50397 56 2.5ZM56 26.5C53.9233 26.5 51.8932 25.8842 50.1665 24.7304C48.4398 23.5767 47.094 21.9368 46.2993 20.0182C45.5046 18.0996 45.2966 15.9884 45.7018 13.9516C46.1069 11.9148 47.1069 10.0438 48.5754 8.57538C50.0438 7.10693 51.9148 6.1069 53.9516 5.70175C55.9884 5.29661 58.0996 5.50454 60.0182 6.29926C61.9368 7.09399 63.5767 8.4398 64.7304 10.1665C65.8842 11.8932 66.5 13.9233 66.5 16C66.497 18.7839 65.3898 21.4528 63.4213 23.4213C61.4529 25.3898 58.7839 26.497 56 26.5ZM60 17.5H59.5V10C59.5 9.68746 59.4024 9.38273 59.2208 9.12838C59.0392 8.87402 58.7826 8.68275 58.487 8.58128C58.1914 8.47981 57.8715 8.4732 57.572 8.56239C57.2724 8.65158 57.0082 8.83211 56.8163 9.07875L49.8163 18.0788C49.6438 18.3004 49.537 18.566 49.508 18.8453C49.4791 19.1247 49.5291 19.4065 49.6525 19.6588C49.7758 19.9111 49.9675 20.1237 50.2057 20.2724C50.444 20.4212 50.7192 20.5 51 20.5H56.5V22C56.5 22.3978 56.658 22.7794 56.9393 23.0607C57.2207 23.342 57.6022 23.5 58 23.5C58.3978 23.5 58.7794 23.342 59.0607 23.0607C59.342 22.7794 59.5 22.3978 59.5 22V20.5H60C60.3978 20.5 60.7794 20.342 61.0607 20.0607C61.342 19.7794 61.5 19.3978 61.5 19C61.5 18.6022 61.342 18.2206 61.0607 17.9393C60.7794 17.658 60.3978 17.5 60 17.5ZM56.5 17.5H54.0675L56.5 14.375V17.5Z" fill="white"/>
</g>
<defs>
<clipPath id="clip0_27_1818">
<rect width="72" height="32" rx="5" fill="white"/>
</clipPath>
</defs>
</svg>
