<svg width="72" height="32" viewBox="0 0 72 32" fill="none" xmlns="http://www.w3.org/2000/svg">
<g clip-path="url(#clip0_27_1953)">
<path d="M19.71 11.0487C20.5425 12.315 21 14.0737 21 16C21 17.9263 20.5425 19.6838 19.71 20.9513C18.8187 22.3113 17.57 23 16 23C14.43 23 13.1812 22.3113 12.29 20.9513C11.4575 19.6838 11 17.9263 11 16C11 14.0737 11.4575 12.315 12.29 11.0487C13.1812 9.68875 14.43 9 16 9C17.57 9 18.8187 9.68875 19.71 11.0487ZM27 5V27C27 27.5304 26.7893 28.0391 26.4142 28.4142C26.0391 28.7893 25.5304 29 25 29H7C6.46957 29 5.96086 28.7893 5.58579 28.4142C5.21071 28.0391 5 27.5304 5 27V5C5 4.46957 5.21071 3.96086 5.58579 3.58579C5.96086 3.21071 6.46957 3 7 3H25C25.5304 3 26.0391 3.21071 26.4142 3.58579C26.7893 3.96086 27 4.46957 27 5ZM23 16C23 13.6888 22.425 11.54 21.3825 9.95125C20.115 8.02 18.25 7 16 7C13.75 7 11.885 8.02 10.6175 9.95125C9.575 11.54 9 13.6888 9 16C9 18.3112 9.575 20.46 10.6175 22.0487C11.885 23.98 13.75 25 16 25C18.25 25 20.115 23.98 21.3825 22.0487C22.425 20.46 23 18.3112 23 16Z" fill="white"/>
<path d="M63.3275 7.63126C61.6075 4.92876 59.0775 3.50626 56 3.50626C52.9225 3.50626 50.3925 4.92876 48.6725 7.63126C47.2712 9.83251 46.5 12.805 46.5 16C46.5 19.195 47.2712 22.1663 48.6725 24.3675C50.3925 27.0713 52.9262 28.5 56 28.5C59.0737 28.5 61.6075 27.0713 63.3275 24.3675C64.7288 22.1663 65.5 19.195 65.5 16C65.5 12.805 64.7288 9.83251 63.3275 7.63126ZM60.7962 22.7563C59.6387 24.5775 58.025 25.5 56 25.5C53.975 25.5 52.3612 24.5775 51.2037 22.7575C50.105 21.0313 49.5 18.6313 49.5 16C49.5 13.3688 50.105 10.9688 51.2037 9.24251C52.3612 7.42251 53.975 6.50001 56 6.50001C58.025 6.50001 59.6387 7.42251 60.7962 9.24251C61.895 10.9688 62.5 13.375 62.5 16C62.5 18.625 61.895 21.0313 60.7962 22.7575V22.7563Z" fill="white"/>
</g>
<defs>
<clipPath id="clip0_27_1953">
<rect width="72" height="32" rx="5" fill="white"/>
</clipPath>
</defs>
</svg>
