<svg width="72" height="32" viewBox="0 0 72 32" fill="none" xmlns="http://www.w3.org/2000/svg">
<g clip-path="url(#clip0_27_1923)">
<path d="M18.5 18.5C18.5 18.9945 18.3534 19.4778 18.0787 19.8889C17.804 20.3 17.4135 20.6205 16.9567 20.8097C16.4999 20.9989 15.9972 21.0484 15.5123 20.952C15.0273 20.8555 14.5819 20.6174 14.2322 20.2678C13.8826 19.9181 13.6445 19.4727 13.548 18.9877C13.4516 18.5028 13.5011 18.0001 13.6903 17.5433C13.8795 17.0865 14.2 16.696 14.6111 16.4213C15.0222 16.1466 15.5055 16 16 16C16.663 16 17.2989 16.2634 17.7678 16.7322C18.2366 17.2011 18.5 17.837 18.5 18.5ZM28 6V26C28 26.5304 27.7893 27.0391 27.4142 27.4142C27.0391 27.7893 26.5304 28 26 28H6C5.46957 28 4.96086 27.7893 4.58579 27.4142C4.21071 27.0391 4 26.5304 4 26V6C4 5.46957 4.21071 4.96086 4.58579 4.58579C4.96086 4.21071 5.46957 4 6 4H26C26.5304 4 27.0391 4.21071 27.4142 4.58579C27.7893 4.96086 28 5.46957 28 6ZM20.5 18.5C20.5 17.3065 20.0259 16.1619 19.182 15.318C18.3381 14.4741 17.1935 14 16 14C15.9237 14 15.8475 14 15.7725 14L17.8587 10.5125C17.9261 10.3997 17.9705 10.2748 17.9895 10.1449C18.0085 10.0149 18.0018 9.8825 17.9696 9.75516C17.9375 9.62783 17.8806 9.50808 17.8021 9.40274C17.7237 9.29741 17.6253 9.20855 17.5125 9.14125C17.3997 9.07395 17.2748 9.02952 17.1449 9.01049C17.0149 8.99147 16.8825 8.99823 16.7552 9.03038C16.6278 9.06253 16.5081 9.11945 16.4027 9.19788C16.2974 9.27632 16.2086 9.37473 16.1413 9.4875C16.1413 9.4875 12.0913 16.2725 12.0825 16.29C11.7436 16.8895 11.5469 17.5589 11.5074 18.2464C11.4679 18.934 11.5868 19.6214 11.8549 20.2558C12.1229 20.8902 12.533 21.4546 13.0535 21.9055C13.5741 22.3565 14.1911 22.6819 14.8573 22.8568C15.5234 23.0317 16.2207 23.0514 16.8957 22.9143C17.5706 22.7772 18.205 22.487 18.7501 22.0662C19.2952 21.6453 19.7365 21.1049 20.0399 20.4866C20.3432 19.8683 20.5007 19.1887 20.5 18.5Z" fill="white"/>
<path d="M66 3.5H46C45.337 3.5 44.7011 3.76339 44.2322 4.23223C43.7634 4.70107 43.5 5.33696 43.5 6V26C43.5 26.663 43.7634 27.2989 44.2322 27.7678C44.7011 28.2366 45.337 28.5 46 28.5H66C66.663 28.5 67.2989 28.2366 67.7678 27.7678C68.2366 27.2989 68.5 26.663 68.5 26V6C68.5 5.33696 68.2366 4.70107 67.7678 4.23223C67.2989 3.76339 66.663 3.5 66 3.5ZM65.5 25.5H46.5V6.5H65.5V25.5ZM56 23.5C57.2698 23.4979 58.4912 23.0127 59.4163 22.143C60.3415 21.2733 60.9011 20.0841 60.9816 18.8169C61.062 17.5497 60.6574 16.2993 59.8497 15.3196C59.042 14.3398 57.8918 13.704 56.6325 13.5413L58.2875 10.7688C58.3943 10.5995 58.4661 10.4107 58.4988 10.2132C58.5315 10.0158 58.5243 9.81389 58.4778 9.61929C58.4312 9.42468 58.3462 9.24136 58.2278 9.08011C58.1093 8.91886 57.9597 8.78294 57.7879 8.68036C57.6161 8.57778 57.4256 8.51061 57.2274 8.48281C57.0292 8.455 56.8275 8.46712 56.6341 8.51846C56.4407 8.56979 56.2596 8.6593 56.1013 8.78171C55.943 8.90413 55.8108 9.05697 55.7125 9.23125L51.6825 15.9812C51.2395 16.7409 51.0047 17.6039 51.0018 18.4833C50.9988 19.3627 51.2279 20.2273 51.6658 20.9898C52.1037 21.7524 52.735 22.386 53.4959 22.8268C54.2569 23.2675 55.1206 23.4997 56 23.5ZM56 16.5C56.3956 16.5 56.7822 16.6173 57.1111 16.8371C57.44 17.0568 57.6964 17.3692 57.8478 17.7346C57.9991 18.1001 58.0387 18.5022 57.9616 18.8902C57.8844 19.2781 57.6939 19.6345 57.4142 19.9142C57.1345 20.1939 56.7781 20.3844 56.3902 20.4616C56.0022 20.5387 55.6001 20.4991 55.2346 20.3478C54.8692 20.1964 54.5568 19.94 54.3371 19.6111C54.1173 19.2822 54 18.8956 54 18.5C54 17.9696 54.2107 17.4609 54.5858 17.0858C54.9609 16.7107 55.4696 16.5 56 16.5Z" fill="white"/>
</g>
<defs>
<clipPath id="clip0_27_1923">
<rect width="72" height="32" rx="5" fill="white"/>
</clipPath>
</defs>
</svg>
