<svg width="72" height="32" viewBox="0 0 72 32" fill="none" xmlns="http://www.w3.org/2000/svg">
<g clip-path="url(#clip0_27_1858)">
<path d="M13.5 11.5C13.5 11.0055 13.6466 10.5222 13.9213 10.1111C14.196 9.69995 14.5865 9.37952 15.0433 9.1903C15.5001 9.00108 16.0028 8.95157 16.4877 9.04804C16.9727 9.1445 17.4181 9.3826 17.7678 9.73223C18.1174 10.0819 18.3555 10.5273 18.452 11.0123C18.5484 11.4972 18.4989 11.9999 18.3097 12.4567C18.1205 12.9135 17.8 13.304 17.3889 13.5787C16.9778 13.8534 16.4945 14 16 14C15.337 14 14.7011 13.7366 14.2322 13.2678C13.7634 12.7989 13.5 12.163 13.5 11.5ZM16 16C15.3078 16 14.6311 16.2053 14.0555 16.5899C13.4799 16.9744 13.0313 17.5211 12.7664 18.1606C12.5015 18.8001 12.4322 19.5039 12.5673 20.1828C12.7023 20.8617 13.0356 21.4854 13.5251 21.9749C14.0146 22.4644 14.6383 22.7977 15.3172 22.9327C15.9961 23.0678 16.6999 22.9985 17.3394 22.7336C17.9789 22.4687 18.5256 22.0201 18.9101 21.4445C19.2947 20.8689 19.5 20.1922 19.5 19.5C19.5 18.5717 19.1313 17.6815 18.4749 17.0251C17.8185 16.3687 16.9283 16 16 16ZM27 5V27C27 27.5304 26.7893 28.0391 26.4142 28.4142C26.0391 28.7893 25.5304 29 25 29H7C6.46957 29 5.96086 28.7893 5.58579 28.4142C5.21071 28.0391 5 27.5304 5 27V5C5 4.46957 5.21071 3.96086 5.58579 3.58579C5.96086 3.21071 6.46957 3 7 3H25C25.5304 3 26.0391 3.21071 26.4142 3.58579C26.7893 3.96086 27 4.46957 27 5ZM21.5 19.5C21.4994 18.579 21.2676 17.6729 20.8258 16.8648C20.384 16.0567 19.7463 15.3725 18.9713 14.875C19.6582 14.2711 20.1447 13.4722 20.3662 12.5848C20.5876 11.6973 20.5333 10.7635 20.2106 9.90767C19.8879 9.05185 19.312 8.31469 18.5598 7.7944C17.8076 7.27411 16.9146 6.9954 16 6.9954C15.0854 6.9954 14.1924 7.27411 13.4402 7.7944C12.688 8.31469 12.1121 9.05185 11.7894 9.90767C11.4667 10.7635 11.4124 11.6973 11.6338 12.5848C11.8553 13.4722 12.3418 14.2711 13.0288 14.875C12.2254 15.3907 11.5702 16.1066 11.1274 16.9523C10.6846 17.7981 10.4696 18.7445 10.5035 19.6985C10.5373 20.6525 10.8189 21.5813 11.3205 22.3935C11.8222 23.2056 12.5265 23.8733 13.3644 24.3307C14.2023 24.7882 15.1448 25.0197 16.0993 25.0025C17.0537 24.9852 17.9873 24.7199 18.8081 24.2325C19.6289 23.7451 20.3087 23.0525 20.7807 22.2227C21.2527 21.3929 21.5006 20.4546 21.5 19.5Z" fill="white"/>
<path d="M60.305 14.8638C61.2937 13.9897 61.993 12.8355 62.3099 11.5544C62.6267 10.2734 62.5461 8.92626 62.0789 7.69212C61.6116 6.45798 60.7797 5.39529 59.6939 4.64535C58.608 3.89541 57.3196 3.49374 56 3.49374C54.6804 3.49374 53.392 3.89541 52.3061 4.64535C51.2203 5.39529 50.3884 6.45798 49.9211 7.69212C49.4539 8.92626 49.3733 10.2734 49.6902 11.5544C50.007 12.8355 50.7063 13.9897 51.695 14.8638C50.3892 15.7791 49.4091 17.0869 48.8971 18.5971C48.3851 20.1074 48.3678 21.7415 48.8477 23.2623C49.3276 24.7831 50.2798 26.1113 51.566 27.0541C52.8521 27.9969 54.4053 28.5052 56 28.5052C57.5947 28.5052 59.1479 27.9969 60.434 27.0541C61.7202 26.1113 62.6724 24.7831 63.1523 23.2623C63.6322 21.7415 63.6149 20.1074 63.1029 18.5971C62.5909 17.0869 61.6108 15.7791 60.305 14.8638ZM52.5 10C52.5 9.30777 52.7053 8.63108 53.0899 8.05551C53.4744 7.47993 54.0211 7.03133 54.6606 6.76642C55.3001 6.50152 56.0039 6.43221 56.6828 6.56725C57.3617 6.7023 57.9854 7.03564 58.4749 7.52513C58.9644 8.01461 59.2977 8.63825 59.4327 9.31719C59.5678 9.99612 59.4985 10.6999 59.2336 11.3394C58.9687 11.9789 58.5201 12.5256 57.9445 12.9101C57.3689 13.2947 56.6922 13.5 56 13.5C55.0717 13.5 54.1815 13.1313 53.5251 12.4749C52.8687 11.8185 52.5 10.9283 52.5 10ZM56 25.5C55.11 25.5 54.24 25.2361 53.4999 24.7416C52.7599 24.2471 52.1831 23.5443 51.8425 22.7221C51.5019 21.8998 51.4128 20.995 51.5865 20.1221C51.7601 19.2492 52.1887 18.4474 52.818 17.818C53.4474 17.1887 54.2492 16.7601 55.1221 16.5865C55.995 16.4128 56.8998 16.502 57.7221 16.8425C58.5443 17.1831 59.2471 17.7599 59.7416 18.4999C60.2361 19.24 60.5 20.11 60.5 21C60.5 22.1935 60.0259 23.3381 59.182 24.182C58.3381 25.0259 57.1935 25.5 56 25.5Z" fill="white"/>
</g>
<defs>
<clipPath id="clip0_27_1858">
<rect width="72" height="32" rx="5" fill="white"/>
</clipPath>
</defs>
</svg>
