<svg width="72" height="32" viewBox="0 0 72 32" fill="none" xmlns="http://www.w3.org/2000/svg">
<g clip-path="url(#clip0_27_2971)">
<path d="M27.96 8.26877L16.96 2.25002C16.6661 2.08763 16.3358 2.00244 16 2.00244C15.6642 2.00244 15.3339 2.08763 15.04 2.25002L4.04 8.27127C3.72586 8.44315 3.46363 8.69622 3.28069 9.00405C3.09775 9.31188 3.00081 9.66319 3 10.0213V21.9763C3.00081 22.3344 3.09775 22.6857 3.28069 22.9935C3.46363 23.3013 3.72586 23.5544 4.04 23.7263L15.04 29.7475C15.3339 29.9099 15.6642 29.9951 16 29.9951C16.3358 29.9951 16.6661 29.9099 16.96 29.7475L27.96 23.7263C28.2741 23.5544 28.5364 23.3013 28.7193 22.9935C28.9023 22.6857 28.9992 22.3344 29 21.9763V10.0225C28.9999 9.6638 28.9032 9.31172 28.7203 9.00317C28.5373 8.69462 28.2747 8.44096 27.96 8.26877ZM16 21C15.0111 21 14.0444 20.7068 13.2221 20.1574C12.3999 19.608 11.759 18.8271 11.3806 17.9134C11.0022 16.9998 10.9031 15.9945 11.0961 15.0246C11.289 14.0547 11.7652 13.1638 12.4645 12.4645C13.1637 11.7652 14.0546 11.289 15.0245 11.0961C15.9945 10.9032 16.9998 11.0022 17.9134 11.3806C18.827 11.7591 19.6079 12.3999 20.1573 13.2222C20.7068 14.0444 21 15.0111 21 16C21 17.3261 20.4732 18.5979 19.5355 19.5356C18.5979 20.4732 17.3261 21 16 21Z" fill="white"/>
<path d="M49.5 16C49.5 17.2856 49.8812 18.5423 50.5954 19.6112C51.3097 20.6802 52.3248 21.5133 53.5126 22.0052C54.7003 22.4972 56.0072 22.6259 57.2681 22.3751C58.529 22.1243 59.6872 21.5053 60.5962 20.5962C61.5052 19.6872 62.1243 18.529 62.3751 17.2681C62.6259 16.0072 62.4972 14.7003 62.0052 13.5126C61.5132 12.3249 60.6801 11.3097 59.6112 10.5955C58.5423 9.88125 57.2856 9.50003 56 9.50003C54.2766 9.50168 52.6243 10.187 51.4056 11.4057C50.187 12.6243 49.5017 14.2766 49.5 16ZM59.5 16C59.5 16.6923 59.2947 17.369 58.9101 17.9445C58.5256 18.5201 57.9789 18.9687 57.3394 19.2336C56.6999 19.4985 55.9961 19.5678 55.3172 19.4328C54.6383 19.2977 54.0146 18.9644 53.5251 18.4749C53.0356 17.9854 52.7023 17.3618 52.5673 16.6828C52.4322 16.0039 52.5015 15.3002 52.7664 14.6606C53.0313 14.0211 53.4799 13.4745 54.0555 13.0899C54.6311 12.7053 55.3078 12.5 56 12.5C56.9283 12.5 57.8185 12.8688 58.4749 13.5252C59.1313 14.1815 59.5 15.0718 59.5 16ZM68.2 7.83003L57.2 1.80878C56.8324 1.60646 56.4196 1.50037 56 1.50037C55.5804 1.50037 55.1676 1.60646 54.8 1.80878L43.8 7.83003C43.4064 8.04539 43.078 8.36271 42.8493 8.74869C42.6205 9.13468 42.4999 9.57511 42.5 10.0238V21.9763C42.4999 22.4249 42.6205 22.8654 42.8493 23.2514C43.078 23.6373 43.4064 23.9547 43.8 24.17L54.8 30.1913C55.1675 30.3938 55.5804 30.5 56 30.5C56.4196 30.5 56.8325 30.3938 57.2 30.1913L68.2 24.17C68.5936 23.9547 68.922 23.6373 69.1507 23.2514C69.3795 22.8654 69.5001 22.4249 69.5 21.9763V10.0238C69.5001 9.57511 69.3795 9.13468 69.1507 8.74869C68.922 8.36271 68.5936 8.04539 68.2 7.83003ZM66.5 21.68L56 27.43L45.5 21.68V10.32L56 4.57003L66.5 10.32V21.68Z" fill="white"/>
</g>
<defs>
<clipPath id="clip0_27_2971">
<rect width="72" height="32" rx="5" fill="white"/>
</clipPath>
</defs>
</svg>
