<svg width="72" height="32" viewBox="0 0 72 32" fill="none" xmlns="http://www.w3.org/2000/svg">
<g clip-path="url(#clip0_27_249)">
<path d="M21.5 17C21.7967 17 22.0867 17.088 22.3334 17.2528C22.5801 17.4176 22.7723 17.6519 22.8858 17.926C22.9994 18.2001 23.0291 18.5017 22.9712 18.7926C22.9133 19.0836 22.7705 19.3509 22.5607 19.5607C22.3509 19.7704 22.0836 19.9133 21.7927 19.9712C21.5017 20.0291 21.2001 19.9993 20.926 19.8858C20.6519 19.7723 20.4176 19.58 20.2528 19.3334C20.088 19.0867 20 18.7967 20 18.5C20 18.1022 20.1581 17.7206 20.4394 17.4393C20.7207 17.158 21.1022 17 21.5 17ZM23.0775 12.9062L14.8638 9.07375C12.7488 9.34192 10.7978 10.3527 9.35886 11.9258C7.91992 13.4989 7.0866 15.532 7.00753 17.6625L15.53 13.1175C15.6824 13.0364 15.8532 12.9961 16.0257 13.0005C16.1983 13.0049 16.3667 13.054 16.5147 13.1428C16.6627 13.2316 16.7852 13.3573 16.8703 13.5075C16.9553 13.6577 17 13.8274 17 14V26.9438C18.7367 26.7557 20.3804 26.0638 21.7288 24.9533C23.0771 23.8428 24.0713 22.3621 24.5888 20.6938C24.6692 20.4403 24.847 20.2292 25.083 20.1068C25.3191 19.9844 25.5941 19.9609 25.8475 20.0413C26.101 20.1216 26.3121 20.2994 26.4345 20.5355C26.5568 20.7715 26.5804 21.0466 26.5 21.3C26.034 22.7712 25.2635 24.1279 24.2388 25.2819C23.2141 26.4358 21.9581 27.3613 20.5523 27.998C19.1465 28.6348 17.6225 28.9686 16.0792 28.9778C14.536 28.987 13.0081 28.6714 11.5948 28.0514C10.1815 27.4315 8.91453 26.5211 7.87613 25.3794C6.83774 24.2378 6.05119 22.8904 5.56761 21.4248C5.08403 19.9593 4.91425 18.4084 5.06929 16.8729C5.22434 15.3374 5.70074 13.8518 6.46753 12.5125C5.5661 12.0549 4.84503 11.307 4.42054 10.3895C3.99606 9.47196 3.8929 8.43824 4.12768 7.45493C4.36246 6.47161 4.92151 5.596 5.71472 4.96923C6.50793 4.34246 7.48908 4.00104 8.50003 4C8.646 4.00024 8.79016 4.03223 8.92253 4.09375L23.7038 10.9913C24.346 10.9374 24.9426 10.6376 25.3691 10.1544C25.7956 9.67121 26.0191 9.04198 25.9928 8.39803C25.9665 7.75407 25.6925 7.14514 25.2281 6.69833C24.7636 6.25151 24.1445 6.00133 23.5 6C23.2348 6 22.9805 5.89464 22.7929 5.70711C22.6054 5.51957 22.5 5.26522 22.5 5C22.5 4.73478 22.6054 4.48043 22.7929 4.29289C22.9805 4.10536 23.2348 4 23.5 4C24.6935 4 25.8381 4.47411 26.682 5.31802C27.5259 6.16193 28 7.30653 28 8.5C28 9.69347 27.5259 10.8381 26.682 11.682C25.8381 12.5259 24.6935 13 23.5 13C23.3541 12.9998 23.2099 12.9678 23.0775 12.9062ZM12 26.0588V17.2663L7.18878 19.8325C7.46888 21.1661 8.04723 22.419 8.88046 23.4973C9.71369 24.5756 10.7802 25.4513 12 26.0588ZM12.0163 7.75L8.29628 6.00875C7.72897 6.05649 7.19494 6.29644 6.78251 6.6889C6.37009 7.08137 6.10397 7.60285 6.02818 8.1671C5.95238 8.73135 6.07144 9.30458 6.36567 9.79197C6.6599 10.2794 7.11168 10.6517 7.64628 10.8475C7.72128 10.7587 7.79628 10.67 7.87628 10.5837C9.01958 9.33288 10.4364 8.36307 12.0163 7.75Z" fill="white"/>
<path d="M64 18.5C64 18.8956 63.8827 19.2822 63.6629 19.6111C63.4432 19.94 63.1308 20.1964 62.7654 20.3478C62.3999 20.4991 61.9978 20.5387 61.6098 20.4616C61.2218 20.3844 60.8655 20.1939 60.5858 19.9142C60.3061 19.6345 60.1156 19.2781 60.0384 18.8902C59.9613 18.5022 60.0009 18.1001 60.1522 17.7346C60.3036 17.3692 60.56 17.0568 60.8889 16.8371C61.2177 16.6173 61.6044 16.5 62 16.5C62.5304 16.5 63.0391 16.7107 63.4142 17.0858C63.7893 17.4609 64 17.9696 64 18.5ZM63.5 13.5C63.2809 13.5004 63.0644 13.4522 62.8662 13.3588L54.7812 9.58625C52.9171 9.85676 51.1957 10.7388 49.8873 12.0938C48.5789 13.4488 47.7576 15.2001 47.5525 17.0725L55.7937 12.6763C56.0223 12.5543 56.2786 12.4936 56.5376 12.5001C56.7966 12.5066 57.0496 12.58 57.2717 12.7133C57.4939 12.8467 57.6778 13.0352 57.8054 13.2607C57.933 13.4862 58.0001 13.7409 58 14V26.2638C59.1996 25.9761 60.3219 25.4296 61.2881 24.6626C62.2544 23.8957 63.0413 22.9268 63.5937 21.8238C63.6809 21.6451 63.8026 21.4856 63.9519 21.3545C64.1013 21.2233 64.2751 21.1231 64.4635 21.0597C64.6519 20.9963 64.8509 20.971 65.0492 20.9852C65.2474 20.9995 65.4408 21.0529 65.6182 21.1425C65.7956 21.2321 65.9534 21.3561 66.0825 21.5072C66.2116 21.6583 66.3093 21.8336 66.3701 22.0228C66.4308 22.212 66.4534 22.4114 66.4364 22.6094C66.4194 22.8075 66.3633 23.0001 66.2712 23.1763C65.3761 24.9646 64.028 26.4871 62.3611 27.592C60.6943 28.697 58.767 29.3458 56.7712 29.4738C56.6818 29.4906 56.591 29.4994 56.5 29.5C56.4562 29.5 56.415 29.5 56.375 29.4938C56.25 29.4938 56.125 29.5 56 29.5C54.0251 29.4997 52.0835 28.9909 50.3623 28.0224C48.6411 27.054 47.1983 25.6586 46.173 23.9707C45.1476 22.2828 44.5742 20.3593 44.508 18.3855C44.4418 16.4117 44.885 14.4541 45.795 12.7013C44.8884 12.1162 44.1953 11.2536 43.8193 10.2422C43.4434 9.23083 43.4046 8.12496 43.709 7.08977C44.0133 6.05457 44.6443 5.1456 45.5079 4.4986C46.3714 3.8516 47.421 3.5013 48.5 3.5C48.7191 3.49959 48.9356 3.54784 49.1337 3.64125L63.7887 10.4788C64.2884 10.4053 64.7418 10.1456 65.0579 9.75171C65.3739 9.35782 65.5293 8.85894 65.4927 8.35524C65.4562 7.85153 65.2304 7.38031 64.8608 7.03619C64.4912 6.69206 64.005 6.50051 63.5 6.5C63.1022 6.5 62.7206 6.34197 62.4393 6.06066C62.158 5.77936 62 5.39783 62 5C62 4.60218 62.158 4.22065 62.4393 3.93934C62.7206 3.65804 63.1022 3.5 63.5 3.5C64.8261 3.5 66.0978 4.02679 67.0355 4.96447C67.9732 5.90215 68.5 7.17392 68.5 8.5C68.5 9.82609 67.9732 11.0979 67.0355 12.0355C66.0978 12.9732 64.8261 13.5 63.5 13.5ZM50 24.015V19.1663L47.8262 20.3263C48.2249 21.7209 48.9731 22.9906 50 24.015ZM55 16.5L53 17.5663V25.9513C53.6441 26.1953 54.3158 26.359 55 26.4388V16.5ZM50.8125 7.735L48.2112 6.52125C47.7992 6.58181 47.4163 6.76948 47.1161 7.0581C46.8158 7.34671 46.6131 7.72185 46.5363 8.13118C46.4595 8.54051 46.5124 8.96361 46.6877 9.34143C46.8629 9.71925 47.1517 10.033 47.5137 10.2388C48.4528 9.21143 49.5705 8.36309 50.8125 7.735Z" fill="white"/>
</g>
<defs>
<clipPath id="clip0_27_249">
<rect width="72" height="32" rx="5" fill="white"/>
</clipPath>
</defs>
</svg>
