<svg width="72" height="32" viewBox="0 0 72 32" fill="none" xmlns="http://www.w3.org/2000/svg">
<g clip-path="url(#clip0_27_1337)">
<path d="M31 16C31 16.2652 30.8946 16.5196 30.7071 16.7071C30.5196 16.8946 30.2652 17 30 17H27.9163C27.6781 18.3973 26.9537 19.6654 25.8711 20.5803C24.7885 21.4952 23.4174 21.998 22 22H17V25H20C21.0609 25 22.0783 25.4214 22.8284 26.1716C23.5786 26.9217 24 27.9391 24 29C24 29.2652 23.8946 29.5196 23.7071 29.7071C23.5196 29.8946 23.2652 30 23 30C22.7348 30 22.4804 29.8946 22.2929 29.7071C22.1054 29.5196 22 29.2652 22 29C22 28.4696 21.7893 27.9609 21.4142 27.5858C21.0391 27.2107 20.5304 27 20 27H17V29C17 29.2652 16.8946 29.5196 16.7071 29.7071C16.5196 29.8946 16.2652 30 16 30C15.7348 30 15.4804 29.8946 15.2929 29.7071C15.1054 29.5196 15 29.2652 15 29V27H12C11.4696 27 10.9609 27.2107 10.5858 27.5858C10.2107 27.9609 10 28.4696 10 29C10 29.2652 9.89464 29.5196 9.70711 29.7071C9.51957 29.8946 9.26522 30 9 30C8.73478 30 8.48043 29.8946 8.29289 29.7071C8.10536 29.5196 8 29.2652 8 29C8 27.9391 8.42143 26.9217 9.17157 26.1716C9.92172 25.4214 10.9391 25 12 25H15V22H10C8.58259 21.998 7.21148 21.4952 6.1289 20.5803C5.04632 19.6654 4.32195 18.3973 4.08375 17H2C1.73478 17 1.48043 16.8946 1.29289 16.7071C1.10536 16.5196 1 16.2652 1 16C1 15.7348 1.10536 15.4804 1.29289 15.2929C1.48043 15.1054 1.73478 15 2 15H5C5.26522 15 5.51957 15.1054 5.70711 15.2929C5.89464 15.4804 6 15.7348 6 16C6 17.0609 6.42143 18.0783 7.17157 18.8284C7.92172 19.5786 8.93913 20 10 20H22C23.0609 20 24.0783 19.5786 24.8284 18.8284C25.5786 18.0783 26 17.0609 26 16C26 15.7348 26.1054 15.4804 26.2929 15.2929C26.4804 15.1054 26.7348 15 27 15H30C30.2652 15 30.5196 15.1054 30.7071 15.2929C30.8946 15.4804 31 15.7348 31 16ZM10 18H22C22.2865 18 22.5697 17.9385 22.8304 17.8195C23.091 17.7006 23.3231 17.527 23.5108 17.3106C23.6986 17.0941 23.8376 16.8399 23.9186 16.565C23.9995 16.2902 24.0205 16.0011 23.98 15.7175L22.265 3.7175C22.195 3.24169 21.9568 2.80675 21.5935 2.49162C21.2302 2.17649 20.7659 2.00206 20.285 2H11.715C11.2341 2.00206 10.7698 2.17649 10.4065 2.49162C10.0432 2.80675 9.80498 3.24169 9.735 3.7175L8.02 15.7175C7.97953 16.0011 8.00048 16.2902 8.08142 16.565C8.16237 16.8399 8.30142 17.0941 8.48917 17.3106C8.67692 17.527 8.90898 17.7006 9.16964 17.8195C9.4303 17.9385 9.71348 18 10 18Z" fill="white"/>
<path d="M71.5 16C71.5 16.3979 71.342 16.7794 71.0607 17.0607C70.7794 17.342 70.3978 17.5 70 17.5H68.325C67.9855 18.9227 67.1769 20.1897 66.0295 21.0968C64.8821 22.0038 63.4626 22.4981 62 22.5H57.5V24.5H60C61.1935 24.5 62.3381 24.9741 63.182 25.818C64.0259 26.662 64.5 27.8066 64.5 29C64.5 29.3979 64.342 29.7794 64.0607 30.0607C63.7794 30.342 63.3978 30.5 63 30.5C62.6022 30.5 62.2206 30.342 61.9393 30.0607C61.658 29.7794 61.5 29.3979 61.5 29C61.5 28.6022 61.342 28.2207 61.0607 27.9394C60.7794 27.6581 60.3978 27.5 60 27.5H57.5V29C57.5 29.3979 57.342 29.7794 57.0607 30.0607C56.7794 30.342 56.3978 30.5 56 30.5C55.6022 30.5 55.2206 30.342 54.9393 30.0607C54.658 29.7794 54.5 29.3979 54.5 29V27.5H52C51.6022 27.5 51.2206 27.6581 50.9393 27.9394C50.658 28.2207 50.5 28.6022 50.5 29C50.5 29.3979 50.342 29.7794 50.0607 30.0607C49.7794 30.342 49.3978 30.5 49 30.5C48.6022 30.5 48.2206 30.342 47.9393 30.0607C47.658 29.7794 47.5 29.3979 47.5 29C47.5 27.8066 47.9741 26.662 48.818 25.818C49.6619 24.9741 50.8065 24.5 52 24.5H54.5V22.5H50C48.5374 22.4981 47.1179 22.0038 45.9705 21.0968C44.8231 20.1897 44.0145 18.9227 43.675 17.5H42C41.6022 17.5 41.2206 17.342 40.9393 17.0607C40.658 16.7794 40.5 16.3979 40.5 16C40.5 15.6022 40.658 15.2207 40.9393 14.9394C41.2206 14.6581 41.6022 14.5 42 14.5H45C45.3978 14.5 45.7794 14.6581 46.0607 14.9394C46.342 15.2207 46.5 15.6022 46.5 16C46.5 16.9283 46.8687 17.8185 47.5251 18.4749C48.1815 19.1313 49.0717 19.5 50 19.5H62C62.9283 19.5 63.8185 19.1313 64.4749 18.4749C65.1313 17.8185 65.5 16.9283 65.5 16C65.5 15.6022 65.658 15.2207 65.9393 14.9394C66.2206 14.6581 66.6022 14.5 67 14.5H70C70.3978 14.5 70.7794 14.6581 71.0607 14.9394C71.342 15.2207 71.5 15.6022 71.5 16ZM49.1025 16.625C48.8689 16.3524 48.6967 16.0327 48.5977 15.6876C48.4987 15.3424 48.4752 14.98 48.5288 14.625L50.225 3.62503C50.3125 3.03241 50.6109 2.49125 51.0653 2.1009C51.5197 1.71055 52.0997 1.49721 52.6987 1.50003H59.3013C59.9003 1.49721 60.4803 1.71055 60.9347 2.1009C61.3891 2.49125 61.6875 3.03241 61.775 3.62503L63.4713 14.625C63.5252 14.9809 63.5017 15.3443 63.4024 15.6903C63.303 16.0362 63.1301 16.3567 62.8954 16.6297C62.6608 16.9026 62.3699 17.1217 62.0428 17.2719C61.7157 17.4222 61.36 17.5 61 17.5H51C50.6393 17.4997 50.283 17.4213 49.9555 17.2703C49.6279 17.1192 49.3369 16.8991 49.1025 16.625ZM51.5837 14.5H60.4163L58.875 4.50003H53.125L51.5837 14.5Z" fill="white"/>
</g>
<defs>
<clipPath id="clip0_27_1337">
<rect width="72" height="32" rx="5" fill="white"/>
</clipPath>
</defs>
</svg>
