<svg width="72" height="32" viewBox="0 0 72 32" fill="none" xmlns="http://www.w3.org/2000/svg">
<g clip-path="url(#clip0_27_254)">
<path d="M28.04 14.28C28.5073 13.1361 28.6635 11.8888 28.4926 10.665C28.3218 9.44114 27.83 8.28434 27.0673 7.31211C26.3046 6.33989 25.2981 5.58689 24.1501 5.12964C23.0021 4.67238 21.7535 4.52717 20.5312 4.70875C19.7737 3.73302 18.7716 2.97511 17.6264 2.51197C16.4813 2.04883 15.234 1.89696 14.0112 2.07177C12.7884 2.24658 11.6336 2.74186 10.6641 3.50731C9.69464 4.27275 8.94496 5.28112 8.49122 6.43C7.26689 6.59759 6.10874 7.08631 5.13447 7.84648C4.1602 8.60666 3.40453 9.6112 2.94425 10.758C2.48397 11.9049 2.33548 13.1531 2.51388 14.3759C2.69229 15.5987 3.19121 16.7525 3.95997 17.72C3.58483 18.6393 3.40956 19.6279 3.4458 20.6202C3.48204 21.6125 3.72897 22.5857 4.17017 23.4752C4.61138 24.3647 5.23678 25.1502 6.00484 25.7794C6.7729 26.4087 7.66605 26.8674 8.62497 27.125C9.21934 27.2877 9.83249 27.3717 10.4487 27.375C10.7905 27.3747 11.1319 27.3492 11.47 27.2987C12.2276 28.2741 13.2298 29.0317 14.3749 29.4945C15.5199 29.9574 16.767 30.1091 17.9896 29.9341C19.2122 29.7592 20.3668 29.2639 21.3361 28.4985C22.3054 27.7332 23.055 26.725 23.5087 25.5763C24.733 25.4087 25.8912 24.9199 26.8655 24.1598C27.8397 23.3996 28.5954 22.395 29.0557 21.2482C29.516 20.1014 29.6645 18.8532 29.4861 17.6304C29.3076 16.4076 28.8087 15.2538 28.04 14.2863V14.28ZM18 17.155L16 18.31L14 17.155V14.845L16 13.69L18 14.845V17.155ZM22.8562 6.80375C24.1163 7.14061 25.1949 7.95654 25.8619 9.07747C26.5288 10.1984 26.7313 11.5356 26.4262 12.8038C26.3075 12.725 26.1875 12.6488 26.0625 12.5775L20.5 9.36C20.3479 9.27223 20.1755 9.22603 20 9.22603C19.8244 9.22603 19.652 9.27223 19.5 9.36L14 12.5363V10.2263L19.0625 7.30375C19.6304 6.97386 20.2581 6.75982 20.9093 6.674C21.5605 6.58818 22.2222 6.63228 22.8562 6.80375ZM5.10622 10.8663C5.74365 9.75484 6.78576 8.93262 8.01497 8.57125C8.00622 8.71375 7.99997 8.85625 7.99997 9V15.4225C7.99993 15.5981 8.04612 15.7706 8.13389 15.9226C8.22166 16.0747 8.34792 16.201 8.49997 16.2888L14 19.4638L12 20.625L6.93747 17.6963C5.7891 17.0332 4.95116 15.9411 4.60797 14.6602C4.26478 13.3794 4.44446 12.0146 5.10747 10.8663H5.10622ZM17 28C15.7199 28.0034 14.4878 27.5132 13.56 26.6313C13.685 26.5675 13.81 26.5 13.935 26.4275L19.5 23.2162C19.6518 23.1286 19.778 23.0025 19.8657 22.8507C19.9535 22.6988 19.9998 22.5266 20 22.3512V16L22 17.155V23C22 24.3261 21.4732 25.5979 20.5355 26.5355C19.5978 27.4732 18.3261 28 17 28Z" fill="white"/>
<path d="M68.61 14.2013C69.0466 13.0034 69.1705 11.714 68.9702 10.455C68.7699 9.19587 68.252 8.00863 67.4653 7.00537C66.6786 6.00211 65.6491 5.21596 64.4741 4.72116C63.2991 4.22636 62.0174 4.03925 60.75 4.17751C59.9305 3.20034 58.8754 2.44829 57.6843 1.99242C56.4932 1.53656 55.2056 1.39195 53.9431 1.57225C52.6806 1.75256 51.4849 2.25183 50.469 3.02287C49.4532 3.79391 48.6507 4.81126 48.1375 5.97876C46.8818 6.19966 45.7031 6.73706 44.7127 7.54019C43.7224 8.34332 42.9532 9.38567 42.4778 10.5688C42.0024 11.7518 41.8364 13.0366 41.9956 14.3017C42.1547 15.5667 42.6338 16.7703 43.3875 17.7988C42.9749 18.9336 42.842 20.1511 43.0001 21.3482C43.1582 22.5453 43.6026 23.6867 44.2956 24.6755C44.9887 25.6642 45.91 26.4713 46.9813 27.0283C48.0527 27.5853 49.2425 27.8757 50.45 27.875C50.7194 27.875 50.9886 27.86 51.2563 27.83C52.0765 28.8055 53.1318 29.5558 54.3226 30.0102C55.5133 30.4647 56.8002 30.6081 58.0618 30.4271C59.3234 30.2461 60.518 29.7466 61.533 28.9757C62.5479 28.2048 63.3496 27.188 63.8625 26.0213C65.1183 25.8004 66.297 25.263 67.2873 24.4598C68.2776 23.6567 69.0468 22.6144 69.5223 21.4313C69.9977 20.2482 70.1637 18.9634 70.0045 17.6984C69.8453 16.4333 69.3662 15.2297 68.6125 14.2013H68.61ZM62.7263 7.28751C63.7419 7.55939 64.6303 8.17831 65.2372 9.03685C65.8441 9.8954 66.1313 10.9394 66.0488 11.9875L61.25 9.21626C61.022 9.08461 60.7633 9.0153 60.5 9.0153C60.2367 9.0153 59.9781 9.08461 59.75 9.21626L55 11.9588V10.2263L59.3125 7.73751C59.8235 7.44041 60.3883 7.24765 60.9743 7.17041C61.5603 7.09317 62.1558 7.13297 62.7263 7.28751ZM57 15.4225V16.5775L56 17.155L55 16.5775V15.4225L56 14.845L57 15.4225ZM50.5 9.00001C50.5 8.18011 50.724 7.37578 51.1478 6.6739C51.5716 5.97202 52.1791 5.39927 52.9047 5.01749C53.6303 4.63571 54.4464 4.45943 55.2648 4.50768C56.0833 4.55593 56.8731 4.82688 57.5488 5.29126L52.75 8.06126C52.522 8.19289 52.3327 8.3822 52.2011 8.61017C52.0694 8.83815 52.0001 9.09675 52 9.36001V14.845L50.5 13.9788V9.00001ZM45.5413 11.1163C45.9947 10.327 46.678 9.69472 47.5 9.30376V14.845C47.4999 15.1085 47.5691 15.3673 47.7007 15.5956C47.8324 15.8238 48.0219 16.0133 48.25 16.145L53 18.8863L51.5 19.75L47.1875 17.2625C46.1543 16.6656 45.4005 15.6828 45.0918 14.5303C44.7831 13.3777 44.9447 12.1497 45.5413 11.1163ZM49.2738 24.7125C48.2581 24.4406 47.3698 23.8217 46.7628 22.9632C46.1559 22.1046 45.8688 21.0607 45.9513 20.0125L50.75 22.7838C50.9781 22.9154 51.2367 22.9847 51.5 22.9847C51.7633 22.9847 52.022 22.9154 52.25 22.7838L57 20.0413V21.7738L52.6875 24.2625C52.1766 24.5596 51.6117 24.7524 51.0257 24.8296C50.4398 24.9069 49.8443 24.8671 49.2738 24.7125ZM61.5 23C61.5 23.8199 61.2761 24.6242 60.8523 25.3261C60.4285 26.028 59.821 26.6008 59.0954 26.9825C58.3698 27.3643 57.5537 27.5406 56.7352 27.4923C55.9167 27.4441 55.127 27.1731 54.4513 26.7088L59.25 23.9388C59.478 23.8071 59.6673 23.6178 59.799 23.3898C59.9306 23.1619 60 22.9033 60 22.64V17.155L61.5 18.0213V23ZM66.4588 20.8838C66.0053 21.673 65.322 22.3053 64.5 22.6963V17.155C64.5002 16.8915 64.431 16.6327 64.2993 16.4045C64.1676 16.1763 63.9782 15.9867 63.75 15.855L59 13.1138L60.5 12.25L64.8125 14.74C65.845 15.3369 66.5984 16.3192 66.9071 17.4712C67.2158 18.6232 67.0545 19.8506 66.4588 20.8838Z" fill="white"/>
</g>
<defs>
<clipPath id="clip0_27_254">
<rect width="72" height="32" rx="5" fill="white"/>
</clipPath>
</defs>
</svg>
