<svg width="72" height="32" viewBox="0 0 72 32" fill="none" xmlns="http://www.w3.org/2000/svg">
<g clip-path="url(#clip0_27_2976)">
<path d="M27 5H5C4.46957 5 3.96086 5.21071 3.58579 5.58579C3.21071 5.96086 3 6.46957 3 7V25C3 25.5304 3.21071 26.0391 3.58579 26.4142C3.96086 26.7893 4.46957 27 5 27H27C27.5304 27 28.0391 26.7893 28.4142 26.4142C28.7893 26.0391 29 25.5304 29 25V7C29 6.46957 28.7893 5.96086 28.4142 5.58579C28.0391 5.21071 27.5304 5 27 5ZM25 22H19.1175C18.7459 22.0012 18.3814 21.8983 18.0653 21.703C17.7491 21.5077 17.494 21.2278 17.3288 20.895L12.8825 12H7C6.73478 12 6.48043 11.8946 6.29289 11.7071C6.10536 11.5196 6 11.2652 6 11C6 10.7348 6.10536 10.4804 6.29289 10.2929C6.48043 10.1054 6.73478 10 7 10H12.8825C13.2541 9.99881 13.6186 10.1017 13.9347 10.297C14.2509 10.4923 14.506 10.7722 14.6713 11.105L19.1175 20H25C25.2652 20 25.5196 20.1054 25.7071 20.2929C25.8946 20.4804 26 20.7348 26 21C26 21.2652 25.8946 21.5196 25.7071 21.7071C25.5196 21.8946 25.2652 22 25 22ZM25 12H19C18.7348 12 18.4804 11.8946 18.2929 11.7071C18.1054 11.5196 18 11.2652 18 11C18 10.7348 18.1054 10.4804 18.2929 10.2929C18.4804 10.1054 18.7348 10 19 10H25C25.2652 10 25.5196 10.1054 25.7071 10.2929C25.8946 10.4804 26 10.7348 26 11C26 11.2652 25.8946 11.5196 25.7071 11.7071C25.5196 11.8946 25.2652 12 25 12Z" fill="white"/>
<path d="M69.5 24C69.5 24.3978 69.342 24.7794 69.0607 25.0607C68.7794 25.342 68.3978 25.5 68 25.5H60.1175C59.653 25.5014 59.1974 25.3725 58.8024 25.1282C58.4074 24.8838 58.0887 24.5337 57.8825 24.1175L51.5725 11.5H44C43.6022 11.5 43.2206 11.342 42.9393 11.0607C42.658 10.7794 42.5 10.3978 42.5 10C42.5 9.60219 42.658 9.22065 42.9393 8.93935C43.2206 8.65805 43.6022 8.50001 44 8.50001H51.8825C52.347 8.49867 52.8026 8.62747 53.1976 8.87183C53.5926 9.11618 53.9113 9.4663 54.1175 9.88251L60.4275 22.5H68C68.3978 22.5 68.7794 22.658 69.0607 22.9394C69.342 23.2207 69.5 23.6022 69.5 24ZM59 11.5H68C68.3978 11.5 68.7794 11.342 69.0607 11.0607C69.342 10.7794 69.5 10.3978 69.5 10C69.5 9.60219 69.342 9.22065 69.0607 8.93935C68.7794 8.65805 68.3978 8.50001 68 8.50001H59C58.6022 8.50001 58.2206 8.65805 57.9393 8.93935C57.658 9.22065 57.5 9.60219 57.5 10C57.5 10.3978 57.658 10.7794 57.9393 11.0607C58.2206 11.342 58.6022 11.5 59 11.5Z" fill="white"/>
</g>
<defs>
<clipPath id="clip0_27_2976">
<rect width="72" height="32" rx="5" fill="white"/>
</clipPath>
</defs>
</svg>
