<svg width="72" height="32" viewBox="0 0 72 32" fill="none" xmlns="http://www.w3.org/2000/svg">
<g clip-path="url(#clip0_27_1347)">
<path d="M20.7338 9.0725C22.0205 8.39257 23.0975 7.37487 23.8492 6.12876C24.6008 4.88266 24.9987 3.45526 25 2C25 1.73478 24.8947 1.48043 24.7071 1.29289C24.5196 1.10536 24.2653 1 24 1H23C21.5705 1.00054 20.1671 1.38415 18.9361 2.11092C17.705 2.83769 16.6912 3.88107 16 5.1325C15.3089 3.88107 14.2951 2.83769 13.064 2.11092C11.833 1.38415 10.4296 1.00054 9.00004 1H8.00004C7.73482 1 7.48047 1.10536 7.29293 1.29289C7.1054 1.48043 7.00004 1.73478 7.00004 2C7.00004 2.26522 7.1054 2.51957 7.29293 2.70711C7.48047 2.89464 7.73482 3 8.00004 3H9.00004C10.4266 3.00196 11.806 3.51129 12.8914 4.43693C13.9769 5.36257 14.6978 6.64415 14.925 8.0525C12.2781 8.31158 9.81463 9.5209 7.99072 11.4566C6.1668 13.3923 5.10596 15.9232 5.00458 18.5809C4.9032 21.2385 5.76814 23.843 7.43929 25.912C9.11043 27.981 11.4746 29.3744 14.0941 29.8344C16.7137 30.2944 19.4111 29.7897 21.6872 28.4138C23.9632 27.038 25.6637 24.884 26.4739 22.3508C27.284 19.8176 27.1489 17.0766 26.0935 14.6354C25.0382 12.1941 23.1341 10.2179 20.7338 9.0725ZM22.9163 3C22.6804 4.38309 21.9682 5.64011 20.903 6.55328C19.8378 7.46645 18.4867 7.97825 17.0838 8C17.3197 6.61691 18.0319 5.35989 19.0971 4.44672C20.1623 3.53355 21.5134 3.02175 22.9163 3ZM22.9863 20.165C22.7291 21.6147 22.0328 22.9505 20.9917 23.9916C19.9505 25.0327 18.6148 25.729 17.165 25.9862C17.1105 25.9951 17.0553 25.9997 17 26C16.7493 25.9996 16.5079 25.9051 16.3236 25.7351C16.1392 25.5651 16.0255 25.3321 16.0049 25.0822C15.9843 24.8323 16.0583 24.5838 16.2123 24.3859C16.3663 24.188 16.589 24.0552 16.8363 24.0138C17.8769 23.8289 18.8356 23.329 19.5829 22.5816C20.3303 21.8343 20.8301 20.8756 21.015 19.835C21.0609 19.5754 21.2075 19.3445 21.4228 19.1924C21.6381 19.0403 21.9048 18.9794 22.1648 19.0229C22.4248 19.0663 22.6571 19.2107 22.8112 19.4246C22.9652 19.6385 23.0286 19.9046 22.9875 20.165H22.9863Z" fill="white"/>
<path d="M61.7499 9.045C62.9039 8.26738 63.8493 7.21834 64.5031 5.98998C65.157 4.76163 65.4993 3.39153 65.4999 2C65.4999 1.60218 65.3419 1.22064 65.0606 0.93934C64.7793 0.658035 64.3977 0.5 63.9999 0.5H62.9999C61.6217 0.500901 60.2644 0.836919 59.0449 1.4791C57.8254 2.12127 56.7804 3.05035 55.9999 4.18625C55.2194 3.05035 54.1744 2.12127 52.9549 1.4791C51.7354 0.836919 50.3781 0.500901 48.9999 0.5H47.9999C47.6021 0.5 47.2205 0.658035 46.9392 0.93934C46.6579 1.22064 46.4999 1.60218 46.4999 2C46.4999 2.39782 46.6579 2.77936 46.9392 3.06066C47.2205 3.34196 47.6021 3.5 47.9999 3.5H48.9999C50.2188 3.50158 51.4027 3.90736 52.3663 4.6538C53.3299 5.40025 54.0187 6.44519 54.3249 7.625C51.6344 8.01994 49.1707 9.35503 47.3708 11.3935C45.5709 13.4319 44.5512 16.0419 44.4924 18.7607C44.4337 21.4794 45.3397 24.131 47.0499 26.2453C48.76 28.3596 51.1637 29.7999 53.8346 30.3107C56.5056 30.8215 59.2711 30.3698 61.6407 29.0358C64.0104 27.7017 65.8309 25.5715 66.7795 23.023C67.7281 20.4744 67.7434 17.6723 66.8227 15.1136C65.902 12.5548 64.1048 10.4049 61.7499 9.045ZM62.2774 3.545C61.9756 4.5663 61.3847 5.47845 60.576 6.17137C59.7673 6.86428 58.7754 7.30836 57.7199 7.45C58.0222 6.42899 58.6134 5.51725 59.4223 4.82479C60.2312 4.13233 61.2232 3.68872 62.2787 3.5475L62.2774 3.545ZM55.9999 27.5C54.3188 27.5 52.6754 27.0015 51.2776 26.0675C49.8797 25.1335 48.7903 23.806 48.1469 22.2528C47.5036 20.6996 47.3353 18.9906 47.6632 17.3417C47.9912 15.6929 48.8008 14.1783 49.9895 12.9896C51.1782 11.8008 52.6928 10.9913 54.3416 10.6633C55.9905 10.3354 57.6995 10.5037 59.2527 11.147C60.8059 11.7904 62.1334 12.8798 63.0674 14.2777C64.0014 15.6755 64.4999 17.3189 64.4999 19C64.4976 21.2536 63.6013 23.4143 62.0078 25.0078C60.4142 26.6014 58.2535 27.4977 55.9999 27.5ZM62.2024 20.95C61.8884 21.9482 61.3381 22.8558 60.5981 23.5957C59.8582 24.3357 58.9506 24.886 57.9524 25.2C57.8067 25.2453 57.655 25.2685 57.5024 25.2687C57.1438 25.269 56.797 25.1408 56.5249 24.9074C56.2527 24.674 56.0731 24.3508 56.0187 23.9964C55.9643 23.6419 56.0386 23.2798 56.2283 22.9754C56.4179 22.6711 56.7103 22.4448 57.0524 22.3375C57.5903 22.1685 58.0795 21.872 58.4782 21.4733C58.8769 21.0746 59.1734 20.5854 59.3424 20.0475C59.4015 19.8595 59.497 19.6851 59.6236 19.534C59.7501 19.383 59.9051 19.2584 60.0798 19.1673C60.4326 18.9832 60.8441 18.9469 61.2237 19.0662C61.4116 19.1253 61.5861 19.2209 61.7371 19.3474C61.8881 19.4739 62.0128 19.629 62.1039 19.8037C62.195 19.9783 62.2508 20.1693 62.2682 20.3655C62.2855 20.5618 62.264 20.7595 62.2049 20.9475L62.2024 20.95Z" fill="white"/>
</g>
<defs>
<clipPath id="clip0_27_1347">
<rect width="72" height="32" rx="5" fill="white"/>
</clipPath>
</defs>
</svg>
