<svg width="72" height="32" viewBox="0 0 72 32" fill="none" xmlns="http://www.w3.org/2000/svg">
<g clip-path="url(#clip0_27_1362)">
<path d="M27.96 8.26877L16.96 2.25002C16.6661 2.08763 16.3358 2.00244 16 2.00244C15.6642 2.00244 15.3339 2.08763 15.04 2.25002L4.04 8.27127C3.72586 8.44315 3.46363 8.69622 3.28069 9.00405C3.09775 9.31188 3.00081 9.66319 3 10.0213V21.9763C3.00081 22.3344 3.09775 22.6857 3.28069 22.9935C3.46363 23.3013 3.72586 23.5544 4.04 23.7263L15.04 29.7475C15.3339 29.9099 15.6642 29.9951 16 29.9951C16.3358 29.9951 16.6661 29.9099 16.96 29.7475L27.96 23.7263C28.2741 23.5544 28.5364 23.3013 28.7193 22.9935C28.9023 22.6857 28.9992 22.3344 29 21.9763V10.0225C28.9999 9.6638 28.9032 9.31172 28.7203 9.00317C28.5373 8.69462 28.2747 8.44096 27.96 8.26877ZM16 4.00002L26.0438 9.50002L22.3213 11.5363L12.2775 6.03627L16 4.00002ZM16 15L5.95625 9.50002L10.195 7.17877L20.2388 12.6788L16 15ZM27 21.9813L17 27.455V16.7288L21 14.54V19C21 19.2652 21.1054 19.5196 21.2929 19.7071C21.4804 19.8947 21.7348 20 22 20C22.2652 20 22.5196 19.8947 22.7071 19.7071C22.8946 19.5196 23 19.2652 23 19V13.445L27 11.2563V21.9763V21.9813Z" fill="white"/>
<path d="M68.2 7.83003L57.2 1.80878C56.8324 1.60646 56.4196 1.50037 56 1.50037C55.5804 1.50037 55.1676 1.60646 54.8 1.80878L43.8 7.83003C43.4064 8.04539 43.078 8.36271 42.8493 8.74869C42.6205 9.13468 42.4999 9.57511 42.5 10.0238V21.9763C42.4999 22.4249 42.6205 22.8654 42.8493 23.2514C43.078 23.6373 43.4064 23.9547 43.8 24.17L54.8 30.1913C55.1675 30.3938 55.5804 30.5 56 30.5C56.4196 30.5 56.8325 30.3938 57.2 30.1913L68.2 24.17C68.5936 23.9547 68.922 23.6373 69.1507 23.2514C69.3795 22.8654 69.5001 22.4249 69.5 21.9763V10.0238C69.5001 9.57511 69.3795 9.13468 69.1507 8.74869C68.922 8.36271 68.5936 8.04539 68.2 7.83003ZM56 4.57128L65 9.50003L62.3213 10.9663L53.3212 6.03878L56 4.57128ZM56 14.425L47 9.50003L50.195 7.75003L59.195 12.6763L56 14.425ZM45.5 12.0988L54.5 17.0238V26.6075L45.5 21.68V12.0988ZM57.5 26.6075V17.0238L60.5 15.3825V19C60.5 19.3979 60.658 19.7794 60.9393 20.0607C61.2206 20.342 61.6022 20.5 62 20.5C62.3978 20.5 62.7794 20.342 63.0607 20.0607C63.342 19.7794 63.5 19.3979 63.5 19V13.74L66.5 12.0988V21.68L57.5 26.6075Z" fill="white"/>
</g>
<defs>
<clipPath id="clip0_27_1362">
<rect width="72" height="32" rx="5" fill="white"/>
</clipPath>
</defs>
</svg>
