<svg width="72" height="32" viewBox="0 0 72 32" fill="none" xmlns="http://www.w3.org/2000/svg">
<g clip-path="url(#clip0_27_5398)">
<path d="M31.9997 26C31.9997 26.7957 31.6836 27.5587 31.121 28.1213C30.5584 28.6839 29.7954 29 28.9997 29C28.2041 29 27.441 28.6839 26.8784 28.1213C26.3158 27.5587 25.9997 26.7957 25.9997 26C25.9997 23.7613 27.946 20.7788 28.1672 20.445C28.2585 20.3078 28.3822 20.1954 28.5275 20.1176C28.6727 20.0397 28.8349 19.999 28.9997 19.999C29.1645 19.999 29.3267 20.0397 29.4719 20.1176C29.6172 20.1954 29.7409 20.3078 29.8322 20.445C30.0535 20.7788 31.9997 23.7613 31.9997 26ZM16.561 15.5613C16.8427 15.2795 17.0011 14.8973 17.0011 14.4988C17.0011 14.1002 16.8427 13.7181 16.561 13.4363C16.2792 13.1545 15.897 12.9962 15.4985 12.9962C15.0999 12.9962 14.7177 13.1545 14.436 13.4363C14.1588 13.7188 14.0046 14.0994 14.0069 14.4952C14.0092 14.8909 14.1677 15.2697 14.4481 15.5491C14.7284 15.8284 15.1078 15.9857 15.5036 15.9866C15.8993 15.9874 16.2794 15.8319 16.561 15.5538V15.5613ZM4.70595 2.29251C4.51831 2.10503 4.26388 1.99978 3.99864 1.99989C3.73339 2.00001 3.47905 2.10549 3.29158 2.29313C3.1041 2.48077 2.99885 2.7352 2.99896 3.00045C2.99908 3.2657 3.10456 3.52003 3.2922 3.70751L7.3672 7.78251L8.78095 6.37501L4.70595 2.29251ZM29.316 17.3838C29.4775 17.3298 29.6227 17.2355 29.7376 17.1098C29.8525 16.984 29.9334 16.831 29.9726 16.6652C30.0118 16.4995 30.008 16.3264 29.9615 16.1625C29.9151 15.9986 29.8275 15.8493 29.7072 15.7288L15.271 1.29251C15.0834 1.10511 14.8292 0.999847 14.5641 0.999847C14.299 0.999847 14.0447 1.10511 13.8572 1.29251L8.78095 6.37501L13.8347 11.4275C14.5741 11.0274 15.4328 10.9067 16.2538 11.0877C17.0748 11.2686 17.8032 11.739 18.3059 12.4128C18.8086 13.0866 19.052 13.9189 18.9915 14.7574C18.931 15.596 18.5707 16.3847 17.9765 16.9794C17.3823 17.5742 16.5939 17.9351 15.7554 17.9964C14.917 18.0576 14.0845 17.815 13.4102 17.3128C12.7359 16.8107 12.2649 16.0827 12.0832 15.2619C11.9016 14.441 12.0215 13.5822 12.421 12.8425L7.3672 7.78251L1.8747 13.2713C1.31214 13.8339 0.996094 14.5969 0.996094 15.3925C0.996094 16.1881 1.31214 16.9512 1.8747 17.5138L12.486 28.125C13.0486 28.6876 13.8116 29.0036 14.6072 29.0036C15.4028 29.0036 16.1659 28.6876 16.7285 28.125L26.5397 18.3138L29.316 17.3838Z" fill="white"/>
<path d="M69.474 17.86C69.7167 17.7793 69.9347 17.6379 70.1073 17.4492C70.2799 17.2605 70.4014 17.0308 70.4603 16.7819C70.5192 16.5331 70.5134 16.2733 70.4436 16.0272C70.3738 15.7812 70.2423 15.5571 70.0615 15.3762L55.6253 0.939993C55.4859 0.800153 55.3203 0.689197 55.138 0.613489C54.9557 0.537781 54.7602 0.49881 54.5628 0.49881C54.3653 0.49881 54.1699 0.537781 53.9875 0.613489C53.8052 0.689197 53.6396 0.800153 53.5003 0.939993L48.7815 5.66124L46.0603 2.93999C45.7785 2.6582 45.3963 2.49989 44.9978 2.49989C44.5992 2.49989 44.217 2.6582 43.9353 2.93999C43.6535 3.22179 43.4952 3.60398 43.4952 4.00249C43.4952 4.40101 43.6535 4.7832 43.9353 5.06499L46.6603 7.78249L41.5253 12.9187C41.2002 13.2438 40.9424 13.6296 40.7665 14.0543C40.5905 14.4789 40.5 14.9341 40.5 15.3937C40.5 15.8534 40.5905 16.3086 40.7665 16.7332C40.9424 17.1579 41.2002 17.5437 41.5253 17.8687L52.1328 28.4762C52.4578 28.8013 52.8436 29.0591 53.2683 29.235C53.6929 29.411 54.1481 29.5015 54.6078 29.5015C55.0674 29.5015 55.5226 29.411 55.9472 29.235C56.3719 29.0591 56.7577 28.8013 57.0828 28.4762L66.8103 18.75L69.474 17.86ZM65.5265 16.0137C65.3051 16.0873 65.104 16.2114 64.939 16.3762L54.9615 26.355C54.9151 26.4015 54.8599 26.4384 54.7992 26.4635C54.7385 26.4887 54.6735 26.5016 54.6078 26.5016C54.542 26.5016 54.477 26.4887 54.4163 26.4635C54.3556 26.4384 54.3004 26.4015 54.254 26.355L43.6465 15.75C43.6 15.7036 43.5631 15.6484 43.538 15.5877C43.5128 15.527 43.4999 15.462 43.4999 15.3962C43.4999 15.3305 43.5128 15.2655 43.538 15.2048C43.5631 15.1441 43.6 15.0889 43.6465 15.0425L48.7815 9.90499L51.8178 12.9412C51.4559 13.7958 51.4024 14.7497 51.6665 15.6394C51.9306 16.5291 52.4959 17.2992 53.2654 17.8179C54.035 18.3366 54.961 18.5716 55.8848 18.4826C56.8086 18.3936 57.6726 17.9861 58.329 17.33C58.9847 16.6734 59.3918 15.8094 59.4805 14.8857C59.5692 13.962 59.334 13.0363 58.8152 12.2669C58.2964 11.4976 57.5263 10.9326 56.6367 10.6686C55.7471 10.4046 54.7935 10.4582 53.939 10.82L50.904 7.78249L54.5653 4.12499L66.224 15.785L65.5265 16.0137ZM54.7928 13.795C54.981 13.6088 55.2353 13.5048 55.5001 13.5058C55.7648 13.5069 56.0184 13.6129 56.2051 13.8006C56.3918 13.9883 56.4964 14.2424 56.4961 14.5072C56.4957 14.7719 56.3904 15.0257 56.2032 15.2129C56.016 15.4002 55.7622 15.5055 55.4974 15.5058C55.2327 15.5062 54.9786 15.4015 54.7909 15.2148C54.6032 15.0281 54.4972 14.7746 54.4961 14.5098C54.4951 14.2451 54.599 13.9907 54.7853 13.8025L54.7928 13.795ZM72.0003 26C72.0003 26.7956 71.6842 27.5587 71.1216 28.1213C70.559 28.6839 69.7959 29 69.0003 29C68.2046 29 67.4415 28.6839 66.8789 28.1213C66.3163 27.5587 66.0003 26.7956 66.0003 26C66.0003 23.57 67.6165 21.3462 67.8003 21.1C67.94 20.9137 68.1211 20.7625 68.3294 20.6584C68.5377 20.5542 68.7674 20.5 69.0003 20.5C69.2331 20.5 69.4628 20.5542 69.6711 20.6584C69.8794 20.7625 70.0605 20.9137 70.2003 21.1C70.384 21.3475 72.0003 23.5712 72.0003 26Z" fill="white"/>
</g>
<defs>
<clipPath id="clip0_27_5398">
<rect width="72" height="32" rx="5" fill="white"/>
</clipPath>
</defs>
</svg>
