<svg width="72" height="32" viewBox="0 0 72 32" fill="none" xmlns="http://www.w3.org/2000/svg">
<g clip-path="url(#clip0_27_5388)">
<path d="M27 3H9C7.67392 3 6.40215 3.52678 5.46447 4.46447C4.52678 5.40215 4 6.67392 4 8V17C4 17.7956 4.31607 18.5587 4.87868 19.1213C5.44129 19.6839 6.20435 20 7 20H13L12.0138 25.8337C12.0048 25.8887 12.0002 25.9443 12 26C12 27.0609 12.4214 28.0783 13.1716 28.8284C13.9217 29.5786 14.9391 30 16 30C17.0609 30 18.0783 29.5786 18.8284 28.8284C19.5786 28.0783 20 27.0609 20 26C19.9998 25.9443 19.9952 25.8887 19.9862 25.8337L19 20H25C25.7956 20 26.5587 19.6839 27.1213 19.1213C27.6839 18.5587 28 17.7956 28 17V4C28 3.73478 27.8946 3.48043 27.7071 3.29289C27.5196 3.10536 27.2652 3 27 3ZM9 5H22V10C22 10.2652 22.1054 10.5196 22.2929 10.7071C22.4804 10.8946 22.7348 11 23 11C23.2652 11 23.5196 10.8946 23.7071 10.7071C23.8946 10.5196 24 10.2652 24 10V5H26V14H6V8C6 7.20435 6.31607 6.44129 6.87868 5.87868C7.44129 5.31607 8.20435 5 9 5Z" fill="white"/>
<path d="M67 2.5H49C47.5418 2.50165 46.1438 3.08165 45.1127 4.11274C44.0816 5.14383 43.5017 6.54182 43.5 8V17C43.5 17.9283 43.8687 18.8185 44.5251 19.4749C45.1815 20.1313 46.0717 20.5 47 20.5H51.955L51.5 25.875C51.5 25.9163 51.5 25.9587 51.5 26C51.5 27.1935 51.9741 28.3381 52.818 29.182C53.6619 30.0259 54.8065 30.5 56 30.5C57.1935 30.5 58.3381 30.0259 59.182 29.182C60.0259 28.3381 60.5 27.1935 60.5 26C60.5 25.9587 60.5 25.9163 60.5 25.875L60.05 20.5H65C65.9283 20.5 66.8185 20.1313 67.4749 19.4749C68.1313 18.8185 68.5 17.9283 68.5 17V4C68.5 3.60218 68.342 3.22064 68.0607 2.93934C67.7794 2.65804 67.3978 2.5 67 2.5ZM49 5.5H60V8.5C60 8.89782 60.158 9.27936 60.4393 9.56066C60.7206 9.84196 61.1022 10 61.5 10C61.8978 10 62.2794 9.84196 62.5607 9.56066C62.842 9.27936 63 8.89782 63 8.5V5.5H65.5V12H46.5V8C46.5 7.33696 46.7634 6.70107 47.2322 6.23223C47.7011 5.76339 48.337 5.5 49 5.5ZM65 17.5H59.5C59.1464 17.5001 58.7969 17.5752 58.4745 17.7203C58.1521 17.8655 57.8641 18.0773 57.6296 18.3419C57.3951 18.6066 57.2194 18.9179 57.1141 19.2554C57.0088 19.593 56.9763 19.949 57.0187 20.3L57.4988 26.05C57.4988 26.4478 57.3407 26.8294 57.0594 27.1107C56.7781 27.392 56.3966 27.55 55.9987 27.55C55.6009 27.55 55.2194 27.392 54.9381 27.1107C54.6568 26.8294 54.4987 26.4478 54.4987 26.05L54.9788 20.3C55.0212 19.9492 54.9887 19.5934 54.8836 19.256C54.7784 18.9187 54.6029 18.6075 54.3687 18.3429C54.1345 18.0783 53.8468 17.8664 53.5247 17.7211C53.2026 17.5758 52.8534 17.5005 52.5 17.5H47C46.8674 17.5 46.7402 17.4473 46.6464 17.3536C46.5527 17.2598 46.5 17.1326 46.5 17V15H65.5V17C65.5 17.1326 65.4473 17.2598 65.3536 17.3536C65.2598 17.4473 65.1326 17.5 65 17.5Z" fill="white"/>
</g>
<defs>
<clipPath id="clip0_27_5388">
<rect width="72" height="32" rx="5" fill="white"/>
</clipPath>
</defs>
</svg>
