<svg width="72" height="32" viewBox="0 0 72 32" fill="none" xmlns="http://www.w3.org/2000/svg">
<g clip-path="url(#clip0_27_5408)">
<path d="M25.0963 6.73626C22.6759 4.33949 19.4063 2.99651 16 3.00001H15.8663C12.4417 3.03524 9.16932 4.42042 6.7602 6.85459C4.35108 9.28875 2.99982 12.5752 3 16C3 21.375 6.3225 25.8825 11.67 27.7713C12.2731 27.9839 12.9185 28.0488 13.5519 27.9606C14.1853 27.8724 14.7883 27.6335 15.3104 27.2641C15.8324 26.8948 16.2583 26.4056 16.5523 25.8376C16.8463 25.2697 16.9998 24.6395 17 24C17 23.4696 17.2107 22.9609 17.5858 22.5858C17.9609 22.2107 18.4696 22 19 22H24.7763C25.6836 22.0044 26.5652 21.6983 27.2746 21.1326C27.984 20.5669 28.4786 19.7756 28.6763 18.89C28.8998 17.9059 29.0084 16.8992 29 15.89C28.9873 14.1818 28.6357 12.4932 27.9656 10.9219C27.2955 9.35058 26.3202 7.92789 25.0963 6.73626ZM10.5 21C10.2033 21 9.91332 20.912 9.66665 20.7472C9.41997 20.5824 9.22771 20.3481 9.11418 20.074C9.00065 19.7999 8.97094 19.4983 9.02882 19.2074C9.0867 18.9164 9.22956 18.6491 9.43934 18.4393C9.64912 18.2296 9.91639 18.0867 10.2074 18.0288C10.4983 17.971 10.7999 18.0007 11.074 18.1142C11.3481 18.2277 11.5824 18.42 11.7472 18.6667C11.912 18.9133 12 19.2033 12 19.5C12 19.8978 11.842 20.2794 11.5607 20.5607C11.2794 20.842 10.8978 21 10.5 21ZM10.5 14C10.2033 14 9.91332 13.912 9.66665 13.7472C9.41997 13.5824 9.22771 13.3481 9.11418 13.074C9.00065 12.7999 8.97094 12.4983 9.02882 12.2074C9.0867 11.9164 9.22956 11.6491 9.43934 11.4393C9.64912 11.2296 9.91639 11.0867 10.2074 11.0288C10.4983 10.971 10.7999 11.0007 11.074 11.1142C11.3481 11.2277 11.5824 11.42 11.7472 11.6667C11.912 11.9133 12 12.2033 12 12.5C12 12.8978 11.842 13.2794 11.5607 13.5607C11.2794 13.842 10.8978 14 10.5 14ZM16 11C15.7033 11 15.4133 10.912 15.1666 10.7472C14.92 10.5824 14.7277 10.3481 14.6142 10.074C14.5006 9.79994 14.4709 9.49834 14.5288 9.20737C14.5867 8.9164 14.7296 8.64913 14.9393 8.43935C15.1491 8.22957 15.4164 8.08671 15.7074 8.02883C15.9983 7.97095 16.2999 8.00066 16.574 8.11419C16.8481 8.22772 17.0824 8.41998 17.2472 8.66665C17.412 8.91333 17.5 9.20333 17.5 9.50001C17.5 9.89783 17.342 10.2794 17.0607 10.5607C16.7794 10.842 16.3978 11 16 11ZM21.5 14C21.2033 14 20.9133 13.912 20.6666 13.7472C20.42 13.5824 20.2277 13.3481 20.1142 13.074C20.0007 12.7999 19.9709 12.4983 20.0288 12.2074C20.0867 11.9164 20.2296 11.6491 20.4393 11.4393C20.6491 11.2296 20.9164 11.0867 21.2074 11.0288C21.4983 10.971 21.7999 11.0007 22.074 11.1142C22.3481 11.2277 22.5824 11.42 22.7472 11.6667C22.912 11.9133 23 12.2033 23 12.5C23 12.8978 22.842 13.2794 22.5607 13.5607C22.2794 13.842 21.8978 14 21.5 14Z" fill="white"/>
<path d="M65.4463 6.37501C63.5507 4.51023 61.1462 3.24735 58.5351 2.74511C55.9239 2.24286 53.2225 2.52365 50.7704 3.55219C48.3184 4.58073 46.225 6.31112 44.7535 8.52589C43.282 10.7407 42.498 13.341 42.5 16C42.5 21.59 45.95 26.2813 51.5 28.2425C52.1787 28.4825 52.9051 28.5561 53.6182 28.4572C54.3313 28.3583 55.0102 28.0898 55.598 27.6741C56.1858 27.2585 56.6653 26.7079 56.9963 26.0686C57.3272 25.4293 57.5 24.7199 57.5 24C57.5 23.6022 57.658 23.2207 57.9393 22.9394C58.2206 22.658 58.6022 22.5 59 22.5H64.7763C65.7972 22.5048 66.789 22.1603 67.5871 21.5236C68.3852 20.8869 68.9416 19.9965 69.1638 19C69.3956 17.9785 69.5084 16.9337 69.5 15.8863C69.4877 14.1115 69.123 12.3568 68.4271 10.724C67.7312 9.09131 66.718 7.61304 65.4463 6.37501ZM66.2388 18.3338C66.1643 18.6654 65.9786 18.9615 65.7125 19.173C65.4465 19.3845 65.1161 19.4985 64.7763 19.4963H59C57.8065 19.4963 56.6619 19.9704 55.818 20.8143C54.9741 21.6582 54.5 22.8028 54.5 23.9963C54.4997 24.2361 54.442 24.4724 54.3315 24.6852C54.2211 24.8981 54.0612 25.0814 53.8653 25.2198C53.6694 25.3581 53.4432 25.4475 53.2057 25.4804C52.9681 25.5133 52.7261 25.4887 52.5 25.4088C50.4188 24.6738 48.6688 23.4388 47.44 21.8388C46.1636 20.1616 45.4811 18.1076 45.5 16C45.4999 13.234 46.5912 10.5796 48.5368 8.61358C50.4825 6.64754 53.1254 5.52866 55.8913 5.50001H56C58.766 5.51127 61.4168 6.609 63.3809 8.55654C65.3451 10.5041 66.4653 13.1455 66.5 15.9113C66.5068 16.7278 66.4191 17.5424 66.2388 18.3388V18.3338ZM58 9.50001C58 9.89558 57.8827 10.2823 57.6629 10.6112C57.4432 10.9401 57.1308 11.1964 56.7654 11.3478C56.3999 11.4991 55.9978 11.5388 55.6098 11.4616C55.2219 11.3844 54.8655 11.1939 54.5858 10.9142C54.3061 10.6345 54.1156 10.2782 54.0384 9.89019C53.9613 9.50223 54.0009 9.1001 54.1522 8.73465C54.3036 8.36919 54.56 8.05684 54.8889 7.83707C55.2178 7.61731 55.6044 7.50001 56 7.50001C56.5304 7.50001 57.0391 7.71073 57.4142 8.0858C57.7893 8.46087 58 8.96958 58 9.50001ZM52.5 12.5C52.5 12.8956 52.3827 13.2823 52.1629 13.6112C51.9432 13.9401 51.6308 14.1964 51.2654 14.3478C50.8999 14.4991 50.4978 14.5388 50.1098 14.4616C49.7219 14.3844 49.3655 14.1939 49.0858 13.9142C48.8061 13.6345 48.6156 13.2782 48.5384 12.8902C48.4613 12.5022 48.5009 12.1001 48.6522 11.7346C48.8036 11.3692 49.06 11.0568 49.3889 10.8371C49.7178 10.6173 50.1044 10.5 50.5 10.5C51.0304 10.5 51.5391 10.7107 51.9142 11.0858C52.2893 11.4609 52.5 11.9696 52.5 12.5ZM52.5 19.5C52.5 19.8956 52.3827 20.2823 52.1629 20.6112C51.9432 20.9401 51.6308 21.1964 51.2654 21.3478C50.8999 21.4991 50.4978 21.5388 50.1098 21.4616C49.7219 21.3844 49.3655 21.1939 49.0858 20.9142C48.8061 20.6345 48.6156 20.2782 48.5384 19.8902C48.4613 19.5022 48.5009 19.1001 48.6522 18.7346C48.8036 18.3692 49.06 18.0568 49.3889 17.8371C49.7178 17.6173 50.1044 17.5 50.5 17.5C51.0304 17.5 51.5391 17.7107 51.9142 18.0858C52.2893 18.4609 52.5 18.9696 52.5 19.5ZM63.5 12.5C63.5 12.8956 63.3827 13.2823 63.1629 13.6112C62.9432 13.9401 62.6308 14.1964 62.2654 14.3478C61.8999 14.4991 61.4978 14.5388 61.1098 14.4616C60.7219 14.3844 60.3655 14.1939 60.0858 13.9142C59.8061 13.6345 59.6156 13.2782 59.5384 12.8902C59.4613 12.5022 59.5009 12.1001 59.6522 11.7346C59.8036 11.3692 60.06 11.0568 60.3889 10.8371C60.7178 10.6173 61.1044 10.5 61.5 10.5C62.0304 10.5 62.5391 10.7107 62.9142 11.0858C63.2893 11.4609 63.5 11.9696 63.5 12.5Z" fill="white"/>
</g>
<defs>
<clipPath id="clip0_27_5408">
<rect width="72" height="32" rx="5" fill="white"/>
</clipPath>
</defs>
</svg>
