<svg width="72" height="32" viewBox="0 0 72 32" fill="none" xmlns="http://www.w3.org/2000/svg">
<g clip-path="url(#clip0_27_3891)">
<path d="M30.2188 6.41499C29.9764 6.22734 29.6938 6.09842 29.3932 6.03835C29.0926 5.97827 28.7821 5.98868 28.4862 6.06874L28.0513 6.18624C25.7013 6.81999 21.3263 7.99999 16 7.99999C10.6737 7.99999 6.29875 6.81999 3.94875 6.18624L3.51375 6.06874C3.21773 5.99006 2.90759 5.98042 2.60726 6.04057C2.30693 6.10072 2.02442 6.22904 1.78153 6.41565C1.53864 6.60226 1.34186 6.84216 1.20635 7.11685C1.07085 7.39155 1.00025 7.6937 1 7.99999V24C1 24.5304 1.21071 25.0391 1.58579 25.4142C1.96086 25.7893 2.46957 26 3 26C3.17642 25.9999 3.35207 25.9768 3.5225 25.9312L3.92 25.8237C6.26625 25.1862 10.6462 24 16 24C21.3538 24 25.7337 25.1862 28.0863 25.8237L28.4837 25.9312C28.7799 26.0104 29.0903 26.0204 29.391 25.9604C29.6917 25.9005 29.9745 25.7722 30.2177 25.5856C30.4609 25.3989 30.6579 25.1589 30.7936 24.8839C30.9292 24.609 30.9999 24.3066 31 24V7.99999C31.0008 7.69344 30.9307 7.39086 30.7952 7.11589C30.6597 6.84093 30.4624 6.60104 30.2188 6.41499ZM25.5 12C25.7967 12 26.0867 12.088 26.3334 12.2528C26.58 12.4176 26.7723 12.6519 26.8858 12.926C26.9993 13.2001 27.0291 13.5017 26.9712 13.7926C26.9133 14.0836 26.7704 14.3509 26.5607 14.5607C26.3509 14.7704 26.0836 14.9133 25.7926 14.9712C25.5017 15.029 25.2001 14.9993 24.926 14.8858C24.6519 14.7723 24.4176 14.58 24.2528 14.3333C24.088 14.0867 24 13.7967 24 13.5C24 13.1022 24.158 12.7206 24.4393 12.4393C24.7206 12.158 25.1022 12 25.5 12ZM16 22C10.375 22 5.66 23.2787 3.39125 23.8925L3 24V19.0875L8.7925 13.2937C8.88537 13.2008 8.99566 13.127 9.11706 13.0767C9.23846 13.0264 9.36858 13.0005 9.5 13.0005C9.63142 13.0005 9.76154 13.0264 9.88294 13.0767C10.0043 13.127 10.1146 13.2008 10.2075 13.2937L19.035 22.125C18.0613 22.0437 17.0462 22 16 22ZM28.6087 23.8925C26.5127 23.3025 24.3841 22.835 22.2337 22.4925L17.8263 18.085L19.625 16.2925C19.8125 16.1051 20.0668 15.9998 20.3319 15.9998C20.597 15.9998 20.8512 16.1051 21.0387 16.2925L28.65 23.9025L28.6087 23.8925Z" fill="white"/>
<path d="M70.5225 6.01875C70.2196 5.78418 69.8665 5.62305 69.4908 5.548C69.1152 5.47296 68.7272 5.48605 68.3575 5.58625L67.9212 5.70375C65.5925 6.33125 61.26 7.5 56 7.5C50.74 7.5 46.4075 6.33125 44.0788 5.70375L43.6425 5.58625C43.2725 5.48784 42.8848 5.47575 42.5094 5.55089C42.1339 5.62603 41.7808 5.7864 41.4771 6.01963C41.1735 6.25286 40.9275 6.55272 40.7581 6.89607C40.5886 7.23943 40.5003 7.61712 40.5 8V24C40.5 24.6617 40.7624 25.2965 41.2296 25.7651C41.6968 26.2337 42.3308 26.498 42.9925 26.5C43.2132 26.4996 43.433 26.4706 43.6463 26.4137L44.045 26.305C46.375 25.6737 50.7125 24.5 56 24.5C61.2875 24.5 65.625 25.675 67.955 26.3062L68.3538 26.415C68.7241 26.5141 69.1123 26.5267 69.4883 26.4518C69.8643 26.3769 70.2181 26.2166 70.5222 25.9831C70.8264 25.7497 71.0727 25.4494 71.2423 25.1055C71.4118 24.7617 71.5 24.3834 71.5 24V8C71.5012 7.61669 71.4135 7.23832 71.2439 6.89457C71.0743 6.55083 70.8274 6.25105 70.5225 6.01875ZM56 10.5C61.5 10.5 66.1425 9.28875 68.5 8.65375V22.135L62.0963 15.7325C61.6274 15.2638 60.9917 15.0005 60.3288 15.0005C59.6658 15.0005 59.0301 15.2638 58.5613 15.7325L56.4137 17.875L51.2675 12.7325C50.7987 12.2638 50.1629 12.0005 49.5 12.0005C48.8371 12.0005 48.2013 12.2638 47.7325 12.7325L43.5 16.9637V8.65375C45.8575 9.28875 50.5 10.5 56 10.5ZM58.535 20L60.3288 18.2062L64.5112 22.3887C63.25 22.1387 61.8212 21.8975 60.2687 21.7325L58.535 20ZM43.5 23.345V21.2062L49.5 15.2062L55.7937 21.5C50.39 21.53 45.8425 22.7125 43.5 23.345ZM63 13.5C63 13.1044 63.1173 12.7178 63.3371 12.3889C63.5568 12.06 63.8692 11.8036 64.2346 11.6522C64.6001 11.5009 65.0022 11.4613 65.3902 11.5384C65.7781 11.6156 66.1345 11.8061 66.4142 12.0858C66.6939 12.3655 66.8844 12.7219 66.9616 13.1098C67.0387 13.4978 66.9991 13.8999 66.8478 14.2654C66.6964 14.6308 66.44 14.9432 66.1111 15.1629C65.7822 15.3827 65.3956 15.5 65 15.5C64.4696 15.5 63.9609 15.2893 63.5858 14.9142C63.2107 14.5391 63 14.0304 63 13.5Z" fill="white"/>
</g>
<defs>
<clipPath id="clip0_27_3891">
<rect width="72" height="32" rx="5" fill="white"/>
</clipPath>
</defs>
</svg>
