<svg width="72" height="32" viewBox="0 0 72 32" fill="none" xmlns="http://www.w3.org/2000/svg">
<g clip-path="url(#clip0_27_615)">
<path d="M30.0001 15.9863C30.001 16.3426 29.9067 16.6927 29.7269 17.0004C29.5471 17.308 29.2884 17.5621 28.9776 17.7363L7.98757 29.7375C7.68636 29.9082 7.3463 29.9986 7.00007 30C6.68105 29.9983 6.36708 29.9203 6.08435 29.7725C5.80163 29.6247 5.55836 29.4115 5.37485 29.1505C5.19134 28.8896 5.07291 28.5885 5.02946 28.2725C4.98601 27.9564 5.01879 27.6346 5.12507 27.3338L8.50007 17.34C8.53305 17.2423 8.59544 17.1572 8.67868 17.0963C8.76193 17.0355 8.86196 17.0018 8.96507 17H18.0001C18.1372 17.0003 18.2728 16.9724 18.3987 16.9181C18.5245 16.8637 18.6379 16.7841 18.7317 16.6841C18.8254 16.5841 18.8977 16.4659 18.9438 16.3368C18.99 16.2077 19.0091 16.0705 19.0001 15.9338C18.9774 15.6766 18.8584 15.4375 18.667 15.2644C18.4755 15.0912 18.2257 14.9968 17.9676 15H8.96757C8.86296 15 8.76098 14.9672 8.67599 14.9062C8.59101 14.8452 8.52729 14.7591 8.49382 14.66L5.11882 4.66751C4.98448 4.2845 4.96986 3.86969 5.0769 3.47817C5.18393 3.08665 5.40756 2.73697 5.71806 2.47557C6.02856 2.21418 6.41125 2.05344 6.81528 2.01471C7.21931 1.97598 7.62556 2.0611 7.98007 2.25876L28.9801 14.245C29.2892 14.4188 29.5465 14.6716 29.7258 14.9776C29.905 15.2835 29.9997 15.6317 30.0001 15.9863Z" fill="white"/>
<path d="M69.2325 13.81L48.225 1.82249C47.7821 1.57438 47.2741 1.467 46.7687 1.51463C46.2632 1.56226 45.7843 1.76265 45.3955 2.08914C45.0067 2.41563 44.7265 2.85275 44.5923 3.34236C44.458 3.83196 44.4759 4.35085 44.6438 4.82999L48.4163 16L44.6438 27.17C44.5111 27.5468 44.4707 27.9499 44.526 28.3456C44.5812 28.7413 44.7304 29.1179 44.9612 29.444C45.1919 29.7701 45.4975 30.0362 45.8522 30.2199C46.2069 30.4036 46.6005 30.4997 47 30.5C47.4296 30.4991 47.8518 30.3881 48.2263 30.1775L48.2375 30.17L69.2375 18.1612C69.6225 17.9433 69.9429 17.627 70.1657 17.2448C70.3886 16.8626 70.506 16.4281 70.506 15.9856C70.506 15.5432 70.3886 15.1086 70.1657 14.7264C69.9429 14.3442 69.6225 14.0279 69.2375 13.81H69.2325ZM47.8988 26.9075L51.0763 17.5H58C58.3978 17.5 58.7794 17.342 59.0607 17.0607C59.342 16.7793 59.5 16.3978 59.5 16C59.5 15.6022 59.342 15.2206 59.0607 14.9393C58.7794 14.658 58.3978 14.5 58 14.5H51.0763L47.8975 5.08999L66.9925 15.9862L47.8988 26.9075Z" fill="white"/>
</g>
<defs>
<clipPath id="clip0_27_615">
<rect width="72" height="32" rx="5" fill="white"/>
</clipPath>
</defs>
</svg>
