<svg width="72" height="32" viewBox="0 0 72 32" fill="none" xmlns="http://www.w3.org/2000/svg">
<g clip-path="url(#clip0_27_7366)">
<path d="M16 3C13.4288 3 10.9154 3.76244 8.77759 5.1909C6.63975 6.61935 4.97351 8.64968 3.98957 11.0251C3.00563 13.4006 2.74819 16.0144 3.2498 18.5362C3.75141 21.0579 4.98953 23.3743 6.80762 25.1924C8.6257 27.0105 10.9421 28.2486 13.4638 28.7502C15.9856 29.2518 18.5995 28.9944 20.9749 28.0104C23.3503 27.0265 25.3807 25.3603 26.8091 23.2224C28.2376 21.0846 29 18.5712 29 16C28.9964 12.5533 27.6256 9.24882 25.1884 6.81163C22.7512 4.37445 19.4467 3.00364 16 3ZM21 21H9.00001C8.20436 21 7.44129 20.6839 6.87869 20.1213C6.31608 19.5587 6.00001 18.7956 6.00001 18C6.00001 17.2044 6.31608 16.4413 6.87869 15.8787C7.44129 15.3161 8.20436 15 9.00001 15H21C21.2652 15 21.5196 15.1054 21.7071 15.2929C21.8946 15.4804 22 15.7348 22 16C22 16.2652 21.8946 16.5196 21.7071 16.7071C21.5196 16.8946 21.2652 17 21 17H9.00001C8.73479 17 8.48044 17.1054 8.2929 17.2929C8.10536 17.4804 8.00001 17.7348 8.00001 18C8.00001 18.2652 8.10536 18.5196 8.2929 18.7071C8.48044 18.8946 8.73479 19 9.00001 19H21C21.7957 19 22.5587 18.6839 23.1213 18.1213C23.6839 17.5587 24 16.7956 24 16C24 15.2044 23.6839 14.4413 23.1213 13.8787C22.5587 13.3161 21.7957 13 21 13H12C11.7348 13 11.4804 12.8946 11.2929 12.7071C11.1054 12.5196 11 12.2652 11 12C11 11.7348 11.1054 11.4804 11.2929 11.2929C11.4804 11.1054 11.7348 11 12 11H21C22.3261 11 23.5979 11.5268 24.5355 12.4645C25.4732 13.4021 26 14.6739 26 16C26 17.3261 25.4732 18.5979 24.5355 19.5355C23.5979 20.4732 22.3261 21 21 21Z" fill="white"/>
<path d="M71.5 16C71.4977 17.9884 70.7068 19.8947 69.3007 21.3007C67.8947 22.7068 65.9884 23.4977 64 23.5H45.5C44.1739 23.5 42.9021 22.9732 41.9645 22.0355C41.0268 21.0979 40.5 19.8261 40.5 18.5C40.5 17.1739 41.0268 15.9021 41.9645 14.9645C42.9021 14.0268 44.1739 13.5 45.5 13.5H63C63.3978 13.5 63.7794 13.658 64.0607 13.9393C64.342 14.2206 64.5 14.6022 64.5 15C64.5 15.3978 64.342 15.7794 64.0607 16.0607C63.7794 16.342 63.3978 16.5 63 16.5H45.5C44.9696 16.5 44.4609 16.7107 44.0858 17.0858C43.7107 17.4609 43.5 17.9696 43.5 18.5C43.5 19.0304 43.7107 19.5391 44.0858 19.9142C44.4609 20.2893 44.9696 20.5 45.5 20.5H64C65.1935 20.5 66.3381 20.0259 67.182 19.182C68.0259 18.3381 68.5 17.1935 68.5 16C68.5 14.8065 68.0259 13.6619 67.182 12.818C66.3381 11.9741 65.1935 11.5 64 11.5H50C49.6022 11.5 49.2206 11.342 48.9393 11.0607C48.658 10.7794 48.5 10.3978 48.5 10C48.5 9.60218 48.658 9.22064 48.9393 8.93934C49.2206 8.65804 49.6022 8.5 50 8.5H64C65.9884 8.50232 67.8947 9.29324 69.3007 10.6993C70.7068 12.1053 71.4977 14.0116 71.5 16Z" fill="white"/>
</g>
<defs>
<clipPath id="clip0_27_7366">
<rect width="72" height="32" rx="5" fill="white"/>
</clipPath>
</defs>
</svg>
