<svg width="72" height="32" viewBox="0 0 72 32" fill="none" xmlns="http://www.w3.org/2000/svg">
<g clip-path="url(#clip0_27_620)">
<path d="M28.9249 5.54251C28.9249 5.54251 28.9249 5.55501 28.9249 5.56126L21.6499 29.5538C21.5398 29.9434 21.3131 30.2901 21.0003 30.5473C20.6875 30.8045 20.3035 30.9598 19.8999 30.9925C19.8424 30.9975 19.7849 31 19.7274 31C19.3491 31.0012 18.9784 30.8941 18.6591 30.6915C18.3397 30.4888 18.0849 30.199 17.9249 29.8563L13.3749 20.5188C13.3294 20.4252 13.3142 20.3197 13.3314 20.2171C13.3487 20.1145 13.3975 20.0198 13.4711 19.9463L20.7111 12.7063C20.8908 12.5172 20.9894 12.2654 20.9861 12.0047C20.9827 11.7439 20.8777 11.4948 20.6933 11.3104C20.5089 11.126 20.2597 11.0209 19.999 11.0176C19.7382 11.0142 19.4865 11.1129 19.2974 11.2925L12.0536 18.5325C11.9801 18.6061 11.8854 18.655 11.7828 18.6722C11.6802 18.6895 11.5747 18.6743 11.4811 18.6288L2.1349 14.08C1.76942 13.9047 1.46585 13.6224 1.26442 13.2706C1.06298 12.9189 0.973194 12.5142 1.00695 12.1103C1.0407 11.7063 1.1964 11.3221 1.45342 11.0087C1.71044 10.6952 2.05664 10.4673 2.44615 10.355L26.4386 3.08001H26.4574C26.799 2.98404 27.16 2.98067 27.5033 3.07026C27.8467 3.15985 28.16 3.33917 28.4111 3.58982C28.6623 3.84046 28.8422 4.15342 28.9325 4.49657C29.0228 4.83972 29.0202 5.20071 28.9249 5.54251Z" fill="white"/>
<path d="M68.7676 3.2325C68.4534 2.91823 68.0611 2.69337 67.6311 2.5811C67.2012 2.46883 66.749 2.4732 66.3213 2.59375L66.2938 2.6025L42.3051 9.875C41.8185 10.0161 41.3864 10.3017 41.0658 10.6939C40.7452 11.0861 40.5513 11.5665 40.5099 12.0714C40.4684 12.5762 40.5813 13.0818 40.8335 13.5211C41.0858 13.9604 41.4656 14.3126 41.9226 14.5313L52.3751 19.625L57.4638 30.0813C57.6645 30.508 57.9828 30.8686 58.3814 31.1206C58.78 31.3725 59.2422 31.5055 59.7138 31.5038C59.7851 31.5038 59.8576 31.5038 59.9301 31.495C60.4363 31.456 60.9183 31.2625 61.3109 30.9405C61.7035 30.6186 61.9877 30.1838 62.1251 29.695L69.3976 5.70625C69.4012 5.69734 69.4041 5.68814 69.4063 5.67875C69.5269 5.25103 69.5312 4.7989 69.419 4.36893C69.3067 3.93896 69.0818 3.54668 68.7676 3.2325ZM59.6138 27.6338L55.3176 18.8038L61.0676 13.06C61.2071 12.9205 61.3178 12.7548 61.3933 12.5725C61.4688 12.3902 61.5077 12.1948 61.5077 11.9975C61.5077 11.8002 61.4688 11.6048 61.3933 11.4225C61.3178 11.2402 61.2071 11.0745 61.0676 10.935C60.928 10.7955 60.7624 10.6848 60.5801 10.6093C60.3978 10.5338 60.2024 10.4949 60.0051 10.4949C59.8077 10.4949 59.6123 10.5338 59.43 10.6093C59.2477 10.6848 59.0821 10.7955 58.9426 10.935L53.1926 16.685L44.3663 12.3863L66.2501 5.75L59.6138 27.6338Z" fill="white"/>
</g>
<defs>
<clipPath id="clip0_27_620">
<rect width="72" height="32" rx="5" fill="white"/>
</clipPath>
</defs>
</svg>
