<svg width="72" height="32" viewBox="0 0 72 32" fill="none" xmlns="http://www.w3.org/2000/svg">
<g clip-path="url(#clip0_27_7371)">
<path d="M27 6C27 6.26522 26.8946 6.51957 26.7071 6.70711C26.5196 6.89464 26.2652 7 26 7H24V26C24 26.2652 23.8946 26.5196 23.7071 26.7071C23.5196 26.8946 23.2652 27 23 27C22.7348 27 22.4804 26.8946 22.2929 26.7071C22.1054 26.5196 22 26.2652 22 26V7H19V26C19 26.2652 18.8946 26.5196 18.7071 26.7071C18.5196 26.8946 18.2652 27 18 27C17.7348 27 17.4804 26.8946 17.2929 26.7071C17.1054 26.5196 17 26.2652 17 26V21H12C9.87827 21 7.84344 20.1571 6.34315 18.6569C4.84285 17.1566 4 15.1217 4 13C4 10.8783 4.84285 8.84344 6.34315 7.34315C7.84344 5.84285 9.87827 5 12 5H26C26.2652 5 26.5196 5.10536 26.7071 5.29289C26.8946 5.48043 27 5.73478 27 6Z" fill="white"/>
<path d="M66 4.5H52C49.7457 4.5 47.5837 5.39553 45.9896 6.98959C44.3955 8.58365 43.5 10.7457 43.5 13C43.5 15.2543 44.3955 17.4163 45.9896 19.0104C47.5837 20.6045 49.7457 21.5 52 21.5H56.5V26C56.5 26.3978 56.658 26.7794 56.9393 27.0607C57.2206 27.342 57.6022 27.5 58 27.5C58.3978 27.5 58.7794 27.342 59.0607 27.0607C59.342 26.7794 59.5 26.3978 59.5 26V7.5H61.5V26C61.5 26.3978 61.658 26.7794 61.9393 27.0607C62.2206 27.342 62.6022 27.5 63 27.5C63.3978 27.5 63.7794 27.342 64.0607 27.0607C64.342 26.7794 64.5 26.3978 64.5 26V7.5H66C66.3978 7.5 66.7794 7.34196 67.0607 7.06066C67.342 6.77936 67.5 6.39782 67.5 6C67.5 5.60218 67.342 5.22064 67.0607 4.93934C66.7794 4.65804 66.3978 4.5 66 4.5ZM56.5 18.5H52C50.5413 18.5 49.1424 17.9205 48.1109 16.8891C47.0795 15.8576 46.5 14.4587 46.5 13C46.5 11.5413 47.0795 10.1424 48.1109 9.11091C49.1424 8.07946 50.5413 7.5 52 7.5H56.5V18.5Z" fill="white"/>
</g>
<defs>
<clipPath id="clip0_27_7371">
<rect width="72" height="32" rx="5" fill="white"/>
</clipPath>
</defs>
</svg>
