<svg width="72" height="32" viewBox="0 0 72 32" fill="none" xmlns="http://www.w3.org/2000/svg">
<g clip-path="url(#clip0_27_4800)">
<path d="M29 15C28.996 11.5534 27.6251 8.24911 25.188 5.812C22.7509 3.37488 19.4466 2.00397 16 2C12.5534 2.00397 9.24911 3.37488 6.812 5.812C4.37488 8.24911 3.00397 11.5534 3 15C3.00034 15.1551 3.03677 15.3081 3.10641 15.4467C3.17605 15.5853 3.27699 15.7059 3.40125 15.7987L15 24.5V27H14C13.7348 27 13.4804 27.1054 13.2929 27.2929C13.1054 27.4804 13 27.7348 13 28C13 28.2652 13.1054 28.5196 13.2929 28.7071C13.4804 28.8946 13.7348 29 14 29H18C18.2652 29 18.5196 28.8946 18.7071 28.7071C18.8946 28.5196 19 28.2652 19 28C19 27.7348 18.8946 27.4804 18.7071 27.2929C18.5196 27.1054 18.2652 27 18 27H17V24.5L28.6 15.8C28.7242 15.7069 28.825 15.5861 28.8944 15.4472C28.9639 15.3084 29 15.1552 29 15ZM26.955 14H21.9788C21.7863 9.25625 20.24 6.19625 18.84 4.375C21.0133 4.95932 22.9558 6.19474 24.4064 7.91532C25.857 9.63589 26.7464 11.7592 26.955 14ZM19.3 16L16 21.9412L12.7 16H19.3ZM10.4113 16L12.8488 20.3862L7 16H10.4113ZM21.5888 16H25L19.1513 20.3862L21.5888 16ZM13.16 4.375C11.76 6.19625 10.2137 9.25625 10.0212 14H5.045C5.2536 11.7592 6.14295 9.63589 7.5936 7.91532C9.04424 6.19474 10.9867 4.95932 13.16 4.375Z" fill="white"/>
<path d="M69.5 15C69.496 11.4208 68.0724 7.98932 65.5416 5.45844C63.0107 2.92756 59.5792 1.50397 56 1.5C52.4208 1.50397 48.9893 2.92756 46.4584 5.45844C43.9276 7.98932 42.504 11.4208 42.5 15C42.5003 15.2064 42.5432 15.4105 42.626 15.5996C42.7088 15.7886 42.8298 15.9586 42.9813 16.0987L43.0087 16.1238C43.03 16.1425 43.0525 16.1625 43.0763 16.18L43.1 16.2L54.5 24.75V26.5H54C53.6022 26.5 53.2206 26.658 52.9393 26.9393C52.658 27.2206 52.5 27.6022 52.5 28C52.5 28.3978 52.658 28.7794 52.9393 29.0607C53.2206 29.342 53.6022 29.5 54 29.5H58C58.3978 29.5 58.7794 29.342 59.0607 29.0607C59.342 28.7794 59.5 28.3978 59.5 28C59.5 27.6022 59.342 27.2206 59.0607 26.9393C58.7794 26.658 58.3978 26.5 58 26.5H57.5V24.75L68.9 16.2C69.0863 16.0603 69.2375 15.8791 69.3416 15.6708C69.4458 15.4625 69.5 15.2329 69.5 15ZM66.3937 13.5H62.4538C62.23 9.84125 61.2038 7.18375 60.0875 5.33C61.7513 6.03633 63.2053 7.15891 64.3098 8.58975C65.4142 10.0206 66.1319 11.7116 66.3937 13.5ZM52.5525 13.5C52.8938 8.595 54.875 6.01375 56 4.9225C57.125 6.01375 59.1063 8.595 59.4475 13.5H52.5525ZM51.9125 5.33C50.7875 7.18375 49.77 9.84125 49.5463 13.5H45.6062C45.8681 11.7116 46.5858 10.0206 47.6902 8.58975C48.7947 7.15891 50.2487 6.03633 51.9125 5.33ZM48.5 16.5H54.5V21L48.5 16.5ZM57.5 16.5H63.5L57.5 21V16.5Z" fill="white"/>
</g>
<defs>
<clipPath id="clip0_27_4800">
<rect width="72" height="32" rx="5" fill="white"/>
</clipPath>
</defs>
</svg>
