<svg width="72" height="32" viewBox="0 0 72 32" fill="none" xmlns="http://www.w3.org/2000/svg">
<g clip-path="url(#clip0_27_6755)">
<path d="M29 24H25V21H28C28.152 21 28.3019 20.9653 28.4385 20.8987C28.575 20.832 28.6946 20.7351 28.7881 20.6154C28.8816 20.4956 28.9466 20.3561 28.9781 20.2074C29.0096 20.0588 29.0068 19.9049 28.97 19.7575L24.97 3.75751C24.9158 3.54128 24.7909 3.34936 24.6152 3.21222C24.4394 3.07509 24.2229 3.00061 24 3.00061C23.7771 3.00061 23.5606 3.07509 23.3848 3.21222C23.2091 3.34936 23.0842 3.54128 23.03 3.75751L19.03 19.7575C18.9932 19.9049 18.9904 20.0588 19.0219 20.2074C19.0534 20.3561 19.1184 20.4956 19.2119 20.6154C19.3054 20.7351 19.425 20.832 19.5615 20.8987C19.6981 20.9653 19.848 21 20 21H23V24H15V22H16C16.2652 22 16.5196 21.8946 16.7071 21.7071C16.8946 21.5196 17 21.2652 17 21C17 20.7348 16.8946 20.4804 16.7071 20.2929C16.5196 20.1054 16.2652 20 16 20H15V18H16C16.2652 18 16.5196 17.8946 16.7071 17.7071C16.8946 17.5196 17 17.2652 17 17C17 16.7348 16.8946 16.4804 16.7071 16.2929C16.5196 16.1054 16.2652 16 16 16H5C4.73478 16 4.48043 16.1054 4.29289 16.2929C4.10536 16.4804 4 16.7348 4 17C4 17.2652 4.10536 17.5196 4.29289 17.7071C4.48043 17.8946 4.73478 18 5 18H6V20H5C4.73478 20 4.48043 20.1054 4.29289 20.2929C4.10536 20.4804 4 20.7348 4 21C4 21.2652 4.10536 21.5196 4.29289 21.7071C4.48043 21.8946 4.73478 22 5 22H6V24H3C2.73478 24 2.48043 24.1054 2.29289 24.2929C2.10536 24.4804 2 24.7348 2 25C2 25.2652 2.10536 25.5196 2.29289 25.7071C2.48043 25.8946 2.73478 26 3 26H29C29.2652 26 29.5196 25.8946 29.7071 25.7071C29.8946 25.5196 30 25.2652 30 25C30 24.7348 29.8946 24.4804 29.7071 24.2929C29.5196 24.1054 29.2652 24 29 24ZM13 24H8V22H13V24ZM13 20H8V18H13V20ZM14.5 12C15.1922 12 15.8689 11.7947 16.4445 11.4101C17.0201 11.0256 17.4687 10.4789 17.7336 9.8394C17.9985 9.19986 18.0678 8.49612 17.9327 7.81719C17.7977 7.13826 17.4644 6.51462 16.9749 6.02513C16.4854 5.53565 15.8617 5.20231 15.1828 5.06726C14.5039 4.93221 13.8001 5.00152 13.1606 5.26643C12.5211 5.53133 11.9744 5.97994 11.5899 6.55551C11.2053 7.13108 11 7.80777 11 8.50001C11 9.42826 11.3687 10.3185 12.0251 10.9749C12.6815 11.6313 13.5717 12 14.5 12ZM14.5 7.00001C14.7967 7.00001 15.0867 7.08798 15.3334 7.2528C15.58 7.41762 15.7723 7.65189 15.8858 7.92598C15.9994 8.20007 16.0291 8.50167 15.9712 8.79264C15.9133 9.08361 15.7704 9.35089 15.5607 9.56067C15.3509 9.77044 15.0836 9.91331 14.7926 9.97118C14.5017 10.0291 14.2001 9.99936 13.926 9.88583C13.6519 9.77229 13.4176 9.58003 13.2528 9.33336C13.088 9.08669 13 8.79668 13 8.50001C13 8.10218 13.158 7.72065 13.4393 7.43935C13.7206 7.15804 14.1022 7.00001 14.5 7.00001Z" fill="white"/>
<path d="M69 23.5H65.5V21.5H68C68.2279 21.5 68.4529 21.448 68.6577 21.348C68.8625 21.2481 69.0419 21.1027 69.1821 20.9231C69.3224 20.7434 69.4199 20.5341 69.4671 20.3112C69.5144 20.0882 69.5103 19.8574 69.455 19.6363L65.455 3.63626C65.3737 3.31192 65.1864 3.02404 64.9228 2.81834C64.6592 2.61264 64.3344 2.50092 64 2.50092C63.6656 2.50092 63.3408 2.61264 63.0772 2.81834C62.8136 3.02404 62.6263 3.31192 62.545 3.63626L58.545 19.6363C58.4897 19.8574 58.4856 20.0882 58.5329 20.3112C58.5801 20.5341 58.6776 20.7434 58.8179 20.9231C58.9581 21.1027 59.1375 21.2481 59.3423 21.348C59.5471 21.448 59.7721 21.5 60 21.5H62.5V23.5H54.5V22C54.8978 22 55.2794 21.842 55.5607 21.5607C55.842 21.2794 56 20.8978 56 20.5C56 20.1022 55.842 19.7207 55.5607 19.4393C55.2794 19.158 54.8978 19 54.5 19V17.5C54.8978 17.5 55.2794 17.342 55.5607 17.0607C55.842 16.7794 56 16.3978 56 16C56 15.6022 55.842 15.2207 55.5607 14.9393C55.2794 14.658 54.8978 14.5 54.5 14.5H44C43.6022 14.5 43.2206 14.658 42.9393 14.9393C42.658 15.2207 42.5 15.6022 42.5 16C42.5 16.3978 42.658 16.7794 42.9393 17.0607C43.2206 17.342 43.6022 17.5 44 17.5V19C43.6022 19 43.2206 19.158 42.9393 19.4393C42.658 19.7207 42.5 20.1022 42.5 20.5C42.5 20.8978 42.658 21.2794 42.9393 21.5607C43.2206 21.842 43.6022 22 44 22V23.5H43C42.6022 23.5 42.2206 23.658 41.9393 23.9393C41.658 24.2207 41.5 24.6022 41.5 25C41.5 25.3978 41.658 25.7794 41.9393 26.0607C42.2206 26.342 42.6022 26.5 43 26.5H69C69.3978 26.5 69.7794 26.342 70.0607 26.0607C70.342 25.7794 70.5 25.3978 70.5 25C70.5 24.6022 70.342 24.2207 70.0607 23.9393C69.7794 23.658 69.3978 23.5 69 23.5ZM64 10.185L66.0788 18.5H61.9212L64 10.185ZM47 17.5H51.5V19H47V17.5ZM47 22H51.5V23.5H47V22ZM54.5 12.5C55.2911 12.5 56.0645 12.2654 56.7223 11.8259C57.3801 11.3864 57.8928 10.7616 58.1955 10.0307C58.4983 9.29984 58.5775 8.49557 58.4231 7.71965C58.2688 6.94372 57.8878 6.23099 57.3284 5.67158C56.769 5.11217 56.0563 4.73121 55.2804 4.57687C54.5044 4.42253 53.7002 4.50174 52.9693 4.80449C52.2384 5.10724 51.6136 5.61993 51.1741 6.27773C50.7346 6.93552 50.5 7.70888 50.5 8.50001C50.5 9.56087 50.9214 10.5783 51.6716 11.3284C52.4217 12.0786 53.4391 12.5 54.5 12.5ZM54.5 7.50001C54.6978 7.50001 54.8911 7.55866 55.0556 7.66854C55.22 7.77842 55.3482 7.9346 55.4239 8.11732C55.4996 8.30005 55.5194 8.50112 55.4808 8.6951C55.4422 8.88908 55.347 9.06726 55.2071 9.20711C55.0673 9.34697 54.8891 9.44221 54.6951 9.48079C54.5011 9.51938 54.3 9.49958 54.1173 9.42389C53.9346 9.3482 53.7784 9.22003 53.6685 9.05558C53.5586 8.89113 53.5 8.69779 53.5 8.50001C53.5 8.23479 53.6054 7.98044 53.7929 7.7929C53.9804 7.60537 54.2348 7.50001 54.5 7.50001Z" fill="white"/>
</g>
<defs>
<clipPath id="clip0_27_6755">
<rect width="72" height="32" rx="5" fill="white"/>
</clipPath>
</defs>
</svg>
