<svg width="72" height="32" viewBox="0 0 72 32" fill="none" xmlns="http://www.w3.org/2000/svg">
<g clip-path="url(#clip0_27_259)">
<path d="M29 11.6463C29 16.7713 25.2888 18.205 22.3063 19.355C21.255 19.76 20.2625 20.1425 19.53 20.64C18.1063 21.605 17.2063 23.3625 16.3363 25.0625C15.0938 27.49 13.8075 30 10.94 30C9.32625 30 7.86375 28.545 6.70875 25.7925C5.55375 23.04 4.92 19.4175 5.0075 16.1113C5.1425 11.03 6.83 8.27625 8.22 6.86125C10.0888 4.96125 12.625 3.69875 15.555 3.21125C18.2788 2.75875 21.0725 3.03875 23.4213 3.99875C26.9663 5.45 29 8.2375 29 11.6463Z" fill="white"/>
<path d="M63.61 3.53626C61.1762 2.53626 58.2862 2.25001 55.4712 2.71876C52.4362 3.21876 49.805 4.53501 47.8612 6.51126C43.1837 11.2688 44.1312 20.945 46.25 25.985C47.1087 28.045 48.625 30.5 50.9387 30.5C54.1112 30.5 55.5287 27.7325 56.78 25.29C57.6212 23.6475 58.4912 21.9475 59.8087 21.0538C60.495 20.5888 61.4612 20.2163 62.485 19.8213C65.4462 18.68 69.5 17.1163 69.5 11.6463C69.5 8.02376 67.3525 5.06751 63.61 3.53626ZM61.405 17.0225C60.27 17.46 59.095 17.9138 58.125 18.5713C56.1712 19.8963 55.0762 22.035 54.1087 23.9225C52.9737 26.1413 52.2125 27.5 50.9387 27.5C50.7787 27.5 49.9387 27.0238 49.0125 24.825C47.185 20.4688 46.4862 12.1888 50 8.61376C51.4737 7.11376 53.5912 6.07126 55.9612 5.67751C56.6637 5.56171 57.3744 5.5036 58.0862 5.50376C59.5861 5.49099 61.0746 5.76551 62.4712 6.31251C63.9712 6.92751 66.4975 8.43751 66.4975 11.6463C66.5 14.8925 64.5637 15.8038 61.405 17.0225Z" fill="white"/>
</g>
<defs>
<clipPath id="clip0_27_259">
<rect width="72" height="32" rx="5" fill="white"/>
</clipPath>
</defs>
</svg>
