<svg width="72" height="32" viewBox="0 0 72 32" fill="none" xmlns="http://www.w3.org/2000/svg">
<g clip-path="url(#clip0_27_3901)">
<path d="M16 3C13.4288 3 10.9154 3.76244 8.77759 5.1909C6.63975 6.61935 4.97351 8.64968 3.98957 11.0251C3.00563 13.4006 2.74819 16.0144 3.2498 18.5362C3.75141 21.0579 4.98953 23.3743 6.80762 25.1924C8.6257 27.0105 10.9421 28.2486 13.4638 28.7502C15.9856 29.2518 18.5995 28.9944 20.9749 28.0104C23.3503 27.0265 25.3807 25.3603 26.8091 23.2224C28.2376 21.0846 29 18.5712 29 16C28.9957 12.5535 27.6247 9.2494 25.1876 6.81236C22.7506 4.37532 19.4465 3.0043 16 3ZM14 20C14 20.2652 13.8946 20.5196 13.7071 20.7071C13.5196 20.8946 13.2652 21 13 21C12.7348 21 12.4804 20.8946 12.2929 20.7071C12.1054 20.5196 12 20.2652 12 20V12C12 11.7348 12.1054 11.4804 12.2929 11.2929C12.4804 11.1054 12.7348 11 13 11C13.2652 11 13.5196 11.1054 13.7071 11.2929C13.8946 11.4804 14 11.7348 14 12V20ZM20 20C20 20.2652 19.8946 20.5196 19.7071 20.7071C19.5196 20.8946 19.2652 21 19 21C18.7348 21 18.4804 20.8946 18.2929 20.7071C18.1054 20.5196 18 20.2652 18 20V12C18 11.7348 18.1054 11.4804 18.2929 11.2929C18.4804 11.1054 18.7348 11 19 11C19.2652 11 19.5196 11.1054 19.7071 11.2929C19.8946 11.4804 20 11.7348 20 12V20Z" fill="white"/>
<path d="M56 2.5C53.33 2.5 50.7199 3.29176 48.4998 4.77516C46.2797 6.25856 44.5494 8.36697 43.5276 10.8338C42.5058 13.3006 42.2385 16.015 42.7594 18.6337C43.2803 21.2525 44.5661 23.6579 46.4541 25.5459C48.3421 27.434 50.7475 28.7197 53.3663 29.2406C55.985 29.7615 58.6994 29.4942 61.1662 28.4724C63.633 27.4506 65.7414 25.7203 67.2248 23.5002C68.7082 21.2801 69.5 18.67 69.5 16C69.496 12.4208 68.0724 8.98932 65.5416 6.45844C63.0107 3.92756 59.5792 2.50397 56 2.5ZM56 26.5C53.9233 26.5 51.8932 25.8842 50.1665 24.7304C48.4398 23.5767 47.094 21.9368 46.2993 20.0182C45.5046 18.0996 45.2966 15.9884 45.7018 13.9516C46.1069 11.9148 47.1069 10.0438 48.5754 8.57538C50.0438 7.10693 51.9148 6.1069 53.9516 5.70175C55.9884 5.29661 58.0996 5.50454 60.0182 6.29926C61.9368 7.09399 63.5767 8.4398 64.7304 10.1665C65.8842 11.8932 66.5 13.9233 66.5 16C66.497 18.7839 65.3898 21.4528 63.4213 23.4213C61.4529 25.3898 58.7839 26.497 56 26.5ZM54.5 12V20C54.5 20.3978 54.342 20.7794 54.0607 21.0607C53.7794 21.342 53.3978 21.5 53 21.5C52.6022 21.5 52.2206 21.342 51.9393 21.0607C51.658 20.7794 51.5 20.3978 51.5 20V12C51.5 11.6022 51.658 11.2206 51.9393 10.9393C52.2206 10.658 52.6022 10.5 53 10.5C53.3978 10.5 53.7794 10.658 54.0607 10.9393C54.342 11.2206 54.5 11.6022 54.5 12ZM60.5 12V20C60.5 20.3978 60.342 20.7794 60.0607 21.0607C59.7794 21.342 59.3978 21.5 59 21.5C58.6022 21.5 58.2207 21.342 57.9393 21.0607C57.658 20.7794 57.5 20.3978 57.5 20V12C57.5 11.6022 57.658 11.2206 57.9393 10.9393C58.2207 10.658 58.6022 10.5 59 10.5C59.3978 10.5 59.7794 10.658 60.0607 10.9393C60.342 11.2206 60.5 11.6022 60.5 12Z" fill="white"/>
</g>
<defs>
<clipPath id="clip0_27_3901">
<rect width="72" height="32" rx="5" fill="white"/>
</clipPath>
</defs>
</svg>
