<svg width="72" height="32" viewBox="0 0 72 32" fill="none" xmlns="http://www.w3.org/2000/svg">
<g clip-path="url(#clip0_27_3896)">
<path d="M27 6V26C27 26.5304 26.7893 27.0391 26.4142 27.4142C26.0391 27.7893 25.5304 28 25 28H20C19.4696 28 18.9609 27.7893 18.5858 27.4142C18.2107 27.0391 18 26.5304 18 26V6C18 5.46957 18.2107 4.96086 18.5858 4.58579C18.9609 4.21071 19.4696 4 20 4H25C25.5304 4 26.0391 4.21071 26.4142 4.58579C26.7893 4.96086 27 5.46957 27 6ZM12 4H7C6.46957 4 5.96086 4.21071 5.58579 4.58579C5.21071 4.96086 5 5.46957 5 6V26C5 26.5304 5.21071 27.0391 5.58579 27.4142C5.96086 27.7893 6.46957 28 7 28H12C12.5304 28 13.0391 27.7893 13.4142 27.4142C13.7893 27.0391 14 26.5304 14 26V6C14 5.46957 13.7893 4.96086 13.4142 4.58579C13.0391 4.21071 12.5304 4 12 4Z" fill="white"/>
<path d="M65 3.5H60C59.337 3.5 58.7011 3.76339 58.2322 4.23223C57.7634 4.70107 57.5 5.33696 57.5 6V26C57.5 26.663 57.7634 27.2989 58.2322 27.7678C58.7011 28.2366 59.337 28.5 60 28.5H65C65.663 28.5 66.2989 28.2366 66.7678 27.7678C67.2366 27.2989 67.5 26.663 67.5 26V6C67.5 5.33696 67.2366 4.70107 66.7678 4.23223C66.2989 3.76339 65.663 3.5 65 3.5ZM64.5 25.5H60.5V6.5H64.5V25.5ZM52 3.5H47C46.337 3.5 45.7011 3.76339 45.2322 4.23223C44.7634 4.70107 44.5 5.33696 44.5 6V26C44.5 26.663 44.7634 27.2989 45.2322 27.7678C45.7011 28.2366 46.337 28.5 47 28.5H52C52.663 28.5 53.2989 28.2366 53.7678 27.7678C54.2366 27.2989 54.5 26.663 54.5 26V6C54.5 5.33696 54.2366 4.70107 53.7678 4.23223C53.2989 3.76339 52.663 3.5 52 3.5ZM51.5 25.5H47.5V6.5H51.5V25.5Z" fill="white"/>
</g>
<defs>
<clipPath id="clip0_27_3896">
<rect width="72" height="32" rx="5" fill="white"/>
</clipPath>
</defs>
</svg>
