<svg width="72" height="32" viewBox="0 0 72 32" fill="none" xmlns="http://www.w3.org/2000/svg">
<g clip-path="url(#clip0_27_5418)">
<path d="M28.415 9.17125L22.8288 3.58625C22.643 3.40049 22.4225 3.25313 22.1799 3.15259C21.9372 3.05205 21.6771 3.00031 21.4144 3.00031C21.1517 3.00031 20.8916 3.05205 20.6489 3.15259C20.4062 3.25313 20.1857 3.40049 20 3.58625L4.58626 19C4.39973 19.185 4.25185 19.4053 4.15121 19.648C4.05057 19.8907 3.99917 20.151 4.00001 20.4138V26C4.00001 26.5304 4.21072 27.0391 4.5858 27.4142C4.96087 27.7893 5.46958 28 6.00001 28H11.5863C11.849 28.0008 12.1093 27.9494 12.352 27.8488C12.5947 27.7482 12.815 27.6003 13 27.4138L23.4588 16.9563L23.8938 18.6938L19.2938 23.2925C19.1061 23.48 19.0006 23.7343 19.0005 23.9996C19.0004 24.2648 19.1057 24.5192 19.2931 24.7069C19.4806 24.8945 19.7349 25 20.0002 25.0001C20.2654 25.0002 20.5199 24.895 20.7075 24.7075L25.7075 19.7075C25.8298 19.5854 25.9184 19.4338 25.9646 19.2673C26.0108 19.1008 26.0131 18.9251 25.9713 18.7575L25.1088 15.3063L28.415 12C28.6008 11.8143 28.7481 11.5938 28.8487 11.3511C28.9492 11.1084 29.001 10.8483 29.001 10.5856C29.001 10.3229 28.9492 10.0628 28.8487 9.82016C28.7481 9.57747 28.6008 9.35698 28.415 9.17125ZM24 13.5863L18.415 8L21.415 5L27 10.5863L24 13.5863Z" fill="white"/>
<path d="M68.7688 8.81748L63.1825 3.23249C62.7137 2.76381 62.0779 2.50052 61.415 2.50052C60.7521 2.50052 60.1163 2.76381 59.6475 3.23249L44.2325 18.6462C43.9996 18.8777 43.8149 19.1532 43.6891 19.4566C43.5634 19.76 43.4991 20.0853 43.5 20.4137V26C43.5 26.663 43.7634 27.2989 44.2322 27.7678C44.7011 28.2366 45.337 28.5 46 28.5H51.5863C51.9147 28.5009 52.24 28.4367 52.5435 28.3109C52.8469 28.1852 53.1223 28.0005 53.3538 27.7675L63.2863 17.8362L63.8063 19.5725L59.44 23.9387C59.1582 24.2205 58.9999 24.6027 58.9999 25.0012C58.9999 25.3997 59.1582 25.7819 59.44 26.0637C59.7218 26.3455 60.104 26.5038 60.5025 26.5038C60.901 26.5038 61.2832 26.3455 61.565 26.0637L66.565 21.0637C66.7565 20.872 66.8925 20.632 66.9585 20.3692C67.0245 20.1065 67.0181 19.8307 66.94 19.5712L65.6975 15.43L68.7713 12.3562C69.0037 12.1239 69.1881 11.8479 69.3138 11.5442C69.4395 11.2405 69.5041 10.915 69.5039 10.5863C69.5036 10.2577 69.4386 9.93224 69.3124 9.62872C69.1863 9.32519 69.0016 9.04953 68.7688 8.81748ZM48.125 19L57 10.125L61.875 15L53 23.875L48.125 19ZM46.5 21.625L50.375 25.5H46.5V21.625ZM64 12.875L59.125 7.99998L61.4175 5.70748L66.2925 10.5825L64 12.875Z" fill="white"/>
</g>
<defs>
<clipPath id="clip0_27_5418">
<rect width="72" height="32" rx="5" fill="white"/>
</clipPath>
</defs>
</svg>
