<svg width="72" height="32" viewBox="0 0 72 32" fill="none" xmlns="http://www.w3.org/2000/svg">
<g clip-path="url(#clip0_27_5438)">
<path d="M25.1927 6.80747C22.7547 4.36947 19.448 2.99982 16.0002 2.99982C12.5523 2.99982 9.24566 4.36947 6.80766 6.80748C4.36966 9.24548 3 12.5521 3 16C3 19.4478 4.36966 22.7545 6.80766 25.1925C9.24566 27.6305 12.5523 29.0001 16.0002 29.0001C19.448 29.0001 22.7547 27.6305 25.1927 25.1925C27.6307 22.7545 29.0003 19.4478 29.0003 16C29.0003 12.5521 27.6307 9.24548 25.1927 6.80747ZM16.0002 21.3587C15.5083 20.7982 14.8692 20.3866 14.1554 20.1708C13.4415 19.9549 12.6815 19.9434 11.9614 20.1375L13.8752 16H18.1252L20.0339 20.1375C19.3146 19.9444 18.5555 19.9564 17.8427 20.1723C17.1298 20.3881 16.4916 20.7991 16.0002 21.3587ZM21.0002 25.7962C19.7523 26.4315 18.3947 26.8226 17.0002 26.9487V24C17.0002 23.4695 17.2109 22.9608 17.5859 22.5858C17.961 22.2107 18.4697 22 19.0002 22C19.5306 22 20.0393 22.2107 20.4144 22.5858C20.7894 22.9608 21.0002 23.4695 21.0002 24V25.7962ZM23.7777 23.7787C23.5277 24.0287 23.2677 24.2625 23.0002 24.4837V22C23.0003 21.8553 22.9688 21.7124 22.9077 21.5812L16.9077 8.58123C16.8275 8.40804 16.6995 8.26141 16.5387 8.15865C16.3778 8.05588 16.191 8.00128 16.0002 8.00128C15.8093 8.00128 15.6225 8.05588 15.4617 8.15865C15.3009 8.26141 15.1728 8.40804 15.0927 8.58123L9.09266 21.5812C9.03156 21.7124 8.99999 21.8553 9.00016 22V24.4837C8.73266 24.2625 8.47266 24.0287 8.22266 23.7787C6.68409 22.2404 5.63625 20.2804 5.21166 18.1466C4.78707 16.0127 5.00479 13.8009 5.8373 11.7908C6.66981 9.7807 8.07971 8.06262 9.88869 6.85384C11.6977 5.64506 13.8245 4.99988 16.0002 4.99988C18.1758 4.99988 20.3026 5.64506 22.1116 6.85384C23.9206 8.06262 25.3305 9.7807 26.163 11.7908C26.9955 13.8009 27.2132 16.0127 26.7887 18.1466C26.3641 20.2804 25.3162 22.2404 23.7777 23.7787Z" fill="white"/>
<path d="M65.5467 6.44999C63.3372 4.23897 60.4294 2.86253 57.3187 2.55522C54.208 2.24791 51.0871 3.02875 48.4876 4.76467C45.8882 6.5006 43.9711 9.0842 43.0631 12.0752C42.155 15.0662 42.3123 18.2795 43.5079 21.1676C44.7036 24.0557 46.8638 26.4398 49.6203 27.9136C52.3768 29.3875 55.5591 29.8599 58.6249 29.2504C61.6906 28.6409 64.4502 26.9872 66.4334 24.571C68.4165 22.1549 69.5004 19.1258 69.5005 16C69.5004 12.4185 68.0783 8.98348 65.5467 6.44999ZM51.5005 25C51.5005 24.6022 51.6585 24.2206 51.9398 23.9393C52.2211 23.658 52.6026 23.5 53.0005 23.5C53.3983 23.5 53.7798 23.658 54.0611 23.9393C54.3424 24.2206 54.5005 24.6022 54.5005 25V26.3887C53.4609 26.24 52.4496 25.9358 51.5005 25.4862V25ZM57.5005 25C57.5005 24.6022 57.6585 24.2206 57.9398 23.9393C58.2211 23.658 58.6026 23.5 59.0005 23.5C59.3983 23.5 59.7798 23.658 60.0611 23.9393C60.3424 24.2206 60.5005 24.6022 60.5005 25V25.4862C59.5514 25.9358 58.5401 26.24 57.5005 26.3887V25ZM53.268 18.5H58.733L59.6792 20.5525C59.0229 20.4527 58.3525 20.4996 57.7164 20.6898C57.0804 20.88 56.4943 21.2088 56.0005 21.6525C55.5065 21.209 54.9204 20.8804 54.2843 20.6905C53.6483 20.5005 52.978 20.4538 52.3217 20.5537L53.268 18.5ZM54.653 15.5L56.0005 12.5775L57.348 15.5H54.653ZM63.5005 23.3487V22C63.4995 21.7843 63.4527 21.5712 63.363 21.375L57.363 8.37499C57.243 8.11452 57.0509 7.89388 56.8095 7.73922C56.568 7.58456 56.2872 7.50236 56.0005 7.50236C55.7137 7.50236 55.433 7.58456 55.1915 7.73922C54.95 7.89388 54.7579 8.11452 54.638 8.37499L48.638 21.375C48.5483 21.5712 48.5014 21.7843 48.5005 22V23.3462C47.0535 21.8694 46.0747 19.9982 45.6869 17.9673C45.299 15.9365 45.5194 13.8363 46.3204 11.9302C47.1213 10.024 48.4672 8.39678 50.1893 7.25249C51.9113 6.10819 53.9329 5.49777 56.0005 5.49777C58.0681 5.49777 60.0896 6.10819 61.8117 7.25249C63.5337 8.39678 64.8796 10.024 65.6806 11.9302C66.4815 13.8363 66.7019 15.9365 66.3141 17.9673C65.9263 19.9982 64.9475 21.8694 63.5005 23.3462V23.3487Z" fill="white"/>
</g>
<defs>
<clipPath id="clip0_27_5438">
<rect width="72" height="32" rx="5" fill="white"/>
</clipPath>
</defs>
</svg>
