<svg width="72" height="32" viewBox="0 0 72 32" fill="none" xmlns="http://www.w3.org/2000/svg">
<g clip-path="url(#clip0_27_5448)">
<path d="M28 5.99999V26C28 26.5304 27.7893 27.0391 27.4142 27.4142C27.0391 27.7893 26.5304 28 26 28H20C19.4696 28 18.9609 27.7893 18.5858 27.4142C18.2107 27.0391 18 26.5304 18 26V22.5C18 22.3674 18.0527 22.2402 18.1464 22.1464C18.2402 22.0527 18.3674 22 18.5 22H23C23.1371 22.0003 23.2728 21.9724 23.3986 21.9181C23.5245 21.8637 23.6378 21.7841 23.7316 21.6841C23.8254 21.5841 23.8976 21.4659 23.9438 21.3368C23.9899 21.2077 24.0091 21.0705 24 20.9337C23.9776 20.6767 23.8589 20.4376 23.6677 20.2645C23.4764 20.0913 23.2267 19.9968 22.9688 20H18.5C18.3674 20 18.2402 19.9473 18.1464 19.8535C18.0527 19.7598 18 19.6326 18 19.5V17.5C18 17.3674 18.0527 17.2402 18.1464 17.1464C18.2402 17.0527 18.3674 17 18.5 17H23C23.1371 17.0003 23.2728 16.9724 23.3986 16.9181C23.5245 16.8637 23.6378 16.7841 23.7316 16.6841C23.8254 16.5841 23.8976 16.4659 23.9438 16.3368C23.9899 16.2077 24.0091 16.0705 24 15.9337C23.9776 15.6767 23.8589 15.4376 23.6677 15.2645C23.4764 15.0913 23.2267 14.9968 22.9688 15H18.5C18.3674 15 18.2402 14.9473 18.1464 14.8535C18.0527 14.7598 18 14.6326 18 14.5V12.5C18 12.3674 18.0527 12.2402 18.1464 12.1464C18.2402 12.0527 18.3674 12 18.5 12H23C23.1371 12.0003 23.2728 11.9724 23.3986 11.9181C23.5245 11.8637 23.6378 11.7841 23.7316 11.6841C23.8254 11.5841 23.8976 11.4659 23.9438 11.3368C23.9899 11.2077 24.0091 11.0705 24 10.9337C23.9776 10.6763 23.8585 10.4368 23.6667 10.2636C23.4749 10.0904 23.2247 9.99618 22.9662 9.99999H18.5C18.3674 9.99999 18.2402 9.94732 18.1464 9.85355C18.0527 9.75978 18 9.6326 18 9.49999V5.99999C18 5.46956 18.2107 4.96085 18.5858 4.58578C18.9609 4.21071 19.4696 3.99999 20 3.99999H26C26.5304 3.99999 27.0391 4.21071 27.4142 4.58578C27.7893 4.96085 28 5.46956 28 5.99999ZM13.7075 7.29249C13.8003 7.38543 13.8739 7.49575 13.9241 7.61714C13.9743 7.73854 14.0001 7.86863 14 7.99999V26C14 26.5304 13.7893 27.0391 13.4142 27.4142C13.0391 27.7893 12.5304 28 12 28H6C5.46957 28 4.96086 27.7893 4.58579 27.4142C4.21071 27.0391 4 26.5304 4 26V7.99999C3.9999 7.86863 4.02568 7.73854 4.07586 7.61714C4.12605 7.49575 4.19967 7.38543 4.2925 7.29249L8.2925 3.29249C8.38537 3.19952 8.49566 3.12576 8.61706 3.07543C8.73846 3.02511 8.86859 2.99921 9 2.99921C9.13142 2.99921 9.26154 3.02511 9.38294 3.07543C9.50434 3.12576 9.61463 3.19952 9.7075 3.29249L13.7075 7.29249ZM6 9.99999V23H8V9.99999H6ZM10 9.99999V23H12V9.99999H10ZM6.41375 7.99999H11.5863L9 5.41374L6.41375 7.99999Z" fill="white"/>
<path d="M66 3.49999H60C59.337 3.49999 58.7011 3.76338 58.2322 4.23222C57.7634 4.70107 57.5 5.33695 57.5 5.99999V26C57.5 26.663 57.7634 27.2989 58.2322 27.7678C58.7011 28.2366 59.337 28.5 60 28.5H66C66.663 28.5 67.2989 28.2366 67.7678 27.7678C68.2366 27.2989 68.5 26.663 68.5 26V5.99999C68.5 5.33695 68.2366 4.70107 67.7678 4.23222C67.2989 3.76338 66.663 3.49999 66 3.49999ZM65.5 25.5H60.5V22.5H62.5C62.8978 22.5 63.2794 22.342 63.5607 22.0606C63.842 21.7793 64 21.3978 64 21C64 20.6022 63.842 20.2206 63.5607 19.9393C63.2794 19.658 62.8978 19.5 62.5 19.5H60.5V17.5H62.5C62.8978 17.5 63.2794 17.342 63.5607 17.0607C63.842 16.7793 64 16.3978 64 16C64 15.6022 63.842 15.2206 63.5607 14.9393C63.2794 14.658 62.8978 14.5 62.5 14.5H60.5V12.5H62.5C62.8978 12.5 63.2794 12.342 63.5607 12.0607C63.842 11.7793 64 11.3978 64 11C64 10.6022 63.842 10.2206 63.5607 9.93933C63.2794 9.65803 62.8978 9.49999 62.5 9.49999H60.5V6.49999H65.5V25.5ZM50.0613 2.93874C49.9219 2.7989 49.7563 2.68795 49.574 2.61224C49.3917 2.53653 49.1962 2.49756 48.9988 2.49756C48.8013 2.49756 48.6059 2.53653 48.4235 2.61224C48.2412 2.68795 48.0756 2.7989 47.9363 2.93874L43.9363 6.93874C43.6559 7.2207 43.499 7.60241 43.5 7.99999V26C43.5 26.663 43.7634 27.2989 44.2322 27.7678C44.7011 28.2366 45.337 28.5 46 28.5H52C52.663 28.5 53.2989 28.2366 53.7678 27.7678C54.2366 27.2989 54.5 26.663 54.5 26V7.99999C54.5002 7.80295 54.4615 7.60781 54.3862 7.42572C54.3109 7.24362 54.2005 7.07815 54.0613 6.93874L50.0613 2.93874ZM46.5 11.5H51.5V20.5H46.5V11.5ZM49 6.12499L51.375 8.49999H46.625L49 6.12499ZM46.5 25.5V23.5H51.5V25.5H46.5Z" fill="white"/>
</g>
<defs>
<clipPath id="clip0_27_5448">
<rect width="72" height="32" rx="5" fill="white"/>
</clipPath>
</defs>
</svg>
