<svg width="72" height="32" viewBox="0 0 72 32" fill="none" xmlns="http://www.w3.org/2000/svg">
<g clip-path="url(#clip0_27_5453)">
<path d="M28.4138 9.17122L22.8288 3.58497C22.643 3.39921 22.4225 3.25185 22.1799 3.15131C21.9372 3.05077 21.6771 2.99902 21.4144 2.99902C21.1517 2.99902 20.8916 3.05077 20.6489 3.15131C20.4062 3.25185 20.1857 3.39921 20 3.58497L4.58626 19C4.39973 19.185 4.25185 19.4053 4.15121 19.648C4.05057 19.8907 3.99917 20.151 4.00001 20.4137V26C4.00001 26.5304 4.21072 27.0391 4.5858 27.4142C4.96087 27.7893 5.46958 28 6.00001 28H11.5863C11.849 28.0008 12.1093 27.9494 12.352 27.8488C12.5947 27.7481 12.815 27.6002 13 27.4137L28.4138 12C28.5995 11.8142 28.7469 11.5937 28.8474 11.3511C28.948 11.1084 28.9997 10.8483 28.9997 10.5856C28.9997 10.3229 28.948 10.0628 28.8474 9.82012C28.7469 9.57744 28.5995 9.35695 28.4138 9.17122ZM24 13.585L18.4138 7.99997L21.4138 4.99997L27 10.585L24 13.585Z" fill="white"/>
<path d="M68.7675 8.8175L63.1825 3.23125C62.9504 2.99899 62.6747 2.81476 62.3713 2.68906C62.0679 2.56336 61.7428 2.49866 61.4144 2.49866C61.086 2.49866 60.7608 2.56336 60.4574 2.68906C60.1541 2.81476 59.8784 2.99899 59.6463 3.23125L44.2325 18.6462C43.9995 18.8777 43.8148 19.1531 43.689 19.4566C43.5633 19.76 43.4991 20.0853 43.5 20.4137V26C43.5 26.663 43.7634 27.2989 44.2322 27.7678C44.7011 28.2366 45.337 28.5 46 28.5H51.5863C51.9147 28.5009 52.24 28.4366 52.5434 28.3109C52.8468 28.1851 53.1222 28.0004 53.3538 27.7675L68.7675 12.3525C69.2362 11.8837 69.4995 11.2479 69.4995 10.585C69.4995 9.92209 69.2362 9.28632 68.7675 8.8175ZM51.375 25.5H46.5V20.625L57 10.125L61.875 15L51.375 25.5ZM64 12.875L59.125 8L61.4175 5.7075L66.2925 10.5825L64 12.875Z" fill="white"/>
</g>
<defs>
<clipPath id="clip0_27_5453">
<rect width="72" height="32" rx="5" fill="white"/>
</clipPath>
</defs>
</svg>
