<svg width="72" height="32" viewBox="0 0 72 32" fill="none" xmlns="http://www.w3.org/2000/svg">
<g clip-path="url(#clip0_27_5458)">
<path d="M28.415 9.17125L22.8288 3.58625C22.643 3.40049 22.4225 3.25313 22.1799 3.15259C21.9372 3.05205 21.6771 3.00031 21.4144 3.00031C21.1517 3.00031 20.8916 3.05205 20.6489 3.15259C20.4062 3.25313 20.1857 3.40049 20 3.58625L4.58626 19C4.39973 19.185 4.25185 19.4053 4.15121 19.648C4.05057 19.8907 3.99917 20.151 4.00001 20.4138V26C4.00001 26.5304 4.21072 27.0391 4.5858 27.4142C4.96087 27.7893 5.46958 28 6.00001 28H27C27.2652 28 27.5196 27.8946 27.7071 27.7071C27.8947 27.5196 28 27.2652 28 27C28 26.7348 27.8947 26.4804 27.7071 26.2929C27.5196 26.1054 27.2652 26 27 26H14.415L28.415 12C28.6008 11.8143 28.7481 11.5938 28.8487 11.3511C28.9492 11.1084 29.001 10.8483 29.001 10.5856C29.001 10.3229 28.9492 10.0628 28.8487 9.82016C28.7481 9.57747 28.6008 9.35698 28.415 9.17125ZM24 13.5863L18.415 8L21.415 5L27 10.5863L24 13.5863Z" fill="white"/>
<path d="M68.7688 8.81752L63.1825 3.23252C62.7137 2.76384 62.0779 2.50055 61.415 2.50055C60.7521 2.50055 60.1163 2.76384 59.6475 3.23252L44.2325 18.6463C43.9996 18.8778 43.8149 19.1532 43.6891 19.4566C43.5634 19.76 43.4991 20.0853 43.5 20.4138V26C43.5 26.6631 43.7634 27.2989 44.2322 27.7678C44.7011 28.2366 45.337 28.5 46 28.5H67C67.3978 28.5 67.7794 28.342 68.0607 28.0607C68.342 27.7794 68.5 27.3978 68.5 27C68.5 26.6022 68.342 26.2207 68.0607 25.9394C67.7794 25.6581 67.3978 25.5 67 25.5H55.625L68.7688 12.3538C69.001 12.1216 69.1853 11.846 69.311 11.5426C69.4367 11.2392 69.5014 10.914 69.5014 10.5856C69.5014 10.2572 69.4367 9.93208 69.311 9.6287C69.1853 9.32532 69.001 9.04967 68.7688 8.81752ZM51.375 25.5H46.5V20.625L57 10.125L61.875 15L51.375 25.5ZM64 12.875L59.125 8.00002L61.4175 5.70752L66.2925 10.5825L64 12.875Z" fill="white"/>
</g>
<defs>
<clipPath id="clip0_27_5458">
<rect width="72" height="32" rx="5" fill="white"/>
</clipPath>
</defs>
</svg>
