<svg width="72" height="32" viewBox="0 0 72 32" fill="none" xmlns="http://www.w3.org/2000/svg">
<g clip-path="url(#clip0_27_5428)">
<path d="M27.7918 15.4862C27.7843 15.47 27.7768 15.4538 27.768 15.4388L24.0005 8.73875V4C24.0005 3.46957 23.7898 2.96086 23.4148 2.58579C23.0397 2.21071 22.531 2 22.0005 2H10.0005C9.47011 2 8.9614 2.21071 8.58633 2.58579C8.21126 2.96086 8.00054 3.46957 8.00054 4V8.7375L4.23304 15.4388C4.22429 15.4538 4.21679 15.47 4.20804 15.4862C4.04482 15.8148 3.97549 16.1821 4.00769 16.5476C4.03989 16.913 4.17238 17.2625 4.39054 17.5575L4.40429 17.575L14.1055 30.1763C14.1692 30.2583 14.2567 30.3184 14.3561 30.3484C14.4555 30.3784 14.5617 30.3767 14.6601 30.3436C14.7584 30.3105 14.8441 30.2476 14.9051 30.1636C14.9661 30.0797 14.9994 29.9788 15.0005 29.875V19.3288C14.3333 19.0929 13.771 18.6287 13.4129 18.0183C13.0548 17.4079 12.9241 16.6905 13.0437 15.993C13.1634 15.2955 13.5258 14.6628 14.0669 14.2066C14.608 13.7505 15.2929 13.5003 16.0005 13.5003C16.7082 13.5003 17.3931 13.7505 17.9342 14.2066C18.4753 14.6628 18.8377 15.2955 18.9573 15.993C19.077 16.6905 18.9463 17.4079 18.5882 18.0183C18.2301 18.6287 17.6678 19.0929 17.0005 19.3288V29.875C17.0009 29.9791 17.0337 30.0805 17.0944 30.1651C17.1551 30.2496 17.2407 30.3131 17.3393 30.3467C17.4378 30.3803 17.5444 30.3823 17.6441 30.3524C17.7438 30.3225 17.8317 30.2622 17.8955 30.18L27.5955 17.5788L27.6093 17.5613C27.8284 17.266 27.9615 16.9158 27.9937 16.5495C28.0259 16.1833 27.956 15.8152 27.7918 15.4862ZM22.0005 8H10.0005V4H22.0005V8Z" fill="white"/>
<path d="M68.2404 15.2638C68.2279 15.24 68.2167 15.2175 68.2029 15.1938L64.5004 8.60625V4C64.5004 3.33696 64.2371 2.70107 63.7682 2.23223C63.2994 1.76339 62.6635 1.5 62.0004 1.5H50.0004C49.3374 1.5 48.7015 1.76339 48.2327 2.23223C47.7638 2.70107 47.5004 3.33696 47.5004 4V8.60875L43.7979 15.1938C43.784 15.2167 43.7714 15.2405 43.7604 15.265C43.5561 15.6756 43.4693 16.1348 43.5097 16.5916C43.55 17.0485 43.716 17.4853 43.9892 17.8538C44.0004 17.87 44.0117 17.885 44.0242 17.9L54.8292 31.4363C54.9697 31.6121 55.148 31.7541 55.3509 31.8517C55.5537 31.9493 55.776 31.9999 56.0011 31.9999C56.2262 31.9999 56.4484 31.9493 56.6513 31.8517C56.8541 31.7541 57.0324 31.6121 57.1729 31.4363L67.9767 17.9C67.9892 17.885 68.0004 17.87 68.0117 17.8538C68.2849 17.4851 68.4508 17.0481 68.4912 16.591C68.5316 16.1339 68.4448 15.6746 68.2404 15.2638ZM61.5004 4.5V7.5H50.5004V4.5H61.5004ZM56.0004 18C55.7532 18 55.5115 17.9267 55.306 17.7893C55.1004 17.652 54.9402 17.4568 54.8456 17.2284C54.751 16.9999 54.7262 16.7486 54.7745 16.5061C54.8227 16.2637 54.9417 16.0409 55.1166 15.8661C55.2914 15.6913 55.5141 15.5722 55.7566 15.524C55.9991 15.4758 56.2504 15.5005 56.4788 15.5952C56.7072 15.6898 56.9024 15.85 57.0398 16.0555C57.1771 16.2611 57.2504 16.5028 57.2504 16.75C57.2504 17.0815 57.1188 17.3995 56.8843 17.6339C56.6499 17.8683 56.332 18 56.0004 18ZM57.5004 26.2175V20.7262C58.4314 20.3751 59.2096 19.7085 59.6995 18.8425C60.1894 17.9766 60.36 16.9662 60.1815 15.9874C60.003 15.0086 59.4868 14.1234 58.7228 13.4861C57.9588 12.8488 56.9954 12.4998 56.0004 12.4998C55.0055 12.4998 54.0421 12.8488 53.2781 13.4861C52.5141 14.1234 51.9979 15.0086 51.8194 15.9874C51.6409 16.9662 51.8115 17.9766 52.3014 18.8425C52.7913 19.7085 53.5695 20.3751 54.5004 20.7262V26.2162L46.6042 16.3237L49.8754 10.5H62.1254L65.3992 16.3237L57.5004 26.2175Z" fill="white"/>
</g>
<defs>
<clipPath id="clip0_27_5428">
<rect width="72" height="32" rx="5" fill="white"/>
</clipPath>
</defs>
</svg>
