<svg width="72" height="32" viewBox="0 0 72 32" fill="none" xmlns="http://www.w3.org/2000/svg">
<g clip-path="url(#clip0_27_5423)">
<path d="M30.4132 10.17L21.8282 1.585C21.6425 1.39924 21.422 1.25188 21.1793 1.15134C20.9366 1.0508 20.6765 0.999054 20.4138 0.999054C20.1512 0.999054 19.891 1.0508 19.6484 1.15134C19.4057 1.25188 19.1852 1.39924 18.9995 1.585L15.4445 5.14L8.19446 7.86C7.86502 7.98258 7.57371 8.18982 7.34987 8.46084C7.12604 8.73186 6.97758 9.05709 6.91946 9.40375L4.32321 24.9788C4.3058 25.0832 4.322 25.1904 4.36946 25.2851C4.41692 25.3797 4.4932 25.4569 4.5873 25.5054C4.68141 25.5539 4.78848 25.5713 4.8931 25.555C4.99772 25.5388 5.09449 25.4898 5.16946 25.415L12.2945 18.29C12.0687 17.8203 11.97 17.2997 12.0082 16.78C12.0547 16.1406 12.3047 15.533 12.7217 15.0461C13.1387 14.5592 13.7007 14.2187 14.3253 14.0744C14.9499 13.9302 15.6043 13.9898 16.1925 14.2446C16.7808 14.4993 17.2719 14.9358 17.5941 15.49C17.9162 16.0443 18.0523 16.6871 17.9825 17.3243C17.9126 17.9616 17.6405 18.5597 17.206 19.031C16.7715 19.5023 16.1974 19.822 15.568 19.9433C14.9385 20.0646 14.2867 19.9811 13.7082 19.705L6.58321 26.83C6.50845 26.905 6.45942 27.0017 6.44318 27.1064C6.42694 27.211 6.44433 27.3181 6.49284 27.4122C6.54135 27.5063 6.61848 27.5825 6.71312 27.63C6.80776 27.6775 6.91503 27.6937 7.01946 27.6763L22.5957 25.08C22.9418 25.0223 23.2667 24.8746 23.5376 24.6517C23.8086 24.4288 24.0162 24.1385 24.1395 23.81L26.8607 16.5513L30.4132 13C30.599 12.8143 30.7463 12.5938 30.8469 12.3511C30.9474 12.1084 30.9992 11.8483 30.9992 11.5856C30.9992 11.3229 30.9474 11.0628 30.8469 10.8202C30.7463 10.5775 30.599 10.357 30.4132 10.1713V10.17ZM25.9995 14.585L17.4145 6L20.4145 3L28.9995 11.585L25.9995 14.585Z" fill="white"/>
<path d="M71.499 11.585C71.4999 11.2566 71.4356 10.9312 71.3099 10.6278C71.1842 10.3244 70.9995 10.049 70.7665 9.8175L62.1815 1.23125C61.9494 0.998995 61.6737 0.814755 61.3703 0.689055C61.067 0.563355 60.7418 0.498657 60.4134 0.498657C60.085 0.498657 59.7598 0.563355 59.4565 0.689055C59.1531 0.814755 58.8774 0.998995 58.6453 1.23125L55.1678 4.70875L48.0128 7.3925C47.6019 7.54647 47.2387 7.80588 46.9599 8.14467C46.681 8.48345 46.4962 8.88967 46.424 9.3225L43.519 26.75C43.4827 26.9652 43.4937 27.1857 43.5513 27.3962C43.6089 27.6066 43.7118 27.802 43.8527 27.9686C43.9936 28.1352 44.1692 28.2691 44.3672 28.3609C44.5652 28.4527 44.7808 28.5001 44.999 28.5C45.0828 28.5004 45.1664 28.4937 45.249 28.48L62.6803 25.5737C63.1126 25.5009 63.5184 25.316 63.857 25.0374C64.1956 24.7589 64.4554 24.3964 64.6103 23.9862L67.2928 16.83L70.7703 13.3525C71.0026 13.1207 71.1866 12.8451 71.3117 12.5418C71.4368 12.2384 71.5005 11.9132 71.499 11.585ZM61.899 22.6625L49.374 24.75L53.499 20.625C54.4056 21.0343 55.4271 21.1125 56.3854 20.8462C57.3438 20.58 58.1785 19.9859 58.744 19.1676C59.3095 18.3493 59.57 17.3586 59.4803 16.368C59.3906 15.3773 58.9562 14.4495 58.2528 13.7462C57.5495 13.0428 56.6217 12.6085 55.6311 12.5187C54.6404 12.429 53.6497 12.6896 52.8314 13.2551C52.0131 13.8206 51.4191 14.6552 51.1528 15.6136C50.8865 16.572 50.9648 17.5934 51.374 18.5L47.249 22.625L49.3365 10.1L55.624 7.7425L64.2553 16.375L61.899 22.6625ZM53.999 16.75C53.999 16.5028 54.0723 16.2611 54.2097 16.0555C54.347 15.85 54.5423 15.6898 54.7707 15.5951C54.9991 15.5005 55.2504 15.4758 55.4929 15.524C55.7354 15.5722 55.9581 15.6913 56.1329 15.8661C56.3077 16.0409 56.4268 16.2637 56.475 16.5061C56.5232 16.7486 56.4985 16.9999 56.4039 17.2284C56.3093 17.4568 56.1491 17.652 55.9435 17.7893C55.7379 17.9267 55.4963 18 55.249 18C54.9175 18 54.5996 17.8683 54.3651 17.6339C54.1307 17.3995 53.999 17.0815 53.999 16.75ZM65.999 13.875L58.124 6L60.4165 3.7075L68.2915 11.5825L65.999 13.875Z" fill="white"/>
</g>
<defs>
<clipPath id="clip0_27_5423">
<rect width="72" height="32" rx="5" fill="white"/>
</clipPath>
</defs>
</svg>
