<svg width="72" height="32" viewBox="0 0 72 32" fill="none" xmlns="http://www.w3.org/2000/svg">
<g clip-path="url(#clip0_27_5473)">
<path d="M28.9072 13.1488L24.9072 26.5913L24.8997 26.6125C24.7713 27.0155 24.5179 27.3672 24.1763 27.6166C23.8348 27.8661 23.4227 28.0004 22.9997 28H8.9997C8.57673 28.0004 8.16463 27.8661 7.82305 27.6166C7.48147 27.3672 7.22813 27.0155 7.0997 26.6125L7.0922 26.5913L3.0922 13.1488C2.96765 12.7529 2.96933 12.3281 3.09699 11.9333C3.22465 11.5384 3.47198 11.193 3.8047 10.945L14.7947 2.40627L14.8172 2.38877C15.1596 2.13601 15.5741 1.99963 15.9997 1.99963C16.4253 1.99963 16.8397 2.13601 17.1822 2.38877L17.2047 2.40627L28.1947 10.945C28.5274 11.193 28.7747 11.5384 28.9024 11.9333C29.0301 12.3281 29.0317 12.7529 28.9072 13.1488Z" fill="white"/>
<path d="M68.4992 10.5475L57.5117 2.01123L57.4792 1.98623C57.0509 1.67013 56.5327 1.49957 56.0004 1.49957C55.4682 1.49957 54.9499 1.67013 54.5217 1.98623L54.4892 2.01123L43.4992 10.5475C43.085 10.8577 42.7773 11.2889 42.6186 11.7815C42.4598 12.2741 42.4579 12.8037 42.6129 13.2975L46.6129 26.7362L46.6229 26.7687C46.7842 27.272 47.1013 27.711 47.5284 28.0223C47.9556 28.3335 48.4707 28.5008 48.9992 28.5H62.9992C63.5278 28.5003 64.0428 28.3325 64.4698 28.0209C64.8967 27.7092 65.2135 27.2698 65.3742 26.7662L65.3842 26.7337L69.3842 13.295C69.5388 12.8017 69.5368 12.2726 69.3783 11.7806C69.2198 11.2886 68.9127 10.8577 68.4992 10.5475ZM62.6242 25.5H49.3742L45.5767 12.7337L55.9992 4.63623L66.4217 12.7337L62.6242 25.5Z" fill="white"/>
</g>
<defs>
<clipPath id="clip0_27_5473">
<rect width="72" height="32" rx="5" fill="white"/>
</clipPath>
</defs>
</svg>
