<svg width="72" height="32" viewBox="0 0 72 32" fill="none" xmlns="http://www.w3.org/2000/svg">
<g clip-path="url(#clip0_27_5478)">
<path d="M7.52201 16.19C7.49759 16.265 7.45581 16.3331 7.40006 16.3888C7.34431 16.4445 7.27619 16.4862 7.20124 16.5106C7.12629 16.535 7.04664 16.5413 6.96878 16.529C6.89093 16.5168 6.81708 16.4863 6.75326 16.44L2.83201 13.625C2.48389 13.379 2.22487 13.0267 2.09371 12.6211C1.96256 12.2155 1.96635 11.7783 2.10451 11.375C2.24418 10.9705 2.50748 10.62 2.85718 10.3733C3.20688 10.1266 3.62529 9.99598 4.05326 10H8.84201C8.92103 9.99988 8.99896 10.0185 9.06941 10.0543C9.13986 10.0901 9.20082 10.1421 9.24729 10.206C9.29376 10.2699 9.32442 10.3439 9.33676 10.422C9.3491 10.5 9.34276 10.5799 9.31826 10.655L7.52201 16.19ZM6.64701 25.375C6.51182 25.7763 6.50958 26.2104 6.64063 26.613C6.77168 27.0156 7.02904 27.3652 7.37451 27.61C7.71374 27.862 8.12507 27.998 8.54763 27.998C8.97019 27.998 9.38153 27.862 9.72076 27.61L13.727 24.7275C13.7915 24.6812 13.8441 24.6202 13.8804 24.5496C13.9166 24.4789 13.9355 24.4007 13.9355 24.3213C13.9355 24.2419 13.9166 24.1636 13.8804 24.093C13.8441 24.0223 13.7915 23.9613 13.727 23.915L8.92201 20.465C8.85821 20.419 8.78446 20.3888 8.70676 20.3766C8.62905 20.3645 8.54959 20.3709 8.47481 20.3952C8.40003 20.4196 8.33206 20.4613 8.2764 20.5168C8.22075 20.5724 8.17899 20.6403 8.15451 20.715L6.64701 25.375ZM17.9033 2.40752C17.7787 2.00036 17.5268 1.64386 17.1847 1.39035C16.8426 1.13684 16.4282 0.999664 16.0024 0.998965C15.5766 0.998266 15.1618 1.13408 14.8189 1.38646C14.476 1.63885 14.2229 1.99452 14.097 2.40127L12.4995 7.34502C12.4752 7.41965 12.4687 7.49896 12.4808 7.57654C12.4928 7.65411 12.5229 7.72777 12.5686 7.79155C12.6144 7.85533 12.6745 7.90743 12.7442 7.94365C12.8138 7.97987 12.891 7.99918 12.9695 8.00002H19.0295C19.1084 8.0001 19.1862 7.98151 19.2565 7.94578C19.3268 7.91005 19.3877 7.85818 19.4341 7.79443C19.4806 7.73067 19.5113 7.65684 19.5237 7.57895C19.5362 7.50106 19.53 7.42133 19.5058 7.34627L17.9033 2.40752ZM19.9995 10H11.9995C11.8939 10.0002 11.7911 10.0338 11.7058 10.096C11.6204 10.1582 11.557 10.2458 11.5245 10.3463L9.12451 17.7213C9.09187 17.822 9.09208 17.9306 9.1251 18.0312C9.15812 18.1319 9.22226 18.2194 9.30826 18.2813L15.7045 22.8838C15.7897 22.9452 15.892 22.9783 15.997 22.9783C16.102 22.9783 16.2043 22.9452 16.2895 22.8838L22.6858 18.2813C22.7718 18.2194 22.8359 18.1319 22.8689 18.0312C22.9019 17.9306 22.9021 17.822 22.8695 17.7213L20.4758 10.3463C20.4432 10.2456 20.3796 10.1578 20.294 10.0956C20.2084 10.0334 20.1053 9.99992 19.9995 10ZM29.8908 11.375C29.7511 10.9705 29.4878 10.62 29.1381 10.3733C28.7884 10.1266 28.37 9.99598 27.942 10H23.157C23.078 9.99988 23.0001 10.0185 22.9296 10.0543C22.8592 10.0901 22.7982 10.1421 22.7517 10.206C22.7053 10.2699 22.6746 10.3439 22.6623 10.422C22.6499 10.5 22.6563 10.5799 22.6808 10.655L24.477 16.1913C24.5015 16.266 24.5432 16.3339 24.5989 16.3895C24.6546 16.445 24.7225 16.4867 24.7973 16.5111C24.8721 16.5354 24.9516 16.5418 25.0293 16.5297C25.107 16.5175 25.1807 16.4873 25.2445 16.4413L29.1708 13.6163C29.5169 13.3706 29.7743 13.0197 29.9047 12.6158C30.0352 12.2119 30.0316 11.7767 29.8945 11.375H29.8908ZM23.072 20.4688L18.272 23.9225C18.2075 23.9688 18.1549 24.0298 18.1187 24.1005C18.0824 24.1711 18.0635 24.2494 18.0635 24.3288C18.0635 24.4082 18.0824 24.4864 18.1187 24.5571C18.1549 24.6277 18.2075 24.6887 18.272 24.735L22.272 27.61C22.6135 27.8606 23.0257 27.9962 23.4493 27.9975C23.8728 27.9987 24.2858 27.8654 24.6288 27.6169C24.9717 27.3683 25.2269 27.0173 25.3576 26.6144C25.4882 26.2115 25.4876 25.7775 25.3558 25.375L23.8445 20.7163C23.8202 20.6412 23.7786 20.573 23.7229 20.5171C23.6672 20.4613 23.5991 20.4194 23.5241 20.3949C23.4491 20.3704 23.3694 20.364 23.2915 20.3762C23.2136 20.3884 23.1397 20.4188 23.0758 20.465L23.072 20.4688Z" fill="white"/>
<path d="M70.3749 11.2288C70.2131 10.7262 69.896 10.288 69.4691 9.97735C69.0423 9.66666 68.5278 9.49952 67.9999 9.50003H60.7311L58.3811 2.25628C58.2236 1.74913 57.9081 1.30559 57.4807 0.990381C57.0533 0.675172 56.5364 0.504789 56.0053 0.504092C55.4742 0.503394 54.9569 0.672418 54.5286 0.986502C54.1004 1.30059 53.7838 1.74329 53.6249 2.25003L51.2686 9.50003H43.9999C43.4712 9.50006 42.9562 9.66767 42.5288 9.97878C42.1013 10.2899 41.7835 10.7285 41.621 11.2316C41.4585 11.7346 41.4597 12.2763 41.6243 12.7786C41.789 13.281 42.1086 13.7182 42.5374 14.0275L48.4249 18.2638L46.1661 25.2263C46.003 25.7279 46.0028 26.2684 46.1655 26.7702C46.3281 27.272 46.6454 27.7095 47.0718 28.02C47.4982 28.3306 48.0119 28.4984 48.5394 28.4992C49.0669 28.5001 49.5812 28.3342 50.0086 28.025L55.9999 23.7138L61.9861 28.02C62.4132 28.3303 62.9274 28.4974 63.4552 28.4975C63.9831 28.4975 64.4974 28.3305 64.9245 28.0204C65.3516 27.7103 65.6695 27.2729 65.8329 26.771C65.9962 26.2691 65.9965 25.7284 65.8336 25.2263L63.5749 18.2638L69.4686 14.0238C69.8954 13.7132 70.2129 13.2755 70.3757 12.7735C70.5385 12.2714 70.5382 11.7307 70.3749 11.2288ZM55.9999 4.63878L57.5774 9.50003H54.4224L55.9999 4.63878ZM45.5524 12.5H50.2949L49.3974 15.2663L45.5524 12.5ZM49.4911 24.7L50.9824 20.1025L53.4311 21.865L49.4911 24.7ZM51.9549 17.1063L53.4549 12.5H58.5574L60.0574 17.1063L55.9999 20.0175L51.9549 17.1063ZM58.5686 21.865L61.0174 20.1025L62.5086 24.7L58.5686 21.865ZM62.6024 15.2663L61.7049 12.5H66.4474L62.6024 15.2663Z" fill="white"/>
</g>
<defs>
<clipPath id="clip0_27_5478">
<rect width="72" height="32" rx="5" fill="white"/>
</clipPath>
</defs>
</svg>
