<svg width="72" height="32" viewBox="0 0 72 32" fill="none" xmlns="http://www.w3.org/2000/svg">
<g clip-path="url(#clip0_27_1372)">
<path d="M20.9087 5.0525C20.6873 3.91264 20.0766 2.88517 19.1811 2.14592C18.2857 1.40667 17.1611 1.00159 16 1C15.7348 1 15.4804 1.10536 15.2929 1.29289C15.1053 1.48043 15 1.73478 15 2C15 2.26522 15.1053 2.51957 15.2929 2.70711C15.4804 2.89464 15.7348 3 16 3C16.6352 3 17.2541 3.20165 17.7674 3.5759C18.2807 3.95016 18.6619 4.47769 18.8562 5.0825C16.9533 5.35948 15.2136 6.31177 13.9548 7.76542C12.696 9.21907 12.0021 11.0771 12 13C12 18.8438 8.78123 22.75 2.43373 24.625C1.99954 24.7516 1.62107 25.0215 1.36008 25.3909C1.09908 25.7602 0.970962 26.2071 0.996635 26.6586C1.02231 27.1101 1.20025 27.5396 1.50143 27.877C1.80261 28.2144 2.20925 28.4397 2.65498 28.5163C4.53375 28.841 6.43708 29.0029 8.34373 29C13.4412 29 19.1137 27.8562 23.035 24.5675C26.33 21.805 28 17.9125 28 13C27.9979 11.0363 27.2744 9.14179 25.967 7.67655C24.6597 6.21131 22.8595 5.27747 20.9087 5.0525ZM24 11.875L20.4475 10.1038C20.3085 10.0342 20.1553 9.99803 20 9.99803C19.8446 9.99803 19.6914 10.0342 19.5525 10.1038L16 11.875L14.3287 11.04C14.7362 9.86018 15.5015 8.83682 16.5181 8.11246C17.5346 7.3881 18.7518 6.99881 20 6.99881C21.2482 6.99881 22.4653 7.3881 23.4819 8.11246C24.4984 8.83682 25.2637 9.86018 25.6712 11.04L24 11.875Z" fill="white"/>
<path d="M61.32 4.6025C61.0096 3.42781 60.3197 2.38864 59.3575 1.64668C58.3954 0.904723 57.215 0.501588 56 0.5C55.6022 0.5 55.2206 0.658035 54.9393 0.93934C54.658 1.22064 54.5 1.60218 54.5 2C54.5 2.39782 54.658 2.77936 54.9393 3.06066C55.2206 3.34196 55.6022 3.5 56 3.5C56.4298 3.50064 56.8523 3.6121 57.2265 3.82361C57.6007 4.03513 57.914 4.33956 58.1362 4.7075C56.254 5.13305 54.5722 6.1854 53.3665 7.69206C52.1608 9.19871 51.5026 11.0703 51.5 13C51.5 15.7175 50.7712 18.0175 49.335 19.8363C47.8075 21.77 45.4375 23.2212 42.2925 24.1475C41.7499 24.3057 41.2769 24.643 40.9507 25.1045C40.6245 25.566 40.4643 26.1245 40.4962 26.6887C40.5281 27.253 40.7502 27.7898 41.1264 28.2116C41.5026 28.6334 42.0105 28.9152 42.5675 29.0112C44.4707 29.3398 46.3987 29.5034 48.33 29.5C53.5312 29.5 59.33 28.3275 63.3562 24.9525C66.77 22.09 68.5 18.0688 68.5 13C68.4973 10.9751 67.7731 9.01743 66.4572 7.47839C65.1413 5.93935 63.3199 4.91972 61.32 4.6025ZM60 7.5C61.0702 7.50027 62.117 7.81274 63.0122 8.39912C63.9075 8.9855 64.6122 9.82032 65.04 10.8013L64 11.3225L60.6712 9.6575C60.4628 9.55322 60.233 9.49893 60 9.49893C59.767 9.49893 59.5371 9.55322 59.3287 9.6575L56 11.3225L54.96 10.8013C55.3878 9.82032 56.0925 8.9855 56.9877 8.39912C57.883 7.81274 58.9298 7.50027 60 7.5ZM61.4287 22.6537C59.2537 24.4775 56.1375 25.7125 52.4162 26.2262C50.0033 26.5451 47.5615 26.5825 45.14 26.3375C50.975 24.0238 54.175 19.77 54.475 13.9137L55.3287 14.3413C55.5373 14.4449 55.7671 14.4988 56 14.4988C56.2329 14.4988 56.4626 14.4449 56.6712 14.3413L60 12.6763L63.3287 14.3413C63.5373 14.4449 63.7671 14.4988 64 14.4988C64.2329 14.4988 64.4627 14.4449 64.6712 14.3413L65.475 13.9388C65.28 17.6338 63.9225 20.5625 61.4287 22.6537Z" fill="white"/>
</g>
<defs>
<clipPath id="clip0_27_1372">
<rect width="72" height="32" rx="5" fill="white"/>
</clipPath>
</defs>
</svg>
