<svg width="72" height="32" viewBox="0 0 72 32" fill="none" xmlns="http://www.w3.org/2000/svg">
<g clip-path="url(#clip0_27_3302)">
<path d="M12 6C12 5.20888 12.2346 4.43552 12.6741 3.77772C13.1136 3.11992 13.7384 2.60723 14.4693 2.30448C15.2002 2.00173 16.0044 1.92252 16.7804 2.07686C17.5563 2.2312 18.269 2.61216 18.8284 3.17157C19.3878 3.73098 19.7688 4.44372 19.9231 5.21964C20.0775 5.99556 19.9983 6.79983 19.6955 7.53074C19.3928 8.26164 18.8801 8.88635 18.2223 9.32588C17.5645 9.76541 16.7911 10 16 10C14.9391 10 13.9217 9.57857 13.1716 8.82843C12.4214 8.07828 12 7.06087 12 6ZM27 12H5C4.73478 12 4.48043 12.1054 4.29289 12.2929C4.10536 12.4804 4 12.7348 4 13C4 13.2652 4.10536 13.5196 4.29289 13.7071C4.48043 13.8946 4.73478 14 5 14H15V17.555L5.33125 26.2563C5.13317 26.4336 5.01365 26.6824 4.999 26.9479C4.98435 27.2134 5.07576 27.4738 5.25313 27.6719C5.43049 27.87 5.67928 27.9895 5.94476 28.0041C6.21024 28.0188 6.47067 27.9274 6.66875 27.75L16.1938 19.1775L22 21.66V27C22 27.2652 22.1054 27.5196 22.2929 27.7071C22.4804 27.8946 22.7348 28 23 28C23.2652 28 23.5196 27.8946 23.7071 27.7071C23.8946 27.5196 24 27.2652 24 27V21C23.9999 20.8043 23.9424 20.613 23.8347 20.4497C23.7269 20.2864 23.5736 20.1583 23.3937 20.0813L17 17.34V14H27C27.2652 14 27.5196 13.8946 27.7071 13.7071C27.8946 13.5196 28 13.2652 28 13C28 12.7348 27.8946 12.4804 27.7071 12.2929C27.5196 12.1054 27.2652 12 27 12Z" fill="white"/>
<path d="M56 10.5C56.89 10.5 57.76 10.2361 58.5001 9.74162C59.2401 9.24715 59.8169 8.54434 60.1575 7.72208C60.4981 6.89981 60.5872 5.99501 60.4135 5.1221C60.2399 4.24918 59.8113 3.44736 59.182 2.81802C58.5526 2.18869 57.7508 1.7601 56.8779 1.58647C56.005 1.41283 55.1002 1.50195 54.2779 1.84254C53.4557 2.18314 52.7529 2.75991 52.2584 3.49994C51.7639 4.23996 51.5 5.10999 51.5 6C51.5 7.19348 51.9741 8.33807 52.818 9.18198C53.6619 10.0259 54.8065 10.5 56 10.5ZM56 4.5C56.2967 4.5 56.5867 4.58798 56.8334 4.7528C57.08 4.91762 57.2723 5.15189 57.3858 5.42598C57.4993 5.70007 57.5291 6.00167 57.4712 6.29264C57.4133 6.58361 57.2704 6.85088 57.0607 7.06066C56.8509 7.27044 56.5836 7.4133 56.2926 7.47118C56.0017 7.52906 55.7001 7.49935 55.426 7.38582C55.1519 7.27229 54.9176 7.08003 54.7528 6.83336C54.588 6.58668 54.5 6.29667 54.5 6C54.5 5.60218 54.658 5.22065 54.9393 4.93934C55.2206 4.65804 55.6022 4.5 56 4.5ZM68.5 13.5C68.5 13.8978 68.342 14.2794 68.0607 14.5607C67.7794 14.842 67.3978 15 67 15H57.5V17.0113L63.5912 19.625C63.8604 19.7404 64.0899 19.9322 64.2514 20.1765C64.4129 20.4208 64.4993 20.7071 64.5 21V27C64.5 27.3978 64.342 27.7794 64.0607 28.0607C63.7794 28.342 63.3978 28.5 63 28.5C62.6022 28.5 62.2206 28.342 61.9393 28.0607C61.658 27.7794 61.5 27.3978 61.5 27V21.9888L56.2913 19.7563L47 28.115C46.7008 28.355 46.3211 28.4714 45.9388 28.44C45.5565 28.4087 45.2007 28.2321 44.9446 27.9466C44.6885 27.661 44.5515 27.2882 44.5618 26.9047C44.5721 26.5213 44.7289 26.1564 45 25.885L54.5 17.3325V15H45C44.6022 15 44.2206 14.842 43.9393 14.5607C43.658 14.2794 43.5 13.8978 43.5 13.5C43.5 13.1022 43.658 12.7206 43.9393 12.4393C44.2206 12.158 44.6022 12 45 12H67C67.3978 12 67.7794 12.158 68.0607 12.4393C68.342 12.7206 68.5 13.1022 68.5 13.5Z" fill="white"/>
</g>
<defs>
<clipPath id="clip0_27_3302">
<rect width="72" height="32" rx="5" fill="white"/>
</clipPath>
</defs>
</svg>
