<svg width="72" height="32" viewBox="0 0 72 32" fill="none" xmlns="http://www.w3.org/2000/svg">
<g clip-path="url(#clip0_27_3282)">
<path d="M16 3C13.4288 3 10.9154 3.76244 8.77759 5.1909C6.63975 6.61935 4.97351 8.64968 3.98957 11.0251C3.00563 13.4006 2.74819 16.0144 3.2498 18.5362C3.75141 21.0579 4.98953 23.3743 6.80762 25.1924C8.6257 27.0105 10.9421 28.2486 13.4638 28.7502C15.9856 29.2518 18.5995 28.9944 20.9749 28.0104C23.3503 27.0265 25.3807 25.3603 26.8091 23.2224C28.2376 21.0846 29 18.5712 29 16C28.9964 12.5533 27.6256 9.24882 25.1884 6.81163C22.7512 4.37445 19.4467 3.00364 16 3ZM16 8C16.3956 8 16.7822 8.1173 17.1111 8.33706C17.44 8.55682 17.6964 8.86918 17.8478 9.23463C17.9991 9.60009 18.0387 10.0022 17.9616 10.3902C17.8844 10.7781 17.6939 11.1345 17.4142 11.4142C17.1345 11.6939 16.7781 11.8844 16.3902 11.9616C16.0022 12.0387 15.6001 11.9991 15.2346 11.8478C14.8692 11.6964 14.5568 11.44 14.3371 11.1111C14.1173 10.7822 14 10.3956 14 10C14 9.46957 14.2107 8.96086 14.5858 8.58579C14.9609 8.21071 15.4696 8 16 8ZM22 15H17V16.6975L20.8325 22.4475C20.9797 22.6683 21.0332 22.9385 20.9811 23.1987C20.9291 23.4589 20.7758 23.6878 20.555 23.835C20.3342 23.9822 20.064 24.0357 19.8038 23.9836C19.5436 23.9316 19.3147 23.7783 19.1675 23.5575L16 18.8075L12.8325 23.5575C12.7596 23.6668 12.6659 23.7607 12.5567 23.8338C12.4476 23.9069 12.3251 23.9578 12.1962 23.9836C11.936 24.0357 11.6658 23.9822 11.445 23.835C11.2242 23.6878 11.0709 23.4589 11.0189 23.1987C10.9669 22.9385 11.0203 22.6683 11.1675 22.4475L15 16.6975V15H10C9.73479 15 9.48044 14.8946 9.2929 14.7071C9.10536 14.5196 9.00001 14.2652 9.00001 14C9.00001 13.7348 9.10536 13.4804 9.2929 13.2929C9.48044 13.1054 9.73479 13 10 13H22C22.2652 13 22.5196 13.1054 22.7071 13.2929C22.8946 13.4804 23 13.7348 23 14C23 14.2652 22.8946 14.5196 22.7071 14.7071C22.5196 14.8946 22.2652 15 22 15Z" fill="white"/>
<path d="M56 2.5C53.33 2.5 50.7199 3.29176 48.4998 4.77516C46.2797 6.25856 44.5494 8.36697 43.5276 10.8338C42.5058 13.3006 42.2385 16.015 42.7594 18.6337C43.2803 21.2525 44.5661 23.6579 46.4541 25.5459C48.3421 27.434 50.7475 28.7197 53.3663 29.2406C55.985 29.7615 58.6994 29.4942 61.1662 28.4724C63.633 27.4506 65.7414 25.7203 67.2248 23.5002C68.7082 21.2801 69.5 18.67 69.5 16C69.496 12.4208 68.0724 8.98932 65.5416 6.45844C63.0107 3.92756 59.5792 2.50397 56 2.5ZM56 26.5C53.9233 26.5 51.8932 25.8842 50.1665 24.7304C48.4398 23.5767 47.094 21.9368 46.2993 20.0182C45.5046 18.0996 45.2966 15.9884 45.7018 13.9516C46.1069 11.9148 47.1069 10.0438 48.5754 8.57538C50.0438 7.10693 51.9148 6.1069 53.9516 5.70175C55.9884 5.29661 58.0996 5.50454 60.0182 6.29926C61.9368 7.09399 63.5767 8.4398 64.7304 10.1665C65.8842 11.8932 66.5 13.9233 66.5 16C66.497 18.7839 65.3898 21.4528 63.4213 23.4213C61.4529 25.3898 58.7839 26.497 56 26.5ZM53.5 10C53.5 9.50555 53.6466 9.0222 53.9213 8.61107C54.196 8.19995 54.5865 7.87952 55.0433 7.6903C55.5001 7.50108 56.0028 7.45157 56.4877 7.54804C56.9727 7.6445 57.4181 7.8826 57.7678 8.23223C58.1174 8.58186 58.3555 9.02732 58.452 9.51227C58.5484 9.99723 58.4989 10.4999 58.3097 10.9567C58.1205 11.4135 57.8001 11.804 57.3889 12.0787C56.9778 12.3534 56.4945 12.5 56 12.5C55.337 12.5 54.7011 12.2366 54.2322 11.7678C53.7634 11.2989 53.5 10.663 53.5 10ZM63 15C63 15.3978 62.842 15.7794 62.5607 16.0607C62.2794 16.342 61.8978 16.5 61.5 16.5H57.5V16.5637L60.765 21.695C60.9783 22.0305 61.0497 22.4371 60.9635 22.8252C60.8772 23.2134 60.6404 23.5514 60.305 23.765C60.065 23.9194 59.7854 24.001 59.5 24C59.2475 24.0001 58.9991 23.9364 58.7777 23.815C58.5564 23.6935 58.3693 23.5181 58.2338 23.305L56 19.7938L53.765 23.305C53.5462 23.6285 53.2098 23.854 52.8274 23.9334C52.445 24.0128 52.0467 23.9399 51.7172 23.7302C51.3876 23.5205 51.1529 23.1906 51.0629 22.8105C50.9728 22.4304 51.0346 22.0302 51.235 21.695L54.5 16.5637V16.5H50.5C50.1022 16.5 49.7207 16.342 49.4393 16.0607C49.158 15.7794 49 15.3978 49 15C49 14.6022 49.158 14.2206 49.4393 13.9393C49.7207 13.658 50.1022 13.5 50.5 13.5H61.5C61.8978 13.5 62.2794 13.658 62.5607 13.9393C62.842 14.2206 63 14.6022 63 15Z" fill="white"/>
</g>
<defs>
<clipPath id="clip0_27_3282">
<rect width="72" height="32" rx="5" fill="white"/>
</clipPath>
</defs>
</svg>
