<svg width="72" height="32" viewBox="0 0 72 32" fill="none" xmlns="http://www.w3.org/2000/svg">
<g clip-path="url(#clip0_27_3287)">
<path d="M15.0001 6C15.0001 5.20888 15.2347 4.43552 15.6743 3.77772C16.1138 3.11992 16.7385 2.60723 17.4694 2.30448C18.2003 2.00173 19.0046 1.92252 19.7805 2.07686C20.5564 2.2312 21.2692 2.61216 21.8286 3.17157C22.388 3.73098 22.7689 4.44372 22.9233 5.21964C23.0776 5.99556 22.9984 6.79983 22.6957 7.53074C22.3929 8.26164 21.8802 8.88635 21.2224 9.32588C20.5646 9.76541 19.7913 10 19.0001 10C17.9393 10 16.9219 9.57857 16.1717 8.82843C15.4216 8.07828 15.0001 7.06087 15.0001 6ZM24.0001 17C21.0789 17 20.3851 15.93 19.4251 14.45C18.9689 13.745 18.4514 12.95 17.6551 12.2563C17.3501 11.9895 17.0144 11.76 16.6551 11.5725C16.5335 11.5098 16.4003 11.4728 16.2638 11.4637C16.1273 11.4545 15.9903 11.4735 15.8614 11.5195C15.7325 11.5654 15.6145 11.6373 15.5145 11.7307C15.4145 11.8241 15.3347 11.937 15.2801 12.0625L8.08264 28.6013C7.97717 28.8444 7.97256 29.1195 8.06983 29.3661C8.1671 29.6127 8.35829 29.8106 8.60139 29.9163C8.72697 29.9718 8.86282 30.0003 9.00014 30C9.19502 30.0001 9.38568 29.9432 9.54869 29.8364C9.71169 29.7296 9.83993 29.5775 9.91764 29.3988L14.1164 19.74L18.0001 22.515V29C18.0001 29.2652 18.1055 29.5196 18.293 29.7071C18.4806 29.8946 18.7349 30 19.0001 30C19.2654 30 19.5197 29.8946 19.7072 29.7071C19.8948 29.5196 20.0001 29.2652 20.0001 29V22C20.0001 21.8408 19.9621 21.6839 19.8893 21.5424C19.8165 21.4009 19.7109 21.2788 19.5814 21.1863L14.9314 17.865L16.6064 14.0138C17.0526 14.4663 17.3914 14.9888 17.7476 15.5375C18.7064 17.0175 19.7814 18.6763 22.9976 18.9575V29C22.9976 29.2652 23.103 29.5196 23.2905 29.7071C23.4781 29.8946 23.7324 30 23.9976 30C24.2629 30 24.5172 29.8946 24.7047 29.7071C24.8923 29.5196 24.9976 29.2652 24.9976 29V18C24.9976 17.7352 24.8926 17.4812 24.7056 17.2938C24.5186 17.1063 24.2649 17.0007 24.0001 17ZM9.00014 19C9.19601 19.0002 9.38761 18.9428 9.55116 18.835C9.71471 18.7272 9.84302 18.5738 9.92014 18.3938L12.9201 11.3938C13.0245 11.1501 13.0277 10.8749 12.9293 10.6288C12.8309 10.3827 12.6387 10.1858 12.3951 10.0813L8.89514 8.58125C8.65146 8.47694 8.37633 8.47365 8.13022 8.57209C7.88411 8.67053 7.68716 8.86266 7.58264 9.10625L4.58264 16.1063C4.47833 16.3499 4.47503 16.6251 4.57348 16.8712C4.67192 17.1173 4.86405 17.3142 5.10764 17.4188L8.60764 18.9188C8.73165 18.972 8.86516 18.9997 9.00014 19Z" fill="white"/>
<path d="M58.9996 10.5C59.8896 10.5 60.7597 10.2361 61.4997 9.74162C62.2397 9.24715 62.8165 8.54434 63.1571 7.72208C63.4977 6.89981 63.5868 5.99501 63.4131 5.1221C63.2395 4.24918 62.8109 3.44736 62.1816 2.81802C61.5523 2.18869 60.7504 1.7601 59.8775 1.58647C59.0046 1.41283 58.0998 1.50195 57.2775 1.84254C56.4553 2.18314 55.7525 2.75991 55.258 3.49994C54.7635 4.23996 54.4996 5.10999 54.4996 6C54.4996 7.19348 54.9737 8.33807 55.8176 9.18198C56.6615 10.0259 57.8061 10.5 58.9996 10.5ZM58.9996 4.5C59.2963 4.5 59.5863 4.58798 59.833 4.7528C60.0796 4.91762 60.2719 5.15189 60.3854 5.42598C60.499 5.70007 60.5287 6.00167 60.4708 6.29264C60.4129 6.58361 60.2701 6.85088 60.0603 7.06066C59.8505 7.27044 59.5832 7.4133 59.2923 7.47118C59.0013 7.52906 58.6997 7.49935 58.4256 7.38582C58.1515 7.27229 57.9172 7.08003 57.7524 6.83336C57.5876 6.58668 57.4996 6.29667 57.4996 6C57.4996 5.60218 57.6577 5.22065 57.939 4.93934C58.2203 4.65804 58.6018 4.5 58.9996 4.5ZM65.4996 18V29C65.4996 29.3978 65.3416 29.7794 65.0603 30.0607C64.779 30.342 64.3974 30.5 63.9996 30.5C63.6018 30.5 63.2203 30.342 62.939 30.0607C62.6576 29.7794 62.4996 29.3978 62.4996 29V19.405C59.3846 18.9838 58.2571 17.2438 57.3271 15.81C57.1334 15.5113 56.9459 15.2213 56.7434 14.95L55.5509 17.7L59.8746 20.7788C60.0684 20.9179 60.2262 21.1013 60.3349 21.3137C60.4436 21.5261 60.5001 21.7614 60.4996 22V29C60.4996 29.3978 60.3416 29.7794 60.0603 30.0607C59.779 30.342 59.3974 30.5 58.9996 30.5C58.6018 30.5 58.2203 30.342 57.939 30.0607C57.6577 29.7794 57.4996 29.3978 57.4996 29V22.7713L54.3284 20.5063L50.3746 29.5975C50.2996 29.7833 50.1882 29.9522 50.0469 30.0943C49.9056 30.2363 49.7372 30.3486 49.5518 30.4245C49.3663 30.5004 49.1676 30.5384 48.9672 30.5362C48.7668 30.534 48.569 30.4917 48.3852 30.4118C48.2015 30.3319 48.0356 30.2159 47.8974 30.0709C47.7592 29.9258 47.6515 29.7545 47.5806 29.567C47.5097 29.3796 47.4771 29.1799 47.4846 28.9797C47.4922 28.7795 47.5398 28.5828 47.6246 28.4013L54.8146 11.8625C54.8963 11.6744 55.0157 11.5051 55.1653 11.3649C55.315 11.2248 55.4919 11.1168 55.6849 11.0477C55.878 10.9786 56.0832 10.9498 56.2878 10.9631C56.4924 10.9764 56.6921 11.0315 56.8746 11.125C57.2711 11.3308 57.642 11.5825 57.9796 11.875C58.8271 12.6113 59.3659 13.4413 59.8409 14.1738C60.7834 15.625 61.3496 16.5 63.9996 16.5C64.3974 16.5 64.779 16.658 65.0603 16.9393C65.3416 17.2206 65.4996 17.6022 65.4996 18ZM48.0746 19.235L44.9084 17.875C44.5443 17.7175 44.2574 17.4222 44.1105 17.0537C43.9636 16.6852 43.9687 16.2735 44.1246 15.9088L47.1246 8.90875C47.2821 8.54466 47.5774 8.25779 47.9459 8.11091C48.3144 7.96402 48.7261 7.96909 49.0909 8.125L52.2921 9.5C52.4862 9.56804 52.6642 9.67525 52.815 9.81497C52.9659 9.95469 53.0864 10.1239 53.1691 10.3122C53.2518 10.5005 53.295 10.7037 53.2958 10.9094C53.2966 11.115 53.2552 11.3186 53.174 11.5075C53.0929 11.6965 52.9737 11.8667 52.824 12.0077C52.6743 12.1486 52.4972 12.2573 52.3037 12.3269C52.1102 12.3965 51.9045 12.4256 51.6993 12.4124C51.4941 12.3992 51.2938 12.3439 51.1109 12.25L49.2871 11.47L47.4696 15.7125L49.2559 16.4775C49.4388 16.5538 49.6048 16.6656 49.7443 16.8064C49.8838 16.9472 49.994 17.1143 50.0685 17.2979C50.143 17.4816 50.1804 17.6782 50.1785 17.8764C50.1766 18.0746 50.1354 18.2704 50.0574 18.4526C49.9793 18.6348 49.866 18.7997 49.7238 18.9378C49.5816 19.0759 49.4135 19.1845 49.2292 19.2573C49.0448 19.33 48.8478 19.3655 48.6497 19.3617C48.4515 19.3579 48.256 19.3148 48.0746 19.235Z" fill="white"/>
</g>
<defs>
<clipPath id="clip0_27_3287">
<rect width="72" height="32" rx="5" fill="white"/>
</clipPath>
</defs>
</svg>
