<svg width="72" height="32" viewBox="0 0 72 32" fill="none" xmlns="http://www.w3.org/2000/svg">
<g clip-path="url(#clip0_27_4805)">
<path d="M18.0003 7.5C18.0003 6.80777 18.2055 6.13108 18.5901 5.55551C18.9747 4.97993 19.5213 4.53133 20.1609 4.26642C20.8004 4.00152 21.5042 3.9322 22.1831 4.06725C22.862 4.2023 23.4857 4.53564 23.9751 5.02513C24.4646 5.51461 24.798 6.13825 24.933 6.81719C25.0681 7.49612 24.9988 8.19985 24.7339 8.83939C24.4689 9.47893 24.0203 10.0256 23.4448 10.4101C22.8692 10.7947 22.1925 11 21.5003 11C20.572 11 19.6818 10.6313 19.0254 9.97487C18.369 9.3185 18.0003 8.42826 18.0003 7.5ZM4.72028 10.96L18.5953 15.005L19.2965 15.7063C19.4831 15.8933 19.7361 15.9989 20.0003 16H25.0003C25.2655 16 25.5198 15.8946 25.7074 15.7071C25.8949 15.5196 26.0003 15.2652 26.0003 15C26.0003 14.7348 25.8949 14.4804 25.7074 14.2929C25.5198 14.1054 25.2655 14 25.0003 14H20.414L19.824 13.41L16.7115 10.2975C16.6187 10.2045 16.5084 10.1308 16.387 10.0804C16.2656 10.0301 16.1354 10.0042 16.004 10.0042C15.8726 10.0042 15.7425 10.0301 15.6211 10.0804C15.4997 10.1308 15.3894 10.2045 15.2965 10.2975L14.0003 11.5838L5.28028 9.04C5.02567 8.96574 4.75199 8.99566 4.51944 9.12319C4.2869 9.25071 4.11454 9.46539 4.04028 9.72C3.96601 9.97461 3.99594 10.2483 4.12346 10.4808C4.25099 10.7134 4.46567 10.8857 4.72028 10.96ZM29.8328 24.1438C29.7599 24.0344 29.6663 23.9404 29.5571 23.8673C29.4479 23.7941 29.3254 23.7432 29.1965 23.7174C29.0677 23.6916 28.935 23.6915 28.8061 23.7171C28.6772 23.7426 28.5546 23.7933 28.4453 23.8663C27.6278 24.4126 26.7004 24.773 25.7285 24.9221C24.7566 25.0711 23.7639 25.0051 22.8203 24.7288L14.9715 22.4438L18.709 18.7063C18.8322 18.5831 18.9211 18.4299 18.9668 18.2619C19.0126 18.0939 19.0137 17.9168 18.97 17.7482C18.9263 17.5796 18.8393 17.4253 18.7177 17.3007C18.5961 17.176 18.444 17.0853 18.2765 17.0375L11.2765 15.0375C11.1502 15.0014 11.018 14.9905 10.8875 15.0055C10.757 15.0205 10.6307 15.061 10.5158 15.1248C10.2839 15.2536 10.1126 15.4693 10.0397 15.7244C10.0035 15.8507 9.99266 15.9829 10.0076 16.1134C10.0226 16.2439 10.0631 16.3702 10.1269 16.4851C10.2557 16.717 10.4714 16.8883 10.7265 16.9613L16.0915 18.5L12.779 21.8113L3.27903 19.045C3.15296 19.0082 3.02088 18.9967 2.89034 19.0109C2.75979 19.0252 2.63334 19.065 2.51819 19.1282C2.28565 19.2557 2.11329 19.4704 2.03903 19.725C1.96476 19.9796 1.99469 20.2533 2.12221 20.4858C2.24974 20.7184 2.46442 20.8907 2.71903 20.965L22.2578 26.655C23.4818 27.0133 24.7695 27.0988 26.0301 26.9055C27.2907 26.7122 28.4936 26.2448 29.554 25.5363C29.6642 25.4635 29.7589 25.3696 29.8326 25.2601C29.9063 25.1506 29.9576 25.0275 29.9835 24.8981C30.0094 24.7686 30.0094 24.6353 29.9836 24.5058C29.9577 24.3764 29.9065 24.2533 29.8328 24.1438Z" fill="white"/>
<path d="M61.9997 11.5C62.7909 11.5 63.5642 11.2654 64.222 10.8259C64.8798 10.3864 65.3925 9.76164 65.6952 9.03074C65.998 8.29983 66.0772 7.49556 65.9229 6.71964C65.7685 5.94372 65.3876 5.23098 64.8282 4.67157C64.2687 4.11216 63.556 3.7312 62.7801 3.57686C62.0042 3.42252 61.1999 3.50173 60.469 3.80448C59.7381 4.10723 59.1134 4.61992 58.6739 5.27772C58.2343 5.93552 57.9997 6.70888 57.9997 7.5C57.9997 8.56087 58.4212 9.57828 59.1713 10.3284C59.9214 11.0786 60.9389 11.5 61.9997 11.5ZM61.9997 6.5C62.1975 6.5 62.3909 6.55865 62.5553 6.66853C62.7197 6.77841 62.8479 6.93459 62.9236 7.11732C62.9993 7.30004 63.0191 7.50111 62.9805 7.69509C62.9419 7.88907 62.8467 8.06726 62.7068 8.20711C62.567 8.34696 62.3888 8.4422 62.1948 8.48079C62.0008 8.51937 61.7998 8.49957 61.617 8.42388C61.4343 8.34819 61.2781 8.22002 61.1683 8.05557C61.0584 7.89112 60.9997 7.69778 60.9997 7.5C60.9997 7.23479 61.1051 6.98043 61.2926 6.7929C61.4802 6.60536 61.7345 6.5 61.9997 6.5ZM43.5597 10.08C43.6711 9.69809 43.9297 9.37607 44.2785 9.18478C44.6273 8.9935 45.0378 8.94861 45.4197 9.06L53.8572 11.52L54.9397 10.4388C55.0791 10.2989 55.2447 10.188 55.427 10.1122C55.6093 10.0365 55.8048 9.99757 56.0022 9.99757C56.1997 9.99757 56.3951 10.0365 56.5775 10.1122C56.7598 10.188 56.9254 10.2989 57.0647 10.4388L60.6247 14H64.9997C65.3976 14 65.7791 14.158 66.0604 14.4393C66.3417 14.7206 66.4997 15.1022 66.4997 15.5C66.4997 15.8978 66.3417 16.2794 66.0604 16.5607C65.7791 16.842 65.3976 17 64.9997 17H59.9997C59.6022 17 59.221 16.8422 58.9397 16.5613L58.3285 15.95L44.5785 11.9413C44.3894 11.886 44.213 11.794 44.0594 11.6705C43.9058 11.547 43.7781 11.3945 43.6835 11.2217C43.5889 11.0488 43.5293 10.8591 43.508 10.6632C43.4868 10.4673 43.5044 10.2691 43.5597 10.08ZM69.831 26.4463C68.7105 27.1936 67.4399 27.6864 66.1085 27.8901C64.7772 28.0937 63.4174 28.0032 62.1247 27.625L42.581 21.9388C42.3818 21.8931 42.194 21.8072 42.0291 21.6864C41.8643 21.5655 41.7259 21.4123 41.6224 21.236C41.519 21.0598 41.4526 20.8642 41.4274 20.6614C41.4023 20.4586 41.4188 20.2528 41.476 20.0566C41.5333 19.8603 41.63 19.6779 41.7603 19.5204C41.8906 19.363 42.0517 19.2338 42.2337 19.1408C42.4157 19.0478 42.6148 18.9931 42.8188 18.9798C43.0227 18.9666 43.2272 18.9951 43.4197 19.0638L53.4097 21.9725L55.136 20.2463L50.5872 18.9413C50.3945 18.8901 50.2139 18.8011 50.0559 18.6793C49.898 18.5575 49.7659 18.4055 49.6675 18.2321C49.569 18.0586 49.5061 17.8673 49.4824 17.6693C49.4588 17.4713 49.4749 17.2706 49.5297 17.0788C49.5846 16.8871 49.6771 16.7082 49.8019 16.5527C49.9267 16.3971 50.0813 16.268 50.2566 16.1729C50.4318 16.0778 50.6243 16.0187 50.8228 15.9988C51.0212 15.979 51.2216 15.999 51.4122 16.0575L58.4122 18.0575C58.6628 18.1295 58.8903 18.2656 59.0723 18.4523C59.2543 18.6391 59.3844 18.87 59.4499 19.1224C59.5154 19.3748 59.514 19.6399 59.4458 19.8915C59.3776 20.1432 59.2449 20.3727 59.061 20.5575L56.6947 22.925L62.9572 24.75C63.8312 25.006 64.7507 25.0671 65.6509 24.9291C66.5511 24.7911 67.4101 24.4573 68.1672 23.9513C68.4987 23.7306 68.9043 23.6507 69.2948 23.7291C69.6852 23.8076 70.0285 24.0379 70.2491 24.3694C70.4697 24.7009 70.5496 25.1065 70.4712 25.4969C70.3928 25.8873 70.1625 26.2306 69.831 26.4513V26.4463Z" fill="white"/>
</g>
<defs>
<clipPath id="clip0_27_4805">
<rect width="72" height="32" rx="5" fill="white"/>
</clipPath>
</defs>
</svg>
