<svg width="72" height="32" viewBox="0 0 72 32" fill="none" xmlns="http://www.w3.org/2000/svg">
<g clip-path="url(#clip0_27_3262)">
<path d="M12.5001 4.5C12.5001 3.80777 12.7054 3.13108 13.09 2.55551C13.4745 1.97993 14.0212 1.53133 14.6607 1.26642C15.3003 1.00152 16.004 0.932205 16.6829 1.06725C17.3619 1.2023 17.9855 1.53564 18.475 2.02513C18.9645 2.51461 19.2978 3.13825 19.4329 3.81719C19.5679 4.49612 19.4986 5.19985 19.2337 5.83939C18.9688 6.47894 18.5202 7.02556 17.9446 7.41015C17.369 7.79473 16.6923 8 16.0001 8C15.0718 8 14.1816 7.63125 13.5252 6.97487C12.8689 6.3185 12.5001 5.42826 12.5001 4.5ZM26.9276 17.5975L21.2714 11.185C20.9429 10.8126 20.539 10.5143 20.0864 10.31C19.6338 10.1057 19.1429 10 18.6464 10H13.3539C12.8573 10 12.3664 10.1057 11.9138 10.31C11.4612 10.5143 11.0573 10.8126 10.7289 11.185L5.07261 17.5975C4.70532 17.9733 4.50069 18.4785 4.50295 19.004C4.5052 19.5295 4.71417 20.0329 5.08466 20.4056C5.45515 20.7782 5.95741 20.99 6.48285 20.9953C7.0083 21.0006 7.5147 20.7989 7.8926 20.4338L11.1251 17.8375L8.66261 27.1975C8.44836 27.6785 8.43242 28.2245 8.61823 28.7171C8.80404 29.2098 9.17662 29.6093 9.65512 29.8289C10.1336 30.0486 10.6794 30.0707 11.1741 29.8905C11.6689 29.7103 12.0725 29.3422 12.2976 28.8663L16.0001 22.5L19.6976 28.875C19.9227 29.351 20.3264 29.719 20.8211 29.8992C21.3158 30.0795 21.8616 30.0573 22.3401 29.8377C22.8186 29.618 23.1912 29.2185 23.377 28.7259C23.5628 28.2332 23.5468 27.6872 23.3326 27.2063L20.8751 17.8375L24.1126 20.4338C24.4905 20.7989 24.9969 21.0006 25.5224 20.9953C26.0478 20.99 26.5501 20.7782 26.9206 20.4056C27.291 20.0329 27.5 19.5295 27.5023 19.004C27.5045 18.4785 27.2999 17.9733 26.9326 17.5975H26.9276Z" fill="white"/>
<path d="M67.6616 16.4175L62.0216 10.0238C61.6188 9.56608 61.1273 9.19501 60.5768 8.93308C60.0262 8.67115 59.4283 8.52381 58.8191 8.5C59.5453 7.91643 60.0725 7.12185 60.3279 6.22591C60.5833 5.32997 60.5544 4.37685 60.245 3.49806C59.9357 2.61928 59.3612 1.85817 58.6009 1.31976C57.8406 0.781358 56.932 0.492203 56.0003 0.492203C55.0687 0.492203 54.16 0.781358 53.3997 1.31976C52.6394 1.85817 52.0649 2.61928 51.7556 3.49806C51.4463 4.37685 51.4173 5.32997 51.6727 6.22591C51.9282 7.12185 52.4553 7.91643 53.1816 8.5C52.5724 8.52381 51.9744 8.67115 51.4239 8.93308C50.8734 9.19501 50.3818 9.56608 49.9791 10.0238L44.3391 16.4175C43.7955 16.9809 43.4937 17.7344 43.4981 18.5172C43.5025 19.3 43.8126 20.0501 44.3624 20.6074C44.9122 21.1647 45.658 21.485 46.4407 21.4999C47.2234 21.5149 47.9809 21.2234 48.5516 20.6875L49.3928 20.0138L47.7178 26.375C47.4253 27.0944 47.4231 27.8991 47.7118 28.62C48.0004 29.3409 48.5573 29.9219 49.2654 30.2406C49.9735 30.5594 50.7776 30.5911 51.5087 30.3292C52.2397 30.0673 52.8407 29.5322 53.1853 28.8363L56.0003 23.9875L58.8153 28.8363C59.1562 29.5257 59.7506 30.0565 60.4741 30.3175C61.0191 30.5161 61.61 30.5525 62.1752 30.4222C62.7405 30.2918 63.2558 30.0004 63.6589 29.5832C64.0619 29.1661 64.3354 28.641 64.4461 28.0716C64.5568 27.5021 64.5001 26.9128 64.2828 26.375L62.6078 20.0138L63.4491 20.6875C64.0198 21.2234 64.7773 21.5149 65.56 21.4999C66.3426 21.485 67.0885 21.1647 67.6382 20.6074C68.188 20.0501 68.4982 19.3 68.5025 18.5172C68.5069 17.7344 68.2051 16.9809 67.6616 16.4175ZM56.0003 3.5C56.297 3.5 56.587 3.58797 56.8337 3.7528C57.0803 3.91762 57.2726 4.15189 57.3861 4.42598C57.4997 4.70007 57.5294 5.00167 57.4715 5.29264C57.4136 5.58361 57.2708 5.85088 57.061 6.06066C56.8512 6.27044 56.5839 6.4133 56.293 6.47118C56.002 6.52906 55.7004 6.49935 55.4263 6.38582C55.1522 6.27229 54.9179 6.08003 54.7531 5.83336C54.5883 5.58668 54.5003 5.29667 54.5003 5C54.5003 4.60218 54.6584 4.22065 54.9397 3.93934C55.221 3.65804 55.6025 3.5 56.0003 3.5ZM65.3753 18.39L60.9353 14.8288C60.6891 14.6313 60.3868 14.5166 60.0716 14.5009C59.7564 14.4853 59.4443 14.5694 59.1797 14.7414C58.915 14.9134 58.7114 15.1644 58.5977 15.4589C58.4841 15.7533 58.4662 16.0761 58.5466 16.3813L61.4091 27.25C61.4321 27.3358 61.4627 27.4195 61.5003 27.5C61.4817 27.4573 61.4608 27.4156 61.4378 27.375L57.2978 20.25C57.166 20.0227 56.9767 19.834 56.749 19.7029C56.5213 19.5717 56.2631 19.5027 56.0003 19.5027C55.7375 19.5027 55.4794 19.5717 55.2516 19.7029C55.0239 19.834 54.8347 20.0227 54.7028 20.25L50.5628 27.375C50.5398 27.4156 50.519 27.4573 50.5003 27.5C50.5374 27.4193 50.568 27.3357 50.5916 27.25L53.4503 16.385C53.5307 16.0798 53.5128 15.757 53.3992 15.4626C53.2855 15.1682 53.0819 14.9171 52.8172 14.7451C52.5526 14.5731 52.2405 14.489 51.9253 14.5047C51.61 14.5204 51.3078 14.6351 51.0616 14.8325L46.6253 18.39C46.5816 18.4238 46.5399 18.4601 46.5003 18.4988C46.5228 18.4775 46.5441 18.4538 46.5653 18.4313L52.2291 12.0075C52.3699 11.848 52.543 11.7202 52.737 11.6327C52.9309 11.5452 53.1413 11.5 53.3541 11.5H58.6466C58.8594 11.5 59.0697 11.5452 59.2637 11.6327C59.4576 11.7202 59.6308 11.848 59.7716 12.0075L65.4366 18.4313C65.4578 18.4538 65.4791 18.4775 65.5016 18.4988C65.4616 18.4601 65.4195 18.4238 65.3753 18.39Z" fill="white"/>
</g>
<defs>
<clipPath id="clip0_27_3262">
<rect width="72" height="32" rx="5" fill="white"/>
</clipPath>
</defs>
</svg>
