<svg width="72" height="32" viewBox="0 0 72 32" fill="none" xmlns="http://www.w3.org/2000/svg">
<g clip-path="url(#clip0_27_3267)">
<path d="M12.5001 4.5C12.5001 3.80777 12.7054 3.13108 13.09 2.55551C13.4745 1.97993 14.0212 1.53133 14.6607 1.26642C15.3003 1.00152 16.004 0.932205 16.6829 1.06725C17.3619 1.2023 17.9855 1.53564 18.475 2.02513C18.9645 2.51461 19.2978 3.13825 19.4329 3.81719C19.5679 4.49612 19.4986 5.19985 19.2337 5.83939C18.9688 6.47894 18.5202 7.02556 17.9446 7.41015C17.369 7.79473 16.6923 8 16.0001 8C15.0718 8 14.1816 7.63125 13.5252 6.97487C12.8689 6.3185 12.5001 5.42826 12.5001 4.5ZM28.4501 11.5713C28.359 11.1232 28.1143 10.721 27.7583 10.4342C27.4023 10.1473 26.9573 9.99374 26.5001 10H5.5001C5.04413 9.99998 4.60184 10.1558 4.24653 10.4415C3.89122 10.7273 3.64423 11.1259 3.54649 11.5713C3.44875 12.0167 3.50613 12.4821 3.70912 12.8904C3.91211 13.2987 4.24852 13.6253 4.6626 13.8163H4.6701L11.4064 16.7825L8.66635 27.195C8.45725 27.6734 8.44348 28.2145 8.628 28.7029C8.81251 29.1913 9.18068 29.5882 9.65385 29.8088C9.91832 29.9343 10.2073 29.9996 10.5001 30C10.8771 30.0006 11.2466 29.8945 11.566 29.6942C11.8853 29.4938 12.1416 29.2072 12.3051 28.8675L16.0001 22.5L19.6976 28.875C19.9276 29.3428 20.3311 29.7024 20.8223 29.8771C21.3134 30.0517 21.8534 30.0277 22.3271 29.8102C22.8009 29.5926 23.1709 29.1987 23.3585 28.7123C23.5461 28.226 23.5363 27.6856 23.3314 27.2063L20.5914 16.7938L27.3414 13.8238C27.7602 13.637 28.1005 13.3095 28.303 12.898C28.5056 12.4865 28.5576 12.0171 28.4501 11.5713Z" fill="white"/>
<path d="M69.4254 10.8563C69.2886 10.1843 68.9215 9.5812 68.3875 9.15102C67.8535 8.72084 67.186 8.49059 66.5004 8.50001H58.8241C59.5491 7.91575 60.075 7.121 60.3293 6.22531C60.5836 5.32963 60.5538 4.37711 60.244 3.49906C59.9342 2.62102 59.3597 1.86068 58.5997 1.32286C57.8396 0.785046 56.9315 0.496231 56.0004 0.496231C55.0693 0.496231 54.1611 0.785046 53.4011 1.32286C52.641 1.86068 52.0665 2.62102 51.7567 3.49906C51.447 4.37711 51.4172 5.32963 51.6715 6.22531C51.9258 7.121 52.4517 7.91575 53.1766 8.50001H45.5004C44.8172 8.5017 44.1551 8.73652 43.6235 9.16564C43.0919 9.59476 42.7227 10.1925 42.5769 10.8599C42.4311 11.5274 42.5175 12.2246 42.8218 12.8362C43.1261 13.4479 43.6301 13.9374 44.2504 14.2238L44.2741 14.235L50.2279 16.86L47.7204 26.375C47.4326 27.0875 47.4292 27.8833 47.7108 28.5982C47.9925 29.3131 48.5377 29.8927 49.2341 30.2175C49.6303 30.4038 50.0626 30.5003 50.5004 30.5C51.059 30.501 51.6067 30.346 52.082 30.0525C52.5572 29.759 52.9411 29.3386 53.1904 28.8388L56.0004 23.9888L58.8141 28.8388C59.1593 29.5341 59.7605 30.0686 60.4915 30.3299C61.2225 30.5911 62.0263 30.5589 62.734 30.2399C63.4417 29.9209 63.9983 29.3401 64.2866 28.6193C64.575 27.8986 64.5728 27.0941 64.2804 26.375L61.7804 16.8563L67.7341 14.2313L67.7579 14.22C68.3839 13.9411 68.8931 13.4525 69.1975 12.8385C69.5019 12.2244 69.5825 11.5234 69.4254 10.8563ZM56.0004 3.50001C56.2971 3.50001 56.5871 3.58798 56.8337 3.7528C57.0804 3.91762 57.2727 4.15189 57.3862 4.42598C57.4997 4.70007 57.5294 5.00167 57.4716 5.29264C57.4137 5.58361 57.2708 5.85089 57.061 6.06067C56.8513 6.27044 56.584 6.41331 56.293 6.47118C56.002 6.52906 55.7004 6.49936 55.4264 6.38583C55.1523 6.27229 54.918 6.08003 54.7532 5.83336C54.5884 5.58669 54.5004 5.29668 54.5004 5.00001C54.5004 4.60218 54.6584 4.22065 54.9397 3.93935C55.221 3.65804 55.6026 3.50001 56.0004 3.50001ZM59.3954 14.625C59.0695 14.7688 58.8055 15.0238 58.6504 15.3444C58.4954 15.665 58.4595 16.0303 58.5491 16.375L61.4079 27.25C61.4307 27.3359 61.4613 27.4196 61.4991 27.5C61.4804 27.46 61.4591 27.42 61.4366 27.3813L57.2979 20.25C57.166 20.0227 56.9768 19.834 56.7491 19.7029C56.5213 19.5717 56.2632 19.5027 56.0004 19.5027C55.7376 19.5027 55.4794 19.5717 55.2517 19.7029C55.024 19.834 54.8347 20.0227 54.7029 20.25L50.5641 27.3813C50.5416 27.42 50.5204 27.46 50.5016 27.5C50.5395 27.4196 50.57 27.3359 50.5929 27.25L53.4516 16.385C53.5413 16.0403 53.5054 15.675 53.3503 15.3544C53.1953 15.0338 52.9312 14.7788 52.6054 14.635L45.5004 11.5H66.5004L59.3954 14.625Z" fill="white"/>
</g>
<defs>
<clipPath id="clip0_27_3267">
<rect width="72" height="32" rx="5" fill="white"/>
</clipPath>
</defs>
</svg>
