<svg width="72" height="32" viewBox="0 0 72 32" fill="none" xmlns="http://www.w3.org/2000/svg">
<g clip-path="url(#clip0_27_3272)">
<path d="M11.9865 6C11.9865 5.20888 12.2211 4.43552 12.6606 3.77772C13.1002 3.11992 13.7249 2.60723 14.4558 2.30448C15.1867 2.00173 15.991 1.92252 16.7669 2.07686C17.5428 2.2312 18.2555 2.61216 18.8149 3.17157C19.3744 3.73098 19.7553 4.44372 19.9097 5.21964C20.064 5.99556 19.9848 6.79983 19.682 7.53074C19.3793 8.26164 18.8666 8.88635 18.2088 9.32588C17.551 9.76541 16.7776 10 15.9865 10C14.9257 10 13.9082 9.57857 13.1581 8.82843C12.4079 8.07828 11.9865 7.06087 11.9865 6ZM28.5153 15.1425C28.3003 15.0138 23.194 12 16.0003 12C8.80652 12 3.70027 15.0138 3.48527 15.1425C3.25785 15.2791 3.094 15.5004 3.02976 15.7578C2.96553 16.0152 3.00618 16.2876 3.14277 16.515C3.27936 16.7424 3.50069 16.9063 3.75808 16.9705C4.01548 17.0347 4.28785 16.9941 4.51527 16.8575C4.56027 16.83 8.87902 14.2825 15.0003 14.0225V18.625L7.25027 27.3363C7.1631 27.4347 7.09619 27.5494 7.05335 27.6738C7.01051 27.7981 6.99259 27.9297 7.0006 28.061C7.00861 28.1923 7.04239 28.3207 7.10003 28.4389C7.15767 28.5571 7.23803 28.6628 7.33652 28.75C7.43501 28.8372 7.54971 28.9041 7.67406 28.9469C7.79841 28.9898 7.92998 29.0077 8.06126 28.9997C8.19254 28.9917 8.32095 28.9579 8.43917 28.9002C8.55739 28.8426 8.6631 28.7622 8.75027 28.6638L16.0003 20.5L23.2503 28.6588C23.4263 28.8577 23.6742 28.9785 23.9393 28.9947C24.2044 29.0108 24.4651 28.921 24.664 28.745C24.8629 28.569 24.9838 28.3211 24.9999 28.056C25.0161 27.7909 24.9263 27.5302 24.7503 27.3313L17.0003 18.625V14.0238C23.0965 14.2838 27.4415 16.8313 27.4853 16.8575C27.5979 16.9251 27.7227 16.9699 27.8526 16.9893C27.9825 17.0087 28.115 17.0023 28.2425 16.9705C28.3699 16.9387 28.4898 16.8821 28.5954 16.804C28.701 16.7258 28.7901 16.6276 28.8578 16.515C28.9254 16.4024 28.9702 16.2776 28.9896 16.1476C29.009 16.0177 29.0026 15.8853 28.9708 15.7578C28.939 15.6304 28.8824 15.5104 28.8042 15.4049C28.7261 15.2993 28.6279 15.2101 28.5153 15.1425Z" fill="white"/>
<path d="M56.0004 10.5C56.8904 10.5 57.7605 10.2361 58.5005 9.74162C59.2405 9.24715 59.8173 8.54434 60.1579 7.72208C60.4985 6.89981 60.5876 5.99501 60.414 5.1221C60.2403 4.24918 59.8117 3.44736 59.1824 2.81802C58.5531 2.18869 57.7513 1.7601 56.8783 1.58647C56.0054 1.41283 55.1006 1.50195 54.2784 1.84254C53.4561 2.18314 52.7533 2.75991 52.2588 3.49994C51.7644 4.23996 51.5004 5.10999 51.5004 6C51.5004 7.19348 51.9745 8.33807 52.8185 9.18198C53.6624 10.0259 54.807 10.5 56.0004 10.5ZM56.0004 4.5C56.2971 4.5 56.5871 4.58798 56.8338 4.7528C57.0805 4.91762 57.2727 5.15189 57.3863 5.42598C57.4998 5.70007 57.5295 6.00167 57.4716 6.29264C57.4137 6.58361 57.2709 6.85088 57.0611 7.06066C56.8513 7.27044 56.584 7.4133 56.2931 7.47118C56.0021 7.52906 55.7005 7.49935 55.4264 7.38582C55.1523 7.27229 54.9181 7.08003 54.7532 6.83336C54.5884 6.58668 54.5004 6.29667 54.5004 6C54.5004 5.60218 54.6585 5.22065 54.9398 4.93934C55.2211 4.65804 55.6026 4.5 56.0004 4.5ZM69.2867 17.2713C69.1854 17.4403 69.0517 17.5877 68.8934 17.7051C68.7351 17.8225 68.5552 17.9076 68.364 17.9554C68.1728 18.0032 67.9741 18.0129 67.7792 17.9839C67.5842 17.9548 67.3969 17.8877 67.2279 17.7863C67.1879 17.7625 63.1817 15.4213 57.5004 15.0513V18.4263L65.1254 27C65.2568 27.1477 65.3577 27.3199 65.4225 27.5066C65.4873 27.6934 65.5146 27.8911 65.503 28.0884C65.4914 28.2857 65.4411 28.4788 65.3548 28.6567C65.2686 28.8345 65.1482 28.9937 65.0004 29.125C64.8527 29.2563 64.6805 29.3573 64.4938 29.4221C64.307 29.4868 64.1094 29.5142 63.912 29.5026C63.7147 29.491 63.5216 29.4406 63.3438 29.3544C63.1659 29.2682 63.0068 29.1477 62.8754 29L56.0004 21.2613L49.1254 29C48.9941 29.1477 48.835 29.2682 48.6571 29.3544C48.4793 29.4406 48.2861 29.491 48.0888 29.5026C47.8915 29.5142 47.6938 29.4868 47.5071 29.4221C47.3203 29.3573 47.1482 29.2563 47.0004 29.125C46.8527 28.9937 46.7323 28.8345 46.646 28.6567C46.5598 28.4788 46.5094 28.2857 46.4978 28.0884C46.4862 27.8911 46.5136 27.6934 46.5784 27.5066C46.6432 27.3199 46.7441 27.1477 46.8754 27L54.5004 18.4263V15.0513C48.7854 15.42 44.8154 17.7613 44.7729 17.7875C44.4318 17.9922 44.0233 18.053 43.6373 17.9566C43.2514 17.8601 42.9195 17.6143 42.7148 17.2731C42.5101 16.932 42.4493 16.5235 42.5457 16.1375C42.6422 15.7516 42.888 15.4197 43.2292 15.215C43.4479 15.0825 48.6692 12 56.0004 12C63.3317 12 68.5529 15.0825 68.7717 15.2138C69.1128 15.4183 69.3586 15.75 69.4552 16.1359C69.5518 16.5217 69.4912 16.9301 69.2867 17.2713Z" fill="white"/>
</g>
<defs>
<clipPath id="clip0_27_3272">
<rect width="72" height="32" rx="5" fill="white"/>
</clipPath>
</defs>
</svg>
