<svg width="72" height="32" viewBox="0 0 72 32" fill="none" xmlns="http://www.w3.org/2000/svg">
<g clip-path="url(#clip0_27_3292)">
<path d="M15.0001 7C15.0001 6.20888 15.2347 5.43552 15.6742 4.77772C16.1137 4.11992 16.7384 3.60723 17.4693 3.30448C18.2002 3.00173 19.0045 2.92252 19.7804 3.07686C20.5564 3.2312 21.2691 3.61216 21.8285 4.17157C22.3879 4.73098 22.7689 5.44372 22.9232 6.21964C23.0776 6.99556 22.9983 7.79983 22.6956 8.53074C22.3928 9.26164 21.8802 9.88635 21.2224 10.3259C20.5646 10.7654 19.7912 11 19.0001 11C17.9392 11 16.9218 10.5786 16.1716 9.82843C15.4215 9.07828 15.0001 8.06087 15.0001 7ZM27.9101 16.26C27.8561 16.14 27.7789 16.0319 27.683 15.9418C27.5871 15.8518 27.4744 15.7815 27.3513 15.735C27.2282 15.6886 27.0972 15.6669 26.9657 15.6712C26.8342 15.6755 26.7049 15.7056 26.5851 15.76C26.5538 15.775 23.2463 17.1 17.5626 13.2363C11.0263 8.79375 6.56258 12.265 6.37383 12.415C6.26673 12.4955 6.17689 12.5966 6.10963 12.7125C6.04238 12.8283 5.99909 12.9565 5.98232 13.0894C5.96556 13.2223 5.97566 13.3572 6.01204 13.4861C6.04841 13.615 6.11032 13.7353 6.19408 13.8398C6.27784 13.9444 6.38174 14.031 6.49963 14.0946C6.61752 14.1582 6.74698 14.1975 6.88034 14.2101C7.01369 14.2227 7.14822 14.2084 7.27594 14.168C7.40366 14.1276 7.52196 14.062 7.62383 13.975C7.65632 13.9488 10.7638 11.5375 15.6326 14.3838C15.1013 16.0525 14.0376 18.3613 12.4763 20.2588C10.1563 23.0688 7.33757 24.3288 4.10133 24.0088C3.83727 23.9821 3.57343 24.0614 3.36784 24.2292C3.16225 24.3971 3.03176 24.6397 3.00508 24.9038C2.97839 25.1678 3.05769 25.4317 3.22553 25.6372C3.39338 25.8428 3.63602 25.9733 3.90008 26C4.288 26.0393 4.67767 26.0589 5.06758 26.0588C8.49008 26.0588 11.5676 24.5113 14.0213 21.5363C14.0926 21.45 14.1638 21.3613 14.2326 21.2738C16.6638 21.9113 21.0001 23.7875 21.0001 29C21.0001 29.2652 21.1054 29.5196 21.293 29.7071C21.4805 29.8946 21.7349 30 22.0001 30C22.2653 30 22.5196 29.8946 22.7072 29.7071C22.8947 29.5196 23.0001 29.2652 23.0001 29C23.0001 25.9188 21.7401 23.3313 19.3563 21.5175C18.1727 20.6425 16.8494 19.9743 15.4426 19.5413C16.2279 18.2663 16.8757 16.9117 17.3751 15.5C20.6426 17.5113 23.2301 18 24.9613 18C26.4838 18 27.3438 17.625 27.4201 17.59C27.5398 17.5351 27.6475 17.4571 27.7369 17.3604C27.8264 17.2638 27.8959 17.1504 27.9414 17.0268C27.9869 16.9032 28.0076 16.7719 28.0022 16.6403C27.9968 16.5087 27.9655 16.3795 27.9101 16.26Z" fill="white"/>
<path d="M59 11.5C59.89 11.5 60.7601 11.2361 61.5001 10.7416C62.2401 10.2471 62.8169 9.54434 63.1575 8.72208C63.4981 7.89981 63.5872 6.99501 63.4135 6.1221C63.2399 5.24918 62.8113 4.44736 62.182 3.81802C61.5527 3.18868 60.7508 2.7601 59.8779 2.58647C59.005 2.41283 58.1002 2.50195 57.2779 2.84254C56.4557 3.18314 55.7529 3.75991 55.2584 4.49994C54.7639 5.23996 54.5 6.10999 54.5 7C54.5 8.19348 54.9741 9.33807 55.818 10.182C56.6619 11.0259 57.8065 11.5 59 11.5ZM59 5.5C59.2967 5.5 59.5867 5.58798 59.8334 5.7528C60.08 5.91762 60.2723 6.15189 60.3858 6.42598C60.4994 6.70007 60.5291 7.00167 60.4712 7.29264C60.4133 7.58361 60.2705 7.85088 60.0607 8.06066C59.8509 8.27044 59.5836 8.4133 59.2927 8.47118C59.0017 8.52906 58.7001 8.49935 58.426 8.38582C58.1519 8.27229 57.9176 8.08003 57.7528 7.83336C57.588 7.58668 57.5 7.29667 57.5 7C57.5 6.60218 57.6581 6.22065 57.9394 5.93934C58.2207 5.65804 58.6022 5.5 59 5.5ZM68.5 17.175C68.5 17.4622 68.4176 17.7434 68.2625 17.9852C68.1074 18.2269 67.8861 18.4191 67.625 18.5388C66.7628 18.8439 65.8559 19.0036 64.9413 19.0113C63.1913 19.0113 60.66 18.5338 57.47 16.6363C57.1004 17.5386 56.6716 18.4155 56.1863 19.2613C59.14 20.3538 63.5 22.975 63.5 29C63.5 29.3978 63.342 29.7794 63.0607 30.0607C62.7794 30.342 62.3978 30.5 62 30.5C61.6022 30.5 61.2207 30.342 60.9394 30.0607C60.6581 29.7794 60.5 29.3978 60.5 29C60.5 26.6638 59.6313 24.8675 57.8425 23.5075C56.6975 22.6325 55.3988 22.1325 54.4138 21.84C54.3125 21.965 54.2088 22.09 54.1013 22.2088C51.6013 25.0675 48.4988 26.5538 45.07 26.5538C44.663 26.5537 44.2562 26.5333 43.8513 26.4925C43.6542 26.4743 43.4626 26.4172 43.2876 26.3247C43.1127 26.2321 42.9578 26.1058 42.8319 25.953C42.706 25.8003 42.6115 25.6242 42.554 25.4348C42.4965 25.2454 42.477 25.0464 42.4967 24.8495C42.5164 24.6525 42.5749 24.4614 42.6688 24.2872C42.7628 24.1129 42.8902 23.959 43.0439 23.8342C43.1976 23.7095 43.3745 23.6164 43.5643 23.5603C43.7542 23.5042 43.9532 23.4863 44.15 23.5075C50.6875 24.16 53.835 17.7675 54.8738 15.0388C50.6 12.8075 47.9675 14.8475 47.9388 14.875C47.6272 15.1091 47.2367 15.2127 46.8501 15.1639C46.4634 15.1151 46.1109 14.9178 45.8672 14.6137C45.6236 14.3095 45.5078 13.9225 45.5445 13.5345C45.5812 13.1465 45.7674 12.7881 46.0638 12.535C46.26 12.375 51 8.68 57.8438 13.3275C63.2313 16.9913 66.3563 15.8175 66.4063 15.7975C66.6343 15.6992 66.8831 15.6591 67.1304 15.6807C67.3778 15.7023 67.6159 15.7849 67.8234 15.9212C68.0309 16.0575 68.2014 16.2431 68.3195 16.4615C68.4376 16.6799 68.4996 16.9242 68.5 17.1725V17.175Z" fill="white"/>
</g>
<defs>
<clipPath id="clip0_27_3292">
<rect width="72" height="32" rx="5" fill="white"/>
</clipPath>
</defs>
</svg>
