<svg width="72" height="32" viewBox="0 0 72 32" fill="none" xmlns="http://www.w3.org/2000/svg">
<g clip-path="url(#clip0_27_3312)">
<path d="M14.9998 6C14.9998 5.20888 15.2344 4.43552 15.6739 3.77772C16.1134 3.11992 16.7382 2.60723 17.4691 2.30448C18.2 2.00173 19.0042 1.92252 19.7802 2.07686C20.5561 2.2312 21.2688 2.61216 21.8282 3.17157C22.3876 3.73098 22.7686 4.44372 22.9229 5.21964C23.0773 5.99556 22.9981 6.79983 22.6953 7.53074C22.3926 8.26164 21.8799 8.88635 21.2221 9.32588C20.5643 9.76541 19.7909 10 18.9998 10C17.9389 10 16.9215 9.57857 16.1714 8.82843C15.4212 8.07828 14.9998 7.06087 14.9998 6ZM25.9998 17C22.4198 17 20.7735 15.3375 19.031 13.5788C18.5898 13.1325 18.1335 12.6713 17.656 12.2563C13.031 8.23875 5.62854 15.0975 5.31604 15.3913C5.12994 15.5745 5.02289 15.8232 5.01777 16.0843C5.01265 16.3454 5.10986 16.5981 5.28863 16.7885C5.46739 16.9788 5.71353 17.0917 5.97443 17.103C6.23532 17.1142 6.49028 17.023 6.68479 16.8488C7.84805 15.7978 9.12809 14.884 10.4998 14.125C12.2223 13.2025 13.6735 12.8463 14.8373 13.0525L8.08229 28.6013C7.97682 28.8444 7.97221 29.1195 8.06948 29.3661C8.16675 29.6127 8.35795 29.8106 8.60104 29.9163C8.72662 29.9718 8.86247 30.0003 8.99979 30C9.19468 30.0001 9.38534 29.9432 9.54834 29.8364C9.71134 29.7296 9.83958 29.5775 9.91729 29.3988L14.116 19.74L17.9998 22.515V29C17.9998 29.2652 18.1051 29.5196 18.2927 29.7071C18.4802 29.8946 18.7346 30 18.9998 30C19.265 30 19.5194 29.8946 19.7069 29.7071C19.8944 29.5196 19.9998 29.2652 19.9998 29V22C19.9998 21.8408 19.9618 21.6839 19.889 21.5424C19.8161 21.4009 19.7106 21.2788 19.581 21.1863L14.931 17.865L16.6098 14C16.9398 14.305 17.2673 14.6338 17.6098 14.98C19.381 16.7738 21.586 19 25.9998 19C26.265 19 26.5194 18.8946 26.7069 18.7071C26.8944 18.5196 26.9998 18.2652 26.9998 18C26.9998 17.7348 26.8944 17.4804 26.7069 17.2929C26.5194 17.1054 26.265 17 25.9998 17Z" fill="white"/>
<path d="M59.0003 10.5C59.8903 10.5 60.7604 10.2361 61.5004 9.74162C62.2404 9.24715 62.8172 8.54434 63.1578 7.72208C63.4984 6.89981 63.5875 5.99501 63.4139 5.1221C63.2402 4.24918 62.8116 3.44736 62.1823 2.81802C61.553 2.18869 60.7512 1.7601 59.8782 1.58647C59.0053 1.41283 58.1005 1.50195 57.2783 1.84254C56.456 2.18314 55.7532 2.75991 55.2587 3.49994C54.7643 4.23996 54.5003 5.10999 54.5003 6C54.5003 7.19348 54.9744 8.33807 55.8184 9.18198C56.6623 10.0259 57.8069 10.5 59.0003 10.5ZM59.0003 4.5C59.297 4.5 59.587 4.58798 59.8337 4.7528C60.0804 4.91762 60.2726 5.15189 60.3862 5.42598C60.4997 5.70007 60.5294 6.00167 60.4715 6.29264C60.4136 6.58361 60.2708 6.85088 60.061 7.06066C59.8512 7.27044 59.5839 7.4133 59.293 7.47118C59.002 7.52906 58.7004 7.49935 58.4263 7.38582C58.1522 7.27229 57.918 7.08003 57.7531 6.83336C57.5883 6.58668 57.5003 6.29667 57.5003 6C57.5003 5.60218 57.6584 5.22065 57.9397 4.93934C58.221 4.65804 58.6025 4.5 59.0003 4.5ZM67.5003 18.5C67.5003 18.8978 67.3423 19.2794 67.061 19.5607C66.7797 19.842 66.3982 20 66.0003 20C61.3753 20 59.0916 17.6913 57.2503 15.8375C57.0366 15.6225 56.8303 15.4125 56.6253 15.2125L55.5466 17.6938L59.8753 20.7788C60.0691 20.9179 60.2269 21.1013 60.3356 21.3137C60.4443 21.5261 60.5008 21.7614 60.5003 22V29C60.5003 29.3978 60.3423 29.7794 60.061 30.0607C59.7797 30.342 59.3982 30.5 59.0003 30.5C58.6025 30.5 58.221 30.342 57.9397 30.0607C57.6584 29.7794 57.5003 29.3978 57.5003 29V22.7713L54.3291 20.5063L50.3753 29.5975C50.3004 29.7833 50.1889 29.9522 50.0476 30.0943C49.9063 30.2363 49.7379 30.3486 49.5525 30.4245C49.367 30.5004 49.1683 30.5384 48.9679 30.5362C48.7676 30.534 48.5697 30.4917 48.3859 30.4118C48.2022 30.3319 48.0363 30.2159 47.8981 30.0709C47.7599 29.9258 47.6522 29.7545 47.5813 29.567C47.5104 29.3796 47.4778 29.1799 47.4853 28.9797C47.4929 28.7795 47.5405 28.5828 47.6253 28.4013L53.8828 14.01C52.9962 14.0725 51.9545 14.4225 50.7578 15.06C49.4173 15.7988 48.1662 16.6892 47.0291 17.7138C46.739 17.9861 46.3526 18.1321 45.9549 18.1195C45.5572 18.107 45.1808 17.937 44.9085 17.6469C44.6361 17.3568 44.4902 16.9704 44.5027 16.5727C44.5152 16.175 44.6853 15.7986 44.9753 15.5263C45.3016 15.22 53.0203 8.0675 57.9866 12.3788C58.4791 12.8063 58.9416 13.2738 59.3891 13.7263C61.0541 15.41 62.6253 17 66.0003 17C66.3982 17 66.7797 17.158 67.061 17.4393C67.3423 17.7206 67.5003 18.1022 67.5003 18.5Z" fill="white"/>
</g>
<defs>
<clipPath id="clip0_27_3312">
<rect width="72" height="32" rx="5" fill="white"/>
</clipPath>
</defs>
</svg>
