<svg width="72" height="32" viewBox="0 0 72 32" fill="none" xmlns="http://www.w3.org/2000/svg">
<g clip-path="url(#clip0_27_4810)">
<path d="M17 6.5C17 5.80777 17.2053 5.13108 17.5899 4.55551C17.9744 3.97993 18.5211 3.53133 19.1606 3.26642C19.8001 3.00152 20.5039 2.9322 21.1828 3.06725C21.8617 3.2023 22.4854 3.53564 22.9749 4.02513C23.4644 4.51461 23.7977 5.13825 23.9327 5.81719C24.0678 6.49612 23.9985 7.19985 23.7336 7.83939C23.4687 8.47894 23.0201 9.02556 22.4445 9.41015C21.8689 9.79473 21.1922 10 20.5 10C19.5717 10 18.6815 9.63125 18.0251 8.97487C17.3687 8.3185 17 7.42826 17 6.5ZM27.9587 15.2813C27.884 15.5357 27.7112 15.75 27.4784 15.877C27.2457 16.0041 26.9719 16.0335 26.7175 15.9588L16.8337 13.0513L15.8612 14.51L20.2775 15.7888C20.4287 15.8325 20.5674 15.9113 20.6823 16.0188C20.7973 16.1263 20.8853 16.2593 20.9391 16.4072C20.9929 16.5551 21.0111 16.7136 20.9922 16.8698C20.9732 17.026 20.9176 17.1755 20.83 17.3063L18.3612 20.9863L24.7225 22.83C25.3769 23.0212 25.952 23.4185 26.3624 23.9629C26.7728 24.5072 26.9964 25.1695 27 25.8513C26.997 26.6859 26.664 27.4854 26.0736 28.0754C25.4832 28.6653 24.6834 28.9977 23.8487 29C23.5469 29.0002 23.2465 28.9581 22.9562 28.875L3.27625 23.1688C2.62211 22.9774 2.04723 22.58 1.63711 22.0356C1.22698 21.4913 1.00354 20.829 1 20.1475C1.00105 19.6579 1.116 19.1752 1.33577 18.7376C1.55554 18.3001 1.8741 17.9197 2.26625 17.6265C2.6584 17.3333 3.11338 17.1353 3.59523 17.0483C4.07707 16.9612 4.57256 16.9875 5.0425 17.125L10.6337 18.75L14.8237 12.465L9.7175 10.965C9.46306 10.8901 9.2488 10.7171 9.12186 10.4842C8.99492 10.2514 8.9657 9.97757 9.04062 9.72313C9.11555 9.46868 9.28848 9.25443 9.52138 9.12749C9.75427 9.00055 10.0281 8.97133 10.2825 9.04625L27.2825 14.0463C27.5353 14.1214 27.7482 14.2933 27.8748 14.5246C28.0015 14.7559 28.0316 15.0278 27.9587 15.2813ZM14.6975 16.25L12.6475 19.325L16.345 20.3975L18.4062 17.3238L14.6975 16.25Z" fill="white"/>
<path d="M61 10C61.7912 10 62.5645 9.76541 63.2223 9.32588C63.8801 8.88635 64.3928 8.26164 64.6956 7.53074C64.9983 6.79983 65.0775 5.99556 64.9232 5.21964C64.7688 4.44372 64.3879 3.73098 63.8285 3.17157C63.269 2.61216 62.5563 2.2312 61.7804 2.07686C61.0045 1.92252 60.2002 2.00173 59.4693 2.30448C58.7384 2.60723 58.1137 3.11992 57.6742 3.77772C57.2346 4.43552 57 5.20888 57 6C57 7.06087 57.4215 8.07828 58.1716 8.82843C58.9218 9.57857 59.9392 10 61 10ZM61 5C61.1978 5 61.3912 5.05865 61.5556 5.16853C61.7201 5.27841 61.8482 5.43459 61.9239 5.61732C61.9996 5.80004 62.0194 6.00111 61.9808 6.19509C61.9422 6.38907 61.847 6.56726 61.7071 6.70711C61.5673 6.84696 61.3891 6.9422 61.1951 6.98079C61.0011 7.01937 60.8001 6.99957 60.6173 6.92388C60.4346 6.84819 60.2784 6.72002 60.1686 6.55557C60.0587 6.39112 60 6.19778 60 6C60 5.73479 60.1054 5.48043 60.2929 5.2929C60.4805 5.10536 60.7348 5 61 5ZM67.4225 13.56L50.4225 8.56C50.0476 8.46775 49.6515 8.52365 49.3167 8.71607C48.9819 8.90849 48.7343 9.22259 48.6252 9.59301C48.5162 9.96343 48.5542 10.3616 48.7314 10.7047C48.9085 11.0478 49.2111 11.3094 49.5763 11.435L54.0313 12.75L50.4513 18.125L45.5 16.6588C44.9211 16.4858 44.3096 16.4516 43.7151 16.5589C43.1205 16.6662 42.5595 16.9119 42.0775 17.2763C41.5861 17.6403 41.1872 18.1149 40.9131 18.6617C40.6391 19.2085 40.4976 19.8121 40.5 20.4238C40.5021 21.2688 40.7758 22.0908 41.2806 22.7685C41.7854 23.4461 42.4947 23.9436 43.3038 24.1875L62.5 29.8388C63.0833 30.0094 63.6984 30.0416 64.2964 29.9326C64.8943 29.8236 65.4585 29.5765 65.9441 29.211C66.4296 28.8455 66.8231 28.3716 67.0933 27.8272C67.3634 27.2827 67.5027 26.6828 67.5 26.075C67.4981 25.2298 67.2243 24.4076 66.7192 23.7298C66.2141 23.0521 65.5045 22.5547 64.695 22.3113L59.7275 20.8488L61.25 18.585C61.3815 18.389 61.4649 18.1648 61.4934 17.9305C61.5219 17.6963 61.4948 17.4586 61.4141 17.2368C61.3335 17.015 61.2017 16.8154 61.0294 16.6541C60.8571 16.4929 60.6492 16.3745 60.4225 16.3088L56.1025 15.0588L57.05 13.6363L66.5813 16.44C66.7729 16.5059 66.9759 16.5323 67.1781 16.5176C67.3802 16.5029 67.5773 16.4474 67.7573 16.3544C67.9374 16.2614 68.0968 16.1329 68.2258 15.9766C68.3549 15.8203 68.4509 15.6395 68.5081 15.4451C68.5654 15.2507 68.5826 15.0467 68.5588 14.8454C68.535 14.6442 68.4707 14.4498 68.3697 14.2741C68.2687 14.0984 68.1331 13.945 67.9712 13.8231C67.8093 13.7012 67.6243 13.6134 67.4275 13.565L67.4225 13.56ZM64.5 26.075C64.5014 26.2208 64.4681 26.3648 64.4029 26.4952C64.3377 26.6256 64.2425 26.7386 64.125 26.825C64.0158 26.9088 63.8882 26.9654 63.7528 26.9899C63.6173 27.0145 63.478 27.0064 63.3463 26.9663L44.1513 21.31C43.9886 21.2578 43.8434 21.1619 43.7315 21.0327C43.6197 20.9036 43.5454 20.7462 43.5169 20.5777C43.4884 20.4093 43.5067 20.2362 43.5699 20.0775C43.633 19.9187 43.7386 19.7803 43.875 19.6775C43.9846 19.5944 44.1122 19.5383 44.2475 19.5138C44.3828 19.4893 44.522 19.4969 44.6538 19.5363L63.8525 25.1888C64.041 25.2478 64.2056 25.3658 64.3222 25.5253C64.4387 25.6848 64.5011 25.8775 64.5 26.075ZM57.61 18.625L56.71 19.9663L53.46 19.0113L54.3475 17.6813L57.61 18.625Z" fill="white"/>
</g>
<defs>
<clipPath id="clip0_27_4810">
<rect width="72" height="32" rx="5" fill="white"/>
</clipPath>
</defs>
</svg>
