<svg width="72" height="32" viewBox="0 0 72 32" fill="none" xmlns="http://www.w3.org/2000/svg">
<g clip-path="url(#clip0_27_3307)">
<path d="M12.0003 7C12.0003 6.20888 12.2349 5.43552 12.6744 4.77772C13.114 4.11992 13.7387 3.60723 14.4696 3.30448C15.2005 3.00173 16.0047 2.92252 16.7807 3.07686C17.5566 3.2312 18.2693 3.61216 18.8287 4.17157C19.3881 4.73098 19.7691 5.44372 19.9235 6.21964C20.0778 6.99556 19.9986 7.79983 19.6958 8.53074C19.3931 9.26164 18.8804 9.88635 18.2226 10.3259C17.5648 10.7654 16.7914 11 16.0003 11C14.9394 11 13.922 10.5786 13.1719 9.82843C12.4217 9.07828 12.0003 8.06087 12.0003 7ZM27.6253 12.42C27.4378 12.27 22.9728 8.795 16.4366 13.2413C10.7503 17.105 7.44656 15.7788 7.41531 15.765C7.29551 15.7084 7.16565 15.6762 7.0333 15.6703C6.90094 15.6643 6.76871 15.6847 6.64431 15.7303C6.5199 15.7758 6.40579 15.8457 6.30861 15.9357C6.21142 16.0258 6.1331 16.1342 6.07819 16.2548C6.02329 16.3754 5.99289 16.5057 5.98877 16.6381C5.98464 16.7705 6.00688 16.9025 6.05418 17.0262C6.10148 17.15 6.1729 17.2631 6.26429 17.359C6.35569 17.455 6.46523 17.5318 6.58656 17.585C6.66281 17.62 7.52281 17.9938 9.04531 17.9938C10.8216 17.9938 13.5003 17.48 16.8916 15.3325C16.6066 19.0088 15.3003 25.7663 7.71281 28.0425C7.58431 28.0779 7.46418 28.1385 7.35947 28.221C7.25476 28.3034 7.16759 28.406 7.10307 28.5226C7.03856 28.6392 6.99801 28.7676 6.9838 28.9001C6.9696 29.0326 6.98202 29.1666 7.02035 29.2942C7.05868 29.4219 7.12213 29.5406 7.20698 29.6434C7.29184 29.7461 7.39638 29.8309 7.51446 29.8927C7.63254 29.9545 7.76178 29.992 7.89459 30.0032C8.0274 30.0143 8.16109 29.9988 8.28781 29.9575C12.6416 28.6513 15.7191 25.915 17.4378 21.8225C17.6822 21.2372 17.895 20.6393 18.0753 20.0313L20.8353 22.3313L19.0516 27.6838C18.9677 27.9354 18.9872 28.21 19.1058 28.4472C19.2244 28.6845 19.4324 28.8649 19.6841 28.9488C19.9357 29.0326 20.2103 29.0131 20.4476 28.8945C20.6848 28.7759 20.8652 28.5679 20.9491 28.3163L22.9491 22.3163C23.0128 22.1253 23.0174 21.9196 22.9623 21.7261C22.9072 21.5325 22.795 21.36 22.6403 21.2313L18.5878 17.8563C18.802 16.6025 18.9273 15.3352 18.9628 14.0638C23.4853 11.7425 26.3378 13.9575 26.3728 13.9825C26.4747 14.0695 26.593 14.1351 26.7207 14.1755C26.8484 14.2159 26.9829 14.2302 27.1163 14.2176C27.2497 14.205 27.3791 14.1657 27.497 14.1021C27.6149 14.0385 27.7188 13.9519 27.8026 13.8473C27.8863 13.7428 27.9482 13.6225 27.9846 13.4936C28.021 13.3647 28.0311 13.2298 28.0143 13.0969C27.9975 12.964 27.9543 12.8358 27.887 12.72C27.8197 12.6041 27.7299 12.503 27.6228 12.4225L27.6253 12.42ZM8.00031 14C8.39587 14 8.78255 13.8827 9.11145 13.6629C9.44035 13.4432 9.6967 13.1308 9.84807 12.7654C9.99945 12.3999 10.0391 11.9978 9.96188 11.6098C9.88471 11.2219 9.69423 10.8655 9.41452 10.5858C9.13482 10.3061 8.77845 10.1156 8.39049 10.0384C8.00253 9.96126 7.6004 10.0009 7.23494 10.1522C6.86949 10.3036 6.55713 10.56 6.33737 10.8889C6.11761 11.2178 6.00031 11.6044 6.00031 12C6.00031 12.5304 6.21102 13.0391 6.5861 13.4142C6.96117 13.7893 7.46988 14 8.00031 14Z" fill="white"/>
<path d="M56 11.5C56.89 11.5 57.76 11.2361 58.5001 10.7416C59.2401 10.2471 59.8169 9.54434 60.1575 8.72208C60.4981 7.89981 60.5872 6.99501 60.4135 6.1221C60.2399 5.24918 59.8113 4.44736 59.182 3.81802C58.5526 3.18868 57.7508 2.7601 56.8779 2.58647C56.005 2.41283 55.1002 2.50195 54.2779 2.84254C53.4557 3.18314 52.7529 3.75991 52.2584 4.49994C51.7639 5.23996 51.5 6.10999 51.5 7C51.5 8.19348 51.9741 9.33807 52.818 10.182C53.6619 11.0259 54.8065 11.5 56 11.5ZM56 5.5C56.2967 5.5 56.5867 5.58798 56.8334 5.7528C57.08 5.91762 57.2723 6.15189 57.3858 6.42598C57.4993 6.70007 57.5291 7.00167 57.4712 7.29264C57.4133 7.58361 57.2704 7.85088 57.0607 8.06066C56.8509 8.27044 56.5836 8.4133 56.2926 8.47118C56.0017 8.52906 55.7001 8.49935 55.426 8.38582C55.1519 8.27229 54.9176 8.08003 54.7528 7.83336C54.588 7.58668 54.5 7.29667 54.5 7C54.5 6.60218 54.658 6.22065 54.9393 5.93934C55.2206 5.65804 55.6022 5.5 56 5.5ZM45.5 12C45.5 11.5055 45.6466 11.0222 45.9213 10.6111C46.196 10.2 46.5865 9.87952 47.0433 9.6903C47.5001 9.50108 48.0028 9.45158 48.4877 9.54804C48.9727 9.6445 49.4181 9.8826 49.7678 10.2322C50.1174 10.5819 50.3555 11.0273 50.452 11.5123C50.5484 11.9972 50.4989 12.4999 50.3097 12.9567C50.1205 13.4135 49.8 13.804 49.3889 14.0787C48.9778 14.3534 48.4945 14.5 48 14.5C47.337 14.5 46.7011 14.2366 46.2322 13.7678C45.7634 13.2989 45.5 12.663 45.5 12ZM68.5 14.2C68.501 14.4832 68.4217 14.7608 68.2715 15.0009C68.1213 15.2409 67.9062 15.4335 67.6511 15.5564C67.396 15.6793 67.1113 15.7275 66.83 15.6954C66.5486 15.6633 66.2821 15.5522 66.0613 15.375C66.0613 15.375 63.4362 13.44 59.3937 15.41C59.3512 16.0038 59.2688 16.7775 59.1275 17.66L62.96 20.8538C63.1914 21.0468 63.3593 21.3051 63.4418 21.5949C63.5243 21.8848 63.5176 22.1928 63.4225 22.4788L61.4225 28.4788C61.364 28.6702 61.2678 28.8481 61.1395 29.0018C61.0113 29.1555 60.8535 29.2819 60.6756 29.3737C60.4977 29.4655 60.3032 29.5207 60.1036 29.5362C59.904 29.5516 59.7033 29.5269 59.5134 29.4636C59.3235 29.4003 59.1481 29.2996 58.9977 29.1674C58.8474 29.0353 58.725 28.8743 58.6377 28.6941C58.5505 28.5139 58.5003 28.3181 58.4899 28.1182C58.4796 27.9182 58.5093 27.7182 58.5775 27.53L60.25 22.5L58.32 20.8925C58.1152 21.4984 57.8765 22.0922 57.605 22.6713C55.775 26.5463 52.6875 29.1625 48.4275 30.44C48.2887 30.4808 48.1447 30.501 48 30.5C47.6394 30.5007 47.2907 30.3714 47.0177 30.136C46.7446 29.9005 46.5655 29.5746 46.5131 29.2179C46.4608 28.8612 46.5386 28.4975 46.7325 28.1935C46.9263 27.8895 47.2232 27.6655 47.5687 27.5625C52.2987 26.1438 55.165 22.7238 56.12 17.3825C53.12 19.075 50.7312 19.5075 49.0625 19.5075C48.1468 19.5018 47.2385 19.3434 46.375 19.0388C46.0242 18.8696 45.753 18.5706 45.6187 18.205C45.4843 17.8394 45.4975 17.4359 45.6553 17.0799C45.8131 16.7238 46.1032 16.4431 46.4643 16.2971C46.8254 16.1511 47.229 16.1512 47.59 16.2975C47.6438 16.3188 50.7675 17.4888 56.1525 13.8275C62.9912 9.18 67.935 13.03 67.935 13.03C68.1109 13.1702 68.253 13.3481 68.3508 13.5507C68.4486 13.7532 68.4996 13.9751 68.5 14.2Z" fill="white"/>
</g>
<defs>
<clipPath id="clip0_27_3307">
<rect width="72" height="32" rx="5" fill="white"/>
</clipPath>
</defs>
</svg>
