<svg width="72" height="32" viewBox="0 0 72 32" fill="none" xmlns="http://www.w3.org/2000/svg">
<g clip-path="url(#clip0_27_670)">
<path d="M29.535 22.2312C29.2708 22.5694 28.9047 22.8136 28.491 22.9277C28.0773 23.0418 27.6378 23.0198 27.2375 22.865L24.1425 20.49C24.1184 20.4724 24.0962 20.4522 24.0763 20.43L13.6475 8.95249C13.5849 8.88408 13.5426 8.7996 13.5253 8.70851C13.5079 8.61741 13.5162 8.52329 13.5493 8.43665C13.5824 8.35002 13.6389 8.27429 13.7125 8.21793C13.7862 8.16157 13.874 8.12679 13.9663 8.11749C19.3413 7.53999 24.9338 9.25749 28.9488 13.2725C31.4475 15.7712 31.6888 19.455 29.535 22.2312ZM6.74129 4.32749C6.65347 4.2285 6.54688 4.14792 6.42769 4.09043C6.3085 4.03294 6.17909 3.99967 6.04695 3.99256C5.91481 3.98545 5.78257 4.00464 5.6579 4.04902C5.53323 4.09339 5.41861 4.16207 5.32068 4.25107C5.22275 4.34007 5.14345 4.44762 5.08739 4.56749C5.03133 4.68736 4.99962 4.81716 4.9941 4.94938C4.98857 5.08159 5.00935 5.21359 5.05521 5.33772C5.10108 5.46184 5.17112 5.57563 5.26129 5.67249L8.71379 9.47124C6.59832 10.3604 4.67533 11.6513 3.05129 13.2725C0.55129 15.7725 0.31129 19.455 2.46504 22.2312C2.72931 22.5694 3.09535 22.8136 3.50908 22.9277C3.92281 23.0418 4.36227 23.0198 4.76254 22.865L10.8875 20.6937L10.9238 20.68C11.2328 20.5565 11.5061 20.3578 11.7189 20.102C11.9317 19.8462 12.0773 19.5413 12.1425 19.215L12.88 15.5262C13.2308 15.4052 13.5885 15.3054 13.9513 15.2275L25.2638 27.6725C25.3516 27.7715 25.4582 27.8521 25.5774 27.9096C25.6966 27.967 25.826 28.0003 25.9581 28.0074C26.0903 28.0145 26.2225 27.9953 26.3472 27.951C26.4718 27.9066 26.5865 27.8379 26.6844 27.7489C26.7823 27.6599 26.8616 27.5524 26.9177 27.4325C26.9737 27.3126 27.0055 27.1828 27.011 27.0506C27.0165 26.9184 26.9957 26.7864 26.9499 26.6623C26.904 26.5381 26.834 26.4243 26.7438 26.3275L6.74129 4.32749Z" fill="white"/>
<path d="M47.1126 3.99124C46.9819 3.83926 46.822 3.71503 46.6425 3.62588C46.4629 3.53673 46.2673 3.48448 46.0672 3.4722C45.8671 3.45993 45.6666 3.48789 45.4775 3.55443C45.2884 3.62096 45.1146 3.72473 44.9663 3.85959C44.8179 3.99446 44.6982 4.15768 44.614 4.33962C44.5298 4.52156 44.483 4.71853 44.4762 4.91888C44.4695 5.11923 44.503 5.3189 44.5747 5.50609C44.6464 5.69328 44.7549 5.8642 44.8938 6.00874L47.8751 9.29499C45.9525 10.1952 44.2003 11.4217 42.6963 12.92C40.0151 15.6025 39.7563 19.5575 42.0713 22.545C42.3064 22.844 42.6066 23.0855 42.9491 23.251C43.2915 23.4165 43.6672 23.5016 44.0476 23.5C44.3519 23.5001 44.6536 23.4442 44.9376 23.335L51.0501 21.1662L51.1063 21.145C51.4922 20.9904 51.8333 20.7418 52.0986 20.4217C52.3638 20.1017 52.5448 19.7204 52.6251 19.3125L53.3051 15.91C53.4576 15.8625 53.6138 15.82 53.7701 15.785L64.8838 28.0137C65.0146 28.1657 65.1744 28.29 65.354 28.3791C65.5335 28.4683 65.7291 28.5205 65.9292 28.5328C66.1293 28.545 66.3298 28.5171 66.5189 28.4506C66.708 28.384 66.8819 28.2803 67.0302 28.1454C67.1785 28.0105 67.2983 27.8473 67.3824 27.6654C67.4666 27.4834 67.5134 27.2865 67.5202 27.0861C67.5269 26.8858 67.4935 26.6861 67.4217 26.4989C67.35 26.3117 67.2415 26.1408 67.1026 25.9962L47.1126 3.99124ZM50.4251 15.0362L49.7501 18.4462L44.2301 20.4025C43.0851 18.6725 43.3038 16.5575 44.8213 15.04C46.2982 13.5612 48.0641 12.4029 50.0088 11.6375L51.5926 13.375C51.2929 13.5552 51.0342 13.7961 50.8332 14.0822C50.6321 14.3683 50.4931 14.6932 50.4251 15.0362ZM69.9251 22.5362C69.5742 22.9887 69.0779 23.3061 68.5201 23.435C68.149 23.522 67.7587 23.4644 67.4285 23.274C67.0983 23.0836 66.853 22.7746 66.7424 22.4098C66.6318 22.0451 66.6642 21.6519 66.833 21.3101C67.0018 20.9684 67.2944 20.7038 67.6513 20.57C68.9276 18.8112 68.7451 16.6062 67.1776 15.0387C64.3463 12.2062 60.5001 10.595 56.3638 10.5C55.966 10.4955 55.5863 10.3332 55.3081 10.0487C55.03 9.76425 54.8762 9.38094 54.8807 8.98312C54.8852 8.58529 55.0475 8.20554 55.332 7.9274C55.6165 7.64926 55.9998 7.49552 56.3976 7.49999H56.4313C61.3476 7.60874 65.9176 9.53124 69.2988 12.9137C71.9801 15.6012 72.2388 19.5562 69.9263 22.5375L69.9251 22.5362Z" fill="white"/>
</g>
<defs>
<clipPath id="clip0_27_670">
<rect width="72" height="32" rx="5" fill="white"/>
</clipPath>
</defs>
</svg>
