<svg width="72" height="32" viewBox="0 0 72 32" fill="none" xmlns="http://www.w3.org/2000/svg">
<g clip-path="url(#clip0_27_665)">
<path d="M27.985 22.885C27.7621 24.5788 26.9303 26.1335 25.6449 27.2588C24.3595 28.3841 22.7084 29.0031 21 29C11.075 29 3.00001 20.925 3.00001 11C2.99695 9.2916 3.61587 7.64052 4.74118 6.35511C5.86649 5.0697 7.42122 4.23787 9.11501 4.01499C9.54333 3.96269 9.97707 4.05032 10.3515 4.26479C10.7259 4.47926 11.0209 4.80907 11.1925 5.20499L13.8325 11.0987C13.832 11.1037 13.832 11.1088 13.8325 11.1137C13.9639 11.4168 14.0181 11.7477 13.9904 12.0768C13.9627 12.406 13.8539 12.7231 13.6738 13C13.6513 13.0337 13.6275 13.065 13.6025 13.0962L11 16.1812C11.9363 18.0837 13.9263 20.0562 15.8538 20.995L18.8963 18.4062C18.9261 18.3811 18.9574 18.3578 18.99 18.3362C19.2668 18.1515 19.5852 18.0388 19.9166 18.0082C20.2479 17.9777 20.5816 18.0303 20.8875 18.1612L20.9025 18.1687L26.79 20.8075C27.1869 20.9783 27.5177 21.2729 27.7332 21.6474C27.9486 22.0219 28.0369 22.4561 27.985 22.885ZM18 11H21V14C21 14.2652 21.1054 14.5196 21.2929 14.7071C21.4804 14.8946 21.7348 15 22 15C22.2652 15 22.5196 14.8946 22.7071 14.7071C22.8947 14.5196 23 14.2652 23 14V11H26C26.2652 11 26.5196 10.8946 26.7071 10.7071C26.8947 10.5196 27 10.2652 27 9.99999C27 9.73478 26.8947 9.48042 26.7071 9.29288C26.5196 9.10535 26.2652 8.99999 26 8.99999H23V5.99999C23 5.73477 22.8947 5.48042 22.7071 5.29288C22.5196 5.10535 22.2652 4.99999 22 4.99999C21.7348 4.99999 21.4804 5.10535 21.2929 5.29288C21.1054 5.48042 21 5.73477 21 5.99999V8.99999H18C17.7348 8.99999 17.4804 9.10535 17.2929 9.29288C17.1054 9.48042 17 9.73478 17 9.99999C17 10.2652 17.1054 10.5196 17.2929 10.7071C17.4804 10.8946 17.7348 11 18 11Z" fill="white"/>
<path d="M67 20.35L61.1138 17.7125L61.0913 17.7025C60.7089 17.5368 60.291 17.4699 59.876 17.5079C59.461 17.5459 59.0622 17.6876 58.7163 17.92C58.6678 17.9525 58.621 17.9875 58.5763 18.025L55.7875 20.4C54.1625 19.5188 52.4838 17.8538 51.6013 16.2488L53.9838 13.4163C54.0224 13.3708 54.0578 13.3228 54.09 13.2725C54.316 12.9277 54.4532 12.5324 54.4894 12.1217C54.5256 11.711 54.4597 11.2978 54.2975 10.9188C54.2937 10.9115 54.2903 10.904 54.2875 10.8963L51.65 5.00001C51.4337 4.50679 51.0642 4.09638 50.5964 3.82958C50.1285 3.56278 49.5872 3.45379 49.0525 3.51876C47.238 3.75713 45.5722 4.64785 44.3664 6.02458C43.1606 7.40131 42.4972 9.16989 42.5 11C42.5 21.2013 50.7988 29.5 61 29.5C62.8301 29.5028 64.5987 28.8394 65.9754 27.6336C67.3522 26.4278 68.2429 24.762 68.4813 22.9475C68.546 22.4129 68.4369 21.8716 68.1702 21.4038C67.9034 20.936 67.4931 20.5665 67 20.35ZM61 26.5C56.8907 26.495 52.9511 24.8604 50.0453 21.9547C47.1396 19.0489 45.505 15.1093 45.5 11C45.497 9.96447 45.8485 8.9591 46.4962 8.1511C47.1439 7.3431 48.0486 6.78117 49.06 6.55876L51.4125 11.8088L49.0175 14.6588C48.9785 14.7042 48.9426 14.7523 48.91 14.8025C48.6735 15.1635 48.5345 15.5795 48.5064 16.0102C48.4784 16.4408 48.5623 16.8714 48.75 17.26C49.9275 19.67 52.3538 22.08 54.7888 23.26C55.1796 23.4453 55.6119 23.526 56.0433 23.4943C56.4747 23.4625 56.8905 23.3193 57.25 23.0788C57.2983 23.0462 57.3447 23.0107 57.3888 22.9725L60.1925 20.5888L65.4425 22.94C65.2196 23.9514 64.6574 24.856 63.8492 25.5037C63.0411 26.1513 62.0356 26.5029 61 26.5ZM56.5 10C56.5 9.60219 56.658 9.22066 56.9393 8.93935C57.2207 8.65805 57.6022 8.50001 58 8.50001H60.5V6.00001C60.5 5.60219 60.658 5.22066 60.9394 4.93935C61.2207 4.65805 61.6022 4.50001 62 4.50001C62.3978 4.50001 62.7794 4.65805 63.0607 4.93935C63.342 5.22066 63.5 5.60219 63.5 6.00001V8.50001H66C66.3978 8.50001 66.7794 8.65805 67.0607 8.93935C67.342 9.22066 67.5 9.60219 67.5 10C67.5 10.3978 67.342 10.7794 67.0607 11.0607C66.7794 11.342 66.3978 11.5 66 11.5H63.5V14C63.5 14.3978 63.342 14.7794 63.0607 15.0607C62.7794 15.342 62.3978 15.5 62 15.5C61.6022 15.5 61.2207 15.342 60.9394 15.0607C60.658 14.7794 60.5 14.3978 60.5 14V11.5H58C57.6022 11.5 57.2207 11.342 56.9393 11.0607C56.658 10.7794 56.5 10.3978 56.5 10Z" fill="white"/>
</g>
<defs>
<clipPath id="clip0_27_665">
<rect width="72" height="32" rx="5" fill="white"/>
</clipPath>
</defs>
</svg>
