<svg width="72" height="32" viewBox="0 0 72 32" fill="none" xmlns="http://www.w3.org/2000/svg">
<g clip-path="url(#clip0_27_630)">
<path d="M28.985 21.885C28.7621 23.5788 27.9303 25.1335 26.6449 26.2588C25.3595 27.3841 23.7084 28.0031 22 28C12.075 28 4.00001 19.925 4.00001 9.99999C3.99695 8.2916 4.61587 6.64052 5.74118 5.35511C6.86649 4.0697 8.42122 3.23787 10.115 3.01499C10.5433 2.96269 10.9771 3.05032 11.3515 3.26479C11.7259 3.47926 12.0209 3.80907 12.1925 4.20499L14.8325 10.0987V10.1137C14.9639 10.4168 15.0181 10.7477 14.9904 11.0768C14.9627 11.406 14.8539 11.7231 14.6738 12C14.6513 12.0337 14.6275 12.065 14.6025 12.0962L12 15.1812C12.9363 17.0837 14.9263 19.0562 16.8538 19.995L19.8963 17.4062C19.9261 17.3811 19.9574 17.3578 19.99 17.3362C20.2666 17.1517 20.5849 17.0391 20.916 17.0086C21.2471 16.978 21.5806 17.0305 21.8863 17.1612L21.9025 17.1687L27.7913 19.8075C28.1879 19.9785 28.5185 20.2732 28.7337 20.6477C28.9489 21.0222 29.037 21.4562 28.985 21.885Z" fill="white"/>
<path d="M68 19.35L62.1138 16.7113L62.0913 16.7013C61.7086 16.5363 61.2908 16.4699 60.8759 16.5081C60.461 16.5463 60.0623 16.6879 59.7163 16.92C59.6678 16.9525 59.621 16.9875 59.5763 17.025L56.7875 19.4C55.1625 18.5187 53.4838 16.8538 52.6013 15.2488L54.9838 12.4163C55.0221 12.3705 55.0575 12.3225 55.09 12.2725C55.316 11.9277 55.4532 11.5324 55.4894 11.1217C55.5256 10.711 55.4597 10.2978 55.2975 9.91875C55.2937 9.91149 55.2903 9.90397 55.2875 9.89625L52.65 4C52.4335 3.5069 52.064 3.09661 51.5962 2.82984C51.1284 2.56306 50.5871 2.45399 50.0525 2.51875C48.238 2.75712 46.5722 3.64784 45.3664 5.02457C44.1606 6.40129 43.4972 8.16988 43.5 10C43.5 20.2013 51.7988 28.5 62 28.5C63.8301 28.5028 65.5987 27.8394 66.9754 26.6336C68.3522 25.4278 69.2429 23.762 69.4813 21.9475C69.546 21.4129 69.4369 20.8716 69.1702 20.4038C68.9034 19.936 68.4931 19.5665 68 19.35ZM62 25.5C57.8907 25.495 53.9511 23.8604 51.0453 20.9547C48.1396 18.0489 46.505 14.1093 46.5 10C46.4971 8.96437 46.8487 7.95894 47.4964 7.15077C48.144 6.34261 49.0486 5.78038 50.06 5.5575L52.4125 10.8075L50.0175 13.66C49.9788 13.7061 49.9429 13.7546 49.91 13.805C49.6739 14.1657 49.5352 14.5813 49.5071 15.0115C49.4791 15.4416 49.5628 15.8717 49.75 16.26C50.9275 18.67 53.3538 21.08 55.7888 22.26C56.1796 22.4453 56.6119 22.526 57.0433 22.4942C57.4747 22.4625 57.8905 22.3193 58.25 22.0788C58.2983 22.0461 58.3447 22.0107 58.3888 21.9725L61.1925 19.5888L66.4425 21.94C66.2196 22.9514 65.6574 23.856 64.8492 24.5037C64.0411 25.1513 63.0356 25.5029 62 25.5Z" fill="white"/>
</g>
<defs>
<clipPath id="clip0_27_630">
<rect width="72" height="32" rx="5" fill="white"/>
</clipPath>
</defs>
</svg>
