<svg width="72" height="32" viewBox="0 0 72 32" fill="none" xmlns="http://www.w3.org/2000/svg">
<g clip-path="url(#clip0_27_635)">
<path d="M18.0338 5.74124C18.0677 5.61433 18.1263 5.49535 18.2063 5.39111C18.2862 5.28686 18.3859 5.19938 18.4997 5.13368C18.6134 5.06798 18.739 5.02533 18.8693 5.00819C18.9995 4.99104 19.1319 4.99972 19.2588 5.03374C21.1126 5.51743 22.804 6.48655 24.1587 7.84129C25.5135 9.19603 26.4826 10.8874 26.9663 12.7412C27.0003 12.8681 27.009 13.0005 26.9918 13.1307C26.9747 13.261 26.932 13.3866 26.8663 13.5003C26.8006 13.6141 26.7131 13.7138 26.6089 13.7937C26.5047 13.8737 26.3857 13.9323 26.2588 13.9662C26.1743 13.9884 26.0873 13.9998 26 14C25.7798 14.0001 25.5657 13.9274 25.391 13.7934C25.2163 13.6594 25.0907 13.4714 25.0338 13.2587C24.6395 11.7452 23.8486 10.3641 22.7428 9.25805C21.6369 8.15196 20.256 7.36083 18.7425 6.96624C18.6155 6.93243 18.4964 6.87391 18.392 6.79402C18.2876 6.71414 18.2 6.61446 18.1342 6.50068C18.0683 6.38691 18.0256 6.26127 18.0084 6.13096C17.9911 6.00064 17.9998 5.86821 18.0338 5.74124ZM17.7425 10.9662C19.4663 11.4262 20.5738 12.535 21.0338 14.2587C21.0907 14.4714 21.2163 14.6594 21.391 14.7934C21.5657 14.9274 21.7798 15.0001 22 15C22.0873 14.9998 22.1743 14.9884 22.2588 14.9662C22.3857 14.9323 22.5047 14.8737 22.6089 14.7937C22.7131 14.7138 22.8006 14.6141 22.8663 14.5003C22.932 14.3866 22.9747 14.261 22.9918 14.1307C23.009 14.0005 23.0003 13.8681 22.9663 13.7412C22.3263 11.3462 20.6538 9.67374 18.2588 9.03374C18.0025 8.96528 17.7295 9.00143 17.4999 9.13423C17.2703 9.26703 17.1028 9.4856 17.0344 9.74187C16.9659 9.99813 17.0021 10.2711 17.1349 10.5007C17.2677 10.7303 17.4862 10.8978 17.7425 10.9662ZM26.7963 20.8075L20.9075 18.1687L20.8913 18.1612C20.5856 18.0305 20.2521 17.978 19.921 18.0086C19.5899 18.0391 19.2716 18.1517 18.995 18.3362C18.9624 18.3578 18.9311 18.3811 18.9013 18.4062L15.8588 21C13.9313 20.0637 11.9413 18.0887 11.005 16.1862L13.6025 13.0975C13.6275 13.0662 13.6513 13.035 13.6738 13.0012C13.8543 12.7254 13.9638 12.4091 13.9926 12.0807C14.0214 11.7523 13.9686 11.4218 13.8388 11.1187V11.1037L11.1925 5.20499C11.0209 4.80907 10.7259 4.47926 10.3515 4.26479C9.97707 4.05032 9.54333 3.96269 9.11501 4.01499C7.42122 4.23787 5.86649 5.0697 4.74118 6.35511C3.61587 7.64052 2.99695 9.2916 3.00001 11C3.00001 20.925 11.075 29 21 29C22.7084 29.0031 24.3595 28.3841 25.6449 27.2588C26.9303 26.1335 27.7621 24.5788 27.985 22.885C28.0374 22.4568 27.95 22.0232 27.7357 21.6488C27.5215 21.2744 27.1919 20.9793 26.7963 20.8075Z" fill="white"/>
<path d="M57.5513 5.61251C57.6541 5.22833 57.9053 4.90071 58.2497 4.7017C58.594 4.50269 59.0033 4.44858 59.3875 4.55126C61.3268 5.05646 63.0961 6.06983 64.5132 7.48686C65.9302 8.90388 66.9436 10.6733 67.4488 12.6125C67.5043 12.8042 67.5211 13.0051 67.498 13.2034C67.4749 13.4016 67.4125 13.5933 67.3145 13.7671C67.2164 13.941 67.0846 14.0935 66.9268 14.2157C66.769 14.338 66.5884 14.4275 66.3956 14.4791C66.2028 14.5307 66.0016 14.5433 65.8039 14.5161C65.6061 14.4889 65.4158 14.4226 65.244 14.3209C65.0723 14.2192 64.9225 14.0843 64.8036 13.924C64.6846 13.7638 64.5988 13.5814 64.5513 13.3875C64.1787 11.959 63.4321 10.6557 62.3882 9.61182C61.3443 8.56795 60.041 7.82128 58.6125 7.44876C58.2283 7.34591 57.9007 7.0947 57.7017 6.75036C57.5027 6.40602 57.4486 5.99674 57.5513 5.61251ZM68.4813 22.9475C68.2429 24.762 67.3522 26.4278 65.9754 27.6336C64.5987 28.8394 62.8301 29.5028 61 29.5C50.7988 29.5 42.5 21.2013 42.5 11C42.4972 9.16989 43.1606 7.40131 44.3664 6.02458C45.5722 4.64785 47.238 3.75713 49.0525 3.51876C49.5872 3.45379 50.1285 3.56278 50.5964 3.82958C51.0642 4.09638 51.4337 4.50679 51.65 5.00001L54.2888 10.8913C54.2916 10.899 54.2949 10.9065 54.2988 10.9138C54.4609 11.2928 54.5268 11.706 54.4906 12.1167C54.4544 12.5274 54.3172 12.9227 54.0913 13.2675C54.0591 13.3177 54.0236 13.3658 53.985 13.4113L51.6025 16.25C52.485 17.855 54.165 19.52 55.7888 20.4013L58.5775 18.0263C58.6223 17.9888 58.669 17.9537 58.7175 17.9213C59.0635 17.6891 59.4623 17.5475 59.8773 17.5095C60.2922 17.4715 60.7101 17.5383 61.0925 17.7038L61.115 17.7138L67 20.35C67.4931 20.5665 67.9034 20.936 68.1702 21.4038C68.4369 21.8716 68.546 22.4129 68.4813 22.9475ZM65.4425 22.94L60.1925 20.5888L57.3888 22.9725C57.3447 23.0107 57.2983 23.0462 57.25 23.0788C56.8896 23.3177 56.4734 23.4591 56.042 23.4892C55.6106 23.5192 55.1788 23.4368 54.7888 23.25C52.3538 22.075 49.9275 19.665 48.75 17.25C48.5628 16.8617 48.4791 16.4316 48.5071 16.0015C48.5352 15.5713 48.6739 15.1557 48.91 14.795C48.9426 14.7448 48.9785 14.6967 49.0175 14.6513L51.4125 11.8113L49.06 6.56126C48.0493 6.784 47.1451 7.34568 46.4975 8.15307C45.85 8.96047 45.498 9.96502 45.5 11C45.505 15.1093 47.1396 19.0489 50.0453 21.9547C52.9511 24.8604 56.8907 26.495 61 26.5C62.0356 26.5029 63.0411 26.1513 63.8492 25.5037C64.6574 24.856 65.2196 23.9514 65.4425 22.94ZM57.2038 12.1838C57.8172 12.3771 58.3749 12.7155 58.8297 13.1703C59.2845 13.6251 59.6229 14.1828 59.8163 14.7963C59.912 15.1006 60.1022 15.3665 60.3594 15.5553C60.6166 15.7442 60.9272 15.8461 61.2463 15.8463C61.3993 15.8461 61.5514 15.8229 61.6975 15.7775C62.0755 15.6579 62.3907 15.3936 62.5744 15.0422C62.758 14.6909 62.7951 14.2811 62.6775 13.9025C62.3392 12.8285 61.7468 11.8519 60.9506 11.0557C60.1544 10.2594 59.1778 9.66704 58.1038 9.32876C57.9147 9.26533 57.715 9.24023 57.5161 9.25491C57.3173 9.26959 57.1234 9.32376 56.9457 9.41427C56.7681 9.50477 56.6102 9.62978 56.4814 9.78199C56.3527 9.9342 56.2555 10.1106 56.1957 10.3008C56.1359 10.4909 56.1146 10.6912 56.133 10.8897C56.1515 11.0882 56.2093 11.2811 56.3032 11.457C56.397 11.6329 56.525 11.7883 56.6797 11.9142C56.8343 12.04 57.0125 12.1338 57.2038 12.19V12.1838Z" fill="white"/>
</g>
<defs>
<clipPath id="clip0_27_635">
<rect width="72" height="32" rx="5" fill="white"/>
</clipPath>
</defs>
</svg>
