<svg width="72" height="32" viewBox="0 0 72 32" fill="none" xmlns="http://www.w3.org/2000/svg">
<g clip-path="url(#clip0_27_675)">
<path d="M17 9.00001C17 8.73479 17.1054 8.48044 17.2929 8.2929C17.4804 8.10536 17.7348 8.00001 18 8.00001H24.5863L22.2925 5.70751C22.1996 5.6146 22.1259 5.5043 22.0756 5.3829C22.0253 5.26151 21.9995 5.1314 21.9995 5.00001C21.9995 4.86861 22.0253 4.7385 22.0756 4.61711C22.1259 4.49572 22.1996 4.38542 22.2925 4.29251C22.3854 4.1996 22.4957 4.1259 22.6171 4.07561C22.7385 4.02533 22.8686 3.99945 23 3.99945C23.1314 3.99945 23.2615 4.02533 23.3829 4.07561C23.5043 4.1259 23.6146 4.1996 23.7075 4.29251L27.7075 8.29251C27.8005 8.38538 27.8743 8.49567 27.9246 8.61707C27.9749 8.73846 28.0008 8.86859 28.0008 9.00001C28.0008 9.13142 27.9749 9.26155 27.9246 9.38295C27.8743 9.50434 27.8005 9.61463 27.7075 9.70751L23.7075 13.7075C23.5199 13.8951 23.2654 14.0006 23 14.0006C22.7346 14.0006 22.4802 13.8951 22.2925 13.7075C22.1049 13.5199 21.9995 13.2654 21.9995 13C21.9995 12.7346 22.1049 12.4801 22.2925 12.2925L24.5863 10H18C17.7348 10 17.4804 9.89465 17.2929 9.70711C17.1054 9.51958 17 9.26522 17 9.00001ZM26.795 20.8075L20.9063 18.1688L20.8925 18.1613C20.5866 18.0303 20.2529 17.9777 19.9216 18.0082C19.5902 18.0388 19.2718 18.1515 18.995 18.3363C18.9624 18.3578 18.9311 18.3811 18.9013 18.4063L15.8588 21C13.9313 20.0638 11.9413 18.0888 11.005 16.1863L13.6025 13.0975C13.6275 13.0663 13.6513 13.035 13.6738 13.0013C13.8543 12.7254 13.9638 12.4092 13.9926 12.0807C14.0214 11.7523 13.9686 11.4218 13.8388 11.1188V11.1038L11.1925 5.20501C11.0207 4.80932 10.7256 4.47978 10.3512 4.26554C9.97682 4.05131 9.54318 3.96386 9.11501 4.01626C7.42122 4.2386 5.86635 5.0701 4.74097 6.35536C3.61559 7.64062 2.99672 9.29169 3.00001 11C3.00001 20.925 11.075 29 21 29C22.7083 29.0033 24.3594 28.3844 25.6447 27.259C26.9299 26.1337 27.7614 24.5788 27.9838 22.885C28.0362 22.4568 27.9487 22.0232 27.7345 21.6488C27.5202 21.2744 27.1907 20.9793 26.795 20.8075Z" fill="white"/>
<path d="M56.5 9.00001C56.5 8.60218 56.658 8.22065 56.9393 7.93935C57.2207 7.65804 57.6022 7.50001 58 7.50001H63.375L61.9388 6.06126C61.7992 5.92173 61.6885 5.75608 61.613 5.57378C61.5375 5.39147 61.4987 5.19608 61.4987 4.99876C61.4987 4.60024 61.657 4.21805 61.9388 3.93626C62.2206 3.65446 62.6027 3.49615 63.0013 3.49615C63.3998 3.49615 63.782 3.65446 64.0638 3.93626L68.0638 7.93626C68.2036 8.07561 68.3146 8.2412 68.3903 8.42353C68.466 8.60586 68.5049 8.80134 68.5049 8.99876C68.5049 9.19618 68.466 9.39166 68.3903 9.57398C68.3146 9.75631 68.2036 9.9219 68.0638 10.0613L64.0638 14.0613C63.782 14.343 63.3998 14.5014 63.0013 14.5014C62.6027 14.5014 62.2206 14.343 61.9388 14.0613C61.657 13.7795 61.4987 13.3973 61.4987 12.9988C61.4987 12.6002 61.657 12.218 61.9388 11.9363L63.375 10.5H58C57.6022 10.5 57.2207 10.342 56.9393 10.0607C56.658 9.77936 56.5 9.39783 56.5 9.00001ZM68.48 22.9475C68.2419 24.7619 67.3515 26.4276 65.9749 27.6335C64.5984 28.8393 62.83 29.5028 61 29.5C50.7988 29.5 42.5 21.2013 42.5 11C42.4972 9.17002 43.1607 7.4016 44.3665 6.02508C45.5724 4.64856 47.2381 3.75809 49.0525 3.52001C49.5871 3.45392 50.1288 3.56229 50.5969 3.82897C51.0649 4.09566 51.4343 4.50639 51.65 5.00001L54.2888 10.8913L54.2975 10.9138C54.4606 11.2925 54.5272 11.7058 54.4912 12.1166C54.4552 12.5274 54.3178 12.9229 54.0913 13.2675C54.0591 13.3177 54.0236 13.3658 53.985 13.4113L51.6025 16.25C52.485 17.855 54.165 19.52 55.7888 20.4013L58.5775 18.0263C58.622 17.9885 58.6688 17.9534 58.7175 17.9213C59.0636 17.6892 59.4623 17.5477 59.8773 17.5097C60.2922 17.4717 60.7101 17.5384 61.0925 17.7038L61.115 17.7138L67 20.35C67.4936 20.5657 67.9044 20.9351 68.171 21.4032C68.4377 21.8712 68.5461 22.4129 68.48 22.9475ZM65.4413 22.94L60.1913 20.5888L57.3888 22.9725C57.3443 23.0107 57.2975 23.0462 57.2488 23.0788C56.8887 23.3188 56.4724 23.4612 56.0408 23.4921C55.6091 23.5229 55.1769 23.4413 54.7863 23.255C52.3513 22.08 49.925 19.67 48.7475 17.255C48.5603 16.8667 48.4766 16.4366 48.5046 16.0065C48.5327 15.5763 48.6714 15.1607 48.9075 14.8C48.9401 14.7497 48.976 14.7017 49.015 14.6563L51.4125 11.8125L49.06 6.56251C48.0493 6.78478 47.145 7.34616 46.4974 8.15339C45.8498 8.96062 45.4978 9.96511 45.5 11C45.505 15.1093 47.1396 19.0489 50.0453 21.9547C52.9511 24.8604 56.8907 26.495 61 26.5C62.0355 26.503 63.0409 26.1515 63.8489 25.5038C64.6569 24.8561 65.2189 23.9514 65.4413 22.94Z" fill="white"/>
</g>
<defs>
<clipPath id="clip0_27_675">
<rect width="72" height="32" rx="5" fill="white"/>
</clipPath>
</defs>
</svg>
