<svg width="72" height="32" viewBox="0 0 72 32" fill="none" xmlns="http://www.w3.org/2000/svg">
<g clip-path="url(#clip0_27_680)">
<path d="M18.2925 12.2925L20.5863 9.99999L18.2925 7.70749C18.1049 7.51985 17.9995 7.26536 17.9995 6.99999C17.9995 6.73463 18.1049 6.48013 18.2925 6.29249C18.4802 6.10485 18.7346 5.99944 19 5.99944C19.2654 5.99944 19.5199 6.10485 19.7075 6.29249L22 8.58624L24.2925 6.29249C24.4802 6.10485 24.7346 5.99944 25 5.99944C25.2654 5.99944 25.5199 6.10485 25.7075 6.29249C25.8952 6.48013 26.0006 6.73463 26.0006 6.99999C26.0006 7.26536 25.8952 7.51985 25.7075 7.70749L23.415 9.99999L25.7075 12.2925C25.8004 12.3854 25.8741 12.4957 25.9244 12.6171C25.9747 12.7385 26.0006 12.8686 26.0006 13C26.0006 13.1314 25.9747 13.2615 25.9244 13.3829C25.8741 13.5043 25.8004 13.6146 25.7075 13.7075C25.6146 13.8004 25.5043 13.8741 25.3829 13.9244C25.2615 13.9747 25.1314 14.0005 25 14.0005C24.8686 14.0005 24.7385 13.9747 24.6171 13.9244C24.4957 13.8741 24.3854 13.8004 24.2925 13.7075L22 11.4137L19.7075 13.7075C19.5199 13.8951 19.2654 14.0005 19 14.0005C18.7346 14.0005 18.4802 13.8951 18.2925 13.7075C18.1049 13.5199 17.9995 13.2654 17.9995 13C17.9995 12.7346 18.1049 12.4801 18.2925 12.2925ZM26.7925 20.8075L20.9038 18.1687L20.8875 18.1612C20.5818 18.0305 20.2483 17.978 19.9172 18.0086C19.5861 18.0391 19.2679 18.1517 18.9913 18.3362C18.9587 18.3578 18.9274 18.3811 18.8975 18.4062L15.8588 21C13.9313 20.0637 11.9413 18.0887 11.005 16.1862L13.6025 13.0975C13.6275 13.0662 13.6513 13.035 13.6738 13.0012C13.8543 12.7254 13.9638 12.4091 13.9926 12.0807C14.0214 11.7523 13.9686 11.4218 13.8388 11.1187V11.1037L11.1925 5.20499C11.0209 4.80907 10.7259 4.47926 10.3515 4.26479C9.97707 4.05032 9.54333 3.96269 9.11501 4.01499C7.42122 4.23787 5.86649 5.0697 4.74118 6.35511C3.61587 7.64052 2.99695 9.2916 3.00001 11C3.00001 20.925 11.075 29 21 29C22.7084 29.0031 24.3595 28.3841 25.6449 27.2588C26.9303 26.1335 27.7621 24.5788 27.985 22.885C28.0374 22.4568 27.95 22.0232 27.7357 21.6488C27.5215 21.2744 27.1919 20.9793 26.7963 20.8075H26.7925Z" fill="white"/>
<path d="M57.94 11.9388L59.875 10L57.94 8.06C57.6582 7.77821 57.4999 7.39602 57.4999 6.9975C57.4999 6.80018 57.5388 6.60478 57.6143 6.42248C57.6898 6.24018 57.8005 6.07453 57.94 5.935C58.0795 5.79547 58.2452 5.68479 58.4275 5.60928C58.6098 5.53376 58.8052 5.4949 59.0025 5.4949C59.401 5.4949 59.7832 5.65321 60.065 5.935L62 7.875L63.94 5.935C64.2218 5.65321 64.604 5.4949 65.0025 5.4949C65.401 5.4949 65.7832 5.65321 66.065 5.935C66.3468 6.21679 66.5051 6.59899 66.5051 6.9975C66.5051 7.39602 66.3468 7.77821 66.065 8.06L64.125 10L66.065 11.9388C66.3468 12.2205 66.5051 12.6027 66.5051 13.0013C66.5051 13.3998 66.3468 13.782 66.065 14.0638C65.7832 14.3455 65.401 14.5039 65.0025 14.5039C64.604 14.5039 64.2218 14.3455 63.94 14.0638L62 12.125L60.0613 14.0638C59.9217 14.2033 59.7561 14.314 59.5738 14.3895C59.3915 14.465 59.1961 14.5039 58.9988 14.5039C58.8014 14.5039 58.606 14.465 58.4237 14.3895C58.2414 14.314 58.0758 14.2033 57.9363 14.0638C57.7967 13.9242 57.686 13.7586 57.6105 13.5763C57.535 13.394 57.4962 13.1986 57.4962 13.0013C57.4962 12.8039 57.535 12.6085 57.6105 12.4262C57.686 12.2439 57.7967 12.0783 57.9363 11.9388H57.94ZM68.4813 22.9475C68.2429 24.762 67.3522 26.4278 65.9754 27.6336C64.5987 28.8394 62.8301 29.5028 61 29.5C50.7988 29.5 42.5 21.2013 42.5 11C42.4972 9.16988 43.1606 7.40129 44.3664 6.02457C45.5722 4.64784 47.238 3.75712 49.0525 3.51875C49.5871 3.45399 50.1284 3.56306 50.5962 3.82984C51.064 4.09661 51.4335 4.5069 51.65 5L54.2888 10.8913C54.2916 10.899 54.2949 10.9065 54.2988 10.9138C54.4609 11.2928 54.5268 11.706 54.4906 12.1167C54.4544 12.5274 54.3172 12.9227 54.0913 13.2675C54.0588 13.3175 54.0233 13.3655 53.985 13.4113L51.6025 16.25C52.485 17.855 54.165 19.52 55.7888 20.4013L58.5775 18.0263C58.6223 17.9888 58.669 17.9537 58.7175 17.9213C59.0636 17.6892 59.4622 17.5476 59.8771 17.5094C60.292 17.4711 60.7099 17.5376 61.0925 17.7025L61.115 17.7125L67 20.35C67.4931 20.5665 67.9034 20.936 68.1702 21.4038C68.4369 21.8716 68.546 22.4129 68.4813 22.9475ZM65.4425 22.94L60.1925 20.5888L57.3888 22.9725C57.3447 23.0107 57.2983 23.0461 57.25 23.0788C56.8896 23.3177 56.4734 23.4591 56.042 23.4891C55.6106 23.5192 55.1788 23.4368 54.7888 23.25C52.3538 22.075 49.9275 19.665 48.75 17.25C48.5628 16.8617 48.4791 16.4316 48.5071 16.0015C48.5352 15.5713 48.6739 15.1557 48.91 14.795C48.9429 14.7446 48.9788 14.6961 49.0175 14.65L51.4125 11.8113L49.06 6.56125C48.0493 6.78399 47.1451 7.34567 46.4975 8.15306C45.85 8.96045 45.498 9.96501 45.5 11C45.505 15.1093 47.1396 19.0489 50.0453 21.9547C52.9511 24.8604 56.8907 26.495 61 26.5C62.0356 26.5029 63.0411 26.1513 63.8492 25.5037C64.6574 24.856 65.2196 23.9514 65.4425 22.94Z" fill="white"/>
</g>
<defs>
<clipPath id="clip0_27_680">
<rect width="72" height="32" rx="5" fill="white"/>
</clipPath>
</defs>
</svg>
