<svg width="72" height="32" viewBox="0 0 72 32" fill="none" xmlns="http://www.w3.org/2000/svg">
<g clip-path="url(#clip0_27_660)">
<path d="M27.985 22.885C27.7621 24.5788 26.9303 26.1335 25.6449 27.2588C24.3595 28.3841 22.7084 29.0031 21 29C11.075 29 3.00001 20.925 3.00001 11C2.99695 9.2916 3.61587 7.64052 4.74118 6.35511C5.86649 5.0697 7.42122 4.23787 9.11501 4.01499C9.54333 3.96269 9.97707 4.05032 10.3515 4.26479C10.7259 4.47926 11.0209 4.80907 11.1925 5.20499L13.8325 11.0987V11.1137C13.9639 11.4168 14.0181 11.7477 13.9904 12.0768C13.9627 12.406 13.8539 12.7231 13.6738 13C13.6513 13.0337 13.6275 13.065 13.6025 13.0962L11 16.1812C11.9363 18.0837 13.9263 20.0562 15.8538 20.995L18.8963 18.4062C18.9261 18.3811 18.9574 18.3578 18.99 18.3362C19.2668 18.1515 19.5852 18.0388 19.9166 18.0082C20.2479 17.9777 20.5816 18.0303 20.8875 18.1612L20.9025 18.1687L26.79 20.8075C27.1869 20.9783 27.5177 21.2729 27.7332 21.6474C27.9486 22.0219 28.0369 22.4561 27.985 22.885ZM25 14C25.2652 14 25.5196 13.8946 25.7071 13.7071C25.8947 13.5196 26 13.2652 26 13V5.99999C26 5.73477 25.8947 5.48042 25.7071 5.29288C25.5196 5.10535 25.2652 4.99999 25 4.99999C24.7348 4.99999 24.4804 5.10535 24.2929 5.29288C24.1054 5.48042 24 5.73477 24 5.99999V13C24 13.2652 24.1054 13.5196 24.2929 13.7071C24.4804 13.8946 24.7348 14 25 14ZM20 14C20.2652 14 20.5196 13.8946 20.7071 13.7071C20.8947 13.5196 21 13.2652 21 13V5.99999C21 5.73477 20.8947 5.48042 20.7071 5.29288C20.5196 5.10535 20.2652 4.99999 20 4.99999C19.7348 4.99999 19.4804 5.10535 19.2929 5.29288C19.1054 5.48042 19 5.73477 19 5.99999V13C19 13.2652 19.1054 13.5196 19.2929 13.7071C19.4804 13.8946 19.7348 14 20 14Z" fill="white"/>
<path d="M67 20.35L61.1138 17.7125L61.0913 17.7025C60.7089 17.5368 60.291 17.4699 59.876 17.5079C59.461 17.5459 59.0622 17.6876 58.7163 17.92C58.6678 17.9525 58.621 17.9875 58.5763 18.025L55.7875 20.4C54.1625 19.5187 52.4838 17.8538 51.6013 16.2488L53.9838 13.4163C54.0224 13.3708 54.0578 13.3227 54.09 13.2725C54.316 12.9277 54.4532 12.5324 54.4894 12.1217C54.5256 11.711 54.4597 11.2978 54.2975 10.9188L54.2875 10.8963L51.65 5C51.4335 4.5069 51.064 4.09661 50.5962 3.82984C50.1284 3.56306 49.5871 3.45399 49.0525 3.51875C47.238 3.75712 45.5722 4.64784 44.3664 6.02457C43.1606 7.40129 42.4972 9.16988 42.5 11C42.5 21.2013 50.7988 29.5 61 29.5C62.8301 29.5028 64.5987 28.8394 65.9754 27.6336C67.3522 26.4278 68.2429 24.762 68.4813 22.9475C68.546 22.4129 68.4369 21.8716 68.1702 21.4038C67.9034 20.936 67.4931 20.5665 67 20.35ZM61 26.5C56.8907 26.495 52.9511 24.8604 50.0453 21.9547C47.1396 19.0489 45.505 15.1093 45.5 11C45.497 9.96446 45.8485 8.95909 46.4962 8.15109C47.1439 7.34309 48.0486 6.78116 49.06 6.55875L51.4125 11.8088L49.0175 14.6588C48.9785 14.7042 48.9426 14.7522 48.91 14.8025C48.6735 15.1635 48.5345 15.5795 48.5064 16.0102C48.4784 16.4408 48.5623 16.8714 48.75 17.26C49.9275 19.67 52.3538 22.08 54.7888 23.26C55.1796 23.4453 55.6119 23.526 56.0433 23.4942C56.4747 23.4625 56.8905 23.3193 57.25 23.0788C57.2983 23.0461 57.3447 23.0107 57.3888 22.9725L60.1925 20.5888L65.4425 22.94C65.2196 23.9514 64.6574 24.856 63.8492 25.5037C63.0411 26.1513 62.0356 26.5029 61 26.5ZM63.5 13V6C63.5 5.60218 63.658 5.22064 63.9394 4.93934C64.2207 4.65804 64.6022 4.5 65 4.5C65.3978 4.5 65.7794 4.65804 66.0607 4.93934C66.342 5.22064 66.5 5.60218 66.5 6V13C66.5 13.3978 66.342 13.7794 66.0607 14.0607C65.7794 14.342 65.3978 14.5 65 14.5C64.6022 14.5 64.2207 14.342 63.9394 14.0607C63.658 13.7794 63.5 13.3978 63.5 13ZM58.5 13V6C58.5 5.60218 58.658 5.22064 58.9394 4.93934C59.2207 4.65804 59.6022 4.5 60 4.5C60.3978 4.5 60.7794 4.65804 61.0607 4.93934C61.342 5.22064 61.5 5.60218 61.5 6V13C61.5 13.3978 61.342 13.7794 61.0607 14.0607C60.7794 14.342 60.3978 14.5 60 14.5C59.6022 14.5 59.2207 14.342 58.9394 14.0607C58.658 13.7794 58.5 13.3978 58.5 13Z" fill="white"/>
</g>
<defs>
<clipPath id="clip0_27_660">
<rect width="72" height="32" rx="5" fill="white"/>
</clipPath>
</defs>
</svg>
