<svg width="72" height="32" viewBox="0 0 72 32" fill="none" xmlns="http://www.w3.org/2000/svg">
<g clip-path="url(#clip0_27_655)">
<path d="M18.2925 13.7075C18.1995 13.6146 18.1258 13.5043 18.0755 13.3829C18.0251 13.2615 17.9992 13.1314 17.9992 13C17.9992 12.8686 18.0251 12.7384 18.0755 12.6171C18.1258 12.4957 18.1995 12.3854 18.2925 12.2925L22.5863 7.99999H20C19.7348 7.99999 19.4804 7.89463 19.2929 7.7071C19.1054 7.51956 19 7.26521 19 6.99999C19 6.73477 19.1054 6.48042 19.2929 6.29288C19.4804 6.10535 19.7348 5.99999 20 5.99999H25C25.2652 5.99999 25.5196 6.10535 25.7071 6.29288C25.8947 6.48042 26 6.73477 26 6.99999V12C26 12.2652 25.8947 12.5196 25.7071 12.7071C25.5196 12.8946 25.2652 13 25 13C24.7348 13 24.4804 12.8946 24.2929 12.7071C24.1054 12.5196 24 12.2652 24 12V9.41374L19.7075 13.7075C19.6146 13.8005 19.5044 13.8742 19.383 13.9246C19.2616 13.9749 19.1314 14.0008 19 14.0008C18.8686 14.0008 18.7385 13.9749 18.6171 13.9246C18.4957 13.8742 18.3854 13.8005 18.2925 13.7075ZM26.7925 20.8075L20.9038 18.1687L20.8875 18.1612C20.5818 18.0305 20.2483 17.978 19.9172 18.0086C19.5861 18.0391 19.2679 18.1517 18.9913 18.3362C18.9587 18.3578 18.9274 18.3811 18.8975 18.4062L15.8588 21C13.9313 20.0637 11.9413 18.0887 11.005 16.1862L13.6025 13.0975C13.6275 13.0662 13.6513 13.035 13.6738 13.0012C13.8543 12.7254 13.9638 12.4091 13.9926 12.0807C14.0214 11.7523 13.9686 11.4218 13.8388 11.1187V11.1037L11.1925 5.20499C11.0209 4.80907 10.7259 4.47926 10.3515 4.26479C9.97707 4.05032 9.54333 3.96269 9.11501 4.01499C7.42122 4.23787 5.86649 5.0697 4.74118 6.35511C3.61587 7.64052 2.99695 9.2916 3.00001 11C3.00001 20.925 11.075 29 21 29C22.7084 29.0031 24.3595 28.3841 25.6449 27.2588C26.9303 26.1335 27.7621 24.5788 27.985 22.885C28.0374 22.4568 27.95 22.0232 27.7357 21.6488C27.5215 21.2744 27.1919 20.9793 26.7963 20.8075H26.7925Z" fill="white"/>
<path d="M57.94 14.06C57.8002 13.9207 57.6892 13.7551 57.6135 13.5727C57.5378 13.3904 57.4988 13.1949 57.4988 12.9975C57.4988 12.8001 57.5378 12.6046 57.6135 12.4223C57.6892 12.24 57.8002 12.0744 57.94 11.935L61.375 8.50001H60C59.6022 8.50001 59.2207 8.34198 58.9394 8.06067C58.658 7.77937 58.5 7.39784 58.5 7.00001C58.5 6.60219 58.658 6.22066 58.9394 5.93935C59.2207 5.65805 59.6022 5.50001 60 5.50001H65C65.3978 5.50001 65.7794 5.65805 66.0607 5.93935C66.342 6.22066 66.5 6.60219 66.5 7.00001V12C66.5 12.3978 66.342 12.7794 66.0607 13.0607C65.7794 13.342 65.3978 13.5 65 13.5C64.6022 13.5 64.2207 13.342 63.9394 13.0607C63.658 12.7794 63.5 12.3978 63.5 12V10.625L60.0613 14.0638C59.9219 14.2036 59.7563 14.3146 59.574 14.3903C59.3917 14.466 59.1962 14.5049 58.9988 14.5049C58.8013 14.5049 58.6059 14.466 58.4235 14.3903C58.2412 14.3146 58.0756 14.2036 57.9363 14.0638L57.94 14.06ZM68.4813 22.9475C68.2429 24.762 67.3522 26.4278 65.9754 27.6336C64.5987 28.8394 62.8301 29.5028 61 29.5C50.7988 29.5 42.5 21.2013 42.5 11C42.4972 9.16989 43.1606 7.40131 44.3664 6.02458C45.5722 4.64785 47.238 3.75713 49.0525 3.51876C49.5872 3.45379 50.1285 3.56278 50.5964 3.82958C51.0642 4.09638 51.4337 4.50679 51.65 5.00001L54.2888 10.8913C54.2916 10.899 54.2949 10.9065 54.2988 10.9138C54.4609 11.2928 54.5268 11.706 54.4906 12.1167C54.4544 12.5274 54.3172 12.9227 54.0913 13.2675C54.0591 13.3177 54.0236 13.3658 53.985 13.4113L51.6025 16.25C52.485 17.855 54.165 19.52 55.7888 20.4013L58.5775 18.0263C58.6223 17.9888 58.669 17.9537 58.7175 17.9213C59.0635 17.6891 59.4623 17.5475 59.8773 17.5095C60.2922 17.4715 60.7101 17.5383 61.0925 17.7038L61.115 17.7138L67 20.35C67.4931 20.5665 67.9034 20.936 68.1702 21.4038C68.4369 21.8716 68.546 22.4129 68.4813 22.9475ZM65.4425 22.94L60.1925 20.5888L57.3888 22.9725C57.3447 23.0107 57.2983 23.0462 57.25 23.0788C56.8896 23.3177 56.4734 23.4591 56.042 23.4892C55.6106 23.5192 55.1788 23.4368 54.7888 23.25C52.3538 22.075 49.9275 19.665 48.75 17.25C48.5628 16.8617 48.4791 16.4316 48.5071 16.0015C48.5352 15.5713 48.6739 15.1557 48.91 14.795C48.9426 14.7448 48.9785 14.6967 49.0175 14.6513L51.4125 11.8125L49.06 6.56251C48.0495 6.78521 47.1455 7.3467 46.4979 8.15384C45.8504 8.96097 45.4983 9.96524 45.5 11C45.505 15.1093 47.1396 19.0489 50.0453 21.9547C52.9511 24.8604 56.8907 26.495 61 26.5C62.0356 26.5029 63.0411 26.1513 63.8492 25.5037C64.6574 24.856 65.2196 23.9514 65.4425 22.94Z" fill="white"/>
</g>
<defs>
<clipPath id="clip0_27_655">
<rect width="72" height="32" rx="5" fill="white"/>
</clipPath>
</defs>
</svg>
