<svg width="72" height="32" viewBox="0 0 72 32" fill="none" xmlns="http://www.w3.org/2000/svg">
<g clip-path="url(#clip0_27_269)">
<path d="M19 4H9C8.73478 4 8.48043 4.10536 8.29289 4.29289C8.10536 4.48043 8 4.73478 8 5V21C8.00298 23.6513 9.0575 26.1931 10.9322 28.0678C12.8069 29.9425 15.3487 30.997 18 31C18.2652 31 18.5196 30.8946 18.7071 30.7071C18.8946 30.5196 19 30.2652 19 30V22C21.3869 22 23.6761 21.0518 25.364 19.364C27.0518 17.6761 28 15.3869 28 13C28 10.6131 27.0518 8.32387 25.364 6.63604C23.6761 4.94821 21.3869 4 19 4ZM17 28.9375C15.2389 28.7124 13.6023 27.909 12.347 26.6534C11.0916 25.3979 10.2886 23.7612 10.0638 22H17V28.9375ZM17 17.1875L10.71 6H17V17.1875ZM19 20V6C20.8565 6 22.637 6.7375 23.9497 8.05025C25.2625 9.36301 26 11.1435 26 13C26 14.8565 25.2625 16.637 23.9497 17.9497C22.637 19.2625 20.8565 20 19 20Z" fill="white"/>
<path d="M68.5 13C68.4974 10.4813 67.4956 8.06643 65.7146 6.28541C63.9336 4.50439 61.5187 3.50265 59 3.5H49C48.6022 3.5 48.2206 3.65804 47.9393 3.93934C47.658 4.22064 47.5 4.60218 47.5 5V21C47.503 23.7839 48.6102 26.4528 50.5787 28.4213C52.5472 30.3898 55.2161 31.497 58 31.5C58.3978 31.5 58.7794 31.342 59.0607 31.0607C59.342 30.7794 59.5 30.3978 59.5 30V22.4862C61.9286 22.3555 64.2148 21.2994 65.8887 19.5351C67.5627 17.7707 68.4971 15.4321 68.5 13ZM50.5 10.7262L55.435 19.5H50.5V10.7262ZM56.5 15.2738L51.565 6.5H56.5V15.2738ZM50.6525 22.5H56.5V28.3487C55.0605 28.0517 53.7396 27.3395 52.7004 26.3001C51.6611 25.2607 50.9492 23.9396 50.6525 22.5ZM59.5 19.4788V6.52125C61.1277 6.65319 62.646 7.39295 63.7531 8.59339C64.8602 9.79383 65.4748 11.367 65.4748 13C65.4748 14.633 64.8602 16.2062 63.7531 17.4066C62.646 18.6071 61.1277 19.3468 59.5 19.4788Z" fill="white"/>
</g>
<defs>
<clipPath id="clip0_27_269">
<rect width="72" height="32" rx="5" fill="white"/>
</clipPath>
</defs>
</svg>
