<svg width="72" height="32" viewBox="0 0 72 32" fill="none" xmlns="http://www.w3.org/2000/svg">
<g clip-path="url(#clip0_27_3906)">
<path d="M26 4H6C5.46957 4 4.96086 4.21071 4.58579 4.58579C4.21071 4.96086 4 5.46957 4 6V26C4 26.5304 4.21071 27.0391 4.58579 27.4142C4.96086 27.7893 5.46957 28 6 28H26C26.5304 28 27.0391 27.7893 27.4142 27.4142C27.7893 27.0391 28 26.5304 28 26V6C28 5.46957 27.7893 4.96086 27.4142 4.58579C27.0391 4.21071 26.5304 4 26 4ZM11 26H6V6H9V18C9 18.2652 9.10536 18.5196 9.29289 18.7071C9.48043 18.8946 9.73478 19 10 19H11V26ZM19 26H13V19H14C14.2652 19 14.5196 18.8946 14.7071 18.7071C14.8946 18.5196 15 18.2652 15 18V6H17V18C17 18.2652 17.1054 18.5196 17.2929 18.7071C17.4804 18.8946 17.7348 19 18 19H19V26ZM26 26H21V19H22C22.2652 19 22.5196 18.8946 22.7071 18.7071C22.8946 18.5196 23 18.2652 23 18V6H26V26Z" fill="white"/>
<path d="M66 3.5H46C45.337 3.5 44.7011 3.76339 44.2322 4.23223C43.7634 4.70107 43.5 5.33696 43.5 6V26C43.5 26.663 43.7634 27.2989 44.2322 27.7678C44.7011 28.2366 45.337 28.5 46 28.5H66C66.663 28.5 67.2989 28.2366 67.7678 27.7678C68.2366 27.2989 68.5 26.663 68.5 26V6C68.5 5.33696 68.2366 4.70107 67.7678 4.23223C67.2989 3.76339 66.663 3.5 66 3.5ZM51.5 16.5V6.5H54.5V16.5H51.5ZM58 19.5V25.5H54V19.5H58ZM60.5 16.5H57.5V6.5H60.5V16.5ZM46.5 6.5H48.5V18C48.5 18.3978 48.658 18.7794 48.9393 19.0607C49.2206 19.342 49.6022 19.5 50 19.5H51V25.5H46.5V6.5ZM65.5 25.5H61V19.5H62C62.3978 19.5 62.7794 19.342 63.0607 19.0607C63.342 18.7794 63.5 18.3978 63.5 18V6.5H65.5V25.5Z" fill="white"/>
</g>
<defs>
<clipPath id="clip0_27_3906">
<rect width="72" height="32" rx="5" fill="white"/>
</clipPath>
</defs>
</svg>
