<svg width="72" height="32" viewBox="0 0 72 32" fill="none" xmlns="http://www.w3.org/2000/svg">
<g clip-path="url(#clip0_27_1377)">
<path d="M18.3563 12L20.1737 16H11.8263L13.6438 12H18.3563ZM29 7V25C29 25.5304 28.7893 26.0391 28.4142 26.4142C28.0391 26.7893 27.5304 27 27 27H5C4.46957 27 3.96086 26.7893 3.58579 26.4142C3.21071 26.0391 3 25.5304 3 25V7C3 6.46957 3.21071 5.96086 3.58579 5.58579C3.96086 5.21071 4.46957 5 5 5H27C27.5304 5 28.0391 5.21071 28.4142 5.58579C28.7893 5.96086 29 6.46957 29 7ZM26 17C26 16.7348 25.8946 16.4804 25.7071 16.2929C25.5196 16.1054 25.2652 16 25 16H22.375L20.5525 12H22C22.2652 12 22.5196 11.8946 22.7071 11.7071C22.8946 11.5196 23 11.2652 23 11C23 10.7348 22.8946 10.4804 22.7071 10.2929C22.5196 10.1054 22.2652 10 22 10H10C9.73478 10 9.48043 10.1054 9.29289 10.2929C9.10536 10.4804 9 10.7348 9 11C9 11.2652 9.10536 11.5196 9.29289 11.7071C9.48043 11.8946 9.73478 12 10 12H11.4475L9.625 16H7C6.73478 16 6.48043 16.1054 6.29289 16.2929C6.10536 16.4804 6 16.7348 6 17C6 17.2652 6.10536 17.5196 6.29289 17.7071C6.48043 17.8946 6.73478 18 7 18H8.72L7.095 21.5863C7.03649 21.7063 7.00264 21.8369 6.99542 21.9703C6.98821 22.1036 7.00779 22.2371 7.053 22.3628C7.09822 22.4885 7.16815 22.6038 7.25867 22.702C7.3492 22.8002 7.45848 22.8793 7.58007 22.9346C7.70166 22.9899 7.83309 23.0202 7.9666 23.0239C8.10012 23.0276 8.23301 23.0044 8.35744 22.9559C8.48187 22.9073 8.59532 22.8343 8.69108 22.7412C8.78684 22.6481 8.86298 22.5368 8.915 22.4137L10.915 18H21.0825L23.0888 22.4137C23.2029 22.648 23.404 22.8285 23.6492 22.9167C23.8944 23.0049 24.1644 22.9939 24.4016 22.8861C24.6388 22.7782 24.8246 22.582 24.9193 22.3392C25.014 22.0964 25.0102 21.8263 24.9088 21.5863L23.2838 18H25C25.2652 18 25.5196 17.8946 25.7071 17.7071C25.8946 17.5196 26 17.2652 26 17Z" fill="white"/>
<path d="M70.5 15.5H65.4275L62.4275 9.5H64C64.3978 9.5 64.7794 9.34196 65.0607 9.06066C65.342 8.77936 65.5 8.39782 65.5 8C65.5 7.60218 65.342 7.22064 65.0607 6.93934C64.7794 6.65804 64.3978 6.5 64 6.5H48C47.6022 6.5 47.2206 6.65804 46.9393 6.93934C46.658 7.22064 46.5 7.60218 46.5 8C46.5 8.39782 46.658 8.77936 46.9393 9.06066C47.2206 9.34196 47.6022 9.5 48 9.5H49.5725L46.5725 15.5H41.5C41.1022 15.5 40.7206 15.658 40.4393 15.9393C40.158 16.2206 40 16.6022 40 17C40 17.3978 40.158 17.7794 40.4393 18.0607C40.7206 18.342 41.1022 18.5 41.5 18.5H45.0725L42.6588 23.3288C42.565 23.5055 42.5075 23.6991 42.4898 23.8984C42.472 24.0976 42.4942 24.2984 42.5552 24.4889C42.6161 24.6794 42.7146 24.8558 42.8447 25.0077C42.9749 25.1596 43.1341 25.2839 43.313 25.3734C43.4919 25.4629 43.6869 25.5156 43.8865 25.5286C44.0861 25.5416 44.2863 25.5145 44.4753 25.449C44.6643 25.3834 44.8382 25.2807 44.987 25.147C45.1357 25.0132 45.2561 24.851 45.3412 24.67L48.4275 18.5H63.5725L66.6588 24.67C66.7439 24.851 66.8643 25.0132 67.013 25.147C67.1618 25.2807 67.3357 25.3834 67.5247 25.449C67.7137 25.5145 67.9139 25.5416 68.1135 25.5286C68.3131 25.5156 68.5081 25.4629 68.687 25.3734C68.8659 25.2839 69.0251 25.1596 69.1553 25.0077C69.2854 24.8558 69.3839 24.6794 69.4448 24.4889C69.5058 24.2984 69.528 24.0976 69.5102 23.8984C69.4925 23.6991 69.435 23.5055 69.3412 23.3288L66.9275 18.5H70.5C70.8978 18.5 71.2794 18.342 71.5607 18.0607C71.842 17.7794 72 17.3978 72 17C72 16.6022 71.842 16.2206 71.5607 15.9393C71.2794 15.658 70.8978 15.5 70.5 15.5ZM49.9275 15.5L52.9275 9.5H59.0725L62.0725 15.5H49.9275Z" fill="white"/>
</g>
<defs>
<clipPath id="clip0_27_1377">
<rect width="72" height="32" rx="5" fill="white"/>
</clipPath>
</defs>
</svg>
