<svg width="72" height="32" viewBox="0 0 72 32" fill="none" xmlns="http://www.w3.org/2000/svg">
<g clip-path="url(#clip0_27_3911)">
<path d="M27 6H5C4.46957 6 3.96086 6.21071 3.58579 6.58579C3.21071 6.96086 3 7.46957 3 8V24C3 24.5304 3.21071 25.0391 3.58579 25.4142C3.96086 25.7893 4.46957 26 5 26H27C27.5304 26 28.0391 25.7893 28.4142 25.4142C28.7893 25.0391 29 24.5304 29 24V8C29 7.46957 28.7893 6.96086 28.4142 6.58579C28.0391 6.21071 27.5304 6 27 6ZM27 24H17V16H27V24Z" fill="white"/>
<path d="M67 5.5H45C44.337 5.5 43.7011 5.76339 43.2322 6.23223C42.7634 6.70107 42.5 7.33696 42.5 8V24C42.5 24.663 42.7634 25.2989 43.2322 25.7678C43.7011 26.2366 44.337 26.5 45 26.5H67C67.663 26.5 68.2989 26.2366 68.7678 25.7678C69.2366 25.2989 69.5 24.663 69.5 24V8C69.5 7.33696 69.2366 6.70107 68.7678 6.23223C68.2989 5.76339 67.663 5.5 67 5.5ZM45.5 8.5H66.5V14.5H57C56.6022 14.5 56.2206 14.658 55.9393 14.9393C55.658 15.2206 55.5 15.6022 55.5 16V23.5H45.5V8.5ZM58.5 23.5V17.5H66.5V23.5H58.5Z" fill="white"/>
</g>
<defs>
<clipPath id="clip0_27_3911">
<rect width="72" height="32" rx="5" fill="white"/>
</clipPath>
</defs>
</svg>
