<svg width="72" height="32" viewBox="0 0 72 32" fill="none" xmlns="http://www.w3.org/2000/svg">
<g clip-path="url(#clip0_27_1382)">
<path d="M28.25 11.01C28.2 10.885 28.1475 10.76 28.0938 10.635C27.2873 8.77505 25.9821 7.17438 24.3225 6.01001H27C27.2652 6.01001 27.5196 5.90465 27.7071 5.71712C27.8946 5.52958 28 5.27523 28 5.01001C28 4.74479 27.8946 4.49044 27.7071 4.3029C27.5196 4.11537 27.2652 4.01001 27 4.01001H14C11.2351 4.01352 8.57268 5.0567 6.54135 6.93241C4.51003 8.80812 3.2584 11.3792 3.035 14.135C2.1712 14.3497 1.4037 14.8464 0.853985 15.5465C0.304271 16.2465 0.0037519 17.1099 0 18C0 18.2652 0.105357 18.5196 0.292893 18.7071C0.48043 18.8947 0.734784 19 1 19C1.26522 19 1.51957 18.8947 1.70711 18.7071C1.89464 18.5196 2 18.2652 2 18C2.00023 17.6354 2.10016 17.2777 2.28897 16.9657C2.47778 16.6538 2.7483 16.3993 3.07125 16.23C3.32016 18.4736 4.25568 20.5856 5.75 22.2775L7.32 26.6725C7.4588 27.0613 7.71448 27.3975 8.05197 27.6352C8.38946 27.8729 8.79222 28.0003 9.205 28H10.795C11.2076 28.0001 11.6101 27.8725 11.9473 27.6348C12.2845 27.3972 12.54 27.0611 12.6788 26.6725L12.9187 26H20.0812L20.3213 26.6725C20.46 27.0611 20.7155 27.3972 21.0527 27.6348C21.3899 27.8725 21.7924 28.0001 22.205 28H23.795C24.2076 28.0001 24.6101 27.8725 24.9473 27.6348C25.2845 27.3972 25.54 27.0611 25.6787 26.6725L27.705 21H28C28.7956 21 29.5587 20.6839 30.1213 20.1213C30.6839 19.5587 31 18.7957 31 18V14C31.0001 13.2476 30.7175 12.5225 30.2081 11.9687C29.6987 11.4149 28.9998 11.0727 28.25 11.01ZM19 9.00001H14C13.7348 9.00001 13.4804 8.89465 13.2929 8.70712C13.1054 8.51958 13 8.26523 13 8.00001C13 7.73479 13.1054 7.48044 13.2929 7.2929C13.4804 7.10537 13.7348 7.00001 14 7.00001H19C19.2652 7.00001 19.5196 7.10537 19.7071 7.2929C19.8946 7.48044 20 7.73479 20 8.00001C20 8.26523 19.8946 8.51958 19.7071 8.70712C19.5196 8.89465 19.2652 9.00001 19 9.00001ZM22.5 16C22.2033 16 21.9133 15.912 21.6666 15.7472C21.42 15.5824 21.2277 15.3481 21.1142 15.074C21.0007 14.7999 20.9709 14.4983 21.0288 14.2074C21.0867 13.9164 21.2296 13.6491 21.4393 13.4393C21.6491 13.2296 21.9164 13.0867 22.2074 13.0288C22.4983 12.971 22.7999 13.0007 23.074 13.1142C23.3481 13.2277 23.5824 13.42 23.7472 13.6667C23.912 13.9133 24 14.2033 24 14.5C24 14.8978 23.842 15.2794 23.5607 15.5607C23.2794 15.842 22.8978 16 22.5 16Z" fill="white"/>
<path d="M65 15C65 15.3956 64.8827 15.7822 64.6629 16.1111C64.4432 16.44 64.1308 16.6964 63.7654 16.8478C63.3999 16.9991 62.9978 17.0387 62.6098 16.9616C62.2219 16.8844 61.8655 16.6939 61.5858 16.4142C61.3061 16.1345 61.1156 15.7781 61.0384 15.3902C60.9613 15.0022 61.0009 14.6001 61.1522 14.2346C61.3036 13.8692 61.56 13.5568 61.8889 13.3371C62.2178 13.1173 62.6044 13 63 13C63.5304 13 64.0391 13.2107 64.4142 13.5858C64.7893 13.9609 65 14.4696 65 15ZM59.5 8H54.5C54.1022 8 53.7206 8.15804 53.4393 8.43934C53.158 8.72064 53 9.10218 53 9.5C53 9.89782 53.158 10.2794 53.4393 10.5607C53.7206 10.842 54.1022 11 54.5 11H59.5C59.8978 11 60.2794 10.842 60.5607 10.5607C60.842 10.2794 61 9.89782 61 9.5C61 9.10218 60.842 8.72064 60.5607 8.43934C60.2794 8.15804 59.8978 8 59.5 8ZM72 14V18C72.0001 18.9184 71.6393 19.8 70.9953 20.4548C70.3513 21.1095 69.4758 21.4849 68.5575 21.5L66.65 26.8412C66.4765 27.3269 66.157 27.7469 65.7354 28.0439C65.3138 28.3408 64.8107 28.5002 64.295 28.5H62.705C62.1893 28.5002 61.6862 28.3408 61.2646 28.0439C60.843 27.7469 60.5235 27.3269 60.35 26.8412L60.225 26.5H53.7712L53.6462 26.8412C53.4729 27.3263 53.1541 27.7459 52.7332 28.0428C52.3123 28.3397 51.81 28.4994 51.295 28.5H49.705C49.1893 28.5002 48.6862 28.3408 48.2646 28.0439C47.843 27.7469 47.5235 27.3269 47.35 26.8412L45.8125 22.535C44.4983 21.0224 43.604 19.1914 43.2188 17.225C43.076 17.4583 43.0003 17.7265 43 18C43 18.3978 42.842 18.7794 42.5607 19.0607C42.2794 19.342 41.8978 19.5 41.5 19.5C41.1022 19.5 40.7206 19.342 40.4393 19.0607C40.158 18.7794 40 18.3978 40 18C40.0014 17.0572 40.2984 16.1385 40.849 15.3733C41.3997 14.608 42.1765 14.0346 43.07 13.7338C43.3851 10.9216 44.7246 8.32398 46.8328 6.43643C48.9409 4.54889 51.6703 3.50359 54.5 3.5H67.5C67.8978 3.5 68.2794 3.65804 68.5607 3.93934C68.842 4.22064 69 4.60218 69 5C69 5.39782 68.842 5.77936 68.5607 6.06066C68.2794 6.34196 67.8978 6.5 67.5 6.5H66.25C67.4545 7.59661 68.4123 8.93661 69.06 10.4312L69.1125 10.5562C69.9209 10.7012 70.6528 11.1253 71.1805 11.7547C71.7082 12.384 71.9982 13.1787 72 14ZM69 14C69 13.8674 68.9473 13.7402 68.8536 13.6464C68.7598 13.5527 68.6326 13.5 68.5 13.5H68.0425C67.7231 13.5 67.412 13.398 67.1546 13.2089C66.8972 13.0199 66.7068 12.7535 66.6112 12.4487C66.0683 10.7231 64.9888 9.21565 63.53 8.14576C62.0712 7.07587 60.3091 6.49933 58.5 6.5H54.5C52.8504 6.49988 51.2364 6.97977 49.8548 7.88116C48.4732 8.78254 47.3838 10.0665 46.7194 11.5764C46.0549 13.0862 45.8442 14.7568 46.1129 16.3844C46.3816 18.012 47.118 19.5263 48.2325 20.7425C48.3677 20.8893 48.4719 21.0619 48.5387 21.25L50.0575 25.5H50.9425L51.3013 24.5C51.4045 24.2078 51.5958 23.9548 51.8487 23.7757C52.1017 23.5967 52.4039 23.5004 52.7137 23.5H61.2862C61.5961 23.5004 61.8983 23.5967 62.1513 23.7757C62.4042 23.9548 62.5954 24.2078 62.6987 24.5L63.0575 25.5H63.9425L66.0875 19.5C66.1908 19.2078 66.3821 18.9548 66.635 18.7757C66.8879 18.5967 67.1901 18.5004 67.5 18.5H68.5C68.6326 18.5 68.7598 18.4473 68.8536 18.3536C68.9473 18.2598 69 18.1326 69 18V14Z" fill="white"/>
</g>
<defs>
<clipPath id="clip0_27_1382">
<rect width="72" height="32" rx="5" fill="white"/>
</clipPath>
</defs>
</svg>
