<svg width="72" height="32" viewBox="0 0 72 32" fill="none" xmlns="http://www.w3.org/2000/svg">
<g clip-path="url(#clip0_27_4815)">
<path d="M30 24.5C29.976 24.2105 29.8892 23.9297 29.7456 23.6771C29.6021 23.4245 29.4052 23.2063 29.1687 23.0375L24.4187 19.6438L26.5437 17.525C27.1235 16.9501 27.5524 16.241 27.7923 15.4606C28.0321 14.6801 28.0756 13.8525 27.9187 13.0513C27.337 10.1953 25.7709 7.63424 23.4937 5.81501C21.1811 3.95335 18.291 2.9577 15.3225 3.00001C12.0715 3.05499 8.9691 4.3709 6.66999 6.67C4.37088 8.96911 3.05497 12.0715 3 15.3225C2.96337 18.2873 3.95998 21.1724 5.81875 23.4825C7.63797 25.7597 10.199 27.3258 13.055 27.9075C13.8563 28.0642 14.6838 28.0207 15.4643 27.7809C16.2447 27.541 16.9538 27.1122 17.5287 26.5325L19.6475 24.4075L23.0412 29.1575C23.2085 29.3956 23.4256 29.5943 23.6776 29.7398C23.9295 29.8854 24.2102 29.9741 24.5 30C24.555 30 24.61 30.0063 24.665 30.0063C25.1953 30.006 25.7039 29.7951 26.0787 29.42L29.4087 26.09C29.6178 25.8845 29.7791 25.6356 29.8813 25.3608C29.9835 25.086 30.024 24.7922 30 24.5ZM24.675 28L20.5962 22.2888C20.5118 22.1706 20.4026 22.0723 20.2764 22.0007C20.1501 21.929 20.0097 21.8857 19.865 21.8738C19.8375 21.8738 19.81 21.8738 19.7825 21.8738C19.6511 21.8737 19.521 21.8994 19.3996 21.9496C19.2783 21.9998 19.1679 22.0734 19.075 22.1663L16.1212 25.12C15.7789 25.4674 15.3561 25.7249 14.8903 25.8695C14.4244 26.0141 13.9301 26.0413 13.4512 25.9488C12.9279 25.844 12.4138 25.6977 11.9137 25.5113L25.5137 11.9113C25.7001 12.4114 25.8464 12.9255 25.9512 13.4488C26.0439 13.9276 26.0167 14.422 25.8721 14.8878C25.7275 15.3536 25.47 15.7765 25.1225 16.1188L22.1625 19.0688C22.0597 19.1714 21.9805 19.2952 21.9304 19.4316C21.8803 19.5679 21.8605 19.7136 21.8724 19.8584C21.8843 20.0032 21.9276 20.1436 21.9993 20.27C22.0709 20.3963 22.1693 20.5055 22.2875 20.59L28 24.67L24.675 28Z" fill="white"/>
<path d="M70.4913 24.4637C70.4621 24.1097 70.3579 23.7659 70.1855 23.4553C70.013 23.1447 69.7764 22.8744 69.4913 22.6625L65.375 19.3962L66.8875 17.8837C67.5259 17.251 67.9981 16.4703 68.2622 15.6111C68.5263 14.7519 68.5741 13.8408 68.4013 12.9587C67.7969 9.9876 66.1685 7.32301 63.8 5.42999C61.3978 3.49758 58.3978 2.46164 55.315 2.49999C51.9341 2.5569 48.7075 3.92532 46.3164 6.31637C43.9254 8.70743 42.5569 11.934 42.5 15.315C42.462 18.3964 43.4975 21.3949 45.4288 23.7962C47.3218 26.1647 49.9864 27.7931 52.9575 28.3975C53.8394 28.5703 54.7504 28.5225 55.6093 28.2584C56.4683 27.9943 57.2488 27.5221 57.8813 26.8837L59.3963 25.375L62.6625 29.4937C62.8745 29.7788 63.1448 30.0155 63.4554 30.1879C63.766 30.3603 64.1097 30.4646 64.4638 30.4937C64.5325 30.4937 64.6013 30.5025 64.6713 30.5025C65.3338 30.502 65.9691 30.2386 66.4375 29.77L69.7675 26.44C70.025 26.1833 70.2232 25.8734 70.3482 25.532C70.4733 25.1906 70.5221 24.826 70.4913 24.4637ZM45.5 15.3575C45.575 9.99999 50 5.57499 55.3575 5.49999C56.9217 5.48046 58.4696 5.81956 59.8824 6.49128C61.2952 7.163 62.5353 8.14947 63.5075 9.37499L49.375 23.5075C48.1495 22.5352 47.163 21.2952 46.4913 19.8824C45.8196 18.4696 45.4805 16.9217 45.5 15.3575ZM64.7138 27.25L60.7013 22.1887C60.5697 22.0234 60.4048 21.8877 60.2171 21.7905C60.0295 21.6934 59.8235 21.637 59.6125 21.625H59.5263C59.3292 21.6248 59.1341 21.6635 58.952 21.7388C58.7699 21.8141 58.6044 21.9245 58.465 22.0637L55.7613 24.7625C55.4769 25.0515 55.1257 25.2659 54.7387 25.3867C54.3516 25.5075 53.9408 25.5309 53.5425 25.455C53.0456 25.3553 52.5574 25.2161 52.0825 25.0387L65.0388 12.0825C65.2161 12.5573 65.3553 13.0455 65.455 13.5425C65.531 13.9407 65.5075 14.3516 65.3867 14.7386C65.2659 15.1256 65.0515 15.4769 64.7625 15.7612L62.0588 18.465C61.909 18.6143 61.7924 18.7936 61.7168 18.9911C61.6412 19.1887 61.6082 19.4 61.62 19.6111C61.6318 19.8223 61.6881 20.0286 61.7853 20.2165C61.8825 20.4044 62.0183 20.5696 62.1838 20.7012L67.25 24.7137L64.7138 27.25Z" fill="white"/>
</g>
<defs>
<clipPath id="clip0_27_4815">
<rect width="72" height="32" rx="5" fill="white"/>
</clipPath>
</defs>
</svg>
