<svg width="72" height="32" viewBox="0 0 72 32" fill="none" xmlns="http://www.w3.org/2000/svg">
<g clip-path="url(#clip0_27_1387)">
<path d="M25.7501 3.33625C25.656 3.23027 25.5405 3.14548 25.4112 3.08751C25.2819 3.02954 25.1418 2.99971 25.0001 3H7.0001C6.85819 2.99995 6.71791 3.03011 6.58855 3.08846C6.4592 3.14681 6.34375 3.23202 6.24987 3.33844C6.15599 3.44485 6.08583 3.57002 6.04406 3.70564C6.00229 3.84126 5.98986 3.98421 6.0076 4.125L8.90135 28.25C8.96228 28.7336 9.19775 29.1784 9.56351 29.5006C9.92927 29.8229 10.4001 30.0005 10.8876 30H21.1126C21.6018 30.0001 22.0741 29.821 22.4401 29.4964C22.8061 29.1719 23.0405 28.7244 23.0988 28.2388L25.9926 4.125C26.0106 3.98385 25.9983 3.84047 25.9565 3.70445C25.9147 3.56843 25.8443 3.4429 25.7501 3.33625ZM23.8751 5L23.5126 8H8.4876L8.1251 5H23.8751Z" fill="white"/>
<path d="M66.1249 3.00002C65.9834 2.84183 65.81 2.71547 65.6161 2.62928C65.4222 2.54309 65.2121 2.49903 64.9999 2.50002H46.9999C46.7879 2.5001 46.5783 2.54512 46.385 2.63213C46.1916 2.71913 46.0189 2.84614 45.8782 3.00477C45.7375 3.1634 45.6321 3.35005 45.5688 3.55241C45.5056 3.75478 45.4859 3.96825 45.5112 4.17877L48.4049 28.3038C48.4791 28.9099 48.7726 29.4678 49.2299 29.8724C49.6872 30.277 50.2768 30.5003 50.8874 30.5H61.1124C61.724 30.5001 62.3144 30.276 62.7718 29.8701C63.2293 29.4642 63.5222 28.9047 63.5949 28.2975L66.4887 4.17877C66.5151 3.96773 66.4963 3.75349 66.4336 3.55027C66.3709 3.34704 66.2657 3.15948 66.1249 3.00002ZM63.3087 5.50002L63.0687 7.50002H48.9312L48.6912 5.50002H63.3087ZM60.6687 27.5H51.3312L49.2912 10.5H62.7087L60.6687 27.5Z" fill="white"/>
</g>
<defs>
<clipPath id="clip0_27_1387">
<rect width="72" height="32" rx="5" fill="white"/>
</clipPath>
</defs>
</svg>
