<svg width="72" height="32" viewBox="0 0 72 32" fill="none" xmlns="http://www.w3.org/2000/svg">
<g clip-path="url(#clip0_27_1392)">
<path d="M29 13H26V7H29C29.2652 7 29.5196 6.89464 29.7071 6.70711C29.8946 6.51957 30 6.26522 30 6C30 5.73478 29.8946 5.48043 29.7071 5.29289C29.5196 5.10536 29.2652 5 29 5H25.7288C25.5535 4.69645 25.3015 4.44428 24.9981 4.26877C24.6947 4.09327 24.3505 4.00058 24 4H22C21.6495 4.00058 21.3053 4.09327 21.0019 4.26877C20.6985 4.44428 20.4465 4.69645 20.2712 5H18C14.5533 5.00364 11.2488 6.37445 8.81163 8.81163C6.37445 11.2488 5.00364 14.5533 5 18V20.27C4.69626 20.4454 4.44398 20.6975 4.26846 21.0012C4.09294 21.3048 4.00036 21.6493 4 22V24C4.00036 24.3507 4.09294 24.6952 4.26846 24.9988C4.44398 25.3025 4.69626 25.5546 5 25.73V29C5 29.2652 5.10536 29.5196 5.29289 29.7071C5.48043 29.8946 5.73478 30 6 30C6.26522 30 6.51957 29.8946 6.70711 29.7071C6.89464 29.5196 7 29.2652 7 29V26H13V29C13 29.2652 13.1054 29.5196 13.2929 29.7071C13.4804 29.8946 13.7348 30 14 30C14.2652 30 14.5196 29.8946 14.7071 29.7071C14.8946 29.5196 15 29.2652 15 29V25.73C15.3037 25.5546 15.556 25.3025 15.7315 24.9988C15.9071 24.6952 15.9996 24.3507 16 24V22C15.9996 21.6493 15.9071 21.3048 15.7315 21.0012C15.556 20.6975 15.3037 20.4454 15 20.27V18C15 17.2044 15.3161 16.4413 15.8787 15.8787C16.4413 15.3161 17.2044 15 18 15H20.2712C20.4465 15.3036 20.6985 15.5557 21.0019 15.7312C21.3053 15.9067 21.6495 15.9994 22 16H24C24.3505 15.9994 24.6947 15.9067 24.9981 15.7312C25.3015 15.5557 25.5535 15.3036 25.7288 15H29C29.2652 15 29.5196 14.8946 29.7071 14.7071C29.8946 14.5196 30 14.2652 30 14C30 13.7348 29.8946 13.4804 29.7071 13.2929C29.5196 13.1054 29.2652 13 29 13ZM14 24H6V22H14V24ZM22 14V6H24V13.975C24 13.9838 24 13.9913 24 14H22Z" fill="white"/>
<path d="M69 12.5H67V7.5H69C69.3978 7.5 69.7794 7.34196 70.0607 7.06066C70.342 6.77936 70.5 6.39782 70.5 6C70.5 5.60218 70.342 5.22064 70.0607 4.93934C69.7794 4.65804 69.3978 4.5 69 4.5H66.5C66.2671 4.18951 65.9652 3.9375 65.618 3.76393C65.2709 3.59036 64.8881 3.5 64.5 3.5H61.5C61.1119 3.5 60.7291 3.59036 60.382 3.76393C60.0348 3.9375 59.7329 4.18951 59.5 4.5H58C54.4208 4.50397 50.9893 5.92756 48.4584 8.45844C45.9276 10.9893 44.504 14.4208 44.5 18V19.5C44.1895 19.7329 43.9375 20.0348 43.7639 20.382C43.5904 20.7291 43.5 21.1119 43.5 21.5V24.5C43.5 24.8881 43.5904 25.2709 43.7639 25.618C43.9375 25.9652 44.1895 26.2671 44.5 26.5V29C44.5 29.3978 44.658 29.7794 44.9393 30.0607C45.2206 30.342 45.6022 30.5 46 30.5C46.3978 30.5 46.7794 30.342 47.0607 30.0607C47.342 29.7794 47.5 29.3978 47.5 29V27H52.5V29C52.5 29.3978 52.658 29.7794 52.9393 30.0607C53.2206 30.342 53.6022 30.5 54 30.5C54.3978 30.5 54.7794 30.342 55.0607 30.0607C55.342 29.7794 55.5 29.3978 55.5 29V26.5C55.8105 26.2671 56.0625 25.9652 56.2361 25.618C56.4096 25.2709 56.5 24.8881 56.5 24.5V21.5C56.5 21.1119 56.4096 20.7291 56.2361 20.382C56.0625 20.0348 55.8105 19.7329 55.5 19.5V18C55.5 17.337 55.7634 16.7011 56.2322 16.2322C56.7011 15.7634 57.337 15.5 58 15.5H59.5C59.7329 15.8105 60.0348 16.0625 60.382 16.2361C60.7291 16.4096 61.1119 16.5 61.5 16.5H64.5C64.8881 16.5 65.2709 16.4096 65.618 16.2361C65.9652 16.0625 66.2671 15.8105 66.5 15.5H69C69.3978 15.5 69.7794 15.342 70.0607 15.0607C70.342 14.7794 70.5 14.3978 70.5 14C70.5 13.6022 70.342 13.2206 70.0607 12.9393C69.7794 12.658 69.3978 12.5 69 12.5ZM53.5 22V24H46.5V22H53.5ZM52.5 18V19H47.5V18C47.503 15.2161 48.6102 12.5472 50.5787 10.5787C52.5472 8.61018 55.2161 7.50298 58 7.5H59V12.5H58C56.5418 12.5017 55.1438 13.0816 54.1127 14.1127C53.0816 15.1438 52.5017 16.5418 52.5 18ZM62 6.5H64V13.5H62V6.5Z" fill="white"/>
</g>
<defs>
<clipPath id="clip0_27_1392">
<rect width="72" height="32" rx="5" fill="white"/>
</clipPath>
</defs>
</svg>
