<svg width="72" height="32" viewBox="0 0 72 32" fill="none" xmlns="http://www.w3.org/2000/svg">
<g clip-path="url(#clip0_27_1397)">
<path d="M27.535 6.87498L27.5138 6.85373L21.9013 1.56873C21.5256 1.19984 21.0195 0.99399 20.493 0.995862C19.9664 0.997734 19.4619 1.20718 19.0888 1.57873L13.5213 7.10873L13.3288 6.91373C12.7352 6.37294 11.9563 6.08138 11.1535 6.09953C10.3507 6.11768 9.58575 6.44415 9.01724 7.01121C8.44873 7.57828 8.12032 8.34242 8.10012 9.14514C8.07993 9.94786 8.3695 10.7276 8.90878 11.3225L9.09128 11.5075L6.58628 14C6.40051 14.1857 6.25316 14.4062 6.15262 14.6489C6.05208 14.8916 6.00033 15.1517 6.00033 15.4144C6.00033 15.677 6.05208 15.9372 6.15262 16.1798C6.25316 16.4225 6.40051 16.643 6.58628 16.8287L8.17128 18.4137C8.54616 18.7874 9.05387 18.9972 9.58316 18.9972C10.1124 18.9972 10.6201 18.7874 10.995 18.4137L13.4863 15.9575L15 17.5L6.91378 25.6712C6.60097 25.9559 6.34921 26.3011 6.17374 26.6859C5.99826 27.0708 5.90273 27.4872 5.89293 27.91C5.88313 28.3329 5.95926 28.7533 6.11671 29.1458C6.27417 29.5384 6.50967 29.8949 6.80895 30.1937C7.10823 30.4926 7.46506 30.7276 7.85782 30.8845C8.25059 31.0414 8.67112 31.1169 9.09393 31.1065C9.51675 31.0961 9.93306 31 10.3176 30.824C10.7022 30.6479 11.0471 30.3957 11.3313 30.0825L22.415 18.9137C22.7891 18.5388 22.9991 18.0308 22.9991 17.5012C22.9991 16.9716 22.7891 16.4637 22.415 16.0887L17.9538 11.5825L19.57 9.99998L19.5825 10.0112L24.25 14.425C24.6261 14.7949 25.133 15.0012 25.6605 14.9991C26.1879 14.997 26.6932 14.7866 27.0663 14.4137L27.53 13.95C27.9944 13.4857 28.3627 12.9345 28.614 12.3278C28.8652 11.7212 28.9946 11.071 28.9946 10.4144C28.9946 9.75773 28.8652 9.10753 28.614 8.50088C28.3627 7.89424 27.9944 7.34303 27.53 6.87873L27.535 6.87498ZM9.58628 17L8.00003 15.4162L10.5 12.9312L12.0863 14.5387L9.58628 17ZM26.125 12.535L25.6563 13C25.6503 12.9927 25.6436 12.986 25.6363 12.98L20.9613 8.56248C20.5848 8.19988 20.0816 7.99855 19.5589 8.00136C19.0361 8.00416 18.5351 8.21087 18.1625 8.57749L16.5463 10.1612L14.9288 8.52874L20.5 2.99998L20.5213 3.01998L26.1313 8.30248C26.6895 8.866 27.0018 9.62763 26.9999 10.4208C26.998 11.214 26.6821 11.9741 26.1213 12.535H26.125Z" fill="white"/>
<path d="M67.3887 5.02498L67.3437 4.98123L63.24 1.20498C62.7696 0.750075 62.1395 0.497753 61.4851 0.502194C60.8308 0.506634 60.2042 0.767483 59.74 1.22873L53.795 7.13873C53.0409 6.4252 52.0389 6.03282 51.0007 6.04454C49.9626 6.05625 48.9697 6.47114 48.2318 7.20151C47.494 7.93188 47.069 8.92052 47.0468 9.95848C47.0245 10.9964 47.4067 12.0024 48.1125 12.7637L46.23 14.6387C45.9977 14.8709 45.8135 15.1465 45.6878 15.4499C45.5621 15.7533 45.4974 16.0785 45.4974 16.4069C45.4974 16.7353 45.5621 17.0604 45.6878 17.3638C45.8135 17.6672 45.9977 17.9428 46.23 18.175L48.445 20.39L44.67 24.165C43.9198 24.9152 43.4983 25.9327 43.4983 26.9937C43.4983 28.0547 43.9198 29.0723 44.67 29.8225C45.4202 30.5727 46.4378 30.9942 47.4987 30.9942C48.5597 30.9942 49.5773 30.5727 50.3275 29.8225L61.7662 18.2825C62.0015 18.0465 62.1872 17.7658 62.3124 17.4571C62.4376 17.1483 62.4998 16.8175 62.4954 16.4844C62.491 16.1512 62.42 15.8222 62.2866 15.5169C62.1532 15.2115 61.9602 14.9359 61.7187 14.7062L60.0937 13.1562L61.5825 11.6812L63.4237 13.3062C63.8964 13.7588 64.5278 14.008 65.1822 14.0003C65.8366 13.9926 66.4618 13.7286 66.9237 13.265L67.3875 12.8012C67.8983 12.2905 68.3035 11.6842 68.58 11.0168C68.8564 10.3495 68.9987 9.6342 68.9987 8.91186C68.9987 8.18952 68.8564 7.47426 68.58 6.80691C68.3035 6.13957 67.8983 5.53322 67.3875 5.02248L67.3887 5.02498ZM48.7062 16.415L50.2325 14.8912L52.0912 16.75L50.5662 18.2762L48.7062 16.415ZM48.2062 27.71C48.0184 27.8973 47.7639 28.0023 47.4987 28.002C47.2334 28.0016 46.9792 27.8959 46.7919 27.7081C46.6046 27.5203 46.4995 27.2658 46.4999 27.0005C46.5002 26.7353 46.6059 26.481 46.7937 26.2937L55.2762 17.8112C55.4161 17.6719 55.527 17.5063 55.6028 17.324C55.6785 17.1416 55.7174 16.9462 55.7174 16.7487C55.7174 16.5513 55.6785 16.3558 55.6028 16.1735C55.527 15.9912 55.4161 15.8256 55.2762 15.6862L50.2912 10.7075C50.1036 10.5198 49.9982 10.2653 49.9982 9.99998C49.9982 9.73462 50.1036 9.48013 50.2912 9.29248C50.4789 9.10484 50.7334 8.99943 50.9987 8.99943C51.2641 8.99943 51.5186 9.10484 51.7062 9.29248C51.7137 9.30123 51.7225 9.30873 51.73 9.31623L59.285 16.5312L48.2062 27.71ZM65.2675 10.6825L65.1425 10.8075L63.2837 9.17999C62.8104 8.73671 62.1838 8.49403 61.5354 8.50288C60.887 8.51174 60.2673 8.77145 59.8062 9.22748L57.9312 11.0875L55.9662 9.21248L61.5125 3.69123L65.2862 7.16623C65.7467 7.63673 66.003 8.26988 65.9995 8.92821C65.996 9.58655 65.733 10.2169 65.2675 10.6825Z" fill="white"/>
</g>
<defs>
<clipPath id="clip0_27_1397">
<rect width="72" height="32" rx="5" fill="white"/>
</clipPath>
</defs>
</svg>
