<svg width="72" height="32" viewBox="0 0 72 32" fill="none" xmlns="http://www.w3.org/2000/svg">
<g clip-path="url(#clip0_27_1407)">
<path d="M29.9426 7.87501C29.881 7.61902 29.7691 7.37781 29.6136 7.16538C29.458 6.95295 29.2618 6.77352 29.0363 6.63751C25.1041 4.25876 20.5959 3.00128 16.0001 3.00128C11.4043 3.00128 6.89612 4.25876 2.96385 6.63751C2.73904 6.77385 2.54332 6.95318 2.38789 7.16523C2.23246 7.37729 2.12037 7.61791 2.05802 7.87333C1.99567 8.12875 1.9843 8.39396 2.02455 8.65378C2.0648 8.9136 2.15589 9.16293 2.2926 9.38751L14.2926 29.0463C14.4709 29.3402 14.7219 29.5831 15.0214 29.7518C15.3209 29.9204 15.6589 30.009 16.0026 30.009C16.3463 30.009 16.6843 29.9204 16.9838 29.7518C17.2833 29.5831 17.5343 29.3402 17.7126 29.0463L29.7126 9.38751C29.8495 9.16331 29.9403 8.91409 29.9798 8.6544C30.0193 8.39472 30.0066 8.12976 29.9426 7.87501ZM23.0551 16.4413C21.9436 15.9368 20.686 15.8563 19.5192 16.215C18.3525 16.5737 17.3573 17.3468 16.7212 18.3886C16.0851 19.4304 15.852 20.6688 16.066 21.8706C16.2799 23.0723 16.926 24.1543 17.8826 24.9125L16.0001 28L12.0626 21.5538C12.709 21.2625 13.2861 20.837 13.7556 20.3056C14.225 19.7742 14.5761 19.1491 14.7855 18.4716C14.9948 17.7942 15.0577 17.08 14.97 16.3764C14.8822 15.6728 14.6458 14.9959 14.2765 14.3907C13.9071 13.7854 13.4133 13.2656 12.8277 12.8658C12.2421 12.466 11.5782 12.1954 10.88 12.0718C10.1818 11.9482 9.4653 11.9745 8.77805 12.149C8.09081 12.3234 7.44853 12.6421 6.89385 13.0838L6.1001 11.7825C9.08139 9.96268 12.5066 8.99986 15.9995 8.99986C19.4923 8.99986 22.9176 9.96268 25.8988 11.7825L23.0551 16.4413Z" fill="white"/>
<path d="M70.4288 7.75622C70.3516 7.43626 70.2118 7.13475 70.0174 6.86914C69.823 6.60353 69.5779 6.37906 69.2963 6.20872C65.2856 3.78255 60.6875 2.5 56 2.5C51.3126 2.5 46.7145 3.78255 42.7038 6.20872C42.4232 6.37927 42.179 6.60341 41.9851 6.86834C41.7912 7.13326 41.6514 7.43379 41.5736 7.75276C41.4958 8.07174 41.4816 8.4029 41.5319 8.72735C41.5821 9.05181 41.6957 9.36319 41.8663 9.64372L53.8663 29.3012C54.0891 29.6686 54.4029 29.9723 54.7773 30.1831C55.1517 30.3939 55.5741 30.5047 56.0038 30.5047C56.4334 30.5047 56.8559 30.3939 57.2303 30.1831C57.6047 29.9723 57.9184 29.6686 58.1413 29.3012L70.1413 9.64372C70.3117 9.36376 70.4248 9.05278 70.4742 8.72878C70.5235 8.40478 70.5081 8.07422 70.4288 7.75622ZM56 5.49997C59.9682 5.4965 63.8675 6.53717 67.3063 8.51747L66.25 10.25C63.133 8.45256 59.5982 7.50639 56 7.50639C52.4019 7.50639 48.867 8.45256 45.75 10.25L44.6938 8.51747C48.1325 6.53717 52.0318 5.4965 56 5.49997ZM50.485 18.0075L47.8925 13.7575C48.2738 13.5691 48.6968 13.4811 49.1215 13.5017C49.5463 13.5224 49.9587 13.6511 50.3199 13.8756C50.681 14.1001 50.9789 14.413 51.1854 14.7847C51.392 15.1565 51.5002 15.5747 51.5 16C51.4983 16.3904 51.4057 16.7751 51.2295 17.1235C51.0533 17.472 50.7984 17.7746 50.485 18.0075ZM56 27.045L52.055 20.5812C52.856 20.0475 53.5029 19.3129 53.9311 18.4509C54.3593 17.5888 54.5537 16.6295 54.495 15.6688C54.4363 14.708 54.1265 13.7795 53.5965 12.976C53.0666 12.1726 52.335 11.5222 51.475 11.09C55.9342 9.90378 60.681 10.5208 64.6888 12.8075L63.57 14.64C62.3315 13.9796 60.8873 13.8178 59.5333 14.1876C58.1793 14.5573 57.018 15.4308 56.287 16.6291C55.5561 17.8273 55.3109 19.2597 55.6017 20.6328C55.8926 22.0059 56.6973 23.2159 57.8513 24.015L56 27.045ZM58.5 19.5C58.5002 19.085 58.6038 18.6766 58.8013 18.3116C58.9987 17.9466 59.284 17.6365 59.6313 17.4093C59.9785 17.182 60.3769 17.0449 60.7904 17.0101C61.204 16.9753 61.6197 17.044 62 17.21L59.42 21.4387C59.1324 21.2041 58.9006 20.9084 58.7414 20.5731C58.5823 20.2377 58.4998 19.8712 58.5 19.5Z" fill="white"/>
</g>
<defs>
<clipPath id="clip0_27_1407">
<rect width="72" height="32" rx="5" fill="white"/>
</clipPath>
</defs>
</svg>
