<svg width="72" height="32" viewBox="0 0 72 32" fill="none" xmlns="http://www.w3.org/2000/svg">
<g clip-path="url(#clip0_27_2239)">
<path d="M25.6763 19.8838C24.4774 20.6125 23.1005 20.9958 21.6975 20.9913C20.5222 20.9819 19.3601 20.7415 18.2775 20.2838C17.4432 21.4617 16.9966 22.8703 17 24.3138V28C17.0003 28.1371 16.9725 28.2728 16.9181 28.3986C16.8638 28.5245 16.7841 28.6378 16.6841 28.7316C16.5841 28.8254 16.4659 28.8976 16.3369 28.9438C16.2078 28.9899 16.0706 29.0091 15.9338 29C15.6768 28.9776 15.4377 28.8589 15.2645 28.6677C15.0913 28.4764 14.9969 28.2267 15 27.9688V26.4138L10.1725 21.5863C9.45492 21.854 8.69596 21.994 7.93005 22C6.87563 22.0026 5.84097 21.7141 4.94005 21.1663C2.2163 19.5113 0.750046 15.7025 1.0338 10.9738C1.04808 10.7291 1.15171 10.4982 1.32499 10.3249C1.49827 10.1517 1.72915 10.048 1.9738 10.0338C6.70255 9.75501 10.5113 11.2163 12.1613 13.94C12.8096 15.0076 13.0926 16.2573 12.9675 17.5C12.9598 17.5963 12.9243 17.6883 12.8653 17.7648C12.8064 17.8413 12.7266 17.8992 12.6355 17.9313C12.5444 17.9634 12.4459 17.9685 12.352 17.9459C12.2581 17.9232 12.1728 17.8739 12.1063 17.8038L9.7063 15.2913C9.51723 15.1116 9.26548 15.013 9.00472 15.0163C8.74396 15.0197 8.49482 15.1247 8.31042 15.3091C8.12602 15.4935 8.02094 15.7427 8.01761 16.0034C8.01427 16.2642 8.11293 16.5159 8.29255 16.705L15.0275 23.6113C15.035 23.5138 15.0438 23.4163 15.0538 23.32C15.2725 21.4659 16.0906 19.734 17.3838 18.3875L23.7075 11.705C23.8952 11.5175 24.0007 11.2632 24.0008 10.9979C24.0009 10.7327 23.8956 10.4783 23.7082 10.2906C23.5207 10.103 23.2664 9.99751 23.0011 9.99739C22.7359 9.99727 22.4814 10.1025 22.2938 10.29L16.1688 16.7675C16.1075 16.8324 16.0299 16.8798 15.9441 16.9046C15.8583 16.9294 15.7674 16.9308 15.6809 16.9086C15.5944 16.8864 15.5155 16.8414 15.4522 16.7783C15.389 16.7153 15.3438 16.6364 15.3213 16.55C14.7288 14.365 14.99 12.19 16.1213 10.3225C18.3538 6.63751 23.5488 4.66501 30.0188 5.04501C30.2634 5.05929 30.4943 5.16291 30.6676 5.3362C30.8409 5.50948 30.9445 5.74036 30.9588 5.98501C31.3338 12.4563 29.3613 17.6513 25.6763 19.8838Z" fill="white"/>
<path d="M71.9525 6.45624C71.9308 6.0897 71.7754 5.74385 71.5158 5.48421C71.2561 5.22457 70.9103 5.06919 70.5437 5.04749C63.885 4.65624 58.5187 6.71749 56.1887 10.565C54.6712 13.065 54.6187 16.0862 56.0062 18.9775C55.3309 19.8391 54.8115 20.812 54.4712 21.8525L52.8887 20.27C53.7875 18.1737 53.6925 16.0062 52.5887 14.1837C50.8412 11.295 46.8612 9.74999 41.9437 10.0337C41.577 10.0555 41.231 10.211 40.9713 10.4709C40.7116 10.7308 40.5564 11.077 40.535 11.4437C40.25 16.3612 41.795 20.3412 44.6812 22.0887C45.6601 22.6854 46.7849 22.9999 47.9312 22.9975C48.9086 22.9895 49.8741 22.7823 50.7687 22.3887L54 25.625V28.5C54 28.8978 54.158 29.2793 54.4393 29.5607C54.7206 29.842 55.1022 30 55.5 30C55.8978 30 56.2793 29.842 56.5606 29.5607C56.842 29.2793 57 28.8978 57 28.5V24.8137C56.9969 23.4729 57.4115 22.1644 58.1862 21.07C59.4412 21.6644 60.8102 21.9796 62.1987 21.9937C63.6928 21.9971 65.1587 21.5879 66.435 20.8112C70.2812 18.4812 72.345 13.115 71.9525 6.45624ZM46.235 19.5225C44.5862 18.5225 43.5875 16.09 43.5062 13.0062C46.59 13.0875 49.0237 14.0862 50.0225 15.735C50.4131 16.3703 50.5733 17.1206 50.4762 17.86L49.06 16.4387C48.7782 16.1569 48.396 15.9986 47.9975 15.9986C47.599 15.9986 47.2168 16.1569 46.935 16.4387C46.6532 16.7205 46.4949 17.1027 46.4949 17.5012C46.4949 17.8998 46.6532 18.2819 46.935 18.5637L48.3525 19.9812C47.6151 20.0723 46.8686 19.9106 46.235 19.5225ZM64.8812 18.25C63.5487 19.0562 62.0062 19.2087 60.405 18.72L65.0612 14.065C65.343 13.7832 65.5013 13.401 65.5013 13.0025C65.5013 12.604 65.343 12.2218 65.0612 11.94C64.7794 11.6582 64.3973 11.4999 63.9987 11.4999C63.6002 11.4999 63.218 11.6582 62.9362 11.94L58.28 16.595C57.7962 15 57.9487 13.4512 58.75 12.125C60.3375 9.49999 64.0812 7.99999 68.915 7.99999H69C69.0175 12.875 67.5175 16.6475 64.8812 18.25Z" fill="white"/>
</g>
<defs>
<clipPath id="clip0_27_2239">
<rect width="72" height="32" rx="5" fill="white"/>
</clipPath>
</defs>
</svg>
