<svg width="72" height="32" viewBox="0 0 72 32" fill="none" xmlns="http://www.w3.org/2000/svg">
<g clip-path="url(#clip0_27_2234)">
<path d="M30.6386 7.585C29.6824 5.93625 27.1574 5.565 23.3261 6.5025C21.4469 5.05504 19.181 4.19697 16.8144 4.03666C14.4478 3.87635 12.0868 4.421 10.0296 5.60182C7.97243 6.78263 6.31133 8.54663 5.25614 10.671C4.20095 12.7954 3.79902 15.1848 4.10111 17.5375C0.636109 21.125 0.686109 23.25 1.36236 24.415C1.99986 25.52 3.32986 26 5.07986 26C6.29489 25.9749 7.50275 25.807 8.67861 25.5C10.5576 26.9463 12.8229 27.8034 15.1886 27.9634C17.5543 28.1233 19.9143 27.5789 21.9708 26.3987C24.0274 25.2185 25.6882 23.4555 26.7436 21.3323C27.7991 19.209 28.2018 16.8207 27.9011 14.4687C29.4649 12.8437 30.5049 11.3 30.8586 9.97875C31.1036 9.06375 31.0299 8.25875 30.6386 7.585ZM28.9274 9.46C28.1636 12.3075 22.8461 16.6237 17.9874 19.415C9.51111 24.29 3.78486 24.605 3.09236 23.415C2.90986 23.1012 3.01111 22.51 3.36986 21.79C3.72518 21.116 4.15631 20.4849 4.65486 19.9087C4.86604 20.5197 5.12648 21.1125 5.43361 21.6812C5.48043 21.7708 5.55326 21.844 5.64251 21.8913C5.73177 21.9386 5.83325 21.9578 5.93361 21.9462C6.64877 21.8581 7.35679 21.7194 8.05236 21.5312C10.7061 20.8375 13.8811 19.4712 16.9924 17.6837C20.1036 15.8962 22.8674 13.8512 24.7986 11.915C25.3068 11.4123 25.7792 10.8748 26.2124 10.3062C26.2725 10.2252 26.3067 10.1279 26.3105 10.027C26.3143 9.9262 26.2875 9.82657 26.2336 9.74125C25.8967 9.19248 25.5163 8.67164 25.0961 8.18375C26.8724 7.89 28.5174 7.9125 28.9086 8.58875C29.0236 8.785 29.0299 9.07875 28.9274 9.46125V9.46Z" fill="white"/>
<path d="M71.0736 7.33376C70.2848 5.97501 68.1986 4.70126 62.8036 6.12001C61.0029 4.87746 58.8967 4.15114 56.7129 4.01969C54.5291 3.88824 52.3509 4.35666 50.4142 5.37425C48.4776 6.39184 46.8561 7.91982 45.7255 9.79277C44.5948 11.6657 43.9981 13.8123 43.9998 16C43.9998 16.3 44.0107 16.5975 44.0323 16.8925C40.0698 20.8575 40.1373 23.3 40.9298 24.6663C41.6748 25.9513 43.1623 26.5 45.0848 26.5C46.3086 26.5 47.7098 26.2775 49.2036 25.8863C51.0046 27.1271 53.1106 27.8517 55.2938 27.9818C57.477 28.112 59.6543 27.6426 61.5899 26.6245C63.5256 25.6064 65.146 24.0784 66.2758 22.2057C67.4056 20.333 68.0018 18.1871 67.9998 16C67.9998 15.6988 67.9886 15.4013 67.9661 15.105C69.7548 13.3075 70.9486 11.5788 71.3411 10.105C71.6936 8.80251 71.3898 7.87501 71.0736 7.33376ZM55.9998 7.00001C58.0383 7.00277 60.0157 7.69643 61.6092 8.96776C63.2027 10.2391 64.3182 12.013 64.7736 14C62.9998 15.5913 60.6248 17.3238 57.7398 18.9825C55.0223 20.5438 52.2961 21.7775 49.8536 22.5638C48.5383 21.3298 47.624 19.7292 47.2294 17.9693C46.8347 16.2095 46.9779 14.3717 47.6404 12.6943C48.3028 11.0168 49.4539 9.57707 50.9445 8.56173C52.4351 7.5464 54.1963 7.00231 55.9998 7.00001ZM43.5236 23.1613C43.4473 23.0275 43.5023 22.1338 44.8573 20.4475C45.2782 21.4982 45.8459 22.4838 46.5436 23.375C44.3898 23.7013 43.6061 23.3013 43.5236 23.1613ZM55.9998 25C55.0415 25.0002 54.0894 24.8465 53.1798 24.545C55.2625 23.6972 57.2848 22.7078 59.2323 21.5838C61.1726 20.4772 63.0341 19.238 64.8036 17.875C64.3715 19.89 63.2622 21.6962 61.6603 22.9926C60.0583 24.289 58.0606 24.9975 55.9998 25ZM68.4461 9.33126C68.2861 9.92876 67.8448 10.69 67.1473 11.5563C66.7264 10.5042 66.1583 9.51728 65.4598 8.62501C67.4386 8.32876 68.3561 8.62501 68.4786 8.83876C68.4998 8.87501 68.5261 9.03501 68.4461 9.33126Z" fill="white"/>
</g>
<defs>
<clipPath id="clip0_27_2234">
<rect width="72" height="32" rx="5" fill="white"/>
</clipPath>
</defs>
</svg>
