<svg width="72" height="32" viewBox="0 0 72 32" fill="none" xmlns="http://www.w3.org/2000/svg">
<g clip-path="url(#clip0_27_3931)">
<path d="M26 4H6C5.46957 4 4.96086 4.21071 4.58579 4.58579C4.21071 4.96086 4 5.46957 4 6V26C4 26.5304 4.21071 27.0391 4.58579 27.4142C4.96086 27.7893 5.46957 28 6 28H26C26.5304 28 27.0391 27.7893 27.4142 27.4142C27.7893 27.0391 28 26.5304 28 26V6C28 5.46957 27.7893 4.96086 27.4142 4.58579C27.0391 4.21071 26.5304 4 26 4ZM8 9H24C24.2652 9 24.5196 9.10536 24.7071 9.29289C24.8946 9.48043 25 9.73478 25 10C25 10.2652 24.8946 10.5196 24.7071 10.7071C24.5196 10.8946 24.2652 11 24 11H8C7.73478 11 7.48043 10.8946 7.29289 10.7071C7.10536 10.5196 7 10.2652 7 10C7 9.73478 7.10536 9.48043 7.29289 9.29289C7.48043 9.10536 7.73478 9 8 9ZM8 15H17C17.2652 15 17.5196 15.1054 17.7071 15.2929C17.8946 15.4804 18 15.7348 18 16C18 16.2652 17.8946 16.5196 17.7071 16.7071C17.5196 16.8946 17.2652 17 17 17H8C7.73478 17 7.48043 16.8946 7.29289 16.7071C7.10536 16.5196 7 16.2652 7 16C7 15.7348 7.10536 15.4804 7.29289 15.2929C7.48043 15.1054 7.73478 15 8 15ZM13 23H8C7.73478 23 7.48043 22.8946 7.29289 22.7071C7.10536 22.5196 7 22.2652 7 22C7 21.7348 7.10536 21.4804 7.29289 21.2929C7.48043 21.1054 7.73478 21 8 21H13C13.2652 21 13.5196 21.1054 13.7071 21.2929C13.8946 21.4804 14 21.7348 14 22C14 22.2652 13.8946 22.5196 13.7071 22.7071C13.5196 22.8946 13.2652 23 13 23ZM25.9487 16.3162C25.9072 16.4408 25.8416 16.556 25.7555 16.6553C25.6695 16.7545 25.5647 16.8358 25.4473 16.8945C25.3298 16.9532 25.2019 16.9883 25.0709 16.9976C24.9399 17.0069 24.8083 16.9903 24.6838 16.9487L23 16.3875V22C23.0002 22.6369 22.7977 23.2573 22.4219 23.7714C22.046 24.2855 21.5163 24.6667 20.9094 24.8598C20.3025 25.0528 19.6499 25.0477 19.0461 24.8452C18.4423 24.6427 17.9186 24.2533 17.5508 23.7334C17.183 23.2134 16.9902 22.5899 17.0004 21.9531C17.0105 21.3163 17.2231 20.6993 17.6072 20.1913C17.9914 19.6834 18.5272 19.3109 19.1372 19.1277C19.7471 18.9445 20.3996 18.9602 21 19.1725V15C21 14.8415 21.0376 14.6853 21.1098 14.5443C21.182 14.4032 21.2867 14.2814 21.4153 14.1887C21.5438 14.096 21.6925 14.0353 21.8492 14.0114C22.0058 13.9875 22.1659 14.0011 22.3162 14.0513L25.3162 15.0513C25.4408 15.0928 25.556 15.1584 25.6553 15.2445C25.7545 15.3305 25.8358 15.4353 25.8945 15.5527C25.9533 15.6702 25.9883 15.7981 25.9976 15.9291C26.0069 16.0601 25.9903 16.1917 25.9487 16.3162Z" fill="white"/>
<path d="M43.5 8C43.5 7.60218 43.658 7.22064 43.9393 6.93934C44.2206 6.65804 44.6022 6.5 45 6.5H67C67.3978 6.5 67.7794 6.65804 68.0607 6.93934C68.342 7.22064 68.5 7.60218 68.5 8C68.5 8.39782 68.342 8.77936 68.0607 9.06066C67.7794 9.34196 67.3978 9.5 67 9.5H45C44.6022 9.5 44.2206 9.34196 43.9393 9.06066C43.658 8.77936 43.5 8.39782 43.5 8ZM45 17.5H59.5C59.8978 17.5 60.2794 17.342 60.5607 17.0607C60.842 16.7794 61 16.3978 61 16C61 15.6022 60.842 15.2206 60.5607 14.9393C60.2794 14.658 59.8978 14.5 59.5 14.5H45C44.6022 14.5 44.2206 14.658 43.9393 14.9393C43.658 15.2206 43.5 15.6022 43.5 16C43.5 16.3978 43.658 16.7794 43.9393 17.0607C44.2206 17.342 44.6022 17.5 45 17.5ZM53.5 22.5H45C44.6022 22.5 44.2206 22.658 43.9393 22.9393C43.658 23.2206 43.5 23.6022 43.5 24C43.5 24.3978 43.658 24.7794 43.9393 25.0607C44.2206 25.342 44.6022 25.5 45 25.5H53.5C53.8978 25.5 54.2794 25.342 54.5607 25.0607C54.842 24.7794 55 24.3978 55 24C55 23.6022 54.842 23.2206 54.5607 22.9393C54.2794 22.658 53.8978 22.5 53.5 22.5ZM71.4363 15.9312C71.3207 16.3112 71.0593 16.6298 70.7092 16.8173C70.3591 17.0047 69.949 17.0457 69.5688 16.9312L66.5 16.0163V24C66.5 24.9552 66.1961 25.8857 65.6321 26.6567C65.0682 27.4278 64.2735 27.9993 63.3632 28.2887C62.4528 28.5781 61.474 28.5702 60.5684 28.2663C59.6627 27.9624 58.8773 27.3782 58.3258 26.5983C57.7743 25.8183 57.4853 24.8831 57.5006 23.928C57.5159 22.9729 57.8348 22.0474 58.411 21.2855C58.9873 20.5237 59.791 19.9649 60.7059 19.6902C61.6208 19.4155 62.5994 19.4391 63.5 19.7575V14C63.5001 13.7662 63.5548 13.5356 63.6598 13.3267C63.7648 13.1178 63.9172 12.9363 64.1049 12.7968C64.2925 12.6572 64.5101 12.5635 64.7404 12.523C64.9707 12.4826 65.2073 12.4965 65.4312 12.5638L70.4312 14.0638C70.8121 14.1782 71.1319 14.4392 71.3204 14.7894C71.5088 15.1396 71.5505 15.5503 71.4363 15.9312ZM63.5 24C63.5 23.7033 63.412 23.4133 63.2472 23.1666C63.0824 22.92 62.8481 22.7277 62.574 22.6142C62.2999 22.5007 61.9983 22.4709 61.7074 22.5288C61.4164 22.5867 61.1491 22.7296 60.9393 22.9393C60.7296 23.1491 60.5867 23.4164 60.5288 23.7074C60.4709 23.9983 60.5007 24.2999 60.6142 24.574C60.7277 24.8481 60.92 25.0824 61.1666 25.2472C61.4133 25.412 61.7033 25.5 62 25.5C62.3978 25.5 62.7794 25.342 63.0607 25.0607C63.342 24.7794 63.5 24.3978 63.5 24Z" fill="white"/>
</g>
<defs>
<clipPath id="clip0_27_3931">
<rect width="72" height="32" rx="5" fill="white"/>
</clipPath>
</defs>
</svg>
