<svg width="72" height="32" viewBox="0 0 72 32" fill="none" xmlns="http://www.w3.org/2000/svg">
<g clip-path="url(#clip0_27_3926)">
<path d="M23 8V24C23 24.2652 22.8946 24.5196 22.7071 24.7071C22.5196 24.8946 22.2652 25 22 25C21.7348 25 21.4804 24.8946 21.2929 24.7071C21.1054 24.5196 21 24.2652 21 24V8C21 7.73478 21.1054 7.48043 21.2929 7.29289C21.4804 7.10536 21.7348 7 22 7C22.2652 7 22.5196 7.10536 22.7071 7.29289C22.8946 7.48043 23 7.73478 23 8ZM28 7C27.7348 7 27.4804 7.10536 27.2929 7.29289C27.1054 7.48043 27 7.73478 27 8V24C27 24.2652 27.1054 24.5196 27.2929 24.7071C27.4804 24.8946 27.7348 25 28 25C28.2652 25 28.5196 24.8946 28.7071 24.7071C28.8946 24.5196 29 24.2652 29 24V8C29 7.73478 28.8946 7.48043 28.7071 7.29289C28.5196 7.10536 28.2652 7 28 7ZM17.0837 14.3325L6.06 7.31375C5.76002 7.12196 5.41406 7.01422 5.05823 7.00178C4.7024 6.98934 4.34976 7.07265 4.03712 7.24302C3.72448 7.41339 3.46331 7.66456 3.28088 7.97032C3.09844 8.27608 3.00144 8.62521 3 8.98125V23.0187C3.00081 23.373 3.0967 23.7205 3.27766 24.025C3.45862 24.3296 3.71801 24.5799 4.02875 24.75C4.34216 24.9221 4.69608 25.0068 5.05345 24.9951C5.41082 24.9835 5.75847 24.8759 6.06 24.6838L17.0837 17.665C17.3646 17.4867 17.5959 17.2404 17.7561 16.9489C17.9164 16.6574 18.0004 16.3302 18.0004 15.9975C18.0004 15.6648 17.9164 15.3376 17.7561 15.0461C17.5959 14.7546 17.3646 14.5083 17.0837 14.33V14.3325Z" fill="white"/>
<path d="M63.5 8V24C63.5 24.3978 63.342 24.7793 63.0607 25.0607C62.7794 25.342 62.3978 25.5 62 25.5C61.6022 25.5 61.2206 25.342 60.9393 25.0607C60.658 24.7793 60.5 24.3978 60.5 24V8C60.5 7.60217 60.658 7.22064 60.9393 6.93933C61.2206 6.65803 61.6022 6.5 62 6.5C62.3978 6.5 62.7794 6.65803 63.0607 6.93933C63.342 7.22064 63.5 7.60217 63.5 8ZM68 6.5C67.6022 6.5 67.2206 6.65803 66.9393 6.93933C66.658 7.22064 66.5 7.60217 66.5 8V24C66.5 24.3978 66.658 24.7793 66.9393 25.0607C67.2206 25.342 67.6022 25.5 68 25.5C68.3978 25.5 68.7794 25.342 69.0607 25.0607C69.342 24.7793 69.5 24.3978 69.5 24V8C69.5 7.60217 69.342 7.22064 69.0607 6.93933C68.7794 6.65803 68.3978 6.5 68 6.5ZM58.5 16C58.5009 16.4169 58.396 16.8272 58.1951 17.1926C57.9941 17.5579 57.7038 17.8662 57.3512 18.0887L46.3288 25.1087C45.9531 25.3487 45.5199 25.4835 45.0745 25.4988C44.629 25.5142 44.1875 25.4096 43.7963 25.196C43.405 24.9825 43.0783 24.6677 42.8503 24.2847C42.6223 23.9017 42.5013 23.4645 42.5 23.0187V8.98124C42.5013 8.5355 42.6223 8.09828 42.8503 7.71527C43.0783 7.33227 43.405 7.01754 43.7963 6.80396C44.1875 6.59039 44.629 6.48582 45.0745 6.50117C45.5199 6.51653 45.9531 6.65124 46.3288 6.89125L57.3512 13.9112C57.7038 14.1338 57.9941 14.4421 58.1951 14.8074C58.396 15.1728 58.5009 15.5831 58.5 16ZM55.0475 16L45.5 9.92125V22.0787L55.0475 16Z" fill="white"/>
</g>
<defs>
<clipPath id="clip0_27_3926">
<rect width="72" height="32" rx="5" fill="white"/>
</clipPath>
</defs>
</svg>
