<svg width="72" height="32" viewBox="0 0 72 32" fill="none" xmlns="http://www.w3.org/2000/svg">
<g clip-path="url(#clip0_27_3921)">
<path d="M16 3C13.4288 3 10.9154 3.76244 8.77759 5.1909C6.63975 6.61935 4.97351 8.64968 3.98957 11.0251C3.00563 13.4006 2.74819 16.0144 3.2498 18.5362C3.75141 21.0579 4.98953 23.3743 6.80762 25.1924C8.6257 27.0105 10.9421 28.2486 13.4638 28.7502C15.9856 29.2518 18.5995 28.9944 20.9749 28.0104C23.3503 27.0265 25.3807 25.3603 26.8091 23.2224C28.2376 21.0846 29 18.5712 29 16C28.9964 12.5533 27.6256 9.24882 25.1884 6.81163C22.7512 4.37445 19.4467 3.00364 16 3ZM21.0688 16.8225L14.5688 21.3225C14.4187 21.4263 14.2431 21.487 14.061 21.4981C13.8789 21.5093 13.6972 21.4704 13.5357 21.3856C13.3741 21.3009 13.2388 21.1736 13.1443 21.0175C13.0499 20.8614 13 20.6824 13 20.5V11.5C13 11.3176 13.0499 11.1386 13.1443 10.9825C13.2388 10.8264 13.3741 10.6991 13.5357 10.6144C13.6972 10.5296 13.8789 10.4907 14.061 10.5019C14.2431 10.513 14.4187 10.5737 14.5688 10.6775L21.0688 15.1775C21.2018 15.2695 21.3105 15.3924 21.3856 15.5357C21.4608 15.6789 21.5 15.8382 21.5 16C21.5 16.1618 21.4608 16.3211 21.3856 16.4643C21.3105 16.6076 21.2018 16.7305 21.0688 16.8225Z" fill="white"/>
<path d="M62 16C62.0001 16.2426 61.9413 16.4815 61.8288 16.6964C61.7162 16.9113 61.5532 17.0957 61.3538 17.2337L54.8538 21.7337C54.6287 21.8896 54.3652 21.9808 54.092 21.9976C53.8187 22.0144 53.5461 21.9561 53.3036 21.829C53.0612 21.7019 52.8581 21.5108 52.7164 21.2766C52.5748 21.0423 52.4999 20.7738 52.5 20.5V11.5C52.4999 11.2262 52.5748 10.9577 52.7164 10.7234C52.8581 10.4892 53.0612 10.2981 53.3036 10.171C53.5461 10.0439 53.8187 9.98562 54.092 10.0024C54.3652 10.0192 54.6287 10.1104 54.8538 10.2662L61.3538 14.7662C61.5532 14.9043 61.7162 15.0887 61.8288 15.3036C61.9413 15.5185 62.0001 15.7574 62 16ZM69.5 16C69.5 18.67 68.7082 21.2801 67.2248 23.5002C65.7414 25.7203 63.633 27.4506 61.1662 28.4724C58.6994 29.4942 55.985 29.7615 53.3663 29.2406C50.7475 28.7197 48.3421 27.434 46.4541 25.5459C44.5661 23.6579 43.2803 21.2525 42.7594 18.6337C42.2385 16.015 42.5058 13.3006 43.5276 10.8338C44.5494 8.36697 46.2797 6.25856 48.4998 4.77516C50.7199 3.29176 53.33 2.5 56 2.5C59.5792 2.50397 63.0107 3.92756 65.5416 6.45844C68.0724 8.98932 69.496 12.4208 69.5 16ZM66.5 16C66.5 13.9233 65.8842 11.8932 64.7304 10.1665C63.5767 8.4398 61.9368 7.09399 60.0182 6.29926C58.0996 5.50454 55.9884 5.29661 53.9516 5.70175C51.9148 6.1069 50.0438 7.10693 48.5754 8.57538C47.1069 10.0438 46.1069 11.9148 45.7018 13.9516C45.2966 15.9884 45.5046 18.0996 46.2993 20.0182C47.094 21.9368 48.4398 23.5767 50.1665 24.7304C51.8932 25.8842 53.9233 26.5 56 26.5C58.7839 26.497 61.4529 25.3898 63.4213 23.4213C65.3898 21.4528 66.497 18.7839 66.5 16Z" fill="white"/>
</g>
<defs>
<clipPath id="clip0_27_3921">
<rect width="72" height="32" rx="5" fill="white"/>
</clipPath>
</defs>
</svg>
