<svg width="72" height="32" viewBox="0 0 72 32" fill="none" xmlns="http://www.w3.org/2000/svg">
<g clip-path="url(#clip0_27_3916)">
<path d="M30 16C30.0008 16.3395 29.9138 16.6735 29.7473 16.9694C29.5808 17.2654 29.3406 17.5132 29.05 17.6888L11.04 28.7063C10.7364 28.8922 10.3886 28.9937 10.0326 29.0003C9.67661 29.0069 9.32532 28.9183 9.015 28.7438C8.70764 28.5719 8.4516 28.3213 8.2732 28.0177C8.09481 27.7141 8.00051 27.3684 8 27.0163V4.98376C8.00051 4.63162 8.09481 4.28597 8.2732 3.98235C8.4516 3.67874 8.70764 3.42812 9.015 3.25626C9.32532 3.0817 9.67661 2.99314 10.0326 2.99973C10.3886 3.00632 10.7364 3.10783 11.04 3.29376L29.05 14.3113C29.3406 14.4869 29.5808 14.7347 29.7473 15.0306C29.9138 15.3265 30.0008 15.6605 30 16Z" fill="white"/>
<path d="M69.3113 13.8837L51.3013 2.86749C50.9236 2.63724 50.4915 2.51132 50.0493 2.50259C49.607 2.49386 49.1704 2.60263 48.7839 2.8178C48.3974 3.03296 48.0749 3.34682 47.8494 3.72734C47.6238 4.10786 47.5032 4.54141 47.5 4.98374V27.0162C47.5032 27.4586 47.6238 27.8921 47.8494 28.2726C48.0749 28.6532 48.3974 28.967 48.7839 29.1822C49.1704 29.3974 49.607 29.5061 50.0493 29.4974C50.4915 29.4887 50.9236 29.3627 51.3013 29.1325L69.3113 18.1162C69.6744 17.8952 69.9746 17.5844 70.1828 17.2138C70.3911 16.8431 70.5005 16.4251 70.5005 16C70.5005 15.5748 70.3911 15.1569 70.1828 14.7862C69.9746 14.4156 69.6744 14.1048 69.3113 13.8837ZM50.5 26.1062V5.89374L67.02 16L50.5 26.1062Z" fill="white"/>
</g>
<defs>
<clipPath id="clip0_27_3916">
<rect width="72" height="32" rx="5" fill="white"/>
</clipPath>
</defs>
</svg>
