<svg width="72" height="32" viewBox="0 0 72 32" fill="none" xmlns="http://www.w3.org/2000/svg">
<g clip-path="url(#clip0_27_2986)">
<path d="M28 7H22V2C22 1.73478 21.8946 1.48043 21.7071 1.29289C21.5196 1.10536 21.2652 1 21 1C20.7348 1 20.4804 1.10536 20.2929 1.29289C20.1054 1.48043 20 1.73478 20 2V7H12V2C12 1.73478 11.8946 1.48043 11.7071 1.29289C11.5196 1.10536 11.2652 1 11 1C10.5988 1 10 1.28375 10 2.0675V7H4.06875C3.285 7 3 7.5975 3 8C3 8.26522 3.10536 8.51957 3.29289 8.70711C3.48043 8.89464 3.73478 9 4 9H6V20C6 21.3261 6.52678 22.5979 7.46447 23.5355C8.40215 24.4732 9.67392 25 11 25H15V30C15 30.2652 15.1054 30.5196 15.2929 30.7071C15.4804 30.8946 15.7348 31 16 31C16.2652 31 16.5196 30.8946 16.7071 30.7071C16.8946 30.5196 17 30.2652 17 30V25H21C22.3261 25 23.5979 24.4732 24.5355 23.5355C25.4732 22.5979 26 21.3261 26 20V9H28C28.2652 9 28.5196 8.89464 28.7071 8.70711C28.8946 8.51957 29 8.26522 29 8C29 7.73478 28.8946 7.48043 28.7071 7.29289C28.5196 7.10536 28.2652 7 28 7ZM18.9363 16.3512L17.4363 20.3512C17.3431 20.5999 17.155 20.8013 16.9133 20.9113C16.6716 21.0212 16.3961 21.0307 16.1475 20.9375C15.8989 20.8443 15.6974 20.6562 15.5875 20.4145C15.4775 20.1729 15.4681 19.8974 15.5612 19.6488L16.5613 17H14C13.8384 17 13.6792 16.9608 13.5361 16.8859C13.3929 16.8109 13.2701 16.7023 13.1781 16.5695C13.086 16.4367 13.0276 16.2836 13.0076 16.1232C12.9877 15.9628 13.007 15.8 13.0638 15.6488L14.5638 11.6488C14.6569 11.4001 14.845 11.1987 15.0867 11.0887C15.3284 10.9788 15.6039 10.9693 15.8525 11.0625C16.1011 11.1557 16.3026 11.3438 16.4125 11.5855C16.5225 11.8271 16.5319 12.1026 16.4387 12.3512L15.4388 15H18C18.1616 15 18.3208 15.0392 18.4639 15.1141C18.6071 15.1891 18.7299 15.2977 18.8219 15.4305C18.914 15.5633 18.9724 15.7164 18.9923 15.8768C19.0123 16.0372 18.993 16.2 18.9363 16.3512Z" fill="white"/>
<path d="M68 6H62.5V2C62.5 1.60218 62.342 1.22064 62.0607 0.93934C61.7794 0.658035 61.3978 0.5 61 0.5C60.6022 0.5 60.2206 0.658035 59.9393 0.93934C59.658 1.22064 59.5 1.60218 59.5 2V6H52.5V2C52.5 1.60218 52.342 1.22064 52.0607 0.93934C51.7794 0.658035 51.3978 0.5 51 0.5C50.6022 0.5 50.2206 0.658035 49.9393 0.93934C49.658 1.22064 49.5 1.60218 49.5 2V6H44.0687C43.05 6 42.5 6.7725 42.5 7.5C42.5 7.89782 42.658 8.27936 42.9393 8.56066C43.2206 8.84196 43.6022 9 44 9H45.5V20.5C45.5017 21.9582 46.0816 23.3562 47.1127 24.3873C48.1438 25.4184 49.5418 25.9983 51 26H54.5V30C54.5 30.3978 54.658 30.7794 54.9393 31.0607C55.2206 31.342 55.6022 31.5 56 31.5C56.3978 31.5 56.7794 31.342 57.0607 31.0607C57.342 30.7794 57.5 30.3978 57.5 30V26H61C62.4582 25.9983 63.8562 25.4184 64.8873 24.3873C65.9184 23.3562 66.4983 21.9582 66.5 20.5V9H68C68.3978 9 68.7794 8.84196 69.0607 8.56066C69.342 8.27936 69.5 7.89782 69.5 7.5C69.5 7.10218 69.342 6.72064 69.0607 6.43934C68.7794 6.15804 68.3978 6 68 6ZM63.5 20.5C63.5 21.163 63.2366 21.7989 62.7678 22.2678C62.2989 22.7366 61.663 23 61 23H51C50.337 23 49.7011 22.7366 49.2322 22.2678C48.7634 21.7989 48.5 21.163 48.5 20.5V9H63.5V20.5ZM52.7675 16.8538C52.6303 16.6553 52.543 16.4267 52.5129 16.1874C52.4829 15.948 52.5111 15.7049 52.595 15.4788L54.095 11.4788C54.1641 11.2942 54.2689 11.1252 54.4033 10.9811C54.5378 10.8371 54.6993 10.721 54.8786 10.6394C55.058 10.5578 55.2516 10.5123 55.4485 10.5056C55.6454 10.4988 55.8417 10.5309 56.0263 10.6C56.2108 10.6691 56.3798 10.7739 56.5239 10.9083C56.6679 11.0428 56.784 11.2043 56.8656 11.3836C56.9472 11.563 56.9927 11.7566 56.9994 11.9535C57.0062 12.1504 56.9741 12.3467 56.905 12.5312L56.165 14.5H58C58.2424 14.4999 58.4811 14.5586 58.6959 14.671C58.9106 14.7834 59.0949 14.9461 59.233 15.1453C59.3711 15.3444 59.4589 15.5741 59.4888 15.8146C59.5188 16.0551 59.49 16.2993 59.405 16.5263L57.905 20.5263C57.7654 20.8989 57.4836 21.2008 57.1214 21.3656C56.942 21.4472 56.7484 21.4927 56.5515 21.4994C56.3546 21.5062 56.1583 21.4741 55.9738 21.405C55.7892 21.3359 55.6202 21.2311 55.4761 21.0967C55.3321 20.9622 55.216 20.8007 55.1344 20.6214C54.9696 20.2592 54.9554 19.8464 55.095 19.4737L55.835 17.5H54C53.7576 17.4999 53.5189 17.441 53.3043 17.3285C53.0896 17.2159 52.9054 17.053 52.7675 16.8538Z" fill="white"/>
</g>
<defs>
<clipPath id="clip0_27_2986">
<rect width="72" height="32" rx="5" fill="white"/>
</clipPath>
</defs>
</svg>
