<svg width="72" height="32" viewBox="0 0 72 32" fill="none" xmlns="http://www.w3.org/2000/svg">
<g clip-path="url(#clip0_27_2981)">
<path d="M29.7076 9.70751L25.4138 14L28.7076 17.2925C28.8005 17.3854 28.8742 17.4957 28.9245 17.6171C28.9747 17.7385 29.0006 17.8686 29.0006 18C29.0006 18.1314 28.9747 18.2615 28.9245 18.3829C28.8742 18.5043 28.8005 18.6146 28.7076 18.7075C28.6147 18.8004 28.5044 18.8741 28.383 18.9244C28.2616 18.9747 28.1315 19.0006 28.0001 19.0006C27.8687 19.0006 27.7386 18.9747 27.6172 18.9244C27.4958 18.8741 27.3855 18.8004 27.2926 18.7075L26.5001 17.9138L19.8751 24.5388C19.4108 25.0031 18.8596 25.3714 18.2529 25.6227C17.6463 25.874 16.9961 26.0033 16.3394 26.0033C15.6828 26.0033 15.0326 25.874 14.426 25.6227C13.8193 25.3714 13.2681 25.0031 12.8038 24.5388L10.8438 22.5713L4.70757 28.7075C4.61466 28.8004 4.50436 28.8741 4.38296 28.9244C4.26157 28.9747 4.13146 29.0006 4.00007 29.0006C3.86867 29.0006 3.73856 28.9747 3.61717 28.9244C3.49578 28.8741 3.38548 28.8004 3.29257 28.7075C3.19966 28.6146 3.12596 28.5043 3.07567 28.3829C3.02539 28.2615 2.99951 28.1314 2.99951 28C2.99951 27.8686 3.02539 27.7385 3.07567 27.6171C3.12596 27.4957 3.19966 27.3854 3.29257 27.2925L9.42882 21.1563L7.46507 19.1925C7.00075 18.7282 6.63243 18.177 6.38114 17.5704C6.12985 16.9637 6.00051 16.3135 6.00051 15.6569C6.00051 15.0002 6.12985 14.35 6.38114 13.7434C6.63243 13.1368 7.00075 12.5856 7.46507 12.1213L14.0901 5.49626L13.2963 4.70376C13.1087 4.51612 13.0033 4.26162 13.0033 3.99626C13.0033 3.73089 13.1087 3.4764 13.2963 3.28876C13.484 3.10112 13.7385 2.9957 14.0038 2.9957C14.2692 2.9957 14.5237 3.10112 14.7113 3.28876L18.0001 6.58626L22.2926 2.29251C22.4802 2.10487 22.7347 1.99945 23.0001 1.99945C23.2654 1.99945 23.5199 2.10487 23.7076 2.29251C23.8952 2.48015 24.0006 2.73464 24.0006 3.00001C24.0006 3.26537 23.8952 3.51987 23.7076 3.70751L19.4138 8.00001L24.0001 12.5863L28.2926 8.29251C28.4802 8.10487 28.7347 7.99945 29.0001 7.99945C29.2654 7.99945 29.5199 8.10487 29.7076 8.29251C29.8952 8.48015 30.0006 8.73464 30.0006 9.00001C30.0006 9.26537 29.8952 9.51987 29.7076 9.70751Z" fill="white"/>
<path d="M70.0611 7.93876C69.9218 7.79892 69.7562 7.68796 69.5739 7.61225C69.3915 7.53655 69.1961 7.49757 68.9986 7.49757C68.8012 7.49757 68.6057 7.53655 68.4234 7.61225C68.2411 7.68796 68.0755 7.79892 67.9361 7.93876L63.9999 11.875L60.1249 8.00001L64.0649 4.06126C64.3467 3.77946 64.505 3.39727 64.505 2.99876C64.505 2.60024 64.3467 2.21805 64.0649 1.93626C63.7831 1.65446 63.4009 1.49615 63.0024 1.49615C62.6039 1.49615 62.2217 1.65446 61.9399 1.93626L57.9999 5.87501L55.0611 2.93876C54.9216 2.79923 54.756 2.68855 54.5737 2.61303C54.3914 2.53752 54.196 2.49865 53.9986 2.49865C53.6001 2.49865 53.2179 2.65696 52.9361 2.93876C52.6543 3.22055 52.496 3.60274 52.496 4.00126C52.496 4.39977 52.6543 4.78196 52.9361 5.06376L53.3749 5.50001L47.1111 11.7675C46.6003 12.2782 46.1951 12.8846 45.9187 13.5519C45.6422 14.2193 45.4999 14.9345 45.4999 15.6569C45.4999 16.3792 45.6422 17.0945 45.9187 17.7618C46.1951 18.4292 46.6003 19.0355 47.1111 19.5463L48.7211 21.1563L42.9386 26.9388C42.7991 27.0783 42.6884 27.2439 42.6129 27.4262C42.5374 27.6085 42.4985 27.8039 42.4985 28.0013C42.4985 28.1986 42.5374 28.394 42.6129 28.5763C42.6884 28.7586 42.7991 28.9242 42.9386 29.0638C43.2204 29.3455 43.6026 29.5039 44.0011 29.5039C44.1985 29.5039 44.3939 29.465 44.5762 29.3895C44.7585 29.314 44.9241 29.2033 45.0636 29.0638L50.8461 23.2813L52.4561 24.8913C52.9669 25.4021 53.5732 25.8073 54.2406 26.0837C54.9079 26.3602 55.6232 26.5025 56.3455 26.5025C57.0679 26.5025 57.7831 26.3602 58.4505 26.0837C59.1178 25.8073 59.7242 25.4021 60.2349 24.8913L66.4999 18.625L66.9386 19.065C67.0782 19.2045 67.2438 19.3152 67.4261 19.3907C67.6084 19.4662 67.8038 19.5051 68.0011 19.5051C68.1985 19.5051 68.3939 19.4662 68.5762 19.3907C68.7585 19.3152 68.9241 19.2045 69.0636 19.065C69.2032 18.9255 69.3138 18.7598 69.3894 18.5775C69.4649 18.3952 69.5037 18.1998 69.5037 18.0025C69.5037 17.8052 69.4649 17.6098 69.3894 17.4275C69.3138 17.2452 69.2032 17.0795 69.0636 16.94L66.1249 14L70.0649 10.0613C70.2041 9.9217 70.3145 9.75607 70.3896 9.57384C70.4648 9.39161 70.5033 9.19635 70.5029 8.99923C70.5026 8.80211 70.4634 8.60698 70.3876 8.42502C70.3118 8.24306 70.2008 8.07782 70.0611 7.93876ZM58.1111 22.7675C57.879 22.9998 57.6033 23.184 57.3 23.3097C56.9966 23.4354 56.6714 23.5001 56.343 23.5001C56.0146 23.5001 55.6895 23.4354 55.3861 23.3097C55.0827 23.184 54.807 22.9998 54.5749 22.7675L49.2324 17.425C49.0001 17.1928 48.8159 16.9172 48.6902 16.6138C48.5645 16.3104 48.4998 15.9853 48.4998 15.6569C48.4998 15.3285 48.5645 15.0033 48.6902 14.6999C48.8159 14.3966 49.0001 14.1209 49.2324 13.8888L55.4999 7.62501L64.3749 16.5L58.1111 22.7675Z" fill="white"/>
</g>
<defs>
<clipPath id="clip0_27_2981">
<rect width="72" height="32" rx="5" fill="white"/>
</clipPath>
</defs>
</svg>
