<svg width="72" height="32" viewBox="0 0 72 32" fill="none" xmlns="http://www.w3.org/2000/svg">
<g clip-path="url(#clip0_27_2991)">
<path d="M18.7076 18.7075L16.4138 21L18.7076 23.2925C18.8005 23.3854 18.8742 23.4957 18.9245 23.6171C18.9747 23.7385 19.0006 23.8686 19.0006 24C19.0006 24.1314 18.9747 24.2615 18.9245 24.3829C18.8742 24.5043 18.8005 24.6146 18.7076 24.7075C18.6147 24.8004 18.5044 24.8741 18.383 24.9244C18.2616 24.9747 18.1315 25.0005 18.0001 25.0005C17.8687 25.0005 17.7386 24.9747 17.6172 24.9244C17.4958 24.8741 17.3855 24.8004 17.2926 24.7075L16.5001 23.9137L13.5863 26.8287C12.8352 27.5773 11.818 27.9975 10.7576 27.9975C9.69715 27.9975 8.67996 27.5773 7.92882 26.8287L7.25757 26.1562L3.70757 29.7075C3.61466 29.8004 3.50436 29.8741 3.38296 29.9244C3.26157 29.9747 3.13146 30.0005 3.00007 30.0005C2.86867 30.0005 2.73856 29.9747 2.61717 29.9244C2.49578 29.8741 2.38548 29.8004 2.29257 29.7075C2.19966 29.6146 2.12596 29.5043 2.07567 29.3829C2.02539 29.2615 1.99951 29.1314 1.99951 29C1.99951 28.8686 2.02539 28.7385 2.07567 28.6171C2.12596 28.4957 2.19966 28.3854 2.29257 28.2925L5.84382 24.7425L5.17132 24.0712C4.79979 23.6998 4.50507 23.2588 4.30399 22.7734C4.10292 22.2881 3.99942 21.7679 3.99942 21.2425C3.99942 20.7171 4.10292 20.1969 4.30399 19.7115C4.50507 19.2262 4.79979 18.7852 5.17132 18.4137L8.08632 15.5L7.29257 14.7075C7.10493 14.5199 6.99951 14.2654 6.99951 14C6.99951 13.7346 7.10493 13.4801 7.29257 13.2925C7.48021 13.1049 7.7347 12.9994 8.00007 12.9994C8.26543 12.9994 8.51993 13.1049 8.70757 13.2925L11.0001 15.5862L13.2926 13.2925C13.4802 13.1049 13.7347 12.9994 14.0001 12.9994C14.2654 12.9994 14.5199 13.1049 14.7076 13.2925C14.8952 13.4801 15.0006 13.7346 15.0006 14C15.0006 14.2654 14.8952 14.5199 14.7076 14.7075L12.4138 17L15.0001 19.5862L17.2926 17.2925C17.4802 17.1049 17.7347 16.9994 18.0001 16.9994C18.2654 16.9994 18.5199 17.1049 18.7076 17.2925C18.8952 17.4801 19.0006 17.7346 19.0006 18C19.0006 18.2654 18.8952 18.5199 18.7076 18.7075ZM29.7076 2.29249C29.6147 2.19952 29.5044 2.12576 29.383 2.07543C29.2616 2.02511 29.1315 1.99921 29.0001 1.99921C28.8687 1.99921 28.7385 2.02511 28.6171 2.07543C28.4957 2.12576 28.3854 2.19952 28.2926 2.29249L24.7426 5.84374L24.0713 5.17124C23.3203 4.42243 22.3031 4.00193 21.2426 4.00193C20.1821 4.00193 19.1648 4.42243 18.4138 5.17124L15.5001 8.08624L14.7076 7.29249C14.5199 7.10485 14.2654 6.99944 14.0001 6.99944C13.7347 6.99944 13.4802 7.10485 13.2926 7.29249C13.1049 7.48013 12.9995 7.73463 12.9995 7.99999C12.9995 8.26536 13.1049 8.51985 13.2926 8.70749L23.2926 18.7075C23.3855 18.8004 23.4958 18.8741 23.6172 18.9244C23.7386 18.9747 23.8687 19.0005 24.0001 19.0005C24.1315 19.0005 24.2616 18.9747 24.383 18.9244C24.5044 18.8741 24.6147 18.8004 24.7076 18.7075C24.8005 18.6146 24.8742 18.5043 24.9245 18.3829C24.9747 18.2615 25.0006 18.1314 25.0006 18C25.0006 17.8686 24.9747 17.7385 24.9245 17.6171C24.8742 17.4957 24.8005 17.3854 24.7076 17.2925L23.9138 16.5L26.8288 13.5862C27.2003 13.2148 27.4951 12.7738 27.6961 12.2884C27.8972 11.8031 28.0007 11.2829 28.0007 10.7575C28.0007 10.2321 27.8972 9.71191 27.6961 9.22655C27.4951 8.74119 27.2003 8.30019 26.8288 7.92874L26.1563 7.25749L29.7076 3.70749C29.8005 3.61462 29.8743 3.50433 29.9246 3.38293C29.975 3.26154 30.0009 3.13141 30.0009 2.99999C30.0009 2.86858 29.975 2.73845 29.9246 2.61705C29.8743 2.49565 29.8005 2.38537 29.7076 2.29249Z" fill="white"/>
<path d="M57.1249 21L58.5649 19.5612C58.8467 19.2794 59.005 18.8973 59.005 18.4987C59.005 18.1002 58.8467 17.718 58.5649 17.4362C58.2831 17.1544 57.9009 16.9961 57.5024 16.9961C57.1039 16.9961 56.7217 17.1544 56.4399 17.4362L54.9999 18.875L53.1249 17L54.5649 15.5612C54.8467 15.2794 55.005 14.8973 55.005 14.4987C55.005 14.1002 54.8467 13.718 54.5649 13.4362C54.2831 13.1544 53.9009 12.9961 53.5024 12.9961C53.1039 12.9961 52.7217 13.1544 52.4399 13.4362L50.9999 14.875L49.0611 12.9387C48.7793 12.6569 48.3972 12.4986 47.9986 12.4986C47.6001 12.4986 47.2179 12.6569 46.9361 12.9387C46.6543 13.2205 46.496 13.6027 46.496 14.0012C46.496 14.3998 46.6543 14.7819 46.9361 15.0637L47.3749 15.5L44.8174 18.0612C43.9735 18.9051 43.4995 20.0497 43.4995 21.2431C43.4995 22.4365 43.9735 23.5811 44.8174 24.425L45.1361 24.7425L41.9386 27.9387C41.6568 28.2205 41.4985 28.6027 41.4985 29.0012C41.4985 29.3998 41.6568 29.7819 41.9386 30.0637C42.2204 30.3455 42.6026 30.5038 43.0011 30.5038C43.3997 30.5038 43.7818 30.3455 44.0636 30.0637L47.2599 26.8662L47.5774 27.185C48.4223 28.027 49.5664 28.4998 50.7593 28.4998C51.9521 28.4998 53.0963 28.027 53.9411 27.185L56.4999 24.625L56.9386 25.065C57.2204 25.3468 57.6026 25.5051 58.0011 25.5051C58.3997 25.5051 58.7818 25.3468 59.0636 25.065C59.3454 24.7832 59.5037 24.401 59.5037 24.0025C59.5037 23.604 59.3454 23.2218 59.0636 22.94L57.1249 21ZM51.8174 25.0612C51.678 25.2011 51.5124 25.312 51.3301 25.3877C51.1478 25.4634 50.9523 25.5024 50.7549 25.5024C50.5575 25.5024 50.362 25.4634 50.1797 25.3877C49.9973 25.312 49.8317 25.2011 49.6924 25.0612L46.9386 22.3037C46.7988 22.1644 46.6878 21.9988 46.6121 21.8165C46.5364 21.6341 46.4975 21.4387 46.4975 21.2412C46.4975 21.0438 46.5364 20.8483 46.6121 20.666C46.6878 20.4837 46.7988 20.3181 46.9386 20.1787L49.4999 17.625L54.3749 22.5L51.8174 25.0612ZM70.0674 1.93624C69.928 1.7964 69.7624 1.68544 69.5801 1.60974C69.3978 1.53403 69.2023 1.49506 69.0049 1.49506C68.8075 1.49506 68.612 1.53403 68.4297 1.60974C68.2473 1.68544 68.0817 1.7964 67.9424 1.93624L64.7424 5.13624L64.4249 4.81749C63.5802 3.97517 62.4359 3.50216 61.243 3.50216C60.0501 3.50216 58.9059 3.97517 58.0611 4.81749L55.4999 7.37499L55.0611 6.93499C54.7793 6.6532 54.3972 6.49489 53.9986 6.49489C53.6001 6.49489 53.2179 6.6532 52.9361 6.93499C52.6543 7.21678 52.496 7.59897 52.496 7.99749C52.496 8.396 52.6543 8.7782 52.9361 9.05999L62.9361 19.06C63.2179 19.3418 63.6001 19.5001 63.9986 19.5001C64.3972 19.5001 64.7793 19.3418 65.0611 19.06C65.3429 18.7782 65.5012 18.396 65.5012 17.9975C65.5012 17.599 65.3429 17.2168 65.0611 16.935L64.6249 16.5L67.1861 13.9387C68.03 13.0948 68.5041 11.9503 68.5041 10.7569C68.5041 9.56344 68.03 8.41889 67.1861 7.57499L66.8674 7.25749L70.0649 4.06124C70.2041 3.92168 70.3145 3.75606 70.3896 3.57382C70.4648 3.39159 70.5033 3.19634 70.5029 2.99921C70.5026 2.80209 70.4634 2.60697 70.3876 2.425C70.3118 2.24304 70.2008 2.0778 70.0611 1.93874L70.0674 1.93624ZM65.0674 11.8112L62.4999 14.375L57.6249 9.49999L60.1861 6.93874C60.3255 6.7989 60.4911 6.68794 60.6734 6.61224C60.8557 6.53653 61.0512 6.49756 61.2486 6.49756C61.4461 6.49756 61.6415 6.53653 61.8239 6.61224C62.0062 6.68794 62.1718 6.7989 62.3111 6.93874L65.0686 9.69624C65.2085 9.8356 65.3194 10.0012 65.3951 10.1835C65.4708 10.3658 65.5098 10.5613 65.5098 10.7587C65.5098 10.9562 65.4708 11.1516 65.3951 11.334C65.3194 11.5163 65.2085 11.6819 65.0686 11.8212L65.0674 11.8112Z" fill="white"/>
</g>
<defs>
<clipPath id="clip0_27_2991">
<rect width="72" height="32" rx="5" fill="white"/>
</clipPath>
</defs>
</svg>
