<svg width="72" height="32" viewBox="0 0 72 32" fill="none" xmlns="http://www.w3.org/2000/svg">
<g clip-path="url(#clip0_27_1978)">
<path d="M26 4H6C5.46957 4 4.96086 4.21071 4.58579 4.58579C4.21071 4.96086 4 5.46957 4 6V26C4 26.5304 4.21071 27.0391 4.58579 27.4142C4.96086 27.7893 5.46957 28 6 28H26C26.5304 28 27.0391 27.7893 27.4142 27.4142C27.7893 27.0391 28 26.5304 28 26V6C28 5.46957 27.7893 4.96086 27.4142 4.58579C27.0391 4.21071 26.5304 4 26 4ZM7 12C7 11.7348 7.10536 11.4804 7.29289 11.2929C7.48043 11.1054 7.73478 11 8 11H10V9C10 8.73478 10.1054 8.48043 10.2929 8.29289C10.4804 8.10536 10.7348 8 11 8C11.2652 8 11.5196 8.10536 11.7071 8.29289C11.8946 8.48043 12 8.73478 12 9V11H14C14.2652 11 14.5196 11.1054 14.7071 11.2929C14.8946 11.4804 15 11.7348 15 12C15 12.2652 14.8946 12.5196 14.7071 12.7071C14.5196 12.8946 14.2652 13 14 13H12V15C12 15.2652 11.8946 15.5196 11.7071 15.7071C11.5196 15.8946 11.2652 16 11 16C10.7348 16 10.4804 15.8946 10.2929 15.7071C10.1054 15.5196 10 15.2652 10 15V13H8C7.73478 13 7.48043 12.8946 7.29289 12.7071C7.10536 12.5196 7 12.2652 7 12ZM10 24C9.8021 24.0002 9.60861 23.9416 9.44402 23.8317C9.27942 23.7218 9.15113 23.5656 9.07538 23.3828C8.99963 23.2 8.97982 22.9988 9.01847 22.8047C9.05712 22.6106 9.15249 22.4324 9.2925 22.2925L21.2925 10.2925C21.3854 10.1996 21.4957 10.1259 21.6171 10.0756C21.7385 10.0253 21.8686 9.99944 22 9.99944C22.1314 9.99944 22.2615 10.0253 22.3829 10.0756C22.5043 10.1259 22.6146 10.1996 22.7075 10.2925C22.8004 10.3854 22.8741 10.4957 22.9244 10.6171C22.9747 10.7385 23.0006 10.8686 23.0006 11C23.0006 11.1314 22.9747 11.2615 22.9244 11.3829C22.8741 11.5043 22.8004 11.6146 22.7075 11.7075L10.7075 23.7075C10.6146 23.8003 10.5042 23.8739 10.3828 23.9241C10.2615 23.9743 10.1314 24.0001 10 24ZM24 23H18C17.7348 23 17.4804 22.8946 17.2929 22.7071C17.1054 22.5196 17 22.2652 17 22C17 21.7348 17.1054 21.4804 17.2929 21.2929C17.4804 21.1054 17.7348 21 18 21H24C24.2652 21 24.5196 21.1054 24.7071 21.2929C24.8946 21.4804 25 21.7348 25 22C25 22.2652 24.8946 22.5196 24.7071 22.7071C24.5196 22.8946 24.2652 23 24 23Z" fill="white"/>
<path d="M66.0613 8.06125L48.0612 26.0613C47.7795 26.343 47.3973 26.5014 46.9988 26.5014C46.6002 26.5014 46.218 26.343 45.9363 26.0613C45.6545 25.7795 45.4961 25.3973 45.4961 24.9988C45.4961 24.6002 45.6545 24.218 45.9363 23.9363L63.9363 5.93625C64.218 5.65446 64.6002 5.49615 64.9988 5.49615C65.3973 5.49615 65.7795 5.65446 66.0613 5.93625C66.343 6.21804 66.5014 6.60024 66.5014 6.99875C66.5014 7.39726 66.343 7.77946 66.0613 8.06125ZM47.5 14C47.5 14.3978 47.658 14.7794 47.9393 15.0607C48.2206 15.342 48.6022 15.5 49 15.5C49.3978 15.5 49.7794 15.342 50.0607 15.0607C50.342 14.7794 50.5 14.3978 50.5 14V10.5H54C54.3978 10.5 54.7794 10.342 55.0607 10.0607C55.342 9.77936 55.5 9.39782 55.5 9C55.5 8.60218 55.342 8.22064 55.0607 7.93934C54.7794 7.65804 54.3978 7.5 54 7.5H50.5V4C50.5 3.60218 50.342 3.22064 50.0607 2.93934C49.7794 2.65804 49.3978 2.5 49 2.5C48.6022 2.5 48.2206 2.65804 47.9393 2.93934C47.658 3.22064 47.5 3.60218 47.5 4V7.5H44C43.6022 7.5 43.2206 7.65804 42.9393 7.93934C42.658 8.22064 42.5 8.60218 42.5 9C42.5 9.39782 42.658 9.77936 42.9393 10.0607C43.2206 10.342 43.6022 10.5 44 10.5H47.5V14ZM68 21.5H58C57.6022 21.5 57.2206 21.658 56.9393 21.9393C56.658 22.2206 56.5 22.6022 56.5 23C56.5 23.3978 56.658 23.7794 56.9393 24.0607C57.2206 24.342 57.6022 24.5 58 24.5H68C68.3978 24.5 68.7794 24.342 69.0607 24.0607C69.342 23.7794 69.5 23.3978 69.5 23C69.5 22.6022 69.342 22.2206 69.0607 21.9393C68.7794 21.658 68.3978 21.5 68 21.5Z" fill="white"/>
</g>
<defs>
<clipPath id="clip0_27_1978">
<rect width="72" height="32" rx="5" fill="white"/>
</clipPath>
</defs>
</svg>
