<svg width="72" height="32" viewBox="0 0 72 32" fill="none" xmlns="http://www.w3.org/2000/svg">
<g clip-path="url(#clip0_27_1973)">
<path d="M16 3C13.4288 3 10.9154 3.76244 8.77759 5.1909C6.63975 6.61935 4.97351 8.64968 3.98957 11.0251C3.00563 13.4006 2.74819 16.0144 3.2498 18.5362C3.75141 21.0579 4.98953 23.3743 6.80762 25.1924C8.6257 27.0105 10.9421 28.2486 13.4638 28.7502C15.9856 29.2518 18.5995 28.9944 20.9749 28.0104C23.3503 27.0265 25.3807 25.3603 26.8091 23.2224C28.2376 21.0846 29 18.5712 29 16C28.9957 12.5535 27.6247 9.2494 25.1876 6.81236C22.7506 4.37532 19.4465 3.0043 16 3ZM21 17H17V21C17 21.2652 16.8946 21.5196 16.7071 21.7071C16.5196 21.8946 16.2652 22 16 22C15.7348 22 15.4804 21.8946 15.2929 21.7071C15.1054 21.5196 15 21.2652 15 21V17H11C10.7348 17 10.4804 16.8946 10.2929 16.7071C10.1054 16.5196 10 16.2652 10 16C10 15.7348 10.1054 15.4804 10.2929 15.2929C10.4804 15.1054 10.7348 15 11 15H15V11C15 10.7348 15.1054 10.4804 15.2929 10.2929C15.4804 10.1054 15.7348 10 16 10C16.2652 10 16.5196 10.1054 16.7071 10.2929C16.8946 10.4804 17 10.7348 17 11V15H21C21.2652 15 21.5196 15.1054 21.7071 15.2929C21.8946 15.4804 22 15.7348 22 16C22 16.2652 21.8946 16.5196 21.7071 16.7071C21.5196 16.8946 21.2652 17 21 17Z" fill="white"/>
<path d="M56 2.5C53.33 2.5 50.7199 3.29176 48.4998 4.77516C46.2797 6.25856 44.5494 8.36697 43.5276 10.8338C42.5058 13.3006 42.2385 16.015 42.7594 18.6337C43.2803 21.2525 44.5661 23.6579 46.4541 25.5459C48.3421 27.434 50.7475 28.7197 53.3663 29.2406C55.985 29.7615 58.6994 29.4942 61.1662 28.4724C63.633 27.4506 65.7414 25.7203 67.2248 23.5002C68.7082 21.2801 69.5 18.67 69.5 16C69.496 12.4208 68.0724 8.98932 65.5416 6.45844C63.0107 3.92756 59.5792 2.50397 56 2.5ZM56 26.5C53.9233 26.5 51.8932 25.8842 50.1665 24.7304C48.4398 23.5767 47.094 21.9368 46.2993 20.0182C45.5046 18.0996 45.2966 15.9884 45.7018 13.9516C46.1069 11.9148 47.1069 10.0438 48.5754 8.57538C50.0438 7.10693 51.9148 6.1069 53.9516 5.70175C55.9884 5.29661 58.0996 5.50454 60.0182 6.29926C61.9368 7.09399 63.5767 8.4398 64.7304 10.1665C65.8842 11.8932 66.5 13.9233 66.5 16C66.497 18.7839 65.3898 21.4528 63.4213 23.4213C61.4529 25.3898 58.7839 26.497 56 26.5ZM62.5 16C62.5 16.3978 62.342 16.7794 62.0607 17.0607C61.7794 17.342 61.3978 17.5 61 17.5H57.5V21C57.5 21.3978 57.342 21.7794 57.0607 22.0607C56.7794 22.342 56.3978 22.5 56 22.5C55.6022 22.5 55.2206 22.342 54.9393 22.0607C54.658 21.7794 54.5 21.3978 54.5 21V17.5H51C50.6022 17.5 50.2207 17.342 49.9393 17.0607C49.658 16.7794 49.5 16.3978 49.5 16C49.5 15.6022 49.658 15.2206 49.9393 14.9393C50.2207 14.658 50.6022 14.5 51 14.5H54.5V11C54.5 10.6022 54.658 10.2206 54.9393 9.93934C55.2206 9.65804 55.6022 9.5 56 9.5C56.3978 9.5 56.7794 9.65804 57.0607 9.93934C57.342 10.2206 57.5 10.6022 57.5 11V14.5H61C61.3978 14.5 61.7794 14.658 62.0607 14.9393C62.342 15.2206 62.5 15.6022 62.5 16Z" fill="white"/>
</g>
<defs>
<clipPath id="clip0_27_1973">
<rect width="72" height="32" rx="5" fill="white"/>
</clipPath>
</defs>
</svg>
