<svg width="72" height="32" viewBox="0 0 72 32" fill="none" xmlns="http://www.w3.org/2000/svg">
<g clip-path="url(#clip0_27_4825)">
<path d="M16 3C13.4288 3 10.9154 3.76244 8.77759 5.1909C6.63975 6.61935 4.97351 8.64968 3.98957 11.0251C3.00563 13.4006 2.74819 16.0144 3.2498 18.5362C3.75141 21.0579 4.98953 23.3743 6.80762 25.1924C8.6257 27.0105 10.9421 28.2486 13.4638 28.7502C15.9856 29.2518 18.5995 28.9944 20.9749 28.0104C23.3503 27.0265 25.3807 25.3603 26.8091 23.2224C28.2376 21.0846 29 18.5712 29 16C28.9964 12.5533 27.6256 9.24882 25.1884 6.81163C22.7512 4.37445 19.4467 3.00364 16 3ZM7.55001 8.965L9.68376 11.0988C8.80036 12.2289 8.23889 13.5769 8.05876 15H5.04626C5.24724 12.7804 6.12071 10.675 7.55001 8.965ZM5.04626 17H8.06501C8.24514 18.4231 8.80661 19.7711 9.69001 20.9013L7.55001 23.035C6.12071 21.325 5.24724 19.2196 5.04626 17ZM15 26.9538C12.7808 26.7538 10.6755 25.8817 8.96501 24.4538L11.0988 22.32C12.23 23.1998 13.5779 23.7578 15 23.935V26.9538ZM15 8.065C13.5769 8.24513 12.2289 8.8066 11.0988 9.69L8.96501 7.55C10.6755 6.12206 12.7808 5.24991 15 5.05V8.065ZM26.9538 15H23.935C23.7567 13.5775 23.1974 12.2296 22.3163 11.0988L24.45 8.965C25.8793 10.675 26.7528 12.7804 26.9538 15ZM17 5.04625C19.2192 5.24616 21.3245 6.11831 23.035 7.54625L20.9013 9.68375C19.7711 8.80035 18.4231 8.23888 17 8.05875V5.04625ZM17 26.9538V23.935C18.4225 23.7567 19.7704 23.1974 20.9013 22.3162L23.035 24.45C21.325 25.8793 19.2196 26.7528 17 26.9538ZM24.45 23.035L22.3163 20.9013C23.1974 19.7704 23.7567 18.4225 23.935 17H26.9538C26.7528 19.2196 25.8793 21.325 24.45 23.035Z" fill="white"/>
<path d="M56 2.5C53.33 2.5 50.7199 3.29176 48.4998 4.77516C46.2797 6.25856 44.5494 8.36697 43.5276 10.8338C42.5058 13.3006 42.2385 16.015 42.7594 18.6337C43.2803 21.2525 44.5661 23.6579 46.4541 25.5459C48.3421 27.434 50.7475 28.7197 53.3663 29.2406C55.985 29.7615 58.6994 29.4942 61.1662 28.4724C63.633 27.4506 65.7414 25.7203 67.2248 23.5002C68.7082 21.2801 69.5 18.67 69.5 16C69.496 12.4208 68.0724 8.98932 65.5416 6.45844C63.0107 3.92756 59.5792 2.50397 56 2.5ZM56 20.5C55.11 20.5 54.24 20.2361 53.4999 19.7416C52.7599 19.2471 52.1831 18.5443 51.8425 17.7221C51.502 16.8998 51.4128 15.995 51.5865 15.1221C51.7601 14.2492 52.1887 13.4474 52.818 12.818C53.4474 12.1887 54.2492 11.7601 55.1221 11.5865C55.995 11.4128 56.8998 11.5019 57.7221 11.8425C58.5443 12.1831 59.2472 12.7599 59.7416 13.4999C60.2361 14.24 60.5 15.11 60.5 16C60.5 17.1935 60.0259 18.3381 59.182 19.182C58.3381 20.0259 57.1935 20.5 56 20.5ZM60.1325 9.75C59.3341 9.21735 58.4402 8.84424 57.5 8.65125V5.60875C59.2364 5.85806 60.882 6.54072 62.285 7.59375L60.1325 9.75ZM54.5 8.65125C53.5598 8.84424 52.6659 9.21735 51.8675 9.75L49.715 7.59375C51.118 6.54072 52.7636 5.85806 54.5 5.60875V8.65125ZM49.75 11.8675C49.2174 12.6659 48.8443 13.5598 48.6513 14.5H45.6088C45.8583 12.7637 46.5409 11.1181 47.5938 9.715L49.75 11.8675ZM48.6513 17.5C48.8443 18.4402 49.2174 19.3341 49.75 20.1325L47.5938 22.285C46.5409 20.8819 45.8583 19.2363 45.6088 17.5H48.6513ZM51.8675 22.25C52.6659 22.7826 53.5598 23.1558 54.5 23.3487V26.3913C52.7636 26.1419 51.118 25.4593 49.715 24.4062L51.8675 22.25ZM57.5 23.3487C58.4402 23.1558 59.3341 22.7826 60.1325 22.25L62.285 24.4025C60.8824 25.4569 59.2367 26.1408 57.5 26.3913V23.3487ZM62.25 20.1325C62.7827 19.3341 63.1558 18.4402 63.3488 17.5H66.3913C66.1417 19.2363 65.4591 20.8819 64.4063 22.285L62.25 20.1325ZM63.3488 14.5C63.1558 13.5598 62.7827 12.6659 62.25 11.8675L64.4025 9.715C65.4567 11.1177 66.1406 12.7633 66.3913 14.5H63.3488Z" fill="white"/>
</g>
<defs>
<clipPath id="clip0_27_4825">
<rect width="72" height="32" rx="5" fill="white"/>
</clipPath>
</defs>
</svg>
