<svg width="72" height="32" viewBox="0 0 72 32" fill="none" xmlns="http://www.w3.org/2000/svg">
<g clip-path="url(#clip0_27_6765)">
<path d="M12 3C12 2.73478 12.1054 2.48043 12.2929 2.29289C12.4804 2.10536 12.7348 2 13 2H19C19.2652 2 19.5196 2.10536 19.7071 2.29289C19.8946 2.48043 20 2.73478 20 3C20 3.26522 19.8946 3.51957 19.7071 3.70711C19.5196 3.89464 19.2652 4 19 4H13C12.7348 4 12.4804 3.89464 12.2929 3.70711C12.1054 3.51957 12 3.26522 12 3ZM31 14C31 14.2652 30.8946 14.5196 30.7071 14.7071C30.5196 14.8946 30.2652 15 30 15H29V25C29 25.5304 28.7893 26.0391 28.4142 26.4142C28.0391 26.7893 27.5304 27 27 27H24C23.4696 27 22.9609 26.7893 22.5858 26.4142C22.2107 26.0391 22 25.5304 22 25V24H10V25C10 25.5304 9.78929 26.0391 9.41421 26.4142C9.03914 26.7893 8.53043 27 8 27H5C4.46957 27 3.96086 26.7893 3.58579 26.4142C3.21071 26.0391 3 25.5304 3 25V15H2C1.73478 15 1.48043 14.8946 1.29289 14.7071C1.10536 14.5196 1 14.2652 1 14C1 13.7348 1.10536 13.4804 1.29289 13.2929C1.48043 13.1054 1.73478 13 2 13H3.42L6.84375 7.0075C7.01869 6.70145 7.27141 6.44707 7.57632 6.27014C7.88123 6.09321 8.22748 6.00002 8.58 6H23.42C23.7725 6.00002 24.1188 6.09321 24.4237 6.27014C24.7286 6.44707 24.9813 6.70145 25.1562 7.0075L28.58 13H30C30.2652 13 30.5196 13.1054 30.7071 13.2929C30.8946 13.4804 31 13.7348 31 14ZM11 18C11 17.7348 10.8946 17.4804 10.7071 17.2929C10.5196 17.1054 10.2652 17 10 17H7C6.73478 17 6.48043 17.1054 6.29289 17.2929C6.10536 17.4804 6 17.7348 6 18C6 18.2652 6.10536 18.5196 6.29289 18.7071C6.48043 18.8946 6.73478 19 7 19H10C10.2652 19 10.5196 18.8946 10.7071 18.7071C10.8946 18.5196 11 18.2652 11 18ZM26 18C26 17.7348 25.8946 17.4804 25.7071 17.2929C25.5196 17.1054 25.2652 17 25 17H22C21.7348 17 21.4804 17.1054 21.2929 17.2929C21.1054 17.4804 21 17.7348 21 18C21 18.2652 21.1054 18.5196 21.2929 18.7071C21.4804 18.8946 21.7348 19 22 19H25C25.2652 19 25.5196 18.8946 25.7071 18.7071C25.8946 18.5196 26 18.2652 26 18ZM26.2763 13L23.42 8H8.58L5.72375 13H26.2763Z" fill="white"/>
<path d="M70 12.5H68.875L65.59 6.76C65.3714 6.37737 65.0556 6.0593 64.6745 5.83803C64.2935 5.61676 63.8607 5.50014 63.42 5.5H48.58C48.1393 5.50014 47.7065 5.61676 47.3255 5.83803C46.9444 6.0593 46.6286 6.37737 46.41 6.76L43.125 12.5H42C41.6022 12.5 41.2206 12.658 40.9393 12.9393C40.658 13.2206 40.5 13.6022 40.5 14C40.5 14.3978 40.658 14.7794 40.9393 15.0607C41.2206 15.342 41.6022 15.5 42 15.5H42.5V25C42.5 25.663 42.7634 26.2989 43.2322 26.7678C43.7011 27.2366 44.337 27.5 45 27.5H48.5C49.163 27.5 49.7989 27.2366 50.2678 26.7678C50.7366 26.2989 51 25.663 51 25V22.5H61V25C61 25.663 61.2634 26.2989 61.7322 26.7678C62.2011 27.2366 62.837 27.5 63.5 27.5H67C67.663 27.5 68.2989 27.2366 68.7678 26.7678C69.2366 26.2989 69.5 25.663 69.5 25V15.5H70C70.3978 15.5 70.7794 15.342 71.0607 15.0607C71.342 14.7794 71.5 14.3978 71.5 14C71.5 13.6022 71.342 13.2206 71.0607 12.9393C70.7794 12.658 70.3978 12.5 70 12.5ZM48.875 8.5H63.125L65.41 12.5H46.585L48.875 8.5ZM48 24.5H45.5V22.5H48V24.5ZM66.5 24.5H64V22.5H66.5V24.5ZM66.5 19.5H45.5V15.5H66.5V19.5ZM51.5 2.5C51.5 2.10218 51.658 1.72064 51.9393 1.43934C52.2206 1.15804 52.6022 1 53 1H59C59.3978 1 59.7794 1.15804 60.0607 1.43934C60.342 1.72064 60.5 2.10218 60.5 2.5C60.5 2.89782 60.342 3.27936 60.0607 3.56066C59.7794 3.84196 59.3978 4 59 4H53C52.6022 4 52.2206 3.84196 51.9393 3.56066C51.658 3.27936 51.5 2.89782 51.5 2.5Z" fill="white"/>
</g>
<defs>
<clipPath id="clip0_27_6765">
<rect width="72" height="32" rx="5" fill="white"/>
</clipPath>
</defs>
</svg>
