<svg width="72" height="32" viewBox="0 0 72 32" fill="none" xmlns="http://www.w3.org/2000/svg">
<g clip-path="url(#clip0_27_5493)">
<path d="M28.4762 6.52376C28.1511 6.19871 27.7653 5.94087 27.3406 5.76496C26.916 5.58905 26.4608 5.4985 26.0012 5.4985C25.5415 5.4985 25.0863 5.58905 24.6617 5.76496C24.237 5.94087 23.8512 6.19871 23.5262 6.52376C23.3363 6.71239 23.1685 6.92208 23.0262 7.14876L18.4999 5.91626C18.484 5.231 18.2672 4.56551 17.8765 4.00235C17.4857 3.43919 16.9382 3.00316 16.3019 2.74836C15.6656 2.49357 14.9684 2.43122 14.297 2.56906C13.6256 2.70691 13.0094 3.03887 12.5249 3.52376C12.0139 4.03453 11.6735 4.69091 11.5504 5.40283C11.4273 6.11475 11.5276 6.84732 11.8374 7.50001L6.8224 12.0125C6.15224 11.6034 5.36396 11.4314 4.58429 11.5244C3.80462 11.6173 3.07885 11.9698 2.52365 12.525C1.8973 13.1521 1.53218 13.9935 1.50203 14.8793C1.47187 15.7651 1.77892 16.6294 2.36118 17.2977C2.94344 17.9659 3.75755 18.3884 4.63916 18.4798C5.52077 18.5711 6.40421 18.3246 7.11115 17.79L16.7049 24.825C16.4944 25.415 16.4461 26.0506 16.565 26.6656C16.6839 27.2806 16.9657 27.8524 17.3809 28.3214C17.7962 28.7904 18.3297 29.1393 18.9258 29.3318C19.5218 29.5243 20.1587 29.5533 20.7698 29.4158C21.3809 29.2783 21.9439 28.9793 22.4 28.55C22.8562 28.1207 23.1888 27.5769 23.3631 26.9752C23.5374 26.3736 23.5471 25.7362 23.3911 25.1295C23.2351 24.5228 22.9191 23.9692 22.4762 23.5263C22.347 23.3971 22.2078 23.2784 22.0599 23.1713L25.8287 12.5C25.8862 12.5 25.9437 12.5 26.0012 12.5C26.6932 12.4998 27.3696 12.2945 27.9449 11.91C28.5203 11.5254 28.9687 10.979 29.2336 10.3397C29.4985 9.70036 29.5679 8.99687 29.4331 8.31812C29.2983 7.63936 28.9653 7.01581 28.4762 6.52626V6.52376ZM20.1737 22.5063C19.3524 22.4654 18.543 22.715 17.8874 23.2113L8.2949 16.1763C8.60503 15.3014 8.55696 14.3395 8.16115 13.5L13.1762 8.98626C13.9643 9.46736 14.9107 9.6175 15.809 9.40397C16.7074 9.19044 17.485 8.63054 17.9724 7.84626L22.4999 9.08251C22.5191 9.98149 22.885 10.8383 23.5212 11.4738C23.6502 11.6029 23.7889 11.722 23.9362 11.83L20.1737 22.5063Z" fill="white"/>
<path d="M69.1839 12.1813C70.028 11.3372 70.5022 10.1924 70.5022 8.99876C70.5022 7.80509 70.028 6.66031 69.1839 5.81626C68.766 5.39833 68.2699 5.06681 67.7238 4.84063C67.1777 4.61444 66.5925 4.49803 66.0014 4.49803C64.8078 4.49803 63.663 4.97221 62.8189 5.81626C62.6292 6.00679 62.4569 6.21386 62.3039 6.43501L59.4852 5.66626C59.4213 4.80733 59.1122 3.98478 58.5946 3.29631C58.0771 2.60783 57.3728 2.08235 56.5654 1.78226C55.7581 1.48218 54.8816 1.42009 54.04 1.60337C53.1984 1.78666 52.4271 2.20762 51.8177 2.81626C51.189 3.44618 50.7608 4.24818 50.5873 5.1211C50.4138 5.99402 50.5027 6.89878 50.8427 7.72126L47.1489 11.0463C46.2955 10.5838 45.3156 10.4091 44.3549 10.5481C43.3942 10.687 42.5039 11.1322 41.8164 11.8175C41.0231 12.6097 40.554 13.6696 40.5011 14.7896C40.4482 15.9095 40.8153 17.0089 41.5305 17.8723C42.2457 18.7358 43.2575 19.3012 44.3677 19.4577C45.4779 19.6143 46.6066 19.3508 47.5327 18.7188L55.6927 24.7025C55.4571 25.4839 55.4384 26.3146 55.6387 27.1058C55.839 27.8969 56.2506 28.6188 56.8296 29.1939C57.4086 29.7691 58.1331 30.176 58.9256 30.3711C59.718 30.5662 60.5486 30.542 61.3284 30.3013C62.1082 30.0606 62.8079 29.6123 63.3525 29.0045C63.8972 28.3967 64.2662 27.6522 64.4203 26.8508C64.5743 26.0493 64.5075 25.2211 64.2269 24.4547C63.9464 23.6883 63.4627 23.0126 62.8277 22.5L66.0002 13.5C66.5916 13.5008 67.1773 13.3846 67.7237 13.1583C68.27 12.932 68.7663 12.6 69.1839 12.1813ZM57.4664 22.2825L49.3064 16.2988C49.6042 15.3042 49.5508 14.2374 49.1552 13.2775L52.8502 9.95126C53.7031 10.4155 54.6833 10.5913 55.6444 10.4525C56.6055 10.3137 57.4959 9.86778 58.1827 9.18126C58.3731 8.98908 58.5455 8.77987 58.6977 8.55626L61.5164 9.32501C61.5936 10.4008 62.056 11.4126 62.8189 12.175C62.9321 12.2893 63.051 12.3978 63.1752 12.5L60.0002 21.5C59.0962 21.5004 58.2133 21.7731 57.4664 22.2825ZM67.0627 7.93751C67.2719 8.1475 67.4143 8.41478 67.4718 8.70561C67.5292 8.99644 67.4992 9.29777 67.3855 9.57156C67.2718 9.84534 67.0796 10.0793 66.833 10.2439C66.5864 10.4085 66.2966 10.4963 66.0002 10.4963C65.7037 10.4963 65.4139 10.4085 65.1674 10.2439C64.9208 10.0793 64.7286 9.84534 64.6149 9.57156C64.5012 9.29777 64.4712 8.99644 64.5286 8.70561C64.5861 8.41478 64.7284 8.1475 64.9377 7.93751C65.077 7.79767 65.2426 7.68672 65.425 7.61101C65.6073 7.5353 65.8028 7.49633 66.0002 7.49633C66.1976 7.49633 66.3931 7.5353 66.5754 7.61101C66.7577 7.68672 66.9233 7.79767 67.0627 7.93751ZM53.9377 4.93751C54.1477 4.72825 54.415 4.58591 54.7058 4.52845C54.9966 4.471 55.298 4.50101 55.5717 4.61469C55.8455 4.72838 56.0795 4.92064 56.2441 5.1672C56.4087 5.41376 56.4965 5.70356 56.4965 6.00001C56.4965 6.29646 56.4087 6.58627 56.2441 6.83283C56.0795 7.07939 55.8455 7.27165 55.5717 7.38533C55.298 7.49902 54.9966 7.52903 54.7058 7.47157C54.415 7.41411 54.1477 7.27177 53.9377 7.06251C53.7979 6.92307 53.6871 6.75742 53.6115 6.57505C53.5359 6.39268 53.497 6.19717 53.4971 5.99975C53.4973 5.80233 53.5363 5.60687 53.6122 5.42459C53.688 5.24231 53.799 5.07678 53.9389 4.93751H53.9377ZM43.9377 16.0625C43.7284 15.8525 43.5861 15.5852 43.5286 15.2944C43.4712 15.0036 43.5012 14.7023 43.6149 14.4285C43.7286 14.1547 43.9208 13.9207 44.1674 13.7561C44.4139 13.5915 44.7037 13.5037 45.0002 13.5037C45.2966 13.5037 45.5864 13.5915 45.833 13.7561C46.0796 13.9207 46.2718 14.1547 46.3855 14.4285C46.4992 14.7023 46.5292 15.0036 46.4717 15.2944C46.4143 15.5852 46.2719 15.8525 46.0627 16.0625C45.9233 16.2023 45.7576 16.3131 45.5752 16.3887C45.3929 16.4643 45.1974 16.5032 44.9999 16.5031C44.8025 16.503 44.6071 16.4639 44.4248 16.3881C44.2425 16.3122 44.077 16.2012 43.9377 16.0613V16.0625ZM61.0627 27.0625C60.8527 27.2718 60.5854 27.4141 60.2946 27.4716C60.0038 27.529 59.7024 27.499 59.4286 27.3853C59.1549 27.2716 58.9209 27.0794 58.7563 26.8328C58.5917 26.5863 58.5039 26.2965 58.5039 26C58.5039 25.7036 58.5917 25.4138 58.7563 25.1672C58.9209 24.9206 59.1549 24.7284 59.4286 24.6147C59.7024 24.501 60.0038 24.471 60.2946 24.5285C60.5854 24.5859 60.8527 24.7283 61.0627 24.9375C61.2024 25.0769 61.3133 25.2426 61.3889 25.425C61.4645 25.6073 61.5034 25.8029 61.5033 26.0003C61.5031 26.1977 61.464 26.3931 61.3882 26.5754C61.3124 26.7577 61.2014 26.9232 61.0614 27.0625H61.0627Z" fill="white"/>
</g>
<defs>
<clipPath id="clip0_27_5493">
<rect width="72" height="32" rx="5" fill="white"/>
</clipPath>
</defs>
</svg>
