<svg width="72" height="32" viewBox="0 0 72 32" fill="none" xmlns="http://www.w3.org/2000/svg">
<g clip-path="url(#clip0_27_1412)">
<path d="M28.6901 9.27627C28.5726 9.16586 28.4303 9.08547 28.2751 9.04194C28.1199 8.99841 27.9565 8.99304 27.7988 9.02627C27.6046 8.32824 27.2744 7.67545 26.8272 7.10541C26.38 6.53537 25.8246 6.05931 25.1928 5.70458C24.561 5.34984 23.8654 5.12343 23.1459 5.03835C22.4264 4.95326 21.6971 5.01118 21 5.20877C20.5613 4.25136 19.8569 3.44004 18.9706 2.87123C18.0842 2.30243 17.0532 2.00006 16.0001 2.00006C14.9469 2.00006 13.9159 2.30243 13.0295 2.87123C12.1432 3.44004 11.4388 4.25136 11.0001 5.20877C10.3031 5.01092 9.57401 4.9527 8.85454 5.03745C8.13507 5.1222 7.43942 5.34826 6.80757 5.70263C6.17571 6.05701 5.62009 6.53272 5.17261 7.10245C4.72513 7.67217 4.39462 8.32469 4.20005 9.02252C4.03578 8.98881 3.86566 8.99695 3.70536 9.0462C3.54506 9.09545 3.39971 9.18422 3.2827 9.30434C3.16569 9.42447 3.08076 9.57209 3.03574 9.73363C2.99071 9.89517 2.98704 10.0654 3.02505 10.2288L6.84505 26.4588C6.94846 26.8976 7.19707 27.2886 7.55058 27.5683C7.90408 27.8481 8.34174 28.0002 8.79255 28H23.2076C23.6584 28.0002 24.096 27.8481 24.4495 27.5683C24.803 27.2886 25.0516 26.8976 25.1551 26.4588L28.9738 10.2288C29.0136 10.059 29.0084 9.88186 28.9586 9.71478C28.9089 9.5477 28.8163 9.39653 28.6901 9.27627ZM8.79255 26L5.3638 11.43L10.0951 12.7813L11.8576 26H8.79255ZM15.2576 9.22002L10.9463 10.945L6.12505 9.56752C6.26461 9.06264 6.51572 8.59552 6.85986 8.20061C7.20399 7.8057 7.63238 7.49307 8.11344 7.28577C8.59449 7.07847 9.11594 6.9818 9.63933 7.00287C10.1627 7.02394 10.6747 7.16222 11.1376 7.40752C11.2737 7.47973 11.4246 7.5195 11.5787 7.52373C11.7327 7.52796 11.8856 7.49654 12.0255 7.43193C12.1654 7.36731 12.2884 7.27124 12.3851 7.15122C12.4817 7.0312 12.5493 6.89047 12.5826 6.74002C12.7556 5.96305 13.1884 5.26829 13.8095 4.77037C14.4305 4.27244 15.2028 4.0011 15.9988 4.0011C16.7948 4.0011 17.5671 4.27244 18.1881 4.77037C18.8092 5.26829 19.242 5.96305 19.4151 6.74002C19.4483 6.89047 19.5159 7.0312 19.6125 7.15122C19.7092 7.27124 19.8322 7.36731 19.9721 7.43193C20.112 7.49654 20.2649 7.52796 20.4189 7.52373C20.573 7.5195 20.7239 7.47973 20.8601 7.40752C21.323 7.16175 21.8352 7.02309 22.3589 7.00178C22.8826 6.98046 23.4044 7.07703 23.8858 7.28436C24.3671 7.4917 24.7958 7.80449 25.1401 8.19967C25.4844 8.59484 25.7356 9.06229 25.875 9.56752L21.055 10.9425L16.7438 9.21752C16.2665 9.02741 15.7343 9.02831 15.2576 9.22002ZM23.2076 26H20.1425L21.9051 12.7813L26.6363 11.43L23.2076 26Z" fill="white"/>
<path d="M69.0351 8.91502C68.7961 8.68695 68.4885 8.54414 68.1601 8.50877C67.6759 7.13589 66.7092 5.98585 65.44 5.27293C64.1707 4.56001 62.6856 4.33285 61.2613 4.63377C60.7448 3.68865 59.9834 2.89999 59.057 2.35057C58.1306 1.80115 57.0734 1.51123 55.9963 1.51123C54.9193 1.51123 53.8621 1.80115 52.9357 2.35057C52.0093 2.89999 51.2479 3.68865 50.7313 4.63377C49.307 4.33285 47.8219 4.56001 46.5527 5.27293C45.2834 5.98585 44.3167 7.13589 43.8326 8.50877C43.6218 8.53245 43.4184 8.60056 43.2359 8.70861C43.0534 8.81667 42.8958 8.9622 42.7737 9.13562C42.6515 9.30903 42.5675 9.50638 42.5273 9.71464C42.487 9.92289 42.4914 10.1373 42.5401 10.3438L46.3588 26.5725C46.4862 27.1219 46.7964 27.6118 47.2385 27.962C47.6807 28.3122 48.2286 28.5019 48.7926 28.5H63.2076C63.7716 28.5019 64.3195 28.3122 64.7616 27.962C65.2038 27.6118 65.5139 27.1219 65.6413 26.5725L69.4601 10.3438C69.5199 10.0892 69.5122 9.82349 69.4376 9.57287C69.3631 9.32225 69.2243 9.09547 69.0351 8.91502ZM49.5001 7.50002C49.9896 7.4984 50.4719 7.61823 50.9038 7.84877C51.108 7.95732 51.3344 8.01722 51.5656 8.02377C51.7967 8.03032 52.0262 7.98336 52.2362 7.88654C52.4461 7.78972 52.6309 7.64568 52.776 7.46566C52.9211 7.28564 53.0226 7.07451 53.0726 6.84877C53.2215 6.18351 53.5927 5.58882 54.1248 5.16267C54.6569 4.73652 55.3183 4.50432 56.0001 4.50432C56.6818 4.50432 57.3432 4.73652 57.8753 5.16267C58.4075 5.58882 58.7786 6.18351 58.9276 6.84877C58.9776 7.07451 59.0791 7.28564 59.2242 7.46566C59.3693 7.64568 59.554 7.78972 59.764 7.88654C59.9739 7.98336 60.2035 8.03032 60.4346 8.02377C60.6657 8.01722 60.8922 7.95732 61.0963 7.84877C61.5282 7.61823 62.0105 7.4984 62.5001 7.50002C63.0719 7.49948 63.632 7.66239 64.1143 7.96956C64.5967 8.27673 64.9812 8.71536 65.2226 9.23377L61.0813 10.4163L56.9288 8.75627C56.3329 8.51629 55.6672 8.51629 55.0713 8.75627L50.9188 10.4163L46.7776 9.23377C47.0189 8.71536 47.4034 8.27673 47.8858 7.96956C48.3681 7.66239 48.9282 7.49948 49.5001 7.50002ZM52.6413 12.9588L56.0001 11.615L59.3588 12.9588L57.6863 25.5H54.3113L52.6413 12.9588ZM46.0451 12.145L49.6426 13.1725L51.2863 25.5H49.1876L46.0451 12.145ZM62.8126 25.5H60.7138L62.3576 13.1725L65.9551 12.145L62.8126 25.5Z" fill="white"/>
</g>
<defs>
<clipPath id="clip0_27_1412">
<rect width="72" height="32" rx="5" fill="white"/>
</clipPath>
</defs>
</svg>
