<svg width="72" height="32" viewBox="0 0 72 32" fill="none" xmlns="http://www.w3.org/2000/svg">
<g clip-path="url(#clip0_27_1422)">
<path d="M24.9999 18H15.4124L18.2136 15.1987C19.2264 15.7088 20.3423 15.9807 21.4761 15.9937C22.6174 15.9967 23.7374 15.6844 24.7124 15.0912C27.6774 13.2962 29.2661 9.14122 28.9624 3.97623C28.9481 3.73158 28.8445 3.5007 28.6712 3.32742C28.4979 3.15413 28.267 3.05051 28.0224 3.03623C22.8574 2.73248 18.7024 4.32123 16.9061 7.28623C15.7374 9.21748 15.7074 11.55 16.7986 13.7862L14.9999 15.585L13.4736 14.0587C14.2236 12.4025 14.1699 10.6837 13.2999 9.24872C11.9411 6.99998 8.82614 5.80123 4.96614 6.02748C4.72192 6.04203 4.4915 6.1456 4.31851 6.3186C4.14551 6.49159 4.04194 6.72201 4.02739 6.96623C3.79989 10.825 4.99989 13.94 7.24989 15.3C8.00263 15.7596 8.86792 16.0019 9.74989 16C10.55 15.992 11.3393 15.8135 12.0649 15.4762L13.5861 17L12.5861 18H6.99989C6.73467 18 6.48032 18.1053 6.29278 18.2929C6.10524 18.4804 5.99989 18.7348 5.99989 19C5.99989 19.2652 6.10524 19.5195 6.29278 19.7071C6.48032 19.8946 6.73467 20 6.99989 20H8.19864L9.84989 27.4337C9.94625 27.8792 10.1929 28.2779 10.5484 28.5631C10.9039 28.8483 11.3466 29.0025 11.8024 29H20.1986C20.6543 29.0021 21.0968 28.8477 21.4522 28.5625C21.8076 28.2774 22.0543 27.879 22.1511 27.4337L23.8024 20H24.9999C25.2651 20 25.5195 19.8946 25.707 19.7071C25.8945 19.5195 25.9999 19.2652 25.9999 19C25.9999 18.7348 25.8945 18.4804 25.707 18.2929C25.5195 18.1053 25.2651 18 24.9999 18Z" fill="white"/>
<path d="M65.0001 18H56.1251L58.7801 15.3438C59.7246 15.7654 60.7459 15.9875 61.7801 15.9963C62.9705 15.999 64.1384 15.6728 65.1551 15.0538C68.1551 13.2325 69.7801 9.08 69.4726 3.945C69.4509 3.57846 69.2955 3.23261 69.0359 2.97297C68.7763 2.71333 68.4304 2.55795 68.0639 2.53625C62.9276 2.235 58.7751 3.8475 56.9551 6.85375C55.8001 8.75875 55.7051 11.0288 56.6639 13.2288L55.0001 14.875L53.6076 13.4838C54.2251 11.8725 54.1076 10.2188 53.2626 8.81375C51.8751 6.53125 48.7651 5.3 44.9364 5.52625C44.5696 5.54765 44.2234 5.70291 43.9636 5.96257C43.7037 6.22224 43.5481 6.56826 43.5264 6.935C43.3014 10.765 44.5264 13.8775 46.8164 15.2612C47.6069 15.7439 48.5152 15.9991 49.4414 15.9987C50.1392 15.9943 50.8302 15.8617 51.4801 15.6075L52.8751 17L51.8751 18H47.0001C46.6023 18 46.2208 18.158 45.9395 18.4393C45.6582 18.7206 45.5001 19.1022 45.5001 19.5C45.5001 19.8978 45.6582 20.2794 45.9395 20.5607C46.2208 20.842 46.6023 21 47.0001 21H47.9089L49.3626 27.5425C49.4837 28.0988 49.7921 28.5968 50.2362 28.9531C50.6803 29.3094 51.2333 29.5024 51.8026 29.5H60.1989C60.7683 29.5027 61.3214 29.3097 61.7655 28.9534C62.2097 28.597 62.518 28.099 62.6389 27.5425L64.0926 21H65.0001C65.3979 21 65.7795 20.842 66.0608 20.5607C66.3421 20.2794 66.5001 19.8978 66.5001 19.5C66.5001 19.1022 66.3421 18.7206 66.0608 18.4393C65.7795 18.158 65.3979 18 65.0001 18ZM59.5126 8.4075C60.6001 6.61125 63.1614 5.5625 66.5001 5.5C66.4401 8.83625 65.3914 11.3975 63.5939 12.4862C62.4151 13.2 61.0376 13.1712 59.5939 12.4087C58.8264 10.9637 58.7989 9.58625 59.5126 8.4075ZM50.6889 12.6875C50.0351 13.0037 49.1889 13.1875 48.3714 12.6962C47.3126 12.055 46.6451 10.5113 46.5214 8.52125C48.5126 8.64625 50.0551 9.31125 50.6964 10.37C51.1889 11.185 51.0001 12.0337 50.6889 12.6875ZM59.7976 26.5H52.2026L50.9814 21H61.0201L59.7976 26.5Z" fill="white"/>
</g>
<defs>
<clipPath id="clip0_27_1422">
<rect width="72" height="32" rx="5" fill="white"/>
</clipPath>
</defs>
</svg>
