<svg width="72" height="32" viewBox="0 0 72 32" fill="none" xmlns="http://www.w3.org/2000/svg">
<g clip-path="url(#clip0_27_3001)">
<path d="M16 3C13.4288 3 10.9154 3.76244 8.77759 5.1909C6.63975 6.61935 4.97351 8.64968 3.98957 11.0251C3.00563 13.4006 2.74819 16.0144 3.2498 18.5362C3.75141 21.0579 4.98953 23.3743 6.80762 25.1924C8.6257 27.0105 10.9421 28.2486 13.4638 28.7502C15.9856 29.2518 18.5995 28.9944 20.9749 28.0104C23.3503 27.0265 25.3807 25.3603 26.8091 23.2224C28.2376 21.0846 29 18.5712 29 16C29 12.5522 27.6304 9.24558 25.1924 6.80761C22.7544 4.36964 19.4478 3 16 3ZM15 8C15 7.73478 15.1054 7.48043 15.2929 7.29289C15.4804 7.10536 15.7348 7 16 7C16.2652 7 16.5196 7.10536 16.7071 7.29289C16.8946 7.48043 17 7.73478 17 8V16C17 16.2652 16.8946 16.5196 16.7071 16.7071C16.5196 16.8946 16.2652 17 16 17C15.7348 17 15.4804 16.8946 15.2929 16.7071C15.1054 16.5196 15 16.2652 15 16V8ZM16 26C13.8545 26.0002 11.7659 25.3104 10.0425 24.0324C8.31916 22.7545 7.05251 20.9562 6.42967 18.9031C5.80682 16.85 5.86079 14.651 6.58362 12.631C7.30644 10.6109 8.65979 8.87687 10.4438 7.685C10.5527 7.60794 10.676 7.55347 10.8064 7.5248C10.9367 7.49613 11.0715 7.49385 11.2027 7.51808C11.334 7.54232 11.459 7.59258 11.5706 7.6659C11.6821 7.73923 11.7778 7.83414 11.8521 7.94503C11.9263 8.05592 11.9776 8.18056 12.003 8.3116C12.0283 8.44264 12.0272 8.57742 11.9996 8.70801C11.972 8.83859 11.9186 8.96234 11.8425 9.07195C11.7663 9.18157 11.669 9.27483 11.5563 9.34625C10.129 10.2996 9.04627 11.6868 8.4679 13.3027C7.88953 14.9187 7.84621 16.6779 8.34434 18.3204C8.84248 19.9628 9.85565 21.4016 11.2342 22.4241C12.6128 23.4465 14.2836 23.9985 16 23.9985C17.7164 23.9985 19.3872 23.4465 20.7658 22.4241C22.1444 21.4016 23.1575 19.9628 23.6557 18.3204C24.1538 16.6779 24.1105 14.9187 23.5321 13.3027C22.9537 11.6868 21.871 10.2996 20.4438 9.34625C20.331 9.27483 20.2337 9.18157 20.1576 9.07195C20.0814 8.96234 20.028 8.83859 20.0004 8.70801C19.9729 8.57742 19.9717 8.44264 19.997 8.3116C20.0224 8.18056 20.0737 8.05592 20.148 7.94503C20.2222 7.83414 20.3179 7.73923 20.4295 7.6659C20.541 7.59258 20.666 7.54232 20.7973 7.51808C20.9285 7.49385 21.0633 7.49613 21.1936 7.5248C21.324 7.55347 21.4473 7.60794 21.5563 7.685C23.3402 8.87687 24.6936 10.6109 25.4164 12.631C26.1392 14.651 26.1932 16.85 25.5703 18.9031C24.9475 20.9562 23.6809 22.7545 21.9575 24.0324C20.2342 25.3104 18.1455 26.0002 16 26Z" fill="white"/>
<path d="M54.5 16V6C54.5 5.60218 54.658 5.22064 54.9393 4.93934C55.2206 4.65804 55.6022 4.5 56 4.5C56.3978 4.5 56.7794 4.65804 57.0607 4.93934C57.342 5.22064 57.5 5.60218 57.5 6V16C57.5 16.3978 57.342 16.7794 57.0607 17.0607C56.7794 17.342 56.3978 17.5 56 17.5C55.6022 17.5 55.2206 17.342 54.9393 17.0607C54.658 16.7794 54.5 16.3978 54.5 16ZM62.8188 5.75C62.4857 5.54491 62.0857 5.47804 61.704 5.56365C61.3223 5.64926 60.9892 5.88057 60.7756 6.20827C60.562 6.53596 60.4849 6.93413 60.5607 7.31787C60.6365 7.70161 60.8591 8.04058 61.1812 8.2625C63.9263 10.0462 65.5 12.875 65.5 16C65.5 18.5196 64.4991 20.9359 62.7175 22.7175C60.9359 24.4991 58.5196 25.5 56 25.5C53.4804 25.5 51.0641 24.4991 49.2825 22.7175C47.5009 20.9359 46.5 18.5196 46.5 16C46.5 12.875 48.0738 10.0463 50.8188 8.25625C51.1237 8.02769 51.3302 7.69162 51.3964 7.31629C51.4625 6.94097 51.3833 6.55454 51.1749 6.23549C50.9664 5.91645 50.6444 5.68871 50.2741 5.59854C49.9038 5.50837 49.5131 5.56252 49.1812 5.75C45.57 8.0975 43.5 11.8362 43.5 16C43.5 19.3152 44.817 22.4946 47.1612 24.8388C49.5054 27.183 52.6848 28.5 56 28.5C59.3152 28.5 62.4946 27.183 64.8388 24.8388C67.183 22.4946 68.5 19.3152 68.5 16C68.5 11.8362 66.43 8.0975 62.8188 5.75Z" fill="white"/>
</g>
<defs>
<clipPath id="clip0_27_3001">
<rect width="72" height="32" rx="5" fill="white"/>
</clipPath>
</defs>
</svg>
