<svg width="72" height="32" viewBox="0 0 72 32" fill="none" xmlns="http://www.w3.org/2000/svg">
<g clip-path="url(#clip0_27_5006)">
<path d="M16 15H12V9H16C16.7956 9 17.5587 9.31607 18.1213 9.87868C18.6839 10.4413 19 11.2044 19 12C19 12.7956 18.6839 13.5587 18.1213 14.1213C17.5587 14.6839 16.7956 15 16 15ZM28 6V26C28 26.5304 27.7893 27.0391 27.4142 27.4142C27.0391 27.7893 26.5304 28 26 28H6C5.46957 28 4.96086 27.7893 4.58579 27.4142C4.21071 27.0391 4 26.5304 4 26V6C4 5.46957 4.21071 4.96086 4.58579 4.58579C4.96086 4.21071 5.46957 4 6 4H26C26.5304 4 27.0391 4.21071 27.4142 4.58579C27.7893 4.96086 28 5.46957 28 6ZM23.7075 23.2925L21.9137 21.5L23.7075 19.7075C23.8951 19.5199 24.0006 19.2654 24.0006 19C24.0006 18.7346 23.8951 18.4801 23.7075 18.2925C23.5199 18.1049 23.2654 17.9994 23 17.9994C22.7346 17.9994 22.4801 18.1049 22.2925 18.2925L20.5 20.0863L17.25 16.8363C18.4239 16.5282 19.4457 15.8038 20.1248 14.7979C20.804 13.7921 21.0941 12.5736 20.9411 11.3696C20.7881 10.1657 20.2024 9.05846 19.2933 8.25447C18.3842 7.45048 17.2136 7.00461 16 7H11C10.7348 7 10.4804 7.10536 10.2929 7.29289C10.1054 7.48043 10 7.73478 10 8V22C10 22.2652 10.1054 22.5196 10.2929 22.7071C10.4804 22.8946 10.7348 23 11 23C11.2652 23 11.5196 22.8946 11.7071 22.7071C11.8946 22.5196 12 22.2652 12 22V17H14.5863L19.0863 21.5L17.2925 23.2925C17.1049 23.4801 16.9994 23.7346 16.9994 24C16.9994 24.2654 17.1049 24.5199 17.2925 24.7075C17.4801 24.8951 17.7346 25.0006 18 25.0006C18.2654 25.0006 18.5199 24.8951 18.7075 24.7075L20.5 22.9137L22.2925 24.7075C22.3854 24.8004 22.4957 24.8741 22.6171 24.9244C22.7385 24.9747 22.8686 25.0006 23 25.0006C23.1314 25.0006 23.2615 24.9747 23.3829 24.9244C23.5043 24.8741 23.6146 24.8004 23.7075 24.7075C23.8004 24.6146 23.8741 24.5043 23.9244 24.3829C23.9747 24.2615 24.0006 24.1314 24.0006 24C24.0006 23.8686 23.9747 23.7385 23.9244 23.6171C23.8741 23.4957 23.8004 23.3854 23.7075 23.2925Z" fill="white"/>
<path d="M63.625 23.5L66.065 21.0612C66.3468 20.7795 66.5051 20.3973 66.5051 19.9987C66.5051 19.6002 66.3468 19.218 66.065 18.9362C65.7832 18.6545 65.401 18.4961 65.0025 18.4961C64.604 18.4961 64.2218 18.6545 63.94 18.9362L61.5 21.375L57.3662 17.25C59.0012 16.8009 60.4177 15.7737 61.3524 14.3591C62.2871 12.9445 62.6767 11.2387 62.4486 9.55853C62.2206 7.87839 61.3905 6.33813 60.1125 5.22385C58.8345 4.10958 57.1955 3.49703 55.5 3.5H49C48.6022 3.5 48.2206 3.65803 47.9393 3.93934C47.658 4.22064 47.5 4.60217 47.5 5V24C47.5 24.3978 47.658 24.7794 47.9393 25.0607C48.2206 25.342 48.6022 25.5 49 25.5C49.3978 25.5 49.7794 25.342 50.0607 25.0607C50.342 24.7794 50.5 24.3978 50.5 24V17.5H53.375L59.375 23.5L56.935 25.9387C56.7955 26.0783 56.6848 26.2439 56.6093 26.4262C56.5338 26.6085 56.4949 26.8039 56.4949 27.0012C56.4949 27.1986 56.5338 27.394 56.6093 27.5763C56.6848 27.7586 56.7955 27.9242 56.935 28.0637C57.2168 28.3455 57.599 28.5038 57.9975 28.5038C58.1948 28.5038 58.3902 28.465 58.5725 28.3895C58.7548 28.314 58.9205 28.2033 59.06 28.0637L61.5 25.625L63.9387 28.065C64.2205 28.3468 64.6027 28.5051 65.0012 28.5051C65.3998 28.5051 65.782 28.3468 66.0637 28.065C66.3455 27.7832 66.5039 27.401 66.5039 27.0025C66.5039 26.604 66.3455 26.2218 66.0637 25.94L63.625 23.5ZM50.5 6.5H55.5C56.5609 6.5 57.5783 6.92142 58.3284 7.67157C59.0786 8.42171 59.5 9.43913 59.5 10.5C59.5 11.5609 59.0786 12.5783 58.3284 13.3284C57.5783 14.0786 56.5609 14.5 55.5 14.5H50.5V6.5Z" fill="white"/>
</g>
<defs>
<clipPath id="clip0_27_5006">
<rect width="72" height="32" rx="5" fill="white"/>
</clipPath>
</defs>
</svg>
