<svg width="72" height="32" viewBox="0 0 72 32" fill="none" xmlns="http://www.w3.org/2000/svg">
<g clip-path="url(#clip0_27_7381)">
<path d="M27 5H17V3C17 2.73478 16.8946 2.48043 16.7071 2.29289C16.5196 2.10536 16.2652 2 16 2C15.7348 2 15.4804 2.10536 15.2929 2.29289C15.1054 2.48043 15 2.73478 15 3V5H5C4.46957 5 3.96086 5.21071 3.58579 5.58579C3.21071 5.96086 3 6.46957 3 7V22C3 22.5304 3.21071 23.0391 3.58579 23.4142C3.96086 23.7893 4.46957 24 5 24H9.92L7.21875 27.375C7.05299 27.5822 6.97633 27.8468 7.00563 28.1105C7.03493 28.3742 7.1678 28.6155 7.375 28.7812C7.5822 28.947 7.84676 29.0237 8.11049 28.9944C8.37421 28.9651 8.61549 28.8322 8.78125 28.625L12.48 24H19.52L23.2188 28.625C23.3008 28.7276 23.4023 28.813 23.5174 28.8764C23.6325 28.9398 23.7589 28.9799 23.8895 28.9944C24.0201 29.0089 24.1523 28.9975 24.2785 28.961C24.4046 28.9244 24.5224 28.8633 24.625 28.7812C24.7276 28.6992 24.813 28.5977 24.8764 28.4826C24.9398 28.3675 24.9799 28.2411 24.9944 28.1105C25.0089 27.9799 24.9975 27.8477 24.961 27.7215C24.9244 27.5954 24.8633 27.4776 24.7812 27.375L22.08 24H27C27.5304 24 28.0391 23.7893 28.4142 23.4142C28.7893 23.0391 29 22.5304 29 22V7C29 6.46957 28.7893 5.96086 28.4142 5.58579C28.0391 5.21071 27.5304 5 27 5ZM13 18C13 18.2652 12.8946 18.5196 12.7071 18.7071C12.5196 18.8946 12.2652 19 12 19C11.7348 19 11.4804 18.8946 11.2929 18.7071C11.1054 18.5196 11 18.2652 11 18V15C11 14.7348 11.1054 14.4804 11.2929 14.2929C11.4804 14.1054 11.7348 14 12 14C12.2652 14 12.5196 14.1054 12.7071 14.2929C12.8946 14.4804 13 14.7348 13 15V18ZM17 18C17 18.2652 16.8946 18.5196 16.7071 18.7071C16.5196 18.8946 16.2652 19 16 19C15.7348 19 15.4804 18.8946 15.2929 18.7071C15.1054 18.5196 15 18.2652 15 18V13C15 12.7348 15.1054 12.4804 15.2929 12.2929C15.4804 12.1054 15.7348 12 16 12C16.2652 12 16.5196 12.1054 16.7071 12.2929C16.8946 12.4804 17 12.7348 17 13V18ZM21 18C21 18.2652 20.8946 18.5196 20.7071 18.7071C20.5196 18.8946 20.2652 19 20 19C19.7348 19 19.4804 18.8946 19.2929 18.7071C19.1054 18.5196 19 18.2652 19 18V11C19 10.7348 19.1054 10.4804 19.2929 10.2929C19.4804 10.1054 19.7348 10 20 10C20.2652 10 20.5196 10.1054 20.7071 10.2929C20.8946 10.4804 21 10.7348 21 11V18Z" fill="white"/>
<path d="M67 4.5H57.5V3C57.5 2.60218 57.342 2.22064 57.0607 1.93934C56.7794 1.65804 56.3978 1.5 56 1.5C55.6022 1.5 55.2206 1.65804 54.9393 1.93934C54.658 2.22064 54.5 2.60218 54.5 3V4.5H45C44.337 4.5 43.7011 4.76339 43.2322 5.23223C42.7634 5.70107 42.5 6.33696 42.5 7V22C42.5 22.663 42.7634 23.2989 43.2322 23.7678C43.7011 24.2366 44.337 24.5 45 24.5H48.875L46.825 27.0625C46.5764 27.3731 46.4613 27.7698 46.5051 28.1653C46.549 28.5608 46.7481 28.9226 47.0588 29.1712C47.3694 29.4199 47.7661 29.5349 48.1615 29.4911C48.557 29.4473 48.9189 29.2481 49.1675 28.9375L52.7175 24.5H59.275L62.825 28.9375C62.9481 29.0913 63.1003 29.2194 63.2729 29.3144C63.4455 29.4093 63.6351 29.4694 63.831 29.4911C64.0268 29.5128 64.225 29.4957 64.4142 29.4409C64.6034 29.386 64.7799 29.2944 64.9338 29.1712C65.0876 29.0481 65.2156 28.8959 65.3106 28.7233C65.4056 28.5507 65.4657 28.3611 65.4874 28.1653C65.5091 27.9695 65.492 27.7713 65.4371 27.5821C65.3822 27.3929 65.2906 27.2163 65.1675 27.0625L63.125 24.5H67C67.663 24.5 68.2989 24.2366 68.7678 23.7678C69.2366 23.2989 69.5 22.663 69.5 22V7C69.5 6.33696 69.2366 5.70107 68.7678 5.23223C68.2989 4.76339 67.663 4.5 67 4.5ZM66.5 21.5H45.5V7.5H66.5V21.5ZM53 15V18C53 18.3978 52.842 18.7794 52.5607 19.0607C52.2794 19.342 51.8978 19.5 51.5 19.5C51.1022 19.5 50.7206 19.342 50.4393 19.0607C50.158 18.7794 50 18.3978 50 18V15C50 14.6022 50.158 14.2206 50.4393 13.9393C50.7206 13.658 51.1022 13.5 51.5 13.5C51.8978 13.5 52.2794 13.658 52.5607 13.9393C52.842 14.2206 53 14.6022 53 15ZM56 11.5C56.3978 11.5 56.7794 11.658 57.0607 11.9393C57.342 12.2206 57.5 12.6022 57.5 13V18C57.5 18.3978 57.342 18.7794 57.0607 19.0607C56.7794 19.342 56.3978 19.5 56 19.5C55.6022 19.5 55.2206 19.342 54.9393 19.0607C54.658 18.7794 54.5 18.3978 54.5 18V13C54.5 12.6022 54.658 12.2206 54.9393 11.9393C55.2206 11.658 55.6022 11.5 56 11.5ZM59 18V11C59 10.6022 59.158 10.2206 59.4393 9.93934C59.7206 9.65804 60.1022 9.5 60.5 9.5C60.8978 9.5 61.2794 9.65804 61.5607 9.93934C61.842 10.2206 62 10.6022 62 11V18C62 18.3978 61.842 18.7794 61.5607 19.0607C61.2794 19.342 60.8978 19.5 60.5 19.5C60.1022 19.5 59.7206 19.342 59.4393 19.0607C59.158 18.7794 59 18.3978 59 18Z" fill="white"/>
</g>
<defs>
<clipPath id="clip0_27_7381">
<rect width="72" height="32" rx="5" fill="white"/>
</clipPath>
</defs>
</svg>
