<svg width="72" height="32" viewBox="0 0 72 32" fill="none" xmlns="http://www.w3.org/2000/svg">
<g clip-path="url(#clip0_27_4424)">
<path d="M16 3C13.4288 3 10.9154 3.76244 8.77759 5.1909C6.63975 6.61935 4.97351 8.64968 3.98957 11.0251C3.00563 13.4006 2.74819 16.0144 3.2498 18.5362C3.75141 21.0579 4.98953 23.3743 6.80762 25.1924C8.6257 27.0105 10.9421 28.2486 13.4638 28.7502C15.9856 29.2518 18.5995 28.9944 20.9749 28.0104C23.3503 27.0265 25.3807 25.3603 26.8091 23.2224C28.2376 21.0846 29 18.5712 29 16C28.9964 12.5533 27.6256 9.24882 25.1884 6.81163C22.7512 4.37445 19.4467 3.00364 16 3ZM20.7075 20.7075C20.6146 20.8005 20.5043 20.8742 20.3829 20.9246C20.2615 20.9749 20.1314 21.0008 20 21.0008C19.8686 21.0008 19.7385 20.9749 19.6171 20.9246C19.4957 20.8742 19.3854 20.8005 19.2925 20.7075L11.2925 12.7075C11.1049 12.5199 10.9994 12.2654 10.9994 12C10.9994 11.7346 11.1049 11.4801 11.2925 11.2925C11.4801 11.1049 11.7346 10.9994 12 10.9994C12.2654 10.9994 12.5199 11.1049 12.7075 11.2925L20.7075 19.2925C20.8005 19.3854 20.8742 19.4957 20.9246 19.6171C20.9749 19.7385 21.0008 19.8686 21.0008 20C21.0008 20.1314 20.9749 20.2615 20.9246 20.3829C20.8742 20.5043 20.8005 20.6146 20.7075 20.7075Z" fill="white"/>
<path d="M61.0613 18.9387C61.343 19.2205 61.5014 19.6027 61.5014 20.0012C61.5014 20.3998 61.343 20.782 61.0613 21.0637C60.7795 21.3455 60.3973 21.5039 59.9988 21.5039C59.6002 21.5039 59.218 21.3455 58.9363 21.0637L50.9363 13.0638C50.6545 12.782 50.4962 12.3998 50.4962 12.0013C50.4962 11.6027 50.6545 11.2205 50.9363 10.9388C51.218 10.657 51.6002 10.4986 51.9988 10.4986C52.3973 10.4986 52.7795 10.657 53.0613 10.9388L61.0613 18.9387ZM69.5 16C69.5 18.67 68.7082 21.2801 67.2248 23.5002C65.7414 25.7203 63.633 27.4506 61.1662 28.4724C58.6994 29.4942 55.985 29.7615 53.3663 29.2406C50.7475 28.7197 48.3421 27.434 46.4541 25.5459C44.5661 23.6579 43.2803 21.2525 42.7594 18.6337C42.2385 16.015 42.5058 13.3006 43.5276 10.8338C44.5494 8.36697 46.2797 6.25856 48.4998 4.77516C50.7199 3.29176 53.33 2.5 56 2.5C59.5792 2.50397 63.0107 3.92756 65.5416 6.45844C68.0724 8.98932 69.496 12.4208 69.5 16ZM66.5 16C66.5 13.9233 65.8842 11.8932 64.7304 10.1665C63.5767 8.4398 61.9368 7.09399 60.0182 6.29926C58.0996 5.50454 55.9884 5.29661 53.9516 5.70175C51.9148 6.1069 50.0438 7.10693 48.5754 8.57538C47.1069 10.0438 46.1069 11.9148 45.7018 13.9516C45.2966 15.9884 45.5046 18.0996 46.2993 20.0182C47.094 21.9368 48.4398 23.5767 50.1665 24.7304C51.8932 25.8842 53.9233 26.5 56 26.5C58.7839 26.497 61.4529 25.3898 63.4213 23.4213C65.3898 21.4528 66.497 18.7839 66.5 16Z" fill="white"/>
</g>
<defs>
<clipPath id="clip0_27_4424">
<rect width="72" height="32" rx="5" fill="white"/>
</clipPath>
</defs>
</svg>
