<svg width="72" height="32" viewBox="0 0 72 32" fill="none" xmlns="http://www.w3.org/2000/svg">
<g clip-path="url(#clip0_27_7391)">
<path d="M29 8V6C29 5.46957 28.7893 4.96086 28.4142 4.58579C28.0391 4.21071 27.5304 4 27 4H5C4.46957 4 3.96086 4.21071 3.58579 4.58579C3.21071 4.96086 3 5.46957 3 6V8C3 8.53043 3.21071 9.03914 3.58579 9.41421C3.96086 9.78929 4.46957 10 5 10V22H4C3.73478 22 3.48043 22.1054 3.29289 22.2929C3.10536 22.4804 3 22.7348 3 23C3 23.2652 3.10536 23.5196 3.29289 23.7071C3.48043 23.8946 3.73478 24 4 24H15V26.1725C14.3328 26.4084 13.7704 26.8726 13.4124 27.483C13.0543 28.0934 12.9235 28.8107 13.0432 29.5082C13.1629 30.2057 13.5253 30.8385 14.0663 31.2946C14.6074 31.7507 15.2923 32.0009 16 32.0009C16.7077 32.0009 17.3926 31.7507 17.9337 31.2946C18.4747 30.8385 18.8371 30.2057 18.9568 29.5082C19.0765 28.8107 18.9457 28.0934 18.5876 27.483C18.2296 26.8726 17.6672 26.4084 17 26.1725V24H28C28.2652 24 28.5196 23.8946 28.7071 23.7071C28.8946 23.5196 29 23.2652 29 23C29 22.7348 28.8946 22.4804 28.7071 22.2929C28.5196 22.1054 28.2652 22 28 22H27V10C27.5304 10 28.0391 9.78929 28.4142 9.41421C28.7893 9.03914 29 8.53043 29 8ZM16 30C15.8022 30 15.6089 29.9414 15.4444 29.8315C15.28 29.7216 15.1518 29.5654 15.0761 29.3827C15.0004 29.2 14.9806 28.9989 15.0192 28.8049C15.0578 28.6109 15.153 28.4327 15.2929 28.2929C15.4327 28.153 15.6109 28.0578 15.8049 28.0192C15.9989 27.9806 16.2 28.0004 16.3827 28.0761C16.5654 28.1518 16.7216 28.28 16.8315 28.4444C16.9414 28.6089 17 28.8022 17 29C17 29.2652 16.8946 29.5196 16.7071 29.7071C16.5196 29.8946 16.2652 30 16 30ZM5 6H27V8H5V6Z" fill="white"/>
<path d="M69.5 9V6C69.5 5.33696 69.2366 4.70107 68.7678 4.23223C68.2989 3.76339 67.663 3.5 67 3.5H45C44.337 3.5 43.7011 3.76339 43.2322 4.23223C42.7634 4.70107 42.5 5.33696 42.5 6V9C42.4999 9.57633 42.6989 10.135 43.0633 10.5815C43.4278 11.0279 43.9353 11.3347 44.5 11.45V20.5H44C43.6022 20.5 43.2206 20.658 42.9393 20.9393C42.658 21.2206 42.5 21.6022 42.5 22C42.5 22.3978 42.658 22.7794 42.9393 23.0607C43.2206 23.342 43.6022 23.5 44 23.5H54.5V26.4025C53.9281 26.7327 53.4811 27.2424 53.2284 27.8525C52.9756 28.4627 52.9313 29.1391 53.1022 29.777C53.2731 30.4149 53.6498 30.9786 54.1737 31.3806C54.6976 31.7827 55.3396 32.0006 56 32.0006C56.6604 32.0006 57.3024 31.7827 57.8263 31.3806C58.3502 30.9786 58.7269 30.4149 58.8978 29.777C59.0687 29.1391 59.0244 28.4627 58.7716 27.8525C58.5189 27.2424 58.0719 26.7327 57.5 26.4025V23.5H68C68.3978 23.5 68.7794 23.342 69.0607 23.0607C69.342 22.7794 69.5 22.3978 69.5 22C69.5 21.6022 69.342 21.2206 69.0607 20.9393C68.7794 20.658 68.3978 20.5 68 20.5H67.5V11.45C68.0647 11.3347 68.5722 11.0279 68.9367 10.5815C69.3011 10.135 69.5001 9.57633 69.5 9ZM45.5 6.5H66.5V8.5H45.5V6.5ZM47.5 20.5V11.5H64.5V20.5H47.5Z" fill="white"/>
</g>
<defs>
<clipPath id="clip0_27_7391">
<rect width="72" height="32" rx="5" fill="white"/>
</clipPath>
</defs>
</svg>
