<svg width="72" height="32" viewBox="0 0 72 32" fill="none" xmlns="http://www.w3.org/2000/svg">
<g clip-path="url(#clip0_27_5011)">
<path d="M27 5H5C4.46957 5 3.96086 5.21071 3.58579 5.58579C3.21071 5.96086 3 6.46957 3 7V25C3 25.5304 3.21071 26.0391 3.58579 26.4142C3.96086 26.7893 4.46957 27 5 27H27C27.5304 27 28.0391 26.7893 28.4142 26.4142C28.7893 26.0391 29 25.5304 29 25V7C29 6.46957 28.7893 5.96086 28.4142 5.58579C28.0391 5.21071 27.5304 5 27 5ZM26 17H23.58L19.875 23.5C19.787 23.6524 19.6603 23.7789 19.5078 23.8667C19.3553 23.9545 19.1822 24.0005 19.0063 24H18.9487C18.7631 23.9892 18.5842 23.9268 18.4321 23.82C18.28 23.7131 18.1606 23.5659 18.0875 23.395L12.875 11.24L9.875 16.5C9.78648 16.6533 9.65882 16.7804 9.50509 16.8683C9.35136 16.9561 9.17706 17.0016 9 17H6C5.73478 17 5.48043 16.8946 5.29289 16.7071C5.10536 16.5196 5 16.2652 5 16C5 15.7348 5.10536 15.4804 5.29289 15.2929C5.48043 15.1054 5.73478 15 6 15H8.42L12.1313 8.5C12.2235 8.3385 12.359 8.20593 12.5225 8.11722C12.686 8.0285 12.871 7.98714 13.0567 7.99779C13.2424 8.00844 13.4215 8.07067 13.5738 8.1775C13.7261 8.28432 13.8455 8.43151 13.9187 8.6025L19.125 20.76L22.125 15.5037C22.213 15.3513 22.3397 15.2248 22.4922 15.137C22.6447 15.0492 22.8178 15.0033 22.9937 15.0037H25.9937C26.259 15.0037 26.5133 15.1091 26.7009 15.2966C26.8884 15.4842 26.9937 15.7385 26.9937 16.0037C26.9937 16.269 26.8884 16.5233 26.7009 16.7109C26.5133 16.8984 26.259 17.0037 25.9937 17.0037L26 17Z" fill="white"/>
<path d="M70.5 16C70.5 16.3978 70.342 16.7794 70.0607 17.0607C69.7794 17.342 69.3978 17.5 69 17.5H65.9275L61.3412 26.6713C61.2166 26.9203 61.0252 27.1297 60.7883 27.2761C60.5514 27.4224 60.2785 27.5 60 27.5H59.925C59.6341 27.4853 59.3538 27.3862 59.1183 27.2148C58.8828 27.0435 58.7023 26.8072 58.5987 26.535L51.875 8.89375L48.365 16.625C48.2452 16.8863 48.0529 17.1077 47.8109 17.2628C47.5689 17.4179 47.2874 17.5003 47 17.5H43C42.6022 17.5 42.2206 17.342 41.9393 17.0607C41.658 16.7794 41.5 16.3978 41.5 16C41.5 15.6022 41.658 15.2206 41.9393 14.9393C42.2206 14.658 42.6022 14.5 43 14.5H46.0338L50.635 4.375C50.7577 4.10587 50.9572 3.87903 51.2085 3.723C51.4598 3.56696 51.7516 3.4887 52.0472 3.49805C52.3429 3.5074 52.6292 3.60395 52.8701 3.77555C53.111 3.94716 53.2958 4.18616 53.4012 4.4625L60.1863 22.27L63.6588 15.325C63.7839 15.0767 63.9756 14.868 64.2124 14.7224C64.4493 14.5767 64.7219 14.4997 65 14.5H69C69.3978 14.5 69.7794 14.658 70.0607 14.9393C70.342 15.2206 70.5 15.6022 70.5 16Z" fill="white"/>
</g>
<defs>
<clipPath id="clip0_27_5011">
<rect width="72" height="32" rx="5" fill="white"/>
</clipPath>
</defs>
</svg>
