<svg width="72" height="32" viewBox="0 0 72 32" fill="none" xmlns="http://www.w3.org/2000/svg">
<g clip-path="url(#clip0_27_7416)">
<path d="M29.4169 13L23.4644 18.9725C23.4165 19.0203 23.3594 19.058 23.2966 19.0831C23.2337 19.1083 23.1664 19.1204 23.0987 19.1188C23.0311 19.1171 22.9644 19.1018 22.9029 19.0736C22.8413 19.0455 22.7861 19.0051 22.7406 18.955L13.5006 8.78372C13.4145 8.68873 13.3682 8.56429 13.3712 8.4361C13.3742 8.30792 13.4264 8.1858 13.5169 8.09497L19.0006 2.58747C19.1863 2.40171 19.4068 2.25435 19.6495 2.15381C19.8922 2.05327 20.1523 2.00153 20.415 2.00153C20.6777 2.00153 20.9378 2.05327 21.1805 2.15381C21.4231 2.25435 21.6436 2.40171 21.8294 2.58747L29.4156 10.1725C29.7906 10.5473 30.0013 11.0558 30.0016 11.586C30.0018 12.1162 29.7915 12.6248 29.4169 13ZM6.74062 4.32747C6.64493 4.22269 6.52803 4.13947 6.3977 4.08334C6.26736 4.02722 6.12657 3.99948 5.98469 4.00196C5.84281 4.00444 5.70308 4.03709 5.57479 4.09774C5.4465 4.15839 5.33258 4.24565 5.24062 4.35372C5.0846 4.54546 5.00331 4.78722 5.01182 5.03427C5.02032 5.28132 5.11803 5.51692 5.28687 5.69747L8.41562 9.14372C7.28312 9.38622 6.02562 9.92122 4.75062 10.9537C4.53177 11.1297 4.35244 11.3498 4.22429 11.5997C4.09614 11.8495 4.02205 12.1236 4.00684 12.404C3.99163 12.6844 4.03564 12.9649 4.13601 13.2271C4.23637 13.4894 4.39084 13.7276 4.58937 13.9262L10.6256 19.9637L5.31937 25.2675C5.13446 25.4466 5.024 25.6889 5.0101 25.9459C4.99619 26.2029 5.07986 26.4557 5.24437 26.6537C5.3342 26.7578 5.44452 26.8421 5.56843 26.9016C5.69233 26.9611 5.82718 26.9944 5.96453 26.9995C6.10189 27.0045 6.23881 26.9812 6.36675 26.931C6.49469 26.8807 6.6109 26.8046 6.70812 26.7075L12.0369 21.375L18.0731 27.4112C18.2587 27.5976 18.4792 27.7455 18.722 27.8465C18.9648 27.9475 19.2251 27.9997 19.4881 28C19.5356 28 19.5819 28 19.6294 28C19.9145 27.9802 20.192 27.8993 20.443 27.7628C20.6941 27.6263 20.9128 27.4373 21.0844 27.2087C21.6784 26.4348 22.1677 25.5858 22.5394 24.6837L25.2606 27.6775C25.3484 27.7765 25.455 27.857 25.5742 27.9145C25.6934 27.972 25.8228 28.0053 25.955 28.0124C26.0871 28.0195 26.2193 28.0003 26.344 27.9559C26.4687 27.9116 26.5833 27.8429 26.6812 27.7539C26.7792 27.6649 26.8585 27.5573 26.9145 27.4375C26.9706 27.3176 27.0023 27.1878 27.0078 27.0556C27.0133 26.9234 26.9926 26.7914 26.9467 26.6672C26.9008 26.5431 26.8308 26.4293 26.7406 26.3325L6.74062 4.32747Z" fill="white"/>
<path d="M47.1104 3.99127C46.9786 3.84278 46.8188 3.72191 46.64 3.63567C46.4612 3.54943 46.2671 3.49954 46.0689 3.48887C45.8706 3.47821 45.6723 3.50699 45.4853 3.57355C45.2983 3.64011 45.1264 3.74313 44.9795 3.87663C44.8326 4.01012 44.7136 4.17145 44.6295 4.35126C44.5454 4.53106 44.4979 4.72577 44.4896 4.92409C44.4813 5.12241 44.5125 5.32041 44.5813 5.5066C44.6501 5.69279 44.7551 5.86348 44.8904 6.00877L47.5004 8.87502C46.3821 9.243 45.3419 9.81564 44.4329 10.5638C44.1593 10.7838 43.9352 11.0591 43.7751 11.3715C43.615 11.684 43.5225 12.0267 43.5036 12.3773C43.4847 12.7278 43.5399 13.0785 43.6656 13.4063C43.7912 13.7341 43.9845 14.0318 44.2329 14.28L49.9154 19.9638L44.9404 24.9388C44.6586 25.2206 44.5003 25.6027 44.5003 26.0013C44.5003 26.3998 44.6586 26.782 44.9404 27.0638C45.2222 27.3456 45.6044 27.5039 46.0029 27.5039C46.4014 27.5039 46.7836 27.3456 47.0654 27.0638L52.0404 22.0875L57.7241 27.77C58.1923 28.2371 58.8265 28.4995 59.4879 28.5C59.5466 28.5 59.6054 28.5 59.6641 28.4938C60.0209 28.468 60.368 28.3659 60.682 28.1945C60.996 28.0231 61.2695 27.7862 61.4841 27.5C61.9409 26.8944 62.3401 26.2474 62.6766 25.5675L64.8916 28.0038C65.0233 28.1523 65.1832 28.2731 65.362 28.3594C65.5408 28.4456 65.7349 28.4955 65.9331 28.5062C66.1313 28.5168 66.3297 28.488 66.5167 28.4215C66.7037 28.3549 66.8756 28.2519 67.0225 28.1184C67.1694 27.9849 67.2884 27.8236 67.3725 27.6438C67.4566 27.464 67.5041 27.2693 67.5124 27.0709C67.5207 26.8726 67.4895 26.6746 67.4207 26.4884C67.3519 26.3022 67.2469 26.1316 67.1116 25.9863L47.1104 3.99127ZM59.4216 25.2263L46.7604 12.565C47.7504 11.875 48.7891 11.515 49.8641 11.4788L60.4279 23.1038C60.2022 23.8583 59.8629 24.574 59.4216 25.2263ZM69.7691 13.3513L64.8941 18.24C64.755 18.3795 64.5898 18.4903 64.4078 18.566C64.2259 18.6416 64.0309 18.6807 63.8338 18.681C63.6368 18.6813 63.4416 18.6428 63.2595 18.5677C63.0773 18.4925 62.9118 18.3823 62.7722 18.2431C62.4905 17.9622 62.3318 17.5808 62.3312 17.1829C62.3309 16.9858 62.3695 16.7907 62.4446 16.6085C62.5197 16.4264 62.63 16.2608 62.7691 16.1213L67.2929 11.5838L60.4179 4.70877L56.3241 8.81252C56.0426 9.09062 55.6625 9.24619 55.2667 9.24532C54.871 9.24444 54.4916 9.0872 54.2113 8.80785C53.9309 8.5285 53.7723 8.14969 53.7701 7.75393C53.7678 7.35818 53.922 6.97757 54.1991 6.69502L58.6454 2.23377C58.8776 2.00132 59.1533 1.81693 59.4568 1.69112C59.7603 1.56531 60.0856 1.50055 60.4141 1.50055C60.7427 1.50055 61.068 1.56531 61.3715 1.69112C61.675 1.81693 61.9507 2.00132 62.1829 2.23377L69.7691 9.81877C70.2378 10.2876 70.5011 10.9234 70.5011 11.5863C70.5011 12.2492 70.2378 12.8849 69.7691 13.3538V13.3513Z" fill="white"/>
</g>
<defs>
<clipPath id="clip0_27_7416">
<rect width="72" height="32" rx="5" fill="white"/>
</clipPath>
</defs>
</svg>
