<svg width="72" height="32" viewBox="0 0 72 32" fill="none" xmlns="http://www.w3.org/2000/svg">
<g clip-path="url(#clip0_27_7401)">
<path d="M29.4156 13L22.7319 19.7062C23.3019 21.29 23.5381 23.9425 21.0831 27.2062C20.9114 27.4357 20.6922 27.6254 20.4404 27.7624C20.1887 27.8994 19.9103 27.9804 19.6244 28C19.5769 28 19.5306 28 19.4831 28C19.2203 28 18.9601 27.9483 18.7173 27.8477C18.4745 27.7471 18.2539 27.5996 18.0681 27.4137L12.0356 21.375L6.70686 26.7075C6.51922 26.8951 6.26472 27.0005 5.99936 27.0005C5.73399 27.0005 5.4795 26.8951 5.29186 26.7075C5.10422 26.5198 4.9988 26.2653 4.9988 26C4.9988 25.7346 5.10422 25.4801 5.29186 25.2925L10.6244 19.9637L4.58686 13.9262C4.38841 13.7275 4.23403 13.4893 4.13376 13.2269C4.0335 12.9646 3.98961 12.6841 4.00494 12.4037C4.02026 12.1233 4.09447 11.8493 4.22273 11.5994C4.351 11.3496 4.53043 11.1296 4.74936 10.9537C7.92686 8.38997 10.9681 8.89372 12.2994 9.31122L18.9994 2.58747C19.1851 2.40171 19.4056 2.25435 19.6483 2.15381C19.8909 2.05327 20.1511 2.00153 20.4137 2.00153C20.6764 2.00153 20.9365 2.05327 21.1792 2.15381C21.4219 2.25435 21.6424 2.40171 21.8281 2.58747L29.4144 10.1725C29.7893 10.5473 30.0001 11.0558 30.0003 11.586C30.0005 12.1162 29.7902 12.6248 29.4156 13Z" fill="white"/>
<path d="M69.7691 9.81748L62.1829 2.23248C61.9507 2.00004 61.675 1.81565 61.3715 1.68983C61.068 1.56402 60.7427 1.49927 60.4141 1.49927C60.0856 1.49927 59.7603 1.56402 59.4568 1.68983C59.1533 1.81565 58.8776 2.00004 58.6454 2.23248L52.1504 8.74998C50.5966 8.33373 47.5654 8.03498 44.4329 10.5625C44.1593 10.7826 43.9352 11.0578 43.7751 11.3703C43.615 11.6827 43.5225 12.0254 43.5036 12.376C43.4847 12.7266 43.5399 13.0772 43.6656 13.405C43.7912 13.7329 43.9845 14.0306 44.2329 14.2787L49.9154 19.9625L44.9404 24.9375C44.6586 25.2193 44.5003 25.6015 44.5003 26C44.5003 26.3985 44.6586 26.7807 44.9404 27.0625C45.2222 27.3443 45.6044 27.5026 46.0029 27.5026C46.4014 27.5026 46.7836 27.3443 47.0654 27.0625L52.0404 22.0862L57.7241 27.7687C58.1924 28.2365 58.8272 28.4995 59.4891 28.5C59.5466 28.5 59.6054 28.5 59.6641 28.4937C60.0209 28.468 60.368 28.3659 60.682 28.1945C60.996 28.023 61.2695 27.7862 61.4841 27.5C62.0704 26.7212 62.8591 25.4837 63.2891 24C63.7191 22.5162 63.7204 21.14 63.3091 19.825L69.7716 13.3412C70.2365 12.8726 70.4972 12.239 70.4967 11.5788C70.4963 10.9187 70.2347 10.2855 69.7691 9.81748ZM60.4866 18.4162C60.2647 18.639 60.1184 18.9259 60.0684 19.2363C60.0183 19.5467 60.0671 19.865 60.2079 20.1462C60.6366 21.0037 61.0704 22.7712 59.4229 25.2275L46.7604 12.5662C49.3966 10.7425 51.7016 11.7362 51.8854 11.8162C52.1654 11.9616 52.4849 12.0123 52.7962 11.9607C53.1074 11.9091 53.3935 11.7579 53.6116 11.53L60.4154 4.70373L67.2904 11.5787L60.4866 18.4162Z" fill="white"/>
</g>
<defs>
<clipPath id="clip0_27_7401">
<rect width="72" height="32" rx="5" fill="white"/>
</clipPath>
</defs>
</svg>
