<svg width="72" height="32" viewBox="0 0 72 32" fill="none" xmlns="http://www.w3.org/2000/svg">
<g clip-path="url(#clip0_27_7406)">
<path d="M28 22C28 22.2652 27.8946 22.5196 27.7071 22.7071C27.5196 22.8946 27.2652 23 27 23H17V30C17 30.2652 16.8946 30.5196 16.7071 30.7071C16.5196 30.8946 16.2652 31 16 31C15.7348 31 15.4804 30.8946 15.2929 30.7071C15.1054 30.5196 15 30.2652 15 30V23H5C4.73478 23 4.48043 22.8946 4.29289 22.7071C4.10536 22.5196 4 22.2652 4 22C4 21.7348 4.10536 21.4804 4.29289 21.2929C4.48043 21.1054 4.73478 21 5 21H6.16125L8.8075 6H8C7.73478 6 7.48043 5.89464 7.29289 5.70711C7.10536 5.51957 7 5.26522 7 5C7 4.73478 7.10536 4.48043 7.29289 4.29289C7.48043 4.10536 7.73478 4 8 4H24C24.2652 4 24.5196 4.10536 24.7071 4.29289C24.8946 4.48043 25 4.73478 25 5C25 5.26522 24.8946 5.51957 24.7071 5.70711C24.5196 5.89464 24.2652 6 24 6H23.1925L25.8388 21H27C27.2652 21 27.5196 21.1054 27.7071 21.2929C27.8946 21.4804 28 21.7348 28 22Z" fill="white"/>
<path d="M67 20.5H66.2588L63.7875 6.5H64C64.3978 6.5 64.7794 6.34196 65.0607 6.06066C65.342 5.77936 65.5 5.39782 65.5 5C65.5 4.60218 65.342 4.22064 65.0607 3.93934C64.7794 3.65804 64.3978 3.5 64 3.5H48C47.6022 3.5 47.2206 3.65804 46.9393 3.93934C46.658 4.22064 46.5 4.60218 46.5 5C46.5 5.39782 46.658 5.77936 46.9393 6.06066C47.2206 6.34196 47.6022 6.5 48 6.5H48.2125L45.7413 20.5H45C44.6022 20.5 44.2206 20.658 43.9393 20.9393C43.658 21.2206 43.5 21.6022 43.5 22C43.5 22.3978 43.658 22.7794 43.9393 23.0607C44.2206 23.342 44.6022 23.5 45 23.5H54.5V30C54.5 30.3978 54.658 30.7794 54.9393 31.0607C55.2206 31.342 55.6022 31.5 56 31.5C56.3978 31.5 56.7794 31.342 57.0607 31.0607C57.342 30.7794 57.5 30.3978 57.5 30V23.5H67C67.3978 23.5 67.7794 23.342 68.0607 23.0607C68.342 22.7794 68.5 22.3978 68.5 22C68.5 21.6022 68.342 21.2206 68.0607 20.9393C67.7794 20.658 67.3978 20.5 67 20.5ZM51.2587 6.5H60.7412L63.2125 20.5H48.7875L51.2587 6.5Z" fill="white"/>
</g>
<defs>
<clipPath id="clip0_27_7406">
<rect width="72" height="32" rx="5" fill="white"/>
</clipPath>
</defs>
</svg>
