<svg width="72" height="32" viewBox="0 0 72 32" fill="none" xmlns="http://www.w3.org/2000/svg">
<g clip-path="url(#clip0_27_7411)">
<path d="M9.90625 4.83627C9.84082 4.76428 9.79782 4.67476 9.78251 4.57869C9.7672 4.48263 9.78024 4.38418 9.82005 4.29541C9.85985 4.20665 9.92469 4.13142 10.0066 4.07895C10.0885 4.02649 10.184 3.99906 10.2812 4.00002H24C24.1371 3.99972 24.2728 4.02761 24.3986 4.08196C24.5245 4.1363 24.6378 4.21594 24.7316 4.31594C24.8254 4.41593 24.8976 4.53414 24.9438 4.66321C24.9899 4.79229 25.0091 4.92949 25 5.06627C24.9779 5.32386 24.8589 5.56347 24.667 5.73676C24.4752 5.91005 24.2247 6.00414 23.9662 6.00002H23.1925L25.8375 20.9888C25.8565 21.0956 25.8403 21.2057 25.7913 21.3024C25.7423 21.3992 25.6631 21.4774 25.5657 21.5253C25.4684 21.5731 25.3581 21.588 25.2515 21.5676C25.145 21.5473 25.0479 21.4929 24.975 21.4125L9.90625 4.83627ZM26.74 26.3275L6.74 4.32752C6.65218 4.22853 6.54559 4.14795 6.4264 4.09046C6.30721 4.03297 6.1778 3.9997 6.04566 3.99259C5.91352 3.98549 5.78128 4.00467 5.65661 4.04905C5.53194 4.09342 5.41732 4.1621 5.31939 4.2511C5.22146 4.3401 5.14216 4.44765 5.0861 4.56752C5.03004 4.68739 4.99833 4.81719 4.99281 4.94941C4.98728 5.08162 5.00806 5.21362 5.05392 5.33775C5.09979 5.46187 5.16983 5.57567 5.26 5.67252L8.28 9.00002L6.16125 21H5C4.73478 21 4.48043 21.1054 4.29289 21.2929C4.10536 21.4805 4 21.7348 4 22C4 22.2652 4.10536 22.5196 4.29289 22.7071C4.48043 22.8947 4.73478 23 5 23H15V30C15 30.2652 15.1054 30.5196 15.2929 30.7071C15.4804 30.8947 15.7348 31 16 31C16.2652 31 16.5196 30.8947 16.7071 30.7071C16.8946 30.5196 17 30.2652 17 30V23H21.0125L25.2625 27.6725C25.3503 27.7715 25.4569 27.8521 25.5761 27.9096C25.6953 27.9671 25.8247 28.0003 25.9568 28.0075C26.089 28.0146 26.2212 27.9954 26.3459 27.951C26.4706 27.9066 26.5852 27.8379 26.6831 27.7489C26.781 27.66 26.8603 27.5524 26.9164 27.4325C26.9725 27.3127 27.0042 27.1829 27.0097 27.0506C27.0152 26.9184 26.9944 26.7864 26.9486 26.6623C26.9027 26.5382 26.8327 26.4244 26.7425 26.3275H26.74Z" fill="white"/>
<path d="M67.11 25.9913L47.11 3.99125C46.9783 3.84277 46.8184 3.7219 46.6396 3.63566C46.4608 3.54942 46.2667 3.49952 46.0685 3.48886C45.8703 3.4782 45.6719 3.50698 45.4849 3.57354C45.2979 3.6401 45.126 3.74312 44.9791 3.87661C44.8322 4.01011 44.7132 4.17144 44.6292 4.35124C44.5451 4.53105 44.4975 4.72575 44.4892 4.92408C44.4809 5.1224 44.5121 5.3204 44.5809 5.50659C44.6497 5.69278 44.7547 5.86347 44.89 6.00875L47.75 9.14875L45.7413 20.5H45C44.6022 20.5 44.2206 20.658 43.9393 20.9393C43.658 21.2206 43.5 21.6022 43.5 22C43.5 22.3978 43.658 22.7794 43.9393 23.0607C44.2206 23.342 44.6022 23.5 45 23.5H54.5V30C54.5 30.3978 54.658 30.7794 54.9393 31.0607C55.2206 31.342 55.6022 31.5 56 31.5C56.3978 31.5 56.7794 31.342 57.0607 31.0607C57.342 30.7794 57.5 30.3978 57.5 30V23.5H60.7913L64.89 28.0088C65.1589 28.2977 65.5309 28.4689 65.9253 28.4854C66.3197 28.5019 66.7046 28.3622 66.9967 28.0968C67.2888 27.8313 67.4645 27.4614 67.4857 27.0673C67.5069 26.6731 67.3719 26.2865 67.11 25.9913ZM48.7875 20.5L50.2963 11.955L58.0637 20.5H48.7875ZM51.2575 5C51.2575 4.60218 51.4155 4.22065 51.6968 3.93934C51.9781 3.65804 52.3597 3.5 52.7575 3.5H64C64.3978 3.5 64.7794 3.65804 65.0607 3.93934C65.342 4.22065 65.5 4.60218 65.5 5C65.5 5.39783 65.342 5.77936 65.0607 6.06066C64.7794 6.34197 64.3978 6.5 64 6.5H63.7875L65.7038 17.355C65.7381 17.549 65.7339 17.7479 65.6914 17.9403C65.6488 18.1328 65.5688 18.3149 65.4559 18.4764C65.3429 18.6378 65.1993 18.7755 65.0331 18.8814C64.867 18.9873 64.6816 19.0595 64.4875 19.0938C64.4008 19.1086 64.313 19.1161 64.225 19.1163C63.8725 19.1157 63.5314 18.9909 63.2617 18.764C62.992 18.537 62.8108 18.2222 62.75 17.875L60.7412 6.5H52.7575C52.3597 6.5 51.9781 6.34197 51.6968 6.06066C51.4155 5.77936 51.2575 5.39783 51.2575 5Z" fill="white"/>
</g>
<defs>
<clipPath id="clip0_27_7411">
<rect width="72" height="32" rx="5" fill="white"/>
</clipPath>
</defs>
</svg>
