<svg width="72" height="32" viewBox="0 0 72 32" fill="none" xmlns="http://www.w3.org/2000/svg">
<g clip-path="url(#clip0_27_4830)">
<path d="M20.7225 28H26C26.5304 28 27.0391 27.7893 27.4142 27.4142C27.7893 27.0391 28 26.5304 28 26V21.2938C27.9991 21.1298 27.958 20.9685 27.8801 20.8242C27.8022 20.6798 27.6901 20.5569 27.5535 20.4661C27.4169 20.3753 27.2601 20.3195 27.0969 20.3037C26.9336 20.2878 26.769 20.3123 26.6175 20.375C26.2631 20.5214 25.8834 20.5965 25.5 20.5963C23.8463 20.5963 22.5 19.2087 22.5 17.505C22.5 15.8012 23.8463 14.4137 25.5 14.4137C25.8834 14.4135 26.2631 14.4886 26.6175 14.635C26.7698 14.6981 26.9353 14.7225 27.0994 14.7061C27.2634 14.6897 27.4208 14.6331 27.5577 14.5411C27.6945 14.4492 27.8065 14.3249 27.8836 14.1792C27.9608 14.0336 28.0008 13.8711 28 13.7063V9C28 8.46957 27.7893 7.96086 27.4142 7.58579C27.0391 7.21071 26.5304 7 26 7H21.4725C21.4911 6.83399 21.5003 6.66705 21.5 6.5C21.5 5.30653 21.0259 4.16193 20.182 3.31802C19.3381 2.47411 18.1935 2 17 2C15.8065 2 14.6619 2.47411 13.818 3.31802C12.9741 4.16193 12.5 5.30653 12.5 6.5C12.4997 6.66705 12.5089 6.83399 12.5275 7H8C7.46957 7 6.96086 7.21071 6.58579 7.58579C6.21071 7.96086 6 8.46957 6 9V13.0275C5.83399 13.0089 5.66705 12.9997 5.5 13C4.30653 13 3.16193 13.4741 2.31802 14.318C1.47411 15.1619 1 16.3065 1 17.5C1 18.6935 1.47411 19.8381 2.31802 20.682C3.16193 21.5259 4.30653 22 5.5 22C5.66705 22.0003 5.83399 21.9911 6 21.9725V26C6 26.5304 6.21071 27.0391 6.58579 27.4142C6.96086 27.7893 7.46957 28 8 28H13.2775" fill="white"/>
<path d="M67.8008 19.395C67.5868 19.2599 67.342 19.1811 67.0894 19.166C66.8367 19.151 66.5844 19.2001 66.3558 19.3088C66.0411 19.4587 65.6927 19.5238 65.3451 19.4976C64.9975 19.4714 64.6628 19.3548 64.3742 19.1594C64.0855 18.964 63.853 18.6965 63.6996 18.3835C63.5461 18.0705 63.4772 17.7229 63.4995 17.375C63.5336 16.8932 63.7388 16.4394 64.078 16.0956C64.4173 15.7518 64.8682 15.5405 65.3495 15.5C65.6935 15.4743 66.0383 15.5389 66.3495 15.6875C66.5781 15.7974 66.8307 15.8475 67.0839 15.8333C67.337 15.819 67.5825 15.7408 67.7972 15.606C68.0119 15.4712 68.189 15.2841 68.3118 15.0623C68.4346 14.8404 68.4992 14.5911 68.4995 14.3375V9.00001C68.4995 8.33697 68.2362 7.70108 67.7673 7.23224C67.2985 6.7634 66.6626 6.50001 65.9995 6.50001H61.9995C61.9984 5.81708 61.858 5.14157 61.5867 4.51482C61.3155 3.88807 60.9192 3.32328 60.422 2.85501C59.9248 2.38468 59.3356 2.02238 58.6915 1.7909C58.0474 1.55942 57.3624 1.46379 56.6795 1.51001C55.4749 1.58917 54.3393 2.10069 53.4817 2.95046C52.6241 3.80023 52.1022 4.93109 52.012 6.13501C51.9995 6.25876 51.9995 6.37501 51.9995 6.50001H47.9995C47.3365 6.50001 46.7006 6.7634 46.2318 7.23224C45.7629 7.70108 45.4995 8.33697 45.4995 9.00001V12.5C44.8166 12.5011 44.1411 12.6416 43.5144 12.9129C42.8876 13.1841 42.3228 13.5804 41.8545 14.0775C41.2077 14.7661 40.7693 15.6239 40.5899 16.5515C40.4106 17.4791 40.4977 18.4385 40.8412 19.3186C41.1847 20.1987 41.7706 20.9635 42.5309 21.5243C43.2911 22.0851 44.1948 22.4191 45.137 22.4875C45.2576 22.4979 45.3786 22.502 45.4995 22.5V26C45.4995 26.6631 45.7629 27.2989 46.2318 27.7678C46.7006 28.2366 47.3365 28.5 47.9995 28.5H65.9995C66.6626 28.5 67.2985 28.2366 67.7673 27.7678C68.2362 27.2989 68.4995 26.6631 68.4995 26V20.6638C68.4997 20.4105 68.4356 20.1613 68.3135 19.9395C68.1913 19.7176 68.0149 19.5303 67.8008 19.395ZM65.4995 25.5H48.4995V20.6638C48.4996 20.4106 48.4355 20.1616 48.3134 19.9398C48.1912 19.7181 48.015 19.5309 47.801 19.3956C47.587 19.2604 47.3423 19.1815 47.0896 19.1663C46.8369 19.1511 46.5844 19.2001 46.3558 19.3088C46.0428 19.4593 45.6959 19.5253 45.3495 19.5C44.8694 19.4597 44.4194 19.2495 44.0803 18.9072C43.7413 18.565 43.5353 18.113 43.4995 17.6325C43.4764 17.2846 43.5446 16.9367 43.6973 16.6233C43.8501 16.3099 44.0821 16.0419 44.3704 15.8459C44.6587 15.6498 44.9932 15.5325 45.3408 15.5056C45.6884 15.4787 46.037 15.5431 46.352 15.6925C46.5808 15.802 46.8337 15.8517 47.0869 15.8369C47.3401 15.8221 47.5855 15.7434 47.8 15.608C48.0145 15.4727 48.1912 15.2851 48.3135 15.063C48.4359 14.8408 48.4999 14.5912 48.4995 14.3375V9.50001H53.837C54.0901 9.49983 54.339 9.43563 54.5605 9.3134C54.7821 9.19117 54.9691 9.01487 55.1042 8.80092C55.2394 8.58696 55.3181 8.34231 55.3333 8.08972C55.3484 7.83713 55.2994 7.58481 55.1908 7.35626C55.0402 7.04331 54.9743 6.69638 54.9995 6.35001C55.0396 5.8698 55.2497 5.41965 55.592 5.08052C55.9344 4.74139 56.3865 4.53555 56.867 4.50001C57.2149 4.47673 57.5627 4.54476 57.8761 4.69736C58.1895 4.84996 58.4576 5.08183 58.6538 5.36997C58.85 5.65812 58.9675 5.99254 58.9945 6.34007C59.0216 6.68761 58.9574 7.03619 58.8083 7.35126C58.6985 7.58011 58.6486 7.83308 58.6632 8.08648C58.6779 8.33988 58.7566 8.58542 58.892 8.80011C59.0273 9.01481 59.215 9.19164 59.4373 9.31405C59.6597 9.43646 59.9095 9.50044 60.1633 9.50001H65.4995V12.5C65.3745 12.5 65.2583 12.5 65.137 12.5138C63.8473 12.6096 62.6449 13.2014 61.7822 14.165C60.9196 15.1286 60.4639 16.3889 60.5108 17.6814C60.5577 18.9738 61.1036 20.1978 62.0338 21.0963C62.9641 21.9948 64.2062 22.4979 65.4995 22.5V25.5Z" fill="white"/>
</g>
<defs>
<clipPath id="clip0_27_4830">
<rect width="72" height="32" rx="5" fill="white"/>
</clipPath>
</defs>
</svg>
