<svg width="72" height="32" viewBox="0 0 72 32" fill="none" xmlns="http://www.w3.org/2000/svg">
<g clip-path="url(#clip0_27_3006)">
<path d="M15 7V13C15 13.5304 14.7893 14.0391 14.4142 14.4142C14.0391 14.7893 13.5304 15 13 15H7C6.46957 15 5.96086 14.7893 5.58579 14.4142C5.21071 14.0391 5 13.5304 5 13V7C5 6.46957 5.21071 5.96086 5.58579 5.58579C5.96086 5.21071 6.46957 5 7 5H13C13.5304 5 14.0391 5.21071 14.4142 5.58579C14.7893 5.96086 15 6.46957 15 7ZM13 17H7C6.46957 17 5.96086 17.2107 5.58579 17.5858C5.21071 17.9609 5 18.4696 5 19V25C5 25.5304 5.21071 26.0391 5.58579 26.4142C5.96086 26.7893 6.46957 27 7 27H13C13.5304 27 14.0391 26.7893 14.4142 26.4142C14.7893 26.0391 15 25.5304 15 25V19C15 18.4696 14.7893 17.9609 14.4142 17.5858C14.0391 17.2107 13.5304 17 13 17ZM25 5H19C18.4696 5 17.9609 5.21071 17.5858 5.58579C17.2107 5.96086 17 6.46957 17 7V13C17 13.5304 17.2107 14.0391 17.5858 14.4142C17.9609 14.7893 18.4696 15 19 15H25C25.5304 15 26.0391 14.7893 26.4142 14.4142C26.7893 14.0391 27 13.5304 27 13V7C27 6.46957 26.7893 5.96086 26.4142 5.58579C26.0391 5.21071 25.5304 5 25 5ZM18 23C18.2652 23 18.5196 22.8946 18.7071 22.7071C18.8946 22.5196 19 22.2652 19 22V18C19 17.7348 18.8946 17.4804 18.7071 17.2929C18.5196 17.1054 18.2652 17 18 17C17.7348 17 17.4804 17.1054 17.2929 17.2929C17.1054 17.4804 17 17.7348 17 18V22C17 22.2652 17.1054 22.5196 17.2929 22.7071C17.4804 22.8946 17.7348 23 18 23ZM26 19H23V18C23 17.7348 22.8946 17.4804 22.7071 17.2929C22.5196 17.1054 22.2652 17 22 17C21.7348 17 21.4804 17.1054 21.2929 17.2929C21.1054 17.4804 21 17.7348 21 18V25H18C17.7348 25 17.4804 25.1054 17.2929 25.2929C17.1054 25.4804 17 25.7348 17 26C17 26.2652 17.1054 26.5196 17.2929 26.7071C17.4804 26.8946 17.7348 27 18 27H22C22.2652 27 22.5196 26.8946 22.7071 26.7071C22.8946 26.5196 23 26.2652 23 26V21H26C26.2652 21 26.5196 20.8946 26.7071 20.7071C26.8946 20.5196 27 20.2652 27 20C27 19.7348 26.8946 19.4804 26.7071 19.2929C26.5196 19.1054 26.2652 19 26 19ZM26 23C25.7348 23 25.4804 23.1054 25.2929 23.2929C25.1054 23.4804 25 23.7348 25 24V26C25 26.2652 25.1054 26.5196 25.2929 26.7071C25.4804 26.8946 25.7348 27 26 27C26.2652 27 26.5196 26.8946 26.7071 26.7071C26.8946 26.5196 27 26.2652 27 26V24C27 23.7348 26.8946 23.4804 26.7071 23.2929C26.5196 23.1054 26.2652 23 26 23Z" fill="white"/>
<path d="M52.5 4.5H47C46.337 4.5 45.7011 4.76339 45.2322 5.23223C44.7634 5.70107 44.5 6.33696 44.5 7V12.5C44.5 13.163 44.7634 13.7989 45.2322 14.2678C45.7011 14.7366 46.337 15 47 15H52.5C53.163 15 53.7989 14.7366 54.2678 14.2678C54.7366 13.7989 55 13.163 55 12.5V7C55 6.33696 54.7366 5.70107 54.2678 5.23223C53.7989 4.76339 53.163 4.5 52.5 4.5ZM52 12H47.5V7.5H52V12ZM52.5 17H47C46.337 17 45.7011 17.2634 45.2322 17.7322C44.7634 18.2011 44.5 18.837 44.5 19.5V25C44.5 25.663 44.7634 26.2989 45.2322 26.7678C45.7011 27.2366 46.337 27.5 47 27.5H52.5C53.163 27.5 53.7989 27.2366 54.2678 26.7678C54.7366 26.2989 55 25.663 55 25V19.5C55 18.837 54.7366 18.2011 54.2678 17.7322C53.7989 17.2634 53.163 17 52.5 17ZM52 24.5H47.5V20H52V24.5ZM65 4.5H59.5C58.837 4.5 58.2011 4.76339 57.7322 5.23223C57.2634 5.70107 57 6.33696 57 7V12.5C57 13.163 57.2634 13.7989 57.7322 14.2678C58.2011 14.7366 58.837 15 59.5 15H65C65.663 15 66.2989 14.7366 66.7678 14.2678C67.2366 13.7989 67.5 13.163 67.5 12.5V7C67.5 6.33696 67.2366 5.70107 66.7678 5.23223C66.2989 4.76339 65.663 4.5 65 4.5ZM64.5 12H60V7.5H64.5V12ZM57 21.5V18.5C57 18.1022 57.158 17.7206 57.4393 17.4393C57.7206 17.158 58.1022 17 58.5 17C58.8978 17 59.2794 17.158 59.5607 17.4393C59.842 17.7206 60 18.1022 60 18.5V21.5C60 21.8978 59.842 22.2794 59.5607 22.5607C59.2794 22.842 58.8978 23 58.5 23C58.1022 23 57.7206 22.842 57.4393 22.5607C57.158 22.2794 57 21.8978 57 21.5ZM67.5 20.5C67.5 20.8978 67.342 21.2794 67.0607 21.5607C66.7794 21.842 66.3978 22 66 22H64.5V26C64.5 26.3978 64.342 26.7794 64.0607 27.0607C63.7794 27.342 63.3978 27.5 63 27.5H58.5C58.1022 27.5 57.7206 27.342 57.4393 27.0607C57.158 26.7794 57 26.3978 57 26C57 25.6022 57.158 25.2206 57.4393 24.9393C57.7206 24.658 58.1022 24.5 58.5 24.5H61.5V18.5C61.5 18.1022 61.658 17.7206 61.9393 17.4393C62.2206 17.158 62.6022 17 63 17C63.3978 17 63.7794 17.158 64.0607 17.4393C64.342 17.7206 64.5 18.1022 64.5 18.5V19H66C66.3978 19 66.7794 19.158 67.0607 19.4393C67.342 19.7206 67.5 20.1022 67.5 20.5Z" fill="white"/>
</g>
<defs>
<clipPath id="clip0_27_3006">
<rect width="72" height="32" rx="5" fill="white"/>
</clipPath>
</defs>
</svg>
