<svg width="72" height="32" viewBox="0 0 72 32" fill="none" xmlns="http://www.w3.org/2000/svg">
<g clip-path="url(#clip0_27_4434)">
<path d="M25 3H7C6.46957 3 5.96086 3.21071 5.58579 3.58579C5.21071 3.96086 5 4.46957 5 5V27C5 27.5304 5.21071 28.0391 5.58579 28.4142C5.96086 28.7893 6.46957 29 7 29H25C25.5304 29 26.0391 28.7893 26.4142 28.4142C26.7893 28.0391 27 27.5304 27 27V5C27 4.46957 26.7893 3.96086 26.4142 3.58579C26.0391 3.21071 25.5304 3 25 3ZM17 17.91V18C17 18.2652 16.8946 18.5196 16.7071 18.7071C16.5196 18.8946 16.2652 19 16 19C15.7348 19 15.4804 18.8946 15.2929 18.7071C15.1054 18.5196 15 18.2652 15 18V17C15 16.7348 15.1054 16.4804 15.2929 16.2929C15.4804 16.1054 15.7348 16 16 16C17.6537 16 19 14.875 19 13.5C19 12.125 17.6537 11 16 11C14.3463 11 13 12.125 13 13.5V14C13 14.2652 12.8946 14.5196 12.7071 14.7071C12.5196 14.8946 12.2652 15 12 15C11.7348 15 11.4804 14.8946 11.2929 14.7071C11.1054 14.5196 11 14.2652 11 14V13.5C11 11.0188 13.2425 9 16 9C18.7575 9 21 11.0188 21 13.5C21 15.6725 19.2787 17.4913 17 17.91ZM17.5 22.5C17.5 22.7967 17.412 23.0867 17.2472 23.3334C17.0824 23.58 16.8481 23.7723 16.574 23.8858C16.2999 23.9993 15.9983 24.0291 15.7074 23.9712C15.4164 23.9133 15.1491 23.7704 14.9393 23.5607C14.7296 23.3509 14.5867 23.0836 14.5288 22.7926C14.4709 22.5017 14.5006 22.2001 14.6142 21.926C14.7277 21.6519 14.92 21.4176 15.1666 21.2528C15.4133 21.088 15.7033 21 16 21C16.3978 21 16.7794 21.158 17.0607 21.4393C17.342 21.7206 17.5 22.1022 17.5 22.5Z" fill="white"/>
<path d="M64.5 12C64.5 15.6838 61.4738 18.7562 57.5 19.3825V19.5C57.5 19.8978 57.342 20.2794 57.0607 20.5607C56.7794 20.842 56.3978 21 56 21C55.6022 21 55.2206 20.842 54.9393 20.5607C54.658 20.2794 54.5 19.8978 54.5 19.5V18C54.5 17.6022 54.658 17.2206 54.9393 16.9393C55.2206 16.658 55.6022 16.5 56 16.5C59.0325 16.5 61.5 14.4812 61.5 12C61.5 9.51875 59.0325 7.5 56 7.5C52.9675 7.5 50.5 9.51875 50.5 12C50.5 12.3978 50.342 12.7794 50.0607 13.0607C49.7794 13.342 49.3978 13.5 49 13.5C48.6022 13.5 48.2206 13.342 47.9393 13.0607C47.658 12.7794 47.5 12.3978 47.5 12C47.5 7.865 51.3125 4.5 56 4.5C60.6875 4.5 64.5 7.865 64.5 12ZM56 23.5C55.5055 23.5 55.0222 23.6466 54.6111 23.9213C54.2 24.196 53.8795 24.5865 53.6903 25.0433C53.5011 25.5001 53.4516 26.0028 53.548 26.4877C53.6445 26.9727 53.8826 27.4181 54.2322 27.7678C54.5819 28.1174 55.0273 28.3555 55.5123 28.452C55.9972 28.5484 56.4999 28.4989 56.9567 28.3097C57.4135 28.1205 57.804 27.8 58.0787 27.3889C58.3534 26.9778 58.5 26.4945 58.5 26C58.5 25.337 58.2366 24.7011 57.7678 24.2322C57.2989 23.7634 56.663 23.5 56 23.5Z" fill="white"/>
</g>
<defs>
<clipPath id="clip0_27_4434">
<rect width="72" height="32" rx="5" fill="white"/>
</clipPath>
</defs>
</svg>
