<svg width="72" height="32" viewBox="0 0 72 32" fill="none" xmlns="http://www.w3.org/2000/svg">
<g clip-path="url(#clip0_27_3936)">
<path d="M26 4H6C5.46957 4 4.96086 4.21071 4.58579 4.58579C4.21071 4.96086 4 5.46957 4 6V26C4 26.5304 4.21071 27.0391 4.58579 27.4142C4.96086 27.7893 5.46957 28 6 28H26C26.5304 28 27.0391 27.7893 27.4142 27.4142C27.7893 27.0391 28 26.5304 28 26V6C28 5.46957 27.7893 4.96086 27.4142 4.58579C27.0391 4.21071 26.5304 4 26 4ZM8 9H24C24.2652 9 24.5196 9.10536 24.7071 9.29289C24.8946 9.48043 25 9.73478 25 10C25 10.2652 24.8946 10.5196 24.7071 10.7071C24.5196 10.8946 24.2652 11 24 11H8C7.73478 11 7.48043 10.8946 7.29289 10.7071C7.10536 10.5196 7 10.2652 7 10C7 9.73478 7.10536 9.48043 7.29289 9.29289C7.48043 9.10536 7.73478 9 8 9ZM13 23H8C7.73478 23 7.48043 22.8946 7.29289 22.7071C7.10536 22.5196 7 22.2652 7 22C7 21.7348 7.10536 21.4804 7.29289 21.2929C7.48043 21.1054 7.73478 21 8 21H13C13.2652 21 13.5196 21.1054 13.7071 21.2929C13.8946 21.4804 14 21.7348 14 22C14 22.2652 13.8946 22.5196 13.7071 22.7071C13.5196 22.8946 13.2652 23 13 23ZM13 17H8C7.73478 17 7.48043 16.8946 7.29289 16.7071C7.10536 16.5196 7 16.2652 7 16C7 15.7348 7.10536 15.4804 7.29289 15.2929C7.48043 15.1054 7.73478 15 8 15H13C13.2652 15 13.5196 15.1054 13.7071 15.2929C13.8946 15.4804 14 15.7348 14 16C14 16.2652 13.8946 16.5196 13.7071 16.7071C13.5196 16.8946 13.2652 17 13 17ZM24.555 19.8325L18.555 23.8325C18.3906 23.9419 18.1975 24.0002 18 24C17.7348 24 17.4804 23.8946 17.2929 23.7071C17.1054 23.5196 17 23.2652 17 23V15C16.9999 14.8189 17.0489 14.6412 17.1419 14.4858C17.2349 14.3304 17.3684 14.2032 17.528 14.1177C17.6877 14.0323 17.8675 13.9918 18.0484 14.0005C18.2293 14.0093 18.4044 14.067 18.555 14.1675L24.555 18.1675C24.6922 18.2588 24.8047 18.3825 24.8825 18.5278C24.9603 18.673 25.001 18.8352 25.001 19C25.001 19.1648 24.9603 19.327 24.8825 19.4722C24.8047 19.6175 24.6922 19.7412 24.555 19.8325Z" fill="white"/>
<path d="M43.5 8C43.5 7.60218 43.658 7.22064 43.9393 6.93934C44.2206 6.65804 44.6022 6.5 45 6.5H67C67.3978 6.5 67.7794 6.65804 68.0607 6.93934C68.342 7.22064 68.5 7.60218 68.5 8C68.5 8.39782 68.342 8.77936 68.0607 9.06066C67.7794 9.34196 67.3978 9.5 67 9.5H45C44.6022 9.5 44.2206 9.34196 43.9393 9.06066C43.658 8.77936 43.5 8.39782 43.5 8ZM56.5 14.5H45C44.6022 14.5 44.2206 14.658 43.9393 14.9393C43.658 15.2206 43.5 15.6022 43.5 16C43.5 16.3978 43.658 16.7794 43.9393 17.0607C44.2206 17.342 44.6022 17.5 45 17.5H56.5C56.8978 17.5 57.2794 17.342 57.5607 17.0607C57.842 16.7794 58 16.3978 58 16C58 15.6022 57.842 15.2206 57.5607 14.9393C57.2794 14.658 56.8978 14.5 56.5 14.5ZM56.5 22.5H45C44.6022 22.5 44.2206 22.658 43.9393 22.9393C43.658 23.2206 43.5 23.6022 43.5 24C43.5 24.3978 43.658 24.7794 43.9393 25.0607C44.2206 25.342 44.6022 25.5 45 25.5H56.5C56.8978 25.5 57.2794 25.342 57.5607 25.0607C57.842 24.7794 58 24.3978 58 24C58 23.6022 57.842 23.2206 57.5607 22.9393C57.2794 22.658 56.8978 22.5 56.5 22.5ZM71.5 20C71.5001 20.2545 71.4354 20.5048 71.3121 20.7274C71.1888 20.95 71.0108 21.1376 70.795 21.2725L62.795 26.2725C62.5679 26.4144 62.307 26.493 62.0392 26.5C61.7715 26.507 61.5068 26.4422 61.2726 26.3123C61.0384 26.1825 60.8432 25.9923 60.7074 25.7615C60.5715 25.5307 60.4999 25.2678 60.5 25V15C60.4999 14.7322 60.5715 14.4693 60.7074 14.2385C60.8432 14.0077 61.0384 13.8175 61.2726 13.6877C61.5068 13.5578 61.7715 13.493 62.0392 13.5C62.307 13.507 62.5679 13.5856 62.795 13.7275L70.795 18.7275C71.0108 18.8624 71.1888 19.05 71.3121 19.2726C71.4354 19.4952 71.5001 19.7455 71.5 20ZM67.17 20L63.5 17.7062V22.2938L67.17 20Z" fill="white"/>
</g>
<defs>
<clipPath id="clip0_27_3936">
<rect width="72" height="32" rx="5" fill="white"/>
</clipPath>
</defs>
</svg>
