<svg width="72" height="32" viewBox="0 0 72 32" fill="none" xmlns="http://www.w3.org/2000/svg">
<g clip-path="url(#clip0_27_685)">
<path d="M14.5 9V20C14.4983 21.5908 13.8657 23.116 12.7408 24.2408C11.616 25.3657 10.0908 25.9983 8.5 26C8.23478 26 7.98043 25.8946 7.79289 25.7071C7.60536 25.5196 7.5 25.2652 7.5 25C7.5 24.7348 7.60536 24.4804 7.79289 24.2929C7.98043 24.1054 8.23478 24 8.5 24C9.56087 24 10.5783 23.5786 11.3284 22.8284C12.0786 22.0783 12.5 21.0609 12.5 20V19H5C4.46957 19 3.96086 18.7893 3.58579 18.4142C3.21071 18.0391 3 17.5304 3 17V9C3 8.46957 3.21071 7.96086 3.58579 7.58579C3.96086 7.21071 4.46957 7 5 7H12.5C13.0304 7 13.5391 7.21071 13.9142 7.58579C14.2893 7.96086 14.5 8.46957 14.5 9ZM27 7H19.5C18.9696 7 18.4609 7.21071 18.0858 7.58579C17.7107 7.96086 17.5 8.46957 17.5 9V17C17.5 17.5304 17.7107 18.0391 18.0858 18.4142C18.4609 18.7893 18.9696 19 19.5 19H27V20C27 21.0609 26.5786 22.0783 25.8284 22.8284C25.0783 23.5786 24.0609 24 23 24C22.7348 24 22.4804 24.1054 22.2929 24.2929C22.1054 24.4804 22 24.7348 22 25C22 25.2652 22.1054 25.5196 22.2929 25.7071C22.4804 25.8946 22.7348 26 23 26C24.5908 25.9983 26.116 25.3657 27.2408 24.2408C28.3657 23.116 28.9983 21.5908 29 20V9C29 8.46957 28.7893 7.96086 28.4142 7.58579C28.0391 7.21071 27.5304 7 27 7Z" fill="white"/>
<path d="M52.5 6.5H45C44.337 6.5 43.7011 6.76339 43.2322 7.23223C42.7634 7.70107 42.5 8.33696 42.5 9V17C42.5 17.663 42.7634 18.2989 43.2322 18.7678C43.7011 19.2366 44.337 19.5 45 19.5H52V20C52 20.9283 51.6313 21.8185 50.9749 22.4749C50.3185 23.1313 49.4283 23.5 48.5 23.5C48.1022 23.5 47.7206 23.658 47.4393 23.9393C47.158 24.2206 47 24.6022 47 25C47 25.3978 47.158 25.7794 47.4393 26.0607C47.7206 26.342 48.1022 26.5 48.5 26.5C50.2233 26.498 51.8754 25.8126 53.094 24.594C54.3126 23.3754 54.998 21.7233 55 20V9C55 8.33696 54.7366 7.70107 54.2678 7.23223C53.7989 6.76339 53.163 6.5 52.5 6.5ZM52 16.5H45.5V9.5H52V16.5ZM67 6.5H59.5C58.837 6.5 58.2011 6.76339 57.7322 7.23223C57.2634 7.70107 57 8.33696 57 9V17C57 17.663 57.2634 18.2989 57.7322 18.7678C58.2011 19.2366 58.837 19.5 59.5 19.5H66.5V20C66.5 20.9283 66.1313 21.8185 65.4749 22.4749C64.8185 23.1313 63.9283 23.5 63 23.5C62.6022 23.5 62.2206 23.658 61.9393 23.9393C61.658 24.2206 61.5 24.6022 61.5 25C61.5 25.3978 61.658 25.7794 61.9393 26.0607C62.2206 26.342 62.6022 26.5 63 26.5C64.7233 26.498 66.3754 25.8126 67.594 24.594C68.8126 23.3754 69.498 21.7233 69.5 20V9C69.5 8.33696 69.2366 7.70107 68.7678 7.23223C68.2989 6.76339 67.663 6.5 67 6.5ZM66.5 16.5H60V9.5H66.5V16.5Z" fill="white"/>
</g>
<defs>
<clipPath id="clip0_27_685">
<rect width="72" height="32" rx="5" fill="white"/>
</clipPath>
</defs>
</svg>
