<svg width="72" height="32" viewBox="0 0 72 32" fill="none" xmlns="http://www.w3.org/2000/svg">
<g clip-path="url(#clip0_27_4835)">
<path d="M28.7503 3.25625C25.2503 -0.235001 18.9416 0.394999 14.6753 4.6625C10.7016 8.63625 9.88407 14.3837 12.6116 17.9737L8.91657 21.6687L8.83157 21.5837C8.64583 21.3978 8.42525 21.2503 8.18245 21.1496C7.93966 21.049 7.6794 20.9972 7.41657 20.9972C7.15374 20.9972 6.89349 21.049 6.65069 21.1496C6.4079 21.2503 6.18732 21.3978 6.00157 21.5837L2.58657 25C2.40062 25.1857 2.2531 25.4063 2.15245 25.6491C2.05181 25.8919 2 26.1522 2 26.415C2 26.6778 2.05181 26.9381 2.15245 27.1809C2.2531 27.4237 2.40062 27.6443 2.58657 27.83L4.17282 29.4162C4.35855 29.602 4.57904 29.7494 4.82173 29.8499C5.06441 29.9504 5.32452 30.0022 5.5872 30.0022C5.84988 30.0022 6.10999 29.9504 6.35267 29.8499C6.59535 29.7494 6.81585 29.602 7.00157 29.4162L10.4178 26C10.6036 25.8143 10.7509 25.5938 10.8515 25.3511C10.952 25.1084 11.0038 24.8483 11.0038 24.5856C11.0038 24.3229 10.952 24.0628 10.8515 23.8202C10.7509 23.5775 10.6036 23.357 10.4178 23.1712L10.3316 23.085L14.0266 19.39C15.4378 20.4625 17.1816 20.9887 19.0266 20.9887C21.8666 20.9887 24.9328 19.7387 27.3441 17.3262C31.6041 13.0587 32.2353 6.75 28.7503 3.25625ZM28.0291 13H25.0078V9H29.0078C28.9931 10.3908 28.6582 11.7595 28.0291 13ZM17.0003 18.7012C16.1252 18.4389 15.329 17.9633 14.683 17.3173C14.037 16.6714 13.5615 15.8751 13.2991 15H17.0003V18.7012ZM13.0003 13C13.0153 11.6088 13.3515 10.2398 13.9828 9H17.0003V13H13.0003ZM19.0003 9H23.0003V13H19.0003V9ZM28.7091 7H25.0078V3.285C25.8844 3.54788 26.6819 4.02422 27.329 4.6713C27.9761 5.31838 28.4524 6.11596 28.7153 6.9925L28.7091 7ZM22.9816 3H23.0016V7H19.0016V3.97C20.2376 3.34174 21.6014 3.00561 22.9878 2.9875L22.9816 3ZM17.0003 5.2575V6.9925H15.2703C15.5267 6.67274 15.8005 6.36729 16.0903 6.0775C16.3791 5.78839 16.6828 5.51468 17.0003 5.2575ZM19.0003 18.9975V15H23.0003V18.02C21.7622 18.6495 20.3955 18.9848 19.0066 19L19.0003 18.9975ZM25.0003 16.73V15H26.7503C26.4936 15.3195 26.2198 15.6249 25.9303 15.915C25.638 16.2034 25.33 16.4754 25.0078 16.73H25.0003Z" fill="white"/>
<path d="M69.0876 2.9125C67.2563 1.0825 64.6788 0.249997 61.8276 0.566247C59.1013 0.868747 56.4338 2.20125 54.3163 4.31625C52.1988 6.43125 50.8676 9.1 50.5663 11.8275C50.3163 14.1187 50.8026 16.2325 51.9538 17.925L49.4163 20.4637L49.1838 20.2312C48.715 19.7626 48.0793 19.4993 47.4163 19.4993C46.7534 19.4993 46.1177 19.7626 45.6488 20.2312L41.7326 24.1475C41.5003 24.3797 41.3161 24.6553 41.1904 24.9587C41.0647 25.2621 41 25.5872 41 25.9156C41 26.244 41.0647 26.5692 41.1904 26.8726C41.3161 27.1759 41.5003 27.4516 41.7326 27.6837L44.3176 30.2687C44.5498 30.501 44.8254 30.6852 45.1288 30.8109C45.4322 30.9366 45.7573 31.0013 46.0857 31.0013C46.4141 31.0013 46.7393 30.9366 47.0427 30.8109C47.346 30.6852 47.6217 30.501 47.8538 30.2687L51.7676 26.355C51.9998 26.1228 52.1841 25.8472 52.3098 25.5438C52.4355 25.2404 52.5002 24.9153 52.5002 24.5869C52.5002 24.2585 52.4355 23.9333 52.3098 23.6299C52.1841 23.3265 51.9998 23.0509 51.7676 22.8187L51.5351 22.5875L54.0738 20.0487C55.4726 21 57.1601 21.5 59.0001 21.5C59.3919 21.5 59.7833 21.4779 60.1726 21.4337C62.8988 21.1312 65.5663 19.7987 67.6826 17.6837C69.7988 15.5687 71.1326 12.9 71.4326 10.1725C71.7501 7.32125 70.9176 4.75 69.0876 2.9125ZM46.0876 27.7875L44.2126 25.9125L47.4188 22.7062L49.2938 24.5812L46.0876 27.7875ZM56.0001 17.72C55.2922 17.2996 54.7012 16.7082 54.2813 16H56.0001V17.72ZM53.5001 13.0012C53.519 11.6026 53.8786 10.2296 54.5476 9.00125H56.0001V13.0012H53.5001ZM59.0001 9H63.0001V13H59.0001V9ZM66.0001 13V9H68.5001C68.4824 10.3987 68.1232 11.7718 67.4538 13H66.0001ZM67.7188 6H66.0001V4.2825C66.7068 4.70293 67.2972 5.29332 67.7176 6H67.7188ZM62.9776 3.5H63.0001V6H59.0001V4.5425C60.3088 3.8525 61.6851 3.5 62.9776 3.5ZM59.0001 18.5075V16H63.0001V17.4587C61.7721 18.1289 60.3989 18.4889 59.0001 18.5075Z" fill="white"/>
</g>
<defs>
<clipPath id="clip0_27_4835">
<rect width="72" height="32" rx="5" fill="white"/>
</clipPath>
</defs>
</svg>
