<svg width="72" height="32" viewBox="0 0 72 32" fill="none" xmlns="http://www.w3.org/2000/svg">
<g clip-path="url(#clip0_27_3011)">
<path d="M16 3C13.4288 3 10.9154 3.76244 8.77759 5.1909C6.63975 6.61935 4.97351 8.64968 3.98957 11.0251C3.00563 13.4006 2.74819 16.0144 3.2498 18.5362C3.75141 21.0579 4.98953 23.3743 6.80762 25.1924C8.6257 27.0105 10.9421 28.2486 13.4638 28.7502C15.9856 29.2518 18.5995 28.9944 20.9749 28.0104C23.3503 27.0265 25.3807 25.3603 26.8091 23.2224C28.2376 21.0846 29 18.5712 29 16C28.9964 12.5533 27.6256 9.24882 25.1884 6.81163C22.7512 4.37445 19.4467 3.00364 16 3ZM16 27C13.8244 27 11.6977 26.3549 9.88873 25.1462C8.07979 23.9375 6.66989 22.2195 5.83733 20.2095C5.00477 18.1995 4.78693 15.9878 5.21137 13.854C5.63581 11.7202 6.68345 9.7602 8.22183 8.22183C9.76021 6.68345 11.7202 5.6358 13.854 5.21136C15.9878 4.78692 18.1995 5.00476 20.2095 5.83733C22.2195 6.66989 23.9375 8.07979 25.1462 9.88873C26.3549 11.6977 27 13.8244 27 16C26.9967 18.9164 25.8367 21.7123 23.7745 23.7745C21.7123 25.8367 18.9164 26.9967 16 27ZM23 16C23 17.3845 22.5895 18.7378 21.8203 19.889C21.0511 21.0401 19.9579 21.9373 18.6788 22.4672C17.3997 22.997 15.9922 23.1356 14.6344 22.8655C13.2765 22.5954 12.0292 21.9287 11.0503 20.9497C10.0713 19.9708 9.40461 18.7235 9.13451 17.3656C8.86441 16.0078 9.00304 14.6003 9.53285 13.3212C10.0627 12.0421 10.9599 10.9489 12.111 10.1797C13.2622 9.41054 14.6155 9 16 9C17.8559 9.00199 19.6352 9.74012 20.9476 11.0524C22.2599 12.3648 22.998 14.1441 23 16Z" fill="white"/>
<path d="M56 2.5C53.33 2.5 50.7199 3.29176 48.4998 4.77516C46.2797 6.25856 44.5494 8.36697 43.5276 10.8338C42.5058 13.3006 42.2385 16.015 42.7594 18.6337C43.2803 21.2525 44.5661 23.6579 46.4541 25.5459C48.3421 27.434 50.7475 28.7197 53.3663 29.2406C55.985 29.7615 58.6994 29.4942 61.1662 28.4724C63.633 27.4506 65.7414 25.7203 67.2248 23.5002C68.7082 21.2801 69.5 18.67 69.5 16C69.496 12.4208 68.0724 8.98932 65.5416 6.45844C63.0107 3.92756 59.5792 2.50397 56 2.5ZM56 26.5C53.9233 26.5 51.8932 25.8842 50.1665 24.7304C48.4398 23.5767 47.094 21.9368 46.2993 20.0182C45.5046 18.0996 45.2966 15.9884 45.7018 13.9516C46.1069 11.9148 47.1069 10.0438 48.5754 8.57538C50.0438 7.10693 51.9148 6.1069 53.9516 5.70175C55.9884 5.29661 58.0996 5.50454 60.0182 6.29926C61.9368 7.09399 63.5767 8.4398 64.7304 10.1665C65.8842 11.8932 66.5 13.9233 66.5 16C66.497 18.7839 65.3898 21.4528 63.4213 23.4213C61.4529 25.3898 58.7839 26.497 56 26.5ZM56 9C54.6155 9 53.2622 9.41054 52.111 10.1797C50.9599 10.9489 50.0627 12.0421 49.5328 13.3212C49.003 14.6003 48.8644 16.0078 49.1345 17.3656C49.4046 18.7235 50.0713 19.9708 51.0503 20.9497C52.0292 21.9287 53.2765 22.5954 54.6344 22.8655C55.9922 23.1356 57.3997 22.997 58.6788 22.4672C59.9579 21.9373 61.0511 21.0401 61.8203 19.889C62.5895 18.7378 63 17.3845 63 16C62.998 14.1441 62.2599 12.3648 60.9476 11.0524C59.6352 9.74012 57.8559 9.00199 56 9ZM56 20C55.2089 20 54.4355 19.7654 53.7777 19.3259C53.1199 18.8864 52.6072 18.2616 52.3045 17.5307C52.0017 16.7998 51.9225 15.9956 52.0769 15.2196C52.2312 14.4437 52.6122 13.731 53.1716 13.1716C53.731 12.6122 54.4437 12.2312 55.2196 12.0769C55.9956 11.9225 56.7998 12.0017 57.5307 12.3045C58.2616 12.6072 58.8864 13.1199 59.3259 13.7777C59.7654 14.4355 60 15.2089 60 16C60 17.0609 59.5786 18.0783 58.8284 18.8284C58.0783 19.5786 57.0609 20 56 20Z" fill="white"/>
</g>
<defs>
<clipPath id="clip0_27_3011">
<rect width="72" height="32" rx="5" fill="white"/>
</clipPath>
</defs>
</svg>
