<svg width="72" height="32" viewBox="0 0 72 32" fill="none" xmlns="http://www.w3.org/2000/svg">
<g clip-path="url(#clip0_27_690)">
<path d="M27 8.00001H10.8138L24.2875 3.95876C24.5416 3.88251 24.755 3.70844 24.8808 3.47484C25.0066 3.24124 25.0344 2.96725 24.9581 2.71314C24.8819 2.45903 24.7078 2.24561 24.4742 2.11985C24.2406 1.99408 23.9666 1.96626 23.7125 2.04251L3.7125 8.04251C3.50659 8.10432 3.32608 8.23084 3.19774 8.40331C3.0694 8.57579 3.00006 8.78503 3 9.00001V24C3 24.5304 3.21071 25.0392 3.58579 25.4142C3.96086 25.7893 4.46957 26 5 26H27C27.5304 26 28.0391 25.7893 28.4142 25.4142C28.7893 25.0392 29 24.5304 29 24V10C29 9.46958 28.7893 8.96087 28.4142 8.5858C28.0391 8.21073 27.5304 8.00001 27 8.00001ZM13 22H8C7.73478 22 7.48043 21.8947 7.29289 21.7071C7.10536 21.5196 7 21.2652 7 21C7 20.7348 7.10536 20.4804 7.29289 20.2929C7.48043 20.1054 7.73478 20 8 20H13C13.2652 20 13.5196 20.1054 13.7071 20.2929C13.8946 20.4804 14 20.7348 14 21C14 21.2652 13.8946 21.5196 13.7071 21.7071C13.5196 21.8947 13.2652 22 13 22ZM13 18H8C7.73478 18 7.48043 17.8947 7.29289 17.7071C7.10536 17.5196 7 17.2652 7 17C7 16.7348 7.10536 16.4804 7.29289 16.2929C7.48043 16.1054 7.73478 16 8 16H13C13.2652 16 13.5196 16.1054 13.7071 16.2929C13.8946 16.4804 14 16.7348 14 17C14 17.2652 13.8946 17.5196 13.7071 17.7071C13.5196 17.8947 13.2652 18 13 18ZM13 14H8C7.73478 14 7.48043 13.8947 7.29289 13.7071C7.10536 13.5196 7 13.2652 7 13C7 12.7348 7.10536 12.4804 7.29289 12.2929C7.48043 12.1054 7.73478 12 8 12H13C13.2652 12 13.5196 12.1054 13.7071 12.2929C13.8946 12.4804 14 12.7348 14 13C14 13.2652 13.8946 13.5196 13.7071 13.7071C13.5196 13.8947 13.2652 14 13 14ZM21 21C20.2089 21 19.4355 20.7654 18.7777 20.3259C18.1199 19.8864 17.6072 19.2616 17.3045 18.5307C17.0017 17.7998 16.9225 16.9956 17.0769 16.2197C17.2312 15.4437 17.6122 14.731 18.1716 14.1716C18.731 13.6122 19.4437 13.2312 20.2196 13.0769C20.9956 12.9225 21.7998 13.0017 22.5307 13.3045C23.2616 13.6072 23.8864 14.1199 24.3259 14.7777C24.7654 15.4355 25 16.2089 25 17C25 18.0609 24.5786 19.0783 23.8284 19.8284C23.0783 20.5786 22.0609 21 21 21Z" fill="white"/>
<path d="M60 21.5C60.89 21.5 61.76 21.2361 62.5001 20.7416C63.2401 20.2472 63.8169 19.5443 64.1575 18.7221C64.4981 17.8998 64.5872 16.995 64.4135 16.1221C64.2399 15.2492 63.8113 14.4474 63.182 13.818C62.5526 13.1887 61.7508 12.7601 60.8779 12.5865C60.005 12.4128 59.1002 12.502 58.2779 12.8425C57.4557 13.1831 56.7529 13.7599 56.2584 14.4999C55.7639 15.24 55.5 16.11 55.5 17C55.5 18.1935 55.9741 19.3381 56.818 20.182C57.6619 21.0259 58.8065 21.5 60 21.5ZM60 15.5C60.2967 15.5 60.5867 15.588 60.8334 15.7528C61.08 15.9176 61.2723 16.1519 61.3858 16.426C61.4993 16.7001 61.5291 17.0017 61.4712 17.2926C61.4133 17.5836 61.2704 17.8509 61.0607 18.0607C60.8509 18.2704 60.5836 18.4133 60.2926 18.4712C60.0017 18.5291 59.7001 18.4994 59.426 18.3858C59.1519 18.2723 58.9176 18.08 58.7528 17.8334C58.588 17.5867 58.5 17.2967 58.5 17C58.5 16.6022 58.658 16.2206 58.9393 15.9393C59.2206 15.658 59.6022 15.5 60 15.5ZM67 7.5H54.22L64.4312 4.4375C64.8125 4.32313 65.1327 4.06199 65.3214 3.71153C65.5101 3.36107 65.5519 2.95 65.4375 2.56875C65.3231 2.1875 65.062 1.86731 64.7115 1.6786C64.3611 1.48989 63.95 1.44813 63.5688 1.5625L43.5688 7.5625C43.2597 7.65528 42.9888 7.84525 42.7962 8.10421C42.6037 8.36317 42.4998 8.67731 42.5 9V24C42.5 24.663 42.7634 25.2989 43.2322 25.7678C43.7011 26.2366 44.337 26.5 45 26.5H67C67.663 26.5 68.2989 26.2366 68.7678 25.7678C69.2366 25.2989 69.5 24.663 69.5 24V10C69.5 9.33696 69.2366 8.70108 68.7678 8.23224C68.2989 7.7634 67.663 7.5 67 7.5ZM66.5 23.5H45.5V10.5H66.5V23.5ZM47.5 14.5C47.5 14.1022 47.658 13.7206 47.9393 13.4393C48.2206 13.158 48.6022 13 49 13H52C52.3978 13 52.7794 13.158 53.0607 13.4393C53.342 13.7206 53.5 14.1022 53.5 14.5C53.5 14.8978 53.342 15.2794 53.0607 15.5607C52.7794 15.842 52.3978 16 52 16H49C48.6022 16 48.2206 15.842 47.9393 15.5607C47.658 15.2794 47.5 14.8978 47.5 14.5ZM47.5 19.5C47.5 19.1022 47.658 18.7206 47.9393 18.4393C48.2206 18.158 48.6022 18 49 18H52C52.3978 18 52.7794 18.158 53.0607 18.4393C53.342 18.7206 53.5 19.1022 53.5 19.5C53.5 19.8978 53.342 20.2794 53.0607 20.5607C52.7794 20.842 52.3978 21 52 21H49C48.6022 21 48.2206 20.842 47.9393 20.5607C47.658 20.2794 47.5 19.8978 47.5 19.5Z" fill="white"/>
</g>
<defs>
<clipPath id="clip0_27_690">
<rect width="72" height="32" rx="5" fill="white"/>
</clipPath>
</defs>
</svg>
