<svg width="72" height="32" viewBox="0 0 72 32" fill="none" xmlns="http://www.w3.org/2000/svg">
<g clip-path="url(#clip0_27_1988)">
<path d="M26 4H6C5.46957 4 4.96086 4.21071 4.58579 4.58579C4.21071 4.96086 4 5.46957 4 6V26C4 26.5304 4.21071 27.0391 4.58579 27.4142C4.96086 27.7893 5.46957 28 6 28H26C26.5304 28 27.0391 27.7893 27.4142 27.4142C27.7893 27.0391 28 26.5304 28 26V6C28 5.46957 27.7893 4.96086 27.4142 4.58579C27.0391 4.21071 26.5304 4 26 4ZM26 14C26 14.2652 25.8946 14.5196 25.7071 14.7071C25.5196 14.8946 25.2652 15 25 15C24.7348 15 24.4804 14.8946 24.2929 14.7071C24.1054 14.5196 24 14.2652 24 14V13H15.6775L11.9275 22.375C11.8534 22.5607 11.7252 22.72 11.5597 22.8322C11.3941 22.9443 11.1987 23.0043 10.9987 23.0043C10.7988 23.0043 10.6034 22.9443 10.4378 22.8322C10.2723 22.72 10.1441 22.5607 10.07 22.375L6.07 12.375C6.02075 12.253 5.99603 12.1224 5.99724 11.9908C5.99845 11.8592 6.02556 11.7291 6.07704 11.608C6.12852 11.4869 6.20335 11.3771 6.29726 11.2849C6.39118 11.1927 6.50233 11.1199 6.62437 11.0706C6.74642 11.0214 6.87697 10.9967 7.00858 10.9979C7.14018 10.9991 7.27026 11.0262 7.39138 11.0777C7.5125 11.1291 7.6223 11.204 7.7145 11.2979C7.8067 11.3918 7.8795 11.503 7.92875 11.625L11 19.3075L14.0712 11.625C14.1461 11.4401 14.2745 11.2817 14.44 11.1704C14.6055 11.059 14.8005 10.9997 15 11H25C25.2652 11 25.5196 11.1054 25.7071 11.2929C25.8946 11.4804 26 11.7348 26 12V14Z" fill="white"/>
<path d="M71.5 10V13C71.5 13.3978 71.342 13.7794 71.0607 14.0607C70.7794 14.342 70.3978 14.5 70 14.5C69.6022 14.5 69.2207 14.342 68.9394 14.0607C68.6581 13.7794 68.5 13.3978 68.5 13V11.5H57.04L51.405 26.5263C51.2978 26.8121 51.1058 27.0584 50.8549 27.2322C50.604 27.4061 50.3059 27.4993 50.0006 27.4993C49.6954 27.4993 49.3973 27.4061 49.1464 27.2322C48.8954 27.0584 48.7035 26.8121 48.5963 26.5263L42.5963 10.5263C42.5253 10.3415 42.4916 10.1444 42.4972 9.94656C42.5027 9.74868 42.5474 9.55386 42.6286 9.37332C42.7098 9.19278 42.8259 9.0301 42.9702 8.89465C43.1146 8.7592 43.2844 8.65367 43.4697 8.58414C43.655 8.51461 43.8523 8.48244 44.0501 8.48951C44.248 8.49658 44.4424 8.54273 44.6223 8.62532C44.8023 8.7079 44.964 8.82527 45.0984 8.97068C45.2327 9.11608 45.3369 9.28663 45.405 9.4725L50 21.7225L54.5963 9.4725C54.7036 9.18687 54.8954 8.94075 55.1462 8.76699C55.3971 8.59323 55.6949 8.50009 56 8.5H70C70.3978 8.5 70.7794 8.65804 71.0607 8.93934C71.342 9.22065 71.5 9.60218 71.5 10Z" fill="white"/>
</g>
<defs>
<clipPath id="clip0_27_1988">
<rect width="72" height="32" rx="5" fill="white"/>
</clipPath>
</defs>
</svg>
