<svg width="72" height="32" viewBox="0 0 72 32" fill="none" xmlns="http://www.w3.org/2000/svg">
<g clip-path="url(#clip0_27_4439)">
<path d="M14.5003 16C14.5003 15.7033 14.5883 15.4133 14.7531 15.1666C14.9179 14.92 15.1522 14.7277 15.4263 14.6142C15.7004 14.5006 16.002 14.4709 16.2929 14.5288C16.5839 14.5867 16.8512 14.7296 17.061 14.9393C17.2707 15.1491 17.4136 15.4164 17.4715 15.7074C17.5294 15.9983 17.4996 16.2999 17.3861 16.574C17.2726 16.8481 17.0803 17.0824 16.8336 17.2472C16.587 17.412 16.297 17.5 16.0003 17.5C15.6025 17.5 15.2209 17.342 14.9396 17.0607C14.6583 16.7794 14.5003 16.3978 14.5003 16ZM12.5278 16.4387C12.5098 16.2932 12.5006 16.1467 12.5003 16C12.5001 15.3156 12.7006 14.6461 13.077 14.0745C13.4533 13.5028 13.989 13.0541 14.6178 12.7837C14.6823 12.7557 14.7401 12.7143 14.7875 12.6623C14.8348 12.6104 14.8707 12.549 14.8928 12.4822C14.9149 12.4155 14.9226 12.3448 14.9155 12.2748C14.9084 12.2049 14.8866 12.1372 14.8515 12.0762L11.344 6C11.2051 5.75897 11.0173 5.5496 10.7928 5.38526C10.5683 5.22092 10.312 5.10523 10.0402 5.04558C9.76846 4.98594 9.48725 4.98365 9.21456 5.03886C8.94187 5.09408 8.68369 5.20558 8.45655 5.36625C6.91887 6.45029 5.63525 7.85568 4.69462 9.48504C3.754 11.1144 3.17886 12.9288 3.00905 14.8025C2.984 15.0823 3.01741 15.3642 3.10714 15.6304C3.19688 15.8966 3.34098 16.1412 3.5303 16.3487C3.71693 16.5531 3.94394 16.7165 4.19697 16.8286C4.45 16.9407 4.72355 16.9991 5.0003 17H12.0328C12.1035 16.9998 12.1734 16.9846 12.2378 16.9555C12.3023 16.9263 12.3598 16.8838 12.4066 16.8307C12.4533 16.7777 12.4883 16.7153 12.5092 16.6477C12.5301 16.5802 12.5365 16.5089 12.5278 16.4387ZM28.9915 14.8025C28.8217 12.9288 28.2466 11.1144 27.306 9.48504C26.3653 7.85568 25.0817 6.45029 23.544 5.36625C23.3169 5.20558 23.0587 5.09408 22.786 5.03886C22.5133 4.98365 22.2321 4.98594 21.9604 5.04558C21.6886 5.10523 21.4323 5.22092 21.2078 5.38526C20.9833 5.5496 20.7955 5.75897 20.6565 6L17.149 12.0762C17.114 12.1372 17.0922 12.2049 17.0851 12.2748C17.078 12.3448 17.0857 12.4155 17.1078 12.4822C17.1299 12.549 17.1657 12.6104 17.2131 12.6623C17.2605 12.7143 17.3183 12.7557 17.3828 12.7837C18.0116 13.0541 18.5473 13.5028 18.9236 14.0745C19.3 14.6461 19.5005 15.3156 19.5003 16C19.5 16.1467 19.4908 16.2932 19.4728 16.4387C19.4641 16.5094 19.4705 16.581 19.4917 16.6489C19.5129 16.7169 19.5484 16.7795 19.5957 16.8326C19.643 16.8857 19.7011 16.9281 19.7662 16.957C19.8312 16.9859 19.9016 17.0005 19.9728 17H27.0003C27.277 16.9991 27.5506 16.9407 27.8036 16.8286C28.0567 16.7165 28.2837 16.5531 28.4703 16.3487C28.6596 16.1412 28.8037 15.8966 28.8934 15.6304C28.9832 15.3642 29.0166 15.0823 28.9915 14.8025ZM18.8503 18.935C18.8145 18.8734 18.7659 18.8201 18.7078 18.7788C18.6497 18.7375 18.5835 18.7091 18.5135 18.6955C18.4436 18.6819 18.3715 18.6834 18.3022 18.6999C18.2329 18.7164 18.1679 18.7476 18.1115 18.7912C17.5037 19.251 16.7624 19.4997 16.0003 19.4997C15.2382 19.4997 14.4969 19.251 13.889 18.7912C13.8327 18.7476 13.7677 18.7164 13.6984 18.6999C13.6291 18.6834 13.557 18.6819 13.4871 18.6955C13.4171 18.7091 13.3509 18.7375 13.2928 18.7788C13.2347 18.8201 13.1861 18.8734 13.1503 18.935L9.65655 24.9887C9.51758 25.2292 9.43022 25.496 9.40003 25.7721C9.36985 26.0482 9.3975 26.3276 9.48122 26.5924C9.56495 26.8572 9.70292 27.1017 9.88633 27.3102C10.0697 27.5188 10.2946 27.6869 10.5465 27.8037C12.2567 28.5919 14.1173 29 16.0003 29C17.8833 29 19.7439 28.5919 21.454 27.8037C21.706 27.6869 21.9308 27.5188 22.1143 27.3102C22.2977 27.1017 22.4356 26.8572 22.5194 26.5924C22.6031 26.3276 22.6307 26.0482 22.6006 25.7721C22.5704 25.496 22.483 25.2292 22.344 24.9887L18.8503 18.935Z" fill="white"/>
<path d="M56.0004 14C56.3959 14 56.7826 14.1173 57.1115 14.3371C57.4404 14.5568 57.6967 14.8692 57.8481 15.2346C57.9995 15.6001 58.0391 16.0022 57.9619 16.3902C57.8848 16.7781 57.6943 17.1345 57.4146 17.4142C57.1349 17.6939 56.7785 17.8844 56.3905 17.9616C56.0026 18.0387 55.6004 17.9991 55.235 17.8478C54.8695 17.6964 54.5572 17.44 54.3374 17.1111C54.1177 16.7822 54.0004 16.3956 54.0004 16C54.0004 15.4696 54.2111 14.9609 54.5861 14.5858C54.9612 14.2107 55.4699 14 56.0004 14ZM52.0004 16C52.0004 15.6022 51.8423 15.2206 51.561 14.9393C51.2797 14.658 50.8982 14.5 50.5004 14.5H45.5591C45.9399 11.8274 47.3369 9.40469 49.4591 7.73625L51.9229 12C52.0194 12.1744 52.1496 12.3278 52.3061 12.4512C52.4625 12.5747 52.642 12.6657 52.834 12.719C53.026 12.7723 53.2267 12.7868 53.4244 12.7617C53.6221 12.7366 53.8128 12.6723 53.9854 12.5727C54.158 12.473 54.309 12.3399 54.4296 12.1813C54.5501 12.0226 54.6379 11.8415 54.6877 11.6485C54.7375 11.4556 54.7484 11.2546 54.7196 11.0574C54.6909 10.8602 54.6232 10.6707 54.5204 10.5L51.7704 5.75C51.5966 5.44878 51.362 5.18712 51.0814 4.98172C50.8009 4.77633 50.4805 4.63172 50.1409 4.55713C49.8013 4.48255 49.4499 4.47964 49.109 4.54857C48.7682 4.61751 48.4455 4.75678 48.1616 4.9575C46.5648 6.08343 45.2317 7.54302 44.2549 9.23517C43.278 10.9273 42.6806 12.8116 42.5041 14.7575C42.473 15.1066 42.5149 15.4583 42.627 15.7903C42.7391 16.1224 42.919 16.4275 43.1554 16.6862C43.3895 16.9426 43.6745 17.1473 43.9922 17.2874C44.3098 17.4275 44.6532 17.4999 45.0004 17.5H50.5004C50.8982 17.5 51.2797 17.342 51.561 17.0607C51.8423 16.7794 52.0004 16.3978 52.0004 16ZM69.4904 14.7575C69.314 12.8117 68.7167 10.9276 67.7398 9.23561C66.7629 7.54364 65.4298 6.08431 63.8329 4.95875C63.549 4.75798 63.2264 4.61863 62.8856 4.54961C62.5449 4.48058 62.1935 4.48338 61.8538 4.55784C61.5142 4.63231 61.1939 4.77679 60.9133 4.98206C60.6326 5.18734 60.3979 5.44888 60.2241 5.75L57.4804 10.5C57.29 10.8439 57.2423 11.2488 57.3475 11.6276C57.4526 12.0064 57.7023 12.3287 58.0427 12.5253C58.3831 12.7218 58.787 12.7769 59.1677 12.6787C59.5483 12.5805 59.8751 12.3368 60.0779 12L62.5416 7.73375C64.6644 9.4028 66.0614 11.8265 66.4416 14.5H61.5004C61.1025 14.5 60.721 14.658 60.4397 14.9393C60.1584 15.2206 60.0004 15.6022 60.0004 16C60.0004 16.3978 60.1584 16.7794 60.4397 17.0607C60.721 17.342 61.1025 17.5 61.5004 17.5H67.0004C67.3465 17.499 67.6886 17.4262 68.0052 17.2861C68.3217 17.1461 68.6056 16.9418 68.8391 16.6862C69.0755 16.4275 69.2554 16.1224 69.3675 15.7903C69.4796 15.4583 69.5215 15.1066 69.4904 14.7575ZM60.0504 20.0137C59.8514 19.6691 59.5238 19.4176 59.1395 19.3146C58.7551 19.2116 58.3456 19.2655 58.001 19.4644C57.6564 19.6633 57.4049 19.9909 57.3019 20.3753C57.1988 20.7596 57.2527 21.1691 57.4516 21.5137L59.8991 25.75C57.3955 26.7467 54.6052 26.7467 52.1016 25.75L54.5491 21.5112C54.748 21.1666 54.8019 20.7571 54.6989 20.3728C54.5958 19.9884 54.3444 19.6608 53.9997 19.4619C53.6551 19.263 53.2456 19.2091 52.8613 19.3121C52.4769 19.4151 52.1493 19.6666 51.9504 20.0112L49.2229 24.7362C49.0492 25.0369 48.9401 25.3705 48.9024 25.7156C48.8648 26.0608 48.8994 26.4101 49.0042 26.7411C49.109 27.0721 49.2816 27.3777 49.511 27.6384C49.7404 27.899 50.0216 28.109 50.3366 28.255C52.1126 29.0736 54.0448 29.4975 56.0004 29.4975C57.9559 29.4975 59.8882 29.0736 61.6641 28.255C61.9792 28.109 62.2603 27.899 62.4897 27.6384C62.7191 27.3777 62.8917 27.0721 62.9965 26.7411C63.1013 26.4101 63.136 26.0608 63.0983 25.7156C63.0607 25.3705 62.9515 25.0369 62.7779 24.7362L60.0504 20.0137Z" fill="white"/>
</g>
<defs>
<clipPath id="clip0_27_4439">
<rect width="72" height="32" rx="5" fill="white"/>
</clipPath>
</defs>
</svg>
