<svg width="72" height="32" viewBox="0 0 72 32" fill="none" xmlns="http://www.w3.org/2000/svg">
<g clip-path="url(#clip0_27_2254)">
<path d="M31 20C30.9983 21.5908 30.3657 23.116 29.2408 24.2408C28.116 25.3657 26.5908 25.9983 25 26H19C16.7937 26 15 24.1562 15 21.8887C15 19.6212 16.7937 17.7775 19 17.7775C19.1395 17.7775 19.2788 17.785 19.4175 17.8C19.9296 16.5 20.8793 15.4195 22.1028 14.7448C23.3263 14.0702 24.747 13.8437 26.1196 14.1044C27.4923 14.3651 28.7309 15.0967 29.6219 16.173C30.5128 17.2493 31.0002 18.6028 31 20ZM14 9C16.8653 8.99424 19.6185 10.1122 21.6688 12.1137C21.8601 12.292 22.1137 12.3882 22.3751 12.3817C22.6366 12.3752 22.8851 12.2666 23.0674 12.079C23.2496 11.8915 23.3512 11.64 23.3503 11.3785C23.3494 11.117 23.2461 10.8662 23.0625 10.68C21.2303 8.89846 18.9136 7.69648 16.402 7.22429C13.8904 6.75211 11.2953 7.03066 8.94119 8.02514C6.58704 9.01962 4.57822 10.6859 3.16582 12.8157C1.75342 14.9455 1.00009 17.4444 1 20V22C1 22.2652 1.10536 22.5196 1.29289 22.7071C1.48043 22.8946 1.73478 23 2 23C2.26522 23 2.51957 22.8946 2.70711 22.7071C2.89464 22.5196 3 22.2652 3 22V20C3.00331 17.0836 4.1633 14.2877 6.22548 12.2255C8.28766 10.1633 11.0836 9.00331 14 9ZM14 13C15.49 12.9959 16.9419 13.4709 18.1413 14.355C18.2456 14.4448 18.3673 14.5122 18.4989 14.5528C18.6304 14.5934 18.7689 14.6063 18.9057 14.5909C19.0425 14.5755 19.1747 14.532 19.2939 14.4632C19.4131 14.3943 19.5168 14.3016 19.5986 14.1908C19.6803 14.08 19.7382 13.9535 19.7688 13.8193C19.7994 13.685 19.8019 13.5459 19.7762 13.4107C19.7505 13.2754 19.6972 13.1469 19.6196 13.0333C19.5419 12.9196 19.4416 12.8231 19.325 12.75C17.9843 11.7661 16.3972 11.1728 14.7399 11.0361C13.0825 10.8994 11.4197 11.2246 9.93588 11.9755C8.4521 12.7265 7.20539 13.8738 6.33411 15.2903C5.46283 16.7068 5.00104 18.337 5 20V22C5 22.2652 5.10536 22.5196 5.29289 22.7071C5.48043 22.8946 5.73478 23 6 23C6.26522 23 6.51957 22.8946 6.70711 22.7071C6.89464 22.5196 7 22.2652 7 22V20C7.00199 18.1441 7.74012 16.3648 9.05245 15.0524C10.3648 13.7401 12.1441 13.002 14 13ZM15.9012 16.3387C15.9315 16.211 15.9364 16.0784 15.9155 15.9488C15.8945 15.8191 15.8483 15.6949 15.7793 15.5831C15.7104 15.4713 15.6201 15.3742 15.5136 15.2973C15.4071 15.2204 15.2865 15.1653 15.1587 15.135C14.4241 14.96 13.6593 14.9536 12.9218 15.1165C12.1843 15.2794 11.4933 15.6072 10.9007 16.0753C10.308 16.5435 9.82913 17.1398 9.49994 17.8195C9.17075 18.4993 8.99983 19.2448 9 20V22C9 22.2652 9.10536 22.5196 9.29289 22.7071C9.48043 22.8946 9.73478 23 10 23C10.2652 23 10.5196 22.8946 10.7071 22.7071C10.8946 22.5196 11 22.2652 11 22V20C10.9999 19.5468 11.1025 19.0994 11.3001 18.6915C11.4977 18.2836 11.7851 17.9258 12.1408 17.6449C12.4965 17.364 12.9112 17.1674 13.3538 17.0697C13.7964 16.9721 14.2554 16.9761 14.6962 17.0812C14.8241 17.1117 14.9568 17.1167 15.0866 17.0959C15.2164 17.075 15.3408 17.0288 15.4527 16.9599C15.5646 16.8909 15.6619 16.8005 15.7388 16.694C15.8158 16.5874 15.871 16.4667 15.9012 16.3387Z" fill="white"/>
<path d="M65.5 13.5C64.2585 13.5033 63.0437 13.8606 61.998 14.5299C60.9523 15.1992 60.1192 16.1527 59.5963 17.2787H59.5C57.0187 17.2787 55 19.3475 55 21.89C55 24.4325 57.0187 26.5 59.5 26.5H65.5C67.2239 26.5 68.8772 25.8152 70.0962 24.5962C71.3152 23.3772 72 21.7239 72 20C72 18.2761 71.3152 16.6228 70.0962 15.4038C68.8772 14.1848 67.2239 13.5 65.5 13.5ZM65.5 23.5H59.5C58.6725 23.5 58 22.7775 58 21.8887C58 21 58.6725 20.2775 59.5 20.2775C59.6827 20.2768 59.8637 20.3125 60.0325 20.3825C60.2368 20.4662 60.457 20.5038 60.6775 20.4926C60.898 20.4814 61.1133 20.4217 61.308 20.3177C61.5027 20.2137 61.6721 20.068 61.804 19.891C61.936 19.714 62.0272 19.5101 62.0713 19.2937C62.2048 18.6454 62.5195 18.0483 62.9788 17.5716C63.4381 17.0949 64.0231 16.7582 64.666 16.6006C65.309 16.443 65.9834 16.471 66.6111 16.6813C67.2387 16.8916 67.7939 17.2755 68.2121 17.7886C68.6304 18.3017 68.8945 18.9228 68.974 19.58C69.0534 20.2372 68.9448 20.9034 68.6609 21.5013C68.377 22.0993 67.9293 22.6045 67.3698 22.9582C66.8103 23.312 66.1619 23.4999 65.5 23.5ZM53.6525 17.105C53.8962 17.4192 54.0051 17.8172 53.9554 18.2117C53.9057 18.6062 53.7015 18.9648 53.3875 19.2087C53.2668 19.3023 53.1691 19.4222 53.1019 19.5594C53.0347 19.6966 52.9999 19.8473 53 20V22C53 22.3978 52.842 22.7794 52.5607 23.0607C52.2794 23.342 51.8978 23.5 51.5 23.5C51.1022 23.5 50.7206 23.342 50.4393 23.0607C50.158 22.7794 50 22.3978 50 22V20C49.9981 19.3898 50.1367 18.7874 50.4051 18.2394C50.6734 17.6915 51.0643 17.2126 51.5475 16.84C51.7031 16.7192 51.881 16.6302 52.071 16.5781C52.261 16.526 52.4594 16.5118 52.6549 16.5365C52.8504 16.5611 53.0391 16.6239 53.2103 16.7215C53.3814 16.819 53.5317 16.9494 53.6525 17.105ZM57.0825 14.855C56.1721 14.3099 55.1335 14.0159 54.0724 14.0031C53.0114 13.9903 51.966 14.2591 51.0427 14.7821C50.1194 15.3051 49.3514 16.0636 48.8168 16.9802C48.2823 17.8969 48.0005 18.9389 48 20V22C48 22.3978 47.842 22.7794 47.5607 23.0607C47.2794 23.342 46.8978 23.5 46.5 23.5C46.1022 23.5 45.7206 23.342 45.4393 23.0607C45.158 22.7794 45 22.3978 45 22V20C44.9999 18.4078 45.4222 16.8441 46.2238 15.4684C47.0253 14.0928 48.1775 12.9544 49.5627 12.1694C50.9479 11.3844 52.5166 10.9809 54.1086 11.0001C55.7007 11.0193 57.2591 11.4605 58.625 12.2787C58.9661 12.4835 59.212 12.8153 59.3084 13.2013C59.4049 13.5873 59.3441 13.9957 59.1394 14.3369C58.9347 14.678 58.6028 14.9238 58.2168 15.0203C57.8309 15.1168 57.4224 15.056 57.0812 14.8512L57.0825 14.855ZM43 20V22C43 22.3978 42.842 22.7794 42.5607 23.0607C42.2794 23.342 41.8978 23.5 41.5 23.5C41.1022 23.5 40.7206 23.342 40.4393 23.0607C40.158 22.7794 40 22.3978 40 22V20C39.9999 17.3143 40.7723 14.6853 42.225 12.4264C43.6778 10.1676 45.7496 8.37425 48.1934 7.26034C50.6371 6.14642 53.3498 5.75893 56.0077 6.14407C58.6656 6.52921 61.1567 7.67074 63.1838 9.4325C63.4839 9.69357 63.6681 10.0632 63.6958 10.4601C63.7235 10.8569 63.5923 11.2486 63.3312 11.5487C63.0702 11.8489 62.7005 12.0331 62.3037 12.0608C61.9068 12.0884 61.5152 11.9573 61.215 11.6962C59.6222 10.3122 57.665 9.41552 55.5767 9.11307C53.4884 8.81062 51.3571 9.1152 49.4371 9.99047C47.5172 10.8657 45.8894 12.2748 44.7481 14.0496C43.6067 15.8243 42.9999 17.8899 43 20Z" fill="white"/>
</g>
<defs>
<clipPath id="clip0_27_2254">
<rect width="72" height="32" rx="5" fill="white"/>
</clipPath>
</defs>
</svg>
