<svg width="72" height="32" viewBox="0 0 72 32" fill="none" xmlns="http://www.w3.org/2000/svg">
<g clip-path="url(#clip0_27_2249)">
<path d="M16 6C12.0231 6.0043 8.21026 7.58604 5.39815 10.3981C2.58604 13.2103 1.0043 17.0231 1 21V23C1 23.2652 1.10536 23.5196 1.29289 23.7071C1.48043 23.8946 1.73478 24 2 24H30C30.2652 24 30.5196 23.8946 30.7071 23.7071C30.8946 23.5196 31 23.2652 31 23V21C30.9957 17.0231 29.414 13.2103 26.6019 10.3981C23.7897 7.58604 19.9769 6.0043 16 6ZM20 22C19.7348 22 19.4804 21.8946 19.2929 21.7071C19.1054 21.5196 19 21.2652 19 21C19 20.2044 18.6839 19.4413 18.1213 18.8787C17.5587 18.3161 16.7956 18 16 18C15.2044 18 14.4413 18.3161 13.8787 18.8787C13.3161 19.4413 13 20.2044 13 21C13 21.2652 12.8946 21.5196 12.7071 21.7071C12.5196 21.8946 12.2652 22 12 22C11.7348 22 11.4804 21.8946 11.2929 21.7071C11.1054 21.5196 11 21.2652 11 21C11 19.6739 11.5268 18.4021 12.4645 17.4645C13.4021 16.5268 14.6739 16 16 16C17.3261 16 18.5979 16.5268 19.5355 17.4645C20.4732 18.4021 21 19.6739 21 21C21 21.2652 20.8946 21.5196 20.7071 21.7071C20.5196 21.8946 20.2652 22 20 22ZM24 22C23.7348 22 23.4804 21.8946 23.2929 21.7071C23.1054 21.5196 23 21.2652 23 21C23 19.1435 22.2625 17.363 20.9497 16.0503C19.637 14.7375 17.8565 14 16 14C14.1435 14 12.363 14.7375 11.0503 16.0503C9.7375 17.363 9 19.1435 9 21C9 21.2652 8.89464 21.5196 8.70711 21.7071C8.51957 21.8946 8.26522 22 8 22C7.73478 22 7.48043 21.8946 7.29289 21.7071C7.10536 21.5196 7 21.2652 7 21C7 18.6131 7.94821 16.3239 9.63604 14.636C11.3239 12.9482 13.6131 12 16 12C18.3869 12 20.6761 12.9482 22.364 14.636C24.0518 16.3239 25 18.6131 25 21C25 21.2652 24.8946 21.5196 24.7071 21.7071C24.5196 21.8946 24.2652 22 24 22ZM28 22C27.7348 22 27.4804 21.8946 27.2929 21.7071C27.1054 21.5196 27 21.2652 27 21C27 18.0826 25.8411 15.2847 23.7782 13.2218C21.7153 11.1589 18.9174 10 16 10C13.0826 10 10.2847 11.1589 8.22183 13.2218C6.15893 15.2847 5 18.0826 5 21C5 21.2652 4.89464 21.5196 4.70711 21.7071C4.51957 21.8946 4.26522 22 4 22C3.73478 22 3.48043 21.8946 3.29289 21.7071C3.10536 21.5196 3 21.2652 3 21C3 17.5522 4.36964 14.2456 6.80761 11.8076C9.24558 9.36964 12.5522 8 16 8C19.4478 8 22.7544 9.36964 25.1924 11.8076C27.6304 14.2456 29 17.5522 29 21C29 21.2652 28.8946 21.5196 28.7071 21.7071C28.5196 21.8946 28.2652 22 28 22Z" fill="white"/>
<path d="M72 21.5V22.5C72 22.8978 71.842 23.2794 71.5607 23.5607C71.2794 23.842 70.8978 24 70.5 24C70.1022 24 69.7206 23.842 69.4393 23.5607C69.158 23.2794 69 22.8978 69 22.5V21.5C69 18.0522 67.6304 14.7456 65.1924 12.3076C62.7544 9.86964 59.4478 8.5 56 8.5C52.5522 8.5 49.2456 9.86964 46.8076 12.3076C44.3696 14.7456 43 18.0522 43 21.5V22.5C43 22.8978 42.842 23.2794 42.5607 23.5607C42.2794 23.842 41.8978 24 41.5 24C41.1022 24 40.7206 23.842 40.4393 23.5607C40.158 23.2794 40 22.8978 40 22.5V21.5C40 17.2565 41.6857 13.1869 44.6863 10.1863C47.6869 7.18571 51.7565 5.5 56 5.5C60.2435 5.5 64.3131 7.18571 67.3137 10.1863C70.3143 13.1869 72 17.2565 72 21.5ZM56 17.5C54.8065 17.5 53.6619 17.9741 52.818 18.818C51.9741 19.6619 51.5 20.8065 51.5 22V22.5C51.5 22.8978 51.658 23.2794 51.9393 23.5607C52.2206 23.842 52.6022 24 53 24C53.3978 24 53.7794 23.842 54.0607 23.5607C54.342 23.2794 54.5 22.8978 54.5 22.5V22C54.5 21.6022 54.658 21.2206 54.9393 20.9393C55.2206 20.658 55.6022 20.5 56 20.5C56.3978 20.5 56.7794 20.658 57.0607 20.9393C57.342 21.2206 57.5 21.6022 57.5 22V22.5C57.5 22.8978 57.658 23.2794 57.9393 23.5607C58.2206 23.842 58.6022 24 59 24C59.3978 24 59.7794 23.842 60.0607 23.5607C60.342 23.2794 60.5 22.8978 60.5 22.5V22C60.5 20.8065 60.0259 19.6619 59.182 18.818C58.3381 17.9741 57.1935 17.5 56 17.5ZM56 11.5C53.2161 11.503 50.5472 12.6102 48.5787 14.5787C46.6102 16.5472 45.503 19.2161 45.5 22V22.5C45.5 22.8978 45.658 23.2794 45.9393 23.5607C46.2206 23.842 46.6022 24 47 24C47.3978 24 47.7794 23.842 48.0607 23.5607C48.342 23.2794 48.5 22.8978 48.5 22.5V22C48.5 20.0109 49.2902 18.1032 50.6967 16.6967C52.1032 15.2902 54.0109 14.5 56 14.5C57.9891 14.5 59.8968 15.2902 61.3033 16.6967C62.7098 18.1032 63.5 20.0109 63.5 22V22.5C63.5 22.8978 63.658 23.2794 63.9393 23.5607C64.2206 23.842 64.6022 24 65 24C65.3978 24 65.7794 23.842 66.0607 23.5607C66.342 23.2794 66.5 22.8978 66.5 22.5V22C66.497 19.2161 65.3898 16.5472 63.4213 14.5787C61.4528 12.6102 58.7839 11.503 56 11.5Z" fill="white"/>
</g>
<defs>
<clipPath id="clip0_27_2249">
<rect width="72" height="32" rx="5" fill="white"/>
</clipPath>
</defs>
</svg>
