<svg width="72" height="32" viewBox="0 0 72 32" fill="none" xmlns="http://www.w3.org/2000/svg">
<g clip-path="url(#clip0_27_4840)">
<path d="M30 25H29V18C29 17.4696 28.7893 16.9609 28.4142 16.5858C28.0391 16.2107 27.5304 16 27 16H22V7C22 6.46957 21.7893 5.96086 21.4142 5.58579C21.0391 5.21071 20.5304 5 20 5H12C11.4696 5 10.9609 5.21071 10.5858 5.58579C10.2107 5.96086 10 6.46957 10 7V11H5C4.46957 11 3.96086 11.2107 3.58579 11.5858C3.21071 11.9609 3 12.4696 3 13V25H2C1.73478 25 1.48043 25.1054 1.29289 25.2929C1.10536 25.4804 1 25.7348 1 26C1 26.2652 1.10536 26.5196 1.29289 26.7071C1.48043 26.8946 1.73478 27 2 27H30C30.2652 27 30.5196 26.8946 30.7071 26.7071C30.8946 26.5196 31 26.2652 31 26C31 25.7348 30.8946 25.4804 30.7071 25.2929C30.5196 25.1054 30.2652 25 30 25ZM10 25H5V13H10V25ZM17.5 17C17.5 17.2652 17.3946 17.5196 17.2071 17.7071C17.0196 17.8946 16.7652 18 16.5 18C16.2348 18 15.9804 17.8946 15.7929 17.7071C15.6054 17.5196 15.5 17.2652 15.5 17V13.3875L15.3162 13.4487C15.1917 13.4903 15.0601 13.5069 14.9291 13.4976C14.7981 13.4882 14.6702 13.4532 14.5528 13.3945C14.4353 13.3358 14.3305 13.2545 14.2445 13.1552C14.1584 13.056 14.0928 12.9408 14.0513 12.8162C14.0097 12.6917 13.9931 12.5601 14.0024 12.4291C14.0118 12.2981 14.0468 12.1702 14.1055 12.0528C14.1642 11.9353 14.2455 11.8305 14.3448 11.7445C14.444 11.6584 14.5592 11.5928 14.6838 11.5513L16.1838 11.0513C16.3341 11.0011 16.4942 10.9875 16.6508 11.0114C16.8075 11.0353 16.9562 11.096 17.0847 11.1887C17.2133 11.2814 17.318 11.4032 17.3902 11.5443C17.4624 11.6853 17.5 11.8415 17.5 12V17ZM27 25H22V18H27V25Z" fill="white"/>
<path d="M53.5775 12.9738C53.452 12.5965 53.4815 12.1848 53.6594 11.8293C53.8373 11.4737 54.1491 11.2033 54.5262 11.0775L56.0263 10.5775C56.2517 10.5025 56.4917 10.482 56.7265 10.5179C56.9613 10.5538 57.1843 10.6449 57.377 10.7838C57.5698 10.9227 57.7267 11.1054 57.835 11.3169C57.9433 11.5283 57.9999 11.7624 58 12V17C58 17.3978 57.842 17.7794 57.5607 18.0607C57.2794 18.342 56.8978 18.5 56.5 18.5C56.1022 18.5 55.7206 18.342 55.4393 18.0607C55.158 17.7794 55 17.3978 55 17V14C54.6852 13.9998 54.3784 13.9007 54.1231 13.7165C53.8678 13.5323 53.6769 13.2724 53.5775 12.9738ZM71.5 26C71.5 26.3978 71.342 26.7794 71.0607 27.0607C70.7794 27.342 70.3978 27.5 70 27.5H42C41.6022 27.5 41.2206 27.342 40.9393 27.0607C40.658 26.7794 40.5 26.3978 40.5 26C40.5 25.6022 40.658 25.2206 40.9393 24.9393C41.2206 24.658 41.6022 24.5 42 24.5H42.5V13C42.5 12.337 42.7634 11.7011 43.2322 11.2322C43.7011 10.7634 44.337 10.5 45 10.5H49.5V7C49.5 6.33696 49.7634 5.70107 50.2322 5.23223C50.7011 4.76339 51.337 4.5 52 4.5H60C60.663 4.5 61.2989 4.76339 61.7678 5.23223C62.2366 5.70107 62.5 6.33696 62.5 7V15.5H67C67.663 15.5 68.2989 15.7634 68.7678 16.2322C69.2366 16.7011 69.5 17.337 69.5 18V24.5H70C70.3978 24.5 70.7794 24.658 71.0607 24.9393C71.342 25.2206 71.5 25.6022 71.5 26ZM62.5 18.5V24.5H66.5V18.5H62.5ZM52.5 24.5H59.5V7.5H52.5V24.5ZM45.5 24.5H49.5V13.5H45.5V24.5Z" fill="white"/>
</g>
<defs>
<clipPath id="clip0_27_4840">
<rect width="72" height="32" rx="5" fill="white"/>
</clipPath>
</defs>
</svg>
