<svg width="72" height="32" viewBox="0 0 72 32" fill="none" xmlns="http://www.w3.org/2000/svg">
<g clip-path="url(#clip0_27_1427)">
<path d="M27 5H5C4.46957 5 3.96086 5.21071 3.58579 5.58579C3.21071 5.96086 3 6.46957 3 7V26C3.00009 26.1704 3.04374 26.338 3.12681 26.4869C3.20988 26.6357 3.32961 26.7608 3.47463 26.8503C3.61965 26.9399 3.78516 26.9909 3.95543 26.9985C4.12569 27.0061 4.29508 26.97 4.4475 26.8937L8 25.1175L11.5525 26.8937C11.6914 26.9633 11.8446 26.9995 12 26.9995C12.1554 26.9995 12.3086 26.9633 12.4475 26.8937L16 25.1175L19.5525 26.8937C19.6914 26.9633 19.8446 26.9995 20 26.9995C20.1554 26.9995 20.3086 26.9633 20.4475 26.8937L24 25.1175L27.5525 26.8937C27.7049 26.97 27.8743 27.0061 28.0446 26.9985C28.2148 26.9909 28.3803 26.9399 28.5254 26.8503C28.6704 26.7608 28.7901 26.6357 28.8732 26.4869C28.9563 26.338 28.9999 26.1704 29 26V7C29 6.46957 28.7893 5.96086 28.4142 5.58579C28.0391 5.21071 27.5304 5 27 5ZM22 18H10C9.73478 18 9.48043 17.8946 9.29289 17.7071C9.10536 17.5196 9 17.2652 9 17C9 16.7348 9.10536 16.4804 9.29289 16.2929C9.48043 16.1054 9.73478 16 10 16H22C22.2652 16 22.5196 16.1054 22.7071 16.2929C22.8946 16.4804 23 16.7348 23 17C23 17.2652 22.8946 17.5196 22.7071 17.7071C22.5196 17.8946 22.2652 18 22 18ZM22 14H10C9.73478 14 9.48043 13.8946 9.29289 13.7071C9.10536 13.5196 9 13.2652 9 13C9 12.7348 9.10536 12.4804 9.29289 12.2929C9.48043 12.1054 9.73478 12 10 12H22C22.2652 12 22.5196 12.1054 22.7071 12.2929C22.8946 12.4804 23 12.7348 23 13C23 13.2652 22.8946 13.5196 22.7071 13.7071C22.5196 13.8946 22.2652 14 22 14Z" fill="white"/>
<path d="M48.5 12.5C48.5 12.1022 48.658 11.7206 48.9393 11.4393C49.2206 11.158 49.6022 11 50 11H62C62.3978 11 62.7794 11.158 63.0607 11.4393C63.342 11.7206 63.5 12.1022 63.5 12.5C63.5 12.8978 63.342 13.2794 63.0607 13.5607C62.7794 13.842 62.3978 14 62 14H50C49.6022 14 49.2206 13.842 48.9393 13.5607C48.658 13.2794 48.5 12.8978 48.5 12.5ZM50 19H62C62.3978 19 62.7794 18.842 63.0607 18.5607C63.342 18.2794 63.5 17.8978 63.5 17.5C63.5 17.1022 63.342 16.7206 63.0607 16.4393C62.7794 16.158 62.3978 16 62 16H50C49.6022 16 49.2206 16.158 48.9393 16.4393C48.658 16.7206 48.5 17.1022 48.5 17.5C48.5 17.8978 48.658 18.2794 48.9393 18.5607C49.2206 18.842 49.6022 19 50 19ZM69.5 7V26C69.5 26.2557 69.4346 26.5072 69.31 26.7305C69.1854 26.9538 69.0059 27.1416 68.7883 27.276C68.5708 27.4104 68.3225 27.4869 68.067 27.4983C67.8116 27.5098 67.5574 27.4557 67.3288 27.3412L64 25.6775L60.6712 27.3412C60.4629 27.4455 60.233 27.4998 60 27.4998C59.767 27.4998 59.5371 27.4455 59.3288 27.3412L56 25.6775L52.6713 27.3412C52.4629 27.4455 52.233 27.4998 52 27.4998C51.767 27.4998 51.5371 27.4455 51.3287 27.3412L48 25.6775L44.6712 27.3412C44.4426 27.4557 44.1884 27.5098 43.933 27.4983C43.6775 27.4869 43.4292 27.4104 43.2117 27.276C42.9941 27.1416 42.8145 26.9538 42.69 26.7305C42.5654 26.5072 42.5 26.2557 42.5 26V7C42.5 6.33696 42.7634 5.70107 43.2322 5.23223C43.7011 4.76339 44.337 4.5 45 4.5H67C67.663 4.5 68.2989 4.76339 68.7678 5.23223C69.2366 5.70107 69.5 6.33696 69.5 7ZM66.5 7.5H45.5V23.5725L47.3288 22.6588C47.5371 22.5545 47.767 22.5002 48 22.5002C48.233 22.5002 48.4629 22.5545 48.6713 22.6588L52 24.3225L55.3287 22.6588C55.5371 22.5545 55.767 22.5002 56 22.5002C56.233 22.5002 56.4629 22.5545 56.6712 22.6588L60 24.3225L63.3288 22.6588C63.5371 22.5545 63.767 22.5002 64 22.5002C64.233 22.5002 64.4629 22.5545 64.6712 22.6588L66.5 23.5725V7.5Z" fill="white"/>
</g>
<defs>
<clipPath id="clip0_27_1427">
<rect width="72" height="32" rx="5" fill="white"/>
</clipPath>
</defs>
</svg>
