<svg width="72" height="32" viewBox="0 0 72 32" fill="none" xmlns="http://www.w3.org/2000/svg">
<g clip-path="url(#clip0_27_3941)">
<path d="M16 3C13.4288 3 10.9154 3.76244 8.77759 5.1909C6.63975 6.61935 4.97351 8.64968 3.98957 11.0251C3.00563 13.4006 2.74819 16.0144 3.2498 18.5362C3.75141 21.0579 4.98953 23.3743 6.80762 25.1924C8.6257 27.0105 10.9421 28.2486 13.4638 28.7502C15.9856 29.2518 18.5995 28.9944 20.9749 28.0104C23.3503 27.0265 25.3807 25.3603 26.8091 23.2224C28.2376 21.0846 29 18.5712 29 16C28.9964 12.5533 27.6256 9.24882 25.1884 6.81163C22.7512 4.37445 19.4467 3.00364 16 3ZM16 27C13.8244 27 11.6977 26.3549 9.88873 25.1462C8.07979 23.9375 6.66989 22.2195 5.83733 20.2095C5.00477 18.1995 4.78693 15.9878 5.21137 13.854C5.63581 11.7202 6.68345 9.7602 8.22183 8.22183C9.76021 6.68345 11.7202 5.6358 13.854 5.21136C15.9878 4.78692 18.1995 5.00476 20.2095 5.83733C22.2195 6.66989 23.9375 8.07979 25.1462 9.88873C26.3549 11.6977 27 13.8244 27 16C26.9967 18.9164 25.8367 21.7123 23.7745 23.7745C21.7123 25.8367 18.9164 26.9967 16 27ZM25 16C25 17.78 24.4722 19.5201 23.4832 21.0001C22.4943 22.4802 21.0887 23.6337 19.4442 24.3149C17.7996 24.9961 15.99 25.1743 14.2442 24.8271C12.4984 24.4798 10.8947 23.6226 9.63604 22.364C8.37737 21.1053 7.52021 19.5016 7.17294 17.7558C6.82567 16.01 7.0039 14.2004 7.68509 12.5558C8.36628 10.9113 9.51983 9.50571 10.9999 8.51677C12.4799 7.52784 14.22 7 16 7C18.3861 7.00265 20.6738 7.95171 22.361 9.63896C24.0483 11.3262 24.9974 13.6139 25 16Z" fill="white"/>
<path d="M56 2.5C53.33 2.5 50.7199 3.29176 48.4998 4.77516C46.2797 6.25856 44.5494 8.36697 43.5276 10.8338C42.5058 13.3006 42.2385 16.015 42.7594 18.6337C43.2803 21.2525 44.5661 23.6579 46.4541 25.5459C48.3421 27.434 50.7475 28.7197 53.3663 29.2406C55.985 29.7615 58.6994 29.4942 61.1662 28.4724C63.633 27.4506 65.7414 25.7203 67.2248 23.5002C68.7082 21.2801 69.5 18.67 69.5 16C69.496 12.4208 68.0724 8.98932 65.5416 6.45844C63.0107 3.92756 59.5792 2.50397 56 2.5ZM56 26.5C53.9233 26.5 51.8932 25.8842 50.1665 24.7304C48.4398 23.5767 47.094 21.9368 46.2993 20.0182C45.5046 18.0996 45.2966 15.9884 45.7018 13.9516C46.1069 11.9148 47.1069 10.0438 48.5754 8.57538C50.0438 7.10693 51.9148 6.1069 53.9516 5.70175C55.9884 5.29661 58.0996 5.50454 60.0182 6.29926C61.9368 7.09399 63.5767 8.4398 64.7304 10.1665C65.8842 11.8932 66.5 13.9233 66.5 16C66.497 18.7839 65.3898 21.4528 63.4213 23.4213C61.4529 25.3898 58.7839 26.497 56 26.5ZM56 8C54.4178 8 52.871 8.46919 51.5554 9.34824C50.2399 10.2273 49.2145 11.4767 48.609 12.9385C48.0035 14.4003 47.845 16.0089 48.1537 17.5607C48.4624 19.1126 49.2243 20.538 50.3432 21.6569C51.462 22.7757 52.8874 23.5376 54.4393 23.8463C55.9911 24.155 57.5997 23.9965 59.0615 23.391C60.5233 22.7855 61.7727 21.7602 62.6518 20.4446C63.5308 19.129 64 17.5823 64 16C63.9977 13.879 63.1541 11.8455 61.6543 10.3457C60.1545 8.84591 58.121 8.00232 56 8ZM56 21C55.0111 21 54.0444 20.7068 53.2222 20.1573C52.3999 19.6079 51.759 18.827 51.3806 17.9134C51.0022 16.9998 50.9032 15.9945 51.0961 15.0245C51.289 14.0546 51.7652 13.1637 52.4645 12.4645C53.1637 11.7652 54.0546 11.289 55.0246 11.0961C55.9945 10.9031 56.9998 11.0022 57.9134 11.3806C58.8271 11.759 59.6079 12.3999 60.1574 13.2221C60.7068 14.0444 61 15.0111 61 16C61 17.3261 60.4732 18.5979 59.5355 19.5355C58.5979 20.4732 57.3261 21 56 21Z" fill="white"/>
</g>
<defs>
<clipPath id="clip0_27_3941">
<rect width="72" height="32" rx="5" fill="white"/>
</clipPath>
</defs>
</svg>
