<svg width="72" height="32" viewBox="0 0 72 32" fill="none" xmlns="http://www.w3.org/2000/svg">
<g clip-path="url(#clip0_27_5503)">
<path d="M27 5H5C4.46957 5 3.96086 5.21071 3.58579 5.58579C3.21071 5.96086 3 6.46957 3 7V25C3 25.5304 3.21071 26.0391 3.58579 26.4142C3.96086 26.7893 4.46957 27 5 27H27C27.5304 27 28.0391 26.7893 28.4142 26.4142C28.7893 26.0391 29 25.5304 29 25V7C29 6.46957 28.7893 5.96086 28.4142 5.58579C28.0391 5.21071 27.5304 5 27 5ZM10 24H8C7.46957 24 6.96086 23.7893 6.58579 23.4142C6.21071 23.0391 6 22.5304 6 22V18C6 17.7348 6.10536 17.4804 6.29289 17.2929C6.48043 17.1054 6.73478 17 7 17C7.26522 17 7.51957 17.1054 7.70711 17.2929C7.89464 17.4804 8 17.7348 8 18V22H10C10.2652 22 10.5196 22.1054 10.7071 22.2929C10.8946 22.4804 11 22.7348 11 23C11 23.2652 10.8946 23.5196 10.7071 23.7071C10.5196 23.8946 10.2652 24 10 24ZM10 10H8V14C8 14.2652 7.89464 14.5196 7.70711 14.7071C7.51957 14.8946 7.26522 15 7 15C6.73478 15 6.48043 14.8946 6.29289 14.7071C6.10536 14.5196 6 14.2652 6 14V10C6 9.46957 6.21071 8.96086 6.58579 8.58579C6.96086 8.21071 7.46957 8 8 8H10C10.2652 8 10.5196 8.10536 10.7071 8.29289C10.8946 8.48043 11 8.73478 11 9C11 9.26522 10.8946 9.51957 10.7071 9.70711C10.5196 9.89464 10.2652 10 10 10ZM18 24H14C13.7348 24 13.4804 23.8946 13.2929 23.7071C13.1054 23.5196 13 23.2652 13 23C13 22.7348 13.1054 22.4804 13.2929 22.2929C13.4804 22.1054 13.7348 22 14 22H18C18.2652 22 18.5196 22.1054 18.7071 22.2929C18.8946 22.4804 19 22.7348 19 23C19 23.2652 18.8946 23.5196 18.7071 23.7071C18.5196 23.8946 18.2652 24 18 24ZM18 10H14C13.7348 10 13.4804 9.89464 13.2929 9.70711C13.1054 9.51957 13 9.26522 13 9C13 8.73478 13.1054 8.48043 13.2929 8.29289C13.4804 8.10536 13.7348 8 14 8H18C18.2652 8 18.5196 8.10536 18.7071 8.29289C18.8946 8.48043 19 8.73478 19 9C19 9.26522 18.8946 9.51957 18.7071 9.70711C18.5196 9.89464 18.2652 10 18 10ZM26 22C26 22.5304 25.7893 23.0391 25.4142 23.4142C25.0391 23.7893 24.5304 24 24 24H22C21.7348 24 21.4804 23.8946 21.2929 23.7071C21.1054 23.5196 21 23.2652 21 23C21 22.7348 21.1054 22.4804 21.2929 22.2929C21.4804 22.1054 21.7348 22 22 22H24V18C24 17.7348 24.1054 17.4804 24.2929 17.2929C24.4804 17.1054 24.7348 17 25 17C25.2652 17 25.5196 17.1054 25.7071 17.2929C25.8946 17.4804 26 17.7348 26 18V22ZM26 14C26 14.2652 25.8946 14.5196 25.7071 14.7071C25.5196 14.8946 25.2652 15 25 15C24.7348 15 24.4804 14.8946 24.2929 14.7071C24.1054 14.5196 24 14.2652 24 14V10H22C21.7348 10 21.4804 9.89464 21.2929 9.70711C21.1054 9.51957 21 9.26522 21 9C21 8.73478 21.1054 8.48043 21.2929 8.29289C21.4804 8.10536 21.7348 8 22 8H24C24.5304 8 25.0391 8.21071 25.4142 8.58579C25.7893 8.96086 26 9.46957 26 10V14Z" fill="white"/>
<path d="M50.5 6C50.5 6.39782 50.342 6.77936 50.0607 7.06066C49.7794 7.34196 49.3978 7.5 49 7.5H45.5V9C45.5 9.39782 45.342 9.77936 45.0607 10.0607C44.7794 10.342 44.3978 10.5 44 10.5C43.6022 10.5 43.2206 10.342 42.9393 10.0607C42.658 9.77936 42.5 9.39782 42.5 9V7C42.5 6.33696 42.7634 5.70107 43.2322 5.23223C43.7011 4.76339 44.337 4.5 45 4.5H49C49.3978 4.5 49.7794 4.65804 50.0607 4.93934C50.342 5.22064 50.5 5.60218 50.5 6ZM44 19.5C44.3978 19.5 44.7794 19.342 45.0607 19.0607C45.342 18.7794 45.5 18.3978 45.5 18V14C45.5 13.6022 45.342 13.2206 45.0607 12.9393C44.7794 12.658 44.3978 12.5 44 12.5C43.6022 12.5 43.2206 12.658 42.9393 12.9393C42.658 13.2206 42.5 13.6022 42.5 14V18C42.5 18.3978 42.658 18.7794 42.9393 19.0607C43.2206 19.342 43.6022 19.5 44 19.5ZM49 24.5H45.5V23C45.5 22.6022 45.342 22.2206 45.0607 21.9393C44.7794 21.658 44.3978 21.5 44 21.5C43.6022 21.5 43.2206 21.658 42.9393 21.9393C42.658 22.2206 42.5 22.6022 42.5 23V25C42.5 25.663 42.7634 26.2989 43.2322 26.7678C43.7011 27.2366 44.337 27.5 45 27.5H49C49.3978 27.5 49.7794 27.342 50.0607 27.0607C50.342 26.7794 50.5 26.3978 50.5 26C50.5 25.6022 50.342 25.2206 50.0607 24.9393C49.7794 24.658 49.3978 24.5 49 24.5ZM58 24.5H54C53.6022 24.5 53.2206 24.658 52.9393 24.9393C52.658 25.2206 52.5 25.6022 52.5 26C52.5 26.3978 52.658 26.7794 52.9393 27.0607C53.2206 27.342 53.6022 27.5 54 27.5H58C58.3978 27.5 58.7794 27.342 59.0607 27.0607C59.342 26.7794 59.5 26.3978 59.5 26C59.5 25.6022 59.342 25.2206 59.0607 24.9393C58.7794 24.658 58.3978 24.5 58 24.5ZM68 21.5C67.6022 21.5 67.2206 21.658 66.9393 21.9393C66.658 22.2206 66.5 22.6022 66.5 23V24.5H63C62.6022 24.5 62.2206 24.658 61.9393 24.9393C61.658 25.2206 61.5 25.6022 61.5 26C61.5 26.3978 61.658 26.7794 61.9393 27.0607C62.2206 27.342 62.6022 27.5 63 27.5H67C67.663 27.5 68.2989 27.2366 68.7678 26.7678C69.2366 26.2989 69.5 25.663 69.5 25V23C69.5 22.6022 69.342 22.2206 69.0607 21.9393C68.7794 21.658 68.3978 21.5 68 21.5ZM68 12.5C67.6022 12.5 67.2206 12.658 66.9393 12.9393C66.658 13.2206 66.5 13.6022 66.5 14V18C66.5 18.3978 66.658 18.7794 66.9393 19.0607C67.2206 19.342 67.6022 19.5 68 19.5C68.3978 19.5 68.7794 19.342 69.0607 19.0607C69.342 18.7794 69.5 18.3978 69.5 18V14C69.5 13.6022 69.342 13.2206 69.0607 12.9393C68.7794 12.658 68.3978 12.5 68 12.5ZM67 4.5H63C62.6022 4.5 62.2206 4.65804 61.9393 4.93934C61.658 5.22064 61.5 5.60218 61.5 6C61.5 6.39782 61.658 6.77936 61.9393 7.06066C62.2206 7.34196 62.6022 7.5 63 7.5H66.5V9C66.5 9.39782 66.658 9.77936 66.9393 10.0607C67.2206 10.342 67.6022 10.5 68 10.5C68.3978 10.5 68.7794 10.342 69.0607 10.0607C69.342 9.77936 69.5 9.39782 69.5 9V7C69.5 6.33696 69.2366 5.70107 68.7678 5.23223C68.2989 4.76339 67.663 4.5 67 4.5ZM58 4.5H54C53.6022 4.5 53.2206 4.65804 52.9393 4.93934C52.658 5.22064 52.5 5.60218 52.5 6C52.5 6.39782 52.658 6.77936 52.9393 7.06066C53.2206 7.34196 53.6022 7.5 54 7.5H58C58.3978 7.5 58.7794 7.34196 59.0607 7.06066C59.342 6.77936 59.5 6.39782 59.5 6C59.5 5.60218 59.342 5.22064 59.0607 4.93934C58.7794 4.65804 58.3978 4.5 58 4.5Z" fill="white"/>
</g>
<defs>
<clipPath id="clip0_27_5503">
<rect width="72" height="32" rx="5" fill="white"/>
</clipPath>
</defs>
</svg>
