<svg width="72" height="32" viewBox="0 0 72 32" fill="none" xmlns="http://www.w3.org/2000/svg">
<g clip-path="url(#clip0_27_6409)">
<path d="M12.0001 26C12.0001 26.2652 11.8948 26.5196 11.7072 26.7071C11.5197 26.8947 11.2653 27 11.0001 27H5.00013C4.47367 26.9997 3.95657 26.8608 3.50077 26.5974C3.04496 26.334 2.66651 25.9552 2.40342 25.4992C2.14033 25.0432 2.00187 24.526 2.00195 23.9996C2.00203 23.4731 2.14065 22.9559 2.40388 22.5L5.90388 16.4625L4.17638 15.4625C4.00326 15.3644 3.86334 15.2169 3.77452 15.0388C3.6857 14.8608 3.65202 14.6603 3.67779 14.463C3.70356 14.2657 3.78761 14.0805 3.91918 13.9313C4.05076 13.782 4.22387 13.6754 4.41638 13.625L8.51263 12.5288C8.63952 12.4947 8.77187 12.4861 8.90212 12.5032C9.03236 12.5204 9.15796 12.563 9.27172 12.6287C9.38548 12.6944 9.48518 12.7819 9.56512 12.8861C9.64506 12.9904 9.70368 13.1094 9.73763 13.2363L10.8364 17.3325C10.8877 17.5236 10.8811 17.7256 10.8176 17.913C10.754 18.1004 10.6363 18.2647 10.4793 18.3851C10.3223 18.5056 10.1331 18.5767 9.93569 18.5896C9.73825 18.6025 9.54143 18.5565 9.37013 18.4575L7.63513 17.4575L4.13888 23.5C4.05131 23.6517 4.00511 23.8237 4.0049 23.9988C4.00469 24.174 4.05047 24.3461 4.13768 24.498C4.22488 24.6498 4.35044 24.7761 4.5018 24.8643C4.65315 24.9524 4.825 24.9992 5.00013 25H11.0001C11.2653 25 11.5197 25.1054 11.7072 25.2929C11.8948 25.4804 12.0001 25.7348 12.0001 26ZM16.0001 4.00002C16.1759 3.99825 16.3489 4.04373 16.501 4.13168C16.6532 4.21964 16.7789 4.34685 16.8651 4.50002L20.3651 10.5375L18.6376 11.5375C18.4677 11.6367 18.3309 11.7837 18.2441 11.9603C18.1574 12.1368 18.1247 12.335 18.15 12.5301C18.1754 12.7251 18.2577 12.9084 18.3867 13.0569C18.5156 13.2054 18.6855 13.3126 18.8751 13.365L22.9726 14.4638C23.0571 14.486 23.144 14.4973 23.2314 14.4975C23.4514 14.4973 23.6651 14.4246 23.8396 14.2906C24.0141 14.1566 24.1395 13.9688 24.1964 13.7563L25.2951 9.65752C25.3462 9.46659 25.3395 9.26481 25.276 9.07766C25.2125 8.89051 25.0949 8.72639 24.9381 8.60602C24.7814 8.48564 24.5925 8.41442 24.3953 8.40134C24.1981 8.38825 24.0014 8.4339 23.8301 8.53252L22.0939 9.53252L18.5964 3.50002C18.3328 3.04481 17.9542 2.6669 17.4985 2.40419C17.0429 2.14147 16.5261 2.00317 16.0001 2.00317C15.4741 2.00317 14.9574 2.14147 14.5017 2.40419C14.046 2.6669 13.6674 3.04481 13.4039 3.50002L10.5089 8.50002C10.3845 8.72908 10.3545 8.99766 10.4252 9.24854C10.4959 9.49942 10.6618 9.71277 10.8875 9.84314C11.1132 9.97351 11.3809 10.0106 11.6336 9.94651C11.8862 9.88242 12.1039 9.72221 12.2401 9.50002L15.1351 4.50002C15.2213 4.34685 15.3471 4.21964 15.4992 4.13168C15.6514 4.04373 15.8244 3.99825 16.0001 4.00002ZM29.5914 22.5L26.6989 17.5C26.5605 17.2824 26.3434 17.1266 26.0929 17.0652C25.8424 17.0038 25.5778 17.0416 25.3545 17.1707C25.1312 17.2998 24.9664 17.5102 24.8946 17.7579C24.8227 18.0056 24.8493 18.2715 24.9689 18.5L27.8614 23.5C27.9489 23.6517 27.9951 23.8237 27.9954 23.9988C27.9956 24.174 27.9498 24.3461 27.8626 24.498C27.7754 24.6498 27.6498 24.7761 27.4985 24.8643C27.3471 24.9524 27.1753 24.9992 27.0001 25H20.0001V23C20.0003 22.8021 19.9417 22.6086 19.8318 22.444C19.722 22.2794 19.5657 22.1511 19.3829 22.0754C19.2001 21.9996 18.9989 21.9798 18.8048 22.0185C18.6107 22.0571 18.4325 22.1525 18.2926 22.2925L15.2926 25.2925C15.1997 25.3854 15.1259 25.4957 15.0756 25.6171C15.0252 25.7385 14.9993 25.8686 14.9993 26C14.9993 26.1314 15.0252 26.2616 15.0756 26.383C15.1259 26.5044 15.1997 26.6146 15.2926 26.7075L18.2926 29.7075C18.4325 29.8475 18.6107 29.9429 18.8048 29.9815C18.9989 30.0202 19.2001 30.0004 19.3829 29.9246C19.5657 29.8489 19.722 29.7206 19.8318 29.556C19.9417 29.3914 20.0003 29.1979 20.0001 29V27H27.0001C27.5266 26.9997 28.0437 26.8608 28.4995 26.5974C28.9553 26.334 29.3337 25.9552 29.5968 25.4992C29.8599 25.0432 29.9984 24.526 29.9983 23.9996C29.9982 23.4731 29.8596 22.9559 29.5964 22.5H29.5914Z" fill="white"/>
<path d="M52.4996 26C52.4996 26.3978 52.3416 26.7793 52.0603 27.0606C51.779 27.3419 51.3974 27.5 50.9996 27.5H44.9996C44.3854 27.4996 43.7822 27.3376 43.2504 27.0302C42.7187 26.7228 42.2772 26.281 41.9703 25.749C41.6634 25.217 41.5019 24.6136 41.502 23.9994C41.5021 23.3852 41.6638 22.7819 41.9709 22.25L45.6521 15.89L45.0571 16.0487C44.8654 16.1043 44.6645 16.121 44.4663 16.098C44.268 16.0749 44.0763 16.0125 43.9025 15.9144C43.7287 15.8164 43.5761 15.6846 43.4539 15.5268C43.3316 15.369 43.2421 15.1884 43.1905 14.9956C43.1389 14.8028 43.1264 14.6016 43.1535 14.4039C43.1807 14.2061 43.2471 14.0158 43.3487 13.844C43.4504 13.6722 43.5853 13.5225 43.7456 13.4035C43.9059 13.2846 44.0883 13.1988 44.2821 13.1512L48.3784 12.055C48.7624 11.9523 49.1716 12.0062 49.5159 12.205C49.8602 12.4037 50.1115 12.731 50.2146 13.115L51.3134 17.2112C51.3708 17.4034 51.3892 17.6051 51.3673 17.8045C51.3455 18.0038 51.2839 18.1968 51.1861 18.3719C51.0884 18.5471 50.9566 18.7008 50.7984 18.8241C50.6402 18.9474 50.4589 19.0378 50.2652 19.0898C50.0715 19.1418 49.8693 19.1544 49.6706 19.1269C49.472 19.0994 49.2808 19.0323 49.1085 18.9297C48.9362 18.827 48.7863 18.6909 48.6675 18.5292C48.5487 18.3676 48.4636 18.1838 48.4171 17.9887L48.2596 17.375L44.5721 23.75C44.5285 23.8256 44.5054 23.9113 44.5051 23.9986C44.5049 24.0859 44.5275 24.1718 44.5707 24.2476C44.614 24.3235 44.6763 24.3867 44.7515 24.4309C44.8268 24.4752 44.9123 24.499 44.9996 24.5H50.9996C51.3974 24.5 51.779 24.658 52.0603 24.9393C52.3416 25.2206 52.4996 25.6022 52.4996 26ZM55.9996 4.49998C56.0876 4.49836 56.1744 4.52078 56.2506 4.56484C56.3268 4.60889 56.3896 4.6729 56.4321 4.74998L60.1134 11.1087L59.5196 10.95C59.3268 10.8913 59.1242 10.872 58.9238 10.8933C58.7235 10.9147 58.5294 10.9761 58.3533 11.0741C58.1772 11.1721 58.0227 11.3045 57.8989 11.4636C57.7751 11.6226 57.6847 11.8049 57.6329 11.9997C57.5811 12.1944 57.5692 12.3976 57.5977 12.5971C57.6262 12.7966 57.6946 12.9883 57.7988 13.1607C57.903 13.3332 58.0409 13.4829 58.2043 13.6009C58.3677 13.7189 58.5531 13.8028 58.7496 13.8475L62.8459 14.9462C63.2299 15.049 63.6391 14.995 63.9834 14.7963C64.3277 14.5975 64.579 14.2702 64.6821 13.8862L65.7746 9.78748C65.8777 9.40292 65.8238 8.99315 65.6248 8.64832C65.5263 8.47757 65.3951 8.32791 65.2387 8.20788C65.0823 8.08784 64.9038 7.99978 64.7134 7.94873C64.3288 7.84563 63.919 7.89952 63.5742 8.09854C63.2294 8.29756 62.9777 8.62542 62.8746 9.00998L62.7109 9.61748L59.0284 3.24998C58.7209 2.71901 58.2792 2.27821 57.7476 1.97177C57.216 1.66533 56.6132 1.50403 55.9996 1.50403C55.386 1.50403 54.7832 1.66533 54.2516 1.97177C53.7201 2.27821 53.2784 2.71901 52.9709 3.24998L50.0759 8.24998C49.9697 8.42074 49.8989 8.6111 49.8677 8.80975C49.8366 9.00841 49.8457 9.2113 49.8945 9.40636C49.9433 9.60143 50.0309 9.78468 50.1519 9.94524C50.273 10.1058 50.4251 10.2404 50.5992 10.341C50.7733 10.4416 50.9659 10.5061 51.1655 10.5308C51.365 10.5555 51.5675 10.5398 51.7609 10.4847C51.9543 10.4295 52.1346 10.3361 52.2911 10.2099C52.4477 10.0837 52.5772 9.92727 52.6721 9.74998L55.5671 4.74998C55.6096 4.6729 55.6724 4.60889 55.7486 4.56484C55.8248 4.52078 55.9116 4.49836 55.9996 4.49998ZM70.0234 22.25L67.1309 17.25C67.036 17.0727 66.9064 16.9163 66.7499 16.7901C66.5933 16.6639 66.413 16.5704 66.2196 16.5153C66.0263 16.4602 65.8238 16.4445 65.6242 16.4692C65.4247 16.4939 65.2321 16.5584 65.058 16.659C64.8839 16.7596 64.7318 16.8942 64.6107 17.0547C64.4896 17.2153 64.4021 17.3985 64.3533 17.5936C64.3044 17.7887 64.2953 17.9916 64.3265 18.1902C64.3576 18.3889 64.4284 18.5792 64.5346 18.75L67.4271 23.75C67.471 23.826 67.4941 23.9121 67.4941 23.9999C67.4941 24.0876 67.4711 24.1738 67.4272 24.2498C67.3834 24.3258 67.3204 24.3889 67.2444 24.4328C67.1685 24.4767 67.0823 24.4999 66.9946 24.5H59.6246L60.0634 24.0612C60.2029 23.9217 60.3136 23.7561 60.3891 23.5738C60.4646 23.3914 60.5035 23.1961 60.5035 22.9987C60.5035 22.8014 60.4646 22.606 60.3891 22.4237C60.3136 22.2414 60.2029 22.0758 60.0634 21.9362C59.9238 21.7967 59.7582 21.686 59.5759 21.6105C59.3936 21.535 59.1982 21.4961 59.0009 21.4961C58.8035 21.4961 58.6081 21.535 58.4258 21.6105C58.2435 21.686 58.0779 21.7967 57.9384 21.9362L54.9384 24.9362C54.7985 25.0756 54.6876 25.2412 54.6119 25.4235C54.5362 25.6058 54.4972 25.8013 54.4972 25.9987C54.4972 26.1962 54.5362 26.3916 54.6119 26.574C54.6876 26.7563 54.7985 26.9219 54.9384 27.0612L57.9384 30.0612C58.0779 30.2008 58.2435 30.3114 58.4258 30.387C58.6081 30.4625 58.8035 30.5013 59.0009 30.5013C59.1982 30.5013 59.3936 30.4625 59.5759 30.387C59.7582 30.3114 59.9238 30.2008 60.0634 30.0612C60.2029 29.9217 60.3136 29.7561 60.3891 29.5738C60.4646 29.3914 60.5035 29.1961 60.5035 28.9987C60.5035 28.8014 60.4646 28.606 60.3891 28.4237C60.3136 28.2414 60.2029 28.0758 60.0634 27.9362L59.6246 27.5H66.9996C67.6138 27.4996 68.2171 27.3376 68.7488 27.0302C69.2805 26.7228 69.722 26.281 70.0289 25.749C70.3359 25.217 70.4974 24.6136 70.4973 23.9994C70.4972 23.3852 70.3355 22.7819 70.0284 22.25H70.0234Z" fill="white"/>
</g>
<defs>
<clipPath id="clip0_27_6409">
<rect width="72" height="32" rx="5" fill="white"/>
</clipPath>
</defs>
</svg>
