<svg width="72" height="32" viewBox="0 0 72 32" fill="none" xmlns="http://www.w3.org/2000/svg">
<g clip-path="url(#clip0_27_3946)">
<path d="M2.99981 16C3.00246 13.6139 3.95152 11.3262 5.63877 9.63896C7.32603 7.9517 9.61367 7.00264 11.9998 6.99999H23.9998V4.99999C23.9997 4.8021 24.0582 4.60861 24.1681 4.44401C24.278 4.27942 24.4342 4.15112 24.617 4.07537C24.7998 3.99962 25.001 3.97981 25.1951 4.01846C25.3892 4.05712 25.5675 4.15248 25.7073 4.29249L28.7073 7.29249C28.8003 7.38537 28.874 7.49566 28.9244 7.61705C28.9747 7.73845 29.0006 7.86858 29.0006 7.99999C29.0006 8.13141 28.9747 8.26154 28.9244 8.38293C28.874 8.50433 28.8003 8.61462 28.7073 8.70749L25.7073 11.7075C25.5675 11.8475 25.3892 11.9429 25.1951 11.9815C25.001 12.0202 24.7998 12.0004 24.617 11.9246C24.4342 11.8489 24.278 11.7206 24.1681 11.556C24.0582 11.3914 23.9997 11.1979 23.9998 11V8.99999H11.9998C10.1439 9.00198 8.36458 9.74012 7.05226 11.0524C5.73993 12.3648 5.0018 14.1441 4.99981 16C4.99981 16.2652 4.89445 16.5196 4.70692 16.7071C4.51938 16.8946 4.26503 17 3.99981 17C3.73459 17 3.48024 16.8946 3.2927 16.7071C3.10517 16.5196 2.99981 16.2652 2.99981 16ZM27.9998 15C27.7346 15 27.4802 15.1054 27.2927 15.2929C27.1052 15.4804 26.9998 15.7348 26.9998 16C26.9978 17.8559 26.2597 19.6352 24.9474 20.9475C23.635 22.2599 21.8557 22.998 19.9998 23H7.99981V21C7.99997 20.8021 7.9414 20.6086 7.83153 20.444C7.72166 20.2794 7.56542 20.1511 7.3826 20.0754C7.19978 19.9996 6.99859 19.9798 6.8045 20.0185C6.61042 20.0571 6.43217 20.1525 6.29231 20.2925L3.29231 23.2925C3.19933 23.3854 3.12557 23.4957 3.07525 23.6171C3.02493 23.7385 2.99902 23.8686 2.99902 24C2.99902 24.1314 3.02493 24.2615 3.07525 24.3829C3.12557 24.5043 3.19933 24.6146 3.29231 24.7075L6.29231 27.7075C6.43217 27.8475 6.61042 27.9429 6.8045 27.9815C6.99859 28.0202 7.19978 28.0004 7.3826 27.9246C7.56542 27.8489 7.72166 27.7206 7.83153 27.556C7.9414 27.3914 7.99997 27.1979 7.99981 27V25H19.9998C22.3859 24.9973 24.6736 24.0483 26.3608 22.361C28.0481 20.6738 28.9972 18.3861 28.9998 16C28.9998 15.7348 28.8945 15.4804 28.7069 15.2929C28.5194 15.1054 28.265 15 27.9998 15Z" fill="white"/>
<path d="M42.5002 16C42.5029 13.4813 43.5046 11.0664 45.2856 9.28542C47.0666 7.50439 49.4815 6.50265 52.0002 6.50001H64.3752L63.9352 6.06126C63.7957 5.92173 63.685 5.75608 63.6095 5.57378C63.534 5.39147 63.4951 5.19608 63.4951 4.99876C63.4951 4.80143 63.534 4.60604 63.6095 4.42374C63.685 4.24143 63.7957 4.07579 63.9352 3.93626C64.0747 3.79673 64.2404 3.68605 64.4227 3.61053C64.605 3.53502 64.8004 3.49615 64.9977 3.49615C65.195 3.49615 65.3904 3.53502 65.5727 3.61053C65.755 3.68605 65.9207 3.79673 66.0602 3.93626L69.0602 6.93626C69.2 7.07561 69.311 7.2412 69.3867 7.42353C69.4624 7.60586 69.5014 7.80134 69.5014 7.99876C69.5014 8.19618 69.4624 8.39166 69.3867 8.57398C69.311 8.75631 69.2 8.9219 69.0602 9.06126L66.0602 12.0613C65.7784 12.343 65.3962 12.5014 64.9977 12.5014C64.5992 12.5014 64.217 12.343 63.9352 12.0613C63.6534 11.7795 63.4951 11.3973 63.4951 10.9988C63.4951 10.6002 63.6534 10.218 63.9352 9.93626L64.3752 9.50001H52.0002C50.2769 9.50199 48.6248 10.1874 47.4062 11.406C46.1876 12.6246 45.5022 14.2767 45.5002 16C45.5002 16.3978 45.3422 16.7794 45.0609 17.0607C44.7796 17.342 44.398 17.5 44.0002 17.5C43.6024 17.5 43.2209 17.342 42.9395 17.0607C42.6582 16.7794 42.5002 16.3978 42.5002 16ZM68.0002 14.5C67.6024 14.5 67.2209 14.658 66.9395 14.9393C66.6582 15.2207 66.5002 15.6022 66.5002 16C66.4982 17.7233 65.8128 19.3755 64.5942 20.594C63.3757 21.8126 61.7235 22.498 60.0002 22.5H47.6252L48.0652 22.0613C48.2047 21.9217 48.3154 21.7561 48.3909 21.5738C48.4664 21.3915 48.5053 21.1961 48.5053 20.9988C48.5053 20.8014 48.4664 20.606 48.3909 20.4237C48.3154 20.2414 48.2047 20.0758 48.0652 19.9363C47.9257 19.7967 47.76 19.686 47.5777 19.6105C47.3954 19.535 47.2 19.4962 47.0027 19.4962C46.8054 19.4962 46.61 19.535 46.4277 19.6105C46.2454 19.686 46.0797 19.7967 45.9402 19.9363L42.9402 22.9363C42.8004 23.0756 42.6894 23.2412 42.6137 23.4235C42.538 23.6059 42.499 23.8013 42.499 23.9988C42.499 24.1962 42.538 24.3917 42.6137 24.574C42.6894 24.7563 42.8004 24.9219 42.9402 25.0613L45.9402 28.0613C46.0797 28.2008 46.2454 28.3115 46.4277 28.387C46.61 28.4625 46.8054 28.5014 47.0027 28.5014C47.2 28.5014 47.3954 28.4625 47.5777 28.387C47.76 28.3115 47.9257 28.2008 48.0652 28.0613C48.2047 27.9217 48.3154 27.7561 48.3909 27.5738C48.4664 27.3915 48.5053 27.1961 48.5053 26.9988C48.5053 26.8014 48.4664 26.606 48.3909 26.4237C48.3154 26.2414 48.2047 26.0758 48.0652 25.9363L47.6252 25.5H60.0002C62.5189 25.4974 64.9338 24.4956 66.7148 22.7146C68.4958 20.9336 69.4976 18.5188 69.5002 16C69.5002 15.6022 69.3422 15.2207 69.0609 14.9393C68.7796 14.658 68.398 14.5 68.0002 14.5Z" fill="white"/>
</g>
<defs>
<clipPath id="clip0_27_3946">
<rect width="72" height="32" rx="5" fill="white"/>
</clipPath>
</defs>
</svg>
