<svg width="72" height="32" viewBox="0 0 72 32" fill="none" xmlns="http://www.w3.org/2000/svg">
<g clip-path="url(#clip0_27_289)">
<path d="M9 20H18V27C18 27.5304 17.7893 28.0391 17.4142 28.4142C17.0391 28.7893 16.5304 29 16 29H9C8.46957 29 7.96086 28.7893 7.58579 28.4142C7.21071 28.0391 7 27.5304 7 27V22C7 21.4696 7.21071 20.9609 7.58579 20.5858C7.96086 20.2107 8.46957 20 9 20ZM16 3H9C8.46957 3 7.96086 3.21071 7.58579 3.58579C7.21071 3.96086 7 4.46957 7 5V10C7 10.5304 7.21071 11.0391 7.58579 11.4142C7.96086 11.7893 8.46957 12 9 12H18V5C18 4.46957 17.7893 3.96086 17.4142 3.58579C17.0391 3.21071 16.5304 3 16 3ZM27 12H18V20H27C27.5304 20 28.0391 19.7893 28.4142 19.4142C28.7893 19.0391 29 18.5304 29 18V14C29 13.4696 28.7893 12.9609 28.4142 12.5858C28.0391 12.2107 27.5304 12 27 12Z" fill="white"/>
<path d="M67 10.5H59.5V5C59.5 4.33696 59.2366 3.70107 58.7678 3.23223C58.2989 2.76339 57.663 2.5 57 2.5H49C48.337 2.5 47.7011 2.76339 47.2322 3.23223C46.7634 3.70107 46.5 4.33696 46.5 5V11C46.5 11.663 46.7634 12.2989 47.2322 12.7678C47.7011 13.2366 48.337 13.5 49 13.5H56.5V18.5H49C48.337 18.5 47.7011 18.7634 47.2322 19.2322C46.7634 19.7011 46.5 20.337 46.5 21V27C46.5 27.663 46.7634 28.2989 47.2322 28.7678C47.7011 29.2366 48.337 29.5 49 29.5H57C57.663 29.5 58.2989 29.2366 58.7678 28.7678C59.2366 28.2989 59.5 27.663 59.5 27V21.5H67C67.663 21.5 68.2989 21.2366 68.7678 20.7678C69.2366 20.2989 69.5 19.663 69.5 19V13C69.5 12.337 69.2366 11.7011 68.7678 11.2322C68.2989 10.7634 67.663 10.5 67 10.5ZM56.5 26.5H49.5V21.5H56.5V26.5ZM56.5 10.5H49.5V5.5H56.5V10.5ZM66.5 18.5H59.5V13.5H66.5V18.5Z" fill="white"/>
</g>
<defs>
<clipPath id="clip0_27_289">
<rect width="72" height="32" rx="5" fill="white"/>
</clipPath>
</defs>
</svg>
