<svg width="72" height="32" viewBox="0 0 72 32" fill="none" xmlns="http://www.w3.org/2000/svg">
<g clip-path="url(#clip0_27_3956)">
<path d="M29.0004 8.98001V23.02C28.9986 23.3759 28.9013 23.7248 28.7188 24.0303C28.5363 24.3358 28.2752 24.5868 27.9627 24.7571C27.6502 24.9274 27.2977 25.0107 26.942 24.9985C26.5864 24.9863 26.2405 24.8789 25.9404 24.6875L16.0004 18.3575V23.02C15.9986 23.3759 15.9013 23.7248 15.7188 24.0303C15.5363 24.3358 15.2752 24.5868 14.9627 24.7571C14.6502 24.9274 14.2977 25.0107 13.942 24.9985C13.5864 24.9863 13.2405 24.8789 12.9404 24.6875L1.91667 17.6675C1.63581 17.4893 1.40452 17.2429 1.24427 16.9514C1.08402 16.6599 1 16.3327 1 16C1 15.6674 1.08402 15.3401 1.24427 15.0486C1.40452 14.7571 1.63581 14.5108 1.91667 14.3325L12.9404 7.31251C13.2404 7.12073 13.5864 7.01299 13.9422 7.00054C14.298 6.9881 14.6507 7.07141 14.9633 7.24178C15.2759 7.41215 15.5371 7.66333 15.7195 7.96909C15.902 8.27484 15.999 8.62397 16.0004 8.98001V13.6425L25.9404 7.31251C26.2404 7.12073 26.5864 7.01299 26.9422 7.00054C27.298 6.9881 27.6507 7.07141 27.9633 7.24178C28.2759 7.41215 28.5371 7.66333 28.7195 7.96909C28.902 8.27484 28.999 8.62397 29.0004 8.98001Z" fill="white"/>
<path d="M68.2121 6.80749C67.8199 6.5927 67.3772 6.48705 66.9303 6.50156C66.4833 6.51607 66.0484 6.65021 65.6709 6.88999L56.4996 12.7312V8.98124C56.4984 8.5355 56.3774 8.09828 56.1493 7.71527C55.9213 7.33227 55.5946 7.01754 55.2033 6.80396C54.8121 6.59039 54.3707 6.48582 53.9252 6.50117C53.4797 6.51653 53.0465 6.65124 52.6709 6.89125L41.6484 13.9112C41.2965 14.1345 41.0068 14.443 40.806 14.8082C40.6053 15.1733 40.5 15.5833 40.5 16C40.5 16.4167 40.6053 16.8267 40.806 17.1918C41.0068 17.557 41.2965 17.8655 41.6484 18.0887L52.6709 25.11C53.0465 25.35 53.4797 25.4847 53.9252 25.5001C54.3707 25.5154 54.8121 25.4108 55.2033 25.1973C55.5946 24.9837 55.9213 24.669 56.1493 24.286C56.3774 23.903 56.4984 23.4657 56.4996 23.02V19.27L65.6709 25.1112C66.0466 25.3513 66.4799 25.486 66.9255 25.5013C67.3711 25.5166 67.8126 25.4119 68.2039 25.1982C68.5952 24.9845 68.9219 24.6696 69.1498 24.2864C69.3778 23.9032 69.4986 23.4658 69.4996 23.02V8.97999C69.4993 8.53575 69.3796 8.09976 69.1531 7.71759C68.9266 7.33542 68.6017 7.02111 68.2121 6.80749ZM53.4996 22.08L43.9534 16L53.4996 9.92V22.08ZM66.4996 22.08L56.9534 16L66.4996 9.92V22.08Z" fill="white"/>
</g>
<defs>
<clipPath id="clip0_27_3956">
<rect width="72" height="32" rx="5" fill="white"/>
</clipPath>
</defs>
</svg>
