<svg width="72" height="32" viewBox="0 0 72 32" fill="none" xmlns="http://www.w3.org/2000/svg">
<g clip-path="url(#clip0_27_3961)">
<path d="M16 3C13.4288 3 10.9154 3.76244 8.77759 5.1909C6.63975 6.61935 4.97351 8.64968 3.98957 11.0251C3.00563 13.4006 2.74819 16.0144 3.2498 18.5362C3.75141 21.0579 4.98953 23.3743 6.80762 25.1924C8.6257 27.0105 10.9421 28.2486 13.4638 28.7502C15.9856 29.2518 18.5995 28.9944 20.9749 28.0104C23.3503 27.0265 25.3807 25.3603 26.8091 23.2224C28.2376 21.0846 29 18.5712 29 16C28.9964 12.5533 27.6256 9.24882 25.1884 6.81163C22.7512 4.37445 19.4467 3.00364 16 3ZM23 20.5C23 20.6857 22.9483 20.8678 22.8507 21.0257C22.753 21.1837 22.6133 21.3114 22.4472 21.3944C22.2811 21.4775 22.0952 21.5126 21.9102 21.496C21.7252 21.4793 21.5486 21.4114 21.4 21.3L15.4 16.8C15.2758 16.7069 15.175 16.5861 15.1056 16.4472C15.0362 16.3084 15 16.1552 15 16V20.5C15 20.6857 14.9483 20.8678 14.8507 21.0257C14.753 21.1837 14.6133 21.3114 14.4472 21.3944C14.2811 21.4775 14.0952 21.5126 13.9102 21.496C13.7252 21.4793 13.5486 21.4114 13.4 21.3L7.40001 16.8C7.27581 16.7069 7.17501 16.5861 7.10558 16.4472C7.03615 16.3084 7.00001 16.1552 7.00001 16C7.00001 15.8448 7.03615 15.6916 7.10558 15.5528C7.17501 15.4139 7.27581 15.2931 7.40001 15.2L13.4 10.7C13.5486 10.5886 13.7252 10.5207 13.9102 10.504C14.0952 10.4874 14.2811 10.5225 14.4472 10.6056C14.6133 10.6886 14.753 10.8163 14.8507 10.9743C14.9483 11.1322 15 11.3143 15 11.5V16C15 15.8448 15.0362 15.6916 15.1056 15.5528C15.175 15.4139 15.2758 15.2931 15.4 15.2L21.4 10.7C21.5486 10.5886 21.7252 10.5207 21.9102 10.504C22.0952 10.4874 22.2811 10.5225 22.4472 10.6056C22.6133 10.6886 22.753 10.8163 22.8507 10.9743C22.9483 11.1322 23 11.3143 23 11.5V20.5Z" fill="white"/>
<path d="M56 2.5C53.33 2.5 50.7199 3.29176 48.4998 4.77516C46.2797 6.25856 44.5494 8.36697 43.5276 10.8338C42.5058 13.3006 42.2385 16.015 42.7594 18.6337C43.2803 21.2525 44.5661 23.6579 46.4541 25.5459C48.3421 27.434 50.7475 28.7197 53.3663 29.2406C55.985 29.7615 58.6994 29.4942 61.1662 28.4724C63.633 27.4506 65.7414 25.7203 67.2248 23.5002C68.7082 21.2801 69.5 18.67 69.5 16C69.496 12.4208 68.0724 8.98932 65.5416 6.45844C63.0107 3.92756 59.5792 2.50397 56 2.5ZM56 26.5C53.9233 26.5 51.8932 25.8842 50.1665 24.7304C48.4398 23.5767 47.094 21.9368 46.2993 20.0182C45.5046 18.0996 45.2966 15.9884 45.7018 13.9516C46.1069 11.9148 47.1069 10.0438 48.5754 8.57538C50.0438 7.10693 51.9148 6.1069 53.9516 5.70175C55.9884 5.29661 58.0996 5.50454 60.0182 6.29926C61.9368 7.09399 63.5767 8.4398 64.7304 10.1665C65.8842 11.8932 66.5 13.9233 66.5 16C66.497 18.7839 65.3898 21.4528 63.4213 23.4213C61.4529 25.3898 58.7839 26.497 56 26.5ZM62.5 12V20C62.5001 20.2826 62.4203 20.5595 62.2698 20.7988C62.1194 21.038 61.9044 21.2299 61.6497 21.3523C61.3949 21.4747 61.1108 21.5227 60.83 21.4906C60.5492 21.4586 60.2831 21.3479 60.0625 21.1712L55.5 17.5212V20C55.5001 20.2826 55.4203 20.5595 55.2698 20.7988C55.1194 21.038 54.9044 21.2299 54.6497 21.3523C54.3949 21.4747 54.1108 21.5227 53.83 21.4906C53.5492 21.4586 53.2831 21.3479 53.0625 21.1712L48.0625 17.1712C47.8869 17.0307 47.7451 16.8525 47.6476 16.6497C47.5502 16.447 47.4996 16.2249 47.4996 16C47.4996 15.7751 47.5502 15.553 47.6476 15.3503C47.7451 15.1475 47.8869 14.9693 48.0625 14.8287L53.0625 10.8287C53.2831 10.6521 53.5492 10.5414 53.83 10.5094C54.1108 10.4773 54.3949 10.5253 54.6497 10.6477C54.9044 10.7701 55.1194 10.962 55.2698 11.2012C55.4203 11.4405 55.5001 11.7174 55.5 12V14.4788L60.0625 10.8287C60.2831 10.6521 60.5492 10.5414 60.83 10.5094C61.1108 10.4773 61.3949 10.5253 61.6497 10.6477C61.9044 10.7701 62.1194 10.962 62.2698 11.2012C62.4203 11.4405 62.5001 11.7174 62.5 12Z" fill="white"/>
</g>
<defs>
<clipPath id="clip0_27_3961">
<rect width="72" height="32" rx="5" fill="white"/>
</clipPath>
</defs>
</svg>
