<svg width="72" height="32" viewBox="0 0 72 32" fill="none" xmlns="http://www.w3.org/2000/svg">
<g clip-path="url(#clip0_27_3598)">
<path d="M25 6H17V2C17 1.73478 16.8946 1.48043 16.7071 1.29289C16.5196 1.10536 16.2652 1 16 1C15.7348 1 15.4804 1.10536 15.2929 1.29289C15.1054 1.48043 15 1.73478 15 2V6H7C5.93913 6 4.92172 6.42143 4.17157 7.17157C3.42143 7.92172 3 8.93913 3 10V24C3 25.0609 3.42143 26.0783 4.17157 26.8284C4.92172 27.5786 5.93913 28 7 28H25C26.0609 28 27.0783 27.5786 27.8284 26.8284C28.5786 26.0783 29 25.0609 29 24V10C29 8.93913 28.5786 7.92172 27.8284 7.17157C27.0783 6.42143 26.0609 6 25 6ZM21.5 12C21.7967 12 22.0867 12.088 22.3334 12.2528C22.58 12.4176 22.7723 12.6519 22.8858 12.926C22.9993 13.2001 23.0291 13.5017 22.9712 13.7926C22.9133 14.0836 22.7704 14.3509 22.5607 14.5607C22.3509 14.7704 22.0836 14.9133 21.7926 14.9712C21.5017 15.0291 21.2001 14.9994 20.926 14.8858C20.6519 14.7723 20.4176 14.58 20.2528 14.3334C20.088 14.0867 20 13.7967 20 13.5C20 13.1022 20.158 12.7206 20.4393 12.4393C20.7206 12.158 21.1022 12 21.5 12ZM12 23H10C9.46957 23 8.96086 22.7893 8.58579 22.4142C8.21071 22.0391 8 21.5304 8 21C8 20.4696 8.21071 19.9609 8.58579 19.5858C8.96086 19.2107 9.46957 19 10 19H12V23ZM10.5 15C10.2033 15 9.91332 14.912 9.66665 14.7472C9.41997 14.5824 9.22771 14.3481 9.11418 14.074C9.00065 13.7999 8.97094 13.4983 9.02882 13.2074C9.0867 12.9164 9.22956 12.6491 9.43934 12.4393C9.64912 12.2296 9.91639 12.0867 10.2074 12.0288C10.4983 11.9709 10.7999 12.0006 11.074 12.1142C11.3481 12.2277 11.5824 12.42 11.7472 12.6666C11.912 12.9133 12 13.2033 12 13.5C12 13.8978 11.842 14.2794 11.5607 14.5607C11.2794 14.842 10.8978 15 10.5 15ZM18 23H14V19H18V23ZM22 23H20V19H22C22.5304 19 23.0391 19.2107 23.4142 19.5858C23.7893 19.9609 24 20.4696 24 21C24 21.5304 23.7893 22.0391 23.4142 22.4142C23.0391 22.7893 22.5304 23 22 23Z" fill="white"/>
<path d="M49 13C49 12.6044 49.1173 12.2178 49.3371 11.8889C49.5568 11.56 49.8692 11.3036 50.2346 11.1522C50.6001 11.0009 51.0022 10.9613 51.3902 11.0384C51.7781 11.1156 52.1345 11.3061 52.4142 11.5858C52.6939 11.8655 52.8844 12.2219 52.9616 12.6098C53.0387 12.9978 52.9991 13.3999 52.8478 13.7654C52.6964 14.1308 52.44 14.4432 52.1111 14.6629C51.7822 14.8827 51.3956 15 51 15C50.4696 15 49.9609 14.7893 49.5858 14.4142C49.2107 14.0391 49 13.5304 49 13ZM61 15C61.3956 15 61.7822 14.8827 62.1111 14.6629C62.44 14.4432 62.6964 14.1308 62.8478 13.7654C62.9991 13.3999 63.0387 12.9978 62.9616 12.6098C62.8844 12.2219 62.6939 11.8655 62.4142 11.5858C62.1345 11.3061 61.7781 11.1156 61.3902 11.0384C61.0022 10.9613 60.6001 11.0009 60.2346 11.1522C59.8692 11.3036 59.5568 11.56 59.3371 11.8889C59.1173 12.2178 59 12.6044 59 13C59 13.5304 59.2107 14.0391 59.5858 14.4142C59.9609 14.7893 60.4696 15 61 15ZM69.5 10V24C69.5 25.1935 69.0259 26.3381 68.182 27.182C67.3381 28.0259 66.1935 28.5 65 28.5H47C45.8065 28.5 44.6619 28.0259 43.818 27.182C42.9741 26.3381 42.5 25.1935 42.5 24V10C42.5 8.80653 42.9741 7.66193 43.818 6.81802C44.6619 5.97411 45.8065 5.5 47 5.5H54.5V2C54.5 1.60218 54.658 1.22064 54.9393 0.93934C55.2206 0.658035 55.6022 0.5 56 0.5C56.3978 0.5 56.7794 0.658035 57.0607 0.93934C57.342 1.22064 57.5 1.60218 57.5 2V5.5H65C66.1935 5.5 67.3381 5.97411 68.182 6.81802C69.0259 7.66193 69.5 8.80653 69.5 10ZM66.5 10C66.5 9.60218 66.342 9.22064 66.0607 8.93934C65.7794 8.65804 65.3978 8.5 65 8.5H47C46.6022 8.5 46.2206 8.65804 45.9393 8.93934C45.658 9.22064 45.5 9.60218 45.5 10V24C45.5 24.3978 45.658 24.7794 45.9393 25.0607C46.2206 25.342 46.6022 25.5 47 25.5H65C65.3978 25.5 65.7794 25.342 66.0607 25.0607C66.342 24.7794 66.5 24.3978 66.5 24V10ZM65 20.25C65 21.2446 64.6049 22.1984 63.9017 22.9017C63.1984 23.6049 62.2446 24 61.25 24H50.75C49.7554 24 48.8016 23.6049 48.0983 22.9017C47.3951 22.1984 47 21.2446 47 20.25C47 19.2554 47.3951 18.3016 48.0983 17.5983C48.8016 16.8951 49.7554 16.5 50.75 16.5H61.25C62.2446 16.5 63.1984 16.8951 63.9017 17.5983C64.6049 18.3016 65 19.2554 65 20.25ZM55 19.5V21H57V19.5H55ZM50.75 21H52V19.5H50.75C50.5511 19.5 50.3603 19.579 50.2197 19.7197C50.079 19.8603 50 20.0511 50 20.25C50 20.4489 50.079 20.6397 50.2197 20.7803C50.3603 20.921 50.5511 21 50.75 21ZM62 20.25C62 20.0511 61.921 19.8603 61.7803 19.7197C61.6397 19.579 61.4489 19.5 61.25 19.5H60V21H61.25C61.4489 21 61.6397 20.921 61.7803 20.7803C61.921 20.6397 62 20.4489 62 20.25Z" fill="white"/>
</g>
<defs>
<clipPath id="clip0_27_3598">
<rect width="72" height="32" rx="5" fill="white"/>
</clipPath>
</defs>
</svg>
