<svg width="72" height="32" viewBox="0 0 72 32" fill="none" xmlns="http://www.w3.org/2000/svg">
<g clip-path="url(#clip0_27_6780)">
<path d="M12.732 23.8925C12.1682 25.125 10.287 28 5.00072 28C4.7355 28 4.48115 27.8947 4.29361 27.7071C4.10608 27.5196 4.00072 27.2652 4.00072 27C4.00072 21.7138 6.87572 19.8325 8.10822 19.2688C8.22772 19.2143 8.35679 19.1838 8.48805 19.1792C8.61932 19.1746 8.7502 19.1959 8.87324 19.2418C8.99628 19.2878 9.10906 19.3576 9.20514 19.4471C9.30122 19.5367 9.37872 19.6443 9.43322 19.7638C9.48772 19.8833 9.51815 20.0123 9.52277 20.1436C9.52738 20.2749 9.5061 20.4057 9.46014 20.5288C9.41417 20.6518 9.34442 20.7646 9.25487 20.8607C9.16532 20.9568 9.05772 21.0343 8.93822 21.0888C8.13447 21.455 6.36072 22.6338 6.04822 25.9525C9.36697 25.64 10.5482 23.8663 10.912 23.0625C10.9665 22.943 11.044 22.8354 11.1401 22.7459C11.2361 22.6563 11.3489 22.5866 11.472 22.5406C11.595 22.4946 11.7259 22.4734 11.8571 22.478C11.9884 22.4826 12.1175 22.513 12.237 22.5675C12.3565 22.622 12.4641 22.6995 12.5536 22.7956C12.6432 22.8917 12.7129 23.0045 12.7589 23.1275C12.8049 23.2505 12.8261 23.3814 12.8215 23.5127C12.8169 23.6439 12.7865 23.773 12.732 23.8925ZM27.982 5.89252C27.9523 5.40492 27.7453 4.94503 27.3999 4.59962C27.0545 4.2542 26.5946 4.04715 26.107 4.01752C24.5345 3.92377 20.5157 4.06751 17.182 7.40126L11.0007 13.5875C10.9079 13.6805 10.7977 13.7543 10.6763 13.8047C10.555 13.8551 10.4249 13.8811 10.2935 13.8812C10.0281 13.8814 9.77353 13.7762 9.58572 13.5888C9.39791 13.4013 9.29227 13.1469 9.29204 12.8815C9.29181 12.6162 9.397 12.3616 9.58447 12.1738L12.9045 8.85252C12.974 8.7826 13.0213 8.6937 13.0404 8.59698C13.0595 8.50027 13.0496 8.40006 13.0119 8.30895C12.9743 8.21785 12.9105 8.13991 12.8287 8.08495C12.7468 8.02998 12.6506 8.00043 12.552 8.00002H9.29447C9.03102 7.99863 8.76992 8.04963 8.52636 8.15006C8.28279 8.25049 8.06163 8.39834 7.87572 8.58502L3.58822 12.875C3.32528 13.1378 3.14077 13.4686 3.05541 13.8304C2.97004 14.1922 2.98719 14.5706 3.10494 14.9232C3.22268 15.2758 3.43636 15.5886 3.72199 15.8265C4.00762 16.0644 4.3539 16.218 4.72197 16.27L9.53072 16.9413L15.057 22.4675L15.7282 27.2788C15.7798 27.6469 15.9334 27.9932 16.1715 28.2786C16.4096 28.5639 16.7228 28.777 17.0757 28.8938C17.2813 28.9624 17.4965 28.9975 17.7132 28.9975C17.9756 28.998 18.2355 28.9466 18.4779 28.8462C18.7204 28.7458 18.9405 28.5984 19.1257 28.4125L23.4157 24.125C23.6018 23.9387 23.7493 23.7174 23.8497 23.474C23.9501 23.2305 24.0014 22.9696 24.0007 22.7063V19.4488C24.0006 19.3499 23.9711 19.2533 23.9161 19.1712C23.861 19.0891 23.7829 19.0252 23.6915 18.9875C23.6002 18.9497 23.4997 18.9399 23.4028 18.9593C23.3058 18.9787 23.2168 19.0263 23.147 19.0963L19.8257 22.4163C19.7286 22.5135 19.6124 22.5897 19.4846 22.64C19.3567 22.6904 19.2198 22.7138 19.0824 22.7089C18.9451 22.704 18.8102 22.6708 18.6862 22.6114C18.5623 22.552 18.4519 22.4677 18.362 22.3638C18.1979 22.1653 18.1146 21.9124 18.1285 21.6554C18.1424 21.3983 18.2525 21.1559 18.437 20.9763L24.5957 14.8175C27.932 11.4825 28.0757 7.46377 27.982 5.89002V5.89252Z" fill="white"/>
<path d="M68.4821 5.86124C68.4448 5.25217 68.186 4.67778 67.7545 4.24629C67.3231 3.81481 66.7487 3.55604 66.1396 3.51874C64.4983 3.42249 60.3083 3.57124 56.8296 7.04874L56.3758 7.49999H49.2958C48.9674 7.49889 48.642 7.56308 48.3386 7.68883C48.0351 7.81458 47.7597 7.99938 47.5283 8.23249L43.2346 12.5237C42.9059 12.8523 42.6753 13.266 42.5686 13.7183C42.462 14.1707 42.4836 14.6438 42.6309 15.0846C42.7783 15.5253 43.0456 15.9163 43.4029 16.2136C43.7601 16.5109 44.1931 16.7027 44.6533 16.7675L49.2958 17.415L54.5858 22.705L55.2346 27.3525C55.2978 27.8134 55.4891 28.2474 55.7868 28.6049C56.0844 28.9625 56.4765 29.2293 56.9183 29.375C57.1753 29.4592 57.4442 29.5014 57.7146 29.5C58.0422 29.4998 58.3666 29.4348 58.669 29.3089C58.9715 29.183 59.2461 28.9986 59.4771 28.7662L63.7696 24.4725C64.0024 24.2409 64.1869 23.9654 64.3124 23.662C64.4379 23.3586 64.502 23.0333 64.5008 22.705V15.625L64.9508 15.1762C68.4296 11.6925 68.5783 7.49999 68.4821 5.86124ZM49.5008 10.5H53.3758L49.4696 14.41L46.0658 13.935L49.5008 10.5ZM58.9508 9.17124C59.8068 8.30824 60.828 7.62684 61.9535 7.16785C63.079 6.70885 64.2855 6.4817 65.5008 6.49999C65.5199 7.71571 65.2929 8.92274 64.8337 10.0485C64.3744 11.1744 63.6923 12.1957 62.8283 13.0512L56.0008 19.875L52.1258 16L58.9508 9.17124ZM61.5008 22.5L58.0646 25.9362L57.5896 22.5325L61.5008 18.625V22.5ZM52.5008 25.25C51.4121 26.7312 49.2271 28.5 45.0008 28.5C44.603 28.5 44.2215 28.342 43.9402 28.0606C43.6589 27.7793 43.5008 27.3978 43.5008 27C43.5008 22.77 45.2658 20.585 46.7508 19.5C46.908 19.368 47.0905 19.2696 47.2871 19.211C47.4838 19.1524 47.6904 19.1347 47.8941 19.1591C48.0979 19.1835 48.2944 19.2495 48.4717 19.3529C48.6489 19.4563 48.803 19.595 48.9245 19.7603C49.046 19.9257 49.1323 20.1142 49.178 20.3143C49.2237 20.5143 49.2279 20.7216 49.1903 20.9233C49.1527 21.1251 49.0741 21.3169 48.9594 21.4871C48.8447 21.6572 48.6963 21.802 48.5233 21.9125C47.7883 22.4537 46.9396 23.475 46.6258 25.375C48.5271 25.0612 49.5471 24.2125 50.0883 23.4775C50.1988 23.3046 50.3436 23.1562 50.5138 23.0414C50.6839 22.9267 50.8758 22.8481 51.0775 22.8105C51.2792 22.7729 51.4865 22.7771 51.6866 22.8228C51.8866 22.8685 52.0751 22.9548 52.2405 23.0763C52.4059 23.1978 52.5445 23.3519 52.648 23.5292C52.7514 23.7064 52.8173 23.903 52.8417 24.1067C52.8661 24.3105 52.8485 24.5171 52.7898 24.7137C52.7312 24.9103 52.6328 25.0929 52.5008 25.25Z" fill="white"/>
</g>
<defs>
<clipPath id="clip0_27_6780">
<rect width="72" height="32" rx="5" fill="white"/>
</clipPath>
</defs>
</svg>
