<svg width="72" height="32" viewBox="0 0 72 32" fill="none" xmlns="http://www.w3.org/2000/svg">
<g clip-path="url(#clip0_27_6775)">
<path d="M18.9993 28C18.9993 28.2652 18.894 28.5196 18.7064 28.7071C18.5189 28.8946 18.2645 29 17.9993 29H13.9993C13.7341 29 13.4797 28.8946 13.2922 28.7071C13.1047 28.5196 12.9993 28.2652 12.9993 28C12.9993 27.7348 13.1047 27.4804 13.2922 27.2929C13.4797 27.1054 13.7341 27 13.9993 27H17.9993C18.2645 27 18.5189 27.1054 18.7064 27.2929C18.894 27.4804 18.9993 27.7348 18.9993 28ZM27.9518 19.4788L26.4068 26.4325C26.3335 26.7627 26.1777 27.0689 25.9538 27.3226C25.73 27.5762 25.4455 27.7689 25.127 27.8826C24.8084 27.9964 24.4662 28.0275 24.1324 27.973C23.7985 27.9186 23.484 27.7803 23.2181 27.5713L19.8131 25H12.1881L8.78056 27.5713C8.51467 27.7803 8.2001 27.9186 7.86626 27.973C7.53241 28.0275 7.19022 27.9964 6.87167 27.8826C6.55312 27.7689 6.26862 27.5762 6.04479 27.3226C5.82096 27.0689 5.66511 26.7627 5.59181 26.4325L4.04681 19.4788C3.98128 19.1803 3.98459 18.8709 4.0565 18.574C4.1284 18.277 4.26702 18.0004 4.46181 17.765L8.03182 13.4825C8.15164 11.9087 8.51295 10.3627 9.10307 8.89875C10.7156 4.85625 13.6031 2.32 14.7743 1.4175C15.1249 1.14586 15.5558 0.998444 15.9993 0.998444C16.4428 0.998444 16.8737 1.14586 17.2243 1.4175C18.3918 2.32 21.2831 4.85625 22.8956 8.89875C23.4857 10.3627 23.847 11.9087 23.9668 13.4825L27.5368 17.765C27.7316 18.0004 27.8702 18.277 27.9421 18.574C28.014 18.8709 28.0174 19.1803 27.9518 19.4788ZM10.5481 23.7288C9.20556 21.2846 8.39056 18.8817 8.10307 16.52L5.99931 19.045L7.54431 26L7.56681 25.9838L10.5481 23.7288ZM17.4993 12.5C17.4993 12.2033 17.4113 11.9133 17.2465 11.6666C17.0817 11.42 16.8474 11.2277 16.5733 11.1142C16.2993 11.0007 15.9977 10.9709 15.7067 11.0288C15.4157 11.0867 15.1484 11.2296 14.9387 11.4393C14.7289 11.6491 14.586 11.9164 14.5281 12.2074C14.4703 12.4983 14.5 12.7999 14.6135 13.074C14.727 13.3481 14.9193 13.5824 15.166 13.7472C15.4126 13.912 15.7026 14 15.9993 14C16.3971 14 16.7787 13.842 17.06 13.5607C17.3413 13.2794 17.4993 12.8978 17.4993 12.5ZM25.9993 19.045L23.8956 16.52C23.6106 18.8767 22.7956 21.2804 21.4506 23.7313L24.4318 25.9813L24.4543 25.9975L25.9993 19.045Z" fill="white"/>
<path d="M59.4997 28.5C59.4997 28.8978 59.3417 29.2794 59.0603 29.5607C58.779 29.842 58.3975 30 57.9997 30H53.9997C53.6019 30 53.2203 29.842 52.939 29.5607C52.6577 29.2794 52.4997 28.8978 52.4997 28.5C52.4997 28.1022 52.6577 27.7207 52.939 27.4394C53.2203 27.158 53.6019 27 53.9997 27H57.9997C58.3975 27 58.779 27.158 59.0603 27.4394C59.3417 27.7207 59.4997 28.1022 59.4997 28.5ZM55.9997 14.5C56.3953 14.5 56.7819 14.3827 57.1108 14.163C57.4397 13.9432 57.6961 13.6308 57.8474 13.2654C57.9988 12.8999 58.0384 12.4978 57.9613 12.1098C57.8841 11.7219 57.6936 11.3655 57.4139 11.0858C57.1342 10.8061 56.7778 10.6156 56.3899 10.5384C56.0019 10.4613 55.5998 10.5009 55.2343 10.6523C54.8689 10.8036 54.5565 11.06 54.3367 11.3889C54.117 11.7178 53.9997 12.1044 53.9997 12.5C53.9997 13.0304 54.2104 13.5392 54.5855 13.9142C54.9605 14.2893 55.4693 14.5 55.9997 14.5ZM68.4409 19.5875L66.8959 26.5413C66.805 26.9563 66.6093 27.3411 66.3275 27.6591C66.0456 27.977 65.6871 28.2175 65.2859 28.3575C65.0172 28.4519 64.7345 28.5001 64.4497 28.5C63.8922 28.4995 63.3511 28.3115 62.9134 27.9663L59.6459 25.5H52.3534L49.0859 27.9675C48.6481 28.3123 48.107 28.4999 47.5497 28.5C47.2648 28.4997 46.9821 28.4511 46.7134 28.3563C46.3123 28.2162 45.9537 27.9758 45.6719 27.6578C45.3901 27.3399 45.1943 26.955 45.1034 26.54L43.5584 19.5875C43.4765 19.2144 43.4808 18.8274 43.5709 18.4562C43.661 18.0849 43.8346 17.7391 44.0784 17.445L47.5572 13.27C47.6903 11.7057 48.0547 10.1699 48.6384 8.71251C50.2972 4.55626 53.2634 1.95001 54.4684 1.02251C54.9067 0.682955 55.4453 0.498688 55.9997 0.498688C56.5541 0.498688 57.0927 0.682955 57.5309 1.02251C58.7309 1.95001 61.7022 4.55626 63.3609 8.71251C63.9447 10.1699 64.3091 11.7057 64.4422 13.27L67.9209 17.445C68.1648 17.7391 68.3384 18.0849 68.4285 18.4562C68.5186 18.8274 68.5229 19.2144 68.4409 19.5875ZM52.7234 22.5H59.2759C61.7147 18.0375 62.1509 13.7775 60.5747 9.82501C59.2997 6.62501 57.0247 4.48751 55.9997 3.64001C54.9747 4.48751 52.6997 6.62501 51.4247 9.82501C49.8472 13.7775 50.2847 18.0375 52.7234 22.5ZM49.9047 23.59C48.9073 21.7363 48.1944 19.7432 47.7897 17.6775L46.5397 19.1775L47.8622 25.1325L49.9047 23.59ZM65.4584 19.1763L64.2084 17.6763C63.8037 19.742 63.0908 21.7351 62.0934 23.5888L64.1347 25.13L65.4584 19.1763Z" fill="white"/>
</g>
<defs>
<clipPath id="clip0_27_6775">
<rect width="72" height="32" rx="5" fill="white"/>
</clipPath>
</defs>
</svg>
