<svg width="72" height="32" viewBox="0 0 72 32" fill="none" xmlns="http://www.w3.org/2000/svg">
<g clip-path="url(#clip0_27_5518)">
<path d="M28 16V19C28 19.5304 27.7893 20.0391 27.4142 20.4142C27.0391 20.7893 26.5304 21 26 21H6C5.46957 21 4.96086 20.7893 4.58579 20.4142C4.21071 20.0391 4 19.5304 4 19V16C4 15.4696 4.21071 14.9609 4.58579 14.5858C4.96086 14.2107 5.46957 14 6 14H26C26.5304 14 27.0391 14.2107 27.4142 14.5858C27.7893 14.9609 28 15.4696 28 16ZM26 5H6C5.46957 5 4.96086 5.21071 4.58579 5.58579C4.21071 5.96086 4 6.46957 4 7V10C4 10.5304 4.21071 11.0391 4.58579 11.4142C4.96086 11.7893 5.46957 12 6 12H26C26.5304 12 27.0391 11.7893 27.4142 11.4142C27.7893 11.0391 28 10.5304 28 10V7C28 6.46957 27.7893 5.96086 27.4142 5.58579C27.0391 5.21071 26.5304 5 26 5ZM19 26H17V24C17 23.7348 16.8946 23.4804 16.7071 23.2929C16.5196 23.1054 16.2652 23 16 23C15.7348 23 15.4804 23.1054 15.2929 23.2929C15.1054 23.4804 15 23.7348 15 24V26H13C12.7348 26 12.4804 26.1054 12.2929 26.2929C12.1054 26.4804 12 26.7348 12 27C12 27.2652 12.1054 27.5196 12.2929 27.7071C12.4804 27.8946 12.7348 28 13 28H15V30C15 30.2652 15.1054 30.5196 15.2929 30.7071C15.4804 30.8946 15.7348 31 16 31C16.2652 31 16.5196 30.8946 16.7071 30.7071C16.8946 30.5196 17 30.2652 17 30V28H19C19.2652 28 19.5196 27.8946 19.7071 27.7071C19.8946 27.5196 20 27.2652 20 27C20 26.7348 19.8946 26.4804 19.7071 26.2929C19.5196 26.1054 19.2652 26 19 26Z" fill="white"/>
<path d="M66 14H46C45.337 14 44.7011 14.2634 44.2322 14.7322C43.7634 15.2011 43.5 15.837 43.5 16.5V19.5C43.5 20.163 43.7634 20.7989 44.2322 21.2678C44.7011 21.7366 45.337 22 46 22H66C66.663 22 67.2989 21.7366 67.7678 21.2678C68.2366 20.7989 68.5 20.163 68.5 19.5V16.5C68.5 15.837 68.2366 15.2011 67.7678 14.7322C67.2989 14.2634 66.663 14 66 14ZM65.5 19H46.5V17H65.5V19ZM66 4.5H46C45.337 4.5 44.7011 4.76339 44.2322 5.23223C43.7634 5.70107 43.5 6.33696 43.5 7V10C43.5 10.663 43.7634 11.2989 44.2322 11.7678C44.7011 12.2366 45.337 12.5 46 12.5H66C66.663 12.5 67.2989 12.2366 67.7678 11.7678C68.2366 11.2989 68.5 10.663 68.5 10V7C68.5 6.33696 68.2366 5.70107 67.7678 5.23223C67.2989 4.76339 66.663 4.5 66 4.5ZM65.5 9.5H46.5V7.5H65.5V9.5ZM60 27.5C60 27.8978 59.842 28.2794 59.5607 28.5607C59.2794 28.842 58.8978 29 58.5 29H57.5V30C57.5 30.3978 57.342 30.7794 57.0607 31.0607C56.7794 31.342 56.3978 31.5 56 31.5C55.6022 31.5 55.2206 31.342 54.9393 31.0607C54.658 30.7794 54.5 30.3978 54.5 30V29H53.5C53.1022 29 52.7206 28.842 52.4393 28.5607C52.158 28.2794 52 27.8978 52 27.5C52 27.1022 52.158 26.7206 52.4393 26.4393C52.7206 26.158 53.1022 26 53.5 26H54.5V25C54.5 24.6022 54.658 24.2206 54.9393 23.9393C55.2206 23.658 55.6022 23.5 56 23.5C56.3978 23.5 56.7794 23.658 57.0607 23.9393C57.342 24.2206 57.5 24.6022 57.5 25V26H58.5C58.8978 26 59.2794 26.158 59.5607 26.4393C59.842 26.7206 60 27.1022 60 27.5Z" fill="white"/>
</g>
<defs>
<clipPath id="clip0_27_5518">
<rect width="72" height="32" rx="5" fill="white"/>
</clipPath>
</defs>
</svg>
