<svg width="72" height="32" viewBox="0 0 72 32" fill="none" xmlns="http://www.w3.org/2000/svg">
<g clip-path="url(#clip0_27_5523)">
<path d="M28 22V25C28 25.5304 27.7893 26.0391 27.4142 26.4142C27.0391 26.7893 26.5304 27 26 27H6C5.46957 27 4.96086 26.7893 4.58579 26.4142C4.21071 26.0391 4 25.5304 4 25V22C4 21.4696 4.21071 20.9609 4.58579 20.5858C4.96086 20.2107 5.46957 20 6 20H26C26.5304 20 27.0391 20.2107 27.4142 20.5858C27.7893 20.9609 28 21.4696 28 22ZM26 11H6C5.46957 11 4.96086 11.2107 4.58579 11.5858C4.21071 11.9609 4 12.4696 4 13V16C4 16.5304 4.21071 17.0391 4.58579 17.4142C4.96086 17.7893 5.46957 18 6 18H26C26.5304 18 27.0391 17.7893 27.4142 17.4142C27.7893 17.0391 28 16.5304 28 16V13C28 12.4696 27.7893 11.9609 27.4142 11.5858C27.0391 11.2107 26.5304 11 26 11ZM13 6H15V8C15 8.26522 15.1054 8.51957 15.2929 8.70711C15.4804 8.89464 15.7348 9 16 9C16.2652 9 16.5196 8.89464 16.7071 8.70711C16.8946 8.51957 17 8.26522 17 8V6H19C19.2652 6 19.5196 5.89464 19.7071 5.70711C19.8946 5.51957 20 5.26522 20 5C20 4.73478 19.8946 4.48043 19.7071 4.29289C19.5196 4.10536 19.2652 4 19 4H17V2C17 1.73478 16.8946 1.48043 16.7071 1.29289C16.5196 1.10536 16.2652 1 16 1C15.7348 1 15.4804 1.10536 15.2929 1.29289C15.1054 1.48043 15 1.73478 15 2V4H13C12.7348 4 12.4804 4.10536 12.2929 4.29289C12.1054 4.48043 12 4.73478 12 5C12 5.26522 12.1054 5.51957 12.2929 5.70711C12.4804 5.89464 12.7348 6 13 6Z" fill="white"/>
<path d="M66 19.5H46C45.337 19.5 44.7011 19.7634 44.2322 20.2322C43.7634 20.7011 43.5 21.337 43.5 22V25C43.5 25.663 43.7634 26.2989 44.2322 26.7678C44.7011 27.2366 45.337 27.5 46 27.5H66C66.663 27.5 67.2989 27.2366 67.7678 26.7678C68.2366 26.2989 68.5 25.663 68.5 25V22C68.5 21.337 68.2366 20.7011 67.7678 20.2322C67.2989 19.7634 66.663 19.5 66 19.5ZM65.5 24.5H46.5V22.5H65.5V24.5ZM66 10H46C45.337 10 44.7011 10.2634 44.2322 10.7322C43.7634 11.2011 43.5 11.837 43.5 12.5V15.5C43.5 16.163 43.7634 16.7989 44.2322 17.2678C44.7011 17.7366 45.337 18 46 18H66C66.663 18 67.2989 17.7366 67.7678 17.2678C68.2366 16.7989 68.5 16.163 68.5 15.5V12.5C68.5 11.837 68.2366 11.2011 67.7678 10.7322C67.2989 10.2634 66.663 10 66 10ZM65.5 15H46.5V13H65.5V15ZM52 4.5C52 4.10218 52.158 3.72064 52.4393 3.43934C52.7206 3.15804 53.1022 3 53.5 3H54.5V2C54.5 1.60218 54.658 1.22064 54.9393 0.93934C55.2206 0.658035 55.6022 0.5 56 0.5C56.3978 0.5 56.7794 0.658035 57.0607 0.93934C57.342 1.22064 57.5 1.60218 57.5 2V3H58.5C58.8978 3 59.2794 3.15804 59.5607 3.43934C59.842 3.72064 60 4.10218 60 4.5C60 4.89782 59.842 5.27936 59.5607 5.56066C59.2794 5.84196 58.8978 6 58.5 6H57.5V7C57.5 7.39782 57.342 7.77936 57.0607 8.06066C56.7794 8.34196 56.3978 8.5 56 8.5C55.6022 8.5 55.2206 8.34196 54.9393 8.06066C54.658 7.77936 54.5 7.39782 54.5 7V6H53.5C53.1022 6 52.7206 5.84196 52.4393 5.56066C52.158 5.27936 52 4.89782 52 4.5Z" fill="white"/>
</g>
<defs>
<clipPath id="clip0_27_5523">
<rect width="72" height="32" rx="5" fill="white"/>
</clipPath>
</defs>
</svg>
