<svg width="72" height="32" viewBox="0 0 72 32" fill="none" xmlns="http://www.w3.org/2000/svg">
<g clip-path="url(#clip0_27_700)">
<path d="M26 4H6C5.46957 4 4.96086 4.21071 4.58579 4.58579C4.21071 4.96086 4 5.46957 4 6V26C4 26.5304 4.21071 27.0391 4.58579 27.4142C4.96086 27.7893 5.46957 28 6 28H26C26.5304 28 27.0391 27.7893 27.4142 27.4142C27.7893 27.0391 28 26.5304 28 26V6C28 5.46957 27.7893 4.96086 27.4142 4.58579C27.0391 4.21071 26.5304 4 26 4ZM9.5 24C9.20333 24 8.91332 23.912 8.66665 23.7472C8.41997 23.5824 8.22771 23.3481 8.11418 23.074C8.00065 22.7999 7.97094 22.4983 8.02882 22.2074C8.0867 21.9164 8.22956 21.6491 8.43934 21.4393C8.64912 21.2296 8.91639 21.0867 9.20736 21.0288C9.49834 20.9709 9.79994 21.0007 10.074 21.1142C10.3481 21.2277 10.5824 21.42 10.7472 21.6666C10.912 21.9133 11 22.2033 11 22.5C11 22.8978 10.842 23.2794 10.5607 23.5607C10.2794 23.842 9.89782 24 9.5 24ZM17 24C16.7348 24 16.4804 23.8946 16.2929 23.7071C16.1054 23.5196 16 23.2652 16 23C15.998 21.1441 15.2599 19.3648 13.9476 18.0524C12.6352 16.7401 10.8559 16.002 9 16C8.73478 16 8.48043 15.8946 8.29289 15.7071C8.10536 15.5196 8 15.2652 8 15C8 14.7348 8.10536 14.4804 8.29289 14.2929C8.48043 14.1054 8.73478 14 9 14C11.3861 14.0026 13.6738 14.9517 15.361 16.639C17.0483 18.3262 17.9974 20.6139 18 23C18 23.2652 17.8946 23.5196 17.7071 23.7071C17.5196 23.8946 17.2652 24 17 24ZM23 24C22.7348 24 22.4804 23.8946 22.2929 23.7071C22.1054 23.5196 22 23.2652 22 23C21.9964 19.5533 20.6256 16.2488 18.1884 13.8116C15.7512 11.3744 12.4467 10.0036 9 10C8.73478 10 8.48043 9.89464 8.29289 9.70711C8.10536 9.51957 8 9.26522 8 9C8 8.73478 8.10536 8.48043 8.29289 8.29289C8.48043 8.10536 8.73478 8 9 8C12.9769 8.0043 16.7897 9.58604 19.6019 12.3981C22.414 15.2103 23.9957 19.0231 24 23C24 23.2652 23.8946 23.5196 23.7071 23.7071C23.5196 23.8946 23.2652 24 23 24Z" fill="white"/>
<path d="M68.5 24C68.5 24.3978 68.342 24.7794 68.0607 25.0607C67.7794 25.342 67.3978 25.5 67 25.5C66.6022 25.5 66.2206 25.342 65.9393 25.0607C65.658 24.7794 65.5 24.3978 65.5 24C65.5 14.35 57.65 6.5 48 6.5C47.6022 6.5 47.2206 6.34196 46.9393 6.06066C46.658 5.77936 46.5 5.39782 46.5 5C46.5 4.60218 46.658 4.22064 46.9393 3.93934C47.2206 3.65804 47.6022 3.5 48 3.5C59.3038 3.5 68.5 12.6962 68.5 24ZM48 12.5C47.6022 12.5 47.2206 12.658 46.9393 12.9393C46.658 13.2206 46.5 13.6022 46.5 14C46.5 14.3978 46.658 14.7794 46.9393 15.0607C47.2206 15.342 47.6022 15.5 48 15.5C50.2536 15.5023 52.4143 16.3986 54.0079 17.9922C55.6014 19.5857 56.4977 21.7464 56.5 24C56.5 24.3978 56.658 24.7794 56.9393 25.0607C57.2206 25.342 57.6022 25.5 58 25.5C58.3978 25.5 58.7794 25.342 59.0607 25.0607C59.342 24.7794 59.5 24.3978 59.5 24C59.4967 20.951 58.284 18.0279 56.1281 15.8719C53.9721 13.716 51.049 12.5033 48 12.5ZM48.5 21.5C48.1044 21.5 47.7178 21.6173 47.3889 21.8371C47.06 22.0568 46.8036 22.3692 46.6522 22.7346C46.5009 23.1001 46.4613 23.5022 46.5384 23.8902C46.6156 24.2781 46.8061 24.6345 47.0858 24.9142C47.3655 25.1939 47.7219 25.3844 48.1098 25.4616C48.4978 25.5387 48.8999 25.4991 49.2654 25.3478C49.6308 25.1964 49.9432 24.94 50.1629 24.6111C50.3827 24.2822 50.5 23.8956 50.5 23.5C50.5 22.9696 50.2893 22.4609 49.9142 22.0858C49.5391 21.7107 49.0304 21.5 48.5 21.5Z" fill="white"/>
</g>
<defs>
<clipPath id="clip0_27_700">
<rect width="72" height="32" rx="5" fill="white"/>
</clipPath>
</defs>
</svg>
