<svg width="72" height="32" viewBox="0 0 72 32" fill="none" xmlns="http://www.w3.org/2000/svg">
<g clip-path="url(#clip0_27_1437)">
<path d="M25 2C24.7348 2 24.4804 2.10536 24.2929 2.29289C24.1054 2.48043 24 2.73478 24 3V5H20V3C20 2.73478 19.8946 2.48043 19.7071 2.29289C19.5196 2.10536 19.2652 2 19 2C18.7348 2 18.4804 2.10536 18.2929 2.29289C18.1054 2.48043 18 2.73478 18 3V5H14V3C14 2.73478 13.8946 2.48043 13.7071 2.29289C13.5196 2.10536 13.2652 2 13 2C12.7348 2 12.4804 2.10536 12.2929 2.29289C12.1054 2.48043 12 2.73478 12 3V5H8V3C8 2.73478 7.89464 2.48043 7.70711 2.29289C7.51957 2.10536 7.26522 2 7 2C6.73478 2 6.48043 2.10536 6.29289 2.29289C6.10536 2.48043 6 2.73478 6 3V29C6 29.2652 6.10536 29.5196 6.29289 29.7071C6.48043 29.8946 6.73478 30 7 30C7.26522 30 7.51957 29.8946 7.70711 29.7071C7.89464 29.5196 8 29.2652 8 29V27H12V29C12 29.2652 12.1054 29.5196 12.2929 29.7071C12.4804 29.8946 12.7348 30 13 30C13.2652 30 13.5196 29.8946 13.7071 29.7071C13.8946 29.5196 14 29.2652 14 29V27H18V29C18 29.2652 18.1054 29.5196 18.2929 29.7071C18.4804 29.8946 18.7348 30 19 30C19.2652 30 19.5196 29.8946 19.7071 29.7071C19.8946 29.5196 20 29.2652 20 29V27H24V29C24 29.2652 24.1054 29.5196 24.2929 29.7071C24.4804 29.8946 24.7348 30 25 30C25.2652 30 25.5196 29.8946 25.7071 29.7071C25.8946 29.5196 26 29.2652 26 29V3C26 2.73478 25.8946 2.48043 25.7071 2.29289C25.5196 2.10536 25.2652 2 25 2ZM19.4287 16.2575L16.4287 21.2575C16.3843 21.3315 16.3215 21.3928 16.2464 21.4354C16.1712 21.4779 16.0863 21.5003 16 21.5003C15.9137 21.5003 15.8288 21.4779 15.7536 21.4354C15.6785 21.3928 15.6157 21.3315 15.5712 21.2575L12.5712 16.2575C12.5245 16.1797 12.4998 16.0907 12.4998 16C12.4998 15.9093 12.5245 15.8203 12.5712 15.7425L15.5712 10.7425C15.6157 10.6685 15.6785 10.6072 15.7536 10.5646C15.8288 10.5221 15.9137 10.4997 16 10.4997C16.0863 10.4997 16.1712 10.5221 16.2464 10.5646C16.3215 10.6072 16.3843 10.6685 16.4287 10.7425L19.4287 15.7425C19.4755 15.8203 19.5002 15.9093 19.5002 16C19.5002 16.0907 19.4755 16.1797 19.4287 16.2575Z" fill="white"/>
<path d="M65 1.5C64.6022 1.5 64.2206 1.65804 63.9393 1.93934C63.658 2.22064 63.5 2.60218 63.5 3V4.5H60.5V3C60.5 2.60218 60.342 2.22064 60.0607 1.93934C59.7794 1.65804 59.3978 1.5 59 1.5C58.6022 1.5 58.2206 1.65804 57.9393 1.93934C57.658 2.22064 57.5 2.60218 57.5 3V4.5H54.5V3C54.5 2.60218 54.342 2.22064 54.0607 1.93934C53.7794 1.65804 53.3978 1.5 53 1.5C52.6022 1.5 52.2206 1.65804 51.9393 1.93934C51.658 2.22064 51.5 2.60218 51.5 3V4.5H48.5V3C48.5 2.60218 48.342 2.22064 48.0607 1.93934C47.7794 1.65804 47.3978 1.5 47 1.5C46.6022 1.5 46.2206 1.65804 45.9393 1.93934C45.658 2.22064 45.5 2.60218 45.5 3V29C45.5 29.3978 45.658 29.7794 45.9393 30.0607C46.2206 30.342 46.6022 30.5 47 30.5C47.3978 30.5 47.7794 30.342 48.0607 30.0607C48.342 29.7794 48.5 29.3978 48.5 29V27.5H51.5V29C51.5 29.3978 51.658 29.7794 51.9393 30.0607C52.2206 30.342 52.6022 30.5 53 30.5C53.3978 30.5 53.7794 30.342 54.0607 30.0607C54.342 29.7794 54.5 29.3978 54.5 29V27.5H57.5V29C57.5 29.3978 57.658 29.7794 57.9393 30.0607C58.2206 30.342 58.6022 30.5 59 30.5C59.3978 30.5 59.7794 30.342 60.0607 30.0607C60.342 29.7794 60.5 29.3978 60.5 29V27.5H63.5V29C63.5 29.3978 63.658 29.7794 63.9393 30.0607C64.2206 30.342 64.6022 30.5 65 30.5C65.3978 30.5 65.7794 30.342 66.0607 30.0607C66.342 29.7794 66.5 29.3978 66.5 29V3C66.5 2.60218 66.342 2.22064 66.0607 1.93934C65.7794 1.65804 65.3978 1.5 65 1.5ZM48.5 7.5H63.5V24.5H48.5V7.5ZM56 22.5C56.2591 22.5 56.5137 22.4328 56.7391 22.3051C56.9646 22.1774 57.153 21.9935 57.2862 21.7712L60.2862 16.7712C60.4259 16.5382 60.4997 16.2717 60.4997 16C60.4997 15.7283 60.4259 15.4618 60.2862 15.2288L57.2862 10.2288C57.153 10.0066 56.9645 9.82281 56.7391 9.69518C56.5136 9.56755 56.259 9.50048 56 9.50048C55.741 9.50048 55.4864 9.56755 55.2609 9.69518C55.0355 9.82281 54.847 10.0066 54.7137 10.2288L51.7137 15.2288C51.5741 15.4618 51.5003 15.7283 51.5003 16C51.5003 16.2717 51.5741 16.5382 51.7137 16.7712L54.7137 21.7712C54.847 21.9935 55.0354 22.1774 55.2609 22.3051C55.4863 22.4328 55.7409 22.5 56 22.5ZM56 13.915L57.25 16L56 18.085L54.75 16L56 13.915Z" fill="white"/>
</g>
<defs>
<clipPath id="clip0_27_1437">
<rect width="72" height="32" rx="5" fill="white"/>
</clipPath>
</defs>
</svg>
