<svg width="72" height="32" viewBox="0 0 72 32" fill="none" xmlns="http://www.w3.org/2000/svg">
<g clip-path="url(#clip0_27_5528)">
<path d="M29.4159 12L12.0009 29.4138C11.8152 29.5995 11.5947 29.7469 11.352 29.8474C11.1094 29.948 10.8493 29.9997 10.5866 29.9997C10.3239 29.9997 10.0638 29.948 9.8211 29.8474C9.57842 29.7469 9.35792 29.5995 9.1722 29.4138L2.58595 22.8288C2.40018 22.643 2.25282 22.4225 2.15228 22.1799C2.05175 21.9372 2 21.6771 2 21.4144C2 21.1517 2.05175 20.8916 2.15228 20.6489C2.25282 20.4062 2.40018 20.1857 2.58595 20L6.2322 16.3538C6.27863 16.3073 6.33378 16.2704 6.39448 16.2452C6.45518 16.2201 6.52024 16.2071 6.58595 16.2071C6.65166 16.2071 6.71672 16.2201 6.77742 16.2452C6.83812 16.2704 6.89326 16.3073 6.9397 16.3538L11.2934 20.7075C11.3907 20.8047 11.5069 20.8807 11.6348 20.931C11.7628 20.9812 11.8997 21.0045 12.037 20.9995C12.1744 20.9945 12.3092 20.9612 12.4331 20.9017C12.557 20.8422 12.6674 20.7578 12.7572 20.6538C12.9214 20.4556 13.0049 20.2029 12.991 19.9459C12.9771 19.689 12.8668 19.4467 12.6822 19.2675L8.35345 14.9388C8.25994 14.845 8.20743 14.718 8.20743 14.5856C8.20743 14.4532 8.25994 14.3262 8.35345 14.2325L10.2284 12.3575C10.2749 12.311 10.33 12.2741 10.3907 12.249C10.4514 12.2238 10.5165 12.2109 10.5822 12.2109C10.6479 12.2109 10.713 12.2238 10.7737 12.249C10.8344 12.2741 10.8895 12.311 10.9359 12.3575L15.2897 16.7113C15.3869 16.8084 15.5031 16.8845 15.6311 16.9347C15.759 16.985 15.8959 17.0083 16.0333 17.0033C16.1706 16.9982 16.3055 16.9649 16.4294 16.9054C16.5533 16.8459 16.6636 16.7615 16.7534 16.6575C16.9177 16.4594 17.0012 16.2066 16.9873 15.9497C16.9734 15.6927 16.8631 15.4505 16.6784 15.2713L12.3547 10.9388C12.2612 10.845 12.2087 10.718 12.2087 10.5856C12.2087 10.4532 12.2612 10.3262 12.3547 10.2325L14.2297 8.3575C14.3234 8.264 14.4504 8.21148 14.5828 8.21148C14.7152 8.21148 14.8422 8.264 14.9359 8.3575L19.2897 12.7113C19.3869 12.8086 19.5032 12.8849 19.6313 12.9352C19.7593 12.9856 19.8964 13.009 20.0339 13.0039C20.1714 12.9989 20.3064 12.9655 20.4304 12.9059C20.5545 12.8463 20.6649 12.7617 20.7547 12.6575C20.9188 12.4592 21.002 12.2064 20.9879 11.9495C20.9738 11.6925 20.8633 11.4503 20.6784 11.2713L16.3547 6.93875C16.2612 6.84502 16.2087 6.71803 16.2087 6.58563C16.2087 6.45323 16.2612 6.32624 16.3547 6.2325L20.0009 2.58625C20.1867 2.40049 20.4072 2.25313 20.6499 2.15259C20.8925 2.05205 21.1526 2.00031 21.4153 2.00031C21.678 2.00031 21.9381 2.05205 22.1808 2.15259C22.4235 2.25313 22.644 2.40049 22.8297 2.58625L29.4159 9.17125C29.6017 9.35698 29.7491 9.57747 29.8496 9.82016C29.9501 10.0628 30.0019 10.3229 30.0019 10.5856C30.0019 10.8483 29.9501 11.1084 29.8496 11.3511C29.7491 11.5938 29.6017 11.8143 29.4159 12Z" fill="white"/>
<path d="M69.7681 8.81753L63.1819 2.23253C62.9497 2.00028 62.6741 1.81604 62.3707 1.69034C62.0673 1.56464 61.7422 1.49994 61.4138 1.49994C61.0854 1.49994 60.7602 1.56464 60.4568 1.69034C60.1534 1.81604 59.8778 2.00028 59.6456 2.23253L42.2306 19.6463C41.9984 19.8784 41.8141 20.1541 41.6884 20.4575C41.5627 20.7608 41.498 21.086 41.498 21.4144C41.498 21.7428 41.5627 22.068 41.6884 22.3713C41.8141 22.6747 41.9984 22.9504 42.2306 23.1825L48.8169 29.7675C49.049 29.9998 49.3247 30.184 49.6281 30.3097C49.9314 30.4354 50.2566 30.5001 50.585 30.5001C50.9134 30.5001 51.2386 30.4354 51.542 30.3097C51.8453 30.184 52.121 29.9998 52.3531 29.7675L69.7681 12.3538C70.0004 12.1216 70.1846 11.846 70.3103 11.5426C70.436 11.2392 70.5007 10.914 70.5007 10.5857C70.5007 10.2573 70.436 9.93209 70.3103 9.62871C70.1846 9.32533 70.0004 9.04969 69.7681 8.81753ZM50.5844 27.2925L44.7094 21.4175L47.9994 18.125L50.9394 21.065C51.2212 21.3468 51.6034 21.5051 52.0019 21.5051C52.4004 21.5051 52.7826 21.3468 53.0644 21.065C53.3462 20.7832 53.5045 20.401 53.5045 20.0025C53.5045 19.604 53.3462 19.2218 53.0644 18.94L50.1244 16L51.9994 14.125L54.9381 17.065C55.2199 17.3468 55.6021 17.5051 56.0006 17.5051C56.3992 17.5051 56.7813 17.3468 57.0631 17.065C57.3449 16.7832 57.5032 16.401 57.5032 16.0025C57.5032 15.604 57.3449 15.2218 57.0631 14.94L54.1244 12L55.9994 10.125L58.9394 13.065C59.2212 13.3468 59.6034 13.5051 60.0019 13.5051C60.4004 13.5051 60.7826 13.3468 61.0644 13.065C61.3462 12.7832 61.5045 12.401 61.5045 12.0025C61.5045 11.604 61.3462 11.2218 61.0644 10.94L58.1244 8.00003L61.4181 4.70753L67.2931 10.5825L50.5844 27.2925Z" fill="white"/>
</g>
<defs>
<clipPath id="clip0_27_5528">
<rect width="72" height="32" rx="5" fill="white"/>
</clipPath>
</defs>
</svg>
