<svg width="72" height="32" viewBox="0 0 72 32" fill="none" xmlns="http://www.w3.org/2000/svg">
<g clip-path="url(#clip0_27_1442)">
<path d="M29.9288 16.625L25.9288 6.625C25.854 6.44007 25.7255 6.28174 25.56 6.17036C25.3945 6.05899 25.1995 5.99966 25 6C24.9272 6.00111 24.8547 6.00991 24.7838 6.02625L17 7.75V5C17 4.73478 16.8947 4.48043 16.7071 4.29289C16.5196 4.10536 16.2652 4 16 4C15.7348 4 15.4804 4.10536 15.2929 4.29289C15.1054 4.48043 15 4.73478 15 5V8.1975L6.78377 10.0262C6.62537 10.0608 6.47774 10.1334 6.35362 10.2377C6.2295 10.342 6.1326 10.4749 6.07127 10.625L2.07127 20.625C2.02342 20.7442 1.99922 20.8716 2.00002 21C2.00002 23.9137 5.06752 25 7.00002 25C8.93252 25 12 23.9137 12 21C12.0008 20.8716 11.9766 20.7442 11.9288 20.625L8.36502 11.7212L15 10.25V26H13C12.7348 26 12.4804 26.1054 12.2929 26.2929C12.1054 26.4804 12 26.7348 12 27C12 27.2652 12.1054 27.5196 12.2929 27.7071C12.4804 27.8946 12.7348 28 13 28H19C19.2652 28 19.5196 27.8946 19.7071 27.7071C19.8947 27.5196 20 27.2652 20 27C20 26.7348 19.8947 26.4804 19.7071 26.2929C19.5196 26.1054 19.2652 26 19 26H17V9.8025L23.375 8.3875L20.0713 16.625C20.0234 16.7442 19.9992 16.8716 20 17C20 19.9137 23.0675 21 25 21C26.9325 21 30 19.9137 30 17C30.0008 16.8716 29.9766 16.7442 29.9288 16.625ZM9.92877 21H4.07752L7.00002 13.6925L9.92877 21ZM22.0838 17L25 9.6925L27.9225 17H22.0838Z" fill="white"/>
<path d="M70.3925 16.4425L66.3925 6.4425C66.2602 6.11259 66.0151 5.84038 65.7007 5.6744C65.3864 5.50842 65.0233 5.45946 64.6763 5.53625L57.5 7.125V5C57.5 4.60218 57.342 4.22064 57.0607 3.93934C56.7794 3.65804 56.3979 3.5 56 3.5C55.6022 3.5 55.2207 3.65804 54.9394 3.93934C54.6581 4.22064 54.5 4.60218 54.5 5V7.79625L46.675 9.53625C46.4368 9.58908 46.2151 9.69924 46.029 9.85716C45.843 10.0151 45.6983 10.216 45.6075 10.4425L41.6075 20.4325C41.5353 20.6129 41.4988 20.8057 41.5 21C41.5 22.5163 42.275 23.8037 43.6813 24.625C44.6958 25.1926 45.8376 25.4936 47 25.5C48.1625 25.4936 49.3043 25.1926 50.3188 24.625C51.725 23.8037 52.5 22.5163 52.5 21C52.5 20.809 52.4635 20.6198 52.3925 20.4425L49.0475 12.0813L54.5 10.875V25.5H53C52.6022 25.5 52.2207 25.658 51.9394 25.9393C51.6581 26.2206 51.5 26.6022 51.5 27C51.5 27.3978 51.6581 27.7794 51.9394 28.0607C52.2207 28.342 52.6022 28.5 53 28.5H59C59.3979 28.5 59.7794 28.342 60.0607 28.0607C60.342 27.7794 60.5 27.3978 60.5 27C60.5 26.6022 60.342 26.2206 60.0607 25.9393C59.7794 25.658 59.3979 25.5 59 25.5H57.5V10.2037L62.5525 9.07875L59.6075 16.4412C59.5364 16.6189 59.4999 16.8086 59.5 17C59.5 18.5162 60.275 19.8037 61.6813 20.625C62.6931 21.1994 63.8366 21.5013 65 21.5013C66.1635 21.5013 67.307 21.1994 68.3188 20.625C69.725 19.8037 70.5 18.5162 70.5 17C70.5 16.809 70.4635 16.6198 70.3925 16.4425ZM47 22.5C46.5363 22.5 44.75 22.2663 44.5238 21.2275L47 15.0387L49.4763 21.2275C49.25 22.2663 47.4638 22.5 47 22.5ZM65 18.5C64.5363 18.5 62.75 18.2663 62.5238 17.2275L65 11.0387L67.4763 17.2275C67.25 18.2663 65.4638 18.5 65 18.5Z" fill="white"/>
</g>
<defs>
<clipPath id="clip0_27_1442">
<rect width="72" height="32" rx="5" fill="white"/>
</clipPath>
</defs>
</svg>
