<svg width="72" height="32" viewBox="0 0 72 32" fill="none" xmlns="http://www.w3.org/2000/svg">
<g clip-path="url(#clip0_27_3021)">
<path d="M28 5V9.5C28 9.76522 27.8946 10.0196 27.7071 10.2071C27.5196 10.3946 27.2652 10.5 27 10.5C26.7348 10.5 26.4804 10.3946 26.2929 10.2071C26.1054 10.0196 26 9.76522 26 9.5V6H22.5C22.2348 6 21.9804 5.89464 21.7929 5.70711C21.6054 5.51957 21.5 5.26522 21.5 5C21.5 4.73478 21.6054 4.48043 21.7929 4.29289C21.9804 4.10536 22.2348 4 22.5 4H27C27.2652 4 27.5196 4.10536 27.7071 4.29289C27.8946 4.48043 28 4.73478 28 5ZM27 21.5C26.7348 21.5 26.4804 21.6054 26.2929 21.7929C26.1054 21.9804 26 22.2348 26 22.5V26H22.5C22.2348 26 21.9804 26.1054 21.7929 26.2929C21.6054 26.4804 21.5 26.7348 21.5 27C21.5 27.2652 21.6054 27.5196 21.7929 27.7071C21.9804 27.8946 22.2348 28 22.5 28H27C27.2652 28 27.5196 27.8946 27.7071 27.7071C27.8946 27.5196 28 27.2652 28 27V22.5C28 22.2348 27.8946 21.9804 27.7071 21.7929C27.5196 21.6054 27.2652 21.5 27 21.5ZM9.5 26H6V22.5C6 22.2348 5.89464 21.9804 5.70711 21.7929C5.51957 21.6054 5.26522 21.5 5 21.5C4.73478 21.5 4.48043 21.6054 4.29289 21.7929C4.10536 21.9804 4 22.2348 4 22.5V27C4 27.2652 4.10536 27.5196 4.29289 27.7071C4.48043 27.8946 4.73478 28 5 28H9.5C9.76522 28 10.0196 27.8946 10.2071 27.7071C10.3946 27.5196 10.5 27.2652 10.5 27C10.5 26.7348 10.3946 26.4804 10.2071 26.2929C10.0196 26.1054 9.76522 26 9.5 26ZM5 10.5C5.26522 10.5 5.51957 10.3946 5.70711 10.2071C5.89464 10.0196 6 9.76522 6 9.5V6H9.5C9.76522 6 10.0196 5.89464 10.2071 5.70711C10.3946 5.51957 10.5 5.26522 10.5 5C10.5 4.73478 10.3946 4.48043 10.2071 4.29289C10.0196 4.10536 9.76522 4 9.5 4H5C4.73478 4 4.48043 4.10536 4.29289 4.29289C4.10536 4.48043 4 4.73478 4 5V9.5C4 9.76522 4.10536 10.0196 4.29289 10.2071C4.48043 10.3946 4.73478 10.5 5 10.5ZM16 25C14.22 25 12.4799 24.4722 10.9999 23.4832C9.51982 22.4943 8.36627 21.0887 7.68508 19.4442C7.0039 17.7996 6.82567 15.99 7.17293 14.2442C7.5202 12.4984 8.37737 10.8947 9.63604 9.63604C10.8947 8.37737 12.4984 7.5202 14.2442 7.17293C15.99 6.82567 17.7996 7.0039 19.4442 7.68508C21.0887 8.36627 22.4943 9.51982 23.4832 10.9999C24.4722 12.4799 25 14.22 25 16C24.9974 18.3861 24.0483 20.6738 22.361 22.361C20.6738 24.0483 18.3861 24.9974 16 25ZM13 16C13.2967 16 13.5867 15.912 13.8334 15.7472C14.08 15.5824 14.2723 15.3481 14.3858 15.074C14.4994 14.7999 14.5291 14.4983 14.4712 14.2074C14.4133 13.9164 14.2704 13.6491 14.0607 13.4393C13.8509 13.2296 13.5836 13.0867 13.2926 13.0288C13.0017 12.9709 12.7001 13.0006 12.426 13.1142C12.1519 13.2277 11.9176 13.42 11.7528 13.6666C11.588 13.9133 11.5 14.2033 11.5 14.5C11.5 14.8978 11.658 15.2794 11.9393 15.5607C12.2206 15.842 12.6022 16 13 16ZM19.75 18.3388C19.5746 18.1399 19.3274 18.0188 19.0628 18.0021C18.7981 17.9855 18.5377 18.0747 18.3388 18.25C17.8625 18.6713 16.8387 19 16 19C15.1613 19 14.1375 18.6713 13.6613 18.25C13.5631 18.1607 13.4483 18.0918 13.3233 18.0474C13.1983 18.0029 13.0657 17.9838 12.9333 17.9911C12.8008 17.9984 12.6712 18.0319 12.5518 18.0898C12.4325 18.1477 12.3258 18.2287 12.2381 18.3282C12.1504 18.4277 12.0833 18.5437 12.0408 18.6694C11.9984 18.795 11.9813 18.9279 11.9907 19.0602C12 19.1925 12.0356 19.3217 12.0954 19.4401C12.1552 19.5585 12.2379 19.6639 12.3387 19.75C13.3175 20.6138 14.8825 21 16 21C17.1175 21 18.6825 20.6138 19.6612 19.75C19.8601 19.5746 19.9812 19.3274 19.9979 19.0628C20.0145 18.7981 19.9253 18.5377 19.75 18.3388ZM20.5 14.5C20.5 14.2033 20.412 13.9133 20.2472 13.6666C20.0824 13.42 19.8481 13.2277 19.574 13.1142C19.2999 13.0006 18.9983 12.9709 18.7074 13.0288C18.4164 13.0867 18.1491 13.2296 17.9393 13.4393C17.7296 13.6491 17.5867 13.9164 17.5288 14.2074C17.4709 14.4983 17.5007 14.7999 17.6142 15.074C17.7277 15.3481 17.92 15.5824 18.1666 15.7472C18.4133 15.912 18.7033 16 19 16C19.3978 16 19.7794 15.842 20.0607 15.5607C20.342 15.2794 20.5 14.8978 20.5 14.5Z" fill="white"/>
<path d="M68.5 5V8.5C68.5 8.89782 68.342 9.27936 68.0607 9.56066C67.7794 9.84196 67.3978 10 67 10C66.6022 10 66.2206 9.84196 65.9393 9.56066C65.658 9.27936 65.5 8.89782 65.5 8.5V6.5H63.5C63.1022 6.5 62.7206 6.34196 62.4393 6.06066C62.158 5.77936 62 5.39782 62 5C62 4.60218 62.158 4.22064 62.4393 3.93934C62.7206 3.65804 63.1022 3.5 63.5 3.5H67C67.3978 3.5 67.7794 3.65804 68.0607 3.93934C68.342 4.22064 68.5 4.60218 68.5 5ZM67 22C66.6022 22 66.2206 22.158 65.9393 22.4393C65.658 22.7206 65.5 23.1022 65.5 23.5V25.5H63.5C63.1022 25.5 62.7206 25.658 62.4393 25.9393C62.158 26.2206 62 26.6022 62 27C62 27.3978 62.158 27.7794 62.4393 28.0607C62.7206 28.342 63.1022 28.5 63.5 28.5H67C67.3978 28.5 67.7794 28.342 68.0607 28.0607C68.342 27.7794 68.5 27.3978 68.5 27V23.5C68.5 23.1022 68.342 22.7206 68.0607 22.4393C67.7794 22.158 67.3978 22 67 22ZM48.5 25.5H46.5V23.5C46.5 23.1022 46.342 22.7206 46.0607 22.4393C45.7794 22.158 45.3978 22 45 22C44.6022 22 44.2206 22.158 43.9393 22.4393C43.658 22.7206 43.5 23.1022 43.5 23.5V27C43.5 27.3978 43.658 27.7794 43.9393 28.0607C44.2206 28.342 44.6022 28.5 45 28.5H48.5C48.8978 28.5 49.2794 28.342 49.5607 28.0607C49.842 27.7794 50 27.3978 50 27C50 26.6022 49.842 26.2206 49.5607 25.9393C49.2794 25.658 48.8978 25.5 48.5 25.5ZM45 10C45.3978 10 45.7794 9.84196 46.0607 9.56066C46.342 9.27936 46.5 8.89782 46.5 8.5V6.5H48.5C48.8978 6.5 49.2794 6.34196 49.5607 6.06066C49.842 5.77936 50 5.39782 50 5C50 4.60218 49.842 4.22064 49.5607 3.93934C49.2794 3.65804 48.8978 3.5 48.5 3.5H45C44.6022 3.5 44.2206 3.65804 43.9393 3.93934C43.658 4.22064 43.5 4.60218 43.5 5V8.5C43.5 8.89782 43.658 9.27936 43.9393 9.56066C44.2206 9.84196 44.6022 10 45 10ZM56 26C54.0222 26 52.0888 25.4135 50.4443 24.3147C48.7998 23.2159 47.5181 21.6541 46.7612 19.8268C46.0043 17.9996 45.8063 15.9889 46.1921 14.0491C46.578 12.1093 47.5304 10.3275 48.9289 8.92893C50.3275 7.53041 52.1093 6.578 54.0491 6.19215C55.9889 5.80629 57.9996 6.00433 59.8268 6.7612C61.6541 7.51808 63.2159 8.79981 64.3147 10.4443C65.4135 12.0888 66 14.0222 66 16C65.997 18.6513 64.9425 21.1931 63.0678 23.0678C61.1931 24.9425 58.6513 25.997 56 26ZM63 16C63 14.6155 62.5895 13.2622 61.8203 12.111C61.0511 10.9599 59.9579 10.0627 58.6788 9.53284C57.3997 9.00303 55.9922 8.86441 54.6344 9.1345C53.2765 9.4046 52.0292 10.0713 51.0503 11.0503C50.0713 12.0292 49.4046 13.2765 49.1345 14.6344C48.8644 15.9922 49.003 17.3997 49.5328 18.6788C50.0627 19.9579 50.9599 21.0511 52.111 21.8203C53.2622 22.5895 54.6155 23 56 23C57.8559 22.998 59.6352 22.2599 60.9476 20.9476C62.2599 19.6352 62.998 17.8559 63 16ZM53 13C52.6044 13 52.2178 13.1173 51.8889 13.3371C51.56 13.5568 51.3036 13.8692 51.1522 14.2346C51.0009 14.6001 50.9613 15.0022 51.0384 15.3902C51.1156 15.7781 51.3061 16.1345 51.5858 16.4142C51.8655 16.6939 52.2219 16.8844 52.6098 16.9616C52.9978 17.0387 53.3999 16.9991 53.7654 16.8478C54.1308 16.6964 54.4432 16.44 54.6629 16.1111C54.8827 15.7822 55 15.3956 55 15C55 14.4696 54.7893 13.9609 54.4142 13.5858C54.0391 13.2107 53.5304 13 53 13ZM59 13C58.6044 13 58.2178 13.1173 57.8889 13.3371C57.56 13.5568 57.3036 13.8692 57.1522 14.2346C57.0009 14.6001 56.9613 15.0022 57.0384 15.3902C57.1156 15.7781 57.3061 16.1345 57.5858 16.4142C57.8655 16.6939 58.2219 16.8844 58.6098 16.9616C58.9978 17.0387 59.3999 16.9991 59.7654 16.8478C60.1308 16.6964 60.4432 16.44 60.6629 16.1111C60.8827 15.7822 61 15.3956 61 15C61 14.4696 60.7893 13.9609 60.4142 13.5858C60.0391 13.2107 59.5304 13 59 13Z" fill="white"/>
</g>
<defs>
<clipPath id="clip0_27_3021">
<rect width="72" height="32" rx="5" fill="white"/>
</clipPath>
</defs>
</svg>
