<svg width="72" height="32" viewBox="0 0 72 32" fill="none" xmlns="http://www.w3.org/2000/svg">
<g clip-path="url(#clip0_27_3016)">
<path d="M28 5V10C28 10.2652 27.8946 10.5196 27.7071 10.7071C27.5196 10.8946 27.2652 11 27 11C26.7348 11 26.4804 10.8946 26.2929 10.7071C26.1054 10.5196 26 10.2652 26 10V6H22C21.7348 6 21.4804 5.89464 21.2929 5.70711C21.1054 5.51957 21 5.26522 21 5C21 4.73478 21.1054 4.48043 21.2929 4.29289C21.4804 4.10536 21.7348 4 22 4H27C27.2652 4 27.5196 4.10536 27.7071 4.29289C27.8946 4.48043 28 4.73478 28 5ZM10 26H6V22C6 21.7348 5.89464 21.4804 5.70711 21.2929C5.51957 21.1054 5.26522 21 5 21C4.73478 21 4.48043 21.1054 4.29289 21.2929C4.10536 21.4804 4 21.7348 4 22V27C4 27.2652 4.10536 27.5196 4.29289 27.7071C4.48043 27.8946 4.73478 28 5 28H10C10.2652 28 10.5196 27.8946 10.7071 27.7071C10.8946 27.5196 11 27.2652 11 27C11 26.7348 10.8946 26.4804 10.7071 26.2929C10.5196 26.1054 10.2652 26 10 26ZM27 21C26.7348 21 26.4804 21.1054 26.2929 21.2929C26.1054 21.4804 26 21.7348 26 22V26H22C21.7348 26 21.4804 26.1054 21.2929 26.2929C21.1054 26.4804 21 26.7348 21 27C21 27.2652 21.1054 27.5196 21.2929 27.7071C21.4804 27.8946 21.7348 28 22 28H27C27.2652 28 27.5196 27.8946 27.7071 27.7071C27.8946 27.5196 28 27.2652 28 27V22C28 21.7348 27.8946 21.4804 27.7071 21.2929C27.5196 21.1054 27.2652 21 27 21ZM5 11C5.26522 11 5.51957 10.8946 5.70711 10.7071C5.89464 10.5196 6 10.2652 6 10V6H10C10.2652 6 10.5196 5.89464 10.7071 5.70711C10.8946 5.51957 11 5.26522 11 5C11 4.73478 10.8946 4.48043 10.7071 4.29289C10.5196 4.10536 10.2652 4 10 4H5C4.73478 4 4.48043 4.10536 4.29289 4.29289C4.10536 4.48043 4 4.73478 4 5V10C4 10.2652 4.10536 10.5196 4.29289 10.7071C4.48043 10.8946 4.73478 11 5 11ZM9 10V22C9 22.2652 9.10536 22.5196 9.29289 22.7071C9.48043 22.8946 9.73478 23 10 23H22C22.2652 23 22.5196 22.8946 22.7071 22.7071C22.8946 22.5196 23 22.2652 23 22V10C23 9.73478 22.8946 9.48043 22.7071 9.29289C22.5196 9.10536 22.2652 9 22 9H10C9.73478 9 9.48043 9.10536 9.29289 9.29289C9.10536 9.48043 9 9.73478 9 10Z" fill="white"/>
<path d="M68.5 5V10C68.5 10.3978 68.342 10.7794 68.0607 11.0607C67.7794 11.342 67.3978 11.5 67 11.5C66.6022 11.5 66.2206 11.342 65.9393 11.0607C65.658 10.7794 65.5 10.3978 65.5 10V6.5H62C61.6022 6.5 61.2206 6.34196 60.9393 6.06066C60.658 5.77936 60.5 5.39782 60.5 5C60.5 4.60218 60.658 4.22064 60.9393 3.93934C61.2206 3.65804 61.6022 3.5 62 3.5H67C67.3978 3.5 67.7794 3.65804 68.0607 3.93934C68.342 4.22064 68.5 4.60218 68.5 5ZM50 25.5H46.5V22C46.5 21.6022 46.342 21.2206 46.0607 20.9393C45.7794 20.658 45.3978 20.5 45 20.5C44.6022 20.5 44.2206 20.658 43.9393 20.9393C43.658 21.2206 43.5 21.6022 43.5 22V27C43.5 27.3978 43.658 27.7794 43.9393 28.0607C44.2206 28.342 44.6022 28.5 45 28.5H50C50.3978 28.5 50.7794 28.342 51.0607 28.0607C51.342 27.7794 51.5 27.3978 51.5 27C51.5 26.6022 51.342 26.2206 51.0607 25.9393C50.7794 25.658 50.3978 25.5 50 25.5ZM67 20.5C66.6022 20.5 66.2206 20.658 65.9393 20.9393C65.658 21.2206 65.5 21.6022 65.5 22V25.5H62C61.6022 25.5 61.2206 25.658 60.9393 25.9393C60.658 26.2206 60.5 26.6022 60.5 27C60.5 27.3978 60.658 27.7794 60.9393 28.0607C61.2206 28.342 61.6022 28.5 62 28.5H67C67.3978 28.5 67.7794 28.342 68.0607 28.0607C68.342 27.7794 68.5 27.3978 68.5 27V22C68.5 21.6022 68.342 21.2206 68.0607 20.9393C67.7794 20.658 67.3978 20.5 67 20.5ZM45 11.5C45.3978 11.5 45.7794 11.342 46.0607 11.0607C46.342 10.7794 46.5 10.3978 46.5 10V6.5H50C50.3978 6.5 50.7794 6.34196 51.0607 6.06066C51.342 5.77936 51.5 5.39782 51.5 5C51.5 4.60218 51.342 4.22064 51.0607 3.93934C50.7794 3.65804 50.3978 3.5 50 3.5H45C44.6022 3.5 44.2206 3.65804 43.9393 3.93934C43.658 4.22064 43.5 4.60218 43.5 5V10C43.5 10.3978 43.658 10.7794 43.9393 11.0607C44.2206 11.342 44.6022 11.5 45 11.5ZM50.5 9H61.5C61.8978 9 62.2794 9.15804 62.5607 9.43934C62.842 9.72064 63 10.1022 63 10.5V21.5C63 21.8978 62.842 22.2794 62.5607 22.5607C62.2794 22.842 61.8978 23 61.5 23H50.5C50.1022 23 49.7206 22.842 49.4393 22.5607C49.158 22.2794 49 21.8978 49 21.5V10.5C49 10.1022 49.158 9.72064 49.4393 9.43934C49.7206 9.15804 50.1022 9 50.5 9ZM52 20H60V12H52V20Z" fill="white"/>
</g>
<defs>
<clipPath id="clip0_27_3016">
<rect width="72" height="32" rx="5" fill="white"/>
</clipPath>
</defs>
</svg>
