<svg width="72" height="32" viewBox="0 0 72 32" fill="none" xmlns="http://www.w3.org/2000/svg">
<g clip-path="url(#clip0_27_5533)">
<path d="M29.565 23.3863L11.69 11.1525C12.0839 10.1574 12.1102 9.05455 11.7643 8.04179C11.4184 7.02904 10.7229 6.17272 9.80256 5.62651C8.88225 5.08031 7.79739 4.87997 6.74269 5.06147C5.688 5.24297 4.73251 5.79441 4.04772 6.61684C3.36292 7.43926 2.99365 8.47882 3.00617 9.54894C3.01869 10.6191 3.41219 11.6497 4.11604 12.4559C4.8199 13.262 5.78803 13.791 6.84668 13.9477C7.90533 14.1045 8.9852 13.8788 9.89249 13.3113L12.5662 16.0225L9.89374 18.6925C8.98853 18.1272 7.91153 17.903 6.85594 18.06C5.80034 18.217 4.83521 18.7449 4.13365 19.5491C3.4321 20.3533 3.04003 21.3812 3.02776 22.4483C3.01549 23.5154 3.38383 24.552 4.06671 25.3722C4.74959 26.1923 5.70233 26.7423 6.75404 26.9235C7.80575 27.1047 8.88761 26.9052 9.80558 26.3609C10.7235 25.8166 11.4176 24.9631 11.7631 23.9534C12.1087 22.9437 12.0832 21.8439 11.6912 20.8513L15.055 18.55L21.25 24.83C22.0044 25.5792 23.0242 26.0002 24.0875 26.0013C24.2593 26.0012 24.4309 25.9899 24.6012 25.9675H24.6362L29.17 25.2038C29.3669 25.1709 29.5494 25.0798 29.6941 24.9424C29.8388 24.8049 29.9391 24.6272 29.9819 24.4323C30.0248 24.2373 30.0084 24.034 29.9348 23.8485C29.8611 23.663 29.7336 23.5037 29.5687 23.3913L29.565 23.3863ZM9.26749 11.2613C8.85825 11.6704 8.31976 11.9248 7.74385 11.9813C7.16795 12.0377 6.5903 11.8927 6.10942 11.5708C5.62853 11.2489 5.2742 10.7702 5.10684 10.2163C4.93948 9.66232 4.96946 9.06748 5.19168 8.53319C5.41389 7.99889 5.81457 7.55823 6.32538 7.28634C6.83619 7.01446 7.42551 6.9282 7.99281 7.04227C8.56012 7.15634 9.07029 7.46368 9.43632 7.91187C9.80235 8.36006 10.0016 8.92135 9.99999 9.50001C9.99952 10.1626 9.73606 10.7978 9.26749 11.2663V11.2613ZM9.26749 24.2613C8.85825 24.6704 8.31976 24.9248 7.74385 24.9813C7.16795 25.0377 6.5903 24.8927 6.10942 24.5708C5.62853 24.2489 5.2742 23.7702 5.10684 23.2163C4.93948 22.6623 4.96946 22.0675 5.19168 21.5332C5.41389 20.9989 5.81457 20.5582 6.32538 20.2863C6.83619 20.0145 7.42551 19.9282 7.99281 20.0423C8.56012 20.1563 9.07029 20.4637 9.43632 20.9119C9.80235 21.3601 10.0016 21.9213 9.99999 22.5C10.0001 22.8285 9.93544 23.1538 9.80975 23.4573C9.68407 23.7608 9.4998 24.0365 9.26749 24.2688V24.2613ZM16.8925 11.5738L21.2425 7.17501C21.6774 6.74109 22.2059 6.41251 22.7874 6.21447C23.369 6.01643 23.9882 5.95419 24.5975 6.03251H24.6325L29.1325 6.79126C29.2942 6.81599 29.4477 6.87905 29.5801 6.97516C29.7126 7.07127 29.8201 7.19765 29.8937 7.34376C29.9993 7.55954 30.0237 7.80612 29.9624 8.03841C29.9011 8.27069 29.7583 8.47315 29.56 8.60876L20.8187 14.59C20.7357 14.6467 20.6374 14.677 20.5369 14.677C20.4363 14.677 20.3381 14.6467 20.255 14.59L16.9662 12.34C16.907 12.2982 16.8576 12.2441 16.8214 12.1813C16.7851 12.1186 16.763 12.0487 16.7565 11.9765C16.7499 11.9044 16.7591 11.8316 16.7835 11.7634C16.8078 11.6951 16.8467 11.633 16.8975 11.5813L16.8925 11.5738Z" fill="white"/>
<path d="M69.8477 22.9738L52.2852 10.9563C52.428 10.484 52.5005 9.99336 52.5002 9.50002C52.5004 8.36885 52.117 7.27106 51.4126 6.38595C50.7082 5.50084 49.7246 4.88073 48.6222 4.6269C47.5199 4.37307 46.3641 4.50053 45.3436 4.98844C44.323 5.47636 43.4981 6.29591 43.0035 7.31322C42.5089 8.33054 42.3739 9.4855 42.6205 10.5895C42.8671 11.6934 43.4808 12.6811 44.3613 13.3913C45.2417 14.1014 46.337 14.492 47.4681 14.4993C48.5993 14.5066 49.6995 14.13 50.589 13.4313L54.339 16.0013L50.589 18.5713C49.8314 17.976 48.9179 17.6124 47.9585 17.524C46.9991 17.4357 46.0346 17.6264 45.181 18.0732C44.3275 18.5201 43.6212 19.204 43.1471 20.0428C42.6731 20.8816 42.4514 21.8395 42.5089 22.8012C42.5664 23.763 42.9005 24.6876 43.4711 25.464C44.0416 26.2403 44.8244 26.8353 45.7251 27.1773C46.6258 27.5193 47.6062 27.5938 48.5482 27.3918C49.4903 27.1899 50.3539 26.72 51.0352 26.0388C51.5015 25.5753 51.8711 25.0238 52.1226 24.4163C52.3741 23.8088 52.5025 23.1575 52.5002 22.5C52.5006 22.0063 52.4282 21.5151 52.2852 21.0425L57.0002 17.8175L68.1527 25.45C68.3153 25.5613 68.4983 25.6395 68.6911 25.6801C68.8839 25.7207 69.0828 25.7229 69.2765 25.6867C69.4701 25.6504 69.6548 25.5763 69.8198 25.4687C69.9848 25.3611 70.1271 25.222 70.2384 25.0594C70.3497 24.8968 70.4278 24.7139 70.4685 24.5211C70.5091 24.3283 70.5113 24.1293 70.475 23.9357C70.4387 23.742 70.3647 23.5574 70.257 23.3923C70.1494 23.2273 70.0103 23.0851 69.8477 22.9738ZM48.914 23.9163C48.5868 24.2433 48.1563 24.4467 47.6959 24.492C47.2355 24.5373 46.7737 24.4215 46.389 24.1645C46.0044 23.9074 45.7208 23.525 45.5864 23.0823C45.4521 22.6396 45.4754 22.1641 45.6523 21.7366C45.8293 21.3092 46.1489 20.9563 46.5568 20.7381C46.9647 20.5199 47.4357 20.4498 47.8894 20.5398C48.3432 20.6298 48.7517 20.8744 49.0454 21.2318C49.3392 21.5892 49.4999 22.0374 49.5002 22.5C49.5005 22.763 49.4488 23.0235 49.3482 23.2665C49.2476 23.5096 49.1 23.7303 48.914 23.9163ZM46.0865 10.9125C45.8067 10.6329 45.6161 10.2765 45.5388 9.8885C45.4615 9.50051 45.501 9.0983 45.6524 8.73278C45.8037 8.36725 46.06 8.05481 46.389 7.83499C46.7179 7.61517 47.1046 7.49784 47.5002 7.49784C47.8959 7.49784 48.2826 7.61517 48.6115 7.83499C48.9405 8.05481 49.1968 8.36725 49.3481 8.73278C49.4995 9.0983 49.539 9.50051 49.4617 9.8885C49.3844 10.2765 49.1938 10.6329 48.914 10.9125C48.539 11.2873 48.0305 11.4978 47.5002 11.4978C46.97 11.4978 46.4615 11.2873 46.0865 10.9125ZM60.189 13.8175C60.0778 13.6549 59.9997 13.472 59.9591 13.2792C59.9186 13.0865 59.9165 12.8876 59.9528 12.694C59.9891 12.5004 60.0632 12.3158 60.1709 12.1508C60.2785 11.9859 60.4177 11.8437 60.5802 11.7325L68.1527 6.55002C68.4811 6.32525 68.8853 6.24013 69.2765 6.31338C69.6676 6.38664 70.0136 6.61227 70.2384 6.94064C70.4631 7.26901 70.5483 7.67323 70.475 8.06436C70.4018 8.45549 70.1761 8.8015 69.8477 9.02627L62.274 14.2088C62.1114 14.32 61.9285 14.3981 61.7357 14.4386C61.5429 14.4792 61.3441 14.4813 61.1505 14.445C60.9569 14.4086 60.7723 14.3345 60.6073 14.2269C60.4424 14.1192 60.3002 13.9801 60.189 13.8175Z" fill="white"/>
</g>
<defs>
<clipPath id="clip0_27_5533">
<rect width="72" height="32" rx="5" fill="white"/>
</clipPath>
</defs>
</svg>
