<svg width="72" height="32" viewBox="0 0 72 32" fill="none" xmlns="http://www.w3.org/2000/svg">
<g clip-path="url(#clip0_27_6790)">
<path d="M30.4991 21.5C30.4995 22.1937 30.3195 22.8755 29.9767 23.4786C29.634 24.0817 29.1404 24.5853 28.5442 24.94C27.948 25.2947 27.2699 25.4882 26.5764 25.5016C25.8828 25.515 25.1977 25.3478 24.5883 25.0165C23.9789 24.6851 23.4661 24.201 23.1003 23.6115C22.7346 23.0221 22.5284 22.3478 22.502 21.6546C22.4756 20.9614 22.6299 20.2733 22.9498 19.6578C23.2697 19.0422 23.7441 18.5205 24.3266 18.1437L23.2016 14.7825L16.7691 22.6338C16.6756 22.7478 16.5582 22.8397 16.4251 22.9031C16.2919 22.9664 16.1465 22.9995 15.9991 23H9.20656C8.84199 23.9019 8.16123 24.6401 7.29169 25.0763C6.42215 25.5125 5.42344 25.6169 4.48249 25.3699C3.54154 25.1229 2.72285 24.5415 2.17967 23.7344C1.63648 22.9274 1.40602 21.95 1.53143 20.9853C1.65685 20.0206 2.12953 19.1347 2.86101 18.4933C3.59249 17.852 4.53263 17.4992 5.50545 17.501C6.47827 17.5028 7.4171 17.8591 8.1462 18.5031C8.87531 19.1472 9.34471 20.0348 9.46656 21H15.5253L22.4578 12.5387L20.2778 6H16.9991C16.7338 6 16.4795 5.89464 16.292 5.70711C16.1044 5.51957 15.9991 5.26522 15.9991 5C15.9991 4.73478 16.1044 4.48043 16.292 4.29289C16.4795 4.10536 16.7338 4 16.9991 4H20.9991C21.2089 3.99998 21.4135 4.06601 21.5838 4.18873C21.7541 4.31145 21.8814 4.48463 21.9478 4.68375L26.2241 17.51C26.3141 17.5037 26.4066 17.5 26.4991 17.5C27.5599 17.5 28.5773 17.9214 29.3275 18.6716C30.0776 19.4217 30.4991 20.4391 30.4991 21.5Z" fill="white"/>
<path d="M66.4997 16.5H66.4147L62.4222 4.52625C62.3228 4.22756 62.1319 3.96772 61.8766 3.78353C61.6213 3.59934 61.3145 3.50015 60.9997 3.5H56.9997C56.6019 3.5 56.2204 3.65804 55.9391 3.93934C55.6578 4.22064 55.4997 4.60218 55.4997 5C55.4997 5.39782 55.6578 5.77936 55.9391 6.06066C56.2204 6.34196 56.6019 6.5 56.9997 6.5H59.9185L61.7722 12.0612L54.3235 20.5H50.3997C50.1618 19.3301 49.5132 18.284 48.5711 17.5507C47.6291 16.8174 46.4557 16.4454 45.2632 16.5019C44.0707 16.5585 42.9378 17.0398 42.0693 17.859C41.2009 18.6781 40.6541 19.7809 40.528 20.9681C40.4019 22.1552 40.7047 23.3483 41.3816 24.3316C42.0586 25.315 43.0651 26.0236 44.219 26.3295C45.373 26.6353 46.5983 26.5182 47.6735 25.9992C48.7486 25.4803 49.6026 24.5938 50.081 23.5H54.9997C55.2125 23.5 55.4229 23.4548 55.6168 23.3673C55.8108 23.2798 55.9839 23.152 56.1247 22.9925L62.8747 15.3512L63.5747 17.4525C62.6105 18.1518 61.9276 19.1725 61.649 20.3306C61.3704 21.4887 61.5144 22.7082 62.0551 23.7696C62.5958 24.8309 63.4976 25.6644 64.5982 26.1199C65.6989 26.5754 66.9259 26.6231 68.0585 26.2543C69.1911 25.8854 70.1549 25.1244 70.7762 24.1081C71.3975 23.0919 71.6357 21.8872 71.4477 20.711C71.2597 19.5347 70.658 18.4643 69.7509 17.6923C68.8438 16.9203 67.6909 16.4975 66.4997 16.5ZM45.4997 23.5C45.1042 23.5 44.7175 23.3827 44.3886 23.1629C44.0597 22.9432 43.8034 22.6308 43.652 22.2654C43.5006 21.8999 43.461 21.4978 43.5382 21.1098C43.6153 20.7219 43.8058 20.3655 44.0855 20.0858C44.3652 19.8061 44.7216 19.6156 45.1096 19.5384C45.4975 19.4613 45.8997 19.5009 46.2651 19.6522C46.6306 19.8036 46.9429 20.06 47.1627 20.3889C47.3824 20.7178 47.4997 21.1044 47.4997 21.5C47.4997 22.0304 47.289 22.5391 46.9139 22.9142C46.5389 23.2893 46.0302 23.5 45.4997 23.5ZM66.4997 23.5C66.1042 23.5 65.7175 23.3827 65.3886 23.1629C65.0597 22.9432 64.8034 22.6308 64.652 22.2654C64.5006 21.8999 64.461 21.4978 64.5382 21.1098C64.6153 20.7219 64.8058 20.3655 65.0855 20.0858C65.3652 19.8061 65.7216 19.6156 66.1096 19.5384C66.4975 19.4613 66.8997 19.5009 67.2651 19.6522C67.6306 19.8036 67.9429 20.06 68.1627 20.3889C68.3824 20.7178 68.4997 21.1044 68.4997 21.5C68.4997 22.0304 68.289 22.5391 67.9139 22.9142C67.5389 23.2893 67.0302 23.5 66.4997 23.5Z" fill="white"/>
</g>
<defs>
<clipPath id="clip0_27_6790">
<rect width="72" height="32" rx="5" fill="white"/>
</clipPath>
</defs>
</svg>
