<svg width="72" height="32" viewBox="0 0 72 32" fill="none" xmlns="http://www.w3.org/2000/svg">
<g clip-path="url(#clip0_27_1447)">
<path d="M29.1537 2.84374C27.971 1.66281 26.3681 0.999512 24.6968 0.999512C23.0255 0.999512 21.4225 1.66281 20.2399 2.84374L13.5849 9.49999C13.3991 9.68524 13.2518 9.9054 13.1514 10.1478C13.051 10.3902 12.9995 10.6501 12.9999 10.9125V13H10.8962C10.4605 13.0011 10.0369 13.1431 9.68867 13.405C9.6525 13.4326 9.61825 13.4627 9.58617 13.495L8.58617 14.495C8.40041 14.6807 8.25305 14.9012 8.15251 15.1439C8.05197 15.3866 8.00022 15.6467 8.00022 15.9094C8.00022 16.172 8.05197 16.4322 8.15251 16.6748C8.25305 16.9175 8.40041 17.138 8.58617 17.3237L10.9237 19.6625L1.29867 29.2937C1.20576 29.3866 1.13206 29.4969 1.08178 29.6183C1.0315 29.7397 1.00562 29.8698 1.00562 30.0012C1.00562 30.1326 1.0315 30.2627 1.08178 30.3841C1.13206 30.5055 1.20576 30.6158 1.29867 30.7087C1.48631 30.8964 1.74081 31.0018 2.00617 31.0018C2.13757 31.0018 2.26767 30.9759 2.38907 30.9256C2.51046 30.8753 2.62076 30.8016 2.71367 30.7087L12.3387 21.0762L14.6774 23.415C15.0525 23.7898 15.561 24.0003 16.0912 24.0003C16.6214 24.0003 17.1299 23.7898 17.5049 23.415L18.5049 22.415C18.5372 22.3825 18.5673 22.3478 18.5949 22.3112C18.8583 21.9638 19.001 21.5398 19.0012 21.1037V19H21.0874C21.35 19.0005 21.6101 18.9488 21.8526 18.848C22.0951 18.7471 22.3151 18.5991 22.4999 18.4125L29.1537 11.7587C29.7391 11.1734 30.2034 10.4784 30.5202 9.71363C30.837 8.94881 31.0001 8.12908 31.0001 7.30124C31.0001 6.4734 30.837 5.65367 30.5202 4.88885C30.2034 4.12403 29.7391 3.4291 29.1537 2.84374ZM25.7074 7.70499L18.7074 14.705C18.5199 14.8926 18.2656 14.9981 18.0004 14.9982C17.7351 14.9983 17.4807 14.8931 17.293 14.7056C17.1054 14.5181 16.9999 14.2638 16.9998 13.9986C16.9997 13.7333 17.1049 13.4789 17.2924 13.2912L24.2924 6.29124C24.4801 6.1036 24.7346 5.99818 24.9999 5.99818C25.2653 5.99818 25.5198 6.1036 25.7074 6.29124C25.8951 6.47888 26.0005 6.73337 26.0005 6.99874C26.0005 7.2641 25.8951 7.5186 25.7074 7.70624V7.70499Z" fill="white"/>
<path d="M66.0612 5.93628C66.201 6.07563 66.312 6.24122 66.3877 6.42355C66.4634 6.60588 66.5024 6.80136 66.5024 6.99878C66.5024 7.1962 66.4634 7.39168 66.3877 7.57401C66.312 7.75633 66.201 7.92192 66.0612 8.06128L59.5612 14.5613C59.2794 14.8431 58.8972 15.0014 58.4987 15.0014C58.1002 15.0014 57.718 14.8431 57.4362 14.5613C57.1544 14.2795 56.9961 13.8973 56.9961 13.4988C56.9961 13.1003 57.1544 12.7181 57.4362 12.4363L63.9362 5.93628C64.0756 5.79644 64.2411 5.68548 64.4235 5.60977C64.6058 5.53407 64.8013 5.49509 64.9987 5.49509C65.1961 5.49509 65.3916 5.53407 65.5739 5.60977C65.7563 5.68548 65.9218 5.79644 66.0612 5.93628ZM71.4999 7.30128C71.5023 8.19513 71.3275 9.08059 70.9855 9.90642C70.6435 10.7323 70.1411 11.4821 69.5074 12.1125L62.8537 18.7663C62.6223 18.9994 62.3469 19.1844 62.0435 19.3103C61.7401 19.4363 61.4147 19.5008 61.0862 19.5H59.4999V21.1038C59.4988 21.6488 59.3207 22.1787 58.9924 22.6138C58.9512 22.6682 58.9061 22.7196 58.8574 22.7675L57.8574 23.7675C57.3886 24.2362 56.7529 24.4995 56.0899 24.4995C55.427 24.4995 54.7913 24.2362 54.3224 23.7675L52.3374 21.7825L43.0612 31.06C42.9217 31.1996 42.756 31.3102 42.5737 31.3858C42.3914 31.4613 42.196 31.5001 41.9987 31.5001C41.8014 31.5001 41.606 31.4613 41.4237 31.3858C41.2414 31.3102 41.0757 31.1996 40.9362 31.06C40.7967 30.9205 40.686 30.7549 40.6105 30.5725C40.535 30.3902 40.4961 30.1949 40.4961 29.9975C40.4961 29.8002 40.535 29.6048 40.6105 29.4225C40.686 29.2402 40.7967 29.0746 40.9362 28.935L50.2137 19.6575L48.2324 17.6763C48.0002 17.4441 47.816 17.1685 47.6903 16.8651C47.5646 16.5617 47.4999 16.2365 47.4999 15.9082C47.4999 15.5798 47.5646 15.2546 47.6903 14.9512C47.816 14.6478 48.0002 14.3722 48.2324 14.14L49.2324 13.14C49.2807 13.0897 49.3325 13.0429 49.3874 13C49.8229 12.6743 50.3524 12.4989 50.8962 12.5H52.4999V10.9125C52.4991 10.5839 52.5634 10.2584 52.6891 9.95482C52.8149 9.65123 52.9995 9.37557 53.2324 9.14378L59.8862 2.49003C60.8378 1.53883 62.05 0.89112 63.3697 0.628797C64.6894 0.366475 66.0572 0.501314 67.3002 1.01627C68.5432 1.53122 69.6057 2.40317 70.3532 3.52187C71.1007 4.64057 71.4998 5.9558 71.4999 7.30128ZM68.4999 7.30128C68.4998 6.54912 68.2767 5.81389 67.8588 5.18851C67.441 4.56313 66.847 4.07568 66.1522 3.78777C65.4573 3.49987 64.6927 3.42444 63.9549 3.57102C63.2172 3.7176 62.5395 4.0796 62.0074 4.61128L55.4999 11.125V13C55.4999 13.6631 55.2366 14.299 54.7677 14.7678C54.2989 15.2366 53.663 15.5 52.9999 15.5H51.1174L50.7074 15.91L53.3974 18.6013L56.0887 21.2913L56.4987 20.8813V19C56.4987 18.337 56.7621 17.7011 57.2309 17.2323C57.6998 16.7634 58.3357 16.5 58.9987 16.5H60.8737L67.3812 9.99128C67.7363 9.6392 68.0181 9.22014 68.2101 8.75839C68.4022 8.29664 68.5007 7.80137 68.4999 7.30128Z" fill="white"/>
</g>
<defs>
<clipPath id="clip0_27_1447">
<rect width="72" height="32" rx="5" fill="white"/>
</clipPath>
</defs>
</svg>
