<svg width="72" height="32" viewBox="0 0 72 32" fill="none" xmlns="http://www.w3.org/2000/svg">
<g clip-path="url(#clip0_27_3966)">
<path d="M7.00038 26C7.00044 26.1339 6.97361 26.2664 6.92149 26.3897C6.86937 26.5131 6.79302 26.6247 6.69696 26.7179C6.6009 26.8112 6.48709 26.8842 6.36228 26.9327C6.23747 26.9811 6.1042 27.004 5.97038 27C5.70816 26.9835 5.46203 26.8679 5.2819 26.6766C5.10177 26.4854 5.00113 26.2327 5.00038 25.97C4.99284 25.7151 4.88822 25.4728 4.70792 25.2925C4.52762 25.1122 4.28525 25.0075 4.03038 25C3.76764 24.9992 3.51502 24.8986 3.32375 24.7185C3.13248 24.5383 3.01688 24.2922 3.00038 24.03C2.99636 23.8962 3.01926 23.7629 3.06771 23.6381C3.11616 23.5133 3.18919 23.3995 3.28245 23.3034C3.37571 23.2074 3.48731 23.131 3.61064 23.0789C3.73396 23.0268 3.86649 22.9999 4.00038 23C4.79603 23 5.55909 23.3161 6.1217 23.8787C6.68431 24.4413 7.00038 25.2044 7.00038 26ZM4.00038 19C3.86193 18.9995 3.7249 19.0278 3.59795 19.0831C3.47101 19.1384 3.35692 19.2194 3.26292 19.321C3.16891 19.4227 3.09704 19.5427 3.05185 19.6736C3.00665 19.8044 2.98913 19.9433 3.00038 20.0812C3.026 20.3355 3.14599 20.5709 3.33668 20.741C3.52736 20.911 3.77488 21.0035 4.03038 21C5.34607 21.0079 6.60565 21.534 7.536 22.4644C8.46636 23.3947 8.99251 24.6543 9.00038 25.97C8.99693 26.2257 9.08953 26.4734 9.25988 26.6641C9.43022 26.8548 9.66592 26.9747 9.92038 27C10.0583 27.0111 10.197 26.9934 10.3277 26.9481C10.4584 26.9029 10.5783 26.831 10.6798 26.737C10.7813 26.643 10.8622 26.529 10.9174 26.4021C10.9726 26.2753 11.0008 26.1383 11.0004 26C10.9984 24.1441 10.2603 22.3648 8.94793 21.0524C7.63561 19.7401 5.85628 19.002 4.00038 19ZM4.00038 15C3.8625 14.9996 3.72603 15.0277 3.59954 15.0826C3.47306 15.1375 3.35928 15.2179 3.26537 15.3189C3.17146 15.4198 3.09945 15.5391 3.05384 15.6692C3.00824 15.7994 2.99004 15.9375 3.00038 16.075C3.02603 16.3311 3.14686 16.5683 3.33898 16.7396C3.5311 16.9108 3.78051 17.0038 4.03788 17C6.4106 17.0125 8.68263 17.9604 10.3607 19.638C12.0387 21.3155 12.9872 23.5873 13.0004 25.96C12.9966 26.2174 13.0895 26.4668 13.2608 26.6589C13.4321 26.851 13.6693 26.9719 13.9254 26.9975C14.0629 27.0078 14.201 26.9896 14.3311 26.944C14.4612 26.8984 14.5805 26.8264 14.6815 26.7325C14.7824 26.6386 14.8629 26.5248 14.9178 26.3983C14.9726 26.2718 15.0008 26.1354 15.0004 25.9975C14.9964 23.0816 13.8361 20.2862 11.774 18.2246C9.7119 16.163 6.91631 15.0033 4.00038 15ZM27.0004 5H5.00038C4.46994 5 3.96124 5.21071 3.58616 5.58579C3.21109 5.96086 3.00038 6.46957 3.00038 7V12.51C3.00033 12.5773 3.01386 12.6439 3.04015 12.7058C3.06644 12.7677 3.10496 12.8237 3.15339 12.8704C3.20182 12.917 3.25918 12.9535 3.32202 12.9775C3.38487 13.0015 3.45191 13.0125 3.51913 13.01C5.30552 12.9458 7.08598 13.2504 8.74948 13.9047C10.413 14.5589 11.9239 15.5489 13.1879 16.8128C14.4519 18.0768 15.442 19.5875 16.0965 21.251C16.7509 22.9144 17.0556 24.6949 16.9916 26.4813C16.9891 26.5485 17.0002 26.6155 17.0242 26.6784C17.0482 26.7412 17.0846 26.7986 17.1313 26.847C17.178 26.8954 17.2339 26.9339 17.2959 26.9602C17.3578 26.9865 17.4244 27 17.4916 27H27.0004C27.5308 27 28.0395 26.7893 28.4146 26.4142C28.7897 26.0391 29.0004 25.5304 29.0004 25V7C29.0004 6.46957 28.7897 5.96086 28.4146 5.58579C28.0395 5.21071 27.5308 5 27.0004 5Z" fill="white"/>
<path d="M69 7.5V24.5C69 25.163 68.7366 25.7989 68.2678 26.2678C67.7989 26.7366 67.163 27 66.5 27H61.5C61.1022 27 60.7206 26.842 60.4393 26.5607C60.158 26.2794 60 25.8978 60 25.5C60 25.1022 60.158 24.7206 60.4393 24.4393C60.7206 24.158 61.1022 24 61.5 24H66V8H46V8.5C46 8.89782 45.842 9.27936 45.5607 9.56066C45.2794 9.84196 44.8978 10 44.5 10C44.1022 10 43.7206 9.84196 43.4393 9.56066C43.158 9.27936 43 8.89782 43 8.5V7.5C43 6.83696 43.2634 6.20107 43.7322 5.73223C44.2011 5.26339 44.837 5 45.5 5H66.5C67.163 5 67.7989 5.26339 68.2678 5.73223C68.7366 6.20107 69 6.83696 69 7.5ZM44.5 22C44.1022 22 43.7206 22.158 43.4393 22.4393C43.158 22.7206 43 23.1022 43 23.5C43 23.8978 43.158 24.2794 43.4393 24.5607C43.7206 24.842 44.1022 25 44.5 25C44.6326 25 44.7598 25.0527 44.8536 25.1464C44.9473 25.2402 45 25.3674 45 25.5C45 25.8978 45.158 26.2794 45.4393 26.5607C45.7206 26.842 46.1022 27 46.5 27C46.8978 27 47.2794 26.842 47.5607 26.5607C47.842 26.2794 48 25.8978 48 25.5C48 24.5717 47.6313 23.6815 46.9749 23.0251C46.3185 22.3687 45.4283 22 44.5 22ZM44.5 17C44.1022 17 43.7206 17.158 43.4393 17.4393C43.158 17.7206 43 18.1022 43 18.5C43 18.8978 43.158 19.2794 43.4393 19.5607C43.7206 19.842 44.1022 20 44.5 20C45.9582 20.0017 47.3562 20.5816 48.3873 21.6127C49.4184 22.6438 49.9983 24.0418 50 25.5C50 25.8978 50.158 26.2794 50.4393 26.5607C50.7206 26.842 51.1022 27 51.5 27C51.8978 27 52.2794 26.842 52.5607 26.5607C52.842 26.2794 53 25.8978 53 25.5C52.9977 23.2464 52.1014 21.0857 50.5078 19.4922C48.9143 17.8986 46.7536 17.0023 44.5 17ZM44.5 12C44.1022 12 43.7206 12.158 43.4393 12.4393C43.158 12.7206 43 13.1022 43 13.5C43 13.8978 43.158 14.2794 43.4393 14.5607C43.7206 14.842 44.1022 15 44.5 15C47.2839 15.003 49.9528 16.1102 51.9213 18.0787C53.8898 20.0472 54.997 22.7161 55 25.5C55 25.8978 55.158 26.2794 55.4393 26.5607C55.7206 26.842 56.1022 27 56.5 27C56.8978 27 57.2794 26.842 57.5607 26.5607C57.842 26.2794 58 25.8978 58 25.5C57.996 21.9208 56.5724 18.4893 54.0416 15.9584C51.5107 13.4276 48.0792 12.004 44.5 12Z" fill="white"/>
</g>
<defs>
<clipPath id="clip0_27_3966">
<rect width="72" height="32" rx="5" fill="white"/>
</clipPath>
</defs>
</svg>
