<svg width="72" height="32" viewBox="0 0 72 32" fill="none" xmlns="http://www.w3.org/2000/svg">
<g clip-path="url(#clip0_27_5543)">
<path d="M16 16C17.0922 16.0048 18.1765 16.1855 19.2113 16.535C18.945 19.3587 17.1663 22 14 22C12.025 22 10.9925 20.6437 10.9925 19.3025C10.9925 18.4788 11.3675 17.7088 12.0625 17.1338C12.9525 16.3925 14.315 16 16 16ZM28 6V26C28 26.5304 27.7893 27.0391 27.4142 27.4142C27.0391 27.7893 26.5304 28 26 28H6C5.46957 28 4.96086 27.7893 4.58579 27.4142C4.21071 27.0391 4 26.5304 4 26V6C4 5.46957 4.21071 4.96086 4.58579 4.58579C4.96086 4.21071 5.46957 4 6 4H26C26.5304 4 27.0391 4.21071 27.4142 4.58579C27.7893 4.96086 28 5.46957 28 6ZM25.7362 18.3237C24.4397 17.0047 22.9107 15.9364 21.2262 15.1725C21.1138 13.3787 20.5075 11.73 19.49 10.4788C18.1725 8.8575 16.2738 8 14 8C9.555 8 6.335 12.22 6.2 12.4C6.04054 12.612 5.97183 12.8787 6.00898 13.1413C6.04614 13.404 6.18612 13.6412 6.39813 13.8006C6.61013 13.9601 6.8768 14.0288 7.13947 13.9916C7.40214 13.9545 7.63929 13.8145 7.79875 13.6025C7.82625 13.5662 10.5638 10 14 10C15.675 10 17 10.585 17.9375 11.74C18.5493 12.519 18.9566 13.4385 19.1225 14.415C18.1042 14.1411 17.0545 14.0016 16 14C13.8412 14 12.0363 14.5525 10.7825 15.5975C9.625 16.5588 8.9925 17.875 8.9925 19.3025C8.9925 21.58 10.75 24 14 24C15.051 24.0118 16.0902 23.7781 17.0348 23.3173C17.9795 22.8566 18.8035 22.1817 19.4412 21.3463C20.3272 20.1798 20.9061 18.8096 21.125 17.3612C22.2804 17.974 23.3389 18.7541 24.2663 19.6763C24.354 19.7767 24.461 19.8586 24.5809 19.9171C24.7008 19.9756 24.8313 20.0095 24.9645 20.0169C25.0977 20.0242 25.231 20.0048 25.3566 19.9598C25.4822 19.9148 25.5976 19.8451 25.6958 19.7548C25.7941 19.6646 25.8733 19.5556 25.9288 19.4343C25.9843 19.3129 26.0149 19.1817 26.0189 19.0483C26.0229 18.915 26.0002 18.7822 25.9521 18.6577C25.904 18.5333 25.8314 18.4197 25.7388 18.3237H25.7362Z" fill="white"/>
<path d="M71.6118 19C71.4455 18.8162 68.643 15.7687 64.0855 13.9137C63.8168 11.6287 62.948 9.55125 61.573 7.95C59.6393 5.69 56.848 4.5 53.4993 4.5C46.8043 4.5 42.4605 10.4738 42.2793 10.7275C42.0472 11.0512 41.9533 11.4539 42.0181 11.8469C42.0829 12.2399 42.3012 12.5911 42.6249 12.8231C42.9486 13.0552 43.3513 13.1491 43.7443 13.0843C44.1373 13.0195 44.4885 12.8012 44.7205 12.4775C44.7555 12.4225 48.3305 7.5 53.4993 7.5C55.9805 7.5 57.9305 8.30625 59.2968 9.8975C60.0299 10.7699 60.5594 11.7948 60.8468 12.8975C59.6073 12.6322 58.3431 12.499 57.0755 12.5C53.7005 12.5 50.8518 13.3912 48.8443 15.0787C47.0368 16.5987 45.9993 18.7225 45.9993 20.9062C45.9993 24.1825 48.4293 27.5 53.0755 27.5C59.5668 27.5 63.368 22.465 64.0593 17.1963C66.0367 18.1578 67.8377 19.4458 69.3868 21.0063C69.515 21.1643 69.6741 21.2946 69.8544 21.3892C70.0346 21.4838 70.2322 21.5407 70.4351 21.5565C70.6381 21.5723 70.8421 21.5466 71.0348 21.4811C71.2275 21.4155 71.4048 21.3114 71.556 21.1751C71.7072 21.0388 71.829 20.8731 71.9141 20.6882C71.9992 20.5033 72.0458 20.303 72.051 20.0995C72.0562 19.896 72.02 19.6936 71.9445 19.5046C71.869 19.3156 71.7558 19.1439 71.6118 19ZM59.0455 21.7175C58.0105 22.9875 56.1355 24.5 53.0755 24.5C50.2593 24.5 48.9993 22.695 48.9993 20.9062C48.9993 18.3025 51.5268 15.5 57.0755 15.5C58.4556 15.5037 59.8286 15.698 61.1555 16.0775C61.0293 18.18 60.2755 20.2075 59.0455 21.7175Z" fill="white"/>
</g>
<defs>
<clipPath id="clip0_27_5543">
<rect width="72" height="32" rx="5" fill="white"/>
</clipPath>
</defs>
</svg>
