<svg width="72" height="32" viewBox="0 0 72 32" fill="none" xmlns="http://www.w3.org/2000/svg">
<g clip-path="url(#clip0_27_5538)">
<path d="M26 4H6C5.46957 4 4.96086 4.21071 4.58579 4.58579C4.21071 4.96086 4 5.46957 4 6V26C4 26.5304 4.21071 27.0391 4.58579 27.4142C4.96086 27.7893 5.46957 28 6 28H26C26.5304 28 27.0391 27.7893 27.4142 27.4142C27.7893 27.0391 28 26.5304 28 26V6C28 5.46957 27.7893 4.96086 27.4142 4.58579C27.0391 4.21071 26.5304 4 26 4ZM24.2075 21.2075L23.2075 22.2075C22.9983 22.4182 22.881 22.7031 22.881 23C22.881 23.2969 22.9983 23.5818 23.2075 23.7925L23.7075 24.2925C23.8004 24.3854 23.8741 24.4957 23.9244 24.6171C23.9747 24.7385 24.0006 24.8686 24.0006 25C24.0006 25.1314 23.9747 25.2615 23.9244 25.3829C23.8741 25.5043 23.8004 25.6146 23.7075 25.7075C23.6146 25.8004 23.5043 25.8741 23.3829 25.9244C23.2615 25.9747 23.1314 26.0006 23 26.0006C22.8686 26.0006 22.7385 25.9747 22.6171 25.9244C22.4957 25.8741 22.3854 25.8004 22.2925 25.7075L21.7925 25.2075C21.2078 24.6216 20.8794 23.8277 20.8794 23C20.8794 22.1723 21.2078 21.3784 21.7925 20.7925L22.7925 19.7925C23.0017 19.5818 23.119 19.2969 23.119 19C23.119 18.7031 23.0017 18.4182 22.7925 18.2075C22.5818 17.9983 22.2969 17.881 22 17.881C21.7031 17.881 21.4182 17.9983 21.2075 18.2075L15.2075 24.2075C14.6137 24.7505 13.8333 25.0434 13.0289 25.0254C12.2245 25.0075 11.458 24.6799 10.8891 24.1109C10.3201 23.542 9.99254 22.7755 9.97456 21.9711C9.95657 21.1667 10.2495 20.3863 10.7925 19.7925L19.7925 10.7925C20.0017 10.5818 20.119 10.2969 20.119 10C20.119 9.7031 20.0017 9.41823 19.7925 9.2075C19.5818 8.99835 19.2969 8.88098 19 8.88098C18.7031 8.88098 18.4182 8.99835 18.2075 9.2075L12.2075 15.2075C11.6137 15.7505 10.8333 16.0434 10.0289 16.0254C9.2245 16.0075 8.45802 15.6799 7.88907 15.1109C7.32011 14.542 6.99254 13.7755 6.97455 12.9711C6.95657 12.1667 7.24955 11.3863 7.7925 10.7925L11.2925 7.2925C11.3854 7.19959 11.4957 7.12589 11.6171 7.07561C11.7385 7.02532 11.8686 6.99944 12 6.99944C12.1314 6.99944 12.2615 7.02532 12.3829 7.07561C12.5043 7.12589 12.6146 7.19959 12.7075 7.2925C12.8004 7.38541 12.8741 7.49571 12.9244 7.6171C12.9747 7.7385 13.0006 7.86861 13.0006 8C13.0006 8.13139 12.9747 8.2615 12.9244 8.3829C12.8741 8.50429 12.8004 8.61459 12.7075 8.7075L9.2075 12.2075C8.99835 12.4182 8.88098 12.7031 8.88098 13C8.88098 13.2969 8.99835 13.5818 9.2075 13.7925C9.41823 14.0017 9.7031 14.119 10 14.119C10.2969 14.119 10.5818 14.0017 10.7925 13.7925L16.7925 7.7925C17.3863 7.24955 18.1667 6.95657 18.9711 6.97455C19.7755 6.99254 20.542 7.32011 21.1109 7.88907C21.6799 8.45802 22.0075 9.2245 22.0254 10.0289C22.0434 10.8333 21.7505 11.6137 21.2075 12.2075L12.2075 21.2075C11.9983 21.4182 11.881 21.7031 11.881 22C11.881 22.2969 11.9983 22.5818 12.2075 22.7925C12.4182 23.0017 12.7031 23.119 13 23.119C13.2969 23.119 13.5818 23.0017 13.7925 22.7925L19.7925 16.7925C20.3863 16.2495 21.1667 15.9566 21.9711 15.9746C22.7755 15.9925 23.542 16.3201 24.1109 16.8891C24.6799 17.458 25.0075 18.2245 25.0254 19.0289C25.0434 19.8333 24.7505 20.6137 24.2075 21.2075Z" fill="white"/>
<path d="M66.0634 24.0613C65.9402 24.1843 65.8424 24.3305 65.7757 24.4913C65.709 24.6522 65.6747 24.8246 65.6747 24.9988C65.6747 25.1729 65.709 25.3453 65.7757 25.5062C65.8424 25.6671 65.9402 25.8132 66.0634 25.9363C66.3452 26.2181 66.5035 26.6003 66.5035 26.9988C66.5035 27.3973 66.3452 27.7795 66.0634 28.0613C65.7816 28.3431 65.3994 28.5014 65.0009 28.5014C64.6024 28.5014 64.2202 28.3431 63.9384 28.0613C63.5358 27.6593 63.2164 27.182 62.9985 26.6565C62.7806 26.131 62.6684 25.5677 62.6684 24.9988C62.6684 24.4299 62.7806 23.8666 62.9985 23.3411C63.2164 22.8156 63.5358 22.3382 63.9384 21.9363L65.1096 20.765C65.3317 20.5113 65.449 20.1827 65.4378 19.8457C65.4267 19.5088 65.2878 19.1887 65.0494 18.9503C64.811 18.7119 64.4909 18.573 64.1539 18.5618C63.8169 18.5506 63.4883 18.6679 63.2346 18.89L54.8896 27.2338C54.0774 28.046 52.9758 28.5023 51.8271 28.5023C50.6785 28.5023 49.5768 28.046 48.7646 27.2338C47.9524 26.4215 47.4961 25.3199 47.4961 24.1713C47.4961 23.0226 47.9524 21.921 48.7646 21.1088L61.1096 8.76502C61.3317 8.51133 61.449 8.18271 61.4378 7.84574C61.4267 7.50878 61.2878 7.18866 61.0494 6.95026C60.811 6.71185 60.4909 6.57299 60.1539 6.56181C59.8169 6.55062 59.4883 6.66795 59.2346 6.89002L50.8896 15.2325C50.0774 16.0447 48.9758 16.501 47.8271 16.501C46.6785 16.501 45.5768 16.0447 44.7646 15.2325C43.9524 14.4203 43.4961 13.3187 43.4961 12.17C43.4961 11.0214 43.9524 9.91974 44.7646 9.10752L49.9396 3.93877C50.2214 3.65698 50.6036 3.49867 51.0021 3.49867C51.4006 3.49867 51.7828 3.65698 52.0646 3.93877C52.3464 4.22056 52.5047 4.60275 52.5047 5.00127C52.5047 5.39978 52.3464 5.78198 52.0646 6.06377L46.8884 11.2325C46.6663 11.4862 46.549 11.8148 46.5602 12.1518C46.5713 12.4888 46.7102 12.8089 46.9486 13.0473C47.187 13.2857 47.5071 13.4245 47.8441 13.4357C48.1811 13.4469 48.5097 13.3296 48.7634 13.1075L57.1084 4.76377C57.9206 3.95154 59.0222 3.49524 60.1709 3.49524C61.3195 3.49524 62.4211 3.95154 63.2334 4.76377C64.0456 5.57599 64.5019 6.67761 64.5019 7.82627C64.5019 8.97493 64.0456 10.0765 63.2334 10.8888L50.8896 23.2325C50.6676 23.4862 50.5502 23.8148 50.5614 24.1518C50.5726 24.4888 50.7115 24.8089 50.9499 25.0473C51.1883 25.2857 51.5084 25.4245 51.8453 25.4357C52.1823 25.4469 52.5109 25.3296 52.7646 25.1075L61.1084 16.7638C61.5105 16.3616 61.988 16.0426 62.5135 15.8249C63.0389 15.6073 63.6021 15.4952 64.1709 15.4952C64.7396 15.4952 65.3028 15.6073 65.8283 15.8249C66.3538 16.0426 66.8312 16.3616 67.2334 16.7638C67.6355 17.1659 67.9546 17.6434 68.1722 18.1689C68.3899 18.6943 68.5019 19.2575 68.5019 19.8263C68.5019 20.395 68.3899 20.9582 68.1722 21.4837C67.9546 22.0091 67.6355 22.4866 67.2334 22.8888L66.0634 24.0613Z" fill="white"/>
</g>
<defs>
<clipPath id="clip0_27_5538">
<rect width="72" height="32" rx="5" fill="white"/>
</clipPath>
</defs>
</svg>
