<svg width="72" height="32" viewBox="0 0 72 32" fill="none" xmlns="http://www.w3.org/2000/svg">
<g clip-path="url(#clip0_27_4845)">
<path d="M27.6 21.2C27.4269 21.0702 27.2164 21 27 21H26V8C26 6.93913 25.5786 5.92172 24.8284 5.17157C24.0783 4.42143 23.0609 4 22 4H5C3.93913 4 2.92172 4.42143 2.17157 5.17157C1.42143 5.92172 1 6.93913 1 8C1 9.70125 2.25625 10.6925 2.4 10.8C2.57262 10.9307 2.78347 11.001 3 11C3.20842 10.9994 3.41144 10.9338 3.58071 10.8122C3.74997 10.6906 3.87702 10.5191 3.94408 10.3218C4.01114 10.1244 4.01487 9.91109 3.95475 9.71153C3.89463 9.51198 3.77366 9.33619 3.60875 9.20875C3.60375 9.2025 3 8.7175 3 8C3 7.46957 3.21071 6.96086 3.58579 6.58579C3.96086 6.21071 4.46957 6 5 6C5.53043 6 6.03914 6.21071 6.41421 6.58579C6.78929 6.96086 7 7.46957 7 8V24C7 25.0609 7.42143 26.0783 8.17157 26.8284C8.92172 27.5786 9.93913 28 11 28H25C26.0609 28 27.0783 27.5786 27.8284 26.8284C28.5786 26.0783 29 25.0609 29 24C29 22.2987 27.75 21.3075 27.6 21.2ZM13 12H21C21.2652 12 21.5196 12.1054 21.7071 12.2929C21.8946 12.4804 22 12.7348 22 13C22 13.2652 21.8946 13.5196 21.7071 13.7071C21.5196 13.8946 21.2652 14 21 14H13C12.7348 14 12.4804 13.8946 12.2929 13.7071C12.1054 13.5196 12 13.2652 12 13C12 12.7348 12.1054 12.4804 12.2929 12.2929C12.4804 12.1054 12.7348 12 13 12ZM12 17C12 16.7348 12.1054 16.4804 12.2929 16.2929C12.4804 16.1054 12.7348 16 13 16H21C21.2652 16 21.5196 16.1054 21.7071 16.2929C21.8946 16.4804 22 16.7348 22 17C22 17.2652 21.8946 17.5196 21.7071 17.7071C21.5196 17.8946 21.2652 18 21 18H13C12.7348 18 12.4804 17.8946 12.2929 17.7071C12.1054 17.5196 12 17.2652 12 17ZM25 26H13.4637C13.8159 25.3924 14.001 24.7023 14 24C14.0002 23.6609 13.9493 23.3238 13.8488 23H26.5987C26.847 23.2753 26.99 23.6295 27.0025 24C27.0025 24.2629 26.9507 24.5231 26.85 24.7659C26.7494 25.0088 26.6018 25.2293 26.4158 25.4151C26.2298 25.6008 26.0091 25.7481 25.7661 25.8485C25.5232 25.9488 25.2629 26.0003 25 26Z" fill="white"/>
<path d="M51.5 11.5C51.5 11.1022 51.658 10.7206 51.9393 10.4393C52.2206 10.158 52.6022 10 53 10H60.5C60.8978 10 61.2794 10.158 61.5607 10.4393C61.842 10.7206 62 11.1022 62 11.5C62 11.8978 61.842 12.2794 61.5607 12.5607C61.2794 12.842 60.8978 13 60.5 13H53C52.6022 13 52.2206 12.842 51.9393 12.5607C51.658 12.2794 51.5 11.8978 51.5 11.5ZM53 18H60.5C60.8978 18 61.2794 17.842 61.5607 17.5607C61.842 17.2794 62 16.8978 62 16.5C62 16.1022 61.842 15.7206 61.5607 15.4393C61.2794 15.158 60.8978 15 60.5 15H53C52.6022 15 52.2206 15.158 51.9393 15.4393C51.658 15.7206 51.5 16.1022 51.5 16.5C51.5 16.8978 51.658 17.2794 51.9393 17.5607C52.2206 17.842 52.6022 18 53 18ZM69.5 24C69.5 25.1935 69.0259 26.3381 68.182 27.182C67.3381 28.0259 66.1935 28.5 65 28.5H51C49.8065 28.5 48.6619 28.0259 47.818 27.182C46.9741 26.3381 46.5 25.1935 46.5 24V8C46.5 7.60218 46.342 7.22064 46.0607 6.93934C45.7794 6.65804 45.3978 6.5 45 6.5C44.6022 6.5 44.2206 6.65804 43.9393 6.93934C43.658 7.22064 43.5 7.60218 43.5 8C43.5 8.46625 43.9187 8.81375 43.9225 8.8175L43.9 8.8C44.0651 8.91519 44.2053 9.06243 44.3123 9.23295C44.4192 9.40347 44.4908 9.59377 44.5227 9.79252C44.5546 9.99128 44.5461 10.1944 44.4978 10.3898C44.4496 10.5853 44.3624 10.769 44.2417 10.93C44.1209 11.0911 43.969 11.2261 43.7949 11.3272C43.6208 11.4283 43.4282 11.4933 43.2285 11.5184C43.0287 11.5435 42.826 11.5281 42.6324 11.4732C42.4387 11.4183 42.2581 11.3249 42.1012 11.1987C41.9362 11.0775 40.5 9.94375 40.5 8C40.5 6.80653 40.9741 5.66193 41.818 4.81802C42.6619 3.97411 43.8065 3.5 45 3.5H62C63.1935 3.5 64.3381 3.97411 65.182 4.81802C66.0259 5.66193 66.5 6.80653 66.5 8V20.5H67C67.3246 20.5 67.6404 20.6053 67.9 20.8C68.0637 20.9225 69.5 22.0562 69.5 24ZM51.5775 21.525C51.6771 21.2265 51.8681 20.967 52.1234 20.783C52.3787 20.5991 52.6853 20.5001 53 20.5H63.5V8C63.5 7.60218 63.342 7.22064 63.0607 6.93934C62.7794 6.65804 62.3978 6.5 62 6.5H49.2425C49.4132 6.98168 49.5002 7.48898 49.5 8V24C49.5 24.3978 49.658 24.7794 49.9393 25.0607C50.2206 25.342 50.6022 25.5 51 25.5C51.3978 25.5 51.7794 25.342 52.0607 25.0607C52.342 24.7794 52.5 24.3978 52.5 24C52.5 23.5525 52.1038 23.2025 52.1 23.2C51.8481 23.011 51.6621 22.7475 51.5683 22.4469C51.4745 22.1462 51.4777 21.8237 51.5775 21.525ZM66.5 24C66.4956 23.8222 66.4419 23.6491 66.345 23.5H55.47C55.4919 23.6658 55.5027 23.8328 55.5025 24C55.5028 24.511 55.4158 25.0183 55.245 25.5H65C65.3978 25.5 65.7794 25.342 66.0607 25.0607C66.342 24.7794 66.5 24.3978 66.5 24Z" fill="white"/>
</g>
<defs>
<clipPath id="clip0_27_4845">
<rect width="72" height="32" rx="5" fill="white"/>
</clipPath>
</defs>
</svg>
