<svg width="72" height="32" viewBox="0 0 72 32" fill="none" xmlns="http://www.w3.org/2000/svg">
<g clip-path="url(#clip0_27_4444)">
<path d="M30 16C30 17.305 29.0613 18.2837 28.2325 19.1475C27.7612 19.64 27.2738 20.1475 27.09 20.5938C26.92 21.0025 26.91 21.68 26.9 22.3363C26.8813 23.5562 26.8612 24.9387 25.9 25.9C24.9387 26.8612 23.5562 26.8813 22.3363 26.9C21.68 26.91 21.0025 26.92 20.5938 27.09C20.1475 27.2738 19.64 27.7612 19.1475 28.2325C18.2837 29.0613 17.305 30 16 30C14.695 30 13.7162 29.0613 12.8525 28.2325C12.36 27.7612 11.8525 27.2738 11.4062 27.09C10.9975 26.92 10.32 26.91 9.66375 26.9C8.44375 26.8813 7.06125 26.8612 6.1 25.9C5.13875 24.9387 5.11875 23.5562 5.1 22.3363C5.09 21.68 5.08 21.0025 4.91 20.5938C4.72625 20.1475 4.23875 19.64 3.7675 19.1475C2.93875 18.2837 2 17.305 2 16C2 14.695 2.93875 13.7162 3.7675 12.8525C4.23875 12.36 4.72625 11.8525 4.91 11.4062C5.08 10.9975 5.09 10.32 5.1 9.66375C5.11875 8.44375 5.13875 7.06125 6.1 6.1C7.06125 5.13875 8.44375 5.11875 9.66375 5.1C10.32 5.09 10.9975 5.08 11.4062 4.91C11.8525 4.72625 12.36 4.23875 12.8525 3.7675C13.7162 2.93875 14.695 2 16 2C17.305 2 18.2837 2.93875 19.1475 3.7675C19.64 4.23875 20.1475 4.72625 20.5938 4.91C21.0025 5.08 21.68 5.09 22.3363 5.1C23.5562 5.11875 24.9387 5.13875 25.9 6.1C26.8612 7.06125 26.8813 8.44375 26.9 9.66375C26.91 10.32 26.92 10.9975 27.09 11.4062C27.2738 11.8525 27.7612 12.36 28.2325 12.8525C29.0613 13.7162 30 14.695 30 16Z" fill="white"/>
<path d="M68.5938 12.5063C68.1537 12.0475 67.7 11.5738 67.5513 11.215C67.4188 10.895 67.4088 10.2362 67.4 9.65625C67.3813 8.40625 67.3575 6.85125 66.2525 5.7475C65.1475 4.64375 63.5938 4.6225 62.3438 4.6C61.7638 4.59125 61.105 4.58125 60.785 4.44875C60.4263 4.3 59.9525 3.84625 59.4937 3.40625C58.6087 2.5575 57.5063 1.5 56 1.5C54.4937 1.5 53.3913 2.5575 52.5063 3.40625C52.0475 3.84625 51.5738 4.3 51.215 4.44875C50.895 4.58125 50.2362 4.59125 49.6562 4.6C48.4062 4.625 46.8513 4.6425 45.75 5.75C44.6487 6.8575 44.625 8.40625 44.6 9.65625C44.5912 10.2362 44.5812 10.895 44.4488 11.215C44.3 11.5738 43.8463 12.0475 43.4062 12.5063C42.5575 13.3913 41.5 14.5 41.5 16C41.5 17.5 42.5575 18.6087 43.4062 19.5C43.8463 19.9587 44.3 20.4325 44.4488 20.7913C44.5812 21.1112 44.5912 21.77 44.6 22.35C44.6187 23.6 44.6425 25.155 45.7475 26.2588C46.8525 27.3625 48.4062 27.3838 49.6562 27.4062C50.2362 27.415 50.895 27.425 51.215 27.5575C51.5738 27.7063 52.0475 28.16 52.5063 28.6C53.3913 29.4425 54.5 30.5 56 30.5C57.5 30.5 58.6087 29.4425 59.4937 28.5938C59.9525 28.1537 60.4263 27.7 60.785 27.5513C61.105 27.4188 61.7638 27.4088 62.3438 27.4C63.5938 27.3813 65.1488 27.3575 66.2525 26.2525C67.3563 25.1475 67.3775 23.5938 67.4 22.3438C67.4088 21.7638 67.4188 21.105 67.5513 20.785C67.7 20.4263 68.1537 19.9525 68.5938 19.4937C69.4425 18.6087 70.5 17.5063 70.5 16C70.5 14.4937 69.4425 13.3913 68.5938 12.5063ZM66.4287 17.4175C65.8262 18.0425 65.1437 18.7575 64.7787 19.6375C64.4275 20.4875 64.4137 21.4075 64.4037 22.2987C64.3937 22.9688 64.38 23.8875 64.135 24.1313C63.89 24.375 62.9725 24.39 62.3025 24.4C61.4112 24.4137 60.4913 24.4275 59.6413 24.775C58.7663 25.1388 58.0487 25.8212 57.4212 26.4237C56.9725 26.855 56.3 27.5 56 27.5C55.7 27.5 55.0275 26.855 54.5825 26.4287C53.9575 25.8262 53.2425 25.1437 52.3625 24.7787C51.5125 24.4275 50.5925 24.4137 49.7013 24.4037C49.0312 24.3937 48.1125 24.38 47.8688 24.135C47.625 23.89 47.61 22.9725 47.6 22.3025C47.5862 21.4112 47.5725 20.4913 47.225 19.6413C46.86 18.7663 46.1775 18.05 45.575 17.4212C45.145 16.9725 44.5 16.3 44.5 16C44.5 15.7 45.145 15.0275 45.5712 14.5825C46.1737 13.9575 46.8562 13.2425 47.2213 12.3625C47.5725 11.5125 47.5862 10.5925 47.5963 9.70125C47.61 9.03125 47.625 8.1125 47.875 7.875C48.125 7.6375 49.0375 7.61625 49.7075 7.60625C50.5988 7.5925 51.5187 7.57875 52.3687 7.23125C53.2437 6.8675 53.9613 6.185 54.5887 5.5825C55.0275 5.145 55.7 4.5 56 4.5C56.3 4.5 56.9725 5.145 57.4175 5.57125C58.0425 6.17375 58.7575 6.85625 59.6375 7.22125C60.4875 7.5725 61.4075 7.58625 62.2987 7.59625C62.9688 7.60625 63.8875 7.62 64.1313 7.865C64.375 8.11 64.39 9.0275 64.4 9.6975C64.4137 10.5887 64.4275 11.5087 64.775 12.3588C65.14 13.2338 65.8225 13.95 66.425 14.5787C66.8512 15.0237 67.4963 15.6962 67.4963 15.9963C67.4963 16.2963 66.855 16.9725 66.4287 17.4175Z" fill="white"/>
</g>
<defs>
<clipPath id="clip0_27_4444">
<rect width="72" height="32" rx="5" fill="white"/>
</clipPath>
</defs>
</svg>
