<svg width="72" height="32" viewBox="0 0 72 32" fill="none" xmlns="http://www.w3.org/2000/svg">
<g clip-path="url(#clip0_27_4454)">
<path d="M12 13C11.8022 13 11.6089 12.9414 11.4444 12.8315C11.28 12.7216 11.1518 12.5654 11.0761 12.3827C11.0004 12.2 10.9806 11.9989 11.0192 11.8049C11.0578 11.6109 11.153 11.4327 11.2929 11.2929C11.4327 11.153 11.6109 11.0578 11.8049 11.0192C11.9989 10.9806 12.2 11.0004 12.3827 11.0761C12.5654 11.1518 12.7216 11.28 12.8315 11.4444C12.9414 11.6089 13 11.8022 13 12C13 12.2652 12.8946 12.5196 12.7071 12.7071C12.5196 12.8946 12.2652 13 12 13ZM20 19C19.8022 19 19.6089 19.0586 19.4444 19.1685C19.28 19.2784 19.1518 19.4346 19.0761 19.6173C19.0004 19.8 18.9806 20.0011 19.0192 20.1951C19.0578 20.3891 19.153 20.5673 19.2929 20.7071C19.4327 20.847 19.6109 20.9422 19.8049 20.9808C19.9989 21.0194 20.2 20.9996 20.3827 20.9239C20.5654 20.8482 20.7216 20.72 20.8315 20.5556C20.9414 20.3911 21 20.1978 21 20C21 19.7348 20.8946 19.4804 20.7071 19.2929C20.5196 19.1054 20.2652 19 20 19ZM30 16C30 17.305 29.0613 18.2837 28.2325 19.1475C27.7612 19.64 27.2738 20.1475 27.09 20.5938C26.92 21.0025 26.91 21.68 26.9 22.3363C26.8813 23.5562 26.8612 24.9387 25.9 25.9C24.9387 26.8612 23.5562 26.8813 22.3363 26.9C21.68 26.91 21.0025 26.92 20.5938 27.09C20.1475 27.2738 19.64 27.7612 19.1475 28.2325C18.2837 29.0613 17.305 30 16 30C14.695 30 13.7162 29.0613 12.8525 28.2325C12.36 27.7612 11.8525 27.2738 11.4062 27.09C10.9975 26.92 10.32 26.91 9.66375 26.9C8.44375 26.8813 7.06125 26.8612 6.1 25.9C5.13875 24.9387 5.11875 23.5562 5.1 22.3363C5.09 21.68 5.08 21.0025 4.91 20.5938C4.72625 20.1475 4.23875 19.64 3.7675 19.1475C2.93875 18.2837 2 17.305 2 16C2 14.695 2.93875 13.7162 3.7675 12.8525C4.23875 12.36 4.72625 11.8525 4.91 11.4062C5.08 10.9975 5.09 10.32 5.1 9.66375C5.11875 8.44375 5.13875 7.06125 6.1 6.1C7.06125 5.13875 8.44375 5.11875 9.66375 5.1C10.32 5.09 10.9975 5.08 11.4062 4.91C11.8525 4.72625 12.36 4.23875 12.8525 3.7675C13.7162 2.93875 14.695 2 16 2C17.305 2 18.2837 2.93875 19.1475 3.7675C19.64 4.23875 20.1475 4.72625 20.5938 4.91C21.0025 5.08 21.68 5.09 22.3363 5.1C23.5562 5.11875 24.9387 5.13875 25.9 6.1C26.8612 7.06125 26.8813 8.44375 26.9 9.66375C26.91 10.32 26.92 10.9975 27.09 11.4062C27.2738 11.8525 27.7612 12.36 28.2325 12.8525C29.0613 13.7162 30 14.695 30 16ZM12 15C12.5933 15 13.1734 14.8241 13.6667 14.4944C14.1601 14.1648 14.5446 13.6962 14.7716 13.1481C14.9987 12.5999 15.0581 11.9967 14.9424 11.4147C14.8266 10.8328 14.5409 10.2982 14.1213 9.87868C13.7018 9.45912 13.1672 9.1734 12.5853 9.05764C12.0033 8.94189 11.4001 9.0013 10.8519 9.22836C10.3038 9.45542 9.83524 9.83994 9.50559 10.3333C9.17595 10.8266 9 11.4067 9 12C9 12.7956 9.31607 13.5587 9.87868 14.1213C10.4413 14.6839 11.2044 15 12 15ZM21.7075 11.7075C21.8004 11.6146 21.8741 11.5043 21.9244 11.3829C21.9747 11.2615 22.0006 11.1314 22.0006 11C22.0006 10.8686 21.9747 10.7385 21.9244 10.6171C21.8741 10.4957 21.8004 10.3854 21.7075 10.2925C21.6146 10.1996 21.5043 10.1259 21.3829 10.0756C21.2615 10.0253 21.1314 9.99944 21 9.99944C20.8686 9.99944 20.7385 10.0253 20.6171 10.0756C20.4957 10.1259 20.3854 10.1996 20.2925 10.2925L10.2925 20.2925C10.1996 20.3854 10.1259 20.4957 10.0756 20.6171C10.0253 20.7385 9.99944 20.8686 9.99944 21C9.99944 21.1314 10.0253 21.2615 10.0756 21.3829C10.1259 21.5043 10.1996 21.6146 10.2925 21.7075C10.4801 21.8951 10.7346 22.0006 11 22.0006C11.1314 22.0006 11.2615 21.9747 11.3829 21.9244C11.5043 21.8741 11.6146 21.8004 11.7075 21.7075L21.7075 11.7075ZM23 20C23 19.4067 22.8241 18.8266 22.4944 18.3333C22.1648 17.8399 21.6962 17.4554 21.1481 17.2284C20.5999 17.0013 19.9967 16.9419 19.4147 17.0576C18.8328 17.1734 18.2982 17.4591 17.8787 17.8787C17.4591 18.2982 17.1734 18.8328 17.0576 19.4147C16.9419 19.9967 17.0013 20.5999 17.2284 21.1481C17.4554 21.6962 17.8399 22.1648 18.3333 22.4944C18.8266 22.8241 19.4067 23 20 23C20.7956 23 21.5587 22.6839 22.1213 22.1213C22.6839 21.5587 23 20.7956 23 20Z" fill="white"/>
<path d="M68.5938 12.5063C68.1537 12.0475 67.7 11.5738 67.5513 11.215C67.4188 10.895 67.4088 10.2362 67.4 9.65625C67.3813 8.40625 67.3575 6.85125 66.2525 5.7475C65.1475 4.64375 63.5938 4.6225 62.3438 4.6C61.7638 4.59125 61.1063 4.58125 60.785 4.44875C60.4263 4.3 59.9525 3.84625 59.4937 3.40625C58.6087 2.5575 57.5063 1.5 56 1.5C54.4937 1.5 53.3913 2.5575 52.5063 3.40625C52.0475 3.84625 51.5738 4.3 51.215 4.44875C50.895 4.58125 50.2362 4.59125 49.6562 4.6C48.4062 4.625 46.8513 4.6425 45.75 5.75C44.6487 6.8575 44.625 8.40625 44.6 9.65625C44.5912 10.2362 44.5812 10.895 44.4488 11.215C44.3 11.5738 43.8463 12.0475 43.4062 12.5063C42.5575 13.3913 41.5 14.5 41.5 16C41.5 17.5 42.5575 18.6087 43.4062 19.5C43.8463 19.9587 44.3 20.4325 44.4488 20.7913C44.5812 21.1112 44.5912 21.77 44.6 22.35C44.6187 23.6 44.6425 25.155 45.7475 26.2588C46.8525 27.3625 48.4062 27.3838 49.6562 27.4062C50.2362 27.415 50.8938 27.425 51.215 27.5575C51.5738 27.7063 52.0475 28.16 52.5063 28.6C53.3913 29.4425 54.5 30.5 56 30.5C57.5 30.5 58.6087 29.4425 59.4937 28.5938C59.9525 28.1537 60.4263 27.7 60.785 27.5513C61.105 27.4188 61.7638 27.4088 62.3438 27.4C63.5938 27.3813 65.1488 27.3575 66.2525 26.2525C67.3563 25.1475 67.3775 23.5938 67.4 22.3438C67.4088 21.7638 67.4188 21.105 67.5513 20.785C67.7 20.4263 68.1537 19.9525 68.5938 19.4937C69.4425 18.6087 70.5 17.5063 70.5 16C70.5 14.4937 69.4425 13.3913 68.5938 12.5063ZM66.4287 17.4175C65.8262 18.0425 65.1438 18.7575 64.78 19.6375C64.4275 20.4875 64.4138 21.4088 64.405 22.2987C64.395 22.9688 64.3813 23.8875 64.1362 24.1313C63.8912 24.375 62.9737 24.39 62.3037 24.4C61.4125 24.4137 60.4925 24.4275 59.6425 24.775C58.7675 25.14 58.0513 25.8225 57.4225 26.425C56.9725 26.855 56.3 27.5 56 27.5C55.7 27.5 55.0275 26.855 54.5825 26.4287C53.9575 25.8262 53.2425 25.1437 52.3625 24.7787C51.5125 24.4275 50.5913 24.4137 49.7013 24.4037C49.0312 24.3937 48.1125 24.38 47.8688 24.135C47.625 23.89 47.61 22.9725 47.6 22.3025C47.5862 21.4112 47.5725 20.4913 47.225 19.6413C46.8612 18.7663 46.1788 18.0487 45.5763 17.4212C45.145 16.9725 44.5 16.3 44.5 16C44.5 15.7 45.145 15.0275 45.5712 14.5825C46.1737 13.9575 46.8562 13.2425 47.22 12.3625C47.5725 11.5125 47.5862 10.5913 47.595 9.70125C47.61 9.03125 47.625 8.1125 47.875 7.875C48.125 7.6375 49.0375 7.61625 49.7075 7.60625C50.5988 7.5925 51.5187 7.57875 52.3687 7.23125C53.2437 6.86625 53.96 6.18375 54.5887 5.58125C55.0275 5.145 55.7 4.5 56 4.5C56.3 4.5 56.9725 5.145 57.4175 5.57125C58.0425 6.17375 58.7575 6.85625 59.6375 7.22125C60.4875 7.5725 61.4088 7.58625 62.2987 7.59625C62.9688 7.60625 63.8875 7.62 64.1313 7.865C64.375 8.11 64.39 9.0275 64.4 9.6975C64.4137 10.5887 64.4275 11.5087 64.775 12.3588C65.1388 13.2338 65.8212 13.9513 66.4237 14.5787C66.85 15.0237 67.495 15.6962 67.495 15.9963C67.495 16.2963 66.855 16.9725 66.4287 17.4175ZM50 12C50 11.6044 50.1173 11.2178 50.3371 10.8889C50.5568 10.56 50.8692 10.3036 51.2346 10.1522C51.6001 10.0009 52.0022 9.96126 52.3902 10.0384C52.7781 10.1156 53.1345 10.3061 53.4142 10.5858C53.6939 10.8655 53.8844 11.2219 53.9616 11.6098C54.0387 11.9978 53.9991 12.3999 53.8478 12.7654C53.6964 13.1308 53.44 13.4432 53.1111 13.6629C52.7822 13.8827 52.3956 14 52 14C51.4696 14 50.9609 13.7893 50.5858 13.4142C50.2107 13.0391 50 12.5304 50 12ZM62 20C62 20.3956 61.8827 20.7822 61.6629 21.1111C61.4432 21.44 61.1308 21.6964 60.7654 21.8478C60.3999 21.9991 59.9978 22.0387 59.6098 21.9616C59.2219 21.8844 58.8655 21.6939 58.5858 21.4142C58.3061 21.1345 58.1156 20.7781 58.0384 20.3902C57.9613 20.0022 58.0009 19.6001 58.1522 19.2346C58.3036 18.8692 58.56 18.5568 58.8889 18.3371C59.2178 18.1173 59.6044 18 60 18C60.5304 18 61.0391 18.2107 61.4142 18.5858C61.7893 18.9609 62 19.4696 62 20ZM62.0613 9.93875C62.2011 10.0781 62.312 10.2437 62.3878 10.426C62.4635 10.6083 62.5024 10.8038 62.5024 11.0013C62.5024 11.1987 62.4635 11.3942 62.3878 11.5765C62.312 11.7588 62.2011 11.9244 62.0613 12.0638L52.0612 22.0637C51.7795 22.3455 51.3973 22.5039 50.9987 22.5039C50.6002 22.5039 50.218 22.3455 49.9362 22.0637C49.6545 21.782 49.4961 21.3998 49.4961 21.0012C49.4961 20.6027 49.6545 20.2205 49.9362 19.9387L59.9363 9.93875C60.0756 9.79891 60.2412 9.68795 60.4235 9.61225C60.6059 9.53654 60.8013 9.49757 60.9988 9.49757C61.1962 9.49757 61.3917 9.53654 61.574 9.61225C61.7563 9.68795 61.9219 9.79891 62.0613 9.93875Z" fill="white"/>
</g>
<defs>
<clipPath id="clip0_27_4454">
<rect width="72" height="32" rx="5" fill="white"/>
</clipPath>
</defs>
</svg>
