<svg width="72" height="32" viewBox="0 0 72 32" fill="none" xmlns="http://www.w3.org/2000/svg">
<g clip-path="url(#clip0_27_4459)">
<path d="M28.2325 12.8525C27.7612 12.36 27.2738 11.8525 27.09 11.4062C26.92 10.9975 26.91 10.32 26.9 9.66375C26.8813 8.44375 26.8612 7.06125 25.9 6.1C24.9387 5.13875 23.5562 5.11875 22.3363 5.1C21.68 5.09 21.0025 5.08 20.5938 4.91C20.1488 4.72625 19.64 4.23875 19.1475 3.7675C18.285 2.93875 17.305 2 16 2C14.695 2 13.7162 2.93875 12.8525 3.7675C12.36 4.23875 11.8525 4.72625 11.4062 4.91C11 5.08 10.32 5.09 9.66375 5.1C8.44375 5.11875 7.06125 5.13875 6.1 6.1C5.13875 7.06125 5.125 8.44375 5.1 9.66375C5.09 10.32 5.08 10.9975 4.91 11.4062C4.72625 11.8512 4.23875 12.36 3.7675 12.8525C2.93875 13.715 2 14.695 2 16C2 17.305 2.93875 18.2837 3.7675 19.1475C4.23875 19.64 4.72625 20.1475 4.91 20.5938C5.08 21.0025 5.09 21.68 5.1 22.3363C5.11875 23.5562 5.13875 24.9387 6.1 25.9C7.06125 26.8612 8.44375 26.8813 9.66375 26.9C10.32 26.91 10.9975 26.92 11.4062 27.09C11.8512 27.2738 12.36 27.7612 12.8525 28.2325C13.715 29.0613 14.695 30 16 30C17.305 30 18.2837 29.0613 19.1475 28.2325C19.64 27.7612 20.1475 27.2738 20.5938 27.09C21.0025 26.92 21.68 26.91 22.3363 26.9C23.5562 26.8813 24.9387 26.8612 25.9 25.9C26.8612 24.9387 26.8813 23.5562 26.9 22.3363C26.91 21.68 26.92 21.0025 27.09 20.5938C27.2738 20.1488 27.7612 19.64 28.2325 19.1475C29.0613 18.285 30 17.305 30 16C30 14.695 29.0613 13.7162 28.2325 12.8525ZM16 24C15.7033 24 15.4133 23.912 15.1666 23.7472C14.92 23.5824 14.7277 23.3481 14.6142 23.074C14.5006 22.7999 14.4709 22.4983 14.5288 22.2074C14.5867 21.9164 14.7296 21.6491 14.9393 21.4393C15.1491 21.2296 15.4164 21.0867 15.7074 21.0288C15.9983 20.9709 16.2999 21.0007 16.574 21.1142C16.8481 21.2277 17.0824 21.42 17.2472 21.6666C17.412 21.9133 17.5 22.2033 17.5 22.5C17.5 22.8978 17.342 23.2794 17.0607 23.5607C16.7794 23.842 16.3978 24 16 24ZM17 17.91V18C17 18.2652 16.8946 18.5196 16.7071 18.7071C16.5196 18.8946 16.2652 19 16 19C15.7348 19 15.4804 18.8946 15.2929 18.7071C15.1054 18.5196 15 18.2652 15 18V17C15 16.7348 15.1054 16.4804 15.2929 16.2929C15.4804 16.1054 15.7348 16 16 16C17.6537 16 19 14.875 19 13.5C19 12.125 17.6537 11 16 11C14.3463 11 13 12.125 13 13.5V14C13 14.2652 12.8946 14.5196 12.7071 14.7071C12.5196 14.8946 12.2652 15 12 15C11.7348 15 11.4804 14.8946 11.2929 14.7071C11.1054 14.5196 11 14.2652 11 14V13.5C11 11.0188 13.2425 9 16 9C18.7575 9 21 11.0188 21 13.5C21 15.6725 19.28 17.4913 17 17.91Z" fill="white"/>
<path d="M68.5938 12.5063C68.1537 12.0475 67.7 11.5738 67.5513 11.215C67.4188 10.895 67.4088 10.2362 67.4 9.65625C67.3813 8.40625 67.3575 6.85125 66.2525 5.7475C65.1475 4.64375 63.5938 4.6225 62.3438 4.6C61.7638 4.59125 61.105 4.58125 60.785 4.44875C60.4263 4.3 59.9525 3.84625 59.4937 3.40625C58.6087 2.5575 57.5063 1.5 56 1.5C54.4937 1.5 53.3913 2.5575 52.5063 3.40625C52.0475 3.84625 51.5738 4.3 51.215 4.44875C50.895 4.58125 50.2362 4.59125 49.6562 4.6C48.4062 4.625 46.8513 4.6425 45.75 5.75C44.6487 6.8575 44.625 8.40625 44.6 9.65625C44.5912 10.2362 44.5812 10.895 44.4488 11.215C44.3 11.5738 43.8463 12.0475 43.4062 12.5063C42.5575 13.3913 41.5 14.5 41.5 16C41.5 17.5 42.5575 18.6087 43.4062 19.5C43.8463 19.9587 44.3 20.4325 44.4488 20.7913C44.5812 21.1112 44.5912 21.77 44.6 22.35C44.6187 23.6 44.6425 25.155 45.7475 26.2588C46.8525 27.3625 48.4062 27.3838 49.6562 27.4062C50.2362 27.415 50.895 27.425 51.215 27.5575C51.5738 27.7063 52.0475 28.16 52.5063 28.6C53.3913 29.4425 54.5 30.5 56 30.5C57.5 30.5 58.6087 29.4425 59.4937 28.5938C59.9525 28.1537 60.4263 27.7 60.785 27.5513C61.105 27.4188 61.7638 27.4088 62.3438 27.4C63.5938 27.3813 65.1488 27.3575 66.2525 26.2525C67.3563 25.1475 67.3775 23.5938 67.4 22.3438C67.4088 21.7638 67.4188 21.105 67.5513 20.785C67.7 20.4263 68.1537 19.9525 68.5938 19.4937C69.4425 18.6087 70.5 17.5063 70.5 16C70.5 14.4937 69.4425 13.3913 68.5938 12.5063ZM66.4287 17.4175C65.8262 18.0425 65.1438 18.7575 64.78 19.6375C64.4275 20.4875 64.4138 21.4075 64.405 22.2987C64.395 22.9688 64.3813 23.8875 64.1362 24.1313C63.8912 24.375 62.9737 24.39 62.3037 24.4C61.4125 24.4137 60.4925 24.4275 59.6425 24.775C58.7675 25.1388 58.0513 25.8212 57.4225 26.4237C56.9725 26.855 56.3 27.5 56 27.5C55.7 27.5 55.0275 26.855 54.5825 26.4287C53.9575 25.8262 53.2425 25.1438 52.3625 24.78C51.5125 24.4275 50.5925 24.4138 49.7013 24.405C49.0312 24.395 48.1125 24.3813 47.8688 24.1362C47.625 23.8912 47.61 22.9737 47.6 22.3037C47.5862 21.4125 47.5725 20.4925 47.225 19.6425C46.8612 18.7675 46.1788 18.0513 45.5763 17.4225C45.145 16.9725 44.5 16.3 44.5 16C44.5 15.7 45.145 15.0275 45.5712 14.5825C46.1737 13.9575 46.8562 13.2425 47.22 12.3625C47.5725 11.5125 47.5862 10.5925 47.595 9.70125C47.61 9.03125 47.625 8.1125 47.875 7.875C48.125 7.6375 49.0375 7.61625 49.7075 7.60625C50.5988 7.5925 51.5187 7.57875 52.3687 7.23125C53.2437 6.8675 53.96 6.185 54.5887 5.5825C55.0275 5.145 55.7 4.5 56 4.5C56.3 4.5 56.9725 5.145 57.4175 5.57125C58.0425 6.17375 58.7575 6.85625 59.6375 7.22C60.4875 7.5725 61.4075 7.58625 62.2987 7.595C62.9688 7.605 63.8875 7.61875 64.1313 7.86375C64.375 8.10875 64.39 9.02625 64.4 9.69625C64.4137 10.5875 64.4275 11.5075 64.775 12.3575C65.1388 13.2325 65.8212 13.9488 66.4237 14.5775C66.85 15.0225 67.495 15.695 67.495 15.995C67.495 16.295 66.855 16.9725 66.4287 17.4175ZM58 22.5C58 22.8956 57.8827 23.2822 57.6629 23.6111C57.4432 23.94 57.1308 24.1964 56.7654 24.3478C56.3999 24.4991 55.9978 24.5387 55.6098 24.4616C55.2219 24.3844 54.8655 24.1939 54.5858 23.9142C54.3061 23.6345 54.1156 23.2781 54.0384 22.8902C53.9613 22.5022 54.0009 22.1001 54.1522 21.7346C54.3036 21.3692 54.56 21.0568 54.8889 20.8371C55.2178 20.6173 55.6044 20.5 56 20.5C56.5304 20.5 57.0391 20.7107 57.4142 21.0858C57.7893 21.4609 58 21.9696 58 22.5ZM61.5 13.5C61.5 15.7963 59.7887 17.735 57.4662 18.32C57.3881 18.6823 57.1786 19.0028 56.8781 19.2197C56.5777 19.4367 56.2076 19.5347 55.8391 19.495C55.4707 19.4552 55.13 19.2805 54.8827 19.0044C54.6354 18.7284 54.4991 18.3706 54.5 18V17C54.5 16.6022 54.658 16.2206 54.9393 15.9393C55.2206 15.658 55.6022 15.5 56 15.5C57.375 15.5 58.5 14.6025 58.5 13.5C58.5 12.3975 57.375 11.5 56 11.5C54.625 11.5 53.5 12.3975 53.5 13.5V14C53.5 14.3978 53.342 14.7794 53.0607 15.0607C52.7794 15.342 52.3978 15.5 52 15.5C51.6022 15.5 51.2206 15.342 50.9393 15.0607C50.658 14.7794 50.5 14.3978 50.5 14V13.5C50.5 10.7425 52.9675 8.5 56 8.5C59.0325 8.5 61.5 10.7425 61.5 13.5Z" fill="white"/>
</g>
<defs>
<clipPath id="clip0_27_4459">
<rect width="72" height="32" rx="5" fill="white"/>
</clipPath>
</defs>
</svg>
