<svg width="72" height="32" viewBox="0 0 72 32" fill="none" xmlns="http://www.w3.org/2000/svg">
<g clip-path="url(#clip0_27_6795)">
<path d="M28 29C28 29.2652 27.8946 29.5196 27.7071 29.7071C27.5195 29.8946 27.2652 30 27 30H14C13.7347 30 13.4804 29.8946 13.2929 29.7071C13.1053 29.5196 13 29.2652 13 29C13 28.7348 13.1053 28.4804 13.2929 28.2929C13.4804 28.1053 13.7347 28 14 28H27C27.2652 28 27.5195 28.1053 27.7071 28.2929C27.8946 28.4804 28 28.7348 28 29ZM26 18H17.9725L14 9.99999L15.7737 6.70999C15.779 6.70121 15.7836 6.69201 15.7875 6.68249C16.0245 6.20822 16.0635 5.65924 15.8959 5.15623C15.7283 4.65321 15.3678 4.23733 14.8937 3.99999L14.835 3.97249L10.625 2.19624C10.1522 1.97047 9.60981 1.93919 9.11428 2.10912C8.61874 2.27906 8.20965 2.63663 7.97497 3.10499L5.20997 8.60499C5.07186 8.88313 5 9.18945 5 9.49999C5 9.81053 5.07186 10.1169 5.20997 10.395L12.4737 24.895C12.6392 25.2279 12.8945 25.5079 13.2109 25.7031C13.5272 25.8984 13.8919 26.0013 14.2637 26H26C26.5304 26 27.0391 25.7893 27.4142 25.4142C27.7893 25.0391 28 24.5304 28 24V20C28 19.4696 27.7893 18.9608 27.4142 18.5858C27.0391 18.2107 26.5304 18 26 18Z" fill="white"/>
<path d="M68.5 29C68.5 29.3978 68.342 29.7793 68.0607 30.0606C67.7794 30.342 67.3979 30.5 67 30.5H54C53.6022 30.5 53.2207 30.342 52.9394 30.0606C52.6581 29.7793 52.5 29.3978 52.5 29C52.5 28.6022 52.6581 28.2206 52.9394 27.9393C53.2207 27.658 53.6022 27.5 54 27.5H67C67.3979 27.5 67.7794 27.658 68.0607 27.9393C68.342 28.2206 68.5 28.6022 68.5 29ZM68.5 20V23.5C68.5 24.163 68.2366 24.7989 67.7678 25.2678C67.299 25.7366 66.6631 26 66 26H54.0125C53.5479 26.0014 53.0921 25.8727 52.6968 25.6283C52.3016 25.384 51.9827 25.0338 51.7763 24.6175L44.7625 10.625C44.5899 10.2773 44.5 9.89442 44.5 9.50624C44.5 9.11806 44.5899 8.73515 44.7625 8.38749L47.5275 2.87499C47.8228 2.28439 48.3398 1.83461 48.9656 1.62383C49.5913 1.41305 50.2751 1.45841 50.8675 1.74999L54.5938 3.53374L54.6163 3.54499C55.2094 3.84138 55.6604 4.36123 55.8702 4.99017C56.08 5.61911 56.0314 6.30564 55.735 6.89874L55.7138 6.93999L54.0625 10.01L57.7813 17.5H66C66.6631 17.5 67.299 17.7634 67.7678 18.2322C68.2366 18.7011 68.5 19.3369 68.5 20ZM65.5 20.5H57.4713C57.0066 20.5014 56.5508 20.3727 56.1556 20.1283C55.7603 19.884 55.4414 19.5338 55.235 19.1175L51.2613 11.1175C51.0889 10.7706 50.9993 10.3886 50.9993 10.0012C50.9993 9.61392 51.0889 9.23185 51.2613 8.88499C51.2688 8.87124 51.2763 8.85749 51.2825 8.84374L52.8075 6.01624L49.9888 4.66249L47.5588 9.49999L54.3213 23H65.5V20.5Z" fill="white"/>
</g>
<defs>
<clipPath id="clip0_27_6795">
<rect width="72" height="32" rx="5" fill="white"/>
</clipPath>
</defs>
</svg>
