<svg width="72" height="32" viewBox="0 0 72 32" fill="none" xmlns="http://www.w3.org/2000/svg">
<g clip-path="url(#clip0_27_1452)">
<path d="M16 14C14.9122 14 13.8488 13.6774 12.9443 13.0731C12.0399 12.4687 11.3349 11.6098 10.9186 10.6048C10.5024 9.59977 10.3934 8.4939 10.6057 7.42701C10.8179 6.36011 11.3417 5.3801 12.1109 4.61092C12.8801 3.84173 13.8601 3.3179 14.927 3.10568C15.9939 2.89346 17.0997 3.00238 18.1047 3.41867C19.1097 3.83495 19.9687 4.5399 20.5731 5.44437C21.1774 6.34884 21.5 7.41221 21.5 8.5C21.4983 9.95819 20.9183 11.3562 19.8872 12.3873C18.8562 13.4184 17.4582 13.9983 16 14ZM25 27H9.64498L24.6612 13.75C24.7119 13.7051 24.7579 13.6553 24.7987 13.6013C24.9358 13.4185 25.0067 13.1946 25 12.9663C24.9936 12.7767 24.9335 12.5929 24.8267 12.4362C24.7198 12.2795 24.5706 12.1565 24.3965 12.0814C24.2223 12.0063 24.0304 11.9823 23.8431 12.0121C23.6558 12.042 23.4809 12.1245 23.3387 12.25L20.2712 14.9563C18.8692 14.2935 17.3323 13.9659 15.7818 13.9994C14.2314 14.0329 12.71 14.4265 11.3379 15.1491C9.96579 15.8717 8.78053 16.9035 7.87581 18.163C6.97108 19.4226 6.37168 20.8752 6.12498 22.4063C6.11778 22.4518 6.1136 22.4977 6.11248 22.5438L5.99998 27.9788C5.99715 28.1119 6.02093 28.2442 6.06992 28.368C6.1189 28.4918 6.19211 28.6045 6.28525 28.6996C6.3784 28.7948 6.48959 28.8703 6.61233 28.9219C6.73506 28.9735 6.86685 29 6.99998 29H25C25.2652 29 25.5196 28.8946 25.7071 28.7071C25.8946 28.5196 26 28.2652 26 28C26 27.7348 25.8946 27.4804 25.7071 27.2929C25.5196 27.1054 25.2652 27 25 27ZM23.515 17.875C23.375 17.8581 23.2331 17.8709 23.0984 17.9127C22.9638 17.9545 22.8395 18.0243 22.7337 18.1175L14.9337 25H25C25.2652 25 25.5196 24.8946 25.7071 24.7071C25.8946 24.5196 26 24.2652 26 24C26.0036 21.9613 25.381 19.9707 24.2162 18.2975C24.1358 18.1816 24.0317 18.084 23.9108 18.0112C23.79 17.9384 23.6551 17.892 23.515 17.875Z" fill="white"/>
<path d="M65 26.5H51.1812L64.9537 15.1575C65.1092 15.0334 65.2385 14.8796 65.334 14.7051C65.4295 14.5305 65.4894 14.3387 65.51 14.1409C65.5307 13.943 65.5118 13.7429 65.4544 13.5524C65.397 13.3619 65.3023 13.1847 65.1758 13.0312C65.0492 12.8776 64.8934 12.7508 64.7174 12.658C64.5414 12.5653 64.3487 12.5085 64.1505 12.4909C63.9523 12.4733 63.7526 12.4954 63.563 12.5558C63.3734 12.6161 63.1978 12.7136 63.0462 12.8425L60.8237 14.6725C60.1474 14.3228 59.4348 14.0482 58.6987 13.8538C59.9036 13.2456 60.8682 12.2489 61.4367 11.0249C62.0052 9.80079 62.1444 8.42079 61.8318 7.10784C61.5192 5.79488 60.7731 4.62566 59.714 3.7891C58.6548 2.95254 57.3446 2.4975 55.995 2.4975C54.6453 2.4975 53.3351 2.95254 52.2759 3.7891C51.2168 4.62566 50.4707 5.79488 50.1581 7.10784C49.8455 8.42079 49.9847 9.80079 50.5532 11.0249C51.1217 12.2489 52.0863 13.2456 53.2912 13.8538C51.6134 14.3003 50.0726 15.1563 48.8073 16.3451C47.5419 17.5339 46.5914 19.0183 46.0412 20.665C45.9149 21.0423 45.9436 21.4543 46.1211 21.8104C46.2985 22.1665 46.6102 22.4375 46.9875 22.5638C47.3647 22.6901 47.7767 22.6614 48.1328 22.4839C48.4889 22.3064 48.7599 21.9948 48.8862 21.6175C49.5089 19.7625 50.8313 18.224 52.5717 17.3297C54.3122 16.4354 56.333 16.2562 58.2037 16.83L46.0462 26.8425C45.8078 27.039 45.6359 27.3043 45.554 27.6022C45.472 27.9 45.4841 28.2159 45.5884 28.5067C45.6928 28.7975 45.8844 29.0489 46.137 29.2267C46.3896 29.4045 46.691 29.5 47 29.5H65C65.3978 29.5 65.7793 29.342 66.0606 29.0607C66.3419 28.7794 66.5 28.3979 66.5 28C66.5 27.6022 66.3419 27.2207 66.0606 26.9394C65.7793 26.6581 65.3978 26.5 65 26.5ZM56 5.50003C56.5933 5.50003 57.1733 5.67597 57.6667 6.00562C58.16 6.33526 58.5445 6.8038 58.7716 7.35198C58.9987 7.90016 59.0581 8.50336 58.9423 9.0853C58.8266 9.66724 58.5408 10.2018 58.1213 10.6213C57.7017 11.0409 57.1672 11.3266 56.5852 11.4424C56.0033 11.5581 55.4001 11.4987 54.8519 11.2717C54.3037 11.0446 53.8352 10.6601 53.5055 10.1667C53.1759 9.67339 53 9.09337 53 8.50003C53 7.70438 53.316 6.94132 53.8786 6.37871C54.4412 5.8161 55.2043 5.50003 56 5.50003ZM65.5762 19.6888C66.0258 20.686 66.316 21.7477 66.4362 22.835C66.48 23.2305 66.3648 23.6272 66.1161 23.9378C65.8674 24.2484 65.5055 24.4475 65.11 24.4913C64.7145 24.535 64.3178 24.4199 64.0072 24.1712C63.6965 23.9225 63.4975 23.5605 63.4537 23.165C63.3692 22.3895 63.1624 21.6322 62.8412 20.9213C62.6819 20.5593 62.6721 20.149 62.8138 19.7798C62.9555 19.4105 63.2374 19.1122 63.5979 18.9497C63.9585 18.7872 64.3687 18.7737 64.7392 18.9121C65.1097 19.0505 65.4105 19.3297 65.5762 19.6888Z" fill="white"/>
</g>
<defs>
<clipPath id="clip0_27_1452">
<rect width="72" height="32" rx="5" fill="white"/>
</clipPath>
</defs>
</svg>
