<svg width="72" height="32" viewBox="0 0 72 32" fill="none" xmlns="http://www.w3.org/2000/svg">
<g clip-path="url(#clip0_27_4469)">
<path d="M30.9997 17C30.7345 17 30.4802 17.1054 30.2926 17.2929C30.1051 17.4804 29.9997 17.7348 29.9997 18V20H24.4135L22.1247 17.7075L28.4172 11.4138C28.792 11.0387 29.0026 10.5302 29.0026 10C29.0026 9.4698 28.792 8.96129 28.4172 8.58625L23.7072 3.875L21.4135 1.58625C21.2278 1.40049 21.0073 1.25313 20.7646 1.15259C20.5219 1.05205 20.2618 1.00031 19.9991 1.00031C19.7364 1.00031 19.4763 1.05205 19.2336 1.15259C18.991 1.25313 18.7705 1.40049 18.5847 1.58625L0.364736 19.8675C0.190327 20.0425 0.0716698 20.2652 0.0237466 20.5075C-0.0241766 20.7499 0.000783347 21.001 0.0954748 21.2291C0.190166 21.4573 0.350343 21.6523 0.555779 21.7895C0.761215 21.9267 1.0027 22 1.24974 22H6.17099L10.586 26.4138C10.961 26.7885 11.4695 26.9991 11.9997 26.9991C12.5299 26.9991 13.0385 26.7885 13.4135 26.4138L20.7072 19.125L22.9997 21.4138C23.1848 21.6003 23.4051 21.7482 23.6478 21.8488C23.8905 21.9494 24.1507 22.0008 24.4135 22H29.9997V24C29.9997 24.2652 30.1051 24.5196 30.2926 24.7071C30.4802 24.8946 30.7345 25 30.9997 25C31.265 25 31.5193 24.8946 31.7068 24.7071C31.8944 24.5196 31.9997 24.2652 31.9997 24V18C31.9997 17.7348 31.8944 17.4804 31.7068 17.2929C31.5193 17.1054 31.265 17 30.9997 17ZM19.9997 3L21.586 4.58625L6.17099 20H3.05724L19.9997 3Z" fill="white"/>
<path d="M70.4997 16.5C70.1018 16.5 69.7203 16.658 69.439 16.9393C69.1577 17.2206 68.9997 17.6022 68.9997 18V19.5H64.6247L62.8309 17.7075L68.7709 11.7675C69.2396 11.2987 69.5029 10.6629 69.5029 10C69.5029 9.33709 69.2396 8.70132 68.7709 8.2325L61.7709 1.2325C61.5387 0.999684 61.2628 0.81497 60.9591 0.688938C60.6554 0.562906 60.3298 0.498032 60.0009 0.498032C59.6721 0.498032 59.3465 0.562906 59.0428 0.688938C58.739 0.81497 58.4632 0.999684 58.2309 1.2325L40.8022 18.8088C40.4185 19.1937 40.1575 19.6837 40.0522 20.2168C39.9468 20.75 40.0018 21.3024 40.2102 21.8044C40.4185 22.3063 40.771 22.7353 41.2229 23.0371C41.6749 23.3388 42.2062 23.4999 42.7497 23.5H46.9622L50.2297 26.7675C50.4618 26.9998 50.7375 27.184 51.0409 27.3097C51.3442 27.4354 51.6694 27.5001 51.9978 27.5001C52.3262 27.5001 52.6514 27.4354 52.9547 27.3097C53.2581 27.184 53.5338 26.9998 53.7659 26.7675L60.7047 19.8288L62.6447 21.7675C62.8763 22.0006 63.152 22.1854 63.4556 22.3111C63.7592 22.4368 64.0848 22.5011 64.4134 22.5H68.9997V24C68.9997 24.3978 69.1577 24.7794 69.439 25.0607C69.7203 25.342 70.1018 25.5 70.4997 25.5C70.8975 25.5 71.279 25.342 71.5603 25.0607C71.8416 24.7794 71.9997 24.3978 71.9997 24V18C71.9997 17.6022 71.8416 17.2206 71.5603 16.9393C71.279 16.658 70.8975 16.5 70.4997 16.5ZM59.9997 3.70875L61.8747 5.58375L46.9634 20.5H43.3509L59.9997 3.70875ZM51.9997 24.2925L49.7059 22L63.9997 7.7075L66.2922 10L59.6459 16.6462L51.9997 24.2925Z" fill="white"/>
</g>
<defs>
<clipPath id="clip0_27_4469">
<rect width="72" height="32" rx="5" fill="white"/>
</clipPath>
</defs>
</svg>
