<svg width="72" height="32" viewBox="0 0 72 32" fill="none" xmlns="http://www.w3.org/2000/svg">
<g clip-path="url(#clip0_27_5568)">
<path d="M19 27C19 27.2652 18.8946 27.5196 18.7071 27.7071C18.5196 27.8946 18.2652 28 18 28H14C13.7348 28 13.4804 27.8946 13.2929 27.7071C13.1054 27.5196 13 27.2652 13 27C13 26.7348 13.1054 26.4804 13.2929 26.2929C13.4804 26.1054 13.7348 26 14 26H18C18.2652 26 18.5196 26.1054 18.7071 26.2929C18.8946 26.4804 19 26.7348 19 27ZM5 19C5.26522 19 5.51957 18.8946 5.70711 18.7071C5.89464 18.5196 6 18.2652 6 18V14C6 13.7348 5.89464 13.4804 5.70711 13.2929C5.51957 13.1054 5.26522 13 5 13C4.73478 13 4.48043 13.1054 4.29289 13.2929C4.10536 13.4804 4 13.7348 4 14V18C4 18.2652 4.10536 18.5196 4.29289 18.7071C4.48043 18.8946 4.73478 19 5 19ZM9 26H6V23C6 22.7348 5.89464 22.4804 5.70711 22.2929C5.51957 22.1054 5.26522 22 5 22C4.73478 22 4.48043 22.1054 4.29289 22.2929C4.10536 22.4804 4 22.7348 4 23V26C4 26.5304 4.21071 27.0391 4.58579 27.4142C4.96086 27.7893 5.46957 28 6 28H9C9.26522 28 9.51957 27.8946 9.70711 27.7071C9.89464 27.5196 10 27.2652 10 27C10 26.7348 9.89464 26.4804 9.70711 26.2929C9.51957 26.1054 9.26522 26 9 26ZM28 6C28 5.46957 27.7893 4.96086 27.4142 4.58579C27.0391 4.21071 26.5304 4 26 4H6C5.50746 3.99989 5.03249 4.18302 4.6675 4.51375C4.61059 4.559 4.559 4.61059 4.51375 4.6675C4.18302 5.03249 3.99989 5.50746 4 6V9C4 9.26522 4.10536 9.51957 4.29289 9.70711C4.48043 9.89464 4.73478 10 5 10C5.26522 10 5.51957 9.89464 5.70711 9.70711C5.89464 9.51957 6 9.26522 6 9V7.41375L24.5863 26H23C22.7348 26 22.4804 26.1054 22.2929 26.2929C22.1054 26.4804 22 26.7348 22 27C22 27.2652 22.1054 27.5196 22.2929 27.7071C22.4804 27.8946 22.7348 28 23 28H26C26.4923 28 26.9671 27.8174 27.3325 27.4875C27.361 27.4646 27.3882 27.4399 27.4137 27.4137C27.4399 27.3885 27.4641 27.3613 27.4862 27.3325C27.817 26.9675 28.0001 26.4925 28 26V6Z" fill="white"/>
<path d="M59.5 27C59.5 27.3978 59.342 27.7794 59.0607 28.0607C58.7794 28.342 58.3978 28.5 58 28.5H54C53.6022 28.5 53.2206 28.342 52.9393 28.0607C52.658 27.7794 52.5 27.3978 52.5 27C52.5 26.6022 52.658 26.2206 52.9393 25.9393C53.2206 25.658 53.6022 25.5 54 25.5H58C58.3978 25.5 58.7794 25.658 59.0607 25.9393C59.342 26.2206 59.5 26.6022 59.5 27ZM45 19.5C45.3978 19.5 45.7794 19.342 46.0607 19.0607C46.342 18.7794 46.5 18.3978 46.5 18V14C46.5 13.6022 46.342 13.2206 46.0607 12.9393C45.7794 12.658 45.3978 12.5 45 12.5C44.6022 12.5 44.2206 12.658 43.9393 12.9393C43.658 13.2206 43.5 13.6022 43.5 14V18C43.5 18.3978 43.658 18.7794 43.9393 19.0607C44.2206 19.342 44.6022 19.5 45 19.5ZM49 25.5H46.5V23C46.5 22.6022 46.342 22.2206 46.0607 21.9393C45.7794 21.658 45.3978 21.5 45 21.5C44.6022 21.5 44.2206 21.658 43.9393 21.9393C43.658 22.2206 43.5 22.6022 43.5 23V26C43.5 26.663 43.7634 27.2989 44.2322 27.7678C44.7011 28.2366 45.337 28.5 46 28.5H49C49.3978 28.5 49.7794 28.342 50.0607 28.0607C50.342 27.7794 50.5 27.3978 50.5 27C50.5 26.6022 50.342 26.2206 50.0607 25.9393C49.7794 25.658 49.3978 25.5 49 25.5ZM68.5 6V26C68.5 26.663 68.2366 27.2989 67.7678 27.7678C67.2989 28.2366 66.663 28.5 66 28.5H63C62.6022 28.5 62.2206 28.342 61.9393 28.0607C61.658 27.7794 61.5 27.3978 61.5 27C61.5 26.6022 61.658 26.2206 61.9393 25.9393C62.2206 25.658 62.6022 25.5 63 25.5H63.375L46.5 8.625V9C46.5 9.39782 46.342 9.77936 46.0607 10.0607C45.7794 10.342 45.3978 10.5 45 10.5C44.6022 10.5 44.2206 10.342 43.9393 10.0607C43.658 9.77936 43.5 9.39782 43.5 9V6C43.5 5.33696 43.7634 4.70107 44.2322 4.23223C44.7011 3.76339 45.337 3.5 46 3.5H66C66.663 3.5 67.2989 3.76339 67.7678 4.23223C68.2366 4.70107 68.5 5.33696 68.5 6ZM65.5 6.5H48.625L65.5 23.375V6.5Z" fill="white"/>
</g>
<defs>
<clipPath id="clip0_27_5568">
<rect width="72" height="32" rx="5" fill="white"/>
</clipPath>
</defs>
</svg>
