<svg width="72" height="32" viewBox="0 0 72 32" fill="none" xmlns="http://www.w3.org/2000/svg">
<g clip-path="url(#clip0_27_5563)">
<path d="M26 4H6C5.46957 4 4.96086 4.21071 4.58579 4.58579C4.21071 4.96086 4 5.46957 4 6V26C4 26.5304 4.21071 27.0391 4.58579 27.4142C4.96086 27.7893 5.46957 28 6 28H26C26.5304 28 27.0391 27.7893 27.4142 27.4142C27.7893 27.0391 28 26.5304 28 26V6C28 5.46957 27.7893 4.96086 27.4142 4.58579C27.0391 4.21071 26.5304 4 26 4ZM11 25H9C8.46957 25 7.96086 24.7893 7.58579 24.4142C7.21071 24.0391 7 23.5304 7 23V21C7 20.7348 7.10536 20.4804 7.29289 20.2929C7.48043 20.1054 7.73478 20 8 20C8.26522 20 8.51957 20.1054 8.70711 20.2929C8.89464 20.4804 9 20.7348 9 21V23H11C11.2652 23 11.5196 23.1054 11.7071 23.2929C11.8946 23.4804 12 23.7348 12 24C12 24.2652 11.8946 24.5196 11.7071 24.7071C11.5196 24.8946 11.2652 25 11 25ZM11 14H9V16C9 16.2652 8.89464 16.5196 8.70711 16.7071C8.51957 16.8946 8.26522 17 8 17C7.73478 17 7.48043 16.8946 7.29289 16.7071C7.10536 16.5196 7 16.2652 7 16V14C7 13.4696 7.21071 12.9609 7.58579 12.5858C7.96086 12.2107 8.46957 12 9 12H11C11.2652 12 11.5196 12.1054 11.7071 12.2929C11.8946 12.4804 12 12.7348 12 13C12 13.2652 11.8946 13.5196 11.7071 13.7071C11.5196 13.8946 11.2652 14 11 14ZM20 23C20 23.5304 19.7893 24.0391 19.4142 24.4142C19.0391 24.7893 18.5304 25 18 25H16C15.7348 25 15.4804 24.8946 15.2929 24.7071C15.1054 24.5196 15 24.2652 15 24C15 23.7348 15.1054 23.4804 15.2929 23.2929C15.4804 23.1054 15.7348 23 16 23H18V21C18 20.7348 18.1054 20.4804 18.2929 20.2929C18.4804 20.1054 18.7348 20 19 20C19.2652 20 19.5196 20.1054 19.7071 20.2929C19.8946 20.4804 20 20.7348 20 21V23ZM20 16C20 16.2652 19.8946 16.5196 19.7071 16.7071C19.5196 16.8946 19.2652 17 19 17C18.7348 17 18.4804 16.8946 18.2929 16.7071C18.1054 16.5196 18 16.2652 18 16V14H16C15.7348 14 15.4804 13.8946 15.2929 13.7071C15.1054 13.5196 15 13.2652 15 13C15 12.7348 15.1054 12.4804 15.2929 12.2929C15.4804 12.1054 15.7348 12 16 12H18C18.5304 12 19.0391 12.2107 19.4142 12.5858C19.7893 12.9609 20 13.4696 20 14V16ZM25 18C25 18.5304 24.7893 19.0391 24.4142 19.4142C24.0391 19.7893 23.5304 20 23 20C22.7348 20 22.4804 19.8946 22.2929 19.7071C22.1054 19.5196 22 19.2652 22 19C22 18.7348 22.1054 18.4804 22.2929 18.2929C22.4804 18.1054 22.7348 18 23 18V9H14C14 9.26522 13.8946 9.51957 13.7071 9.70711C13.5196 9.89464 13.2652 10 13 10C12.7348 10 12.4804 9.89464 12.2929 9.70711C12.1054 9.51957 12 9.26522 12 9C12 8.46957 12.2107 7.96086 12.5858 7.58579C12.9609 7.21071 13.4696 7 14 7H23C23.5304 7 24.0391 7.21071 24.4142 7.58579C24.7893 7.96086 25 8.46957 25 9V18Z" fill="white"/>
<path d="M48.5 27C48.5 27.3978 48.342 27.7794 48.0607 28.0607C47.7794 28.342 47.3978 28.5 47 28.5H46C45.337 28.5 44.7011 28.2366 44.2322 27.7678C43.7634 27.2989 43.5 26.663 43.5 26V25C43.5 24.6022 43.658 24.2206 43.9393 23.9393C44.2206 23.658 44.6022 23.5 45 23.5C45.3978 23.5 45.7794 23.658 46.0607 23.9393C46.342 24.2206 46.5 24.6022 46.5 25V25.5H47C47.3978 25.5 47.7794 25.658 48.0607 25.9393C48.342 26.2206 48.5 26.6022 48.5 27ZM54 25.5H52C51.6022 25.5 51.2206 25.658 50.9393 25.9393C50.658 26.2206 50.5 26.6022 50.5 27C50.5 27.3978 50.658 27.7794 50.9393 28.0607C51.2206 28.342 51.6022 28.5 52 28.5H54C54.3978 28.5 54.7794 28.342 55.0607 28.0607C55.342 27.7794 55.5 27.3978 55.5 27C55.5 26.6022 55.342 26.2206 55.0607 25.9393C54.7794 25.658 54.3978 25.5 54 25.5ZM45 21.5C45.3978 21.5 45.7794 21.342 46.0607 21.0607C46.342 20.7794 46.5 20.3978 46.5 20V18C46.5 17.6022 46.342 17.2206 46.0607 16.9393C45.7794 16.658 45.3978 16.5 45 16.5C44.6022 16.5 44.2206 16.658 43.9393 16.9393C43.658 17.2206 43.5 17.6022 43.5 18V20C43.5 20.3978 43.658 20.7794 43.9393 21.0607C44.2206 21.342 44.6022 21.5 45 21.5ZM61 23.5C60.6022 23.5 60.2206 23.658 59.9393 23.9393C59.658 24.2206 59.5 24.6022 59.5 25V25.5H59C58.6022 25.5 58.2206 25.658 57.9393 25.9393C57.658 26.2206 57.5 26.6022 57.5 27C57.5 27.3978 57.658 27.7794 57.9393 28.0607C58.2206 28.342 58.6022 28.5 59 28.5H60C60.663 28.5 61.2989 28.2366 61.7678 27.7678C62.2366 27.2989 62.5 26.663 62.5 26V25C62.5 24.6022 62.342 24.2206 62.0607 23.9393C61.7794 23.658 61.3978 23.5 61 23.5ZM61 14.5C61.3978 14.5 61.7794 14.342 62.0607 14.0607C62.342 13.7794 62.5 13.3978 62.5 13V12C62.5 11.337 62.2366 10.7011 61.7678 10.2322C61.2989 9.76339 60.663 9.5 60 9.5H59C58.6022 9.5 58.2206 9.65804 57.9393 9.93934C57.658 10.2206 57.5 10.6022 57.5 11C57.5 11.3978 57.658 11.7794 57.9393 12.0607C58.2206 12.342 58.6022 12.5 59 12.5H59.5V13C59.5 13.3978 59.658 13.7794 59.9393 14.0607C60.2206 14.342 60.6022 14.5 61 14.5ZM47 9.5H46C45.337 9.5 44.7011 9.76339 44.2322 10.2322C43.7634 10.7011 43.5 11.337 43.5 12V13C43.5 13.3978 43.658 13.7794 43.9393 14.0607C44.2206 14.342 44.6022 14.5 45 14.5C45.3978 14.5 45.7794 14.342 46.0607 14.0607C46.342 13.7794 46.5 13.3978 46.5 13V12.5H47C47.3978 12.5 47.7794 12.342 48.0607 12.0607C48.342 11.7794 48.5 11.3978 48.5 11C48.5 10.6022 48.342 10.2206 48.0607 9.93934C47.7794 9.65804 47.3978 9.5 47 9.5ZM66 3.5H52.5C51.837 3.5 51.2011 3.76339 50.7322 4.23223C50.2634 4.70107 50 5.33696 50 6V11C49.9986 11.025 49.9986 11.05 50 11.075C50.0193 11.4597 50.1858 11.8222 50.465 12.0875C50.7442 12.3528 51.1148 12.5005 51.5 12.5H54C54.3978 12.5 54.7794 12.342 55.0607 12.0607C55.342 11.7794 55.5 11.3978 55.5 11C55.5 10.6022 55.342 10.2206 55.0607 9.93934C54.7794 9.65804 54.3978 9.5 54 9.5H53V6.5H65.5V19H62.5V18C62.5 17.6022 62.342 17.2206 62.0607 16.9393C61.7794 16.658 61.3978 16.5 61 16.5C60.6022 16.5 60.2206 16.658 59.9393 16.9393C59.658 17.2206 59.5 17.6022 59.5 18V20.5C59.5 20.8978 59.658 21.2794 59.9393 21.5607C60.2206 21.842 60.6022 22 61 22H66C66.663 22 67.2989 21.7366 67.7678 21.2678C68.2366 20.7989 68.5 20.163 68.5 19.5V6C68.5 5.33696 68.2366 4.70107 67.7678 4.23223C67.2989 3.76339 66.663 3.5 66 3.5Z" fill="white"/>
</g>
<defs>
<clipPath id="clip0_27_5563">
<rect width="72" height="32" rx="5" fill="white"/>
</clipPath>
</defs>
</svg>
