<svg width="72" height="32" viewBox="0 0 72 32" fill="none" xmlns="http://www.w3.org/2000/svg">
<g clip-path="url(#clip0_27_5548)">
<path d="M26 4H6C5.46957 4 4.96086 4.21071 4.58579 4.58579C4.21071 4.96086 4 5.46957 4 6V26C4 26.5304 4.21071 27.0391 4.58579 27.4142C4.96086 27.7893 5.46957 28 6 28H26C26.5304 28 27.0391 27.7893 27.4142 27.4142C27.7893 27.0391 28 26.5304 28 26V6C28 5.46957 27.7893 4.96086 27.4142 4.58579C27.0391 4.21071 26.5304 4 26 4ZM13 25H9C8.46957 25 7.96086 24.7893 7.58579 24.4142C7.21071 24.0391 7 23.5304 7 23V19C7 18.7348 7.10536 18.4804 7.29289 18.2929C7.48043 18.1054 7.73478 18 8 18C8.26522 18 8.51957 18.1054 8.70711 18.2929C8.89464 18.4804 9 18.7348 9 19V23H13C13.2652 23 13.5196 23.1054 13.7071 23.2929C13.8946 23.4804 14 23.7348 14 24C14 24.2652 13.8946 24.5196 13.7071 24.7071C13.5196 24.8946 13.2652 25 13 25ZM13 9H9V13C9 13.2652 8.89464 13.5196 8.70711 13.7071C8.51957 13.8946 8.26522 14 8 14C7.73478 14 7.48043 13.8946 7.29289 13.7071C7.10536 13.5196 7 13.2652 7 13V9C7 8.46957 7.21071 7.96086 7.58579 7.58579C7.96086 7.21071 8.46957 7 9 7H13C13.2652 7 13.5196 7.10536 13.7071 7.29289C13.8946 7.48043 14 7.73478 14 8C14 8.26522 13.8946 8.51957 13.7071 8.70711C13.5196 8.89464 13.2652 9 13 9ZM25 23C25 23.5304 24.7893 24.0391 24.4142 24.4142C24.0391 24.7893 23.5304 25 23 25H19C18.7348 25 18.4804 24.8946 18.2929 24.7071C18.1054 24.5196 18 24.2652 18 24C18 23.7348 18.1054 23.4804 18.2929 23.2929C18.4804 23.1054 18.7348 23 19 23H23V19C23 18.7348 23.1054 18.4804 23.2929 18.2929C23.4804 18.1054 23.7348 18 24 18C24.2652 18 24.5196 18.1054 24.7071 18.2929C24.8946 18.4804 25 18.7348 25 19V23ZM25 13C25 13.2652 24.8946 13.5196 24.7071 13.7071C24.5196 13.8946 24.2652 14 24 14C23.7348 14 23.4804 13.8946 23.2929 13.7071C23.1054 13.5196 23 13.2652 23 13V9H19C18.7348 9 18.4804 8.89464 18.2929 8.70711C18.1054 8.51957 18 8.26522 18 8C18 7.73478 18.1054 7.48043 18.2929 7.29289C18.4804 7.10536 18.7348 7 19 7H23C23.5304 7 24.0391 7.21071 24.4142 7.58579C24.7893 7.96086 25 8.46957 25 9V13Z" fill="white"/>
<path d="M59.5 5C59.5 5.39782 59.342 5.77936 59.0607 6.06066C58.7794 6.34196 58.3978 6.5 58 6.5H54C53.6022 6.5 53.2206 6.34196 52.9393 6.06066C52.658 5.77936 52.5 5.39782 52.5 5C52.5 4.60218 52.658 4.22064 52.9393 3.93934C53.2206 3.65804 53.6022 3.5 54 3.5H58C58.3978 3.5 58.7794 3.65804 59.0607 3.93934C59.342 4.22064 59.5 4.60218 59.5 5ZM58 25.5H54C53.6022 25.5 53.2206 25.658 52.9393 25.9393C52.658 26.2206 52.5 26.6022 52.5 27C52.5 27.3978 52.658 27.7794 52.9393 28.0607C53.2206 28.342 53.6022 28.5 54 28.5H58C58.3978 28.5 58.7794 28.342 59.0607 28.0607C59.342 27.7794 59.5 27.3978 59.5 27C59.5 26.6022 59.342 26.2206 59.0607 25.9393C58.7794 25.658 58.3978 25.5 58 25.5ZM66 3.5H63C62.6022 3.5 62.2206 3.65804 61.9393 3.93934C61.658 4.22064 61.5 4.60218 61.5 5C61.5 5.39782 61.658 5.77936 61.9393 6.06066C62.2206 6.34196 62.6022 6.5 63 6.5H65.5V9C65.5 9.39782 65.658 9.77936 65.9393 10.0607C66.2206 10.342 66.6022 10.5 67 10.5C67.3978 10.5 67.7794 10.342 68.0607 10.0607C68.342 9.77936 68.5 9.39782 68.5 9V6C68.5 5.33696 68.2366 4.70107 67.7678 4.23223C67.2989 3.76339 66.663 3.5 66 3.5ZM67 12.5C66.6022 12.5 66.2206 12.658 65.9393 12.9393C65.658 13.2206 65.5 13.6022 65.5 14V18C65.5 18.3978 65.658 18.7794 65.9393 19.0607C66.2206 19.342 66.6022 19.5 67 19.5C67.3978 19.5 67.7794 19.342 68.0607 19.0607C68.342 18.7794 68.5 18.3978 68.5 18V14C68.5 13.6022 68.342 13.2206 68.0607 12.9393C67.7794 12.658 67.3978 12.5 67 12.5ZM67 21.5C66.6022 21.5 66.2206 21.658 65.9393 21.9393C65.658 22.2206 65.5 22.6022 65.5 23V25.5H63C62.6022 25.5 62.2206 25.658 61.9393 25.9393C61.658 26.2206 61.5 26.6022 61.5 27C61.5 27.3978 61.658 27.7794 61.9393 28.0607C62.2206 28.342 62.6022 28.5 63 28.5H66C66.663 28.5 67.2989 28.2366 67.7678 27.7678C68.2366 27.2989 68.5 26.663 68.5 26V23C68.5 22.6022 68.342 22.2206 68.0607 21.9393C67.7794 21.658 67.3978 21.5 67 21.5ZM45 19.5C45.3978 19.5 45.7794 19.342 46.0607 19.0607C46.342 18.7794 46.5 18.3978 46.5 18V14C46.5 13.6022 46.342 13.2206 46.0607 12.9393C45.7794 12.658 45.3978 12.5 45 12.5C44.6022 12.5 44.2206 12.658 43.9393 12.9393C43.658 13.2206 43.5 13.6022 43.5 14V18C43.5 18.3978 43.658 18.7794 43.9393 19.0607C44.2206 19.342 44.6022 19.5 45 19.5ZM49 25.5H46.5V23C46.5 22.6022 46.342 22.2206 46.0607 21.9393C45.7794 21.658 45.3978 21.5 45 21.5C44.6022 21.5 44.2206 21.658 43.9393 21.9393C43.658 22.2206 43.5 22.6022 43.5 23V26C43.5 26.663 43.7634 27.2989 44.2322 27.7678C44.7011 28.2366 45.337 28.5 46 28.5H49C49.3978 28.5 49.7794 28.342 50.0607 28.0607C50.342 27.7794 50.5 27.3978 50.5 27C50.5 26.6022 50.342 26.2206 50.0607 25.9393C49.7794 25.658 49.3978 25.5 49 25.5ZM49 3.5H46C45.337 3.5 44.7011 3.76339 44.2322 4.23223C43.7634 4.70107 43.5 5.33696 43.5 6V9C43.5 9.39782 43.658 9.77936 43.9393 10.0607C44.2206 10.342 44.6022 10.5 45 10.5C45.3978 10.5 45.7794 10.342 46.0607 10.0607C46.342 9.77936 46.5 9.39782 46.5 9V6.5H49C49.3978 6.5 49.7794 6.34196 50.0607 6.06066C50.342 5.77936 50.5 5.39782 50.5 5C50.5 4.60218 50.342 4.22064 50.0607 3.93934C49.7794 3.65804 49.3978 3.5 49 3.5Z" fill="white"/>
</g>
<defs>
<clipPath id="clip0_27_5548">
<rect width="72" height="32" rx="5" fill="white"/>
</clipPath>
</defs>
</svg>
