<svg width="72" height="32" viewBox="0 0 72 32" fill="none" xmlns="http://www.w3.org/2000/svg">
<g clip-path="url(#clip0_27_5583)">
<path d="M13.9488 22.6838C13.9989 22.8341 14.0126 22.9942 13.9887 23.1508C13.9648 23.3075 13.904 23.4562 13.8114 23.5847C13.7187 23.7133 13.5968 23.818 13.4558 23.8902C13.3147 23.9624 13.1585 24 13.0001 24H3.00007C2.84161 24 2.68542 23.9624 2.54436 23.8902C2.40331 23.818 2.28143 23.7133 2.18877 23.5847C2.09612 23.4562 2.03533 23.3075 2.01144 23.1508C1.98754 22.9942 2.00121 22.8341 2.05132 22.6838L7.05132 7.68375C7.11766 7.48459 7.245 7.31136 7.41528 7.1886C7.58556 7.06584 7.79016 6.99978 8.00007 6.99978C8.20999 6.99978 8.41459 7.06584 8.58487 7.1886C8.75515 7.31136 8.88248 7.48459 8.94882 7.68375L13.9488 22.6838ZM26.0001 9.5C26.0001 8.21442 25.6189 6.95772 24.9046 5.8888C24.1904 4.81988 23.1752 3.98676 21.9875 3.49479C20.7998 3.00282 19.4929 2.87409 18.232 3.1249C16.9711 3.3757 15.8129 3.99477 14.9039 4.90381C13.9948 5.81285 13.3758 6.97104 13.125 8.23192C12.8742 9.49279 13.0029 10.7997 13.4949 11.9874C13.9868 13.1752 14.8199 14.1903 15.8889 14.9046C16.9578 15.6188 18.2145 16 19.5001 16C21.2234 15.998 22.8755 15.3126 24.0941 14.094C25.3126 12.8754 25.9981 11.2233 26.0001 9.5ZM28.0001 18H17.0001C16.7349 18 16.4805 18.1054 16.293 18.2929C16.1054 18.4804 16.0001 18.7348 16.0001 19V26C16.0001 26.2652 16.1054 26.5196 16.293 26.7071C16.4805 26.8946 16.7349 27 17.0001 27H28.0001C28.2653 27 28.5196 26.8946 28.7072 26.7071C28.8947 26.5196 29.0001 26.2652 29.0001 26V19C29.0001 18.7348 28.8947 18.4804 28.7072 18.2929C28.5196 18.1054 28.2653 18 28.0001 18Z" fill="white"/>
<path d="M48.9364 7.56875C48.8441 7.25917 48.6543 6.98765 48.3953 6.79458C48.1363 6.60152 47.8219 6.49723 47.4989 6.49723C47.1758 6.49723 46.8614 6.60152 46.6024 6.79458C46.3434 6.98765 46.1537 7.25917 46.0614 7.56875L41.5614 22.5688C41.4941 22.7929 41.4802 23.0297 41.5208 23.2602C41.5614 23.4907 41.6553 23.7085 41.7952 23.8961C41.935 24.0838 42.1168 24.2362 42.326 24.341C42.5352 24.4459 42.7661 24.5003 43.0001 24.5H52.0001C52.2339 24.4999 52.4645 24.4452 52.6734 24.3402C52.8823 24.2352 53.0638 24.0828 53.2033 23.8951C53.3429 23.7075 53.4366 23.4899 53.4771 23.2596C53.5175 23.0293 53.5036 22.7927 53.4364 22.5688L48.9364 7.56875ZM45.0164 21.5L47.5001 13.22L49.9839 21.5H45.0164ZM66.5001 9.25C66.5001 7.91498 66.1042 6.60994 65.3625 5.4999C64.6208 4.38987 63.5666 3.52471 62.3332 3.01382C61.0998 2.50292 59.7426 2.36925 58.4333 2.6297C57.1239 2.89015 55.9212 3.53303 54.9772 4.47703C54.0332 5.42104 53.3903 6.62377 53.1298 7.93314C52.8694 9.24252 53.003 10.5997 53.5139 11.8331C54.0248 13.0665 54.89 14.1207 56 14.8624C57.1101 15.6041 58.4151 16 59.7501 16C61.5397 15.998 63.2555 15.2862 64.5209 14.0208C65.7863 12.7553 66.4981 11.0396 66.5001 9.25ZM56.0001 9.25C56.0001 8.50832 56.2201 7.7833 56.6321 7.16661C57.0442 6.54993 57.6298 6.06928 58.3151 5.78545C59.0003 5.50163 59.7543 5.42736 60.4817 5.57206C61.2091 5.71675 61.8773 6.07391 62.4018 6.59835C62.9262 7.1228 63.2834 7.79099 63.4281 8.51841C63.5728 9.24584 63.4985 9.99984 63.2147 10.6851C62.9308 11.3703 62.4502 11.956 61.8335 12.368C61.2168 12.7801 60.4918 13 59.7501 13C58.7556 13 57.8017 12.6049 57.0985 11.9017C56.3952 11.1984 56.0001 10.2446 56.0001 9.25ZM68.0001 18H57.0001C56.6023 18 56.2208 18.158 55.9395 18.4393C55.6582 18.7206 55.5001 19.1022 55.5001 19.5V26C55.5001 26.3978 55.6582 26.7794 55.9395 27.0607C56.2208 27.342 56.6023 27.5 57.0001 27.5H68.0001C68.398 27.5 68.7795 27.342 69.0608 27.0607C69.3421 26.7794 69.5001 26.3978 69.5001 26V19.5C69.5001 19.1022 69.3421 18.7206 69.0608 18.4393C68.7795 18.158 68.398 18 68.0001 18ZM66.5001 24.5H58.5001V21H66.5001V24.5Z" fill="white"/>
</g>
<defs>
<clipPath id="clip0_27_5583">
<rect width="72" height="32" rx="5" fill="white"/>
</clipPath>
</defs>
</svg>
