<svg width="72" height="32" viewBox="0 0 72 32" fill="none" xmlns="http://www.w3.org/2000/svg">
<g clip-path="url(#clip0_27_715)">
<path d="M26.5 25C26.5001 25.6568 26.3564 26.3057 26.079 26.901C25.8016 27.4964 25.3972 28.0238 24.8943 28.4463C24.3914 28.8687 23.8021 29.1759 23.1678 29.3464C22.5335 29.5168 21.8696 29.5464 21.2226 29.4329C20.5757 29.3195 19.9615 29.0658 19.423 28.6896C18.8846 28.3135 18.435 27.8241 18.1058 27.2557C17.7767 26.6873 17.5759 26.0538 17.5177 25.3996C17.4595 24.7454 17.5451 24.0863 17.7687 23.4687L11.1437 19.2125C10.511 19.8331 9.70905 20.2531 8.83853 20.4198C7.96802 20.5864 7.06767 20.4922 6.25046 20.1491C5.43325 19.806 4.73556 19.2292 4.24493 18.491C3.75429 17.7529 3.49255 16.8863 3.49255 16C3.49255 15.1137 3.75429 14.2471 4.24493 13.5089C4.73556 12.7708 5.43325 12.194 6.25046 11.8509C7.06767 11.5078 7.96802 11.4136 8.83853 11.5802C9.70905 11.7469 10.511 12.1668 11.1437 12.7875L17.7687 8.53749C17.3894 7.49505 17.4074 6.34937 17.8194 5.31938C18.2313 4.28939 19.0084 3.4473 20.002 2.95403C20.9956 2.46075 22.1361 2.35087 23.2057 2.64539C24.2752 2.9399 25.1987 3.61816 25.7997 4.55055C26.4008 5.48295 26.6372 6.60411 26.4638 7.6998C26.2904 8.7955 25.7194 9.7889 24.8599 10.4902C24.0003 11.1915 22.9125 11.5515 21.8043 11.5014C20.6962 11.4513 19.6453 10.9947 18.8525 10.2187L12.2275 14.475C12.5855 15.4644 12.5855 16.5481 12.2275 17.5375L18.8525 21.7937C19.485 21.1747 20.286 20.7559 21.1554 20.5898C22.0247 20.4237 22.9237 20.5176 23.7399 20.8598C24.5561 21.202 25.2533 21.7773 25.7442 22.5137C26.2352 23.2501 26.498 24.1149 26.5 25Z" fill="white"/>
<path d="M62 19.5C60.6605 19.4978 59.3667 19.9871 58.3638 20.875L53.2625 17.6C53.5792 16.5568 53.5792 15.4432 53.2625 14.4L58.3638 11.125C59.3567 11.9976 60.6317 12.4818 61.9535 12.4883C63.2754 12.4948 64.5551 12.0232 65.5565 11.1604C66.558 10.2976 67.2138 9.10177 67.4029 7.79348C67.592 6.4852 67.3018 5.15264 66.5856 4.04154C65.8695 2.93044 64.7758 2.11572 63.5062 1.74761C62.2366 1.37949 60.8767 1.48282 59.6773 2.03852C58.4779 2.59423 57.5199 3.56484 56.9798 4.77138C56.4398 5.97793 56.3542 7.33904 56.7388 8.60374L51.6363 11.875C50.8428 11.1737 49.8638 10.7165 48.8167 10.5581C47.7697 10.3997 46.6992 10.547 45.7338 10.9822C44.7684 11.4174 43.9492 12.122 43.3745 13.0114C42.7998 13.9009 42.4941 14.9373 42.4941 15.9962C42.4941 17.0552 42.7998 18.0916 43.3745 18.981C43.9492 19.8705 44.7684 20.5751 45.7338 21.0103C46.6992 21.4455 47.7697 21.5928 48.8167 21.4344C49.8638 21.276 50.8428 20.8187 51.6363 20.1175L56.7375 23.4C56.401 24.507 56.422 25.6919 56.7978 26.7862C57.1736 27.8805 57.8848 28.8284 58.8305 29.4951C59.7761 30.1618 60.9079 30.5133 62.0648 30.4996C63.2217 30.4859 64.3449 30.1077 65.2744 29.4188C66.204 28.7299 66.8926 27.7654 67.2424 26.6625C67.5921 25.5596 67.5851 24.3745 67.2224 23.2759C66.8598 22.1772 66.1598 21.2208 65.2222 20.5429C64.2846 19.865 63.1571 19.5001 62 19.5ZM62 4.49999C62.4945 4.49999 62.9778 4.64661 63.389 4.92131C63.8001 5.19602 64.1205 5.58646 64.3097 6.04328C64.499 6.50009 64.5485 7.00276 64.452 7.48771C64.3555 7.97266 64.1174 8.41812 63.7678 8.76775C63.4182 9.11738 62.9727 9.35549 62.4878 9.45195C62.0028 9.54841 61.5002 9.4989 61.0433 9.30968C60.5865 9.12047 60.1961 8.80003 59.9214 8.38891C59.6467 7.97779 59.5 7.49444 59.5 6.99999C59.5 6.33694 59.7634 5.70106 60.2323 5.23222C60.7011 4.76338 61.337 4.49999 62 4.49999ZM48 18.5C47.5056 18.5 47.0222 18.3534 46.6111 18.0787C46.2 17.804 45.8796 17.4135 45.6903 16.9567C45.5011 16.4999 45.4516 15.9972 45.5481 15.5123C45.6445 15.0273 45.8826 14.5819 46.2323 14.2322C46.5819 13.8826 47.0274 13.6445 47.5123 13.548C47.9973 13.4516 48.4999 13.5011 48.9568 13.6903C49.4136 13.8795 49.804 14.1999 50.0787 14.6111C50.3534 15.0222 50.5 15.5055 50.5 16C50.5 16.663 50.2367 17.2989 49.7678 17.7678C49.299 18.2366 48.6631 18.5 48 18.5ZM62 27.5C61.5056 27.5 61.0222 27.3534 60.6111 27.0787C60.2 26.804 59.8796 26.4135 59.6903 25.9567C59.5011 25.4999 59.4516 24.9972 59.5481 24.5123C59.6445 24.0273 59.8826 23.5819 60.2323 23.2322C60.5819 22.8826 61.0274 22.6445 61.5123 22.548C61.9973 22.4516 62.4999 22.5011 62.9568 22.6903C63.4136 22.8795 63.804 23.1999 64.0787 23.6111C64.3534 24.0222 64.5 24.5055 64.5 25C64.5 25.663 64.2367 26.2989 63.7678 26.7678C63.299 27.2366 62.6631 27.5 62 27.5Z" fill="white"/>
</g>
<defs>
<clipPath id="clip0_27_715">
<rect width="72" height="32" rx="5" fill="white"/>
</clipPath>
</defs>
</svg>
