<svg width="72" height="32" viewBox="0 0 72 32" fill="none" xmlns="http://www.w3.org/2000/svg">
<g clip-path="url(#clip0_27_705)">
<path d="M28.7075 13.7075L22.7075 19.7075C22.5676 19.8475 22.3894 19.9429 22.1953 19.9815C22.0012 20.0202 21.8 20.0004 21.6172 19.9246C21.4344 19.8489 21.2782 19.7206 21.1683 19.556C21.0584 19.3914 20.9998 19.1979 21 19V14H20.625C18.1858 13.9993 15.8156 14.8094 13.8871 16.3028C11.9585 17.7962 10.581 19.8883 9.97125 22.25C9.90495 22.5069 9.73929 22.727 9.51073 22.8618C9.28217 22.9966 9.00943 23.035 8.7525 22.9687C8.49557 22.9024 8.27551 22.7368 8.14071 22.5082C8.00592 22.2797 7.96745 22.0069 8.03375 21.75C8.75327 18.9582 10.3809 16.4849 12.6605 14.7198C14.94 12.9546 17.7419 11.9978 20.625 12H21V6.99999C20.9998 6.8021 21.0584 6.60861 21.1683 6.44401C21.2782 6.27942 21.4344 6.15112 21.6172 6.07537C21.8 5.99962 22.0012 5.97981 22.1953 6.01846C22.3894 6.05712 22.5676 6.15248 22.7075 6.29249L28.7075 12.2925C28.8005 12.3854 28.8742 12.4957 28.9246 12.6171C28.9749 12.7385 29.0008 12.8686 29.0008 13C29.0008 13.1314 28.9749 13.2615 28.9246 13.3829C28.8742 13.5043 28.8005 13.6146 28.7075 13.7075ZM24 26H5V11C5 10.7348 4.89464 10.4804 4.70711 10.2929C4.51957 10.1054 4.26522 9.99999 4 9.99999C3.73478 9.99999 3.48043 10.1054 3.29289 10.2929C3.10536 10.4804 3 10.7348 3 11V27C3 27.2652 3.10536 27.5196 3.29289 27.7071C3.48043 27.8946 3.73478 28 4 28H24C24.2652 28 24.5196 27.8946 24.7071 27.7071C24.8946 27.5196 25 27.2652 25 27C25 26.7348 24.8946 26.4804 24.7071 26.2929C24.5196 26.1054 24.2652 26 24 26Z" fill="white"/>
<path d="M69.0613 14.0613L63.0613 20.0613C62.7795 20.343 62.3973 20.5014 61.9988 20.5014C61.6002 20.5014 61.218 20.343 60.9363 20.0613C60.6545 19.7795 60.4961 19.3973 60.4961 18.9988C60.4961 18.6002 60.6545 18.218 60.9363 17.9363L64.375 14.5H60.625C58.2966 14.4992 56.034 15.2724 54.193 16.698C52.352 18.1235 51.0371 20.1206 50.455 22.375C50.4058 22.5658 50.3194 22.7449 50.2009 22.9023C50.0824 23.0597 49.9341 23.1922 49.7644 23.2922C49.5947 23.3923 49.407 23.4579 49.2119 23.4854C49.0168 23.5129 48.8182 23.5018 48.6275 23.4525C48.4368 23.4033 48.2576 23.3169 48.1002 23.1984C47.9428 23.0799 47.8103 22.9316 47.7103 22.7619C47.6102 22.5922 47.5446 22.4045 47.5171 22.2094C47.4896 22.0143 47.5008 21.8158 47.55 21.625C48.2972 18.7259 49.9874 16.1576 52.3545 14.3246C54.7216 12.4916 57.6311 11.4979 60.625 11.5H64.375L60.9387 8.06001C60.657 7.77821 60.4986 7.39602 60.4986 6.99751C60.4986 6.59899 60.657 6.2168 60.9387 5.93501C61.2205 5.65321 61.6027 5.4949 62.0012 5.4949C62.3998 5.4949 62.782 5.65321 63.0637 5.93501L69.0637 11.935C69.2036 12.0745 69.3145 12.2403 69.3901 12.4229C69.4657 12.6054 69.5045 12.8011 69.5043 12.9987C69.5041 13.1962 69.4648 13.3918 69.3888 13.5742C69.3127 13.7565 69.2014 13.922 69.0613 14.0613ZM64 25.5H45.5V11C45.5 10.6022 45.342 10.2206 45.0607 9.93934C44.7794 9.65804 44.3978 9.50001 44 9.50001C43.6022 9.50001 43.2206 9.65804 42.9393 9.93934C42.658 10.2206 42.5 10.6022 42.5 11V27C42.5 27.3978 42.658 27.7794 42.9393 28.0607C43.2206 28.342 43.6022 28.5 44 28.5H64C64.3978 28.5 64.7794 28.342 65.0607 28.0607C65.342 27.7794 65.5 27.3978 65.5 27C65.5 26.6022 65.342 26.2207 65.0607 25.9393C64.7794 25.658 64.3978 25.5 64 25.5Z" fill="white"/>
</g>
<defs>
<clipPath id="clip0_27_705">
<rect width="72" height="32" rx="5" fill="white"/>
</clipPath>
</defs>
</svg>
