<svg width="72" height="32" viewBox="0 0 72 32" fill="none" xmlns="http://www.w3.org/2000/svg">
<g clip-path="url(#clip0_27_710)">
<path d="M29.7075 14.7075L19.7075 24.7075C19.5677 24.8475 19.3894 24.9429 19.1954 24.9815C19.0013 25.0202 18.8001 25.0004 18.6173 24.9246C18.4344 24.8489 18.2782 24.7206 18.1683 24.556C18.0585 24.3914 17.9999 24.1979 18 24V19.0287C10.8625 19.4337 5.9688 24.0625 4.59505 25.5287C4.37933 25.7591 4.09646 25.9156 3.78667 25.9759C3.47689 26.0362 3.15598 25.9972 2.86962 25.8645C2.58325 25.7319 2.34603 25.5123 2.1917 25.237C2.03737 24.9617 1.97381 24.6448 2.01005 24.3312C2.4738 20.2987 4.68255 16.42 8.23005 13.41C11.1763 10.91 14.7575 9.32374 18 9.04624V3.99999C17.9999 3.8021 18.0585 3.60861 18.1683 3.44401C18.2782 3.27942 18.4344 3.15112 18.6173 3.07537C18.8001 2.99962 19.0013 2.97981 19.1954 3.01846C19.3894 3.05712 19.5677 3.15248 19.7075 3.29249L29.7075 13.2925C29.8005 13.3854 29.8743 13.4957 29.9246 13.6171C29.9749 13.7385 30.0008 13.8686 30.0008 14C30.0008 14.1314 29.9749 14.2615 29.9246 14.3829C29.8743 14.5043 29.8005 14.6146 29.7075 14.7075Z" fill="white"/>
<path d="M70.0613 12.94L60.0613 2.93999C59.8516 2.73005 59.5843 2.58702 59.2933 2.52901C59.0023 2.47099 58.7006 2.5006 58.4264 2.61407C58.1522 2.72754 57.9179 2.91979 57.753 3.16649C57.5881 3.41319 57.5 3.70325 57.5 3.99999V8.59249C54.28 8.98249 50.7925 10.5787 47.9063 13.0262C44.2613 16.1187 41.9913 20.1125 41.5138 24.2762C41.4654 24.6941 41.55 25.1165 41.7555 25.4835C41.961 25.8505 42.277 26.1433 42.6586 26.3204C43.0401 26.4975 43.4678 26.5497 43.8807 26.4698C44.2937 26.3898 44.6709 26.1817 44.9588 25.875C46.2663 24.4825 50.8338 20.1575 57.5 19.5725V24C57.5003 24.2965 57.5884 24.5862 57.7532 24.8327C57.9181 25.0791 58.1522 25.2711 58.4262 25.3846C58.7001 25.498 59.0015 25.5277 59.2923 25.4699C59.5831 25.4122 59.8502 25.2695 60.06 25.06L70.06 15.06C70.3411 14.7789 70.4991 14.3978 70.4993 14.0002C70.4996 13.6027 70.342 13.2214 70.0613 12.94ZM60.5 20.375V18C60.5 17.6022 60.342 17.2206 60.0607 16.9393C59.7794 16.658 59.3978 16.5 59 16.5C52.875 16.5 48.1788 19.195 45.2763 21.5137C46.1675 19.2437 47.73 17.1112 49.8475 15.315C52.6625 12.9262 56.0838 11.5 59 11.5C59.3978 11.5 59.7794 11.342 60.0607 11.0607C60.342 10.7793 60.5 10.3978 60.5 9.99999V7.62499L66.875 14L60.5 20.375Z" fill="white"/>
</g>
<defs>
<clipPath id="clip0_27_710">
<rect width="72" height="32" rx="5" fill="white"/>
</clipPath>
</defs>
</svg>
