<svg width="72" height="32" viewBox="0 0 72 32" fill="none" xmlns="http://www.w3.org/2000/svg">
<g clip-path="url(#clip0_27_4494)">
<path d="M26 5H6C5.46957 5 4.96086 5.21071 4.58579 5.58579C4.21071 5.96086 4 6.46957 4 7V14C4 20.59 7.19 24.5837 9.86625 26.7738C12.7487 29.1313 15.6163 29.9325 15.7413 29.965C15.9131 30.0118 16.0944 30.0118 16.2663 29.965C16.3913 29.9325 19.255 29.1313 22.1413 26.7738C24.81 24.5837 28 20.59 28 14V7C28 6.46957 27.7893 5.96086 27.4142 5.58579C27.0391 5.21071 26.5304 5 26 5ZM20 17H17V20C17 20.2652 16.8946 20.5196 16.7071 20.7071C16.5196 20.8946 16.2652 21 16 21C15.7348 21 15.4804 20.8946 15.2929 20.7071C15.1054 20.5196 15 20.2652 15 20V17H12C11.7348 17 11.4804 16.8946 11.2929 16.7071C11.1054 16.5196 11 16.2652 11 16C11 15.7348 11.1054 15.4804 11.2929 15.2929C11.4804 15.1054 11.7348 15 12 15H15V12C15 11.7348 15.1054 11.4804 15.2929 11.2929C15.4804 11.1054 15.7348 11 16 11C16.2652 11 16.5196 11.1054 16.7071 11.2929C16.8946 11.4804 17 11.7348 17 12V15H20C20.2652 15 20.5196 15.1054 20.7071 15.2929C20.8946 15.4804 21 15.7348 21 16C21 16.2652 20.8946 16.5196 20.7071 16.7071C20.5196 16.8946 20.2652 17 20 17Z" fill="white"/>
<path d="M50.5 16C50.5 15.6022 50.658 15.2206 50.9393 14.9393C51.2206 14.658 51.6022 14.5 52 14.5H54.5V12C54.5 11.6022 54.658 11.2206 54.9393 10.9393C55.2206 10.658 55.6022 10.5 56 10.5C56.3978 10.5 56.7794 10.658 57.0607 10.9393C57.342 11.2206 57.5 11.6022 57.5 12V14.5H60C60.3978 14.5 60.7794 14.658 61.0607 14.9393C61.342 15.2206 61.5 15.6022 61.5 16C61.5 16.3978 61.342 16.7794 61.0607 17.0607C60.7794 17.342 60.3978 17.5 60 17.5H57.5V20C57.5 20.3978 57.342 20.7794 57.0607 21.0607C56.7794 21.342 56.3978 21.5 56 21.5C55.6022 21.5 55.2206 21.342 54.9393 21.0607C54.658 20.7794 54.5 20.3978 54.5 20V17.5H52C51.6022 17.5 51.2206 17.342 50.9393 17.0607C50.658 16.7794 50.5 16.3978 50.5 16ZM68.5 7V14C68.5 20.7863 65.21 24.9025 62.45 27.1612C59.4863 29.585 56.52 30.4113 56.395 30.4475C56.1363 30.5175 55.8637 30.5175 55.605 30.4475C55.48 30.4125 52.5138 29.585 49.55 27.1612C46.79 24.9025 43.5 20.7863 43.5 14V7C43.5 6.33696 43.7634 5.70107 44.2322 5.23223C44.7011 4.76339 45.337 4.5 46 4.5H66C66.663 4.5 67.2989 4.76339 67.7678 5.23223C68.2366 5.70107 68.5 6.33696 68.5 7ZM65.5 7.5H46.5V14C46.5 18.4637 48.1363 22.0863 51.3638 24.7687C52.747 25.9106 54.3149 26.8081 56 27.4225C57.685 26.8077 59.2528 25.9103 60.6362 24.7687C63.8638 22.0863 65.5 18.4637 65.5 14V7.5Z" fill="white"/>
</g>
<defs>
<clipPath id="clip0_27_4494">
<rect width="72" height="32" rx="5" fill="white"/>
</clipPath>
</defs>
</svg>
