<svg width="72" height="32" viewBox="0 0 72 32" fill="none" xmlns="http://www.w3.org/2000/svg">
<g clip-path="url(#clip0_27_4474)">
<path d="M28 7V14C28 20.59 24.81 24.5837 22.1338 26.7738C19.2513 29.1313 16.3838 29.9325 16.2588 29.965C16.0869 30.0118 15.9056 30.0118 15.7338 29.965C15.6088 29.9325 12.745 29.1313 9.85875 26.7738C7.19 24.5837 4 20.59 4 14V7C4 6.46957 4.21071 5.96086 4.58579 5.58579C4.96086 5.21071 5.46957 5 6 5H26C26.5304 5 27.0391 5.21071 27.4142 5.58579C27.7893 5.96086 28 6.46957 28 7Z" fill="white"/>
<path d="M66 4.5H46C45.337 4.5 44.7011 4.76339 44.2322 5.23223C43.7634 5.70107 43.5 6.33696 43.5 7V14C43.5 20.7863 46.79 24.9025 49.55 27.1612C52.5138 29.585 55.48 30.4113 55.605 30.4475C55.8637 30.5175 56.1363 30.5175 56.395 30.4475C56.52 30.4125 59.4863 29.585 62.45 27.1612C65.21 24.9025 68.5 20.7863 68.5 14V7C68.5 6.33696 68.2366 5.70107 67.7678 5.23223C67.2989 4.76339 66.663 4.5 66 4.5ZM65.5 14C65.5 18.4637 63.8638 22.0863 60.6362 24.7687C59.2528 25.9103 57.685 26.8077 56 27.4225C54.3149 26.8081 52.747 25.9106 51.3638 24.7687C48.1363 22.0863 46.5 18.4637 46.5 14V7.5H65.5V14Z" fill="white"/>
</g>
<defs>
<clipPath id="clip0_27_4474">
<rect width="72" height="32" rx="5" fill="white"/>
</clipPath>
</defs>
</svg>
