<svg width="72" height="32" viewBox="0 0 72 32" fill="none" xmlns="http://www.w3.org/2000/svg">
<g clip-path="url(#clip0_27_4484)">
<path d="M26 5H6C5.46957 5 4.96086 5.21071 4.58579 5.58579C4.21071 5.96086 4 6.46957 4 7V14C4 20.59 7.19 24.5837 9.86625 26.7738C12.7487 29.1313 15.6163 29.9325 15.7413 29.965C15.9131 30.0118 16.0944 30.0118 16.2663 29.965C16.3913 29.9325 19.255 29.1313 22.1413 26.7738C24.81 24.5837 28 20.59 28 14V7C28 6.46957 27.7893 5.96086 27.4142 5.58579C27.0391 5.21071 26.5304 5 26 5ZM16 27.9525C14.2315 27.335 12.5849 26.4123 11.135 25.2262C8.22875 22.8487 6.54625 19.75 6.1125 16H16V7H26V14C26.0004 14.6683 25.9628 15.336 25.8875 16H16V27.9525Z" fill="white"/>
<path d="M66 4.5H46C45.337 4.5 44.7011 4.76339 44.2322 5.23223C43.7634 5.70107 43.5 6.33696 43.5 7V14C43.5 20.7863 46.79 24.9025 49.55 27.1612C52.5138 29.585 55.48 30.4113 55.605 30.4475C55.8637 30.5175 56.1363 30.5175 56.395 30.4475C56.52 30.4125 59.4863 29.585 62.45 27.1612C65.21 24.9025 68.5 20.7863 68.5 14V7C68.5 6.33696 68.2366 5.70107 67.7678 5.23223C67.2989 4.76339 66.663 4.5 66 4.5ZM65.5 14C65.5 14.1675 65.5 14.335 65.4925 14.5H57.5V7.5H65.5V14ZM46.5 7.5H54.5V14.5H46.5075C46.5075 14.335 46.5 14.1675 46.5 14V7.5ZM46.875 17.5H54.5V26.7862C53.379 26.2393 52.3263 25.5621 51.3638 24.7687C49.0275 22.8263 47.525 20.3912 46.875 17.5ZM60.6375 24.7687C59.6746 25.5622 58.6215 26.2394 57.5 26.7862V17.5H65.125C64.475 20.3912 62.9725 22.8263 60.6362 24.7687H60.6375Z" fill="white"/>
</g>
<defs>
<clipPath id="clip0_27_4484">
<rect width="72" height="32" rx="5" fill="white"/>
</clipPath>
</defs>
</svg>
