<svg width="72" height="32" viewBox="0 0 72 32" fill="none" xmlns="http://www.w3.org/2000/svg">
<g clip-path="url(#clip0_27_1457)">
<path d="M25.125 5H22.4188L20.7075 3.2925C20.6146 3.19967 20.5042 3.12605 20.3829 3.07586C20.2615 3.02568 20.1314 2.9999 20 3H12C11.8686 2.9999 11.7385 3.02568 11.6172 3.07586C11.4958 3.12605 11.3854 3.19967 11.2925 3.2925L9.58125 5H6.875C6.37772 5 5.90081 5.19754 5.54917 5.54918C5.19754 5.90081 5 6.37772 5 6.875V26.125C5 26.6223 5.19754 27.0992 5.54917 27.4508C5.90081 27.8025 6.37772 28 6.875 28H14.5C14.6326 28 14.7598 27.9473 14.8536 27.8536C14.9473 27.7598 15 27.6326 15 27.5V13.0337C14.9962 12.7753 15.0904 12.5251 15.2636 12.3333C15.4368 12.1415 15.6763 12.0224 15.9338 12C16.0705 11.9909 16.2077 12.0101 16.3368 12.0562C16.4659 12.1024 16.5841 12.1746 16.6841 12.2684C16.7841 12.3622 16.8637 12.4755 16.9181 12.6014C16.9724 12.7272 17.0003 12.8629 17 13V27.5C17 27.6326 17.0527 27.7598 17.1464 27.8536C17.2402 27.9473 17.3674 28 17.5 28H25.125C25.6223 28 26.0992 27.8025 26.4508 27.4508C26.8025 27.0992 27 26.6223 27 26.125V6.875C27 6.37772 26.8025 5.90081 26.4508 5.54918C26.0992 5.19754 25.6223 5 25.125 5ZM10.8175 13.385C10.7444 13.4451 10.6557 13.4832 10.5618 13.4949C10.4679 13.5066 10.3726 13.4914 10.287 13.4511C10.2013 13.4108 10.1289 13.347 10.0781 13.2671C10.0273 13.1873 10.0002 13.0946 10 13V7.41375L11.905 5.50875L14.8387 9.91L10.8175 13.385ZM22 13C22.0002 13.0951 21.9733 13.1884 21.9224 13.2688C21.8714 13.3491 21.7986 13.4133 21.7125 13.4537C21.6279 13.4946 21.5333 13.5102 21.44 13.4989C21.3468 13.4876 21.2587 13.4498 21.1863 13.39L17.1612 9.9125L20.095 5.51125L22 7.41375V13Z" fill="white"/>
<path d="M65 4.5H62.125L60.5613 2.93875C60.4218 2.7995 60.2564 2.68908 60.0743 2.6138C59.8922 2.53851 59.697 2.49985 59.5 2.5H52.5C52.303 2.49985 52.1078 2.53851 51.9257 2.6138C51.7436 2.68908 51.5782 2.7995 51.4388 2.93875L49.875 4.5H47C46.337 4.5 45.7011 4.76339 45.2322 5.23223C44.7634 5.70107 44.5 6.33696 44.5 7V26C44.5 26.663 44.7634 27.2989 45.2322 27.7678C45.7011 28.2366 46.337 28.5 47 28.5H65C65.663 28.5 66.2989 28.2366 66.7678 27.7678C67.2366 27.2989 67.5 26.663 67.5 26V7C67.5 6.33696 67.2366 5.70107 66.7678 5.23223C66.2989 4.76339 65.663 4.5 65 4.5ZM52 6.625L52.9163 5.70875L54.8525 9.025L52 11.81V6.625ZM57.1475 9.025L59.0837 5.705L60 6.625V11.81L57.1475 9.025ZM47.5 7.5H49V13C48.9999 13.4936 49.1458 13.9762 49.4195 14.3869C49.6932 14.7977 50.0823 15.1182 50.5379 15.3082C50.9935 15.4982 51.4951 15.549 51.9795 15.4543C52.4639 15.3597 52.9095 15.1237 53.26 14.7762L54.5 13.5625V25.5H47.5V7.5ZM64.5 25.5H57.5V13.5625L58.74 14.7738C59.0904 15.1211 59.5357 15.357 60.0199 15.4517C60.5041 15.5465 61.0055 15.4958 61.461 15.3062C61.9164 15.1165 62.3056 14.7964 62.5795 14.386C62.8533 13.9756 62.9997 13.4934 63 13V7.5H64.5V25.5Z" fill="white"/>
</g>
<defs>
<clipPath id="clip0_27_1457">
<rect width="72" height="32" rx="5" fill="white"/>
</clipPath>
</defs>
</svg>
