<svg width="72" height="32" viewBox="0 0 72 32" fill="none" xmlns="http://www.w3.org/2000/svg">
<g clip-path="url(#clip0_27_2259)">
<path d="M29.4051 10.5475L25.8976 13.5075L26.9676 17.9312C27.0452 18.2515 27.0262 18.5876 26.9129 18.897C26.7997 19.2065 26.5973 19.4755 26.3313 19.67C26.0622 19.8678 25.7405 19.9815 25.4069 19.9969C25.0732 20.0122 24.7425 19.9285 24.4563 19.7562L20.5001 17.375L16.5438 19.7575C16.2578 19.9302 15.927 20.0142 15.5932 19.9989C15.2595 19.9835 14.9378 19.8695 14.6688 19.6712C14.4023 19.4771 14.1995 19.2082 14.086 18.8987C13.9725 18.5891 13.9535 18.2529 14.0313 17.9325L15.1013 13.5087L11.5951 10.5475C11.3411 10.3329 11.1569 10.0475 11.0658 9.72772C10.9748 9.40796 10.981 9.06832 11.0837 8.75211C11.1864 8.43589 11.381 8.15744 11.6426 7.95225C11.9042 7.74706 12.221 7.62443 12.5526 7.6L17.1701 7.235L18.9463 3.0275C19.0761 2.72281 19.2925 2.46299 19.5688 2.28036C19.845 2.09774 20.1689 2.00037 20.5001 2.00037C20.8312 2.00037 21.1551 2.09774 21.4314 2.28036C21.7076 2.46299 21.9241 2.72281 22.0538 3.0275L23.8301 7.235L28.4476 7.6C28.7791 7.62443 29.0959 7.74706 29.3575 7.95225C29.6192 8.15744 29.8137 8.43589 29.9164 8.75211C30.0192 9.06832 30.0254 9.40796 29.9343 9.72772C29.8432 10.0475 29.659 10.3329 29.4051 10.5475ZM11.0138 13.9862C10.9209 13.8933 10.8107 13.8195 10.6893 13.7692C10.5679 13.7189 10.4377 13.693 10.3063 13.693C10.1749 13.693 10.0448 13.7189 9.92338 13.7692C9.80198 13.8195 9.69169 13.8933 9.59882 13.9862L2.29257 21.2925C2.10493 21.4801 1.99951 21.7346 1.99951 22C1.99951 22.2654 2.10493 22.5199 2.29257 22.7075C2.48021 22.8951 2.7347 23.0006 3.00007 23.0006C3.26543 23.0006 3.51993 22.8951 3.70757 22.7075L11.0138 15.4012C11.1068 15.3084 11.1806 15.1981 11.2309 15.0767C11.2812 14.9553 11.3071 14.8252 11.3071 14.6937C11.3071 14.5623 11.2812 14.4322 11.2309 14.3108C11.1806 14.1894 11.1068 14.0791 11.0138 13.9862ZM10.9513 21.635L4.29257 28.2925C4.19966 28.3854 4.12596 28.4957 4.07567 28.6171C4.02539 28.7385 3.99951 28.8686 3.99951 29C3.99951 29.1314 4.02539 29.2615 4.07567 29.3829C4.12596 29.5043 4.19966 29.6146 4.29257 29.7075C4.48021 29.8951 4.7347 30.0006 5.00007 30.0006C5.13146 30.0006 5.26157 29.9747 5.38296 29.9244C5.50436 29.8741 5.61466 29.8004 5.70757 29.7075L12.3651 23.0487C12.5447 22.8597 12.6433 22.6079 12.64 22.3472C12.6367 22.0864 12.5316 21.8373 12.3472 21.6529C12.1628 21.4685 11.9137 21.3634 11.6529 21.3601C11.3921 21.3567 11.1404 21.4554 10.9513 21.635ZM20.0763 21.51L13.2901 28.295C13.1972 28.3879 13.1235 28.4982 13.0732 28.6196C13.0229 28.741 12.997 28.8711 12.997 29.0025C12.997 29.1339 13.0229 29.264 13.0732 29.3854C13.1235 29.5068 13.1972 29.6171 13.2901 29.71C13.4777 29.8976 13.7322 30.0031 13.9976 30.0031C14.129 30.0031 14.2591 29.9772 14.3805 29.9269C14.5019 29.8766 14.6122 29.8029 14.7051 29.71L21.4901 22.925C21.6777 22.7375 21.7832 22.4832 21.7833 22.2179C21.7834 21.9527 21.6782 21.6983 21.4907 21.5106C21.3032 21.323 21.0489 21.2175 20.7836 21.2174C20.5184 21.2173 20.264 21.3225 20.0763 21.51Z" fill="white"/>
<path d="M70.3952 8.60625C70.2622 8.195 70.0098 7.83267 69.67 7.56551C69.3303 7.29835 68.9187 7.13846 68.4877 7.10625L64.1727 6.76625L62.5152 2.8325C62.3469 2.43733 62.0662 2.10035 61.7079 1.86349C61.3497 1.62662 60.9297 1.50034 60.5002 1.50034C60.0707 1.50034 59.6507 1.62662 59.2924 1.86349C58.9341 2.10035 58.6534 2.43733 58.4852 2.8325L56.8277 6.76125L52.5139 7.10125C52.0836 7.13349 51.6726 7.29308 51.3333 7.55969C50.994 7.82631 50.7417 8.18788 50.6086 8.59837C50.4754 9.00885 50.4675 9.44967 50.5858 9.86468C50.704 10.2797 50.9432 10.6501 51.2727 10.9288L54.5439 13.6913L53.5439 17.8163C53.4442 18.2346 53.4703 18.673 53.6189 19.0765C53.7675 19.48 54.032 19.8306 54.3792 20.0844C54.7264 20.3381 55.1408 20.4836 55.5704 20.5026C56 20.5216 56.4257 20.4133 56.7939 20.1913L60.5002 17.9575L64.1989 20.1838C64.5672 20.4058 64.9928 20.5141 65.4224 20.4951C65.852 20.4761 66.2664 20.3306 66.6136 20.0769C66.9608 19.8231 67.2253 19.4725 67.3739 19.069C67.5225 18.6655 67.5486 18.2271 67.4489 17.8088L66.4489 13.6838L69.7202 10.9213C70.0498 10.646 70.2901 10.2789 70.4103 9.86657C70.5305 9.45428 70.5252 9.01554 70.3952 8.60625ZM63.8127 12C63.5997 12.1798 63.441 12.4154 63.3545 12.6804C63.2679 12.9453 63.2569 13.2291 63.3227 13.5L64.0727 16.6138L61.2714 14.9263C61.0375 14.7864 60.7702 14.7125 60.4977 14.7125C60.2252 14.7125 59.9578 14.7864 59.7239 14.9263L56.9227 16.6138L57.6727 13.5C57.7383 13.229 57.7271 12.9451 57.6403 12.6802C57.5535 12.4152 57.3946 12.1797 57.1814 12L54.7502 9.935L57.9789 9.685C58.2529 9.66331 58.5158 9.56672 58.7386 9.4058C58.9615 9.24487 59.1359 9.0258 59.2427 8.7725L60.5002 5.775L61.7639 8.7675C61.8707 9.0208 62.0451 9.23987 62.268 9.4008C62.4908 9.56172 62.7536 9.65831 63.0277 9.68L66.2552 9.93L63.8127 12ZM44.0627 23.065C43.7809 23.3468 43.3987 23.5051 43.0002 23.5051C42.6016 23.5051 42.2195 23.3468 41.9377 23.065C41.6559 22.7832 41.4976 22.401 41.4976 22.0025C41.4976 21.604 41.6559 21.2218 41.9377 20.94L48.4077 14.4713C48.6895 14.1895 49.0716 14.0312 49.4702 14.0312C49.8687 14.0312 50.2509 14.1895 50.5327 14.4713C50.8145 14.753 50.9728 15.1352 50.9728 15.5338C50.9728 15.9323 50.8145 16.3145 50.5327 16.5963L44.0627 23.065ZM52.0114 21.9938C52.1512 22.1331 52.2622 22.2987 52.3379 22.481C52.4136 22.6634 52.4526 22.8588 52.4526 23.0563C52.4526 23.2537 52.4136 23.4492 52.3379 23.6315C52.2622 23.8138 52.1512 23.9794 52.0114 24.1188L46.0627 30.0688C45.9231 30.2083 45.7575 30.319 45.5752 30.3945C45.3929 30.47 45.1975 30.5089 45.0002 30.5089C44.8028 30.5089 44.6074 30.47 44.4251 30.3945C44.2428 30.319 44.0772 30.2083 43.9377 30.0688C43.7981 29.9292 43.6875 29.7636 43.6119 29.5813C43.5364 29.399 43.4976 29.2036 43.4976 29.0063C43.4976 28.8089 43.5364 28.6135 43.6119 28.4312C43.6875 28.2489 43.7981 28.0833 43.9377 27.9438L49.8877 21.995C50.0266 21.8552 50.1918 21.7442 50.3737 21.6683C50.5557 21.5924 50.7508 21.553 50.9479 21.5526C51.145 21.5521 51.3403 21.5905 51.5226 21.6656C51.7048 21.7406 51.8705 21.8509 52.0102 21.99L52.0114 21.9938ZM59.8164 23.1888C59.9562 23.3281 60.0672 23.4937 60.1429 23.676C60.2186 23.8584 60.2576 24.0538 60.2576 24.2513C60.2576 24.4487 60.2186 24.6442 60.1429 24.8265C60.0672 25.0088 59.9562 25.1744 59.8164 25.3138L55.0664 30.0638C54.7846 30.3455 54.4024 30.5039 54.0039 30.5039C53.6054 30.5039 53.2232 30.3455 52.9414 30.0638C52.6596 29.782 52.5013 29.3998 52.5013 29.0013C52.5013 28.6027 52.6596 28.2205 52.9414 27.9388L57.6914 23.1888C57.8305 23.0489 57.9958 22.9378 58.1779 22.8618C58.36 22.7859 58.5552 22.7467 58.7525 22.7463C58.9498 22.746 59.1452 22.7845 59.3275 22.8598C59.5099 22.9351 59.6756 23.0456 59.8152 23.185L59.8164 23.1888Z" fill="white"/>
</g>
<defs>
<clipPath id="clip0_27_2259">
<rect width="72" height="32" rx="5" fill="white"/>
</clipPath>
</defs>
</svg>
