<svg width="72" height="32" viewBox="0 0 72 32" fill="none" xmlns="http://www.w3.org/2000/svg">
<g clip-path="url(#clip0_27_1467)">
<path d="M27 5H5C4.46957 5 3.96086 5.21071 3.58579 5.58579C3.21071 5.96086 3 6.46957 3 7V25C3 25.5304 3.21071 26.0391 3.58579 26.4142C3.96086 26.7893 4.46957 27 5 27H27C27.5304 27 28.0391 26.7893 28.4142 26.4142C28.7893 26.0391 29 25.5304 29 25V7C29 6.46957 28.7893 5.96086 28.4142 5.58579C28.0391 5.21071 27.5304 5 27 5ZM16 20C14.4092 19.9983 12.884 19.3657 11.7592 18.2408C10.6343 17.116 10.0017 15.5908 10 14C10 13.7348 10.1054 13.4804 10.2929 13.2929C10.4804 13.1054 10.7348 13 11 13C11.2652 13 11.5196 13.1054 11.7071 13.2929C11.8946 13.4804 12 13.7348 12 14C12 15.0609 12.4214 16.0783 13.1716 16.8284C13.9217 17.5786 14.9391 18 16 18C17.0609 18 18.0783 17.5786 18.8284 16.8284C19.5786 16.0783 20 15.0609 20 14C20 13.7348 20.1054 13.4804 20.2929 13.2929C20.4804 13.1054 20.7348 13 21 13C21.2652 13 21.5196 13.1054 21.7071 13.2929C21.8946 13.4804 22 13.7348 22 14C21.9983 15.5908 21.3657 17.116 20.2408 18.2408C19.116 19.3657 17.5908 19.9983 16 20ZM5 9V7H27V9H5Z" fill="white"/>
<path d="M67 4.5H45C44.337 4.5 43.7011 4.76339 43.2322 5.23223C42.7634 5.70107 42.5 6.33696 42.5 7V25C42.5 25.663 42.7634 26.2989 43.2322 26.7678C43.7011 27.2366 44.337 27.5 45 27.5H67C67.663 27.5 68.2989 27.2366 68.7678 26.7678C69.2366 26.2989 69.5 25.663 69.5 25V7C69.5 6.33696 69.2366 5.70107 68.7678 5.23223C68.2989 4.76339 67.663 4.5 67 4.5ZM66.5 7.5V9.5H45.5V7.5H66.5ZM45.5 24.5V12.5H66.5V24.5H45.5ZM62.5 15.5C62.5 17.2239 61.8152 18.8772 60.5962 20.0962C59.3772 21.3152 57.7239 22 56 22C54.2761 22 52.6228 21.3152 51.4038 20.0962C50.1848 18.8772 49.5 17.2239 49.5 15.5C49.5 15.1022 49.658 14.7206 49.9393 14.4393C50.2206 14.158 50.6022 14 51 14C51.3978 14 51.7794 14.158 52.0607 14.4393C52.342 14.7206 52.5 15.1022 52.5 15.5C52.5 16.4283 52.8687 17.3185 53.5251 17.9749C54.1815 18.6313 55.0717 19 56 19C56.9283 19 57.8185 18.6313 58.4749 17.9749C59.1313 17.3185 59.5 16.4283 59.5 15.5C59.5 15.1022 59.658 14.7206 59.9393 14.4393C60.2206 14.158 60.6022 14 61 14C61.3978 14 61.7794 14.158 62.0607 14.4393C62.342 14.7206 62.5 15.1022 62.5 15.5Z" fill="white"/>
</g>
<defs>
<clipPath id="clip0_27_1467">
<rect width="72" height="32" rx="5" fill="white"/>
</clipPath>
</defs>
</svg>
