<svg width="72" height="32" viewBox="0 0 72 32" fill="none" xmlns="http://www.w3.org/2000/svg">
<g clip-path="url(#clip0_27_1472)">
<path d="M28.7675 7.35875C28.6736 7.24642 28.5562 7.15607 28.4236 7.09408C28.291 7.03209 28.1464 6.99998 28 7H7.835L7.075 2.82125C7.03314 2.59083 6.91174 2.38242 6.73196 2.23234C6.55218 2.08226 6.32544 2.00003 6.09125 2H3C2.73478 2 2.48043 2.10536 2.29289 2.29289C2.10536 2.48043 2 2.73478 2 3C2 3.26522 2.10536 3.51957 2.29289 3.70711C2.48043 3.89464 2.73478 4 3 4H5.25L8.445 21.5362C8.53911 22.0563 8.76895 22.5423 9.11125 22.945C8.63881 23.3863 8.29781 23.9498 8.12607 24.573C7.95433 25.1962 7.95856 25.8549 8.13829 26.4759C8.31801 27.0968 8.66622 27.6559 9.14428 28.0911C9.62235 28.5263 10.2116 28.8205 10.8467 28.9412C11.4818 29.062 12.1379 29.0044 12.7423 28.775C13.3467 28.5456 13.8758 28.1533 14.2708 27.6416C14.6658 27.1299 14.9114 26.5187 14.9804 25.8759C15.0493 25.2332 14.9388 24.5838 14.6613 24H20.3388C20.115 24.4684 19.9993 24.981 20 25.5C20 26.1922 20.2053 26.8689 20.5899 27.4445C20.9744 28.0201 21.5211 28.4687 22.1606 28.7336C22.8001 28.9985 23.5039 29.0678 24.1828 28.9327C24.8617 28.7977 25.4854 28.4644 25.9749 27.9749C26.4644 27.4854 26.7977 26.8617 26.9327 26.1828C27.0678 25.5039 26.9985 24.8001 26.7336 24.1606C26.4687 23.5211 26.0201 22.9744 25.4445 22.5899C24.8689 22.2053 24.1922 22 23.5 22H11.3962C11.1621 22 10.9353 21.9177 10.7555 21.7677C10.5758 21.6176 10.4544 21.4092 10.4125 21.1787L10.0162 19H24.5163C25.2188 18.9999 25.8991 18.7532 26.4384 18.303C26.9777 17.8527 27.3419 17.2275 27.4675 16.5362L28.9875 8.17875C29.0132 8.0343 29.0069 7.88596 28.9688 7.74424C28.9308 7.60253 28.8621 7.47092 28.7675 7.35875ZM13 25.5C13 25.7967 12.912 26.0867 12.7472 26.3334C12.5824 26.58 12.3481 26.7723 12.074 26.8858C11.7999 26.9993 11.4983 27.0291 11.2074 26.9712C10.9164 26.9133 10.6491 26.7704 10.4393 26.5607C10.2296 26.3509 10.0867 26.0836 10.0288 25.7926C9.97094 25.5017 10.0006 25.2001 10.1142 24.926C10.2277 24.6519 10.42 24.4176 10.6666 24.2528C10.9133 24.088 11.2033 24 11.5 24C11.8978 24 12.2794 24.158 12.5607 24.4393C12.842 24.7206 13 25.1022 13 25.5ZM25 25.5C25 25.7967 24.912 26.0867 24.7472 26.3334C24.5824 26.58 24.3481 26.7723 24.074 26.8858C23.7999 26.9993 23.4983 27.0291 23.2074 26.9712C22.9164 26.9133 22.6491 26.7704 22.4393 26.5607C22.2296 26.3509 22.0867 26.0836 22.0288 25.7926C21.9709 25.5017 22.0007 25.2001 22.1142 24.926C22.2277 24.6519 22.42 24.4176 22.6666 24.2528C22.9133 24.088 23.2033 24 23.5 24C23.8978 24 24.2794 24.158 24.5607 24.4393C24.842 24.7206 25 25.1022 25 25.5Z" fill="white"/>
<path d="M69.1513 7.03875C69.0105 6.87014 68.8344 6.7345 68.6355 6.6414C68.4366 6.54831 68.2196 6.50004 68 6.5H48.25L47.5662 2.73125C47.5033 2.38585 47.3213 2.07345 47.0518 1.84847C46.7822 1.62349 46.4423 1.50017 46.0912 1.5H43C42.6022 1.5 42.2206 1.65804 41.9393 1.93934C41.658 2.22064 41.5 2.60218 41.5 3C41.5 3.39782 41.658 3.77936 41.9393 4.06066C42.2206 4.34196 42.6022 4.5 43 4.5H44.8387L47.9525 21.625C48.0361 22.0799 48.209 22.5136 48.4613 22.9013C48.0147 23.4238 47.7103 24.0525 47.5774 24.7269C47.4446 25.4013 47.4878 26.0986 47.7028 26.7514C47.9178 27.4042 48.2975 27.9907 48.8051 28.4541C49.3127 28.9175 49.9312 29.2423 50.6008 29.3972C51.2705 29.5521 51.9688 29.5317 52.6283 29.3382C53.2879 29.1447 53.8864 28.7844 54.3662 28.2923C54.846 27.8001 55.1909 27.1926 55.3676 26.5283C55.5443 25.8641 55.5468 25.1655 55.375 24.5H59.625C59.4165 25.3076 59.4656 26.1603 59.7656 26.9386C60.0656 27.7169 60.6014 28.382 61.2981 28.8407C61.9947 29.2995 62.8174 29.529 63.6509 29.4971C64.4844 29.4652 65.2871 29.1735 65.9467 28.6629C66.6062 28.1523 67.0897 27.4482 67.3293 26.6492C67.569 25.8503 67.5529 24.9964 67.2833 24.207C67.0136 23.4177 66.504 22.7324 65.8256 22.247C65.1473 21.7616 64.3341 21.5004 63.5 21.5H51.3962C51.2794 21.4999 51.1662 21.4588 51.0765 21.3839C50.9867 21.309 50.926 21.205 50.905 21.09L50.615 19.5H64.5125C65.3324 19.5 66.1262 19.2122 66.7555 18.6868C67.3849 18.1614 67.8098 17.4317 67.9562 16.625L69.4762 8.2675C69.5153 8.05138 69.5065 7.82932 69.4503 7.617C69.3942 7.40468 69.2921 7.20728 69.1513 7.03875ZM52.5 25.5C52.5 25.6978 52.4414 25.8911 52.3315 26.0556C52.2216 26.22 52.0654 26.3482 51.8827 26.4239C51.7 26.4996 51.4989 26.5194 51.3049 26.4808C51.1109 26.4422 50.9327 26.347 50.7929 26.2071C50.653 26.0673 50.5578 25.8891 50.5192 25.6951C50.4806 25.5011 50.5004 25.3 50.5761 25.1173C50.6518 24.9346 50.78 24.7784 50.9444 24.6685C51.1089 24.5586 51.3022 24.5 51.5 24.5C51.7652 24.5 52.0196 24.6054 52.2071 24.7929C52.3946 24.9804 52.5 25.2348 52.5 25.5ZM63.5 26.5C63.3022 26.5 63.1089 26.4414 62.9444 26.3315C62.78 26.2216 62.6518 26.0654 62.5761 25.8827C62.5004 25.7 62.4806 25.4989 62.5192 25.3049C62.5578 25.1109 62.653 24.9327 62.7929 24.7929C62.9327 24.653 63.1109 24.5578 63.3049 24.5192C63.4989 24.4806 63.7 24.5004 63.8827 24.5761C64.0654 24.6518 64.2216 24.78 64.3315 24.9444C64.4414 25.1089 64.5 25.3022 64.5 25.5C64.5 25.7652 64.3946 26.0196 64.2071 26.2071C64.0196 26.3946 63.7652 26.5 63.5 26.5ZM65 16.09C64.9791 16.2044 64.919 16.3078 64.83 16.3827C64.741 16.4575 64.6288 16.499 64.5125 16.5H50.07L48.7975 9.5H66.2025L65 16.09Z" fill="white"/>
</g>
<defs>
<clipPath id="clip0_27_1472">
<rect width="72" height="32" rx="5" fill="white"/>
</clipPath>
</defs>
</svg>
