<svg width="72" height="32" viewBox="0 0 72 32" fill="none" xmlns="http://www.w3.org/2000/svg">
<g clip-path="url(#clip0_27_3981)">
<path d="M26.9996 6.00001V11C26.9997 11.1979 26.9412 11.3914 26.8313 11.556C26.7214 11.7206 26.5652 11.8489 26.3824 11.9246C26.1995 12.0004 25.9984 12.0202 25.8043 11.9815C25.6102 11.9429 25.4319 11.8475 25.2921 11.7075L23.4996 9.91376L19.5346 13.875C19.3433 14.0388 19.0972 14.1244 18.8455 14.1147C18.5939 14.105 18.3551 14.0007 18.177 13.8226C17.9989 13.6445 17.8946 13.4057 17.8849 13.1541C17.8751 12.9024 17.9608 12.6563 18.1246 12.465L22.0858 8.50001L20.2921 6.70751C20.1521 6.56765 20.0567 6.3894 20.0181 6.19531C19.9794 6.00123 19.9992 5.80004 20.075 5.61722C20.1507 5.43439 20.279 5.27816 20.4436 5.16829C20.6082 5.05842 20.8017 4.99985 20.9996 5.00001H25.9996C26.2648 5.00001 26.5192 5.10536 26.7067 5.2929C26.8942 5.48044 26.9996 5.73479 26.9996 6.00001ZM26.3821 20.0763C26.1994 20.0005 25.9983 19.9805 25.8043 20.019C25.6103 20.0575 25.432 20.1527 25.2921 20.2925L23.4996 22.0863L6.70708 5.29251C6.51944 5.10487 6.26494 4.99945 5.99958 4.99945C5.73422 4.99945 5.47972 5.10487 5.29208 5.29251C5.10444 5.48015 4.99902 5.73464 4.99902 6.00001C4.99902 6.26537 5.10444 6.51987 5.29208 6.70751L22.0858 23.5L20.2921 25.2925C20.1521 25.4324 20.0567 25.6106 20.0181 25.8047C19.9794 25.9988 19.9992 26.2 20.075 26.3828C20.1507 26.5656 20.279 26.7219 20.4436 26.8317C20.6082 26.9416 20.8017 27.0002 20.9996 27H25.9996C26.2648 27 26.5192 26.8947 26.7067 26.7071C26.8942 26.5196 26.9996 26.2652 26.9996 26V21C26.9995 20.8022 26.9409 20.6089 26.8309 20.4445C26.721 20.28 26.5648 20.1519 26.3821 20.0763ZM12.4646 18.125L5.29208 25.2925C5.10444 25.4801 4.99902 25.7346 4.99902 26C4.99902 26.2654 5.10444 26.5199 5.29208 26.7075C5.47972 26.8951 5.73422 27.0006 5.99958 27.0006C6.26494 27.0006 6.51944 26.8951 6.70708 26.7075L13.8746 19.535C14.0384 19.3437 14.124 19.0976 14.1143 18.846C14.1046 18.5943 14.0002 18.3555 13.8221 18.1774C13.644 17.9993 13.4053 17.895 13.1536 17.8853C12.902 17.8756 12.6559 17.9612 12.4646 18.125Z" fill="white"/>
<path d="M67.4999 6.00001V11C67.4999 11.3978 67.3419 11.7794 67.0606 12.0607C66.7793 12.342 66.3978 12.5 65.9999 12.5C65.6021 12.5 65.2206 12.342 64.9393 12.0607C64.658 11.7794 64.4999 11.3978 64.4999 11V9.62501L60.5962 13.525C60.3144 13.8068 59.9322 13.9651 59.5337 13.9651C59.1352 13.9651 58.753 13.8068 58.4712 13.525C58.1894 13.2432 58.0311 12.861 58.0311 12.4625C58.0311 12.064 58.1894 11.6818 58.4712 11.4L62.3749 7.50001H60.9999C60.6021 7.50001 60.2206 7.34197 59.9393 7.06067C59.658 6.77936 59.4999 6.39783 59.4999 6.00001C59.4999 5.60218 59.658 5.22065 59.9393 4.93935C60.2206 4.65804 60.6021 4.50001 60.9999 4.50001H65.9999C66.3978 4.50001 66.7793 4.65804 67.0606 4.93935C67.3419 5.22065 67.4999 5.60218 67.4999 6.00001ZM65.9999 19.5C65.6021 19.5 65.2206 19.658 64.9393 19.9394C64.658 20.2207 64.4999 20.6022 64.4999 21V22.375L47.0612 4.93876C46.7794 4.65697 46.3972 4.49866 45.9987 4.49866C45.6002 4.49866 45.218 4.65697 44.9362 4.93876C44.6544 5.22055 44.4961 5.60274 44.4961 6.00126C44.4961 6.39977 44.6544 6.78197 44.9362 7.06376L62.3749 24.5H60.9999C60.6021 24.5 60.2206 24.658 59.9393 24.9394C59.658 25.2207 59.4999 25.6022 59.4999 26C59.4999 26.3978 59.658 26.7794 59.9393 27.0607C60.2206 27.342 60.6021 27.5 60.9999 27.5H65.9999C66.3978 27.5 66.7793 27.342 67.0606 27.0607C67.3419 26.7794 67.4999 26.3978 67.4999 26V21C67.4999 20.6022 67.3419 20.2207 67.0606 19.9394C66.7793 19.658 66.3978 19.5 65.9999 19.5ZM51.4037 18.475L44.9387 24.9388C44.6569 25.2206 44.4986 25.6027 44.4986 26.0013C44.4986 26.3998 44.6569 26.782 44.9387 27.0638C45.2205 27.3456 45.6027 27.5039 46.0012 27.5039C46.3997 27.5039 46.7819 27.3456 47.0637 27.0638L53.5274 20.5988C53.8092 20.317 53.9675 19.9348 53.9675 19.5363C53.9675 19.1377 53.8092 18.7556 53.5274 18.4738C53.2457 18.192 52.8635 18.0337 52.4649 18.0337C52.0664 18.0337 51.6842 18.192 51.4024 18.4738L51.4037 18.475Z" fill="white"/>
</g>
<defs>
<clipPath id="clip0_27_3981">
<rect width="72" height="32" rx="5" fill="white"/>
</clipPath>
</defs>
</svg>
