<svg width="72" height="32" viewBox="0 0 72 32" fill="none" xmlns="http://www.w3.org/2000/svg">
<g clip-path="url(#clip0_27_3976)">
<path d="M29.7075 22.2925C29.8005 22.3854 29.8742 22.4957 29.9246 22.6171C29.9749 22.7385 30.0008 22.8686 30.0008 23C30.0008 23.1314 29.9749 23.2615 29.9246 23.3829C29.8742 23.5043 29.8005 23.6146 29.7075 23.7075L26.7075 26.7075C26.5676 26.8475 26.3894 26.9429 26.1953 26.9815C26.0012 27.0202 25.8 27.0004 25.6172 26.9246C25.4344 26.8489 25.2782 26.7206 25.1683 26.556C25.0584 26.3914 24.9998 26.1979 25 26V24H21C20.8408 24 20.6839 23.962 20.5424 23.8892C20.4009 23.8163 20.2788 23.7108 20.1863 23.5812L10.485 9.99999H4C3.73478 9.99999 3.48043 9.89464 3.29289 9.7071C3.10536 9.51956 3 9.26521 3 8.99999C3 8.73478 3.10536 8.48042 3.29289 8.29289C3.48043 8.10535 3.73478 7.99999 4 7.99999H11C11.1592 7.99999 11.3161 8.03798 11.4576 8.11082C11.5991 8.18365 11.7212 8.28922 11.8138 8.41874L21.515 22H25V20C24.9998 19.8021 25.0584 19.6086 25.1683 19.444C25.2782 19.2794 25.4344 19.1511 25.6172 19.0754C25.8 18.9996 26.0012 18.9798 26.1953 19.0185C26.3894 19.0571 26.5676 19.1525 26.7075 19.2925L29.7075 22.2925ZM17.875 13.375C17.9819 13.4513 18.1027 13.5059 18.2307 13.5355C18.3586 13.5651 18.4911 13.5693 18.6207 13.5477C18.7502 13.5261 18.8742 13.4792 18.9856 13.4097C19.097 13.3401 19.1937 13.2494 19.27 13.1425L21.52 10.0025H25V12C24.9998 12.1979 25.0584 12.3914 25.1683 12.556C25.2782 12.7206 25.4344 12.8489 25.6172 12.9246C25.8 13.0004 26.0012 13.0202 26.1953 12.9815C26.3894 12.9429 26.5676 12.8475 26.7075 12.7075L29.7075 9.70749C29.8005 9.61462 29.8742 9.50433 29.9246 9.38293C29.9749 9.26154 30.0008 9.13141 30.0008 8.99999C30.0008 8.86858 29.9749 8.73845 29.9246 8.61705C29.8742 8.49566 29.8005 8.38537 29.7075 8.29249L26.7075 5.29249C26.5676 5.15248 26.3894 5.05712 26.1953 5.01846C26.0012 4.97981 25.8 4.99962 25.6172 5.07537C25.4344 5.15112 25.2782 5.27942 25.1683 5.44401C25.0584 5.60861 24.9998 5.8021 25 5.99999V7.99999H21C20.8408 7.99999 20.6839 8.03798 20.5424 8.11082C20.4009 8.18365 20.2788 8.28922 20.1863 8.41874L17.6437 11.9775C17.567 12.0844 17.512 12.2053 17.4821 12.3335C17.4521 12.4616 17.4478 12.5944 17.4693 12.7242C17.4908 12.8541 17.5377 12.9784 17.6073 13.0901C17.6769 13.2017 17.7679 13.2986 17.875 13.375ZM14.125 18.625C14.0181 18.5487 13.8973 18.4941 13.7693 18.4645C13.6414 18.4349 13.5089 18.4307 13.3793 18.4523C13.2498 18.4739 13.1258 18.5208 13.0144 18.5903C12.903 18.6598 12.8063 18.7506 12.73 18.8575L10.485 22H4C3.73478 22 3.48043 22.1054 3.29289 22.2929C3.10536 22.4804 3 22.7348 3 23C3 23.2652 3.10536 23.5196 3.29289 23.7071C3.48043 23.8946 3.73478 24 4 24H11C11.1592 24 11.3161 23.962 11.4576 23.8892C11.5991 23.8163 11.7212 23.7108 11.8138 23.5812L14.3562 20.0225C14.433 19.9156 14.488 19.7946 14.5179 19.6665C14.5479 19.5384 14.5522 19.4056 14.5307 19.2757C14.5092 19.1459 14.4623 19.0216 14.3927 18.9099C14.3231 18.7983 14.2321 18.7014 14.125 18.625Z" fill="white"/>
<path d="M70.0613 21.9388C70.2011 22.0781 70.312 22.2437 70.3878 22.426C70.4635 22.6084 70.5024 22.8038 70.5024 23.0013C70.5024 23.1987 70.4635 23.3942 70.3878 23.5765C70.312 23.7588 70.2011 23.9244 70.0613 24.0638L67.0613 27.0638C66.7795 27.3456 66.3973 27.5039 65.9988 27.5039C65.6002 27.5039 65.218 27.3456 64.9363 27.0638C64.6545 26.782 64.4961 26.3998 64.4961 26.0013C64.4961 25.6027 64.6545 25.2206 64.9363 24.9388L65.375 24.5H61C60.7616 24.5003 60.5266 24.4437 60.3144 24.335C60.1023 24.2263 59.9191 24.0686 59.78 23.875L50.2275 10.5H44C43.6022 10.5 43.2206 10.342 42.9393 10.0607C42.658 9.77937 42.5 9.39783 42.5 9.00001C42.5 8.60218 42.658 8.22065 42.9393 7.93935C43.2206 7.65804 43.6022 7.50001 44 7.50001H51C51.2384 7.49975 51.4734 7.55631 51.6856 7.665C51.8977 7.77369 52.0809 7.93138 52.22 8.12501L61.7725 21.5H65.375L64.935 21.0613C64.6532 20.7795 64.4949 20.3973 64.4949 19.9988C64.4949 19.6002 64.6532 19.2181 64.935 18.9363C65.2168 18.6545 65.599 18.4962 65.9975 18.4962C66.396 18.4962 66.7782 18.6545 67.06 18.9363L70.0613 21.9388ZM53.8 19.08C53.6397 18.9655 53.4584 18.8837 53.2665 18.8393C53.0746 18.7948 52.8758 18.7886 52.6815 18.821C52.4872 18.8534 52.3012 18.9237 52.1341 19.028C51.9669 19.1323 51.822 19.2685 51.7075 19.4288L50.2275 21.5H44C43.6022 21.5 43.2206 21.658 42.9393 21.9394C42.658 22.2207 42.5 22.6022 42.5 23C42.5 23.3978 42.658 23.7794 42.9393 24.0607C43.2206 24.342 43.6022 24.5 44 24.5H51C51.2384 24.5003 51.4734 24.4437 51.6856 24.335C51.8977 24.2263 52.0809 24.0686 52.22 23.875L54.1488 21.1763C54.2638 21.0158 54.3461 20.8343 54.3909 20.642C54.4356 20.4497 54.442 20.2505 54.4096 20.0557C54.3772 19.861 54.3067 19.6745 54.2021 19.5071C54.0975 19.3397 53.9608 19.1945 53.8 19.08ZM58.2 12.92C58.3603 13.0345 58.5416 13.1163 58.7335 13.1608C58.9254 13.2052 59.1242 13.2114 59.3185 13.179C59.5128 13.1466 59.6988 13.0763 59.8659 12.972C60.0331 12.8677 60.178 12.7316 60.2925 12.5713L61.7725 10.5H65.375L64.935 10.9388C64.6532 11.2206 64.4949 11.6027 64.4949 12.0013C64.4949 12.3998 64.6532 12.782 64.935 13.0638C65.2168 13.3456 65.599 13.5039 65.9975 13.5039C66.396 13.5039 66.7782 13.3456 67.06 13.0638L70.06 10.0638C70.1998 9.9244 70.3108 9.75881 70.3865 9.57649C70.4622 9.39416 70.5012 9.19868 70.5012 9.00126C70.5012 8.80384 70.4622 8.60836 70.3865 8.42603C70.3108 8.2437 70.1998 8.07811 70.06 7.93876L67.06 4.93876C66.7782 4.65697 66.396 4.49866 65.9975 4.49866C65.599 4.49866 65.2168 4.65697 64.935 4.93876C64.6532 5.22055 64.4949 5.60274 64.4949 6.00126C64.4949 6.39977 64.6532 6.78197 64.935 7.06376L65.375 7.50001H61C60.7616 7.49975 60.5266 7.55631 60.3144 7.665C60.1023 7.77369 59.9191 7.93138 59.78 8.12501L57.8512 10.825C57.7364 10.9854 57.6542 11.1669 57.6096 11.359C57.5649 11.5512 57.5586 11.7503 57.591 11.9449C57.6234 12.1395 57.6939 12.3258 57.7984 12.4931C57.9029 12.6604 58.0394 12.8055 58.2 12.92Z" fill="white"/>
</g>
<defs>
<clipPath id="clip0_27_3976">
<rect width="72" height="32" rx="5" fill="white"/>
</clipPath>
</defs>
</svg>
