<svg width="72" height="32" viewBox="0 0 72 32" fill="none" xmlns="http://www.w3.org/2000/svg">
<g clip-path="url(#clip0_27_1993)">
<path d="M25 3H7C6.46957 3 5.96086 3.21071 5.58579 3.58579C5.21071 3.96086 5 4.46957 5 5V27C5 27.5304 5.21071 28.0391 5.58579 28.4142C5.96086 28.7893 6.46957 29 7 29H25C25.5304 29 26.0391 28.7893 26.4142 28.4142C26.7893 28.0391 27 27.5304 27 27V5C27 4.46957 26.7893 3.96086 26.4142 3.58579C26.0391 3.21071 25.5304 3 25 3ZM23 11C23 11.2652 22.8946 11.5196 22.7071 11.7071C22.5196 11.8946 22.2652 12 22 12C21.7348 12 21.4804 11.8946 21.2929 11.7071C21.1054 11.5196 21 11.2652 21 11V9H12L16.8 15.4C16.9298 15.5731 17 15.7836 17 16C17 16.2164 16.9298 16.4269 16.8 16.6L12 23H21V21C21 20.7348 21.1054 20.4804 21.2929 20.2929C21.4804 20.1054 21.7348 20 22 20C22.2652 20 22.5196 20.1054 22.7071 20.2929C22.8946 20.4804 23 20.7348 23 21V24C23 24.2652 22.8946 24.5196 22.7071 24.7071C22.5196 24.8946 22.2652 25 22 25H10C9.81429 25 9.63225 24.9483 9.47427 24.8507C9.31629 24.753 9.18863 24.6133 9.10557 24.4472C9.02252 24.2811 8.98736 24.0952 9.00404 23.9102C9.02072 23.7252 9.08857 23.5486 9.2 23.4L14.75 16L9.2 8.6C9.08857 8.45143 9.02072 8.27477 9.00404 8.08981C8.98736 7.90484 9.02252 7.71889 9.10557 7.55279C9.18863 7.38668 9.31629 7.24698 9.47427 7.14935C9.63225 7.05171 9.81429 7 10 7H22C22.2652 7 22.5196 7.10536 22.7071 7.29289C22.8946 7.48043 23 7.73478 23 8V11Z" fill="white"/>
<path d="M62.4998 9V7.5H51.1248L57.1748 15.0625C57.3878 15.3285 57.5039 15.6592 57.5039 16C57.5039 16.3408 57.3878 16.6715 57.1748 16.9375L51.1248 24.5H62.4998V23C62.4998 22.6022 62.6579 22.2206 62.9392 21.9393C63.2205 21.658 63.602 21.5 63.9998 21.5C64.3976 21.5 64.7792 21.658 65.0605 21.9393C65.3418 22.2206 65.4998 22.6022 65.4998 23V26C65.4998 26.3978 65.3418 26.7794 65.0605 27.0607C64.7792 27.342 64.3976 27.5 63.9998 27.5H47.9998C47.7172 27.5001 47.4403 27.4203 47.201 27.2698C46.9618 27.1194 46.7699 26.9044 46.6475 26.6497C46.5251 26.3949 46.4771 26.1108 46.5092 25.83C46.5412 25.5492 46.6519 25.2831 46.8286 25.0625L54.0786 16L46.8286 6.9375C46.6519 6.71688 46.5412 6.45083 46.5092 6.17003C46.4771 5.88923 46.5251 5.60508 46.6475 5.35034C46.7699 5.0956 46.9618 4.88062 47.201 4.73017C47.4403 4.57973 47.7172 4.49994 47.9998 4.5H63.9998C64.3976 4.5 64.7792 4.65804 65.0605 4.93934C65.3418 5.22064 65.4998 5.60218 65.4998 6V9C65.4998 9.39782 65.3418 9.77936 65.0605 10.0607C64.7792 10.342 64.3976 10.5 63.9998 10.5C63.602 10.5 63.2205 10.342 62.9392 10.0607C62.6579 9.77936 62.4998 9.39782 62.4998 9Z" fill="white"/>
</g>
<defs>
<clipPath id="clip0_27_1993">
<rect width="72" height="32" rx="5" fill="white"/>
</clipPath>
</defs>
</svg>
