<svg width="72" height="32" viewBox="0 0 72 32" fill="none" xmlns="http://www.w3.org/2000/svg">
<g clip-path="url(#clip0_27_3031)">
<path d="M15 27C15 27.2652 14.8946 27.5196 14.7071 27.7071C14.5196 27.8946 14.2652 28 14 28H6C5.73478 28 5.48043 27.8946 5.29289 27.7071C5.10536 27.5196 5 27.2652 5 27V5C5 4.73478 5.10536 4.48043 5.29289 4.29289C5.48043 4.10536 5.73478 4 6 4H14C14.2652 4 14.5196 4.10536 14.7071 4.29289C14.8946 4.48043 15 4.73478 15 5C15 5.26522 14.8946 5.51957 14.7071 5.70711C14.5196 5.89464 14.2652 6 14 6H7V26H14C14.2652 26 14.5196 26.1054 14.7071 26.2929C14.8946 26.4804 15 26.7348 15 27ZM28.7075 15.2925L23.7075 10.2925C23.5676 10.1525 23.3894 10.0571 23.1953 10.0185C23.0012 9.97982 22.8 9.99963 22.6172 10.0754C22.4344 10.1511 22.2782 10.2794 22.1683 10.444C22.0584 10.6086 21.9998 10.8021 22 11V15H14C13.7348 15 13.4804 15.1054 13.2929 15.2929C13.1054 15.4804 13 15.7348 13 16C13 16.2652 13.1054 16.5196 13.2929 16.7071C13.4804 16.8946 13.7348 17 14 17H22V21C21.9998 21.1979 22.0584 21.3914 22.1683 21.556C22.2782 21.7206 22.4344 21.8489 22.6172 21.9246C22.8 22.0004 23.0012 22.0202 23.1953 21.9815C23.3894 21.9429 23.5676 21.8475 23.7075 21.7075L28.7075 16.7075C28.8005 16.6146 28.8742 16.5043 28.9246 16.3829C28.9749 16.2615 29.0008 16.1314 29.0008 16C29.0008 15.8686 28.9749 15.7385 28.9246 15.6171C28.8742 15.4957 28.8005 15.3854 28.7075 15.2925Z" fill="white"/>
<path d="M55.5 27C55.5 27.3978 55.342 27.7794 55.0607 28.0607C54.7794 28.342 54.3978 28.5 54 28.5H46C45.6022 28.5 45.2206 28.342 44.9393 28.0607C44.658 27.7794 44.5 27.3978 44.5 27V5C44.5 4.60218 44.658 4.22064 44.9393 3.93934C45.2206 3.65804 45.6022 3.5 46 3.5H54C54.3978 3.5 54.7794 3.65804 55.0607 3.93934C55.342 4.22064 55.5 4.60218 55.5 5C55.5 5.39782 55.342 5.77936 55.0607 6.06066C54.7794 6.34196 54.3978 6.5 54 6.5H47.5V25.5H54C54.3978 25.5 54.7794 25.658 55.0607 25.9393C55.342 26.2206 55.5 26.6022 55.5 27ZM69.0613 14.9388L64.0613 9.93875C63.7795 9.65696 63.3973 9.49865 62.9988 9.49865C62.6002 9.49865 62.218 9.65696 61.9363 9.93875C61.6545 10.2205 61.4961 10.6027 61.4961 11.0013C61.4961 11.3998 61.6545 11.782 61.9363 12.0638L64.375 14.5H54C53.6022 14.5 53.2206 14.658 52.9393 14.9393C52.658 15.2206 52.5 15.6022 52.5 16C52.5 16.3978 52.658 16.7794 52.9393 17.0607C53.2206 17.342 53.6022 17.5 54 17.5H64.375L61.935 19.9387C61.6532 20.2205 61.4949 20.6027 61.4949 21.0012C61.4949 21.3998 61.6532 21.782 61.935 22.0637C62.2168 22.3455 62.599 22.5039 62.9975 22.5039C63.396 22.5039 63.7782 22.3455 64.06 22.0637L69.06 17.0637C69.1999 16.9245 69.311 16.759 69.3868 16.5767C69.4626 16.3944 69.5017 16.1989 69.5018 16.0015C69.5019 15.8041 69.4631 15.6086 69.3875 15.4262C69.3119 15.2438 69.201 15.0782 69.0613 14.9388Z" fill="white"/>
</g>
<defs>
<clipPath id="clip0_27_3031">
<rect width="72" height="32" rx="5" fill="white"/>
</clipPath>
</defs>
</svg>
