<svg width="72" height="32" viewBox="0 0 72 32" fill="none" xmlns="http://www.w3.org/2000/svg">
<g clip-path="url(#clip0_27_720)">
<path d="M10.0375 15.0325C9.87214 14.0701 9.90189 13.0844 10.125 12.1337C10.415 10.875 10.9862 10 11.5125 10C11.8337 10 11.88 10.0837 11.9025 10.125C12.0125 10.3263 12.4025 11.4912 10.3237 15.94C10.1887 15.6515 10.0924 15.3463 10.0375 15.0325ZM29 7V25C29 25.5304 28.7893 26.0391 28.4142 26.4142C28.0391 26.7893 27.5304 27 27 27H5C4.46957 27 3.96086 26.7893 3.58579 26.4142C3.21071 26.0391 3 25.5304 3 25V7C3 6.46957 3.21071 5.96086 3.58579 5.58579C3.96086 5.21071 4.46957 5 5 5H27C27.5304 5 28.0391 5.21071 28.4142 5.58579C28.7893 5.96086 29 6.46957 29 7ZM10.5 20C10.75 19.5513 10.9925 19.085 11.2375 18.6075C12.53 18.5675 14.0138 17.6613 15.6713 15.8975C16.2963 17.1088 17.0938 17.8037 18.03 17.9662C19.03 18.1387 20.03 17.6687 21.0225 16.5662C21.7725 17.2575 23.0413 18 24.9975 18C25.2627 18 25.5171 17.8946 25.7046 17.7071C25.8921 17.5196 25.9975 17.2652 25.9975 17C25.9975 16.7348 25.8921 16.4804 25.7046 16.2929C25.5171 16.1054 25.2627 16 24.9975 16C22.7587 16 21.96 14.64 21.8925 14.5175C21.8189 14.3592 21.7043 14.2234 21.5606 14.1242C21.4168 14.0251 21.2492 13.9663 21.075 13.9537C20.8976 13.9414 20.7201 13.9766 20.5608 14.0557C20.4015 14.1348 20.2661 14.2549 20.1688 14.4038C19.3213 15.6538 18.685 16.0487 18.37 15.995C17.87 15.9087 17.2262 14.745 16.9662 13.745C16.92 13.565 16.8244 13.4014 16.6904 13.2727C16.5563 13.1439 16.389 13.0551 16.2073 13.0161C16.0255 12.9772 15.8365 12.9897 15.6614 13.0522C15.4864 13.1147 15.3322 13.2247 15.2163 13.37C14.1063 14.7375 13.1788 15.5937 12.45 16.0775C14.425 11.6212 14.1087 10.0037 13.65 9.165C13.4187 8.73 12.8237 8 11.5125 8C9.9575 8 8.71 9.375 8.17625 11.6825C7.89259 12.9051 7.85731 14.1722 8.0725 15.4087C8.285 16.5212 8.71875 17.375 9.3425 17.9237C8.9675 18.65 8.58125 19.3525 8.2175 20H7C6.73478 20 6.48043 20.1054 6.29289 20.2929C6.10536 20.4804 6 20.7348 6 21C6 21.2652 6.10536 21.5196 6.29289 21.7071C6.48043 21.8946 6.73478 22 7 22H7.055C6.5225 22.89 6.16625 23.4487 6.1575 23.4613C6.01461 23.6847 5.96634 23.9557 6.02331 24.2148C6.08027 24.4738 6.2378 24.6996 6.46125 24.8425C6.68469 24.9854 6.95575 25.0337 7.21478 24.9767C7.47382 24.9197 7.69962 24.7622 7.8425 24.5387C7.8875 24.47 8.52625 23.4675 9.37875 22H25C25.2652 22 25.5196 21.8946 25.7071 21.7071C25.8946 21.5196 26 21.2652 26 21C26 20.7348 25.8946 20.4804 25.7071 20.2929C25.5196 20.1054 25.2652 20 25 20H10.5Z" fill="white"/>
<path d="M69 20.5H48.7975C49.0725 19.9475 49.3487 19.3825 49.6212 18.81L49.72 18.6025C51.41 18.3963 53.3062 17.19 55.3925 14.9937C56.0562 16.4937 57.1425 18.085 58.8412 18.405C59.4987 18.53 60.53 18.5037 61.7075 17.6775C62.1157 17.3877 62.4927 17.0564 62.8325 16.6887C63.8625 17.65 65.71 18.5 69 18.5C69.3978 18.5 69.7793 18.342 70.0606 18.0607C70.3419 17.7794 70.5 17.3978 70.5 17C70.5 16.6022 70.3419 16.2206 70.0606 15.9393C69.7793 15.658 69.3978 15.5 69 15.5C65.125 15.5 64.5725 14.1888 64.5 13.9525C64.5612 13.2812 64.1562 12.7325 63.515 12.4987C62.8737 12.265 62.1187 12.5962 61.7375 13.1812C60.4875 15.0962 59.66 15.5088 59.3937 15.4575C58.7837 15.3438 57.845 13.515 57.4637 11.6962C57.405 11.4178 57.2683 11.1618 57.0696 10.9581C56.8709 10.7544 56.6183 10.6114 56.3414 10.5459C56.0644 10.4803 55.7746 10.4949 55.5056 10.588C55.2367 10.681 54.9997 10.8486 54.8225 11.0712C53.535 12.6862 52.4275 13.795 51.5137 14.5162C54.1625 7.89875 53.6387 5.48875 52.935 4.235C52.31 3.11375 51.1762 2.5 49.75 2.5C47.49 2.5 45.67 4.56875 44.875 8.0325C44.4437 9.92 44.375 12.0087 44.6925 13.7638C45.0237 15.6025 45.7375 16.9762 46.7775 17.7925C46.3362 18.7225 45.875 19.6325 45.4337 20.5H43C42.6021 20.5 42.2206 20.658 41.9393 20.9393C41.658 21.2206 41.5 21.6022 41.5 22C41.5 22.3978 41.658 22.7794 41.9393 23.0607C42.2206 23.342 42.6021 23.5 43 23.5H43.8375C42.625 25.7087 41.7312 27.2 41.7125 27.2262C41.6094 27.395 41.5407 27.5825 41.5104 27.778C41.4801 27.9734 41.4887 28.1729 41.5358 28.365C41.5829 28.557 41.6674 28.7379 41.7847 28.8972C41.9019 29.0564 42.0495 29.191 42.2189 29.293C42.3883 29.395 42.5763 29.4625 42.7719 29.4916C42.9675 29.5207 43.1669 29.5109 43.3587 29.4626C43.5505 29.4143 43.7308 29.3286 43.8894 29.2104C44.0479 29.0922 44.1815 28.9438 44.2825 28.7738C44.3637 28.6438 45.6537 26.5 47.25 23.5H69C69.3978 23.5 69.7793 23.342 70.0606 23.0607C70.3419 22.7794 70.5 22.3978 70.5 22C70.5 21.6022 70.3419 21.2206 70.0606 20.9393C69.7793 20.658 69.3978 20.5 69 20.5ZM47.8037 8.7C48.2212 6.875 49.0562 5.5 49.75 5.5C50.2137 5.5 50.2862 5.625 50.33 5.705C50.5087 6.02125 51.1487 7.83875 48.15 14.8025C47.9065 14.3068 47.738 13.7777 47.65 13.2325C47.4037 11.8612 47.46 10.2087 47.8037 8.7Z" fill="white"/>
</g>
<defs>
<clipPath id="clip0_27_720">
<rect width="72" height="32" rx="5" fill="white"/>
</clipPath>
</defs>
</svg>
