<svg width="72" height="32" viewBox="0 0 72 32" fill="none" xmlns="http://www.w3.org/2000/svg">
<g clip-path="url(#clip0_27_3036)">
<path d="M26.7075 10.2925L19.7075 3.2925C19.6146 3.19967 19.5042 3.12605 19.3829 3.07586C19.2615 3.02568 19.1314 2.9999 19 3H7C6.46957 3 5.96086 3.21071 5.58579 3.58579C5.21071 3.96086 5 4.46957 5 5V27C5 27.5304 5.21071 28.0391 5.58579 28.4142C5.96086 28.7893 6.46957 29 7 29H25C25.5304 29 26.0391 28.7893 26.4142 28.4142C26.7893 28.0391 27 27.5304 27 27V11C27.0001 10.8686 26.9743 10.7385 26.9241 10.6172C26.8739 10.4958 26.8003 10.3854 26.7075 10.2925ZM23 24C23 24.2652 22.8946 24.5196 22.7071 24.7071C22.5196 24.8946 22.2652 25 22 25H20C19.8674 25 19.7402 24.9473 19.6464 24.8536C19.5527 24.7598 19.5 24.6326 19.5 24.5V20.0338C19.5035 19.7757 19.4091 19.5259 19.2359 19.3345C19.0626 19.1432 18.8234 19.0246 18.5662 19.0025C18.4295 18.9934 18.2923 19.0126 18.1632 19.0587C18.0341 19.1049 17.9159 19.1771 17.8159 19.2709C17.7159 19.3647 17.6363 19.478 17.5819 19.6039C17.5276 19.7297 17.4997 19.8654 17.5 20.0025V24.5025C17.5 24.6351 17.4473 24.7623 17.3536 24.8561C17.2598 24.9498 17.1326 25.0025 17 25.0025H15C14.8674 25.0025 14.7402 24.9498 14.6464 24.8561C14.5527 24.7623 14.5 24.6351 14.5 24.5025V20.0338C14.5035 19.7757 14.4091 19.5259 14.2359 19.3345C14.0626 19.1432 13.8234 19.0246 13.5662 19.0025C13.4295 18.9934 13.2923 19.0126 13.1632 19.0587C13.0341 19.1049 12.9159 19.1771 12.8159 19.2709C12.7159 19.3647 12.6363 19.478 12.5819 19.6039C12.5276 19.7297 12.4997 19.8654 12.5 20.0025V24.5025C12.5 24.6351 12.4473 24.7623 12.3536 24.8561C12.2598 24.9498 12.1326 25.0025 12 25.0025H10C9.73478 25.0025 9.48043 24.8971 9.29289 24.7096C9.10536 24.5221 9 24.2677 9 24.0025V17C9 16.7348 9.10536 16.4804 9.29289 16.2929C9.48043 16.1054 9.73478 16 10 16H22C22.2652 16 22.5196 16.1054 22.7071 16.2929C22.8946 16.4804 23 16.7348 23 17V24Z" fill="white"/>
<path d="M67.0613 9.93875L60.0613 2.93875C59.9218 2.7995 59.7564 2.68908 59.5743 2.6138C59.3922 2.53851 59.197 2.49985 59 2.5H47C46.337 2.5 45.7011 2.76339 45.2322 3.23223C44.7634 3.70107 44.5 4.33696 44.5 5V27C44.5 27.663 44.7634 28.2989 45.2322 28.7678C45.7011 29.2366 46.337 29.5 47 29.5H65C65.663 29.5 66.2989 29.2366 66.7678 28.7678C67.2366 28.2989 67.5 27.663 67.5 27V11C67.5002 10.803 67.4615 10.6078 67.3862 10.4257C67.3109 10.2436 67.2005 10.0782 67.0613 9.93875ZM64.5 26.5H47.5V5.5H58.375L64.5 11.625V26.5ZM51 14C50.6022 14 50.2206 14.158 49.9393 14.4393C49.658 14.7206 49.5 15.1022 49.5 15.5V23C49.5 23.3978 49.658 23.7794 49.9393 24.0607C50.2206 24.342 50.6022 24.5 51 24.5H61C61.3978 24.5 61.7794 24.342 62.0607 24.0607C62.342 23.7794 62.5 23.3978 62.5 23V15.5C62.5 15.1022 62.342 14.7206 62.0607 14.4393C61.7794 14.158 61.3978 14 61 14H51ZM52.5 17H54.5V21.5H52.5V17ZM59.5 21.5H57.5V17H59.5V21.5Z" fill="white"/>
</g>
<defs>
<clipPath id="clip0_27_3036">
<rect width="72" height="32" rx="5" fill="white"/>
</clipPath>
</defs>
</svg>
