<svg width="72" height="32" viewBox="0 0 72 32" fill="none" xmlns="http://www.w3.org/2000/svg">
<g clip-path="url(#clip0_27_4514)">
<path d="M15 2V1C15 0.734784 15.1054 0.48043 15.2929 0.292893C15.4804 0.105357 15.7348 0 16 0C16.2652 0 16.5196 0.105357 16.7071 0.292893C16.8946 0.48043 17 0.734784 17 1V2C17 2.26522 16.8946 2.51957 16.7071 2.70711C16.5196 2.89464 16.2652 3 16 3C15.7348 3 15.4804 2.89464 15.2929 2.70711C15.1054 2.51957 15 2.26522 15 2ZM25 6C25.1314 6.0001 25.2615 5.97432 25.3829 5.92414C25.5042 5.87395 25.6146 5.80033 25.7075 5.7075L26.7075 4.7075C26.8951 4.51986 27.0006 4.26536 27.0006 4C27.0006 3.73464 26.8951 3.48014 26.7075 3.2925C26.5199 3.10486 26.2654 2.99944 26 2.99944C25.7346 2.99944 25.4801 3.10486 25.2925 3.2925L24.2925 4.2925C24.1525 4.43236 24.0571 4.61061 24.0185 4.80469C23.9798 4.99878 23.9996 5.19997 24.0754 5.38279C24.1511 5.56561 24.2794 5.72185 24.444 5.83172C24.6086 5.94159 24.8021 6.00016 25 6ZM6.2925 5.7075C6.38541 5.80041 6.49571 5.87411 6.6171 5.92439C6.7385 5.97468 6.86861 6.00056 7 6.00056C7.13139 6.00056 7.2615 5.97468 7.3829 5.92439C7.50429 5.87411 7.61459 5.80041 7.7075 5.7075C7.80041 5.61459 7.87411 5.50429 7.92439 5.3829C7.97468 5.2615 8.00056 5.13139 8.00056 5C8.00056 4.86861 7.97468 4.7385 7.92439 4.6171C7.87411 4.49571 7.80041 4.38541 7.7075 4.2925L6.7075 3.2925C6.51986 3.10486 6.26536 2.99944 6 2.99944C5.73464 2.99944 5.48014 3.10486 5.2925 3.2925C5.10486 3.48014 4.99944 3.73464 4.99944 4C4.99944 4.26536 5.10486 4.51986 5.2925 4.7075L6.2925 5.7075ZM29 22V25C29 25.5304 28.7893 26.0391 28.4142 26.4142C28.0391 26.7893 27.5304 27 27 27H5C4.46957 27 3.96086 26.7893 3.58579 26.4142C3.21071 26.0391 3 25.5304 3 25V22C3 21.4696 3.21071 20.9609 3.58579 20.5858C3.96086 20.2107 4.46957 20 5 20V16C4.99996 14.5484 5.28723 13.1111 5.84526 11.771C6.4033 10.431 7.22105 9.21461 8.25138 8.19207C9.28171 7.16952 10.5042 6.36102 11.8485 5.81316C13.1928 5.26531 14.6322 4.98895 16.0837 5C22.1025 5.045 27 10.0363 27 16.125V20C27.5304 20 28.0391 20.2107 28.4142 20.5858C28.7893 20.9609 29 21.4696 29 22ZM16.835 10.9862C19.2087 11.385 21 13.54 21 16C21 16.2652 21.1054 16.5196 21.2929 16.7071C21.4804 16.8946 21.7348 17 22 17C22.2652 17 22.5196 16.8946 22.7071 16.7071C22.8946 16.5196 23 16.2652 23 16C23 12.575 20.4913 9.57125 17.165 9.01375C17.0349 8.99075 16.9016 8.99374 16.7726 9.02257C16.6437 9.05139 16.5218 9.10548 16.4139 9.1817C16.306 9.25791 16.2143 9.35475 16.144 9.46662C16.0738 9.57849 16.0264 9.70317 16.0046 9.83346C15.9828 9.96375 15.987 10.0971 16.017 10.2257C16.047 10.3544 16.1023 10.4758 16.1795 10.583C16.2567 10.6902 16.3544 10.781 16.4669 10.8502C16.5794 10.9194 16.7045 10.9657 16.835 10.9862ZM27 25V22H5V25H27Z" fill="white"/>
<path d="M54.5 2.5V1.5C54.5 1.10218 54.658 0.720644 54.9393 0.43934C55.2206 0.158035 55.6022 0 56 0C56.3978 0 56.7794 0.158035 57.0607 0.43934C57.342 0.720644 57.5 1.10218 57.5 1.5V2.5C57.5 2.89782 57.342 3.27936 57.0607 3.56066C56.7794 3.84196 56.3978 4 56 4C55.6022 4 55.2206 3.84196 54.9393 3.56066C54.658 3.27936 54.5 2.89782 54.5 2.5ZM65 7C65.197 7.00015 65.3922 6.96149 65.5743 6.8862C65.7564 6.81092 65.9218 6.7005 66.0613 6.56125L67.0613 5.56125C67.2008 5.42172 67.3115 5.25607 67.387 5.07377C67.4625 4.89147 67.5014 4.69607 67.5014 4.49875C67.5014 4.30143 67.4625 4.10603 67.387 3.92373C67.3115 3.74143 67.2008 3.57578 67.0613 3.43625C66.9217 3.29672 66.7561 3.18604 66.5738 3.11053C66.3915 3.03501 66.1961 2.99615 65.9988 2.99615C65.8014 2.99615 65.606 3.03501 65.4237 3.11053C65.2414 3.18604 65.0758 3.29672 64.9363 3.43625L63.9363 4.43625C63.7252 4.64605 63.5814 4.91388 63.523 5.20567C63.4646 5.49745 63.4943 5.80002 63.6083 6.07487C63.7224 6.34973 63.9156 6.58445 64.1634 6.74919C64.4112 6.91392 64.7024 7.00123 65 7ZM45.9387 6.56125C46.2205 6.84304 46.6027 7.00135 47.0012 7.00135C47.3998 7.00135 47.782 6.84304 48.0638 6.56125C48.3455 6.27946 48.5039 5.89726 48.5039 5.49875C48.5039 5.10024 48.3455 4.71804 48.0638 4.43625L47.0637 3.43625C46.782 3.15446 46.3998 2.99615 46.0012 2.99615C45.6027 2.99615 45.2205 3.15446 44.9387 3.43625C44.657 3.71804 44.4986 4.10024 44.4986 4.49875C44.4986 4.89726 44.657 5.27946 44.9387 5.56125L45.9387 6.56125ZM69.5 22V25C69.5 25.663 69.2366 26.2989 68.7678 26.7678C68.2989 27.2366 67.663 27.5 67 27.5H45C44.337 27.5 43.7011 27.2366 43.2322 26.7678C42.7634 26.2989 42.5 25.663 42.5 25V22C42.4999 21.4237 42.6989 20.865 43.0633 20.4185C43.4278 19.9721 43.9353 19.6653 44.5 19.55V17.5C44.5 14.45 45.7116 11.5249 47.8683 9.36827C50.0249 7.2116 52.95 6 56 6H56.0888C62.375 6.0475 67.5 11.2625 67.5 17.625V19.55C68.0647 19.6653 68.5722 19.9721 68.9367 20.4185C69.3011 20.865 69.5001 21.4237 69.5 22ZM47.5 17.5V19.5H64.5V17.625C64.5 12.9037 60.7163 9.035 56.065 9H56C53.7457 9 51.5837 9.89553 49.9896 11.4896C48.3955 13.0837 47.5 15.2457 47.5 17.5ZM66.5 22.5H45.5V24.5H66.5V22.5ZM57.05 14.16C57.5879 14.329 58.0771 14.6255 58.4758 15.0242C58.8745 15.4229 59.171 15.9121 59.34 16.45C59.4593 16.8296 59.7246 17.1462 60.0774 17.3302C60.4302 17.5143 60.8417 17.5506 61.2213 17.4312C61.6008 17.3119 61.9175 17.0466 62.1015 16.6938C62.2855 16.341 62.3218 15.9296 62.2025 15.55C61.8885 14.5518 61.3382 13.6442 60.5982 12.9043C59.8583 12.1643 58.9507 11.614 57.9525 11.3C57.5729 11.1807 57.1615 11.217 56.8087 11.401C56.4558 11.585 56.1906 11.9017 56.0713 12.2812C55.9519 12.6608 55.9882 13.0723 56.1723 13.4251C56.3563 13.7779 56.6729 14.0432 57.0525 14.1625L57.05 14.16Z" fill="white"/>
</g>
<defs>
<clipPath id="clip0_27_4514">
<rect width="72" height="32" rx="5" fill="white"/>
</clipPath>
</defs>
</svg>
