<svg width="72" height="32" viewBox="0 0 72 32" fill="none" xmlns="http://www.w3.org/2000/svg">
<g clip-path="url(#clip0_27_3996)">
<path d="M26 5V27C26 27.2652 25.8946 27.5196 25.7071 27.7071C25.5196 27.8946 25.2652 28 25 28C24.7348 28 24.4804 27.8946 24.2929 27.7071C24.1054 27.5196 24 27.2652 24 27V18.3463L9.05375 27.6938C8.75275 27.8827 8.40672 27.9878 8.05147 27.9981C7.69623 28.0084 7.34469 27.9235 7.03326 27.7523C6.72182 27.5811 6.46181 27.3298 6.28014 27.0243C6.09848 26.7188 6.00176 26.3704 6 26.015V5.985C6.00176 5.62961 6.09848 5.28115 6.28014 4.9757C6.46181 4.67025 6.72182 4.41891 7.03326 4.2477C7.34469 4.0765 7.69623 3.99165 8.05147 4.00194C8.40672 4.01224 8.75275 4.1173 9.05375 4.30625L24 13.6538V5C24 4.73478 24.1054 4.48043 24.2929 4.29289C24.4804 4.10536 24.7348 4 25 4C25.2652 4 25.5196 4.10536 25.7071 4.29289C25.8946 4.48043 26 4.73478 26 5Z" fill="white"/>
<path d="M65 3.50001C64.6022 3.50001 64.2206 3.65804 63.9393 3.93935C63.658 4.22065 63.5 4.60218 63.5 5.00001V12.75L49.3188 3.87501C48.9412 3.64054 48.5079 3.51099 48.0636 3.49968C47.6192 3.48837 47.1799 3.59573 46.7909 3.81068C46.4019 4.02563 46.0772 4.34042 45.8503 4.7226C45.6234 5.10478 45.5025 5.54055 45.5 5.98501V26.015C45.5025 26.4595 45.6234 26.8952 45.8503 27.2774C46.0772 27.6596 46.4019 27.9744 46.7909 28.1893C47.1799 28.4043 47.6192 28.5116 48.0636 28.5003C48.5079 28.489 48.9412 28.3595 49.3188 28.125L63.5 19.25V27C63.5 27.3978 63.658 27.7794 63.9393 28.0607C64.2206 28.342 64.6022 28.5 65 28.5C65.3978 28.5 65.7794 28.342 66.0607 28.0607C66.342 27.7794 66.5 27.3978 66.5 27V5.00001C66.5 4.60218 66.342 4.22065 66.0607 3.93935C65.7794 3.65804 65.3978 3.50001 65 3.50001ZM48.5 25.0913V6.90876L63.0375 16L48.5 25.0913Z" fill="white"/>
</g>
<defs>
<clipPath id="clip0_27_3996">
<rect width="72" height="32" rx="5" fill="white"/>
</clipPath>
</defs>
</svg>
