<svg width="72" height="32" viewBox="0 0 72 32" fill="none" xmlns="http://www.w3.org/2000/svg">
<g clip-path="url(#clip0_27_3991)">
<path d="M16 3C13.4288 3 10.9154 3.76244 8.77759 5.1909C6.63975 6.61935 4.97351 8.64968 3.98957 11.0251C3.00563 13.4006 2.74819 16.0144 3.2498 18.5362C3.75141 21.0579 4.98953 23.3743 6.80762 25.1924C8.6257 27.0105 10.9421 28.2486 13.4638 28.7502C15.9856 29.2518 18.5995 28.9944 20.9749 28.0104C23.3503 27.0265 25.3807 25.3603 26.8091 23.2224C28.2376 21.0846 29 18.5712 29 16C28.9964 12.5533 27.6256 9.24882 25.1884 6.81163C22.7512 4.37445 19.4467 3.00364 16 3ZM21 21C21 21.1837 20.9494 21.3639 20.8537 21.5208C20.758 21.6776 20.621 21.8051 20.4576 21.8892C20.2942 21.9733 20.1108 22.0107 19.9276 21.9974C19.7443 21.9841 19.5683 21.9205 19.4188 21.8137L13 17.2288V21C13 21.2652 12.8946 21.5196 12.7071 21.7071C12.5196 21.8946 12.2652 22 12 22C11.7348 22 11.4804 21.8946 11.2929 21.7071C11.1054 21.5196 11 21.2652 11 21V11C11 10.7348 11.1054 10.4804 11.2929 10.2929C11.4804 10.1054 11.7348 10 12 10C12.2652 10 12.5196 10.1054 12.7071 10.2929C12.8946 10.4804 13 10.7348 13 11V14.7712L19.4188 10.1862C19.5683 10.0795 19.7443 10.0159 19.9276 10.0026C20.1108 9.98929 20.2942 10.0267 20.4576 10.1108C20.621 10.1949 20.758 10.3224 20.8537 10.4792C20.9494 10.6361 21 10.8163 21 11V21Z" fill="white"/>
<path d="M56 2.5C53.33 2.5 50.7199 3.29176 48.4998 4.77516C46.2797 6.25856 44.5494 8.36697 43.5276 10.8338C42.5058 13.3006 42.2385 16.015 42.7594 18.6337C43.2803 21.2525 44.5661 23.6579 46.4541 25.5459C48.3421 27.434 50.7475 28.7197 53.3663 29.2406C55.985 29.7615 58.6994 29.4942 61.1662 28.4724C63.633 27.4506 65.7414 25.7203 67.2248 23.5002C68.7082 21.2801 69.5 18.67 69.5 16C69.496 12.4208 68.0724 8.98932 65.5416 6.45844C63.0107 3.92756 59.5792 2.50397 56 2.5ZM56 26.5C53.9233 26.5 51.8932 25.8842 50.1665 24.7304C48.4398 23.5767 47.094 21.9368 46.2993 20.0182C45.5046 18.0996 45.2966 15.9884 45.7018 13.9516C46.1069 11.9148 47.1069 10.0438 48.5754 8.57538C50.0438 7.10693 51.9148 6.1069 53.9516 5.70175C55.9884 5.29661 58.0996 5.50454 60.0182 6.29926C61.9368 7.09399 63.5767 8.4398 64.7304 10.1665C65.8842 11.8932 66.5 13.9233 66.5 16C66.497 18.7839 65.3898 21.4528 63.4213 23.4213C61.4529 25.3898 58.7839 26.497 56 26.5ZM60.7275 9.6875C60.4933 9.55764 60.2285 9.49286 59.9608 9.49989C59.6931 9.50693 59.4321 9.58552 59.205 9.7275L53.5 13.2937V11C53.5 10.6022 53.342 10.2206 53.0607 9.93934C52.7794 9.65804 52.3978 9.5 52 9.5C51.6022 9.5 51.2206 9.65804 50.9393 9.93934C50.658 10.2206 50.5 10.6022 50.5 11V21C50.5 21.3978 50.658 21.7794 50.9393 22.0607C51.2206 22.342 51.6022 22.5 52 22.5C52.3978 22.5 52.7794 22.342 53.0607 22.0607C53.342 21.7794 53.5 21.3978 53.5 21V18.7062L59.205 22.2725C59.4321 22.4144 59.6931 22.493 59.9608 22.5C60.2285 22.507 60.4932 22.4422 60.7274 22.3123C60.9616 22.1825 61.1568 21.9923 61.2926 21.7615C61.4285 21.5307 61.5001 21.2678 61.5 21V11C61.5001 10.7322 61.4286 10.4692 61.2927 10.2384C61.1569 10.0076 60.9617 9.81739 60.7275 9.6875ZM58.5 18.2938L54.83 16L58.5 13.7063V18.2938Z" fill="white"/>
</g>
<defs>
<clipPath id="clip0_27_3991">
<rect width="72" height="32" rx="5" fill="white"/>
</clipPath>
</defs>
</svg>
