<svg width="72" height="32" viewBox="0 0 72 32" fill="none" xmlns="http://www.w3.org/2000/svg">
<g clip-path="url(#clip0_27_3986)">
<path d="M26 5.985V26.015C25.9963 26.3696 25.8983 26.7168 25.7162 27.0211C25.5341 27.3254 25.2743 27.5757 24.9636 27.7466C24.6528 27.9174 24.3023 28.0025 23.9478 27.9932C23.5933 27.984 23.2476 27.8806 22.9463 27.6938L8 18.3463V27C8 27.2652 7.89464 27.5196 7.70711 27.7071C7.51957 27.8946 7.26522 28 7 28C6.73478 28 6.48043 27.8946 6.29289 27.7071C6.10536 27.5196 6 27.2652 6 27V5C6 4.73478 6.10536 4.48043 6.29289 4.29289C6.48043 4.10536 6.73478 4 7 4C7.26522 4 7.51957 4.10536 7.70711 4.29289C7.89464 4.48043 8 4.73478 8 5V13.6538L22.9463 4.30625C23.2472 4.1173 23.5933 4.01224 23.9485 4.00194C24.3038 3.99165 24.6553 4.0765 24.9667 4.2477C25.2782 4.41891 25.5382 4.67025 25.7199 4.9757C25.9015 5.28115 25.9982 5.62961 26 5.985Z" fill="white"/>
<path d="M65.2188 3.815C64.8284 3.5985 64.3872 3.49047 63.941 3.50212C63.4947 3.51377 63.0598 3.64468 62.6812 3.88125L48.5 12.75V5C48.5 4.60218 48.342 4.22064 48.0607 3.93934C47.7794 3.65804 47.3978 3.5 47 3.5C46.6022 3.5 46.2206 3.65804 45.9393 3.93934C45.658 4.22064 45.5 4.60218 45.5 5V27C45.5 27.3978 45.658 27.7794 45.9393 28.0607C46.2206 28.342 46.6022 28.5 47 28.5C47.3978 28.5 47.7794 28.342 48.0607 28.0607C48.342 27.7794 48.5 27.3978 48.5 27V19.25L62.6812 28.125C63.0588 28.3595 63.4921 28.489 63.9364 28.5003C64.3808 28.5116 64.8201 28.4043 65.2091 28.1893C65.5981 27.9744 65.9228 27.6596 66.1497 27.2774C66.3766 26.8952 66.4975 26.4595 66.5 26.015V5.985C66.4996 5.54186 66.3805 5.10692 66.1552 4.72534C65.9299 4.34375 65.6066 4.02943 65.2188 3.815ZM63.5 25.0912L48.9625 16L63.5 6.90875V25.0912Z" fill="white"/>
</g>
<defs>
<clipPath id="clip0_27_3986">
<rect width="72" height="32" rx="5" fill="white"/>
</clipPath>
</defs>
</svg>
