<svg width="72" height="32" viewBox="0 0 72 32" fill="none" xmlns="http://www.w3.org/2000/svg">
<g clip-path="url(#clip0_27_4001)">
<path d="M16 3C13.4288 3 10.9154 3.76244 8.77759 5.1909C6.63975 6.61935 4.97351 8.64968 3.98957 11.0251C3.00563 13.4006 2.74819 16.0144 3.2498 18.5362C3.75141 21.0579 4.98953 23.3743 6.80762 25.1924C8.6257 27.0105 10.9421 28.2486 13.4638 28.7502C15.9856 29.2518 18.5995 28.9944 20.9749 28.0104C23.3503 27.0265 25.3807 25.3603 26.8091 23.2224C28.2376 21.0846 29 18.5712 29 16C28.9964 12.5533 27.6256 9.24882 25.1884 6.81163C22.7512 4.37445 19.4467 3.00364 16 3ZM21 21C21 21.2652 20.8946 21.5196 20.7071 21.7071C20.5196 21.8946 20.2652 22 20 22C19.7348 22 19.4804 21.8946 19.2929 21.7071C19.1054 21.5196 19 21.2652 19 21V17.2288L12.5813 21.8137C12.4317 21.9205 12.2557 21.9841 12.0724 21.9974C11.8892 22.0107 11.7058 21.9733 11.5424 21.8892C11.379 21.8051 11.242 21.6776 11.1463 21.5208C11.0506 21.3639 11 21.1837 11 21V11C11 10.8163 11.0506 10.6361 11.1463 10.4792C11.242 10.3224 11.379 10.1949 11.5424 10.1108C11.7058 10.0267 11.8892 9.98929 12.0724 10.0026C12.2557 10.0159 12.4317 10.0795 12.5813 10.1862L19 14.7712V11C19 10.7348 19.1054 10.4804 19.2929 10.2929C19.4804 10.1054 19.7348 10 20 10C20.2652 10 20.5196 10.1054 20.7071 10.2929C20.8946 10.4804 21 10.7348 21 11V21Z" fill="white"/>
<path d="M56 2.5C53.33 2.5 50.7199 3.29176 48.4998 4.77516C46.2797 6.25856 44.5494 8.36697 43.5276 10.8338C42.5058 13.3006 42.2385 16.015 42.7594 18.6337C43.2803 21.2525 44.5661 23.6579 46.4541 25.5459C48.3421 27.434 50.7475 28.7197 53.3663 29.2406C55.985 29.7615 58.6994 29.4942 61.1662 28.4724C63.633 27.4506 65.7414 25.7203 67.2248 23.5002C68.7082 21.2801 69.5 18.67 69.5 16C69.496 12.4208 68.0724 8.98932 65.5416 6.45844C63.0107 3.92756 59.5792 2.50397 56 2.5ZM56 26.5C53.9233 26.5 51.8932 25.8842 50.1665 24.7304C48.4398 23.5767 47.094 21.9368 46.2993 20.0182C45.5046 18.0996 45.2966 15.9884 45.7018 13.9516C46.1069 11.9148 47.1069 10.0438 48.5754 8.57538C50.0438 7.10693 51.9148 6.1069 53.9516 5.70175C55.9884 5.29661 58.0996 5.50454 60.0182 6.29926C61.9368 7.09399 63.5767 8.4398 64.7304 10.1665C65.8842 11.8932 66.5 13.9233 66.5 16C66.497 18.7839 65.3898 21.4528 63.4213 23.4213C61.4529 25.3898 58.7839 26.497 56 26.5ZM60 9.5C59.6022 9.5 59.2207 9.65804 58.9393 9.93934C58.658 10.2206 58.5 10.6022 58.5 11V13.2937L52.795 9.7275C52.5679 9.58557 52.307 9.50702 52.0393 9.50001C51.7715 9.493 51.5068 9.55779 51.2726 9.68765C51.0384 9.81751 50.8433 10.0077 50.7074 10.2385C50.5715 10.4693 50.4999 10.7322 50.5 11V21C50.4999 21.2678 50.5715 21.5307 50.7074 21.7615C50.8433 21.9923 51.0384 22.1825 51.2726 22.3123C51.5068 22.4422 51.7715 22.507 52.0393 22.5C52.307 22.493 52.5679 22.4144 52.795 22.2725L58.5 18.7062V21C58.5 21.3978 58.658 21.7794 58.9393 22.0607C59.2207 22.342 59.6022 22.5 60 22.5C60.3978 22.5 60.7794 22.342 61.0607 22.0607C61.342 21.7794 61.5 21.3978 61.5 21V11C61.5 10.6022 61.342 10.2206 61.0607 9.93934C60.7794 9.65804 60.3978 9.5 60 9.5ZM53.5 18.2938V13.7063L57.17 16L53.5 18.2938Z" fill="white"/>
</g>
<defs>
<clipPath id="clip0_27_4001">
<rect width="72" height="32" rx="5" fill="white"/>
</clipPath>
</defs>
</svg>
