<svg width="72" height="32" viewBox="0 0 72 32" fill="none" xmlns="http://www.w3.org/2000/svg">
<g clip-path="url(#clip0_27_4850)">
<path d="M16 2C8.83125 2 3 7.6075 3 14.5C3 18.7625 5.28375 22.75 9 25.035V27C9 27.5304 9.21071 28.0391 9.58579 28.4142C9.96086 28.7893 10.4696 29 11 29H12C12.1326 29 12.2598 28.9473 12.3536 28.8536C12.4473 28.7598 12.5 28.6326 12.5 28.5V25.0338C12.4965 24.7757 12.5909 24.5259 12.7641 24.3345C12.9374 24.1432 13.1766 24.0246 13.4338 24.0025C13.5705 23.9934 13.7077 24.0126 13.8368 24.0587C13.9659 24.1049 14.0841 24.1771 14.1841 24.2709C14.2841 24.3647 14.3637 24.478 14.4181 24.6039C14.4724 24.7297 14.5003 24.8654 14.5 25.0025V28.5025C14.5 28.6351 14.5527 28.7623 14.6464 28.8561C14.7402 28.9498 14.8674 29.0025 15 29.0025H17C17.1326 29.0025 17.2598 28.9498 17.3536 28.8561C17.4473 28.7623 17.5 28.6351 17.5 28.5025V25.0338C17.4965 24.7757 17.5909 24.5259 17.7641 24.3345C17.9374 24.1432 18.1766 24.0246 18.4338 24.0025C18.5705 23.9934 18.7077 24.0126 18.8368 24.0587C18.9659 24.1049 19.0841 24.1771 19.1841 24.2709C19.2841 24.3647 19.3637 24.478 19.4181 24.6039C19.4724 24.7297 19.5003 24.8654 19.5 25.0025V28.5025C19.5 28.6351 19.5527 28.7623 19.6464 28.8561C19.7402 28.9498 19.8674 29.0025 20 29.0025H21C21.5304 29.0025 22.0391 28.7918 22.4142 28.4167C22.7893 28.0416 23 27.5329 23 27.0025V25.035C26.7162 22.75 29 18.7625 29 14.5C29 7.6075 23.1688 2 16 2ZM11.5 19C11.0055 19 10.5222 18.8534 10.1111 18.5787C9.69995 18.304 9.37952 17.9135 9.1903 17.4567C9.00108 16.9999 8.95157 16.4972 9.04804 16.0123C9.1445 15.5273 9.3826 15.0819 9.73223 14.7322C10.0819 14.3826 10.5273 14.1445 11.0123 14.048C11.4972 13.9516 11.9999 14.0011 12.4567 14.1903C12.9135 14.3795 13.304 14.7 13.5787 15.1111C13.8534 15.5222 14 16.0055 14 16.5C14 17.163 13.7366 17.7989 13.2678 18.2678C12.7989 18.7366 12.163 19 11.5 19ZM20.5 19C20.0055 19 19.5222 18.8534 19.1111 18.5787C18.7 18.304 18.3795 17.9135 18.1903 17.4567C18.0011 16.9999 17.9516 16.4972 18.048 16.0123C18.1445 15.5273 18.3826 15.0819 18.7322 14.7322C19.0819 14.3826 19.5273 14.1445 20.0123 14.048C20.4972 13.9516 20.9999 14.0011 21.4567 14.1903C21.9135 14.3795 22.304 14.7 22.5787 15.1111C22.8534 15.5222 23 16.0055 23 16.5C23 17.163 22.7366 17.7989 22.2678 18.2678C21.7989 18.7366 21.163 19 20.5 19Z" fill="white"/>
<path d="M54.5 16.5C54.5 17.0933 54.3241 17.6734 53.9944 18.1667C53.6648 18.6601 53.1962 19.0446 52.6481 19.2716C52.0999 19.4987 51.4967 19.5581 50.9147 19.4424C50.3328 19.3266 49.7982 19.0409 49.3787 18.6213C48.9591 18.2018 48.6734 17.6672 48.5576 17.0853C48.4419 16.5033 48.5013 15.9001 48.7284 15.3519C48.9554 14.8038 49.3399 14.3352 49.8333 14.0056C50.3266 13.6759 50.9067 13.5 51.5 13.5C52.2956 13.5 53.0587 13.8161 53.6213 14.3787C54.1839 14.9413 54.5 15.7044 54.5 16.5ZM60.5 13.5C59.9067 13.5 59.3266 13.6759 58.8333 14.0056C58.3399 14.3352 57.9554 14.8038 57.7284 15.3519C57.5013 15.9001 57.4419 16.5033 57.5576 17.0853C57.6734 17.6672 57.9591 18.2018 58.3787 18.6213C58.7982 19.0409 59.3328 19.3266 59.9147 19.4424C60.4967 19.5581 61.0999 19.4987 61.6481 19.2716C62.1962 19.0446 62.6648 18.6601 62.9944 18.1667C63.3241 17.6734 63.5 17.0933 63.5 16.5C63.5 15.7044 63.1839 14.9413 62.6213 14.3787C62.0587 13.8161 61.2956 13.5 60.5 13.5ZM69.5 14.5C69.5 18.2313 67.8687 21.7225 65 24.19V27C65 27.663 64.7366 28.2989 64.2678 28.7678C63.7989 29.2366 63.163 29.5 62.5 29.5H49.5C48.837 29.5 48.2011 29.2366 47.7322 28.7678C47.2634 28.2989 47 27.663 47 27V24.19C44.125 21.7225 42.5 18.2313 42.5 14.5C42.5 7.33125 48.5563 1.5 56 1.5C63.4438 1.5 69.5 7.33125 69.5 14.5ZM66.5 14.5C66.5 8.98625 61.79 4.5 56 4.5C50.21 4.5 45.5 8.98625 45.5 14.5C45.5 17.5387 46.9262 20.375 49.4137 22.2875C49.5962 22.4276 49.7439 22.6078 49.8456 22.8142C49.9472 23.0205 50.0001 23.2475 50 23.4775V26.5H52V24C52 23.6022 52.158 23.2206 52.4393 22.9393C52.7206 22.658 53.1022 22.5 53.5 22.5C53.8978 22.5 54.2794 22.658 54.5607 22.9393C54.842 23.2206 55 23.6022 55 24V26.5H57V24C57 23.6022 57.158 23.2206 57.4393 22.9393C57.7206 22.658 58.1022 22.5 58.5 22.5C58.8978 22.5 59.2794 22.658 59.5607 22.9393C59.842 23.2206 60 23.6022 60 24V26.5H62V23.4775C62.0001 23.2477 62.0531 23.021 62.1547 22.8149C62.2563 22.6087 62.404 22.4287 62.5863 22.2887C65.0737 20.375 66.5 17.5387 66.5 14.5Z" fill="white"/>
</g>
<defs>
<clipPath id="clip0_27_4850">
<rect width="72" height="32" rx="5" fill="white"/>
</clipPath>
</defs>
</svg>
