<svg width="72" height="32" viewBox="0 0 72 32" fill="none" xmlns="http://www.w3.org/2000/svg">
<g clip-path="url(#clip0_27_299)">
<path d="M27.8162 18.1038C28.1528 16.2012 28.0255 14.2456 27.445 12.4027C26.8645 10.5599 25.8481 8.88431 24.4819 7.51812C23.1157 6.15193 21.4401 5.13547 19.5973 4.55501C17.7544 3.97454 15.7988 3.84719 13.8962 4.18376C12.7455 3.40748 11.388 2.99504 9.99998 3.00001C8.14408 3.002 6.36475 3.74013 5.05243 5.05246C3.7401 6.36478 3.00197 8.14411 2.99998 10C2.99501 11.3881 3.40745 12.7456 4.18373 13.8963C3.84716 15.7988 3.97451 17.7545 4.55498 19.5973C5.13544 21.4401 6.1519 23.1157 7.51809 24.4819C8.88428 25.8481 10.5599 26.8646 12.4027 27.445C14.2455 28.0255 16.2012 28.1528 18.1037 27.8163C19.2544 28.5926 20.6119 29.005 22 29C23.8559 28.998 25.6352 28.2599 26.9475 26.9476C28.2599 25.6352 28.998 23.8559 29 22C29.005 20.612 28.5925 19.2545 27.8162 18.1038ZM16 23C13.2425 23 11 21.205 11 19C11 18.7348 11.1053 18.4804 11.2929 18.2929C11.4804 18.1054 11.7348 18 12 18C12.2652 18 12.5196 18.1054 12.7071 18.2929C12.8946 18.4804 13 18.7348 13 19C13 20.0838 14.375 21 16 21C17.625 21 19 20.0838 19 19C19 17.815 17.9237 17.375 15.64 16.7175C13.6712 16.15 11.2225 15.4438 11.2225 13C11.2225 10.72 13.2762 9.00001 16 9.00001C17.965 9.00001 19.6475 9.91251 20.39 11.375C20.4541 11.4926 20.4939 11.6218 20.507 11.7551C20.5202 11.8883 20.5065 12.0228 20.4667 12.1507C20.4269 12.2785 20.3619 12.3971 20.2754 12.4993C20.1889 12.6015 20.0828 12.6854 19.9634 12.7458C19.8439 12.8062 19.7135 12.8421 19.5799 12.8512C19.4463 12.8603 19.3123 12.8425 19.1857 12.7988C19.0591 12.7551 18.9426 12.6865 18.8431 12.5969C18.7435 12.5074 18.663 12.3988 18.6062 12.2775C18.205 11.4925 17.2062 11 16 11C14.4162 11 13.2225 11.86 13.2225 13C13.2225 13.875 14.3475 14.2625 16.1937 14.795C18.2225 15.375 21 16.1813 21 19C21 21.205 18.7575 23 16 23Z" fill="white"/>
<path d="M61.5 19C61.5 21.5238 59.0838 23.5 56 23.5C53.3425 23.5 51.0675 21.9563 50.5913 19.8275C50.5084 19.4408 50.5816 19.037 50.7949 18.704C51.0082 18.3709 51.3445 18.1356 51.7304 18.0493C52.1164 17.9629 52.5208 18.0325 52.8558 18.2429C53.1907 18.4532 53.429 18.7873 53.5188 19.1725C53.6625 19.8113 54.6513 20.5 56 20.5C57.18 20.5 58.5 19.8588 58.5 19C58.5 18.2038 57.7138 17.835 55.5 17.1975C53.4825 16.6163 50.7213 15.8225 50.7213 13C50.7213 10.435 52.99 8.50001 55.9988 8.50001C58.1538 8.50001 60.0063 9.51751 60.835 11.155C60.9272 11.331 60.9834 11.5236 61.0005 11.7216C61.0176 11.9196 60.9952 12.1189 60.9346 12.3082C60.874 12.4974 60.7764 12.6727 60.6475 12.8239C60.5186 12.9751 60.3609 13.0992 60.1837 13.1889C60.0064 13.2787 59.8131 13.3323 59.6149 13.3467C59.4167 13.3612 59.2176 13.336 59.0293 13.2729C58.8409 13.2097 58.6669 13.1097 58.5175 12.9788C58.368 12.8478 58.2461 12.6885 58.1588 12.51C57.85 11.8963 57 11.5 56 11.5C54.7225 11.5 53.7225 12.1588 53.7225 13C53.7225 13.1363 53.7225 13.2763 54.1325 13.5213C54.655 13.8313 55.5075 14.0775 56.3325 14.315C57.4263 14.63 58.5575 14.9563 59.505 15.5475C61.1538 16.5763 61.5 17.9925 61.5 19ZM69.5 22C69.4977 23.9884 68.7068 25.8947 67.3008 27.3008C65.8947 28.7068 63.9884 29.4977 62 29.5C60.5834 29.5035 59.1954 29.1014 58 28.3413C57.3386 28.447 56.6698 28.5001 56 28.5C52.6859 28.4964 49.5086 27.1782 47.1652 24.8348C44.8218 22.4914 43.5037 19.3141 43.5 16C43.4999 15.3302 43.553 14.6614 43.6588 14C42.8986 12.8046 42.4965 11.4166 42.5 10C42.5023 8.0116 43.2933 6.10529 44.6993 4.69927C46.1053 3.29325 48.0116 2.50233 50 2.50001C51.4188 2.49531 52.8091 2.89745 54.0063 3.65876C54.6656 3.55331 55.3323 3.50023 56 3.50001C59.3141 3.50365 62.4914 4.82178 64.8348 7.16519C67.1783 9.50861 68.4964 12.6859 68.5 16C68.5001 16.6698 68.4471 17.3386 68.3413 18C69.1014 19.1954 69.5035 20.5834 69.5 22ZM66.5 22C66.5041 21.0045 66.1744 20.0363 65.5638 19.25C65.4303 19.0771 65.3361 18.8771 65.288 18.664C65.2398 18.4508 65.2388 18.2298 65.285 18.0163C65.6212 16.4617 65.5621 14.8477 65.113 13.3219C64.664 11.7961 63.8394 10.4074 62.7148 9.28273C61.5902 8.15809 60.2014 7.33352 58.6756 6.88449C57.1498 6.43547 55.5358 6.37634 53.9813 6.71251C53.7683 6.75867 53.5478 6.75786 53.3352 6.71015C53.1226 6.66245 52.9229 6.56898 52.75 6.43626C51.9638 5.82559 50.9956 5.49597 50 5.50001C48.8065 5.50001 47.662 5.97412 46.818 6.81803C45.9741 7.66194 45.5 8.80654 45.5 10C45.496 10.9956 45.8256 11.9637 46.4363 12.75C46.5698 12.9229 46.6639 13.123 46.712 13.3361C46.7602 13.5492 46.7612 13.7702 46.715 13.9838C46.3788 15.5383 46.438 17.1523 46.887 18.6781C47.336 20.2039 48.1606 21.5927 49.2852 22.7173C50.4099 23.8419 51.7986 24.6665 53.3244 25.1155C54.8502 25.5646 56.4642 25.6237 58.0188 25.2875C58.2323 25.2413 58.4534 25.2423 58.6665 25.2905C58.8796 25.3386 59.0796 25.4328 59.2525 25.5663C60.0384 26.1755 61.0056 26.5042 62 26.5C63.1935 26.5 64.3381 26.0259 65.182 25.182C66.0259 24.3381 66.5 23.1935 66.5 22Z" fill="white"/>
</g>
<defs>
<clipPath id="clip0_27_299">
<rect width="72" height="32" rx="5" fill="white"/>
</clipPath>
</defs>
</svg>
