<svg width="72" height="32" viewBox="0 0 72 32" fill="none" xmlns="http://www.w3.org/2000/svg">
<g clip-path="url(#clip0_27_304)">
<path d="M27.6413 16C28.3784 15.3423 28.846 14.4351 28.9542 13.4532C29.0623 12.4713 28.8033 11.484 28.2269 10.6817C27.6506 9.87939 26.7978 9.31871 25.8327 9.10767C24.8676 8.89664 23.8586 9.05019 23 9.53874V6.99999C22.9991 6.18789 22.751 5.3953 22.2888 4.7276C21.8265 4.0599 21.1719 3.54873 20.4121 3.26203C19.6523 2.97534 18.8232 2.92671 18.0351 3.12261C17.247 3.31851 16.5372 3.74966 16 4.35874C15.3423 3.62163 14.4351 3.15396 13.4532 3.04583C12.4713 2.9377 11.4841 3.19674 10.6817 3.77307C9.87942 4.3494 9.31874 5.20224 9.1077 6.1673C8.89667 7.13236 9.05022 8.14138 9.53877 8.99999H7.00002C6.18792 9.0009 5.39533 9.24898 4.72763 9.71125C4.05993 10.1735 3.54876 10.8281 3.26206 11.5879C2.97537 12.3477 2.92674 13.1768 3.12264 13.9649C3.31854 14.753 3.74969 15.4628 4.35877 16C3.62166 16.6577 3.15399 17.5649 3.04586 18.5468C2.93773 19.5287 3.19677 20.5159 3.7731 21.3183C4.34943 22.1206 5.20227 22.6813 6.16733 22.8923C7.13239 23.1033 8.14141 22.9498 9.00002 22.4612V25C9.00093 25.8121 9.24901 26.6047 9.71128 27.2724C10.1735 27.9401 10.8281 28.4513 11.5879 28.7379C12.3477 29.0246 13.1768 29.0733 13.9649 28.8774C14.753 28.6815 15.4629 28.2503 16 27.6412C16.6577 28.3783 17.5649 28.846 18.5468 28.9541C19.5288 29.0623 20.516 28.8032 21.3183 28.2269C22.1206 27.6506 22.6813 26.7977 22.8923 25.8327C23.1034 24.8676 22.9498 23.8586 22.4613 23H25C25.8121 22.9991 26.6047 22.751 27.2724 22.2887C27.9401 21.8265 28.4513 21.1719 28.738 20.4121C29.0247 19.6523 29.0733 18.8232 28.8774 18.0351C28.6815 17.247 28.2503 16.5371 27.6413 16ZM11 6.99999C11 6.46956 11.2107 5.96085 11.5858 5.58577C11.9609 5.2107 12.4696 4.99999 13 4.99999C13.5305 4.99999 14.0392 5.2107 14.4142 5.58577C14.7893 5.96085 15 6.46956 15 6.99999V8.99999H13C12.4696 8.99999 11.9609 8.78927 11.5858 8.4142C11.2107 8.03913 11 7.53042 11 6.99999ZM5.00002 13C5.00002 12.4696 5.21073 11.9608 5.58581 11.5858C5.96088 11.2107 6.46959 11 7.00002 11H13C13.5305 11 14.0392 11.2107 14.4142 11.5858C14.7893 11.9608 15 12.4696 15 13V15H7.00002C6.46959 15 5.96088 14.7893 5.58581 14.4142C5.21073 14.0391 5.00002 13.5304 5.00002 13ZM21 25C21 25.5304 20.7893 26.0391 20.4142 26.4142C20.0392 26.7893 19.5305 27 19 27C18.4696 27 17.9609 26.7893 17.5858 26.4142C17.2107 26.0391 17 25.5304 17 25V23H19C19.5305 23 20.0392 23.2107 20.4142 23.5858C20.7893 23.9608 21 24.4696 21 25ZM25 21H19C18.4696 21 17.9609 20.7893 17.5858 20.4142C17.2107 20.0391 17 19.5304 17 19V17H25C25.5305 17 26.0392 17.2107 26.4142 17.5858C26.7893 17.9608 27 18.4696 27 19C27 19.5304 26.7893 20.0391 26.4142 20.4142C26.0392 20.7893 25.5305 21 25 21Z" fill="white"/>
<path d="M69.5 13C69.5 12.2801 69.3272 11.5707 68.9963 10.9314C68.6653 10.2921 68.1858 9.74148 67.598 9.32586C67.0102 8.91023 66.3313 8.6417 65.6182 8.5428C64.9051 8.4439 64.1787 8.51752 63.5 8.75749V6.99999C63.4992 6.13165 63.2472 5.28208 62.7744 4.55376C62.3015 3.82544 61.6281 3.24947 60.8352 2.89534C60.0424 2.5412 59.164 2.42401 58.3061 2.55792C57.4481 2.69182 56.6472 3.0711 56 3.64999C55.2554 2.98491 54.3107 2.58634 53.3147 2.51702C52.3187 2.44771 51.328 2.71158 50.4984 3.26711C49.6689 3.82264 49.0476 4.63827 48.7324 5.58561C48.4172 6.53296 48.4261 7.55821 48.7575 8.49999H47C46.1316 8.50078 45.2821 8.75279 44.5538 9.22562C43.8254 9.69845 43.2495 10.3719 42.8953 11.1647C42.5412 11.9576 42.424 12.836 42.5579 13.6939C42.6918 14.5519 43.0711 15.3528 43.65 16C42.9849 16.7446 42.5863 17.6893 42.517 18.6853C42.4477 19.6812 42.7116 20.672 43.2671 21.5016C43.8226 22.3311 44.6383 22.9524 45.5856 23.2676C46.533 23.5827 47.5582 23.5739 48.5 23.2425V25C48.5008 25.8683 48.7528 26.7179 49.2256 27.4462C49.6984 28.1745 50.3719 28.7505 51.1647 29.1046C51.9576 29.4588 52.836 29.576 53.6939 29.4421C54.5519 29.3082 55.3528 28.9289 56 28.35C56.7446 29.0151 57.6893 29.4136 58.6853 29.483C59.6812 29.5523 60.672 29.2884 61.5016 28.7329C62.3311 28.1773 62.9524 27.3617 63.2676 26.4144C63.5827 25.467 63.5739 24.4418 63.2425 23.5H65C65.8683 23.4992 66.7179 23.2472 67.4462 22.7744C68.1745 22.3015 68.7505 21.6281 69.1046 20.8352C69.4588 20.0424 69.576 19.164 69.4421 18.3061C69.3082 17.4481 68.9289 16.6472 68.35 16C69.0913 15.1767 69.501 14.1078 69.5 13ZM65 11.5C65.3978 11.5 65.7793 11.658 66.0607 11.9393C66.342 12.2206 66.5 12.6022 66.5 13C66.5 13.3978 66.342 13.7793 66.0607 14.0607C65.7793 14.342 65.3978 14.5 65 14.5H63.5V13C63.5 12.6022 63.658 12.2206 63.9393 11.9393C64.2206 11.658 64.6022 11.5 65 11.5ZM59 5.49999C59.3978 5.49999 59.7793 5.65803 60.0607 5.93933C60.342 6.22064 60.5 6.60217 60.5 6.99999V13C60.5 13.3978 60.342 13.7793 60.0607 14.0607C59.7793 14.342 59.3978 14.5 59 14.5H57.5V6.99999C57.5 6.60217 57.658 6.22064 57.9393 5.93933C58.2206 5.65803 58.6022 5.49999 59 5.49999ZM51.5 6.99999C51.5 6.60217 51.658 6.22064 51.9393 5.93933C52.2206 5.65803 52.6022 5.49999 53 5.49999C53.3978 5.49999 53.7793 5.65803 54.0607 5.93933C54.342 6.22064 54.5 6.60217 54.5 6.99999V8.49999H53C52.6022 8.49999 52.2206 8.34196 51.9393 8.06065C51.658 7.77935 51.5 7.39782 51.5 6.99999ZM47 11.5H53C53.3978 11.5 53.7793 11.658 54.0607 11.9393C54.342 12.2206 54.5 12.6022 54.5 13V14.5H47C46.6022 14.5 46.2206 14.342 45.9393 14.0607C45.658 13.7793 45.5 13.3978 45.5 13C45.5 12.6022 45.658 12.2206 45.9393 11.9393C46.2206 11.658 46.6022 11.5 47 11.5ZM47 20.5C46.6022 20.5 46.2206 20.342 45.9393 20.0607C45.658 19.7793 45.5 19.3978 45.5 19C45.5 18.6022 45.658 18.2206 45.9393 17.9393C46.2206 17.658 46.6022 17.5 47 17.5H48.5V19C48.5 19.3978 48.342 19.7793 48.0607 20.0607C47.7793 20.342 47.3978 20.5 47 20.5ZM53 26.5C52.6022 26.5 52.2206 26.342 51.9393 26.0607C51.658 25.7793 51.5 25.3978 51.5 25V19C51.5 18.6022 51.658 18.2206 51.9393 17.9393C52.2206 17.658 52.6022 17.5 53 17.5H54.5V25C54.5 25.3978 54.342 25.7793 54.0607 26.0607C53.7793 26.342 53.3978 26.5 53 26.5ZM60.5 25C60.5 25.3978 60.342 25.7793 60.0607 26.0607C59.7793 26.342 59.3978 26.5 59 26.5C58.6022 26.5 58.2206 26.342 57.9393 26.0607C57.658 25.7793 57.5 25.3978 57.5 25V23.5H59C59.3978 23.5 59.7793 23.658 60.0607 23.9393C60.342 24.2206 60.5 24.6022 60.5 25ZM65 20.5H59C58.6022 20.5 58.2206 20.342 57.9393 20.0607C57.658 19.7793 57.5 19.3978 57.5 19V17.5H65C65.3978 17.5 65.7793 17.658 66.0607 17.9393C66.342 18.2206 66.5 18.6022 66.5 19C66.5 19.3978 66.342 19.7793 66.0607 20.0607C65.7793 20.342 65.3978 20.5 65 20.5Z" fill="white"/>
</g>
<defs>
<clipPath id="clip0_27_304">
<rect width="72" height="32" rx="5" fill="white"/>
</clipPath>
</defs>
</svg>
