<svg width="72" height="32" viewBox="0 0 72 32" fill="none" xmlns="http://www.w3.org/2000/svg">
<g clip-path="url(#clip0_27_4006)">
<path d="M10.4998 17C10.4997 17.7537 10.2564 18.4872 9.80593 19.0914C9.3555 19.6957 8.72205 20.1384 7.9998 20.3538V27C7.9998 27.2652 7.89444 27.5196 7.7069 27.7071C7.51937 27.8946 7.26501 28 6.9998 28C6.73458 28 6.48023 27.8946 6.29269 27.7071C6.10515 27.5196 5.9998 27.2652 5.9998 27V20.3538C5.27776 20.1382 4.64457 19.6954 4.19437 19.0912C3.74416 18.4869 3.50098 17.7535 3.50098 17C3.50098 16.2465 3.74416 15.5131 4.19437 14.9088C4.64457 14.3046 5.27776 13.8618 5.9998 13.6462V5C5.9998 4.73478 6.10515 4.48043 6.29269 4.29289C6.48023 4.10536 6.73458 4 6.9998 4C7.26501 4 7.51937 4.10536 7.7069 4.29289C7.89444 4.48043 7.9998 4.73478 7.9998 5V13.6462C8.72205 13.8616 9.3555 14.3043 9.80593 14.9086C10.2564 15.5128 10.4997 16.2463 10.4998 17ZM16.9998 7.64625V5C16.9998 4.73478 16.8944 4.48043 16.7069 4.29289C16.5194 4.10536 16.265 4 15.9998 4C15.7346 4 15.4802 4.10536 15.2927 4.29289C15.1052 4.48043 14.9998 4.73478 14.9998 5V7.64625C14.2778 7.86179 13.6446 8.30461 13.1944 8.90884C12.7442 9.51308 12.501 10.2465 12.501 11C12.501 11.7535 12.7442 12.4869 13.1944 13.0912C13.6446 13.6954 14.2778 14.1382 14.9998 14.3538V27C14.9998 27.2652 15.1052 27.5196 15.2927 27.7071C15.4802 27.8946 15.7346 28 15.9998 28C16.265 28 16.5194 27.8946 16.7069 27.7071C16.8944 27.5196 16.9998 27.2652 16.9998 27V14.3538C17.7218 14.1382 18.355 13.6954 18.8052 13.0912C19.2554 12.4869 19.4986 11.7535 19.4986 11C19.4986 10.2465 19.2554 9.51308 18.8052 8.90884C18.355 8.30461 17.7218 7.86179 16.9998 7.64625ZM25.9998 17.6462V5C25.9998 4.73478 25.8944 4.48043 25.7069 4.29289C25.5194 4.10536 25.265 4 24.9998 4C24.7346 4 24.4802 4.10536 24.2927 4.29289C24.1052 4.48043 23.9998 4.73478 23.9998 5V17.6462C23.2778 17.8618 22.6446 18.3046 22.1944 18.9088C21.7442 19.5131 21.501 20.2465 21.501 21C21.501 21.7535 21.7442 22.4869 22.1944 23.0912C22.6446 23.6954 23.2778 24.1382 23.9998 24.3538V27C23.9998 27.2652 24.1052 27.5196 24.2927 27.7071C24.4802 27.8946 24.7346 28 24.9998 28C25.265 28 25.5194 27.8946 25.7069 27.7071C25.8944 27.5196 25.9998 27.2652 25.9998 27V24.3538C26.7218 24.1382 27.355 23.6954 27.8052 23.0912C28.2554 22.4869 28.4986 21.7535 28.4986 21C28.4986 20.2465 28.2554 19.5131 27.8052 18.9088C27.355 18.3046 26.7218 17.8618 25.9998 17.6462Z" fill="white"/>
<path d="M48.4996 12.7575V5C48.4996 4.60218 48.3416 4.22064 48.0603 3.93934C47.779 3.65804 47.3974 3.5 46.9996 3.5C46.6018 3.5 46.2202 3.65804 45.9389 3.93934C45.6576 4.22064 45.4996 4.60218 45.4996 5V12.7575C44.6223 13.0677 43.8628 13.6423 43.3256 14.4021C42.7885 15.1619 42.5 16.0695 42.5 17C42.5 17.9305 42.7885 18.8381 43.3256 19.5979C43.8628 20.3577 44.6223 20.9323 45.4996 21.2425V27C45.4996 27.3978 45.6576 27.7794 45.9389 28.0607C46.2202 28.342 46.6018 28.5 46.9996 28.5C47.3974 28.5 47.779 28.342 48.0603 28.0607C48.3416 27.7794 48.4996 27.3978 48.4996 27V21.2425C49.3769 20.9323 50.1364 20.3577 50.6736 19.5979C51.2108 18.8381 51.4992 17.9305 51.4992 17C51.4992 16.0695 51.2108 15.1619 50.6736 14.4021C50.1364 13.6423 49.3769 13.0677 48.4996 12.7575ZM46.9996 18.5C46.7029 18.5 46.4129 18.412 46.1662 18.2472C45.9196 18.0824 45.7273 17.8481 45.6138 17.574C45.5003 17.2999 45.4705 16.9983 45.5284 16.7074C45.5863 16.4164 45.7292 16.1491 45.9389 15.9393C46.1487 15.7296 46.416 15.5867 46.707 15.5288C46.9979 15.4709 47.2995 15.5006 47.5736 15.6142C47.8477 15.7277 48.082 15.92 48.2468 16.1666C48.4116 16.4133 48.4996 16.7033 48.4996 17C48.4996 17.3978 48.3416 17.7794 48.0603 18.0607C47.779 18.342 47.3974 18.5 46.9996 18.5ZM60.4996 11C60.4983 10.0698 60.2093 9.16268 59.6722 8.40314C59.1351 7.6436 58.3762 7.06879 57.4996 6.7575V5C57.4996 4.60218 57.3416 4.22064 57.0603 3.93934C56.779 3.65804 56.3974 3.5 55.9996 3.5C55.6018 3.5 55.2202 3.65804 54.9389 3.93934C54.6576 4.22064 54.4996 4.60218 54.4996 5V6.7575C53.6223 7.06775 52.8628 7.64232 52.3256 8.4021C51.7885 9.16187 51.5 10.0695 51.5 11C51.5 11.9305 51.7885 12.8381 52.3256 13.5979C52.8628 14.3577 53.6223 14.9323 54.4996 15.2425V27C54.4996 27.3978 54.6576 27.7794 54.9389 28.0607C55.2202 28.342 55.6018 28.5 55.9996 28.5C56.3974 28.5 56.779 28.342 57.0603 28.0607C57.3416 27.7794 57.4996 27.3978 57.4996 27V15.2425C58.3762 14.9312 59.1351 14.3564 59.6722 13.5969C60.2093 12.8373 60.4983 11.9302 60.4996 11ZM55.9996 12.5C55.7029 12.5 55.4129 12.412 55.1662 12.2472C54.9196 12.0824 54.7273 11.8481 54.6138 11.574C54.5003 11.2999 54.4705 10.9983 54.5284 10.7074C54.5863 10.4164 54.7292 10.1491 54.9389 9.93934C55.1487 9.72956 55.416 9.5867 55.707 9.52882C55.9979 9.47094 56.2995 9.50065 56.5736 9.61418C56.8477 9.72771 57.082 9.91997 57.2468 10.1666C57.4116 10.4133 57.4996 10.7033 57.4996 11C57.4996 11.3978 57.3416 11.7794 57.0603 12.0607C56.779 12.342 56.3974 12.5 55.9996 12.5ZM69.4996 21C69.4983 20.0698 69.2093 19.1627 68.6722 18.4031C68.1351 17.6436 67.3762 17.0688 66.4996 16.7575V5C66.4996 4.60218 66.3416 4.22064 66.0603 3.93934C65.779 3.65804 65.3974 3.5 64.9996 3.5C64.6018 3.5 64.2202 3.65804 63.9389 3.93934C63.6576 4.22064 63.4996 4.60218 63.4996 5V16.7575C62.6223 17.0677 61.8628 17.6423 61.3256 18.4021C60.7885 19.1619 60.5 20.0695 60.5 21C60.5 21.9305 60.7885 22.8381 61.3256 23.5979C61.8628 24.3577 62.6223 24.9323 63.4996 25.2425V27C63.4996 27.3978 63.6576 27.7794 63.9389 28.0607C64.2202 28.342 64.6018 28.5 64.9996 28.5C65.3974 28.5 65.779 28.342 66.0603 28.0607C66.3416 27.7794 66.4996 27.3978 66.4996 27V25.2425C67.3762 24.9312 68.1351 24.3564 68.6722 23.5969C69.2093 22.8373 69.4983 21.9302 69.4996 21ZM64.9996 22.5C64.7029 22.5 64.4129 22.412 64.1662 22.2472C63.9196 22.0824 63.7273 21.8481 63.6138 21.574C63.5003 21.2999 63.4705 20.9983 63.5284 20.7074C63.5863 20.4164 63.7292 20.1491 63.9389 19.9393C64.1487 19.7296 64.416 19.5867 64.707 19.5288C64.9979 19.4709 65.2995 19.5007 65.5736 19.6142C65.8477 19.7277 66.082 19.92 66.2468 20.1666C66.4116 20.4133 66.4996 20.7033 66.4996 21C66.4996 21.3978 66.3416 21.7794 66.0603 22.0607C65.779 22.342 65.3974 22.5 64.9996 22.5Z" fill="white"/>
</g>
<defs>
<clipPath id="clip0_27_4006">
<rect width="72" height="32" rx="5" fill="white"/>
</clipPath>
</defs>
</svg>
