<svg width="72" height="32" viewBox="0 0 72 32" fill="none" xmlns="http://www.w3.org/2000/svg">
<g clip-path="url(#clip0_27_4016)">
<path d="M26 8V24C26 24.5304 25.7893 25.0391 25.4142 25.4142C25.0391 25.7893 24.5304 26 24 26H8C7.46957 26 6.96086 25.7893 6.58579 25.4142C6.21071 25.0391 6 24.5304 6 24V8C6 7.46957 6.21071 6.96086 6.58579 6.58579C6.96086 6.21071 7.46957 6 8 6H24C24.5304 6 25.0391 6.21071 25.4142 6.58579C25.7893 6.96086 26 7.46957 26 8ZM29 6C28.7348 6 28.4804 6.10536 28.2929 6.29289C28.1054 6.48043 28 6.73478 28 7V25C28 25.2652 28.1054 25.5196 28.2929 25.7071C28.4804 25.8946 28.7348 26 29 26C29.2652 26 29.5196 25.8946 29.7071 25.7071C29.8946 25.5196 30 25.2652 30 25V7C30 6.73478 29.8946 6.48043 29.7071 6.29289C29.5196 6.10536 29.2652 6 29 6ZM3 6C2.73478 6 2.48043 6.10536 2.29289 6.29289C2.10536 6.48043 2 6.73478 2 7V25C2 25.2652 2.10536 25.5196 2.29289 25.7071C2.48043 25.8946 2.73478 26 3 26C3.26522 26 3.51957 25.8946 3.70711 25.7071C3.89464 25.5196 4 25.2652 4 25V7C4 6.73478 3.89464 6.48043 3.70711 6.29289C3.51957 6.10536 3.26522 6 3 6Z" fill="white"/>
<path d="M63 5.5H49C48.337 5.5 47.7011 5.76339 47.2322 6.23223C46.7634 6.70107 46.5 7.33696 46.5 8V24C46.5 24.663 46.7634 25.2989 47.2322 25.7678C47.7011 26.2366 48.337 26.5 49 26.5H63C63.663 26.5 64.2989 26.2366 64.7678 25.7678C65.2366 25.2989 65.5 24.663 65.5 24V8C65.5 7.33696 65.2366 6.70107 64.7678 6.23223C64.2989 5.76339 63.663 5.5 63 5.5ZM62.5 23.5H49.5V8.5H62.5V23.5ZM70.5 7V25C70.5 25.3978 70.342 25.7794 70.0607 26.0607C69.7794 26.342 69.3978 26.5 69 26.5C68.6022 26.5 68.2206 26.342 67.9393 26.0607C67.658 25.7794 67.5 25.3978 67.5 25V7C67.5 6.60218 67.658 6.22064 67.9393 5.93934C68.2206 5.65804 68.6022 5.5 69 5.5C69.3978 5.5 69.7794 5.65804 70.0607 5.93934C70.342 6.22064 70.5 6.60218 70.5 7ZM44.5 7V25C44.5 25.3978 44.342 25.7794 44.0607 26.0607C43.7794 26.342 43.3978 26.5 43 26.5C42.6022 26.5 42.2206 26.342 41.9393 26.0607C41.658 25.7794 41.5 25.3978 41.5 25V7C41.5 6.60218 41.658 6.22064 41.9393 5.93934C42.2206 5.65804 42.6022 5.5 43 5.5C43.3978 5.5 43.7794 5.65804 44.0607 5.93934C44.342 6.22064 44.5 6.60218 44.5 7Z" fill="white"/>
</g>
<defs>
<clipPath id="clip0_27_4016">
<rect width="72" height="32" rx="5" fill="white"/>
</clipPath>
</defs>
</svg>
