<svg width="72" height="32" viewBox="0 0 72 32" fill="none" xmlns="http://www.w3.org/2000/svg">
<g clip-path="url(#clip0_27_4011)">
<path d="M4 9.99998C4 9.73476 4.10536 9.48041 4.29289 9.29287C4.48043 9.10534 4.73478 8.99998 5 8.99998H9.64625C9.86179 8.27795 10.3046 7.64476 10.9088 7.19455C11.5131 6.74434 12.2465 6.50116 13 6.50116C13.7535 6.50116 14.4869 6.74434 15.0912 7.19455C15.6954 7.64476 16.1382 8.27795 16.3538 8.99998H27C27.2652 8.99998 27.5196 9.10534 27.7071 9.29287C27.8946 9.48041 28 9.73476 28 9.99998C28 10.2652 27.8946 10.5196 27.7071 10.7071C27.5196 10.8946 27.2652 11 27 11H16.3538C16.1382 11.722 15.6954 12.3552 15.0912 12.8054C14.4869 13.2556 13.7535 13.4988 13 13.4988C12.2465 13.4988 11.5131 13.2556 10.9088 12.8054C10.3046 12.3552 9.86179 11.722 9.64625 11H5C4.73478 11 4.48043 10.8946 4.29289 10.7071C4.10536 10.5196 4 10.2652 4 9.99998ZM27 21H24.3538C24.1382 20.2779 23.6954 19.6448 23.0912 19.1945C22.4869 18.7443 21.7535 18.5012 21 18.5012C20.2465 18.5012 19.5131 18.7443 18.9088 19.1945C18.3046 19.6448 17.8618 20.2779 17.6462 21H5C4.73478 21 4.48043 21.1053 4.29289 21.2929C4.10536 21.4804 4 21.7348 4 22C4 22.2652 4.10536 22.5196 4.29289 22.7071C4.48043 22.8946 4.73478 23 5 23H17.6462C17.8618 23.722 18.3046 24.3552 18.9088 24.8054C19.5131 25.2556 20.2465 25.4988 21 25.4988C21.7535 25.4988 22.4869 25.2556 23.0912 24.8054C23.6954 24.3552 24.1382 23.722 24.3538 23H27C27.2652 23 27.5196 22.8946 27.7071 22.7071C27.8946 22.5196 28 22.2652 28 22C28 21.7348 27.8946 21.4804 27.7071 21.2929C27.5196 21.1053 27.2652 21 27 21Z" fill="white"/>
<path d="M45 11.5H48.7575C49.0677 12.3773 49.6423 13.1368 50.4021 13.674C51.1619 14.2112 52.0695 14.4996 53 14.4996C53.9305 14.4996 54.8381 14.2112 55.5979 13.674C56.3577 13.1368 56.9323 12.3773 57.2425 11.5H67C67.3978 11.5 67.7794 11.342 68.0607 11.0607C68.342 10.7794 68.5 10.3979 68.5 10C68.5 9.6022 68.342 9.22067 68.0607 8.93937C67.7794 8.65806 67.3978 8.50003 67 8.50003H57.2425C56.9323 7.62277 56.3577 6.86326 55.5979 6.32607C54.8381 5.78888 53.9305 5.50043 53 5.50043C52.0695 5.50043 51.1619 5.78888 50.4021 6.32607C49.6423 6.86326 49.0677 7.62277 48.7575 8.50003H45C44.6022 8.50003 44.2206 8.65806 43.9393 8.93937C43.658 9.22067 43.5 9.6022 43.5 10C43.5 10.3979 43.658 10.7794 43.9393 11.0607C44.2206 11.342 44.6022 11.5 45 11.5ZM53 8.50003C53.2967 8.50003 53.5867 8.588 53.8334 8.75282C54.08 8.91765 54.2723 9.15192 54.3858 9.426C54.4994 9.70009 54.5291 10.0017 54.4712 10.2927C54.4133 10.5836 54.2704 10.8509 54.0607 11.0607C53.8509 11.2705 53.5836 11.4133 53.2926 11.4712C53.0017 11.5291 52.7001 11.4994 52.426 11.3858C52.1519 11.2723 51.9176 11.0801 51.7528 10.8334C51.588 10.5867 51.5 10.2967 51.5 10C51.5 9.6022 51.658 9.22067 51.9393 8.93937C52.2206 8.65806 52.6022 8.50003 53 8.50003ZM67 20.5H65.2425C64.9323 19.6228 64.3577 18.8633 63.5979 18.3261C62.8381 17.7889 61.9305 17.5004 61 17.5004C60.0695 17.5004 59.1619 17.7889 58.4021 18.3261C57.6423 18.8633 57.0677 19.6228 56.7575 20.5H45C44.6022 20.5 44.2206 20.6581 43.9393 20.9394C43.658 21.2207 43.5 21.6022 43.5 22C43.5 22.3979 43.658 22.7794 43.9393 23.0607C44.2206 23.342 44.6022 23.5 45 23.5H56.7575C57.0677 24.3773 57.6423 25.1368 58.4021 25.674C59.1619 26.2112 60.0695 26.4996 61 26.4996C61.9305 26.4996 62.8381 26.2112 63.5979 25.674C64.3577 25.1368 64.9323 24.3773 65.2425 23.5H67C67.3978 23.5 67.7794 23.342 68.0607 23.0607C68.342 22.7794 68.5 22.3979 68.5 22C68.5 21.6022 68.342 21.2207 68.0607 20.9394C67.7794 20.6581 67.3978 20.5 67 20.5ZM61 23.5C60.7033 23.5 60.4133 23.4121 60.1666 23.2472C59.92 23.0824 59.7277 22.8481 59.6142 22.5741C59.5007 22.3 59.4709 21.9984 59.5288 21.7074C59.5867 21.4164 59.7296 21.1491 59.9393 20.9394C60.1491 20.7296 60.4164 20.5867 60.7074 20.5289C60.9983 20.471 61.2999 20.5007 61.574 20.6142C61.8481 20.7277 62.0824 20.92 62.2472 21.1667C62.412 21.4133 62.5 21.7034 62.5 22C62.5 22.3979 62.342 22.7794 62.0607 23.0607C61.7794 23.342 61.3978 23.5 61 23.5Z" fill="white"/>
</g>
<defs>
<clipPath id="clip0_27_4011">
<rect width="72" height="32" rx="5" fill="white"/>
</clipPath>
</defs>
</svg>
