<svg width="72" height="32" viewBox="0 0 72 32" fill="none" xmlns="http://www.w3.org/2000/svg">
<g clip-path="url(#clip0_27_3337)">
<path d="M29.4503 22H27.5303C28.5612 20.0185 29.0642 17.8048 28.9907 15.5723C28.9173 13.3399 28.2698 11.164 27.1108 9.25457C25.9519 7.34512 24.3204 5.7665 22.3739 4.67095C20.4274 3.5754 18.2314 2.99988 15.9978 2.99988C13.7641 2.99988 11.5681 3.5754 9.62159 4.67095C7.67505 5.7665 6.04364 7.34512 4.88466 9.25457C3.72568 11.164 3.07825 13.3399 3.00478 15.5723C2.93132 17.8048 3.43431 20.0185 4.46525 22H2.55025C2.15098 21.9951 1.76557 22.1463 1.47607 22.4213C1.18658 22.6963 1.01586 23.0735 1.00025 23.4725C0.996598 23.6718 1.0327 23.8698 1.10644 24.055C1.18019 24.2401 1.2901 24.4088 1.42975 24.551C1.5694 24.6932 1.736 24.8062 1.9198 24.8832C2.10361 24.9603 2.30093 25 2.50025 25H10.0003C10.2655 25 10.5198 25.1054 10.7074 25.2929C10.8949 25.4804 11.0003 25.7348 11.0003 26C11.0003 26.2652 10.8949 26.5196 10.7074 26.7071C10.5198 26.8946 10.2655 27 10.0003 27H9.02025C8.7887 26.9995 8.56381 27.0775 8.38223 27.2212C8.20064 27.3649 8.07306 27.5658 8.02025 27.7912C7.9891 27.9372 7.99101 28.0882 8.02582 28.2333C8.06063 28.3784 8.12747 28.5139 8.22144 28.6298C8.31541 28.7457 8.43413 28.8391 8.56889 28.9031C8.70365 28.9672 8.85104 29.0003 9.00025 29H24.9665C25.2245 29.0032 25.4741 28.9087 25.6654 28.7355C25.8567 28.5624 25.9754 28.3233 25.9978 28.0662C26.0068 27.9295 25.9877 27.7923 25.9415 27.6632C25.8954 27.5341 25.8231 27.4159 25.7294 27.3159C25.6356 27.2159 25.5222 27.1363 25.3964 27.0819C25.2705 27.0276 25.1348 26.9997 24.9978 27H18.0003C17.735 27 17.4807 26.8946 17.2931 26.7071C17.1056 26.5196 17.0003 26.2652 17.0003 26C17.0003 25.7348 17.1056 25.4804 17.2931 25.2929C17.4807 25.1054 17.735 25 18.0003 25H18.974C19.221 24.9989 19.4595 24.9094 19.6464 24.7478C19.8332 24.5862 19.9561 24.363 19.9928 24.1187C20.0095 23.9784 19.9964 23.8362 19.9542 23.7013C19.912 23.5664 19.8417 23.4421 19.7479 23.3364C19.6541 23.2307 19.539 23.146 19.4101 23.088C19.2813 23.0301 19.1416 23.0001 19.0003 23H17.0003C15.134 23 13.1765 22.2775 11.6253 21.0187C9.9315 19.6437 9.00025 17.86 9.00025 16C9.00004 15.6232 9.02972 15.2471 9.089 14.875C9.12664 14.6154 9.26225 14.3801 9.46799 14.2173C9.67372 14.0546 9.93396 13.9768 10.1953 14C10.3303 14.0151 10.4608 14.0576 10.5789 14.1249C10.697 14.1921 10.8001 14.2827 10.882 14.3912C10.9639 14.4996 11.0228 14.6236 11.0552 14.7556C11.0875 14.8875 11.0927 15.0247 11.0703 15.1587C11.024 15.4368 11.0006 15.7181 11.0003 16C11.0003 18.77 14.2828 21 17.0003 21H18.9303C20.6178 21 22.0378 22.3812 21.999 24.0687C21.9964 24.1871 21.9868 24.3053 21.9703 24.4225C21.959 24.4943 21.9635 24.5678 21.9835 24.6377C22.0036 24.7076 22.0386 24.7723 22.0862 24.8273C22.1338 24.8823 22.1928 24.9262 22.2592 24.9561C22.3255 24.9859 22.3975 25.0009 22.4703 25H29.5003C29.6996 25 29.8969 24.9603 30.0807 24.8832C30.2645 24.8062 30.4311 24.6932 30.5708 24.551C30.7104 24.4088 30.8203 24.2401 30.8941 24.055C30.9678 23.8698 31.0039 23.6718 31.0003 23.4725C30.9846 23.0735 30.8139 22.6963 30.5244 22.4213C30.2349 22.1463 29.8495 21.9951 29.4503 22ZM15.9878 11.695C15.9513 11.9726 15.8379 12.2345 15.6603 12.451C15.4827 12.6675 15.2481 12.83 14.9829 12.92C14.7178 13.0101 14.4327 13.0241 14.16 12.9606C13.8873 12.897 13.6379 12.7584 13.4399 12.5604C13.2419 12.3624 13.1032 12.1129 13.0397 11.8402C12.9761 11.5675 12.9902 11.2825 13.0802 11.0173C13.1703 10.7522 13.3327 10.5175 13.5492 10.34C13.7657 10.1624 14.0276 10.0489 14.3053 10.0125C14.5333 9.98256 14.7652 10.0055 14.9829 10.0794C15.2007 10.1534 15.3985 10.2764 15.5612 10.4391C15.7238 10.6017 15.8469 10.7996 15.9208 11.0173C15.9948 11.2351 16.0177 11.467 15.9878 11.695ZM21.9878 17.695C21.9513 17.9726 21.8379 18.2345 21.6603 18.451C21.4827 18.6675 21.2481 18.83 20.9829 18.92C20.7178 19.0101 20.4327 19.0241 20.16 18.9606C19.8873 18.897 19.6379 18.7584 19.4399 18.5604C19.2419 18.3624 19.1032 18.1129 19.0397 17.8402C18.9761 17.5675 18.9902 17.2825 19.0802 17.0173C19.1703 16.7522 19.3327 16.5175 19.5492 16.34C19.7657 16.1624 20.0276 16.049 20.3053 16.0125C20.5333 15.9826 20.7652 16.0055 20.9829 16.0794C21.2007 16.1534 21.3985 16.2764 21.5612 16.4391C21.7238 16.6017 21.8469 16.7996 21.9208 17.0173C21.9948 17.2351 22.0177 17.467 21.9878 17.695Z" fill="white"/>
<path d="M62.5004 17C62.5004 17.3956 62.3831 17.7822 62.1634 18.1111C61.9436 18.44 61.6312 18.6964 61.2658 18.8478C60.9003 18.9991 60.4982 19.0387 60.1102 18.9616C59.7223 18.8844 59.3659 18.6939 59.0862 18.4142C58.8065 18.1345 58.616 17.7781 58.5388 17.3902C58.4617 17.0022 58.5013 16.6001 58.6527 16.2346C58.804 15.8692 59.0604 15.5568 59.3893 15.3371C59.7182 15.1173 60.1049 15 60.5004 15C61.0308 15 61.5396 15.2107 61.9146 15.5858C62.2897 15.9609 62.5004 16.4696 62.5004 17ZM57.0004 11.5C57.0004 11.1044 56.8831 10.7178 56.6634 10.3889C56.4436 10.06 56.1312 9.80361 55.7658 9.65223C55.4003 9.50086 54.9982 9.46125 54.6102 9.53842C54.2223 9.61559 53.8659 9.80608 53.5862 10.0858C53.3065 10.3655 53.116 10.7219 53.0388 11.1098C52.9617 11.4978 53.0013 11.8999 53.1527 12.2654C53.304 12.6308 53.5604 12.9432 53.8893 13.1629C54.2182 13.3827 54.6049 13.5 55.0004 13.5C55.5308 13.5 56.0396 13.2893 56.4146 12.9142C56.7897 12.5391 57.0004 12.0304 57.0004 11.5ZM65.4792 6.38749C62.9819 3.92485 59.6243 2.53072 56.1172 2.50027C52.6101 2.46981 49.2288 3.80543 46.6892 6.22434C44.1496 8.64325 42.651 11.9556 42.5108 15.46C42.3706 18.9644 43.5997 22.3859 45.9379 25C46.2031 25.2965 46.5753 25.4756 46.9725 25.4977C47.3697 25.5199 47.7595 25.3833 48.056 25.1181C48.3526 24.8529 48.5316 24.4807 48.5538 24.0835C48.5759 23.6863 48.4394 23.2965 48.1742 23C46.8229 21.4892 45.9377 19.6196 45.6256 17.6168C45.3135 15.614 45.5878 13.5637 46.4153 11.7134C47.2428 9.86305 48.5881 8.29178 50.289 7.18923C51.9899 6.08669 53.9735 5.50001 56.0004 5.50001C58.0274 5.50001 60.011 6.08669 61.7118 7.18923C63.4127 8.29178 64.7581 9.86305 65.5856 11.7134C66.4131 13.5637 66.6873 15.614 66.3752 17.6168C66.0631 19.6196 65.178 21.4892 63.8267 23C63.5614 23.2965 63.4249 23.6863 63.4471 24.0835C63.4692 24.4807 63.6482 24.8529 63.9448 25.1181C64.2413 25.3833 64.6311 25.5199 65.0283 25.4977C65.4255 25.4756 65.7977 25.2965 66.0629 25C68.374 22.416 69.6025 19.042 69.4938 15.577C69.3851 12.112 67.9476 8.82157 65.4792 6.38749ZM57.5004 20.5H57.0004C54.5242 20.5 51.5004 18.4237 51.5004 16C51.5005 15.7487 51.5214 15.4978 51.5629 15.25C51.6292 14.8576 51.5369 14.455 51.3064 14.1307C51.0758 13.8064 50.7259 13.5869 50.3335 13.5206C49.9412 13.4543 49.5386 13.5466 49.2142 13.7771C48.8899 14.0077 48.6705 14.3576 48.6042 14.75C48.5351 15.1631 48.5004 15.5812 48.5004 16C48.5004 18.0125 49.5004 19.9325 51.3117 21.4062C52.9479 22.7375 55.0217 23.5 57.0004 23.5H57.5004C57.7656 23.5 58.02 23.6054 58.2075 23.7929C58.3951 23.9804 58.5004 24.2348 58.5004 24.5C58.5004 24.7652 58.3951 25.0196 58.2075 25.2071C58.02 25.3946 57.7656 25.5 57.5004 25.5H52.5004C51.4396 25.5 50.4221 25.9214 49.672 26.6716C48.9218 27.4217 48.5004 28.4391 48.5004 29.5C48.5004 29.8978 48.6585 30.2793 48.9398 30.5607C49.2211 30.842 49.6026 31 50.0004 31C50.3982 31 50.7798 30.842 51.0611 30.5607C51.3424 30.2793 51.5004 29.8978 51.5004 29.5C51.5004 29.2348 51.6058 28.9804 51.7933 28.7929C51.9808 28.6054 52.2352 28.5 52.5004 28.5H57.5004C58.5613 28.5 59.5787 28.0786 60.3288 27.3284C61.079 26.5783 61.5004 25.5609 61.5004 24.5C61.5004 23.4391 61.079 22.4217 60.3288 21.6716C59.5787 20.9214 58.5613 20.5 57.5004 20.5Z" fill="white"/>
</g>
<defs>
<clipPath id="clip0_27_3337">
<rect width="72" height="32" rx="5" fill="white"/>
</clipPath>
</defs>
</svg>
