<svg width="72" height="32" viewBox="0 0 72 32" fill="none" xmlns="http://www.w3.org/2000/svg">
<g clip-path="url(#clip0_27_3362)">
<path d="M16 3C13.4288 3 10.9154 3.76244 8.77759 5.1909C6.63975 6.61935 4.97351 8.64968 3.98957 11.0251C3.00563 13.4006 2.74819 16.0144 3.2498 18.5362C3.75141 21.0579 4.98953 23.3743 6.80762 25.1924C8.6257 27.0105 10.9421 28.2486 13.4638 28.7502C15.9856 29.2518 18.5995 28.9944 20.9749 28.0104C23.3503 27.0265 25.3807 25.3603 26.8091 23.2224C28.2376 21.0846 29 18.5712 29 16C28.9957 12.5535 27.6247 9.2494 25.1876 6.81236C22.7506 4.37532 19.4465 3.0043 16 3ZM13.7075 15.2925C13.8951 15.4801 14.0006 15.7346 14.0006 16C14.0006 16.2654 13.8951 16.5199 13.7075 16.7075C13.5199 16.8951 13.2654 17.0006 13 17.0006C12.7346 17.0006 12.4801 16.8951 12.2925 16.7075L11 15.4137L9.70751 16.7075C9.51987 16.8951 9.26537 17.0006 9.00001 17.0006C8.73464 17.0006 8.48015 16.8951 8.29251 16.7075C8.10486 16.5199 7.99945 16.2654 7.99945 16C7.99945 15.7346 8.10486 15.4801 8.29251 15.2925L9.58626 14L8.29251 12.7075C8.10486 12.5199 7.99945 12.2654 7.99945 12C7.99945 11.7346 8.10486 11.4801 8.29251 11.2925C8.48015 11.1049 8.73464 10.9994 9.00001 10.9994C9.26537 10.9994 9.51987 11.1049 9.70751 11.2925L11 12.5863L12.2925 11.2925C12.4801 11.1049 12.7346 10.9994 13 10.9994C13.2654 10.9994 13.5199 11.1049 13.7075 11.2925C13.8951 11.4801 14.0006 11.7346 14.0006 12C14.0006 12.2654 13.8951 12.5199 13.7075 12.7075L12.4138 14L13.7075 15.2925ZM16 24C15.7033 24 15.4133 23.912 15.1667 23.7472C14.92 23.5824 14.7277 23.3481 14.6142 23.074C14.5007 22.7999 14.471 22.4983 14.5288 22.2074C14.5867 21.9164 14.7296 21.6491 14.9393 21.4393C15.1491 21.2296 15.4164 21.0867 15.7074 21.0288C15.9983 20.9709 16.2999 21.0007 16.574 21.1142C16.8481 21.2277 17.0824 21.42 17.2472 21.6666C17.412 21.9133 17.5 22.2033 17.5 22.5C17.5 22.8978 17.342 23.2794 17.0607 23.5607C16.7794 23.842 16.3978 24 16 24ZM23.7075 15.2925C23.8004 15.3854 23.8741 15.4957 23.9244 15.6171C23.9747 15.7385 24.0006 15.8686 24.0006 16C24.0006 16.1314 23.9747 16.2615 23.9244 16.3829C23.8741 16.5043 23.8004 16.6146 23.7075 16.7075C23.6146 16.8004 23.5043 16.8741 23.3829 16.9244C23.2615 16.9747 23.1314 17.0006 23 17.0006C22.8686 17.0006 22.7385 16.9747 22.6171 16.9244C22.4957 16.8741 22.3854 16.8004 22.2925 16.7075L21 15.4137L19.7075 16.7075C19.5199 16.8951 19.2654 17.0006 19 17.0006C18.7346 17.0006 18.4801 16.8951 18.2925 16.7075C18.1049 16.5199 17.9994 16.2654 17.9994 16C17.9994 15.7346 18.1049 15.4801 18.2925 15.2925L19.5863 14L18.2925 12.7075C18.1049 12.5199 17.9994 12.2654 17.9994 12C17.9994 11.7346 18.1049 11.4801 18.2925 11.2925C18.4801 11.1049 18.7346 10.9994 19 10.9994C19.2654 10.9994 19.5199 11.1049 19.7075 11.2925L21 12.5863L22.2925 11.2925C22.3854 11.1996 22.4957 11.1259 22.6171 11.0756C22.7385 11.0253 22.8686 10.9994 23 10.9994C23.1314 10.9994 23.2615 11.0253 23.3829 11.0756C23.5043 11.1259 23.6146 11.1996 23.7075 11.2925C23.8004 11.3854 23.8741 11.4957 23.9244 11.6171C23.9747 11.7385 24.0006 11.8686 24.0006 12C24.0006 12.1314 23.9747 12.2615 23.9244 12.3829C23.8741 12.5043 23.8004 12.6146 23.7075 12.7075L22.4138 14L23.7075 15.2925Z" fill="white"/>
<path d="M56 2.5C53.33 2.5 50.7199 3.29176 48.4998 4.77516C46.2797 6.25856 44.5494 8.36697 43.5276 10.8338C42.5058 13.3006 42.2385 16.015 42.7594 18.6337C43.2803 21.2525 44.5661 23.6579 46.4541 25.5459C48.3421 27.434 50.7475 28.7197 53.3663 29.2406C55.985 29.7615 58.6994 29.4942 61.1662 28.4724C63.633 27.4506 65.7414 25.7203 67.2248 23.5002C68.7082 21.2801 69.5 18.67 69.5 16C69.496 12.4208 68.0724 8.98932 65.5416 6.45844C63.0107 3.92756 59.5792 2.50397 56 2.5ZM56 26.5C53.9233 26.5 51.8932 25.8842 50.1665 24.7304C48.4398 23.5767 47.094 21.9368 46.2993 20.0182C45.5046 18.0996 45.2966 15.9884 45.7018 13.9516C46.1069 11.9148 47.1069 10.0438 48.5754 8.57538C50.0438 7.10693 51.9148 6.1069 53.9516 5.70175C55.9884 5.29661 58.0996 5.50454 60.0182 6.29926C61.9368 7.09399 63.5767 8.4398 64.7304 10.1665C65.8842 11.8932 66.5 13.9233 66.5 16C66.497 18.7839 65.3898 21.4528 63.4213 23.4213C61.4529 25.3898 58.7839 26.497 56 26.5ZM63.0613 14.9388C63.343 15.2205 63.5014 15.6027 63.5014 16.0012C63.5014 16.3998 63.343 16.782 63.0613 17.0637C62.7795 17.3455 62.3973 17.5039 61.9988 17.5039C61.6002 17.5039 61.218 17.3455 60.9363 17.0637L60.25 16.375L59.5613 17.065C59.2795 17.3468 58.8973 17.5051 58.4988 17.5051C58.1002 17.5051 57.718 17.3468 57.4363 17.065C57.1545 16.7832 56.9962 16.401 56.9962 16.0025C56.9962 15.604 57.1545 15.2218 57.4363 14.94L58.125 14.25L57.435 13.5612C57.1532 13.2795 56.9949 12.8973 56.9949 12.4987C56.9949 12.1002 57.1532 11.718 57.435 11.4362C57.7168 11.1545 58.099 10.9961 58.4975 10.9961C58.896 10.9961 59.2782 11.1545 59.56 11.4362L60.25 12.125L60.9388 11.435C61.2205 11.1532 61.6027 10.9949 62.0013 10.9949C62.3998 10.9949 62.782 11.1532 63.0638 11.435C63.3455 11.7168 63.5039 12.099 63.5039 12.4975C63.5039 12.896 63.3455 13.2782 63.0638 13.56L62.375 14.25L63.0613 14.9388ZM54.5613 17.0637C54.4219 17.2036 54.2563 17.3145 54.074 17.3903C53.8917 17.466 53.6962 17.5049 53.4988 17.5049C53.3013 17.5049 53.1059 17.466 52.9235 17.3903C52.7412 17.3145 52.5756 17.2036 52.4363 17.0637L51.75 16.375L51.0613 17.065C50.7795 17.3468 50.3973 17.5051 49.9988 17.5051C49.6002 17.5051 49.218 17.3468 48.9363 17.065C48.6545 16.7832 48.4962 16.401 48.4962 16.0025C48.4962 15.604 48.6545 15.2218 48.9363 14.94L49.625 14.25L48.935 13.5612C48.6532 13.2795 48.4949 12.8973 48.4949 12.4987C48.4949 12.3014 48.5338 12.106 48.6093 11.9237C48.6848 11.7414 48.7955 11.5758 48.935 11.4362C49.0745 11.2967 49.2402 11.186 49.4225 11.1105C49.6048 11.035 49.8002 10.9961 49.9975 10.9961C50.396 10.9961 50.7782 11.1545 51.06 11.4362L51.75 12.125L52.4388 11.435C52.7205 11.1532 53.1027 10.9949 53.5013 10.9949C53.8998 10.9949 54.282 11.1532 54.5638 11.435C54.8455 11.7168 55.0039 12.099 55.0039 12.4975C55.0039 12.896 54.8455 13.2782 54.5638 13.56L53.875 14.25L54.565 14.9388C54.7042 15.0783 54.8146 15.2439 54.8897 15.4262C54.9649 15.6084 55.0034 15.8037 55.0031 16.0008C55.0027 16.1979 54.9635 16.393 54.8877 16.575C54.8119 16.7569 54.701 16.9222 54.5613 17.0613V17.0637ZM58 22.5C58 22.8956 57.8827 23.2822 57.6629 23.6111C57.4432 23.94 57.1308 24.1964 56.7654 24.3478C56.3999 24.4991 55.9978 24.5387 55.6098 24.4616C55.2219 24.3844 54.8655 24.1939 54.5858 23.9142C54.3061 23.6345 54.1156 23.2781 54.0384 22.8902C53.9613 22.5022 54.0009 22.1001 54.1522 21.7346C54.3036 21.3692 54.56 21.0568 54.8889 20.8371C55.2178 20.6173 55.6044 20.5 56 20.5C56.5304 20.5 57.0391 20.7107 57.4142 21.0858C57.7893 21.4609 58 21.9696 58 22.5Z" fill="white"/>
</g>
<defs>
<clipPath id="clip0_27_3362">
<rect width="72" height="32" rx="5" fill="white"/>
</clipPath>
</defs>
</svg>
