<svg width="72" height="32" viewBox="0 0 72 32" fill="none" xmlns="http://www.w3.org/2000/svg">
<g clip-path="url(#clip0_27_3347)">
<path d="M16 3C13.4288 3 10.9154 3.76244 8.77759 5.1909C6.63975 6.61935 4.97351 8.64968 3.98957 11.0251C3.00563 13.4006 2.74819 16.0144 3.2498 18.5362C3.75141 21.0579 4.98953 23.3743 6.80762 25.1924C8.6257 27.0105 10.9421 28.2486 13.4638 28.7502C15.9856 29.2518 18.5995 28.9944 20.9749 28.0104C23.3503 27.0265 25.3807 25.3603 26.8091 23.2224C28.2376 21.0846 29 18.5712 29 16C28.9964 12.5533 27.6256 9.24882 25.1884 6.81163C22.7512 4.37445 19.4467 3.00364 16 3ZM11.5 12C11.7967 12 12.0867 12.088 12.3334 12.2528C12.58 12.4176 12.7723 12.6519 12.8858 12.926C12.9994 13.2001 13.0291 13.5017 12.9712 13.7926C12.9133 14.0836 12.7704 14.3509 12.5607 14.5607C12.3509 14.7704 12.0836 14.9133 11.7926 14.9712C11.5017 15.0291 11.2001 14.9994 10.926 14.8858C10.6519 14.7723 10.4176 14.58 10.2528 14.3334C10.088 14.0867 10 13.7967 10 13.5C10 13.1022 10.158 12.7206 10.4393 12.4393C10.7206 12.158 11.1022 12 11.5 12ZM21.5 22.865C21.2705 22.9974 20.9979 23.0333 20.742 22.9648C20.4861 22.8964 20.2678 22.7292 20.135 22.5C19.2013 20.8862 17.7338 20 16 20C14.2663 20 12.7988 20.8875 11.865 22.5C11.8025 22.6195 11.7164 22.7251 11.6121 22.8105C11.5077 22.8959 11.3871 22.9593 11.2575 22.9969C11.128 23.0345 10.9922 23.0454 10.8583 23.0292C10.7245 23.0129 10.5952 22.9697 10.4785 22.9022C10.3617 22.8348 10.2598 22.7443 10.1789 22.6364C10.098 22.5285 10.0397 22.4054 10.0076 22.2744C9.97555 22.1434 9.97029 22.0073 9.99218 21.8742C10.0141 21.7411 10.0627 21.6138 10.135 21.5C11.4213 19.2762 13.5588 18 16 18C18.4413 18 20.5788 19.275 21.865 21.5C21.9974 21.7295 22.0333 22.0021 21.9649 22.258C21.8964 22.5139 21.7292 22.7322 21.5 22.865ZM20.5 15C20.2033 15 19.9133 14.912 19.6667 14.7472C19.42 14.5824 19.2277 14.3481 19.1142 14.074C19.0007 13.7999 18.971 13.4983 19.0288 13.2074C19.0867 12.9164 19.2296 12.6491 19.4393 12.4393C19.6491 12.2296 19.9164 12.0867 20.2074 12.0288C20.4983 11.9709 20.7999 12.0006 21.074 12.1142C21.3481 12.2277 21.5824 12.42 21.7472 12.6666C21.912 12.9133 22 13.2033 22 13.5C22 13.8978 21.842 14.2794 21.5607 14.5607C21.2794 14.842 20.8978 15 20.5 15Z" fill="white"/>
<path d="M56 2.5C53.33 2.5 50.7199 3.29176 48.4998 4.77516C46.2797 6.25856 44.5494 8.36697 43.5276 10.8338C42.5058 13.3006 42.2385 16.015 42.7594 18.6337C43.2803 21.2525 44.5661 23.6579 46.4541 25.5459C48.3421 27.434 50.7475 28.7197 53.3663 29.2406C55.985 29.7615 58.6994 29.4942 61.1662 28.4724C63.633 27.4506 65.7414 25.7203 67.2248 23.5002C68.7082 21.2801 69.5 18.67 69.5 16C69.496 12.4208 68.0724 8.98932 65.5416 6.45844C63.0107 3.92756 59.5792 2.50397 56 2.5ZM56 26.5C53.9233 26.5 51.8932 25.8842 50.1665 24.7304C48.4398 23.5767 47.094 21.9368 46.2993 20.0182C45.5046 18.0996 45.2966 15.9884 45.7018 13.9516C46.1069 11.9148 47.1069 10.0438 48.5754 8.57538C50.0438 7.10693 51.9148 6.1069 53.9516 5.70175C55.9884 5.29661 58.0996 5.50454 60.0182 6.29926C61.9368 7.09399 63.5767 8.4398 64.7304 10.1665C65.8842 11.8932 66.5 13.9233 66.5 16C66.497 18.7839 65.3898 21.4528 63.4213 23.4213C61.4529 25.3898 58.7839 26.497 56 26.5ZM49.5 13.5C49.5 13.1044 49.6173 12.7178 49.8371 12.3889C50.0568 12.06 50.3692 11.8036 50.7346 11.6522C51.1001 11.5009 51.5022 11.4613 51.8902 11.5384C52.2781 11.6156 52.6345 11.8061 52.9142 12.0858C53.1939 12.3655 53.3844 12.7219 53.4616 13.1098C53.5387 13.4978 53.4991 13.8999 53.3478 14.2654C53.1964 14.6308 52.94 14.9432 52.6111 15.1629C52.2822 15.3827 51.8956 15.5 51.5 15.5C50.9696 15.5 50.4609 15.2893 50.0858 14.9142C49.7107 14.5391 49.5 14.0304 49.5 13.5ZM62.5 13.5C62.5 13.8956 62.3827 14.2822 62.1629 14.6111C61.9432 14.94 61.6308 15.1964 61.2654 15.3478C60.8999 15.4991 60.4978 15.5387 60.1098 15.4616C59.7219 15.3844 59.3655 15.1939 59.0858 14.9142C58.8061 14.6345 58.6156 14.2781 58.5384 13.8902C58.4613 13.5022 58.5009 13.1001 58.6522 12.7346C58.8036 12.3692 59.06 12.0568 59.3889 11.8371C59.7178 11.6173 60.1044 11.5 60.5 11.5C61.0304 11.5 61.5391 11.7107 61.9142 12.0858C62.2893 12.4609 62.5 12.9696 62.5 13.5ZM62.0925 20.625C62.3104 20.9484 62.3937 21.344 62.3249 21.7278C62.2561 22.1116 62.0405 22.4536 61.7239 22.6811C61.4072 22.9087 61.0144 23.004 60.6286 22.9469C60.2429 22.8897 59.8946 22.6846 59.6575 22.375C59.2409 21.7938 58.6919 21.3203 58.0558 20.9936C57.4198 20.667 56.715 20.4966 56 20.4966C55.285 20.4966 54.5802 20.667 53.9442 20.9936C53.3081 21.3203 52.7591 21.7938 52.3425 22.375C52.1054 22.6846 51.7571 22.8897 51.3714 22.9469C50.9856 23.004 50.5928 22.9087 50.2761 22.6811C49.9595 22.4536 49.7439 22.1116 49.6751 21.7278C49.6063 21.344 49.6896 20.9484 49.9075 20.625C50.6019 19.6577 51.5167 18.8697 52.5762 18.3261C53.6356 17.7825 54.8092 17.499 56 17.499C57.1908 17.499 58.3644 17.7825 59.4238 18.3261C60.4833 18.8697 61.3981 19.6577 62.0925 20.625Z" fill="white"/>
</g>
<defs>
<clipPath id="clip0_27_3347">
<rect width="72" height="32" rx="5" fill="white"/>
</clipPath>
</defs>
</svg>
