<svg width="72" height="32" viewBox="0 0 72 32" fill="none" xmlns="http://www.w3.org/2000/svg">
<g clip-path="url(#clip0_27_3357)">
<path d="M16 3C13.4288 3 10.9154 3.76244 8.77759 5.1909C6.63975 6.61935 4.97351 8.64968 3.98957 11.0251C3.00563 13.4006 2.74819 16.0144 3.2498 18.5362C3.75141 21.0579 4.98953 23.3743 6.80762 25.1924C8.6257 27.0105 10.9421 28.2486 13.4638 28.7502C15.9856 29.2518 18.5995 28.9944 20.9749 28.0104C23.3503 27.0265 25.3807 25.3603 26.8091 23.2224C28.2376 21.0846 29 18.5712 29 16C28.9964 12.5533 27.6256 9.24882 25.1884 6.81163C22.7512 4.37445 19.4467 3.00364 16 3ZM11.5 12C11.7967 12 12.0867 12.088 12.3334 12.2528C12.58 12.4176 12.7723 12.6519 12.8858 12.926C12.9994 13.2001 13.0291 13.5017 12.9712 13.7926C12.9133 14.0836 12.7704 14.3509 12.5607 14.5607C12.3509 14.7704 12.0836 14.9133 11.7926 14.9712C11.5017 15.0291 11.2001 14.9994 10.926 14.8858C10.6519 14.7723 10.4176 14.58 10.2528 14.3334C10.088 14.0867 10 13.7967 10 13.5C10 13.1022 10.158 12.7206 10.4393 12.4393C10.7206 12.158 11.1022 12 11.5 12ZM21.865 19.5C20.5788 21.7238 18.4413 23 16 23C13.5588 23 11.4213 21.725 10.135 19.5C10.0627 19.3862 10.0141 19.2589 9.99218 19.1258C9.97029 18.9927 9.97555 18.8566 10.0076 18.7256C10.0397 18.5946 10.098 18.4715 10.1789 18.3636C10.2598 18.2557 10.3617 18.1652 10.4785 18.0978C10.5952 18.0303 10.7245 17.9871 10.8583 17.9708C10.9922 17.9546 11.128 17.9655 11.2575 18.0031C11.3871 18.0407 11.5077 18.1041 11.6121 18.1895C11.7164 18.2749 11.8025 18.3805 11.865 18.5C12.7988 20.1138 14.2663 21 16 21C17.7338 21 19.2013 20.1125 20.135 18.5C20.1975 18.3805 20.2836 18.2749 20.388 18.1895C20.4924 18.1041 20.6129 18.0407 20.7425 18.0031C20.872 17.9655 21.0078 17.9546 21.1417 17.9708C21.2756 17.9871 21.4048 18.0303 21.5215 18.0978C21.6383 18.1652 21.7402 18.2557 21.8211 18.3636C21.902 18.4715 21.9603 18.5946 21.9924 18.7256C22.0245 18.8566 22.0297 18.9927 22.0078 19.1258C21.9859 19.2589 21.9374 19.3862 21.865 19.5ZM23 14.5H19C18.7348 14.5 18.4804 14.3946 18.2929 14.2071C18.1054 14.0196 18 13.7652 18 13.5C18 13.2348 18.1054 12.9804 18.2929 12.7929C18.4804 12.6054 18.7348 12.5 19 12.5H23C23.2652 12.5 23.5196 12.6054 23.7071 12.7929C23.8946 12.9804 24 13.2348 24 13.5C24 13.7652 23.8946 14.0196 23.7071 14.2071C23.5196 14.3946 23.2652 14.5 23 14.5Z" fill="white"/>
<path d="M56 2.5C53.33 2.5 50.7199 3.29176 48.4998 4.77516C46.2797 6.25856 44.5494 8.36697 43.5276 10.8338C42.5058 13.3006 42.2385 16.015 42.7594 18.6337C43.2803 21.2525 44.5661 23.6579 46.4541 25.5459C48.3421 27.434 50.7475 28.7197 53.3663 29.2406C55.985 29.7615 58.6994 29.4942 61.1662 28.4724C63.633 27.4506 65.7414 25.7203 67.2248 23.5002C68.7082 21.2801 69.5 18.67 69.5 16C69.496 12.4208 68.0724 8.98932 65.5416 6.45844C63.0107 3.92756 59.5792 2.50397 56 2.5ZM56 26.5C53.9233 26.5 51.8932 25.8842 50.1665 24.7304C48.4398 23.5767 47.094 21.9368 46.2993 20.0182C45.5046 18.0996 45.2966 15.9884 45.7018 13.9516C46.1069 11.9148 47.1069 10.0438 48.5754 8.57538C50.0438 7.10693 51.9148 6.1069 53.9516 5.70175C55.9884 5.29661 58.0996 5.50454 60.0182 6.29926C61.9368 7.09399 63.5767 8.4398 64.7304 10.1665C65.8842 11.8932 66.5 13.9233 66.5 16C66.497 18.7839 65.3898 21.4528 63.4213 23.4213C61.4529 25.3898 58.7839 26.497 56 26.5ZM49.5 13.5C49.5 13.1044 49.6173 12.7178 49.8371 12.3889C50.0568 12.06 50.3692 11.8036 50.7346 11.6522C51.1001 11.5009 51.5022 11.4613 51.8902 11.5384C52.2781 11.6156 52.6345 11.8061 52.9142 12.0858C53.1939 12.3655 53.3844 12.7219 53.4616 13.1098C53.5387 13.4978 53.4991 13.8999 53.3478 14.2654C53.1964 14.6308 52.94 14.9432 52.6111 15.1629C52.2822 15.3827 51.8956 15.5 51.5 15.5C50.9696 15.5 50.4609 15.2893 50.0858 14.9142C49.7107 14.5391 49.5 14.0304 49.5 13.5ZM63.5 13.5C63.5 13.8978 63.342 14.2794 63.0607 14.5607C62.7794 14.842 62.3978 15 62 15H59C58.6022 15 58.2207 14.842 57.9393 14.5607C57.658 14.2794 57.5 13.8978 57.5 13.5C57.5 13.1022 57.658 12.7206 57.9393 12.4393C58.2207 12.158 58.6022 12 59 12H62C62.3978 12 62.7794 12.158 63.0607 12.4393C63.342 12.7206 63.5 13.1022 63.5 13.5ZM62.2988 19.75C60.9238 22.1325 58.625 23.5 56 23.5C53.375 23.5 51.08 22.1338 49.7013 19.75C49.5109 19.4061 49.4632 19.0012 49.5684 18.6224C49.6735 18.2436 49.9232 17.9213 50.2636 17.7247C50.604 17.5281 51.0079 17.4731 51.3885 17.5713C51.7692 17.6695 52.096 17.9132 52.2988 18.25C52.785 19.0912 53.9125 20.5 56 20.5C58.0875 20.5 59.215 19.09 59.7013 18.25C59.7978 18.0756 59.928 17.9222 60.0845 17.7988C60.2409 17.6753 60.4204 17.5843 60.6124 17.531C60.8044 17.4777 61.0051 17.4632 61.2028 17.4883C61.4005 17.5134 61.5912 17.5777 61.7638 17.6773C61.9364 17.777 62.0874 17.9101 62.208 18.0687C62.3285 18.2274 62.4163 18.4085 62.4661 18.6014C62.5159 18.7944 62.5267 18.9954 62.498 19.1926C62.4693 19.3898 62.4015 19.5793 62.2988 19.75Z" fill="white"/>
</g>
<defs>
<clipPath id="clip0_27_3357">
<rect width="72" height="32" rx="5" fill="white"/>
</clipPath>
</defs>
</svg>
