<svg width="72" height="32" viewBox="0 0 72 32" fill="none" xmlns="http://www.w3.org/2000/svg">
<g clip-path="url(#clip0_27_3352)">
<path d="M15.9998 3C14.1302 3.00143 12.2828 3.40613 10.5838 4.18649C8.88479 4.96685 7.37409 6.1045 6.15477 7.52185C4.93545 8.93919 4.03619 10.6029 3.51835 12.3994C3.00051 14.1959 2.87627 16.083 3.15411 17.9319C3.43195 19.7807 4.10533 21.548 5.1283 23.1129C6.15128 24.6779 7.49979 26.0038 9.08183 27.0002C10.6639 27.9965 12.4422 28.6399 14.2955 28.8865C16.1489 29.133 18.0336 28.9769 19.8211 28.4287C19.9771 28.3808 20.1189 28.2949 20.2336 28.1787L28.1798 20.2325C28.2957 20.1171 28.3816 19.975 28.4298 19.8188C29.0249 17.8743 29.1559 15.8175 28.8124 13.8133C28.4689 11.8091 27.6604 9.91328 26.4518 8.27798C25.2433 6.64268 23.6682 5.31341 21.8531 4.39682C20.038 3.48023 18.0333 3.00183 15.9998 3ZM11.4998 12C11.7965 12 12.0865 12.088 12.3332 12.2528C12.5799 12.4176 12.7721 12.6519 12.8856 12.926C12.9992 13.2001 13.0289 13.5017 12.971 13.7926C12.9131 14.0836 12.7703 14.3509 12.5605 14.5607C12.3507 14.7704 12.0834 14.9133 11.7925 14.9712C11.5015 15.0291 11.1999 14.9994 10.9258 14.8858C10.6517 14.7723 10.4174 14.58 10.2526 14.3334C10.0878 14.0867 9.99983 13.7967 9.99983 13.5C9.99983 13.1022 10.1579 12.7206 10.4392 12.4393C10.7205 12.158 11.102 12 11.4998 12ZM21.8648 19.5C20.5786 21.7238 18.4411 23 15.9998 23C13.5586 23 11.4211 21.725 10.1348 19.5C10.0625 19.3862 10.0139 19.2589 9.992 19.1258C9.97011 18.9927 9.97537 18.8566 10.0075 18.7256C10.0395 18.5946 10.0978 18.4715 10.1787 18.3636C10.2596 18.2557 10.3615 18.1652 10.4783 18.0978C10.5951 18.0303 10.7243 17.9871 10.8582 17.9708C10.992 17.9546 11.1278 17.9655 11.2574 18.0031C11.3869 18.0407 11.5075 18.1041 11.6119 18.1895C11.7163 18.2749 11.8023 18.3805 11.8648 18.5C12.7986 20.1138 14.2661 21 15.9998 21C17.7336 21 19.2011 20.1125 20.1348 18.5C20.1973 18.3805 20.2834 18.2749 20.3878 18.1895C20.4922 18.1041 20.6128 18.0407 20.7423 18.0031C20.8718 17.9655 21.0076 17.9546 21.1415 17.9708C21.2754 17.9871 21.4046 18.0303 21.5214 18.0978C21.6381 18.1652 21.74 18.2557 21.8209 18.3636C21.9019 18.4715 21.9601 18.5946 21.9922 18.7256C22.0243 18.8566 22.0295 18.9927 22.0077 19.1258C21.9858 19.2589 21.9372 19.3862 21.8648 19.5ZM20.4998 15C20.2032 15 19.9131 14.912 19.6665 14.7472C19.4198 14.5824 19.2275 14.3481 19.114 14.074C19.0005 13.7999 18.9708 13.4983 19.0286 13.2074C19.0865 12.9164 19.2294 12.6491 19.4392 12.4393C19.6489 12.2296 19.9162 12.0867 20.2072 12.0288C20.4982 11.9709 20.7998 12.0006 21.0739 12.1142C21.3479 12.2277 21.5822 12.42 21.747 12.6666C21.9119 12.9133 21.9998 13.2033 21.9998 13.5C21.9998 13.8978 21.8418 14.2794 21.5605 14.5607C21.2792 14.842 20.8977 15 20.4998 15Z" fill="white"/>
<path d="M55.9998 2.5C54.0584 2.50172 52.1402 2.92214 50.376 3.73259C48.6119 4.54304 47.0433 5.72444 45.7773 7.19622C44.5112 8.668 43.5775 10.3955 43.0398 12.261C42.5021 14.1264 42.3731 16.0859 42.6616 18.0057C42.95 19.9256 43.6491 21.7606 44.7112 23.3857C45.7734 25.0108 47.1735 26.3877 48.8161 27.4225C50.4587 28.4573 52.3052 29.1256 54.2296 29.3819C56.154 29.6381 58.1111 29.4763 59.9673 28.9075C60.2033 28.8358 60.4179 28.707 60.5923 28.5325L68.5385 20.5863C68.7128 20.4118 68.8416 20.1971 68.9135 19.9613C69.5311 17.9418 69.6668 15.8058 69.3095 13.7245C68.9523 11.6432 68.1121 9.67458 66.8564 7.97672C65.6007 6.27885 63.9645 4.89899 62.0791 3.94787C60.1936 2.99675 58.1115 2.50086 55.9998 2.5ZM66.1398 18.7388L58.7398 26.1388C56.5103 26.7386 54.1452 26.5857 52.0115 25.7038C49.8778 24.8219 48.0949 23.2604 46.9395 21.2615C45.7841 19.2627 45.3208 16.9383 45.6216 14.6493C45.9224 12.3602 46.9704 10.2344 48.6029 8.60187C50.2354 6.96934 52.3612 5.92136 54.6503 5.62059C56.9393 5.31983 59.2637 5.78309 61.2625 6.93849C63.2614 8.09389 64.8229 9.87679 65.7048 12.0105C66.5867 14.1442 66.7396 16.5093 66.1398 18.7388ZM49.4998 13.5C49.4998 13.1044 49.6171 12.7178 49.8368 12.3889C50.0566 12.06 50.3689 11.8036 50.7344 11.6522C51.0998 11.5009 51.502 11.4613 51.8899 11.5384C52.2779 11.6156 52.6343 11.8061 52.914 12.0858C53.1937 12.3655 53.3842 12.7219 53.4613 13.1098C53.5385 13.4978 53.4989 13.8999 53.3475 14.2654C53.1961 14.6308 52.9398 14.9432 52.6109 15.1629C52.282 15.3827 51.8953 15.5 51.4998 15.5C50.9693 15.5 50.4606 15.2893 50.0855 14.9142C49.7105 14.5391 49.4998 14.0304 49.4998 13.5ZM62.4998 13.5C62.4998 13.8956 62.3825 14.2822 62.1627 14.6111C61.9429 14.94 61.6306 15.1964 61.2651 15.3478C60.8997 15.4991 60.4975 15.5387 60.1096 15.4616C59.7216 15.3844 59.3653 15.1939 59.0855 14.9142C58.8058 14.6345 58.6154 14.2781 58.5382 13.8902C58.461 13.5022 58.5006 13.1001 58.652 12.7346C58.8034 12.3692 59.0597 12.0568 59.3886 11.8371C59.7175 11.6173 60.1042 11.5 60.4998 11.5C61.0302 11.5 61.5389 11.7107 61.914 12.0858C62.289 12.4609 62.4998 12.9696 62.4998 13.5ZM62.2985 19.75C60.9235 22.1325 58.6248 23.5 55.9998 23.5C53.3748 23.5 51.0798 22.1338 49.701 19.75C49.5107 19.4061 49.463 19.0012 49.5681 18.6224C49.6733 18.2436 49.9229 17.9213 50.2633 17.7247C50.6037 17.5281 51.0077 17.4731 51.3883 17.5713C51.7689 17.6695 52.0958 17.9132 52.2985 18.25C52.7848 19.0912 53.9123 20.5 55.9998 20.5C58.0873 20.5 59.2148 19.09 59.701 18.25C59.7975 18.0756 59.9278 17.9222 60.0842 17.7988C60.2407 17.6753 60.4201 17.5843 60.6122 17.531C60.8042 17.4777 61.0049 17.4632 61.2026 17.4883C61.4003 17.5134 61.591 17.5777 61.7636 17.6773C61.9361 17.777 62.0871 17.9101 62.2077 18.0687C62.3283 18.2274 62.416 18.4085 62.4658 18.6014C62.5156 18.7944 62.5265 18.9954 62.4978 19.1926C62.469 19.3898 62.4013 19.5793 62.2985 19.75Z" fill="white"/>
</g>
<defs>
<clipPath id="clip0_27_3352">
<rect width="72" height="32" rx="5" fill="white"/>
</clipPath>
</defs>
</svg>
