<svg width="72" height="32" viewBox="0 0 72 32" fill="none" xmlns="http://www.w3.org/2000/svg">
<g clip-path="url(#clip0_27_3322)">
<path d="M16 3C13.4288 3 10.9154 3.76244 8.77759 5.1909C6.63975 6.61935 4.97351 8.64968 3.98957 11.0251C3.00563 13.4006 2.74819 16.0144 3.2498 18.5362C3.75141 21.0579 4.98953 23.3743 6.80762 25.1924C8.6257 27.0105 10.9421 28.2486 13.4638 28.7502C15.9856 29.2518 18.5995 28.9944 20.9749 28.0104C23.3503 27.0265 25.3807 25.3603 26.8091 23.2224C28.2376 21.0846 29 18.5712 29 16C28.9964 12.5533 27.6256 9.24882 25.1884 6.81163C22.7512 4.37445 19.4467 3.00364 16 3ZM10 17.5C10 17.2033 10.088 16.9133 10.2528 16.6666C10.4176 16.42 10.6519 16.2277 10.926 16.1142C11.2001 16.0007 11.5017 15.9709 11.7926 16.0288C12.0836 16.0867 12.3509 16.2296 12.5607 16.4393C12.7704 16.6491 12.9133 16.9164 12.9712 17.2074C13.0291 17.4983 12.9994 17.7999 12.8858 18.074C12.7723 18.3481 12.58 18.5824 12.3334 18.7472C12.0867 18.912 11.7967 19 11.5 19C11.1022 19 10.7206 18.842 10.4393 18.5607C10.158 18.2794 10 17.8978 10 17.5ZM19.8325 23.5537C19.6856 23.7745 19.4571 23.9279 19.1971 23.9802C18.9371 24.0324 18.6671 23.9793 18.4463 23.8325C17.6338 23.2925 17 23 16 23C15 23 14.3663 23.2925 13.5538 23.8325C13.3329 23.9739 13.0654 24.0229 12.8089 23.969C12.5523 23.915 12.3271 23.7625 12.1819 23.5442C12.0367 23.3259 11.983 23.0593 12.0325 22.8018C12.0819 22.5443 12.2305 22.3165 12.4463 22.1675C13.5 21.4662 14.5075 21 16 21C17.4925 21 18.5 21.4662 19.5538 22.1675C19.7745 22.3144 19.9279 22.5429 19.9802 22.8029C20.0324 23.0629 19.9793 23.3329 19.8325 23.5537ZM20.5 19C20.2033 19 19.9133 18.912 19.6667 18.7472C19.42 18.5824 19.2277 18.3481 19.1142 18.074C19.0007 17.7999 18.971 17.4983 19.0288 17.2074C19.0867 16.9164 19.2296 16.6491 19.4393 16.4393C19.6491 16.2296 19.9164 16.0867 20.2074 16.0288C20.4983 15.9709 20.7999 16.0007 21.074 16.1142C21.3481 16.2277 21.5824 16.42 21.7472 16.6666C21.912 16.9133 22 17.2033 22 17.5C22 17.8978 21.842 18.2794 21.5607 18.5607C21.2794 18.842 20.8978 19 20.5 19ZM22.555 11.8325L16.555 15.8325C16.3907 15.9421 16.1976 16.0007 16 16.0007C15.8025 16.0007 15.6093 15.9421 15.445 15.8325L9.44501 11.8325C9.33568 11.7596 9.24178 11.6659 9.16867 11.5567C9.09556 11.4476 9.04466 11.3251 9.0189 11.1962C8.99313 11.0674 8.99299 10.9347 9.01849 10.8058C9.04399 10.6769 9.09462 10.5543 9.16751 10.445C9.3147 10.2242 9.54358 10.0709 9.80378 10.0189C9.93262 9.99312 10.0653 9.99298 10.1942 10.0185C10.3231 10.044 10.4457 10.0946 10.555 10.1675L16 13.7987L21.445 10.1737C21.5543 10.1009 21.6769 10.0502 21.8058 10.0247C21.9347 9.99923 22.0674 9.99937 22.1962 10.0251C22.3251 10.0509 22.4476 10.1018 22.5567 10.1749C22.6659 10.248 22.7596 10.3419 22.8325 10.4513C22.9054 10.5606 22.956 10.6832 22.9815 10.8121C23.007 10.941 23.0069 11.0736 22.9811 11.2025C22.9553 11.3313 22.9045 11.4538 22.8313 11.563C22.7582 11.6722 22.6643 11.7659 22.555 11.8387V11.8325Z" fill="white"/>
<path d="M51.5 19.5C51.1044 19.5 50.7178 19.3827 50.3889 19.1629C50.06 18.9432 49.8036 18.6308 49.6522 18.2654C49.5009 17.8999 49.4613 17.4978 49.5384 17.1098C49.6156 16.7219 49.8061 16.3655 50.0858 16.0858C50.3655 15.8061 50.7219 15.6156 51.1098 15.5384C51.4978 15.4613 51.8999 15.5009 52.2654 15.6522C52.6308 15.8036 52.9432 16.06 53.1629 16.3889C53.3827 16.7178 53.5 17.1044 53.5 17.5C53.5 18.0304 53.2893 18.5391 52.9142 18.9142C52.5391 19.2893 52.0304 19.5 51.5 19.5ZM60.5 15.5C60.1044 15.5 59.7178 15.6173 59.3889 15.8371C59.06 16.0568 58.8036 16.3692 58.6522 16.7346C58.5009 17.1001 58.4613 17.5022 58.5384 17.8902C58.6156 18.2781 58.8061 18.6345 59.0858 18.9142C59.3655 19.1939 59.7219 19.3844 60.1098 19.4616C60.4978 19.5387 60.8999 19.4991 61.2654 19.3478C61.6308 19.1964 61.9432 18.94 62.1629 18.6111C62.3827 18.2822 62.5 17.8956 62.5 17.5C62.5 16.9696 62.2893 16.4609 61.9142 16.0858C61.5391 15.7107 61.0304 15.5 60.5 15.5ZM69.5 16C69.5 18.67 68.7082 21.2801 67.2248 23.5002C65.7414 25.7203 63.633 27.4506 61.1662 28.4724C58.6994 29.4942 55.985 29.7615 53.3663 29.2406C50.7475 28.7197 48.3421 27.434 46.4541 25.5459C44.5661 23.6579 43.2803 21.2525 42.7594 18.6337C42.2385 16.015 42.5058 13.3006 43.5276 10.8338C44.5494 8.36697 46.2797 6.25856 48.4998 4.77516C50.7199 3.29176 53.33 2.5 56 2.5C59.5792 2.50397 63.0107 3.92756 65.5416 6.45844C68.0724 8.98932 69.496 12.4208 69.5 16ZM66.5 16C66.5 13.9233 65.8842 11.8932 64.7304 10.1665C63.5767 8.4398 61.9368 7.09399 60.0182 6.29926C58.0996 5.50454 55.9884 5.29661 53.9516 5.70175C51.9148 6.1069 50.0438 7.10693 48.5754 8.57538C47.1069 10.0438 46.1069 11.9148 45.7018 13.9516C45.2966 15.9884 45.5046 18.0996 46.2993 20.0182C47.094 21.9368 48.4398 23.5767 50.1665 24.7304C51.8932 25.8842 53.9233 26.5 56 26.5C58.7839 26.497 61.4529 25.3898 63.4213 23.4213C65.3898 21.4528 66.497 18.7839 66.5 16ZM50.6675 12.75L55.1675 15.75C55.414 15.9145 55.7037 16.0022 56 16.0022C56.2963 16.0022 56.586 15.9145 56.8325 15.75L61.3325 12.75C61.664 12.5292 61.8943 12.1858 61.9726 11.7952C62.0509 11.4047 61.9708 10.999 61.75 10.6675C61.5292 10.336 61.1858 10.1057 60.7952 10.0275C60.4047 9.94915 59.999 10.0292 59.6675 10.25L56 12.6975L52.3325 10.25C52.001 10.0292 51.5953 9.94915 51.2048 10.0275C50.8142 10.1057 50.4708 10.336 50.25 10.6675C50.0292 10.999 49.9492 11.4047 50.0275 11.7952C50.1058 12.1858 50.336 12.5292 50.6675 12.75ZM59.25 20.89C58.2657 20.3083 57.1433 20.0014 56 20.0014C54.8567 20.0014 53.7343 20.3083 52.75 20.89C52.5707 20.9838 52.4123 21.1128 52.2842 21.2694C52.1561 21.426 52.0611 21.6069 52.0047 21.8012C51.9483 21.9955 51.9318 22.1992 51.9562 22.4C51.9806 22.6008 52.0454 22.7946 52.1466 22.9698C52.2479 23.1449 52.3835 23.2978 52.5454 23.4192C52.7072 23.5405 52.8919 23.6279 53.0884 23.6761C53.2849 23.7242 53.4891 23.7321 53.6887 23.6992C53.8884 23.6664 54.0793 23.5935 54.25 23.485C54.7783 23.1668 55.3833 22.9986 56 22.9986C56.6167 22.9986 57.2218 23.1668 57.75 23.485C57.9207 23.5935 58.1116 23.6664 58.3113 23.6992C58.5109 23.7321 58.7151 23.7242 58.9116 23.6761C59.1081 23.6279 59.2928 23.5405 59.4547 23.4192C59.6165 23.2978 59.7521 23.1449 59.8534 22.9698C59.9546 22.7946 60.0194 22.6008 60.0438 22.4C60.0682 22.1992 60.0517 21.9955 59.9953 21.8012C59.939 21.6069 59.8439 21.426 59.7158 21.2694C59.5877 21.1128 59.4293 20.9838 59.25 20.89Z" fill="white"/>
</g>
<defs>
<clipPath id="clip0_27_3322">
<rect width="72" height="32" rx="5" fill="white"/>
</clipPath>
</defs>
</svg>
