<svg width="72" height="32" viewBox="0 0 72 32" fill="none" xmlns="http://www.w3.org/2000/svg">
<g clip-path="url(#clip0_27_1492)">
<path d="M28.5812 16.1387L25.0737 14.97C24.9673 14.9329 24.8515 14.9329 24.745 14.97L19.3412 16.935C19.2321 16.9761 19.1166 16.998 19 17C18.781 16.9999 18.5682 16.9279 18.3941 16.7951C18.22 16.6624 18.0943 16.4761 18.0362 16.265C17.9731 16.0174 18.0051 15.7551 18.1259 15.53C18.2467 15.3048 18.4475 15.1331 18.6887 15.0487L21 14.2087C21.0621 14.1864 21.1157 14.1452 21.1533 14.0909C21.1909 14.0367 21.2107 13.9721 21.2098 13.9061C21.209 13.8401 21.1876 13.776 21.1487 13.7227C21.1097 13.6694 21.0551 13.6296 20.9925 13.6087C20.5828 13.472 20.2075 13.2481 19.8925 12.9525C19.8252 12.8862 19.7406 12.8404 19.6483 12.8203C19.5561 12.8002 19.46 12.8066 19.3713 12.8387L16.3438 13.9387C16.2141 13.9858 16.0761 14.0055 15.9384 13.9967C15.8008 13.9878 15.6665 13.9506 15.5439 13.8873C15.4213 13.824 15.3132 13.7361 15.2262 13.629C15.1393 13.5219 15.0755 13.3979 15.0387 13.265C14.9756 13.0174 15.0076 12.7551 15.1284 12.53C15.2492 12.3048 15.4501 12.1331 15.6912 12.0487L18.25 11.1162C18.314 11.093 18.3726 11.0569 18.4222 11.0103C18.4718 10.9636 18.5113 10.9073 18.5383 10.8448C18.5653 10.7823 18.5793 10.7149 18.5794 10.6468C18.5795 10.5787 18.5656 10.5113 18.5387 10.4487L18.1562 9.55374C18.1061 9.43598 18.0126 9.34195 17.8952 9.29102C17.7778 9.24009 17.6453 9.23614 17.525 9.27999L14.3375 10.4387C14.2078 10.4858 14.0698 10.5055 13.9322 10.4967C13.7945 10.4878 13.6602 10.4506 13.5376 10.3873C13.4151 10.324 13.3069 10.2361 13.22 10.129C13.1331 10.0219 13.0692 9.89795 13.0325 9.76499C12.9694 9.51739 13.0014 9.25512 13.1222 9.02995C13.243 8.80479 13.4438 8.63309 13.685 8.54874L16.685 7.45749C16.7489 7.43424 16.8073 7.39822 16.8568 7.35162C16.9062 7.30503 16.9457 7.24884 16.9727 7.18649C16.9997 7.12413 17.0138 7.05693 17.0139 6.98897C17.0141 6.92101 17.0004 6.85373 16.9737 6.79124L16.2987 5.19999C16.2987 5.19999 16.2987 5.19124 16.2987 5.18749C16.0922 4.7241 15.7172 4.35655 15.2497 4.15928C14.7823 3.962 14.2574 3.94974 13.7812 4.12499L4.31625 7.56124C3.93091 7.70238 3.59813 7.95828 3.36276 8.29445C3.1274 8.63061 3.00079 9.03087 3 9.44124V24C3 24.5304 3.21071 25.0391 3.58579 25.4142C3.96086 25.7893 4.46957 26 5 26H30C30.5304 26 31.0391 25.7893 31.4142 25.4142C31.7893 25.0391 32 24.5304 32 24V20.8825C32.0001 19.833 31.6699 18.8102 31.0564 17.9588C30.4428 17.1074 29.5768 16.4706 28.5812 16.1387ZM30 24H5V22H30V24Z" fill="white"/>
<path d="M71.975 20.3662V20.3275C71.8686 19.2749 71.4605 18.2753 70.7997 17.4491C70.1389 16.6229 69.2535 16.0051 68.25 15.67L61.1725 13.145L61.1425 13.1337C60.8145 13.0244 60.5127 12.8482 60.2562 12.6162C59.9997 12.3843 59.7942 12.1017 59.6525 11.7862L56.7575 4.99998L56.75 4.97998C56.4908 4.4035 56.0234 3.94619 55.4414 3.69958C54.8594 3.45296 54.2057 3.43525 53.6112 3.64998L44.1462 7.09123C43.6645 7.26761 43.2484 7.58745 42.954 8.00765C42.6596 8.42785 42.5012 8.92819 42.5 9.44123V24C42.5 24.663 42.7634 25.2989 43.2322 25.7677C43.7011 26.2366 44.337 26.5 45 26.5H69.5C70.163 26.5 70.7989 26.2366 71.2678 25.7677C71.7366 25.2989 72 24.663 72 24V20.8825C72 20.7087 71.9913 20.5375 71.975 20.3662ZM54.1912 6.63123L54.9412 8.38123L52.9875 9.08998C52.7985 9.15423 52.6242 9.25556 52.4748 9.38805C52.3254 9.52054 52.204 9.68151 52.1177 9.86153C52.0314 10.0415 51.9818 10.237 51.972 10.4364C51.9622 10.6358 51.9923 10.8352 52.0605 11.0228C52.1287 11.2104 52.2337 11.3826 52.3694 11.5291C52.505 11.6756 52.6685 11.7936 52.8503 11.8761C53.0321 11.9586 53.2285 12.004 53.4281 12.0096C53.6277 12.0152 53.8264 11.9809 54.0125 11.9087L56.125 11.1425L56.6925 12.4712L54.9925 13.0962C54.6654 13.2193 54.3916 13.4527 54.2183 13.7562C54.0449 14.0597 53.983 14.4141 54.0432 14.7584C54.1033 15.1026 54.2818 15.4151 54.5478 15.6417C54.8138 15.8684 55.1506 15.9951 55.5 16C55.6749 16.0002 55.8484 15.9693 56.0125 15.9087L58.4587 15.02C58.9713 15.4399 59.5558 15.7635 60.1838 15.975L67.2612 18.5L67.29 18.51C67.6047 18.6143 67.8954 18.7804 68.145 18.9987H45.5V9.79123L54.1912 6.63123ZM45.5 23.5V22H69V23.5H45.5Z" fill="white"/>
</g>
<defs>
<clipPath id="clip0_27_1492">
<rect width="72" height="32" rx="5" fill="white"/>
</clipPath>
</defs>
</svg>
