<svg width="72" height="32" viewBox="0 0 72 32" fill="none" xmlns="http://www.w3.org/2000/svg">
<g clip-path="url(#clip0_27_1497)">
<path d="M8.85 23H4C3.73478 23 3.48043 22.8947 3.29289 22.7071C3.10536 22.5196 3 22.2652 3 22C3 21.7348 3.10536 21.4804 3.29289 21.2929C3.48043 21.1054 3.73478 21 4 21H8.85C9.11522 21 9.36957 21.1054 9.55711 21.2929C9.74464 21.4804 9.85 21.7348 9.85 22C9.85 22.2652 9.74464 22.5196 9.55711 22.7071C9.36957 22.8947 9.11522 23 8.85 23ZM12.85 25H6C5.73478 25 5.48043 25.1054 5.29289 25.2929C5.10536 25.4804 5 25.7348 5 26C5 26.2652 5.10536 26.5196 5.29289 26.7071C5.48043 26.8947 5.73478 27 6 27H12.85C13.1152 27 13.3696 26.8947 13.5571 26.7071C13.7446 26.5196 13.85 26.2652 13.85 26C13.85 25.7348 13.7446 25.4804 13.5571 25.2929C13.3696 25.1054 13.1152 25 12.85 25ZM28.895 20.8288L25.3162 19.04C24.3174 18.5447 23.4772 17.7794 22.8911 16.8309C22.305 15.8824 21.9963 14.7887 22 13.6738V10C22 9.73631 21.8959 9.48327 21.7102 9.29598C21.5246 9.1087 21.2724 9.00232 21.0088 9.00002C19.418 9.00068 17.8919 8.37024 16.7654 7.24702C15.6389 6.1238 15.004 4.59956 15 3.00877C15.0015 2.82199 14.9506 2.63854 14.8531 2.47919C14.7557 2.31985 14.6156 2.19098 14.4486 2.10719C14.2817 2.0234 14.0946 1.98803 13.9086 2.0051C13.7226 2.02217 13.5451 2.09099 13.3962 2.20377L5.63875 8.08502C5.58218 8.12819 5.53548 8.18294 5.50176 8.2456C5.46805 8.30827 5.4481 8.37741 5.44325 8.44841C5.43839 8.5194 5.44875 8.59062 5.47363 8.65729C5.49851 8.72396 5.53733 8.78455 5.5875 8.83502L12.0175 15.265C12.2019 15.4444 12.312 15.6866 12.3259 15.9435C12.3398 16.2004 12.2564 16.453 12.0925 16.6513C12.0027 16.7553 11.8924 16.8397 11.7684 16.8992C11.6445 16.9587 11.5097 16.992 11.3723 16.997C11.235 17.0021 11.0981 16.9787 10.9701 16.9285C10.8422 16.8783 10.726 16.8022 10.6287 16.705L4.00375 10.08C3.94732 10.0233 3.87811 9.98102 3.80194 9.95663C3.72576 9.93223 3.64485 9.92646 3.56599 9.93981C3.48713 9.95316 3.41262 9.98523 3.34872 10.0333C3.28482 10.0814 3.23339 10.1442 3.19875 10.2163C3.02013 10.5896 2.96172 11.0091 3.03157 11.417C3.10142 11.8249 3.2961 12.2011 3.58875 12.4938L17.8 26.7075C17.8929 26.8004 18.0033 26.874 18.1247 26.9242C18.246 26.9743 18.3761 27.0001 18.5075 27H28C28.5304 27 29.0391 26.7893 29.4142 26.4142C29.7893 26.0392 30 25.5304 30 25V22.6175C30.0012 22.2459 29.8983 21.8814 29.703 21.5653C29.5077 21.2492 29.2278 20.994 28.895 20.8288Z" fill="white"/>
<path d="M69.1175 20.3825L65.54 18.5938C64.6244 18.1394 63.8543 17.4377 63.317 16.5682C62.7797 15.6986 62.4967 14.6959 62.5 13.6738V10C62.5 9.60219 62.342 9.22066 62.0607 8.93936C61.7794 8.65805 61.3978 8.50002 61 8.50002C59.5418 8.49836 58.1438 7.91837 57.1127 6.88728C56.0816 5.85619 55.5017 4.4582 55.5 3.00002C55.4999 2.72081 55.422 2.44716 55.2748 2.20986C55.1277 1.97257 54.9173 1.78105 54.6672 1.65686C54.4171 1.53267 54.1374 1.48074 53.8594 1.50691C53.5814 1.53309 53.3162 1.63633 53.0938 1.80502L43.4688 9.10627L43.4313 9.13502C43.1588 9.35546 42.9358 9.63071 42.7767 9.94291C42.6175 10.2551 42.5257 10.5973 42.5074 10.9472C42.489 11.2972 42.5444 11.6471 42.6699 11.9742C42.7955 12.3014 42.9884 12.5985 43.2362 12.8463L57.4463 27.0613C57.5857 27.2005 57.7511 27.3109 57.9332 27.3862C58.1153 27.4615 58.3105 27.5002 58.5075 27.5H68C68.663 27.5 69.2989 27.2366 69.7678 26.7678C70.2366 26.2989 70.5 25.6631 70.5 25V22.6175C70.5015 22.153 70.3727 21.6974 70.1284 21.3023C69.884 20.9073 69.5338 20.5886 69.1175 20.3825ZM67.5 24.5H59.125L45.76 11.1313L47.3675 9.91127L52.5175 15.0613C52.7993 15.3431 53.1815 15.5014 53.58 15.5014C53.9785 15.5014 54.3607 15.3431 54.6425 15.0613C54.9243 14.7795 55.0826 14.3973 55.0826 13.9988C55.0826 13.6003 54.9243 13.2181 54.6425 12.9363L49.7812 8.08127L52.9362 5.68877C53.422 7.13608 54.2873 8.4265 55.4419 9.42537C56.5964 10.4242 57.9979 11.095 59.5 11.3675V13.6738C59.4945 15.2535 59.9319 16.8031 60.7624 18.1468C61.5929 19.4906 62.7834 20.5747 64.1987 21.2763L67.5 22.9275V24.5ZM46.9363 23H44C43.6022 23 43.2206 22.842 42.9393 22.5607C42.658 22.2794 42.5 21.8978 42.5 21.5C42.5 21.1022 42.658 20.7207 42.9393 20.4394C43.2206 20.1581 43.6022 20 44 20H46.9363C47.3341 20 47.7156 20.1581 47.9969 20.4394C48.2782 20.7207 48.4362 21.1022 48.4362 21.5C48.4362 21.8978 48.2782 22.2794 47.9969 22.5607C47.7156 22.842 47.3341 23 46.9363 23ZM52.9362 26C52.9362 26.3978 52.7782 26.7794 52.4969 27.0607C52.2156 27.342 51.8341 27.5 51.4362 27.5H46C45.6022 27.5 45.2206 27.342 44.9393 27.0607C44.658 26.7794 44.5 26.3978 44.5 26C44.5 25.6022 44.658 25.2207 44.9393 24.9394C45.2206 24.6581 45.6022 24.5 46 24.5H51.4362C51.8341 24.5 52.2156 24.6581 52.4969 24.9394C52.7782 25.2207 52.9362 25.6022 52.9362 26Z" fill="white"/>
</g>
<defs>
<clipPath id="clip0_27_1497">
<rect width="72" height="32" rx="5" fill="white"/>
</clipPath>
</defs>
</svg>
