<svg width="72" height="32" viewBox="0 0 72 32" fill="none" xmlns="http://www.w3.org/2000/svg">
<g clip-path="url(#clip0_27_4855)">
<path d="M16 3C13.4288 3 10.9154 3.76244 8.77759 5.1909C6.63975 6.61935 4.97351 8.64968 3.98957 11.0251C3.00563 13.4006 2.74819 16.0144 3.2498 18.5362C3.75141 21.0579 4.98953 23.3743 6.80762 25.1924C8.6257 27.0105 10.9421 28.2486 13.4638 28.7502C15.9856 29.2518 18.5995 28.9944 20.9749 28.0104C23.3503 27.0265 25.3807 25.3603 26.8091 23.2224C28.2376 21.0846 29 18.5712 29 16C28.9964 12.5533 27.6256 9.24882 25.1884 6.81163C22.7512 4.37445 19.4467 3.00364 16 3ZM17 7.9225L20.0988 5.79125C21.8729 6.50593 23.4312 7.66884 24.6213 9.16625L23.6213 12.5337C23.5963 12.5337 23.57 12.5463 23.545 12.555L20.6925 13.4812C20.6497 13.4949 20.6079 13.5116 20.5675 13.5312L17 11.0775C17 11.0525 17 11.0262 17 11V8C17 7.97375 17 7.9475 17 7.9225ZM11.905 5.79125L15 7.9225C15 7.9475 15 7.97375 15 8V11C15 11.0262 15 11.0525 15 11.0775L11.43 13.5363C11.3896 13.5166 11.3478 13.4999 11.305 13.4862L8.45251 12.56C8.42751 12.5513 8.40126 12.545 8.37626 12.5387L7.37626 9.17125C8.5674 7.67114 10.128 6.50639 11.905 5.79125ZM10.28 21.9275H6.73751C5.70054 20.3152 5.10606 18.4585 5.01376 16.5438L7.76376 14.4338C7.78741 14.4442 7.81161 14.4534 7.83626 14.4613L10.69 15.3888C10.7282 15.4003 10.767 15.4095 10.8063 15.4163L12.155 19.3438C12.1363 19.3662 12.1175 19.3888 12.1 19.4125L10.3375 21.8388C10.3167 21.8673 10.2976 21.8969 10.28 21.9275ZM18.8363 26.625C16.9778 27.12 15.0222 27.12 13.1638 26.625L11.9063 23.075C11.9225 23.055 11.94 23.0362 11.955 23.015L13.7188 20.5875C13.7395 20.5594 13.7587 20.5302 13.7763 20.5H18.2238C18.2413 20.5302 18.2605 20.5594 18.2813 20.5875L20.045 23.015C20.06 23.0362 20.0775 23.055 20.0938 23.075L18.8363 26.625ZM21.72 21.9237C21.7025 21.8931 21.6833 21.8635 21.6625 21.835L19.8988 19.4125C19.8813 19.3888 19.8625 19.3662 19.8438 19.3438L21.1925 15.4163C21.2318 15.4095 21.2706 15.4003 21.3088 15.3888L24.1625 14.4613C24.1871 14.4534 24.2113 14.4442 24.235 14.4338L26.985 16.5438C26.8927 18.4585 26.2982 20.3152 25.2613 21.9275L21.72 21.9237Z" fill="white"/>
<path d="M56 2.5C53.33 2.5 50.7199 3.29176 48.4998 4.77516C46.2797 6.25856 44.5494 8.36697 43.5276 10.8338C42.5058 13.3006 42.2385 16.015 42.7594 18.6337C43.2803 21.2525 44.5661 23.6579 46.4541 25.5459C48.3421 27.434 50.7475 28.7197 53.3663 29.2406C55.985 29.7615 58.6994 29.4942 61.1662 28.4724C63.633 27.4506 65.7414 25.7203 67.2248 23.5002C68.7082 21.2801 69.5 18.67 69.5 16C69.496 12.4208 68.0724 8.98932 65.5416 6.45844C63.0107 3.92756 59.5792 2.50397 56 2.5ZM64.985 21.4275H61.985L60.7625 19.75L62.175 15.6325L64.1438 15L66.4688 16.7825C66.3482 18.4263 65.8398 20.0182 64.985 21.4275ZM45.5313 16.7763L47.8563 15L49.825 15.6388L51.2375 19.75L50.0188 21.4275H47.0188C46.1618 20.0167 45.6519 18.4226 45.5313 16.7763ZM53.9813 18.5L52.7888 15.0288L56 12.82L59.2113 15.0288L58.0188 18.5H53.9813ZM64.0638 9.28375L63.2163 12.14L61.24 12.7825L57.5 10.2113V8.1825L60.1525 6.35875C61.6674 7.01387 63.0072 8.0158 64.0638 9.28375ZM51.8475 6.35875L54.5 8.1825V10.2113L50.76 12.7825L48.7838 12.14L47.9363 9.28375C48.9929 8.0158 50.3326 7.01387 51.8475 6.35875ZM53.545 26.2075L52.4675 23.1612L53.6738 21.5H58.3263L59.5325 23.1612L58.455 26.2075C56.8416 26.5975 55.1584 26.5975 53.545 26.2075Z" fill="white"/>
</g>
<defs>
<clipPath id="clip0_27_4855">
<rect width="72" height="32" rx="5" fill="white"/>
</clipPath>
</defs>
</svg>
