<svg width="72" height="32" viewBox="0 0 72 32" fill="none" xmlns="http://www.w3.org/2000/svg">
<g clip-path="url(#clip0_27_1512)">
<path d="M30.895 15.5525L25.895 5.5525C25.8119 5.38636 25.6841 5.24667 25.526 5.14908C25.3679 5.05149 25.1858 4.99987 25 5H7C6.81422 4.99987 6.63208 5.05149 6.47399 5.14908C6.31591 5.24667 6.18814 5.38636 6.105 5.5525L1.105 15.5525C1.03607 15.6916 1.00014 15.8447 1 16V23C1 23.5304 1.21071 24.0391 1.58579 24.4142C1.96086 24.7893 2.46957 25 3 25H29C29.5304 25 30.0391 24.7893 30.4142 24.4142C30.7893 24.0391 31 23.5304 31 23V16C30.9999 15.8447 30.9639 15.6916 30.895 15.5525ZM12.3825 7L13.8825 10H10.1175L8.6175 7H12.3825ZM18.3825 7L19.8825 10H16.1175L14.6175 7H18.3825ZM12.6175 15L11.1175 12H14.8825L16.3825 15H12.6175ZM18.6175 15L17.1175 12H20.8825L22.3825 15H18.6175ZM24.6175 15L23.1175 12H26.8825L28.3825 15H24.6175ZM25.8825 10H22.1175L20.6175 7H24.3825L25.8825 10ZM13 23V17H29V23H13Z" fill="white"/>
<path d="M71.3412 15.3287L66.3412 5.32875C66.2166 5.07973 66.0252 4.87031 65.7883 4.72394C65.5514 4.57757 65.2785 4.50003 65 4.5H47C46.7215 4.50003 46.4486 4.57757 46.2117 4.72394C45.9748 4.87031 45.7834 5.07973 45.6588 5.32875L40.6587 15.3287C40.5544 15.5371 40.5001 15.767 40.5 16V23C40.5 23.663 40.7634 24.2989 41.2322 24.7678C41.4644 24.9999 41.74 25.1841 42.0433 25.3097C42.3466 25.4353 42.6717 25.5 43 25.5H69C69.663 25.5 70.2989 25.2366 70.7678 24.7678C71.2366 24.2989 71.5 23.663 71.5 23V16C71.4999 15.767 71.4456 15.5371 71.3412 15.3287ZM52.0725 7.5L53.0725 9.5H50.4275L49.4275 7.5H52.0725ZM58.0725 7.5L59.0725 9.5H56.4275L55.4275 7.5H58.0725ZM52.9275 14.5L51.9275 12.5H54.5725L55.5725 14.5H52.9275ZM58.9275 14.5L57.9275 12.5H60.5725L61.5725 14.5H58.9275ZM64.9275 14.5L63.9275 12.5H66.5725L67.5725 14.5H64.9275ZM65.0725 9.5H62.4275L61.4275 7.5H64.0725L65.0725 9.5ZM43.5 16.3538L47 9.35375L50.5 16.3538V22.5H43.5V16.3538ZM53.5 22.5V17.5H68.5V22.5H53.5Z" fill="white"/>
</g>
<defs>
<clipPath id="clip0_27_1512">
<rect width="72" height="32" rx="5" fill="white"/>
</clipPath>
</defs>
</svg>
