<svg width="72" height="32" viewBox="0 0 72 32" fill="none" xmlns="http://www.w3.org/2000/svg">
<g clip-path="url(#clip0_27_1507)">
<path d="M3.99992 13C3.99992 12.7348 4.10528 12.4804 4.29282 12.2929C4.48035 12.1054 4.73471 12 4.99992 12H6.99992C7.26514 12 7.51949 12.1054 7.70703 12.2929C7.89457 12.4804 7.99992 12.7348 7.99992 13C7.99992 13.2652 7.89457 13.5196 7.70703 13.7071C7.51949 13.8946 7.26514 14 6.99992 14H4.99992C4.73471 14 4.48035 13.8946 4.29282 13.7071C4.10528 13.5196 3.99992 13.2652 3.99992 13ZM8.92867 7.34375C9.11631 7.53139 9.37081 7.63681 9.63617 7.63681C9.90154 7.63681 10.156 7.53139 10.3437 7.34375C10.5313 7.15611 10.6367 6.90161 10.6367 6.63625C10.6367 6.37089 10.5313 6.11639 10.3437 5.92875L8.92867 4.515C8.73961 4.33538 8.48786 4.23672 8.2271 4.24006C7.96634 4.2434 7.7172 4.34847 7.53279 4.53287C7.34839 4.71727 7.24332 4.96641 7.23998 5.22718C7.23664 5.48794 7.3353 5.73969 7.51492 5.92875L8.92867 7.34375ZM15.9999 5C16.2651 5 16.5195 4.89464 16.707 4.70711C16.8946 4.51957 16.9999 4.26522 16.9999 4V2C16.9999 1.73478 16.8946 1.48043 16.707 1.29289C16.5195 1.10536 16.2651 1 15.9999 1C15.7347 1 15.4804 1.10536 15.2928 1.29289C15.1053 1.48043 14.9999 1.73478 14.9999 2V4C14.9999 4.26522 15.1053 4.51957 15.2928 4.70711C15.4804 4.89464 15.7347 5 15.9999 5ZM22.3637 7.63625C22.495 7.63635 22.6251 7.61057 22.7465 7.56039C22.8679 7.5102 22.9782 7.43658 23.0712 7.34375L24.4849 5.92875C24.6645 5.73969 24.7632 5.48794 24.7599 5.22718C24.7565 4.96641 24.6515 4.71727 24.4671 4.53287C24.2827 4.34847 24.0335 4.2434 23.7727 4.24006C23.512 4.23672 23.2602 4.33538 23.0712 4.515L21.6562 5.92875C21.5162 6.06861 21.4208 6.24686 21.3821 6.44094C21.3435 6.63503 21.3633 6.83622 21.4391 7.01904C21.5148 7.20186 21.6431 7.3581 21.8077 7.46797C21.9723 7.57784 22.1658 7.63641 22.3637 7.63625ZM23.9999 13C23.9999 13.2652 24.1053 13.5196 24.2928 13.7071C24.4804 13.8946 24.7347 14 24.9999 14H26.9999C27.2651 14 27.5195 13.8946 27.707 13.7071C27.8946 13.5196 27.9999 13.2652 27.9999 13C27.9999 12.7348 27.8946 12.4804 27.707 12.2929C27.5195 12.1054 27.2651 12 26.9999 12H24.9999C24.7347 12 24.4804 12.1054 24.2928 12.2929C24.1053 12.4804 23.9999 12.7348 23.9999 13ZM10.9999 14C11.2651 14 11.5195 13.8946 11.707 13.7071C11.8946 13.5196 11.9999 13.2652 11.9999 13C11.9999 11.9391 12.4213 10.9217 13.1715 10.1716C13.9216 9.42143 14.9391 9 15.9999 9C17.0608 9 18.0782 9.42143 18.8284 10.1716C19.5785 10.9217 19.9999 11.9391 19.9999 13C19.9999 13.2652 20.1053 13.5196 20.2928 13.7071C20.4804 13.8946 20.7347 14 20.9999 14C21.2651 14 21.5195 13.8946 21.707 13.7071C21.8946 13.5196 21.9999 13.2652 21.9999 13C21.9999 11.4087 21.3678 9.88258 20.2426 8.75736C19.1173 7.63214 17.5912 7 15.9999 7C14.4086 7 12.8825 7.63214 11.7573 8.75736C10.6321 9.88258 9.99992 11.4087 9.99992 13C9.99992 13.2652 10.1053 13.5196 10.2928 13.7071C10.4804 13.8946 10.7347 14 10.9999 14ZM17.8999 17H14.0999C13.9857 17 13.875 17.039 13.7861 17.1106C13.6972 17.1823 13.6354 17.2822 13.6112 17.3937L12.8274 21H19.1724L18.3887 17.3937C18.3644 17.2822 18.3027 17.1823 18.2138 17.1106C18.1249 17.039 18.0141 17 17.8999 17ZM3.96867 23.25L2.12492 26.5075C2.01935 26.694 1.97646 26.9094 2.00257 27.122C2.02867 27.3347 2.12239 27.5334 2.26992 27.6887C2.36723 27.7889 2.48392 27.8681 2.61287 27.9216C2.74182 27.9751 2.88032 28.0018 3.01992 28H8.85617C8.97035 28 9.08111 27.961 9.17002 27.8894C9.25894 27.8177 9.32066 27.7178 9.34492 27.6063L10.3449 23H4.40367C4.31557 22.9997 4.22894 23.0226 4.15255 23.0665C4.07616 23.1104 4.01273 23.1737 3.96867 23.25ZM29.8699 26.5L28.0312 23.25C27.9871 23.1737 27.9237 23.1104 27.8473 23.0665C27.7709 23.0226 27.6843 22.9997 27.5962 23H21.6537L22.6537 27.6063C22.6779 27.7178 22.7397 27.8177 22.8286 27.8894C22.9175 27.961 23.0282 28 23.1424 28H28.9699C29.1095 28.0018 29.248 27.9751 29.377 27.9216C29.5059 27.8681 29.6226 27.7889 29.7199 27.6887C29.869 27.5345 29.9646 27.3364 29.9925 27.1237C30.0204 26.911 29.9792 26.695 29.8749 26.5075L29.8699 26.5ZM26.3362 20.25L24.7837 17.5C24.6961 17.3453 24.5689 17.2167 24.4151 17.1275C24.2613 17.0383 24.0865 16.9917 23.9087 16.9925H20.9699C20.8952 16.9925 20.8215 17.0092 20.7541 17.0414C20.6867 17.0736 20.6274 17.1205 20.5805 17.1787C20.5336 17.2368 20.5004 17.3048 20.4832 17.3774C20.466 17.4501 20.4653 17.5258 20.4812 17.5987L21.2187 20.9925H25.8999C25.9869 20.9923 26.0723 20.9695 26.1477 20.9262C26.2231 20.8829 26.286 20.8208 26.33 20.7458C26.3741 20.6708 26.3978 20.5857 26.3989 20.4987C26.4 20.4118 26.3783 20.326 26.3362 20.25ZM11.0299 17H8.08742C7.90963 16.9992 7.73482 17.0458 7.58102 17.135C7.42722 17.2242 7.29999 17.3528 7.21242 17.5075L5.66367 20.25C5.61965 20.3262 5.59654 20.4128 5.59668 20.5008C5.59682 20.5889 5.62021 20.6753 5.66448 20.7514C5.70875 20.8275 5.77233 20.8906 5.84879 20.9342C5.92525 20.9779 6.01188 21.0006 6.09992 21H10.7812L11.5187 17.6063C11.5345 17.5333 11.5339 17.4576 11.5167 17.3849C11.4995 17.3123 11.4662 17.2443 11.4193 17.1862C11.3725 17.128 11.3132 17.0811 11.2458 17.0489C11.1784 17.0167 11.1046 17 11.0299 17ZM19.6074 23H12.3924L11.4374 27.3937C11.4215 27.4667 11.4222 27.5424 11.4394 27.6151C11.4566 27.6877 11.4899 27.7557 11.5367 27.8138C11.5836 27.872 11.6429 27.9189 11.7103 27.9511C11.7777 27.9833 11.8515 28 11.9262 28H20.0737C20.1484 28 20.2221 27.9833 20.2895 27.9511C20.3569 27.9189 20.4162 27.872 20.4631 27.8138C20.51 27.7557 20.5432 27.6877 20.5604 27.6151C20.5776 27.5424 20.5783 27.4667 20.5624 27.3937L19.6074 23Z" fill="white"/>
<path d="M44.0001 12.5C44.0001 12.1022 44.1581 11.7206 44.4394 11.4393C44.7207 11.158 45.1023 11 45.5001 11H46.5001C46.8979 11 47.2794 11.158 47.5607 11.4393C47.842 11.7206 48.0001 12.1022 48.0001 12.5C48.0001 12.8978 47.842 13.2794 47.5607 13.5607C47.2794 13.842 46.8979 14 46.5001 14H45.5001C45.1023 14 44.7207 13.842 44.4394 13.5607C44.1581 13.2794 44.0001 12.8978 44.0001 12.5ZM56.0001 4.5C56.3979 4.5 56.7794 4.34196 57.0607 4.06066C57.342 3.77936 57.5001 3.39782 57.5001 3V2C57.5001 1.60218 57.342 1.22064 57.0607 0.93934C56.7794 0.658035 56.3979 0.5 56.0001 0.5C55.6023 0.5 55.2207 0.658035 54.9394 0.93934C54.6581 1.22064 54.5001 1.60218 54.5001 2V3C54.5001 3.39782 54.6581 3.77936 54.9394 4.06066C55.2207 4.34196 55.6023 4.5 56.0001 4.5ZM48.2213 6.8425C48.3609 6.98203 48.5265 7.09271 48.7088 7.16822C48.8911 7.24374 49.0865 7.2826 49.2838 7.2826C49.4811 7.2826 49.6765 7.24374 49.8588 7.16822C50.0412 7.09271 50.2068 6.98203 50.3463 6.8425C50.4859 6.70297 50.5965 6.53732 50.672 6.35502C50.7476 6.17272 50.7864 5.97732 50.7864 5.78C50.7864 5.58268 50.7476 5.38728 50.672 5.20498C50.5965 5.02268 50.4859 4.85703 50.3463 4.7175L49.6388 4.01125C49.4993 3.87172 49.3336 3.76104 49.1513 3.68553C48.969 3.61001 48.7736 3.57115 48.5763 3.57115C48.379 3.57115 48.1836 3.61001 48.0013 3.68553C47.819 3.76104 47.6534 3.87172 47.5138 4.01125C47.232 4.29304 47.0737 4.67524 47.0737 5.07375C47.0737 5.47226 47.232 5.85446 47.5138 6.13625L48.2213 6.8425ZM62.7213 7.2825C62.9185 7.28249 63.1136 7.24363 63.2957 7.16813C63.4778 7.09263 63.6433 6.98198 63.7826 6.8425L64.4888 6.13625C64.6284 5.99672 64.739 5.83107 64.8145 5.64877C64.8901 5.46647 64.9289 5.27107 64.9289 5.07375C64.9289 4.87643 64.8901 4.68103 64.8145 4.49873C64.739 4.31643 64.6284 4.15078 64.4888 4.01125C64.3493 3.87172 64.1836 3.76104 64.0013 3.68553C63.819 3.61001 63.6236 3.57115 63.4263 3.57115C63.0278 3.57115 62.6456 3.72946 62.3638 4.01125L61.6563 4.7175C61.4463 4.92728 61.3033 5.19466 61.2453 5.48579C61.1873 5.77692 61.217 6.0787 61.3306 6.35294C61.4443 6.62717 61.6367 6.86152 61.8836 7.02633C62.1305 7.19114 62.4207 7.27898 62.7176 7.27875L62.7213 7.2825ZM64.0001 12.5C64.0001 12.8978 64.1581 13.2794 64.4394 13.5607C64.7207 13.842 65.1022 14 65.5001 14H66.5001C66.8979 14 67.2794 13.842 67.5607 13.5607C67.842 13.2794 68.0001 12.8978 68.0001 12.5C68.0001 12.1022 67.842 11.7206 67.5607 11.4393C67.2794 11.158 66.8979 11 66.5001 11H65.5001C65.1022 11 64.7207 11.158 64.4394 11.4393C64.1581 11.7206 64.0001 12.1022 64.0001 12.5ZM51.0001 14C51.3979 14 51.7794 13.842 52.0607 13.5607C52.342 13.2794 52.5001 12.8978 52.5001 12.5C52.5001 11.5717 52.8688 10.6815 53.5252 10.0251C54.1816 9.36875 55.0718 9 56.0001 9C56.9283 9 57.8186 9.36875 58.4749 10.0251C59.1313 10.6815 59.5001 11.5717 59.5001 12.5C59.5001 12.8978 59.6581 13.2794 59.9394 13.5607C60.2207 13.842 60.6022 14 61.0001 14C61.3979 14 61.7794 13.842 62.0607 13.5607C62.342 13.2794 62.5001 12.8978 62.5001 12.5C62.5001 10.7761 61.8153 9.12279 60.5963 7.90381C59.3773 6.68482 57.724 6 56.0001 6C54.2762 6 52.6229 6.68482 51.4039 7.90381C50.1849 9.12279 49.5001 10.7761 49.5001 12.5C49.5001 12.8978 49.6581 13.2794 49.9394 13.5607C50.2207 13.842 50.6023 14 51.0001 14ZM70.2951 27.7563C70.163 27.9825 69.9739 28.1702 69.7467 28.3007C69.5195 28.4312 69.2621 28.4999 69.0001 28.5H43.0001C42.738 28.5 42.4805 28.4314 42.2532 28.3009C42.0259 28.1704 41.8367 27.9826 41.7046 27.7563C41.5725 27.5299 41.5019 27.2729 41.5 27.0108C41.4981 26.7487 41.565 26.4907 41.6938 26.2625L47.0688 16.7625C47.1995 16.5311 47.3893 16.3385 47.6188 16.2046C47.8483 16.0706 48.1093 16 48.3751 16H63.6251C63.8908 16 64.1518 16.0706 64.3813 16.2046C64.6109 16.3385 64.8007 16.5311 64.9313 16.7625L70.3063 26.2625C70.4351 26.4908 70.5018 26.7488 70.4999 27.0109C70.4979 27.273 70.4273 27.53 70.2951 27.7563ZM62.7501 19H57.5001V20.5H63.6026L62.7501 19ZM49.2501 19L48.4026 20.5H54.5001V19H49.2501ZM45.5713 25.5H54.5001V23.5H46.7013L45.5713 25.5ZM66.4288 25.5L65.3038 23.5H57.5001V25.5H66.4288Z" fill="white"/>
</g>
<defs>
<clipPath id="clip0_27_1507">
<rect width="72" height="32" rx="5" fill="white"/>
</clipPath>
</defs>
</svg>
