<svg width="72" height="32" viewBox="0 0 72 32" fill="none" xmlns="http://www.w3.org/2000/svg">
<g clip-path="url(#clip0_27_7421)">
<path d="M26 4H6C5.46957 4 4.96086 4.21071 4.58579 4.58579C4.21071 4.96086 4 5.46957 4 6V26C4 26.5304 4.21071 27.0391 4.58579 27.4142C4.96086 27.7893 5.46957 28 6 28H26C26.5304 28 27.0391 27.7893 27.4142 27.4142C27.7893 27.0391 28 26.5304 28 26V6C28 5.46957 27.7893 4.96086 27.4142 4.58579C27.0391 4.21071 26.5304 4 26 4ZM9 9H21C21.2652 9 21.5196 9.10536 21.7071 9.29289C21.8946 9.48043 22 9.73478 22 10C22 10.2652 21.8946 10.5196 21.7071 10.7071C21.5196 10.8946 21.2652 11 21 11H9C8.73478 11 8.48043 10.8946 8.29289 10.7071C8.10536 10.5196 8 10.2652 8 10C8 9.73478 8.10536 9.48043 8.29289 9.29289C8.48043 9.10536 8.73478 9 9 9ZM14 23H9C8.73478 23 8.48043 22.8946 8.29289 22.7071C8.10536 22.5196 8 22.2652 8 22C8 21.7348 8.10536 21.4804 8.29289 21.2929C8.48043 21.1054 8.73478 21 9 21H14C14.2652 21 14.5196 21.1054 14.7071 21.2929C14.8946 21.4804 15 21.7348 15 22C15 22.2652 14.8946 22.5196 14.7071 22.7071C14.5196 22.8946 14.2652 23 14 23ZM15 17H9C8.73478 17 8.48043 16.8946 8.29289 16.7071C8.10536 16.5196 8 16.2652 8 16C8 15.7348 8.10536 15.4804 8.29289 15.2929C8.48043 15.1054 8.73478 15 9 15H15C15.2652 15 15.5196 15.1054 15.7071 15.2929C15.8946 15.4804 16 15.7348 16 16C16 16.2652 15.8946 16.5196 15.7071 16.7071C15.5196 16.8946 15.2652 17 15 17ZM24.7075 20.7075L21.7075 23.7075C21.6146 23.8005 21.5043 23.8742 21.3829 23.9246C21.2615 23.9749 21.1314 24.0008 21 24.0008C20.8686 24.0008 20.7385 23.9749 20.6171 23.9246C20.4957 23.8742 20.3854 23.8005 20.2925 23.7075L17.2925 20.7075C17.1049 20.5199 16.9994 20.2654 16.9994 20C16.9994 19.7346 17.1049 19.4801 17.2925 19.2925C17.4801 19.1049 17.7346 18.9994 18 18.9994C18.2654 18.9994 18.5199 19.1049 18.7075 19.2925L20 20.5863V15C20 14.7348 20.1054 14.4804 20.2929 14.2929C20.4804 14.1054 20.7348 14 21 14C21.2652 14 21.5196 14.1054 21.7071 14.2929C21.8946 14.4804 22 14.7348 22 15V20.5863L23.2925 19.2925C23.4801 19.1049 23.7346 18.9994 24 18.9994C24.2654 18.9994 24.5199 19.1049 24.7075 19.2925C24.8951 19.4801 25.0006 19.7346 25.0006 20C25.0006 20.2654 24.8951 20.5199 24.7075 20.7075Z" fill="white"/>
<path d="M56 16C56 16.3978 55.842 16.7794 55.5607 17.0607C55.2794 17.342 54.8978 17.5 54.5 17.5H46C45.6022 17.5 45.2206 17.342 44.9393 17.0607C44.658 16.7794 44.5 16.3978 44.5 16C44.5 15.6022 44.658 15.2206 44.9393 14.9393C45.2206 14.658 45.6022 14.5 46 14.5H54.5C54.8978 14.5 55.2794 14.658 55.5607 14.9393C55.842 15.2206 56 15.6022 56 16ZM46 9.5H62.5C62.8978 9.5 63.2794 9.34196 63.5607 9.06066C63.842 8.77936 64 8.39782 64 8C64 7.60218 63.842 7.22064 63.5607 6.93934C63.2794 6.65804 62.8978 6.5 62.5 6.5H46C45.6022 6.5 45.2206 6.65804 44.9393 6.93934C44.658 7.22064 44.5 7.60218 44.5 8C44.5 8.39782 44.658 8.77936 44.9393 9.06066C45.2206 9.34196 45.6022 9.5 46 9.5ZM52.5 22.5H46C45.6022 22.5 45.2206 22.658 44.9393 22.9393C44.658 23.2206 44.5 23.6022 44.5 24C44.5 24.3978 44.658 24.7794 44.9393 25.0607C45.2206 25.342 45.6022 25.5 46 25.5H52.5C52.8978 25.5 53.2794 25.342 53.5607 25.0607C53.842 24.7794 54 24.3978 54 24C54 23.6022 53.842 23.2206 53.5607 22.9393C53.2794 22.658 52.8978 22.5 52.5 22.5ZM69.0613 19.9387C68.9219 19.7989 68.7563 19.688 68.574 19.6122C68.3917 19.5365 68.1962 19.4976 67.9988 19.4976C67.8013 19.4976 67.6059 19.5365 67.4235 19.6122C67.2412 19.688 67.0756 19.7989 66.9363 19.9387L64.5 22.375V14C64.5 13.6022 64.342 13.2206 64.0607 12.9393C63.7794 12.658 63.3978 12.5 63 12.5C62.6022 12.5 62.2206 12.658 61.9393 12.9393C61.658 13.2206 61.5 13.6022 61.5 14V22.375L59.0613 19.935C58.7795 19.6532 58.3973 19.4949 57.9988 19.4949C57.6002 19.4949 57.218 19.6532 56.9363 19.935C56.6545 20.2168 56.4961 20.599 56.4961 20.9975C56.4961 21.396 56.6545 21.7782 56.9363 22.06L61.9363 27.06C62.0756 27.1998 62.2412 27.3108 62.4235 27.3865C62.6059 27.4622 62.8013 27.5012 62.9988 27.5012C63.1962 27.5012 63.3917 27.4622 63.574 27.3865C63.7563 27.3108 63.9219 27.1998 64.0613 27.06L69.0613 22.06C69.3425 21.7787 69.5006 21.3972 69.5006 20.9994C69.5006 20.6016 69.3425 20.2201 69.0613 19.9387Z" fill="white"/>
</g>
<defs>
<clipPath id="clip0_27_7421">
<rect width="72" height="32" rx="5" fill="white"/>
</clipPath>
</defs>
</svg>
