<svg width="72" height="32" viewBox="0 0 72 32" fill="none" xmlns="http://www.w3.org/2000/svg">
<g clip-path="url(#clip0_27_7426)">
<path d="M26 4H6C5.46957 4 4.96086 4.21071 4.58579 4.58579C4.21071 4.96086 4 5.46957 4 6V26C4 26.5304 4.21071 27.0391 4.58579 27.4142C4.96086 27.7893 5.46957 28 6 28H26C26.5304 28 27.0391 27.7893 27.4142 27.4142C27.7893 27.0391 28 26.5304 28 26V6C28 5.46957 27.7893 4.96086 27.4142 4.58579C27.0391 4.21071 26.5304 4 26 4ZM9 9H14C14.2652 9 14.5196 9.10536 14.7071 9.29289C14.8946 9.48043 15 9.73478 15 10C15 10.2652 14.8946 10.5196 14.7071 10.7071C14.5196 10.8946 14.2652 11 14 11H9C8.73478 11 8.48043 10.8946 8.29289 10.7071C8.10536 10.5196 8 10.2652 8 10C8 9.73478 8.10536 9.48043 8.29289 9.29289C8.48043 9.10536 8.73478 9 9 9ZM9 15H15C15.2652 15 15.5196 15.1054 15.7071 15.2929C15.8946 15.4804 16 15.7348 16 16C16 16.2652 15.8946 16.5196 15.7071 16.7071C15.5196 16.8946 15.2652 17 15 17H9C8.73478 17 8.48043 16.8946 8.29289 16.7071C8.10536 16.5196 8 16.2652 8 16C8 15.7348 8.10536 15.4804 8.29289 15.2929C8.48043 15.1054 8.73478 15 9 15ZM21 23H9C8.73478 23 8.48043 22.8946 8.29289 22.7071C8.10536 22.5196 8 22.2652 8 22C8 21.7348 8.10536 21.4804 8.29289 21.2929C8.48043 21.1054 8.73478 21 9 21H21C21.2652 21 21.5196 21.1054 21.7071 21.2929C21.8946 21.4804 22 21.7348 22 22C22 22.2652 21.8946 22.5196 21.7071 22.7071C21.5196 22.8946 21.2652 23 21 23ZM24.7075 12.7075C24.6146 12.8005 24.5043 12.8742 24.3829 12.9246C24.2615 12.9749 24.1314 13.0008 24 13.0008C23.8686 13.0008 23.7385 12.9749 23.6171 12.9246C23.4957 12.8742 23.3854 12.8005 23.2925 12.7075L22 11.4137V17C22 17.2652 21.8946 17.5196 21.7071 17.7071C21.5196 17.8946 21.2652 18 21 18C20.7348 18 20.4804 17.8946 20.2929 17.7071C20.1054 17.5196 20 17.2652 20 17V11.4137L18.7075 12.7075C18.5199 12.8951 18.2654 13.0006 18 13.0006C17.7346 13.0006 17.4801 12.8951 17.2925 12.7075C17.1049 12.5199 16.9994 12.2654 16.9994 12C16.9994 11.7346 17.1049 11.4801 17.2925 11.2925L20.2925 8.2925C20.3854 8.19952 20.4957 8.12576 20.6171 8.07544C20.7385 8.02512 20.8686 7.99921 21 7.99921C21.1314 7.99921 21.2615 8.02512 21.3829 8.07544C21.5043 8.12576 21.6146 8.19952 21.7075 8.2925L24.7075 11.2925C24.8005 11.3854 24.8742 11.4957 24.9246 11.6171C24.9749 11.7385 25.0008 11.8686 25.0008 12C25.0008 12.1314 24.9749 12.2615 24.9246 12.3829C24.8742 12.5043 24.8005 12.6146 24.7075 12.7075Z" fill="white"/>
<path d="M44.5 16C44.5 15.6022 44.658 15.2206 44.9393 14.9393C45.2206 14.658 45.6022 14.5 46 14.5H54.5C54.8978 14.5 55.2794 14.658 55.5607 14.9393C55.842 15.2206 56 15.6022 56 16C56 16.3978 55.842 16.7793 55.5607 17.0607C55.2794 17.342 54.8978 17.5 54.5 17.5H46C45.6022 17.5 45.2206 17.342 44.9393 17.0607C44.658 16.7793 44.5 16.3978 44.5 16ZM46 9.49999H52.5C52.8978 9.49999 53.2794 9.34196 53.5607 9.06065C53.842 8.77935 54 8.39782 54 7.99999C54 7.60217 53.842 7.22064 53.5607 6.93933C53.2794 6.65803 52.8978 6.49999 52.5 6.49999H46C45.6022 6.49999 45.2206 6.65803 44.9393 6.93933C44.658 7.22064 44.5 7.60217 44.5 7.99999C44.5 8.39782 44.658 8.77935 44.9393 9.06065C45.2206 9.34196 45.6022 9.49999 46 9.49999ZM62.5 22.5H46C45.6022 22.5 45.2206 22.658 44.9393 22.9393C44.658 23.2206 44.5 23.6022 44.5 24C44.5 24.3978 44.658 24.7793 44.9393 25.0606C45.2206 25.342 45.6022 25.5 46 25.5H62.5C62.8978 25.5 63.2794 25.342 63.5607 25.0606C63.842 24.7793 64 24.3978 64 24C64 23.6022 63.842 23.2206 63.5607 22.9393C63.2794 22.658 62.8978 22.5 62.5 22.5ZM69.0613 9.93874L64.0613 4.93874C63.9219 4.7989 63.7563 4.68795 63.574 4.61224C63.3917 4.53653 63.1962 4.49756 62.9988 4.49756C62.8013 4.49756 62.6059 4.53653 62.4235 4.61224C62.2412 4.68795 62.0756 4.7989 61.9363 4.93874L56.9363 9.93874C56.6545 10.2205 56.4961 10.6027 56.4961 11.0012C56.4961 11.3998 56.6545 11.7819 56.9363 12.0637C57.218 12.3455 57.6002 12.5038 57.9988 12.5038C58.3973 12.5038 58.7795 12.3455 59.0613 12.0637L61.5 9.62499V18C61.5 18.3978 61.658 18.7793 61.9393 19.0607C62.2206 19.342 62.6022 19.5 63 19.5C63.3978 19.5 63.7794 19.342 64.0607 19.0607C64.342 18.7793 64.5 18.3978 64.5 18V9.62499L66.9387 12.065C67.0783 12.2045 67.2439 12.3152 67.4262 12.3907C67.6085 12.4662 67.8039 12.5051 68.0012 12.5051C68.1986 12.5051 68.394 12.4662 68.5763 12.3907C68.7586 12.3152 68.9242 12.2045 69.0637 12.065C69.2033 11.9255 69.314 11.7598 69.3895 11.5775C69.465 11.3952 69.5039 11.1998 69.5039 11.0025C69.5039 10.8052 69.465 10.6098 69.3895 10.4275C69.314 10.2452 69.2033 10.0795 69.0637 9.93999L69.0613 9.93874Z" fill="white"/>
</g>
<defs>
<clipPath id="clip0_27_7426">
<rect width="72" height="32" rx="5" fill="white"/>
</clipPath>
</defs>
</svg>
