<svg width="72" height="32" viewBox="0 0 72 32" fill="none" xmlns="http://www.w3.org/2000/svg">
<g clip-path="url(#clip0_27_4860)">
<path d="M29 17C28.9996 18.2212 28.6797 19.4211 28.0721 20.4805C27.4644 21.5398 26.5902 22.4218 25.5363 23.0387C24.4823 23.6557 23.2853 23.9861 22.0641 23.9973C20.8429 24.0085 19.6401 23.7 18.575 23.1025L19.9575 27.7125C20.0023 27.8618 20.0116 28.0195 19.9846 28.173C19.9577 28.3266 19.8952 28.4717 19.8021 28.5967C19.7091 28.7218 19.5881 28.8234 19.4489 28.8934C19.3096 28.9635 19.1559 28.9999 19 29H13C12.8441 28.9999 12.6904 28.9635 12.5511 28.8934C12.4119 28.8234 12.2909 28.7218 12.1979 28.5967C12.1048 28.4717 12.0423 28.3266 12.0154 28.173C11.9884 28.0195 11.9977 27.8618 12.0425 27.7125L13.425 23.1025C12.3599 23.7 11.1571 24.0085 9.93587 23.9973C8.71468 23.9861 7.51766 23.6557 6.46372 23.0387C5.40977 22.4218 4.53557 21.5398 3.92795 20.4805C3.32032 19.4211 3.00041 18.2212 3 17C3 13 5.20625 9.14499 9.375 5.84124C11.2889 4.33186 13.3839 3.06749 15.6112 2.07749C15.7331 2.02612 15.864 1.99966 15.9963 1.99966C16.1285 1.99966 16.2594 2.02612 16.3813 2.07749C18.6112 3.06694 20.7088 4.33133 22.625 5.84124C26.7938 9.14499 29 13 29 17Z" fill="white"/>
<path d="M56.6712 1.65876C56.4629 1.55448 56.233 1.50018 56 1.50018C55.767 1.50018 55.5371 1.55448 55.3287 1.65876C54.805 1.92001 42.5 8.17501 42.5 17C42.4998 18.0856 42.7353 19.1582 43.1902 20.1439C43.6451 21.1295 44.3086 22.0047 45.1347 22.7089C45.9609 23.4131 46.93 23.9295 47.9753 24.2226C49.0205 24.5157 50.1169 24.5783 51.1888 24.4063L50.5288 27.7063C50.4853 27.9239 50.4907 28.1484 50.5445 28.3637C50.5983 28.579 50.6992 28.7797 50.8399 28.9513C50.9807 29.1229 51.1577 29.2611 51.3583 29.356C51.5589 29.4509 51.7781 29.5001 52 29.5H60C60.2219 29.5001 60.4411 29.4509 60.6417 29.356C60.8423 29.2611 61.0193 29.1229 61.1601 28.9513C61.3008 28.7797 61.4017 28.579 61.4555 28.3637C61.5093 28.1484 61.5147 27.9239 61.4713 27.7063L60.8113 24.4063C61.8831 24.5783 62.9795 24.5157 64.0247 24.2226C65.07 23.9295 66.0391 23.4131 66.8653 22.7089C67.6914 22.0047 68.3549 21.1295 68.8098 20.1439C69.2647 19.1582 69.5002 18.0856 69.5 17C69.5 8.17501 57.195 1.92001 56.6712 1.65876ZM62 21.5C61.1561 21.5011 60.329 21.2641 59.6138 20.8163C59.3654 20.6606 59.077 20.5811 58.784 20.5876C58.491 20.5941 58.2063 20.6863 57.9651 20.8527C57.7239 21.0192 57.5368 21.2527 57.4268 21.5243C57.3168 21.796 57.2888 22.0939 57.3463 22.3813L58.17 26.5H53.83L54.6538 22.3813C54.7112 22.0939 54.6832 21.796 54.5732 21.5243C54.4632 21.2527 54.2761 21.0192 54.0349 20.8527C53.7937 20.6863 53.509 20.5941 53.216 20.5876C52.923 20.5811 52.6346 20.6606 52.3862 20.8163C51.705 21.2423 50.9222 21.4782 50.119 21.4995C49.3158 21.5207 48.5215 21.3265 47.8187 20.937C47.116 20.5476 46.5303 19.977 46.1225 19.2847C45.7148 18.5924 45.4998 17.8035 45.5 17C45.5 13.4638 48.4462 10.2563 50.9175 8.18876C52.5038 6.87709 54.2048 5.71073 56 4.70376C57.7954 5.71043 59.4964 6.87681 61.0825 8.18876C63.5538 10.2563 66.5 13.4638 66.5 17C66.5 18.1935 66.0259 19.3381 65.182 20.182C64.3381 21.0259 63.1935 21.5 62 21.5Z" fill="white"/>
</g>
<defs>
<clipPath id="clip0_27_4860">
<rect width="72" height="32" rx="5" fill="white"/>
</clipPath>
</defs>
</svg>
