<svg width="72" height="32" viewBox="0 0 72 32" fill="none" xmlns="http://www.w3.org/2000/svg">
<g clip-path="url(#clip0_27_4031)">
<path d="M20 4.03125V27.9612C20.003 28.1403 19.9596 28.3171 19.874 28.4744C19.7883 28.6317 19.6633 28.7641 19.5112 28.8587C19.3384 28.9615 19.1386 29.0098 18.9379 28.9974C18.7373 28.9849 18.545 28.9122 18.3862 28.7887L10.19 22.4137C10.1306 22.3668 10.0826 22.307 10.0497 22.2387C10.0168 22.1705 9.99978 22.0957 10 22.02V9.98C10.0002 9.90395 10.0178 9.82896 10.0514 9.76073C10.0849 9.6925 10.1336 9.63283 10.1938 9.58625L18.39 3.21125C18.5696 3.07206 18.7913 2.9982 19.0185 3.00184C19.2457 3.00547 19.4649 3.08639 19.64 3.23125C19.755 3.33004 19.8469 3.45291 19.9091 3.59117C19.9713 3.72942 20.0023 3.87966 20 4.03125ZM7.5 10H4C3.46957 10 2.96086 10.2107 2.58579 10.5858C2.21071 10.9609 2 11.4696 2 12V20C2 20.5304 2.21071 21.0391 2.58579 21.4142C2.96086 21.7893 3.46957 22 4 22H7.5C7.63261 22 7.75979 21.9473 7.85355 21.8536C7.94732 21.7598 8 21.6326 8 21.5V10.5C8 10.3674 7.94732 10.2402 7.85355 10.1464C7.75979 10.0527 7.63261 10 7.5 10ZM24.75 12.695C24.6639 12.5941 24.5585 12.5114 24.4401 12.4516C24.3217 12.3919 24.1925 12.3563 24.0602 12.3469C23.9279 12.3376 23.795 12.3546 23.6694 12.3971C23.5437 12.4396 23.4277 12.5066 23.3282 12.5943C23.2287 12.6821 23.1477 12.7887 23.0898 12.9081C23.0319 13.0274 22.9984 13.1571 22.9911 13.2895C22.9838 13.422 23.0029 13.5546 23.0474 13.6795C23.0918 13.8045 23.1607 13.9194 23.25 14.0175C23.7323 14.5653 23.9984 15.2701 23.9984 16C23.9984 16.7299 23.7323 17.4347 23.25 17.9825C23.1607 18.0806 23.0918 18.1955 23.0474 18.3205C23.0029 18.4454 22.9838 18.578 22.9911 18.7105C22.9984 18.8429 23.0319 18.9726 23.0898 19.0919C23.1477 19.2113 23.2287 19.3179 23.3282 19.4057C23.4277 19.4934 23.5437 19.5604 23.6694 19.6029C23.795 19.6454 23.9279 19.6624 24.0602 19.6531C24.1925 19.6437 24.3217 19.6081 24.4401 19.5483C24.5585 19.4886 24.6639 19.4059 24.75 19.305C25.5543 18.3919 25.9981 17.2168 25.9981 16C25.9981 14.7832 25.5543 13.6081 24.75 12.695Z" fill="white"/>
<path d="M59.6588 2.65249C59.4065 2.52915 59.1246 2.4791 58.8453 2.50805C58.566 2.537 58.3004 2.64378 58.0788 2.81624L49.485 9.49999H44C43.337 9.49999 42.7011 9.76338 42.2322 10.2322C41.7634 10.7011 41.5 11.3369 41.5 12V20C41.5 20.663 41.7634 21.2989 42.2322 21.7678C42.7011 22.2366 43.337 22.5 44 22.5H49.485L58.0788 29.1837C58.3004 29.3562 58.566 29.463 58.8453 29.492C59.1247 29.5209 59.4065 29.4709 59.6588 29.3475C59.9111 29.2242 60.1237 29.0325 60.2724 28.7943C60.4212 28.556 60.5 28.2808 60.5 28V3.99999C60.5 3.71915 60.4211 3.44396 60.2724 3.20574C60.1237 2.96751 59.9111 2.77582 59.6588 2.65249ZM44.5 12.5H48.5V19.5H44.5V12.5ZM57.5 24.9325L51.5 20.2662V11.7337L57.5 7.06749V24.9325ZM66.5 16C66.5002 17.3399 66.0113 18.6338 65.125 19.6387C64.8618 19.9371 64.4908 20.1187 64.0937 20.1435C63.6966 20.1684 63.3059 20.0345 63.0075 19.7712C62.7091 19.508 62.5275 19.137 62.5027 18.7399C62.4779 18.3428 62.6118 17.9521 62.875 17.6537C63.2772 17.1972 63.499 16.6097 63.499 16.0012C63.499 15.3928 63.2772 14.8053 62.875 14.3487C62.6293 14.0481 62.5097 13.6639 62.5414 13.2769C62.5732 12.8899 62.7537 12.5303 63.0451 12.2737C63.3365 12.0171 63.7161 11.8835 64.104 11.901C64.4919 11.9185 64.8579 12.0857 65.125 12.3675C66.0104 13.3704 66.4994 14.6621 66.5 16Z" fill="white"/>
</g>
<defs>
<clipPath id="clip0_27_4031">
<rect width="72" height="32" rx="5" fill="white"/>
</clipPath>
</defs>
</svg>
