<svg width="72" height="32" viewBox="0 0 72 32" fill="none" xmlns="http://www.w3.org/2000/svg">
<g clip-path="url(#clip0_27_4026)">
<path d="M20 4.03125V27.9612C20.003 28.1403 19.9596 28.3171 19.874 28.4744C19.7883 28.6317 19.6633 28.7641 19.5112 28.8587C19.3384 28.9615 19.1386 29.0098 18.9379 28.9974C18.7373 28.9849 18.545 28.9122 18.3862 28.7887L10.19 22.4137C10.1306 22.3668 10.0826 22.307 10.0497 22.2387C10.0168 22.1705 9.99978 22.0957 10 22.02V9.98C10.0002 9.90395 10.0178 9.82896 10.0514 9.76073C10.0849 9.6925 10.1336 9.63283 10.1938 9.58625L18.39 3.21125C18.5696 3.07206 18.7913 2.9982 19.0185 3.00184C19.2457 3.00547 19.4649 3.08639 19.64 3.23125C19.755 3.33004 19.8469 3.45291 19.9091 3.59117C19.9713 3.72942 20.0023 3.87966 20 4.03125ZM7.5 10H4C3.46957 10 2.96086 10.2107 2.58579 10.5858C2.21071 10.9609 2 11.4696 2 12V20C2 20.5304 2.21071 21.0391 2.58579 21.4142C2.96086 21.7893 3.46957 22 4 22H7.5C7.63261 22 7.75979 21.9473 7.85355 21.8536C7.94732 21.7598 8 21.6326 8 21.5V10.5C8 10.3674 7.94732 10.2402 7.85355 10.1464C7.75979 10.0527 7.63261 10 7.5 10ZM23.3463 12.605C23.2475 12.6918 23.1668 12.7972 23.1089 12.9152C23.0509 13.0331 23.0167 13.1614 23.0084 13.2926C23 13.4238 23.0176 13.5553 23.0601 13.6797C23.1027 13.8041 23.1693 13.9189 23.2563 14.0175C23.7386 14.5653 24.0047 15.2701 24.0047 16C24.0047 16.7299 23.7386 17.4347 23.2563 17.9825C23.167 18.0806 23.0981 18.1955 23.0536 18.3205C23.0092 18.4454 22.9901 18.578 22.9973 18.7105C23.0046 18.8429 23.0382 18.9726 23.0961 19.0919C23.1539 19.2113 23.235 19.3179 23.3345 19.4057C23.434 19.4934 23.5499 19.5604 23.6756 19.6029C23.8013 19.6454 23.9341 19.6624 24.0665 19.6531C24.1988 19.6437 24.3279 19.6081 24.4463 19.5483C24.5648 19.4886 24.6701 19.4059 24.7563 19.305C25.5606 18.3919 26.0043 17.2168 26.0043 16C26.0043 14.7832 25.5606 13.6081 24.7563 12.695C24.6695 12.5961 24.564 12.5152 24.4459 12.4572C24.3278 12.3991 24.1994 12.3649 24.0681 12.3565C23.9367 12.3481 23.805 12.3658 23.6805 12.4084C23.556 12.4511 23.4411 12.5179 23.3425 12.605H23.3463ZM28.4575 9.33375C28.3715 9.2309 28.2656 9.14641 28.1462 9.0853C28.0269 9.02419 27.8964 8.98772 27.7627 8.97804C27.6289 8.96837 27.4946 8.98569 27.3677 9.02898C27.2408 9.07227 27.1239 9.14064 27.0239 9.23003C26.924 9.31942 26.843 9.428 26.7859 9.54931C26.7287 9.67062 26.6966 9.80219 26.6913 9.93618C26.686 10.0702 26.7078 10.2039 26.7552 10.3293C26.8027 10.4547 26.8749 10.5693 26.9675 10.6662C28.2796 12.133 29.005 14.032 29.005 16C29.005 17.968 28.2796 19.867 26.9675 21.3337C26.8749 21.4307 26.8027 21.5453 26.7552 21.6707C26.7078 21.7961 26.686 21.9298 26.6913 22.0638C26.6966 22.1978 26.7287 22.3294 26.7859 22.4507C26.843 22.572 26.924 22.6806 27.0239 22.77C27.1239 22.8594 27.2408 22.9277 27.3677 22.971C27.4946 23.0143 27.6289 23.0316 27.7627 23.022C27.8964 23.0123 28.0269 22.9758 28.1462 22.9147C28.2656 22.8536 28.3715 22.7691 28.4575 22.6662C30.0971 20.8329 31.0036 18.4596 31.0036 16C31.0036 13.5404 30.0971 11.1671 28.4575 9.33375Z" fill="white"/>
<path d="M59.6588 2.65249C59.4065 2.52915 59.1246 2.4791 58.8453 2.50805C58.566 2.537 58.3004 2.64378 58.0788 2.81624L49.485 9.49999H44C43.337 9.49999 42.7011 9.76338 42.2322 10.2322C41.7634 10.7011 41.5 11.3369 41.5 12V20C41.5 20.663 41.7634 21.2989 42.2322 21.7678C42.7011 22.2366 43.337 22.5 44 22.5H49.485L58.0788 29.1837C58.3004 29.3562 58.566 29.463 58.8453 29.492C59.1247 29.5209 59.4065 29.4709 59.6588 29.3475C59.9111 29.2242 60.1237 29.0325 60.2724 28.7943C60.4212 28.556 60.5 28.2808 60.5 28V3.99999C60.5 3.71915 60.4211 3.44396 60.2724 3.20574C60.1237 2.96751 59.9111 2.77582 59.6588 2.65249ZM44.5 12.5H48.5V19.5H44.5V12.5ZM57.5 24.9325L51.5 20.2662V11.7337L57.5 7.06749V24.9325ZM66.5 16C66.5002 17.3399 66.0113 18.6338 65.125 19.6387C64.9947 19.7865 64.8365 19.9071 64.6596 19.9937C64.4826 20.0803 64.2903 20.1312 64.0937 20.1435C63.8971 20.1558 63.6999 20.1293 63.5136 20.0654C63.3272 20.0015 63.1552 19.9016 63.0075 19.7712C62.8598 19.6409 62.7391 19.4827 62.6525 19.3058C62.5659 19.1288 62.515 18.9366 62.5027 18.7399C62.4904 18.5433 62.5169 18.3462 62.5808 18.1598C62.6447 17.9734 62.7447 17.8015 62.875 17.6537C63.2768 17.1973 63.4985 16.61 63.4985 16.0019C63.4985 15.3937 63.2768 14.8065 62.875 14.35C62.6252 14.0498 62.5024 13.6641 62.5325 13.2748C62.5626 12.8855 62.7434 12.5233 63.0364 12.2651C63.3294 12.007 63.7115 11.8732 64.1015 11.8924C64.4915 11.9115 64.8587 12.0819 65.125 12.3675C66.0104 13.3704 66.4994 14.6621 66.5 16ZM71.5 16C71.5015 18.583 70.5494 21.0757 68.8263 23C68.561 23.2965 68.1889 23.4756 67.7917 23.4977C67.3944 23.5199 67.0047 23.3833 66.7081 23.1181C66.4116 22.8529 66.2325 22.4807 66.2104 22.0835C66.1882 21.6863 66.3248 21.2965 66.59 21C67.8199 19.6249 68.4998 17.8448 68.4998 16C68.4998 14.1552 67.8199 12.375 66.59 11C66.4533 10.8541 66.3471 10.6824 66.2778 10.495C66.2084 10.3075 66.1771 10.1081 66.1859 9.90839C66.1947 9.70869 66.2433 9.51276 66.3289 9.33211C66.4144 9.15147 66.5352 8.98974 66.6842 8.85645C66.8332 8.72315 67.0072 8.62097 67.1963 8.55591C67.3853 8.49085 67.5854 8.46423 67.7848 8.4776C67.9843 8.49098 68.179 8.54408 68.3576 8.63379C68.5363 8.72349 68.6952 8.848 68.825 8.99999C70.5486 10.9241 71.5012 13.4168 71.5 16Z" fill="white"/>
</g>
<defs>
<clipPath id="clip0_27_4026">
<rect width="72" height="32" rx="5" fill="white"/>
</clipPath>
</defs>
</svg>
