<svg width="72" height="32" viewBox="0 0 72 32" fill="none" xmlns="http://www.w3.org/2000/svg">
<g clip-path="url(#clip0_27_4067)">
<path d="M26.74 26.3275C26.8302 26.4244 26.9002 26.5381 26.9461 26.6623C26.9919 26.7864 27.0127 26.9184 27.0072 27.0506C27.0017 27.1828 26.97 27.3126 26.9139 27.4325C26.8578 27.5524 26.7785 27.6599 26.6806 27.7489C26.5827 27.8379 26.4681 27.9066 26.3434 27.951C26.2187 27.9953 26.0865 28.0145 25.9543 28.0074C25.8222 28.0003 25.6928 27.9671 25.5736 27.9096C25.4544 27.8521 25.3478 27.7715 25.26 27.6725L20 21.8862V27.9612C20.003 28.1403 19.9596 28.3171 19.874 28.4744C19.7883 28.6317 19.6633 28.7641 19.5112 28.8587C19.3384 28.9615 19.1386 29.0098 18.9379 28.9974C18.7373 28.9849 18.545 28.9122 18.3862 28.7887L10.1925 22.4137C10.1329 22.3673 10.0847 22.308 10.0514 22.2402C10.018 22.1725 10.0005 22.098 10 22.0225V10.8862L5.26 5.6725C5.16983 5.57564 5.09979 5.46185 5.05392 5.33772C5.00806 5.21359 4.98728 5.0816 4.99281 4.94938C4.99833 4.81717 5.03004 4.68736 5.0861 4.56749C5.14216 4.44762 5.22146 4.34007 5.31939 4.25107C5.41732 4.16207 5.53194 4.0934 5.65661 4.04902C5.78128 4.00465 5.91352 3.98546 6.04566 3.99257C6.1778 3.99968 6.30721 4.03294 6.4264 4.09044C6.54559 4.14793 6.65218 4.22851 6.74 4.3275L26.74 26.3275ZM23.3388 19.395C23.5375 19.5705 23.7978 19.6599 24.0625 19.6435C24.3271 19.627 24.5744 19.5062 24.75 19.3075C25.5543 18.3944 25.9981 17.2193 25.9981 16.0025C25.9981 14.7857 25.5543 13.6106 24.75 12.6975C24.6647 12.594 24.5595 12.5088 24.4406 12.4468C24.3217 12.3848 24.1916 12.3474 24.0579 12.3367C23.9243 12.326 23.7898 12.3423 23.6626 12.3847C23.5354 12.427 23.418 12.4945 23.3174 12.5831C23.2167 12.6717 23.135 12.7797 23.0769 12.9006C23.0189 13.0214 22.9857 13.1527 22.9794 13.2867C22.9731 13.4206 22.9939 13.5544 23.0403 13.6802C23.0868 13.806 23.1581 13.9211 23.25 14.0187C23.7323 14.5665 23.9984 15.2714 23.9984 16.0012C23.9984 16.7311 23.7323 17.436 23.25 17.9837C23.0747 18.1827 22.9855 18.4431 23.0021 18.7078C23.0188 18.9724 23.1399 19.2196 23.3388 19.395ZM28.4538 9.33375C28.3677 9.2309 28.2618 9.14641 28.1425 9.0853C28.0231 9.02419 27.8927 8.98772 27.7589 8.97804C27.6252 8.96837 27.4909 8.98569 27.364 9.02898C27.237 9.07227 27.1201 9.14064 27.0202 9.23003C26.9202 9.31942 26.8393 9.428 26.7821 9.54931C26.725 9.67062 26.6928 9.80219 26.6876 9.93618C26.6823 10.0702 26.704 10.2039 26.7515 10.3293C26.7989 10.4547 26.8711 10.5693 26.9638 10.6662C28.2759 12.133 29.0013 14.032 29.0013 16C29.0013 17.968 28.2759 19.867 26.9638 21.3337C26.8711 21.4307 26.7989 21.5453 26.7515 21.6707C26.704 21.7961 26.6823 21.9298 26.6876 22.0638C26.6928 22.1978 26.725 22.3294 26.7821 22.4507C26.8393 22.572 26.9202 22.6806 27.0202 22.77C27.1201 22.8594 27.237 22.9277 27.364 22.971C27.4909 23.0143 27.6252 23.0316 27.7589 23.022C27.8927 23.0123 28.0231 22.9758 28.1425 22.9147C28.2618 22.8536 28.3677 22.7691 28.4538 22.6662C30.0934 20.8329 30.9998 18.4596 30.9998 16C30.9998 13.5404 30.0934 11.1671 28.4538 9.33375ZM19.125 14.9837C19.1926 15.0604 19.282 15.1145 19.3812 15.1387C19.4804 15.163 19.5847 15.1563 19.68 15.1196C19.7753 15.0828 19.857 15.0178 19.9143 14.9331C19.9715 14.8485 20.0014 14.7484 20 14.6462V4.03125C20.0023 3.87966 19.9713 3.72942 19.9091 3.59117C19.8469 3.45291 19.755 3.33004 19.64 3.23125C19.4649 3.08639 19.2457 3.00547 19.0185 3.00184C18.7913 2.9982 18.5696 3.07206 18.39 3.21125L12.9788 7.41625C12.9244 7.45858 12.8793 7.5117 12.8464 7.57227C12.8136 7.63284 12.7936 7.69955 12.7877 7.76822C12.7818 7.83688 12.7902 7.90602 12.8123 7.97129C12.8345 8.03656 12.8698 8.09655 12.9163 8.1475L19.125 14.9837ZM7.5 10H4C3.46957 10 2.96086 10.2107 2.58579 10.5858C2.21071 10.9609 2 11.4696 2 12V20C2 20.5304 2.21071 21.0391 2.58579 21.4142C2.96086 21.7893 3.46957 22 4 22H7.5C7.63261 22 7.75979 21.9473 7.85355 21.8536C7.94732 21.7598 8 21.6326 8 21.5V10.5C8 10.3674 7.94732 10.2402 7.85355 10.1464C7.75979 10.0527 7.63261 10 7.5 10Z" fill="white"/>
<path d="M47.11 3.99124C46.9783 3.84275 46.8184 3.72188 46.6396 3.63564C46.4608 3.5494 46.2667 3.49951 46.0685 3.48884C45.8703 3.47818 45.6719 3.50696 45.4849 3.57352C45.2979 3.64008 45.126 3.7431 44.9791 3.8766C44.8322 4.0101 44.7132 4.17142 44.6292 4.35123C44.5451 4.53103 44.4975 4.72574 44.4892 4.92406C44.4809 5.12238 44.5121 5.32038 44.5809 5.50657C44.6497 5.69276 44.7548 5.86345 44.89 6.00874L48.0638 9.49999H44C43.337 9.49999 42.7011 9.76338 42.2322 10.2322C41.7634 10.7011 41.5 11.3369 41.5 12V20C41.5 20.663 41.7634 21.2989 42.2322 21.7678C42.7011 22.2366 43.337 22.5 44 22.5H49.485L58.0788 29.1837C58.3004 29.3562 58.566 29.463 58.8453 29.492C59.1247 29.5209 59.4065 29.4709 59.6588 29.3475C59.9111 29.2242 60.1237 29.0325 60.2724 28.7943C60.4212 28.556 60.5 28.2808 60.5 28V23.18L64.89 28.0087C65.1589 28.2976 65.5309 28.4689 65.9253 28.4854C66.3197 28.5018 66.7046 28.3622 66.9967 28.0968C67.2888 27.8313 67.4645 27.4614 67.4857 27.0673C67.5069 26.6731 67.3719 26.2865 67.11 25.9912L47.11 3.99124ZM44.5 12.5H48.5V19.5H44.5V12.5ZM57.5 24.9325L51.5 20.2662V13.28L57.5 19.875V24.9325ZM53.625 8.18249C53.5041 8.02696 53.415 7.84913 53.3628 7.65917C53.3106 7.46921 53.2964 7.27083 53.3209 7.07536C53.3454 6.87989 53.4081 6.69115 53.5056 6.51994C53.603 6.34872 53.7332 6.19838 53.8888 6.07749L58.0775 2.81874C58.299 2.64602 58.5644 2.53894 58.8438 2.50969C59.1231 2.48043 59.405 2.53018 59.6574 2.65327C59.9099 2.77636 60.1227 2.96785 60.2716 3.20594C60.4206 3.44402 60.4997 3.71914 60.5 3.99999V11.8675C60.5 12.2653 60.342 12.6468 60.0607 12.9281C59.7794 13.2095 59.3978 13.3675 59 13.3675C58.6022 13.3675 58.2206 13.2095 57.9393 12.9281C57.658 12.6468 57.5 12.2653 57.5 11.8675V7.06749L55.7312 8.44249C55.5758 8.56366 55.3979 8.65299 55.2079 8.70538C55.0178 8.75777 54.8193 8.77219 54.6237 8.74781C54.4281 8.72343 54.2392 8.66073 54.0678 8.5633C53.8965 8.46587 53.746 8.33562 53.625 8.17999V8.18249ZM62.875 14.3512C62.6293 14.0506 62.5097 13.6664 62.5414 13.2794C62.5732 12.8924 62.7537 12.5328 63.0451 12.2762C63.3365 12.0196 63.7161 11.886 64.104 11.9035C64.4919 11.921 64.8579 12.0882 65.125 12.37C65.8713 13.2182 66.3382 14.2757 66.4623 15.3986C66.5864 16.5216 66.3617 17.6555 65.8188 18.6462C65.6162 18.9726 65.2961 19.2088 64.9244 19.3062C64.5528 19.4035 64.158 19.3546 63.8214 19.1695C63.4848 18.9843 63.2321 18.6771 63.1153 18.3112C62.9985 17.9452 63.0266 17.5484 63.1938 17.2025C63.397 16.8344 63.5024 16.4204 63.5 16C63.4994 15.3919 63.2772 14.8048 62.875 14.3487V14.3512ZM71.5 16C71.4984 18.4322 70.6543 20.7887 69.1112 22.6687C68.9869 22.8234 68.8331 22.9519 68.6588 23.0467C68.4845 23.1415 68.2931 23.2008 68.0957 23.2211C67.8983 23.2414 67.6988 23.2223 67.5089 23.165C67.3189 23.1077 67.1422 23.0133 66.9889 22.8872C66.8357 22.7611 66.709 22.6058 66.6162 22.4304C66.5235 22.255 66.4664 22.0629 66.4483 21.8653C66.4303 21.6677 66.4517 21.4685 66.5112 21.2792C66.5707 21.0899 66.6671 20.9142 66.795 20.7625C67.9322 19.3789 68.5369 17.6341 68.4995 15.8435C68.4621 14.053 67.7852 12.3349 66.5912 11C66.4546 10.8541 66.3484 10.6824 66.279 10.495C66.2096 10.3075 66.1784 10.1081 66.1872 9.90839C66.1959 9.70869 66.2445 9.51276 66.3301 9.33211C66.4157 9.15146 66.5365 8.98974 66.6854 8.85644C66.8344 8.72315 67.0085 8.62097 67.1975 8.55591C67.3865 8.49085 67.5866 8.46423 67.7861 8.4776C67.9855 8.49097 68.1803 8.54407 68.3589 8.63378C68.5375 8.72349 68.6964 8.848 68.8263 8.99999C70.5494 10.9243 71.5015 13.4169 71.5 16Z" fill="white"/>
</g>
<defs>
<clipPath id="clip0_27_4067">
<rect width="72" height="32" rx="5" fill="white"/>
</clipPath>
</defs>
</svg>
