<svg width="72" height="32" viewBox="0 0 72 32" fill="none" xmlns="http://www.w3.org/2000/svg">
<g clip-path="url(#clip0_27_4046)">
<path d="M21 3.99998V28C20.9999 28.1871 20.9472 28.3704 20.8481 28.5291C20.7489 28.6878 20.6072 28.8155 20.4391 28.8977C20.271 28.9798 20.0832 29.0132 19.8971 28.9939C19.711 28.9747 19.534 28.9036 19.3862 28.7887L10.6562 22H5C4.46957 22 3.96086 21.7893 3.58579 21.4142C3.21071 21.0391 3 20.5304 3 20V12C3 11.4696 3.21071 10.9608 3.58579 10.5858C3.96086 10.2107 4.46957 9.99998 5 9.99998H10.6562L19.3862 3.21123C19.534 3.09639 19.711 3.0253 19.8971 3.00604C20.0832 2.98679 20.271 3.02014 20.4391 3.10231C20.6072 3.18447 20.7489 3.31216 20.8481 3.47085C20.9472 3.62954 20.9999 3.81286 21 3.99998ZM25 12C24.7348 12 24.4804 12.1053 24.2929 12.2929C24.1054 12.4804 24 12.7348 24 13V19C24 19.2652 24.1054 19.5196 24.2929 19.7071C24.4804 19.8946 24.7348 20 25 20C25.2652 20 25.5196 19.8946 25.7071 19.7071C25.8946 19.5196 26 19.2652 26 19V13C26 12.7348 25.8946 12.4804 25.7071 12.2929C25.5196 12.1053 25.2652 12 25 12Z" fill="white"/>
<path d="M60.6588 2.65249C60.4065 2.52915 60.1246 2.4791 59.8453 2.50805C59.566 2.537 59.3004 2.64378 59.0788 2.81624L50.485 9.49999H45C44.337 9.49999 43.7011 9.76338 43.2322 10.2322C42.7634 10.7011 42.5 11.3369 42.5 12V20C42.5 20.663 42.7634 21.2989 43.2322 21.7678C43.7011 22.2366 44.337 22.5 45 22.5H50.485L59.0788 29.1837C59.3004 29.3562 59.566 29.463 59.8453 29.492C60.1247 29.5209 60.4065 29.4709 60.6588 29.3475C60.9111 29.2242 61.1237 29.0325 61.2724 28.7943C61.4212 28.556 61.5 28.2808 61.5 28V3.99999C61.5 3.71915 61.4211 3.44396 61.2724 3.20574C61.1237 2.96751 60.9111 2.77582 60.6588 2.65249ZM58.5 24.9325L51.9213 19.8162C51.6579 19.6113 51.3337 19.5 51 19.5H45.5V12.5H51C51.3337 12.5 51.6579 12.3887 51.9213 12.1837L58.5 7.06749V24.9325ZM66.5 13V19C66.5 19.3978 66.342 19.7793 66.0607 20.0606C65.7794 20.342 65.3978 20.5 65 20.5C64.6022 20.5 64.2206 20.342 63.9393 20.0606C63.658 19.7793 63.5 19.3978 63.5 19V13C63.5 12.6022 63.658 12.2206 63.9393 11.9393C64.2206 11.658 64.6022 11.5 65 11.5C65.3978 11.5 65.7794 11.658 66.0607 11.9393C66.342 12.2206 66.5 12.6022 66.5 13Z" fill="white"/>
</g>
<defs>
<clipPath id="clip0_27_4046">
<rect width="72" height="32" rx="5" fill="white"/>
</clipPath>
</defs>
</svg>
