<svg width="72" height="32" viewBox="0 0 72 32" fill="none" xmlns="http://www.w3.org/2000/svg">
<g clip-path="url(#clip0_27_4056)">
<path d="M27.74 26.3275C27.8302 26.4244 27.9002 26.5381 27.9461 26.6623C27.9919 26.7864 28.0127 26.9184 28.0072 27.0506C28.0017 27.1828 27.97 27.3126 27.9139 27.4325C27.8578 27.5524 27.7785 27.6599 27.6806 27.7489C27.5827 27.8379 27.4681 27.9066 27.3434 27.951C27.2187 27.9953 27.0865 28.0145 26.9543 28.0074C26.8222 28.0003 26.6928 27.9671 26.5736 27.9096C26.4544 27.8521 26.3478 27.7715 26.26 27.6725L21 21.8862V27.9612C21.003 28.1403 20.9596 28.3171 20.874 28.4744C20.7883 28.6317 20.6633 28.7641 20.5112 28.8587C20.3384 28.9615 20.1386 29.0098 19.9379 28.9974C19.7373 28.9849 19.545 28.9122 19.3862 28.7887L10.6562 22H5C4.46957 22 3.96086 21.7893 3.58579 21.4142C3.21071 21.0391 3 20.5304 3 20V12C3 11.4696 3.21071 10.9609 3.58579 10.5858C3.96086 10.2107 4.46957 10 5 10H10.1938L6.26 5.6725C6.08537 5.47565 5.99537 5.21791 6.00951 4.95515C6.02364 4.69239 6.14078 4.44579 6.33552 4.26882C6.53025 4.09184 6.7869 3.99876 7.04981 4.00974C7.31272 4.02073 7.5607 4.1349 7.74 4.3275L27.74 26.3275ZM25.0662 20C25.3234 19.9779 25.5626 19.8593 25.7359 19.668C25.9091 19.4766 26.0035 19.2268 26 18.9687V13.0337C26.0041 12.7752 25.91 12.5248 25.7367 12.333C25.5634 12.1411 25.3238 12.0221 25.0662 12C24.9295 11.9909 24.7923 12.0101 24.6632 12.0562C24.5341 12.1024 24.4159 12.1746 24.3159 12.2684C24.2159 12.3622 24.1363 12.4755 24.0819 12.6014C24.0276 12.7272 23.9997 12.8629 24 13V19C23.9997 19.1371 24.0276 19.2728 24.0819 19.3986C24.1363 19.5245 24.2159 19.6378 24.3159 19.7316C24.4159 19.8254 24.5341 19.8976 24.6632 19.9438C24.7923 19.9899 24.9295 20.0091 25.0662 20ZM20.125 14.9837C20.1926 15.0604 20.282 15.1145 20.3812 15.1387C20.4804 15.163 20.5847 15.1563 20.68 15.1196C20.7753 15.0828 20.857 15.0178 20.9143 14.9331C20.9715 14.8485 21.0014 14.7484 21 14.6462V4.03C21.0023 3.8786 20.9713 3.72854 20.909 3.59049C20.8468 3.45244 20.755 3.32979 20.64 3.23125C20.4649 3.08639 20.2457 3.00547 20.0185 3.00184C19.7913 2.9982 19.5696 3.07206 19.39 3.21125L13.9788 7.41625C13.9244 7.45858 13.8793 7.5117 13.8464 7.57227C13.8136 7.63284 13.7936 7.69955 13.7877 7.76822C13.7818 7.83688 13.7902 7.90602 13.8123 7.97129C13.8345 8.03656 13.8698 8.09655 13.9163 8.1475L20.125 14.9837ZM28.9338 10C28.6762 10.0221 28.4366 10.1411 28.2633 10.333C28.09 10.5248 27.9959 10.7752 28 11.0337V20.9662C27.9965 21.2243 28.0909 21.4741 28.2641 21.6655C28.4374 21.8568 28.6766 21.9754 28.9338 21.9975C29.0705 22.0066 29.2077 21.9874 29.3368 21.9413C29.4659 21.8951 29.5841 21.8229 29.6841 21.7291C29.7841 21.6353 29.8637 21.522 29.9181 21.3961C29.9724 21.2703 30.0003 21.1346 30 20.9975V11C30.0003 10.8629 29.9724 10.7272 29.9181 10.6014C29.8637 10.4755 29.7841 10.3622 29.6841 10.2684C29.5841 10.1746 29.4659 10.1024 29.3368 10.0562C29.2077 10.0101 29.0705 9.99092 28.9338 10Z" fill="white"/>
<path d="M71 11V21C71 21.3978 70.842 21.7793 70.5607 22.0606C70.2794 22.342 69.8978 22.5 69.5 22.5C69.1022 22.5 68.7206 22.342 68.4393 22.0606C68.158 21.7793 68 21.3978 68 21V11C68 10.6022 68.158 10.2206 68.4393 9.93933C68.7206 9.65802 69.1022 9.49999 69.5 9.49999C69.8978 9.49999 70.2794 9.65802 70.5607 9.93933C70.842 10.2206 71 10.6022 71 11ZM68.11 25.9912C68.2453 26.1365 68.3503 26.3072 68.4191 26.4934C68.4879 26.6796 68.5191 26.8776 68.5108 27.0759C68.5025 27.2742 68.4549 27.4689 68.3708 27.6487C68.2868 27.8286 68.1678 27.9899 68.0209 28.1234C67.874 28.2569 67.7021 28.3599 67.5151 28.4264C67.3281 28.493 67.1297 28.5218 66.9315 28.5111C66.7333 28.5005 66.5392 28.4506 66.3604 28.3643C66.1816 28.2781 66.0217 28.1572 65.89 28.0087L61.5 23.18V28C61.5 28.2808 61.4212 28.556 61.2724 28.7943C61.1237 29.0325 60.9111 29.2242 60.6588 29.3475C60.4065 29.4709 60.1247 29.5209 59.8453 29.492C59.566 29.463 59.3004 29.3562 59.0788 29.1837L50.485 22.5H45C44.337 22.5 43.7011 22.2366 43.2322 21.7678C42.7634 21.2989 42.5 20.663 42.5 20V12C42.5 11.3369 42.7634 10.7011 43.2322 10.2322C43.7011 9.76338 44.337 9.49999 45 9.49999H49.0638L45.89 6.00874C45.6281 5.71347 45.4931 5.32685 45.5143 4.93272C45.5355 4.53858 45.7112 4.16868 46.0033 3.90322C46.2954 3.63775 46.6803 3.49813 47.0747 3.5146C47.4691 3.53108 47.8411 3.70233 48.11 3.99124L68.11 25.9912ZM58.5 19.875L51.7913 12.5H45.5V19.5H51C51.3337 19.5 51.6579 19.6113 51.9213 19.8162L58.5 24.9325V19.875ZM56.7313 8.43749L58.5 7.06249V11.8625C58.5 12.2603 58.658 12.6418 58.9393 12.9231C59.2206 13.2045 59.6022 13.3625 60 13.3625C60.3978 13.3625 60.7794 13.2045 61.0607 12.9231C61.342 12.6418 61.5 12.2603 61.5 11.8625V3.99999C61.5 3.71915 61.4212 3.44395 61.2724 3.20572C61.1237 2.96748 60.9111 2.77578 60.6588 2.65243C60.4065 2.52908 60.1247 2.47904 59.8453 2.508C59.566 2.53696 59.3004 2.64375 59.0788 2.81624L54.89 6.07499C54.7294 6.19404 54.5943 6.34398 54.4925 6.51601C54.3907 6.68803 54.3243 6.87866 54.2973 7.0767C54.2702 7.27473 54.283 7.47619 54.3349 7.66922C54.3867 7.86225 54.4767 8.04296 54.5994 8.20074C54.7221 8.35852 54.8751 8.49019 55.0494 8.588C55.2237 8.68581 55.4158 8.7478 55.6144 8.77032C55.813 8.79284 56.0141 8.77544 56.2059 8.71915C56.3977 8.66285 56.5763 8.56878 56.7313 8.44249V8.43749ZM65 18.8675C65.3978 18.8675 65.7794 18.7095 66.0607 18.4281C66.342 18.1468 66.5 17.7653 66.5 17.3675V13C66.5 12.6022 66.342 12.2206 66.0607 11.9393C65.7794 11.658 65.3978 11.5 65 11.5C64.6022 11.5 64.2206 11.658 63.9393 11.9393C63.658 12.2206 63.5 12.6022 63.5 13V17.3675C63.5 17.7653 63.658 18.1468 63.9393 18.4281C64.2206 18.7095 64.6022 18.8675 65 18.8675Z" fill="white"/>
</g>
<defs>
<clipPath id="clip0_27_4056">
<rect width="72" height="32" rx="5" fill="white"/>
</clipPath>
</defs>
</svg>
