<svg width="72" height="32" viewBox="0 0 72 32" fill="none" xmlns="http://www.w3.org/2000/svg">
<g clip-path="url(#clip0_27_4062)">
<path d="M20.44 3.10124C20.2717 3.01904 20.0837 2.98577 19.8974 3.00522C19.7111 3.02467 19.534 3.09605 19.3862 3.21124L10.6562 9.99999H5C4.46957 9.99999 3.96086 10.2107 3.58579 10.5858C3.21071 10.9608 3 11.4696 3 12V20C3 20.5304 3.21071 21.0391 3.58579 21.4142C3.96086 21.7893 4.46957 22 5 22H10.6562L19.3862 28.7887C19.5614 28.926 19.7775 29.0004 20 29C20.2652 29 20.5196 28.8946 20.7071 28.7071C20.8946 28.5196 21 28.2652 21 28V3.99999C21.0001 3.81278 20.9477 3.62929 20.8487 3.47041C20.7497 3.31152 20.6081 3.18361 20.44 3.10124Z" fill="white"/>
<path d="M29.4133 16L31.7071 13.7075C31.8947 13.5199 32.0001 13.2654 32.0001 13C32.0001 12.7346 31.8947 12.4801 31.7071 12.2925C31.5194 12.1049 31.2649 11.9995 30.9996 11.9995C30.7342 11.9995 30.4797 12.1049 30.2921 12.2925L27.9996 14.5863L25.7071 12.2925C25.5194 12.1049 25.2649 11.9995 24.9996 11.9995C24.7342 11.9995 24.4797 12.1049 24.2921 12.2925C24.1044 12.4801 23.999 12.7346 23.999 13C23.999 13.2654 24.1044 13.5199 24.2921 13.7075L26.5858 16L24.2921 18.2925C24.1044 18.4801 23.999 18.7346 23.999 19C23.999 19.2654 24.1044 19.5199 24.2921 19.7075C24.4797 19.8951 24.7342 20.0006 24.9996 20.0006C25.2649 20.0006 25.5194 19.8951 25.7071 19.7075L27.9996 17.4138L30.2921 19.7075C30.4797 19.8951 30.7342 20.0006 30.9996 20.0006C31.2649 20.0006 31.5194 19.8951 31.7071 19.7075C31.8947 19.5199 32.0001 19.2654 32.0001 19C32.0001 18.7346 31.8947 18.4801 31.7071 18.2925L29.4133 16Z" fill="white"/>
<path d="M60.6588 2.65249C60.4065 2.52915 60.1246 2.4791 59.8453 2.50805C59.566 2.537 59.3004 2.64378 59.0788 2.81624L50.485 9.49999H45C44.337 9.49999 43.7011 9.76338 43.2322 10.2322C42.7634 10.7011 42.5 11.3369 42.5 12V20C42.5 20.663 42.7634 21.2989 43.2322 21.7678C43.7011 22.2366 44.337 22.5 45 22.5H50.485L59.0788 29.1837C59.3004 29.3562 59.566 29.463 59.8453 29.492C60.1247 29.5209 60.4065 29.4709 60.6588 29.3475C60.9111 29.2242 61.1237 29.0325 61.2724 28.7943C61.4212 28.556 61.5 28.2808 61.5 28V3.99999C61.5 3.71915 61.4211 3.44396 61.2724 3.20574C61.1237 2.96751 60.9111 2.77582 60.6588 2.65249ZM58.5 24.9337L51.9213 19.8162C51.6579 19.6113 51.3337 19.5 51 19.5H45.5V12.5H51C51.3337 12.5 51.6579 12.3887 51.9213 12.1837L58.5 7.06749V24.9337ZM72.0612 17.94C72.2008 18.0795 72.3115 18.2452 72.387 18.4275C72.4625 18.6098 72.5014 18.8052 72.5014 19.0025C72.5014 19.1998 72.4625 19.3952 72.387 19.5775C72.3115 19.7598 72.2008 19.9255 72.0612 20.065C71.9217 20.2045 71.7561 20.3152 71.5738 20.3907C71.3915 20.4662 71.1961 20.5051 70.9988 20.5051C70.8014 20.5051 70.606 20.4662 70.4237 20.3907C70.2414 20.3152 70.0758 20.2045 69.9363 20.065L68 18.125L66.0613 20.065C65.7795 20.3468 65.3973 20.5051 64.9988 20.5051C64.6002 20.5051 64.218 20.3468 63.9363 20.065C63.6545 19.7832 63.4961 19.401 63.4961 19.0025C63.4961 18.604 63.6545 18.2218 63.9363 17.94L65.875 16L63.935 14.0612C63.7955 13.9217 63.6848 13.7561 63.6093 13.5738C63.5338 13.3915 63.4949 13.1961 63.4949 12.9987C63.4949 12.8014 63.5338 12.606 63.6093 12.4237C63.6848 12.2414 63.7955 12.0758 63.935 11.9362C64.2168 11.6544 64.599 11.4961 64.9975 11.4961C65.1948 11.4961 65.3902 11.535 65.5725 11.6105C65.7548 11.686 65.9205 11.7967 66.06 11.9362L68 13.875L69.9387 11.9362C70.0783 11.7967 70.2439 11.686 70.4262 11.6105C70.6085 11.535 70.8039 11.4961 71.0012 11.4961C71.1986 11.4961 71.394 11.535 71.5763 11.6105C71.7586 11.686 71.9242 11.7967 72.0638 11.9362C72.2033 12.0758 72.314 12.2414 72.3895 12.4237C72.465 12.606 72.5039 12.8014 72.5039 12.9987C72.5039 13.1961 72.465 13.3915 72.3895 13.5738C72.314 13.7561 72.2033 13.9217 72.0638 14.0612L70.125 16L72.0612 17.94Z" fill="white"/>
</g>
<defs>
<clipPath id="clip0_27_4062">
<rect width="72" height="32" rx="5" fill="white"/>
</clipPath>
</defs>
</svg>
