<svg width="72" height="32" viewBox="0 0 72 32" fill="none" xmlns="http://www.w3.org/2000/svg">
<g clip-path="url(#clip0_27_4036)">
<path d="M8 10.5V21.5C8 21.6326 7.94732 21.7598 7.85355 21.8536C7.75979 21.9473 7.63261 22 7.5 22H4C3.46957 22 2.96086 21.7893 2.58579 21.4142C2.21071 21.0391 2 20.5304 2 20V12C2 11.4696 2.21071 10.9609 2.58579 10.5858C2.96086 10.2107 3.46957 10 4 10H7.5C7.63261 10 7.75979 10.0527 7.85355 10.1464C7.94732 10.2402 8 10.3674 8 10.5ZM19.6437 3.23125C19.4687 3.08639 19.2495 3.00547 19.0223 3.00184C18.795 2.9982 18.5734 3.07206 18.3937 3.21125L10.1975 9.58625C10.1367 9.63244 10.0873 9.69195 10.0531 9.7602C10.0188 9.82846 10.0007 9.90364 10 9.98V22.02C10.0002 22.096 10.0178 22.171 10.0514 22.2393C10.0849 22.3075 10.1336 22.3672 10.1938 22.4137L18.39 28.7887C18.5487 28.9122 18.741 28.9849 18.9417 28.9974C19.1424 29.0098 19.3422 28.9615 19.515 28.8587C19.6671 28.7641 19.792 28.6317 19.8777 28.4744C19.9634 28.3171 20.0068 28.1403 20.0037 27.9612V4.03125C20.0056 3.87937 19.974 3.72894 19.9111 3.59067C19.8482 3.4524 19.7557 3.32968 19.64 3.23125H19.6437Z" fill="white"/>
<path d="M59.6588 2.65249C59.4065 2.52915 59.1246 2.4791 58.8453 2.50805C58.566 2.537 58.3004 2.64378 58.0788 2.81624L49.485 9.49999H44C43.337 9.49999 42.7011 9.76338 42.2322 10.2322C41.7634 10.7011 41.5 11.3369 41.5 12V20C41.5 20.663 41.7634 21.2989 42.2322 21.7678C42.7011 22.2366 43.337 22.5 44 22.5H49.485L58.0788 29.1837C58.3004 29.3562 58.566 29.463 58.8453 29.492C59.1247 29.5209 59.4065 29.4709 59.6588 29.3475C59.9111 29.2242 60.1237 29.0325 60.2724 28.7943C60.4212 28.556 60.5 28.2808 60.5 28V3.99999C60.5 3.71915 60.4211 3.44396 60.2724 3.20574C60.1237 2.96751 59.9111 2.77582 59.6588 2.65249ZM44.5 12.5H48.5V19.5H44.5V12.5ZM57.5 24.9325L51.5 20.265V11.735L57.5 7.06749V24.9325Z" fill="white"/>
</g>
<defs>
<clipPath id="clip0_27_4036">
<rect width="72" height="32" rx="5" fill="white"/>
</clipPath>
</defs>
</svg>
