<svg width="72" height="32" viewBox="0 0 72 32" fill="none" xmlns="http://www.w3.org/2000/svg">
<g clip-path="url(#clip0_27_3051)">
<path d="M16 3C13.4288 3 10.9154 3.76244 8.77759 5.1909C6.63975 6.61935 4.97351 8.64968 3.98957 11.0251C3.00563 13.4006 2.74819 16.0144 3.2498 18.5362C3.75141 21.0579 4.98953 23.3743 6.80762 25.1924C8.6257 27.0105 10.9421 28.2486 13.4638 28.7502C15.9856 29.2518 18.5995 28.9944 20.9749 28.0104C23.3503 27.0265 25.3807 25.3603 26.8091 23.2224C28.2376 21.0846 29 18.5712 29 16C28.9964 12.5533 27.6256 9.24882 25.1884 6.81163C22.7512 4.37445 19.4467 3.00364 16 3ZM20.8888 6.14875C21.28 10.4637 19.375 12.43 16.875 14.2013C16.5938 11.1413 15.82 7.97625 12.0788 5.72375C13.4973 5.1817 15.0128 4.93961 16.5295 5.01276C18.0463 5.08591 19.5315 5.47271 20.8913 6.14875H20.8888ZM5.02251 16.6925C8.56501 14.1925 11.2188 14.8575 14.0063 16.1437C11.5 17.9175 9.14876 20.17 9.06501 24.5325C7.88622 23.5758 6.91843 22.3852 6.22267 21.0359C5.52691 19.6865 5.11827 18.2076 5.02251 16.6925ZM22.085 25.1588C18.1538 23.34 17.4013 20.7113 17.1213 17.6588C18.7113 18.3913 20.41 19.0025 22.2838 19.0025C23.7 19.0025 25.2163 18.6525 26.8625 17.7425C26.6196 19.241 26.07 20.6731 25.2479 21.9493C24.4258 23.2255 23.349 24.3181 22.085 25.1588Z" fill="white"/>
<path d="M56 2.5C53.33 2.5 50.7199 3.29176 48.4998 4.77516C46.2797 6.25856 44.5494 8.36697 43.5276 10.8338C42.5058 13.3006 42.2385 16.015 42.7594 18.6337C43.2803 21.2525 44.5661 23.6579 46.4541 25.5459C48.3421 27.434 50.7475 28.7197 53.3663 29.2406C55.985 29.7615 58.6994 29.4942 61.1662 28.4724C63.633 27.4506 65.7414 25.7203 67.2248 23.5002C68.7082 21.2801 69.5 18.67 69.5 16C69.496 12.4208 68.0724 8.98932 65.5416 6.45844C63.0107 3.92756 59.5792 2.50397 56 2.5ZM66.4563 15.0588C63.5638 17 61.3388 16.7175 58.99 15.75C59.9738 15 60.9013 14.1587 61.6588 13.105C62.6258 11.7593 63.2181 10.1809 63.375 8.53125C65.1436 10.2729 66.2357 12.5864 66.4563 15.0588ZM60.4125 6.475C60.65 9.95125 59.2875 11.7362 57.2763 13.285C57.1213 12.0575 56.8538 10.8337 56.3213 9.65C55.6369 8.13865 54.5637 6.83598 53.2113 5.875C55.6068 5.21372 58.1594 5.4264 60.4125 6.475ZM49.9613 7.41875C53.0863 8.95 53.9525 11.0188 54.2863 13.5363C53.1463 13.0588 51.9538 12.6775 50.6613 12.5475C49.0102 12.3851 47.3457 12.6638 45.8375 13.355C46.4682 10.9515 47.929 8.84866 49.9613 7.41875ZM45.5438 16.9412C48.4363 15 50.6613 15.2825 53.01 16.25C52.0263 17 51.0988 17.8413 50.3413 18.895C49.3742 20.2407 48.782 21.8191 48.625 23.4688C46.8564 21.7271 45.7643 19.4136 45.5438 16.9412ZM51.5875 25.525C51.35 22.0487 52.7125 20.2638 54.7238 18.715C54.8788 19.9425 55.1463 21.1663 55.6788 22.35C56.3631 23.8614 57.4363 25.164 58.7888 26.125C56.3932 26.7863 53.8406 26.5736 51.5875 25.525ZM62.0388 24.5812C58.9138 23.05 58.0475 20.9813 57.7138 18.4638C58.8538 18.9413 60.0463 19.3225 61.3388 19.4525C61.6513 19.4842 61.9625 19.5 62.2725 19.5C63.6151 19.4927 64.9409 19.2008 66.1625 18.6437C65.5321 21.0478 64.0713 23.1511 62.0388 24.5812Z" fill="white"/>
</g>
<defs>
<clipPath id="clip0_27_3051">
<rect width="72" height="32" rx="5" fill="white"/>
</clipPath>
</defs>
</svg>
