<svg width="72" height="32" viewBox="0 0 72 32" fill="none" xmlns="http://www.w3.org/2000/svg">
<g clip-path="url(#clip0_27_4865)">
<path d="M31 18C31 18.2652 30.8946 18.5196 30.7071 18.7071C30.5196 18.8946 30.2652 19 30 19C29.7348 19 29.4804 18.8946 29.2929 18.7071C29.1054 18.5196 29 18.2652 29 18C28.9964 14.8185 27.7309 11.7684 25.4813 9.51874C23.2316 7.26909 20.1815 6.00364 17 6C16.825 6 16.65 6 16.4775 6.0125C13.9197 6.14815 11.5113 7.25937 9.74821 9.11736C7.98511 10.9753 7.00152 13.4386 7 16C7.00232 18.121 7.84591 20.1545 9.3457 21.6543C10.8455 23.1541 12.879 23.9977 15 24C16.4582 23.9983 17.8562 23.4184 18.8873 22.3873C19.9184 21.3562 20.4983 19.9582 20.5 18.5C20.5 17.4391 20.0786 16.4217 19.3284 15.6716C18.5783 14.9214 17.5609 14.5 16.5 14.5C16.2348 14.5 15.9804 14.6054 15.7929 14.7929C15.6054 14.9804 15.5 15.2348 15.5 15.5C15.5 15.7652 15.6054 16.0196 15.7929 16.2071C15.9804 16.3946 16.2348 16.5 16.5 16.5C17.0304 16.5 17.5391 16.7107 17.9142 17.0858C18.2893 17.4609 18.5 17.9696 18.5 18.5C18.5 19.4283 18.1313 20.3185 17.4749 20.9749C16.8185 21.6313 15.9283 22 15 22C13.4092 21.9983 11.884 21.3657 10.7592 20.2408C9.63433 19.116 9.00165 17.5908 9 16C9.00232 13.879 9.84591 11.8455 11.3457 10.3457C12.8455 8.84591 14.879 8.00232 17 8C19.6513 8.00298 22.1931 9.0575 24.0678 10.9322C25.9425 12.8069 26.997 15.3487 27 18C26.9967 20.9164 25.8367 23.7123 23.7745 25.7745C21.7123 27.8367 18.9164 28.9967 16 29C12.8185 28.9964 9.76839 27.7309 7.51874 25.4813C5.26909 23.2316 4.00364 20.1815 4 17C4.00364 13.5533 5.37445 10.2488 7.81163 7.81163C10.2488 5.37445 13.5533 4.00364 17 4C20.7118 4.00397 24.2705 5.48024 26.8951 8.10489C29.5198 10.7295 30.996 14.2882 31 18Z" fill="white"/>
<path d="M71.25 17.25C71.25 17.6478 71.092 18.0294 70.8107 18.3107C70.5294 18.592 70.1478 18.75 69.75 18.75C69.3522 18.75 68.9706 18.592 68.6893 18.3107C68.408 18.0294 68.25 17.6478 68.25 17.25C68.2464 14.1348 67.0072 11.1483 64.8045 8.94551C62.6017 6.74275 59.6152 5.50364 56.5 5.5C53.7161 5.50298 51.0472 6.61018 49.0787 8.57867C47.1102 10.5472 46.003 13.2161 46 16C46.003 18.4523 46.9785 20.8034 48.7126 22.5374C50.4466 24.2715 52.7977 25.247 55.25 25.25C57.371 25.2477 59.4045 24.4041 60.9043 22.9043C62.4041 21.4045 63.2477 19.371 63.25 17.25C63.248 15.4604 62.5362 13.7447 61.2708 12.4792C60.0053 11.2138 58.2896 10.502 56.5 10.5C55.0418 10.5017 53.6438 11.0816 52.6127 12.1127C51.5816 13.1438 51.0017 14.5418 51 16C51 17.1272 51.4478 18.2082 52.2448 19.0052C53.0418 19.8022 54.1228 20.25 55.25 20.25C56.0456 20.25 56.8087 19.9339 57.3713 19.3713C57.9339 18.8087 58.25 18.0456 58.25 17.25C58.25 16.7859 58.0656 16.3408 57.7374 16.0126C57.4092 15.6844 56.9641 15.5 56.5 15.5C56.3678 15.5002 56.241 15.5528 56.1475 15.6462C56.4547 15.7929 56.7029 16.0396 56.8513 16.3459C56.9998 16.6522 57.0396 16.9999 56.9643 17.3319C56.889 17.6639 56.703 17.9603 56.4369 18.1726C56.1708 18.3849 55.8404 18.5003 55.5 18.5C54.837 18.5 54.2011 18.2366 53.7322 17.7678C53.2634 17.2989 53 16.663 53 16C53 15.0717 53.3687 14.1815 54.0251 13.5251C54.6815 12.8687 55.5717 12.5 56.5 12.5C57.1238 12.5 57.7415 12.6229 58.3177 12.8616C58.894 13.1003 59.4177 13.4502 59.8588 13.8912C60.2998 14.3323 60.6497 14.856 60.8884 15.4323C61.1271 16.0086 61.25 16.6262 61.25 17.25C61.2483 18.8408 60.6157 20.366 59.4908 21.4908C58.366 22.6157 56.8408 23.2483 55.25 23.25C53.3279 23.2477 51.4852 22.4831 50.126 21.124C48.7669 19.7648 48.0023 17.9221 48 16C48.0023 13.7464 48.8986 11.5857 50.4922 9.99215C52.0857 8.39859 54.2464 7.50232 56.5 7.5C59.0849 7.50298 61.5632 8.53116 63.391 10.359C65.2188 12.1868 66.247 14.6651 66.25 17.25C66.2467 20.1664 65.0867 22.9623 63.0245 25.0245C60.9623 27.0867 58.1664 28.2467 55.25 28.25C52.0022 28.2464 48.8885 26.9546 46.592 24.658C44.2954 22.3615 43.0036 19.2478 43 16C43.004 12.4208 44.4276 8.98932 46.9584 6.45844C49.4893 3.92756 52.9208 2.50397 56.5 2.5C60.4106 2.5043 64.1598 4.0597 66.9251 6.82493C69.6903 9.59016 71.2457 13.3394 71.25 17.25Z" fill="white"/>
</g>
<defs>
<clipPath id="clip0_27_4865">
<rect width="72" height="32" rx="5" fill="white"/>
</clipPath>
</defs>
</svg>
