<svg width="72" height="32" viewBox="0 0 72 32" fill="none" xmlns="http://www.w3.org/2000/svg">
<g clip-path="url(#clip0_27_5603)">
<path d="M14.0008 6V26C14.0008 26.2652 13.8954 26.5196 13.7079 26.7071C13.5204 26.8946 13.266 27 13.0008 27C12.7356 27 12.4812 26.8946 12.2937 26.7071C12.1061 26.5196 12.0008 26.2652 12.0008 26V17H8.00079V20C8.00094 20.1979 7.94238 20.3914 7.83251 20.556C7.72264 20.7206 7.5664 20.8489 7.38358 20.9246C7.20075 21.0004 6.99956 21.0202 6.80548 20.9815C6.6114 20.9429 6.43314 20.8475 6.29329 20.7075L2.29329 16.7075C2.20031 16.6146 2.12655 16.5043 2.07623 16.3829C2.0259 16.2615 2 16.1314 2 16C2 15.8686 2.0259 15.7385 2.07623 15.6171C2.12655 15.4957 2.20031 15.3854 2.29329 15.2925L6.29329 11.2925C6.43314 11.1525 6.6114 11.0571 6.80548 11.0185C6.99956 10.9798 7.20075 10.9996 7.38358 11.0754C7.5664 11.1511 7.72264 11.2794 7.83251 11.444C7.94238 11.6086 8.00094 11.8021 8.00079 12V15H12.0008V6C12.0008 5.73478 12.1061 5.48043 12.2937 5.29289C12.4812 5.10536 12.7356 5 13.0008 5C13.266 5 13.5204 5.10536 13.7079 5.29289C13.8954 5.48043 14.0008 5.73478 14.0008 6ZM29.7083 15.2925L25.7083 11.2925C25.5684 11.1525 25.3902 11.0571 25.1961 11.0185C25.002 10.9798 24.8008 10.9996 24.618 11.0754C24.4352 11.1511 24.2789 11.2794 24.1691 11.444C24.0592 11.6086 24.0006 11.8021 24.0008 12V15H20.0008V6C20.0008 5.73478 19.8954 5.48043 19.7079 5.29289C19.5204 5.10536 19.266 5 19.0008 5C18.7356 5 18.4812 5.10536 18.2937 5.29289C18.1061 5.48043 18.0008 5.73478 18.0008 6V26C18.0008 26.2652 18.1061 26.5196 18.2937 26.7071C18.4812 26.8946 18.7356 27 19.0008 27C19.266 27 19.5204 26.8946 19.7079 26.7071C19.8954 26.5196 20.0008 26.2652 20.0008 26V17H24.0008V20C24.0006 20.1979 24.0592 20.3914 24.1691 20.556C24.2789 20.7206 24.4352 20.8489 24.618 20.9246C24.8008 21.0004 25.002 21.0202 25.1961 20.9815C25.3902 20.9429 25.5684 20.8475 25.7083 20.7075L29.7083 16.7075C29.8013 16.6146 29.875 16.5043 29.9253 16.3829C29.9757 16.2615 30.0016 16.1314 30.0016 16C30.0016 15.8686 29.9757 15.7385 29.9253 15.6171C29.875 15.4957 29.8013 15.3854 29.7083 15.2925Z" fill="white"/>
<path d="M54.4992 6V26C54.4992 26.3978 54.3412 26.7794 54.0599 27.0607C53.7786 27.342 53.3971 27.5 52.9992 27.5C52.6014 27.5 52.2199 27.342 51.9386 27.0607C51.6573 26.7794 51.4992 26.3978 51.4992 26V17.5H46.6242L48.0642 18.9387C48.346 19.2205 48.5043 19.6027 48.5043 20.0012C48.5043 20.3998 48.346 20.782 48.0642 21.0637C47.7824 21.3455 47.4002 21.5039 47.0017 21.5039C46.6032 21.5039 46.221 21.3455 45.9392 21.0637L41.9392 17.0637C41.7994 16.9244 41.6884 16.7588 41.6127 16.5765C41.537 16.3941 41.498 16.1987 41.498 16.0012C41.498 15.8038 41.537 15.6083 41.6127 15.426C41.6884 15.2437 41.7994 15.0781 41.9392 14.9388L45.9392 10.9388C46.221 10.657 46.6032 10.4986 47.0017 10.4986C47.1991 10.4986 47.3944 10.5375 47.5768 10.613C47.7591 10.6885 47.9247 10.7992 48.0642 10.9388C48.2038 11.0783 48.3144 11.2439 48.39 11.4262C48.4655 11.6085 48.5043 11.8039 48.5043 12.0013C48.5043 12.1986 48.4655 12.394 48.39 12.5763C48.3144 12.7586 48.2038 12.9242 48.0642 13.0638L46.6242 14.5H51.4992V6C51.4992 5.60218 51.6573 5.22064 51.9386 4.93934C52.2199 4.65804 52.6014 4.5 52.9992 4.5C53.3971 4.5 53.7786 4.65804 54.0599 4.93934C54.3412 5.22064 54.4992 5.60218 54.4992 6ZM70.0605 14.9388L66.0605 10.9388C65.7787 10.657 65.3965 10.4986 64.998 10.4986C64.5995 10.4986 64.2173 10.657 63.9355 10.9388C63.6537 11.2205 63.4954 11.6027 63.4954 12.0013C63.4954 12.3998 63.6537 12.782 63.9355 13.0638L65.3742 14.5H60.4992V6C60.4992 5.60218 60.3412 5.22064 60.0599 4.93934C59.7786 4.65804 59.3971 4.5 58.9992 4.5C58.6014 4.5 58.2199 4.65804 57.9386 4.93934C57.6573 5.22064 57.4992 5.60218 57.4992 6V26C57.4992 26.3978 57.6573 26.7794 57.9386 27.0607C58.2199 27.342 58.6014 27.5 58.9992 27.5C59.3971 27.5 59.7786 27.342 60.0599 27.0607C60.3412 26.7794 60.4992 26.3978 60.4992 26V17.5H65.3742L63.9342 18.9387C63.6524 19.2205 63.4941 19.6027 63.4941 20.0012C63.4941 20.3998 63.6524 20.782 63.9342 21.0637C64.216 21.3455 64.5982 21.5039 64.9967 21.5039C65.3952 21.5039 65.7774 21.3455 66.0592 21.0637L70.0592 17.0637C70.1992 16.9245 70.3102 16.759 70.386 16.5767C70.4618 16.3944 70.5009 16.1989 70.501 16.0015C70.5012 15.8041 70.4623 15.6086 70.3867 15.4262C70.3111 15.2438 70.2002 15.0782 70.0605 14.9388Z" fill="white"/>
</g>
<defs>
<clipPath id="clip0_27_5603">
<rect width="72" height="32" rx="5" fill="white"/>
</clipPath>
</defs>
</svg>
