<svg width="72" height="32" viewBox="0 0 72 32" fill="none" xmlns="http://www.w3.org/2000/svg">
<g clip-path="url(#clip0_27_5608)">
<path d="M27 19C27 19.2652 26.8946 19.5196 26.7071 19.7071C26.5196 19.8946 26.2652 20 26 20H17V24H20C20.1979 23.9998 20.3914 24.0584 20.556 24.1683C20.7206 24.2781 20.8489 24.4344 20.9246 24.6172C21.0004 24.8 21.0202 25.0012 20.9815 25.1953C20.9429 25.3894 20.8475 25.5676 20.7075 25.7075L16.7075 29.7075C16.6146 29.8005 16.5043 29.8742 16.3829 29.9246C16.2615 29.9749 16.1314 30.0008 16 30.0008C15.8686 30.0008 15.7385 29.9749 15.6171 29.9246C15.4957 29.8742 15.3854 29.8005 15.2925 29.7075L11.2925 25.7075C11.1525 25.5676 11.0571 25.3894 11.0185 25.1953C10.9798 25.0012 10.9996 24.8 11.0754 24.6172C11.1511 24.4344 11.2794 24.2781 11.444 24.1683C11.6086 24.0584 11.8021 23.9998 12 24H15V20H6C5.73478 20 5.48043 19.8946 5.29289 19.7071C5.10536 19.5196 5 19.2652 5 19C5 18.7348 5.10536 18.4804 5.29289 18.2929C5.48043 18.1053 5.73478 18 6 18H26C26.2652 18 26.5196 18.1053 26.7071 18.2929C26.8946 18.4804 27 18.7348 27 19ZM6 14H26C26.2652 14 26.5196 13.8946 26.7071 13.7071C26.8946 13.5196 27 13.2652 27 13C27 12.7348 26.8946 12.4804 26.7071 12.2929C26.5196 12.1054 26.2652 12 26 12H17V7.99999H20C20.1979 8.00015 20.3914 7.94158 20.556 7.83171C20.7206 7.72184 20.8489 7.56561 20.9246 7.38278C21.0004 7.19996 21.0202 6.99877 20.9815 6.80469C20.9429 6.6106 20.8475 6.43235 20.7075 6.29249L16.7075 2.29249C16.6146 2.19952 16.5043 2.12576 16.3829 2.07543C16.2615 2.02511 16.1314 1.99921 16 1.99921C15.8686 1.99921 15.7385 2.02511 15.6171 2.07543C15.4957 2.12576 15.3854 2.19952 15.2925 2.29249L11.2925 6.29249C11.1525 6.43235 11.0571 6.6106 11.0185 6.80469C10.9798 6.99877 10.9996 7.19996 11.0754 7.38278C11.1511 7.56561 11.2794 7.72184 11.444 7.83171C11.6086 7.94158 11.8021 8.00015 12 7.99999H15V12H6C5.73478 12 5.48043 12.1054 5.29289 12.2929C5.10536 12.4804 5 12.7348 5 13C5 13.2652 5.10536 13.5196 5.29289 13.7071C5.48043 13.8946 5.73478 14 6 14Z" fill="white"/>
<path d="M67.5 19C67.5 19.3978 67.342 19.7794 67.0607 20.0607C66.7794 20.342 66.3978 20.5 66 20.5H57.5V25.375L58.9387 23.935C59.2205 23.6532 59.6027 23.4949 60.0012 23.4949C60.3998 23.4949 60.782 23.6532 61.0637 23.935C61.3455 24.2168 61.5039 24.599 61.5039 24.9975C61.5039 25.396 61.3455 25.7782 61.0637 26.06L57.0637 30.06C56.9244 30.1999 56.7588 30.3108 56.5765 30.3865C56.3941 30.4622 56.1987 30.5012 56.0012 30.5012C55.8038 30.5012 55.6083 30.4622 55.426 30.3865C55.2437 30.3108 55.0781 30.1999 54.9388 30.06L50.9388 26.06C50.7992 25.9205 50.6885 25.7548 50.613 25.5725C50.5375 25.3902 50.4986 25.1948 50.4986 24.9975C50.4986 24.8002 50.5375 24.6048 50.613 24.4225C50.6885 24.2402 50.7992 24.0746 50.9388 23.935C51.0783 23.7955 51.2439 23.6848 51.4262 23.6093C51.6085 23.5338 51.8039 23.4949 52.0013 23.4949C52.1986 23.4949 52.394 23.5338 52.5763 23.6093C52.7586 23.6848 52.9242 23.7955 53.0638 23.935L54.5 25.375V20.5H46C45.6022 20.5 45.2206 20.342 44.9393 20.0607C44.658 19.7794 44.5 19.3978 44.5 19C44.5 18.6022 44.658 18.2207 44.9393 17.9394C45.2206 17.6581 45.6022 17.5 46 17.5H66C66.3978 17.5 66.7794 17.6581 67.0607 17.9394C67.342 18.2207 67.5 18.6022 67.5 19ZM46 14.5H66C66.3978 14.5 66.7794 14.342 67.0607 14.0607C67.342 13.7794 67.5 13.3978 67.5 13C67.5 12.6022 67.342 12.2207 67.0607 11.9394C66.7794 11.6581 66.3978 11.5 66 11.5H57.5V6.62502L58.9387 8.06502C59.0783 8.20455 59.2439 8.31523 59.4262 8.39075C59.6085 8.46626 59.8039 8.50513 60.0012 8.50513C60.1986 8.50513 60.394 8.46626 60.5763 8.39075C60.7586 8.31523 60.9242 8.20455 61.0637 8.06502C61.2033 7.92549 61.314 7.75985 61.3895 7.57754C61.465 7.39524 61.5039 7.19985 61.5039 7.00252C61.5039 6.8052 61.465 6.60981 61.3895 6.4275C61.314 6.2452 61.2033 6.07955 61.0637 5.94002L57.0637 1.94002C56.9244 1.80018 56.7588 1.68923 56.5765 1.61352C56.3941 1.53781 56.1987 1.49884 56.0012 1.49884C55.8038 1.49884 55.6083 1.53781 55.426 1.61352C55.2437 1.68923 55.0781 1.80018 54.9388 1.94002L50.9388 5.94002C50.657 6.22182 50.4986 6.60401 50.4986 7.00252C50.4986 7.40104 50.657 7.78323 50.9388 8.06502C51.2205 8.34682 51.6027 8.50513 52.0013 8.50513C52.3998 8.50513 52.782 8.34682 53.0638 8.06502L54.5 6.62502V11.5H46C45.6022 11.5 45.2206 11.6581 44.9393 11.9394C44.658 12.2207 44.5 12.6022 44.5 13C44.5 13.3978 44.658 13.7794 44.9393 14.0607C45.2206 14.342 45.6022 14.5 46 14.5Z" fill="white"/>
</g>
<defs>
<clipPath id="clip0_27_5608">
<rect width="72" height="32" rx="5" fill="white"/>
</clipPath>
</defs>
</svg>
