<svg width="72" height="32" viewBox="0 0 72 32" fill="none" xmlns="http://www.w3.org/2000/svg">
<g clip-path="url(#clip0_27_319)">
<path d="M16 3C13.4288 3 10.9154 3.76244 8.77759 5.1909C6.63975 6.61935 4.97351 8.64968 3.98957 11.0251C3.00563 13.4006 2.74819 16.0144 3.2498 18.5362C3.75141 21.0579 4.98953 23.3743 6.80762 25.1924C8.6257 27.0105 10.9421 28.2486 13.4638 28.7502C15.9856 29.2518 18.5995 28.9944 20.9749 28.0104C23.3503 27.0265 25.3807 25.3603 26.8091 23.2224C28.2376 21.0846 29 18.5712 29 16C28.9964 12.5533 27.6256 9.24882 25.1884 6.81163C22.7512 4.37445 19.4467 3.00364 16 3ZM19.8838 21.2175C19.7597 21.4518 19.5477 21.6273 19.2943 21.7054C19.0409 21.7834 18.7669 21.7577 18.5325 21.6338C17.754 21.2153 16.8839 20.9962 16 20.9962C15.1161 20.9962 14.246 21.2153 13.4675 21.6338C13.2338 21.7513 12.9633 21.7725 12.714 21.6929C12.4648 21.6133 12.2567 21.4392 12.1344 21.2079C12.0121 20.9766 11.9852 20.7066 12.0596 20.4558C12.1341 20.205 12.3038 19.9934 12.5325 19.8662C13.6009 19.3011 14.7913 19.0057 16 19.0057C17.2087 19.0057 18.3991 19.3011 19.4675 19.8662C19.7018 19.9903 19.8773 20.2023 19.9554 20.4557C20.0335 20.7091 20.0077 20.9831 19.8838 21.2175ZM21.8838 17.7175C21.7591 17.9515 21.5466 18.1264 21.2929 18.2038C21.0393 18.2812 20.7653 18.2546 20.5313 18.13C19.1369 17.3871 17.5812 16.9985 16.0013 16.9985C14.4213 16.9985 12.8656 17.3871 11.4713 18.13C11.2377 18.2493 10.9666 18.2721 10.7165 18.1934C10.4663 18.1148 10.257 17.941 10.1338 17.7095C10.0105 17.478 9.98306 17.2074 10.0574 16.9559C10.1318 16.7044 10.3019 16.4922 10.5313 16.365C12.2148 15.4673 14.0933 14.9977 16.0013 14.9977C17.9092 14.9977 19.7878 15.4673 21.4713 16.365C21.5874 16.4268 21.6901 16.511 21.7736 16.6126C21.8572 16.7142 21.9198 16.8313 21.958 16.9572C21.9962 17.083 22.0092 17.2152 21.9963 17.3461C21.9833 17.477 21.9446 17.6041 21.8825 17.72L21.8838 17.7175ZM23.8838 14.2175C23.8219 14.3334 23.7378 14.436 23.6363 14.5195C23.5348 14.6029 23.4178 14.6655 23.2921 14.7037C23.1664 14.7419 23.0344 14.7549 22.9036 14.7421C22.7728 14.7292 22.6459 14.6907 22.53 14.6287C20.5219 13.5532 18.2792 12.9904 16.0013 12.9904C13.7233 12.9904 11.4806 13.5532 9.47251 14.6287C9.23845 14.7537 8.96433 14.7806 8.71046 14.7035C8.45658 14.6264 8.24374 14.4516 8.11876 14.2175C7.99377 13.9834 7.96689 13.7093 8.04401 13.4555C8.12113 13.2016 8.29595 12.9887 8.53001 12.8638C10.8282 11.6338 13.3946 10.9902 16.0013 10.9902C18.6079 10.9902 21.1743 11.6338 23.4725 12.8638C23.5887 12.9257 23.6914 13.01 23.7749 13.1117C23.8585 13.2135 23.921 13.3307 23.9591 13.4567C23.9972 13.5827 24.0101 13.715 23.9969 13.846C23.9838 13.977 23.9449 14.1041 23.8825 14.22L23.8838 14.2175Z" fill="white"/>
<path d="M56 2.5C53.33 2.5 50.7199 3.29176 48.4998 4.77516C46.2797 6.25856 44.5494 8.36697 43.5276 10.8338C42.5058 13.3006 42.2385 16.015 42.7594 18.6337C43.2803 21.2525 44.5661 23.6579 46.4541 25.5459C48.3421 27.434 50.7475 28.7197 53.3663 29.2406C55.985 29.7615 58.6994 29.4942 61.1662 28.4724C63.633 27.4506 65.7414 25.7203 67.2248 23.5002C68.7082 21.2801 69.5 18.67 69.5 16C69.496 12.4208 68.0724 8.98932 65.5416 6.45844C63.0107 3.92756 59.5792 2.50397 56 2.5ZM56 26.5C53.9233 26.5 51.8932 25.8842 50.1665 24.7304C48.4398 23.5767 47.094 21.9368 46.2993 20.0182C45.5046 18.0996 45.2966 15.9884 45.7018 13.9516C46.1069 11.9148 47.1069 10.0438 48.5754 8.57538C50.0438 7.10693 51.9148 6.1069 53.9516 5.70175C55.9884 5.29661 58.0996 5.50454 60.0182 6.29926C61.9368 7.09399 63.5767 8.4398 64.7304 10.1665C65.8842 11.8932 66.5 13.9233 66.5 16C66.497 18.7839 65.3898 21.4528 63.4213 23.4213C61.4529 25.3898 58.7839 26.497 56 26.5ZM64.3238 15.955C64.2309 16.1288 64.1048 16.2825 63.9525 16.4076C63.8003 16.5326 63.6249 16.6264 63.4364 16.6836C63.2479 16.7408 63.05 16.7604 62.8539 16.7411C62.6578 16.7218 62.4675 16.6641 62.2938 16.5713C60.3578 15.5351 58.1959 14.9929 56 14.9929C53.8041 14.9929 51.6423 15.5351 49.7063 16.5713C49.4894 16.6888 49.2466 16.7502 49 16.75C48.6657 16.7499 48.341 16.6382 48.0774 16.4325C47.8139 16.2268 47.6266 15.939 47.5453 15.6147C47.464 15.2904 47.4934 14.9483 47.6288 14.6426C47.7642 14.3369 47.9978 14.0853 48.2925 13.9275C50.6629 12.6584 53.31 11.9943 55.9988 11.9943C58.6875 11.9943 61.3346 12.6584 63.705 13.9275C64.0557 14.1145 64.3179 14.4331 64.4339 14.8132C64.5499 15.1934 64.5103 15.604 64.3238 15.955ZM62.3238 20.455C62.2317 20.6293 62.1062 20.7838 61.9543 20.9096C61.8025 21.0354 61.6274 21.13 61.439 21.1881C61.2505 21.2461 61.0525 21.2665 60.8562 21.2479C60.6599 21.2294 60.4692 21.1723 60.295 21.08C58.9732 20.3749 57.4981 20.006 56 20.006C54.5019 20.006 53.0268 20.3749 51.705 21.08C51.3547 21.2589 50.9481 21.2931 50.5728 21.1751C50.1976 21.0571 49.8837 20.7965 49.6988 20.4493C49.5138 20.1021 49.4727 19.6961 49.5842 19.3189C49.6958 18.9417 49.951 18.6233 50.295 18.4325C52.0509 17.4962 54.0101 17.0065 56 17.0065C57.9899 17.0065 59.9492 17.4962 61.705 18.4325C62.0544 18.6195 62.3156 18.9372 62.4315 19.3161C62.5474 19.6951 62.5087 20.1045 62.3238 20.455Z" fill="white"/>
</g>
<defs>
<clipPath id="clip0_27_319">
<rect width="72" height="32" rx="5" fill="white"/>
</clipPath>
</defs>
</svg>
