<svg width="72" height="32" viewBox="0 0 72 32" fill="none" xmlns="http://www.w3.org/2000/svg">
<g clip-path="url(#clip0_27_5613)">
<path d="M25 10C25.2652 10 25.5196 9.89464 25.7071 9.70711C25.8946 9.51957 26 9.26522 26 9C25.998 7.14409 25.2599 5.36477 23.9476 4.05245C22.6352 2.74012 20.8559 2.00199 19 2H10C9.46957 2 8.96086 2.21071 8.58579 2.58579C8.21071 2.96086 8 3.46957 8 4V10C8 10.7956 7.68393 11.5587 7.12132 12.1213C6.55871 12.6839 5.79565 13 5 13C4.73478 13 4.48043 13.1054 4.29289 13.2929C4.10536 13.4804 4 13.7348 4 14C4 14.2652 4.10536 14.5196 4.29289 14.7071C4.48043 14.8946 4.73478 15 5 15C6.32608 15 7.59785 14.4732 8.53553 13.5355C9.47322 12.5979 10 11.3261 10 10H14V13.0775C14.0013 13.5275 13.9007 13.972 13.7059 14.3777C13.5111 14.7833 13.227 15.1397 12.875 15.42L10.875 17.0187C10.2884 17.486 9.81502 18.0798 9.49032 18.7558C9.16562 19.4319 8.998 20.1726 9 20.9225V28C9 28.5304 9.21071 29.0391 9.58579 29.4142C9.96086 29.7893 10.4696 30 11 30H24C24.5304 30 25.0391 29.7893 25.4142 29.4142C25.7893 29.0391 26 28.5304 26 28V26.4338C26.0017 20.6838 24.539 15.0282 21.75 10H25ZM10 4H19C20.1522 4.00164 21.2685 4.40035 22.1611 5.12894C23.0536 5.85754 23.6677 6.8715 23.9 8H10V4Z" fill="white"/>
<path d="M65 10.5C65.3978 10.5 65.7794 10.342 66.0607 10.0607C66.342 9.77936 66.5 9.39782 66.5 9C66.4977 7.01159 65.7068 5.10528 64.3007 3.69926C62.8947 2.29324 60.9884 1.50232 59 1.5H50C49.337 1.5 48.7011 1.76339 48.2322 2.23223C47.7634 2.70107 47.5 3.33696 47.5 4V10C47.5 10.663 47.2366 11.2989 46.7678 11.7678C46.2989 12.2366 45.663 12.5 45 12.5C44.6022 12.5 44.2206 12.658 43.9393 12.9393C43.658 13.2206 43.5 13.6022 43.5 14C43.5 14.3978 43.658 14.7794 43.9393 15.0607C44.2206 15.342 44.6022 15.5 45 15.5C46.3717 15.4984 47.6934 14.9849 48.7065 14.0602C49.7196 13.1354 50.3511 11.8659 50.4775 10.5H53.5V13.0775C53.5007 13.4526 53.4167 13.8231 53.2541 14.1612C53.0915 14.4993 52.8547 14.7963 52.5612 15.03L50.5638 16.625C49.918 17.1394 49.3969 17.7931 49.0396 18.5373C48.6822 19.2815 48.4977 20.0969 48.5 20.9225V28C48.5 28.663 48.7634 29.2989 49.2322 29.7678C49.7011 30.2366 50.337 30.5 51 30.5H64C64.663 30.5 65.2989 30.2366 65.7678 29.7678C66.2366 29.2989 66.5 28.663 66.5 28V26.4338C66.5014 20.8842 65.1581 15.417 62.585 10.5H65ZM50.5 4.5H59C59.9306 4.50003 60.8382 4.78854 61.598 5.32581C62.3578 5.86307 62.9323 6.62267 63.2425 7.5H50.5V4.5ZM63.5 26.4338V27.5H51.5V20.9225C51.4993 20.5474 51.5833 20.1769 51.7459 19.8388C51.9085 19.5007 52.1453 19.2037 52.4388 18.97L54.4388 17.3725C55.0837 16.8581 55.6041 16.2047 55.961 15.4609C56.3179 14.7172 56.5022 13.9024 56.5 13.0775V10.5H59.155C62.0007 15.3277 63.5011 20.8297 63.5 26.4338Z" fill="white"/>
</g>
<defs>
<clipPath id="clip0_27_5613">
<rect width="72" height="32" rx="5" fill="white"/>
</clipPath>
</defs>
</svg>
