<svg width="72" height="32" viewBox="0 0 72 32" fill="none" xmlns="http://www.w3.org/2000/svg">
<g clip-path="url(#clip0_27_324)">
<path d="M26 4H6C5.46957 4 4.96086 4.21071 4.58579 4.58579C4.21071 4.96086 4 5.46957 4 6V26C4 26.5304 4.21071 27.0391 4.58579 27.4142C4.96086 27.7893 5.46957 28 6 28H26C26.5304 28 27.0391 27.7893 27.4142 27.4142C27.7893 27.0391 28 26.5304 28 26V6C28 5.46957 27.7893 4.96086 27.4142 4.58579C27.0391 4.21071 26.5304 4 26 4ZM26 26H6V6H26V26ZM21 12V20C21 20.2652 20.8946 20.5196 20.7071 20.7071C20.5196 20.8946 20.2652 21 20 21H12C11.7348 21 11.4804 20.8946 11.2929 20.7071C11.1054 20.5196 11 20.2652 11 20V12C11 11.7348 11.1054 11.4804 11.2929 11.2929C11.4804 11.1054 11.7348 11 12 11H20C20.2652 11 20.5196 11.1054 20.7071 11.2929C20.8946 11.4804 21 11.7348 21 12Z" fill="white"/>
<path d="M66 3.5H46C45.337 3.5 44.7011 3.76339 44.2322 4.23223C43.7634 4.70107 43.5 5.33696 43.5 6V26C43.5 26.663 43.7634 27.2989 44.2322 27.7678C44.7011 28.2366 45.337 28.5 46 28.5H66C66.663 28.5 67.2989 28.2366 67.7678 27.7678C68.2366 27.2989 68.5 26.663 68.5 26V6C68.5 5.33696 68.2366 4.70107 67.7678 4.23223C67.2989 3.76339 66.663 3.5 66 3.5ZM65.5 25.5H46.5V6.5H65.5V25.5ZM52 21.5H60C60.3978 21.5 60.7794 21.342 61.0607 21.0607C61.342 20.7794 61.5 20.3978 61.5 20V12C61.5 11.6022 61.342 11.2206 61.0607 10.9393C60.7794 10.658 60.3978 10.5 60 10.5H52C51.6022 10.5 51.2206 10.658 50.9393 10.9393C50.658 11.2206 50.5 11.6022 50.5 12V20C50.5 20.3978 50.658 20.7794 50.9393 21.0607C51.2206 21.342 51.6022 21.5 52 21.5ZM53.5 13.5H58.5V18.5H53.5V13.5Z" fill="white"/>
</g>
<defs>
<clipPath id="clip0_27_324">
<rect width="72" height="32" rx="5" fill="white"/>
</clipPath>
</defs>
</svg>
