<svg width="72" height="32" viewBox="0 0 72 32" fill="none" xmlns="http://www.w3.org/2000/svg">
<g clip-path="url(#clip0_27_329)">
<path d="M26 4H6C5.46957 4 4.96086 4.21071 4.58579 4.58579C4.21071 4.96086 4 5.46957 4 6V26C4 26.5304 4.21071 27.0391 4.58579 27.4142C4.96086 27.7893 5.46957 28 6 28H26C26.5304 28 27.0391 27.7893 27.4142 27.4142C27.7893 27.0391 28 26.5304 28 26V6C28 5.46957 27.7893 4.96086 27.4142 4.58579C27.0391 4.21071 26.5304 4 26 4ZM16.8575 5.8575C16.9504 5.76452 17.0607 5.69076 17.1821 5.64044C17.3035 5.59012 17.4336 5.56421 17.565 5.56421C17.6964 5.56421 17.8265 5.59012 17.9479 5.64044C18.0693 5.69076 18.1796 5.76452 18.2725 5.8575L23.9287 11.515C24.1084 11.7041 24.207 11.9558 24.2037 12.2166C24.2004 12.4773 24.0953 12.7265 23.9109 12.9109C23.7265 13.0953 23.4773 13.2004 23.2166 13.2037C22.9558 13.207 22.7041 13.1084 22.515 12.9288L16.8575 7.2725C16.7645 7.17963 16.6908 7.06934 16.6404 6.94794C16.5901 6.82654 16.5642 6.69642 16.5642 6.565C16.5642 6.43358 16.5901 6.30346 16.6404 6.18206C16.6908 6.06066 16.7645 5.95037 16.8575 5.8575ZM12.5225 12.3462C12.624 12.1013 12.8186 11.9067 13.0636 11.8052C13.3085 11.7037 13.5838 11.7036 13.8287 11.805L21.22 14.8663C21.4344 14.9543 21.6116 15.1142 21.7212 15.3185C21.8308 15.5227 21.866 15.7588 21.8209 15.9861C21.7757 16.2135 21.6529 16.4181 21.4735 16.565C21.2942 16.7119 21.0693 16.7918 20.8375 16.7913C20.7061 16.7912 20.5761 16.7648 20.455 16.7138L13.0638 13.6525C12.8188 13.551 12.6242 13.3564 12.5227 13.1114C12.4212 12.8665 12.4211 12.5912 12.5225 12.3462ZM12 19H20C20.2652 19 20.5196 19.1054 20.7071 19.2929C20.8946 19.4804 21 19.7348 21 20C21 20.2652 20.8946 20.5196 20.7071 20.7071C20.5196 20.8946 20.2652 21 20 21H12C11.7348 21 11.4804 20.8946 11.2929 20.7071C11.1054 20.5196 11 20.2652 11 20C11 19.7348 11.1054 19.4804 11.2929 19.2929C11.4804 19.1054 11.7348 19 12 19ZM25 24C25 24.2652 24.8946 24.5196 24.7071 24.7071C24.5196 24.8946 24.2652 25 24 25H8C7.73478 25 7.48043 24.8946 7.29289 24.7071C7.10536 24.5196 7 24.2652 7 24V18C7 17.7348 7.10536 17.4804 7.29289 17.2929C7.48043 17.1054 7.73478 17 8 17C8.26522 17 8.51957 17.1054 8.70711 17.2929C8.89464 17.4804 9 17.7348 9 18V23H23V18C23 17.7348 23.1054 17.4804 23.2929 17.2929C23.4804 17.1054 23.7348 17 24 17C24.2652 17 24.5196 17.1054 24.7071 17.2929C24.8946 17.4804 25 17.7348 25 18V24Z" fill="white"/>
<path d="M67.5 18.9588V27C67.5 27.3978 67.342 27.7794 67.0607 28.0607C66.7794 28.342 66.3978 28.5 66 28.5H46C45.6022 28.5 45.2206 28.342 44.9393 28.0607C44.658 27.7794 44.5 27.3978 44.5 27V18.9588C44.5 18.5609 44.658 18.1794 44.9393 17.8981C45.2206 17.6168 45.6022 17.4588 46 17.4588C46.3978 17.4588 46.7794 17.6168 47.0607 17.8981C47.342 18.1794 47.5 18.5609 47.5 18.9588V25.4875H64.5V18.9588C64.5 18.5609 64.658 18.1794 64.9393 17.8981C65.2206 17.6168 65.6022 17.4588 66 17.4588C66.3978 17.4588 66.7794 17.6168 67.0607 17.8981C67.342 18.1794 67.5 18.5609 67.5 18.9588ZM51 22.9763H61C61.3921 22.965 61.7644 22.8013 62.0378 22.5199C62.3112 22.2385 62.4641 21.8617 62.4641 21.4694C62.4641 21.0771 62.3112 20.7002 62.0378 20.4189C61.7644 20.1375 61.3921 19.9738 61 19.9625H51C50.6079 19.9738 50.2356 20.1375 49.9622 20.4189C49.6888 20.7002 49.5359 21.0771 49.5359 21.4694C49.5359 21.8617 49.6888 22.2385 49.9622 22.5199C50.2356 22.8013 50.6079 22.965 51 22.9763ZM52.025 14.125L61.4212 17.5613C61.7969 17.6973 62.2112 17.6787 62.573 17.5093C62.9348 17.3399 63.2145 17.0337 63.3506 16.6581C63.4867 16.2825 63.468 15.8682 63.2986 15.5064C63.1293 15.1446 62.8231 14.8648 62.4475 14.7288L53.0513 11.2938C52.6758 11.1577 52.2617 11.1763 51.9 11.3456C51.5383 11.5148 51.2586 11.8208 51.1225 12.1963C50.9864 12.5717 51.005 12.9858 51.1743 13.3475C51.3435 13.7093 51.6496 13.9889 52.025 14.125ZM56 6.16126L63.6612 12.6163C63.966 12.8717 64.3597 12.9957 64.7558 12.9611C65.1519 12.9264 65.5181 12.7358 65.7738 12.4313C66.0303 12.1246 66.1548 11.7288 66.1201 11.3306C66.0855 10.9323 65.8944 10.564 65.5888 10.3063L57.93 3.85251C57.779 3.72589 57.6045 3.63027 57.4166 3.5711C57.2286 3.51194 57.0308 3.49039 56.8345 3.50768C56.6382 3.52498 56.4473 3.58078 56.2726 3.67191C56.0978 3.76303 55.9428 3.88769 55.8162 4.03876C55.5607 4.34524 55.4366 4.74029 55.471 5.13785C55.5054 5.53541 55.6956 5.90326 56 6.16126Z" fill="white"/>
</g>
<defs>
<clipPath id="clip0_27_329">
<rect width="72" height="32" rx="5" fill="white"/>
</clipPath>
</defs>
</svg>
