<svg width="72" height="32" viewBox="0 0 72 32" fill="none" xmlns="http://www.w3.org/2000/svg">
<g clip-path="url(#clip0_27_5660)">
<path d="M3 10C3.0004 9.82487 3.04679 9.6529 3.13454 9.50131C3.22229 9.34973 3.34831 9.22385 3.5 9.13627L15.5 2.13627C15.6529 2.04711 15.8267 2.00012 16.0037 2.00012C16.1808 2.00012 16.3546 2.04711 16.5075 2.13627L28.5075 9.13627C28.6585 9.22434 28.7837 9.35044 28.8707 9.50199C28.9578 9.65354 29.0036 9.82525 29.0036 10C29.0036 10.1748 28.9578 10.3465 28.8707 10.4981C28.7837 10.6496 28.6585 10.7757 28.5075 10.8638L16.5075 17.8638C16.3546 17.9529 16.1808 17.9999 16.0037 17.9999C15.8267 17.9999 15.6529 17.9529 15.5 17.8638L3.5 10.8638C3.34831 10.7762 3.22229 10.6503 3.13454 10.4987C3.04679 10.3471 3.0004 10.1752 3 10ZM27.5 15.1363L16 21.8425L4.5 15.1363C4.27231 15.0229 4.00997 15.0006 3.76638 15.0738C3.5228 15.147 3.31627 15.3103 3.18884 15.5305C3.06141 15.7506 3.02266 16.011 3.08046 16.2587C3.13827 16.5064 3.28829 16.7228 3.5 16.8638L15.5 23.8638C15.6529 23.9529 15.8267 23.9999 16.0037 23.9999C16.1808 23.9999 16.3546 23.9529 16.5075 23.8638L28.5075 16.8638C28.6228 16.7986 28.7239 16.7111 28.8051 16.6065C28.8863 16.5019 28.9459 16.3822 28.9804 16.2543C29.015 16.1265 29.0238 15.9931 29.0064 15.8618C28.9889 15.7305 28.9456 15.604 28.8789 15.4896C28.8122 15.3752 28.7234 15.2752 28.6177 15.1954C28.5121 15.1156 28.3916 15.0576 28.2633 15.0247C28.135 14.9918 28.0015 14.9848 27.8705 15.0039C27.7394 15.0231 27.6135 15.0681 27.5 15.1363ZM29 24H27V22C27 21.7348 26.8946 21.4805 26.7071 21.2929C26.5196 21.1054 26.2652 21 26 21C25.7348 21 25.4804 21.1054 25.2929 21.2929C25.1054 21.4805 25 21.7348 25 22V24H23C22.7348 24 22.4804 24.1054 22.2929 24.2929C22.1054 24.4805 22 24.7348 22 25C22 25.2652 22.1054 25.5196 22.2929 25.7071C22.4804 25.8947 22.7348 26 23 26H25V28C25 28.2652 25.1054 28.5196 25.2929 28.7071C25.4804 28.8947 25.7348 29 26 29C26.2652 29 26.5196 28.8947 26.7071 28.7071C26.8946 28.5196 27 28.2652 27 28V26H29C29.2652 26 29.5196 25.8947 29.7071 25.7071C29.8946 25.5196 30 25.2652 30 25C30 24.7348 29.8946 24.4805 29.7071 24.2929C29.5196 24.1054 29.2652 24 29 24ZM17.5 26.97L16 27.845L4.5 21.1363C4.27231 21.0229 4.00997 21.0006 3.76638 21.0738C3.5228 21.147 3.31627 21.3103 3.18884 21.5305C3.06141 21.7506 3.02266 22.011 3.08046 22.2587C3.13827 22.5064 3.28829 22.7228 3.5 22.8638L15.5 29.8638C15.6529 29.9529 15.8267 29.9999 16.0037 29.9999C16.1808 29.9999 16.3546 29.9529 16.5075 29.8638L18.5075 28.6975C18.6228 28.6323 18.7239 28.5449 18.8051 28.4402C18.8863 28.3356 18.9459 28.2159 18.9804 28.0881C19.015 27.9602 19.0238 27.8268 19.0064 27.6955C18.9889 27.5643 18.9456 27.4378 18.8789 27.3234C18.8122 27.209 18.7234 27.109 18.6177 27.0292C18.5121 26.9494 18.3916 26.8913 18.2633 26.8585C18.135 26.8256 18.0015 26.8185 17.8705 26.8377C17.7394 26.8568 17.6135 26.9018 17.5 26.97Z" fill="white"/>
<path d="M70 25C70 25.3979 69.842 25.7794 69.5607 26.0607C69.2794 26.342 68.8978 26.5 68.5 26.5H67.5V27.5C67.5 27.8979 67.342 28.2794 67.0607 28.5607C66.7794 28.842 66.3978 29 66 29C65.6022 29 65.2206 28.842 64.9393 28.5607C64.658 28.2794 64.5 27.8979 64.5 27.5V26.5H63.5C63.1022 26.5 62.7206 26.342 62.4393 26.0607C62.158 25.7794 62 25.3979 62 25C62 24.6022 62.158 24.2207 62.4393 23.9394C62.7206 23.6581 63.1022 23.5 63.5 23.5H64.5V22.5C64.5 22.1022 64.658 21.7207 64.9393 21.4394C65.2206 21.1581 65.6022 21 66 21C66.3978 21 66.7794 21.1581 67.0607 21.4394C67.342 21.7207 67.5 22.1022 67.5 22.5V23.5H68.5C68.8978 23.5 69.2794 23.6581 69.5607 23.9394C69.842 24.2207 70 24.6022 70 25ZM67.25 14.7038L56 21.2638L44.7562 14.7038C44.4134 14.5197 44.0125 14.4761 43.6381 14.5821C43.2637 14.688 42.9452 14.9354 42.7497 15.2718C42.5542 15.6082 42.4971 16.0075 42.5905 16.3852C42.6838 16.7629 42.9203 17.0896 43.25 17.2963L55.25 24.2963C55.4795 24.4303 55.7405 24.5009 56.0063 24.5009C56.272 24.5009 56.533 24.4303 56.7625 24.2963L68.7625 17.2963C68.9327 17.197 69.0817 17.0651 69.201 16.9082C69.3202 16.7513 69.4074 16.5725 69.4576 16.3819C69.5077 16.1913 69.5198 15.9927 69.4932 15.7974C69.4666 15.6021 69.4018 15.414 69.3025 15.2438C69.2032 15.0736 69.0713 14.9246 68.9144 14.8053C68.7575 14.686 68.5787 14.5988 68.3881 14.5487C68.1975 14.4985 67.9989 14.4864 67.8036 14.513C67.6083 14.5397 67.4202 14.6045 67.25 14.7038ZM42.5 10C42.5005 9.7372 42.57 9.47911 42.7017 9.25161C42.8333 9.02411 43.0224 8.8352 43.25 8.70378L55.25 1.70378C55.4798 1.57054 55.7406 1.50037 56.0063 1.50037C56.2719 1.50037 56.5327 1.57054 56.7625 1.70378L68.7625 8.70378C68.9892 8.8358 69.1774 9.02498 69.3081 9.25244C69.4389 9.47989 69.5077 9.73767 69.5077 10C69.5077 10.2624 69.4389 10.5202 69.3081 10.7476C69.1774 10.9751 68.9892 11.1643 68.7625 11.2963L56.7625 18.2963C56.533 18.4303 56.272 18.5009 56.0063 18.5009C55.7405 18.5009 55.4795 18.4303 55.25 18.2963L43.25 11.2963C43.0224 11.1649 42.8333 10.9759 42.7017 10.7484C42.57 10.521 42.5005 10.2629 42.5 10ZM46.9775 10L56 15.2638L65.0225 10L56 4.73628L46.9775 10ZM57.25 26.5375L56 27.2638L44.7562 20.7038C44.4134 20.5197 44.0125 20.4761 43.6381 20.5821C43.2637 20.688 42.9452 20.9354 42.7497 21.2718C42.5542 21.6082 42.4971 22.0075 42.5905 22.3852C42.6838 22.7629 42.9203 23.0896 43.25 23.2963L55.25 30.2963C55.4795 30.4303 55.7405 30.5009 56.0063 30.5009C56.272 30.5009 56.533 30.4303 56.7625 30.2963L58.7625 29.1288C58.9326 29.0295 59.0816 28.8976 59.2007 28.7408C59.3199 28.5839 59.4071 28.4051 59.4571 28.2146C59.5072 28.024 59.5193 27.8255 59.4927 27.6303C59.466 27.4351 59.4012 27.247 59.3019 27.0769C59.2026 26.9068 59.0707 26.7578 58.9138 26.6387C58.757 26.5195 58.5782 26.4323 58.3876 26.3823C58.1971 26.3322 57.9986 26.3201 57.8034 26.3467C57.6082 26.3734 57.4201 26.4382 57.25 26.5375Z" fill="white"/>
</g>
<defs>
<clipPath id="clip0_27_5660">
<rect width="72" height="32" rx="5" fill="white"/>
</clipPath>
</defs>
</svg>
