<svg width="72" height="32" viewBox="0 0 72 32" fill="none" xmlns="http://www.w3.org/2000/svg">
<g clip-path="url(#clip0_27_5666)">
<path d="M1.50084 13.875L15.5008 21.875C15.652 21.9614 15.823 22.0068 15.9971 22.0068C16.1712 22.0068 16.3422 21.9614 16.4933 21.875L30.4933 13.875C30.6466 13.7876 30.7741 13.6612 30.8627 13.5086C30.9514 13.356 30.9981 13.1827 30.9981 13.0062C30.9981 12.8298 30.9514 12.6565 30.8627 12.5039C30.7741 12.3513 30.6466 12.2249 30.4933 12.1375L16.4933 4.1375C16.3422 4.05111 16.1712 4.00568 15.9971 4.00568C15.823 4.00568 15.652 4.05111 15.5008 4.1375L1.50084 12.1375C1.34754 12.2249 1.22009 12.3513 1.13144 12.5039C1.04279 12.6565 0.996094 12.8298 0.996094 13.0062C0.996094 13.1827 1.04279 13.356 1.13144 13.5086C1.22009 13.6612 1.34754 13.7876 1.50084 13.875Z" fill="white"/>
<path d="M29.4992 17.1312L15.9992 24.8487L2.49921 17.1312C2.38471 17.0656 2.25841 17.0231 2.1275 17.0063C1.99659 16.9894 1.86365 16.9985 1.73626 17.0331C1.60887 17.0676 1.48952 17.1269 1.38505 17.2075C1.28057 17.2882 1.193 17.3886 1.12734 17.5031C1.06167 17.6176 1.01921 17.7439 1.00236 17.8748C0.985515 18.0057 0.994617 18.1387 1.02915 18.2661C1.06368 18.3935 1.12297 18.5128 1.20362 18.6173C1.28427 18.7218 1.38471 18.8093 1.49921 18.875L15.4992 26.875C15.6503 26.9614 15.8214 27.0068 15.9955 27.0068C16.1695 27.0068 16.3406 26.9614 16.4917 26.875L30.4917 18.875C30.6058 18.8098 30.7059 18.7228 30.7864 18.619C30.8669 18.5151 30.9261 18.3964 30.9607 18.2696C30.9953 18.1429 31.0045 18.0106 30.988 17.8802C30.9714 17.7499 30.9294 17.6241 30.8642 17.51C30.799 17.3959 30.712 17.2958 30.6082 17.2153C30.5043 17.1348 30.3856 17.0756 30.2589 17.041C30.1321 17.0065 29.9998 16.9972 29.8694 17.0137C29.7391 17.0303 29.6133 17.0723 29.4992 17.1375V17.1312Z" fill="white"/>
<path d="M41.256 13.8025L55.256 21.8025C55.4825 21.9318 55.7389 21.9999 55.9998 21.9999C56.2606 21.9999 56.517 21.9318 56.7435 21.8025L70.7435 13.8025C70.9732 13.6713 71.1641 13.4817 71.2968 13.253C71.4296 13.0243 71.4995 12.7645 71.4995 12.5C71.4995 12.2355 71.4296 11.9757 71.2968 11.747C71.1641 11.5182 70.9732 11.3287 70.7435 11.1975L56.7435 3.1975C56.517 3.06815 56.2606 3.00012 55.9998 3.00012C55.7389 3.00012 55.4825 3.06815 55.256 3.1975L41.256 11.1975C41.0263 11.3287 40.8354 11.5182 40.7027 11.747C40.5699 11.9757 40.5 12.2355 40.5 12.5C40.5 12.7645 40.5699 13.0243 40.7027 13.253C40.8354 13.4817 41.0263 13.6713 41.256 13.8025ZM56.006 6.2275L66.976 12.5L55.9998 18.7725L45.0235 12.5L56.006 6.2275ZM71.3085 17.7562C71.5057 18.1017 71.5577 18.5113 71.4529 18.8951C71.3481 19.2788 71.0952 19.6052 70.7498 19.8025L56.7498 27.8025C56.5232 27.9318 56.2669 27.9999 56.006 27.9999C55.7451 27.9999 55.4888 27.9318 55.2623 27.8025L41.2623 19.8025C41.0887 19.7062 40.936 19.5763 40.813 19.4205C40.6899 19.2647 40.5991 19.086 40.5456 18.8949C40.4922 18.7037 40.4772 18.5038 40.5016 18.3068C40.526 18.1098 40.5892 17.9196 40.6876 17.7472C40.7861 17.5748 40.9177 17.4237 41.075 17.3025C41.2323 17.1814 41.4121 17.0927 41.6039 17.0416C41.7957 16.9905 41.9957 16.9779 42.1924 17.0047C42.3891 17.0314 42.5786 17.097 42.7498 17.1975L55.9998 24.7725L69.2498 17.1975C69.4211 17.0989 69.6102 17.0351 69.8063 17.0098C70.0023 16.9845 70.2014 16.9982 70.3922 17.0501C70.5829 17.102 70.7615 17.1912 70.9177 17.3123C71.0739 17.4335 71.2046 17.5844 71.3023 17.7562H71.3085Z" fill="white"/>
</g>
<defs>
<clipPath id="clip0_27_5666">
<rect width="72" height="32" rx="5" fill="white"/>
</clipPath>
</defs>
</svg>
