<svg width="72" height="32" viewBox="0 0 72 32" fill="none" xmlns="http://www.w3.org/2000/svg">
<g clip-path="url(#clip0_27_5650)">
<path d="M27.5004 21.1363L16.0004 27.8425L4.50039 21.1363C4.2727 21.0229 4.01036 21.0006 3.76678 21.0738C3.52319 21.147 3.31666 21.3103 3.18923 21.5305C3.06181 21.7506 3.02305 22.011 3.08086 22.2587C3.13866 22.5064 3.28869 22.7228 3.50039 22.8638L15.5004 29.8638C15.6533 29.9529 15.8271 29.9999 16.0041 29.9999C16.1812 29.9999 16.355 29.9529 16.5079 29.8638L28.5079 22.8638C28.6232 22.7986 28.7243 22.7111 28.8055 22.6065C28.8867 22.5019 28.9463 22.3822 28.9808 22.2543C29.0154 22.1265 29.0242 21.9931 29.0068 21.8618C28.9893 21.7305 28.946 21.604 28.8793 21.4896C28.8126 21.3752 28.7238 21.2752 28.6181 21.1954C28.5125 21.1156 28.392 21.0576 28.2637 21.0247C28.1354 20.9918 28.0019 20.9848 27.8709 21.0039C27.7398 21.0231 27.6139 21.0681 27.5004 21.1363Z" fill="white"/>
<path d="M27.5004 15.1363L16.0004 21.8425L4.50039 15.1363C4.2727 15.0229 4.01036 15.0006 3.76678 15.0738C3.52319 15.147 3.31666 15.3103 3.18923 15.5305C3.06181 15.7506 3.02305 16.011 3.08086 16.2587C3.13866 16.5064 3.28869 16.7228 3.50039 16.8638L15.5004 23.8638C15.6533 23.9529 15.8271 23.9999 16.0041 23.9999C16.1812 23.9999 16.355 23.9529 16.5079 23.8638L28.5079 16.8638C28.6232 16.7986 28.7243 16.7111 28.8055 16.6065C28.8867 16.5019 28.9463 16.3822 28.9808 16.2543C29.0154 16.1265 29.0242 15.9931 29.0068 15.8618C28.9893 15.7305 28.946 15.604 28.8793 15.4896C28.8126 15.3752 28.7238 15.2752 28.6181 15.1954C28.5125 15.1156 28.392 15.0576 28.2637 15.0247C28.1354 14.9918 28.0019 14.9848 27.8709 15.0039C27.7398 15.0231 27.6139 15.0681 27.5004 15.1363Z" fill="white"/>
<path d="M3.49999 10.8638L15.5 17.8638C15.6529 17.9529 15.8267 17.9999 16.0037 17.9999C16.1807 17.9999 16.3546 17.9529 16.5075 17.8638L28.5075 10.8638C28.6584 10.7757 28.7837 10.6496 28.8707 10.4981C28.9578 10.3465 29.0036 10.1748 29.0036 10C29.0036 9.82525 28.9578 9.65354 28.8707 9.50199C28.7837 9.35044 28.6584 9.22434 28.5075 9.13627L16.5075 2.13627C16.3546 2.04711 16.1807 2.00012 16.0037 2.00012C15.8267 2.00012 15.6529 2.04711 15.5 2.13627L3.49999 9.13627C3.34903 9.22434 3.22379 9.35044 3.13675 9.50199C3.04971 9.65354 3.00391 9.82525 3.00391 10C3.00391 10.1748 3.04971 10.3465 3.13675 10.4981C3.22379 10.6496 3.34903 10.7757 3.49999 10.8638Z" fill="white"/>
<path d="M69.2945 21.25C69.4928 21.5938 69.5469 22.0022 69.4447 22.3857C69.3426 22.7693 69.0926 23.0967 68.7495 23.2963L56.7495 30.2963C56.52 30.4303 56.259 30.5009 55.9932 30.5009C55.7275 30.5009 55.4665 30.4303 55.237 30.2963L43.237 23.2963C42.8932 23.0959 42.6431 22.7671 42.5417 22.3823C42.4403 21.9975 42.4959 21.5882 42.6964 21.2444C42.8968 20.9006 43.2255 20.6505 43.6103 20.5491C43.9951 20.4477 44.4044 20.5034 44.7482 20.7038L55.9982 27.2638L67.2495 20.7038C67.5933 20.5059 68.0015 20.4523 68.3848 20.5547C68.768 20.657 69.0951 20.9071 69.2945 21.25ZM67.2495 14.7038L55.9995 21.2638L44.7557 14.7038C44.4129 14.5197 44.012 14.4761 43.6376 14.5821C43.2632 14.688 42.9447 14.9354 42.7492 15.2718C42.5537 15.6082 42.4966 16.0075 42.59 16.3852C42.6833 16.7629 42.9198 17.0896 43.2495 17.2963L55.2495 24.2963C55.479 24.4303 55.74 24.5009 56.0057 24.5009C56.2715 24.5009 56.5325 24.4303 56.762 24.2963L68.762 17.2963C69.1058 17.0957 69.3558 16.7668 69.4571 16.3819C69.5583 15.9969 69.5025 15.5876 69.302 15.2438C69.1014 14.9 68.7725 14.65 68.3876 14.5487C68.0026 14.4474 67.5933 14.5032 67.2495 14.7038ZM42.4995 10C42.5 9.7372 42.5695 9.47911 42.7011 9.25161C42.8328 9.02411 43.0219 8.8352 43.2495 8.70378L55.2495 1.70378C55.4792 1.57054 55.7401 1.50037 56.0057 1.50037C56.2713 1.50037 56.5322 1.57054 56.762 1.70378L68.762 8.70378C68.9887 8.8358 69.1768 9.02498 69.3076 9.25244C69.4384 9.47989 69.5072 9.73767 69.5072 10C69.5072 10.2624 69.4384 10.5202 69.3076 10.7476C69.1768 10.9751 68.9887 11.1643 68.762 11.2963L56.762 18.2963C56.5325 18.4303 56.2715 18.5009 56.0057 18.5009C55.74 18.5009 55.479 18.4303 55.2495 18.2963L43.2495 11.2963C43.0219 11.1649 42.8328 10.9759 42.7011 10.7484C42.5695 10.521 42.5 10.2629 42.4995 10ZM46.977 10L55.9995 15.2638L65.022 10L55.9995 4.73628L46.977 10Z" fill="white"/>
</g>
<defs>
<clipPath id="clip0_27_5650">
<rect width="72" height="32" rx="5" fill="white"/>
</clipPath>
</defs>
</svg>
