<svg width="72" height="32" viewBox="0 0 72 32" fill="none" xmlns="http://www.w3.org/2000/svg">
<g clip-path="url(#clip0_27_1517)">
<path d="M25 3H7C6.46957 3 5.96086 3.21071 5.58579 3.58579C5.21071 3.96086 5 4.46957 5 5V27C5 27.5304 5.21071 28.0391 5.58579 28.4142C5.96086 28.7893 6.46957 29 7 29H25C25.5304 29 26.0391 28.7893 26.4142 28.4142C26.7893 28.0391 27 27.5304 27 27V5C27 4.46957 26.7893 3.96086 26.4142 3.58579C26.0391 3.21071 25.5304 3 25 3ZM20 13H25V16H20V13ZM14 18H25V21H14V18ZM25 27H7V23H25V27Z" fill="white"/>
<path d="M65 2.5H47C46.337 2.5 45.7011 2.76339 45.2322 3.23223C44.7634 3.70107 44.5 4.33696 44.5 5V27C44.5 27.663 44.7634 28.2989 45.2322 28.7678C45.7011 29.2366 46.337 29.5 47 29.5H65C65.663 29.5 66.2989 29.2366 66.7678 28.7678C67.2366 28.2989 67.5 27.663 67.5 27V5C67.5 4.33696 67.2366 3.70107 66.7678 3.23223C66.2989 2.76339 65.663 2.5 65 2.5ZM59 18.5H64.5V20.5H54.5V18.5H59ZM60.5 15.5V13.5H64.5V15.5H60.5ZM64.5 5.5V10.5H59C58.6022 10.5 58.2206 10.658 57.9393 10.9393C57.658 11.2206 57.5 11.6022 57.5 12V15.5H53C52.6022 15.5 52.2206 15.658 51.9393 15.9393C51.658 16.2206 51.5 16.6022 51.5 17V20.5H47.5V5.5H64.5ZM47.5 26.5V23.5H64.5V26.5H47.5Z" fill="white"/>
</g>
<defs>
<clipPath id="clip0_27_1517">
<rect width="72" height="32" rx="5" fill="white"/>
</clipPath>
</defs>
</svg>
