<svg width="72" height="32" viewBox="0 0 72 32" fill="none" xmlns="http://www.w3.org/2000/svg">
<g clip-path="url(#clip0_27_5671)">
<path d="M28 28C28 28.2652 27.8946 28.5196 27.7071 28.7071C27.5196 28.8946 27.2652 29 27 29H5C4.73478 29 4.48043 28.8946 4.29289 28.7071C4.10536 28.5196 4 28.2652 4 28C4 27.7348 4.10536 27.4804 4.29289 27.2929C4.48043 27.1054 4.73478 27 5 27H27C27.2652 27 27.5196 27.1054 27.7071 27.2929C27.8946 27.4804 28 27.7348 28 28ZM26 16H18.9463L20.91 6.83875C21.0351 6.25561 21.0281 5.65189 20.8897 5.07178C20.7513 4.49166 20.485 3.94984 20.1101 3.48596C19.7353 3.02208 19.2615 2.6479 18.7233 2.39079C18.1852 2.13368 17.5964 2.00016 17 2H15C14.4036 2.00016 13.8148 2.13368 13.2767 2.39079C12.7385 2.6479 12.2647 3.02208 11.8899 3.48596C11.515 3.94984 11.2487 4.49166 11.1103 5.07178C10.9719 5.65189 10.9649 6.25561 11.09 6.83875L13.0538 16H6C5.46957 16 4.96086 16.2107 4.58579 16.5858C4.21071 16.9609 4 17.4696 4 18V23C4 23.5304 4.21071 24.0391 4.58579 24.4142C4.96086 24.7893 5.46957 25 6 25H26C26.5304 25 27.0391 24.7893 27.4142 24.4142C27.7893 24.0391 28 23.5304 28 23V18C28 17.4696 27.7893 16.9609 27.4142 16.5858C27.0391 16.2107 26.5304 16 26 16Z" fill="white"/>
<path d="M68.5 28C68.5 28.3978 68.342 28.7794 68.0607 29.0607C67.7794 29.342 67.3978 29.5 67 29.5H45C44.6022 29.5 44.2206 29.342 43.9393 29.0607C43.658 28.7794 43.5 28.3978 43.5 28C43.5 27.6022 43.658 27.2206 43.9393 26.9393C44.2206 26.658 44.6022 26.5 45 26.5H67C67.3978 26.5 67.7794 26.658 68.0607 26.9393C68.342 27.2206 68.5 27.6022 68.5 28ZM68.5 18V22C68.5 22.663 68.2366 23.2989 67.7678 23.7678C67.2989 24.2366 66.663 24.5 66 24.5H46C45.337 24.5 44.7011 24.2366 44.2322 23.7678C43.7634 23.2989 43.5 22.663 43.5 22V18C43.5 17.337 43.7634 16.7011 44.2322 16.2322C44.7011 15.7634 45.337 15.5 46 15.5H52L50.4438 6.79125C50.328 6.14344 50.3558 5.47813 50.5251 4.84222C50.6944 4.20631 51.0012 3.61527 51.4237 3.11076C51.8462 2.60625 52.3742 2.20054 52.9705 1.92224C53.5668 1.64393 54.2169 1.4998 54.875 1.5H57.125C57.783 1.49998 58.4329 1.64425 59.0291 1.92264C59.6252 2.20102 60.1531 2.60675 60.5755 3.11124C60.9979 3.61573 61.3045 4.2067 61.4737 4.84252C61.6429 5.47834 61.6707 6.14354 61.555 6.79125L60 15.5H66C66.663 15.5 67.2989 15.7634 67.7678 16.2322C68.2366 16.7011 68.5 17.337 68.5 18ZM53.3962 6.26375L55.0463 15.5H56.9538L58.6038 6.26375C58.6423 6.04767 58.633 5.82576 58.5765 5.61367C58.52 5.40158 58.4176 5.20448 58.2766 5.03628C58.1356 4.86808 57.9593 4.73288 57.7604 4.64022C57.5614 4.54755 57.3445 4.49969 57.125 4.5H54.875C54.6556 4.49987 54.4389 4.54787 54.24 4.64061C54.0412 4.73336 53.8652 4.86858 53.7243 5.03676C53.5834 5.20494 53.4811 5.40197 53.4247 5.61397C53.3682 5.82597 53.3589 6.04778 53.3975 6.26375H53.3962ZM65.5 18.5H46.5V21.5H65.5V18.5Z" fill="white"/>
</g>
<defs>
<clipPath id="clip0_27_5671">
<rect width="72" height="32" rx="5" fill="white"/>
</clipPath>
</defs>
</svg>
