<svg width="72" height="32" viewBox="0 0 72 32" fill="none" xmlns="http://www.w3.org/2000/svg">
<g clip-path="url(#clip0_27_4077)">
<path d="M24 16C24 17.0609 23.5786 18.0783 22.8284 18.8284C22.0783 19.5786 21.0609 20 20 20H19V12H20C21.0609 12 22.0783 12.4214 22.8284 13.1716C23.5786 13.9217 24 14.9391 24 16ZM29 7V25C29 25.5304 28.7893 26.0391 28.4142 26.4142C28.0391 26.7893 27.5304 27 27 27H5C4.46957 27 3.96086 26.7893 3.58579 26.4142C3.21071 26.0391 3 25.5304 3 25V7C3 6.46957 3.21071 5.96086 3.58579 5.58579C3.96086 5.21071 4.46957 5 5 5H27C27.5304 5 28.0391 5.21071 28.4142 5.58579C28.7893 5.96086 29 6.46957 29 7ZM15 18.5C15 16.015 12.51 15.3313 10.6912 14.8325C9.18375 14.4188 8.19125 14.1025 8.19125 13.5C8.19125 12.6588 9.20375 12 10.4963 12C11.4963 12 12.3525 12.3913 12.6737 13C12.7354 13.116 12.8193 13.2187 12.9206 13.3022C13.0219 13.3858 13.1387 13.4486 13.2643 13.487C13.3899 13.5254 13.5218 13.5387 13.6526 13.5261C13.7833 13.5136 13.9103 13.4754 14.0262 13.4137C14.1422 13.3521 14.2449 13.2682 14.3285 13.1669C14.412 13.0656 14.4748 12.9488 14.5132 12.8232C14.5517 12.6976 14.565 12.5657 14.5524 12.4349C14.5398 12.3042 14.5016 12.1772 14.44 12.0612C13.77 10.7887 12.2587 10 10.5 10C8.045 10 6.195 11.5 6.195 13.5C6.195 15.6725 8.395 16.2762 10.1625 16.7612C12.1625 17.31 13 17.6737 13 18.5C13 19.21 11.9738 20 10.5 20C9.02625 20 8 19.21 8 18.5C8 18.2348 7.89464 17.9804 7.70711 17.7929C7.51957 17.6054 7.26522 17.5 7 17.5C6.73478 17.5 6.48043 17.6054 6.29289 17.7929C6.10536 17.9804 6 18.2348 6 18.5C6 20.4625 7.97625 22 10.5 22C13.0238 22 15 20.4625 15 18.5ZM26 16C25.9983 14.4092 25.3657 12.884 24.2408 11.7592C23.116 10.6343 21.5908 10.0017 20 10H18C17.7348 10 17.4804 10.1054 17.2929 10.2929C17.1054 10.4804 17 10.7348 17 11V21C17 21.2652 17.1054 21.5196 17.2929 21.7071C17.4804 21.8946 17.7348 22 18 22H20C21.5908 21.9983 23.116 21.3657 24.2408 20.2408C25.3657 19.116 25.9983 17.5908 26 16Z" fill="white"/>
<path d="M61.5 8.5H58.5C58.1022 8.5 57.7206 8.65804 57.4393 8.93934C57.158 9.22064 57 9.60218 57 10V22C57 22.3978 57.158 22.7794 57.4393 23.0607C57.7206 23.342 58.1022 23.5 58.5 23.5H61.5C63.4891 23.5 65.3968 22.7098 66.8033 21.3033C68.2098 19.8968 69 17.9891 69 16C69 14.0109 68.2098 12.1032 66.8033 10.6967C65.3968 9.29018 63.4891 8.5 61.5 8.5ZM61.5 20.5H60V11.5H61.5C62.6935 11.5 63.8381 11.9741 64.682 12.818C65.5259 13.6619 66 14.8065 66 16C66 17.1935 65.5259 18.3381 64.682 19.182C63.8381 20.0259 62.6935 20.5 61.5 20.5ZM42.5 5.5C42.5 5.10218 42.658 4.72064 42.9393 4.43934C43.2206 4.15804 43.6022 4 44 4H68C68.3978 4 68.7794 4.15804 69.0607 4.43934C69.342 4.72064 69.5 5.10218 69.5 5.5C69.5 5.89782 69.342 6.27936 69.0607 6.56066C68.7794 6.84196 68.3978 7 68 7H44C43.6022 7 43.2206 6.84196 42.9393 6.56066C42.658 6.27936 42.5 5.89782 42.5 5.5ZM69.5 26.5C69.5 26.8978 69.342 27.2794 69.0607 27.5607C68.7794 27.842 68.3978 28 68 28H44C43.6022 28 43.2206 27.842 42.9393 27.5607C42.658 27.2794 42.5 26.8978 42.5 26.5C42.5 26.1022 42.658 25.7206 42.9393 25.4393C43.2206 25.158 43.6022 25 44 25H68C68.3978 25 68.7794 25.158 69.0607 25.4393C69.342 25.7206 69.5 26.1022 69.5 26.5ZM52 19C52 18.2037 51.2137 17.835 49 17.1975C46.9825 16.6163 44.2213 15.8225 44.2213 13C44.2213 10.435 46.49 8.5 49.4987 8.5C51.6537 8.5 53.5063 9.5175 54.335 11.155C54.4272 11.331 54.4834 11.5236 54.5005 11.7216C54.5176 11.9195 54.4952 12.1189 54.4346 12.3082C54.374 12.4974 54.2764 12.6727 54.1475 12.8239C54.0186 12.9751 53.8609 13.0992 53.6836 13.1889C53.5064 13.2787 53.313 13.3323 53.1149 13.3467C52.9167 13.3611 52.7176 13.336 52.5292 13.2729C52.3408 13.2097 52.1669 13.1097 52.0174 12.9788C51.868 12.8478 51.7461 12.6885 51.6587 12.51C51.35 11.8963 50.5 11.5 49.5 11.5C48.2225 11.5 47.2225 12.1587 47.2225 13C47.2225 13.1362 47.2225 13.2762 47.6325 13.5212C48.155 13.8313 49.0075 14.0775 49.8325 14.315C50.9263 14.63 52.0575 14.9562 53.005 15.5475C54.6538 16.5763 55.005 17.9925 55.005 19C55.005 21.5238 52.5887 23.5 49.505 23.5C46.4213 23.5 44.005 21.5238 44.005 19C44.005 18.6022 44.163 18.2206 44.4443 17.9393C44.7256 17.658 45.1072 17.5 45.505 17.5C45.9028 17.5 46.2844 17.658 46.5657 17.9393C46.847 18.2206 47.005 18.6022 47.005 19C47.005 19.8588 48.325 20.5 49.505 20.5C50.685 20.5 52 19.8588 52 19Z" fill="white"/>
</g>
<defs>
<clipPath id="clip0_27_4077">
<rect width="72" height="32" rx="5" fill="white"/>
</clipPath>
</defs>
</svg>
