<svg width="72" height="32" viewBox="0 0 72 32" fill="none" xmlns="http://www.w3.org/2000/svg">
<g clip-path="url(#clip0_27_725)">
<path d="M29.2863 14.3563L23.6613 19.21L25.375 26.4688C25.4696 26.8628 25.4453 27.276 25.3051 27.6562C25.1649 28.0365 24.9152 28.3666 24.5875 28.605C24.2598 28.8433 23.8687 28.9792 23.4638 28.9955C23.0589 29.0117 22.6583 28.9076 22.3125 28.6963L16 24.8113L9.68379 28.6963C9.33808 28.9064 8.93792 29.0095 8.53372 28.9926C8.12951 28.9758 7.73933 28.8397 7.4123 28.6016C7.08527 28.3634 6.83601 28.0338 6.69593 27.6543C6.55584 27.2748 6.53117 26.8623 6.62504 26.4688L8.34504 19.21L2.72004 14.3563C2.41417 14.0919 2.19295 13.7433 2.08402 13.3539C1.97509 12.9646 1.98328 12.5518 2.10756 12.1671C2.23184 11.7824 2.46671 11.4428 2.78283 11.1908C3.09895 10.9388 3.48231 10.7855 3.88504 10.75L11.26 10.155L14.105 3.27001C14.259 2.89478 14.5211 2.57382 14.858 2.34793C15.1949 2.12205 15.5913 2.00143 15.9969 2.00143C16.4025 2.00143 16.799 2.12205 17.1358 2.34793C17.4727 2.57382 17.7348 2.89478 17.8888 3.27001L20.7325 10.155L28.1075 10.75C28.5111 10.7841 28.8956 10.9366 29.2128 11.1883C29.5301 11.4399 29.766 11.7797 29.8911 12.1648C30.0161 12.55 30.0248 12.9635 29.9158 13.3536C29.8069 13.7436 29.5853 14.0928 29.2788 14.3575L29.2863 14.3563Z" fill="white"/>
<path d="M70.375 12C70.22 11.5216 69.9266 11.1 69.5319 10.7885C69.1371 10.477 68.6588 10.2896 68.1575 10.25L61.0838 9.67875L58.3538 3.0775C58.1619 2.61095 57.8358 2.21194 57.4167 1.93114C56.9976 1.65034 56.5045 1.50043 56 1.50043C55.4956 1.50043 55.0025 1.65034 54.5834 1.93114C54.1643 2.21194 53.8382 2.61095 53.6463 3.0775L50.9188 9.68L43.845 10.25C43.3428 10.2914 42.864 10.4804 42.4689 10.7931C42.0737 11.1058 41.7798 11.5283 41.6241 12.0076C41.4683 12.4868 41.4577 13.0014 41.5935 13.4867C41.7294 13.972 42.0056 14.4063 42.3875 14.735L47.785 19.39L46.135 26.3525C46.0147 26.8434 46.0432 27.359 46.2168 27.8336C46.3905 28.3083 46.7015 28.7205 47.1102 29.0178C47.5189 29.3152 48.0069 29.4841 48.5119 29.5032C49.017 29.5223 49.5163 29.3906 49.9463 29.125L56 25.3987L62.0538 29.125C62.4837 29.3889 62.9822 29.5192 63.4862 29.4996C63.9902 29.48 64.477 29.3113 64.8851 29.0149C65.2932 28.7184 65.6041 28.3075 65.7786 27.8343C65.953 27.361 65.9831 26.8466 65.865 26.3562L64.215 19.3937L69.6125 14.7387C69.9968 14.4092 70.2744 13.9729 70.4101 13.4853C70.5459 12.9977 70.5337 12.4807 70.375 12ZM61.5663 17.7125C61.3582 17.8919 61.2033 18.1251 61.1187 18.3865C61.034 18.648 61.0228 18.9276 61.0863 19.195L62.6975 26L56.7863 22.365C56.5499 22.2195 56.2777 22.1424 56 22.1424C55.7224 22.1424 55.4502 22.2195 55.2138 22.365L49.3025 26L50.9138 19.2C50.9773 18.9326 50.9661 18.653 50.8814 18.3915C50.7968 18.1301 50.6419 17.8969 50.4338 17.7175L45.15 13.155L52.075 12.5962C52.3506 12.5741 52.6147 12.4762 52.8382 12.3134C53.0616 12.1507 53.2357 11.9293 53.3413 11.6737L56 5.23625L58.6588 11.6737C58.7643 11.9293 58.9385 12.1507 59.1619 12.3134C59.3854 12.4762 59.6495 12.5741 59.925 12.5962L66.85 13.155L61.5663 17.7125Z" fill="white"/>
</g>
<defs>
<clipPath id="clip0_27_725">
<rect width="72" height="32" rx="5" fill="white"/>
</clipPath>
</defs>
</svg>
