<svg width="72" height="32" viewBox="0 0 72 32" fill="none" xmlns="http://www.w3.org/2000/svg">
<g clip-path="url(#clip0_27_740)">
<path d="M25.1513 16L28.8751 9.49999C28.9632 9.34731 29.0094 9.17404 29.0091 8.99773C29.0087 8.82143 28.9617 8.64836 28.8728 8.49608C28.784 8.34379 28.6565 8.2177 28.5032 8.13057C28.3499 8.04345 28.1764 7.9984 28.0001 7.99999H20.5813L16.8751 1.49999C16.7877 1.34668 16.6613 1.21924 16.5087 1.13059C16.3561 1.04194 16.1828 0.995239 16.0063 0.995239C15.8298 0.995239 15.6565 1.04194 15.5039 1.13059C15.3514 1.21924 15.225 1.34668 15.1376 1.49999L11.4163 7.99999H4.00006C3.8243 7.99951 3.65151 8.04537 3.49911 8.13294C3.34671 8.22051 3.22008 8.34671 3.13199 8.49881C3.0439 8.65091 2.99746 8.82354 2.99734 8.99931C2.99722 9.17507 3.04343 9.34777 3.13131 9.49999L6.84631 16L3.13131 22.5C3.04315 22.6527 2.99693 22.8259 2.99732 23.0022C2.99771 23.1785 3.0447 23.3516 3.13354 23.5039C3.22237 23.6562 3.34989 23.7823 3.50316 23.8694C3.65643 23.9565 3.83002 24.0016 4.00631 24H11.4163L15.1313 30.5C15.2187 30.6533 15.3451 30.7807 15.4977 30.8694C15.6503 30.958 15.8236 31.0047 16.0001 31.0047C16.1765 31.0047 16.3499 30.958 16.5024 30.8694C16.655 30.7807 16.7814 30.6533 16.8688 30.5L20.5813 24H28.0001C28.1764 24.0016 28.3499 23.9565 28.5032 23.8694C28.6565 23.7823 28.784 23.6562 28.8728 23.5039C28.9617 23.3516 29.0087 23.1785 29.0091 23.0022C29.0094 22.8259 28.9632 22.6527 28.8751 22.5L25.1513 16ZM22.8488 16L19.4213 22H12.5776L9.15006 16L12.5776 9.99999H19.4213L22.8488 16Z" fill="white"/>
<path d="M65.7275 16L69.3025 9.74999C69.4343 9.5217 69.5037 9.26272 69.5035 8.99912C69.5034 8.73552 69.4337 8.47662 69.3017 8.24849C69.1696 8.02035 68.9798 7.83105 68.7513 7.69965C68.5227 7.56824 68.2636 7.49938 68 7.49999H60.875L57.3063 1.24999C57.174 1.0209 56.9835 0.830856 56.7541 0.69914C56.5247 0.567424 56.2646 0.498717 56 0.499987C55.7355 0.500009 55.4757 0.569974 55.247 0.702786C55.0183 0.835598 54.8287 1.02654 54.6975 1.25624L51.125 7.49999H44C43.7364 7.49938 43.4773 7.56824 43.2488 7.69965C43.0203 7.83105 42.8305 8.02035 42.6984 8.24849C42.5663 8.47662 42.4967 8.73552 42.4966 8.99912C42.4964 9.26272 42.5657 9.5217 42.6975 9.74999L46.27 16L42.6975 22.25C42.5657 22.4783 42.4964 22.7373 42.4966 23.0009C42.4967 23.2645 42.5663 23.5234 42.6984 23.7515C42.8305 23.9796 43.0203 24.1689 43.2488 24.3003C43.4773 24.4317 43.7364 24.5006 44 24.5H51.125L54.6963 30.75C54.8275 30.9796 55.017 31.1705 55.2458 31.3033C55.4745 31.4361 55.7343 31.506 55.9988 31.506C56.2633 31.506 56.5231 31.4361 56.7518 31.3033C56.9805 31.1705 57.1701 30.9796 57.3013 30.75L60.875 24.5H68C68.2627 24.5 68.5208 24.431 68.7484 24.2999C68.9761 24.1688 69.1653 23.9802 69.2972 23.753C69.4291 23.5259 69.499 23.268 69.4999 23.0054C69.5009 22.7427 69.4328 22.4844 69.3025 22.2562L65.7275 16ZM65.415 10.5L64 12.9762L62.585 10.5H65.415ZM62.2725 16L59.125 21.5H52.8625L49.7263 16L52.8675 10.5H59.125L62.2725 16ZM56 5.02249L57.4163 7.49999H54.5825L56 5.02249ZM46.585 10.5H49.4113L48 12.9775L46.585 10.5ZM46.585 21.49L48 19.0225L49.4113 21.5L46.585 21.49ZM56 26.9775L54.5825 24.5H57.4163L56 26.9775ZM62.585 21.5L64 19.0237L65.415 21.5H62.585Z" fill="white"/>
</g>
<defs>
<clipPath id="clip0_27_740">
<rect width="72" height="32" rx="5" fill="white"/>
</clipPath>
</defs>
</svg>
