<svg width="72" height="32" viewBox="0 0 72 32" fill="none" xmlns="http://www.w3.org/2000/svg">
<g clip-path="url(#clip0_27_2279)">
<path d="M29.9998 16C30.003 16.4102 29.8783 16.8111 29.6431 17.1472C29.4079 17.4832 29.0738 17.7376 28.6873 17.875L20.7573 20.7588L17.8748 28.6875C17.7328 29.0703 17.4769 29.4004 17.1418 29.6335C16.8066 29.8666 16.4081 29.9915 15.9998 29.9915C15.5916 29.9915 15.1931 29.8666 14.8579 29.6335C14.5227 29.4004 14.2669 29.0703 14.1248 28.6875L11.2423 20.7575L3.31233 17.875C2.92958 17.7329 2.59947 17.4771 2.36636 17.142C2.13325 16.8068 2.0083 16.4083 2.0083 16C2.0083 15.5917 2.13325 15.1933 2.36636 14.8581C2.59947 14.5229 2.92958 14.2671 3.31233 14.125L11.2423 11.2425L14.1248 3.31251C14.2669 2.92976 14.5227 2.59965 14.8579 2.36654C15.1931 2.13343 15.5916 2.00848 15.9998 2.00848C16.4081 2.00848 16.8066 2.13343 17.1418 2.36654C17.4769 2.59965 17.7328 2.92976 17.8748 3.31251L20.7586 11.2425L28.6873 14.125C29.0738 14.2624 29.4079 14.5168 29.6431 14.8529C29.8783 15.1889 30.003 15.5898 29.9998 16Z" fill="white"/>
<path d="M68.8574 13.6562L61.1474 10.8525L58.3437 3.14249C58.1688 2.66133 57.85 2.24564 57.4307 1.9519C57.0114 1.65815 56.5119 1.50058 55.9999 1.50058C55.4879 1.50058 54.9884 1.65815 54.5691 1.9519C54.1498 2.24564 53.831 2.66133 53.6562 3.14249L50.8524 10.8525L43.1424 13.6562C42.6612 13.8311 42.2456 14.1499 41.9518 14.5692C41.6581 14.9885 41.5005 15.488 41.5005 16C41.5005 16.512 41.6581 17.0115 41.9518 17.4308C42.2456 17.8501 42.6612 18.1689 43.1424 18.3437L50.8524 21.1475L53.6562 28.8575C53.831 29.3387 54.1498 29.7543 54.5691 30.0481C54.9884 30.3418 55.4879 30.4994 55.9999 30.4994C56.5119 30.4994 57.0114 30.3418 57.4307 30.0481C57.85 29.7543 58.1688 29.3387 58.3437 28.8575L61.1474 21.1475L68.8574 18.3437C69.3386 18.1689 69.7543 17.8501 70.048 17.4308C70.3417 17.0115 70.4993 16.512 70.4993 16C70.4993 15.488 70.3417 14.9885 70.048 14.5692C69.7543 14.1499 69.3386 13.8311 68.8574 13.6562ZM59.4649 18.5675C59.2588 18.6424 59.0716 18.7616 58.9165 18.9166C58.7615 19.0717 58.6423 19.2589 58.5674 19.465L55.9999 26.5262L53.4324 19.465C53.3575 19.2589 53.2383 19.0717 53.0833 18.9166C52.9282 18.7616 52.741 18.6424 52.5349 18.5675L45.4737 16L52.5349 13.4325C52.741 13.3576 52.9282 13.2384 53.0833 13.0834C53.2383 12.9283 53.3575 12.7411 53.4324 12.535L55.9999 5.47374L58.5674 12.535C58.6423 12.7411 58.7615 12.9283 58.9165 13.0834C59.0716 13.2384 59.2588 13.3576 59.4649 13.4325L66.5262 16L59.4649 18.5675Z" fill="white"/>
</g>
<defs>
<clipPath id="clip0_27_2279">
<rect width="72" height="32" rx="5" fill="white"/>
</clipPath>
</defs>
</svg>
