<svg width="72" height="32" viewBox="0 0 72 32" fill="none" xmlns="http://www.w3.org/2000/svg">
<g clip-path="url(#clip0_27_6810)">
<path d="M16 3C13.4288 3 10.9154 3.76244 8.77759 5.1909C6.63975 6.61935 4.97351 8.64968 3.98957 11.0251C3.00563 13.4006 2.74819 16.0144 3.2498 18.5362C3.75141 21.0579 4.98953 23.3743 6.80762 25.1924C8.6257 27.0105 10.9421 28.2486 13.4638 28.7502C15.9856 29.2518 18.5995 28.9944 20.9749 28.0104C23.3503 27.0265 25.3807 25.3603 26.8091 23.2224C28.2376 21.0846 29 18.5712 29 16C28.9964 12.5533 27.6256 9.24882 25.1884 6.81163C22.7512 4.37445 19.4467 3.00364 16 3ZM6.20376 21H11.3063L13.4313 26.6975C11.8877 26.3234 10.443 25.6207 9.19574 24.6375C7.94846 23.6542 6.92792 22.4135 6.20376 21ZM16 19.5C15.6044 19.5 15.2178 19.3827 14.8889 19.1629C14.56 18.9432 14.3036 18.6308 14.1522 18.2654C14.0009 17.8999 13.9613 17.4978 14.0384 17.1098C14.1156 16.7219 14.3061 16.3655 14.5858 16.0858C14.8655 15.8061 15.2219 15.6156 15.6098 15.5384C15.9978 15.4613 16.3999 15.5009 16.7654 15.6522C17.1308 15.8036 17.4432 16.06 17.6629 16.3889C17.8827 16.7178 18 17.1044 18 17.5C18 18.0304 17.7893 18.5391 17.4142 18.9142C17.0391 19.2893 16.5304 19.5 16 19.5ZM18.5575 26.6987L20.6938 21H25.7963C25.0711 22.415 24.0489 23.6568 22.7996 24.6403C21.5502 25.6239 20.1032 26.326 18.5575 26.6987ZM16 12C11.971 12.0049 8.07391 13.4366 5.00001 16.0413V16C5.00001 13.0826 6.15893 10.2847 8.22183 8.22183C10.2847 6.15893 13.0826 5 16 5C18.9174 5 21.7153 6.15893 23.7782 8.22183C25.8411 10.2847 27 13.0826 27 16V16.0413C23.9261 13.4366 20.029 12.0049 16 12Z" fill="white"/>
<path d="M58 18C58 18.3956 57.8827 18.7822 57.6629 19.1111C57.4432 19.44 57.1308 19.6964 56.7654 19.8478C56.3999 19.9991 55.9978 20.0387 55.6098 19.9616C55.2219 19.8844 54.8655 19.6939 54.5858 19.4142C54.3061 19.1345 54.1156 18.7781 54.0384 18.3902C53.9613 18.0022 54.0009 17.6001 54.1522 17.2346C54.3036 16.8692 54.56 16.5568 54.8889 16.3371C55.2178 16.1173 55.6044 16 56 16C56.5304 16 57.0391 16.2107 57.4142 16.5858C57.7893 16.9609 58 17.4696 58 18ZM69.5 16C69.5 18.67 68.7082 21.2801 67.2248 23.5002C65.7414 25.7203 63.633 27.4506 61.1662 28.4724C58.6994 29.4942 55.985 29.7615 53.3663 29.2406C50.7475 28.7197 48.3421 27.434 46.4541 25.5459C44.5661 23.6579 43.2803 21.2525 42.7594 18.6337C42.2385 16.015 42.5058 13.3006 43.5276 10.8338C44.5494 8.36697 46.2797 6.25856 48.4998 4.77516C50.7199 3.29176 53.33 2.5 56 2.5C59.5792 2.50397 63.0107 3.92756 65.5416 6.45844C68.0724 8.98932 69.496 12.4208 69.5 16ZM60.6938 19.5H65.8975C65.9963 19.2237 66.0838 18.9412 66.1588 18.655C63.4475 15.9929 59.7997 14.5015 56 14.5015C52.2003 14.5015 48.5525 15.9929 45.8413 18.655C45.9163 18.9417 46.0033 19.2233 46.1025 19.5H51.3063C51.8153 19.5014 52.3119 19.6575 52.73 19.9478C53.1482 20.238 53.4682 20.6486 53.6475 21.125L55.655 26.4912C55.77 26.4912 55.8838 26.5 56 26.5C56.1163 26.5 56.2275 26.5 56.34 26.4912L58.3525 21.1162C58.5335 20.6417 58.8542 20.2332 59.2722 19.9446C59.6902 19.6561 60.1858 19.501 60.6938 19.5ZM45.5513 14.9663C48.57 12.7157 52.2347 11.4999 56 11.4999C59.7653 11.4999 63.43 12.7157 66.4488 14.9663C66.1917 12.3736 64.9798 9.96909 63.0488 8.22007C61.1177 6.47104 58.6054 5.50241 56 5.50241C53.3946 5.50241 50.8823 6.47104 48.9512 8.22007C47.0202 9.96909 45.8084 12.3736 45.5513 14.9663ZM52.1863 25.78L50.96 22.5H47.7625C48.9209 23.9654 50.4475 25.0973 52.1863 25.78ZM64.2375 22.5H61.04L59.81 25.7812C61.5506 25.0993 63.0787 23.9669 64.2375 22.5Z" fill="white"/>
</g>
<defs>
<clipPath id="clip0_27_6810">
<rect width="72" height="32" rx="5" fill="white"/>
</clipPath>
</defs>
</svg>
