<svg width="72" height="32" viewBox="0 0 72 32" fill="none" xmlns="http://www.w3.org/2000/svg">
<g clip-path="url(#clip0_27_6815)">
<path d="M30 7V25C30 25.2652 29.8946 25.5196 29.7071 25.7071C29.5196 25.8946 29.2652 26 29 26H1C0.734784 26 0.48043 25.8946 0.292893 25.7071C0.105357 25.5196 0 25.2652 0 25C0 24.7348 0.105357 24.4804 0.292893 24.2929C0.48043 24.1054 0.734784 24 1 24H7V19C7 18.7348 7.10536 18.4804 7.29289 18.2929C7.48043 18.1054 7.73478 18 8 18H14V13C14 12.7348 14.1054 12.4804 14.2929 12.2929C14.4804 12.1054 14.7348 12 15 12H21V7C21 6.73478 21.1054 6.48043 21.2929 6.29289C21.4804 6.10536 21.7348 6 22 6H29C29.2652 6 29.5196 6.10536 29.7071 6.29289C29.8946 6.48043 30 6.73478 30 7Z" fill="white"/>
<path d="M71.5 7C71.5 7.39782 71.342 7.77936 71.0607 8.06066C70.7794 8.34196 70.3978 8.5 70 8.5H64.5V13C64.5 13.3978 64.342 13.7794 64.0607 14.0607C63.7794 14.342 63.3978 14.5 63 14.5H57.5V19C57.5 19.3978 57.342 19.7794 57.0607 20.0607C56.7794 20.342 56.3978 20.5 56 20.5H50.5V25C50.5 25.3978 50.342 25.7794 50.0607 26.0607C49.7794 26.342 49.3978 26.5 49 26.5H42C41.6022 26.5 41.2206 26.342 40.9393 26.0607C40.658 25.7794 40.5 25.3978 40.5 25C40.5 24.6022 40.658 24.2206 40.9393 23.9393C41.2206 23.658 41.6022 23.5 42 23.5H47.5V19C47.5 18.6022 47.658 18.2206 47.9393 17.9393C48.2206 17.658 48.6022 17.5 49 17.5H54.5V13C54.5 12.6022 54.658 12.2206 54.9393 11.9393C55.2206 11.658 55.6022 11.5 56 11.5H61.5V7C61.5 6.60218 61.658 6.22064 61.9393 5.93934C62.2206 5.65804 62.6022 5.5 63 5.5H70C70.3978 5.5 70.7794 5.65804 71.0607 5.93934C71.342 6.22064 71.5 6.60218 71.5 7Z" fill="white"/>
</g>
<defs>
<clipPath id="clip0_27_6815">
<rect width="72" height="32" rx="5" fill="white"/>
</clipPath>
</defs>
</svg>
