<svg width="72" height="32" viewBox="0 0 72 32" fill="none" xmlns="http://www.w3.org/2000/svg">
<g clip-path="url(#clip0_27_5016)">
<path d="M30 20C30 19.2515 29.7901 18.5179 29.3939 17.8828C28.9978 17.2477 28.4314 16.7365 27.7591 16.4073C27.0868 16.0782 26.3357 15.9442 25.5911 16.0207C24.8465 16.0972 24.1383 16.3812 23.547 16.8402C22.9558 17.2992 22.5052 17.9149 22.2465 18.6173C21.9878 19.3197 21.9314 20.0806 22.0836 20.8135C22.2359 21.5464 22.5908 22.2218 23.1079 22.763C23.625 23.3043 24.2836 23.6895 25.0088 23.875C25.0032 23.9164 25.0003 23.9582 25 24C25 25.0609 24.5786 26.0783 23.8284 26.8284C23.0783 27.5786 22.0609 28 21 28H18C16.9391 28 15.9217 27.5786 15.1716 26.8284C14.4214 26.0783 14 25.0609 14 24V18.935C17.9338 18.435 21 15.0012 21 10.8962V5C21 4.73478 20.8946 4.48043 20.7071 4.29289C20.5196 4.10536 20.2652 4 20 4H17C16.7348 4 16.4804 4.10536 16.2929 4.29289C16.1054 4.48043 16 4.73478 16 5C16 5.26522 16.1054 5.51957 16.2929 5.70711C16.4804 5.89464 16.7348 6 17 6H19V10.8962C19 14.2188 16.3438 16.9575 13.08 17C12.2854 17.0106 11.4965 16.8632 10.7593 16.5664C10.0221 16.2697 9.3512 15.8294 8.78555 15.2712C8.2199 14.713 7.77077 14.0479 7.46425 13.3147C7.15773 12.5815 6.99993 11.7947 7 11V6H9C9.26522 6 9.51957 5.89464 9.70711 5.70711C9.89464 5.51957 10 5.26522 10 5C10 4.73478 9.89464 4.48043 9.70711 4.29289C9.51957 4.10536 9.26522 4 9 4H6C5.73478 4 5.48043 4.10536 5.29289 4.29289C5.10536 4.48043 5 4.73478 5 5V11C5.00024 12.9484 5.71152 14.8297 7.00033 16.2909C8.28915 17.7521 10.0669 18.6927 12 18.9363V24C12.0017 25.5908 12.6343 27.116 13.7592 28.2408C14.884 29.3657 16.4092 29.9983 18 30H21C22.5908 29.9983 24.116 29.3657 25.2408 28.2408C26.3657 27.116 26.9983 25.5908 27 24C26.9997 23.9582 26.9968 23.9164 26.9912 23.875C27.8518 23.6549 28.6147 23.1545 29.1594 22.4529C29.7042 21.7513 29.9999 20.8883 30 20ZM26 21C25.8022 21 25.6089 20.9414 25.4444 20.8315C25.28 20.7216 25.1518 20.5654 25.0761 20.3827C25.0004 20.2 24.9806 19.9989 25.0192 19.8049C25.0578 19.6109 25.153 19.4327 25.2929 19.2929C25.4327 19.153 25.6109 19.0578 25.8049 19.0192C25.9989 18.9806 26.2 19.0004 26.3827 19.0761C26.5654 19.1518 26.7216 19.28 26.8315 19.4444C26.9414 19.6089 27 19.8022 27 20C27 20.2652 26.8946 20.5196 26.7071 20.7071C26.5196 20.8946 26.2652 21 26 21Z" fill="white"/>
<path d="M71 20C71.0002 19.0794 70.7463 18.1766 70.2662 17.3911C69.7861 16.6056 69.0984 15.9679 68.279 15.5483C67.4596 15.1287 66.5402 14.9434 65.6223 15.013C64.7043 15.0825 63.8233 15.4042 63.0765 15.9425C62.3296 16.4807 61.7459 17.2148 61.3896 18.0636C61.0333 18.9125 60.9183 19.8433 61.0573 20.7533C61.1962 21.6634 61.5837 22.5174 62.1771 23.2213C62.7704 23.9252 63.5466 24.4516 64.42 24.7425C64.2505 25.5235 63.8187 26.223 63.1965 26.7247C62.5743 27.2263 61.7992 27.4999 61 27.5H58C57.0717 27.5 56.1815 27.1313 55.5251 26.4749C54.8687 25.8185 54.5 24.9283 54.5 24V19.3625C58.4662 18.64 61.5 15.1012 61.5 10.8962V5C61.5 4.60218 61.342 4.22064 61.0607 3.93934C60.7794 3.65804 60.3978 3.5 60 3.5H57C56.6022 3.5 56.2206 3.65804 55.9393 3.93934C55.658 4.22064 55.5 4.60218 55.5 5C55.5 5.39782 55.658 5.77936 55.9393 6.06066C56.2206 6.34196 56.6022 6.5 57 6.5H58.5V10.8962C58.5 13.9462 56.0662 16.4613 53.0737 16.5C52.3453 16.5098 51.6222 16.3747 50.9463 16.1027C50.2705 15.8307 49.6555 15.4271 49.1369 14.9154C48.6183 14.4037 48.2066 13.7941 47.9256 13.1219C47.6446 12.4498 47.4999 11.7285 47.5 11V6.5H49C49.3978 6.5 49.7794 6.34196 50.0607 6.06066C50.342 5.77936 50.5 5.39782 50.5 5C50.5 4.60218 50.342 4.22064 50.0607 3.93934C49.7794 3.65804 49.3978 3.5 49 3.5H46C45.6022 3.5 45.2206 3.65804 44.9393 3.93934C44.658 4.22064 44.5 4.60218 44.5 5V11C44.5001 12.9941 45.2013 14.9247 46.4809 16.4541C47.7605 17.9835 49.5372 19.0143 51.5 19.3662V24C51.502 25.7233 52.1874 27.3754 53.406 28.594C54.6246 29.8126 56.2767 30.498 58 30.5H61C62.5873 30.4981 64.1192 29.9161 65.3073 28.8636C66.4955 27.811 67.2579 26.3605 67.4513 24.785C68.477 24.4722 69.3753 23.8386 70.0141 22.9773C70.6529 22.1159 70.9985 21.0724 71 20ZM66 22C65.6044 22 65.2178 21.8827 64.8889 21.6629C64.56 21.4432 64.3036 21.1308 64.1522 20.7654C64.0009 20.3999 63.9613 19.9978 64.0384 19.6098C64.1156 19.2219 64.3061 18.8655 64.5858 18.5858C64.8655 18.3061 65.2219 18.1156 65.6098 18.0384C65.9978 17.9613 66.3999 18.0009 66.7654 18.1522C67.1308 18.3036 67.4432 18.56 67.6629 18.8889C67.8827 19.2178 68 19.6044 68 20C68 20.5304 67.7893 21.0391 67.4142 21.4142C67.0391 21.7893 66.5304 22 66 22Z" fill="white"/>
</g>
<defs>
<clipPath id="clip0_27_5016">
<rect width="72" height="32" rx="5" fill="white"/>
</clipPath>
</defs>
</svg>
