<svg width="72" height="32" viewBox="0 0 72 32" fill="none" xmlns="http://www.w3.org/2000/svg">
<g clip-path="url(#clip0_27_745)">
<path d="M21 4H11C9.14409 4.00199 7.36477 4.74012 6.05245 6.05245C4.74012 7.36477 4.00199 9.14409 4 11V21C4.00199 22.8559 4.74012 24.6352 6.05245 25.9476C7.36477 27.2599 9.14409 27.998 11 28H17C17.1075 27.9999 17.2142 27.9826 17.3162 27.9487C20.595 26.855 26.855 20.595 27.9487 17.3162C27.9826 17.2142 27.9999 17.1075 28 17V11C27.998 9.14409 27.2599 7.36477 25.9476 6.05245C24.6352 4.74012 22.8559 4.00199 21 4ZM17 25.9275V22C17 20.6739 17.5268 19.4021 18.4645 18.4645C19.4021 17.5268 20.6739 17 22 17H25.9275C24.77 19.6938 19.6938 24.77 17 25.9275Z" fill="white"/>
<path d="M61 3.5H51C49.0116 3.50232 47.1053 4.29324 45.6993 5.69926C44.2932 7.10528 43.5023 9.01159 43.5 11V21C43.5023 22.9884 44.2932 24.8947 45.6993 26.3007C47.1053 27.7068 49.0116 28.4977 51 28.5H57C57.1611 28.5 57.3211 28.4738 57.4737 28.4225C60.9275 27.2712 67.2712 20.9225 68.4225 17.4737C68.4738 17.3211 68.5 17.1611 68.5 17V11C68.4977 9.01159 67.7068 7.10528 66.3007 5.69926C64.8947 4.29324 62.9884 3.50232 61 3.5ZM46.5 21V11C46.5 9.80653 46.9741 8.66193 47.818 7.81802C48.6619 6.97411 49.8065 6.5 51 6.5H61C62.1935 6.5 63.3381 6.97411 64.182 7.81802C65.0259 8.66193 65.5 9.80653 65.5 11V15.5H63C61.0116 15.5023 59.1053 16.2932 57.6993 17.6993C56.2932 19.1053 55.5023 21.0116 55.5 23V25.5H51C49.8065 25.5 48.6619 25.0259 47.818 24.182C46.9741 23.3381 46.5 22.1935 46.5 21ZM58.5 24.4538V23C58.5 21.8065 58.9741 20.6619 59.818 19.818C60.6619 18.9741 61.8065 18.5 63 18.5H64.4538C63 20.5138 60.5138 23 58.5 24.4538Z" fill="white"/>
</g>
<defs>
<clipPath id="clip0_27_745">
<rect width="72" height="32" rx="5" fill="white"/>
</clipPath>
</defs>
</svg>
