<svg width="72" height="32" viewBox="0 0 72 32" fill="none" xmlns="http://www.w3.org/2000/svg">
<g clip-path="url(#clip0_27_1522)">
<path d="M25 8V5C25 4.46957 24.7893 3.96086 24.4142 3.58579C24.0391 3.21071 23.5304 3 23 3H9C8.46957 3 7.96086 3.21071 7.58579 3.58579C7.21071 3.96086 7 4.46957 7 5V8C7 8.53043 7.21071 9.03914 7.58579 9.41421C7.96086 9.78929 8.46957 10 9 10H9.83L7.0125 27.8438C6.97112 28.1056 7.03544 28.3732 7.19132 28.5877C7.3472 28.8022 7.58187 28.946 7.84375 28.9875C7.89541 28.9958 7.94767 29 8 29C8.23788 28.9997 8.46785 28.9145 8.64861 28.7599C8.82937 28.6052 8.94908 28.3912 8.98625 28.1562L9.96 22H22.04L23.0125 28.1562C23.0497 28.3914 23.1696 28.6056 23.3506 28.7603C23.5316 28.9149 23.7619 28.9999 24 29C24.0528 29.0001 24.1054 28.9959 24.1575 28.9875C24.4194 28.946 24.6541 28.8022 24.8099 28.5877C24.9658 28.3732 25.0301 28.1056 24.9888 27.8438L22.17 10H23C23.5304 10 24.0391 9.78929 24.4142 9.41421C24.7893 9.03914 25 8.53043 25 8ZM21.7237 20H10.2762L11.855 10H20.145L21.7237 20Z" fill="white"/>
<path d="M65.4999 8V5C65.4999 4.33696 65.2365 3.70107 64.7677 3.23223C64.2988 2.76339 63.663 2.5 62.9999 2.5H48.9999C48.3369 2.5 47.701 2.76339 47.2321 3.23223C46.7633 3.70107 46.4999 4.33696 46.4999 5V8C46.4999 8.66304 46.7633 9.29893 47.2321 9.76777C47.701 10.2366 48.3369 10.5 48.9999 10.5H49.2499L46.5187 27.7663C46.4828 27.963 46.4867 28.1649 46.53 28.3601C46.5734 28.5553 46.6553 28.7399 46.771 28.903C46.8867 29.0661 47.0339 29.2044 47.2038 29.3098C47.3737 29.4152 47.563 29.4855 47.7606 29.5167C47.9581 29.5479 48.1599 29.5393 48.354 29.4913C48.5481 29.4434 48.7307 29.3571 48.891 29.2376C49.0513 29.118 49.1861 28.9676 49.2875 28.7953C49.3888 28.6229 49.4547 28.432 49.4812 28.2337L50.3874 22.5H61.6124L62.5187 28.2337C62.5452 28.432 62.611 28.6229 62.7124 28.7953C62.8137 28.9676 62.9485 29.118 63.1088 29.2376C63.2691 29.3571 63.4517 29.4434 63.6458 29.4913C63.84 29.5393 64.0417 29.5479 64.2393 29.5167C64.4368 29.4855 64.6261 29.4152 64.796 29.3098C64.966 29.2044 65.1131 29.0661 65.2288 28.903C65.3445 28.7399 65.4265 28.5553 65.4698 28.3601C65.5131 28.1649 65.517 27.963 65.4812 27.7663L62.7499 10.5H62.9999C63.663 10.5 64.2988 10.2366 64.7677 9.76777C65.2365 9.29893 65.4999 8.66304 65.4999 8ZM49.4999 5.5H62.4999V7.5H49.4999V5.5ZM61.1387 19.5H50.8612L52.2812 10.5H59.7187L61.1387 19.5Z" fill="white"/>
</g>
<defs>
<clipPath id="clip0_27_1522">
<rect width="72" height="32" rx="5" fill="white"/>
</clipPath>
</defs>
</svg>
