<svg width="72" height="32" viewBox="0 0 72 32" fill="none" xmlns="http://www.w3.org/2000/svg">
<g clip-path="url(#clip0_27_4082)">
<path d="M27 7V25C27 25.5304 26.7893 26.0391 26.4142 26.4142C26.0391 26.7893 25.5304 27 25 27H7C6.46957 27 5.96086 26.7893 5.58579 26.4142C5.21071 26.0391 5 25.5304 5 25V7C5 6.46957 5.21071 5.96086 5.58579 5.58579C5.96086 5.21071 6.46957 5 7 5H25C25.5304 5 26.0391 5.21071 26.4142 5.58579C26.7893 5.96086 27 6.46957 27 7Z" fill="white"/>
<path d="M65 4.5H47C46.337 4.5 45.7011 4.76339 45.2322 5.23223C44.7634 5.70107 44.5 6.33696 44.5 7V25C44.5 25.663 44.7634 26.2989 45.2322 26.7678C45.7011 27.2366 46.337 27.5 47 27.5H65C65.663 27.5 66.2989 27.2366 66.7678 26.7678C67.2366 26.2989 67.5 25.663 67.5 25V7C67.5 6.33696 67.2366 5.70107 66.7678 5.23223C66.2989 4.76339 65.663 4.5 65 4.5ZM64.5 24.5H47.5V7.5H64.5V24.5Z" fill="white"/>
</g>
<defs>
<clipPath id="clip0_27_4082">
<rect width="72" height="32" rx="5" fill="white"/>
</clipPath>
</defs>
</svg>
