<svg width="72" height="32" viewBox="0 0 72 32" fill="none" xmlns="http://www.w3.org/2000/svg">
<g clip-path="url(#clip0_27_1527)">
<path d="M28.9613 11.7262L27.1688 5.45C27.0482 5.03364 26.7962 4.66745 26.4504 4.40612C26.1045 4.14478 25.6835 4.00232 25.25 4H6.75C6.31654 4.00232 5.89547 4.14478 5.54964 4.40612C5.20382 4.66745 4.95181 5.03364 4.83125 5.45L3.03875 11.7262C3.01312 11.8152 3.00008 11.9074 3 12V14C3 14.7762 3.18073 15.5418 3.52786 16.2361C3.875 16.9303 4.37902 17.5343 5 18V27C5 27.2652 5.10536 27.5196 5.29289 27.7071C5.48043 27.8946 5.73478 28 6 28H26C26.2652 28 26.5196 27.8946 26.7071 27.7071C26.8946 27.5196 27 27.2652 27 27V18C27.621 17.5343 28.125 16.9303 28.4721 16.2361C28.8193 15.5418 29 14.7762 29 14V12C28.9999 11.9074 28.9869 11.8152 28.9613 11.7262ZM11 14C10.9998 14.5159 10.8666 15.023 10.6132 15.4724C10.3599 15.9217 9.9949 16.2982 9.55358 16.5653C9.11226 16.8325 8.6095 16.9813 8.09387 16.9975C7.57825 17.0136 7.06717 16.8965 6.61 16.6575C6.54044 16.6034 6.46392 16.5588 6.3825 16.525C5.95884 16.2538 5.61019 15.8804 5.36861 15.4392C5.12702 14.9979 5.00027 14.503 5 14V13H11V14ZM19 14C19 14.7956 18.6839 15.5587 18.1213 16.1213C17.5587 16.6839 16.7956 17 16 17C15.2044 17 14.4413 16.6839 13.8787 16.1213C13.3161 15.5587 13 14.7956 13 14V13H19V14ZM27 14C26.9996 14.5032 26.8727 14.9981 26.6308 15.4394C26.389 15.8806 26.0401 16.2539 25.6162 16.525C25.5359 16.5589 25.4603 16.603 25.3913 16.6562C24.9341 16.8955 24.423 17.0129 23.9073 16.9969C23.3916 16.981 22.8887 16.8323 22.4473 16.5653C22.0058 16.2982 21.6407 15.9218 21.3872 15.4725C21.1336 15.0231 21.0003 14.516 21 14V13H27V14Z" fill="white"/>
<path d="M69.5 12C69.5009 11.8606 69.4824 11.7218 69.445 11.5875L67.65 5.31375C67.4996 4.79274 67.1845 4.33445 66.7518 4.00749C66.3192 3.68053 65.7923 3.50249 65.25 3.5H46.75C46.2077 3.50249 45.6808 3.68053 45.2482 4.00749C44.8155 4.33445 44.5004 4.79274 44.35 5.31375L42.5575 11.5875C42.5192 11.7217 42.4999 11.8605 42.5 12V14C42.4999 14.8105 42.6791 15.611 43.0249 16.3441C43.3707 17.0772 43.8744 17.7246 44.5 18.24V27C44.5 27.3978 44.658 27.7794 44.9393 28.0607C45.2206 28.342 45.6022 28.5 46 28.5H66C66.3978 28.5 66.7794 28.342 67.0607 28.0607C67.342 27.7794 67.5 27.3978 67.5 27V18.24C68.1256 17.7246 68.6293 17.0772 68.9751 16.3441C69.3209 15.611 69.5001 14.8105 69.5 14V12ZM47.1313 6.5H64.875L66.0175 10.5H45.9888L47.1313 6.5ZM58.5063 13.5V14C58.5063 14.663 58.2429 15.2989 57.774 15.7678C57.3052 16.2366 56.6693 16.5 56.0063 16.5C55.3432 16.5 54.7073 16.2366 54.2385 15.7678C53.7696 15.2989 53.5063 14.663 53.5063 14V13.5H58.5063ZM46.625 16.0888C46.2792 15.861 45.9953 15.5509 45.7989 15.1863C45.6026 14.8217 45.4999 14.4141 45.5 14V13.5H50.5V14C50.5 14.663 50.2366 15.2989 49.7678 15.7678C49.2989 16.2366 48.663 16.5 48 16.5C47.6055 16.5002 47.2168 16.4059 46.8663 16.225C46.7904 16.1719 46.7096 16.1263 46.625 16.0888ZM64.5 25.5H47.5V19.4762C47.665 19.4913 47.8313 19.5 48 19.5C48.7497 19.5002 49.4914 19.3467 50.1794 19.049C50.8674 18.7512 51.4871 18.3155 52 17.7687C52.5131 18.3153 53.1327 18.7509 53.8207 19.0487C54.5086 19.3465 55.2503 19.5001 56 19.5001C56.7497 19.5001 57.4914 19.3465 58.1793 19.0487C58.8673 18.7509 59.4869 18.3153 60 17.7687C60.5129 18.3155 61.1326 18.7512 61.8206 19.049C62.5086 19.3467 63.2503 19.5002 64 19.5C64.1688 19.5 64.335 19.4913 64.5 19.4762V25.5ZM66.5 14C66.5001 14.4141 66.3974 14.8217 66.2011 15.1863C66.0047 15.5509 65.7208 15.861 65.375 16.0888C65.2926 16.1268 65.2139 16.1724 65.14 16.225C64.7589 16.4203 64.334 16.5144 63.9061 16.4983C63.4781 16.4822 63.0615 16.3565 62.6961 16.1331C62.3308 15.9098 62.0289 15.5963 61.8194 15.2228C61.61 14.8493 61.5 14.4282 61.5 14V13.5H66.5V14Z" fill="white"/>
</g>
<defs>
<clipPath id="clip0_27_1527">
<rect width="72" height="32" rx="5" fill="white"/>
</clipPath>
</defs>
</svg>
