<svg width="72" height="32" viewBox="0 0 72 32" fill="none" xmlns="http://www.w3.org/2000/svg">
<g clip-path="url(#clip0_27_4870)">
<path d="M13.4996 23.5C13.4996 24.2911 13.265 25.0645 12.8255 25.7223C12.3859 26.3801 11.7612 26.8928 11.0303 27.1955C10.2994 27.4983 9.49514 27.5775 8.71922 27.4231C7.94329 27.2688 7.23056 26.8878 6.67115 26.3284C6.11174 25.769 5.73078 25.0563 5.57644 24.2804C5.4221 23.5044 5.50131 22.7002 5.80406 21.9693C6.10681 21.2384 6.6195 20.6136 7.2773 20.1741C7.9351 19.7346 8.70845 19.5 9.49958 19.5C10.5604 19.5 11.5779 19.9214 12.328 20.6716C13.0782 21.4217 13.4996 22.4391 13.4996 23.5ZM6.70708 14.7075L8.49958 12.9137L10.2921 14.7075C10.4797 14.8951 10.7342 15.0006 10.9996 15.0006C11.2649 15.0006 11.5194 14.8951 11.7071 14.7075C11.8947 14.5199 12.0001 14.2654 12.0001 14C12.0001 13.7346 11.8947 13.4801 11.7071 13.2925L9.91333 11.5L11.7071 9.7075C11.8947 9.51986 12.0001 9.26536 12.0001 9C12.0001 8.73464 11.8947 8.48014 11.7071 8.2925C11.5194 8.10486 11.2649 7.99944 10.9996 7.99944C10.7342 7.99944 10.4797 8.10486 10.2921 8.2925L8.49958 10.0863L6.70708 8.2925C6.51944 8.10486 6.26494 7.99944 5.99958 7.99944C5.73422 7.99944 5.47972 8.10486 5.29208 8.2925C5.10444 8.48014 4.99902 8.73464 4.99902 9C4.99902 9.26536 5.10444 9.51986 5.29208 9.7075L7.08583 11.5L5.29208 13.2925C5.10444 13.4801 4.99902 13.7346 4.99902 14C4.99902 14.2654 5.10444 14.5199 5.29208 14.7075C5.47972 14.8951 5.73422 15.0006 5.99958 15.0006C6.26494 15.0006 6.51944 14.8951 6.70708 14.7075ZM26.9133 23.5L28.7071 21.7075C28.8947 21.5199 29.0001 21.2654 29.0001 21C29.0001 20.7346 28.8947 20.4801 28.7071 20.2925C28.5194 20.1049 28.2649 19.9994 27.9996 19.9994C27.7342 19.9994 27.4797 20.1049 27.2921 20.2925L25.4996 22.0863L23.7071 20.2925C23.5194 20.1049 23.2649 19.9994 22.9996 19.9994C22.7342 19.9994 22.4797 20.1049 22.2921 20.2925C22.1044 20.4801 21.999 20.7346 21.999 21C21.999 21.2654 22.1044 21.5199 22.2921 21.7075L24.0858 23.5L22.2921 25.2925C22.1044 25.4801 21.999 25.7346 21.999 26C21.999 26.2654 22.1044 26.5199 22.2921 26.7075C22.4797 26.8951 22.7342 27.0006 22.9996 27.0006C23.2649 27.0006 23.5194 26.8951 23.7071 26.7075L25.4996 24.9137L27.2921 26.7075C27.385 26.8004 27.4953 26.8741 27.6167 26.9244C27.7381 26.9747 27.8682 27.0006 27.9996 27.0006C28.131 27.0006 28.2611 26.9747 28.3825 26.9244C28.5039 26.8741 28.6142 26.8004 28.7071 26.7075C28.8 26.6146 28.8737 26.5043 28.924 26.3829C28.9743 26.2615 29.0001 26.1314 29.0001 26C29.0001 25.8686 28.9743 25.7385 28.924 25.6171C28.8737 25.4957 28.8 25.3854 28.7071 25.2925L26.9133 23.5ZM20.7071 6.2925L20.4133 6H22.9996C23.2648 6 23.5192 5.89464 23.7067 5.70711C23.8942 5.51957 23.9996 5.26522 23.9996 5C23.9996 4.73478 23.8942 4.48043 23.7067 4.29289C23.5192 4.10536 23.2648 4 22.9996 4H17.9996C17.7344 4 17.48 4.10536 17.2925 4.29289C17.1049 4.48043 16.9996 4.73478 16.9996 5V10C16.9996 10.2652 17.1049 10.5196 17.2925 10.7071C17.48 10.8946 17.7344 11 17.9996 11C18.2648 11 18.5192 10.8946 18.7067 10.7071C18.8942 10.5196 18.9996 10.2652 18.9996 10V7.41375L19.2921 7.7075C21.5333 9.94875 21.5296 12.1325 21.1308 13.57C20.5508 15.6663 18.7108 17.5413 16.7558 18.03C16.5191 18.0893 16.3122 18.2332 16.1742 18.4345C16.0362 18.6358 15.9765 18.8806 16.0065 19.1228C16.0365 19.365 16.154 19.5879 16.3369 19.7495C16.5198 19.9111 16.7555 20.0002 16.9996 20C17.0817 19.9999 17.1636 19.9898 17.2433 19.97C19.8946 19.3075 22.2871 16.895 23.0596 14.1038C23.8221 11.3475 22.9871 8.57375 20.7071 6.2925Z" fill="white"/>
<path d="M50.0004 18C49.0115 18 48.0448 18.2932 47.2225 18.8427C46.4003 19.3921 45.7594 20.173 45.381 21.0866C45.0025 22.0002 44.9035 23.0055 45.0964 23.9755C45.2894 24.9454 45.7656 25.8363 46.4648 26.5355C47.1641 27.2348 48.055 27.711 49.0249 27.9039C49.9948 28.0969 51.0002 27.9978 51.9138 27.6194C52.8274 27.241 53.6083 26.6001 54.1577 25.7779C54.7071 24.9556 55.0004 23.9889 55.0004 23C55.0004 21.6739 54.4736 20.4021 53.5359 19.4645C52.5982 18.5268 51.3265 18 50.0004 18ZM50.0004 25C49.6048 25 49.2181 24.8827 48.8892 24.6629C48.5603 24.4432 48.304 24.1308 48.1526 23.7654C48.0012 23.3999 47.9616 22.9978 48.0388 22.6098C48.116 22.2219 48.3065 21.8655 48.5862 21.5858C48.8659 21.3061 49.2222 21.1156 49.6102 21.0384C49.9982 20.9613 50.4003 21.0009 50.7657 21.1522C51.1312 21.3036 51.4436 21.56 51.6633 21.8889C51.8831 22.2178 52.0004 22.6044 52.0004 23C52.0004 23.5304 51.7897 24.0391 51.4146 24.4142C51.0395 24.7893 50.5308 25 50.0004 25ZM46.0004 16C45.7035 16.0002 45.4133 15.9124 45.1664 15.7476C44.9195 15.5828 44.7271 15.3484 44.6134 15.0742C44.4998 14.8 44.4701 14.4982 44.5281 14.207C44.5861 13.9159 44.7291 13.6485 44.9391 13.4388L46.3754 12L44.9391 10.5612C44.6573 10.2795 44.499 9.89726 44.499 9.49875C44.499 9.10023 44.6573 8.71804 44.9391 8.43625C45.2209 8.15446 45.6031 7.99615 46.0016 7.99615C46.4001 7.99615 46.7823 8.15446 47.0641 8.43625L48.5004 9.875L49.9391 8.43875C50.2209 8.15696 50.6031 7.99865 51.0016 7.99865C51.4001 7.99865 51.7823 8.15696 52.0641 8.43875C52.3459 8.72054 52.5042 9.10274 52.5042 9.50125C52.5042 9.89977 52.3459 10.282 52.0641 10.5638L50.6254 12L52.0654 13.4388C52.3472 13.7205 52.5055 14.1027 52.5055 14.5013C52.5055 14.8998 52.3472 15.282 52.0654 15.5638C51.7836 15.8455 51.4014 16.0039 51.0029 16.0039C50.6044 16.0039 50.2222 15.8455 49.9404 15.5638L48.5004 14.125L47.0616 15.5612C46.9222 15.7005 46.7567 15.8109 46.5746 15.8862C46.3926 15.9615 46.1974 16.0002 46.0004 16ZM69.0616 25.4387C69.3434 25.7205 69.5017 26.1027 69.5017 26.5012C69.5017 26.8998 69.3434 27.282 69.0616 27.5637C68.7798 27.8455 68.3976 28.0039 67.9991 28.0039C67.6006 28.0039 67.2184 27.8455 66.9366 27.5637L65.5004 26.125L64.0616 27.565C63.7798 27.8468 63.3976 28.0051 62.9991 28.0051C62.6006 28.0051 62.2184 27.8468 61.9366 27.565C61.6548 27.2832 61.4965 26.901 61.4965 26.5025C61.4965 26.104 61.6548 25.7218 61.9366 25.44L63.3754 24L61.9354 22.5613C61.6536 22.2795 61.4953 21.8973 61.4953 21.4988C61.4953 21.1002 61.6536 20.718 61.9354 20.4363C62.2172 20.1545 62.5994 19.9961 62.9979 19.9961C63.3964 19.9961 63.7786 20.1545 64.0604 20.4363L65.5004 21.875L66.9391 20.435C67.2209 20.1532 67.6031 19.9949 68.0016 19.9949C68.4001 19.9949 68.7823 20.1532 69.0641 20.435C69.3459 20.7168 69.5042 21.099 69.5042 21.4975C69.5042 21.896 69.3459 22.2782 69.0641 22.56L67.6254 24L69.0616 25.4387ZM63.6366 13.8612C62.9854 16.7362 60.7204 19.3025 58.0004 20.2638C57.8146 20.3294 57.6178 20.3578 57.4211 20.3474C57.2243 20.337 57.0316 20.288 56.8538 20.203C56.4948 20.0316 56.2186 19.7245 56.086 19.3494C55.9534 18.9743 55.9752 18.5618 56.1467 18.2028C56.3182 17.8438 56.6253 17.5676 57.0004 17.435C58.7591 16.81 60.2841 15.0712 60.7091 13.1975C61.0054 11.89 60.7591 10.5925 59.9991 9.38V10.505C59.9991 10.9028 59.8411 11.2844 59.5598 11.5657C59.2785 11.847 58.897 12.005 58.4991 12.005C58.1013 12.005 57.7198 11.847 57.4385 11.5657C57.1572 11.2844 56.9991 10.9028 56.9991 10.505V5.5C56.9991 5.10218 57.1572 4.72064 57.4385 4.43934C57.7198 4.15804 58.1013 4 58.4991 4H63.4991C63.897 4 64.2785 4.15804 64.5598 4.43934C64.8411 4.72064 64.9991 5.10218 64.9991 5.5C64.9991 5.89782 64.8411 6.27936 64.5598 6.56066C64.2785 6.84196 63.897 7 63.4991 7H62.0004C63.5966 9.07625 64.1779 11.47 63.6366 13.8612Z" fill="white"/>
</g>
<defs>
<clipPath id="clip0_27_4870">
<rect width="72" height="32" rx="5" fill="white"/>
</clipPath>
</defs>
</svg>
