<svg width="72" height="32" viewBox="0 0 72 32" fill="none" xmlns="http://www.w3.org/2000/svg">
<g clip-path="url(#clip0_27_5808)">
<path d="M28.3162 7.05125L16.3162 3.05125C16.111 2.98282 15.889 2.98282 15.6838 3.05125L3.68375 7.05125C3.48463 7.11763 3.31145 7.24497 3.18873 7.41525C3.06601 7.58553 2.99998 7.79011 3 8V18C3 18.2652 3.10536 18.5196 3.29289 18.7071C3.48043 18.8946 3.73478 19 4 19C4.26522 19 4.51957 18.8946 4.70711 18.7071C4.89464 18.5196 5 18.2652 5 18V9.3875L9.19875 10.7862C8.0832 12.5885 7.72846 14.7598 8.21242 16.8234C8.69638 18.887 9.97949 20.6741 11.78 21.7925C9.53 22.675 7.585 24.2712 6.1625 26.4537C6.08852 26.5637 6.03713 26.6873 6.01133 26.8173C5.98552 26.9472 5.98581 27.0811 6.01218 27.2109C6.03854 27.3408 6.09046 27.4642 6.16492 27.5738C6.23937 27.6834 6.33488 27.7772 6.44588 27.8496C6.55688 27.922 6.68117 27.9716 6.81151 27.9955C6.94185 28.0195 7.07566 28.0173 7.20514 27.989C7.33463 27.9608 7.45722 27.9071 7.56577 27.8311C7.67433 27.7551 7.7667 27.6583 7.8375 27.5462C9.72125 24.6562 12.6962 23 16 23C19.3037 23 22.2788 24.6562 24.1625 27.5462C24.3092 27.7642 24.5357 27.9157 24.7932 27.968C25.0507 28.0203 25.3184 27.9691 25.5385 27.8256C25.7586 27.6821 25.9133 27.4577 25.9692 27.201C26.0252 26.9443 25.9779 26.6758 25.8375 26.4537C24.415 24.2712 22.4625 22.675 20.22 21.7925C22.0188 20.6742 23.3007 18.8882 23.7846 16.8261C24.2684 14.764 23.9148 12.5942 22.8013 10.7925L28.3162 8.955C28.5154 8.88866 28.6886 8.76133 28.8114 8.59104C28.9342 8.42076 29.0002 8.21617 29.0002 8.00625C29.0002 7.79633 28.9342 7.59173 28.8114 7.42145C28.6886 7.25117 28.5154 7.12384 28.3162 7.0575V7.05125ZM22 15C22.0003 15.9486 21.7756 16.8837 21.3445 17.7286C20.9134 18.5736 20.2881 19.3043 19.5199 19.8607C18.7517 20.4172 17.8625 20.7836 16.9253 20.9299C15.9881 21.0762 15.0295 20.9982 14.1283 20.7023C13.2271 20.4064 12.4088 19.901 11.7407 19.2277C11.0726 18.5543 10.5737 17.7321 10.2849 16.8286C9.99607 15.925 9.92559 14.9659 10.0792 14.0299C10.2329 13.0938 10.6063 12.2075 11.1687 11.4437L15.6838 12.9437C15.889 13.0122 16.111 13.0122 16.3162 12.9437L20.8312 11.4437C21.591 12.4737 22.0006 13.7201 22 15Z" fill="white"/>
<path d="M68.4728 6.5775L56.4728 2.5775C56.1655 2.47376 55.8326 2.47376 55.5253 2.5775L43.5253 6.5775C43.239 6.67233 42.9879 6.85128 42.8048 7.091C42.6218 7.33071 42.5152 7.62005 42.4991 7.92125C42.4977 7.94748 42.4977 7.97377 42.4991 8V18C42.4991 18.3978 42.6571 18.7794 42.9384 19.0607C43.2197 19.342 43.6012 19.5 43.9991 19.5C44.3969 19.5 44.7784 19.342 45.0597 19.0607C45.341 18.7794 45.4991 18.3978 45.4991 18V10.0812L48.4628 11.0687C47.543 12.8294 47.2697 14.8568 47.6904 16.7981C48.1111 18.7395 49.1992 20.4718 50.7653 21.6937C48.7159 22.7044 46.9814 24.2556 45.7491 26.18C45.6381 26.3449 45.561 26.5303 45.5223 26.7253C45.4836 26.9202 45.484 27.121 45.5236 27.3158C45.5631 27.5106 45.641 27.6956 45.7527 27.8601C45.8644 28.0245 46.0076 28.1651 46.1741 28.2737C46.3406 28.3823 46.5271 28.4567 46.7226 28.4927C46.9181 28.5286 47.1188 28.5253 47.313 28.4829C47.5073 28.4406 47.6911 28.3601 47.854 28.2461C48.0168 28.132 48.1554 27.9868 48.2616 27.8187C50.0453 25.0737 52.8741 23.5 55.9991 23.5C59.1241 23.5 61.9528 25.0737 63.7428 27.8187C63.849 27.9868 63.9876 28.132 64.1504 28.2461C64.3132 28.3601 64.4971 28.4406 64.6914 28.4829C64.8856 28.5253 65.0863 28.5286 65.2818 28.4927C65.4773 28.4567 65.6638 28.3823 65.8303 28.2737C65.9968 28.1651 66.14 28.0245 66.2517 27.8601C66.3634 27.6956 66.4413 27.5106 66.4808 27.3158C66.5204 27.121 66.5208 26.9202 66.4821 26.7253C66.4434 26.5303 66.3663 26.3449 66.2553 26.18C65.0219 24.2534 63.2851 22.7007 61.2328 21.69C62.799 20.4681 63.8871 18.7357 64.3078 16.7944C64.7285 14.853 64.4551 12.8256 63.5353 11.065L68.4728 9.41875C68.7711 9.31895 69.0305 9.12791 69.2143 8.87264C69.398 8.61737 69.4969 8.31079 69.4969 7.99625C69.4969 7.68171 69.398 7.37512 69.2143 7.11985C69.0305 6.86458 68.7711 6.67354 68.4728 6.57375V6.5775ZM55.9991 5.5775L63.2553 8L55.9991 10.4187L48.7491 8L55.9991 5.5775ZM61.4991 15C61.4992 15.8543 61.3004 16.6969 60.9183 17.461C60.5362 18.225 59.9814 18.8896 59.2978 19.402C58.6142 19.9144 57.8207 20.2605 56.9801 20.4128C56.1395 20.5652 55.275 20.5197 54.455 20.2798C53.6351 20.04 52.8823 19.6125 52.2563 19.0311C51.6303 18.4498 51.1484 17.7306 50.8487 16.9306C50.549 16.1306 50.4397 15.2718 50.5296 14.4223C50.6195 13.5727 50.9061 12.7558 51.3666 12.0362L55.5253 13.4225C55.8327 13.5259 56.1654 13.5259 56.4728 13.4225L60.6316 12.0362C61.1988 12.9206 61.4999 13.9494 61.4991 15Z" fill="white"/>
</g>
<defs>
<clipPath id="clip0_27_5808">
<rect width="72" height="32" rx="5" fill="white"/>
</clipPath>
</defs>
</svg>
