<svg width="72" height="32" viewBox="0 0 72 32" fill="none" xmlns="http://www.w3.org/2000/svg">
<g clip-path="url(#clip0_27_1998)">
<path d="M26 4H6C5.46957 4 4.96086 4.21071 4.58579 4.58579C4.21071 4.96086 4 5.46957 4 6V26C4 26.5304 4.21071 27.0391 4.58579 27.4142C4.96086 27.7893 5.46957 28 6 28H26C26.5304 28 27.0391 27.7893 27.4142 27.4142C27.7893 27.0391 28 26.5304 28 26V6C28 5.46957 27.7893 4.96086 27.4142 4.58579C27.0391 4.21071 26.5304 4 26 4ZM22 23H10C9.73478 23 9.48043 22.8946 9.29289 22.7071C9.10536 22.5196 9 22.2652 9 22C9 21.7348 9.10536 21.4804 9.29289 21.2929C9.48043 21.1054 9.73478 21 10 21H22C22.2652 21 22.5196 21.1054 22.7071 21.2929C22.8946 21.4804 23 21.7348 23 22C23 22.2652 22.8946 22.5196 22.7071 22.7071C22.5196 22.8946 22.2652 23 22 23ZM14 17H22C22.2652 17 22.5196 17.1054 22.7071 17.2929C22.8946 17.4804 23 17.7348 23 18C23 18.2652 22.8946 18.5196 22.7071 18.7071C22.5196 18.8946 22.2652 19 22 19H14C12.6739 19 11.4021 18.4732 10.4645 17.5355C9.52678 16.5979 9 15.3261 9 14C9 12.6739 9.52678 11.4021 10.4645 10.4645C11.4021 9.52678 12.6739 9 14 9H22C22.2652 9 22.5196 9.10536 22.7071 9.29289C22.8946 9.48043 23 9.73478 23 10C23 10.2652 22.8946 10.5196 22.7071 10.7071C22.5196 10.8946 22.2652 11 22 11H14C13.2044 11 12.4413 11.3161 11.8787 11.8787C11.3161 12.4413 11 13.2044 11 14C11 14.7956 11.3161 15.5587 11.8787 16.1213C12.4413 16.6839 13.2044 17 14 17Z" fill="white"/>
<path d="M66.5 26C66.5 26.3978 66.342 26.7794 66.0607 27.0607C65.7794 27.342 65.3978 27.5 65 27.5H46C45.6022 27.5 45.2206 27.342 44.9393 27.0607C44.658 26.7794 44.5 26.3978 44.5 26C44.5 25.6022 44.658 25.2206 44.9393 24.9393C45.2206 24.658 45.6022 24.5 46 24.5H65C65.3978 24.5 65.7794 24.658 66.0607 24.9393C66.342 25.2206 66.5 25.6022 66.5 26ZM65 19.5H53C51.5413 19.5 50.1424 18.9205 49.1109 17.8891C48.0795 16.8576 47.5 15.4587 47.5 14C47.5 12.5413 48.0795 11.1424 49.1109 10.1109C50.1424 9.07946 51.5413 8.5 53 8.5H65C65.3978 8.5 65.7794 8.34196 66.0607 8.06066C66.342 7.77936 66.5 7.39782 66.5 7C66.5 6.60218 66.342 6.22064 66.0607 5.93934C65.7794 5.65804 65.3978 5.5 65 5.5H53C50.7457 5.5 48.5837 6.39553 46.9896 7.98959C45.3955 9.58365 44.5 11.7457 44.5 14C44.5 16.2543 45.3955 18.4163 46.9896 20.0104C48.5837 21.6045 50.7457 22.5 53 22.5H65C65.3978 22.5 65.7794 22.342 66.0607 22.0607C66.342 21.7794 66.5 21.3978 66.5 21C66.5 20.6022 66.342 20.2206 66.0607 19.9393C65.7794 19.658 65.3978 19.5 65 19.5Z" fill="white"/>
</g>
<defs>
<clipPath id="clip0_27_1998">
<rect width="72" height="32" rx="5" fill="white"/>
</clipPath>
</defs>
</svg>
