<svg width="72" height="32" viewBox="0 0 72 32" fill="none" xmlns="http://www.w3.org/2000/svg">
<g clip-path="url(#clip0_27_5681)">
<path d="M27 11H21V5C21 4.73478 20.8946 4.48043 20.7071 4.29289C20.5196 4.10536 20.2652 4 20 4H5C4.73478 4 4.48043 4.10536 4.29289 4.29289C4.10536 4.48043 4 4.73478 4 5V20C4 20.2652 4.10536 20.5196 4.29289 20.7071C4.48043 20.8946 4.73478 21 5 21H11V27C11 27.2652 11.1054 27.5196 11.2929 27.7071C11.4804 27.8946 11.7348 28 12 28H27C27.2652 28 27.5196 27.8946 27.7071 27.7071C27.8946 27.5196 28 27.2652 28 27V12C28 11.7348 27.8946 11.4804 27.7071 11.2929C27.5196 11.1054 27.2652 11 27 11ZM6 6H19V19H6V6Z" fill="white"/>
<path d="M68.5 20V12C68.5 11.6022 68.342 11.2206 68.0607 10.9393C67.7794 10.658 67.3978 10.5 67 10.5H61.5V5C61.5 4.60218 61.342 4.22064 61.0607 3.93934C60.7794 3.65804 60.3978 3.5 60 3.5H45C44.6022 3.5 44.2206 3.65804 43.9393 3.93934C43.658 4.22064 43.5 4.60218 43.5 5V20C43.5 20.3978 43.658 20.7794 43.9393 21.0607C44.2206 21.342 44.6022 21.5 45 21.5H50.5V27C50.5 27.3978 50.658 27.7794 50.9393 28.0607C51.2206 28.342 51.6022 28.5 52 28.5H67C67.3978 28.5 67.7794 28.342 68.0607 28.0607C68.342 27.7794 68.5 27.3978 68.5 27V20ZM60.625 25.5L56.625 21.5H59.375L63.375 25.5H60.625ZM61.5 19.375V16.625L65.5 20.625V23.375L61.5 19.375ZM65.5 16.375L62.625 13.5H65.5V16.375ZM46.5 6.5H58.5V13V18.5H46.5V6.5ZM53.5 22.625L56.375 25.5H53.5V22.625Z" fill="white"/>
</g>
<defs>
<clipPath id="clip0_27_5681">
<rect width="72" height="32" rx="5" fill="white"/>
</clipPath>
</defs>
</svg>
