<svg width="72" height="32" viewBox="0 0 72 32" fill="none" xmlns="http://www.w3.org/2000/svg">
<g clip-path="url(#clip0_27_4092)">
<path d="M28 6H4C3.46957 6 2.96086 6.21071 2.58579 6.58579C2.21071 6.96086 2 7.46957 2 8V24C2 24.5304 2.21071 25.0391 2.58579 25.4142C2.96086 25.7893 3.46957 26 4 26H28C28.5304 26 29.0391 25.7893 29.4142 25.4142C29.7893 25.0391 30 24.5304 30 24V8C30 7.46957 29.7893 6.96086 29.4142 6.58579C29.0391 6.21071 28.5304 6 28 6ZM7 16H9C9.26522 16 9.51957 16.1054 9.70711 16.2929C9.89464 16.4804 10 16.7348 10 17C10 17.2652 9.89464 17.5196 9.70711 17.7071C9.51957 17.8946 9.26522 18 9 18H7C6.73478 18 6.48043 17.8946 6.29289 17.7071C6.10536 17.5196 6 17.2652 6 17C6 16.7348 6.10536 16.4804 6.29289 16.2929C6.48043 16.1054 6.73478 16 7 16ZM19 22H7C6.73478 22 6.48043 21.8946 6.29289 21.7071C6.10536 21.5196 6 21.2652 6 21C6 20.7348 6.10536 20.4804 6.29289 20.2929C6.48043 20.1054 6.73478 20 7 20H19C19.2652 20 19.5196 20.1054 19.7071 20.2929C19.8946 20.4804 20 20.7348 20 21C20 21.2652 19.8946 21.5196 19.7071 21.7071C19.5196 21.8946 19.2652 22 19 22ZM25 22H23C22.7348 22 22.4804 21.8946 22.2929 21.7071C22.1054 21.5196 22 21.2652 22 21C22 20.7348 22.1054 20.4804 22.2929 20.2929C22.4804 20.1054 22.7348 20 23 20H25C25.2652 20 25.5196 20.1054 25.7071 20.2929C25.8946 20.4804 26 20.7348 26 21C26 21.2652 25.8946 21.5196 25.7071 21.7071C25.5196 21.8946 25.2652 22 25 22ZM25 18H13C12.7348 18 12.4804 17.8946 12.2929 17.7071C12.1054 17.5196 12 17.2652 12 17C12 16.7348 12.1054 16.4804 12.2929 16.2929C12.4804 16.1054 12.7348 16 13 16H25C25.2652 16 25.5196 16.1054 25.7071 16.2929C25.8946 16.4804 26 16.7348 26 17C26 17.2652 25.8946 17.5196 25.7071 17.7071C25.5196 17.8946 25.2652 18 25 18Z" fill="white"/>
<path d="M68 5.5H44C43.337 5.5 42.7011 5.76339 42.2322 6.23223C41.7634 6.70107 41.5 7.33696 41.5 8V24C41.5 24.663 41.7634 25.2989 42.2322 25.7678C42.7011 26.2366 43.337 26.5 44 26.5H68C68.663 26.5 69.2989 26.2366 69.7678 25.7678C70.2366 25.2989 70.5 24.663 70.5 24V8C70.5 7.33696 70.2366 6.70107 69.7678 6.23223C69.2989 5.76339 68.663 5.5 68 5.5ZM67.5 23.5H44.5V8.5H67.5V23.5ZM46 16C46 15.6022 46.158 15.2206 46.4393 14.9393C46.7206 14.658 47.1022 14.5 47.5 14.5H49.5C49.8978 14.5 50.2794 14.658 50.5607 14.9393C50.842 15.2206 51 15.6022 51 16C51 16.3978 50.842 16.7794 50.5607 17.0607C50.2794 17.342 49.8978 17.5 49.5 17.5H47.5C47.1022 17.5 46.7206 17.342 46.4393 17.0607C46.158 16.7794 46 16.3978 46 16ZM53 16C53 15.6022 53.158 15.2206 53.4393 14.9393C53.7206 14.658 54.1022 14.5 54.5 14.5H64.5C64.8978 14.5 65.2794 14.658 65.5607 14.9393C65.842 15.2206 66 15.6022 66 16C66 16.3978 65.842 16.7794 65.5607 17.0607C65.2794 17.342 64.8978 17.5 64.5 17.5H54.5C54.1022 17.5 53.7206 17.342 53.4393 17.0607C53.158 16.7794 53 16.3978 53 16ZM46 20.5C46 20.1022 46.158 19.7206 46.4393 19.4393C46.7206 19.158 47.1022 19 47.5 19H57.5C57.8978 19 58.2794 19.158 58.5607 19.4393C58.842 19.7206 59 20.1022 59 20.5C59 20.8978 58.842 21.2794 58.5607 21.5607C58.2794 21.842 57.8978 22 57.5 22H47.5C47.1022 22 46.7206 21.842 46.4393 21.5607C46.158 21.2794 46 20.8978 46 20.5ZM66 20.5C66 20.8978 65.842 21.2794 65.5607 21.5607C65.2794 21.842 64.8978 22 64.5 22H62.5C62.1022 22 61.7206 21.842 61.4393 21.5607C61.158 21.2794 61 20.8978 61 20.5C61 20.1022 61.158 19.7206 61.4393 19.4393C61.7206 19.158 62.1022 19 62.5 19H64.5C64.8978 19 65.2794 19.158 65.5607 19.4393C65.842 19.7206 66 20.1022 66 20.5Z" fill="white"/>
</g>
<defs>
<clipPath id="clip0_27_4092">
<rect width="72" height="32" rx="5" fill="white"/>
</clipPath>
</defs>
</svg>
