<svg width="72" height="32" viewBox="0 0 72 32" fill="none" xmlns="http://www.w3.org/2000/svg">
<g clip-path="url(#clip0_27_4097)">
<path d="M6.74 4.32749C6.64992 4.22842 6.54087 4.14844 6.4193 4.0923C6.29773 4.03616 6.16612 4.00502 6.03229 4.0007C5.89845 3.99639 5.76511 4.019 5.64018 4.06719C5.51525 4.11538 5.40127 4.18817 5.305 4.28124C5.11941 4.47045 5.014 4.72397 5.01074 4.98898C5.00748 5.25399 5.10662 5.51004 5.2875 5.70375L5.5575 5.99999H4C3.46957 5.99999 2.96086 6.21071 2.58579 6.58578C2.21071 6.96085 2 7.46956 2 7.99999V24C2 24.5304 2.21071 25.0391 2.58579 25.4142C2.96086 25.7893 3.46957 26 4 26H23.74L25.26 27.6725C25.3486 27.77 25.4556 27.8489 25.5749 27.9049C25.6941 27.9609 25.8233 27.9928 25.9549 27.9987C26.0865 28.0046 26.218 27.9845 26.3417 27.9394C26.4655 27.8944 26.5792 27.8254 26.6763 27.7362C26.8671 27.5477 26.9776 27.2926 26.9846 27.0244C26.9915 26.7562 26.8945 26.4957 26.7138 26.2975L6.74 4.32749ZM13 16H14.6488L16.4662 18H13.0337C12.7753 18.0038 12.5251 17.9096 12.3333 17.7364C12.1415 17.5632 12.0224 17.3237 12 17.0662C11.9909 16.9295 12.0101 16.7923 12.0562 16.6632C12.1024 16.5341 12.1746 16.4159 12.2684 16.3159C12.3622 16.2159 12.4755 16.1363 12.6014 16.0819C12.7272 16.0276 12.8629 15.9997 13 16ZM7 16H9C9.13709 15.9997 9.27277 16.0276 9.39863 16.0819C9.52448 16.1363 9.63782 16.2159 9.7316 16.3159C9.82538 16.4159 9.8976 16.5341 9.94377 16.6632C9.98994 16.7923 10.0091 16.9295 10 17.0662C9.9776 17.3237 9.85852 17.5632 9.66673 17.7364C9.47494 17.9096 9.22467 18.0038 8.96625 18H7.03375C6.77533 18.0038 6.52506 17.9096 6.33327 17.7364C6.14148 17.5632 6.0224 17.3237 6 17.0662C5.99092 16.9295 6.01006 16.7923 6.05623 16.6632C6.1024 16.5341 6.17462 16.4159 6.2684 16.3159C6.36218 16.2159 6.47552 16.1363 6.60137 16.0819C6.72723 16.0276 6.86291 15.9997 7 16ZM19 22H7.03375C6.77533 22.0038 6.52506 21.9096 6.33327 21.7364C6.14148 21.5632 6.0224 21.3237 6 21.0662C5.99092 20.9295 6.01006 20.7923 6.05623 20.6632C6.1024 20.5341 6.17462 20.4159 6.2684 20.3159C6.36218 20.2159 6.47552 20.1363 6.60137 20.0819C6.72723 20.0276 6.86291 19.9997 7 20H18.285L19.7725 21.6362C19.6786 21.7501 19.5606 21.8418 19.427 21.9047C19.2935 21.9676 19.1476 22.0001 19 22ZM30 7.99999V24C29.9997 24.277 29.9419 24.5509 29.8302 24.8044C29.7186 25.0578 29.5555 25.2854 29.3512 25.4725C29.3028 25.5178 29.2457 25.5531 29.1835 25.5761C29.1212 25.5992 29.055 25.6096 28.9887 25.6068C28.9224 25.6041 28.8573 25.5881 28.7972 25.5599C28.7371 25.5316 28.6833 25.4917 28.6388 25.4425L21.875 18H25C25.1371 18.0003 25.2728 17.9724 25.3986 17.9181C25.5245 17.8637 25.6378 17.7841 25.7316 17.6841C25.8254 17.5841 25.8976 17.4659 25.9438 17.3368C25.9899 17.2077 26.0091 17.0705 26 16.9337C25.9779 16.6766 25.8593 16.4374 25.668 16.2641C25.4766 16.0909 25.2268 15.9965 24.9688 16H20.0562L11.7238 6.83624C11.6583 6.76425 11.6153 6.67474 11.6 6.57867C11.5847 6.4826 11.5977 6.38415 11.6375 6.29538C11.6774 6.20662 11.7422 6.13139 11.8241 6.07893C11.906 6.02646 12.0015 5.99903 12.0988 5.99999H28C28.5304 5.99999 29.0391 6.21071 29.4142 6.58578C29.7893 6.96085 30 7.46956 30 7.99999Z" fill="white"/>
<path d="M46 16C46 15.6022 46.158 15.2206 46.4393 14.9393C46.7206 14.658 47.1022 14.5 47.5 14.5H49.5C49.8978 14.5 50.2794 14.658 50.5607 14.9393C50.842 15.2206 51 15.6022 51 16C51 16.3978 50.842 16.7794 50.5607 17.0607C50.2794 17.342 49.8978 17.5 49.5 17.5H47.5C47.1022 17.5 46.7206 17.342 46.4393 17.0607C46.158 16.7794 46 16.3978 46 16ZM67.11 25.9912C67.2453 26.1365 67.3503 26.3072 67.4191 26.4934C67.4879 26.6796 67.5191 26.8776 67.5108 27.0759C67.5025 27.2742 67.4549 27.469 67.3708 27.6488C67.2868 27.8286 67.1678 27.9899 67.0209 28.1234C66.874 28.2569 66.7021 28.3599 66.5151 28.4265C66.3281 28.493 66.1297 28.5218 65.9315 28.5111C65.7333 28.5005 65.5392 28.4506 65.3604 28.3643C65.1816 28.2781 65.0217 28.1572 64.89 28.0088L63.515 26.5H44C43.337 26.5 42.7011 26.2366 42.2322 25.7678C41.7634 25.2989 41.5 24.663 41.5 24V8C41.5 7.33696 41.7634 6.70107 42.2322 6.23223C42.7011 5.76339 43.337 5.5 44 5.5H44.585C44.4692 5.1733 44.4701 4.81657 44.5876 4.49046C44.7051 4.16435 44.9319 3.88899 45.2294 3.7112C45.527 3.53341 45.8769 3.46415 46.2197 3.5152C46.5626 3.56626 46.8772 3.73447 47.11 3.99125L67.11 25.9912ZM60.7913 23.5L59.4275 22H47.5C47.1022 22 46.7206 21.842 46.4393 21.5607C46.158 21.2794 46 20.8978 46 20.5C46 20.1022 46.158 19.7206 46.4393 19.4393C46.7206 19.158 47.1022 19 47.5 19H56.7L55.3363 17.5H54.5C54.2309 17.4999 53.9669 17.4273 53.7354 17.2901C53.504 17.1528 53.3138 16.9558 53.1847 16.7197C53.0556 16.4836 52.9924 16.2171 53.0017 15.9482C53.011 15.6793 53.0924 15.4179 53.2375 15.1912L47.155 8.5H44.5V23.5H60.7913ZM68 5.5H54.575C54.1772 5.5 53.7956 5.65804 53.5143 5.93934C53.233 6.22064 53.075 6.60218 53.075 7C53.075 7.39783 53.233 7.77936 53.5143 8.06066C53.7956 8.34197 54.1772 8.5 54.575 8.5H67.5V22.8675C67.5 23.2653 67.658 23.6469 67.9393 23.9282C68.2206 24.2095 68.6022 24.3675 69 24.3675C69.3978 24.3675 69.7794 24.2095 70.0607 23.9282C70.342 23.6469 70.5 23.2653 70.5 22.8675V8C70.5 7.33696 70.2366 6.70107 69.7678 6.23223C69.2989 5.76339 68.663 5.5 68 5.5ZM64.5 17.5C64.8978 17.5 65.2794 17.342 65.5607 17.0607C65.842 16.7794 66 16.3978 66 16C66 15.6022 65.842 15.2206 65.5607 14.9393C65.2794 14.658 64.8978 14.5 64.5 14.5H62.7575C62.3597 14.5 61.9781 14.658 61.6968 14.9393C61.4155 15.2206 61.2575 15.6022 61.2575 16C61.2575 16.3978 61.4155 16.7794 61.6968 17.0607C61.9781 17.342 62.3597 17.5 62.7575 17.5H64.5Z" fill="white"/>
</g>
<defs>
<clipPath id="clip0_27_4097">
<rect width="72" height="32" rx="5" fill="white"/>
</clipPath>
</defs>
</svg>
