<svg width="72" height="32" viewBox="0 0 72 32" fill="none" xmlns="http://www.w3.org/2000/svg">
<g clip-path="url(#clip0_27_5676)">
<path d="M21.8294 10.1688C21.4964 8.37802 20.6805 6.71226 19.47 5.35128C18.2594 3.99031 16.7001 2.98582 14.9604 2.44623C13.2207 1.90665 11.3667 1.85247 9.59846 2.28955C7.83022 2.72662 6.21494 3.63835 4.92698 4.92631C3.63902 6.21427 2.72729 7.82955 2.29022 9.59779C1.85314 11.366 1.90732 13.2201 2.4469 14.9598C2.98649 16.6994 3.99098 18.2587 5.35196 19.4693C6.71293 20.6798 8.37869 21.4957 10.1694 21.8288C10.5025 23.6195 11.3184 25.2853 12.5289 26.6462C13.7395 28.0072 15.2987 29.0117 17.0384 29.5513C18.7781 30.0909 20.6322 30.1451 22.4004 29.708C24.1686 29.2709 25.7839 28.3592 27.0719 27.0712C28.3599 25.7833 29.2716 24.168 29.7087 22.3997C30.1457 20.6315 30.0915 18.7775 29.552 17.0378C29.0124 15.2981 28.0079 13.7388 26.6469 12.5282C25.2859 11.3177 23.6202 10.5018 21.8294 10.1688ZM12.0007 20C10.4184 20 8.87172 19.5308 7.55612 18.6518C6.24053 17.7727 5.21515 16.5233 4.60965 15.0615C4.00415 13.5997 3.84572 11.9911 4.1544 10.4393C4.46308 8.88744 5.22501 7.46198 6.34383 6.34316C7.46265 5.22434 8.88811 4.46241 10.44 4.15373C11.9918 3.84505 13.6003 4.00348 15.0622 4.60898C16.524 5.21448 17.7734 6.23986 18.6524 7.55545C19.5315 8.87104 20.0007 10.4178 20.0007 12C19.9984 14.121 19.1548 16.1545 17.655 17.6543C16.1552 19.1541 14.1217 19.9977 12.0007 20Z" fill="white"/>
<path d="M62.25 9.74999C61.8475 7.90883 60.957 6.20993 59.6717 4.83154C58.3865 3.45315 56.7539 2.44609 54.9453 1.91603C53.1368 1.38598 51.2189 1.35246 49.3929 1.819C47.567 2.28553 45.9002 3.23493 44.5676 4.56757C43.2349 5.9002 42.2855 7.56695 41.819 9.39293C41.3525 11.2189 41.386 13.1368 41.916 14.9453C42.4461 16.7539 43.4531 18.3865 44.8315 19.6717C46.2099 20.957 47.9088 21.8475 49.75 22.25C50.1524 24.0912 51.043 25.7901 52.3283 27.1684C53.6135 28.5468 55.2461 29.5539 57.0546 30.084C58.8632 30.614 60.7811 30.6475 62.6071 30.181C64.433 29.7145 66.0998 28.7651 67.4324 27.4324C68.7651 26.0998 69.7145 24.433 70.181 22.6071C70.6475 20.7811 70.614 18.8632 70.084 17.0546C69.5539 15.2461 68.5468 13.6135 67.1684 12.3283C65.7901 11.043 64.0912 10.1524 62.25 9.74999ZM67.5 20C67.4994 20.2777 67.4835 20.5552 67.4525 20.8312L61.9525 15.3312C62.2146 14.546 62.3824 13.7324 62.4525 12.9075C63.9288 13.415 65.2093 14.3718 66.1145 15.6437C67.0197 16.9156 67.5042 18.4389 67.5 20ZM44.5 12C44.5 10.5166 44.9399 9.06658 45.764 7.83322C46.5881 6.59985 47.7594 5.63855 49.1299 5.0709C50.5003 4.50324 52.0083 4.35471 53.4632 4.6441C54.918 4.93349 56.2544 5.6478 57.3033 6.69669C58.3522 7.74559 59.0665 9.08196 59.3559 10.5368C59.6453 11.9917 59.4967 13.4997 58.9291 14.8701C58.3614 16.2406 57.4001 17.4119 56.1668 18.236C54.9334 19.0601 53.4834 19.5 52 19.5C50.0116 19.4977 48.1053 18.7068 46.6992 17.3007C45.2932 15.8947 44.5023 13.9884 44.5 12ZM52.91 22.4575C53.7349 22.3874 54.5485 22.2196 55.3337 21.9575L60.8337 27.4575C60.5568 27.4869 60.2785 27.5011 60 27.5C58.4399 27.504 56.9176 27.02 55.6463 26.1158C54.3749 25.2116 53.4182 23.9325 52.91 22.4575ZM63.9762 26.355L58.135 20.5137C59.0476 19.853 59.8493 19.0513 60.51 18.1387L66.3512 23.98C65.7478 24.9398 64.9361 25.7515 63.9762 26.355Z" fill="white"/>
</g>
<defs>
<clipPath id="clip0_27_5676">
<rect width="72" height="32" rx="5" fill="white"/>
</clipPath>
</defs>
</svg>
