<svg width="72" height="32" viewBox="0 0 72 32" fill="none" xmlns="http://www.w3.org/2000/svg">
<g clip-path="url(#clip0_27_6820)">
<path d="M19.5 22V19H22V21C22 21.2652 21.8946 21.5196 21.7071 21.7071C21.5196 21.8946 21.2652 22 21 22H19.5ZM17.5 22V19H14.5V22H17.5ZM22 11C22 10.7348 21.8946 10.4804 21.7071 10.2929C21.5196 10.1054 21.2652 10 21 10H11C10.7348 10 10.4804 10.1054 10.2929 10.2929C10.1054 10.4804 10 10.7348 10 11V17H22V11ZM19 3H13C10.6131 3 8.32387 3.94821 6.63604 5.63604C4.94821 7.32387 4 9.61305 4 12V26C4 26.2652 4.10536 26.5196 4.29289 26.7071C4.48043 26.8946 4.73478 27 5 27H9.5725C9.66539 27.0001 9.75646 26.9743 9.8355 26.9255C9.91455 26.8767 9.97843 26.8068 10.02 26.7237L11.3825 24H11C10.2044 24 9.44129 23.6839 8.87868 23.1213C8.31607 22.5587 8 21.7956 8 21V11C8 10.2044 8.31607 9.44129 8.87868 8.87868C9.44129 8.31607 10.2044 8 11 8H21C21.7956 8 22.5587 8.31607 23.1213 8.87868C23.6839 9.44129 24 10.2044 24 11V21C24 21.7956 23.6839 22.5587 23.1213 23.1213C22.5587 23.6839 21.7956 24 21 24H20.6175L21.98 26.7237C22.0216 26.8068 22.0855 26.8767 22.1645 26.9255C22.2435 26.9743 22.3346 27.0001 22.4275 27H27C27.2652 27 27.5196 26.8946 27.7071 26.7071C27.8946 26.5196 28 26.2652 28 26V12C28 9.61305 27.0518 7.32387 25.364 5.63604C23.6761 3.94821 21.3869 3 19 3ZM18.3825 24H13.6175L12.48 26.2763C12.4418 26.3525 12.4238 26.4373 12.4276 26.5224C12.4315 26.6076 12.457 26.6904 12.5019 26.7629C12.5467 26.8355 12.6094 26.8953 12.6839 26.9368C12.7584 26.9783 12.8422 27.0001 12.9275 27H19.0725C19.1578 27.0001 19.2416 26.9783 19.3161 26.9368C19.3906 26.8953 19.4533 26.8355 19.4981 26.7629C19.543 26.6904 19.5685 26.6076 19.5724 26.5224C19.5762 26.4373 19.5582 26.3525 19.52 26.2763L18.3825 24ZM10 21C10 21.2652 10.1054 21.5196 10.2929 21.7071C10.4804 21.8946 10.7348 22 11 22H12.5V19H10V21Z" fill="white"/>
<path d="M68.5 12V26C68.5 26.3978 68.342 26.7794 68.0607 27.0607C67.7794 27.342 67.3978 27.5 67 27.5C66.6022 27.5 66.2206 27.342 65.9393 27.0607C65.658 26.7794 65.5 26.3978 65.5 26V12C65.498 10.2767 64.8126 8.62455 63.594 7.406C62.3754 6.18744 60.7233 5.50199 59 5.5H53C51.2767 5.50199 49.6246 6.18744 48.406 7.406C47.1874 8.62455 46.502 10.2767 46.5 12V26C46.5 26.3978 46.342 26.7794 46.0607 27.0607C45.7794 27.342 45.3978 27.5 45 27.5C44.6022 27.5 44.2206 27.342 43.9393 27.0607C43.658 26.7794 43.5 26.3978 43.5 26V12C43.5026 9.48126 44.5044 7.06643 46.2854 5.28541C48.0664 3.50439 50.4813 2.50265 53 2.5H59C61.5187 2.50265 63.9336 3.50439 65.7146 5.28541C67.4956 7.06643 68.4974 9.48126 68.5 12ZM63.5 12V21C63.4998 21.7287 63.2722 22.4392 62.8489 23.0323C62.4257 23.6254 61.8278 24.0717 61.1388 24.3088L61.3888 24.9425C61.5366 25.3118 61.5317 25.7247 61.3751 26.0904C61.2185 26.4561 60.9231 26.7446 60.5537 26.8925C60.3777 26.9634 60.1898 26.9999 60 27C59.7003 27 59.4075 26.9102 59.1593 26.7422C58.9111 26.5742 58.7189 26.3357 58.6075 26.0575L57.9825 24.5H54.015L53.39 26.0575C53.2788 26.3353 53.087 26.5736 52.8393 26.7415C52.5916 26.9095 52.2993 26.9995 52 27C51.809 27.0004 51.6197 26.9639 51.4425 26.8925C51.0732 26.7446 50.7778 26.4561 50.6212 26.0904C50.4646 25.7247 50.4597 25.3118 50.6075 24.9425L50.8575 24.3088C50.1692 24.071 49.5721 23.6245 49.1495 23.0314C48.727 22.4384 48.4999 21.7282 48.5 21V12C48.5 11.0717 48.8687 10.1815 49.5251 9.52513C50.1815 8.86875 51.0717 8.5 52 8.5H60C60.9283 8.5 61.8185 8.86875 62.4749 9.52513C63.1313 10.1815 63.5 11.0717 63.5 12ZM51.5 12V16.5H60.5V12C60.5 11.8674 60.4473 11.7402 60.3536 11.6464C60.2598 11.5527 60.1326 11.5 60 11.5H52C51.8674 11.5 51.7402 11.5527 51.6464 11.6464C51.5527 11.7402 51.5 11.8674 51.5 12ZM60.5 21V19.5H57.5V21.5H60C60.1326 21.5 60.2598 21.4473 60.3536 21.3536C60.4473 21.2598 60.5 21.1326 60.5 21ZM54.5 21.5V19.5H51.5V21C51.5 21.1326 51.5527 21.2598 51.6464 21.3536C51.7402 21.4473 51.8674 21.5 52 21.5H54.5Z" fill="white"/>
</g>
<defs>
<clipPath id="clip0_27_6820">
<rect width="72" height="32" rx="5" fill="white"/>
</clipPath>
</defs>
</svg>
