<svg width="72" height="32" viewBox="0 0 72 32" fill="none" xmlns="http://www.w3.org/2000/svg">
<g clip-path="url(#clip0_27_6825)">
<path d="M27 7H22V6C22 5.20435 21.6839 4.44129 21.1213 3.87868C20.5587 3.31607 19.7956 3 19 3H13C12.2044 3 11.4413 3.31607 10.8787 3.87868C10.3161 4.44129 10 5.20435 10 6V7H5C4.46957 7 3.96086 7.21071 3.58579 7.58579C3.21071 7.96086 3 8.46957 3 9V25C3 25.5304 3.21071 26.0391 3.58579 26.4142C3.96086 26.7893 4.46957 27 5 27H27C27.5304 27 28.0391 26.7893 28.4142 26.4142C28.7893 26.0391 29 25.5304 29 25V9C29 8.46957 28.7893 7.96086 28.4142 7.58579C28.0391 7.21071 27.5304 7 27 7ZM12 9H20V25H12V9ZM12 6C12 5.73478 12.1054 5.48043 12.2929 5.29289C12.4804 5.10536 12.7348 5 13 5H19C19.2652 5 19.5196 5.10536 19.7071 5.29289C19.8946 5.48043 20 5.73478 20 6V7H12V6Z" fill="white"/>
<path d="M67 6H62.5V5C62.5 4.07174 62.1313 3.1815 61.4749 2.52513C60.8185 1.86875 59.9283 1.5 59 1.5H53C52.0717 1.5 51.1815 1.86875 50.5251 2.52513C49.8687 3.1815 49.5 4.07174 49.5 5V6H45C44.337 6 43.7011 6.26339 43.2322 6.73223C42.7634 7.20107 42.5 7.83696 42.5 8.5V24.5C42.5 25.163 42.7634 25.7989 43.2322 26.2678C43.7011 26.7366 44.337 27 45 27H67C67.663 27 68.2989 26.7366 68.7678 26.2678C69.2366 25.7989 69.5 25.163 69.5 24.5V8.5C69.5 7.83696 69.2366 7.20107 68.7678 6.73223C68.2989 6.26339 67.663 6 67 6ZM52.5 5C52.5 4.86739 52.5527 4.74021 52.6464 4.64645C52.7402 4.55268 52.8674 4.5 53 4.5H59C59.1326 4.5 59.2598 4.55268 59.3536 4.64645C59.4473 4.74021 59.5 4.86739 59.5 5V6H52.5V5ZM59.5 9V24H52.5V9H59.5ZM45.5 9H49.5V24H45.5V9ZM66.5 24H62.5V9H66.5V24Z" fill="white"/>
</g>
<defs>
<clipPath id="clip0_27_6825">
<rect width="72" height="32" rx="5" fill="white"/>
</clipPath>
</defs>
</svg>
