<svg width="72" height="32" viewBox="0 0 72 32" fill="none" xmlns="http://www.w3.org/2000/svg">
<g clip-path="url(#clip0_27_6830)">
<path d="M24 6H21V3C21 2.20435 20.6839 1.44129 20.1213 0.87868C19.5587 0.31607 18.7956 0 18 0L14 0C13.2044 0 12.4413 0.31607 11.8787 0.87868C11.3161 1.44129 11 2.20435 11 3V6H8C7.46957 6 6.96086 6.21071 6.58579 6.58579C6.21071 6.96086 6 7.46957 6 8V26C6 26.5304 6.21071 27.0391 6.58579 27.4142C6.96086 27.7893 7.46957 28 8 28H10V30C10 30.2652 10.1054 30.5196 10.2929 30.7071C10.4804 30.8946 10.7348 31 11 31C11.2652 31 11.5196 30.8946 11.7071 30.7071C11.8946 30.5196 12 30.2652 12 30V28H20V30C20 30.2652 20.1054 30.5196 20.2929 30.7071C20.4804 30.8946 20.7348 31 21 31C21.2652 31 21.5196 30.8946 21.7071 30.7071C21.8946 30.5196 22 30.2652 22 30V28H24C24.5304 28 25.0391 27.7893 25.4142 27.4142C25.7893 27.0391 26 26.5304 26 26V8C26 7.46957 25.7893 6.96086 25.4142 6.58579C25.0391 6.21071 24.5304 6 24 6ZM12 24C12 24.2652 11.8946 24.5196 11.7071 24.7071C11.5196 24.8946 11.2652 25 11 25C10.7348 25 10.4804 24.8946 10.2929 24.7071C10.1054 24.5196 10 24.2652 10 24V10C10 9.73478 10.1054 9.48043 10.2929 9.29289C10.4804 9.10536 10.7348 9 11 9C11.2652 9 11.5196 9.10536 11.7071 9.29289C11.8946 9.48043 12 9.73478 12 10V24ZM17 24C17 24.2652 16.8946 24.5196 16.7071 24.7071C16.5196 24.8946 16.2652 25 16 25C15.7348 25 15.4804 24.8946 15.2929 24.7071C15.1054 24.5196 15 24.2652 15 24V10C15 9.73478 15.1054 9.48043 15.2929 9.29289C15.4804 9.10536 15.7348 9 16 9C16.2652 9 16.5196 9.10536 16.7071 9.29289C16.8946 9.48043 17 9.73478 17 10V24ZM19 6H13V3C13 2.73478 13.1054 2.48043 13.2929 2.29289C13.4804 2.10536 13.7348 2 14 2H18C18.2652 2 18.5196 2.10536 18.7071 2.29289C18.8946 2.48043 19 2.73478 19 3V6ZM22 24C22 24.2652 21.8946 24.5196 21.7071 24.7071C21.5196 24.8946 21.2652 25 21 25C20.7348 25 20.4804 24.8946 20.2929 24.7071C20.1054 24.5196 20 24.2652 20 24V10C20 9.73478 20.1054 9.48043 20.2929 9.29289C20.4804 9.10536 20.7348 9 21 9C21.2652 9 21.5196 9.10536 21.7071 9.29289C21.8946 9.48043 22 9.73478 22 10V24Z" fill="white"/>
<path d="M54.5 12V22C54.5 22.3978 54.342 22.7794 54.0607 23.0607C53.7794 23.342 53.3978 23.5 53 23.5C52.6022 23.5 52.2206 23.342 51.9393 23.0607C51.658 22.7794 51.5 22.3978 51.5 22V12C51.5 11.6022 51.658 11.2206 51.9393 10.9393C52.2206 10.658 52.6022 10.5 53 10.5C53.3978 10.5 53.7794 10.658 54.0607 10.9393C54.342 11.2206 54.5 11.6022 54.5 12ZM57.5 12V22C57.5 22.3978 57.658 22.7794 57.9393 23.0607C58.2206 23.342 58.6022 23.5 59 23.5C59.3978 23.5 59.7794 23.342 60.0607 23.0607C60.342 22.7794 60.5 22.3978 60.5 22V12C60.5 11.6022 60.342 11.2206 60.0607 10.9393C59.7794 10.658 59.3978 10.5 59 10.5C58.6022 10.5 58.2206 10.658 57.9393 10.9393C57.658 11.2206 57.5 11.6022 57.5 12ZM66.5 8V26C66.5 26.663 66.2366 27.2989 65.7678 27.7678C65.2989 28.2366 64.663 28.5 64 28.5H62.5V30C62.5 30.3978 62.342 30.7794 62.0607 31.0607C61.7794 31.342 61.3978 31.5 61 31.5C60.6022 31.5 60.2206 31.342 59.9393 31.0607C59.658 30.7794 59.5 30.3978 59.5 30V28.5H52.5V30C52.5 30.3978 52.342 30.7794 52.0607 31.0607C51.7794 31.342 51.3978 31.5 51 31.5C50.6022 31.5 50.2206 31.342 49.9393 31.0607C49.658 30.7794 49.5 30.3978 49.5 30V28.5H48C47.337 28.5 46.7011 28.2366 46.2322 27.7678C45.7634 27.2989 45.5 26.663 45.5 26V8C45.5 7.33696 45.7634 6.70107 46.2322 6.23223C46.7011 5.76339 47.337 5.5 48 5.5H50.5V3.5C50.5 2.57174 50.8687 1.6815 51.5251 1.02513C52.1815 0.368749 53.0717 0 54 0L58 0C58.9283 0 59.8185 0.368749 60.4749 1.02513C61.1313 1.6815 61.5 2.57174 61.5 3.5V5.5H64C64.663 5.5 65.2989 5.76339 65.7678 6.23223C66.2366 6.70107 66.5 7.33696 66.5 8ZM53.5 5.5H58.5V3.5C58.5 3.36739 58.4473 3.24021 58.3536 3.14645C58.2598 3.05268 58.1326 3 58 3H54C53.8674 3 53.7402 3.05268 53.6464 3.14645C53.5527 3.24021 53.5 3.36739 53.5 3.5V5.5ZM63.5 8.5H48.5V25.5H63.5V8.5Z" fill="white"/>
</g>
<defs>
<clipPath id="clip0_27_6830">
<rect width="72" height="32" rx="5" fill="white"/>
</clipPath>
</defs>
</svg>
