<svg width="72" height="32" viewBox="0 0 72 32" fill="none" xmlns="http://www.w3.org/2000/svg">
<g clip-path="url(#clip0_27_2284)">
<path d="M15 5V2C15 1.73478 15.1054 1.48043 15.2929 1.29289C15.4804 1.10536 15.7348 1 16 1C16.2652 1 16.5196 1.10536 16.7071 1.29289C16.8946 1.48043 17 1.73478 17 2V5C17 5.26522 16.8946 5.51957 16.7071 5.70711C16.5196 5.89464 16.2652 6 16 6C15.7348 6 15.4804 5.89464 15.2929 5.70711C15.1054 5.51957 15 5.26522 15 5ZM16 8C14.4177 8 12.871 8.46919 11.5554 9.34824C10.2398 10.2273 9.21447 11.4767 8.60896 12.9385C8.00346 14.4003 7.84504 16.0089 8.15372 17.5607C8.4624 19.1126 9.22433 20.538 10.3431 21.6569C11.462 22.7757 12.8874 23.5376 14.4393 23.8463C15.9911 24.155 17.5997 23.9965 19.0615 23.391C20.5233 22.7855 21.7727 21.7602 22.6518 20.4446C23.5308 19.129 24 17.5823 24 16C23.9977 13.879 23.1541 11.8455 21.6543 10.3457C20.1545 8.84591 18.121 8.00232 16 8ZM7.2925 8.7075C7.48014 8.89514 7.73464 9.00056 8 9.00056C8.26536 9.00056 8.51986 8.89514 8.7075 8.7075C8.89514 8.51986 9.00056 8.26536 9.00056 8C9.00056 7.73464 8.89514 7.48014 8.7075 7.2925L6.7075 5.2925C6.51986 5.10486 6.26536 4.99944 6 4.99944C5.73464 4.99944 5.48014 5.10486 5.2925 5.2925C5.10486 5.48014 4.99944 5.73464 4.99944 6C4.99944 6.26536 5.10486 6.51986 5.2925 6.7075L7.2925 8.7075ZM7.2925 23.2925L5.2925 25.2925C5.10486 25.4801 4.99944 25.7346 4.99944 26C4.99944 26.2654 5.10486 26.5199 5.2925 26.7075C5.48014 26.8951 5.73464 27.0006 6 27.0006C6.26536 27.0006 6.51986 26.8951 6.7075 26.7075L8.7075 24.7075C8.80041 24.6146 8.87411 24.5043 8.92439 24.3829C8.97468 24.2615 9.00056 24.1314 9.00056 24C9.00056 23.8686 8.97468 23.7385 8.92439 23.6171C8.87411 23.4957 8.80041 23.3854 8.7075 23.2925C8.61459 23.1996 8.50429 23.1259 8.3829 23.0756C8.2615 23.0253 8.13139 22.9994 8 22.9994C7.86861 22.9994 7.7385 23.0253 7.6171 23.0756C7.49571 23.1259 7.38541 23.1996 7.2925 23.2925ZM24 9C24.1314 9.0001 24.2615 8.97432 24.3829 8.92414C24.5042 8.87395 24.6146 8.80033 24.7075 8.7075L26.7075 6.7075C26.8951 6.51986 27.0006 6.26536 27.0006 6C27.0006 5.73464 26.8951 5.48014 26.7075 5.2925C26.5199 5.10486 26.2654 4.99944 26 4.99944C25.7346 4.99944 25.4801 5.10486 25.2925 5.2925L23.2925 7.2925C23.1525 7.43236 23.0571 7.61061 23.0185 7.80469C22.9798 7.99878 22.9996 8.19997 23.0754 8.38279C23.1511 8.56561 23.2794 8.72185 23.444 8.83172C23.6086 8.94159 23.8021 9.00016 24 9ZM24.7075 23.2925C24.5199 23.1049 24.2654 22.9994 24 22.9994C23.7346 22.9994 23.4801 23.1049 23.2925 23.2925C23.1049 23.4801 22.9994 23.7346 22.9994 24C22.9994 24.2654 23.1049 24.5199 23.2925 24.7075L25.2925 26.7075C25.3854 26.8004 25.4957 26.8741 25.6171 26.9244C25.7385 26.9747 25.8686 27.0006 26 27.0006C26.1314 27.0006 26.2615 26.9747 26.3829 26.9244C26.5043 26.8741 26.6146 26.8004 26.7075 26.7075C26.8004 26.6146 26.8741 26.5043 26.9244 26.3829C26.9747 26.2615 27.0006 26.1314 27.0006 26C27.0006 25.8686 26.9747 25.7385 26.9244 25.6171C26.8741 25.4957 26.8004 25.3854 26.7075 25.2925L24.7075 23.2925ZM6 16C6 15.7348 5.89464 15.4804 5.70711 15.2929C5.51957 15.1054 5.26522 15 5 15H2C1.73478 15 1.48043 15.1054 1.29289 15.2929C1.10536 15.4804 1 15.7348 1 16C1 16.2652 1.10536 16.5196 1.29289 16.7071C1.48043 16.8946 1.73478 17 2 17H5C5.26522 17 5.51957 16.8946 5.70711 16.7071C5.89464 16.5196 6 16.2652 6 16ZM16 26C15.7348 26 15.4804 26.1054 15.2929 26.2929C15.1054 26.4804 15 26.7348 15 27V30C15 30.2652 15.1054 30.5196 15.2929 30.7071C15.4804 30.8946 15.7348 31 16 31C16.2652 31 16.5196 30.8946 16.7071 30.7071C16.8946 30.5196 17 30.2652 17 30V27C17 26.7348 16.8946 26.4804 16.7071 26.2929C16.5196 26.1054 16.2652 26 16 26ZM30 15H27C26.7348 15 26.4804 15.1054 26.2929 15.2929C26.1054 15.4804 26 15.7348 26 16C26 16.2652 26.1054 16.5196 26.2929 16.7071C26.4804 16.8946 26.7348 17 27 17H30C30.2652 17 30.5196 16.8946 30.7071 16.7071C30.8946 16.5196 31 16.2652 31 16C31 15.7348 30.8946 15.4804 30.7071 15.2929C30.5196 15.1054 30.2652 15 30 15Z" fill="white"/>
<path d="M54.5 4.5V2.5C54.5 2.10218 54.658 1.72064 54.9393 1.43934C55.2206 1.15804 55.6022 1 56 1C56.3978 1 56.7794 1.15804 57.0607 1.43934C57.342 1.72064 57.5 2.10218 57.5 2.5V4.5C57.5 4.89782 57.342 5.27936 57.0607 5.56066C56.7794 5.84196 56.3978 6 56 6C55.6022 6 55.2206 5.84196 54.9393 5.56066C54.658 5.27936 54.5 4.89782 54.5 4.5ZM64.5 16C64.5 17.6811 64.0015 19.3245 63.0675 20.7223C62.1335 22.1202 60.806 23.2096 59.2528 23.853C57.6996 24.4963 55.9906 24.6646 54.3417 24.3367C52.6929 24.0087 51.1783 23.1992 49.9896 22.0104C48.8008 20.8217 47.9913 19.3071 47.6633 17.6583C47.3354 16.0094 47.5037 14.3004 48.147 12.7472C48.7904 11.194 49.8798 9.8665 51.2777 8.93251C52.6755 7.99852 54.3189 7.5 56 7.5C58.2536 7.50232 60.4143 8.39859 62.0078 9.99215C63.6014 11.5857 64.4977 13.7464 64.5 16ZM61.5 16C61.5 14.9122 61.1774 13.8488 60.5731 12.9444C59.9687 12.0399 59.1098 11.3349 58.1048 10.9187C57.0998 10.5024 55.9939 10.3935 54.927 10.6057C53.8601 10.8179 52.8801 11.3417 52.1109 12.1109C51.3417 12.8801 50.8179 13.8601 50.6057 14.927C50.3935 15.9939 50.5024 17.0998 50.9187 18.1048C51.3349 19.1098 52.0399 19.9687 52.9444 20.5731C53.8488 21.1774 54.9122 21.5 56 21.5C57.4582 21.4983 58.8562 20.9184 59.8873 19.8873C60.9184 18.8562 61.4983 17.4582 61.5 16ZM46.4387 8.56125C46.5783 8.70078 46.7439 8.81146 46.9262 8.88697C47.1085 8.96249 47.3039 9.00135 47.5012 9.00135C47.6986 9.00135 47.894 8.96249 48.0763 8.88697C48.2586 8.81146 48.4242 8.70078 48.5638 8.56125C48.7033 8.42172 48.814 8.25607 48.8895 8.07377C48.965 7.89147 49.0039 7.69607 49.0039 7.49875C49.0039 7.30143 48.965 7.10603 48.8895 6.92373C48.814 6.74143 48.7033 6.57578 48.5638 6.43625L47.0637 4.93625C46.782 4.65446 46.3998 4.49615 46.0012 4.49615C45.6027 4.49615 45.2205 4.65446 44.9387 4.93625C44.657 5.21804 44.4986 5.60024 44.4986 5.99875C44.4986 6.39726 44.657 6.77946 44.9387 7.06125L46.4387 8.56125ZM46.4387 23.4363L44.9387 24.9363C44.7992 25.0758 44.6885 25.2414 44.613 25.4237C44.5375 25.606 44.4986 25.8014 44.4986 25.9988C44.4986 26.1961 44.5375 26.3915 44.613 26.5738C44.6885 26.7561 44.7992 26.9217 44.9387 27.0613C45.2205 27.343 45.6027 27.5014 46.0012 27.5014C46.1986 27.5014 46.394 27.4625 46.5763 27.387C46.7586 27.3115 46.9242 27.2008 47.0637 27.0613L48.5638 25.5613C48.8455 25.2795 49.0039 24.8973 49.0039 24.4988C49.0039 24.1002 48.8455 23.718 48.5638 23.4363C48.282 23.1545 47.8998 22.9961 47.5012 22.9961C47.1027 22.9961 46.7205 23.1545 46.4387 23.4363ZM64.5 9C64.697 9.00015 64.8922 8.96149 65.0743 8.8862C65.2564 8.81092 65.4218 8.7005 65.5613 8.56125L67.0613 7.06125C67.2008 6.92172 67.3115 6.75607 67.387 6.57377C67.4625 6.39147 67.5014 6.19607 67.5014 5.99875C67.5014 5.80143 67.4625 5.60603 67.387 5.42373C67.3115 5.24143 67.2008 5.07578 67.0613 4.93625C66.9217 4.79672 66.7561 4.68604 66.5738 4.61053C66.3915 4.53501 66.1961 4.49615 65.9988 4.49615C65.8014 4.49615 65.606 4.53501 65.4237 4.61053C65.2414 4.68604 65.0758 4.79672 64.9363 4.93625L63.4363 6.43625C63.2252 6.64605 63.0814 6.91388 63.023 7.20567C62.9646 7.49745 62.9943 7.80002 63.1083 8.07487C63.2224 8.34973 63.4156 8.58445 63.6634 8.74919C63.9112 8.91392 64.2024 9.00123 64.5 9ZM65.5613 23.4387C65.2795 23.157 64.8973 22.9986 64.4988 22.9986C64.1002 22.9986 63.718 23.157 63.4363 23.4387C63.1545 23.7205 62.9961 24.1027 62.9961 24.5012C62.9961 24.8998 63.1545 25.282 63.4363 25.5637L64.9363 27.0637C65.218 27.3455 65.6002 27.5039 65.9988 27.5039C66.3973 27.5039 66.7795 27.3455 67.0613 27.0637C67.343 26.782 67.5014 26.3998 67.5014 26.0012C67.5014 25.6027 67.343 25.2205 67.0613 24.9387L65.5613 23.4387ZM46 16C46 15.6022 45.842 15.2206 45.5607 14.9393C45.2794 14.658 44.8978 14.5 44.5 14.5H42.5C42.1022 14.5 41.7206 14.658 41.4393 14.9393C41.158 15.2206 41 15.6022 41 16C41 16.3978 41.158 16.7794 41.4393 17.0607C41.7206 17.342 42.1022 17.5 42.5 17.5H44.5C44.8978 17.5 45.2794 17.342 45.5607 17.0607C45.842 16.7794 46 16.3978 46 16ZM56 26C55.6022 26 55.2206 26.158 54.9393 26.4393C54.658 26.7206 54.5 27.1022 54.5 27.5V29.5C54.5 29.8978 54.658 30.2794 54.9393 30.5607C55.2206 30.842 55.6022 31 56 31C56.3978 31 56.7794 30.842 57.0607 30.5607C57.342 30.2794 57.5 29.8978 57.5 29.5V27.5C57.5 27.1022 57.342 26.7206 57.0607 26.4393C56.7794 26.158 56.3978 26 56 26ZM69.5 14.5H67.5C67.1022 14.5 66.7206 14.658 66.4393 14.9393C66.158 15.2206 66 15.6022 66 16C66 16.3978 66.158 16.7794 66.4393 17.0607C66.7206 17.342 67.1022 17.5 67.5 17.5H69.5C69.8978 17.5 70.2794 17.342 70.5607 17.0607C70.842 16.7794 71 16.3978 71 16C71 15.6022 70.842 15.2206 70.5607 14.9393C70.2794 14.658 69.8978 14.5 69.5 14.5Z" fill="white"/>
</g>
<defs>
<clipPath id="clip0_27_2284">
<rect width="72" height="32" rx="5" fill="white"/>
</clipPath>
</defs>
</svg>
