<svg width="72" height="32" viewBox="0 0 72 32" fill="none" xmlns="http://www.w3.org/2000/svg">
<g clip-path="url(#clip0_27_1532)">
<path d="M25 5C24.7348 5 24.4804 5.10536 24.2929 5.29289C24.1054 5.48043 24 5.73478 24 6C24 6.26522 24.1054 6.51957 24.2929 6.70711C24.4804 6.89464 24.7348 7 25 7C25.5304 7 26.0391 7.21071 26.4142 7.58579C26.7893 7.96086 27 8.46957 27 9V16H5V9C5 8.46957 5.21071 7.96086 5.58579 7.58579C5.96086 7.21071 6.46957 7 7 7C7.26522 7 7.51957 6.89464 7.70711 6.70711C7.89464 6.51957 8 6.26522 8 6C8 5.73478 7.89464 5.48043 7.70711 5.29289C7.51957 5.10536 7.26522 5 7 5C5.93913 5 4.92172 5.42143 4.17157 6.17157C3.42143 6.92172 3 7.93913 3 9V20.5C3 21.9587 3.57946 23.3576 4.61091 24.3891C5.64236 25.4205 7.04131 26 8.5 26C9.95869 26 11.3576 25.4205 12.3891 24.3891C13.4205 23.3576 14 21.9587 14 20.5V18H18V20.5C18 21.9587 18.5795 23.3576 19.6109 24.3891C20.6424 25.4205 22.0413 26 23.5 26C24.9587 26 26.3576 25.4205 27.3891 24.3891C28.4205 23.3576 29 21.9587 29 20.5V9C29 7.93913 28.5786 6.92172 27.8284 6.17157C27.0783 5.42143 26.0609 5 25 5ZM11.4025 22.4025C11.215 22.5899 10.9607 22.6952 10.6956 22.6952C10.4305 22.6952 10.1763 22.5899 9.98875 22.4025L7.2925 19.7075C7.10486 19.5199 6.99944 19.2654 6.99944 19C6.99944 18.7346 7.10486 18.4801 7.2925 18.2925C7.48014 18.1049 7.73464 17.9994 8 17.9994C8.26536 17.9994 8.51986 18.1049 8.7075 18.2925L11.4025 20.9888C11.5899 21.1763 11.6952 21.4305 11.6952 21.6956C11.6952 21.9607 11.5899 22.215 11.4025 22.4025ZM26.4025 22.4025C26.215 22.5899 25.9607 22.6952 25.6956 22.6952C25.4305 22.6952 25.1763 22.5899 24.9888 22.4025L22.2925 19.7075C22.1049 19.5199 21.9994 19.2654 21.9994 19C21.9994 18.7346 22.1049 18.4801 22.2925 18.2925C22.4801 18.1049 22.7346 17.9994 23 17.9994C23.2654 17.9994 23.5199 18.1049 23.7075 18.2925L26.4025 20.9888C26.5899 21.1763 26.6952 21.4305 26.6952 21.6956C26.6952 21.9607 26.5899 22.215 26.4025 22.4025Z" fill="white"/>
<path d="M65 4.5C64.6022 4.5 64.2206 4.65804 63.9393 4.93934C63.658 5.22064 63.5 5.60218 63.5 6C63.5 6.39782 63.658 6.77936 63.9393 7.06066C64.2206 7.34196 64.6022 7.5 65 7.5C65.3978 7.5 65.7794 7.65804 66.0607 7.93934C66.342 8.22064 66.5 8.60218 66.5 9V15.5H45.5V9C45.5 8.60218 45.658 8.22064 45.9393 7.93934C46.2206 7.65804 46.6022 7.5 47 7.5C47.3978 7.5 47.7794 7.34196 48.0607 7.06066C48.342 6.77936 48.5 6.39782 48.5 6C48.5 5.60218 48.342 5.22064 48.0607 4.93934C47.7794 4.65804 47.3978 4.5 47 4.5C45.8065 4.5 44.6619 4.97411 43.818 5.81802C42.9741 6.66193 42.5 7.80653 42.5 9V20.5C42.5 22.0913 43.1321 23.6174 44.2574 24.7426C45.3826 25.8679 46.9087 26.5 48.5 26.5C50.0913 26.5 51.6174 25.8679 52.7426 24.7426C53.8679 23.6174 54.5 22.0913 54.5 20.5V18.5H57.5V20.5C57.5 22.0913 58.1321 23.6174 59.2574 24.7426C60.3826 25.8679 61.9087 26.5 63.5 26.5C65.0913 26.5 66.6174 25.8679 67.7426 24.7426C68.8679 23.6174 69.5 22.0913 69.5 20.5V9C69.5 7.80653 69.0259 6.66193 68.182 5.81802C67.3381 4.97411 66.1935 4.5 65 4.5ZM48.5 23.5C47.7044 23.5 46.9413 23.1839 46.3787 22.6213C45.8161 22.0587 45.5 21.2956 45.5 20.5V19.375L49.4675 23.3425C49.1559 23.4479 48.829 23.5012 48.5 23.5ZM51.5 20.5C51.4995 20.6925 51.4811 20.8846 51.445 21.0737L48.875 18.5H51.5V20.5ZM63.5 23.5C62.7044 23.5 61.9413 23.1839 61.3787 22.6213C60.8161 22.0587 60.5 21.2956 60.5 20.5V19.375L64.4675 23.3425C64.1559 23.4479 63.829 23.5012 63.5 23.5ZM66.5 20.5C66.4995 20.6925 66.4811 20.8846 66.445 21.0737L63.875 18.5H66.5V20.5Z" fill="white"/>
</g>
<defs>
<clipPath id="clip0_27_1532">
<rect width="72" height="32" rx="5" fill="white"/>
</clipPath>
</defs>
</svg>
