<svg width="72" height="32" viewBox="0 0 72 32" fill="none" xmlns="http://www.w3.org/2000/svg">
<g clip-path="url(#clip0_27_2294)">
<path d="M31 20C31 20.2652 30.8946 20.5196 30.7071 20.7071C30.5196 20.8946 30.2652 21 30 21H2C1.73478 21 1.48043 20.8946 1.29289 20.7071C1.10536 20.5196 1 20.2652 1 20C1 19.7348 1.10536 19.4804 1.29289 19.2929C1.48043 19.1054 1.73478 19 2 19H7.05625C7.01934 18.6679 7.00056 18.3341 7 18C7 15.6131 7.94821 13.3239 9.63604 11.636C11.3239 9.94821 13.6131 9 16 9C18.3869 9 20.6761 9.94821 22.364 11.636C24.0518 13.3239 25 15.6131 25 18C24.9994 18.3341 24.9807 18.6679 24.9438 19H30C30.2652 19 30.5196 19.1054 30.7071 19.2929C30.8946 19.4804 31 19.7348 31 20ZM26 24H6C5.73478 24 5.48043 24.1054 5.29289 24.2929C5.10536 24.4804 5 24.7348 5 25C5 25.2652 5.10536 25.5196 5.29289 25.7071C5.48043 25.8946 5.73478 26 6 26H26C26.2652 26 26.5196 25.8946 26.7071 25.7071C26.8946 25.5196 27 25.2652 27 25C27 24.7348 26.8946 24.4804 26.7071 24.2929C26.5196 24.1054 26.2652 24 26 24ZM10.105 7.4475C10.1638 7.56503 10.2451 7.66984 10.3444 7.75594C10.4436 7.84204 10.5589 7.90774 10.6836 7.94929C10.8082 7.99085 10.9399 8.00744 11.0709 7.99812C11.202 7.98881 11.33 7.95377 11.4475 7.895C11.565 7.83623 11.6698 7.75489 11.7559 7.65562C11.842 7.55635 11.9077 7.44109 11.9493 7.31643C11.9908 7.19177 12.0074 7.06014 11.9981 6.92907C11.9888 6.79799 11.9538 6.67003 11.895 6.5525L10.895 4.5525C10.7763 4.31513 10.5682 4.13463 10.3164 4.05071C10.0647 3.96679 9.78987 3.98632 9.5525 4.105C9.31513 4.22368 9.13463 4.4318 9.05071 4.68357C8.96679 4.93534 8.98632 5.21013 9.105 5.4475L10.105 7.4475ZM2.5525 12.895L4.5525 13.895C4.7897 14.0137 5.06434 14.0333 5.31599 13.9495C5.56764 13.8657 5.77569 13.6853 5.89437 13.4481C6.01306 13.2109 6.03265 12.9363 5.94885 12.6846C5.86504 12.433 5.6847 12.2249 5.4475 12.1062L3.4475 11.1063C3.33005 11.0475 3.20217 11.0124 3.07117 11.0031C2.94017 10.9937 2.80862 11.0103 2.68401 11.0518C2.55941 11.0933 2.4442 11.1589 2.34496 11.2449C2.24572 11.3309 2.16439 11.4357 2.10562 11.5531C2.04686 11.6706 2.0118 11.7985 2.00245 11.9295C1.99311 12.0605 2.00965 12.192 2.05115 12.3166C2.09265 12.4412 2.15828 12.5564 2.2443 12.6557C2.33032 12.7549 2.43505 12.8362 2.5525 12.895ZM27 14C27.1549 14 27.3076 13.9641 27.4463 13.895L29.4463 12.895C29.5637 12.8362 29.6684 12.7549 29.7544 12.6557C29.8405 12.5564 29.9061 12.4412 29.9476 12.3166C29.9891 12.192 30.0056 12.0605 29.9963 11.9295C29.9869 11.7985 29.9519 11.6706 29.8931 11.5531C29.8344 11.4357 29.753 11.3309 29.6538 11.2449C29.5546 11.1589 29.4393 11.0933 29.3147 11.0518C29.1901 11.0103 29.0586 10.9937 28.9276 11.0031C28.7966 11.0124 28.6687 11.0475 28.5513 11.1063L26.5513 12.1062C26.35 12.2072 26.1888 12.3732 26.0936 12.5772C25.9984 12.7813 25.9748 13.0115 26.0268 13.2306C26.0787 13.4497 26.203 13.6448 26.3796 13.7845C26.5563 13.9241 26.7748 14 27 14ZM20.5525 7.895C20.67 7.95385 20.798 7.98896 20.9291 7.99832C21.0602 8.00768 21.1918 7.99111 21.3165 7.94954C21.4412 7.90798 21.5565 7.84225 21.6557 7.7561C21.755 7.66996 21.8363 7.56509 21.895 7.4475L22.895 5.4475C23.0137 5.21013 23.0332 4.93534 22.9493 4.68357C22.8654 4.4318 22.6849 4.22368 22.4475 4.105C22.2101 3.98632 21.9353 3.96679 21.6836 4.05071C21.4318 4.13463 21.2237 4.31513 21.105 4.5525L20.105 6.5525C20.0461 6.67002 20.011 6.79798 20.0017 6.92908C19.9923 7.06017 20.0089 7.19183 20.0505 7.31651C20.092 7.4412 20.1578 7.55647 20.2439 7.65573C20.33 7.75499 20.4349 7.8363 20.5525 7.895Z" fill="white"/>
<path d="M70 18.5H65.4862C65.495 18.3338 65.5 18.1675 65.5 18C65.5 15.4804 64.4991 13.0641 62.7175 11.2825C60.9359 9.50089 58.5196 8.5 56 8.5C53.4804 8.5 51.0641 9.50089 49.2825 11.2825C47.5009 13.0641 46.5 15.4804 46.5 18C46.5 18.1675 46.5 18.3338 46.5138 18.5H42C41.6022 18.5 41.2206 18.658 40.9393 18.9393C40.658 19.2206 40.5 19.6022 40.5 20C40.5 20.3978 40.658 20.7794 40.9393 21.0607C41.2206 21.342 41.6022 21.5 42 21.5H70C70.3978 21.5 70.7794 21.342 71.0607 21.0607C71.342 20.7794 71.5 20.3978 71.5 20C71.5 19.6022 71.342 19.2206 71.0607 18.9393C70.7794 18.658 70.3978 18.5 70 18.5ZM49.5 18C49.5 16.2761 50.1848 14.6228 51.4038 13.4038C52.6228 12.1848 54.2761 11.5 56 11.5C57.7239 11.5 59.3772 12.1848 60.5962 13.4038C61.8152 14.6228 62.5 16.2761 62.5 18C62.5 18.1675 62.4913 18.3338 62.4788 18.5H49.5212C49.5087 18.3338 49.5 18.1675 49.5 18ZM67.5 25C67.5 25.3978 67.342 25.7794 67.0607 26.0607C66.7794 26.342 66.3978 26.5 66 26.5H46C45.6022 26.5 45.2206 26.342 44.9393 26.0607C44.658 25.7794 44.5 25.3978 44.5 25C44.5 24.6022 44.658 24.2206 44.9393 23.9393C45.2206 23.658 45.6022 23.5 46 23.5H66C66.3978 23.5 66.7794 23.658 67.0607 23.9393C67.342 24.2206 67.5 24.6022 67.5 25ZM41.5775 11.5263C41.7033 11.1491 41.9737 10.8373 42.3293 10.6594C42.6848 10.4815 43.0965 10.452 43.4738 10.5775L44.9738 11.0775C45.1627 11.1381 45.3377 11.2355 45.4887 11.3642C45.6397 11.4929 45.7636 11.6502 45.8534 11.8271C45.9432 12.004 45.997 12.197 46.0117 12.3948C46.0263 12.5926 46.0016 12.7914 45.939 12.9797C45.8763 13.1679 45.7769 13.3418 45.6466 13.4914C45.5163 13.6409 45.3576 13.7631 45.1797 13.851C45.0018 13.9388 44.8082 13.9904 44.6103 14.0029C44.4123 14.0154 44.2138 13.9885 44.0262 13.9238L42.5262 13.4238C42.3394 13.3615 42.1666 13.263 42.0177 13.1339C41.8689 13.0048 41.747 12.8477 41.6589 12.6715C41.5707 12.4953 41.5182 12.3035 41.5043 12.107C41.4903 11.9105 41.5152 11.7131 41.5775 11.5263ZM48.5775 5.475C48.5093 5.28676 48.4796 5.08678 48.4899 4.88685C48.5003 4.68691 48.5505 4.49107 48.6377 4.31087C48.725 4.13067 48.8474 3.96975 48.9978 3.83759C49.1481 3.70544 49.3235 3.60473 49.5134 3.54139C49.7033 3.47806 49.904 3.45338 50.1036 3.46882C50.3032 3.48426 50.4977 3.5395 50.6756 3.63128C50.8535 3.72307 51.0113 3.84954 51.1395 4.00325C51.2678 4.15695 51.364 4.33478 51.4225 4.52625L51.9225 6.02625C51.9907 6.2145 52.0204 6.41448 52.0101 6.61441C51.9997 6.81435 51.9495 7.01019 51.8623 7.19039C51.775 7.37059 51.6526 7.53151 51.5022 7.66367C51.3519 7.79582 51.1765 7.89653 50.9866 7.95987C50.7967 8.0232 50.596 8.04787 50.3964 8.03244C50.1968 8.017 50.0023 7.96176 49.8244 7.86997C49.6465 7.77819 49.4887 7.65172 49.3605 7.49801C49.2322 7.34431 49.136 7.16648 49.0775 6.975L48.5775 5.475ZM66.0775 12.975C66.0152 12.7881 65.9903 12.5908 66.0043 12.3943C66.0182 12.1978 66.0708 12.0059 66.1589 11.8297C66.247 11.6535 66.3689 11.4964 66.5177 11.3673C66.6666 11.2383 66.8394 11.1398 67.0263 11.0775L68.5263 10.5775C68.9023 10.4569 69.3108 10.4895 69.663 10.6682C70.0152 10.847 70.2827 11.1574 70.4074 11.5321C70.5322 11.9068 70.5041 12.3156 70.3293 12.6698C70.1545 13.0239 69.8471 13.2949 69.4737 13.4238L67.9737 13.9238C67.5965 14.0492 67.1848 14.0198 66.8293 13.8419C66.4737 13.664 66.2033 13.3522 66.0775 12.975ZM60.0775 6.02625L60.5775 4.52625C60.636 4.33478 60.7322 4.15695 60.8605 4.00325C60.9887 3.84954 61.1465 3.72307 61.3244 3.63128C61.5023 3.5395 61.6968 3.48426 61.8964 3.46882C62.096 3.45338 62.2967 3.47806 62.4866 3.54139C62.6765 3.60473 62.8519 3.70544 63.0023 3.83759C63.1526 3.96975 63.275 4.13067 63.3623 4.31087C63.4495 4.49107 63.4997 4.68691 63.5101 4.88685C63.5204 5.08678 63.4907 5.28676 63.4225 5.475L62.9225 6.975C62.864 7.16648 62.7678 7.34431 62.6395 7.49801C62.5113 7.65172 62.3535 7.77819 62.1756 7.86997C61.9977 7.96176 61.8032 8.017 61.6036 8.03244C61.404 8.04787 61.2033 8.0232 61.0134 7.95987C60.8235 7.89653 60.6481 7.79582 60.4977 7.66367C60.3474 7.53151 60.225 7.37059 60.1377 7.19039C60.0505 7.01019 60.0003 6.81435 59.9899 6.61441C59.9796 6.41448 60.0093 6.2145 60.0775 6.02625Z" fill="white"/>
</g>
<defs>
<clipPath id="clip0_27_2294">
<rect width="72" height="32" rx="5" fill="white"/>
</clipPath>
</defs>
</svg>
