<svg width="72" height="32" viewBox="0 0 72 32" fill="none" xmlns="http://www.w3.org/2000/svg">
<g clip-path="url(#clip0_27_2008)">
<path d="M26 4H6C5.46957 4 4.96086 4.21071 4.58579 4.58579C4.21071 4.96086 4 5.46957 4 6V26C4 26.5304 4.21071 27.0391 4.58579 27.4142C4.96086 27.7893 5.46957 28 6 28H26C26.5304 28 27.0391 27.7893 27.4142 27.4142C27.7893 27.0391 28 26.5304 28 26V6C28 5.46957 27.7893 4.96086 27.4142 4.58579C27.0391 4.21071 26.5304 4 26 4ZM22 23H10C9.73478 23 9.48043 22.8946 9.29289 22.7071C9.10536 22.5196 9 22.2652 9 22C9 21.7348 9.10536 21.4804 9.29289 21.2929C9.48043 21.1054 9.73478 21 10 21H22C22.2652 21 22.5196 21.1054 22.7071 21.2929C22.8946 21.4804 23 21.7348 23 22C23 22.2652 22.8946 22.5196 22.7071 22.7071C22.5196 22.8946 22.2652 23 22 23ZM18 19H10C9.73478 19 9.48043 18.8946 9.29289 18.7071C9.10536 18.5196 9 18.2652 9 18C9 17.7348 9.10536 17.4804 9.29289 17.2929C9.48043 17.1054 9.73478 17 10 17H18C18.7956 17 19.5587 16.6839 20.1213 16.1213C20.6839 15.5587 21 14.7956 21 14C21 13.2044 20.6839 12.4413 20.1213 11.8787C19.5587 11.3161 18.7956 11 18 11H10C9.73478 11 9.48043 10.8946 9.29289 10.7071C9.10536 10.5196 9 10.2652 9 10C9 9.73478 9.10536 9.48043 9.29289 9.29289C9.48043 9.10536 9.73478 9 10 9H18C19.3261 9 20.5979 9.52678 21.5355 10.4645C22.4732 11.4021 23 12.6739 23 14C23 15.3261 22.4732 16.5979 21.5355 17.5355C20.5979 18.4732 19.3261 19 18 19Z" fill="white"/>
<path d="M67.5 25C67.5 25.3978 67.342 25.7794 67.0607 26.0607C66.7794 26.342 66.3978 26.5 66 26.5H47C46.6022 26.5 46.2206 26.342 45.9393 26.0607C45.658 25.7794 45.5 25.3978 45.5 25C45.5 24.6022 45.658 24.2206 45.9393 23.9393C46.2206 23.658 46.6022 23.5 47 23.5H66C66.3978 23.5 66.7794 23.658 67.0607 23.9393C67.342 24.2206 67.5 24.6022 67.5 25ZM59 18.5H47C46.6022 18.5 46.2206 18.658 45.9393 18.9393C45.658 19.2206 45.5 19.6022 45.5 20C45.5 20.3978 45.658 20.7794 45.9393 21.0607C46.2206 21.342 46.6022 21.5 47 21.5H59C61.2543 21.5 63.4163 20.6045 65.0104 19.0104C66.6045 17.4163 67.5 15.2543 67.5 13C67.5 10.7457 66.6045 8.58365 65.0104 6.98959C63.4163 5.39553 61.2543 4.5 59 4.5H47C46.6022 4.5 46.2206 4.65804 45.9393 4.93934C45.658 5.22064 45.5 5.60218 45.5 6C45.5 6.39782 45.658 6.77936 45.9393 7.06066C46.2206 7.34196 46.6022 7.5 47 7.5H59C60.4587 7.5 61.8576 8.07946 62.8891 9.11091C63.9205 10.1424 64.5 11.5413 64.5 13C64.5 14.4587 63.9205 15.8576 62.8891 16.8891C61.8576 17.9205 60.4587 18.5 59 18.5Z" fill="white"/>
</g>
<defs>
<clipPath id="clip0_27_2008">
<rect width="72" height="32" rx="5" fill="white"/>
</clipPath>
</defs>
</svg>
