<svg width="72" height="32" viewBox="0 0 72 32" fill="none" xmlns="http://www.w3.org/2000/svg">
<g clip-path="url(#clip0_27_5686)">
<path d="M30.0002 19.4888C29.9952 19.2658 29.953 19.0453 29.8752 18.8363L27.4927 12.31C27.3092 11.8152 26.9375 11.4129 26.4587 11.191C25.9798 10.969 25.4327 10.9453 24.9365 11.125L16.4602 14.1963L17.9702 5.57126C18.0637 5.0493 17.9461 4.51155 17.6433 4.07626C17.3404 3.64097 16.8771 3.34377 16.3552 3.25001L9.52145 2.03126C9.2631 1.98584 8.99833 1.99187 8.74232 2.04902C8.48631 2.10617 8.24411 2.21331 8.0296 2.36429C7.8151 2.51527 7.63252 2.70711 7.49233 2.92882C7.35215 3.15053 7.25712 3.39774 7.2127 3.65626L4.0877 21.5463C3.94483 22.335 3.97683 23.1455 4.18142 23.9206C4.38601 24.6956 4.75822 25.4163 5.27177 26.0318C5.78532 26.6472 6.42771 27.1425 7.15357 27.4826C7.87944 27.8227 8.67111 27.9993 9.4727 28H28.0002C28.5306 28 29.0393 27.7893 29.4144 27.4142C29.7895 27.0392 30.0002 26.5304 30.0002 26V19.4888ZM9.5002 24.5C9.10464 24.5 8.71796 24.3827 8.38906 24.1629C8.06016 23.9432 7.80382 23.6308 7.65244 23.2654C7.50107 22.8999 7.46146 22.4978 7.53863 22.1098C7.6158 21.7219 7.80628 21.3655 8.08599 21.0858C8.36569 20.8061 8.72206 20.6156 9.11002 20.5384C9.49798 20.4613 9.90012 20.5009 10.2656 20.6523C10.631 20.8036 10.9434 21.06 11.1631 21.3889C11.3829 21.7178 11.5002 22.1044 11.5002 22.5C11.5002 23.0304 11.2895 23.5392 10.9144 23.9142C10.5393 24.2893 10.0306 24.5 9.5002 24.5ZM14.8402 23.4525L16.0627 16.4625L25.6152 13L28.0002 19.5138L14.5977 24.375C14.7046 24.0749 14.7857 23.7663 14.8402 23.4525ZM28.0002 26H15.9677L28.0002 21.6388V26Z" fill="white"/>
<path d="M70.3494 18.665L67.9632 12.1388C67.7353 11.5183 67.2709 11.0134 66.6717 10.7344C66.0725 10.4554 65.3872 10.4251 64.7657 10.65L57.1019 13.4275L58.4632 5.64751C58.5789 4.99567 58.4313 4.32454 58.0529 3.78135C57.6744 3.23816 57.096 2.86726 56.4444 2.75001L49.6094 1.53876C49.2864 1.48182 48.9553 1.4892 48.6351 1.56047C48.315 1.63174 48.012 1.76551 47.7436 1.9541C47.4753 2.14269 47.2468 2.38239 47.0712 2.65947C46.8957 2.93655 46.7765 3.24555 46.7207 3.56876L43.5957 21.46C43.3195 23.0212 43.6725 24.6283 44.5775 25.9301C45.4825 27.2319 46.866 28.1226 48.4257 28.4075C48.7849 28.4693 49.1487 28.5002 49.5132 28.5H68.0007C68.6637 28.5 69.2996 28.2366 69.7684 27.7678C70.2373 27.2989 70.5007 26.6631 70.5007 26V19.5238C70.4968 19.2312 70.4457 18.9413 70.3494 18.665ZM52.3757 23.0225C52.3095 23.4123 52.1665 23.7849 51.9549 24.1189C51.7433 24.4528 51.4673 24.7413 51.1432 24.9675C50.8278 25.1901 50.4714 25.3477 50.0945 25.4312C49.7177 25.5147 49.328 25.5223 48.9482 25.4538C48.1696 25.3087 47.48 24.8618 47.0297 24.2103C46.5794 23.5589 46.405 22.7558 46.5444 21.9763L49.5894 4.58251L55.4219 5.62501L52.3757 23.0225ZM55.3307 23.5388L56.5044 16.8338L65.3157 13.6413L67.3532 19.215L55.3244 23.5738C55.3282 23.5625 55.3319 23.5513 55.3332 23.5388H55.3307ZM67.5007 25.5H58.8157L67.5007 22.3525V25.5ZM51.1532 21.7588L50.9782 22.7588C50.9173 23.1064 50.7358 23.4215 50.4655 23.6485C50.1953 23.8755 49.8536 24 49.5007 24C49.4135 23.9999 49.3265 23.9923 49.2407 23.9775C48.8488 23.9089 48.5003 23.6874 48.2717 23.3618C48.0431 23.0362 47.9533 22.6331 48.0219 22.2413L48.1969 21.2413C48.267 20.8508 48.489 20.504 48.8142 20.2768C49.1393 20.0496 49.5413 19.9605 49.932 20.0289C50.3228 20.0973 50.6705 20.3178 50.8992 20.642C51.1278 20.9662 51.2187 21.3677 51.1519 21.7588H51.1532Z" fill="white"/>
</g>
<defs>
<clipPath id="clip0_27_5686">
<rect width="72" height="32" rx="5" fill="white"/>
</clipPath>
</defs>
</svg>
