<svg width="72" height="32" viewBox="0 0 72 32" fill="none" xmlns="http://www.w3.org/2000/svg">
<g clip-path="url(#clip0_27_6840)">
<path d="M3 21C3 20.7348 3.10536 20.4804 3.29289 20.2929C3.48043 20.1054 3.73478 20 4 20C5.8025 20 6.77375 20.6475 7.555 21.1675C8.25 21.6325 8.8025 22 10 22C11.1975 22 11.75 21.6325 12.445 21.1675C13.225 20.6475 14.195 20 15.9987 20C17.8025 20 18.7737 20.6475 19.5537 21.1675C20.2512 21.6325 20.8037 22 22 22C23.1963 22 23.75 21.6325 24.445 21.1675C25.2262 20.6475 26.195 20 28 20C28.2652 20 28.5196 20.1054 28.7071 20.2929C28.8946 20.4804 29 20.7348 29 21C29 21.2652 28.8946 21.5196 28.7071 21.7071C28.5196 21.8946 28.2652 22 28 22C26.8025 22 26.25 22.3675 25.555 22.8325C24.7738 23.3525 23.805 24 22 24C20.195 24 19.225 23.3525 18.445 22.8325C17.75 22.3675 17.1962 22 16 22C14.8038 22 14.25 22.3675 13.555 22.8325C12.775 23.3525 11.805 24 10.0013 24C8.1975 24 7.2275 23.3525 6.44625 22.8325C5.75 22.3675 5.1975 22 4 22C3.73478 22 3.48043 21.8946 3.29289 21.7071C3.10536 21.5196 3 21.2652 3 21ZM28 25C26.1975 25 25.2262 25.6475 24.445 26.1675C23.75 26.6325 23.1975 27 22 27C20.8025 27 20.25 26.6325 19.5537 26.1675C18.7737 25.6475 17.8038 25 15.9987 25C14.1937 25 13.225 25.6475 12.445 26.1675C11.75 26.6325 11.1962 27 10 27C8.80375 27 8.25 26.6325 7.555 26.1675C6.77375 25.6475 5.8025 25 4 25C3.73478 25 3.48043 25.1054 3.29289 25.2929C3.10536 25.4804 3 25.7348 3 26C3 26.2652 3.10536 26.5196 3.29289 26.7071C3.48043 26.8946 3.73478 27 4 27C5.1975 27 5.75 27.3675 6.445 27.8325C7.22625 28.3525 8.195 29 10 29C11.805 29 12.7738 28.3525 13.5538 27.8325C14.2513 27.3675 14.8038 27 15.9987 27C17.1937 27 17.7487 27.3675 18.445 27.8325C19.225 28.3525 20.195 29 22 29C23.805 29 24.7738 28.3525 25.555 27.8325C26.2513 27.3675 26.805 27 28 27C28.2652 27 28.5196 26.8946 28.7071 26.7071C28.8946 26.5196 29 26.2652 29 26C29 25.7348 28.8946 25.4804 28.7071 25.2929C28.5196 25.1054 28.2652 25 28 25ZM10 17.6737V4C10 3.73478 10.1054 3.48043 10.2929 3.29289C10.4804 3.10536 10.7348 3 11 3C11.2652 3 11.5196 3.10536 11.7071 3.29289C11.8946 3.48043 12 3.73478 12 4V5H20V4C20 3.73478 20.1054 3.48043 20.2929 3.29289C20.4804 3.10536 20.7348 3 21 3C21.2652 3 21.5196 3.10536 21.7071 3.29289C21.8946 3.48043 22 3.73478 22 4V17.9112C22 18.1765 21.8946 18.4308 21.7071 18.6184C21.5196 18.8059 21.2652 18.9112 21 18.9112C20.7348 18.9112 20.4804 18.8059 20.2929 18.6184C20.1054 18.4308 20 18.1765 20 17.9112V17H12V17.6737C12 17.939 11.8946 18.1933 11.7071 18.3809C11.5196 18.5684 11.2652 18.6737 11 18.6737C10.7348 18.6737 10.4804 18.5684 10.2929 18.3809C10.1054 18.1933 10 17.939 10 17.6737ZM12 9C12 9.26522 12.1054 9.51957 12.2929 9.70711C12.4804 9.89464 12.7348 10 13 10H19C19.2652 10 19.5196 9.89464 19.7071 9.70711C19.8946 9.51957 20 9.26522 20 9C20 8.73478 19.8946 8.48043 19.7071 8.29289C19.5196 8.10536 19.2652 8 19 8H13C12.7348 8 12.4804 8.10536 12.2929 8.29289C12.1054 8.48043 12 8.73478 12 9ZM12 13C12 13.2652 12.1054 13.5196 12.2929 13.7071C12.4804 13.8946 12.7348 14 13 14H19C19.2652 14 19.5196 13.8946 19.7071 13.7071C19.8946 13.5196 20 13.2652 20 13C20 12.7348 19.8946 12.4804 19.7071 12.2929C19.5196 12.1054 19.2652 12 19 12H13C12.7348 12 12.4804 12.1054 12.2929 12.2929C12.1054 12.4804 12 12.7348 12 13Z" fill="white"/>
<path d="M51 18.6737C51.3978 18.6737 51.7794 18.5157 52.0607 18.2344C52.342 17.9531 52.5 17.5716 52.5 17.1737V17H59.5V17.4112C59.5 17.8091 59.658 18.1906 59.9393 18.4719C60.2206 18.7532 60.6022 18.9112 61 18.9112C61.3978 18.9112 61.7794 18.7532 62.0607 18.4719C62.342 18.1906 62.5 17.8091 62.5 17.4112V4C62.5 3.60218 62.342 3.22064 62.0607 2.93934C61.7794 2.65804 61.3978 2.5 61 2.5C60.6022 2.5 60.2206 2.65804 59.9393 2.93934C59.658 3.22064 59.5 3.60218 59.5 4V5H52.5V4C52.5 3.60218 52.342 3.22064 52.0607 2.93934C51.7794 2.65804 51.3978 2.5 51 2.5C50.6022 2.5 50.2206 2.65804 49.9393 2.93934C49.658 3.22064 49.5 3.60218 49.5 4V17.1737C49.5 17.5716 49.658 17.9531 49.9393 18.2344C50.2206 18.5157 50.6022 18.6737 51 18.6737ZM52.5 14V12.5H59.5V14H52.5ZM59.5 8V9.5H52.5V8H59.5ZM42.5 20.5C42.5 20.1022 42.658 19.7206 42.9393 19.4393C43.2206 19.158 43.6022 19 44 19C45.9538 19 47 19.6938 47.8325 20.25C48.5075 20.7 48.9575 21 50 21C51.0425 21 51.4912 20.7025 52.1675 20.25C53.0037 19.6912 54.0425 19 55.9987 19C57.955 19 58.9987 19.6938 59.8312 20.25C60.5075 20.7 60.9562 21 62 21C63.0438 21 63.4925 20.7025 64.1675 20.25C65.005 19.6912 66.0425 19 68 19C68.3978 19 68.7794 19.158 69.0607 19.4393C69.342 19.7206 69.5 20.1022 69.5 20.5C69.5 20.8978 69.342 21.2794 69.0607 21.5607C68.7794 21.842 68.3978 22 68 22C66.9538 22 66.5075 22.2975 65.8312 22.75C64.995 23.3088 63.9562 24 62 24C60.0438 24 59 23.3062 58.1675 22.75C57.4912 22.3 57.0425 22 55.9987 22C54.955 22 54.5075 22.2975 53.8313 22.75C52.995 23.3088 51.9563 24 50 24C48.0437 24 47 23.3062 46.1675 22.75C45.4925 22.3 45.0425 22 44 22C43.6022 22 43.2206 21.842 42.9393 21.5607C42.658 21.2794 42.5 20.8978 42.5 20.5ZM69.5 26C69.5 26.3978 69.342 26.7794 69.0607 27.0607C68.7794 27.342 68.3978 27.5 68 27.5C66.9538 27.5 66.5075 27.7975 65.8312 28.25C64.995 28.8088 63.9562 29.5 62 29.5C60.0438 29.5 59 28.8062 58.1675 28.25C57.4912 27.8 57.0425 27.5 55.9987 27.5C54.955 27.5 54.5075 27.7975 53.8313 28.25C52.995 28.8088 51.9563 29.5 50 29.5C48.0437 29.5 47 28.8062 46.1675 28.25C45.4925 27.8 45.0425 27.5 44 27.5C43.6022 27.5 43.2206 27.342 42.9393 27.0607C42.658 26.7794 42.5 26.3978 42.5 26C42.5 25.6022 42.658 25.2206 42.9393 24.9393C43.2206 24.658 43.6022 24.5 44 24.5C45.9538 24.5 47 25.1938 47.8325 25.75C48.5075 26.2 48.9575 26.5 50 26.5C51.0425 26.5 51.4912 26.2025 52.1675 25.75C53.0037 25.1912 54.0425 24.5 55.9987 24.5C57.955 24.5 58.9987 25.1938 59.8312 25.75C60.5075 26.2 60.9562 26.5 62 26.5C63.0438 26.5 63.4925 26.2025 64.1675 25.75C65.005 25.1912 66.0425 24.5 68 24.5C68.3978 24.5 68.7794 24.658 69.0607 24.9393C69.342 25.2206 69.5 25.6022 69.5 26Z" fill="white"/>
</g>
<defs>
<clipPath id="clip0_27_6840">
<rect width="72" height="32" rx="5" fill="white"/>
</clipPath>
</defs>
</svg>
