<svg width="72" height="32" viewBox="0 0 72 32" fill="none" xmlns="http://www.w3.org/2000/svg">
<g clip-path="url(#clip0_27_4875)">
<path d="M27.0002 4H19.0002C18.8471 3.99998 18.696 4.03514 18.5586 4.10276C18.4212 4.17038 18.3012 4.26865 18.2077 4.39L10.2077 14.7913L9.00025 13.5863C8.8145 13.4003 8.59392 13.2528 8.35113 13.1521C8.10833 13.0515 7.84808 12.9997 7.58525 12.9997C7.32241 12.9997 7.06216 13.0515 6.81936 13.1521C6.57657 13.2528 6.35599 13.4003 6.17024 13.5863L5.08399 14.6737C4.89823 14.8595 4.75087 15.08 4.65033 15.3227C4.54979 15.5653 4.49805 15.8254 4.49805 16.0881C4.49805 16.3508 4.54979 16.6109 4.65033 16.8536C4.75087 17.0963 4.89823 17.3168 5.08399 17.5025L7.83399 20.2525L3.83399 24.2525C3.64823 24.4382 3.50087 24.6587 3.40033 24.9014C3.29979 25.1441 3.24805 25.4042 3.24805 25.6669C3.24805 25.9296 3.29979 26.1897 3.40033 26.4323C3.50087 26.675 3.64823 26.8955 3.83399 27.0812L4.92024 28.1663C5.29528 28.541 5.80379 28.7516 6.33399 28.7516C6.8642 28.7516 7.37271 28.541 7.74774 28.1663L11.7477 24.1663L14.4977 26.9163C14.6835 27.1022 14.9041 27.2497 15.1469 27.3504C15.3897 27.451 15.6499 27.5028 15.9127 27.5028C16.1756 27.5028 16.4358 27.451 16.6786 27.3504C16.9214 27.2497 17.142 27.1022 17.3277 26.9163L18.414 25.8288C18.5998 25.643 18.7471 25.4225 18.8477 25.1798C18.9482 24.9372 18.9999 24.6771 18.9999 24.4144C18.9999 24.1517 18.9482 23.8916 18.8477 23.6489C18.7471 23.4062 18.5998 23.1857 18.414 23L17.209 21.795L27.6102 13.795C27.7319 13.7013 27.8304 13.5809 27.898 13.443C27.9657 13.3052 28.0006 13.1536 28.0002 13V5C28.0002 4.73478 27.8949 4.48043 27.7074 4.29289C27.5198 4.10536 27.2655 4 27.0002 4ZM26.0002 12.5075L15.7827 20.3675L14.4152 19L20.7077 12.7075C20.8952 12.5199 21.0005 12.2654 21.0004 12.0002C21.0002 11.7349 20.8948 11.4806 20.7071 11.2931C20.5195 11.1057 20.265 11.0004 19.9998 11.0005C19.7346 11.0006 19.4802 11.1061 19.2927 11.2937L13.0002 17.585L11.634 16.2175L19.4927 6H26.0002V12.5075Z" fill="white"/>
<path d="M67.0004 3.5H59.0004C58.7769 3.49995 58.5561 3.54987 58.3544 3.64611C58.1526 3.74235 57.9748 3.88248 57.8342 4.05625L49.9379 13.8138L49.3554 13.2325C49.1233 13.0002 48.8476 12.816 48.5443 12.6903C48.2409 12.5646 47.9157 12.4999 47.5873 12.4999C47.2589 12.4999 46.9338 12.5646 46.6304 12.6903C46.327 12.816 46.0514 13.0002 45.8192 13.2325L43.7329 15.3188C43.5007 15.5509 43.3164 15.8266 43.1907 16.1299C43.065 16.4333 43.0004 16.7585 43.0004 17.0869C43.0004 17.4153 43.065 17.7404 43.1907 18.0438C43.3164 18.3472 43.5007 18.6228 43.7329 18.855L45.6254 20.75L42.9829 23.3962C42.5143 23.8651 42.251 24.5008 42.251 25.1637C42.251 25.8267 42.5143 26.4624 42.9829 26.9312L45.0692 29.0175C45.538 29.4862 46.1738 29.7495 46.8367 29.7495C47.4996 29.7495 48.1354 29.4862 48.6042 29.0175L51.2504 26.375L53.1467 28.27C53.3789 28.5023 53.6545 28.6865 53.9579 28.8122C54.2613 28.9379 54.5864 29.0026 54.9148 29.0026C55.2432 29.0026 55.5684 28.9379 55.8718 28.8122C56.1751 28.6865 56.4508 28.5023 56.6829 28.27L58.7692 26.1838C59.0016 25.9516 59.186 25.6758 59.3118 25.3724C59.4377 25.0689 59.5024 24.7435 59.5024 24.415C59.5024 24.0865 59.4377 23.7611 59.3118 23.4576C59.186 23.1542 59.0016 22.8784 58.7692 22.6462L58.1879 22.065L67.9454 14.1687C68.1193 14.0277 68.2594 13.8495 68.3554 13.6473C68.4515 13.4451 68.501 13.2239 68.5004 13V5C68.5004 4.60218 68.3424 4.22064 68.0611 3.93934C67.7798 3.65804 67.3983 3.5 67.0004 3.5ZM46.8367 26.5425L45.4617 25.1675L47.7504 22.875L49.1254 24.25L46.8367 26.5425ZM54.9129 25.7925L46.2067 17.0875L47.5879 15.7125L56.2942 24.4188L54.9129 25.7925ZM65.5004 12.2837L56.0529 19.93L55.1254 19L61.0642 13.0625C61.346 12.7807 61.5043 12.3985 61.5043 12C61.5043 11.6015 61.346 11.2193 61.0642 10.9375C60.7824 10.6557 60.4002 10.4974 60.0017 10.4974C59.6032 10.4974 59.221 10.6557 58.9392 10.9375L53.0004 16.875L52.0692 15.945L59.7167 6.5H65.5004V12.2837Z" fill="white"/>
</g>
<defs>
<clipPath id="clip0_27_4875">
<rect width="72" height="32" rx="5" fill="white"/>
</clipPath>
</defs>
</svg>
