<svg width="72" height="32" viewBox="0 0 72 32" fill="none" xmlns="http://www.w3.org/2000/svg">
<g clip-path="url(#clip0_27_3066)">
<path d="M31.9998 21C31.9998 21.2652 31.8945 21.5196 31.7069 21.7071C31.5194 21.8946 31.265 22 30.9998 22H0.999811C0.842816 22 0.688034 21.963 0.547993 21.892C0.407952 21.8211 0.286586 21.7181 0.193718 21.5915C0.100851 21.465 0.0390919 21.3183 0.0134396 21.1634C-0.0122127 21.0085 -0.00103746 20.8498 0.0460609 20.7L2.82856 11.425C2.9505 11.011 3.20397 10.648 3.55062 10.3909C3.89727 10.1337 4.31823 9.99654 4.74981 10H15.2623C15.6928 9.9979 16.1124 10.1357 16.4578 10.3927C16.8031 10.6498 17.0557 11.012 17.1773 11.425L19.7498 20H21.6623L18.8486 10.6438C18.8262 10.5691 18.8215 10.4902 18.835 10.4135C18.8485 10.3367 18.8797 10.2642 18.9262 10.2016C18.9727 10.1391 19.0332 10.0883 19.1029 10.0533C19.1725 10.0183 19.2494 10 19.3273 10H21.2561C21.686 10.0001 22.1045 10.1388 22.4495 10.3955C22.7944 10.6522 23.0474 11.0132 23.1711 11.425L25.7498 20H27.6623L24.8486 10.6438C24.8262 10.5691 24.8215 10.4902 24.835 10.4135C24.8485 10.3367 24.8797 10.2642 24.9262 10.2016C24.9727 10.1391 25.0332 10.0883 25.1029 10.0533C25.1725 10.0183 25.2494 10 25.3273 10H27.2561C27.686 10.0001 28.1045 10.1388 28.4495 10.3955C28.7944 10.6522 29.0474 11.0132 29.1711 11.425L31.9536 20.6975C31.9842 20.7954 31.9998 20.8974 31.9998 21Z" fill="white"/>
<path d="M71.9362 20.5688V20.5613C71.9367 20.5575 71.9367 20.5537 71.9362 20.55L69.1499 11.2813C68.9977 10.7651 68.682 10.3124 68.2503 9.99112C67.8186 9.66988 67.2943 9.49753 66.7562 9.5H65.4999C65.1021 9.5 64.7206 9.65804 64.4393 9.93934C64.1579 10.2206 63.9999 10.6022 63.9999 11C63.9999 11.3978 64.1579 11.7794 64.4393 12.0607C64.7206 12.342 65.1021 12.5 65.4999 12.5H66.3837L68.4837 19.5H64.6162L62.1499 11.2813C61.9977 10.7651 61.682 10.3124 61.2503 9.99112C60.8186 9.66988 60.2943 9.49753 59.7562 9.5H58.4999C58.1021 9.5 57.7206 9.65804 57.4393 9.93934C57.1579 10.2206 56.9999 10.6022 56.9999 11C56.9999 11.3978 57.1579 11.7794 57.4393 12.0607C57.7206 12.342 58.1021 12.5 58.4999 12.5H59.3837L61.4837 19.5H57.6162L55.1499 11.2813C54.9977 10.7651 54.682 10.3124 54.2503 9.99112C53.8186 9.66988 53.2943 9.49753 52.7562 9.5H45.2499C44.7107 9.49617 44.185 9.66789 43.752 9.98923C43.319 10.3106 43.0024 10.7641 42.8499 11.2813L40.0687 20.55C40.0681 20.5537 40.0681 20.5575 40.0687 20.5613V20.5688C40.0605 20.5942 40.0539 20.6201 40.0487 20.6463C39.9952 20.8664 39.9924 21.0958 40.0403 21.3172C40.0882 21.5386 40.1856 21.7463 40.3252 21.9247C40.4649 22.103 40.6431 22.2475 40.8466 22.3471C41.05 22.4468 41.2734 22.499 41.4999 22.5H70.4999C70.7337 22.4999 70.9643 22.4452 71.1732 22.3402C71.3821 22.2352 71.5636 22.0828 71.7031 21.8951C71.8427 21.7075 71.9364 21.4899 71.9769 21.2596C72.0173 21.0293 72.0034 20.7927 71.9362 20.5688ZM45.6162 12.5H52.3837L54.4837 19.5H43.5162L45.6162 12.5Z" fill="white"/>
</g>
<defs>
<clipPath id="clip0_27_3066">
<rect width="72" height="32" rx="5" fill="white"/>
</clipPath>
</defs>
</svg>
