<svg width="72" height="32" viewBox="0 0 72 32" fill="none" xmlns="http://www.w3.org/2000/svg">
<g clip-path="url(#clip0_27_1542)">
<path d="M30.4138 17L18 4.58626C17.815 4.39973 17.5947 4.25185 17.352 4.15121C17.1093 4.05057 16.849 3.99917 16.5863 4.00001H5.00001C4.73479 4.00001 4.48044 4.10537 4.2929 4.2929C4.10537 4.48044 4.00001 4.73479 4.00001 5.00001V16.5863C3.99917 16.849 4.05057 17.1093 4.15121 17.352C4.25185 17.5947 4.39973 17.815 4.58626 18L17 30.4138C17.1857 30.5995 17.4062 30.7469 17.6489 30.8474C17.8916 30.948 18.1517 30.9997 18.4144 30.9997C18.6771 30.9997 18.9372 30.948 19.1799 30.8474C19.4225 30.7469 19.643 30.5995 19.8288 30.4138L30.4138 19.8288C30.5995 19.643 30.7469 19.4225 30.8474 19.1799C30.948 18.9372 30.9997 18.6771 30.9997 18.4144C30.9997 18.1517 30.948 17.8916 30.8474 17.6489C30.7469 17.4062 30.5995 17.1857 30.4138 17ZM10.5 12C10.2033 12 9.91333 11.912 9.66666 11.7472C9.41998 11.5824 9.22772 11.3481 9.11419 11.074C9.00066 10.7999 8.97095 10.4983 9.02883 10.2074C9.08671 9.9164 9.22957 9.64913 9.43935 9.43935C9.64913 9.22957 9.9164 9.08671 10.2074 9.02883C10.4983 8.97095 10.7999 9.00066 11.074 9.11419C11.3481 9.22772 11.5824 9.41998 11.7472 9.66666C11.912 9.91333 12 10.2033 12 10.5C12 10.8978 11.842 11.2794 11.5607 11.5607C11.2794 11.842 10.8978 12 10.5 12Z" fill="white"/>
<path d="M70.7688 16.6475L58.3538 4.23251C58.1223 3.99951 57.8469 3.81479 57.5435 3.68905C57.24 3.56331 56.9147 3.49905 56.5863 3.50001H45C44.6022 3.50001 44.2207 3.65805 43.9394 3.93935C43.658 4.22066 43.5 4.60219 43.5 5.00001V16.5863C43.4991 16.9147 43.5633 17.24 43.689 17.5435C43.8148 17.8469 43.9995 18.1223 44.2325 18.3538L56.6475 30.7688C57.1163 31.2374 57.7521 31.5007 58.415 31.5007C59.0779 31.5007 59.7137 31.2374 60.1825 30.7688L70.7688 20.1825C71.2374 19.7137 71.5007 19.0779 71.5007 18.415C71.5007 17.7521 71.2374 17.1163 70.7688 16.6475ZM58.415 28.2938L46.5 16.375V6.50001H56.375L68.29 18.415L58.415 28.2938ZM53 11C53 11.3956 52.8827 11.7823 52.6629 12.1112C52.4432 12.44 52.1308 12.6964 51.7654 12.8478C51.3999 12.9991 50.9978 13.0388 50.6098 12.9616C50.2219 12.8844 49.8655 12.6939 49.5858 12.4142C49.3061 12.1345 49.1156 11.7782 49.0384 11.3902C48.9613 11.0022 49.0009 10.6001 49.1523 10.2346C49.3036 9.86919 49.56 9.55683 49.8889 9.33707C50.2178 9.11731 50.6044 9.00001 51 9.00001C51.5304 9.00001 52.0392 9.21072 52.4142 9.5858C52.7893 9.96087 53 10.4696 53 11Z" fill="white"/>
</g>
<defs>
<clipPath id="clip0_27_1542">
<rect width="72" height="32" rx="5" fill="white"/>
</clipPath>
</defs>
</svg>
