<svg width="72" height="32" viewBox="0 0 72 32" fill="none" xmlns="http://www.w3.org/2000/svg">
<g clip-path="url(#clip0_27_1547)">
<path d="M30.8324 16.555L25.1249 25.11C24.9426 25.3833 24.6958 25.6074 24.4062 25.7626C24.1167 25.9179 23.7934 25.9994 23.4649 26H3.99992C3.81883 26.0001 3.64111 25.9511 3.48573 25.8581C3.33035 25.7651 3.20313 25.6316 3.11766 25.472C3.03219 25.3123 2.99168 25.1325 3.00044 24.9516C3.0092 24.7707 3.06692 24.5956 3.16742 24.445L8.79867 16L3.17367 7.555C3.07346 7.4048 3.01578 7.23028 3.00676 7.04995C2.99773 6.86962 3.03771 6.69021 3.12243 6.53076C3.20715 6.37131 3.33346 6.23778 3.48796 6.14433C3.64245 6.05088 3.81936 6.00101 3.99992 6H23.4649C23.7934 6.00061 24.1167 6.08213 24.4062 6.23735C24.6958 6.39258 24.9426 6.61673 25.1249 6.89L30.8287 15.445C30.9389 15.609 30.998 15.8019 30.9987 15.9994C30.9994 16.197 30.9415 16.3903 30.8324 16.555Z" fill="white"/>
<path d="M71.25 15.1675L65.545 6.61375C65.3168 6.27123 65.0075 5.99036 64.6447 5.79607C64.2818 5.60177 63.8766 5.50008 63.465 5.5H44C43.7283 5.4996 43.4616 5.57302 43.2283 5.71242C42.995 5.85182 42.804 6.05196 42.6757 6.29147C42.5473 6.53098 42.4865 6.80086 42.4995 7.07228C42.5126 7.3437 42.5992 7.60646 42.75 7.8325L48.1975 16L42.75 24.1675C42.5992 24.3935 42.5126 24.6563 42.4995 24.9277C42.4865 25.1991 42.5473 25.469 42.6757 25.7085C42.804 25.948 42.995 26.1482 43.2283 26.2876C43.4616 26.427 43.7283 26.5004 44 26.5H63.465C63.8766 26.4999 64.2818 26.3982 64.6447 26.2039C65.0075 26.0096 65.3168 25.7288 65.545 25.3863L71.25 16.8325C71.4145 16.586 71.5023 16.2963 71.5023 16C71.5023 15.7037 71.4145 15.414 71.25 15.1675ZM63.1975 23.5H46.8025L51.25 16.8325C51.4145 16.586 51.5023 16.2963 51.5023 16C51.5023 15.7037 51.4145 15.414 51.25 15.1675L46.8025 8.5H63.1975L68.1975 16L63.1975 23.5Z" fill="white"/>
</g>
<defs>
<clipPath id="clip0_27_1547">
<rect width="72" height="32" rx="5" fill="white"/>
</clipPath>
</defs>
</svg>
