<svg width="72" height="32" viewBox="0 0 72 32" fill="none" xmlns="http://www.w3.org/2000/svg">
<g clip-path="url(#clip0_27_1552)">
<path d="M30.8325 15.445L25.125 6.89125C24.9433 6.61728 24.6966 6.39252 24.407 6.23702C24.1174 6.08151 23.7937 6.00008 23.465 6H5C4.46957 6 3.96086 6.21071 3.58579 6.58579C3.21071 6.96086 3 7.46957 3 8V24C3 24.5304 3.21071 25.0391 3.58579 25.4142C3.96086 25.7893 4.46957 26 5 26H23.465C23.7935 25.9994 24.1168 25.9179 24.4063 25.7626C24.6959 25.6074 24.9427 25.3833 25.125 25.11L30.8288 16.555C30.9389 16.391 30.9981 16.1981 30.9988 16.0006C30.9994 15.803 30.9416 15.6097 30.8325 15.445Z" fill="white"/>
<path d="M71.25 15.1675L65.545 6.61375C65.3168 6.27123 65.0075 5.99035 64.6447 5.79606C64.2818 5.60177 63.8766 5.50008 63.465 5.5H45C44.337 5.5 43.7011 5.76339 43.2322 6.23223C42.7634 6.70107 42.5 7.33696 42.5 8V24C42.5 24.663 42.7634 25.2989 43.2322 25.7678C43.7011 26.2366 44.337 26.5 45 26.5H63.465C63.8766 26.4999 64.2818 26.3982 64.6447 26.2039C65.0075 26.0096 65.3168 25.7288 65.545 25.3862L71.25 16.8325C71.4145 16.586 71.5022 16.2963 71.5022 16C71.5022 15.7037 71.4145 15.414 71.25 15.1675ZM63.1975 23.5H45.5V8.5H63.1975L68.1975 16L63.1975 23.5Z" fill="white"/>
</g>
<defs>
<clipPath id="clip0_27_1552">
<rect width="72" height="32" rx="5" fill="white"/>
</clipPath>
</defs>
</svg>
