<svg width="72" height="32" viewBox="0 0 72 32" fill="none" xmlns="http://www.w3.org/2000/svg">
<g clip-path="url(#clip0_27_4880)">
<path d="M27.7336 10.395C29.1212 13.2973 29.3847 16.6107 28.473 19.6957C27.5614 22.7808 25.5393 25.4188 22.797 27.1006C20.0547 28.7825 16.7867 29.3889 13.6235 28.8029C10.4604 28.2169 7.62651 26.4799 5.66872 23.9274C3.71093 21.3748 2.76807 18.1874 3.0221 14.9805C3.27614 11.7737 4.70906 8.77454 7.04431 6.56201C9.37956 4.34949 12.4516 3.08041 15.6675 2.9997C18.8835 2.919 22.0153 4.0324 24.4586 6.12501L27.2923 3.29001C27.48 3.10237 27.7345 2.99695 27.9998 2.99695C28.2652 2.99695 28.5197 3.10237 28.7073 3.29001C28.895 3.47765 29.0004 3.73215 29.0004 3.99751C29.0004 4.26287 28.895 4.51737 28.7073 4.70501L20.9498 12.4638L16.2361 17.1775L13.2423 20.1713C14.0163 20.6832 14.9175 20.9696 15.845 20.9985C16.7725 21.0274 17.6897 20.7976 18.4941 20.3349C19.2984 19.8721 19.9581 19.1946 20.3993 18.3783C20.8405 17.5619 21.0458 16.6389 20.9923 15.7125C20.9774 15.4473 21.0685 15.187 21.2454 14.9889C21.4224 14.7908 21.6709 14.6712 21.9361 14.6563C22.2013 14.6413 22.4616 14.7324 22.6597 14.9094C22.8577 15.0864 22.9774 15.3348 22.9923 15.6C23.073 17.016 22.7216 18.4231 21.9847 19.635C21.2478 20.8468 20.1602 21.8062 18.8659 22.3862C17.5716 22.9661 16.1316 23.1392 14.7368 22.8825C13.3419 22.6258 12.0579 21.9515 11.0548 20.9488C9.80729 19.6966 9.07967 18.0188 9.01806 16.2523C8.95645 14.4858 9.5654 12.7614 10.7227 11.4253C11.8799 10.0892 13.4998 9.2404 15.257 9.0493C17.0142 8.8582 18.7787 9.33894 20.1961 10.395L23.0373 7.54876C20.9533 5.8185 18.3035 4.91921 15.5969 5.0236C12.8902 5.128 10.3176 6.22871 8.37305 8.11434C6.42851 9.99997 5.2492 12.5376 5.06162 15.2397C4.87404 17.9419 5.69142 20.6181 7.35677 22.7543C9.02212 24.8905 11.418 26.3361 14.0843 26.8135C16.7505 27.2909 19.4992 26.7663 21.8022 25.3406C24.1053 23.9149 25.8005 21.6886 26.5621 19.0892C27.3237 16.4898 27.0981 13.7007 25.9286 11.2575C25.8142 11.0182 25.7996 10.7432 25.888 10.493C25.9763 10.2429 26.1605 10.0381 26.3998 9.92376C26.6392 9.80938 26.9142 9.79478 27.1643 9.88316C27.4144 9.97153 27.6192 10.1557 27.7336 10.395Z" fill="white"/>
<path d="M68.6579 11.3C69.7333 14.1883 69.788 17.3576 68.8129 20.2813C67.8378 23.205 65.8917 25.707 63.2979 27.3717C60.7041 29.0363 57.6189 29.7634 54.5547 29.432C51.4906 29.1006 48.6321 27.7307 46.4542 25.55C44.0078 23.1116 42.589 19.8282 42.4899 16.3756C42.3909 12.9229 43.619 9.56357 45.9215 6.9889C48.2241 4.41424 51.426 2.82009 54.8683 2.53453C58.3105 2.24896 61.7313 3.29369 64.4267 5.45374L66.9392 2.93999C67.0787 2.80046 67.2444 2.68978 67.4267 2.61426C67.609 2.53875 67.8044 2.49988 68.0017 2.49988C68.199 2.49988 68.3944 2.53875 68.5767 2.61426C68.759 2.68978 68.9247 2.80046 69.0642 2.93999C69.2037 3.07951 69.3144 3.24516 69.3899 3.42746C69.4654 3.60977 69.5043 3.80516 69.5043 4.00249C69.5043 4.19981 69.4654 4.3952 69.3899 4.57751C69.3144 4.75981 69.2037 4.92546 69.0642 5.06499L57.0642 17.065C56.9247 17.2045 56.759 17.3152 56.5767 17.3907C56.3944 17.4662 56.199 17.5051 56.0017 17.5051C55.8044 17.5051 55.609 17.4662 55.4267 17.3907C55.2444 17.3152 55.0787 17.2045 54.9392 17.065C54.7997 16.9255 54.689 16.7598 54.6135 16.5775C54.538 16.3952 54.4991 16.1998 54.4991 16.0025C54.4991 15.8052 54.538 15.6098 54.6135 15.4275C54.689 15.2452 54.7997 15.0795 54.9392 14.94L57.9392 11.94C57.0937 11.536 56.1431 11.4061 55.2202 11.5683C54.2973 11.7306 53.448 12.1769 52.7909 12.845C52.1339 13.5131 51.7017 14.3696 51.5549 15.2951C51.408 16.2206 51.5537 17.1689 51.9717 18.0075C52.3897 18.8462 53.0591 19.5335 53.8864 19.9735C54.7138 20.4135 55.6579 20.5842 56.5869 20.4618C57.5159 20.3395 58.3836 19.9301 59.0688 19.2909C59.7541 18.6517 60.2226 17.8146 60.4092 16.8962C60.4878 16.5062 60.7181 16.1634 61.0494 15.9431C61.3808 15.7229 61.786 15.6433 62.1761 15.7219C62.5661 15.8004 62.909 16.0307 63.1292 16.3621C63.3494 16.6934 63.429 17.0987 63.3504 17.4887C63.0309 19.0627 62.2146 20.4925 61.0216 21.5678C59.8286 22.643 58.3219 23.3069 56.7233 23.4617C55.1247 23.6165 53.5187 23.2541 52.1415 22.4278C50.7643 21.6014 49.6888 20.3548 49.0732 18.8714C48.4576 17.388 48.3344 15.7462 48.7218 14.1876C49.1092 12.6289 49.9867 11.2358 51.2252 10.2132C52.4637 9.19068 53.9977 8.59268 55.6015 8.50726C57.2053 8.42184 58.7941 8.85351 60.1342 9.73874L62.2879 7.59249C60.2648 6.08155 57.765 5.35028 55.2465 5.53269C52.728 5.7151 50.3596 6.79897 48.5754 8.58568C46.7911 10.3724 45.7104 12.7422 45.5314 15.2609C45.3524 17.7797 46.0871 20.2785 47.6008 22.2996C49.1145 24.3207 51.3058 25.7286 53.7731 26.2653C56.2405 26.802 58.8186 26.4316 61.0351 25.222C63.2516 24.0124 64.9579 22.0445 65.8414 19.679C66.7248 17.3136 66.7263 14.7089 65.8454 12.3425C65.7753 12.1575 65.7425 11.9604 65.7489 11.7627C65.7552 11.5649 65.8007 11.3704 65.8825 11.1902C65.9644 11.0101 66.0811 10.848 66.2259 10.7131C66.3707 10.5783 66.5407 10.4734 66.7262 10.4046C66.9117 10.3358 67.109 10.3043 67.3067 10.312C67.5044 10.3198 67.6986 10.3665 67.8782 10.4496C68.0577 10.5327 68.2191 10.6506 68.3529 10.7963C68.4867 10.942 68.5904 11.1128 68.6579 11.2987V11.3Z" fill="white"/>
</g>
<defs>
<clipPath id="clip0_27_4880">
<rect width="72" height="32" rx="5" fill="white"/>
</clipPath>
</defs>
</svg>
