<svg width="72" height="32" viewBox="0 0 72 32" fill="none" xmlns="http://www.w3.org/2000/svg">
<g clip-path="url(#clip0_27_6850)">
<path d="M30 13H28.58L25.1562 7.00751C24.9813 6.70146 24.7286 6.44708 24.4237 6.27015C24.1188 6.09322 23.7725 6.00003 23.42 6.00001H20.6775L19.1775 2.25751C19.0302 1.88595 18.7745 1.5673 18.4437 1.34303C18.1129 1.11876 17.7222 0.999234 17.3225 1.00001H14.6775C14.2774 0.998731 13.8862 1.11802 13.5548 1.34232C13.2235 1.56663 12.9674 1.88555 12.82 2.25751L11.3225 6.00001H8.58C8.22748 6.00003 7.88123 6.09322 7.57632 6.27015C7.27141 6.44708 7.01869 6.70146 6.84375 7.00751L3.42 13H2C1.73478 13 1.48043 13.1054 1.29289 13.2929C1.10536 13.4804 1 13.7348 1 14C1 14.2652 1.10536 14.5196 1.29289 14.7071C1.48043 14.8947 1.73478 15 2 15H3V25C3 25.5304 3.21071 26.0392 3.58579 26.4142C3.96086 26.7893 4.46957 27 5 27H8C8.53043 27 9.03914 26.7893 9.41421 26.4142C9.78929 26.0392 10 25.5304 10 25V24H22V25C22 25.5304 22.2107 26.0392 22.5858 26.4142C22.9609 26.7893 23.4696 27 24 27H27C27.5304 27 28.0391 26.7893 28.4142 26.4142C28.7893 26.0392 29 25.5304 29 25V15H30C30.2652 15 30.5196 14.8947 30.7071 14.7071C30.8946 14.5196 31 14.2652 31 14C31 13.7348 30.8946 13.4804 30.7071 13.2929C30.5196 13.1054 30.2652 13 30 13ZM10 19H7C6.73478 19 6.48043 18.8947 6.29289 18.7071C6.10536 18.5196 6 18.2652 6 18C6 17.7348 6.10536 17.4804 6.29289 17.2929C6.48043 17.1054 6.73478 17 7 17H10C10.2652 17 10.5196 17.1054 10.7071 17.2929C10.8946 17.4804 11 17.7348 11 18C11 18.2652 10.8946 18.5196 10.7071 18.7071C10.5196 18.8947 10.2652 19 10 19ZM25 19H22C21.7348 19 21.4804 18.8947 21.2929 18.7071C21.1054 18.5196 21 18.2652 21 18C21 17.7348 21.1054 17.4804 21.2929 17.2929C21.4804 17.1054 21.7348 17 22 17H25C25.2652 17 25.5196 17.1054 25.7071 17.2929C25.8946 17.4804 26 17.7348 26 18C26 18.2652 25.8946 18.5196 25.7071 18.7071C25.5196 18.8947 25.2652 19 25 19ZM5.72375 13L8.58 8.00001H23.42L26.2763 13H5.72375Z" fill="white"/>
<path d="M70 12.5H68.875L65.59 6.76002C65.3714 6.37738 65.0556 6.05931 64.6745 5.83804C64.2935 5.61677 63.8607 5.50016 63.42 5.50001H61.015L59.64 2.07126C59.4561 1.607 59.1366 1.20885 58.7233 0.928612C58.31 0.648376 57.8219 0.499033 57.3225 0.500015H54.6775C54.1775 0.498278 53.6886 0.64727 53.2745 0.927554C52.8604 1.20784 52.5404 1.6064 52.3562 2.07126L50.985 5.50001H48.58C48.1393 5.50016 47.7065 5.61677 47.3255 5.83804C46.9444 6.05931 46.6286 6.37738 46.41 6.76002L43.125 12.5H42C41.6022 12.5 41.2206 12.6581 40.9393 12.9394C40.658 13.2207 40.5 13.6022 40.5 14C40.5 14.3978 40.658 14.7794 40.9393 15.0607C41.2206 15.342 41.6022 15.5 42 15.5H42.5V25C42.5 25.6631 42.7634 26.2989 43.2322 26.7678C43.7011 27.2366 44.337 27.5 45 27.5H48.5C49.163 27.5 49.7989 27.2366 50.2678 26.7678C50.7366 26.2989 51 25.6631 51 25V22.5H61V25C61 25.6631 61.2634 26.2989 61.7322 26.7678C62.2011 27.2366 62.837 27.5 63.5 27.5H67C67.663 27.5 68.2989 27.2366 68.7678 26.7678C69.2366 26.2989 69.5 25.6631 69.5 25V15.5H70C70.3978 15.5 70.7794 15.342 71.0607 15.0607C71.342 14.7794 71.5 14.3978 71.5 14C71.5 13.6022 71.342 13.2207 71.0607 12.9394C70.7794 12.6581 70.3978 12.5 70 12.5ZM55.015 3.50002H56.985L57.785 5.50001H54.215L55.015 3.50002ZM48.875 8.50002H63.125L65.41 12.5H46.585L48.875 8.50002ZM48 24.5H45.5V22.5H48V24.5ZM66.5 24.5H64V22.5H66.5V24.5ZM66.5 19.5H45.5V15.5H66.5V19.5Z" fill="white"/>
</g>
<defs>
<clipPath id="clip0_27_6850">
<rect width="72" height="32" rx="5" fill="white"/>
</clipPath>
</defs>
</svg>
