<svg width="72" height="32" viewBox="0 0 72 32" fill="none" xmlns="http://www.w3.org/2000/svg">
<g clip-path="url(#clip0_27_1557)">
<path d="M14 17V9H16.4338C16.7789 9.00111 17.118 9.09105 17.4184 9.26115C17.7187 9.43125 17.9703 9.6758 18.1488 9.97125L20.715 14.25C20.9013 14.5613 20.9998 14.9172 21 15.28V27C21 27.5304 20.7893 28.0391 20.4142 28.4142C20.0391 28.7893 19.5304 29 19 29H7C6.46957 29 5.96086 28.7893 5.58579 28.4142C5.21071 28.0391 5 27.5304 5 27V15.2775C5.00064 14.9156 5.09911 14.5605 5.285 14.25L7.85125 9.97125C8.02974 9.6758 8.28126 9.43125 8.58162 9.26115C8.88199 9.09105 9.22107 9.00111 9.56625 9H12V17C12 17.2652 12.1054 17.5196 12.2929 17.7071C12.4804 17.8946 12.7348 18 13 18C13.2652 18 13.5196 17.8946 13.7071 17.7071C13.8946 17.5196 14 17.2652 14 17ZM28 20C27.4696 20 26.9609 19.7893 26.5858 19.4142C26.2107 19.0391 26 18.5304 26 18V8C26 6.14348 25.2625 4.36301 23.9497 3.05025C22.637 1.7375 20.8565 1 19 1C17.1435 1 15.363 1.7375 14.0503 3.05025C12.7375 4.36301 12 6.14348 12 8V9H14V8C14 6.67392 14.5268 5.40215 15.4645 4.46447C16.4021 3.52678 17.6739 3 19 3C20.3261 3 21.5979 3.52678 22.5355 4.46447C23.4732 5.40215 24 6.67392 24 8V18C24 19.0609 24.4214 20.0783 25.1716 20.8284C25.9217 21.5786 26.9391 22 28 22C28.2652 22 28.5196 21.8946 28.7071 21.7071C28.8946 21.5196 29 21.2652 29 21C29 20.7348 28.8946 20.4804 28.7071 20.2929C28.5196 20.1054 28.2652 20 28 20Z" fill="white"/>
<path d="M68 19.5C67.6022 19.5 67.2206 19.342 66.9393 19.0607C66.658 18.7794 66.5 18.3978 66.5 18V8C66.5 6.01088 65.7098 4.10322 64.3033 2.6967C62.8968 1.29018 60.9891 0.5 59 0.5C57.0109 0.5 55.1032 1.29018 53.6967 2.6967C52.2902 4.10322 51.5 6.01088 51.5 8V8.5H49.5662C49.1348 8.50121 48.7109 8.61352 48.3354 8.8261C47.9599 9.03869 47.6455 9.34439 47.4225 9.71375L44.8562 13.99C44.6233 14.3791 44.5002 14.824 44.5 15.2775V27C44.5 27.663 44.7634 28.2989 45.2322 28.7678C45.7011 29.2366 46.337 29.5 47 29.5H59C59.663 29.5 60.2989 29.2366 60.7678 28.7678C61.2366 28.2989 61.5 27.663 61.5 27V15.2775C61.5 14.8244 61.3769 14.3798 61.1437 13.9913L58.5775 9.71375C58.3545 9.34439 58.0401 9.03869 57.6646 8.8261C57.2891 8.61352 56.8652 8.50121 56.4338 8.5H54.5V8C54.5 6.80653 54.9741 5.66193 55.818 4.81802C56.6619 3.97411 57.8065 3.5 59 3.5C60.1935 3.5 61.3381 3.97411 62.182 4.81802C63.0259 5.66193 63.5 6.80653 63.5 8V18C63.5 19.1935 63.9741 20.3381 64.818 21.182C65.6619 22.0259 66.8065 22.5 68 22.5C68.3978 22.5 68.7794 22.342 69.0607 22.0607C69.342 21.7794 69.5 21.3978 69.5 21C69.5 20.6022 69.342 20.2206 69.0607 19.9393C68.7794 19.658 68.3978 19.5 68 19.5ZM56.1513 11.5L58.5 15.415V26.5H47.5V15.415L49.8488 11.5H51.5V17C51.5 17.3978 51.658 17.7794 51.9393 18.0607C52.2206 18.342 52.6022 18.5 53 18.5C53.3978 18.5 53.7794 18.342 54.0607 18.0607C54.342 17.7794 54.5 17.3978 54.5 17V11.5H56.1513Z" fill="white"/>
</g>
<defs>
<clipPath id="clip0_27_1557">
<rect width="72" height="32" rx="5" fill="white"/>
</clipPath>
</defs>
</svg>
