<svg width="72" height="32" viewBox="0 0 72 32" fill="none" xmlns="http://www.w3.org/2000/svg">
<g clip-path="url(#clip0_27_344)">
<path d="M28.61 3.27376C28.4551 3.13997 28.2666 3.051 28.0648 3.01641C27.863 2.98183 27.6557 3.00296 27.465 3.07751L2.13251 12.9913C1.77349 13.1309 1.46954 13.3833 1.26642 13.7106C1.06329 14.0379 0.97199 14.4224 1.00625 14.806C1.04052 15.1897 1.1985 15.5519 1.4564 15.838C1.71431 16.1241 2.05819 16.3187 2.43626 16.3925L9.00001 17.6813V25C8.99872 25.3987 9.11719 25.7885 9.34006 26.119C9.56294 26.4496 9.87995 26.7055 10.25 26.8538C10.6195 27.0046 11.0258 27.0409 11.4162 26.9577C11.8065 26.8746 12.1628 26.6759 12.4388 26.3875L15.6038 23.105L20.625 27.5C20.9873 27.8213 21.4545 27.9992 21.9388 28C22.151 27.9998 22.3618 27.9665 22.5638 27.9013C22.8937 27.7966 23.1904 27.6073 23.4245 27.3522C23.6585 27.0971 23.8216 26.7852 23.8975 26.4475L28.9713 4.37501C29.0166 4.17595 29.007 3.96829 28.9434 3.77429C28.8797 3.58029 28.7645 3.40727 28.61 3.27376ZM21.9413 26L11.6063 16.9375L26.4813 6.27626L21.9413 26Z" fill="white"/>
<path d="M68.9362 2.89499C68.7124 2.70193 68.4401 2.57359 68.1486 2.52381C67.8572 2.47403 67.5578 2.50469 67.2825 2.61249L41.95 12.5262C41.4902 12.7053 41.101 13.0289 40.841 13.4482C40.5809 13.8676 40.4641 14.36 40.5081 14.8515C40.5521 15.343 40.7545 15.8068 41.0849 16.1734C41.4152 16.5399 41.8557 16.7892 42.34 16.8837L48.5 18.0925V25C48.5 25.4984 48.6489 25.9854 48.9277 26.3985C49.2065 26.8116 49.6024 27.132 50.0645 27.3184C50.5267 27.5049 51.0341 27.549 51.5215 27.4451C52.0089 27.3411 52.4541 27.0938 52.8 26.735L55.6337 23.7962L60.2937 27.875C60.6188 28.1609 61.0125 28.3574 61.4364 28.4455C61.8602 28.5335 62.2997 28.5099 62.7117 28.3771C63.1237 28.2443 63.4942 28.0068 63.7868 27.6879C64.0795 27.3689 64.2843 26.9794 64.3812 26.5575L69.4587 4.48874C69.5248 4.20069 69.5111 3.90007 69.419 3.61924C69.3269 3.33842 69.16 3.08802 68.9362 2.89499ZM57.4262 9.68999L49.6525 15.2612L45.3487 14.4175L57.4262 9.68999ZM51.5 23.7575V20.1687L53.375 21.8125L51.5 23.7575ZM61.645 25.0725L52.41 16.9762L65.6987 7.45374L61.645 25.0725Z" fill="white"/>
</g>
<defs>
<clipPath id="clip0_27_344">
<rect width="72" height="32" rx="5" fill="white"/>
</clipPath>
</defs>
</svg>
