<svg width="72" height="32" viewBox="0 0 72 32" fill="none" xmlns="http://www.w3.org/2000/svg">
<g clip-path="url(#clip0_27_4885)">
<path d="M3.10114 14.4262C3.45023 11.5433 4.75548 8.86047 6.80838 6.80644C8.86127 4.75241 11.5434 3.44567 14.4261 3.09499C14.4944 3.08685 14.5636 3.09286 14.6294 3.11267C14.6953 3.13247 14.7563 3.16564 14.8088 3.2101C14.8612 3.25456 14.9039 3.30936 14.9342 3.37106C14.9645 3.43277 14.9818 3.50007 14.9849 3.56874C15.0467 5.08384 14.794 6.59532 14.2426 8.00788C13.6912 9.42045 12.8532 10.7035 11.7813 11.776C10.7095 12.8486 9.42699 13.6875 8.01479 14.2398C6.60258 14.7921 5.09127 15.0458 3.57614 14.985C3.50735 14.982 3.43992 14.9649 3.37806 14.9347C3.31621 14.9044 3.26126 14.8618 3.21667 14.8093C3.17208 14.7569 3.1388 14.6957 3.11892 14.6298C3.09904 14.5639 3.09298 14.4946 3.10114 14.4262ZM28.4186 17.0137C28.2786 17.0137 28.1399 17.005 27.9999 17.005C26.5192 17.0031 25.0535 17.3007 23.6908 17.8799C22.3281 18.4591 21.0966 19.3079 20.0704 20.3753C19.0443 21.4427 18.2446 22.7066 17.7195 24.091C17.1944 25.4755 16.9547 26.9518 17.0149 28.4312C17.018 28.4999 17.0353 28.5672 17.0656 28.6289C17.0959 28.6906 17.1386 28.7454 17.191 28.7899C17.2435 28.8343 17.3045 28.8675 17.3703 28.8873C17.4362 28.9071 17.5054 28.9131 17.5736 28.905C20.4566 28.5543 23.1388 27.2473 25.1917 25.1931C27.2447 23.1388 28.5498 20.4557 28.8986 17.5725C28.9068 17.5037 28.9006 17.434 28.8804 17.3678C28.8602 17.3015 28.8265 17.2402 28.7814 17.1877C28.7363 17.1351 28.6807 17.0925 28.6183 17.0626C28.5558 17.0327 28.4879 17.016 28.4186 17.0137ZM18.8074 18.8075C20.0118 17.5966 21.4444 16.6366 23.0223 15.9831C24.6002 15.3295 26.292 14.9954 27.9999 15C28.1249 15 28.2574 15 28.3861 15C28.4578 15.0026 28.5292 14.9897 28.5955 14.9622C28.6618 14.9348 28.7213 14.8934 28.7702 14.8408C28.8191 14.7883 28.856 14.7259 28.8786 14.6578C28.9012 14.5897 28.9089 14.5176 28.9011 14.4462C28.5565 11.5527 27.2489 8.8591 25.1885 6.79849C23.1281 4.73787 20.4346 3.42995 17.5411 3.08499C17.4698 3.07724 17.3977 3.08491 17.3296 3.10751C17.2615 3.1301 17.1991 3.16708 17.1466 3.21593C17.094 3.26478 17.0526 3.32437 17.0252 3.39063C16.9977 3.4569 16.9848 3.52831 16.9874 3.59999C17.0442 5.37267 16.7368 7.13815 16.084 8.78725C15.4313 10.4363 14.4471 11.934 13.1924 13.1875C11.9884 14.3993 10.556 15.3602 8.97806 16.0146C7.40015 16.669 5.70811 17.004 3.99989 17C3.87489 17 3.74239 17 3.61364 17C3.54195 16.9974 3.47054 17.0103 3.40428 17.0378C3.33801 17.0652 3.27842 17.1066 3.22957 17.1592C3.18072 17.2117 3.14374 17.2741 3.12115 17.3422C3.09856 17.4103 3.09088 17.4824 3.09864 17.5537C3.44327 20.4473 4.7509 23.1409 6.81129 25.2015C8.87168 27.2621 11.5651 28.57 14.4586 28.915C14.5299 28.9228 14.6021 28.9151 14.6702 28.8925C14.7383 28.8699 14.8007 28.8329 14.8532 28.7841C14.9057 28.7352 14.9471 28.6756 14.9746 28.6094C15.0021 28.5431 15.015 28.4717 15.0124 28.4C14.9548 26.6265 15.262 24.8601 15.9148 23.21C16.5675 21.56 17.5521 20.0616 18.8074 18.8075Z" fill="white"/>
<path d="M65.5497 6.45001C63.6612 4.56315 61.2557 3.27854 58.6373 2.75857C56.0189 2.2386 53.3051 2.50661 50.8389 3.52873C48.3728 4.55085 46.2651 6.28119 44.7822 8.501C43.2993 10.7208 42.5078 13.3304 42.5078 16C42.5078 18.6696 43.2993 21.2792 44.7822 23.499C46.2651 25.7188 48.3728 27.4492 50.8389 28.4713C53.3051 29.4934 56.0189 29.7614 58.6373 29.2414C61.2557 28.7215 63.6612 27.4369 65.5497 25.55C68.079 23.0153 69.4995 19.5808 69.4995 16C69.4995 12.4192 68.079 8.98467 65.5497 6.45001ZM48.5722 8.57501C50.1364 7.0069 52.1589 5.97721 54.3472 5.63501C53.9969 7.82015 52.9659 9.83898 51.401 11.4038C49.8362 12.9687 47.8173 13.9997 45.6322 14.35C45.9739 12.1609 47.0036 10.1373 48.5722 8.57251V8.57501ZM45.5922 17.3838C48.5956 17.0284 51.3907 15.6681 53.5234 13.5238C55.6677 11.391 57.0281 8.59592 57.3834 5.59251C59.6711 5.89343 61.7956 6.94094 63.4272 8.57252C65.0588 10.2041 66.1063 12.3286 66.4072 14.6163C63.4063 14.9796 60.6139 16.3385 58.4764 18.4759C56.3388 20.6132 54.9796 23.4054 54.6159 26.4063C52.3283 26.1058 50.2037 25.0586 48.5721 23.4272C46.9405 21.7958 45.893 19.6714 45.5922 17.3838ZM63.4272 23.4275C61.8627 24.9952 59.8403 26.0248 57.6522 26.3675C58.0025 24.1824 59.0335 22.1635 60.5984 20.5987C62.1632 19.0338 64.1821 18.0028 66.3672 17.6525C66.025 19.8408 64.9953 21.8633 63.4272 23.4275Z" fill="white"/>
</g>
<defs>
<clipPath id="clip0_27_4885">
<rect width="72" height="32" rx="5" fill="white"/>
</clipPath>
</defs>
</svg>
