<svg width="72" height="32" viewBox="0 0 72 32" fill="none" xmlns="http://www.w3.org/2000/svg">
<g clip-path="url(#clip0_27_6855)">
<path d="M31.9137 23.5938L23.9137 5.59375C23.8352 5.41702 23.707 5.26686 23.5448 5.16148C23.3827 5.05609 23.1934 5 23 5H8.99999C8.80658 5 8.61731 5.05609 8.45513 5.16148C8.29295 5.26686 8.16481 5.41702 8.08624 5.59375V5.60875L0.0862383 23.5938C0.0185488 23.746 -0.0100246 23.9128 0.0031141 24.0789C0.0162528 24.245 0.0706872 24.4051 0.161471 24.5449C0.252256 24.6846 0.376512 24.7994 0.522951 24.8789C0.669389 24.9584 0.833368 25 0.999988 25H31C31.1666 25 31.3306 24.9584 31.477 24.8789C31.6235 24.7994 31.7477 24.6846 31.8385 24.5449C31.9293 24.4051 31.9837 24.245 31.9969 24.0789C32.01 23.9128 31.9814 23.746 31.9137 23.5938ZM7.99999 23H2.53874L7.99999 10.7125V23ZM9.99999 23V10.7125L15.4612 23H9.99999Z" fill="white"/>
<path d="M71.8752 23.3913L63.8752 5.39126C63.7571 5.12536 63.5643 4.89953 63.3201 4.74129C63.076 4.58305 62.7911 4.49921 62.5002 4.50001H49.5002C49.2156 4.5003 48.9369 4.58155 48.6968 4.73427C48.4566 4.887 48.2649 5.10489 48.1439 5.36251C48.1384 5.37181 48.1334 5.38141 48.1289 5.39126L48.1252 5.41251L40.1252 23.3913C40.0236 23.6199 39.9809 23.8704 40.0009 24.1198C40.0209 24.3692 40.1029 24.6097 40.2396 24.8193C40.3763 25.0289 40.5632 25.201 40.7834 25.3199C41.0035 25.4388 41.25 25.5007 41.5002 25.5H70.5002C70.7504 25.5007 70.9968 25.4388 71.217 25.3199C71.4371 25.201 71.6241 25.0289 71.7607 24.8193C71.8974 24.6097 71.9795 24.3692 71.9995 24.1198C72.0195 23.8704 71.9767 23.6199 71.8752 23.3913ZM48.0002 13.0688V22.5H43.8077L48.0002 13.0688ZM51.0002 22.5V13.0688L55.1927 22.5H51.0002ZM58.4752 22.5L51.8089 7.50001H61.5252L68.1927 22.5H58.4752Z" fill="white"/>
</g>
<defs>
<clipPath id="clip0_27_6855">
<rect width="72" height="32" rx="5" fill="white"/>
</clipPath>
</defs>
</svg>
