<svg width="72" height="32" viewBox="0 0 72 32" fill="none" xmlns="http://www.w3.org/2000/svg">
<g clip-path="url(#clip0_27_3603)">
<path d="M27 5H5C4.46957 5 3.96086 5.21071 3.58579 5.58579C3.21071 5.96086 3 6.46957 3 7V25C3 25.5304 3.21071 26.0391 3.58579 26.4142C3.96086 26.7893 4.46957 27 5 27H27C27.5304 27 28.0391 26.7893 28.4142 26.4142C28.7893 26.0391 29 25.5304 29 25V7C29 6.46957 28.7893 5.96086 28.4142 5.58579C28.0391 5.21071 27.5304 5 27 5ZM9.7075 21.7075C9.51986 21.8951 9.26536 22.0006 9 22.0006C8.73464 22.0006 8.48014 21.8951 8.2925 21.7075C8.10486 21.5199 7.99944 21.2654 7.99944 21C7.99944 20.7346 8.10486 20.4801 8.2925 20.2925L12.5863 16L8.2925 11.7075C8.10486 11.5199 7.99944 11.2654 7.99944 11C7.99944 10.7346 8.10486 10.4801 8.2925 10.2925C8.48014 10.1049 8.73464 9.99944 9 9.99944C9.26536 9.99944 9.51986 10.1049 9.7075 10.2925L14.7075 15.2925C14.8005 15.3854 14.8742 15.4957 14.9246 15.6171C14.9749 15.7385 15.0008 15.8686 15.0008 16C15.0008 16.1314 14.9749 16.2615 14.9246 16.3829C14.8742 16.5043 14.8005 16.6146 14.7075 16.7075L9.7075 21.7075ZM24 22H16C15.7348 22 15.4804 21.8946 15.2929 21.7071C15.1054 21.5196 15 21.2652 15 21C15 20.7348 15.1054 20.4804 15.2929 20.2929C15.4804 20.1054 15.7348 20 16 20H24C24.2652 20 24.5196 20.1054 24.7071 20.2929C24.8946 20.4804 25 20.7348 25 21C25 21.2652 24.8946 21.5196 24.7071 21.7071C24.5196 21.8946 24.2652 22 24 22Z" fill="white"/>
<path d="M55.0003 17.125L46.0003 25.125C45.702 25.3902 45.3104 25.526 44.9119 25.5026C44.5134 25.4792 44.1405 25.2984 43.8753 25C43.6101 24.7016 43.4743 24.3101 43.4977 23.9116C43.5212 23.5131 43.702 23.1402 44.0003 22.875L51.7391 16L44.0003 9.125C43.702 8.85978 43.5212 8.4869 43.4977 8.08839C43.4743 7.68987 43.6101 7.29837 43.8753 7C44.1405 6.70163 44.5134 6.52084 44.9119 6.4974C45.3104 6.47395 45.702 6.60978 46.0003 6.875L55.0003 14.875C55.1599 15.0158 55.2878 15.1889 55.3753 15.3828C55.4629 15.5768 55.5082 15.7872 55.5082 16C55.5082 16.2128 55.4629 16.4232 55.3753 16.6172C55.2878 16.8111 55.1599 16.9842 55.0003 17.125ZM67.0003 22.5H55.0003C54.6025 22.5 54.221 22.658 53.9397 22.9393C53.6584 23.2206 53.5003 23.6022 53.5003 24C53.5003 24.3978 53.6584 24.7794 53.9397 25.0607C54.221 25.342 54.6025 25.5 55.0003 25.5H67.0003C67.3981 25.5 67.7797 25.342 68.061 25.0607C68.3423 24.7794 68.5003 24.3978 68.5003 24C68.5003 23.6022 68.3423 23.2206 68.061 22.9393C67.7797 22.658 67.3981 22.5 67.0003 22.5Z" fill="white"/>
</g>
<defs>
<clipPath id="clip0_27_3603">
<rect width="72" height="32" rx="5" fill="white"/>
</clipPath>
</defs>
</svg>
