<svg width="72" height="32" viewBox="0 0 72 32" fill="none" xmlns="http://www.w3.org/2000/svg">
<g clip-path="url(#clip0_27_5026)">
<path d="M29.708 10.7925L22.208 3.29249C22.1151 3.19952 22.0048 3.12576 21.8834 3.07543C21.762 3.02511 21.6319 2.99921 21.5005 2.99921C21.3691 2.99921 21.239 3.02511 21.1176 3.07543C20.9962 3.12576 20.8859 3.19952 20.793 3.29249L4.63925 19.4462C3.58966 20.4958 3 21.9194 3 23.4037C3 24.8881 3.58966 26.3116 4.63925 27.3612C5.68884 28.4108 7.1124 29.0005 8.59675 29.0005C10.0811 29.0005 11.5047 28.4108 12.5543 27.3612L26.5405 13.375L29.3167 12.45C29.4786 12.3962 29.6239 12.3019 29.739 12.176C29.8541 12.0502 29.9352 11.897 29.9744 11.731C30.0136 11.565 30.0097 11.3918 29.9631 11.2277C29.9164 11.0637 29.8286 10.9143 29.708 10.7937V10.7925ZM25.6842 11.5512C25.5369 11.6002 25.4029 11.6828 25.293 11.7925L20.3468 16.7387C19.288 17.1012 17.628 17.2387 15.463 16.1137C14.138 15.4212 12.9405 15.1137 11.893 15.0225L21.5005 5.41374L27.1493 11.0625L25.6842 11.5512Z" fill="white"/>
<path d="M70.0606 10.4388L62.5606 2.93876C62.4212 2.79892 62.2556 2.68796 62.0733 2.61225C61.891 2.53655 61.6955 2.49757 61.4981 2.49757C61.3007 2.49757 61.1052 2.53655 60.9229 2.61225C60.7405 2.68796 60.5749 2.79892 60.4356 2.93876L44.2843 19.0938C43.1406 20.2375 42.498 21.7888 42.498 23.4063C42.498 25.0238 43.1406 26.575 44.2843 27.7188C45.4281 28.8625 46.9793 29.5051 48.5968 29.5051C50.2143 29.5051 51.7656 28.8625 52.9093 27.7188L66.8093 13.8113L69.4731 12.9225C69.7158 12.8418 69.9338 12.7004 70.1064 12.5117C70.279 12.323 70.4005 12.0933 70.4594 11.8444C70.5183 11.5956 70.5125 11.3358 70.4427 11.0898C70.3729 10.8437 70.2414 10.6196 70.0606 10.4388ZM50.7843 25.5938C50.1965 26.1348 49.4222 26.4277 48.6234 26.4111C47.8246 26.3946 47.0631 26.0699 46.4982 25.5049C45.9332 24.94 45.6085 24.1785 45.592 23.3797C45.5754 22.5809 45.8683 21.8066 46.4093 21.2188L49.9256 17.7025C50.8918 17.4013 52.3731 17.3275 54.3081 18.3275C55.1716 18.7871 56.0951 19.1237 57.0518 19.3275L50.7843 25.5938ZM65.5243 11.0775C65.3038 11.1514 65.1033 11.275 64.9381 11.4388L60.0768 16.3013C59.1106 16.6025 57.6293 16.6763 55.6943 15.6763C54.8312 15.2168 53.9081 14.8802 52.9518 14.6763L61.4993 6.12501L66.2231 10.8488L65.5243 11.0775Z" fill="white"/>
</g>
<defs>
<clipPath id="clip0_27_5026">
<rect width="72" height="32" rx="5" fill="white"/>
</clipPath>
</defs>
</svg>
