<svg width="72" height="32" viewBox="0 0 72 32" fill="none" xmlns="http://www.w3.org/2000/svg">
<g clip-path="url(#clip0_27_7496)">
<path d="M26 4H6C5.46957 4 4.96086 4.21071 4.58579 4.58579C4.21071 4.96086 4 5.46957 4 6V26C4 26.5304 4.21071 27.0391 4.58579 27.4142C4.96086 27.7893 5.46957 28 6 28H26C26.5304 28 27.0391 27.7893 27.4142 27.4142C27.7893 27.0391 28 26.5304 28 26V6C28 5.46957 27.7893 4.96086 27.4142 4.58579C27.0391 4.21071 26.5304 4 26 4ZM16 20C16 20.2652 15.8946 20.5196 15.7071 20.7071C15.5196 20.8946 15.2652 21 15 21C14.7348 21 14.4804 20.8946 14.2929 20.7071C14.1054 20.5196 14 20.2652 14 20V16H9V20C9 20.2652 8.89464 20.5196 8.70711 20.7071C8.51957 20.8946 8.26522 21 8 21C7.73478 21 7.48043 20.8946 7.29289 20.7071C7.10536 20.5196 7 20.2652 7 20V10C7 9.73478 7.10536 9.48043 7.29289 9.29289C7.48043 9.10536 7.73478 9 8 9C8.26522 9 8.51957 9.10536 8.70711 9.29289C8.89464 9.48043 9 9.73478 9 10V14H14V10C14 9.73478 14.1054 9.48043 14.2929 9.29289C14.4804 9.10536 14.7348 9 15 9C15.2652 9 15.5196 9.10536 15.7071 9.29289C15.8946 9.48043 16 9.73478 16 10V20ZM24 23H19C18.8143 23 18.6322 22.9483 18.4743 22.8507C18.3163 22.753 18.1886 22.6133 18.1056 22.4472C18.0225 22.2811 17.9874 22.0952 18.004 21.9102C18.0207 21.7252 18.0886 21.5486 18.2 21.4L22.7 15.4C22.8229 15.2432 22.9133 15.0634 22.966 14.8713C23.0187 14.6791 23.0325 14.4784 23.0068 14.2808C22.981 14.0832 22.9161 13.8928 22.816 13.7205C22.7158 13.5483 22.5823 13.3977 22.4233 13.2777C22.2642 13.1576 22.0829 13.0704 21.8898 13.0212C21.6968 12.972 21.4958 12.9618 21.2987 12.9911C21.1016 13.0204 20.9124 13.0886 20.742 13.1919C20.5716 13.2952 20.4234 13.4314 20.3062 13.5925C20.1576 13.768 20.0477 13.9729 19.9837 14.1938C19.9588 14.3235 19.9083 14.4471 19.8353 14.5572C19.7623 14.6674 19.6682 14.762 19.5584 14.8355C19.4486 14.9091 19.3253 14.9601 19.1956 14.9858C19.066 15.0114 18.9325 15.011 18.803 14.9848C18.6735 14.9585 18.5505 14.9068 18.441 14.8327C18.3316 14.7586 18.238 14.6636 18.1655 14.553C18.093 14.4425 18.0432 14.3187 18.0189 14.1888C17.9945 14.0589 17.9962 13.9255 18.0238 13.7963C18.129 13.2793 18.349 12.7926 18.6676 12.3721C18.9862 11.9516 19.3952 11.608 19.8644 11.3668C20.3336 11.1256 20.851 10.9929 21.3784 10.9786C21.9058 10.9642 22.4296 11.0685 22.9113 11.2838C23.3929 11.4991 23.82 11.8199 24.161 12.2224C24.502 12.625 24.7482 13.099 24.8814 13.6095C25.0146 14.12 25.0314 14.6538 24.9306 15.1717C24.8297 15.6895 24.6138 16.1781 24.2987 16.6012L21 21H24C24.2652 21 24.5196 21.1054 24.7071 21.2929C24.8946 21.4804 25 21.7348 25 22C25 22.2652 24.8946 22.5196 24.7071 22.7071C24.5196 22.8946 24.2652 23 24 23Z" fill="white"/>
<path d="M59.5 7V22C59.5 22.3978 59.342 22.7794 59.0607 23.0607C58.7794 23.342 58.3978 23.5 58 23.5C57.6022 23.5 57.2206 23.342 56.9393 23.0607C56.658 22.7794 56.5 22.3978 56.5 22V16H46.5V22C46.5 22.3978 46.342 22.7794 46.0607 23.0607C45.7794 23.342 45.3978 23.5 45 23.5C44.6022 23.5 44.2206 23.342 43.9393 23.0607C43.658 22.7794 43.5 22.3978 43.5 22V7C43.5 6.60218 43.658 6.22064 43.9393 5.93934C44.2206 5.65804 44.6022 5.5 45 5.5C45.3978 5.5 45.7794 5.65804 46.0607 5.93934C46.342 6.22064 46.5 6.60218 46.5 7V13H56.5V7C56.5 6.60218 56.658 6.22064 56.9393 5.93934C57.2206 5.65804 57.6022 5.5 58 5.5C58.3978 5.5 58.7794 5.65804 59.0607 5.93934C59.342 6.22064 59.5 6.60218 59.5 7ZM70 24.5H67L70.5925 19.7087C70.983 19.1905 71.2569 18.594 71.3952 17.96C71.5336 17.326 71.5332 16.6696 71.3941 16.0358C71.255 15.4019 70.9804 14.8057 70.5893 14.2879C70.1981 13.7702 69.6996 13.3431 69.1279 13.0361C68.5563 12.729 67.925 12.5493 67.2773 12.5091C66.6296 12.4689 65.9809 12.5693 65.3757 12.8034C64.7705 13.0374 64.223 13.3996 63.7709 13.865C63.3187 14.3305 62.9726 14.8882 62.7563 15.5C62.6236 15.8751 62.6455 16.2875 62.817 16.6466C62.9884 17.0056 63.2955 17.2818 63.6706 17.4144C64.0457 17.547 64.4582 17.5251 64.8172 17.3537C65.1762 17.1822 65.4524 16.8751 65.585 16.5C65.6355 16.3553 65.7085 16.2195 65.8013 16.0975C65.9184 15.9364 66.0666 15.8002 66.237 15.6969C66.4074 15.5936 66.5966 15.5254 66.7937 15.4961C66.9908 15.4668 67.1918 15.477 67.3848 15.5262C67.5779 15.5754 67.7592 15.6626 67.9183 15.7827C68.0773 15.9027 68.2108 16.0533 68.311 16.2255C68.4111 16.3977 68.476 16.5882 68.5018 16.7858C68.5275 16.9834 68.5137 17.1841 68.461 17.3763C68.4083 17.5684 68.3179 17.7482 68.195 17.905L62.8 25.1C62.6329 25.3229 62.5311 25.5878 62.5061 25.8653C62.481 26.1427 62.5338 26.4217 62.6584 26.6708C62.7829 26.92 62.9744 27.1295 63.2114 27.276C63.4484 27.4224 63.7214 27.5 64 27.5H70C70.3978 27.5 70.7794 27.342 71.0607 27.0607C71.342 26.7794 71.5 26.3978 71.5 26C71.5 25.6022 71.342 25.2206 71.0607 24.9393C70.7794 24.658 70.3978 24.5 70 24.5Z" fill="white"/>
</g>
<defs>
<clipPath id="clip0_27_7496">
<rect width="72" height="32" rx="5" fill="white"/>
</clipPath>
</defs>
</svg>
