<svg width="72" height="32" viewBox="0 0 72 32" fill="none" xmlns="http://www.w3.org/2000/svg">
<g clip-path="url(#clip0_27_7456)">
<path d="M21 19.5C21 20.163 20.7366 20.7989 20.2678 21.2678C19.7989 21.7366 19.163 22 18.5 22H12V17H18.5C19.163 17 19.7989 17.2634 20.2678 17.7322C20.7366 18.2011 21 18.837 21 19.5ZM28 6V26C28 26.5304 27.7893 27.0391 27.4142 27.4142C27.0391 27.7893 26.5304 28 26 28H6C5.46957 28 4.96086 27.7893 4.58579 27.4142C4.21071 27.0391 4 26.5304 4 26V6C4 5.46957 4.21071 4.96086 4.58579 4.58579C4.96086 4.21071 5.46957 4 6 4H26C26.5304 4 27.0391 4.21071 27.4142 4.58579C27.7893 4.96086 28 5.46957 28 6ZM23 19.5C22.9994 18.7107 22.7912 17.9354 22.3963 17.2519C22.0013 16.5685 21.4336 16.0009 20.75 15.6062C21.3578 14.9692 21.7653 14.1678 21.9221 13.3014C22.0789 12.4349 21.9781 11.5416 21.6321 10.7319C21.2862 9.92219 20.7103 9.23179 19.9758 8.7462C19.2413 8.26061 18.3805 8.00116 17.5 8H11C10.7348 8 10.4804 8.10536 10.2929 8.29289C10.1054 8.48043 10 8.73478 10 9V23C10 23.2652 10.1054 23.5196 10.2929 23.7071C10.4804 23.8946 10.7348 24 11 24H18.5C19.6935 24 20.8381 23.5259 21.682 22.682C22.5259 21.8381 23 20.6935 23 19.5ZM20 12.5C20 11.837 19.7366 11.2011 19.2678 10.7322C18.7989 10.2634 18.163 10 17.5 10H12V15H17.5C18.163 15 18.7989 14.7366 19.2678 14.2678C19.7366 13.7989 20 13.163 20 12.5Z" fill="white"/>
<path d="M63.135 14.3075C63.8562 13.4291 64.3131 12.364 64.4526 11.2361C64.592 10.1082 64.4082 8.96384 63.9226 7.9363C63.437 6.90876 62.6695 6.04027 61.7095 5.43193C60.7495 4.82358 59.6365 4.5004 58.5 4.5H50C49.6022 4.5 49.2206 4.65804 48.9393 4.93934C48.658 5.22064 48.5 5.60218 48.5 6V25C48.5 25.3978 48.658 25.7794 48.9393 26.0607C49.2206 26.342 49.6022 26.5 50 26.5H60C61.4417 26.4994 62.8422 26.0195 63.9813 25.1359C65.1205 24.2522 65.9335 23.0149 66.2925 21.6187C66.6515 20.2224 66.5361 18.7464 65.9645 17.4229C65.393 16.0994 64.3976 15.0034 63.135 14.3075ZM51.5 7.5H58.5C59.2956 7.5 60.0587 7.81607 60.6213 8.37868C61.1839 8.94129 61.5 9.70435 61.5 10.5C61.5 11.2956 61.1839 12.0587 60.6213 12.6213C60.0587 13.1839 59.2956 13.5 58.5 13.5H51.5V7.5ZM60 23.5H51.5V16.5H60C60.9283 16.5 61.8185 16.8687 62.4749 17.5251C63.1313 18.1815 63.5 19.0717 63.5 20C63.5 20.9283 63.1313 21.8185 62.4749 22.4749C61.8185 23.1313 60.9283 23.5 60 23.5Z" fill="white"/>
</g>
<defs>
<clipPath id="clip0_27_7456">
<rect width="72" height="32" rx="5" fill="white"/>
</clipPath>
</defs>
</svg>
