<svg width="72" height="32" viewBox="0 0 72 32" fill="none" xmlns="http://www.w3.org/2000/svg">
<g clip-path="url(#clip0_27_7536)">
<path d="M26 4H6C5.46957 4 4.96086 4.21071 4.58579 4.58579C4.21071 4.96086 4 5.46957 4 6V26C4 26.5304 4.21071 27.0391 4.58579 27.4142C4.96086 27.7893 5.46957 28 6 28H26C26.5304 28 27.0391 27.7893 27.4142 27.4142C27.7893 27.0391 28 26.5304 28 26V6C28 5.46957 27.7893 4.96086 27.4142 4.58579C27.0391 4.21071 26.5304 4 26 4ZM16 9H22C22.2652 9 22.5196 9.10536 22.7071 9.29289C22.8946 9.48043 23 9.73478 23 10V12C23 12.2652 22.8946 12.5196 22.7071 12.7071C22.5196 12.8946 22.2652 13 22 13C21.7348 13 21.4804 12.8946 21.2929 12.7071C21.1054 12.5196 21 12.2652 21 12V11H16C15.7348 11 15.4804 10.8946 15.2929 10.7071C15.1054 10.5196 15 10.2652 15 10C15 9.73478 15.1054 9.48043 15.2929 9.29289C15.4804 9.10536 15.7348 9 16 9ZM23.6588 24.75C23.5599 24.8365 23.445 24.9027 23.3206 24.9448C23.1962 24.987 23.0648 25.0042 22.9337 24.9954C22.8027 24.9867 22.6746 24.9523 22.5569 24.8941C22.4391 24.8359 22.334 24.7551 22.2475 24.6562L16.9975 18.6562V22H18.4975C18.7627 22 19.0171 22.1054 19.2046 22.2929C19.3921 22.4804 19.4975 22.7348 19.4975 23C19.4975 23.2652 19.3921 23.5196 19.2046 23.7071C19.0171 23.8946 18.7627 24 18.4975 24H13.5C13.2348 24 12.9804 23.8946 12.7929 23.7071C12.6054 23.5196 12.5 23.2652 12.5 23C12.5 22.7348 12.6054 22.4804 12.7929 22.2929C12.9804 22.1054 13.2348 22 13.5 22H15V16.375L11 11.8038V12C11 12.2652 10.8946 12.5196 10.7071 12.7071C10.5196 12.8946 10.2652 13 10 13C9.73478 13 9.48043 12.8946 9.29289 12.7071C9.10536 12.5196 9 12.2652 9 12V10C9.00013 9.86566 9.0269 9.73268 9.07875 9.60875L8.25 8.65875C8.09349 8.45755 8.01972 8.20418 8.04377 7.95041C8.06782 7.69664 8.18787 7.46164 8.37939 7.29342C8.57091 7.1252 8.81944 7.03647 9.07419 7.04536C9.32893 7.05425 9.57067 7.16009 9.75 7.34125L23.75 23.3412C23.9243 23.5404 24.0125 23.8004 23.9954 24.0645C23.9783 24.3285 23.8572 24.575 23.6588 24.75Z" fill="white"/>
<path d="M67.0091 28.11C66.7147 28.3775 66.3261 28.5171 65.9288 28.4981C65.5315 28.4792 65.1579 28.3031 64.8904 28.0088L57.5004 19.875V23.5H60.0004C60.3982 23.5 60.7797 23.658 61.061 23.9393C61.3423 24.2206 61.5004 24.6022 61.5004 25C61.5004 25.3978 61.3423 25.7794 61.061 26.0607C60.7797 26.342 60.3982 26.5 60.0004 26.5H52.0004C51.6026 26.5 51.221 26.342 50.9397 26.0607C50.6584 25.7794 50.5004 25.3978 50.5004 25C50.5004 24.6022 50.6584 24.2206 50.9397 23.9393C51.221 23.658 51.6026 23.5 52.0004 23.5H54.5004V16.58L48.5004 9.98V11C48.5004 11.3978 48.3423 11.7794 48.061 12.0607C47.7797 12.342 47.3982 12.5 47.0004 12.5C46.6026 12.5 46.221 12.342 45.9397 12.0607C45.6584 11.7794 45.5004 11.3978 45.5004 11V7C45.5004 6.90304 45.51 6.80632 45.5291 6.71125L44.8904 6.00875C44.7551 5.86347 44.6501 5.69278 44.5813 5.50659C44.5125 5.3204 44.4813 5.1224 44.4896 4.92408C44.4979 4.72575 44.5454 4.53105 44.6295 4.35124C44.7136 4.17144 44.8326 4.01011 44.9795 3.87661C45.1264 3.74312 45.2983 3.6401 45.4853 3.57354C45.6723 3.50698 45.8707 3.4782 46.0689 3.48886C46.2671 3.49952 46.4612 3.54942 46.64 3.63566C46.8188 3.7219 46.9786 3.84277 47.1104 3.99125L67.1104 25.9913C67.3779 26.2857 67.5175 26.6743 67.4985 27.0716C67.4795 27.4689 67.3035 27.8425 67.0091 28.11ZM54.5004 8.5V8.57125C54.5004 8.96908 54.6584 9.35061 54.9397 9.63191C55.221 9.91322 55.6026 10.0713 56.0004 10.0713C56.3982 10.0713 56.7797 9.91322 57.061 9.63191C57.3423 9.35061 57.5004 8.96908 57.5004 8.57125V8.5H63.5004V11C63.5004 11.3978 63.6584 11.7794 63.9397 12.0607C64.221 12.342 64.6026 12.5 65.0004 12.5C65.3982 12.5 65.7797 12.342 66.061 12.0607C66.3423 11.7794 66.5004 11.3978 66.5004 11V7C66.5004 6.60218 66.3423 6.22065 66.061 5.93934C65.7797 5.65804 65.3982 5.5 65.0004 5.5H54.5754C54.1776 5.49006 53.7921 5.63856 53.5037 5.91283C53.2154 6.1871 53.0478 6.56468 53.0379 6.9625C53.0279 7.36033 53.1764 7.74581 53.4507 8.03415C53.725 8.32248 54.1026 8.49006 54.5004 8.5Z" fill="white"/>
</g>
<defs>
<clipPath id="clip0_27_7536">
<rect width="72" height="32" rx="5" fill="white"/>
</clipPath>
</defs>
</svg>
