<svg width="72" height="32" viewBox="0 0 72 32" fill="none" xmlns="http://www.w3.org/2000/svg">
<g clip-path="url(#clip0_27_7446)">
<path d="M26 4H6C5.46957 4 4.96086 4.21071 4.58579 4.58579C4.21071 4.96086 4 5.46957 4 6V26C4 26.5304 4.21071 27.0391 4.58579 27.4142C4.96086 27.7893 5.46957 28 6 28H26C26.5304 28 27.0391 27.7893 27.4142 27.4142C27.7893 27.0391 28 26.5304 28 26V6C28 5.46957 27.7893 4.96086 27.4142 4.58579C27.0391 4.21071 26.5304 4 26 4ZM20 23H8C7.73478 23 7.48043 22.8946 7.29289 22.7071C7.10536 22.5196 7 22.2652 7 22C7 21.7348 7.10536 21.4804 7.29289 21.2929C7.48043 21.1054 7.73478 21 8 21H20C20.2652 21 20.5196 21.1054 20.7071 21.2929C20.8946 21.4804 21 21.7348 21 22C21 22.2652 20.8946 22.5196 20.7071 22.7071C20.5196 22.8946 20.2652 23 20 23ZM24 19H8C7.73478 19 7.48043 18.8946 7.29289 18.7071C7.10536 18.5196 7 18.2652 7 18C7 17.7348 7.10536 17.4804 7.29289 17.2929C7.48043 17.1054 7.73478 17 8 17H24C24.2652 17 24.5196 17.1054 24.7071 17.2929C24.8946 17.4804 25 17.7348 25 18C25 18.2652 24.8946 18.5196 24.7071 18.7071C24.5196 18.8946 24.2652 19 24 19ZM7 14C7 13.7348 7.10536 13.4804 7.29289 13.2929C7.48043 13.1054 7.73478 13 8 13H20C20.2652 13 20.5196 13.1054 20.7071 13.2929C20.8946 13.4804 21 13.7348 21 14C21 14.2652 20.8946 14.5196 20.7071 14.7071C20.5196 14.8946 20.2652 15 20 15H8C7.73478 15 7.48043 14.8946 7.29289 14.7071C7.10536 14.5196 7 14.2652 7 14ZM24 11H8C7.73478 11 7.48043 10.8946 7.29289 10.7071C7.10536 10.5196 7 10.2652 7 10C7 9.73478 7.10536 9.48043 7.29289 9.29289C7.48043 9.10536 7.73478 9 8 9H24C24.2652 9 24.5196 9.10536 24.7071 9.29289C24.8946 9.48043 25 9.73478 25 10C25 10.2652 24.8946 10.5196 24.7071 10.7071C24.5196 10.8946 24.2652 11 24 11Z" fill="white"/>
<path d="M43.5 8C43.5 7.60218 43.658 7.22064 43.9393 6.93934C44.2206 6.65804 44.6022 6.5 45 6.5H67C67.3978 6.5 67.7794 6.65804 68.0607 6.93934C68.342 7.22064 68.5 7.60218 68.5 8C68.5 8.39782 68.342 8.77936 68.0607 9.06066C67.7794 9.34196 67.3978 9.5 67 9.5H45C44.6022 9.5 44.2206 9.34196 43.9393 9.06066C43.658 8.77936 43.5 8.39782 43.5 8ZM45 14.5H61C61.3978 14.5 61.7794 14.342 62.0607 14.0607C62.342 13.7794 62.5 13.3978 62.5 13C62.5 12.6022 62.342 12.2206 62.0607 11.9393C61.7794 11.658 61.3978 11.5 61 11.5H45C44.6022 11.5 44.2206 11.658 43.9393 11.9393C43.658 12.2206 43.5 12.6022 43.5 13C43.5 13.3978 43.658 13.7794 43.9393 14.0607C44.2206 14.342 44.6022 14.5 45 14.5ZM67 16.5H45C44.6022 16.5 44.2206 16.658 43.9393 16.9393C43.658 17.2206 43.5 17.6022 43.5 18C43.5 18.3978 43.658 18.7794 43.9393 19.0607C44.2206 19.342 44.6022 19.5 45 19.5H67C67.3978 19.5 67.7794 19.342 68.0607 19.0607C68.342 18.7794 68.5 18.3978 68.5 18C68.5 17.6022 68.342 17.2206 68.0607 16.9393C67.7794 16.658 67.3978 16.5 67 16.5ZM61 21.5H45C44.6022 21.5 44.2206 21.658 43.9393 21.9393C43.658 22.2206 43.5 22.6022 43.5 23C43.5 23.3978 43.658 23.7794 43.9393 24.0607C44.2206 24.342 44.6022 24.5 45 24.5H61C61.3978 24.5 61.7794 24.342 62.0607 24.0607C62.342 23.7794 62.5 23.3978 62.5 23C62.5 22.6022 62.342 22.2206 62.0607 21.9393C61.7794 21.658 61.3978 21.5 61 21.5Z" fill="white"/>
</g>
<defs>
<clipPath id="clip0_27_7446">
<rect width="72" height="32" rx="5" fill="white"/>
</clipPath>
</defs>
</svg>
