<svg width="72" height="32" viewBox="0 0 72 32" fill="none" xmlns="http://www.w3.org/2000/svg">
<g clip-path="url(#clip0_27_7531)">
<path d="M26 4H6C5.46957 4 4.96086 4.21071 4.58579 4.58579C4.21071 4.96086 4 5.46957 4 6V26C4 26.5304 4.21071 27.0391 4.58579 27.4142C4.96086 27.7893 5.46957 28 6 28H26C26.5304 28 27.0391 27.7893 27.4142 27.4142C27.7893 27.0391 28 26.5304 28 26V6C28 5.46957 27.7893 4.96086 27.4142 4.58579C27.0391 4.21071 26.5304 4 26 4ZM23 12C23 12.2652 22.8946 12.5196 22.7071 12.7071C22.5196 12.8946 22.2652 13 22 13C21.7348 13 21.4804 12.8946 21.2929 12.7071C21.1054 12.5196 21 12.2652 21 12V11H17V22H18.5C18.7652 22 19.0196 22.1054 19.2071 22.2929C19.3946 22.4804 19.5 22.7348 19.5 23C19.5 23.2652 19.3946 23.5196 19.2071 23.7071C19.0196 23.8946 18.7652 24 18.5 24H13.5C13.2348 24 12.9804 23.8946 12.7929 23.7071C12.6054 23.5196 12.5 23.2652 12.5 23C12.5 22.7348 12.6054 22.4804 12.7929 22.2929C12.9804 22.1054 13.2348 22 13.5 22H15V11H11V12C11 12.2652 10.8946 12.5196 10.7071 12.7071C10.5196 12.8946 10.2652 13 10 13C9.73478 13 9.48043 12.8946 9.29289 12.7071C9.10536 12.5196 9 12.2652 9 12V10C9 9.73478 9.10536 9.48043 9.29289 9.29289C9.48043 9.10536 9.73478 9 10 9H22C22.2652 9 22.5196 9.10536 22.7071 9.29289C22.8946 9.48043 23 9.73478 23 10V12Z" fill="white"/>
<path d="M66.5 7V11C66.5 11.3978 66.342 11.7794 66.0607 12.0607C65.7794 12.342 65.3978 12.5 65 12.5C64.6022 12.5 64.2206 12.342 63.9393 12.0607C63.658 11.7794 63.5 11.3978 63.5 11V8.5H57.5V23.5H60C60.3978 23.5 60.7794 23.658 61.0607 23.9393C61.342 24.2206 61.5 24.6022 61.5 25C61.5 25.3978 61.342 25.7794 61.0607 26.0607C60.7794 26.342 60.3978 26.5 60 26.5H52C51.6022 26.5 51.2206 26.342 50.9393 26.0607C50.658 25.7794 50.5 25.3978 50.5 25C50.5 24.6022 50.658 24.2206 50.9393 23.9393C51.2206 23.658 51.6022 23.5 52 23.5H54.5V8.5H48.5V11C48.5 11.3978 48.342 11.7794 48.0607 12.0607C47.7794 12.342 47.3978 12.5 47 12.5C46.6022 12.5 46.2206 12.342 45.9393 12.0607C45.658 11.7794 45.5 11.3978 45.5 11V7C45.5 6.60218 45.658 6.22064 45.9393 5.93934C46.2206 5.65804 46.6022 5.5 47 5.5H65C65.3978 5.5 65.7794 5.65804 66.0607 5.93934C66.342 6.22064 66.5 6.60218 66.5 7Z" fill="white"/>
</g>
<defs>
<clipPath id="clip0_27_7531">
<rect width="72" height="32" rx="5" fill="white"/>
</clipPath>
</defs>
</svg>
