<svg width="72" height="32" viewBox="0 0 72 32" fill="none" xmlns="http://www.w3.org/2000/svg">
<g clip-path="url(#clip0_27_7486)">
<path d="M24 19C24 19.3956 23.8827 19.7822 23.6629 20.1111C23.4432 20.44 23.1308 20.6964 22.7654 20.8478C22.3999 20.9991 21.9978 21.0387 21.6098 20.9616C21.2219 20.8844 20.8655 20.6939 20.5858 20.4142C20.3061 20.1345 20.1156 19.7781 20.0384 19.3902C19.9613 19.0022 20.0009 18.6001 20.1522 18.2346C20.3036 17.8692 20.56 17.5568 20.8889 17.3371C21.2178 17.1173 21.6044 17 22 17C22.5304 17 23.0391 17.2107 23.4142 17.5858C23.7893 17.9609 24 18.4696 24 19ZM28 6V26C28 26.5304 27.7893 27.0391 27.4142 27.4142C27.0391 27.7893 26.5304 28 26 28H6C5.46957 28 4.96086 27.7893 4.58579 27.4142C4.21071 27.0391 4 26.5304 4 26V6C4 5.46957 4.21071 4.96086 4.58579 4.58579C4.96086 4.21071 5.46957 4 6 4H26C26.5304 4 27.0391 4.21071 27.4142 4.58579C27.7893 4.96086 28 5.46957 28 6ZM16 10C16 9.73478 15.8946 9.48043 15.7071 9.29289C15.5196 9.10536 15.2652 9 15 9C14.7348 9 14.4804 9.10536 14.2929 9.29289C14.1054 9.48043 14 9.73478 14 10V14H9V10C9 9.73478 8.89464 9.48043 8.70711 9.29289C8.51957 9.10536 8.26522 9 8 9C7.73478 9 7.48043 9.10536 7.29289 9.29289C7.10536 9.48043 7 9.73478 7 10V20C7 20.2652 7.10536 20.5196 7.29289 20.7071C7.48043 20.8946 7.73478 21 8 21C8.26522 21 8.51957 20.8946 8.70711 20.7071C8.89464 20.5196 9 20.2652 9 20V16H14V20C14 20.2652 14.1054 20.5196 14.2929 20.7071C14.4804 20.8946 14.7348 21 15 21C15.2652 21 15.5196 20.8946 15.7071 20.7071C15.8946 20.5196 16 20.2652 16 20V10ZM26 19C26 17.9391 25.5786 16.9217 24.8284 16.1716C24.0783 15.4214 23.0609 15 22 15L23.4438 12.5C23.5764 12.2703 23.6123 11.9972 23.5436 11.741C23.4749 11.4848 23.3072 11.2664 23.0775 11.1337C22.8478 11.0011 22.5747 10.9652 22.3185 11.0339C22.0623 11.1026 21.8439 11.2703 21.7113 11.5L18.5362 17L18.5187 17.0338C18.2172 17.5666 18.042 18.1616 18.0067 18.7728C17.9713 19.384 18.0768 19.9952 18.3148 20.5593C18.5529 21.1233 18.9173 21.6252 19.38 22.0262C19.8426 22.4273 20.3911 22.7167 20.9832 22.8724C21.5754 23.028 22.1953 23.0456 22.7954 22.9239C23.3954 22.8021 23.9595 22.5443 24.4441 22.1702C24.9288 21.7961 25.3211 21.3157 25.5908 20.7661C25.8606 20.2165 26.0006 19.6122 26 19Z" fill="white"/>
<path d="M67.1325 17.5413L68.7875 14.7688C68.8943 14.5995 68.9661 14.4107 68.9988 14.2132C69.0315 14.0158 69.0243 13.8139 68.9778 13.6193C68.9312 13.4247 68.8462 13.2414 68.7278 13.0801C68.6093 12.9189 68.4597 12.7829 68.2879 12.6804C68.1161 12.5778 67.9256 12.5106 67.7274 12.4828C67.5292 12.455 67.3275 12.4671 67.1341 12.5185C66.9407 12.5698 66.7596 12.6593 66.6013 12.7817C66.443 12.9041 66.3108 13.057 66.2125 13.2312L62.1812 19.9813C62.17 20 62.16 20.02 62.15 20.04C61.6227 20.973 61.4091 22.0507 61.5407 23.1143C61.6724 24.1779 62.1423 25.1711 62.8811 25.9474C63.62 26.7237 64.5887 27.242 65.6445 27.426C66.7003 27.6099 67.7873 27.4498 68.7452 26.9692C69.7031 26.4886 70.4812 25.7129 70.9648 24.7565C71.4484 23.8001 71.612 22.7136 71.4313 21.6573C71.2506 20.6009 70.7353 19.6305 69.9613 18.8892C69.1874 18.148 68.1957 17.675 67.1325 17.54V17.5413ZM66.5 24.5C66.1044 24.5 65.7178 24.3827 65.3889 24.1629C65.06 23.9432 64.8036 23.6308 64.6522 23.2654C64.5009 22.8999 64.4613 22.4978 64.5384 22.1098C64.6156 21.7219 64.8061 21.3655 65.0858 21.0858C65.3655 20.8061 65.7219 20.6156 66.1098 20.5384C66.4978 20.4613 66.8999 20.5009 67.2654 20.6522C67.6308 20.8036 67.9432 21.06 68.1629 21.3889C68.3827 21.7178 68.5 22.1044 68.5 22.5C68.5 23.0304 68.2893 23.5391 67.9142 23.9142C67.5391 24.2893 67.0304 24.5 66.5 24.5ZM59.5 7V22C59.5 22.3978 59.342 22.7794 59.0607 23.0607C58.7794 23.342 58.3978 23.5 58 23.5C57.6022 23.5 57.2206 23.342 56.9393 23.0607C56.658 22.7794 56.5 22.3978 56.5 22V16H46.5V22C46.5 22.3978 46.342 22.7794 46.0607 23.0607C45.7794 23.342 45.3978 23.5 45 23.5C44.6022 23.5 44.2206 23.342 43.9393 23.0607C43.658 22.7794 43.5 22.3978 43.5 22V7C43.5 6.60218 43.658 6.22064 43.9393 5.93934C44.2206 5.65804 44.6022 5.5 45 5.5C45.3978 5.5 45.7794 5.65804 46.0607 5.93934C46.342 6.22064 46.5 6.60218 46.5 7V13H56.5V7C56.5 6.60218 56.658 6.22064 56.9393 5.93934C57.2206 5.65804 57.6022 5.5 58 5.5C58.3978 5.5 58.7794 5.65804 59.0607 5.93934C59.342 6.22064 59.5 6.60218 59.5 7Z" fill="white"/>
</g>
<defs>
<clipPath id="clip0_27_7486">
<rect width="72" height="32" rx="5" fill="white"/>
</clipPath>
</defs>
</svg>
