<svg width="72" height="32" viewBox="0 0 72 32" fill="none" xmlns="http://www.w3.org/2000/svg">
<g clip-path="url(#clip0_27_7491)">
<path d="M26 4H6C5.46957 4 4.96086 4.21071 4.58579 4.58579C4.21071 4.96086 4 5.46957 4 6V26C4 26.5304 4.21071 27.0391 4.58579 27.4142C4.96086 27.7893 5.46957 28 6 28H26C26.5304 28 27.0391 27.7893 27.4142 27.4142C27.7893 27.0391 28 26.5304 28 26V6C28 5.46957 27.7893 4.96086 27.4142 4.58579C27.0391 4.21071 26.5304 4 26 4ZM16 20C16 20.2652 15.8946 20.5196 15.7071 20.7071C15.5196 20.8946 15.2652 21 15 21C14.7348 21 14.4804 20.8946 14.2929 20.7071C14.1054 20.5196 14 20.2652 14 20V16H9V20C9 20.2652 8.89464 20.5196 8.70711 20.7071C8.51957 20.8946 8.26522 21 8 21C7.73478 21 7.48043 20.8946 7.29289 20.7071C7.10536 20.5196 7 20.2652 7 20V10C7 9.73478 7.10536 9.48043 7.29289 9.29289C7.48043 9.10536 7.73478 9 8 9C8.26522 9 8.51957 9.10536 8.70711 9.29289C8.89464 9.48043 9 9.73478 9 10V14H14V10C14 9.73478 14.1054 9.48043 14.2929 9.29289C14.4804 9.10536 14.7348 9 15 9C15.2652 9 15.5196 9.10536 15.7071 9.29289C15.8946 9.48043 16 9.73478 16 10V20ZM21 23C20.0158 23.0002 19.0661 22.6374 18.3325 21.9813C18.1349 21.8042 18.0157 21.5559 18.0012 21.291C17.9867 21.0262 18.078 20.7663 18.255 20.5688C18.432 20.3712 18.6803 20.252 18.9452 20.2375C19.2101 20.2229 19.4699 20.3142 19.6675 20.4912C19.9092 20.7073 20.1998 20.8613 20.5143 20.9401C20.8287 21.0188 21.1576 21.02 21.4726 20.9434C21.7876 20.8669 22.0793 20.7149 22.3225 20.5006C22.5657 20.2862 22.7532 20.016 22.8688 19.7132C22.9844 19.4103 23.0246 19.0839 22.986 18.762C22.9474 18.4402 22.8312 18.1325 22.6473 17.8655C22.4635 17.5985 22.2174 17.3803 21.9305 17.2295C21.6435 17.0787 21.3242 17 21 17C20.8143 17 20.6322 16.9483 20.4743 16.8507C20.3163 16.753 20.1886 16.6133 20.1056 16.4472C20.0225 16.2811 19.9874 16.0952 20.004 15.9102C20.0207 15.7252 20.0886 15.5486 20.2 15.4L22 13H19C18.7348 13 18.4804 12.8946 18.2929 12.7071C18.1054 12.5196 18 12.2652 18 12C18 11.7348 18.1054 11.4804 18.2929 11.2929C18.4804 11.1054 18.7348 11 19 11H24C24.1857 11 24.3678 11.0517 24.5257 11.1493C24.6837 11.247 24.8114 11.3867 24.8944 11.5528C24.9775 11.7189 25.0126 11.9048 24.996 12.0898C24.9793 12.2748 24.9114 12.4514 24.8 12.6L22.7113 15.385C23.5321 15.7738 24.1962 16.4304 24.5943 17.2468C24.9924 18.0632 25.1008 18.9908 24.9017 19.877C24.7025 20.7632 24.2077 21.5552 23.4986 22.1228C22.7895 22.6904 21.9083 22.9998 21 23Z" fill="white"/>
<path d="M71.5 22.5C71.5001 23.4933 71.2044 24.4641 70.6505 25.2886C70.0967 26.1131 69.3098 26.754 68.3902 27.1295C67.4706 27.505 66.4601 27.5981 65.4874 27.3969C64.5147 27.1958 63.6239 26.7094 62.9287 26C62.7855 25.8605 62.6716 25.6937 62.5938 25.5096C62.5159 25.3254 62.4757 25.1276 62.4754 24.9276C62.4751 24.7277 62.5148 24.5297 62.5922 24.3453C62.6695 24.1609 62.7829 23.9939 62.9257 23.854C63.0686 23.7141 63.2379 23.6041 63.4239 23.5306C63.6098 23.4571 63.8086 23.4215 64.0084 23.4259C64.2083 23.4303 64.4053 23.4746 64.5879 23.5562C64.7704 23.6379 64.9347 23.7552 65.0713 23.9013C65.3022 24.1364 65.5877 24.3109 65.9023 24.4091C66.2169 24.5073 66.5509 24.5263 66.8746 24.4643C67.1984 24.4023 67.5017 24.2612 67.7578 24.0536C68.0138 23.8461 68.2146 23.5784 68.3422 23.2746C68.4699 22.9707 68.5204 22.64 68.4894 22.3118C68.4584 21.9837 68.3468 21.6683 68.1645 21.3937C67.9822 21.1191 67.7348 20.8939 67.4444 20.7379C67.154 20.582 66.8296 20.5003 66.5 20.5C66.2256 20.5 65.9566 20.4247 65.722 20.2823C65.4875 20.14 65.2965 19.9361 65.1698 19.6927C65.0431 19.4494 64.9855 19.1759 65.0034 18.9022C65.0213 18.6284 65.114 18.3648 65.2712 18.14L67.125 15.5H64C63.6022 15.5 63.2206 15.342 62.9393 15.0607C62.658 14.7794 62.5 14.3978 62.5 14C62.5 13.6022 62.658 13.2206 62.9393 12.9393C63.2206 12.658 63.6022 12.5 64 12.5H70C70.2744 12.5 70.5434 12.5753 70.778 12.7177C71.0125 12.86 71.2035 13.0639 71.3302 13.3073C71.4569 13.5506 71.5145 13.8241 71.4966 14.0978C71.4787 14.3716 71.386 14.6352 71.2288 14.86L68.9363 18.135C69.7134 18.5686 70.3607 19.2017 70.8114 19.9691C71.262 20.7364 71.4998 21.6101 71.5 22.5ZM58 5.5C57.6022 5.5 57.2206 5.65804 56.9393 5.93934C56.658 6.22064 56.5 6.60218 56.5 7V13H46.5V7C46.5 6.60218 46.342 6.22064 46.0607 5.93934C45.7794 5.65804 45.3978 5.5 45 5.5C44.6022 5.5 44.2206 5.65804 43.9393 5.93934C43.658 6.22064 43.5 6.60218 43.5 7V22C43.5 22.3978 43.658 22.7794 43.9393 23.0607C44.2206 23.342 44.6022 23.5 45 23.5C45.3978 23.5 45.7794 23.342 46.0607 23.0607C46.342 22.7794 46.5 22.3978 46.5 22V16H56.5V22C56.5 22.3978 56.658 22.7794 56.9393 23.0607C57.2206 23.342 57.6022 23.5 58 23.5C58.3978 23.5 58.7794 23.342 59.0607 23.0607C59.342 22.7794 59.5 22.3978 59.5 22V7C59.5 6.60218 59.342 6.22064 59.0607 5.93934C58.7794 5.65804 58.3978 5.5 58 5.5Z" fill="white"/>
</g>
<defs>
<clipPath id="clip0_27_7491">
<rect width="72" height="32" rx="5" fill="white"/>
</clipPath>
</defs>
</svg>
