<svg width="72" height="32" viewBox="0 0 72 32" fill="none" xmlns="http://www.w3.org/2000/svg">
<g clip-path="url(#clip0_27_7461)">
<path d="M27 5H5C4.46957 5 3.96086 5.21071 3.58579 5.58579C3.21071 5.96086 3 6.46957 3 7V25C3 25.5304 3.21071 26.0391 3.58579 26.4142C3.96086 26.7893 4.46957 27 5 27H27C27.5304 27 28.0391 26.7893 28.4142 26.4142C28.7893 26.0391 29 25.5304 29 25V7C29 6.46957 28.7893 5.96086 28.4142 5.58579C28.0391 5.21071 27.5304 5 27 5ZM14 23H7C6.73478 23 6.48043 22.8946 6.29289 22.7071C6.10536 22.5196 6 22.2652 6 22C6 21.7348 6.10536 21.4804 6.29289 21.2929C6.48043 21.1054 6.73478 21 7 21H14C14.2652 21 14.5196 21.1054 14.7071 21.2929C14.8946 21.4804 15 21.7348 15 22C15 22.2652 14.8946 22.5196 14.7071 22.7071C14.5196 22.8946 14.2652 23 14 23ZM14 19H7C6.73478 19 6.48043 18.8946 6.29289 18.7071C6.10536 18.5196 6 18.2652 6 18C6 17.7348 6.10536 17.4804 6.29289 17.2929C6.48043 17.1054 6.73478 17 7 17H14C14.2652 17 14.5196 17.1054 14.7071 17.2929C14.8946 17.4804 15 17.7348 15 18C15 18.2652 14.8946 18.5196 14.7071 18.7071C14.5196 18.8946 14.2652 19 14 19ZM14 15H7C6.73478 15 6.48043 14.8946 6.29289 14.7071C6.10536 14.5196 6 14.2652 6 14C6 13.7348 6.10536 13.4804 6.29289 13.2929C6.48043 13.1054 6.73478 13 7 13H14C14.2652 13 14.5196 13.1054 14.7071 13.2929C14.8946 13.4804 15 13.7348 15 14C15 14.2652 14.8946 14.5196 14.7071 14.7071C14.5196 14.8946 14.2652 15 14 15ZM14 11H7C6.73478 11 6.48043 10.8946 6.29289 10.7071C6.10536 10.5196 6 10.2652 6 10C6 9.73478 6.10536 9.48043 6.29289 9.29289C6.48043 9.10536 6.73478 9 7 9H14C14.2652 9 14.5196 9.10536 14.7071 9.29289C14.8946 9.48043 15 9.73478 15 10C15 10.2652 14.8946 10.5196 14.7071 10.7071C14.5196 10.8946 14.2652 11 14 11ZM25 23H18C17.7348 23 17.4804 22.8946 17.2929 22.7071C17.1054 22.5196 17 22.2652 17 22C17 21.7348 17.1054 21.4804 17.2929 21.2929C17.4804 21.1054 17.7348 21 18 21H25C25.2652 21 25.5196 21.1054 25.7071 21.2929C25.8946 21.4804 26 21.7348 26 22C26 22.2652 25.8946 22.5196 25.7071 22.7071C25.5196 22.8946 25.2652 23 25 23ZM25 19H18C17.7348 19 17.4804 18.8946 17.2929 18.7071C17.1054 18.5196 17 18.2652 17 18C17 17.7348 17.1054 17.4804 17.2929 17.2929C17.4804 17.1054 17.7348 17 18 17H25C25.2652 17 25.5196 17.1054 25.7071 17.2929C25.8946 17.4804 26 17.7348 26 18C26 18.2652 25.8946 18.5196 25.7071 18.7071C25.5196 18.8946 25.2652 19 25 19ZM25 15H18C17.7348 15 17.4804 14.8946 17.2929 14.7071C17.1054 14.5196 17 14.2652 17 14C17 13.7348 17.1054 13.4804 17.2929 13.2929C17.4804 13.1054 17.7348 13 18 13H25C25.2652 13 25.5196 13.1054 25.7071 13.2929C25.8946 13.4804 26 13.7348 26 14C26 14.2652 25.8946 14.5196 25.7071 14.7071C25.5196 14.8946 25.2652 15 25 15ZM25 11H18C17.7348 11 17.4804 10.8946 17.2929 10.7071C17.1054 10.5196 17 10.2652 17 10C17 9.73478 17.1054 9.48043 17.2929 9.29289C17.4804 9.10536 17.7348 9 18 9H25C25.2652 9 25.5196 9.10536 25.7071 9.29289C25.8946 9.48043 26 9.73478 26 10C26 10.2652 25.8946 10.5196 25.7071 10.7071C25.5196 10.8946 25.2652 11 25 11Z" fill="white"/>
<path d="M55 8C55 8.39782 54.842 8.77936 54.5607 9.06066C54.2794 9.34196 53.8978 9.5 53.5 9.5H45C44.6022 9.5 44.2206 9.34196 43.9393 9.06066C43.658 8.77936 43.5 8.39782 43.5 8C43.5 7.60218 43.658 7.22064 43.9393 6.93934C44.2206 6.65804 44.6022 6.5 45 6.5H53.5C53.8978 6.5 54.2794 6.65804 54.5607 6.93934C54.842 7.22064 55 7.60218 55 8ZM53.5 11.5H45C44.6022 11.5 44.2206 11.658 43.9393 11.9393C43.658 12.2206 43.5 12.6022 43.5 13C43.5 13.3978 43.658 13.7794 43.9393 14.0607C44.2206 14.342 44.6022 14.5 45 14.5H53.5C53.8978 14.5 54.2794 14.342 54.5607 14.0607C54.842 13.7794 55 13.3978 55 13C55 12.6022 54.842 12.2206 54.5607 11.9393C54.2794 11.658 53.8978 11.5 53.5 11.5ZM53.5 16.5H45C44.6022 16.5 44.2206 16.658 43.9393 16.9393C43.658 17.2206 43.5 17.6022 43.5 18C43.5 18.3978 43.658 18.7794 43.9393 19.0607C44.2206 19.342 44.6022 19.5 45 19.5H53.5C53.8978 19.5 54.2794 19.342 54.5607 19.0607C54.842 18.7794 55 18.3978 55 18C55 17.6022 54.842 17.2206 54.5607 16.9393C54.2794 16.658 53.8978 16.5 53.5 16.5ZM53.5 21.5H45C44.6022 21.5 44.2206 21.658 43.9393 21.9393C43.658 22.2206 43.5 22.6022 43.5 23C43.5 23.3978 43.658 23.7794 43.9393 24.0607C44.2206 24.342 44.6022 24.5 45 24.5H53.5C53.8978 24.5 54.2794 24.342 54.5607 24.0607C54.842 23.7794 55 23.3978 55 23C55 22.6022 54.842 22.2206 54.5607 21.9393C54.2794 21.658 53.8978 21.5 53.5 21.5ZM58.5 9.5H67C67.3978 9.5 67.7794 9.34196 68.0607 9.06066C68.342 8.77936 68.5 8.39782 68.5 8C68.5 7.60218 68.342 7.22064 68.0607 6.93934C67.7794 6.65804 67.3978 6.5 67 6.5H58.5C58.1022 6.5 57.7206 6.65804 57.4393 6.93934C57.158 7.22064 57 7.60218 57 8C57 8.39782 57.158 8.77936 57.4393 9.06066C57.7206 9.34196 58.1022 9.5 58.5 9.5ZM67 11.5H58.5C58.1022 11.5 57.7206 11.658 57.4393 11.9393C57.158 12.2206 57 12.6022 57 13C57 13.3978 57.158 13.7794 57.4393 14.0607C57.7206 14.342 58.1022 14.5 58.5 14.5H67C67.3978 14.5 67.7794 14.342 68.0607 14.0607C68.342 13.7794 68.5 13.3978 68.5 13C68.5 12.6022 68.342 12.2206 68.0607 11.9393C67.7794 11.658 67.3978 11.5 67 11.5ZM67 16.5H58.5C58.1022 16.5 57.7206 16.658 57.4393 16.9393C57.158 17.2206 57 17.6022 57 18C57 18.3978 57.158 18.7794 57.4393 19.0607C57.7206 19.342 58.1022 19.5 58.5 19.5H67C67.3978 19.5 67.7794 19.342 68.0607 19.0607C68.342 18.7794 68.5 18.3978 68.5 18C68.5 17.6022 68.342 17.2206 68.0607 16.9393C67.7794 16.658 67.3978 16.5 67 16.5ZM67 21.5H58.5C58.1022 21.5 57.7206 21.658 57.4393 21.9393C57.158 22.2206 57 22.6022 57 23C57 23.3978 57.158 23.7794 57.4393 24.0607C57.7206 24.342 58.1022 24.5 58.5 24.5H67C67.3978 24.5 67.7794 24.342 68.0607 24.0607C68.342 23.7794 68.5 23.3978 68.5 23C68.5 22.6022 68.342 22.2206 68.0607 21.9393C67.7794 21.658 67.3978 21.5 67 21.5Z" fill="white"/>
</g>
<defs>
<clipPath id="clip0_27_7461">
<rect width="72" height="32" rx="5" fill="white"/>
</clipPath>
</defs>
</svg>
