<svg width="72" height="32" viewBox="0 0 72 32" fill="none" xmlns="http://www.w3.org/2000/svg">
<g clip-path="url(#clip0_27_7501)">
<path d="M28 16C28 16.2652 27.8946 16.5196 27.7071 16.7071C27.5196 16.8946 27.2652 17 27 17H14C13.7348 17 13.4804 16.8946 13.2929 16.7071C13.1054 16.5196 13 16.2652 13 16C13 15.7348 13.1054 15.4804 13.2929 15.2929C13.4804 15.1054 13.7348 15 14 15H27C27.2652 15 27.5196 15.1054 27.7071 15.2929C27.8946 15.4804 28 15.7348 28 16ZM14 8.99999H27C27.2652 8.99999 27.5196 8.89464 27.7071 8.7071C27.8946 8.51956 28 8.26521 28 7.99999C28 7.73478 27.8946 7.48042 27.7071 7.29289C27.5196 7.10535 27.2652 6.99999 27 6.99999H14C13.7348 6.99999 13.4804 7.10535 13.2929 7.29289C13.1054 7.48042 13 7.73478 13 7.99999C13 8.26521 13.1054 8.51956 13.2929 8.7071C13.4804 8.89464 13.7348 8.99999 14 8.99999ZM27 23H5C4.73478 23 4.48043 23.1054 4.29289 23.2929C4.10536 23.4804 4 23.7348 4 24C4 24.2652 4.10536 24.5196 4.29289 24.7071C4.48043 24.8946 4.73478 25 5 25H27C27.2652 25 27.5196 24.8946 27.7071 24.7071C27.8946 24.5196 28 24.2652 28 24C28 23.7348 27.8946 23.4804 27.7071 23.2929C27.5196 23.1054 27.2652 23 27 23ZM4.6175 17.9237C4.8002 17.9995 5.00128 18.0195 5.1953 17.981C5.38932 17.9425 5.56757 17.8473 5.7075 17.7075L10.7075 12.7075C10.8005 12.6146 10.8742 12.5043 10.9246 12.3829C10.9749 12.2615 11.0008 12.1314 11.0008 12C11.0008 11.8686 10.9749 11.7385 10.9246 11.6171C10.8742 11.4957 10.8005 11.3854 10.7075 11.2925L5.7075 6.29249C5.56764 6.15248 5.38939 6.05712 5.19531 6.01846C5.00122 5.97981 4.80003 5.99962 4.61721 6.07537C4.43439 6.15112 4.27815 6.27942 4.16828 6.44401C4.05841 6.60861 3.99984 6.8021 4 6.99999V17C4.00004 17.1978 4.05873 17.3911 4.16864 17.5555C4.27856 17.72 4.43476 17.8481 4.6175 17.9237Z" fill="white"/>
<path d="M68.4994 16C68.4994 16.3978 68.3414 16.7794 68.0601 17.0607C67.7788 17.342 67.3972 17.5 66.9994 17.5H54.9994C54.6016 17.5 54.22 17.342 53.9387 17.0607C53.6574 16.7794 53.4994 16.3978 53.4994 16C53.4994 15.6022 53.6574 15.2207 53.9387 14.9393C54.22 14.658 54.6016 14.5 54.9994 14.5H66.9994C67.3972 14.5 67.7788 14.658 68.0601 14.9393C68.3414 15.2207 68.4994 15.6022 68.4994 16ZM54.9994 9.50001H66.9994C67.3972 9.50001 67.7788 9.34197 68.0601 9.06067C68.3414 8.77936 68.4994 8.39783 68.4994 8.00001C68.4994 7.60218 68.3414 7.22065 68.0601 6.93935C67.7788 6.65804 67.3972 6.50001 66.9994 6.50001H54.9994C54.6016 6.50001 54.22 6.65804 53.9387 6.93935C53.6574 7.22065 53.4994 7.60218 53.4994 8.00001C53.4994 8.39783 53.6574 8.77936 53.9387 9.06067C54.22 9.34197 54.6016 9.50001 54.9994 9.50001ZM66.9994 22.5H44.9994C44.6016 22.5 44.22 22.658 43.9387 22.9393C43.6574 23.2207 43.4994 23.6022 43.4994 24C43.4994 24.3978 43.6574 24.7794 43.9387 25.0607C44.22 25.342 44.6016 25.5 44.9994 25.5H66.9994C67.3972 25.5 67.7788 25.342 68.0601 25.0607C68.3414 24.7794 68.4994 24.3978 68.4994 24C68.4994 23.6022 68.3414 23.2207 68.0601 22.9393C67.7788 22.658 67.3972 22.5 66.9994 22.5ZM43.9381 18.0613C44.0775 18.2011 44.2431 18.3121 44.4254 18.3878C44.6077 18.4635 44.8032 18.5024 45.0006 18.5024C45.1981 18.5024 45.3935 18.4635 45.5759 18.3878C45.7582 18.3121 45.9238 18.2011 46.0631 18.0613L51.0631 13.0613C51.203 12.9219 51.3139 12.7563 51.3897 12.574C51.4654 12.3917 51.5043 12.1962 51.5043 11.9988C51.5043 11.8013 51.4654 11.6059 51.3897 11.4235C51.3139 11.2412 51.203 11.0756 51.0631 10.9363L46.0631 5.93626C45.9236 5.79673 45.758 5.68605 45.5757 5.61053C45.3934 5.53502 45.198 5.49615 45.0006 5.49615C44.8033 5.49615 44.6079 5.53502 44.4256 5.61053C44.2433 5.68605 44.0777 5.79673 43.9381 5.93626C43.6564 6.21805 43.498 6.60024 43.498 6.99876C43.498 7.39727 43.6564 7.77946 43.9381 8.06126L47.8744 12L43.9381 15.9388C43.7987 16.0781 43.688 16.2435 43.6126 16.4256C43.5371 16.6077 43.4982 16.8029 43.4982 17C43.4982 17.1971 43.5371 17.3923 43.6126 17.5744C43.688 17.7565 43.7987 17.9219 43.9381 18.0613Z" fill="white"/>
</g>
<defs>
<clipPath id="clip0_27_7501">
<rect width="72" height="32" rx="5" fill="white"/>
</clipPath>
</defs>
</svg>
