<svg width="72" height="32" viewBox="0 0 72 32" fill="none" xmlns="http://www.w3.org/2000/svg">
<g clip-path="url(#clip0_27_7541)">
<path d="M26 4H6C5.46957 4 4.96086 4.21071 4.58579 4.58579C4.21071 4.96086 4 5.46957 4 6V26C4 26.5304 4.21071 27.0391 4.58579 27.4142C4.96086 27.7893 5.46957 28 6 28H26C26.5304 28 27.0391 27.7893 27.4142 27.4142C27.7893 27.0391 28 26.5304 28 26V6C28 5.46957 27.7893 4.96086 27.4142 4.58579C27.0391 4.21071 26.5304 4 26 4ZM10 9C10 8.73478 10.1054 8.48043 10.2929 8.29289C10.4804 8.10536 10.7348 8 11 8C11.2652 8 11.5196 8.10536 11.7071 8.29289C11.8946 8.48043 12 8.73478 12 9V15C12 16.0609 12.4214 17.0783 13.1716 17.8284C13.9217 18.5786 14.9391 19 16 19C17.0609 19 18.0783 18.5786 18.8284 17.8284C19.5786 17.0783 20 16.0609 20 15V9C20 8.73478 20.1054 8.48043 20.2929 8.29289C20.4804 8.10536 20.7348 8 21 8C21.2652 8 21.5196 8.10536 21.7071 8.29289C21.8946 8.48043 22 8.73478 22 9V15C22 16.5913 21.3679 18.1174 20.2426 19.2426C19.1174 20.3679 17.5913 21 16 21C14.4087 21 12.8826 20.3679 11.7574 19.2426C10.6321 18.1174 10 16.5913 10 15V9ZM22 25H10C9.73478 25 9.48043 24.8946 9.29289 24.7071C9.10536 24.5196 9 24.2652 9 24C9 23.7348 9.10536 23.4804 9.29289 23.2929C9.48043 23.1054 9.73478 23 10 23H22C22.2652 23 22.5196 23.1054 22.7071 23.2929C22.8946 23.4804 23 23.7348 23 24C23 24.2652 22.8946 24.5196 22.7071 24.7071C22.5196 24.8946 22.2652 25 22 25Z" fill="white"/>
<path d="M65.5 28C65.5 28.3978 65.342 28.7794 65.0607 29.0607C64.7794 29.342 64.3978 29.5 64 29.5H48C47.6022 29.5 47.2206 29.342 46.9393 29.0607C46.658 28.7794 46.5 28.3978 46.5 28C46.5 27.6022 46.658 27.2206 46.9393 26.9393C47.2206 26.658 47.6022 26.5 48 26.5H64C64.3978 26.5 64.7794 26.658 65.0607 26.9393C65.342 27.2206 65.5 27.6022 65.5 28ZM56 24.5C58.2536 24.4977 60.4143 23.6014 62.0078 22.0078C63.6014 20.4143 64.4977 18.2536 64.5 16V7C64.5 6.60218 64.342 6.22064 64.0607 5.93934C63.7794 5.65804 63.3978 5.5 63 5.5C62.6022 5.5 62.2206 5.65804 61.9393 5.93934C61.658 6.22064 61.5 6.60218 61.5 7V16C61.5 17.4587 60.9205 18.8576 59.8891 19.8891C58.8576 20.9205 57.4587 21.5 56 21.5C54.5413 21.5 53.1424 20.9205 52.1109 19.8891C51.0795 18.8576 50.5 17.4587 50.5 16V7C50.5 6.60218 50.342 6.22064 50.0607 5.93934C49.7794 5.65804 49.3978 5.5 49 5.5C48.6022 5.5 48.2206 5.65804 47.9393 5.93934C47.658 6.22064 47.5 6.60218 47.5 7V16C47.5023 18.2536 48.3986 20.4143 49.9922 22.0078C51.5857 23.6014 53.7464 24.4977 56 24.5Z" fill="white"/>
</g>
<defs>
<clipPath id="clip0_27_7541">
<rect width="72" height="32" rx="5" fill="white"/>
</clipPath>
</defs>
</svg>
