<svg width="72" height="32" viewBox="0 0 72 32" fill="none" xmlns="http://www.w3.org/2000/svg">
<g clip-path="url(#clip0_27_7526)">
<path d="M26 4H6C5.46957 4 4.96086 4.21071 4.58579 4.58579C4.21071 4.96086 4 5.46957 4 6V26C4 26.5304 4.21071 27.0391 4.58579 27.4142C4.96086 27.7893 5.46957 28 6 28H26C26.5304 28 27.0391 27.7893 27.4142 27.4142C27.7893 27.0391 28 26.5304 28 26V6C28 5.46957 27.7893 4.96086 27.4142 4.58579C27.0391 4.21071 26.5304 4 26 4ZM15.8188 22.4263C15.8975 22.5336 15.954 22.6556 15.9849 22.7851C16.0159 22.9146 16.0206 23.0489 15.999 23.1803C15.9773 23.3116 15.9296 23.4373 15.8588 23.55C15.7879 23.6627 15.6952 23.7601 15.5862 23.8365C15.4772 23.9129 15.354 23.9667 15.2239 23.9949C15.0938 24.0231 14.9593 24.025 14.8285 24.0005C14.6976 23.976 14.573 23.9257 14.4618 23.8524C14.3507 23.7791 14.2553 23.6844 14.1812 23.5737L11.5 19.75L8.81875 23.5737C8.74471 23.6844 8.64932 23.7791 8.53818 23.8524C8.42704 23.9257 8.30238 23.976 8.17153 24.0005C8.04067 24.025 7.90624 24.0231 7.77613 23.9949C7.64602 23.9667 7.52284 23.9129 7.41382 23.8365C7.3048 23.7601 7.21213 23.6627 7.14124 23.55C7.07036 23.4373 7.02269 23.3116 7.00103 23.1803C6.97937 23.0489 6.98415 22.9146 7.0151 22.7851C7.04604 22.6556 7.10253 22.5336 7.18125 22.4263L10.2788 18L7.18125 13.5737C7.10253 13.4664 7.04604 13.3444 7.0151 13.2149C6.98415 13.0854 6.97937 12.9511 7.00103 12.8197C7.02269 12.6884 7.07036 12.5627 7.14124 12.45C7.21213 12.3373 7.3048 12.2399 7.41382 12.1635C7.52284 12.0871 7.64602 12.0332 7.77613 12.0051C7.90624 11.9769 8.04067 11.975 8.17153 11.9995C8.30238 12.024 8.42704 12.0743 8.53818 12.1476C8.64932 12.2209 8.74471 12.3156 8.81875 12.4263L11.5 16.2563L14.1812 12.4263C14.3359 12.2154 14.567 12.0734 14.825 12.0309C15.083 11.9883 15.3474 12.0485 15.5616 12.1986C15.7757 12.3487 15.9226 12.5767 15.9707 12.8337C16.0187 13.0908 15.9642 13.3564 15.8188 13.5737L12.7212 18L15.8188 22.4263ZM24 20H19C18.8143 20 18.6322 19.9483 18.4743 19.8507C18.3163 19.753 18.1886 19.6133 18.1056 19.4472C18.0225 19.2811 17.9874 19.0952 18.004 18.9102C18.0207 18.7252 18.0886 18.5486 18.2 18.4L22.7 12.4C22.8229 12.2432 22.9133 12.0634 22.966 11.8713C23.0187 11.6791 23.0325 11.4784 23.0068 11.2808C22.981 11.0832 22.9161 10.8928 22.816 10.7205C22.7158 10.5483 22.5823 10.3977 22.4233 10.2777C22.2642 10.1576 22.0829 10.0704 21.8898 10.0212C21.6968 9.972 21.4958 9.96175 21.2987 9.99106C21.1016 10.0204 20.9124 10.0886 20.742 10.1919C20.5716 10.2952 20.4234 10.4314 20.3062 10.5925C20.1576 10.768 20.0477 10.9729 19.9837 11.1938C19.9588 11.3235 19.9083 11.4471 19.8353 11.5572C19.7623 11.6674 19.6682 11.762 19.5584 11.8355C19.4486 11.9091 19.3253 11.9601 19.1956 11.9858C19.066 12.0114 18.9325 12.011 18.803 11.9848C18.6735 11.9585 18.5505 11.9068 18.441 11.8327C18.3316 11.7586 18.238 11.6636 18.1655 11.553C18.093 11.4425 18.0432 11.3187 18.0189 11.1888C17.9945 11.0589 17.9962 10.9255 18.0238 10.7963C18.129 10.2793 18.349 9.79256 18.6676 9.37206C18.9862 8.95155 19.3952 8.60801 19.8644 8.36682C20.3336 8.12562 20.851 7.99294 21.3784 7.97858C21.9058 7.96422 22.4296 8.06854 22.9113 8.28384C23.3929 8.49914 23.82 8.8199 24.161 9.22245C24.502 9.62499 24.7482 10.099 24.8814 10.6095C25.0146 11.12 25.0314 11.6538 24.9306 12.1717C24.8297 12.6895 24.6138 13.1781 24.2987 13.6012L21 18H24C24.2652 18 24.5196 18.1054 24.7071 18.2929C24.8946 18.4804 25 18.7348 25 19C25 19.2652 24.8946 19.5196 24.7071 19.7071C24.5196 19.8946 24.2652 20 24 20Z" fill="white"/>
<path d="M71.5002 18C71.5002 18.3978 71.3422 18.7794 71.0609 19.0607C70.7796 19.342 70.3981 19.5 70.0002 19.5H64.0002C63.7217 19.5 63.4486 19.4224 63.2116 19.276C62.9747 19.1295 62.7832 18.92 62.6586 18.6708C62.534 18.4217 62.4813 18.1427 62.5063 17.8653C62.5313 17.5879 62.6331 17.3229 62.8002 17.1L68.1965 9.90626C68.3264 9.73361 68.4175 9.53493 68.4635 9.32382C68.5095 9.11271 68.5094 8.89415 68.4631 8.68309C68.4168 8.47204 68.3255 8.27348 68.1953 8.10099C68.0652 7.9285 67.8994 7.78617 67.7091 7.68372C67.5189 7.58127 67.3088 7.52113 67.0931 7.50741C66.8775 7.49369 66.6614 7.52672 66.4598 7.60424C66.2581 7.68175 66.0755 7.80192 65.9246 7.95653C65.7736 8.11113 65.6579 8.29652 65.5852 8.50001C65.4526 8.87513 65.1764 9.1822 64.8174 9.35368C64.4584 9.52516 64.046 9.54699 63.6709 9.41439C63.2957 9.28178 62.9887 9.00559 62.8172 8.64657C62.6457 8.28756 62.6239 7.87513 62.7565 7.50001C62.9106 7.06686 63.1298 6.65969 63.4065 6.29251C64.1281 5.34888 65.1936 4.72888 66.3706 4.56774C67.5475 4.40659 68.7405 4.71737 69.6892 5.4323C70.6379 6.14723 71.2655 7.2083 71.435 8.38408C71.6045 9.55987 71.3022 10.755 70.594 11.7088L67.0002 16.5H70.0002C70.3981 16.5 70.7796 16.658 71.0609 16.9394C71.3422 17.2207 71.5002 17.6022 71.5002 18ZM58.9827 8.86751C58.8339 8.73838 58.6612 8.63983 58.4743 8.57749C58.2874 8.51514 58.0901 8.49022 57.8935 8.50415C57.697 8.51808 57.5052 8.57059 57.3289 8.65867C57.1527 8.74675 56.9956 8.86869 56.8665 9.01751L51.5002 15.21L46.134 9.01751C45.8734 8.71682 45.5041 8.53196 45.1072 8.5036C44.7103 8.47523 44.3184 8.60569 44.0177 8.86626C43.717 9.12684 43.5322 9.49619 43.5038 9.89306C43.4755 10.2899 43.6059 10.6818 43.8665 10.9825L49.5152 17.5L43.8665 24.0175C43.7375 24.1664 43.639 24.3392 43.5768 24.5262C43.5146 24.7131 43.4898 24.9104 43.5038 25.107C43.5179 25.3035 43.5705 25.4953 43.6587 25.6715C43.7468 25.8477 43.8688 26.0047 44.0177 26.1338C44.1666 26.2628 44.3395 26.3612 44.5264 26.4234C44.7133 26.4857 44.9107 26.5105 45.1072 26.4964C45.3037 26.4824 45.4955 26.4298 45.6717 26.3416C45.8479 26.2534 46.005 26.1314 46.134 25.9825L51.5002 19.79L56.8665 25.9825C56.9955 26.1314 57.1526 26.2534 57.3288 26.3416C57.505 26.4298 57.6968 26.4824 57.8933 26.4964C58.0898 26.5105 58.2872 26.4857 58.4741 26.4234C58.661 26.3612 58.8338 26.2628 58.9827 26.1338C59.1316 26.0047 59.2536 25.8477 59.3418 25.6715C59.43 25.4953 59.4826 25.3035 59.4966 25.107C59.5107 24.9104 59.4859 24.7131 59.4237 24.5262C59.3614 24.3392 59.263 24.1664 59.134 24.0175L53.4852 17.5L59.134 10.9825C59.3942 10.6819 59.5245 10.2903 59.4961 9.8937C59.4678 9.49712 59.2831 9.12802 58.9827 8.86751Z" fill="white"/>
</g>
<defs>
<clipPath id="clip0_27_7526">
<rect width="72" height="32" rx="5" fill="white"/>
</clipPath>
</defs>
</svg>
