<svg width="72" height="32" viewBox="0 0 72 32" fill="none" xmlns="http://www.w3.org/2000/svg">
<g clip-path="url(#clip0_27_5691)">
<path d="M18.5912 15H13.4087L16 9.38625L18.5912 15ZM27 4V28C27 28.2652 26.8946 28.5196 26.7071 28.7071C26.5196 28.8946 26.2652 29 26 29H6C5.73478 29 5.48043 28.8946 5.29289 28.7071C5.10536 28.5196 5 28.2652 5 28V4C5 3.73478 5.10536 3.48043 5.29289 3.29289C5.48043 3.10536 5.73478 3 6 3H26C26.2652 3 26.5196 3.10536 26.7071 3.29289C26.8946 3.48043 27 3.73478 27 4ZM9.58125 20.9075C9.82195 21.0184 10.0968 21.0292 10.3455 20.9376C10.5942 20.8459 10.7963 20.6593 10.9075 20.4188L12.4862 17H19.5138L21.0925 20.4188C21.209 20.6506 21.411 20.8282 21.6559 20.9139C21.9009 20.9996 22.1695 20.9867 22.4051 20.878C22.6408 20.7693 22.8249 20.5732 22.9186 20.3312C23.0124 20.0893 23.0084 19.8203 22.9075 19.5812L16.9075 6.58125C16.8273 6.40807 16.6993 6.26144 16.5385 6.15867C16.3777 6.05591 16.1908 6.0013 16 6.0013C15.8092 6.0013 15.6223 6.05591 15.4615 6.15867C15.3007 6.26144 15.1727 6.40807 15.0925 6.58125L9.0925 19.5812C8.98159 19.822 8.97077 20.0968 9.06241 20.3455C9.15405 20.5942 9.34067 20.7963 9.58125 20.9075ZM25 24C25 23.7348 24.8946 23.4804 24.7071 23.2929C24.5196 23.1054 24.2652 23 24 23H8C7.73478 23 7.48043 23.1054 7.29289 23.2929C7.10536 23.4804 7 23.7348 7 24C7 24.2652 7.10536 24.5196 7.29289 24.7071C7.48043 24.8946 7.73478 25 8 25H24C24.2652 25 24.5196 24.8946 24.7071 24.7071C24.8946 24.5196 25 24.2652 25 24Z" fill="white"/>
<path d="M47.3612 22.3575C47.5397 22.442 47.7331 22.4905 47.9303 22.5001C48.1275 22.5097 48.3247 22.4802 48.5105 22.4134C48.6963 22.3467 48.8671 22.2439 49.0131 22.1109C49.1591 21.978 49.2774 21.8175 49.3612 21.6388L51.305 17.5H60.695L62.6425 21.6388C62.8119 21.9988 63.1174 22.2768 63.4918 22.4116C63.8661 22.5464 64.2787 22.5269 64.6388 22.3575C64.9988 22.1881 65.2768 21.8826 65.4116 21.5083C65.5464 21.1339 65.5269 20.7213 65.3575 20.3613L57.3575 3.36127C57.2364 3.10358 57.0444 2.88568 56.804 2.73306C56.5636 2.58044 56.2847 2.49939 56 2.49939C55.7153 2.49939 55.4364 2.58044 55.196 2.73306C54.9556 2.88568 54.7636 3.10358 54.6425 3.36127L46.6425 20.3613C46.5586 20.5395 46.5106 20.7326 46.5013 20.9294C46.492 21.1262 46.5216 21.3229 46.5883 21.5083C46.6551 21.6937 46.7577 21.8641 46.8903 22.0098C47.0229 22.1555 47.183 22.2737 47.3612 22.3575ZM56 7.52252L59.2838 14.5H52.7163L56 7.52252ZM68.5 27C68.5 27.3978 68.342 27.7794 68.0607 28.0607C67.7794 28.342 67.3978 28.5 67 28.5H45C44.6022 28.5 44.2206 28.342 43.9393 28.0607C43.658 27.7794 43.5 27.3978 43.5 27C43.5 26.6022 43.658 26.2207 43.9393 25.9394C44.2206 25.6581 44.6022 25.5 45 25.5H67C67.3978 25.5 67.7794 25.6581 68.0607 25.9394C68.342 26.2207 68.5 26.6022 68.5 27Z" fill="white"/>
</g>
<defs>
<clipPath id="clip0_27_5691">
<rect width="72" height="32" rx="5" fill="white"/>
</clipPath>
</defs>
</svg>
