<svg width="72" height="32" viewBox="0 0 72 32" fill="none" xmlns="http://www.w3.org/2000/svg">
<g clip-path="url(#clip0_27_7471)">
<path d="M26 4H6C5.46957 4 4.96086 4.21071 4.58579 4.58579C4.21071 4.96086 4 5.46957 4 6V26C4 26.5304 4.21071 27.0391 4.58579 27.4142C4.96086 27.7893 5.46957 28 6 28H26C26.5304 28 27.0391 27.7893 27.4142 27.4142C27.7893 27.0391 28 26.5304 28 26V6C28 5.46957 27.7893 4.96086 27.4142 4.58579C27.0391 4.21071 26.5304 4 26 4ZM16 20C16 20.2652 15.8946 20.5196 15.7071 20.7071C15.5196 20.8946 15.2652 21 15 21C14.7348 21 14.4804 20.8946 14.2929 20.7071C14.1054 20.5196 14 20.2652 14 20V16H9V20C9 20.2652 8.89464 20.5196 8.70711 20.7071C8.51957 20.8946 8.26522 21 8 21C7.73478 21 7.48043 20.8946 7.29289 20.7071C7.10536 20.5196 7 20.2652 7 20V10C7 9.73478 7.10536 9.48043 7.29289 9.29289C7.48043 9.10536 7.73478 9 8 9C8.26522 9 8.51957 9.10536 8.70711 9.29289C8.89464 9.48043 9 9.73478 9 10V14H14V10C14 9.73478 14.1054 9.48043 14.2929 9.29289C14.4804 9.10536 14.7348 9 15 9C15.2652 9 15.5196 9.10536 15.7071 9.29289C15.8946 9.48043 16 9.73478 16 10V20ZM21 15C21.6484 15.0001 22.287 15.1578 22.8609 15.4596C23.4348 15.7613 23.9267 16.198 24.2943 16.7321C24.6619 17.2662 24.8942 17.8816 24.9711 18.5254C25.048 19.1692 24.9673 19.822 24.7359 20.4277C24.5045 21.0334 24.1293 21.5737 23.6427 22.0022C23.156 22.4306 22.5725 22.7344 21.9425 22.8872C21.3124 23.0401 20.6546 23.0375 20.0257 22.8797C19.3968 22.7219 18.8157 22.4135 18.3325 21.9813C18.1397 21.8031 18.0248 21.5563 18.0123 21.2942C17.9999 21.032 18.0911 20.7755 18.2661 20.5799C18.4412 20.3843 18.6861 20.2654 18.948 20.2489C19.21 20.2323 19.4679 20.3193 19.6663 20.4912C19.9549 20.7458 20.3109 20.9117 20.6915 20.969C21.0721 21.0263 21.4612 20.9725 21.812 20.8141C22.1628 20.6558 22.4605 20.3995 22.6693 20.0762C22.8781 19.7529 22.9891 19.3761 22.9891 18.9912C22.9891 18.6064 22.8781 18.2296 22.6693 17.9063C22.4605 17.583 22.1628 17.3267 21.812 17.1684C21.4612 17.01 21.0721 16.9562 20.6915 17.0135C20.3109 17.0708 19.9549 17.2367 19.6663 17.4912C19.5092 17.6322 19.3117 17.7198 19.1019 17.7416C18.892 17.7635 18.6807 17.7184 18.498 17.6129C18.3154 17.5073 18.1708 17.3467 18.0849 17.154C17.999 16.9613 17.9763 16.7464 18.02 16.54L19.02 11.79C19.0681 11.566 19.1917 11.3653 19.3701 11.2215C19.5485 11.0777 19.7709 10.9995 20 11H24C24.2652 11 24.5196 11.1054 24.7071 11.2929C24.8946 11.4804 25 11.7348 25 12C25 12.2652 24.8946 12.5196 24.7071 12.7071C24.5196 12.8946 24.2652 13 24 13H20.8113L20.375 15.0463C20.5819 15.0155 20.7908 15.0001 21 15Z" fill="white"/>
<path d="M71.5 22.5C71.5 23.8261 70.9732 25.0979 70.0355 26.0355C69.0979 26.9732 67.8261 27.5 66.5 27.5C65.8379 27.5099 65.1807 27.3867 64.5672 27.1376C63.9537 26.8885 63.3965 26.5186 62.9287 26.05C62.7909 25.9093 62.682 25.7429 62.6085 25.5601C62.5349 25.3774 62.4981 25.1819 62.5 24.985C62.502 24.788 62.5428 24.5933 62.62 24.4121C62.6972 24.2309 62.8093 24.0666 62.95 23.9287C63.0907 23.7909 63.2571 23.682 63.4399 23.6085C63.6226 23.5349 63.8181 23.4981 64.015 23.5C64.212 23.502 64.4067 23.5428 64.5879 23.62C64.7691 23.6972 64.9334 23.8093 65.0713 23.95C65.2597 24.1337 65.4836 24.2771 65.7292 24.3717C65.9748 24.4662 66.237 24.5099 66.5 24.5C67.0304 24.5 67.5391 24.2893 67.9142 23.9142C68.2893 23.5391 68.5 23.0304 68.5 22.5C68.5 21.9696 68.2893 21.4609 67.9142 21.0858C67.5391 20.7107 67.0304 20.5 66.5 20.5C66.237 20.4901 65.9748 20.5338 65.7292 20.6283C65.4836 20.7229 65.2597 20.8663 65.0713 21.05C64.8478 21.2785 64.5571 21.4297 64.2417 21.4815C63.9263 21.5332 63.6026 21.4829 63.3178 21.3377C63.033 21.1926 62.802 20.9603 62.6585 20.6747C62.515 20.3891 62.4665 20.0651 62.52 19.75L63.52 13.75C63.5791 13.4003 63.7602 13.0829 64.0311 12.854C64.3021 12.6252 64.6454 12.4998 65 12.5H70C70.3978 12.5 70.7794 12.658 71.0607 12.9393C71.342 13.2206 71.5 13.6022 71.5 14C71.5 14.3978 71.342 14.7794 71.0607 15.0607C70.7794 15.342 70.3978 15.5 70 15.5H66.2712L65.9325 17.5287C66.1211 17.5097 66.3105 17.5001 66.5 17.5C67.8261 17.5 69.0979 18.0268 70.0355 18.9645C70.9732 19.9021 71.5 21.1739 71.5 22.5ZM58 5.5C57.6022 5.5 57.2206 5.65804 56.9393 5.93934C56.658 6.22064 56.5 6.60218 56.5 7V13H46.5V7C46.5 6.60218 46.342 6.22064 46.0607 5.93934C45.7794 5.65804 45.3978 5.5 45 5.5C44.6022 5.5 44.2206 5.65804 43.9393 5.93934C43.658 6.22064 43.5 6.60218 43.5 7V22C43.5 22.3978 43.658 22.7794 43.9393 23.0607C44.2206 23.342 44.6022 23.5 45 23.5C45.3978 23.5 45.7794 23.342 46.0607 23.0607C46.342 22.7794 46.5 22.3978 46.5 22V16H56.5V22C56.5 22.3978 56.658 22.7794 56.9393 23.0607C57.2206 23.342 57.6022 23.5 58 23.5C58.3978 23.5 58.7794 23.342 59.0607 23.0607C59.342 22.7794 59.5 22.3978 59.5 22V7C59.5 6.60218 59.342 6.22064 59.0607 5.93934C58.7794 5.65804 58.3978 5.5 58 5.5Z" fill="white"/>
</g>
<defs>
<clipPath id="clip0_27_7471">
<rect width="72" height="32" rx="5" fill="white"/>
</clipPath>
</defs>
</svg>
