<svg width="72" height="32" viewBox="0 0 72 32" fill="none" xmlns="http://www.w3.org/2000/svg">
<g clip-path="url(#clip0_27_7506)">
<path d="M26 4H6C5.46957 4 4.96086 4.21071 4.58579 4.58579C4.21071 4.96086 4 5.46957 4 6V26C4 26.5304 4.21071 27.0391 4.58579 27.4142C4.96086 27.7893 5.46957 28 6 28H26C26.5304 28 27.0391 27.7893 27.4142 27.4142C27.7893 27.0391 28 26.5304 28 26V6C28 5.46957 27.7893 4.96086 27.4142 4.58579C27.0391 4.21071 26.5304 4 26 4ZM22 10H19.205L14.9187 22H17C17.2652 22 17.5196 22.1054 17.7071 22.2929C17.8946 22.4804 18 22.7348 18 23C18 23.2652 17.8946 23.5196 17.7071 23.7071C17.5196 23.8946 17.2652 24 17 24H10C9.73478 24 9.48043 23.8946 9.29289 23.7071C9.10536 23.5196 9 23.2652 9 23C9 22.7348 9.10536 22.4804 9.29289 22.2929C9.48043 22.1054 9.73478 22 10 22H12.795L17.0812 10H15C14.7348 10 14.4804 9.89464 14.2929 9.70711C14.1054 9.51957 14 9.26522 14 9C14 8.73478 14.1054 8.48043 14.2929 8.29289C14.4804 8.10536 14.7348 8 15 8H22C22.2652 8 22.5196 8.10536 22.7071 8.29289C22.8946 8.48043 23 8.73478 23 9C23 9.26522 22.8946 9.51957 22.7071 9.70711C22.5196 9.89464 22.2652 10 22 10Z" fill="white"/>
<path d="M65.5 7C65.5 7.39782 65.342 7.77936 65.0607 8.06066C64.7794 8.34196 64.3978 8.5 64 8.5H60.0812L55.0813 23.5H58C58.3978 23.5 58.7794 23.658 59.0607 23.9393C59.342 24.2206 59.5 24.6022 59.5 25C59.5 25.3978 59.342 25.7794 59.0607 26.0607C58.7794 26.342 58.3978 26.5 58 26.5H48C47.6022 26.5 47.2206 26.342 46.9393 26.0607C46.658 25.7794 46.5 25.3978 46.5 25C46.5 24.6022 46.658 24.2206 46.9393 23.9393C47.2206 23.658 47.6022 23.5 48 23.5H51.9187L56.9188 8.5H54C53.6022 8.5 53.2206 8.34196 52.9393 8.06066C52.658 7.77936 52.5 7.39782 52.5 7C52.5 6.60218 52.658 6.22064 52.9393 5.93934C53.2206 5.65804 53.6022 5.5 54 5.5H64C64.3978 5.5 64.7794 5.65804 65.0607 5.93934C65.342 6.22064 65.5 6.60218 65.5 7Z" fill="white"/>
</g>
<defs>
<clipPath id="clip0_27_7506">
<rect width="72" height="32" rx="5" fill="white"/>
</clipPath>
</defs>
</svg>
