<svg width="72" height="32" viewBox="0 0 72 32" fill="none" xmlns="http://www.w3.org/2000/svg">
<g clip-path="url(#clip0_27_7546)">
<path d="M31 10V22C31 22.5304 30.7893 23.0391 30.4142 23.4142C30.0391 23.7893 29.5304 24 29 24H17.5C17.3674 24 17.2402 23.9473 17.1464 23.8536C17.0527 23.7598 17 23.6326 17 23.5V8.5C17 8.36739 17.0527 8.24021 17.1464 8.14645C17.2402 8.05268 17.3674 8 17.5 8H29C29.5304 8 30.0391 8.21071 30.4142 8.58579C30.7893 8.96086 31 9.46957 31 10ZM15 6V26C15 26.2652 14.8946 26.5196 14.7071 26.7071C14.5196 26.8946 14.2652 27 14 27C13.7348 27 13.4804 26.8946 13.2929 26.7071C13.1054 26.5196 13 26.2652 13 26V24H3C2.46957 24 1.96086 23.7893 1.58579 23.4142C1.21071 23.0391 1 22.5304 1 22V10C1 9.46957 1.21071 8.96086 1.58579 8.58579C1.96086 8.21071 2.46957 8 3 8H13V6C13 5.73478 13.1054 5.48043 13.2929 5.29289C13.4804 5.10536 13.7348 5 14 5C14.2652 5 14.5196 5.10536 14.7071 5.29289C14.8946 5.48043 15 5.73478 15 6ZM11 14C11 13.7348 10.8946 13.4804 10.7071 13.2929C10.5196 13.1054 10.2652 13 10 13H6C5.73478 13 5.48043 13.1054 5.29289 13.2929C5.10536 13.4804 5 13.7348 5 14C5 14.2652 5.10536 14.5196 5.29289 14.7071C5.48043 14.8946 5.73478 15 6 15H7V18C7 18.2652 7.10536 18.5196 7.29289 18.7071C7.48043 18.8946 7.73478 19 8 19C8.26522 19 8.51957 18.8946 8.70711 18.7071C8.89464 18.5196 9 18.2652 9 18V15H10C10.2652 15 10.5196 14.8946 10.7071 14.7071C10.8946 14.5196 11 14.2652 11 14Z" fill="white"/>
<path d="M54 4.5C53.6022 4.5 53.2206 4.65804 52.9393 4.93934C52.658 5.22064 52.5 5.60218 52.5 6V7.5H43C42.6717 7.5 42.3466 7.56466 42.0433 7.6903C41.74 7.81594 41.4644 8.00009 41.2322 8.23223C40.7634 8.70107 40.5 9.33696 40.5 10V22C40.5 22.663 40.7634 23.2989 41.2322 23.7678C41.4644 23.9999 41.74 24.1841 42.0433 24.3097C42.3466 24.4353 42.6717 24.5 43 24.5H52.5V26C52.5 26.3978 52.658 26.7794 52.9393 27.0607C53.2206 27.342 53.6022 27.5 54 27.5C54.3978 27.5 54.7794 27.342 55.0607 27.0607C55.342 26.7794 55.5 26.3978 55.5 26V6C55.5 5.60218 55.342 5.22064 55.0607 4.93934C54.7794 4.65804 54.3978 4.5 54 4.5ZM43.5 21.5V10.5H52.5V21.5H43.5ZM71.5 10V22C71.5 22.663 71.2366 23.2989 70.7678 23.7678C70.2989 24.2366 69.663 24.5 69 24.5H59C58.6022 24.5 58.2206 24.342 57.9393 24.0607C57.658 23.7794 57.5 23.3978 57.5 23C57.5 22.6022 57.658 22.2206 57.9393 21.9393C58.2206 21.658 58.6022 21.5 59 21.5H68.5V10.5H59C58.6022 10.5 58.2206 10.342 57.9393 10.0607C57.658 9.77936 57.5 9.39782 57.5 9C57.5 8.60218 57.658 8.22064 57.9393 7.93934C58.2206 7.65804 58.6022 7.5 59 7.5H69C69.663 7.5 70.2989 7.76339 70.7678 8.23223C71.2366 8.70107 71.5 9.33696 71.5 10ZM51 14C51 14.3978 50.842 14.7794 50.5607 15.0607C50.2794 15.342 49.8978 15.5 49.5 15.5V18C49.5 18.3978 49.342 18.7794 49.0607 19.0607C48.7794 19.342 48.3978 19.5 48 19.5C47.6022 19.5 47.2206 19.342 46.9393 19.0607C46.658 18.7794 46.5 18.3978 46.5 18V15.5C46.1022 15.5 45.7206 15.342 45.4393 15.0607C45.158 14.7794 45 14.3978 45 14C45 13.6022 45.158 13.2206 45.4393 12.9393C45.7206 12.658 46.1022 12.5 46.5 12.5H49.5C49.8978 12.5 50.2794 12.658 50.5607 12.9393C50.842 13.2206 51 13.6022 51 14Z" fill="white"/>
</g>
<defs>
<clipPath id="clip0_27_7546">
<rect width="72" height="32" rx="5" fill="white"/>
</clipPath>
</defs>
</svg>
