<svg width="72" height="32" viewBox="0 0 72 32" fill="none" xmlns="http://www.w3.org/2000/svg">
<g clip-path="url(#clip0_27_7481)">
<path d="M26 4H6C5.46957 4 4.96086 4.21071 4.58579 4.58579C4.21071 4.96086 4 5.46957 4 6V26C4 26.5304 4.21071 27.0391 4.58579 27.4142C4.96086 27.7893 5.46957 28 6 28H26C26.5304 28 27.0391 27.7893 27.4142 27.4142C27.7893 27.0391 28 26.5304 28 26V6C28 5.46957 27.7893 4.96086 27.4142 4.58579C27.0391 4.21071 26.5304 4 26 4ZM18 20C18 20.2652 17.8946 20.5196 17.7071 20.7071C17.5196 20.8946 17.2652 21 17 21C16.7348 21 16.4804 20.8946 16.2929 20.7071C16.1054 20.5196 16 20.2652 16 20V16H9V20C9 20.2652 8.89464 20.5196 8.70711 20.7071C8.51957 20.8946 8.26522 21 8 21C7.73478 21 7.48043 20.8946 7.29289 20.7071C7.10536 20.5196 7 20.2652 7 20V10C7 9.73478 7.10536 9.48043 7.29289 9.29289C7.48043 9.10536 7.73478 9 8 9C8.26522 9 8.51957 9.10536 8.70711 9.29289C8.89464 9.48043 9 9.73478 9 10V14H16V10C16 9.73478 16.1054 9.48043 16.2929 9.29289C16.4804 9.10536 16.7348 9 17 9C17.2652 9 17.5196 9.10536 17.7071 9.29289C17.8946 9.48043 18 9.73478 18 10V20ZM25 22C25 22.2652 24.8946 22.5196 24.7071 22.7071C24.5196 22.8946 24.2652 23 24 23C23.7348 23 23.4804 22.8946 23.2929 22.7071C23.1054 22.5196 23 22.2652 23 22V13.875L21.555 14.8387C21.4457 14.9116 21.3231 14.9623 21.1942 14.9878C21.0653 15.0133 20.9326 15.0131 20.8038 14.9874C20.6749 14.9616 20.5524 14.9107 20.4433 14.8376C20.3341 14.7645 20.2404 14.6706 20.1675 14.5612C20.0946 14.4519 20.044 14.3293 20.0185 14.2004C19.993 14.0715 19.9931 13.9389 20.0189 13.81C20.0447 13.6812 20.0956 13.5587 20.1687 13.4495C20.2418 13.3403 20.3357 13.2466 20.445 13.1737L23.445 11.1737C23.5952 11.0735 23.7697 11.0159 23.9501 11.0068C24.1304 10.9978 24.3098 11.0378 24.4692 11.1225C24.6287 11.2072 24.7622 11.3335 24.8557 11.488C24.9491 11.6425 24.999 11.8194 25 12V22Z" fill="white"/>
<path d="M69.5 14V26C69.5 26.3978 69.342 26.7794 69.0607 27.0607C68.7794 27.342 68.3978 27.5 68 27.5C67.6022 27.5 67.2206 27.342 66.9393 27.0607C66.658 26.7794 66.5 26.3978 66.5 26V16.8025L65.8325 17.25C65.6683 17.3593 65.4843 17.4352 65.2908 17.4734C65.0973 17.5116 64.8982 17.5113 64.7048 17.4725C64.5114 17.4338 64.3276 17.3573 64.1637 17.2475C63.9999 17.1377 63.8593 16.9967 63.75 16.8325C63.6407 16.6683 63.5648 16.4843 63.5266 16.2908C63.4884 16.0973 63.4887 15.8982 63.5275 15.7048C63.5662 15.5114 63.6427 15.3276 63.7525 15.1637C63.8623 14.9999 64.0033 14.8593 64.1675 14.75L67.1675 12.75C67.3935 12.5992 67.6563 12.5126 67.9277 12.4995C68.1991 12.4864 68.469 12.5473 68.7085 12.6757C68.948 12.804 69.1482 12.995 69.2876 13.2283C69.427 13.4615 69.5004 13.7283 69.5 14ZM58 5.5C57.6022 5.5 57.2206 5.65804 56.9393 5.93934C56.658 6.22064 56.5 6.60218 56.5 7V13H46.5V7C46.5 6.60218 46.342 6.22064 46.0607 5.93934C45.7794 5.65804 45.3978 5.5 45 5.5C44.6022 5.5 44.2206 5.65804 43.9393 5.93934C43.658 6.22064 43.5 6.60218 43.5 7V22C43.5 22.3978 43.658 22.7794 43.9393 23.0607C44.2206 23.342 44.6022 23.5 45 23.5C45.3978 23.5 45.7794 23.342 46.0607 23.0607C46.342 22.7794 46.5 22.3978 46.5 22V16H56.5V22C56.5 22.3978 56.658 22.7794 56.9393 23.0607C57.2206 23.342 57.6022 23.5 58 23.5C58.3978 23.5 58.7794 23.342 59.0607 23.0607C59.342 22.7794 59.5 22.3978 59.5 22V7C59.5 6.60218 59.342 6.22064 59.0607 5.93934C58.7794 5.65804 58.3978 5.5 58 5.5Z" fill="white"/>
</g>
<defs>
<clipPath id="clip0_27_7481">
<rect width="72" height="32" rx="5" fill="white"/>
</clipPath>
</defs>
</svg>
