<svg width="72" height="32" viewBox="0 0 72 32" fill="none" xmlns="http://www.w3.org/2000/svg">
<g clip-path="url(#clip0_27_2304)">
<path d="M31.1138 9.715L28.6138 10.5262L30.1562 12.6512C30.2378 12.7572 30.2972 12.8783 30.3311 13.0076C30.365 13.1369 30.3726 13.2717 30.3535 13.404C30.3344 13.5363 30.289 13.6634 30.22 13.7778C30.1509 13.8922 30.0596 13.9917 29.9515 14.0702C29.8434 14.1488 29.7206 14.2048 29.5904 14.2351C29.4602 14.2654 29.3253 14.2693 29.1936 14.2466C29.0619 14.2238 28.9361 14.1749 28.8236 14.1027C28.7111 14.0305 28.6143 13.9365 28.5387 13.8263L27 11.7013L25.4575 13.8263C25.2987 14.0326 25.0656 14.1689 24.8078 14.2061C24.5501 14.2433 24.288 14.1785 24.0773 14.0254C23.8666 13.8723 23.7239 13.6431 23.6796 13.3865C23.6353 13.1299 23.6928 12.8661 23.84 12.6512L25.3825 10.5262L22.8825 9.715C22.6302 9.63311 22.4208 9.45436 22.3003 9.21807C22.1798 8.98177 22.1581 8.70729 22.24 8.455C22.3219 8.20271 22.5006 7.99329 22.7369 7.8728C22.9732 7.7523 23.2477 7.73061 23.5 7.8125L26 8.625V6C26 5.73478 26.1054 5.48043 26.2929 5.29289C26.4804 5.10536 26.7348 5 27 5C27.2652 5 27.5196 5.10536 27.7071 5.29289C27.8946 5.48043 28 5.73478 28 6V8.625L30.5 7.81375C30.7523 7.7317 31.0268 7.75323 31.2632 7.8736C31.4997 7.99398 31.6786 8.20334 31.7606 8.45562C31.8427 8.70791 31.8211 8.98246 31.7008 9.21887C31.5804 9.45529 31.371 9.6342 31.1187 9.71625L31.1138 9.715ZM22 24C21.9991 25.2034 21.6879 26.3863 21.0965 27.4344C20.5052 28.4825 19.6536 29.3604 18.624 29.9834C17.5944 30.6065 16.4216 30.9535 15.2188 30.9911C14.0159 31.0288 12.8237 30.7556 11.7572 30.1981C10.6907 29.6406 9.78596 28.8176 9.13027 27.8085C8.47459 26.7994 8.09013 25.6383 8.01402 24.4373C7.9379 23.2363 8.1727 22.0359 8.69574 20.9521C9.21879 19.8683 10.0124 18.9377 11 18.25V5C11 3.93913 11.4214 2.92172 12.1716 2.17157C12.9217 1.42143 13.9391 1 15 1C16.0609 1 17.0783 1.42143 17.8284 2.17157C18.5786 2.92172 19 3.93913 19 5V18.25C19.9251 18.8971 20.6806 19.7574 21.2028 20.7583C21.725 21.7592 21.9985 22.8711 22 24ZM10.1025 23H19.8975C19.7551 22.3072 19.4679 21.6523 19.0548 21.0782C18.6416 20.5041 18.1118 20.0238 17.5 19.6688C17.3479 19.581 17.2217 19.4547 17.1339 19.3026C17.0461 19.1506 17 18.9781 17 18.8025V5C17 4.46957 16.7893 3.96086 16.4142 3.58579C16.0391 3.21071 15.5304 3 15 3C14.4696 3 13.9609 3.21071 13.5858 3.58579C13.2107 3.96086 13 4.46957 13 5V18.8025C13 18.9781 12.9539 19.1506 12.8661 19.3026C12.7783 19.4547 12.6521 19.581 12.5 19.6688C11.8882 20.0238 11.3584 20.5041 10.9452 21.0782C10.5321 21.6523 10.2449 22.3072 10.1025 23Z" fill="white"/>
<path d="M60 7C60 5.27609 59.3152 3.62279 58.0962 2.40381C56.8772 1.18482 55.2239 0.5 53.5 0.5C51.7761 0.5 50.1228 1.18482 48.9038 2.40381C47.6848 3.62279 47 5.27609 47 7V18.8363C46.1423 20.0317 45.6308 21.4406 45.5219 22.9079C45.413 24.3752 45.7109 25.8441 46.3828 27.1531C47.0547 28.462 48.0745 29.5604 49.3302 30.3273C50.5858 31.0942 52.0287 31.4999 53.5 31.4999C54.9713 31.4999 56.4142 31.0942 57.6698 30.3273C58.9255 29.5604 59.9453 28.462 60.6172 27.1531C61.2891 25.8441 61.587 24.3752 61.4781 22.9079C61.3692 21.4406 60.8577 20.0317 60 18.8363V7ZM53.5 28.5C52.5527 28.5 51.6248 28.2309 50.8245 27.724C50.0241 27.2171 49.3843 26.4933 48.9794 25.6368C48.5746 24.7803 48.4214 23.8265 48.5377 22.8863C48.6539 21.9461 49.0349 21.0583 49.6363 20.3263C49.8708 20.0541 49.9999 19.7068 50 19.3475V7C50 6.07174 50.3688 5.1815 51.0251 4.52513C51.6815 3.86875 52.5717 3.5 53.5 3.5C54.4283 3.5 55.3185 3.86875 55.9749 4.52513C56.6313 5.1815 57 6.07174 57 7V19.3463C56.9997 19.6969 57.1222 20.0366 57.3463 20.3062C57.9527 21.0368 58.3387 21.9249 58.4589 22.8667C58.5792 23.8085 58.4288 24.7651 58.0253 25.6246C57.6219 26.4841 56.982 27.211 56.1807 27.7202C55.3793 28.2294 54.4495 28.4998 53.5 28.5ZM70.7675 10.19L68.9275 10.7887L70.065 12.3538C70.2989 12.6757 70.3953 13.0773 70.3331 13.4703C70.2708 13.8633 70.055 14.2155 69.7331 14.4494C69.4112 14.6833 69.0096 14.7797 68.6166 14.7175C68.2236 14.6552 67.8714 14.4394 67.6375 14.1175L66.5 12.5525L65.3625 14.1175C65.1286 14.4394 64.7764 14.6552 64.3834 14.7175C63.9904 14.7797 63.5888 14.6833 63.2669 14.4494C62.945 14.2155 62.7292 13.8633 62.6669 13.4703C62.6047 13.0773 62.7011 12.6757 62.935 12.3538L64.0725 10.7887L62.2325 10.19C62.0408 10.1329 61.8624 10.0379 61.708 9.91084C61.5535 9.78374 61.426 9.62702 61.333 9.44991C61.24 9.2728 61.1833 9.07887 61.1664 8.87954C61.1494 8.68021 61.1725 8.47951 61.2343 8.28924C61.2961 8.09897 61.3953 7.92299 61.5261 7.77164C61.6569 7.62029 61.8167 7.49663 61.996 7.40795C62.1754 7.31927 62.3706 7.26735 62.5703 7.25525C62.77 7.24315 62.97 7.27112 63.1588 7.3375L65 7.935V6C65 5.60218 65.158 5.22064 65.4393 4.93934C65.7206 4.65804 66.1022 4.5 66.5 4.5C66.8978 4.5 67.2794 4.65804 67.5607 4.93934C67.842 5.22064 68 5.60218 68 6V7.935L69.8413 7.3375C70.03 7.27112 70.23 7.24315 70.4297 7.25525C70.6294 7.26735 70.8247 7.31927 71.004 7.40795C71.1833 7.49663 71.3431 7.62029 71.4739 7.77164C71.6047 7.92299 71.7039 8.09897 71.7657 8.28924C71.8275 8.47951 71.8506 8.68021 71.8336 8.87954C71.8167 9.07887 71.76 9.2728 71.667 9.44991C71.574 9.62702 71.4465 9.78374 71.292 9.91084C71.1376 10.0379 70.9592 10.1329 70.7675 10.19ZM56.5 23.5C56.5001 24.0266 56.3616 24.544 56.0983 25.0001C55.8351 25.4563 55.4564 25.8351 55.0004 26.0984C54.5443 26.3618 54.027 26.5005 53.5004 26.5006C52.9737 26.5006 52.4564 26.3621 52.0003 26.0988C51.5441 25.8355 51.1654 25.4568 50.902 25.0008C50.6387 24.5447 50.5 24.0274 50.5 23.5007C50.5 22.9741 50.6386 22.4567 50.9019 22.0006C51.1652 21.5446 51.5439 21.1658 52 20.9025V16.5C52 16.1022 52.158 15.7206 52.4393 15.4393C52.7206 15.158 53.1022 15 53.5 15C53.8978 15 54.2794 15.158 54.5607 15.4393C54.842 15.7206 55 16.1022 55 16.5V20.9025C55.456 21.1658 55.8346 21.5444 56.0979 22.0003C56.3612 22.4563 56.4999 22.9735 56.5 23.5Z" fill="white"/>
</g>
<defs>
<clipPath id="clip0_27_2304">
<rect width="72" height="32" rx="5" fill="white"/>
</clipPath>
</defs>
</svg>
