<svg width="72" height="32" viewBox="0 0 72 32" fill="none" xmlns="http://www.w3.org/2000/svg">
<g clip-path="url(#clip0_27_2309)">
<path d="M19 18.26V5C19 3.93913 18.5786 2.92172 17.8284 2.17157C17.0783 1.42143 16.0609 1 15 1C13.9391 1 12.9217 1.42143 12.1716 2.17157C11.4214 2.92172 11 3.93913 11 5V18.26C9.77702 19.1116 8.85772 20.3312 8.37592 21.7415C7.89412 23.1517 7.87496 24.6789 8.32123 26.1008C8.7675 27.5226 9.6559 28.765 10.8571 29.647C12.0584 30.529 13.5097 31.0046 15 31.0046C16.4903 31.0046 17.9416 30.529 19.1429 29.647C20.3441 28.765 21.2325 27.5226 21.6788 26.1008C22.125 24.6789 22.1059 23.1517 21.6241 21.7415C21.1423 20.3312 20.223 19.1116 19 18.26ZM17 7H13V5C13 4.46957 13.2107 3.96086 13.5858 3.58579C13.9609 3.21071 14.4696 3 15 3C15.5304 3 16.0391 3.21071 16.4142 3.58579C16.7893 3.96086 17 4.46957 17 5V7ZM22.1625 10.0962C22.0177 9.87412 21.967 9.60356 22.0216 9.34406C22.0762 9.08457 22.2317 8.85739 22.4538 8.7125C24.3288 7.48875 25.8125 8.11875 26.8925 8.58C27.875 9 28.47 9.25 29.4538 8.61125C29.676 8.46638 29.9468 8.41574 30.2064 8.47047C30.466 8.52521 30.6933 8.68084 30.8381 8.90312C30.983 9.12541 31.0336 9.39614 30.9789 9.65576C30.9242 9.91538 30.7685 10.1426 30.5462 10.2875C29.735 10.8163 29 11 28.3363 11C27.4613 11 26.7213 10.6825 26.1075 10.4213C25.125 10 24.53 9.75 23.5462 10.3888C23.4362 10.4604 23.3131 10.5097 23.184 10.5338C23.0549 10.5579 22.9223 10.5563 22.7938 10.5291C22.6653 10.502 22.5434 10.4497 22.4351 10.3755C22.3268 10.3012 22.2341 10.2063 22.1625 10.0962ZM30.8375 12.9038C30.9823 13.1259 31.033 13.3964 30.9784 13.6559C30.9238 13.9154 30.7683 14.1426 30.5462 14.2875C29.735 14.8163 29 15 28.3363 15C27.4613 15 26.7213 14.6825 26.1075 14.4213C25.1238 14.0013 24.53 13.7488 23.5462 14.39C23.4362 14.4617 23.3131 14.5111 23.1839 14.5352C23.0548 14.5594 22.9222 14.5579 22.7936 14.5308C22.6651 14.5037 22.5431 14.4515 22.4347 14.3773C22.3263 14.303 22.2336 14.2082 22.1619 14.0981C22.017 13.8758 21.9664 13.6051 22.0211 13.3455C22.0758 13.0859 22.2315 12.8586 22.4538 12.7137C24.3288 11.49 25.8125 12.12 26.8925 12.5813C27.8762 13.0013 28.47 13.255 29.4538 12.6125C29.6759 12.4677 29.9464 12.417 30.2059 12.4716C30.4654 12.5262 30.6926 12.6817 30.8375 12.9038Z" fill="white"/>
<path d="M60 7C60 5.27609 59.3152 3.62279 58.0962 2.40381C56.8772 1.18482 55.2239 0.5 53.5 0.5C51.7761 0.5 50.1228 1.18482 48.9038 2.40381C47.6848 3.62279 47 5.27609 47 7V18.8363C46.1423 20.0317 45.6308 21.4406 45.5219 22.9079C45.413 24.3752 45.7109 25.8441 46.3828 27.1531C47.0547 28.462 48.0745 29.5604 49.3302 30.3273C50.5858 31.0942 52.0287 31.4999 53.5 31.4999C54.9713 31.4999 56.4142 31.0942 57.6698 30.3273C58.9255 29.5604 59.9453 28.462 60.6172 27.1531C61.2891 25.8441 61.587 24.3752 61.4781 22.9079C61.3692 21.4406 60.8577 20.0317 60 18.8363V7ZM53.5 28.5C52.5527 28.5 51.6248 28.2309 50.8245 27.724C50.0241 27.2171 49.3843 26.4933 48.9794 25.6368C48.5746 24.7803 48.4214 23.8265 48.5377 22.8863C48.6539 21.9461 49.0349 21.0583 49.6363 20.3263C49.8708 20.0541 49.9999 19.7068 50 19.3475V7C50 6.07174 50.3688 5.1815 51.0251 4.52513C51.6815 3.86875 52.5717 3.5 53.5 3.5C54.4283 3.5 55.3185 3.86875 55.9749 4.52513C56.6313 5.1815 57 6.07174 57 7V19.3463C56.9997 19.6969 57.1222 20.0366 57.3463 20.3062C57.9527 21.0368 58.3387 21.9249 58.4589 22.8667C58.5792 23.8085 58.4288 24.7651 58.0253 25.6246C57.6219 26.4841 56.982 27.211 56.1807 27.7202C55.3793 28.2294 54.4495 28.4998 53.5 28.5ZM56.5 23.5C56.5001 24.0266 56.3616 24.544 56.0983 25.0001C55.8351 25.4563 55.4564 25.8351 55.0004 26.0984C54.5443 26.3618 54.027 26.5005 53.5004 26.5006C52.9737 26.5006 52.4564 26.3621 52.0003 26.0988C51.5441 25.8355 51.1654 25.4568 50.902 25.0008C50.6387 24.5447 50.5 24.0274 50.5 23.5007C50.5 22.9741 50.6386 22.4567 50.9019 22.0006C51.1652 21.5446 51.5439 21.1658 52 20.9025V7C52 6.60218 52.158 6.22064 52.4393 5.93934C52.7206 5.65804 53.1022 5.5 53.5 5.5C53.8978 5.5 54.2794 5.65804 54.5607 5.93934C54.842 6.22064 55 6.60218 55 7V20.9025C55.456 21.1658 55.8346 21.5444 56.0979 22.0003C56.3612 22.4563 56.4999 22.9735 56.5 23.5ZM61.7425 10.375C61.5256 10.0416 61.45 9.63577 61.5323 9.24666C61.6145 8.85754 61.848 8.51704 62.1813 8.3C64.2838 6.925 65.9713 7.65 67.0888 8.12625C68.1 8.55875 68.455 8.6725 69.1813 8.19875C69.5146 7.9816 69.9205 7.90577 70.3098 7.98794C70.6991 8.0701 71.0397 8.30353 71.2569 8.63688C71.474 8.97022 71.5499 9.37617 71.4677 9.76543C71.3855 10.1547 71.1521 10.4954 70.8188 10.7125C69.91 11.2975 69.08 11.5 68.3388 11.5C67.365 11.5 66.5463 11.15 65.9113 10.875C64.9 10.4425 64.545 10.3287 63.8188 10.8025C63.4867 11.0209 63.0815 11.0985 62.6922 11.0183C62.3029 10.9382 61.9613 10.7068 61.7425 10.375ZM71.2563 13.6375C71.4733 13.9707 71.5491 14.3765 71.4671 14.7656C71.385 15.1547 71.1518 15.4953 70.8188 15.7125C69.91 16.3038 69.08 16.5063 68.3388 16.5063C67.365 16.5063 66.5463 16.1562 65.9113 15.8813C64.9 15.4488 64.545 15.335 63.8188 15.8088C63.4854 16.0259 63.0795 16.1017 62.6902 16.0196C62.3009 15.9374 61.9603 15.704 61.7431 15.3706C61.526 15.0373 61.4502 14.6313 61.5323 14.2421C61.6145 13.8528 61.8479 13.5121 62.1813 13.295C64.2838 11.92 65.9713 12.645 67.0888 13.1213C68.1 13.5538 68.455 13.6675 69.1813 13.1938C69.5145 12.9767 69.9202 12.9009 70.3093 12.983C70.6984 13.065 71.039 13.2982 71.2563 13.6313V13.6375Z" fill="white"/>
</g>
<defs>
<clipPath id="clip0_27_2309">
<rect width="72" height="32" rx="5" fill="white"/>
</clipPath>
</defs>
</svg>
