<svg width="72" height="32" viewBox="0 0 72 32" fill="none" xmlns="http://www.w3.org/2000/svg">
<g clip-path="url(#clip0_27_2314)">
<path d="M20 18.26V5C20 3.93913 19.5786 2.92172 18.8284 2.17157C18.0783 1.42143 17.0609 1 16 1C14.9391 1 13.9217 1.42143 13.1716 2.17157C12.4214 2.92172 12 3.93913 12 5V18.26C10.777 19.1116 9.85772 20.3312 9.37592 21.7415C8.89412 23.1517 8.87496 24.6789 9.32123 26.1008C9.7675 27.5226 10.6559 28.765 11.8571 29.647C13.0584 30.529 14.5097 31.0046 16 31.0046C17.4903 31.0046 18.9416 30.529 20.1429 29.647C21.3441 28.765 22.2325 27.5226 22.6788 26.1008C23.125 24.6789 23.1059 23.1517 22.6241 21.7415C22.1423 20.3312 21.223 19.1116 20 18.26ZM16 3C16.5304 3 17.0391 3.21071 17.4142 3.58579C17.7893 3.96086 18 4.46957 18 5V13H14V5C14 4.46957 14.2107 3.96086 14.5858 3.58579C14.9609 3.21071 15.4696 3 16 3Z" fill="white"/>
<path d="M62.5 18.8363V7C62.5 5.27609 61.8152 3.62279 60.5962 2.40381C59.3772 1.18482 57.7239 0.5 56 0.5C54.2761 0.5 52.6228 1.18482 51.4038 2.40381C50.1848 3.62279 49.5 5.27609 49.5 7V18.8363C48.6423 20.0317 48.1308 21.4406 48.0219 22.9079C47.913 24.3752 48.2109 25.8441 48.8828 27.1531C49.5547 28.462 50.5745 29.5604 51.8302 30.3273C53.0858 31.0942 54.5287 31.4999 56 31.4999C57.4713 31.4999 58.9142 31.0942 60.1698 30.3273C61.4255 29.5604 62.4453 28.462 63.1172 27.1531C63.7891 25.8441 64.087 24.3752 63.9781 22.9079C63.8692 21.4406 63.3577 20.0317 62.5 18.8363ZM56 28.5C55.0527 28.5 54.1248 28.2309 53.3245 27.724C52.5241 27.2171 51.8843 26.4933 51.4794 25.6368C51.0746 24.7803 50.9214 23.8265 51.0377 22.8863C51.1539 21.9461 51.5349 21.0583 52.1363 20.3263C52.3708 20.0541 52.4999 19.7068 52.5 19.3475V7C52.5 6.07174 52.8688 5.1815 53.5251 4.52513C54.1815 3.86875 55.0717 3.5 56 3.5C56.9283 3.5 57.8185 3.86875 58.4749 4.52513C59.1313 5.1815 59.5 6.07174 59.5 7V19.3463C59.4997 19.6969 59.6222 20.0366 59.8463 20.3062C60.4527 21.0368 60.8387 21.9249 60.9589 22.8667C61.0792 23.8085 60.9288 24.7651 60.5253 25.6246C60.1219 26.4841 59.482 27.211 58.6807 27.7202C57.8793 28.2294 56.9495 28.4998 56 28.5ZM59 23.5C59.0001 24.0266 58.8616 24.544 58.5983 25.0001C58.3351 25.4563 57.9564 25.8351 57.5004 26.0984C57.0443 26.3618 56.527 26.5005 56.0004 26.5006C55.4737 26.5006 54.9564 26.3621 54.5003 26.0988C54.0441 25.8355 53.6654 25.4568 53.402 25.0008C53.1387 24.5447 53 24.0274 53 23.5007C53 22.9741 53.1386 22.4567 53.4019 22.0006C53.6652 21.5446 54.0439 21.1658 54.5 20.9025V11.5C54.5 11.1022 54.658 10.7206 54.9393 10.4393C55.2206 10.158 55.6022 10 56 10C56.3978 10 56.7794 10.158 57.0607 10.4393C57.342 10.7206 57.5 11.1022 57.5 11.5V20.9025C57.956 21.1658 58.3346 21.5444 58.5979 22.0003C58.8612 22.4563 58.9999 22.9735 59 23.5Z" fill="white"/>
</g>
<defs>
<clipPath id="clip0_27_2314">
<rect width="72" height="32" rx="5" fill="white"/>
</clipPath>
</defs>
</svg>
