<svg width="72" height="32" viewBox="0 0 72 32" fill="none" xmlns="http://www.w3.org/2000/svg">
<g clip-path="url(#clip0_27_4112)">
<path d="M23 16C23 17.0609 22.5786 18.0783 21.8284 18.8284C21.0783 19.5786 20.0609 20 19 20H18V12H19C20.0609 12 21.0783 12.4214 21.8284 13.1716C22.5786 13.9217 23 14.9391 23 16ZM29 7V25C29 25.5304 28.7893 26.0391 28.4142 26.4142C28.0391 26.7893 27.5304 27 27 27H5C4.46957 27 3.96086 26.7893 3.58579 26.4142C3.21071 26.0391 3 25.5304 3 25V7C3 6.46957 3.21071 5.96086 3.58579 5.58579C3.96086 5.21071 4.46957 5 5 5H27C27.5304 5 28.0391 5.21071 28.4142 5.58579C28.7893 5.96086 29 6.46957 29 7ZM14 18C13.9999 17.2426 13.7848 16.5007 13.3796 15.8608C12.9744 15.2208 12.3959 14.709 11.7113 14.385L13.8 11.6C13.9114 11.4514 13.9793 11.2748 13.996 11.0898C14.0126 10.9048 13.9775 10.7189 13.8944 10.5528C13.8114 10.3867 13.6837 10.247 13.5257 10.1493C13.3678 10.0517 13.1857 10 13 10H8C7.73478 10 7.48043 10.1054 7.29289 10.2929C7.10536 10.4804 7 10.7348 7 11C7 11.2652 7.10536 11.5196 7.29289 11.7071C7.48043 11.8946 7.73478 12 8 12H11L9.2 14.4C9.08857 14.5486 9.02072 14.7252 9.00404 14.9102C8.98736 15.0952 9.02252 15.2811 9.10557 15.4472C9.18863 15.6133 9.31629 15.753 9.47427 15.8507C9.63225 15.9483 9.81429 16 10 16C10.3242 16 10.6435 16.0787 10.9305 16.2295C11.2174 16.3803 11.4635 16.5985 11.6473 16.8655C11.8312 17.1325 11.9474 17.4402 11.986 17.762C12.0246 18.0839 11.9844 18.4103 11.8688 18.7132C11.7532 19.016 11.5657 19.2862 11.3225 19.5006C11.0793 19.7149 10.7876 19.8669 10.4726 19.9434C10.1576 20.02 9.82871 20.0188 9.51426 19.9401C9.1998 19.8613 8.90921 19.7073 8.6675 19.4912C8.56966 19.4036 8.45552 19.3361 8.33159 19.2925C8.20766 19.249 8.07636 19.2303 7.9452 19.2375C7.81404 19.2447 7.68558 19.2776 7.56715 19.3345C7.44873 19.3913 7.34266 19.4709 7.255 19.5688C7.16734 19.6666 7.09981 19.7807 7.05627 19.9047C7.01272 20.0286 6.99402 20.1599 7.00121 20.291C7.00841 20.4222 7.04137 20.5507 7.09821 20.6691C7.15505 20.7875 7.23467 20.8936 7.3325 20.9813C7.908 21.4963 8.6203 21.8337 9.38339 21.9528C10.1465 22.0718 10.9277 21.9674 11.6327 21.6522C12.3378 21.3369 12.9365 20.8243 13.3566 20.1762C13.7766 19.5281 14.0001 18.7723 14 18ZM25 16C24.9983 14.4092 24.3657 12.884 23.2408 11.7592C22.116 10.6343 20.5908 10.0017 19 10H17C16.7348 10 16.4804 10.1054 16.2929 10.2929C16.1054 10.4804 16 10.7348 16 11V21C16 21.2652 16.1054 21.5196 16.2929 21.7071C16.4804 21.8946 16.7348 22 17 22H19C20.5908 21.9983 22.116 21.3657 23.2408 20.2408C24.3657 19.116 24.9983 17.5908 25 16Z" fill="white"/>
<path d="M51 18.5C51 17.9696 50.7893 17.4609 50.4142 17.0858C50.0391 16.7107 49.5304 16.5 49 16.5C48.7256 16.5 48.4566 16.4247 48.222 16.2823C47.9875 16.14 47.7965 15.9361 47.6698 15.6927C47.5431 15.4494 47.4855 15.1759 47.5034 14.9022C47.5213 14.6284 47.614 14.3648 47.7712 14.14L49.625 11.5H46.5C46.1022 11.5 45.7206 11.342 45.4393 11.0607C45.158 10.7794 45 10.3978 45 10C45 9.60218 45.158 9.22064 45.4393 8.93934C45.7206 8.65804 46.1022 8.5 46.5 8.5H52.5C52.7744 8.50004 53.0434 8.57533 53.278 8.71767C53.5125 8.86 53.7035 9.06394 53.8302 9.30728C53.9569 9.55063 54.0145 9.82406 53.9966 10.0978C53.9787 10.3716 53.886 10.6352 53.7288 10.86L51.4362 14.135C52.0626 14.4842 52.6066 14.964 53.0311 15.542C53.4557 16.1199 53.751 16.7824 53.897 17.4845C54.043 18.1867 54.0362 18.912 53.8771 19.6112C53.7181 20.3105 53.4104 20.9674 52.9751 21.5373C52.5398 22.1072 51.987 22.5768 51.3542 22.9142C50.7214 23.2516 50.0235 23.449 49.3077 23.4929C48.5919 23.5368 47.875 23.4262 47.2057 23.1686C46.5365 22.911 45.9304 22.5124 45.4288 22C45.2909 21.8593 45.182 21.6929 45.1085 21.5101C45.0349 21.3274 44.9981 21.132 45 20.935C45.002 20.738 45.0428 20.5433 45.12 20.3621C45.1972 20.1809 45.3093 20.0166 45.45 19.8787C45.5907 19.7409 45.7571 19.632 45.9399 19.5585C46.1226 19.4849 46.318 19.4481 46.515 19.4501C46.712 19.452 46.9067 19.4928 47.0879 19.57C47.2691 19.6472 47.4334 19.7593 47.5712 19.9C47.8493 20.1839 48.2056 20.3785 48.5947 20.459C48.9839 20.5395 49.3882 20.5023 49.756 20.3521C50.1239 20.2019 50.4387 19.9455 50.6603 19.6156C50.8818 19.2857 51.0001 18.8974 51 18.5ZM60.5 8.5C62.4891 8.5 64.3968 9.29018 65.8033 10.6967C67.2098 12.1032 68 14.0109 68 16C68 17.9891 67.2098 19.8968 65.8033 21.3033C64.3968 22.7098 62.4891 23.5 60.5 23.5H57.5C57.1022 23.5 56.7206 23.342 56.4393 23.0607C56.158 22.7794 56 22.3978 56 22V10C56 9.60218 56.158 9.22064 56.4393 8.93934C56.7206 8.65804 57.1022 8.5 57.5 8.5H60.5ZM60.5 11.5H59V20.5H60.5C61.6935 20.5 62.8381 20.0259 63.682 19.182C64.5259 18.3381 65 17.1935 65 16C65 14.8065 64.5259 13.6619 63.682 12.818C62.8381 11.9741 61.6935 11.5 60.5 11.5ZM44 7H68C68.3978 7 68.7794 6.84196 69.0607 6.56066C69.342 6.27936 69.5 5.89782 69.5 5.5C69.5 5.10218 69.342 4.72064 69.0607 4.43934C68.7794 4.15804 68.3978 4 68 4H44C43.6022 4 43.2206 4.15804 42.9393 4.43934C42.658 4.72064 42.5 5.10218 42.5 5.5C42.5 5.89782 42.658 6.27936 42.9393 6.56066C43.2206 6.84196 43.6022 7 44 7ZM68 25H44C43.6022 25 43.2206 25.158 42.9393 25.4393C42.658 25.7206 42.5 26.1022 42.5 26.5C42.5 26.8978 42.658 27.2794 42.9393 27.5607C43.2206 27.842 43.6022 28 44 28H68C68.3978 28 68.7794 27.842 69.0607 27.5607C69.342 27.2794 69.5 26.8978 69.5 26.5C69.5 26.1022 69.342 25.7206 69.0607 25.4393C68.7794 25.158 68.3978 25 68 25Z" fill="white"/>
</g>
<defs>
<clipPath id="clip0_27_4112">
<rect width="72" height="32" rx="5" fill="white"/>
</clipPath>
</defs>
</svg>
