<svg width="72" height="32" viewBox="0 0 72 32" fill="none" xmlns="http://www.w3.org/2000/svg">
<g clip-path="url(#clip0_27_349)">
<path d="M17.3275 16C17.8796 16.0001 18.4297 16.0685 18.965 16.2038C18.8938 17.23 18.5475 18.0788 17.9513 18.655C17.3952 19.1956 16.6506 19.4986 15.875 19.5C14.3912 19.5 14 18.5525 14 17.9912C14 16.625 15.725 16 17.3275 16ZM28 16C28 24.14 23.5138 29 16 29C8.48625 29 4 24.14 4 16C4 7.86 8.48625 3 16 3C23.5138 3 28 7.86 28 16ZM9 16C9 10.6163 11.29 8 16 8C19.2925 8 21.375 9.26 22.3512 11.8538C22.4451 12.1024 22.6338 12.3036 22.876 12.4131C23.1181 12.5225 23.3939 12.5313 23.6425 12.4375C23.8911 12.3437 24.0923 12.1549 24.2018 11.9128C24.3113 11.6706 24.3201 11.3949 24.2262 11.1462C22.6125 6.8925 18.8625 6 16 6C12.7375 6 10.31 7.0875 8.785 9.2325C7.6 10.8988 7 13.175 7 16C7 18.825 7.6 21.1012 8.785 22.7675C10.31 24.9125 12.7375 26 16 26C19.0562 26 20.9775 24.9 22.0513 23.9775C23.3962 22.8213 24.2 21.2412 24.2 19.75C24.2 17.9625 23.3762 16.4012 21.88 15.3538C21.5724 15.1397 21.2475 14.9515 20.9088 14.7913C20.6475 12.96 19.6587 11.5725 18.1162 10.9075C16.3037 10.125 14 10.4913 12.6512 11.7738C12.4586 11.9561 12.3463 12.2075 12.3391 12.4726C12.3318 12.7377 12.4302 12.9949 12.6125 13.1875C12.7948 13.3801 13.0462 13.4924 13.3113 13.4997C13.5765 13.5069 13.8336 13.4086 14.0262 13.2262C14.705 12.5837 16.125 12.2262 17.3263 12.745C17.9382 13.0036 18.4224 13.4946 18.6725 14.11C18.2276 14.0395 17.7779 14.0039 17.3275 14.0037C14.1912 14 12 15.6437 12 17.9912C12 20.025 13.625 21.5 15.875 21.5C17.1704 21.4967 18.414 20.9908 19.3438 20.0888C19.9312 19.515 20.6075 18.5638 20.865 17.0888C21.2869 17.3906 21.629 17.7906 21.8616 18.2543C22.0942 18.718 22.2103 19.2313 22.2 19.75C22.2 21.4638 20.23 24 16 24C11.29 24 9 21.3838 9 16Z" fill="white"/>
<path d="M63.605 15.0575C63.2116 14.7623 62.7934 14.5018 62.355 14.2788C61.89 11.5688 60.3038 9.6025 57.915 8.87875C55.2425 8.06875 52.1613 9.0525 50.75 11.1675C50.5292 11.499 50.4492 11.9047 50.5275 12.2952C50.6057 12.6858 50.836 13.0292 51.1675 13.25C51.499 13.4708 51.9047 13.5508 52.2952 13.4725C52.6858 13.3943 53.0292 13.164 53.25 12.8325C53.9338 11.8075 55.6388 11.3225 57.0513 11.75C57.4479 11.8675 57.8169 12.0635 58.1364 12.3263C58.456 12.5891 58.7194 12.9134 58.9112 13.28C58.5433 13.2424 58.1736 13.2236 57.8037 13.2238C53.57 13.2238 50.5 15.6525 50.5 19C50.5 21.8625 52.6925 23.94 55.7137 23.94C56.5838 23.9351 57.4441 23.7555 58.2435 23.412C59.0429 23.0684 59.7651 22.5679 60.3675 21.94C61.1175 21.1613 61.9775 19.8825 62.3325 17.9312C63.1075 18.7337 63.5 19.765 63.5 21.005C63.5 23.2225 61.1162 26.505 56 26.505C50.28 26.505 47.5 23.07 47.5 16.005C47.5 8.94 50.28 5.505 56 5.505C59.885 5.505 62.375 7.0575 63.6 10.255C63.7429 10.6263 64.0274 10.9256 64.391 11.0872C64.7546 11.2487 65.1674 11.2591 65.5387 11.1163C65.9101 10.9734 66.2094 10.6888 66.3709 10.3252C66.5324 9.96166 66.5429 9.5488 66.4 9.1775C64.7212 4.805 61.125 2.5 56 2.5C48.5837 2.5 44.5 7.29375 44.5 16C44.5 24.7062 48.5837 29.5 56 29.5C59.92 29.5 62.385 27.9938 63.7638 26.7313C65.4762 25.16 66.5 23.0175 66.5 21C66.5 18.545 65.5 16.49 63.605 15.0575ZM58.205 19.8563C57.8834 20.1944 57.4972 20.4645 57.0692 20.6507C56.6413 20.8368 56.1804 20.9352 55.7137 20.94C54.6925 20.94 53.5 20.4325 53.5 19C53.5 17.0925 55.73 16.2237 57.8013 16.2237C58.3695 16.2231 58.9361 16.2869 59.49 16.4137C59.42 17.8663 58.98 19.0513 58.205 19.8563Z" fill="white"/>
</g>
<defs>
<clipPath id="clip0_27_349">
<rect width="72" height="32" rx="5" fill="white"/>
</clipPath>
</defs>
</svg>
