<svg width="72" height="32" viewBox="0 0 72 32" fill="none" xmlns="http://www.w3.org/2000/svg">
<g clip-path="url(#clip0_27_755)">
<path d="M29.25 10.015C28.9684 9.69591 28.6222 9.44037 28.2342 9.26537C27.8463 9.09037 27.4256 8.99991 27 9H20V7C20 5.67392 19.4732 4.40215 18.5355 3.46447C17.5979 2.52678 16.3261 2 15 2C14.8142 1.99987 14.6321 2.05149 14.474 2.14908C14.3159 2.24667 14.1881 2.38636 14.105 2.5525L9.3825 12H4C3.46957 12 2.96086 12.2107 2.58579 12.5858C2.21071 12.9609 2 13.4696 2 14V25C2 25.5304 2.21071 26.0391 2.58579 26.4142C2.96086 26.7893 3.46957 27 4 27H25.5C26.2309 27.0003 26.9367 26.7337 27.485 26.2503C28.0332 25.767 28.3861 25.1001 28.4775 24.375L29.9775 12.375C30.0307 11.9525 29.9933 11.5236 29.8679 11.1167C29.7424 10.7098 29.5318 10.3342 29.25 10.015ZM4 14H9V25H4V14Z" fill="white"/>
<path d="M69.625 9.68375C69.2964 9.31155 68.8925 9.01351 68.4399 8.80941C67.9873 8.60532 67.4965 8.49985 67 8.5H60.5V7C60.4983 5.54182 59.9184 4.14383 58.8873 3.11274C57.8562 2.08165 56.4582 1.50165 55 1.5C54.7215 1.50003 54.4486 1.57757 54.2117 1.72394C53.9748 1.87031 53.7834 2.07973 53.6587 2.32875L49.0725 11.5H44C43.337 11.5 42.7011 11.7634 42.2322 12.2322C41.7634 12.7011 41.5 13.337 41.5 14V25C41.5 25.663 41.7634 26.2989 42.2322 26.7678C42.7011 27.2366 43.337 27.5 44 27.5H65.5C66.353 27.4999 67.1767 27.1882 67.8161 26.6236C68.4556 26.0589 68.8668 25.2802 68.9725 24.4338L70.4725 12.4338C70.5342 11.9415 70.4906 11.4417 70.3444 10.9676C70.1983 10.4935 69.9531 10.0559 69.625 9.68375ZM44.5 14.5H48.5V24.5H44.5V14.5ZM67.5 12.0625L66 24.0625C65.9847 24.184 65.9253 24.2957 65.8332 24.3763C65.741 24.4569 65.6225 24.501 65.5 24.5H51.5V13.3538L55.8525 4.65C56.3352 4.8251 56.7523 5.14459 57.0471 5.56504C57.3418 5.98549 57.5 6.48652 57.5 7V10C57.5 10.3978 57.658 10.7794 57.9393 11.0607C58.2206 11.342 58.6022 11.5 59 11.5H67C67.0713 11.4994 67.1418 11.5141 67.207 11.5431C67.2721 11.572 67.3303 11.6145 67.3776 11.6678C67.425 11.7211 67.4604 11.7838 67.4815 11.8519C67.5026 11.92 67.5089 11.9918 67.5 12.0625Z" fill="white"/>
</g>
<defs>
<clipPath id="clip0_27_755">
<rect width="72" height="32" rx="5" fill="white"/>
</clipPath>
</defs>
</svg>
