<svg width="72" height="32" viewBox="0 0 72 32" fill="none" xmlns="http://www.w3.org/2000/svg">
<g clip-path="url(#clip0_27_750)">
<path d="M29.9775 19.625L28.4775 7.625C28.3861 6.89985 28.0332 6.233 27.485 5.74966C26.9367 5.26632 26.2309 4.99975 25.5 5H4C3.46957 5 2.96086 5.21071 2.58579 5.58579C2.21071 5.96086 2 6.46957 2 7V18C2 18.5304 2.21071 19.0391 2.58579 19.4142C2.96086 19.7893 3.46957 20 4 20H9.3825L14.105 29.4475C14.1881 29.6136 14.3159 29.7533 14.474 29.8509C14.6321 29.9485 14.8142 30.0001 15 30C16.3261 30 17.5979 29.4732 18.5355 28.5355C19.4732 27.5979 20 26.3261 20 25V23H27C27.4257 23.0001 27.8466 22.9097 28.2346 22.7346C28.6227 22.5596 28.9691 22.3039 29.2507 21.9847C29.5323 21.6655 29.7428 21.2899 29.8681 20.8831C29.9934 20.4762 30.0307 20.0474 29.9775 19.625ZM9 18H4V7H9V18Z" fill="white"/>
<path d="M70.4725 19.5662L68.9725 7.56625C68.8668 6.71978 68.4556 5.94105 67.8161 5.37642C67.1767 4.81179 66.353 4.50013 65.5 4.5H44C43.337 4.5 42.7011 4.76339 42.2322 5.23223C41.7634 5.70107 41.5 6.33696 41.5 7V18C41.5 18.3283 41.5647 18.6534 41.6903 18.9567C41.8159 19.26 42.0001 19.5356 42.2322 19.7678C42.4644 19.9999 42.74 20.1841 43.0433 20.3097C43.3466 20.4353 43.6717 20.5 44 20.5H49.0725L53.6587 29.6712C53.7834 29.9203 53.9748 30.1297 54.2117 30.2761C54.4486 30.4224 54.7215 30.5 55 30.5C56.4582 30.4983 57.8562 29.9184 58.8873 28.8873C59.9184 27.8562 60.4983 26.4582 60.5 25V23.5H67C67.4962 23.4999 67.9867 23.3943 68.439 23.1903C68.8913 22.9862 69.295 22.6883 69.6234 22.3163C69.9518 21.9443 70.1973 21.5067 70.3437 21.0326C70.4901 20.5585 70.534 20.0586 70.4725 19.5662ZM48.5 17.5H44.5V7.5H48.5V17.5ZM67.375 20.3312C67.328 20.3844 67.2703 20.4269 67.2057 20.456C67.141 20.4851 67.0709 20.5001 67 20.5H59C58.6022 20.5 58.2206 20.658 57.9393 20.9393C57.658 21.2206 57.5 21.6022 57.5 22V25C57.5 25.5135 57.3418 26.0145 57.0471 26.435C56.7523 26.8554 56.3352 27.1749 55.8525 27.35L51.5 18.6462V7.5H65.5C65.6225 7.49904 65.741 7.54305 65.8332 7.6237C65.9253 7.70434 65.9847 7.816 66 7.9375L67.5 19.9375C67.5084 20.0082 67.5016 20.08 67.4801 20.1479C67.4585 20.2158 67.4227 20.2783 67.375 20.3312Z" fill="white"/>
</g>
<defs>
<clipPath id="clip0_27_750">
<rect width="72" height="32" rx="5" fill="white"/>
</clipPath>
</defs>
</svg>
