<svg width="72" height="32" viewBox="0 0 72 32" fill="none" xmlns="http://www.w3.org/2000/svg">
<g clip-path="url(#clip0_27_1562)">
<path d="M29 13C29.2652 13 29.5196 12.8946 29.7071 12.7071C29.8946 12.5196 30 12.2652 30 12V8C30 7.46957 29.7893 6.96086 29.4142 6.58579C29.0391 6.21071 28.5304 6 28 6H4C3.46957 6 2.96086 6.21071 2.58579 6.58579C2.21071 6.96086 2 7.46957 2 8V12C2 12.2652 2.10536 12.5196 2.29289 12.7071C2.48043 12.8946 2.73478 13 3 13C3.79565 13 4.55871 13.3161 5.12132 13.8787C5.68393 14.4413 6 15.2044 6 16C6 16.7956 5.68393 17.5587 5.12132 18.1213C4.55871 18.6839 3.79565 19 3 19C2.73478 19 2.48043 19.1054 2.29289 19.2929C2.10536 19.4804 2 19.7348 2 20V24C2 24.5304 2.21071 25.0391 2.58579 25.4142C2.96086 25.7893 3.46957 26 4 26H28C28.5304 26 29.0391 25.7893 29.4142 25.4142C29.7893 25.0391 30 24.5304 30 24V20C30 19.7348 29.8946 19.4804 29.7071 19.2929C29.5196 19.1054 29.2652 19 29 19C28.2044 19 27.4413 18.6839 26.8787 18.1213C26.3161 17.5587 26 16.7956 26 16C26 15.2044 26.3161 14.4413 26.8787 13.8787C27.4413 13.3161 28.2044 13 29 13ZM4 20.9C5.13029 20.6705 6.14647 20.0573 6.87638 19.1643C7.60628 18.2712 8.00501 17.1534 8.00501 16C8.00501 14.8466 7.60628 13.7288 6.87638 12.8357C6.14647 11.9427 5.13029 11.3295 4 11.1V8H11V24H4V20.9Z" fill="white"/>
<path d="M69 13.5C69.3978 13.5 69.7794 13.342 70.0607 13.0607C70.342 12.7794 70.5 12.3978 70.5 12V8C70.5 7.33696 70.2366 6.70107 69.7678 6.23223C69.2989 5.76339 68.663 5.5 68 5.5H44C43.337 5.5 42.7011 5.76339 42.2322 6.23223C41.7634 6.70107 41.5 7.33696 41.5 8V12C41.5 12.3978 41.658 12.7794 41.9393 13.0607C42.2206 13.342 42.6022 13.5 43 13.5C43.663 13.5 44.2989 13.7634 44.7678 14.2322C45.2366 14.7011 45.5 15.337 45.5 16C45.5 16.663 45.2366 17.2989 44.7678 17.7678C44.2989 18.2366 43.663 18.5 43 18.5C42.6022 18.5 42.2206 18.658 41.9393 18.9393C41.658 19.2206 41.5 19.6022 41.5 20V24C41.5 24.663 41.7634 25.2989 42.2322 25.7678C42.7011 26.2366 43.337 26.5 44 26.5H68C68.663 26.5 69.2989 26.2366 69.7678 25.7678C70.2366 25.2989 70.5 24.663 70.5 24V20C70.5 19.6022 70.342 19.2206 70.0607 18.9393C69.7794 18.658 69.3978 18.5 69 18.5C68.337 18.5 67.7011 18.2366 67.2322 17.7678C66.7634 17.2989 66.5 16.663 66.5 16C66.5 15.337 66.7634 14.7011 67.2322 14.2322C67.7011 13.7634 68.337 13.5 69 13.5ZM44.5 21.2925C45.6526 20.9666 46.6673 20.2733 47.3899 19.3181C48.1125 18.3628 48.5035 17.1978 48.5035 16C48.5035 14.8022 48.1125 13.6372 47.3899 12.6819C46.6673 11.7267 45.6526 11.0334 44.5 10.7075V8.5H51V23.5H44.5V21.2925ZM67.5 21.2925V23.5H54V8.5H67.5V10.7075C66.3474 11.0334 65.3327 11.7267 64.6101 12.6819C63.8875 13.6372 63.4965 14.8022 63.4965 16C63.4965 17.1978 63.8875 18.3628 64.6101 19.3181C65.3327 20.2733 66.3474 20.9666 67.5 21.2925Z" fill="white"/>
</g>
<defs>
<clipPath id="clip0_27_1562">
<rect width="72" height="32" rx="5" fill="white"/>
</clipPath>
</defs>
</svg>
