<svg width="72" height="32" viewBox="0 0 72 32" fill="none" xmlns="http://www.w3.org/2000/svg">
<g clip-path="url(#clip0_27_354)">
<path d="M31.7075 12.7075L27.2075 17.2075C27.1146 17.3005 27.0043 17.3742 26.8829 17.4246C26.7615 17.4749 26.6314 17.5008 26.5 17.5008C26.3686 17.5008 26.2385 17.4749 26.1171 17.4246C25.9957 17.3742 25.8854 17.3005 25.7925 17.2075L21.2925 12.7075L21.25 12.66L21.2075 12.7075L16.9137 17L21.2075 21.2925C21.3005 21.3854 21.3742 21.4957 21.4246 21.6171C21.4749 21.7385 21.5008 21.8686 21.5008 22C21.5008 22.1314 21.4749 22.2615 21.4246 22.3829C21.3742 22.5043 21.3005 22.6146 21.2075 22.7075L16.7075 27.2075C16.6146 27.3005 16.5043 27.3742 16.3829 27.4246C16.2615 27.4749 16.1314 27.5008 16 27.5008C15.8686 27.5008 15.7385 27.4749 15.6171 27.4246C15.4957 27.3742 15.3854 27.3005 15.2925 27.2075L10.7925 22.7075C10.6995 22.6146 10.6258 22.5043 10.5754 22.3829C10.5251 22.2615 10.4992 22.1314 10.4992 22C10.4992 21.8686 10.5251 21.7385 10.5754 21.6171C10.6258 21.4957 10.6995 21.3854 10.7925 21.2925L15.0862 17L10.7925 12.7075L10.75 12.66L10.7075 12.7075L6.20749 17.2075C6.11462 17.3005 6.00433 17.3742 5.88293 17.4246C5.76154 17.4749 5.63141 17.5008 5.49999 17.5008C5.36858 17.5008 5.23845 17.4749 5.11705 17.4246C4.99566 17.3742 4.88537 17.3005 4.79249 17.2075L0.292493 12.7075C0.199517 12.6146 0.125758 12.5043 0.0754335 12.3829C0.0251092 12.2615 -0.000793457 12.1314 -0.000793457 12C-0.000793457 11.8686 0.0251092 11.7385 0.0754335 11.6171C0.125758 11.4957 0.199517 11.3854 0.292493 11.2925L4.79249 6.79249C4.88537 6.69952 4.99566 6.62576 5.11705 6.57543C5.23845 6.52511 5.36858 6.49921 5.49999 6.49921C5.63141 6.49921 5.76154 6.52511 5.88293 6.57543C6.00433 6.62576 6.11462 6.69952 6.20749 6.79249L10.7075 11.2925L10.75 11.34L10.7925 11.2925L15.2925 6.79249C15.3854 6.69952 15.4957 6.62576 15.6171 6.57543C15.7385 6.52511 15.8686 6.49921 16 6.49921C16.1314 6.49921 16.2615 6.52511 16.3829 6.57543C16.5043 6.62576 16.6146 6.69952 16.7075 6.79249L21.2075 11.2925L21.25 11.34L21.2925 11.2925L25.7925 6.79249C25.8854 6.69952 25.9957 6.62576 26.1171 6.57543C26.2385 6.52511 26.3686 6.49921 26.5 6.49921C26.6314 6.49921 26.7615 6.52511 26.8829 6.57543C27.0043 6.62576 27.1146 6.69952 27.2075 6.79249L31.7075 11.2925C31.8005 11.3854 31.8742 11.4957 31.9246 11.6171C31.9749 11.7385 32.0008 11.8686 32.0008 12C32.0008 12.1314 31.9749 12.2615 31.9246 12.3829C31.8742 12.5043 31.8005 12.6146 31.7075 12.7075Z" fill="white"/>
<path d="M71.5612 10.9387L66.8112 6.18874C66.6719 6.0489 66.5063 5.93795 66.324 5.86224C66.1416 5.78653 65.9462 5.74756 65.7487 5.74756C65.5513 5.74756 65.3558 5.78653 65.1735 5.86224C64.9912 5.93795 64.8256 6.0489 64.6862 6.18874L61 9.87499L57.0612 5.93874C56.9219 5.7989 56.7563 5.68795 56.574 5.61224C56.3916 5.53653 56.1962 5.49756 55.9987 5.49756C55.8013 5.49756 55.6058 5.53653 55.4235 5.61224C55.2412 5.68795 55.0756 5.7989 54.9362 5.93874L51 9.87499L47.3112 6.18874C47.1719 6.0489 47.0063 5.93795 46.824 5.86224C46.6416 5.78653 46.4462 5.74756 46.2487 5.74756C46.0513 5.74756 45.8558 5.78653 45.6735 5.86224C45.4912 5.93795 45.3256 6.0489 45.1862 6.18874L40.4362 10.9387C40.2964 11.0781 40.1854 11.2437 40.1097 11.426C40.034 11.6083 39.9951 11.8038 39.9951 12.0012C39.9951 12.1987 40.034 12.3941 40.1097 12.5765C40.1854 12.7588 40.2964 12.9244 40.4362 13.0637L45.1862 17.8137C45.3256 17.9536 45.4912 18.0645 45.6735 18.1402C45.8558 18.216 46.0513 18.2549 46.2487 18.2549C46.4462 18.2549 46.6416 18.216 46.824 18.1402C47.0063 18.0645 47.1719 17.9536 47.3112 17.8137L51 14.125L53.875 17L49.9387 20.9387C49.7989 21.0781 49.6879 21.2437 49.6122 21.426C49.5365 21.6083 49.4976 21.8038 49.4976 22.0012C49.4976 22.1987 49.5365 22.3941 49.6122 22.5765C49.6879 22.7588 49.7989 22.9244 49.9387 23.0637L54.9387 28.0637C55.0781 28.2036 55.2437 28.3145 55.426 28.3902C55.6083 28.466 55.8038 28.5049 56.0012 28.5049C56.1987 28.5049 56.3941 28.466 56.5765 28.3902C56.7588 28.3145 56.9244 28.2036 57.0637 28.0637L62.0637 23.0637C62.2036 22.9244 62.3145 22.7588 62.3902 22.5765C62.466 22.3941 62.5049 22.1987 62.5049 22.0012C62.5049 21.8038 62.466 21.6083 62.3902 21.426C62.3145 21.2437 62.2036 21.0781 62.0637 20.9387L58.125 17L61 14.125L64.6887 17.815C64.8281 17.9548 64.9937 18.0658 65.176 18.1415C65.3583 18.2172 65.5538 18.2562 65.7512 18.2562C65.9487 18.2562 66.1441 18.2172 66.3265 18.1415C66.5088 18.0658 66.6744 17.9548 66.8137 17.815L71.5637 13.065C71.7036 12.9254 71.8145 12.7597 71.8901 12.5771C71.9657 12.3946 72.0045 12.1989 72.0043 12.0013C72.0041 11.8038 71.9648 11.6082 71.8888 11.4258C71.8127 11.2435 71.7014 11.078 71.5612 10.9387ZM46.25 14.625L43.625 12L46.25 9.37499L48.875 12L46.25 14.625ZM56 24.875L53.125 22L56 19.125L58.875 22L56 24.875ZM56 14.875L53.125 12L56 9.12499L58.875 12L56 14.875ZM65.75 14.625L63.125 12L65.75 9.37499L68.375 12L65.75 14.625Z" fill="white"/>
</g>
<defs>
<clipPath id="clip0_27_354">
<rect width="72" height="32" rx="5" fill="white"/>
</clipPath>
</defs>
</svg>
