<svg width="72" height="32" viewBox="0 0 72 32" fill="none" xmlns="http://www.w3.org/2000/svg">
<g clip-path="url(#clip0_27_359)">
<path d="M29 10V15C29 15.2652 28.8946 15.5196 28.7071 15.7071C28.5196 15.8946 28.2652 16 28 16C25.911 16.0049 23.8521 15.5026 22 14.5363V19.5C22 22.0196 20.9991 24.4359 19.2175 26.2175C17.4359 27.9991 15.0196 29 12.5 29C9.98044 29 7.56408 27.9991 5.78249 26.2175C4.00089 24.4359 3 22.0196 3 19.5C3 14.8875 6.36375 10.81 10.825 10.015C10.9689 9.98942 11.1167 9.9957 11.2579 10.0334C11.3992 10.0711 11.5304 10.1393 11.6424 10.2332C11.7544 10.3271 11.8445 10.4445 11.9063 10.5769C11.9681 10.7094 12.0001 10.8538 12 11V16.3363C12.0001 16.5255 11.9464 16.7109 11.8453 16.8709C11.7442 17.0309 11.5997 17.1589 11.4288 17.24C11.0245 17.4317 10.6792 17.7283 10.4287 18.099C10.1782 18.4696 10.0317 18.9007 10.0046 19.3472C9.97747 19.7938 10.0707 20.2394 10.2744 20.6376C10.4782 21.0359 10.7851 21.3722 11.1631 21.6114C11.5411 21.8506 11.9764 21.984 12.4236 21.9977C12.8707 22.0114 13.3133 21.9048 13.7053 21.6891C14.0972 21.4735 14.4241 21.1566 14.6518 20.7715C14.8796 20.3865 14.9998 19.9474 15 19.5V3C15 2.73478 15.1054 2.48043 15.2929 2.29289C15.4804 2.10536 15.7348 2 16 2H21C21.2652 2 21.5196 2.10536 21.7071 2.29289C21.8946 2.48043 22 2.73478 22 3C22.0017 4.59079 22.6343 6.11595 23.7592 7.24081C24.884 8.36567 26.4092 8.99835 28 9C28.2652 9 28.5196 9.10536 28.7071 9.29289C28.8946 9.48043 29 9.73478 29 10Z" fill="white"/>
<path d="M68 8.5C66.5418 8.49835 65.1438 7.91835 64.1127 6.88726C63.0816 5.85617 62.5017 4.45818 62.5 3C62.5 2.60218 62.342 2.22064 62.0607 1.93934C61.7794 1.65804 61.3978 1.5 61 1.5H56C55.6022 1.5 55.2206 1.65804 54.9393 1.93934C54.658 2.22064 54.5 2.60218 54.5 3V19.5C54.4998 19.8579 54.4035 20.2092 54.2212 20.5172C54.039 20.8252 53.7774 21.0787 53.4638 21.2512C53.1502 21.4236 52.796 21.5088 52.4383 21.4977C52.0806 21.4867 51.7324 21.3799 51.43 21.1884C51.1276 20.9969 50.8822 20.7278 50.7192 20.4091C50.5563 20.0905 50.4819 19.7339 50.5037 19.3767C50.5256 19.0194 50.6429 18.6746 50.8434 18.3781C51.0439 18.0817 51.3203 17.8445 51.6438 17.6912C51.9 17.5695 52.1165 17.3775 52.268 17.1377C52.4196 16.8979 52.5 16.62 52.5 16.3363V11C52.4999 10.7808 52.4518 10.5644 52.3591 10.3658C52.2663 10.1672 52.1312 9.9914 51.9632 9.85068C51.7952 9.70996 51.5983 9.60776 51.3866 9.55128C51.1748 9.49479 50.9533 9.4854 50.7375 9.52375C48.4272 9.94637 46.3418 11.1751 44.8525 12.9913C43.336 14.8216 42.5042 17.123 42.5 19.5C42.5 22.1522 43.5536 24.6957 45.4289 26.5711C47.3043 28.4464 49.8478 29.5 52.5 29.5C55.1522 29.5 57.6957 28.4464 59.5711 26.5711C61.4464 24.6957 62.5 22.1522 62.5 19.5V15.3337C64.2306 16.1061 66.1049 16.5035 68 16.5C68.3978 16.5 68.7794 16.342 69.0607 16.0607C69.342 15.7794 69.5 15.3978 69.5 15V10C69.5 9.60218 69.342 9.22064 69.0607 8.93934C68.7794 8.65804 68.3978 8.5 68 8.5ZM66.5 13.3938C64.8298 13.1575 63.2424 12.5178 61.875 11.53C61.6508 11.369 61.3864 11.2729 61.1111 11.2525C60.8358 11.232 60.5602 11.2879 60.3146 11.4141C60.069 11.5402 59.863 11.7317 59.7193 11.9674C59.5756 12.2031 59.4997 12.4739 59.5 12.75V19.5C59.5 21.3565 58.7625 23.137 57.4497 24.4497C56.137 25.7625 54.3565 26.5 52.5 26.5C50.6435 26.5 48.863 25.7625 47.5503 24.4497C46.2375 23.137 45.5 21.3565 45.5 19.5C45.5046 18.1607 45.881 16.849 46.5873 15.711C47.2935 14.5731 48.3019 13.6536 49.5 13.055V15.5C48.8182 16.0114 48.2784 16.6885 47.9319 17.4672C47.5854 18.2459 47.4437 19.1002 47.5202 19.949C47.5967 20.7979 47.889 21.6131 48.3692 22.3172C48.8494 23.0213 49.5016 23.591 50.2639 23.9721C51.0262 24.3533 51.8733 24.5333 52.7247 24.4949C53.5762 24.4566 54.4037 24.2013 55.1287 23.7533C55.8537 23.3052 56.4521 22.6792 56.8671 21.9348C57.2821 21.1904 57.5 20.3523 57.5 19.5V4.5H59.6325C59.9423 6.20758 60.7657 7.77998 61.9929 9.00713C63.22 10.2343 64.7924 11.0577 66.5 11.3675V13.3938Z" fill="white"/>
</g>
<defs>
<clipPath id="clip0_27_359">
<rect width="72" height="32" rx="5" fill="white"/>
</clipPath>
</defs>
</svg>
