<svg width="72" height="32" viewBox="0 0 72 32" fill="none" xmlns="http://www.w3.org/2000/svg">
<g clip-path="url(#clip0_27_4313)">
<path d="M16 5C13.6266 5 11.3066 5.70379 9.33316 7.02236C7.35977 8.34094 5.8217 10.2151 4.91345 12.4078C4.0052 14.6005 3.76756 17.0133 4.23058 19.3411C4.6936 21.6689 5.83649 23.8071 7.51472 25.4853C9.19295 27.1635 11.3312 28.3064 13.6589 28.7694C15.9867 29.2324 18.3995 28.9948 20.5922 28.0866C22.7849 27.1783 24.6591 25.6402 25.9776 23.6668C27.2962 21.6935 28 19.3734 28 17C27.9964 13.8185 26.7309 10.7684 24.4813 8.51874C22.2316 6.26909 19.1815 5.00364 16 5ZM21.7075 12.7075L16.7075 17.7075C16.6146 17.8004 16.5043 17.8741 16.3829 17.9244C16.2615 17.9747 16.1314 18.0006 16 18.0006C15.8686 18.0006 15.7385 17.9747 15.6171 17.9244C15.4957 17.8741 15.3854 17.8004 15.2925 17.7075C15.1996 17.6146 15.1259 17.5043 15.0756 17.3829C15.0253 17.2615 14.9994 17.1314 14.9994 17C14.9994 16.8686 15.0253 16.7385 15.0756 16.6171C15.1259 16.4957 15.1996 16.3854 15.2925 16.2925L20.2925 11.2925C20.3854 11.1996 20.4957 11.1259 20.6171 11.0756C20.7385 11.0253 20.8686 10.9994 21 10.9994C21.1314 10.9994 21.2615 11.0253 21.3829 11.0756C21.5043 11.1259 21.6146 11.1996 21.7075 11.2925C21.8004 11.3854 21.8741 11.4957 21.9244 11.6171C21.9747 11.7385 22.0006 11.8686 22.0006 12C22.0006 12.1314 21.9747 12.2615 21.9244 12.3829C21.8741 12.5043 21.8004 12.6146 21.7075 12.7075ZM12 2C12 1.73478 12.1054 1.48043 12.2929 1.29289C12.4804 1.10536 12.7348 1 13 1H19C19.2652 1 19.5196 1.10536 19.7071 1.29289C19.8946 1.48043 20 1.73478 20 2C20 2.26522 19.8946 2.51957 19.7071 2.70711C19.5196 2.89464 19.2652 3 19 3H13C12.7348 3 12.4804 2.89464 12.2929 2.70711C12.1054 2.51957 12 2.26522 12 2Z" fill="white"/>
<path d="M56 5.5C53.6266 5.5 51.3066 6.20379 49.3332 7.52236C47.3598 8.84094 45.8217 10.7151 44.9135 12.9078C44.0052 15.1005 43.7676 17.5133 44.2306 19.8411C44.6936 22.1689 45.8365 24.3071 47.5147 25.9853C49.193 27.6635 51.3312 28.8064 53.6589 29.2694C55.9867 29.7324 58.3995 29.4948 60.5922 28.5866C62.7849 27.6783 64.6591 26.1402 65.9776 24.1668C67.2962 22.1935 68 19.8734 68 17.5C67.9964 14.3185 66.7309 11.2684 64.4813 9.01874C62.2316 6.76909 59.1815 5.50364 56 5.5ZM56 26.5C54.22 26.5 52.4799 25.9722 50.9999 24.9832C49.5198 23.9943 48.3663 22.5887 47.6851 20.9442C47.0039 19.2996 46.8257 17.49 47.1729 15.7442C47.5202 13.9984 48.3774 12.3947 49.636 11.136C50.8947 9.87737 52.4984 9.0202 54.2442 8.67293C55.99 8.32567 57.7996 8.5039 59.4442 9.18508C61.0887 9.86627 62.4943 11.0198 63.4832 12.4999C64.4722 13.9799 65 15.72 65 17.5C64.9974 19.8861 64.0483 22.1738 62.361 23.861C60.6738 25.5483 58.3861 26.4974 56 26.5ZM60.5613 12.4388C60.7011 12.5781 60.812 12.7437 60.8878 12.926C60.9635 13.1083 61.0024 13.3038 61.0024 13.5013C61.0024 13.6987 60.9635 13.8942 60.8878 14.0765C60.812 14.2588 60.7011 14.4244 60.5613 14.5638L57.0613 18.0637C56.7795 18.3455 56.3973 18.5039 55.9988 18.5039C55.6002 18.5039 55.218 18.3455 54.9363 18.0637C54.6545 17.782 54.4962 17.3998 54.4962 17.0012C54.4962 16.6027 54.6545 16.2205 54.9363 15.9388L58.4363 12.4388C58.5756 12.2989 58.7412 12.188 58.9235 12.1122C59.1059 12.0365 59.3013 11.9976 59.4988 11.9976C59.6962 11.9976 59.8917 12.0365 60.074 12.1122C60.2563 12.188 60.4219 12.2989 60.5613 12.4388ZM51.5 2C51.5 1.60218 51.658 1.22064 51.9393 0.93934C52.2206 0.658035 52.6022 0.5 53 0.5H59C59.3978 0.5 59.7794 0.658035 60.0607 0.93934C60.342 1.22064 60.5 1.60218 60.5 2C60.5 2.39782 60.342 2.77936 60.0607 3.06066C59.7794 3.34196 59.3978 3.5 59 3.5H53C52.6022 3.5 52.2206 3.34196 51.9393 3.06066C51.658 2.77936 51.5 2.39782 51.5 2Z" fill="white"/>
</g>
<defs>
<clipPath id="clip0_27_4313">
<rect width="72" height="32" rx="5" fill="white"/>
</clipPath>
</defs>
</svg>
