<svg width="72" height="32" viewBox="0 0 72 32" fill="none" xmlns="http://www.w3.org/2000/svg">
<g clip-path="url(#clip0_27_6860)">
<path d="M29.8425 26.4612L17.1875 6.6875L19.8425 2.53875C19.9133 2.42811 19.9615 2.30462 19.9846 2.17533C20.0076 2.04604 20.0049 1.91348 19.9767 1.78521C19.9485 1.65695 19.8953 1.5355 19.8202 1.4278C19.745 1.3201 19.6494 1.22825 19.5388 1.1575C19.4281 1.08675 19.3047 1.03848 19.1754 1.01546C19.0461 0.992435 18.9135 0.995101 18.7852 1.02331C18.657 1.05151 18.5355 1.10471 18.4278 1.17985C18.3201 1.25499 18.2283 1.35061 18.1575 1.46125L16 4.8325L13.8425 1.4575C13.6996 1.23405 13.4739 1.07652 13.2148 1.01956C12.9558 0.962593 12.6847 1.01086 12.4613 1.15375C12.2378 1.29663 12.0803 1.52243 12.0233 1.78146C11.9664 2.0405 12.0146 2.31155 12.1575 2.535L14.8125 6.6875L2.15753 26.4612C2.06089 26.6124 2.00668 26.7867 2.00058 26.966C1.99448 27.1453 2.03672 27.3229 2.12287 27.4802C2.20902 27.6376 2.33591 27.7689 2.49024 27.8603C2.64456 27.9518 2.82065 28 3.00003 28H29C29.1794 28 29.3555 27.9518 29.5098 27.8603C29.6642 27.7689 29.7911 27.6376 29.8772 27.4802C29.9634 27.3229 30.0056 27.1453 29.9995 26.966C29.9934 26.7867 29.9392 26.6124 29.8425 26.4612ZM23.5925 26L16.8425 15.4612C16.7521 15.3198 16.6275 15.2034 16.4803 15.1228C16.3331 15.0422 16.1679 14.9999 16 14.9999C15.8322 14.9999 15.667 15.0422 15.5198 15.1228C15.3725 15.2034 15.248 15.3198 15.1575 15.4612L8.41253 26H4.82753L16 8.5425L27.1725 26H23.5925Z" fill="white"/>
<path d="M70.2632 26.1913L57.7807 6.69127L60.2632 2.81627C60.4787 2.4811 60.5522 2.07406 60.4676 1.68469C60.3829 1.29532 60.1471 0.955508 59.8119 0.74002C59.4768 0.524531 59.0697 0.451013 58.6803 0.535639C58.291 0.620265 57.9512 0.856102 57.7357 1.19127L55.9994 3.90502L54.2632 1.19127C54.0487 0.856102 53.7098 0.61987 53.3212 0.534541C52.9325 0.449212 52.5258 0.521776 52.1907 0.736269C51.8555 0.950763 51.6193 1.28962 51.534 1.67829C51.4486 2.06696 51.5212 2.4736 51.7357 2.80877L54.2182 6.68377L41.7357 26.1838C41.5886 26.4106 41.5055 26.6729 41.4952 26.9431C41.485 27.2132 41.5479 27.4811 41.6774 27.7185C41.8069 27.9558 41.9981 28.1537 42.2308 28.2913C42.4635 28.4288 42.7291 28.501 42.9994 28.5H68.9994C69.2686 28.5001 69.5328 28.4277 69.7644 28.2905C69.996 28.1533 70.1864 27.9564 70.3157 27.7202C70.4449 27.4841 70.5082 27.2176 70.499 26.9486C70.4898 26.6795 70.4083 26.418 70.2632 26.1913ZM52.0207 25.5L55.9994 19.2825L59.9782 25.5H52.0207ZM63.5407 25.5L57.2632 15.6913C57.1275 15.4791 56.9407 15.3046 56.7198 15.1836C56.499 15.0627 56.2512 14.9993 55.9994 14.9993C55.7476 14.9993 55.4999 15.0627 55.279 15.1836C55.0582 15.3046 54.8713 15.4791 54.7357 15.6913L48.4582 25.5H45.7407L55.9994 9.47002L66.2582 25.5H63.5407Z" fill="white"/>
</g>
<defs>
<clipPath id="clip0_27_6860">
<rect width="72" height="32" rx="5" fill="white"/>
</clipPath>
</defs>
</svg>
