<svg width="72" height="32" viewBox="0 0 72 32" fill="none" xmlns="http://www.w3.org/2000/svg">
<g clip-path="url(#clip0_27_1572)">
<path d="M23 16C23 18.7612 22.105 21 21 21C19.895 21 19 18.7612 19 16C19 13.2388 19.895 11 21 11C22.105 11 23 13.2388 23 16ZM30 28C30 28.2652 29.8946 28.5196 29.7071 28.7071C29.5196 28.8946 29.2652 29 29 29H11.5C7.295 29 4 23.29 4 16C4 8.71 7.295 3 11.5 3H20.5C24.705 3 28 8.71 28 16C28 20.6838 26.64 24.7162 24.5513 27H29C29.2652 27 29.5196 27.1054 29.7071 27.2929C29.8946 27.4804 30 27.7348 30 28ZM7.23375 13.9762C7.44184 13.9766 7.64476 13.9114 7.81375 13.79L10 12.2288L11.66 13.415C11.8759 13.5553 12.1376 13.6069 12.3906 13.5591C12.6436 13.5113 12.8684 13.3678 13.0183 13.1584C13.1681 12.9489 13.2313 12.6898 13.1949 12.4349C13.1584 12.18 13.025 11.949 12.8225 11.79L10.5813 10.1862C10.4116 10.0651 10.2084 9.99998 10 9.99998C9.79157 9.99998 9.58835 10.0651 9.41875 10.1862L6.65125 12.1625C6.47875 12.2857 6.34987 12.4605 6.2832 12.6618C6.21654 12.863 6.21554 13.0802 6.28036 13.282C6.34518 13.4839 6.47246 13.6599 6.64382 13.7846C6.81519 13.9094 7.02177 13.9765 7.23375 13.9762ZM13.0675 19.9625L10.5813 18.1863C10.4116 18.0651 10.2084 18 10 18C9.79157 18 9.58835 18.0651 9.41875 18.1863L7 19.9112C6.88674 19.9849 6.78957 20.0807 6.71435 20.1929C6.63912 20.3051 6.58741 20.4313 6.56234 20.5641C6.53726 20.6968 6.53933 20.8332 6.56843 20.9651C6.59752 21.097 6.65304 21.2217 6.73164 21.3315C6.81023 21.4414 6.91027 21.5342 7.02571 21.6043C7.14115 21.6745 7.26961 21.7205 7.40333 21.7396C7.53705 21.7588 7.67326 21.7506 7.80373 21.7157C7.93421 21.6807 8.05626 21.6197 8.1625 21.5362L10 20.2288L11.905 21.5888C12.0112 21.6722 12.1333 21.7332 12.2638 21.7682C12.3942 21.8031 12.5305 21.8113 12.6642 21.7921C12.7979 21.773 12.9263 21.727 13.0418 21.6568C13.1572 21.5867 13.2573 21.4939 13.3359 21.384C13.4145 21.2742 13.47 21.1495 13.4991 21.0176C13.5282 20.8857 13.5302 20.7493 13.5052 20.6166C13.4801 20.4838 13.4284 20.3576 13.3532 20.2454C13.2779 20.1332 13.1808 20.0374 13.0675 19.9638V19.9625ZM24.2175 24.0088C25.3663 21.8838 26 19.0413 26 16C26 12.9587 25.3663 10.1137 24.2175 7.99125C23.1725 6.0625 21.8525 5 20.5 5C19.1475 5 17.8275 6.0625 16.7825 7.99125C15.6337 10.1137 15 12.9587 15 16C15 19.0413 15.6337 21.8863 16.7825 24.0088C17.8275 25.9375 19.1475 27 20.5 27C21.8525 27 23.1725 25.9375 24.2175 24.0088Z" fill="white"/>
<path d="M59 16C59 13.2388 59.895 11 61 11C62.105 11 63 13.2388 63 16C63 18.7612 62.105 21 61 21C59.895 21 59 18.7612 59 16ZM70.5 28C70.5 28.3978 70.342 28.7794 70.0607 29.0607C69.7794 29.342 69.3978 29.5 69 29.5H51.5C49.1875 29.5 47.0875 27.9725 45.585 25.2C44.24 22.7175 43.5 19.45 43.5 16C43.5 12.55 44.24 9.2825 45.585 6.8C47.0875 4.0275 49.1875 2.5 51.5 2.5H60.5C62.8125 2.5 64.9125 4.0275 66.415 6.8C67.76 9.2825 68.5 12.55 68.5 16C68.5 19.45 67.76 22.7175 66.415 25.2C66.172 25.6504 65.9002 26.0846 65.6012 26.5H69C69.3978 26.5 69.7794 26.658 70.0607 26.9393C70.342 27.2206 70.5 27.6022 70.5 28ZM60.5 5.5C58.135 5.5 55.5 9.8125 55.5 16C55.5 22.1875 58.135 26.5 60.5 26.5C62.865 26.5 65.5 22.1875 65.5 16C65.5 9.8125 62.865 5.5 60.5 5.5ZM46.7913 19.4487L49.125 17.78C49.3793 17.5986 49.6839 17.501 49.9963 17.501C50.3086 17.501 50.6132 17.5986 50.8675 17.78L52.7 19.0875C52.5651 18.0639 52.4983 17.0325 52.5 16C52.5 15.5487 52.5138 15.1 52.5387 14.6562L50 12.8438L46.5113 15.335C46.5 15.555 46.5 15.7762 46.5 16C46.4973 17.1558 46.5948 18.3097 46.7913 19.4487ZM47.0675 11.25L49.125 9.78C49.3793 9.59856 49.6839 9.50103 49.9963 9.50103C50.3086 9.50103 50.6132 9.59856 50.8675 9.78L52.9812 11.2887C53.2992 9.72425 53.8379 8.21289 54.5813 6.8C54.8254 6.34949 55.0985 5.91525 55.3988 5.5H51.5C49.805 5.5 47.9713 7.71625 47.0675 11.25ZM51.5 26.5H55.3988C55.0998 26.0846 54.828 25.6504 54.585 25.2C54.3021 24.678 54.0517 24.139 53.835 23.5863L50 20.8438L47.6425 22.5275C48.625 25.01 50.11 26.5 51.5 26.5Z" fill="white"/>
</g>
<defs>
<clipPath id="clip0_27_1572">
<rect width="72" height="32" rx="5" fill="white"/>
</clipPath>
</defs>
</svg>
