<svg width="72" height="32" viewBox="0 0 72 32" fill="none" xmlns="http://www.w3.org/2000/svg">
<g clip-path="url(#clip0_27_3076)">
<path d="M22 7H10C7.61305 7 5.32387 7.94821 3.63604 9.63604C1.94821 11.3239 1 13.6131 1 16C1 18.3869 1.94821 20.6761 3.63604 22.364C5.32387 24.0518 7.61305 25 10 25H22C24.3869 25 26.6761 24.0518 28.364 22.364C30.0518 20.6761 31 18.3869 31 16C31 13.6131 30.0518 11.3239 28.364 9.63604C26.6761 7.94821 24.3869 7 22 7ZM22 21C21.0111 21 20.0444 20.7068 19.2221 20.1573C18.3999 19.6079 17.759 18.827 17.3806 17.9134C17.0022 16.9998 16.9031 15.9945 17.0961 15.0245C17.289 14.0546 17.7652 13.1637 18.4645 12.4645C19.1637 11.7652 20.0546 11.289 21.0245 11.0961C21.9945 10.9031 22.9998 11.0022 23.9134 11.3806C24.827 11.759 25.6079 12.3999 26.1573 13.2221C26.7068 14.0444 27 15.0111 27 16C27 17.3261 26.4732 18.5979 25.5355 19.5355C24.5979 20.4732 23.3261 21 22 21Z" fill="white"/>
<path d="M62 6.5H50C47.4804 6.5 45.0641 7.50089 43.2825 9.28249C41.5009 11.0641 40.5 13.4804 40.5 16C40.5 18.5196 41.5009 20.9359 43.2825 22.7175C45.0641 24.4991 47.4804 25.5 50 25.5H62C64.5196 25.5 66.9359 24.4991 68.7175 22.7175C70.4991 20.9359 71.5 18.5196 71.5 16C71.5 13.4804 70.4991 11.0641 68.7175 9.28249C66.9359 7.50089 64.5196 6.5 62 6.5ZM62 22.5H50C48.2761 22.5 46.6228 21.8152 45.4038 20.5962C44.1848 19.3772 43.5 17.7239 43.5 16C43.5 14.2761 44.1848 12.6228 45.4038 11.4038C46.6228 10.1848 48.2761 9.5 50 9.5H62C63.7239 9.5 65.3772 10.1848 66.5962 11.4038C67.8152 12.6228 68.5 14.2761 68.5 16C68.5 17.7239 67.8152 19.3772 66.5962 20.5962C65.3772 21.8152 63.7239 22.5 62 22.5ZM62 11C61.0111 11 60.0444 11.2932 59.2221 11.8427C58.3999 12.3921 57.759 13.173 57.3806 14.0866C57.0022 15.0002 56.9031 16.0055 57.0961 16.9755C57.289 17.9454 57.7652 18.8363 58.4645 19.5355C59.1637 20.2348 60.0546 20.711 61.0245 20.9039C61.9945 21.0969 62.9998 20.9978 63.9134 20.6194C64.827 20.241 65.6079 19.6001 66.1573 18.7779C66.7068 17.9556 67 16.9889 67 16C67 14.6739 66.4732 13.4021 65.5355 12.4645C64.5979 11.5268 63.3261 11 62 11ZM62 18C61.6044 18 61.2178 17.8827 60.8889 17.6629C60.56 17.4432 60.3036 17.1308 60.1522 16.7654C60.0009 16.3999 59.9613 15.9978 60.0384 15.6098C60.1156 15.2219 60.3061 14.8655 60.5858 14.5858C60.8655 14.3061 61.2219 14.1156 61.6098 14.0384C61.9978 13.9613 62.3999 14.0009 62.7654 14.1522C63.1308 14.3036 63.4432 14.56 63.6629 14.8889C63.8827 15.2178 64 15.6044 64 16C64 16.5304 63.7893 17.0391 63.4142 17.4142C63.0391 17.7893 62.5304 18 62 18Z" fill="white"/>
</g>
<defs>
<clipPath id="clip0_27_3076">
<rect width="72" height="32" rx="5" fill="white"/>
</clipPath>
</defs>
</svg>
