<svg width="72" height="32" viewBox="0 0 72 32" fill="none" xmlns="http://www.w3.org/2000/svg">
<g clip-path="url(#clip0_27_3071)">
<path d="M22 7H10C7.61305 7 5.32387 7.94821 3.63604 9.63604C1.94821 11.3239 1 13.6131 1 16C1 18.3869 1.94821 20.6761 3.63604 22.364C5.32387 24.0518 7.61305 25 10 25H22C24.3869 25 26.6761 24.0518 28.364 22.364C30.0518 20.6761 31 18.3869 31 16C31 13.6131 30.0518 11.3239 28.364 9.63604C26.6761 7.94821 24.3869 7 22 7ZM10 21C9.01109 21 8.04439 20.7068 7.22215 20.1573C6.3999 19.6079 5.75904 18.827 5.3806 17.9134C5.00216 16.9998 4.90315 15.9945 5.09607 15.0245C5.289 14.0546 5.7652 13.1637 6.46447 12.4645C7.16373 11.7652 8.05464 11.289 9.02455 11.0961C9.99445 10.9031 10.9998 11.0022 11.9134 11.3806C12.827 11.759 13.6079 12.3999 14.1573 13.2221C14.7068 14.0444 15 15.0111 15 16C15 17.3261 14.4732 18.5979 13.5355 19.5355C12.5979 20.4732 11.3261 21 10 21Z" fill="white"/>
<path d="M62 6.5H50C47.4804 6.5 45.0641 7.50089 43.2825 9.28249C41.5009 11.0641 40.5 13.4804 40.5 16C40.5 18.5196 41.5009 20.9359 43.2825 22.7175C45.0641 24.4991 47.4804 25.5 50 25.5H62C64.5196 25.5 66.9359 24.4991 68.7175 22.7175C70.4991 20.9359 71.5 18.5196 71.5 16C71.5 13.4804 70.4991 11.0641 68.7175 9.28249C66.9359 7.50089 64.5196 6.5 62 6.5ZM62 22.5H50C48.2761 22.5 46.6228 21.8152 45.4038 20.5962C44.1848 19.3772 43.5 17.7239 43.5 16C43.5 14.2761 44.1848 12.6228 45.4038 11.4038C46.6228 10.1848 48.2761 9.5 50 9.5H62C63.7239 9.5 65.3772 10.1848 66.5962 11.4038C67.8152 12.6228 68.5 14.2761 68.5 16C68.5 17.7239 67.8152 19.3772 66.5962 20.5962C65.3772 21.8152 63.7239 22.5 62 22.5ZM50 11C49.0111 11 48.0444 11.2932 47.2221 11.8427C46.3999 12.3921 45.759 13.173 45.3806 14.0866C45.0022 15.0002 44.9031 16.0055 45.0961 16.9755C45.289 17.9454 45.7652 18.8363 46.4645 19.5355C47.1637 20.2348 48.0546 20.711 49.0245 20.9039C49.9945 21.0969 50.9998 20.9978 51.9134 20.6194C52.827 20.241 53.6079 19.6001 54.1573 18.7779C54.7068 17.9556 55 16.9889 55 16C55 14.6739 54.4732 13.4021 53.5355 12.4645C52.5979 11.5268 51.3261 11 50 11ZM50 18C49.6044 18 49.2178 17.8827 48.8889 17.6629C48.56 17.4432 48.3036 17.1308 48.1522 16.7654C48.0009 16.3999 47.9613 15.9978 48.0384 15.6098C48.1156 15.2219 48.3061 14.8655 48.5858 14.5858C48.8655 14.3061 49.2219 14.1156 49.6098 14.0384C49.9978 13.9613 50.3999 14.0009 50.7654 14.1522C51.1308 14.3036 51.4432 14.56 51.6629 14.8889C51.8827 15.2178 52 15.6044 52 16C52 16.5304 51.7893 17.0391 51.4142 17.4142C51.0391 17.7893 50.5304 18 50 18Z" fill="white"/>
</g>
<defs>
<clipPath id="clip0_27_3071">
<rect width="72" height="32" rx="5" fill="white"/>
</clipPath>
</defs>
</svg>
