<svg width="72" height="32" viewBox="0 0 72 32" fill="none" xmlns="http://www.w3.org/2000/svg">
<g clip-path="url(#clip0_27_5036)">
<path d="M23 15C23 15.2652 22.8946 15.5196 22.7071 15.7071C22.5196 15.8946 22.2652 16 22 16H20C19.7348 16 19.4804 15.8946 19.2929 15.7071C19.1054 15.5196 19 15.2652 19 15C19 14.7348 19.1054 14.4804 19.2929 14.2929C19.4804 14.1054 19.7348 14 20 14H22C22.2652 14 22.5196 14.1054 22.7071 14.2929C22.8946 14.4804 23 14.7348 23 15ZM30 15V26C30 26.5304 29.7893 27.0391 29.4142 27.4142C29.0391 27.7893 28.5304 28 28 28H14C13.4696 28 12.9609 27.7893 12.5858 27.4142C12.2107 27.0391 12 26.5304 12 26V23.2938C10.9213 25.0463 9.5225 26 8 26C6.26625 26 4.6925 24.7637 3.57 22.5187C2.5575 20.5 2 17.8237 2 15C2 12.1763 2.5575 9.50625 3.57 7.48125C4.6925 5.23625 6.26625 4 8 4H24C25.7337 4 27.3075 5.23625 28.43 7.48125C29.4425 9.50625 30 12.1763 30 15ZM9.5 15C9.5 14.7033 9.41203 14.4133 9.2472 14.1666C9.08238 13.92 8.84811 13.7277 8.57403 13.6142C8.29994 13.5006 7.99834 13.4709 7.70736 13.5288C7.41639 13.5867 7.14912 13.7296 6.93934 13.9393C6.72956 14.1491 6.5867 14.4164 6.52882 14.7074C6.47094 14.9983 6.50065 15.2999 6.61418 15.574C6.72771 15.8481 6.91997 16.0824 7.16664 16.2472C7.41332 16.412 7.70333 16.5 8 16.5C8.39782 16.5 8.77936 16.342 9.06066 16.0607C9.34196 15.7794 9.5 15.3978 9.5 15ZM28 16H26C25.7348 16 25.4804 15.8946 25.2929 15.7071C25.1054 15.5196 25 15.2652 25 15C25 14.7348 25.1054 14.4804 25.2929 14.2929C25.4804 14.1054 25.7348 14 26 14H27.9737C27.73 9.2375 25.77 6 24 6H11.515C11.8661 6.46371 12.1725 6.95968 12.43 7.48125C13.3225 9.26625 13.86 11.5512 13.9762 14H16C16.2652 14 16.5196 14.1054 16.7071 14.2929C16.8946 14.4804 17 14.7348 17 15C17 15.2652 16.8946 15.5196 16.7071 15.7071C16.5196 15.8946 16.2652 16 16 16H14V26H28V16Z" fill="white"/>
<path d="M50 15C50 15.3956 49.8827 15.7822 49.6629 16.1111C49.4432 16.44 49.1308 16.6964 48.7654 16.8478C48.3999 16.9991 47.9978 17.0387 47.6098 16.9616C47.2219 16.8844 46.8655 16.6939 46.5858 16.4142C46.3061 16.1345 46.1156 15.7781 46.0384 15.3902C45.9613 15.0022 46.0009 14.6001 46.1522 14.2346C46.3036 13.8692 46.56 13.5568 46.8889 13.3371C47.2178 13.1173 47.6044 13 48 13C48.5304 13 49.0391 13.2107 49.4142 13.5858C49.7893 13.9609 50 14.4696 50 15ZM70.5 15V26C70.5 26.663 70.2366 27.2989 69.7678 27.7678C69.2989 28.2366 68.663 28.5 68 28.5H54C53.337 28.5 52.7011 28.2366 52.2322 27.7678C51.7634 27.2989 51.5 26.663 51.5 26V24.7987C50.5 25.8838 49.3075 26.5 48 26.5C44.2938 26.5 41.5 21.5562 41.5 15C41.5 8.44375 44.2938 3.5 48 3.5H64C67.7062 3.5 70.5 8.44375 70.5 15ZM51.5 15C51.5 12.5925 51.0238 10.26 50.1938 8.6C49.5363 7.285 48.7162 6.5 48 6.5C47.2838 6.5 46.4637 7.285 45.8063 8.6C44.9763 10.26 44.5 12.5925 44.5 15C44.5 17.4075 44.9763 19.74 45.8063 21.4C46.4637 22.715 47.2838 23.5 48 23.5C48.7162 23.5 49.5363 22.715 50.1938 21.4C51.0238 19.74 51.5 17.4075 51.5 15ZM67.5 25.5V16.5H66.5C66.1022 16.5 65.7206 16.342 65.4393 16.0607C65.158 15.7794 65 15.3978 65 15C65 14.6022 65.158 14.2206 65.4393 13.9393C65.7206 13.658 66.1022 13.5 66.5 13.5H67.4375C67.2838 11.6438 66.85 9.91125 66.1938 8.6C65.5375 7.28875 64.7162 6.5 64 6.5H52.4675C53.5437 8.26375 54.2612 10.695 54.45 13.5H55.5C55.8978 13.5 56.2794 13.658 56.5607 13.9393C56.842 14.2206 57 14.6022 57 15C57 15.3978 56.842 15.7794 56.5607 16.0607C56.2794 16.342 55.8978 16.5 55.5 16.5H54.5V25.5H67.5ZM61.5 13.5H60.5C60.1022 13.5 59.7206 13.658 59.4393 13.9393C59.158 14.2206 59 14.6022 59 15C59 15.3978 59.158 15.7794 59.4393 16.0607C59.7206 16.342 60.1022 16.5 60.5 16.5H61.5C61.8978 16.5 62.2794 16.342 62.5607 16.0607C62.842 15.7794 63 15.3978 63 15C63 14.6022 62.842 14.2206 62.5607 13.9393C62.2794 13.658 61.8978 13.5 61.5 13.5Z" fill="white"/>
</g>
<defs>
<clipPath id="clip0_27_5036">
<rect width="72" height="32" rx="5" fill="white"/>
</clipPath>
</defs>
</svg>
