<svg width="72" height="32" viewBox="0 0 72 32" fill="none" xmlns="http://www.w3.org/2000/svg">
<g clip-path="url(#clip0_27_5031)">
<path d="M7.50003 11H24.5C24.6326 11 24.7598 10.9473 24.8536 10.8536C24.9474 10.7598 25 10.6326 25 10.5V5C25 4.46957 24.7893 3.96086 24.4142 3.58579C24.0392 3.21071 23.5305 3 23 3H9.00003C8.46959 3 7.96089 3.21071 7.58581 3.58579C7.21074 3.96086 7.00003 4.46957 7.00003 5V10.5C7.00003 10.6326 7.05271 10.7598 7.14647 10.8536C7.24024 10.9473 7.36742 11 7.50003 11ZM11 6H12.9663C13.2247 5.99618 13.475 6.09037 13.6668 6.2636C13.8586 6.43684 13.9776 6.67628 14 6.93375C14.0091 7.07054 13.99 7.20773 13.9438 7.33681C13.8976 7.46589 13.8254 7.58409 13.7316 7.68409C13.6378 7.78408 13.5245 7.86372 13.3987 7.91807C13.2728 7.97241 13.1371 8.0003 13 8H11.0338C10.7754 8.00382 10.5251 7.90963 10.3333 7.7364C10.1415 7.56316 10.0224 7.32372 10 7.06625C9.99095 6.92946 10.0101 6.79227 10.0563 6.66319C10.1024 6.53411 10.1746 6.41591 10.2684 6.31591C10.3622 6.21592 10.4755 6.13628 10.6014 6.08193C10.7273 6.02759 10.8629 5.9997 11 6ZM28 14.0075C28.001 13.8755 27.9759 13.7447 27.9261 13.6225C27.8763 13.5003 27.8028 13.3892 27.7098 13.2955C27.6168 13.2019 27.5063 13.1276 27.3845 13.0768C27.2626 13.0261 27.132 13 27 13H5.00003C4.86807 13 4.73742 13.0261 4.6156 13.0768C4.49379 13.1276 4.38321 13.2019 4.29026 13.2955C4.1973 13.3892 4.1238 13.5003 4.07399 13.6225C4.02417 13.7447 3.99904 13.8755 4.00003 14.0075C4.00317 16.201 4.60689 18.3519 5.74568 20.2266C6.88447 22.1014 8.51487 23.6286 10.46 24.6425L10.0263 27.6763C9.96082 28.104 10.0321 28.5415 10.23 28.9263C10.399 29.2497 10.6533 29.5207 10.9653 29.71C11.2773 29.8992 11.6351 29.9995 12 30H19.9575C20.3919 30.0059 20.8171 29.8747 21.1725 29.625C21.4678 29.4114 21.6991 29.1211 21.8414 28.7856C21.9837 28.4501 22.0317 28.082 21.98 27.7213L21.54 24.6462C23.4857 23.632 25.1165 22.1043 26.2553 20.2288C27.3942 18.3533 27.9976 16.2017 28 14.0075ZM12 28L12.3663 25.4375C14.7307 26.1875 17.2693 26.1875 19.6338 25.4375L20 28H12Z" fill="white"/>
<path d="M56 8.5C56 8.89782 55.842 9.27936 55.5607 9.56066C55.2794 9.84196 54.8978 10 54.5 10H52.5C52.1022 10 51.7206 9.84196 51.4393 9.56066C51.158 9.27936 51 8.89782 51 8.5C51 8.10218 51.158 7.72064 51.4393 7.43934C51.7206 7.15804 52.1022 7 52.5 7H54.5C54.8978 7 55.2794 7.15804 55.5607 7.43934C55.842 7.72064 56 8.10218 56 8.5ZM62.0187 24.4525L62.475 27.6462C62.5257 28.0009 62.4996 28.3622 62.3984 28.7058C62.2973 29.0495 62.1235 29.3674 61.8888 29.638C61.6541 29.9086 61.364 30.1256 61.0381 30.2743C60.7122 30.4231 60.3582 30.5 60 30.5H52C51.6418 30.5 51.2878 30.4231 50.9619 30.2743C50.636 30.1256 50.3459 29.9086 50.1112 29.638C49.8765 29.3674 49.7027 29.0495 49.6016 28.7058C49.5004 28.3622 49.4743 28.0009 49.525 27.6462L49.9812 24.4525C48.0198 23.3737 46.3838 21.7885 45.2438 19.862C44.1038 17.9355 43.5016 15.7385 43.5 13.5C43.5 13.1022 43.658 12.7206 43.9393 12.4393C44.2206 12.158 44.6022 12 45 12H46.5V5C46.5 4.33696 46.7634 3.70107 47.2322 3.23223C47.7011 2.76339 48.337 2.5 49 2.5H63C63.663 2.5 64.2989 2.76339 64.7678 3.23223C65.2366 3.70107 65.5 4.33696 65.5 5V12H67C67.3978 12 67.7794 12.158 68.0607 12.4393C68.342 12.7206 68.5 13.1022 68.5 13.5C68.4984 15.7385 67.8962 17.9355 66.7562 19.862C65.6162 21.7885 63.9802 23.3737 62.0187 24.4525ZM49.5 12H62.5V5.5H49.5V12ZM59.1513 25.5975C57.0847 26.1341 54.9153 26.1341 52.8488 25.5975L52.5763 27.5H59.4237L59.1513 25.5975ZM65.3813 15H46.625C46.9812 17.2318 48.1214 19.2634 49.8408 20.7302C51.5602 22.1969 53.7462 23.0026 56.0063 23.0026C58.2663 23.0026 60.4523 22.1969 62.1717 20.7302C63.8911 19.2634 65.0313 17.2318 65.3875 15H65.3813Z" fill="white"/>
</g>
<defs>
<clipPath id="clip0_27_5031">
<rect width="72" height="32" rx="5" fill="white"/>
</clipPath>
</defs>
</svg>
