<svg width="72" height="32" viewBox="0 0 72 32" fill="none" xmlns="http://www.w3.org/2000/svg">
<g clip-path="url(#clip0_27_1577)">
<path d="M28 8H22V7C22 6.20435 21.6839 5.44129 21.1213 4.87868C20.5587 4.31607 19.7956 4 19 4H13C12.2044 4 11.4413 4.31607 10.8787 4.87868C10.3161 5.44129 10 6.20435 10 7V8H4C3.46957 8 2.96086 8.21071 2.58579 8.58579C2.21071 8.96086 2 9.46957 2 10V13.5C2 13.6326 2.05268 13.7598 2.14645 13.8536C2.24021 13.9473 2.36739 14 2.5 14H8V12.0337C7.99589 11.7753 8.08997 11.5248 8.26326 11.333C8.43656 11.1411 8.67617 11.0221 8.93375 11C9.07054 10.9909 9.20773 11.0101 9.33681 11.0562C9.46589 11.1024 9.58409 11.1746 9.68409 11.2684C9.78408 11.3622 9.86372 11.4755 9.91807 11.6014C9.97241 11.7272 10.0003 11.8629 10 12V14H22V12.0337C21.9959 11.7753 22.09 11.5248 22.2633 11.333C22.4366 11.1411 22.6762 11.0221 22.9338 11C23.0705 10.9909 23.2077 11.0101 23.3368 11.0562C23.4659 11.1024 23.5841 11.1746 23.6841 11.2684C23.7841 11.3622 23.8637 11.4755 23.9181 11.6014C23.9724 11.7272 24.0003 11.8629 24 12V14H29.5C29.6326 14 29.7598 13.9473 29.8536 13.8536C29.9473 13.7598 30 13.6326 30 13.5V10C30 9.46957 29.7893 8.96086 29.4142 8.58579C29.0391 8.21071 28.5304 8 28 8ZM20 8H12V7C12 6.73478 12.1054 6.48043 12.2929 6.29289C12.4804 6.10536 12.7348 6 13 6H19C19.2652 6 19.5196 6.10536 19.7071 6.29289C19.8946 6.48043 20 6.73478 20 7V8ZM30 16.5V24C30 24.5304 29.7893 25.0391 29.4142 25.4142C29.0391 25.7893 28.5304 26 28 26H4C3.46957 26 2.96086 25.7893 2.58579 25.4142C2.21071 25.0391 2 24.5304 2 24V16.5C2 16.3674 2.05268 16.2402 2.14645 16.1464C2.24021 16.0527 2.36739 16 2.5 16H8V18C7.9997 18.1371 8.02759 18.2728 8.08193 18.3986C8.13628 18.5245 8.21592 18.6378 8.31591 18.7316C8.41591 18.8254 8.53411 18.8976 8.66319 18.9438C8.79227 18.9899 8.92946 19.0091 9.06625 19C9.32383 18.9779 9.56344 18.8589 9.73674 18.667C9.91003 18.4752 10.0041 18.2247 10 17.9662V16H22V18C21.9997 18.1371 22.0276 18.2728 22.0819 18.3986C22.1363 18.5245 22.2159 18.6378 22.3159 18.7316C22.4159 18.8254 22.5341 18.8976 22.6632 18.9438C22.7923 18.9899 22.9295 19.0091 23.0662 19C23.3234 18.9779 23.5626 18.8593 23.7359 18.668C23.9091 18.4766 24.0035 18.2268 24 17.9688V16H29.5C29.6326 16 29.7598 16.0527 29.8536 16.1464C29.9473 16.2402 30 16.3674 30 16.5Z" fill="white"/>
<path d="M68 8H62.5V7C62.5 6.07174 62.1313 5.1815 61.4749 4.52513C60.8185 3.86875 59.9283 3.5 59 3.5H53C52.0717 3.5 51.1815 3.86875 50.5251 4.52513C49.8687 5.1815 49.5 6.07174 49.5 7V8H44C43.337 8 42.7011 8.26339 42.2322 8.73223C41.7634 9.20107 41.5 9.83696 41.5 10.5V24C41.5 24.663 41.7634 25.2989 42.2322 25.7678C42.7011 26.2366 43.337 26.5 44 26.5H68C68.663 26.5 69.2989 26.2366 69.7678 25.7678C70.2366 25.2989 70.5 24.663 70.5 24V10.5C70.5 9.83696 70.2366 9.20107 69.7678 8.73223C69.2989 8.26339 68.663 8 68 8ZM52.5 7C52.5 6.86739 52.5527 6.74021 52.6464 6.64645C52.7402 6.55268 52.8674 6.5 53 6.5H59C59.1326 6.5 59.2598 6.55268 59.3536 6.64645C59.4473 6.74021 59.5 6.86739 59.5 7V8H52.5V7ZM67.5 11V15H64.5V14.5C64.5 14.1022 64.342 13.7206 64.0607 13.4393C63.7794 13.158 63.3978 13 63 13C62.6022 13 62.2206 13.158 61.9393 13.4393C61.658 13.7206 61.5 14.1022 61.5 14.5V15H50.5V14.5C50.5 14.1022 50.342 13.7206 50.0607 13.4393C49.7794 13.158 49.3978 13 49 13C48.6022 13 48.2206 13.158 47.9393 13.4393C47.658 13.7206 47.5 14.1022 47.5 14.5V15H44.5V11H67.5ZM44.5 23.5V18H47.5V18.5C47.5 18.8978 47.658 19.2794 47.9393 19.5607C48.2206 19.842 48.6022 20 49 20C49.3978 20 49.7794 19.842 50.0607 19.5607C50.342 19.2794 50.5 18.8978 50.5 18.5V18H61.5V18.5C61.5 18.8978 61.658 19.2794 61.9393 19.5607C62.2206 19.842 62.6022 20 63 20C63.3978 20 63.7794 19.842 64.0607 19.5607C64.342 19.2794 64.5 18.8978 64.5 18.5V18H67.5V23.5H44.5Z" fill="white"/>
</g>
<defs>
<clipPath id="clip0_27_1577">
<rect width="72" height="32" rx="5" fill="white"/>
</clipPath>
</defs>
</svg>
