<svg width="72" height="32" viewBox="0 0 72 32" fill="none" xmlns="http://www.w3.org/2000/svg">
<g clip-path="url(#clip0_27_5041)">
<path d="M21 3H11C9.14889 2.99998 7.37313 3.73319 6.06127 5.03919C4.74941 6.3452 4.00826 8.11765 4 9.96875C4 15.3088 5 19.3937 5.8375 21.8787C6.9275 25.1038 8.415 27.565 9.9175 28.6287C10.2497 28.8689 10.6489 28.9987 11.0588 29C11.5654 28.9986 12.0529 28.8059 12.4237 28.4606C12.7945 28.1153 13.0213 27.6428 13.0588 27.1375C13.165 25.6975 13.6838 20.9988 16 20.9988C18.3162 20.9988 18.835 25.6975 18.9412 27.1375C18.9676 27.4925 19.0877 27.8342 19.2893 28.1276C19.4909 28.421 19.7668 28.6556 20.0888 28.8075C20.4063 28.9598 20.759 29.0239 21.1098 28.9929C21.4606 28.9618 21.7966 28.8369 22.0825 28.6313C23.5825 27.565 25.0725 25.1038 26.1625 21.8813C27 19.3938 28 15.3088 28 9.96875C27.9917 8.11765 27.2506 6.3452 25.9387 5.03919C24.6269 3.73319 22.8511 2.99998 21 3ZM21.375 10.0712C21.4969 10.1205 21.6079 10.1933 21.7016 10.2854C21.7954 10.3775 21.8701 10.4872 21.9214 10.6083C21.9728 10.7293 21.9998 10.8592 22.001 10.9907C22.0021 11.1221 21.9774 11.2525 21.9281 11.3744C21.8789 11.4963 21.8061 11.6072 21.714 11.701C21.6218 11.7948 21.5121 11.8695 21.3911 11.9208C21.2701 11.9722 21.1402 11.9992 21.0087 12.0004C20.8773 12.0015 20.7469 11.9767 20.625 11.9275L16 10.0763L11.375 11.9275C11.2531 11.9767 11.1227 12.0015 10.9913 12.0004C10.8598 11.9992 10.7299 11.9722 10.6089 11.9208C10.4879 11.8695 10.3782 11.7948 10.286 11.701C10.1939 11.6072 10.1211 11.4963 10.0719 11.3744C10.0226 11.2525 9.99787 11.1221 9.99902 10.9907C10.0002 10.8592 10.0272 10.7293 10.0786 10.6083C10.1299 10.4872 10.2046 10.3775 10.2984 10.2854C10.3921 10.1933 10.5031 10.1205 10.625 10.0712L13.3075 9L10.625 7.9275C10.5031 7.87825 10.3921 7.80548 10.2984 7.71334C10.2046 7.6212 10.1299 7.5115 10.0786 7.39049C10.0272 7.26949 10.0002 7.13955 9.99902 7.0081C9.99787 6.87665 10.0226 6.74626 10.0719 6.62437C10.1211 6.50249 10.1939 6.3915 10.286 6.29774C10.3782 6.20398 10.4879 6.12929 10.6089 6.07793C10.7299 6.02656 10.8598 5.99954 10.9913 5.99839C11.1227 5.99725 11.2531 6.022 11.375 6.07125L16 7.9225L20.625 6.07125C20.7469 6.022 20.8773 5.99725 21.0087 5.99839C21.1402 5.99954 21.2701 6.02656 21.3911 6.07793C21.5121 6.12929 21.6218 6.20398 21.714 6.29774C21.8061 6.3915 21.8789 6.50249 21.9281 6.62437C21.9774 6.74626 22.0021 6.87665 22.001 7.0081C21.9998 7.13955 21.9728 7.26949 21.9214 7.39049C21.8701 7.5115 21.7954 7.6212 21.7016 7.71334C21.6079 7.80548 21.4969 7.87825 21.375 7.9275L18.6925 9L21.375 10.0712Z" fill="white"/>
<path d="M61.5575 10.3938L60.0388 11L61.5575 11.6062C61.7405 11.6795 61.9072 11.788 62.0482 11.9256C62.1892 12.0633 62.3017 12.2274 62.3793 12.4085C62.4569 12.5896 62.4981 12.7843 62.5004 12.9813C62.5028 13.1784 62.4664 13.3739 62.3931 13.5569C62.3199 13.7398 62.2114 13.9066 62.0738 14.0476C61.9361 14.1886 61.772 14.3011 61.5909 14.3787C61.4098 14.4563 61.2151 14.4974 61.0181 14.4998C60.821 14.5022 60.6255 14.4657 60.4425 14.3925L56 12.6163L51.5575 14.3938C51.188 14.5416 50.775 14.5366 50.4091 14.3799C50.0433 14.2232 49.7548 13.9276 49.6069 13.5581C49.459 13.1886 49.464 12.7756 49.6207 12.4097C49.7774 12.0439 50.073 11.7554 50.4425 11.6075L51.9613 11L50.4425 10.3938C50.073 10.2459 49.7774 9.95731 49.6207 9.5915C49.464 9.22569 49.459 8.8126 49.6069 8.44312C49.7548 8.07365 50.0433 7.77804 50.4091 7.62133C50.775 7.46461 51.188 7.45964 51.5575 7.6075L56 9.385L60.4425 7.6075C60.812 7.45964 61.2251 7.46461 61.5909 7.62133C61.9567 7.77804 62.2453 8.07365 62.3931 8.44312C62.541 8.8126 62.536 9.22569 62.3793 9.5915C62.2226 9.95731 61.927 10.2459 61.5575 10.3938ZM68.5 9.96875C68.51 19.525 65.35 26.9287 62.375 29.0425C62.0131 29.2966 61.5902 29.4502 61.1495 29.4875C60.7089 29.5249 60.2662 29.4446 59.8666 29.255C59.4671 29.0654 59.125 28.7732 58.8753 28.4083C58.6255 28.0433 58.477 27.6186 58.445 27.1775C58.3613 26.045 58.1538 24.4275 57.6375 23.1488C56.97 21.5 56.24 21.5 56 21.5C55.03 21.5 54.5288 22.74 54.365 23.1475C53.8488 24.425 53.6413 26.0438 53.5575 27.1763C53.5129 27.8072 53.2308 28.3978 52.7681 28.829C52.3053 29.2602 51.6963 29.5 51.0638 29.5C50.5483 29.5006 50.0455 29.3407 49.625 29.0425C46.65 26.9287 43.49 19.525 43.5 9.96875C43.5083 7.98505 44.3021 6.08541 45.7077 4.68564C47.1134 3.28587 49.0163 2.49998 51 2.5H61C62.9837 2.49998 64.8867 3.28587 66.2923 4.68564C67.6979 6.08541 68.4918 7.98505 68.5 9.96875ZM65.5 9.96875C65.4918 8.7807 65.014 7.64412 64.171 6.80695C63.328 5.96979 62.1881 5.49997 61 5.5H51C49.8113 5.49998 48.6709 5.97031 47.8277 6.80828C46.9846 7.64626 46.5073 8.7838 46.5 9.9725C46.4925 17.6087 48.7288 23.6625 50.6625 25.93C51.405 19.5 54.29 18.5 56 18.5C57.71 18.5 60.595 19.5 61.3375 25.9287C63.2713 23.6637 65.5075 17.61 65.5 9.9725V9.96875Z" fill="white"/>
</g>
<defs>
<clipPath id="clip0_27_5041">
<rect width="72" height="32" rx="5" fill="white"/>
</clipPath>
</defs>
</svg>
