<svg width="72" height="32" viewBox="0 0 72 32" fill="none" xmlns="http://www.w3.org/2000/svg">
<g clip-path="url(#clip0_27_2319)">
<path d="M18 28.5C18 28.8978 17.842 29.2794 17.5607 29.5607C17.2794 29.842 16.8978 30 16.5 30H14.5C14.1022 30 13.7206 29.842 13.4393 29.5607C13.158 29.2794 13 28.8978 13 28.5C13 28.1022 13.158 27.7206 13.4393 27.4393C13.7206 27.158 14.1022 27 14.5 27H16.5C16.8978 27 17.2794 27.158 17.5607 27.4393C17.842 27.7206 18 28.1022 18 28.5ZM27.5 4H7.5C7.10218 4 6.72064 4.15804 6.43934 4.43934C6.15804 4.72064 6 5.10218 6 5.5C6 5.89782 6.15804 6.27936 6.43934 6.56066C6.72064 6.84196 7.10218 7 7.5 7C7.89782 7 8.27936 7.15804 8.56066 7.43934C8.84196 7.72064 9 8.10218 9 8.5C9 8.89782 8.84196 9.27936 8.56066 9.56066C8.27936 9.84196 7.89782 10 7.5 10H5.5C5.10218 10 4.72064 10.158 4.43934 10.4393C4.15804 10.7206 4 11.1022 4 11.5C4 11.8978 4.15804 12.2794 4.43934 12.5607C4.72064 12.842 5.10218 13 5.5 13H9.5C9.89782 13 10.2794 13.158 10.5607 13.4393C10.842 13.7206 11 14.1022 11 14.5C11 14.8978 10.842 15.2794 10.5607 15.5607C10.2794 15.842 9.89782 16 9.5 16C9.10218 16 8.72064 16.158 8.43934 16.4393C8.15804 16.7206 8 17.1022 8 17.5C8 17.8978 8.15804 18.2794 8.43934 18.5607C8.72064 18.842 9.10218 19 9.5 19H15.5C15.8978 19 16.2794 19.158 16.5607 19.4393C16.842 19.7206 17 20.1022 17 20.5C17 20.8978 16.842 21.2794 16.5607 21.5607C16.2794 21.842 15.8978 22 15.5 22C15.1022 22 14.7206 22.158 14.4393 22.4393C14.158 22.7206 14 23.1022 14 23.5C14 23.8978 14.158 24.2794 14.4393 24.5607C14.7206 24.842 15.1022 25 15.5 25H21.5C21.8978 25 22.2794 24.842 22.5607 24.5607C22.842 24.2794 23 23.8978 23 23.5C23 23.1022 22.842 22.7206 22.5607 22.4393C22.2794 22.158 21.8978 22 21.5 22C21.1022 22 20.7206 21.842 20.4393 21.5607C20.158 21.2794 20 20.8978 20 20.5C20 20.1022 20.158 19.7206 20.4393 19.4393C20.7206 19.158 21.1022 19 21.5 19H23.5C23.8978 19 24.2794 18.842 24.5607 18.5607C24.842 18.2794 25 17.8978 25 17.5C25 17.1022 24.842 16.7206 24.5607 16.4393C24.2794 16.158 23.8978 16 23.5 16H20.5C20.1022 16 19.7206 15.842 19.4393 15.5607C19.158 15.2794 19 14.8978 19 14.5C19 14.1022 19.158 13.7206 19.4393 13.4393C19.7206 13.158 20.1022 13 20.5 13C20.8978 13 21.2794 12.842 21.5607 12.5607C21.842 12.2794 22 11.8978 22 11.5C22 11.1022 21.842 10.7206 21.5607 10.4393C21.2794 10.158 20.8978 10 20.5 10C20.1022 10 19.7206 9.84196 19.4393 9.56066C19.158 9.27936 19 8.89782 19 8.5C19 8.10218 19.158 7.72064 19.4393 7.43934C19.7206 7.15804 20.1022 7 20.5 7H27.5C27.8978 7 28.2794 6.84196 28.5607 6.56066C28.842 6.27936 29 5.89782 29 5.5C29 5.10218 28.842 4.72064 28.5607 4.43934C28.2794 4.15804 27.8978 4 27.5 4Z" fill="white"/>
<path d="M69 5.5C69 5.89782 68.842 6.27936 68.5607 6.56066C68.2794 6.84196 67.8978 7 67.5 7H47.5C47.1022 7 46.7206 6.84196 46.4393 6.56066C46.158 6.27936 46 5.89782 46 5.5C46 5.10218 46.158 4.72064 46.4393 4.43934C46.7206 4.15804 47.1022 4 47.5 4H67.5C67.8978 4 68.2794 4.15804 68.5607 4.43934C68.842 4.72064 69 5.10218 69 5.5ZM62 11C62 10.6022 61.842 10.2206 61.5607 9.93934C61.2794 9.65804 60.8978 9.5 60.5 9.5H45.5C45.1022 9.5 44.7206 9.65804 44.4393 9.93934C44.158 10.2206 44 10.6022 44 11C44 11.3978 44.158 11.7794 44.4393 12.0607C44.7206 12.342 45.1022 12.5 45.5 12.5H60.5C60.8978 12.5 61.2794 12.342 61.5607 12.0607C61.842 11.7794 62 11.3978 62 11ZM62 16.5C62 16.1022 61.842 15.7206 61.5607 15.4393C61.2794 15.158 60.8978 15 60.5 15H49.5C49.1022 15 48.7206 15.158 48.4393 15.4393C48.158 15.7206 48 16.1022 48 16.5C48 16.8978 48.158 17.2794 48.4393 17.5607C48.7206 17.842 49.1022 18 49.5 18H60.5C60.8978 18 61.2794 17.842 61.5607 17.5607C61.842 17.2794 62 16.8978 62 16.5ZM61.5 20.5H56.5C56.1022 20.5 55.7206 20.658 55.4393 20.9393C55.158 21.2206 55 21.6022 55 22C55 22.3978 55.158 22.7794 55.4393 23.0607C55.7206 23.342 56.1022 23.5 56.5 23.5H61.5C61.8978 23.5 62.2794 23.342 62.5607 23.0607C62.842 22.7794 63 22.3978 63 22C63 21.6022 62.842 21.2206 62.5607 20.9393C62.2794 20.658 61.8978 20.5 61.5 20.5ZM57.5 26H55.5C55.1022 26 54.7206 26.158 54.4393 26.4393C54.158 26.7206 54 27.1022 54 27.5C54 27.8978 54.158 28.2794 54.4393 28.5607C54.7206 28.842 55.1022 29 55.5 29H57.5C57.8978 29 58.2794 28.842 58.5607 28.5607C58.842 28.2794 59 27.8978 59 27.5C59 27.1022 58.842 26.7206 58.5607 26.4393C58.2794 26.158 57.8978 26 57.5 26Z" fill="white"/>
</g>
<defs>
<clipPath id="clip0_27_2319">
<rect width="72" height="32" rx="5" fill="white"/>
</clipPath>
</defs>
</svg>
