<svg width="72" height="32" viewBox="0 0 72 32" fill="none" xmlns="http://www.w3.org/2000/svg">
<g clip-path="url(#clip0_27_1587)">
<path d="M29.5 8.675C29.3103 8.46212 29.0777 8.29189 28.8174 8.17554C28.5571 8.05918 28.2751 7.99935 27.99 8H22C22 6.4087 21.3678 4.88258 20.2426 3.75736C19.1174 2.63214 17.5913 2 16 2C14.4087 2 12.8825 2.63214 11.7573 3.75736C10.6321 4.88258 9.99997 6.4087 9.99997 8H4.00997C3.72655 8.00076 3.44647 8.06127 3.18801 8.17758C2.92955 8.29389 2.69851 8.46338 2.50997 8.675C2.32301 8.88583 2.1827 9.1338 2.09826 9.40264C2.01382 9.67148 1.98714 9.95513 2.01997 10.235L3.80247 25.235C3.86028 25.7237 4.09626 26.174 4.46525 26.4996C4.83425 26.8253 5.31035 27.0034 5.80247 27H26.2087C26.7008 27.0034 27.1769 26.8253 27.5459 26.4996C27.9149 26.174 28.1509 25.7237 28.2087 25.235L29.9912 10.235C30.0239 9.95504 29.997 9.67134 29.9123 9.40249C29.8277 9.13364 29.6872 8.88573 29.5 8.675ZM16 4C17.0608 4 18.0783 4.42143 18.8284 5.17157C19.5785 5.92172 20 6.93913 20 8H12C12 6.93913 12.4214 5.92172 13.1715 5.17157C13.9217 4.42143 14.9391 4 16 4Z" fill="white"/>
<path d="M69.8751 8.34373C69.6396 8.07895 69.3509 7.8669 69.0277 7.7215C68.7046 7.57609 68.3544 7.5006 68.0001 7.49998H62.4788C62.3469 5.87232 61.6071 4.35396 60.4067 3.24688C59.2062 2.13981 57.6331 1.52515 56.0001 1.52515C54.3671 1.52515 52.7939 2.13981 51.5935 3.24688C50.393 4.35396 49.6533 5.87232 49.5213 7.49998H44.0101C43.6561 7.49859 43.306 7.57237 42.9827 7.71642C42.6594 7.86048 42.3704 8.07154 42.1348 8.33564C41.8991 8.59973 41.7223 8.91085 41.6159 9.2484C41.5095 9.58596 41.476 9.94226 41.5176 10.2937L43.2988 25.2937C43.3725 25.9027 43.6669 26.4635 44.1262 26.8701C44.5855 27.2767 45.1779 27.5008 45.7913 27.5H66.2088C66.8222 27.5008 67.4146 27.2767 67.8739 26.8701C68.3333 26.4635 68.6276 25.9027 68.7013 25.2937L70.4826 10.2937C70.5243 9.94425 70.4917 9.5899 70.387 9.25386C70.2823 8.91783 70.1079 8.60769 69.8751 8.34373ZM56.0001 4.49998C56.8416 4.50007 57.655 4.80338 58.2911 5.35435C58.9273 5.90531 59.3436 6.66704 59.4638 7.49998H52.5363C52.6565 6.66704 53.0729 5.90531 53.709 5.35435C54.3451 4.80338 55.1585 4.50007 56.0001 4.49998ZM65.7738 24.5H46.2263L44.5626 10.5H67.4376L65.7738 24.5Z" fill="white"/>
</g>
<defs>
<clipPath id="clip0_27_1587">
<rect width="72" height="32" rx="5" fill="white"/>
</clipPath>
</defs>
</svg>
