<svg width="72" height="32" viewBox="0 0 72 32" fill="none" xmlns="http://www.w3.org/2000/svg">
<g clip-path="url(#clip0_27_1592)">
<path d="M28 6V19C28.0003 19.1371 27.9724 19.2728 27.9181 19.3986C27.8637 19.5245 27.7841 19.6378 27.6841 19.7316C27.5841 19.8254 27.4659 19.8976 27.3368 19.9438C27.2077 19.9899 27.0705 20.0091 26.9338 20C26.6766 19.9779 26.4374 19.8593 26.2641 19.668C26.0909 19.4766 25.9965 19.2268 26 18.9688V6C26.0003 5.86269 25.9724 5.72678 25.9179 5.60074C25.8634 5.47471 25.7835 5.36125 25.6832 5.26743C25.583 5.17361 25.4645 5.10145 25.3351 5.05544C25.2057 5.00943 25.0682 4.99056 24.9312 5C24.6741 5.0233 24.4353 5.14289 24.2626 5.33482C24.0899 5.52675 23.9961 5.77684 24 6.035V22.5C24 22.6326 23.9473 22.7598 23.8536 22.8536C23.7598 22.9473 23.6326 23 23.5 23H6.5C6.36739 23 6.24021 22.9473 6.14645 22.8536C6.05268 22.7598 6 22.6326 6 22.5V6C6 5.20435 6.31607 4.44129 6.87868 3.87868C7.44129 3.31607 8.20435 3 9 3H25C25.7956 3 26.5587 3.31607 27.1213 3.87868C27.6839 4.44129 28 5.20435 28 6ZM23.5 25H6.5C6.36739 25 6.24021 25.0527 6.14645 25.1464C6.05268 25.2402 6 25.3674 6 25.5V27C6 27.5304 6.21071 28.0391 6.58579 28.4142C6.96086 28.7893 7.46957 29 8 29H22C22.5304 29 23.0391 28.7893 23.4142 28.4142C23.7893 28.0391 24 27.5304 24 27V25.5C24 25.3674 23.9473 25.2402 23.8536 25.1464C23.7598 25.0527 23.6326 25 23.5 25Z" fill="white"/>
<path d="M64.645 2.5C64.5863 2.5 64.5288 2.5 64.4713 2.5H49C48.0717 2.5 47.1815 2.86875 46.5251 3.52513C45.8687 4.1815 45.5 5.07174 45.5 6V27C45.5 27.663 45.7634 28.2989 46.2322 28.7678C46.7011 29.2366 47.337 29.5 48 29.5H61C61.663 29.5 62.2989 29.2366 62.7678 28.7678C63.2366 28.2989 63.5 27.663 63.5 27V6.5C63.5 6.23478 63.6054 5.98043 63.7929 5.79289C63.9804 5.60536 64.2348 5.5 64.5 5.5H64.5438C64.8093 5.52008 65.0571 5.64116 65.2361 5.83832C65.4151 6.03548 65.5118 6.29374 65.5063 6.56V18.5C65.5063 18.8978 65.6643 19.2794 65.9456 19.5607C66.2269 19.842 66.6084 20 67.0063 20C67.4041 20 67.7856 19.842 68.0669 19.5607C68.3482 19.2794 68.5063 18.8978 68.5063 18.5V6.56C68.5184 5.5136 68.1217 4.50377 67.4005 3.74548C66.6794 2.98718 65.6907 2.54032 64.645 2.5ZM49 5.5H60.625C60.5417 5.82679 60.4997 6.16275 60.5 6.5V21.5H48.5V6C48.5 5.86739 48.5527 5.74021 48.6464 5.64645C48.7402 5.55268 48.8674 5.5 49 5.5ZM48.5 26.5V24.5H60.5V26.5H48.5Z" fill="white"/>
</g>
<defs>
<clipPath id="clip0_27_1592">
<rect width="72" height="32" rx="5" fill="white"/>
</clipPath>
</defs>
</svg>
