<svg width="72" height="32" viewBox="0 0 72 32" fill="none" xmlns="http://www.w3.org/2000/svg">
<g clip-path="url(#clip0_27_1597)">
<path d="M10 21.5C10 21.7967 9.91203 22.0867 9.74721 22.3334C9.58239 22.58 9.34812 22.7723 9.07403 22.8858C8.79994 22.9993 8.49834 23.0291 8.20737 22.9712C7.9164 22.9133 7.64912 22.7704 7.43934 22.5607C7.22956 22.3509 7.0867 22.0836 7.02882 21.7926C6.97095 21.5017 7.00065 21.2001 7.11418 20.926C7.22772 20.6519 7.41997 20.4176 7.66665 20.2528C7.91332 20.088 8.20333 20 8.5 20C8.89783 20 9.27936 20.158 9.56066 20.4393C9.84197 20.7206 10 21.1022 10 21.5ZM15 21.5C15 22.7856 14.6188 24.0423 13.9046 25.1112C13.1903 26.1801 12.1752 27.0132 10.9874 27.5052C9.79973 27.9972 8.49279 28.1259 7.23192 27.8751C5.97104 27.6243 4.81285 27.0052 3.90381 26.0962C2.99477 25.1872 2.3757 24.029 2.1249 22.7681C1.87409 21.5072 2.00282 20.2003 2.49479 19.0126C2.98676 17.8248 3.81988 16.8097 4.8888 16.0954C5.95772 15.3812 7.21442 15 8.5 15C10.2233 15.002 11.8754 15.6874 13.094 16.906C14.3126 18.1246 14.998 19.7767 15 21.5ZM12 21.5C12 20.8078 11.7947 20.1311 11.4101 19.5555C11.0256 18.9799 10.4789 18.5313 9.83939 18.2664C9.19985 18.0015 8.49612 17.9322 7.81719 18.0673C7.13825 18.2023 6.51461 18.5356 6.02513 19.0251C5.53565 19.5146 5.2023 20.1383 5.06725 20.8172C4.93221 21.4961 5.00152 22.1999 5.26642 22.8394C5.53133 23.4789 5.97994 24.0256 6.55551 24.4101C7.13108 24.7947 7.80777 25 8.5 25C9.42826 25 10.3185 24.6313 10.9749 23.9749C11.6313 23.3185 12 22.4283 12 21.5ZM31 23.5C30.998 24.6488 30.5568 25.7533 29.7666 26.5872C28.9765 27.4211 27.8974 27.9213 26.7504 27.9852C25.6034 28.0492 24.4754 27.672 23.5975 26.931C22.7197 26.1901 22.1584 25.1414 22.0288 24H18C17.7348 24 17.4804 23.8946 17.2929 23.7071C17.1054 23.5196 17 23.2652 17 23V21.5C16.9977 19.2464 16.1014 17.0857 14.5079 15.4922C12.9143 13.8986 10.7536 13.0023 8.5 13H5C4.73479 13 4.48043 12.8946 4.2929 12.7071C4.10536 12.5196 4 12.2652 4 12C4 11.7348 4.10536 11.4804 4.2929 11.2929C4.48043 11.1054 4.73479 11 5 11H6V7H5C4.73479 7 4.48043 6.89464 4.2929 6.70711C4.10536 6.51957 4 6.26522 4 6C4 5.73478 4.10536 5.48043 4.2929 5.29289C4.48043 5.10536 4.73479 5 5 5H20C20.2652 5 20.5196 5.10536 20.7071 5.29289C20.8946 5.48043 21 5.73478 21 6C21 6.26522 20.8946 6.51957 20.7071 6.70711C20.5196 6.89464 20.2652 7 20 7H19V12.235L22 13.0475V9C22 8.73478 22.1054 8.48043 22.2929 8.29289C22.4804 8.10536 22.7348 8 23 8C23.2652 8 23.5196 8.10536 23.7071 8.29289C23.8946 8.48043 24 8.73478 24 9V13.5887L28.5488 14.8212L28.575 14.8287C28.989 14.9507 29.352 15.2042 29.6091 15.5508C29.8663 15.8975 30.0035 16.3184 30 16.75V20.6825C30.6465 21.4793 30.9995 22.474 31 23.5ZM28.5 23.5C28.5 23.1044 28.3827 22.7178 28.1629 22.3889C27.9432 22.06 27.6308 21.8036 27.2654 21.6522C26.8999 21.5009 26.4978 21.4613 26.1098 21.5384C25.7219 21.6156 25.3655 21.8061 25.0858 22.0858C24.8061 22.3655 24.6156 22.7219 24.5384 23.1098C24.4613 23.4978 24.5009 23.8999 24.6522 24.2654C24.8036 24.6308 25.06 24.9432 25.3889 25.1629C25.7178 25.3827 26.1044 25.5 26.5 25.5C27.0304 25.5 27.5391 25.2893 27.9142 24.9142C28.2893 24.5391 28.5 24.0304 28.5 23.5Z" fill="white"/>
<path d="M70.5 20.5V16.75C70.5025 16.2119 70.3301 15.6875 70.0089 15.2558C69.6876 14.8241 69.2349 14.5084 68.7188 14.3562L68.68 14.345L64.5 13.2063V9.5C64.5 9.10218 64.342 8.72064 64.0607 8.43934C63.7794 8.15804 63.3978 8 63 8C62.6022 8 62.2206 8.15804 61.9393 8.43934C61.658 8.72064 61.5 9.10218 61.5 9.5V12.3938L59.5 11.8525V7.5H60C60.3978 7.5 60.7794 7.34196 61.0607 7.06066C61.342 6.77936 61.5 6.39782 61.5 6C61.5 5.60218 61.342 5.22064 61.0607 4.93934C60.7794 4.65804 60.3978 4.5 60 4.5H45C44.6022 4.5 44.2206 4.65804 43.9393 4.93934C43.658 5.22064 43.5 5.60218 43.5 6C43.5 6.39782 43.658 6.77936 43.9393 7.06066C44.2206 7.34196 44.6022 7.5 45 7.5H45.5V10.5H45C44.6022 10.5 44.2206 10.658 43.9393 10.9393C43.658 11.2206 43.5 11.6022 43.5 12C43.5 12.3978 43.658 12.7794 43.9393 13.0607C44.2206 13.342 44.6022 13.5 45 13.5H48.5C50.621 13.5023 52.6545 14.3459 54.1543 15.8457C55.6541 17.3455 56.4977 19.379 56.5 21.5V23C56.5 23.3978 56.658 23.7794 56.9393 24.0607C57.2206 24.342 57.6022 24.5 58 24.5H61.6C61.7502 25.2344 62.0636 25.9256 62.517 26.5225C62.9704 27.1194 63.5522 27.6067 64.2193 27.9484C64.8865 28.2901 65.6219 28.4774 66.3712 28.4965C67.1206 28.5156 67.8646 28.366 68.5483 28.0587C69.232 27.7514 69.8378 27.2944 70.321 26.7213C70.8042 26.1483 71.1524 25.4739 71.3398 24.7482C71.5272 24.0224 71.549 23.2638 71.4037 22.5285C71.2583 21.7931 70.9495 21.0999 70.5 20.5ZM56.5 13.9587C55.4736 12.8662 54.2342 11.9956 52.8583 11.4007C51.4823 10.8058 49.999 10.4993 48.5 10.5V7.5H56.5V13.9587ZM61.9188 21.5H59.5V14.96L67.5 17.125V18.6C67.1708 18.5336 66.8358 18.5001 66.5 18.5C65.5276 18.5012 64.5765 18.7855 63.763 19.3183C62.9494 19.851 62.3086 20.6091 61.9188 21.5ZM66.5 25.5C66.1044 25.5 65.7178 25.3827 65.3889 25.1629C65.06 24.9432 64.8036 24.6308 64.6522 24.2654C64.5009 23.8999 64.4613 23.4978 64.5384 23.1098C64.6156 22.7219 64.8061 22.3655 65.0858 22.0858C65.3655 21.8061 65.7219 21.6156 66.1098 21.5384C66.4978 21.4613 66.8999 21.5009 67.2654 21.6522C67.6308 21.8036 67.9432 22.06 68.1629 22.3889C68.3827 22.7178 68.5 23.1044 68.5 23.5C68.5 24.0304 68.2893 24.5391 67.9142 24.9142C67.5391 25.2893 67.0304 25.5 66.5 25.5ZM48 15.5C46.7144 15.5 45.4577 15.8812 44.3888 16.5954C43.3199 17.3097 42.4868 18.3248 41.9948 19.5126C41.5028 20.7003 41.3741 22.0072 41.6249 23.2681C41.8757 24.529 42.4948 25.6872 43.4038 26.5962C44.3129 27.5052 45.471 28.1243 46.7319 28.3751C47.9928 28.6259 49.2997 28.4972 50.4874 28.0052C51.6752 27.5132 52.6903 26.6801 53.4046 25.6112C54.1188 24.5423 54.5 23.2856 54.5 22C54.498 20.2767 53.8126 18.6246 52.594 17.406C51.3754 16.1874 49.7233 15.502 48 15.5ZM48 25.5C47.3078 25.5 46.6311 25.2947 46.0555 24.9101C45.4799 24.5256 45.0313 23.9789 44.7664 23.3394C44.5015 22.6999 44.4322 21.9961 44.5673 21.3172C44.7023 20.6383 45.0356 20.0146 45.5251 19.5251C46.0146 19.0356 46.6383 18.7023 47.3172 18.5673C47.9961 18.4322 48.6999 18.5015 49.3394 18.7664C49.9789 19.0313 50.5256 19.4799 50.9101 20.0555C51.2947 20.6311 51.5 21.3078 51.5 22C51.5 22.9283 51.1313 23.8185 50.4749 24.4749C49.8185 25.1313 48.9283 25.5 48 25.5ZM50 22C50 22.3956 49.8827 22.7822 49.6629 23.1111C49.4432 23.44 49.1308 23.6964 48.7654 23.8478C48.3999 23.9991 47.9978 24.0387 47.6098 23.9616C47.2219 23.8844 46.8655 23.6939 46.5858 23.4142C46.3061 23.1345 46.1156 22.7781 46.0384 22.3902C45.9613 22.0022 46.0009 21.6001 46.1522 21.2346C46.3036 20.8692 46.56 20.5568 46.8889 20.3371C47.2178 20.1173 47.6044 20 48 20C48.5304 20 49.0391 20.2107 49.4142 20.5858C49.7893 20.9609 50 21.4696 50 22Z" fill="white"/>
</g>
<defs>
<clipPath id="clip0_27_1597">
<rect width="72" height="32" rx="5" fill="white"/>
</clipPath>
</defs>
</svg>
