<svg width="72" height="32" viewBox="0 0 72 32" fill="none" xmlns="http://www.w3.org/2000/svg">
<g clip-path="url(#clip0_27_1607)">
<path d="M19 14C19 14.5304 18.7893 15.0391 18.4142 15.4142C18.0391 15.7893 17.5304 16 17 16H14V12H17C17.5304 12 18.0391 12.2107 18.4142 12.5858C18.7893 12.9609 19 13.4696 19 14ZM29 16C29 18.5712 28.2376 21.0846 26.8091 23.2224C25.3807 25.3603 23.3503 27.0265 20.9749 28.0104C18.5995 28.9944 15.9856 29.2518 13.4638 28.7502C10.9421 28.2486 8.6257 27.0105 6.80762 25.1924C4.98953 23.3743 3.75141 21.0579 3.2498 18.5362C2.74819 16.0144 3.00563 13.4006 3.98957 11.0251C4.97351 8.64968 6.63975 6.61935 8.77759 5.1909C10.9154 3.76244 13.4288 3 16 3C19.4467 3.00364 22.7512 4.37445 25.1884 6.81163C27.6256 9.24882 28.9964 12.5533 29 16ZM27 16C27 13.8244 26.3549 11.6977 25.1462 9.88873C23.9375 8.07979 22.2195 6.66989 20.2095 5.83733C18.1995 5.00476 15.9878 4.78692 13.854 5.21136C11.7202 5.6358 9.76021 6.68345 8.22183 8.22183C6.68345 9.7602 5.63581 11.7202 5.21137 13.854C4.78693 15.9878 5.00477 18.1995 5.83733 20.2095C6.66989 22.2195 8.07979 23.9375 9.88873 25.1462C11.6977 26.3549 13.8244 27 16 27C18.9164 26.9967 21.7123 25.8367 23.7745 23.7745C25.8367 21.7123 26.9967 18.9164 27 16ZM25 16C25 17.78 24.4722 19.5201 23.4832 21.0001C22.4943 22.4802 21.0887 23.6337 19.4442 24.3149C17.7996 24.9961 15.99 25.1743 14.2442 24.8271C12.4984 24.4798 10.8947 23.6226 9.63604 22.364C8.37737 21.1053 7.52021 19.5016 7.17294 17.7558C6.82567 16.01 7.0039 14.2004 7.68509 12.5558C8.36628 10.9113 9.51983 9.50571 10.9999 8.51677C12.4799 7.52784 14.22 7 16 7C18.3861 7.00265 20.6738 7.95171 22.361 9.63896C24.0483 11.3262 24.9974 13.6139 25 16ZM20.8325 20.445L18.8863 17.5263C19.672 17.1055 20.2947 16.4343 20.6555 15.6193C21.0164 14.8043 21.0947 13.8922 20.878 13.0276C20.6613 12.163 20.1621 11.3956 19.4595 10.8471C18.7569 10.2986 17.8913 10.0004 17 10H13C12.7348 10 12.4804 10.1054 12.2929 10.2929C12.1054 10.4804 12 10.7348 12 11V21C12 21.2652 12.1054 21.5196 12.2929 21.7071C12.4804 21.8946 12.7348 22 13 22C13.2652 22 13.5196 21.8946 13.7071 21.7071C13.8946 21.5196 14 21.2652 14 21V18H16.7988L19.1738 21.555C19.321 21.7758 19.5498 21.9291 19.81 21.9811C20.0702 22.0332 20.3405 21.9797 20.5613 21.8325C20.782 21.6853 20.9353 21.4564 20.9874 21.1962C21.0394 20.936 20.986 20.6658 20.8388 20.445H20.8325Z" fill="white"/>
<path d="M56 2.5C53.33 2.5 50.7199 3.29176 48.4998 4.77516C46.2797 6.25856 44.5494 8.36697 43.5276 10.8338C42.5058 13.3006 42.2385 16.015 42.7594 18.6337C43.2803 21.2525 44.5661 23.6579 46.4541 25.5459C48.3421 27.434 50.7475 28.7197 53.3663 29.2406C55.985 29.7615 58.6994 29.4942 61.1662 28.4724C63.633 27.4506 65.7414 25.7203 67.2248 23.5002C68.7082 21.2801 69.5 18.67 69.5 16C69.496 12.4208 68.0724 8.98932 65.5416 6.45844C63.0107 3.92756 59.5792 2.50397 56 2.5ZM56 26.5C53.9233 26.5 51.8932 25.8842 50.1665 24.7304C48.4398 23.5767 47.094 21.9368 46.2993 20.0182C45.5046 18.0996 45.2966 15.9884 45.7018 13.9516C46.1069 11.9148 47.1069 10.0438 48.5754 8.57538C50.0438 7.10693 51.9148 6.1069 53.9516 5.70175C55.9884 5.29661 58.0996 5.50454 60.0182 6.29926C61.9368 7.09399 63.5767 8.4398 64.7304 10.1665C65.8842 11.8932 66.5 13.9233 66.5 16C66.497 18.7839 65.3898 21.4528 63.4213 23.4213C61.4529 25.3898 58.7839 26.497 56 26.5ZM59.5875 17.6775C60.3681 17.127 60.9533 16.3424 61.2584 15.4372C61.5635 14.532 61.5726 13.5532 61.2844 12.6425C60.9962 11.7317 60.4258 10.9363 59.6555 10.3714C58.8853 9.80645 57.9552 9.50126 57 9.5H53C52.6022 9.5 52.2206 9.65804 51.9393 9.93934C51.658 10.2206 51.5 10.6022 51.5 11V21C51.5 21.3978 51.658 21.7794 51.9393 22.0607C52.2206 22.342 52.6022 22.5 53 22.5C53.3978 22.5 53.7794 22.342 54.0607 22.0607C54.342 21.7794 54.5 21.3978 54.5 21V18.5H56.53L58.75 21.8325C58.9708 22.164 59.3142 22.3943 59.7048 22.4725C60.0953 22.5508 60.501 22.4708 60.8325 22.25C61.164 22.0292 61.3943 21.6858 61.4726 21.2952C61.5509 20.9047 61.4708 20.499 61.25 20.1675L59.5875 17.6775ZM54.5 12.5H57C57.3978 12.5 57.7794 12.658 58.0607 12.9393C58.342 13.2206 58.5 13.6022 58.5 14C58.5 14.3978 58.342 14.7794 58.0607 15.0607C57.7794 15.342 57.3978 15.5 57 15.5H54.5V12.5Z" fill="white"/>
</g>
<defs>
<clipPath id="clip0_27_1607">
<rect width="72" height="32" rx="5" fill="white"/>
</clipPath>
</defs>
</svg>
