<svg width="72" height="32" viewBox="0 0 72 32" fill="none" xmlns="http://www.w3.org/2000/svg">
<g clip-path="url(#clip0_27_1602)">
<path d="M16 3C13.4288 3 10.9154 3.76244 8.77759 5.1909C6.63975 6.61935 4.97351 8.64968 3.98957 11.0251C3.00563 13.4006 2.74819 16.0144 3.2498 18.5362C3.75141 21.0579 4.98953 23.3743 6.80762 25.1924C8.6257 27.0105 10.9421 28.2486 13.4638 28.7502C15.9856 29.2518 18.5995 28.9944 20.9749 28.0104C23.3503 27.0265 25.3807 25.3603 26.8091 23.2224C28.2376 21.0846 29 18.5712 29 16C28.9964 12.5533 27.6256 9.24882 25.1884 6.81163C22.7512 4.37445 19.4467 3.00364 16 3ZM13 14H12V19C12 19.2652 11.8946 19.5196 11.7071 19.7071C11.5196 19.8946 11.2652 20 11 20C10.7348 20 10.4804 19.8946 10.2929 19.7071C10.1054 19.5196 10 19.2652 10 19V14H9.00001C8.73479 14 8.48044 13.8946 8.2929 13.7071C8.10536 13.5196 8.00001 13.2652 8.00001 13C8.00001 12.7348 8.10536 12.4804 8.2929 12.2929C8.48044 12.1054 8.73479 12 9.00001 12H13C13.2652 12 13.5196 12.1054 13.7071 12.2929C13.8946 12.4804 14 12.7348 14 13C14 13.2652 13.8946 13.5196 13.7071 13.7071C13.5196 13.8946 13.2652 14 13 14ZM24 19C24 19.2652 23.8946 19.5196 23.7071 19.7071C23.5196 19.8946 23.2652 20 23 20C22.7348 20 22.4804 19.8946 22.2929 19.7071C22.1054 19.5196 22 19.2652 22 19V15.6613L20.25 17.6612C20.1562 17.7677 20.0408 17.8529 19.9114 17.9112C19.7821 17.9696 19.6419 17.9998 19.5 17.9998C19.3581 17.9998 19.2179 17.9696 19.0886 17.9112C18.9593 17.8529 18.8438 17.7677 18.75 17.6612L17 15.6613V19C17 19.2652 16.8946 19.5196 16.7071 19.7071C16.5196 19.8946 16.2652 20 16 20C15.7348 20 15.4804 19.8946 15.2929 19.7071C15.1054 19.5196 15 19.2652 15 19V13C15.0006 12.7971 15.0628 12.5992 15.1785 12.4325C15.2942 12.2658 15.4578 12.1383 15.6477 12.0668C15.8376 11.9953 16.0447 11.9833 16.2416 12.0323C16.4385 12.0813 16.6158 12.1891 16.75 12.3413L19.5 15.4812L22.25 12.3413C22.3842 12.1891 22.5615 12.0813 22.7584 12.0323C22.9553 11.9833 23.1624 11.9953 23.3523 12.0668C23.5422 12.1383 23.7058 12.2658 23.8215 12.4325C23.9372 12.5992 23.9995 12.7971 24 13V19Z" fill="white"/>
<path d="M56 2.5C53.33 2.5 50.7199 3.29176 48.4998 4.77516C46.2797 6.25856 44.5494 8.36697 43.5276 10.8338C42.5058 13.3006 42.2385 16.015 42.7594 18.6337C43.2803 21.2525 44.5661 23.6579 46.4541 25.5459C48.3421 27.434 50.7475 28.7197 53.3663 29.2406C55.985 29.7615 58.6994 29.4942 61.1662 28.4724C63.633 27.4506 65.7414 25.7203 67.2248 23.5002C68.7082 21.2801 69.5 18.67 69.5 16C69.496 12.4208 68.0724 8.98932 65.5416 6.45844C63.0107 3.92756 59.5792 2.50397 56 2.5ZM56 26.5C53.9233 26.5 51.8932 25.8842 50.1665 24.7304C48.4398 23.5767 47.094 21.9368 46.2993 20.0182C45.5046 18.0996 45.2966 15.9884 45.7018 13.9516C46.1069 11.9148 47.1069 10.0438 48.5754 8.57538C50.0438 7.10693 51.9148 6.1069 53.9516 5.70175C55.9884 5.29661 58.0996 5.50454 60.0182 6.29926C61.9368 7.09399 63.5767 8.4398 64.7304 10.1665C65.8842 11.8932 66.5 13.9233 66.5 16C66.497 18.7839 65.3898 21.4528 63.4213 23.4213C61.4529 25.3898 58.7839 26.497 56 26.5ZM64 13.5V18.5C64 18.8978 63.842 19.2794 63.5607 19.5607C63.2794 19.842 62.8978 20 62.5 20C62.1022 20 61.7207 19.842 61.4393 19.5607C61.158 19.2794 61 18.8978 61 18.5V16.7612L59.9763 17.6362C59.7044 17.8693 59.3581 17.9974 59 17.9974C58.6419 17.9974 58.2956 17.8693 58.0238 17.6362L57 16.7612V18.5C57 18.8978 56.842 19.2794 56.5607 19.5607C56.2794 19.842 55.8978 20 55.5 20C55.1022 20 54.7206 19.842 54.4393 19.5607C54.158 19.2794 54 18.8978 54 18.5V15H52.5V18.5C52.5 18.8978 52.342 19.2794 52.0607 19.5607C51.7794 19.842 51.3978 20 51 20C50.6022 20 50.2207 19.842 49.9393 19.5607C49.658 19.2794 49.5 18.8978 49.5 18.5V15H49C48.6022 15 48.2207 14.842 47.9393 14.5607C47.658 14.2794 47.5 13.8978 47.5 13.5C47.5 13.1022 47.658 12.7206 47.9393 12.4393C48.2207 12.158 48.6022 12 49 12H55.5C55.8581 12 56.2044 12.1282 56.4763 12.3612L59 14.525L61.5238 12.3612C61.7416 12.1745 62.0083 12.0542 62.2924 12.0145C62.5765 11.9748 62.8661 12.0174 63.1267 12.1373C63.3874 12.2571 63.6081 12.4492 63.7629 12.6907C63.9177 12.9323 64 13.2131 64 13.5Z" fill="white"/>
</g>
<defs>
<clipPath id="clip0_27_1602">
<rect width="72" height="32" rx="5" fill="white"/>
</clipPath>
</defs>
</svg>
