<svg width="72" height="32" viewBox="0 0 72 32" fill="none" xmlns="http://www.w3.org/2000/svg">
<g clip-path="url(#clip0_27_6875)">
<path d="M27 18H25V10H27C27.2652 10 27.5196 9.89464 27.7071 9.70711C27.8946 9.51957 28 9.26522 28 9C28 8.73478 27.8946 8.48043 27.7071 8.29289C27.5196 8.10536 27.2652 8 27 8H25V5C25 4.46957 24.7893 3.96086 24.4142 3.58579C24.0391 3.21071 23.5304 3 23 3H9C8.46957 3 7.96086 3.21071 7.58579 3.58579C7.21071 3.96086 7 4.46957 7 5V8H5C4.73478 8 4.48043 8.10536 4.29289 8.29289C4.10536 8.48043 4 8.73478 4 9C4 9.26522 4.10536 9.51957 4.29289 9.70711C4.48043 9.89464 4.73478 10 5 10H7V18H5C4.73478 18 4.48043 18.1054 4.29289 18.2929C4.10536 18.4804 4 18.7348 4 19C4 19.2652 4.10536 19.5196 4.29289 19.7071C4.48043 19.8946 4.73478 20 5 20H7V27C7 27.5304 7.21071 28.0391 7.58579 28.4142C7.96086 28.7893 8.46957 29 9 29H23C23.5304 29 24.0391 28.7893 24.4142 28.4142C24.7893 28.0391 25 27.5304 25 27V20H27C27.2652 20 27.5196 19.8946 27.7071 19.7071C27.8946 19.5196 28 19.2652 28 19C28 18.7348 27.8946 18.4804 27.7071 18.2929C27.5196 18.1054 27.2652 18 27 18ZM16 14.5C15.3078 14.5 14.6311 14.2947 14.0555 13.9101C13.4799 13.5256 13.0313 12.9789 12.7664 12.3394C12.5015 11.6999 12.4322 10.9961 12.5673 10.3172C12.7023 9.63825 13.0356 9.01461 13.5251 8.52513C14.0146 8.03564 14.6383 7.7023 15.3172 7.56725C15.9961 7.4322 16.6999 7.50151 17.3394 7.76642C17.9789 8.03133 18.5256 8.47993 18.9101 9.0555C19.2947 9.63108 19.5 10.3078 19.5 11C19.5 11.9283 19.1313 12.8185 18.4749 13.4749C17.8185 14.1313 16.9283 14.5 16 14.5ZM16 17.5C16.6922 17.5 17.3689 17.7053 17.9445 18.0899C18.5201 18.4744 18.9687 19.0211 19.2336 19.6606C19.4985 20.3001 19.5678 21.0039 19.4327 21.6828C19.2977 22.3617 18.9644 22.9854 18.4749 23.4749C17.9854 23.9644 17.3617 24.2977 16.6828 24.4327C16.0039 24.5678 15.3001 24.4985 14.6606 24.2336C14.0211 23.9687 13.4744 23.5201 13.0899 22.9445C12.7053 22.3689 12.5 21.6922 12.5 21C12.5 20.0717 12.8687 19.1815 13.5251 18.5251C14.1815 17.8687 15.0717 17.5 16 17.5Z" fill="white"/>
<path d="M67 17.5H65.5V10.5H67C67.3978 10.5 67.7794 10.342 68.0607 10.0607C68.342 9.77936 68.5 9.39782 68.5 9C68.5 8.60218 68.342 8.22064 68.0607 7.93934C67.7794 7.65804 67.3978 7.5 67 7.5H65.5V5C65.5 4.33696 65.2366 3.70107 64.7678 3.23223C64.2989 2.76339 63.663 2.5 63 2.5H49C48.337 2.5 47.7011 2.76339 47.2322 3.23223C46.7634 3.70107 46.5 4.33696 46.5 5V7.5H45C44.6022 7.5 44.2206 7.65804 43.9393 7.93934C43.658 8.22064 43.5 8.60218 43.5 9C43.5 9.39782 43.658 9.77936 43.9393 10.0607C44.2206 10.342 44.6022 10.5 45 10.5H46.5V17.5H45C44.6022 17.5 44.2206 17.658 43.9393 17.9393C43.658 18.2206 43.5 18.6022 43.5 19C43.5 19.3978 43.658 19.7794 43.9393 20.0607C44.2206 20.342 44.6022 20.5 45 20.5H46.5V27C46.5 27.663 46.7634 28.2989 47.2322 28.7678C47.7011 29.2366 48.337 29.5 49 29.5H63C63.663 29.5 64.2989 29.2366 64.7678 28.7678C65.2366 28.2989 65.5 27.663 65.5 27V20.5H67C67.3978 20.5 67.7794 20.342 68.0607 20.0607C68.342 19.7794 68.5 19.3978 68.5 19C68.5 18.6022 68.342 18.2206 68.0607 17.9393C67.7794 17.658 67.3978 17.5 67 17.5ZM62.5 26.5H49.5V5.5H62.5V26.5ZM56 15C56.7911 15 57.5645 14.7654 58.2223 14.3259C58.8801 13.8864 59.3928 13.2616 59.6955 12.5307C59.9983 11.7998 60.0775 10.9956 59.9231 10.2196C59.7688 9.44371 59.3878 8.73098 58.8284 8.17157C58.269 7.61216 57.5563 7.2312 56.7804 7.07686C56.0044 6.92252 55.2002 7.00173 54.4693 7.30448C53.7384 7.60723 53.1136 8.11992 52.6741 8.77772C52.2346 9.43552 52 10.2089 52 11C52 12.0609 52.4214 13.0783 53.1716 13.8284C53.9217 14.5786 54.9391 15 56 15ZM56 10C56.1978 10 56.3911 10.0586 56.5556 10.1685C56.72 10.2784 56.8482 10.4346 56.9239 10.6173C56.9996 10.8 57.0194 11.0011 56.9808 11.1951C56.9422 11.3891 56.847 11.5673 56.7071 11.7071C56.5673 11.847 56.3891 11.9422 56.1951 11.9808C56.0011 12.0194 55.8 11.9996 55.6173 11.9239C55.4346 11.8482 55.2784 11.72 55.1685 11.5556C55.0586 11.3911 55 11.1978 55 11C55 10.7348 55.1054 10.4804 55.2929 10.2929C55.4804 10.1054 55.7348 10 56 10ZM56 25C56.7911 25 57.5645 24.7654 58.2223 24.3259C58.8801 23.8864 59.3928 23.2616 59.6955 22.5307C59.9983 21.7998 60.0775 20.9956 59.9231 20.2196C59.7688 19.4437 59.3878 18.731 58.8284 18.1716C58.269 17.6122 57.5563 17.2312 56.7804 17.0769C56.0044 16.9225 55.2002 17.0017 54.4693 17.3045C53.7384 17.6072 53.1136 18.1199 52.6741 18.7777C52.2346 19.4355 52 20.2089 52 21C52 22.0609 52.4214 23.0783 53.1716 23.8284C53.9217 24.5786 54.9391 25 56 25ZM56 20C56.1978 20 56.3911 20.0586 56.5556 20.1685C56.72 20.2784 56.8482 20.4346 56.9239 20.6173C56.9996 20.8 57.0194 21.0011 56.9808 21.1951C56.9422 21.3891 56.847 21.5673 56.7071 21.7071C56.5673 21.847 56.3891 21.9422 56.1951 21.9808C56.0011 22.0194 55.8 21.9996 55.6173 21.9239C55.4346 21.8482 55.2784 21.72 55.1685 21.5556C55.0586 21.3911 55 21.1978 55 21C55 20.7348 55.1054 20.4804 55.2929 20.2929C55.4804 20.1054 55.7348 20 56 20Z" fill="white"/>
</g>
<defs>
<clipPath id="clip0_27_6875">
<rect width="72" height="32" rx="5" fill="white"/>
</clipPath>
</defs>
</svg>
