<svg width="72" height="32" viewBox="0 0 72 32" fill="none" xmlns="http://www.w3.org/2000/svg">
<g clip-path="url(#clip0_27_6870)">
<path d="M30.3938 14.5363L17.4638 1.60627C17.2716 1.41404 17.0434 1.26155 16.7923 1.15752C16.5411 1.05348 16.2719 0.999939 16.0001 0.999939C15.7282 0.999939 15.459 1.05348 15.2079 1.15752C14.9567 1.26155 14.7285 1.41404 14.5363 1.60627L1.60633 14.5363C1.4141 14.7285 1.26161 14.9567 1.15758 15.2078C1.05355 15.459 1 15.7282 1 16C1 16.2719 1.05355 16.541 1.15758 16.7922C1.26161 17.0434 1.4141 17.2715 1.60633 17.4638L14.5363 30.3938C14.7285 30.586 14.9567 30.7385 15.2079 30.8425C15.459 30.9466 15.7282 31.0001 16.0001 31.0001C16.2719 31.0001 16.5411 30.9466 16.7923 30.8425C17.0434 30.7385 17.2716 30.586 17.4638 30.3938L30.3938 17.4638C30.5861 17.2715 30.7385 17.0434 30.8426 16.7922C30.9466 16.541 31.0002 16.2719 31.0002 16C31.0002 15.7282 30.9466 15.459 30.8426 15.2078C30.7385 14.9567 30.5861 14.7285 30.3938 14.5363ZM21.7076 15.7075L18.7076 18.7075C18.5199 18.8952 18.2654 19.0006 18.0001 19.0006C17.7347 19.0006 17.4802 18.8952 17.2926 18.7075C17.1049 18.5199 16.9995 18.2654 16.9995 18C16.9995 17.7347 17.1049 17.4802 17.2926 17.2925L18.5863 16H14.0001C13.4696 16 12.9609 16.2107 12.5859 16.5858C12.2108 16.9609 12.0001 17.4696 12.0001 18V19C12.0001 19.2652 11.8947 19.5196 11.7072 19.7071C11.5196 19.8947 11.2653 20 11.0001 20C10.7349 20 10.4805 19.8947 10.293 19.7071C10.1054 19.5196 10.0001 19.2652 10.0001 19V18C10.0001 16.9392 10.4215 15.9217 11.1717 15.1716C11.9218 14.4214 12.9392 14 14.0001 14H18.5863L17.2926 12.7075C17.1049 12.5199 16.9995 12.2654 16.9995 12C16.9995 11.7347 17.1049 11.4802 17.2926 11.2925C17.4802 11.1049 17.7347 10.9995 18.0001 10.9995C18.2654 10.9995 18.5199 11.1049 18.7076 11.2925L21.7076 14.2925C21.8006 14.3854 21.8743 14.4957 21.9246 14.6171C21.975 14.7385 22.0009 14.8686 22.0009 15C22.0009 15.1314 21.975 15.2616 21.9246 15.383C21.8743 15.5044 21.8006 15.6146 21.7076 15.7075Z" fill="white"/>
<path d="M70.7505 14.1825L57.818 1.25001C57.3358 0.768206 56.6821 0.497559 56.0005 0.497559C55.3189 0.497559 54.6652 0.768206 54.183 1.25001L41.2505 14.1825C40.7687 14.6647 40.498 15.3184 40.498 16C40.498 16.6816 40.7687 17.3354 41.2505 17.8175L54.183 30.75C54.6652 31.2318 55.3189 31.5025 56.0005 31.5025C56.6821 31.5025 57.3358 31.2318 57.818 30.75L70.7505 17.8175C71.2323 17.3354 71.503 16.6816 71.503 16C71.503 15.3184 71.2323 14.6647 70.7505 14.1825ZM56.0005 28.3213L43.6793 16L56.0005 3.67876L68.3218 16L56.0005 28.3213ZM56.9392 13.0613C56.6575 12.7795 56.4991 12.3973 56.4991 11.9988C56.4991 11.6002 56.6575 11.2181 56.9392 10.9363C57.221 10.6545 57.6032 10.4962 58.0017 10.4962C58.4003 10.4962 58.7825 10.6545 59.0642 10.9363L62.0642 13.9363C62.2041 14.0756 62.315 14.2412 62.3908 14.4235C62.4665 14.6059 62.5054 14.8013 62.5054 14.9988C62.5054 15.1962 62.4665 15.3917 62.3908 15.574C62.315 15.7563 62.2041 15.9219 62.0642 16.0613L59.0642 19.0613C58.7825 19.3431 58.4003 19.5014 58.0017 19.5014C57.6032 19.5014 57.221 19.3431 56.9392 19.0613C56.6575 18.7795 56.4991 18.3973 56.4991 17.9988C56.4991 17.6002 56.6575 17.2181 56.9392 16.9363L57.3755 16.5H54.0005C53.6027 16.5 53.2211 16.658 52.9398 16.9394C52.6585 17.2207 52.5005 17.6022 52.5005 18V18.5C52.5005 18.8978 52.3425 19.2794 52.0612 19.5607C51.7799 19.842 51.3983 20 51.0005 20C50.6027 20 50.2211 19.842 49.9398 19.5607C49.6585 19.2794 49.5005 18.8978 49.5005 18.5V18C49.5005 16.8065 49.9746 15.6619 50.8185 14.818C51.6624 13.9741 52.807 13.5 54.0005 13.5H57.3755L56.9392 13.0613Z" fill="white"/>
</g>
<defs>
<clipPath id="clip0_27_6870">
<rect width="72" height="32" rx="5" fill="white"/>
</clipPath>
</defs>
</svg>
