<svg width="72" height="32" viewBox="0 0 72 32" fill="none" xmlns="http://www.w3.org/2000/svg">
<g clip-path="url(#clip0_27_6890)">
<path d="M23 3H9C7.93913 3 6.92172 3.42143 6.17157 4.17157C5.42143 4.92172 5 5.93913 5 7V23C5 24.0609 5.42143 25.0783 6.17157 25.8284C6.92172 26.5786 7.93913 27 9 27H10L8.2 29.4C8.12121 29.5051 8.06388 29.6246 8.03129 29.7518C7.99869 29.879 7.99148 30.0114 8.01005 30.1414C8.02862 30.2714 8.07262 30.3965 8.13953 30.5095C8.20643 30.6225 8.29494 30.7212 8.4 30.8C8.50506 30.8788 8.62461 30.9361 8.75182 30.9687C8.87903 31.0013 9.01142 31.0085 9.14142 30.99C9.27142 30.9714 9.39649 30.9274 9.50949 30.8605C9.62249 30.7936 9.72121 30.7051 9.8 30.6L12.5 27H19.5L22.2 30.6C22.3591 30.8122 22.596 30.9524 22.8586 30.99C23.1211 31.0275 23.3878 30.9591 23.6 30.8C23.8122 30.6409 23.9524 30.404 23.99 30.1414C24.0275 29.8789 23.9591 29.6122 23.8 29.4L22 27H23C24.0609 27 25.0783 26.5786 25.8284 25.8284C26.5786 25.0783 27 24.0609 27 23V7C27 5.93913 26.5786 4.92172 25.8284 4.17157C25.0783 3.42143 24.0609 3 23 3ZM23 25H9C8.46957 25 7.96086 24.7893 7.58579 24.4142C7.21071 24.0391 7 23.5304 7 23V17H25V23C25 23.5304 24.7893 24.0391 24.4142 24.4142C24.0391 24.7893 23.5304 25 23 25ZM12 21.5C12 21.7967 11.912 22.0867 11.7472 22.3334C11.5824 22.58 11.3481 22.7723 11.074 22.8858C10.7999 22.9993 10.4983 23.0291 10.2074 22.9712C9.91639 22.9133 9.64912 22.7704 9.43934 22.5607C9.22956 22.3509 9.0867 22.0836 9.02882 21.7926C8.97094 21.5017 9.00065 21.2001 9.11418 20.926C9.22771 20.6519 9.41997 20.4176 9.66665 20.2528C9.91332 20.088 10.2033 20 10.5 20C10.8978 20 11.2794 20.158 11.5607 20.4393C11.842 20.7206 12 21.1022 12 21.5ZM23 21.5C23 21.7967 22.912 22.0867 22.7472 22.3334C22.5824 22.58 22.3481 22.7723 22.074 22.8858C21.7999 22.9993 21.4983 23.0291 21.2074 22.9712C20.9164 22.9133 20.6491 22.7704 20.4393 22.5607C20.2296 22.3509 20.0867 22.0836 20.0288 21.7926C19.9709 21.5017 20.0007 21.2001 20.1142 20.926C20.2277 20.6519 20.42 20.4176 20.6666 20.2528C20.9133 20.088 21.2033 20 21.5 20C21.8978 20 22.2794 20.158 22.5607 20.4393C22.842 20.7206 23 21.1022 23 21.5Z" fill="white"/>
<path d="M63 2.5H49C47.8065 2.5 46.6619 2.97411 45.818 3.81802C44.9741 4.66193 44.5 5.80653 44.5 7V23C44.5 24.1935 44.9741 25.3381 45.818 26.182C46.6619 27.0259 47.8065 27.5 49 27.5L47.8 29.1C47.5613 29.4183 47.4588 29.8183 47.5151 30.2121C47.5713 30.606 47.7817 30.9613 48.1 31.2C48.4183 31.4387 48.8183 31.5412 49.2121 31.4849C49.606 31.4287 49.9613 31.2183 50.2 30.9L52.75 27.5H59.25L61.8 30.9C62.0387 31.2183 62.394 31.4287 62.7879 31.4849C63.1817 31.5412 63.5817 31.4387 63.9 31.2C64.2183 30.9613 64.4287 30.606 64.4849 30.2121C64.5412 29.8183 64.4387 29.4183 64.2 29.1L63 27.5C64.1935 27.5 65.3381 27.0259 66.182 26.182C67.0259 25.3381 67.5 24.1935 67.5 23V7C67.5 5.80653 67.0259 4.66193 66.182 3.81802C65.3381 2.97411 64.1935 2.5 63 2.5ZM49 5.5H63C63.3978 5.5 63.7794 5.65804 64.0607 5.93934C64.342 6.22064 64.5 6.60218 64.5 7V14.5H47.5V7C47.5 6.60218 47.658 6.22064 47.9393 5.93934C48.2206 5.65804 48.6022 5.5 49 5.5ZM63 24.5H49C48.6022 24.5 48.2206 24.342 47.9393 24.0607C47.658 23.7794 47.5 23.3978 47.5 23V17.5H64.5V23C64.5 23.3978 64.342 23.7794 64.0607 24.0607C63.7794 24.342 63.3978 24.5 63 24.5ZM53 21C53 21.3956 52.8827 21.7822 52.6629 22.1111C52.4432 22.44 52.1308 22.6964 51.7654 22.8478C51.3999 22.9991 50.9978 23.0387 50.6098 22.9616C50.2219 22.8844 49.8655 22.6939 49.5858 22.4142C49.3061 22.1345 49.1156 21.7781 49.0384 21.3902C48.9613 21.0022 49.0009 20.6001 49.1522 20.2346C49.3036 19.8692 49.56 19.5568 49.8889 19.3371C50.2178 19.1173 50.6044 19 51 19C51.5304 19 52.0391 19.2107 52.4142 19.5858C52.7893 19.9609 53 20.4696 53 21ZM63 21C63 21.3956 62.8827 21.7822 62.6629 22.1111C62.4432 22.44 62.1308 22.6964 61.7654 22.8478C61.3999 22.9991 60.9978 23.0387 60.6098 22.9616C60.2219 22.8844 59.8655 22.6939 59.5858 22.4142C59.3061 22.1345 59.1156 21.7781 59.0384 21.3902C58.9613 21.0022 59.0009 20.6001 59.1522 20.2346C59.3036 19.8692 59.56 19.5568 59.8889 19.3371C60.2178 19.1173 60.6044 19 61 19C61.5304 19 62.0391 19.2107 62.4142 19.5858C62.7893 19.9609 63 20.4696 63 21Z" fill="white"/>
</g>
<defs>
<clipPath id="clip0_27_6890">
<rect width="72" height="32" rx="5" fill="white"/>
</clipPath>
</defs>
</svg>
