<svg width="72" height="32" viewBox="0 0 72 32" fill="none" xmlns="http://www.w3.org/2000/svg">
<g clip-path="url(#clip0_27_6885)">
<path d="M20.9997 11C20.9997 11.2652 20.8944 11.5196 20.7068 11.7071C20.5193 11.8946 20.2649 12 19.9997 12H11.9997C11.7345 12 11.4801 11.8946 11.2926 11.7071C11.1051 11.5196 10.9997 11.2652 10.9997 11C10.9997 10.7348 11.1051 10.4804 11.2926 10.2929C11.4801 10.1054 11.7345 10 11.9997 10H19.9997C20.2649 10 20.5193 10.1054 20.7068 10.2929C20.8944 10.4804 20.9997 10.7348 20.9997 11ZM27.9647 15.2625L25.166 25.5263C25.0505 25.9496 24.799 26.3232 24.4502 26.5896C24.1015 26.8559 23.6748 27.0001 23.236 27H21.9997L23.7997 29.4C23.8785 29.5051 23.9358 29.6246 23.9684 29.7518C24.001 29.879 24.0082 30.0114 23.9897 30.1414C23.9711 30.2714 23.9271 30.3965 23.8602 30.5095C23.7933 30.6225 23.7048 30.7212 23.5997 30.8C23.4947 30.8788 23.3751 30.9361 23.2479 30.9687C23.1207 31.0013 22.9883 31.0085 22.8583 30.99C22.7283 30.9714 22.6032 30.9274 22.4902 30.8605C22.3772 30.7936 22.2785 30.7051 22.1997 30.6L19.4997 27H12.4997L9.79971 30.6C9.72092 30.7051 9.6222 30.7936 9.5092 30.8605C9.3962 30.9274 9.27113 30.9714 9.14113 30.99C9.01113 31.0085 8.87874 31.0013 8.75153 30.9687C8.62431 30.9361 8.50477 30.8788 8.39971 30.8C8.29465 30.7212 8.20614 30.6225 8.13923 30.5095C8.07233 30.3965 8.02833 30.2714 8.00976 30.1414C7.99119 30.0114 7.9984 29.879 8.03099 29.7518C8.06359 29.6246 8.12092 29.5051 8.19971 29.4L9.99971 27H8.76346C8.32464 27.0001 7.89796 26.8559 7.54919 26.5896C7.20042 26.3232 6.94892 25.9496 6.83346 25.5263L4.03471 15.2625C3.98843 15.0906 3.98843 14.9094 4.03471 14.7375L6.83346 4.47375C6.94892 4.05039 7.20042 3.67676 7.54919 3.41044C7.89796 3.14412 8.32464 2.9999 8.76346 3H23.236C23.6748 2.9999 24.1015 3.14412 24.4502 3.41044C24.799 3.67676 25.0505 4.05039 25.166 4.47375L27.9647 14.7375C28.011 14.9094 28.011 15.0906 27.9647 15.2625ZM16.9997 19C16.9997 18.7348 16.8944 18.4804 16.7068 18.2929C16.5193 18.1054 16.2649 18 15.9997 18C15.7345 18 15.4801 18.1054 15.2926 18.2929C15.1051 18.4804 14.9997 18.7348 14.9997 19V24C14.9997 24.2652 15.1051 24.5196 15.2926 24.7071C15.4801 24.8946 15.7345 25 15.9997 25C16.2649 25 16.5193 24.8946 16.7068 24.7071C16.8944 24.5196 16.9997 24.2652 16.9997 24V19ZM25.7497 14.2113L23.236 5H8.76346L6.24971 14.2113L15.9997 15.9838L25.7497 14.2113Z" fill="white"/>
<path d="M68.4475 14.605L65.6475 4.3425C65.5033 3.81345 65.1891 3.34649 64.7534 3.01355C64.3177 2.68061 63.7846 2.50016 63.2362 2.5H48.7637C48.2154 2.50016 47.6823 2.68061 47.2466 3.01355C46.8109 3.34649 46.4967 3.81345 46.3525 4.3425L43.5525 14.605C43.4825 14.8637 43.4825 15.1363 43.5525 15.395L46.3525 25.6575C46.4967 26.1866 46.8109 26.6535 47.2466 26.9865C47.6823 27.3194 48.2154 27.4998 48.7637 27.5H49L47.8 29.1C47.5613 29.4183 47.4588 29.8183 47.5151 30.2121C47.5713 30.606 47.7817 30.9613 48.1 31.2C48.4182 31.4387 48.8183 31.5412 49.2121 31.4849C49.6059 31.4287 49.9613 31.2183 50.2 30.9L52.75 27.5H59.25L61.8 30.9C62.0387 31.2183 62.394 31.4287 62.7879 31.4849C63.1817 31.5412 63.5817 31.4387 63.9 31.2C64.2182 30.9613 64.4287 30.606 64.4849 30.2121C64.5412 29.8183 64.4387 29.4183 64.2 29.1L63 27.5H63.2362C63.7846 27.4998 64.3177 27.3194 64.7534 26.9865C65.1891 26.6535 65.5033 26.1866 65.6475 25.6575L68.4475 15.395C68.5175 15.1363 68.5175 14.8637 68.4475 14.605ZM49.1462 5.5H62.8537L65.125 13.8162L56 15.475L46.875 13.8162L49.1462 5.5ZM47.0737 16.9013L54.5 18.25V24.5H49.1462L47.0737 16.9013ZM62.8537 24.5H57.5V18.25L64.9262 16.9L62.8537 24.5ZM50.5 11C50.5 10.6022 50.658 10.2206 50.9393 9.93934C51.2206 9.65804 51.6022 9.5 52 9.5H60C60.3978 9.5 60.7793 9.65804 61.0606 9.93934C61.342 10.2206 61.5 10.6022 61.5 11C61.5 11.3978 61.342 11.7794 61.0606 12.0607C60.7793 12.342 60.3978 12.5 60 12.5H52C51.6022 12.5 51.2206 12.342 50.9393 12.0607C50.658 11.7794 50.5 11.3978 50.5 11Z" fill="white"/>
</g>
<defs>
<clipPath id="clip0_27_6885">
<rect width="72" height="32" rx="5" fill="white"/>
</clipPath>
</defs>
</svg>
