<svg width="72" height="32" viewBox="0 0 72 32" fill="none" xmlns="http://www.w3.org/2000/svg">
<g clip-path="url(#clip0_27_760)">
<path d="M20 16.2362L21.8825 20H18.1175L18.9125 18.4125L20 16.2362ZM28 6V26C28 26.5304 27.7893 27.0391 27.4142 27.4142C27.0391 27.7893 26.5304 28 26 28H6C5.46957 28 4.96086 27.7893 4.58579 27.4142C4.21071 27.0391 4 26.5304 4 26V6C4 5.46957 4.21071 4.96086 4.58579 4.58579C4.96086 4.21071 5.46957 4 6 4H26C26.5304 4 27.0391 4.21071 27.4142 4.58579C27.7893 4.96086 28 5.46957 28 6ZM25.895 23.5525L20.895 13.5525C20.8121 13.3861 20.6844 13.2461 20.5263 13.1483C20.3682 13.0504 20.1859 12.9986 20 12.9986C19.8141 12.9986 19.6318 13.0504 19.4737 13.1483C19.3156 13.2461 19.1879 13.3861 19.105 13.5525L17.4575 16.85C16.3977 16.6424 15.3927 16.2168 14.5063 15.6C15.8879 14.0358 16.7428 12.0767 16.95 10H19C19.2652 10 19.5196 9.89464 19.7071 9.70711C19.8946 9.51957 20 9.26522 20 9C20 8.73478 19.8946 8.48043 19.7071 8.29289C19.5196 8.10536 19.2652 8 19 8H14V7C14 6.73478 13.8946 6.48043 13.7071 6.29289C13.5196 6.10536 13.2652 6 13 6C12.7348 6 12.4804 6.10536 12.2929 6.29289C12.1054 6.48043 12 6.73478 12 7V8H7C6.73478 8 6.48043 8.10536 6.29289 8.29289C6.10536 8.48043 6 8.73478 6 9C6 9.26522 6.10536 9.51957 6.29289 9.70711C6.48043 9.89464 6.73478 10 7 10H14.935C14.7366 11.5778 14.0705 13.0602 13.0225 14.2563C12.5785 13.7379 12.2006 13.1665 11.8975 12.555C11.7747 12.326 11.5675 12.1538 11.3199 12.0748C11.0723 11.9959 10.8037 12.0165 10.571 12.1322C10.3383 12.2479 10.1598 12.4496 10.0733 12.6947C9.98675 12.9397 9.99903 13.2088 10.1075 13.445C10.4902 14.2168 10.969 14.9371 11.5325 15.5887C10.2006 16.5096 8.61928 17.002 7 17C6.73478 17 6.48043 17.1054 6.29289 17.2929C6.10536 17.4804 6 17.7348 6 18C6 18.2652 6.10536 18.5196 6.29289 18.7071C6.48043 18.8946 6.73478 19 7 19C9.17092 19.0023 11.283 18.2942 13.0138 16.9837C14.061 17.7842 15.2591 18.365 16.5362 18.6912L14.105 23.5525C13.9863 23.7899 13.9668 24.0647 14.0507 24.3164C14.1346 24.5682 14.3151 24.7763 14.5525 24.895C14.7899 25.0137 15.0647 25.0332 15.3164 24.9493C15.5682 24.8654 15.7763 24.6849 15.895 24.4475L17.1175 22H22.8825L24.105 24.4475C24.1638 24.565 24.2451 24.6698 24.3444 24.7559C24.4437 24.842 24.5589 24.9077 24.6836 24.9493C24.8082 24.9908 24.9399 25.0074 25.0709 24.9981C25.202 24.9888 25.33 24.9538 25.4475 24.895C25.565 24.8362 25.6698 24.7549 25.7559 24.6556C25.842 24.5563 25.9077 24.4411 25.9493 24.3164C25.9908 24.1918 26.0074 24.0601 25.9981 23.9291C25.9888 23.798 25.9538 23.67 25.895 23.5525Z" fill="white"/>
<path d="M71.3412 26.3288L64.3412 12.3287C64.2166 12.0798 64.0251 11.8705 63.7882 11.7241C63.5513 11.5778 63.2784 11.5004 63 11.5004C62.7216 11.5004 62.4487 11.5778 62.2118 11.7241C61.9749 11.8705 61.7834 12.0798 61.6588 12.3287L59.0938 17.4538C57.3657 17.3027 55.7018 16.7269 54.25 15.7775C56.0142 13.7259 57.1178 11.1893 57.4163 8.5H60C60.3978 8.5 60.7794 8.34196 61.0607 8.06066C61.342 7.77936 61.5 7.39782 61.5 7C61.5 6.60218 61.342 6.22064 61.0607 5.93934C60.7794 5.65804 60.3978 5.5 60 5.5H53.5V4C53.5 3.60218 53.342 3.22064 53.0607 2.93934C52.7794 2.65804 52.3978 2.5 52 2.5C51.6022 2.5 51.2206 2.65804 50.9393 2.93934C50.658 3.22064 50.5 3.60218 50.5 4V5.5H44C43.6022 5.5 43.2206 5.65804 42.9393 5.93934C42.658 6.22064 42.5 6.60218 42.5 7C42.5 7.39782 42.658 7.77936 42.9393 8.06066C43.2206 8.34196 43.6022 8.5 44 8.5H54.3912C54.1099 10.4549 53.2808 12.2903 52 13.7937C51.375 13.0623 50.8534 12.2485 50.45 11.375C50.371 11.1913 50.256 11.0252 50.1119 10.8866C49.9678 10.748 49.7974 10.6396 49.6108 10.5677C49.4241 10.4959 49.225 10.4621 49.0251 10.4684C48.8253 10.4747 48.6287 10.5208 48.4469 10.6042C48.2651 10.6875 48.1018 10.8064 47.9666 10.9537C47.8315 11.1011 47.7271 11.274 47.6597 11.4623C47.5924 11.6506 47.5633 11.8504 47.5743 12.0501C47.5853 12.2498 47.6361 12.4452 47.7238 12.625C48.2485 13.7662 48.9305 14.8281 49.75 15.78C48.0429 16.9036 46.0437 17.5017 44 17.5C43.6022 17.5 43.2206 17.658 42.9393 17.9393C42.658 18.2206 42.5 18.6022 42.5 19C42.5 19.3978 42.658 19.7794 42.9393 20.0607C43.2206 20.342 43.6022 20.5 44 20.5C46.88 20.5023 49.6846 19.579 52 17.8662C53.6791 19.1019 55.6207 19.9335 57.6737 20.2962L54.6575 26.3288C54.5638 26.5055 54.5063 26.6991 54.4885 26.8984C54.4707 27.0976 54.493 27.2984 54.5539 27.4889C54.6149 27.6794 54.7133 27.8558 54.8435 28.0077C54.9736 28.1596 55.1328 28.2839 55.3117 28.3734C55.4907 28.4629 55.6856 28.5156 55.8853 28.5286C56.0849 28.5416 56.2851 28.5145 56.474 28.449C56.663 28.3834 56.837 28.2807 56.9857 28.147C57.1344 28.0132 57.2549 27.851 57.34 27.67L58.9263 24.5H67.0725L68.6575 27.67C68.8354 28.0259 69.1473 28.2965 69.5247 28.4224C69.9021 28.5483 70.3141 28.5191 70.67 28.3412C71.0259 28.1634 71.2965 27.8514 71.4224 27.474C71.5483 27.0966 71.5191 26.6846 71.3412 26.3288ZM60.4263 21.5L63 16.3538L65.5725 21.5H60.4263Z" fill="white"/>
</g>
<defs>
<clipPath id="clip0_27_760">
<rect width="72" height="32" rx="5" fill="white"/>
</clipPath>
</defs>
</svg>
