<svg width="72" height="32" viewBox="0 0 72 32" fill="none" xmlns="http://www.w3.org/2000/svg">
<g clip-path="url(#clip0_27_7556)">
<path d="M28 7C28 7.26522 27.8946 7.51957 27.7071 7.70711C27.5196 7.89464 27.2652 8 27 8H26V26C26 26.5304 25.7893 27.0391 25.4142 27.4142C25.0391 27.7893 24.5304 28 24 28H8C7.46957 28 6.96086 27.7893 6.58579 27.4142C6.21071 27.0391 6 26.5304 6 26V8H5C4.73478 8 4.48043 7.89464 4.29289 7.70711C4.10536 7.51957 4 7.26522 4 7C4 6.73478 4.10536 6.48043 4.29289 6.29289C4.48043 6.10536 4.73478 6 5 6H27C27.2652 6 27.5196 6.10536 27.7071 6.29289C27.8946 6.48043 28 6.73478 28 7ZM11 4H21C21.2652 4 21.5196 3.89464 21.7071 3.70711C21.8946 3.51957 22 3.26522 22 3C22 2.73478 21.8946 2.48043 21.7071 2.29289C21.5196 2.10536 21.2652 2 21 2H11C10.7348 2 10.4804 2.10536 10.2929 2.29289C10.1054 2.48043 10 2.73478 10 3C10 3.26522 10.1054 3.51957 10.2929 3.70711C10.4804 3.89464 10.7348 4 11 4Z" fill="white"/>
<path d="M67 6H45C44.6022 6 44.2206 6.15804 43.9393 6.43934C43.658 6.72064 43.5 7.10218 43.5 7.5C43.5 7.89782 43.658 8.27936 43.9393 8.56066C44.2206 8.84196 44.6022 9 45 9H45.5V26C45.5 26.663 45.7634 27.2989 46.2322 27.7678C46.7011 28.2366 47.337 28.5 48 28.5H64C64.663 28.5 65.2989 28.2366 65.7678 27.7678C66.2366 27.2989 66.5 26.663 66.5 26V9H67C67.3978 9 67.7794 8.84196 68.0607 8.56066C68.342 8.27936 68.5 7.89782 68.5 7.5C68.5 7.10218 68.342 6.72064 68.0607 6.43934C67.7794 6.15804 67.3978 6 67 6ZM63.5 25.5H48.5V9H63.5V25.5ZM49.5 2.5C49.5 2.10218 49.658 1.72064 49.9393 1.43934C50.2206 1.15804 50.6022 1 51 1H61C61.3978 1 61.7794 1.15804 62.0607 1.43934C62.342 1.72064 62.5 2.10218 62.5 2.5C62.5 2.89782 62.342 3.27936 62.0607 3.56066C61.7794 3.84196 61.3978 4 61 4H51C50.6022 4 50.2206 3.84196 49.9393 3.56066C49.658 3.27936 49.5 2.89782 49.5 2.5Z" fill="white"/>
</g>
<defs>
<clipPath id="clip0_27_7556">
<rect width="72" height="32" rx="5" fill="white"/>
</clipPath>
</defs>
</svg>
