<svg width="72" height="32" viewBox="0 0 72 32" fill="none" xmlns="http://www.w3.org/2000/svg">
<g clip-path="url(#clip0_27_7551)">
<path d="M27 6H22V5C22 4.20435 21.6839 3.44129 21.1213 2.87868C20.5587 2.31607 19.7956 2 19 2H13C12.2044 2 11.4413 2.31607 10.8787 2.87868C10.3161 3.44129 10 4.20435 10 5V6H5C4.73478 6 4.48043 6.10536 4.29289 6.29289C4.10536 6.48043 4 6.73478 4 7C4 7.26522 4.10536 7.51957 4.29289 7.70711C4.48043 7.89464 4.73478 8 5 8H6V26C6 26.5304 6.21071 27.0391 6.58579 27.4142C6.96086 27.7893 7.46957 28 8 28H24C24.5304 28 25.0391 27.7893 25.4142 27.4142C25.7893 27.0391 26 26.5304 26 26V8H27C27.2652 8 27.5196 7.89464 27.7071 7.70711C27.8946 7.51957 28 7.26522 28 7C28 6.73478 27.8946 6.48043 27.7071 6.29289C27.5196 6.10536 27.2652 6 27 6ZM14 21C14 21.2652 13.8946 21.5196 13.7071 21.7071C13.5196 21.8946 13.2652 22 13 22C12.7348 22 12.4804 21.8946 12.2929 21.7071C12.1054 21.5196 12 21.2652 12 21V13C12 12.7348 12.1054 12.4804 12.2929 12.2929C12.4804 12.1054 12.7348 12 13 12C13.2652 12 13.5196 12.1054 13.7071 12.2929C13.8946 12.4804 14 12.7348 14 13V21ZM20 21C20 21.2652 19.8946 21.5196 19.7071 21.7071C19.5196 21.8946 19.2652 22 19 22C18.7348 22 18.4804 21.8946 18.2929 21.7071C18.1054 21.5196 18 21.2652 18 21V13C18 12.7348 18.1054 12.4804 18.2929 12.2929C18.4804 12.1054 18.7348 12 19 12C19.2652 12 19.5196 12.1054 19.7071 12.2929C19.8946 12.4804 20 12.7348 20 13V21ZM20 6H12V5C12 4.73478 12.1054 4.48043 12.2929 4.29289C12.4804 4.10536 12.7348 4 13 4H19C19.2652 4 19.5196 4.10536 19.7071 4.29289C19.8946 4.48043 20 4.73478 20 5V6Z" fill="white"/>
<path d="M67 6H62.5V4.5C62.5 3.57174 62.1313 2.6815 61.4749 2.02513C60.8185 1.36875 59.9283 1 59 1H53C52.0717 1 51.1815 1.36875 50.5251 2.02513C49.8687 2.6815 49.5 3.57174 49.5 4.5V6H45C44.6022 6 44.2206 6.15804 43.9393 6.43934C43.658 6.72064 43.5 7.10218 43.5 7.5C43.5 7.89782 43.658 8.27936 43.9393 8.56066C44.2206 8.84196 44.6022 9 45 9H45.5V26C45.5 26.663 45.7634 27.2989 46.2322 27.7678C46.7011 28.2366 47.337 28.5 48 28.5H64C64.663 28.5 65.2989 28.2366 65.7678 27.7678C66.2366 27.2989 66.5 26.663 66.5 26V9H67C67.3978 9 67.7794 8.84196 68.0607 8.56066C68.342 8.27936 68.5 7.89782 68.5 7.5C68.5 7.10218 68.342 6.72064 68.0607 6.43934C67.7794 6.15804 67.3978 6 67 6ZM52.5 4.5C52.5 4.36739 52.5527 4.24021 52.6464 4.14645C52.7402 4.05268 52.8674 4 53 4H59C59.1326 4 59.2598 4.05268 59.3536 4.14645C59.4473 4.24021 59.5 4.36739 59.5 4.5V6H52.5V4.5ZM63.5 25.5H48.5V9H63.5V25.5ZM54.5 13V21C54.5 21.3978 54.342 21.7794 54.0607 22.0607C53.7794 22.342 53.3978 22.5 53 22.5C52.6022 22.5 52.2206 22.342 51.9393 22.0607C51.658 21.7794 51.5 21.3978 51.5 21V13C51.5 12.6022 51.658 12.2206 51.9393 11.9393C52.2206 11.658 52.6022 11.5 53 11.5C53.3978 11.5 53.7794 11.658 54.0607 11.9393C54.342 12.2206 54.5 12.6022 54.5 13ZM60.5 13V21C60.5 21.3978 60.342 21.7794 60.0607 22.0607C59.7794 22.342 59.3978 22.5 59 22.5C58.6022 22.5 58.2206 22.342 57.9393 22.0607C57.658 21.7794 57.5 21.3978 57.5 21V13C57.5 12.6022 57.658 12.2206 57.9393 11.9393C58.2206 11.658 58.6022 11.5 59 11.5C59.3978 11.5 59.7794 11.658 60.0607 11.9393C60.342 12.2206 60.5 12.6022 60.5 13Z" fill="white"/>
</g>
<defs>
<clipPath id="clip0_27_7551">
<rect width="72" height="32" rx="5" fill="white"/>
</clipPath>
</defs>
</svg>
