<svg width="72" height="32" viewBox="0 0 72 32" fill="none" xmlns="http://www.w3.org/2000/svg">
<g clip-path="url(#clip0_27_7566)">
<path d="M26 4H6C5.46957 4 4.96086 4.21071 4.58579 4.58579C4.21071 4.96086 4 5.46957 4 6V26C4 26.5304 4.21071 27.0391 4.58579 27.4142C4.96086 27.7893 5.46957 28 6 28H26C26.5304 28 27.0391 27.7893 27.4142 27.4142C27.7893 27.0391 28 26.5304 28 26V6C28 5.46957 27.7893 4.96086 27.4142 4.58579C27.0391 4.21071 26.5304 4 26 4ZM11.2925 14.2925C11.3854 14.1995 11.4957 14.1258 11.6171 14.0754C11.7385 14.0251 11.8686 13.9992 12 13.9992C12.1314 13.9992 12.2615 14.0251 12.3829 14.0754C12.5043 14.1258 12.6146 14.1995 12.7075 14.2925L15 16.5863V9C15 8.73478 15.1054 8.48043 15.2929 8.29289C15.4804 8.10536 15.7348 8 16 8C16.2652 8 16.5196 8.10536 16.7071 8.29289C16.8946 8.48043 17 8.73478 17 9V16.5863L19.2925 14.2925C19.3854 14.1996 19.4957 14.1259 19.6171 14.0756C19.7385 14.0253 19.8686 13.9994 20 13.9994C20.1314 13.9994 20.2615 14.0253 20.3829 14.0756C20.5043 14.1259 20.6146 14.1996 20.7075 14.2925C20.8004 14.3854 20.8741 14.4957 20.9244 14.6171C20.9747 14.7385 21.0006 14.8686 21.0006 15C21.0006 15.1314 20.9747 15.2615 20.9244 15.3829C20.8741 15.5043 20.8004 15.6146 20.7075 15.7075L16.7075 19.7075C16.6146 19.8005 16.5043 19.8742 16.3829 19.9246C16.2615 19.9749 16.1314 20.0008 16 20.0008C15.8686 20.0008 15.7385 19.9749 15.6171 19.9246C15.4957 19.8742 15.3854 19.8005 15.2925 19.7075L11.2925 15.7075C11.1995 15.6146 11.1258 15.5043 11.0754 15.3829C11.0251 15.2615 10.9992 15.1314 10.9992 15C10.9992 14.8686 11.0251 14.7385 11.0754 14.6171C11.1258 14.4957 11.1995 14.3854 11.2925 14.2925ZM26 26H6V21H9.58625L12 23.415C12.1853 23.6011 12.4056 23.7487 12.6483 23.8491C12.891 23.9495 13.1511 24.0008 13.4137 24H18.5863C18.849 24.0008 19.1093 23.9494 19.352 23.8488C19.5947 23.7482 19.815 23.6003 20 23.4137L22.4137 21H26V26Z" fill="white"/>
<path d="M66 3.5H46C45.337 3.5 44.7011 3.76339 44.2322 4.23223C43.7634 4.70107 43.5 5.33696 43.5 6V26C43.5 26.663 43.7634 27.2989 44.2322 27.7678C44.7011 28.2366 45.337 28.5 46 28.5H66C66.663 28.5 67.2989 28.2366 67.7678 27.7678C68.2366 27.2989 68.5 26.663 68.5 26V6C68.5 5.33696 68.2366 4.70107 67.7678 4.23223C67.2989 3.76339 66.663 3.5 66 3.5ZM65.5 6.5V18H62.4137C62.0853 17.9991 61.76 18.0634 61.4566 18.1891C61.1532 18.3149 60.8778 18.4996 60.6462 18.7325L58.375 21H53.625L51.3538 18.7325C51.1222 18.4996 50.8468 18.3149 50.5434 18.1891C50.24 18.0634 49.9147 17.9991 49.5863 18H46.5V6.5H65.5ZM46.5 25.5V21H49.375L51.6425 23.2675C51.8745 23.5009 52.1505 23.6858 52.4546 23.8116C52.7587 23.9373 53.0847 24.0014 53.4137 24H58.5863C58.9147 24.0009 59.24 23.9366 59.5434 23.8109C59.8468 23.6851 60.1222 23.5004 60.3538 23.2675L62.625 21H65.5V25.5H46.5ZM50.9388 14.5612C50.657 14.2795 50.4986 13.8973 50.4986 13.4987C50.4986 13.1002 50.657 12.718 50.9388 12.4362C51.2205 12.1545 51.6027 11.9961 52.0013 11.9961C52.3998 11.9961 52.782 12.1545 53.0638 12.4362L54.5 13.875V9.5C54.5 9.10218 54.658 8.72064 54.9393 8.43934C55.2206 8.15804 55.6022 8 56 8C56.3978 8 56.7794 8.15804 57.0607 8.43934C57.342 8.72064 57.5 9.10218 57.5 9.5V13.875L58.9387 12.435C59.2205 12.1532 59.6027 11.9949 60.0012 11.9949C60.3998 11.9949 60.782 12.1532 61.0637 12.435C61.3455 12.7168 61.5039 13.099 61.5039 13.4975C61.5039 13.896 61.3455 14.2782 61.0637 14.56L57.0637 18.56C56.9244 18.6998 56.7588 18.8108 56.5765 18.8865C56.3941 18.9622 56.1987 19.0012 56.0012 19.0012C55.8038 19.0012 55.6083 18.9622 55.426 18.8865C55.2437 18.8108 55.0781 18.6998 54.9388 18.56L50.9388 14.5612Z" fill="white"/>
</g>
<defs>
<clipPath id="clip0_27_7566">
<rect width="72" height="32" rx="5" fill="white"/>
</clipPath>
</defs>
</svg>
