<svg width="72" height="32" viewBox="0 0 72 32" fill="none" xmlns="http://www.w3.org/2000/svg">
<g clip-path="url(#clip0_27_4890)">
<path d="M30 15.5V24C30 24.5304 29.7893 25.0391 29.4142 25.4142C29.0391 25.7893 28.5304 26 28 26H4C3.46957 26 2.96086 25.7893 2.58579 25.4142C2.21071 25.0391 2 24.5304 2 24V15.5C2 15.3674 2.05268 15.2402 2.14645 15.1464C2.24021 15.0527 2.36739 15 2.5 15H7V23C6.9997 23.1371 7.02759 23.2728 7.08193 23.3986C7.13628 23.5245 7.21592 23.6378 7.31591 23.7316C7.41591 23.8254 7.53411 23.8976 7.66319 23.9438C7.79227 23.9899 7.92946 24.0091 8.06625 24C8.32383 23.9779 8.56344 23.8589 8.73674 23.667C8.91003 23.4752 9.00411 23.2247 9 22.9662V15H14V17.5C14 17.6326 14.0527 17.7598 14.1464 17.8536C14.2402 17.9473 14.3674 18 14.5 18H17.5C17.6326 18 17.7598 17.9473 17.8536 17.8536C17.9473 17.7598 18 17.6326 18 17.5V15H23V23C22.9997 23.1371 23.0276 23.2728 23.0819 23.3986C23.1363 23.5245 23.2159 23.6378 23.3159 23.7316C23.4159 23.8254 23.5341 23.8976 23.6632 23.9438C23.7923 23.9899 23.9295 24.0091 24.0662 24C24.3234 23.9779 24.5626 23.8593 24.7359 23.668C24.9091 23.4766 25.0035 23.2268 25 22.9688V15H29.5C29.6326 15 29.7598 15.0527 29.8536 15.1464C29.9473 15.2402 30 15.3674 30 15.5ZM23 5H9C7.14348 5 5.36301 5.7375 4.05025 7.05025C2.7375 8.36301 2 10.1435 2 12V12.5C2 12.6326 2.05268 12.7598 2.14645 12.8536C2.24021 12.9473 2.36739 13 2.5 13H7V8.03375C6.99589 7.77525 7.08997 7.52481 7.26326 7.33296C7.43656 7.14111 7.67617 7.02212 7.93375 7C8.07054 6.99092 8.20773 7.01006 8.33681 7.05623C8.46589 7.1024 8.58409 7.17462 8.68409 7.2684C8.78408 7.36218 8.86372 7.47552 8.91807 7.60137C8.97241 7.72723 9.0003 7.86291 9 8V13H14V11.5C14 11.3674 14.0527 11.2402 14.1464 11.1464C14.2402 11.0527 14.3674 11 14.5 11H17.5C17.6326 11 17.7598 11.0527 17.8536 11.1464C17.9473 11.2402 18 11.3674 18 11.5V13H23V8.03375C22.9959 7.77525 23.09 7.52481 23.2633 7.33296C23.4366 7.14111 23.6762 7.02212 23.9338 7C24.0705 6.99092 24.2077 7.01006 24.3368 7.05623C24.4659 7.1024 24.5841 7.17462 24.6841 7.2684C24.7841 7.36218 24.8637 7.47552 24.9181 7.60137C24.9724 7.72723 25.0003 7.86291 25 8V13H29.5C29.6326 13 29.7598 12.9473 29.8536 12.8536C29.9473 12.7598 30 12.6326 30 12.5V12C30 10.1435 29.2625 8.36301 27.9497 7.05025C26.637 5.7375 24.8565 5 23 5Z" fill="white"/>
<path d="M63 4.5H49C47.0116 4.50232 45.1053 5.29324 43.6993 6.69926C42.2932 8.10528 41.5023 10.0116 41.5 12V24C41.5 24.663 41.7634 25.2989 42.2322 25.7678C42.7011 26.2366 43.337 26.5 44 26.5H68C68.663 26.5 69.2989 26.2366 69.7678 25.7678C70.2366 25.2989 70.5 24.663 70.5 24V12C70.4977 10.0116 69.7068 8.10528 68.3007 6.69926C66.8947 5.29324 64.9884 4.50232 63 4.5ZM67.5 12V12.5H64V7.61375C64.9934 7.84133 65.8804 8.39896 66.5161 9.19559C67.1517 9.99223 67.4986 10.9808 67.5 12ZM56 19.5C56.3978 19.5 56.7794 19.342 57.0607 19.0607C57.342 18.7794 57.5 18.3978 57.5 18V15.5H61V23.5H51V15.5H54.5V18C54.5 18.3978 54.658 18.7794 54.9393 19.0607C55.2206 19.342 55.6022 19.5 56 19.5ZM57.5 12.5V12C57.5 11.6022 57.342 11.2206 57.0607 10.9393C56.7794 10.658 56.3978 10.5 56 10.5C55.6022 10.5 55.2206 10.658 54.9393 10.9393C54.658 11.2206 54.5 11.6022 54.5 12V12.5H51V7.5H61V12.5H57.5ZM48 7.61375V12.5H44.5V12C44.5014 10.9808 44.8483 9.99223 45.4839 9.19559C46.1196 8.39896 47.0066 7.84133 48 7.61375ZM44.5 15.5H48V23.5H44.5V15.5ZM64 23.5V15.5H67.5V23.5H64Z" fill="white"/>
</g>
<defs>
<clipPath id="clip0_27_4890">
<rect width="72" height="32" rx="5" fill="white"/>
</clipPath>
</defs>
</svg>
