<svg width="72" height="32" viewBox="0 0 72 32" fill="none" xmlns="http://www.w3.org/2000/svg">
<g clip-path="url(#clip0_27_2329)">
<path d="M28.899 24.4388C28.8168 24.6071 28.6889 24.749 28.53 24.8482C28.3711 24.9474 28.1876 25 28.0002 25H17.0002V30C17.0002 30.2652 16.8949 30.5196 16.7073 30.7071C16.5198 30.8946 16.2654 31 16.0002 31C15.735 31 15.4807 30.8946 15.2931 30.7071C15.1056 30.5196 15.0002 30.2652 15.0002 30V25H4.00023C3.81311 24.9999 3.62978 24.9472 3.47109 24.8481C3.3124 24.7489 3.18472 24.6072 3.10255 24.4391C3.02038 24.271 2.98703 24.0832 3.00629 23.8971C3.02554 23.711 3.09663 23.534 3.21148 23.3863L8.96148 16H6.00023C5.81344 16 5.63038 15.9477 5.47179 15.849C5.3132 15.7504 5.18542 15.6092 5.10293 15.4416C5.02044 15.2741 4.98654 15.0867 5.00506 14.9008C5.02358 14.715 5.09379 14.538 5.20773 14.39L15.2077 1.39001C15.3011 1.26863 15.4212 1.17034 15.5586 1.1027C15.696 1.03505 15.8471 0.999878 16.0002 0.999878C16.1534 0.999878 16.3045 1.03505 16.4419 1.1027C16.5793 1.17034 16.6993 1.26863 16.7927 1.39001L26.7927 14.39C26.9067 14.538 26.9769 14.715 26.9954 14.9008C27.0139 15.0867 26.98 15.2741 26.8975 15.4416C26.815 15.6092 26.6873 15.7504 26.5287 15.849C26.3701 15.9477 26.187 16 26.0002 16H23.0452L28.789 23.3863C28.9039 23.5338 28.9752 23.7107 28.9946 23.8968C29.0141 24.0828 28.9809 24.2706 28.899 24.4388Z" fill="white"/>
<path d="M69.1837 23.0788L64.0675 16.5H66C66.2802 16.5 66.5548 16.4216 66.7926 16.2736C67.0305 16.1255 67.2222 15.9138 67.3459 15.6625C67.4697 15.4111 67.5205 15.1301 67.4927 14.8513C67.465 14.5725 67.3596 14.307 67.1887 14.085L57.1887 1.085C57.0486 0.903411 56.8687 0.756377 56.6628 0.655209C56.4569 0.554041 56.2306 0.501434 56.0012 0.501434C55.7719 0.501434 55.5455 0.554041 55.3397 0.655209C55.1338 0.756377 54.9539 0.903411 54.8137 1.085L44.8137 14.085C44.643 14.3069 44.5377 14.5721 44.5098 14.8506C44.4819 15.1292 44.5326 15.41 44.656 15.6613C44.7794 15.9126 44.9707 16.1244 45.2082 16.2726C45.4458 16.4208 45.72 16.4996 46 16.5H47.9325L42.8162 23.0788C42.6438 23.3004 42.537 23.566 42.508 23.8453C42.479 24.1247 42.5291 24.4065 42.6524 24.6588C42.7758 24.9111 42.9675 25.1237 43.2057 25.2724C43.4439 25.4212 43.7191 25.5 44 25.5H54.5V30C54.5 30.3978 54.658 30.7794 54.9393 31.0607C55.2206 31.342 55.6022 31.5 56 31.5C56.3978 31.5 56.7793 31.342 57.0606 31.0607C57.342 30.7794 57.5 30.3978 57.5 30V25.5H68C68.2808 25.5 68.556 25.4212 68.7943 25.2724C69.0325 25.1237 69.2242 24.9111 69.3475 24.6588C69.4709 24.4065 69.5209 24.1247 69.492 23.8453C69.463 23.566 69.3562 23.3004 69.1837 23.0788ZM47.0675 22.5L52.1837 15.9213C52.3562 15.6996 52.463 15.434 52.492 15.1547C52.5209 14.8753 52.4709 14.5935 52.3475 14.3412C52.2242 14.0889 52.0325 13.8763 51.7943 13.7276C51.556 13.5789 51.2808 13.5 51 13.5H49.0462L56 4.46L62.9537 13.5H61C60.7191 13.5 60.4439 13.5789 60.2057 13.7276C59.9675 13.8763 59.7758 14.0889 59.6524 14.3412C59.5291 14.5935 59.479 14.8753 59.508 15.1547C59.537 15.434 59.6438 15.6996 59.8162 15.9213L64.9325 22.5H47.0675Z" fill="white"/>
</g>
<defs>
<clipPath id="clip0_27_2329">
<rect width="72" height="32" rx="5" fill="white"/>
</clipPath>
</defs>
</svg>
