<svg width="72" height="32" viewBox="0 0 72 32" fill="none" xmlns="http://www.w3.org/2000/svg">
<g clip-path="url(#clip0_27_3613)">
<path d="M18 12V10H16C15.7348 10 15.4804 10.1054 15.2929 10.2929C15.1054 10.4804 15 10.7348 15 11V21C15 21.2652 15.1054 21.5196 15.2929 21.7071C15.4804 21.8946 15.7348 22 16 22H18V20C18 19.4696 18.2107 18.9609 18.5858 18.5858C18.9609 18.2107 19.4696 18 20 18H26C26.5304 18 27.0391 18.2107 27.4142 18.5858C27.7893 18.9609 28 19.4696 28 20V26C28 26.5304 27.7893 27.0391 27.4142 27.4142C27.0391 27.7893 26.5304 28 26 28H20C19.4696 28 18.9609 27.7893 18.5858 27.4142C18.2107 27.0391 18 26.5304 18 26V24H16C15.2044 24 14.4413 23.6839 13.8787 23.1213C13.3161 22.5587 13 21.7956 13 21V17H9V18C9 18.5304 8.78929 19.0391 8.41421 19.4142C8.03914 19.7893 7.53043 20 7 20H3C2.46957 20 1.96086 19.7893 1.58579 19.4142C1.21071 19.0391 1 18.5304 1 18V14C1 13.4696 1.21071 12.9609 1.58579 12.5858C1.96086 12.2107 2.46957 12 3 12H7C7.53043 12 8.03914 12.2107 8.41421 12.5858C8.78929 12.9609 9 13.4696 9 14V15H13V11C13 10.2044 13.3161 9.44129 13.8787 8.87868C14.4413 8.31607 15.2044 8 16 8H18V6C18 5.46957 18.2107 4.96086 18.5858 4.58579C18.9609 4.21071 19.4696 4 20 4H26C26.5304 4 27.0391 4.21071 27.4142 4.58579C27.7893 4.96086 28 5.46957 28 6V12C28 12.5304 27.7893 13.0391 27.4142 13.4142C27.0391 13.7893 26.5304 14 26 14H20C19.4696 14 18.9609 13.7893 18.5858 13.4142C18.2107 13.0391 18 12.5304 18 12Z" fill="white"/>
<path d="M60 14.5H66C66.663 14.5 67.2989 14.2366 67.7678 13.7678C68.2366 13.2989 68.5 12.663 68.5 12V6C68.5 5.33696 68.2366 4.70107 67.7678 4.23223C67.2989 3.76339 66.663 3.5 66 3.5H60C59.337 3.5 58.7011 3.76339 58.2322 4.23223C57.7634 4.70107 57.5 5.33696 57.5 6V7.5H56C55.0717 7.5 54.1815 7.86875 53.5251 8.52513C52.8687 9.1815 52.5 10.0717 52.5 11V14.5H49.5V14C49.5 13.337 49.2366 12.7011 48.7678 12.2322C48.2989 11.7634 47.663 11.5 47 11.5H43C42.6717 11.5 42.3466 11.5647 42.0433 11.6903C41.74 11.8159 41.4644 12.0001 41.2322 12.2322C40.7634 12.7011 40.5 13.337 40.5 14V18C40.5 18.3283 40.5647 18.6534 40.6903 18.9567C40.8159 19.26 41.0001 19.5356 41.2322 19.7678C41.4644 19.9999 41.74 20.1841 42.0433 20.3097C42.3466 20.4353 42.6717 20.5 43 20.5H47C47.3283 20.5 47.6534 20.4353 47.9567 20.3097C48.26 20.1841 48.5356 19.9999 48.7678 19.7678C48.9999 19.5356 49.1841 19.26 49.3097 18.9567C49.4353 18.6534 49.5 18.3283 49.5 18V17.5H52.5V21C52.5 21.9283 52.8687 22.8185 53.5251 23.4749C54.1815 24.1313 55.0717 24.5 56 24.5H57.5V26C57.5 26.663 57.7634 27.2989 58.2322 27.7678C58.7011 28.2366 59.337 28.5 60 28.5H66C66.663 28.5 67.2989 28.2366 67.7678 27.7678C68.2366 27.2989 68.5 26.663 68.5 26V20C68.5 19.337 68.2366 18.7011 67.7678 18.2322C67.2989 17.7634 66.663 17.5 66 17.5H60C59.337 17.5 58.7011 17.7634 58.2322 18.2322C57.7634 18.7011 57.5 19.337 57.5 20V21.5H56C55.8674 21.5 55.7402 21.4473 55.6464 21.3536C55.5527 21.2598 55.5 21.1326 55.5 21V11C55.5 10.8674 55.5527 10.7402 55.6464 10.6464C55.7402 10.5527 55.8674 10.5 56 10.5H57.5V12C57.5 12.663 57.7634 13.2989 58.2322 13.7678C58.7011 14.2366 59.337 14.5 60 14.5ZM46.5 17.5H43.5V14.5H46.5V17.5ZM60.5 20.5H65.5V25.5H60.5V20.5ZM60.5 6.5H65.5V11.5H60.5V6.5Z" fill="white"/>
</g>
<defs>
<clipPath id="clip0_27_3613">
<rect width="72" height="32" rx="5" fill="white"/>
</clipPath>
</defs>
</svg>
