<svg width="72" height="32" viewBox="0 0 72 32" fill="none" xmlns="http://www.w3.org/2000/svg">
<g clip-path="url(#clip0_27_2324)">
<path d="M16 23.4813C16.3207 23.6948 16.6547 23.8877 17 24.0588V29C17 29.2652 16.8947 29.5196 16.7071 29.7071C16.5196 29.8946 16.2652 30 16 30C15.7348 30 15.4805 29.8946 15.2929 29.7071C15.1054 29.5196 15 29.2652 15 29V24.0588C15.3453 23.8877 15.6793 23.6948 16 23.4813ZM24.7625 7.82376C24.0391 6.09656 22.8214 4.62168 21.2624 3.5844C19.7034 2.54712 17.8726 1.99371 16 1.99371C14.1275 1.99371 12.2967 2.54712 10.7376 3.5844C9.17862 4.62168 7.96092 6.09656 7.23753 7.82376C5.67529 8.5378 4.3511 9.68568 3.42258 11.1308C2.49405 12.5759 2.00028 14.2573 2.00003 15.975C1.98753 20.75 6.00003 24.875 10.7675 25C12.2339 25.0348 13.6866 24.7117 15 24.0588V19.6175L9.55253 16.895C9.31516 16.7763 9.13466 16.5682 9.05074 16.3164C8.96682 16.0647 8.98634 15.7899 9.10503 15.5525C9.22371 15.3151 9.43183 15.1346 9.6836 15.0507C9.93537 14.9668 10.2102 14.9863 10.4475 15.105L15 17.3825V11C15 10.7348 15.1054 10.4804 15.2929 10.2929C15.4805 10.1054 15.7348 10 16 10C16.2652 10 16.5196 10.1054 16.7071 10.2929C16.8947 10.4804 17 10.7348 17 11V14.3825L21.5525 12.105C21.6701 12.0462 21.798 12.0112 21.9291 12.0019C22.0602 11.9926 22.1918 12.0092 22.3165 12.0507C22.4411 12.0923 22.5564 12.158 22.6556 12.2441C22.7549 12.3302 22.8363 12.435 22.895 12.5525C22.9538 12.67 22.9888 12.798 22.9982 12.9291C23.0075 13.0601 22.9909 13.1918 22.9493 13.3164C22.9078 13.4411 22.8421 13.5564 22.756 13.6556C22.6699 13.7549 22.5651 13.8362 22.4475 13.895L17 16.6175V24.0588C18.2432 24.676 19.612 24.9981 21 25H21.2275C26 24.875 30.0138 20.75 30 15.975C29.9998 14.2573 29.506 12.5759 28.5775 11.1308C27.649 9.68568 26.3248 8.5378 24.7625 7.82376Z" fill="white"/>
<path d="M65.1465 7.45251C64.363 5.68018 63.0815 4.17364 61.4578 3.1161C59.834 2.05855 57.938 1.49554 56.0002 1.49554C54.0625 1.49554 52.1664 2.05855 50.5427 3.1161C48.9189 4.17364 47.6374 5.68018 46.854 7.45251C44.6551 8.53324 42.9589 10.4217 42.1194 12.7235C41.28 15.0253 41.3623 17.5624 42.3492 19.8049C43.336 22.0474 45.1512 23.822 47.4154 24.7579C49.6797 25.6938 52.218 25.7188 54.5002 24.8275V29C54.5002 29.3978 54.6583 29.7794 54.9396 30.0607C55.2209 30.342 55.6024 30.5 56.0002 30.5C56.3981 30.5 56.7796 30.342 57.0609 30.0607C57.3422 29.7794 57.5002 29.3978 57.5002 29V24.83C58.6144 25.2714 59.8018 25.4987 61.0002 25.5H61.2402C63.3699 25.4476 65.4202 24.6808 67.0617 23.3229C68.7032 21.965 69.8406 20.0947 70.2913 18.0126C70.742 15.9304 70.4797 13.7572 69.5467 11.8421C68.6136 9.9269 67.0639 8.38094 65.1465 7.45251ZM61.169 22.5C59.871 22.532 58.5932 22.1746 57.5002 21.4738V16.9275L62.6715 14.3413C62.8505 14.2549 63.0106 14.1337 63.1425 13.9849C63.2743 13.8361 63.3752 13.6626 63.4394 13.4744C63.5036 13.2862 63.5297 13.0872 63.5162 12.8888C63.5028 12.6905 63.45 12.4968 63.3611 12.319C63.2721 12.1412 63.1486 11.9829 62.9979 11.8532C62.8472 11.7235 62.6722 11.6251 62.4832 11.5637C62.2941 11.5023 62.0947 11.479 61.8965 11.4954C61.6984 11.5117 61.5055 11.5672 61.329 11.6588L57.5002 13.5725V11C57.5002 10.6022 57.3422 10.2207 57.0609 9.93935C56.7796 9.65805 56.3981 9.50001 56.0002 9.50001C55.6024 9.50001 55.2209 9.65805 54.9396 9.93935C54.6583 10.2207 54.5002 10.6022 54.5002 11V16.5725L50.6715 14.6588C50.3166 14.4875 49.9085 14.4628 49.5356 14.59C49.1626 14.7172 48.8546 14.986 48.6783 15.3384C48.5019 15.6908 48.4713 16.0984 48.5931 16.4732C48.7148 16.848 48.9792 17.1598 49.329 17.3413L54.5002 19.9275V21.4738C53.4065 22.1729 52.1292 22.5302 50.8315 22.5C47.3902 22.4138 44.4915 19.43 44.5002 15.9838C44.5008 14.6889 44.8894 13.424 45.616 12.3522C46.3426 11.2805 47.3738 10.4511 48.5765 9.97126C48.7711 9.8928 48.9471 9.77439 49.0931 9.62367C49.239 9.47295 49.3518 9.29327 49.424 9.09626C49.9159 7.74743 50.8107 6.5825 51.9871 5.75939C53.1635 4.93627 54.5645 4.49479 56.0002 4.49479C57.436 4.49479 58.837 4.93627 60.0134 5.75939C61.1897 6.5825 62.0845 7.74743 62.5765 9.09626C62.6487 9.29327 62.7614 9.47295 62.9074 9.62367C63.0534 9.77439 63.2294 9.8928 63.424 9.97126C64.6262 10.451 65.6572 11.2799 66.3837 12.3512C67.1103 13.4224 67.4992 14.6868 67.5002 15.9813C67.5102 19.4263 64.6102 22.4113 61.169 22.5Z" fill="white"/>
</g>
<defs>
<clipPath id="clip0_27_2324">
<rect width="72" height="32" rx="5" fill="white"/>
</clipPath>
</defs>
</svg>
