<svg width="72" height="32" viewBox="0 0 72 32" fill="none" xmlns="http://www.w3.org/2000/svg">
<g clip-path="url(#clip0_27_3081)">
<path d="M20 17V16H11V24C11 24.2652 11.1054 24.5196 11.2929 24.7071C11.4804 24.8946 11.7348 25 12 25H20V24C20 23.4696 20.2107 22.9609 20.5858 22.5858C20.9609 22.2107 21.4696 22 22 22H26C26.5304 22 27.0391 22.2107 27.4142 22.5858C27.7893 22.9609 28 23.4696 28 24V28C28 28.5304 27.7893 29.0391 27.4142 29.4142C27.0391 29.7893 26.5304 30 26 30H22C21.4696 30 20.9609 29.7893 20.5858 29.4142C20.2107 29.0391 20 28.5304 20 28V27H12C11.2044 27 10.4413 26.6839 9.87868 26.1213C9.31607 25.5587 9 24.7956 9 24V10H8C7.46957 10 6.96086 9.78929 6.58579 9.41421C6.21071 9.03914 6 8.53043 6 8V4C6 3.46957 6.21071 2.96086 6.58579 2.58579C6.96086 2.21071 7.46957 2 8 2H12C12.5304 2 13.0391 2.21071 13.4142 2.58579C13.7893 2.96086 14 3.46957 14 4V8C14 8.53043 13.7893 9.03914 13.4142 9.41421C13.0391 9.78929 12.5304 10 12 10H11V14H20V13C20 12.4696 20.2107 11.9609 20.5858 11.5858C20.9609 11.2107 21.4696 11 22 11H26C26.5304 11 27.0391 11.2107 27.4142 11.5858C27.7893 11.9609 28 12.4696 28 13V17C28 17.5304 27.7893 18.0391 27.4142 18.4142C27.0391 18.7893 26.5304 19 26 19H22C21.4696 19 20.9609 18.7893 20.5858 18.4142C20.2107 18.0391 20 17.5304 20 17Z" fill="white"/>
<path d="M62 19.5H66C66.663 19.5 67.2989 19.2366 67.7678 18.7678C68.2366 18.2989 68.5 17.663 68.5 17V13C68.5 12.337 68.2366 11.7011 67.7678 11.2322C67.2989 10.7634 66.663 10.5 66 10.5H62C61.337 10.5 60.7011 10.7634 60.2322 11.2322C59.7634 11.7011 59.5 12.337 59.5 13V13.5H51.5V10.5H52C52.663 10.5 53.2989 10.2366 53.7678 9.76777C54.2366 9.29893 54.5 8.66304 54.5 8V4C54.5 3.33696 54.2366 2.70107 53.7678 2.23223C53.2989 1.76339 52.663 1.5 52 1.5H48C47.337 1.5 46.7011 1.76339 46.2322 2.23223C45.7634 2.70107 45.5 3.33696 45.5 4V8C45.5 8.66304 45.7634 9.29893 46.2322 9.76777C46.7011 10.2366 47.337 10.5 48 10.5H48.5V24C48.5 24.9283 48.8687 25.8185 49.5251 26.4749C50.1815 27.1313 51.0717 27.5 52 27.5H59.5V28C59.5 28.663 59.7634 29.2989 60.2322 29.7678C60.7011 30.2366 61.337 30.5 62 30.5H66C66.663 30.5 67.2989 30.2366 67.7678 29.7678C68.2366 29.2989 68.5 28.663 68.5 28V24C68.5 23.337 68.2366 22.7011 67.7678 22.2322C67.2989 21.7634 66.663 21.5 66 21.5H62C61.337 21.5 60.7011 21.7634 60.2322 22.2322C59.7634 22.7011 59.5 23.337 59.5 24V24.5H52C51.8674 24.5 51.7402 24.4473 51.6464 24.3536C51.5527 24.2598 51.5 24.1326 51.5 24V16.5H59.5V17C59.5 17.663 59.7634 18.2989 60.2322 18.7678C60.7011 19.2366 61.337 19.5 62 19.5ZM48.5 4.5H51.5V7.5H48.5V4.5ZM62.5 24.5H65.5V27.5H62.5V24.5ZM62.5 13.5H65.5V16.5H62.5V13.5Z" fill="white"/>
</g>
<defs>
<clipPath id="clip0_27_3081">
<rect width="72" height="32" rx="5" fill="white"/>
</clipPath>
</defs>
</svg>
