<svg width="72" height="32" viewBox="0 0 72 32" fill="none" xmlns="http://www.w3.org/2000/svg">
<g clip-path="url(#clip0_27_2033)">
<path d="M30.0001 7V15C30.0002 15.1979 29.9417 15.3914 29.8318 15.556C29.7219 15.7206 29.5657 15.8489 29.3829 15.9246C29.2 16.0004 28.9988 16.0202 28.8048 15.9815C28.6107 15.9429 28.4324 15.8475 28.2926 15.7075L25.0001 12.4138L17.7076 19.7075C17.6147 19.8005 17.5044 19.8742 17.383 19.9246C17.2616 19.9749 17.1315 20.0008 17.0001 20.0008C16.8687 20.0008 16.7385 19.9749 16.6171 19.9246C16.4957 19.8742 16.3854 19.8005 16.2926 19.7075L12.0001 15.4137L3.70757 23.7075C3.51993 23.8951 3.26543 24.0006 3.00007 24.0006C2.7347 24.0006 2.48021 23.8951 2.29257 23.7075C2.10493 23.5199 1.99951 23.2654 1.99951 23C1.99951 22.7346 2.10493 22.4801 2.29257 22.2925L11.2926 13.2925C11.3854 13.1995 11.4957 13.1258 11.6171 13.0754C11.7385 13.0251 11.8687 12.9992 12.0001 12.9992C12.1315 12.9992 12.2616 13.0251 12.383 13.0754C12.5044 13.1258 12.6147 13.1995 12.7076 13.2925L17.0001 17.5863L23.5863 11L20.2926 7.7075C20.1526 7.56764 20.0572 7.38939 20.0185 7.19531C19.9799 7.00122 19.9997 6.80003 20.0754 6.61721C20.1512 6.43439 20.2795 6.27815 20.4441 6.16828C20.6087 6.05841 20.8022 5.99984 21.0001 6H29.0001C29.2653 6 29.5196 6.10536 29.7072 6.29289C29.8947 6.48043 30.0001 6.73478 30.0001 7Z" fill="white"/>
<path d="M70.4999 7V15C70.4999 15.3978 70.3419 15.7794 70.0606 16.0607C69.7793 16.342 69.3978 16.5 68.9999 16.5C68.6021 16.5 68.2206 16.342 67.9393 16.0607C67.658 15.7794 67.4999 15.3978 67.4999 15V10.625L58.0612 20.065C57.9218 20.2048 57.7563 20.3158 57.5739 20.3915C57.3916 20.4672 57.1961 20.5062 56.9987 20.5062C56.8013 20.5062 56.6058 20.4672 56.4235 20.3915C56.2411 20.3158 56.0756 20.2048 55.9362 20.065L51.9999 16.125L44.0612 24.0613C43.7794 24.343 43.3972 24.5014 42.9987 24.5014C42.6002 24.5014 42.218 24.343 41.9362 24.0613C41.6544 23.7795 41.4961 23.3973 41.4961 22.9988C41.4961 22.6002 41.6544 22.218 41.9362 21.9363L50.9362 12.9362C51.0756 12.7964 51.2411 12.6855 51.4235 12.6097C51.6058 12.534 51.8013 12.4951 51.9987 12.4951C52.1961 12.4951 52.3916 12.534 52.5739 12.6097C52.7563 12.6855 52.9218 12.7964 53.0612 12.9362L56.9999 16.875L65.3749 8.5H60.9999C60.6021 8.5 60.2206 8.34196 59.9393 8.06066C59.658 7.77936 59.4999 7.39782 59.4999 7C59.4999 6.60218 59.658 6.22064 59.9393 5.93934C60.2206 5.65804 60.6021 5.5 60.9999 5.5H68.9999C69.3978 5.5 69.7793 5.65804 70.0606 5.93934C70.3419 6.22064 70.4999 6.60218 70.4999 7Z" fill="white"/>
</g>
<defs>
<clipPath id="clip0_27_2033">
<rect width="72" height="32" rx="5" fill="white"/>
</clipPath>
</defs>
</svg>
