<svg width="72" height="32" viewBox="0 0 72 32" fill="none" xmlns="http://www.w3.org/2000/svg">
<g clip-path="url(#clip0_27_2028)">
<path d="M30.0001 16V24C30.0001 24.2652 29.8947 24.5196 29.7072 24.7071C29.5196 24.8947 29.2653 25 29.0001 25H21.0001C20.8022 25.0002 20.6087 24.9416 20.4441 24.8317C20.2795 24.7219 20.1512 24.5656 20.0754 24.3828C19.9997 24.2 19.9799 23.9988 20.0185 23.8047C20.0572 23.6106 20.1526 23.4324 20.2926 23.2925L23.5863 20L17.0001 13.4138L12.7076 17.7075C12.6147 17.8005 12.5044 17.8742 12.383 17.9246C12.2616 17.9749 12.1315 18.0008 12.0001 18.0008C11.8687 18.0008 11.7385 17.9749 11.6171 17.9246C11.4957 17.8742 11.3854 17.8005 11.2926 17.7075L2.29257 8.70751C2.10493 8.51987 1.99951 8.26537 1.99951 8.00001C1.99951 7.73464 2.10493 7.48015 2.29257 7.29251C2.48021 7.10487 2.7347 6.99945 3.00007 6.99945C3.26543 6.99945 3.51993 7.10487 3.70757 7.29251L12.0001 15.5863L16.2926 11.2925C16.3854 11.1995 16.4957 11.1258 16.6171 11.0754C16.7385 11.0251 16.8687 10.9992 17.0001 10.9992C17.1315 10.9992 17.2616 11.0251 17.383 11.0754C17.5044 11.1258 17.6147 11.1995 17.7076 11.2925L25.0001 18.5863L28.2926 15.2925C28.4324 15.1525 28.6107 15.0571 28.8048 15.0185C28.9988 14.9798 29.2 14.9996 29.3829 15.0754C29.5657 15.1511 29.7219 15.2794 29.8318 15.444C29.9417 15.6086 30.0002 15.8021 30.0001 16Z" fill="white"/>
<path d="M70.4999 16V24C70.4999 24.3978 70.3419 24.7793 70.0606 25.0606C69.7793 25.3419 69.3978 25.5 68.9999 25.5H60.9999C60.6021 25.5 60.2206 25.3419 59.9393 25.0606C59.658 24.7793 59.4999 24.3978 59.4999 24C59.4999 23.6022 59.658 23.2206 59.9393 22.9393C60.2206 22.658 60.6021 22.5 60.9999 22.5H65.3749L56.9999 14.125L53.0612 18.065C52.9218 18.2048 52.7563 18.3158 52.5739 18.3915C52.3916 18.4672 52.1961 18.5062 51.9987 18.5062C51.8013 18.5062 51.6058 18.4672 51.4235 18.3915C51.2411 18.3158 51.0756 18.2048 50.9362 18.065L41.9362 9.06498C41.6544 8.78319 41.4961 8.40099 41.4961 8.00248C41.4961 7.80516 41.535 7.60976 41.6105 7.42746C41.686 7.24516 41.7967 7.07951 41.9362 6.93998C42.0757 6.80045 42.2414 6.68977 42.4237 6.61426C42.606 6.53874 42.8014 6.49988 42.9987 6.49988C43.3972 6.49988 43.7794 6.65819 44.0612 6.93998L51.9999 14.875L55.9387 10.935C56.0781 10.7951 56.2436 10.6842 56.426 10.6085C56.6083 10.5328 56.8038 10.4938 57.0012 10.4938C57.1986 10.4938 57.3941 10.5328 57.5764 10.6085C57.7588 10.6842 57.9243 10.7951 58.0637 10.935L67.4999 20.375V16C67.4999 15.6022 67.658 15.2206 67.9393 14.9393C68.2206 14.658 68.6021 14.5 68.9999 14.5C69.3978 14.5 69.7793 14.658 70.0606 14.9393C70.3419 15.2206 70.4999 15.6022 70.4999 16Z" fill="white"/>
</g>
<defs>
<clipPath id="clip0_27_2028">
<rect width="72" height="32" rx="5" fill="white"/>
</clipPath>
</defs>
</svg>
