<svg width="72" height="32" viewBox="0 0 72 32" fill="none" xmlns="http://www.w3.org/2000/svg">
<g clip-path="url(#clip0_27_6905)">
<path d="M11.0006 28C11.0006 28.3956 10.8833 28.7822 10.6635 29.1111C10.4437 29.44 10.1314 29.6964 9.76592 29.8478C9.40047 29.9991 8.99834 30.0387 8.61038 29.9616C8.22241 29.8844 7.86605 29.6939 7.58634 29.4142C7.30664 29.1345 7.11616 28.7781 7.03899 28.3902C6.96181 28.0022 7.00142 27.6001 7.1528 27.2346C7.30417 26.8692 7.56052 26.5568 7.88942 26.3371C8.21831 26.1173 8.60499 26 9.00056 26C9.53099 26 10.0397 26.2107 10.4148 26.5858C10.7898 26.9609 11.0006 27.4696 11.0006 28ZM27.0006 26C26.605 26 26.2183 26.1173 25.8894 26.3371C25.5605 26.5568 25.3042 26.8692 25.1528 27.2346C25.0014 27.6001 24.9618 28.0022 25.039 28.3902C25.1162 28.7781 25.3066 29.1345 25.5863 29.4142C25.866 29.6939 26.2224 29.8844 26.6104 29.9616C26.9983 30.0387 27.4005 29.9991 27.7659 29.8478C28.1314 29.6964 28.4437 29.44 28.6635 29.1111C28.8833 28.7822 29.0006 28.3956 29.0006 28C29.0006 27.4696 28.7898 26.9609 28.4148 26.5858C28.0397 26.2107 27.531 26 27.0006 26ZM30.0006 22H7.00056V9.41375C7.0014 9.15101 6.95 8.89072 6.84936 8.64802C6.74871 8.40532 6.60083 8.18504 6.41431 8L3.70806 5.2925C3.61515 5.19959 3.50485 5.12589 3.38345 5.07561C3.26206 5.02532 3.13195 4.99944 3.00056 4.99944C2.73519 4.99944 2.4807 5.10486 2.29306 5.2925C2.20015 5.38541 2.12645 5.49571 2.07616 5.6171C2.02588 5.7385 2 5.86861 2 6C2 6.26536 2.10542 6.51986 2.29306 6.7075L5.00056 9.41375V22H4.00056C3.73534 22 3.48099 22.1054 3.29345 22.2929C3.10591 22.4804 3.00056 22.7348 3.00056 23C3.00056 23.2652 3.10591 23.5196 3.29345 23.7071C3.48099 23.8946 3.73534 24 4.00056 24H30.0006C30.2658 24 30.5201 23.8946 30.7077 23.7071C30.8952 23.5196 31.0006 23.2652 31.0006 23C31.0006 22.7348 30.8952 22.4804 30.7077 22.2929C30.5201 22.1054 30.2658 22 30.0006 22ZM9.00056 18V9C9.00056 8.46957 9.21127 7.96086 9.58634 7.58579C9.96142 7.21071 10.4701 7 11.0006 7H15.0006V5C15.0006 4.46957 15.2113 3.96086 15.5863 3.58579C15.9614 3.21071 16.4701 3 17.0006 3H21.0006C21.531 3 22.0397 3.21071 22.4148 3.58579C22.7898 3.96086 23.0006 4.46957 23.0006 5V7H27.0006C27.531 7 28.0397 7.21071 28.4148 7.58579C28.7898 7.96086 29.0006 8.46957 29.0006 9V18C29.0006 18.5304 28.7898 19.0391 28.4148 19.4142C28.0397 19.7893 27.531 20 27.0006 20H11.0006C10.4701 20 9.96142 19.7893 9.58634 19.4142C9.21127 19.0391 9.00056 18.5304 9.00056 18ZM17.0006 7H21.0006V5H17.0006V7Z" fill="white"/>
<path d="M51.9994 19.5H66.9994C67.6624 19.5 68.2983 19.2366 68.7672 18.7678C69.236 18.2989 69.4994 17.663 69.4994 17V9.5C69.4994 8.83696 69.236 8.20107 68.7672 7.73223C68.2983 7.26339 67.6624 7 66.9994 7H63.9994V5C63.9994 4.6717 63.9347 4.34661 63.8091 4.04329C63.6835 3.73998 63.4993 3.46438 63.2672 3.23223C63.035 3.00009 62.7594 2.81594 62.4561 2.6903C62.1528 2.56466 61.8277 2.5 61.4994 2.5H57.4994C56.8364 2.5 56.2005 2.76339 55.7316 3.23223C55.2628 3.70107 54.9994 4.33696 54.9994 5V7H51.9994C51.3364 7 50.7005 7.26339 50.2316 7.73223C49.7628 8.20107 49.4994 8.83696 49.4994 9.5V17C49.4994 17.663 49.7628 18.2989 50.2316 18.7678C50.7005 19.2366 51.3364 19.5 51.9994 19.5ZM57.9994 5.5H60.9994V7H57.9994V5.5ZM52.4994 10H66.4994V16.5H52.4994V10ZM51.4994 28C51.4994 28.4945 51.3528 28.9778 51.0781 29.3889C50.8034 29.8 50.4129 30.1205 49.9561 30.3097C49.4993 30.4989 48.9966 30.5484 48.5117 30.452C48.0267 30.3555 47.5813 30.1174 47.2316 29.7678C46.882 29.4181 46.6439 28.9727 46.5474 28.4877C46.451 28.0028 46.5005 27.5001 46.6897 27.0433C46.8789 26.5865 47.1994 26.196 47.6105 25.9213C48.0216 25.6466 48.5049 25.5 48.9994 25.5C49.3277 25.5 49.6528 25.5647 49.9561 25.6903C50.2594 25.8159 50.535 26.0001 50.7672 26.2322C50.9993 26.4644 51.1835 26.74 51.3091 27.0433C51.4347 27.3466 51.4994 27.6717 51.4994 28ZM69.4994 28C69.4994 28.4945 69.3528 28.9778 69.0781 29.3889C68.8034 29.8 68.4129 30.1205 67.9561 30.3097C67.4993 30.4989 66.9966 30.5484 66.5117 30.452C66.0267 30.3555 65.5813 30.1174 65.2316 29.7678C64.882 29.4181 64.6439 28.9727 64.5474 28.4877C64.451 28.0028 64.5005 27.5001 64.6897 27.0433C64.8789 26.5865 65.1994 26.196 65.6105 25.9213C66.0216 25.6466 66.5049 25.5 66.9994 25.5C67.6624 25.5 68.2983 25.7634 68.7672 26.2322C69.236 26.7011 69.4994 27.337 69.4994 28ZM71.4994 22.5C71.4994 22.8978 71.3414 23.2794 71.0601 23.5607C70.7788 23.842 70.3972 24 69.9994 24H43.9994C43.6016 24 43.22 23.842 42.9387 23.5607C42.6574 23.2794 42.4994 22.8978 42.4994 22.5C42.4994 22.1022 42.6574 21.7206 42.9387 21.4393C43.22 21.158 43.6016 21 43.9994 21H44.4994V9.625L41.9381 7.06125C41.6564 6.77946 41.498 6.39726 41.498 5.99875C41.498 5.60024 41.6564 5.21804 41.9381 4.93625C42.2199 4.65446 42.6021 4.49615 43.0006 4.49615C43.3992 4.49615 43.7814 4.65446 44.0631 4.93625L46.7669 7.64625C46.9998 7.87776 47.1845 8.1532 47.3103 8.4566C47.436 8.76 47.5003 9.08533 47.4994 9.41375V21H69.9994C70.3972 21 70.7788 21.158 71.0601 21.4393C71.3414 21.7206 71.4994 22.1022 71.4994 22.5Z" fill="white"/>
</g>
<defs>
<clipPath id="clip0_27_6905">
<rect width="72" height="32" rx="5" fill="white"/>
</clipPath>
</defs>
</svg>
