<svg width="72" height="32" viewBox="0 0 72 32" fill="none" xmlns="http://www.w3.org/2000/svg">
<g clip-path="url(#clip0_27_6910)">
<path d="M31.9287 14.625L30.1787 10.25C30.0302 9.87964 29.7738 9.56245 29.4428 9.33956C29.1119 9.11668 28.7215 8.99838 28.3225 9H24V8C24 7.73478 23.8946 7.48043 23.7071 7.29289C23.5196 7.10536 23.2652 7 23 7H4C3.46957 7 2.96086 7.21071 2.58579 7.58579C2.21071 7.96086 2 8.46957 2 9V23C2 23.5304 2.21071 24.0391 2.58579 24.4142C2.96086 24.7893 3.46957 25 4 25H6.125C6.3453 25.8604 6.8457 26.623 7.54731 27.1676C8.24892 27.7122 9.11183 28.0078 10 28.0078C10.8882 28.0078 11.7511 27.7122 12.4527 27.1676C13.1543 26.623 13.6547 25.8604 13.875 25H20.125C20.3453 25.8604 20.8457 26.623 21.5473 27.1676C22.2489 27.7122 23.1118 28.0078 24 28.0078C24.8882 28.0078 25.7511 27.7122 26.4527 27.1676C27.1543 26.623 27.6547 25.8604 27.875 25H30C30.5304 25 31.0391 24.7893 31.4142 24.4142C31.7893 24.0391 32 23.5304 32 23V15C32.0001 14.8716 31.976 14.7444 31.9287 14.625ZM10 26C9.60444 26 9.21776 25.8827 8.88886 25.6629C8.55996 25.4432 8.30362 25.1308 8.15224 24.7654C8.00087 24.3999 7.96126 23.9978 8.03843 23.6098C8.1156 23.2219 8.30608 22.8655 8.58579 22.5858C8.86549 22.3061 9.22186 22.1156 9.60982 22.0384C9.99778 21.9613 10.3999 22.0009 10.7654 22.1522C11.1308 22.3036 11.4432 22.56 11.6629 22.8889C11.8827 23.2178 12 23.6044 12 24C12 24.5304 11.7893 25.0391 11.4142 25.4142C11.0391 25.7893 10.5304 26 10 26ZM4 17V9H22V17H4ZM24 26C23.6044 26 23.2178 25.8827 22.8889 25.6629C22.56 25.4432 22.3036 25.1308 22.1522 24.7654C22.0009 24.3999 21.9613 23.9978 22.0384 23.6098C22.1156 23.2219 22.3061 22.8655 22.5858 22.5858C22.8655 22.3061 23.2219 22.1156 23.6098 22.0384C23.9978 21.9613 24.3999 22.0009 24.7654 22.1522C25.1308 22.3036 25.4432 22.56 25.6629 22.8889C25.8827 23.2178 26 23.6044 26 24C26 24.5304 25.7893 25.0391 25.4142 25.4142C25.0391 25.7893 24.5304 26 24 26ZM24 14V11H28.3225L29.5225 14H24Z" fill="white"/>
<path d="M71.8925 14.4425L70.1425 10.0675C69.958 9.60344 69.6379 9.20571 69.2241 8.92612C68.8103 8.64654 68.3219 8.49805 67.8225 8.5H64.5V8C64.5 7.60218 64.342 7.22064 64.0607 6.93934C63.7794 6.65804 63.3978 6.5 63 6.5H44C43.337 6.5 42.7011 6.76339 42.2322 7.23223C41.7634 7.70107 41.5 8.33696 41.5 9V23C41.5 23.663 41.7634 24.2989 42.2322 24.7678C42.7011 25.2366 43.337 25.5 44 25.5H45.7575C46.0677 26.3773 46.6423 27.1368 47.4021 27.674C48.1619 28.2111 49.0695 28.4996 50 28.4996C50.9305 28.4996 51.8381 28.2111 52.5979 27.674C53.3577 27.1368 53.9323 26.3773 54.2425 25.5H59.7575C60.0677 26.3773 60.6423 27.1368 61.4021 27.674C62.1619 28.2111 63.0695 28.4996 64 28.4996C64.9305 28.4996 65.8381 28.2111 66.5979 27.674C67.3577 27.1368 67.9323 26.3773 68.2425 25.5H69.5C70.163 25.5 70.7989 25.2366 71.2678 24.7678C71.7366 24.2989 72 23.663 72 23V15C71.9838 14.8109 71.9477 14.6241 71.8925 14.4425ZM64.5 11.5H67.485L68.285 13.5H64.5V11.5ZM50 25.5C49.7033 25.5 49.4133 25.412 49.1666 25.2472C48.92 25.0824 48.7277 24.8481 48.6142 24.574C48.5006 24.2999 48.4709 23.9983 48.5288 23.7074C48.5867 23.4164 48.7296 23.1491 48.9393 22.9393C49.1491 22.7296 49.4164 22.5867 49.7074 22.5288C49.9983 22.4709 50.2999 22.5007 50.574 22.6142C50.8481 22.7277 51.0824 22.92 51.2472 23.1666C51.412 23.4133 51.5 23.7033 51.5 24C51.5 24.3978 51.342 24.7794 51.0607 25.0607C50.7794 25.342 50.3978 25.5 50 25.5ZM61.5 20.26C60.6947 20.8013 60.084 21.5863 59.7575 22.5H54.2425C53.9323 21.6227 53.3577 20.8632 52.5979 20.326C51.8381 19.7889 50.9305 19.5004 50 19.5004C49.0695 19.5004 48.1619 19.7889 47.4021 20.326C46.6423 20.8632 46.0677 21.6227 45.7575 22.5H44.5V17.5H61.5V20.26ZM61.5 14.5H44.5V9.5H61.5V14.5ZM64 25.5C63.7033 25.5 63.4133 25.412 63.1666 25.2472C62.92 25.0824 62.7277 24.8481 62.6142 24.574C62.5007 24.2999 62.4709 23.9983 62.5288 23.7074C62.5867 23.4164 62.7296 23.1491 62.9393 22.9393C63.1491 22.7296 63.4164 22.5867 63.7074 22.5288C63.9983 22.4709 64.2999 22.5007 64.574 22.6142C64.8481 22.7277 65.0824 22.92 65.2472 23.1666C65.412 23.4133 65.5 23.7033 65.5 24C65.5 24.3978 65.342 24.7794 65.0607 25.0607C64.7794 25.342 64.3978 25.5 64 25.5ZM69 22.5H68.2425C67.9595 21.704 67.4586 21.0035 66.797 20.4782C66.1353 19.9528 65.3394 19.6239 64.5 19.5287V16.5H69V22.5Z" fill="white"/>
</g>
<defs>
<clipPath id="clip0_27_6910">
<rect width="72" height="32" rx="5" fill="white"/>
</clipPath>
</defs>
</svg>
