<svg width="72" height="32" viewBox="0 0 72 32" fill="none" xmlns="http://www.w3.org/2000/svg">
<g clip-path="url(#clip0_27_1612)">
<path d="M28 12.1V12C27.998 10.1441 27.2599 8.36477 25.9476 7.05245C24.6352 5.74012 22.8559 5.00199 21 5H20C19.4696 5 18.9609 5.21071 18.5858 5.58579C18.2107 5.96086 18 6.46957 18 7V22H16V9C16 8.73478 15.8946 8.48043 15.7071 8.29289C15.5196 8.10536 15.2652 8 15 8H2C1.46957 8 0.960859 8.21071 0.585786 8.58579C0.210714 8.96086 0 9.46957 0 10L0 23C0.000913299 23.8121 0.248994 24.6047 0.71126 25.2724C1.17353 25.9401 1.82808 26.4513 2.58789 26.738C3.3477 27.0246 4.17678 27.0733 4.9649 26.8774C5.75302 26.6815 6.46285 26.2503 7 25.6413C7.48014 26.1867 8.0998 26.591 8.79242 26.8109C9.48504 27.0307 10.2245 27.0577 10.9313 26.889C11.6381 26.7202 12.2856 26.3621 12.8042 25.8532C13.3228 25.3442 13.693 24.7035 13.875 24H24.125C24.3668 24.9445 24.9453 25.7681 25.7516 26.3162C26.558 26.8642 27.5367 27.0988 28.5039 26.976C29.4711 26.8532 30.3601 26.3814 31.0039 25.6492C31.6477 24.917 32.0019 23.9749 32 23V17C31.9986 15.8478 31.6 14.7313 30.8713 13.8387C30.1427 12.9461 29.1286 12.3321 28 12.1ZM4 25C3.60444 25 3.21776 24.8827 2.88886 24.6629C2.55996 24.4432 2.30362 24.1308 2.15224 23.7654C2.00087 23.3999 1.96126 22.9978 2.03843 22.6098C2.1156 22.2219 2.30608 21.8655 2.58579 21.5858C2.86549 21.3061 3.22186 21.1156 3.60982 21.0384C3.99778 20.9613 4.39991 21.0009 4.76537 21.1522C5.13082 21.3036 5.44318 21.56 5.66294 21.8889C5.8827 22.2178 6 22.6044 6 23C6 23.5304 5.78929 24.0391 5.41421 24.4142C5.03914 24.7893 4.53043 25 4 25ZM10 25C9.60444 25 9.21776 24.8827 8.88886 24.6629C8.55996 24.4432 8.30362 24.1308 8.15224 23.7654C8.00087 23.3999 7.96126 22.9978 8.03843 22.6098C8.1156 22.2219 8.30608 21.8655 8.58579 21.5858C8.86549 21.3061 9.22186 21.1156 9.60982 21.0384C9.99778 20.9613 10.3999 21.0009 10.7654 21.1522C11.1308 21.3036 11.4432 21.56 11.6629 21.8889C11.8827 22.2178 12 22.6044 12 23C12 23.5304 11.7893 24.0391 11.4142 24.4142C11.0391 24.7893 10.5304 25 10 25ZM28 25C27.6044 25 27.2178 24.8827 26.8889 24.6629C26.56 24.4432 26.3036 24.1308 26.1522 23.7654C26.0009 23.3999 25.9613 22.9978 26.0384 22.6098C26.1156 22.2219 26.3061 21.8655 26.5858 21.5858C26.8655 21.3061 27.2219 21.1156 27.6098 21.0384C27.9978 20.9613 28.3999 21.0009 28.7654 21.1522C29.1308 21.3036 29.4432 21.56 29.6629 21.8889C29.8827 22.2178 30 22.6044 30 23C30 23.5304 29.7893 24.0391 29.4142 24.4142C29.0391 24.7893 28.5304 25 28 25Z" fill="white"/>
<path d="M68 11.7063C67.9216 9.76932 67.0972 7.93773 65.6994 6.59464C64.3016 5.25154 62.4385 4.501 60.5 4.5C59.837 4.5 59.2011 4.76339 58.7322 5.23223C58.2634 5.70107 58 6.33696 58 7V21.5H56V9C56 8.60218 55.842 8.22064 55.5607 7.93934C55.2794 7.65804 54.8978 7.5 54.5 7.5H42.5C41.837 7.5 41.2011 7.76339 40.7322 8.23223C40.2634 8.70107 40 9.33696 40 10V23C40.0008 23.8683 40.2528 24.7179 40.7256 25.4462C41.1985 26.1746 41.8719 26.7505 42.6648 27.1047C43.4576 27.4588 44.336 27.576 45.1939 27.4421C46.0519 27.3082 46.8528 26.9289 47.5 26.35C48.0505 26.8427 48.7139 27.1923 49.4315 27.3678C50.1491 27.5434 50.8989 27.5396 51.6147 27.3568C52.3305 27.174 52.9903 26.8177 53.5358 26.3195C54.0813 25.8212 54.4957 25.1963 54.7425 24.5H63.2575C63.6114 25.5007 64.3077 26.3441 65.2233 26.8812C66.1388 27.4182 67.2148 27.6143 68.261 27.4348C69.3071 27.2553 70.2562 26.7118 70.9404 25.9002C71.6246 25.0887 71.9999 24.0615 72 23V17C71.9988 15.8029 71.6078 14.6387 70.8861 13.6835C70.1644 12.7284 69.1513 12.0343 68 11.7063ZM61 7.5275C62.0995 7.65208 63.1147 8.17671 63.8523 9.00148C64.5899 9.82624 64.9984 10.8935 65 12V13C65 13.3978 65.158 13.7794 65.4393 14.0607C65.7206 14.342 66.1022 14.5 66.5 14.5C67.163 14.5 67.7989 14.7634 68.2678 15.2322C68.7366 15.7011 69 16.337 69 17V18.7575C67.8748 18.3597 66.6377 18.4252 65.5608 18.9395C64.4839 19.4538 63.6554 20.3748 63.2575 21.5H61V7.5275ZM53 10.5V19.26C52.1704 18.7041 51.1792 18.4407 50.1831 18.5113C49.187 18.582 48.2429 18.9826 47.5 19.65C46.8994 19.1105 46.1645 18.7429 45.3726 18.5858C44.5806 18.4288 43.761 18.4881 43 18.7575V10.5H53ZM44.5 24.5C44.2033 24.5 43.9133 24.412 43.6666 24.2472C43.42 24.0824 43.2277 23.8481 43.1142 23.574C43.0006 23.2999 42.9709 22.9983 43.0288 22.7074C43.0867 22.4164 43.2296 22.1491 43.4393 21.9393C43.6491 21.7296 43.9164 21.5867 44.2074 21.5288C44.4983 21.4709 44.7999 21.5007 45.074 21.6142C45.3481 21.7277 45.5824 21.92 45.7472 22.1666C45.912 22.4133 46 22.7033 46 23C46 23.3978 45.842 23.7794 45.5607 24.0607C45.2794 24.342 44.8978 24.5 44.5 24.5ZM50.5 24.5C50.2033 24.5 49.9133 24.412 49.6666 24.2472C49.42 24.0824 49.2277 23.8481 49.1142 23.574C49.0006 23.2999 48.9709 22.9983 49.0288 22.7074C49.0867 22.4164 49.2296 22.1491 49.4393 21.9393C49.6491 21.7296 49.9164 21.5867 50.2074 21.5288C50.4983 21.4709 50.7999 21.5007 51.074 21.6142C51.3481 21.7277 51.5824 21.92 51.7472 22.1666C51.912 22.4133 52 22.7033 52 23C52 23.3978 51.842 23.7794 51.5607 24.0607C51.2794 24.342 50.8978 24.5 50.5 24.5ZM67.5 24.5C67.2033 24.5 66.9133 24.412 66.6666 24.2472C66.42 24.0824 66.2277 23.8481 66.1142 23.574C66.0007 23.2999 65.9709 22.9983 66.0288 22.7074C66.0867 22.4164 66.2296 22.1491 66.4393 21.9393C66.6491 21.7296 66.9164 21.5867 67.2074 21.5288C67.4983 21.4709 67.7999 21.5007 68.074 21.6142C68.3481 21.7277 68.5824 21.92 68.7472 22.1666C68.912 22.4133 69 22.7033 69 23C69 23.3978 68.842 23.7794 68.5607 24.0607C68.2794 24.342 67.8978 24.5 67.5 24.5Z" fill="white"/>
</g>
<defs>
<clipPath id="clip0_27_1612">
<rect width="72" height="32" rx="5" fill="white"/>
</clipPath>
</defs>
</svg>
