<svg width="72" height="32" viewBox="0 0 72 32" fill="none" xmlns="http://www.w3.org/2000/svg">
<g clip-path="url(#clip0_27_1537)">
<path d="M30.9487 7.6525L24.4787 4.125C24.3322 4.04389 24.1675 4.0009 24 4H20C19.7348 4 19.4804 4.10536 19.2929 4.29289C19.1054 4.48043 19 4.73478 19 5C19 5.79565 18.6839 6.55871 18.1213 7.12132C17.5587 7.68393 16.7956 8 16 8C15.2043 8 14.4413 7.68393 13.8787 7.12132C13.3161 6.55871 13 5.79565 13 5C13 4.73478 12.8946 4.48043 12.7071 4.29289C12.5196 4.10536 12.2652 4 12 4H8C7.83204 4.0007 7.66696 4.04368 7.52 4.125L1.05125 7.6525C0.590125 7.89619 0.244456 8.3128 0.0900368 8.81097C-0.0643825 9.30914 -0.0149487 9.84822 0.227499 10.31L2.63625 14.9113C2.81139 15.2421 3.07392 15.5185 3.39526 15.7105C3.7166 15.9024 4.08444 16.0026 4.45875 16H7V26C7 26.5304 7.21071 27.0391 7.58579 27.4142C7.96086 27.7893 8.46957 28 9 28H23C23.5304 28 24.0391 27.7893 24.4142 27.4142C24.7893 27.0391 25 26.5304 25 26V16H27.5425C27.9168 16.0026 28.2846 15.9024 28.606 15.7105C28.9273 15.5185 29.1899 15.2421 29.365 14.9113L31.7737 10.31C32.0161 9.84807 32.0653 9.30887 31.9107 8.81068C31.756 8.31249 31.4101 7.89598 30.9487 7.6525ZM4.45875 14C4.44027 14.0009 4.4221 13.9951 4.4075 13.9838L2.01125 9.4075L7 6.685V14H4.45875ZM27.5925 13.9825C27.5856 13.9887 27.5775 13.9935 27.5687 13.9965C27.5599 13.9995 27.5505 14.0007 27.5412 14H25V6.685L29.99 9.4075L27.5925 13.9825Z" fill="white"/>
<path d="M70.7713 7.23751L64.7613 3.70626C64.5308 3.57027 64.2678 3.49901 64.0001 3.50001H60.0001C59.6023 3.50001 59.2207 3.65805 58.9394 3.93935C58.6581 4.22065 58.5001 4.60219 58.5001 5.00001C58.5001 5.66305 58.2367 6.29894 57.7678 6.76778C57.299 7.23662 56.6631 7.50001 56.0001 7.50001C55.337 7.50001 54.7012 7.23662 54.2323 6.76778C53.7635 6.29894 53.5001 5.66305 53.5001 5.00001C53.5001 4.60219 53.342 4.22065 53.0607 3.93935C52.7794 3.65805 52.3979 3.50001 52.0001 3.50001H48.0001C47.7331 3.49984 47.471 3.57151 47.2413 3.70751L41.2288 7.23751C40.6875 7.56065 40.2868 8.07477 40.1057 8.67862C39.9245 9.28247 39.976 9.93226 40.2501 10.5L42.4876 15.1C42.6871 15.5199 43.0018 15.8744 43.3951 16.1223C43.7883 16.3702 44.244 16.5012 44.7088 16.5H46.5001V26C46.5001 26.6631 46.7635 27.2989 47.2323 27.7678C47.7012 28.2366 48.337 28.5 49.0001 28.5H63.0001C63.6631 28.5 64.299 28.2366 64.7678 27.7678C65.2367 27.2989 65.5001 26.6631 65.5001 26V16.5H67.2901C67.7541 16.5007 68.2087 16.3699 68.6014 16.1228C68.9941 15.8757 69.3087 15.5224 69.5088 15.1038L71.7501 10.5C72.0241 9.93226 72.0757 9.28247 71.8945 8.67862C71.7134 8.07477 71.3127 7.56065 70.7713 7.23751ZM45.0463 13.5L43.1451 9.59126L46.5001 7.62501V13.5H45.0463ZM62.5001 25.5H49.5001V6.50001H50.7088C51.0347 7.6526 51.728 8.6673 52.6832 9.38991C53.6385 10.1125 54.8035 10.5035 56.0013 10.5035C57.1991 10.5035 58.3642 10.1125 59.3194 9.38991C60.2747 8.6673 60.9679 7.6526 61.2938 6.50001H62.5001V25.5ZM66.9526 13.5H65.5001V7.62501L68.8538 9.59501L66.9526 13.5Z" fill="white"/>
</g>
<defs>
<clipPath id="clip0_27_1537">
<rect width="72" height="32" rx="5" fill="white"/>
</clipPath>
</defs>
</svg>
