<svg width="72" height="32" viewBox="0 0 72 32" fill="none" xmlns="http://www.w3.org/2000/svg">
<g clip-path="url(#clip0_27_369)">
<path d="M26 4H6C5.46957 4 4.96086 4.21071 4.58579 4.58579C4.21071 4.96086 4 5.46957 4 6V24C4 24.5304 4.21071 25.0391 4.58579 25.4142C4.96086 25.7893 5.46957 26 6 26H8V30C7.99993 30.1901 8.05403 30.3762 8.15597 30.5367C8.25791 30.6971 8.40346 30.8252 8.57557 30.9058C8.74767 30.9865 8.93921 31.0165 9.12773 30.9922C9.31625 30.9679 9.49395 30.8904 9.64 30.7687L15.3625 26H20.6375C21.1057 26.0002 21.5591 25.836 21.9188 25.5362L27.28 21.0675C27.5057 20.8803 27.6873 20.6455 27.8118 20.3799C27.9363 20.1143 28.0005 19.8245 28 19.5312V6C28 5.46957 27.7893 4.96086 27.4142 4.58579C27.0391 4.21071 26.5304 4 26 4ZM16 17C16 17.2652 15.8946 17.5196 15.7071 17.7071C15.5196 17.8946 15.2652 18 15 18C14.7348 18 14.4804 17.8946 14.2929 17.7071C14.1054 17.5196 14 17.2652 14 17V11C14 10.7348 14.1054 10.4804 14.2929 10.2929C14.4804 10.1054 14.7348 10 15 10C15.2652 10 15.5196 10.1054 15.7071 10.2929C15.8946 10.4804 16 10.7348 16 11V17ZM22 17C22 17.2652 21.8946 17.5196 21.7071 17.7071C21.5196 17.8946 21.2652 18 21 18C20.7348 18 20.4804 17.8946 20.2929 17.7071C20.1054 17.5196 20 17.2652 20 17V11C20 10.7348 20.1054 10.4804 20.2929 10.2929C20.4804 10.1054 20.7348 10 21 10C21.2652 10 21.5196 10.1054 21.7071 10.2929C21.8946 10.4804 22 10.7348 22 11V17Z" fill="white"/>
<path d="M66 3.5H46C45.337 3.5 44.7011 3.76339 44.2322 4.23223C43.7634 4.70107 43.5 5.33696 43.5 6V24C43.5 24.663 43.7634 25.2989 44.2322 25.7678C44.7011 26.2366 45.337 26.5 46 26.5H47.5V30C47.5 30.2851 47.5813 30.5642 47.7342 30.8048C47.8872 31.0453 48.1055 31.2373 48.3636 31.3583C48.6218 31.4792 48.909 31.5241 49.1918 31.4876C49.4745 31.4512 49.741 31.3349 49.96 31.1525L55.5425 26.5H60.6375C61.2226 26.4994 61.789 26.2942 62.2388 25.92L67.6 21.4525C67.8822 21.2182 68.1092 20.9246 68.2647 20.5925C68.4203 20.2604 68.5007 19.898 68.5 19.5312V6C68.5 5.33696 68.2366 4.70107 67.7678 4.23223C67.2989 3.76339 66.663 3.5 66 3.5ZM65.5 19.2975L60.4575 23.5H55C54.6492 23.5 54.3095 23.623 54.04 23.8475L50.5 26.7975V25C50.5 24.6022 50.342 24.2206 50.0607 23.9393C49.7794 23.658 49.3978 23.5 49 23.5H46.5V6.5H65.5V19.2975ZM59.5 17V11C59.5 10.6022 59.658 10.2206 59.9393 9.93934C60.2206 9.65804 60.6022 9.5 61 9.5C61.3978 9.5 61.7794 9.65804 62.0607 9.93934C62.342 10.2206 62.5 10.6022 62.5 11V17C62.5 17.3978 62.342 17.7794 62.0607 18.0607C61.7794 18.342 61.3978 18.5 61 18.5C60.6022 18.5 60.2206 18.342 59.9393 18.0607C59.658 17.7794 59.5 17.3978 59.5 17ZM53.5 17V11C53.5 10.6022 53.658 10.2206 53.9393 9.93934C54.2206 9.65804 54.6022 9.5 55 9.5C55.3978 9.5 55.7794 9.65804 56.0607 9.93934C56.342 10.2206 56.5 10.6022 56.5 11V17C56.5 17.3978 56.342 17.7794 56.0607 18.0607C55.7794 18.342 55.3978 18.5 55 18.5C54.6022 18.5 54.2206 18.342 53.9393 18.0607C53.658 17.7794 53.5 17.3978 53.5 17Z" fill="white"/>
</g>
<defs>
<clipPath id="clip0_27_369">
<rect width="72" height="32" rx="5" fill="white"/>
</clipPath>
</defs>
</svg>
