<svg width="72" height="32" viewBox="0 0 72 32" fill="none" xmlns="http://www.w3.org/2000/svg">
<g clip-path="url(#clip0_27_2339)">
<path d="M29.47 17.3538C29.2829 17.5572 29.0557 17.7197 28.8027 17.8309C28.5497 17.9421 28.2764 17.9997 28 18H17V25C17 25.5304 17.2107 26.0391 17.5858 26.4142C17.9609 26.7893 18.4696 27 19 27C19.5305 27 20.0392 26.7893 20.4142 26.4142C20.7893 26.0391 21 25.5304 21 25C21 24.7348 21.1054 24.4804 21.2929 24.2929C21.4805 24.1054 21.7348 24 22 24C22.2652 24 22.5196 24.1054 22.7071 24.2929C22.8947 24.4804 23 24.7348 23 25C23 26.0609 22.5786 27.0783 21.8284 27.8284C21.0783 28.5786 20.0609 29 19 29C17.9392 29 16.9217 28.5786 16.1716 27.8284C15.4214 27.0783 15 26.0609 15 25V18H4.00002C3.72233 18.001 3.44746 17.9442 3.19293 17.8332C2.9384 17.7221 2.70978 17.5593 2.52164 17.355C2.3335 17.1508 2.18995 16.9096 2.10015 16.6468C2.01034 16.384 1.97624 16.1054 2.00002 15.8288C2.22922 13.2123 3.18695 10.7125 4.7646 8.61269C6.34225 6.51289 8.47671 4.89715 10.9259 3.9487C13.3751 3.00025 16.0411 2.75704 18.6215 3.24665C21.2019 3.73626 23.5935 4.93909 25.525 6.71876C28.1081 9.08549 29.7057 12.3378 30 15.8288C30.0217 16.1058 29.9859 16.3843 29.8946 16.6467C29.8034 16.9092 29.6589 17.1499 29.47 17.3538Z" fill="white"/>
<path d="M70.491 15.7875C70.2551 13.0768 69.264 10.4864 67.6302 8.31053C65.9964 6.13464 63.7853 4.46036 61.2479 3.47771C58.7105 2.49507 55.9485 2.24344 53.2753 2.75137C50.6021 3.2593 48.1249 4.50645 46.1248 6.35126C43.452 8.80363 41.8007 12.1726 41.4998 15.7875C41.4703 16.1332 41.5131 16.4813 41.6254 16.8096C41.7378 17.1379 41.9173 17.4392 42.1524 17.6943C42.3876 17.9495 42.6733 18.1529 42.9913 18.2916C43.3094 18.4303 43.6528 18.5013 43.9998 18.5H54.4998V25C54.4998 26.1935 54.9739 27.3381 55.8178 28.182C56.6617 29.0259 57.8063 29.5 58.9998 29.5C60.1932 29.5 61.3378 29.0259 62.1818 28.182C63.0257 27.3381 63.4998 26.1935 63.4998 25C63.4998 24.6022 63.3417 24.2207 63.0604 23.9394C62.7791 23.658 62.3976 23.5 61.9998 23.5C61.6019 23.5 61.2204 23.658 60.9391 23.9394C60.6578 24.2207 60.4998 24.6022 60.4998 25C60.4998 25.3978 60.3417 25.7794 60.0604 26.0607C59.7791 26.342 59.3976 26.5 58.9998 26.5C58.6019 26.5 58.2204 26.342 57.9391 26.0607C57.6578 25.7794 57.4998 25.3978 57.4998 25V18.5H67.9998C68.3467 18.5013 68.6902 18.4303 69.0082 18.2916C69.3263 18.1529 69.612 17.9495 69.8471 17.6943C70.0823 17.4392 70.2617 17.1379 70.3741 16.8096C70.4865 16.4813 70.5293 16.1332 70.4998 15.7875H70.491ZM44.5548 15.5C44.8393 13.4066 45.6923 11.4313 47.0209 9.78876C48.3496 8.14622 50.1031 6.89933 52.0908 6.18362C54.0785 5.46792 56.2244 5.31079 58.2951 5.72932C60.3659 6.14785 62.2823 7.12603 63.836 8.55751C65.8172 10.3759 67.0948 12.8338 67.4448 15.5H44.5548Z" fill="white"/>
</g>
<defs>
<clipPath id="clip0_27_2339">
<rect width="72" height="32" rx="5" fill="white"/>
</clipPath>
</defs>
</svg>
