<svg width="72" height="32" viewBox="0 0 72 32" fill="none" xmlns="http://www.w3.org/2000/svg">
<g clip-path="url(#clip0_27_2334)">
<path d="M30.0001 15.8287C29.6999 12.3246 28.0941 9.06109 25.5011 6.68502C22.9081 4.30896 19.5171 2.99373 16.0001 2.99999C12.4842 2.9953 9.09474 4.31123 6.50307 6.68714C3.91139 9.06305 2.30654 12.3257 2.00637 15.8287C1.98264 16.1049 2.01656 16.383 2.10599 16.6453C2.19543 16.9077 2.33841 17.1486 2.52588 17.3527C2.71334 17.5569 2.9412 17.7198 3.19499 17.8313C3.44877 17.9427 3.72295 18.0001 4.00012 18H15.0001V25C15.0001 26.0609 15.4215 27.0783 16.1717 27.8284C16.9218 28.5786 17.9393 29 19.0001 29C20.061 29 21.0784 28.5786 21.8285 27.8284C22.5787 27.0783 23.0001 26.0609 23.0001 25C23.0001 24.7348 22.8948 24.4804 22.7072 24.2929C22.5197 24.1053 22.2653 24 22.0001 24C21.7349 24 21.4805 24.1053 21.293 24.2929C21.1055 24.4804 21.0001 24.7348 21.0001 25C21.0001 25.5304 20.7894 26.0391 20.4143 26.4142C20.0393 26.7893 19.5306 27 19.0001 27C18.4697 27 17.961 26.7893 17.5859 26.4142C17.2108 26.0391 17.0001 25.5304 17.0001 25V18H28.0001C28.2778 18.001 28.5527 17.9442 28.8072 17.8331C29.0617 17.7221 29.2904 17.5593 29.4785 17.355C29.6666 17.1508 29.8102 16.9096 29.9 16.6468C29.9898 16.384 30.0239 16.1054 30.0001 15.8287ZM4.00012 16C4.22175 13.424 5.26819 10.9881 6.98409 9.05399C8.69998 7.11989 10.9938 5.7907 13.5251 5.26374C12.0601 7.24999 10.2314 10.7637 10.0214 16H4.00012ZM21.9789 16C21.7689 10.7637 19.9401 7.24999 18.4789 5.25749C21.0111 5.78399 23.3057 7.11397 25.0212 9.04954C26.7368 10.9851 27.7816 13.4228 28.0001 16H21.9789Z" fill="white"/>
<path d="M70.491 15.7875C70.2551 13.0768 69.264 10.4864 67.6302 8.31053C65.9964 6.13464 63.7853 4.46036 61.2479 3.47771C58.7105 2.49507 55.9485 2.24344 53.2753 2.75137C50.6021 3.2593 48.1249 4.50645 46.1248 6.35126C43.452 8.80363 41.8007 12.1726 41.4998 15.7875C41.4703 16.1332 41.5131 16.4813 41.6254 16.8096C41.7378 17.1379 41.9173 17.4392 42.1524 17.6943C42.3876 17.9495 42.6733 18.1529 42.9913 18.2916C43.3094 18.4303 43.6528 18.5013 43.9998 18.5H54.4998V25C54.4998 26.1935 54.9739 27.3381 55.8178 28.182C56.6617 29.0259 57.8063 29.5 58.9998 29.5C60.1932 29.5 61.3378 29.0259 62.1818 28.182C63.0257 27.3381 63.4998 26.1935 63.4998 25C63.4998 24.6022 63.3417 24.2207 63.0604 23.9394C62.7791 23.658 62.3976 23.5 61.9998 23.5C61.6019 23.5 61.2204 23.658 60.9391 23.9394C60.6578 24.2207 60.4998 24.6022 60.4998 25C60.4998 25.3978 60.3417 25.7794 60.0604 26.0607C59.7791 26.342 59.3976 26.5 58.9998 26.5C58.6019 26.5 58.2204 26.342 57.9391 26.0607C57.6578 25.7794 57.4998 25.3978 57.4998 25V18.5H67.9998C68.3467 18.5013 68.6902 18.4303 69.0082 18.2916C69.3263 18.1529 69.612 17.9495 69.8471 17.6943C70.0823 17.4392 70.2617 17.1379 70.3741 16.8096C70.4865 16.4813 70.5293 16.1332 70.4998 15.7875H70.491ZM52.551 15.5C52.8848 10.5838 54.811 7.56126 55.9998 6.14126C57.1898 7.56501 59.1148 10.5863 59.4485 15.5H52.551ZM48.1635 8.55751C49.3737 7.44001 50.8099 6.59555 52.3748 6.08126C51.0998 8.15626 49.7985 11.26 49.5448 15.5H44.5548C44.9047 12.8338 46.1824 10.3759 48.1635 8.55751ZM62.4548 15.5C62.2048 11.26 60.8998 8.15626 59.6235 6.08126C61.6804 6.75784 63.5051 8.00025 64.8884 9.66609C66.2717 11.3319 67.1577 13.3538 67.4448 15.5H62.4548Z" fill="white"/>
</g>
<defs>
<clipPath id="clip0_27_2334">
<rect width="72" height="32" rx="5" fill="white"/>
</clipPath>
</defs>
</svg>
