<svg width="72" height="32" viewBox="0 0 72 32" fill="none" xmlns="http://www.w3.org/2000/svg">
<g clip-path="url(#clip0_27_5706)">
<path d="M30 20.5C30.0001 22.9774 29.0324 25.3568 27.3033 27.1309C25.5742 28.9051 23.2204 29.9336 20.7438 29.9972C18.2672 30.0608 15.8638 29.1544 14.0459 27.4713C12.228 25.7882 11.1395 23.4616 11.0125 20.9875C9.1775 20.8932 7.40924 20.2688 5.92192 19.1899C4.43461 18.1111 3.29207 16.624 2.63273 14.909C1.97338 13.194 1.82554 11.3246 2.2071 9.52721C2.58866 7.72986 3.48325 6.08173 4.78249 4.78249C6.08173 3.48325 7.72986 2.58866 9.52721 2.2071C11.3246 1.82554 13.194 1.97338 14.909 2.63273C16.624 3.29207 18.1111 4.43461 19.1899 5.92192C20.2688 7.40924 20.8932 9.1775 20.9875 11.0125C23.4184 11.1404 25.7077 12.1954 27.3843 13.9603C29.0608 15.7252 29.997 18.0657 30 20.5Z" fill="white"/>
<path d="M62.25 9.74999C61.8475 7.90883 60.957 6.20993 59.6717 4.83154C58.3865 3.45315 56.7539 2.44609 54.9453 1.91603C53.1368 1.38598 51.2189 1.35246 49.3929 1.819C47.567 2.28553 45.9002 3.23493 44.5676 4.56757C43.2349 5.9002 42.2855 7.56695 41.819 9.39293C41.3525 11.2189 41.386 13.1368 41.916 14.9453C42.4461 16.7539 43.4531 18.3865 44.8315 19.6717C46.2099 20.957 47.9088 21.8475 49.75 22.25C50.1524 24.0912 51.043 25.7901 52.3283 27.1684C53.6135 28.5468 55.2461 29.5539 57.0546 30.084C58.8632 30.614 60.7811 30.6475 62.6071 30.181C64.433 29.7145 66.0998 28.7651 67.4324 27.4324C68.7651 26.0998 69.7145 24.433 70.181 22.6071C70.6475 20.7811 70.614 18.8632 70.084 17.0546C69.5539 15.2461 68.5468 13.6135 67.1684 12.3283C65.7901 11.043 64.0912 10.1524 62.25 9.74999ZM67.5 20C67.4994 20.2777 67.4835 20.5552 67.4525 20.8312L61.9525 15.3312C62.2144 14.5481 62.3823 13.7365 62.4525 12.9137C63.9252 13.4251 65.2022 14.3819 66.1067 15.6517C67.0111 16.9214 67.498 18.4411 67.5 20ZM58.25 16.1325L55.8675 13.75C56.9447 13.0345 58.1898 12.6119 59.48 12.5237C59.3901 13.813 58.9662 15.0567 58.25 16.1325ZM53.75 15.8675L56.1325 18.25C55.0552 18.9655 53.8102 19.3881 52.52 19.4762C52.6099 18.187 53.0338 16.9433 53.75 15.8675ZM59.0875 9.54249C58.2647 9.61272 57.4532 9.78056 56.67 10.0425L51.17 4.54249C51.4457 4.51319 51.7228 4.499 52 4.49999C53.5579 4.50211 55.0765 4.98857 56.3457 5.89201C57.6149 6.79545 58.5717 8.07117 59.0837 9.54249H59.0875ZM48.0237 5.64499L53.865 11.4862C52.9524 12.147 52.1507 12.9487 51.49 13.8612L45.645 8.02374C46.2491 7.06215 47.0622 6.24909 48.0237 5.64499ZM44.5 12C44.5006 11.7222 44.5165 11.4447 44.5475 11.1687L50.0475 16.6687C49.7856 17.4519 49.6177 18.2634 49.5475 19.0862C48.0748 18.5749 46.7977 17.618 45.8933 16.3483C44.9889 15.0786 44.502 13.5589 44.5 12ZM52.9162 22.4575C53.739 22.3873 54.5506 22.2194 55.3337 21.9575L60.8337 27.4575C60.5568 27.4869 60.2785 27.5011 60 27.5C58.4421 27.4979 56.9234 27.0114 55.6543 26.108C54.3851 25.2045 53.4283 23.9288 52.9162 22.4575ZM63.9762 26.355L58.135 20.5137C59.0476 19.853 59.8493 19.0513 60.51 18.1387L66.3512 23.98C65.7478 24.9398 64.9361 25.7515 63.9762 26.355Z" fill="white"/>
</g>
<defs>
<clipPath id="clip0_27_5706">
<rect width="72" height="32" rx="5" fill="white"/>
</clipPath>
</defs>
</svg>
