<svg width="72" height="32" viewBox="0 0 72 32" fill="none" xmlns="http://www.w3.org/2000/svg">
<g clip-path="url(#clip0_27_3086)">
<path d="M9.2925 9.70749C9.19952 9.61462 9.12576 9.50433 9.07544 9.38293C9.02512 9.26154 8.99921 9.13141 8.99921 8.99999C8.99921 8.86858 9.02512 8.73845 9.07544 8.61705C9.12576 8.49566 9.19952 8.38537 9.2925 8.29249L15.2925 2.29249C15.3854 2.19952 15.4957 2.12576 15.6171 2.07543C15.7385 2.02511 15.8686 1.99921 16 1.99921C16.1314 1.99921 16.2615 2.02511 16.3829 2.07543C16.5043 2.12576 16.6146 2.19952 16.7075 2.29249L22.7075 8.29249C22.8951 8.48013 23.0006 8.73463 23.0006 8.99999C23.0006 9.26536 22.8951 9.51985 22.7075 9.70749C22.5199 9.89513 22.2654 10.0005 22 10.0005C21.7346 10.0005 21.4801 9.89513 21.2925 9.70749L17 5.41374V16C17 16.2652 16.8946 16.5196 16.7071 16.7071C16.5196 16.8946 16.2652 17 16 17C15.7348 17 15.4804 16.8946 15.2929 16.7071C15.1054 16.5196 15 16.2652 15 16V5.41374L10.7075 9.70749C10.6146 9.80047 10.5043 9.87423 10.3829 9.92455C10.2615 9.97488 10.1314 10.0008 10 10.0008C9.86858 10.0008 9.73846 9.97488 9.61706 9.92455C9.49566 9.87423 9.38537 9.80047 9.2925 9.70749ZM30 17V25C30 25.5304 29.7893 26.0391 29.4142 26.4142C29.0391 26.7893 28.5304 27 28 27H4C3.46957 27 2.96086 26.7893 2.58579 26.4142C2.21071 26.0391 2 25.5304 2 25V17C2 16.4696 2.21071 15.9609 2.58579 15.5858C2.96086 15.2107 3.46957 15 4 15H12.5C12.6326 15 12.7598 15.0527 12.8536 15.1464C12.9473 15.2402 13 15.3674 13 15.5V15.9325C13 17.6137 14.375 19.0312 16.0575 19C16.8431 18.9849 17.5915 18.6622 18.1417 18.1012C18.692 17.5403 19.0001 16.7858 19 16V15.5C19 15.3674 19.0527 15.2402 19.1464 15.1464C19.2402 15.0527 19.3674 15 19.5 15H28C28.5304 15 29.0391 15.2107 29.4142 15.5858C29.7893 15.9609 30 16.4696 30 17ZM25 21C25 20.7033 24.912 20.4133 24.7472 20.1666C24.5824 19.92 24.3481 19.7277 24.074 19.6142C23.7999 19.5006 23.4983 19.4709 23.2074 19.5288C22.9164 19.5867 22.6491 19.7296 22.4393 19.9393C22.2296 20.1491 22.0867 20.4164 22.0288 20.7074C21.9709 20.9983 22.0007 21.2999 22.1142 21.574C22.2277 21.8481 22.42 22.0824 22.6666 22.2472C22.9133 22.412 23.2033 22.5 23.5 22.5C23.8978 22.5 24.2794 22.342 24.5607 22.0607C24.842 21.7793 25 21.3978 25 21Z" fill="white"/>
<path d="M63.5 23C63.1044 23 62.7178 22.8827 62.3889 22.663C62.06 22.4432 61.8036 22.1308 61.6522 21.7654C61.5009 21.3999 61.4613 20.9978 61.5384 20.6098C61.6156 20.2219 61.8061 19.8655 62.0858 19.5858C62.3655 19.3061 62.7219 19.1156 63.1098 19.0385C63.4978 18.9613 63.8999 19.0009 64.2654 19.1523C64.6308 19.3036 64.9432 19.56 65.1629 19.8889C65.3827 20.2178 65.5 20.6045 65.5 21C65.5 21.5305 65.2893 22.0392 64.9142 22.4142C64.5391 22.7893 64.0304 23 63.5 23ZM68 14.5H62.5C62.1022 14.5 61.7206 14.6581 61.4393 14.9394C61.158 15.2207 61 15.6022 61 16C61 16.3978 61.158 16.7794 61.4393 17.0607C61.7206 17.342 62.1022 17.5 62.5 17.5H67.5V24.5H44.5V17.5H49.5C49.8978 17.5 50.2794 17.342 50.5607 17.0607C50.842 16.7794 51 16.3978 51 16C51 15.6022 50.842 15.2207 50.5607 14.9394C50.2794 14.6581 49.8978 14.5 49.5 14.5H44C43.337 14.5 42.7011 14.7634 42.2322 15.2323C41.7634 15.7011 41.5 16.337 41.5 17V25C41.5 25.6631 41.7634 26.2989 42.2322 26.7678C42.7011 27.2366 43.337 27.5 44 27.5H68C68.663 27.5 69.2989 27.2366 69.7678 26.7678C70.2366 26.2989 70.5 25.6631 70.5 25V17C70.5 16.337 70.2366 15.7011 69.7678 15.2323C69.2989 14.7634 68.663 14.5 68 14.5ZM51.0612 10.0613L54.5 6.62502V16C54.5 16.3978 54.658 16.7794 54.9393 17.0607C55.2206 17.342 55.6022 17.5 56 17.5C56.3978 17.5 56.7794 17.342 57.0607 17.0607C57.342 16.7794 57.5 16.3978 57.5 16V6.62502L60.9387 10.065C61.0783 10.2046 61.2439 10.3152 61.4262 10.3907C61.6085 10.4663 61.8039 10.5051 62.0012 10.5051C62.1986 10.5051 62.394 10.4663 62.5763 10.3907C62.7586 10.3152 62.9242 10.2046 63.0637 10.065C63.2033 9.92549 63.314 9.75985 63.3895 9.57754C63.465 9.39524 63.5039 9.19985 63.5039 9.00252C63.5039 8.8052 63.465 8.60981 63.3895 8.4275C63.314 8.2452 63.2033 8.07955 63.0637 7.94002L57.0637 1.94002C56.9244 1.80018 56.7588 1.68923 56.5765 1.61352C56.3941 1.53781 56.1987 1.49884 56.0012 1.49884C55.8038 1.49884 55.6083 1.53781 55.426 1.61352C55.2437 1.68923 55.0781 1.80018 54.9388 1.94002L48.9388 7.94002C48.7992 8.07955 48.6885 8.2452 48.613 8.4275C48.5375 8.60981 48.4986 8.8052 48.4986 9.00252C48.4986 9.40104 48.657 9.78323 48.9388 10.065C49.2205 10.3468 49.6027 10.5051 50.0013 10.5051C50.3998 10.5051 50.782 10.3468 51.0638 10.065L51.0612 10.0613Z" fill="white"/>
</g>
<defs>
<clipPath id="clip0_27_3086">
<rect width="72" height="32" rx="5" fill="white"/>
</clipPath>
</defs>
</svg>
