<svg width="72" height="32" viewBox="0 0 72 32" fill="none" xmlns="http://www.w3.org/2000/svg">
<g clip-path="url(#clip0_27_3091)">
<path d="M28 18V26C28 26.2652 27.8946 26.5196 27.7071 26.7071C27.5196 26.8946 27.2652 27 27 27H5C4.73478 27 4.48043 26.8946 4.29289 26.7071C4.10536 26.5196 4 26.2652 4 26V18C4 17.7348 4.10536 17.4804 4.29289 17.2929C4.48043 17.1053 4.73478 17 5 17C5.26522 17 5.51957 17.1053 5.70711 17.2929C5.89464 17.4804 6 17.7348 6 18V25H26V18C26 17.7348 26.1054 17.4804 26.2929 17.2929C26.4804 17.1053 26.7348 17 27 17C27.2652 17 27.5196 17.1053 27.7071 17.2929C27.8946 17.4804 28 17.7348 28 18ZM11 9.99999H15V18C15 18.2652 15.1054 18.5196 15.2929 18.7071C15.4804 18.8946 15.7348 19 16 19C16.2652 19 16.5196 18.8946 16.7071 18.7071C16.8946 18.5196 17 18.2652 17 18V9.99999H21C21.1979 10.0001 21.3914 9.94158 21.556 9.83171C21.7206 9.72184 21.8489 9.56561 21.9246 9.38278C22.0004 9.19996 22.0202 8.99877 21.9815 8.80469C21.9429 8.6106 21.8475 8.43235 21.7075 8.29249L16.7075 3.29249C16.6146 3.19952 16.5043 3.12576 16.3829 3.07543C16.2615 3.02511 16.1314 2.99921 16 2.99921C15.8686 2.99921 15.7385 3.02511 15.6171 3.07543C15.4957 3.12576 15.3854 3.19952 15.2925 3.29249L10.2925 8.29249C10.1525 8.43235 10.0571 8.6106 10.0185 8.80469C9.97982 8.99877 9.99963 9.19996 10.0754 9.38278C10.1511 9.56561 10.2794 9.72184 10.444 9.83171C10.6086 9.94158 10.8021 10.0001 11 9.99999Z" fill="white"/>
<path d="M68.5 18V26C68.5 26.3978 68.342 26.7794 68.0607 27.0607C67.7794 27.342 67.3978 27.5 67 27.5H45C44.6022 27.5 44.2206 27.342 43.9393 27.0607C43.658 26.7794 43.5 26.3978 43.5 26V18C43.5 17.6022 43.658 17.2207 43.9393 16.9394C44.2206 16.6581 44.6022 16.5 45 16.5C45.3978 16.5 45.7794 16.6581 46.0607 16.9394C46.342 17.2207 46.5 17.6022 46.5 18V24.5H65.5V18C65.5 17.6022 65.658 17.2207 65.9393 16.9394C66.2206 16.6581 66.6022 16.5 67 16.5C67.3978 16.5 67.7794 16.6581 68.0607 16.9394C68.342 17.2207 68.5 17.6022 68.5 18ZM52.0612 10.0613L54.5 7.62502V18C54.5 18.3978 54.658 18.7794 54.9393 19.0607C55.2206 19.342 55.6022 19.5 56 19.5C56.3978 19.5 56.7794 19.342 57.0607 19.0607C57.342 18.7794 57.5 18.3978 57.5 18V7.62502L59.9387 10.065C60.0783 10.2046 60.2439 10.3152 60.4262 10.3907C60.6085 10.4663 60.8039 10.5051 61.0012 10.5051C61.1986 10.5051 61.394 10.4663 61.5763 10.3907C61.7586 10.3152 61.9242 10.2046 62.0637 10.065C62.2033 9.92549 62.314 9.75985 62.3895 9.57754C62.465 9.39524 62.5039 9.19985 62.5039 9.00252C62.5039 8.8052 62.465 8.60981 62.3895 8.4275C62.314 8.2452 62.2033 8.07955 62.0637 7.94002L57.0637 2.94002C56.9244 2.80018 56.7588 2.68923 56.5765 2.61352C56.3941 2.53781 56.1987 2.49884 56.0012 2.49884C55.8038 2.49884 55.6083 2.53781 55.426 2.61352C55.2437 2.68923 55.0781 2.80018 54.9388 2.94002L49.9388 7.94002C49.7992 8.07955 49.6885 8.2452 49.613 8.4275C49.5375 8.60981 49.4986 8.8052 49.4986 9.00252C49.4986 9.40104 49.657 9.78323 49.9388 10.065C50.2205 10.3468 50.6027 10.5051 51.0013 10.5051C51.3998 10.5051 51.782 10.3468 52.0638 10.065L52.0612 10.0613Z" fill="white"/>
</g>
<defs>
<clipPath id="clip0_27_3091">
<rect width="72" height="32" rx="5" fill="white"/>
</clipPath>
</defs>
</svg>
