<svg width="72" height="32" viewBox="0 0 72 32" fill="none" xmlns="http://www.w3.org/2000/svg">
<g clip-path="url(#clip0_27_3437)">
<path d="M24.766 25.3562C24.8887 25.5021 24.9671 25.6799 24.9921 25.8688C25.0171 26.0577 24.9876 26.2498 24.9071 26.4225C24.8266 26.5952 24.6985 26.7413 24.5377 26.8436C24.3769 26.9459 24.1903 27.0002 23.9998 27H2.99976C2.80932 26.9999 2.62285 26.9455 2.46229 26.8431C2.30172 26.7407 2.17373 26.5946 2.09338 26.4219C2.01302 26.2493 1.98364 26.0573 2.00869 25.8685C2.03373 25.6797 2.11217 25.502 2.23476 25.3562C4.10226 23.1337 6.42476 21.555 9.00601 20.71C7.43839 19.7336 6.23142 18.2733 5.56768 16.5498C4.90395 14.8264 4.81958 12.9337 5.32733 11.1581C5.83508 9.38242 6.90733 7.82045 8.38185 6.70847C9.85638 5.59649 11.6529 4.995 13.4998 4.995C15.3466 4.995 17.1432 5.59649 18.6177 6.70847C20.0922 7.82045 21.1645 9.38242 21.6722 11.1581C22.18 12.9337 22.0956 14.8264 21.4318 16.5498C20.7681 18.2733 19.5611 19.7336 17.9935 20.71C20.5748 21.555 22.8973 23.1337 24.766 25.3562ZM24.6073 7.67374C24.4864 7.72526 24.3769 7.80009 24.285 7.89394C24.1931 7.98779 24.1206 8.09882 24.0716 8.22071C24.0226 8.34259 23.9981 8.47294 23.9995 8.60429C24.0009 8.73564 24.0282 8.86543 24.0798 8.98624C24.6869 10.4136 24.9998 11.9488 24.9998 13.5C24.9998 15.0511 24.6869 16.5863 24.0798 18.0137C23.9755 18.2577 23.9724 18.5332 24.0712 18.7794C24.1701 19.0257 24.3626 19.2226 24.6066 19.3269C24.8506 19.4311 25.1261 19.4342 25.3723 19.3354C25.6186 19.2366 25.8155 19.044 25.9198 18.8C26.6324 17.1239 26.9997 15.3213 26.9997 13.5C26.9997 11.6787 26.6324 9.87609 25.9198 8.19999C25.8155 7.95618 25.6186 7.76377 25.3725 7.66508C25.1264 7.56639 24.8511 7.56951 24.6073 7.67374ZM29.5885 6.60624C29.5394 6.48178 29.4659 6.36843 29.3722 6.2729C29.2785 6.17738 29.1667 6.10162 29.0432 6.05012C28.9197 5.99861 28.7871 5.97241 28.6534 5.97306C28.5196 5.97371 28.3873 6.0012 28.2643 6.0539C28.1413 6.10661 28.0302 6.18345 27.9374 6.27988C27.8447 6.37631 27.7723 6.49037 27.7244 6.61531C27.6765 6.74024 27.6542 6.87351 27.6588 7.00723C27.6634 7.14094 27.6947 7.27237 27.751 7.39374C28.575 9.32406 28.9998 11.4012 28.9998 13.5C28.9998 15.5988 28.575 17.6759 27.751 19.6062C27.6947 19.7276 27.6634 19.8591 27.6588 19.9928C27.6542 20.1265 27.6765 20.2597 27.7244 20.3847C27.7723 20.5096 27.8447 20.6237 27.9374 20.7201C28.0302 20.8165 28.1413 20.8934 28.2643 20.9461C28.3873 20.9988 28.5196 21.0263 28.6534 21.0269C28.7871 21.0276 28.9197 21.0014 29.0432 20.9499C29.1667 20.8984 29.2785 20.8226 29.3722 20.7271C29.4659 20.6316 29.5394 20.5182 29.5885 20.3937C30.5197 18.2147 30.9998 15.8696 30.9998 13.5C30.9998 11.1303 30.5197 8.78526 29.5885 6.60624Z" fill="white"/>
<path d="M59.0628 20.5662C60.534 19.4096 61.608 17.8231 62.1355 16.0275C62.6629 14.2319 62.6175 12.3165 62.0055 10.548C61.3935 8.77941 60.2454 7.24561 58.721 6.16002C57.1966 5.07442 55.3717 4.49103 53.5003 4.49103C51.6288 4.49103 49.8039 5.07442 48.2795 6.16002C46.7551 7.24561 45.6071 8.77941 44.9951 10.548C44.3831 12.3165 44.3377 14.2319 44.8651 16.0275C45.3925 17.8231 46.4666 19.4096 47.9378 20.5662C45.5719 21.5317 43.4812 23.0668 41.8515 25.035C41.5956 25.3397 41.4712 25.7335 41.5056 26.1299C41.5401 26.5263 41.7306 26.8928 42.0353 27.1487C42.34 27.4047 42.7338 27.5291 43.1302 27.4946C43.5266 27.4602 43.8931 27.2697 44.149 26.965C45.8603 24.9275 48.8753 22.5 53.5003 22.5C58.1253 22.5 61.1403 24.9275 62.8515 26.965C63.1075 27.2697 63.474 27.4602 63.8704 27.4946C64.2668 27.5291 64.6606 27.4047 64.9653 27.1487C65.27 26.8928 65.4605 26.5263 65.4949 26.1299C65.5294 25.7335 65.405 25.3397 65.149 25.035C63.5197 23.0665 61.4289 21.5314 59.0628 20.5662ZM47.5003 13.5C47.5003 12.3133 47.8522 11.1533 48.5115 10.1666C49.1708 9.17987 50.1078 8.41084 51.2042 7.95671C52.3005 7.50258 53.5069 7.38376 54.6708 7.61528C55.8347 7.84679 56.9038 8.41823 57.7429 9.25735C58.582 10.0965 59.1535 11.1656 59.385 12.3294C59.6165 13.4933 59.4977 14.6997 59.0436 15.7961C58.5894 16.8924 57.8204 17.8295 56.8337 18.4888C55.847 19.1481 54.687 19.5 53.5003 19.5C51.9095 19.4983 50.3843 18.8657 49.2595 17.7408C48.1346 16.6159 47.5019 15.0908 47.5003 13.5ZM71.5003 13.5C71.5049 15.9379 71.011 18.3511 70.049 20.5912C69.9806 20.7848 69.8731 20.9622 69.7332 21.1126C69.5934 21.2629 69.4242 21.3829 69.236 21.4652C69.0479 21.5475 68.8449 21.5903 68.6396 21.5909C68.4343 21.5916 68.231 21.55 68.0424 21.4689C67.8538 21.3878 67.6838 21.2689 67.543 21.1194C67.4023 20.9699 67.2937 20.7932 67.224 20.6C67.1543 20.4069 67.125 20.2015 67.1379 19.9966C67.1508 19.7917 67.2057 19.5916 67.299 19.4087C68.0958 17.5407 68.5066 15.5308 68.5066 13.5C68.5066 11.4691 68.0958 9.45925 67.299 7.59124C67.2057 7.40838 67.1508 7.2083 67.1379 7.00338C67.125 6.79847 67.1543 6.59308 67.224 6.39995C67.2937 6.20682 67.4023 6.03004 67.543 5.88058C67.6838 5.73112 67.8538 5.61215 68.0424 5.53105C68.231 5.44994 68.4343 5.40842 68.6396 5.40906C68.8449 5.4097 69.0479 5.45248 69.236 5.53476C69.4242 5.61704 69.5934 5.73706 69.7332 5.8874C69.8731 6.03773 69.9806 6.21517 70.049 6.40874C71.011 8.64888 71.5049 11.062 71.5003 13.5ZM65.8753 8.09499C66.6182 9.80011 67.0016 11.6401 67.0016 13.5C67.0016 15.3599 66.6182 17.1999 65.8753 18.905C65.7158 19.2697 65.418 19.5561 65.0474 19.7012C64.6768 19.8463 64.2637 19.8382 63.899 19.6787C63.5344 19.5193 63.248 19.2215 63.1029 18.8509C62.9578 18.4802 62.9658 18.0672 63.1253 17.7025C63.7016 16.3764 63.999 14.9459 63.999 13.5C63.999 12.0541 63.7016 10.6236 63.1253 9.29749C62.9658 8.93281 62.9578 8.51973 63.1029 8.14911C63.248 7.77849 63.5344 7.4807 63.899 7.32124C64.2637 7.16178 64.6768 7.15371 65.0474 7.29882C65.418 7.44392 65.7158 7.73032 65.8753 8.09499Z" fill="white"/>
</g>
<defs>
<clipPath id="clip0_27_3437">
<rect width="72" height="32" rx="5" fill="white"/>
</clipPath>
</defs>
</svg>
