<svg width="72" height="32" viewBox="0 0 72 32" fill="none" xmlns="http://www.w3.org/2000/svg">
<g clip-path="url(#clip0_27_3447)">
<path d="M10.5004 15C10.5004 13.9122 10.823 12.8488 11.4273 11.9444C12.0317 11.0399 12.8906 10.335 13.8956 9.91868C14.9006 9.50239 16.0065 9.39348 17.0734 9.60569C18.1403 9.81791 19.1203 10.3417 19.8895 11.1109C20.6587 11.8801 21.1825 12.8601 21.3947 13.927C21.6069 14.9939 21.498 16.0998 21.0817 17.1048C20.6654 18.1098 19.9605 18.9687 19.056 19.5731C18.1516 20.1774 17.0882 20.5 16.0004 20.5C14.5417 20.5 13.1428 19.9206 12.1113 18.8891C11.0799 17.8577 10.5004 16.4587 10.5004 15ZM26.2704 22.1475C26.0476 22.0182 25.7843 21.9774 25.5328 22.0332C25.2814 22.089 25.0601 22.2373 24.9129 22.4488C24.6974 22.7456 24.4671 23.0314 24.2229 23.305C23.4954 22.249 22.571 21.3433 21.5004 20.6375C21.4091 20.577 21.3004 20.5481 21.1911 20.5553C21.0818 20.5626 20.9779 20.6055 20.8954 20.6775C19.5369 21.853 17.8006 22.5 16.0041 22.5C14.2077 22.5 12.4713 21.853 11.1129 20.6775C11.0298 20.6037 10.9244 20.5597 10.8135 20.5525C10.7026 20.5452 10.5924 20.5751 10.5004 20.6375C9.42959 21.342 8.50477 22.2464 7.77664 23.3013C6.21496 21.5476 5.25795 19.3387 5.04664 17H6.97164C7.1335 17.0026 7.29367 16.9667 7.43902 16.8955C7.58437 16.8242 7.71078 16.7195 7.80789 16.59C7.94879 16.3974 8.01616 16.1607 7.99782 15.9228C7.97948 15.6848 7.87665 15.4613 7.70789 15.2925L4.70789 12.2925C4.61502 12.1995 4.50473 12.1258 4.38333 12.0755C4.26193 12.0251 4.1318 11.9992 4.00039 11.9992C3.86897 11.9992 3.73885 12.0251 3.61745 12.0755C3.49605 12.1258 3.38576 12.1995 3.29289 12.2925L0.292889 15.2925C0.124134 15.4613 0.0212975 15.6848 0.00295823 15.9228C-0.0153811 16.1607 0.0519861 16.3974 0.192889 16.59C0.289999 16.7195 0.416406 16.8242 0.561759 16.8955C0.707111 16.9667 0.867277 17.0026 1.02914 17H3.03789C3.24241 19.6586 4.25953 22.1901 5.95136 24.2511C7.64318 26.3121 9.92786 27.8031 12.4957 28.5218C15.0635 29.2405 17.7902 29.1522 20.3061 28.2689C22.822 27.3855 25.0054 25.7499 26.5604 23.5838C26.6406 23.4721 26.6969 23.3451 26.7259 23.2106C26.7548 23.0762 26.7556 22.9372 26.7284 22.8024C26.7012 22.6676 26.6465 22.5399 26.5677 22.4272C26.4889 22.3145 26.3877 22.2193 26.2704 22.1475ZM31.9241 15.6175C31.8485 15.4348 31.7203 15.2786 31.5559 15.1687C31.3915 15.0587 31.1982 15.0001 31.0004 15H28.9629C28.7584 12.3414 27.7412 9.80996 26.0494 7.74892C24.3576 5.68789 22.0729 4.19695 19.5051 3.47825C16.9373 2.75954 14.2106 2.84784 11.6947 3.73116C9.17877 4.61448 6.99533 6.2501 5.44039 8.41626C5.28557 8.63175 5.22269 8.89992 5.26559 9.16176C5.30849 9.42361 5.45365 9.65769 5.66914 9.81251C5.88463 9.96733 6.15279 10.0302 6.41464 9.98731C6.67649 9.94441 6.91057 9.79925 7.06539 9.58376C8.37361 7.76232 10.2073 6.38423 12.3207 5.63419C14.4341 4.88414 16.7263 4.79798 18.8901 5.38723C21.0539 5.97648 22.9858 7.213 24.4271 8.93109C25.8684 10.6492 26.7501 12.7667 26.9541 15H25.0004C24.8025 14.9999 24.609 15.0584 24.4444 15.1683C24.2798 15.2782 24.1515 15.4344 24.0758 15.6172C24 15.8 23.9802 16.0012 24.0189 16.1953C24.0575 16.3894 24.1529 16.5677 24.2929 16.7075L27.2929 19.7075C27.3858 19.8005 27.496 19.8743 27.6174 19.9246C27.7388 19.9749 27.869 20.0008 28.0004 20.0008C28.1318 20.0008 28.2619 19.9749 28.3833 19.9246C28.5047 19.8743 28.615 19.8005 28.7079 19.7075L31.7079 16.7075C31.8477 16.5676 31.9429 16.3893 31.9814 16.1953C32.0199 16.0013 31.9999 15.8002 31.9241 15.6175Z" fill="white"/>
<path d="M66.6248 21.7825C66.4648 21.6673 66.2837 21.5848 66.0918 21.5396C65.8999 21.4945 65.7009 21.4876 65.5063 21.5194C65.3118 21.5512 65.1254 21.6211 64.9578 21.725C64.7903 21.8289 64.6448 21.9648 64.5298 22.125C64.4073 22.2967 64.2803 22.4633 64.1486 22.625C63.2498 21.1195 61.9519 19.8921 60.3986 19.0788C61.1935 18.2225 61.7211 17.1529 61.9167 16.0011C62.1124 14.8493 61.9674 13.6654 61.4998 12.5948C61.0321 11.5241 60.2621 10.6133 59.2841 9.97413C58.3062 9.33493 57.1629 8.99514 55.9946 8.99647C54.8263 8.9978 53.6838 9.34019 52.7073 9.98161C51.7308 10.623 50.9629 11.5356 50.4976 12.6073C50.0324 13.679 49.8902 14.8632 50.0884 16.0145C50.2867 17.1659 50.8168 18.2344 51.6136 19.0888C50.0625 19.9011 48.7631 21.1223 47.8561 22.62C46.5862 21.063 45.792 19.173 45.5686 17.1763C45.8665 17.4308 46.2522 17.5586 46.6432 17.5323C47.0342 17.5061 47.3993 17.328 47.6606 17.036C47.9219 16.744 48.0586 16.3613 48.0414 15.9699C48.0242 15.5784 47.8545 15.2092 47.5686 14.9412L45.0686 12.4412C44.9292 12.3014 44.7636 12.1905 44.5813 12.1147C44.399 12.039 44.2035 12.0001 44.0061 12.0001C43.8087 12.0001 43.6132 12.039 43.4309 12.1147C43.2485 12.1905 43.0829 12.3014 42.9436 12.4412L40.4436 14.9412C40.1713 15.2226 40.0198 15.5992 40.0215 15.9907C40.0231 16.3822 40.1778 16.7576 40.4524 17.0366C40.727 17.3156 41.0999 17.4762 41.4913 17.4841C41.8827 17.492 42.2617 17.3465 42.5473 17.0788C42.6893 18.8472 43.1789 20.5703 43.988 22.1492C44.7971 23.7281 45.9098 25.1319 47.2623 26.28C47.334 26.3531 47.4127 26.4188 47.4973 26.4762C49.9082 28.4392 52.9236 29.5083 56.0325 29.5023C59.1414 29.4964 62.1527 28.4159 64.5561 26.4438C64.6122 26.403 64.6656 26.3588 64.7161 26.3113C65.5634 25.5962 66.3192 24.7792 66.9661 23.8787C67.0816 23.7188 67.1643 23.5376 67.2097 23.3456C67.255 23.1536 67.262 22.9545 67.2303 22.7598C67.1986 22.5651 67.1288 22.3786 67.0249 22.2108C66.921 22.0431 66.7851 21.8976 66.6248 21.7825ZM55.9998 12C56.5932 12 57.1732 12.1759 57.6666 12.5056C58.1599 12.8352 58.5444 13.3038 58.7715 13.8519C58.9985 14.4001 59.058 15.0033 58.9422 15.5853C58.8264 16.1672 58.5407 16.7018 58.1212 17.1213C57.7016 17.5409 57.1671 17.8266 56.5851 17.9424C56.0032 18.0581 55.4 17.9987 54.8518 17.7716C54.3036 17.5446 53.8351 17.1601 53.5054 16.6667C53.1758 16.1734 52.9998 15.5933 52.9998 15C52.9998 14.2044 53.3159 13.4413 53.8785 12.8787C54.4411 12.3161 55.2042 12 55.9998 12ZM55.9998 26.5C53.9082 26.5025 51.8641 25.8767 50.1323 24.7038C50.6607 23.5953 51.4922 22.6592 52.5307 22.0038C53.5691 21.3484 54.7719 21.0006 55.9998 21.0006C57.2278 21.0006 58.4306 21.3484 59.469 22.0038C60.5074 22.6592 61.339 23.5953 61.8673 24.7038C60.1338 25.8729 58.0908 26.4983 55.9998 26.5ZM71.5611 17.0613L69.0611 19.5613C68.9217 19.7011 68.7561 19.812 68.5738 19.8878C68.3915 19.9635 68.196 20.0024 67.9986 20.0024C67.8012 20.0024 67.6057 19.9635 67.4234 19.8878C67.241 19.812 67.0754 19.7011 66.9361 19.5613L64.4361 17.0613C64.1502 16.7933 63.9805 16.4241 63.9633 16.0326C63.9461 15.6412 64.0827 15.2585 64.344 14.9665C64.6053 14.6745 64.9705 14.4964 65.3615 14.4702C65.7525 14.4439 66.1382 14.5717 66.4361 14.8263C66.2002 12.7161 65.3301 10.727 63.9406 9.1214C62.5511 7.51585 60.7075 6.36929 58.653 5.83302C56.5985 5.29676 54.4296 5.39597 52.4327 6.11758C50.4357 6.83919 48.7045 8.14929 47.4673 9.875C47.3551 10.0415 47.2107 10.1839 47.0424 10.2935C46.8742 10.4032 46.6857 10.478 46.488 10.5134C46.2904 10.5488 46.0876 10.5442 45.8917 10.4998C45.6959 10.4554 45.511 10.3722 45.3479 10.255C45.1848 10.1378 45.047 9.98906 44.9424 9.81758C44.8379 9.64611 44.7689 9.4554 44.7395 9.25676C44.7101 9.05811 44.7208 8.85558 44.7711 8.66117C44.8214 8.46677 44.9103 8.28444 45.0323 8.125C46.6452 5.87783 48.9093 4.18031 51.5185 3.2621C54.1277 2.3439 56.956 2.24933 59.6207 2.99119C62.2854 3.73305 64.6579 5.27553 66.4172 7.40995C68.1765 9.54436 69.2378 12.1677 69.4573 14.925C69.743 14.6572 70.122 14.5118 70.5134 14.5197C70.9048 14.5275 71.2776 14.6881 71.5523 14.9672C71.8269 15.2462 71.9815 15.6215 71.9832 16.013C71.9848 16.4045 71.8334 16.7812 71.5611 17.0625V17.0613Z" fill="white"/>
</g>
<defs>
<clipPath id="clip0_27_3447">
<rect width="72" height="32" rx="5" fill="white"/>
</clipPath>
</defs>
</svg>
