<svg width="72" height="32" viewBox="0 0 72 32" fill="none" xmlns="http://www.w3.org/2000/svg">
<g clip-path="url(#clip0_27_3417)">
<path d="M18.9995 10C18.9995 9.73478 19.1049 9.48043 19.2924 9.29289C19.48 9.10535 19.7343 9 19.9995 9H30.9995C31.2647 9 31.5191 9.10535 31.7066 9.29289C31.8942 9.48043 31.9995 9.73478 31.9995 10C31.9995 10.2652 31.8942 10.5196 31.7066 10.7071C31.5191 10.8946 31.2647 11 30.9995 11H19.9995C19.7343 11 19.48 10.8946 19.2924 10.7071C19.1049 10.5196 18.9995 10.2652 18.9995 10ZM30.9995 15H19.9995C19.7343 15 19.48 15.1054 19.2924 15.2929C19.1049 15.4804 18.9995 15.7348 18.9995 16C18.9995 16.2652 19.1049 16.5196 19.2924 16.7071C19.48 16.8946 19.7343 17 19.9995 17H30.9995C31.2647 17 31.5191 16.8946 31.7066 16.7071C31.8942 16.5196 31.9995 16.2652 31.9995 16C31.9995 15.7348 31.8942 15.4804 31.7066 15.2929C31.5191 15.1054 31.2647 15 30.9995 15ZM30.9995 21H22.9995C22.7343 21 22.48 21.1054 22.2924 21.2929C22.1049 21.4804 21.9995 21.7348 21.9995 22C21.9995 22.2652 22.1049 22.5196 22.2924 22.7071C22.48 22.8946 22.7343 23 22.9995 23H30.9995C31.2647 23 31.5191 22.8946 31.7066 22.7071C31.8942 22.5196 31.9995 22.2652 31.9995 22C31.9995 21.7348 31.8942 21.4804 31.7066 21.2929C31.5191 21.1054 31.2647 21 30.9995 21ZM13.6608 17.75C14.6532 16.9856 15.3815 15.9297 15.7435 14.7304C16.1056 13.5311 16.0831 12.2486 15.6793 11.0627C15.2756 9.87686 14.5108 8.8471 13.4922 8.11788C12.4736 7.38866 11.2523 6.99655 9.99953 6.99655C8.7468 6.99655 7.52549 7.38866 6.50689 8.11788C5.48828 8.8471 4.72347 9.87686 4.31971 11.0627C3.91595 12.2486 3.8935 13.5311 4.25551 14.7304C4.61751 15.9297 5.34582 16.9856 6.33828 17.75C3.76078 18.8412 1.72953 21.0375 1.03078 23.75C0.992613 23.8978 0.988796 24.0524 1.01962 24.2019C1.05045 24.3514 1.11509 24.4919 1.20861 24.6126C1.30212 24.7332 1.42202 24.8309 1.55912 24.898C1.69622 24.9652 1.84687 25.0001 1.99953 25H17.9995C18.1522 25.0001 18.3028 24.9652 18.4399 24.898C18.577 24.8309 18.6969 24.7332 18.7904 24.6126C18.884 24.4919 18.9486 24.3514 18.9794 24.2019C19.0103 24.0524 19.0064 23.8978 18.9683 23.75C18.2695 21.0362 16.2383 18.84 13.6608 17.75Z" fill="white"/>
<path d="M59.0001 10C59.0001 9.60218 59.1582 9.22065 59.4395 8.93934C59.7208 8.65804 60.1023 8.5 60.5001 8.5H70.5001C70.898 8.5 71.2795 8.65804 71.5608 8.93934C71.8421 9.22065 72.0001 9.60218 72.0001 10C72.0001 10.3978 71.8421 10.7794 71.5608 11.0607C71.2795 11.342 70.898 11.5 70.5001 11.5H60.5001C60.1023 11.5 59.7208 11.342 59.4395 11.0607C59.1582 10.7794 59.0001 10.3978 59.0001 10ZM70.5001 14.5H60.5001C60.1023 14.5 59.7208 14.658 59.4395 14.9393C59.1582 15.2206 59.0001 15.6022 59.0001 16C59.0001 16.3978 59.1582 16.7794 59.4395 17.0607C59.7208 17.342 60.1023 17.5 60.5001 17.5H70.5001C70.898 17.5 71.2795 17.342 71.5608 17.0607C71.8421 16.7794 72.0001 16.3978 72.0001 16C72.0001 15.6022 71.8421 15.2206 71.5608 14.9393C71.2795 14.658 70.898 14.5 70.5001 14.5ZM70.5001 20.5H63.5001C63.1023 20.5 62.7208 20.658 62.4395 20.9393C62.1582 21.2206 62.0001 21.6022 62.0001 22C62.0001 22.3978 62.1582 22.7794 62.4395 23.0607C62.7208 23.342 63.1023 23.5 63.5001 23.5H70.5001C70.898 23.5 71.2795 23.342 71.5608 23.0607C71.8421 22.7794 72.0001 22.3978 72.0001 22C72.0001 21.6022 71.8421 21.2206 71.5608 20.9393C71.2795 20.658 70.898 20.5 70.5001 20.5ZM59.4526 23.625C59.5019 23.8157 59.5131 24.0143 59.4856 24.2094C59.4581 24.4045 59.3924 24.5922 59.2924 24.7619C59.1923 24.9316 59.0598 25.0799 58.9024 25.1984C58.7451 25.3169 58.5659 25.4033 58.3751 25.4525C58.1844 25.5017 57.9858 25.5129 57.7907 25.4854C57.5957 25.4579 57.4079 25.3923 57.2382 25.2922C57.0685 25.1922 56.9202 25.0597 56.8017 24.9023C56.6832 24.7449 56.5969 24.5657 56.5476 24.375C55.8326 21.5963 53.0176 19.5 50.0001 19.5C46.9826 19.5 44.1676 21.595 43.4526 24.375C43.4034 24.5657 43.317 24.7449 43.1986 24.9023C43.0801 25.0597 42.9317 25.1922 42.762 25.2922C42.5923 25.3923 42.4046 25.4579 42.2095 25.4854C42.0144 25.5129 41.8159 25.5017 41.6251 25.4525C41.4344 25.4033 41.2552 25.3169 41.0978 25.1984C40.9404 25.0799 40.8079 24.9316 40.7079 24.7619C40.6078 24.5922 40.5422 24.4045 40.5147 24.2094C40.4872 24.0143 40.4984 23.8157 40.5476 23.625C41.2201 21.0125 43.0589 18.855 45.4364 17.625C44.5178 16.7198 43.8893 15.5618 43.6308 14.2984C43.3723 13.0349 43.4955 11.7231 43.9846 10.5299C44.4738 9.33662 45.3068 8.31584 46.3778 7.59741C47.4488 6.87898 48.7093 6.49536 49.9989 6.49536C51.2885 6.49536 52.549 6.87898 53.6199 7.59741C54.6909 8.31584 55.524 9.33662 56.0131 10.5299C56.5023 11.7231 56.6255 13.0349 56.3669 14.2984C56.1084 15.5618 55.4799 16.7198 54.5614 17.625C56.9414 18.8563 58.7801 21.0138 59.4526 23.625ZM50.0001 16.5C50.6924 16.5 51.3691 16.2947 51.9446 15.9101C52.5202 15.5256 52.9688 14.9789 53.2337 14.3394C53.4986 13.6999 53.5679 12.9961 53.4329 12.3172C53.2978 11.6383 52.9645 11.0146 52.475 10.5251C51.9855 10.0356 51.3619 9.7023 50.6829 9.56726C50.004 9.43221 49.3003 9.50152 48.6607 9.76643C48.0212 10.0313 47.4746 10.4799 47.09 11.0555C46.7054 11.6311 46.5001 12.3078 46.5001 13C46.5001 13.4596 46.5907 13.9148 46.7665 14.3394C46.9424 14.764 47.2002 15.1499 47.5253 15.4749C48.1816 16.1313 49.0719 16.5 50.0001 16.5Z" fill="white"/>
</g>
<defs>
<clipPath id="clip0_27_3417">
<rect width="72" height="32" rx="5" fill="white"/>
</clipPath>
</defs>
</svg>
