<svg width="72" height="32" viewBox="0 0 72 32" fill="none" xmlns="http://www.w3.org/2000/svg">
<g clip-path="url(#clip0_27_3432)">
<path d="M21.5 15C21.5 16.0878 21.1774 17.1512 20.5731 18.0556C19.9687 18.9601 19.1098 19.6651 18.1048 20.0813C17.0998 20.4976 15.9939 20.6065 14.927 20.3943C13.8601 20.1821 12.8801 19.6583 12.1109 18.8891C11.3417 18.1199 10.8179 17.1399 10.6057 16.073C10.3935 15.0061 10.5024 13.9002 10.9187 12.8952C11.3349 11.8902 12.0399 11.0313 12.9444 10.4269C13.8488 9.82257 14.9122 9.5 16 9.5C17.4587 9.5 18.8576 10.0795 19.8891 11.1109C20.9205 12.1424 21.5 13.5413 21.5 15ZM29 7V25C29 25.5304 28.7893 26.0391 28.4142 26.4142C28.0391 26.7893 27.5304 27 27 27H5C4.46957 27 3.96086 26.7893 3.58579 26.4142C3.21071 26.0391 3 25.5304 3 25V7C3 6.46957 3.21071 5.96086 3.58579 5.58579C3.96086 5.21071 4.46957 5 5 5H27C27.5304 5 28.0391 5.21071 28.4142 5.58579C28.7893 5.96086 29 6.46957 29 7ZM27 25V7H5V25H6.835C7.61205 23.2225 8.88935 21.7094 10.5112 20.645C10.6023 20.5846 10.7106 20.5557 10.8197 20.5627C10.9287 20.5697 11.0324 20.6122 11.115 20.6838C12.4728 21.8554 14.2065 22.5 16 22.5C17.7935 22.5 19.5272 21.8554 20.885 20.6838C20.9676 20.6122 21.0713 20.5697 21.1803 20.5627C21.2894 20.5557 21.3977 20.5846 21.4888 20.645C23.1106 21.7094 24.3879 23.2225 25.165 25H27Z" fill="white"/>
<path d="M67 4.5H45C44.337 4.5 43.7011 4.76339 43.2322 5.23223C42.7634 5.70107 42.5 6.33696 42.5 7V25C42.5 25.663 42.7634 26.2989 43.2322 26.7678C43.7011 27.2366 44.337 27.5 45 27.5H67C67.663 27.5 68.2989 27.2366 68.7678 26.7678C69.2366 26.2989 69.5 25.663 69.5 25V7C69.5 6.33696 69.2366 5.70107 68.7678 5.23223C68.2989 4.76339 67.663 4.5 67 4.5ZM52.5 16C52.5 15.3078 52.7053 14.6311 53.0899 14.0555C53.4744 13.4799 54.0211 13.0313 54.6606 12.7664C55.3001 12.5015 56.0039 12.4322 56.6828 12.5673C57.3617 12.7023 57.9854 13.0356 58.4749 13.5251C58.9644 14.0146 59.2977 14.6383 59.4327 15.3172C59.5678 15.9961 59.4985 16.6999 59.2336 17.3394C58.9687 17.9789 58.5201 18.5256 57.9445 18.9101C57.3689 19.2947 56.6922 19.5 56 19.5C55.0717 19.5 54.1815 19.1313 53.5251 18.4749C52.8687 17.8185 52.5 16.9283 52.5 16ZM56 22.5C57.8943 22.4939 59.72 23.209 61.1063 24.5H50.8938C52.28 23.209 54.1057 22.4939 56 22.5ZM66.5 24.5H64.945C63.9096 22.8027 62.4108 21.4365 60.625 20.5625C61.5259 19.6502 62.1368 18.4919 62.381 17.2333C62.6252 15.9747 62.4917 14.6719 61.9974 13.489C61.503 12.306 60.6699 11.2957 59.6027 10.5851C58.5356 9.87445 57.2821 9.49529 56 9.49529C54.7179 9.49529 53.4644 9.87445 52.3973 10.5851C51.3301 11.2957 50.497 12.306 50.0026 13.489C49.5083 14.6719 49.3748 15.9747 49.619 17.2333C49.8632 18.4919 50.4741 19.6502 51.375 20.5625C49.5892 21.4365 48.0904 22.8027 47.055 24.5H45.5V7.5H66.5V24.5Z" fill="white"/>
</g>
<defs>
<clipPath id="clip0_27_3432">
<rect width="72" height="32" rx="5" fill="white"/>
</clipPath>
</defs>
</svg>
