<svg width="72" height="32" viewBox="0 0 72 32" fill="none" xmlns="http://www.w3.org/2000/svg">
<g clip-path="url(#clip0_27_3397)">
<path d="M16.0003 9.50001C17.0881 9.50001 18.1515 9.82258 19.0559 10.4269C19.9604 11.0313 20.6653 11.8903 21.0816 12.8953C21.4979 13.9002 21.6068 15.0061 21.3946 16.073C21.1824 17.1399 20.6586 18.1199 19.8894 18.8891C19.1202 19.6583 18.1402 20.1821 17.0733 20.3943C16.0064 20.6065 14.9005 20.4976 13.8955 20.0813C12.8905 19.6651 12.0316 18.9601 11.4272 18.0556C10.8229 17.1512 10.5003 16.0878 10.5003 15C10.5003 13.5413 11.0797 12.1424 12.1112 11.1109C13.1426 10.0795 14.5416 9.50001 16.0003 9.50001ZM22.0003 8.00001H28.0003C28.2655 8.00001 28.5199 7.89465 28.7074 7.70712C28.8949 7.51958 29.0003 7.26523 29.0003 7.00001C29.0003 6.73479 28.8949 6.48044 28.7074 6.2929C28.5199 6.10537 28.2655 6.00001 28.0003 6.00001H22.0003C21.7351 6.00001 21.4807 6.10537 21.2932 6.2929C21.1056 6.48044 21.0003 6.73479 21.0003 7.00001C21.0003 7.26523 21.1056 7.51958 21.2932 7.70712C21.4807 7.89465 21.7351 8.00001 22.0003 8.00001ZM26.984 11.0575C26.7341 11.1461 26.5296 11.3303 26.4154 11.5696C26.3012 11.8089 26.2868 12.0838 26.3753 12.3338C27.029 14.1875 27.174 16.1826 26.7952 18.1114C26.4164 20.0403 25.5277 21.8323 24.2215 23.3013C23.4938 22.247 22.5699 21.3426 21.5003 20.6375C21.409 20.577 21.3003 20.5481 21.191 20.5553C21.0817 20.5626 20.9778 20.6055 20.8953 20.6775C19.5366 21.8531 17.8001 22.5001 16.0034 22.5001C14.2068 22.5001 12.4702 21.8531 11.1115 20.6775C11.0285 20.604 10.9234 20.5602 10.8128 20.5529C10.7021 20.5457 10.5922 20.5755 10.5003 20.6375C9.42949 21.342 8.50467 22.2464 7.77654 23.3013C6.36972 21.716 5.45086 19.758 5.13045 17.6629C4.81005 15.5677 5.10175 13.4247 5.97048 11.4914C6.8392 9.55811 8.24796 7.91697 10.0273 6.76537C11.8066 5.61376 13.8808 5.00073 16.0003 5.00001C16.6151 4.99991 17.2289 5.05092 17.8353 5.15251C18.0957 5.1936 18.3618 5.1302 18.5756 4.97612C18.7895 4.82204 18.9339 4.58974 18.9774 4.32974C19.0209 4.06974 18.96 3.80308 18.8079 3.58777C18.6558 3.37246 18.4249 3.22592 18.1653 3.18001C15.3556 2.70784 12.4687 3.17266 9.9492 4.50285C7.42973 5.83304 5.41757 7.95478 4.22272 10.5412C3.02788 13.1276 2.71666 16.0351 3.33701 18.8158C3.95737 21.5965 5.47487 24.0961 7.65572 25.9294C9.83657 27.7627 12.5597 28.828 15.4057 28.9612C18.2516 29.0944 21.0624 28.2881 23.405 26.6665C25.7475 25.0449 27.4919 22.698 28.3692 19.9874C29.2466 17.2768 29.2083 14.353 28.2603 11.6663C28.1717 11.4163 27.9875 11.2118 27.7482 11.0976C27.5089 10.9835 27.234 10.969 26.984 11.0575Z" fill="white"/>
<path d="M60.4996 7C60.4996 6.60218 60.6576 6.22064 60.9389 5.93934C61.2202 5.65804 61.6018 5.5 61.9996 5.5H67.9996C68.3974 5.5 68.779 5.65804 69.0603 5.93934C69.3416 6.22064 69.4996 6.60218 69.4996 7C69.4996 7.39783 69.3416 7.77936 69.0603 8.06066C68.779 8.34197 68.3974 8.5 67.9996 8.5H61.9996C61.6018 8.5 61.2202 8.34197 60.9389 8.06066C60.6576 7.77936 60.4996 7.39783 60.4996 7ZM68.7309 11.5C69.686 14.2017 69.7568 17.1373 68.9328 19.8818C68.1088 22.6264 66.4329 25.0376 64.1475 26.7664C61.8622 28.4952 59.086 29.452 56.2208 29.4982C53.3556 29.5445 50.55 28.6778 48.2101 27.0237C45.8701 25.3695 44.1172 23.0137 43.2051 20.2971C42.293 17.5806 42.2689 14.6443 43.1364 11.9132C44.0039 9.18203 45.7179 6.7978 48.0305 5.10552C50.343 3.41324 53.134 2.50071 55.9996 2.5C56.7535 2.49984 57.506 2.56214 58.2496 2.68625C58.642 2.75255 58.9919 2.97201 59.2225 3.29633C59.453 3.62065 59.5453 4.02327 59.479 4.41563C59.4127 4.80798 59.1932 5.15793 58.8689 5.38848C58.5446 5.61903 58.142 5.7113 57.7496 5.645C57.1713 5.54846 56.5859 5.49996 55.9996 5.5C54.0285 5.49867 52.0969 6.05259 50.426 7.0983C48.7552 8.14402 47.4127 9.63924 46.5523 11.4127C45.6919 13.1861 45.3485 15.166 45.5614 17.1256C45.7742 19.0852 46.5348 20.9452 47.7559 22.4925C48.7281 21.2559 49.9673 20.2551 51.3809 19.565C50.48 18.6527 49.869 17.4944 49.6248 16.2358C49.3806 14.9772 49.5141 13.6744 50.0085 12.4915C50.5028 11.3085 51.336 10.2982 52.4031 9.58757C53.4703 8.87695 54.7238 8.49779 56.0059 8.49779C57.288 8.49779 58.5414 8.87695 59.6086 9.58757C60.6757 10.2982 61.5089 11.3085 62.0032 12.4915C62.4976 13.6744 62.6311 14.9772 62.3869 16.2358C62.1427 17.4944 61.5317 18.6527 60.6309 19.565C62.0447 20.2547 63.284 21.2556 64.2559 22.4925C65.3511 21.1011 66.0765 19.4552 66.3643 17.708C66.6522 15.9608 66.4932 14.1692 65.9021 12.5C65.7695 12.1249 65.7913 11.7125 65.9628 11.3534C66.1343 10.9944 66.4414 10.7182 66.8165 10.5856C67.1916 10.453 67.604 10.4749 67.963 10.6463C68.3221 10.8178 68.5982 11.1249 68.7309 11.5ZM55.9996 18.5C56.6918 18.5 57.3685 18.2947 57.9441 17.9101C58.5197 17.5256 58.9683 16.9789 59.2332 16.3394C59.4981 15.6999 59.5674 14.9961 59.4324 14.3172C59.2973 13.6383 58.964 13.0146 58.4745 12.5251C57.985 12.0356 57.3614 11.7023 56.6824 11.5673C56.0035 11.4322 55.2998 11.5015 54.6602 11.7664C54.0207 12.0313 53.474 12.4799 53.0895 13.0555C52.7049 13.6311 52.4996 14.3078 52.4996 15C52.4996 15.9283 52.8684 16.8185 53.5247 17.4749C54.1811 18.1313 55.0713 18.5 55.9996 18.5ZM55.9996 26.5C58.1689 26.5016 60.2848 25.8274 62.0534 24.5713C61.357 23.6191 60.4459 22.8447 59.394 22.3108C58.3422 21.7769 57.1792 21.4987 55.9996 21.4987C54.82 21.4987 53.657 21.7769 52.6052 22.3108C51.5533 22.8447 50.6422 23.6191 49.9459 24.5713C51.7144 25.8274 53.8303 26.5016 55.9996 26.5Z" fill="white"/>
</g>
<defs>
<clipPath id="clip0_27_3397">
<rect width="72" height="32" rx="5" fill="white"/>
</clipPath>
</defs>
</svg>
