<svg width="72" height="32" viewBox="0 0 72 32" fill="none" xmlns="http://www.w3.org/2000/svg">
<g clip-path="url(#clip0_27_3382)">
<path d="M28.8195 13.835C29.2764 16.5507 28.8584 19.3413 27.6258 21.804C26.3933 24.2666 24.41 26.2738 21.9623 27.5358C19.5146 28.7978 16.7292 29.2492 14.0082 28.8249C11.2872 28.4006 8.7715 27.1226 6.82423 25.1753C4.87696 23.2281 3.59892 20.7123 3.17464 17.9913C2.75036 15.2704 3.2018 12.4849 4.46377 10.0373C5.72575 7.58958 7.73295 5.60628 10.1956 4.37373C12.6582 3.14118 15.4488 2.72316 18.1645 3.18001C18.4241 3.22592 18.6551 3.37247 18.8072 3.58778C18.9593 3.80309 19.0202 4.06974 18.9767 4.32974C18.9332 4.58974 18.7888 4.82204 18.5749 4.97613C18.361 5.13021 18.0949 5.1936 17.8345 5.15251C16.2572 4.88717 14.641 4.96873 13.0984 5.39152C11.5558 5.81431 10.1238 6.56817 8.90219 7.60064C7.68056 8.63311 6.69858 9.91938 6.02459 11.3699C5.35061 12.8205 5.00081 14.4005 4.99954 16C4.99717 18.6928 5.98686 21.292 7.77954 23.3013C8.50657 22.2468 9.43009 21.3424 10.4995 20.6375C10.5908 20.577 10.6995 20.5481 10.8088 20.5553C10.9181 20.5626 11.022 20.6055 11.1045 20.6775C12.463 21.853 14.1994 22.5 15.9958 22.5C17.7922 22.5 19.5286 21.853 20.887 20.6775C20.9696 20.6055 21.0735 20.5626 21.1828 20.5553C21.2921 20.5481 21.4007 20.577 21.492 20.6375C22.5625 21.3423 23.4873 22.2467 24.2158 23.3013C26.0098 21.2926 27.0009 18.6932 26.9995 16C26.9996 15.3852 26.9486 14.7714 26.847 14.165C26.824 14.0349 26.827 13.9016 26.8559 13.7727C26.8847 13.6437 26.9388 13.5218 27.015 13.4139C27.0912 13.306 27.188 13.2143 27.2999 13.144C27.4118 13.0738 27.5365 13.0264 27.6668 13.0046C27.797 12.9828 27.9304 12.987 28.059 13.017C28.1877 13.0471 28.3091 13.1023 28.4163 13.1795C28.5235 13.2567 28.6143 13.3544 28.6835 13.4669C28.7527 13.5794 28.799 13.7045 28.8195 13.835ZM10.4995 15C10.4995 16.0878 10.8221 17.1512 11.4265 18.0556C12.0308 18.9601 12.8898 19.6651 13.8948 20.0814C14.8998 20.4976 16.0056 20.6066 17.0725 20.3943C18.1394 20.1821 19.1194 19.6583 19.8886 18.8891C20.6578 18.1199 21.1816 17.1399 21.3939 16.073C21.6061 15.0061 21.4972 13.9002 21.0809 12.8953C20.6646 11.8903 19.9597 11.0313 19.0552 10.4269C18.1507 9.82258 17.0873 9.50001 15.9995 9.50001C14.5409 9.50001 13.1419 10.0795 12.1105 11.1109C11.079 12.1424 10.4995 13.5413 10.4995 15ZM29.707 4.29251C29.6142 4.19954 29.5039 4.12578 29.3825 4.07545C29.2611 4.02513 29.131 3.99923 28.9995 3.99923C28.8681 3.99923 28.738 4.02513 28.6166 4.07545C28.4952 4.12578 28.3849 4.19954 28.292 4.29251L24.9995 7.58626L23.707 6.29251C23.6141 6.1996 23.5038 6.1259 23.3824 6.07562C23.261 6.02534 23.1309 5.99946 22.9995 5.99946C22.8681 5.99946 22.738 6.02534 22.6166 6.07562C22.4953 6.1259 22.385 6.1996 22.292 6.29251C22.1991 6.38542 22.1254 6.49572 22.0752 6.61712C22.0249 6.73851 21.999 6.86862 21.999 7.00001C21.999 7.13141 22.0249 7.26152 22.0752 7.38291C22.1254 7.5043 22.1991 7.6146 22.292 7.70751L24.292 9.70751C24.3849 9.80049 24.4952 9.87425 24.6166 9.92457C24.738 9.9749 24.8681 10.0008 24.9995 10.0008C25.131 10.0008 25.2611 9.9749 25.3825 9.92457C25.5039 9.87425 25.6142 9.80049 25.707 9.70751L29.707 5.70751C29.8 5.61464 29.8738 5.50435 29.9241 5.38295C29.9744 5.26156 30.0003 5.13143 30.0003 5.00001C30.0003 4.8686 29.9744 4.73847 29.9241 4.61707C29.8738 4.49568 29.8 4.38539 29.707 4.29251Z" fill="white"/>
<path d="M67.5863 12.5212C67.3918 12.5538 67.2058 12.6244 67.0387 12.7289C66.8716 12.8334 66.7267 12.9699 66.6123 13.1304C66.498 13.291 66.4164 13.4725 66.3722 13.6646C66.3281 13.8567 66.3222 14.0556 66.355 14.25C66.4515 14.8283 66.5 15.4136 66.5 16C66.5036 18.356 65.7107 20.644 64.25 22.4925C63.2778 21.2559 62.0385 20.2551 60.625 19.565C61.5259 18.6527 62.1368 17.4944 62.381 16.2358C62.6252 14.9772 62.4917 13.6744 61.9974 12.4915C61.503 11.3085 60.6699 10.2982 59.6027 9.58756C58.5356 8.87694 57.2821 8.49778 56 8.49778C54.7179 8.49778 53.4644 8.87694 52.3973 9.58756C51.3301 10.2982 50.497 11.3085 50.0026 12.4915C49.5083 13.6744 49.3748 14.9772 49.619 16.2358C49.8632 17.4944 50.4741 18.6527 51.375 19.565C49.9615 20.2551 48.7222 21.2559 47.75 22.4925C46.5286 20.9447 45.768 19.0842 45.5553 17.124C45.3427 15.1639 45.6867 13.1835 46.5478 11.4098C47.4089 9.63618 48.7524 8.14105 50.4241 7.0958C52.0959 6.05054 54.0284 5.49748 56 5.49998C56.5863 5.49995 57.1717 5.54845 57.75 5.64498C58.1424 5.71129 58.545 5.61901 58.8693 5.38846C59.1936 5.15791 59.4131 4.80796 59.4794 4.41561C59.5457 4.02326 59.4534 3.62063 59.2229 3.29631C58.9923 2.97199 58.6424 2.75254 58.25 2.68623C56.3143 2.36122 54.331 2.46181 52.4381 2.98101C50.5453 3.50021 48.7882 4.42556 47.2892 5.69268C45.7902 6.95981 44.5853 8.53828 43.7582 10.3183C42.9311 12.0983 42.5018 14.0372 42.5 16C42.5 19.5804 43.9223 23.0142 46.4541 25.5459C48.9858 28.0777 52.4196 29.5 56 29.5C59.5804 29.5 63.0142 28.0777 65.5459 25.5459C68.0777 23.0142 69.5 19.5804 69.5 16C69.5002 15.2461 69.4379 14.4936 69.3137 13.75C69.2474 13.3581 69.0282 13.0086 68.7042 12.7782C68.3803 12.5478 67.9782 12.4554 67.5863 12.5212ZM52.5 15C52.5 14.3077 52.7053 13.6311 53.0899 13.0555C53.4744 12.4799 54.0211 12.0313 54.6606 11.7664C55.3001 11.5015 56.0039 11.4322 56.6828 11.5672C57.3617 11.7023 57.9854 12.0356 58.4749 12.5251C58.9644 13.0146 59.2977 13.6382 59.4327 14.3172C59.5678 14.9961 59.4985 15.6998 59.2336 16.3394C58.9687 16.9789 58.5201 17.5255 57.9445 17.9101C57.3689 18.2947 56.6922 18.5 56 18.5C55.0717 18.5 54.1815 18.1312 53.5251 17.4749C52.8687 16.8185 52.5 15.9282 52.5 15ZM49.9462 24.5712C50.6426 23.6191 51.5537 22.8446 52.6056 22.3108C53.6574 21.7769 54.8204 21.4987 56 21.4987C57.1796 21.4987 58.3426 21.7769 59.3944 22.3108C60.4463 22.8446 61.3574 23.6191 62.0537 24.5712C60.2845 25.826 58.169 26.4999 56 26.4999C53.831 26.4999 51.7155 25.826 49.9462 24.5712ZM70.0613 6.06123L66.0613 10.0612C65.9219 10.2011 65.7563 10.312 65.574 10.3877C65.3917 10.4634 65.1962 10.5024 64.9988 10.5024C64.8013 10.5024 64.6059 10.4634 64.4235 10.3877C64.2412 10.312 64.0756 10.2011 63.9363 10.0612L61.9363 8.06123C61.6545 7.77944 61.4961 7.39725 61.4961 6.99873C61.4961 6.60022 61.6545 6.21803 61.9363 5.93623C62.218 5.65444 62.6002 5.49613 62.9988 5.49613C63.3973 5.49613 63.7795 5.65444 64.0613 5.93623L65 6.87498L67.9387 3.93498C68.2205 3.65319 68.6027 3.49488 69.0012 3.49488C69.3998 3.49488 69.782 3.65319 70.0637 3.93498C70.3455 4.21678 70.5039 4.59897 70.5039 4.99748C70.5039 5.396 70.3455 5.77819 70.0637 6.05998L70.0613 6.06123Z" fill="white"/>
</g>
<defs>
<clipPath id="clip0_27_3382">
<rect width="72" height="32" rx="5" fill="white"/>
</clipPath>
</defs>
</svg>
