<svg width="72" height="32" viewBox="0 0 72 32" fill="none" xmlns="http://www.w3.org/2000/svg">
<g clip-path="url(#clip0_27_3387)">
<path d="M12.0322 4.62501C11.9672 4.36894 12.0062 4.09757 12.1406 3.87016C12.275 3.64275 12.494 3.47777 12.7497 3.41126C14.8815 2.86145 17.1179 2.86145 19.2497 3.41126C19.4858 3.47171 19.6917 3.61632 19.8287 3.81791C19.9657 4.0195 20.0244 4.26418 19.9937 4.50598C19.963 4.74778 19.845 4.97003 19.662 5.13098C19.4789 5.29193 19.2434 5.38048 18.9997 5.38001C18.9153 5.37956 18.8313 5.36865 18.7497 5.3475C16.9459 4.88178 15.0534 4.88178 13.2497 5.3475C13.1223 5.38015 12.9897 5.38736 12.8595 5.3687C12.7294 5.35005 12.6041 5.3059 12.4911 5.23879C12.378 5.17168 12.2792 5.08292 12.2005 4.9776C12.1217 4.87228 12.0645 4.75246 12.0322 4.62501ZM4.16841 13.75C4.29498 13.7852 4.42722 13.795 4.5576 13.7791C4.68798 13.7631 4.81394 13.7216 4.92828 13.6569C5.04261 13.5923 5.14309 13.5057 5.22398 13.4022C5.30486 13.2987 5.36456 13.1803 5.39966 13.0538C5.8985 11.2595 6.84473 9.62121 8.14966 8.2925C8.32366 8.10117 8.41677 7.84987 8.40944 7.59136C8.40211 7.33285 8.29491 7.08723 8.11035 6.90606C7.92579 6.7249 7.67822 6.62228 7.41961 6.61975C7.16101 6.61723 6.91148 6.71498 6.72341 6.8925C5.18172 8.46241 4.0635 10.3978 3.47341 12.5175C3.43805 12.6441 3.42798 12.7764 3.44377 12.9068C3.45957 13.0373 3.50092 13.1633 3.56547 13.2778C3.63001 13.3923 3.71649 13.4929 3.81995 13.5739C3.9234 13.6549 4.04182 13.7148 4.16841 13.75ZM26.5984 13.055C26.6694 13.3106 26.8389 13.5276 27.0698 13.6581C27.3007 13.7887 27.5741 13.8222 27.8297 13.7513C28.0853 13.6803 28.3022 13.5107 28.4328 13.2798C28.5634 13.0489 28.5969 12.7756 28.5259 12.52C27.9361 10.4002 26.8178 8.46474 25.2759 6.895C25.1838 6.80136 25.0742 6.72676 24.9533 6.67548C24.8324 6.6242 24.7025 6.59724 24.5712 6.59614C24.4398 6.59504 24.3096 6.61981 24.1878 6.66906C24.0661 6.7183 23.9552 6.79104 23.8615 6.88313C23.7679 6.97522 23.6933 7.08485 23.642 7.20577C23.5907 7.32669 23.5638 7.45652 23.5627 7.58786C23.5616 7.71919 23.5863 7.84946 23.6356 7.97122C23.6848 8.09299 23.7576 8.20386 23.8497 8.2975C25.1538 9.62564 26.0995 11.263 26.5984 13.0563V13.055ZM27.8322 18.25C27.7055 18.2149 27.5732 18.2051 27.4428 18.2211C27.3123 18.2371 27.1863 18.2788 27.072 18.3435C26.9576 18.4083 26.8571 18.495 26.7763 18.5986C26.6955 18.7023 26.6359 18.8208 26.6009 18.9475C26.1526 20.5613 25.3401 22.0507 24.2259 23.3013C23.4968 22.2467 22.5712 21.3427 21.4997 20.6388C21.4086 20.5784 21.3003 20.5495 21.1913 20.5565C21.0822 20.5635 20.9785 20.606 20.8959 20.6775C19.5373 21.8531 17.8007 22.5001 16.004 22.5001C14.2074 22.5001 12.4708 21.8531 11.1122 20.6775C11.0295 20.6057 10.9255 20.563 10.8162 20.556C10.7069 20.549 10.5983 20.5781 10.5072 20.6388C9.42876 21.3331 8.49492 22.2296 7.75716 23.2788C6.65361 22.0317 5.84866 20.5496 5.40341 18.945C5.33247 18.6894 5.16289 18.4725 4.93199 18.3419C4.70108 18.2113 4.42777 18.1778 4.17216 18.2488C3.91656 18.3197 3.69961 18.4893 3.56904 18.7202C3.43847 18.9511 3.40497 19.2244 3.47591 19.48C4.24022 22.2151 5.87854 24.6249 8.14076 26.3416C10.403 28.0583 13.1648 28.9876 16.0047 28.9876C18.8445 28.9876 21.6064 28.0583 23.8686 26.3416C26.1308 24.6249 27.7691 22.2151 28.5334 19.48C28.5683 19.3532 28.5778 19.2208 28.5614 19.0903C28.545 18.9598 28.5031 18.8338 28.438 18.7195C28.3728 18.6053 28.2858 18.505 28.1818 18.4244C28.0779 18.3439 27.9591 18.2846 27.8322 18.25ZM15.9997 20.5C17.0875 20.5 18.1508 20.1774 19.0553 19.5731C19.9598 18.9687 20.6647 18.1098 21.081 17.1048C21.4973 16.0998 21.6062 14.9939 21.394 13.927C21.1818 12.8601 20.6579 11.8801 19.8888 11.1109C19.1196 10.3417 18.1396 9.8179 17.0727 9.60569C16.0058 9.39347 14.8999 9.50239 13.8949 9.91867C12.8899 10.3349 12.0309 11.0399 11.4266 11.9444C10.8222 12.8488 10.4997 13.9122 10.4997 15C10.5013 16.4582 11.0813 17.8562 12.1124 18.8873C13.1435 19.9184 14.5415 20.4984 15.9997 20.5Z" fill="white"/>
<path d="M51.5471 4.75624C51.4977 4.56541 51.4863 4.36671 51.5137 4.17149C51.5411 3.97627 51.6067 3.78836 51.7068 3.61852C51.8069 3.44868 51.9394 3.30023 52.0969 3.18165C52.2544 3.06308 52.4337 2.97671 52.6246 2.92749C54.8383 2.35592 57.1609 2.35592 59.3746 2.92749C59.5696 2.97264 59.7536 3.05637 59.9158 3.17373C60.0779 3.2911 60.2149 3.43973 60.3188 3.61088C60.4226 3.78202 60.4911 3.97221 60.5203 4.17024C60.5494 4.36828 60.5387 4.57015 60.4886 4.76396C60.4385 4.95777 60.3502 5.1396 60.2288 5.29873C60.1074 5.45787 59.9553 5.59109 59.7816 5.69056C59.6079 5.79002 59.416 5.85371 59.2173 5.87787C59.0186 5.90203 58.8171 5.88618 58.6246 5.83124C56.9028 5.38668 55.0964 5.38668 53.3746 5.83124C52.9897 5.93082 52.581 5.87352 52.2384 5.67195C51.8957 5.47038 51.6471 5.14102 51.5471 4.75624ZM44.0359 14.2337C44.1662 14.2693 44.3007 14.2874 44.4359 14.2875C44.7638 14.2873 45.0828 14.1797 45.3437 13.981C45.6047 13.7823 45.7934 13.5036 45.8809 13.1875C46.3572 11.4751 47.2604 9.91174 48.5059 8.64374C48.6517 8.50505 48.7682 8.33842 48.8484 8.15376C48.9285 7.96911 48.9707 7.77021 48.9723 7.56893C48.974 7.36764 48.9351 7.16808 48.858 6.98213C48.7809 6.79618 48.6672 6.62765 48.5236 6.48657C48.38 6.3455 48.2095 6.23477 48.0222 6.16099C47.8349 6.0872 47.6347 6.05186 47.4335 6.05708C47.2323 6.0623 47.0342 6.10796 46.8509 6.19136C46.6677 6.27475 46.5032 6.39417 46.3671 6.54249C44.7658 8.17397 43.6046 10.185 42.9921 12.3875C42.8858 12.7707 42.936 13.1805 43.1317 13.5267C43.3275 13.8729 43.6527 14.1272 44.0359 14.2337ZM58.6246 26.1687C56.9028 26.6133 55.0964 26.6133 53.3746 26.1687C53.1821 26.1138 52.9806 26.0979 52.7819 26.1221C52.5832 26.1463 52.3913 26.21 52.2176 26.3094C52.0439 26.4089 51.8918 26.5421 51.7704 26.7013C51.649 26.8604 51.5607 27.0422 51.5106 27.236C51.4605 27.4298 51.4498 27.6317 51.479 27.8297C51.5081 28.0278 51.5766 28.218 51.6805 28.3891C51.7843 28.5602 51.9213 28.7089 52.0834 28.8263C52.2456 28.9436 52.4296 29.0273 52.6246 29.0725C54.8383 29.6441 57.1609 29.6441 59.3746 29.0725C59.5696 29.0273 59.7536 28.9436 59.9158 28.8263C60.0779 28.7089 60.2149 28.5602 60.3188 28.3891C60.4226 28.218 60.4911 28.0278 60.5203 27.8297C60.5494 27.6317 60.5387 27.4298 60.4886 27.236C60.4385 27.0422 60.3502 26.8604 60.2288 26.7013C60.1074 26.5421 59.9553 26.4089 59.7816 26.3094C59.6079 26.21 59.416 26.1463 59.2173 26.1221C59.0186 26.0979 58.8171 26.1138 58.6246 26.1687ZM66.1184 13.19C66.2312 13.5658 66.4868 13.8825 66.8304 14.0721C67.174 14.2616 67.5782 14.309 67.9563 14.204C68.3345 14.099 68.6564 13.85 68.853 13.5104C69.0497 13.1708 69.1055 12.7677 69.0084 12.3875C68.3968 10.1839 67.2355 8.17184 65.6334 6.53999C65.498 6.38857 65.3332 6.26622 65.1491 6.18038C64.965 6.09453 64.7654 6.04697 64.5623 6.04059C64.3593 6.0342 64.1571 6.06912 63.968 6.14323C63.7788 6.21734 63.6067 6.32909 63.4621 6.4717C63.3174 6.61432 63.2032 6.78483 63.1265 6.9729C63.0497 7.16096 63.0119 7.36266 63.0154 7.56577C63.0189 7.76887 63.0637 7.96914 63.1469 8.15444C63.2301 8.33974 63.3501 8.50621 63.4996 8.64374C64.7427 9.91328 65.6433 11.4775 66.1171 13.19H66.1184ZM69.0121 19.6137C68.324 22.0904 66.9422 24.3188 65.0296 26.0362C64.8585 26.1901 64.6544 26.3026 64.4329 26.3649C64.2114 26.4272 63.9786 26.4378 63.7523 26.3957C63.5261 26.3537 63.3126 26.2602 63.1283 26.1224C62.9441 25.9846 62.7939 25.8063 62.6896 25.6012C62.0626 24.3663 61.1059 23.329 59.9255 22.6045C58.7451 21.88 57.3871 21.4964 56.0021 21.4964C54.6171 21.4964 53.2591 21.88 52.0787 22.6045C50.8983 23.329 49.9416 24.3663 49.3146 25.6012C49.2103 25.8064 49.0603 25.9848 48.876 26.1226C48.6918 26.2605 48.4783 26.3541 48.2521 26.3962C48.1618 26.4126 48.0702 26.421 47.9784 26.4212C47.609 26.4204 47.2529 26.2833 46.9784 26.0362C45.0627 24.3195 43.6783 22.0905 42.9884 19.6125C42.9064 19.2379 42.971 18.8461 43.1689 18.5177C43.3668 18.1893 43.683 17.9491 44.0524 17.8465C44.4219 17.7439 44.8167 17.7868 45.1555 17.9662C45.4944 18.1456 45.7517 18.448 45.8746 18.8112C46.2474 20.1535 46.8849 21.4077 47.7496 22.5C48.7211 21.2611 49.9604 20.2581 51.3746 19.5662C50.4737 18.654 49.8628 17.4957 49.6186 16.237C49.3744 14.9784 49.5079 13.6757 50.0022 12.4927C50.4966 11.3098 51.3298 10.2994 52.3969 9.58881C53.464 8.87819 54.7175 8.49903 55.9996 8.49903C57.2817 8.49903 58.5352 8.87819 59.6023 9.58881C60.6695 10.2994 61.5026 11.3098 61.997 12.4927C62.4913 13.6757 62.6248 14.9784 62.3806 16.237C62.1364 17.4957 61.5255 18.654 60.6246 19.5662C62.0385 20.2586 63.2777 21.2615 64.2496 22.5C65.1136 21.4082 65.751 20.155 66.1246 18.8137C66.231 18.4303 66.4854 18.1049 66.8317 17.9091C67.1781 17.7132 67.5881 17.6629 67.9715 17.7694C68.3549 17.8758 68.6803 18.1301 68.8762 18.4765C69.072 18.8229 69.1223 19.2328 69.0159 19.6162L69.0121 19.6137ZM55.9996 18.5C56.6918 18.5 57.3685 18.2947 57.9441 17.9101C58.5197 17.5255 58.9683 16.9789 59.2332 16.3394C59.4981 15.6998 59.5674 14.9961 59.4324 14.3172C59.2973 13.6382 58.964 13.0146 58.4745 12.5251C57.985 12.0356 57.3614 11.7023 56.6824 11.5672C56.0035 11.4322 55.2998 11.5015 54.6602 11.7664C54.0207 12.0313 53.474 12.4799 53.0895 13.0555C52.7049 13.6311 52.4996 14.3078 52.4996 15C52.4996 15.9282 52.8684 16.8185 53.5247 17.4749C54.1811 18.1312 55.0713 18.5 55.9996 18.5Z" fill="white"/>
</g>
<defs>
<clipPath id="clip0_27_3387">
<rect width="72" height="32" rx="5" fill="white"/>
</clipPath>
</defs>
</svg>
