<svg width="72" height="32" viewBox="0 0 72 32" fill="none" xmlns="http://www.w3.org/2000/svg">
<g clip-path="url(#clip0_27_3372)">
<path d="M31.7079 16.7075L27.7079 20.7075C27.615 20.8005 27.5047 20.8742 27.3833 20.9246C27.2619 20.9749 27.1318 21.0008 27.0004 21.0008C26.869 21.0008 26.7388 20.9749 26.6174 20.9246C26.496 20.8742 26.3857 20.8005 26.2929 20.7075L24.2929 18.7075C24.1052 18.5199 23.9998 18.2654 23.9998 18C23.9998 17.7346 24.1052 17.4801 24.2929 17.2925C24.4805 17.1049 24.735 16.9994 25.0004 16.9994C25.2657 16.9994 25.5202 17.1049 25.7079 17.2925L27.0004 18.5862L30.2929 15.2925C30.4805 15.1049 30.735 14.9994 31.0004 14.9994C31.2657 14.9994 31.5202 15.1049 31.7079 15.2925C31.8955 15.4801 32.0009 15.7346 32.0009 16C32.0009 16.2654 31.8955 16.5199 31.7079 16.7075ZM18.0004 19.71C19.568 18.7336 20.775 17.2733 21.4387 15.5498C22.1024 13.8264 22.1868 11.9337 21.6791 10.1581C21.1713 8.38242 20.0991 6.82045 18.6245 5.70847C17.15 4.59649 15.3534 3.995 13.5066 3.995C11.6598 3.995 9.86323 4.59649 8.38871 5.70847C6.91418 6.82045 5.84193 8.38242 5.33418 10.1581C4.82643 11.9337 4.9108 13.8264 5.57454 15.5498C6.23827 17.2733 7.44525 18.7336 9.01287 19.71C6.43162 20.555 4.10912 22.1337 2.24162 24.3562C2.11936 24.5016 2.04101 24.6787 2.01573 24.8669C1.99046 25.0552 2.0193 25.2467 2.0989 25.4191C2.17849 25.5915 2.30554 25.7377 2.46518 25.8406C2.62482 25.9435 2.81046 25.9988 3.00037 26H24.0004C24.1909 26.0002 24.3776 25.9459 24.5383 25.8436C24.6991 25.7413 24.8272 25.5952 24.9077 25.4225C24.9882 25.2498 25.0177 25.0577 24.9927 24.8688C24.9677 24.6799 24.8893 24.5021 24.7666 24.3562C22.8979 22.1337 20.5754 20.555 18.0004 19.71Z" fill="white"/>
<path d="M59.0628 19.5675C60.534 18.4108 61.608 16.8243 62.1355 15.0287C62.6629 13.2331 62.6175 11.3178 62.0055 9.54923C61.3935 7.78067 60.2454 6.24686 58.721 5.16127C57.1966 4.07567 55.3717 3.49228 53.5003 3.49228C51.6288 3.49228 49.8039 4.07567 48.2795 5.16127C46.7551 6.24686 45.6071 7.78067 44.9951 9.54923C44.3831 11.3178 44.3377 13.2331 44.8651 15.0287C45.3925 16.8243 46.4666 18.4108 47.9378 19.5675C45.5718 20.5322 43.4811 22.0669 41.8515 24.035C41.5956 24.3397 41.4712 24.7335 41.5056 25.1299C41.5401 25.5263 41.7306 25.8928 42.0353 26.1487C42.34 26.4047 42.7338 26.5291 43.1302 26.4946C43.5266 26.4602 43.8931 26.2697 44.149 25.965C45.8603 23.9275 48.8753 21.5 53.5003 21.5C58.1253 21.5 61.1403 23.9275 62.8515 25.965C63.1075 26.2697 63.474 26.4602 63.8704 26.4946C64.2668 26.5291 64.6606 26.4047 64.9653 26.1487C65.27 25.8928 65.4605 25.5263 65.4949 25.1299C65.5294 24.7335 65.405 24.3397 65.149 24.035C63.5199 22.0665 61.429 20.5317 59.0628 19.5675ZM47.5003 12.5C47.5003 11.3133 47.8522 10.1533 48.5115 9.16657C49.1708 8.17987 50.1078 7.41084 51.2042 6.95671C52.3005 6.50259 53.5069 6.38377 54.6708 6.61528C55.8347 6.84679 56.9038 7.41823 57.7429 8.25735C58.582 9.09646 59.1535 10.1656 59.385 11.3294C59.6165 12.4933 59.4977 13.6997 59.0436 14.7961C58.5894 15.8924 57.8204 16.8295 56.8337 17.4888C55.847 18.1481 54.687 18.5 53.5003 18.5C51.9095 18.4983 50.3843 17.8657 49.2595 16.7408C48.1346 15.6159 47.5019 14.0908 47.5003 12.5ZM71.5615 17.0612L67.5615 21.0612C67.4222 21.2011 67.2566 21.312 67.0743 21.3877C66.8919 21.4634 66.6965 21.5024 66.499 21.5024C66.3016 21.5024 66.1061 21.4634 65.9238 21.3877C65.7415 21.312 65.5759 21.2011 65.4365 21.0612L63.4365 19.0612C63.1547 18.7794 62.9964 18.3973 62.9964 17.9987C62.9964 17.6002 63.1547 17.218 63.4365 16.9362C63.7183 16.6544 64.1005 16.4961 64.499 16.4961C64.8976 16.4961 65.2797 16.6544 65.5615 16.9362L66.5003 17.875L69.439 14.935C69.5786 14.7955 69.7442 14.6848 69.9265 14.6093C70.1088 14.5338 70.3042 14.4949 70.5015 14.4949C70.6989 14.4949 70.8943 14.5338 71.0766 14.6093C71.2589 14.6848 71.4245 14.7955 71.564 14.935C71.7036 15.0745 71.8142 15.2402 71.8898 15.4225C71.9653 15.6048 72.0041 15.8002 72.0041 15.9975C72.0041 16.1948 71.9653 16.3902 71.8898 16.5725C71.8142 16.7548 71.7036 16.9205 71.564 17.06L71.5615 17.0612Z" fill="white"/>
</g>
<defs>
<clipPath id="clip0_27_3372">
<rect width="72" height="32" rx="5" fill="white"/>
</clipPath>
</defs>
</svg>
