<svg width="72" height="32" viewBox="0 0 72 32" fill="none" xmlns="http://www.w3.org/2000/svg">
<g clip-path="url(#clip0_27_3427)">
<path d="M32.0004 17C32.0004 17.2652 31.895 17.5196 31.7075 17.7071C31.5199 17.8946 31.2656 18 31.0004 18H29.0004V20C29.0004 20.2652 28.895 20.5196 28.7075 20.7071C28.5199 20.8946 28.2656 21 28.0004 21C27.7352 21 27.4808 20.8946 27.2933 20.7071C27.1057 20.5196 27.0004 20.2652 27.0004 20V18H25.0004C24.7352 18 24.4808 17.8946 24.2933 17.7071C24.1057 17.5196 24.0004 17.2652 24.0004 17C24.0004 16.7348 24.1057 16.4804 24.2933 16.2929C24.4808 16.1054 24.7352 16 25.0004 16H27.0004V14C27.0004 13.7348 27.1057 13.4804 27.2933 13.2929C27.4808 13.1054 27.7352 13 28.0004 13C28.2656 13 28.5199 13.1054 28.7075 13.2929C28.895 13.4804 29.0004 13.7348 29.0004 14V16H31.0004C31.2656 16 31.5199 16.1054 31.7075 16.2929C31.895 16.4804 32.0004 16.7348 32.0004 17ZM18.0004 19.71C19.568 18.7336 20.775 17.2733 21.4387 15.5498C22.1024 13.8264 22.1868 11.9337 21.6791 10.1581C21.1713 8.38242 20.0991 6.82045 18.6245 5.70847C17.15 4.59649 15.3534 3.995 13.5066 3.995C11.6598 3.995 9.86323 4.59649 8.38871 5.70847C6.91418 6.82045 5.84193 8.38242 5.33418 10.1581C4.82643 11.9337 4.9108 13.8264 5.57454 15.5498C6.23827 17.2733 7.44525 18.7336 9.01287 19.71C6.43162 20.555 4.10912 22.1337 2.24162 24.3562C2.11936 24.5016 2.04101 24.6787 2.01573 24.8669C1.99046 25.0552 2.0193 25.2467 2.0989 25.4191C2.17849 25.5915 2.30554 25.7377 2.46518 25.8406C2.62482 25.9435 2.81046 25.9988 3.00037 26H24.0004C24.1909 26.0002 24.3776 25.9459 24.5383 25.8436C24.6991 25.7413 24.8272 25.5952 24.9077 25.4225C24.9882 25.2498 25.0177 25.0577 24.9927 24.8688C24.9677 24.6799 24.8893 24.5021 24.7666 24.3562C22.8979 22.1337 20.5754 20.555 18.0004 19.71Z" fill="white"/>
<path d="M72.0003 17C72.0003 17.3978 71.8423 17.7793 71.5609 18.0606C71.2796 18.342 70.8981 18.5 70.5003 18.5H69.5003V19.5C69.5003 19.8978 69.3423 20.2793 69.0609 20.5606C68.7796 20.842 68.3981 21 68.0003 21C67.6025 21 67.2209 20.842 66.9396 20.5606C66.6583 20.2793 66.5003 19.8978 66.5003 19.5V18.5H65.5003C65.1025 18.5 64.7209 18.342 64.4396 18.0606C64.1583 17.7793 64.0003 17.3978 64.0003 17C64.0003 16.6022 64.1583 16.2206 64.4396 15.9393C64.7209 15.658 65.1025 15.5 65.5003 15.5H66.5003V14.5C66.5003 14.1022 66.6583 13.7206 66.9396 13.4393C67.2209 13.158 67.6025 13 68.0003 13C68.3981 13 68.7796 13.158 69.0609 13.4393C69.3423 13.7206 69.5003 14.1022 69.5003 14.5V15.5H70.5003C70.8981 15.5 71.2796 15.658 71.5609 15.9393C71.8423 16.2206 72.0003 16.6022 72.0003 17ZM65.149 24.035C65.405 24.3397 65.5294 24.7335 65.4949 25.1299C65.4605 25.5263 65.27 25.8928 64.9653 26.1487C64.6606 26.4047 64.2668 26.5291 63.8704 26.4946C63.474 26.4602 63.1075 26.2697 62.8515 25.965C61.1403 23.9275 58.1253 21.5 53.5003 21.5C49.889 21.5 46.5678 23.085 44.149 25.965C43.8931 26.2697 43.5266 26.4602 43.1302 26.4946C42.7338 26.5291 42.34 26.4047 42.0353 26.1487C41.7306 25.8928 41.5401 25.5263 41.5056 25.1299C41.4712 24.7335 41.5956 24.3397 41.8515 24.035C43.4812 22.0668 45.5719 20.5317 47.9378 19.5662C46.4666 18.4096 45.3925 16.8231 44.8651 15.0275C44.3377 13.2319 44.3831 11.3165 44.9951 9.54798C45.6071 7.77941 46.7551 6.24561 48.2795 5.16002C49.8039 4.07442 51.6288 3.49103 53.5003 3.49103C55.3717 3.49103 57.1966 4.07442 58.721 5.16002C60.2454 6.24561 61.3935 7.77941 62.0055 9.54798C62.6175 11.3165 62.6629 13.2319 62.1355 15.0275C61.608 16.8231 60.534 18.4096 59.0628 19.5662C61.4289 20.5314 63.5197 22.0665 65.149 24.035ZM53.5003 18.5C54.687 18.5 55.847 18.1481 56.8337 17.4888C57.8204 16.8295 58.5894 15.8924 59.0436 14.7961C59.4977 13.6997 59.6165 12.4933 59.385 11.3294C59.1535 10.1656 58.582 9.09646 57.7429 8.25735C56.9038 7.41823 55.8347 6.84679 54.6708 6.61528C53.5069 6.38376 52.3005 6.50258 51.2042 6.95671C50.1078 7.41084 49.1708 8.17987 48.5115 9.16657C47.8522 10.1533 47.5003 11.3133 47.5003 12.5C47.5019 14.0908 48.1346 15.6159 49.2595 16.7408C50.3843 17.8657 51.9095 18.4983 53.5003 18.5Z" fill="white"/>
</g>
<defs>
<clipPath id="clip0_27_3427">
<rect width="72" height="32" rx="5" fill="white"/>
</clipPath>
</defs>
</svg>
