<svg width="72" height="32" viewBox="0 0 72 32" fill="none" xmlns="http://www.w3.org/2000/svg">
<g clip-path="url(#clip0_27_3402)">
<path d="M15.9995 9.50001C17.0873 9.50001 18.1507 9.82258 19.0552 10.4269C19.9597 11.0313 20.6646 11.8903 21.0809 12.8953C21.4972 13.9002 21.6061 15.0061 21.3939 16.073C21.1816 17.1399 20.6578 18.1199 19.8886 18.8891C19.1194 19.6583 18.1394 20.1821 17.0725 20.3943C16.0056 20.6066 14.8998 20.4976 13.8948 20.0814C12.8898 19.6651 12.0308 18.9601 11.4265 18.0556C10.8221 17.1512 10.4995 16.0878 10.4995 15C10.4995 13.5413 11.079 12.1424 12.1105 11.1109C13.1419 10.0795 14.5409 9.50001 15.9995 9.50001ZM21.9995 8.00001H23.9995V10C23.9995 10.2652 24.1049 10.5196 24.2924 10.7071C24.48 10.8947 24.7343 11 24.9995 11C25.2648 11 25.5191 10.8947 25.7067 10.7071C25.8942 10.5196 25.9995 10.2652 25.9995 10V8.00001H27.9995C28.2648 8.00001 28.5191 7.89466 28.7067 7.70712C28.8942 7.51958 28.9995 7.26523 28.9995 7.00001C28.9995 6.7348 28.8942 6.48044 28.7067 6.29291C28.5191 6.10537 28.2648 6.00001 27.9995 6.00001H25.9995V4.00001C25.9995 3.7348 25.8942 3.48044 25.7067 3.29291C25.5191 3.10537 25.2648 3.00001 24.9995 3.00001C24.7343 3.00001 24.48 3.10537 24.2924 3.29291C24.1049 3.48044 23.9995 3.7348 23.9995 4.00001V6.00001H21.9995C21.7343 6.00001 21.48 6.10537 21.2924 6.29291C21.1049 6.48044 20.9995 6.7348 20.9995 7.00001C20.9995 7.26523 21.1049 7.51958 21.2924 7.70712C21.48 7.89466 21.7343 8.00001 21.9995 8.00001ZM27.6683 13.0138C27.4067 13.0575 27.1733 13.2034 27.0193 13.4193C26.8652 13.6352 26.8033 13.9034 26.847 14.165C26.9486 14.7714 26.9996 15.3852 26.9995 16C27.0019 18.6928 26.0122 21.292 24.2195 23.3013C23.4922 22.2471 22.5687 21.3427 21.4995 20.6375C21.4082 20.577 21.2996 20.5481 21.1903 20.5553C21.081 20.5626 20.9771 20.6055 20.8945 20.6775C19.5359 21.8531 17.7993 22.5001 16.0027 22.5001C14.206 22.5001 12.4695 21.8531 11.1108 20.6775C11.0278 20.604 10.9227 20.5602 10.812 20.5529C10.7014 20.5457 10.5914 20.5755 10.4995 20.6375C9.42875 21.342 8.50393 22.2464 7.77579 23.3013C6.36898 21.716 5.45011 19.758 5.12971 17.6629C4.8093 15.5678 5.10101 13.4247 5.96974 11.4914C6.83846 9.55811 8.24722 7.91698 10.0266 6.76537C11.8059 5.61377 13.8801 5.00074 15.9995 5.00001C16.6144 4.99992 17.2282 5.05093 17.8345 5.15251C18.0949 5.1936 18.361 5.13021 18.5749 4.97613C18.7888 4.82204 18.9332 4.58974 18.9767 4.32974C19.0202 4.06974 18.9593 3.80309 18.8072 3.58778C18.6551 3.37247 18.4241 3.22592 18.1645 3.18001C15.4488 2.72316 12.6582 3.14118 10.1956 4.37373C7.73295 5.60628 5.72575 7.58958 4.46377 10.0373C3.2018 12.4849 2.75036 15.2704 3.17464 17.9913C3.59892 20.7123 4.87696 23.2281 6.82423 25.1753C8.7715 27.1226 11.2872 28.4006 14.0082 28.8249C16.7292 29.2492 19.5146 28.7978 21.9623 27.5358C24.41 26.2738 26.3933 24.2666 27.6258 21.804C28.8584 19.3413 29.2764 16.5507 28.8195 13.835C28.7758 13.5735 28.6299 13.34 28.414 13.186C28.1981 13.032 27.9299 12.97 27.6683 13.0138Z" fill="white"/>
<path d="M60.5001 6.99999C60.5001 6.60216 60.6581 6.22063 60.9394 5.93933C61.2207 5.65802 61.6022 5.49999 62.0001 5.49999H63.5001V3.99999C63.5001 3.60216 63.6581 3.22063 63.9394 2.93933C64.2207 2.65802 64.6022 2.49999 65.0001 2.49999C65.3979 2.49999 65.7794 2.65802 66.0607 2.93933C66.342 3.22063 66.5001 3.60216 66.5001 3.99999V5.49999H68.0001C68.3979 5.49999 68.7794 5.65802 69.0607 5.93933C69.342 6.22063 69.5001 6.60216 69.5001 6.99999C69.5001 7.39781 69.342 7.77934 69.0607 8.06065C68.7794 8.34195 68.3979 8.49999 68.0001 8.49999H66.5001V9.99999C66.5001 10.3978 66.342 10.7793 66.0607 11.0606C65.7794 11.342 65.3979 11.5 65.0001 11.5C64.6022 11.5 64.2207 11.342 63.9394 11.0606C63.6581 10.7793 63.5001 10.3978 63.5001 9.99999V8.49999H62.0001C61.6022 8.49999 61.2207 8.34195 60.9394 8.06065C60.6581 7.77934 60.5001 7.39781 60.5001 6.99999ZM69.3138 13.75C69.7876 16.5691 69.3532 19.4657 68.0734 22.0219C66.7937 24.578 64.7347 26.6613 62.1938 27.971C59.6529 29.2808 56.7616 29.7492 53.9371 29.3087C51.1127 28.8681 48.5013 27.5414 46.48 25.5201C44.4586 23.4988 43.1319 20.8874 42.6914 18.0629C42.2508 15.2385 42.7193 12.3471 44.029 9.80623C45.3388 7.26534 47.4221 5.20639 49.9782 3.92663C52.5343 2.64687 55.431 2.2125 58.2501 2.68624C58.6424 2.75254 58.9924 2.97199 59.2229 3.29631C59.4535 3.62063 59.5457 4.02326 59.4794 4.41561C59.4131 4.80797 59.1937 5.15791 58.8694 5.38846C58.545 5.61902 58.1424 5.71129 57.7501 5.64499C57.1717 5.54845 56.5864 5.49995 56.0001 5.49999C54.029 5.49865 52.0973 6.05257 50.4265 7.09829C48.7556 8.14401 47.4131 9.63923 46.5528 11.4127C45.6924 13.1861 45.349 15.166 45.5618 17.1256C45.7747 19.0852 46.5352 20.9452 47.7563 22.4925C48.7286 21.2559 49.9678 20.2551 51.3813 19.565C50.4805 18.6527 49.8695 17.4944 49.6253 16.2358C49.3811 14.9772 49.5146 13.6744 50.009 12.4915C50.5033 11.3085 51.3365 10.2982 52.4036 9.58756C53.4708 8.87694 54.7242 8.49778 56.0063 8.49778C57.2884 8.49778 58.5419 8.87694 59.609 9.58756C60.6762 10.2982 61.5093 11.3085 62.0037 12.4915C62.498 13.6744 62.6315 14.9772 62.3873 16.2358C62.1431 17.4944 61.5322 18.6527 60.6313 19.565C62.0451 20.2547 63.2845 21.2555 64.2563 22.4925C65.7152 20.6434 66.5059 18.3553 66.5001 16C66.5 15.4137 66.4515 14.8283 66.3551 14.25C66.2888 13.8576 66.381 13.455 66.6116 13.1307C66.8421 12.8064 67.1921 12.5869 67.5844 12.5206C67.9768 12.4543 68.3794 12.5466 68.7037 12.7771C69.0281 13.0077 69.2475 13.3576 69.3138 13.75ZM56.0001 18.5C56.6923 18.5 57.369 18.2947 57.9446 17.9101C58.5201 17.5255 58.9687 16.9789 59.2336 16.3394C59.4986 15.6998 59.5679 14.9961 59.4328 14.3172C59.2978 13.6382 58.9644 13.0146 58.4749 12.5251C57.9855 12.0356 57.3618 11.7023 56.6829 11.5672C56.004 11.4322 55.3002 11.5015 54.6607 11.7664C54.0211 12.0313 53.4745 12.4799 53.0899 13.0555C52.7053 13.6311 52.5001 14.3078 52.5001 15C52.5001 15.9282 52.8688 16.8185 53.5252 17.4749C54.1816 18.1312 55.0718 18.5 56.0001 18.5ZM56.0001 26.5C58.1694 26.5015 60.2853 25.8274 62.0538 24.5712C61.3575 23.6191 60.4464 22.8447 59.3945 22.3108C58.3426 21.7769 57.1797 21.4987 56.0001 21.4987C54.8205 21.4987 53.6575 21.7769 52.6056 22.3108C51.5538 22.8447 50.6427 23.6191 49.9463 24.5712C51.7149 25.8274 53.8308 26.5015 56.0001 26.5Z" fill="white"/>
</g>
<defs>
<clipPath id="clip0_27_3402">
<rect width="72" height="32" rx="5" fill="white"/>
</clipPath>
</defs>
</svg>
