<svg width="72" height="32" viewBox="0 0 72 32" fill="none" xmlns="http://www.w3.org/2000/svg">
<g clip-path="url(#clip0_27_3422)">
<path d="M24.766 24.3562C24.8887 24.5021 24.9671 24.6799 24.9921 24.8688C25.0171 25.0577 24.9876 25.2498 24.9071 25.4225C24.8266 25.5952 24.6985 25.7413 24.5377 25.8436C24.3769 25.9459 24.1903 26.0002 23.9998 26H2.99976C2.80932 25.9999 2.62285 25.9455 2.46229 25.8431C2.30172 25.7407 2.17373 25.5946 2.09338 25.4219C2.01302 25.2493 1.98364 25.0573 2.00869 24.8685C2.03373 24.6797 2.11217 24.502 2.23476 24.3562C4.10226 22.1337 6.42476 20.555 9.00601 19.71C7.43839 18.7336 6.23142 17.2733 5.56768 15.5498C4.90395 13.8264 4.81958 11.9337 5.32733 10.1581C5.83508 8.38242 6.90733 6.82045 8.38185 5.70847C9.85638 4.59649 11.6529 3.995 13.4998 3.995C15.3466 3.995 17.1432 4.59649 18.6177 5.70847C20.0922 6.82045 21.1645 8.38242 21.6722 10.1581C22.18 11.9337 22.0956 13.8264 21.4318 15.5498C20.7681 17.2733 19.5611 18.7336 17.9935 19.71C20.5748 20.555 22.8973 22.1337 24.766 24.3562ZM30.9998 16H24.9998C24.7345 16 24.4802 16.1054 24.2927 16.2929C24.1051 16.4804 23.9998 16.7348 23.9998 17C23.9998 17.2652 24.1051 17.5196 24.2927 17.7071C24.4802 17.8946 24.7345 18 24.9998 18H30.9998C31.265 18 31.5193 17.8946 31.7069 17.7071C31.8944 17.5196 31.9998 17.2652 31.9998 17C31.9998 16.7348 31.8944 16.4804 31.7069 16.2929C31.5193 16.1054 31.265 16 30.9998 16Z" fill="white"/>
<path d="M72.0003 17C72.0003 17.3978 71.8423 17.7793 71.5609 18.0606C71.2796 18.342 70.8981 18.5 70.5003 18.5H65.5003C65.1025 18.5 64.7209 18.342 64.4396 18.0606C64.1583 17.7793 64.0003 17.3978 64.0003 17C64.0003 16.6022 64.1583 16.2206 64.4396 15.9393C64.7209 15.658 65.1025 15.5 65.5003 15.5H70.5003C70.8981 15.5 71.2796 15.658 71.5609 15.9393C71.8423 16.2206 72.0003 16.6022 72.0003 17ZM65.149 24.035C65.405 24.3397 65.5294 24.7335 65.4949 25.1299C65.4605 25.5263 65.27 25.8928 64.9653 26.1487C64.6606 26.4047 64.2668 26.5291 63.8704 26.4946C63.474 26.4602 63.1075 26.2697 62.8515 25.965C61.1403 23.9275 58.1253 21.5 53.5003 21.5C49.889 21.5 46.5678 23.085 44.149 25.965C43.8931 26.2697 43.5266 26.4602 43.1302 26.4946C42.7338 26.5291 42.34 26.4047 42.0353 26.1487C41.7306 25.8928 41.5401 25.5263 41.5056 25.1299C41.4712 24.7335 41.5956 24.3397 41.8515 24.035C43.4812 22.0668 45.5719 20.5317 47.9378 19.5662C46.4666 18.4096 45.3925 16.8231 44.8651 15.0275C44.3377 13.2319 44.3831 11.3165 44.9951 9.54798C45.6071 7.77941 46.7551 6.24561 48.2795 5.16002C49.8039 4.07442 51.6288 3.49103 53.5003 3.49103C55.3717 3.49103 57.1966 4.07442 58.721 5.16002C60.2454 6.24561 61.3935 7.77941 62.0055 9.54798C62.6175 11.3165 62.6629 13.2319 62.1355 15.0275C61.608 16.8231 60.534 18.4096 59.0628 19.5662C61.4289 20.5314 63.5197 22.0665 65.149 24.035ZM53.5003 18.5C54.687 18.5 55.847 18.1481 56.8337 17.4888C57.8204 16.8295 58.5894 15.8924 59.0436 14.7961C59.4977 13.6997 59.6165 12.4933 59.385 11.3294C59.1535 10.1656 58.582 9.09646 57.7429 8.25735C56.9038 7.41823 55.8347 6.84679 54.6708 6.61528C53.5069 6.38376 52.3005 6.50258 51.2042 6.95671C50.1078 7.41084 49.1708 8.17987 48.5115 9.16657C47.8522 10.1533 47.5003 11.3133 47.5003 12.5C47.5019 14.0908 48.1346 15.6159 49.2595 16.7408C50.3843 17.8657 51.9095 18.4983 53.5003 18.5Z" fill="white"/>
</g>
<defs>
<clipPath id="clip0_27_3422">
<rect width="72" height="32" rx="5" fill="white"/>
</clipPath>
</defs>
</svg>
