<svg width="72" height="32" viewBox="0 0 72 32" fill="none" xmlns="http://www.w3.org/2000/svg">
<g clip-path="url(#clip0_27_3462)">
<path d="M8.01501 18.475C8.0184 18.5427 8.00798 18.6105 7.98438 18.674C7.96077 18.7376 7.92448 18.7957 7.87771 18.8448C7.83094 18.8939 7.77466 18.933 7.71231 18.9597C7.64996 18.9864 7.58283 19.0001 7.51501 19H2.00001C1.77431 19.0003 1.55512 18.9243 1.37811 18.7843C1.20109 18.6443 1.07664 18.4485 1.02501 18.2288C0.992865 18.0784 0.994347 17.9227 1.02935 17.773C1.06436 17.6232 1.13203 17.4831 1.22751 17.3625C2.10977 16.1925 3.28038 15.2712 4.62501 14.6888C4.03467 14.1505 3.5819 13.4786 3.30461 12.7294C3.02732 11.9802 2.9336 11.1755 3.03128 10.3826C3.12897 9.58968 3.41522 8.83175 3.86606 8.17224C4.31691 7.51273 4.91922 6.97085 5.62255 6.59198C6.32588 6.21312 7.10976 6.0083 7.90852 5.99468C8.70729 5.98107 9.49769 6.15904 10.2135 6.51371C10.9294 6.86838 11.5498 7.38941 12.0229 8.03316C12.4959 8.67692 12.8079 9.42466 12.9325 10.2138C12.9486 10.3199 12.9296 10.4283 12.8784 10.5227C12.8272 10.617 12.7465 10.692 12.6488 10.7363C11.2618 11.3775 10.0871 12.4021 9.2634 13.6891C8.4397 14.9761 8.00133 16.4719 8.00001 18C8.00001 18.16 8.00001 18.3175 8.01501 18.475ZM30.765 17.3613C29.8848 16.1926 28.7169 15.2719 27.375 14.6888C27.9654 14.1505 28.4181 13.4786 28.6954 12.7294C28.9727 11.9802 29.0664 11.1755 28.9687 10.3826C28.8711 9.58968 28.5848 8.83175 28.134 8.17224C27.6831 7.51273 27.0808 6.97085 26.3775 6.59198C25.6741 6.21312 24.8903 6.0083 24.0915 5.99468C23.2927 5.98107 22.5023 6.15904 21.7865 6.51371C21.0707 6.86838 20.4502 7.38941 19.9772 8.03316C19.5041 8.67692 19.1922 9.42466 19.0675 10.2138C19.0514 10.3199 19.0704 10.4283 19.1216 10.5227C19.1729 10.617 19.2535 10.692 19.3513 10.7363C20.7383 11.3775 21.9129 12.4021 22.7366 13.6891C23.5603 14.9761 23.9987 16.4719 24 18C24 18.16 24 18.3175 23.985 18.475C23.9816 18.5427 23.992 18.6105 24.0157 18.674C24.0393 18.7376 24.0755 18.7957 24.1223 18.8448C24.1691 18.8939 24.2254 18.933 24.2877 18.9597C24.3501 18.9864 24.4172 19.0001 24.485 19H30C30.2257 19.0003 30.4449 18.9243 30.6219 18.7843C30.7989 18.6443 30.9234 18.4485 30.975 18.2288C31.0074 18.0781 31.0059 17.9221 30.9706 17.7721C30.9354 17.6221 30.8673 17.4818 30.7713 17.3613H30.765ZM19.64 22.7588C20.6357 21.9962 21.3674 20.9408 21.7323 19.741C22.0972 18.5411 22.0769 17.257 21.6744 16.0692C21.2718 14.8815 20.5071 13.8497 19.4879 13.119C18.4686 12.3882 17.246 11.9952 15.9919 11.9952C14.7377 11.9952 13.5151 12.3882 12.4959 13.119C11.4766 13.8497 10.712 14.8815 10.3094 16.0692C9.90683 17.257 9.88657 18.5411 10.2515 19.741C10.6164 20.9408 11.3481 21.9962 12.3438 22.7588C10.5769 23.5243 9.1016 24.8354 8.13376 26.5C8.04599 26.652 7.99978 26.8245 7.99979 27.0001C7.9998 27.1756 8.04603 27.3481 8.13382 27.5001C8.22161 27.6521 8.34788 27.7784 8.49993 27.8661C8.65199 27.9539 8.82446 28 9.00001 28H23C23.1756 28 23.348 27.9539 23.5001 27.8661C23.6521 27.7784 23.7784 27.6521 23.8662 27.5001C23.954 27.3481 24.0002 27.1756 24.0002 27.0001C24.0002 26.8245 23.954 26.652 23.8663 26.5C22.8964 24.8343 21.4183 23.5231 19.6488 22.7588H19.64Z" fill="white"/>
<path d="M60.5473 22.6375C61.47 21.734 62.1027 20.5761 62.3647 19.3116C62.6266 18.047 62.5059 16.7331 62.018 15.5374C61.5301 14.3417 60.6971 13.3184 59.6252 12.5981C58.5533 11.8778 57.2912 11.4931 55.9998 11.4931C54.7084 11.4931 53.4462 11.8778 52.3743 12.5981C51.3025 13.3184 50.4694 14.3417 49.9815 15.5374C49.4936 16.7331 49.373 18.047 49.6349 19.3116C49.8968 20.5761 50.5295 21.734 51.4523 22.6375C49.89 23.468 48.591 24.7188 47.7023 26.2488C47.5119 26.5927 47.4642 26.9976 47.5694 27.3764C47.6745 27.7551 47.9242 28.0775 48.2646 28.274C48.605 28.4706 49.009 28.5257 49.3896 28.4275C49.7702 28.3292 50.097 28.0855 50.2998 27.7488C50.8859 26.7584 51.7199 25.9379 52.7196 25.3679C53.7193 24.7979 54.8503 24.4981 56.001 24.4981C57.1518 24.4981 58.2827 24.7979 59.2825 25.3679C60.2822 25.9379 61.1161 26.7584 61.7023 27.7488C61.7988 27.9231 61.9291 28.0765 62.0855 28.2C62.2419 28.3234 62.4214 28.4145 62.6134 28.4678C62.8054 28.5211 63.0062 28.5356 63.2039 28.5105C63.4016 28.4853 63.5923 28.4211 63.7648 28.3214C63.9374 28.2218 64.0884 28.0887 64.209 27.93C64.3296 27.7714 64.4173 27.5903 64.4671 27.3973C64.5169 27.2043 64.5278 27.0034 64.499 26.8062C64.4703 26.609 64.4026 26.4195 64.2998 26.2488C63.4103 24.7185 62.1105 23.4676 60.5473 22.6375ZM52.4998 18C52.4998 17.3078 52.7051 16.6311 53.0896 16.0555C53.4742 15.4799 54.0208 15.0313 54.6604 14.7664C55.2999 14.5015 56.0037 14.4322 56.6826 14.5673C57.3615 14.7023 57.9852 15.0356 58.4747 15.5251C58.9641 16.0146 59.2975 16.6383 59.4325 17.3172C59.5676 17.9961 59.4983 18.6999 59.2334 19.3394C58.9685 19.9789 58.5199 20.5256 57.9443 20.9101C57.3687 21.2947 56.692 21.5 55.9998 21.5C55.0715 21.5 54.1813 21.1313 53.5249 20.4749C52.8685 19.8185 52.4998 18.9283 52.4998 18ZM70.901 19.1988C70.7435 19.3172 70.5641 19.4034 70.3732 19.4525C70.1823 19.5016 69.9836 19.5126 69.7885 19.4849C69.5933 19.4571 69.4056 19.3912 69.2359 19.2908C69.0663 19.1905 68.9181 19.0577 68.7998 18.9C67.7585 17.5138 66.3185 16.4513 65.1335 16.195C64.8184 16.1269 64.5337 15.959 64.3215 15.7163C64.1092 15.4737 63.9809 15.1691 63.9553 14.8477C63.9298 14.5263 64.0085 14.2053 64.1797 13.9321C64.351 13.659 64.6056 13.4483 64.906 13.3313C65.28 13.1853 65.6133 12.9514 65.8778 12.6493C66.1423 12.3473 66.3301 11.986 66.4255 11.596C66.5208 11.206 66.5208 10.7988 66.4255 10.4088C66.3301 10.0188 66.1423 9.65752 65.8778 9.35548C65.6133 9.05344 65.28 8.81953 64.906 8.67354C64.532 8.52756 64.1284 8.47378 63.7292 8.51677C63.3301 8.55977 62.9471 8.69825 62.6128 8.92053C62.2785 9.1428 62.0026 9.44232 61.8085 9.79376C61.7165 9.97185 61.5897 10.1297 61.4356 10.2579C61.2815 10.3862 61.1033 10.4822 60.9115 10.5404C60.7196 10.5986 60.5181 10.6178 60.3187 10.5968C60.1193 10.5758 59.9262 10.515 59.7507 10.418C59.5752 10.3211 59.421 10.19 59.297 10.0324C59.1731 9.87486 59.082 9.69404 59.0291 9.50067C58.9762 9.3073 58.9627 9.10529 58.9892 8.90658C59.0157 8.70787 59.0818 8.51649 59.1835 8.34376C59.5547 7.68744 60.0569 7.11445 60.6588 6.66039C61.2608 6.20632 61.9496 5.88087 62.6827 5.70425C63.4157 5.52764 64.1772 5.50363 64.9199 5.63372C65.6626 5.76381 66.3706 6.04521 67 6.46046C67.6293 6.87571 68.1666 7.41593 68.5783 8.04756C68.9901 8.67919 69.2676 9.38874 69.3936 10.1321C69.5196 10.8755 69.4914 11.6369 69.3108 12.3689C69.1301 13.101 68.8009 13.7881 68.3435 14.3875C69.4441 15.1207 70.4103 16.0378 71.1998 17.0988C71.4386 17.4169 71.5413 17.8168 71.4853 18.2106C71.4293 18.6044 71.2191 18.9599 70.901 19.1988ZM46.866 16.1988C45.681 16.455 44.241 17.5175 43.1998 18.905C42.9603 19.2231 42.6042 19.433 42.2099 19.4886C41.8156 19.5441 41.4154 19.4408 41.0973 19.2013C40.7792 18.9617 40.5693 18.6057 40.5137 18.2114C40.4582 17.8171 40.5615 17.4168 40.801 17.0988C41.5908 16.0381 42.557 15.121 43.6573 14.3875C43.1999 13.7881 42.8707 13.101 42.69 12.3689C42.5094 11.6369 42.4812 10.8755 42.6072 10.1321C42.7332 9.38874 43.0107 8.67919 43.4225 8.04756C43.8343 7.41593 44.3715 6.87571 45.0009 6.46046C45.6302 6.04521 46.3382 5.76381 47.0809 5.63372C47.8236 5.50363 48.5851 5.52764 49.3182 5.70425C50.0512 5.88087 50.7401 6.20632 51.342 6.66039C51.944 7.11445 52.4461 7.68744 52.8173 8.34376C52.919 8.51649 52.9851 8.70787 53.0116 8.90658C53.0382 9.10529 53.0246 9.3073 52.9717 9.50067C52.9188 9.69404 52.8277 9.87486 52.7038 10.0324C52.5799 10.19 52.4256 10.3211 52.2501 10.418C52.0746 10.515 51.8815 10.5758 51.6821 10.5968C51.4828 10.6178 51.2812 10.5986 51.0894 10.5404C50.8975 10.4822 50.7193 10.3862 50.5652 10.2579C50.4111 10.1297 50.2843 9.97185 50.1923 9.79376C49.9982 9.44232 49.7223 9.1428 49.388 8.92053C49.0537 8.69825 48.6707 8.55977 48.2716 8.51677C47.8724 8.47378 47.4688 8.52756 47.0948 8.67354C46.7208 8.81953 46.3875 9.05344 46.123 9.35548C45.8585 9.65752 45.6707 10.0188 45.5754 10.4088C45.48 10.7988 45.48 11.206 45.5754 11.596C45.6707 11.986 45.8585 12.3473 46.123 12.6493C46.3875 12.9514 46.7208 13.1853 47.0948 13.3313C47.3952 13.4483 47.6498 13.659 47.8211 13.9321C47.9923 14.2053 48.071 14.5263 48.0455 14.8477C48.02 15.1691 47.8916 15.4737 47.6793 15.7163C47.4671 15.959 47.1824 16.1269 46.8673 16.195L46.866 16.1988Z" fill="white"/>
</g>
<defs>
<clipPath id="clip0_27_3462">
<rect width="72" height="32" rx="5" fill="white"/>
</clipPath>
</defs>
</svg>
