<svg width="72" height="32" viewBox="0 0 72 32" fill="none" xmlns="http://www.w3.org/2000/svg">
<g clip-path="url(#clip0_27_3377)">
<path d="M21.5 15C21.5 16.0878 21.1774 17.1512 20.5731 18.0556C19.9687 18.9601 19.1098 19.6651 18.1048 20.0813C17.0998 20.4976 15.9939 20.6065 14.927 20.3943C13.8601 20.1821 12.8801 19.6583 12.1109 18.8891C11.3417 18.1199 10.8179 17.1399 10.6057 16.073C10.3935 15.0061 10.5024 13.9002 10.9187 12.8952C11.335 11.8902 12.0399 11.0313 12.9444 10.4269C13.8488 9.82257 14.9122 9.5 16 9.5C17.4582 9.50165 18.8562 10.0816 19.8873 11.1127C20.9184 12.1438 21.4984 13.5418 21.5 15ZM29 16C29 18.5712 28.2376 21.0846 26.8091 23.2224C25.3807 25.3603 23.3503 27.0265 20.9749 28.0104C18.5995 28.9944 15.9856 29.2518 13.4638 28.7502C10.9421 28.2486 8.6257 27.0105 6.80762 25.1924C4.98953 23.3743 3.75141 21.0579 3.2498 18.5362C2.74819 16.0144 3.00563 13.4006 3.98957 11.0251C4.97351 8.64968 6.63975 6.61935 8.77759 5.1909C10.9154 3.76244 13.4288 3 16 3C19.4467 3.00364 22.7512 4.37445 25.1884 6.81163C27.6256 9.24882 28.9964 12.5533 29 16ZM27 16C26.9984 14.5194 26.6982 13.0544 26.1174 11.6924C25.5366 10.3305 24.6871 9.09974 23.6198 8.07367C22.5524 7.04759 21.289 6.24732 19.9053 5.7207C18.5215 5.19408 17.0457 4.95194 15.5663 5.00875C9.67876 5.23625 4.98376 10.14 5.00001 16.0312C5.00565 18.7132 5.99478 21.2998 7.78001 23.3013C8.50703 22.2468 9.43056 21.3423 10.5 20.6375C10.5912 20.5773 10.6996 20.5486 10.8086 20.5558C10.9177 20.563 11.0213 20.6058 11.1038 20.6775C12.4627 21.8529 14.1995 22.4998 15.9963 22.4998C17.793 22.4998 19.5298 21.8529 20.8888 20.6775C20.9712 20.6058 21.0749 20.563 21.1839 20.5558C21.2929 20.5486 21.4013 20.5773 21.4925 20.6375C22.5633 21.342 23.4881 22.2464 24.2163 23.3013C26.0103 21.2925 27.0013 18.6932 27 16Z" fill="white"/>
<path d="M56 2.5C53.33 2.5 50.7199 3.29176 48.4998 4.77516C46.2797 6.25856 44.5494 8.36697 43.5276 10.8338C42.5058 13.3006 42.2385 16.015 42.7594 18.6337C43.2803 21.2525 44.5661 23.6579 46.4541 25.5459C48.3421 27.434 50.7475 28.7197 53.3663 29.2406C55.985 29.7615 58.6994 29.4942 61.1662 28.4724C63.633 27.4506 65.7414 25.7203 67.2248 23.5002C68.7082 21.2801 69.5 18.67 69.5 16C69.496 12.4208 68.0724 8.98932 65.5416 6.45844C63.0107 3.92756 59.5792 2.50397 56 2.5ZM49.9463 24.5713C50.6426 23.6191 51.5537 22.8447 52.6056 22.3108C53.6574 21.7769 54.8204 21.4987 56 21.4987C57.1796 21.4987 58.3426 21.7769 59.3944 22.3108C60.4463 22.8447 61.3574 23.6191 62.0538 24.5713C60.2845 25.826 58.169 26.5 56 26.5C53.831 26.5 51.7155 25.826 49.9463 24.5713ZM52.5 15C52.5 14.3078 52.7053 13.6311 53.0899 13.0555C53.4744 12.4799 54.0211 12.0313 54.6606 11.7664C55.3002 11.5015 56.0039 11.4322 56.6828 11.5673C57.3618 11.7023 57.9854 12.0356 58.4749 12.5251C58.9644 13.0146 59.2977 13.6383 59.4328 14.3172C59.5678 14.9961 59.4985 15.6999 59.2336 16.3394C58.9687 16.9789 58.5201 17.5256 57.9445 17.9101C57.3689 18.2947 56.6922 18.5 56 18.5C55.0717 18.5 54.1815 18.1313 53.5251 17.4749C52.8688 16.8185 52.5 15.9283 52.5 15ZM64.25 22.4925C63.2778 21.2559 62.0385 20.2551 60.625 19.565C61.5259 18.6527 62.1368 17.4944 62.381 16.2358C62.6252 14.9772 62.4917 13.6744 61.9974 12.4915C61.503 11.3085 60.6699 10.2982 59.6027 9.58757C58.5356 8.87695 57.2821 8.49779 56 8.49779C54.7179 8.49779 53.4644 8.87695 52.3973 9.58757C51.3302 10.2982 50.497 11.3085 50.0026 12.4915C49.5083 13.6744 49.3748 14.9772 49.619 16.2358C49.8632 17.4944 50.4741 18.6527 51.375 19.565C49.9615 20.2551 48.7222 21.2559 47.75 22.4925C46.5288 20.9444 45.7682 19.0838 45.5552 17.1236C45.3422 15.1634 45.6855 13.1828 46.5457 11.4086C47.4059 9.63437 48.7483 8.13822 50.4192 7.09139C52.0901 6.04457 54.022 5.48938 55.9938 5.48938C57.9655 5.48938 59.8974 6.04457 61.5683 7.09139C63.2392 8.13822 64.5816 9.63437 65.4418 11.4086C66.3021 13.1828 66.6453 15.1634 66.4323 17.1236C66.2193 19.0838 65.4587 20.9444 64.2375 22.4925H64.25Z" fill="white"/>
</g>
<defs>
<clipPath id="clip0_27_3377">
<rect width="72" height="32" rx="5" fill="white"/>
</clipPath>
</defs>
</svg>
