<svg width="72" height="32" viewBox="0 0 72 32" fill="none" xmlns="http://www.w3.org/2000/svg">
<g clip-path="url(#clip0_27_3442)">
<path d="M21.5 15C21.5 16.0878 21.1774 17.1512 20.5731 18.0556C19.9687 18.9601 19.1098 19.6651 18.1048 20.0813C17.0998 20.4976 15.9939 20.6065 14.927 20.3943C13.8601 20.1821 12.8801 19.6583 12.1109 18.8891C11.3417 18.1199 10.8179 17.1399 10.6057 16.073C10.3935 15.0061 10.5024 13.9002 10.9187 12.8952C11.3349 11.8902 12.0399 11.0313 12.9444 10.4269C13.8488 9.82257 14.9122 9.5 16 9.5C17.4587 9.5 18.8576 10.0795 19.8891 11.1109C20.9205 12.1424 21.5 13.5413 21.5 15ZM28 6V26C28 26.5304 27.7893 27.0391 27.4142 27.4142C27.0391 27.7893 26.5304 28 26 28H6C5.46957 28 4.96086 27.7893 4.58579 27.4142C4.21071 27.0391 4 26.5304 4 26V6C4 5.46957 4.21071 4.96086 4.58579 4.58579C4.96086 4.21071 5.46957 4 6 4H26C26.5304 4 27.0391 4.21071 27.4142 4.58579C27.7893 4.96086 28 5.46957 28 6ZM26 26V6H6V26H6.45875C7.054 24.1218 8.18701 22.4595 9.7175 21.2188C9.97417 21.0121 10.2392 20.8196 10.5125 20.6413C10.6036 20.5818 10.7115 20.5537 10.82 20.5611C10.9285 20.5686 11.0317 20.6112 11.1138 20.6825C12.4718 21.8548 14.206 22.4998 16 22.4998C17.794 22.4998 19.5282 21.8548 20.8862 20.6825C20.9683 20.6112 21.0715 20.5686 21.18 20.5611C21.2885 20.5537 21.3964 20.5818 21.4875 20.6413C21.7608 20.8204 22.0258 21.0129 22.2825 21.2188C23.813 22.4595 24.946 24.1218 25.5413 26H26Z" fill="white"/>
<path d="M66 3.5H46C45.337 3.5 44.7011 3.76339 44.2322 4.23223C43.7634 4.70107 43.5 5.33696 43.5 6V26C43.5 26.663 43.7634 27.2989 44.2322 27.7678C44.7011 28.2366 45.337 28.5 46 28.5H66C66.663 28.5 67.2989 28.2366 67.7678 27.7678C68.2366 27.2989 68.5 26.663 68.5 26V6C68.5 5.33696 68.2366 4.70107 67.7678 4.23223C67.2989 3.76339 66.663 3.5 66 3.5ZM65.5 6.5V24.53C64.4859 22.3676 62.762 20.6176 60.615 19.5713C61.5187 18.6601 62.1325 17.5018 62.379 16.2424C62.6255 14.983 62.4936 13.6788 62.0001 12.4942C61.5066 11.3096 60.6734 10.2976 59.6057 9.58569C58.5379 8.87381 57.2833 8.49394 56 8.49394C54.7167 8.49394 53.4621 8.87381 52.3943 9.58569C51.3266 10.2976 50.4934 11.3096 49.9999 12.4942C49.5064 13.6788 49.3745 14.983 49.621 16.2424C49.8675 17.5018 50.4813 18.6601 51.385 19.5713C49.238 20.6176 47.5141 22.3676 46.5 24.53V6.5H65.5ZM52.5 15C52.5 14.3078 52.7053 13.6311 53.0899 13.0555C53.4744 12.4799 54.0211 12.0313 54.6606 11.7664C55.3001 11.5015 56.0039 11.4322 56.6828 11.5673C57.3617 11.7023 57.9854 12.0356 58.4749 12.5251C58.9644 13.0146 59.2977 13.6383 59.4327 14.3172C59.5678 14.9961 59.4985 15.6999 59.2336 16.3394C58.9687 16.9789 58.5201 17.5256 57.9445 17.9101C57.3689 18.2947 56.6922 18.5 56 18.5C55.0717 18.5 54.1815 18.1313 53.5251 17.4749C52.8687 16.8185 52.5 15.9283 52.5 15ZM56 21.5C57.7156 21.4931 59.3805 22.081 60.7113 23.1637C61.5026 23.805 62.1561 24.5997 62.6325 25.5H49.3675C49.8439 24.5997 50.4974 23.805 51.2887 23.1637C52.6195 22.081 54.2844 21.4931 56 21.5Z" fill="white"/>
</g>
<defs>
<clipPath id="clip0_27_3442">
<rect width="72" height="32" rx="5" fill="white"/>
</clipPath>
</defs>
</svg>
