<svg width="72" height="32" viewBox="0 0 72 32" fill="none" xmlns="http://www.w3.org/2000/svg">
<g clip-path="url(#clip0_27_3367)">
<path d="M28.8662 27.5C28.7784 27.6521 28.6521 27.7783 28.5001 27.8661C28.348 27.9539 28.1755 28.0001 28 28H3.99995C3.8245 27.9998 3.65219 27.9535 3.50031 27.8657C3.34843 27.7778 3.22234 27.6516 3.13469 27.4996C3.04705 27.3476 3.00093 27.1752 3.00098 26.9998C3.00102 26.8243 3.04723 26.652 3.13495 26.5C5.0387 23.2088 7.97245 20.8488 11.3962 19.73C9.70266 18.7218 8.38688 17.1856 7.65094 15.3573C6.91499 13.5289 6.79956 11.5095 7.32238 9.60921C7.8452 7.7089 8.97735 6.03275 10.545 4.83817C12.1126 3.64358 14.029 2.99661 16 2.99661C17.9709 2.99661 19.8873 3.64358 21.4549 4.83817C23.0226 6.03275 24.1547 7.7089 24.6775 9.60921C25.2003 11.5095 25.0849 13.5289 24.349 15.3573C23.613 17.1856 22.2972 18.7218 20.6037 19.73C24.0275 20.8488 26.9612 23.2088 28.865 26.5C28.9529 26.6519 28.9993 26.8243 28.9996 26.9998C28.9998 27.1754 28.9538 27.3479 28.8662 27.5Z" fill="white"/>
<path d="M69.2978 26.25C67.584 23.2421 64.9079 20.8984 61.7003 19.5962C63.2954 18.3999 64.4737 16.732 65.0682 14.8288C65.6627 12.9256 65.6433 10.8836 65.0128 8.99208C64.3823 7.10052 63.1726 5.45529 61.555 4.28945C59.9375 3.1236 57.9942 2.49625 56.0003 2.49625C54.0064 2.49625 52.0631 3.1236 50.4456 4.28945C48.828 5.45529 47.6183 7.10052 46.9878 8.99208C46.3573 10.8836 46.3379 12.9256 46.9324 14.8288C47.5269 16.732 48.7052 18.3999 50.3003 19.5962C47.0927 20.8984 44.4166 23.2421 42.7028 26.25C42.5966 26.4207 42.5258 26.6111 42.4947 26.8098C42.4635 27.0084 42.4726 27.2113 42.5215 27.4064C42.5703 27.6014 42.6578 27.7847 42.7789 27.9452C42.8999 28.1058 43.0521 28.2404 43.2262 28.341C43.4003 28.4416 43.5928 28.5061 43.7924 28.5308C43.992 28.5555 44.1944 28.5398 44.3878 28.4847C44.5812 28.4296 44.7615 28.3361 44.9181 28.2099C45.0746 28.0837 45.2042 27.9273 45.299 27.75C47.564 23.835 51.564 21.5 56.0003 21.5C60.4366 21.5 64.4366 23.8362 66.7015 27.75C66.9072 28.0807 67.2334 28.3184 67.6111 28.4129C67.9888 28.5075 68.3885 28.4514 68.7257 28.2566C69.0629 28.0618 69.3111 27.7436 69.4178 27.3691C69.5246 26.9946 69.4816 26.5933 69.2978 26.25ZM49.5003 12C49.5003 10.7144 49.8815 9.45771 50.5957 8.38879C51.31 7.31987 52.3251 6.48675 53.5129 5.99478C54.7006 5.50281 56.0075 5.37409 57.2684 5.62489C58.5293 5.8757 59.6875 6.49476 60.5965 7.4038C61.5055 8.31284 62.1246 9.47103 62.3754 10.7319C62.6262 11.9928 62.4975 13.2997 62.0055 14.4874C61.5135 15.6752 60.6804 16.6903 59.6115 17.4045C58.5426 18.1188 57.2859 18.5 56.0003 18.5C54.277 18.498 52.6249 17.8126 51.4063 16.594C50.1877 15.3754 49.5023 13.7233 49.5003 12Z" fill="white"/>
</g>
<defs>
<clipPath id="clip0_27_3367">
<rect width="72" height="32" rx="5" fill="white"/>
</clipPath>
</defs>
</svg>
