<svg width="72" height="32" viewBox="0 0 72 32" fill="none" xmlns="http://www.w3.org/2000/svg">
<g clip-path="url(#clip0_27_3392)">
<path d="M28.5308 7.88375L27.9483 7.5475C28.0166 7.1857 28.0166 6.8143 27.9483 6.4525L28.5308 6.11625C28.7605 5.98364 28.9282 5.7652 28.9969 5.50898C29.0656 5.25276 29.0297 4.97974 28.897 4.75C28.7644 4.52026 28.546 4.3526 28.2898 4.28392C28.0336 4.21523 27.7605 4.25114 27.5308 4.38375L26.947 4.72125C26.6677 4.48157 26.3465 4.29554 25.9995 4.1725V3.5C25.9995 3.23478 25.8942 2.98043 25.7067 2.79289C25.5191 2.60536 25.2648 2.5 24.9995 2.5C24.7343 2.5 24.48 2.60536 24.2924 2.79289C24.1049 2.98043 23.9995 3.23478 23.9995 3.5V4.1725C23.6526 4.29554 23.3314 4.48157 23.052 4.72125L22.4683 4.38375C22.3545 4.31809 22.229 4.27548 22.0987 4.25835C21.9685 4.24122 21.8362 4.24991 21.7093 4.28392C21.5824 4.31792 21.4635 4.37659 21.3593 4.45656C21.2551 4.53653 21.1677 4.63624 21.102 4.75C21.0364 4.86376 20.9938 4.98933 20.9766 5.11956C20.9595 5.24979 20.9682 5.38211 21.0022 5.50898C21.0362 5.63585 21.0949 5.75477 21.1749 5.85897C21.2548 5.96316 21.3545 6.05059 21.4683 6.11625L22.0508 6.4525C21.9825 6.8143 21.9825 7.1857 22.0508 7.5475L21.4683 7.88375C21.2775 7.99377 21.1284 8.16367 21.0441 8.36709C20.9598 8.57052 20.945 8.79609 21.002 9.00879C21.059 9.22149 21.1846 9.40944 21.3593 9.54346C21.534 9.67748 21.7481 9.75009 21.9683 9.75C22.1439 9.75054 22.3164 9.70438 22.4683 9.61625L23.052 9.27875C23.3314 9.51843 23.6526 9.70446 23.9995 9.8275V10.5C23.9995 10.7652 24.1049 11.0196 24.2924 11.2071C24.48 11.3946 24.7343 11.5 24.9995 11.5C25.2648 11.5 25.5191 11.3946 25.7067 11.2071C25.8942 11.0196 25.9995 10.7652 25.9995 10.5V9.8275C26.3465 9.70446 26.6677 9.51843 26.947 9.27875L27.5308 9.61625C27.6827 9.70438 27.8552 9.75054 28.0308 9.75C28.251 9.75009 28.4651 9.67748 28.6398 9.54346C28.8145 9.40944 28.9401 9.22149 28.9971 9.00879C29.0541 8.79609 29.0393 8.57052 28.955 8.36709C28.8707 8.16367 28.7215 7.99377 28.5308 7.88375ZM24.9995 8C24.8018 8 24.6084 7.94135 24.444 7.83147C24.2795 7.72159 24.1514 7.56541 24.0757 7.38268C24 7.19996 23.9802 6.99889 24.0188 6.80491C24.0573 6.61093 24.1526 6.43275 24.2924 6.29289C24.4323 6.15304 24.6105 6.0578 24.8045 6.01921C24.9984 5.98063 25.1995 6.00043 25.3822 6.07612C25.565 6.15181 25.7211 6.27998 25.831 6.44443C25.9409 6.60888 25.9995 6.80222 25.9995 7C25.9995 7.26522 25.8942 7.51957 25.7067 7.70711C25.5191 7.89464 25.2648 8 24.9995 8ZM15.9995 9.5C17.0873 9.5 18.1507 9.82257 19.0552 10.4269C19.9597 11.0313 20.6646 11.8902 21.0809 12.8952C21.4972 13.9002 21.6061 15.0061 21.3939 16.073C21.1816 17.1399 20.6578 18.1199 19.8886 18.8891C19.1194 19.6583 18.1394 20.1821 17.0725 20.3943C16.0056 20.6065 14.8998 20.4976 13.8948 20.0813C12.8898 19.6651 12.0308 18.9601 11.4265 18.0556C10.8221 17.1512 10.4995 16.0878 10.4995 15C10.4995 13.5413 11.079 12.1424 12.1105 11.1109C13.1419 10.0795 14.5409 9.5 15.9995 9.5ZM28.8195 13.835C29.2764 16.5507 28.8584 19.3413 27.6258 21.804C26.3933 24.2666 24.41 26.2738 21.9623 27.5358C19.5146 28.7977 16.7292 29.2492 14.0082 28.8249C11.2872 28.4006 8.7715 27.1226 6.82423 25.1753C4.87696 23.228 3.59892 20.7123 3.17464 17.9913C2.75036 15.2703 3.2018 12.4849 4.46377 10.0372C5.72575 7.58956 7.73295 5.60627 10.1956 4.37372C12.6582 3.14117 15.4488 2.72314 18.1645 3.18C18.4241 3.22591 18.6551 3.37245 18.8072 3.58776C18.9593 3.80307 19.0202 4.06973 18.9767 4.32973C18.9332 4.58972 18.7888 4.82203 18.5749 4.97611C18.361 5.13019 18.0949 5.19359 17.8345 5.1525C16.2572 4.88716 14.641 4.96872 13.0984 5.39151C11.5558 5.8143 10.1238 6.56816 8.90219 7.60062C7.68056 8.63309 6.69858 9.91937 6.02459 11.3699C5.35061 12.8205 5.00081 14.4005 4.99954 16C4.99717 18.6927 5.98686 21.292 7.77954 23.3013C8.50657 22.2468 9.43009 21.3423 10.4995 20.6375C10.5907 20.5773 10.6991 20.5486 10.8082 20.5558C10.9172 20.563 11.0209 20.6058 11.1033 20.6775C12.462 21.8531 14.1985 22.5001 15.9952 22.5001C17.7918 22.5001 19.5284 21.8531 20.887 20.6775C20.9696 20.6055 21.0735 20.5626 21.1828 20.5553C21.2921 20.5481 21.4007 20.577 21.492 20.6375C22.5625 21.3423 23.4873 22.2467 24.2158 23.3013C26.0098 21.2925 27.0009 18.6932 26.9995 16C26.9996 15.3852 26.9486 14.7714 26.847 14.165C26.824 14.0349 26.827 13.9016 26.8559 13.7726C26.8847 13.6437 26.9388 13.5218 27.015 13.4139C27.0912 13.306 27.188 13.2143 27.2999 13.144C27.4118 13.0738 27.5365 13.0264 27.6668 13.0046C27.797 12.9828 27.9304 12.987 28.059 13.017C28.1877 13.047 28.3091 13.1023 28.4163 13.1795C28.5235 13.2567 28.6143 13.3544 28.6835 13.4669C28.7527 13.5794 28.799 13.7045 28.8195 13.835Z" fill="white"/>
<path d="M61.1963 5.76375C61.3193 5.38552 61.5875 5.07165 61.942 4.89116C62.2964 4.71067 62.708 4.67833 63.0863 4.80125L63.5 4.935V4.5C63.5 4.10218 63.658 3.72064 63.9393 3.43934C64.2207 3.15804 64.6022 3 65 3C65.3978 3 65.7794 3.15804 66.0607 3.43934C66.342 3.72064 66.5 4.10218 66.5 4.5V4.935L66.9138 4.80125C67.1021 4.73619 67.3016 4.70931 67.5004 4.72218C67.6993 4.73506 67.8936 4.78744 68.072 4.87625C68.2504 4.96506 68.4093 5.08854 68.5394 5.23945C68.6696 5.39037 68.7684 5.56571 68.83 5.75522C68.8916 5.94474 68.9148 6.14463 68.8983 6.34323C68.8818 6.54183 68.8259 6.73515 68.7339 6.9119C68.6418 7.08865 68.5155 7.24529 68.3622 7.37266C68.209 7.50003 68.0319 7.59559 67.8413 7.65375L67.4275 7.78875L67.6775 8.14125C67.7998 8.30012 67.889 8.4819 67.9398 8.67583C67.9906 8.86976 68.0021 9.07191 67.9734 9.27033C67.9448 9.46876 67.8767 9.65943 67.7731 9.83108C67.6695 10.0027 67.5326 10.1519 67.3704 10.2697C67.2082 10.3875 67.024 10.4716 66.8288 10.5171C66.6335 10.5625 66.4311 10.5684 66.2335 10.5342C66.036 10.5001 65.8473 10.4267 65.6786 10.3185C65.5098 10.2102 65.3645 10.0692 65.2513 9.90375L65 9.5525L64.75 9.90375C64.6367 10.0692 64.4914 10.2102 64.3227 10.3185C64.154 10.4267 63.9653 10.5001 63.7677 10.5342C63.5702 10.5684 63.3678 10.5625 63.1725 10.5171C62.9772 10.4716 62.7931 10.3875 62.6309 10.2697C62.4687 10.1519 62.3317 10.0027 62.2282 9.83108C62.1246 9.65943 62.0565 9.46876 62.0278 9.27033C61.9992 9.07191 62.0106 8.86976 62.0615 8.67583C62.1123 8.4819 62.2015 8.30012 62.3238 8.14125L62.5738 7.78875L62.16 7.65375C61.9726 7.59295 61.799 7.49583 61.6492 7.36794C61.4993 7.24005 61.3761 7.08389 61.2866 6.90838C61.1971 6.73287 61.1431 6.54145 61.1276 6.34505C61.1121 6.14866 61.1354 5.95113 61.1963 5.76375ZM69.5 16C69.5 18.67 68.7082 21.2801 67.2248 23.5002C65.7414 25.7203 63.633 27.4506 61.1662 28.4724C58.6994 29.4942 55.985 29.7615 53.3663 29.2406C50.7475 28.7197 48.3421 27.434 46.4541 25.5459C44.5661 23.6579 43.2803 21.2525 42.7594 18.6337C42.2385 16.015 42.5058 13.3006 43.5276 10.8338C44.5494 8.36697 46.2797 6.25856 48.4998 4.77516C50.7199 3.29176 53.33 2.5 56 2.5C56.7539 2.49984 57.5064 2.56214 58.25 2.68625C58.6424 2.75255 58.9923 2.97201 59.2229 3.29633C59.4534 3.62065 59.5457 4.02327 59.4794 4.41563C59.4131 4.80798 59.1936 5.15793 58.8693 5.38848C58.545 5.61903 58.1424 5.7113 57.75 5.645C57.1717 5.54846 56.5863 5.49996 56 5.5C54.0289 5.49867 52.0973 6.05259 50.4264 7.0983C48.7556 8.14402 47.4131 9.63924 46.5527 11.4127C45.6923 13.1861 45.3489 15.166 45.5618 17.1256C45.7746 19.0852 46.5352 20.9452 47.7563 22.4925C48.7285 21.2559 49.9677 20.2551 51.3813 19.565C50.4804 18.6527 49.8694 17.4944 49.6252 16.2358C49.3811 14.9772 49.5145 13.6744 50.0089 12.4915C50.5032 11.3085 51.3364 10.2982 52.4035 9.58757C53.4707 8.87695 54.7242 8.49779 56.0063 8.49779C57.2884 8.49779 58.5418 8.87695 59.609 9.58757C60.6761 10.2982 61.5093 11.3085 62.0036 12.4915C62.498 13.6744 62.6315 14.9772 62.3873 16.2358C62.1431 17.4944 61.5321 18.6527 60.6313 19.565C62.0448 20.2551 63.284 21.2559 64.2563 22.4925C65.7147 20.6432 66.5054 18.3552 66.5 16C66.4999 15.4137 66.4514 14.8283 66.355 14.25C66.2887 13.8576 66.381 13.455 66.6115 13.1307C66.8421 12.8064 67.192 12.5869 67.5844 12.5206C67.9767 12.4543 68.3794 12.5466 68.7037 12.7771C69.028 13.0077 69.2475 13.3576 69.3138 13.75C69.438 14.4936 69.5003 15.2461 69.5 16ZM56 18.5C56.6922 18.5 57.3689 18.2947 57.9445 17.9101C58.5201 17.5256 58.9687 16.9789 59.2336 16.3394C59.4985 15.6999 59.5678 14.9961 59.4328 14.3172C59.2977 13.6383 58.9644 13.0146 58.4749 12.5251C57.9854 12.0356 57.3618 11.7023 56.6828 11.5673C56.0039 11.4322 55.3002 11.5015 54.6606 11.7664C54.0211 12.0313 53.4744 12.4799 53.0899 13.0555C52.7053 13.6311 52.5 14.3078 52.5 15C52.5 15.9283 52.8688 16.8185 53.5251 17.4749C54.1815 18.1313 55.0717 18.5 56 18.5ZM56 26.5C58.1693 26.5016 60.2852 25.8274 62.0538 24.5713C61.3574 23.6191 60.4463 22.8447 59.3944 22.3108C58.3426 21.7769 57.1796 21.4987 56 21.4987C54.8204 21.4987 53.6574 21.7769 52.6056 22.3108C51.5537 22.8447 50.6426 23.6191 49.9463 24.5713C51.7148 25.8274 53.8307 26.5016 56 26.5Z" fill="white"/>
</g>
<defs>
<clipPath id="clip0_27_3392">
<rect width="72" height="32" rx="5" fill="white"/>
</clipPath>
</defs>
</svg>
