<svg width="72" height="32" viewBox="0 0 72 32" fill="none" xmlns="http://www.w3.org/2000/svg">
<g clip-path="url(#clip0_27_3457)">
<path d="M28.8 27.3988C28.9118 27.5473 28.9799 27.7241 28.9968 27.9093C29.0137 28.0944 28.9786 28.2806 28.8955 28.4469C28.8124 28.6133 28.6846 28.7531 28.5264 28.8508C28.3682 28.9485 28.1859 29.0002 28 29H4C3.81429 29 3.63225 28.9483 3.47427 28.8507C3.31629 28.753 3.18863 28.6133 3.10557 28.4472C3.02252 28.2811 2.98736 28.0952 3.00404 27.9102C3.02072 27.7252 3.08857 27.5486 3.2 27.4C4.08548 26.2128 5.26628 25.2781 6.625 24.6888C5.88022 24.009 5.35837 23.12 5.12794 22.1383C4.8975 21.1566 4.96926 20.1282 5.33379 19.1881C5.69832 18.248 6.33858 17.44 7.17054 16.8703C8.0025 16.3005 8.98728 15.9957 9.99563 15.9957C11.004 15.9957 11.9887 16.3005 12.8207 16.8703C13.6527 17.44 14.2929 18.248 14.6575 19.1881C15.022 20.1282 15.0937 21.1566 14.8633 22.1383C14.6329 23.12 14.111 24.009 13.3663 24.6888C14.3465 25.1125 15.2373 25.7186 15.9913 26.475C16.7452 25.7186 17.636 25.1125 18.6162 24.6888C17.8715 24.009 17.3496 23.12 17.1192 22.1383C16.8888 21.1566 16.9605 20.1282 17.325 19.1881C17.6896 18.248 18.3298 17.44 19.1618 16.8703C19.9938 16.3005 20.9785 15.9957 21.9869 15.9957C22.9952 15.9957 23.98 16.3005 24.812 16.8703C25.6439 17.44 26.2842 18.248 26.6487 19.1881C27.0132 20.1282 27.085 21.1566 26.8546 22.1383C26.6241 23.12 26.1023 24.009 25.3575 24.6888C26.7225 25.275 27.9097 26.2095 28.8 27.3988ZM3.4 15.8C3.50506 15.8788 3.62461 15.9361 3.75182 15.9687C3.87903 16.0013 4.01142 16.0085 4.14142 15.99C4.27142 15.9714 4.39649 15.9274 4.50949 15.8605C4.62249 15.7936 4.72121 15.7051 4.8 15.6C5.40546 14.7927 6.19055 14.1375 7.09311 13.6862C7.99567 13.2349 8.99091 13 10 13C11.0091 13 12.0043 13.2349 12.9069 13.6862C13.8094 14.1375 14.5945 14.7927 15.2 15.6C15.2931 15.7242 15.4139 15.825 15.5528 15.8944C15.6916 15.9639 15.8448 16 16 16C16.1552 16 16.3084 15.9639 16.4472 15.8944C16.5861 15.825 16.7069 15.7242 16.8 15.6C17.4055 14.7927 18.1906 14.1375 19.0931 13.6862C19.9957 13.2349 20.9909 13 22 13C23.0091 13 24.0043 13.2349 24.9069 13.6862C25.8095 14.1375 26.5945 14.7927 27.2 15.6C27.2789 15.7051 27.3777 15.7936 27.4907 15.8604C27.6038 15.9273 27.729 15.9713 27.859 15.9898C27.9891 16.0083 28.1215 16.001 28.2488 15.9683C28.376 15.9357 28.4956 15.8783 28.6006 15.7994C28.7057 15.7205 28.7942 15.6217 28.8611 15.5086C28.9279 15.3956 28.9719 15.2704 28.9904 15.1404C29.0089 15.0103 29.0016 14.8779 28.969 14.7506C28.9363 14.6234 28.8789 14.5038 28.8 14.3988C27.9145 13.2119 26.7337 12.2776 25.375 11.6888C26.1198 11.009 26.6416 10.12 26.8721 9.1383C27.1025 8.15664 27.0307 7.12825 26.6662 6.1881C26.3017 5.24796 25.6614 4.44 24.8295 3.87027C23.9975 3.30054 23.0127 2.99567 22.0044 2.99567C20.996 2.99567 20.0113 3.30054 19.1793 3.87027C18.3473 4.44 17.7071 5.24796 17.3425 6.1881C16.978 7.12825 16.9063 8.15664 17.1367 9.1383C17.3671 10.12 17.889 11.009 18.6338 11.6888C17.6535 12.1125 16.7627 12.7186 16.0088 13.475C15.2548 12.7186 14.364 12.1125 13.3837 11.6888C14.1285 11.009 14.6504 10.12 14.8808 9.1383C15.1112 8.15664 15.0395 7.12825 14.675 6.1881C14.3104 5.24796 13.6702 4.44 12.8382 3.87027C12.0062 3.30054 11.0215 2.99567 10.0131 2.99567C9.00479 2.99567 8.02 3.30054 7.18804 3.87027C6.35608 4.44 5.71582 5.24796 5.35129 6.1881C4.98676 7.12825 4.915 8.15664 5.14544 9.1383C5.37587 10.12 5.89772 11.009 6.6425 11.6888C5.2774 12.2755 4.09032 13.2104 3.2 14.4C3.12121 14.5051 3.06388 14.6246 3.03129 14.7518C2.9987 14.879 2.99148 15.0114 3.01005 15.1414C3.02862 15.2714 3.07262 15.3965 3.13953 15.5095C3.20643 15.6225 3.29494 15.7212 3.4 15.8Z" fill="white"/>
<path d="M43.0984 15.1988C43.2559 15.3173 43.4352 15.4036 43.626 15.4528C43.8169 15.502 44.0155 15.5131 44.2107 15.4854C44.4058 15.4578 44.5936 15.392 44.7633 15.2918C44.933 15.1915 45.0813 15.0588 45.1997 14.9013C45.7585 14.1558 46.4833 13.5508 47.3165 13.1341C48.1498 12.7174 49.0686 12.5004 50.0003 12.5004C50.9319 12.5004 51.8508 12.7174 52.684 13.1341C53.5173 13.5508 54.242 14.1558 54.8009 14.9013C55.0398 15.2193 55.3952 15.4295 55.789 15.4855C56.1829 15.5415 56.5828 15.4388 56.9009 15.2C57.0134 15.1146 57.1135 15.0141 57.1984 14.9013C57.7573 14.1558 58.482 13.5508 59.3153 13.1341C60.1485 12.7174 61.0674 12.5004 61.999 12.5004C62.9307 12.5004 63.8495 12.7174 64.6828 13.1341C65.516 13.5508 66.2408 14.1558 66.7997 14.9013C66.9169 15.0616 67.0647 15.1971 67.2347 15.2998C67.4047 15.4026 67.5934 15.4705 67.7898 15.4998C67.9863 15.529 68.1866 15.5189 68.3791 15.4701C68.5716 15.4214 68.7525 15.3348 68.9113 15.2156C69.0702 15.0963 69.2037 14.9467 69.3043 14.7754C69.4048 14.6041 69.4703 14.4146 69.497 14.2178C69.5237 14.021 69.5111 13.8208 69.4598 13.6289C69.4086 13.4371 69.3197 13.2573 69.1984 13.1C68.364 11.9828 67.2813 11.0747 66.0359 10.4475C66.5809 9.7021 66.9088 8.82034 66.9833 7.89997C67.0579 6.97959 66.8761 6.05656 66.4581 5.23319C66.0401 4.40982 65.4023 3.71828 64.6153 3.23522C63.8284 2.75216 62.923 2.49646 61.9997 2.49646C61.0763 2.49646 60.1709 2.75216 59.384 3.23522C58.597 3.71828 57.9592 4.40982 57.5412 5.23319C57.1233 6.05656 56.9414 6.97959 57.016 7.89997C57.0905 8.82034 57.4184 9.7021 57.9634 10.4475C57.2516 10.8045 56.5911 11.2556 55.9997 11.7888C55.4083 11.2552 54.7478 10.8036 54.0359 10.4463C54.5809 9.70085 54.9088 8.81909 54.9833 7.89872C55.0579 6.97834 54.8761 6.05531 54.4581 5.23194C54.0401 4.40857 53.4023 3.71703 52.6153 3.23397C51.8284 2.75091 50.923 2.49521 49.9997 2.49521C49.0763 2.49521 48.1709 2.75091 47.384 3.23397C46.597 3.71703 45.9592 4.40857 45.5412 5.23194C45.1233 6.05531 44.9414 6.97834 45.016 7.89872C45.0905 8.81909 45.4184 9.70085 45.9634 10.4463C44.718 11.0735 43.6354 11.9815 42.8009 13.0988C42.5619 13.4167 42.459 13.8166 42.5148 14.2104C42.5706 14.6042 42.7805 14.9597 43.0984 15.1988ZM61.9997 5.50001C62.3952 5.50001 62.7819 5.61731 63.1108 5.83707C63.4397 6.05683 63.696 6.36919 63.8474 6.73464C63.9988 7.10009 64.0384 7.50223 63.9612 7.89019C63.8841 8.27815 63.6936 8.63451 63.4139 8.91422C63.1342 9.19392 62.7778 9.38441 62.3898 9.46158C62.0019 9.53875 61.5997 9.49914 61.2343 9.34777C60.8688 9.19639 60.5565 8.94005 60.3367 8.61115C60.117 8.28225 59.9997 7.89557 59.9997 7.50001C59.9997 6.96957 60.2104 6.46087 60.5854 6.08579C60.9605 5.71072 61.4692 5.50001 61.9997 5.50001ZM49.9997 5.50001C50.3952 5.50001 50.7819 5.61731 51.1108 5.83707C51.4397 6.05683 51.696 6.36919 51.8474 6.73464C51.9988 7.10009 52.0384 7.50223 51.9612 7.89019C51.8841 8.27815 51.6936 8.63451 51.4139 8.91422C51.1342 9.19392 50.7778 9.38441 50.3898 9.46158C50.0019 9.53875 49.5997 9.49914 49.2343 9.34777C48.8688 9.19639 48.5565 8.94005 48.3367 8.61115C48.117 8.28225 47.9997 7.89557 47.9997 7.50001C47.9997 6.96957 48.2104 6.46087 48.5854 6.08579C48.9605 5.71072 49.4692 5.50001 49.9997 5.50001ZM66.0359 24.4463C66.5809 23.7009 66.9088 22.8191 66.9833 21.8987C67.0579 20.9783 66.8761 20.0553 66.4581 19.2319C66.0401 18.4086 65.4023 17.717 64.6153 17.234C63.8284 16.7509 62.923 16.4952 61.9997 16.4952C61.0763 16.4952 60.1709 16.7509 59.384 17.234C58.597 17.717 57.9592 18.4086 57.5412 19.2319C57.1233 20.0553 56.9414 20.9783 57.016 21.8987C57.0905 22.8191 57.4184 23.7009 57.9634 24.4463C57.2519 24.8036 56.5914 25.2547 55.9997 25.7875C55.4079 25.2547 54.7475 24.8036 54.0359 24.4463C54.5809 23.7009 54.9088 22.8191 54.9833 21.8987C55.0579 20.9783 54.8761 20.0553 54.4581 19.2319C54.0401 18.4086 53.4023 17.717 52.6153 17.234C51.8284 16.7509 50.923 16.4952 49.9997 16.4952C49.0763 16.4952 48.1709 16.7509 47.384 17.234C46.597 17.717 45.9592 18.4086 45.5412 19.2319C45.1233 20.0553 44.9414 20.9783 45.016 21.8987C45.0905 22.8191 45.4184 23.7009 45.9634 24.4463C44.718 25.0735 43.6354 25.9815 42.8009 27.0988C42.5619 27.4169 42.459 27.8169 42.5149 28.2108C42.5708 28.6048 42.7809 28.9604 43.099 29.1994C43.4171 29.4384 43.8171 29.5413 44.2111 29.4854C44.605 29.4295 44.9606 29.2194 45.1997 28.9013C45.7585 28.1558 46.4833 27.5508 47.3165 27.1341C48.1498 26.7174 49.0686 26.5004 50.0003 26.5004C50.9319 26.5004 51.8508 26.7174 52.684 27.1341C53.5173 27.5508 54.242 28.1558 54.8009 28.9013C55.0398 29.2193 55.3952 29.4295 55.789 29.4855C56.1829 29.5415 56.5828 29.4388 56.9009 29.2C57.0134 29.1146 57.1135 29.0141 57.1984 28.9013C57.7573 28.1558 58.482 27.5508 59.3153 27.1341C60.1485 26.7174 61.0674 26.5004 61.999 26.5004C62.9307 26.5004 63.8495 26.7174 64.6828 27.1341C65.516 27.5508 66.2408 28.1558 66.7997 28.9013C66.9169 29.0616 67.0647 29.1971 67.2347 29.2998C67.4047 29.4026 67.5934 29.4705 67.7898 29.4998C67.9863 29.529 68.1866 29.5189 68.3791 29.4701C68.5716 29.4214 68.7525 29.3348 68.9113 29.2156C69.0702 29.0963 69.2037 28.9467 69.3043 28.7754C69.4048 28.6041 69.4703 28.4146 69.497 28.2178C69.5237 28.021 69.5111 27.8208 69.4598 27.6289C69.4086 27.4371 69.3197 27.2573 69.1984 27.1C68.3644 25.982 67.2817 25.0735 66.0359 24.4463ZM49.9997 19.5C50.3952 19.5 50.7819 19.6173 51.1108 19.8371C51.4397 20.0568 51.696 20.3692 51.8474 20.7346C51.9988 21.1001 52.0384 21.5022 51.9612 21.8902C51.8841 22.2782 51.6936 22.6345 51.4139 22.9142C51.1342 23.1939 50.7778 23.3844 50.3898 23.4616C50.0019 23.5387 49.5997 23.4991 49.2343 23.3478C48.8688 23.1964 48.5565 22.94 48.3367 22.6111C48.117 22.2823 47.9997 21.8956 47.9997 21.5C47.9997 20.9696 48.2104 20.4609 48.5854 20.0858C48.9605 19.7107 49.4692 19.5 49.9997 19.5ZM61.9997 19.5C62.3952 19.5 62.7819 19.6173 63.1108 19.8371C63.4397 20.0568 63.696 20.3692 63.8474 20.7346C63.9988 21.1001 64.0384 21.5022 63.9612 21.8902C63.8841 22.2782 63.6936 22.6345 63.4139 22.9142C63.1342 23.1939 62.7778 23.3844 62.3898 23.4616C62.0019 23.5387 61.5997 23.4991 61.2343 23.3478C60.8688 23.1964 60.5565 22.94 60.3367 22.6111C60.117 22.2823 59.9997 21.8956 59.9997 21.5C59.9997 20.9696 60.2104 20.4609 60.5854 20.0858C60.9605 19.7107 61.4692 19.5 61.9997 19.5Z" fill="white"/>
</g>
<defs>
<clipPath id="clip0_27_3457">
<rect width="72" height="32" rx="5" fill="white"/>
</clipPath>
</defs>
</svg>
