<svg width="72" height="32" viewBox="0 0 72 32" fill="none" xmlns="http://www.w3.org/2000/svg">
<g clip-path="url(#clip0_27_3407)">
<path d="M28 5V9.5C28 9.76522 27.8946 10.0196 27.7071 10.2071C27.5196 10.3946 27.2652 10.5 27 10.5C26.7348 10.5 26.4804 10.3946 26.2929 10.2071C26.1054 10.0196 26 9.76522 26 9.5V6H22.5C22.2348 6 21.9804 5.89464 21.7929 5.70711C21.6054 5.51957 21.5 5.26522 21.5 5C21.5 4.73478 21.6054 4.48043 21.7929 4.29289C21.9804 4.10536 22.2348 4 22.5 4H27C27.2652 4 27.5196 4.10536 27.7071 4.29289C27.8946 4.48043 28 4.73478 28 5ZM27 21.5C26.7348 21.5 26.4804 21.6054 26.2929 21.7929C26.1054 21.9804 26 22.2348 26 22.5V26H22.5C22.2348 26 21.9804 26.1054 21.7929 26.2929C21.6054 26.4804 21.5 26.7348 21.5 27C21.5 27.2652 21.6054 27.5196 21.7929 27.7071C21.9804 27.8946 22.2348 28 22.5 28H27C27.2652 28 27.5196 27.8946 27.7071 27.7071C27.8946 27.5196 28 27.2652 28 27V22.5C28 22.2348 27.8946 21.9804 27.7071 21.7929C27.5196 21.6054 27.2652 21.5 27 21.5ZM9.5 26H6V22.5C6 22.2348 5.89464 21.9804 5.70711 21.7929C5.51957 21.6054 5.26522 21.5 5 21.5C4.73478 21.5 4.48043 21.6054 4.29289 21.7929C4.10536 21.9804 4 22.2348 4 22.5V27C4 27.2652 4.10536 27.5196 4.29289 27.7071C4.48043 27.8946 4.73478 28 5 28H9.5C9.76522 28 10.0196 27.8946 10.2071 27.7071C10.3946 27.5196 10.5 27.2652 10.5 27C10.5 26.7348 10.3946 26.4804 10.2071 26.2929C10.0196 26.1054 9.76522 26 9.5 26ZM5 10.5C5.26522 10.5 5.51957 10.3946 5.70711 10.2071C5.89464 10.0196 6 9.76522 6 9.5V6H9.5C9.76522 6 10.0196 5.89464 10.2071 5.70711C10.3946 5.51957 10.5 5.26522 10.5 5C10.5 4.73478 10.3946 4.48043 10.2071 4.29289C10.0196 4.10536 9.76522 4 9.5 4H5C4.73478 4 4.48043 4.10536 4.29289 4.29289C4.10536 4.48043 4 4.73478 4 5V9.5C4 9.76522 4.10536 10.0196 4.29289 10.2071C4.48043 10.3946 4.73478 10.5 5 10.5ZM12.625 17.6887C11.2666 18.2781 10.0859 19.2123 9.2 20.3988C9.08821 20.5473 9.02006 20.7241 9.00319 20.9093C8.98632 21.0944 9.0214 21.2806 9.10449 21.4469C9.18759 21.6133 9.31541 21.7531 9.4736 21.8508C9.63178 21.9485 9.81408 22.0002 10 22H22C22.1859 22.0002 22.3682 21.9485 22.5264 21.8508C22.6846 21.7531 22.8124 21.6133 22.8955 21.4469C22.9786 21.2806 23.0137 21.0944 22.9968 20.9093C22.9799 20.7241 22.9118 20.5473 22.8 20.3988C21.9141 19.2123 20.7334 18.2781 19.375 17.6887C20.1196 17.0089 20.6413 16.1199 20.8716 15.1382C21.1019 14.1566 21.03 13.1283 20.6654 12.1883C20.3009 11.2482 19.6606 10.4404 18.8287 9.87072C17.9967 9.30106 17.012 8.99623 16.0037 8.99623C14.9955 8.99623 14.0108 9.30106 13.1788 9.87072C12.3469 10.4404 11.7066 11.2482 11.3421 12.1883C10.9775 13.1283 10.9056 14.1566 11.1359 15.1382C11.3662 16.1199 11.8879 17.0089 12.6325 17.6887H12.625Z" fill="white"/>
<path d="M68.5 5V9.5C68.5 9.89782 68.342 10.2794 68.0607 10.5607C67.7794 10.842 67.3978 11 67 11C66.6022 11 66.2206 10.842 65.9393 10.5607C65.658 10.2794 65.5 9.89782 65.5 9.5V6.5H62.5C62.1022 6.5 61.7206 6.34196 61.4393 6.06066C61.158 5.77936 61 5.39782 61 5C61 4.60218 61.158 4.22064 61.4393 3.93934C61.7206 3.65804 62.1022 3.5 62.5 3.5H67C67.3978 3.5 67.7794 3.65804 68.0607 3.93934C68.342 4.22064 68.5 4.60218 68.5 5ZM67 21C66.6022 21 66.2206 21.158 65.9393 21.4393C65.658 21.7206 65.5 22.1022 65.5 22.5V25.5H62.5C62.1022 25.5 61.7206 25.658 61.4393 25.9393C61.158 26.2206 61 26.6022 61 27C61 27.3978 61.158 27.7794 61.4393 28.0607C61.7206 28.342 62.1022 28.5 62.5 28.5H67C67.3978 28.5 67.7794 28.342 68.0607 28.0607C68.342 27.7794 68.5 27.3978 68.5 27V22.5C68.5 22.1022 68.342 21.7206 68.0607 21.4393C67.7794 21.158 67.3978 21 67 21ZM49.5 25.5H46.5V22.5C46.5 22.1022 46.342 21.7206 46.0607 21.4393C45.7794 21.158 45.3978 21 45 21C44.6022 21 44.2206 21.158 43.9393 21.4393C43.658 21.7206 43.5 22.1022 43.5 22.5V27C43.5 27.3978 43.658 27.7794 43.9393 28.0607C44.2206 28.342 44.6022 28.5 45 28.5H49.5C49.8978 28.5 50.2794 28.342 50.5607 28.0607C50.842 27.7794 51 27.3978 51 27C51 26.6022 50.842 26.2206 50.5607 25.9393C50.2794 25.658 49.8978 25.5 49.5 25.5ZM45 11C45.3978 11 45.7794 10.842 46.0607 10.5607C46.342 10.2794 46.5 9.89782 46.5 9.5V6.5H49.5C49.8978 6.5 50.2794 6.34196 50.5607 6.06066C50.842 5.77936 51 5.39782 51 5C51 4.60218 50.842 4.22064 50.5607 3.93934C50.2794 3.65804 49.8978 3.5 49.5 3.5H45C44.6022 3.5 44.2206 3.65804 43.9393 3.93934C43.658 4.22064 43.5 4.60218 43.5 5V9.5C43.5 9.89782 43.658 10.2794 43.9393 10.5607C44.2206 10.842 44.6022 11 45 11ZM62 22.5C61.7672 22.5001 61.5376 22.4461 61.3294 22.3422C61.1211 22.2383 60.9398 22.0873 60.8 21.9013C60.2412 21.1556 59.5163 20.5504 58.683 20.1335C57.8496 19.7166 56.9306 19.4996 55.9987 19.4996C55.0669 19.4996 54.1479 19.7166 53.3145 20.1335C52.4812 20.5504 51.7563 21.1556 51.1975 21.9013C50.9556 22.2111 50.6017 22.4136 50.212 22.4652C49.8223 22.5168 49.428 22.4133 49.1138 22.1771C48.7996 21.9409 48.5907 21.5908 48.532 21.2021C48.4733 20.8134 48.5695 20.4172 48.8 20.0987C49.5956 19.0346 50.6166 18.1596 51.79 17.5362C51.1156 16.7346 50.6842 15.7571 50.5465 14.7187C50.4088 13.6802 50.5705 12.624 51.0126 11.6743C51.4547 10.7247 52.1588 9.92098 53.0421 9.35785C53.9254 8.79473 54.9512 8.49557 55.9987 8.49557C57.0463 8.49557 58.0721 8.79473 58.9554 9.35785C59.8387 9.92098 60.5428 10.7247 60.9849 11.6743C61.427 12.624 61.5887 13.6802 61.451 14.7187C61.3133 15.7571 60.8819 16.7346 60.2075 17.5362C61.3809 18.1596 62.4019 19.0346 63.1975 20.0987C63.3649 20.3214 63.4669 20.5863 63.4922 20.8637C63.5175 21.1412 63.4651 21.4201 63.3408 21.6694C63.2165 21.9187 63.0252 22.1285 62.7884 22.2752C62.5516 22.4219 62.2786 22.4997 62 22.5ZM56 16.5C56.4945 16.5 56.9778 16.3534 57.3889 16.0787C57.8 15.804 58.1205 15.4135 58.3097 14.9567C58.4989 14.4999 58.5484 13.9972 58.452 13.5123C58.3555 13.0273 58.1174 12.5819 57.7678 12.2322C57.4181 11.8826 56.9727 11.6445 56.4877 11.548C56.0028 11.4516 55.5001 11.5011 55.0433 11.6903C54.5865 11.8795 54.196 12.2 53.9213 12.6111C53.6466 13.0222 53.5 13.5055 53.5 14C53.5 14.663 53.7634 15.2989 54.2322 15.7678C54.7011 16.2366 55.337 16.5 56 16.5Z" fill="white"/>
</g>
<defs>
<clipPath id="clip0_27_3407">
<rect width="72" height="32" rx="5" fill="white"/>
</clipPath>
</defs>
</svg>
