<svg width="72" height="32" viewBox="0 0 72 32" fill="none" xmlns="http://www.w3.org/2000/svg">
<g clip-path="url(#clip0_27_6915)">
<path d="M31.7588 13.3488L26.0662 6.71625C25.8785 6.49198 25.6439 6.31161 25.3789 6.18786C25.1139 6.06411 24.825 5.99998 24.5325 6H4C3.46957 6 2.96086 6.21071 2.58579 6.58579C2.21071 6.96086 2 7.46957 2 8V22C2 22.5304 2.21071 23.0391 2.58579 23.4142C2.96086 23.7893 3.46957 24 4 24H6.125C6.3453 24.8604 6.8457 25.623 7.54731 26.1676C8.24892 26.7122 9.11183 27.0078 10 27.0078C10.8882 27.0078 11.7511 26.7122 12.4527 26.1676C13.1543 25.623 13.6547 24.8604 13.875 24H20.125C20.3453 24.8604 20.8457 25.623 21.5473 26.1676C22.2489 26.7122 23.1118 27.0078 24 27.0078C24.8882 27.0078 25.7511 26.7122 26.4527 26.1676C27.1543 25.623 27.6547 24.8604 27.875 24H30C30.5304 24 31.0391 23.7893 31.4142 23.4142C31.7893 23.0391 32 22.5304 32 22V14C32 13.7611 31.9144 13.53 31.7588 13.3488ZM4 13V8H11V13H4ZM10 25C9.60444 25 9.21776 24.8827 8.88886 24.6629C8.55996 24.4432 8.30362 24.1308 8.15224 23.7654C8.00087 23.3999 7.96126 22.9978 8.03843 22.6098C8.1156 22.2219 8.30608 21.8655 8.58579 21.5858C8.86549 21.3061 9.22186 21.1156 9.60982 21.0384C9.99778 20.9613 10.3999 21.0009 10.7654 21.1522C11.1308 21.3036 11.4432 21.56 11.6629 21.8889C11.8827 22.2178 12 22.6044 12 23C12 23.5304 11.7893 24.0391 11.4142 24.4142C11.0391 24.7893 10.5304 25 10 25ZM20 13H13V8H20V13ZM24 25C23.6044 25 23.2178 24.8827 22.8889 24.6629C22.56 24.4432 22.3036 24.1308 22.1522 23.7654C22.0009 23.3999 21.9613 22.9978 22.0384 22.6098C22.1156 22.2219 22.3061 21.8655 22.5858 21.5858C22.8655 21.3061 23.2219 21.1156 23.6098 21.0384C23.9978 20.9613 24.3999 21.0009 24.7654 21.1522C25.1308 21.3036 25.4432 21.56 25.6629 21.8889C25.8827 22.2178 26 22.6044 26 23C26 23.5304 25.7893 24.0391 25.4142 24.4142C25.0391 24.7893 24.5304 25 24 25ZM22 13V8H24.5325L28.8237 13H22Z" fill="white"/>
<path d="M71.6388 13.0225L65.9425 6.38625C65.7081 6.10811 65.4156 5.88464 65.0857 5.73154C64.7557 5.57844 64.3962 5.49941 64.0325 5.5H44C43.337 5.5 42.7011 5.7634 42.2322 6.23224C41.7634 6.70108 41.5 7.33696 41.5 8V22C41.5 22.663 41.7634 23.2989 42.2322 23.7678C42.7011 24.2366 43.337 24.5 44 24.5H45.7575C46.0677 25.3773 46.6423 26.1368 47.4021 26.674C48.1619 27.2112 49.0695 27.4996 50 27.4996C50.9305 27.4996 51.8381 27.2112 52.5979 26.674C53.3577 26.1368 53.9323 25.3773 54.2425 24.5H59.2575C59.5677 25.3773 60.1423 26.1368 60.9021 26.674C61.6619 27.2112 62.5695 27.4996 63.5 27.4996C64.4305 27.4996 65.3381 27.2112 66.0979 26.674C66.8577 26.1368 67.4323 25.3773 67.7425 24.5H69.5C70.163 24.5 70.7989 24.2366 71.2678 23.7678C71.7366 23.2989 72 22.663 72 22V14C71.9997 13.6416 71.8716 13.295 71.6388 13.0225ZM67.2362 12.5H62V8.5H63.8025L67.2362 12.5ZM53 12.5V8.5H59V12.5H53ZM50 8.5V12.5H44.5V8.5H50ZM50 24.5C49.7033 24.5 49.4133 24.412 49.1666 24.2472C48.92 24.0824 48.7277 23.8481 48.6142 23.574C48.5006 23.2999 48.4709 22.9983 48.5288 22.7074C48.5867 22.4164 48.7296 22.1491 48.9393 21.9393C49.1491 21.7296 49.4164 21.5867 49.7074 21.5288C49.9983 21.4709 50.2999 21.5007 50.574 21.6142C50.8481 21.7277 51.0824 21.92 51.2472 22.1666C51.412 22.4133 51.5 22.7033 51.5 23C51.5 23.3978 51.342 23.7794 51.0607 24.0607C50.7794 24.342 50.3978 24.5 50 24.5ZM63.5 24.5C63.2033 24.5 62.9133 24.412 62.6666 24.2472C62.42 24.0824 62.2277 23.8481 62.1142 23.574C62.0007 23.2999 61.9709 22.9983 62.0288 22.7074C62.0867 22.4164 62.2296 22.1491 62.4393 21.9393C62.6491 21.7296 62.9164 21.5867 63.2074 21.5288C63.4983 21.4709 63.7999 21.5007 64.074 21.6142C64.3481 21.7277 64.5824 21.92 64.7472 22.1666C64.912 22.4133 65 22.7033 65 23C65 23.3978 64.842 23.7794 64.5607 24.0607C64.2794 24.342 63.8978 24.5 63.5 24.5ZM67.7425 21.5C67.4323 20.6227 66.8577 19.8632 66.0979 19.326C65.3381 18.7889 64.4305 18.5004 63.5 18.5004C62.5695 18.5004 61.6619 18.7889 60.9021 19.326C60.1423 19.8632 59.5677 20.6227 59.2575 21.5H54.2425C53.9323 20.6227 53.3577 19.8632 52.5979 19.326C51.8381 18.7889 50.9305 18.5004 50 18.5004C49.0695 18.5004 48.1619 18.7889 47.4021 19.326C46.6423 19.8632 46.0677 20.6227 45.7575 21.5H44.5V15.5H69V21.5H67.7425Z" fill="white"/>
</g>
<defs>
<clipPath id="clip0_27_6915">
<rect width="72" height="32" rx="5" fill="white"/>
</clipPath>
</defs>
</svg>
