<svg width="72" height="32" viewBox="0 0 72 32" fill="none" xmlns="http://www.w3.org/2000/svg">
<g clip-path="url(#clip0_27_6419)">
<path d="M28.7083 24.7075L24.7083 28.7075C24.5684 28.8475 24.3902 28.9429 24.1961 28.9815C24.002 29.0202 23.8008 29.0004 23.618 28.9246C23.4352 28.8489 23.2789 28.7206 23.1691 28.556C23.0592 28.3914 23.0006 28.1979 23.0008 28V25H10.0008C9.73557 25 9.48122 24.8946 9.29368 24.7071C9.10614 24.5196 9.00079 24.2652 9.00079 24V9.99999H6.00079C5.80289 10.0001 5.6094 9.94158 5.44481 9.83171C5.28021 9.72184 5.15192 9.56561 5.07616 9.38278C5.00041 9.19996 4.98061 8.99877 5.01926 8.80469C5.05791 8.6106 5.15328 8.43235 5.29329 8.29249L9.29329 4.29249C9.38616 4.19952 9.49645 4.12576 9.61785 4.07543C9.73925 4.02511 9.86937 3.99921 10.0008 3.99921C10.1322 3.99921 10.2623 4.02511 10.3837 4.07543C10.5051 4.12576 10.6154 4.19952 10.7083 4.29249L14.7083 8.29249C14.8483 8.43235 14.9437 8.6106 14.9823 8.80469C15.021 8.99877 15.0012 9.19996 14.9254 9.38278C14.8497 9.56561 14.7214 9.72184 14.5568 9.83171C14.3922 9.94158 14.1987 10.0001 14.0008 9.99999H11.0008V23H23.0008V20C23.0006 19.8021 23.0592 19.6086 23.1691 19.444C23.2789 19.2794 23.4352 19.1511 23.618 19.0754C23.8008 18.9996 24.002 18.9798 24.1961 19.0185C24.3902 19.0571 24.5684 19.1525 24.7083 19.2925L28.7083 23.2925C28.8013 23.3854 28.875 23.4957 28.9253 23.6171C28.9757 23.7385 29.0016 23.8686 29.0016 24C29.0016 24.1314 28.9757 24.2615 28.9253 24.3829C28.875 24.5043 28.8013 24.6146 28.7083 24.7075Z" fill="white"/>
<path d="M69.0612 25.0612L65.0612 29.0612C64.7794 29.343 64.3972 29.5013 63.9987 29.5013C63.6002 29.5013 63.218 29.343 62.9362 29.0612C62.6544 28.7794 62.4961 28.3973 62.4961 27.9987C62.4961 27.6002 62.6544 27.218 62.9362 26.9362L64.3749 25.5H49.9999C49.6021 25.5 49.2206 25.342 48.9393 25.0606C48.658 24.7793 48.4999 24.3978 48.4999 24V8.62499L47.0612 10.0612C46.9217 10.2008 46.756 10.3114 46.5737 10.387C46.3914 10.4625 46.196 10.5013 45.9987 10.5013C45.8014 10.5013 45.606 10.4625 45.4237 10.387C45.2414 10.3114 45.0757 10.2008 44.9362 10.0612C44.7967 9.92171 44.686 9.75606 44.6105 9.57376C44.535 9.39146 44.4961 9.19606 44.4961 8.99874C44.4961 8.80141 44.535 8.60602 44.6105 8.42372C44.686 8.24141 44.7967 8.07577 44.9362 7.93624L48.9362 3.93624C49.0756 3.7964 49.2411 3.68544 49.4235 3.60974C49.6058 3.53403 49.8013 3.49506 49.9987 3.49506C50.1961 3.49506 50.3916 3.53403 50.5739 3.60974C50.7563 3.68544 50.9218 3.7964 51.0612 3.93624L55.0612 7.93624C55.343 8.21803 55.5013 8.60022 55.5013 8.99874C55.5013 9.39725 55.343 9.77945 55.0612 10.0612C54.7794 10.343 54.3972 10.5013 53.9987 10.5013C53.6002 10.5013 53.218 10.343 52.9362 10.0612L51.4999 8.62499V22.5H64.3749L62.9349 21.0612C62.6532 20.7794 62.4948 20.3973 62.4948 19.9987C62.4948 19.6002 62.6532 19.218 62.9349 18.9362C63.2167 18.6544 63.5989 18.4961 63.9974 18.4961C64.396 18.4961 64.7782 18.6544 65.0599 18.9362L69.0599 22.9362C69.1999 23.0755 69.3109 23.241 69.3867 23.4233C69.4625 23.6056 69.5016 23.8011 69.5018 23.9985C69.5019 24.1959 69.463 24.3914 69.3874 24.5738C69.3118 24.7561 69.201 24.9218 69.0612 25.0612Z" fill="white"/>
</g>
<defs>
<clipPath id="clip0_27_6419">
<rect width="72" height="32" rx="5" fill="white"/>
</clipPath>
</defs>
</svg>
