<svg width="72" height="32" viewBox="0 0 72 32" fill="none" xmlns="http://www.w3.org/2000/svg">
<g clip-path="url(#clip0_27_6414)">
<path d="M29.7075 17.7075L25.7075 21.7075C25.5676 21.8475 25.3894 21.9429 25.1953 21.9815C25.0012 22.0202 24.8 22.0004 24.6172 21.9246C24.4344 21.8489 24.2782 21.7206 24.1683 21.556C24.0584 21.3914 23.9998 21.1979 24 21V18H15.4137L10.4138 23L12.7075 25.2925C12.8475 25.4323 12.9429 25.6106 12.9815 25.8047C13.0202 25.9988 13.0004 26.2 12.9246 26.3828C12.8489 26.5656 12.7206 26.7218 12.556 26.8317C12.3914 26.9416 12.1979 27.0001 12 27H6C5.73478 27 5.48043 26.8946 5.29289 26.7071C5.10536 26.5196 5 26.2652 5 26V20C4.99984 19.8021 5.05841 19.6086 5.16828 19.444C5.27815 19.2794 5.43439 19.1511 5.61721 19.0754C5.80003 18.9996 6.00122 18.9798 6.19531 19.0185C6.38939 19.0571 6.56764 19.1525 6.7075 19.2925L9 21.5862L14 16.5862V7.99999H11C10.8021 8.00015 10.6086 7.94158 10.444 7.83171C10.2794 7.72184 10.1511 7.56561 10.0754 7.38278C9.99963 7.19996 9.97982 6.99877 10.0185 6.80469C10.0571 6.6106 10.1525 6.43235 10.2925 6.29249L14.2925 2.29249C14.3854 2.19952 14.4957 2.12576 14.6171 2.07543C14.7385 2.02511 14.8686 1.99921 15 1.99921C15.1314 1.99921 15.2615 2.02511 15.3829 2.07543C15.5043 2.12576 15.6146 2.19952 15.7075 2.29249L19.7075 6.29249C19.8475 6.43235 19.9429 6.6106 19.9815 6.80469C20.0202 6.99877 20.0004 7.19996 19.9246 7.38278C19.8489 7.56561 19.7206 7.72184 19.556 7.83171C19.3914 7.94158 19.1979 8.00015 19 7.99999H16V16H24V13C23.9998 12.8021 24.0584 12.6086 24.1683 12.444C24.2782 12.2794 24.4344 12.1511 24.6172 12.0754C24.8 11.9996 25.0012 11.9798 25.1953 12.0185C25.3894 12.0571 25.5676 12.1525 25.7075 12.2925L29.7075 16.2925C29.8005 16.3854 29.8742 16.4957 29.9246 16.6171C29.9749 16.7385 30.0008 16.8686 30.0008 17C30.0008 17.1314 29.9749 17.2615 29.9246 17.3829C29.8742 17.5043 29.8005 17.6146 29.7075 17.7075Z" fill="white"/>
<path d="M70.0613 18.0612L66.0613 22.0612C65.7795 22.343 65.3973 22.5013 64.9988 22.5013C64.6002 22.5013 64.218 22.343 63.9363 22.0612C63.6545 21.7794 63.4961 21.3973 63.4961 20.9987C63.4961 20.6002 63.6545 20.218 63.9363 19.9362L65.375 18.5H55.625L49.625 24.5H52C52.3978 24.5 52.7794 24.658 53.0607 24.9393C53.342 25.2206 53.5 25.6022 53.5 26C53.5 26.3978 53.342 26.7793 53.0607 27.0606C52.7794 27.342 52.3978 27.5 52 27.5H46C45.6022 27.5 45.2206 27.342 44.9393 27.0606C44.658 26.7793 44.5 26.3978 44.5 26V20C44.5 19.6022 44.658 19.2206 44.9393 18.9393C45.2206 18.658 45.6022 18.5 46 18.5C46.3978 18.5 46.7794 18.658 47.0607 18.9393C47.342 19.2206 47.5 19.6022 47.5 20V22.375L53.5 16.375V6.62499L52.0612 8.06124C51.9217 8.20077 51.7561 8.31145 51.5738 8.38696C51.3915 8.46248 51.1961 8.50134 50.9987 8.50134C50.6002 8.50134 50.218 8.34303 49.9362 8.06124C49.7967 7.92171 49.686 7.75606 49.6105 7.57376C49.535 7.39146 49.4961 7.19606 49.4961 6.99874C49.4961 6.60022 49.6545 6.21803 49.9362 5.93624L53.9362 1.93624C54.0756 1.7964 54.2412 1.68544 54.4235 1.60974C54.6058 1.53403 54.8013 1.49506 54.9987 1.49506C55.1962 1.49506 55.3917 1.53403 55.574 1.60974C55.7563 1.68544 55.9219 1.7964 56.0613 1.93624L60.0613 5.93624C60.343 6.21803 60.5014 6.60022 60.5014 6.99874C60.5014 7.39725 60.343 7.77945 60.0613 8.06124C59.7795 8.34303 59.3973 8.50134 58.9988 8.50134C58.6002 8.50134 58.218 8.34303 57.9363 8.06124L56.5 6.62499V15.5H65.375L63.935 14.0612C63.7955 13.9217 63.6848 13.7561 63.6093 13.5738C63.5338 13.3915 63.4949 13.1961 63.4949 12.9987C63.4949 12.8014 63.5338 12.606 63.6093 12.4237C63.6848 12.2414 63.7955 12.0758 63.935 11.9362C64.2168 11.6544 64.599 11.4961 64.9975 11.4961C65.1948 11.4961 65.3902 11.535 65.5725 11.6105C65.7548 11.686 65.9205 11.7967 66.06 11.9362L70.06 15.9362C70.1999 16.0755 70.311 16.241 70.3868 16.4233C70.4626 16.6056 70.5017 16.8011 70.5018 16.9985C70.5019 17.1959 70.4631 17.3914 70.3875 17.5738C70.3119 17.7561 70.201 17.9218 70.0613 18.0612Z" fill="white"/>
</g>
<defs>
<clipPath id="clip0_27_6414">
<rect width="72" height="32" rx="5" fill="white"/>
</clipPath>
</defs>
</svg>
