<svg width="72" height="32" viewBox="0 0 72 32" fill="none" xmlns="http://www.w3.org/2000/svg">
<g clip-path="url(#clip0_27_3101)">
<path d="M23 7V25C23 25.7956 22.6839 26.5587 22.1213 27.1213C21.5587 27.6839 20.7956 28 20 28H12C11.2044 28 10.4413 27.6839 9.87868 27.1213C9.31607 26.5587 9 25.7956 9 25V7C9 6.20435 9.31607 5.44129 9.87868 4.87868C10.4413 4.31607 11.2044 4 12 4H20C20.7956 4 21.5587 4.31607 22.1213 4.87868C22.6839 5.44129 23 6.20435 23 7ZM26 10C25.7348 10 25.4804 10.1054 25.2929 10.2929C25.1054 10.4804 25 10.7348 25 11V21C25 21.2652 25.1054 21.5196 25.2929 21.7071C25.4804 21.8946 25.7348 22 26 22C26.2652 22 26.5196 21.8946 26.7071 21.7071C26.8946 21.5196 27 21.2652 27 21V11C27 10.7348 26.8946 10.4804 26.7071 10.2929C26.5196 10.1054 26.2652 10 26 10ZM30 12C29.7348 12 29.4804 12.1054 29.2929 12.2929C29.1054 12.4804 29 12.7348 29 13V19C29 19.2652 29.1054 19.5196 29.2929 19.7071C29.4804 19.8946 29.7348 20 30 20C30.2652 20 30.5196 19.8946 30.7071 19.7071C30.8946 19.5196 31 19.2652 31 19V13C31 12.7348 30.8946 12.4804 30.7071 12.2929C30.5196 12.1054 30.2652 12 30 12ZM6 10C5.73478 10 5.48043 10.1054 5.29289 10.2929C5.10536 10.4804 5 10.7348 5 11V21C5 21.2652 5.10536 21.5196 5.29289 21.7071C5.48043 21.8946 5.73478 22 6 22C6.26522 22 6.51957 21.8946 6.70711 21.7071C6.89464 21.5196 7 21.2652 7 21V11C7 10.7348 6.89464 10.4804 6.70711 10.2929C6.51957 10.1054 6.26522 10 6 10ZM2 12C1.73478 12 1.48043 12.1054 1.29289 12.2929C1.10536 12.4804 1 12.7348 1 13V19C1 19.2652 1.10536 19.5196 1.29289 19.7071C1.48043 19.8946 1.73478 20 2 20C2.26522 20 2.51957 19.8946 2.70711 19.7071C2.89464 19.5196 3 19.2652 3 19V13C3 12.7348 2.89464 12.4804 2.70711 12.2929C2.51957 12.1054 2.26522 12 2 12Z" fill="white"/>
<path d="M60.5 3.5H51.5C50.5717 3.5 49.6815 3.86875 49.0251 4.52513C48.3687 5.1815 48 6.07174 48 7V25C48 25.9283 48.3687 26.8185 49.0251 27.4749C49.6815 28.1313 50.5717 28.5 51.5 28.5H60.5C61.4283 28.5 62.3185 28.1313 62.9749 27.4749C63.6313 26.8185 64 25.9283 64 25V7C64 6.07174 63.6313 5.1815 62.9749 4.52513C62.3185 3.86875 61.4283 3.5 60.5 3.5ZM61 25C61 25.1326 60.9473 25.2598 60.8536 25.3536C60.7598 25.4473 60.6326 25.5 60.5 25.5H51.5C51.3674 25.5 51.2402 25.4473 51.1464 25.3536C51.0527 25.2598 51 25.1326 51 25V7C51 6.86739 51.0527 6.74021 51.1464 6.64645C51.2402 6.55268 51.3674 6.5 51.5 6.5H60.5C60.6326 6.5 60.7598 6.55268 60.8536 6.64645C60.9473 6.74021 61 6.86739 61 7V25ZM69 12.5V19.5C69 19.8978 68.842 20.2794 68.5607 20.5607C68.2794 20.842 67.8978 21 67.5 21C67.1022 21 66.7206 20.842 66.4393 20.5607C66.158 20.2794 66 19.8978 66 19.5V12.5C66 12.1022 66.158 11.7206 66.4393 11.4393C66.7206 11.158 67.1022 11 67.5 11C67.8978 11 68.2794 11.158 68.5607 11.4393C68.842 11.7206 69 12.1022 69 12.5ZM46 12.5V19.5C46 19.8978 45.842 20.2794 45.5607 20.5607C45.2794 20.842 44.8978 21 44.5 21C44.1022 21 43.7206 20.842 43.4393 20.5607C43.158 20.2794 43 19.8978 43 19.5V12.5C43 12.1022 43.158 11.7206 43.4393 11.4393C43.7206 11.158 44.1022 11 44.5 11C44.8978 11 45.2794 11.158 45.5607 11.4393C45.842 11.7206 46 12.1022 46 12.5Z" fill="white"/>
</g>
<defs>
<clipPath id="clip0_27_3101">
<rect width="72" height="32" rx="5" fill="white"/>
</clipPath>
</defs>
</svg>
