<svg width="72" height="32" viewBox="0 0 72 32" fill="none" xmlns="http://www.w3.org/2000/svg">
<g clip-path="url(#clip0_27_4127)">
<path d="M25.5 11C25.5 11.2967 25.412 11.5867 25.2472 11.8334C25.0824 12.08 24.8481 12.2723 24.574 12.3858C24.2999 12.4994 23.9983 12.5291 23.7074 12.4712C23.4164 12.4133 23.1491 12.2704 22.9393 12.0607C22.7296 11.8509 22.5867 11.5836 22.5288 11.2926C22.4709 11.0017 22.5007 10.7001 22.6142 10.426C22.7277 10.1519 22.92 9.91762 23.1666 9.7528C23.4133 9.58797 23.7033 9.5 24 9.5C24.3978 9.5 24.7794 9.65804 25.0607 9.93934C25.342 10.2206 25.5 10.6022 25.5 11ZM24 19.5C23.7033 19.5 23.4133 19.588 23.1666 19.7528C22.92 19.9176 22.7277 20.1519 22.6142 20.426C22.5007 20.7001 22.4709 21.0017 22.5288 21.2926C22.5867 21.5836 22.7296 21.8509 22.9393 22.0607C23.1491 22.2704 23.4164 22.4133 23.7074 22.4712C23.9983 22.5291 24.2999 22.4993 24.574 22.3858C24.8481 22.2723 25.0824 22.08 25.2472 21.8334C25.412 21.5867 25.5 21.2967 25.5 21C25.5 20.6022 25.342 20.2206 25.0607 19.9393C24.7794 19.658 24.3978 19.5 24 19.5ZM12 13C11.6044 13 11.2178 13.1173 10.8889 13.3371C10.56 13.5568 10.3036 13.8692 10.1522 14.2346C10.0009 14.6001 9.96126 15.0022 10.0384 15.3902C10.1156 15.7781 10.3061 16.1345 10.5858 16.4142C10.8655 16.6939 11.2219 16.8844 11.6098 16.9616C11.9978 17.0387 12.3999 16.9991 12.7654 16.8478C13.1308 16.6964 13.4432 16.44 13.6629 16.1111C13.8827 15.7822 14 15.3956 14 15C14 14.4696 13.7893 13.9609 13.4142 13.5858C13.0391 13.2107 12.5304 13 12 13ZM29 7V25C29 25.5304 28.7893 26.0391 28.4142 26.4142C28.0391 26.7893 27.5304 27 27 27H5C4.46957 27 3.96086 26.7893 3.58579 26.4142C3.21071 26.0391 3 25.5304 3 25V7C3 6.46957 3.21071 5.96086 3.58579 5.58579C3.96086 5.21071 4.46957 5 5 5H27C27.5304 5 28.0391 5.21071 28.4142 5.58579C28.7893 5.96086 29 6.46957 29 7ZM21 15H27V7H21V15ZM16.9688 20.75C16.6452 19.5418 15.8779 18.5 14.82 17.8325C15.3818 17.274 15.7651 16.5614 15.9214 15.7848C16.0777 15.0082 15.9998 14.2027 15.6978 13.4704C15.3957 12.7381 14.8831 12.112 14.2248 11.6714C13.5664 11.2309 12.7921 10.9957 12 10.9957C11.2079 10.9957 10.4336 11.2309 9.77525 11.6714C9.11693 12.112 8.60426 12.7381 8.30221 13.4704C8.00016 14.2027 7.92234 15.0082 8.07861 15.7848C8.23488 16.5614 8.61821 17.274 9.18 17.8325C8.12282 18.5007 7.35575 19.5422 7.03125 20.75C6.96495 21.0069 7.00342 21.2797 7.13821 21.5082C7.27301 21.7368 7.49307 21.9024 7.75 21.9688C8.00693 22.0351 8.27967 21.9966 8.50823 21.8618C8.73679 21.727 8.90245 21.5069 8.96875 21.25C9.29875 19.9688 10.6013 19 12 19C13.3988 19 14.7025 19.9662 15.0312 21.25C15.0976 21.5069 15.2632 21.727 15.4918 21.8618C15.7203 21.9966 15.9931 22.0351 16.25 21.9688C16.5069 21.9024 16.727 21.7368 16.8618 21.5082C16.9966 21.2797 17.0351 21.0069 16.9688 20.75ZM27 25V17H21V25H27Z" fill="white"/>
<path d="M67 4.5H45C44.337 4.5 43.7011 4.76339 43.2322 5.23223C42.7634 5.70107 42.5 6.33696 42.5 7V25C42.5 25.663 42.7634 26.2989 43.2322 26.7678C43.7011 27.2366 44.337 27.5 45 27.5H67C67.663 27.5 68.2989 27.2366 68.7678 26.7678C69.2366 26.2989 69.5 25.663 69.5 25V7C69.5 6.33696 69.2366 5.70107 68.7678 5.23223C68.2989 4.76339 67.663 4.5 67 4.5ZM66.5 14.5H59.5V7.5H66.5V14.5ZM46.5 15C46.5 14.7033 46.588 14.4133 46.7528 14.1666C46.9176 13.92 47.1519 13.7277 47.426 13.6142C47.7001 13.5006 48.0017 13.4709 48.2926 13.5288C48.5836 13.5867 48.8509 13.7296 49.0607 13.9393C49.2704 14.1491 49.4133 14.4164 49.4712 14.7074C49.5291 14.9983 49.4994 15.2999 49.3858 15.574C49.2723 15.8481 49.08 16.0824 48.8334 16.2472C48.5867 16.412 48.2967 16.5 48 16.5C47.6022 16.5 47.2206 16.342 46.9393 16.0607C46.658 15.7794 46.5 15.3978 46.5 15ZM45.5 21.2213C45.8363 20.23 46.875 19.5 48 19.5C49.1788 19.5 50.2737 20.305 50.5475 21.375C50.647 21.7602 50.8954 22.0902 51.2381 22.2922C51.5808 22.4943 51.9898 22.552 52.375 22.4525C52.7602 22.353 53.0902 22.1046 53.2922 21.7619C53.4943 21.4192 53.552 21.0102 53.4525 20.625C53.1513 19.4856 52.4858 18.476 51.5575 17.75C52.2063 16.905 52.5342 15.8573 52.483 14.7933C52.4319 13.7292 52.0048 12.7178 51.278 11.939C50.5511 11.1602 49.5715 10.6646 48.5135 10.5402C47.4554 10.4159 46.3876 10.671 45.5 11.26V7.5H56.5V24.5H45.5V21.2213ZM59.5 24.5V17.5H66.5V24.5H59.5ZM61 11C61 10.6044 61.1173 10.2178 61.3371 9.88886C61.5568 9.55996 61.8692 9.30362 62.2346 9.15224C62.6001 9.00087 63.0022 8.96126 63.3902 9.03843C63.7781 9.1156 64.1345 9.30608 64.4142 9.58579C64.6939 9.86549 64.8844 10.2219 64.9616 10.6098C65.0387 10.9978 64.9991 11.3999 64.8478 11.7654C64.6964 12.1308 64.44 12.4432 64.1111 12.6629C63.7822 12.8827 63.3956 13 63 13C62.4696 13 61.9609 12.7893 61.5858 12.4142C61.2107 12.0391 61 11.5304 61 11ZM65 21C65 21.3956 64.8827 21.7822 64.6629 22.1111C64.4432 22.44 64.1308 22.6964 63.7654 22.8478C63.3999 22.9991 62.9978 23.0387 62.6098 22.9616C62.2219 22.8844 61.8655 22.6939 61.5858 22.4142C61.3061 22.1345 61.1156 21.7781 61.0384 21.3902C60.9613 21.0022 61.0009 20.6001 61.1522 20.2346C61.3036 19.8692 61.56 19.5568 61.8889 19.3371C62.2178 19.1173 62.6044 19 63 19C63.5304 19 64.0391 19.2107 64.4142 19.5858C64.7893 19.9609 65 20.4696 65 21Z" fill="white"/>
</g>
<defs>
<clipPath id="clip0_27_4127">
<rect width="72" height="32" rx="5" fill="white"/>
</clipPath>
</defs>
</svg>
