<svg width="72" height="32" viewBox="0 0 72 32" fill="none" xmlns="http://www.w3.org/2000/svg">
<g clip-path="url(#clip0_27_4132)">
<path d="M16 3C13.4288 3 10.9154 3.76244 8.77759 5.1909C6.63975 6.61935 4.97351 8.64968 3.98957 11.0251C3.00563 13.4006 2.74819 16.0144 3.2498 18.5362C3.75141 21.0579 4.98953 23.3743 6.80762 25.1924C8.6257 27.0105 10.9421 28.2486 13.4638 28.7502C15.9856 29.2518 18.5995 28.9944 20.9749 28.0104C23.3503 27.0265 25.3807 25.3603 26.8091 23.2224C28.2376 21.0846 29 18.5712 29 16C28.9964 12.5533 27.6256 9.24882 25.1884 6.81163C22.7512 4.37445 19.4467 3.00364 16 3ZM9.00001 16C9.00001 16.2652 8.89465 16.5196 8.70711 16.7071C8.51958 16.8946 8.26522 17 8.00001 17C7.73479 17 7.48044 16.8946 7.2929 16.7071C7.10536 16.5196 7.00001 16.2652 7.00001 16C7.00265 13.6139 7.95171 11.3262 9.63897 9.63896C11.3262 7.95171 13.6139 7.00265 16 7C16.2652 7 16.5196 7.10536 16.7071 7.29289C16.8946 7.48043 17 7.73478 17 8C17 8.26522 16.8946 8.51957 16.7071 8.70711C16.5196 8.89464 16.2652 9 16 9C14.1441 9.00199 12.3648 9.74012 11.0525 11.0524C9.74013 12.3648 9.00199 14.1441 9.00001 16ZM13 16C13 15.4067 13.176 14.8266 13.5056 14.3333C13.8352 13.8399 14.3038 13.4554 14.852 13.2284C15.4001 13.0013 16.0033 12.9419 16.5853 13.0576C17.1672 13.1734 17.7018 13.4591 18.1213 13.8787C18.5409 14.2982 18.8266 14.8328 18.9424 15.4147C19.0581 15.9967 18.9987 16.5999 18.7716 17.1481C18.5446 17.6962 18.1601 18.1648 17.6667 18.4944C17.1734 18.8241 16.5933 19 16 19C15.2044 19 14.4413 18.6839 13.8787 18.1213C13.3161 17.5587 13 16.7956 13 16ZM16 25C15.7348 25 15.4804 24.8946 15.2929 24.7071C15.1054 24.5196 15 24.2652 15 24C15 23.7348 15.1054 23.4804 15.2929 23.2929C15.4804 23.1054 15.7348 23 16 23C17.8559 22.998 19.6352 22.2599 20.9476 20.9476C22.2599 19.6352 22.998 17.8559 23 16C23 15.7348 23.1054 15.4804 23.2929 15.2929C23.4804 15.1054 23.7348 15 24 15C24.2652 15 24.5196 15.1054 24.7071 15.2929C24.8946 15.4804 25 15.7348 25 16C24.9974 18.3861 24.0483 20.6738 22.361 22.361C20.6738 24.0483 18.3861 24.9974 16 25Z" fill="white"/>
<path d="M56 2.5C53.33 2.5 50.7199 3.29176 48.4998 4.77516C46.2797 6.25856 44.5494 8.36697 43.5276 10.8338C42.5058 13.3006 42.2385 16.015 42.7594 18.6337C43.2803 21.2525 44.5661 23.6579 46.4541 25.5459C48.3421 27.434 50.7475 28.7197 53.3663 29.2406C55.985 29.7615 58.6994 29.4942 61.1662 28.4724C63.633 27.4506 65.7414 25.7203 67.2248 23.5002C68.7082 21.2801 69.5 18.67 69.5 16C69.496 12.4208 68.0724 8.98932 65.5416 6.45844C63.0107 3.92756 59.5792 2.50397 56 2.5ZM56 26.5C53.9233 26.5 51.8932 25.8842 50.1665 24.7304C48.4398 23.5767 47.094 21.9368 46.2993 20.0182C45.5046 18.0996 45.2966 15.9884 45.7018 13.9516C46.1069 11.9148 47.1069 10.0438 48.5754 8.57538C50.0438 7.10693 51.9148 6.1069 53.9516 5.70175C55.9884 5.29661 58.0996 5.50454 60.0182 6.29926C61.9368 7.09399 63.5767 8.4398 64.7304 10.1665C65.8842 11.8932 66.5 13.9233 66.5 16C66.497 18.7839 65.3898 21.4528 63.4213 23.4213C61.4529 25.3898 58.7839 26.497 56 26.5ZM56 10.5C54.5418 10.5017 53.1438 11.0816 52.1127 12.1127C51.0817 13.1438 50.5017 14.5418 50.5 16C50.5 16.3978 50.342 16.7794 50.0607 17.0607C49.7794 17.342 49.3978 17.5 49 17.5C48.6022 17.5 48.2207 17.342 47.9393 17.0607C47.658 16.7794 47.5 16.3978 47.5 16C47.5023 13.7464 48.3986 11.5857 49.9922 9.99215C51.5857 8.39859 53.7464 7.50232 56 7.5C56.3978 7.5 56.7794 7.65804 57.0607 7.93934C57.342 8.22064 57.5 8.60218 57.5 9C57.5 9.39782 57.342 9.77936 57.0607 10.0607C56.7794 10.342 56.3978 10.5 56 10.5ZM64.5 16C64.4977 18.2536 63.6014 20.4143 62.0079 22.0078C60.4143 23.6014 58.2536 24.4977 56 24.5C55.6022 24.5 55.2206 24.342 54.9393 24.0607C54.658 23.7794 54.5 23.3978 54.5 23C54.5 22.6022 54.658 22.2206 54.9393 21.9393C55.2206 21.658 55.6022 21.5 56 21.5C57.4582 21.4983 58.8562 20.9184 59.8873 19.8873C60.9184 18.8562 61.4984 17.4582 61.5 16C61.5 15.6022 61.658 15.2206 61.9393 14.9393C62.2207 14.658 62.6022 14.5 63 14.5C63.3978 14.5 63.7794 14.658 64.0607 14.9393C64.342 15.2206 64.5 15.6022 64.5 16ZM56 19.5C55.3078 19.5 54.6311 19.2947 54.0555 18.9101C53.4799 18.5256 53.0313 17.9789 52.7664 17.3394C52.5015 16.6999 52.4322 15.9961 52.5673 15.3172C52.7023 14.6383 53.0356 14.0146 53.5251 13.5251C54.0146 13.0356 54.6383 12.7023 55.3172 12.5673C55.9961 12.4322 56.6999 12.5015 57.3394 12.7664C57.9789 13.0313 58.5256 13.4799 58.9101 14.0555C59.2947 14.6311 59.5 15.3078 59.5 16C59.5 16.9283 59.1313 17.8185 58.4749 18.4749C57.8185 19.1313 56.9283 19.5 56 19.5Z" fill="white"/>
</g>
<defs>
<clipPath id="clip0_27_4132">
<rect width="72" height="32" rx="5" fill="white"/>
</clipPath>
</defs>
</svg>
