<svg width="72" height="32" viewBox="0 0 72 32" fill="none" xmlns="http://www.w3.org/2000/svg">
<g clip-path="url(#clip0_27_4905)">
<path d="M22 6H10C7.34784 6 4.8043 7.05357 2.92893 8.92893C1.05357 10.8043 0 13.3478 0 16C0 18.6522 1.05357 21.1957 2.92893 23.0711C4.8043 24.9464 7.34784 26 10 26H22C24.6522 26 27.1957 24.9464 29.0711 23.0711C30.9464 21.1957 32 18.6522 32 16C32 13.3478 30.9464 10.8043 29.0711 8.92893C27.1957 7.05357 24.6522 6 22 6ZM15.4362 12.3512L12.4362 20.3512C12.3652 20.5426 12.2373 20.7077 12.0697 20.8242C11.9021 20.9408 11.7029 21.0033 11.4987 21.0033C11.2946 21.0033 11.0954 20.9408 10.9278 20.8242C10.7602 20.7077 10.6323 20.5426 10.5612 20.3512L7.56125 12.3512C7.46809 12.1026 7.47752 11.8271 7.58747 11.5855C7.69741 11.3438 7.89886 11.1557 8.1475 11.0625C8.39614 10.9693 8.6716 10.9788 8.91329 11.0887C9.15498 11.1987 9.34309 11.4001 9.43625 11.6488L11.5 17.1488L13.5638 11.6488C13.6099 11.5256 13.6798 11.4128 13.7695 11.3167C13.8593 11.2206 13.967 11.1432 14.0867 11.0887C14.2064 11.0343 14.3356 11.0039 14.467 10.9994C14.5984 10.9949 14.7294 11.0164 14.8525 11.0625C14.9756 11.1086 15.0884 11.1786 15.1845 11.2683C15.2806 11.358 15.3581 11.4658 15.4125 11.5855C15.467 11.7051 15.4973 11.8344 15.5018 11.9657C15.5063 12.0971 15.4849 12.2281 15.4388 12.3512H15.4362ZM23.875 19.5C24.0066 19.7304 24.0413 20.0037 23.9715 20.2596C23.9016 20.5156 23.7329 20.7334 23.5025 20.865C23.2721 20.9966 22.9988 21.0313 22.7429 20.9615C22.4869 20.8916 22.2691 20.7229 22.1375 20.4925L20.7075 17.9925C20.6413 17.9925 20.5737 17.9988 20.5063 17.9988H19V19.9988C19 20.264 18.8946 20.5183 18.7071 20.7059C18.5196 20.8934 18.2652 20.9988 18 20.9988C17.7348 20.9988 17.4804 20.8934 17.2929 20.7059C17.1054 20.5183 17 20.264 17 19.9988V12C17 11.7348 17.1054 11.4804 17.2929 11.2929C17.4804 11.1054 17.7348 11 18 11H20.5C21.2334 11.0007 21.9481 11.2318 22.5431 11.6606C23.1381 12.0894 23.5833 12.6943 23.816 13.3898C24.0486 14.0854 24.0569 14.8364 23.8396 15.5369C23.6223 16.2374 23.1904 16.852 22.605 17.2938L23.875 19.5ZM22 14.5C22 14.8978 21.842 15.2794 21.5607 15.5607C21.2794 15.842 20.8978 16 20.5 16H19V13H20.5C20.8978 13 21.2794 13.158 21.5607 13.4393C21.842 13.7206 22 14.1022 22 14.5Z" fill="white"/>
<path d="M55.875 13.0913L52.875 20.0912C52.7594 20.3611 52.5671 20.5911 52.322 20.7527C52.0769 20.9143 51.7898 21.0004 51.4963 21.0004C51.2027 21.0004 50.9156 20.9143 50.6705 20.7527C50.4254 20.5911 50.2331 20.3611 50.1175 20.0912L47.1175 13.0913C47.0399 12.9102 46.9986 12.7156 46.9962 12.5186C46.9937 12.3216 47.0301 12.1261 47.1032 11.9432C47.2509 11.5737 47.5393 11.2781 47.905 11.1213C48.2707 10.9644 48.6837 10.9593 49.0531 11.107C49.236 11.1801 49.4028 11.2886 49.5438 11.4261C49.6848 11.5637 49.7974 11.7277 49.875 11.9087L51.5 15.6925L53.125 11.9087C53.2981 11.5697 53.5937 11.3092 53.9518 11.18C54.3099 11.0508 54.7037 11.0625 55.0534 11.2129C55.4032 11.3633 55.6826 11.641 55.8352 11.9898C55.9877 12.3386 56.002 12.7324 55.875 13.0913ZM72 16C71.997 18.7839 70.8898 21.4528 68.9213 23.4213C66.9528 25.3898 64.2839 26.497 61.5 26.5H50.5C47.7152 26.5 45.0445 25.3938 43.0754 23.4246C41.1062 21.4555 40 18.7848 40 16C40 13.2152 41.1062 10.5445 43.0754 8.57538C45.0445 6.60625 47.7152 5.5 50.5 5.5H61.5C64.2839 5.50298 66.9528 6.61018 68.9213 8.57867C70.8898 10.5472 71.997 13.2161 72 16ZM69 16C68.9977 14.0116 68.2068 12.1053 66.8007 10.6993C65.3947 9.29324 63.4884 8.50232 61.5 8.5H50.5C48.5109 8.5 46.6032 9.29018 45.1967 10.6967C43.7902 12.1032 43 14.0109 43 16C43 17.9891 43.7902 19.8968 45.1967 21.3033C46.6032 22.7098 48.5109 23.5 50.5 23.5H61.5C63.4884 23.4977 65.3947 22.7068 66.8007 21.3007C68.2068 19.8947 68.9977 17.9884 69 16ZM65 15C65.0006 15.9685 64.6482 16.9039 64.0088 17.6313L64.72 18.6313C64.8405 18.7911 64.9277 18.9735 64.9766 19.1676C65.0255 19.3617 65.035 19.5636 65.0047 19.7615C64.9743 19.9593 64.9046 20.1491 64.7998 20.3196C64.6949 20.4901 64.557 20.6379 64.3942 20.7543C64.2313 20.8707 64.0468 20.9533 63.8515 20.9973C63.6562 21.0413 63.4541 21.0457 63.2571 21.0104C63.0601 20.975 62.8721 20.9006 62.7043 20.7915C62.5365 20.6823 62.3922 20.5407 62.28 20.375L61.2913 18.9925C61.195 18.9988 61.0975 19.0037 61 19.0037H60V19.5037C60 19.9016 59.842 20.2831 59.5607 20.5644C59.2794 20.8457 58.8978 21.0037 58.5 21.0037C58.1022 21.0037 57.7206 20.8457 57.4393 20.5644C57.158 20.2831 57 19.9016 57 19.5037V12.5C57 12.1022 57.158 11.7206 57.4393 11.4393C57.7206 11.158 58.1022 11 58.5 11H61C62.0609 11 63.0783 11.4214 63.8284 12.1716C64.5786 12.9217 65 13.9391 65 15ZM60 16H61C61.2652 16 61.5196 15.8946 61.7071 15.7071C61.8946 15.5196 62 15.2652 62 15C62 14.7348 61.8946 14.4804 61.7071 14.2929C61.5196 14.1054 61.2652 14 61 14H60V16Z" fill="white"/>
</g>
<defs>
<clipPath id="clip0_27_4905">
<rect width="72" height="32" rx="5" fill="white"/>
</clipPath>
</defs>
</svg>
