<svg width="72" height="32" viewBox="0 0 72 32" fill="none" xmlns="http://www.w3.org/2000/svg">
<g clip-path="url(#clip0_27_765)">
<path d="M24.9999 9C23.6099 9.00129 22.2518 9.41637 21.0985 10.1924C19.9453 10.9684 19.0492 12.0701 18.5244 13.3572C17.9996 14.6444 17.8699 16.0586 18.1519 17.4197C18.4338 18.7808 19.1145 20.0272 20.1074 21H11.8924C13.0516 19.8643 13.7801 18.361 13.9534 16.7475C14.1267 15.1339 13.734 13.5103 12.8424 12.1543C11.9509 10.7983 10.6159 9.79424 9.06577 9.3138C7.51569 8.83336 5.84683 8.90642 4.34467 9.52049C2.8425 10.1346 1.60036 11.2515 0.83072 12.6802C0.0610787 14.1089 -0.188244 15.7607 0.125399 17.3529C0.439042 18.9451 1.29616 20.3789 2.55015 21.409C3.80414 22.4391 5.37707 23.0015 6.9999 23H24.9999C26.8564 23 28.6369 22.2625 29.9496 20.9497C31.2624 19.637 31.9999 17.8565 31.9999 16C31.9999 14.1435 31.2624 12.363 29.9496 11.0503C28.6369 9.7375 26.8564 9 24.9999 9ZM6.9999 21C6.011 21 5.0443 20.7068 4.22205 20.1573C3.39981 19.6079 2.75894 18.827 2.3805 17.9134C2.00207 16.9998 1.90305 15.9945 2.09598 15.0245C2.2889 14.0546 2.76511 13.1637 3.46437 12.4645C4.16363 11.7652 5.05455 11.289 6.02445 11.0961C6.99436 10.9031 7.99969 11.0022 8.91332 11.3806C9.82695 11.759 10.6078 12.3999 11.1572 13.2221C11.7067 14.0444 11.9999 15.0111 11.9999 16C11.9999 16.6566 11.8706 17.3068 11.6193 17.9134C11.368 18.52 10.9997 19.0712 10.5354 19.5355C10.0711 19.9998 9.51995 20.3681 8.91332 20.6194C8.30669 20.8707 7.65651 21 6.9999 21ZM24.9999 21C24.011 21 23.0443 20.7068 22.2221 20.1573C21.3998 19.6079 20.7589 18.827 20.3805 17.9134C20.0021 16.9998 19.903 15.9945 20.096 15.0245C20.2889 14.0546 20.7651 13.1637 21.4644 12.4645C22.1636 11.7652 23.0545 11.289 24.0245 11.0961C24.9944 10.9031 25.9997 11.0022 26.9133 11.3806C27.827 11.759 28.6078 12.3999 29.1573 13.2221C29.7067 14.0444 29.9999 15.0111 29.9999 16C29.9999 17.3261 29.4731 18.5979 28.5354 19.5355C27.5978 20.4732 26.326 21 24.9999 21ZM27.9999 16C27.9999 16.5933 27.824 17.1734 27.4943 17.6667C27.1647 18.1601 26.6961 18.5446 26.148 18.7716C25.5998 18.9987 24.9966 19.0581 24.4146 18.9424C23.8327 18.8266 23.2981 18.5409 22.8786 18.1213C22.459 17.7018 22.1733 17.1672 22.0575 16.5853C21.9418 16.0033 22.0012 15.4001 22.2283 14.8519C22.4553 14.3038 22.8398 13.8352 23.3332 13.5056C23.8265 13.1759 24.4066 13 24.9999 13C25.7956 13 26.5586 13.3161 27.1212 13.8787C27.6838 14.4413 27.9999 15.2044 27.9999 16ZM9.9999 16C9.9999 16.5933 9.82395 17.1734 9.49431 17.6667C9.16467 18.1601 8.69613 18.5446 8.14795 18.7716C7.59977 18.9987 6.99657 19.0581 6.41463 18.9424C5.83269 18.8266 5.29814 18.5409 4.87858 18.1213C4.45902 17.7018 4.1733 17.1672 4.05755 16.5853C3.94179 16.0033 4.0012 15.4001 4.22826 14.8519C4.45533 14.3038 4.83984 13.8352 5.33319 13.5056C5.82654 13.1759 6.40656 13 6.9999 13C7.79555 13 8.55861 13.3161 9.12122 13.8787C9.68383 14.4413 9.9999 15.2044 9.9999 16Z" fill="white"/>
<path d="M64.5 8.50001C63.1072 8.50001 61.7418 8.88787 60.557 9.62013C59.3722 10.3524 58.4147 11.4001 57.7918 12.6459C57.1689 13.8917 56.9052 15.2863 57.0303 16.6736C57.1554 18.0608 57.6643 19.3857 58.5 20.5H53.5C54.5137 19.1484 55.0414 17.4941 54.9975 15.8051C54.9536 14.1162 54.3407 12.4915 53.2581 11.1944C52.1756 9.89727 50.6868 9.00365 49.0329 8.65833C47.3791 8.31302 45.6571 8.53623 44.1459 9.29181C42.6348 10.0474 41.423 11.2911 40.7069 12.8213C39.9909 14.3516 39.8125 16.0788 40.2006 17.7232C40.5888 19.3675 41.5208 20.8326 42.8456 21.8811C44.1705 22.9296 45.8105 23.5 47.5 23.5H64.5C66.4891 23.5 68.3968 22.7098 69.8033 21.3033C71.2098 19.8968 72 17.9891 72 16C72 14.0109 71.2098 12.1032 69.8033 10.6967C68.3968 9.29019 66.4891 8.50001 64.5 8.50001ZM43 16C43 15.11 43.2639 14.24 43.7584 13.4999C44.2529 12.7599 44.9557 12.1831 45.7779 11.8426C46.6002 11.502 47.505 11.4128 48.3779 11.5865C49.2508 11.7601 50.0527 12.1887 50.682 12.818C51.3113 13.4474 51.7399 14.2492 51.9135 15.1221C52.0872 15.995 51.9981 16.8998 51.6575 17.7221C51.3169 18.5444 50.7401 19.2472 50.0001 19.7416C49.2601 20.2361 48.39 20.5 47.5 20.5C46.3065 20.5 45.1619 20.0259 44.318 19.182C43.4741 18.3381 43 17.1935 43 16ZM64.5 20.5C63.61 20.5 62.74 20.2361 61.9999 19.7416C61.2599 19.2472 60.6831 18.5444 60.3425 17.7221C60.002 16.8998 59.9128 15.995 60.0865 15.1221C60.2601 14.2492 60.6887 13.4474 61.318 12.818C61.9474 12.1887 62.7492 11.7601 63.6221 11.5865C64.495 11.4128 65.3998 11.502 66.2221 11.8426C67.0443 12.1831 67.7472 12.7599 68.2416 13.4999C68.7361 14.24 69 15.11 69 16C69 17.1935 68.5259 18.3381 67.682 19.182C66.8381 20.0259 65.6935 20.5 64.5 20.5Z" fill="white"/>
</g>
<defs>
<clipPath id="clip0_27_765">
<rect width="72" height="32" rx="5" fill="white"/>
</clipPath>
</defs>
</svg>
