<svg width="72" height="32" viewBox="0 0 72 32" fill="none" xmlns="http://www.w3.org/2000/svg">
<g clip-path="url(#clip0_27_1617)">
<path d="M27 8H7C6.73478 8 6.48043 7.89464 6.29289 7.70711C6.10536 7.51957 6 7.26522 6 7C6 6.73478 6.10536 6.48043 6.29289 6.29289C6.48043 6.10536 6.73478 6 7 6H24C24.2652 6 24.5196 5.89464 24.7071 5.70711C24.8946 5.51957 25 5.26522 25 5C25 4.73478 24.8946 4.48043 24.7071 4.29289C24.5196 4.10536 24.2652 4 24 4H7C6.20435 4 5.44129 4.31607 4.87868 4.87868C4.31607 5.44129 4 6.20435 4 7V23C4 23.7956 4.31607 24.5587 4.87868 25.1213C5.44129 25.6839 6.20435 26 7 26H27C27.5304 26 28.0391 25.7893 28.4142 25.4142C28.7893 25.0391 29 24.5304 29 24V10C29 9.46957 28.7893 8.96086 28.4142 8.58579C28.0391 8.21071 27.5304 8 27 8ZM22.5 18C22.2033 18 21.9133 17.912 21.6666 17.7472C21.42 17.5824 21.2277 17.3481 21.1142 17.074C21.0007 16.7999 20.9709 16.4983 21.0288 16.2074C21.0867 15.9164 21.2296 15.6491 21.4393 15.4393C21.6491 15.2296 21.9164 15.0867 22.2074 15.0288C22.4983 14.9709 22.7999 15.0006 23.074 15.1142C23.3481 15.2277 23.5824 15.42 23.7472 15.6666C23.912 15.9133 24 16.2033 24 16.5C24 16.8978 23.842 17.2794 23.5607 17.5607C23.2794 17.842 22.8978 18 22.5 18Z" fill="white"/>
<path d="M64.4999 17C64.4999 17.3956 64.3826 17.7822 64.1629 18.1111C63.9431 18.44 63.6308 18.6964 63.2653 18.8478C62.8999 18.9991 62.4977 19.0387 62.1098 18.9616C61.7218 18.8844 61.3654 18.6939 61.0857 18.4142C60.806 18.1345 60.6155 17.7781 60.5384 17.3902C60.4612 17.0022 60.5008 16.6001 60.6522 16.2346C60.8036 15.8692 61.0599 15.5568 61.3888 15.3371C61.7177 15.1173 62.1044 15 62.4999 15C63.0304 15 63.5391 15.2107 63.9142 15.5858C64.2892 15.9609 64.4999 16.4696 64.4999 17ZM69.4999 12.5V22.5C69.4999 23.5609 69.0785 24.5783 68.3284 25.3284C67.5782 26.0786 66.5608 26.5 65.4999 26.5H47.4999C46.4391 26.5 45.4217 26.0786 44.6715 25.3284C43.9214 24.5783 43.4999 23.5609 43.4999 22.5V7.615C43.4846 7.08012 43.5767 6.54758 43.7708 6.04893C43.9649 5.55027 44.2571 5.09564 44.6301 4.71194C45.003 4.32823 45.4492 4.02327 45.9422 3.8151C46.4351 3.60693 46.9648 3.49978 47.4999 3.5H63.9999C64.3978 3.5 64.7793 3.65804 65.0606 3.93934C65.3419 4.22064 65.4999 4.60218 65.4999 5C65.4999 5.39783 65.3419 5.77936 65.0606 6.06066C64.7793 6.34197 64.3978 6.5 63.9999 6.5H47.4999C47.3658 6.49993 47.2331 6.52683 47.1096 6.57911C46.9861 6.63138 46.8744 6.70796 46.7811 6.80429C46.6878 6.90062 46.6148 7.01473 46.5665 7.13983C46.5182 7.26493 46.4956 7.39847 46.4999 7.5325V7.5425C46.5209 7.80727 46.6425 8.05398 46.8396 8.23202C47.0367 8.41006 47.2944 8.50594 47.5599 8.5H65.4999C66.5608 8.5 67.5782 8.92143 68.3284 9.67157C69.0785 10.4217 69.4999 11.4391 69.4999 12.5ZM66.4999 12.5C66.4999 12.2348 66.3946 11.9804 66.2071 11.7929C66.0195 11.6054 65.7652 11.5 65.4999 11.5H47.5599C47.2023 11.5002 46.8461 11.4548 46.4999 11.365V22.5C46.4999 22.7652 46.6053 23.0196 46.7928 23.2071C46.9804 23.3946 47.2347 23.5 47.4999 23.5H65.4999C65.7652 23.5 66.0195 23.3946 66.2071 23.2071C66.3946 23.0196 66.4999 22.7652 66.4999 22.5V12.5Z" fill="white"/>
</g>
<defs>
<clipPath id="clip0_27_1617">
<rect width="72" height="32" rx="5" fill="white"/>
</clipPath>
</defs>
</svg>
