<svg width="72" height="32" viewBox="0 0 72 32" fill="none" xmlns="http://www.w3.org/2000/svg">
<g clip-path="url(#clip0_27_4524)">
<path d="M29 7V11C29 11.1326 28.9473 11.2598 28.8536 11.3536C28.7598 11.4473 28.6326 11.5 28.5 11.5H17V6.5C17 6.36739 17.0527 6.24021 17.1464 6.14645C17.2402 6.05268 17.3674 6 17.5 6H28C28.2652 6 28.5196 6.10536 28.7071 6.29289C28.8946 6.48043 29 6.73478 29 7ZM28.5 13.5H23V19H28.5C28.6326 19 28.7598 18.9473 28.8536 18.8536C28.9473 18.7598 29 18.6326 29 18.5V14C29 13.8674 28.9473 13.7402 28.8536 13.6464C28.7598 13.5527 28.6326 13.5 28.5 13.5ZM11 19H21V13.5H11V19ZM3.5 19H9V13.5H3.5C3.36739 13.5 3.24021 13.5527 3.14645 13.6464C3.05268 13.7402 3 13.8674 3 14V18.5C3 18.6326 3.05268 18.7598 3.14645 18.8536C3.24021 18.9473 3.36739 19 3.5 19ZM28.5 21H17V25.5C17 25.6326 17.0527 25.7598 17.1464 25.8536C17.2402 25.9473 17.3674 26 17.5 26H28C28.2652 26 28.5196 25.8946 28.7071 25.7071C28.8946 25.5196 29 25.2652 29 25V21.5C29 21.3674 28.9473 21.2402 28.8536 21.1464C28.7598 21.0527 28.6326 21 28.5 21ZM3.5 11.5H15V6.5C15 6.36739 14.9473 6.24021 14.8536 6.14645C14.7598 6.05268 14.6326 6 14.5 6H4C3.73478 6 3.48043 6.10536 3.29289 6.29289C3.10536 6.48043 3 6.73478 3 7V11C3 11.1326 3.05268 11.2598 3.14645 11.3536C3.24021 11.4473 3.36739 11.5 3.5 11.5ZM3 21.5V25C3 25.2652 3.10536 25.5196 3.29289 25.7071C3.48043 25.8946 3.73478 26 4 26H14.5C14.6326 26 14.7598 25.9473 14.8536 25.8536C14.9473 25.7598 15 25.6326 15 25.5V21H3.5C3.36739 21 3.24021 21.0527 3.14645 21.1464C3.05268 21.2402 3 21.3674 3 21.5Z" fill="white"/>
<path d="M68 5.5H44C43.6022 5.5 43.2206 5.65804 42.9393 5.93934C42.658 6.22064 42.5 6.60218 42.5 7V25C42.5 25.3978 42.658 25.7794 42.9393 26.0607C43.2206 26.342 43.6022 26.5 44 26.5H68C68.3978 26.5 68.7794 26.342 69.0607 26.0607C69.342 25.7794 69.5 25.3978 69.5 25V7C69.5 6.60218 69.342 6.22064 69.0607 5.93934C68.7794 5.65804 68.3978 5.5 68 5.5ZM51.5 17.5V14.5H60.5V17.5H51.5ZM45.5 17.5V14.5H48.5V17.5H45.5ZM63.5 14.5H66.5V17.5H63.5V14.5ZM66.5 11.5H57.5V8.5H66.5V11.5ZM54.5 8.5V11.5H45.5V8.5H54.5ZM45.5 20.5H54.5V23.5H45.5V20.5ZM57.5 23.5V20.5H66.5V23.5H57.5Z" fill="white"/>
</g>
<defs>
<clipPath id="clip0_27_4524">
<rect width="72" height="32" rx="5" fill="white"/>
</clipPath>
</defs>
</svg>
