<svg width="72" height="32" viewBox="0 0 72 32" fill="none" xmlns="http://www.w3.org/2000/svg">
<g clip-path="url(#clip0_27_1622)">
<path d="M30 23H29V7.23749L30.2087 6.97749C30.3399 6.95289 30.4649 6.90227 30.5762 6.82862C30.6875 6.75497 30.783 6.65978 30.8569 6.54866C30.9309 6.43754 30.9818 6.31274 31.0068 6.18162C31.0317 6.05049 31.0302 5.9157 31.0022 5.78519C30.9743 5.65467 30.9205 5.53107 30.844 5.42167C30.7675 5.31228 30.6699 5.2193 30.5569 5.14822C30.444 5.07714 30.3179 5.02939 30.1862 5.0078C30.0545 4.98621 29.9198 4.9912 29.79 5.02249L1.79 11.0225C1.54878 11.0745 1.33533 11.214 1.19069 11.4139C1.04606 11.6138 0.980465 11.8602 1.00652 12.1056C1.03258 12.351 1.14846 12.5781 1.33186 12.7432C1.51526 12.9083 1.75323 12.9998 2 13C2.07101 12.9999 2.14181 12.9923 2.21125 12.9775L3 12.8087V23H2C1.73478 23 1.48043 23.1053 1.29289 23.2929C1.10536 23.4804 1 23.7348 1 24C1 24.2652 1.10536 24.5196 1.29289 24.7071C1.48043 24.8946 1.73478 25 2 25H30C30.2652 25 30.5196 24.8946 30.7071 24.7071C30.8946 24.5196 31 24.2652 31 24C31 23.7348 30.8946 23.4804 30.7071 23.2929C30.5196 23.1053 30.2652 23 30 23ZM23 23H9V21H23V23ZM23 19H9V17H23V19Z" fill="white"/>
<path d="M70 22.5001H69.5V7.6413L70.3137 7.46755C70.5091 7.42931 70.6949 7.35257 70.8603 7.24178C71.0257 7.131 71.1675 6.9884 71.2772 6.82229C71.3869 6.65618 71.4625 6.4699 71.4995 6.27428C71.5365 6.07867 71.5342 5.87765 71.4927 5.68294C71.4512 5.48823 71.3714 5.30372 71.2579 5.14018C71.1444 4.97663 70.9994 4.83732 70.8315 4.73036C70.6636 4.6234 70.4761 4.55094 70.2799 4.51719C70.0837 4.48344 69.8827 4.48909 69.6887 4.5338L41.6888 10.5338C41.3272 10.6118 41.0073 10.8206 40.7903 11.1201C40.5734 11.4197 40.4747 11.7888 40.5133 12.1566C40.5519 12.5244 40.725 12.865 40.9994 13.113C41.2738 13.3609 41.6302 13.4988 42 13.5001C42.1063 13.5003 42.2123 13.4894 42.3163 13.4676L42.5013 13.4276V22.5001H42C41.6022 22.5001 41.2206 22.6581 40.9393 22.9394C40.658 23.2207 40.5 23.6022 40.5 24.0001C40.5 24.3979 40.658 24.7794 40.9393 25.0607C41.2206 25.342 41.6022 25.5001 42 25.5001H70C70.3978 25.5001 70.7794 25.342 71.0607 25.0607C71.342 24.7794 71.5 24.3979 71.5 24.0001C71.5 23.6022 71.342 23.2207 71.0607 22.9394C70.7794 22.6581 70.3978 22.5001 70 22.5001ZM45.5 12.7838L66.5 8.2838V22.5001H64V15.0001C64 14.6022 63.842 14.2207 63.5607 13.9394C63.2794 13.6581 62.8978 13.5001 62.5 13.5001H49.5C49.1022 13.5001 48.7206 13.6581 48.4393 13.9394C48.158 14.2207 48 14.6022 48 15.0001V22.5001H45.5V12.7838ZM61 18.0001H51V16.5001H61V18.0001ZM51 21.0001H61V22.5001H51V21.0001Z" fill="white"/>
</g>
<defs>
<clipPath id="clip0_27_1622">
<rect width="72" height="32" rx="5" fill="white"/>
</clipPath>
</defs>
</svg>
