<svg width="72" height="32" viewBox="0 0 72 32" fill="none" xmlns="http://www.w3.org/2000/svg">
<g clip-path="url(#clip0_27_4544)">
<path d="M28.4137 10.0288L21.9713 3.58625C21.5951 3.21232 21.0867 3.00169 20.5562 3H11.4438C10.9133 3.00169 10.4049 3.21232 10.0288 3.58625L3.58625 10.0288C3.21232 10.4049 3.00169 10.9133 3 11.4438V20.5562C3.00169 21.0867 3.21232 21.5951 3.58625 21.9713L10.0288 28.4137C10.4049 28.7877 10.9133 28.9983 11.4438 29H20.5562C21.0867 28.9983 21.5951 28.7877 21.9713 28.4137L28.4137 21.9713C28.7877 21.5951 28.9983 21.0867 29 20.5562V11.4438C28.9983 10.9133 28.7877 10.4049 28.4137 10.0288ZM15 10C15 9.73478 15.1054 9.48043 15.2929 9.29289C15.4804 9.10536 15.7348 9 16 9C16.2652 9 16.5196 9.10536 16.7071 9.29289C16.8946 9.48043 17 9.73478 17 10V17C17 17.2652 16.8946 17.5196 16.7071 17.7071C16.5196 17.8946 16.2652 18 16 18C15.7348 18 15.4804 17.8946 15.2929 17.7071C15.1054 17.5196 15 17.2652 15 17V10ZM16 23C15.7033 23 15.4133 22.912 15.1666 22.7472C14.92 22.5824 14.7277 22.3481 14.6142 22.074C14.5006 21.7999 14.4709 21.4983 14.5288 21.2074C14.5867 20.9164 14.7296 20.6491 14.9393 20.4393C15.1491 20.2296 15.4164 20.0867 15.7074 20.0288C15.9983 19.9709 16.2999 20.0007 16.574 20.1142C16.8481 20.2277 17.0824 20.42 17.2472 20.6666C17.412 20.9133 17.5 21.2033 17.5 21.5C17.5 21.8978 17.342 22.2794 17.0607 22.5607C16.7794 22.842 16.3978 23 16 23Z" fill="white"/>
<path d="M54.5 16.5V10C54.5 9.60219 54.658 9.22065 54.9393 8.93935C55.2207 8.65805 55.6022 8.50001 56 8.50001C56.3978 8.50001 56.7794 8.65805 57.0607 8.93935C57.342 9.22065 57.5 9.60219 57.5 10V16.5C57.5 16.8978 57.342 17.2794 57.0607 17.5607C56.7794 17.842 56.3978 18 56 18C55.6022 18 55.2207 17.842 54.9393 17.5607C54.658 17.2794 54.5 16.8978 54.5 16.5ZM69.5 11.4438V20.5563C69.5009 20.8847 69.4366 21.21 69.3109 21.5134C69.1851 21.8168 69.0005 22.0922 68.7675 22.3238L62.3238 28.7675C62.0923 29.0005 61.8169 29.1852 61.5135 29.311C61.21 29.4367 60.8847 29.501 60.5563 29.5H51.4438C51.1153 29.501 50.79 29.4367 50.4866 29.311C50.1832 29.1852 49.9077 29.0005 49.6763 28.7675L43.2325 22.3238C42.9996 22.0922 42.8149 21.8168 42.6891 21.5134C42.5634 21.21 42.4991 20.8847 42.5 20.5563V11.4438C42.4991 11.1153 42.5634 10.79 42.6891 10.4866C42.8149 10.1832 42.9996 9.90778 43.2325 9.67626L49.6763 3.23251C49.9077 2.99951 50.1832 2.81479 50.4866 2.68905C50.79 2.56331 51.1153 2.49905 51.4438 2.50001H60.5563C60.8847 2.49905 61.21 2.56331 61.5135 2.68905C61.8169 2.81479 62.0923 2.99951 62.3238 3.23251L68.7675 9.67626C69.0005 9.90778 69.1851 10.1832 69.3109 10.4866C69.4366 10.79 69.5009 11.1153 69.5 11.4438ZM66.5 11.6513L60.3488 5.50001H51.6513L45.5 11.6513V20.3488L51.6513 26.5H60.3488L66.5 20.3488V11.6513ZM56 19.5C55.6044 19.5 55.2178 19.6173 54.8889 19.8371C54.56 20.0568 54.3036 20.3692 54.1523 20.7346C54.0009 21.1001 53.9613 21.5022 54.0384 21.8902C54.1156 22.2782 54.3061 22.6345 54.5858 22.9142C54.8655 23.1939 55.2219 23.3844 55.6098 23.4616C55.9978 23.5388 56.3999 23.4991 56.7654 23.3478C57.1308 23.1964 57.4432 22.9401 57.6629 22.6112C57.8827 22.2823 58 21.8956 58 21.5C58 20.9696 57.7893 20.4609 57.4142 20.0858C57.0392 19.7107 56.5304 19.5 56 19.5Z" fill="white"/>
</g>
<defs>
<clipPath id="clip0_27_4544">
<rect width="72" height="32" rx="5" fill="white"/>
</clipPath>
</defs>
</svg>
