<svg width="72" height="32" viewBox="0 0 72 32" fill="none" xmlns="http://www.w3.org/2000/svg">
<g clip-path="url(#clip0_27_1627)">
<path d="M26 4H6C5.46957 4 4.96086 4.21071 4.58579 4.58579C4.21071 4.96086 4 5.46957 4 6V26C4 26.5304 4.21071 27.0391 4.58579 27.4142C4.96086 27.7893 5.46957 28 6 28H26C26.5304 28 27.0391 27.7893 27.4142 27.4142C27.7893 27.0391 28 26.5304 28 26V6C28 5.46957 27.7893 4.96086 27.4142 4.58579C27.0391 4.21071 26.5304 4 26 4ZM16 23C14.6155 23 13.2622 22.5895 12.111 21.8203C10.9599 21.0511 10.0627 19.9579 9.53284 18.6788C9.00303 17.3997 8.86441 15.9922 9.1345 14.6344C9.4046 13.2765 10.0713 12.0292 11.0503 11.0503C12.0292 10.0713 13.2765 9.4046 14.6344 9.1345C15.9922 8.86441 17.3997 9.00303 18.6788 9.53284C19.9579 10.0627 21.0511 10.9599 21.8203 12.111C22.5895 13.2622 23 14.6155 23 16C23 17.8565 22.2625 19.637 20.9497 20.9497C19.637 22.2625 17.8565 23 16 23ZM23.5 10C23.2033 10 22.9133 9.91203 22.6666 9.7472C22.42 9.58238 22.2277 9.34811 22.1142 9.07403C22.0007 8.79994 21.9709 8.49834 22.0288 8.20736C22.0867 7.91639 22.2296 7.64912 22.4393 7.43934C22.6491 7.22956 22.9164 7.0867 23.2074 7.02882C23.4983 6.97094 23.7999 7.00065 24.074 7.11418C24.3481 7.22771 24.5824 7.41997 24.7472 7.66664C24.912 7.91332 25 8.20333 25 8.5C25 8.89782 24.842 9.27936 24.5607 9.56066C24.2794 9.84196 23.8978 10 23.5 10ZM16.7075 13.7075L12.7075 17.7075C12.6146 17.8004 12.5043 17.8741 12.3829 17.9244C12.2615 17.9747 12.1314 18.0006 12 18.0006C11.8686 18.0006 11.7385 17.9747 11.6171 17.9244C11.4957 17.8741 11.3854 17.8004 11.2925 17.7075C11.1996 17.6146 11.1259 17.5043 11.0756 17.3829C11.0253 17.2615 10.9994 17.1314 10.9994 17C10.9994 16.8686 11.0253 16.7385 11.0756 16.6171C11.1259 16.4957 11.1996 16.3854 11.2925 16.2925L15.2925 12.2925C15.4801 12.1049 15.7346 11.9994 16 11.9994C16.2654 11.9994 16.5199 12.1049 16.7075 12.2925C16.8951 12.4801 17.0006 12.7346 17.0006 13C17.0006 13.2654 16.8951 13.5199 16.7075 13.7075ZM20.7075 13.2925C20.8005 13.3854 20.8742 13.4957 20.9246 13.6171C20.9749 13.7385 21.0008 13.8686 21.0008 14C21.0008 14.1314 20.9749 14.2615 20.9246 14.3829C20.8742 14.5043 20.8005 14.6146 20.7075 14.7075L14.7075 20.7075C14.6146 20.8004 14.5043 20.8741 14.3829 20.9244C14.2615 20.9747 14.1314 21.0006 14 21.0006C13.8686 21.0006 13.7385 20.9747 13.6171 20.9244C13.4957 20.8741 13.3854 20.8004 13.2925 20.7075C13.1996 20.6146 13.1259 20.5043 13.0756 20.3829C13.0253 20.2615 12.9994 20.1314 12.9994 20C12.9994 19.8686 13.0253 19.7385 13.0756 19.6171C13.1259 19.4957 13.1996 19.3854 13.2925 19.2925L19.2925 13.2925C19.3854 13.1995 19.4957 13.1258 19.6171 13.0754C19.7385 13.0251 19.8686 12.9992 20 12.9992C20.1314 12.9992 20.2615 13.0251 20.3829 13.0754C20.5043 13.1258 20.6146 13.1995 20.7075 13.2925Z" fill="white"/>
<path d="M60 10C60 9.60444 60.1173 9.21776 60.3371 8.88886C60.5568 8.55996 60.8692 8.30362 61.2346 8.15224C61.6001 8.00087 62.0022 7.96126 62.3902 8.03843C62.7781 8.1156 63.1345 8.30608 63.4142 8.58579C63.6939 8.86549 63.8844 9.22186 63.9616 9.60982C64.0387 9.99778 63.9991 10.3999 63.8478 10.7654C63.6964 11.1308 63.44 11.4432 63.1111 11.6629C62.7822 11.8827 62.3956 12 62 12C61.4696 12 60.9609 11.7893 60.5858 11.4142C60.2107 11.0391 60 10.5304 60 10ZM69 5.5V26.5C69 27.163 68.7366 27.7989 68.2678 28.2678C67.7989 28.7366 67.163 29 66.5 29H45.5C44.837 29 44.2011 28.7366 43.7322 28.2678C43.2634 27.7989 43 27.163 43 26.5V5.5C43 4.83696 43.2634 4.20107 43.7322 3.73223C44.2011 3.26339 44.837 3 45.5 3H66.5C67.163 3 67.7989 3.26339 68.2678 3.73223C68.7366 4.20107 69 4.83696 69 5.5ZM66 6H46V26H66V6ZM57.4387 15.4388L55.4388 17.4387C55.157 17.7205 54.9986 18.1027 54.9986 18.5012C54.9986 18.8998 55.157 19.282 55.4388 19.5637C55.7205 19.8455 56.1027 20.0039 56.5012 20.0039C56.8998 20.0039 57.282 19.8455 57.5637 19.5637L59.5637 17.5637C59.8455 17.282 60.0039 16.8998 60.0039 16.5012C60.0039 16.1027 59.8455 15.7205 59.5637 15.4388C59.282 15.157 58.8998 14.9986 58.5012 14.9986C58.1027 14.9986 57.7205 15.157 57.4387 15.4388ZM55.5638 13.4388C55.4244 13.2989 55.2588 13.188 55.0765 13.1122C54.8942 13.0365 54.6987 12.9976 54.5013 12.9976C54.3038 12.9976 54.1083 13.0365 53.926 13.1122C53.7437 13.188 53.5781 13.2989 53.4388 13.4388L52.4388 14.4388C52.157 14.7205 51.9986 15.1027 51.9986 15.5013C51.9986 15.8998 52.157 16.282 52.4388 16.5637C52.7205 16.8455 53.1027 17.0039 53.5013 17.0039C53.8998 17.0039 54.282 16.8455 54.5638 16.5637L55.5638 15.5638C55.7034 15.4242 55.8142 15.2585 55.8897 15.0761C55.9652 14.8937 56.0039 14.6982 56.0037 14.5007C56.0035 14.3033 55.9642 14.1079 55.8883 13.9256C55.8124 13.7434 55.7013 13.5779 55.5612 13.4388H55.5638ZM56 24.5C57.2272 24.4991 58.4397 24.2327 59.5542 23.719C60.6687 23.2054 61.6589 22.4566 62.4568 21.5242C63.2547 20.5918 63.8414 19.4977 64.1766 18.3172C64.5118 17.1367 64.5876 15.8976 64.3988 14.685C64.3376 14.2918 64.1227 13.939 63.8015 13.7043C63.4802 13.4695 63.0788 13.372 62.6856 13.4331C62.2924 13.4943 61.9397 13.7091 61.7049 14.0304C61.4701 14.3517 61.3726 14.7531 61.4338 15.1462C61.6139 16.2931 61.4265 17.4675 60.8985 18.5013C60.3705 19.5352 59.5288 20.3754 58.4942 20.9018C57.4595 21.4281 56.2847 21.6136 55.1382 21.4316C53.9917 21.2497 52.9321 20.7096 52.1113 19.8887C51.2904 19.0679 50.7503 18.0083 50.5684 16.8618C50.3864 15.7152 50.5719 14.5405 51.0982 13.5058C51.6246 12.4712 52.4648 11.6295 53.4987 11.1015C54.5325 10.5735 55.7069 10.3861 56.8538 10.5662C57.2469 10.6274 57.6483 10.5299 57.9696 10.2951C58.2909 10.0603 58.5057 9.70756 58.5669 9.31437C58.628 8.92119 58.5305 8.51981 58.2957 8.19854C58.061 7.87727 57.7082 7.66242 57.315 7.60125C56.1577 7.42102 54.9757 7.48189 53.8431 7.78005C52.7104 8.07822 51.6517 8.60724 50.7331 9.33392C49.8146 10.0606 49.0562 10.9693 48.5054 12.0029C47.9547 13.0366 47.6235 14.1729 47.5326 15.3406C47.4417 16.5082 47.5932 17.6821 47.9774 18.7885C48.3616 19.8949 48.9703 20.91 49.7654 21.77C50.5605 22.63 51.5247 23.3165 52.5975 23.7863C53.6704 24.256 54.8288 24.499 56 24.5Z" fill="white"/>
</g>
<defs>
<clipPath id="clip0_27_1627">
<rect width="72" height="32" rx="5" fill="white"/>
</clipPath>
</defs>
</svg>
