<svg width="72" height="32" viewBox="0 0 72 32" fill="none" xmlns="http://www.w3.org/2000/svg">
<g clip-path="url(#clip0_27_4318)">
<path d="M21.9128 7.94125L21.1328 3.64375C21.0493 3.18269 20.8066 2.76557 20.447 2.46516C20.0875 2.16475 19.6338 2.00012 19.1653 2H12.8353C12.3667 2.00012 11.9131 2.16475 11.5535 2.46516C11.1939 2.76557 10.9512 3.18269 10.8678 3.64375L10.0878 7.94125C8.82096 8.86868 7.79062 10.0817 7.08038 11.4819C6.37014 12.8821 6 14.43 6 16C6 17.57 6.37014 19.1179 7.08038 20.5181C7.79062 21.9183 8.82096 23.1313 10.0878 24.0588L10.8678 28.3563C10.9512 28.8173 11.1939 29.2344 11.5535 29.5348C11.9131 29.8353 12.3667 29.9999 12.8353 30H19.1653C19.6338 29.9999 20.0875 29.8353 20.447 29.5348C20.8066 29.2344 21.0493 28.8173 21.1328 28.3563L21.9128 24.0588C23.1796 23.1313 24.2099 21.9183 24.9202 20.5181C25.6304 19.1179 26.0006 17.57 26.0006 16C26.0006 14.43 25.6304 12.8821 24.9202 11.4819C24.2099 10.0817 23.1796 8.86868 21.9128 7.94125ZM12.8353 4H19.1653L19.654 6.69375C17.306 5.76878 14.6946 5.76878 12.3465 6.69375L12.8353 4ZM19.1653 28H12.8353L12.3465 25.3062C14.6946 26.2312 17.306 26.2312 19.654 25.3062L19.1653 28ZM21.0003 17H16.0003C15.7351 17 15.4807 16.8946 15.2932 16.7071C15.1056 16.5196 15.0003 16.2652 15.0003 16V11C15.0003 10.7348 15.1056 10.4804 15.2932 10.2929C15.4807 10.1054 15.7351 10 16.0003 10C16.2655 10 16.5199 10.1054 16.7074 10.2929C16.8949 10.4804 17.0003 10.7348 17.0003 11V15H21.0003C21.2655 15 21.5199 15.1054 21.7074 15.2929C21.8949 15.4804 22.0003 15.7348 22.0003 16C22.0003 16.2652 21.8949 16.5196 21.7074 16.7071C21.5199 16.8946 21.2655 17 21.0003 17Z" fill="white"/>
<path d="M65.9999 16C65.9998 14.5584 65.6875 13.1339 65.0844 11.8246C64.4813 10.5152 63.6017 9.35199 62.5061 8.415L61.6249 3.55375C61.5203 2.97749 61.2168 2.45622 60.7672 2.08089C60.3176 1.70555 59.7505 1.49996 59.1649 1.5H52.8349C52.2492 1.49996 51.6821 1.70555 51.2325 2.08089C50.7829 2.45622 50.4794 2.97749 50.3749 3.55375L49.4999 8.415C48.4042 9.35191 47.5245 10.5151 46.9213 11.8245C46.3182 13.1339 46.0059 14.5584 46.0059 16C46.0059 17.4416 46.3182 18.8661 46.9213 20.1755C47.5245 21.4849 48.4042 22.6481 49.4999 23.585L50.3749 28.4463C50.4794 29.0225 50.7829 29.5438 51.2325 29.9191C51.6821 30.2945 52.2492 30.5 52.8349 30.5H59.1649C59.7505 30.5 60.3176 30.2945 60.7672 29.9191C61.2168 29.5438 61.5203 29.0225 61.6249 28.4463L62.5061 23.585C63.6017 22.648 64.4813 21.4848 65.0844 20.1754C65.6875 18.8661 65.9998 17.4416 65.9999 16ZM53.2499 4.5H58.7499L59.1124 6.5C57.0921 5.8367 54.9126 5.8367 52.8924 6.5L53.2499 4.5ZM58.7499 27.5H53.2499L52.8874 25.5C54.9076 26.1633 57.0871 26.1633 59.1074 25.5L58.7499 27.5ZM55.9999 23C54.6154 23 53.262 22.5895 52.1109 21.8203C50.9597 21.0511 50.0625 19.9579 49.5327 18.6788C49.0029 17.3997 48.8643 15.9922 49.1344 14.6344C49.4045 13.2765 50.0711 12.0292 51.0501 11.0503C52.0291 10.0713 53.2764 9.4046 54.6342 9.1345C55.9921 8.86441 57.3996 9.00303 58.6786 9.53284C59.9577 10.0627 61.051 10.9599 61.8201 12.111C62.5893 13.2622 62.9999 14.6155 62.9999 16C62.9979 17.8559 62.2597 19.6352 60.9474 20.9476C59.6351 22.2599 57.8558 22.998 55.9999 23ZM60.9999 16C60.9999 16.3978 60.8418 16.7794 60.5605 17.0607C60.2792 17.342 59.8977 17.5 59.4999 17.5H55.9999C55.602 17.5 55.2205 17.342 54.9392 17.0607C54.6579 16.7794 54.4999 16.3978 54.4999 16V12.5C54.4999 12.1022 54.6579 11.7206 54.9392 11.4393C55.2205 11.158 55.602 11 55.9999 11C56.3977 11 56.7792 11.158 57.0605 11.4393C57.3418 11.7206 57.4999 12.1022 57.4999 12.5V14.5H59.4999C59.8977 14.5 60.2792 14.658 60.5605 14.9393C60.8418 15.2206 60.9999 15.6022 60.9999 16Z" fill="white"/>
</g>
<defs>
<clipPath id="clip0_27_4318">
<rect width="72" height="32" rx="5" fill="white"/>
</clipPath>
</defs>
</svg>
