<svg width="72" height="32" viewBox="0 0 72 32" fill="none" xmlns="http://www.w3.org/2000/svg">
<g clip-path="url(#clip0_27_2344)">
<path d="M26 4H6C5.46957 4 4.96086 4.21071 4.58579 4.58579C4.21071 4.96086 4 5.46957 4 6V26C4 26.5304 4.21071 27.0391 4.58579 27.4142C4.96086 27.7893 5.46957 28 6 28H26C26.5304 28 27.0391 27.7893 27.4142 27.4142C27.7893 27.0391 28 26.5304 28 26V6C28 5.46957 27.7893 4.96086 27.4142 4.58579C27.0391 4.21071 26.5304 4 26 4ZM24.65 22.1087C23.0163 23.5062 21.5375 23.9963 20.195 23.9963C18.4125 23.9963 16.8675 23.1313 15.5112 22.3713C13.21 21.0825 11.3925 20.065 8.65 22.41C8.5502 22.4954 8.43456 22.5602 8.30968 22.6009C8.18481 22.6416 8.05315 22.6572 7.92222 22.647C7.79129 22.6368 7.66365 22.6009 7.5466 22.5414C7.42954 22.4818 7.32536 22.3998 7.24 22.3C7.15464 22.2002 7.08978 22.0846 7.04911 21.9597C7.00844 21.8348 6.99276 21.7031 7.00298 21.5722C7.01319 21.4413 7.0491 21.3137 7.10864 21.1966C7.16818 21.0795 7.2502 20.9754 7.35 20.89C11.1525 17.64 14.1112 19.295 16.4888 20.6262C18.79 21.915 20.6138 22.9325 23.35 20.5875C23.5516 20.4151 23.8134 20.3298 24.0778 20.3505C24.3422 20.3711 24.5876 20.4959 24.76 20.6975C24.9324 20.8991 25.0177 21.1609 24.997 21.4253C24.9764 21.6897 24.8516 21.9351 24.65 22.1075V22.1087ZM24.65 16.6087C23.0163 18.0062 21.5375 18.4963 20.195 18.4963C18.4125 18.4963 16.8675 17.6313 15.5112 16.8713C13.21 15.5825 11.3925 14.565 8.65 16.91C8.44844 17.0824 8.18664 17.1676 7.92222 17.147C7.65779 17.1264 7.41239 17.0016 7.24 16.8C7.06761 16.5984 6.98235 16.3366 7.00298 16.0722C7.02361 15.8078 7.14844 15.5624 7.35 15.39C11.1525 12.14 14.1112 13.795 16.4888 15.1263C18.79 16.415 20.6138 17.4325 23.35 15.0875C23.4498 15.0021 23.5654 14.9373 23.6903 14.8966C23.8152 14.8559 23.9469 14.8403 24.0778 14.8505C24.2087 14.8607 24.3363 14.8966 24.4534 14.9561C24.5705 15.0157 24.6746 15.0977 24.76 15.1975C24.8454 15.2973 24.9102 15.4129 24.9509 15.5378C24.9916 15.6627 25.0072 15.7944 24.997 15.9253C24.9868 16.0562 24.9509 16.1838 24.8914 16.3009C24.8318 16.418 24.7498 16.5221 24.65 16.6075V16.6087ZM24.65 11.1088C23.0163 12.5063 21.5375 12.9963 20.195 12.9963C18.4125 12.9963 16.8675 12.1313 15.5112 11.3713C13.21 10.0825 11.3925 9.065 8.65 11.41C8.4475 11.5733 8.18932 11.6513 7.93025 11.6274C7.67118 11.6035 7.43163 11.4796 7.26245 11.2819C7.09326 11.0843 7.00777 10.8285 7.02412 10.5688C7.04047 10.3092 7.15737 10.0661 7.35 9.89125C11.1525 6.64125 14.1112 8.29625 16.4888 9.6275C18.79 10.9162 20.6138 11.9338 23.35 9.58875C23.5516 9.41636 23.8134 9.3311 24.0778 9.35173C24.3422 9.37236 24.5876 9.49719 24.76 9.69875C24.9324 9.90031 25.0177 10.1621 24.997 10.4265C24.9764 10.691 24.8516 10.9364 24.65 11.1088Z" fill="white"/>
<path d="M68.155 21.8425C68.4086 22.1487 68.5303 22.5431 68.4933 22.939C68.4562 23.3349 68.2635 23.6999 67.9575 23.9537C65.6863 25.8387 63.6325 26.5 61.7687 26.5C59.2987 26.5 57.1612 25.3387 55.2837 24.32C52.1512 22.6175 49.6762 21.2737 45.9575 24.3575C45.6512 24.6114 45.2565 24.7333 44.8603 24.6962C44.4642 24.6592 44.0989 24.4663 43.845 24.16C43.5911 23.8537 43.4692 23.459 43.5062 23.0628C43.5433 22.6667 43.7362 22.3014 44.0425 22.0475C49.3238 17.6725 53.4175 19.8937 56.7162 21.6825C59.8487 23.3837 62.3237 24.7287 66.0425 21.645C66.1942 21.5192 66.3691 21.4245 66.5574 21.3664C66.7456 21.3083 66.9435 21.2878 67.1397 21.3061C67.3358 21.3244 67.5265 21.3813 67.7007 21.4733C67.8749 21.5653 68.0293 21.6908 68.155 21.8425ZM66.0425 14.6437C62.3237 17.7275 59.8487 16.3825 56.7162 14.6812C53.4225 12.8937 49.3238 10.6675 44.0425 15.0462C43.7362 15.3002 43.5433 15.6654 43.5062 16.0616C43.4879 16.2577 43.5084 16.4556 43.5665 16.6439C43.6246 16.8321 43.7193 17.0071 43.845 17.1587C43.9707 17.3104 44.1251 17.4358 44.2993 17.5279C44.4736 17.6199 44.6642 17.6767 44.8603 17.695C45.2565 17.732 45.6512 17.6102 45.9575 17.3562C49.6762 14.2725 52.1512 15.6162 55.2837 17.3187C57.1587 18.3375 59.2987 19.4987 61.7687 19.4987C63.6325 19.4987 65.6863 18.8375 67.9575 16.9537C68.2638 16.6998 68.4567 16.3346 68.4938 15.9384C68.5308 15.5422 68.4089 15.1476 68.155 14.8412C67.9011 14.5349 67.5358 14.342 67.1397 14.305C66.7435 14.2679 66.3488 14.3898 66.0425 14.6437ZM45.9575 10.355C49.6762 7.27124 52.1512 8.61499 55.2837 10.3175C57.1587 11.3362 59.2987 12.4975 61.7687 12.4975C63.6325 12.4975 65.6863 11.8362 67.9575 9.95249C68.2638 9.69854 68.4567 9.33331 68.4938 8.93714C68.5308 8.54097 68.4089 8.14631 68.155 7.83999C67.9011 7.53366 67.5358 7.34076 67.1397 7.30372C66.7435 7.26669 66.3488 7.38854 66.0425 7.64249C62.3237 10.7262 59.8487 9.38249 56.7162 7.67999C53.4225 5.89249 49.3238 3.66624 44.0425 8.04624C43.8872 8.17078 43.7583 8.32499 43.6632 8.49987C43.5681 8.67475 43.5087 8.86682 43.4886 9.06486C43.4685 9.26291 43.488 9.46298 43.546 9.65341C43.604 9.84384 43.6993 10.0208 43.8264 10.174C43.9535 10.3273 44.1098 10.4536 44.2863 10.5458C44.4627 10.638 44.6557 10.6942 44.854 10.711C45.0524 10.7279 45.2521 10.7051 45.4416 10.6439C45.631 10.5828 45.8064 10.4846 45.9575 10.355Z" fill="white"/>
</g>
<defs>
<clipPath id="clip0_27_2344">
<rect width="72" height="32" rx="5" fill="white"/>
</clipPath>
</defs>
</svg>
