<svg width="72" height="32" viewBox="0 0 72 32" fill="none" xmlns="http://www.w3.org/2000/svg">
<g clip-path="url(#clip0_27_4162)">
<path d="M27 5H5C4.46957 5 3.96086 5.21071 3.58579 5.58579C3.21071 5.96086 3 6.46957 3 7V25C3 25.5304 3.21071 26.0391 3.58579 26.4142C3.96086 26.7893 4.46957 27 5 27H27C27.5304 27 28.0391 26.7893 28.4142 26.4142C28.7893 26.0391 29 25.5304 29 25V7C29 6.46957 28.7893 5.96086 28.4142 5.58579C28.0391 5.21071 27.5304 5 27 5ZM9 19C9 19.2652 8.89464 19.5196 8.70711 19.7071C8.51957 19.8946 8.26522 20 8 20C7.73478 20 7.48043 19.8946 7.29289 19.7071C7.10536 19.5196 7 19.2652 7 19V13C7 12.7348 7.10536 12.4804 7.29289 12.2929C7.48043 12.1054 7.73478 12 8 12C8.26522 12 8.51957 12.1054 8.70711 12.2929C8.89464 12.4804 9 12.7348 9 13V19ZM13 23C13 23.2652 12.8946 23.5196 12.7071 23.7071C12.5196 23.8946 12.2652 24 12 24C11.7348 24 11.4804 23.8946 11.2929 23.7071C11.1054 23.5196 11 23.2652 11 23V9C11 8.73478 11.1054 8.48043 11.2929 8.29289C11.4804 8.10536 11.7348 8 12 8C12.2652 8 12.5196 8.10536 12.7071 8.29289C12.8946 8.48043 13 8.73478 13 9V23ZM17 21C17 21.2652 16.8946 21.5196 16.7071 21.7071C16.5196 21.8946 16.2652 22 16 22C15.7348 22 15.4804 21.8946 15.2929 21.7071C15.1054 21.5196 15 21.2652 15 21V11C15 10.7348 15.1054 10.4804 15.2929 10.2929C15.4804 10.1054 15.7348 10 16 10C16.2652 10 16.5196 10.1054 16.7071 10.2929C16.8946 10.4804 17 10.7348 17 11V21ZM21 19C21 19.2652 20.8946 19.5196 20.7071 19.7071C20.5196 19.8946 20.2652 20 20 20C19.7348 20 19.4804 19.8946 19.2929 19.7071C19.1054 19.5196 19 19.2652 19 19V13C19 12.7348 19.1054 12.4804 19.2929 12.2929C19.4804 12.1054 19.7348 12 20 12C20.2652 12 20.5196 12.1054 20.7071 12.2929C20.8946 12.4804 21 12.7348 21 13V19ZM25 20C25 20.2652 24.8946 20.5196 24.7071 20.7071C24.5196 20.8946 24.2652 21 24 21C23.7348 21 23.4804 20.8946 23.2929 20.7071C23.1054 20.5196 23 20.2652 23 20V12C23 11.7348 23.1054 11.4804 23.2929 11.2929C23.4804 11.1054 23.7348 11 24 11C24.2652 11 24.5196 11.1054 24.7071 11.2929C24.8946 11.4804 25 11.7348 25 12V20Z" fill="white"/>
<path d="M47.5 12V20C47.5 20.3978 47.342 20.7794 47.0607 21.0607C46.7794 21.342 46.3978 21.5 46 21.5C45.6022 21.5 45.2206 21.342 44.9393 21.0607C44.658 20.7794 44.5 20.3978 44.5 20V12C44.5 11.6022 44.658 11.2206 44.9393 10.9393C45.2206 10.658 45.6022 10.5 46 10.5C46.3978 10.5 46.7794 10.658 47.0607 10.9393C47.342 11.2206 47.5 11.6022 47.5 12ZM51 2.5C50.6022 2.5 50.2206 2.65804 49.9393 2.93934C49.658 3.22064 49.5 3.60218 49.5 4V28C49.5 28.3978 49.658 28.7794 49.9393 29.0607C50.2206 29.342 50.6022 29.5 51 29.5C51.3978 29.5 51.7794 29.342 52.0607 29.0607C52.342 28.7794 52.5 28.3978 52.5 28V4C52.5 3.60218 52.342 3.22064 52.0607 2.93934C51.7794 2.65804 51.3978 2.5 51 2.5ZM56 6.5C55.6022 6.5 55.2206 6.65804 54.9393 6.93934C54.658 7.22064 54.5 7.60218 54.5 8V24C54.5 24.3978 54.658 24.7794 54.9393 25.0607C55.2206 25.342 55.6022 25.5 56 25.5C56.3978 25.5 56.7794 25.342 57.0607 25.0607C57.342 24.7794 57.5 24.3978 57.5 24V8C57.5 7.60218 57.342 7.22064 57.0607 6.93934C56.7794 6.65804 56.3978 6.5 56 6.5ZM61 10.5C60.6022 10.5 60.2206 10.658 59.9393 10.9393C59.658 11.2206 59.5 11.6022 59.5 12V20C59.5 20.3978 59.658 20.7794 59.9393 21.0607C60.2206 21.342 60.6022 21.5 61 21.5C61.3978 21.5 61.7794 21.342 62.0607 21.0607C62.342 20.7794 62.5 20.3978 62.5 20V12C62.5 11.6022 62.342 11.2206 62.0607 10.9393C61.7794 10.658 61.3978 10.5 61 10.5ZM66 8.5C65.6022 8.5 65.2206 8.65804 64.9393 8.93934C64.658 9.22064 64.5 9.60218 64.5 10V22C64.5 22.3978 64.658 22.7794 64.9393 23.0607C65.2206 23.342 65.6022 23.5 66 23.5C66.3978 23.5 66.7794 23.342 67.0607 23.0607C67.342 22.7794 67.5 22.3978 67.5 22V10C67.5 9.60218 67.342 9.22064 67.0607 8.93934C66.7794 8.65804 66.3978 8.5 66 8.5Z" fill="white"/>
</g>
<defs>
<clipPath id="clip0_27_4162">
<rect width="72" height="32" rx="5" fill="white"/>
</clipPath>
</defs>
</svg>
