<svg width="72" height="32" viewBox="0 0 72 32" fill="none" xmlns="http://www.w3.org/2000/svg">
<g clip-path="url(#clip0_27_4142)">
<path d="M27 5H5C4.46957 5 3.96086 5.21071 3.58579 5.58579C3.21071 5.96086 3 6.46957 3 7V25C3 25.5304 3.21071 26.0391 3.58579 26.4142C3.96086 26.7893 4.46957 27 5 27H27C27.5304 27 28.0391 26.7893 28.4142 26.4142C28.7893 26.0391 29 25.5304 29 25V7C29 6.46957 28.7893 5.96086 28.4142 5.58579C28.0391 5.21071 27.5304 5 27 5ZM25.555 16.8325L16.555 22.8325C16.3906 22.9419 16.1975 23.0002 16 23C15.7348 23 15.4804 22.8946 15.2929 22.7071C15.1054 22.5196 15 22.2652 15 22V11.875L7.555 16.8325C7.44567 16.9054 7.32306 16.956 7.19417 16.9815C7.06527 17.007 6.93262 17.0069 6.80378 16.9811C6.67494 16.9553 6.55243 16.9044 6.44326 16.8313C6.33409 16.7582 6.24038 16.6643 6.1675 16.555C6.09462 16.4457 6.04398 16.3231 6.01848 16.1942C5.99298 16.0653 5.99312 15.9326 6.01889 15.8038C6.04466 15.6749 6.09555 15.5524 6.16866 15.4433C6.24178 15.3341 6.33567 15.2404 6.445 15.1675L15.445 9.1675C15.5956 9.067 15.7707 9.00928 15.9516 9.00052C16.1325 8.99176 16.3123 9.03227 16.472 9.11774C16.6316 9.20321 16.7651 9.33043 16.8581 9.48581C16.9511 9.6412 17.0001 9.81891 17 10V20.1313L24.445 15.1675C24.6658 15.0203 24.936 14.9668 25.1962 15.0189C25.4564 15.0709 25.6853 15.2242 25.8325 15.445C25.9797 15.6658 26.0332 15.936 25.9811 16.1962C25.9291 16.4564 25.7758 16.6853 25.555 16.8325Z" fill="white"/>
<path d="M69.7863 17.2775L56.7863 25.2775C56.559 25.4174 56.2985 25.4941 56.0317 25.4998C55.7649 25.5054 55.5014 25.4397 55.2684 25.3095C55.0354 25.1793 54.8414 24.9894 54.7063 24.7592C54.5713 24.529 54.5001 24.2669 54.5001 24V10.6838L43.7863 17.2775C43.4475 17.486 43.0397 17.5514 42.6527 17.4593C42.2657 17.3672 41.9311 17.1251 41.7226 16.7863C41.514 16.4475 41.4487 16.0397 41.5408 15.6526C41.6329 15.2656 41.875 14.931 42.2138 14.7225L55.2138 6.72252C55.4411 6.58262 55.7016 6.5059 55.9684 6.50027C56.2353 6.49464 56.4988 6.56031 56.7318 6.6905C56.9647 6.82068 57.1588 7.01067 57.2938 7.24087C57.4289 7.47106 57.5001 7.73313 57.5001 8.00002V21.3163L68.2138 14.7225C68.3816 14.6193 68.568 14.5501 68.7625 14.5189C68.9571 14.4877 69.1558 14.4951 69.3474 14.5407C69.5391 14.5863 69.7198 14.6693 69.8794 14.7847C70.039 14.9002 70.1743 15.046 70.2776 15.2138C70.3808 15.3815 70.45 15.568 70.4812 15.7625C70.5124 15.957 70.505 16.1557 70.4594 16.3474C70.4137 16.539 70.3308 16.7198 70.2153 16.8794C70.0999 17.039 69.9541 17.1743 69.7863 17.2775Z" fill="white"/>
</g>
<defs>
<clipPath id="clip0_27_4142">
<rect width="72" height="32" rx="5" fill="white"/>
</clipPath>
</defs>
</svg>
