<svg width="72" height="32" viewBox="0 0 72 32" fill="none" xmlns="http://www.w3.org/2000/svg">
<g clip-path="url(#clip0_27_4157)">
<path d="M27 5H5C4.46957 5 3.96086 5.21071 3.58579 5.58579C3.21071 5.96086 3 6.46957 3 7V25C3 25.5304 3.21071 26.0391 3.58579 26.4142C3.96086 26.7893 4.46957 27 5 27H27C27.5304 27 28.0391 26.7893 28.4142 26.4142C28.7893 26.0391 29 25.5304 29 25V7C29 6.46957 28.7893 5.96086 28.4142 5.58579C28.0391 5.21071 27.5304 5 27 5ZM25.7687 16.64L20.7687 22.64C20.6749 22.7527 20.5573 22.8434 20.4245 22.9056C20.2916 22.9678 20.1467 23.0001 20 23H19.9463C19.7909 22.9917 19.6396 22.9473 19.5044 22.8703C19.3692 22.7932 19.2538 22.6857 19.1675 22.5562L11.9175 11.67L7.76875 16.64C7.59901 16.8439 7.35523 16.972 7.09104 16.9961C6.82685 17.0203 6.56389 16.9385 6.36 16.7687C6.15612 16.599 6.02801 16.3552 6.00386 16.091C5.97972 15.8268 6.06151 15.5639 6.23125 15.36L11.2312 9.36C11.3308 9.24024 11.457 9.1454 11.5997 9.08302C11.7424 9.02065 11.8977 8.99247 12.0532 9.00072C12.2087 9.00898 12.3602 9.05344 12.4955 9.13058C12.6308 9.20771 12.7462 9.31538 12.8325 9.445L20.0888 20.3312L24.2313 15.36C24.3153 15.259 24.4184 15.1756 24.5347 15.1145C24.651 15.0534 24.7781 15.0158 24.909 15.0039C25.0398 14.9919 25.1717 15.0058 25.2971 15.0449C25.4225 15.0839 25.539 15.1472 25.64 15.2312C25.741 15.3153 25.8244 15.4184 25.8855 15.5347C25.9466 15.651 25.9842 15.7781 25.9961 15.909C26.0081 16.0398 25.9942 16.1717 25.9552 16.2971C25.9161 16.4225 25.8528 16.539 25.7687 16.64Z" fill="white"/>
<path d="M70.216 16.875L63.716 25.875C63.577 26.0676 63.3943 26.2244 63.1828 26.3326C62.9714 26.4407 62.7373 26.4971 62.4998 26.4971C62.2623 26.4971 62.0282 26.4407 61.8167 26.3326C61.6053 26.2244 61.4225 26.0676 61.2835 25.875L49.4998 9.56251L44.216 16.875C44.1054 17.0453 43.9615 17.1913 43.7928 17.3043C43.6242 17.4173 43.4343 17.4948 43.2348 17.5323C43.0353 17.5697 42.8302 17.5663 42.6321 17.5222C42.4339 17.4781 42.2468 17.3942 42.082 17.2757C41.9172 17.1571 41.7782 17.0064 41.6734 16.8325C41.5686 16.6587 41.5002 16.4653 41.4723 16.2643C41.4443 16.0632 41.4575 15.8585 41.511 15.6627C41.5645 15.4669 41.6572 15.284 41.7835 15.125L48.2835 6.12501C48.4225 5.93244 48.6053 5.77563 48.8167 5.66748C49.0282 5.55933 49.2623 5.50293 49.4998 5.50293C49.7373 5.50293 49.9714 5.55933 50.1828 5.66748C50.3943 5.77563 50.577 5.93244 50.716 6.12501L62.4998 22.4375L67.7835 15.125C67.8941 14.9548 68.038 14.8087 68.2067 14.6957C68.3754 14.5828 68.5652 14.5052 68.7647 14.4677C68.9642 14.4303 69.1693 14.4337 69.3674 14.4778C69.5656 14.5219 69.7527 14.6058 69.9175 14.7243C70.0823 14.8429 70.2213 14.9937 70.3261 15.1675C70.4309 15.3414 70.4994 15.5347 70.5273 15.7358C70.5552 15.9368 70.542 16.1415 70.4885 16.3373C70.435 16.5331 70.3423 16.7161 70.216 16.875Z" fill="white"/>
</g>
<defs>
<clipPath id="clip0_27_4157">
<rect width="72" height="32" rx="5" fill="white"/>
</clipPath>
</defs>
</svg>
