<svg width="72" height="32" viewBox="0 0 72 32" fill="none" xmlns="http://www.w3.org/2000/svg">
<g clip-path="url(#clip0_27_4172)">
<path d="M20 13C20 13.7911 19.7654 14.5645 19.3259 15.2223C18.8864 15.8801 18.2616 16.3928 17.5307 16.6955C16.7998 16.9983 15.9956 17.0775 15.2196 16.9231C14.4437 16.7688 13.731 16.3878 13.1716 15.8284C12.6122 15.269 12.2312 14.5563 12.0769 13.7804C11.9225 13.0044 12.0017 12.2002 12.3045 11.4693C12.6072 10.7384 13.1199 10.1136 13.7777 9.67412C14.4355 9.23459 15.2089 9 16 9C17.0609 9 18.0783 9.42142 18.8284 10.1716C19.5786 10.9217 20 11.9391 20 13ZM29 26C29 26.2652 28.8946 26.5196 28.7071 26.7071C28.5196 26.8946 28.2652 27 28 27H4C3.73478 27 3.48043 26.8946 3.29289 26.7071C3.10536 26.5196 3 26.2652 3 26C3 25.7348 3.10536 25.4804 3.29289 25.2929C3.48043 25.1054 3.73478 25 4 25H15V22.95C12.4474 22.6934 10.091 21.4656 8.41816 19.5205C6.74535 17.5754 5.8841 15.0618 6.01254 12.4995C6.14098 9.93721 7.24927 7.5223 9.1082 5.75422C10.9671 3.98613 13.4345 3.00012 16 3.00012C18.5655 3.00012 21.0329 3.98613 22.8918 5.75422C24.7507 7.5223 25.859 9.93721 25.9875 12.4995C26.1159 15.0618 25.2547 17.5754 23.5818 19.5205C21.909 21.4656 19.5526 22.6934 17 22.95V25H28C28.2652 25 28.5196 25.1054 28.7071 25.2929C28.8946 25.4804 29 25.7348 29 26ZM16 19C17.1867 19 18.3467 18.6481 19.3334 17.9888C20.3201 17.3295 21.0892 16.3925 21.5433 15.2961C21.9974 14.1997 22.1162 12.9933 21.8847 11.8295C21.6532 10.6656 21.0818 9.59647 20.2426 8.75736C19.4035 7.91824 18.3344 7.3468 17.1705 7.11528C16.0067 6.88377 14.8003 7.00259 13.7039 7.45672C12.6075 7.91085 11.6705 8.67988 11.0112 9.66657C10.3519 10.6533 10 11.8133 10 13C10.0017 14.5908 10.6343 16.116 11.7592 17.2408C12.884 18.3657 14.4092 18.9983 16 19Z" fill="white"/>
<path d="M61 13C61 12.0111 60.7068 11.0444 60.1573 10.2222C59.6079 9.39992 58.827 8.75906 57.9134 8.38062C56.9998 8.00218 55.9945 7.90316 55.0245 8.09609C54.0546 8.28902 53.1637 8.76522 52.4645 9.46448C51.7652 10.1637 51.289 11.0547 51.0961 12.0246C50.9031 12.9945 51.0022 13.9998 51.3806 14.9134C51.759 15.8271 52.3999 16.608 53.2221 17.1574C54.0444 17.7068 55.0111 18 56 18C57.3261 18 58.5979 17.4732 59.5355 16.5356C60.4732 15.5979 61 14.3261 61 13ZM54 13C54 12.6045 54.1173 12.2178 54.3371 11.8889C54.5568 11.56 54.8692 11.3036 55.2346 11.1523C55.6001 11.0009 56.0022 10.9613 56.3902 11.0384C56.7781 11.1156 57.1345 11.3061 57.4142 11.5858C57.6939 11.8655 57.8844 12.2219 57.9616 12.6098C58.0387 12.9978 57.9991 13.3999 57.8478 13.7654C57.6964 14.1308 57.44 14.4432 57.1111 14.663C56.7822 14.8827 56.3956 15 56 15C55.4696 15 54.9609 14.7893 54.5858 14.4142C54.2107 14.0392 54 13.5304 54 13ZM68 24.5H57.5V23.3913C60.1274 23.012 62.5136 21.6517 64.1784 19.584C65.8433 17.5164 66.6631 14.8948 66.473 12.247C66.2829 9.59924 65.097 7.12172 63.1538 5.31309C61.2107 3.50446 58.6546 2.49896 56 2.49896C53.3454 2.49896 50.7893 3.50446 48.8462 5.31309C46.903 7.12172 45.7171 9.59924 45.527 12.247C45.3369 14.8948 46.1567 17.5164 47.8216 19.584C49.4864 21.6517 51.8726 23.012 54.5 23.3913V24.5H44C43.6022 24.5 43.2206 24.6581 42.9393 24.9394C42.658 25.2207 42.5 25.6022 42.5 26C42.5 26.3978 42.658 26.7794 42.9393 27.0607C43.2206 27.342 43.6022 27.5 44 27.5H68C68.3978 27.5 68.7794 27.342 69.0607 27.0607C69.342 26.7794 69.5 26.3978 69.5 26C69.5 25.6022 69.342 25.2207 69.0607 24.9394C68.7794 24.6581 68.3978 24.5 68 24.5ZM48.5 13C48.5 11.5167 48.9399 10.0666 49.764 8.83324C50.5881 7.59987 51.7594 6.63858 53.1299 6.07092C54.5003 5.50326 56.0083 5.35474 57.4632 5.64413C58.918 5.93352 60.2544 6.64782 61.3033 7.69672C62.3522 8.74561 63.0665 10.082 63.3559 11.5368C63.6453 12.9917 63.4968 14.4997 62.9291 15.8701C62.3614 17.2406 61.4001 18.4119 60.1668 19.236C58.9334 20.0602 57.4834 20.5 56 20.5C54.0116 20.4977 52.1053 19.7068 50.6993 18.3008C49.2932 16.8947 48.5023 14.9884 48.5 13Z" fill="white"/>
</g>
<defs>
<clipPath id="clip0_27_4172">
<rect width="72" height="32" rx="5" fill="white"/>
</clipPath>
</defs>
</svg>
