<svg width="72" height="32" viewBox="0 0 72 32" fill="none" xmlns="http://www.w3.org/2000/svg">
<g clip-path="url(#clip0_27_4177)">
<path d="M10.4177 5.39877C10.37 5.34522 10.3343 5.28203 10.3131 5.21348C10.292 5.14493 10.2858 5.07263 10.295 5.00148C10.3043 4.93033 10.3287 4.86201 10.3667 4.80115C10.4047 4.74029 10.4554 4.68832 10.5152 4.64877C12.5048 3.35473 14.8898 2.81051 17.2438 3.11341C19.5978 3.41632 21.7673 4.54659 23.3644 6.30217C24.9616 8.05774 25.8823 10.3242 25.9619 12.6962C26.0415 15.0683 25.2749 17.3913 23.799 19.25C23.7541 19.3073 23.6972 19.3541 23.6324 19.3871C23.5675 19.4201 23.4962 19.4386 23.4235 19.4412C23.3508 19.4438 23.2784 19.4305 23.2113 19.4022C23.1442 19.374 23.0842 19.3314 23.0352 19.2775L20.9815 17.0175C20.905 16.9332 20.8596 16.8253 20.8528 16.7116C20.846 16.598 20.8782 16.4854 20.944 16.3925C21.7065 15.2779 22.0707 13.9386 21.9776 12.5913C21.8846 11.244 21.3397 9.9675 20.4311 8.9683C19.5226 7.96909 18.3035 7.30563 16.9711 7.08522C15.6387 6.86482 14.2709 7.10037 13.089 7.75377C12.9903 7.8101 12.8754 7.83114 12.7631 7.81342C12.6509 7.7957 12.548 7.74027 12.4715 7.65627L10.4177 5.39877ZM15.8665 9.00002C15.5089 9.01149 15.1544 9.07119 14.8127 9.17752C14.7311 9.20214 14.6571 9.24724 14.5977 9.30854C14.5384 9.36984 14.4958 9.44529 14.4739 9.52773C14.4519 9.61016 14.4515 9.69683 14.4725 9.7795C14.4935 9.86216 14.5353 9.93808 14.594 10L18.859 14.6913C18.9158 14.754 18.9876 14.8012 19.0676 14.8286C19.1476 14.856 19.2333 14.8626 19.3166 14.8479C19.3999 14.8332 19.4781 14.7975 19.5439 14.7443C19.6097 14.6911 19.6609 14.6221 19.6927 14.5438C19.897 14.0548 20.0015 13.5299 20.0002 13C19.9944 12.4651 19.8825 11.9366 19.6711 11.4452C19.4596 10.9538 19.1528 10.5092 18.7683 10.1371C18.3839 9.76513 17.9294 9.47307 17.4313 9.27788C16.9332 9.08269 16.4013 8.98825 15.8665 9.00002ZM26.6727 27.7375C26.4765 27.9159 26.2174 28.0089 25.9525 27.9963C25.6876 27.9836 25.4386 27.8663 25.2602 27.67L24.649 27H4.00024C3.86316 27.0003 3.72747 26.9724 3.60162 26.9181C3.47576 26.8637 3.36242 26.7841 3.26864 26.6841C3.17486 26.5841 3.10264 26.4659 3.05647 26.3368C3.0103 26.2077 2.99116 26.0706 3.00024 25.9338C3.02236 25.6762 3.14135 25.4366 3.3332 25.2633C3.52506 25.09 3.7755 24.9959 4.03399 25H15.0002V22.95C13.3356 22.784 11.7393 22.2027 10.3577 21.2594C8.97618 20.3161 7.85359 19.041 7.09293 17.551C6.33228 16.0611 5.95792 14.404 6.00419 12.7317C6.05046 11.0595 6.51587 9.42563 7.35774 7.98002L5.26024 5.67252C5.17008 5.57566 5.10003 5.46187 5.05417 5.33774C5.0083 5.21361 4.98753 5.08161 4.99305 4.9494C4.99858 4.81718 5.03029 4.68738 5.08635 4.56751C5.14241 4.44764 5.2217 4.34009 5.31963 4.25109C5.41756 4.16209 5.53219 4.09341 5.65686 4.04904C5.78152 4.00467 5.91376 3.98548 6.0459 3.99259C6.17804 3.9997 6.30746 4.03296 6.42664 4.09045C6.54583 4.14795 6.65243 4.22852 6.74024 4.32752L26.7402 26.3275C26.9186 26.5238 27.0117 26.7829 26.999 27.0477C26.9863 27.3126 26.869 27.5616 26.6727 27.74V27.7375ZM16.0002 19C16.4204 18.9996 16.8393 18.9552 17.2502 18.8675L15.5265 16.9713C14.5697 16.8574 13.6861 16.4019 13.0382 15.6886C12.3904 14.9753 12.0218 14.0521 12.0002 13.0888L10.279 11.1938C9.99524 12.0926 9.92724 13.0457 10.0805 13.9757C10.2338 14.9058 10.604 15.7866 11.1612 16.5469C11.7184 17.3071 12.4469 17.9254 13.2876 18.3516C14.1284 18.7778 15.0577 19 16.0002 19ZM22.8302 25L20.1777 22.0825C19.1744 22.547 18.1004 22.8402 17.0002 22.95V25H22.8302Z" fill="white"/>
<path d="M67.11 25.9912L47.11 3.99124C46.9783 3.84275 46.8184 3.72188 46.6396 3.63564C46.4608 3.54941 46.2667 3.49951 46.0685 3.48884C45.8703 3.47818 45.6719 3.50696 45.4849 3.57352C45.2979 3.64009 45.126 3.7431 44.9791 3.8766C44.8322 4.0101 44.7132 4.17142 44.6292 4.35123C44.5451 4.53103 44.4975 4.72574 44.4892 4.92406C44.4809 5.12239 44.5121 5.32038 44.5809 5.50657C44.6497 5.69277 44.7548 5.86345 44.89 6.00874L46.7413 8.04499C45.9453 9.53251 45.5195 11.1899 45.4999 12.8769C45.4803 14.5639 45.8675 16.2307 46.6287 17.7363C47.3899 19.2419 48.5027 20.542 49.8729 21.5263C51.243 22.5107 52.8302 23.1504 54.5 23.3912V24.5H44C43.6022 24.5 43.2206 24.658 42.9393 24.9393C42.658 25.2206 42.5 25.6022 42.5 26C42.5 26.3978 42.658 26.7793 42.9393 27.0606C43.2206 27.342 43.6022 27.5 44 27.5H64.4275L64.89 28.0087C65.1589 28.2976 65.5309 28.4689 65.9253 28.4854C66.3197 28.5019 66.7046 28.3622 66.9967 28.0968C67.2888 27.8313 67.4645 27.4614 67.4857 27.0673C67.5069 26.6731 67.3719 26.2865 67.11 25.9912ZM48.5 13C48.499 12.1355 48.6479 11.2774 48.94 10.4637L50.5538 12.2387C50.4449 13.0177 50.5044 13.8109 50.7282 14.5649C50.9519 15.3189 51.3348 16.0162 51.851 16.6096C52.3672 17.203 53.0047 17.6789 53.7204 18.005C54.4361 18.3311 55.2135 18.4999 56 18.5C56.08 18.5 56.16 18.5 56.24 18.4937L57.8525 20.2675C56.7452 20.5497 55.5881 20.5752 54.4695 20.3421C53.3509 20.1089 52.3004 19.6232 51.3981 18.9221C50.4958 18.2209 49.7657 17.3229 49.2634 16.2966C48.7611 15.2702 48.5 14.1426 48.5 13ZM57.5 24.5V23.3912C58.377 23.2648 59.2346 23.0283 60.0525 22.6875L61.7 24.5H57.5ZM51.1112 5.29374C51.0344 5.11235 50.9941 4.91761 50.9925 4.72062C50.991 4.52364 51.0282 4.32828 51.1021 4.1457C51.1761 3.96312 51.2853 3.79688 51.4234 3.65649C51.5616 3.51611 51.7261 3.40431 51.9075 3.32749C53.9115 2.47835 56.1297 2.27291 58.2556 2.73959C60.3814 3.20627 62.3096 4.32201 63.7736 5.93247C65.2376 7.54293 66.165 9.56852 66.4275 11.7291C66.6899 13.8896 66.2745 16.0783 65.2388 17.9925C65.1101 18.2304 64.9194 18.429 64.6871 18.5674C64.4547 18.7059 64.1892 18.7789 63.9188 18.7787C63.6698 18.7792 63.4247 18.7169 63.2062 18.5975C62.8566 18.4081 62.5964 18.0876 62.483 17.7065C62.3695 17.3253 62.4121 16.9148 62.6012 16.565C63.3414 15.1976 63.6383 13.634 63.4508 12.0905C63.2633 10.547 62.6007 9.09992 61.5548 7.94949C60.5088 6.79905 59.1312 6.00214 57.6124 5.669C56.0937 5.33586 54.509 5.48298 53.0775 6.08999C52.8961 6.16682 52.7014 6.20716 52.5044 6.20872C52.3074 6.21029 52.112 6.17304 51.9295 6.0991C51.7469 6.02516 51.5806 5.91598 51.4403 5.7778C51.2999 5.63961 51.1881 5.47513 51.1112 5.29374ZM61.5 12.955C61.5016 13.152 61.4645 13.3474 61.3906 13.53C61.3168 13.7126 61.2076 13.8789 61.0695 14.0193C60.9314 14.1598 60.7669 14.2716 60.5856 14.3485C60.4042 14.4254 60.2095 14.4659 60.0125 14.4675H60C59.6041 14.4675 59.2243 14.311 58.9433 14.0321C58.6623 13.7533 58.503 13.3746 58.5 12.9787C58.495 12.3638 58.2635 11.7723 57.8498 11.3173C57.4361 10.8623 56.8692 10.5758 56.2575 10.5125C56.0579 10.4973 55.8634 10.4424 55.6853 10.3509C55.5073 10.2594 55.3494 10.1331 55.2209 9.97965C55.0924 9.82616 54.996 9.64851 54.9372 9.45717C54.8784 9.26582 54.8586 9.06464 54.8787 8.8655C54.8989 8.66635 54.9588 8.47326 55.0548 8.2976C55.1507 8.12194 55.2809 7.96726 55.4376 7.84269C55.5942 7.71811 55.7743 7.62616 55.967 7.57224C56.1598 7.51832 56.3614 7.50353 56.56 7.52874C57.9078 7.66442 59.1578 8.29359 60.0698 9.29527C60.9817 10.297 61.4911 11.6004 61.5 12.955Z" fill="white"/>
</g>
<defs>
<clipPath id="clip0_27_4177">
<rect width="72" height="32" rx="5" fill="white"/>
</clipPath>
</defs>
</svg>
