<svg width="72" height="32" viewBox="0 0 72 32" fill="none" xmlns="http://www.w3.org/2000/svg">
<g clip-path="url(#clip0_27_3618)">
<path d="M6.26899 20L11.134 11.5713L10.854 11.0863C10.4354 10.384 10.1648 9.60372 10.0587 8.79316C9.95257 7.9826 10.0132 7.1589 10.2369 6.37262C10.4606 5.58634 10.8425 4.85405 11.3594 4.22071C11.8763 3.58736 12.5171 3.06632 13.2426 2.68955C13.968 2.31278 14.7629 2.08823 15.5782 2.02969C16.3936 1.97115 17.2124 2.07984 17.9842 2.3491C18.7561 2.61837 19.4648 3.04252 20.0668 3.59553C20.6689 4.14854 21.1515 4.81874 21.4852 5.565C21.59 5.79285 21.6072 6.05127 21.5337 6.29102C21.4601 6.53076 21.301 6.73507 21.0865 6.865C20.9646 6.9358 20.8291 6.98001 20.6888 6.99474C20.5486 7.00947 20.4069 6.99439 20.2729 6.95048C20.1389 6.90657 20.0157 6.83482 19.9115 6.73995C19.8072 6.64508 19.7241 6.52923 19.6677 6.4C19.447 5.90119 19.1267 5.45279 18.7263 5.08236C18.3259 4.71194 17.854 4.42731 17.3396 4.24598C16.8251 4.06465 16.279 3.99045 15.7349 4.02794C15.1907 4.06543 14.66 4.21381 14.1753 4.46398C13.6906 4.71414 13.2621 5.0608 12.9163 5.48263C12.5705 5.90447 12.3147 6.39257 12.1645 6.91693C12.0143 7.4413 11.9729 7.99084 12.0429 8.53179C12.1129 9.07273 12.2928 9.59364 12.5715 10.0625C12.5755 10.0674 12.5789 10.0729 12.5815 10.0788L14.3102 13.0713C14.398 13.2233 14.4442 13.3957 14.4442 13.5713C14.4442 13.7468 14.398 13.9192 14.3102 14.0713L9.73274 22C9.46404 22.4524 9.0279 22.7806 8.51883 22.9137C8.00976 23.0467 7.46878 22.9737 7.01313 22.7106C6.55747 22.4475 6.22385 22.0155 6.08456 21.5081C5.94527 21.0007 6.01153 20.4589 6.26899 20ZM23.894 15H22.3515L17.7327 7C17.464 6.54763 17.0279 6.21936 16.5188 6.08634C16.0098 5.95332 15.4688 6.02627 15.0131 6.28937C14.5575 6.55247 14.2239 6.98453 14.0846 7.49191C13.9453 7.9993 14.0115 8.54114 14.269 9L18.599 16.5C18.6867 16.6519 18.8127 16.778 18.9646 16.8658C19.1164 16.9535 19.2886 16.9998 19.464 17H23.9177C26.154 17 28.0365 18.83 28.0002 21.0663C27.983 22.1089 27.5593 23.1036 26.8193 23.8384C26.0794 24.5733 25.0818 24.99 24.039 25C23.7835 24.9969 23.536 25.089 23.3447 25.2584C23.1534 25.4278 23.0319 25.6623 23.004 25.9163C22.9924 26.0544 23.0096 26.1935 23.0547 26.3247C23.0997 26.4559 23.1715 26.5762 23.2655 26.6781C23.3596 26.7801 23.4738 26.8613 23.6009 26.9167C23.7281 26.9721 23.8653 27.0005 24.004 27C24.8016 26.9993 25.591 26.8398 26.3263 26.5307C27.0615 26.2216 27.7278 25.7692 28.2864 25.1999C28.8449 24.6305 29.2844 23.9556 29.5793 23.2146C29.8742 22.4735 30.0186 21.6812 30.004 20.8838C29.9365 17.5988 27.1852 15 23.899 15H23.894ZM26.0002 20.9038C25.9502 19.8275 25.0227 19 23.9465 19H14.3515C14.1759 19 14.0034 19.0462 13.8514 19.1339C13.6993 19.2217 13.573 19.3479 13.4852 19.5L11.4652 23C11.1926 23.4702 10.827 23.8798 10.3908 24.204C9.95452 24.5281 9.4568 24.76 8.92798 24.8854C8.39916 25.0108 7.85033 25.0271 7.31499 24.9334C6.77964 24.8396 6.26902 24.6378 5.81429 24.3401C5.35956 24.0425 4.97026 23.6553 4.67014 23.2021C4.37003 22.749 4.1654 22.2395 4.06875 21.7047C3.9721 21.1699 3.98545 20.6209 4.108 20.0914C4.23054 19.562 4.4597 19.063 4.78149 18.625C4.93692 18.4226 5.01127 18.1695 4.99 17.9153C4.96873 17.661 4.85338 17.4238 4.66649 17.25C4.56317 17.1579 4.44187 17.0883 4.31026 17.0456C4.17864 17.0028 4.03959 16.9878 3.90189 17.0016C3.76419 17.0153 3.63084 17.0575 3.51028 17.1254C3.38972 17.1934 3.28457 17.2856 3.20149 17.3963C2.43013 18.4184 2.00887 19.662 2.00024 20.9425C1.98837 22.2675 2.41543 23.5591 3.21479 24.6159C4.01415 25.6727 5.14084 26.4351 6.41905 26.7842C7.69727 27.1334 9.0551 27.0496 10.2807 26.5459C11.5063 26.0422 12.5306 25.147 13.194 24L13.7715 23H24.0002C24.2712 23.0003 24.5394 22.9456 24.7885 22.8391C25.0377 22.7326 25.2626 22.5766 25.4496 22.3806C25.6366 22.1846 25.7819 21.9526 25.8765 21.6987C25.9712 21.4448 26.0133 21.1744 26.0002 20.9038Z" fill="white"/>
<path d="M64.0004 22.5H54.8391C54.6247 23.4704 54.2062 24.384 53.6113 25.1801C53.0164 25.9762 52.2588 26.6365 51.389 27.1171C50.5191 27.5977 49.5569 27.8876 48.5663 27.9674C47.5757 28.0472 46.5794 27.9152 45.6438 27.5802C44.7082 27.2451 43.8546 26.7146 43.1399 26.0241C42.4252 25.3335 41.8658 24.4987 41.4988 23.5752C41.1317 22.6516 40.9656 21.6605 41.0113 20.6678C41.0571 19.675 41.3137 18.7034 41.7641 17.8175C41.8524 17.6398 41.975 17.4813 42.1249 17.3513C42.2748 17.2213 42.4491 17.1223 42.6375 17.0601C42.826 16.998 43.0249 16.9738 43.2227 16.989C43.4206 17.0042 43.6134 17.0586 43.7902 17.1489C43.9669 17.2392 44.1239 17.3636 44.2522 17.515C44.3804 17.6665 44.4774 17.8418 44.5374 18.031C44.5974 18.2201 44.6193 18.4193 44.6018 18.617C44.5842 18.8146 44.5277 19.0068 44.4354 19.1825C44.1472 19.7449 43.9981 20.3681 44.0004 21C44.0004 22.0609 44.4218 23.0783 45.1719 23.8284C45.9221 24.5786 46.9395 25 48.0004 25C49.0612 25 50.0786 24.5786 50.8288 23.8284C51.5789 23.0783 52.0004 22.0609 52.0004 21C52.0004 20.6022 52.1584 20.2206 52.4397 19.9393C52.721 19.658 53.1025 19.5 53.5004 19.5H64.0004C64.3982 19.5 64.7797 19.658 65.061 19.9393C65.3423 20.2206 65.5004 20.6022 65.5004 21C65.5004 21.3978 65.3423 21.7794 65.061 22.0607C64.7797 22.342 64.3982 22.5 64.0004 22.5ZM64.0004 14C63.2152 13.9995 62.4355 14.1313 61.6941 14.39L57.2779 7.21375C57.1746 7.04598 57.0393 6.9002 56.8797 6.78472C56.7201 6.66924 56.5394 6.58632 56.3477 6.5407C55.9607 6.44858 55.5529 6.51397 55.2141 6.7225C55.0463 6.82575 54.9006 6.96103 54.7851 7.12062C54.6696 7.28022 54.5867 7.46099 54.5411 7.65263C54.4489 8.03966 54.5143 8.44743 54.7229 8.78625L59.8404 17.1012C59.9436 17.2692 60.0789 17.4151 60.2386 17.5307C60.3983 17.6463 60.5792 17.7293 60.771 17.7749C60.9628 17.8205 61.1617 17.8279 61.3563 17.7966C61.551 17.7653 61.7375 17.696 61.9054 17.5925C62.4189 17.277 62.9971 17.0815 63.5967 17.0208C64.1963 16.9602 64.802 17.0358 65.3683 17.242C65.9346 17.4482 66.447 17.7798 66.8672 18.2119C67.2874 18.644 67.6045 19.1655 67.7948 19.7373C67.9851 20.3092 68.0438 20.9167 67.9663 21.5144C67.8889 22.1121 67.6774 22.6846 67.3476 23.1891C67.0179 23.6936 66.5783 24.117 66.0619 24.4278C65.5455 24.7386 64.9655 24.9286 64.3654 24.9837C63.9811 25.0189 63.6253 25.2008 63.3717 25.4916C63.1181 25.7823 62.9863 26.1596 63.0037 26.5451C63.021 26.9305 63.1863 27.2944 63.465 27.5612C63.7437 27.8279 64.1145 27.977 64.5004 27.9775C64.5457 27.98 64.5912 27.98 64.6366 27.9775C66.4464 27.8336 68.1294 26.9922 69.3306 25.6309C70.5318 24.2696 71.157 22.4948 71.0745 20.6812C70.9919 18.8676 70.208 17.157 68.8881 15.9105C67.5683 14.6639 65.8157 13.9789 64.0004 14ZM47.2141 22.2775C47.3819 22.3808 47.5683 22.45 47.7628 22.4812C47.9573 22.5124 48.1561 22.5049 48.3477 22.4593C48.5394 22.4137 48.7201 22.3308 48.8797 22.2153C49.0393 22.0998 49.1746 21.954 49.2779 21.7862L54.3954 13.4712C54.604 13.1326 54.6696 12.7249 54.5777 12.3379C54.4858 11.9509 54.244 11.6162 53.9054 11.4075C53.3796 11.0837 52.936 10.6426 52.6092 10.1187C52.2824 9.59487 52.0813 9.00246 52.0216 8.3879C51.962 7.77333 52.0454 7.15331 52.2654 6.57638C52.4854 5.99946 52.836 5.4813 53.2897 5.06248C53.7434 4.64366 54.2879 4.33555 54.8805 4.16229C55.4732 3.98904 56.0979 3.95533 56.7057 4.06381C57.3136 4.17229 57.888 4.42002 58.3841 4.78759C58.8803 5.15516 59.2846 5.63259 59.5654 6.1825C59.6536 6.36023 59.7762 6.51869 59.9262 6.64869C60.0761 6.77869 60.2503 6.87766 60.4388 6.93985C60.6272 7.00203 60.8261 7.02621 61.024 7.01098C61.2218 6.99576 61.4147 6.94142 61.5914 6.85112C61.7681 6.76083 61.9251 6.63637 62.0534 6.48495C62.1817 6.33354 62.2786 6.15817 62.3386 5.96903C62.3986 5.77988 62.4205 5.5807 62.403 5.38304C62.3855 5.18537 62.3289 4.99315 62.2366 4.8175C61.7731 3.91363 61.1183 3.12149 60.3179 2.49605C59.5175 1.87062 58.5906 1.42688 57.6014 1.19565C56.6123 0.964416 55.5847 0.951228 54.59 1.157C53.5952 1.36277 52.6572 1.78258 51.841 2.38726C51.0248 2.99195 50.3499 3.76703 49.8634 4.6587C49.3768 5.55037 49.0901 6.53726 49.0232 7.55085C48.9563 8.56444 49.1108 9.58045 49.4759 10.5283C49.8411 11.4762 50.4082 12.3333 51.1379 13.04L46.7229 20.2137C46.6196 20.3815 46.5504 20.568 46.5192 20.7625C46.488 20.957 46.4954 21.1557 46.541 21.3474C46.5867 21.539 46.6696 21.7198 46.7851 21.8794C46.9005 22.039 47.0463 22.1742 47.2141 22.2775Z" fill="white"/>
</g>
<defs>
<clipPath id="clip0_27_3618">
<rect width="72" height="32" rx="5" fill="white"/>
</clipPath>
</defs>
</svg>
