<svg width="72" height="32" viewBox="0 0 72 32" fill="none" xmlns="http://www.w3.org/2000/svg">
<g clip-path="url(#clip0_27_384)">
<path d="M19.0725 18.1538L21.9475 19.5888C21.8112 20.2697 21.4429 20.8823 20.9054 21.322C20.3679 21.7617 19.6945 22.0014 19 22C16.6139 21.9974 14.3262 21.0483 12.639 19.361C10.9517 17.6738 10.0026 15.3861 10 13C9.99981 12.3064 10.24 11.6342 10.6796 11.0977C11.1192 10.5612 11.7311 10.1936 12.4113 10.0575L13.8462 12.9325L12.625 14.75C12.5337 14.8869 12.4777 15.0442 12.4617 15.2079C12.4458 15.3717 12.4706 15.5369 12.5337 15.6888C13.2492 17.3892 14.602 18.742 16.3025 19.4575C16.4549 19.5235 16.6213 19.5505 16.7867 19.5361C16.9521 19.5217 17.1113 19.4663 17.25 19.375L19.0725 18.1538ZM29 16C29.0005 18.2444 28.4199 20.4507 27.3147 22.4042C26.2095 24.3576 24.6174 25.9917 22.6934 27.1473C20.7693 28.3029 18.5788 28.9407 16.3352 28.9985C14.0915 29.0564 11.8711 28.5324 9.89 27.4775L5.63375 28.8963C5.28136 29.0138 4.9032 29.0308 4.54166 28.9455C4.18012 28.8602 3.84948 28.6759 3.58681 28.4132C3.32414 28.1505 3.13982 27.8199 3.0545 27.4583C2.96918 27.0968 2.98623 26.7186 3.10375 26.3663L4.5225 22.11C3.59519 20.3665 3.07725 18.4347 3.008 16.4612C2.93875 14.4877 3.32001 12.5243 4.12284 10.7202C4.92567 8.91601 6.12897 7.31844 7.6414 6.04875C9.15383 4.77905 10.9356 3.8706 12.8516 3.39235C14.7675 2.9141 16.7672 2.87862 18.699 3.28859C20.6307 3.69857 22.4436 4.54324 24.0001 5.75847C25.5566 6.97371 26.8158 8.52757 27.6822 10.3021C28.5485 12.0767 28.9992 14.0253 29 16ZM24 19C24.0001 18.8142 23.9485 18.6321 23.8509 18.474C23.7533 18.3159 23.6136 18.1881 23.4475 18.105L19.4475 16.105C19.29 16.0265 19.1147 15.991 18.9391 16.002C18.7635 16.013 18.594 16.0701 18.4475 16.1675L16.6112 17.3925C15.7683 16.9291 15.0746 16.2354 14.6112 15.3925L15.8363 13.5563C15.9337 13.4098 15.9908 13.2402 16.0018 13.0647C16.0127 12.8891 15.9772 12.7137 15.8988 12.5563L13.8988 8.55626C13.8159 8.38885 13.6877 8.248 13.5289 8.14969C13.37 8.05138 13.1868 7.99952 13 8.00001C11.6739 8.00001 10.4021 8.52679 9.46447 9.46447C8.52678 10.4022 8 11.6739 8 13C8.00331 15.9164 9.1633 18.7123 11.2255 20.7745C13.2877 22.8367 16.0836 23.9967 19 24C19.6566 24 20.3068 23.8707 20.9134 23.6194C21.52 23.3681 22.0712 22.9998 22.5355 22.5355C22.9998 22.0712 23.3681 21.5201 23.6194 20.9134C23.8707 20.3068 24 19.6566 24 19Z" fill="white"/>
<path d="M63.4125 19.8825C63.2065 20.9016 62.6549 21.8183 61.8508 22.4775C61.0468 23.1366 60.0397 23.4979 59 23.5C56.2161 23.497 53.5472 22.3898 51.5787 20.4213C49.6102 18.4528 48.503 15.7839 48.5 13C48.5022 11.9603 48.8634 10.9532 49.5225 10.1492C50.1817 9.34516 51.0984 8.79348 52.1175 8.5875C52.4397 8.52375 52.7739 8.56749 53.0688 8.71201C53.3637 8.85652 53.603 9.09383 53.75 9.3875L55.185 12.2625C55.3027 12.4987 55.356 12.7617 55.3395 13.0251C55.3231 13.2885 55.2374 13.5428 55.0913 13.7625L54.0263 15.36C54.5746 16.5034 55.4966 17.4254 56.64 17.9738L58.2375 16.9088C58.4572 16.7626 58.7115 16.6769 58.9749 16.6605C59.2383 16.644 59.5013 16.6973 59.7375 16.815L62.6125 18.25C62.9062 18.397 63.1435 18.6363 63.288 18.9312C63.4325 19.2262 63.4763 19.5603 63.4125 19.8825ZM69.5 16C69.5005 18.3125 68.907 20.5863 67.7763 22.6035C66.6457 24.6207 65.0159 26.3136 63.043 27.5201C61.0702 28.7265 58.8206 29.4059 56.5098 29.4932C54.199 29.5806 51.9045 29.0728 49.8463 28.0188L45.7925 29.375C45.3512 29.5237 44.8771 29.5462 44.4237 29.44C43.9703 29.3338 43.5556 29.103 43.2263 28.7737C42.897 28.4444 42.6663 28.0297 42.56 27.5763C42.4538 27.1229 42.4763 26.6488 42.625 26.2075L43.9763 22.1538C43.0484 20.3362 42.5446 18.332 42.5028 16.2917C42.4611 14.2514 42.8824 12.2282 43.7351 10.3742C44.5879 8.52026 45.8498 6.88371 47.4261 5.58766C49.0024 4.2916 50.852 3.36977 52.8358 2.89146C54.8197 2.41316 56.8862 2.39083 58.8799 2.82616C60.8736 3.26149 62.7427 4.14314 64.3466 5.40484C65.9505 6.66653 67.2476 8.27543 68.1401 10.1106C69.0327 11.9457 69.4977 13.9593 69.5 16ZM66.5 16C66.4994 14.3894 66.1283 12.8006 65.4154 11.3564C64.7025 9.91218 63.6669 8.65132 62.3888 7.67136C61.1107 6.69139 59.6243 6.01859 58.0445 5.70498C56.4648 5.39138 54.8341 5.44539 53.2785 5.86283C51.723 6.28027 50.2843 7.04996 49.0739 8.11235C47.8634 9.17473 46.9135 10.5013 46.2977 11.9896C45.682 13.4778 45.4168 15.0877 45.5228 16.6948C45.6287 18.3018 46.1029 19.863 46.9088 21.2575C47.0153 21.4414 47.0815 21.6458 47.103 21.8572C47.1246 22.0686 47.101 22.2822 47.0338 22.4838L45.7925 26.2075L49.5163 24.9663C49.6694 24.9152 49.8298 24.8891 49.9913 24.8888C50.2547 24.8892 50.5134 24.9591 50.7413 25.0913C52.3375 26.0149 54.1489 26.5018 55.9932 26.503C57.8374 26.5042 59.6495 26.0197 61.2469 25.0981C62.8444 24.1765 64.171 22.8504 65.0931 21.2533C66.0153 19.6561 66.5005 17.8443 66.5 16Z" fill="white"/>
</g>
<defs>
<clipPath id="clip0_27_384">
<rect width="72" height="32" rx="5" fill="white"/>
</clipPath>
</defs>
</svg>
