<svg width="72" height="32" viewBox="0 0 72 32" fill="none" xmlns="http://www.w3.org/2000/svg">
<g clip-path="url(#clip0_27_3467)">
<path d="M31.3158 24.9488L28.3158 25.9488C28.0876 26.0252 27.8394 26.0167 27.6169 25.9248C27.3944 25.833 27.2125 25.6639 27.1046 25.4488L23.3808 18H12.9996C12.7344 18 12.48 17.8947 12.2925 17.7071C12.1049 17.5196 11.9996 17.2652 11.9996 17V13.2925C10.3888 13.7734 9.0049 14.8178 8.10074 16.2349C7.19659 17.6521 6.83259 19.3473 7.07529 21.0107C7.31799 22.674 8.15117 24.1945 9.42254 25.2943C10.6939 26.394 12.3186 26.9994 13.9996 27C17.2383 27 20.2608 24.7438 21.0308 21.75C21.0637 21.6228 21.1212 21.5033 21.2003 21.3983C21.2793 21.2933 21.3782 21.205 21.4914 21.1382C21.6045 21.0715 21.7297 21.0277 21.8598 21.0093C21.9899 20.991 22.1224 20.9984 22.2496 21.0313C22.3768 21.0641 22.4963 21.1217 22.6013 21.2007C22.7063 21.2797 22.7946 21.3786 22.8614 21.4918C22.9281 21.605 22.9719 21.7302 22.9903 21.8603C23.0086 21.9904 23.0012 22.1228 22.9683 22.25C21.9608 26.1625 18.1896 29 13.9996 29C11.7878 28.9987 9.65397 28.183 8.00532 26.7086C6.35667 25.2342 5.30867 23.2043 5.06135 21.0064C4.81403 18.8085 5.3847 16.5965 6.66446 14.7925C7.94421 12.9886 9.84342 11.7191 11.9996 11.2263V8.85126C11.1939 8.61106 10.5016 8.08889 10.0493 7.38023C9.59701 6.67157 9.41488 5.82377 9.53626 4.99187C9.65763 4.15997 10.0744 3.39955 10.7103 2.84966C11.3463 2.29977 12.1589 1.99716 12.9996 1.99716C13.8403 1.99716 14.6529 2.29977 15.2889 2.84966C15.9248 3.39955 16.3416 4.15997 16.4629 4.99187C16.5843 5.82377 16.4022 6.67157 15.9499 7.38023C15.4975 8.08889 14.8053 8.61106 13.9996 8.85126V11H20.9996C21.2648 11 21.5192 11.1054 21.7067 11.2929C21.8942 11.4804 21.9996 11.7348 21.9996 12C21.9996 12.2652 21.8942 12.5196 21.7067 12.7071C21.5192 12.8947 21.2648 13 20.9996 13H13.9996V16H23.9996C24.1852 16.0001 24.367 16.0518 24.5249 16.1494C24.6827 16.247 24.8103 16.3866 24.8933 16.5525L28.5058 23.7775L30.6833 23.0513C30.935 22.9674 31.2096 22.9869 31.4468 23.1055C31.6841 23.2241 31.8645 23.4321 31.9483 23.6838C32.0322 23.9354 32.0127 24.21 31.8941 24.4473C31.7755 24.6845 31.5675 24.8649 31.3158 24.9488Z" fill="white"/>
<path d="M71.8922 23.4425C71.7443 23.0732 71.4558 22.7778 71.0901 22.6212C70.7244 22.4646 70.3115 22.4597 69.9422 22.6075L68.7235 23.095L65.341 16.3287C65.2163 16.0797 65.0249 15.8703 64.788 15.7239C64.5511 15.5776 64.2782 15.5 63.9997 15.5H54.4997V13.5H60.9997C61.3975 13.5 61.7791 13.342 62.0604 13.0607C62.3417 12.7794 62.4997 12.3978 62.4997 12C62.4997 11.6022 62.3417 11.2206 62.0604 10.9393C61.7791 10.658 61.3975 10.5 60.9997 10.5H54.4997V9.72625C55.4306 9.3751 56.2088 8.70847 56.6987 7.84252C57.1887 6.97657 57.3592 5.96619 57.1808 4.98739C57.0023 4.00859 56.4861 3.12344 55.7221 2.48613C54.958 1.84882 53.9946 1.49976 52.9997 1.49976C52.0048 1.49976 51.0414 1.84882 50.2774 2.48613C49.5133 3.12344 48.9971 4.00859 48.8186 4.98739C48.6402 5.96619 48.8108 6.97657 49.3007 7.84252C49.7906 8.70847 50.5688 9.3751 51.4997 9.72625V10.8362C49.9669 11.2546 48.5635 12.0507 47.418 13.1517C46.2724 14.2527 45.4213 15.6234 44.9425 17.1384C44.4638 18.6535 44.3726 20.2644 44.6775 21.8237C44.9823 23.3831 45.6734 24.841 46.6874 26.0642C47.7015 27.2874 49.0061 28.2367 50.482 28.8253C51.9578 29.4138 53.5577 29.6228 55.1352 29.4331C56.7127 29.2434 58.2174 28.6611 59.5117 27.7394C60.8059 26.8178 61.8483 25.5862 62.5435 24.1575C62.6323 23.9802 62.6851 23.787 62.6987 23.5892C62.7124 23.3913 62.6867 23.1927 62.6231 23.0049C62.5596 22.817 62.4594 22.6436 62.3284 22.4947C62.1973 22.3459 62.0381 22.2244 61.8598 22.1375C61.6816 22.0506 61.4879 21.9998 61.2899 21.9883C61.0919 21.9767 60.8936 22.0045 60.7064 22.07C60.5193 22.1356 60.3469 22.2376 60.1995 22.3702C60.052 22.5028 59.9322 22.6633 59.8472 22.8425C59.3871 23.7882 58.7044 24.6082 57.8577 25.2321C57.0109 25.8559 56.0255 26.2649 54.9858 26.4241C53.9462 26.5833 52.8835 26.4878 51.8889 26.1458C50.8943 25.8039 49.9976 25.2257 49.2756 24.461C48.5536 23.6962 48.028 22.7676 47.7439 21.755C47.4597 20.7424 47.4256 19.6759 47.6443 18.6472C47.863 17.6185 48.3281 16.6582 48.9996 15.8487C49.6711 15.0393 50.529 14.4049 51.4997 14V17C51.4997 17.3978 51.6577 17.7794 51.939 18.0607C52.2204 18.342 52.6019 18.5 52.9997 18.5H63.0722L66.6572 25.6712C66.8256 26.0077 67.1142 26.2686 67.4659 26.4021C67.8176 26.5357 68.2067 26.5323 68.556 26.3925L71.056 25.3925C71.2389 25.3194 71.4057 25.211 71.5468 25.0734C71.6878 24.9358 71.8004 24.7718 71.8781 24.5907C71.9557 24.4097 71.9969 24.215 71.9994 24.018C72.0018 23.821 71.9654 23.6254 71.8922 23.4425ZM52.9997 4.5C53.2469 4.5 53.4886 4.57331 53.6942 4.71066C53.8997 4.84801 54.0599 5.04324 54.1546 5.27164C54.2492 5.50005 54.2739 5.75139 54.2257 5.99386C54.1775 6.23634 54.0584 6.45907 53.8836 6.63388C53.7088 6.8087 53.486 6.92775 53.2436 6.97598C53.0011 7.02421 52.7498 6.99946 52.5214 6.90485C52.2929 6.81024 52.0977 6.65002 51.9604 6.44446C51.823 6.2389 51.7497 5.99723 51.7497 5.75C51.7497 5.41848 51.8814 5.10054 52.1158 4.86612C52.3502 4.6317 52.6682 4.5 52.9997 4.5Z" fill="white"/>
</g>
<defs>
<clipPath id="clip0_27_3467">
<rect width="72" height="32" rx="5" fill="white"/>
</clipPath>
</defs>
</svg>
