<svg width="72" height="32" viewBox="0 0 72 32" fill="none" xmlns="http://www.w3.org/2000/svg">
<g clip-path="url(#clip0_27_3106)">
<path d="M30.5436 11.6L17.5436 27.2788C17.3557 27.5057 17.1198 27.6882 16.8528 27.8129C16.5859 27.9376 16.2945 28.0015 15.9999 28C15.7061 28.0008 15.4157 27.9365 15.1497 27.8118C14.8837 27.6871 14.6485 27.5051 14.4611 27.2788L1.45614 11.6C1.28498 11.3956 1.15743 11.1582 1.08133 10.9026C1.00524 10.6471 0.982204 10.3786 1.01364 10.1138C1.04492 9.84833 1.12933 9.59187 1.26183 9.35972C1.39434 9.12757 1.57222 8.92448 1.78489 8.76254C5.87038 5.65467 10.8667 3.98073 15.9999 4.00004C21.1331 3.98073 26.1294 5.65467 30.2149 8.76254C30.4276 8.92448 30.6054 9.12757 30.738 9.35972C30.8705 9.59187 30.9549 9.84833 30.9861 10.1138C31.0176 10.3786 30.9945 10.6471 30.9185 10.9026C30.8424 11.1582 30.7148 11.3956 30.5436 11.6Z" fill="white"/>
<path d="M57.9999 25.5C57.9999 25.8955 57.8826 26.2822 57.6629 26.6111C57.4431 26.94 57.1308 27.1964 56.7653 27.3477C56.3999 27.4991 55.9977 27.5387 55.6098 27.4615C55.2218 27.3844 54.8654 27.1939 54.5857 26.9142C54.306 26.6345 54.1155 26.2781 54.0384 25.8902C53.9612 25.5022 54.0008 25.1001 54.1522 24.7346C54.3036 24.3692 54.5599 24.0568 54.8888 23.837C55.2177 23.6173 55.6044 23.5 55.9999 23.5C56.5304 23.5 57.0391 23.7107 57.4141 24.0858C57.7892 24.4608 57.9999 24.9695 57.9999 25.5ZM69.9512 10.4887C66.0175 7.26255 61.0874 5.49939 55.9999 5.49939C50.9125 5.49939 45.9823 7.26255 42.0487 10.4887C41.8964 10.6137 41.7703 10.7675 41.6775 10.9412C41.5846 11.115 41.5269 11.3053 41.5077 11.5014C41.4884 11.6974 41.5079 11.8953 41.5652 12.0838C41.6224 12.2723 41.7162 12.4477 41.8412 12.6C41.9662 12.7522 42.12 12.8784 42.2937 12.9712C42.4675 13.064 42.6578 13.1217 42.8538 13.141C43.0499 13.1603 43.2478 13.1407 43.4363 13.0835C43.6248 13.0263 43.8002 12.9325 43.9524 12.8075C47.3495 10.0219 51.6068 8.49958 55.9999 8.49958C60.393 8.49958 64.6504 10.0219 68.0474 12.8075C68.1997 12.9325 68.3751 13.0263 68.5636 13.0835C68.7521 13.1407 68.95 13.1603 69.146 13.141C69.3421 13.1217 69.5324 13.064 69.7062 12.9712C69.8799 12.8784 70.0337 12.7522 70.1587 12.6C70.2837 12.4477 70.3775 12.2723 70.4347 12.0838C70.4919 11.8953 70.5115 11.6974 70.4922 11.5014C70.4729 11.3053 70.4152 11.115 70.3224 10.9412C70.2296 10.7675 70.1034 10.6137 69.9512 10.4887ZM65.9312 14.955C63.1046 12.7172 59.6051 11.4997 55.9999 11.4997C52.3948 11.4997 48.8953 12.7172 46.0687 14.955C45.7647 15.2045 45.5708 15.5635 45.5289 15.9545C45.487 16.3456 45.6003 16.7375 45.8446 17.0458C46.0888 17.3541 46.4443 17.5542 46.8346 17.6029C47.2249 17.6516 47.6187 17.5451 47.9312 17.3062C50.2277 15.4883 53.0709 14.4991 55.9999 14.4991C58.9289 14.4991 61.7721 15.4883 64.0687 17.3062C64.3812 17.5451 64.775 17.6516 65.1653 17.6029C65.5556 17.5542 65.9111 17.3541 66.1553 17.0458C66.3995 16.7375 66.5129 16.3456 66.471 15.9545C66.429 15.5635 66.2352 15.2045 65.9312 14.955ZM61.8837 19.4125C60.1737 18.1694 58.114 17.4998 55.9999 17.4998C53.8859 17.4998 51.8261 18.1694 50.1162 19.4125C49.7946 19.6469 49.5793 19.9994 49.5177 20.3925C49.456 20.7856 49.5531 21.1872 49.7874 21.5087C50.0218 21.8303 50.3744 22.0456 50.7675 22.1073C51.1606 22.1689 51.5621 22.0719 51.8837 21.8375C53.0799 20.9678 54.5209 20.4993 55.9999 20.4993C57.4789 20.4993 58.9199 20.9678 60.1162 21.8375C60.2754 21.9535 60.4559 22.0371 60.6475 22.0834C60.839 22.1297 61.0377 22.1378 61.2324 22.1073C61.4271 22.0767 61.6138 22.0082 61.7819 21.9055C61.9501 21.8028 62.0964 21.668 62.2124 21.5087C62.3285 21.3495 62.412 21.169 62.4583 20.9775C62.5046 20.7859 62.5127 20.5872 62.4822 20.3925C62.4517 20.1979 62.3831 20.0111 62.2804 19.843C62.1777 19.6748 62.0429 19.5285 61.8837 19.4125Z" fill="white"/>
</g>
<defs>
<clipPath id="clip0_27_3106">
<rect width="72" height="32" rx="5" fill="white"/>
</clipPath>
</defs>
</svg>
