<svg width="72" height="32" viewBox="0 0 72 32" fill="none" xmlns="http://www.w3.org/2000/svg">
<g clip-path="url(#clip0_27_3111)">
<path d="M30.9861 10.1138C30.9549 9.84833 30.8705 9.59187 30.738 9.35972C30.6054 9.12757 30.4276 8.92448 30.2149 8.76254C26.1294 5.65467 21.1331 3.98073 15.9999 4.00004C10.8667 3.98073 5.87038 5.65467 1.78489 8.76254C1.57222 8.92448 1.39434 9.12757 1.26183 9.35972C1.12933 9.59187 1.04492 9.84833 1.01364 10.1138C0.982204 10.3786 1.00524 10.6471 1.08133 10.9026C1.15743 11.1582 1.28498 11.3956 1.45614 11.6L14.4561 27.2788C14.6441 27.5057 14.88 27.6882 15.147 27.8129C15.4139 27.9376 15.7052 28.0015 15.9999 28C16.2937 28.0008 16.584 27.9365 16.8501 27.8118C17.1161 27.6871 17.3513 27.5051 17.5386 27.2788L30.5386 11.6C30.7107 11.3959 30.8391 11.1588 30.9161 10.9032C30.9931 10.6476 31.0169 10.379 30.9861 10.1138ZM21.2961 19.6138C19.7307 18.5603 17.8867 17.9977 15.9999 17.9977C14.113 17.9977 12.269 18.5603 10.7036 19.6138L3.01114 10.3425C6.74621 7.50765 11.3109 5.98157 15.9999 6.00004C20.6889 5.98157 25.2536 7.50765 28.9886 10.3425L21.2961 19.6138Z" fill="white"/>
<path d="M57.9999 25.5C57.9999 25.8955 57.8826 26.2822 57.6628 26.6111C57.4431 26.94 57.1307 27.1964 56.7653 27.3477C56.3998 27.4991 55.9977 27.5387 55.6097 27.4615C55.2217 27.3844 54.8654 27.1939 54.5857 26.9142C54.306 26.6345 54.1155 26.2781 54.0383 25.8902C53.9612 25.5022 54.0008 25.1001 54.1521 24.7346C54.3035 24.3692 54.5599 24.0568 54.8888 23.837C55.2176 23.6173 55.6043 23.5 55.9999 23.5C56.5303 23.5 57.039 23.7107 57.4141 24.0858C57.7892 24.4608 57.9999 24.9695 57.9999 25.5ZM61.8824 19.4125C60.173 18.1691 58.1136 17.4993 55.9999 17.4993C53.8861 17.4993 51.8267 18.1691 50.1174 19.4125C49.7958 19.6467 49.5805 19.9991 49.5187 20.3921C49.4569 20.7851 49.5538 21.1865 49.788 21.5081C50.0222 21.8297 50.3746 22.045 50.7676 22.1068C51.1606 22.1686 51.5621 22.0717 51.8836 21.8375C53.0799 20.9678 54.5209 20.4993 55.9999 20.4993C57.4789 20.4993 58.9199 20.9678 60.1161 21.8375C60.4377 22.0717 60.8392 22.1686 61.2322 22.1068C61.6252 22.045 61.9775 21.8297 62.2118 21.5081C62.446 21.1865 62.5429 20.7851 62.4811 20.3921C62.4193 19.9991 62.204 19.6467 61.8824 19.4125Z" fill="white"/>
</g>
<defs>
<clipPath id="clip0_27_3111">
<rect width="72" height="32" rx="5" fill="white"/>
</clipPath>
</defs>
</svg>
