<svg width="72" height="32" viewBox="0 0 72 32" fill="none" xmlns="http://www.w3.org/2000/svg">
<g clip-path="url(#clip0_27_3121)">
<path d="M30.9861 10.1138C30.9549 9.84833 30.8705 9.59187 30.738 9.35972C30.6054 9.12757 30.4276 8.92448 30.2149 8.76254C26.1294 5.65467 21.1331 3.98073 15.9999 4.00004C10.8667 3.98073 5.87038 5.65467 1.78489 8.76254C1.57222 8.92448 1.39434 9.12757 1.26183 9.35972C1.12933 9.59187 1.04492 9.84833 1.01364 10.1138C0.982204 10.3786 1.00524 10.6471 1.08133 10.9026C1.15743 11.1582 1.28498 11.3956 1.45614 11.6L14.4561 27.2788C14.6441 27.5057 14.88 27.6882 15.147 27.8129C15.4139 27.9376 15.7052 28.0015 15.9999 28C16.2937 28.0008 16.584 27.9365 16.8501 27.8118C17.1161 27.6871 17.3513 27.5051 17.5386 27.2788L30.5386 11.6C30.7107 11.3959 30.8391 11.1588 30.9161 10.9032C30.9931 10.6476 31.0169 10.379 30.9861 10.1138ZM15.9999 26L3.01114 10.3425C6.74621 7.50765 11.3109 5.98157 15.9999 6.00004C20.6889 5.98157 25.2536 7.50765 28.9886 10.3425L15.9999 26Z" fill="white"/>
<path d="M58 25.5C58 25.8956 57.8827 26.2822 57.6629 26.6111C57.4432 26.94 57.1308 27.1964 56.7654 27.3478C56.3999 27.4991 55.9978 27.5387 55.6098 27.4616C55.2219 27.3844 54.8655 27.1939 54.5858 26.9142C54.3061 26.6345 54.1156 26.2781 54.0384 25.8902C53.9613 25.5022 54.0009 25.1001 54.1522 24.7346C54.3036 24.3692 54.56 24.0568 54.8889 23.8371C55.2178 23.6173 55.6044 23.5 56 23.5C56.5304 23.5 57.0391 23.7107 57.4142 24.0858C57.7893 24.4609 58 24.9696 58 25.5Z" fill="white"/>
</g>
<defs>
<clipPath id="clip0_27_3121">
<rect width="72" height="32" rx="5" fill="white"/>
</clipPath>
</defs>
</svg>
