<svg width="72" height="32" viewBox="0 0 72 32" fill="none" xmlns="http://www.w3.org/2000/svg">
<g clip-path="url(#clip0_27_3116)">
<path d="M30.9861 10.1138C30.9549 9.84833 30.8705 9.59187 30.738 9.35972C30.6054 9.12757 30.4276 8.92448 30.2149 8.76254C26.1294 5.65467 21.1331 3.98073 15.9999 4.00004C10.8667 3.98073 5.87038 5.65467 1.78489 8.76254C1.57222 8.92448 1.39434 9.12757 1.26183 9.35972C1.12933 9.59187 1.04492 9.84833 1.01364 10.1138C0.982204 10.3786 1.00524 10.6471 1.08133 10.9026C1.15743 11.1582 1.28498 11.3956 1.45614 11.6L14.4561 27.2788C14.6441 27.5057 14.88 27.6882 15.147 27.8129C15.4139 27.9376 15.7052 28.0015 15.9999 28C16.2937 28.0008 16.584 27.9365 16.8501 27.8118C17.1161 27.6871 17.3513 27.5051 17.5386 27.2788L30.5386 11.6C30.7107 11.3959 30.8391 11.1588 30.9161 10.9032C30.9931 10.6476 31.0169 10.379 30.9861 10.1138ZM25.1399 14.9813C22.4863 13.0438 19.2856 11.9997 15.9999 11.9997C12.7142 11.9997 9.51353 13.0438 6.85989 14.9813L3.01114 10.3425C6.74621 7.50765 11.3109 5.98157 15.9999 6.00004C20.6889 5.98157 25.2536 7.50765 28.9886 10.3425L25.1399 14.9813Z" fill="white"/>
<path d="M58.0001 25.5C58.0001 25.8956 57.8828 26.2823 57.663 26.6112C57.4433 26.9401 57.1309 27.1964 56.7654 27.3478C56.4 27.4992 55.9979 27.5388 55.6099 27.4616C55.2219 27.3844 54.8656 27.1939 54.5859 26.9142C54.3062 26.6345 54.1157 26.2782 54.0385 25.8902C53.9613 25.5022 54.0009 25.1001 54.1523 24.7347C54.3037 24.3692 54.56 24.0568 54.8889 23.8371C55.2178 23.6173 55.6045 23.5 56.0001 23.5C56.5305 23.5 57.0392 23.7107 57.4143 24.0858C57.7894 24.4609 58.0001 24.9696 58.0001 25.5ZM65.9313 14.955C63.1047 12.7173 59.6052 11.4998 56.0001 11.4998C52.3949 11.4998 48.8954 12.7173 46.0688 14.955C45.7648 15.2046 45.571 15.5635 45.5291 15.9546C45.4871 16.3457 45.6005 16.7376 45.8447 17.0459C46.0889 17.3542 46.4445 17.5542 46.8347 17.6029C47.225 17.6516 47.6188 17.5451 47.9313 17.3063C50.2279 15.4883 53.0711 14.4992 56.0001 14.4992C58.9291 14.4992 61.7723 15.4883 64.0688 17.3063C64.3813 17.5451 64.7751 17.6516 65.1654 17.6029C65.5557 17.5542 65.9112 17.3542 66.1555 17.0459C66.3997 16.7376 66.513 16.3457 66.4711 15.9546C66.4292 15.5635 66.2353 15.2046 65.9313 14.955ZM61.8838 19.4125C60.1739 18.1694 58.1141 17.4999 56.0001 17.4999C53.886 17.4999 51.8263 18.1694 50.1163 19.4125C49.7948 19.6469 49.5795 19.9994 49.5178 20.3926C49.4562 20.7857 49.5532 21.1872 49.7876 21.5088C50.022 21.8304 50.3745 22.0456 50.7676 22.1073C51.1607 22.169 51.5623 22.0719 51.8838 21.8375C53.0801 20.9678 54.5211 20.4994 56.0001 20.4994C57.4791 20.4994 58.9201 20.9678 60.1163 21.8375C60.2756 21.9536 60.4561 22.0371 60.6476 22.0834C60.8391 22.1297 61.0379 22.1378 61.2325 22.1073C61.4272 22.0768 61.6139 22.0082 61.7821 21.9055C61.9502 21.8028 62.0965 21.668 62.2126 21.5088C62.3286 21.3495 62.4122 21.169 62.4585 20.9775C62.5048 20.786 62.5129 20.5872 62.4824 20.3926C62.4518 20.1979 62.3833 20.0112 62.2806 19.843C62.1779 19.6749 62.0431 19.5286 61.8838 19.4125Z" fill="white"/>
</g>
<defs>
<clipPath id="clip0_27_3116">
<rect width="72" height="32" rx="5" fill="white"/>
</clipPath>
</defs>
</svg>
