<svg width="72" height="32" viewBox="0 0 72 32" fill="none" xmlns="http://www.w3.org/2000/svg">
<g clip-path="url(#clip0_27_389)">
<path d="M13 18V24.455C13 24.7202 12.8946 24.9746 12.7071 25.1621C12.5196 25.3496 12.2652 25.455 12 25.455C11.9401 25.4546 11.8803 25.4492 11.8212 25.4388L3.82125 23.9838C3.59083 23.9419 3.38242 23.8205 3.23234 23.6407C3.08226 23.4609 3.00003 23.2342 3 23V18C3 17.7348 3.10536 17.4804 3.29289 17.2929C3.48043 17.1054 3.73478 17 4 17H12C12.2652 17 12.5196 17.1054 12.7071 17.2929C12.8946 17.4804 13 17.7348 13 18ZM12.6412 6.7775C12.5288 6.68358 12.397 6.61552 12.2553 6.57815C12.1136 6.54078 11.9654 6.53501 11.8212 6.56125L3.82125 8.01625C3.59083 8.05811 3.38242 8.17952 3.23234 8.35929C3.08226 8.53907 3.00003 8.76582 3 9V14C3 14.2652 3.10536 14.5196 3.29289 14.7071C3.48043 14.8946 3.73478 15 4 15H12C12.2652 15 12.5196 14.8946 12.7071 14.7071C12.8946 14.5196 13 14.2652 13 14V7.545C13 7.39861 12.9679 7.254 12.9059 7.12138C12.8439 6.98877 12.7536 6.87138 12.6412 6.7775ZM26 17H16C15.7348 17 15.4804 17.1054 15.2929 17.2929C15.1054 17.4804 15 17.7348 15 18V25.1813C14.9997 25.4157 15.0818 25.6427 15.2319 25.8227C15.382 26.0028 15.5906 26.1244 15.8212 26.1663L25.8213 27.9838C25.8802 27.9948 25.94 28.0002 26 28C26.2652 28 26.5196 27.8946 26.7071 27.7071C26.8946 27.5196 27 27.2652 27 27V18C27 17.7348 26.8946 17.4804 26.7071 17.2929C26.5196 17.1054 26.2652 17 26 17ZM26.6413 4.2325C26.5288 4.13858 26.397 4.07052 26.2553 4.03315C26.1136 3.99578 25.9654 3.99001 25.8213 4.01625L15.8212 5.835C15.5908 5.87686 15.3824 5.99827 15.2323 6.17804C15.0823 6.35782 15 6.58457 15 6.81875V14C15 14.2652 15.1054 14.5196 15.2929 14.7071C15.4804 14.8946 15.7348 15 16 15H26C26.2652 15 26.5196 14.8946 26.7071 14.7071C26.8946 14.5196 27 14.2652 27 14V5C27 4.85361 26.9679 4.709 26.9059 4.57638C26.8439 4.44377 26.7536 4.32638 26.6413 4.2325Z" fill="white"/>
<path d="M52.4613 6.48501C52.2926 6.34401 52.095 6.24182 51.8824 6.18565C51.6699 6.12949 51.4476 6.12074 51.2312 6.16001L43.7313 7.52376C43.3856 7.58671 43.0731 7.76895 42.8481 8.03874C42.6231 8.30852 42.4999 8.64872 42.5 9.00001V13.5C42.5 13.8978 42.658 14.2794 42.9393 14.5607C43.2206 14.842 43.6022 15 44 15H51.5C51.8978 15 52.2794 14.842 52.5607 14.5607C52.842 14.2794 53 13.8978 53 13.5V7.63626C53 7.41663 52.9517 7.19968 52.8586 7.00075C52.7655 6.80182 52.6299 6.62576 52.4613 6.48501ZM50 12H45.5V10.25L50 9.43251V12ZM66.9613 3.84876C66.7926 3.70776 66.595 3.60557 66.3824 3.5494C66.1699 3.49324 65.9476 3.48449 65.7313 3.52376L56.2313 5.25001C55.8854 5.31299 55.5727 5.49543 55.3477 5.76547C55.1226 6.03551 54.9996 6.376 55 6.72751V13.5C55 13.8978 55.158 14.2794 55.4393 14.5607C55.7206 14.842 56.1022 15 56.5 15H66C66.3978 15 66.7794 14.842 67.0607 14.5607C67.342 14.2794 67.5 13.8978 67.5 13.5V5.00001C67.5 4.78038 67.4517 4.56343 67.3586 4.3645C67.2655 4.16557 67.1299 3.98951 66.9613 3.84876ZM64.5 12H58V7.97876L64.5 6.79751V12ZM51.5 17H44C43.6022 17 43.2206 17.1581 42.9393 17.4394C42.658 17.7207 42.5 18.1022 42.5 18.5V23C42.4999 23.3513 42.6231 23.6915 42.8481 23.9613C43.0731 24.2311 43.3856 24.4133 43.7313 24.4763L51.2312 25.84C51.4475 25.8794 51.6697 25.8708 51.8823 25.8148C52.0948 25.7587 52.2924 25.6567 52.4612 25.5159C52.6299 25.375 52.7656 25.1989 52.8587 24.9998C52.9519 24.8007 53.0001 24.5836 53 24.3638V18.5C53 18.1022 52.842 17.7207 52.5607 17.4394C52.2794 17.1581 51.8978 17 51.5 17ZM50 22.5663L45.5 21.75V20H50V22.5663ZM66 17H56.5C56.1022 17 55.7206 17.1581 55.4393 17.4394C55.158 17.7207 55 18.1022 55 18.5V25.2725C54.9996 25.624 55.1226 25.9645 55.3477 26.2346C55.5727 26.5046 55.8854 26.687 56.2313 26.75L65.7313 28.4775C65.9476 28.5169 66.1699 28.5083 66.3826 28.4522C66.5952 28.3961 66.7929 28.294 66.9616 28.153C67.1304 28.012 67.2661 27.8357 67.3591 27.6364C67.4522 27.4372 67.5003 27.2199 67.5 27V18.5C67.5 18.1022 67.342 17.7207 67.0607 17.4394C66.7794 17.1581 66.3978 17 66 17ZM64.5 25.2025L58 24.0213V20H64.5V25.2025Z" fill="white"/>
</g>
<defs>
<clipPath id="clip0_27_389">
<rect width="72" height="32" rx="5" fill="white"/>
</clipPath>
</defs>
</svg>
