<svg width="72" height="32" viewBox="0 0 72 32" fill="none" xmlns="http://www.w3.org/2000/svg">
<g clip-path="url(#clip0_27_1632)">
<path d="M29 12C29.0015 13.4968 28.6297 14.9703 27.9182 16.2871C27.2067 17.604 26.1781 18.7226 24.9253 19.5417C23.6726 20.3608 22.2353 20.8546 20.7437 20.9782C19.252 21.1019 17.7531 20.8516 16.3825 20.25L9.87503 27.7775C9.86003 27.795 9.84253 27.8137 9.82628 27.83C9.07605 28.5802 8.05851 29.0017 6.99753 29.0017C5.93654 29.0017 4.91901 28.5802 4.16878 27.83C3.41855 27.0798 2.99707 26.0622 2.99707 25.0012C2.99707 23.9403 3.41855 22.9227 4.16878 22.1725C4.18628 22.1562 4.20378 22.1387 4.22253 22.1237L11.75 15.6175C11.0756 14.0748 10.847 12.3739 11.0902 10.7078C11.3334 9.04177 12.0386 7.47721 13.1259 6.19161C14.2131 4.90601 15.6389 3.95083 17.2415 3.43443C18.844 2.91802 20.5592 2.86106 22.1925 3.27C22.3609 3.31219 22.5154 3.39749 22.6408 3.5175C22.7662 3.63751 22.8582 3.78809 22.9078 3.95444C22.9573 4.1208 22.9627 4.29718 22.9235 4.46626C22.8842 4.63533 22.8016 4.79128 22.6838 4.91875L18 10L18.7075 13.2937L22 14L27.0813 9.31C27.2087 9.19218 27.3647 9.10957 27.5338 9.0703C27.7028 9.03102 27.8792 9.03643 28.0456 9.086C28.2119 9.13556 28.3625 9.22757 28.4825 9.35298C28.6025 9.47839 28.6878 9.63288 28.73 9.80125C28.9095 10.5204 29.0002 11.2588 29 12Z" fill="white"/>
<path d="M68.8086 8.43754C68.7176 8.21265 68.5735 8.01319 68.3885 7.85625C68.2035 7.69932 67.9831 7.5896 67.7464 7.5365C67.5097 7.4834 67.2636 7.48852 67.0293 7.5514C66.795 7.61428 66.5795 7.73306 66.4011 7.89754L61.5536 12.375L59.9686 12.035L59.6249 10.4463L64.0986 5.59879C64.2631 5.42047 64.3819 5.2049 64.4448 4.97059C64.5077 4.73628 64.5128 4.49022 64.4597 4.2535C64.4066 4.01678 64.2969 3.79647 64.1399 3.61147C63.983 3.42646 63.7835 3.28228 63.5586 3.19129C61.8593 2.50722 59.9985 2.32858 58.2 2.67685C56.4016 3.02512 54.742 3.88548 53.4208 5.15447C52.0997 6.42347 51.1732 8.04707 50.7528 9.83006C50.3324 11.6131 50.436 13.4795 51.0511 15.205L43.8649 21.7725C43.8477 21.7874 43.8315 21.8033 43.8161 21.82C42.9836 22.6663 42.5191 23.8072 42.524 24.9943C42.5288 26.1814 43.0025 27.3186 43.8419 28.158C44.6814 28.9974 45.8185 29.4711 47.0056 29.476C48.1927 29.4808 49.3337 29.0164 50.1799 28.1838L50.2274 28.135L56.7949 20.9488C58.5209 21.5656 60.3884 21.6703 62.1725 21.2502C63.9567 20.8302 65.5813 19.9033 66.8508 18.5812C68.1203 17.2591 68.9805 15.5982 69.3279 13.7985C69.6753 11.9988 69.4949 10.1371 68.8086 8.43754ZM59.9999 18.5C58.9862 18.503 57.9862 18.2666 57.0811 17.81C56.789 17.6627 56.4566 17.615 56.1348 17.6742C55.813 17.7333 55.5194 17.896 55.2986 18.1375L48.0386 26.0825C47.7568 26.3643 47.3747 26.5226 46.9761 26.5226C46.5776 26.5226 46.1954 26.3643 45.9136 26.0825C45.6318 25.8008 45.4735 25.4186 45.4735 25.02C45.4735 24.6215 45.6318 24.2393 45.9136 23.9575L53.8574 16.6988C54.0989 16.4781 54.2616 16.1844 54.3208 15.8626C54.3799 15.5408 54.3322 15.2085 54.1849 14.9163C53.7304 14.0116 53.4957 13.0125 53.4999 12C53.5019 10.2767 54.1873 8.6246 55.4059 7.40604C56.6244 6.18748 58.2766 5.50203 59.9999 5.50004H60.1111L56.8961 8.98379C56.7334 9.16037 56.6154 9.37344 56.5521 9.6051C56.4888 9.83676 56.482 10.0802 56.5324 10.315L57.2399 13.6088C57.3006 13.8912 57.4415 14.15 57.6457 14.3542C57.8499 14.5584 58.1088 14.6993 58.3911 14.76L61.6849 15.4675C61.9197 15.5179 62.1632 15.5112 62.3948 15.4479C62.6265 15.3846 62.8396 15.2666 63.0161 15.1038L66.4999 11.89C66.4999 11.9275 66.4999 11.9638 66.4999 12.0013C66.4976 13.7244 65.812 15.3762 64.5934 16.5945C63.3749 17.8128 61.723 18.4981 59.9999 18.5Z" fill="white"/>
</g>
<defs>
<clipPath id="clip0_27_1632">
<rect width="72" height="32" rx="5" fill="white"/>
</clipPath>
</defs>
</svg>
