<svg width="72" height="32" viewBox="0 0 72 32" fill="none" xmlns="http://www.w3.org/2000/svg">
<g clip-path="url(#clip0_27_1637)">
<path d="M8.67495 18.1112C7.70753 19.7987 6.92109 21.5836 6.3287 23.4362C6.30073 23.5234 6.24936 23.6013 6.18017 23.6613C6.11099 23.7213 6.02667 23.7611 5.93639 23.7764C5.84612 23.7918 5.75336 23.782 5.66824 23.7483C5.58312 23.7145 5.50891 23.658 5.4537 23.585C4.17309 21.8118 3.36325 19.7426 3.09995 17.5712C3.0914 17.4994 3.09852 17.4266 3.12084 17.3578C3.14315 17.289 3.18012 17.2259 3.2292 17.1728C3.27827 17.1197 3.33829 17.0778 3.4051 17.0501C3.47192 17.0225 3.54394 17.0096 3.6162 17.0125C5.35371 17.0802 7.06588 17.4521 8.67495 18.1112ZM5.49995 9.64248C8.24953 9.94839 10.9191 10.7586 13.375 12.0325C14.2621 11.1593 15.2058 10.3454 16.2 9.59623C13.5291 8.0176 10.5955 6.93359 7.53995 6.39623C7.46388 6.38261 7.38569 6.38681 7.31151 6.4085C7.23734 6.43019 7.1692 6.46878 7.11245 6.52123C6.36361 7.22588 5.69992 8.01585 5.13495 8.87498C5.0889 8.94655 5.06187 9.02868 5.05643 9.11361C5.05099 9.19854 5.06732 9.28345 5.10387 9.3603C5.14042 9.43716 5.19598 9.50341 5.26529 9.55279C5.3346 9.60217 5.41537 9.63304 5.49995 9.64248ZM29.9475 27.6687C29.8801 27.4717 29.7522 27.3009 29.582 27.1809C29.4119 27.0608 29.2082 26.9975 29 27H22.92C24.4381 26.0434 25.7424 24.7835 26.7509 23.2993C27.7595 21.8152 28.4507 20.1387 28.7812 18.375C28.7978 18.2885 28.7912 18.1991 28.7621 18.116C28.733 18.0328 28.6825 17.9589 28.6156 17.9015C28.5488 17.8442 28.4679 17.8055 28.3813 17.7894C28.2947 17.7734 28.2054 17.7804 28.1224 17.81C25.9888 18.5502 24.0486 19.7603 22.4454 21.3509C20.8422 22.9416 19.6169 24.8722 18.86 27H16.75C17.6021 24.252 19.1351 21.7641 21.2064 19.7673C23.2777 17.7705 25.8201 16.3297 28.5975 15.5787C28.7089 15.5478 28.8062 15.4792 28.8727 15.3846C28.9393 15.2901 28.971 15.1753 28.9625 15.06C28.901 14.1903 28.7511 13.3292 28.5149 12.49C28.4799 12.3628 28.3959 12.2546 28.2814 12.1891C28.1669 12.1235 28.0312 12.1059 27.9037 12.14C24.1452 13.1141 20.7392 15.1322 18.0797 17.961C15.4201 20.7898 13.6157 24.3136 12.875 28.125C12.8494 28.2537 12.8754 28.3873 12.9474 28.4969C13.0194 28.6066 13.1317 28.6836 13.26 28.7112C14.1605 28.9044 15.079 29.0012 16 29H29C29.1601 29.0006 29.318 28.9628 29.4605 28.8897C29.6029 28.8166 29.7258 28.7103 29.8186 28.5799C29.9115 28.4494 29.9716 28.2985 29.9941 28.14C30.0165 27.9814 30.0005 27.8198 29.9475 27.6687ZM3.57245 15.01C5.69882 15.0736 7.7938 15.5402 9.7462 16.385C10.4163 15.3942 11.149 14.4473 11.94 13.55C9.50772 12.3737 6.86729 11.689 4.16995 11.535C4.06045 11.5295 3.95219 11.5602 3.86185 11.6223C3.7715 11.6845 3.70408 11.7745 3.66995 11.8787C3.38925 12.7154 3.19532 13.5787 3.0912 14.455C3.08358 14.5235 3.0902 14.5928 3.11063 14.6586C3.13107 14.7244 3.16488 14.7852 3.20995 14.8373C3.25502 14.8895 3.31038 14.9317 3.37254 14.9614C3.43471 14.9911 3.50234 15.0076 3.5712 15.01H3.57245ZM10.73 5.08248C13.2974 5.81746 15.7458 6.9179 18 8.34998C19.5319 7.37311 21.1565 6.54955 22.85 5.89123C22.9354 5.85745 23.0099 5.80077 23.0653 5.72742C23.1206 5.65407 23.1547 5.56688 23.1637 5.47543C23.1728 5.38398 23.1564 5.29181 23.1165 5.20903C23.0766 5.12626 23.0146 5.05609 22.9375 5.00623C21.1218 3.85942 19.0501 3.18091 16.9078 3.03147C14.7656 2.88204 12.6197 3.26635 10.6625 4.14998C10.5705 4.19273 10.4936 4.26245 10.4422 4.34989C10.3907 4.43732 10.3671 4.53834 10.3744 4.63952C10.3818 4.7407 10.4197 4.83726 10.4832 4.91638C10.5467 4.9955 10.6328 5.05343 10.73 5.08248ZM27 10.3137C27.0738 10.2935 27.1421 10.2565 27.1994 10.2057C27.2567 10.1549 27.3016 10.0916 27.3306 10.0207C27.3596 9.94982 27.3719 9.8732 27.3666 9.79678C27.3613 9.72036 27.3385 9.64619 27.2999 9.57998C26.845 8.78396 26.3079 8.03781 25.6975 7.35373C25.6337 7.28051 25.5499 7.22745 25.4565 7.20103C25.363 7.17462 25.2639 7.17599 25.1712 7.20498C20.9386 8.55137 17.1196 10.9556 14.0756 14.1901C11.0317 17.4245 8.86347 21.3823 7.7762 25.6887C7.75284 25.783 7.75743 25.882 7.78939 25.9736C7.82135 26.0653 7.87932 26.1457 7.9562 26.205C8.67543 26.7735 9.45265 27.2646 10.275 27.67C10.3433 27.7043 10.4187 27.7225 10.4952 27.7232C10.5718 27.7238 10.6474 27.7069 10.7164 27.6737C10.7853 27.6405 10.8458 27.5919 10.893 27.5316C10.9402 27.4714 10.9729 27.4011 10.9887 27.3262C11.8522 23.3 13.8005 19.5866 16.6227 16.5879C19.4448 13.5893 23.0334 11.4196 27 10.3137Z" fill="white"/>
<path d="M69.0001 26.5H64.4788C66.954 24.499 68.6421 21.6873 69.2447 18.562C69.8473 15.4367 69.3256 12.199 67.7719 9.42108C66.2181 6.6432 63.7324 4.50404 60.7539 3.38169C57.7755 2.25934 54.4962 2.22607 51.4956 3.28775C48.495 4.34944 45.9664 6.43772 44.3566 9.1835C42.7468 11.9293 42.1595 15.1558 42.6986 18.2926C43.2377 21.4295 44.8683 24.2749 47.3024 26.3257C49.7365 28.3766 52.8172 29.5009 56.0001 29.5H69.0001C69.3979 29.5 69.7794 29.342 70.0607 29.0607C70.342 28.7794 70.5001 28.3978 70.5001 28C70.5001 27.6022 70.342 27.2207 70.0607 26.9394C69.7794 26.658 69.3979 26.5 69.0001 26.5ZM56.0001 5.50001C57.5061 5.4987 58.9945 5.8241 60.3626 6.45376C59.5551 6.85543 58.7676 7.29335 58.0001 7.76751C56.7184 6.97126 55.3754 6.27824 53.9838 5.69501C54.6481 5.56556 55.3233 5.50026 56.0001 5.50001ZM49.9163 7.45001C51.7947 7.97658 53.6056 8.71947 55.3126 9.66376C54.7517 10.1096 54.2101 10.5763 53.6876 11.0638C51.9265 10.1616 50.0571 9.48866 48.1251 9.06126C48.6591 8.458 49.2601 7.91744 49.9163 7.45001ZM46.3888 11.7788C48.1479 12.0695 49.8607 12.5919 51.4826 13.3325C51.0292 13.8533 50.5942 14.3908 50.1776 14.945C48.762 14.347 47.2764 13.9304 45.7563 13.705C45.9038 13.0438 46.1156 12.3987 46.3888 11.7788ZM46.7338 20.9325C46.0355 19.6247 45.6239 18.1831 45.5263 16.7038C46.533 16.87 47.5204 17.1368 48.4738 17.5C47.8174 18.6038 47.2361 19.7506 46.7338 20.9325ZM48.8751 23.7088C50.0614 20.2918 51.9564 17.1641 54.4358 14.5307C56.9153 11.8972 59.9232 9.81738 63.2626 8.42751C63.773 8.91648 64.2336 9.45496 64.6376 10.035C61.3139 11.2988 58.3206 13.3009 55.8835 15.8902C53.4464 18.4795 51.6292 21.5885 50.5688 24.9825C49.9628 24.6161 49.3953 24.1893 48.8751 23.7088ZM55.3338 26.4775C54.6584 26.4359 53.9887 26.3291 53.3338 26.1588C54.2441 23.0894 55.8611 20.2762 58.0551 17.9447C60.2491 15.6133 62.9591 13.8285 65.9676 12.7338C66.1777 13.3755 66.3251 14.0361 66.4076 14.7063C63.7959 15.7093 61.4443 17.2887 59.5278 19.3268C57.6114 21.3649 56.1795 23.8092 55.3388 26.4775H55.3338ZM58.6338 26.1638C60.094 22.5952 62.8242 19.694 66.2976 18.02C65.9141 19.9595 64.9924 21.7518 63.638 23.192C62.2836 24.6322 60.5511 25.6621 58.6388 26.1638H58.6338Z" fill="white"/>
</g>
<defs>
<clipPath id="clip0_27_1637">
<rect width="72" height="32" rx="5" fill="white"/>
</clipPath>
</defs>
</svg>
