<svg width="72" height="32" viewBox="0 0 72 32" fill="none" xmlns="http://www.w3.org/2000/svg">
<g clip-path="url(#clip0_27_394)">
<path d="M29.2913 8.69C29.1735 8.22919 28.9478 7.80298 28.6329 7.44654C28.318 7.09011 27.9228 6.81366 27.48 6.64C23.195 4.985 16.375 5 16 5C15.625 5 8.805 4.985 4.52 6.64C4.0772 6.81366 3.68204 7.09011 3.36712 7.44654C3.05219 7.80298 2.82653 8.22919 2.70875 8.69C2.385 9.9375 2 12.2175 2 16C2 19.7825 2.385 22.0625 2.70875 23.31C2.82636 23.771 3.05194 24.1975 3.36687 24.5542C3.68181 24.9108 4.07706 25.1875 4.52 25.3613C8.625 26.945 15.05 27 15.9175 27H16.0825C16.95 27 23.3787 26.945 27.48 25.3613C27.9229 25.1875 28.3182 24.9108 28.6331 24.5542C28.9481 24.1975 29.1736 23.771 29.2913 23.31C29.615 22.06 30 19.7825 30 16C30 12.2175 29.615 9.9375 29.2913 8.69ZM20.0737 16.815L15.0737 20.315C14.9242 20.4198 14.7488 20.4816 14.5666 20.4938C14.3844 20.5059 14.2023 20.4679 14.0401 20.384C13.878 20.3 13.7419 20.1732 13.6467 20.0174C13.5515 19.8615 13.5007 19.6826 13.5 19.5V12.5C13.5001 12.3171 13.5503 12.1377 13.6452 11.9813C13.7402 11.8249 13.8762 11.6976 14.0385 11.6132C14.2008 11.5287 14.3831 11.4904 14.5656 11.5024C14.7482 11.5144 14.9239 11.5763 15.0737 11.6813L20.0737 15.1813C20.2053 15.2735 20.3126 15.396 20.3868 15.5386C20.4609 15.6811 20.4996 15.8394 20.4996 16C20.4996 16.1606 20.4609 16.3189 20.3868 16.4614C20.3126 16.604 20.2053 16.7265 20.0737 16.8188V16.815Z" fill="white"/>
<path d="M61.3113 14.7388L54.3112 10.2388C54.0847 10.0931 53.8231 10.0111 53.5539 10.0014C53.2847 9.99174 53.0179 10.0547 52.7815 10.1837C52.545 10.3128 52.3477 10.5031 52.2102 10.7347C52.0727 10.9663 52.0001 11.2306 52 11.5V20.5C52.0001 20.7694 52.0727 21.0337 52.2102 21.2653C52.3477 21.4969 52.545 21.6872 52.7815 21.8163C53.0179 21.9453 53.2847 22.0083 53.5539 21.9986C53.8231 21.9889 54.0847 21.9069 54.3112 21.7613L61.3113 17.2613C61.5223 17.1254 61.6959 16.9387 61.8161 16.7184C61.9363 16.498 61.9993 16.251 61.9993 16C61.9993 15.749 61.9363 15.502 61.8161 15.2816C61.6959 15.0613 61.5223 14.8746 61.3113 14.7388ZM55 17.75V14.25L57.7262 16L55 17.75ZM69.7763 8.5625C69.6382 8.02462 69.3743 7.52723 69.0064 7.11127C68.6385 6.69532 68.177 6.37271 67.66 6.17C63.3 4.48875 56.4113 4.5 56 4.5C55.5887 4.5 48.7 4.48875 44.34 6.1725C43.823 6.37521 43.3615 6.69782 42.9936 7.11377C42.6257 7.52973 42.3618 8.02712 42.2238 8.565C41.8938 9.84 41.5 12.165 41.5 16C41.5 19.835 41.8938 22.16 42.2238 23.435C42.3618 23.9729 42.6257 24.4703 42.9936 24.8862C43.3615 25.3022 43.823 25.6248 44.34 25.8275C48.5263 27.4438 55.045 27.5 55.9213 27.5H56.0788C56.9538 27.5 63.4737 27.4438 67.66 25.8275C68.177 25.6248 68.6385 25.3022 69.0064 24.8862C69.3743 24.4703 69.6382 23.9729 69.7763 23.435C70.1063 22.16 70.5 19.835 70.5 16C70.5 12.165 70.1063 9.84 69.7763 8.565V8.5625ZM66.875 22.6825C66.857 22.7592 66.8211 22.8305 66.7702 22.8907C66.7194 22.9508 66.6551 22.9982 66.5825 23.0288C62.8475 24.47 56.5338 24.5 56.04 24.5H55.9913C55.925 24.5 49.2863 24.5213 45.4212 23.0288C45.348 22.9986 45.2829 22.9515 45.2314 22.8913C45.1799 22.8311 45.1434 22.7596 45.125 22.6825C44.89 21.7775 44.5 19.705 44.5 16C44.5 12.295 44.8937 10.2225 45.125 9.3175C45.143 9.24083 45.1789 9.1695 45.2298 9.10933C45.2806 9.04916 45.3449 9.00185 45.4175 8.97125C49.2863 7.47875 55.9237 7.5 55.99 7.5H56.0088C56.0763 7.5 62.7138 7.47875 66.5788 8.97125C66.652 9.00137 66.7171 9.04847 66.7686 9.10867C66.8201 9.16887 66.8566 9.24044 66.875 9.3175C67.11 10.2225 67.5 12.295 67.5 16C67.5 19.705 67.1063 21.7775 66.875 22.6825Z" fill="white"/>
</g>
<defs>
<clipPath id="clip0_27_394">
<rect width="72" height="32" rx="5" fill="white"/>
</clipPath>
</defs>
</svg>
